<?xml version="1.0" encoding="utf-8"?>
<!-- Generator: Adobe Illustrator 22.0.0, SVG Export Plug-In . SVG Version: 6.00 Build 0)  -->
<svg version="1.1" id="Layer_1" xmlns="http://www.w3.org/2000/svg" xmlns:xlink="http://www.w3.org/1999/xlink" x="0px" y="0px"
	 viewBox="0 0 64 64" style="enable-background:new 0 0 64 64;" xml:space="preserve">
<style type="text/css">
	.st0{fill:#263238;}
	.st1{fill:#FFD740;}
	.st2{fill:#40C4FF;}
	.st3{fill:#FF5252;}
	.st4{fill:#4FC3F7;}
	.st5{fill:#FFFFFF;}
	.st6{fill:#4DB6AC;}
	.st7{fill:#FFCA28;}
	.st8{fill:#37474F;}
</style>
<g>
	<g>
		<g>
			<ellipse class="st1" cx="32" cy="57" rx="8" ry="6"/>
		</g>
		<g>
			<path class="st0" d="M32,63.5c-4.687,0-8.5-2.916-8.5-6.5s3.813-6.5,8.5-6.5c4.687,0,8.5,2.916,8.5,6.5S36.687,63.5,32,63.5z
				 M32,51.5c-4.136,0-7.5,2.468-7.5,5.5s3.365,5.5,7.5,5.5s7.5-2.468,7.5-5.5S36.136,51.5,32,51.5z"/>
		</g>
	</g>
	<g>
		<g>
			<path class="st2" d="M31.999,3c-2.769,0-5.291,1.031-7.225,2.719L20.999,1v19.5l11,4l11-4V1l-3.775,4.719
				C37.291,4.031,34.768,3,31.999,3z"/>
		</g>
		<g>
			<path class="st0" d="M32,25c-0.058,0-0.116-0.01-0.171-0.03l-11-4c-0.198-0.071-0.329-0.26-0.329-0.47V1
				c0-0.212,0.134-0.401,0.334-0.472c0.199-0.073,0.422-0.007,0.556,0.159l3.456,4.32C26.88,3.387,29.4,2.5,32,2.5
				s5.12,0.887,7.154,2.508l3.455-4.32c0.133-0.166,0.357-0.23,0.556-0.159c0.201,0.07,0.335,0.26,0.335,0.472v19.5
				c0,0.21-0.132,0.398-0.329,0.47l-11,4C32.115,24.99,32.057,25,32,25z M21.5,20.149L32,23.968l10.5-3.818V2.426l-2.884,3.605
				c-0.085,0.106-0.21,0.174-0.346,0.186c-0.145,0.008-0.271-0.032-0.374-0.121C36.979,4.422,34.53,3.5,32,3.5
				c-2.53,0-4.979,0.922-6.896,2.596C25,6.185,24.867,6.227,24.73,6.217c-0.136-0.012-0.261-0.079-0.346-0.186L21.5,2.426V20.149z"
				/>
		</g>
	</g>
	<g>
		<g>
			<path class="st0" d="M18.5,58.5c-0.276,0-0.5-0.224-0.5-0.5v-7c0-0.276,0.224-0.5,0.5-0.5S19,50.724,19,51v7
				C19,58.276,18.776,58.5,18.5,58.5z"/>
		</g>
	</g>
	<g>
		<g>
			<path class="st0" d="M45.499,58.5c-0.276,0-0.5-0.224-0.5-0.5v-7c0-0.276,0.224-0.5,0.5-0.5s0.5,0.224,0.5,0.5v7
				C45.999,58.276,45.775,58.5,45.499,58.5z"/>
		</g>
	</g>
	<g>
		<g>
			<path class="st0" d="M35.499,33.5h-7c-4.411,0-8-3.589-8-8V1c0-0.212,0.134-0.401,0.334-0.472
				c0.199-0.073,0.422-0.007,0.556,0.159l3.456,4.32C26.88,3.387,29.4,2.5,32,2.5s5.12,0.887,7.154,2.508l3.455-4.32
				c0.133-0.166,0.357-0.23,0.556-0.159c0.201,0.07,0.335,0.26,0.335,0.472v24.5C43.499,29.911,39.91,33.5,35.499,33.5z M21.5,2.426
				V25.5c0,3.859,3.14,7,7,7h7c3.859,0,7-3.141,7-7V2.426l-2.884,3.605c-0.085,0.106-0.21,0.174-0.346,0.186
				c-0.145,0.008-0.271-0.032-0.374-0.121C36.979,4.422,34.53,3.5,32,3.5c-2.53,0-4.979,0.922-6.896,2.596
				C25,6.185,24.867,6.227,24.73,6.217c-0.136-0.012-0.261-0.079-0.346-0.186L21.5,2.426z"/>
		</g>
	</g>
	<g>
		<g>
			<path class="st0" d="M55.499,58.5c-0.276,0-0.5-0.224-0.5-0.5V46.657c0-3.109-2.088-5.877-5.077-6.731L37.861,36.48
				c-0.172-0.049-0.304-0.186-0.348-0.359l-0.684-2.737c-0.449,0.077-0.896,0.116-1.331,0.116h-7c-0.436,0-0.881-0.039-1.331-0.116
				l-0.684,2.737c-0.043,0.174-0.176,0.311-0.348,0.359l-12.061,3.445C11.087,40.78,9,43.548,9,46.657V58c0,0.276-0.224,0.5-0.5,0.5
				S8,58.276,8,58V46.657c0-3.554,2.386-6.717,5.802-7.692l11.783-3.366l0.73-2.921c0.066-0.265,0.337-0.427,0.598-0.366
				c0.539,0.125,1.073,0.188,1.587,0.188h7c0.516,0,1.049-0.063,1.587-0.188c0.271-0.063,0.533,0.102,0.599,0.366l0.729,2.921
				l11.783,3.366c3.416,0.976,5.802,4.139,5.802,7.692V58C55.999,58.276,55.775,58.5,55.499,58.5z"/>
		</g>
	</g>
	<g>
		<g>
			<path class="st2" d="M50.06,39.446L37.999,36l-0.8-3.201C36.652,32.926,36.085,33,35.499,33h-7c-0.586,0-1.153-0.074-1.7-0.201
				L25.999,36l-12.06,3.446C10.934,40.304,8.824,42.932,8.554,46h46.892C55.174,42.932,53.065,40.304,50.06,39.446z"/>
		</g>
		<g>
			<path class="st0" d="M55.445,46.5H8.554c-0.14,0-0.274-0.059-0.369-0.162s-0.142-0.242-0.129-0.382
				c0.294-3.333,2.549-6.077,5.746-6.991l11.783-3.366l0.73-2.921c0.066-0.265,0.333-0.427,0.598-0.366
				c0.538,0.125,1.072,0.188,1.586,0.188h7c0.516,0,1.049-0.063,1.587-0.188c0.271-0.063,0.533,0.102,0.599,0.366l0.729,2.921
				l11.783,3.366l0,0c3.195,0.913,5.451,3.657,5.746,6.991c0.013,0.14-0.034,0.278-0.129,0.382S55.586,46.5,55.445,46.5z
				 M9.121,45.5h45.758c-0.441-2.669-2.338-4.825-4.957-5.574L37.861,36.48c-0.172-0.049-0.304-0.186-0.348-0.359l-0.684-2.737
				c-0.449,0.077-0.896,0.116-1.331,0.116h-7c-0.436,0-0.881-0.039-1.331-0.116l-0.685,2.737c-0.043,0.174-0.176,0.311-0.348,0.359
				l-12.061,3.445C11.457,40.675,9.56,42.831,9.121,45.5z"/>
		</g>
	</g>
	<g>
		<g>
			<path class="st0" d="M18.5,34.5H7c-0.276,0-0.5-0.224-0.5-0.5s0.224-0.5,0.5-0.5h11.5c0.276,0,0.5,0.224,0.5,0.5
				S18.776,34.5,18.5,34.5z"/>
		</g>
	</g>
	<g>
		<g>
			<path class="st0" d="M5,34.5H3c-0.276,0-0.5-0.224-0.5-0.5s0.224-0.5,0.5-0.5h2c0.276,0,0.5,0.224,0.5,0.5S5.276,34.5,5,34.5z"/>
		</g>
	</g>
	<g>
		<g>
			<path class="st0" d="M57,34.5H45.5c-0.276,0-0.5-0.224-0.5-0.5s0.224-0.5,0.5-0.5H57c0.276,0,0.5,0.224,0.5,0.5
				S57.276,34.5,57,34.5z"/>
		</g>
	</g>
	<g>
		<g>
			<path class="st0" d="M61,34.5h-2c-0.276,0-0.5-0.224-0.5-0.5s0.224-0.5,0.5-0.5h2c0.276,0,0.5,0.224,0.5,0.5S61.276,34.5,61,34.5
				z"/>
		</g>
	</g>
	<g>
		<g>
			<polygon class="st5" points="30,20 24,19 24,16 29,17 			"/>
		</g>
		<g>
			<path class="st0" d="M30,20.5c-0.027,0-0.055-0.002-0.082-0.007l-6-1C23.676,19.453,23.5,19.244,23.5,19v-3
				c0-0.149,0.067-0.292,0.183-0.387c0.116-0.096,0.268-0.134,0.415-0.104l5,1c0.176,0.035,0.319,0.162,0.376,0.332l1,3
				c0.056,0.166,0.02,0.35-0.094,0.483C30.284,20.437,30.145,20.5,30,20.5z M24.5,18.576l4.763,0.794l-0.646-1.937L24.5,16.61
				V18.576z"/>
		</g>
	</g>
	<g>
		<g>
			<polygon class="st5" points="34,20 40,19 40,16 35,17 			"/>
		</g>
		<g>
			<path class="st0" d="M34,20.5c-0.145,0-0.284-0.063-0.38-0.175c-0.114-0.134-0.15-0.317-0.095-0.483l1-3
				c0.057-0.17,0.2-0.297,0.377-0.332l5-1c0.147-0.031,0.299,0.009,0.415,0.104C40.433,15.708,40.5,15.851,40.5,16v3
				c0,0.244-0.177,0.453-0.418,0.493l-6,1C34.055,20.498,34.027,20.5,34,20.5z M35.383,17.434l-0.646,1.937l4.763-0.794V16.61
				L35.383,17.434z"/>
		</g>
	</g>
	<g>
		<g>
			<path class="st0" d="M34.544,28.277H30c-0.276,0-0.5-0.224-0.5-0.5s0.224-0.5,0.5-0.5h4.544c0.276,0,0.5,0.224,0.5,0.5
				S34.82,28.277,34.544,28.277z"/>
		</g>
	</g>
	<g>
		<g>
			<path class="st0" d="M42,58.5h-5c-2.216,0-4.129-1.317-5-3.209c-0.871,1.892-2.784,3.209-5,3.209h-5c-0.276,0-0.5-0.224-0.5-0.5
				s0.224-0.5,0.5-0.5h5c2.481,0,4.5-2.019,4.5-4.5c0-0.276,0.224-0.5,0.5-0.5s0.5,0.224,0.5,0.5c0,2.481,2.019,4.5,4.5,4.5h5
				c0.276,0,0.5,0.224,0.5,0.5S42.276,58.5,42,58.5z"/>
		</g>
	</g>
	<g>
		<g>
			<path class="st0" d="M32,53.5c-0.276,0-0.5-0.224-0.5-0.5v-5c0-0.276,0.224-0.5,0.5-0.5s0.5,0.224,0.5,0.5v5
				C32.5,53.276,32.276,53.5,32,53.5z"/>
		</g>
	</g>
	<g>
		<g>
			<path class="st0" d="M61,13.5h-4c-0.276,0-0.5-0.224-0.5-0.5s0.224-0.5,0.5-0.5h4c0.276,0,0.5,0.224,0.5,0.5S61.276,13.5,61,13.5
				z"/>
		</g>
	</g>
	<g>
		<g>
			<path class="st0" d="M59,15.5c-0.276,0-0.5-0.224-0.5-0.5v-4c0-0.276,0.224-0.5,0.5-0.5s0.5,0.224,0.5,0.5v4
				C59.5,15.276,59.276,15.5,59,15.5z"/>
		</g>
	</g>
	<g>
		<g>
			<path class="st0" d="M55,19.5h-4c-0.276,0-0.5-0.224-0.5-0.5s0.224-0.5,0.5-0.5h4c0.276,0,0.5,0.224,0.5,0.5S55.276,19.5,55,19.5
				z"/>
		</g>
	</g>
	<g>
		<g>
			<path class="st0" d="M53,21.5c-0.276,0-0.5-0.224-0.5-0.5v-4c0-0.276,0.224-0.5,0.5-0.5s0.5,0.224,0.5,0.5v4
				C53.5,21.276,53.276,21.5,53,21.5z"/>
		</g>
	</g>
</g>
</svg>
