<?xml version="1.0" encoding="utf-8"?>
<!-- Generator: Adobe Illustrator 22.0.0, SVG Export Plug-In . SVG Version: 6.00 Build 0)  -->
<svg version="1.1" id="Layer_1" xmlns="http://www.w3.org/2000/svg" xmlns:xlink="http://www.w3.org/1999/xlink" x="0px" y="0px"
	 viewBox="0 0 64 64" style="enable-background:new 0 0 64 64;" xml:space="preserve">
<style type="text/css">
	.st0{fill:#263238;}
	.st1{fill:#FFD740;}
	.st2{fill:#40C4FF;}
	.st3{fill:#FF5252;}
	.st4{fill:#4FC3F7;}
	.st5{fill:#FFFFFF;}
	.st6{fill:#4DB6AC;}
	.st7{fill:#FFCA28;}
	.st8{fill:#37474F;}
</style>
<g>
	<g>
		<g>
			<circle class="st1" cx="15.5" cy="13.5" r="7.5"/>
		</g>
		<g>
			<path class="st0" d="M15.5,21.5c-4.411,0-8-3.589-8-8s3.589-8,8-8s8,3.589,8,8S19.911,21.5,15.5,21.5z M15.5,6.5
				c-3.86,0-7,3.14-7,7s3.14,7,7,7s7-3.14,7-7S19.36,6.5,15.5,6.5z"/>
		</g>
	</g>
	<g>
		<g>
			<path class="st5" d="M25.5,15h-20C4.672,15,4,14.328,4,13.5v0C4,12.672,4.672,12,5.5,12h20c0.828,0,1.5,0.672,1.5,1.5v0
				C27,14.328,26.328,15,25.5,15z"/>
		</g>
		<g>
			<path class="st0" d="M25.5,15.5h-20c-1.103,0-2-0.897-2-2s0.897-2,2-2h20c1.103,0,2,0.897,2,2S26.603,15.5,25.5,15.5z M5.5,12.5
				c-0.551,0-1,0.449-1,1s0.449,1,1,1h20c0.551,0,1-0.449,1-1s-0.449-1-1-1H5.5z"/>
		</g>
	</g>
	<g>
		<g>
			<path class="st0" d="M55,52h-4c-0.276,0-0.5-0.224-0.5-0.5S50.724,51,51,51h4c0.276,0,0.5,0.224,0.5,0.5S55.276,52,55,52z"/>
		</g>
	</g>
	<g>
		<g>
			<path class="st0" d="M53,54c-0.276,0-0.5-0.224-0.5-0.5v-4c0-0.276,0.224-0.5,0.5-0.5s0.5,0.224,0.5,0.5v4
				C53.5,53.776,53.276,54,53,54z"/>
		</g>
	</g>
	<g>
		<g>
			<path class="st0" d="M60,56.5h-4c-0.276,0-0.5-0.224-0.5-0.5s0.224-0.5,0.5-0.5h4c0.276,0,0.5,0.224,0.5,0.5S60.276,56.5,60,56.5
				z"/>
		</g>
	</g>
	<g>
		<g>
			<path class="st0" d="M58,58.5c-0.276,0-0.5-0.224-0.5-0.5v-4c0-0.276,0.224-0.5,0.5-0.5s0.5,0.224,0.5,0.5v4
				C58.5,58.276,58.276,58.5,58,58.5z"/>
		</g>
	</g>
	<g>
		<g>
			<path class="st0" d="M38.48,58.037c-0.4,0-0.777-0.156-1.061-0.439l-8.485-8.485c-0.195-0.195-0.195-0.512,0-0.707l13.082-13.082
				c0.142-0.142,0.355-0.184,0.541-0.11c0.186,0.075,0.309,0.253,0.313,0.454l0.345,17.605c0.008,0.405-0.152,0.803-0.438,1.09
				l-3.235,3.235C39.258,57.88,38.881,58.037,38.48,58.037z M29.995,48.758l8.132,8.132c0.19,0.189,0.52,0.189,0.707,0l3.235-3.234
				c0.095-0.096,0.149-0.229,0.146-0.364l0,0l-0.322-16.431L29.995,48.758z"/>
		</g>
	</g>
	<g>
		<g>
			<path class="st3" d="M32.116,45.93l9.192,9.192l-2.121,2.121c-0.391,0.391-1.024,0.391-1.414,0l-8.485-8.485L32.116,45.93z"/>
		</g>
		<g>
			<path class="st0" d="M38.48,58.037c-0.4,0-0.777-0.156-1.061-0.439l-8.485-8.485c-0.195-0.195-0.195-0.512,0-0.707l2.829-2.829
				c0.195-0.195,0.512-0.195,0.707,0l9.192,9.192c0.195,0.195,0.195,0.512,0,0.707l-2.122,2.122
				C39.258,57.88,38.881,58.037,38.48,58.037z M29.995,48.758l8.132,8.132c0.19,0.189,0.519,0.189,0.707,0l1.769-1.768l-8.485-8.485
				L29.995,48.758z"/>
		</g>
	</g>
	<g>
		<g>
			
				<rect x="33.986" y="18.054" transform="matrix(0.7071 0.7071 -0.7071 0.7071 25.574 -19.6325)" class="st3" width="5" height="6"/>
		</g>
		<g>
			<path class="st0" d="M36.132,25.443c-0.133,0-0.26-0.053-0.354-0.146l-3.535-3.536c-0.195-0.195-0.195-0.512,0-0.707l4.242-4.243
				c0.188-0.188,0.52-0.188,0.707,0l3.536,3.536c0.195,0.195,0.195,0.512,0,0.707l-4.243,4.243
				C36.392,25.391,36.265,25.443,36.132,25.443z M33.304,21.408l2.828,2.829l3.536-3.536l-2.829-2.829L33.304,21.408z"/>
		</g>
	</g>
	<g>
		<g>
			<path class="st0" d="M20.802,40.773c-0.128,0-0.256-0.049-0.354-0.146l-8.485-8.485c-0.584-0.585-0.584-1.536,0-2.121
				l3.235-3.234c0.287-0.287,0.687-0.434,1.09-0.439l17.605,0.345c0.201,0.004,0.379,0.127,0.454,0.313
				c0.075,0.186,0.031,0.399-0.11,0.541L21.156,40.626C21.058,40.724,20.93,40.773,20.802,40.773z M16.259,27.346
				c-0.131,0-0.26,0.053-0.354,0.146l-3.235,3.234c-0.194,0.195-0.194,0.512,0,0.707l8.131,8.132L32.7,27.668l-16.431-0.322l0,0
				C16.265,27.346,16.262,27.346,16.259,27.346z"/>
		</g>
	</g>
	<g>
		<g>
			<path class="st0" d="M30.702,55.915c-0.384,0-0.768-0.146-1.061-0.439l-2.828-2.828c-0.585-0.585-0.585-1.537,0-2.122
				l0.707-0.707c0.195-0.195,0.512-0.195,0.707,0s0.195,0.512,0,0.707l-0.707,0.707c-0.195,0.195-0.195,0.512,0,0.708l2.828,2.828
				c0.196,0.195,0.513,0.195,0.708,0l0.707-0.707c0.195-0.195,0.512-0.195,0.707,0s0.195,0.512,0,0.707l-0.707,0.707
				C31.47,55.768,31.086,55.915,30.702,55.915z"/>
		</g>
	</g>
	<g>
		<g>
			<path class="st0" d="M17.974,43.187c-0.401,0-0.778-0.156-1.061-0.439l-2.828-2.828c-0.283-0.283-0.439-0.66-0.439-1.061
				c0-0.401,0.156-0.778,0.439-1.061l0.707-0.707c0.195-0.195,0.512-0.195,0.707,0s0.195,0.512,0,0.707l-0.707,0.707
				c-0.095,0.095-0.146,0.22-0.146,0.354c0,0.133,0.052,0.259,0.146,0.354l2.829,2.828c0.189,0.189,0.518,0.189,0.707,0l0.707-0.707
				c0.195-0.195,0.512-0.195,0.707,0s0.195,0.512,0,0.707l-0.707,0.707C18.751,43.031,18.375,43.187,17.974,43.187z"/>
		</g>
	</g>
	<g>
		<g>
			
				<rect x="46.006" y="30.075" transform="matrix(-0.7071 -0.7071 0.7071 -0.7071 59.4179 90.7619)" class="st3" width="5" height="6"/>
		</g>
		<g>
			<path class="st0" d="M48.153,37.464c-0.128,0-0.256-0.049-0.354-0.146l-3.536-3.536c-0.195-0.195-0.195-0.512,0-0.707
				l4.243-4.243c0.195-0.195,0.512-0.195,0.707,0l3.536,3.536c0.195,0.195,0.195,0.512,0,0.707l-4.243,4.243
				C48.409,37.416,48.281,37.464,48.153,37.464z M45.324,33.429l2.829,2.829l3.536-3.536l-2.829-2.829L45.324,33.429z"/>
		</g>
	</g>
	<g>
		<g>
			<path class="st0" d="M44.467,41.15c-0.128,0-0.256-0.049-0.354-0.146c-0.195-0.195-0.195-0.512,0-0.707l9.088-9.088
				c0.491-0.492,0.867-1.1,1.086-1.759l1.079-3.235l-3.234,1.078c-0.66,0.22-1.268,0.596-1.759,1.087l-7.651,7.651
				c-0.195,0.195-0.512,0.195-0.707,0s-0.195-0.512,0-0.707l7.651-7.651c0.601-0.601,1.344-1.06,2.15-1.329L56,24.95
				c0.179-0.062,0.378-0.013,0.512,0.121c0.134,0.134,0.181,0.332,0.121,0.512l-1.395,4.183c-0.268,0.806-0.728,1.549-1.328,2.15
				l-9.088,9.088C44.723,41.101,44.595,41.15,44.467,41.15z"/>
		</g>
	</g>
	<g>
		<g>
			<path class="st3" d="M23.631,37.445l-9.192-9.192l-2.121,2.121c-0.391,0.391-0.391,1.024,0,1.414l8.485,8.485L23.631,37.445z"/>
		</g>
		<g>
			<path class="st0" d="M20.802,40.773c-0.128,0-0.256-0.049-0.354-0.146l-8.485-8.485c-0.584-0.585-0.584-1.536,0-2.121
				l2.122-2.122c0.195-0.195,0.512-0.195,0.707,0l9.192,9.192c0.195,0.195,0.195,0.512,0,0.707l-2.829,2.829
				C21.058,40.724,20.93,40.773,20.802,40.773z M14.438,28.959l-1.768,1.768c-0.194,0.195-0.194,0.512,0,0.707l8.131,8.132
				l2.122-2.122L14.438,28.959z"/>
		</g>
	</g>
	<g>
		<g>
			<path class="st0" d="M27.874,50.672c-0.128,0-0.256-0.049-0.354-0.146l-8.485-8.485c-0.195-0.195-0.195-0.512,0-0.707
				l21.143-21.143c2.417-2.418,5.43-4.206,8.711-5.171l7.128-2.097c0.175-0.051,0.365-0.003,0.495,0.126s0.178,0.319,0.126,0.495
				l-2.097,7.128c-0.964,3.28-2.752,6.292-5.171,8.711L28.227,50.526C28.129,50.624,28.001,50.672,27.874,50.672z M20.095,41.687
				l7.778,7.778l20.789-20.789c2.301-2.301,4.001-5.166,4.919-8.286l1.838-6.249l-6.249,1.838c-3.122,0.918-5.987,2.619-8.287,4.919
				L20.095,41.687z"/>
		</g>
	</g>
	<g>
		<g>
			<path class="st0" d="M35.284,26.291c-0.128,0-0.256-0.049-0.354-0.146c-0.195-0.195-0.195-0.512,0-0.707l6.25-6.25
				c0.491-0.491,0.867-1.1,1.087-1.759l1.078-3.235l-3.234,1.078c-0.66,0.22-1.268,0.596-1.759,1.087l-9.088,9.088
				c-0.195,0.195-0.512,0.195-0.707,0s-0.195-0.512,0-0.707l9.088-9.088c0.601-0.601,1.344-1.06,2.15-1.329l4.183-1.395
				c0.18-0.061,0.378-0.013,0.512,0.121s0.181,0.332,0.121,0.512l-1.394,4.184c-0.269,0.806-0.728,1.549-1.329,2.149l-6.25,6.25
				C35.54,26.242,35.412,26.291,35.284,26.291z"/>
		</g>
	</g>
	<g>
		<g>
			<path class="st0" d="M9.842,58.097c-0.128,0-0.256-0.049-0.354-0.146c-0.195-0.195-0.195-0.512,0-0.707l0.707-0.707
				c0.195-0.195,0.512-0.195,0.707,0s0.195,0.512,0,0.707l-0.707,0.707C10.098,58.048,9.97,58.097,9.842,58.097z"/>
		</g>
	</g>
	<g>
		<g>
			<path class="st0" d="M11.963,55.976c-0.128,0-0.256-0.049-0.354-0.146c-0.195-0.195-0.195-0.512,0-0.707l7.778-7.778
				c0.195-0.195,0.512-0.195,0.707,0s0.195,0.512,0,0.707l-7.778,7.778C12.219,55.927,12.091,55.976,11.963,55.976z"/>
		</g>
	</g>
	<g>
		<g>
			<path class="st0" d="M17.621,54.562c-0.128,0-0.256-0.049-0.354-0.146c-0.195-0.195-0.195-0.512,0-0.707l4.243-4.243
				c0.195-0.195,0.512-0.195,0.707,0s0.195,0.512,0,0.707l-4.243,4.243C17.876,54.513,17.749,54.562,17.621,54.562z"/>
		</g>
	</g>
	<g>
		<g>
			<path class="st0" d="M51.562,22.035c-0.128,0-0.256-0.049-0.354-0.146l-3.536-3.536c-0.195-0.195-0.195-0.512,0-0.707
				s0.512-0.195,0.707,0l3.536,3.536c0.195,0.195,0.195,0.512,0,0.707C51.817,21.986,51.689,22.035,51.562,22.035z"/>
		</g>
	</g>
</g>
</svg>
