<?xml version="1.0" encoding="utf-8"?>
<!-- Generator: Adobe Illustrator 22.0.0, SVG Export Plug-In . SVG Version: 6.00 Build 0)  -->
<svg version="1.1" id="Layer_1" xmlns="http://www.w3.org/2000/svg" xmlns:xlink="http://www.w3.org/1999/xlink" x="0px" y="0px"
	 viewBox="0 0 64 64" style="enable-background:new 0 0 64 64;" xml:space="preserve">
<style type="text/css">
	.st0{fill:#263238;}
	.st1{fill:#FFD740;}
	.st2{fill:#40C4FF;}
	.st3{fill:#FF5252;}
	.st4{fill:#4FC3F7;}
	.st5{fill:#FFFFFF;}
	.st6{fill:#4DB6AC;}
	.st7{fill:#FFCA28;}
	.st8{fill:#37474F;}
</style>
<g>
	<g>
		<g>
			<path class="st3" d="M28.5,31.001c0-1.381,1.119-2.5,2.5-2.5h5.5v-10.25h-24v24h16V31.001z"/>
		</g>
	</g>
	<g>
		<g>
			<path class="st0" d="M28.5,42.751h-16c-0.276,0-0.5-0.224-0.5-0.5v-24c0-0.276,0.224-0.5,0.5-0.5h24c0.276,0,0.5,0.224,0.5,0.5
				v10.25c0,0.276-0.224,0.5-0.5,0.5s-0.5-0.224-0.5-0.5v-9.75H13v23h15.5c0.276,0,0.5,0.224,0.5,0.5S28.776,42.751,28.5,42.751z"/>
		</g>
	</g>
	<g>
		<g>
			<path class="st5" d="M30.447,28.562l-2.947-1.31l-3,4.499l-3-4.5l-6.031,2.68c-1.806,0.802-2.969,2.593-2.969,4.569L12.5,42.251
				h16"/>
		</g>
		<g>
			<path class="st0" d="M28.5,42.751h-16c-0.133,0-0.26-0.053-0.354-0.146S12,42.384,12,42.251l0.001-7.75
				c0-2.171,1.282-4.143,3.267-5.025l6.03-2.681c0.222-0.1,0.483-0.022,0.619,0.18l2.584,3.876l2.583-3.875
				c0.137-0.202,0.399-0.278,0.619-0.18l2.947,1.31c0.252,0.112,0.366,0.407,0.254,0.66s-0.407,0.364-0.66,0.254l-2.562-1.139
				l-2.766,4.148c-0.186,0.277-0.646,0.277-0.832,0l-2.767-4.149l-5.645,2.51c-1.624,0.722-2.673,2.336-2.673,4.111L13,41.751h15.5
				c0.276,0,0.5,0.224,0.5,0.5S28.776,42.751,28.5,42.751z"/>
		</g>
	</g>
	<g>
		<g>
			<circle class="st5" cx="24.501" cy="18.251" r="8"/>
		</g>
		<g>
			<path class="st0" d="M24.501,26.751c-4.687,0-8.5-3.813-8.5-8.5s3.813-8.5,8.5-8.5s8.5,3.813,8.5,8.5
				S29.188,26.751,24.501,26.751z M24.501,10.751c-4.136,0-7.5,3.364-7.5,7.5s3.364,7.5,7.5,7.5s7.5-3.364,7.5-7.5
				S28.637,10.751,24.501,10.751z"/>
		</g>
	</g>
	<g>
		<g>
			<path class="st1" d="M30.048,13.625l0.596-0.496c-1.468-1.758-3.674-2.878-6.143-2.878c-4.418,0-8,3.582-8,8h0.755
				C21.929,18.251,26.455,16.614,30.048,13.625z"/>
		</g>
		<g>
			<path class="st0" d="M17.256,18.751h-0.755c-0.276,0-0.5-0.224-0.5-0.5c0-4.687,3.813-8.5,8.5-8.5
				c2.526,0,4.905,1.114,6.526,3.058c0.085,0.102,0.126,0.233,0.114,0.365c-0.012,0.133-0.076,0.254-0.178,0.339l-0.596,0.496
				c0,0,0,0.001-0.001,0.001C26.692,17.067,22.036,18.751,17.256,18.751z M17.018,17.751h0.238c4.547,0,8.977-1.602,12.473-4.511
				l0.198-0.165c-1.414-1.482-3.364-2.324-5.426-2.324C20.533,10.751,17.275,13.848,17.018,17.751z M30.048,13.625h0.01H30.048z"/>
		</g>
	</g>
	<g>
		<g>
			<path class="st5" d="M24.501,26.251c-1.056,0-2.062-0.21-2.986-0.582H21.5l0,1.583l3,4.5l3-4.499v-0.001l0-1.588
				C26.573,26.039,25.562,26.251,24.501,26.251z"/>
		</g>
		<g>
			<path class="st0" d="M24.501,32.252c-0.167,0-0.323-0.084-0.416-0.223l-3-4.5c-0.055-0.082-0.084-0.179-0.084-0.277L21,25.669
				c0-0.133,0.053-0.26,0.146-0.354c0.14-0.139,0.372-0.183,0.555-0.11c1.804,0.727,3.812,0.724,5.611-0.005
				c0.154-0.062,0.329-0.043,0.467,0.049C27.917,25.343,28,25.498,28,25.664v1.588c0,0.099-0.029,0.195-0.084,0.277l-2.999,4.5
				C24.824,32.168,24.668,32.252,24.501,32.252z M22.001,27.101l2.5,3.75L27,27.102v-0.729c-1.624,0.503-3.376,0.503-5-0.001
				L22.001,27.101z"/>
		</g>
	</g>
	<g>
		<g>
			<polygon class="st5" points="21.501,27.252 20.501,31.752 28.5,31.753 27.5,27.253 24.501,31.752 			"/>
		</g>
		<g>
			<path class="st0" d="M28.5,32.253L28.5,32.253l-7.999-0.001c-0.151,0-0.295-0.069-0.39-0.188
				c-0.096-0.118-0.131-0.272-0.099-0.421l1-4.5c0.044-0.195,0.199-0.347,0.396-0.383c0.196-0.035,0.397,0.048,0.508,0.214
				l2.584,3.876l2.583-3.875c0.11-0.167,0.312-0.252,0.508-0.214c0.197,0.036,0.353,0.188,0.396,0.383l1,4.5
				c0.033,0.148-0.003,0.303-0.099,0.421C28.795,32.185,28.651,32.253,28.5,32.253z M25.435,31.253h2.442l-0.611-2.748
				L25.435,31.253z M21.124,31.252h2.443l-1.832-2.748L21.124,31.252z"/>
		</g>
	</g>
	<g>
		<g>
			<path class="st0" d="M56,59.001H33c-1.654,0-3-1.346-3-3v-23c0-1.654,1.346-3,3-3h23c1.654,0,3,1.346,3,3v23
				C59,57.655,57.654,59.001,56,59.001z M33,31.001c-1.103,0-2,0.897-2,2v23c0,1.103,0.897,2,2,2h23c1.103,0,2-0.897,2-2v-23
				c0-1.103-0.897-2-2-2H33z"/>
		</g>
	</g>
	<g>
		<g>
			<path class="st0" d="M5.5,50.001c-0.276,0-0.5-0.224-0.5-0.5v-41.5c0-1.654,1.346-3,3-3h33c1.654,0,3,1.346,3,3v20.5
				c0,0.276-0.224,0.5-0.5,0.5s-0.5-0.224-0.5-0.5v-20.5c0-1.103-0.897-2-2-2H8c-1.103,0-2,0.897-2,2v39.266
				c0.531-0.476,1.232-0.766,2-0.766h20.5c0.276,0,0.5,0.224,0.5,0.5s-0.224,0.5-0.5,0.5H8c-1.103,0-2,0.897-2,2
				C6,49.777,5.776,50.001,5.5,50.001z M40.5,14.001c-0.276,0-0.5-0.224-0.5-0.5v-4c0-0.275-0.225-0.5-0.5-0.5h-4
				c-0.276,0-0.5-0.224-0.5-0.5s0.224-0.5,0.5-0.5h4c0.827,0,1.5,0.673,1.5,1.5v4C41,13.777,40.776,14.001,40.5,14.001z"/>
		</g>
	</g>
	<g>
		<g>
			<path class="st2" d="M44.5,34.501c-5.523,0-10,4.477-10,10s4.477,10,10,10s10-4.477,10-10S50.023,34.501,44.5,34.501z
				 M44.5,48.501c-2.209,0-4-1.791-4-4c0-2.209,1.791-4,4-4s4,1.791,4,4C48.5,46.71,46.709,48.501,44.5,48.501z"/>
		</g>
		<g>
			<path class="st0" d="M44.5,55.001c-5.79,0-10.5-4.71-10.5-10.5s4.71-10.5,10.5-10.5s10.5,4.71,10.5,10.5
				S50.29,55.001,44.5,55.001z M44.5,35.001c-5.238,0-9.5,4.262-9.5,9.5s4.262,9.5,9.5,9.5s9.5-4.262,9.5-9.5
				S49.738,35.001,44.5,35.001z M44.5,49.001c-2.481,0-4.5-2.019-4.5-4.5s2.019-4.5,4.5-4.5s4.5,2.019,4.5,4.5
				S46.981,49.001,44.5,49.001z M44.5,41.001c-1.93,0-3.5,1.57-3.5,3.5s1.57,3.5,3.5,3.5s3.5-1.57,3.5-3.5S46.43,41.001,44.5,41.001
				z"/>
		</g>
	</g>
	<g>
		<g>
			<path class="st0" d="M12.5,57.501h-2c-0.276,0-0.5-0.224-0.5-0.5s0.224-0.5,0.5-0.5h2c0.276,0,0.5,0.224,0.5,0.5
				S12.776,57.501,12.5,57.501z"/>
		</g>
	</g>
	<g>
		<g>
			<path class="st0" d="M26,57.501H14.5c-0.276,0-0.5-0.224-0.5-0.5s0.224-0.5,0.5-0.5H26c0.276,0,0.5,0.224,0.5,0.5
				S26.276,57.501,26,57.501z"/>
		</g>
	</g>
	<g>
		<g>
			<path class="st0" d="M51,22.501c-0.215,0-0.406-0.138-0.475-0.342l-0.553-1.658c-0.23-0.692-0.78-1.242-1.473-1.473l-1.658-0.553
				c-0.204-0.068-0.342-0.26-0.342-0.475s0.138-0.406,0.342-0.475l1.658-0.553c0.692-0.23,1.243-0.781,1.473-1.473l0.553-1.658
				c0.137-0.408,0.812-0.408,0.949,0l0.553,1.658c0.229,0.691,0.78,1.242,1.473,1.473l1.658,0.553
				c0.204,0.068,0.342,0.26,0.342,0.475s-0.138,0.406-0.342,0.475L53.5,19.028c-0.692,0.23-1.242,0.78-1.473,1.473l-0.553,1.658
				C51.406,22.363,51.215,22.501,51,22.501z M48.581,18.001l0.235,0.078c0.989,0.329,1.776,1.116,2.105,2.105L51,20.42l0.078-0.235
				c0.329-0.989,1.116-1.776,2.105-2.105l0.235-0.078l-0.235-0.078c-0.989-0.331-1.776-1.118-2.105-2.105L51,15.582l-0.078,0.235
				c-0.329,0.987-1.116,1.774-2.105,2.105L48.581,18.001z"/>
		</g>
	</g>
	<g>
		<g>
			<path class="st5" d="M39.517,53.162l3.35-5.017c-0.893-0.401-1.609-1.118-2.011-2.011l-5.018,3.35
				C36.719,51.011,37.99,52.282,39.517,53.162z"/>
		</g>
		<g>
			<path class="st0" d="M39.517,53.662c-0.085,0-0.171-0.021-0.25-0.066c-1.603-0.925-2.938-2.26-3.861-3.862
				c-0.131-0.229-0.063-0.52,0.156-0.666l5.018-3.35c0.122-0.082,0.271-0.104,0.416-0.064c0.142,0.041,0.258,0.142,0.317,0.276
				c0.352,0.783,0.976,1.407,1.759,1.759c0.134,0.061,0.234,0.177,0.275,0.317c0.041,0.142,0.017,0.294-0.064,0.416l-3.35,5.018
				C39.837,53.583,39.678,53.662,39.517,53.662z M36.516,49.633c0.735,1.143,1.709,2.116,2.852,2.853l2.776-4.159
				c-0.599-0.368-1.102-0.871-1.47-1.47L36.516,49.633z"/>
		</g>
	</g>
	<g>
		<g>
			<path class="st5" d="M49.409,35.794l-3.278,5.061c0.895,0.401,1.614,1.12,2.015,2.015l5.061-3.278
				C52.31,38.006,50.995,36.691,49.409,35.794z"/>
		</g>
		<g>
			<path class="st0" d="M48.146,43.37c-0.048,0-0.095-0.007-0.142-0.021c-0.14-0.041-0.255-0.142-0.314-0.275
				c-0.352-0.784-0.979-1.411-1.763-1.763c-0.134-0.06-0.234-0.175-0.275-0.314s-0.02-0.291,0.06-0.413l3.278-5.062
				c0.145-0.223,0.438-0.293,0.666-0.164c1.666,0.942,3.045,2.321,3.987,3.987c0.13,0.23,0.059,0.522-0.164,0.666l-5.062,3.278
				C48.336,43.343,48.241,43.37,48.146,43.37z M46.848,40.669c0.604,0.371,1.113,0.88,1.484,1.484l4.198-2.719
				c-0.756-1.195-1.769-2.208-2.964-2.964L46.848,40.669z"/>
		</g>
	</g>
	<g>
		<g>
			<path class="st0" d="M28.5,50.001h-19c-0.276,0-0.5-0.224-0.5-0.5s0.224-0.5,0.5-0.5h19c0.276,0,0.5,0.224,0.5,0.5
				S28.776,50.001,28.5,50.001z"/>
		</g>
	</g>
	<g>
		<g>
			<path class="st0" d="M28.5,53.001H8c-1.654,0-3-1.346-3-3v-0.5c0-0.276,0.224-0.5,0.5-0.5s0.5,0.224,0.5,0.5v0.5
				c0,1.103,0.897,2,2,2h20.5c0.276,0,0.5,0.224,0.5,0.5S28.776,53.001,28.5,53.001z"/>
		</g>
	</g>
</g>
</svg>
