<?xml version="1.0" encoding="utf-8"?>
<!-- Generator: Adobe Illustrator 22.0.0, SVG Export Plug-In . SVG Version: 6.00 Build 0)  -->
<svg version="1.1" id="Layer_1" xmlns="http://www.w3.org/2000/svg" xmlns:xlink="http://www.w3.org/1999/xlink" x="0px" y="0px"
	 viewBox="0 0 64 64" style="enable-background:new 0 0 64 64;" xml:space="preserve">
<style type="text/css">
	.st0{fill:#263238;}
	.st1{fill:#FFD740;}
	.st2{fill:#40C4FF;}
	.st3{fill:#FF5252;}
	.st4{fill:#4FC3F7;}
	.st5{fill:#FFFFFF;}
	.st6{fill:#4DB6AC;}
	.st7{fill:#FFCA28;}
	.st8{fill:#37474F;}
</style>
<g>
	<g>
		<g>
			<path class="st0" d="M60.5,55.5h-47c-0.276,0-0.5-0.224-0.5-0.5V30c0-0.276,0.224-0.5,0.5-0.5h47c0.276,0,0.5,0.224,0.5,0.5v25
				C61,55.276,60.776,55.5,60.5,55.5z M14,54.5h46v-24H14V54.5z"/>
		</g>
	</g>
	<g>
		<g>
			<path class="st0" d="M11.5,38.5h-8C3.224,38.5,3,38.276,3,38V13c0-0.276,0.224-0.5,0.5-0.5h47c0.276,0,0.5,0.224,0.5,0.5v15
				c0,0.276-0.224,0.5-0.5,0.5S50,28.276,50,28V13.5H4v24h7.5c0.276,0,0.5,0.224,0.5,0.5S11.776,38.5,11.5,38.5z"/>
		</g>
	</g>
	<g>
		<g>
			<path class="st0" d="M11.5,35.5h-0.697c-0.228,0-0.427-0.154-0.484-0.375c-0.498-1.934-2.009-3.445-3.944-3.943
				C6.154,31.124,6,30.926,6,30.697V20.304c0-0.229,0.154-0.427,0.375-0.484c1.934-0.498,3.445-2.01,3.944-3.944
				c0.057-0.221,0.256-0.375,0.484-0.375h32.394c0.228,0,0.427,0.154,0.484,0.375c0.499,1.935,2.01,3.446,3.944,3.944
				C47.846,19.877,48,20.075,48,20.304V28c0,0.276-0.224,0.5-0.5,0.5S47,28.276,47,28v-7.321c-1.982-0.64-3.539-2.196-4.179-4.179
				H11.179c-0.64,1.982-2.196,3.539-4.179,4.179v9.644c1.982,0.64,3.539,2.196,4.179,4.178H11.5c0.276,0,0.5,0.224,0.5,0.5
				S11.776,35.5,11.5,35.5z"/>
		</g>
	</g>
	<g>
		<g>
			<path class="st6" d="M39.272,27.75c0.136-0.732,0.228-1.479,0.228-2.25C39.5,18.596,33.903,13,27,13
				c-6.904,0-12.5,5.596-12.5,12.5c0,0.771,0.092,1.518,0.228,2.25"/>
		</g>
		<g>
			<path class="st0" d="M39.272,28.25c-0.03,0-0.061-0.003-0.092-0.009c-0.271-0.05-0.451-0.311-0.4-0.582
				C38.93,26.852,39,26.165,39,25.5c0-6.617-5.383-12-12-12s-12,5.383-12,12c0,0.658,0.072,1.364,0.219,2.159
				c0.05,0.271-0.129,0.532-0.4,0.582c-0.27,0.053-0.532-0.128-0.583-0.4C14.077,26.985,14,26.22,14,25.5c0-7.168,5.832-13,13-13
				s13,5.832,13,13c0,0.718-0.077,1.484-0.236,2.341C39.719,28.082,39.509,28.25,39.272,28.25z"/>
		</g>
	</g>
	<g>
		<g>
			<path class="st0" d="M53.197,52.5H20.803c-0.228,0-0.427-0.154-0.484-0.375c-0.498-1.934-2.009-3.445-3.944-3.943
				C16.154,48.124,16,47.926,16,47.697V37.304c0-0.229,0.154-0.427,0.375-0.484c1.934-0.498,3.445-2.01,3.944-3.944
				c0.057-0.221,0.256-0.375,0.484-0.375h32.394c0.228,0,0.427,0.154,0.484,0.375c0.499,1.935,2.01,3.446,3.944,3.944
				C57.846,36.877,58,37.075,58,37.304v10.394c0,0.229-0.154,0.427-0.375,0.484c-1.935,0.498-3.446,2.01-3.944,3.943
				C53.624,52.346,53.425,52.5,53.197,52.5z M21.179,51.5h31.643c0.64-1.981,2.196-3.538,4.179-4.178v-9.644
				c-1.982-0.64-3.539-2.196-4.179-4.179H21.179c-0.64,1.982-2.196,3.539-4.179,4.179v9.644
				C18.982,47.962,20.539,49.519,21.179,51.5z"/>
		</g>
	</g>
	<g>
		<g>
			<circle class="st6" cx="37" cy="42.5" r="12.5"/>
		</g>
		<g>
			<path class="st0" d="M37,55.5c-7.168,0-13-5.832-13-13s5.832-13,13-13s13,5.832,13,13S44.168,55.5,37,55.5z M37,30.5
				c-6.617,0-12,5.383-12,12s5.383,12,12,12s12-5.383,12-12S43.616,30.5,37,30.5z"/>
		</g>
	</g>
	<g>
		<g>
			<path class="st0" d="M39,9.5h-2c-0.276,0-0.5-0.224-0.5-0.5s0.224-0.5,0.5-0.5h2c0.276,0,0.5,0.224,0.5,0.5S39.276,9.5,39,9.5z"
				/>
		</g>
	</g>
	<g>
		<g>
			<path class="st0" d="M35,9.5H15c-0.276,0-0.5-0.224-0.5-0.5s0.224-0.5,0.5-0.5h20c0.276,0,0.5,0.224,0.5,0.5S35.276,9.5,35,9.5z"
				/>
		</g>
	</g>
	<g>
		<g>
			<path class="st0" d="M32,59.5h-2c-0.276,0-0.5-0.224-0.5-0.5s0.224-0.5,0.5-0.5h2c0.276,0,0.5,0.224,0.5,0.5S32.276,59.5,32,59.5
				z"/>
		</g>
	</g>
	<g>
		<g>
			<path class="st0" d="M54,59.5H34c-0.276,0-0.5-0.224-0.5-0.5s0.224-0.5,0.5-0.5h20c0.276,0,0.5,0.224,0.5,0.5
				S54.276,59.5,54,59.5z"/>
		</g>
	</g>
	<g>
		<g>
			<path class="st1" d="M43.75,34.25l-2.5,2h-6.5c-2.209,0-4,1.791-4,4l2,0h11V34.25z"/>
		</g>
		<g>
			<path class="st0" d="M43.75,40.75h-13c-0.276,0-0.5-0.224-0.5-0.5c0-2.481,2.019-4.5,4.5-4.5h6.325l2.363-1.891
				c0.15-0.119,0.355-0.143,0.529-0.06c0.173,0.083,0.283,0.258,0.283,0.45v6C44.25,40.526,44.026,40.75,43.75,40.75z M31.285,39.75
				H43.25v-4.46l-1.688,1.351c-0.089,0.07-0.199,0.109-0.312,0.109h-6.5C32.989,36.75,31.528,38.056,31.285,39.75z"/>
		</g>
	</g>
	<g>
		<g>
			<path class="st1" d="M32.75,47.75c0-0.828,0.672-1.5,1.5-1.5h-3.5c-0.828,0-1.5,0.672-1.5,1.5s0.672,1.5,1.5,1.5h3.5
				C33.421,49.25,32.75,48.578,32.75,47.75z"/>
		</g>
		<g>
			<path class="st0" d="M34.25,49.75h-3.5c-1.103,0-2-0.897-2-2s0.897-2,2-2h3.5c0.276,0,0.5,0.224,0.5,0.5s-0.224,0.5-0.5,0.5
				c-0.551,0-1,0.448-1,1s0.449,1,1,1c0.276,0,0.5,0.224,0.5,0.5S34.526,49.75,34.25,49.75z M30.75,46.75c-0.551,0-1,0.448-1,1
				s0.449,1,1,1h1.769c-0.171-0.294-0.269-0.636-0.269-1s0.098-0.706,0.269-1H30.75z"/>
		</g>
	</g>
	<g>
		<g>
			<path class="st1" d="M30.75,40.25v6h3.5c0.828,0,1.5,0.672,1.5,1.5v-7.5H30.75z"/>
		</g>
		<g>
			<path class="st0" d="M35.75,48.25c-0.276,0-0.5-0.224-0.5-0.5c0-0.552-0.449-1-1-1h-3.5c-0.276,0-0.5-0.224-0.5-0.5v-6
				c0-0.276,0.224-0.5,0.5-0.5h5c0.276,0,0.5,0.224,0.5,0.5v7.5C36.25,48.026,36.026,48.25,35.75,48.25z M31.25,45.75h3
				c0.364,0,0.706,0.098,1,0.269V40.75h-4V45.75z"/>
		</g>
	</g>
	<g>
		<g>
			<circle class="st1" cx="34.25" cy="47.75" r="1.5"/>
		</g>
		<g>
			<path class="st0" d="M34.25,49.75c-1.103,0-2-0.897-2-2s0.897-2,2-2s2,0.897,2,2S35.353,49.75,34.25,49.75z M34.25,46.75
				c-0.551,0-1,0.448-1,1s0.449,1,1,1s1-0.448,1-1S34.801,46.75,34.25,46.75z"/>
		</g>
	</g>
	<g>
		<g>
			<path class="st5" d="M42.75,42.75v-2.5h-7v7.5c0,0.828-0.672,1.5-1.5,1.5h-0.374v3.3h5v-3.3h2.874c0.552,0,1-0.448,1-1v-2.5h2
				L42.75,42.75z"/>
		</g>
		<g>
			<path class="st0" d="M38.875,53.051h-5c-0.276,0-0.5-0.224-0.5-0.5V49.25c0-0.276,0.224-0.5,0.5-0.5h0.374c0.551,0,1-0.448,1-1
				v-7.5c0-0.276,0.224-0.5,0.5-0.5h7c0.276,0,0.5,0.224,0.5,0.5v2.349l1.916,2.874c0.102,0.153,0.112,0.351,0.025,0.514
				c-0.087,0.162-0.256,0.264-0.441,0.264h-1.5v2c0,0.827-0.673,1.5-1.5,1.5h-2.374v2.801
				C39.375,52.827,39.152,53.051,38.875,53.051z M34.375,52.051h4V49.25c0-0.276,0.224-0.5,0.5-0.5h2.874c0.276,0,0.5-0.225,0.5-0.5
				v-2.5c0-0.276,0.224-0.5,0.5-0.5h1.066l-1.482-2.223c-0.055-0.082-0.084-0.179-0.084-0.277v-2h-6v7
				c0,1.061-0.83,1.931-1.874,1.996V52.051z"/>
		</g>
	</g>
	<g>
		<g>
			<path class="st0" d="M38.875,49.75h-2c-0.276,0-0.5-0.224-0.5-0.5s0.224-0.5,0.5-0.5h2c0.276,0,0.5,0.224,0.5,0.5
				S39.152,49.75,38.875,49.75z"/>
		</g>
	</g>
	<g>
		<g>
			<path class="st1" d="M33.75,17.25l-2.5,2h-6.5c-2.209,0-4,1.791-4,4l2,0h11V17.25z"/>
		</g>
		<g>
			<path class="st0" d="M33.75,23.75h-13c-0.276,0-0.5-0.224-0.5-0.5c0-2.481,2.019-4.5,4.5-4.5h6.325l2.363-1.891
				c0.151-0.121,0.356-0.143,0.529-0.06c0.173,0.083,0.283,0.258,0.283,0.45v6C34.25,23.526,34.026,23.75,33.75,23.75z
				 M21.285,22.75H33.25v-4.46l-1.688,1.351c-0.089,0.07-0.199,0.109-0.312,0.109h-6.5C22.989,19.75,21.528,21.056,21.285,22.75z"/>
		</g>
	</g>
	<g>
		<g>
			<polyline class="st5" points="34.083,27.75 32.75,25.75 32.75,23.25 25.75,23.25 25.75,27.75 			"/>
		</g>
		<g>
			<path class="st0" d="M34.083,28.25c-0.162,0-0.32-0.078-0.417-0.223l-1.333-2c-0.055-0.082-0.084-0.179-0.084-0.277v-2h-6v4
				c0,0.276-0.224,0.5-0.5,0.5s-0.5-0.224-0.5-0.5v-4.5c0-0.276,0.224-0.5,0.5-0.5h7c0.276,0,0.5,0.224,0.5,0.5v2.349l1.249,1.874
				c0.153,0.229,0.091,0.54-0.139,0.693C34.275,28.223,34.179,28.25,34.083,28.25z"/>
		</g>
	</g>
	<g>
		<g>
			<polyline class="st1" points="25.75,27.75 25.75,23.25 20.75,23.25 20.75,27.75 			"/>
		</g>
		<g>
			<path class="st0" d="M25.75,28.25c-0.276,0-0.5-0.224-0.5-0.5v-4h-4v4c0,0.276-0.224,0.5-0.5,0.5s-0.5-0.224-0.5-0.5v-4.5
				c0-0.276,0.224-0.5,0.5-0.5h5c0.276,0,0.5,0.224,0.5,0.5v4.5C26.25,28.026,26.026,28.25,25.75,28.25z"/>
		</g>
	</g>
	<g>
		<g>
			<path class="st0" d="M52.5,7.5h-4C48.224,7.5,48,7.276,48,7s0.224-0.5,0.5-0.5h4C52.776,6.5,53,6.724,53,7S52.776,7.5,52.5,7.5z"
				/>
		</g>
	</g>
	<g>
		<g>
			<path class="st0" d="M50.5,9.5C50.224,9.5,50,9.276,50,9V5c0-0.276,0.224-0.5,0.5-0.5S51,4.724,51,5v4
				C51,9.276,50.776,9.5,50.5,9.5z"/>
		</g>
	</g>
	<g>
		<g>
			<path class="st0" d="M58.5,13.5h-4c-0.276,0-0.5-0.224-0.5-0.5s0.224-0.5,0.5-0.5h4c0.276,0,0.5,0.224,0.5,0.5
				S58.776,13.5,58.5,13.5z"/>
		</g>
	</g>
	<g>
		<g>
			<path class="st0" d="M56.5,15.5c-0.276,0-0.5-0.224-0.5-0.5v-4c0-0.276,0.224-0.5,0.5-0.5S57,10.724,57,11v4
				C57,15.276,56.776,15.5,56.5,15.5z"/>
		</g>
	</g>
</g>
</svg>
