<?xml version="1.0" encoding="utf-8"?>
<!-- Generator: Adobe Illustrator 22.0.0, SVG Export Plug-In . SVG Version: 6.00 Build 0)  -->
<svg version="1.1" id="Layer_1" xmlns="http://www.w3.org/2000/svg" xmlns:xlink="http://www.w3.org/1999/xlink" x="0px" y="0px"
	 viewBox="0 0 64 64" style="enable-background:new 0 0 64 64;" xml:space="preserve">
<style type="text/css">
	.st0{fill:#263238;}
	.st1{fill:#FFD740;}
	.st2{fill:#40C4FF;}
	.st3{fill:#FF5252;}
	.st4{fill:#4FC3F7;}
	.st5{fill:#FFFFFF;}
	.st6{fill:#4DB6AC;}
	.st7{fill:#FFCA28;}
	.st8{fill:#37474F;}
</style>
<g>
	<g>
		<g>
			<path class="st2" d="M23,16c0-1.104,0.895-2,2-2h14V8c0-1.104-0.895-2-2-2H10C8.895,6,8,6.896,8,8v38c0,1.104,0.895,2,2,2h13V16z
				"/>
		</g>
	</g>
	<g>
		<g>
			<path class="st0" d="M23,48.5H10c-1.378,0-2.5-1.121-2.5-2.5V8c0-1.379,1.122-2.5,2.5-2.5h27c1.378,0,2.5,1.121,2.5,2.5v6
				c0,0.276-0.224,0.5-0.5,0.5s-0.5-0.224-0.5-0.5V8c0-0.827-0.673-1.5-1.5-1.5H10C9.172,6.5,8.5,7.173,8.5,8v38
				c0,0.827,0.673,1.5,1.5,1.5h13c0.276,0,0.5,0.224,0.5,0.5S23.276,48.5,23,48.5z"/>
		</g>
	</g>
	<g>
		<g>
			<path class="st0" d="M53,24.5c-0.276,0-0.5-0.224-0.5-0.5v-4c0-0.275-0.224-0.5-0.5-0.5h-4c-0.276,0-0.5-0.224-0.5-0.5
				s0.224-0.5,0.5-0.5h4c0.827,0,1.5,0.673,1.5,1.5v4C53.5,24.276,53.276,24.5,53,24.5z"/>
		</g>
	</g>
	<g>
		<g>
			<path class="st0" d="M54,58.5H27c-1.378,0-2.5-1.121-2.5-2.5V18c0-1.379,1.122-2.5,2.5-2.5h27c1.378,0,2.5,1.121,2.5,2.5v38
				C56.5,57.379,55.378,58.5,54,58.5z M27,16.5c-0.827,0-1.5,0.673-1.5,1.5v38c0,0.827,0.673,1.5,1.5,1.5h27
				c0.827,0,1.5-0.673,1.5-1.5V18c0-0.827-0.673-1.5-1.5-1.5H27z"/>
		</g>
	</g>
	<g>
		<g>
			<path class="st5" d="M23,19.025c-4.184,0.259-7.5,3.725-7.5,7.975s3.316,7.715,7.5,7.975"/>
		</g>
		<g>
			<path class="st0" d="M23,35.475c-0.01,0-0.021,0-0.031-0.001C18.5,35.196,15,31.475,15,27s3.5-8.196,7.969-8.474
				c0.277-0.027,0.513,0.193,0.53,0.468c0.017,0.276-0.192,0.513-0.468,0.53C19.088,19.77,16,23.053,16,27s3.088,7.23,7.031,7.476
				c0.276,0.018,0.485,0.254,0.468,0.53C23.482,35.271,23.262,35.475,23,35.475z"/>
		</g>
	</g>
	<g>
		<g>
			<path class="st0" d="M40,36.25c-3.584,0-6.5-2.916-6.5-6.5s2.916-6.5,6.5-6.5s6.5,2.916,6.5,6.5S43.583,36.25,40,36.25z
				 M40,24.25c-3.033,0-5.5,2.468-5.5,5.5s2.467,5.5,5.5,5.5s5.5-2.468,5.5-5.5S43.032,24.25,40,24.25z"/>
		</g>
	</g>
	<g>
		<g>
			<path class="st3" d="M45.651,27.75c-0.825-2.329-3.04-4-5.651-4s-4.827,1.671-5.651,4H45.651z"/>
		</g>
		<g>
			<path class="st0" d="M45.651,28.25H34.348c-0.163,0-0.314-0.079-0.408-0.211c-0.094-0.133-0.117-0.303-0.063-0.456
				c0.917-2.592,3.378-4.333,6.123-4.333s5.205,1.741,6.123,4.333c0.054,0.153,0.031,0.323-0.063,0.456
				C45.965,28.171,45.813,28.25,45.651,28.25z M35.106,27.25h9.786c-0.93-1.82-2.815-3-4.893-3S36.036,25.43,35.106,27.25z"/>
		</g>
	</g>
	<g>
		<g>
			<path class="st0" d="M45.651,28.25H31.348c-0.276,0-0.5-0.224-0.5-0.5s0.224-0.5,0.5-0.5h14.303c0.276,0,0.5,0.224,0.5,0.5
				S45.927,28.25,45.651,28.25z"/>
		</g>
	</g>
	<g>
		<g>
			<path class="st0" d="M30,48.249c-0.276,0-0.5-0.224-0.5-0.5v-3.913c0-2.095,1.164-3.979,3.036-4.917l4.236-2.122
				c0.103-0.052,0.22-0.066,0.333-0.041c0.06,0.014,0.122,0.039,0.172,0.072l0.228,0.151c1.519,1.013,3.479,1.011,4.996-0.002
				l0.222-0.148c0.15-0.1,0.342-0.11,0.501-0.031l1.707,0.854c0.247,0.124,0.347,0.424,0.224,0.671
				c-0.124,0.246-0.424,0.348-0.671,0.224l-1.448-0.724c-1.846,1.222-4.227,1.221-6.073-0.003l-3.979,1.993
				c-1.533,0.768-2.484,2.309-2.484,4.022v3.913C30.5,48.025,30.276,48.249,30,48.249z"/>
		</g>
	</g>
	<g>
		<g>
			<path class="st0" d="M50,45.38c-0.276,0-0.5-0.224-0.5-0.5v-1.043c0-1.363-0.618-2.641-1.694-3.504
				c-0.216-0.172-0.25-0.487-0.078-0.702c0.172-0.214,0.488-0.25,0.703-0.077c1.315,1.054,2.069,2.615,2.069,4.283v1.043
				C50.5,45.156,50.276,45.38,50,45.38z"/>
		</g>
	</g>
	<g>
		<g>
			<path class="st0" d="M37.753,51.75H31.75c-1.241,0-2.25-1.01-2.25-2.25v-1.751c0-0.276,0.224-0.5,0.5-0.5h7.753
				c1.241,0,2.25,1.01,2.25,2.25C40.003,50.74,38.994,51.75,37.753,51.75z M30.5,48.249V49.5c0,0.689,0.561,1.25,1.25,1.25h6.003
				c0.689,0,1.25-0.561,1.25-1.25s-0.561-1.251-1.25-1.251H30.5z"/>
		</g>
	</g>
	<g>
		<g>
			<path class="st1" d="M50.428,34.987c-0.775-0.775-2.037-0.76-2.793,0.035L35.529,47.749h2.224c0.578,0,1.087,0.284,1.406,0.716
				l11.234-10.686C51.188,37.023,51.203,35.762,50.428,34.987z"/>
		</g>
		<g>
			<path class="st0" d="M39.159,48.965c-0.015,0-0.029-0.001-0.043-0.002c-0.143-0.013-0.273-0.086-0.359-0.201
				c-0.241-0.326-0.606-0.513-1.004-0.513h-2.224c-0.2,0-0.381-0.119-0.459-0.303c-0.079-0.184-0.041-0.397,0.097-0.542
				l12.107-12.728c0.458-0.482,1.078-0.753,1.744-0.762c0.669,0.01,1.293,0.246,1.764,0.718c0.471,0.471,0.726,1.097,0.718,1.763
				c-0.008,0.667-0.279,1.287-0.762,1.746L39.504,48.827C39.411,48.916,39.287,48.965,39.159,48.965z M36.694,47.249h1.059
				c0.529,0,1.025,0.182,1.422,0.51l10.873-10.342c0.286-0.271,0.446-0.639,0.451-1.033s-0.146-0.765-0.425-1.044
				c-0.279-0.279-0.655-0.406-1.044-0.425c-0.394,0.005-0.761,0.165-1.032,0.451L36.694,47.249z"/>
		</g>
	</g>
	<g>
		<g>
			<path class="st0" d="M48,51.75c-2.206,0-4-1.794-4-4s1.794-4,4-4s4,1.794,4,4S50.205,51.75,48,51.75z M48,44.75
				c-1.654,0-3,1.346-3,3s1.346,3,3,3s3-1.346,3-3S49.654,44.75,48,44.75z"/>
		</g>
	</g>
	<g>
		<g>
			<path class="st0" d="M48,51.75c-0.943,0-1.833-0.331-2.573-0.958c-0.112-0.096-0.177-0.235-0.177-0.382
				c0-0.147,0.065-0.287,0.177-0.382c0.682-0.577,1.073-1.407,1.073-2.278s-0.391-1.701-1.073-2.278
				c-0.112-0.095-0.177-0.234-0.177-0.382c0-0.146,0.064-0.286,0.177-0.382c1.48-1.254,3.666-1.254,5.146,0
				c0.112,0.096,0.177,0.235,0.177,0.382c0,0.147-0.065,0.287-0.177,0.382c-0.682,0.577-1.073,1.407-1.073,2.278
				s0.391,1.701,1.073,2.278c0.112,0.095,0.177,0.234,0.177,0.382c0,0.146-0.064,0.286-0.177,0.382
				C49.833,51.419,48.943,51.75,48,51.75z M46.522,50.348c0.904,0.529,2.05,0.529,2.954,0C48.85,49.625,48.5,48.707,48.5,47.75
				s0.35-1.875,0.977-2.598c-0.904-0.529-2.05-0.529-2.954,0c0.627,0.723,0.977,1.641,0.977,2.598S47.149,49.625,46.522,50.348z"/>
		</g>
	</g>
	<g>
		<g>
			<path class="st0" d="M18.5,33.739c-0.146,0-0.292-0.064-0.391-0.188c-0.173-0.215-0.138-0.529,0.077-0.702
				C19.974,31.415,21,29.283,21,27s-1.025-4.415-2.813-5.85c-0.215-0.173-0.25-0.487-0.077-0.702
				c0.173-0.214,0.488-0.25,0.703-0.077C20.838,21.996,22,24.412,22,27s-1.162,5.004-3.187,6.629
				C18.72,33.703,18.609,33.739,18.5,33.739z"/>
		</g>
	</g>
	<g>
		<g>
			<path class="st0" d="M23,35.475c-0.01,0-0.021,0-0.031-0.001C18.5,35.196,15,31.475,15,27s3.5-8.196,7.969-8.474
				c0.277-0.027,0.513,0.193,0.53,0.468c0.017,0.276-0.192,0.513-0.468,0.53C19.088,19.77,16,23.053,16,27s3.088,7.23,7.031,7.476
				c0.276,0.018,0.485,0.254,0.468,0.53C23.482,35.271,23.262,35.475,23,35.475z"/>
		</g>
	</g>
	<g>
		<g>
			<path class="st0" d="M6.5,52.5h-2C4.223,52.5,4,52.276,4,52s0.224-0.5,0.5-0.5h2C6.776,51.5,7,51.724,7,52S6.776,52.5,6.5,52.5z"
				/>
		</g>
	</g>
	<g>
		<g>
			<path class="st0" d="M20,52.5H8.5C8.223,52.5,8,52.276,8,52s0.224-0.5,0.5-0.5H20c0.276,0,0.5,0.224,0.5,0.5S20.276,52.5,20,52.5
				z"/>
		</g>
	</g>
	<g>
		<g>
			<path class="st0" d="M59.5,12.5h-2c-0.276,0-0.5-0.224-0.5-0.5s0.224-0.5,0.5-0.5h2c0.276,0,0.5,0.224,0.5,0.5
				S59.776,12.5,59.5,12.5z"/>
		</g>
	</g>
	<g>
		<g>
			<path class="st0" d="M55.5,12.5H44c-0.276,0-0.5-0.224-0.5-0.5s0.224-0.5,0.5-0.5h11.5c0.276,0,0.5,0.224,0.5,0.5
				S55.776,12.5,55.5,12.5z"/>
		</g>
	</g>
</g>
</svg>
