<?xml version="1.0" encoding="utf-8"?>
<!-- Generator: Adobe Illustrator 22.0.0, SVG Export Plug-In . SVG Version: 6.00 Build 0)  -->
<svg version="1.1" id="Layer_1" xmlns="http://www.w3.org/2000/svg" xmlns:xlink="http://www.w3.org/1999/xlink" x="0px" y="0px"
	 viewBox="0 0 64 64" style="enable-background:new 0 0 64 64;" xml:space="preserve">
<style type="text/css">
	.st0{fill:#263238;}
	.st1{fill:#FFD740;}
	.st2{fill:#40C4FF;}
	.st3{fill:#FF5252;}
	.st4{fill:#4FC3F7;}
	.st5{fill:#FFFFFF;}
	.st6{fill:#4DB6AC;}
	.st7{fill:#FFCA28;}
	.st8{fill:#37474F;}
</style>
<g>
	<g>
		<g>
			<path class="st0" d="M58.5,50.5h-53c-1.654,0-3-1.346-3-3v-35c0-1.654,1.346-3,3-3h53c1.654,0,3,1.346,3,3v35
				C61.5,49.154,60.154,50.5,58.5,50.5z M5.5,10.5c-1.103,0-2,0.897-2,2v35c0,1.103,0.897,2,2,2h53c1.103,0,2-0.897,2-2v-35
				c0-1.103-0.897-2-2-2H5.5z"/>
		</g>
	</g>
	<g>
		<g>
			<path class="st0" d="M8,18.5c-1.93,0-3.5-1.57-3.5-3.5s1.57-3.5,3.5-3.5s3.5,1.57,3.5,3.5S9.93,18.5,8,18.5z M8,12.5
				c-1.379,0-2.5,1.121-2.5,2.5s1.121,2.5,2.5,2.5s2.5-1.121,2.5-2.5S9.379,12.5,8,12.5z"/>
		</g>
	</g>
	<g>
		<g>
			<path class="st0" d="M56,18.5c-1.93,0-3.5-1.57-3.5-3.5s1.57-3.5,3.5-3.5s3.5,1.57,3.5,3.5S57.93,18.5,56,18.5z M56,12.5
				c-1.379,0-2.5,1.121-2.5,2.5s1.121,2.5,2.5,2.5s2.5-1.121,2.5-2.5S57.379,12.5,56,12.5z"/>
		</g>
	</g>
	<g>
		<g>
			<path class="st0" d="M32,18.5c-1.93,0-3.5-1.57-3.5-3.5s1.57-3.5,3.5-3.5s3.5,1.57,3.5,3.5S33.93,18.5,32,18.5z M32,12.5
				c-1.379,0-2.5,1.121-2.5,2.5s1.121,2.5,2.5,2.5s2.5-1.121,2.5-2.5S33.379,12.5,32,12.5z"/>
		</g>
	</g>
	<g>
		<g>
			<path class="st0" d="M32,48.5c-1.93,0-3.5-1.57-3.5-3.5s1.57-3.5,3.5-3.5s3.5,1.57,3.5,3.5S33.93,48.5,32,48.5z M32,42.5
				c-1.379,0-2.5,1.121-2.5,2.5s1.121,2.5,2.5,2.5s2.5-1.121,2.5-2.5S33.379,42.5,32,42.5z"/>
		</g>
	</g>
	<g>
		<g>
			<path class="st0" d="M8,48.5c-1.93,0-3.5-1.57-3.5-3.5s1.57-3.5,3.5-3.5s3.5,1.57,3.5,3.5S9.93,48.5,8,48.5z M8,42.5
				c-1.379,0-2.5,1.121-2.5,2.5s1.121,2.5,2.5,2.5s2.5-1.121,2.5-2.5S9.379,42.5,8,42.5z"/>
		</g>
	</g>
	<g>
		<g>
			<path class="st0" d="M56,48.5c-1.93,0-3.5-1.57-3.5-3.5s1.57-3.5,3.5-3.5s3.5,1.57,3.5,3.5S57.93,48.5,56,48.5z M56,42.5
				c-1.379,0-2.5,1.121-2.5,2.5s1.121,2.5,2.5,2.5s2.5-1.121,2.5-2.5S57.379,42.5,56,42.5z"/>
		</g>
	</g>
	<g>
		<g>
			<path class="st6" d="M56,18c-1.657,0-3-1.343-3-3c0-0.353,0.072-0.686,0.184-1H34.816C34.928,14.314,35,14.647,35,15
				c0,1.657-1.343,3-3,3s-3-1.343-3-3c0-0.353,0.072-0.686,0.184-1H10.816C10.928,14.314,11,14.647,11,15c0,1.657-1.343,3-3,3
				c-0.353,0-0.686-0.072-1-0.184v24.367C7.314,42.072,7.647,42,8,42c1.657,0,3,1.343,3,3c0,0.353-0.072,0.686-0.184,1h18.367
				C29.072,45.686,29,45.353,29,45c0-1.657,1.343-3,3-3s3,1.343,3,3c0,0.353-0.072,0.686-0.184,1h18.367
				C53.072,45.686,53,45.353,53,45c0-1.657,1.343-3,3-3c0.353,0,0.686,0.072,1,0.184V17.816C56.686,17.928,56.353,18,56,18z"/>
		</g>
		<g>
			<path class="st0" d="M53.184,46.5H34.816c-0.162,0-0.314-0.079-0.408-0.211c-0.094-0.133-0.117-0.303-0.063-0.456
				C34.449,45.539,34.5,45.267,34.5,45c0-1.379-1.121-2.5-2.5-2.5s-2.5,1.121-2.5,2.5c0,0.267,0.051,0.539,0.155,0.833
				c0.054,0.153,0.03,0.323-0.063,0.456c-0.094,0.132-0.246,0.211-0.408,0.211H10.816c-0.162,0-0.314-0.079-0.408-0.211
				c-0.094-0.133-0.117-0.303-0.063-0.456C10.449,45.539,10.5,45.267,10.5,45c0-1.379-1.121-2.5-2.5-2.5
				c-0.267,0-0.539,0.051-0.833,0.155c-0.153,0.054-0.323,0.03-0.456-0.063C6.579,42.498,6.5,42.346,6.5,42.184V17.816
				c0-0.162,0.079-0.314,0.211-0.408c0.134-0.094,0.304-0.114,0.456-0.063C7.461,17.449,7.733,17.5,8,17.5
				c1.379,0,2.5-1.121,2.5-2.5c0-0.267-0.051-0.539-0.155-0.833c-0.054-0.153-0.03-0.323,0.063-0.456
				c0.094-0.132,0.246-0.211,0.408-0.211h18.367c0.162,0,0.314,0.079,0.408,0.211c0.094,0.133,0.117,0.303,0.063,0.456
				C29.551,14.461,29.5,14.733,29.5,15c0,1.379,1.121,2.5,2.5,2.5s2.5-1.121,2.5-2.5c0-0.267-0.051-0.539-0.155-0.833
				c-0.054-0.153-0.03-0.323,0.063-0.456c0.094-0.132,0.246-0.211,0.408-0.211h18.367c0.162,0,0.314,0.079,0.408,0.211
				c0.094,0.133,0.117,0.303,0.063,0.456C53.551,14.461,53.5,14.733,53.5,15c0,1.379,1.121,2.5,2.5,2.5
				c0.267,0,0.539-0.051,0.833-0.155c0.155-0.052,0.323-0.03,0.456,0.063c0.132,0.094,0.211,0.246,0.211,0.408v24.367
				c0,0.162-0.079,0.314-0.211,0.408c-0.133,0.095-0.303,0.117-0.456,0.063C56.539,42.551,56.267,42.5,56,42.5
				c-1.379,0-2.5,1.121-2.5,2.5c0,0.267,0.051,0.539,0.155,0.833c0.054,0.153,0.03,0.323-0.063,0.456
				C53.498,46.421,53.346,46.5,53.184,46.5z M35.46,45.5h17.08c-0.027-0.168-0.04-0.334-0.04-0.5c0-2.096,1.881-3.811,4-3.46V18.46
				c-2.12,0.341-4-1.364-4-3.46c0-0.166,0.013-0.332,0.04-0.5H35.46c0.027,0.168,0.04,0.334,0.04,0.5c0,1.93-1.57,3.5-3.5,3.5
				s-3.5-1.57-3.5-3.5c0-0.166,0.013-0.332,0.04-0.5H11.46c0.027,0.168,0.04,0.334,0.04,0.5c0,2.096-1.881,3.802-4,3.46v23.08
				c2.118-0.353,4,1.364,4,3.46c0,0.166-0.013,0.332-0.04,0.5h17.08c-0.027-0.168-0.04-0.334-0.04-0.5c0-1.93,1.57-3.5,3.5-3.5
				s3.5,1.57,3.5,3.5C35.5,45.166,35.487,45.332,35.46,45.5z"/>
		</g>
	</g>
	<g>
		<g>
			<path class="st5" d="M44.5,57V25c0-0.552,0.448-1,1-1h1c0.552,0,1,0.448,1,1v32c0,0.552-0.448,1-1,1h-1
				C44.948,58,44.5,57.552,44.5,57z"/>
		</g>
		<g>
			<path class="st0" d="M46.5,58.5h-1c-0.827,0-1.5-0.673-1.5-1.5V25c0-0.827,0.673-1.5,1.5-1.5h1c0.827,0,1.5,0.673,1.5,1.5v32
				C48,57.827,47.327,58.5,46.5,58.5z M45.5,24.5c-0.275,0-0.5,0.225-0.5,0.5v32c0,0.275,0.225,0.5,0.5,0.5h1
				c0.275,0,0.5-0.225,0.5-0.5V25c0-0.275-0.225-0.5-0.5-0.5H45.5z"/>
		</g>
	</g>
	<g>
		<g>
			<circle class="st3" cx="19.5" cy="25.5" r="3"/>
		</g>
		<g>
			<path class="st0" d="M19.5,29c-1.93,0-3.5-1.57-3.5-3.5s1.57-3.5,3.5-3.5s3.5,1.57,3.5,3.5S21.43,29,19.5,29z M19.5,23
				c-1.379,0-2.5,1.121-2.5,2.5s1.121,2.5,2.5,2.5s2.5-1.121,2.5-2.5S20.879,23,19.5,23z"/>
		</g>
	</g>
	<g>
		<g>
			<path class="st1" d="M47.5,48h-3v9c0,0.552,0.448,1,1,1h1c0.552,0,1-0.448,1-1V48z"/>
		</g>
		<g>
			<path class="st0" d="M46.5,58.5h-1c-0.827,0-1.5-0.673-1.5-1.5v-9c0-0.276,0.224-0.5,0.5-0.5h3c0.276,0,0.5,0.224,0.5,0.5v9
				C48,57.827,47.327,58.5,46.5,58.5z M45,48.5V57c0,0.275,0.225,0.5,0.5,0.5h1c0.275,0,0.5-0.225,0.5-0.5v-8.5H45z"/>
		</g>
	</g>
	<g>
		<g>
			<circle class="st2" cx="29.5" cy="31.5" r="3"/>
		</g>
		<g>
			<path class="st0" d="M29.5,35c-1.93,0-3.5-1.57-3.5-3.5s1.57-3.5,3.5-3.5s3.5,1.57,3.5,3.5S31.43,35,29.5,35z M29.5,29
				c-1.379,0-2.5,1.121-2.5,2.5s1.121,2.5,2.5,2.5s2.5-1.121,2.5-2.5S30.879,29,29.5,29z"/>
		</g>
	</g>
	<g>
		<g>
			<path class="st0" d="M56,6.5h-2c-0.276,0-0.5-0.224-0.5-0.5s0.224-0.5,0.5-0.5h2c0.276,0,0.5,0.224,0.5,0.5S56.276,6.5,56,6.5z"
				/>
		</g>
	</g>
	<g>
		<g>
			<path class="st0" d="M52,6.5H40.5C40.224,6.5,40,6.276,40,6s0.224-0.5,0.5-0.5H52c0.276,0,0.5,0.224,0.5,0.5S52.276,6.5,52,6.5z"
				/>
		</g>
	</g>
	<g>
		<g>
			<path class="st0" d="M10,54.5H8c-0.276,0-0.5-0.224-0.5-0.5s0.224-0.5,0.5-0.5h2c0.276,0,0.5,0.224,0.5,0.5S10.276,54.5,10,54.5z
				"/>
		</g>
	</g>
	<g>
		<g>
			<path class="st0" d="M23.5,54.5H12c-0.276,0-0.5-0.224-0.5-0.5s0.224-0.5,0.5-0.5h11.5c0.276,0,0.5,0.224,0.5,0.5
				S23.776,54.5,23.5,54.5z"/>
		</g>
	</g>
</g>
</svg>
