<?xml version="1.0" encoding="utf-8"?>
<!-- Generator: Adobe Illustrator 22.0.0, SVG Export Plug-In . SVG Version: 6.00 Build 0)  -->
<svg version="1.1" id="Layer_1" xmlns="http://www.w3.org/2000/svg" xmlns:xlink="http://www.w3.org/1999/xlink" x="0px" y="0px"
	 viewBox="0 0 64 64" style="enable-background:new 0 0 64 64;" xml:space="preserve">
<style type="text/css">
	.st0{fill:#263238;}
	.st1{fill:#FFD740;}
	.st2{fill:#40C4FF;}
	.st3{fill:#FF5252;}
	.st4{fill:#4FC3F7;}
	.st5{fill:#FFFFFF;}
	.st6{fill:#4DB6AC;}
	.st7{fill:#FFCA28;}
	.st8{fill:#37474F;}
</style>
<g>
	<g>
		<g>
			<path class="st1" d="M21.826,16.568l-1.311-1.367c-0.006-0.047-0.014-0.096-0.014-0.133c0-2.209-1.791-4-4-4
				c-1.706,0-3.152,1.072-3.727,2.576L9.5,15.068l3.273,1.424c0.568,1.485,1.987,2.545,3.666,2.571
				c-0.046-0.004-0.037,0.062-0.084,0.06l0.1-0.014c-0.249,2.584,0.448,5.208,2.427,7.187c1.757,1.757,4.061,2.636,6.364,2.636
				l10.364,2l-4.757-4.957l-1.408-1.468c1.983-1.236,3.307-3.43,3.307-5.939h-9.006"/>
		</g>
		<g>
			<path class="st0" d="M35.609,31.432c-0.031,0-0.063-0.003-0.095-0.009l-10.363-2c-0.011,0-0.022,0-0.033,0
				c-2.432,0-4.804-0.987-6.59-2.773c-1.84-1.84-2.756-4.355-2.606-7.123c-1.559-0.2-2.896-1.197-3.534-2.657l-3.087-1.343
				C9.118,15.447,9,15.268,9,15.068s0.118-0.379,0.301-0.458l3.087-1.343c0.718-1.646,2.31-2.698,4.112-2.698
				c2.453,0,4.454,1.974,4.499,4.416l1.188,1.238c0.19,0.199,0.184,0.516-0.016,0.707c-0.199,0.191-0.516,0.183-0.707-0.015
				l-1.311-1.367c-0.071-0.075-0.118-0.171-0.134-0.274C20.008,15.192,20,15.123,20,15.068c0-1.93-1.57-3.5-3.5-3.5
				c-1.456,0-2.735,0.885-3.26,2.254c-0.048,0.125-0.145,0.226-0.268,0.28l-2.22,0.966l2.22,0.966
				c0.123,0.054,0.22,0.154,0.268,0.28c0.515,1.345,1.773,2.228,3.207,2.25l0,0c0.014,0,0.024,0.001,0.034,0.002
				c0.212,0.018,0.384,0.167,0.439,0.361c0.028,0.072,0.039,0.151,0.032,0.23c-0.256,2.648,0.555,5.058,2.282,6.786
				c1.605,1.605,3.74,2.489,6.011,2.489l8.915,1.712l-5.077-5.291c-0.104-0.109-0.154-0.259-0.136-0.408s0.104-0.283,0.231-0.362
				c1.78-1.109,2.896-2.958,3.053-5.015h-8.487c-0.276,0-0.5-0.224-0.5-0.5s0.224-0.5,0.5-0.5h9.006c0.276,0,0.5,0.224,0.5,0.5
				c0,2.398-1.124,4.606-3.036,6.02l5.755,5.998c0.151,0.157,0.183,0.394,0.079,0.585C35.96,31.334,35.79,31.432,35.609,31.432z"/>
		</g>
	</g>
	<g>
		<g>
			<path class="st0" d="M20.5,49.004c-3.584,0-6.5-2.916-6.5-6.5s2.916-6.5,6.5-6.5s6.5,2.916,6.5,6.5S24.084,49.004,20.5,49.004z
				 M20.5,37.004c-3.032,0-5.5,2.467-5.5,5.5s2.468,5.5,5.5,5.5s5.5-2.467,5.5-5.5S23.532,37.004,20.5,37.004z"/>
		</g>
	</g>
	<g>
		<g>
			<path class="st0" d="M10.5,57.503c-0.276,0-0.5-0.224-0.5-0.5V56.59c0-2.095,1.164-3.979,3.037-4.917l4.235-2.122
				c0.099-0.049,0.215-0.064,0.321-0.043c0.064,0.013,0.13,0.039,0.185,0.075l0.228,0.151c1.518,1.013,3.478,1.011,4.995-0.002
				l0.223-0.148c0.15-0.1,0.341-0.111,0.501-0.031l4.235,2.119C29.835,52.609,31,54.494,31,56.59V57c0,0.276-0.224,0.5-0.5,0.5
				S30,57.277,30,57v-0.41c0-1.715-0.953-3.257-2.487-4.025l-3.978-1.988c-1.845,1.221-4.226,1.221-6.072-0.003l-3.979,1.993
				C11.952,53.335,11,54.876,11,56.59v0.413C11,57.279,10.776,57.503,10.5,57.503z"/>
		</g>
	</g>
	<g>
		<g>
			<path class="st0" d="M43.5,49.004c-3.584,0-6.5-2.916-6.5-6.5s2.916-6.5,6.5-6.5s6.5,2.916,6.5,6.5S47.084,49.004,43.5,49.004z
				 M43.5,37.004c-3.032,0-5.5,2.467-5.5,5.5s2.468,5.5,5.5,5.5s5.5-2.467,5.5-5.5S46.532,37.004,43.5,37.004z"/>
		</g>
	</g>
	<g>
		<g>
			<path class="st0" d="M33.5,57.503c-0.276,0-0.5-0.224-0.5-0.5V56.59c0-2.095,1.164-3.979,3.037-4.917l4.235-2.122
				c0.1-0.049,0.215-0.064,0.321-0.043c0.064,0.013,0.13,0.039,0.185,0.075l0.228,0.151c1.518,1.013,3.478,1.011,4.995-0.002
				l0.223-0.148c0.15-0.1,0.341-0.111,0.501-0.031l4.235,2.119C52.835,52.609,54,54.494,54,56.59V57c0,0.276-0.224,0.5-0.5,0.5
				S53,57.277,53,57v-0.41c0-1.715-0.953-3.257-2.487-4.025l-3.978-1.988c-1.845,1.221-4.226,1.221-6.072-0.003l-3.979,1.993
				C34.952,53.335,34,54.876,34,56.59v0.413C34,57.279,33.776,57.503,33.5,57.503z"/>
		</g>
	</g>
	<g>
		<g>
			<path class="st0" d="M25.751,26.068c-4.136,0-7.5-3.364-7.5-7.5c0-0.276,0.224-0.5,0.5-0.5s0.5,0.224,0.5,0.5
				c0,3.584,2.916,6.5,6.5,6.5c1.218,0,2.404-0.338,3.433-0.979c0.235-0.145,0.543-0.075,0.689,0.16
				c0.146,0.234,0.074,0.542-0.16,0.688C28.525,25.678,27.155,26.068,25.751,26.068z"/>
		</g>
	</g>
	<g>
		<g>
			<path class="st0" d="M25.751,24.068c-2.185,0-4.163-1.295-5.04-3.299c-0.11-0.253,0.005-0.548,0.258-0.659
				c0.253-0.11,0.548,0.004,0.658,0.257c0.718,1.641,2.337,2.701,4.124,2.701c0.706,0,1.391-0.167,2.036-0.496
				c0.247-0.125,0.548-0.029,0.673,0.218c0.126,0.246,0.028,0.547-0.218,0.672C27.454,23.865,26.616,24.068,25.751,24.068z"/>
		</g>
	</g>
	<g>
		<g>
			<path class="st0" d="M25.246,29.432c-0.276,0-0.5-0.224-0.5-0.5s0.224-0.5,0.5-0.5c2.146,0,4.2-0.811,5.782-2.284
				c0.202-0.188,0.519-0.177,0.707,0.025c0.188,0.202,0.177,0.519-0.025,0.707C29.942,28.525,27.646,29.432,25.246,29.432z"/>
		</g>
	</g>
	<g>
		<g>
			<path class="st4" d="M48.055,6.503c0-1.381-1.119-2.5-2.5-2.5s-2.5,1.119-2.5,2.5c-1.381,0-2.5,1.119-2.5,2.5s1.119,2.5,2.5,2.5
				h5c1.381,0,2.5-1.119,2.5-2.5S49.436,6.503,48.055,6.503z"/>
		</g>
	</g>
	<g>
		<g>
			<path class="st0" d="M54.5,21.068h-1c-0.276,0-0.5-0.224-0.5-0.5s0.224-0.5,0.5-0.5h1c0.276,0,0.5,0.224,0.5,0.5
				S54.776,21.068,54.5,21.068z"/>
		</g>
	</g>
	<g>
		<g>
			<path class="st0" d="M51.5,21.068H41c-0.276,0-0.5-0.224-0.5-0.5s0.224-0.5,0.5-0.5h10.5c0.276,0,0.5,0.224,0.5,0.5
				S51.776,21.068,51.5,21.068z"/>
		</g>
	</g>
	<g>
		<g>
			<path class="st0" d="M46.5,24.068H36c-0.276,0-0.5-0.224-0.5-0.5s0.224-0.5,0.5-0.5h10.5c0.276,0,0.5,0.224,0.5,0.5
				S46.776,24.068,46.5,24.068z"/>
		</g>
	</g>
</g>
</svg>
