<?xml version="1.0" encoding="utf-8"?>
<!-- Generator: Adobe Illustrator 22.0.0, SVG Export Plug-In . SVG Version: 6.00 Build 0)  -->
<svg version="1.1" id="Layer_1" xmlns="http://www.w3.org/2000/svg" xmlns:xlink="http://www.w3.org/1999/xlink" x="0px" y="0px"
	 viewBox="0 0 64 64" style="enable-background:new 0 0 64 64;" xml:space="preserve">
<style type="text/css">
	.st0{fill:#263238;}
	.st1{fill:#FFD740;}
	.st2{fill:#40C4FF;}
	.st3{fill:#FF5252;}
	.st4{fill:#4FC3F7;}
	.st5{fill:#FFFFFF;}
	.st6{fill:#4DB6AC;}
	.st7{fill:#FFCA28;}
	.st8{fill:#37474F;}
</style>
<g>
	<g>
		<g>
			<path class="st1" d="M17,57H9.5C8.119,57,7,55.881,7,54.5V47h10V57z"/>
		</g>
	</g>
	<g>
		<g>
			<path class="st2" d="M54.5,57H47V47h10v7.5C57,55.881,55.881,57,54.5,57z"/>
		</g>
	</g>
	<g>
		<g>
			<path class="st2" d="M17,17H7V9.5C7,8.119,8.119,7,9.5,7H17V17z"/>
		</g>
	</g>
	<g>
		<g>
			<path class="st1" d="M57,17H47V7h7.5C55.881,7,57,8.119,57,9.5V17z"/>
		</g>
	</g>
	<g>
		<g>
			<path class="st0" d="M54.5,57.5h-45c-1.654,0-3-1.346-3-3v-45c0-1.654,1.346-3,3-3h45c1.654,0,3,1.346,3,3v45
				C57.5,56.154,56.154,57.5,54.5,57.5z M9.5,7.5c-1.103,0-2,0.897-2,2v45c0,1.103,0.897,2,2,2h45c1.103,0,2-0.897,2-2v-45
				c0-1.103-0.897-2-2-2H9.5z"/>
		</g>
	</g>
	<g>
		<g>
			<path class="st0" d="M47,47.5H17c-0.276,0-0.5-0.224-0.5-0.5V17c0-0.276,0.224-0.5,0.5-0.5h30c0.276,0,0.5,0.224,0.5,0.5v30
				C47.5,47.276,47.276,47.5,47,47.5z M17.5,46.5h29v-29h-29V46.5z"/>
		</g>
	</g>
	<g>
		<g>
			<path class="st0" d="M17,57.5c-0.276,0-0.5-0.224-0.5-0.5V47c0-0.276,0.224-0.5,0.5-0.5s0.5,0.224,0.5,0.5v10
				C17.5,57.276,17.276,57.5,17,57.5z"/>
		</g>
	</g>
	<g>
		<g>
			<path class="st0" d="M27,57.5c-0.276,0-0.5-0.224-0.5-0.5V47c0-0.276,0.224-0.5,0.5-0.5s0.5,0.224,0.5,0.5v10
				C27.5,57.276,27.276,57.5,27,57.5z"/>
		</g>
	</g>
	<g>
		<g>
			<path class="st0" d="M47,57.5c-0.276,0-0.5-0.224-0.5-0.5V47c0-0.276,0.224-0.5,0.5-0.5s0.5,0.224,0.5,0.5v10
				C47.5,57.276,47.276,57.5,47,57.5z"/>
		</g>
	</g>
	<g>
		<g>
			<path class="st0" d="M37,57.5c-0.276,0-0.5-0.224-0.5-0.5V47c0-0.276,0.224-0.5,0.5-0.5s0.5,0.224,0.5,0.5v10
				C37.5,57.276,37.276,57.5,37,57.5z"/>
		</g>
	</g>
	<g>
		<g>
			<path class="st0" d="M17,17.5c-0.276,0-0.5-0.224-0.5-0.5V7c0-0.276,0.224-0.5,0.5-0.5s0.5,0.224,0.5,0.5v10
				C17.5,17.276,17.276,17.5,17,17.5z"/>
		</g>
	</g>
	<g>
		<g>
			<path class="st0" d="M27,17.5c-0.276,0-0.5-0.224-0.5-0.5V7c0-0.276,0.224-0.5,0.5-0.5s0.5,0.224,0.5,0.5v10
				C27.5,17.276,27.276,17.5,27,17.5z"/>
		</g>
	</g>
	<g>
		<g>
			<path class="st0" d="M47,17.5c-0.276,0-0.5-0.224-0.5-0.5V7c0-0.276,0.224-0.5,0.5-0.5s0.5,0.224,0.5,0.5v10
				C47.5,17.276,47.276,17.5,47,17.5z"/>
		</g>
	</g>
	<g>
		<g>
			<path class="st0" d="M37,17.5c-0.276,0-0.5-0.224-0.5-0.5V7c0-0.276,0.224-0.5,0.5-0.5s0.5,0.224,0.5,0.5v10
				C37.5,17.276,37.276,17.5,37,17.5z"/>
		</g>
	</g>
	<g>
		<g>
			<path class="st0" d="M17,17.5H7c-0.276,0-0.5-0.224-0.5-0.5s0.224-0.5,0.5-0.5h10c0.276,0,0.5,0.224,0.5,0.5S17.276,17.5,17,17.5
				z"/>
		</g>
	</g>
	<g>
		<g>
			<path class="st0" d="M17,27.5H7c-0.276,0-0.5-0.224-0.5-0.5s0.224-0.5,0.5-0.5h10c0.276,0,0.5,0.224,0.5,0.5S17.276,27.5,17,27.5
				z"/>
		</g>
	</g>
	<g>
		<g>
			<path class="st0" d="M17,47.5H7c-0.276,0-0.5-0.224-0.5-0.5s0.224-0.5,0.5-0.5h10c0.276,0,0.5,0.224,0.5,0.5S17.276,47.5,17,47.5
				z"/>
		</g>
	</g>
	<g>
		<g>
			<path class="st0" d="M17,37.5H7c-0.276,0-0.5-0.224-0.5-0.5s0.224-0.5,0.5-0.5h10c0.276,0,0.5,0.224,0.5,0.5S17.276,37.5,17,37.5
				z"/>
		</g>
	</g>
	<g>
		<g>
			<path class="st0" d="M57,17.5H47c-0.276,0-0.5-0.224-0.5-0.5s0.224-0.5,0.5-0.5h10c0.276,0,0.5,0.224,0.5,0.5
				S57.276,17.5,57,17.5z"/>
		</g>
	</g>
	<g>
		<g>
			<path class="st0" d="M57,27.5H47c-0.276,0-0.5-0.224-0.5-0.5s0.224-0.5,0.5-0.5h10c0.276,0,0.5,0.224,0.5,0.5
				S57.276,27.5,57,27.5z"/>
		</g>
	</g>
	<g>
		<g>
			<path class="st0" d="M57,47.5H47c-0.276,0-0.5-0.224-0.5-0.5s0.224-0.5,0.5-0.5h10c0.276,0,0.5,0.224,0.5,0.5
				S57.276,47.5,57,47.5z"/>
		</g>
	</g>
	<g>
		<g>
			<path class="st0" d="M57,37.5H47c-0.276,0-0.5-0.224-0.5-0.5s0.224-0.5,0.5-0.5h10c0.276,0,0.5,0.224,0.5,0.5
				S57.276,37.5,57,37.5z"/>
		</g>
	</g>
	<g>
		<g>
			<path class="st3" d="M38.5,42h-13c-0.552,0-1-0.448-1-1v-1c0-0.552,0.448-1,1-1h13c0.552,0,1,0.448,1,1v1
				C39.5,41.552,39.052,42,38.5,42z"/>
		</g>
		<g>
			<path class="st0" d="M38.5,42.5h-13c-0.827,0-1.5-0.673-1.5-1.5v-1c0-0.827,0.673-1.5,1.5-1.5h13c0.827,0,1.5,0.673,1.5,1.5v1
				C40,41.827,39.327,42.5,38.5,42.5z M25.5,39.5c-0.276,0-0.5,0.225-0.5,0.5v1c0,0.275,0.224,0.5,0.5,0.5h13
				c0.276,0,0.5-0.225,0.5-0.5v-1c0-0.275-0.224-0.5-0.5-0.5H25.5z"/>
		</g>
	</g>
	<g>
		<g>
			<path class="st3" d="M29.208,34.583L27,39h10l-2.208-4.417C34.271,33.542,34,32.394,34,31.229v-1.784
				c1.191-0.693,2-1.969,2-3.445c0-2.209-1.791-4-4-4c-2.209,0-4,1.791-4,4c0,1.477,0.809,2.752,2,3.445v1.784
				C30,32.394,29.729,33.542,29.208,34.583z"/>
		</g>
		<g>
			<path class="st0" d="M37,39.5H27c-0.173,0-0.334-0.09-0.425-0.237s-0.1-0.331-0.022-0.486l2.208-4.417l0,0
				c0.484-0.967,0.739-2.049,0.739-3.13v-1.508c-1.241-0.834-2-2.234-2-3.722c0-2.481,2.019-4.5,4.5-4.5s4.5,2.019,4.5,4.5
				c0,1.487-0.759,2.888-2,3.722v1.508c0,1.081,0.255,2.163,0.739,3.13l2.208,4.417c0.078,0.155,0.069,0.339-0.022,0.486
				S37.173,39.5,37,39.5z M27.809,38.5h8.382l-1.846-3.693c-0.553-1.104-0.845-2.341-0.845-3.577v-1.784
				c0-0.178,0.095-0.343,0.249-0.432C34.845,28.375,35.5,27.248,35.5,26c0-1.93-1.57-3.5-3.5-3.5s-3.5,1.57-3.5,3.5
				c0,1.248,0.655,2.374,1.751,3.014c0.154,0.089,0.249,0.254,0.249,0.432v1.784c0,1.235-0.292,2.473-0.845,3.577L27.809,38.5z"/>
		</g>
	</g>
	<g>
		<g>
			<path class="st0" d="M14,3.5h-2c-0.276,0-0.5-0.224-0.5-0.5s0.224-0.5,0.5-0.5h2c0.276,0,0.5,0.224,0.5,0.5S14.276,3.5,14,3.5z"
				/>
		</g>
	</g>
	<g>
		<g>
			<path class="st0" d="M32.5,3.5H16c-0.276,0-0.5-0.224-0.5-0.5s0.224-0.5,0.5-0.5h16.5C32.776,2.5,33,2.724,33,3
				S32.776,3.5,32.5,3.5z"/>
		</g>
	</g>
	<g>
		<g>
			<path class="st0" d="M52,61.5h-2c-0.276,0-0.5-0.224-0.5-0.5s0.224-0.5,0.5-0.5h2c0.276,0,0.5,0.224,0.5,0.5S52.276,61.5,52,61.5
				z"/>
		</g>
	</g>
	<g>
		<g>
			<path class="st0" d="M48,61.5H31.5c-0.276,0-0.5-0.224-0.5-0.5s0.224-0.5,0.5-0.5H48c0.276,0,0.5,0.224,0.5,0.5
				S48.276,61.5,48,61.5z"/>
		</g>
	</g>
</g>
</svg>
