<?xml version="1.0" encoding="utf-8"?>
<!-- Generator: Adobe Illustrator 22.0.0, SVG Export Plug-In . SVG Version: 6.00 Build 0)  -->
<svg version="1.1" id="Layer_1" xmlns="http://www.w3.org/2000/svg" xmlns:xlink="http://www.w3.org/1999/xlink" x="0px" y="0px"
	 viewBox="0 0 64 64" style="enable-background:new 0 0 64 64;" xml:space="preserve">
<style type="text/css">
	.st0{fill:#263238;}
	.st1{fill:#FFD740;}
	.st2{fill:#40C4FF;}
	.st3{fill:#FF5252;}
	.st4{fill:#4FC3F7;}
	.st5{fill:#FFFFFF;}
	.st6{fill:#4DB6AC;}
	.st7{fill:#FFCA28;}
	.st8{fill:#37474F;}
</style>
<g>
	<g>
		<g>
			<path class="st0" d="M18.497,9.686h-4c-0.276,0-0.5-0.224-0.5-0.5s0.224-0.5,0.5-0.5h4c0.276,0,0.5,0.224,0.5,0.5
				S18.773,9.686,18.497,9.686z"/>
		</g>
	</g>
	<g>
		<g>
			<path class="st0" d="M16.497,11.686c-0.276,0-0.5-0.224-0.5-0.5v-4c0-0.276,0.224-0.5,0.5-0.5s0.5,0.224,0.5,0.5v4
				C16.997,11.462,16.773,11.686,16.497,11.686z"/>
		</g>
	</g>
	<g>
		<g>
			<path class="st0" d="M24.497,4.686h-4c-0.276,0-0.5-0.224-0.5-0.5s0.224-0.5,0.5-0.5h4c0.276,0,0.5,0.224,0.5,0.5
				S24.773,4.686,24.497,4.686z"/>
		</g>
	</g>
	<g>
		<g>
			<path class="st0" d="M22.497,6.686c-0.276,0-0.5-0.224-0.5-0.5v-4c0-0.276,0.224-0.5,0.5-0.5s0.5,0.224,0.5,0.5v4
				C22.997,6.462,22.773,6.686,22.497,6.686z"/>
		</g>
	</g>
	<g>
		<g>
			<path class="st0" d="M60.497,57.718h-2c-0.276,0-0.5-0.224-0.5-0.5s0.224-0.5,0.5-0.5h2c0.276,0,0.5,0.224,0.5,0.5
				S60.773,57.718,60.497,57.718z"/>
		</g>
	</g>
	<g>
		<g>
			<path class="st0" d="M56.497,57.718h-10c-0.276,0-0.5-0.224-0.5-0.5s0.224-0.5,0.5-0.5h10c0.276,0,0.5,0.224,0.5,0.5
				S56.773,57.718,56.497,57.718z"/>
		</g>
	</g>
	<g>
		<g>
			<path class="st0" d="M5.497,57.718h-2c-0.276,0-0.5-0.224-0.5-0.5s0.224-0.5,0.5-0.5h2c0.276,0,0.5,0.224,0.5,0.5
				S5.773,57.718,5.497,57.718z"/>
		</g>
	</g>
	<g>
		<g>
			<path class="st0" d="M17.497,57.718h-10c-0.276,0-0.5-0.224-0.5-0.5s0.224-0.5,0.5-0.5h10c0.276,0,0.5,0.224,0.5,0.5
				S17.773,57.718,17.497,57.718z"/>
		</g>
	</g>
	<g>
		<g>
			<path class="st0" d="M31.997,31.313c-1.408,0-2.816-0.536-3.889-1.608c-0.195-0.195-0.195-0.512,0-0.707s0.512-0.195,0.707,0
				c1.754,1.754,4.608,1.754,6.364,0c0.195-0.195,0.512-0.195,0.707,0s0.195,0.512,0,0.707
				C34.814,30.777,33.405,31.313,31.997,31.313z"/>
		</g>
	</g>
	<g>
		<g>
			<path class="st0" d="M31.997,37.316c-5.242,0-9.745-3.475-11.095-8.502c-1.61-0.05-2.905-1.376-2.905-2.998
				s1.295-2.948,2.905-2.998c1.349-5.027,5.852-8.502,11.095-8.502s9.747,3.475,11.096,8.502c1.61,0.051,2.904,1.376,2.904,2.998
				s-1.294,2.948-2.904,2.998C41.743,33.842,37.24,37.316,31.997,37.316z M21.208,27.798c0.241,0,0.513,0.148,0.565,0.377
				c1.103,4.794,5.307,8.142,10.224,8.142c4.918,0,9.122-3.348,10.225-8.142c0.057-0.247,0.295-0.415,0.543-0.385
				c0.142,0.019,0.187,0.026,0.232,0.026c1.103,0,2-0.897,2-2s-0.897-2-2-2c-0.049,0-0.095,0.008-0.142,0.014
				c-0.251,0.03-0.575-0.121-0.634-0.373c-1.103-4.793-5.307-8.141-10.225-8.141c-4.917,0-9.121,3.348-10.224,8.141
				c-0.058,0.246-0.293,0.41-0.543,0.385c-0.137-0.018-0.185-0.025-0.233-0.025c-1.103,0-2,0.897-2,2s0.897,2,2,2
				c0.047,0,0.092-0.008,0.137-0.014C21.158,27.799,21.183,27.798,21.208,27.798z"/>
		</g>
	</g>
	<g>
		<g>
			<path class="st0" d="M43.513,62.316c-0.276,0-0.5-0.224-0.5-0.5v-9c0-0.097,0.028-0.192,0.081-0.273l4.571-7
				c0.093-0.142,0.25-0.227,0.419-0.227h10.779c0.718,0,1.369-0.161,1.884-0.465c1.364-0.806,2.025-2.366,1.646-3.884l-4.959-19.835
				c-0.455-1.825-2.193-3.046-3.946-2.78c-0.995,0.151-1.849,0.691-2.402,1.522c-0.546,0.819-0.722,1.836-0.483,2.79l3.758,15.03
				c0.054,0.215-0.041,0.44-0.232,0.553c-0.193,0.111-0.435,0.083-0.596-0.068l-1.062-1.002c-2.773-2.615-7.057-2.554-9.753,0.143
				l-0.85,0.85c-0.094,0.094-0.221,0.146-0.354,0.146h-5.5c-0.276,0-0.5-0.224-0.5-0.5V36.76c-2.271,0.736-4.725,0.74-7,0.01v1.047
				c0,0.276-0.224,0.5-0.5,0.5h-5.5c-0.133,0-0.26-0.053-0.354-0.146l-0.861-0.862c-2.689-2.688-6.968-2.757-9.741-0.153
				l-1.094,1.026c-0.162,0.152-0.406,0.18-0.595,0.066c-0.191-0.112-0.286-0.337-0.232-0.552l3.731-14.928
				c0.418-1.668-0.347-3.39-1.818-4.093c-0.973-0.465-2.081-0.476-3.039-0.024c-0.957,0.449-1.652,1.295-1.907,2.317L1.634,40.842
				c-0.174,0.694-0.176,1.364-0.005,1.938c0.451,1.518,1.806,2.537,3.369,2.537h10.943c0.169,0,0.326,0.085,0.419,0.227l4.571,7
				c0.053,0.081,0.081,0.177,0.081,0.273v9c0,0.276-0.224,0.5-0.5,0.5s-0.5-0.224-0.5-0.5v-8.852l-4.342-6.648H4.998
				c-2.01,0-3.749-1.307-4.328-3.252c-0.221-0.745-0.224-1.598-0.007-2.465l4.969-19.874c0.329-1.315,1.223-2.402,2.452-2.98
				c1.231-0.58,2.651-0.567,3.896,0.027c1.898,0.908,2.89,3.11,2.357,5.237l-3.32,13.283c3.172-2.84,7.96-2.718,10.987,0.308
				l0.715,0.716h4.793v-1.255c0-0.165,0.082-0.319,0.218-0.413s0.311-0.111,0.464-0.053c2.457,0.96,5.169,0.957,7.62-0.006
				c0.317-0.122,0.698,0.127,0.698,0.466v1.261h4.793l0.703-0.703c3.022-3.023,7.795-3.148,10.968-0.326l-3.346-13.38
				c-0.306-1.227-0.079-2.533,0.622-3.587c0.712-1.067,1.807-1.763,3.084-1.956c2.262-0.348,4.487,1.205,5.067,3.526l4.959,19.835
				c0.487,1.95-0.359,3.955-2.108,4.987c-0.668,0.395-1.495,0.604-2.392,0.604H48.354l-4.342,6.648v8.852
				C44.013,62.093,43.789,62.316,43.513,62.316z"/>
		</g>
	</g>
	<g>
		<g>
			<path class="st1" d="M21.997,24.816h-0.5v-6.5h3v4C24.497,23.697,23.378,24.816,21.997,24.816z"/>
		</g>
		<g>
			<path class="st0" d="M21.997,25.316h-0.5c-0.276,0-0.5-0.224-0.5-0.5v-6.5c0-0.276,0.224-0.5,0.5-0.5h3
				c0.276,0,0.5,0.224,0.5,0.5v4C24.997,23.971,23.651,25.316,21.997,25.316z M21.997,24.316h0.01H21.997z M21.997,18.816v5.5
				c1.103,0,2-0.897,2-2v-3.5H21.997z"/>
		</g>
	</g>
	<g>
		<g>
			<path class="st1" d="M39.497,18.266v4.05c0,1.381,1.119,2.5,2.5,2.5h0.5v-7.935C41.709,17.655,40.659,18.148,39.497,18.266z"/>
		</g>
		<g>
			<path class="st0" d="M42.497,25.316h-0.5c-1.654,0-3-1.346-3-3v-4.051c0-0.257,0.194-0.472,0.45-0.497
				c1.03-0.104,1.989-0.546,2.699-1.244c0.145-0.141,0.359-0.183,0.544-0.104c0.186,0.078,0.307,0.26,0.307,0.461v7.936
				C42.997,25.093,42.773,25.316,42.497,25.316z M39.997,18.699v3.617c0,1.103,0.897,2,2,2v-6.401
				C41.396,18.3,40.715,18.568,39.997,18.699z"/>
		</g>
	</g>
	<g>
		<g>
			<path class="st1" d="M38.997,18.316h-17.5v0c0-4.142,3.358-7.5,7.5-7.5h5.205c2.171,0,4.315-0.471,6.286-1.381l3.509-1.619v5.5
				C43.997,16.077,41.759,18.316,38.997,18.316z"/>
		</g>
		<g>
			<path class="st0" d="M38.997,18.816h-17.5c-0.276,0-0.5-0.224-0.5-0.5c0-4.411,3.589-8,8-8h5.206
				c2.082,0,4.183-0.462,6.077-1.335l3.507-1.619c0.156-0.07,0.335-0.06,0.479,0.033c0.144,0.092,0.23,0.25,0.23,0.421v5.5
				C44.497,16.349,42.029,18.816,38.997,18.816z M22.015,17.816h16.982c2.481,0,4.5-2.019,4.5-4.5V8.598L40.699,9.89
				c-2.024,0.934-4.271,1.427-6.496,1.427h-5.206C25.306,11.316,22.272,14.189,22.015,17.816z"/>
		</g>
	</g>
	<g>
		<g>
			<path class="st0" d="M29.513,53.316h-7c-0.276,0-0.5-0.224-0.5-0.5s0.224-0.5,0.5-0.5h7c1.103,0,2-0.897,2-2
				c0-0.276,0.224-0.5,0.5-0.5s0.5,0.224,0.5,0.5C32.513,51.971,31.167,53.316,29.513,53.316z"/>
		</g>
	</g>
	<g>
		<g>
			<path class="st0" d="M41.513,53.316h-7c-1.654,0-3-1.346-3-3c0-0.276,0.224-0.5,0.5-0.5s0.5,0.224,0.5,0.5c0,1.103,0.897,2,2,2h7
				c0.276,0,0.5,0.224,0.5,0.5S41.789,53.316,41.513,53.316z"/>
		</g>
	</g>
	<g>
		<g>
			<path class="st0" d="M32.013,62.316c-0.276,0-0.5-0.224-0.5-0.5v-16.5c0-0.276,0.224-0.5,0.5-0.5s0.5,0.224,0.5,0.5v16.5
				C32.513,62.093,32.289,62.316,32.013,62.316z"/>
		</g>
	</g>
	<g>
		<g>
			<path class="st0" d="M36.497,57.816h-9c-0.276,0-0.5-0.224-0.5-0.5s0.224-0.5,0.5-0.5h9c0.276,0,0.5,0.224,0.5,0.5
				S36.773,57.816,36.497,57.816z"/>
		</g>
	</g>
	<g>
		<g>
			<path class="st0" d="M36.497,62.316h-9c-0.276,0-0.5-0.224-0.5-0.5s0.224-0.5,0.5-0.5h9c0.276,0,0.5,0.224,0.5,0.5
				S36.773,62.316,36.497,62.316z"/>
		</g>
	</g>
</g>
</svg>
