<?xml version="1.0" encoding="utf-8"?>
<!-- Generator: Adobe Illustrator 22.0.0, SVG Export Plug-In . SVG Version: 6.00 Build 0)  -->
<svg version="1.1" id="Layer_1" xmlns="http://www.w3.org/2000/svg" xmlns:xlink="http://www.w3.org/1999/xlink" x="0px" y="0px"
	 viewBox="0 0 64 64" style="enable-background:new 0 0 64 64;" xml:space="preserve">
<style type="text/css">
	.st0{fill:#263238;}
	.st1{fill:#FFD740;}
	.st2{fill:#40C4FF;}
	.st3{fill:#FF5252;}
	.st4{fill:#4FC3F7;}
	.st5{fill:#FFFFFF;}
	.st6{fill:#4DB6AC;}
	.st7{fill:#FFCA28;}
	.st8{fill:#37474F;}
</style>
<g>
	<g>
		<g>
			<path class="st0" d="M52,23.014h-4c-0.276,0-0.5-0.224-0.5-0.5s0.224-0.5,0.5-0.5h4c0.276,0,0.5,0.224,0.5,0.5
				S52.276,23.014,52,23.014z"/>
		</g>
	</g>
	<g>
		<g>
			<path class="st0" d="M50,25.014c-0.276,0-0.5-0.224-0.5-0.5v-4c0-0.276,0.224-0.5,0.5-0.5s0.5,0.224,0.5,0.5v4
				C50.5,24.79,50.276,25.014,50,25.014z"/>
		</g>
	</g>
	<g>
		<g>
			<path class="st0" d="M58,29.514h-4c-0.276,0-0.5-0.224-0.5-0.5s0.224-0.5,0.5-0.5h4c0.276,0,0.5,0.224,0.5,0.5
				S58.276,29.514,58,29.514z"/>
		</g>
	</g>
	<g>
		<g>
			<path class="st0" d="M56,31.514c-0.276,0-0.5-0.224-0.5-0.5v-4c0-0.276,0.224-0.5,0.5-0.5s0.5,0.224,0.5,0.5v4
				C56.5,31.29,56.276,31.514,56,31.514z"/>
		</g>
	</g>
	<g>
		<g>
			<circle class="st1" cx="36.001" cy="41" r="16"/>
		</g>
		<g>
			<path class="st0" d="M36,57.492c-4.226,0-8.45-1.608-11.667-4.825C21.217,49.551,19.5,45.407,19.5,41s1.716-8.551,4.833-11.667
				C27.45,26.216,31.593,24.5,36,24.5s8.551,1.716,11.667,4.833c6.433,6.434,6.433,16.9,0,23.334l0,0
				C44.452,55.883,40.225,57.492,36,57.492z M36,25.5c-4.14,0-8.033,1.612-10.96,4.54C22.113,32.968,20.5,36.859,20.5,41
				s1.612,8.032,4.54,10.96c6.043,6.043,15.876,6.043,21.92,0l0,0c6.043-6.043,6.043-15.877,0-21.92
				C44.033,27.112,40.141,25.5,36,25.5z M47.314,52.313h0.01H47.314z"/>
		</g>
	</g>
	<g>
		<g>
			<path class="st0" d="M39.542,34.224c-0.64,0-1.28-0.243-1.768-0.73c-0.975-0.975-0.975-2.562,0-3.536
				c0.975-0.975,2.561-0.975,3.536,0s0.975,2.562,0,3.536l0,0C40.823,33.98,40.183,34.224,39.542,34.224z M39.542,30.226
				c-0.384,0-0.769,0.146-1.061,0.438c-0.585,0.585-0.585,1.537,0,2.122c0.585,0.584,1.537,0.584,2.122,0
				c0.584-0.585,0.584-1.537,0-2.122C40.311,30.372,39.926,30.226,39.542,30.226z M40.957,33.14h0.01H40.957z"/>
		</g>
	</g>
	<g>
		<g>
			<path class="st0" d="M45.237,39.919c-0.641,0-1.281-0.244-1.768-0.731c-0.472-0.472-0.732-1.1-0.732-1.768
				c0-0.667,0.26-1.295,0.732-1.768c0.974-0.974,2.561-0.976,3.536,0c0.472,0.473,0.732,1.101,0.732,1.768
				c0,0.668-0.26,1.296-0.732,1.768l0,0C46.518,39.675,45.877,39.919,45.237,39.919z M45.237,35.921
				c-0.384,0-0.768,0.146-1.061,0.438c-0.283,0.283-0.439,0.66-0.439,1.061c0,0.401,0.156,0.777,0.439,1.061
				c0.585,0.584,1.537,0.584,2.122,0l0,0c0.284-0.283,0.439-0.659,0.439-1.061c0-0.4-0.156-0.777-0.439-1.061
				C46.005,36.067,45.621,35.921,45.237,35.921z"/>
		</g>
	</g>
	<g>
		<g>
			<path class="st0" d="M38.166,41.333c-0.64,0-1.28-0.243-1.768-0.73c-0.975-0.975-0.975-2.562,0-3.536
				c0.943-0.945,2.592-0.945,3.535,0c0.975,0.975,0.975,2.562,0,3.536l0,0C39.446,41.09,38.806,41.333,38.166,41.333z
				 M38.166,37.334c-0.401,0-0.777,0.156-1.061,0.439c-0.585,0.585-0.585,1.537,0,2.122c0.585,0.584,1.536,0.584,2.121,0
				c0.585-0.585,0.585-1.537,0-2.122C38.943,37.49,38.567,37.334,38.166,37.334z M39.58,40.249h0.01H39.58z"/>
		</g>
	</g>
	<g>
		<g>
			<path class="st0" d="M55.933,57.5h-1c-0.276,0-0.5-0.224-0.5-0.5s0.224-0.5,0.5-0.5h1c0.276,0,0.5,0.224,0.5,0.5
				S56.209,57.5,55.933,57.5z"/>
		</g>
	</g>
	<g>
		<g>
			<path class="st0" d="M52.933,57.5h-7.5c-0.276,0-0.5-0.224-0.5-0.5s0.224-0.5,0.5-0.5h7.5c0.276,0,0.5,0.224,0.5,0.5
				S53.209,57.5,52.933,57.5z"/>
		</g>
	</g>
	<g>
		<g>
			<path class="st0" d="M22.5,20.5h-1c-0.276,0-0.5-0.224-0.5-0.5s0.224-0.5,0.5-0.5h1c0.276,0,0.5,0.224,0.5,0.5
				S22.777,20.5,22.5,20.5z"/>
		</g>
	</g>
	<g>
		<g>
			<path class="st0" d="M32,20.5h-7.5c-0.276,0-0.5-0.224-0.5-0.5s0.224-0.5,0.5-0.5H32c0.276,0,0.5,0.224,0.5,0.5
				S32.277,20.5,32,20.5z"/>
		</g>
	</g>
	<g>
		<g>
			<path class="st0" d="M18.686,57.5H9.914c-1.169,0-2.196-0.829-2.443-1.972l-1.168-5.404C4.673,42.591,5.571,34.595,8.83,27.609
				l0.67-1.437c0.837-1.793,1.092-3.77,0.738-5.716l-1.357-7.464c-0.293-1.612,0.141-3.258,1.19-4.515
				C11.121,7.221,12.662,6.5,14.3,6.5c1.638,0,3.179,0.721,4.229,1.979s1.483,2.902,1.19,4.515l-1.357,7.464
				c-0.354,1.946-0.099,3.923,0.738,5.716l0.67,1.436c0.542,1.161,1.034,2.397,1.465,3.675c0.088,0.262-0.052,0.546-0.314,0.634
				c-0.261,0.088-0.545-0.053-0.633-0.313c-0.419-1.243-0.898-2.445-1.424-3.572l-0.67-1.435c-0.925-1.982-1.207-4.167-0.815-6.319
				l1.357-7.464c0.24-1.318-0.115-2.665-0.974-3.694S15.641,7.5,14.3,7.5c-1.34,0-2.602,0.59-3.46,1.619s-1.214,2.376-0.974,3.694
				l1.357,7.464c0.392,2.152,0.109,4.337-0.815,6.319l-0.67,1.436c-3.167,6.788-4.04,14.559-2.457,21.881l1.168,5.404
				C8.596,56.003,9.212,56.5,9.914,56.5h8.772c0.701,0,1.318-0.497,1.466-1.183l0.829-3.834c0.059-0.27,0.325-0.439,0.594-0.383
				c0.27,0.058,0.441,0.324,0.383,0.594l-0.829,3.834C20.882,56.671,19.854,57.5,18.686,57.5z"/>
		</g>
	</g>
	<g>
		<g>
			<path class="st3" d="M17.87,20.367l0.149-0.82h-7.437l0.149,0.82c0.316,1.74,0.161,3.526-0.436,5.18h8.011
				C17.709,23.894,17.553,22.107,17.87,20.367z"/>
		</g>
		<g>
			<path class="st0" d="M18.305,26.048h-8.011c-0.163,0-0.315-0.079-0.409-0.213c-0.094-0.133-0.116-0.304-0.061-0.457
				c0.569-1.578,0.713-3.28,0.415-4.921l-0.149-0.819c-0.027-0.146,0.013-0.296,0.108-0.41c0.095-0.114,0.235-0.18,0.384-0.18h7.438
				c0.148,0,0.289,0.065,0.384,0.18c0.095,0.113,0.135,0.264,0.108,0.41l-0.149,0.819l0,0c-0.298,1.641-0.155,3.342,0.414,4.921
				c0.055,0.153,0.033,0.324-0.061,0.457C18.621,25.969,18.468,26.048,18.305,26.048z M10.981,25.048h6.637
				c-0.445-1.551-0.529-3.187-0.241-4.771h0l0.042-0.229h-6.239l0.042,0.229C11.51,21.862,11.426,23.497,10.981,25.048z
				 M17.87,20.367h0.01H17.87z"/>
		</g>
	</g>
</g>
</svg>
