<?xml version="1.0" encoding="utf-8"?>
<!-- Generator: Adobe Illustrator 22.0.0, SVG Export Plug-In . SVG Version: 6.00 Build 0)  -->
<svg version="1.1" id="Layer_1" xmlns="http://www.w3.org/2000/svg" xmlns:xlink="http://www.w3.org/1999/xlink" x="0px" y="0px"
	 viewBox="0 0 64 64" style="enable-background:new 0 0 64 64;" xml:space="preserve">
<style type="text/css">
	.st0{fill:#263238;}
	.st1{fill:#FFD740;}
	.st2{fill:#40C4FF;}
	.st3{fill:#FF5252;}
	.st4{fill:#4FC3F7;}
	.st5{fill:#FFFFFF;}
	.st6{fill:#4DB6AC;}
	.st7{fill:#FFCA28;}
	.st8{fill:#37474F;}
</style>
<g>
	<g>
		<g>
			<path class="st2" d="M39.75,22.403h-16c-0.552,0-1-0.448-1-1v-6c0-0.552,0.448-1,1-1h16c0.552,0,1,0.448,1,1v6
				C40.75,21.955,40.302,22.403,39.75,22.403z"/>
		</g>
		<g>
			<path class="st0" d="M39.75,22.903h-16c-0.827,0-1.5-0.673-1.5-1.5v-6c0-0.827,0.673-1.5,1.5-1.5h16c0.827,0,1.5,0.673,1.5,1.5v6
				C41.25,22.23,40.577,22.903,39.75,22.903z M23.75,14.903c-0.275,0-0.5,0.224-0.5,0.5v6c0,0.276,0.225,0.5,0.5,0.5h16
				c0.275,0,0.5-0.224,0.5-0.5v-6c0-0.276-0.225-0.5-0.5-0.5H23.75z"/>
		</g>
	</g>
	<g>
		<g>
			<path class="st0" d="M38.75,33.902h-14c-3.032,0-5.5-2.467-5.5-5.5v-16c0-3.033,2.468-5.5,5.5-5.5h14c3.032,0,5.5,2.467,5.5,5.5
				v16C44.25,31.435,41.782,33.902,38.75,33.902z M24.75,7.903c-2.481,0-4.5,2.019-4.5,4.5v16c0,2.481,2.019,4.5,4.5,4.5h14
				c2.481,0,4.5-2.019,4.5-4.5v-16c0-2.481-2.019-4.5-4.5-4.5H24.75z"/>
		</g>
	</g>
	<g>
		<g>
			<path class="st0" d="M44.25,26.903h-0.5c-0.276,0-0.5-0.224-0.5-0.5v-8c0-0.276,0.224-0.5,0.5-0.5h0.5c1.654,0,3,1.346,3,3v3
				C47.25,25.557,45.904,26.903,44.25,26.903z M44.25,25.903h0.01H44.25z M44.25,18.903v7c1.103,0,2-0.897,2-2v-3
				C46.25,19.8,45.353,18.903,44.25,18.903z"/>
		</g>
	</g>
	<g>
		<g>
			<path class="st0" d="M19.75,26.903h-0.5c-1.654,0-3-1.346-3-3v-3c0-1.654,1.346-3,3-3h0.5c0.276,0,0.5,0.224,0.5,0.5v8
				C20.25,26.679,20.026,26.903,19.75,26.903z M19.25,18.903c-1.103,0-2,0.897-2,2v3c0,1.103,0.897,2,2,2V18.903z"/>
		</g>
	</g>
	<g>
		<g>
			<path class="st0" d="M33.8,28.903h-4c-1.103,0-2-0.897-2-2s0.897-2,2-2h4c1.103,0,2,0.897,2,2S34.902,28.903,33.8,28.903z
				 M29.8,25.903c-0.552,0-1,0.449-1,1s0.448,1,1,1h4c0.552,0,1-0.449,1-1s-0.448-1-1-1H29.8z"/>
		</g>
	</g>
	<g>
		<g>
			<path class="st0" d="M13.75,58.999c-0.276,0-0.5-0.224-0.5-0.5v-22.5c0-1.103-0.897-2-2-2h-5c-1.103,0-2,0.897-2,2v22.5
				c0,0.276-0.224,0.5-0.5,0.5s-0.5-0.224-0.5-0.5v-22.5c0-1.654,1.346-3,3-3h5c1.654,0,3,1.346,3,3v22.5
				C14.25,58.775,14.026,58.999,13.75,58.999z"/>
		</g>
	</g>
	<g>
		<g>
			<path class="st0" d="M13.75,42.499h-10c-0.276,0-0.5-0.224-0.5-0.5s0.224-0.5,0.5-0.5h10c0.276,0,0.5,0.224,0.5,0.5
				S14.026,42.499,13.75,42.499z"/>
		</g>
	</g>
	<g>
		<g>
			<path class="st0" d="M59.75,42.499h-10c-0.276,0-0.5-0.224-0.5-0.5s0.224-0.5,0.5-0.5h10c0.276,0,0.5,0.224,0.5,0.5
				S60.026,42.499,59.75,42.499z"/>
		</g>
	</g>
	<g>
		<g>
			<path class="st0" d="M37.75,36.902h-12c-0.276,0-0.5-0.224-0.5-0.5v-3c0-0.276,0.224-0.5,0.5-0.5h12c0.276,0,0.5,0.224,0.5,0.5v3
				C38.25,36.679,38.026,36.902,37.75,36.902z M26.25,35.902h11v-2h-11V35.902z"/>
		</g>
	</g>
	<g>
		<g>
			<path class="st0" d="M16.75,46.499h-3c-0.276,0-0.5-0.224-0.5-0.5v-7c0-0.276,0.224-0.5,0.5-0.5h3c0.276,0,0.5,0.224,0.5,0.5v7
				C17.25,46.275,17.026,46.499,16.75,46.499z M14.25,45.499h2v-6h-2V45.499z"/>
		</g>
	</g>
	<g>
		<g>
			<path class="st0" d="M49.75,39.499h-3c-0.276,0-0.5-0.224-0.5-0.5s0.224-0.5,0.5-0.5h3c0.276,0,0.5,0.224,0.5,0.5
				S50.026,39.499,49.75,39.499z"/>
		</g>
	</g>
	<g>
		<g>
			<path class="st0" d="M9.75,15h-4c-0.276,0-0.5-0.224-0.5-0.5S5.474,14,5.75,14h4c0.276,0,0.5,0.224,0.5,0.5S10.026,15,9.75,15z"
				/>
		</g>
	</g>
	<g>
		<g>
			<path class="st0" d="M16.25,8h-4c-0.276,0-0.5-0.224-0.5-0.5S11.974,7,12.25,7h4c0.276,0,0.5,0.224,0.5,0.5S16.526,8,16.25,8z"/>
		</g>
	</g>
	<g>
		<g>
			<path class="st0" d="M14.25,10c-0.276,0-0.5-0.224-0.5-0.5v-4c0-0.276,0.224-0.5,0.5-0.5s0.5,0.224,0.5,0.5v4
				C14.75,9.776,14.526,10,14.25,10z"/>
		</g>
	</g>
	<g>
		<g>
			<path class="st0" d="M7.75,17c-0.276,0-0.5-0.224-0.5-0.5v-4c0-0.276,0.224-0.5,0.5-0.5s0.5,0.224,0.5,0.5v4
				C8.25,16.776,8.026,17,7.75,17z"/>
		</g>
	</g>
	<g>
		<g>
			<path class="st1" d="M30.75,42.903l-3,3h5.5l2.5,3l-2.5,3h-5.5l3,3h5l3-3h16.168c0.963,1.069,2.413,1.688,4.015,1.449
				c1.821-0.272,3.344-1.684,3.717-3.487c0.601-2.905-1.601-5.461-4.4-5.461c-1.328,0-2.508,0.586-3.332,1.5H38.75l-3-3H30.75z
				 M60.25,48.903c0,1.105-0.896,2-2,2c-1.105,0-2-0.895-2-2c0-1.105,0.895-2,2-2C59.354,46.903,60.25,47.798,60.25,48.903z"/>
		</g>
		<g>
			<path class="st0" d="M35.75,55.402h-5c-0.133,0-0.26-0.053-0.354-0.146l-3-3c-0.143-0.143-0.186-0.358-0.108-0.545
				s0.26-0.309,0.462-0.309h5.266l2.084-2.5l-2.084-2.5H27.75c-0.202,0-0.385-0.122-0.462-0.309s-0.034-0.402,0.108-0.545l3-3
				c0.094-0.094,0.221-0.146,0.354-0.146h5c0.133,0,0.26,0.053,0.354,0.146l2.854,2.854h15.745c0.941-0.956,2.222-1.5,3.548-1.5
				c1.511,0,2.925,0.673,3.879,1.846c0.955,1.172,1.323,2.71,1.011,4.218c-0.416,2.014-2.077,3.573-4.132,3.88
				c-1.616,0.247-3.17-0.284-4.306-1.443H38.957l-2.854,2.854C36.01,55.35,35.883,55.402,35.75,55.402z M30.957,54.402h4.586
				l2.854-2.854c0.094-0.094,0.221-0.146,0.354-0.146h16.168c0.142,0,0.277,0.061,0.372,0.166c0.918,1.021,2.223,1.489,3.569,1.289
				c1.617-0.242,2.975-1.515,3.302-3.095c0.251-1.212-0.044-2.445-0.808-3.384s-1.896-1.477-3.104-1.477
				c-1.134,0-2.186,0.474-2.961,1.335c-0.095,0.104-0.229,0.165-0.371,0.165H38.75c-0.133,0-0.26-0.053-0.354-0.146l-2.854-2.854
				h-4.586l-2,2h4.293c0.148,0,0.289,0.065,0.384,0.18l2.5,3c0.155,0.186,0.155,0.455,0,0.641l-2.5,3
				c-0.095,0.114-0.235,0.18-0.384,0.18h-4.293L30.957,54.402z M58.25,51.402c-1.379,0-2.5-1.121-2.5-2.5s1.121-2.5,2.5-2.5
				s2.5,1.121,2.5,2.5S59.629,51.402,58.25,51.402z M58.25,47.402c-0.827,0-1.5,0.673-1.5,1.5s0.673,1.5,1.5,1.5s1.5-0.673,1.5-1.5
				S59.077,47.402,58.25,47.402z"/>
		</g>
	</g>
	<g>
		<g>
			<path class="st0" d="M16.75,58.902c-0.276,0-0.5-0.224-0.5-0.5v-19.5c0-1.654,1.346-3,3-3h25c1.654,0,3,1.346,3,3v5
				c0,0.276-0.224,0.5-0.5,0.5s-0.5-0.224-0.5-0.5v-5c0-1.103-0.897-2-2-2h-25c-1.103,0-2,0.897-2,2v19.5
				C17.25,58.679,17.026,58.902,16.75,58.902z"/>
		</g>
	</g>
	<g>
		<g>
			<path class="st0" d="M59.75,58.999c-0.276,0-0.5-0.224-0.5-0.5V55.21c0-0.276,0.224-0.5,0.5-0.5s0.5,0.224,0.5,0.5v3.289
				C60.25,58.775,60.026,58.999,59.75,58.999z"/>
		</g>
	</g>
	<g>
		<g>
			<path class="st0" d="M49.75,58.999c-0.276,0-0.5-0.224-0.5-0.5v-4.597c0-0.276,0.224-0.5,0.5-0.5s0.5,0.224,0.5,0.5v4.597
				C50.25,58.775,50.026,58.999,49.75,58.999z"/>
		</g>
	</g>
	<g>
		<g>
			<path class="st0" d="M49.75,44.402c-0.276,0-0.5-0.224-0.5-0.5v-7.903c0-1.654,1.346-3,3-3h5c1.654,0,3,1.346,3,3v6.581
				c0,0.276-0.224,0.5-0.5,0.5s-0.5-0.224-0.5-0.5v-6.581c0-1.103-0.897-2-2-2h-5c-1.103,0-2,0.897-2,2v7.903
				C50.25,44.179,50.026,44.402,49.75,44.402z"/>
		</g>
	</g>
	<g>
		<g>
			<path class="st0" d="M3,28.903H1c-0.276,0-0.5-0.224-0.5-0.5s0.224-0.5,0.5-0.5h2c0.276,0,0.5,0.224,0.5,0.5
				S3.276,28.903,3,28.903z"/>
		</g>
	</g>
	<g>
		<g>
			<path class="st0" d="M11.5,28.902H5c-0.276,0-0.5-0.224-0.5-0.5s0.224-0.5,0.5-0.5h6.5c0.276,0,0.5,0.224,0.5,0.5
				S11.776,28.902,11.5,28.902z"/>
		</g>
	</g>
	<g>
		<g>
			<path class="st0" d="M63,28.902h-2c-0.276,0-0.5-0.224-0.5-0.5s0.224-0.5,0.5-0.5h2c0.276,0,0.5,0.224,0.5,0.5
				S63.276,28.902,63,28.902z"/>
		</g>
	</g>
	<g>
		<g>
			<path class="st0" d="M59,28.903h-6.5c-0.276,0-0.5-0.224-0.5-0.5s0.224-0.5,0.5-0.5H59c0.276,0,0.5,0.224,0.5,0.5
				S59.276,28.903,59,28.903z"/>
		</g>
	</g>
	<g>
		<g>
			<path class="st0" d="M37.75,20.903c-0.276,0-0.5-0.224-0.5-0.5v-4c0-0.276,0.224-0.5,0.5-0.5s0.5,0.224,0.5,0.5v4
				C38.25,20.679,38.026,20.903,37.75,20.903z"/>
		</g>
	</g>
</g>
</svg>
