<?xml version="1.0" encoding="utf-8"?>
<!-- Generator: Adobe Illustrator 22.0.0, SVG Export Plug-In . SVG Version: 6.00 Build 0)  -->
<svg version="1.1" id="Layer_1" xmlns="http://www.w3.org/2000/svg" xmlns:xlink="http://www.w3.org/1999/xlink" x="0px" y="0px"
	 viewBox="0 0 64 64" style="enable-background:new 0 0 64 64;" xml:space="preserve">
<style type="text/css">
	.st0{fill:#263238;}
	.st1{fill:#FFD740;}
	.st2{fill:#40C4FF;}
	.st3{fill:#FF5252;}
	.st4{fill:#4FC3F7;}
	.st5{fill:#FFFFFF;}
	.st6{fill:#4DB6AC;}
	.st7{fill:#FFCA28;}
	.st8{fill:#37474F;}
</style>
<g>
	<g>
		<g>
			<path class="st2" d="M40.477,53.5C40.81,54.44,41,55.446,41,56.5c0,2.829-1.308,5.35-3.349,7H52c5.523,0,10-4.477,10-10v0H40.477
				z"/>
		</g>
	</g>
	<g>
		<g>
			<path class="st2" d="M23,56.5c0-1.054,0.19-2.06,0.523-3H2v0c0,5.523,4.477,10,10,10h14.349C24.308,61.85,23,59.329,23,56.5z"/>
		</g>
	</g>
	<g>
		<g>
			<path class="st0" d="M62,54H40.477c-0.276,0-0.5-0.224-0.5-0.5s0.224-0.5,0.5-0.5H62c0.276,0,0.5,0.224,0.5,0.5S62.276,54,62,54z
				"/>
		</g>
	</g>
	<g>
		<g>
			<path class="st0" d="M23.523,54H2c-0.276,0-0.5-0.224-0.5-0.5S1.724,53,2,53h21.523c0.276,0,0.5,0.224,0.5,0.5
				S23.799,54,23.523,54z"/>
		</g>
	</g>
	<g>
		<g>
			<path class="st0" d="M55.5,59h-1c-0.276,0-0.5-0.224-0.5-0.5s0.224-0.5,0.5-0.5h1c0.276,0,0.5,0.224,0.5,0.5S55.776,59,55.5,59z"
				/>
		</g>
	</g>
	<g>
		<g>
			<path class="st0" d="M52.5,59H45c-0.276,0-0.5-0.224-0.5-0.5S44.724,58,45,58h7.5c0.276,0,0.5,0.224,0.5,0.5S52.776,59,52.5,59z"
				/>
		</g>
	</g>
	<g>
		<g>
			<path class="st0" d="M9.5,59h-1C8.224,59,8,58.776,8,58.5S8.224,58,8.5,58h1c0.276,0,0.5,0.224,0.5,0.5S9.776,59,9.5,59z"/>
		</g>
	</g>
	<g>
		<g>
			<path class="st0" d="M19,59h-7.5c-0.276,0-0.5-0.224-0.5-0.5s0.224-0.5,0.5-0.5H19c0.276,0,0.5,0.224,0.5,0.5S19.276,59,19,59z"
				/>
		</g>
	</g>
	<g>
		<g>
			<path class="st0" d="M50,17.498h-4c-0.276,0-0.5-0.224-0.5-0.5s0.224-0.5,0.5-0.5h4c0.276,0,0.5,0.224,0.5,0.5
				S50.276,17.498,50,17.498z"/>
		</g>
	</g>
	<g>
		<g>
			<path class="st0" d="M48,19.498c-0.276,0-0.5-0.224-0.5-0.5v-4c0-0.276,0.224-0.5,0.5-0.5s0.5,0.224,0.5,0.5v4
				C48.5,19.274,48.276,19.498,48,19.498z"/>
		</g>
	</g>
	<g>
		<g>
			<path class="st0" d="M55,11.498h-4c-0.276,0-0.5-0.224-0.5-0.5s0.224-0.5,0.5-0.5h4c0.276,0,0.5,0.224,0.5,0.5
				S55.276,11.498,55,11.498z"/>
		</g>
	</g>
	<g>
		<g>
			<path class="st0" d="M53,13.498c-0.276,0-0.5-0.224-0.5-0.5v-4c0-0.276,0.224-0.5,0.5-0.5s0.5,0.224,0.5,0.5v4
				C53.5,13.274,53.276,13.498,53,13.498z"/>
		</g>
	</g>
	<g>
		<g>
			<path class="st1" d="M27.146,60.548l-0.522,0.434C27.909,62.52,29.839,63.5,32,63.5c3.866,0,7-3.134,7-7h-0.661
				C34.25,56.5,30.29,57.932,27.146,60.548z"/>
		</g>
		<g>
			<path class="st0" d="M32,64c-2.229,0-4.328-0.983-5.759-2.698c-0.085-0.102-0.126-0.233-0.114-0.366
				c0.012-0.132,0.076-0.254,0.178-0.339l0.522-0.434C30.053,57.479,34.142,56,38.339,56H39c0.276,0,0.5,0.224,0.5,0.5
				C39.5,60.636,36.136,64,32,64z M27.344,61.033C28.565,62.289,30.236,63,32,63c3.416,0,6.225-2.648,6.481-6h-0.143
				c-3.964,0-7.826,1.396-10.873,3.932l0,0L27.344,61.033z M27.146,60.547h0.01H27.146z"/>
		</g>
	</g>
	<g>
		<g>
			<path class="st0" d="M32,64c-4.136,0-7.5-3.364-7.5-7.5S27.864,49,32,49s7.5,3.364,7.5,7.5S36.136,64,32,64z M32,50
				c-3.584,0-6.5,2.916-6.5,6.5S28.416,63,32,63s6.5-2.916,6.5-6.5S35.584,50,32,50z"/>
		</g>
	</g>
	<g>
		<g>
			<path class="st0" d="M32,29.998h-7c-0.136,0-0.265-0.055-0.359-0.153c-0.094-0.097-0.145-0.229-0.14-0.364L25.399,3.43
				C25.465,1.506,27.024,0,28.949,0C30.907,0,32.5,1.593,32.5,3.552v25.946C32.5,29.774,32.277,29.998,32,29.998z M25.518,28.998
				H31.5V3.552C31.5,2.145,30.356,1,28.949,1c-1.382,0-2.502,1.083-2.55,2.464L25.518,28.998z"/>
		</g>
	</g>
	<g>
		<g>
			<path class="st0" d="M39,30h-7c-0.276,0-0.5-0.224-0.5-0.5V3.554c0-1.958,1.593-3.552,3.552-3.552c1.924,0,3.483,1.506,3.55,3.43
				L39.5,29.483c0.004,0.135-0.046,0.267-0.141,0.364C39.266,29.945,39.136,30,39,30z M32.5,29h5.983L37.602,3.466
				c-0.047-1.381-1.167-2.464-2.55-2.464c-1.407,0-2.552,1.145-2.552,2.552V29z"/>
		</g>
	</g>
	<g>
		<g>
			<path class="st0" d="M53.5,49.5h-43c-1.654,0-3-1.346-3-3c0-1.654,1.346-3,3-3l14,0v-14c0-0.276,0.224-0.5,0.5-0.5h14.002
				c0.276,0,0.5,0.224,0.5,0.5v14l13.999,0c1.654,0,3,1.346,3,3S55.154,49.5,53.5,49.5z M10.5,44.499c-1.103,0-2,0.898-2,2
				c0,1.103,0.897,2,2,2h43c1.103,0,2-0.897,2-2s-0.897-2-2-2l-14.499,0c-0.276,0-0.5-0.224-0.5-0.5V30H25.499v14
				c0,0.133-0.053,0.26-0.146,0.354S25.132,44.5,24.999,44.5l0,0L10.5,44.499z"/>
		</g>
	</g>
	<g>
		<g>
			<polygon class="st3" points="31.999,16.998 31.999,29.5 39,29.5 38.579,16.998 			"/>
		</g>
		<g>
			<path class="st0" d="M39,30h-7c-0.276,0-0.5-0.224-0.5-0.5V16.998c0-0.276,0.224-0.5,0.5-0.5h6.58c0.27,0,0.49,0.214,0.5,0.483
				L39.5,29.483c0.004,0.135-0.046,0.267-0.141,0.364C39.266,29.945,39.136,30,39,30z M32.5,29h5.983l-0.387-11.502H32.5V29z"/>
		</g>
	</g>
	<g>
		<g>
			<polygon class="st3" points="25.421,16.998 25,29.498 32.001,29.498 32.001,16.998 			"/>
		</g>
		<g>
			<path class="st0" d="M32.001,29.998h-7c-0.136,0-0.265-0.055-0.359-0.152c-0.094-0.098-0.145-0.229-0.14-0.364l0.421-12.5
				c0.009-0.27,0.23-0.483,0.5-0.483h6.58c0.276,0,0.5,0.224,0.5,0.5v12.5C32.501,29.774,32.277,29.998,32.001,29.998z
				 M25.518,28.998h5.983v-11.5h-5.596L25.518,28.998z"/>
		</g>
	</g>
	<g>
		<g>
			<path class="st0" d="M42,29.998H22c-1.654,0-3-1.346-3-3v-17c0-1.103-0.897-2-2-2s-2,0.897-2,2v5c0,1.654-1.346,3-3,3
				s-3-1.346-3-3V0.5C9,0.224,9.224,0,9.5,0S10,0.224,10,0.5v14.498c0,1.103,0.897,2,2,2s2-0.897,2-2v-5c0-1.654,1.346-3,3-3
				s3,1.346,3,3v17c0,1.103,0.897,2,2,2h20c0.276,0,0.5,0.224,0.5,0.5S42.276,29.998,42,29.998z"/>
		</g>
	</g>
</g>
</svg>
