<?xml version="1.0" encoding="utf-8"?>
<!-- Generator: Adobe Illustrator 22.0.0, SVG Export Plug-In . SVG Version: 6.00 Build 0)  -->
<svg version="1.1" id="Layer_1" xmlns="http://www.w3.org/2000/svg" xmlns:xlink="http://www.w3.org/1999/xlink" x="0px" y="0px"
	 viewBox="0 0 64 64" style="enable-background:new 0 0 64 64;" xml:space="preserve">
<style type="text/css">
	.st0{fill:#263238;}
	.st1{fill:#FFD740;}
	.st2{fill:#40C4FF;}
	.st3{fill:#FF5252;}
	.st4{fill:#4FC3F7;}
	.st5{fill:#FFFFFF;}
	.st6{fill:#4DB6AC;}
	.st7{fill:#FFCA28;}
	.st8{fill:#37474F;}
</style>
<g>
	<g>
		<g>
			<path class="st0" d="M47.833,9.622h-1c-0.276,0-0.5-0.224-0.5-0.5s0.224-0.5,0.5-0.5h1c0.276,0,0.5,0.224,0.5,0.5
				S48.11,9.622,47.833,9.622z"/>
		</g>
	</g>
	<g>
		<g>
			<path class="st0" d="M44.833,9.622h-13c-0.276,0-0.5-0.224-0.5-0.5s0.224-0.5,0.5-0.5h13c0.276,0,0.5,0.224,0.5,0.5
				S45.11,9.622,44.833,9.622z"/>
		</g>
	</g>
	<g>
		<g>
			<path class="st0" d="M36.833,12.622h-1c-0.276,0-0.5-0.224-0.5-0.5s0.224-0.5,0.5-0.5h1c0.276,0,0.5,0.224,0.5,0.5
				S37.11,12.622,36.833,12.622z"/>
		</g>
	</g>
	<g>
		<g>
			<path class="st0" d="M51.833,12.622h-13c-0.276,0-0.5-0.224-0.5-0.5s0.224-0.5,0.5-0.5h13c0.276,0,0.5,0.224,0.5,0.5
				S52.11,12.622,51.833,12.622z"/>
		</g>
	</g>
	<g>
		<g>
			<path class="st0" d="M20.929,18.118c-1.665,0-3.329-0.634-4.596-1.901c-1.228-1.228-1.904-2.86-1.904-4.596
				c0-1.736,0.676-3.368,1.904-4.596l0,0l0,0c0.663-0.663,1.449-1.165,2.337-1.494c0.182-0.069,0.389-0.023,0.527,0.115
				s0.183,0.344,0.115,0.527c-0.745,2.012-0.249,4.289,1.263,5.801s3.792,2.006,5.8,1.263c0.183-0.068,0.388-0.023,0.527,0.115
				c0.138,0.138,0.183,0.344,0.115,0.527c-0.329,0.889-0.831,1.675-1.493,2.337C24.258,17.484,22.593,18.118,20.929,18.118z
				 M18.075,6.921c-0.376,0.227-0.722,0.498-1.036,0.811l0,0c-1.039,1.039-1.611,2.42-1.611,3.889c0,1.469,0.572,2.851,1.611,3.889
				c1.039,1.039,2.42,1.611,3.889,1.611s2.85-0.572,3.889-1.611c0.313-0.313,0.584-0.659,0.811-1.035
				c-2.073,0.377-4.243-0.275-5.76-1.793C18.351,11.165,17.699,8.997,18.075,6.921z M16.686,7.379h0.01H16.686z"/>
		</g>
	</g>
	<g>
		<g>
			<path class="st0" d="M63.5,58.5h-63C0.224,58.5,0,58.277,0,58s0.224-0.5,0.5-0.5h63c0.276,0,0.5,0.224,0.5,0.5
				S63.776,58.5,63.5,58.5z"/>
		</g>
	</g>
	<g>
		<g>
			<path class="st0" d="M57.5,58.5c-0.276,0-0.5-0.224-0.5-0.5v-6c0-0.276,0.224-0.5,0.5-0.5S58,51.724,58,52v6
				C58,58.277,57.776,58.5,57.5,58.5z"/>
		</g>
	</g>
	<g>
		<g>
			<polygon class="st1" points="20,29 6,58 34,58 			"/>
		</g>
		<g>
			<path class="st0" d="M34,58.5H6c-0.172,0-0.332-0.088-0.423-0.234c-0.092-0.146-0.102-0.328-0.027-0.483l14-29
				c0.167-0.346,0.733-0.346,0.9,0l14,29c0.075,0.155,0.065,0.337-0.027,0.483C34.332,58.412,34.172,58.5,34,58.5z M6.796,57.5
				h26.407L20,30.15L6.796,57.5z"/>
		</g>
	</g>
	<g>
		<g>
			<polygon class="st1" points="43.5,29 20,29 20,29 34,58 34,58 47.5,58 57.5,58 			"/>
		</g>
		<g>
			<path class="st0" d="M57.5,58.5H34c-0.192,0-0.367-0.11-0.45-0.283l-14-29c-0.075-0.155-0.065-0.337,0.027-0.483
				C19.668,28.589,19.828,28.5,20,28.5h23.5c0.192,0,0.367,0.11,0.45,0.283l14,29c0.075,0.155,0.065,0.337-0.027,0.483
				C57.832,58.412,57.672,58.5,57.5,58.5z M34.314,57.5h22.39l-13.518-28h-22.39L34.314,57.5z"/>
		</g>
	</g>
	<g>
		<g>
			<polyline class="st6" points="55.135,48.5 55.5,48.5 63.5,48.5 58.822,38 62.357,38 57.705,28.5 60.714,28.5 55.5,20.5 
				50.286,28.5 53.295,28.5 49.359,36.537 			"/>
		</g>
		<g>
			<path class="st0" d="M63.5,49h-8.365c-0.276,0-0.5-0.224-0.5-0.5s0.224-0.5,0.5-0.5h7.595l-4.364-9.796
				c-0.069-0.155-0.055-0.334,0.037-0.476c0.092-0.142,0.25-0.228,0.419-0.228h2.733l-4.3-8.78
				c-0.076-0.155-0.066-0.338,0.025-0.484S57.532,28,57.705,28h2.087L55.5,21.416L51.208,28h2.087c0.172,0,0.333,0.089,0.424,0.235
				s0.101,0.33,0.025,0.484l-3.936,8.037c-0.121,0.248-0.42,0.352-0.669,0.229c-0.248-0.122-0.351-0.421-0.229-0.669L52.494,29
				h-2.208c-0.184,0-0.352-0.101-0.439-0.262c-0.087-0.162-0.08-0.357,0.021-0.511l5.214-8c0.185-0.283,0.653-0.283,0.838,0l5.214,8
				c0.1,0.154,0.108,0.35,0.021,0.511C61.066,28.9,60.898,29,60.714,29h-2.208l4.3,8.78c0.076,0.155,0.066,0.338-0.025,0.484
				S62.529,38.5,62.357,38.5h-2.765l4.364,9.796c0.069,0.155,0.055,0.334-0.037,0.476C63.827,48.915,63.669,49,63.5,49z"/>
		</g>
	</g>
	<g>
		<g>
			<polyline class="st6" points="14.389,36.023 10.705,28.5 13.714,28.5 8.5,20.5 3.286,28.5 6.295,28.5 1.643,38 5.178,38 
				0.5,48.5 8.365,48.5 			"/>
		</g>
		<g>
			<path class="st0" d="M8.365,49H0.5c-0.169,0-0.327-0.086-0.419-0.228c-0.092-0.142-0.106-0.321-0.037-0.476L4.408,38.5H1.643
				c-0.172,0-0.333-0.089-0.424-0.235s-0.101-0.33-0.025-0.484l4.3-8.78H3.286c-0.184,0-0.352-0.101-0.439-0.262
				c-0.087-0.162-0.08-0.357,0.021-0.511l5.214-8c0.185-0.283,0.653-0.283,0.838,0l5.214,8c0.1,0.154,0.108,0.35,0.021,0.511
				C14.066,28.9,13.898,29,13.714,29h-2.208l3.332,6.803c0.121,0.248,0.019,0.547-0.229,0.669c-0.248,0.121-0.547,0.018-0.669-0.229
				l-3.684-7.522c-0.076-0.155-0.066-0.338,0.025-0.484S10.532,28,10.705,28h2.087L8.5,21.416L4.208,28h2.087
				c0.172,0,0.333,0.089,0.424,0.235s0.101,0.33,0.025,0.484l-4.3,8.78h2.733c0.169,0,0.327,0.086,0.419,0.228
				c0.092,0.142,0.106,0.321,0.037,0.476L1.27,48h7.095c0.276,0,0.5,0.224,0.5,0.5S8.642,49,8.365,49z"/>
		</g>
	</g>
	<g>
		<g>
			<path class="st0" d="M52.721,55.5c-0.186,0-0.365-0.104-0.451-0.283l-11.103-23c-0.12-0.249-0.016-0.547,0.233-0.667
				c0.249-0.119,0.548-0.016,0.667,0.233l11.103,23c0.12,0.249,0.016,0.547-0.233,0.667C52.868,55.484,52.793,55.5,52.721,55.5z"/>
		</g>
	</g>
	<g>
		<g>
			<path class="st0" d="M20,58.5c-0.276,0-0.5-0.224-0.5-0.5V29c0-0.276,0.224-0.5,0.5-0.5s0.5,0.224,0.5,0.5v29
				C20.5,58.277,20.276,58.5,20,58.5z"/>
		</g>
	</g>
	<g>
		<g>
			<path class="st0" d="M34,58.5c-0.276,0-0.5-0.224-0.5-0.5v-6c0-0.276,0.224-0.5,0.5-0.5s0.5,0.224,0.5,0.5v6
				C34.5,58.277,34.276,58.5,34,58.5z"/>
		</g>
	</g>
	<g>
		<g>
			<path class="st0" d="M6,58.5c-0.276,0-0.5-0.224-0.5-0.5v-6c0-0.276,0.224-0.5,0.5-0.5s0.5,0.224,0.5,0.5v6
				C6.5,58.277,6.276,58.5,6,58.5z"/>
		</g>
	</g>
</g>
</svg>
