<?xml version="1.0" encoding="utf-8"?>
<!-- Generator: Adobe Illustrator 22.0.0, SVG Export Plug-In . SVG Version: 6.00 Build 0)  -->
<svg version="1.1" id="Layer_1" xmlns="http://www.w3.org/2000/svg" xmlns:xlink="http://www.w3.org/1999/xlink" x="0px" y="0px"
	 viewBox="0 0 64 64" style="enable-background:new 0 0 64 64;" xml:space="preserve">
<style type="text/css">
	.st0{fill:#263238;}
	.st1{fill:#FFD740;}
	.st2{fill:#40C4FF;}
	.st3{fill:#FF5252;}
	.st4{fill:#4FC3F7;}
	.st5{fill:#FFFFFF;}
	.st6{fill:#4DB6AC;}
	.st7{fill:#FFCA28;}
	.st8{fill:#37474F;}
</style>
<g>
	<g>
		<g>
			<rect x="10.501" y="57" class="st1" width="5" height="3"/>
		</g>
	</g>
	<g>
		<g>
			<rect x="48.501" y="57" class="st1" width="5" height="3"/>
		</g>
	</g>
	<g>
		<g>
			<path class="st2" d="M18.459,7c0-1.657-1.343-3-3-3s-3,1.343-3,3h-0.958c-1.105,0-2,0.895-2,2v0c0,1.105,0.895,2,2,2h8
				c1.105,0,2-0.895,2-2v0c0-1.105-0.895-2-2-2H18.459z"/>
		</g>
		<g>
			<path class="st0" d="M19.501,11.5h-8c-1.379,0-2.5-1.122-2.5-2.5s1.121-2.5,2.5-2.5h0.493c0.244-1.694,1.705-3,3.465-3
				s3.221,1.306,3.465,3h0.577c1.379,0,2.5,1.122,2.5,2.5S20.88,11.5,19.501,11.5z M11.501,7.5c-0.827,0-1.5,0.673-1.5,1.5
				s0.673,1.5,1.5,1.5h8c0.827,0,1.5-0.673,1.5-1.5s-0.673-1.5-1.5-1.5h-1.042c-0.276,0-0.5-0.224-0.5-0.5
				c0-1.378-1.121-2.5-2.5-2.5s-2.5,1.122-2.5,2.5c0,0.276-0.224,0.5-0.5,0.5H11.501z M18.959,7h0.01H18.959z"/>
		</g>
	</g>
	<g>
		<g>
			<path class="st2" d="M48.501,14.998L48.501,14.998c0-2.761-2.239-5-5-5h0c-2.761,0-5,2.239-5,5v0h-2c-2.209,0-4,1.791-4,4v0
				c0,2.209,1.791,4,4,4h14c2.209,0,4-1.791,4-4v0c0-2.209-1.791-4-4-4H48.501z"/>
		</g>
		<g>
			<path class="st0" d="M50.501,23.498h-14c-2.481,0-4.5-2.019-4.5-4.5s2.019-4.5,4.5-4.5h1.522c0.253-2.799,2.613-5,5.478-5
				s5.225,2.201,5.478,5h1.522c2.481,0,4.5,2.019,4.5,4.5S52.982,23.498,50.501,23.498z M36.501,15.498c-1.93,0-3.5,1.57-3.5,3.5
				s1.57,3.5,3.5,3.5h14c1.93,0,3.5-1.57,3.5-3.5s-1.57-3.5-3.5-3.5h-2c-0.276,0-0.5-0.224-0.5-0.5c0-2.481-2.019-4.5-4.5-4.5
				s-4.5,2.019-4.5,4.5c0,0.276-0.224,0.5-0.5,0.5H36.501z M49.001,14.998h0.01H49.001z"/>
		</g>
	</g>
	<g>
		<g>
			<path class="st0" d="M20.501,39.004c-3.584,0-6.5-2.916-6.5-6.5s2.916-6.5,6.5-6.5s6.5,2.916,6.5,6.5
				S24.085,39.004,20.501,39.004z M20.501,27.004c-3.032,0-5.5,2.467-5.5,5.5s2.468,5.5,5.5,5.5s5.5-2.467,5.5-5.5
				S23.533,27.004,20.501,27.004z"/>
		</g>
	</g>
	<g>
		<g>
			<path class="st0" d="M10.501,47.503c-0.276,0-0.5-0.224-0.5-0.5V46.59c0-2.095,1.163-3.979,3.036-4.917l4.236-2.123
				c0.105-0.054,0.229-0.068,0.345-0.038c0.056,0.014,0.111,0.038,0.159,0.069l0.229,0.151c1.521,1.014,3.479,1.011,4.996-0.002
				l0.221-0.148c0.15-0.1,0.342-0.112,0.502-0.032l4.235,2.119c1.876,0.938,3.041,2.823,3.041,4.919V47c0,0.276-0.224,0.5-0.5,0.5
				s-0.5-0.224-0.5-0.5v-0.41c0-1.715-0.953-3.257-2.488-4.025l-3.977-1.988c-1.845,1.221-4.226,1.221-6.072-0.003l-3.979,1.993
				c-1.531,0.768-2.483,2.309-2.483,4.023v0.413C11.001,47.279,10.777,47.503,10.501,47.503z"/>
		</g>
	</g>
	<g>
		<g>
			<path class="st0" d="M43.501,39.004c-3.584,0-6.5-2.916-6.5-6.5s2.916-6.5,6.5-6.5s6.5,2.916,6.5,6.5
				S47.085,39.004,43.501,39.004z M43.501,27.004c-3.032,0-5.5,2.467-5.5,5.5s2.468,5.5,5.5,5.5s5.5-2.467,5.5-5.5
				S46.533,27.004,43.501,27.004z"/>
		</g>
	</g>
	<g>
		<g>
			<path class="st0" d="M33.501,47.503c-0.276,0-0.5-0.224-0.5-0.5V46.59c0-2.095,1.163-3.979,3.036-4.917l4.236-2.123
				c0.105-0.054,0.229-0.068,0.345-0.038c0.056,0.014,0.112,0.038,0.16,0.069l0.228,0.151c1.517,1.011,3.478,1.012,4.996-0.002
				l0.221-0.148c0.15-0.1,0.342-0.112,0.502-0.032l4.235,2.119c1.876,0.938,3.041,2.823,3.041,4.919V47c0,0.276-0.224,0.5-0.5,0.5
				s-0.5-0.224-0.5-0.5v-0.41c0-1.715-0.953-3.257-2.488-4.025l-3.977-1.988c-1.846,1.221-4.226,1.221-6.073-0.003l-3.979,1.993
				c-1.531,0.768-2.483,2.309-2.483,4.023v0.413C34.001,47.279,33.777,47.503,33.501,47.503z"/>
		</g>
	</g>
	<g>
		<g>
			<path class="st1" d="M56.001,55h-48c-0.552,0-1-0.448-1-1v-4c0-0.552,0.448-1,1-1h48c0.552,0,1,0.448,1,1v4
				C57.001,54.553,56.553,55,56.001,55z"/>
		</g>
		<g>
			<path class="st0" d="M56.001,55.5h-48c-0.827,0-1.5-0.673-1.5-1.5v-4c0-0.827,0.673-1.5,1.5-1.5h48c0.827,0,1.5,0.673,1.5,1.5v4
				C57.501,54.828,56.828,55.5,56.001,55.5z M8.001,49.5c-0.275,0-0.5,0.224-0.5,0.5v4c0,0.276,0.225,0.5,0.5,0.5h48
				c0.275,0,0.5-0.224,0.5-0.5v-4c0-0.276-0.225-0.5-0.5-0.5H8.001z"/>
		</g>
	</g>
	<g>
		<g>
			<path class="st0" d="M10.501,60.5c-0.276,0-0.5-0.224-0.5-0.5v-3c0-0.276,0.224-0.5,0.5-0.5s0.5,0.224,0.5,0.5v3
				C11.001,60.277,10.777,60.5,10.501,60.5z"/>
		</g>
	</g>
	<g>
		<g>
			<path class="st0" d="M15.501,60.5c-0.276,0-0.5-0.224-0.5-0.5v-3c0-0.276,0.224-0.5,0.5-0.5s0.5,0.224,0.5,0.5v3
				C16.001,60.277,15.777,60.5,15.501,60.5z"/>
		</g>
	</g>
	<g>
		<g>
			<path class="st0" d="M48.501,60.5c-0.276,0-0.5-0.224-0.5-0.5v-3c0-0.276,0.224-0.5,0.5-0.5s0.5,0.224,0.5,0.5v3
				C49.001,60.277,48.777,60.5,48.501,60.5z"/>
		</g>
	</g>
	<g>
		<g>
			<path class="st0" d="M53.501,60.5c-0.276,0-0.5-0.224-0.5-0.5v-3c0-0.276,0.224-0.5,0.5-0.5s0.5,0.224,0.5,0.5v3
				C54.001,60.277,53.777,60.5,53.501,60.5z"/>
		</g>
	</g>
	<g>
		<g>
			<path class="st0" d="M26.501,60.5c-0.276,0-0.5-0.224-0.5-0.5v-3c0-0.276,0.224-0.5,0.5-0.5s0.5,0.224,0.5,0.5v3
				C27.001,60.277,26.777,60.5,26.501,60.5z"/>
		</g>
	</g>
	<g>
		<g>
			<path class="st0" d="M37.501,60.5c-0.276,0-0.5-0.224-0.5-0.5v-3c0-0.276,0.224-0.5,0.5-0.5s0.5,0.224,0.5,0.5v3
				C38.001,60.277,37.777,60.5,37.501,60.5z"/>
		</g>
	</g>
	<g>
		<g>
			<path class="st0" d="M37.751,4.5h-1c-0.276,0-0.5-0.224-0.5-0.5s0.224-0.5,0.5-0.5h1c0.276,0,0.5,0.224,0.5,0.5
				S38.027,4.5,37.751,4.5z"/>
		</g>
	</g>
	<g>
		<g>
			<path class="st0" d="M50.251,4.5h-10.5c-0.276,0-0.5-0.224-0.5-0.5s0.224-0.5,0.5-0.5h10.5c0.276,0,0.5,0.224,0.5,0.5
				S50.527,4.5,50.251,4.5z"/>
		</g>
	</g>
	<g>
		<g>
			<path class="st0" d="M9.751,17.498h-1c-0.276,0-0.5-0.224-0.5-0.5s0.224-0.5,0.5-0.5h1c0.276,0,0.5,0.224,0.5,0.5
				S10.027,17.498,9.751,17.498z"/>
		</g>
	</g>
	<g>
		<g>
			<path class="st0" d="M22.251,17.498h-10.5c-0.276,0-0.5-0.224-0.5-0.5s0.224-0.5,0.5-0.5h10.5c0.276,0,0.5,0.224,0.5,0.5
				S22.527,17.498,22.251,17.498z"/>
		</g>
	</g>
</g>
</svg>
