<?xml version="1.0" encoding="utf-8"?>
<!-- Generator: Adobe Illustrator 22.0.0, SVG Export Plug-In . SVG Version: 6.00 Build 0)  -->
<svg version="1.1" id="Layer_1" xmlns="http://www.w3.org/2000/svg" xmlns:xlink="http://www.w3.org/1999/xlink" x="0px" y="0px"
	 viewBox="0 0 64 64" style="enable-background:new 0 0 64 64;" xml:space="preserve">
<style type="text/css">
	.st0{fill:#263238;}
	.st1{fill:#FFD740;}
	.st2{fill:#40C4FF;}
	.st3{fill:#FF5252;}
	.st4{fill:#4FC3F7;}
	.st5{fill:#FFFFFF;}
	.st6{fill:#4DB6AC;}
	.st7{fill:#FFCA28;}
	.st8{fill:#37474F;}
</style>
<g>
	<g>
		<g>
			<path class="st0" d="M19.646,44.818c-0.045,0-0.09-0.006-0.135-0.019C11.556,42.573,6,35.254,6,27C6,16.799,14.299,8.5,24.5,8.5
				c8.254,0,15.574,5.556,17.8,13.511c0.075,0.266-0.081,0.542-0.347,0.616c-0.262,0.076-0.542-0.08-0.616-0.347
				C39.231,14.756,32.308,9.5,24.5,9.5C14.851,9.5,7,17.351,7,27c0,7.808,5.255,14.731,12.78,16.837
				c0.266,0.074,0.421,0.351,0.347,0.616C20.065,44.674,19.864,44.818,19.646,44.818z"/>
		</g>
	</g>
	<g>
		<g>
			<path class="st0" d="M19.543,41.645c-0.055,0-0.111-0.009-0.166-0.028C13.17,39.44,9,33.566,9,27c0-8.547,6.953-15.5,15.5-15.5
				c6.566,0,12.439,4.17,14.616,10.378c0.091,0.26-0.045,0.546-0.306,0.637c-0.26,0.095-0.545-0.046-0.637-0.307
				C36.136,16.401,30.642,12.5,24.5,12.5C16.505,12.5,10,19.005,10,27c0,6.143,3.902,11.637,9.709,13.673
				c0.26,0.091,0.397,0.377,0.306,0.637C19.943,41.516,19.75,41.645,19.543,41.645z"/>
		</g>
	</g>
	<g>
		<g>
			<circle class="st1" cx="39.5" cy="42" r="18"/>
		</g>
		<g>
			<path class="st0" d="M39.5,60.5C29.299,60.5,21,52.201,21,42s8.299-18.5,18.5-18.5S58,31.799,58,42S49.701,60.5,39.5,60.5z
				 M39.5,24.5C29.851,24.5,22,32.351,22,42s7.851,17.5,17.5,17.5S57,51.649,57,42S49.149,24.5,39.5,24.5z"/>
		</g>
	</g>
	<g>
		<g>
			<path class="st0" d="M39.5,57.5C30.953,57.5,24,50.547,24,42s6.953-15.5,15.5-15.5S55,33.453,55,42S48.047,57.5,39.5,57.5z
				 M39.5,27.5C31.505,27.5,25,34.005,25,42s6.505,14.5,14.5,14.5S54,49.995,54,42S47.495,27.5,39.5,27.5z"/>
		</g>
	</g>
	<g>
		<g>
			<path class="st0" d="M45.75,39.35h-13c-0.276,0-0.5-0.224-0.5-0.5c0-2.481,2.019-4.5,4.5-4.5h6.325l2.363-1.891
				c0.15-0.12,0.356-0.144,0.529-0.06c0.173,0.083,0.283,0.258,0.283,0.45v6C46.25,39.126,46.026,39.35,45.75,39.35z M33.286,38.35
				H45.25v-4.46l-1.688,1.351c-0.089,0.07-0.199,0.109-0.312,0.109h-6.5C34.99,35.35,33.529,36.655,33.286,38.35z"/>
		</g>
	</g>
	<g>
		<g>
			<path class="st0" d="M40.876,48.35h-2c-0.276,0-0.5-0.224-0.5-0.5s0.224-0.5,0.5-0.5h2c0.276,0,0.5,0.224,0.5,0.5
				S41.152,48.35,40.876,48.35z"/>
		</g>
	</g>
	<g>
		<g>
			<path class="st0" d="M36.25,48.35c-1.103,0-2-0.897-2-2s0.897-2,2-2s2,0.897,2,2S37.353,48.35,36.25,48.35z M36.25,45.35
				c-0.551,0-1,0.448-1,1s0.449,1,1,1s1-0.448,1-1S36.801,45.35,36.25,45.35z"/>
		</g>
	</g>
	<g>
		<g>
			<path class="st0" d="M36.25,48.35h-3.5c-1.103,0-2-0.897-2-2s0.897-2,2-2h3.5c0.276,0,0.5,0.224,0.5,0.5s-0.224,0.5-0.5,0.5
				c-0.551,0-1,0.448-1,1s0.449,1,1,1c0.276,0,0.5,0.224,0.5,0.5S36.526,48.35,36.25,48.35z M32.75,45.35c-0.551,0-1,0.448-1,1
				s0.449,1,1,1h1.769c-0.171-0.294-0.269-0.636-0.269-1s0.098-0.706,0.269-1H32.75z"/>
		</g>
	</g>
	<g>
		<g>
			<path class="st0" d="M40.876,51.65h-5c-0.276,0-0.5-0.224-0.5-0.5V47.85c0-0.276,0.224-0.5,0.5-0.5s0.5,0.224,0.5,0.5v2.801h4
				V47.85c0-0.276,0.224-0.5,0.5-0.5h2.874c0.276,0,0.5-0.225,0.5-0.5v-2.5c0-0.276,0.224-0.5,0.5-0.5h1.066l-1.482-2.223
				c-0.055-0.082-0.084-0.179-0.084-0.277v-2h-9.5c-0.276,0-0.5-0.224-0.5-0.5s0.224-0.5,0.5-0.5h10c0.276,0,0.5,0.224,0.5,0.5
				v2.349l1.916,2.874c0.102,0.153,0.112,0.351,0.025,0.514c-0.087,0.162-0.256,0.264-0.441,0.264h-1.5v2c0,0.827-0.673,1.5-1.5,1.5
				h-2.374v2.801C41.376,51.427,41.152,51.65,40.876,51.65z"/>
		</g>
	</g>
	<g>
		<g>
			<path class="st0" d="M37.75,46.85c-0.276,0-0.5-0.224-0.5-0.5c0-0.552-0.449-1-1-1h-3.5c-0.276,0-0.5-0.224-0.5-0.5v-6
				c0-0.276,0.224-0.5,0.5-0.5h5c0.276,0,0.5,0.224,0.5,0.5v7.5C38.25,46.626,38.026,46.85,37.75,46.85z M33.25,44.35h3
				c0.364,0,0.706,0.098,1,0.269V39.35h-4V44.35z"/>
		</g>
	</g>
	<g>
		<g>
			<path class="st0" d="M22.5,32h-4c-0.276,0-0.5-0.224-0.5-0.5v-7c0-0.276,0.224-0.5,0.5-0.5h4c0.276,0,0.5,0.224,0.5,0.5v7
				C23,31.776,22.776,32,22.5,32z M19,31h3v-6h-3V31z"/>
		</g>
	</g>
	<g>
		<g>
			<path class="st0" d="M26.5,27.302c-0.276,0-0.5-0.224-0.5-0.5V24.5c0-0.276,0.224-0.5,0.5-0.5s0.5,0.224,0.5,0.5v2.302
				C27,27.078,26.776,27.302,26.5,27.302z"/>
		</g>
	</g>
	<g>
		<g>
			<path class="st0" d="M20.955,35H17.5c-0.276,0-0.5-0.224-0.5-0.5v-3c0-0.276,0.224-0.5,0.5-0.5h5c0.276,0,0.5,0.224,0.5,0.5
				S22.776,32,22.5,32H18v2h2.955c0.276,0,0.5,0.224,0.5,0.5S21.231,35,20.955,35z"/>
		</g>
	</g>
	<g>
		<g>
			<path class="st0" d="M29.811,25H17.5c-0.276,0-0.5-0.224-0.5-0.5v-3c0-0.161,0.078-0.313,0.209-0.407l7-5
				c0.174-0.123,0.407-0.123,0.581,0l7,5C31.922,21.187,32,21.339,32,21.5v2.165c0,0.276-0.224,0.5-0.5,0.5s-0.5-0.224-0.5-0.5
				v-1.908l-6.5-4.643L18,21.757V24h11.811c0.276,0,0.5,0.224,0.5,0.5S30.087,25,29.811,25z"/>
		</g>
	</g>
	<g>
		<g>
			<path class="st0" d="M6,52H4c-0.276,0-0.5-0.224-0.5-0.5S3.724,51,4,51h2c0.276,0,0.5,0.224,0.5,0.5S6.276,52,6,52z"/>
		</g>
	</g>
	<g>
		<g>
			<path class="st0" d="M19.5,52H8c-0.276,0-0.5-0.224-0.5-0.5S7.724,51,8,51h11.5c0.276,0,0.5,0.224,0.5,0.5S19.776,52,19.5,52z"/>
		</g>
	</g>
	<g>
		<g>
			<path class="st0" d="M60,18h-2c-0.276,0-0.5-0.224-0.5-0.5S57.724,17,58,17h2c0.276,0,0.5,0.224,0.5,0.5S60.276,18,60,18z"/>
		</g>
	</g>
	<g>
		<g>
			<path class="st0" d="M56,18H44.5c-0.276,0-0.5-0.224-0.5-0.5s0.224-0.5,0.5-0.5H56c0.276,0,0.5,0.224,0.5,0.5S56.276,18,56,18z"
				/>
		</g>
	</g>
	<g>
		<g>
			<path class="st0" d="M41.75,12.5L41.75,12.5c-0.215,0-0.406-0.138-0.474-0.342L40.723,10.5c-0.23-0.692-0.781-1.242-1.472-1.473
				l-1.659-0.553C37.388,8.406,37.25,8.215,37.25,8s0.138-0.406,0.342-0.475l1.659-0.553c0.692-0.23,1.242-0.781,1.472-1.473
				l0.553-1.658c0.136-0.408,0.812-0.408,0.948,0L42.777,5.5c0.23,0.691,0.781,1.242,1.473,1.473l1.658,0.553
				C46.112,7.594,46.25,7.785,46.25,8s-0.138,0.406-0.342,0.475L44.25,9.027c-0.692,0.23-1.242,0.78-1.472,1.473l-0.554,1.658
				C42.156,12.362,41.965,12.5,41.75,12.5z M39.332,8l0.235,0.078c0.988,0.329,1.775,1.116,2.105,2.105l0.078,0.236l0.079-0.236
				c0.329-0.989,1.116-1.776,2.105-2.105L44.169,8l-0.235-0.078c-0.989-0.331-1.776-1.118-2.105-2.105L41.75,5.58l-0.079,0.236
				c-0.329,0.987-1.115,1.774-2.104,2.105L39.332,8z"/>
		</g>
	</g>
</g>
</svg>
