<?xml version="1.0" encoding="utf-8"?>
<!-- Generator: Adobe Illustrator 22.0.0, SVG Export Plug-In . SVG Version: 6.00 Build 0)  -->
<svg version="1.1" id="Layer_1" xmlns="http://www.w3.org/2000/svg" xmlns:xlink="http://www.w3.org/1999/xlink" x="0px" y="0px"
	 viewBox="0 0 64 64" style="enable-background:new 0 0 64 64;" xml:space="preserve">
<style type="text/css">
	.st0{fill:#263238;}
	.st1{fill:#FFD740;}
	.st2{fill:#40C4FF;}
	.st3{fill:#FF5252;}
	.st4{fill:#4FC3F7;}
	.st5{fill:#FFFFFF;}
	.st6{fill:#4DB6AC;}
	.st7{fill:#FFCA28;}
	.st8{fill:#37474F;}
</style>
<g>
	<g>
		<g>
			<path class="st0" d="M14,55.25H5.5c-0.276,0-0.5-0.224-0.5-0.5s0.224-0.5,0.5-0.5H14c0.276,0,0.5,0.224,0.5,0.5
				S14.276,55.25,14,55.25z"/>
		</g>
	</g>
	<g>
		<g>
			<path class="st0" d="M3.5,55.25h-2c-0.276,0-0.5-0.224-0.5-0.5s0.224-0.5,0.5-0.5h2c0.276,0,0.5,0.224,0.5,0.5
				S3.776,55.25,3.5,55.25z"/>
		</g>
	</g>
	<g>
		<g>
			<path class="st0" d="M58.5,9.75H50c-0.276,0-0.5-0.224-0.5-0.5s0.224-0.5,0.5-0.5h8.5c0.276,0,0.5,0.224,0.5,0.5
				S58.776,9.75,58.5,9.75z"/>
		</g>
	</g>
	<g>
		<g>
			<path class="st0" d="M62.5,9.75h-2c-0.276,0-0.5-0.224-0.5-0.5s0.224-0.5,0.5-0.5h2c0.276,0,0.5,0.224,0.5,0.5
				S62.776,9.75,62.5,9.75z"/>
		</g>
	</g>
	<g>
		<g>
			<path class="st0" d="M18.001,58.25c-0.276,0-0.5-0.224-0.5-0.5v-42c0-1.654,1.346-3,3-3h33c1.654,0,3,1.346,3,3v39
				c0,0.276-0.224,0.5-0.5,0.5h-35.5c-1.103,0-2,0.897-2,2v0.5C18.501,58.026,18.277,58.25,18.001,58.25z M20.501,13.75
				c-1.103,0-2,0.897-2,2v39.266c0.531-0.476,1.232-0.766,2-0.766h35v-38.5c0-1.103-0.897-2-2-2H20.501z"/>
		</g>
	</g>
	<g>
		<g>
			<path class="st0" d="M16.001,48.25H12c-0.276,0-0.5-0.224-0.5-0.5s0.224-0.5,0.5-0.5h4.001c0.276,0,0.5,0.224,0.5,0.5
				S16.277,48.25,16.001,48.25z"/>
		</g>
	</g>
	<g>
		<g>
			<path class="st0" d="M53.001,21.75c-0.276,0-0.5-0.224-0.5-0.5v-4c0-0.275-0.225-0.5-0.5-0.5h-4c-0.276,0-0.5-0.224-0.5-0.5
				s0.224-0.5,0.5-0.5h4c0.827,0,1.5,0.673,1.5,1.5v4C53.501,21.526,53.277,21.75,53.001,21.75z"/>
		</g>
	</g>
	<g>
		<g>
			<path class="st0" d="M37,46c-5.79,0-10.5-4.71-10.5-10.5S31.21,25,37,25s10.5,4.71,10.5,10.5S42.79,46,37,46z M37,26
				c-5.238,0-9.5,4.262-9.5,9.5S31.762,45,37,45s9.5-4.262,9.5-9.5S42.238,26,37,26z"/>
		</g>
	</g>
	<g>
		<g>
			<polygon class="st1" points="31,39 36,32 31,32 45,22 38.5,32 43,32 38,39 43,39 29,49 35.5,39 			"/>
		</g>
		<g>
			<path class="st0" d="M29,49.5c-0.125,0-0.25-0.047-0.346-0.139c-0.174-0.166-0.204-0.433-0.073-0.634l5.998-9.228H31
				c-0.188,0-0.358-0.104-0.444-0.271c-0.086-0.166-0.071-0.367,0.037-0.52l4.436-6.209H31c-0.218,0-0.41-0.141-0.477-0.348
				c-0.065-0.207,0.009-0.433,0.186-0.56l14-10c0.196-0.14,0.464-0.12,0.637,0.046c0.174,0.166,0.204,0.433,0.073,0.634L39.421,31.5
				H43c0.188,0,0.358,0.104,0.444,0.271c0.086,0.166,0.071,0.367-0.037,0.52L38.972,38.5H43c0.218,0,0.41,0.141,0.477,0.348
				c0.065,0.207-0.009,0.433-0.186,0.56l-14,10C29.203,49.47,29.102,49.5,29,49.5z M31.972,38.5H35.5
				c0.184,0,0.352,0.101,0.439,0.262s0.08,0.357-0.021,0.511l-5.061,7.785L41.439,39.5H38c-0.188,0-0.358-0.104-0.444-0.271
				c-0.086-0.166-0.071-0.367,0.037-0.52l4.436-6.209H38.5c-0.184,0-0.352-0.101-0.439-0.262s-0.08-0.357,0.021-0.511l5.061-7.785
				L32.561,31.5H36c0.188,0,0.358,0.104,0.444,0.271c0.086,0.166,0.071,0.367-0.037,0.52L31.972,38.5z"/>
		</g>
	</g>
	<g>
		<g>
			<path class="st0" d="M16.001,51.25h-5.5c-1.654,0-3-1.346-3-3v-0.5c0-0.276,0.224-0.5,0.5-0.5s0.5,0.224,0.5,0.5v0.5
				c0,1.103,0.897,2,2,2h5.5c0.276,0,0.5,0.224,0.5,0.5S16.277,51.25,16.001,51.25z"/>
		</g>
	</g>
	<g>
		<g>
			<path class="st0" d="M8,47.75c-0.276,0-0.5-0.224-0.5-0.5V5.75c0-1.654,1.346-3,3-3h33c1.654,0,3,1.346,3,3v5.5
				c0,0.276-0.224,0.5-0.5,0.5s-0.5-0.224-0.5-0.5v-5.5c0-1.103-0.897-2-2-2h-33c-1.103,0-2,0.897-2,2v39.266
				c0.531-0.476,1.232-0.766,2-0.766H16c0.276,0,0.5,0.224,0.5,0.5s-0.224,0.5-0.5,0.5h-5.5c-1.103,0-2,0.897-2,2
				C8.5,47.526,8.276,47.75,8,47.75z"/>
		</g>
	</g>
	<g>
		<g>
			<path class="st0" d="M52,58.25H22c-0.276,0-0.5-0.224-0.5-0.5s0.224-0.5,0.5-0.5h30c0.276,0,0.5,0.224,0.5,0.5
				S52.276,58.25,52,58.25z"/>
		</g>
	</g>
	<g>
		<g>
			<path class="st0" d="M53.501,61.25h-33c-1.654,0-3-1.346-3-3v-0.5c0-0.276,0.224-0.5,0.5-0.5s0.5,0.224,0.5,0.5v0.5
				c0,1.103,0.897,2,2,2h33c1.103,0,2-0.897,2-2v-0.5c0-0.276,0.224-0.5,0.5-0.5s0.5,0.224,0.5,0.5v0.5
				C56.501,59.904,55.155,61.25,53.501,61.25z"/>
		</g>
	</g>
</g>
</svg>
