<?xml version="1.0" encoding="utf-8"?>
<!-- Generator: Adobe Illustrator 22.0.0, SVG Export Plug-In . SVG Version: 6.00 Build 0)  -->
<svg version="1.1" id="Layer_1" xmlns="http://www.w3.org/2000/svg" xmlns:xlink="http://www.w3.org/1999/xlink" x="0px" y="0px"
	 viewBox="0 0 64 64" style="enable-background:new 0 0 64 64;" xml:space="preserve">
<style type="text/css">
	.st0{fill:#263238;}
	.st1{fill:#FFD740;}
	.st2{fill:#40C4FF;}
	.st3{fill:#FF5252;}
	.st4{fill:#4FC3F7;}
	.st5{fill:#FFFFFF;}
	.st6{fill:#4DB6AC;}
	.st7{fill:#FFCA28;}
	.st8{fill:#37474F;}
</style>
<g>
	<g>
		<g>
			<path class="st1" d="M2,44c0,8.284,6.716,15,15,15h30c8.284,0,15-6.716,15-15H2z"/>
		</g>
	</g>
	<g>
		<g>
			<path class="st6" d="M27,16.5c0,5.523,5,10,5,10s5-4.477,5-10s-5-10-5-10S27,10.977,27,16.5z"/>
		</g>
		<g>
			<path class="st0" d="M32,27c-0.119,0-0.238-0.042-0.334-0.127C31.455,26.684,26.5,22.181,26.5,16.5s4.955-10.184,5.166-10.373
				c0.191-0.17,0.477-0.17,0.668,0C32.545,6.316,37.5,10.819,37.5,16.5s-4.955,10.184-5.166,10.373C32.238,26.958,32.119,27,32,27z
				 M32,7.195c-1.094,1.103-4.5,4.893-4.5,9.305c0,4.419,3.405,8.203,4.5,9.305c1.094-1.103,4.5-4.893,4.5-9.305
				C36.5,12.081,33.095,8.297,32,7.195z"/>
		</g>
	</g>
	<g>
		<g>
			<path class="st6" d="M18.339,30.571c4.783,2.761,11.16,0.67,11.16,0.67s-1.377-6.569-6.16-9.33s-11.16-0.67-11.16-0.67
				S13.557,27.81,18.339,30.571z"/>
		</g>
		<g>
			<path class="st0" d="M24.309,32.508c-1.975,0-4.217-0.348-6.219-1.503l0,0c-4.92-2.841-6.343-9.383-6.4-9.661
				c-0.053-0.25,0.091-0.498,0.333-0.578c0.27-0.088,6.647-2.129,11.567,0.712c4.919,2.84,6.342,9.383,6.399,9.661
				c0.053,0.25-0.091,0.498-0.333,0.578C29.496,31.769,27.188,32.507,24.309,32.508z M12.781,21.589
				c0.408,1.499,1.988,6.343,5.809,8.549c3.819,2.206,8.805,1.151,10.308,0.755c-0.409-1.499-1.988-6.344-5.808-8.549
				C19.261,20.134,14.281,21.191,12.781,21.589z"/>
		</g>
	</g>
	<g>
		<g>
			<line class="st6" x1="32" y1="16.5" x2="32" y2="39"/>
		</g>
		<g>
			<path class="st0" d="M32,39.5c-0.276,0-0.5-0.224-0.5-0.5V16.5c0-0.276,0.224-0.5,0.5-0.5s0.5,0.224,0.5,0.5V39
				C32.5,39.276,32.276,39.5,32,39.5z"/>
		</g>
	</g>
	<g>
		<g>
			<path class="st4" d="M55,7c0-1.105-0.895-2-2-2s-2,0.895-2,2c-1.105,0-2,0.895-2,2s0.895,2,2,2h4c1.105,0,2-0.895,2-2
				S56.105,7,55,7z"/>
		</g>
	</g>
	<g>
		<g>
			<path class="st1" d="M23.5,49l6.682-7.076c0.987-1.045,2.649-1.045,3.635,0L40.5,49"/>
		</g>
		<g>
			<path class="st0" d="M40.5,49.5c-0.133,0-0.266-0.053-0.363-0.157l-6.683-7.076c-0.764-0.808-2.145-0.808-2.908,0l-6.683,7.076
				c-0.188,0.201-0.506,0.21-0.707,0.02c-0.2-0.189-0.209-0.506-0.02-0.707l6.683-7.076c1.145-1.213,3.217-1.213,4.361,0
				l6.683,7.076c0.189,0.201,0.181,0.517-0.02,0.707C40.747,49.455,40.623,49.5,40.5,49.5z"/>
		</g>
	</g>
	<g>
		<g>
			<path class="st6" d="M45.66,30.571c-4.783,2.761-11.16,0.67-11.16,0.67s1.377-6.569,6.16-9.33s11.16-0.67,11.16-0.67
				S50.443,27.81,45.66,30.571z"/>
		</g>
		<g>
			<path class="st0" d="M39.69,32.508c-2.878,0-5.187-0.739-5.347-0.792c-0.242-0.08-0.386-0.328-0.333-0.578
				c0.058-0.277,1.479-6.82,6.399-9.661c4.924-2.841,11.297-0.8,11.566-0.712c0.242,0.08,0.386,0.328,0.333,0.578
				c-0.058,0.277-1.479,6.82-6.399,9.661l0,0C43.908,32.16,41.665,32.508,39.69,32.508z M35.103,30.893
				c1.501,0.396,6.486,1.452,10.308-0.755c3.827-2.21,5.401-7.05,5.808-8.549c-1.501-0.396-6.485-1.452-10.308,0.755
				C37.083,24.554,35.509,29.395,35.103,30.893z M45.66,30.571h0.01H45.66z"/>
		</g>
	</g>
	<g>
		<g>
			<path class="st0" d="M32,32.956c-0.084,0-0.168-0.021-0.243-0.063l-11.16-6.214c-0.241-0.134-0.328-0.439-0.193-0.68
				c0.134-0.243,0.439-0.326,0.68-0.194L32,31.883l10.917-6.079c0.239-0.131,0.546-0.049,0.68,0.194
				c0.135,0.241,0.048,0.546-0.193,0.68l-11.16,6.214C32.168,32.935,32.084,32.956,32,32.956z"/>
		</g>
	</g>
	<g>
		<g>
			<path class="st0" d="M16,7.5h-4c-0.276,0-0.5-0.224-0.5-0.5s0.224-0.5,0.5-0.5h4c0.276,0,0.5,0.224,0.5,0.5S16.276,7.5,16,7.5z"
				/>
		</g>
	</g>
	<g>
		<g>
			<path class="st0" d="M14,9.5c-0.276,0-0.5-0.224-0.5-0.5V5c0-0.276,0.224-0.5,0.5-0.5s0.5,0.224,0.5,0.5v4
				C14.5,9.276,14.276,9.5,14,9.5z"/>
		</g>
	</g>
	<g>
		<g>
			<path class="st0" d="M21,13h-4c-0.276,0-0.5-0.224-0.5-0.5S16.724,12,17,12h4c0.276,0,0.5,0.224,0.5,0.5S21.276,13,21,13z"/>
		</g>
	</g>
	<g>
		<g>
			<path class="st0" d="M19,15c-0.276,0-0.5-0.224-0.5-0.5v-4c0-0.276,0.224-0.5,0.5-0.5s0.5,0.224,0.5,0.5v4
				C19.5,14.776,19.276,15,19,15z"/>
		</g>
	</g>
	<g>
		<g>
			<path class="st0" d="M54,39.5h-9c-0.276,0-0.5-0.224-0.5-0.5s0.224-0.5,0.5-0.5h9c0.276,0,0.5,0.224,0.5,0.5S54.276,39.5,54,39.5
				z"/>
		</g>
	</g>
	<g>
		<g>
			<path class="st0" d="M58,39.5h-2c-0.276,0-0.5-0.224-0.5-0.5s0.224-0.5,0.5-0.5h2c0.276,0,0.5,0.224,0.5,0.5S58.276,39.5,58,39.5
				z"/>
		</g>
	</g>
	<g>
		<g>
			<path class="st0" d="M8,39.5H6c-0.276,0-0.5-0.224-0.5-0.5s0.224-0.5,0.5-0.5h2c0.276,0,0.5,0.224,0.5,0.5S8.276,39.5,8,39.5z"/>
		</g>
	</g>
	<g>
		<g>
			<path class="st0" d="M19,39.5h-9c-0.276,0-0.5-0.224-0.5-0.5s0.224-0.5,0.5-0.5h9c0.276,0,0.5,0.224,0.5,0.5S19.276,39.5,19,39.5
				z"/>
		</g>
	</g>
	<g>
		<g>
			<path class="st0" d="M25.472,44.5H2c-0.276,0-0.5-0.224-0.5-0.5s0.224-0.5,0.5-0.5h23.472c0.276,0,0.5,0.224,0.5,0.5
				S25.748,44.5,25.472,44.5z"/>
		</g>
	</g>
	<g>
		<g>
			<path class="st0" d="M62,44.5H38.528c-0.276,0-0.5-0.224-0.5-0.5s0.224-0.5,0.5-0.5H62c0.276,0,0.5,0.224,0.5,0.5
				S62.276,44.5,62,44.5z"/>
		</g>
	</g>
</g>
</svg>
