<?xml version="1.0" encoding="utf-8"?>
<!-- Generator: Adobe Illustrator 22.0.0, SVG Export Plug-In . SVG Version: 6.00 Build 0)  -->
<svg version="1.1" id="Layer_1" xmlns="http://www.w3.org/2000/svg" xmlns:xlink="http://www.w3.org/1999/xlink" x="0px" y="0px"
	 viewBox="0 0 64 64" style="enable-background:new 0 0 64 64;" xml:space="preserve">
<style type="text/css">
	.st0{fill:#263238;}
	.st1{fill:#FFD740;}
	.st2{fill:#40C4FF;}
	.st3{fill:#FF5252;}
	.st4{fill:#4FC3F7;}
	.st5{fill:#FFFFFF;}
	.st6{fill:#4DB6AC;}
	.st7{fill:#FFCA28;}
	.st8{fill:#37474F;}
</style>
<g>
	<g>
		<g>
			<path class="st0" d="M59,62.5c-0.276,0-0.5-0.224-0.5-0.5v-8c0-1.103-0.897-2-2-2h-49c-1.103,0-2,0.897-2,2v8
				c0,0.276-0.224,0.5-0.5,0.5S4.5,62.277,4.5,62v-8c0-1.654,1.346-3,3-3h49c1.654,0,3,1.346,3,3v8C59.5,62.277,59.276,62.5,59,62.5
				z"/>
		</g>
	</g>
	<g>
		<g>
			<path class="st0" d="M53,60c-1.379,0-2.5-1.122-2.5-2.5S51.621,55,53,55s2.5,1.122,2.5,2.5S54.379,60,53,60z M53,56
				c-0.827,0-1.5,0.673-1.5,1.5S52.173,59,53,59s1.5-0.673,1.5-1.5S53.827,56,53,56z"/>
		</g>
	</g>
	<g>
		<g>
			<path class="st0" d="M46,60c-1.379,0-2.5-1.122-2.5-2.5S44.621,55,46,55s2.5,1.122,2.5,2.5S47.379,60,46,60z M46,56
				c-0.827,0-1.5,0.673-1.5,1.5S45.173,59,46,59s1.5-0.673,1.5-1.5S46.827,56,46,56z"/>
		</g>
	</g>
	<g>
		<g>
			<rect x="26.443" y="55.5" class="st2" width="11.113" height="3.811"/>
		</g>
		<g>
			<path class="st0" d="M37.557,59.812H26.443c-0.276,0-0.5-0.224-0.5-0.5V55.5c0-0.276,0.224-0.5,0.5-0.5h11.113
				c0.276,0,0.5,0.224,0.5,0.5v3.811C38.057,59.588,37.833,59.812,37.557,59.812z M26.943,58.812h10.113V56H26.943V58.812z"/>
		</g>
	</g>
	<g>
		<g>
			<path class="st0" d="M25.655,20c-0.067,0-0.136-0.014-0.201-0.042c-0.253-0.111-0.367-0.406-0.257-0.659l1.29-2.943
				c0.672-1.531,0.443-3.295-0.596-4.604l-1.228-1.546c-1.289-1.625-1.558-3.807-0.699-5.696L25.2,1.793
				c0.115-0.251,0.412-0.362,0.662-0.248c0.251,0.114,0.362,0.411,0.248,0.662l-1.235,2.717c-0.702,1.545-0.482,3.331,0.572,4.66
				l1.228,1.546c1.271,1.601,1.549,3.757,0.729,5.628l-1.29,2.943C26.031,19.889,25.848,20,25.655,20z"/>
		</g>
	</g>
	<g>
		<g>
			<path class="st0" d="M20.655,20c-0.062,0-0.126-0.012-0.188-0.037c-0.256-0.104-0.38-0.395-0.276-0.651l0.99-2.443
				c0.256-0.63,0.176-1.339-0.213-1.896l-1.429-2.048c-0.598-0.854-0.709-1.938-0.298-2.898l0.953-2.224
				c0.109-0.255,0.403-0.373,0.657-0.263c0.254,0.109,0.371,0.403,0.263,0.656l-0.953,2.224c-0.274,0.64-0.2,1.362,0.198,1.932
				l1.429,2.049c0.583,0.835,0.702,1.898,0.32,2.843l-0.99,2.444C21.04,19.883,20.853,20,20.655,20z"/>
		</g>
	</g>
	<g>
		<g>
			<path class="st0" d="M15.5,30h-6C8.121,30,7,28.879,7,27.5S8.121,25,9.5,25h6c0.276,0,0.5,0.224,0.5,0.5v4
				C16,29.777,15.776,30,15.5,30z M9.5,26C8.673,26,8,26.673,8,27.5S8.673,29,9.5,29H15v-3H9.5z"/>
		</g>
	</g>
	<g>
		<g>
			<path class="st0" d="M54.5,30h-6c-0.276,0-0.5-0.224-0.5-0.5v-4c0-0.276,0.224-0.5,0.5-0.5h6c1.379,0,2.5,1.122,2.5,2.5
				S55.879,30,54.5,30z M49,29h5.5c0.827,0,1.5-0.673,1.5-1.5S55.327,26,54.5,26H49V29z"/>
		</g>
	</g>
	<g>
		<g>
			<path class="st0" d="M46.087,50c-0.135,0-0.269-0.054-0.367-0.16c-0.188-0.203-0.175-0.519,0.027-0.707
				C47.2,47.789,48,45.966,48,44V26H16v18c0,1.966,0.8,3.789,2.253,5.133c0.202,0.188,0.215,0.504,0.027,0.707
				c-0.188,0.203-0.504,0.214-0.707,0.027C15.938,48.354,15,46.215,15,44V25.5c0-0.276,0.224-0.5,0.5-0.5h33
				c0.276,0,0.5,0.224,0.5,0.5V44c0,2.215-0.938,4.354-2.573,5.867C46.33,49.957,46.209,50,46.087,50z"/>
		</g>
	</g>
	<g>
		<g>
			<path class="st1" d="M43.784,23.5l7.417-6.887c1.038-0.964,1.069-2.598,0.067-3.6l-1.281-1.281
				c-1.002-1.002-2.636-0.972-3.6,0.067L35.522,23.5 M48.506,16.616c-0.586,0.586-1.536,0.586-2.121,0
				c-0.586-0.586-0.586-1.535,0-2.121c0.586-0.586,1.536-0.586,2.121,0C49.092,15.08,49.092,16.03,48.506,16.616z"/>
		</g>
		<g>
			<path class="st0" d="M43.784,24c-0.134,0-0.268-0.054-0.366-0.16c-0.188-0.203-0.177-0.519,0.026-0.707l7.417-6.887
				c0.401-0.374,0.628-0.881,0.638-1.429c0.011-0.548-0.197-1.063-0.585-1.451l-1.28-1.281c-0.388-0.388-0.907-0.578-1.451-0.585
				c-0.549,0.01-1.056,0.237-1.43,0.639L35.888,23.841c-0.188,0.203-0.505,0.213-0.706,0.026c-0.203-0.188-0.215-0.504-0.026-0.707
				l10.865-11.701c0.56-0.603,1.321-0.943,2.144-0.958c0.827-0.021,1.595,0.296,2.177,0.878l1.28,1.281
				c0.581,0.582,0.894,1.354,0.878,2.177c-0.015,0.822-0.355,1.583-0.958,2.143l-7.417,6.887C44.028,23.956,43.906,24,43.784,24z
				 M47.445,17.554c-0.512,0-1.024-0.195-1.414-0.584c-0.78-0.78-0.78-2.049,0-2.829c0.779-0.779,2.049-0.779,2.828,0
				c0.78,0.78,0.78,2.049,0,2.829l0,0C48.47,17.359,47.957,17.554,47.445,17.554z M48.506,16.616h0.01H48.506z M47.445,14.556
				c-0.256,0-0.512,0.097-0.707,0.292c-0.39,0.39-0.39,1.024,0,1.415c0.391,0.39,1.023,0.39,1.414,0l0,0
				c0.39-0.39,0.39-1.024,0-1.415C47.957,14.653,47.701,14.556,47.445,14.556z"/>
		</g>
	</g>
	<g>
		<g>
			<path class="st0" d="M11.5,39H4c-0.276,0-0.5-0.224-0.5-0.5S3.724,38,4,38h7.5c0.276,0,0.5,0.224,0.5,0.5S11.776,39,11.5,39z"/>
		</g>
	</g>
	<g>
		<g>
			<path class="st0" d="M2,39H1c-0.276,0-0.5-0.224-0.5-0.5S0.724,38,1,38h1c0.276,0,0.5,0.224,0.5,0.5S2.276,39,2,39z"/>
		</g>
	</g>
	<g>
		<g>
			<path class="st0" d="M60,39h-7.5c-0.276,0-0.5-0.224-0.5-0.5s0.224-0.5,0.5-0.5H60c0.276,0,0.5,0.224,0.5,0.5S60.276,39,60,39z"
				/>
		</g>
	</g>
	<g>
		<g>
			<path class="st0" d="M63,39h-1c-0.276,0-0.5-0.224-0.5-0.5S61.724,38,62,38h1c0.276,0,0.5,0.224,0.5,0.5S63.276,39,63,39z"/>
		</g>
	</g>
	<g>
		<g>
			<path class="st0" d="M45.5,44.5c-0.276,0-0.5-0.224-0.5-0.5V28.5c0-0.276,0.224-0.5,0.5-0.5s0.5,0.224,0.5,0.5V44
				C46,44.277,45.776,44.5,45.5,44.5z"/>
		</g>
	</g>
</g>
</svg>
