<?xml version="1.0" encoding="utf-8"?>
<!-- Generator: Adobe Illustrator 22.0.0, SVG Export Plug-In . SVG Version: 6.00 Build 0)  -->
<svg version="1.1" id="Layer_1" xmlns="http://www.w3.org/2000/svg" xmlns:xlink="http://www.w3.org/1999/xlink" x="0px" y="0px"
	 viewBox="0 0 64 64" style="enable-background:new 0 0 64 64;" xml:space="preserve">
<style type="text/css">
	.st0{fill:#263238;}
	.st1{fill:#FFD740;}
	.st2{fill:#40C4FF;}
	.st3{fill:#FF5252;}
	.st4{fill:#4FC3F7;}
	.st5{fill:#FFFFFF;}
	.st6{fill:#4DB6AC;}
	.st7{fill:#FFCA28;}
	.st8{fill:#37474F;}
</style>
<g>
	<g>
		<g>
			<path class="st0" d="M32,29.5c-5.244,0-9.746-3.475-11.095-8.502C19.295,20.948,18,19.622,18,18s1.295-2.948,2.905-2.998
				C22.254,9.975,26.756,6.5,32,6.5s9.746,3.475,11.095,8.502C44.705,15.052,46,16.378,46,18s-1.295,2.948-2.905,2.998
				C41.746,26.025,37.244,29.5,32,29.5z M21.221,19.98c0.24,0,0.503,0.149,0.556,0.378C22.878,25.152,27.082,28.5,32,28.5
				s9.122-3.348,10.224-8.142c0.057-0.249,0.282-0.421,0.548-0.384C42.899,19.991,42.949,20,43,20c1.103,0,2-0.897,2-2s-0.897-2-2-2
				c-0.051,0-0.101,0.009-0.149,0.016c-0.255,0.029-0.568-0.121-0.627-0.374C41.122,10.848,36.918,7.5,32,7.5
				s-9.122,3.348-10.224,8.142c-0.057,0.248-0.282,0.421-0.548,0.384C21.099,16.008,21.05,16,21,16c-1.103,0-2,0.897-2,2
				s0.897,2,2,2c0.05,0,0.099-0.008,0.147-0.015C21.171,19.981,21.196,19.98,21.221,19.98z"/>
		</g>
	</g>
	<g>
		<g>
			<path class="st0" d="M32,23.5c-1.469,0-2.851-0.572-3.889-1.611c-0.195-0.195-0.195-0.512,0-0.707s0.512-0.195,0.707,0
				C29.668,22.032,30.798,22.5,32,22.5s2.332-0.468,3.182-1.318c0.195-0.195,0.512-0.195,0.707,0s0.195,0.512,0,0.707
				C34.851,22.928,33.469,23.5,32,23.5z"/>
		</g>
	</g>
	<g>
		<g>
			<path class="st1" d="M36,30l3.422,1.466L45,29.75l-1.452-9.315C43.371,20.475,43.189,20.5,43,20.5
				c-0.099,0-0.193-0.018-0.289-0.029c-0.819,3.562-3.367,6.458-6.711,7.769V30z"/>
		</g>
		<g>
			<path class="st0" d="M39.422,31.967c-0.067,0-0.134-0.014-0.197-0.04l-3.422-1.467C35.619,30.381,35.5,30.2,35.5,30v-1.761
				c0-0.206,0.126-0.391,0.317-0.466c3.236-1.267,5.631-4.038,6.406-7.415c0.057-0.249,0.282-0.421,0.548-0.384
				C42.899,19.991,42.949,20,43,20c0.14,0,0.282-0.017,0.438-0.052c0.133-0.032,0.276-0.004,0.392,0.073
				c0.114,0.078,0.191,0.2,0.213,0.337l1.452,9.314c0.038,0.245-0.109,0.482-0.347,0.555l-5.578,1.717
				C39.521,31.959,39.472,31.967,39.422,31.967z M36.5,29.67l2.95,1.265l4.989-1.535l-1.311-8.402c-0.011,0-0.022,0.001-0.034,0.001
				c-0.916,3.399-3.344,6.191-6.595,7.577V29.67z"/>
		</g>
	</g>
	<g>
		<g>
			<path class="st1" d="M28,30v-1.76c-3.344-1.31-5.892-4.206-6.711-7.769C21.193,20.482,21.099,20.5,21,20.5
				c-0.189,0-0.371-0.025-0.548-0.065L19,29.75l5.578,1.716L28,30z"/>
		</g>
		<g>
			<path class="st0" d="M24.578,31.967c-0.05,0-0.099-0.008-0.147-0.022l-5.578-1.717c-0.237-0.072-0.385-0.309-0.347-0.555
				l1.451-9.314c0.021-0.137,0.099-0.259,0.213-0.336c0.115-0.079,0.256-0.106,0.392-0.074c0.21,0.047,0.4,0.062,0.586,0.037
				c0.259-0.04,0.571,0.121,0.629,0.373c0.775,3.377,3.17,6.148,6.406,7.415c0.191,0.075,0.317,0.26,0.317,0.466V30
				c0,0.2-0.119,0.381-0.303,0.46l-3.422,1.467C24.712,31.953,24.646,31.967,24.578,31.967z M19.561,29.399l4.989,1.535l2.95-1.265
				v-1.095c-3.251-1.386-5.679-4.178-6.595-7.577c-0.012,0-0.023-0.001-0.035-0.001L19.561,29.399z M28,30h0.01H28z"/>
		</g>
	</g>
	<g>
		<g>
			<path class="st1" d="M32,3L32,3c-6.075,0-11,4.925-11,11v4l11-8.5L43,18v-4C43,7.925,38.075,3,32,3z"/>
		</g>
		<g>
			<path class="st0" d="M43,18.5c-0.108,0-0.217-0.035-0.306-0.104L32,10.132l-10.694,8.264c-0.15,0.118-0.354,0.139-0.526,0.054
				C20.608,18.365,20.5,18.19,20.5,18v-4c0-6.341,5.159-11.5,11.5-11.5S43.5,7.659,43.5,14v4c0,0.19-0.108,0.365-0.279,0.449
				C43.15,18.483,43.075,18.5,43,18.5z M32,9c0.107,0,0.216,0.035,0.306,0.104L42.5,16.981V14c0-5.79-4.71-10.5-10.5-10.5
				S21.5,8.21,21.5,14v2.981l10.194-7.877C31.784,9.035,31.893,9,32,9z"/>
		</g>
	</g>
	<g>
		<g>
			<polygon class="st3" points="43,9.5 35.5,9.5 32,12.5 28.5,9.5 21,9.5 21,13 28,13 32,16 36,13 43,13 			"/>
		</g>
		<g>
			<path class="st0" d="M32,16.5c-0.105,0-0.211-0.033-0.3-0.1l-3.867-2.9H21c-0.276,0-0.5-0.224-0.5-0.5V9.5
				C20.5,9.224,20.724,9,21,9h7.5c0.119,0,0.234,0.043,0.325,0.12L32,11.842l3.175-2.722C35.266,9.043,35.381,9,35.5,9H43
				c0.276,0,0.5,0.224,0.5,0.5V13c0,0.276-0.224,0.5-0.5,0.5h-6.833L32.3,16.4C32.211,16.467,32.105,16.5,32,16.5z M21.5,12.5H28
				c0.108,0,0.214,0.035,0.3,0.1l3.7,2.775l3.7-2.775c0.086-0.064,0.191-0.1,0.3-0.1h6.5V10h-6.815l-3.359,2.88
				c-0.188,0.16-0.463,0.16-0.65,0L28.315,10H21.5V12.5z"/>
		</g>
	</g>
	<g>
		<g>
			<path class="st1" d="M34,55.5c0-6.627,5.373-12,12-12s12,5.373,12,12"/>
		</g>
		<g>
			<path class="st0" d="M58,56c-0.276,0-0.5-0.224-0.5-0.5C57.5,49.159,52.341,44,46,44s-11.5,5.159-11.5,11.5
				c0,0.276-0.224,0.5-0.5,0.5s-0.5-0.224-0.5-0.5C33.5,48.607,39.107,43,46,43s12.5,5.607,12.5,12.5C58.5,55.776,58.276,56,58,56z"
				/>
		</g>
	</g>
	<g>
		<g>
			<path class="st3" d="M39,42.5l0.617,0.555c0.954-0.491,1.971-0.871,3.035-1.133L39,39l-7,4l-7-4l-5,4v4l5-4.5l7,4.5L39,42.5z"/>
		</g>
	</g>
	<g>
		<g>
			<path class="st0" d="M20,47.5c-0.069,0-0.138-0.015-0.203-0.043C19.616,47.376,19.5,47.197,19.5,47v-4
				c0-0.152,0.069-0.296,0.188-0.391l5-4c0.16-0.128,0.382-0.146,0.561-0.044L32,42.424l6.752-3.858
				c0.179-0.102,0.401-0.084,0.561,0.044l3.652,2.922c0.216,0.173,0.25,0.487,0.078,0.703s-0.486,0.249-0.703,0.078l-3.387-2.71
				l-6.705,3.832c-0.154,0.088-0.342,0.088-0.496,0l-6.705-3.832L20.5,43.24v2.637l4.165-3.749c0.168-0.151,0.416-0.17,0.605-0.049
				L32,46.405l6.729-4.326c0.189-0.12,0.437-0.103,0.605,0.049l0.616,0.555c0.205,0.186,0.222,0.501,0.037,0.707
				c-0.186,0.206-0.501,0.222-0.707,0.037l-0.332-0.3l-6.679,4.294c-0.164,0.105-0.377,0.105-0.541,0l-6.679-4.294l-4.716,4.245
				C20.241,47.456,20.121,47.5,20,47.5z"/>
		</g>
	</g>
	<g>
		<g>
			<path class="st0" d="M54,56c-0.276,0-0.5-0.224-0.5-0.5c0-4.136-3.364-7.5-7.5-7.5s-7.5,3.364-7.5,7.5c0,0.276-0.224,0.5-0.5,0.5
				s-0.5-0.224-0.5-0.5c0-4.687,3.813-8.5,8.5-8.5s8.5,3.813,8.5,8.5C54.5,55.776,54.276,56,54,56z"/>
		</g>
	</g>
	<g>
		<g>
			<path class="st0" d="M17,51.5h-6c-0.276,0-0.5-0.224-0.5-0.5V32c0-0.091,0.024-0.18,0.071-0.257l3-5
				c0.18-0.303,0.678-0.303,0.857,0l3,5C17.476,31.82,17.5,31.909,17.5,32v19C17.5,51.276,17.276,51.5,17,51.5z M11.5,50.5h5V32.139
				L14,27.972l-2.5,4.167V50.5z"/>
		</g>
	</g>
	<g>
		<g>
			<path class="st0" d="M19,54.5H9c-0.827,0-1.5-0.673-1.5-1.5v-1c0-0.827,0.673-1.5,1.5-1.5h10c0.827,0,1.5,0.673,1.5,1.5v1
				C20.5,53.827,19.827,54.5,19,54.5z M9,51.5c-0.275,0-0.5,0.225-0.5,0.5v1c0,0.275,0.225,0.5,0.5,0.5h10
				c0.275,0,0.5-0.225,0.5-0.5v-1c0-0.275-0.225-0.5-0.5-0.5H9z"/>
		</g>
	</g>
	<g>
		<g>
			<path class="st0" d="M19,34.357c-0.193,0-0.378-0.113-0.46-0.303c-0.108-0.254,0.009-0.548,0.263-0.657L27.5,29.67v-1.431
				c0-0.276,0.224-0.5,0.5-0.5s0.5,0.224,0.5,0.5V30c0,0.2-0.119,0.381-0.303,0.46l-9,3.857C19.133,34.345,19.066,34.357,19,34.357z
				"/>
		</g>
	</g>
	<g>
		<g>
			<path class="st0" d="M50,42.687c-0.276,0-0.5-0.224-0.5-0.5v-1.241c0-2.804-1.665-5.33-4.243-6.434l-9.454-4.052
				C35.619,30.381,35.5,30.2,35.5,30v-1.761c0-0.276,0.224-0.5,0.5-0.5s0.5,0.224,0.5,0.5v1.431l9.151,3.922
				c2.945,1.263,4.849,4.148,4.849,7.354v1.241C50.5,42.463,50.276,42.687,50,42.687z"/>
		</g>
	</g>
	<g>
		<g>
			<path class="st0" d="M14.5,61.5h-1c-0.827,0-1.5-0.673-1.5-1.5v-6c0-0.276,0.224-0.5,0.5-0.5h3c0.276,0,0.5,0.224,0.5,0.5v6
				C16,60.827,15.327,61.5,14.5,61.5z M13,54.5V60c0,0.275,0.225,0.5,0.5,0.5h1c0.275,0,0.5-0.225,0.5-0.5v-5.5H13z"/>
		</g>
	</g>
	<g>
		<g>
			<path class="st0" d="M23,56c-0.276,0-0.5-0.224-0.5-0.5v-3.15c0-1.074-0.385-2.113-1.084-2.929l-1.796-2.096
				c-0.18-0.21-0.155-0.525,0.055-0.705c0.209-0.18,0.526-0.154,0.705,0.055l1.796,2.096c0.854,0.995,1.324,2.267,1.324,3.579v3.15
				C23.5,55.776,23.276,56,23,56z"/>
		</g>
	</g>
	<g>
		<g>
			<path class="st0" d="M59,10.5h-4c-0.276,0-0.5-0.224-0.5-0.5s0.224-0.5,0.5-0.5h4c0.276,0,0.5,0.224,0.5,0.5S59.276,10.5,59,10.5
				z"/>
		</g>
	</g>
	<g>
		<g>
			<path class="st0" d="M57,12.5c-0.276,0-0.5-0.224-0.5-0.5V8c0-0.276,0.224-0.5,0.5-0.5s0.5,0.224,0.5,0.5v4
				C57.5,12.276,57.276,12.5,57,12.5z"/>
		</g>
	</g>
	<g>
		<g>
			<path class="st0" d="M53.5,15h-4c-0.276,0-0.5-0.224-0.5-0.5s0.224-0.5,0.5-0.5h4c0.276,0,0.5,0.224,0.5,0.5S53.776,15,53.5,15z"
				/>
		</g>
	</g>
	<g>
		<g>
			<path class="st0" d="M51.5,17c-0.276,0-0.5-0.224-0.5-0.5v-4c0-0.276,0.224-0.5,0.5-0.5s0.5,0.224,0.5,0.5v4
				C52,16.776,51.776,17,51.5,17z"/>
		</g>
	</g>
	<g>
		<g>
			<path class="st0" d="M11.5,20.5H4c-0.276,0-0.5-0.224-0.5-0.5s0.224-0.5,0.5-0.5h7.5c0.276,0,0.5,0.224,0.5,0.5
				S11.776,20.5,11.5,20.5z"/>
		</g>
	</g>
	<g>
		<g>
			<path class="st0" d="M2,20.5H1c-0.276,0-0.5-0.224-0.5-0.5s0.224-0.5,0.5-0.5h1c0.276,0,0.5,0.224,0.5,0.5S2.276,20.5,2,20.5z"/>
		</g>
	</g>
	<g>
		<g>
			<path class="st0" d="M60,30.5h-7.5c-0.276,0-0.5-0.224-0.5-0.5s0.224-0.5,0.5-0.5H60c0.276,0,0.5,0.224,0.5,0.5
				S60.276,30.5,60,30.5z"/>
		</g>
	</g>
	<g>
		<g>
			<path class="st0" d="M63,30.5h-1c-0.276,0-0.5-0.224-0.5-0.5s0.224-0.5,0.5-0.5h1c0.276,0,0.5,0.224,0.5,0.5S63.276,30.5,63,30.5
				z"/>
		</g>
	</g>
</g>
</svg>
