<?xml version="1.0" encoding="utf-8"?>
<!-- Generator: Adobe Illustrator 22.0.0, SVG Export Plug-In . SVG Version: 6.00 Build 0)  -->
<svg version="1.1" id="Layer_1" xmlns="http://www.w3.org/2000/svg" xmlns:xlink="http://www.w3.org/1999/xlink" x="0px" y="0px"
	 viewBox="0 0 64 64" style="enable-background:new 0 0 64 64;" xml:space="preserve">
<style type="text/css">
	.st0{fill:#263238;}
	.st1{fill:#FFD740;}
	.st2{fill:#40C4FF;}
	.st3{fill:#FF5252;}
	.st4{fill:#4FC3F7;}
	.st5{fill:#FFFFFF;}
	.st6{fill:#4DB6AC;}
	.st7{fill:#FFCA28;}
	.st8{fill:#37474F;}
</style>
<g>
	<g>
		<g>
			<path class="st0" d="M56.5,22.5h-48C8.224,22.5,8,22.276,8,22v-5.5c0-1.654,1.346-3,3-3h43c1.654,0,3,1.346,3,3V22
				C57,22.276,56.776,22.5,56.5,22.5z M9,21.5h47v-5c0-1.103-0.897-2-2-2H11c-1.103,0-2,0.897-2,2V21.5z"/>
		</g>
	</g>
	<g>
		<g>
			<path class="st0" d="M13,20c-1.103,0-2-0.897-2-2s0.897-2,2-2s2,0.897,2,2S14.103,20,13,20z M13,17c-0.552,0-1,0.449-1,1
				s0.448,1,1,1s1-0.449,1-1S13.552,17,13,17z"/>
		</g>
	</g>
	<g>
		<g>
			<path class="st0" d="M18,20c-1.103,0-2-0.897-2-2s0.897-2,2-2s2,0.897,2,2S19.103,20,18,20z M18,17c-0.552,0-1,0.449-1,1
				s0.448,1,1,1s1-0.449,1-1S18.552,17,18,17z"/>
		</g>
	</g>
	<g>
		<g>
			<path class="st0" d="M10,7.5H6C5.724,7.5,5.5,7.276,5.5,7S5.724,6.5,6,6.5h4c0.276,0,0.5,0.224,0.5,0.5S10.276,7.5,10,7.5z"/>
		</g>
	</g>
	<g>
		<g>
			<path class="st0" d="M8,9.5C7.724,9.5,7.5,9.276,7.5,9V5c0-0.276,0.224-0.5,0.5-0.5S8.5,4.723,8.5,5v4C8.5,9.276,8.276,9.5,8,9.5
				z"/>
		</g>
	</g>
	<g>
		<g>
			<path class="st0" d="M5,12H1c-0.276,0-0.5-0.224-0.5-0.5S0.724,11,1,11h4c0.276,0,0.5,0.224,0.5,0.5S5.276,12,5,12z"/>
		</g>
	</g>
	<g>
		<g>
			<path class="st0" d="M3,14c-0.276,0-0.5-0.224-0.5-0.5v-4C2.5,9.223,2.724,9,3,9s0.5,0.224,0.5,0.5v4C3.5,13.776,3.276,14,3,14z"
				/>
		</g>
	</g>
	<g>
		<g>
			<path class="st0" d="M35,58.499h-2c-0.276,0-0.5-0.224-0.5-0.5s0.224-0.5,0.5-0.5h2c0.276,0,0.5,0.224,0.5,0.5
				S35.276,58.499,35,58.499z"/>
		</g>
	</g>
	<g>
		<g>
			<path class="st0" d="M31,58.499H11c-0.276,0-0.5-0.224-0.5-0.5s0.224-0.5,0.5-0.5h20c0.276,0,0.5,0.224,0.5,0.5
				S31.276,58.499,31,58.499z"/>
		</g>
	</g>
	<g>
		<g>
			<path class="st0" d="M30.5,10.5h-2c-0.276,0-0.5-0.224-0.5-0.5s0.224-0.5,0.5-0.5h2c0.276,0,0.5,0.224,0.5,0.5
				S30.776,10.5,30.5,10.5z"/>
		</g>
	</g>
	<g>
		<g>
			<path class="st0" d="M52.5,10.5h-20c-0.276,0-0.5-0.224-0.5-0.5s0.224-0.5,0.5-0.5h20c0.276,0,0.5,0.224,0.5,0.5
				S52.776,10.5,52.5,10.5z"/>
		</g>
	</g>
	<g>
		<g>
			<path class="st1" d="M53.022,50.921l-0.323-0.186c0.124-0.559,0.194-1.139,0.194-1.735c0-0.597-0.07-1.176-0.194-1.735
				l0.322-0.186l1.039-0.913c0.286-0.252,0.355-0.671,0.165-1.001l-1.344-2.328c-0.191-0.33-0.588-0.48-0.949-0.358l-1.311,0.443
				l-0.327,0.189c-0.853-0.782-1.87-1.388-3.001-1.743v-0.367l-0.271-1.357c-0.075-0.374-0.403-0.643-0.784-0.643h-2.688
				c-0.381,0-0.71,0.269-0.784,0.643l-0.271,1.357v0.367c-1.131,0.355-2.148,0.961-3.001,1.743l-0.327-0.189l-1.311-0.443
				c-0.361-0.122-0.758,0.028-0.949,0.358l-1.344,2.328c-0.191,0.33-0.122,0.749,0.165,1.001l1.039,0.913l0.322,0.186
				c-0.124,0.559-0.194,1.139-0.194,1.735c0,0.597,0.07,1.176,0.194,1.735l-0.323,0.186l-1.039,0.913
				c-0.286,0.252-0.355,0.671-0.165,1.001l1.344,2.328c0.191,0.33,0.588,0.48,0.949,0.358l1.31-0.443l0.328-0.189
				c0.853,0.782,1.87,1.388,3.001,1.743V57l0.271,1.356c0.075,0.374,0.403,0.643,0.784,0.643h2.688c0.381,0,0.71-0.269,0.784-0.643
				L47.293,57v-0.368c1.131-0.355,2.148-0.961,3.001-1.743l0.328,0.189l1.31,0.443c0.361,0.122,0.758-0.028,0.949-0.358l1.344-2.328
				c0.191-0.33,0.122-0.749-0.165-1.001L53.022,50.921z M44.893,53.799c-2.651,0-4.8-2.149-4.8-4.8c0-2.651,2.149-4.8,4.8-4.8
				c2.651,0,4.8,2.149,4.8,4.8C49.693,51.65,47.544,53.799,44.893,53.799z"/>
		</g>
		<g>
			<path class="st0" d="M46.237,59.499h-2.688c-0.618,0-1.154-0.439-1.274-1.045l-0.273-1.461c-0.935-0.339-1.796-0.839-2.569-1.492
				l-0.018,0.01l-1.4,0.484c-0.585,0.197-1.233-0.048-1.542-0.583l-1.344-2.327c-0.31-0.535-0.196-1.22,0.268-1.627l1.132-0.969
				c-0.09-0.5-0.135-0.999-0.135-1.49c0-0.487,0.045-0.984,0.134-1.481l-0.011-0.006l-1.12-0.973
				c-0.464-0.404-0.577-1.089-0.269-1.625l1.346-2.329c0.308-0.534,0.957-0.779,1.541-0.581l1.412,0.499
				c0.772-0.655,1.634-1.156,2.567-1.494v-0.01l0.281-1.454c0.12-0.605,0.656-1.046,1.274-1.046h2.688
				c0.618,0,1.154,0.44,1.274,1.046l0.273,1.461c0.934,0.338,1.796,0.838,2.57,1.491l0.016-0.01l1.4-0.483
				c0.588-0.198,1.234,0.047,1.542,0.581l1.345,2.328c0.309,0.536,0.196,1.22-0.268,1.627l-1.133,0.97
				c0.09,0.501,0.135,1,0.135,1.489c0,0.487-0.045,0.984-0.133,1.481l0.012,0.008c0.028,0.017,0.056,0.035,0.08,0.057l1.039,0.913
				c0.464,0.409,0.576,1.093,0.268,1.627l-1.345,2.328c-0.307,0.534-0.954,0.779-1.542,0.582l-1.411-0.499
				c-0.772,0.654-1.634,1.155-2.567,1.494V57l-0.281,1.454C47.392,59.06,46.855,59.499,46.237,59.499z M39.492,54.389
				c0.122,0,0.243,0.045,0.338,0.132c0.825,0.757,1.772,1.307,2.813,1.635c0.208,0.065,0.35,0.258,0.35,0.477V57l0.262,1.259
				c0.027,0.14,0.151,0.24,0.294,0.24h2.688c0.143,0,0.267-0.101,0.294-0.24l0.271-1.356l-0.01-0.271
				c0-0.219,0.142-0.411,0.35-0.477c1.041-0.328,1.988-0.878,2.813-1.635c0.161-0.148,0.399-0.174,0.589-0.064l0.327,0.189
				l1.22,0.402c0.133,0.046,0.284-0.01,0.355-0.134l1.346-2.329c0.07-0.123,0.045-0.281-0.062-0.376l-1.002-0.88l-0.279-0.162
				c-0.188-0.109-0.285-0.327-0.238-0.54c0.12-0.547,0.182-1.095,0.182-1.628c0-0.532-0.062-1.08-0.182-1.628
				c-0.047-0.213,0.05-0.432,0.239-0.541l0.322-0.186l0.958-0.855c0.107-0.095,0.133-0.253,0.062-0.377l-1.344-2.327
				c-0.071-0.124-0.223-0.179-0.356-0.134l-1.311,0.443l-0.237,0.148c-0.189,0.109-0.427,0.082-0.588-0.065
				c-0.826-0.758-1.772-1.308-2.812-1.633c-0.209-0.065-0.351-0.259-0.351-0.478v-0.368l-0.262-1.259
				c-0.028-0.14-0.151-0.241-0.294-0.241h-2.688c-0.143,0-0.266,0.102-0.294,0.241l-0.271,1.356l0.01,0.271
				c0,0.219-0.142,0.412-0.351,0.478c-1.041,0.326-1.987,0.876-2.812,1.634c-0.161,0.148-0.399,0.174-0.589,0.064l-0.327-0.189
				l-1.221-0.402c-0.131-0.044-0.284,0.01-0.355,0.134l-1.345,2.328c-0.07,0.123-0.045,0.281,0.062,0.375l1.04,0.915l0.241,0.127
				c0.189,0.109,0.286,0.328,0.239,0.542c-0.121,0.546-0.183,1.094-0.183,1.627c0,0.534,0.062,1.082,0.183,1.627
				c0.047,0.213-0.049,0.432-0.238,0.541l-0.322,0.187l-0.959,0.856c-0.107,0.094-0.133,0.252-0.062,0.375l1.345,2.328
				c0.071,0.124,0.224,0.179,0.355,0.135l1.311-0.443l0.238-0.148C39.32,54.411,39.406,54.389,39.492,54.389z M44.893,54.3
				c-2.922,0-5.3-2.378-5.3-5.301c0-2.922,2.378-5.3,5.3-5.3c2.923,0,5.301,2.378,5.301,5.3C50.193,51.922,47.815,54.3,44.893,54.3z
				 M44.893,44.699c-2.371,0-4.3,1.929-4.3,4.3s1.929,4.301,4.3,4.301s4.301-1.93,4.301-4.301S47.264,44.699,44.893,44.699z"/>
		</g>
	</g>
	<g>
		<g>
			<path class="st2" d="M62.083,36.345l-0.226-0.13c0.087-0.392,0.136-0.797,0.136-1.215c0-0.418-0.049-0.823-0.136-1.215
				l0.226-0.13l0.728-0.639c0.2-0.176,0.249-0.469,0.115-0.701l-0.941-1.63c-0.133-0.231-0.412-0.336-0.664-0.25l-0.918,0.31
				l-0.229,0.132c-0.597-0.548-1.309-0.971-2.101-1.22v-0.257l-0.19-0.95c-0.052-0.262-0.282-0.45-0.549-0.45h-1.882
				c-0.267,0-0.497,0.188-0.549,0.45l-0.19,0.95v0.257c-0.792,0.249-1.504,0.673-2.101,1.22l-0.229-0.132l-0.918-0.31
				c-0.253-0.086-0.531,0.019-0.664,0.25l-0.941,1.63c-0.133,0.231-0.085,0.524,0.115,0.701l0.728,0.639l0.226,0.13
				c-0.087,0.392-0.136,0.797-0.136,1.215c0,0.418,0.049,0.823,0.136,1.215l-0.226,0.13l-0.727,0.639
				c-0.2,0.176-0.249,0.469-0.115,0.701l0.941,1.63c0.133,0.231,0.412,0.336,0.664,0.25l0.917-0.31l0.229-0.132
				c0.597,0.548,1.309,0.971,2.101,1.22V40.6l0.19,0.95c0.052,0.262,0.282,0.45,0.549,0.45h1.882c0.267,0,0.497-0.188,0.549-0.45
				l0.19-0.95v-0.257c0.792-0.249,1.504-0.673,2.101-1.22l0.229,0.132l0.917,0.31c0.253,0.086,0.531-0.019,0.664-0.25l0.941-1.63
				c0.133-0.231,0.085-0.524-0.115-0.701L62.083,36.345z M56.393,38.359c-1.856,0-3.36-1.504-3.36-3.36
				c0-1.856,1.504-3.36,3.36-3.36s3.36,1.504,3.36,3.36C59.753,36.855,58.248,38.359,56.393,38.359z"/>
		</g>
		<g>
			<path class="st0" d="M57.334,42.499h-1.882c-0.503,0-0.94-0.358-1.04-0.852l-0.188-0.946c-0.608-0.231-1.173-0.56-1.685-0.98
				l-0.913,0.317C51.146,40.2,50.621,40,50.368,39.565l-0.94-1.631c-0.253-0.437-0.161-0.994,0.218-1.327l0.728-0.638
				c-0.054-0.325-0.08-0.65-0.08-0.971c0-0.323,0.027-0.652,0.081-0.979l-0.729-0.629c-0.379-0.331-0.471-0.89-0.218-1.327
				l0.94-1.629c0.252-0.437,0.782-0.636,1.258-0.474l0.92,0.312c0.513-0.42,1.078-0.748,1.688-0.979l0.179-0.942
				c0.1-0.495,0.537-0.853,1.04-0.853h1.882c0.503,0,0.939,0.358,1.039,0.852l0.188,0.946c0.608,0.232,1.173,0.561,1.686,0.981
				l0.913-0.318c0.479-0.162,1.005,0.039,1.257,0.474l0.941,1.63c0.252,0.438,0.159,0.995-0.22,1.327l-0.726,0.638
				c0.053,0.326,0.08,0.651,0.08,0.97s-0.027,0.644-0.08,0.97l0,0l0.727,0.639c0.378,0.332,0.47,0.89,0.22,1.326l-0.942,1.631
				c-0.253,0.436-0.781,0.631-1.258,0.474l-0.917-0.31c-0.001,0-0.002-0.001-0.004-0.001c-0.513,0.42-1.078,0.747-1.686,0.978
				l-0.18,0.941C58.273,42.141,57.837,42.499,57.334,42.499z M52.612,38.622c0.122,0,0.243,0.045,0.338,0.132
				c0.562,0.516,1.205,0.89,1.912,1.11c0.209,0.065,0.351,0.259,0.351,0.478V40.6l0.18,0.852l1.941,0.048l0.248-0.997l-0.01-0.16
				c0-0.219,0.142-0.412,0.351-0.478c0.706-0.221,1.351-0.595,1.913-1.11c0.161-0.147,0.399-0.173,0.589-0.064l0.186,0.107
				l0.87,0.294l1.013-1.656l-0.887-0.788c-0.189-0.108-0.285-0.328-0.238-0.541c0.083-0.373,0.125-0.745,0.125-1.106
				s-0.042-0.733-0.125-1.106c-0.047-0.213,0.05-0.433,0.239-0.542l0.226-0.13l0.646-0.582l-0.928-1.705l-1.128,0.375
				c-0.189,0.109-0.427,0.083-0.588-0.064c-0.562-0.516-1.207-0.89-1.913-1.111c-0.209-0.065-0.351-0.259-0.351-0.477v-0.257
				l-0.18-0.852l-1.94-0.048l-0.249,0.998l0.01,0.16c0,0.218-0.142,0.412-0.351,0.477c-0.707,0.222-1.351,0.596-1.912,1.111
				c-0.162,0.148-0.398,0.173-0.588,0.065l-0.229-0.132l-0.827-0.27l-1.013,1.657l0.885,0.786c0.189,0.109,0.286,0.329,0.239,0.542
				c-0.082,0.37-0.124,0.742-0.124,1.106s0.042,0.736,0.124,1.106c0.047,0.213-0.049,0.432-0.237,0.541l-0.226,0.131l-0.648,0.582
				l0.928,1.705l1.129-0.375C52.439,38.645,52.526,38.622,52.612,38.622z M56.393,38.859c-2.129,0-3.86-1.731-3.86-3.86
				c0-2.128,1.731-3.86,3.86-3.86s3.86,1.731,3.86,3.86C60.253,37.128,58.521,38.859,56.393,38.859z M56.393,32.139
				c-1.577,0-2.86,1.283-2.86,2.86s1.283,2.86,2.86,2.86s2.86-1.283,2.86-2.86S57.97,32.139,56.393,32.139z"/>
		</g>
	</g>
	<g>
		<g>
			<path class="st0" d="M33.923,54.499H11c-1.654,0-3-1.346-3-3V22c0-0.276,0.224-0.5,0.5-0.5h48c0.276,0,0.5,0.224,0.5,0.5v4
				c0,0.276-0.224,0.5-0.5,0.5S56,26.276,56,26v-3.5H9v29c0,1.103,0.897,2,2,2h22.923c0.276,0,0.5,0.224,0.5,0.5
				S34.199,54.499,33.923,54.499z"/>
		</g>
	</g>
	<g>
		<g>
			<path class="st0" d="M33.5,36.499h-20c-0.276,0-0.5-0.224-0.5-0.5v-9c0-0.276,0.224-0.5,0.5-0.5h20c0.276,0,0.5,0.224,0.5,0.5v9
				C34,36.275,33.776,36.499,33.5,36.499z M14,35.499h19v-8H14V35.499z"/>
		</g>
	</g>
	<g>
		<g>
			<path class="st0" d="M21,34.249c-0.104,0-0.21-0.032-0.3-0.1l-3-2.25c-0.126-0.094-0.2-0.243-0.2-0.4s0.074-0.306,0.2-0.4l3-2.25
				c0.221-0.165,0.534-0.122,0.7,0.1c0.165,0.221,0.12,0.534-0.101,0.7l-2.467,1.85l2.467,1.849c0.221,0.166,0.266,0.479,0.101,0.7
				C21.302,34.18,21.151,34.249,21,34.249z"/>
		</g>
	</g>
	<g>
		<g>
			<path class="st0" d="M26,34.249c-0.151,0-0.302-0.069-0.4-0.2c-0.165-0.221-0.12-0.534,0.101-0.7l2.467-1.849l-2.467-1.85
				c-0.221-0.166-0.266-0.479-0.101-0.7c0.167-0.222,0.48-0.264,0.7-0.1l3,2.25c0.126,0.094,0.2,0.243,0.2,0.4s-0.074,0.306-0.2,0.4
				l-3,2.25C26.21,34.217,26.104,34.249,26,34.249z"/>
		</g>
	</g>
	<g>
		<g>
			<path class="st0" d="M23,33.999c-0.04,0-0.081-0.005-0.121-0.015c-0.269-0.067-0.431-0.339-0.364-0.606l1-4
				c0.067-0.268,0.34-0.433,0.606-0.364c0.269,0.067,0.431,0.338,0.364,0.606l-1,4C23.429,33.848,23.225,33.999,23,33.999z"/>
		</g>
	</g>
	<g>
		<g>
			<path class="st0" d="M28.5,42.207h-15c-0.276,0-0.5-0.224-0.5-0.5s0.224-0.5,0.5-0.5h15c0.276,0,0.5,0.224,0.5,0.5
				S28.776,42.207,28.5,42.207z"/>
		</g>
	</g>
	<g>
		<g>
			<path class="st0" d="M23.5,45.207h-10c-0.276,0-0.5-0.224-0.5-0.5s0.224-0.5,0.5-0.5h10c0.276,0,0.5,0.224,0.5,0.5
				S23.776,45.207,23.5,45.207z"/>
		</g>
	</g>
</g>
</svg>
