<?xml version="1.0" encoding="utf-8"?>
<!-- Generator: Adobe Illustrator 22.0.0, SVG Export Plug-In . SVG Version: 6.00 Build 0)  -->
<svg version="1.1" id="Layer_1" xmlns="http://www.w3.org/2000/svg" xmlns:xlink="http://www.w3.org/1999/xlink" x="0px" y="0px"
	 viewBox="0 0 64 64" style="enable-background:new 0 0 64 64;" xml:space="preserve">
<style type="text/css">
	.st0{fill:#263238;}
	.st1{fill:#FFD740;}
	.st2{fill:#40C4FF;}
	.st3{fill:#FF5252;}
	.st4{fill:#4FC3F7;}
	.st5{fill:#FFFFFF;}
	.st6{fill:#4DB6AC;}
	.st7{fill:#FFCA28;}
	.st8{fill:#37474F;}
</style>
<g>
	<g>
		<g>
			<polygon class="st1" points="52,21 52,45 32,57 32,33 			"/>
		</g>
		<g>
			<path class="st0" d="M32,57.5c-0.085,0-0.17-0.021-0.246-0.064C31.597,57.347,31.5,57.18,31.5,57V33
				c0-0.176,0.092-0.339,0.243-0.429l20-12c0.155-0.094,0.348-0.095,0.503-0.007C52.403,20.653,52.5,20.82,52.5,21v24
				c0,0.176-0.092,0.339-0.243,0.429l-20,12C32.178,57.477,32.089,57.5,32,57.5z M32.5,33.283v22.834l19-11.4V21.883L32.5,33.283z"
				/>
		</g>
	</g>
	<g>
		<g>
			<polygon class="st2" points="32,33 12,21 32,9 52,21 			"/>
		</g>
		<g>
			<path class="st0" d="M32,33.5c-0.089,0-0.178-0.023-0.257-0.071l-20-12C11.592,21.339,11.5,21.176,11.5,21
				s0.092-0.339,0.243-0.429l20-12c0.158-0.096,0.355-0.096,0.514,0l20,12C52.408,20.661,52.5,20.824,52.5,21
				s-0.092,0.339-0.243,0.429l-20,12C32.178,33.477,32.089,33.5,32,33.5z M12.972,21L32,32.417L51.028,21L32,9.583L12.972,21z"/>
		</g>
	</g>
	<g>
		<g>
			<path class="st0" d="M32,49.5c-0.089,0-0.178-0.023-0.257-0.071l-20-12c-0.237-0.142-0.314-0.449-0.172-0.686
				c0.143-0.237,0.452-0.314,0.686-0.172L32,48.417l19.743-11.846c0.234-0.143,0.543-0.065,0.686,0.172
				c0.143,0.236,0.065,0.544-0.172,0.686l-20,12C32.178,49.477,32.089,49.5,32,49.5z"/>
		</g>
	</g>
	<g>
		<g>
			<path class="st0" d="M32,41.5c-0.089,0-0.178-0.023-0.257-0.071l-20-12c-0.237-0.142-0.314-0.449-0.172-0.686
				c0.143-0.237,0.452-0.313,0.686-0.172L32,40.417l19.743-11.846c0.234-0.142,0.543-0.065,0.686,0.172
				c0.143,0.236,0.065,0.544-0.172,0.686l-20,12C32.178,41.477,32.089,41.5,32,41.5z"/>
		</g>
	</g>
	<g>
		<g>
			<path class="st0" d="M32,57.5c-0.089,0-0.178-0.023-0.257-0.071l-20-12C11.592,45.339,11.5,45.176,11.5,45V21
				c0-0.18,0.097-0.347,0.254-0.436c0.155-0.088,0.349-0.087,0.503,0.007l20,12C32.408,32.661,32.5,32.824,32.5,33v24
				c0,0.18-0.097,0.347-0.254,0.436C32.17,57.479,32.085,57.5,32,57.5z M12.5,44.717l19,11.4V33.283l-19-11.4V44.717z"/>
		</g>
	</g>
	<g>
		<g>
			<path class="st0" d="M39.5,53c-0.276,0-0.5-0.224-0.5-0.5V28.783L19.243,16.929c-0.237-0.142-0.314-0.449-0.172-0.686
				c0.143-0.237,0.452-0.313,0.686-0.172l20,12C39.908,28.161,40,28.324,40,28.5v24C40,52.776,39.776,53,39.5,53z"/>
		</g>
	</g>
	<g>
		<g>
			<path class="st0" d="M46,49.101c-0.276,0-0.5-0.224-0.5-0.5V24.885L25.743,13.03c-0.237-0.142-0.314-0.449-0.172-0.686
				c0.144-0.237,0.453-0.313,0.686-0.172l20,12c0.151,0.09,0.243,0.253,0.243,0.429v23.999C46.5,48.877,46.276,49.101,46,49.101z"/>
		</g>
	</g>
	<g>
		<g>
			<path class="st0" d="M24.5,53c-0.276,0-0.5-0.224-0.5-0.5v-24c0-0.176,0.092-0.339,0.243-0.429l20-12
				c0.234-0.142,0.543-0.065,0.686,0.172c0.143,0.236,0.065,0.544-0.172,0.686L25,28.783V52.5C25,52.776,24.776,53,24.5,53z"/>
		</g>
	</g>
	<g>
		<g>
			<path class="st0" d="M18,49.101c-0.276,0-0.5-0.224-0.5-0.5V24.602c0-0.176,0.092-0.339,0.243-0.429l20-12
				c0.235-0.142,0.543-0.065,0.686,0.172c0.143,0.236,0.065,0.544-0.172,0.686L18.5,24.885v23.716
				C18.5,48.877,18.276,49.101,18,49.101z"/>
		</g>
	</g>
	<g>
		<g>
			<path class="st0" d="M9,9.5H7C6.724,9.5,6.5,9.276,6.5,9S6.724,8.5,7,8.5h2c0.276,0,0.5,0.224,0.5,0.5S9.276,9.5,9,9.5z"/>
		</g>
	</g>
	<g>
		<g>
			<path class="st0" d="M22.5,9.5H11c-0.276,0-0.5-0.224-0.5-0.5s0.224-0.5,0.5-0.5h11.5C22.776,8.5,23,8.724,23,9
				S22.776,9.5,22.5,9.5z"/>
		</g>
	</g>
	<g>
		<g>
			<path class="st0" d="M57,57.5h-2c-0.276,0-0.5-0.224-0.5-0.5s0.224-0.5,0.5-0.5h2c0.276,0,0.5,0.224,0.5,0.5S57.276,57.5,57,57.5
				z"/>
		</g>
	</g>
	<g>
		<g>
			<path class="st0" d="M53,57.5H41.5c-0.276,0-0.5-0.224-0.5-0.5s0.224-0.5,0.5-0.5H53c0.276,0,0.5,0.224,0.5,0.5
				S53.276,57.5,53,57.5z"/>
		</g>
	</g>
	<g>
		<g>
			<path class="st0" d="M44,9.5h-4c-0.276,0-0.5-0.224-0.5-0.5s0.224-0.5,0.5-0.5h4c0.276,0,0.5,0.224,0.5,0.5S44.276,9.5,44,9.5z"
				/>
		</g>
	</g>
	<g>
		<g>
			<path class="st0" d="M42,11.5c-0.276,0-0.5-0.224-0.5-0.5V7c0-0.276,0.224-0.5,0.5-0.5s0.5,0.224,0.5,0.5v4
				C42.5,11.276,42.276,11.5,42,11.5z"/>
		</g>
	</g>
	<g>
		<g>
			<path class="st0" d="M51,13.5h-4c-0.276,0-0.5-0.224-0.5-0.5s0.224-0.5,0.5-0.5h4c0.276,0,0.5,0.224,0.5,0.5S51.276,13.5,51,13.5
				z"/>
		</g>
	</g>
	<g>
		<g>
			<path class="st0" d="M49,15.5c-0.276,0-0.5-0.224-0.5-0.5v-4c0-0.276,0.224-0.5,0.5-0.5s0.5,0.224,0.5,0.5v4
				C49.5,15.276,49.276,15.5,49,15.5z"/>
		</g>
	</g>
</g>
</svg>
