<?xml version="1.0" encoding="utf-8"?>
<!-- Generator: Adobe Illustrator 22.0.0, SVG Export Plug-In . SVG Version: 6.00 Build 0)  -->
<svg version="1.1" id="Layer_1" xmlns="http://www.w3.org/2000/svg" xmlns:xlink="http://www.w3.org/1999/xlink" x="0px" y="0px"
	 viewBox="0 0 64 64" style="enable-background:new 0 0 64 64;" xml:space="preserve">
<style type="text/css">
	.st0{fill:#263238;}
	.st1{fill:#FFD740;}
	.st2{fill:#40C4FF;}
	.st3{fill:#FF5252;}
	.st4{fill:#4FC3F7;}
	.st5{fill:#FFFFFF;}
	.st6{fill:#4DB6AC;}
	.st7{fill:#FFCA28;}
	.st8{fill:#37474F;}
</style>
<g>
	<g>
		<g>
			<path class="st0" d="M56.5,46.5c-0.276,0-0.5-0.224-0.5-0.5v-6.5c0-0.166,0.083-0.321,0.22-0.414
				c0.139-0.092,0.313-0.111,0.466-0.05l2.5,1c0.19,0.076,0.314,0.26,0.314,0.464v2c0,0.276-0.224,0.5-0.5,0.5s-0.5-0.224-0.5-0.5
				v-1.662l-1.5-0.6V46C57,46.277,56.776,46.5,56.5,46.5z"/>
		</g>
	</g>
	<g>
		<g>
			<ellipse class="st6" cx="54" cy="46" rx="2.5" ry="1.5"/>
		</g>
		<g>
			<path class="st0" d="M54,48c-1.682,0-3-0.878-3-2s1.318-2,3-2s3,0.878,3,2S55.682,48,54,48z M54,45c-1.145,0-2,0.528-2,1
				s0.855,1,2,1s2-0.528,2-1S55.145,45,54,45z"/>
		</g>
	</g>
	<g>
		<g>
			<path class="st0" d="M12.5,12c-0.276,0-0.5-0.224-0.5-0.5V5c0-0.166,0.083-0.321,0.22-0.414c0.138-0.093,0.314-0.111,0.466-0.05
				l2.5,1C15.375,5.612,15.5,5.796,15.5,6v2c0,0.276-0.224,0.5-0.5,0.5S14.5,8.277,14.5,8V6.339l-1.5-0.6V11.5
				C13,11.777,12.776,12,12.5,12z"/>
		</g>
	</g>
	<g>
		<g>
			<ellipse class="st2" cx="10" cy="11.5" rx="2.5" ry="1.5"/>
		</g>
		<g>
			<path class="st0" d="M10,13.5c-1.682,0-3-0.878-3-2s1.318-2,3-2s3,0.878,3,2S11.682,13.5,10,13.5z M10,10.5c-1.145,0-2,0.528-2,1
				s0.855,1,2,1s2-0.528,2-1S11.145,10.5,10,10.5z"/>
		</g>
	</g>
	<g>
		<g>
			<path class="st0" d="M22.099,38.101c-0.881,0-1.754-0.385-2.346-1.125l-4.543-5.679c-1.03-1.288-1.426-2.952-1.088-4.565
				c0.339-1.614,1.371-2.978,2.831-3.743l7.812-4.092c0.125-0.065,0.272-0.075,0.405-0.026c0.133,0.049,0.238,0.152,0.291,0.284
				c0.023,0.059,0.037,0.125,0.037,0.188l0,5.642c0,0.186-0.103,0.356-0.268,0.443l-4.956,2.596l4.164,5.205
				c1.033,1.292,0.823,3.183-0.468,4.217C23.417,37.886,22.756,38.101,22.099,38.101z M24.497,20.166l-7.081,3.709
				c-1.195,0.626-2.039,1.742-2.316,3.062c-0.277,1.32,0.047,2.682,0.89,3.735l4.543,5.679c0.688,0.86,1.95,1.002,2.811,0.312
				c0.861-0.689,1.001-1.95,0.312-2.811l-4.543-5.679c-0.093-0.117-0.129-0.269-0.099-0.415c0.031-0.146,0.125-0.271,0.257-0.34
				l5.225-2.737L24.497,20.166z"/>
		</g>
	</g>
	<g>
		<g>
			<path class="st0" d="M31.998,17.844c-4.136,0-7.5-3.364-7.5-7.5s3.364-7.5,7.5-7.5s7.5,3.364,7.5,7.5
				S36.134,17.844,31.998,17.844z M31.998,3.844c-3.584,0-6.5,2.916-6.5,6.5s2.916,6.5,6.5,6.5s6.5-2.916,6.5-6.5
				S35.582,3.844,31.998,3.844z"/>
		</g>
	</g>
	<g>
		<g>
			<path class="st1" d="M36.852,6.297l0.522-0.434c-1.284-1.538-3.215-2.518-5.375-2.518c-3.866,0-7,3.134-7,7h0.661
				C29.748,10.344,33.709,8.912,36.852,6.297z"/>
		</g>
		<g>
			<path class="st0" d="M25.659,10.844h-0.661c-0.276,0-0.5-0.224-0.5-0.5c0-4.136,3.364-7.5,7.5-7.5
				c2.229,0,4.328,0.983,5.759,2.698c0.085,0.102,0.126,0.233,0.114,0.366c-0.012,0.132-0.076,0.254-0.178,0.339l-0.521,0.434l0,0
				C33.946,9.366,29.857,10.844,25.659,10.844z M25.518,9.844h0.142c3.964,0,7.826-1.396,10.873-3.932l0.122-0.102
				c-1.222-1.255-2.893-1.967-4.656-1.967C28.583,3.844,25.774,6.493,25.518,9.844z M36.852,6.297h0.01H36.852z"/>
		</g>
	</g>
	<g>
		<g>
			<path class="st2" d="M38.999,34.081V19.344l-4.002-1.503c-1.358,2.265-4.64,2.266-5.999,0.001l-0.001-0.001l-4,1.5l0.001,14.739
				H38.999z"/>
		</g>
		<g>
			<path class="st0" d="M38.999,34.581H24.998c-0.276,0-0.5-0.224-0.5-0.5l0-14.739c0-0.208,0.129-0.395,0.324-0.468l4-1.5
				c0.227-0.084,0.48,0.004,0.604,0.211c0.547,0.912,1.509,1.457,2.572,1.457h0c1.063,0,2.023-0.545,2.57-1.457
				c0.124-0.207,0.378-0.295,0.604-0.211l4.002,1.502c0.195,0.073,0.324,0.26,0.324,0.468v14.736
				C39.499,34.357,39.275,34.581,38.999,34.581z M25.498,33.581h13.001V19.69l-3.308-1.242c-0.752,1.004-1.917,1.592-3.193,1.592
				c0,0-0.001,0-0.001,0c-1.276,0-2.441-0.587-3.193-1.591l-3.307,1.239L25.498,33.581z"/>
		</g>
	</g>
	<g>
		<g>
			<path class="st2" d="M24.997,24.983l0-5.641l0.001,0l-0.001-0.002l-7.812,4.092c-2.786,1.459-3.549,5.097-1.584,7.553
				l3.141,3.926l3.842-3.201l-3.078-3.848L24.997,24.983z"/>
		</g>
		<g>
			<path class="st0" d="M18.741,35.41c-0.017,0-0.034-0.001-0.05-0.002c-0.134-0.014-0.256-0.08-0.34-0.185l-3.141-3.926
				c-1.03-1.288-1.426-2.952-1.088-4.565c0.339-1.614,1.371-2.978,2.831-3.743l7.812-4.092c0.125-0.065,0.272-0.075,0.405-0.026
				c0.133,0.049,0.238,0.152,0.291,0.284c0.023,0.059,0.037,0.125,0.037,0.188l0,5.642c0,0.186-0.103,0.356-0.268,0.443
				l-4.956,2.596l2.699,3.374c0.17,0.213,0.139,0.522-0.07,0.697l-3.842,3.202C18.971,35.37,18.857,35.41,18.741,35.41z
				 M24.497,20.166l-7.081,3.709c-1.195,0.626-2.039,1.742-2.316,3.062c-0.277,1.32,0.047,2.682,0.89,3.735l2.822,3.528l3.073-2.562
				l-2.772-3.465c-0.093-0.117-0.129-0.269-0.099-0.415c0.031-0.146,0.125-0.271,0.257-0.34l5.225-2.737L24.497,20.166z"/>
		</g>
	</g>
	<g>
		<g>
			<path class="st0" d="M46.451,61.156h-9c-0.827,0-1.5-0.673-1.5-1.5v-1.407l-3.953-18.97l-3.954,18.972v1.405
				c0,0.827-0.673,1.5-1.5,1.5h-9c-0.276,0-0.5-0.224-0.5-0.5v-0.737c0-1.548,1.161-2.831,2.701-2.985l1.412-0.141l3.8-22.794
				c0.04-0.241,0.249-0.418,0.493-0.418h13.096c0.245,0,0.453,0.177,0.493,0.418l3.8,22.794l1.411,0.141l0,0
				c1.54,0.154,2.701,1.438,2.701,2.985v0.737C46.951,60.933,46.728,61.156,46.451,61.156z M31.998,36.328
				c0.237,0,0.441,0.166,0.489,0.398l4.453,21.369c0.007,0.034,0.011,0.068,0.011,0.102v1.459c0,0.276,0.224,0.5,0.5,0.5h8.5v-0.237
				c0-1.032-0.774-1.888-1.801-1.99l-1.791-0.179c-0.225-0.022-0.406-0.193-0.443-0.416l-3.793-22.753H25.874l-3.793,22.753
				c-0.037,0.223-0.219,0.393-0.443,0.416l-1.792,0.179c-1.026,0.103-1.801,0.958-1.801,1.99v0.237h8.5c0.276,0,0.5-0.224,0.5-0.5
				v-1.457c0-0.034,0.003-0.068,0.011-0.102l4.454-21.371C31.557,36.494,31.761,36.328,31.998,36.328z"/>
		</g>
	</g>
	<g>
		<g>
			<path class="st2" d="M41.999,8.853v8.614l-3.003,1.876l0.002,0.001v5.894l5.65-3.531c1.462-0.914,2.35-2.516,2.35-4.24V8.853
				H41.999z"/>
		</g>
		<g>
			<path class="st0" d="M38.999,25.739c-0.083,0-0.167-0.021-0.242-0.062c-0.159-0.088-0.258-0.256-0.258-0.438v-5.859
				c-0.013-0.185,0.076-0.361,0.232-0.459l2.768-1.73V8.853c0-0.276,0.224-0.5,0.5-0.5h5c0.276,0,0.5,0.224,0.5,0.5v8.615
				c0,1.909-0.966,3.652-2.585,4.664l-5.65,3.531C39.183,25.713,39.091,25.739,38.999,25.739z M39.499,19.619v4.717l4.885-3.053
				c1.325-0.828,2.115-2.255,2.115-3.816V9.353h-4v8.115c0,0.172-0.089,0.333-0.235,0.424L39.499,19.619z M41.999,17.467h0.01
				H41.999z"/>
		</g>
	</g>
	<g>
		<g>
			<path class="st0" d="M38.999,25.739c-0.083,0-0.167-0.021-0.242-0.062c-0.159-0.088-0.258-0.256-0.258-0.438v-5.859
				c-0.013-0.185,0.076-0.361,0.232-0.459l2.768-1.73V6.495c0-1.602,1.183-2.976,2.692-3.127l0,0
				c0.851-0.086,1.693,0.192,2.32,0.759c0.628,0.568,0.988,1.379,0.988,2.225v11.115c0,1.909-0.966,3.652-2.585,4.664l-5.65,3.531
				C39.183,25.713,39.091,25.739,38.999,25.739z M39.499,19.619v4.717l4.885-3.053c1.325-0.828,2.115-2.255,2.115-3.816V6.353
				c0-0.564-0.24-1.104-0.659-1.483c-0.425-0.384-0.978-0.565-1.549-0.506l0,0c-1.005,0.101-1.792,1.037-1.792,2.132v10.972
				c0,0.172-0.089,0.333-0.235,0.424L39.499,19.619z"/>
		</g>
	</g>
	<g>
		<g>
			<path class="st0" d="M5,47.5H3c-0.276,0-0.5-0.224-0.5-0.5s0.224-0.5,0.5-0.5h2c0.276,0,0.5,0.224,0.5,0.5S5.276,47.5,5,47.5z"/>
		</g>
	</g>
	<g>
		<g>
			<path class="st0" d="M18.5,47.5H7c-0.276,0-0.5-0.224-0.5-0.5s0.224-0.5,0.5-0.5h11.5c0.276,0,0.5,0.224,0.5,0.5
				S18.776,47.5,18.5,47.5z"/>
		</g>
	</g>
	<g>
		<g>
			<path class="st0" d="M61,32h-2c-0.276,0-0.5-0.224-0.5-0.5S58.724,31,59,31h2c0.276,0,0.5,0.224,0.5,0.5S61.276,32,61,32z"/>
		</g>
	</g>
	<g>
		<g>
			<path class="st0" d="M57,32H45.5c-0.276,0-0.5-0.224-0.5-0.5s0.224-0.5,0.5-0.5H57c0.276,0,0.5,0.224,0.5,0.5S57.276,32,57,32z"
				/>
		</g>
	</g>
</g>
</svg>
