<?xml version="1.0" encoding="utf-8"?>
<!-- Generator: Adobe Illustrator 22.0.0, SVG Export Plug-In . SVG Version: 6.00 Build 0)  -->
<svg version="1.1" id="Layer_1" xmlns="http://www.w3.org/2000/svg" xmlns:xlink="http://www.w3.org/1999/xlink" x="0px" y="0px"
	 viewBox="0 0 64 64" style="enable-background:new 0 0 64 64;" xml:space="preserve">
<style type="text/css">
	.st0{fill:#263238;}
	.st1{fill:#FFD740;}
	.st2{fill:#40C4FF;}
	.st3{fill:#FF5252;}
	.st4{fill:#4FC3F7;}
	.st5{fill:#FFFFFF;}
	.st6{fill:#4DB6AC;}
	.st7{fill:#FFCA28;}
	.st8{fill:#37474F;}
</style>
<g>
	<g>
		<g>
			<path class="st1" d="M15.271,45h24.958c1.724,0,3.326-0.888,4.24-2.35L48,37H7.5l3.531,5.65C11.945,44.112,13.547,45,15.271,45z"
				/>
		</g>
		<g>
			<path class="st0" d="M40.229,45.5H15.271c-1.909,0-3.652-0.966-4.664-2.585l-3.531-5.65c-0.097-0.154-0.102-0.349-0.014-0.507
				C7.151,36.599,7.318,36.5,7.5,36.5H48c0.182,0,0.35,0.099,0.438,0.258c0.088,0.159,0.083,0.353-0.014,0.507l-3.531,5.65
				C43.881,44.534,42.137,45.5,40.229,45.5z M8.402,37.5l3.053,4.885c0.828,1.325,2.254,2.115,3.816,2.115h24.958
				c1.562,0,2.988-0.791,3.816-2.115l3.053-4.885H8.402z"/>
		</g>
	</g>
	<g>
		<g>
			<path class="st2" d="M45.658,45c-1.302,1.271-3.054,2-4.885,2H15.271c-1.866,0-3.603-0.73-4.894-2H1c0,8.284,6.716,15,15,15h32
				c8.284,0,15-6.716,15-15H45.658z"/>
		</g>
	</g>
	<g>
		<g>
			<path class="st0" d="M15,6.5h-4c-0.276,0-0.5-0.224-0.5-0.5s0.224-0.5,0.5-0.5h4c0.276,0,0.5,0.224,0.5,0.5S15.276,6.5,15,6.5z"
				/>
		</g>
	</g>
	<g>
		<g>
			<path class="st0" d="M13,8.5c-0.276,0-0.5-0.224-0.5-0.5V4c0-0.276,0.224-0.5,0.5-0.5s0.5,0.224,0.5,0.5v4
				C13.5,8.277,13.276,8.5,13,8.5z"/>
		</g>
	</g>
	<g>
		<g>
			<path class="st0" d="M10,11H6c-0.276,0-0.5-0.224-0.5-0.5S5.724,10,6,10h4c0.276,0,0.5,0.224,0.5,0.5S10.276,11,10,11z"/>
		</g>
	</g>
	<g>
		<g>
			<path class="st0" d="M8,13c-0.276,0-0.5-0.224-0.5-0.5v-4C7.5,8.224,7.724,8,8,8s0.5,0.224,0.5,0.5v4C8.5,12.777,8.276,13,8,13z"
				/>
		</g>
	</g>
	<g>
		<g>
			<path class="st0" d="M58,14h-1c-0.276,0-0.5-0.224-0.5-0.5S56.724,13,57,13h1c0.276,0,0.5,0.224,0.5,0.5S58.276,14,58,14z"/>
		</g>
	</g>
	<g>
		<g>
			<path class="st0" d="M55,14H45c-0.276,0-0.5-0.224-0.5-0.5S44.724,13,45,13h10c0.276,0,0.5,0.224,0.5,0.5S55.276,14,55,14z"/>
		</g>
	</g>
	<g>
		<g>
			<path class="st0" d="M37.5,11h-1c-0.276,0-0.5-0.224-0.5-0.5s0.224-0.5,0.5-0.5h1c0.276,0,0.5,0.224,0.5,0.5S37.776,11,37.5,11z"
				/>
		</g>
	</g>
	<g>
		<g>
			<path class="st0" d="M49.5,11h-10c-0.276,0-0.5-0.224-0.5-0.5s0.224-0.5,0.5-0.5h10c0.276,0,0.5,0.224,0.5,0.5S49.776,11,49.5,11
				z"/>
		</g>
	</g>
	<g>
		<g>
			<path class="st0" d="M26.5,24c-3.584,0-6.5-2.916-6.5-6.5s2.916-6.5,6.5-6.5s6.5,2.916,6.5,6.5S30.084,24,26.5,24z M26.5,12
				c-3.033,0-5.5,2.467-5.5,5.5s2.467,5.5,5.5,5.5s5.5-2.467,5.5-5.5S29.533,12,26.5,12z"/>
		</g>
	</g>
	<g>
		<g>
			<path class="st0" d="M14,35H4.5C3.673,35,3,34.328,3,33.5v-4C3,28.673,3.673,28,4.5,28H14c0.827,0,1.5,0.673,1.5,1.5v4
				C15.5,34.328,14.827,35,14,35z M4.5,29C4.224,29,4,29.225,4,29.5v4C4,33.776,4.224,34,4.5,34H14c0.276,0,0.5-0.224,0.5-0.5v-4
				c0-0.276-0.224-0.5-0.5-0.5H4.5z"/>
		</g>
	</g>
	<g>
		<g>
			<path class="st0" d="M21,35.5c-0.276,0-0.5-0.224-0.5-0.5v-6c0-3.309,2.691-6,6-6c2.669,0,5.042,1.794,5.769,4.364
				c0.075,0.266-0.079,0.542-0.345,0.617c-0.262,0.076-0.542-0.079-0.617-0.345C30.7,25.496,28.724,24,26.5,24c-2.757,0-5,2.243-5,5
				v6C21.5,35.277,21.276,35.5,21,35.5z"/>
		</g>
	</g>
	<g>
		<g>
			<path class="st0" d="M44.7,42.5H10.625c-0.276,0-0.5-0.224-0.5-0.5s0.224-0.5,0.5-0.5H44.7c0.276,0,0.5,0.224,0.5,0.5
				S44.977,42.5,44.7,42.5z"/>
		</g>
	</g>
	<g>
		<g>
			<path class="st0" d="M46.393,52.5L46.393,52.5c-1.831,0-3.55-0.739-4.799-2.045c-1.251,1.306-2.968,2.042-4.797,2.042
				c-1.831,0-3.55-0.738-4.798-2.043c-1.256,1.31-2.97,2.043-4.797,2.043c-1.832,0-3.55-0.738-4.799-2.043
				c-1.249,1.303-2.965,2.039-4.795,2.039c-0.276,0-0.5-0.224-0.5-0.5s0.224-0.5,0.5-0.5c1.724,0,3.329-0.769,4.404-2.109
				c0.087-0.108,0.214-0.175,0.352-0.186c0.138-0.013,0.273,0.036,0.376,0.13c1.133,1.4,2.738,2.168,4.461,2.168
				c1.723,0,3.328-0.768,4.403-2.107c0.094-0.118,0.239-0.189,0.39-0.19c0.001,0,0.002,0,0.002,0c0.15,0,0.294,0.064,0.39,0.181
				c1.083,1.348,2.688,2.117,4.41,2.117s3.328-0.769,4.404-2.108c0.097-0.121,0.292-0.178,0.399-0.189
				c0.155,0.002,0.302,0.074,0.395,0.198c1.071,1.333,2.676,2.102,4.397,2.103c0.276,0,0.5,0.224,0.5,0.5
				C46.893,52.277,46.669,52.5,46.393,52.5z"/>
		</g>
	</g>
	<g>
		<g>
			<path class="st0" d="M46.393,57L46.393,57c-1.831,0-3.55-0.739-4.799-2.045c-1.251,1.306-2.968,2.042-4.797,2.042
				c-1.831,0-3.55-0.738-4.798-2.043c-1.256,1.31-2.97,2.043-4.797,2.043c-1.832,0-3.55-0.738-4.799-2.043
				c-1.249,1.303-2.965,2.039-4.795,2.039c-0.276,0-0.5-0.224-0.5-0.5s0.224-0.5,0.5-0.5c1.724,0,3.329-0.769,4.404-2.109
				c0.087-0.108,0.214-0.175,0.352-0.186c0.138-0.012,0.273,0.036,0.376,0.13c1.133,1.4,2.738,2.168,4.461,2.168
				c1.723,0,3.328-0.768,4.403-2.107c0.094-0.118,0.239-0.189,0.39-0.19c0.001,0,0.002,0,0.002,0c0.15,0,0.294,0.064,0.39,0.181
				c1.083,1.348,2.688,2.117,4.41,2.117s3.328-0.769,4.404-2.108c0.097-0.121,0.292-0.177,0.399-0.189
				c0.155,0.002,0.302,0.074,0.395,0.198C43.066,55.231,44.671,56,46.393,56c0.276,0,0.5,0.224,0.5,0.5
				C46.893,56.777,46.669,57,46.393,57z"/>
		</g>
	</g>
	<g>
		<g>
			<path class="st0" d="M38.5,32h-12c-1.378,0-2.5-1.122-2.5-2.5s1.122-2.5,2.5-2.5h12c1.379,0,2.5,1.122,2.5,2.5S39.879,32,38.5,32
				z M26.5,28c-0.827,0-1.5,0.673-1.5,1.5s0.673,1.5,1.5,1.5h12c0.827,0,1.5-0.673,1.5-1.5S39.327,28,38.5,28H26.5z"/>
		</g>
	</g>
	<g>
		<g>
			<path class="st3" d="M32,35v-3.5h-5.5c-1.105,0-2-0.896-2-2c0-1.105,0.895-2,2-2h5.288c-0.654-2.308-2.771-4-5.288-4
				c-3.038,0-5.5,2.462-5.5,5.5v6"/>
		</g>
		<g>
			<path class="st0" d="M32,35.5c-0.276,0-0.5-0.224-0.5-0.5v-3h-5c-1.378,0-2.5-1.122-2.5-2.5s1.122-2.5,2.5-2.5h4.579
				c-0.786-1.795-2.583-3-4.579-3c-2.757,0-5,2.243-5,5v6c0,0.276-0.224,0.5-0.5,0.5s-0.5-0.224-0.5-0.5v-6c0-3.309,2.691-6,6-6
				c2.669,0,5.042,1.794,5.769,4.364c0.043,0.151,0.012,0.313-0.082,0.438C32.092,27.927,31.944,28,31.788,28H26.5
				c-0.827,0-1.5,0.673-1.5,1.5s0.673,1.5,1.5,1.5H32c0.276,0,0.5,0.224,0.5,0.5V35C32.5,35.277,32.276,35.5,32,35.5z"/>
		</g>
	</g>
	<g>
		<g>
			<path class="st0" d="M40.5,30c-0.183,0-0.359-0.101-0.447-0.276c-0.123-0.247-0.023-0.547,0.224-0.671l17-8.5
				c0.248-0.123,0.547-0.024,0.671,0.224c0.123,0.247,0.023,0.547-0.224,0.671l-17,8.5C40.651,29.983,40.575,30,40.5,30z"/>
		</g>
	</g>
	<g>
		<g>
			<path class="st0" d="M56,36.5c-0.276,0-0.5-0.224-0.5-0.5v-14.4c0-0.276,0.224-0.5,0.5-0.5s0.5,0.224,0.5,0.5V36
				C56.5,36.277,56.276,36.5,56,36.5z"/>
		</g>
	</g>
	<g>
		<g>
			<path class="st0" d="M44,31.5c-1.103,0-2-0.897-2-2s0.897-2,2-2s2,0.897,2,2S45.103,31.5,44,31.5z M44,28.5c-0.552,0-1,0.449-1,1
				s0.448,1,1,1s1-0.449,1-1S44.552,28.5,44,28.5z"/>
		</g>
	</g>
	<g>
		<g>
			<path class="st0" d="M56,45.477c-0.062,0-0.125-0.012-0.184-0.035c-0.136-0.053-3.316-1.353-3.316-4.965
				c0-3.612,3.181-4.912,3.316-4.965c0.117-0.047,0.25-0.047,0.367,0c0.136,0.053,3.316,1.353,3.316,4.965
				c0,3.612-3.181,4.912-3.316,4.965C56.125,45.465,56.062,45.477,56,45.477z M56,36.526c-0.612,0.305-2.5,1.45-2.5,3.951
				s1.888,3.646,2.5,3.95c0.612-0.305,2.5-1.449,2.5-3.95S56.612,36.831,56,36.526z"/>
		</g>
	</g>
	<g>
		<g>
			<path class="st0" d="M58.5,49.477c-0.048,0-0.097-0.007-0.144-0.021L56,48.749l-2.356,0.707
				c-0.198,0.059-0.414-0.011-0.541-0.176c-0.126-0.166-0.137-0.392-0.026-0.568l2.5-4c0.182-0.292,0.666-0.292,0.848,0l2.5,4
				c0.11,0.177,0.1,0.403-0.026,0.568C58.802,49.406,58.653,49.477,58.5,49.477z M56,47.727c0.049,0,0.097,0.007,0.144,0.021
				l1.229,0.369L56,45.92l-1.373,2.196l1.229-0.369C55.903,47.733,55.951,47.727,56,47.727z"/>
		</g>
	</g>
</g>
<g>
	<g>
		<path class="st0" d="M15,32H3.5C3.224,32,3,31.777,3,31.5S3.224,31,3.5,31H15c0.276,0,0.5,0.224,0.5,0.5S15.276,32,15,32z"/>
	</g>
</g>
</svg>
