<?xml version="1.0" encoding="utf-8"?>
<!-- Generator: Adobe Illustrator 22.0.0, SVG Export Plug-In . SVG Version: 6.00 Build 0)  -->
<svg version="1.1" id="Layer_1" xmlns="http://www.w3.org/2000/svg" xmlns:xlink="http://www.w3.org/1999/xlink" x="0px" y="0px"
	 viewBox="0 0 64 64" style="enable-background:new 0 0 64 64;" xml:space="preserve">
<style type="text/css">
	.st0{fill:#263238;}
	.st1{fill:#FFD740;}
	.st2{fill:#40C4FF;}
	.st3{fill:#FF5252;}
	.st4{fill:#4FC3F7;}
	.st5{fill:#FFFFFF;}
	.st6{fill:#4DB6AC;}
	.st7{fill:#FFCA28;}
	.st8{fill:#37474F;}
</style>
<g>
	<g>
		<g>
			<path class="st0" d="M11,5.5H7C6.724,5.5,6.5,5.276,6.5,5S6.724,4.5,7,4.5h4c0.276,0,0.5,0.224,0.5,0.5S11.276,5.5,11,5.5z"/>
		</g>
	</g>
	<g>
		<g>
			<path class="st0" d="M7,11H3c-0.276,0-0.5-0.224-0.5-0.5S2.724,10,3,10h4c0.276,0,0.5,0.224,0.5,0.5S7.276,11,7,11z"/>
		</g>
	</g>
	<g>
		<g>
			<path class="st0" d="M5,13c-0.276,0-0.5-0.224-0.5-0.5v-4C4.5,8.224,4.724,8,5,8s0.5,0.224,0.5,0.5v4C5.5,12.776,5.276,13,5,13z"
				/>
		</g>
	</g>
	<g>
		<g>
			<path class="st0" d="M45.25,9.9h-2c-0.276,0-0.5-0.224-0.5-0.5s0.224-0.5,0.5-0.5h2c0.276,0,0.5,0.224,0.5,0.5
				S45.526,9.9,45.25,9.9z"/>
		</g>
	</g>
	<g>
		<g>
			<path class="st0" d="M59.25,9.9h-12c-0.276,0-0.5-0.224-0.5-0.5s0.224-0.5,0.5-0.5h12c0.276,0,0.5,0.224,0.5,0.5
				S59.526,9.9,59.25,9.9z"/>
		</g>
	</g>
	<g>
		<g>
			<path class="st0" d="M58.75,61.5h-2c-0.276,0-0.5-0.224-0.5-0.5s0.224-0.5,0.5-0.5h2c0.276,0,0.5,0.224,0.5,0.5
				S59.026,61.5,58.75,61.5z"/>
		</g>
	</g>
	<g>
		<g>
			<path class="st0" d="M54.75,61.501h-12c-0.276,0-0.5-0.224-0.5-0.5s0.224-0.5,0.5-0.5h12c0.276,0,0.5,0.224,0.5,0.5
				S55.026,61.501,54.75,61.501z"/>
		</g>
	</g>
	<g>
		<g>
			<path class="st0" d="M23,26.498c-1.409,0-2.817-0.536-3.889-1.608c-0.195-0.195-0.195-0.512,0-0.707s0.512-0.195,0.707,0
				c1.755,1.754,4.609,1.754,6.364,0c0.195-0.195,0.512-0.195,0.707,0s0.195,0.512,0,0.707C25.817,25.962,24.409,26.498,23,26.498z"
				/>
		</g>
	</g>
	<g>
		<g>
			<path class="st0" d="M11,41.5c-0.276,0-0.5-0.224-0.5-0.5v-4c0-0.276,0.224-0.5,0.5-0.5s0.5,0.224,0.5,0.5v4
				C11.5,41.276,11.276,41.5,11,41.5z"/>
		</g>
	</g>
	<g>
		<g>
			<path class="st0" d="M3,41.5c-0.276,0-0.5-0.224-0.5-0.5v-7c0-3.032,2.467-5.5,5.5-5.5h0.5v-0.25c0-0.965,0.785-1.75,1.75-1.75
				S12,27.285,12,28.25v0.25h2c1.654,0,3,1.346,3,3v3c0,1.654-1.346,3-3,3H8c-0.276,0-0.5-0.224-0.5-0.5s0.224-0.5,0.5-0.5h6
				c1.103,0,2-0.897,2-2v-3c0-1.103-0.897-2-2-2h-2.5c-0.276,0-0.5-0.224-0.5-0.5v-0.75c0-0.413-0.336-0.75-0.75-0.75
				S9.5,27.837,9.5,28.25V29c0,0.276-0.224,0.5-0.5,0.5H8c-2.481,0-4.5,2.019-4.5,4.5v7C3.5,41.276,3.276,41.5,3,41.5z"/>
		</g>
	</g>
	<g>
		<g>
			<path class="st0" d="M9,7.5C8.724,7.5,8.5,7.276,8.5,7V3c0-0.276,0.224-0.5,0.5-0.5S9.5,2.724,9.5,3v4C9.5,7.276,9.276,7.5,9,7.5
				z"/>
		</g>
	</g>
	<g>
		<g>
			<path class="st0" d="M19,33.5c-0.276,0-0.5-0.224-0.5-0.5v-1.76c0-0.276,0.224-0.5,0.5-0.5s0.5,0.224,0.5,0.5V33
				C19.5,33.276,19.276,33.5,19,33.5z"/>
		</g>
	</g>
	<g>
		<g>
			<path class="st0" d="M18.934,41c-0.042,0-0.083-0.005-0.124-0.016c-0.158-0.04-0.287-0.155-0.344-0.309l-2.416-6.437
				c-0.094-0.25,0.026-0.53,0.271-0.636l2.481-1.063c0.188-0.078,0.406-0.038,0.55,0.106l4,4c0.099,0.099,0.151,0.233,0.146,0.372
				c-0.005,0.139-0.068,0.27-0.173,0.36l-4.066,3.5C19.168,40.958,19.052,41,18.934,41z M17.154,34.335l1.996,5.319l3.115-2.682
				l-3.38-3.38L17.154,34.335z"/>
		</g>
	</g>
	<g>
		<g>
			<path class="st0" d="M27.056,41c-0.119,0-0.235-0.042-0.327-0.121l-4.056-3.5c-0.105-0.091-0.168-0.222-0.173-0.36
				c-0.005-0.139,0.048-0.273,0.146-0.372l4-4c0.144-0.145,0.363-0.185,0.55-0.106l2.481,1.063c0.246,0.105,0.365,0.386,0.271,0.637
				l-2.425,6.437c-0.058,0.152-0.186,0.268-0.344,0.308C27.139,40.995,27.097,41,27.056,41z M23.734,36.973l3.107,2.681l2.004-5.318
				l-1.73-0.742L23.734,36.973z"/>
		</g>
	</g>
	<g>
		<g>
			<path class="st6" d="M23,32L23,32c-1.381,0-2.5-1.119-2.5-2.5V29h5v0.5C25.5,30.881,24.381,32,23,32z"/>
		</g>
		<g>
			<path class="st0" d="M23,32.5c-1.654,0-3-1.346-3-3V29c0-0.276,0.224-0.5,0.5-0.5h5c0.276,0,0.5,0.224,0.5,0.5v0.5
				C26,31.154,24.654,32.5,23,32.5z M21,29.5c0,1.103,0.897,2,2,2s2-0.897,2-2H21z"/>
		</g>
	</g>
	<g>
		<g>
			<path class="st0" d="M27.171,31.67c-0.196,0-0.383-0.116-0.462-0.31c-0.105-0.256,0.017-0.548,0.272-0.653
				c3.149-1.295,5.483-4.042,6.244-7.349c0.058-0.25,0.298-0.425,0.548-0.384C33.9,22.992,33.949,23,34,23c1.103,0,2-0.897,2-2
				s-0.897-2-2-2c-0.047,0-0.091,0.008-0.136,0.014c-0.25,0.036-0.582-0.119-0.64-0.372C32.122,13.848,27.917,10.5,23,10.5
				c-4.918,0-9.122,3.348-10.224,8.142c-0.057,0.247-0.286,0.409-0.543,0.385C12.091,19.008,12.046,19,12,19c-1.103,0-2,0.897-2,2
				s0.897,2,2,2c0.051,0,0.099-0.008,0.148-0.015c0.261-0.036,0.57,0.12,0.628,0.373c0.76,3.307,3.093,6.054,6.243,7.349
				c0.255,0.105,0.377,0.397,0.272,0.653c-0.105,0.256-0.396,0.378-0.653,0.272c-3.316-1.364-5.807-4.199-6.733-7.635
				C10.295,23.948,9,22.623,9,21c0-1.622,1.295-2.948,2.905-2.998C13.254,12.975,17.757,9.5,23,9.5s9.746,3.475,11.095,8.502
				C35.706,18.052,37,19.378,37,21s-1.294,2.948-2.905,2.998c-0.927,3.437-3.417,6.271-6.733,7.635
				C27.299,31.658,27.234,31.67,27.171,31.67z"/>
		</g>
	</g>
	<g>
		<g>
			<path class="st0" d="M28.313,58.501h-11c-0.195,0-0.372-0.113-0.454-0.29l-3-6.5c-0.071-0.155-0.059-0.336,0.033-0.479
				c0.092-0.144,0.251-0.23,0.421-0.23h17c0.17,0,0.329,0.087,0.421,0.23c0.092,0.144,0.104,0.324,0.033,0.479l-3,6.5
				C28.685,58.388,28.508,58.501,28.313,58.501z M17.633,57.501h10.36l2.539-5.5H15.094L17.633,57.501z"/>
		</g>
	</g>
	<g>
		<g>
			<path class="st0" d="M32.5,61.501h-19c-1.103,0-2-0.897-2-2s0.897-2,2-2h19c1.103,0,2,0.897,2,2S33.603,61.501,32.5,61.501z
				 M13.5,58.501c-0.551,0-1,0.448-1,1s0.449,1,1,1h19c0.551,0,1-0.448,1-1s-0.449-1-1-1H13.5z"/>
		</g>
	</g>
	<g>
		<g>
			<path class="st0" d="M41,54.5c-0.276,0-0.5-0.224-0.5-0.5V43.945c0-2.804-1.666-5.329-4.243-6.434l-9.454-4.052
				C26.619,33.381,26.5,33.2,26.5,33v-1.76c0-0.276,0.224-0.5,0.5-0.5s0.5,0.224,0.5,0.5v1.43l9.151,3.922
				c2.946,1.264,4.849,4.149,4.849,7.354V54C41.5,54.276,41.276,54.5,41,54.5z"/>
		</g>
	</g>
	<g>
		<g>
			<path class="st0" d="M7,54.5c-2.481,0-4.5-2.019-4.5-4.5v-9c0-0.276,0.224-0.5,0.5-0.5h8c0.276,0,0.5,0.224,0.5,0.5v9
				C11.5,52.481,9.481,54.5,7,54.5z M3.5,41.5V50c0,1.93,1.57,3.5,3.5,3.5s3.5-1.57,3.5-3.5v-8.5H3.5z"/>
		</g>
	</g>
	<g>
		<g>
			<path class="st0" d="M22.5,29.5h-8c-0.276,0-0.5-0.224-0.5-0.5s0.224-0.5,0.5-0.5h8c0.276,0,0.5,0.224,0.5,0.5
				S22.776,29.5,22.5,29.5z"/>
		</g>
	</g>
	<g>
		<g>
			<path class="st0" d="M21.036,50.001c-0.097,0-0.195-0.028-0.281-0.087c-0.228-0.155-0.287-0.467-0.131-0.694l0.818-1.201
				c0.116-0.17,0.092-0.337,0.067-0.421c-0.042-0.144-0.144-0.26-0.281-0.319L20.5,46.963c-0.423-0.184-0.735-0.545-0.853-0.991
				c-0.119-0.447-0.027-0.915,0.25-1.285l0.739-0.985c0.166-0.221,0.479-0.267,0.7-0.101c0.221,0.166,0.265,0.479,0.1,0.7
				l-0.739,0.985c-0.092,0.124-0.123,0.28-0.083,0.429s0.143,0.269,0.285,0.33l0.727,0.315c0.411,0.178,0.719,0.527,0.844,0.959
				s0.051,0.892-0.202,1.263l-0.818,1.2C21.353,49.925,21.196,50.001,21.036,50.001z"/>
		</g>
	</g>
	<g>
		<g>
			<path class="st0" d="M24.536,50.001c-0.097,0-0.195-0.028-0.281-0.087c-0.228-0.155-0.287-0.467-0.131-0.694l0.818-1.201
				c0.116-0.17,0.092-0.337,0.067-0.421c-0.042-0.144-0.144-0.26-0.281-0.319L24,46.963c-0.423-0.184-0.735-0.545-0.853-0.991
				c-0.119-0.447-0.027-0.915,0.25-1.285l0.739-0.985c0.165-0.221,0.479-0.267,0.7-0.101c0.221,0.166,0.265,0.479,0.1,0.7
				l-0.739,0.985c-0.092,0.124-0.123,0.28-0.083,0.429s0.143,0.269,0.285,0.33l0.727,0.315c0.411,0.178,0.719,0.527,0.844,0.959
				s0.051,0.892-0.202,1.263l-0.818,1.2C24.853,49.925,24.696,50.001,24.536,50.001z"/>
		</g>
	</g>
	<g>
		<g>
			<path class="st1" d="M24.519,9.036l6,5.854v0.146c0,2.209,1.791,4,4,4h0h0v-5c0-2.761-2.239-5-5-5H24.519z"/>
		</g>
		<g>
			<path class="st0" d="M34.52,19.535c-2.459,0-4.464-1.983-4.5-4.435l-5.85-5.708c-0.146-0.142-0.19-0.357-0.114-0.546
				s0.26-0.312,0.463-0.312h5c3.033,0,5.5,2.468,5.5,5.5v5C35.02,19.312,34.796,19.535,34.52,19.535z M25.748,9.535l5.121,4.997
				c0.097,0.094,0.151,0.223,0.151,0.357v0.146c0,1.76,1.306,3.221,3,3.465v-4.465c0-2.481-2.019-4.5-4.5-4.5H25.748z"/>
		</g>
	</g>
	<g>
		<g>
			<path class="st1" d="M16.577,18.121L11.519,19v-2c0-5.523,4.477-10,10-10h6.157c0.793,0,1.271,0.88,0.838,1.545l-1.932,2.972
				C24.311,15.014,20.685,17.406,16.577,18.121z"/>
		</g>
		<g>
			<path class="st0" d="M11.52,19.5c-0.117,0-0.231-0.041-0.322-0.117C11.085,19.288,11.02,19.147,11.02,19v-2
				c0-5.79,4.71-10.5,10.5-10.5h6.157c0.551,0,1.056,0.301,1.318,0.785c0.263,0.483,0.239,1.071-0.061,1.532l-1.931,2.973
				c-2.341,3.601-6.11,6.088-10.34,6.823c0,0,0,0,0,0l-5.057,0.879C11.577,19.498,11.548,19.5,11.52,19.5z M21.52,7.5
				c-5.238,0-9.5,4.262-9.5,9.5v1.405l4.472-0.776h0c3.958-0.689,7.484-3.016,9.673-6.384l1.932-2.973
				c0.146-0.226,0.063-0.433,0.021-0.511C28.074,7.683,27.945,7.5,27.677,7.5H21.52z M16.577,18.121h0.01H16.577z"/>
		</g>
	</g>
	<g>
		<g>
			<path class="st3" d="M58.5,19h-15c-1.381,0-2.5,1.119-2.5,2.5v11c0,1.381,1.119,2.5,2.5,2.5H46v2.865
				c0,0.848,0.989,1.311,1.64,0.768L52,35h6.5c1.381,0,2.5-1.119,2.5-2.5v-11C61,20.12,59.881,19,58.5,19z"/>
		</g>
		<g>
			<path class="st0" d="M47.004,39.367c-0.216,0-0.434-0.047-0.641-0.144c-0.533-0.25-0.863-0.771-0.863-1.358V35.5h-2
				c-1.654,0-3-1.346-3-3v-11c0-1.654,1.346-3,3-3h15c1.654,0,3,1.346,3,3v11c0,1.654-1.346,3-3,3h-6.319l-4.221,3.518
				C47.683,39.249,47.346,39.367,47.004,39.367z M43.5,19.5c-1.103,0-2,0.897-2,2v11c0,1.103,0.897,2,2,2H46
				c0.276,0,0.5,0.224,0.5,0.5v2.865c0,0.295,0.22,0.421,0.288,0.452c0.068,0.032,0.306,0.122,0.533-0.068l4.359-3.633
				C51.77,34.541,51.883,34.5,52,34.5h6.5c1.103,0,2-0.897,2-2v-11c0-1.103-0.897-2-2-2H43.5z"/>
		</g>
	</g>
	<g>
		<g>
			<path class="st0" d="M58,23.5H44c-0.276,0-0.5-0.224-0.5-0.5s0.224-0.5,0.5-0.5h14c0.276,0,0.5,0.224,0.5,0.5
				S58.276,23.5,58,23.5z"/>
		</g>
	</g>
	<g>
		<g>
			<path class="st0" d="M58,27.5H44c-0.276,0-0.5-0.224-0.5-0.5s0.224-0.5,0.5-0.5h14c0.276,0,0.5,0.224,0.5,0.5
				S58.276,27.5,58,27.5z"/>
		</g>
	</g>
	<g>
		<g>
			<path class="st0" d="M51,31.5h-7c-0.276,0-0.5-0.224-0.5-0.5s0.224-0.5,0.5-0.5h7c0.276,0,0.5,0.224,0.5,0.5S51.276,31.5,51,31.5
				z"/>
		</g>
	</g>
</g>
</svg>
