<?xml version="1.0" encoding="utf-8"?>
<!-- Generator: Adobe Illustrator 22.0.0, SVG Export Plug-In . SVG Version: 6.00 Build 0)  -->
<svg version="1.1" id="Layer_1" xmlns="http://www.w3.org/2000/svg" xmlns:xlink="http://www.w3.org/1999/xlink" x="0px" y="0px"
	 viewBox="0 0 64 64" style="enable-background:new 0 0 64 64;" xml:space="preserve">
<style type="text/css">
	.st0{fill:#263238;}
	.st1{fill:#FFD740;}
	.st2{fill:#40C4FF;}
	.st3{fill:#FF5252;}
	.st4{fill:#4FC3F7;}
	.st5{fill:#FFFFFF;}
	.st6{fill:#4DB6AC;}
	.st7{fill:#FFCA28;}
	.st8{fill:#37474F;}
</style>
<g>
	<g>
		<g>
			<path class="st0" d="M16.5,3.5h-4C12.224,3.5,12,3.276,12,3s0.224-0.5,0.5-0.5h4C16.776,2.5,17,2.724,17,3S16.776,3.5,16.5,3.5z"
				/>
		</g>
	</g>
	<g>
		<g>
			<path class="st0" d="M14.5,5.5C14.224,5.5,14,5.276,14,5V1c0-0.276,0.224-0.5,0.5-0.5S15,0.724,15,1v4
				C15,5.276,14.776,5.5,14.5,5.5z"/>
		</g>
	</g>
	<g>
		<g>
			<path class="st0" d="M11,8H7C6.724,8,6.5,7.776,6.5,7.5S6.724,7,7,7h4c0.276,0,0.5,0.224,0.5,0.5S11.276,8,11,8z"/>
		</g>
	</g>
	<g>
		<g>
			<path class="st0" d="M9,10c-0.276,0-0.5-0.224-0.5-0.5v-4C8.5,5.224,8.724,5,9,5s0.5,0.224,0.5,0.5v4C9.5,9.776,9.276,10,9,10z"
				/>
		</g>
	</g>
	<g>
		<g>
			<path class="st0" d="M48,13.5H13c-0.276,0-0.5-0.224-0.5-0.5s0.224-0.5,0.5-0.5h35c0.276,0,0.5,0.224,0.5,0.5
				S48.276,13.5,48,13.5z"/>
		</g>
	</g>
	<g>
		<g>
			<path class="st0" d="M42.732,58.5H13c-0.276,0-0.5-0.224-0.5-0.5s0.224-0.5,0.5-0.5h29.733c0.276,0,0.5,0.224,0.5,0.5
				S43.009,58.5,42.732,58.5z"/>
		</g>
	</g>
	<g>
		<g>
			<path class="st0" d="M52,27.5c-0.276,0-0.5-0.224-0.5-0.5V13c0-0.276,0.224-0.5,0.5-0.5s0.5,0.224,0.5,0.5v14
				C52.5,27.276,52.276,27.5,52,27.5z"/>
		</g>
	</g>
	<g>
		<g>
			<path class="st0" d="M52,31.5c-0.276,0-0.5-0.224-0.5-0.5v-2c0-0.276,0.224-0.5,0.5-0.5s0.5,0.224,0.5,0.5v2
				C52.5,31.276,52.276,31.5,52,31.5z"/>
		</g>
	</g>
	<g>
		<g>
			<path class="st3" d="M54.265,38.812c-3.491-3.385-9.039-3.385-12.53,0c-2.983,2.892-3.598,7.45-1.488,11.03L48,63l7.754-13.158
				C57.863,46.263,57.247,41.705,54.265,38.812z M47.999,49.728c-2.485,0-4.5-2.015-4.5-4.5c0-2.485,2.015-4.5,4.5-4.5
				c2.485,0,4.5,2.015,4.5,4.5C52.499,47.713,50.485,49.728,47.999,49.728z"/>
		</g>
		<g>
			<path class="st0" d="M48,63.5c-0.177,0-0.341-0.094-0.431-0.246l-7.754-13.158c-2.234-3.792-1.588-8.579,1.571-11.643
				c3.706-3.595,9.518-3.597,13.226,0l0,0c3.159,3.063,3.806,7.851,1.571,11.643l-7.753,13.158C48.341,63.406,48.177,63.5,48,63.5z
				 M47.999,36.758c-2.129,0-4.258,0.805-5.917,2.413c-2.826,2.741-3.404,7.025-1.405,10.417L48,62.015l7.322-12.427
				c1.999-3.392,1.421-7.676-1.405-10.417l0,0C52.258,37.563,50.129,36.758,47.999,36.758z M47.999,50.228c-2.757,0-5-2.243-5-5
				s2.243-5,5-5s5,2.243,5,5S50.756,50.228,47.999,50.228z M47.999,41.228c-2.206,0-4,1.794-4,4s1.794,4,4,4s4-1.794,4-4
				S50.205,41.228,47.999,41.228z"/>
		</g>
	</g>
	<g>
		<g>
			<path class="st0" d="M43,63.5H18c-3.033,0-5.5-2.467-5.5-5.5V13c0-3.033,2.467-5.5,5.5-5.5h25c3.032,0,5.5,2.467,5.5,5.5v21.254
				c0,0.276-0.224,0.5-0.5,0.5s-0.5-0.224-0.5-0.5V13c0-2.481-2.019-4.5-4.5-4.5H18c-2.481,0-4.5,2.019-4.5,4.5v45
				c0,2.481,2.019,4.5,4.5,4.5h25c0.711,0,1.414-0.182,2.091-0.541c0.244-0.129,0.546-0.037,0.676,0.208s0.037,0.547-0.207,0.676
				C44.736,63.279,43.875,63.5,43,63.5z"/>
		</g>
	</g>
	<g>
		<g>
			<polygon class="st1" points="48,31 48,28 22,28 22,13 19,13 19,39.5 29,39.5 29,58 32,58 32,36.5 22,36.5 22,31 			"/>
		</g>
		<g>
			<path class="st0" d="M32,58.5h-3c-0.276,0-0.5-0.224-0.5-0.5V40H19c-0.276,0-0.5-0.224-0.5-0.5V13c0-0.276,0.224-0.5,0.5-0.5h3
				c0.276,0,0.5,0.224,0.5,0.5v14.5H48c0.276,0,0.5,0.224,0.5,0.5v3c0,0.276-0.224,0.5-0.5,0.5H22.5V36H32
				c0.276,0,0.5,0.224,0.5,0.5V58C32.5,58.276,32.276,58.5,32,58.5z M29.5,57.5h2V37H22c-0.276,0-0.5-0.224-0.5-0.5V31
				c0-0.276,0.224-0.5,0.5-0.5h25.5v-2H22c-0.276,0-0.5-0.224-0.5-0.5V13.5h-2V39H29c0.276,0,0.5,0.224,0.5,0.5V57.5z"/>
		</g>
	</g>
	<g>
		<g>
			<circle class="st2" cx="40.5" cy="20.5" r="2.5"/>
		</g>
	</g>
	<g>
		<g>
			<path class="st0" d="M40.5,25.5c-2.757,0-5-2.243-5-5s2.243-5,5-5s5,2.243,5,5S43.257,25.5,40.5,25.5z M40.5,16.5
				c-2.206,0-4,1.794-4,4s1.794,4,4,4s4-1.794,4-4S42.706,16.5,40.5,16.5z"/>
		</g>
	</g>
</g>
</svg>
