<?xml version="1.0" encoding="utf-8"?>
<!-- Generator: Adobe Illustrator 22.0.0, SVG Export Plug-In . SVG Version: 6.00 Build 0)  -->
<svg version="1.1" id="Layer_1" xmlns="http://www.w3.org/2000/svg" xmlns:xlink="http://www.w3.org/1999/xlink" x="0px" y="0px"
	 viewBox="0 0 64 64" style="enable-background:new 0 0 64 64;" xml:space="preserve">
<style type="text/css">
	.st0{fill:#263238;}
	.st1{fill:#FFD740;}
	.st2{fill:#40C4FF;}
	.st3{fill:#FF5252;}
	.st4{fill:#4FC3F7;}
	.st5{fill:#FFFFFF;}
	.st6{fill:#4DB6AC;}
	.st7{fill:#FFCA28;}
	.st8{fill:#37474F;}
</style>
<g>
	<g>
		<g>
			<path class="st6" d="M35.833,58.5H24.487c-5.913,0-10.846-4.193-11.825-10H2c0,8.284,6.716,15,15,15h22.387
				c-0.378-0.283-0.746-0.585-1.089-0.929C37.117,61.391,36.3,59.989,35.833,58.5z"/>
		</g>
	</g>
	<g>
		<g>
			<path class="st6" d="M52.504,48.5c3.788,3.86,3.811,10.023,0.076,13.916C58.098,60.201,62,54.811,62,48.5H52.504z"/>
		</g>
	</g>
	<g>
		<g>
			<path class="st0" d="M62,49h-9.496c-0.276,0-0.5-0.224-0.5-0.5s0.224-0.5,0.5-0.5H62c0.276,0,0.5,0.224,0.5,0.5S62.276,49,62,49z
				"/>
		</g>
	</g>
	<g>
		<g>
			<path class="st0" d="M12.662,49H2c-0.276,0-0.5-0.224-0.5-0.5S1.724,48,2,48h10.662c0.276,0,0.5,0.224,0.5,0.5
				S12.938,49,12.662,49z"/>
		</g>
	</g>
	<g>
		<g>
			<path class="st0" d="M28.5,10.071h-1c-0.276,0-0.5-0.224-0.5-0.5s0.224-0.5,0.5-0.5h1c0.276,0,0.5,0.224,0.5,0.5
				S28.776,10.071,28.5,10.071z"/>
		</g>
	</g>
	<g>
		<g>
			<path class="st0" d="M25.5,10.071h-10c-0.276,0-0.5-0.224-0.5-0.5s0.224-0.5,0.5-0.5h10c0.276,0,0.5,0.224,0.5,0.5
				S25.776,10.071,25.5,10.071z"/>
		</g>
	</g>
	<g>
		<g>
			<path class="st0" d="M46.357,31c-0.051,0-0.102-0.008-0.153-0.024c-0.263-0.084-0.408-0.365-0.323-0.629l9.643-30
				c0.085-0.263,0.367-0.408,0.629-0.322c0.263,0.084,0.408,0.365,0.323,0.629l-9.643,30C46.765,30.865,46.569,31,46.357,31z"/>
		</g>
	</g>
	<g>
		<g>
			<path class="st0" d="M52.357,31c-0.051,0-0.102-0.008-0.153-0.024c-0.263-0.084-0.408-0.365-0.323-0.629l9.643-30
				c0.085-0.263,0.368-0.408,0.629-0.322c0.263,0.084,0.408,0.365,0.323,0.629l-9.643,30C52.765,30.865,52.569,31,52.357,31z"/>
		</g>
	</g>
	<g>
		<g>
			<path class="st4" d="M40.967,10.072c0.005-1.105-0.887-2.004-1.991-2.009c-1.105-0.005-2.004,0.887-2.009,1.991
				c-1.105-0.005-2.004,0.887-2.009,1.991s0.887,2.004,1.991,2.009l4,0.018c1.105,0.005,2.004-0.887,2.009-1.991
				C42.963,10.976,42.071,10.077,40.967,10.072z"/>
		</g>
	</g>
	<g>
		<g>
			<path class="st0" d="M10.875,45.5c-0.276,0-0.5-0.224-0.5-0.5V25.731h-1V45c0,0.276-0.224,0.5-0.5,0.5s-0.5-0.224-0.5-0.5V25.231
				c0-0.276,0.224-0.5,0.5-0.5h2c0.276,0,0.5,0.224,0.5,0.5V45C11.375,45.276,11.151,45.5,10.875,45.5z"/>
		</g>
	</g>
	<g>
		<g>
			<polygon class="st3" points="20.875,29.232 10.875,25.232 10.875,33.232 			"/>
		</g>
		<g>
			<path class="st0" d="M10.875,33.731c-0.099,0-0.196-0.029-0.28-0.086c-0.137-0.093-0.22-0.248-0.22-0.414v-8
				c0-0.166,0.083-0.321,0.22-0.414c0.139-0.093,0.314-0.111,0.466-0.05l10,4c0.19,0.075,0.314,0.26,0.314,0.464
				s-0.125,0.389-0.314,0.464l-10,4C11,33.72,10.938,33.731,10.875,33.731z M11.375,25.97v6.523l8.154-3.262L11.375,25.97z"/>
		</g>
	</g>
	<g>
		<g>
			<path class="st0" d="M8,13.071H7c-0.276,0-0.5-0.224-0.5-0.5s0.224-0.5,0.5-0.5h1c0.276,0,0.5,0.224,0.5,0.5
				S8.276,13.071,8,13.071z"/>
		</g>
	</g>
	<g>
		<g>
			<path class="st0" d="M20,13.071H10c-0.276,0-0.5-0.224-0.5-0.5s0.224-0.5,0.5-0.5h10c0.276,0,0.5,0.224,0.5,0.5
				S20.276,13.071,20,13.071z"/>
		</g>
	</g>
	<g>
		<g>
			<path class="st1" d="M38.297,48.429c2.969-2.969,7.339-3.675,10.981-2.128l3.386-10.536c0.519-1.614-0.685-3.265-2.38-3.265
				h-4.748c-1.086,0-2.048,0.701-2.38,1.735l-1.791,5.573c-0.388,1.206-1.615,1.931-2.858,1.689l-18.68-3.642
				c-3.391-0.661-6.414,2.233-5.901,5.649l0.672,4.479c0.734,4.895,4.939,8.517,9.889,8.517H35.42l0,0
				C35.132,53.619,36.09,50.636,38.297,48.429z"/>
		</g>
	</g>
	<g>
		<g>
			<circle class="st5" cx="45.368" cy="55.5" r="8"/>
		</g>
		<g>
			<path class="st0" d="M45.369,63.996c-2.177,0-4.354-0.828-6.011-2.485c-3.313-3.314-3.313-8.707,0-12.021
				c3.314-3.313,8.706-3.315,12.021,0c3.313,3.314,3.313,8.707,0,12.021l0,0C49.722,63.168,47.545,63.996,45.369,63.996z
				 M45.369,48.004c-1.921,0-3.841,0.73-5.304,2.192c-2.923,2.925-2.923,7.683,0,10.607c2.925,2.925,7.683,2.924,10.607,0
				c2.923-2.925,2.923-7.683,0-10.607C49.21,48.734,47.289,48.004,45.369,48.004z M51.025,61.157h0.01H51.025z"/>
		</g>
	</g>
	<g>
		<g>
			<path class="st5" d="M49.3,52.982c0.828,0,1.5,0.672,1.5,1.5"/>
		</g>
		<g>
			<path class="st0" d="M50.8,54.982c-0.276,0-0.5-0.224-0.5-0.5c0-0.552-0.449-1-1-1c-0.276,0-0.5-0.224-0.5-0.5s0.224-0.5,0.5-0.5
				c1.103,0,2,0.897,2,2C51.3,54.759,51.077,54.982,50.8,54.982z"/>
		</g>
	</g>
	<g>
		<g>
			<path class="st5" d="M46.118,53.25c0.828,0,1.5,0.672,1.5,1.5"/>
		</g>
		<g>
			<path class="st0" d="M47.618,55.25c-0.276,0-0.5-0.224-0.5-0.5c0-0.552-0.449-1-1-1c-0.276,0-0.5-0.224-0.5-0.5
				s0.224-0.5,0.5-0.5c1.103,0,2,0.897,2,2C48.118,55.026,47.895,55.25,47.618,55.25z"/>
		</g>
	</g>
	<g>
		<g>
			<path class="st5" d="M46.429,50.111c0.828,0,1.5,0.672,1.5,1.5"/>
		</g>
		<g>
			<path class="st0" d="M47.929,52.111c-0.276,0-0.5-0.224-0.5-0.5c0-0.552-0.449-1-1-1c-0.276,0-0.5-0.224-0.5-0.5
				s0.224-0.5,0.5-0.5c1.103,0,2,0.897,2,2C48.429,51.888,48.206,52.111,47.929,52.111z"/>
		</g>
	</g>
	<g>
		<g>
			<path class="st5" d="M48.947,56.164c0.828,0,1.5,0.672,1.5,1.5"/>
		</g>
		<g>
			<path class="st0" d="M50.447,58.164c-0.276,0-0.5-0.224-0.5-0.5c0-0.552-0.449-1-1-1c-0.276,0-0.5-0.224-0.5-0.5
				s0.224-0.5,0.5-0.5c1.103,0,2,0.897,2,2C50.947,57.94,50.723,58.164,50.447,58.164z"/>
		</g>
	</g>
	<g>
		<g>
			<path class="st5" d="M43.247,50.464c0.828,0,1.5,0.672,1.5,1.5"/>
		</g>
		<g>
			<path class="st0" d="M44.747,52.465c-0.276,0-0.5-0.224-0.5-0.5c0-0.552-0.449-1-1-1c-0.276,0-0.5-0.224-0.5-0.5
				s0.224-0.5,0.5-0.5c1.103,0,2,0.897,2,2C45.247,52.241,45.023,52.465,44.747,52.465z"/>
		</g>
	</g>
	<g>
		<g>
			<path class="st0" d="M33.868,46h-16c-0.276,0-0.5-0.224-0.5-0.5s0.224-0.5,0.5-0.5h16c0.276,0,0.5,0.224,0.5,0.5
				S34.145,46,33.868,46z"/>
		</g>
	</g>
	<g>
		<g>
			<path class="st0" d="M35.868,51h-16c-0.276,0-0.5-0.224-0.5-0.5s0.224-0.5,0.5-0.5h16c0.276,0,0.5,0.224,0.5,0.5
				S36.145,51,35.868,51z"/>
		</g>
	</g>
	<g>
		<g>
			<path class="st0" d="M46.368,46.052c-0.051,0-0.102-0.008-0.153-0.024c-0.263-0.084-0.408-0.365-0.323-0.629l3.231-10.052
				c0.085-0.263,0.367-0.408,0.629-0.322c0.263,0.084,0.408,0.365,0.323,0.629l-3.231,10.052
				C46.776,45.917,46.58,46.052,46.368,46.052z"/>
		</g>
	</g>
	<g>
		<g>
			<path class="st0" d="M35.42,57H24.486c-5.239,0-9.606-3.761-10.384-8.942l-0.672-4.479c-0.269-1.791,0.328-3.537,1.637-4.789
				c1.308-1.253,3.077-1.771,4.855-1.426l18.68,3.642c0.993,0.197,1.977-0.386,2.287-1.351l1.792-5.573
				c0.4-1.245,1.548-2.082,2.856-2.082h4.748c0.97,0,1.854,0.449,2.424,1.233c0.571,0.783,0.729,1.762,0.432,2.685l-3.387,10.536
				c-0.084,0.264-0.365,0.409-0.629,0.322c-0.263-0.084-0.408-0.365-0.323-0.629l3.387-10.536c0.198-0.615,0.093-1.268-0.288-1.789
				C51.521,33.3,50.931,33,50.285,33h-4.748c-0.872,0-1.637,0.558-1.904,1.389l-1.792,5.573c-0.465,1.445-1.938,2.314-3.43,2.026
				l-18.68-3.642c-1.452-0.282-2.902,0.142-3.972,1.165c-1.071,1.025-1.559,2.453-1.339,3.919l0.672,4.479
				C15.795,52.598,19.746,56,24.486,56H35.42c0.276,0,0.5,0.224,0.5,0.5S35.696,57,35.42,57z"/>
		</g>
	</g>
</g>
</svg>
