<?xml version="1.0" encoding="utf-8"?>
<!-- Generator: Adobe Illustrator 22.0.0, SVG Export Plug-In . SVG Version: 6.00 Build 0)  -->
<svg version="1.1" id="Layer_1" xmlns="http://www.w3.org/2000/svg" xmlns:xlink="http://www.w3.org/1999/xlink" x="0px" y="0px"
	 viewBox="0 0 64 64" style="enable-background:new 0 0 64 64;" xml:space="preserve">
<style type="text/css">
	.st0{fill:#263238;}
	.st1{fill:#FFD740;}
	.st2{fill:#40C4FF;}
	.st3{fill:#FF5252;}
	.st4{fill:#4FC3F7;}
	.st5{fill:#FFFFFF;}
	.st6{fill:#4DB6AC;}
	.st7{fill:#FFCA28;}
	.st8{fill:#37474F;}
</style>
<g>
	<g>
		<g>
			<path class="st1" d="M35.283,23.146c-4.838-2.599-10.306-2.421-13.622,0.895c-1.024,1.024-1.747,2.255-2.181,3.609
				c-0.702,2.188-2.68,3.665-4.977,3.611c-3.49-0.084-6.736,1.017-9.105,3.387c-5.467,5.467-4.201,15.598,2.828,22.627c0,0,0,0,0,0
				s0,0,0,0c7.029,7.029,17.16,8.295,22.627,2.828c2.37-2.37,3.471-5.616,3.387-9.105c-0.055-2.297,1.423-4.275,3.611-4.977
				c1.354-0.434,2.585-1.157,3.609-2.181c3.316-3.316,3.494-8.784,0.894-13.622"/>
		</g>
		<g>
			<path class="st0" d="M22.112,63.989c-4.793,0-10.062-2.183-14.239-6.361c-3.478-3.478-5.695-7.807-6.243-12.191
				c-0.554-4.43,0.659-8.388,3.415-11.143c2.368-2.369,5.749-3.618,9.471-3.534c2.016,0.051,3.846-1.263,4.488-3.263
				c0.472-1.471,1.247-2.753,2.304-3.81c3.353-3.352,9.064-3.747,14.212-0.981c0.243,0.131,0.335,0.434,0.204,0.677
				c-0.131,0.244-0.435,0.334-0.677,0.204c-4.757-2.555-9.994-2.23-13.032,0.808c-0.943,0.943-1.636,2.09-2.059,3.409
				c-0.778,2.426-2.946,4.025-5.464,3.958c-3.468-0.086-6.567,1.068-8.74,3.241c-2.533,2.533-3.644,6.195-3.129,10.312
				c0.521,4.164,2.636,8.287,5.958,11.608c6.824,6.823,16.658,8.091,21.92,2.828c2.173-2.173,3.324-5.277,3.241-8.739
				c-0.06-2.491,1.531-4.687,3.958-5.465c1.318-0.422,2.465-1.115,3.408-2.059c3.038-3.038,3.362-8.275,0.808-13.032
				c-0.131-0.244-0.039-0.547,0.204-0.677c0.241-0.131,0.546-0.04,0.677,0.204c2.766,5.149,2.371,10.86-0.981,14.213
				c-1.058,1.057-2.339,1.833-3.811,2.304c-2,0.642-3.312,2.446-3.263,4.489c0.09,3.738-1.165,7.102-3.534,9.47
				C28.827,62.835,25.595,63.989,22.112,63.989z"/>
		</g>
	</g>
	<g>
		<g>
			
				<rect x="9.267" y="30.233" transform="matrix(0.7071 -0.7071 0.7071 0.7071 -14.0482 32.55)" class="st5" width="46" height="6"/>
		</g>
		<g>
			<path class="st0" d="M18.125,52.118c-0.128,0-0.256-0.049-0.354-0.146l-4.243-4.243c-0.195-0.195-0.195-0.512,0-0.707
				l32.527-32.527c0.195-0.195,0.512-0.195,0.707,0l4.243,4.243c0.094,0.094,0.146,0.221,0.146,0.354s-0.053,0.26-0.146,0.354
				L18.479,51.971C18.381,52.069,18.253,52.118,18.125,52.118z M14.589,47.375l3.536,3.536l31.82-31.82l-3.536-3.536L14.589,47.375z
				"/>
		</g>
	</g>
	<g>
		<g>
			<circle class="st2" cx="23.075" cy="42.425" r="6"/>
		</g>
		<g>
			<path class="st0" d="M23.075,48.922c-1.665,0-3.329-0.634-4.596-1.901c-2.534-2.534-2.534-6.658,0-9.192s6.658-2.534,9.192,0
				s2.534,6.658,0,9.192C26.404,48.289,24.74,48.922,23.075,48.922z M23.075,36.928c-1.409,0-2.817,0.536-3.889,1.608
				c-1.039,1.039-1.611,2.42-1.611,3.889s0.572,2.85,1.611,3.889s2.42,1.611,3.889,1.611s2.85-0.572,3.889-1.611
				s1.611-2.42,1.611-3.889s-0.572-2.85-1.611-3.889C25.892,37.464,24.483,36.928,23.075,36.928z"/>
		</g>
	</g>
	<g>
		<g>
			<path class="st0" d="M52.066,19.97c-0.801,0-1.555-0.312-2.121-0.879l-3.535-3.535c-0.566-0.567-0.879-1.32-0.879-2.122
				s0.312-1.555,0.879-2.121l6.363-6.364c1.169-1.168,3.072-1.171,4.243,0l3.535,3.536c1.17,1.17,1.17,3.073,0,4.243l-6.364,6.364
				C53.621,19.658,52.868,19.97,52.066,19.97z M54.896,5.071c-0.513,0-1.025,0.195-1.415,0.584l-6.363,6.364
				c-0.378,0.378-0.586,0.88-0.586,1.414s0.208,1.037,0.586,1.415l3.535,3.535c0.756,0.756,2.072,0.756,2.828,0l6.364-6.364
				c0.378-0.378,0.586-0.88,0.586-1.415c0-0.534-0.208-1.036-0.586-1.414L56.31,5.656C55.92,5.266,55.407,5.071,54.896,5.071z"/>
		</g>
	</g>
	<g>
		<g>
			<line class="st7" x1="11.761" y1="45.254" x2="20.247" y2="53.739"/>
		</g>
		<g>
			<path class="st8" d="M20.247,54.239c-0.128,0-0.256-0.049-0.354-0.146l-8.485-8.485c-0.195-0.195-0.195-0.512,0-0.707
				s0.512-0.195,0.707,0l8.485,8.485c0.195,0.195,0.195,0.512,0,0.707C20.502,54.19,20.375,54.239,20.247,54.239z"/>
		</g>
	</g>
	<g>
		<g>
			<path class="st0" d="M16.004,49.996c-0.128,0-0.256-0.049-0.354-0.146c-0.195-0.195-0.195-0.512,0-0.707l32.526-32.527
				c0.195-0.195,0.512-0.195,0.707,0s0.195,0.512,0,0.707L16.357,49.85C16.26,49.947,16.132,49.996,16.004,49.996z"/>
		</g>
	</g>
	<g>
		<g>
			<path class="st0" d="M18.125,52.118c-0.128,0-0.256-0.049-0.354-0.146l-4.243-4.243c-0.195-0.195-0.195-0.512,0-0.707
				l32.527-32.527c0.195-0.195,0.512-0.195,0.707,0l4.243,4.243c0.094,0.094,0.146,0.221,0.146,0.354s-0.053,0.26-0.146,0.354
				L18.479,51.971C18.381,52.069,18.253,52.118,18.125,52.118z M14.589,47.375l3.536,3.536l31.82-31.82l-3.536-3.536L14.589,47.375z
				"/>
		</g>
	</g>
	<g>
		<g>
			<path class="st0" d="M47.117,11.813L47.117,11.813c-0.133,0-0.26-0.053-0.354-0.146l-1.414-1.415
				c-0.195-0.195-0.195-0.512,0-0.707l5.656-5.657c0.188-0.188,0.52-0.188,0.707,0l1.414,1.414c0.195,0.195,0.195,0.512,0,0.707
				l-5.656,5.657C47.377,11.76,47.25,11.813,47.117,11.813z M46.41,9.898l0.707,0.708l4.949-4.95l-0.707-0.707L46.41,9.898z"/>
		</g>
	</g>
	<g>
		<g>
			<path class="st0" d="M49.945,8.984c-0.128,0-0.256-0.049-0.354-0.146l-1.414-1.414c-0.195-0.195-0.195-0.512,0-0.707
				s0.512-0.195,0.707,0l1.414,1.414c0.195,0.195,0.195,0.512,0,0.707C50.201,8.936,50.073,8.984,49.945,8.984z"/>
		</g>
	</g>
	<g>
		<g>
			<path class="st0" d="M55.603,20.298L55.603,20.298c-0.133,0-0.26-0.053-0.354-0.146l-1.414-1.415
				c-0.195-0.195-0.195-0.512,0-0.707l5.656-5.657c0.188-0.188,0.52-0.188,0.707,0l1.414,1.414c0.195,0.195,0.195,0.512,0,0.707
				l-5.656,5.657C55.862,20.246,55.735,20.298,55.603,20.298z M54.896,18.384l0.707,0.708l4.949-4.95l-0.707-0.707L54.896,18.384z"
				/>
		</g>
	</g>
	<g>
		<g>
			<path class="st0" d="M58.431,17.47c-0.128,0-0.256-0.049-0.354-0.146l-1.414-1.414c-0.195-0.195-0.195-0.512,0-0.707
				s0.512-0.195,0.707,0l1.414,1.414c0.195,0.195,0.195,0.512,0,0.707C58.687,17.421,58.559,17.47,58.431,17.47z"/>
		</g>
	</g>
	<g>
		<g>
			<path class="st0" d="M23.629,15h-2c-0.276,0-0.5-0.224-0.5-0.5s0.224-0.5,0.5-0.5h2c0.276,0,0.5,0.224,0.5,0.5
				S23.906,15,23.629,15z"/>
		</g>
	</g>
	<g>
		<g>
			<path class="st0" d="M38.13,15h-12.5c-0.276,0-0.5-0.224-0.5-0.5s0.224-0.5,0.5-0.5h12.5c0.276,0,0.5,0.224,0.5,0.5
				S38.406,15,38.13,15z"/>
		</g>
	</g>
	<g>
		<g>
			<path class="st0" d="M62,55.709h-2c-0.276,0-0.5-0.224-0.5-0.5s0.224-0.5,0.5-0.5h2c0.276,0,0.5,0.224,0.5,0.5
				S62.276,55.709,62,55.709z"/>
		</g>
	</g>
	<g>
		<g>
			<path class="st0" d="M58,55.709H45.5c-0.276,0-0.5-0.224-0.5-0.5s0.224-0.5,0.5-0.5H58c0.276,0,0.5,0.224,0.5,0.5
				S58.276,55.709,58,55.709z"/>
		</g>
	</g>
	<g>
		<g>
			<path class="st0" d="M53.854,46.209c-0.276,0-0.5-0.224-0.5-0.5v-6.5c0-0.166,0.082-0.321,0.22-0.414
				c0.137-0.092,0.312-0.112,0.466-0.05l2.5,1c0.19,0.076,0.314,0.26,0.314,0.464v2c0,0.276-0.224,0.5-0.5,0.5s-0.5-0.224-0.5-0.5
				v-1.662l-1.5-0.6v5.762C54.354,45.985,54.13,46.209,53.854,46.209z"/>
		</g>
	</g>
	<g>
		<g>
			<ellipse class="st6" cx="51.354" cy="45.709" rx="2.5" ry="1.5"/>
		</g>
		<g>
			<path class="st0" d="M51.354,47.709c-1.683,0-3-0.878-3-2s1.317-2,3-2s3,0.878,3,2S53.036,47.709,51.354,47.709z M51.354,44.709
				c-1.145,0-2,0.528-2,1s0.855,1,2,1s2-0.528,2-1S52.498,44.709,51.354,44.709z"/>
		</g>
	</g>
	<g>
		<g>
			<path class="st0" d="M13.629,12.5c-0.276,0-0.5-0.224-0.5-0.5V0.5c0-0.169,0.085-0.327,0.228-0.419
				c0.143-0.092,0.321-0.106,0.476-0.038l4.5,2c0.181,0.081,0.297,0.259,0.297,0.457V6c0,0.166-0.083,0.321-0.22,0.414
				c-0.137,0.093-0.312,0.112-0.466,0.05l-2.5-1c-0.256-0.103-0.381-0.394-0.279-0.65c0.103-0.257,0.396-0.382,0.65-0.279
				l1.814,0.726V2.825l-3.5-1.555V12C14.129,12.276,13.906,12.5,13.629,12.5z"/>
		</g>
	</g>
	<g>
		<g>
			<ellipse class="st3" cx="9.63" cy="12" rx="4" ry="2.5"/>
		</g>
		<g>
			<path class="st0" d="M9.629,15c-2.523,0-4.5-1.318-4.5-3s1.977-3,4.5-3s4.5,1.318,4.5,3S12.153,15,9.629,15z M9.629,10
				c-1.897,0-3.5,0.916-3.5,2s1.603,2,3.5,2s3.5-0.916,3.5-2S11.526,10,9.629,10z"/>
		</g>
	</g>
	<g>
		<g>
			<path class="st0" d="M49.238,13.934c-0.128,0-0.256-0.049-0.354-0.146c-0.195-0.195-0.195-0.512,0-0.707l5.657-5.657
				c0.195-0.195,0.512-0.195,0.707,0s0.195,0.512,0,0.707l-5.657,5.657C49.494,13.885,49.366,13.934,49.238,13.934z"/>
		</g>
	</g>
	<g>
		<g>
			<path class="st0" d="M52.066,16.763c-0.128,0-0.256-0.049-0.354-0.146c-0.195-0.195-0.195-0.512,0-0.707l5.657-5.657
				c0.195-0.195,0.512-0.195,0.707,0s0.195,0.512,0,0.707l-5.657,5.657C52.322,16.714,52.194,16.763,52.066,16.763z"/>
		</g>
	</g>
</g>
</svg>
