<?xml version="1.0" encoding="utf-8"?>
<!-- Generator: Adobe Illustrator 22.0.0, SVG Export Plug-In . SVG Version: 6.00 Build 0)  -->
<svg version="1.1" id="Layer_1" xmlns="http://www.w3.org/2000/svg" xmlns:xlink="http://www.w3.org/1999/xlink" x="0px" y="0px"
	 viewBox="0 0 64 64" style="enable-background:new 0 0 64 64;" xml:space="preserve">
<style type="text/css">
	.st0{fill:#263238;}
	.st1{fill:#FFD740;}
	.st2{fill:#40C4FF;}
	.st3{fill:#FF5252;}
	.st4{fill:#4FC3F7;}
	.st5{fill:#FFFFFF;}
	.st6{fill:#4DB6AC;}
	.st7{fill:#FFCA28;}
	.st8{fill:#37474F;}
</style>
<g>
	<g>
		<g>
			<path class="st0" d="M58.5,46.5H47c-0.276,0-0.5-0.224-0.5-0.5s0.224-0.5,0.5-0.5h11.5c0.276,0,0.5,0.224,0.5,0.5
				S58.776,46.5,58.5,46.5z"/>
		</g>
	</g>
	<g>
		<g>
			<path class="st0" d="M62.5,46.5h-2c-0.276,0-0.5-0.224-0.5-0.5s0.224-0.5,0.5-0.5h2c0.276,0,0.5,0.224,0.5,0.5
				S62.776,46.5,62.5,46.5z"/>
		</g>
	</g>
	<g>
		<g>
			<path class="st0" d="M3.5,46.5h-2C1.224,46.5,1,46.276,1,46s0.224-0.5,0.5-0.5h2C3.776,45.5,4,45.724,4,46S3.776,46.5,3.5,46.5z"
				/>
		</g>
	</g>
	<g>
		<g>
			<path class="st0" d="M17,46.5H5.5C5.224,46.5,5,46.276,5,46s0.224-0.5,0.5-0.5H17c0.276,0,0.5,0.224,0.5,0.5S17.276,46.5,17,46.5
				z"/>
		</g>
	</g>
	<g>
		<g>
			<path class="st0" d="M32,28.501c-4.687,0-8.5-3.813-8.5-8.5s3.813-8.5,8.5-8.5s8.5,3.813,8.5,8.5S36.687,28.501,32,28.501z
				 M32,12.501c-4.136,0-7.5,3.364-7.5,7.5s3.364,7.5,7.5,7.5s7.5-3.364,7.5-7.5S36.136,12.501,32,12.501z"/>
		</g>
	</g>
	<g>
		<g>
			<path class="st1" d="M37.547,15.375l0.596-0.496c-1.468-1.758-3.674-2.878-6.143-2.878c-4.418,0-8,3.582-8,8h0.755
				C29.429,20.001,33.955,18.364,37.547,15.375z"/>
		</g>
		<g>
			<path class="st0" d="M24.755,20.501H24c-0.276,0-0.5-0.224-0.5-0.5c0-4.687,3.813-8.5,8.5-8.5c2.526,0,4.905,1.114,6.527,3.058
				c0.085,0.102,0.126,0.233,0.114,0.365c-0.012,0.133-0.076,0.254-0.178,0.339l-0.596,0.496v0.001
				C34.192,18.817,29.536,20.501,24.755,20.501z M24.517,19.501h0.239c4.547,0,8.977-1.602,12.472-4.511l0.198-0.165
				c-1.414-1.482-3.364-2.324-5.426-2.324C28.033,12.501,24.775,15.598,24.517,19.501z M37.547,15.375h0.01H37.547z"/>
		</g>
	</g>
	<g>
		<g>
			<path class="st0" d="M32.003,31.096c-0.001,0-0.002,0-0.004,0c-1.373-0.001-2.649-0.683-3.413-1.823l0.83-0.559l0.002,0.003
				c0.586,0.875,1.528,1.378,2.583,1.379c0.001,0,0.002,0,0.003,0c1.053,0,1.993-0.5,2.582-1.374
				c0.154-0.229,0.464-0.289,0.694-0.136c0.229,0.154,0.29,0.465,0.135,0.694C34.649,30.417,33.375,31.096,32.003,31.096z"/>
		</g>
	</g>
	<g>
		<g>
			<path class="st0" d="M39,46.5H25c-0.276,0-0.5-0.224-0.5-0.5V34.5h-14c-1.654,0-3-1.346-3-3c0-1.653,1.345-3,2.999-3.001
				L28.5,28.491l0-1.074c0-0.166,0.083-0.321,0.22-0.415c0.139-0.091,0.314-0.11,0.467-0.049c1.809,0.73,3.824,0.727,5.625-0.006
				c0.155-0.064,0.329-0.044,0.468,0.048c0.138,0.094,0.221,0.249,0.221,0.415l0,1.09h18c1.654,0,3,1.346,3,3s-1.346,3-3,3h-14V46
				C39.5,46.276,39.276,46.5,39,46.5z M25.5,45.5h13V34c0-0.276,0.224-0.5,0.5-0.5h14.5c1.103,0,2-0.897,2-2s-0.897-2-2-2H35
				c-0.133,0-0.26-0.053-0.354-0.146S34.5,29.133,34.5,29l0-0.88c-1.622,0.503-3.375,0.507-5,0.005l0,0.866
				c0,0.276-0.224,0.5-0.5,0.5l-18.5,0.008c-1.103,0.001-2,0.898-2,2.001s0.897,2,2,2H25c0.276,0,0.5,0.224,0.5,0.5V45.5z"/>
		</g>
	</g>
	<g>
		<g>
			<path class="st3" d="M8,39.001c-4.136,0-7.5-3.364-7.5-7.5s3.364-7.5,7.5-7.5s7.5,3.364,7.5,7.5S12.136,39.001,8,39.001z
				 M8,27.001c-2.481,0-4.5,2.019-4.5,4.5s2.019,4.5,4.5,4.5s4.5-2.019,4.5-4.5S10.481,27.001,8,27.001z"/>
		</g>
		<g>
			<path class="st0" d="M8,39.501c-4.411,0-8-3.589-8-8s3.589-8,8-8s8,3.589,8,8S12.411,39.501,8,39.501z M8,24.501
				c-3.86,0-7,3.141-7,7s3.14,7,7,7s7-3.141,7-7S11.86,24.501,8,24.501z M8,36.501c-2.757,0-5-2.243-5-5s2.243-5,5-5s5,2.243,5,5
				S10.757,36.501,8,36.501z M8,27.501c-2.206,0-4,1.794-4,4s1.794,4,4,4s4-1.794,4-4S10.206,27.501,8,27.501z"/>
		</g>
	</g>
	<g>
		<g>
			<path class="st3" d="M56,39.001c-4.136,0-7.5-3.364-7.5-7.5s3.364-7.5,7.5-7.5s7.5,3.364,7.5,7.5S60.136,39.001,56,39.001z
				 M56,27.001c-2.481,0-4.5,2.019-4.5,4.5s2.019,4.5,4.5,4.5s4.5-2.019,4.5-4.5S58.481,27.001,56,27.001z"/>
		</g>
		<g>
			<path class="st0" d="M56,39.501c-4.411,0-8-3.589-8-8s3.589-8,8-8s8,3.589,8,8S60.411,39.501,56,39.501z M56,24.501
				c-3.86,0-7,3.141-7,7s3.14,7,7,7s7-3.141,7-7S59.86,24.501,56,24.501z M56,36.501c-2.757,0-5-2.243-5-5s2.243-5,5-5s5,2.243,5,5
				S58.757,36.501,56,36.501z M56,27.501c-2.206,0-4,1.794-4,4s1.794,4,4,4s4-1.794,4-4S58.206,27.501,56,27.501z"/>
		</g>
	</g>
	<g>
		<g>
			<path class="st0" d="M8,24.501c-0.276,0-0.5-0.224-0.5-0.5v-21c0-0.276,0.224-0.5,0.5-0.5s0.5,0.224,0.5,0.5v21
				C8.5,24.277,8.276,24.501,8,24.501z"/>
		</g>
	</g>
	<g>
		<g>
			<path class="st0" d="M56,24.501c-0.276,0-0.5-0.224-0.5-0.5v-21c0-0.276,0.224-0.5,0.5-0.5s0.5,0.224,0.5,0.5v21
				C56.5,24.277,56.276,24.501,56,24.501z"/>
		</g>
	</g>
	<g>
		<g>
			<path class="st0" d="M38.5,61.5c-0.006,0-0.011,0-0.017,0c-0.276-0.01-0.492-0.24-0.483-0.517L38.483,46.5H25.517L26,60.983
				c0.009,0.276-0.207,0.507-0.483,0.517C25.27,61.501,25.01,61.293,25,61.017l-0.5-15c-0.005-0.136,0.046-0.267,0.14-0.364
				S24.864,45.5,25,45.5h14c0.136,0,0.265,0.055,0.359,0.152s0.145,0.229,0.14,0.364l-0.5,15C38.991,61.287,38.769,61.5,38.5,61.5z"
				/>
		</g>
	</g>
	<g>
		<g>
			<path class="st0" d="M32,61.5c-0.276,0-0.5-0.224-0.5-0.5v-7.5c0-0.276,0.224-0.5,0.5-0.5s0.5,0.224,0.5,0.5V61
				C32.5,61.276,32.276,61.5,32,61.5z"/>
		</g>
	</g>
	<g>
		<g>
			<path class="st0" d="M42,7.001h-4c-0.276,0-0.5-0.224-0.5-0.5s0.224-0.5,0.5-0.5h4c0.276,0,0.5,0.224,0.5,0.5
				S42.276,7.001,42,7.001z"/>
		</g>
	</g>
	<g>
		<g>
			<path class="st0" d="M40,9.001c-0.276,0-0.5-0.224-0.5-0.5v-4c0-0.276,0.224-0.5,0.5-0.5s0.5,0.224,0.5,0.5v4
				C40.5,8.777,40.276,9.001,40,9.001z"/>
		</g>
	</g>
	<g>
		<g>
			<path class="st0" d="M47,11.501h-4c-0.276,0-0.5-0.224-0.5-0.5s0.224-0.5,0.5-0.5h4c0.276,0,0.5,0.224,0.5,0.5
				S47.276,11.501,47,11.501z"/>
		</g>
	</g>
	<g>
		<g>
			<path class="st0" d="M45,13.501c-0.276,0-0.5-0.224-0.5-0.5v-4c0-0.276,0.224-0.5,0.5-0.5s0.5,0.224,0.5,0.5v4
				C45.5,13.277,45.276,13.501,45,13.501z"/>
		</g>
	</g>
</g>
</svg>
