<?xml version="1.0" encoding="utf-8"?>
<!-- Generator: Adobe Illustrator 22.0.0, SVG Export Plug-In . SVG Version: 6.00 Build 0)  -->
<svg version="1.1" id="Layer_1" xmlns="http://www.w3.org/2000/svg" xmlns:xlink="http://www.w3.org/1999/xlink" x="0px" y="0px"
	 viewBox="0 0 64 64" style="enable-background:new 0 0 64 64;" xml:space="preserve">
<style type="text/css">
	.st0{fill:#263238;}
	.st1{fill:#FFD740;}
	.st2{fill:#40C4FF;}
	.st3{fill:#FF5252;}
	.st4{fill:#4FC3F7;}
	.st5{fill:#FFFFFF;}
	.st6{fill:#4DB6AC;}
	.st7{fill:#FFCA28;}
	.st8{fill:#37474F;}
</style>
<g>
	<g>
		<g>
			<path class="st0" d="M54,42h-9c-0.276,0-0.5-0.224-0.5-0.5S44.724,41,45,41h9c0.276,0,0.5,0.224,0.5,0.5S54.276,42,54,42z"/>
		</g>
	</g>
	<g>
		<g>
			<path class="st0" d="M58,42h-2c-0.276,0-0.5-0.224-0.5-0.5S55.724,41,56,41h2c0.276,0,0.5,0.224,0.5,0.5S58.276,42,58,42z"/>
		</g>
	</g>
	<g>
		<g>
			<path class="st0" d="M8,42H6c-0.276,0-0.5-0.224-0.5-0.5S5.724,41,6,41h2c0.276,0,0.5,0.224,0.5,0.5S8.276,42,8,42z"/>
		</g>
	</g>
	<g>
		<g>
			<path class="st0" d="M19,42h-9c-0.276,0-0.5-0.224-0.5-0.5S9.724,41,10,41h9c0.276,0,0.5,0.224,0.5,0.5S19.276,42,19,42z"/>
		</g>
	</g>
	<g>
		<g>
			<path class="st6" d="M18.34,36.589c4.783,2.761,11.16,0.67,11.16,0.67s-1.377-6.569-6.16-9.33s-11.16-0.67-11.16-0.67
				S13.557,33.828,18.34,36.589z"/>
		</g>
		<g>
			<path class="st0" d="M24.31,38.526c-1.976,0-4.218-0.348-6.22-1.503l0,0c-4.92-2.841-6.342-9.383-6.399-9.661
				c-0.053-0.25,0.091-0.498,0.333-0.578c0.271-0.088,6.646-2.128,11.566,0.712c4.92,2.84,6.342,9.383,6.399,9.661
				c0.053,0.25-0.091,0.498-0.333,0.578C29.496,37.787,27.188,38.526,24.31,38.526z M18.59,36.156
				c3.828,2.21,8.808,1.152,10.308,0.755c-0.408-1.499-1.986-6.344-5.808-8.549c-3.829-2.21-8.807-1.153-10.308-0.755
				C13.19,29.105,14.769,33.95,18.59,36.156L18.59,36.156z"/>
		</g>
	</g>
	<g>
		<g>
			<path class="st6" d="M45.661,36.589c-4.783,2.761-11.16,0.67-11.16,0.67s1.377-6.569,6.16-9.33s11.16-0.67,11.16-0.67
				S50.444,33.828,45.661,36.589z"/>
		</g>
		<g>
			<path class="st0" d="M39.691,38.526c-2.879,0-5.188-0.739-5.348-0.792c-0.242-0.08-0.386-0.328-0.333-0.578
				c0.058-0.277,1.48-6.82,6.399-9.661c4.921-2.84,11.297-0.8,11.567-0.712c0.242,0.08,0.386,0.328,0.333,0.578
				c-0.058,0.277-1.48,6.82-6.4,9.661l-0.25-0.433l0.25,0.433C43.909,38.178,41.666,38.526,39.691,38.526z M35.103,36.911
				c1.502,0.396,6.49,1.451,10.308-0.755c3.827-2.21,5.402-7.05,5.809-8.549c-1.501-0.396-6.486-1.453-10.309,0.755
				C37.084,30.572,35.509,35.413,35.103,36.911z"/>
		</g>
	</g>
	<g>
		<g>
			<path class="st0" d="M32,38.974c-0.084,0-0.168-0.021-0.243-0.063l-11.16-6.214c-0.241-0.134-0.328-0.439-0.193-0.68
				c0.134-0.243,0.438-0.326,0.68-0.194L32,37.901l10.917-6.079c0.24-0.132,0.546-0.048,0.68,0.194
				c0.135,0.241,0.048,0.546-0.193,0.68l-11.16,6.214C32.168,38.953,32.084,38.974,32,38.974z"/>
		</g>
	</g>
	<g>
		<g>
			<path class="st6" d="M18.34,21.589c4.783,2.761,11.16,0.67,11.16,0.67s-1.377-6.569-6.16-9.33s-11.16-0.67-11.16-0.67
				S13.557,18.828,18.34,21.589z"/>
		</g>
		<g>
			<path class="st0" d="M24.31,23.526c-1.976,0-4.218-0.348-6.22-1.503l0,0c-4.92-2.841-6.342-9.383-6.399-9.661
				c-0.053-0.25,0.091-0.498,0.333-0.578c0.271-0.088,6.646-2.129,11.566,0.712c4.92,2.84,6.342,9.383,6.399,9.661
				c0.053,0.25-0.091,0.498-0.333,0.578C29.496,22.787,27.188,23.526,24.31,23.526z M18.59,21.156
				c3.828,2.21,8.808,1.152,10.308,0.755c-0.408-1.499-1.986-6.344-5.808-8.549c-3.829-2.21-8.807-1.153-10.308-0.755
				C13.19,14.105,14.769,18.95,18.59,21.156L18.59,21.156z"/>
		</g>
	</g>
	<g>
		<g>
			<path class="st6" d="M45.661,21.589c-4.783,2.761-11.16,0.67-11.16,0.67s1.377-6.569,6.16-9.33s11.16-0.67,11.16-0.67
				S50.444,18.828,45.661,21.589z"/>
		</g>
		<g>
			<path class="st0" d="M39.691,23.526c-2.879,0-5.188-0.739-5.348-0.792c-0.242-0.08-0.386-0.328-0.333-0.578
				c0.058-0.277,1.48-6.82,6.399-9.661c4.921-2.841,11.297-0.8,11.567-0.712c0.242,0.08,0.386,0.328,0.333,0.578
				c-0.058,0.277-1.48,6.82-6.4,9.661l-0.25-0.433l0.25,0.433C43.909,23.178,41.666,23.526,39.691,23.526z M35.103,21.911
				c1.502,0.396,6.49,1.451,10.308-0.755c3.827-2.21,5.402-7.05,5.809-8.549c-1.501-0.396-6.486-1.453-10.309,0.755
				C37.084,15.572,35.509,20.413,35.103,21.911z"/>
		</g>
	</g>
	<g>
		<g>
			<path class="st0" d="M32,23.974c-0.084,0-0.168-0.021-0.243-0.063l-11.16-6.214c-0.241-0.134-0.328-0.439-0.193-0.68
				c0.134-0.243,0.438-0.326,0.68-0.194L32,22.901l10.917-6.079c0.24-0.132,0.546-0.049,0.68,0.194
				c0.135,0.241,0.048,0.546-0.193,0.68l-11.16,6.214C32.168,23.953,32.084,23.974,32,23.974z"/>
		</g>
	</g>
	<g>
		<g>
			<path class="st2" d="M2,46.5c0,8.284,6.716,15,15,15h30c8.284,0,15-6.716,15-15H2z"/>
		</g>
	</g>
	<g>
		<g>
			<path class="st0" d="M30,47H2c-0.276,0-0.5-0.224-0.5-0.5S1.724,46,2,46h28c0.276,0,0.5,0.224,0.5,0.5S30.276,47,30,47z"/>
		</g>
	</g>
	<g>
		<g>
			<path class="st0" d="M62,47H34c-0.276,0-0.5-0.224-0.5-0.5S33.724,46,34,46h28c0.276,0,0.5,0.224,0.5,0.5S62.276,47,62,47z"/>
		</g>
	</g>
	<g>
		<g>
			<line class="st6" x1="32" y1="23.474" x2="32" y2="48.518"/>
		</g>
		<g>
			<path class="st0" d="M32,49.018c-0.276,0-0.5-0.224-0.5-0.5V23.474c0-0.276,0.224-0.5,0.5-0.5s0.5,0.224,0.5,0.5v25.044
				C32.5,48.794,32.276,49.018,32,49.018z"/>
		</g>
	</g>
	<g>
		<g>
			<path class="st0" d="M37,56.518c-0.161,0-0.319-0.078-0.416-0.223L32,49.419l-4.584,6.876c-0.154,0.231-0.465,0.292-0.693,0.139
				c-0.229-0.153-0.292-0.463-0.139-0.693l5-7.5c0.186-0.278,0.646-0.278,0.832,0l5,7.5c0.153,0.23,0.091,0.54-0.139,0.693
				C37.192,56.491,37.096,56.518,37,56.518z"/>
		</g>
	</g>
	<g>
		<g>
			<path class="st0" d="M21.833,55.018c-0.222,0-0.424-0.147-0.483-0.371c-0.071-0.267,0.088-0.541,0.354-0.612l7.5-2
				c0.271-0.074,0.541,0.088,0.612,0.354c0.071,0.267-0.088,0.541-0.354,0.612l-7.5,2C21.919,55.013,21.875,55.018,21.833,55.018z"
				/>
		</g>
	</g>
	<g>
		<g>
			<path class="st0" d="M42.166,55.018c-0.042,0-0.086-0.005-0.129-0.017l-7.5-2c-0.267-0.071-0.426-0.345-0.354-0.612
				c0.07-0.266,0.342-0.428,0.612-0.354l7.5,2c0.267,0.071,0.426,0.345,0.354,0.612C42.59,54.871,42.388,55.018,42.166,55.018z"/>
		</g>
	</g>
	<g>
		<g>
			<path class="st0" d="M39,5h-4c-0.276,0-0.5-0.224-0.5-0.5S34.724,4,35,4h4c0.276,0,0.5,0.224,0.5,0.5S39.276,5,39,5z"/>
		</g>
	</g>
	<g>
		<g>
			<path class="st0" d="M37,7c-0.276,0-0.5-0.224-0.5-0.5v-4C36.5,2.224,36.724,2,37,2s0.5,0.224,0.5,0.5v4
				C37.5,6.776,37.276,7,37,7z"/>
		</g>
	</g>
	<g>
		<g>
			<path class="st0" d="M34,10.5h-4c-0.276,0-0.5-0.224-0.5-0.5s0.224-0.5,0.5-0.5h4c0.276,0,0.5,0.224,0.5,0.5S34.276,10.5,34,10.5
				z"/>
		</g>
	</g>
	<g>
		<g>
			<path class="st0" d="M32,12.5c-0.276,0-0.5-0.224-0.5-0.5V8c0-0.276,0.224-0.5,0.5-0.5s0.5,0.224,0.5,0.5v4
				C32.5,12.276,32.276,12.5,32,12.5z"/>
		</g>
	</g>
</g>
</svg>
