<?xml version="1.0" encoding="utf-8"?>
<!-- Generator: Adobe Illustrator 22.0.0, SVG Export Plug-In . SVG Version: 6.00 Build 0)  -->
<svg version="1.1" id="Layer_1" xmlns="http://www.w3.org/2000/svg" xmlns:xlink="http://www.w3.org/1999/xlink" x="0px" y="0px"
	 viewBox="0 0 64 64" style="enable-background:new 0 0 64 64;" xml:space="preserve">
<style type="text/css">
	.st0{fill:#263238;}
	.st1{fill:#FFD740;}
	.st2{fill:#40C4FF;}
	.st3{fill:#FF5252;}
	.st4{fill:#4FC3F7;}
	.st5{fill:#FFFFFF;}
	.st6{fill:#4DB6AC;}
	.st7{fill:#FFCA28;}
	.st8{fill:#37474F;}
</style>
<g>
	<g>
		<g>
			<path class="st0" d="M34.5,62.5h-28c-1.654,0-3-1.346-3-3V46.769C2.531,45.743,2,44.413,2,43c0-1.664,0.741-3.22,2.034-4.271
				c1.292-1.05,2.987-1.455,4.647-1.106c2.055,0.43,3.735,2.096,4.184,4.146c0.397,1.818-0.112,3.67-1.365,4.999V49.5h18v-2.731
				c-1.253-1.329-1.763-3.182-1.365-5c0.448-2.051,2.129-3.717,4.184-4.146c1.662-0.348,3.355,0.056,4.647,1.106
				C38.259,39.78,39,41.336,39,43c0,1.413-0.531,2.743-1.5,3.769V59.5C37.5,61.154,36.154,62.5,34.5,62.5z M7.511,38.502
				c-1.036,0-2.038,0.347-2.847,1.003C3.606,40.365,3,41.639,3,43c0,1.214,0.479,2.353,1.351,3.208
				C4.446,46.302,4.5,46.431,4.5,46.565V59.5c0,1.103,0.897,2,2,2h28c1.103,0,2-0.897,2-2V46.564c0-0.134,0.054-0.263,0.149-0.357
				C37.521,45.353,38,44.213,38,43c0-1.361-0.606-2.635-1.665-3.495c-1.058-0.859-2.448-1.188-3.812-0.903
				c-1.676,0.35-3.047,1.709-3.412,3.381c-0.339,1.55,0.124,3.13,1.239,4.225c0.096,0.094,0.149,0.222,0.149,0.356V50
				c0,0.276-0.224,0.5-0.5,0.5H11c-0.276,0-0.5-0.224-0.5-0.5v-3.436c0-0.134,0.054-0.263,0.149-0.357
				c1.115-1.094,1.578-2.674,1.239-4.224c-0.365-1.672-1.736-3.031-3.412-3.381C8.154,38.535,7.831,38.502,7.511,38.502z"/>
		</g>
	</g>
	<g>
		<g>
			<path class="st0" d="M33.5,36.506c-0.276,0-0.5-0.224-0.5-0.5V28c0-2.481-2.019-4.5-4.5-4.5h-16C10.019,23.5,8,25.519,8,28v8.005
				c0,0.276-0.224,0.5-0.5,0.5S7,36.282,7,36.005V28c0-3.033,2.468-5.5,5.5-5.5h16c3.032,0,5.5,2.467,5.5,5.5v8.006
				C34,36.282,33.776,36.506,33.5,36.506z"/>
		</g>
	</g>
	<g>
		<g>
			<path class="st2" d="M5.5,36.005V28c0-3.86,3.14-7,7-7h0.25h0.571L17,7H4v29.95c0.484-0.28,0.999-0.491,1.53-0.647
				C5.515,36.205,5.5,36.107,5.5,36.005z"/>
		</g>
	</g>
	<g>
		<g>
			<path class="st0" d="M4,37.45c-0.276,0-0.5-0.224-0.5-0.5V7c0-0.276,0.224-0.5,0.5-0.5S4.5,6.724,4.5,7v29.95
				C4.5,37.226,4.276,37.45,4,37.45z"/>
		</g>
	</g>
	<g>
		<g>
			<path class="st0" d="M13.321,21.5c-0.042,0-0.085-0.005-0.127-0.017c-0.268-0.07-0.427-0.343-0.356-0.61l3.679-14
				c0.069-0.267,0.342-0.426,0.61-0.356c0.268,0.07,0.427,0.343,0.356,0.61l-3.679,14C13.746,21.352,13.543,21.5,13.321,21.5z"/>
		</g>
	</g>
	<g>
		<g>
			<path class="st0" d="M59,50.5H44c-0.827,0-1.5-0.673-1.5-1.5v-1c0-0.827,0.673-1.5,1.5-1.5h15c0.827,0,1.5,0.673,1.5,1.5v1
				C60.5,49.827,59.827,50.5,59,50.5z M44,47.5c-0.275,0-0.5,0.224-0.5,0.5v1c0,0.276,0.225,0.5,0.5,0.5h15
				c0.275,0,0.5-0.224,0.5-0.5v-1c0-0.276-0.225-0.5-0.5-0.5H44z"/>
		</g>
	</g>
	<g>
		<g>
			<path class="st0" d="M55,62.5h-7c-0.827,0-1.5-0.673-1.5-1.5s0.673-1.5,1.5-1.5h2V50c0-0.276,0.224-0.5,0.5-0.5h2
				c0.276,0,0.5,0.224,0.5,0.5v9.5h2c0.827,0,1.5,0.673,1.5,1.5S55.827,62.5,55,62.5z M48,60.5c-0.275,0-0.5,0.224-0.5,0.5
				s0.225,0.5,0.5,0.5h7c0.275,0,0.5-0.224,0.5-0.5s-0.225-0.5-0.5-0.5h-2.5c-0.276,0-0.5-0.224-0.5-0.5v-9.5h-1V60
				c0,0.276-0.224,0.5-0.5,0.5H48z"/>
		</g>
	</g>
	<g>
		<g>
			<path class="st1" d="M55.5,40h-8c-0.552,0-1-0.448-1-1V29c0-0.552,0.448-1,1-1h8c0.552,0,1,0.448,1,1v10
				C56.5,39.552,56.052,40,55.5,40z"/>
		</g>
		<g>
			<path class="st0" d="M55.5,40.5h-8c-0.827,0-1.5-0.673-1.5-1.5V29c0-0.827,0.673-1.5,1.5-1.5h8c0.827,0,1.5,0.673,1.5,1.5v10
				C57,39.827,56.327,40.5,55.5,40.5z M47.5,28.5c-0.275,0-0.5,0.224-0.5,0.5v10c0,0.276,0.225,0.5,0.5,0.5h8
				c0.275,0,0.5-0.224,0.5-0.5V29c0-0.276-0.225-0.5-0.5-0.5H47.5z"/>
		</g>
	</g>
	<g>
		<g>
			<path class="st0" d="M56.5,45.5c-0.276,0-0.5-0.224-0.5-0.5c0-2.481-2.019-4.5-4.5-4.5S47,42.519,47,45
				c0,0.276-0.224,0.5-0.5,0.5S46,45.276,46,45c0-3.033,2.468-5.5,5.5-5.5S57,41.967,57,45C57,45.276,56.776,45.5,56.5,45.5z"/>
		</g>
	</g>
	<g>
		<g>
			<path class="st2" d="M56,26c1.381,0,2.5,1.119,2.5,2.5V40c0,0.681-0.342,1.28-0.861,1.641C58.187,42.639,58.5,43.783,58.5,45H59
				c0.352,0,0.686,0.072,1,0.184V7H47l4.571,19H56z"/>
		</g>
	</g>
	<g>
		<g>
			<path class="st2" d="M59,52h-4.5v6H55c1.654,0,3,1.346,3,3c0,0.352-0.072,0.686-0.184,1H60V51.816l0,0
				C59.686,51.928,59.352,52,59,52z"/>
		</g>
	</g>
	<g>
		<g>
			<path class="st0" d="M51.571,26.5c-0.227,0-0.431-0.154-0.486-0.383l-4.571-19c-0.064-0.269,0.101-0.539,0.369-0.604
				c0.271-0.065,0.538,0.102,0.604,0.369l4.571,19c0.064,0.269-0.101,0.539-0.369,0.604C51.649,26.496,51.609,26.5,51.571,26.5z"/>
		</g>
	</g>
	<g>
		<g>
			<path class="st0" d="M60,45.684c-0.276,0-0.5-0.224-0.5-0.5V7c0-0.276,0.224-0.5,0.5-0.5s0.5,0.224,0.5,0.5v38.184
				C60.5,45.46,60.276,45.684,60,45.684z"/>
		</g>
	</g>
	<g>
		<g>
			<path class="st0" d="M60,62.5c-0.276,0-0.5-0.224-0.5-0.5V51.816c0-0.276,0.224-0.5,0.5-0.5s0.5,0.224,0.5,0.5V62
				C60.5,62.276,60.276,62.5,60,62.5z"/>
		</g>
	</g>
	<g>
		<g>
			<path class="st0" d="M20.5,35.429c-1.469,0-2.851-0.572-3.889-1.611l-1.465-1.464c-0.195-0.195-0.195-0.512,0-0.707
				s0.512-0.195,0.707,0l1.465,1.464c0.85,0.85,1.979,1.318,3.182,1.318s2.332-0.468,3.182-1.318l1.465-1.464
				c0.195-0.195,0.512-0.195,0.707,0s0.195,0.512,0,0.707l-1.465,1.464C23.351,34.857,21.969,35.429,20.5,35.429z"/>
		</g>
	</g>
	<g>
		<g>
			<path class="st0" d="M25.5,38.358c-0.128,0-0.256-0.049-0.354-0.146l-1.465-1.464c-0.85-0.85-1.979-1.318-3.182-1.318
				s-2.332,0.468-3.182,1.318l-1.465,1.464c-0.195,0.195-0.512,0.195-0.707,0s-0.195-0.512,0-0.707l1.465-1.464
				c1.038-1.039,2.42-1.611,3.889-1.611s2.851,0.572,3.889,1.611l1.465,1.464c0.195,0.195,0.195,0.512,0,0.707
				C25.756,38.309,25.628,38.358,25.5,38.358z"/>
		</g>
	</g>
	<g>
		<g>
			<path class="st0" d="M41.75,27.5c-0.215,0-0.406-0.138-0.475-0.342l-0.415-1.244c-0.16-0.482-0.543-0.865-1.024-1.026
				l-1.244-0.415C38.388,24.406,38.25,24.215,38.25,24s0.138-0.406,0.342-0.474l1.244-0.415c0.481-0.161,0.864-0.544,1.024-1.026
				l0.415-1.244c0.137-0.408,0.812-0.408,0.949,0l0.415,1.244c0.16,0.481,0.543,0.865,1.024,1.026l1.244,0.415
				c0.204,0.068,0.342,0.259,0.342,0.474s-0.138,0.406-0.342,0.474l-1.244,0.415c-0.481,0.161-0.864,0.544-1.024,1.025l-0.415,1.244
				C42.156,27.362,41.965,27.5,41.75,27.5z M40.313,24c0.649,0.266,1.171,0.788,1.437,1.438c0.266-0.65,0.787-1.172,1.437-1.438
				c-0.649-0.266-1.171-0.789-1.437-1.438C41.484,23.211,40.963,23.734,40.313,24z"/>
		</g>
	</g>
	<g>
		<g>
			<path class="st0" d="M62,7.5H2C1.724,7.5,1.5,7.276,1.5,7V2c0-0.276,0.224-0.5,0.5-0.5h60c0.276,0,0.5,0.224,0.5,0.5v5
				C62.5,7.276,62.276,7.5,62,7.5z M2.5,6.5h59v-4h-59V6.5z"/>
		</g>
	</g>
	<g>
		<g>
			<path class="st0" d="M22.25,16.5h-1c-0.276,0-0.5-0.224-0.5-0.5s0.224-0.5,0.5-0.5h1c0.276,0,0.5,0.224,0.5,0.5
				S22.526,16.5,22.25,16.5z"/>
		</g>
	</g>
	<g>
		<g>
			<path class="st0" d="M34.25,16.5h-10c-0.276,0-0.5-0.224-0.5-0.5s0.224-0.5,0.5-0.5h10c0.276,0,0.5,0.224,0.5,0.5
				S34.526,16.5,34.25,16.5z"/>
		</g>
	</g>
	<g>
		<g>
			<path class="st0" d="M42.75,13.5h-1c-0.276,0-0.5-0.224-0.5-0.5s0.224-0.5,0.5-0.5h1c0.276,0,0.5,0.224,0.5,0.5
				S43.026,13.5,42.75,13.5z"/>
		</g>
	</g>
	<g>
		<g>
			<path class="st0" d="M39.75,13.5h-10c-0.276,0-0.5-0.224-0.5-0.5s0.224-0.5,0.5-0.5h10c0.276,0,0.5,0.224,0.5,0.5
				S40.026,13.5,39.75,13.5z"/>
		</g>
	</g>
	<g>
		<g>
			<path class="st0" d="M11,62.5c-0.276,0-0.5-0.224-0.5-0.5V50c0-0.276,0.224-0.5,0.5-0.5s0.5,0.224,0.5,0.5v12
				C11.5,62.276,11.276,62.5,11,62.5z"/>
		</g>
	</g>
	<g>
		<g>
			<path class="st0" d="M30,62.5c-0.276,0-0.5-0.224-0.5-0.5V50c0-0.276,0.224-0.5,0.5-0.5s0.5,0.224,0.5,0.5v12
				C30.5,62.276,30.276,62.5,30,62.5z"/>
		</g>
	</g>
	<g>
		<g>
			<path class="st0" d="M4,25c-0.066,0-0.133-0.013-0.197-0.041c-0.254-0.109-0.371-0.403-0.263-0.656l7.5-17.5
				c0.109-0.255,0.404-0.373,0.657-0.263c0.254,0.109,0.371,0.403,0.263,0.656l-7.5,17.5C4.378,24.887,4.193,25,4,25z"/>
		</g>
	</g>
	<g>
		<g>
			<path class="st0" d="M60,25c-0.193,0-0.378-0.113-0.46-0.303l-7.5-17.5c-0.108-0.253,0.009-0.547,0.263-0.656
				c0.252-0.109,0.547,0.007,0.657,0.263l7.5,17.5c0.108,0.253-0.009,0.547-0.263,0.656C60.133,24.987,60.066,25,60,25z"/>
		</g>
	</g>
	<g>
		<g>
			<path class="st0" d="M30.5,31.5c-0.276,0-0.5-0.224-0.5-0.5v-2.5c0-1.103-0.897-2-2-2h-2.5c-0.276,0-0.5-0.224-0.5-0.5
				s0.224-0.5,0.5-0.5H28c1.654,0,3,1.346,3,3V31C31,31.276,30.776,31.5,30.5,31.5z"/>
		</g>
	</g>
</g>
</svg>
