<?xml version="1.0" encoding="utf-8"?>
<!-- Generator: Adobe Illustrator 22.0.0, SVG Export Plug-In . SVG Version: 6.00 Build 0)  -->
<svg version="1.1" id="Layer_1" xmlns="http://www.w3.org/2000/svg" xmlns:xlink="http://www.w3.org/1999/xlink" x="0px" y="0px"
	 viewBox="0 0 64 64" style="enable-background:new 0 0 64 64;" xml:space="preserve">
<style type="text/css">
	.st0{fill:#263238;}
	.st1{fill:#FFD740;}
	.st2{fill:#40C4FF;}
	.st3{fill:#FF5252;}
	.st4{fill:#4FC3F7;}
	.st5{fill:#FFFFFF;}
	.st6{fill:#4DB6AC;}
	.st7{fill:#FFCA28;}
	.st8{fill:#37474F;}
</style>
<g>
	<g>
		<g>
			<path class="st0" d="M7,13.5H5c-0.276,0-0.5-0.224-0.5-0.5s0.224-0.5,0.5-0.5h2c0.276,0,0.5,0.224,0.5,0.5S7.276,13.5,7,13.5z"/>
		</g>
	</g>
	<g>
		<g>
			<path class="st0" d="M20.5,13.5H9c-0.276,0-0.5-0.224-0.5-0.5s0.224-0.5,0.5-0.5h11.5c0.276,0,0.5,0.224,0.5,0.5
				S20.776,13.5,20.5,13.5z"/>
		</g>
	</g>
	<g>
		<g>
			<path class="st0" d="M59,13.5h-2c-0.276,0-0.5-0.224-0.5-0.5s0.224-0.5,0.5-0.5h2c0.276,0,0.5,0.224,0.5,0.5S59.276,13.5,59,13.5
				z"/>
		</g>
	</g>
	<g>
		<g>
			<path class="st0" d="M55,13.5H43.5c-0.276,0-0.5-0.224-0.5-0.5s0.224-0.5,0.5-0.5H55c0.276,0,0.5,0.224,0.5,0.5
				S55.276,13.5,55,13.5z"/>
		</g>
	</g>
	<g>
		<g>
			<path class="st1" d="M19.56,18.813l8.182,13.296c1.952,3.173,6.564,3.173,8.517,0l8.182-13.296l-2.923-0.974l-7.388,12.006
				c-0.976,1.586-3.282,1.586-4.258,0l-7.388-12.006L19.56,18.813z"/>
		</g>
		<g>
			<path class="st0" d="M32,34.989c-1.925,0-3.676-0.979-4.685-2.618l-8.182-13.296c-0.08-0.13-0.097-0.289-0.044-0.433
				c0.052-0.144,0.167-0.255,0.312-0.304l2.923-0.975c0.218-0.074,0.462,0.014,0.584,0.213l7.389,12.006
				c0.366,0.596,1.003,0.952,1.703,0.952s1.337-0.356,1.703-0.952l7.389-12.006c0.121-0.198,0.366-0.287,0.584-0.213l2.923,0.975
				c0.145,0.049,0.26,0.16,0.312,0.304c0.053,0.144,0.036,0.303-0.044,0.433l-8.182,13.296C35.676,34.011,33.925,34.989,32,34.989z
				 M20.315,19.088l7.852,12.76c0.825,1.341,2.259,2.142,3.833,2.142s3.008-0.801,3.833-2.142l7.852-12.76l-1.949-0.649
				l-7.181,11.668c-0.55,0.895-1.505,1.429-2.555,1.429s-2.005-0.534-2.555-1.429l-7.181-11.668L20.315,19.088z"/>
		</g>
	</g>
	<g>
		<g>
			<path class="st0" d="M39.569,17.689c-0.053,0-0.105-0.008-0.158-0.025l-0.569-0.189C38.638,17.406,38.5,17.215,38.5,17V7
				c0-0.275-0.225-0.5-0.5-0.5H26c-0.275,0-0.5,0.225-0.5,0.5v10c0,0.215-0.138,0.406-0.342,0.475l-0.569,0.189
				c-0.262,0.088-0.545-0.055-0.633-0.316c-0.087-0.263,0.055-0.546,0.316-0.633L24.5,16.64V7c0-0.827,0.673-1.5,1.5-1.5h12
				c0.827,0,1.5,0.673,1.5,1.5v9.64l0.228,0.075c0.262,0.087,0.403,0.37,0.316,0.633C39.974,17.557,39.779,17.689,39.569,17.689z"/>
		</g>
	</g>
	<g>
		<g>
			<polygon class="st2" points="34.515,36.489 29.515,36.489 25.015,40.989 25.015,45.989 29.515,50.489 34.515,50.489 
				39.015,45.989 39.015,40.989 			"/>
		</g>
		<g>
			<path class="st0" d="M34.516,50.989h-5c-0.133,0-0.26-0.053-0.354-0.146l-4.5-4.5c-0.094-0.094-0.146-0.221-0.146-0.354v-5
				c0-0.133,0.053-0.26,0.146-0.354l4.5-4.5c0.094-0.094,0.221-0.146,0.354-0.146h5c0.133,0,0.26,0.053,0.354,0.146l4.5,4.5
				c0.094,0.094,0.146,0.221,0.146,0.354v5c0,0.133-0.053,0.26-0.146,0.354l-4.5,4.5C34.775,50.937,34.648,50.989,34.516,50.989z
				 M29.723,49.989h4.586l4.207-4.207v-4.586l-4.207-4.207h-4.586l-4.207,4.207v4.586L29.723,49.989z"/>
		</g>
	</g>
	<g>
		<g>
			<path class="st0" d="M32.016,49.989c-0.128,0-0.256-0.049-0.354-0.146l-6-6c-0.195-0.195-0.195-0.512,0-0.707l6-6
				c0.195-0.195,0.512-0.195,0.707,0l6,6c0.195,0.195,0.195,0.512,0,0.707l-6,6C32.271,49.94,32.144,49.989,32.016,49.989z
				 M26.723,43.489l5.293,5.293l5.293-5.293l-5.293-5.293L26.723,43.489z"/>
		</g>
	</g>
	<g>
		<g>
			<path class="st0" d="M34.516,46.489h-5c-0.276,0-0.5-0.224-0.5-0.5v-5c0-0.276,0.224-0.5,0.5-0.5h5c0.276,0,0.5,0.224,0.5,0.5v5
				C35.016,46.266,34.792,46.489,34.516,46.489z M30.016,45.489h4v-4h-4V45.489z"/>
		</g>
	</g>
	<g>
		<g>
			<path class="st0" d="M43.016,40.667c-0.215,0-0.406-0.138-0.475-0.342l-0.553-1.658c-0.23-0.692-0.781-1.243-1.473-1.473
				l-1.658-0.553c-0.204-0.068-0.342-0.26-0.342-0.475s0.138-0.406,0.342-0.475l1.658-0.553c0.691-0.23,1.242-0.781,1.473-1.473
				l0.553-1.658c0.137-0.408,0.812-0.408,0.949,0l0.553,1.658c0.229,0.691,0.78,1.241,1.472,1.473l1.659,0.553
				c0.204,0.068,0.342,0.26,0.342,0.475s-0.138,0.406-0.342,0.475l-1.659,0.553c-0.691,0.23-1.241,0.78-1.472,1.473l-0.553,1.658
				C43.422,40.529,43.23,40.667,43.016,40.667z M40.597,36.167l0.235,0.078c0.987,0.329,1.774,1.116,2.105,2.105l0.078,0.235
				l0.078-0.235c0.329-0.988,1.116-1.775,2.104-2.105l0.235-0.078l-0.235-0.078c-0.989-0.331-1.775-1.118-2.104-2.105l-0.078-0.235
				l-0.078,0.235c-0.33,0.988-1.117,1.775-2.105,2.105L40.597,36.167z"/>
		</g>
	</g>
	<g>
		<g>
			<path class="st0" d="M37.939,58.5H26.061c-7.693,0-14.294-5.747-15.353-13.368L8.114,26.458
				c-0.382-2.753,1.355-5.364,4.042-6.074l5.379-1.422c0.269-0.072,0.54,0.09,0.611,0.355c0.07,0.268-0.089,0.541-0.355,0.611
				l-5.379,1.422c-2.198,0.581-3.62,2.718-3.308,4.971l2.594,18.674c0.99,7.129,7.165,12.505,14.362,12.505h11.879
				c7.197,0,13.372-5.376,14.362-12.505l2.594-18.674c0.312-2.253-1.109-4.39-3.308-4.971l-5.379-1.422
				c-0.267-0.07-0.426-0.344-0.355-0.611c0.07-0.266,0.341-0.428,0.611-0.355l5.379,1.422c2.687,0.71,4.424,3.321,4.042,6.074
				l-2.594,18.674C52.233,52.753,45.633,58.5,37.939,58.5z"/>
		</g>
	</g>
	<g>
		<g>
			<path class="st0" d="M32.016,36.989c-0.276,0-0.5-0.224-0.5-0.5v-2c0-0.276,0.224-0.5,0.5-0.5s0.5,0.224,0.5,0.5v2
				C32.516,36.766,32.292,36.989,32.016,36.989z"/>
		</g>
	</g>
</g>
</svg>
