<?xml version="1.0" encoding="utf-8"?>
<!-- Generator: Adobe Illustrator 22.0.0, SVG Export Plug-In . SVG Version: 6.00 Build 0)  -->
<svg version="1.1" id="Layer_1" xmlns="http://www.w3.org/2000/svg" xmlns:xlink="http://www.w3.org/1999/xlink" x="0px" y="0px"
	 viewBox="0 0 64 64" style="enable-background:new 0 0 64 64;" xml:space="preserve">
<style type="text/css">
	.st0{fill:#263238;}
	.st1{fill:#FFD740;}
	.st2{fill:#40C4FF;}
	.st3{fill:#FF5252;}
	.st4{fill:#4FC3F7;}
	.st5{fill:#FFFFFF;}
	.st6{fill:#4DB6AC;}
	.st7{fill:#FFCA28;}
	.st8{fill:#37474F;}
</style>
<g>
	<g>
		<g>
			<path class="st0" d="M5,27.176H3c-0.276,0-0.5-0.224-0.5-0.5s0.224-0.5,0.5-0.5h2c0.276,0,0.5,0.224,0.5,0.5
				S5.276,27.176,5,27.176z"/>
		</g>
	</g>
	<g>
		<g>
			<path class="st0" d="M19.5,27.176H7c-0.276,0-0.5-0.224-0.5-0.5s0.224-0.5,0.5-0.5h12.5c0.276,0,0.5,0.224,0.5,0.5
				S19.776,27.176,19.5,27.176z"/>
		</g>
	</g>
	<g>
		<g>
			<path class="st0" d="M61,42.176h-2c-0.276,0-0.5-0.224-0.5-0.5s0.224-0.5,0.5-0.5h2c0.276,0,0.5,0.224,0.5,0.5
				S61.276,42.176,61,42.176z"/>
		</g>
	</g>
	<g>
		<g>
			<path class="st0" d="M57,42.176H44.5c-0.276,0-0.5-0.224-0.5-0.5s0.224-0.5,0.5-0.5H57c0.276,0,0.5,0.224,0.5,0.5
				S57.276,42.176,57,42.176z"/>
		</g>
	</g>
	<g>
		<g>
			<path class="st0" d="M51.224,57.676c-0.276,0-0.5-0.224-0.5-0.5v-6.5c0-0.166,0.083-0.321,0.22-0.414
				c0.138-0.092,0.313-0.11,0.466-0.05l2.5,1c0.19,0.076,0.314,0.26,0.314,0.464v2c0,0.276-0.224,0.5-0.5,0.5s-0.5-0.224-0.5-0.5
				v-1.662l-1.5-0.6v5.762C51.724,57.452,51.5,57.676,51.224,57.676z"/>
		</g>
	</g>
	<g>
		<g>
			<ellipse class="st6" cx="48.724" cy="57.176" rx="2.5" ry="1.5"/>
		</g>
		<g>
			<path class="st0" d="M48.724,59.176c-1.682,0-3-0.878-3-2s1.318-2,3-2s3,0.878,3,2S50.406,59.176,48.724,59.176z M48.724,56.176
				c-1.145,0-2,0.528-2,1s0.855,1,2,1s2-0.528,2-1S49.869,56.176,48.724,56.176z"/>
		</g>
	</g>
	<g>
		<g>
			<path class="st0" d="M19.724,14c-0.276,0-0.5-0.224-0.5-0.5V2c0-0.169,0.085-0.327,0.228-0.419
				c0.142-0.092,0.321-0.107,0.476-0.038l4.5,2C24.608,3.624,24.724,3.802,24.724,4v3.5c0,0.166-0.083,0.321-0.22,0.414
				s-0.312,0.112-0.466,0.05l-2.5-1c-0.256-0.103-0.381-0.394-0.279-0.65c0.103-0.257,0.395-0.382,0.65-0.279l1.814,0.726V4.325
				l-3.5-1.555V13.5C20.224,13.776,20,14,19.724,14z"/>
		</g>
	</g>
	<g>
		<g>
			<ellipse class="st3" cx="15.724" cy="13.5" rx="4" ry="2.5"/>
		</g>
		<g>
			<path class="st0" d="M15.724,16.5c-2.523,0-4.5-1.318-4.5-3s1.977-3,4.5-3s4.5,1.318,4.5,3S18.248,16.5,15.724,16.5z
				 M15.724,11.5c-1.897,0-3.5,0.916-3.5,2s1.603,2,3.5,2s3.5-0.916,3.5-2S17.621,11.5,15.724,11.5z"/>
		</g>
	</g>
	<g>
		<g>
			<circle class="st1" cx="42.513" cy="22.352" r="11"/>
		</g>
		<g>
			<path class="st0" d="M42.513,33.852c-3.072,0-5.959-1.196-8.131-3.368c-2.172-2.172-3.369-5.06-3.369-8.131
				s1.196-5.96,3.369-8.132c2.172-2.172,5.06-3.369,8.131-3.369s5.96,1.196,8.132,3.369c2.172,2.172,3.368,5.06,3.368,8.132
				s-1.196,5.959-3.368,8.131l0,0l0,0C48.473,32.656,45.584,33.852,42.513,33.852z M42.513,11.852c-2.805,0-5.441,1.092-7.424,3.076
				c-1.983,1.983-3.076,4.62-3.076,7.425s1.092,5.441,3.076,7.424c1.983,1.983,4.62,3.075,7.424,3.075s5.441-1.092,7.425-3.075l0,0
				c1.983-1.983,3.075-4.62,3.075-7.424s-1.092-5.441-3.075-7.425S45.317,11.852,42.513,11.852z"/>
		</g>
	</g>
	<g>
		<g>
			<path class="st0" d="M18.049,52.504c-0.771,0-1.54-0.294-2.122-0.877l-2.689-2.689c-1.118-1.118-1.174-2.921-0.128-4.106
				l18.24-20.67c0.125-0.143,0.321-0.2,0.505-0.152c0.184,0.05,0.323,0.2,0.36,0.386c0.403,2.043,1.397,3.904,2.874,5.381
				s3.337,2.47,5.38,2.874c0.187,0.037,0.336,0.177,0.386,0.36c0.049,0.184-0.009,0.379-0.152,0.505l-20.67,18.24
				C19.466,52.256,18.757,52.504,18.049,52.504z M31.464,25.542L13.859,45.494c-0.697,0.79-0.66,1.992,0.085,2.737l2.689,2.689
				c0.745,0.746,1.947,0.783,2.738,0.085L39.322,33.4c-1.863-0.535-3.556-1.532-4.94-2.917S32,27.406,31.464,25.542z"/>
		</g>
	</g>
	<g>
		<g>
			<path class="st5" d="M48.523,31.898L32.967,16.341c-0.391-0.391-0.391-1.024,0-1.414l2.121-2.121
				c0.391-0.391,1.024-0.391,1.414,0l15.556,15.556c0.391,0.391,0.391,1.024,0,1.414l-2.121,2.121
				C49.547,32.288,48.914,32.288,48.523,31.898z"/>
		</g>
		<g>
			<path class="st0" d="M49.23,32.69c-0.384,0-0.768-0.146-1.06-0.438L32.613,16.695c-0.584-0.585-0.584-1.536,0-2.121l2.122-2.122
				c0.585-0.584,1.537-0.583,2.121,0l15.556,15.557c0.585,0.585,0.585,1.536,0,2.121l-2.121,2.122
				C49.999,32.544,49.614,32.69,49.23,32.69z M35.795,13.013c-0.128,0-0.256,0.049-0.354,0.146l-2.122,2.121
				c-0.194,0.195-0.194,0.512,0,0.707l15.556,15.557c0.194,0.194,0.512,0.195,0.707,0l2.121-2.121c0.195-0.195,0.195-0.512,0-0.707
				L36.149,13.159C36.052,13.062,35.923,13.013,35.795,13.013z"/>
		</g>
	</g>
	<g>
		<g>
			<path class="st2" d="M26.957,39.322l-1.414-1.414c-0.391-0.391-0.391-1.024,0-1.414l4.243-4.243c0.391-0.391,1.024-0.391,1.414,0
				l1.414,1.414c0.391,0.391,0.391,1.024,0,1.414l-4.243,4.243C27.98,39.713,27.347,39.713,26.957,39.322z"/>
		</g>
		<g>
			<path class="st0" d="M27.664,40.114c-0.384,0-0.768-0.146-1.061-0.438l-1.414-1.414c-0.283-0.283-0.439-0.66-0.439-1.061
				c0-0.401,0.156-0.778,0.439-1.061l4.243-4.242c0.565-0.566,1.555-0.567,2.121,0l1.414,1.414c0.283,0.283,0.439,0.66,0.439,1.061
				c0,0.401-0.156,0.778-0.439,1.061l-4.243,4.242C28.432,39.968,28.048,40.114,27.664,40.114z M30.492,32.458
				c-0.134,0-0.259,0.052-0.353,0.146l-4.243,4.243c-0.095,0.095-0.146,0.22-0.146,0.354c0,0.133,0.052,0.259,0.146,0.354
				l1.414,1.414c0.195,0.195,0.512,0.195,0.707,0l4.243-4.243c0.095-0.095,0.146-0.22,0.146-0.354c0-0.133-0.052-0.259-0.146-0.354
				l-1.414-1.414C30.751,32.511,30.625,32.458,30.492,32.458z"/>
		</g>
	</g>
	<g>
		<g>
			<path class="st0" d="M14.936,62.5c-1.469,0-2.85-0.572-3.889-1.611c-1.039-1.039-1.611-2.42-1.611-3.889s0.572-2.851,1.611-3.889
				l3.535-3.535c0.195-0.195,0.512-0.195,0.707,0s0.195,0.512,0,0.707l-3.535,3.535c-1.754,1.755-1.754,4.609,0,6.364
				c0.85,0.85,1.98,1.318,3.182,1.318c1.202,0,2.332-0.468,3.182-1.318l7.071-7.071c2.145-2.145,5.634-2.144,7.778,0l3.536,3.536
				c0.195,0.195,0.195,0.512,0,0.707s-0.512,0.195-0.707,0l-3.536-3.536c-1.754-1.754-4.608-1.755-6.364,0l-7.071,7.071
				C17.786,61.928,16.405,62.5,14.936,62.5z"/>
		</g>
	</g>
</g>
</svg>
