<?xml version="1.0" encoding="utf-8"?>
<!-- Generator: Adobe Illustrator 22.0.0, SVG Export Plug-In . SVG Version: 6.00 Build 0)  -->
<svg version="1.1" id="Layer_1" xmlns="http://www.w3.org/2000/svg" xmlns:xlink="http://www.w3.org/1999/xlink" x="0px" y="0px"
	 viewBox="0 0 64 64" style="enable-background:new 0 0 64 64;" xml:space="preserve">
<style type="text/css">
	.st0{fill:#263238;}
	.st1{fill:#FFD740;}
	.st2{fill:#40C4FF;}
	.st3{fill:#FF5252;}
	.st4{fill:#4FC3F7;}
	.st5{fill:#FFFFFF;}
	.st6{fill:#4DB6AC;}
	.st7{fill:#FFCA28;}
	.st8{fill:#37474F;}
</style>
<g>
	<g>
		<path class="st2" d="M39.001,33v-7.5l-4.002-1.503c-1.358,2.265-4.64,2.266-5.999,0.001l-0.001-0.001l-4,1.5V33"/>
		<path class="st0" d="M24.999,33.5c-0.276,0-0.5-0.224-0.5-0.5v-7.502c0-0.208,0.129-0.395,0.324-0.468l3.999-1.5
			c0.227-0.083,0.48,0.004,0.604,0.211c0.548,0.912,1.509,1.456,2.572,1.456c0,0,0,0,0.001,0c1.062,0,2.023-0.544,2.57-1.456
			c0.124-0.207,0.378-0.296,0.604-0.211l4.002,1.502c0.195,0.073,0.324,0.26,0.324,0.468V33c0,0.276-0.224,0.5-0.5,0.5
			s-0.5-0.224-0.5-0.5v-7.153l-3.308-1.242c-0.752,1.004-1.918,1.592-3.194,1.592l0,0c-1.276,0-2.441-0.588-3.194-1.592
			l-3.306,1.239V33C25.499,33.276,25.275,33.5,24.999,33.5z"/>
	</g>
	<g>
		<rect x="25" y="36" class="st2" width="14.001" height="2.5"/>
	</g>
	<g>
		<path class="st0" d="M41.5,5.5h-4C37.224,5.5,37,5.276,37,5s0.224-0.5,0.5-0.5h4C41.776,4.5,42,4.724,42,5S41.776,5.5,41.5,5.5z"
			/>
	</g>
	<g>
		<path class="st0" d="M39.5,7.5C39.224,7.5,39,7.276,39,7V3c0-0.276,0.224-0.5,0.5-0.5S40,2.724,40,3v4
			C40,7.276,39.776,7.5,39.5,7.5z"/>
	</g>
	<g>
		<path class="st0" d="M46.5,10h-4C42.224,10,42,9.776,42,9.5S42.224,9,42.5,9h4C46.776,9,47,9.224,47,9.5S46.776,10,46.5,10z"/>
	</g>
	<g>
		<path class="st0" d="M44.5,12c-0.276,0-0.5-0.224-0.5-0.5v-4C44,7.224,44.224,7,44.5,7S45,7.224,45,7.5v4
			C45,11.776,44.776,12,44.5,12z"/>
	</g>
	<g>
		<path class="st0" d="M32,24c-4.136,0-7.5-3.364-7.5-7.5S27.864,9,32,9s7.5,3.364,7.5,7.5S36.136,24,32,24z M32,10
			c-3.584,0-6.5,2.916-6.5,6.5S28.416,23,32,23s6.5-2.916,6.5-6.5S35.584,10,32,10z"/>
	</g>
	<g>
		<path class="st1" d="M36.854,12.452l0.522-0.434C36.091,10.48,34.161,9.5,32,9.5c-3.866,0-7,3.134-7,7h0.661
			C29.75,16.5,33.71,15.068,36.854,12.452z"/>
		<path class="st0" d="M25.661,17H25c-0.276,0-0.5-0.224-0.5-0.5c0-4.136,3.364-7.5,7.5-7.5c2.229,0,4.328,0.983,5.759,2.698
			c0.085,0.102,0.126,0.233,0.114,0.366c-0.012,0.132-0.076,0.254-0.178,0.339l-0.521,0.434h-0.001
			C33.946,15.521,29.858,17,25.661,17z M25.519,16h0.143c3.964,0,7.825-1.396,10.873-3.932l0.121-0.102
			C35.435,10.711,33.764,10,32,10C28.584,10,25.775,12.648,25.519,16z M36.854,12.453h0.01H36.854z"/>
	</g>
	<g>
		<path class="st1" d="M38.295,52H25.705c-2.201,0-4.143-1.439-4.783-3.544L18.5,40.5h27l-2.421,7.956
			C42.438,50.561,40.496,52,38.295,52z"/>
		<path class="st0" d="M38.295,52.5h-12.59c-2.437,0-4.552-1.566-5.263-3.898l-2.421-7.957c-0.046-0.151-0.018-0.316,0.077-0.443
			C18.192,40.075,18.342,40,18.5,40h27c0.158,0,0.308,0.075,0.401,0.202c0.095,0.127,0.123,0.292,0.077,0.443l-2.422,7.956
			C42.847,50.934,40.732,52.5,38.295,52.5z M19.175,41l2.225,7.311c0.581,1.908,2.312,3.189,4.306,3.189h12.59
			c1.994,0,3.725-1.282,4.305-3.189L44.825,41H19.175z"/>
	</g>
	<g>
		<path class="st2" d="M45.917,46l-0.925,3.038C44.089,52.006,41.398,54,38.295,54H25.705c-3.103,0-5.793-1.994-6.697-4.962
			L18.083,46H1c0,8.284,6.716,15,15,15h32c8.284,0,15-6.716,15-15H45.917z"/>
	</g>
	<g>
		<path class="st0" d="M12.75,38.5h-8c-1.654,0-3-1.346-3-3v-2c0-1.654,1.346-3,3-3l8,0c1.654,0,3,1.346,3,3v2
			C15.75,37.154,14.404,38.5,12.75,38.5z M12.75,31.5l-8,0c-1.103,0-2,0.897-2,2v2c0,1.103,0.897,2,2,2h8c1.103,0,2-0.897,2-2v-2
			C14.75,32.397,13.853,31.5,12.75,31.5z"/>
	</g>
	<g>
		<path class="st0" d="M59.25,37.5h-7.999c-1.653,0-3-1.345-3.001-2.999c0,0,0,0,0,0v-2c0-1.654,1.346-3,3-3l8,0
			c1.654,0,3,1.346,3,3v2C62.25,36.154,60.904,37.5,59.25,37.5z M49.25,34.5c0.001,1.103,0.898,2,2.001,2h7.999c1.103,0,2-0.897,2-2
			v-2c0-1.103-0.897-2-2-2l-8,0c-1.103,0-2,0.897-2,2V34.5z"/>
	</g>
	<g>
		<polyline class="st5" points="43.999,36 48.75,36 48.75,33 15.25,33 15.25,36 18,36 		"/>
		<path class="st0" d="M15.25,36.5c-0.133,0-0.26-0.053-0.354-0.146S14.75,36.133,14.75,36v-3c0-0.276,0.224-0.5,0.5-0.5l33.5,0
			c0.133,0,0.26,0.053,0.354,0.146S49.25,32.867,49.25,33v3c0,0.276-0.224,0.5-0.5,0.5h-4.751c-0.276,0-0.5-0.224-0.5-0.5
			s0.224-0.5,0.5-0.5h4.251v-2l-32.5,0v2l2.25,0c0.276,0,0.5,0.224,0.5,0.5c0,0.276-0.224,0.5-0.5,0.5L15.25,36.5z"/>
	</g>
	<g>
		<path class="st0" d="M20,31.5c-0.276,0-0.5-0.224-0.5-0.5v-0.117c0-2.262,1.356-4.267,3.457-5.106l1.856-0.743
			c0.256-0.103,0.547,0.022,0.649,0.279c0.103,0.256-0.021,0.547-0.278,0.65l-1.856,0.743c-1.718,0.687-2.828,2.327-2.828,4.178V31
			C20.5,31.276,20.276,31.5,20,31.5z"/>
	</g>
	<g>
		<path class="st0" d="M43.999,31.5c-0.276,0-0.5-0.224-0.5-0.5v-0.118c0-1.851-1.11-3.49-2.828-4.178l-1.856-0.743
			c-0.257-0.103-0.381-0.394-0.278-0.65c0.103-0.257,0.394-0.381,0.649-0.279l1.856,0.743c2.101,0.84,3.457,2.845,3.457,5.106V31
			C44.499,31.276,44.275,31.5,43.999,31.5z"/>
	</g>
	<g>
		<path class="st0" d="M23.999,38.5H21c-0.827,0-1.5-0.673-1.5-1.5v-1c0-0.827,0.673-1.5,1.5-1.5h2.999c0.827,0,1.5,0.673,1.5,1.5v1
			C25.499,37.828,24.826,38.5,23.999,38.5z M21,35.5c-0.275,0-0.5,0.224-0.5,0.5v1c0,0.276,0.225,0.5,0.5,0.5h2.999
			c0.275,0,0.5-0.224,0.5-0.5v-1c0-0.276-0.225-0.5-0.5-0.5H21z"/>
	</g>
	<g>
		<path class="st0" d="M42.999,38.5H40c-0.827,0-1.5-0.673-1.5-1.5v-1c0-0.827,0.673-1.5,1.5-1.5h2.999c0.827,0,1.5,0.673,1.5,1.5v1
			C44.499,37.828,43.826,38.5,42.999,38.5z M40,35.5c-0.275,0-0.5,0.224-0.5,0.5v1c0,0.276,0.225,0.5,0.5,0.5h2.999
			c0.275,0,0.5-0.224,0.5-0.5v-1c0-0.276-0.225-0.5-0.5-0.5H40z"/>
	</g>
	<g>
		<path class="st0" d="M43.218,48.5H20.782c-0.276,0-0.5-0.224-0.5-0.5s0.224-0.5,0.5-0.5h22.436c0.276,0,0.5,0.224,0.5,0.5
			S43.494,48.5,43.218,48.5z"/>
	</g>
	<g>
		<path class="st0" d="M7,19.618H5c-0.276,0-0.5-0.224-0.5-0.5s0.224-0.5,0.5-0.5h2c0.276,0,0.5,0.224,0.5,0.5
			S7.276,19.618,7,19.618z"/>
	</g>
	<g>
		<path class="st0" d="M20.5,19.618H9c-0.276,0-0.5-0.224-0.5-0.5s0.224-0.5,0.5-0.5h11.5c0.276,0,0.5,0.224,0.5,0.5
			S20.776,19.618,20.5,19.618z"/>
	</g>
	<g>
		<path class="st0" d="M59,19.618h-2c-0.276,0-0.5-0.224-0.5-0.5s0.224-0.5,0.5-0.5h2c0.276,0,0.5,0.224,0.5,0.5
			S59.276,19.618,59,19.618z"/>
	</g>
	<g>
		<path class="st0" d="M55,19.618H43.5c-0.276,0-0.5-0.224-0.5-0.5s0.224-0.5,0.5-0.5H55c0.276,0,0.5,0.224,0.5,0.5
			S55.276,19.618,55,19.618z"/>
	</g>
	<g>
		<path class="st0" d="M37,36.405H27c-0.276,0-0.5-0.224-0.5-0.5s0.224-0.5,0.5-0.5h10c0.276,0,0.5,0.224,0.5,0.5
			S37.276,36.405,37,36.405z"/>
	</g>
	<g>
		<path class="st0" d="M39.001,39c-0.276,0-0.5-0.224-0.5-0.5v-2.595c0-0.276,0.224-0.5,0.5-0.5s0.5,0.224,0.5,0.5V38.5
			C39.501,38.776,39.277,39,39.001,39z"/>
	</g>
	<g>
		<path class="st0" d="M25,39.095c-0.276,0-0.5-0.224-0.5-0.5V36c0-0.276,0.224-0.5,0.5-0.5s0.5,0.224,0.5,0.5v2.595
			C25.5,38.871,25.276,39.095,25,39.095z"/>
	</g>
</g>
</svg>
