<?xml version="1.0" encoding="utf-8"?>
<!-- Generator: Adobe Illustrator 22.0.0, SVG Export Plug-In . SVG Version: 6.00 Build 0)  -->
<svg version="1.1" id="Layer_1" xmlns="http://www.w3.org/2000/svg" xmlns:xlink="http://www.w3.org/1999/xlink" x="0px" y="0px"
	 viewBox="0 0 64 64" style="enable-background:new 0 0 64 64;" xml:space="preserve">
<style type="text/css">
	.st0{fill:#263238;}
	.st1{fill:#FFD740;}
	.st2{fill:#40C4FF;}
	.st3{fill:#FF5252;}
	.st4{fill:#4FC3F7;}
	.st5{fill:#FFFFFF;}
	.st6{fill:#4DB6AC;}
	.st7{fill:#FFCA28;}
	.st8{fill:#37474F;}
</style>
<g>
	<g>
		<g>
			<path class="st0" d="M32,59C19.317,59,9,48.683,9,36v-8C9,15.317,19.317,5,32,5s23,10.317,23,23v8C55,48.683,44.682,59,32,59z
				 M32,6c-12.131,0-22,9.869-22,22v8c0,12.131,9.869,22,22,22h0c12.13,0,22-9.869,22-22v-8C54,15.869,44.13,6,32,6z"/>
		</g>
	</g>
	<g>
		<g>
			<path class="st0" d="M32,63c-0.276,0-0.5-0.224-0.5-0.5S31.723,62,32,62c14.336,0,26-11.663,26-26c0-0.276,0.224-0.5,0.5-0.5
				S59,35.724,59,36C59,50.888,46.887,63,32,63z M5.5,28.5C5.223,28.5,5,28.276,5,28C5,13.112,17.112,1,32,1
				c0.276,0,0.5,0.224,0.5,0.5S32.276,2,32,2C17.663,2,6,13.663,6,28C6,28.276,5.776,28.5,5.5,28.5z"/>
		</g>
	</g>
	<g>
		<g>
			<path class="st1" d="M46,44.5H18V19c0-1.381,1.119-2.5,2.5-2.5h23c1.381,0,2.5,1.119,2.5,2.5V44.5z"/>
		</g>
		<g>
			<path class="st0" d="M46,45H18c-0.276,0-0.5-0.224-0.5-0.5V19c0-1.654,1.346-3,3-3h23c1.654,0,3,1.346,3,3v25.5
				C46.5,44.776,46.276,45,46,45z M18.5,44h27V19c0-1.103-0.897-2-2-2h-23c-1.103,0-2,0.897-2,2V44z"/>
		</g>
	</g>
	<g>
		<g>
			<path class="st5" d="M26.148,25.828L26.148,25.828c-1.531,0.634-3.286-0.093-3.92-1.624l-0.765-1.848
				c-0.211-0.51,0.031-1.095,0.541-1.307l3.696-1.531c0.51-0.211,1.095,0.031,1.307,0.541l0.765,1.848
				C28.405,23.439,27.679,25.194,26.148,25.828z"/>
		</g>
		<g>
			<path class="st0" d="M25.004,26.557c-1.374,0-2.68-0.814-3.238-2.16l-0.765-1.848c-0.153-0.37-0.153-0.778,0-1.148
				s0.441-0.658,0.812-0.812l3.695-1.531c0.765-0.314,1.643,0.048,1.959,0.812l0.766,1.848c0.738,1.784-0.111,3.835-1.894,4.573
				C25.903,26.471,25.45,26.557,25.004,26.557z M26.082,19.943c-0.064,0-0.128,0.013-0.19,0.038l-3.696,1.531
				c-0.124,0.051-0.22,0.147-0.271,0.271c-0.051,0.123-0.051,0.26,0,0.383l0.765,1.848c0.527,1.272,1.993,1.88,3.267,1.353
				s1.88-1.993,1.353-3.267l-0.766-1.848C26.464,20.06,26.278,19.943,26.082,19.943z"/>
		</g>
	</g>
	<g>
		<g>
			<path class="st5" d="M37.852,25.828L37.852,25.828c-1.531-0.634-2.258-2.389-1.624-3.92l0.765-1.848
				c0.211-0.51,0.796-0.753,1.307-0.541l3.696,1.531c0.51,0.211,0.753,0.796,0.541,1.307l-0.765,1.848
				C41.137,25.735,39.382,26.462,37.852,25.828z"/>
		</g>
		<g>
			<path class="st0" d="M38.995,26.557c-0.446,0-0.898-0.086-1.335-0.267c-1.783-0.738-2.632-2.789-1.894-4.573l0.766-1.848
				c0.317-0.764,1.197-1.127,1.959-0.812l3.696,1.531c0.37,0.153,0.658,0.441,0.812,0.812s0.153,0.778,0,1.148l-0.765,1.848
				C41.676,25.742,40.369,26.557,38.995,26.557z M37.918,19.943c-0.196,0-0.383,0.116-0.462,0.309L36.69,22.1
				c-0.527,1.273,0.08,2.739,1.353,3.267c1.275,0.526,2.74-0.081,3.267-1.353l0.765-1.848c0.051-0.123,0.051-0.26,0-0.383
				c-0.051-0.123-0.147-0.22-0.27-0.271l-3.696-1.531C38.046,19.956,37.982,19.943,37.918,19.943z"/>
		</g>
	</g>
	<g>
		<g>
			<path class="st5" d="M39.297,31.936l-0.74-5.922c-0.237-0.036-0.474-0.091-0.705-0.186c-1.531-0.634-2.258-2.389-1.624-3.92
				l0.146-0.352h-8.748l0.146,0.352c0.634,1.531-0.093,3.286-1.624,3.92c-0.232,0.096-0.468,0.151-0.705,0.186l-0.74,5.922
				c-0.373,2.984,1.954,5.62,4.961,5.62h4.672C37.343,37.557,39.67,34.921,39.297,31.936z"/>
		</g>
		<g>
			<path class="st0" d="M34.336,38.057h-4.672c-1.577,0-3.08-0.678-4.124-1.86c-1.043-1.182-1.53-2.757-1.334-4.322l0.74-5.922
				c0.028-0.223,0.201-0.399,0.423-0.432c0.225-0.034,0.417-0.084,0.588-0.154c1.273-0.527,1.88-1.993,1.353-3.267l-0.146-0.352
				c-0.064-0.154-0.047-0.33,0.046-0.469c0.093-0.14,0.249-0.223,0.416-0.223h8.749c0.167,0,0.323,0.083,0.416,0.223
				c0.093,0.139,0.11,0.314,0.046,0.469L36.69,22.1c-0.527,1.273,0.08,2.739,1.353,3.267c0.169,0.07,0.361,0.12,0.587,0.154
				c0.222,0.032,0.395,0.209,0.423,0.432l0.74,5.922c0.196,1.565-0.291,3.141-1.334,4.322
				C37.416,37.379,35.913,38.057,34.336,38.057z M25.894,26.436l-0.695,5.563c-0.16,1.279,0.238,2.568,1.092,3.536
				c0.854,0.967,2.083,1.521,3.374,1.521h4.672c1.29,0,2.52-0.555,3.374-1.521c0.854-0.968,1.252-2.257,1.092-3.536l-0.695-5.563
				c-0.158-0.039-0.306-0.088-0.445-0.146c-1.671-0.691-2.522-2.536-2.015-4.233h-7.292c0.507,1.697-0.344,3.542-2.015,4.233
				C26.199,26.348,26.051,26.396,25.894,26.436z"/>
		</g>
	</g>
	<g>
		<g>
			<path class="st0" d="M32,32.057c-1.378,0-2.5-0.897-2.5-2s1.122-2,2.5-2s2.5,0.897,2.5,2S33.378,32.057,32,32.057z M32,29.057
				c-0.813,0-1.5,0.458-1.5,1s0.687,1,1.5,1s1.5-0.458,1.5-1S32.812,29.057,32,29.057z"/>
		</g>
	</g>
	<g>
		<g>
			<path class="st0" d="M30.5,34.557c-1.103,0-2-0.897-2-2c0-0.276,0.224-0.5,0.5-0.5s0.5,0.224,0.5,0.5c0,0.552,0.449,1,1,1
				s1-0.448,1-1v-1c0-0.276,0.224-0.5,0.5-0.5s0.5,0.224,0.5,0.5v1C32.5,33.659,31.603,34.557,30.5,34.557z"/>
		</g>
	</g>
	<g>
		<g>
			<path class="st0" d="M33.5,34.557c-1.103,0-2-0.897-2-2v-1c0-0.276,0.224-0.5,0.5-0.5s0.5,0.224,0.5,0.5v1c0,0.552,0.449,1,1,1
				s1-0.448,1-1c0-0.276,0.224-0.5,0.5-0.5s0.5,0.224,0.5,0.5C35.5,33.659,34.603,34.557,33.5,34.557z"/>
		</g>
	</g>
	<g>
		<g>
			<path class="st0" d="M41,50H23c-3.033,0-5.5-2.468-5.5-5.5c0-0.276,0.224-0.5,0.5-0.5h28c0.276,0,0.5,0.224,0.5,0.5
				C46.5,47.532,44.032,50,41,50z M18.527,45c0.25,2.247,2.16,4,4.472,4h18c2.312,0,4.222-1.753,4.472-4H18.527z"/>
		</g>
	</g>
	<g>
		<g>
			<rect x="27" y="44.5" class="st2" width="10" height="5"/>
		</g>
		<g>
			<path class="st0" d="M37,50H27c-0.276,0-0.5-0.224-0.5-0.5v-5c0-0.276,0.224-0.5,0.5-0.5h10c0.276,0,0.5,0.224,0.5,0.5v5
				C37.5,49.776,37.276,50,37,50z M27.5,49h9v-4h-9V49z"/>
		</g>
	</g>
	<g>
		<g>
			<path class="st0" d="M35,13h-6c-0.827,0-1.5-0.673-1.5-1.5v-1C27.5,9.673,28.172,9,29,9h6c0.827,0,1.5,0.673,1.5,1.5v1
				C36.5,12.327,35.827,13,35,13z M29,10c-0.276,0-0.5,0.225-0.5,0.5v1c0,0.275,0.224,0.5,0.5,0.5h6c0.276,0,0.5-0.225,0.5-0.5v-1
				c0-0.275-0.224-0.5-0.5-0.5H29z"/>
		</g>
	</g>
	<g>
		<g>
			<path class="st3" d="M37,40.557H27c-0.552,0-1-0.448-1-1v-1c0-0.552,0.448-1,1-1h10c0.552,0,1,0.448,1,1v1
				C38,40.109,37.552,40.557,37,40.557z"/>
		</g>
		<g>
			<path class="st0" d="M37,41.057H27c-0.827,0-1.5-0.673-1.5-1.5v-1c0-0.827,0.673-1.5,1.5-1.5h10c0.827,0,1.5,0.673,1.5,1.5v1
				C38.5,40.384,37.827,41.057,37,41.057z M27,38.057c-0.276,0-0.5,0.225-0.5,0.5v1c0,0.275,0.224,0.5,0.5,0.5h10
				c0.276,0,0.5-0.225,0.5-0.5v-1c0-0.275-0.224-0.5-0.5-0.5H27z"/>
		</g>
	</g>
	<g>
		<g>
			<circle class="st5" cx="32" cy="40.557" r="2"/>
		</g>
		<g>
			<path class="st0" d="M32,43.057c-1.378,0-2.5-1.121-2.5-2.5s1.122-2.5,2.5-2.5s2.5,1.121,2.5,2.5S33.378,43.057,32,43.057z
				 M32,39.057c-0.827,0-1.5,0.673-1.5,1.5s0.673,1.5,1.5,1.5s1.5-0.673,1.5-1.5S32.827,39.057,32,39.057z"/>
		</g>
	</g>
	<g>
		<g>
			<path class="st0" d="M33,2h-2c-0.276,0-0.5-0.224-0.5-0.5S30.723,1,31,1h2c0.276,0,0.5,0.224,0.5,0.5S33.276,2,33,2z"/>
		</g>
	</g>
	<g>
		<g>
			<path class="st0" d="M33,63h-2c-0.276,0-0.5-0.224-0.5-0.5S30.723,62,31,62h2c0.276,0,0.5,0.224,0.5,0.5S33.276,63,33,63z"/>
		</g>
	</g>
	<g>
		<g>
			<path class="st0" d="M51.5,5h-4C47.223,5,47,4.776,47,4.5S47.223,4,47.5,4h4C51.776,4,52,4.224,52,4.5S51.776,5,51.5,5z"/>
		</g>
	</g>
	<g>
		<g>
			<path class="st0" d="M49.5,7C49.223,7,49,6.776,49,6.5v-4C49,2.224,49.223,2,49.5,2S50,2.224,50,2.5v4C50,6.776,49.776,7,49.5,7z
				"/>
		</g>
	</g>
	<g>
		<g>
			<path class="st0" d="M58.5,11.5h-4c-0.276,0-0.5-0.224-0.5-0.5s0.224-0.5,0.5-0.5h4c0.276,0,0.5,0.224,0.5,0.5
				S58.776,11.5,58.5,11.5z"/>
		</g>
	</g>
	<g>
		<g>
			<path class="st0" d="M56.5,13.5c-0.276,0-0.5-0.224-0.5-0.5V9c0-0.276,0.224-0.5,0.5-0.5S57,8.724,57,9v4
				C57,13.276,56.776,13.5,56.5,13.5z"/>
		</g>
	</g>
</g>
</svg>
