<?xml version="1.0" encoding="utf-8"?>
<!-- Generator: Adobe Illustrator 22.0.0, SVG Export Plug-In . SVG Version: 6.00 Build 0)  -->
<svg version="1.1" id="Layer_1" xmlns="http://www.w3.org/2000/svg" xmlns:xlink="http://www.w3.org/1999/xlink" x="0px" y="0px"
	 viewBox="0 0 64 64" style="enable-background:new 0 0 64 64;" xml:space="preserve">
<style type="text/css">
	.st0{fill:#263238;}
	.st1{fill:#FFD740;}
	.st2{fill:#40C4FF;}
	.st3{fill:#FF5252;}
	.st4{fill:#4FC3F7;}
	.st5{fill:#FFFFFF;}
	.st6{fill:#4DB6AC;}
	.st7{fill:#FFCA28;}
	.st8{fill:#37474F;}
</style>
<g>
	<g>
		<g>
			<path class="st0" d="M29.75,55.75h-20c-0.276,0-0.5-0.224-0.5-0.5s0.224-0.5,0.5-0.5h20c0.276,0,0.5,0.224,0.5,0.5
				S30.026,55.75,29.75,55.75z"/>
		</g>
	</g>
	<g>
		<g>
			<circle class="st3" cx="9.75" cy="55.25" r="2.5"/>
		</g>
		<g>
			<path class="st0" d="M9.75,58.25c-1.654,0-3-1.346-3-3s1.346-3,3-3s3,1.346,3,3S11.404,58.25,9.75,58.25z M9.75,53.25
				c-1.103,0-2,0.897-2,2s0.897,2,2,2s2-0.897,2-2S10.853,53.25,9.75,53.25z"/>
		</g>
	</g>
	<g>
		<g>
			<path class="st0" d="M44.579,17.75c-1.789,0-2.688-1.166-3.481-2.194c-0.748-0.969-1.394-1.806-2.69-1.806
				c-1.296,0-1.94,0.836-2.687,1.805c-0.794,1.029-1.692,2.195-3.48,2.195c-1.786,0-2.685-1.166-3.478-2.195
				c-0.746-0.969-1.39-1.805-2.685-1.805s-1.939,0.836-2.686,1.805C22.6,16.584,21.7,17.75,19.913,17.75
				c-1.786,0-2.685-1.166-3.478-2.195c-0.746-0.969-1.391-1.805-2.686-1.805c-0.276,0-0.5-0.224-0.5-0.5s0.224-0.5,0.5-0.5
				c1.787,0,2.686,1.166,3.479,2.195c0.746,0.968,1.391,1.805,2.685,1.805c1.296,0,1.94-0.836,2.688-1.806
				c0.792-1.028,1.69-2.194,3.478-2.194c1.786,0,2.685,1.166,3.478,2.195c0.746,0.969,1.39,1.805,2.685,1.805
				c1.296,0,1.941-0.837,2.688-1.806c0.793-1.028,1.691-2.194,3.479-2.194c1.789,0,2.688,1.166,3.481,2.194
				c0.748,0.969,1.394,1.806,2.69,1.806s1.941-0.836,2.689-1.805c0.793-1.029,1.692-2.195,3.481-2.195c0.276,0,0.5,0.224,0.5,0.5
				s-0.224,0.5-0.5,0.5c-1.297,0-1.942,0.837-2.69,1.806C47.267,16.584,46.367,17.75,44.579,17.75z"/>
		</g>
	</g>
	<g>
		<g>
			<path class="st0" d="M44.579,25.25c-1.789,0-2.688-1.166-3.481-2.194c-0.748-0.969-1.394-1.806-2.69-1.806
				c-1.296,0-1.94,0.836-2.687,1.805c-0.794,1.029-1.692,2.195-3.48,2.195c-1.786,0-2.685-1.166-3.478-2.195
				c-0.746-0.969-1.39-1.805-2.685-1.805s-1.939,0.836-2.686,1.805C22.6,24.084,21.7,25.25,19.913,25.25
				c-1.786,0-2.685-1.166-3.478-2.195c-0.746-0.969-1.391-1.805-2.686-1.805c-0.276,0-0.5-0.224-0.5-0.5s0.224-0.5,0.5-0.5
				c1.787,0,2.686,1.166,3.479,2.195c0.746,0.968,1.391,1.805,2.685,1.805c1.296,0,1.94-0.836,2.688-1.806
				c0.792-1.028,1.69-2.194,3.478-2.194c1.786,0,2.685,1.166,3.478,2.195c0.746,0.969,1.39,1.805,2.685,1.805
				c1.296,0,1.941-0.837,2.688-1.806c0.793-1.028,1.691-2.194,3.479-2.194c1.789,0,2.688,1.166,3.481,2.194
				c0.748,0.969,1.394,1.806,2.69,1.806s1.941-0.836,2.689-1.805c0.793-1.029,1.692-2.195,3.481-2.195c0.276,0,0.5,0.224,0.5,0.5
				s-0.224,0.5-0.5,0.5c-1.297,0-1.942,0.837-2.69,1.806C47.267,24.084,46.367,25.25,44.579,25.25z"/>
		</g>
	</g>
	<g>
		<g>
			<path class="st0" d="M44.579,32.75c-1.789,0-2.688-1.166-3.481-2.194c-0.748-0.969-1.394-1.806-2.69-1.806
				c-1.296,0-1.94,0.836-2.687,1.805c-0.794,1.029-1.692,2.195-3.48,2.195c-1.786,0-2.685-1.166-3.478-2.195
				c-0.746-0.969-1.39-1.805-2.685-1.805s-1.939,0.836-2.686,1.805C22.6,31.584,21.7,32.75,19.913,32.75
				c-1.786,0-2.685-1.166-3.478-2.195c-0.746-0.969-1.391-1.805-2.686-1.805c-0.276,0-0.5-0.224-0.5-0.5s0.224-0.5,0.5-0.5
				c1.787,0,2.686,1.166,3.479,2.195c0.746,0.968,1.391,1.805,2.685,1.805c1.296,0,1.94-0.836,2.688-1.806
				c0.792-1.028,1.69-2.194,3.478-2.194c1.786,0,2.685,1.166,3.478,2.195c0.746,0.969,1.39,1.805,2.685,1.805
				c1.296,0,1.941-0.837,2.688-1.806c0.793-1.028,1.691-2.194,3.479-2.194c1.789,0,2.688,1.166,3.481,2.194
				c0.748,0.969,1.394,1.806,2.69,1.806s1.941-0.836,2.689-1.805c0.793-1.029,1.692-2.195,3.481-2.195c0.276,0,0.5,0.224,0.5,0.5
				s-0.224,0.5-0.5,0.5c-1.297,0-1.942,0.837-2.69,1.806C47.267,31.584,46.367,32.75,44.579,32.75z"/>
		</g>
	</g>
	<g>
		<g>
			<path class="st0" d="M32.24,40.25c-1.786,0-2.685-1.166-3.478-2.195c-0.746-0.969-1.39-1.805-2.685-1.805
				s-1.939,0.836-2.686,1.805C22.6,39.084,21.7,40.25,19.913,40.25c-1.786,0-2.685-1.166-3.478-2.195
				c-0.746-0.969-1.391-1.805-2.686-1.805c-0.276,0-0.5-0.224-0.5-0.5s0.224-0.5,0.5-0.5c1.787,0,2.686,1.166,3.479,2.195
				c0.746,0.968,1.391,1.805,2.685,1.805c1.296,0,1.94-0.836,2.688-1.806c0.792-1.028,1.69-2.194,3.478-2.194
				c1.786,0,2.685,1.166,3.478,2.195c0.746,0.969,1.39,1.805,2.685,1.805c1.296,0,1.941-0.837,2.688-1.806
				c0.793-1.028,1.691-2.194,3.479-2.194c0.809,0,1.508,0.239,2.14,0.73c0.218,0.17,0.257,0.484,0.087,0.702
				c-0.171,0.217-0.484,0.255-0.702,0.087c-0.455-0.354-0.939-0.52-1.524-0.52c-1.296,0-1.94,0.836-2.687,1.805
				C34.927,39.084,34.028,40.25,32.24,40.25z"/>
		</g>
	</g>
	<g>
		<g>
			<path class="st0" d="M19.913,47.75c-1.786,0-2.685-1.166-3.478-2.195c-0.746-0.969-1.391-1.805-2.686-1.805
				c-0.276,0-0.5-0.224-0.5-0.5s0.224-0.5,0.5-0.5c1.787,0,2.686,1.166,3.479,2.195c0.746,0.968,1.391,1.805,2.685,1.805
				c1.296,0,1.94-0.836,2.688-1.806c0.792-1.028,1.69-2.194,3.478-2.194s2.685,1.166,3.478,2.195
				c0.691,0.898,1.289,1.675,2.391,1.79c0.274,0.028,0.475,0.274,0.445,0.549c-0.028,0.274-0.281,0.474-0.549,0.445
				c-1.528-0.16-2.353-1.23-3.08-2.174c-0.745-0.969-1.39-1.805-2.685-1.805s-1.939,0.836-2.686,1.805
				C22.6,46.584,21.7,47.75,19.913,47.75z"/>
		</g>
	</g>
	<g>
		<g>
			<circle class="st1" cx="45.75" cy="49.25" r="12"/>
		</g>
		<g>
			<path class="st0" d="M45.75,61.75c-6.893,0-12.5-5.607-12.5-12.5s5.607-12.5,12.5-12.5s12.5,5.607,12.5,12.5
				S52.643,61.75,45.75,61.75z M45.75,37.75c-6.341,0-11.5,5.159-11.5,11.5s5.159,11.5,11.5,11.5s11.5-5.159,11.5-11.5
				S52.091,37.75,45.75,37.75z"/>
		</g>
	</g>
	<g>
		<g>
			<path class="st0" d="M31.91,51.75H16.25c-1.654,0-3-1.346-3-3v-37c0-1.654,1.346-3,3-3h32c1.654,0,3,1.346,3,3v24.439
				c0,0.276-0.224,0.5-0.5,0.5s-0.5-0.224-0.5-0.5V11.75c0-1.103-0.897-2-2-2h-32c-1.103,0-2,0.897-2,2v37c0,1.103,0.897,2,2,2
				h15.66c0.276,0,0.5,0.224,0.5,0.5S32.187,51.75,31.91,51.75z"/>
		</g>
	</g>
	<g>
		<g>
			<path class="st0" d="M57.75,49.75h-24c-0.276,0-0.5-0.224-0.5-0.5s0.224-0.5,0.5-0.5h24c0.276,0,0.5,0.224,0.5,0.5
				S58.026,49.75,57.75,49.75z"/>
		</g>
	</g>
	<g>
		<g>
			<path class="st0" d="M57.064,53.75h-22.63c-0.276,0-0.5-0.224-0.5-0.5s0.224-0.5,0.5-0.5h22.63c0.276,0,0.5,0.224,0.5,0.5
				S57.341,53.75,57.064,53.75z"/>
		</g>
	</g>
	<g>
		<g>
			<path class="st0" d="M54.69,57.75H36.808c-0.276,0-0.5-0.224-0.5-0.5s0.224-0.5,0.5-0.5H54.69c0.276,0,0.5,0.224,0.5,0.5
				S54.967,57.75,54.69,57.75z"/>
		</g>
	</g>
	<g>
		<g>
			<path class="st0" d="M45.75,49.75c-0.128,0-0.256-0.049-0.354-0.146l-8.485-8.485c-0.195-0.195-0.195-0.512,0-0.707
				s0.512-0.195,0.707,0l8.485,8.485c0.195,0.195,0.195,0.512,0,0.707C46.006,49.701,45.878,49.75,45.75,49.75z"/>
		</g>
	</g>
	<g>
		<g>
			<path class="st0" d="M52.821,49.75c-0.128,0-0.256-0.049-0.354-0.146l-11.25-11.25c-0.195-0.195-0.195-0.512,0-0.707
				s0.512-0.195,0.707,0l11.25,11.25c0.195,0.195,0.195,0.512,0,0.707C53.077,49.701,52.949,49.75,52.821,49.75z"/>
		</g>
	</g>
	<g>
		<g>
			<path class="st0" d="M40.093,49.75c-0.128,0-0.256-0.049-0.354-0.146l-5.173-5.173c-0.195-0.195-0.195-0.512,0-0.707
				s0.512-0.195,0.707,0l5.173,5.173c0.195,0.195,0.195,0.512,0,0.707C40.349,49.701,40.221,49.75,40.093,49.75z"/>
		</g>
	</g>
	<g>
		<g>
			<path class="st0" d="M49.285,46.215c-0.128,0-0.256-0.049-0.354-0.146c-0.195-0.195-0.195-0.512,0-0.707l4.95-4.95
				c0.195-0.195,0.512-0.195,0.707,0s0.195,0.512,0,0.707l-4.95,4.95C49.541,46.166,49.413,46.215,49.285,46.215z"/>
		</g>
	</g>
	<g>
		<g>
			<path class="st0" d="M45.75,42.679c-0.128,0-0.256-0.049-0.354-0.146c-0.195-0.195-0.195-0.512,0-0.707l4.179-4.179
				c0.195-0.195,0.512-0.195,0.707,0s0.195,0.512,0,0.707l-4.179,4.179C46.006,42.63,45.878,42.679,45.75,42.679z"/>
		</g>
	</g>
	<g>
		<g>
			<path class="st0" d="M52.114,49.043c-0.128,0-0.256-0.049-0.354-0.146c-0.195-0.195-0.195-0.512,0-0.707l4.466-4.466
				c0.195-0.195,0.512-0.195,0.707,0s0.195,0.512,0,0.707l-4.466,4.466C52.37,48.994,52.242,49.043,52.114,49.043z"/>
		</g>
	</g>
	<g>
		<g>
			<path class="st0" d="M9.75,46.75c-0.276,0-0.5-0.224-0.5-0.5v-2c0-0.276,0.224-0.5,0.5-0.5s0.5,0.224,0.5,0.5v2
				C10.25,46.526,10.026,46.75,9.75,46.75z"/>
		</g>
	</g>
	<g>
		<g>
			<path class="st0" d="M9.75,42.75c-0.276,0-0.5-0.224-0.5-0.5v-12.5c0-0.276,0.224-0.5,0.5-0.5s0.5,0.224,0.5,0.5v12.5
				C10.25,42.526,10.026,42.75,9.75,42.75z"/>
		</g>
	</g>
	<g>
		<g>
			<path class="st0" d="M54.75,17.75c-0.276,0-0.5-0.224-0.5-0.5v-2c0-0.276,0.224-0.5,0.5-0.5s0.5,0.224,0.5,0.5v2
				C55.25,17.526,55.026,17.75,54.75,17.75z"/>
		</g>
	</g>
	<g>
		<g>
			<path class="st0" d="M54.75,32.25c-0.276,0-0.5-0.224-0.5-0.5v-12.5c0-0.276,0.224-0.5,0.5-0.5s0.5,0.224,0.5,0.5v12.5
				C55.25,32.026,55.026,32.25,54.75,32.25z"/>
		</g>
	</g>
	<g>
		<g>
			<path class="st0" d="M15.75,5.25h-4c-0.276,0-0.5-0.224-0.5-0.5s0.224-0.5,0.5-0.5h4c0.276,0,0.5,0.224,0.5,0.5
				S16.026,5.25,15.75,5.25z"/>
		</g>
	</g>
	<g>
		<g>
			<path class="st0" d="M13.75,7.25c-0.276,0-0.5-0.224-0.5-0.5v-4c0-0.276,0.224-0.5,0.5-0.5s0.5,0.224,0.5,0.5v4
				C14.25,7.026,14.026,7.25,13.75,7.25z"/>
		</g>
	</g>
	<g>
		<g>
			<path class="st0" d="M10.25,9.75h-4c-0.276,0-0.5-0.224-0.5-0.5s0.224-0.5,0.5-0.5h4c0.276,0,0.5,0.224,0.5,0.5
				S10.526,9.75,10.25,9.75z"/>
		</g>
	</g>
	<g>
		<g>
			<path class="st0" d="M8.25,11.75c-0.276,0-0.5-0.224-0.5-0.5v-4c0-0.276,0.224-0.5,0.5-0.5s0.5,0.224,0.5,0.5v4
				C8.75,11.526,8.526,11.75,8.25,11.75z"/>
		</g>
	</g>
</g>
</svg>
