<?xml version="1.0" encoding="utf-8"?>
<!-- Generator: Adobe Illustrator 22.0.0, SVG Export Plug-In . SVG Version: 6.00 Build 0)  -->
<svg version="1.1" id="Layer_1" xmlns="http://www.w3.org/2000/svg" xmlns:xlink="http://www.w3.org/1999/xlink" x="0px" y="0px"
	 viewBox="0 0 64 64" style="enable-background:new 0 0 64 64;" xml:space="preserve">
<style type="text/css">
	.st0{fill:#263238;}
	.st1{fill:#FFD740;}
	.st2{fill:#40C4FF;}
	.st3{fill:#FF5252;}
	.st4{fill:#4FC3F7;}
	.st5{fill:#FFFFFF;}
	.st6{fill:#4DB6AC;}
	.st7{fill:#FFCA28;}
	.st8{fill:#37474F;}
</style>
<g>
	<g>
		<g>
			<path class="st6" d="M62,47H2v0c0,8.284,6.716,15,15,15h30C55.284,62,62,55.284,62,47L62,47z"/>
		</g>
	</g>
	<g>
		<g>
			<path class="st0" d="M62,47.5H2c-0.276,0-0.5-0.224-0.5-0.5s0.224-0.5,0.5-0.5h60c0.276,0,0.5,0.224,0.5,0.5S62.276,47.5,62,47.5
				z"/>
		</g>
	</g>
	<g>
		<g>
			<path class="st6" d="M14.412,37.353c0.403-0.485,0.88-0.904,1.406-1.256L15.412,27h-2l-0.406,9.097
				C13.532,36.448,14.009,36.868,14.412,37.353z"/>
		</g>
		<g>
			<path class="st0" d="M14.412,37.853c-0.148,0-0.29-0.066-0.385-0.181c-0.361-0.435-0.798-0.825-1.298-1.159
				c-0.146-0.097-0.229-0.263-0.222-0.438l0.405-9.097c0.012-0.267,0.232-0.478,0.5-0.478h2c0.268,0,0.488,0.21,0.5,0.478
				l0.405,9.097c0.008,0.175-0.076,0.341-0.222,0.438c-0.5,0.334-0.938,0.725-1.298,1.159
				C14.702,37.787,14.561,37.853,14.412,37.853z M13.519,35.844c0.323,0.234,0.622,0.49,0.894,0.765
				c0.271-0.275,0.57-0.531,0.894-0.765L14.934,27.5H13.89L13.519,35.844z"/>
		</g>
	</g>
	<g>
		<g>
			<path class="st6" d="M15.912,41.5V44h-3v-2.5c0-0.344-0.065-0.669-0.158-0.984L12.412,46.5h4l-0.342-5.984
				C15.977,40.831,15.912,41.156,15.912,41.5z"/>
		</g>
		<g>
			<path class="st0" d="M16.412,47h-4c-0.138,0-0.269-0.057-0.363-0.157c-0.095-0.1-0.144-0.234-0.136-0.372l0.342-5.983
				c0.014-0.243,0.2-0.44,0.441-0.468c0.245-0.035,0.468,0.122,0.537,0.355c0.122,0.413,0.179,0.77,0.179,1.125v2h2v-2
				c0-0.355,0.057-0.712,0.179-1.125c0.069-0.233,0.288-0.39,0.537-0.355c0.241,0.028,0.428,0.226,0.441,0.468l0.342,5.983
				c0.008,0.137-0.041,0.271-0.136,0.372C16.681,46.943,16.55,47,16.412,47z M12.941,46h2.941l-0.086-1.5h-2.77L12.941,46z"/>
		</g>
	</g>
	<g>
		<g>
			<circle class="st1" cx="31.5" cy="24" r="3"/>
		</g>
		<g>
			<path class="st0" d="M31.5,27.5c-1.93,0-3.5-1.57-3.5-3.5s1.57-3.5,3.5-3.5S35,22.07,35,24S33.43,27.5,31.5,27.5z M31.5,21.5
				c-1.378,0-2.5,1.122-2.5,2.5s1.122,2.5,2.5,2.5S34,25.378,34,24S32.878,21.5,31.5,21.5z"/>
		</g>
	</g>
	<g>
		<g>
			<path class="st0" d="M31.5,32.5c-0.99,0-1.89-0.815-2.565-2.308c-1.533,0.578-2.746,0.519-3.445-0.182
				c-0.7-0.7-0.76-1.913-0.182-3.445C23.815,25.891,23,24.99,23,24s0.815-1.89,2.308-2.565c-0.579-1.533-0.519-2.746,0.182-3.445
				c0.699-0.701,1.913-0.76,3.445-0.182C29.609,16.315,30.51,15.5,31.5,15.5s1.89,0.815,2.565,2.308
				c1.532-0.578,2.746-0.519,3.445,0.182c0.7,0.7,0.76,1.913,0.182,3.445C39.185,22.11,40,23.01,40,24s-0.815,1.89-2.308,2.565
				c0.579,1.533,0.519,2.746-0.182,3.445c-0.7,0.7-1.914,0.759-3.445,0.182C33.39,31.685,32.49,32.5,31.5,32.5z M29.205,29.041
				c0.065,0,0.13,0.013,0.191,0.038c0.126,0.052,0.226,0.154,0.275,0.282c0.517,1.339,1.2,2.139,1.829,2.139s1.312-0.8,1.829-2.139
				c0.049-0.128,0.148-0.23,0.275-0.282c0.127-0.053,0.27-0.051,0.394,0.005c1.312,0.582,2.362,0.664,2.806,0.22
				c0.444-0.444,0.362-1.493-0.22-2.806c-0.056-0.125-0.057-0.268-0.005-0.394s0.154-0.226,0.282-0.275C38.2,25.312,39,24.628,39,24
				s-0.8-1.312-2.139-1.829c-0.128-0.049-0.23-0.148-0.282-0.275s-0.051-0.269,0.005-0.394c0.582-1.312,0.664-2.361,0.22-2.806
				c-0.444-0.445-1.494-0.362-2.806,0.22c-0.125,0.056-0.267,0.058-0.394,0.005c-0.126-0.052-0.226-0.154-0.275-0.282
				C32.812,17.3,32.128,16.5,31.5,16.5s-1.312,0.8-1.829,2.139c-0.049,0.128-0.148,0.23-0.275,0.282
				c-0.127,0.053-0.269,0.051-0.394-0.005c-1.312-0.582-2.361-0.665-2.806-0.22c-0.444,0.444-0.362,1.493,0.22,2.806
				c0.056,0.125,0.057,0.268,0.005,0.394s-0.154,0.226-0.282,0.275C24.8,22.688,24,23.372,24,24s0.8,1.312,2.139,1.829
				c0.128,0.049,0.23,0.148,0.282,0.275s0.051,0.269-0.005,0.394c-0.582,1.312-0.664,2.361-0.22,2.806s1.494,0.362,2.806-0.22
				C29.067,29.055,29.136,29.041,29.205,29.041z"/>
		</g>
	</g>
	<g>
		<g>
			<path class="st0" d="M31.5,36.5c-0.276,0-0.5-0.224-0.5-0.5v-4c0-0.276,0.224-0.5,0.5-0.5S32,31.724,32,32v4
				C32,36.276,31.776,36.5,31.5,36.5z"/>
		</g>
	</g>
	<g>
		<g>
			<rect x="25.5" y="38" class="st1" width="12" height="3"/>
		</g>
		<g>
			<path class="st0" d="M37.5,41.5h-12c-0.276,0-0.5-0.224-0.5-0.5v-3c0-0.276,0.224-0.5,0.5-0.5h12c0.276,0,0.5,0.224,0.5,0.5v3
				C38,41.276,37.776,41.5,37.5,41.5z M26,40.5h11v-2H26V40.5z"/>
		</g>
	</g>
	<g>
		<g>
			<polygon class="st1" points="35.5,49 27.5,49 26.5,41 36.5,41 			"/>
		</g>
		<g>
			<path class="st0" d="M35.5,49.5h-8c-0.252,0-0.465-0.188-0.496-0.438l-1-8c-0.018-0.142,0.026-0.286,0.121-0.393
				C26.22,40.562,26.356,40.5,26.5,40.5h10c0.144,0,0.28,0.062,0.375,0.169c0.095,0.107,0.139,0.251,0.121,0.393l-1,8
				C35.965,49.312,35.752,49.5,35.5,49.5z M27.941,48.5h7.117l0.875-7h-8.867L27.941,48.5z"/>
		</g>
	</g>
	<g>
		<g>
			<path class="st6" d="M62,32c0,5.523-4.477,10-10,10s-10-4.477-10-10s4.477-20,10-20S62,26.477,62,32z"/>
		</g>
		<g>
			<path class="st0" d="M52,42.5c-5.79,0-10.5-4.71-10.5-10.5c0-3.011,1.248-8.169,2.968-12.265C45.759,16.66,48.455,11.5,52,11.5
				s6.241,5.16,7.532,8.235C61.252,23.831,62.5,28.989,62.5,32C62.5,37.79,57.79,42.5,52,42.5z M52,12.5
				c-4.983,0-9.5,14.038-9.5,19.5c0,5.238,4.262,9.5,9.5,9.5s9.5-4.262,9.5-9.5C61.5,26.538,56.983,12.5,52,12.5z"/>
		</g>
	</g>
	<g>
		<g>
			<path class="st0" d="M59,32.5c-0.276,0-0.5-0.224-0.5-0.5c0-6.679-4.945-16.5-6.5-16.5c-0.276,0-0.5-0.224-0.5-0.5
				s0.224-0.5,0.5-0.5c2.733,0,7.5,11.122,7.5,17.5C59.5,32.276,59.276,32.5,59,32.5z"/>
		</g>
	</g>
	<g>
		<g>
			<path class="st6" d="M53.5,49v-7.125C53.009,41.949,52.511,42,52,42s-1.009-0.051-1.5-0.125V49"/>
		</g>
		<g>
			<path class="st0" d="M53.5,49.5c-0.276,0-0.5-0.224-0.5-0.5v-6.556c-0.709,0.075-1.291,0.075-2,0V49c0,0.276-0.224,0.5-0.5,0.5
				S50,49.276,50,49v-7.125c0-0.146,0.063-0.284,0.174-0.379c0.11-0.095,0.257-0.137,0.4-0.116c1.08,0.163,1.771,0.163,2.852,0
				c0.144-0.02,0.29,0.021,0.4,0.116C53.937,41.592,54,41.73,54,41.875V49C54,49.276,53.776,49.5,53.5,49.5z"/>
		</g>
	</g>
	<g>
		<g>
			<path class="st6" d="M12.912,49c0-3.309-2.691-6-6-6v-3c4.962,0,9,4.038,9,9"/>
		</g>
		<g>
			<path class="st0" d="M15.912,49.5c-0.276,0-0.5-0.224-0.5-0.5c0-4.519-3.545-8.226-8-8.485v2.004c3.352,0.256,6,3.065,6,6.481
				c0,0.276-0.224,0.5-0.5,0.5s-0.5-0.224-0.5-0.5c0-3.033-2.467-5.5-5.5-5.5c-0.276,0-0.5-0.224-0.5-0.5v-3
				c0-0.276,0.224-0.5,0.5-0.5c5.238,0,9.5,4.262,9.5,9.5C16.412,49.276,16.188,49.5,15.912,49.5z"/>
		</g>
	</g>
	<g>
		<g>
			<path class="st6" d="M12.912,49c0-4.962,4.038-9,9-9v3c-3.309,0-6,2.691-6,6"/>
		</g>
		<g>
			<path class="st0" d="M15.912,49.5c-0.276,0-0.5-0.224-0.5-0.5c0-3.416,2.648-6.225,6-6.481v-2.004c-4.455,0.26-8,3.966-8,8.485
				c0,0.276-0.224,0.5-0.5,0.5s-0.5-0.224-0.5-0.5c0-5.238,4.262-9.5,9.5-9.5c0.276,0,0.5,0.224,0.5,0.5v3
				c0,0.276-0.224,0.5-0.5,0.5c-3.033,0-5.5,2.467-5.5,5.5C16.412,49.276,16.188,49.5,15.912,49.5z"/>
		</g>
	</g>
	<g>
		<g>
			<path class="st6" d="M12.912,41.5v0.809c0.557,0.501,1.054,1.067,1.473,1.691h0.054c0.419-0.624,0.916-1.19,1.473-1.691V41.5
				c0-3.584-2.916-6.5-6.5-6.5v3C11.342,38,12.912,39.57,12.912,41.5z"/>
		</g>
		<g>
			<path class="st0" d="M14.439,44.5c-0.167,0-0.377-0.083-0.47-0.221c-0.389-0.58-0.857-1.118-1.392-1.598
				c-0.105-0.095-0.166-0.23-0.166-0.372V41.5c0-1.654-1.346-3-3-3c-0.276,0-0.5-0.224-0.5-0.5v-3c0-0.276,0.224-0.5,0.5-0.5
				c3.86,0,7,3.14,7,7v0.809c0,0.142-0.06,0.277-0.166,0.372c-0.535,0.48-1.003,1.018-1.392,1.598
				C14.762,44.417,14.606,44.5,14.439,44.5z M13.412,42.09c0.364,0.342,0.698,0.709,1,1.096c0.302-0.387,0.636-0.754,1-1.096V41.5
				c0-3.14-2.425-5.725-5.5-5.979v2.011c1.97,0.247,3.5,1.933,3.5,3.969V42.09z"/>
		</g>
	</g>
	<g>
		<g>
			<path class="st6" d="M14.385,44h0.054c0.419-0.624,0.916-1.19,1.473-1.691V41.5c0-1.93,1.57-3.5,3.5-3.5v-3
				c-3.584,0-6.5,2.916-6.5,6.5v0.809C13.469,42.81,13.966,43.376,14.385,44z"/>
		</g>
		<g>
			<path class="st0" d="M14.439,44.5c-0.167,0-0.377-0.083-0.47-0.221c-0.389-0.58-0.857-1.118-1.392-1.598
				c-0.105-0.095-0.166-0.23-0.166-0.372V41.5c0-3.86,3.14-7,7-7c0.276,0,0.5,0.224,0.5,0.5v3c0,0.276-0.224,0.5-0.5,0.5
				c-1.654,0-3,1.346-3,3v0.809c0,0.142-0.06,0.277-0.166,0.372c-0.535,0.48-1.003,1.018-1.392,1.598
				C14.762,44.417,14.606,44.5,14.439,44.5z M13.412,42.09c0.364,0.342,0.698,0.709,1,1.096c0.302-0.387,0.636-0.754,1-1.096V41.5
				c0-2.036,1.53-3.722,3.5-3.969v-2.011c-3.075,0.255-5.5,2.839-5.5,5.979V42.09z"/>
		</g>
	</g>
	<g>
		<g>
			<path class="st4" d="M14,8.5C14,7.119,12.881,6,11.5,6S9,7.119,9,8.5c-1.381,0-2.5,1.119-2.5,2.5s1.119,2.5,2.5,2.5h5
				c1.381,0,2.5-1.119,2.5-2.5S15.381,8.5,14,8.5z"/>
		</g>
	</g>
	<g>
		<g>
			<path class="st0" d="M14,55.5h-2c-0.276,0-0.5-0.224-0.5-0.5s0.224-0.5,0.5-0.5h2c0.276,0,0.5,0.224,0.5,0.5S14.276,55.5,14,55.5
				z"/>
		</g>
	</g>
	<g>
		<g>
			<path class="st0" d="M25.5,55.5H16c-0.276,0-0.5-0.224-0.5-0.5s0.224-0.5,0.5-0.5h9.5c0.276,0,0.5,0.224,0.5,0.5
				S25.776,55.5,25.5,55.5z"/>
		</g>
	</g>
	<g>
		<g>
			<path class="st0" d="M48.5,4.5h-4C44.224,4.5,44,4.276,44,4s0.224-0.5,0.5-0.5h4C48.776,3.5,49,3.724,49,4S48.776,4.5,48.5,4.5z"
				/>
		</g>
	</g>
	<g>
		<g>
			<path class="st0" d="M46.5,6.5C46.224,6.5,46,6.276,46,6V2c0-0.276,0.224-0.5,0.5-0.5S47,1.724,47,2v4
				C47,6.276,46.776,6.5,46.5,6.5z"/>
		</g>
	</g>
	<g>
		<g>
			<path class="st0" d="M44.5,9.5h-4C40.224,9.5,40,9.276,40,9s0.224-0.5,0.5-0.5h4C44.776,8.5,45,8.724,45,9S44.776,9.5,44.5,9.5z"
				/>
		</g>
	</g>
	<g>
		<g>
			<path class="st0" d="M42.5,11.5c-0.276,0-0.5-0.224-0.5-0.5V7c0-0.276,0.224-0.5,0.5-0.5S43,6.724,43,7v4
				C43,11.276,42.776,11.5,42.5,11.5z"/>
		</g>
	</g>
</g>
</svg>
