<?xml version="1.0" encoding="utf-8"?>
<!-- Generator: Adobe Illustrator 22.0.0, SVG Export Plug-In . SVG Version: 6.00 Build 0)  -->
<svg version="1.1" id="Layer_1" xmlns="http://www.w3.org/2000/svg" xmlns:xlink="http://www.w3.org/1999/xlink" x="0px" y="0px"
	 viewBox="0 0 64 64" style="enable-background:new 0 0 64 64;" xml:space="preserve">
<style type="text/css">
	.st0{fill:#263238;}
	.st1{fill:#FFD740;}
	.st2{fill:#40C4FF;}
	.st3{fill:#FF5252;}
	.st4{fill:#4FC3F7;}
	.st5{fill:#FFFFFF;}
	.st6{fill:#4DB6AC;}
	.st7{fill:#FFCA28;}
	.st8{fill:#37474F;}
</style>
<g>
	<g>
		<g>
			<path class="st2" d="M52.586,62.414L27.837,37.665l2.828-2.828l24.749,24.749c0.781,0.781,0.781,2.047,0,2.828l0,0
				C54.633,63.195,53.367,63.195,52.586,62.414z"/>
		</g>
		<g>
			<path class="st0" d="M54,63.5c-0.668,0-1.295-0.26-1.768-0.732l0,0l0,0L27.483,38.019c-0.094-0.094-0.146-0.221-0.146-0.354
				s0.053-0.26,0.146-0.354l2.829-2.828c0.195-0.195,0.512-0.195,0.707,0l24.749,24.749C56.24,59.704,56.5,60.332,56.5,61
				c0,0.667-0.26,1.295-0.732,1.768C55.296,63.24,54.668,63.5,54,63.5z M28.544,37.665l24.396,24.396l0,0
				c0.566,0.566,1.555,0.566,2.121,0C55.344,61.777,55.5,61.4,55.5,61c0-0.401-0.156-0.777-0.439-1.061L30.666,35.544L28.544,37.665
				z"/>
		</g>
	</g>
	<g>
		<g>
			<path class="st0" d="M27.837,38.165c-0.128,0-0.256-0.049-0.354-0.146l-3.536-3.535c-0.472-0.473-0.732-1.101-0.732-1.768
				c0-0.668,0.26-1.296,0.732-1.768c0.944-0.945,2.592-0.945,3.536,0l3.536,3.535c0.094,0.094,0.146,0.221,0.146,0.354
				s-0.053,0.26-0.146,0.354l-2.829,2.828C28.093,38.116,27.965,38.165,27.837,38.165z M25.716,31.216
				c-0.401,0-0.777,0.156-1.061,0.439s-0.439,0.659-0.439,1.061c0,0.4,0.156,0.777,0.439,1.061l3.182,3.182l2.122-2.121
				l-3.182-3.182C26.493,31.372,26.117,31.216,25.716,31.216z"/>
		</g>
	</g>
	<g>
		<g>
			<polygon class="st3" points="32.079,33.422 36.656,38 47,38 47,32 30.656,32 			"/>
		</g>
	</g>
	<g>
		<g>
			<path class="st3" d="M22.888,35.543c-0.756-0.754-1.172-1.759-1.172-2.828c0-0.243,0.028-0.481,0.07-0.716H17v6h8.343
				L22.888,35.543z"/>
		</g>
	</g>
	<g>
		<g>
			<path class="st0" d="M47,38.5H36.656c-0.276,0-0.5-0.224-0.5-0.5s0.224-0.5,0.5-0.5H47c0.276,0,0.5,0.224,0.5,0.5
				S47.276,38.5,47,38.5z"/>
		</g>
	</g>
	<g>
		<g>
			<path class="st0" d="M25.343,38.5H17c-0.276,0-0.5-0.224-0.5-0.5s0.224-0.5,0.5-0.5h8.343c0.276,0,0.5,0.224,0.5,0.5
				S25.62,38.5,25.343,38.5z"/>
		</g>
	</g>
	<g>
		<g>
			<path class="st0" d="M47,48.844c-0.276,0-0.5-0.224-0.5-0.5V32c0-0.276,0.224-0.5,0.5-0.5s0.5,0.224,0.5,0.5v16.344
				C47.5,48.62,47.276,48.844,47,48.844z"/>
		</g>
	</g>
	<g>
		<g>
			<path class="st0" d="M42,63.5H22c-3.033,0-5.5-2.468-5.5-5.5V32c0-0.276,0.224-0.5,0.5-0.5s0.5,0.224,0.5,0.5v26
				c0,2.481,2.019,4.5,4.5,4.5h20c1.99,0,3.714-1.293,4.29-3.219c0.079-0.265,0.355-0.412,0.622-0.336
				c0.265,0.079,0.415,0.358,0.336,0.623C46.545,61.92,44.436,63.5,42,63.5z"/>
		</g>
	</g>
	<g>
		<g>
			<path class="st0" d="M54,32.5H30.656c-0.276,0-0.5-0.224-0.5-0.5s0.224-0.5,0.5-0.5H54c0.827,0,1.5-0.673,1.5-1.5
				s-0.673-1.5-1.5-1.5H10c-0.827,0-1.5,0.673-1.5,1.5s0.673,1.5,1.5,1.5h11.786c0.276,0,0.5,0.224,0.5,0.5s-0.224,0.5-0.5,0.5H10
				c-1.378,0-2.5-1.121-2.5-2.5s1.122-2.5,2.5-2.5h44c1.378,0,2.5,1.121,2.5,2.5S55.378,32.5,54,32.5z"/>
		</g>
	</g>
	<g>
		<g>
			<path class="st0" d="M58,45.643h-7.5c-0.276,0-0.5-0.224-0.5-0.5s0.224-0.5,0.5-0.5H58c0.276,0,0.5,0.224,0.5,0.5
				S58.276,45.643,58,45.643z"/>
		</g>
	</g>
	<g>
		<g>
			<path class="st0" d="M61,45.643h-1c-0.276,0-0.5-0.224-0.5-0.5s0.224-0.5,0.5-0.5h1c0.276,0,0.5,0.224,0.5,0.5
				S61.276,45.643,61,45.643z"/>
		</g>
	</g>
	<g>
		<g>
			<path class="st0" d="M4,45.643H3c-0.276,0-0.5-0.224-0.5-0.5s0.224-0.5,0.5-0.5h1c0.276,0,0.5,0.224,0.5,0.5
				S4.276,45.643,4,45.643z"/>
		</g>
	</g>
	<g>
		<g>
			<path class="st0" d="M13.5,45.643H6c-0.276,0-0.5-0.224-0.5-0.5s0.224-0.5,0.5-0.5h7.5c0.276,0,0.5,0.224,0.5,0.5
				S13.776,45.643,13.5,45.643z"/>
		</g>
	</g>
	<g>
		<g>
			<path class="st0" d="M50,21.5c-0.215,0-0.406-0.138-0.474-0.342L48.973,19.5c-0.231-0.692-0.782-1.243-1.473-1.473l-1.659-0.553
				C45.638,17.406,45.5,17.215,45.5,17s0.138-0.406,0.342-0.475l1.658-0.553c0.692-0.23,1.242-0.781,1.473-1.473l0.553-1.658
				c0.136-0.408,0.812-0.408,0.948,0l0.553,1.658c0.231,0.691,0.781,1.242,1.473,1.473l1.658,0.553
				C54.362,16.594,54.5,16.785,54.5,17s-0.138,0.406-0.342,0.475L52.5,18.027c-0.691,0.229-1.242,0.78-1.473,1.473l-0.553,1.658
				C50.406,21.362,50.215,21.5,50,21.5z M47.581,17l0.235,0.078c0.988,0.329,1.775,1.116,2.105,2.105L50,19.419l0.079-0.235
				c0.33-0.989,1.117-1.776,2.105-2.105L52.419,17l-0.235-0.078c-0.989-0.331-1.776-1.117-2.105-2.105L50,14.581l-0.079,0.235
				c-0.329,0.988-1.116,1.774-2.105,2.105L47.581,17z"/>
		</g>
	</g>
	<g>
		<g>
			<path class="st0" d="M14,21.5c-0.215,0-0.406-0.138-0.474-0.342L12.973,19.5c-0.231-0.692-0.782-1.243-1.473-1.473l-1.659-0.553
				C9.638,17.406,9.5,17.215,9.5,17s0.138-0.406,0.342-0.475l1.658-0.553c0.692-0.23,1.242-0.781,1.473-1.473l0.553-1.658
				c0.136-0.408,0.812-0.408,0.948,0l0.553,1.658c0.231,0.691,0.781,1.242,1.473,1.473l1.658,0.553
				C18.362,16.594,18.5,16.785,18.5,17s-0.138,0.406-0.342,0.475L16.5,18.027c-0.691,0.229-1.242,0.78-1.473,1.473l-0.553,1.658
				C14.406,21.362,14.215,21.5,14,21.5z M11.581,17l0.235,0.078c0.988,0.329,1.775,1.116,2.105,2.105L14,19.419l0.079-0.235
				c0.33-0.989,1.117-1.776,2.105-2.105L16.419,17l-0.235-0.078c-0.989-0.331-1.776-1.117-2.105-2.105L14,14.581l-0.079,0.235
				c-0.329,0.988-1.116,1.774-2.105,2.105L11.581,17z"/>
		</g>
	</g>
	<g>
		<g>
			<path class="st1" d="M44,26c0-3.455-1.468-6.56-3.805-8.749c0.432-1.109,0.829-2.308,1.169-3.577
				c1.715-6.401,1.376-12.055-0.758-12.626c-2.134-0.572-5.254,4.154-6.97,10.556c-0.223,0.833-0.41,1.653-0.564,2.451
				C32.718,14.022,32.362,14,32,14s-0.718,0.023-1.072,0.054c-0.154-0.798-0.341-1.618-0.564-2.451
				c-1.715-6.402-4.836-11.127-6.97-10.556c-2.134,0.572-2.473,6.225-0.758,12.626c0.34,1.269,0.737,2.468,1.169,3.577
				C21.468,19.44,20,22.545,20,26"/>
		</g>
		<g>
			<path class="st0" d="M44,26.5c-0.276,0-0.5-0.224-0.5-0.5c0-3.203-1.295-6.181-3.646-8.384c-0.149-0.14-0.198-0.356-0.124-0.547
				c0.439-1.13,0.827-2.315,1.151-3.525c1.754-6.546,1.195-11.585-0.404-12.014c-1.593-0.426-4.603,3.655-6.357,10.202
				c-0.212,0.793-0.399,1.605-0.556,2.416c-0.048,0.252-0.283,0.426-0.535,0.403c-0.679-0.061-1.378-0.061-2.057,0
				c-0.251,0.024-0.486-0.151-0.535-0.403c-0.157-0.811-0.344-1.623-0.556-2.417C28.127,5.188,25.133,1.096,23.523,1.53
				c-1.599,0.429-2.158,5.468-0.404,12.014c0.325,1.21,0.712,2.396,1.151,3.525c0.074,0.19,0.025,0.407-0.124,0.547
				C21.795,19.819,20.5,22.797,20.5,26c0,0.276-0.224,0.5-0.5,0.5s-0.5-0.224-0.5-0.5c0-3.37,1.318-6.51,3.719-8.88
				c-0.404-1.068-0.762-2.184-1.066-3.316c-1.568-5.854-1.712-12.482,1.111-13.24c2.82-0.742,6.014,5.057,7.582,10.909
				c0.18,0.674,0.343,1.361,0.485,2.049c0.442-0.027,0.895-0.027,1.337,0c0.142-0.688,0.305-1.375,0.485-2.048
				c1.568-5.854,4.765-11.663,7.582-10.91c2.823,0.758,2.68,7.387,1.111,13.24c-0.304,1.133-0.662,2.248-1.066,3.316
				C43.182,19.49,44.5,22.63,44.5,26C44.5,26.276,44.276,26.5,44,26.5z"/>
		</g>
	</g>
</g>
</svg>
