<?xml version="1.0" encoding="utf-8"?>
<!-- Generator: Adobe Illustrator 22.0.0, SVG Export Plug-In . SVG Version: 6.00 Build 0)  -->
<svg version="1.1" id="Layer_1" xmlns="http://www.w3.org/2000/svg" xmlns:xlink="http://www.w3.org/1999/xlink" x="0px" y="0px"
	 viewBox="0 0 64 64" style="enable-background:new 0 0 64 64;" xml:space="preserve">
<style type="text/css">
	.st0{fill:#263238;}
	.st1{fill:#FFD740;}
	.st2{fill:#40C4FF;}
	.st3{fill:#FF5252;}
	.st4{fill:#4FC3F7;}
	.st5{fill:#FFFFFF;}
	.st6{fill:#4DB6AC;}
	.st7{fill:#FFCA28;}
	.st8{fill:#37474F;}
</style>
<g>
	<g>
		<path class="st0" d="M59,14.187h-4c-0.276,0-0.5-0.224-0.5-0.5s0.224-0.5,0.5-0.5h4c0.276,0,0.5,0.224,0.5,0.5
			S59.276,14.187,59,14.187z"/>
	</g>
	<g>
		<path class="st0" d="M57,16.187c-0.276,0-0.5-0.224-0.5-0.5v-4c0-0.276,0.224-0.5,0.5-0.5s0.5,0.224,0.5,0.5v4
			C57.5,15.963,57.276,16.187,57,16.187z"/>
	</g>
	<g>
		<path class="st0" d="M52.5,18.187h-4c-0.276,0-0.5-0.224-0.5-0.5s0.224-0.5,0.5-0.5h4c0.276,0,0.5,0.224,0.5,0.5
			S52.776,18.187,52.5,18.187z"/>
	</g>
	<g>
		<path class="st0" d="M50.5,20.187c-0.276,0-0.5-0.224-0.5-0.5v-4c0-0.276,0.224-0.5,0.5-0.5s0.5,0.224,0.5,0.5v4
			C51,19.963,50.776,20.187,50.5,20.187z"/>
	</g>
	<g>
		<path class="st1" d="M24.784,2.405L25.1,1.805c-1.775-0.93-3.934-1.097-5.93-0.27c-3.572,1.479-5.268,5.574-3.788,9.146
			l0.611-0.253C19.77,8.863,22.88,6.024,24.784,2.405z"/>
		<path class="st0" d="M15.381,11.181c-0.065,0-0.13-0.013-0.191-0.038c-0.123-0.051-0.22-0.148-0.271-0.271
			c-0.767-1.851-0.767-3.889,0-5.74c0.767-1.851,2.208-3.292,4.059-4.059c2.059-0.853,4.375-0.748,6.354,0.288
			c0.118,0.062,0.206,0.168,0.246,0.295c0.04,0.126,0.027,0.264-0.035,0.381l-0.316,0.601c-1.954,3.716-5.166,6.646-9.043,8.252
			l-0.61,0.253C15.512,11.168,15.446,11.181,15.381,11.181z M21.846,1.501c-0.843,0-1.686,0.165-2.485,0.496
			c-1.604,0.664-2.853,1.914-3.518,3.518c-0.6,1.449-0.658,3.031-0.174,4.506L15.8,9.966c3.662-1.517,6.695-4.284,8.541-7.793l0,0
			l0.074-0.141C23.595,1.679,22.721,1.501,21.846,1.501z"/>
	</g>
	<g>
		<path class="st0" d="M21.848,15.506c-0.972,0-1.944-0.191-2.87-0.575c-1.851-0.766-3.292-2.208-4.059-4.059s-0.767-3.889,0-5.74
			c0.767-1.851,2.208-3.292,4.059-4.059c3.823-1.583,8.217,0.239,9.799,4.059c0.767,1.851,0.767,3.889,0,5.74
			c-0.767,1.851-2.208,3.292-4.059,4.059C23.793,15.314,22.82,15.506,21.848,15.506z M21.84,1.502c-0.828,0-1.668,0.159-2.479,0.495
			c-3.311,1.372-4.889,5.182-3.518,8.492c0.665,1.604,1.914,2.854,3.518,3.518c1.604,0.664,3.371,0.664,4.975,0
			c1.604-0.664,2.854-1.914,3.518-3.518c0.665-1.604,0.665-3.371,0-4.975C26.818,3.015,24.392,1.502,21.84,1.502z"/>
	</g>
	<g>
		<path class="st0" d="M21.848,15.507c-0.973,0-1.945-0.191-2.871-0.575c-1.851-0.767-3.292-2.209-4.059-4.06
			c-0.767-1.851-0.767-3.889,0-5.74c0.767-1.851,2.208-3.292,4.059-4.059c3.822-1.583,8.217,0.239,9.799,4.059l0,0
			c1.583,3.821-0.238,8.217-4.059,9.8C23.792,15.315,22.82,15.507,21.848,15.507z M21.839,1.502c-0.828,0-1.668,0.159-2.479,0.495
			c-1.604,0.664-2.854,1.914-3.518,3.518c-0.665,1.604-0.665,3.371,0,4.975c0.664,1.604,1.914,2.854,3.518,3.519
			c1.604,0.663,3.37,0.663,4.975,0c3.312-1.372,4.89-5.182,3.518-8.493C26.817,3.015,24.391,1.502,21.839,1.502z"/>
	</g>
	<g>
		<path class="st1" d="M24.783,2.405l0.316-0.601c-1.775-0.93-3.934-1.097-5.93-0.27c-3.572,1.479-5.268,5.574-3.788,9.146
			l0.611-0.253C19.769,8.863,22.88,6.025,24.783,2.405z"/>
		<path class="st0" d="M15.381,11.181c-0.065,0-0.13-0.013-0.191-0.038c-0.123-0.051-0.22-0.148-0.271-0.271
			c-0.767-1.851-0.767-3.889,0-5.74c0.766-1.851,2.208-3.292,4.059-4.059c2.06-0.853,4.375-0.746,6.354,0.288
			c0.118,0.062,0.206,0.168,0.246,0.295c0.04,0.126,0.027,0.264-0.035,0.381l-0.316,0.601c-1.954,3.716-5.166,6.646-9.043,8.252
			l-0.61,0.253C15.511,11.168,15.446,11.181,15.381,11.181z M21.845,1.502c-0.842,0-1.686,0.164-2.485,0.495
			c-1.604,0.664-2.854,1.914-3.518,3.518c-0.6,1.449-0.658,3.031-0.174,4.506L15.8,9.966c3.662-1.517,6.695-4.284,8.541-7.793l0,0
			l0.074-0.141C23.594,1.68,22.72,1.502,21.845,1.502z"/>
	</g>
	<g>
		<path class="st0" d="M40.051,22.79c-0.539,0-1.064-0.107-1.562-0.318l-4.192-1.777c-0.121-0.051-0.216-0.147-0.267-0.269
			c-1.439-3.469-2.703-6.515-2.733-6.587c-0.079-0.188-0.036-0.404,0.108-0.548c0.144-0.144,0.361-0.188,0.548-0.105l6.096,2.584
			V9.852c0-1.654,1.346-3,3-3s3,1.346,3,3v8.848c0,0.923-0.258,1.762-0.747,2.425C42.523,22.183,41.338,22.79,40.051,22.79z
			 M34.876,19.854l4.004,1.698c1.268,0.537,2.783,0.114,3.618-1.021c0.457-0.619,0.552-1.338,0.552-1.832V9.852c0-1.103-0.897-2-2-2
			s-2,0.897-2,2v6.673c0,0.168-0.084,0.324-0.224,0.417c-0.14,0.092-0.315,0.11-0.471,0.043l-5.666-2.401
			C33.176,15.756,33.989,17.715,34.876,19.854z"/>
	</g>
	<g>
		<path class="st0" d="M29.881,63.5h-1.068c-1.983,0-3.596-1.613-3.596-3.597V35.622c0-0.202,0.122-0.385,0.309-0.462l28.55-11.826
			c0.888-0.367,1.865-0.367,2.752,0s1.578,1.059,1.946,1.946c0.724,1.747-0.039,3.77-1.735,4.604L35.19,40.624L33.463,60.22
			C33.299,62.09,31.759,63.5,29.881,63.5z M26.217,35.956v23.947c0,1.432,1.165,2.597,2.596,2.597h1.068
			c1.355,0,2.467-1.018,2.586-2.368l1.751-19.876c0.015-0.174,0.121-0.327,0.277-0.404l22.101-10.864
			c1.225-0.603,1.775-2.062,1.253-3.324c-0.265-0.641-0.764-1.14-1.405-1.405c-0.64-0.266-1.345-0.266-1.987,0L26.217,35.956z"/>
	</g>
	<g>
		<path class="st0" d="M18.12,32.207c-1.082,0-2.096-0.432-2.857-1.216c-1.183-1.221-1.433-3.129-0.623-4.749l3.738-7.476
			c0.087-0.175,0.261-0.273,0.465-0.276c0.196,0.007,0.369,0.128,0.444,0.309l2.414,5.822l3.425-1.369
			c0.744-0.299,1.559-0.287,2.295,0.027c0.737,0.315,1.306,0.899,1.604,1.644c0.297,0.744,0.288,1.56-0.028,2.296
			c-0.315,0.737-0.899,1.307-1.644,1.604l-7.736,3.094C19.136,32.109,18.632,32.207,18.12,32.207z M18.782,20.193l-3.248,6.496
			c-0.62,1.24-0.441,2.689,0.446,3.605c0.843,0.867,2.14,1.146,3.265,0.693l7.737-3.094c0.496-0.199,0.885-0.578,1.096-1.069
			s0.217-1.035,0.019-1.531s-0.578-0.885-1.069-1.096c-0.49-0.21-1.033-0.216-1.531-0.019l-3.883,1.553
			c-0.253,0.1-0.543-0.02-0.647-0.272L18.782,20.193z"/>
	</g>
	<g>
		<path class="st2" d="M31.755,13.637l-4.265,0.143l0,0.001c-0.195,1.306-1.05,2.273-2.122,2.717
			c-1.072,0.445-2.361,0.366-3.422-0.42l-0.001-0.001l-3.117,2.915l2.601,6.276l3.883-1.553c1.282-0.513,2.737,0.111,3.25,1.393l0,0
			c0.513,1.282-0.111,2.737-1.393,3.25l-3.826,1.53l2.376,5.734l12.926-5.354C38.652,30.251,31.755,13.637,31.755,13.637z"/>
		<path class="st0" d="M25.717,36.122c-0.196,0-0.382-0.116-0.462-0.309l-2.375-5.733c-0.051-0.123-0.051-0.263,0.001-0.386
			c0.052-0.123,0.151-0.221,0.275-0.27l3.826-1.53c1.024-0.41,1.524-1.576,1.114-2.601c-0.41-1.023-1.577-1.521-2.6-1.114
			l-3.883,1.553c-0.253,0.1-0.543-0.02-0.647-0.272l-2.601-6.275c-0.08-0.192-0.032-0.414,0.121-0.557l3.117-2.915
			c0.176-0.164,0.444-0.18,0.639-0.037c0.855,0.633,1.953,0.768,2.935,0.361c0.982-0.406,1.663-1.276,1.819-2.328
			c0.036-0.239,0.237-0.42,0.479-0.429l4.265-0.143c0.208-0.016,0.399,0.116,0.479,0.309c6.984,16.824,6.984,16.824,6.874,17.045
			c-0.054,0.107-0.145,0.192-0.256,0.238l-12.927,5.354C25.846,36.11,25.781,36.122,25.717,36.122z M23.997,30.165l1.99,4.804
			l12.006-4.973c-0.85-2.066-4.467-10.786-6.568-15.847l-3.523,0.117c-0.296,1.198-1.154,2.202-2.345,2.694
			c-1.178,0.487-2.48,0.392-3.56-0.247l-2.577,2.408l2.279,5.499l3.425-1.369c1.536-0.615,3.285,0.135,3.899,1.671
			s-0.136,3.285-1.672,3.899L23.997,30.165z"/>
	</g>
	<g>
		<line class="st5" x1="21.427" y1="25.269" x2="18.927" y2="26.269"/>
		<path class="st0" d="M18.927,26.769c-0.198,0-0.386-0.119-0.464-0.314c-0.103-0.256,0.022-0.547,0.279-0.649l2.5-1
			c0.253-0.103,0.548,0.021,0.65,0.278c0.103,0.256-0.022,0.547-0.279,0.649l-2.5,1C19.052,26.757,18.989,26.769,18.927,26.769z"/>
	</g>
	<g>
		<path class="st0" d="M16.5,42.028H5c-0.276,0-0.5-0.224-0.5-0.5s0.224-0.5,0.5-0.5h11.5c0.276,0,0.5,0.224,0.5,0.5
			S16.776,42.028,16.5,42.028z"/>
	</g>
	<g>
		<path class="st0" d="M20.5,42.028h-2c-0.276,0-0.5-0.224-0.5-0.5s0.224-0.5,0.5-0.5h2c0.276,0,0.5,0.224,0.5,0.5
			S20.776,42.028,20.5,42.028z"/>
	</g>
	<g>
		<path class="st0" d="M58,56.028H46.5c-0.276,0-0.5-0.224-0.5-0.5s0.224-0.5,0.5-0.5H58c0.276,0,0.5,0.224,0.5,0.5
			S58.276,56.028,58,56.028z"/>
	</g>
	<g>
		<path class="st0" d="M44.5,56.028h-2c-0.276,0-0.5-0.224-0.5-0.5s0.224-0.5,0.5-0.5h2c0.276,0,0.5,0.224,0.5,0.5
			S44.776,56.028,44.5,56.028z"/>
	</g>
</g>
</svg>
