<?xml version="1.0" encoding="utf-8"?>
<!-- Generator: Adobe Illustrator 22.0.0, SVG Export Plug-In . SVG Version: 6.00 Build 0)  -->
<svg version="1.1" id="Layer_1" xmlns="http://www.w3.org/2000/svg" xmlns:xlink="http://www.w3.org/1999/xlink" x="0px" y="0px"
	 viewBox="0 0 64 64" style="enable-background:new 0 0 64 64;" xml:space="preserve">
<style type="text/css">
	.st0{fill:#263238;}
	.st1{fill:#FFD740;}
	.st2{fill:#40C4FF;}
	.st3{fill:#FF5252;}
	.st4{fill:#4FC3F7;}
	.st5{fill:#FFFFFF;}
	.st6{fill:#4DB6AC;}
	.st7{fill:#FFCA28;}
	.st8{fill:#37474F;}
</style>
<g>
	<g>
		<g>
			<path class="st2" d="M22.999,45.615L32,46.654l9-1.039l0-7.864h6v-5.748c0-2.103-1.315-3.98-3.291-4.699L36,24.501
				c-1.593,3.385-6.408,3.385-8.001,0h0l-7.709,2.803c-1.976,0.719-3.291,2.596-3.291,4.699v5.748h6V45.615z"/>
		</g>
	</g>
	<g>
		<g>
			<path class="st0" d="M32,27.539c-1.926,0.001-3.633-1.082-4.453-2.825c-0.118-0.25-0.011-0.548,0.239-0.665
				c0.25-0.118,0.547-0.011,0.665,0.239c0.654,1.389,2.014,2.252,3.549,2.251c1.535,0,2.895-0.862,3.548-2.251
				c0.117-0.249,0.418-0.356,0.665-0.239c0.25,0.117,0.357,0.415,0.239,0.665C35.632,26.457,33.926,27.539,32,27.539z"/>
		</g>
	</g>
	<g>
		<g>
			<path class="st0" d="M32,24.001c-4.659,0-8.734-3.062-10.053-7.5c-1.63-0.028-2.947-1.363-2.947-3s1.317-2.972,2.947-3
				c1.319-4.438,5.394-7.5,10.053-7.5s8.733,3.062,10.053,7.5c1.63,0.028,2.947,1.363,2.947,3s-1.317,2.972-2.947,3
				C40.733,20.938,36.659,24.001,32,24.001z M22.259,15.478c0.234,0,0.488,0.145,0.544,0.368c1.072,4.213,4.854,7.155,9.196,7.155
				s8.125-2.942,9.196-7.155c0.062-0.245,0.287-0.407,0.549-0.373c0.131,0.019,0.191,0.028,0.255,0.028c1.103,0,2-0.897,2-2
				s-0.897-2-2-2c-0.063,0-0.124,0.01-0.185,0.019c-0.259,0.036-0.557-0.117-0.619-0.363C40.125,6.943,36.343,4.001,32,4.001
				s-8.125,2.942-9.196,7.155c-0.062,0.245-0.301,0.398-0.549,0.373c-0.131-0.019-0.192-0.028-0.255-0.028c-1.103,0-2,0.897-2,2
				s0.897,2,2,2c0.063,0,0.124-0.01,0.185-0.019C22.209,15.479,22.234,15.478,22.259,15.478z"/>
		</g>
	</g>
	<g>
		<g>
			<path class="st0" d="M32,19.001c-1.469,0-2.851-0.572-3.889-1.611c-0.195-0.195-0.195-0.512,0-0.707s0.512-0.195,0.707,0
				c0.85,0.851,1.98,1.318,3.182,1.318s2.332-0.468,3.182-1.318c0.195-0.195,0.512-0.195,0.707,0s0.195,0.512,0,0.707
				C34.851,18.429,33.469,19.001,32,19.001z"/>
		</g>
	</g>
	<g>
		<g>
			<path class="st1" d="M32.001,3.501L32.001,3.501c-5.523,0-10,4.477-10,10l5.955-5l1.265,1.14c2.756,2.485,6.334,3.86,10.045,3.86
				h2.736C42.001,7.978,37.524,3.501,32.001,3.501z"/>
		</g>
		<g>
			<path class="st0" d="M22.001,14.001c-0.072,0-0.144-0.016-0.211-0.047c-0.176-0.082-0.289-0.259-0.289-0.453
				c0-5.79,4.71-10.5,10.5-10.5h0c5.79,0,10.5,4.71,10.5,10.5c0,0.276-0.224,0.5-0.5,0.5h-2.736c-3.842,0-7.527-1.417-10.379-3.989
				l-0.942-0.849l-5.621,4.721C22.23,13.961,22.116,14.001,22.001,14.001z M27.955,8.001c0.12,0,0.24,0.043,0.334,0.129l1.265,1.14
				c2.668,2.406,6.116,3.731,9.71,3.731h2.224c-0.262-5.007-4.417-9-9.487-9c-4.856,0-8.874,3.663-9.433,8.371l5.065-4.254
				C27.727,8.04,27.841,8.001,27.955,8.001z"/>
		</g>
	</g>
	<g>
		<g>
			<path class="st0" d="M63,34.904h-2c-0.276,0-0.5-0.224-0.5-0.5s0.224-0.5,0.5-0.5h2c0.276,0,0.5,0.224,0.5,0.5
				S63.276,34.904,63,34.904z"/>
		</g>
	</g>
	<g>
		<g>
			<path class="st0" d="M59,34.904h-7.5c-0.276,0-0.5-0.224-0.5-0.5s0.224-0.5,0.5-0.5H59c0.276,0,0.5,0.224,0.5,0.5
				S59.276,34.904,59,34.904z"/>
		</g>
	</g>
	<g>
		<g>
			<path class="st0" d="M3,34.904H1c-0.276,0-0.5-0.224-0.5-0.5s0.224-0.5,0.5-0.5h2c0.276,0,0.5,0.224,0.5,0.5
				S3.276,34.904,3,34.904z"/>
		</g>
	</g>
	<g>
		<g>
			<path class="st0" d="M12.5,34.904H5c-0.276,0-0.5-0.224-0.5-0.5s0.224-0.5,0.5-0.5h7.5c0.276,0,0.5,0.224,0.5,0.5
				S12.776,34.904,12.5,34.904z"/>
		</g>
	</g>
	<g>
		<g>
			<path class="st0" d="M10.773,49.097c-1.371,0.001-2.675-0.811-3.235-2.153c-0.36-0.863-0.362-1.814-0.006-2.679
				c0.356-0.865,1.027-1.539,1.89-1.898l7.077-2.948v-7.415c0-2.305,1.455-4.382,3.62-5.168l7.38-2.685v-1.487
				c0-0.276,0.224-0.5,0.5-0.5s0.5,0.224,0.5,0.5v1.838c0,0.21-0.131,0.398-0.329,0.47l-7.709,2.804
				c-1.771,0.644-2.962,2.343-2.962,4.229v7.748c0,0.202-0.122,0.384-0.308,0.462L9.807,43.29c-0.617,0.256-1.096,0.737-1.35,1.355
				c-0.254,0.617-0.253,1.297,0.004,1.913c0.53,1.271,1.996,1.877,3.269,1.346l10.77-4.486V32.751c0-0.276,0.224-0.5,0.5-0.5
				s0.5,0.224,0.5,0.5v11c0,0.202-0.122,0.384-0.308,0.462l-11.077,4.615C11.676,49.011,11.221,49.097,10.773,49.097z"/>
		</g>
	</g>
	<g>
		<g>
			<path class="st0" d="M53.227,49.097c-0.448,0-0.903-0.086-1.342-0.269l-11.077-4.615c-0.187-0.078-0.308-0.26-0.308-0.462V32.608
				c0-0.276,0.224-0.5,0.5-0.5s0.5,0.224,0.5,0.5v10.81l10.77,4.486c0.615,0.259,1.296,0.258,1.913,0.005
				c0.617-0.255,1.099-0.734,1.355-1.351c0.258-0.616,0.259-1.296,0.005-1.913c-0.254-0.618-0.733-1.1-1.351-1.355l-7.385-3.077
				c-0.187-0.078-0.308-0.26-0.308-0.462v-7.748c0-1.886-1.19-3.585-2.962-4.229l-2.631-0.957c-0.26-0.095-0.394-0.381-0.299-0.641
				c0.094-0.259,0.381-0.393,0.641-0.299l2.631,0.957c2.165,0.786,3.62,2.863,3.62,5.168v7.415l7.077,2.948
				c0.863,0.359,1.534,1.033,1.891,1.898c0.355,0.864,0.354,1.815-0.006,2.679C55.901,48.286,54.598,49.097,53.227,49.097z"/>
		</g>
	</g>
	<g>
		<g>
			<path class="st0" d="M22.999,46.115c-0.276,0-0.5-0.224-0.5-0.5v-1.864c0-0.276,0.224-0.5,0.5-0.5s0.5,0.224,0.5,0.5v1.864
				C23.499,45.892,23.275,46.115,22.999,46.115z"/>
		</g>
	</g>
	<g>
		<g>
			<path class="st0" d="M41,46.115c-0.276,0-0.5-0.224-0.5-0.5v-1.864c0-0.276,0.224-0.5,0.5-0.5s0.5,0.224,0.5,0.5v1.864
				C41.5,45.892,41.276,46.115,41,46.115z"/>
		</g>
	</g>
	<g>
		<g>
			<path class="st0" d="M22.999,38.251h-6c-0.276,0-0.5-0.224-0.5-0.5s0.224-0.5,0.5-0.5h6c0.276,0,0.5,0.224,0.5,0.5
				S23.275,38.251,22.999,38.251z"/>
		</g>
	</g>
	<g>
		<g>
			<path class="st0" d="M47,38.251h-6c-0.276,0-0.5-0.224-0.5-0.5s0.224-0.5,0.5-0.5h6c0.276,0,0.5,0.224,0.5,0.5
				S47.276,38.251,47,38.251z"/>
		</g>
	</g>
	<g>
		<g>
			<path class="st0" d="M12.788,61c-1.231,0-2.43-0.43-3.391-1.234C8.191,58.758,7.5,57.278,7.5,55.707
				c0-2.688,2.015-4.949,4.686-5.258l30.488-3.518c2.203-0.252,4.233,1.183,4.721,3.346c0.069,0.31,0.105,0.631,0.105,0.955
				c0,2.098-1.499,3.891-3.564,4.262h-0.001l-30.207,5.422C13.415,60.972,13.1,61,12.788,61z M43.178,47.903
				c-0.129,0-0.258,0.007-0.389,0.022L12.3,51.443c-2.167,0.25-3.8,2.083-3.8,4.264c0,1.274,0.561,2.475,1.538,3.292
				c0.978,0.818,2.259,1.159,3.513,0.933l30.208-5.422c1.588-0.286,2.741-1.664,2.741-3.277c0-0.25-0.027-0.497-0.081-0.735
				C46.073,48.963,44.718,47.903,43.178,47.903z M43.847,55.002h0.01H43.847z"/>
		</g>
	</g>
	<g>
		<g>
			<path class="st2" d="M51.757,50.946l-4.851-0.56C46.967,50.658,47,50.941,47,51.233c0,1.854-1.328,3.442-3.153,3.769L32,57.128
				l0,0l18.361,3.296C53.299,60.951,56,58.692,56,55.707C56,53.273,54.175,51.225,51.757,50.946z"/>
		</g>
		<g>
			<path class="st0" d="M51.213,61c-0.312,0-0.627-0.028-0.939-0.084L31.912,57.62c-0.238-0.043-0.412-0.25-0.412-0.492
				s0.173-0.449,0.412-0.492l11.847-2.126c1.588-0.285,2.741-1.664,2.741-3.277c0-0.25-0.027-0.497-0.081-0.735
				c-0.036-0.158,0.007-0.323,0.115-0.444s0.263-0.182,0.43-0.163l4.851,0.56l0,0c2.671,0.309,4.686,2.569,4.686,5.258
				c0,1.571-0.691,3.051-1.896,4.06C53.642,60.57,52.443,61,51.213,61z M34.83,57.128l15.619,2.804
				c1.256,0.228,2.535-0.115,3.513-0.933s1.538-2.018,1.538-3.292c0-2.181-1.634-4.014-3.801-4.264l-4.208-0.485
				c0.006,0.091,0.009,0.183,0.009,0.274c0,2.098-1.499,3.891-3.564,4.262L34.83,57.128z"/>
		</g>
	</g>
	<g>
		<g>
			<path class="st0" d="M17.094,50.887c-0.141,0-0.276-0.06-0.372-0.166c-0.108-0.12-0.151-0.286-0.116-0.443
				c0.486-2.164,2.515-3.6,4.72-3.346l10.731,1.238c0.252,0.029,0.443,0.243,0.443,0.497s-0.19,0.468-0.443,0.497l-14.906,1.72
				C17.132,50.886,17.113,50.887,17.094,50.887z M20.822,47.903c-1.293,0-2.458,0.747-3.001,1.896l9.816-1.133l-6.426-0.741
				C21.081,47.91,20.951,47.903,20.822,47.903z"/>
		</g>
	</g>
	<g>
		<g>
			<path class="st2" d="M41,47.628l-28.757,3.318C9.825,51.225,8,53.273,8,55.707c0,2.985,2.7,5.244,5.639,4.717L32,57.128
				L41,55.513V47.628z"/>
		</g>
		<g>
			<path class="st0" d="M12.788,61c-1.231,0-2.43-0.43-3.391-1.233C8.191,58.758,7.5,57.278,7.5,55.707
				c0-2.688,2.015-4.949,4.686-5.258l28.756-3.318c0.146-0.019,0.283,0.029,0.391,0.124c0.106,0.095,0.167,0.23,0.167,0.373v7.885
				c0,0.242-0.174,0.449-0.412,0.492l-27.361,4.911C13.414,60.972,13.1,61,12.788,61z M40.5,48.188l-28.2,3.255
				c-2.167,0.25-3.8,2.083-3.8,4.264c0,1.274,0.561,2.475,1.538,3.292c0.978,0.818,2.259,1.159,3.512,0.933l26.95-4.837V48.188z"/>
		</g>
	</g>
	<g>
		<g>
			<path class="st1" d="M36,22.663v8.805h0.68c2.761,0,5-2.239,5-5v-10.5C40.932,18.911,38.703,21.413,36,22.663z"/>
		</g>
		<g>
			<path class="st0" d="M36.681,31.969H36c-0.276,0-0.5-0.224-0.5-0.5v-8.806c0-0.195,0.113-0.372,0.29-0.454
				c2.647-1.225,4.719-3.663,5.406-6.363c0.062-0.243,0.286-0.404,0.547-0.373c0.25,0.031,0.438,0.244,0.438,0.496v10.5
				C42.181,29.501,39.713,31.969,36.681,31.969z M36.5,30.969h0.181c2.481,0,4.5-2.019,4.5-4.5v-7.947
				c-1.06,1.874-2.715,3.472-4.681,4.456V30.969z"/>
		</g>
	</g>
	<g>
		<g>
			<path class="st1" d="M28,22.663v8.805h-0.68c-2.761,0-5-2.239-5-5v-10.5C23.068,18.911,25.297,21.413,28,22.663z"/>
		</g>
		<g>
			<path class="st0" d="M28,31.969h-0.68c-3.033,0-5.5-2.468-5.5-5.5v-10.5c0-0.252,0.188-0.465,0.438-0.496
				c0.252-0.035,0.484,0.129,0.546,0.373c0.688,2.7,2.758,5.139,5.406,6.363c0.177,0.082,0.29,0.259,0.29,0.454v8.806
				C28.5,31.745,28.276,31.969,28,31.969z M22.819,18.521v7.947c0,2.481,2.019,4.5,4.5,4.5h0.18v-7.991
				C25.534,21.993,23.878,20.396,22.819,18.521z"/>
		</g>
	</g>
	<g>
		<g>
			<path class="st0" d="M53.5,21.001h-4c-0.276,0-0.5-0.224-0.5-0.5s0.224-0.5,0.5-0.5h4c0.276,0,0.5,0.224,0.5,0.5
				S53.776,21.001,53.5,21.001z"/>
		</g>
	</g>
	<g>
		<g>
			<path class="st0" d="M51.5,23.001c-0.276,0-0.5-0.224-0.5-0.5v-4c0-0.276,0.224-0.5,0.5-0.5s0.5,0.224,0.5,0.5v4
				C52,22.777,51.776,23.001,51.5,23.001z"/>
		</g>
	</g>
	<g>
		<g>
			<path class="st0" d="M59.5,16.001h-4c-0.276,0-0.5-0.224-0.5-0.5s0.224-0.5,0.5-0.5h4c0.276,0,0.5,0.224,0.5,0.5
				S59.776,16.001,59.5,16.001z"/>
		</g>
	</g>
	<g>
		<g>
			<path class="st0" d="M57.5,18.001c-0.276,0-0.5-0.224-0.5-0.5v-4c0-0.276,0.224-0.5,0.5-0.5s0.5,0.224,0.5,0.5v4
				C58,17.777,57.776,18.001,57.5,18.001z"/>
		</g>
	</g>
</g>
</svg>
