<?xml version="1.0" encoding="utf-8"?>
<!-- Generator: Adobe Illustrator 22.0.0, SVG Export Plug-In . SVG Version: 6.00 Build 0)  -->
<svg version="1.1" id="Layer_1" xmlns="http://www.w3.org/2000/svg" xmlns:xlink="http://www.w3.org/1999/xlink" x="0px" y="0px"
	 viewBox="0 0 64 64" style="enable-background:new 0 0 64 64;" xml:space="preserve">
<style type="text/css">
	.st0{fill:#263238;}
	.st1{fill:#FFD740;}
	.st2{fill:#40C4FF;}
	.st3{fill:#FF5252;}
	.st4{fill:#4FC3F7;}
	.st5{fill:#FFFFFF;}
	.st6{fill:#4DB6AC;}
	.st7{fill:#FFCA28;}
	.st8{fill:#37474F;}
</style>
<g>
	<g>
		<g>
			<path class="st0" d="M21.5,26.75H20c-0.827,0-1.5-0.673-1.5-1.5v-3c0-0.827,0.673-1.5,1.5-1.5h1.5c0.276,0,0.5,0.224,0.5,0.5v5
				C22,26.526,21.776,26.75,21.5,26.75z M20,21.75c-0.276,0-0.5,0.224-0.5,0.5v3c0,0.276,0.224,0.5,0.5,0.5h1v-4H20z"/>
		</g>
	</g>
	<g>
		<g>
			<path class="st1" d="M42,60H13c-0.552,0-1-0.448-1-1v-3c0-0.552,0.448-1,1-1h29c0.552,0,1,0.448,1,1v3C43,59.552,42.552,60,42,60
				z"/>
		</g>
		<g>
			<path class="st0" d="M42,60.5H13c-0.827,0-1.5-0.673-1.5-1.5v-3c0-0.827,0.673-1.5,1.5-1.5h29c0.827,0,1.5,0.673,1.5,1.5v3
				C43.5,59.827,42.827,60.5,42,60.5z M13,55.5c-0.276,0-0.5,0.224-0.5,0.5v3c0,0.276,0.224,0.5,0.5,0.5h29
				c0.276,0,0.5-0.224,0.5-0.5v-3c0-0.276-0.224-0.5-0.5-0.5H13z"/>
		</g>
	</g>
	<g>
		<g>
			<path class="st0" d="M12,43.5h-2c-4.687,0-8.5-3.813-8.5-8.5c0-0.276,0.224-0.5,0.5-0.5h10c0.276,0,0.5,0.224,0.5,0.5v8
				C12.5,43.276,12.276,43.5,12,43.5z M2.516,35.5c0.258,3.903,3.516,7,7.483,7h1.5v-7H2.516z"/>
		</g>
	</g>
	<g>
		<g>
			<path class="st2" d="M31,34h-7c-1.381,0-2.5-1.119-2.5-2.5V16c0-1.381,1.119-2.5,2.5-2.5h7c1.381,0,2.5,1.119,2.5,2.5v15.5
				C33.5,32.881,32.38,34,31,34z"/>
		</g>
		<g>
			<path class="st0" d="M31,34.5h-7c-1.654,0-3-1.346-3-3V16c0-1.654,1.346-3,3-3h7c1.654,0,3,1.346,3,3v15.5
				C34,33.154,32.654,34.5,31,34.5z M24,14c-1.103,0-2,0.897-2,2v15.5c0,1.103,0.897,2,2,2h7c1.103,0,2-0.897,2-2V16
				c0-1.103-0.897-2-2-2H24z"/>
		</g>
	</g>
	<g>
		<g>
			<path class="st0" d="M61,26.75H33.5c-0.276,0-0.5-0.224-0.5-0.5v-5c0-0.276,0.224-0.5,0.5-0.5H61c0.827,0,1.5,0.673,1.5,1.5v3
				C62.5,26.077,61.827,26.75,61,26.75z M34,25.75h27c0.276,0,0.5-0.224,0.5-0.5v-3c0-0.276-0.224-0.5-0.5-0.5H34V25.75z"/>
		</g>
	</g>
	<g>
		<g>
			<path class="st0" d="M39.5,44.5h-21c-0.276,0-0.5-0.224-0.5-0.5s0.224-0.5,0.5-0.5h21c0.276,0,0.5,0.224,0.5,0.5
				S39.776,44.5,39.5,44.5z"/>
		</g>
	</g>
	<g>
		<g>
			<path class="st1" d="M43,43v-8c0-0.552-0.448-1-1-1H13c-0.552,0-1,0.448-1,1v8c0,0.552,0.448,1,1,1h5.5h21H42
				C42.552,44,43,43.552,43,43z"/>
		</g>
		<g>
			<path class="st0" d="M42,44.5H13c-0.827,0-1.5-0.673-1.5-1.5v-8c0-0.827,0.673-1.5,1.5-1.5h29c0.827,0,1.5,0.673,1.5,1.5v8
				C43.5,43.827,42.827,44.5,42,44.5z M13,34.5c-0.276,0-0.5,0.224-0.5,0.5v8c0,0.276,0.224,0.5,0.5,0.5h29
				c0.276,0,0.5-0.224,0.5-0.5v-8c0-0.276-0.224-0.5-0.5-0.5H13z"/>
		</g>
	</g>
	<g>
		<g>
			<path class="st0" d="M39.5,55.5H13c-0.275,0-0.498-0.222-0.5-0.497s0.219-0.5,0.494-0.503C15.754,54.465,18,52.19,18,49.43V44
				c0-0.276,0.224-0.5,0.5-0.5h21c0.198,0,0.377,0.117,0.457,0.298c0.08,0.181,0.046,0.392-0.087,0.539l-0.414,0.455
				c-2.441,2.684-2.441,6.733,0,9.417l0.414,0.455c0.133,0.146,0.167,0.358,0.087,0.539C39.876,55.383,39.697,55.5,39.5,55.5z
				 M16.254,54.5H38.39c-2.355-2.93-2.355-7.07,0-10H19v4.93C19,51.539,17.905,53.41,16.254,54.5z"/>
		</g>
	</g>
	<g>
		<g>
			<path class="st0" d="M10,24.5c-0.128,0-0.256-0.049-0.354-0.146L5.05,19.757c-0.195-0.195-0.195-0.512,0-0.707
				s0.512-0.195,0.707,0l4.596,4.596c0.195,0.195,0.195,0.512,0,0.707C10.255,24.451,10.127,24.5,10,24.5z"/>
		</g>
	</g>
	<g>
		<g>
			<path class="st0" d="M36.499,6.5h-4c-0.276,0-0.5-0.224-0.5-0.5s0.224-0.5,0.5-0.5h4c0.276,0,0.5,0.224,0.5,0.5
				S36.775,6.5,36.499,6.5z"/>
		</g>
	</g>
	<g>
		<g>
			<path class="st0" d="M34.499,8.5c-0.276,0-0.5-0.224-0.5-0.5V4c0-0.276,0.224-0.5,0.5-0.5s0.5,0.224,0.5,0.5v4
				C34.999,8.276,34.775,8.5,34.499,8.5z"/>
		</g>
	</g>
	<g>
		<g>
			<path class="st0" d="M41.999,11h-4c-0.276,0-0.5-0.224-0.5-0.5s0.224-0.5,0.5-0.5h4c0.276,0,0.5,0.224,0.5,0.5
				S42.275,11,41.999,11z"/>
		</g>
	</g>
	<g>
		<g>
			<path class="st0" d="M39.999,13c-0.276,0-0.5-0.224-0.5-0.5v-4c0-0.276,0.224-0.5,0.5-0.5s0.5,0.224,0.5,0.5v4
				C40.499,12.776,40.275,13,39.999,13z"/>
		</g>
	</g>
	<g>
		<g>
			<path class="st0" d="M12.5,29.5H6c-0.276,0-0.5-0.224-0.5-0.5s0.224-0.5,0.5-0.5h6.5c0.276,0,0.5,0.224,0.5,0.5
				S12.776,29.5,12.5,29.5z"/>
		</g>
	</g>
	<g>
		<g>
			<path class="st0" d="M4,29.5H2c-0.276,0-0.5-0.224-0.5-0.5s0.224-0.5,0.5-0.5h2c0.276,0,0.5,0.224,0.5,0.5S4.276,29.5,4,29.5z"/>
		</g>
	</g>
	<g>
		<g>
			<path class="st0" d="M15,27c-0.276,0-0.5-0.224-0.5-0.5V20c0-0.276,0.224-0.5,0.5-0.5s0.5,0.224,0.5,0.5v6.5
				C15.5,26.776,15.276,27,15,27z"/>
		</g>
	</g>
	<g>
		<g>
			<path class="st0" d="M15,18.5c-0.276,0-0.5-0.224-0.5-0.5v-2c0-0.276,0.224-0.5,0.5-0.5s0.5,0.224,0.5,0.5v2
				C15.5,18.276,15.276,18.5,15,18.5z"/>
		</g>
	</g>
	<g>
		<g>
			<path class="st0" d="M30.5,22c-0.276,0-0.5-0.224-0.5-0.5v-4c0-0.276-0.224-0.5-0.5-0.5H28c-0.276,0-0.5-0.224-0.5-0.5
				S27.723,16,28,16h1.5c0.827,0,1.5,0.673,1.5,1.5v4C31,21.776,30.776,22,30.5,22z"/>
		</g>
	</g>
	<g>
		<g>
			<path class="st0" d="M57,26.75c-0.276,0-0.5-0.224-0.5-0.5v-5c0-0.276,0.224-0.5,0.5-0.5s0.5,0.224,0.5,0.5v5
				C57.5,26.526,57.276,26.75,57,26.75z"/>
		</g>
	</g>
</g>
</svg>
