<?xml version="1.0" encoding="utf-8"?>
<!-- Generator: Adobe Illustrator 22.0.0, SVG Export Plug-In . SVG Version: 6.00 Build 0)  -->
<svg version="1.1" id="Layer_1" xmlns="http://www.w3.org/2000/svg" xmlns:xlink="http://www.w3.org/1999/xlink" x="0px" y="0px"
	 viewBox="0 0 64 64" style="enable-background:new 0 0 64 64;" xml:space="preserve">
<style type="text/css">
	.st0{fill:#263238;}
	.st1{fill:#FFD740;}
	.st2{fill:#40C4FF;}
	.st3{fill:#FF5252;}
	.st4{fill:#4FC3F7;}
	.st5{fill:#FFFFFF;}
	.st6{fill:#4DB6AC;}
	.st7{fill:#FFCA28;}
	.st8{fill:#37474F;}
</style>
<g>
	<g>
		<g>
			<path class="st0" d="M36.816,56.64c-1.82,0-3.652-0.472-5.305-1.441l-5.493-3.22c-1.455-0.853-3.116-1.304-4.804-1.304h-2.785
				c-0.276,0-0.5-0.224-0.5-0.5s0.224-0.5,0.5-0.5h2.785c1.866,0,3.702,0.499,5.31,1.442l5.493,3.22
				c3.728,2.185,8.466,1.577,11.521-1.479l10.447-10.447c0.378-0.378,0.586-0.88,0.586-1.414s-0.208-1.037-0.586-1.415
				c-0.779-0.779-2.049-0.779-2.828,0l-4.243,4.243c-0.195,0.195-0.512,0.195-0.707,0s-0.195-0.512,0-0.707l4.243-4.243
				c1.17-1.17,3.072-1.17,4.242,0c0.567,0.567,0.879,1.32,0.879,2.122s-0.312,1.555-0.879,2.121L44.245,53.565
				C42.223,55.587,39.533,56.64,36.816,56.64z"/>
		</g>
	</g>
	<g>
		<g>
			<path class="st1" d="M8.929,37.175v14.5c0,0.552,0.448,1,1,1h5.5c0.552,0,1-0.448,1-1v-14.5c0-0.552-0.448-1-1-1h-5.5
				C9.376,36.175,8.929,36.622,8.929,37.175z"/>
		</g>
		<g>
			<path class="st0" d="M15.429,53.174h-5.5c-0.827,0-1.5-0.673-1.5-1.5v-14.5c0-0.827,0.673-1.5,1.5-1.5h5.5
				c0.827,0,1.5,0.673,1.5,1.5v14.5C16.929,52.501,16.256,53.174,15.429,53.174z M9.929,36.674c-0.276,0-0.5,0.224-0.5,0.5v14.5
				c0,0.276,0.224,0.5,0.5,0.5h5.5c0.276,0,0.5-0.224,0.5-0.5v-14.5c0-0.276-0.224-0.5-0.5-0.5H9.929z"/>
		</g>
	</g>
	<g>
		<g>
			<path class="st0" d="M41.429,48.175h-6.5c-0.276,0-0.5-0.224-0.5-0.5s0.224-0.5,0.5-0.5h6.5c1.103,0,2-0.897,2-2s-0.897-2-2-2h-7
				c-0.061,0-0.121-0.011-0.178-0.033l-7.92-3.017c-1.654-0.63-3.391-0.95-5.162-0.95h-2.74c-0.276,0-0.5-0.224-0.5-0.5
				s0.224-0.5,0.5-0.5h2.74c1.893,0,3.749,0.342,5.518,1.016l7.834,2.984h6.908c1.654,0,3,1.346,3,3S43.083,48.175,41.429,48.175z"
				/>
		</g>
	</g>
	<g>
		<g>
			<path class="st6" d="M34.002,9.862c-2.206,2.206-1.997,5.992-1.997,5.992s3.786,0.209,5.992-1.997s1.997-5.992,1.997-5.992
				S36.209,7.656,34.002,9.862z"/>
		</g>
		<g>
			<path class="st0" d="M32.293,16.36c-0.179,0-0.291-0.006-0.315-0.007c-0.255-0.014-0.458-0.217-0.472-0.472
				c-0.009-0.164-0.194-4.036,2.143-6.373l0,0c2.337-2.337,6.21-2.153,6.373-2.143c0.255,0.014,0.458,0.217,0.472,0.472
				c0.009,0.164,0.195,4.036-2.143,6.373C36.37,16.191,33.287,16.36,32.293,16.36z M34.356,10.215
				c-1.578,1.579-1.822,4.1-1.852,5.14c1.04-0.03,3.561-0.273,5.14-1.852c1.579-1.578,1.822-4.099,1.852-5.139
				C38.456,8.394,35.934,8.637,34.356,10.215L34.356,10.215z"/>
		</g>
	</g>
	<g>
		<g>
			<path class="st6" d="M29.997,9.862c2.206,2.206,1.997,5.992,1.997,5.992s-3.786,0.209-5.992-1.997s-1.997-5.992-1.997-5.992
				S27.791,7.656,29.997,9.862z"/>
		</g>
		<g>
			<path class="st0" d="M31.707,16.36c-0.995,0-4.078-0.169-6.058-2.15c-2.337-2.337-2.152-6.209-2.143-6.373
				c0.014-0.254,0.217-0.458,0.472-0.472c0.162-0.009,4.035-0.195,6.373,2.143l0,0c2.337,2.337,2.152,6.209,2.143,6.373
				c-0.014,0.254-0.217,0.458-0.472,0.472C31.997,16.354,31.886,16.36,31.707,16.36z M24.504,8.363
				c0.03,1.04,0.273,3.561,1.852,5.14c1.583,1.584,4.101,1.824,5.14,1.853c-0.03-1.04-0.273-3.561-1.852-5.14
				C28.06,8.632,25.543,8.392,24.504,8.363z"/>
		</g>
	</g>
	<g>
		<g>
			<circle class="st3" cx="32" cy="24.859" r="9"/>
		</g>
		<g>
			<path class="st0" d="M32,34.359c-5.238,0-9.5-4.262-9.5-9.5s4.262-9.5,9.5-9.5s9.5,4.262,9.5,9.5S37.238,34.359,32,34.359z
				 M32,16.359c-4.687,0-8.5,3.813-8.5,8.5s3.813,8.5,8.5,8.5s8.5-3.813,8.5-8.5S36.687,16.359,32,16.359z"/>
		</g>
	</g>
	<g>
		<g>
			<path class="st0" d="M38,25.359c-0.276,0-0.5-0.224-0.5-0.5c0-3.033-2.467-5.5-5.5-5.5c-0.276,0-0.5-0.224-0.5-0.5
				s0.224-0.5,0.5-0.5c3.584,0,6.5,2.916,6.5,6.5C38.5,25.136,38.276,25.359,38,25.359z"/>
		</g>
	</g>
	<g>
		<g>
			<path class="st0" d="M19,28.391h-9c-0.276,0-0.5-0.224-0.5-0.5s0.224-0.5,0.5-0.5h9c0.276,0,0.5,0.224,0.5,0.5
				S19.276,28.391,19,28.391z"/>
		</g>
	</g>
	<g>
		<g>
			<path class="st0" d="M8,28.391H6c-0.276,0-0.5-0.224-0.5-0.5s0.224-0.5,0.5-0.5h2c0.276,0,0.5,0.224,0.5,0.5
				S8.276,28.391,8,28.391z"/>
		</g>
	</g>
	<g>
		<g>
			<path class="st0" d="M54,28.391h-9c-0.276,0-0.5-0.224-0.5-0.5s0.224-0.5,0.5-0.5h9c0.276,0,0.5,0.224,0.5,0.5
				S54.276,28.391,54,28.391z"/>
		</g>
	</g>
	<g>
		<g>
			<path class="st0" d="M58,28.391h-2c-0.276,0-0.5-0.224-0.5-0.5s0.224-0.5,0.5-0.5h2c0.276,0,0.5,0.224,0.5,0.5
				S58.276,28.391,58,28.391z"/>
		</g>
	</g>
	<g>
		<g>
			<path class="st0" d="M17,16.391h-4c-0.276,0-0.5-0.224-0.5-0.5s0.224-0.5,0.5-0.5h4c0.276,0,0.5,0.224,0.5,0.5
				S17.276,16.391,17,16.391z"/>
		</g>
	</g>
	<g>
		<g>
			<path class="st0" d="M10.5,11.391h-4c-0.276,0-0.5-0.224-0.5-0.5s0.224-0.5,0.5-0.5h4c0.276,0,0.5,0.224,0.5,0.5
				S10.776,11.391,10.5,11.391z"/>
		</g>
	</g>
	<g>
		<g>
			<path class="st0" d="M8.5,13.391c-0.276,0-0.5-0.224-0.5-0.5v-4c0-0.276,0.224-0.5,0.5-0.5S9,8.614,9,8.891v4
				C9,13.167,8.776,13.391,8.5,13.391z"/>
		</g>
	</g>
	<g>
		<g>
			<path class="st0" d="M15,18.391c-0.276,0-0.5-0.224-0.5-0.5v-4c0-0.276,0.224-0.5,0.5-0.5s0.5,0.224,0.5,0.5v4
				C15.5,18.167,15.276,18.391,15,18.391z"/>
		</g>
	</g>
	<g>
		<g>
			<path class="st0" d="M43.939,41.942c-0.254,0-0.471-0.192-0.497-0.451c-0.312-3.146-1.946-6.057-4.482-7.987
				c-0.22-0.167-0.262-0.481-0.095-0.701s0.481-0.262,0.701-0.095c2.756,2.098,4.532,5.263,4.872,8.685
				c0.027,0.275-0.173,0.52-0.448,0.547C43.972,41.941,43.956,41.942,43.939,41.942z"/>
		</g>
	</g>
	<g>
		<g>
			<path class="st0" d="M21.586,37.193c-0.084,0-0.169-0.021-0.248-0.066c-0.239-0.137-0.323-0.443-0.186-0.683
				c0.834-1.457,1.937-2.715,3.278-3.739c0.221-0.168,0.533-0.125,0.701,0.094c0.167,0.22,0.125,0.534-0.094,0.701
				c-1.235,0.943-2.25,2.101-3.017,3.441C21.928,37.103,21.759,37.193,21.586,37.193z"/>
		</g>
	</g>
</g>
</svg>
