<?xml version="1.0" encoding="utf-8"?>
<!-- Generator: Adobe Illustrator 22.0.0, SVG Export Plug-In . SVG Version: 6.00 Build 0)  -->
<svg version="1.1" id="Layer_1" xmlns="http://www.w3.org/2000/svg" xmlns:xlink="http://www.w3.org/1999/xlink" x="0px" y="0px"
	 viewBox="0 0 64 64" style="enable-background:new 0 0 64 64;" xml:space="preserve">
<style type="text/css">
	.st0{fill:#263238;}
	.st1{fill:#FFD740;}
	.st2{fill:#40C4FF;}
	.st3{fill:#FF5252;}
	.st4{fill:#4FC3F7;}
	.st5{fill:#FFFFFF;}
	.st6{fill:#4DB6AC;}
	.st7{fill:#FFCA28;}
	.st8{fill:#37474F;}
</style>
<g>
	<g>
		<g>
			<path class="st1" d="M59.679,7.747l-10.605,9.278l-9.283,10.61c-0.347,0.396-0.327,0.993,0.045,1.366l1.152,1.152
				c0.372,0.372,0.969,0.392,1.366,0.045l10.61-9.283L62.253,10.3c0.349-0.399,0.326-1.001-0.052-1.372l-1.162-1.141
				C60.665,7.42,60.073,7.403,59.679,7.747z"/>
		</g>
		<g>
			<path class="st0" d="M41.696,30.944c-0.386,0-0.771-0.147-1.062-0.438l-1.151-1.152c-0.557-0.556-0.587-1.456-0.068-2.049
				l9.283-10.609l10.652-9.325l0,0c0.588-0.513,1.483-0.486,2.038,0.059l1.162,1.142c0.566,0.556,0.602,1.459,0.079,2.058
				l-9.29,10.614l-10.657,9.331C42.4,30.821,42.048,30.944,41.696,30.944z M60.009,8.124l-10.605,9.278l-9.236,10.562
				c-0.173,0.198-0.162,0.498,0.023,0.683l1.151,1.152c0.187,0.187,0.485,0.196,0.683,0.023l10.61-9.284l9.242-10.567
				c0.174-0.199,0.162-0.5-0.026-0.686l-1.163-1.142C60.503,7.961,60.204,7.953,60.009,8.124L60.009,8.124z"/>
		</g>
	</g>
	<g>
		<g>
			<path class="st0" d="M52.964,21.414c-0.128,0-0.256-0.049-0.354-0.146l-3.89-3.889c-0.195-0.195-0.195-0.512,0-0.707
				s0.512-0.195,0.707,0l3.89,3.889c0.195,0.195,0.195,0.512,0,0.707C53.22,21.365,53.092,21.414,52.964,21.414z"/>
		</g>
	</g>
	<g>
		<g>
			<path class="st0" d="M55,49H10c-1.654,0-3-1.346-3-3V15c0-1.654,1.346-3,3-3h41.21c0.276,0,0.5,0.224,0.5,0.5s-0.224,0.5-0.5,0.5
				H10c-1.103,0-2,0.897-2,2v31c0,1.103,0.897,2,2,2h45c1.103,0,2-0.897,2-2V18.767c0-0.276,0.224-0.5,0.5-0.5s0.5,0.224,0.5,0.5V46
				C58,47.654,56.654,49,55,49z"/>
		</g>
	</g>
	<g>
		<g>
			<path class="st0" d="M21.5,60.5c-0.094,0-0.188-0.026-0.273-0.081c-0.231-0.151-0.296-0.461-0.146-0.692l7.5-11.5
				c0.151-0.231,0.46-0.294,0.692-0.146c0.231,0.151,0.296,0.461,0.146,0.692l-7.5,11.5C21.823,60.42,21.663,60.5,21.5,60.5z"/>
		</g>
	</g>
	<g>
		<g>
			<path class="st0" d="M15.5,60.5c-0.094,0-0.188-0.026-0.273-0.081c-0.231-0.151-0.296-0.461-0.146-0.692l7.5-11.5
				c0.151-0.231,0.461-0.294,0.692-0.146c0.231,0.151,0.296,0.461,0.146,0.692l-7.5,11.5C15.823,60.42,15.663,60.5,15.5,60.5z"/>
		</g>
	</g>
	<g>
		<g>
			<path class="st0" d="M43.5,60.5c-0.163,0-0.323-0.08-0.419-0.227l-7.5-11.5c-0.15-0.231-0.086-0.541,0.146-0.692
				c0.232-0.149,0.542-0.085,0.692,0.146l7.5,11.5c0.15,0.231,0.086,0.541-0.146,0.692C43.688,60.474,43.594,60.5,43.5,60.5z"/>
		</g>
	</g>
	<g>
		<g>
			<path class="st0" d="M49.5,60.5c-0.163,0-0.323-0.08-0.419-0.227l-7.5-11.5c-0.15-0.231-0.086-0.541,0.146-0.692
				c0.233-0.149,0.542-0.085,0.692,0.146l7.5,11.5c0.15,0.231,0.086,0.541-0.146,0.692C49.688,60.474,49.594,60.5,49.5,60.5z"/>
		</g>
	</g>
	<g>
		<g>
			<path class="st0" d="M36.5,13h-8c-0.276,0-0.5-0.224-0.5-0.5v-2C28,9.673,28.673,9,29.5,9h6c0.827,0,1.5,0.673,1.5,1.5v2
				C37,12.776,36.776,13,36.5,13z M29,12h7v-1.5c0-0.276-0.225-0.5-0.5-0.5h-6c-0.275,0-0.5,0.224-0.5,0.5V12z"/>
		</g>
	</g>
	<g>
		<g>
			<path class="st0" d="M11,6.5H7C6.724,6.5,6.5,6.276,6.5,6S6.724,5.5,7,5.5h4c0.276,0,0.5,0.224,0.5,0.5S11.276,6.5,11,6.5z"/>
		</g>
	</g>
	<g>
		<g>
			<path class="st0" d="M9,8.5C8.724,8.5,8.5,8.276,8.5,8V4c0-0.276,0.224-0.5,0.5-0.5S9.5,3.724,9.5,4v4C9.5,8.276,9.276,8.5,9,8.5
				z"/>
		</g>
	</g>
	<g>
		<g>
			<path class="st0" d="M5.5,11h-4C1.224,11,1,10.776,1,10.5S1.224,10,1.5,10h4C5.776,10,6,10.224,6,10.5S5.776,11,5.5,11z"/>
		</g>
	</g>
	<g>
		<g>
			<path class="st0" d="M3.5,13C3.224,13,3,12.776,3,12.5v-4C3,8.224,3.224,8,3.5,8S4,8.224,4,8.5v4C4,12.776,3.776,13,3.5,13z"/>
		</g>
	</g>
	<g>
		<g>
			<path class="st0" d="M54.5,46h-44c-0.276,0-0.5-0.224-0.5-0.5v-30c0-0.276,0.224-0.5,0.5-0.5h37.28c0.276,0,0.5,0.224,0.5,0.5
				s-0.224,0.5-0.5,0.5H11v29h43V22.195c0-0.276,0.224-0.5,0.5-0.5s0.5,0.224,0.5,0.5V45.5C55,45.776,54.776,46,54.5,46z"/>
		</g>
	</g>
	<g>
		<g>
			<path class="st0" d="M30.513,37.854c-0.212,0-0.402-0.134-0.473-0.336c-0.072-0.21,0.002-0.442,0.182-0.571l3.497-2.498
				c0.622-0.444,0.811-1.282,0.439-1.95l-0.143-0.257c-0.25-0.45-0.253-0.988-0.01-1.44c0.243-0.452,0.693-0.745,1.206-0.785
				l2.354-0.181c0.587-0.048,1.154,0.166,1.567,0.58l0.271,0.271c0.539,0.539,0.724,1.323,0.483,2.046l-0.392,1.173
				c-0.712,2.138-2.704,3.647-4.956,3.755l-4.003,0.19C30.528,37.854,30.521,37.854,30.513,37.854z M37.72,30.832
				c-0.026,0-0.052,0.001-0.078,0.003l-2.354,0.181c-0.173,0.013-0.319,0.109-0.402,0.262c-0.082,0.153-0.081,0.328,0.004,0.48
				l0.143,0.257c0.618,1.112,0.304,2.509-0.731,3.249l-2.115,1.511l2.307-0.11c1.842-0.088,3.472-1.323,4.054-3.072l0.392-1.173
				c0.121-0.361,0.028-0.754-0.241-1.023l-0.271-0.271C38.237,30.937,37.983,30.832,37.72,30.832z"/>
		</g>
	</g>
	<g>
		<g>
			<path class="st2" d="M48,40.5c-1.381,0-2.5-1.119-2.5-2.5v-3.455c0-1.859-1.956-3.067-3.618-2.236l-0.425,0.212
				c-0.028,0.231-0.072,0.461-0.147,0.688l-0.391,1.173c-0.907,2.721-3.442,4.642-6.308,4.779l-4.003,0.19
				c-0.032,0.001-0.064,0.002-0.096,0.002c-0.563,0-1.072-0.252-1.443-0.646c-1.652,0.784-3.569-0.413-3.569-2.253v-6.284
				c0-1.997-2.225-3.188-3.887-2.08L10.5,35.5v10h44v-5H48z"/>
		</g>
	</g>
	<g>
		<g>
			<path class="st0" d="M54.5,46h-44c-0.276,0-0.5-0.224-0.5-0.5v-10c0-0.167,0.084-0.323,0.223-0.416l11.113-7.409
				c0.937-0.624,2.088-0.679,3.079-0.149C25.407,28.057,26,29.046,26,30.171v6.283c0,0.688,0.347,1.318,0.927,1.685
				c0.585,0.37,1.306,0.413,1.929,0.117c0.243-0.118,0.547-0.013,0.666,0.237c0.118,0.25,0.012,0.548-0.238,0.666
				c-0.935,0.444-2.015,0.378-2.892-0.175C25.521,38.433,25,37.487,25,36.455v-6.283c0-0.75-0.395-1.41-1.057-1.764
				c-0.664-0.355-1.429-0.317-2.053,0.099L11,35.768V45h43v-4h-6c-1.654,0-3-1.346-3-3v-3.455c0-0.698-0.354-1.334-0.948-1.701
				c-0.594-0.367-1.323-0.4-1.946-0.087l-0.425,0.212c-0.248,0.122-0.547,0.023-0.671-0.224c-0.123-0.247-0.023-0.547,0.224-0.671
				l0.425-0.212c0.936-0.468,2.028-0.42,2.919,0.131C45.468,32.544,46,33.498,46,34.545V38c0,1.103,0.897,2,2,2h6.5
				c0.276,0,0.5,0.224,0.5,0.5v5C55,45.776,54.776,46,54.5,46z"/>
		</g>
	</g>
	<g>
		<g>
			<path class="st0" d="M16.5,23.5h-1c-0.276,0-0.5-0.224-0.5-0.5s0.224-0.5,0.5-0.5h1c0.276,0,0.5,0.224,0.5,0.5
				S16.776,23.5,16.5,23.5z"/>
		</g>
	</g>
	<g>
		<g>
			<path class="st0" d="M28.5,23.5h-10c-0.276,0-0.5-0.224-0.5-0.5s0.224-0.5,0.5-0.5h10c0.276,0,0.5,0.224,0.5,0.5
				S28.776,23.5,28.5,23.5z"/>
		</g>
	</g>
	<g>
		<g>
			<path class="st0" d="M37,20.5h-1c-0.276,0-0.5-0.224-0.5-0.5s0.224-0.5,0.5-0.5h1c0.276,0,0.5,0.224,0.5,0.5S37.276,20.5,37,20.5
				z"/>
		</g>
	</g>
	<g>
		<g>
			<path class="st0" d="M34,20.5H24c-0.276,0-0.5-0.224-0.5-0.5s0.224-0.5,0.5-0.5h10c0.276,0,0.5,0.224,0.5,0.5
				S34.276,20.5,34,20.5z"/>
		</g>
	</g>
</g>
</svg>
