<?xml version="1.0" encoding="utf-8"?>
<!-- Generator: Adobe Illustrator 22.0.0, SVG Export Plug-In . SVG Version: 6.00 Build 0)  -->
<svg version="1.1" id="Layer_1" xmlns="http://www.w3.org/2000/svg" xmlns:xlink="http://www.w3.org/1999/xlink" x="0px" y="0px"
	 viewBox="0 0 64 64" style="enable-background:new 0 0 64 64;" xml:space="preserve">
<style type="text/css">
	.st0{fill:#263238;}
	.st1{fill:#FFD740;}
	.st2{fill:#40C4FF;}
	.st3{fill:#FF5252;}
	.st4{fill:#4FC3F7;}
	.st5{fill:#FFFFFF;}
	.st6{fill:#4DB6AC;}
	.st7{fill:#FFCA28;}
	.st8{fill:#37474F;}
</style>
<g>
	<g>
		<g>
			<path class="st0" d="M12,54.001c-3.584,0-6.5-2.916-6.5-6.5s2.916-6.5,6.5-6.5s6.5,2.916,6.5,6.5S15.584,54.001,12,54.001z
				 M12,42.001c-3.033,0-5.5,2.467-5.5,5.5s2.467,5.5,5.5,5.5s5.5-2.467,5.5-5.5S15.033,42.001,12,42.001z"/>
		</g>
	</g>
	<g>
		<g>
			<path class="st0" d="M2,62.5c-0.276,0-0.5-0.224-0.5-0.5v-0.413c0-2.095,1.164-3.979,3.036-4.918l4.236-2.122
				c0.103-0.051,0.219-0.065,0.333-0.041c0.061,0.014,0.122,0.039,0.173,0.073l0.228,0.152c1.518,1.012,3.479,1.011,4.995-0.003
				l0.222-0.148c0.163-0.109,0.375-0.112,0.541-0.01l4.197,2.098c1.875,0.938,3.041,2.823,3.041,4.919v0.41
				c0,0.276-0.224,0.5-0.5,0.5s-0.5-0.224-0.5-0.5v-0.41c0-1.715-0.953-3.257-2.488-4.025l-3.977-1.988
				c-1.847,1.222-4.227,1.221-6.073-0.003l-3.978,1.993C3.452,58.332,2.5,59.874,2.5,61.588V62C2.5,62.277,2.276,62.5,2,62.5z"/>
		</g>
	</g>
	<g>
		<g>
			<path class="st0" d="M32,54.001c-3.584,0-6.5-2.916-6.5-6.5s2.916-6.5,6.5-6.5s6.5,2.916,6.5,6.5S35.584,54.001,32,54.001z
				 M32,42.001c-3.033,0-5.5,2.467-5.5,5.5s2.467,5.5,5.5,5.5c3.032,0,5.5-2.467,5.5-5.5S35.032,42.001,32,42.001z"/>
		</g>
	</g>
	<g>
		<g>
			<path class="st0" d="M22,62.5c-0.276,0-0.5-0.224-0.5-0.5v-0.413c0-2.095,1.164-3.979,3.036-4.918l4.236-2.122
				c0.104-0.051,0.22-0.065,0.333-0.041c0.061,0.014,0.122,0.039,0.173,0.073l0.228,0.152c1.519,1.012,3.478,1.011,4.996-0.003
				l0.222-0.148c0.166-0.11,0.379-0.111,0.543-0.009l4.194,2.097c1.875,0.938,3.04,2.823,3.04,4.919v0.41c0,0.276-0.224,0.5-0.5,0.5
				s-0.5-0.224-0.5-0.5v-0.41c0-1.715-0.953-3.257-2.487-4.025l-3.978-1.988c-1.848,1.222-4.228,1.221-6.073-0.003l-3.978,1.993
				c-1.533,0.768-2.484,2.309-2.484,4.023V62C22.5,62.277,22.276,62.5,22,62.5z"/>
		</g>
	</g>
	<g>
		<g>
			<path class="st0" d="M52,54.001c-3.584,0-6.5-2.916-6.5-6.5s2.916-6.5,6.5-6.5s6.5,2.916,6.5,6.5S55.584,54.001,52,54.001z
				 M52,42.001c-3.032,0-5.5,2.467-5.5,5.5s2.468,5.5,5.5,5.5s5.5-2.467,5.5-5.5S55.032,42.001,52,42.001z"/>
		</g>
	</g>
	<g>
		<g>
			<path class="st0" d="M42,62.5c-0.276,0-0.5-0.224-0.5-0.5v-0.413c0-2.095,1.164-3.979,3.037-4.918l4.235-2.122
				c0.1-0.05,0.214-0.064,0.321-0.043c0.064,0.013,0.131,0.039,0.185,0.075l0.228,0.152c1.518,1.012,3.478,1.011,4.995-0.003
				l0.222-0.148c0.166-0.11,0.379-0.111,0.543-0.009l4.194,2.097c1.875,0.938,3.04,2.823,3.04,4.919v0.41c0,0.276-0.224,0.5-0.5,0.5
				s-0.5-0.224-0.5-0.5v-0.41c0-1.715-0.953-3.257-2.487-4.025l-3.978-1.988c-1.848,1.222-4.228,1.221-6.073-0.003l-3.978,1.993
				c-1.532,0.768-2.484,2.309-2.484,4.023V62C42.5,62.277,42.276,62.5,42,62.5z"/>
		</g>
	</g>
	<g>
		<g>
			<path class="st0" d="M27.5,32.5h-21C6.223,32.5,6,32.277,6,32V6c0-0.276,0.224-0.5,0.5-0.5h21C27.776,5.5,28,5.724,28,6v26
				C28,32.277,27.776,32.5,27.5,32.5z M7,31.5h20v-25H7V31.5z"/>
		</g>
	</g>
	<g>
		<g>
			<rect x="7" y="11.5" transform="matrix(-1.836970e-16 1 -1 -1.836970e-16 36.0001 2.0006)" class="st1" width="20" height="15"/>
		</g>
		<g>
			<path class="st0" d="M24.5,29.5h-15C9.223,29.5,9,29.277,9,29V9c0-0.276,0.224-0.5,0.5-0.5h15C24.776,8.5,25,8.724,25,9v20
				C25,29.277,24.776,29.5,24.5,29.5z M10,28.5h14v-19H10V28.5z"/>
		</g>
	</g>
	<g>
		<g>
			<path class="st0" d="M57.5,32.5h-21c-0.276,0-0.5-0.224-0.5-0.5V6c0-0.276,0.224-0.5,0.5-0.5h21C57.776,5.5,58,5.724,58,6v26
				C58,32.277,57.776,32.5,57.5,32.5z M37,31.5h20v-25H37V31.5z"/>
		</g>
	</g>
	<g>
		<g>
			
				<rect x="37" y="11.5" transform="matrix(-1.836970e-16 1 -1 -1.836970e-16 66.0001 -27.9994)" class="st2" width="20" height="15"/>
		</g>
		<g>
			<path class="st0" d="M54.5,29.5h-15c-0.276,0-0.5-0.224-0.5-0.5V9c0-0.276,0.224-0.5,0.5-0.5h15C54.776,8.5,55,8.724,55,9v20
				C55,29.277,54.776,29.5,54.5,29.5z M40,28.5h14v-19H40V28.5z"/>
		</g>
	</g>
	<g>
		<g>
			<path class="st0" d="M19.5,29.5h-10c-0.173,0-0.334-0.09-0.425-0.237s-0.1-0.332-0.022-0.486l5-10
				c0.17-0.339,0.725-0.339,0.895,0l5,10c0.078,0.155,0.069,0.339-0.022,0.486S19.673,29.5,19.5,29.5z M10.309,28.5h8.382
				L14.5,20.119L10.309,28.5z"/>
		</g>
	</g>
	<g>
		<g>
			<path class="st0" d="M24.5,29.5h-10c-0.154,0-0.299-0.071-0.394-0.192c-0.095-0.121-0.128-0.279-0.091-0.429l5-20
				c0.111-0.445,0.858-0.445,0.97,0l5,20c0.038,0.149,0.004,0.308-0.091,0.429C24.799,29.43,24.653,29.5,24.5,29.5z M15.14,28.5
				h8.719L19.5,11.062L15.14,28.5z"/>
		</g>
	</g>
	<g>
		<g>
			<path class="st0" d="M48.5,21.5c-3.584,0-6.5-2.916-6.5-6.5s2.916-6.5,6.5-6.5S55,11.417,55,15S52.084,21.5,48.5,21.5z M48.5,9.5
				c-3.032,0-5.5,2.467-5.5,5.5s2.468,5.5,5.5,5.5S54,18.033,54,15S51.532,9.5,48.5,9.5z"/>
		</g>
	</g>
	<g>
		<g>
			<path class="st0" d="M44.5,26c-3.032,0-5.5-2.467-5.5-5.5s2.468-5.5,5.5-5.5s5.5,2.467,5.5,5.5S47.532,26,44.5,26z M44.5,16
				c-2.481,0-4.5,2.019-4.5,4.5s2.019,4.5,4.5,4.5s4.5-2.019,4.5-4.5S46.981,16,44.5,16z"/>
		</g>
	</g>
	<g>
		<g>
			<path class="st0" d="M11.25,2.5h-1c-0.276,0-0.5-0.224-0.5-0.5s0.224-0.5,0.5-0.5h1c0.276,0,0.5,0.224,0.5,0.5
				S11.526,2.5,11.25,2.5z"/>
		</g>
	</g>
	<g>
		<g>
			<path class="st0" d="M23.75,2.5h-10.5c-0.276,0-0.5-0.224-0.5-0.5s0.224-0.5,0.5-0.5h10.5c0.276,0,0.5,0.224,0.5,0.5
				S24.026,2.5,23.75,2.5z"/>
		</g>
	</g>
	<g>
		<g>
			<path class="st0" d="M53.75,36.5h-1c-0.276,0-0.5-0.224-0.5-0.5s0.224-0.5,0.5-0.5h1c0.276,0,0.5,0.224,0.5,0.5
				S54.026,36.5,53.75,36.5z"/>
		</g>
	</g>
	<g>
		<g>
			<path class="st0" d="M50.75,36.5h-10.5c-0.276,0-0.5-0.224-0.5-0.5s0.224-0.5,0.5-0.5h10.5c0.276,0,0.5,0.224,0.5,0.5
				S51.026,36.5,50.75,36.5z"/>
		</g>
	</g>
</g>
</svg>
