<?xml version="1.0" encoding="utf-8"?>
<!-- Generator: Adobe Illustrator 22.0.0, SVG Export Plug-In . SVG Version: 6.00 Build 0)  -->
<svg version="1.1" id="Layer_1" xmlns="http://www.w3.org/2000/svg" xmlns:xlink="http://www.w3.org/1999/xlink" x="0px" y="0px"
	 viewBox="0 0 64 64" style="enable-background:new 0 0 64 64;" xml:space="preserve">
<style type="text/css">
	.st0{fill:#263238;}
	.st1{fill:#FFD740;}
	.st2{fill:#40C4FF;}
	.st3{fill:#FF5252;}
	.st4{fill:#4FC3F7;}
	.st5{fill:#FFFFFF;}
	.st6{fill:#4DB6AC;}
	.st7{fill:#FFCA28;}
	.st8{fill:#37474F;}
</style>
<g>
	<g>
		<g>
			<path class="st0" d="M48.5,9.5c-0.215,0-0.406-0.138-0.475-0.342L47.61,7.915c-0.16-0.482-0.543-0.865-1.024-1.026l-1.244-0.415
				C45.138,6.406,45,6.215,45,6s0.138-0.406,0.342-0.474l1.244-0.415c0.481-0.161,0.864-0.544,1.024-1.026l0.415-1.244
				c0.137-0.408,0.812-0.408,0.949,0l0.415,1.244c0.16,0.481,0.543,0.865,1.024,1.026l1.244,0.415C51.862,5.594,52,5.785,52,6
				s-0.138,0.406-0.342,0.474l-1.244,0.415c-0.481,0.161-0.864,0.544-1.024,1.025l-0.415,1.244C48.906,9.362,48.715,9.5,48.5,9.5z
				 M47.063,6c0.649,0.266,1.171,0.788,1.437,1.438c0.266-0.65,0.787-1.172,1.437-1.438c-0.649-0.266-1.171-0.789-1.437-1.438
				C48.234,5.211,47.713,5.734,47.063,6z"/>
		</g>
	</g>
	<g>
		<g>
			<path class="st0" d="M2.5,55.5h-2C0.224,55.5,0,55.276,0,55s0.224-0.5,0.5-0.5h2C2.776,54.5,3,54.724,3,55S2.776,55.5,2.5,55.5z"
				/>
		</g>
	</g>
	<g>
		<g>
			<path class="st0" d="M15.5,55.5h-11C4.224,55.5,4,55.276,4,55s0.224-0.5,0.5-0.5h11c0.276,0,0.5,0.224,0.5,0.5
				S15.776,55.5,15.5,55.5z"/>
		</g>
	</g>
	<g>
		<g>
			<path class="st0" d="M63.5,55.5h-2c-0.276,0-0.5-0.224-0.5-0.5s0.224-0.5,0.5-0.5h2c0.276,0,0.5,0.224,0.5,0.5
				S63.776,55.5,63.5,55.5z"/>
		</g>
	</g>
	<g>
		<g>
			<path class="st0" d="M59.5,55.5h-11c-0.276,0-0.5-0.224-0.5-0.5s0.224-0.5,0.5-0.5h11c0.276,0,0.5,0.224,0.5,0.5
				S59.776,55.5,59.5,55.5z"/>
		</g>
	</g>
	<g>
		<g>
			<path class="st0" d="M43,61.5H21c-0.827,0-1.5-0.673-1.5-1.5V50c0-0.276,0.224-0.5,0.5-0.5s0.5,0.224,0.5,0.5v10
				c0,0.276,0.225,0.5,0.5,0.5h22c0.275,0,0.5-0.224,0.5-0.5V50c0-0.276,0.224-0.5,0.5-0.5s0.5,0.224,0.5,0.5v10
				C44.5,60.827,43.827,61.5,43,61.5z"/>
		</g>
	</g>
	<g>
		<g>
			<path class="st1" d="M24,23H10.5v20c0,2.761,2.239,5,5,5h33c2.761,0,5-2.239,5-5V23H40"/>
		</g>
		<g>
			<path class="st0" d="M48.5,48.5h-33c-3.032,0-5.5-2.467-5.5-5.5V23c0-0.276,0.224-0.5,0.5-0.5H24c0.276,0,0.5,0.224,0.5,0.5
				s-0.224,0.5-0.5,0.5H11V43c0,2.481,2.019,4.5,4.5,4.5h33c2.481,0,4.5-2.019,4.5-4.5V23.5H40c-0.276,0-0.5-0.224-0.5-0.5
				s0.224-0.5,0.5-0.5h13.5c0.276,0,0.5,0.224,0.5,0.5v20C54,46.033,51.532,48.5,48.5,48.5z"/>
		</g>
	</g>
	<g>
		<g>
			<circle class="st5" cx="32" cy="33" r="10"/>
		</g>
		<g>
			<path class="st0" d="M32,43.5c-5.79,0-10.5-4.71-10.5-10.5S26.21,22.5,32,22.5S42.5,27.21,42.5,33S37.79,43.5,32,43.5z M32,23.5
				c-5.238,0-9.5,4.262-9.5,9.5s4.262,9.5,9.5,9.5s9.5-4.262,9.5-9.5S37.238,23.5,32,23.5z"/>
		</g>
	</g>
	<g>
		<g>
			<circle class="st2" cx="32" cy="33" r="7"/>
		</g>
		<g>
			<path class="st0" d="M32,40.5c-4.136,0-7.5-3.364-7.5-7.5s3.364-7.5,7.5-7.5s7.5,3.364,7.5,7.5S36.136,40.5,32,40.5z M32,26.5
				c-3.584,0-6.5,2.916-6.5,6.5s2.916,6.5,6.5,6.5s6.5-2.916,6.5-6.5S35.584,26.5,32,26.5z"/>
		</g>
	</g>
	<g>
		<g>
			<path class="st0" d="M36,33.5c-0.276,0-0.5-0.224-0.5-0.5c0-1.93-1.57-3.5-3.5-3.5c-0.276,0-0.5-0.224-0.5-0.5s0.224-0.5,0.5-0.5
				c2.481,0,4.5,2.019,4.5,4.5C36.5,33.276,36.276,33.5,36,33.5z"/>
		</g>
	</g>
	<g>
		<g>
			<path class="st0" d="M50.5,43.5c-0.276,0-0.5-0.224-0.5-0.5V26c0-0.276,0.224-0.5,0.5-0.5S51,25.724,51,26v17
				C51,43.276,50.776,43.5,50.5,43.5z"/>
		</g>
	</g>
	<g>
		<g>
			<path class="st0" d="M35.5,18h-7c-1.654,0-3-1.346-3-3v-4c0-1.654,1.346-3,3-3h7c1.654,0,3,1.346,3,3v4
				C38.5,16.654,37.154,18,35.5,18z M28.5,9c-1.103,0-2,0.897-2,2v4c0,1.103,0.897,2,2,2h7c1.103,0,2-0.897,2-2v-4
				c0-1.103-0.897-2-2-2H28.5z"/>
		</g>
	</g>
	<g>
		<g>
			<path class="st0" d="M53.5,23.5c-0.276,0-0.5-0.224-0.5-0.5v-5c0-2.481-2.019-4.5-4.5-4.5H40c-0.276,0-0.5-0.224-0.5-0.5
				s0.224-0.5,0.5-0.5h8.5c3.032,0,5.5,2.467,5.5,5.5v5C54,23.276,53.776,23.5,53.5,23.5z"/>
		</g>
	</g>
	<g>
		<g>
			<path class="st0" d="M10.5,23.5c-0.276,0-0.5-0.224-0.5-0.5v-5c0-3.033,2.468-5.5,5.5-5.5H24c0.276,0,0.5,0.224,0.5,0.5
				s-0.224,0.5-0.5,0.5h-8.5c-2.481,0-4.5,2.019-4.5,4.5v5C11,23.276,10.776,23.5,10.5,23.5z"/>
		</g>
	</g>
	<g>
		<g>
			<path class="st0" d="M20.5,18.5h-5c-0.276,0-0.5-0.224-0.5-0.5s0.224-0.5,0.5-0.5h5c0.276,0,0.5,0.224,0.5,0.5
				S20.776,18.5,20.5,18.5z"/>
		</g>
	</g>
	<g>
		<g>
			<path class="st0" d="M35.5,16h-7c-0.276,0-0.5-0.224-0.5-0.5v-5c0-0.276,0.224-0.5,0.5-0.5h7c0.276,0,0.5,0.224,0.5,0.5v5
				C36,15.776,35.776,16,35.5,16z M29,15h6v-4h-6V15z"/>
		</g>
	</g>
	<g>
		<g>
			<path class="st0" d="M48.5,20c-1.103,0-2-0.897-2-2s0.897-2,2-2s2,0.897,2,2S49.603,20,48.5,20z M48.5,17c-0.552,0-1,0.449-1,1
				s0.448,1,1,1s1-0.449,1-1S49.052,17,48.5,17z"/>
		</g>
	</g>
	<g>
		<g>
			<path class="st0" d="M21.375,11.5c-0.276,0-0.5-0.224-0.5-0.5v-0.5c0-0.276-0.225-0.5-0.5-0.5H16.5c-0.275,0-0.5,0.224-0.5,0.5
				V11c0,0.276-0.224,0.5-0.5,0.5S15,11.276,15,11v-0.5C15,9.673,15.673,9,16.5,9h3.875c0.827,0,1.5,0.673,1.5,1.5V11
				C21.875,11.276,21.651,11.5,21.375,11.5z"/>
		</g>
	</g>
	<g>
		<g>
			<path class="st0" d="M41,58.5H23c-0.276,0-0.5-0.224-0.5-0.5v-8c0-0.276,0.224-0.5,0.5-0.5s0.5,0.224,0.5,0.5v7.5h17V50
				c0-0.276,0.224-0.5,0.5-0.5s0.5,0.224,0.5,0.5v8C41.5,58.276,41.276,58.5,41,58.5z"/>
		</g>
	</g>
</g>
</svg>
