<?xml version="1.0" encoding="utf-8"?>
<!-- Generator: Adobe Illustrator 22.0.0, SVG Export Plug-In . SVG Version: 6.00 Build 0)  -->
<svg version="1.1" id="Layer_1" xmlns="http://www.w3.org/2000/svg" xmlns:xlink="http://www.w3.org/1999/xlink" x="0px" y="0px"
	 viewBox="0 0 64 64" style="enable-background:new 0 0 64 64;" xml:space="preserve">
<style type="text/css">
	.st0{fill:#263238;}
	.st1{fill:#FFD740;}
	.st2{fill:#40C4FF;}
	.st3{fill:#FF5252;}
	.st4{fill:#4FC3F7;}
	.st5{fill:#FFFFFF;}
	.st6{fill:#4DB6AC;}
	.st7{fill:#FFCA28;}
	.st8{fill:#37474F;}
</style>
<g>
	<g>
		<path class="st0" d="M44.114,23.506c-0.973,0-1.944-0.191-2.87-0.575c-1.851-0.767-3.293-2.208-4.06-4.059s-0.767-3.89,0-5.74
			s2.208-3.293,4.059-4.06c1.852-0.766,3.89-0.768,5.741,0c3.82,1.583,5.641,5.979,4.059,9.8l0,0
			c-0.767,1.851-2.208,3.292-4.059,4.059C46.059,23.314,45.086,23.506,44.114,23.506z M44.114,9.498
			c-0.843,0-1.686,0.166-2.488,0.498c-1.604,0.665-2.854,1.914-3.518,3.519c-0.664,1.604-0.664,3.37,0,4.975
			c0.665,1.604,1.914,2.854,3.519,3.518c1.604,0.664,3.371,0.664,4.975,0s2.854-1.914,3.518-3.518
			c1.371-3.312-0.206-7.121-3.518-8.493C45.8,9.664,44.957,9.498,44.114,9.498z M50.581,18.681h0.01H50.581z"/>
	</g>
	<g>
		<path class="st1" d="M50.147,14.12l0.648-0.201c-0.598-1.913-2.006-3.557-4.002-4.384c-3.572-1.479-7.666,0.217-9.146,3.788
			l0.611,0.253C42.035,15.141,46.242,15.333,50.147,14.12z"/>
		<path class="st0" d="M44.958,15.406c-2.35,0-4.695-0.458-6.893-1.368l-0.61-0.253c-0.255-0.105-0.376-0.398-0.271-0.653
			c0.767-1.851,2.208-3.293,4.059-4.06c1.852-0.766,3.89-0.768,5.741,0c2.059,0.854,3.621,2.564,4.288,4.696
			c0.039,0.127,0.027,0.264-0.034,0.382c-0.062,0.117-0.168,0.205-0.294,0.245l-0.647,0.202c-0.001,0-0.001,0-0.001,0
			C48.558,15.138,46.757,15.406,44.958,15.406z M38.317,13.06l0.131,0.055c3.66,1.517,7.764,1.703,11.55,0.528l0.152-0.047
			c-0.648-1.628-1.919-2.925-3.549-3.6C43.444,8.687,39.836,10.062,38.317,13.06z M50.147,14.12h0.01H50.147z"/>
	</g>
	<g>
		<path class="st0" d="M49.114,40.001c-0.722,0-1.419-0.26-1.965-0.732l-7.5-6.5c-1.25-1.084-1.386-2.982-0.303-4.232
			c1.084-1.248,2.979-1.386,4.232-0.303l5.466,4.737l5.028-4.668c1.211-1.126,3.114-1.056,4.239,0.157
			c1.126,1.212,1.056,3.114-0.157,4.239l-7,6.5C50.599,39.716,49.874,40.001,49.114,40.001z M41.615,28.503
			c-0.561,0-1.118,0.233-1.513,0.688c-0.722,0.833-0.632,2.099,0.201,2.821l7.5,6.5c0.747,0.646,1.947,0.625,2.672-0.046l7-6.5
			c0.391-0.363,0.617-0.857,0.638-1.392c0.02-0.534-0.17-1.044-0.533-1.436c-0.751-0.808-2.02-0.854-2.827-0.104l-5.356,4.974
			c-0.187,0.175-0.475,0.179-0.667,0.012l-5.805-5.031C42.547,28.663,42.08,28.503,41.615,28.503z"/>
	</g>
	<g>
		<path class="st2" d="M39.977,32.39c-1.043-0.904-1.156-2.483-0.252-3.527c0.905-1.043,2.481-1.155,3.527-0.252l3.862,3.347v-3.458
			c0-3.038-2.462-5.5-5.5-5.5s-5.5,2.462-5.5,5.5V46.5h11v-7.924L39.977,32.39z"/>
		<path class="st0" d="M47.113,47H36.114c-0.276,0-0.5-0.224-0.5-0.5V28.501c0-3.309,2.691-6,6-6c3.308,0,5.999,2.691,5.999,6v3.457
			c0,0.195-0.114,0.373-0.292,0.455c-0.178,0.08-0.388,0.051-0.535-0.077l-3.861-3.347c-0.834-0.72-2.101-0.63-2.822,0.202
			c-0.722,0.833-0.632,2.099,0.201,2.821l7.137,6.186c0.11,0.095,0.173,0.233,0.173,0.378V46.5C47.613,46.776,47.39,47,47.113,47z
			 M36.614,46h9.999v-7.195l-6.964-6.036l0,0c-1.25-1.084-1.386-2.982-0.303-4.232c1.084-1.248,2.979-1.386,4.232-0.303l3.034,2.63
			v-2.362c0-2.757-2.242-5-4.999-5s-5,2.243-5,5V46z"/>
	</g>
	<g>
		<line class="st5" x1="56" y1="28.001" x2="59.5" y2="23.001"/>
		<path class="st0" d="M56,28.501c-0.1,0-0.199-0.029-0.287-0.091c-0.226-0.158-0.281-0.47-0.122-0.696l3.5-5
			c0.157-0.227,0.471-0.281,0.696-0.122c0.226,0.158,0.281,0.47,0.122,0.696l-3.5,5C56.312,28.427,56.157,28.501,56,28.501z"/>
	</g>
	<g>
		<path class="st0" d="M43.115,61c-0.013,0-0.024,0-0.036-0.001c-0.276-0.02-0.483-0.259-0.464-0.534L43.577,47h-6.963v13.5
			c0,0.276-0.224,0.5-0.5,0.5s-0.5-0.224-0.5-0.5v-14c0-0.276,0.224-0.5,0.5-0.5h8c0.139,0,0.271,0.058,0.366,0.159
			s0.143,0.238,0.133,0.376l-1,14C43.594,60.799,43.375,61,43.115,61z"/>
	</g>
	<g>
		<path class="st0" d="M55.701,61c-0.168,0-0.332-0.085-0.426-0.238l-8.588-14c-0.145-0.235-0.071-0.544,0.164-0.688
			c0.236-0.145,0.545-0.07,0.688,0.164l8.588,14c0.145,0.235,0.071,0.544-0.164,0.688C55.881,60.977,55.791,61,55.701,61z"/>
	</g>
	<g>
		<path class="st0" d="M48.519,61c-0.138,0-0.275-0.057-0.374-0.168l-3.15-3.556c-0.184-0.207-0.164-0.523,0.042-0.706
			c0.207-0.185,0.522-0.165,0.706,0.042l3.15,3.556c0.184,0.207,0.164,0.523-0.042,0.706C48.755,60.959,48.637,61,48.519,61z"/>
	</g>
	<g>
		<path class="st0" d="M19.376,23.502c-0.955,0-1.925-0.184-2.86-0.571c-1.851-0.767-3.292-2.208-4.059-4.059
			c-0.767-1.852-0.767-3.89,0-5.74s2.208-3.293,4.059-4.06c1.853-0.766,3.89-0.767,5.74,0c3.821,1.582,5.643,5.979,4.06,9.8l0,0
			C25.12,21.757,22.32,23.502,19.376,23.502z M19.386,9.498c-0.843,0-1.685,0.166-2.487,0.498c-1.604,0.665-2.854,1.914-3.518,3.519
			c-0.664,1.604-0.664,3.37,0,4.975c0.664,1.604,1.914,2.854,3.518,3.518c3.31,1.373,7.121-0.204,8.493-3.518l0,0
			c0.664-1.604,0.664-3.371,0-4.976c-0.665-1.604-1.914-2.854-3.519-3.518C21.071,9.664,20.229,9.498,19.386,9.498z M25.854,18.681
			h0.01H25.854z"/>
	</g>
	<g>
		<path class="st1" d="M25.419,14.12l0.648-0.201c-0.598-1.913-2.006-3.557-4.002-4.384c-3.572-1.479-7.666,0.217-9.146,3.788
			l0.611,0.253C17.307,15.141,21.514,15.333,25.419,14.12z"/>
		<path class="st0" d="M20.23,15.405c-2.351,0-4.695-0.458-6.893-1.367l-0.61-0.253c-0.255-0.105-0.376-0.398-0.271-0.653
			c0.767-1.851,2.208-3.293,4.059-4.06c1.853-0.766,3.89-0.767,5.74,0c2.06,0.854,3.623,2.565,4.289,4.696
			c0.039,0.127,0.027,0.264-0.035,0.382c-0.062,0.117-0.167,0.205-0.294,0.245l-0.648,0.202l0,0
			C23.829,15.138,22.028,15.405,20.23,15.405z M13.59,13.06l0.131,0.055c3.663,1.517,7.765,1.704,11.55,0.528l0.152-0.048
			c-0.648-1.627-1.92-2.923-3.55-3.599c-1.604-0.664-3.369-0.664-4.975,0C15.449,10.597,14.29,11.675,13.59,13.06z M25.419,14.12
			h0.01H25.419z"/>
	</g>
	<g>
		<path class="st0" d="M14.386,40.001c-0.76,0-1.484-0.285-2.041-0.802l-7-6.5c-1.213-1.125-1.283-3.027-0.157-4.239
			c1.125-1.213,3.025-1.283,4.239-0.157l5.028,4.668l5.466-4.737c1.249-1.081,3.147-0.945,4.232,0.302
			c1.083,1.251,0.947,3.149-0.303,4.233l-7.5,6.5C15.805,39.741,15.107,40.001,14.386,40.001z M7.386,28.502
			c-0.537,0-1.072,0.215-1.466,0.638c-0.363,0.392-0.553,0.901-0.533,1.436c0.021,0.534,0.247,1.028,0.638,1.392l7,6.5
			c0.725,0.672,1.924,0.692,2.672,0.046l7.5-6.5c0.833-0.723,0.923-1.988,0.201-2.822c-0.721-0.831-1.989-0.921-2.822-0.201
			l-5.805,5.031c-0.192,0.167-0.48,0.162-0.667-0.012l-5.356-4.974C8.362,28.679,7.873,28.502,7.386,28.502z"/>
	</g>
	<g>
		<path class="st6" d="M21.886,23.001c-3.037,0-5.5,2.462-5.5,5.5v3.458l3.862-3.347c1.046-0.903,2.622-0.791,3.527,0.252
			c0.904,1.044,0.791,2.623-0.252,3.527l-7.137,6.186V46.5h11V28.501C27.386,25.463,24.923,23.001,21.886,23.001z"/>
		<path class="st0" d="M27.386,47h-11c-0.276,0-0.5-0.224-0.5-0.5v-7.924c0-0.145,0.062-0.283,0.173-0.378l7.138-6.186
			c0.833-0.723,0.923-1.988,0.201-2.822c-0.721-0.831-1.989-0.921-2.822-0.201l-3.862,3.347c-0.147,0.128-0.357,0.157-0.535,0.077
			c-0.178-0.082-0.292-0.26-0.292-0.455v-3.457c0-3.309,2.691-6,6-6s6,2.691,6,6V46.5C27.886,46.776,27.662,47,27.386,47z
			 M16.886,46h10V28.501c0-2.757-2.243-5-5-5s-5,2.243-5,5v2.362l3.035-2.63c1.249-1.081,3.147-0.945,4.232,0.302
			c1.083,1.251,0.947,3.149-0.303,4.233l-6.965,6.036V46z"/>
	</g>
	<g>
		<line class="st5" x1="7.5" y1="28.001" x2="4" y2="23.001"/>
		<path class="st0" d="M7.5,28.501c-0.157,0-0.312-0.074-0.409-0.213l-3.5-5c-0.159-0.227-0.104-0.538,0.122-0.696
			c0.227-0.159,0.538-0.104,0.696,0.122l3.5,5c0.159,0.227,0.104,0.538-0.122,0.696C7.699,28.472,7.6,28.501,7.5,28.501z"/>
	</g>
	<g>
		<path class="st0" d="M20.385,61c-0.26,0-0.479-0.201-0.498-0.465l-1-14c-0.01-0.138,0.038-0.274,0.133-0.376S19.247,46,19.386,46
			h8c0.276,0,0.5,0.224,0.5,0.5v14c0,0.276-0.224,0.5-0.5,0.5s-0.5-0.224-0.5-0.5V47h-6.963l0.962,13.465
			c0.02,0.275-0.188,0.515-0.464,0.534C20.409,61,20.397,61,20.385,61z"/>
	</g>
	<g>
		<path class="st0" d="M7.799,61c-0.09,0-0.18-0.023-0.262-0.074c-0.235-0.144-0.309-0.452-0.164-0.688l8.587-14
			c0.144-0.235,0.451-0.311,0.688-0.164c0.235,0.144,0.309,0.452,0.164,0.688l-8.587,14C8.131,60.915,7.967,61,7.799,61z"/>
	</g>
	<g>
		<path class="st0" d="M14.981,61c-0.118,0-0.236-0.041-0.332-0.126c-0.206-0.183-0.226-0.499-0.042-0.706l3.15-3.556
			c0.183-0.207,0.498-0.227,0.706-0.042c0.206,0.183,0.226,0.499,0.042,0.706l-3.15,3.556C15.257,60.943,15.119,61,14.981,61z"/>
	</g>
	<g>
		<path class="st1" d="M30.388,25.002L30.388,25.002c-2.209,0-4-1.791-4-4v-8h0c2.209,0,4,1.791,4,4V25.002z"/>
		<path class="st0" d="M30.388,25.502c-2.481,0-4.5-2.019-4.5-4.5v-8c0-0.276,0.224-0.5,0.5-0.5c2.481,0,4.5,2.019,4.5,4.5v8
			C30.888,25.278,30.664,25.502,30.388,25.502z M26.888,13.537v7.465c0,1.76,1.306,3.221,3,3.465v-7.465
			C29.888,15.242,28.582,13.781,26.888,13.537z"/>
	</g>
	<g>
		<path class="st0" d="M60,11h-4c-0.276,0-0.5-0.224-0.5-0.5S55.724,10,56,10h4c0.276,0,0.5,0.224,0.5,0.5S60.276,11,60,11z"/>
	</g>
	<g>
		<path class="st0" d="M58,13c-0.276,0-0.5-0.224-0.5-0.5v-4C57.5,8.224,57.724,8,58,8s0.5,0.224,0.5,0.5v4
			C58.5,12.776,58.276,13,58,13z"/>
	</g>
	<g>
		<path class="st0" d="M54,6h-4c-0.276,0-0.5-0.224-0.5-0.5S49.724,5,50,5h4c0.276,0,0.5,0.224,0.5,0.5S54.276,6,54,6z"/>
	</g>
	<g>
		<path class="st0" d="M52,8c-0.276,0-0.5-0.224-0.5-0.5v-4C51.5,3.224,51.724,3,52,3s0.5,0.224,0.5,0.5v4C52.5,7.776,52.276,8,52,8
			z"/>
	</g>
</g>
</svg>
