<?xml version="1.0" encoding="utf-8"?>
<!-- Generator: Adobe Illustrator 22.0.0, SVG Export Plug-In . SVG Version: 6.00 Build 0)  -->
<svg version="1.1" id="Layer_1" xmlns="http://www.w3.org/2000/svg" xmlns:xlink="http://www.w3.org/1999/xlink" x="0px" y="0px"
	 viewBox="0 0 64 64" style="enable-background:new 0 0 64 64;" xml:space="preserve">
<style type="text/css">
	.st0{fill:#263238;}
	.st1{fill:#FFD740;}
	.st2{fill:#40C4FF;}
	.st3{fill:#FF5252;}
	.st4{fill:#4FC3F7;}
	.st5{fill:#FFFFFF;}
	.st6{fill:#4DB6AC;}
	.st7{fill:#FFCA28;}
	.st8{fill:#37474F;}
</style>
<g>
	<g>
		<g>
			<path class="st0" d="M55.74,26.219c-0.043,0-0.086-0.006-0.13-0.017c-0.267-0.072-0.425-0.346-0.354-0.613l1.036-3.864
				c0.071-0.266-0.088-0.54-0.354-0.612l-3.863-1.034c-0.267-0.072-0.425-0.346-0.354-0.613c0.072-0.266,0.347-0.419,0.612-0.354
				l3.863,1.035c0.799,0.215,1.274,1.039,1.061,1.837l-1.036,3.865C56.163,26.071,55.961,26.219,55.74,26.219z"/>
		</g>
	</g>
	<g>
		<g>
			<path class="st0" d="M50.242,10h-4c-0.276,0-0.5-0.224-0.5-0.5s0.224-0.5,0.5-0.5h4c0.276,0,0.5,0.224,0.5,0.5
				S50.519,10,50.242,10z"/>
		</g>
	</g>
	<g>
		<g>
			<path class="st0" d="M48.242,12c-0.276,0-0.5-0.224-0.5-0.5v-4c0-0.276,0.224-0.5,0.5-0.5s0.5,0.224,0.5,0.5v4
				C48.742,11.776,48.519,12,48.242,12z"/>
		</g>
	</g>
	<g>
		<g>
			<path class="st0" d="M56.242,7h-4c-0.276,0-0.5-0.224-0.5-0.5s0.224-0.5,0.5-0.5h4c0.276,0,0.5,0.224,0.5,0.5S56.519,7,56.242,7z
				"/>
		</g>
	</g>
	<g>
		<g>
			<path class="st0" d="M54.242,9c-0.276,0-0.5-0.224-0.5-0.5v-4c0-0.276,0.224-0.5,0.5-0.5s0.5,0.224,0.5,0.5v4
				C54.742,8.776,54.519,9,54.242,9z"/>
		</g>
	</g>
	<g>
		<g>
			<path class="st0" d="M25.242,60h-1c-0.276,0-0.5-0.224-0.5-0.5s0.224-0.5,0.5-0.5h1c0.276,0,0.5,0.224,0.5,0.5
				S25.519,60,25.242,60z"/>
		</g>
	</g>
	<g>
		<g>
			<path class="st0" d="M22.242,60h-10c-0.276,0-0.5-0.224-0.5-0.5s0.224-0.5,0.5-0.5h10c0.276,0,0.5,0.224,0.5,0.5
				S22.519,60,22.242,60z"/>
		</g>
	</g>
	<g>
		<g>
			<path class="st0" d="M4.742,57h-1c-0.276,0-0.5-0.224-0.5-0.5s0.224-0.5,0.5-0.5h1c0.276,0,0.5,0.224,0.5,0.5S5.019,57,4.742,57z
				"/>
		</g>
	</g>
	<g>
		<g>
			<path class="st0" d="M16.742,57h-10c-0.276,0-0.5-0.224-0.5-0.5s0.224-0.5,0.5-0.5h10c0.276,0,0.5,0.224,0.5,0.5
				S17.019,57,16.742,57z"/>
		</g>
	</g>
	<g>
		<g>
			<polygon class="st1" points="19.742,19.5 15.742,26 19.742,32.5 23.742,26 			"/>
		</g>
		<g>
			<path class="st0" d="M19.742,33c-0.174,0-0.335-0.09-0.426-0.238l-4-6.5c-0.099-0.16-0.099-0.363,0-0.523l4-6.5
				c0.182-0.297,0.67-0.297,0.852,0l4,6.5c0.099,0.16,0.099,0.363,0,0.523l-4,6.5C20.077,32.91,19.916,33,19.742,33z M16.329,26
				l3.413,5.546L23.155,26l-3.413-5.546L16.329,26z"/>
		</g>
	</g>
	<g>
		<g>
			<path class="st3" d="M41.114,32.008l-0.719-1.246c-0.795-1.376-2.555-1.848-3.931-1.053l0,0
				c-1.376,0.795-1.848,2.555-1.053,3.931l3.597,6.231l6.231-3.597c1.376-0.795,1.848-2.555,1.053-3.931l0,0
				c-0.795-1.376-2.555-1.848-3.931-1.053L41.114,32.008z"/>
		</g>
		<g>
			<path class="st0" d="M39.008,40.37c-0.173,0-0.341-0.09-0.434-0.25l-3.598-6.23c-0.931-1.613-0.376-3.684,1.237-4.614
				c0.782-0.451,1.691-0.572,2.563-0.338c0.872,0.233,1.6,0.793,2.051,1.574l0.469,0.812l0.813-0.469
				c0.782-0.452,1.692-0.571,2.563-0.338c0.872,0.233,1.6,0.793,2.051,1.574s0.571,1.691,0.337,2.562s-0.792,1.6-1.574,2.051
				l-6.23,3.598C39.179,40.349,39.093,40.37,39.008,40.37z M37.898,29.821c-0.412,0-0.819,0.108-1.185,0.319
				c-1.135,0.656-1.526,2.113-0.871,3.249l3.348,5.798l5.797-3.348c0.55-0.318,0.943-0.831,1.108-1.444s0.08-1.254-0.238-1.804
				c-0.317-0.551-0.83-0.944-1.444-1.108c-0.613-0.164-1.254-0.079-1.804,0.237l-1.246,0.72c-0.115,0.066-0.252,0.083-0.379,0.051
				c-0.128-0.035-0.237-0.118-0.304-0.233l-0.719-1.246c-0.317-0.551-0.831-0.944-1.444-1.108
				C38.313,29.849,38.105,29.821,37.898,29.821z"/>
		</g>
	</g>
	<g>
		<g>
			<path class="st0" d="M10.98,12.5c-0.179,0-0.353-0.097-0.442-0.266L8.861,9.068l-1.677,3.166
				c-0.13,0.243-0.434,0.338-0.676,0.207C6.264,12.312,6.171,12.01,6.3,11.766l2.119-4c0.174-0.326,0.71-0.326,0.884,0l2.119,4
				c0.129,0.244,0.036,0.547-0.208,0.676C11.14,12.481,11.06,12.5,10.98,12.5z"/>
		</g>
	</g>
	<g>
		<g>
			<path class="st0" d="M10.42,11.5H7.302c-0.276,0-0.5-0.224-0.5-0.5s0.224-0.5,0.5-0.5h3.119c0.276,0,0.5,0.224,0.5,0.5
				S10.697,11.5,10.42,11.5z"/>
		</g>
	</g>
	<g>
		<g>
			<path class="st0" d="M48.428,59.388c-0.217,0-0.436-0.028-0.652-0.086l-26.08-6.987c-1.332-0.357-2.125-1.731-1.768-3.062
				l9.835-36.706c0.173-0.645,0.586-1.184,1.165-1.518c0.579-0.334,1.252-0.422,1.897-0.25l26.08,6.988
				c0.645,0.174,1.184,0.587,1.518,1.165c0.334,0.579,0.422,1.252,0.25,1.897l-9.835,36.705c-0.172,0.645-0.586,1.184-1.165,1.518
				C49.289,59.274,48.861,59.388,48.428,59.388z M32.176,11.693c-0.26,0-0.517,0.067-0.748,0.201c-0.347,0.2-0.595,0.523-0.699,0.91
				l-9.835,36.706c-0.214,0.799,0.262,1.623,1.061,1.837l26.08,6.987l0,0c0.388,0.104,0.792,0.052,1.139-0.149
				c0.347-0.2,0.595-0.523,0.699-0.91l9.835-36.706c0.104-0.387,0.051-0.79-0.15-1.138c-0.2-0.347-0.524-0.595-0.911-0.698
				l-26.08-6.988C32.438,11.71,32.307,11.693,32.176,11.693z"/>
		</g>
	</g>
	<g>
		<g>
			<path class="st0" d="M18.979,47.5H6.242c-1.378,0-2.5-1.121-2.5-2.5V7c0-1.379,1.122-2.5,2.5-2.5h27c1.378,0,2.5,1.121,2.5,2.5
				v2.873c0,0.276-0.224,0.5-0.5,0.5s-0.5-0.224-0.5-0.5V7c0-0.827-0.673-1.5-1.5-1.5h-27c-0.827,0-1.5,0.673-1.5,1.5v38
				c0,0.827,0.673,1.5,1.5,1.5h12.737c0.276,0,0.5,0.224,0.5,0.5S19.255,47.5,18.979,47.5z"/>
		</g>
	</g>
	<g>
		<g>
			<path class="st0" d="M35.943,19.879c-0.228,0-0.434-0.156-0.487-0.389l-0.8-3.491l-2.439,2.624
				c-0.188,0.202-0.504,0.215-0.707,0.025c-0.202-0.188-0.214-0.504-0.026-0.707l3.082-3.315c0.125-0.135,0.313-0.188,0.496-0.143
				c0.179,0.049,0.316,0.191,0.358,0.372l1.011,4.412c0.062,0.269-0.106,0.537-0.375,0.599
				C36.018,19.875,35.98,19.879,35.943,19.879z"/>
		</g>
	</g>
	<g>
		<g>
			<path class="st0" d="M35.663,18.769c-0.043,0-0.086-0.006-0.13-0.017l-3.012-0.808c-0.267-0.072-0.425-0.346-0.354-0.613
				c0.072-0.266,0.348-0.418,0.612-0.354l3.012,0.808c0.267,0.072,0.425,0.346,0.354,0.613
				C36.085,18.621,35.883,18.769,35.663,18.769z"/>
		</g>
	</g>
	<g>
		<g>
			<path class="st0" d="M45.67,55.614c-0.043,0-0.086-0.006-0.129-0.017c-0.179-0.049-0.316-0.191-0.358-0.372l-1.011-4.412
				c-0.062-0.269,0.106-0.537,0.375-0.599c0.267-0.062,0.537,0.105,0.599,0.376l0.8,3.491l2.439-2.624
				c0.188-0.201,0.505-0.213,0.707-0.025c0.202,0.188,0.214,0.504,0.026,0.707l-3.082,3.315
				C45.94,55.558,45.807,55.614,45.67,55.614z"/>
		</g>
	</g>
	<g>
		<g>
			<path class="st0" d="M47.953,53.12c-0.043,0-0.086-0.006-0.13-0.017l-3.013-0.808c-0.267-0.072-0.425-0.346-0.354-0.613
				c0.072-0.266,0.348-0.418,0.612-0.354l3.013,0.808c0.267,0.072,0.425,0.346,0.354,0.613C48.375,52.973,48.174,53.12,47.953,53.12
				z"/>
		</g>
	</g>
</g>
</svg>
