<?xml version="1.0" encoding="utf-8"?>
<!-- Generator: Adobe Illustrator 22.0.0, SVG Export Plug-In . SVG Version: 6.00 Build 0)  -->
<svg version="1.1" id="Layer_1" xmlns="http://www.w3.org/2000/svg" xmlns:xlink="http://www.w3.org/1999/xlink" x="0px" y="0px"
	 viewBox="0 0 64 64" style="enable-background:new 0 0 64 64;" xml:space="preserve">
<style type="text/css">
	.st0{fill:#263238;}
	.st1{fill:#FFD740;}
	.st2{fill:#40C4FF;}
	.st3{fill:#FF5252;}
	.st4{fill:#4FC3F7;}
	.st5{fill:#FFFFFF;}
	.st6{fill:#4DB6AC;}
	.st7{fill:#FFCA28;}
	.st8{fill:#37474F;}
</style>
<g>
	<g>
		<g>
			<path class="st1" d="M50.034,26.527l-0.127-0.132c-1.139-1.186-1.622-2.857-1.291-4.468l2.856-13.925
				C51.791,6.452,50.606,5,49.024,5h-11.87c-1.583,0-2.767,1.452-2.449,3.002l2.856,13.925c0.33,1.611-0.152,3.281-1.291,4.468
				l-0.127,0.132c-0.148,0.154-0.282,0.317-0.425,0.473h8.64c2.364,0,4.393,1.776,4.62,4.044c0.046,0.465,0.02,0.93-0.074,1.379
				c0.539,0.252,1.028,0.609,1.434,1.059c0.852,0.94,1.267,2.208,1.14,3.476c-0.158,1.572-1.182,2.908-2.583,3.579
				c0.102,0.462,0.057,0.941,0.009,1.421c-0.124,1.232-0.705,2.319-1.658,3.055c0.216,0.617,0.298,1.281,0.232,1.945
				C47.25,49.225,45.221,51,42.857,51H30.225l1.834,6.208C32.373,58.271,33.349,59,34.457,59H51.72c1.108,0,2.084-0.729,2.398-1.792
				l1.857-6.285C58.518,42.315,56.251,33.003,50.034,26.527z"/>
		</g>
	</g>
	<g>
		<g>
			<path class="st0" d="M51.721,59.5H34.457c-1.32,0-2.503-0.884-2.877-2.15l-1.834-6.208c-0.078-0.265,0.073-0.543,0.338-0.621
				c0.267-0.078,0.543,0.073,0.621,0.338l1.834,6.208c0.25,0.844,1.039,1.433,1.918,1.433h17.264c0.88,0,1.668-0.589,1.918-1.434
				l1.856-6.285c2.487-8.417,0.256-17.578-5.821-23.909l-0.127-0.131c-1.253-1.305-1.783-3.142-1.421-4.915l2.856-13.925
				c0.122-0.591-0.027-1.198-0.408-1.666C50.192,5.769,49.627,5.5,49.023,5.5h-11.87c-0.604,0-1.168,0.268-1.55,0.735
				c-0.381,0.468-0.53,1.075-0.409,1.667l2.856,13.924c0.363,1.771-0.167,3.609-1.421,4.914l-0.127,0.132
				c-0.081,0.084-0.157,0.172-0.234,0.26l-0.182,0.205c-0.188,0.204-0.504,0.217-0.707,0.031c-0.203-0.187-0.218-0.503-0.031-0.707
				l0.167-0.188c0.087-0.1,0.174-0.199,0.266-0.294l0.128-0.132c1.025-1.068,1.459-2.571,1.161-4.02L34.214,8.104
				c-0.182-0.887,0.043-1.798,0.615-2.5C35.401,4.902,36.248,4.5,37.153,4.5h11.87c0.905,0,1.753,0.402,2.325,1.104
				s0.796,1.612,0.614,2.499l-2.856,13.925c-0.298,1.45,0.137,2.953,1.161,4.021l0.127,0.131c6.326,6.59,8.648,16.125,6.06,24.885
				l-1.856,6.285C54.223,58.617,53.04,59.5,51.721,59.5z"/>
		</g>
	</g>
	<g>
		<g>
			<path class="st0" d="M16.426,19.5h-4c-0.276,0-0.5-0.224-0.5-0.5s0.224-0.5,0.5-0.5h4c0.276,0,0.5,0.224,0.5,0.5
				S16.703,19.5,16.426,19.5z"/>
		</g>
	</g>
	<g>
		<g>
			<path class="st0" d="M14.426,21.5c-0.276,0-0.5-0.224-0.5-0.5v-4c0-0.276,0.224-0.5,0.5-0.5s0.5,0.224,0.5,0.5v4
				C14.926,21.277,14.703,21.5,14.426,21.5z"/>
		</g>
	</g>
	<g>
		<g>
			<path class="st0" d="M23.426,12.5h-4c-0.276,0-0.5-0.224-0.5-0.5s0.224-0.5,0.5-0.5h4c0.276,0,0.5,0.224,0.5,0.5
				S23.703,12.5,23.426,12.5z"/>
		</g>
	</g>
	<g>
		<g>
			<path class="st0" d="M21.426,14.5c-0.276,0-0.5-0.224-0.5-0.5v-4c0-0.276,0.224-0.5,0.5-0.5s0.5,0.224,0.5,0.5v4
				C21.926,14.277,21.703,14.5,21.426,14.5z"/>
		</g>
	</g>
	<g>
		<g>
			<path class="st0" d="M51.062,10.5H35.114c-0.276,0-0.5-0.224-0.5-0.5s0.224-0.5,0.5-0.5h15.948c0.276,0,0.5,0.224,0.5,0.5
				S51.339,10.5,51.062,10.5z"/>
		</g>
	</g>
	<g>
		<g>
			<path class="st0" d="M42.857,49.5H23.123c-1.13,0-2.248-0.181-3.32-0.539l-4.421-1.474C14.411,47.165,13.4,47,12.377,47H7
				c-0.276,0-0.5-0.224-0.5-0.5S6.724,46,7,46h5.377c1.13,0,2.248,0.181,3.32,0.539l4.421,1.474c0.97,0.323,1.981,0.487,3.004,0.487
				h19.734c1.095,0,2.031-0.787,2.133-1.792c0.057-0.575-0.123-1.125-0.507-1.549C44.104,44.741,43.563,44.5,43,44.5
				c-0.276,0-0.5-0.224-0.5-0.5s0.224-0.5,0.5-0.5h1.357c1.095,0,2.031-0.787,2.133-1.792c0.057-0.575-0.123-1.125-0.507-1.549
				c-0.379-0.418-0.92-0.659-1.483-0.659c-0.276,0-0.5-0.224-0.5-0.5s0.224-0.5,0.5-0.5h2.357c1.095,0,2.031-0.787,2.133-1.792
				c0.057-0.575-0.123-1.125-0.507-1.549C48.104,34.741,47.563,34.5,47,34.5h-2.5c-0.276,0-0.5-0.224-0.5-0.5s0.224-0.5,0.5-0.5
				c0.564,0,1.104-0.24,1.483-0.658c0.384-0.424,0.563-0.975,0.507-1.55c-0.101-1.005-1.037-1.792-2.133-1.792H25.873
				c-0.202,0-0.385-0.122-0.462-0.309c-0.078-0.187-0.035-0.402,0.108-0.545l3.631-3.631c0.774-0.774,0.88-1.993,0.24-2.775
				c-0.366-0.447-0.882-0.709-1.454-0.738c-0.559-0.022-1.115,0.185-1.514,0.583L18.12,30.39c-0.566,0.566-1.32,0.878-2.122,0.878H7
				c-0.276,0-0.5-0.224-0.5-0.5s0.224-0.5,0.5-0.5h8.999c0.527,0,1.042-0.213,1.415-0.585l8.303-8.303
				c0.598-0.598,1.427-0.912,2.271-0.875c0.845,0.042,1.639,0.444,2.178,1.104c0.96,1.174,0.826,2.981-0.308,4.115L27.08,28.5
				h17.277c1.603,0,2.977,1.183,3.127,2.692c0.085,0.842-0.188,1.682-0.748,2.308H47c0.846,0,1.656,0.36,2.225,0.987
				c0.567,0.627,0.845,1.473,0.76,2.32c-0.151,1.51-1.525,2.692-3.127,2.692h-0.121c0.56,0.626,0.833,1.466,0.748,2.308
				c-0.126,1.255-1.096,2.283-2.339,2.595c0.026,0.028,0.053,0.056,0.079,0.084c0.567,0.627,0.845,1.473,0.76,2.32
				C45.833,48.318,44.459,49.5,42.857,49.5z"/>
		</g>
	</g>
	<g>
		<g>
			<path class="st0" d="M45,34.5H35c-0.276,0-0.5-0.224-0.5-0.5s0.224-0.5,0.5-0.5h10c0.276,0,0.5,0.224,0.5,0.5
				S45.276,34.5,45,34.5z"/>
		</g>
	</g>
	<g>
		<g>
			<path class="st0" d="M45,39.5H35c-0.276,0-0.5-0.224-0.5-0.5s0.224-0.5,0.5-0.5h10c0.276,0,0.5,0.224,0.5,0.5
				S45.276,39.5,45,39.5z"/>
		</g>
	</g>
	<g>
		<g>
			<path class="st0" d="M43.5,44.5H35c-0.276,0-0.5-0.224-0.5-0.5s0.224-0.5,0.5-0.5h8.5c0.276,0,0.5,0.224,0.5,0.5
				S43.776,44.5,43.5,44.5z"/>
		</g>
	</g>
	<g>
		<g>
			<path class="st0" d="M28.5,59.5h-1c-0.276,0-0.5-0.224-0.5-0.5s0.224-0.5,0.5-0.5h1c0.276,0,0.5,0.224,0.5,0.5
				S28.776,59.5,28.5,59.5z"/>
		</g>
	</g>
	<g>
		<g>
			<path class="st0" d="M25.5,59.5h-10c-0.276,0-0.5-0.224-0.5-0.5s0.224-0.5,0.5-0.5h10c0.276,0,0.5,0.224,0.5,0.5
				S25.776,59.5,25.5,59.5z"/>
		</g>
	</g>
	<g>
		<g>
			<path class="st0" d="M8,56.5H7c-0.276,0-0.5-0.224-0.5-0.5s0.224-0.5,0.5-0.5h1c0.276,0,0.5,0.224,0.5,0.5S8.276,56.5,8,56.5z"/>
		</g>
	</g>
	<g>
		<g>
			<path class="st0" d="M20,56.5H10c-0.276,0-0.5-0.224-0.5-0.5s0.224-0.5,0.5-0.5h10c0.276,0,0.5,0.224,0.5,0.5
				S20.276,56.5,20,56.5z"/>
		</g>
	</g>
	<g>
		<g>
			<path class="st0" d="M56.963,45.512h-9.718c-0.276,0-0.5-0.224-0.5-0.5s0.224-0.5,0.5-0.5h9.718c0.276,0,0.5,0.224,0.5,0.5
				S57.239,45.512,56.963,45.512z"/>
		</g>
	</g>
	<g>
		<g>
			<path class="st0" d="M56.779,41.037h-7.885c-0.276,0-0.5-0.224-0.5-0.5s0.224-0.5,0.5-0.5h7.885c0.276,0,0.5,0.224,0.5,0.5
				S57.056,41.037,56.779,41.037z"/>
		</g>
	</g>
	<g>
		<g>
			<path class="st0" d="M54.24,32.923h-5.337c-0.276,0-0.5-0.224-0.5-0.5s0.224-0.5,0.5-0.5h5.337c0.276,0,0.5,0.224,0.5,0.5
				S54.517,32.923,54.24,32.923z"/>
		</g>
	</g>
</g>
</svg>
