<?xml version="1.0" encoding="utf-8"?>
<!-- Generator: Adobe Illustrator 22.0.0, SVG Export Plug-In . SVG Version: 6.00 Build 0)  -->
<svg version="1.1" id="Layer_1" xmlns="http://www.w3.org/2000/svg" xmlns:xlink="http://www.w3.org/1999/xlink" x="0px" y="0px"
	 viewBox="0 0 64 64" style="enable-background:new 0 0 64 64;" xml:space="preserve">
<style type="text/css">
	.st0{fill:#263238;}
	.st1{fill:#FFD740;}
	.st2{fill:#40C4FF;}
	.st3{fill:#FF5252;}
	.st4{fill:#4FC3F7;}
	.st5{fill:#FFFFFF;}
	.st6{fill:#4DB6AC;}
	.st7{fill:#FFCA28;}
	.st8{fill:#37474F;}
</style>
<g>
	<g>
		<g>
			<path class="st2" d="M38.75,60.3c-1.654,0-3-1.346-3-3v-6c0-1.654,1.346-3,3-3H41c0.491-1.174,1.65-2,3-2
				c0.444,0,0.864,0.097,1.25,0.259l0-5.058l-13.5,3l-13.5-3l0,5.058c0.386-0.162,0.806-0.259,1.25-0.259c1.35,0,2.509,0.826,3,2
				h2.25c1.654,0,3,1.346,3,3v6c0,1.654-1.346,3-3,3h-6.5v0.2l13.5,3l13.5-3v-0.2H38.75z"/>
		</g>
	</g>
	<g>
		<g>
			<path class="st0" d="M45.25,47.059c-0.276,0-0.5-0.224-0.5-0.5v-4.435l-12.892,2.865c-0.071,0.016-0.146,0.016-0.217,0
				L18.75,42.124v4.435c0,0.276-0.224,0.5-0.5,0.5s-0.5-0.224-0.5-0.5V41.5c0-0.152,0.069-0.295,0.187-0.39
				c0.119-0.095,0.273-0.13,0.421-0.098l13.392,2.976l13.392-2.976c0.148-0.033,0.303,0.003,0.421,0.098
				c0.118,0.095,0.187,0.238,0.187,0.39v5.058C45.75,46.835,45.526,47.059,45.25,47.059z"/>
		</g>
	</g>
	<g>
		<g>
			<path class="st0" d="M31.75,64c-0.036,0-0.073-0.004-0.108-0.012l-13.5-3c-0.27-0.06-0.439-0.327-0.38-0.597
				c0.06-0.269,0.33-0.435,0.597-0.38l13.392,2.976l13.392-2.976c0.269-0.056,0.537,0.11,0.597,0.38s-0.11,0.537-0.38,0.597l-13.5,3
				C31.823,63.997,31.786,64,31.75,64z"/>
		</g>
	</g>
	<g>
		<g>
			<path class="st0" d="M18.5,30H7c-0.276,0-0.5-0.224-0.5-0.5S6.724,29,7,29h11.5c0.276,0,0.5,0.224,0.5,0.5S18.776,30,18.5,30z"/>
		</g>
	</g>
	<g>
		<g>
			<path class="st0" d="M5,30H3c-0.276,0-0.5-0.224-0.5-0.5S2.724,29,3,29h2c0.276,0,0.5,0.224,0.5,0.5S5.276,30,5,30z"/>
		</g>
	</g>
	<g>
		<g>
			<path class="st0" d="M57,30H45.5c-0.276,0-0.5-0.224-0.5-0.5s0.224-0.5,0.5-0.5H57c0.276,0,0.5,0.224,0.5,0.5S57.276,30,57,30z"
				/>
		</g>
	</g>
	<g>
		<g>
			<path class="st0" d="M61,30h-2c-0.276,0-0.5-0.224-0.5-0.5S58.724,29,59,29h2c0.276,0,0.5,0.224,0.5,0.5S61.276,30,61,30z"/>
		</g>
	</g>
	<g>
		<g>
			<path class="st0" d="M31.75,30c-5.243,0-9.746-3.475-11.095-8.501c-1.611-0.05-2.905-1.376-2.905-2.999s1.295-2.948,2.905-2.999
				C22.004,10.474,26.507,7,31.75,7s9.746,3.474,11.095,8.501c1.61,0.05,2.905,1.376,2.905,2.999s-1.294,2.948-2.905,2.999
				C41.496,26.525,36.993,30,31.75,30z M20.968,20.48c0.24,0,0.506,0.15,0.559,0.378C22.628,25.652,26.833,29,31.75,29
				s9.122-3.348,10.224-8.141c0.057-0.249,0.295-0.417,0.545-0.385C42.653,20.492,42.7,20.5,42.75,20.5c1.103,0,2-0.897,2-2
				s-0.897-2-2-2c-0.048,0-0.095,0.008-0.142,0.014c-0.259,0.036-0.577-0.121-0.635-0.373C40.872,11.347,36.667,8,31.75,8
				s-9.122,3.348-10.224,8.141c-0.058,0.249-0.297,0.415-0.545,0.385c-0.136-0.018-0.183-0.026-0.231-0.026c-1.103,0-2,0.897-2,2
				s0.897,2,2,2c0.05,0,0.097-0.008,0.145-0.014C20.919,20.482,20.943,20.48,20.968,20.48z"/>
		</g>
	</g>
	<g>
		<g>
			<path class="st0" d="M31.75,23.997c-1.409,0-2.817-0.536-3.889-1.608c-0.195-0.195-0.195-0.512,0-0.707s0.512-0.195,0.707,0
				c1.755,1.755,4.609,1.755,6.364,0c0.195-0.195,0.512-0.195,0.707,0s0.195,0.512,0,0.707
				C34.567,23.461,33.159,23.997,31.75,23.997z"/>
		</g>
	</g>
	<g>
		<g>
			<path class="st0" d="M27.684,38.5c-0.042,0-0.083-0.005-0.124-0.016c-0.158-0.041-0.287-0.156-0.344-0.309L24.8,31.739
				c-0.094-0.25,0.026-0.53,0.271-0.635l2.481-1.063c0.188-0.08,0.406-0.039,0.55,0.106l4,4c0.099,0.098,0.151,0.233,0.146,0.372
				c-0.005,0.139-0.068,0.27-0.173,0.36l-4.066,3.5C27.918,38.458,27.802,38.5,27.684,38.5z M25.904,31.835l1.996,5.319l3.115-2.681
				l-3.38-3.38L25.904,31.835z"/>
		</g>
	</g>
	<g>
		<g>
			<path class="st0" d="M35.806,38.5c-0.119,0-0.235-0.042-0.327-0.122l-4.056-3.5c-0.105-0.091-0.168-0.221-0.173-0.36
				c-0.005-0.139,0.048-0.274,0.146-0.372l4-4c0.145-0.145,0.362-0.186,0.55-0.106l2.481,1.063c0.246,0.105,0.365,0.385,0.271,0.636
				l-2.425,6.437c-0.058,0.153-0.186,0.268-0.344,0.308C35.889,38.495,35.847,38.5,35.806,38.5z M32.484,34.473l3.107,2.681
				l2.004-5.319l-1.73-0.742L32.484,34.473z"/>
		</g>
	</g>
	<g>
		<g>
			<path class="st0" d="M49.75,50.8c-0.276,0-0.5-0.224-0.5-0.5v-8.855c0-2.804-1.666-5.33-4.243-6.434l-9.454-4.052
				C35.369,30.881,35.25,30.7,35.25,30.5v-1.052c-2.272,0.732-4.728,0.732-7,0V30.5c0,0.2-0.119,0.381-0.303,0.459l-9.454,4.052
				c-2.577,1.104-4.243,3.63-4.243,6.434V50.3c0,0.276-0.224,0.5-0.5,0.5s-0.5-0.224-0.5-0.5v-8.855
				c0-3.205,1.903-6.091,4.849-7.353l9.151-3.922v-1.431c0-0.165,0.082-0.32,0.218-0.413c0.136-0.093,0.311-0.113,0.464-0.052
				c2.459,0.963,5.177,0.963,7.636,0c0.153-0.061,0.329-0.041,0.464,0.052c0.137,0.093,0.218,0.248,0.218,0.413v1.431l9.151,3.922
				c2.946,1.262,4.849,4.148,4.849,7.353V50.3C50.25,50.577,50.026,50.8,49.75,50.8z"/>
		</g>
	</g>
	<g>
		<g>
			<path class="st0" d="M31.75,64c-0.276,0-0.5-0.224-0.5-0.5v-19c0-0.276,0.224-0.5,0.5-0.5s0.5,0.224,0.5,0.5v19
				C32.25,63.777,32.026,64,31.75,64z"/>
		</g>
	</g>
	<g>
		<g>
			<path class="st0" d="M24.75,58.8h-8.5c-1.654,0-3-1.346-3-3v-5.5c0-0.276,0.224-0.5,0.5-0.5h4v-0.25
				c0-0.965,0.785-1.75,1.75-1.75s1.75,0.785,1.75,1.75v0.25h3.5c0.827,0,1.5,0.673,1.5,1.5v6C26.25,58.127,25.577,58.8,24.75,58.8z
				 M14.25,50.8v5c0,1.103,0.897,2,2,2h8.5c0.276,0,0.5-0.224,0.5-0.5v-6c0-0.276-0.224-0.5-0.5-0.5h-4c-0.276,0-0.5-0.224-0.5-0.5
				v-0.75c0-0.414-0.336-0.75-0.75-0.75s-0.75,0.336-0.75,0.75v0.75c0,0.276-0.224,0.5-0.5,0.5H14.25z"/>
		</g>
	</g>
	<g>
		<g>
			<path class="st0" d="M25.75,52.8h-3c-0.276,0-0.5-0.224-0.5-0.5s0.224-0.5,0.5-0.5h3c0.276,0,0.5,0.224,0.5,0.5
				S26.026,52.8,25.75,52.8z"/>
		</g>
	</g>
	<g>
		<g>
			<path class="st0" d="M25.75,54.8h-3c-0.276,0-0.5-0.224-0.5-0.5s0.224-0.5,0.5-0.5h3c0.276,0,0.5,0.224,0.5,0.5
				S26.026,54.8,25.75,54.8z"/>
		</g>
	</g>
	<g>
		<g>
			<path class="st0" d="M47.25,58.8h-8.5c-0.827,0-1.5-0.673-1.5-1.5v-6c0-0.827,0.673-1.5,1.5-1.5h3.5v-0.25
				c0-0.965,0.785-1.75,1.75-1.75s1.75,0.785,1.75,1.75v0.25h4c0.276,0,0.5,0.224,0.5,0.5v5.5C50.25,57.455,48.904,58.8,47.25,58.8z
				 M38.75,50.8c-0.276,0-0.5,0.224-0.5,0.5v6c0,0.276,0.224,0.5,0.5,0.5h8.5c1.103,0,2-0.897,2-2v-5h-4c-0.276,0-0.5-0.224-0.5-0.5
				v-0.75c0-0.414-0.336-0.75-0.75-0.75s-0.75,0.336-0.75,0.75v0.75c0,0.276-0.224,0.5-0.5,0.5H38.75z"/>
		</g>
	</g>
	<g>
		<g>
			<path class="st0" d="M40.75,52.8h-3c-0.276,0-0.5-0.224-0.5-0.5s0.224-0.5,0.5-0.5h3c0.276,0,0.5,0.224,0.5,0.5
				S41.026,52.8,40.75,52.8z"/>
		</g>
	</g>
	<g>
		<g>
			<path class="st0" d="M40.75,54.8h-3c-0.276,0-0.5-0.224-0.5-0.5s0.224-0.5,0.5-0.5h3c0.276,0,0.5,0.224,0.5,0.5
				S41.026,54.8,40.75,54.8z"/>
		</g>
	</g>
	<g>
		<g>
			<path class="st0" d="M25.75,56.8h-3c-0.276,0-0.5-0.224-0.5-0.5s0.224-0.5,0.5-0.5h3c0.276,0,0.5,0.224,0.5,0.5
				S26.026,56.8,25.75,56.8z"/>
		</g>
	</g>
	<g>
		<g>
			<path class="st0" d="M40.75,56.8h-3c-0.276,0-0.5-0.224-0.5-0.5s0.224-0.5,0.5-0.5h3c0.276,0,0.5,0.224,0.5,0.5
				S41.026,56.8,40.75,56.8z"/>
		</g>
	</g>
	<g>
		<g>
			<path class="st0" d="M21,3h-4c-0.276,0-0.5-0.224-0.5-0.5S16.724,2,17,2h4c0.276,0,0.5,0.224,0.5,0.5S21.276,3,21,3z"/>
		</g>
	</g>
	<g>
		<g>
			<path class="st0" d="M19,5c-0.276,0-0.5-0.224-0.5-0.5v-4C18.5,0.223,18.724,0,19,0s0.5,0.224,0.5,0.5v4
				C19.5,4.776,19.276,5,19,5z"/>
		</g>
	</g>
	<g>
		<g>
			<path class="st0" d="M17,8.5h-4c-0.276,0-0.5-0.224-0.5-0.5s0.224-0.5,0.5-0.5h4c0.276,0,0.5,0.224,0.5,0.5S17.276,8.5,17,8.5z"
				/>
		</g>
	</g>
	<g>
		<g>
			<path class="st0" d="M15,10.5c-0.276,0-0.5-0.224-0.5-0.5V6c0-0.276,0.224-0.5,0.5-0.5s0.5,0.224,0.5,0.5v4
				C15.5,10.276,15.276,10.5,15,10.5z"/>
		</g>
	</g>
	<g>
		<g>
			<path class="st1" d="M33.269,6.535l6,5.854v0.146c0,2.209,1.791,4,4,4h0h0v-5c0-2.761-2.239-5-5-5H33.269z"/>
		</g>
		<g>
			<path class="st0" d="M43.27,17.035c-2.459,0-4.464-1.983-4.5-4.435l-5.85-5.707c-0.146-0.142-0.19-0.358-0.114-0.546
				s0.26-0.312,0.463-0.312h5c3.033,0,5.5,2.467,5.5,5.5v5C43.77,16.812,43.546,17.035,43.27,17.035z M34.498,7.035l5.121,4.996
				c0.097,0.094,0.151,0.223,0.151,0.358v0.146c0,1.76,1.306,3.221,3,3.464v-4.464c0-2.481-2.019-4.5-4.5-4.5H34.498z"/>
		</g>
	</g>
	<g>
		<g>
			<path class="st1" d="M25.327,15.62l-5.057,0.88v-2c0-5.523,4.477-10,10-10h6.157c0.793,0,1.271,0.88,0.838,1.545l-1.932,2.972
				C33.061,12.513,29.435,14.906,25.327,15.62z"/>
		</g>
		<g>
			<path class="st0" d="M20.27,17c-0.117,0-0.231-0.041-0.322-0.117c-0.113-0.095-0.178-0.235-0.178-0.383v-2
				c0-5.79,4.71-10.5,10.5-10.5h6.157c0.551,0,1.056,0.301,1.318,0.785s0.239,1.071-0.061,1.533L35.753,9.29
				c-2.341,3.601-6.11,6.087-10.341,6.823l-0.085-0.493l0.085,0.493l-5.057,0.879C20.327,16.997,20.298,17,20.27,17z M30.27,5
				c-5.238,0-9.5,4.262-9.5,9.5v1.406l4.472-0.778c3.958-0.688,7.483-3.015,9.673-6.383l1.932-2.972
				c0.146-0.226,0.063-0.433,0.021-0.511S36.695,5,36.427,5H30.27z"/>
		</g>
	</g>
</g>
</svg>
