<?xml version="1.0" encoding="utf-8"?>
<!-- Generator: Adobe Illustrator 22.0.0, SVG Export Plug-In . SVG Version: 6.00 Build 0)  -->
<svg version="1.1" id="Layer_1" xmlns="http://www.w3.org/2000/svg" xmlns:xlink="http://www.w3.org/1999/xlink" x="0px" y="0px"
	 viewBox="0 0 64 64" style="enable-background:new 0 0 64 64;" xml:space="preserve">
<style type="text/css">
	.st0{fill:#263238;}
	.st1{fill:#FFD740;}
	.st2{fill:#40C4FF;}
	.st3{fill:#FF5252;}
	.st4{fill:#4FC3F7;}
	.st5{fill:#FFFFFF;}
	.st6{fill:#4DB6AC;}
	.st7{fill:#FFCA28;}
	.st8{fill:#37474F;}
</style>
<g>
	<g>
		<g>
			<path class="st0" d="M21.5,10.5h-8C12.673,10.5,12,9.827,12,9V3c0-0.827,0.673-1.5,1.5-1.5h8C22.327,1.5,23,2.173,23,3v6
				C23,9.827,22.327,10.5,21.5,10.5z M13.5,2.5C13.224,2.5,13,2.724,13,3v6c0,0.276,0.224,0.5,0.5,0.5h8C21.776,9.5,22,9.276,22,9V3
				c0-0.276-0.224-0.5-0.5-0.5H13.5z"/>
		</g>
	</g>
	<g>
		<g>
			<polyline class="st2" points="22.5,36 7,36 7,26 22.5,26 			"/>
		</g>
		<g>
			<path class="st0" d="M22.5,36.5H7c-0.276,0-0.5-0.224-0.5-0.5V26c0-0.276,0.224-0.5,0.5-0.5h15.5c0.276,0,0.5,0.224,0.5,0.5
				s-0.224,0.5-0.5,0.5h-15v9h15c0.276,0,0.5,0.224,0.5,0.5S22.776,36.5,22.5,36.5z"/>
		</g>
	</g>
	<g>
		<g>
			<path class="st0" d="M56,62.5H25.5c-0.827,0-1.5-0.673-1.5-1.5V17c0-0.827,0.673-1.5,1.5-1.5h5c0.827,0,1.5,0.673,1.5,1.5v10
				c0,0.276,0.224,0.5,0.5,0.5H49c0.275,0,0.5-0.224,0.5-0.5V17c0-0.827,0.673-1.5,1.5-1.5h5c0.827,0,1.5,0.673,1.5,1.5v44
				C57.5,61.827,56.827,62.5,56,62.5z M25.5,16.5c-0.276,0-0.5,0.224-0.5,0.5v44c0,0.276,0.224,0.5,0.5,0.5H56
				c0.275,0,0.5-0.224,0.5-0.5V17c0-0.276-0.225-0.5-0.5-0.5h-5c-0.275,0-0.5,0.224-0.5,0.5v10c0,0.827-0.673,1.5-1.5,1.5H32.5
				c-0.827,0-1.5-0.673-1.5-1.5V17c0-0.276-0.224-0.5-0.5-0.5H25.5z"/>
		</g>
	</g>
	<g>
		<g>
			<path class="st0" d="M22.684,62.5H12c-3.033,0-5.5-2.467-5.5-5.5v-4.82c0-0.85,0.201-1.7,0.581-2.46L8.5,46.881v-4.764
				l-1.419-2.839c-0.38-0.76-0.581-1.61-0.581-2.459V24.913c0-1.334,0.338-2.659,0.977-3.831l5.084-9.321
				c0.132-0.243,0.438-0.332,0.678-0.2c0.243,0.132,0.332,0.436,0.2,0.678l-5.084,9.321C7.795,22.586,7.5,23.745,7.5,24.913v11.907
				c0,0.695,0.164,1.391,0.475,2.012l1.472,2.944C9.482,41.845,9.5,41.922,9.5,42v5c0,0.078-0.018,0.154-0.053,0.224l-1.472,2.944
				C7.664,50.789,7.5,51.485,7.5,52.18V57c0,2.481,2.019,4.5,4.5,4.5h10.684c0.276,0,0.5,0.224,0.5,0.5S22.96,62.5,22.684,62.5z"/>
		</g>
	</g>
	<g>
		<g>
			<path class="st0" d="M23.512,15.271c-0.177,0-0.349-0.094-0.439-0.261l-1.511-2.771c-0.132-0.242-0.043-0.546,0.2-0.678
				c0.241-0.132,0.546-0.043,0.678,0.2l1.511,2.771c0.132,0.242,0.043,0.546-0.2,0.678C23.675,15.251,23.593,15.271,23.512,15.271z"
				/>
		</g>
	</g>
	<g>
		<g>
			<path class="st6" d="M38.969,43.585L39.884,42c0.385-0.667,1.347-0.667,1.732,0l0.915,1.585c0.276,0.478,0.888,0.642,1.366,0.366
				l0.866-0.5c0.478-0.276,0.642-0.888,0.366-1.366L41.616,36c-0.385-0.667-1.347-0.667-1.732,0l-3.513,6.085
				c-0.276,0.478-0.112,1.09,0.366,1.366l0.866,0.5C38.081,44.228,38.693,44.064,38.969,43.585z"/>
		</g>
		<g>
			<path class="st0" d="M38.1,44.585c-0.254,0-0.512-0.065-0.747-0.201l-0.866-0.5c-0.347-0.2-0.595-0.524-0.698-0.911
				c-0.104-0.387-0.051-0.792,0.15-1.139l3.513-6.085C39.722,35.28,40.208,35,40.75,35s1.028,0.28,1.299,0.75l3.513,6.085
				c0.414,0.716,0.168,1.635-0.548,2.049l-0.866,0.5c-0.717,0.413-1.636,0.166-2.049-0.549l-0.915-1.585
				C41.053,42.024,40.837,42,40.75,42s-0.303,0.024-0.434,0.25l-0.915,1.585c0,0,0,0,0,0C39.124,44.316,38.619,44.585,38.1,44.585z
				 M38.969,43.585h0.01H38.969z M40.75,36c-0.087,0-0.303,0.024-0.434,0.25l-3.513,6.085c-0.066,0.116-0.084,0.25-0.05,0.379
				s0.117,0.237,0.232,0.303l0.866,0.5c0.236,0.137,0.545,0.056,0.684-0.183l0.915-1.585C39.722,41.28,40.208,41,40.75,41
				s1.028,0.28,1.299,0.75l0.915,1.585c0.138,0.239,0.445,0.32,0.684,0.183l0.866-0.5c0.238-0.138,0.32-0.444,0.183-0.683
				l-3.513-6.085C41.053,36.024,40.837,36,40.75,36z"/>
		</g>
	</g>
	<g>
		<g>
			<path class="st6" d="M38.25,51h-1.83c-0.77,0-1.251-0.833-0.866-1.5l0.915-1.585c0.276-0.478,0.112-1.09-0.366-1.366l-0.866-0.5
				c-0.478-0.276-1.09-0.112-1.366,0.366L30.358,52.5c-0.385,0.667,0.096,1.5,0.866,1.5h7.026c0.552,0,1-0.448,1-1v-1
				C39.25,51.448,38.802,51,38.25,51z"/>
		</g>
		<g>
			<path class="st0" d="M38.25,54.5h-7.026c-0.542,0-1.028-0.28-1.299-0.75c-0.271-0.47-0.271-1.03,0-1.5l3.514-6.085
				c0.199-0.347,0.522-0.595,0.91-0.699c0.387-0.105,0.791-0.051,1.138,0.149l0.866,0.5c0.347,0.2,0.596,0.524,0.699,0.911
				c0.104,0.387,0.051,0.791-0.15,1.138l-0.915,1.584c-0.13,0.226-0.043,0.425,0.001,0.5c0.043,0.075,0.172,0.25,0.433,0.25h1.83
				c0.827,0,1.5,0.673,1.5,1.5v1C39.75,53.827,39.077,54.5,38.25,54.5z M34.738,46.415c-0.044,0-0.088,0.005-0.131,0.017
				c-0.129,0.035-0.236,0.117-0.303,0.232l-3.514,6.085c-0.13,0.226-0.043,0.425,0,0.5c0.043,0.075,0.173,0.25,0.433,0.25h7.026
				c0.275,0,0.5-0.224,0.5-0.5v-1c0-0.276-0.225-0.5-0.5-0.5h-1.83c-0.542,0-1.027-0.28-1.299-0.75s-0.271-1.03,0-1.5l0.915-1.585
				c0.066-0.116,0.084-0.25,0.05-0.379c-0.035-0.129-0.117-0.237-0.233-0.304l-0.866-0.5C34.909,46.438,34.824,46.415,34.738,46.415
				z"/>
		</g>
	</g>
	<g>
		<g>
			<path class="st6" d="M42.25,52v1c0,0.552,0.448,1,1,1h7.026c0.77,0,1.251-0.833,0.866-1.5l-3.513-6.085
				c-0.276-0.478-0.888-0.642-1.366-0.366l-0.866,0.5c-0.478,0.276-0.642,0.888-0.366,1.366l0.915,1.585
				c0.385,0.667-0.096,1.5-0.866,1.5h-1.83C42.698,51,42.25,51.448,42.25,52z"/>
		</g>
		<g>
			<path class="st0" d="M50.276,54.5H43.25c-0.827,0-1.5-0.673-1.5-1.5v-1c0-0.827,0.673-1.5,1.5-1.5h1.83
				c0.261,0,0.39-0.175,0.433-0.25c0.044-0.075,0.131-0.274,0.001-0.5l-0.915-1.585c-0.414-0.716-0.168-1.635,0.548-2.049l0.866-0.5
				c0.346-0.2,0.748-0.254,1.139-0.15c0.387,0.104,0.71,0.352,0.91,0.699l3.514,6.085c0.271,0.47,0.271,1.03,0,1.5
				S50.818,54.5,50.276,54.5z M43.25,51.5c-0.275,0-0.5,0.224-0.5,0.5v1c0,0.276,0.225,0.5,0.5,0.5h7.026
				c0.261,0,0.39-0.175,0.433-0.25c0.044-0.075,0.131-0.274,0.001-0.5l-3.514-6.085c-0.067-0.116-0.175-0.199-0.304-0.233
				c-0.129-0.032-0.263-0.016-0.38,0.05l-0.866,0.5c-0.238,0.138-0.32,0.444-0.183,0.683l0.915,1.585c0.271,0.47,0.271,1.03,0,1.5
				s-0.757,0.75-1.299,0.75H43.25z"/>
		</g>
	</g>
	<g>
		<g>
			<path class="st0" d="M22.5,7.5h-10C12.224,7.5,12,7.276,12,7s0.224-0.5,0.5-0.5h10C22.776,6.5,23,6.724,23,7S22.776,7.5,22.5,7.5
				z"/>
		</g>
	</g>
	<g>
		<g>
			<path class="st0" d="M45.375,6.144h-4c-0.276,0-0.5-0.224-0.5-0.5s0.224-0.5,0.5-0.5h4c0.276,0,0.5,0.224,0.5,0.5
				S45.651,6.144,45.375,6.144z"/>
		</g>
	</g>
	<g>
		<g>
			<path class="st0" d="M43.375,8.144c-0.276,0-0.5-0.224-0.5-0.5v-4c0-0.276,0.224-0.5,0.5-0.5s0.5,0.224,0.5,0.5v4
				C43.875,7.92,43.651,8.144,43.375,8.144z"/>
		</g>
	</g>
	<g>
		<g>
			<path class="st0" d="M40.375,11.644h-4c-0.276,0-0.5-0.224-0.5-0.5s0.224-0.5,0.5-0.5h4c0.276,0,0.5,0.224,0.5,0.5
				S40.651,11.644,40.375,11.644z"/>
		</g>
	</g>
	<g>
		<g>
			<path class="st0" d="M38.375,13.644c-0.276,0-0.5-0.224-0.5-0.5v-4c0-0.276,0.224-0.5,0.5-0.5s0.5,0.224,0.5,0.5v4
				C38.875,13.42,38.651,13.644,38.375,13.644z"/>
		</g>
	</g>
	<g>
		<g>
			<path class="st0" d="M61,57.5c-0.276,0-0.5-0.224-0.5-0.5v-2c0-0.276,0.224-0.5,0.5-0.5s0.5,0.224,0.5,0.5v2
				C61.5,57.276,61.276,57.5,61,57.5z"/>
		</g>
	</g>
	<g>
		<g>
			<path class="st0" d="M61,53.5c-0.276,0-0.5-0.224-0.5-0.5V41.5c0-0.276,0.224-0.5,0.5-0.5s0.5,0.224,0.5,0.5V53
				C61.5,53.276,61.276,53.5,61,53.5z"/>
		</g>
	</g>
	<g>
		<g>
			<path class="st0" d="M3,25.5c-0.276,0-0.5-0.224-0.5-0.5v-2c0-0.276,0.224-0.5,0.5-0.5s0.5,0.224,0.5,0.5v2
				C3.5,25.276,3.276,25.5,3,25.5z"/>
		</g>
	</g>
	<g>
		<g>
			<path class="st0" d="M3,39c-0.276,0-0.5-0.224-0.5-0.5V27c0-0.276,0.224-0.5,0.5-0.5s0.5,0.224,0.5,0.5v11.5
				C3.5,38.776,3.276,39,3,39z"/>
		</g>
	</g>
</g>
</svg>
