<?xml version="1.0" encoding="utf-8"?>
<!-- Generator: Adobe Illustrator 22.0.0, SVG Export Plug-In . SVG Version: 6.00 Build 0)  -->
<svg version="1.1" id="Layer_1" xmlns="http://www.w3.org/2000/svg" xmlns:xlink="http://www.w3.org/1999/xlink" x="0px" y="0px"
	 viewBox="0 0 64 64" style="enable-background:new 0 0 64 64;" xml:space="preserve">
<style type="text/css">
	.st0{fill:#263238;}
	.st1{fill:#FFD740;}
	.st2{fill:#40C4FF;}
	.st3{fill:#FF5252;}
	.st4{fill:#4FC3F7;}
	.st5{fill:#FFFFFF;}
	.st6{fill:#4DB6AC;}
	.st7{fill:#FFCA28;}
	.st8{fill:#37474F;}
</style>
<g>
	<g>
		<g>
			<path class="st2" d="M2.515,45l1.046,1.046C6.112,48.596,9.502,50,13.106,50h37.787c3.604,0,6.994-1.404,9.545-3.953L61.485,45
				H63c0,8.284-6.716,15-15,15H16C7.716,60,1,53.284,1,45H2.515z"/>
		</g>
	</g>
	<g>
		<g>
			<path class="st0" d="M49.763,6.5h-4c-0.276,0-0.5-0.224-0.5-0.5s0.224-0.5,0.5-0.5h4c0.276,0,0.5,0.224,0.5,0.5
				S50.04,6.5,49.763,6.5z"/>
		</g>
	</g>
	<g>
		<g>
			<path class="st0" d="M47.763,8.5c-0.276,0-0.5-0.224-0.5-0.5V4c0-0.276,0.224-0.5,0.5-0.5s0.5,0.224,0.5,0.5v4
				C48.263,8.276,48.04,8.5,47.763,8.5z"/>
		</g>
	</g>
	<g>
		<g>
			<path class="st0" d="M54.763,11h-4c-0.276,0-0.5-0.224-0.5-0.5s0.224-0.5,0.5-0.5h4c0.276,0,0.5,0.224,0.5,0.5
				S55.04,11,54.763,11z"/>
		</g>
	</g>
	<g>
		<g>
			<path class="st0" d="M52.763,13c-0.276,0-0.5-0.224-0.5-0.5v-4c0-0.276,0.224-0.5,0.5-0.5s0.5,0.224,0.5,0.5v4
				C53.263,12.776,53.04,13,52.763,13z"/>
		</g>
	</g>
	<g>
		<g>
			<path class="st0" d="M30.737,9h-1c-0.276,0-0.5-0.224-0.5-0.5S29.46,8,29.737,8h1c0.276,0,0.5,0.224,0.5,0.5S31.013,9,30.737,9z"
				/>
		</g>
	</g>
	<g>
		<g>
			<path class="st0" d="M27.737,9h-10c-0.276,0-0.5-0.224-0.5-0.5S17.46,8,17.737,8h10c0.276,0,0.5,0.224,0.5,0.5S28.013,9,27.737,9
				z"/>
		</g>
	</g>
	<g>
		<g>
			<path class="st0" d="M10.237,6h-1c-0.276,0-0.5-0.224-0.5-0.5S8.96,5,9.237,5h1c0.276,0,0.5,0.224,0.5,0.5S10.513,6,10.237,6z"/>
		</g>
	</g>
	<g>
		<g>
			<path class="st0" d="M22.237,6h-10c-0.276,0-0.5-0.224-0.5-0.5S11.96,5,12.237,5h10c0.276,0,0.5,0.224,0.5,0.5S22.513,6,22.237,6
				z"/>
		</g>
	</g>
	<g>
		<g>
			<path class="st0" d="M19,27c-3.584,0-6.5-2.916-6.5-6.5S15.416,14,19,14s6.5,2.916,6.5,6.5S22.584,27,19,27z M19,15
				c-3.033,0-5.5,2.467-5.5,5.5S15.967,26,19,26s5.5-2.467,5.5-5.5S22.033,15,19,15z"/>
		</g>
	</g>
	<g>
		<g>
			<path class="st0" d="M31.5,35H19c-1.378,0-2.5-1.122-2.5-2.5S17.622,30,19,30h12.5c1.378,0,2.5,1.122,2.5,2.5S32.878,35,31.5,35z
				 M19,31c-0.827,0-1.5,0.673-1.5,1.5S18.173,34,19,34h12.5c0.827,0,1.5-0.673,1.5-1.5S32.327,31,31.5,31H19z"/>
		</g>
	</g>
	<g>
		<g>
			<path class="st0" d="M39.5,27c-3.584,0-6.5-2.916-6.5-6.5s2.916-6.5,6.5-6.5s6.5,2.916,6.5,6.5S43.084,27,39.5,27z M39.5,15
				c-3.033,0-5.5,2.467-5.5,5.5s2.467,5.5,5.5,5.5s5.5-2.467,5.5-5.5S42.533,15,39.5,15z"/>
		</g>
	</g>
	<g>
		<g>
			<path class="st0" d="M52,35H39.5c-1.378,0-2.5-1.122-2.5-2.5s1.122-2.5,2.5-2.5H52c1.378,0,2.5,1.122,2.5,2.5S53.378,35,52,35z
				 M39.5,31c-0.827,0-1.5,0.673-1.5,1.5s0.673,1.5,1.5,1.5H52c0.827,0,1.5-0.673,1.5-1.5S52.827,31,52,31H39.5z"/>
		</g>
	</g>
	<g>
		<g>
			<path class="st3" d="M13.5,38v-6c0-3.038,2.462-5.5,5.5-5.5c2.517,0,4.634,1.693,5.288,4H19c-1.104,0-2,0.896-2,2s0.896,2,2,2
				h5.5V38"/>
		</g>
		<g>
			<path class="st0" d="M24.5,38.5c-0.276,0-0.5-0.224-0.5-0.5v-3h-5c-1.378,0-2.5-1.122-2.5-2.5S17.622,30,19,30h4.579
				c-0.786-1.795-2.583-3-4.579-3c-2.757,0-5,2.243-5,5v6c0,0.276-0.224,0.5-0.5,0.5S13,38.276,13,38v-6c0-3.309,2.691-6,6-6
				c2.669,0,5.042,1.794,5.769,4.364c0.043,0.151,0.012,0.313-0.082,0.438C24.592,30.927,24.444,31,24.288,31H19
				c-0.827,0-1.5,0.673-1.5,1.5S18.173,34,19,34h5.5c0.276,0,0.5,0.224,0.5,0.5V38C25,38.276,24.776,38.5,24.5,38.5z"/>
		</g>
	</g>
	<g>
		<g>
			<path class="st3" d="M34,38v-6c0-3.038,2.462-5.5,5.5-5.5c2.517,0,4.634,1.693,5.288,4H39.5c-1.104,0-2,0.896-2,2s0.896,2,2,2H45
				V38"/>
		</g>
		<g>
			<path class="st0" d="M45,38.5c-0.276,0-0.5-0.224-0.5-0.5v-3h-5c-1.378,0-2.5-1.122-2.5-2.5s1.122-2.5,2.5-2.5h4.579
				c-0.786-1.795-2.583-3-4.579-3c-2.757,0-5,2.243-5,5v6c0,0.276-0.224,0.5-0.5,0.5s-0.5-0.224-0.5-0.5v-6c0-3.309,2.691-6,6-6
				c2.669,0,5.041,1.794,5.769,4.364c0.043,0.151,0.012,0.313-0.082,0.438C45.092,30.927,44.944,31,44.788,31H39.5
				c-0.827,0-1.5,0.673-1.5,1.5s0.673,1.5,1.5,1.5H45c0.276,0,0.5,0.224,0.5,0.5V38C45.5,38.276,45.276,38.5,45,38.5z"/>
		</g>
	</g>
	<g>
		<g>
			<path class="st0" d="M33.412,32.445c-0.011,0-0.021,0-0.032-0.001c-0.21-0.014-0.389-0.157-0.448-0.359
				C32.744,31.436,32.168,31,31.5,31h-0.731c-0.168,0-0.326-0.085-0.418-0.226s-0.107-0.319-0.04-0.474l0.956-2.191
				c0.16-0.367,0.454-0.65,0.827-0.796c0.374-0.146,0.781-0.139,1.148,0.022l0.917,0.399c0.758,0.332,1.106,1.217,0.775,1.975
				l-1.063,2.437C33.791,32.328,33.61,32.445,33.412,32.445z M31.533,30c0.707,0.01,1.362,0.325,1.819,0.833l0.665-1.525
				c0.11-0.252-0.005-0.548-0.258-0.658l-0.917-0.399c-0.122-0.054-0.258-0.056-0.383-0.008c-0.125,0.049-0.222,0.143-0.275,0.266
				L31.533,30z"/>
		</g>
	</g>
	<g>
		<g>
			<path class="st0" d="M22.358,56.277c-0.204,0-0.408-0.042-0.6-0.126l-0.917-0.399c-0.758-0.331-1.105-1.217-0.775-1.975
				L28.565,34.3c0.08-0.182,0.26-0.3,0.458-0.3H31.5c0.225,0,0.449-0.056,0.667-0.166c0.188-0.094,0.415-0.062,0.569,0.083
				c0.153,0.145,0.199,0.37,0.115,0.563l-9.118,20.895c-0.16,0.367-0.454,0.65-0.827,0.796
				C22.729,56.242,22.543,56.277,22.358,56.277z M29.351,35l-8.367,19.176c-0.11,0.252,0.005,0.548,0.258,0.659l0.917,0.399
				c0.123,0.054,0.258,0.056,0.383,0.008c0.125-0.049,0.222-0.143,0.275-0.266L31.533,35c-0.011,0-0.022,0-0.033,0H29.351z"/>
		</g>
	</g>
	<g>
		<g>
			<path class="st0" d="M52.51,31.074c-0.042,0-0.085-0.005-0.128-0.017C52.234,31.018,52.112,31,52,31h-2.731
				c-0.168,0-0.326-0.085-0.418-0.226s-0.107-0.319-0.04-0.474l0.956-2.191c0.16-0.367,0.454-0.65,0.827-0.796
				c0.374-0.146,0.782-0.139,1.148,0.022l0.917,0.399c0.758,0.332,1.106,1.217,0.775,1.975l-0.465,1.065
				C52.888,30.96,52.705,31.074,52.51,31.074z M50.033,30H52c0.07,0,0.14,0.003,0.21,0.011l0.306-0.702
				c0.11-0.253-0.005-0.548-0.258-0.659l-0.917-0.399c-0.122-0.054-0.258-0.056-0.383-0.008c-0.125,0.049-0.222,0.143-0.275,0.266
				L50.033,30z"/>
		</g>
	</g>
	<g>
		<g>
			<path class="st0" d="M40.858,56.277c-0.204,0-0.408-0.042-0.6-0.126l-0.917-0.399c-0.758-0.331-1.105-1.217-0.775-1.975
				L47.065,34.3c0.08-0.182,0.26-0.3,0.458-0.3h3.273c0.168,0,0.326,0.085,0.418,0.226s0.107,0.319,0.04,0.474l-9.022,20.676
				c-0.16,0.367-0.454,0.65-0.827,0.796C41.229,56.242,41.043,56.277,40.858,56.277z M47.851,35l-8.367,19.176
				c-0.11,0.252,0.005,0.548,0.258,0.659l0.917,0.399c0.123,0.054,0.258,0.056,0.383,0.008c0.125-0.049,0.222-0.143,0.275-0.266
				L50.033,35H47.851z"/>
		</g>
	</g>
	<g>
		<g>
			<path class="st1" d="M20.95,48h-7.844c-3.05,0-5.975-1.212-8.132-3.368l-2.096-2.096c-0.391-0.391-0.391-1.024,0-1.414
				l4.243-4.243c0.391-0.391,1.024-0.391,1.414,0l2.097,2.097C11.289,39.632,12.179,40,13.106,40h11.335"/>
		</g>
		<g>
			<path class="st0" d="M20.95,48.5h-7.844c-3.205,0-6.219-1.248-8.486-3.515L2.525,42.89c-0.585-0.585-0.585-1.537,0-2.122
				l4.243-4.243c0.585-0.585,1.536-0.585,2.121,0l2.097,2.097c0.566,0.566,1.32,0.878,2.121,0.878h11.335c0.276,0,0.5,0.224,0.5,0.5
				s-0.224,0.5-0.5,0.5H13.106c-1.068,0-2.072-0.416-2.828-1.171l-2.097-2.097c-0.195-0.195-0.512-0.195-0.707,0l-4.243,4.243
				c-0.195,0.195-0.195,0.512,0,0.708l2.096,2.096c2.078,2.078,4.841,3.222,7.779,3.222h7.844c0.276,0,0.5,0.224,0.5,0.5
				S21.227,48.5,20.95,48.5z"/>
		</g>
	</g>
	<g>
		<g>
			<polygon class="st1" points="39.45,48 28.588,48 32.079,40 42.941,40 			"/>
		</g>
	</g>
	<g>
		<g>
			<path class="st1" d="M50.579,40h0.315c0.928,0,1.818-0.369,2.474-1.025l2.097-2.097c0.391-0.391,1.024-0.391,1.414,0l4.243,4.243
				c0.391,0.391,0.391,1.024,0,1.414l-2.097,2.097C56.869,46.789,53.944,48,50.895,48h-3.806"/>
		</g>
		<g>
			<path class="st0" d="M50.895,48.5h-3.806c-0.276,0-0.5-0.224-0.5-0.5s0.224-0.5,0.5-0.5h3.806c2.938,0,5.7-1.144,7.777-3.221
				l2.097-2.096c0.195-0.195,0.195-0.512,0-0.708l-4.243-4.243c-0.195-0.194-0.512-0.195-0.707,0l-2.097,2.097
				c-0.755,0.755-1.76,1.171-2.828,1.171h-0.314c-0.276,0-0.5-0.224-0.5-0.5s0.224-0.5,0.5-0.5h0.314
				c0.801,0,1.554-0.312,2.121-0.878l2.097-2.097c0.585-0.585,1.536-0.585,2.121,0l4.243,4.243c0.585,0.585,0.585,1.537,0,2.122
				l-2.097,2.096C57.112,47.252,54.099,48.5,50.895,48.5z"/>
		</g>
	</g>
	<g>
		<g>
			<path class="st0" d="M42.941,40.5H32.079c-0.276,0-0.5-0.224-0.5-0.5s0.224-0.5,0.5-0.5h10.862c0.276,0,0.5,0.224,0.5,0.5
				S43.218,40.5,42.941,40.5z"/>
		</g>
	</g>
	<g>
		<g>
			<path class="st0" d="M39.45,48.5H28.588c-0.276,0-0.5-0.224-0.5-0.5s0.224-0.5,0.5-0.5H39.45c0.276,0,0.5,0.224,0.5,0.5
				S39.727,48.5,39.45,48.5z"/>
		</g>
	</g>
</g>
</svg>
