<?xml version="1.0" encoding="utf-8"?>
<!-- Generator: Adobe Illustrator 22.0.0, SVG Export Plug-In . SVG Version: 6.00 Build 0)  -->
<svg version="1.1" id="Layer_1" xmlns="http://www.w3.org/2000/svg" xmlns:xlink="http://www.w3.org/1999/xlink" x="0px" y="0px"
	 viewBox="0 0 64 64" style="enable-background:new 0 0 64 64;" xml:space="preserve">
<style type="text/css">
	.st0{fill:#263238;}
	.st1{fill:#FFD740;}
	.st2{fill:#40C4FF;}
	.st3{fill:#FF5252;}
	.st4{fill:#4FC3F7;}
	.st5{fill:#FFFFFF;}
	.st6{fill:#4DB6AC;}
	.st7{fill:#FFCA28;}
	.st8{fill:#37474F;}
</style>
<g>
	<g>
		<g>
			<path class="st0" d="M41.171,18.487c-3.584,0-6.5-2.916-6.5-6.5s2.916-6.5,6.5-6.5s6.5,2.916,6.5,6.5
				S44.755,18.487,41.171,18.487z M41.171,6.487c-3.032,0-5.5,2.468-5.5,5.5s2.468,5.5,5.5,5.5s5.5-2.468,5.5-5.5
				S44.203,6.487,41.171,6.487z"/>
		</g>
	</g>
	<g>
		<g>
			<path class="st0" d="M60.75,6.501h-4c-0.276,0-0.5-0.224-0.5-0.5s0.224-0.5,0.5-0.5h4c0.276,0,0.5,0.224,0.5,0.5
				S61.026,6.501,60.75,6.501z"/>
		</g>
	</g>
	<g>
		<g>
			<path class="st0" d="M58.75,8.501c-0.276,0-0.5-0.224-0.5-0.5v-4c0-0.276,0.224-0.5,0.5-0.5s0.5,0.224,0.5,0.5v4
				C59.25,8.277,59.026,8.501,58.75,8.501z"/>
		</g>
	</g>
	<g>
		<g>
			<path class="st0" d="M56.75,12.001h-4c-0.276,0-0.5-0.224-0.5-0.5s0.224-0.5,0.5-0.5h4c0.276,0,0.5,0.224,0.5,0.5
				S57.026,12.001,56.75,12.001z"/>
		</g>
	</g>
	<g>
		<g>
			<path class="st0" d="M54.75,14.001c-0.276,0-0.5-0.224-0.5-0.5v-4c0-0.276,0.224-0.5,0.5-0.5s0.5,0.224,0.5,0.5v4
				C55.25,13.777,55.026,14.001,54.75,14.001z"/>
		</g>
	</g>
	<g>
		<g>
			<path class="st0" d="M18.75,11.487H7.25c-0.276,0-0.5-0.224-0.5-0.5s0.224-0.5,0.5-0.5h11.5c0.276,0,0.5,0.224,0.5,0.5
				S19.026,11.487,18.75,11.487z"/>
		</g>
	</g>
	<g>
		<g>
			<path class="st0" d="M5.25,11.487h-2c-0.276,0-0.5-0.224-0.5-0.5s0.224-0.5,0.5-0.5h2c0.276,0,0.5,0.224,0.5,0.5
				S5.526,11.487,5.25,11.487z"/>
		</g>
	</g>
	<g>
		<g>
			<path class="st0" d="M60.75,50.487h-11.5c-0.276,0-0.5-0.224-0.5-0.5s0.224-0.5,0.5-0.5h11.5c0.276,0,0.5,0.224,0.5,0.5
				S61.026,50.487,60.75,50.487z"/>
		</g>
	</g>
	<g>
		<g>
			<path class="st0" d="M47.25,50.487h-2c-0.276,0-0.5-0.224-0.5-0.5s0.224-0.5,0.5-0.5h2c0.276,0,0.5,0.224,0.5,0.5
				S47.526,50.487,47.25,50.487z"/>
		</g>
	</g>
	<g>
		<g>
			<path class="st0" d="M15.606,29.628c-0.583,0-1.173-0.169-1.689-0.522c0,0,0,0,0-0.001c-1.365-0.934-1.716-2.805-0.782-4.17
				l5.088-7.437c0.56-0.817,1.485-1.306,2.477-1.306h11c1.654,0,3,1.346,3,3s-1.346,3-3,3h-9.417l-4.194,6.13
				C17.507,29.171,16.564,29.628,15.606,29.628z M14.481,28.28c0.441,0.3,0.975,0.414,1.498,0.314
				c0.525-0.099,0.981-0.396,1.282-0.837l4.344-6.348c0.094-0.137,0.248-0.218,0.413-0.218h9.681c1.103,0,2-0.897,2-2s-0.897-2-2-2
				h-11c-0.661,0-1.278,0.325-1.65,0.87l-5.088,7.437C13.338,26.409,13.572,27.657,14.481,28.28L14.481,28.28z"/>
		</g>
	</g>
	<g>
		<g>
			<path class="st2" d="M37.803,16.995c-1.901-1.267-4.264-1.305-6.15-0.303H31.7c1.381,0,2.5,1.119,2.5,2.5
				c0,1.381-1.119,2.5-2.5,2.5h-4.239l-9.53,14.295h14.422l7.115-10.672C41.306,22.558,40.56,18.833,37.803,16.995z"/>
		</g>
		<g>
			<path class="st0" d="M32.353,36.487H17.931c-0.185,0-0.354-0.102-0.44-0.264c-0.088-0.163-0.078-0.36,0.024-0.514l9.53-14.295
				c0.093-0.139,0.249-0.223,0.416-0.223h4.238c1.103,0,2-0.897,2-2s-0.897-2-2-2c-0.229,0-0.452-0.156-0.508-0.379
				s0.024-0.455,0.228-0.562c2.115-1.125,4.669-1.001,6.661,0.328c1.445,0.963,2.428,2.431,2.769,4.134
				c0.341,1.702-0.002,3.436-0.966,4.88l-7.114,10.672C32.676,36.403,32.52,36.487,32.353,36.487z M18.865,35.487h13.22
				l6.966-10.449c0.815-1.223,1.105-2.688,0.817-4.129c-0.288-1.441-1.12-2.684-2.343-3.498l0,0
				c-1.278-0.853-2.829-1.119-4.284-0.783c0.879,0.526,1.458,1.479,1.458,2.564c0,1.654-1.346,3-3,3h-3.971L18.865,35.487z"/>
		</g>
	</g>
	<g>
		<g>
			<path class="st0" d="M49.246,31.908h-6.584c-1.298,0-2.56-0.462-3.552-1.301l-2.072-1.752c-0.193-0.164-0.233-0.447-0.093-0.659
				l2.105-3.158c0.212-0.317,0.392-0.662,0.535-1.023c0.06-0.149,0.188-0.262,0.344-0.301c0.156-0.037,0.321-0.001,0.444,0.104
				l2.471,2.09l6.401,0.001c1.654,0,3,1.346,3,3S50.9,31.908,49.246,31.908z M38.024,28.38l1.732,1.464
				c0.812,0.687,1.844,1.064,2.905,1.064h6.584c1.103,0,2-0.897,2-2s-0.897-2-2-2l0,0l-6.584-0.001
				c-0.118,0-0.232-0.042-0.323-0.118l-2.108-1.783c-0.106,0.202-0.222,0.398-0.348,0.587L38.024,28.38z"/>
		</g>
	</g>
	<g>
		<g>
			<path class="st0" d="M30.141,55.975c-0.821,0-1.621-0.252-2.306-0.736l0,0c-1.788-1.266-2.227-3.759-0.978-5.559l4.304-6.193
				H17.923c-1.127,0-2.117-0.594-2.647-1.589c-0.53-0.994-0.472-2.146,0.156-3.081l2.084-3.108c0.093-0.139,0.248-0.222,0.415-0.222
				h18.096c2.091,0,3.915,1.107,4.88,2.963c0.965,1.854,0.824,3.983-0.377,5.695l-7.1,10.123c-0.616,0.879-1.538,1.463-2.595,1.646
				C30.603,55.955,30.371,55.975,30.141,55.975z M28.413,54.422c0.656,0.465,1.457,0.643,2.25,0.508
				c0.794-0.139,1.485-0.577,1.948-1.236l7.1-10.123c0.982-1.4,1.098-3.143,0.309-4.66c-0.79-1.518-2.282-2.424-3.993-2.424H18.197
				l-1.936,2.887c-0.418,0.624-0.457,1.392-0.104,2.055s1.013,1.059,1.765,1.059h14.194c0.187,0,0.356,0.104,0.443,0.269
				c0.086,0.165,0.073,0.364-0.033,0.517l-4.849,6.979C26.741,51.601,27.07,53.472,28.413,54.422L28.413,54.422z"/>
		</g>
	</g>
	<g>
		<g>
			<path class="st0" d="M8.022,60.501c-0.914,0-1.811-0.318-2.521-0.907c-1.59-1.317-1.902-3.59-0.728-5.287l8.585-12.393
				c0.158-0.227,0.47-0.281,0.696-0.126c0.227,0.157,0.283,0.469,0.126,0.696L5.597,54.877C4.72,56.144,4.953,57.84,6.14,58.824
				c0.641,0.53,1.447,0.76,2.274,0.65c0.824-0.112,1.541-0.549,2.019-1.23L19.921,44.7c0.157-0.227,0.47-0.281,0.696-0.122
				c0.226,0.158,0.281,0.47,0.122,0.696l-9.488,13.544c-0.629,0.899-1.614,1.5-2.702,1.646C8.373,60.489,8.197,60.501,8.022,60.501z
				"/>
		</g>
	</g>
</g>
</svg>
