<?xml version="1.0" encoding="utf-8"?>
<!-- Generator: Adobe Illustrator 22.0.0, SVG Export Plug-In . SVG Version: 6.00 Build 0)  -->
<svg version="1.1" id="Layer_1" xmlns="http://www.w3.org/2000/svg" xmlns:xlink="http://www.w3.org/1999/xlink" x="0px" y="0px"
	 viewBox="0 0 64 64" style="enable-background:new 0 0 64 64;" xml:space="preserve">
<style type="text/css">
	.st0{fill:#263238;}
	.st1{fill:#FFD740;}
	.st2{fill:#40C4FF;}
	.st3{fill:#FF5252;}
	.st4{fill:#4FC3F7;}
	.st5{fill:#FFFFFF;}
	.st6{fill:#4DB6AC;}
	.st7{fill:#FFCA28;}
	.st8{fill:#37474F;}
</style>
<g>
	<g>
		<g>
			<path class="st3" d="M29.921,26.411l-1.42,1.42l-1.418-1.419c-1.734-1.735-4.546-1.736-6.281-0.001l-0.001,0.001
				c-1.734,1.734-1.734,4.546,0,6.28l7.699,7.699l7.699-7.699c1.734-1.734,1.734-4.546,0-6.28l0,0
				C34.466,24.677,31.655,24.677,29.921,26.411z"/>
		</g>
		<g>
			<path class="st0" d="M28.5,40.891c-0.133,0-0.26-0.053-0.354-0.146l-7.699-7.7C19.515,32.111,19,30.871,19,29.551
				s0.514-2.561,1.447-3.494c0.934-0.933,2.174-1.447,3.494-1.447c0,0,0,0,0.001,0c1.32,0,2.561,0.515,3.494,1.448l1.064,1.065
				l1.066-1.066c1.926-1.926,5.061-1.926,6.986,0c1.926,1.927,1.926,5.061,0,6.987l-7.7,7.7C28.76,40.838,28.633,40.891,28.5,40.891
				z M23.942,25.61c-1.053,0-2.042,0.41-2.787,1.154C20.411,27.509,20,28.499,20,29.551c0,1.052,0.41,2.042,1.154,2.786l7.346,7.346
				l7.346-7.346c1.536-1.536,1.536-4.036,0-5.573c-1.536-1.536-4.036-1.535-5.572,0l0,0l-1.42,1.42
				c-0.094,0.094-0.221,0.146-0.354,0.146l0,0c-0.133,0-0.26-0.053-0.354-0.146l-1.417-1.419
				C25.985,26.021,24.996,25.61,23.942,25.61C23.942,25.61,23.942,25.61,23.942,25.61z M29.921,26.411h0.01H29.921z"/>
		</g>
	</g>
	<g>
		<g>
			<path class="st0" d="M5.5,34.75c-0.276,0-0.5-0.224-0.5-0.5v-3c0-0.276,0.224-0.5,0.5-0.5S6,30.974,6,31.25v3
				C6,34.526,5.777,34.75,5.5,34.75z"/>
		</g>
	</g>
	<g>
		<g>
			<path class="st0" d="M5.5,44.75c-0.276,0-0.5-0.224-0.5-0.5v-3c0-0.276,0.224-0.5,0.5-0.5S6,40.974,6,41.25v3
				C6,44.526,5.777,44.75,5.5,44.75z"/>
		</g>
	</g>
	<g>
		<g>
			<path class="st0" d="M5.5,24.75c-0.276,0-0.5-0.224-0.5-0.5v-3c0-0.276,0.224-0.5,0.5-0.5S6,20.974,6,21.25v3
				C6,24.526,5.777,24.75,5.5,24.75z"/>
		</g>
	</g>
	<g>
		<g>
			<path class="st0" d="M52,40.25c-0.276,0-0.5-0.224-0.5-0.5v-28c0-1.103-0.897-2-2-2H8c-1.103,0-2,0.897-2,2v2.5
				c0,0.276-0.224,0.5-0.5,0.5S5,14.526,5,14.25v-2.5c0-1.654,1.346-3,3-3h41.5c1.654,0,3,1.346,3,3v28
				C52.5,40.026,52.277,40.25,52,40.25z"/>
		</g>
	</g>
	<g>
		<g>
			<path class="st1" d="M32,58.25v-6.5H15l5,5l-5,5h20.5C33.567,61.75,32,60.183,32,58.25z"/>
		</g>
		<g>
			<path class="st0" d="M35.5,62.25H15c-0.202,0-0.385-0.122-0.462-0.309c-0.078-0.187-0.035-0.402,0.108-0.545l4.646-4.646
				l-4.646-4.646c-0.143-0.143-0.186-0.358-0.108-0.545c0.077-0.187,0.26-0.309,0.462-0.309h17c0.276,0,0.5,0.224,0.5,0.5v6.5
				c0,1.654,1.346,3,3,3c0.276,0,0.5,0.224,0.5,0.5S35.777,62.25,35.5,62.25z M16.208,61.25h16.65c-0.832-0.733-1.357-1.807-1.357-3
				v-6H16.208l4.146,4.146c0.195,0.195,0.195,0.512,0,0.707L16.208,61.25z"/>
		</g>
	</g>
	<g>
		<g>
			<polyline class="st5" points="32,55.25 18.5,55.25 20,56.75 18.5,58.25 32,58.25 			"/>
		</g>
		<g>
			<path class="st0" d="M32,58.75H18.5c-0.202,0-0.385-0.122-0.462-0.309c-0.078-0.187-0.035-0.402,0.108-0.545l1.146-1.146
				l-1.146-1.146c-0.143-0.143-0.186-0.358-0.108-0.545c0.077-0.187,0.26-0.309,0.462-0.309H32c0.276,0,0.5,0.224,0.5,0.5
				s-0.224,0.5-0.5,0.5H19.708l0.646,0.646c0.195,0.195,0.195,0.512,0,0.707l-0.646,0.646H32c0.276,0,0.5,0.224,0.5,0.5
				S32.277,58.75,32,58.75z"/>
		</g>
	</g>
	<g>
		<g>
			<path class="st0" d="M7.5,19.75h-4c-1.103,0-2-0.897-2-2s0.897-2,2-2h4c1.103,0,2,0.897,2,2S8.604,19.75,7.5,19.75z M3.5,16.75
				c-0.551,0-1,0.449-1,1s0.449,1,1,1h4c0.551,0,1-0.449,1-1s-0.449-1-1-1H3.5z"/>
		</g>
	</g>
	<g>
		<g>
			<path class="st0" d="M7.5,29.75h-4c-1.103,0-2-0.897-2-2s0.897-2,2-2h4c1.103,0,2,0.897,2,2S8.604,29.75,7.5,29.75z M3.5,26.75
				c-0.551,0-1,0.449-1,1s0.449,1,1,1h4c0.551,0,1-0.449,1-1s-0.449-1-1-1H3.5z"/>
		</g>
	</g>
	<g>
		<g>
			<path class="st0" d="M7.5,39.75h-4c-1.103,0-2-0.897-2-2s0.897-2,2-2h4c1.103,0,2,0.897,2,2S8.604,39.75,7.5,39.75z M3.5,36.75
				c-0.551,0-1,0.449-1,1s0.449,1,1,1h4c0.551,0,1-0.449,1-1s-0.449-1-1-1H3.5z"/>
		</g>
	</g>
	<g>
		<g>
			<path class="st0" d="M7.5,49.75h-4c-1.103,0-2-0.897-2-2s0.897-2,2-2h4c1.103,0,2,0.897,2,2S8.604,49.75,7.5,49.75z M3.5,46.75
				c-0.551,0-1,0.449-1,1s0.449,1,1,1h4c0.551,0,1-0.449,1-1s-0.449-1-1-1H3.5z"/>
		</g>
	</g>
	<g>
		<g>
			<path class="st0" d="M58.006,62.249c-1.767,0-3.447-1.047-4.164-2.778c-0.46-1.111-0.46-2.334,0-3.444s1.325-1.975,2.436-2.435
				s2.334-0.46,3.444,0s1.975,1.325,2.435,2.435l0,0c0.46,1.11,0.46,2.333,0,3.444c-0.46,1.11-1.325,1.976-2.436,2.436
				C59.161,62.139,58.579,62.249,58.006,62.249z M58,54.248c-0.454,0-0.908,0.089-1.339,0.268c-1.783,0.738-2.633,2.79-1.895,4.573
				s2.79,2.632,4.573,1.895c0.864-0.358,1.537-1.031,1.894-1.895c0.358-0.864,0.358-1.815,0-2.679l0,0
				c-0.358-0.864-1.03-1.537-1.894-1.894C58.907,54.337,58.453,54.248,58,54.248z"/>
		</g>
	</g>
	<g>
		<g>
			<path class="st0" d="M54.304,59.78c-0.196,0-0.382-0.116-0.462-0.309c-0.001-0.002-0.001-0.004-0.002-0.006l-7.269-17.548
				c-0.358-0.864-0.357-1.815,0-2.679c0.358-0.864,1.03-1.537,1.894-1.894c0.255-0.104,0.548,0.016,0.653,0.271l6.942,16.76
				c0.087,0.21,0.021,0.454-0.161,0.591c-1.273,0.96-1.74,2.652-1.137,4.117l0.002,0.005c0.105,0.255-0.016,0.548-0.271,0.653
				C54.433,59.768,54.368,59.78,54.304,59.78z M48.405,38.506c-0.404,0.271-0.72,0.655-0.91,1.115c-0.255,0.617-0.255,1.297,0,1.914
				l6.193,14.951c0.232-0.781,0.676-1.501,1.308-2.069L48.405,38.506z"/>
		</g>
	</g>
	<g>
		<g>
			<path class="st0" d="M46.002,62.251c-0.583,0-1.167-0.115-1.722-0.345c-2.292-0.95-3.385-3.587-2.436-5.88l0,0
				c0.95-2.293,3.588-3.383,5.88-2.435c2.292,0.949,3.384,3.587,2.435,5.879c-0.46,1.11-1.325,1.976-2.435,2.436
				C47.169,62.137,46.585,62.251,46.002,62.251z M42.768,56.41c-0.738,1.783,0.111,3.834,1.895,4.573
				c1.785,0.739,3.835-0.111,4.573-1.895c0.738-1.783-0.111-3.834-1.894-4.573C45.56,53.778,43.506,54.626,42.768,56.41
				L42.768,56.41z"/>
		</g>
	</g>
	<g>
		<g>
			<path class="st0" d="M49.697,59.78c-0.064,0-0.129-0.012-0.191-0.038c-0.255-0.105-0.376-0.398-0.271-0.653l0.001-0.003
				c0.605-1.465,0.139-3.159-1.135-4.119c-0.182-0.137-0.248-0.38-0.161-0.591l1.975-4.768c0.154-0.374,0.77-0.374,0.924,0
				l1.624,3.92c0.051,0.123,0.051,0.26,0,0.383l-2.3,5.552c-0.001,0.002-0.002,0.005-0.003,0.008l0,0
				C50.08,59.664,49.893,59.78,49.697,59.78z M49.006,54.417c0.631,0.567,1.076,1.288,1.308,2.069l1.146-2.767l-1.083-2.613
				L49.006,54.417z"/>
		</g>
	</g>
	<g>
		<g>
			<path class="st0" d="M53.624,50.299c-0.202,0-0.385-0.122-0.462-0.309l-1.624-3.919c-0.051-0.123-0.051-0.26,0-0.383l3.344-8.073
				c0.106-0.255,0.4-0.375,0.653-0.271c0.864,0.357,1.537,1.03,1.894,1.894c0.358,0.864,0.358,1.815,0,2.679l-3.344,8.073
				C54.009,50.178,53.826,50.299,53.624,50.299z M52.542,45.88l1.083,2.613l2.882-6.958c0.256-0.617,0.256-1.296,0-1.913
				c-0.19-0.46-0.506-0.844-0.91-1.116L52.542,45.88z"/>
		</g>
	</g>
	<g>
		<g>
			<path class="st0" d="M17,57.25H8c-1.654,0-3-1.346-3-3v-2.5c0-0.276,0.224-0.5,0.5-0.5S6,51.474,6,51.75v2.5c0,1.103,0.897,2,2,2
				h9c0.276,0,0.5,0.224,0.5,0.5S17.277,57.25,17,57.25z"/>
		</g>
	</g>
	<g>
		<g>
			<path class="st0" d="M49,22.75c-0.276,0-0.5-0.224-0.5-0.5v-9c0-0.276-0.224-0.5-0.5-0.5h-9c-0.276,0-0.5-0.224-0.5-0.5
				s0.224-0.5,0.5-0.5h9c0.827,0,1.5,0.673,1.5,1.5v9C49.5,22.526,49.277,22.75,49,22.75z"/>
		</g>
	</g>
	<g>
		<g>
			<path class="st0" d="M54,4.75h-4c-0.276,0-0.5-0.224-0.5-0.5s0.224-0.5,0.5-0.5h4c0.276,0,0.5,0.224,0.5,0.5S54.277,4.75,54,4.75
				z"/>
		</g>
	</g>
	<g>
		<g>
			<path class="st0" d="M59,9.75h-4c-0.276,0-0.5-0.224-0.5-0.5s0.224-0.5,0.5-0.5h4c0.276,0,0.5,0.224,0.5,0.5S59.277,9.75,59,9.75
				z"/>
		</g>
	</g>
	<g>
		<g>
			<path class="st0" d="M57,11.75c-0.276,0-0.5-0.224-0.5-0.5v-4c0-0.276,0.224-0.5,0.5-0.5s0.5,0.224,0.5,0.5v4
				C57.5,11.526,57.277,11.75,57,11.75z"/>
		</g>
	</g>
	<g>
		<g>
			<path class="st0" d="M52,6.75c-0.276,0-0.5-0.224-0.5-0.5v-4c0-0.276,0.224-0.5,0.5-0.5s0.5,0.224,0.5,0.5v4
				C52.5,6.526,52.277,6.75,52,6.75z"/>
		</g>
	</g>
	<g>
		<g>
			<path class="st0" d="M35.5,62.25c-2.206,0-4-1.794-4-4s1.794-4,4-4s4,1.794,4,4S37.706,62.25,35.5,62.25z M35.5,55.25
				c-1.654,0-3,1.346-3,3s1.346,3,3,3s3-1.346,3-3S37.155,55.25,35.5,55.25z"/>
		</g>
	</g>
	<g>
		<g>
			<path class="st0" d="M35.5,60.25c-1.103,0-2-0.897-2-2s0.897-2,2-2s2,0.897,2,2S36.604,60.25,35.5,60.25z M35.5,57.25
				c-0.551,0-1,0.449-1,1s0.449,1,1,1s1-0.449,1-1S36.052,57.25,35.5,57.25z"/>
		</g>
	</g>
	<g>
		<g>
			<path class="st0" d="M39,58.75c-0.276,0-0.5-0.224-0.5-0.5c0-1.654-1.346-3-3-3s-3,1.346-3,3c0,0.276-0.224,0.5-0.5,0.5
				s-0.5-0.224-0.5-0.5v-6.5c0-2.206,1.794-4,4-4s4,1.794,4,4v6.5C39.5,58.526,39.277,58.75,39,58.75z M35.5,54.25
				c1.193,0,2.267,0.525,3,1.357V51.75c0-1.654-1.346-3-3-3s-3,1.346-3,3v3.857C33.234,54.775,34.307,54.25,35.5,54.25z"/>
		</g>
	</g>
</g>
</svg>
