<?xml version="1.0" encoding="utf-8"?>
<!-- Generator: Adobe Illustrator 22.0.0, SVG Export Plug-In . SVG Version: 6.00 Build 0)  -->
<svg version="1.1" id="Layer_1" xmlns="http://www.w3.org/2000/svg" xmlns:xlink="http://www.w3.org/1999/xlink" x="0px" y="0px"
	 viewBox="0 0 64 64" style="enable-background:new 0 0 64 64;" xml:space="preserve">
<style type="text/css">
	.st0{fill:#263238;}
	.st1{fill:#FFD740;}
	.st2{fill:#40C4FF;}
	.st3{fill:#FF5252;}
	.st4{fill:#4FC3F7;}
	.st5{fill:#FFFFFF;}
	.st6{fill:#4DB6AC;}
	.st7{fill:#FFCA28;}
	.st8{fill:#37474F;}
</style>
<g>
	<g>
		<g>
			<path class="st0" d="M12.5,25.75h-2c-0.276,0-0.5-0.224-0.5-0.5s0.224-0.5,0.5-0.5h2c0.276,0,0.5,0.224,0.5,0.5
				S12.776,25.75,12.5,25.75z"/>
		</g>
	</g>
	<g>
		<g>
			<path class="st0" d="M8.5,25.75H1c-0.276,0-0.5-0.224-0.5-0.5s0.224-0.5,0.5-0.5h7.5c0.276,0,0.5,0.224,0.5,0.5
				S8.776,25.75,8.5,25.75z"/>
		</g>
	</g>
	<g>
		<g>
			<path class="st0" d="M63,41.75h-2c-0.276,0-0.5-0.224-0.5-0.5s0.224-0.5,0.5-0.5h2c0.276,0,0.5,0.224,0.5,0.5
				S63.276,41.75,63,41.75z"/>
		</g>
	</g>
	<g>
		<g>
			<path class="st0" d="M59,41.75h-7.5c-0.276,0-0.5-0.224-0.5-0.5s0.224-0.5,0.5-0.5H59c0.276,0,0.5,0.224,0.5,0.5
				S59.276,41.75,59,41.75z"/>
		</g>
	</g>
	<g>
		<g>
			<path class="st0" d="M48.5,17.75c-1.103,0-2-0.897-2-2s0.897-2,2-2s2,0.897,2,2S49.603,17.75,48.5,17.75z M48.5,14.75
				c-0.551,0-1,0.449-1,1s0.449,1,1,1s1-0.449,1-1S49.051,14.75,48.5,14.75z"/>
		</g>
	</g>
	<g>
		<g>
			<path class="st0" d="M51.5,10.25c-1.378,0-2.5-1.122-2.5-2.5s1.122-2.5,2.5-2.5S54,6.372,54,7.75S52.878,10.25,51.5,10.25z
				 M51.5,6.25c-0.827,0-1.5,0.673-1.5,1.5s0.673,1.5,1.5,1.5S53,8.577,53,7.75S52.327,6.25,51.5,6.25z"/>
		</g>
	</g>
	<g>
		<g>
			<path class="st0" d="M5.5,19.25c-3.612,0-4.912-3.181-4.965-3.316c-0.047-0.118-0.047-0.25,0-0.368
				C0.588,15.431,1.888,12.25,5.5,12.25s4.912,3.181,4.965,3.316c0.047,0.118,0.047,0.25,0,0.368
				C10.412,16.069,9.112,19.25,5.5,19.25z M1.55,15.75c0.305,0.612,1.449,2.5,3.95,2.5s3.646-1.888,3.95-2.5
				c-0.305-0.612-1.449-2.5-3.95-2.5S1.854,15.138,1.55,15.75z"/>
		</g>
	</g>
	<g>
		<g>
			<path class="st0" d="M14,18.75c-0.092,0-0.184-0.025-0.265-0.076l-4-2.5C9.589,16.083,9.5,15.922,9.5,15.75
				s0.089-0.333,0.235-0.424l4-2.5c0.177-0.11,0.402-0.1,0.568,0.026c0.166,0.126,0.235,0.342,0.176,0.541l-0.707,2.356l0.707,2.356
				c0.06,0.199-0.01,0.415-0.176,0.541C14.214,18.715,14.107,18.75,14,18.75z M10.943,15.75l2.196,1.373l-0.369-1.229
				c-0.028-0.094-0.028-0.193,0-0.287l0.369-1.229L10.943,15.75z"/>
		</g>
	</g>
	<g>
		<g>
			<path class="st0" d="M50,58.75c-0.276,0-0.5-0.224-0.5-0.5v-9.555c0-2.42-1.284-4.708-3.352-5.971
				c-0.235-0.144-0.31-0.452-0.166-0.688c0.144-0.236,0.451-0.31,0.688-0.166c2.362,1.443,3.83,4.058,3.83,6.824v9.555
				C50.5,58.526,50.276,58.75,50,58.75z"/>
		</g>
	</g>
	<g>
		<g>
			<path class="st0" d="M14,58.75c-0.276,0-0.5-0.224-0.5-0.5v-9.555c0-3.205,1.903-6.091,4.849-7.353L27.5,37.42v-1.431
				c0-0.276,0.224-0.5,0.5-0.5s0.5,0.224,0.5,0.5v1.761c0,0.2-0.119,0.381-0.303,0.459l-9.455,4.052
				c-2.577,1.104-4.242,3.63-4.242,6.434v9.555C14.5,58.526,14.276,58.75,14,58.75z"/>
		</g>
	</g>
	<g>
		<g>
			<path class="st0" d="M28.801,36.761c-0.048,0-0.097-0.007-0.146-0.021c-3.79-1.152-6.725-4.192-7.75-7.991
				C19.294,28.698,18,27.373,18,25.75s1.294-2.948,2.905-2.999C22.254,17.725,26.756,14.25,32,14.25
				c5.387,0,9.992,3.667,11.199,8.917c0.008,0.037,0.013,0.074,0.013,0.112v4.942c0,0.038-0.004,0.075-0.013,0.112
				c-0.835,3.633-3.398,6.646-6.856,8.059c-0.255,0.104-0.548-0.019-0.652-0.274c-0.104-0.255,0.018-0.547,0.274-0.652
				c3.139-1.283,5.471-4.01,6.247-7.302v-4.827C41.09,18.572,36.899,15.25,32,15.25c-4.917,0-9.122,3.348-10.224,8.141
				c-0.057,0.248-0.285,0.416-0.543,0.385c-0.14-0.018-0.186-0.026-0.233-0.026c-1.103,0-2,0.897-2,2s0.897,2,2,2
				c0.048,0,0.095-0.008,0.142-0.014c0.262-0.035,0.577,0.121,0.635,0.373c0.837,3.644,3.585,6.584,7.17,7.674
				c0.264,0.081,0.413,0.36,0.333,0.624C29.213,36.623,29.015,36.761,28.801,36.761z"/>
		</g>
	</g>
	<g>
		<g>
			<path class="st1" d="M22,24.75h-0.5v-6.5h3v4C24.5,23.631,23.381,24.75,22,24.75z"/>
		</g>
		<g>
			<path class="st0" d="M22,25.25h-0.5c-0.276,0-0.5-0.224-0.5-0.5v-6.5c0-0.276,0.224-0.5,0.5-0.5h3c0.276,0,0.5,0.224,0.5,0.5v4
				C25,23.904,23.654,25.25,22,25.25z M22,24.25h0.01H22z M22,18.75v5.5c1.103,0,2-0.897,2-2v-3.5H22z"/>
		</g>
	</g>
	<g>
		<g>
			<path class="st1" d="M39.5,18.199v4.05c0,1.381,1.119,2.5,2.5,2.5h0.5v-7.935C41.711,17.589,40.662,18.082,39.5,18.199z"/>
		</g>
		<g>
			<path class="st0" d="M42.5,25.25H42c-1.654,0-3-1.346-3-3V18.2c0-0.257,0.194-0.472,0.45-0.498c1.03-0.104,1.989-0.545,2.7-1.244
				c0.144-0.141,0.359-0.182,0.543-0.104C42.879,16.432,43,16.614,43,16.815v7.935C43,25.026,42.776,25.25,42.5,25.25z M40,18.633
				v3.617c0,1.103,0.897,2,2,2v-6.401C41.399,18.234,40.718,18.502,40,18.633z"/>
		</g>
	</g>
	<g>
		<g>
			<path class="st1" d="M39,18.25H21.5v0c0-4.142,3.358-7.5,7.5-7.5h5.205c2.171,0,4.315-0.471,6.286-1.381L44,7.75v5.5
				C44,16.011,41.762,18.25,39,18.25z"/>
		</g>
		<g>
			<path class="st0" d="M39,18.75H21.5c-0.133,0-0.26-0.053-0.354-0.146S21,18.382,21,18.25c0-4.411,3.589-8,8-8h5.205
				c2.083,0,4.185-0.461,6.077-1.335l3.508-1.619c0.155-0.072,0.335-0.059,0.479,0.033C44.413,7.421,44.5,7.58,44.5,7.75v5.5
				C44.5,16.283,42.033,18.75,39,18.75z M22.018,17.75H39c2.481,0,4.5-2.019,4.5-4.5V8.531l-2.799,1.292
				c-2.022,0.933-4.269,1.427-6.496,1.427H29C25.309,11.25,22.275,14.123,22.018,17.75z"/>
		</g>
	</g>
	<g>
		<g>
			<path class="st2" d="M20.5,24.25v4c0,1.381,1.119,2.5,2.5,2.5h5.243c0.494,0,0.976-0.146,1.387-0.42l0.983-0.656
				c0.84-0.56,1.934-0.56,2.774,0l0.983,0.656c0.411,0.274,0.893,0.42,1.387,0.42H41c1.381,0,2.5-1.119,2.5-2.5v-4
				c0-1.381-1.119-2.5-2.5-2.5H23C21.62,21.75,20.5,22.869,20.5,24.25z"/>
		</g>
		<g>
			<path class="st0" d="M41,31.25h-5.243c-0.594,0-1.17-0.174-1.664-0.504L33.11,30.09c-0.674-0.45-1.546-0.449-2.219,0
				l-0.983,0.656c-0.494,0.33-1.07,0.504-1.664,0.504H23c-1.654,0-3-1.346-3-3v-4c0-1.654,1.346-3,3-3h18c1.654,0,3,1.346,3,3v4
				C44,29.904,42.654,31.25,41,31.25z M32,28.753c0.579,0,1.159,0.168,1.664,0.505l0.983,0.656c0.33,0.22,0.713,0.336,1.109,0.336
				H41c1.103,0,2-0.897,2-2v-4c0-1.103-0.897-2-2-2H23c-1.103,0-2,0.897-2,2v4c0,1.103,0.897,2,2,2h5.243
				c0.396,0,0.78-0.116,1.109-0.336l0.983-0.656C30.841,28.921,31.421,28.753,32,28.753z"/>
		</g>
	</g>
	<g>
		<g>
			<path class="st0" d="M40,27.25c-0.276,0-0.5-0.224-0.5-0.5v-2c0-0.276-0.224-0.5-0.5-0.5h-2c-0.276,0-0.5-0.224-0.5-0.5
				s0.224-0.5,0.5-0.5h2c0.827,0,1.5,0.673,1.5,1.5v2C40.5,27.026,40.276,27.25,40,27.25z"/>
		</g>
	</g>
	<g>
		<g>
			<path class="st0" d="M39.509,43.25c-0.218,0-0.437-0.007-0.657-0.022l0,0C33.888,42.896,30,38.593,30,33.432V33.25
				c0-1.103,0.897-2,2-2s2,0.897,2,2v0.292c0,2.878,2.052,5.312,4.773,5.661c1.605,0.206,3.151-0.264,4.355-1.324
				C44.318,36.833,45,35.328,45,33.75v-11.5c0-0.276,0.224-0.5,0.5-0.5h3c0.276,0,0.5,0.224,0.5,0.5v11.5
				c0,2.616-1.099,5.145-3.016,6.938C44.203,42.353,41.925,43.25,39.509,43.25z M38.918,42.23c2.383,0.157,4.646-0.648,6.383-2.273
				C47.017,38.353,48,36.09,48,33.75v-11h-2v11c0,1.865-0.806,3.644-2.211,4.88c-1.403,1.234-3.277,1.803-5.143,1.565
				C35.427,39.782,33,36.922,33,33.542V33.25c0-0.551-0.448-1-1-1c-0.552,0-1,0.449-1,1v0.182C31,38.069,34.478,41.934,38.918,42.23
				L38.918,42.23z"/>
		</g>
	</g>
	<g>
		<g>
			<path class="st0" d="M30.515,34.251c-0.105,0-0.21-0.033-0.298-0.099C29.443,33.577,29,32.702,29,31.75c0-1.654,1.346-3,3-3
				s3,1.346,3,3c0,0.931-0.43,1.795-1.179,2.372c-0.149,0.114-0.349,0.135-0.519,0.056c-0.169-0.081-0.28-0.249-0.286-0.437
				C33.005,33.651,33,33.598,33,33.542V33.25c0-0.551-0.449-1-1-1s-1,0.449-1,1v0.182c0,0.052,0.004,0.104,0.007,0.155l0.008,0.148
				c0.006,0.192-0.098,0.37-0.268,0.459C30.674,34.232,30.594,34.251,30.515,34.251z M32,29.75c-1.103,0-2,0.897-2,2
				c0,0.261,0.051,0.514,0.146,0.749c0.298-0.731,1.017-1.249,1.854-1.249c0.836,0,1.555,0.516,1.853,1.247
				C33.949,32.263,34,32.01,34,31.75C34,30.647,33.103,29.75,32,29.75z"/>
		</g>
	</g>
	<g>
		<g>
			<path class="st0" d="M22,58.75c-0.276,0-0.5-0.224-0.5-0.5v-6.5c0-0.276,0.224-0.5,0.5-0.5s0.5,0.224,0.5,0.5v6.5
				C22.5,58.526,22.276,58.75,22,58.75z"/>
		</g>
	</g>
	<g>
		<g>
			<path class="st0" d="M42,58.75c-0.276,0-0.5-0.224-0.5-0.5v-6.5c0-0.276,0.224-0.5,0.5-0.5s0.5,0.224,0.5,0.5v6.5
				C42.5,58.526,42.276,58.75,42,58.75z"/>
		</g>
	</g>
</g>
</svg>
