<?xml version="1.0" encoding="utf-8"?>
<!-- Generator: Adobe Illustrator 22.0.0, SVG Export Plug-In . SVG Version: 6.00 Build 0)  -->
<svg version="1.1" id="Layer_1" xmlns="http://www.w3.org/2000/svg" xmlns:xlink="http://www.w3.org/1999/xlink" x="0px" y="0px"
	 viewBox="0 0 64 64" style="enable-background:new 0 0 64 64;" xml:space="preserve">
<style type="text/css">
	.st0{fill:#263238;}
	.st1{fill:#FFD740;}
	.st2{fill:#40C4FF;}
	.st3{fill:#FF5252;}
	.st4{fill:#4FC3F7;}
	.st5{fill:#FFFFFF;}
	.st6{fill:#4DB6AC;}
	.st7{fill:#FFCA28;}
	.st8{fill:#37474F;}
</style>
<g>
	<g>
		<g>
			<path class="st0" d="M61,12.5h-4c-0.276,0-0.5-0.224-0.5-0.5s0.224-0.5,0.5-0.5h4c0.276,0,0.5,0.224,0.5,0.5S61.276,12.5,61,12.5
				z"/>
		</g>
	</g>
	<g>
		<g>
			<path class="st0" d="M56,6.5h-4c-0.276,0-0.5-0.224-0.5-0.5s0.224-0.5,0.5-0.5h4c0.276,0,0.5,0.224,0.5,0.5S56.276,6.5,56,6.5z"
				/>
		</g>
	</g>
	<g>
		<g>
			<path class="st0" d="M54,8.5c-0.276,0-0.5-0.224-0.5-0.5V4c0-0.276,0.224-0.5,0.5-0.5s0.5,0.224,0.5,0.5v4
				C54.5,8.276,54.276,8.5,54,8.5z"/>
		</g>
	</g>
	<g>
		<g>
			<path class="st0" d="M59,14.5c-0.276,0-0.5-0.224-0.5-0.5v-4c0-0.276,0.224-0.5,0.5-0.5s0.5,0.224,0.5,0.5v4
				C59.5,14.276,59.276,14.5,59,14.5z"/>
		</g>
	</g>
	<g>
		<g>
			<path class="st0" d="M9,58.5H7c-0.276,0-0.5-0.224-0.5-0.5s0.224-0.5,0.5-0.5h2c0.276,0,0.5,0.224,0.5,0.5S9.276,58.5,9,58.5z"/>
		</g>
	</g>
	<g>
		<g>
			<path class="st0" d="M21,58.5H11c-0.276,0-0.5-0.224-0.5-0.5s0.224-0.5,0.5-0.5h10c0.276,0,0.5,0.224,0.5,0.5
				S21.276,58.5,21,58.5z"/>
		</g>
	</g>
	<g>
		<g>
			<path class="st0" d="M57,58.5h-2c-0.276,0-0.5-0.224-0.5-0.5s0.224-0.5,0.5-0.5h2c0.276,0,0.5,0.224,0.5,0.5S57.276,58.5,57,58.5
				z"/>
		</g>
	</g>
	<g>
		<g>
			<path class="st0" d="M53,58.5H43c-0.276,0-0.5-0.224-0.5-0.5s0.224-0.5,0.5-0.5h10c0.276,0,0.5,0.224,0.5,0.5
				S53.276,58.5,53,58.5z"/>
		</g>
	</g>
	<g>
		<g>
			<path class="st0" d="M40,62.5c-0.276,0-0.5-0.224-0.5-0.5v-9c0-0.276,0.224-0.5,0.5-0.5s0.5,0.224,0.5,0.5v9
				C40.5,62.276,40.276,62.5,40,62.5z"/>
		</g>
	</g>
	<g>
		<g>
			<polygon class="st1" points="28.042,23.506 29.809,28.809 24.506,27.042 10.364,12.899 13.899,9.364 			"/>
		</g>
		<g>
			<path class="st0" d="M29.81,29.31c-0.053,0-0.106-0.008-0.158-0.026l-5.304-1.768c-0.074-0.024-0.141-0.066-0.195-0.121
				L10.01,13.253c-0.195-0.195-0.195-0.512,0-0.707l3.536-3.536c0.195-0.195,0.512-0.195,0.707,0l14.142,14.142
				c0.055,0.055,0.096,0.122,0.121,0.195l1.768,5.304c0.06,0.18,0.013,0.378-0.121,0.512C30.068,29.258,29.94,29.31,29.81,29.31z
				 M24.776,26.604l4.243,1.415l-1.415-4.243L13.899,10.071l-2.829,2.829L24.776,26.604z"/>
		</g>
	</g>
	<g>
		<g>
			<path class="st1" d="M17.435,5.828L6.828,16.435c-0.391,0.391-1.024,0.391-1.414,0l-2.121-2.121
				c-0.391-0.391-0.391-1.024,0-1.414L13.899,2.293c0.391-0.391,1.024-0.391,1.414,0l2.121,2.121
				C17.825,4.805,17.825,5.438,17.435,5.828z"/>
		</g>
		<g>
			<path class="st0" d="M6.121,17.228c-0.4,0-0.777-0.156-1.061-0.439l-2.121-2.122C2.656,14.384,2.5,14.007,2.5,13.606
				c0-0.4,0.156-0.777,0.439-1.061L13.546,1.939c0.585-0.585,1.536-0.585,2.121,0l2.122,2.121c0.283,0.283,0.439,0.66,0.439,1.061
				c0,0.401-0.156,0.777-0.439,1.061L7.182,16.789C6.899,17.072,6.522,17.228,6.121,17.228z M14.606,2.5
				c-0.128,0-0.256,0.048-0.354,0.146L3.646,13.253C3.552,13.348,3.5,13.473,3.5,13.606c0,0.134,0.052,0.259,0.146,0.353
				l2.121,2.122c0.19,0.189,0.52,0.189,0.707,0L17.082,5.475c0,0,0,0,0,0c0.095-0.094,0.146-0.219,0.146-0.353
				c0-0.133-0.052-0.259-0.146-0.354L14.96,2.646C14.862,2.549,14.734,2.5,14.606,2.5z"/>
		</g>
	</g>
	<g>
		<g>
			<path class="st0" d="M24,62.5c-0.276,0-0.5-0.224-0.5-0.5l-0.001-14.952l-3.062-2.702c-4.408-3.89-6.937-9.492-6.937-15.372V27
				c0-2.253,0.383-4.503,1.139-6.689c0.09-0.261,0.375-0.398,0.636-0.309c0.261,0.09,0.399,0.375,0.309,0.636
				C14.864,22.718,14.5,24.858,14.5,27v1.975c0,5.592,2.405,10.922,6.598,14.622l3.232,2.852c0.107,0.095,0.169,0.231,0.169,0.375
				L24.5,62C24.5,62.276,24.276,62.5,24,62.5z"/>
		</g>
	</g>
	<g>
		<g>
			<path class="st0" d="M46.5,53.5H35c-0.276,0-0.5-0.224-0.5-0.5s0.224-0.5,0.5-0.5h11.5c3.86,0,7-3.14,7-7V39
				c0-0.276,0.224-0.5,0.5-0.5h2.642c0.764,0,1.429-0.406,1.778-1.085s0.293-1.456-0.151-2.078l-4.676-6.547
				C53.533,28.706,53.5,28.604,53.5,28.5V27c0-10.752-8.748-19.5-19.5-19.5c-5.104,0-9.936,1.968-13.603,5.542
				c-0.197,0.193-0.514,0.189-0.707-0.009c-0.193-0.198-0.189-0.515,0.009-0.707C23.554,8.569,28.633,6.5,34,6.5
				c11.304,0,20.5,9.196,20.5,20.5v1.34l4.583,6.417c0.656,0.918,0.743,2.113,0.227,3.116c-0.517,1.004-1.539,1.627-2.667,1.627
				H54.5v6C54.5,49.911,50.911,53.5,46.5,53.5z"/>
		</g>
	</g>
	<g>
		<g>
			<path class="st0" d="M51,27.5c-0.276,0-0.5-0.224-0.5-0.5c0-9.098-7.402-16.5-16.5-16.5c-0.276,0-0.5-0.224-0.5-0.5
				s0.224-0.5,0.5-0.5c9.649,0,17.5,7.851,17.5,17.5C51.5,27.276,51.276,27.5,51,27.5z"/>
		</g>
	</g>
	<g>
		<g>
			<path class="st0" d="M34,34c-0.276,0-0.5-0.224-0.5-0.5S33.723,33,34,33c2.481,0,4.5-2.019,4.5-4.5S36.481,24,34,24
				c-0.276,0-0.5-0.224-0.5-0.5S33.723,23,34,23c3.033,0,5.5,2.467,5.5,5.5S37.032,34,34,34z"/>
		</g>
	</g>
</g>
</svg>
