<?xml version="1.0" encoding="utf-8"?>
<!-- Generator: Adobe Illustrator 22.0.0, SVG Export Plug-In . SVG Version: 6.00 Build 0)  -->
<svg version="1.1" id="Layer_1" xmlns="http://www.w3.org/2000/svg" xmlns:xlink="http://www.w3.org/1999/xlink" x="0px" y="0px"
	 viewBox="0 0 64 64" style="enable-background:new 0 0 64 64;" xml:space="preserve">
<style type="text/css">
	.st0{fill:#263238;}
	.st1{fill:#FFD740;}
	.st2{fill:#40C4FF;}
	.st3{fill:#FF5252;}
	.st4{fill:#4FC3F7;}
	.st5{fill:#FFFFFF;}
	.st6{fill:#4DB6AC;}
	.st7{fill:#FFCA28;}
	.st8{fill:#37474F;}
</style>
<g>
	<g>
		<g>
			<path class="st1" d="M50,29H6c-0.552,0-1-0.448-1-1v-7c0-2.761,2.239-5,5-5h35c2.761,0,5,2.239,5,5V29z"/>
		</g>
		<g>
			<path class="st0" d="M50,29.5H6c-0.827,0-1.5-0.673-1.5-1.5v-7c0-3.033,2.467-5.5,5.5-5.5h35c3.032,0,5.5,2.467,5.5,5.5v8
				C50.5,29.276,50.276,29.5,50,29.5z M10,16.5c-2.481,0-4.5,2.019-4.5,4.5v7c0,0.276,0.224,0.5,0.5,0.5h43.5V21
				c0-2.481-2.019-4.5-4.5-4.5H10z"/>
		</g>
	</g>
	<g>
		<g>
			<path class="st1" d="M54,54H7.5C6.119,54,5,52.881,5,51.5V46h51.5v5.5C56.5,52.881,55.381,54,54,54z"/>
		</g>
		<g>
			<path class="st0" d="M54,54.5H7.5c-1.654,0-3-1.346-3-3V46c0-0.276,0.224-0.5,0.5-0.5h51.5c0.276,0,0.5,0.224,0.5,0.5v5.5
				C57,53.154,55.654,54.5,54,54.5z M5.5,46.5v5c0,1.103,0.897,2,2,2H54c1.103,0,2-0.897,2-2v-5H5.5z"/>
		</g>
	</g>
	<g>
		<g>
			<path class="st0" d="M56.5,46.5H35c-0.276,0-0.5-0.224-0.5-0.5V29c0-0.276,0.224-0.5,0.5-0.5h15c0.276,0,0.5,0.224,0.5,0.5v10.5
				c0,3.309,2.691,6,6,6c0.276,0,0.5,0.224,0.5,0.5S56.776,46.5,56.5,46.5z M35.5,45.5h17.397c-2.034-1.226-3.397-3.457-3.397-6v-10
				h-14V45.5z"/>
		</g>
	</g>
	<g>
		<g>
			<path class="st2" d="M56.5,37.5L56.5,37.5c-1.381,0-2.5-1.119-2.5-2.5V23c0-1.381,1.119-2.5,2.5-2.5h0c1.381,0,2.5,1.119,2.5,2.5
				v12C59,36.381,57.881,37.5,56.5,37.5z"/>
		</g>
		<g>
			<path class="st0" d="M56.5,38c-1.654,0-3-1.346-3-3V23c0-1.654,1.346-3,3-3s3,1.346,3,3v12C59.5,36.654,58.154,38,56.5,38z
				 M56.5,21c-1.103,0-2,0.897-2,2v12c0,1.103,0.897,2,2,2s2-0.897,2-2V23C58.5,21.897,57.603,21,56.5,21z"/>
		</g>
	</g>
	<g>
		<g>
			<path class="st0" d="M14,34.5H8c-0.827,0-1.5-0.673-1.5-1.5v-4c0-0.276,0.224-0.5,0.5-0.5h8c0.276,0,0.5,0.224,0.5,0.5v4
				C15.5,33.827,14.827,34.5,14,34.5z M7.5,29.5V33c0,0.276,0.224,0.5,0.5,0.5h6c0.276,0,0.5-0.224,0.5-0.5v-3.5H7.5z"/>
		</g>
	</g>
	<g>
		<g>
			<path class="st0" d="M13,37H9c-0.276,0-0.5-0.224-0.5-0.5V34c0-0.276,0.224-0.5,0.5-0.5h4c0.276,0,0.5,0.224,0.5,0.5v2.5
				C13.5,36.776,13.276,37,13,37z M9.5,36h3v-1.5h-3V36z"/>
		</g>
	</g>
	<g>
		<g>
			<path class="st0" d="M11,43c-0.276,0-0.5-0.224-0.5-0.5v-6c0-0.276,0.224-0.5,0.5-0.5s0.5,0.224,0.5,0.5v6
				C11.5,42.776,11.276,43,11,43z"/>
		</g>
	</g>
	<g>
		<g>
			<path class="st0" d="M12.5,43h-3C9.224,43,9,42.776,9,42.5S9.224,42,9.5,42h3c0.276,0,0.5,0.224,0.5,0.5S12.776,43,12.5,43z"/>
		</g>
	</g>
	<g>
		<g>
			<circle class="st5" cx="42.5" cy="22.5" r="2.5"/>
		</g>
		<g>
			<path class="st0" d="M42.5,25.5c-1.654,0-3-1.346-3-3s1.346-3,3-3s3,1.346,3,3S44.154,25.5,42.5,25.5z M42.5,20.5
				c-1.103,0-2,0.897-2,2s0.897,2,2,2s2-0.897,2-2S43.603,20.5,42.5,20.5z"/>
		</g>
	</g>
	<g>
		<g>
			<path class="st0" d="M40.5,13.5h-6c-0.276,0-0.5-0.224-0.5-0.5v-3c0-0.276,0.224-0.5,0.5-0.5h6c0.276,0,0.5,0.224,0.5,0.5v3
				C41,13.276,40.776,13.5,40.5,13.5z M35,12.5h5v-2h-5V12.5z"/>
		</g>
	</g>
	<g>
		<g>
			<path class="st0" d="M38.75,16.5h-2.5c-0.276,0-0.5-0.224-0.5-0.5v-3c0-0.276,0.224-0.5,0.5-0.5h2.5c0.276,0,0.5,0.224,0.5,0.5v3
				C39.25,16.276,39.026,16.5,38.75,16.5z M36.75,15.5h1.5v-2h-1.5V15.5z"/>
		</g>
	</g>
	<g>
		<g>
			<path class="st0" d="M54,32h-2c-0.276,0-0.5-0.224-0.5-0.5S51.724,31,52,31h2c0.276,0,0.5,0.224,0.5,0.5S54.276,32,54,32z"/>
		</g>
	</g>
	<g>
		<g>
			<path class="st0" d="M54,27h-2c-0.276,0-0.5-0.224-0.5-0.5S51.724,26,52,26h2c0.276,0,0.5,0.224,0.5,0.5S54.276,27,54,27z"/>
		</g>
	</g>
	<g>
		<g>
			<rect x="39.5" y="35" class="st3" width="6" height="3"/>
		</g>
		<g>
			<path class="st0" d="M45.5,38.5h-6c-0.276,0-0.5-0.224-0.5-0.5v-3c0-0.276,0.224-0.5,0.5-0.5h6c0.276,0,0.5,0.224,0.5,0.5v3
				C46,38.276,45.776,38.5,45.5,38.5z M40,37.5h5v-2h-5V37.5z"/>
		</g>
	</g>
	<g>
		<g>
			<path class="st0" d="M12,12.5h-2c-0.276,0-0.5-0.224-0.5-0.5s0.224-0.5,0.5-0.5h2c0.276,0,0.5,0.224,0.5,0.5S12.276,12.5,12,12.5
				z"/>
		</g>
	</g>
	<g>
		<g>
			<path class="st0" d="M26.5,12.5H14c-0.276,0-0.5-0.224-0.5-0.5s0.224-0.5,0.5-0.5h12.5c0.276,0,0.5,0.224,0.5,0.5
				S26.776,12.5,26.5,12.5z"/>
		</g>
	</g>
	<g>
		<g>
			<path class="st0" d="M51.5,58.5h-2c-0.276,0-0.5-0.224-0.5-0.5s0.224-0.5,0.5-0.5h2c0.276,0,0.5,0.224,0.5,0.5
				S51.776,58.5,51.5,58.5z"/>
		</g>
	</g>
	<g>
		<g>
			<path class="st0" d="M47.5,58.5H35c-0.276,0-0.5-0.224-0.5-0.5s0.224-0.5,0.5-0.5h12.5c0.276,0,0.5,0.224,0.5,0.5
				S47.776,58.5,47.5,58.5z"/>
		</g>
	</g>
	<g>
		<g>
			<path class="st0" d="M59,8.5h-4c-0.276,0-0.5-0.224-0.5-0.5s0.224-0.5,0.5-0.5h4c0.276,0,0.5,0.224,0.5,0.5S59.276,8.5,59,8.5z"
				/>
		</g>
	</g>
	<g>
		<g>
			<path class="st0" d="M54,13.5h-4c-0.276,0-0.5-0.224-0.5-0.5s0.224-0.5,0.5-0.5h4c0.276,0,0.5,0.224,0.5,0.5S54.276,13.5,54,13.5
				z"/>
		</g>
	</g>
	<g>
		<g>
			<path class="st0" d="M52,15.5c-0.276,0-0.5-0.224-0.5-0.5v-4c0-0.276,0.224-0.5,0.5-0.5s0.5,0.224,0.5,0.5v4
				C52.5,15.276,52.276,15.5,52,15.5z"/>
		</g>
	</g>
	<g>
		<g>
			<path class="st0" d="M57,10.5c-0.276,0-0.5-0.224-0.5-0.5V6c0-0.276,0.224-0.5,0.5-0.5s0.5,0.224,0.5,0.5v4
				C57.5,10.276,57.276,10.5,57,10.5z"/>
		</g>
	</g>
</g>
</svg>
