<?xml version="1.0" encoding="utf-8"?>
<!-- Generator: Adobe Illustrator 22.0.0, SVG Export Plug-In . SVG Version: 6.00 Build 0)  -->
<svg version="1.1" id="Layer_1" xmlns="http://www.w3.org/2000/svg" xmlns:xlink="http://www.w3.org/1999/xlink" x="0px" y="0px"
	 viewBox="0 0 64 64" style="enable-background:new 0 0 64 64;" xml:space="preserve">
<style type="text/css">
	.st0{fill:#263238;}
	.st1{fill:#FFD740;}
	.st2{fill:#40C4FF;}
	.st3{fill:#FF5252;}
	.st4{fill:#4FC3F7;}
	.st5{fill:#FFFFFF;}
	.st6{fill:#4DB6AC;}
	.st7{fill:#FFCA28;}
	.st8{fill:#37474F;}
</style>
<g>
	<g>
		<g>
			<path class="st0" d="M56.875,26.5h-7.5c-0.276,0-0.5-0.224-0.5-0.5s0.224-0.5,0.5-0.5h7.5c0.276,0,0.5,0.224,0.5,0.5
				S57.151,26.5,56.875,26.5z"/>
		</g>
	</g>
	<g>
		<g>
			<path class="st0" d="M59.875,26.501h-1c-0.276,0-0.5-0.224-0.5-0.5s0.224-0.5,0.5-0.5h1c0.276,0,0.5,0.224,0.5,0.5
				S60.151,26.501,59.875,26.501z"/>
		</g>
	</g>
	<g>
		<g>
			<path class="st0" d="M4.875,26.5h-1c-0.276,0-0.5-0.224-0.5-0.5s0.224-0.5,0.5-0.5h1c0.276,0,0.5,0.224,0.5,0.5
				S5.151,26.5,4.875,26.5z"/>
		</g>
	</g>
	<g>
		<g>
			<path class="st0" d="M14.375,26.501h-7.5c-0.276,0-0.5-0.224-0.5-0.5s0.224-0.5,0.5-0.5h7.5c0.276,0,0.5,0.224,0.5,0.5
				S14.651,26.501,14.375,26.501z"/>
		</g>
	</g>
	<g>
		<g>
			<path class="st0" d="M27.934,37.001c-0.042,0-0.083-0.005-0.124-0.016c-0.158-0.04-0.287-0.155-0.344-0.309L25.05,30.24
				c-0.094-0.25,0.026-0.53,0.271-0.636l2.481-1.063c0.187-0.078,0.406-0.038,0.55,0.106l4,4c0.099,0.099,0.151,0.233,0.146,0.372
				c-0.005,0.139-0.068,0.27-0.173,0.36l-4.066,3.5C28.168,36.959,28.052,37.001,27.934,37.001z M26.154,30.336l1.996,5.319
				l3.115-2.682l-3.38-3.38L26.154,30.336z"/>
		</g>
	</g>
	<g>
		<g>
			<path class="st0" d="M36.057,37.001c-0.118,0-0.234-0.042-0.326-0.121l-4.057-3.5c-0.105-0.091-0.168-0.222-0.173-0.36
				c-0.005-0.139,0.048-0.273,0.146-0.372l4-4c0.145-0.145,0.363-0.185,0.551-0.106l2.481,1.063
				c0.245,0.105,0.365,0.386,0.271,0.637l-2.425,6.437c-0.058,0.152-0.187,0.268-0.345,0.308
				C36.14,36.996,36.098,37.001,36.057,37.001z M32.734,32.974l3.107,2.681l2.004-5.318l-1.73-0.742L32.734,32.974z"/>
		</g>
	</g>
	<g>
		<g>
			<path class="st0" d="M32,28.5c-5.243,0-9.746-3.475-11.095-8.502C19.294,19.948,18,18.622,18,17s1.294-2.948,2.905-2.998
				C22.254,8.975,26.757,5.5,32,5.5c5.243,0,9.746,3.475,11.095,8.502C44.705,14.052,46,15.378,46,17s-1.295,2.948-2.905,2.998
				C41.747,25.025,37.244,28.5,32,28.5z M21.214,18.981c0.24,0,0.509,0.149,0.562,0.378C22.878,24.152,27.083,27.5,32,27.5
				c4.918,0,9.122-3.348,10.224-8.141c0.057-0.247,0.291-0.408,0.543-0.385C42.903,18.992,42.951,19,43,19c1.103,0,2-0.897,2-2
				s-0.897-2-2-2c-0.047,0-0.092,0.008-0.137,0.014c-0.256,0.037-0.581-0.119-0.64-0.372C41.122,9.848,36.918,6.5,32,6.5
				c-4.917,0-9.122,3.348-10.224,8.142c-0.057,0.247-0.292,0.406-0.543,0.385C21.091,15.008,21.047,15,21,15c-1.103,0-2,0.897-2,2
				s0.897,2,2,2c0.049,0,0.096-0.008,0.143-0.014C21.166,18.983,21.19,18.981,21.214,18.981z"/>
		</g>
	</g>
	<g>
		<g>
			<path class="st0" d="M32,22.498c-1.408,0-2.817-0.536-3.889-1.608c-0.195-0.195-0.195-0.512,0-0.707s0.512-0.195,0.707,0
				c1.755,1.754,4.61,1.754,6.364,0c0.195-0.195,0.512-0.195,0.707,0s0.195,0.512,0,0.707C34.816,21.962,33.408,22.498,32,22.498z"
				/>
		</g>
	</g>
	<g>
		<g>
			<path class="st1" d="M36,29.001l3.422,1.466L45,28.751l-1.452-9.315c-0.177,0.04-0.359,0.065-0.548,0.065
				c-0.099,0-0.193-0.018-0.289-0.029C41.892,23.034,39.344,25.93,36,27.24V29.001z"/>
		</g>
		<g>
			<path class="st0" d="M39.422,30.967c-0.067,0-0.134-0.014-0.197-0.04l-3.422-1.466c-0.184-0.079-0.303-0.26-0.303-0.46V27.24
				c0-0.206,0.126-0.391,0.317-0.466c3.236-1.268,5.631-4.04,6.406-7.415c0.057-0.247,0.291-0.408,0.543-0.385
				c0.142,0.019,0.187,0.026,0.233,0.026c0.137,0,0.279-0.018,0.438-0.053c0.133-0.033,0.276-0.005,0.392,0.073
				c0.114,0.078,0.191,0.2,0.213,0.337l1.452,9.315c0.038,0.246-0.109,0.482-0.347,0.555l-5.578,1.716
				C39.521,30.959,39.472,30.967,39.422,30.967z M36.5,28.671l2.95,1.264l4.989-1.534l-1.31-8.402c-0.012,0-0.023,0.001-0.035,0.001
				c-0.915,3.399-3.344,6.19-6.595,7.577V28.671z"/>
		</g>
	</g>
	<g>
		<g>
			<path class="st1" d="M28,29.001v-1.76c-3.344-1.31-5.892-4.206-6.711-7.769c-0.096,0.011-0.19,0.029-0.289,0.029
				c-0.189,0-0.371-0.025-0.548-0.065L19,28.751l5.578,1.716L28,29.001z"/>
		</g>
		<g>
			<path class="st0" d="M24.578,30.967c-0.049,0-0.099-0.008-0.147-0.022l-5.578-1.716c-0.237-0.072-0.385-0.309-0.347-0.555
				l1.452-9.315c0.021-0.137,0.099-0.259,0.213-0.337c0.114-0.078,0.255-0.107,0.391-0.073c0.211,0.047,0.397,0.062,0.574,0.039
				c0.25-0.04,0.581,0.12,0.64,0.372c0.776,3.375,3.171,6.147,6.407,7.415c0.191,0.075,0.317,0.26,0.317,0.466v1.761
				c0,0.2-0.119,0.381-0.303,0.46l-3.422,1.466C24.712,30.953,24.646,30.967,24.578,30.967z M19.561,28.4l4.989,1.534l2.95-1.264
				v-1.095c-3.25-1.386-5.679-4.178-6.595-7.577c-0.012,0-0.023-0.001-0.035-0.001L19.561,28.4z M28,29.001h0.01H28z"/>
		</g>
	</g>
	<g>
		<g>
			<path class="st1" d="M32,2L32,2c-6.075,0-11,4.925-11,11v3l6-8.5l0,0c3.472,4.419,8.782,7,14.402,7H43V13C43,6.925,38.075,2,32,2
				z"/>
		</g>
		<g>
			<path class="st0" d="M21,16.5c-0.05,0-0.102-0.008-0.151-0.023C20.641,16.411,20.5,16.218,20.5,16v-3
				c0-6.341,5.159-11.5,11.5-11.5c6.341,0,11.5,5.159,11.5,11.5v1.5c0,0.276-0.224,0.5-0.5,0.5h-1.598
				c-5.589,0-10.79-2.424-14.374-6.673l-5.62,7.961C21.313,16.424,21.159,16.5,21,16.5z M32,2.5c-5.79,0-10.5,4.71-10.5,10.5v1.425
				l5.091-7.213C26.683,7.083,26.829,7.004,26.987,7c0.167,0.004,0.308,0.067,0.406,0.191C30.793,11.519,35.899,14,41.402,14H42.5
				v-1C42.5,7.21,37.79,2.5,32,2.5z"/>
		</g>
	</g>
	<g>
		<g>
			<path class="st2" d="M2,62l1.893-15.62c0.061-0.502,0.487-0.88,0.993-0.88h20.228c0.506,0,0.932,0.378,0.993,0.88L28,62"/>
		</g>
		<g>
			<path class="st0" d="M28,62.5c-0.25,0-0.465-0.187-0.496-0.439L25.61,46.44C25.58,46.189,25.366,46,25.114,46H4.886
				c-0.252,0-0.466,0.189-0.496,0.439L2.497,62.061c-0.033,0.273-0.282,0.473-0.557,0.436c-0.274-0.033-0.47-0.282-0.437-0.557
				l1.894-15.62C3.488,45.567,4.128,45,4.886,45h20.228c0.758,0,1.398,0.567,1.489,1.32l1.894,15.619
				c0.033,0.274-0.162,0.523-0.437,0.557C28.04,62.499,28.02,62.5,28,62.5z"/>
		</g>
	</g>
	<g>
		<g>
			<path class="st3" d="M36,62l1.893-15.62c0.061-0.502,0.487-0.88,0.993-0.88h20.228c0.506,0,0.932,0.378,0.993,0.88L62,62"/>
		</g>
		<g>
			<path class="st0" d="M61.999,62.5c-0.249,0-0.465-0.187-0.495-0.439L59.61,46.44C59.58,46.189,59.366,46,59.114,46H38.886
				c-0.252,0-0.466,0.189-0.496,0.439l-1.894,15.621c-0.032,0.273-0.284,0.478-0.557,0.436c-0.273-0.033-0.469-0.282-0.436-0.557
				l1.894-15.62C37.488,45.567,38.128,45,38.886,45h20.229c0.758,0,1.397,0.567,1.488,1.32l1.894,15.619
				c0.033,0.274-0.162,0.523-0.436,0.557C62.04,62.499,62.02,62.5,61.999,62.5z"/>
		</g>
	</g>
	<g>
		<g>
			<path class="st0" d="M18,43.066h-6c-0.827,0-1.5-0.673-1.5-1.5v-2.5c0-1.654,1.346-3,3-3h3c1.654,0,3,1.346,3,3v2.5
				C19.5,42.394,18.827,43.066,18,43.066z M13.5,37.066c-1.103,0-2,0.897-2,2v2.5c0,0.275,0.224,0.5,0.5,0.5h6
				c0.276,0,0.5-0.225,0.5-0.5v-2.5c0-1.103-0.897-2-2-2H13.5z"/>
		</g>
	</g>
	<g>
		<g>
			<path class="st0" d="M20,46H10c-0.276,0-0.5-0.224-0.5-0.5v-2c0-1.163,0.38-2.289,1.099-3.257
				c0.128-0.174,0.354-0.247,0.559-0.177c0.205,0.067,0.343,0.259,0.343,0.475v1.025c0,0.275,0.224,0.5,0.5,0.5h6
				c0.276,0,0.5-0.225,0.5-0.5v-1.025c0-0.216,0.138-0.407,0.343-0.475c0.205-0.07,0.43,0.003,0.559,0.177
				C20.12,41.211,20.5,42.337,20.5,43.5v2C20.5,45.776,20.276,46,20,46z M10.5,45h9v-1.5c0-0.416-0.06-0.827-0.178-1.226
				c-0.253,0.472-0.75,0.792-1.322,0.792h-6c-0.571,0-1.069-0.32-1.322-0.792C10.56,42.673,10.5,43.084,10.5,43.5V45z"/>
		</g>
	</g>
	<g>
		<g>
			<rect x="44" y="52.5" class="st5" width="10" height="3"/>
		</g>
		<g>
			<path class="st0" d="M54,56H44c-0.276,0-0.5-0.224-0.5-0.5v-3c0-0.276,0.224-0.5,0.5-0.5h10c0.276,0,0.5,0.224,0.5,0.5v3
				C54.5,55.776,54.276,56,54,56z M44.5,55h9v-2h-9V55z"/>
		</g>
	</g>
	<g>
		<g>
			<rect x="10" y="52.5" class="st5" width="10" height="3"/>
		</g>
		<g>
			<path class="st0" d="M20,56H10c-0.276,0-0.5-0.224-0.5-0.5v-3c0-0.276,0.224-0.5,0.5-0.5h10c0.276,0,0.5,0.224,0.5,0.5v3
				C20.5,55.776,20.276,56,20,56z M10.5,55h9v-2h-9V55z"/>
		</g>
	</g>
	<g>
		<g>
			<path class="st0" d="M17,43.017c-0.276,0-0.5-0.224-0.5-0.5v-1.95c0-0.276,0.224-0.5,0.5-0.5s0.5,0.224,0.5,0.5v1.95
				C17.5,42.793,17.276,43.017,17,43.017z"/>
		</g>
	</g>
	<g>
		<g>
			<path class="st0" d="M13,43.017c-0.276,0-0.5-0.224-0.5-0.5v-1.95c0-0.276,0.224-0.5,0.5-0.5s0.5,0.224,0.5,0.5v1.95
				C13.5,42.793,13.276,43.017,13,43.017z"/>
		</g>
	</g>
	<g>
		<g>
			<path class="st0" d="M15,43.066c-0.276,0-0.5-0.224-0.5-0.5v-2c0-0.276,0.224-0.5,0.5-0.5s0.5,0.224,0.5,0.5v2
				C15.5,42.843,15.276,43.066,15,43.066z"/>
		</g>
	</g>
	<g>
		<g>
			<path class="st0" d="M52,43.066h-6c-0.827,0-1.5-0.673-1.5-1.5v-2.5c0-1.654,1.346-3,3-3h3c1.654,0,3,1.346,3,3v2.5
				C53.5,42.394,52.827,43.066,52,43.066z M47.5,37.066c-1.103,0-2,0.897-2,2v2.5c0,0.275,0.225,0.5,0.5,0.5h6
				c0.275,0,0.5-0.225,0.5-0.5v-2.5c0-1.103-0.897-2-2-2H47.5z"/>
		</g>
	</g>
	<g>
		<g>
			<path class="st0" d="M54,46H44c-0.276,0-0.5-0.224-0.5-0.5v-2c0-1.163,0.38-2.289,1.099-3.257
				c0.129-0.173,0.355-0.246,0.559-0.177c0.204,0.067,0.343,0.259,0.343,0.475v1.025c0,0.275,0.225,0.5,0.5,0.5h6
				c0.275,0,0.5-0.225,0.5-0.5v-1.025c0-0.216,0.139-0.407,0.343-0.475c0.206-0.069,0.431,0.004,0.559,0.177
				C54.12,41.211,54.5,42.337,54.5,43.5v2C54.5,45.776,54.276,46,54,46z M44.5,45h9v-1.5c0-0.416-0.061-0.827-0.178-1.226
				c-0.254,0.472-0.751,0.792-1.322,0.792h-6c-0.571,0-1.068-0.32-1.322-0.792c-0.117,0.398-0.178,0.81-0.178,1.226V45z"/>
		</g>
	</g>
	<g>
		<g>
			<path class="st0" d="M51,43.017c-0.276,0-0.5-0.224-0.5-0.5v-1.95c0-0.276,0.224-0.5,0.5-0.5s0.5,0.224,0.5,0.5v1.95
				C51.5,42.793,51.276,43.017,51,43.017z"/>
		</g>
	</g>
	<g>
		<g>
			<path class="st0" d="M47,43.017c-0.276,0-0.5-0.224-0.5-0.5v-1.95c0-0.276,0.224-0.5,0.5-0.5s0.5,0.224,0.5,0.5v1.95
				C47.5,42.793,47.276,43.017,47,43.017z"/>
		</g>
	</g>
	<g>
		<g>
			<path class="st0" d="M49,43.066c-0.276,0-0.5-0.224-0.5-0.5v-2c0-0.276,0.224-0.5,0.5-0.5s0.5,0.224,0.5,0.5v2
				C49.5,42.843,49.276,43.066,49,43.066z"/>
		</g>
	</g>
	<g>
		<g>
			<path class="st0" d="M53,16.5c-0.215,0-0.406-0.138-0.475-0.342L51.973,14.5c-0.229-0.691-0.78-1.241-1.473-1.472l-1.658-0.554
				C48.638,12.406,48.5,12.215,48.5,12s0.138-0.406,0.342-0.475l1.658-0.553c0.692-0.23,1.242-0.78,1.473-1.472l0.553-1.659
				c0.137-0.408,0.812-0.408,0.949,0l0.553,1.659c0.23,0.691,0.78,1.241,1.473,1.472l1.658,0.553C57.362,11.594,57.5,11.785,57.5,12
				s-0.138,0.406-0.342,0.475L55.5,13.028c-0.692,0.23-1.243,0.78-1.473,1.472l-0.553,1.658C53.406,16.362,53.215,16.5,53,16.5z
				 M50.58,12l0.236,0.079c0.989,0.33,1.776,1.116,2.105,2.104L53,14.419l0.078-0.235c0.329-0.988,1.116-1.774,2.105-2.104L55.42,12
				l-0.236-0.078c-0.988-0.329-1.775-1.116-2.105-2.104L53,9.582l-0.078,0.235c-0.33,0.988-1.117,1.775-2.105,2.104L50.58,12z"/>
		</g>
	</g>
	<g>
		<g>
			<path class="st0" d="M47.698,35.066c-0.125,0-0.25-0.047-0.348-0.141c-0.639-0.617-1.343-1.093-2.093-1.413l-9.455-4.052
				c-0.184-0.079-0.303-0.26-0.303-0.46v-1.052c-2.276,0.733-4.725,0.731-7,0v1.052c0,0.2-0.119,0.381-0.303,0.46l-9.454,4.052
				c-0.751,0.321-1.456,0.797-2.093,1.413c-0.199,0.192-0.514,0.188-0.707-0.012c-0.192-0.198-0.187-0.516,0.012-0.707
				c0.726-0.702,1.532-1.245,2.395-1.614l9.151-3.922V27.24c0-0.165,0.082-0.319,0.218-0.413c0.136-0.094,0.311-0.111,0.464-0.053
				c2.464,0.965,5.172,0.965,7.635,0c0.156-0.059,0.328-0.04,0.465,0.053c0.136,0.094,0.218,0.248,0.218,0.413v1.431l9.151,3.922
				c0.862,0.369,1.668,0.912,2.395,1.614c0.198,0.191,0.204,0.509,0.012,0.707C47.96,35.016,47.829,35.066,47.698,35.066z"/>
		</g>
	</g>
</g>
</svg>
