<?xml version="1.0" encoding="utf-8"?>
<!-- Generator: Adobe Illustrator 22.0.0, SVG Export Plug-In . SVG Version: 6.00 Build 0)  -->
<svg version="1.1" id="Layer_1" xmlns="http://www.w3.org/2000/svg" xmlns:xlink="http://www.w3.org/1999/xlink" x="0px" y="0px"
	 viewBox="0 0 64 64" style="enable-background:new 0 0 64 64;" xml:space="preserve">
<style type="text/css">
	.st0{fill:#263238;}
	.st1{fill:#FFD740;}
	.st2{fill:#40C4FF;}
	.st3{fill:#FF5252;}
	.st4{fill:#4FC3F7;}
	.st5{fill:#FFFFFF;}
	.st6{fill:#4DB6AC;}
	.st7{fill:#FFCA28;}
	.st8{fill:#37474F;}
</style>
<g>
	<g>
		<g>
			<path class="st0" d="M13.285,36.565c-0.019,0-0.038,0-0.057,0c-0.801-0.015-1.549-0.341-2.104-0.918c-0.001,0-0.001,0-0.001,0
				c-1.147-1.19-1.112-3.094,0.078-4.241l12.2-11.766c0.095-0.093,0.225-0.154,0.355-0.14c0.133,0.003,0.259,0.058,0.352,0.153
				l3.471,3.6c0.191,0.198,0.186,0.515-0.014,0.707l-12.2,11.765C14.803,36.269,14.065,36.565,13.285,36.565z M11.843,34.954
				c0.372,0.385,0.87,0.602,1.404,0.611c0.013,0,0.025,0,0.037,0c0.521,0,1.012-0.198,1.388-0.56l11.84-11.418l-2.776-2.88
				L11.895,32.126C11.102,32.891,11.078,34.159,11.843,34.954L11.843,34.954z"/>
		</g>
	</g>
	<g>
		<g>
			<path class="st0" d="M30.75,18.501c-4.136,0-7.5-3.364-7.5-7.5s3.364-7.5,7.5-7.5s7.5,3.364,7.5,7.5S34.886,18.501,30.75,18.501z
				 M30.75,4.501c-3.584,0-6.5,2.916-6.5,6.5s2.916,6.5,6.5,6.5s6.5-2.916,6.5-6.5S34.334,4.501,30.75,4.501z"/>
		</g>
	</g>
	<g>
		<g>
			<path class="st2" d="M37.751,34.501V20.003l-4.002-1.503c-1.358,2.265-4.64,2.266-5.999,0.001l-0.001-0.001l-4,1.5l0.001,14.5"/>
		</g>
		<g>
			<path class="st0" d="M37.751,35.001c-0.276,0-0.5-0.224-0.5-0.5V20.35l-3.308-1.242c-0.752,1.004-1.918,1.593-3.194,1.593l0,0
				c-1.276,0-2.441-0.588-3.194-1.592l-3.306,1.239l0.001,14.153c0,0.276-0.224,0.5-0.5,0.5s-0.5-0.224-0.5-0.5l-0.001-14.5
				c0-0.208,0.129-0.395,0.324-0.468l4-1.5c0.227-0.085,0.479,0.004,0.604,0.211c0.547,0.911,1.509,1.456,2.571,1.456
				c1.063,0,2.024-0.545,2.571-1.456c0.125-0.208,0.377-0.296,0.604-0.211l4.002,1.502c0.195,0.073,0.324,0.26,0.324,0.468v14.498
				C38.251,34.777,38.027,35.001,37.751,35.001z"/>
		</g>
	</g>
	<g>
		<g>
			<path class="st0" d="M50.251,25.501h-12.5c-0.276,0-0.5-0.224-0.5-0.5v-5c0-0.276,0.224-0.5,0.5-0.5h12.5c1.654,0,3,1.346,3,3
				S51.905,25.501,50.251,25.501z M38.251,24.501h12c1.103,0,2-0.897,2-2s-0.897-2-2-2h-12V24.501z"/>
		</g>
	</g>
	<g>
		<g>
			<path class="st0" d="M45.75,50.001c-0.276,0-0.5-0.224-0.5-0.5v-8c0-2.481-2.019-4.5-4.5-4.5h-20c-2.481,0-4.5,2.019-4.5,4.5v8
				c0,0.276-0.224,0.5-0.5,0.5s-0.5-0.224-0.5-0.5v-8c0-3.032,2.468-5.5,5.5-5.5h20c3.032,0,5.5,2.468,5.5,5.5v8
				C46.25,49.777,46.026,50.001,45.75,50.001z"/>
		</g>
	</g>
	<g>
		<g>
			<path class="st0" d="M39.749,50.001c-0.248,0-0.464-0.185-0.495-0.438l-0.891-7.124c-0.031-0.25-0.244-0.438-0.496-0.438H23.633
				c-0.252,0-0.465,0.188-0.496,0.438l-0.891,7.124c-0.034,0.275-0.289,0.472-0.559,0.434c-0.273-0.034-0.468-0.284-0.434-0.559
				l0.891-7.124c0.094-0.749,0.733-1.313,1.488-1.313h14.234c0.755,0,1.395,0.564,1.488,1.313l0.891,7.124
				c0.034,0.274-0.16,0.524-0.434,0.559C39.791,50,39.771,50.001,39.749,50.001z"/>
		</g>
	</g>
	<g>
		<g>
			<path class="st1" d="M53,54.502H11c-0.296,0-0.586-0.088-0.832-0.252l-3-2c-0.689-0.46-0.876-1.391-0.416-2.08
				s1.392-0.876,2.08-0.416l2.622,1.748h41.003l2.583-2.152c0.637-0.53,1.582-0.444,2.112,0.192c0.53,0.636,0.444,1.582-0.192,2.112
				l-3,2.5C53.691,54.379,53.351,54.502,53,54.502z"/>
		</g>
		<g>
			<path class="st0" d="M53,55.002H11c-0.396,0-0.779-0.116-1.109-0.336l-3-2c-0.918-0.612-1.166-1.856-0.555-2.773
				c0.297-0.444,0.748-0.747,1.272-0.852c0.522-0.104,1.057,0.001,1.501,0.297l2.496,1.664h40.671l2.443-2.036
				c0.411-0.342,0.926-0.501,1.462-0.456c0.531,0.049,1.013,0.302,1.354,0.712s0.504,0.929,0.456,1.461
				c-0.049,0.532-0.302,1.014-0.712,1.355l-3,2.5C53.921,54.837,53.467,55.002,53,55.002z M8.002,50.001
				c-0.065,0-0.132,0.007-0.197,0.021c-0.263,0.052-0.488,0.203-0.637,0.426c-0.306,0.459-0.182,1.081,0.277,1.387l3,2
				c0.165,0.11,0.356,0.168,0.555,0.168h42c0.233,0,0.461-0.082,0.64-0.231l3-2.5c0.206-0.171,0.332-0.412,0.356-0.678
				c0.024-0.267-0.057-0.525-0.228-0.73c-0.352-0.424-0.983-0.481-1.408-0.129l-2.583,2.152c-0.09,0.075-0.203,0.116-0.32,0.116
				H11.454c-0.099,0-0.195-0.029-0.277-0.084L8.555,50.17C8.389,50.059,8.197,50.001,8.002,50.001z"/>
		</g>
	</g>
	<g>
		<g>
			<path class="st0" d="M15.75,61.001c-1.93,0-3.5-1.57-3.5-3.5s1.57-3.5,3.5-3.5s3.5,1.57,3.5,3.5S17.68,61.001,15.75,61.001z
				 M15.75,55.001c-1.379,0-2.5,1.121-2.5,2.5s1.121,2.5,2.5,2.5s2.5-1.121,2.5-2.5S17.129,55.001,15.75,55.001z"/>
		</g>
	</g>
	<g>
		<g>
			<path class="st0" d="M45.75,61.001c-1.93,0-3.5-1.57-3.5-3.5s1.57-3.5,3.5-3.5s3.5,1.57,3.5,3.5S47.68,61.001,45.75,61.001z
				 M45.75,55.001c-1.379,0-2.5,1.121-2.5,2.5s1.121,2.5,2.5,2.5s2.5-1.121,2.5-2.5S47.129,55.001,45.75,55.001z"/>
		</g>
	</g>
	<g>
		<g>
			<path class="st3" d="M30.75,4.001h-0.001c-3.866,0-7,3.134-7,7v0H37.75v0C37.75,7.135,34.616,4.001,30.75,4.001z"/>
		</g>
		<g>
			<path class="st0" d="M37.75,11.501H23.749c-0.276,0-0.5-0.224-0.5-0.5c0-4.136,3.364-7.5,7.5-7.5h0.001
				c4.136,0,7.5,3.364,7.5,7.5C38.25,11.277,38.026,11.501,37.75,11.501z M24.268,10.501h12.964c-0.257-3.352-3.065-6-6.481-6
				S24.524,7.149,24.268,10.501z"/>
		</g>
	</g>
	<g>
		<g>
			<path class="st3" d="M21.249,8.001c-1.381,0-2.5,1.119-2.5,2.5v0.5h5c0-1.075,0.25-2.09,0.683-3H21.249z"/>
		</g>
		<g>
			<path class="st0" d="M23.749,11.501h-5c-0.276,0-0.5-0.224-0.5-0.5v-0.5c0-1.654,1.346-3,3-3h3.183
				c0.172,0,0.331,0.088,0.423,0.232c0.092,0.146,0.103,0.327,0.028,0.482c-0.42,0.885-0.634,1.822-0.634,2.785
				C24.249,11.277,24.025,11.501,23.749,11.501z M19.249,10.501h4.017c0.046-0.683,0.186-1.352,0.417-2h-2.434
				C20.146,8.501,19.249,9.398,19.249,10.501z"/>
		</g>
	</g>
	<g>
		<g>
			<path class="st0" d="M37,9.501h-2.5c-0.276,0-0.5-0.224-0.5-0.5s0.224-0.5,0.5-0.5H37c0.276,0,0.5,0.224,0.5,0.5
				S37.276,9.501,37,9.501z"/>
		</g>
	</g>
	<g>
		<g>
			<path class="st0" d="M54,6.001h-4c-0.276,0-0.5-0.224-0.5-0.5s0.224-0.5,0.5-0.5h4c0.276,0,0.5,0.224,0.5,0.5
				S54.276,6.001,54,6.001z"/>
		</g>
	</g>
	<g>
		<g>
			<path class="st0" d="M52,8.001c-0.276,0-0.5-0.224-0.5-0.5v-4c0-0.276,0.224-0.5,0.5-0.5s0.5,0.224,0.5,0.5v4
				C52.5,7.777,52.276,8.001,52,8.001z"/>
		</g>
	</g>
	<g>
		<g>
			<path class="st0" d="M49,10.501h-4c-0.276,0-0.5-0.224-0.5-0.5s0.224-0.5,0.5-0.5h4c0.276,0,0.5,0.224,0.5,0.5
				S49.276,10.501,49,10.501z"/>
		</g>
	</g>
	<g>
		<g>
			<path class="st0" d="M47,12.501c-0.276,0-0.5-0.224-0.5-0.5v-4c0-0.276,0.224-0.5,0.5-0.5s0.5,0.224,0.5,0.5v4
				C47.5,12.277,47.276,12.501,47,12.501z"/>
		</g>
	</g>
	<g>
		<g>
			<path class="st0" d="M4,18.869H2c-0.276,0-0.5-0.224-0.5-0.5s0.224-0.5,0.5-0.5h2c0.276,0,0.5,0.224,0.5,0.5
				S4.276,18.869,4,18.869z"/>
		</g>
	</g>
	<g>
		<g>
			<path class="st0" d="M17.5,18.869H6c-0.276,0-0.5-0.224-0.5-0.5s0.224-0.5,0.5-0.5h11.5c0.276,0,0.5,0.224,0.5,0.5
				S17.776,18.869,17.5,18.869z"/>
		</g>
	</g>
	<g>
		<g>
			<path class="st0" d="M62,31.869h-2c-0.276,0-0.5-0.224-0.5-0.5s0.224-0.5,0.5-0.5h2c0.276,0,0.5,0.224,0.5,0.5
				S62.276,31.869,62,31.869z"/>
		</g>
	</g>
	<g>
		<g>
			<path class="st0" d="M58,31.869H46.5c-0.276,0-0.5-0.224-0.5-0.5s0.224-0.5,0.5-0.5H58c0.276,0,0.5,0.224,0.5,0.5
				S58.276,31.869,58,31.869z"/>
		</g>
	</g>
</g>
</svg>
