<?xml version="1.0" encoding="utf-8"?>
<!-- Generator: Adobe Illustrator 22.0.0, SVG Export Plug-In . SVG Version: 6.00 Build 0)  -->
<svg version="1.1" id="Layer_1" xmlns="http://www.w3.org/2000/svg" xmlns:xlink="http://www.w3.org/1999/xlink" x="0px" y="0px"
	 viewBox="0 0 64 64" style="enable-background:new 0 0 64 64;" xml:space="preserve">
<style type="text/css">
	.st0{fill:#263238;}
	.st1{fill:#FFD740;}
	.st2{fill:#40C4FF;}
	.st3{fill:#FF5252;}
	.st4{fill:#4FC3F7;}
	.st5{fill:#FFFFFF;}
	.st6{fill:#4DB6AC;}
	.st7{fill:#FFCA28;}
	.st8{fill:#37474F;}
</style>
<g>
	<g>
		<g>
			<path class="st0" d="M51.479,19.096c-0.827,0-1.668-0.159-2.479-0.495c-1.604-0.665-2.854-1.914-3.518-3.518
				c-0.665-1.604-0.665-3.371,0-4.975c1.372-3.311,5.18-4.891,8.492-3.518c3.312,1.372,4.89,5.181,3.519,8.493l0,0
				C56.457,17.584,54.031,19.096,51.479,19.096z M51.494,7.096c-2.158,0-4.211,1.28-5.088,3.396c-0.562,1.357-0.562,2.852,0,4.209
				c0.562,1.357,1.619,2.415,2.977,2.977c2.799,1.159,6.024-0.175,7.187-2.977c1.16-2.802-0.176-6.025-2.978-7.186
				C52.906,7.231,52.194,7.096,51.494,7.096z M57.031,14.893h0.01H57.031z"/>
		</g>
	</g>
	<g>
		<g>
			<path class="st1" d="M43.02,55.062L10.685,41.668c-0.51-0.211-0.753-0.796-0.541-1.307l0.383-0.924
				c0.211-0.51,0.796-0.753,1.307-0.541l32.336,13.394c2.185,0.905,4.667,0.847,6.8-0.129c0.461-0.211,1.005-0.036,1.263,0.4
				l0.512,0.864c0.302,0.51,0.098,1.172-0.439,1.423C49.4,56.206,46.005,56.299,43.02,55.062z"/>
		</g>
		<g>
			<path class="st0" d="M47.414,56.433c-1.56,0-3.12-0.302-4.585-0.909L10.493,42.13c-0.37-0.153-0.659-0.442-0.812-0.812
				c-0.153-0.371-0.152-0.778,0.001-1.148l0.383-0.923c0.315-0.765,1.196-1.13,1.959-0.812l32.336,13.394
				c2.048,0.848,4.382,0.803,6.4-0.122c0.695-0.317,1.512-0.058,1.901,0.599l0.513,0.865c0.215,0.364,0.267,0.806,0.142,1.211
				c-0.125,0.405-0.416,0.74-0.799,0.919C50.904,56.055,49.159,56.433,47.414,56.433z M11.451,39.32
				c-0.196,0-0.383,0.116-0.463,0.309l-0.383,0.924c-0.052,0.124-0.052,0.259,0,0.383c0.051,0.123,0.146,0.219,0.271,0.271
				L43.212,54.6l0,0c2.845,1.178,6.081,1.104,8.881-0.205c0.13-0.061,0.225-0.17,0.268-0.309s0.025-0.283-0.048-0.407l-0.512-0.864
				c-0.129-0.218-0.402-0.301-0.625-0.2c-2.273,1.041-4.897,1.089-7.199,0.136L11.642,39.358
				C11.579,39.333,11.515,39.32,11.451,39.32z"/>
		</g>
	</g>
	<g>
		<g>
			<path class="st2" d="M54.616,33.311l-8.393-3.476c-1.092-0.452-1.988-1.277-2.53-2.327l-2.337-4.531
				c-0.633-1.227-0.151-2.735,1.076-3.368l0,0c1.227-0.633,2.735-0.151,3.368,1.076l2.336,4.53l8.393,3.477L54.616,33.311z"/>
		</g>
		<g>
			<path class="st0" d="M54.616,33.812c-0.065,0-0.13-0.013-0.191-0.038l-8.393-3.477c-1.199-0.497-2.188-1.406-2.783-2.56
				l-2.337-4.531c-0.367-0.712-0.436-1.525-0.191-2.288c0.244-0.764,0.771-1.386,1.482-1.753c0.713-0.368,1.527-0.436,2.289-0.191
				c0.763,0.244,1.386,0.771,1.753,1.483l2.252,4.367l8.224,3.407c0.255,0.105,0.376,0.398,0.271,0.653l-1.913,4.62
				c-0.051,0.123-0.148,0.22-0.271,0.271C54.746,33.799,54.682,33.812,54.616,33.812z M43.575,19.831
				c-0.309,0-0.621,0.071-0.913,0.222c-0.476,0.245-0.826,0.66-0.989,1.169c-0.162,0.509-0.117,1.051,0.128,1.526l2.337,4.531
				c0.487,0.944,1.296,1.688,2.277,2.094l7.931,3.285l1.53-3.696l-7.931-3.285c-0.109-0.045-0.199-0.128-0.253-0.233l-2.336-4.53
				C45.002,20.227,44.301,19.831,43.575,19.831z"/>
		</g>
	</g>
	<g>
		<g>
			<path class="st0" d="M57.424,34.771c-0.391,0-0.78-0.077-1.152-0.231c-0.23-0.096-0.355-0.348-0.291-0.59
				c0.063-0.242,0.287-0.4,0.546-0.368c0.05,0.006,0.097,0.02,0.141,0.039c0.491,0.2,1.032,0.199,1.521-0.003
				c0.494-0.205,0.879-0.589,1.083-1.083c0.422-1.017-0.062-2.189-1.08-2.612c-0.029-0.012-0.061-0.029-0.088-0.047
				c-0.229-0.153-0.292-0.463-0.139-0.693c0.154-0.231,0.466-0.29,0.693-0.139c1.443,0.591,2.17,2.349,1.537,3.875
				c-0.307,0.741-0.884,1.317-1.625,1.624C58.201,34.694,57.812,34.771,57.424,34.771z"/>
		</g>
	</g>
	<g>
		<g>
			<path class="st0" d="M59.77,62.5c-0.064,0-0.129-0.012-0.191-0.038L3.884,39.393c-0.255-0.105-0.376-0.398-0.271-0.653
				c0.106-0.256,0.399-0.375,0.653-0.271l55.694,23.069c0.255,0.105,0.376,0.398,0.271,0.653C60.151,62.384,59.966,62.5,59.77,62.5z
				"/>
		</g>
	</g>
	<g>
		<g>
			<path class="st0" d="M35.317,4.5h-4c-0.276,0-0.5-0.224-0.5-0.5s0.224-0.5,0.5-0.5h4c0.276,0,0.5,0.224,0.5,0.5
				S35.594,4.5,35.317,4.5z"/>
		</g>
	</g>
	<g>
		<g>
			<path class="st0" d="M33.317,6.5c-0.276,0-0.5-0.224-0.5-0.5V2c0-0.276,0.224-0.5,0.5-0.5s0.5,0.224,0.5,0.5v4
				C33.817,6.276,33.594,6.5,33.317,6.5z"/>
		</g>
	</g>
	<g>
		<g>
			<path class="st0" d="M30.317,10h-4c-0.276,0-0.5-0.224-0.5-0.5s0.224-0.5,0.5-0.5h4c0.276,0,0.5,0.224,0.5,0.5
				S30.594,10,30.317,10z"/>
		</g>
	</g>
	<g>
		<g>
			<path class="st0" d="M28.317,12c-0.276,0-0.5-0.224-0.5-0.5v-4c0-0.276,0.224-0.5,0.5-0.5s0.5,0.224,0.5,0.5v4
				C28.817,11.776,28.594,12,28.317,12z"/>
		</g>
	</g>
	<g>
		<g>
			<path class="st2" d="M38.866,15.817l-11.447,9.518c-0.547,0.455-0.976,1.037-1.248,1.694c-0.362,0.873-0.412,1.794-0.216,2.65
				h13.445l3.789-3.15l-1.832-3.552c-0.633-1.227-0.151-2.735,1.076-3.368c1.227-0.633,2.735-0.151,3.368,1.076l1.193,2.312
				c1.256-1.964,1.188-4.58-0.382-6.468C44.669,14.194,41.201,13.875,38.866,15.817z"/>
		</g>
		<g>
			<path class="st0" d="M39.399,30.179H25.954c-0.233,0-0.436-0.161-0.487-0.388c-0.229-0.998-0.146-2.019,0.241-2.953
				c0.302-0.729,0.783-1.382,1.391-1.887l11.447-9.518l0,0c2.541-2.115,6.333-1.767,8.45,0.777c1.667,2.005,1.835,4.841,0.418,7.057
				c-0.096,0.151-0.263,0.239-0.444,0.23c-0.179-0.008-0.339-0.111-0.421-0.271l-1.192-2.312c-0.245-0.475-0.66-0.826-1.169-0.988
				c-0.51-0.164-1.053-0.117-1.525,0.127c-0.98,0.505-1.367,1.714-0.861,2.695l1.832,3.551c0.107,0.208,0.056,0.463-0.125,0.613
				l-3.789,3.15C39.629,30.138,39.517,30.179,39.399,30.179z M26.372,29.179h12.847L42.56,26.4l-1.647-3.194
				c-0.758-1.471-0.179-3.284,1.291-4.042c0.713-0.368,1.527-0.436,2.289-0.191c0.763,0.244,1.386,0.771,1.753,1.483l0.751,1.456
				c0.692-1.689,0.421-3.631-0.77-5.062c-1.763-2.121-4.923-2.41-7.042-0.648l-11.447,9.518c-0.482,0.402-0.865,0.921-1.105,1.501
				C26.375,27.841,26.287,28.511,26.372,29.179z"/>
		</g>
	</g>
	<g>
		<g>
			<path class="st0" d="M37.729,47.959c-0.14,0-0.279-0.059-0.378-0.172c-0.181-0.208-0.158-0.524,0.051-0.706l7.08-6.141
				c1.653-1.435,2.289-3.642,1.658-5.76c-0.468-1.571-1.684-2.865-3.337-3.55L39.3,30.179H26.635
				c0.39,0.953,1.143,1.722,2.101,2.119l10.457,4.331c0.154,0.064,0.267,0.201,0.299,0.365s-0.019,0.333-0.138,0.451l-7.723,7.696
				c-0.193,0.194-0.512,0.195-0.707-0.001c-0.194-0.196-0.194-0.512,0.002-0.707l7.191-7.167l-9.765-4.044
				c-1.454-0.603-2.533-1.885-2.886-3.431c-0.034-0.148,0.002-0.304,0.097-0.423c0.095-0.119,0.238-0.188,0.391-0.188h13.445
				c0.065,0,0.131,0.013,0.191,0.038l3.596,1.49c1.933,0.8,3.359,2.327,3.913,4.188c0.744,2.499-0.008,5.105-1.962,6.801
				l-7.081,6.141C37.963,47.919,37.846,47.959,37.729,47.959z"/>
		</g>
	</g>
	<g>
		<g>
			<path class="st0" d="M23.405,37.43c-0.064,0-0.129-0.012-0.191-0.038l-0.924-0.383c-0.255-0.105-0.376-0.398-0.271-0.653
				c0.106-0.255,0.401-0.375,0.653-0.271l0.924,0.383c0.255,0.105,0.376,0.398,0.271,0.653C23.787,37.314,23.602,37.43,23.405,37.43
				z"/>
		</g>
	</g>
	<g>
		<g>
			<path class="st0" d="M20.634,36.282c-0.063,0-0.129-0.012-0.191-0.038l-9.238-3.827c-0.255-0.105-0.376-0.398-0.271-0.653
				c0.105-0.254,0.398-0.376,0.653-0.271l9.238,3.827c0.255,0.105,0.376,0.398,0.271,0.653
				C21.016,36.166,20.83,36.282,20.634,36.282z"/>
		</g>
	</g>
	<g>
		<g>
			<path class="st0" d="M5.614,26.813c-0.064,0-0.129-0.012-0.191-0.038l-0.924-0.383c-0.255-0.105-0.376-0.398-0.271-0.653
				c0.106-0.255,0.4-0.375,0.653-0.271l0.924,0.383c0.255,0.105,0.376,0.398,0.271,0.653C5.996,26.697,5.811,26.813,5.614,26.813z"
				/>
		</g>
	</g>
	<g>
		<g>
			<path class="st0" d="M16.7,31.406c-0.063,0-0.129-0.012-0.191-0.038l-9.238-3.827C7.016,27.435,6.895,27.143,7,26.887
				c0.106-0.254,0.397-0.375,0.653-0.271l9.238,3.827c0.255,0.105,0.376,0.398,0.271,0.653C17.082,31.29,16.896,31.406,16.7,31.406z
				"/>
		</g>
	</g>
	<g>
		<g>
			<line class="st1" x1="40.606" y1="25.884" x2="19.261" y2="17.043"/>
		</g>
		<g>
			<path class="st0" d="M40.605,26.384c-0.064,0-0.129-0.012-0.191-0.038l-21.345-8.841c-0.255-0.105-0.376-0.398-0.271-0.653
				s0.4-0.375,0.653-0.271l21.345,8.841c0.255,0.105,0.376,0.398,0.271,0.653C40.987,26.268,40.802,26.384,40.605,26.384z"/>
		</g>
	</g>
</g>
</svg>
