<?xml version="1.0" encoding="utf-8"?>
<!-- Generator: Adobe Illustrator 22.0.0, SVG Export Plug-In . SVG Version: 6.00 Build 0)  -->
<svg version="1.1" id="Layer_1" xmlns="http://www.w3.org/2000/svg" xmlns:xlink="http://www.w3.org/1999/xlink" x="0px" y="0px"
	 viewBox="0 0 64 64" style="enable-background:new 0 0 64 64;" xml:space="preserve">
<style type="text/css">
	.st0{fill:#263238;}
	.st1{fill:#FFD740;}
	.st2{fill:#40C4FF;}
	.st3{fill:#FF5252;}
	.st4{fill:#4FC3F7;}
	.st5{fill:#FFFFFF;}
	.st6{fill:#4DB6AC;}
	.st7{fill:#FFCA28;}
	.st8{fill:#37474F;}
</style>
<g>
	<g>
		<g>
			<line class="st6" x1="20.364" y1="20.364" x2="43.637" y2="43.636"/>
		</g>
		<g>
			<path class="st0" d="M43.637,44.136c-0.128,0-0.256-0.049-0.354-0.146L20.011,20.717c-0.195-0.195-0.195-0.512,0-0.707
				s0.512-0.195,0.707,0L43.99,43.282c0.195,0.195,0.195,0.512,0,0.707C43.893,44.087,43.765,44.136,43.637,44.136z"/>
		</g>
	</g>
	<g>
		<g>
			<line class="st6" x1="43.637" y1="20.364" x2="20.364" y2="43.636"/>
		</g>
		<g>
			<path class="st0" d="M20.364,44.136c-0.128,0-0.256-0.049-0.354-0.146c-0.195-0.195-0.195-0.512,0-0.707L43.283,20.01
				c0.195-0.195,0.512-0.195,0.707,0s0.195,0.512,0,0.707L20.718,43.989C20.62,44.087,20.492,44.136,20.364,44.136z"/>
		</g>
	</g>
	<g>
		<g>
			<circle class="st2" cx="32.001" cy="32" r="10"/>
		</g>
		<g>
			<path class="st0" d="M32.001,42.5c-5.79,0-10.5-4.71-10.5-10.5s4.71-10.5,10.5-10.5s10.5,4.71,10.5,10.5S37.791,42.5,32.001,42.5
				z M32.001,22.5c-5.238,0-9.5,4.262-9.5,9.5s4.262,9.5,9.5,9.5s9.5-4.262,9.5-9.5S37.239,22.5,32.001,22.5z"/>
		</g>
	</g>
	<g>
		<g>
			<path class="st0" d="M32.001,27.5c-2.909,0-5.71-0.631-7.683-1.73c-0.241-0.134-0.328-0.438-0.193-0.68
				c0.134-0.242,0.44-0.327,0.68-0.193c1.829,1.019,4.452,1.604,7.196,1.604s5.366-0.585,7.195-1.604
				c0.239-0.133,0.546-0.049,0.68,0.193c0.135,0.241,0.048,0.546-0.193,0.68C37.71,26.869,34.91,27.5,32.001,27.5z"/>
		</g>
	</g>
	<g>
		<g>
			<path class="st0" d="M39.439,39.166c-0.083,0-0.166-0.021-0.243-0.063c-1.828-1.019-4.45-1.603-7.195-1.603
				s-5.368,0.584-7.196,1.603c-0.239,0.133-0.546,0.049-0.68-0.193c-0.135-0.241-0.048-0.546,0.193-0.68
				c1.972-1.1,4.771-1.729,7.683-1.729c2.91,0,5.71,0.63,7.682,1.729c0.241,0.134,0.328,0.438,0.193,0.68
				C39.785,39.073,39.614,39.166,39.439,39.166z"/>
		</g>
	</g>
	<g>
		<g>
			<path class="st0" d="M32.001,42.5c-3.689,0-6.69-4.71-6.69-10.5s3.001-10.5,6.69-10.5s6.69,4.71,6.69,10.5
				S35.69,42.5,32.001,42.5z M32.001,22.5c-3.138,0-5.69,4.262-5.69,9.5s2.553,9.5,5.69,9.5s5.69-4.262,5.69-9.5
				S35.139,22.5,32.001,22.5z"/>
		</g>
	</g>
	<g>
		<g>
			<path class="st0" d="M32.001,42.5c-0.276,0-0.5-0.224-0.5-0.5V22c0-0.276,0.224-0.5,0.5-0.5s0.5,0.224,0.5,0.5v20
				C32.501,42.276,32.277,42.5,32.001,42.5z"/>
		</g>
	</g>
	<g>
		<g>
			<path class="st0" d="M42,32.5H22c-0.276,0-0.5-0.224-0.5-0.5s0.224-0.5,0.5-0.5h20c0.276,0,0.5,0.224,0.5,0.5
				S42.276,32.5,42,32.5z"/>
		</g>
	</g>
	<g>
		<g>
			<path class="st1" d="M18.95,9.05c-2.734-2.734-7.166-2.734-9.9,0c-2.734,2.734-2.734,7.166,0,9.9
				c0.094,0.094,0.195,0.177,0.293,0.265C10.064,17.337,11.87,16,14,16s3.937,1.338,4.657,3.215
				c0.098-0.088,0.199-0.171,0.293-0.265C21.684,16.216,21.684,11.784,18.95,9.05z"/>
		</g>
	</g>
	<g>
		<g>
			<path class="st0" d="M14.001,23.495c-2.434,0-4.866-0.927-6.718-2.778c-3.704-3.704-3.704-9.73,0-13.435
				c3.702-3.702,9.73-3.704,13.435,0s3.704,9.73,0,13.435C18.866,22.568,16.434,23.495,14.001,23.495z M14.001,5.504
				c-2.177,0-4.354,0.828-6.011,2.485c-3.314,3.314-3.314,8.706,0,12.021s8.706,3.316,12.021,0c3.314-3.314,3.314-8.706,0-12.021
				C18.354,6.332,16.177,5.504,14.001,5.504z"/>
		</g>
	</g>
	<g>
		<g>
			<circle class="st5" cx="14" cy="13" r="3"/>
		</g>
		<g>
			<path class="st0" d="M14,16.5c-1.93,0-3.5-1.57-3.5-3.5s1.57-3.5,3.5-3.5s3.5,1.57,3.5,3.5S15.93,16.5,14,16.5z M14,10.5
				c-1.379,0-2.5,1.121-2.5,2.5s1.121,2.5,2.5,2.5s2.5-1.121,2.5-2.5S15.379,10.5,14,10.5z"/>
		</g>
	</g>
	<g>
		<g>
			<path class="st0" d="M18.657,19.714c-0.201,0-0.391-0.122-0.467-0.321C17.517,17.636,15.871,16.5,14,16.5
				s-3.516,1.136-4.189,2.893c-0.099,0.259-0.388,0.388-0.646,0.288c-0.258-0.099-0.387-0.388-0.288-0.646
				C9.701,16.888,11.712,15.5,14,15.5c2.289,0,4.3,1.388,5.124,3.535c0.099,0.258-0.03,0.547-0.288,0.646
				C18.777,19.703,18.717,19.714,18.657,19.714z"/>
		</g>
	</g>
	<g>
		<g>
			<path class="st1" d="M54.95,9.05c-2.734-2.734-7.166-2.734-9.9,0c-2.734,2.734-2.734,7.166,0,9.9
				c0.094,0.094,0.195,0.177,0.293,0.265C46.064,17.337,47.87,16,50,16s3.937,1.338,4.657,3.215
				c0.098-0.088,0.199-0.171,0.293-0.265C57.684,16.216,57.684,11.784,54.95,9.05z"/>
		</g>
	</g>
	<g>
		<g>
			<path class="st0" d="M50.001,23.495c-2.434,0-4.866-0.927-6.718-2.778c-3.704-3.704-3.704-9.73,0-13.435
				c3.702-3.702,9.73-3.704,13.435,0s3.704,9.73,0,13.435C54.866,22.568,52.434,23.495,50.001,23.495z M50.001,5.504
				c-2.177,0-4.354,0.828-6.011,2.485c-3.314,3.314-3.314,8.706,0,12.021s8.706,3.316,12.021,0c3.314-3.314,3.314-8.706,0-12.021
				C54.354,6.332,52.177,5.504,50.001,5.504z"/>
		</g>
	</g>
	<g>
		<g>
			<circle class="st5" cx="50" cy="13" r="3"/>
		</g>
		<g>
			<path class="st0" d="M50,16.5c-1.93,0-3.5-1.57-3.5-3.5s1.57-3.5,3.5-3.5s3.5,1.57,3.5,3.5S51.93,16.5,50,16.5z M50,10.5
				c-1.379,0-2.5,1.121-2.5,2.5s1.121,2.5,2.5,2.5s2.5-1.121,2.5-2.5S51.379,10.5,50,10.5z"/>
		</g>
	</g>
	<g>
		<g>
			<path class="st0" d="M54.657,19.714c-0.201,0-0.391-0.122-0.467-0.321C53.517,17.636,51.871,16.5,50,16.5
				s-3.516,1.136-4.189,2.893c-0.099,0.259-0.388,0.388-0.646,0.288c-0.258-0.099-0.387-0.388-0.288-0.646
				C45.701,16.888,47.712,15.5,50,15.5c2.289,0,4.3,1.388,5.124,3.535c0.099,0.258-0.03,0.547-0.288,0.646
				C54.777,19.703,54.717,19.714,54.657,19.714z"/>
		</g>
	</g>
	<g>
		<g>
			<path class="st1" d="M18.95,45.05c-2.734-2.734-7.166-2.734-9.9,0c-2.734,2.734-2.734,7.166,0,9.9
				c0.094,0.094,0.195,0.177,0.293,0.265C10.064,53.337,11.87,52,14,52s3.937,1.338,4.657,3.215
				c0.098-0.088,0.199-0.171,0.293-0.265C21.684,52.216,21.684,47.784,18.95,45.05z"/>
		</g>
	</g>
	<g>
		<g>
			<path class="st0" d="M14.001,59.495c-2.434,0-4.866-0.927-6.718-2.778c-3.704-3.704-3.704-9.73,0-13.435
				c3.702-3.702,9.73-3.704,13.435,0s3.704,9.73,0,13.435C18.866,58.568,16.434,59.495,14.001,59.495z M14.001,41.504
				c-2.177,0-4.354,0.828-6.011,2.485c-3.314,3.314-3.314,8.706,0,12.021s8.706,3.315,12.021,0c3.314-3.314,3.314-8.706,0-12.021
				C18.354,42.332,16.177,41.504,14.001,41.504z"/>
		</g>
	</g>
	<g>
		<g>
			<circle class="st5" cx="14" cy="49" r="3"/>
		</g>
		<g>
			<path class="st0" d="M14,52.5c-1.93,0-3.5-1.57-3.5-3.5s1.57-3.5,3.5-3.5s3.5,1.57,3.5,3.5S15.93,52.5,14,52.5z M14,46.5
				c-1.379,0-2.5,1.121-2.5,2.5s1.121,2.5,2.5,2.5s2.5-1.121,2.5-2.5S15.379,46.5,14,46.5z"/>
		</g>
	</g>
	<g>
		<g>
			<path class="st0" d="M18.657,55.714c-0.201,0-0.391-0.122-0.467-0.321C17.517,53.636,15.871,52.5,14,52.5
				s-3.516,1.136-4.189,2.893c-0.099,0.258-0.388,0.388-0.646,0.288c-0.258-0.099-0.387-0.388-0.288-0.646
				C9.701,52.888,11.712,51.5,14,51.5c2.289,0,4.3,1.388,5.124,3.535c0.099,0.258-0.03,0.547-0.288,0.646
				C18.777,55.703,18.717,55.714,18.657,55.714z"/>
		</g>
	</g>
	<g>
		<g>
			<path class="st1" d="M54.95,45.05c-2.734-2.734-7.166-2.734-9.9,0c-2.734,2.734-2.734,7.166,0,9.9
				c0.094,0.094,0.195,0.177,0.293,0.265C46.064,53.337,47.87,52,50,52s3.937,1.338,4.657,3.215
				c0.098-0.088,0.199-0.171,0.293-0.265C57.684,52.216,57.684,47.784,54.95,45.05z"/>
		</g>
	</g>
	<g>
		<g>
			<path class="st0" d="M50.001,59.495c-2.434,0-4.866-0.927-6.718-2.778c-3.704-3.704-3.704-9.73,0-13.435
				c3.702-3.702,9.73-3.704,13.435,0s3.704,9.73,0,13.435C54.866,58.568,52.434,59.495,50.001,59.495z M50.001,41.504
				c-2.177,0-4.354,0.828-6.011,2.485c-3.314,3.314-3.314,8.706,0,12.021s8.706,3.315,12.021,0c3.314-3.314,3.314-8.706,0-12.021
				C54.354,42.332,52.177,41.504,50.001,41.504z"/>
		</g>
	</g>
	<g>
		<g>
			<circle class="st5" cx="50" cy="49" r="3"/>
		</g>
		<g>
			<path class="st0" d="M50,52.5c-1.93,0-3.5-1.57-3.5-3.5s1.57-3.5,3.5-3.5s3.5,1.57,3.5,3.5S51.93,52.5,50,52.5z M50,46.5
				c-1.379,0-2.5,1.121-2.5,2.5s1.121,2.5,2.5,2.5s2.5-1.121,2.5-2.5S51.379,46.5,50,46.5z"/>
		</g>
	</g>
	<g>
		<g>
			<path class="st0" d="M54.657,55.714c-0.201,0-0.391-0.122-0.467-0.321C53.517,53.636,51.871,52.5,50,52.5
				s-3.516,1.136-4.189,2.893c-0.099,0.258-0.388,0.388-0.646,0.288c-0.258-0.099-0.387-0.388-0.288-0.646
				C45.701,52.888,47.712,51.5,50,51.5c2.289,0,4.3,1.388,5.124,3.535c0.099,0.258-0.03,0.547-0.288,0.646
				C54.777,55.703,54.717,55.714,54.657,55.714z"/>
		</g>
	</g>
	<g>
		<g>
			<path class="st0" d="M16.5,32.5H9c-0.276,0-0.5-0.224-0.5-0.5s0.224-0.5,0.5-0.5h7.5c0.276,0,0.5,0.224,0.5,0.5
				S16.776,32.5,16.5,32.5z"/>
		</g>
	</g>
	<g>
		<g>
			<path class="st0" d="M7,32.5H6c-0.276,0-0.5-0.224-0.5-0.5s0.224-0.5,0.5-0.5h1c0.276,0,0.5,0.224,0.5,0.5S7.276,32.5,7,32.5z"/>
		</g>
	</g>
	<g>
		<g>
			<path class="st0" d="M55,32.5h-7.5c-0.276,0-0.5-0.224-0.5-0.5s0.224-0.5,0.5-0.5H55c0.276,0,0.5,0.224,0.5,0.5
				S55.276,32.5,55,32.5z"/>
		</g>
	</g>
	<g>
		<g>
			<path class="st0" d="M58,32.5h-1c-0.276,0-0.5-0.224-0.5-0.5s0.224-0.5,0.5-0.5h1c0.276,0,0.5,0.224,0.5,0.5S58.276,32.5,58,32.5
				z"/>
		</g>
	</g>
</g>
</svg>
