<?xml version="1.0" encoding="utf-8"?>
<!-- Generator: Adobe Illustrator 22.0.0, SVG Export Plug-In . SVG Version: 6.00 Build 0)  -->
<svg version="1.1" id="Layer_1" xmlns="http://www.w3.org/2000/svg" xmlns:xlink="http://www.w3.org/1999/xlink" x="0px" y="0px"
	 viewBox="0 0 64 64" style="enable-background:new 0 0 64 64;" xml:space="preserve">
<style type="text/css">
	.st0{fill:#263238;}
	.st1{fill:#FFD740;}
	.st2{fill:#40C4FF;}
	.st3{fill:#FF5252;}
	.st4{fill:#4FC3F7;}
	.st5{fill:#FFFFFF;}
	.st6{fill:#4DB6AC;}
	.st7{fill:#FFCA28;}
	.st8{fill:#37474F;}
</style>
<g>
	<g>
		<g>
			<path class="st3" d="M59.815,20.982l-0.924,0.383c-0.51,0.211-1.095-0.031-1.307-0.541L51.079,5.118
				c-0.211-0.51,0.031-1.095,0.541-1.307l0.924-0.383c0.51-0.211,1.095,0.031,1.307,0.541l6.506,15.706
				C60.567,20.186,60.325,20.771,59.815,20.982z"/>
		</g>
		<g>
			<path class="st0" d="M58.508,21.942c-0.194,0-0.389-0.039-0.574-0.115c-0.37-0.153-0.659-0.441-0.812-0.812L50.617,5.309
				c-0.316-0.765,0.048-1.644,0.812-1.96l0.924-0.383c0.763-0.316,1.643,0.048,1.96,0.812l6.505,15.706
				c0.153,0.37,0.153,0.778,0,1.148s-0.441,0.659-0.812,0.812l-0.923,0.383C58.897,21.903,58.703,21.942,58.508,21.942z
				 M52.926,3.853c-0.064,0-0.128,0.012-0.191,0.038l-0.923,0.383c-0.255,0.105-0.376,0.399-0.271,0.654l6.506,15.706
				c0.051,0.124,0.147,0.22,0.271,0.271s0.26,0.051,0.383,0l0.924-0.383h0c0.123-0.051,0.219-0.147,0.27-0.27
				c0.051-0.124,0.051-0.259,0-0.383L53.389,4.161C53.309,3.969,53.122,3.853,52.926,3.853z"/>
		</g>
	</g>
	<g>
		<g>
			<path class="st3" d="M9.319,37.569l-0.924,0.383c-0.51,0.211-1.095-0.031-1.307-0.541l-3.444-8.315
				C3.433,28.585,3.675,28,4.185,27.789l0.924-0.383c0.51-0.211,1.095,0.031,1.307,0.541l3.444,8.315
				C10.071,36.773,9.829,37.358,9.319,37.569z"/>
		</g>
		<g>
			<path class="st0" d="M8.012,38.529c-0.195,0-0.389-0.039-0.575-0.115c-0.37-0.153-0.658-0.442-0.812-0.812l-3.444-8.315
				c-0.153-0.37-0.153-0.778,0-1.148s0.441-0.659,0.812-0.812l0.923-0.383c0.763-0.316,1.643,0.047,1.96,0.812l3.444,8.315
				c0.153,0.37,0.153,0.778,0,1.148c-0.153,0.37-0.442,0.658-0.812,0.812l-0.924,0.383C8.401,38.49,8.207,38.529,8.012,38.529z
				 M5.491,27.83c-0.064,0-0.128,0.012-0.191,0.038l-0.924,0.383c-0.124,0.051-0.22,0.147-0.271,0.27
				c-0.051,0.124-0.051,0.259,0,0.383l3.444,8.315c0.105,0.254,0.397,0.377,0.653,0.271l0.924-0.383
				c0.124-0.051,0.22-0.147,0.271-0.271c0.051-0.123,0.051-0.259,0-0.382l-3.444-8.315C5.874,27.946,5.688,27.83,5.491,27.83z"/>
		</g>
	</g>
	<g>
		<g>
			<path class="st0" d="M25.983,24.731c-0.196,0-0.382-0.116-0.462-0.309l-1.552-3.746c-0.105-0.255,0.016-0.548,0.271-0.653
				c0.254-0.104,0.548,0.015,0.653,0.271l1.552,3.746c0.105,0.255-0.016,0.548-0.271,0.653
				C26.112,24.719,26.047,24.731,25.983,24.731z"/>
		</g>
	</g>
	<g>
		<g>
			<circle class="st2" cx="32" cy="29.5" r="6"/>
		</g>
		<g>
			<path class="st0" d="M32,36c-3.584,0-6.5-2.916-6.5-6.5S28.416,23,32,23s6.5,2.916,6.5,6.5S35.584,36,32,36z M32,24
				c-3.033,0-5.5,2.467-5.5,5.5S28.967,35,32,35s5.5-2.467,5.5-5.5S35.033,24,32,24z"/>
		</g>
	</g>
	<g>
		<g>
			<path class="st0" d="M9.86,36.762c-0.196,0-0.382-0.116-0.462-0.309l-3.444-8.315c-0.051-0.123-0.051-0.26,0-0.383
				s0.148-0.22,0.271-0.271l21.711-8.993c0.255-0.104,0.548,0.015,0.653,0.271s-0.016,0.548-0.271,0.653l-21.25,8.802l3.062,7.391
				l13.729-5.687c0.255-0.104,0.548,0.016,0.653,0.271c0.105,0.255-0.016,0.548-0.271,0.653l-14.19,5.878
				C9.989,36.75,9.924,36.762,9.86,36.762z"/>
		</g>
	</g>
	<g>
		<g>
			<path class="st0" d="M39.483,27.198c-0.196,0-0.382-0.116-0.462-0.309c-0.105-0.255,0.016-0.548,0.271-0.653l17.065-7.068
				L51.382,7.157l-23.097,9.567c-0.124,0.051-0.22,0.147-0.271,0.271c-0.051,0.124-0.051,0.259,0,0.383l1.816,4.385
				c0.105,0.255-0.016,0.548-0.271,0.653c-0.254,0.105-0.548-0.016-0.653-0.271l-1.816-4.385c-0.153-0.37-0.153-0.778,0-1.148
				s0.441-0.659,0.812-0.812l23.559-9.758c0.123-0.051,0.26-0.051,0.383,0c0.123,0.051,0.22,0.148,0.271,0.271l5.357,12.935
				c0.105,0.255-0.016,0.548-0.271,0.653l-17.527,7.26C39.612,27.186,39.547,27.198,39.483,27.198z"/>
		</g>
	</g>
	<g>
		<g>
			<path class="st0" d="M19.997,56.999c-0.29,0-0.583-0.063-0.862-0.196c-0.995-0.478-1.415-1.675-0.938-2.668l8.78-18.292
				c0.119-0.249,0.417-0.355,0.667-0.234c0.249,0.12,0.354,0.418,0.234,0.667l-8.78,18.292c-0.238,0.497-0.028,1.095,0.469,1.334
				c0.497,0.237,1.096,0.028,1.335-0.469l8.816-18.368c0.119-0.249,0.417-0.354,0.667-0.234c0.249,0.12,0.354,0.418,0.234,0.667
				l-8.816,18.368C21.46,56.58,20.743,56.999,19.997,56.999z"/>
		</g>
	</g>
	<g>
		<g>
			<path class="st0" d="M44.001,57c-0.765,0-1.474-0.446-1.804-1.135L33.38,37.497c-0.12-0.249-0.015-0.547,0.234-0.667
				c0.25-0.121,0.547-0.015,0.667,0.234l8.816,18.368c0.23,0.48,0.845,0.704,1.335,0.469c0.496-0.239,0.707-0.837,0.468-1.334
				l-8.78-18.292c-0.12-0.249-0.015-0.547,0.234-0.667c0.249-0.121,0.547-0.015,0.667,0.234l8.78,18.292
				c0.477,0.994,0.057,2.19-0.938,2.668C44.592,56.934,44.301,57,44.001,57z"/>
		</g>
	</g>
	<g>
		<g>
			<path class="st1" d="M44.283,47.5l2.805,5.844c0.831,1.732,0.225,3.893-1.486,4.767c-0.597,0.305-1.241,0.432-1.909,0.376
				c-1.273-0.108-2.364-0.961-2.917-2.113c-1.281-2.669-4.259-8.874-4.259-8.874h-9.036l-4.327,9.014
				c-0.601,1.252-1.856,1.985-3.162,1.985c-0.652,0-1.316-0.182-1.917-0.574c-1.493-0.973-1.936-2.975-1.164-4.582l2.805-5.843H2v0
				c0,8.284,6.716,15,15,15h30c8.284,0,15-6.716,15-15v0H44.283z"/>
		</g>
	</g>
	<g>
		<g>
			<path class="st0" d="M36.518,48h-9.035c-0.276,0-0.5-0.224-0.5-0.5s0.224-0.5,0.5-0.5h9.035c0.276,0,0.5,0.224,0.5,0.5
				S36.794,48,36.518,48z"/>
		</g>
	</g>
	<g>
		<g>
			<path class="st0" d="M62,48H44.283c-0.276,0-0.5-0.224-0.5-0.5s0.224-0.5,0.5-0.5H62c0.276,0,0.5,0.224,0.5,0.5S62.276,48,62,48z
				"/>
		</g>
	</g>
	<g>
		<g>
			<path class="st0" d="M19.717,48H2c-0.276,0-0.5-0.224-0.5-0.5S1.724,47,2,47h17.717c0.276,0,0.5,0.224,0.5,0.5
				S19.994,48,19.717,48z"/>
		</g>
	</g>
	<g>
		<g>
			<path class="st0" d="M32,33c-1.93,0-3.5-1.57-3.5-3.5S30.07,26,32,26s3.5,1.57,3.5,3.5S33.93,33,32,33z M32,27
				c-1.378,0-2.5,1.122-2.5,2.5S30.622,32,32,32s2.5-1.122,2.5-2.5S33.378,27,32,27z"/>
		</g>
	</g>
	<g>
		<g>
			<path class="st0" d="M53.315,21.469c-0.196,0-0.382-0.116-0.462-0.309L47.496,8.226c-0.105-0.255,0.016-0.548,0.271-0.653
				c0.254-0.104,0.548,0.015,0.653,0.271l5.357,12.935c0.105,0.255-0.016,0.548-0.271,0.653
				C53.444,21.457,53.379,21.469,53.315,21.469z"/>
		</g>
	</g>
	<g>
		<g>
			<path class="st0" d="M51.5,38c-0.215,0-0.406-0.138-0.474-0.342l-0.415-1.244c-0.161-0.482-0.544-0.865-1.025-1.025l-1.244-0.415
				C48.138,34.906,48,34.715,48,34.5s0.138-0.406,0.342-0.474l1.244-0.415c0.481-0.161,0.865-0.544,1.026-1.026l0.415-1.244
				c0.136-0.408,0.812-0.408,0.948,0l0.415,1.244c0.161,0.481,0.544,0.865,1.026,1.026l1.244,0.415C54.862,34.094,55,34.285,55,34.5
				s-0.138,0.406-0.342,0.474l-1.244,0.415c-0.481,0.161-0.865,0.544-1.026,1.026l-0.415,1.244C51.906,37.862,51.715,38,51.5,38z
				 M50.063,34.5c0.649,0.265,1.171,0.787,1.437,1.437c0.266-0.65,0.788-1.171,1.437-1.437c-0.649-0.266-1.171-0.788-1.437-1.437
				C51.234,33.712,50.712,34.234,50.063,34.5z"/>
		</g>
	</g>
	<g>
		<g>
			<path class="st0" d="M14.03,13.879c-0.215,0-0.406-0.138-0.474-0.342l-0.415-1.244c-0.161-0.481-0.544-0.865-1.026-1.026
				l-1.244-0.415c-0.204-0.068-0.342-0.259-0.342-0.474s0.138-0.406,0.342-0.474l1.244-0.415c0.481-0.161,0.865-0.544,1.026-1.026
				l0.415-1.244c0.136-0.408,0.812-0.408,0.948,0l0.415,1.244c0.161,0.482,0.544,0.865,1.025,1.025l1.244,0.415
				c0.204,0.068,0.342,0.259,0.342,0.474s-0.138,0.406-0.342,0.474l-1.244,0.415c-0.482,0.161-0.865,0.544-1.025,1.026l-0.415,1.244
				C14.437,13.742,14.246,13.879,14.03,13.879z M12.593,10.379c0.649,0.266,1.171,0.788,1.437,1.437
				c0.266-0.649,0.787-1.171,1.437-1.437c-0.65-0.266-1.171-0.787-1.437-1.437C13.764,9.592,13.243,10.114,12.593,10.379z"/>
		</g>
	</g>
	<g>
		<g>
			<path class="st0" d="M33.619,2.766c-0.196,0-0.382-0.116-0.462-0.309c-0.105-0.255,0.016-0.548,0.271-0.653l1.848-0.766
				c0.254-0.105,0.548,0.015,0.653,0.271c0.105,0.255-0.016,0.548-0.271,0.653l-1.848,0.766C33.748,2.753,33.683,2.766,33.619,2.766
				z"/>
		</g>
	</g>
	<g>
		<g>
			<path class="st0" d="M21.609,7.74c-0.196,0-0.382-0.116-0.462-0.309c-0.105-0.255,0.016-0.548,0.271-0.653L31.58,2.569
				c0.255-0.105,0.548,0.015,0.653,0.271s-0.016,0.548-0.271,0.653L21.8,7.702C21.738,7.728,21.673,7.74,21.609,7.74z"/>
		</g>
	</g>
</g>
</svg>
