<?xml version="1.0" encoding="utf-8"?>
<!-- Generator: Adobe Illustrator 22.0.0, SVG Export Plug-In . SVG Version: 6.00 Build 0)  -->
<svg version="1.1" id="Layer_1" xmlns="http://www.w3.org/2000/svg" xmlns:xlink="http://www.w3.org/1999/xlink" x="0px" y="0px"
	 viewBox="0 0 64 64" style="enable-background:new 0 0 64 64;" xml:space="preserve">
<style type="text/css">
	.st0{fill:#263238;}
	.st1{fill:#FFD740;}
	.st2{fill:#40C4FF;}
	.st3{fill:#FF5252;}
	.st4{fill:#4FC3F7;}
	.st5{fill:#FFFFFF;}
	.st6{fill:#4DB6AC;}
	.st7{fill:#FFCA28;}
	.st8{fill:#37474F;}
</style>
<g>
	<g>
		<g>
			<path class="st2" d="M58,46.001H4v1c0,8.284,6.716,15,15,15h24c8.284,0,15-6.716,15-15V46.001z"/>
		</g>
	</g>
	<g>
		<g>
			<path class="st0" d="M45.392,52.803L45.392,52.803c-1.831,0-3.549-0.739-4.798-2.045c-1.251,1.306-2.968,2.042-4.797,2.042
				c-1.831,0-3.55-0.738-4.799-2.043c-1.256,1.31-2.97,2.044-4.797,2.044c-1.831,0-3.55-0.738-4.799-2.043
				c-1.248,1.303-2.965,2.039-4.795,2.039c-0.276,0-0.5-0.224-0.5-0.5s0.224-0.5,0.5-0.5c1.724,0,3.329-0.769,4.405-2.108
				c0.084-0.104,0.206-0.171,0.34-0.185c0.132-0.012,0.267,0.027,0.37,0.113c0.025,0.021,0.055,0.05,0.075,0.076
				c1.076,1.339,2.681,2.107,4.403,2.107s3.327-0.768,4.403-2.107c0.092-0.114,0.23-0.186,0.377-0.19
				c0.147,0.009,0.29,0.053,0.388,0.16c1.101,1.368,2.705,2.137,4.428,2.137s3.328-0.769,4.404-2.108
				c0.095-0.119,0.24-0.189,0.392-0.189c0.003,0,0.006,0,0.008,0c0.155,0.002,0.302,0.074,0.395,0.198
				c1.071,1.333,2.676,2.102,4.396,2.103c0.276,0,0.5,0.224,0.5,0.5C45.892,52.58,45.668,52.803,45.392,52.803z"/>
		</g>
	</g>
	<g>
		<g>
			<path class="st0" d="M45.392,57.303L45.392,57.303c-1.831,0-3.549-0.739-4.798-2.045c-1.251,1.306-2.968,2.042-4.797,2.042
				c-1.831,0-3.55-0.738-4.799-2.043c-1.256,1.31-2.97,2.044-4.797,2.044c-1.831,0-3.55-0.738-4.799-2.043
				c-1.248,1.303-2.965,2.039-4.795,2.039c-0.276,0-0.5-0.224-0.5-0.5s0.224-0.5,0.5-0.5c1.724,0,3.329-0.769,4.405-2.108
				c0.084-0.104,0.206-0.171,0.34-0.185c0.132-0.012,0.267,0.027,0.37,0.113c0.025,0.021,0.055,0.05,0.075,0.076
				c1.076,1.339,2.681,2.107,4.403,2.107s3.327-0.768,4.403-2.107c0.092-0.114,0.23-0.186,0.377-0.19
				c0.147,0.005,0.29,0.052,0.388,0.16c1.101,1.368,2.705,2.137,4.428,2.137s3.328-0.769,4.404-2.108
				c0.095-0.119,0.24-0.189,0.392-0.189c0.003,0,0.006,0,0.008,0c0.155,0.002,0.302,0.074,0.395,0.198
				c1.071,1.333,2.676,2.102,4.396,2.103c0.276,0,0.5,0.224,0.5,0.5C45.892,57.08,45.668,57.303,45.392,57.303z"/>
		</g>
	</g>
	<g>
		<g>
			<path class="st0" d="M45.324,36.479c-2.481,0-4.5-2.019-4.5-4.5c0-0.276,0.224-0.5,0.5-0.5s0.5,0.224,0.5,0.5
				c0,1.93,1.57,3.5,3.5,3.5c0.276,0,0.5,0.224,0.5,0.5S45.601,36.479,45.324,36.479z"/>
		</g>
	</g>
	<g>
		<g>
			<path class="st0" d="M19.161,44.5c-0.128,0-0.256-0.049-0.354-0.146c-0.195-0.195-0.195-0.512,0-0.707l9.546-9.546L28,33.748
				c-2.534-2.534-6.658-2.536-9.192,0l-7.071,7.071c-1.323,1.324-3.63,1.322-4.949,0c-1.364-1.365-1.364-3.585,0-4.95l7.07-7.071
				c5.264-5.264,13.828-5.264,19.092,0l14.85,14.849c0.195,0.195,0.195,0.512,0,0.707s-0.512,0.195-0.707,0l-14.85-14.849
				c-4.873-4.873-12.803-4.874-17.678,0l-7.07,7.071c-0.473,0.472-0.732,1.1-0.732,1.768c0,0.668,0.26,1.296,0.732,1.768
				c0.943,0.943,2.59,0.945,3.535,0l7.071-7.071c2.925-2.924,7.684-2.923,10.606,0l0.707,0.707c0.195,0.195,0.195,0.512,0,0.707
				l-9.899,9.899C19.417,44.452,19.289,44.5,19.161,44.5z"/>
		</g>
	</g>
	<g>
		<g>
			<path class="st0" d="M3.251,34.955c-0.128,0-0.256-0.049-0.354-0.146c-0.195-0.195-0.195-0.512,0-0.707l0.707-0.707
				c0.195-0.195,0.512-0.195,0.707,0s0.195,0.512,0,0.707l-0.707,0.707C3.507,34.906,3.379,34.955,3.251,34.955z"/>
		</g>
	</g>
	<g>
		<g>
			<path class="st0" d="M5.372,32.833c-0.128,0-0.256-0.049-0.354-0.146c-0.195-0.195-0.195-0.512,0-0.707l9.192-9.192
				c0.195-0.195,0.512-0.195,0.707,0s0.195,0.512,0,0.707l-9.192,9.192C5.628,32.784,5.5,32.833,5.372,32.833z"/>
		</g>
	</g>
	<g>
		<g>
			<path class="st0" d="M60,43.5c-1.379,0-2.5-1.122-2.5-2.5c0-1.379,1.121-2.5,2.5-2.5s2.5,1.122,2.5,2.5
				C62.5,42.379,61.379,43.5,60,43.5z M60,39.5c-0.827,0-1.5,0.673-1.5,1.5s0.673,1.5,1.5,1.5s1.5-0.673,1.5-1.5
				S60.827,39.5,60,39.5z"/>
		</g>
	</g>
	<g>
		<g>
			<path class="st0" d="M4,26.066c-1.379,0-2.5-1.122-2.5-2.5c0-1.379,1.121-2.5,2.5-2.5s2.5,1.122,2.5,2.5
				C6.5,24.944,5.379,26.066,4,26.066z M4,22.065c-0.827,0-1.5,0.673-1.5,1.5s0.673,1.5,1.5,1.5s1.5-0.673,1.5-1.5
				S4.827,22.065,4,22.065z"/>
		</g>
	</g>
	<g>
		<g>
			<polygon class="st6" points="53.102,38.344 38.96,24.202 40.374,22.787 54.516,36.929 53.809,37.637 			"/>
		</g>
		<g>
			<path class="st0" d="M53.103,38.844c-0.128,0-0.256-0.049-0.354-0.146L38.606,24.555c-0.195-0.195-0.195-0.512,0-0.707
				l1.414-1.415c0.188-0.188,0.52-0.188,0.707,0L54.87,36.576c0.195,0.195,0.195,0.512,0,0.707l-1.414,1.414
				C53.358,38.795,53.23,38.844,53.103,38.844z M39.667,24.202l13.436,13.435l0.707-0.707L40.374,23.494L39.667,24.202z"/>
		</g>
	</g>
	<g>
		<g>
			<path class="st0" d="M54.854,34.938c-0.072,0-0.146-0.016-0.215-0.049c-0.25-0.119-0.355-0.417-0.236-0.667
				c1.548-3.246,0.884-7.131-1.653-9.668c-2.538-2.538-6.423-3.202-9.669-1.654c-0.25,0.118-0.547,0.013-0.666-0.236
				c-0.119-0.25-0.014-0.548,0.236-0.667c3.624-1.731,7.969-0.988,10.806,1.849c2.836,2.836,3.579,7.179,1.849,10.806
				C55.219,34.833,55.04,34.938,54.854,34.938z"/>
		</g>
	</g>
	<g>
		<g>
			<path class="st0" d="M46.737,40.057c-2.468,0-4.901-0.958-6.717-2.774c-2.836-2.836-3.579-7.179-1.849-10.806
				c0.119-0.249,0.417-0.354,0.666-0.236c0.25,0.119,0.355,0.417,0.236,0.667c-1.548,3.245-0.884,7.13,1.653,9.668
				c2.537,2.537,6.423,3.2,9.669,1.653c0.248-0.12,0.546-0.014,0.666,0.236c0.119,0.25,0.014,0.548-0.236,0.667
				C49.521,39.754,48.124,40.057,46.737,40.057z"/>
		</g>
	</g>
	<g>
		<g>
			<path class="st2" d="M60.009,14.01c0.005-1.105-0.887-2.004-1.991-2.009c-1.105-0.005-2.004,0.887-2.009,1.991
				c-1.105-0.005-2.004,0.887-2.009,1.991s0.887,2.004,1.991,2.009l4,0.018c1.105,0.005,2.004-0.887,2.009-1.991
				C62.005,14.914,61.113,14.014,60.009,14.01z"/>
		</g>
	</g>
	<g>
		<g>
			<circle class="st1" cx="21" cy="10.001" r="3"/>
		</g>
		<g>
			<path class="st0" d="M21,13.5c-1.93,0-3.5-1.57-3.5-3.5s1.57-3.5,3.5-3.5s3.5,1.57,3.5,3.5S22.93,13.5,21,13.5z M21,7.5
				c-1.379,0-2.5,1.122-2.5,2.5s1.121,2.5,2.5,2.5s2.5-1.122,2.5-2.5S22.379,7.5,21,7.5z"/>
		</g>
	</g>
	<g>
		<g>
			<path class="st0" d="M21,5.5c-0.276,0-0.5-0.224-0.5-0.5V2c0-0.276,0.224-0.5,0.5-0.5s0.5,0.224,0.5,0.5v3
				C21.5,5.277,21.276,5.5,21,5.5z"/>
		</g>
	</g>
	<g>
		<g>
			<path class="st0" d="M21,18.5c-0.276,0-0.5-0.224-0.5-0.5v-3c0-0.276,0.224-0.5,0.5-0.5s0.5,0.224,0.5,0.5v3
				C21.5,18.277,21.276,18.5,21,18.5z"/>
		</g>
	</g>
	<g>
		<g>
			<path class="st0" d="M29,10.5h-3c-0.276,0-0.5-0.224-0.5-0.5s0.224-0.5,0.5-0.5h3c0.276,0,0.5,0.224,0.5,0.5S29.276,10.5,29,10.5
				z"/>
		</g>
	</g>
	<g>
		<g>
			<path class="st0" d="M16,10.5h-3c-0.276,0-0.5-0.224-0.5-0.5s0.224-0.5,0.5-0.5h3c0.276,0,0.5,0.224,0.5,0.5S16.276,10.5,16,10.5
				z"/>
		</g>
	</g>
	<g>
		<g>
			<path class="st0" d="M24.535,6.965c-0.128,0-0.256-0.049-0.354-0.146c-0.195-0.195-0.195-0.512,0-0.707l1.414-1.414
				c0.195-0.195,0.512-0.195,0.707,0s0.195,0.512,0,0.707l-1.414,1.414C24.791,6.916,24.663,6.965,24.535,6.965z"/>
		</g>
	</g>
	<g>
		<g>
			<path class="st0" d="M16.05,15.45c-0.128,0-0.256-0.049-0.354-0.146c-0.195-0.195-0.195-0.512,0-0.707l1.414-1.414
				c0.195-0.195,0.512-0.195,0.707,0s0.195,0.512,0,0.707l-1.414,1.414C16.306,15.401,16.178,15.45,16.05,15.45z"/>
		</g>
	</g>
	<g>
		<g>
			<path class="st0" d="M25.949,15.45c-0.128,0-0.256-0.049-0.354-0.146l-1.414-1.414c-0.195-0.195-0.195-0.512,0-0.707
				s0.512-0.195,0.707,0l1.414,1.414c0.195,0.195,0.195,0.512,0,0.707C26.205,15.401,26.077,15.45,25.949,15.45z"/>
		</g>
	</g>
	<g>
		<g>
			<path class="st0" d="M17.464,6.965c-0.128,0-0.256-0.049-0.354-0.146l-1.414-1.414c-0.195-0.195-0.195-0.512,0-0.707
				s0.512-0.195,0.707,0l1.414,1.414c0.195,0.195,0.195,0.512,0,0.707C17.72,6.916,17.592,6.965,17.464,6.965z"/>
		</g>
	</g>
	<g>
		<g>
			<path class="st6" d="M43.203,29.858l-1.414-1.414c-0.781-0.781-0.781-2.047,0-2.828l0,0c0.781-0.781,2.047-0.781,2.828,0
				l1.414,1.414c0.781,0.781,0.781,2.047,0,2.828l0,0C45.25,30.639,43.984,30.639,43.203,29.858z"/>
		</g>
		<g>
			<path class="st0" d="M44.616,30.943c-0.64,0-1.28-0.244-1.768-0.731l-1.414-1.414c-0.974-0.975-0.974-2.561,0-3.536
				c0.974-0.975,2.561-0.976,3.536,0l1.414,1.414c0.975,0.975,0.975,2.561,0,3.536C45.897,30.699,45.257,30.943,44.616,30.943z
				 M43.202,25.53c-0.384,0-0.768,0.146-1.061,0.439c-0.584,0.585-0.584,1.537,0,2.122l1.414,1.414c0.587,0.585,1.537,0.584,2.122,0
				c0.585-0.585,0.585-1.537,0-2.122l-1.414-1.414C43.971,25.677,43.587,25.53,43.202,25.53z"/>
		</g>
	</g>
	<g>
		<g>
			<path class="st6" d="M48.859,35.515l-1.414-1.414c-0.781-0.781-0.781-2.047,0-2.828v0c0.781-0.781,2.047-0.781,2.828,0
				l1.414,1.414c0.781,0.781,0.781,2.047,0,2.828l0,0C50.907,36.296,49.641,36.296,48.859,35.515z"/>
		</g>
		<g>
			<path class="st0" d="M50.273,36.601c-0.667,0-1.295-0.26-1.768-0.732l-1.414-1.414c-0.975-0.975-0.975-2.561,0-3.536
				c0.975-0.976,2.561-0.974,3.535,0l1.414,1.415c0.473,0.472,0.732,1.1,0.732,1.768s-0.26,1.296-0.732,1.768
				C51.569,36.341,50.941,36.601,50.273,36.601z M48.859,31.188c-0.384,0-0.769,0.146-1.061,0.438c-0.585,0.585-0.585,1.537,0,2.122
				l1.414,1.414c0.568,0.567,1.557,0.567,2.121,0c0.283-0.283,0.439-0.66,0.439-1.061s-0.156-0.777-0.439-1.061l-1.414-1.415
				C49.628,31.334,49.243,31.188,48.859,31.188z"/>
		</g>
	</g>
</g>
</svg>
