<?xml version="1.0" encoding="utf-8"?>
<!-- Generator: Adobe Illustrator 22.0.0, SVG Export Plug-In . SVG Version: 6.00 Build 0)  -->
<svg version="1.1" id="Layer_1" xmlns="http://www.w3.org/2000/svg" xmlns:xlink="http://www.w3.org/1999/xlink" x="0px" y="0px"
	 viewBox="0 0 64 64" style="enable-background:new 0 0 64 64;" xml:space="preserve">
<style type="text/css">
	.st0{fill:#263238;}
	.st1{fill:#FFD740;}
	.st2{fill:#40C4FF;}
	.st3{fill:#FF5252;}
	.st4{fill:#4FC3F7;}
	.st5{fill:#FFFFFF;}
	.st6{fill:#4DB6AC;}
	.st7{fill:#FFCA28;}
	.st8{fill:#37474F;}
</style>
<g>
	<g>
		<g>
			<path class="st2" d="M48.5,22.001c-3.314,0-6-2.686-6-6c0-1.335,0.441-2.564,1.179-3.561c-1.014-0.278-2.076-0.439-3.179-0.439
				c-6.627,0-12,5.373-12,12v5.5c0,4.142,3.358,7.5,7.5,7.5h9c4.142,0,7.5-3.358,7.5-7.5v-5.5c0-1.102-0.161-2.165-0.439-3.179
				C51.064,21.559,49.835,22.001,48.5,22.001z"/>
		</g>
	</g>
	<g>
		<g>
			<path class="st0" d="M45,37.5h-9c-4.411,0-8-3.589-8-8V24c0-6.893,5.607-12.5,12.5-12.5c1.092,0,2.206,0.154,3.312,0.457
				c0.266,0.073,0.423,0.349,0.35,0.615c-0.074,0.267-0.345,0.421-0.615,0.35c-1.019-0.28-2.043-0.422-3.046-0.422
				C34.159,12.5,29,17.66,29,24v5.5c0,3.859,3.14,7,7,7h9c3.859,0,7-3.141,7-7V24c0-1.003-0.142-2.027-0.422-3.046
				c-0.073-0.267,0.084-0.542,0.35-0.615c0.271-0.07,0.541,0.084,0.615,0.35C52.846,21.794,53,22.909,53,24v5.5
				C53,33.912,49.411,37.5,45,37.5z"/>
		</g>
	</g>
	<g>
		<g>
			<path class="st0" d="M42,50.5h-3c-0.827,0-1.5-0.673-1.5-1.5V38c0-0.827,0.673-1.5,1.5-1.5h3c0.827,0,1.5,0.673,1.5,1.5v11
				C43.5,49.828,42.827,50.5,42,50.5z M39,37.5c-0.275,0-0.5,0.225-0.5,0.5v11c0,0.275,0.225,0.5,0.5,0.5h3
				c0.275,0,0.5-0.225,0.5-0.5V38c0-0.275-0.225-0.5-0.5-0.5H39z"/>
		</g>
	</g>
	<g>
		<g>
			<path class="st3" d="M29.874,44.772l-6.364,6.364c-2.929,2.929-7.678,2.929-10.607,0l-3.889-3.889
				c-4.686-4.686-4.686-12.284,0-16.971l0,0c4.686-4.686,12.284-4.686,16.971,0l3.889,3.889
				C32.803,37.095,32.803,41.843,29.874,44.772z"/>
		</g>
		<g>
			<path class="st0" d="M18.207,53.829c-2.048,0-4.097-0.779-5.657-2.339l-3.889-3.889c-4.874-4.874-4.874-12.804,0-17.678
				c2.361-2.361,5.5-3.661,8.839-3.661c3.339,0,6.478,1.3,8.839,3.661l3.889,3.889c3.12,3.119,3.12,8.194,0,11.313l-6.364,6.364
				C22.305,53.049,20.256,53.829,18.207,53.829z M17.5,27.262c-3.072,0-5.959,1.196-8.132,3.368c-4.483,4.484-4.483,11.779,0,16.264
				l3.889,3.889c2.73,2.729,7.171,2.728,9.9,0l6.364-6.364l0,0c2.729-2.729,2.729-7.17,0-9.899l-3.889-3.889
				C23.46,28.458,20.572,27.262,17.5,27.262z"/>
		</g>
	</g>
	<g>
		<g>
			<path class="st0" d="M34.117,59c-0.384,0-0.769-0.146-1.061-0.438l-7.778-7.778c-0.283-0.283-0.439-0.66-0.439-1.061
				s0.156-0.777,0.439-1.061l2.122-2.121c0.565-0.566,1.555-0.566,2.121,0l7.778,7.777c0.585,0.585,0.585,1.537,0,2.122
				l-2.121,2.121C34.886,58.853,34.501,59,34.117,59z M28.46,47.101c-0.134,0-0.259,0.052-0.353,0.146l-2.122,2.121
				c-0.195,0.195-0.195,0.512,0,0.707l7.778,7.778c0.195,0.195,0.512,0.195,0.707,0l2.121-2.121c0.195-0.195,0.195-0.513,0-0.708
				l-7.778-7.777C28.719,47.153,28.594,47.101,28.46,47.101z"/>
		</g>
	</g>
	<g>
		<g>
			<path class="st0" d="M21.533,53.05c-0.225,0-0.424-0.151-0.483-0.371c-0.061-0.23,0.048-0.472,0.261-0.577
				c0.693-0.344,1.314-0.787,1.846-1.319l6.364-6.364c0.534-0.533,0.978-1.154,1.32-1.847c0.105-0.214,0.344-0.321,0.577-0.262
				c0.23,0.062,0.385,0.276,0.371,0.514l-0.354,5.868c-0.012,0.196-0.138,0.367-0.322,0.438c-0.183,0.069-0.391,0.025-0.531-0.114
				l-1.768-1.768c-0.19-0.189-0.518-0.189-0.707,0l-2.122,2.121c-0.094,0.095-0.146,0.22-0.146,0.354s0.052,0.259,0.146,0.354
				l1.768,1.768c0.139,0.139,0.184,0.347,0.114,0.531c-0.07,0.184-0.241,0.31-0.437,0.321l-5.866,0.354
				C21.553,53.05,21.543,53.05,21.533,53.05z M24.985,50.369l-1.121,1.121c-0.156,0.156-0.319,0.306-0.488,0.448l2.884-0.174
				l-0.982-0.981C25.154,50.659,25.057,50.518,24.985,50.369z M29.107,46.247c0.152,0.073,0.292,0.172,0.414,0.294l0.982,0.981
				l0.174-2.885c-0.143,0.169-0.292,0.332-0.449,0.488L29.107,46.247z"/>
		</g>
	</g>
	<g>
		<g>
			<circle class="st1" cx="48.5" cy="16.001" r="4"/>
		</g>
		<g>
			<path class="st0" d="M48.5,20.5c-2.481,0-4.5-2.019-4.5-4.5s2.019-4.5,4.5-4.5S53,13.519,53,16S50.981,20.5,48.5,20.5z
				 M48.5,12.5c-1.93,0-3.5,1.57-3.5,3.5s1.57,3.5,3.5,3.5S52,17.93,52,16S50.43,12.5,48.5,12.5z"/>
		</g>
	</g>
	<g>
		<g>
			<path class="st0" d="M56.5,58.5h-2c-0.276,0-0.5-0.224-0.5-0.5s0.224-0.5,0.5-0.5h2c0.276,0,0.5,0.224,0.5,0.5
				S56.776,58.5,56.5,58.5z"/>
		</g>
	</g>
	<g>
		<g>
			<path class="st0" d="M52.5,58.5H41c-0.276,0-0.5-0.224-0.5-0.5s0.224-0.5,0.5-0.5h11.5c0.276,0,0.5,0.224,0.5,0.5
				S52.776,58.5,52.5,58.5z"/>
		</g>
	</g>
	<g>
		<g>
			<path class="st0" d="M7.5,20.5h-2C5.224,20.5,5,20.277,5,20s0.224-0.5,0.5-0.5h2C7.776,19.5,8,19.724,8,20S7.776,20.5,7.5,20.5z"
				/>
		</g>
	</g>
	<g>
		<g>
			<path class="st0" d="M21,20.5H9.5C9.224,20.5,9,20.277,9,20s0.224-0.5,0.5-0.5H21c0.276,0,0.5,0.224,0.5,0.5S21.276,20.5,21,20.5
				z"/>
		</g>
	</g>
	<g>
		<g>
			<path class="st0" d="M53.5,8h-4C49.224,8,49,7.777,49,7.5S49.224,7,49.5,7h4C53.776,7,54,7.224,54,7.5S53.776,8,53.5,8z"/>
		</g>
	</g>
	<g>
		<g>
			<path class="st0" d="M51.5,10C51.224,10,51,9.777,51,9.5v-4C51,5.224,51.224,5,51.5,5S52,5.224,52,5.5v4
				C52,9.777,51.776,10,51.5,10z"/>
		</g>
	</g>
	<g>
		<g>
			<path class="st0" d="M58.5,12h-4c-0.276,0-0.5-0.224-0.5-0.5s0.224-0.5,0.5-0.5h4c0.276,0,0.5,0.224,0.5,0.5S58.776,12,58.5,12z"
				/>
		</g>
	</g>
	<g>
		<g>
			<path class="st0" d="M56.5,14c-0.276,0-0.5-0.224-0.5-0.5v-4C56,9.224,56.224,9,56.5,9S57,9.224,57,9.5v4
				C57,13.777,56.776,14,56.5,14z"/>
		</g>
	</g>
	<g>
		<g>
			<path class="st0" d="M43,41c-0.069,0-0.14-0.015-0.205-0.044c-0.18-0.081-0.295-0.26-0.295-0.456V38c0-0.275-0.225-0.5-0.5-0.5
				h-3c-0.275,0-0.5,0.225-0.5,0.5v2.5c0,0.196-0.115,0.375-0.295,0.456c-0.18,0.079-0.39,0.049-0.537-0.082l-4.398-3.898
				c-0.178-0.157-0.22-0.419-0.101-0.625c0.12-0.206,0.369-0.298,0.593-0.223C34.492,36.375,35.245,36.5,36,36.5h9
				c0.754,0,1.507-0.126,2.239-0.373c0.224-0.074,0.473,0.017,0.593,0.223c0.119,0.206,0.077,0.468-0.101,0.625l-4.399,3.899
				C43.238,40.958,43.12,41,43,41z M35.338,37.472l2.162,1.917V38c0-0.175,0.03-0.344,0.086-0.5H36
				C35.779,37.5,35.558,37.491,35.338,37.472z M43.414,37.5C43.47,37.657,43.5,37.826,43.5,38v1.389l2.163-1.917
				C45.442,37.491,45.221,37.5,45,37.5H43.414z"/>
		</g>
	</g>
</g>
</svg>
