<?xml version="1.0" encoding="utf-8"?>
<!-- Generator: Adobe Illustrator 22.0.0, SVG Export Plug-In . SVG Version: 6.00 Build 0)  -->
<svg version="1.1" id="Layer_1" xmlns="http://www.w3.org/2000/svg" xmlns:xlink="http://www.w3.org/1999/xlink" x="0px" y="0px"
	 viewBox="0 0 64 64" style="enable-background:new 0 0 64 64;" xml:space="preserve">
<style type="text/css">
	.st0{fill:#263238;}
	.st1{fill:#FFD740;}
	.st2{fill:#40C4FF;}
	.st3{fill:#FF5252;}
	.st4{fill:#4FC3F7;}
	.st5{fill:#FFFFFF;}
	.st6{fill:#4DB6AC;}
	.st7{fill:#FFCA28;}
	.st8{fill:#37474F;}
</style>
<g>
	<g>
		<g>
			<path class="st0" d="M21.688,58c-0.276,0-0.5-0.224-0.5-0.5v-10c0-0.276,0.224-0.5,0.5-0.5s0.5,0.224,0.5,0.5v10
				C22.188,57.776,21.964,58,21.688,58z"/>
		</g>
	</g>
	<g>
		<g>
			<path class="st0" d="M62,10H2c-0.276,0-0.5-0.224-0.5-0.5v-5C1.5,4.224,1.724,4,2,4h60c0.276,0,0.5,0.224,0.5,0.5v5
				C62.5,9.776,62.276,10,62,10z M2.5,9h59V5h-59V9z"/>
		</g>
	</g>
	<g>
		<g>
			<path class="st0" d="M60,60c-0.276,0-0.5-0.224-0.5-0.5V10h-55v49.5C4.5,59.776,4.276,60,4,60s-0.5-0.224-0.5-0.5v-50
				C3.5,9.224,3.724,9,4,9h56c0.276,0,0.5,0.224,0.5,0.5v50C60.5,59.776,60.276,60,60,60z"/>
		</g>
	</g>
	<g>
		<g>
			<path class="st0" d="M53.688,60c-0.276,0-0.5-0.224-0.5-0.5V17h-43v42.5c0,0.276-0.224,0.5-0.5,0.5s-0.5-0.224-0.5-0.5v-43
				c0-0.276,0.224-0.5,0.5-0.5h44c0.276,0,0.5,0.224,0.5,0.5v43C54.188,59.776,53.964,60,53.688,60z"/>
		</g>
	</g>
	<g>
		<g>
			<path class="st0" d="M49.188,59.978h-14c-0.276,0-0.5-0.224-0.5-0.5v-12c0-0.276,0.224-0.5,0.5-0.5h14c0.276,0,0.5,0.224,0.5,0.5
				v12C49.688,59.754,49.464,59.978,49.188,59.978z M35.688,58.978h13v-11h-13V58.978z"/>
		</g>
	</g>
	<g>
		<g>
			<circle class="st1" cx="34.187" cy="55.477" r="4"/>
		</g>
		<g>
			<path class="st0" d="M34.188,59.978c-2.481,0-4.5-2.019-4.5-4.5s2.019-4.5,4.5-4.5s4.5,2.019,4.5,4.5
				S36.669,59.978,34.188,59.978z M34.188,51.978c-1.93,0-3.5,1.57-3.5,3.5s1.57,3.5,3.5,3.5s3.5-1.57,3.5-3.5
				S36.117,51.978,34.188,51.978z"/>
		</g>
	</g>
	<g>
		<g>
			<rect x="17.187" y="35.5" class="st3" width="9" height="12"/>
		</g>
		<g>
			<path class="st0" d="M26.188,48h-9c-0.276,0-0.5-0.224-0.5-0.5v-12c0-0.276,0.224-0.5,0.5-0.5h9c0.276,0,0.5,0.224,0.5,0.5v12
				C26.688,47.776,26.464,48,26.188,48z M17.688,47h8V36h-8V47z"/>
		</g>
	</g>
	<g>
		<g>
			<path class="st0" d="M28.688,43c-0.146,0-0.287-0.063-0.384-0.18l-2.5-3c-0.075-0.09-0.116-0.203-0.116-0.32v-4
				c0-0.211,0.132-0.398,0.33-0.47c0.198-0.075,0.419-0.012,0.554,0.149l2.5,3c0.075,0.09,0.116,0.203,0.116,0.32v4
				c0,0.211-0.132,0.398-0.33,0.47C28.802,42.99,28.744,43,28.688,43z M26.688,39.319l1.5,1.8v-2.438l-1.5-1.8V39.319z"/>
		</g>
	</g>
	<g>
		<g>
			<path class="st0" d="M14.688,43c-0.057,0-0.114-0.01-0.17-0.03c-0.198-0.071-0.33-0.259-0.33-0.47v-4
				c0-0.117,0.041-0.23,0.116-0.32l2.5-3c0.134-0.161,0.354-0.225,0.554-0.149c0.198,0.071,0.33,0.259,0.33,0.47v4
				c0,0.117-0.041,0.23-0.116,0.32l-2.5,3C14.975,42.937,14.833,43,14.688,43z M15.188,38.681v2.438l1.5-1.8v-2.438L15.188,38.681z"
				/>
		</g>
	</g>
	<g>
		<g>
			<path class="st0" d="M21.688,36c-0.276,0-0.5-0.224-0.5-0.5V34c0-0.276,0.224-0.5,0.5-0.5c0.552,0,1-0.448,1-1s-0.448-1-1-1
				s-1,0.448-1,1c0,0.276-0.224,0.5-0.5,0.5s-0.5-0.224-0.5-0.5c0-1.103,0.897-2,2-2s2,0.897,2,2c0,0.931-0.639,1.714-1.5,1.937
				V35.5C22.188,35.776,21.964,36,21.688,36z"/>
		</g>
	</g>
	<g>
		<g>
			<path class="st0" d="M26.188,60h-9c-0.276,0-0.5-0.224-0.5-0.5v-2c0-0.276,0.224-0.5,0.5-0.5h9c0.276,0,0.5,0.224,0.5,0.5v2
				C26.688,59.776,26.464,60,26.188,60z M17.688,59h8v-1h-8V59z"/>
		</g>
	</g>
	<g>
		<g>
			<path class="st0" d="M48.996,43.977h-4.329c-0.167,0-0.323-0.083-0.416-0.223c-0.093-0.139-0.109-0.314-0.046-0.469L49.53,30.43
				c0.106-0.255,0.399-0.378,0.653-0.271l3.695,1.53c0.122,0.051,0.22,0.148,0.271,0.271c0.051,0.123,0.051,0.26,0,0.383
				l-4.691,11.325C49.381,43.854,49.198,43.977,48.996,43.977z M45.415,42.977h3.247l4.372-10.555l-2.771-1.147L45.415,42.977z"/>
		</g>
	</g>
	<g>
		<g>
			<rect x="33.677" y="25.767" class="st6" width="12" height="8.5"/>
		</g>
		<g>
			<path class="st0" d="M45.677,34.767h-12c-0.276,0-0.5-0.224-0.5-0.5v-8.5c0-0.276,0.224-0.5,0.5-0.5h12
				c0.276,0,0.5,0.224,0.5,0.5v8.5C46.177,34.543,45.953,34.767,45.677,34.767z M34.177,33.767h11v-7.5h-11V33.767z"/>
		</g>
	</g>
	<g>
		<g>
			<path class="st0" d="M43.177,26.267c-0.139,0-0.277-0.058-0.376-0.171l-3.124-3.569l-3.124,3.569
				c-0.183,0.209-0.499,0.228-0.705,0.047c-0.208-0.182-0.229-0.497-0.047-0.705l3.5-4c0.189-0.217,0.562-0.217,0.752,0l3.5,4
				c0.183,0.208,0.161,0.523-0.047,0.705C43.411,26.226,43.294,26.267,43.177,26.267z"/>
		</g>
	</g>
	<g>
		<g>
			<path class="st0" d="M17.188,60h-7.5c-0.276,0-0.5-0.224-0.5-0.5v-10c0-0.276,0.224-0.5,0.5-0.5h9c0.276,0,0.5,0.224,0.5,0.5v8
				c0,0.276-0.224,0.5-0.5,0.5h-1v1.5C17.688,59.776,17.464,60,17.188,60z M10.188,59h6.5v-1.5c0-0.276,0.224-0.5,0.5-0.5h1v-7h-8
				V59z"/>
		</g>
	</g>
	<g>
		<g>
			<path class="st0" d="M14.688,24h-1c-0.276,0-0.5-0.224-0.5-0.5s0.224-0.5,0.5-0.5h1c0.276,0,0.5,0.224,0.5,0.5
				S14.964,24,14.688,24z"/>
		</g>
	</g>
	<g>
		<g>
			<path class="st0" d="M26.688,24h-10c-0.276,0-0.5-0.224-0.5-0.5s0.224-0.5,0.5-0.5h10c0.276,0,0.5,0.224,0.5,0.5
				S26.964,24,26.688,24z"/>
		</g>
	</g>
	<g>
		<g>
			<path class="st0" d="M35.188,21h-1c-0.276,0-0.5-0.224-0.5-0.5s0.224-0.5,0.5-0.5h1c0.276,0,0.5,0.224,0.5,0.5
				S35.464,21,35.188,21z"/>
		</g>
	</g>
	<g>
		<g>
			<path class="st0" d="M32.188,21h-10c-0.276,0-0.5-0.224-0.5-0.5s0.224-0.5,0.5-0.5h10c0.276,0,0.5,0.224,0.5,0.5
				S32.464,21,32.188,21z"/>
		</g>
	</g>
	<g>
		<g>
			<path class="st0" d="M45.677,31.517h-8c-0.227,0-0.425-0.152-0.483-0.372c-0.058-0.219,0.038-0.449,0.235-0.562l1.865-1.065
				h-5.617c-0.276,0-0.5-0.224-0.5-0.5s0.224-0.5,0.5-0.5h7.5c0.227,0,0.425,0.152,0.483,0.372c0.058,0.219-0.038,0.449-0.235,0.562
				l-1.865,1.065h6.117c0.276,0,0.5,0.224,0.5,0.5S45.953,31.517,45.677,31.517z"/>
		</g>
	</g>
	<g>
		<g>
			<path class="st0" d="M50.188,47.978h-16c-0.276,0-0.5-0.224-0.5-0.5v-4c0-0.276,0.224-0.5,0.5-0.5h16c0.276,0,0.5,0.224,0.5,0.5
				v4C50.688,47.754,50.464,47.978,50.188,47.978z M34.688,46.978h15v-3h-15V46.978z"/>
		</g>
	</g>
</g>
</svg>
