<?xml version="1.0" encoding="utf-8"?>
<!-- Generator: Adobe Illustrator 22.0.0, SVG Export Plug-In . SVG Version: 6.00 Build 0)  -->
<svg version="1.1" id="Layer_1" xmlns="http://www.w3.org/2000/svg" xmlns:xlink="http://www.w3.org/1999/xlink" x="0px" y="0px"
	 viewBox="0 0 64 64" style="enable-background:new 0 0 64 64;" xml:space="preserve">
<style type="text/css">
	.st0{fill:#263238;}
	.st1{fill:#FFD740;}
	.st2{fill:#40C4FF;}
	.st3{fill:#FF5252;}
	.st4{fill:#4FC3F7;}
	.st5{fill:#FFFFFF;}
	.st6{fill:#4DB6AC;}
	.st7{fill:#FFCA28;}
	.st8{fill:#37474F;}
</style>
<g>
	<g>
		<g>
			<path class="st0" d="M63.5,38.5h-1c-0.276,0-0.5-0.224-0.5-0.5s0.224-0.5,0.5-0.5h1c0.276,0,0.5,0.224,0.5,0.5
				S63.776,38.5,63.5,38.5z"/>
		</g>
	</g>
	<g>
		<g>
			<path class="st0" d="M60.5,38.5H53c-0.276,0-0.5-0.224-0.5-0.5s0.224-0.5,0.5-0.5h7.5c0.276,0,0.5,0.224,0.5,0.5
				S60.776,38.5,60.5,38.5z"/>
		</g>
	</g>
	<g>
		<g>
			<path class="st0" d="M1.5,38.5h-1C0.224,38.5,0,38.276,0,38s0.224-0.5,0.5-0.5h1C1.776,37.5,2,37.724,2,38S1.776,38.5,1.5,38.5z"
				/>
		</g>
	</g>
	<g>
		<g>
			<path class="st0" d="M11,38.5H3.5C3.224,38.5,3,38.276,3,38s0.224-0.5,0.5-0.5H11c0.276,0,0.5,0.224,0.5,0.5S11.276,38.5,11,38.5
				z"/>
		</g>
	</g>
	<g>
		<g>
			<path class="st0" d="M16.5,12.5h-4c-0.276,0-0.5-0.224-0.5-0.5s0.224-0.5,0.5-0.5h4c0.276,0,0.5,0.224,0.5,0.5
				S16.776,12.5,16.5,12.5z"/>
		</g>
	</g>
	<g>
		<g>
			<path class="st0" d="M14.5,14.5c-0.276,0-0.5-0.224-0.5-0.5v-4c0-0.276,0.224-0.5,0.5-0.5S15,9.724,15,10v4
				C15,14.276,14.776,14.5,14.5,14.5z"/>
		</g>
	</g>
	<g>
		<g>
			<path class="st0" d="M11,18H7c-0.276,0-0.5-0.224-0.5-0.5S6.724,17,7,17h4c0.276,0,0.5,0.224,0.5,0.5S11.276,18,11,18z"/>
		</g>
	</g>
	<g>
		<g>
			<path class="st0" d="M9,20c-0.276,0-0.5-0.224-0.5-0.5v-4C8.5,15.224,8.724,15,9,15s0.5,0.224,0.5,0.5v4
				C9.5,19.776,9.276,20,9,20z"/>
		</g>
	</g>
	<g>
		<g>
			<path class="st0" d="M45,59.5H19c-3.032,0-5.5-2.468-5.5-5.5V24c0-3.032,2.468-5.5,5.5-5.5h26c3.032,0,5.5,2.468,5.5,5.5v30
				C50.5,57.032,48.032,59.5,45,59.5z M19,19.5c-2.481,0-4.5,2.019-4.5,4.5v30c0,2.481,2.019,4.5,4.5,4.5h26
				c2.481,0,4.5-2.019,4.5-4.5V24c0-2.481-2.019-4.5-4.5-4.5H19z"/>
		</g>
	</g>
	<g>
		<g>
			<g>
				<path class="st2" d="M42.5,8.5C42.5,4.358,39.142,1,35,1h-6c-4.142,0-7.5,3.358-7.5,7.5V17h3V9c0-2.762,2.239-5,5-5h5
					c2.761,0,5,2.238,5,5v8h3V8.5z"/>
			</g>
		</g>
		<g>
			<path class="st0" d="M42.5,17.501c-0.276,0-0.5-0.224-0.5-0.5V8.5c0-3.859-3.141-7-7-7h-6c-3.859,0-7,3.141-7,7V17
				c0,0.276-0.224,0.5-0.5,0.5S21,17.276,21,17V8.5c0-4.411,3.589-8,8-8h6c4.411,0,8,3.589,8,8v8.501
				C43,17.277,42.776,17.501,42.5,17.501z M39.5,17.5c-0.276,0-0.5-0.224-0.5-0.5V9c0-2.481-2.019-4.5-4.5-4.5h-5
				C27.019,4.5,25,6.519,25,9v8c0,0.276-0.224,0.5-0.5,0.5S24,17.276,24,17V9c0-3.032,2.468-5.5,5.5-5.5h5C37.532,3.5,40,5.968,40,9
				v8C40,17.276,39.776,17.5,39.5,17.5z"/>
		</g>
	</g>
	<g>
		<g>
			<path class="st1" d="M42,59H22V37c0-2.761,2.239-5,5-5h10c2.761,0,5,2.239,5,5V59z"/>
		</g>
		<g>
			<path class="st0" d="M42,59.5H22c-0.276,0-0.5-0.224-0.5-0.5V37c0-3.032,2.468-5.5,5.5-5.5h10c3.032,0,5.5,2.468,5.5,5.5v22
				C42.5,59.276,42.276,59.5,42,59.5z M22.5,58.5h19V37c0-2.481-2.019-4.5-4.5-4.5H27c-2.481,0-4.5,2.019-4.5,4.5V58.5z"/>
		</g>
	</g>
	<g>
		<g>
			<path class="st0" d="M42,38.5H22c-0.276,0-0.5-0.224-0.5-0.5s0.224-0.5,0.5-0.5h20c0.276,0,0.5,0.224,0.5,0.5
				S42.276,38.5,42,38.5z"/>
		</g>
	</g>
	<g>
		<g>
			<path class="st0" d="M33.5,44.5h-3c-0.827,0-1.5-0.673-1.5-1.5v-1c0-0.827,0.673-1.5,1.5-1.5h3c0.827,0,1.5,0.673,1.5,1.5v1
				C35,43.827,34.327,44.5,33.5,44.5z M30.5,41.5c-0.275,0-0.5,0.225-0.5,0.5v1c0,0.275,0.225,0.5,0.5,0.5h3
				c0.275,0,0.5-0.225,0.5-0.5v-1c0-0.275-0.225-0.5-0.5-0.5H30.5z"/>
		</g>
	</g>
	<g>
		<g>
			<path class="st0" d="M22,63.5c-1.379,0-2.5-1.121-2.5-2.5c0-0.276,0.224-0.5,0.5-0.5s0.5,0.224,0.5,0.5
				c0,0.827,0.673,1.5,1.5,1.5s1.5-0.673,1.5-1.5c0-0.276,0.224-0.5,0.5-0.5s0.5,0.224,0.5,0.5C24.5,62.379,23.379,63.5,22,63.5z"/>
		</g>
	</g>
	<g>
		<g>
			<path class="st0" d="M42,63.5c-1.379,0-2.5-1.121-2.5-2.5c0-0.276,0.224-0.5,0.5-0.5s0.5,0.224,0.5,0.5
				c0,0.827,0.673,1.5,1.5,1.5s1.5-0.673,1.5-1.5c0-0.276,0.224-0.5,0.5-0.5s0.5,0.224,0.5,0.5C44.5,62.379,43.379,63.5,42,63.5z"/>
		</g>
	</g>
	<g>
		<g>
			<path class="st0" d="M47,30.5c-0.276,0-0.5-0.224-0.5-0.5v-5.5c0-1.103-0.897-2-2-2H39c-0.276,0-0.5-0.224-0.5-0.5
				s0.224-0.5,0.5-0.5h5.5c1.654,0,3,1.346,3,3V30C47.5,30.276,47.276,30.5,47,30.5z"/>
		</g>
	</g>
</g>
</svg>
