<?xml version="1.0" encoding="utf-8"?>
<!-- Generator: Adobe Illustrator 22.0.0, SVG Export Plug-In . SVG Version: 6.00 Build 0)  -->
<svg version="1.1" id="Layer_1" xmlns="http://www.w3.org/2000/svg" xmlns:xlink="http://www.w3.org/1999/xlink" x="0px" y="0px"
	 viewBox="0 0 64 64" style="enable-background:new 0 0 64 64;" xml:space="preserve">
<style type="text/css">
	.st0{fill:#263238;}
	.st1{fill:#FFD740;}
	.st2{fill:#40C4FF;}
	.st3{fill:#FF5252;}
	.st4{fill:#4FC3F7;}
	.st5{fill:#FFFFFF;}
	.st6{fill:#4DB6AC;}
	.st7{fill:#FFCA28;}
	.st8{fill:#37474F;}
</style>
<g>
	<g>
		<g>
			<path class="st0" d="M17.179,63.24H0.75c-0.276,0-0.5-0.224-0.5-0.5s0.224-0.5,0.5-0.5h16.429c1.202,0,2.332-0.468,3.182-1.318
				l4.571-4.571c1.039-1.039,2.42-1.611,3.889-1.611h17.728c1.207,0,2.398,0.405,3.354,1.14l3.804,2.926
				c0.783,0.602,1.757,0.934,2.744,0.934h6.799c0.276,0,0.5,0.224,0.5,0.5s-0.224,0.5-0.5,0.5h-6.799
				c-1.207,0-2.397-0.405-3.354-1.141l-3.804-2.926c-0.782-0.602-1.757-0.933-2.744-0.933H28.821c-1.202,0-2.332,0.468-3.182,1.318
				l-4.571,4.571C20.029,62.668,18.648,63.24,17.179,63.24z"/>
		</g>
	</g>
	<g>
		<g>
			<path class="st0" d="M56.556,17.769c-0.004,0-0.008,0-0.013,0l-4-0.018c-0.667-0.003-1.294-0.266-1.764-0.74
				c-0.47-0.474-0.728-1.103-0.725-1.771c0.005-1.222,0.892-2.238,2.053-2.449c0.093-0.493,0.333-0.946,0.697-1.307
				c0.474-0.471,1.096-0.755,1.771-0.725c0.667,0.003,1.294,0.266,1.764,0.74c0.361,0.364,0.596,0.819,0.685,1.313
				c0.493,0.093,0.946,0.332,1.307,0.696c0.47,0.474,0.727,1.103,0.724,1.771c-0.003,0.667-0.266,1.294-0.74,1.764
				C57.843,17.512,57.219,17.769,56.556,17.769z M52.555,13.751c-0.824,0-1.497,0.668-1.5,1.494c-0.002,0.4,0.153,0.778,0.435,1.062
				c0.282,0.284,0.658,0.442,1.059,0.444l4,0.018c0.427,0.005,0.778-0.152,1.062-0.434c0.284-0.282,0.442-0.658,0.444-1.059
				c0.002-0.4-0.152-0.778-0.435-1.062c-0.282-0.284-0.658-0.442-1.059-0.444c-0.132,0-0.259-0.054-0.353-0.148
				c-0.094-0.094-0.146-0.222-0.145-0.354c0.002-0.401-0.152-0.778-0.434-1.063c-0.282-0.284-0.658-0.442-1.059-0.444
				c-0.438-0.031-0.778,0.153-1.062,0.435c-0.284,0.282-0.442,0.658-0.444,1.059c-0.001,0.275-0.225,0.498-0.5,0.498
				C52.561,13.75,52.557,13.75,52.555,13.751z"/>
		</g>
	</g>
	<g>
		<g>
			<path class="st0" d="M32.75,7.76h-1c-0.276,0-0.5-0.224-0.5-0.5s0.224-0.5,0.5-0.5h1c0.276,0,0.5,0.224,0.5,0.5
				S33.026,7.76,32.75,7.76z"/>
		</g>
	</g>
	<g>
		<g>
			<path class="st0" d="M44.75,7.76h-10c-0.276,0-0.5-0.224-0.5-0.5s0.224-0.5,0.5-0.5h10c0.276,0,0.5,0.224,0.5,0.5
				S45.026,7.76,44.75,7.76z"/>
		</g>
	</g>
	<g>
		<g>
			<path class="st0" d="M53.25,4.76h-1c-0.276,0-0.5-0.224-0.5-0.5s0.224-0.5,0.5-0.5h1c0.276,0,0.5,0.224,0.5,0.5
				S53.526,4.76,53.25,4.76z"/>
		</g>
	</g>
	<g>
		<g>
			<path class="st0" d="M50.25,4.76h-10c-0.276,0-0.5-0.224-0.5-0.5s0.224-0.5,0.5-0.5h10c0.276,0,0.5,0.224,0.5,0.5
				S50.526,4.76,50.25,4.76z"/>
		</g>
	</g>
	<g>
		<g>
			<path class="st2" d="M19.821,33.76h-10c-1.381,0-2.5-1.119-2.5-2.5v-12c0-1.381,1.119-2.5,2.5-2.5h10c1.381,0,2.5,1.119,2.5,2.5
				v12C22.321,32.641,21.202,33.76,19.821,33.76z"/>
		</g>
		<g>
			<path class="st0" d="M19.821,34.26h-10c-1.654,0-3-1.346-3-3v-12c0-1.654,1.346-3,3-3h10c1.654,0,3,1.346,3,3v12
				C22.821,32.914,21.476,34.26,19.821,34.26z M9.821,17.26c-1.103,0-2,0.897-2,2v12c0,1.103,0.897,2,2,2h10c1.103,0,2-0.897,2-2
				v-12c0-1.103-0.897-2-2-2H9.821z"/>
		</g>
	</g>
	<g>
		<g>
			<path class="st1" d="M22.321,16.76h-15c-0.552,0-1-0.448-1-1v-4c0-0.552,0.448-1,1-1h15c0.552,0,1,0.448,1,1v4
				C23.321,16.312,22.874,16.76,22.321,16.76z"/>
		</g>
		<g>
			<path class="st0" d="M22.321,17.26h-15c-0.827,0-1.5-0.673-1.5-1.5v-4c0-0.827,0.673-1.5,1.5-1.5h15c0.827,0,1.5,0.673,1.5,1.5v4
				C23.821,16.587,23.148,17.26,22.321,17.26z M7.321,11.26c-0.276,0-0.5,0.224-0.5,0.5v4c0,0.276,0.224,0.5,0.5,0.5h15
				c0.276,0,0.5-0.224,0.5-0.5v-4c0-0.276-0.224-0.5-0.5-0.5H7.321z"/>
		</g>
	</g>
	<g>
		<g>
			<path class="st0" d="M24.358,10.071c-0.064,0-0.13-0.012-0.193-0.039c-0.255-0.106-0.375-0.399-0.269-0.654
				c0.282-0.673,0.424-1.386,0.424-2.119c0-3.033-2.467-5.5-5.5-5.5s-5.5,2.467-5.5,5.5c0,0.448,0.061,0.911,0.181,1.375
				c0.069,0.267-0.091,0.54-0.359,0.609c-0.267,0.072-0.54-0.091-0.609-0.359c-0.141-0.546-0.213-1.093-0.213-1.625
				c0-3.584,2.916-6.5,6.5-6.5s6.5,2.916,6.5,6.5c0,0.866-0.169,1.708-0.501,2.504C24.74,9.956,24.554,10.071,24.358,10.071z"/>
		</g>
	</g>
	<g>
		<g>
			<path class="st0" d="M18.821,57.24h-8c-0.276,0-0.5-0.224-0.5-0.5V35.76c0-0.276,0.224-0.5,0.5-0.5s0.5,0.224,0.5,0.5v20.48h7
				v-18.5c0-0.276,0.224-0.5,0.5-0.5h8c0.276,0,0.5,0.224,0.5,0.5v10.5h6v-11.5c0-2.481-2.019-4.5-4.5-4.5h-4.5
				c-0.276,0-0.5-0.224-0.5-0.5s0.224-0.5,0.5-0.5h4.5c3.033,0,5.5,2.467,5.5,5.5v12c0,0.276-0.224,0.5-0.5,0.5h-7
				c-0.276,0-0.5-0.224-0.5-0.5v-10.5h-7v18.5C19.321,57.016,19.098,57.24,18.821,57.24z"/>
		</g>
	</g>
	<g>
		<g>
			<path class="st0" d="M26.821,32.26L26.821,32.26c-0.276,0-0.5-0.224-0.5-0.5l0.001-11.425c0-0.202,0.122-0.385,0.309-0.462
				c0.188-0.078,0.402-0.034,0.545,0.108l3.729,3.729c0.837,0.837,1.997,1.318,3.182,1.318h7.464v-4h-6.429
				c-0.802,0-1.556-0.312-2.122-0.879l-5.801-5.802c-0.377-0.377-0.879-0.585-1.413-0.586l-0.465,0c-0.276,0-0.5-0.225-0.5-0.5
				s0.224-0.5,0.5-0.5h0l0.466,0c0.801,0.001,1.553,0.313,2.119,0.879l5.801,5.802c0.377,0.378,0.88,0.586,1.415,0.586h6.929
				c0.276,0,0.5,0.224,0.5,0.5v5c0,0.276-0.224,0.5-0.5,0.5h-7.964c-1.469,0-2.85-0.572-3.889-1.611l-2.875-2.875L27.321,31.76
				C27.321,32.036,27.097,32.26,26.821,32.26z"/>
		</g>
	</g>
	<g>
		<g>
			<path class="st0" d="M37.821,53.74c-0.276,0-0.5-0.224-0.5-0.5v-2c0-1.103-0.897-2-2-2h-8v4c0,0.276-0.224,0.5-0.5,0.5
				s-0.5-0.224-0.5-0.5v-4.5c0-0.276,0.224-0.5,0.5-0.5h8.5c1.654,0,3,1.346,3,3v2C38.321,53.516,38.098,53.74,37.821,53.74z"/>
		</g>
	</g>
	<g>
		<g>
			<path class="st0" d="M10.821,61.24c-0.276,0-0.5-0.224-0.5-0.5v-4c0-0.276,0.224-0.5,0.5-0.5h8.5
				c0.969,0,1.884,0.476,2.447,1.273c0.16,0.226,0.106,0.538-0.12,0.697c-0.227,0.159-0.538,0.105-0.697-0.12
				c-0.376-0.532-0.986-0.85-1.631-0.85h-8v3.5C11.321,61.016,11.098,61.24,10.821,61.24z"/>
		</g>
	</g>
	<g>
		<g>
			<path class="st0" d="M44.054,26.028c-0.273,0.008-0.484-0.202-0.502-0.465c-0.019-0.262,0.168-0.493,0.428-0.53
				c0.027-0.004,0.05-0.005,0.08-0.005c0.532-0.001,1.031-0.208,1.408-0.585c0.378-0.377,0.587-0.88,0.587-1.415
				c0-1.101-0.896-1.999-1.997-2c-0.274-0.034-0.501-0.286-0.467-0.561c0.034-0.273,0.245-0.467,0.525-0.436c0,0,0.001,0,0.002,0
				c1.593,0,2.936,1.345,2.936,2.997c0,0.802-0.312,1.556-0.88,2.123C45.607,25.716,44.855,26.028,44.054,26.028z"/>
		</g>
	</g>
	<g>
		<g>
			<path class="st0" d="M45.551,53.74c-0.276,0-0.5-0.224-0.5-0.5V27.528c0-0.276,0.224-0.5,0.5-0.5s0.5,0.224,0.5,0.5V53.24
				C46.051,53.516,45.827,53.74,45.551,53.74z"/>
		</g>
	</g>
	<g>
		<g>
			<path class="st2" d="M19.821,25.76h-10c-1.381,0-2.5-1.119-2.5-2.5v-4c0-1.381,1.119-2.5,2.5-2.5h10c1.381,0,2.5,1.119,2.5,2.5v4
				C22.321,24.641,21.202,25.76,19.821,25.76z"/>
		</g>
		<g>
			<path class="st0" d="M19.821,26.26h-10c-1.654,0-3-1.346-3-3v-4c0-1.654,1.346-3,3-3h10c1.654,0,3,1.346,3,3v4
				C22.821,24.914,21.476,26.26,19.821,26.26z M9.821,17.26c-1.103,0-2,0.897-2,2v4c0,1.103,0.897,2,2,2h10c1.103,0,2-0.897,2-2v-4
				c0-1.103-0.897-2-2-2H9.821z"/>
		</g>
	</g>
	<g>
		<g>
			<path class="st0" d="M17.321,21.76h-5c-0.276,0-0.5-0.224-0.5-0.5s0.224-0.5,0.5-0.5h5c0.276,0,0.5,0.224,0.5,0.5
				S17.598,21.76,17.321,21.76z"/>
		</g>
	</g>
	<g>
		<g>
			<path class="st0" d="M11.321,30.26c-0.128,0-0.256-0.049-0.354-0.146l-1-1c-0.094-0.094-0.146-0.221-0.146-0.354v-3
				c0-0.276,0.224-0.5,0.5-0.5h2c0.276,0,0.5,0.224,0.5,0.5v3c0,0.133-0.053,0.26-0.146,0.354l-1,1
				C11.577,30.211,11.449,30.26,11.321,30.26z M10.821,28.553l0.5,0.5l0.5-0.5V26.26h-1V28.553z M12.321,28.76h0.01H12.321z"/>
		</g>
	</g>
	<g>
		<g>
			<path class="st0" d="M18.321,30.26c-0.128,0-0.256-0.049-0.354-0.146l-1-1c-0.094-0.094-0.146-0.221-0.146-0.354v-3
				c0-0.276,0.224-0.5,0.5-0.5h2c0.276,0,0.5,0.224,0.5,0.5v3c0,0.133-0.053,0.26-0.146,0.354l-1,1
				C18.577,30.211,18.449,30.26,18.321,30.26z M17.821,28.553l0.5,0.5l0.5-0.5V26.26h-1V28.553z M19.321,28.76h0.01H19.321z"/>
		</g>
	</g>
	<g>
		<g>
			<path class="st0" d="M21.321,13.76h-13c-0.276,0-0.5-0.224-0.5-0.5s0.224-0.5,0.5-0.5h13c0.276,0,0.5,0.224,0.5,0.5
				S21.598,13.76,21.321,13.76z"/>
		</g>
	</g>
	<g>
		<g>
			<path class="st0" d="M43.551,53.74c-0.276,0-0.5-0.224-0.5-0.5V27.528c0-0.276,0.224-0.5,0.5-0.5s0.5,0.224,0.5,0.5V53.24
				C44.051,53.516,43.827,53.74,43.551,53.74z"/>
		</g>
	</g>
</g>
</svg>
