<?xml version="1.0" encoding="utf-8"?>
<!-- Generator: Adobe Illustrator 22.0.0, SVG Export Plug-In . SVG Version: 6.00 Build 0)  -->
<svg version="1.1" id="Layer_1" xmlns="http://www.w3.org/2000/svg" xmlns:xlink="http://www.w3.org/1999/xlink" x="0px" y="0px"
	 viewBox="0 0 64 64" style="enable-background:new 0 0 64 64;" xml:space="preserve">
<style type="text/css">
	.st0{fill:#263238;}
	.st1{fill:#FFD740;}
	.st2{fill:#40C4FF;}
	.st3{fill:#FF5252;}
	.st4{fill:#4FC3F7;}
	.st5{fill:#FFFFFF;}
	.st6{fill:#4DB6AC;}
	.st7{fill:#FFCA28;}
	.st8{fill:#37474F;}
</style>
<g>
	<g>
		<g>
			<path class="st0" d="M8.5,9.5C8.224,9.5,8,9.276,8,9V7c0-0.276,0.224-0.5,0.5-0.5S9,6.724,9,7v2C9,9.276,8.776,9.5,8.5,9.5z"/>
		</g>
	</g>
	<g>
		<g>
			<path class="st0" d="M8.5,20C8.224,20,8,19.776,8,19.5V11c0-0.276,0.224-0.5,0.5-0.5S9,10.724,9,11v8.5C9,19.776,8.776,20,8.5,20
				z"/>
		</g>
	</g>
	<g>
		<g>
			<path class="st0" d="M55.5,37.5c-0.276,0-0.5-0.224-0.5-0.5v-2c0-0.276,0.224-0.5,0.5-0.5S56,34.724,56,35v2
				C56,37.276,55.776,37.5,55.5,37.5z"/>
		</g>
	</g>
	<g>
		<g>
			<path class="st0" d="M55.5,33.5c-0.276,0-0.5-0.224-0.5-0.5v-8.5c0-0.276,0.224-0.5,0.5-0.5s0.5,0.224,0.5,0.5V33
				C56,33.276,55.776,33.5,55.5,33.5z"/>
		</g>
	</g>
	<g>
		<g>
			<path class="st1" d="M25.675,15H12.5v10.816H20c1.654,0,3,1.346,3,3V37h23.5c2.761,0,5-2.239,5-5V15H38.323"/>
		</g>
	</g>
	<g>
		<g>
			<path class="st0" d="M46.5,37.5H23c-0.276,0-0.5-0.224-0.5-0.5s0.224-0.5,0.5-0.5h23.5c2.481,0,4.5-2.019,4.5-4.5V15.5H38.322
				c-0.276,0-0.5-0.224-0.5-0.5s0.224-0.5,0.5-0.5H51.5c0.276,0,0.5,0.224,0.5,0.5v17C52,35.033,49.532,37.5,46.5,37.5z"/>
		</g>
	</g>
	<g>
		<g>
			<path class="st0" d="M12.5,26.316c-0.276,0-0.5-0.224-0.5-0.5V15c0-0.276,0.224-0.5,0.5-0.5h13.175c0.276,0,0.5,0.224,0.5,0.5
				s-0.224,0.5-0.5,0.5H13v10.316C13,26.093,12.776,26.316,12.5,26.316z"/>
		</g>
	</g>
	<g>
		<g>
			<circle class="st5" cx="32" cy="24" r="9"/>
		</g>
		<g>
			<path class="st0" d="M32,33.5c-5.238,0-9.5-4.262-9.5-9.5s4.262-9.5,9.5-9.5s9.5,4.262,9.5,9.5S37.238,33.5,32,33.5z M32,15.5
				c-4.687,0-8.5,3.813-8.5,8.5s3.813,8.5,8.5,8.5s8.5-3.813,8.5-8.5S36.687,15.5,32,15.5z"/>
		</g>
	</g>
	<g>
		<g>
			<circle class="st2" cx="32" cy="24" r="6"/>
		</g>
		<g>
			<path class="st0" d="M32,30.5c-3.584,0-6.5-2.916-6.5-6.5s2.916-6.5,6.5-6.5s6.5,2.916,6.5,6.5S35.584,30.5,32,30.5z M32,18.5
				c-3.032,0-5.5,2.467-5.5,5.5s2.468,5.5,5.5,5.5s5.5-2.467,5.5-5.5S35.032,18.5,32,18.5z"/>
		</g>
	</g>
	<g>
		<g>
			<path class="st0" d="M35,24.5c-0.276,0-0.5-0.224-0.5-0.5c0-1.378-1.121-2.5-2.5-2.5c-0.276,0-0.5-0.224-0.5-0.5
				s0.224-0.5,0.5-0.5c1.93,0,3.5,1.57,3.5,3.5C35.5,24.276,35.276,24.5,35,24.5z"/>
		</g>
	</g>
	<g>
		<g>
			<path class="st0" d="M48.5,32.5c-0.276,0-0.5-0.224-0.5-0.5V18c0-0.276,0.224-0.5,0.5-0.5S49,17.724,49,18v14
				C49,32.276,48.776,32.5,48.5,32.5z"/>
		</g>
	</g>
	<g>
		<g>
			<path class="st0" d="M51.5,15.5c-0.276,0-0.5-0.224-0.5-0.5v-3c0-2.481-2.019-4.5-4.5-4.5h-29C15.019,7.5,13,9.519,13,12v3
				c0,0.276-0.224,0.5-0.5,0.5S12,15.276,12,15v-3c0-3.033,2.468-5.5,5.5-5.5h29c3.032,0,5.5,2.467,5.5,5.5v3
				C52,15.276,51.776,15.5,51.5,15.5z"/>
		</g>
	</g>
	<g>
		<g>
			<path class="st0" d="M23.375,11.5h-6c-0.276,0-0.5-0.224-0.5-0.5s0.224-0.5,0.5-0.5h6c0.276,0,0.5,0.224,0.5,0.5
				S23.651,11.5,23.375,11.5z"/>
		</g>
	</g>
	<g>
		<g>
			<path class="st0" d="M23.375,5.5c-0.276,0-0.5-0.224-0.5-0.5V4.5c0-0.276-0.225-0.5-0.5-0.5H18.5C18.225,4,18,4.224,18,4.5V5
				c0,0.276-0.224,0.5-0.5,0.5S17,5.276,17,5V4.5C17,3.673,17.673,3,18.5,3h3.875c0.827,0,1.5,0.673,1.5,1.5V5
				C23.875,5.276,23.651,5.5,23.375,5.5z"/>
		</g>
	</g>
	<g>
		<g>
			<rect x="29" y="9.5" class="st1" width="6" height="3"/>
		</g>
		<g>
			<path class="st0" d="M35,13h-6c-0.276,0-0.5-0.224-0.5-0.5v-3C28.5,9.224,28.724,9,29,9h6c0.276,0,0.5,0.224,0.5,0.5v3
				C35.5,12.776,35.276,13,35,13z M29.5,12h5v-2h-5V12z"/>
		</g>
	</g>
	<g>
		<g>
			<path class="st0" d="M61,50H45.623c-0.856,0-1.674-0.367-2.243-1.007l-1.762-1.983c-0.854-0.959-2.079-1.51-3.363-1.51H36.5
				c-0.276,0-0.5-0.224-0.5-0.5s0.224-0.5,0.5-0.5h1.755c1.569,0,3.067,0.673,4.111,1.846l1.762,1.983
				C44.507,48.755,45.052,49,45.623,49H61c0.276,0,0.5,0.224,0.5,0.5S61.276,50,61,50z"/>
		</g>
	</g>
	<g>
		<g>
			<path class="st0" d="M40.688,64H36.5c-0.276,0-0.5-0.224-0.5-0.5s0.224-0.5,0.5-0.5h4.188c0.484,0,0.963-0.078,1.423-0.231
				l1.846-0.615C44.264,62.052,44.583,62,44.905,62H61c0.276,0,0.5,0.224,0.5,0.5S61.276,63,61,63H44.905
				c-0.215,0-0.428,0.035-0.632,0.103l-1.846,0.615C41.865,63.905,41.28,64,40.688,64z"/>
		</g>
	</g>
	<g>
		<g>
			<path class="st0" d="M32.5,52h-6c-1.379,0-2.5-1.122-2.5-2.5s1.121-2.5,2.5-2.5h6c1.379,0,2.5,1.122,2.5,2.5S33.879,52,32.5,52z
				 M26.5,48c-0.827,0-1.5,0.673-1.5,1.5s0.673,1.5,1.5,1.5h6c0.827,0,1.5-0.673,1.5-1.5S33.327,48,32.5,48H26.5z"/>
		</g>
	</g>
	<g>
		<g>
			<path class="st0" d="M32.5,56h-6c-1.379,0-2.5-1.122-2.5-2.5s1.121-2.5,2.5-2.5h6c1.379,0,2.5,1.122,2.5,2.5S33.879,56,32.5,56z
				 M26.5,52c-0.827,0-1.5,0.673-1.5,1.5s0.673,1.5,1.5,1.5h6c0.827,0,1.5-0.673,1.5-1.5S33.327,52,32.5,52H26.5z"/>
		</g>
	</g>
	<g>
		<g>
			<path class="st0" d="M32.5,60h-6c-1.379,0-2.5-1.122-2.5-2.5s1.121-2.5,2.5-2.5h6c1.379,0,2.5,1.122,2.5,2.5S33.879,60,32.5,60z
				 M26.5,56c-0.827,0-1.5,0.673-1.5,1.5s0.673,1.5,1.5,1.5h6c0.827,0,1.5-0.673,1.5-1.5S33.327,56,32.5,56H26.5z"/>
		</g>
	</g>
	<g>
		<g>
			<path class="st0" d="M32.5,64h-6c-1.379,0-2.5-1.122-2.5-2.5s1.121-2.5,2.5-2.5h6c1.379,0,2.5,1.122,2.5,2.5S33.879,64,32.5,64z
				 M26.5,60c-0.827,0-1.5,0.673-1.5,1.5s0.673,1.5,1.5,1.5h6c0.827,0,1.5-0.673,1.5-1.5S33.327,60,32.5,60H26.5z"/>
		</g>
	</g>
	<g>
		<g>
			<path class="st0" d="M37,40.5H27c-0.827,0-1.5-0.673-1.5-1.5v-2c0-0.276,0.224-0.5,0.5-0.5h12c0.276,0,0.5,0.224,0.5,0.5v2
				C38.5,39.827,37.827,40.5,37,40.5z M26.5,37.5V39c0,0.276,0.225,0.5,0.5,0.5h10c0.275,0,0.5-0.224,0.5-0.5v-1.5H26.5z"/>
		</g>
	</g>
	<g>
		<g>
			<path class="st0" d="M36.5,53.5c-1.379,0-2.5-1.122-2.5-2.5v-4c0-1.378,1.121-2.5,2.5-2.5c0.276,0,0.5,0.224,0.5,0.5
				s-0.224,0.5-0.5,0.5c-0.827,0-1.5,0.673-1.5,1.5v4c0,0.827,0.673,1.5,1.5,1.5S38,51.827,38,51v-2c0-0.276,0.224-0.5,0.5-0.5
				S39,48.724,39,49v2C39,52.378,37.879,53.5,36.5,53.5z"/>
		</g>
	</g>
	<g>
		<g>
			<path class="st0" d="M29.5,46c-0.276,0-0.5-0.224-0.5-0.5V40c0-0.276,0.224-0.5,0.5-0.5h5c0.276,0,0.5,0.224,0.5,0.5v3.552
				c0,0.276-0.224,0.5-0.5,0.5s-0.5-0.224-0.5-0.5V40.5h-4v5C30,45.776,29.776,46,29.5,46z"/>
		</g>
	</g>
	<g>
		<g>
			<path class="st3" d="M4,27.817h16c0.552,0,1,0.448,1,1v12c0,0.552-0.448,1-1,1h-2.5v2.865c0,0.848-0.989,1.311-1.64,0.768
				l-4.36-3.633H4c-0.552,0-1-0.448-1-1v-12C3,28.264,3.448,27.817,4,27.817z"/>
		</g>
		<g>
			<path class="st0" d="M16.496,46.184c-0.343,0-0.68-0.119-0.957-0.35l-4.22-3.518H4c-0.827,0-1.5-0.673-1.5-1.5v-12
				c0-0.827,0.673-1.5,1.5-1.5h16c0.827,0,1.5,0.673,1.5,1.5v12c0,0.827-0.673,1.5-1.5,1.5h-2v2.365
				c0,0.588-0.331,1.109-0.864,1.358C16.93,46.137,16.712,46.184,16.496,46.184z M4,28.316c-0.275,0-0.5,0.224-0.5,0.5v12
				c0,0.276,0.225,0.5,0.5,0.5h7.5c0.117,0,0.23,0.041,0.32,0.116l4.359,3.633c0.229,0.19,0.465,0.1,0.532,0.069
				C16.779,45.103,17,44.977,17,44.682v-2.865c0-0.276,0.224-0.5,0.5-0.5H20c0.275,0,0.5-0.224,0.5-0.5v-12
				c0-0.276-0.225-0.5-0.5-0.5H4z"/>
		</g>
	</g>
	<g>
		<g>
			<path class="st5" d="M15.192,33.645l-4.151-2.668c-0.666-0.428-1.541,0.05-1.541,0.841v5.337c0,0.791,0.875,1.269,1.541,0.841
				l4.151-2.668C15.804,34.934,15.804,34.039,15.192,33.645z"/>
		</g>
		<g>
			<path class="st0" d="M10.502,38.658c-0.246,0-0.492-0.062-0.721-0.187C9.292,38.204,9,37.712,9,37.155v-5.336
				c0-0.557,0.292-1.049,0.781-1.316c0.487-0.267,1.061-0.247,1.53,0.054l4.15,2.669c0.432,0.277,0.688,0.749,0.688,1.261
				c0,0.513-0.257,0.985-0.688,1.262l-4.15,2.668C11.062,38.577,10.782,38.658,10.502,38.658z M10.504,31.316
				c-0.11,0-0.198,0.038-0.244,0.063C10.182,31.422,10,31.55,10,31.818v5.336c0,0.268,0.182,0.396,0.261,0.439
				c0.077,0.042,0.283,0.126,0.51-0.019l4.15-2.668c0.146-0.094,0.229-0.247,0.229-0.421c0-0.173-0.083-0.327-0.229-0.42l0,0
				l-4.15-2.668C10.676,31.336,10.584,31.316,10.504,31.316z"/>
		</g>
	</g>
	<g>
		<g>
			<path class="st0" d="M55.5,3h-4C51.224,3,51,2.776,51,2.5S51.224,2,51.5,2h4C55.776,2,56,2.224,56,2.5S55.776,3,55.5,3z"/>
		</g>
	</g>
	<g>
		<g>
			<path class="st0" d="M53.5,5C53.224,5,53,4.776,53,4.5v-4C53,0.224,53.224,0,53.5,0S54,0.224,54,0.5v4C54,4.776,53.776,5,53.5,5z
				"/>
		</g>
	</g>
	<g>
		<g>
			<path class="st0" d="M61,7.5h-4c-0.276,0-0.5-0.224-0.5-0.5s0.224-0.5,0.5-0.5h4c0.276,0,0.5,0.224,0.5,0.5S61.276,7.5,61,7.5z"
				/>
		</g>
	</g>
	<g>
		<g>
			<path class="st0" d="M59,9.5c-0.276,0-0.5-0.224-0.5-0.5V5c0-0.276,0.224-0.5,0.5-0.5s0.5,0.224,0.5,0.5v4
				C59.5,9.276,59.276,9.5,59,9.5z"/>
		</g>
	</g>
</g>
</svg>
