<?xml version="1.0" encoding="utf-8"?>
<!-- Generator: Adobe Illustrator 22.0.0, SVG Export Plug-In . SVG Version: 6.00 Build 0)  -->
<svg version="1.1" id="Layer_1" xmlns="http://www.w3.org/2000/svg" xmlns:xlink="http://www.w3.org/1999/xlink" x="0px" y="0px"
	 viewBox="0 0 64 64" style="enable-background:new 0 0 64 64;" xml:space="preserve">
<style type="text/css">
	.st0{fill:#263238;}
	.st1{fill:#FFD740;}
	.st2{fill:#40C4FF;}
	.st3{fill:#FF5252;}
	.st4{fill:#4FC3F7;}
	.st5{fill:#FFFFFF;}
	.st6{fill:#4DB6AC;}
	.st7{fill:#FFCA28;}
	.st8{fill:#37474F;}
</style>
<g>
	<g>
		<g>
			<path class="st3" d="M55.234,47.747L44.627,37.14l-9.899,9.899v4.243l8.485,8.485c0.976,0.976,2.559,0.976,3.536,0l8.485-8.485
				C56.21,50.306,56.21,48.723,55.234,47.747z M44.273,56.586l-4.596-4.596l7.778-7.778l4.596,4.596L44.273,56.586z"/>
		</g>
		<g>
			<path class="st0" d="M44.98,61c-0.801,0-1.555-0.312-2.121-0.879l-8.485-8.485c-0.094-0.094-0.146-0.221-0.146-0.354V47.04
				c0-0.133,0.053-0.26,0.146-0.354l9.899-9.9c0.188-0.188,0.52-0.188,0.707,0l10.606,10.607c0.567,0.566,0.879,1.32,0.879,2.121
				s-0.312,1.555-0.879,2.122l-8.485,8.485C46.535,60.688,45.782,61,44.98,61z M35.228,51.076l8.339,8.338
				c0.756,0.756,2.073,0.756,2.829,0l8.485-8.485c0.378-0.378,0.586-0.88,0.586-1.415s-0.208-1.036-0.586-1.414l0,0L44.627,37.847
				l-9.399,9.4V51.076z M44.273,57.086c-0.128,0-0.256-0.049-0.354-0.146l-4.596-4.596c-0.195-0.195-0.195-0.512,0-0.707
				l7.778-7.778c0.195-0.195,0.512-0.195,0.707,0l4.596,4.596c0.195,0.195,0.195,0.512,0,0.707l-7.778,7.778
				C44.529,57.037,44.401,57.086,44.273,57.086z M40.384,51.99l3.889,3.889l7.071-7.071l-3.889-3.889L40.384,51.99z"/>
		</g>
	</g>
	<g>
		<g>
			<path class="st0" d="M34.905,44.888c-0.011,0-0.021,0-0.032-0.001l-4.529-0.287c-0.275-0.018-0.485-0.255-0.467-0.531
				l0.388-6.144l-5.434-0.26c-0.134-0.006-0.259-0.066-0.349-0.166c-0.089-0.1-0.135-0.232-0.126-0.365l0.393-6.139l-5.431-0.257
				c-0.134-0.006-0.26-0.066-0.349-0.166c-0.089-0.1-0.135-0.231-0.126-0.365l0.393-6.14l-5.432-0.258
				c-0.134-0.006-0.259-0.066-0.349-0.166c-0.089-0.1-0.135-0.231-0.126-0.365l0.393-6.139l-5.43-0.257
				c-0.25-0.012-0.452-0.206-0.475-0.455L7.536,13.32c-0.013-0.148,0.04-0.293,0.145-0.398l6.364-6.364
				c0.195-0.195,0.512-0.195,0.707,0l28.991,28.991c0.195,0.195,0.195,0.512,0,0.707s-0.512,0.195-0.707,0L14.398,7.619
				l-5.845,5.845l0.219,2.441l5.502,0.26c0.134,0.006,0.26,0.066,0.349,0.166c0.089,0.1,0.135,0.231,0.126,0.365l-0.393,6.14
				l5.432,0.258c0.134,0.006,0.259,0.066,0.349,0.166c0.089,0.1,0.135,0.231,0.126,0.365l-0.393,6.139l5.431,0.257
				c0.134,0.006,0.26,0.066,0.349,0.166c0.089,0.1,0.135,0.231,0.126,0.365l-0.393,6.139l5.434,0.26
				c0.134,0.006,0.259,0.066,0.349,0.166c0.089,0.1,0.135,0.231,0.126,0.365l-0.389,6.152l4.03,0.255
				c0.275,0.018,0.485,0.255,0.467,0.531C35.387,44.685,35.167,44.888,34.905,44.888z"/>
		</g>
	</g>
	<g>
		<g>
			<path class="st0" d="M16.444,60.662c-0.401,0-0.778-0.156-1.061-0.439l-9.899-9.899c-0.584-0.585-0.584-1.536,0-2.121
				L21.67,32.015c0.195-0.195,0.512-0.195,0.707,0s0.195,0.512,0,0.707L6.19,48.909c-0.194,0.195-0.194,0.512,0,0.707l9.899,9.899
				c0.188,0.189,0.518,0.189,0.707,0l13.731-13.731c0.195-0.195,0.512-0.195,0.707,0s0.195,0.512,0,0.707L17.504,60.222
				C17.221,60.505,16.844,60.662,16.444,60.662z"/>
		</g>
	</g>
	<g>
		<g>
			<path class="st0" d="M43.667,33.853c-0.128,0-0.256-0.049-0.354-0.146c-0.195-0.195-0.195-0.512,0-0.707L57.81,18.503
				c0.094-0.095,0.146-0.22,0.146-0.354s-0.052-0.259-0.146-0.354L47.91,7.896c-0.194-0.195-0.511-0.195-0.708,0L32.707,22.392
				c-0.195,0.195-0.512,0.195-0.707,0s-0.195-0.512,0-0.707L46.496,7.189c0.567-0.567,1.556-0.566,2.122,0l9.899,9.899
				c0.283,0.283,0.439,0.66,0.439,1.061s-0.156,0.777-0.439,1.061L44.021,33.706C43.923,33.804,43.795,33.853,43.667,33.853z"/>
		</g>
	</g>
	<g>
		<g>
			<path class="st0" d="M39.071,24.306c-0.128,0-0.256-0.049-0.354-0.146c-0.195-0.195-0.195-0.512,0-0.707l1.339-1.339
				c1.511-1.511,3.52-2.343,5.657-2.343h0.858c1.869,0,3.627-0.728,4.95-2.05l3.46-3.46c0.195-0.195,0.512-0.195,0.707,0
				s0.195,0.512,0,0.707l-3.46,3.46c-1.512,1.511-3.521,2.343-5.657,2.343h-0.858c-1.87,0-3.628,0.728-4.95,2.05l-1.339,1.339
				C39.327,24.257,39.199,24.306,39.071,24.306z"/>
		</g>
	</g>
	<g>
		<g>
			<path class="st0" d="M40.485,29.963c-0.128,0-0.256-0.049-0.354-0.146c-0.195-0.195-0.195-0.512,0-0.707l3.536-3.536
				c0.195-0.195,0.512-0.195,0.707,0s0.195,0.512,0,0.707l-3.536,3.536C40.741,29.915,40.613,29.963,40.485,29.963z"/>
		</g>
	</g>
	<g>
		<g>
			<path class="st0" d="M7.958,52.591c-0.128,0-0.256-0.049-0.354-0.146c-0.195-0.195-0.195-0.512,0-0.707l7.964-7.965
				c0.195-0.195,0.512-0.195,0.707,0s0.195,0.512,0,0.707l-7.964,7.965C8.214,52.542,8.086,52.591,7.958,52.591z"/>
		</g>
	</g>
	<g>
		<g>
			<path class="st0" d="M18.211,53.651c-0.128,0-0.256-0.049-0.354-0.146c-0.195-0.195-0.195-0.512,0-0.707l4.243-4.243
				c0.39-0.39,0.39-1.024,0-1.415c-0.378-0.377-0.586-0.879-0.586-1.414c0-0.534,0.208-1.036,0.586-1.414l4.076-4.076
				c0.195-0.195,0.512-0.195,0.707,0s0.195,0.512,0,0.707l-4.076,4.076c-0.189,0.189-0.293,0.44-0.293,0.707
				s0.104,0.518,0.293,0.707c0.78,0.78,0.78,2.049,0,2.829l-4.243,4.243C18.467,53.603,18.339,53.651,18.211,53.651z"/>
		</g>
	</g>
	<g>
		<g>
			<path class="st0" d="M13.262,54.358c-0.128,0-0.256-0.049-0.354-0.146c-0.195-0.195-0.195-0.512,0-0.707l3.182-3.182
				c0.195-0.195,0.512-0.195,0.707,0s0.195,0.512,0,0.707l-3.182,3.182C13.518,54.31,13.39,54.358,13.262,54.358z"/>
		</g>
	</g>
	<g>
		<g>
			<path class="st0" d="M47.557,14.407c-0.128,0-0.256-0.049-0.354-0.146c-0.195-0.195-0.195-0.512,0-0.707l3.535-3.536
				c0.195-0.195,0.512-0.195,0.707,0s0.195,0.512,0,0.707L47.91,14.26C47.812,14.358,47.685,14.407,47.557,14.407z"/>
		</g>
	</g>
	<g>
		<g>
			<path class="st0" d="M44.021,17.942c-0.128,0-0.256-0.049-0.354-0.146c-0.195-0.195-0.195-0.512,0-0.707l1.414-1.414
				c0.195-0.195,0.512-0.195,0.707,0s0.195,0.512,0,0.707l-1.414,1.414C44.277,17.894,44.149,17.942,44.021,17.942z"/>
		</g>
	</g>
	<g>
		<g>
			<path class="st0" d="M59,34.206h-9c-0.276,0-0.5-0.224-0.5-0.5s0.224-0.5,0.5-0.5h9c0.276,0,0.5,0.224,0.5,0.5
				S59.276,34.206,59,34.206z"/>
		</g>
	</g>
	<g>
		<g>
			<path class="st0" d="M63,34.206h-2c-0.276,0-0.5-0.224-0.5-0.5s0.224-0.5,0.5-0.5h2c0.276,0,0.5,0.224,0.5,0.5
				S63.276,34.206,63,34.206z"/>
		</g>
	</g>
	<g>
		<g>
			<path class="st0" d="M3,34.206H1c-0.276,0-0.5-0.224-0.5-0.5s0.224-0.5,0.5-0.5h2c0.276,0,0.5,0.224,0.5,0.5
				S3.276,34.206,3,34.206z"/>
		</g>
	</g>
	<g>
		<g>
			<path class="st0" d="M14,34.206H5c-0.276,0-0.5-0.224-0.5-0.5s0.224-0.5,0.5-0.5h9c0.276,0,0.5,0.224,0.5,0.5
				S14.276,34.206,14,34.206z"/>
		</g>
	</g>
	<g>
		<g>
			<path class="st0" d="M36.5,6h-4C32.224,6,32,5.776,32,5.5S32.224,5,32.5,5h4C36.776,5,37,5.224,37,5.5S36.776,6,36.5,6z"/>
		</g>
	</g>
	<g>
		<g>
			<path class="st0" d="M34.5,8C34.224,8,34,7.776,34,7.5v-4C34,3.224,34.224,3,34.5,3S35,3.224,35,3.5v4C35,7.776,34.776,8,34.5,8z
				"/>
		</g>
	</g>
	<g>
		<g>
			<path class="st0" d="M31.5,11.5h-4c-0.276,0-0.5-0.224-0.5-0.5s0.224-0.5,0.5-0.5h4c0.276,0,0.5,0.224,0.5,0.5
				S31.776,11.5,31.5,11.5z"/>
		</g>
	</g>
	<g>
		<g>
			<path class="st0" d="M29.5,13.5c-0.276,0-0.5-0.224-0.5-0.5V9c0-0.276,0.224-0.5,0.5-0.5S30,8.724,30,9v4
				C30,13.276,29.776,13.5,29.5,13.5z"/>
		</g>
	</g>
</g>
</svg>
