<?xml version="1.0" encoding="utf-8"?>
<!-- Generator: Adobe Illustrator 21.1.0, SVG Export Plug-In . SVG Version: 6.00 Build 0)  -->
<svg version="1.1" id="Icon_Set" xmlns="http://www.w3.org/2000/svg" xmlns:xlink="http://www.w3.org/1999/xlink" x="0px" y="0px"
	 viewBox="0 0 64 64" style="enable-background:new 0 0 64 64;" xml:space="preserve">
<style type="text/css">
	.st0{fill:#37474F;}
	.st1{fill:#EF5350;}
	.st2{fill:#FFCA28;}
	.st3{fill:#64B5F6;}
	.st4{fill:#FFFFFF;}
	.st5{fill:#FF7043;}
</style>
<g id="_x32_-Way_Communication">
	<g>
		<g>
			<path class="st3" d="M37.5,32c0-6.132,3.969-11.344,9.469-13.233C43.304,14.625,37.965,12,32,12s-11.304,2.625-14.969,6.767
				C22.531,20.656,26.5,25.868,26.5,32s-3.969,11.344-9.469,13.233C20.696,49.375,26.035,52,32,52s11.304-2.625,14.969-6.767
				C41.469,43.344,37.5,38.132,37.5,32z"/>
		</g>
	</g>
	<g>
		<g>
			<path class="st0" d="M47.249,18.33C43.356,13.989,37.798,11.5,32,11.5c-5.799,0-11.356,2.49-15.25,6.832
				c-0.185,0.206-0.167,0.521,0.038,0.706c0.096,0.086,0.215,0.128,0.334,0.128c0.137,0,0.273-0.056,0.372-0.166
				c3.704-4.131,8.991-6.5,14.506-6.5s10.801,2.368,14.505,6.498c0.184,0.206,0.5,0.223,0.706,0.038
				C47.416,18.852,47.434,18.536,47.249,18.33z"/>
		</g>
	</g>
	<g>
		<g>
			<path class="st0" d="M47.212,44.963c-0.205-0.184-0.521-0.168-0.706,0.038C42.802,49.131,37.515,51.5,32,51.5
				s-10.801-2.368-14.505-6.498c-0.185-0.207-0.501-0.224-0.706-0.038c-0.205,0.185-0.223,0.5-0.038,0.706
				C20.644,50.011,26.202,52.5,32,52.5s11.356-2.49,15.25-6.831C47.435,45.463,47.417,45.147,47.212,44.963z"/>
		</g>
	</g>
	<g>
		<g>
			<path class="st0" d="M47.313,18.424c-0.134-0.242-0.439-0.327-0.68-0.193C42.906,20.309,37.572,21.5,32,21.5
				s-10.906-1.191-14.634-3.27c-0.24-0.135-0.546-0.049-0.68,0.193c-0.135,0.241-0.048,0.546,0.193,0.68
				C20.751,21.262,26.263,22.5,32,22.5s11.249-1.238,15.12-3.396C47.361,18.97,47.448,18.665,47.313,18.424z"/>
		</g>
	</g>
	<g>
		<g>
			<path class="st0" d="M47.12,44.896C43.249,42.738,37.737,41.5,32,41.5s-11.249,1.238-15.12,3.396
				c-0.241,0.134-0.328,0.438-0.193,0.68c0.135,0.242,0.44,0.326,0.68,0.193C21.094,43.691,26.428,42.5,32,42.5
				s10.906,1.191,14.634,3.27c0.077,0.043,0.16,0.063,0.243,0.063c0.175,0,0.346-0.093,0.437-0.257
				C47.448,45.335,47.361,45.03,47.12,44.896z"/>
		</g>
	</g>
	<g>
		<g>
			<path class="st0" d="M32,11.5c-0.276,0-0.5,0.224-0.5,0.5v40c0,0.276,0.224,0.5,0.5,0.5s0.5-0.224,0.5-0.5V12
				C32.5,11.724,32.276,11.5,32,11.5z"/>
		</g>
	</g>
	<g>
		<g>
			<path class="st0" d="M37.5,31.5h-11c-0.276,0-0.5,0.224-0.5,0.5s0.224,0.5,0.5,0.5h11c0.276,0,0.5-0.224,0.5-0.5
				S37.776,31.5,37.5,31.5z"/>
		</g>
	</g>
	<g>
		<g>
			<g>
				<g>
					<g>
						<path class="st0" d="M51.5,19.5C44.607,19.5,39,25.107,39,32s5.607,12.5,12.5,12.5S64,38.893,64,32S58.393,19.5,51.5,19.5z
							 M51.5,43.5C45.159,43.5,40,38.341,40,32s5.159-11.5,11.5-11.5S63,25.659,63,32S57.841,43.5,51.5,43.5z"/>
					</g>
				</g>
			</g>
		</g>
	</g>
	<g>
		<g>
			<path class="st1" d="M58.037,34.834l-4.044-1.838l-2.496,3.5l-2.504-3.491l-4.03,1.829c-0.893,0.406-1.467,1.296-1.467,2.276
				v3.814C45.622,42.83,48.421,44,51.499,44h0.001c3.079,0,5.878-1.17,8.002-3.076V37.11C59.502,36.129,58.929,35.24,58.037,34.834z
				"/>
		</g>
	</g>
	<g>
		<g>
			<g>
				<g>
					<path class="st0" d="M58.244,34.379L54.2,32.541c-0.217-0.099-0.475-0.031-0.614,0.165l-2.089,2.93L49.4,32.714
						c-0.139-0.194-0.393-0.263-0.613-0.164l-4.03,1.829c-1.068,0.486-1.759,1.559-1.759,2.731v3.814
						c0,0.142,0.061,0.277,0.166,0.372c2.303,2.065,5.264,3.203,8.337,3.203c3.072,0,6.032-1.138,8.335-3.203
						c0.105-0.095,0.166-0.23,0.166-0.372v-3.815C60.002,35.936,59.312,34.863,58.244,34.379z M59.002,40.699
						c-2.094,1.808-4.75,2.801-7.503,2.801c-2.752,0-5.407-0.993-7.501-2.801V37.11c0-0.782,0.46-1.497,1.173-1.821l3.656-1.659
						l2.265,3.156c0.094,0.132,0.245,0.209,0.406,0.209c0,0,0,0,0.001,0c0.161,0,0.312-0.078,0.406-0.21l2.256-3.163l3.669,1.667
						c0.712,0.323,1.172,1.038,1.172,1.82V40.699z"/>
				</g>
			</g>
		</g>
	</g>
	<g>
		<g>
			<path class="st0" d="M51.498,35.995c-0.276,0-0.5,0.224-0.5,0.5v5c0,0.276,0.224,0.5,0.5,0.5s0.5-0.224,0.5-0.5v-5
				C51.998,36.219,51.774,35.995,51.498,35.995z"/>
		</g>
	</g>
	<g>
		<g>
			<g>
				<g>
					<g>
						<path class="st0" d="M51.502,22c-3.032,0-5.5,2.468-5.5,5.5s2.468,5.5,5.5,5.5s5.5-2.468,5.5-5.5S54.534,22,51.502,22z
							 M51.502,32c-2.481,0-4.5-2.019-4.5-4.5s2.019-4.5,4.5-4.5s4.5,2.019,4.5,4.5S53.983,32,51.502,32z"/>
					</g>
				</g>
			</g>
		</g>
	</g>
	<g>
		<g>
			<g>
				<g>
					<g>
						<path class="st0" d="M55.726,23.979C54.676,22.721,53.137,22,51.502,22c-3.032,0-5.5,2.468-5.5,5.5c0,0.276,0.224,0.5,0.5,0.5
							h0.473c3.031,0,5.984-1.067,8.314-3.006c0.001-0.001,0.001-0.001,0.001-0.001l0.372-0.311
							c0.102-0.085,0.166-0.207,0.178-0.339S55.811,24.08,55.726,23.979z M47.029,27c0.25-2.247,2.16-4,4.473-4
							c1.17,0,2.279,0.451,3.114,1.253C52.484,26.013,49.794,26.987,47.029,27z"/>
					</g>
				</g>
			</g>
		</g>
	</g>
	<g>
		<g>
			<g>
				<g>
					<g>
						<path class="st0" d="M54.493,31.812c0-0.179-0.096-0.344-0.25-0.434c-0.155-0.089-0.347-0.088-0.5,0.001
							c-1.434,0.828-3.073,0.823-4.498-0.009c-0.152-0.091-0.345-0.09-0.501-0.002c-0.155,0.089-0.251,0.255-0.251,0.434
							l0.001,1.203c0,0.104,0.033,0.207,0.094,0.291l2.504,3.49c0.094,0.132,0.245,0.209,0.406,0.209c0,0,0,0,0.001,0
							c0.161,0,0.312-0.078,0.406-0.21l2.496-3.5c0.061-0.085,0.093-0.187,0.093-0.29L54.493,31.812z M53.494,32.835l-1.997,2.801
							l-2.003-2.792v-0.238c1.285,0.521,2.709,0.524,4,0.005V32.835z"/>
					</g>
				</g>
			</g>
		</g>
	</g>
	<g>
		<g>
			<g>
				<g>
					<g>
						<path class="st0" d="M12.5,19.5C5.607,19.5,0,25.107,0,32s5.607,12.5,12.5,12.5S25,38.893,25,32S19.393,19.5,12.5,19.5z
							 M12.5,43.5C6.159,43.5,1,38.341,1,32s5.159-11.5,11.5-11.5S24,25.659,24,32S18.841,43.5,12.5,43.5z"/>
					</g>
				</g>
			</g>
		</g>
	</g>
	<g>
		<g>
			<path class="st0" d="M42.925,21.146C40.558,15.106,36.474,11.5,32,11.5s-8.558,3.606-10.925,9.646
				c-0.101,0.257,0.026,0.548,0.283,0.648c0.261,0.101,0.548-0.026,0.648-0.283C24.218,15.869,27.954,12.5,32,12.5
				s7.782,3.369,9.993,9.012c0.077,0.197,0.267,0.317,0.466,0.317c0.061,0,0.122-0.011,0.183-0.034
				C42.898,21.694,43.025,21.403,42.925,21.146z"/>
		</g>
	</g>
	<g>
		<g>
			<path class="st0" d="M42.642,42.205c-0.261-0.1-0.548,0.025-0.648,0.283C39.782,48.131,36.046,51.5,32,51.5
				s-7.782-3.369-9.993-9.012c-0.101-0.258-0.388-0.383-0.648-0.283c-0.257,0.101-0.384,0.392-0.283,0.648
				C23.442,48.894,27.526,52.5,32,52.5s8.558-3.606,10.925-9.646C43.025,42.597,42.898,42.306,42.642,42.205z"/>
		</g>
	</g>
	<g>
		<g>
			<path class="st2" d="M19.037,34.834l-4.044-1.838l-2.496,3.5l-2.504-3.491l-4.03,1.829c-0.893,0.406-1.467,1.296-1.467,2.276
				v3.814C6.622,42.83,9.421,44,12.499,44h0.001c3.079,0,5.878-1.17,8.002-3.076V37.11C20.502,36.129,19.929,35.24,19.037,34.834z"
				/>
		</g>
	</g>
	<g>
		<g>
			<g>
				<g>
					<path class="st0" d="M19.244,34.379L15.2,32.541c-0.217-0.099-0.475-0.031-0.614,0.165l-2.089,2.93L10.4,32.714
						c-0.139-0.194-0.393-0.263-0.613-0.164l-4.03,1.829c-1.068,0.486-1.759,1.559-1.759,2.731v3.814
						c0,0.142,0.061,0.277,0.166,0.372c2.303,2.065,5.264,3.203,8.337,3.203c3.072,0,6.032-1.138,8.335-3.203
						c0.105-0.095,0.166-0.23,0.166-0.372v-3.815C21.002,35.936,20.312,34.863,19.244,34.379z M20.002,40.699
						c-2.094,1.808-4.75,2.801-7.503,2.801c-2.752,0-5.407-0.993-7.501-2.801V37.11c0-0.782,0.46-1.497,1.173-1.821l3.656-1.659
						l2.265,3.156c0.094,0.132,0.245,0.209,0.406,0.209c0,0,0,0,0.001,0c0.161,0,0.312-0.078,0.406-0.21l2.256-3.163l3.669,1.667
						c0.712,0.323,1.172,1.038,1.172,1.82V40.699z"/>
				</g>
			</g>
		</g>
	</g>
	<g>
		<g>
			<path class="st0" d="M12.498,35.995c-0.276,0-0.5,0.224-0.5,0.5v5c0,0.276,0.224,0.5,0.5,0.5s0.5-0.224,0.5-0.5v-5
				C12.998,36.219,12.774,35.995,12.498,35.995z"/>
		</g>
	</g>
	<g>
		<g>
			<g>
				<g>
					<g>
						<path class="st0" d="M12.502,22c-3.032,0-5.5,2.468-5.5,5.5s2.468,5.5,5.5,5.5s5.5-2.468,5.5-5.5S15.534,22,12.502,22z
							 M12.502,32c-2.481,0-4.5-2.019-4.5-4.5s2.019-4.5,4.5-4.5s4.5,2.019,4.5,4.5S14.983,32,12.502,32z"/>
					</g>
				</g>
			</g>
		</g>
	</g>
	<g>
		<g>
			<g>
				<g>
					<g>
						<path class="st0" d="M16.726,23.979C15.676,22.721,14.137,22,12.502,22c-3.032,0-5.5,2.468-5.5,5.5c0,0.276,0.224,0.5,0.5,0.5
							h0.473c3.031,0,5.984-1.067,8.314-3.006c0.001-0.001,0.001-0.001,0.001-0.001l0.372-0.311
							c0.102-0.085,0.166-0.207,0.178-0.339S16.811,24.08,16.726,23.979z M8.029,27c0.25-2.247,2.16-4,4.473-4
							c1.17,0,2.279,0.451,3.114,1.253C13.484,26.013,10.794,26.987,8.029,27z"/>
					</g>
				</g>
			</g>
		</g>
	</g>
	<g>
		<g>
			<g>
				<g>
					<g>
						<path class="st0" d="M15.493,31.812c0-0.179-0.096-0.344-0.25-0.434c-0.155-0.089-0.347-0.088-0.5,0.001
							c-1.433,0.828-3.073,0.823-4.498-0.009c-0.153-0.091-0.346-0.09-0.501-0.002c-0.155,0.089-0.251,0.255-0.251,0.434
							l0.001,1.203c0,0.104,0.033,0.207,0.094,0.291l2.504,3.49c0.094,0.132,0.245,0.209,0.406,0.209c0,0,0,0,0.001,0
							c0.161,0,0.312-0.078,0.406-0.21l2.496-3.5c0.061-0.085,0.093-0.187,0.093-0.29L15.493,31.812z M14.494,32.835l-1.997,2.801
							l-2.003-2.792v-0.238c1.285,0.521,2.709,0.524,4,0.005V32.835z"/>
					</g>
				</g>
			</g>
		</g>
	</g>
	<g>
		<g>
			<path class="st0" d="M52.152,51.445c-0.195-0.195-0.512-0.195-0.707,0c-10.723,10.723-28.168,10.723-38.891,0
				c-0.195-0.195-0.512-0.195-0.707,0s-0.195,0.512,0,0.707c5.556,5.556,12.854,8.334,20.152,8.334s14.597-2.778,20.152-8.334
				C52.348,51.957,52.348,51.641,52.152,51.445z"/>
		</g>
	</g>
	<g>
		<g>
			<path class="st0" d="M52.152,11.848C44.639,4.333,33.66,1.628,23.504,4.79c-0.264,0.082-0.411,0.362-0.329,0.626
				c0.082,0.265,0.365,0.415,0.626,0.329c9.801-3.054,20.395-0.442,27.645,6.81c0.098,0.098,0.226,0.146,0.354,0.146
				s0.256-0.049,0.354-0.146C52.348,12.359,52.348,12.043,52.152,11.848z"/>
		</g>
	</g>
	<g>
		<g>
			<path class="st0" d="M21.018,6.23c-0.113-0.252-0.409-0.367-0.66-0.252c-0.975,0.436-1.929,0.929-2.837,1.466
				c-0.237,0.141-0.316,0.447-0.176,0.686c0.094,0.157,0.26,0.245,0.431,0.245c0.087,0,0.175-0.022,0.255-0.069
				c0.875-0.519,1.796-0.994,2.735-1.415C21.018,6.778,21.131,6.482,21.018,6.23z"/>
		</g>
	</g>
	<g>
		<g>
			<path class="st0" d="M15.63,9.273c-0.167-0.221-0.48-0.266-0.7-0.101c-1.083,0.812-2.12,1.712-3.082,2.675
				c-0.195,0.195-0.195,0.512,0,0.707c0.098,0.098,0.226,0.146,0.354,0.146s0.256-0.049,0.354-0.146
				c0.929-0.929,1.93-1.798,2.975-2.581C15.75,9.808,15.795,9.494,15.63,9.273z"/>
		</g>
	</g>
	<g>
		<g>
			<path class="st0" d="M51.799,7.459c-0.276,0-0.5,0.224-0.5,0.5v3.742h-3.742c-0.276,0-0.5,0.224-0.5,0.5s0.224,0.5,0.5,0.5h4.242
				c0.276,0,0.5-0.224,0.5-0.5V7.959C52.299,7.683,52.075,7.459,51.799,7.459z"/>
		</g>
	</g>
	<g>
		<g>
			<path class="st0" d="M16.443,51.299h-4.242c-0.276,0-0.5,0.224-0.5,0.5v4.243c0,0.276,0.224,0.5,0.5,0.5s0.5-0.224,0.5-0.5
				v-3.743h3.742c0.276,0,0.5-0.224,0.5-0.5S16.72,51.299,16.443,51.299z"/>
		</g>
	</g>
</g>
</svg>
