<?xml version="1.0" encoding="utf-8"?>
<!-- Generator: Adobe Illustrator 21.1.0, SVG Export Plug-In . SVG Version: 6.00 Build 0)  -->
<svg version="1.1" id="Icon_Set" xmlns="http://www.w3.org/2000/svg" xmlns:xlink="http://www.w3.org/1999/xlink" x="0px" y="0px"
	 viewBox="0 0 64 64" style="enable-background:new 0 0 64 64;" xml:space="preserve">
<style type="text/css">
	.st0{fill:#37474F;}
	.st1{fill:#EF5350;}
	.st2{fill:#FFCA28;}
	.st3{fill:#64B5F6;}
	.st4{fill:#FFFFFF;}
	.st5{fill:#FF7043;}
</style>
<g id="Adventure">
	<g>
		<g>
			<path class="st3" d="M12.274,30.783C11.487,31.226,11,32.059,11,32.962V40.5c0,0.552,0.448,1,1,1h4V38c0-1.381,1.119-2.5,2.5-2.5
				c1.381,0,2.5,1.119,2.5,2.5v3.5h6v-19L12.274,30.783z"/>
		</g>
	</g>
	<g>
		<g>
			<g>
				<g>
					<path class="st0" d="M27.252,22.068c-0.154-0.091-0.343-0.092-0.498-0.004l-14.726,8.283c-0.943,0.53-1.529,1.532-1.529,2.614
						V40.5c0,0.827,0.673,1.5,1.5,1.5h4c0.276,0,0.5-0.224,0.5-0.5V38c0-1.103,0.897-2,2-2s2,0.897,2,2v3.5
						c0,0.276,0.224,0.5,0.5,0.5h6c0.276,0,0.5-0.224,0.5-0.5v-19C27.5,22.322,27.406,22.158,27.252,22.068z M26.5,41h-5v-3
						c0-1.654-1.346-3-3-3s-3,1.346-3,3v3H12c-0.276,0-0.5-0.225-0.5-0.5v-7.538c0-0.722,0.391-1.39,1.02-1.743l13.98-7.864V41z"/>
				</g>
			</g>
		</g>
	</g>
	<g>
		<g>
			<path class="st3" d="M51.726,30.783L37,22.5v19h6V38c0-1.381,1.119-2.5,2.5-2.5c1.381,0,2.5,1.119,2.5,2.5v3.5h4
				c0.552,0,1-0.448,1-1v-7.538C53,32.059,52.513,31.226,51.726,30.783z"/>
		</g>
	</g>
	<g>
		<g>
			<g>
				<g>
					<path class="st0" d="M51.971,30.348l-14.726-8.283c-0.153-0.087-0.345-0.087-0.497,0.004c-0.153,0.09-0.248,0.254-0.248,0.432
						v19c0,0.276,0.224,0.5,0.5,0.5h6c0.276,0,0.5-0.224,0.5-0.5V38c0-1.103,0.897-2,2-2s2,0.897,2,2v3.5c0,0.276,0.224,0.5,0.5,0.5
						h4c0.827,0,1.5-0.673,1.5-1.5v-7.538C53.5,31.88,52.914,30.878,51.971,30.348z M52.5,40.5c0,0.275-0.225,0.5-0.5,0.5h-3.5v-3
						c0-1.654-1.346-3-3-3s-3,1.346-3,3v3h-5V23.354l13.98,7.864c0.629,0.354,1.02,1.021,1.02,1.743V40.5z"/>
				</g>
			</g>
		</g>
	</g>
	<g>
		<g>
			<g>
				<g>
					<g>
						<path class="st0" d="M37.447,10.276l-5-10c-0.17-0.338-0.725-0.338-0.895,0l-5,10c-0.078,0.155-0.069,0.339,0.022,0.486
							S26.827,11,27,11h10c0.173,0,0.334-0.09,0.426-0.237C37.517,10.615,37.524,10.432,37.447,10.276z M27.809,10L32,1.618
							L36.191,10H27.809z"/>
					</g>
				</g>
			</g>
		</g>
	</g>
	<g>
		<g>
			<g>
				<g>
					<g>
						<path class="st0" d="M34.703,4.787l-2.256-4.511c-0.17-0.338-0.725-0.338-0.895,0l-2.255,4.511
							c-0.078,0.155-0.069,0.339,0.022,0.486s0.252,0.237,0.425,0.237h4.511c0.173,0,0.334-0.09,0.426-0.237
							C34.772,5.126,34.78,4.942,34.703,4.787z M30.554,4.511L32,1.618l1.446,2.893H30.554z"/>
					</g>
				</g>
			</g>
		</g>
	</g>
	<g>
		<g>
			<path class="st2" d="M27,22.5V44c0,1.381,1.119,2.5,2.5,2.5h5c1.381,0,2.5-1.119,2.5-2.5V10.5H27v3"/>
		</g>
	</g>
	<g>
		<g>
			<path class="st0" d="M37,10H27c-0.276,0-0.5,0.224-0.5,0.5v3c0,0.276,0.224,0.5,0.5,0.5s0.5-0.224,0.5-0.5V11h9v33
				c0,1.103-0.897,2-2,2h-5c-1.103,0-2-0.897-2-2V22.5c0-0.276-0.224-0.5-0.5-0.5s-0.5,0.224-0.5,0.5V44c0,1.654,1.346,3,3,3h5
				c1.654,0,3-1.346,3-3V10.5C37.5,10.224,37.276,10,37,10z"/>
		</g>
	</g>
	<g>
		<g>
			<rect x="27" y="35.5" class="st1" width="10" height="6"/>
		</g>
	</g>
	<g>
		<g>
			<g>
				<g>
					<path class="st0" d="M37,35H27c-0.276,0-0.5,0.224-0.5,0.5v6c0,0.276,0.224,0.5,0.5,0.5h10c0.276,0,0.5-0.224,0.5-0.5v-6
						C37.5,35.224,37.276,35,37,35z M36.5,41h-9v-5h9V41z"/>
				</g>
			</g>
		</g>
	</g>
	<g>
		<g>
			<g>
				<path class="st0" d="M27,15.939c-0.276,0-0.5,0.224-0.5,0.5v3c0,0.276,0.224,0.5,0.5,0.5s0.5-0.224,0.5-0.5v-3
					C27.5,16.163,27.276,15.939,27,15.939z"/>
			</g>
		</g>
	</g>
	<g>
		<g>
			<g>
				<g>
					<g>
						<path class="st0" d="M18.5,35c-1.654,0-3,1.346-3,3v5.5c0,0.827,0.673,1.5,1.5,1.5h3c0.827,0,1.5-0.673,1.5-1.5V38
							C21.5,36.346,20.154,35,18.5,35z M20.5,43.5c0,0.275-0.224,0.5-0.5,0.5h-3c-0.276,0-0.5-0.225-0.5-0.5V38c0-1.103,0.897-2,2-2
							s2,0.897,2,2V43.5z"/>
					</g>
				</g>
			</g>
		</g>
	</g>
	<g>
		<g>
			<g>
				<g>
					<g>
						<path class="st0" d="M45.5,35c-1.654,0-3,1.346-3,3v5.5c0,0.827,0.673,1.5,1.5,1.5h3c0.827,0,1.5-0.673,1.5-1.5V38
							C48.5,36.346,47.154,35,45.5,35z M47.5,43.5c0,0.275-0.225,0.5-0.5,0.5h-3c-0.275,0-0.5-0.225-0.5-0.5V38c0-1.103,0.897-2,2-2
							s2,0.897,2,2V43.5z"/>
					</g>
				</g>
			</g>
		</g>
	</g>
	<g>
		<g>
			<path class="st0" d="M36.923,50.445l-1.451-4.111c-0.092-0.262-0.382-0.399-0.638-0.306c-0.261,0.092-0.397,0.378-0.306,0.638
				l1.451,4.111c0.072,0.206,0.266,0.334,0.472,0.334c0.056,0,0.111-0.009,0.166-0.028C36.878,50.991,37.015,50.705,36.923,50.445z"
				/>
		</g>
	</g>
	<g>
		<g>
			<path class="st0" d="M29.167,46.028c-0.261-0.093-0.546,0.045-0.638,0.306l-1.542,4.368c-0.092,0.26,0.045,0.546,0.305,0.638
				c0.055,0.02,0.111,0.028,0.167,0.028c0.206,0,0.399-0.128,0.472-0.334l1.542-4.368C29.564,46.406,29.427,46.12,29.167,46.028z"/>
		</g>
	</g>
	<g>
		<g>
			<path class="st0" d="M37.096,53.464c-1.187-1.495-3.044-2.353-5.096-2.353c-2.05,0-3.906,0.855-5.091,2.348
				c-0.921,1.16-1.409,2.558-1.409,4.041c0,0.276,0.224,0.5,0.5,0.5s0.5-0.224,0.5-0.5c0-1.255,0.412-2.438,1.192-3.419
				c0.995-1.252,2.564-1.97,4.308-1.97c1.745,0,3.317,0.72,4.312,1.974c0.776,0.98,1.188,2.161,1.188,3.415
				c0,0.276,0.224,0.5,0.5,0.5s0.5-0.224,0.5-0.5C38.5,56.018,38.015,54.622,37.096,53.464z"/>
		</g>
	</g>
	<g>
		<g>
			<path class="st0" d="M20.098,59.742C19.707,59.064,19.5,58.289,19.5,57.5c0-0.276-0.224-0.5-0.5-0.5s-0.5,0.224-0.5,0.5
				c0,0.964,0.253,1.912,0.731,2.742c0.092,0.16,0.261,0.25,0.434,0.25c0.084,0,0.17-0.021,0.249-0.066
				C20.153,60.287,20.236,59.981,20.098,59.742z"/>
		</g>
	</g>
	<g>
		<g>
			<path class="st0" d="M45,57c-0.276,0-0.5,0.224-0.5,0.5c0,0.789-0.207,1.564-0.599,2.243c-0.138,0.239-0.056,0.545,0.184,0.684
				c0.079,0.045,0.165,0.066,0.25,0.066c0.173,0,0.341-0.09,0.434-0.25c0.479-0.831,0.731-1.779,0.731-2.743
				C45.5,57.224,45.276,57,45,57z"/>
		</g>
	</g>
	<g>
		<g>
			<g>
				<g>
					<g>
						<path class="st0" d="M46,54c-0.53,0-1.047,0.119-1.52,0.347C43.455,52.888,41.78,52,40,52c-1.161,0-2.294,0.38-3.24,1.079
							C35.53,51.752,33.822,51,32,51s-3.53,0.752-4.76,2.079C26.294,52.38,25.161,52,24,52c-1.779,0-3.454,0.888-4.48,2.347
							C19.048,54.119,18.531,54,18,54c-1.93,0-3.5,1.57-3.5,3.5S16.07,61,18,61c0.531,0,1.048-0.119,1.52-0.347
							C20.545,62.112,22.22,63,24,63c1.161,0,2.294-0.38,3.24-1.079C28.47,63.248,30.178,64,32,64c1.821,0,3.53-0.752,4.76-2.079
							C37.706,62.62,38.839,63,40,63c1.779,0,3.454-0.888,4.48-2.347C44.952,60.881,45.47,61,46,61c1.93,0,3.5-1.57,3.5-3.5
							S47.93,54,46,54z M46,60c-0.502,0-0.987-0.149-1.402-0.432c-0.115-0.077-0.257-0.105-0.394-0.073
							c-0.135,0.031-0.251,0.117-0.32,0.237C43.064,61.152,41.612,62,40,62c-1.082,0-2.138-0.407-2.971-1.146
							c-0.103-0.091-0.246-0.132-0.375-0.124c-0.137,0.012-0.263,0.079-0.349,0.187C35.253,62.24,33.684,63,32,63
							s-3.253-0.76-4.305-2.084c-0.085-0.107-0.211-0.175-0.348-0.187c-0.015-0.001-0.029-0.002-0.043-0.002
							c-0.122,0-0.24,0.045-0.332,0.126C26.138,61.593,25.082,62,24,62c-1.613,0-3.064-0.848-3.883-2.268
							c-0.069-0.12-0.186-0.206-0.321-0.237c-0.137-0.034-0.278-0.005-0.393,0.074C18.988,59.851,18.503,60,18,60
							c-1.378,0-2.5-1.121-2.5-2.5S16.622,55,18,55c0.502,0,0.988,0.149,1.403,0.432c0.115,0.078,0.258,0.106,0.393,0.073
							c0.135-0.031,0.252-0.117,0.321-0.237C20.924,53.869,22.412,53,24,53c1.083,0,2.138,0.407,2.971,1.147
							c0.102,0.091,0.235,0.129,0.375,0.124c0.137-0.012,0.263-0.079,0.348-0.188C28.747,52.76,30.316,52,32,52
							c1.684,0,3.253,0.76,4.306,2.085c0.086,0.107,0.212,0.175,0.349,0.187c0.139,0.007,0.272-0.033,0.375-0.124
							C37.862,53.407,38.917,53,40,53c1.589,0,3.077,0.869,3.883,2.268c0.07,0.12,0.187,0.206,0.321,0.237
							c0.137,0.032,0.278,0.005,0.394-0.073C45.013,55.149,45.498,55,46,55c1.379,0,2.5,1.121,2.5,2.5S47.379,60,46,60z"/>
					</g>
				</g>
			</g>
		</g>
	</g>
</g>
</svg>
