<?xml version="1.0" encoding="utf-8"?>
<!-- Generator: Adobe Illustrator 21.1.0, SVG Export Plug-In . SVG Version: 6.00 Build 0)  -->
<svg version="1.1" id="Icon_Set" xmlns="http://www.w3.org/2000/svg" xmlns:xlink="http://www.w3.org/1999/xlink" x="0px" y="0px"
	 viewBox="0 0 64 64" style="enable-background:new 0 0 64 64;" xml:space="preserve">
<style type="text/css">
	.st0{fill:#37474F;}
	.st1{fill:#EF5350;}
	.st2{fill:#FFCA28;}
	.st3{fill:#64B5F6;}
	.st4{fill:#FFFFFF;}
	.st5{fill:#FF7043;}
</style>
<g id="Assignment">
	<g>
		<g>
			<g>
				<g>
					<g>
						<path class="st0" d="M60.854,11.646l-5-5C55.76,6.553,55.633,6.5,55.5,6.5h-11C44.224,6.5,44,6.724,44,7v20
							c0,0.276,0.224,0.5,0.5,0.5h16c0.276,0,0.5-0.224,0.5-0.5V12C61,11.867,60.947,11.74,60.854,11.646z M60,26.5H45v-19h10.293
							L60,12.207V26.5z"/>
					</g>
				</g>
			</g>
		</g>
	</g>
	<g>
		<g>
			<path class="st0" d="M58.5,26.5c-0.276,0-0.5,0.224-0.5,0.5v1.5H43v-19h1.5C44.777,9.5,45,9.276,45,9s-0.224-0.5-0.5-0.5h-2
				C42.224,8.5,42,8.724,42,9v20c0,0.276,0.224,0.5,0.5,0.5h16c0.276,0,0.5-0.224,0.5-0.5v-2C59,26.724,58.776,26.5,58.5,26.5z"/>
		</g>
	</g>
	<g>
		<g>
			<path class="st0" d="M56.5,14.5h-8c-0.276,0-0.5,0.224-0.5,0.5s0.224,0.5,0.5,0.5h8c0.276,0,0.5-0.224,0.5-0.5
				S56.776,14.5,56.5,14.5z"/>
		</g>
	</g>
	<g>
		<g>
			<path class="st0" d="M56.5,17.5h-8c-0.276,0-0.5,0.224-0.5,0.5s0.224,0.5,0.5,0.5h8c0.276,0,0.5-0.224,0.5-0.5
				S56.776,17.5,56.5,17.5z"/>
		</g>
	</g>
	<g>
		<g>
			<path class="st0" d="M56.5,20.5h-8c-0.276,0-0.5,0.224-0.5,0.5s0.224,0.5,0.5,0.5h8c0.276,0,0.5-0.224,0.5-0.5
				S56.776,20.5,56.5,20.5z"/>
		</g>
	</g>
	<g>
		<g>
			<path class="st0" d="M60.5,11.5H56V7c0-0.276-0.224-0.5-0.5-0.5S55,6.724,55,7v5c0,0.276,0.224,0.5,0.5,0.5h5
				c0.276,0,0.5-0.224,0.5-0.5S60.776,11.5,60.5,11.5z"/>
		</g>
	</g>
	<g>
		<g>
			<path class="st3" d="M40.496,34.034L28.5,29.8c-1.54,3.466-6.46,3.466-8,0L8.504,34.034C5.505,35.092,3.5,37.927,3.5,41.106V50.3
				h5v-8.8c0-0.604,0.273-1.176,0.743-1.556c0.469-0.38,1.087-0.525,1.676-0.4L24.5,42.455l13.581-2.911
				c0.59-0.123,1.207,0.021,1.676,0.4c0.47,0.38,0.743,0.952,0.743,1.556v8.8h5v-9.194C45.5,37.927,43.495,35.092,40.496,34.034z"/>
		</g>
	</g>
	<g>
		<g>
			<circle class="st0" cx="28" cy="15.3" r="1"/>
		</g>
	</g>
	<g>
		<g>
			<circle class="st0" cx="21" cy="15.3" r="1"/>
		</g>
	</g>
	<g>
		<g>
			<g>
				<g>
					<g>
						<path class="st0" d="M28.782,26.626c-0.136-0.093-0.31-0.113-0.464-0.052c-2.459,0.963-5.177,0.963-7.636,0
							c-0.152-0.062-0.328-0.041-0.464,0.052C20.082,26.72,20,26.875,20,27.04V29.8c0,0.07,0.015,0.139,0.043,0.203
							c0.794,1.787,2.502,2.896,4.458,2.896c1.955,0,3.663-1.11,4.457-2.896C28.985,29.939,29,29.87,29,29.8v-2.76
							C29,26.875,28.918,26.72,28.782,26.626z M28,29.691c-0.648,1.365-1.98,2.208-3.5,2.208c-1.52,0-2.852-0.844-3.5-2.209v-1.942
							c2.272,0.732,4.728,0.732,7,0V29.691z"/>
					</g>
				</g>
			</g>
		</g>
	</g>
	<g>
		<g>
			<path class="st0" d="M35.5,13.8c-0.276,0-0.5,0.224-0.5,0.5s0.224,0.5,0.5,0.5c1.103,0,2,0.897,2,2s-0.897,2-2,2
				c-0.05,0-0.098-0.008-0.23-0.025c-0.249-0.03-0.488,0.135-0.545,0.385C33.622,23.952,29.418,27.3,24.5,27.3
				c-4.917,0-9.122-3.348-10.224-8.141c-0.058-0.251-0.372-0.407-0.631-0.374C13.597,18.792,13.55,18.8,13.5,18.8
				c-1.103,0-2-0.897-2-2s0.897-2,2-2c0.276,0,0.5-0.224,0.5-0.5v-1.5c0-0.276-0.224-0.5-0.5-0.5S13,12.523,13,12.8v1.042
				c-1.417,0.239-2.5,1.475-2.5,2.958c0,1.623,1.294,2.948,2.905,2.999C14.754,24.825,19.257,28.3,24.5,28.3
				c5.244,0,9.746-3.475,11.095-8.501c1.61-0.051,2.905-1.376,2.905-2.999C38.5,15.146,37.154,13.8,35.5,13.8z"/>
		</g>
	</g>
	<g>
		<g>
			<path class="st0" d="M40.663,33.562l-11.996-4.234c-0.26-0.09-0.546,0.045-0.638,0.305c-0.092,0.26,0.045,0.546,0.305,0.638
				l11.996,4.234c2.793,0.986,4.67,3.639,4.67,6.601V53.3c0,0.276,0.224,0.5,0.5,0.5s0.5-0.224,0.5-0.5V41.106
				C46,37.721,43.855,34.689,40.663,33.562z"/>
		</g>
	</g>
	<g>
		<g>
			<path class="st0" d="M20.972,29.633c-0.092-0.26-0.376-0.395-0.638-0.305L8.337,33.562C5.145,34.689,3,37.721,3,41.106V53.3
				c0,0.276,0.224,0.5,0.5,0.5S4,53.576,4,53.3V41.106c0-2.962,1.877-5.615,4.67-6.601l11.996-4.234
				C20.927,30.179,21.063,29.894,20.972,29.633z"/>
		</g>
	</g>
	<g>
		<g>
			<g>
				<path class="st0" d="M24.5,44c-0.276,0-0.5,0.224-0.5,0.5v19c0,0.276,0.224,0.5,0.5,0.5s0.5-0.224,0.5-0.5v-19
					C25,44.224,24.776,44,24.5,44z"/>
			</g>
		</g>
	</g>
	<g>
		<g>
			<path class="st2" d="M33,4h-0.5v7.8c0,1.381,1.119,2.5,2.5,2.5h0.5V6.5C35.5,5.119,34.381,4,33,4z"/>
		</g>
	</g>
	<g>
		<g>
			<g>
				<g>
					<path class="st0" d="M33,3.5h-0.5C32.224,3.5,32,3.724,32,4v7.8c0,1.654,1.346,3,3,3h0.5c0.276,0,0.5-0.224,0.5-0.5V6.5
						C36,4.846,34.654,3.5,33,3.5z M35,13.8c-1.103,0-2-0.897-2-2V4.5c1.103,0,2,0.897,2,2V13.8z"/>
				</g>
			</g>
		</g>
	</g>
	<g>
		<g>
			<path class="st2" d="M29.495,0.5h-7.534c-1.985,0-3.834,0.578-5.39,1.575c-0.856,0.549-1.623,1.224-2.274,2
				c-0.628,0.748-1.148,1.589-1.537,2.5c-0.409,0.958-0.673,1.993-0.764,3.078c-0.023,0.279-0.035,0.562-0.035,0.847v2.15
				l6.215-1.137c4.345-0.795,8.403-2.727,11.759-5.599l1.186-1.015C32.885,3.389,31.817,0.5,29.495,0.5z"/>
		</g>
	</g>
	<g>
		<g>
			<path class="st0" d="M32.309,1.96C31.869,0.77,30.765,0,29.495,0h-7.534c-2.015,0-3.972,0.572-5.66,1.654
				c-0.232,0.149-0.3,0.458-0.151,0.691c0.149,0.232,0.458,0.3,0.691,0.151C18.368,1.518,20.138,1,21.961,1h7.534
				c1.027,0,1.643,0.675,1.876,1.307c0.233,0.631,0.205,1.544-0.576,2.212L29.61,5.534c-3.286,2.812-7.271,4.709-11.523,5.487
				l-5.625,1.029V10.5c0-0.271,0.011-0.54,0.033-0.805c0.023-0.275-0.181-0.517-0.456-0.54c-0.274-0.02-0.518,0.181-0.54,0.456
				c-0.025,0.293-0.037,0.589-0.037,0.889v2.15c0,0.148,0.066,0.289,0.18,0.384c0.091,0.075,0.204,0.116,0.32,0.116
				c0.03,0,0.06-0.002,0.09-0.008l6.215-1.137c4.427-0.809,8.574-2.784,11.994-5.711l1.186-1.015
				C32.41,4.454,32.749,3.151,32.309,1.96z"/>
		</g>
	</g>
	<g>
		<g>
			<path class="st0" d="M14.619,3.692c-0.212-0.176-0.526-0.149-0.705,0.062c-0.666,0.794-1.209,1.677-1.613,2.625
				c-0.108,0.254,0.01,0.548,0.264,0.656c0.064,0.027,0.13,0.04,0.196,0.04c0.194,0,0.379-0.114,0.46-0.304
				c0.366-0.856,0.856-1.655,1.46-2.375C14.858,4.185,14.83,3.87,14.619,3.692z"/>
		</g>
	</g>
	<g>
		<g>
			<path class="st0" d="M28.392,19.372c-0.256-0.104-0.548,0.02-0.651,0.275c-0.539,1.329-1.811,2.188-3.24,2.188
				s-2.701-0.859-3.24-2.188c-0.105-0.256-0.396-0.38-0.651-0.275c-0.256,0.104-0.379,0.396-0.275,0.651
				c0.693,1.708,2.329,2.812,4.167,2.812s3.474-1.104,4.167-2.812C28.771,19.768,28.647,19.476,28.392,19.372z"/>
		</g>
	</g>
	<g>
		<g>
			<g>
				<g>
					<g>
						<path class="st0" d="M14.5,49.8H11v-0.25c0-0.965-0.785-1.75-1.75-1.75S7.5,48.585,7.5,49.55v0.25h-4
							c-0.276,0-0.5,0.224-0.5,0.5v5.5c0,1.654,1.346,3,3,3h8.5c0.827,0,1.5-0.673,1.5-1.5v-6C16,50.473,15.328,49.8,14.5,49.8z
							 M15,57.3c0,0.276-0.224,0.5-0.5,0.5H6c-1.103,0-2-0.897-2-2v-5h4c0.276,0,0.5-0.224,0.5-0.5v-0.75
							c0-0.414,0.336-0.75,0.75-0.75S10,49.136,10,49.55v0.75c0,0.276,0.224,0.5,0.5,0.5h4c0.276,0,0.5,0.224,0.5,0.5V57.3z"/>
					</g>
				</g>
			</g>
		</g>
	</g>
	<g>
		<g>
			<g>
				<path class="st0" d="M15.5,51.8h-4c-0.276,0-0.5,0.224-0.5,0.5s0.224,0.5,0.5,0.5h4c0.276,0,0.5-0.224,0.5-0.5
					S15.777,51.8,15.5,51.8z"/>
			</g>
		</g>
	</g>
	<g>
		<g>
			<g>
				<path class="st0" d="M15.5,53.8h-4c-0.276,0-0.5,0.224-0.5,0.5s0.224,0.5,0.5,0.5h4c0.276,0,0.5-0.224,0.5-0.5
					S15.777,53.8,15.5,53.8z"/>
			</g>
		</g>
	</g>
	<g>
		<g>
			<g>
				<g>
					<g>
						<path class="st0" d="M45.5,49.8h-4v-0.25c0-0.965-0.785-1.75-1.75-1.75S38,48.585,38,49.55v0.25h-3.5
							c-0.827,0-1.5,0.673-1.5,1.5v6c0,0.827,0.673,1.5,1.5,1.5H43c1.654,0,3-1.346,3-3v-5.5C46,50.023,45.776,49.8,45.5,49.8z
							 M45,55.8c0,1.103-0.897,2-2,2h-8.5c-0.276,0-0.5-0.224-0.5-0.5v-6c0-0.276,0.224-0.5,0.5-0.5h4c0.276,0,0.5-0.224,0.5-0.5
							v-0.75c0-0.414,0.336-0.75,0.75-0.75s0.75,0.336,0.75,0.75v0.75c0,0.276,0.224,0.5,0.5,0.5h4V55.8z"/>
					</g>
				</g>
			</g>
		</g>
	</g>
	<g>
		<g>
			<g>
				<g>
					<g>
						<path class="st0" d="M34.5,50.8h4c0.276,0,0.5-0.224,0.5-0.5v-8.8c0-0.151-0.068-0.294-0.186-0.389s-0.27-0.132-0.419-0.1
							L24.5,43.989l-13.895-2.978c-0.149-0.032-0.302,0.005-0.419,0.1S10,41.349,10,41.5v8.8c0,0.276,0.224,0.5,0.5,0.5h4
							c0.276,0,0.5,0.224,0.5,0.5v6c0,0.276-0.224,0.5-0.5,0.5h-4c-0.276,0-0.5,0.224-0.5,0.5v2.2c0,0.236,0.165,0.439,0.395,0.489
							l14,3C24.43,63.996,24.465,64,24.5,64s0.07-0.004,0.105-0.011l14-3C38.835,60.939,39,60.736,39,60.5v-2.2
							c0-0.276-0.224-0.5-0.5-0.5h-4c-0.276,0-0.5-0.224-0.5-0.5v-6C34,51.024,34.224,50.8,34.5,50.8z M34.5,58.8H38v1.296
							l-13.5,2.893L11,60.096V58.8h3.5c0.827,0,1.5-0.673,1.5-1.5v-6c0-0.827-0.673-1.5-1.5-1.5H11v-7.681l13.395,2.87
							c0.069,0.015,0.141,0.015,0.21,0L38,42.119V49.8h-3.5c-0.827,0-1.5,0.673-1.5,1.5v6C33,58.127,33.673,58.8,34.5,58.8z"/>
					</g>
				</g>
			</g>
		</g>
	</g>
	<g>
		<g>
			<g>
				<line class="st4" x1="33.5" y1="52.3" x2="37.5" y2="52.3"/>
			</g>
		</g>
		<g>
			<g>
				<path class="st0" d="M37.5,51.8h-4c-0.276,0-0.5,0.224-0.5,0.5s0.224,0.5,0.5,0.5h4c0.276,0,0.5-0.224,0.5-0.5
					S37.776,51.8,37.5,51.8z"/>
			</g>
		</g>
	</g>
	<g>
		<g>
			<g>
				<line class="st4" x1="33.5" y1="54.3" x2="37.5" y2="54.3"/>
			</g>
		</g>
		<g>
			<g>
				<path class="st0" d="M37.5,53.8h-4c-0.276,0-0.5,0.224-0.5,0.5s0.224,0.5,0.5,0.5h4c0.276,0,0.5-0.224,0.5-0.5
					S37.776,53.8,37.5,53.8z"/>
			</g>
		</g>
	</g>
	<g>
		<g>
			<g>
				<path class="st0" d="M15.5,55.8h-4c-0.276,0-0.5,0.224-0.5,0.5s0.224,0.5,0.5,0.5h4c0.276,0,0.5-0.224,0.5-0.5
					S15.777,55.8,15.5,55.8z"/>
			</g>
		</g>
	</g>
	<g>
		<g>
			<g>
				<line class="st4" x1="33.5" y1="56.3" x2="37.5" y2="56.3"/>
			</g>
		</g>
		<g>
			<g>
				<path class="st0" d="M37.5,55.8h-4c-0.276,0-0.5,0.224-0.5,0.5s0.224,0.5,0.5,0.5h4c0.276,0,0.5-0.224,0.5-0.5
					S37.776,55.8,37.5,55.8z"/>
			</g>
		</g>
	</g>
</g>
</svg>
