<?xml version="1.0" encoding="utf-8"?>
<!-- Generator: Adobe Illustrator 21.1.0, SVG Export Plug-In . SVG Version: 6.00 Build 0)  -->
<svg version="1.1" id="Icon_Set" xmlns="http://www.w3.org/2000/svg" xmlns:xlink="http://www.w3.org/1999/xlink" x="0px" y="0px"
	 viewBox="0 0 64 64" style="enable-background:new 0 0 64 64;" xml:space="preserve">
<style type="text/css">
	.st0{fill:#37474F;}
	.st1{fill:#EF5350;}
	.st2{fill:#FFCA28;}
	.st3{fill:#64B5F6;}
	.st4{fill:#FFFFFF;}
	.st5{fill:#FF7043;}
</style>
<g id="Astronomy">
	<g>
		<g>
			<g>
				<g>
					<g>
						<path class="st0" d="M63.886,25.528L56.614,7.975c-0.153-0.371-0.441-0.659-0.812-0.812c-0.369-0.153-0.777-0.153-1.148,0
							L53.73,7.545c-0.764,0.316-1.128,1.196-0.812,1.96l7.271,17.553c0.153,0.371,0.441,0.659,0.812,0.812
							c0.185,0.077,0.379,0.115,0.574,0.115c0.194,0,0.389-0.039,0.574-0.115l0.924-0.383
							C63.838,27.172,64.202,26.293,63.886,25.528z M62.691,26.564l-0.924,0.383c-0.123,0.051-0.26,0.051-0.383,0
							c-0.123-0.051-0.22-0.147-0.271-0.271L53.843,9.123c-0.105-0.255,0.017-0.548,0.271-0.654l0.924-0.383
							c0.062-0.025,0.127-0.038,0.191-0.038s0.13,0.013,0.191,0.038c0.123,0.051,0.22,0.147,0.271,0.271l7.271,17.553
							C63.067,26.166,62.946,26.458,62.691,26.564z"/>
					</g>
				</g>
			</g>
		</g>
	</g>
	<g>
		<g>
			<g>
				<g>
					<g>
						<path class="st0" d="M8.77,44.028L4.561,33.865c-0.317-0.763-1.194-1.127-1.96-0.812l-0.924,0.383
							c-0.37,0.153-0.659,0.442-0.812,0.812c-0.153,0.371-0.152,0.778,0.001,1.148L5.074,45.56c0.239,0.577,0.8,0.925,1.388,0.925
							c0.191,0,0.385-0.037,0.572-0.114l0.924-0.382c0.37-0.153,0.659-0.442,0.812-0.812C8.924,44.806,8.923,44.398,8.77,44.028z
							 M7.846,44.794c-0.051,0.123-0.146,0.219-0.271,0.271l-0.924,0.382c-0.255,0.107-0.548-0.016-0.653-0.271L1.789,35.013
							c-0.052-0.123-0.052-0.259,0-0.382c0.051-0.123,0.146-0.219,0.271-0.271l0.924-0.383c0.062-0.026,0.127-0.038,0.19-0.038
							c0.196,0,0.383,0.117,0.463,0.309l4.209,10.163C7.897,44.535,7.897,44.67,7.846,44.794z"/>
					</g>
				</g>
			</g>
		</g>
	</g>
	<g>
		<g>
			<path class="st0" d="M23.433,11.551c-0.27-0.072-0.54,0.089-0.611,0.355c-0.07,0.267,0.088,0.541,0.355,0.612
				C25.41,13.11,26,13.747,26,14c0,0.873-4.293,2.5-12.5,2.5S1,14.873,1,14c0-0.254,0.59-0.89,2.823-1.483
				c0.268-0.071,0.426-0.345,0.355-0.612c-0.071-0.266-0.341-0.427-0.611-0.355C1.167,12.188,0,12.989,0,14
				c0,2.568,8.073,3.5,13.5,3.5S27,16.568,27,14C27,12.989,25.833,12.188,23.433,11.551z"/>
		</g>
	</g>
	<g>
		<g>
			<path class="st3" d="M13.5,6c-4.418,0-8,3.582-8,8c0,0.112,0.012,0.221,0.017,0.333C7.429,14.704,10.112,15,13.5,15
				c3.388,0,6.071-0.297,7.983-0.667C21.488,14.222,21.5,14.113,21.5,14C21.5,9.582,17.918,6,13.5,6z"/>
		</g>
	</g>
	<g>
		<g>
			<path class="st0" d="M13.5,5.5C8.813,5.5,5,9.313,5,14c0,0.082,0.005,0.163,0.011,0.244l0.007,0.11
				c0.012,0.269,0.232,0.478,0.499,0.478c0.007,0,0.015,0,0.022,0c0.275-0.012,0.489-0.246,0.478-0.521l-0.009-0.133
				C6.004,14.119,6,14.06,6,14c0-4.136,3.364-7.5,7.5-7.5S21,9.865,21,14c0,0.055-0.004,0.109-0.008,0.163l-0.009,0.152
				c-0.01,0.276,0.206,0.507,0.482,0.517c0.292,0.038,0.508-0.206,0.518-0.482l0.007-0.119C21.995,14.155,22,14.078,22,14
				C22,9.313,18.187,5.5,13.5,5.5z"/>
		</g>
	</g>
	<g>
		<g>
			<path class="st3" d="M6.987,18.634C8.437,20.669,10.811,22,13.5,22c2.689,0,5.063-1.331,6.513-3.366"/>
		</g>
	</g>
	<g>
		<g>
			<path class="st0" d="M20.304,18.227c-0.223-0.159-0.536-0.109-0.697,0.117C18.198,20.32,15.915,21.5,13.5,21.5
				s-4.698-1.18-6.106-3.156c-0.16-0.226-0.474-0.276-0.697-0.117c-0.225,0.16-0.277,0.473-0.117,0.697
				C8.175,21.164,10.763,22.5,13.5,22.5s5.325-1.337,6.921-3.576C20.581,18.7,20.528,18.387,20.304,18.227z"/>
		</g>
	</g>
	<g>
		<g>
			<g>
				<g>
					<g>
						<path class="st0" d="M32.658,3.026l-1.244-0.415c-0.481-0.161-0.864-0.544-1.025-1.025l-0.414-1.244
							C29.906,0.138,29.716,0,29.5,0c-0.215,0-0.406,0.138-0.475,0.342L28.61,1.586c-0.16,0.481-0.543,0.865-1.024,1.026
							l-1.244,0.415C26.138,3.094,26,3.285,26,3.5s0.138,0.406,0.342,0.474l1.244,0.415c0.481,0.161,0.864,0.544,1.024,1.025
							l0.415,1.244C29.094,6.863,29.285,7,29.5,7c0.216,0,0.406-0.138,0.475-0.342l0.414-1.243c0.161-0.482,0.544-0.865,1.025-1.026
							l1.244-0.415C32.862,3.907,33,3.716,33,3.5S32.862,3.094,32.658,3.026z M29.5,4.937c-0.266-0.649-0.787-1.171-1.437-1.437
							c0.649-0.266,1.171-0.788,1.437-1.437c0.266,0.649,0.787,1.171,1.437,1.437C30.288,3.766,29.767,4.287,29.5,4.937z"/>
					</g>
				</g>
			</g>
		</g>
	</g>
	<g>
		<g>
			<g>
				<g>
					<g>
						<path class="st0" d="M40.658,8.526l-1.244-0.415c-0.481-0.161-0.864-0.544-1.025-1.025l-0.414-1.244
							C37.906,5.638,37.716,5.5,37.5,5.5c-0.215,0-0.406,0.138-0.475,0.342L36.61,7.086c-0.16,0.481-0.543,0.865-1.024,1.026
							l-1.244,0.415C34.138,8.594,34,8.785,34,9s0.138,0.406,0.342,0.474l1.244,0.415c0.481,0.161,0.864,0.544,1.024,1.025
							l0.415,1.244c0.068,0.204,0.26,0.342,0.475,0.342c0.216,0,0.406-0.138,0.475-0.342l0.414-1.243
							c0.161-0.482,0.544-0.865,1.025-1.026l1.244-0.415C40.862,9.407,41,9.216,41,9S40.862,8.594,40.658,8.526z M37.5,10.437
							C37.234,9.788,36.713,9.266,36.063,9c0.649-0.266,1.171-0.788,1.437-1.437C37.766,8.213,38.287,8.734,38.937,9
							C38.288,9.266,37.767,9.787,37.5,10.437z"/>
					</g>
				</g>
			</g>
		</g>
	</g>
	<g>
		<g>
			<path class="st0" d="M27.052,30.677l-2.166-5.23c-0.105-0.254-0.397-0.375-0.653-0.271c-0.255,0.105-0.376,0.398-0.271,0.653
				l2.166,5.23c0.08,0.192,0.266,0.309,0.462,0.309c0.063,0,0.129-0.012,0.191-0.038C27.036,31.225,27.157,30.932,27.052,30.677z"/>
		</g>
	</g>
	<g>
		<g>
			<circle class="st1" cx="32.272" cy="36.5" r="6"/>
		</g>
	</g>
	<g>
		<g>
			<g>
				<g>
					<path class="st0" d="M32.271,30c-3.584,0-6.5,2.916-6.5,6.5s2.916,6.5,6.5,6.5c3.584,0,6.5-2.916,6.5-6.5S35.855,30,32.271,30z
						 M32.271,42c-3.032,0-5.5-2.467-5.5-5.5s2.468-5.5,5.5-5.5s5.5,2.467,5.5,5.5S35.304,42,32.271,42z"/>
				</g>
			</g>
		</g>
	</g>
	<g>
		<g>
			<path class="st0" d="M24.813,37.382c-0.106-0.254-0.396-0.376-0.653-0.271L8.578,43.566l-3.826-9.239l3.233-1.339
				c0.255-0.105,0.376-0.398,0.271-0.653c-0.105-0.254-0.396-0.376-0.653-0.271l-3.695,1.531c-0.255,0.105-0.376,0.398-0.271,0.653
				l4.209,10.163c0.051,0.123,0.148,0.22,0.271,0.271c0.062,0.025,0.126,0.038,0.191,0.038s0.13-0.013,0.191-0.038l16.044-6.646
				C24.798,37.93,24.919,37.638,24.813,37.382z"/>
		</g>
	</g>
	<g>
		<g>
			<path class="st0" d="M13.799,30.039c-0.105-0.254-0.396-0.376-0.653-0.271l-2.771,1.148c-0.255,0.105-0.376,0.398-0.271,0.653
				c0.08,0.192,0.266,0.309,0.462,0.309c0.063,0,0.129-0.012,0.191-0.038l2.771-1.148C13.783,30.586,13.904,30.294,13.799,30.039z"
				/>
		</g>
	</g>
	<g>
		<g>
			<path class="st0" d="M28.581,23.916c-0.105-0.254-0.396-0.375-0.653-0.271l-12.01,4.975c-0.255,0.105-0.376,0.398-0.271,0.653
				c0.08,0.192,0.266,0.309,0.462,0.309c0.063,0,0.129-0.012,0.191-0.038l12.01-4.975C28.565,24.463,28.687,24.171,28.581,23.916z"
				/>
		</g>
	</g>
	<g>
		<g>
			<path class="st2" d="M53.955,10.7L28.086,21.415c-0.51,0.211-0.753,0.796-0.541,1.307l2.524,6.093
				c0.701-0.2,1.438-0.314,2.203-0.314c3.496,0,6.461,2.247,7.549,5.372l20.257-8.391L53.955,10.7z"/>
		</g>
	</g>
	<g>
		<g>
			<path class="st0" d="M60.54,25.291l-6.123-14.782c-0.105-0.254-0.396-0.376-0.653-0.271L27.896,20.953
				c-0.764,0.316-1.129,1.195-0.812,1.96l2.524,6.093c0.106,0.255,0.398,0.377,0.653,0.271c0.255-0.105,0.376-0.398,0.271-0.653
				l-2.524-6.093c-0.105-0.255,0.017-0.548,0.271-0.654l25.406-10.523l5.74,13.858L39.63,33.411
				c-0.255,0.105-0.376,0.398-0.271,0.653c0.08,0.192,0.266,0.309,0.462,0.309c0.063,0,0.129-0.012,0.191-0.038l20.257-8.391
				c0.122-0.051,0.22-0.148,0.271-0.271S60.591,25.413,60.54,25.291z"/>
		</g>
	</g>
	<g>
		<g>
			<g>
				<g>
					<g>
						<path class="st0" d="M32.271,33c-1.93,0-3.5,1.57-3.5,3.5s1.57,3.5,3.5,3.5s3.5-1.57,3.5-3.5S34.201,33,32.271,33z M32.271,39
							c-1.379,0-2.5-1.122-2.5-2.5s1.121-2.5,2.5-2.5s2.5,1.122,2.5,2.5S33.65,39,32.271,39z"/>
					</g>
				</g>
			</g>
		</g>
	</g>
	<g>
		<g>
			<g>
				<line class="st3" x1="50.26" y1="12.23" x2="56.383" y2="27.012"/>
			</g>
		</g>
		<g>
			<g>
				<path class="st0" d="M56.845,26.821l-6.123-14.782c-0.105-0.254-0.396-0.376-0.653-0.271c-0.255,0.105-0.376,0.398-0.271,0.653
					l6.123,14.782c0.08,0.192,0.266,0.309,0.462,0.309c0.063,0,0.129-0.012,0.191-0.038C56.829,27.369,56.95,27.077,56.845,26.821z"
					/>
			</g>
		</g>
	</g>
	<g>
		<g>
			<path class="st0" d="M30.657,43.831c-0.248-0.12-0.549-0.015-0.668,0.234l-8.816,18.368c-0.238,0.496-0.838,0.706-1.334,0.469
				c-0.497-0.239-0.708-0.837-0.469-1.334l8.78-18.292c0.119-0.249,0.014-0.547-0.234-0.667c-0.248-0.119-0.548-0.016-0.668,0.234
				l-8.78,18.292c-0.477,0.994-0.056,2.19,0.938,2.668C19.685,63.937,19.979,64,20.269,64c0.746,0,1.463-0.418,1.807-1.134
				l8.816-18.368C31.011,44.249,30.905,43.951,30.657,43.831z"/>
		</g>
	</g>
	<g>
		<g>
			<path class="st0" d="M46.075,61.135l-8.779-18.292c-0.119-0.25-0.42-0.353-0.668-0.234c-0.248,0.12-0.354,0.418-0.234,0.667
				l8.779,18.292c0.239,0.497,0.028,1.095-0.468,1.334c-0.489,0.235-1.105,0.011-1.335-0.469l-8.816-18.368
				c-0.119-0.249-0.419-0.353-0.668-0.234c-0.248,0.12-0.354,0.418-0.234,0.667l8.816,18.368c0.331,0.689,1.039,1.135,1.805,1.135
				c0.3,0,0.591-0.066,0.865-0.198C46.131,63.326,46.552,62.129,46.075,61.135z"/>
		</g>
	</g>
</g>
</svg>
