<?xml version="1.0" encoding="utf-8"?>
<!-- Generator: Adobe Illustrator 21.1.0, SVG Export Plug-In . SVG Version: 6.00 Build 0)  -->
<svg version="1.1" id="Icon_Set" xmlns="http://www.w3.org/2000/svg" xmlns:xlink="http://www.w3.org/1999/xlink" x="0px" y="0px"
	 viewBox="0 0 64 64" style="enable-background:new 0 0 64 64;" xml:space="preserve">
<style type="text/css">
	.st0{fill:#37474F;}
	.st1{fill:#EF5350;}
	.st2{fill:#FFCA28;}
	.st3{fill:#64B5F6;}
	.st4{fill:#FFFFFF;}
	.st5{fill:#FF7043;}
</style>
<g id="Audio_Course">
	<g>
		<g>
			<ellipse transform="matrix(0.7071 -0.7071 0.7071 0.7071 -7.2445 29.5103)" class="st1" cx="32" cy="23.5" rx="9" ry="9"/>
		</g>
	</g>
	<g>
		<g>
			<path class="st2" d="M41,37.5H23c-1.105,0-2,0.896-2,2v12c0,1.104,0.895,2,2,2h18c1.105,0,2-0.896,2-2v-12
				C43,38.396,42.104,37.5,41,37.5z"/>
		</g>
	</g>
	<g>
		<g>
			<g>
				<g>
					<path class="st0" d="M41,37H23c-1.378,0-2.5,1.121-2.5,2.5v12c0,1.379,1.122,2.5,2.5,2.5h18c1.378,0,2.5-1.121,2.5-2.5v-12
						C43.5,38.121,42.378,37,41,37z M42.5,51.5c0,0.827-0.673,1.5-1.5,1.5H23c-0.827,0-1.5-0.673-1.5-1.5v-12
						c0-0.827,0.673-1.5,1.5-1.5h18c0.827,0,1.5,0.673,1.5,1.5V51.5z"/>
				</g>
			</g>
		</g>
	</g>
	<g>
		<g>
			<path class="st3" d="M11.5,47.563h-3c-2.761,0-5-2.239-5-5v-4c0-2.761,2.239-5,5-5h3"/>
		</g>
	</g>
	<g>
		<g>
			<path class="st0" d="M11.5,47.062h-3c-2.481,0-4.5-2.019-4.5-4.5v-4c0-2.481,2.019-4.5,4.5-4.5h3c0.276,0,0.5-0.224,0.5-0.5
				s-0.224-0.5-0.5-0.5h-3c-3.033,0-5.5,2.468-5.5,5.5v4c0,3.032,2.467,5.5,5.5,5.5h3c0.276,0,0.5-0.224,0.5-0.5
				S11.776,47.062,11.5,47.062z"/>
		</g>
	</g>
	<g>
		<g>
			<path class="st3" d="M14.5,31.562h-2c-0.552,0-1,0.448-1,1v16c0,0.552,0.448,1,1,1h2c0.552,0,1-0.448,1-1v-16
				C15.5,32.01,15.052,31.562,14.5,31.562z"/>
		</g>
	</g>
	<g>
		<g>
			<g>
				<g>
					<path class="st0" d="M14.5,31.062h-2c-0.827,0-1.5,0.673-1.5,1.5v16c0,0.827,0.673,1.5,1.5,1.5h2c0.827,0,1.5-0.673,1.5-1.5
						v-16C16,31.735,15.327,31.062,14.5,31.062z M15,48.562c0,0.275-0.224,0.5-0.5,0.5h-2c-0.276,0-0.5-0.225-0.5-0.5v-16
						c0-0.275,0.224-0.5,0.5-0.5h2c0.276,0,0.5,0.225,0.5,0.5V48.562z"/>
				</g>
			</g>
		</g>
	</g>
	<g>
		<g>
			<path class="st3" d="M52.5,47.563h3c2.761,0,5-2.239,5-5v-4c0-2.761-2.239-5-5-5h-3"/>
		</g>
	</g>
	<g>
		<g>
			<path class="st0" d="M55.5,33.062h-3c-0.276,0-0.5,0.224-0.5,0.5s0.224,0.5,0.5,0.5h3c2.481,0,4.5,2.019,4.5,4.5v4
				c0,2.481-2.019,4.5-4.5,4.5h-3c-0.276,0-0.5,0.224-0.5,0.5s0.224,0.5,0.5,0.5h3c3.033,0,5.5-2.468,5.5-5.5v-4
				C61,35.53,58.533,33.062,55.5,33.062z"/>
		</g>
	</g>
	<g>
		<g>
			<path class="st3" d="M51.5,31.562h-2c-0.552,0-1,0.448-1,1v16c0,0.552,0.448,1,1,1h2c0.552,0,1-0.448,1-1v-16
				C52.5,32.01,52.052,31.562,51.5,31.562z"/>
		</g>
	</g>
	<g>
		<g>
			<g>
				<g>
					<path class="st0" d="M51.5,31.062h-2c-0.827,0-1.5,0.673-1.5,1.5v16c0,0.827,0.673,1.5,1.5,1.5h2c0.827,0,1.5-0.673,1.5-1.5
						v-16C53,31.735,52.327,31.062,51.5,31.062z M52,48.562c0,0.275-0.224,0.5-0.5,0.5h-2c-0.276,0-0.5-0.225-0.5-0.5v-16
						c0-0.275,0.224-0.5,0.5-0.5h2c0.276,0,0.5,0.225,0.5,0.5V48.562z"/>
				</g>
			</g>
		</g>
	</g>
	<g>
		<g>
			<path class="st0" d="M26.98,16.011c-0.167-0.221-0.481-0.263-0.7-0.098c-0.349,0.264-0.685,0.557-0.998,0.869
				c-0.309,0.31-0.601,0.645-0.868,0.997c-0.167,0.221-0.123,0.534,0.097,0.7c0.09,0.068,0.196,0.102,0.301,0.102
				c0.151,0,0.301-0.068,0.399-0.198c0.239-0.316,0.5-0.616,0.777-0.894c0.281-0.28,0.582-0.542,0.894-0.777
				C27.104,16.545,27.147,16.231,26.98,16.011z"/>
		</g>
	</g>
	<g>
		<g>
			<path class="st0" d="M38.717,16.782c-2.618-2.617-6.553-3.477-10.025-2.19c-0.259,0.096-0.391,0.384-0.295,0.643
				c0.096,0.258,0.383,0.391,0.643,0.295c3.108-1.149,6.628-0.383,8.97,1.96c3.314,3.314,3.314,8.707,0,12.021
				s-8.707,3.314-12.021,0c-2.343-2.343-3.112-5.865-1.959-8.973c0.096-0.259-0.036-0.547-0.295-0.643
				c-0.257-0.098-0.546,0.036-0.643,0.295c-1.288,3.473-0.429,7.409,2.189,10.027c1.852,1.852,4.285,2.778,6.718,2.778
				s4.865-0.927,6.717-2.778C42.421,26.514,42.421,20.486,38.717,16.782z"/>
		</g>
	</g>
	<g>
		<g>
			<path class="st4" d="M35.163,22.659l-4.151-2.668c-0.666-0.428-1.541,0.05-1.541,0.841v5.337c0,0.791,0.875,1.269,1.541,0.841
				l4.151-2.668C35.776,23.948,35.776,23.052,35.163,22.659z"/>
		</g>
	</g>
	<g>
		<g>
			<g>
				<g>
					<path class="st0" d="M35.434,22.238l-4.15-2.669c-0.469-0.301-1.042-0.32-1.53-0.055c-0.482,0.264-0.782,0.769-0.782,1.317
						v5.336c0,0.558,0.292,1.05,0.781,1.317c0.225,0.122,0.472,0.184,0.719,0.184c0.283,0,0.565-0.08,0.812-0.238l4.15-2.669
						c0.431-0.277,0.689-0.749,0.689-1.262S35.865,22.516,35.434,22.238z M34.893,23.92l-4.15,2.669
						c-0.225,0.146-0.432,0.061-0.51,0.019c-0.079-0.043-0.261-0.171-0.261-0.439v-5.336c0-0.268,0.183-0.396,0.261-0.439
						c0.045-0.024,0.134-0.063,0.244-0.063c0.08,0,0.171,0.021,0.266,0.082l4.15,2.669c0.146,0.094,0.23,0.247,0.23,0.42
						S35.039,23.826,34.893,23.92z"/>
				</g>
			</g>
		</g>
	</g>
	<g>
		<g>
			<circle class="st0" cx="27" cy="45.5" r="1"/>
		</g>
	</g>
	<g>
		<g>
			<circle class="st0" cx="32" cy="45.5" r="1"/>
		</g>
	</g>
	<g>
		<g>
			<circle class="st0" cx="37" cy="45.5" r="1"/>
		</g>
	</g>
	<g>
		<g>
			<path class="st0" d="M52.5,47.062c-0.276,0-0.5,0.224-0.5,0.5V50.5c0,5.238-4.262,9.5-9.5,9.5H32c-0.276,0-0.5,0.224-0.5,0.5
				S31.724,61,32,61h10.5C48.29,61,53,56.29,53,50.5v-2.938C53,47.286,52.776,47.062,52.5,47.062z"/>
		</g>
	</g>
	<g>
		<g>
			<g>
				<g>
					<g>
						<path class="st0" d="M33.875,58h-4c-0.827,0-1.5,0.673-1.5,1.5v2c0,0.827,0.673,1.5,1.5,1.5h4c0.827,0,1.5-0.673,1.5-1.5v-2
							C35.375,58.673,34.702,58,33.875,58z M34.375,61.5c0,0.275-0.224,0.5-0.5,0.5h-4c-0.276,0-0.5-0.225-0.5-0.5v-2
							c0-0.275,0.224-0.5,0.5-0.5h4c0.276,0,0.5,0.225,0.5,0.5V61.5z"/>
					</g>
				</g>
			</g>
		</g>
	</g>
	<g>
		<g>
			<path class="st0" d="M32,4c-11.58,0-21,9.421-21,21v4.5c0,0.276,0.224,0.5,0.5,0.5s0.5-0.224,0.5-0.5V25c0-11.028,8.972-20,20-20
				s20,8.972,20,20v4.5c0,0.276,0.224,0.5,0.5,0.5s0.5-0.224,0.5-0.5V25C53,13.421,43.58,4,32,4z"/>
		</g>
	</g>
	<g>
		<g>
			<path class="st0" d="M32,1C18.767,1,8,11.767,8,25v6.5C8,31.776,8.224,32,8.5,32S9,31.776,9,31.5V25C9,12.317,19.318,2,32,2
				s23,10.317,23,23v6.5c0,0.276,0.224,0.5,0.5,0.5s0.5-0.224,0.5-0.5V25C56,11.767,45.233,1,32,1z"/>
		</g>
	</g>
</g>
</svg>
