<?xml version="1.0" encoding="utf-8"?>
<!-- Generator: Adobe Illustrator 21.1.0, SVG Export Plug-In . SVG Version: 6.00 Build 0)  -->
<svg version="1.1" id="Icon_Set" xmlns="http://www.w3.org/2000/svg" xmlns:xlink="http://www.w3.org/1999/xlink" x="0px" y="0px"
	 viewBox="0 0 64 64" style="enable-background:new 0 0 64 64;" xml:space="preserve">
<style type="text/css">
	.st0{fill:#37474F;}
	.st1{fill:#EF5350;}
	.st2{fill:#FFCA28;}
	.st3{fill:#64B5F6;}
	.st4{fill:#FFFFFF;}
	.st5{fill:#FF7043;}
</style>
<g id="Audio_Book">
	<g>
		<g>
			<path class="st3" d="M59,18h-0.429L58,18.571V47.5c0,1.381-1.119,2.5-2.5,2.5H37c-2.761,0-5,2.239-5,5v5c0-2.761,2.239-5,5-5h22
				c1.381,0,2.5-1.119,2.5-2.5v-32C61.5,19.119,60.381,18,59,18z"/>
		</g>
	</g>
	<g>
		<g>
			<g>
				<g>
					<g>
						<path class="st0" d="M59,17.5h-0.429c-0.133,0-0.26,0.053-0.354,0.146l-0.571,0.571c-0.094,0.094-0.146,0.221-0.146,0.354
							V47.5c0,1.103-0.897,2-2,2H37c-3.032,0-5.5,2.467-5.5,5.5v5c0,0.276,0.224,0.5,0.5,0.5s0.5-0.224,0.5-0.5
							c0-2.481,2.019-4.5,4.5-4.5h22c1.654,0,3-1.346,3-3v-32C62,18.846,60.654,17.5,59,17.5z M61,52.5c0,1.103-0.897,2-2,2H37
							c-1.858,0-3.504,0.926-4.5,2.341V55c0-2.481,2.019-4.5,4.5-4.5h18.5c1.654,0,3-1.346,3-3V18.778l0.278-0.278H59
							c1.103,0,2,0.897,2,2V52.5z"/>
					</g>
				</g>
			</g>
		</g>
	</g>
	<g>
		<g>
			<path class="st3" d="M27,50H8.5C7.119,50,6,48.881,6,47.5V18.571L5.429,18H5c-1.381,0-2.5,1.119-2.5,2.5v32
				C2.5,53.881,3.619,55,5,55h22c2.761,0,5,2.239,5,5v-5C32,52.239,29.761,50,27,50z"/>
		</g>
	</g>
	<g>
		<g>
			<g>
				<g>
					<g>
						<path class="st0" d="M27,49.5H8.5c-1.103,0-2-0.897-2-2V18.571c0-0.133-0.053-0.26-0.146-0.354l-0.571-0.571
							C5.688,17.553,5.562,17.5,5.429,17.5H5c-1.654,0-3,1.346-3,3v32c0,1.654,1.346,3,3,3h22c2.481,0,4.5,2.019,4.5,4.5
							c0,0.276,0.224,0.5,0.5,0.5s0.5-0.224,0.5-0.5v-5C32.5,51.967,30.032,49.5,27,49.5z M31.5,56.841
							C30.504,55.426,28.858,54.5,27,54.5H5c-1.103,0-2-0.897-2-2v-32c0-1.103,0.897-2,2-2h0.222L5.5,18.778V47.5
							c0,1.654,1.346,3,3,3H27c2.481,0,4.5,2.019,4.5,4.5V56.841z"/>
					</g>
				</g>
			</g>
		</g>
	</g>
	<g>
		<g>
			<path class="st0" d="M32,23.5c-0.276,0-0.5,0.224-0.5,0.5v31c0,0.276,0.224,0.5,0.5,0.5s0.5-0.224,0.5-0.5V24
				C32.5,23.724,32.276,23.5,32,23.5z"/>
		</g>
	</g>
	<g>
		<g>
			<path class="st0" d="M55.5,12.5H43c-0.276,0-0.5,0.224-0.5,0.5s0.224,0.5,0.5,0.5h12.5c1.103,0,2,0.897,2,2v3.071
				c0,0.276,0.224,0.5,0.5,0.5s0.5-0.224,0.5-0.5V15.5C58.5,13.846,57.154,12.5,55.5,12.5z"/>
		</g>
	</g>
	<g>
		<g>
			<path class="st0" d="M21,12.5H8.5c-1.654,0-3,1.346-3,3v3.071c0,0.276,0.224,0.5,0.5,0.5s0.5-0.224,0.5-0.5V15.5
				c0-1.103,0.897-2,2-2H21c0.276,0,0.5-0.224,0.5-0.5S21.276,12.5,21,12.5z"/>
		</g>
	</g>
	<g>
		<g>
			<ellipse transform="matrix(0.7071 -0.7071 0.7071 0.7071 0.18 26.4349)" class="st1" cx="32" cy="13" rx="9" ry="9"/>
		</g>
	</g>
	<g>
		<g>
			<path class="st0" d="M26.979,5.511c-0.165-0.22-0.481-0.263-0.7-0.097c-0.348,0.263-0.683,0.556-0.997,0.869
				c-0.312,0.312-0.604,0.648-0.868,0.997c-0.166,0.22-0.122,0.534,0.099,0.7c0.09,0.068,0.195,0.101,0.301,0.101
				c0.151,0,0.301-0.068,0.399-0.199c0.235-0.312,0.496-0.612,0.776-0.892c0.281-0.281,0.582-0.543,0.894-0.779
				C27.103,6.044,27.146,5.731,26.979,5.511z"/>
		</g>
	</g>
	<g>
		<g>
			<path class="st0" d="M38.718,6.283c-2.618-2.618-6.555-3.479-10.025-2.19c-0.259,0.096-0.391,0.384-0.295,0.643
				S28.78,5.127,29.04,5.03c3.107-1.15,6.628-0.381,8.971,1.96c3.314,3.314,3.314,8.707,0,12.021s-8.707,3.313-12.021,0
				c-2.343-2.343-3.111-5.865-1.959-8.972c0.096-0.259-0.036-0.546-0.295-0.643c-0.261-0.097-0.546,0.036-0.643,0.295
				c-1.288,3.473-0.429,7.408,2.189,10.027c1.853,1.852,4.285,2.778,6.718,2.778s4.865-0.926,6.718-2.778
				C42.422,16.014,42.422,9.987,38.718,6.283z"/>
		</g>
	</g>
	<g>
		<g>
			<g>
				<path class="st4" d="M35.163,12.159l-4.151-2.668c-0.666-0.428-1.541,0.05-1.541,0.841v5.337c0,0.791,0.875,1.269,1.541,0.841
					l4.151-2.668C35.776,13.448,35.776,12.552,35.163,12.159z"/>
			</g>
		</g>
		<g>
			<g>
				<g>
					<g>
						<path class="st0" d="M35.434,11.739l-4.15-2.669c-0.47-0.301-1.043-0.322-1.53-0.054c-0.489,0.267-0.781,0.759-0.781,1.316
							v5.336c0,0.557,0.292,1.049,0.781,1.316c0.229,0.125,0.475,0.187,0.721,0.187c0.28,0,0.56-0.081,0.81-0.242l4.15-2.668
							c0.432-0.277,0.688-0.749,0.688-1.262C36.122,12.487,35.865,12.016,35.434,11.739z M34.893,13.421l-4.15,2.668
							c-0.226,0.145-0.434,0.06-0.51,0.019c-0.079-0.043-0.261-0.171-0.261-0.439v-5.336c0-0.268,0.182-0.396,0.26-0.439
							c0.046-0.025,0.134-0.063,0.244-0.063c0.08,0,0.172,0.02,0.267,0.081l4.15,2.668c0.146,0.094,0.229,0.247,0.229,0.42
							C35.122,13.174,35.039,13.327,34.893,13.421z"/>
					</g>
				</g>
			</g>
		</g>
	</g>
	<g>
		<g>
			<path class="st2" d="M25.009,24h-12c-0.552,0-1,0.448-1,1v4c0,0.552,0.448,1,1,1h12c0.552,0,1-0.448,1-1v-4
				C26.009,24.448,25.562,24,25.009,24z"/>
		</g>
	</g>
	<g>
		<g>
			<g>
				<g>
					<path class="st0" d="M25.01,23.5h-12c-0.827,0-1.5,0.673-1.5,1.5v4c0,0.827,0.673,1.5,1.5,1.5h12c0.827,0,1.5-0.673,1.5-1.5v-4
						C26.51,24.173,25.837,23.5,25.01,23.5z M25.51,29c0,0.276-0.225,0.5-0.5,0.5h-12c-0.275,0-0.5-0.224-0.5-0.5v-4
						c0-0.276,0.225-0.5,0.5-0.5h12c0.275,0,0.5,0.224,0.5,0.5V29z"/>
				</g>
			</g>
		</g>
	</g>
	<g>
		<g>
			<path class="st2" d="M51,24H39c-0.552,0-1,0.448-1,1v4c0,0.552,0.448,1,1,1h12c0.552,0,1-0.448,1-1v-4C52,24.448,51.552,24,51,24
				z"/>
		</g>
	</g>
	<g>
		<g>
			<g>
				<g>
					<path class="st0" d="M51,23.5H39c-0.827,0-1.5,0.673-1.5,1.5v4c0,0.827,0.673,1.5,1.5,1.5h12c0.827,0,1.5-0.673,1.5-1.5v-4
						C52.5,24.173,51.827,23.5,51,23.5z M51.5,29c0,0.276-0.225,0.5-0.5,0.5H39c-0.275,0-0.5-0.224-0.5-0.5v-4
						c0-0.276,0.225-0.5,0.5-0.5h12c0.275,0,0.5,0.224,0.5,0.5V29z"/>
				</g>
			</g>
		</g>
	</g>
	<g>
		<g>
			<g>
				<path class="st0" d="M26,33.538H12c-0.276,0-0.5,0.224-0.5,0.5s0.224,0.5,0.5,0.5h14c0.276,0,0.5-0.224,0.5-0.5
					S26.276,33.538,26,33.538z"/>
			</g>
		</g>
	</g>
	<g>
		<g>
			<g>
				<path class="st0" d="M26,37.538H12c-0.276,0-0.5,0.224-0.5,0.5s0.224,0.5,0.5,0.5h14c0.276,0,0.5-0.224,0.5-0.5
					S26.276,37.538,26,37.538z"/>
			</g>
		</g>
	</g>
	<g>
		<g>
			<g>
				<path class="st0" d="M26,41.538H12c-0.276,0-0.5,0.224-0.5,0.5s0.224,0.5,0.5,0.5h14c0.276,0,0.5-0.224,0.5-0.5
					S26.276,41.538,26,41.538z"/>
			</g>
		</g>
	</g>
	<g>
		<g>
			<g>
				<path class="st0" d="M52,33.538H38c-0.276,0-0.5,0.224-0.5,0.5s0.224,0.5,0.5,0.5h14c0.276,0,0.5-0.224,0.5-0.5
					S52.276,33.538,52,33.538z"/>
			</g>
		</g>
	</g>
	<g>
		<g>
			<g>
				<path class="st0" d="M52,37.538H38c-0.276,0-0.5,0.224-0.5,0.5s0.224,0.5,0.5,0.5h14c0.276,0,0.5-0.224,0.5-0.5
					S52.276,37.538,52,37.538z"/>
			</g>
		</g>
	</g>
	<g>
		<g>
			<g>
				<path class="st0" d="M52,41.538H38c-0.276,0-0.5,0.224-0.5,0.5s0.224,0.5,0.5,0.5h14c0.276,0,0.5-0.224,0.5-0.5
					S52.276,41.538,52,41.538z"/>
			</g>
		</g>
	</g>
</g>
</svg>
