<?xml version="1.0" encoding="utf-8"?>
<!-- Generator: Adobe Illustrator 21.1.0, SVG Export Plug-In . SVG Version: 6.00 Build 0)  -->
<svg version="1.1" id="Icon_Set" xmlns="http://www.w3.org/2000/svg" xmlns:xlink="http://www.w3.org/1999/xlink" x="0px" y="0px"
	 viewBox="0 0 64 64" style="enable-background:new 0 0 64 64;" xml:space="preserve">
<style type="text/css">
	.st0{fill:#37474F;}
	.st1{fill:#EF5350;}
	.st2{fill:#FFCA28;}
	.st3{fill:#64B5F6;}
	.st4{fill:#FFFFFF;}
	.st5{fill:#FF7043;}
</style>
<g id="Award">
	<g>
		<g>
			<g>
				<g>
					<path class="st2" d="M21.5,7h-8C12.672,7,12,7.672,12,8.5v7c0,3.584,2.916,6.5,6.5,6.5h3c0.828,0,1.5-0.671,1.5-1.5v-12
						C23,7.672,22.328,7,21.5,7z M20,19h-1.5c-1.93,0-3.5-1.57-3.5-3.5V10h5V19z"/>
				</g>
			</g>
		</g>
	</g>
	<g>
		<g>
			<g>
				<g>
					<path class="st0" d="M20,9.5h-5c-0.276,0-0.5,0.224-0.5,0.5v5.5c0,2.206,1.794,4,4,4H20c0.276,0,0.5-0.224,0.5-0.5v-9
						C20.5,9.724,20.277,9.5,20,9.5z M19.5,18.5h-1c-1.654,0-3-1.346-3-3v-5h4V18.5z M21.5,6.5h-8c-1.103,0-2,0.897-2,2v7
						c0,3.859,3.14,7,7,7h3c1.103,0,2-0.897,2-2v-12C23.5,7.397,22.604,6.5,21.5,6.5z M22.5,20.5c0,0.552-0.449,1-1,1h-3
						c-3.309,0-6-2.691-6-6v-7c0-0.552,0.449-1,1-1h8c0.551,0,1,0.448,1,1V20.5z"/>
				</g>
			</g>
		</g>
	</g>
	<g>
		<g>
			<g>
				<g>
					<path class="st2" d="M50.5,7h-8C41.672,7,41,7.672,41,8.5v12c0,0.829,0.672,1.5,1.5,1.5h3c3.584,0,6.5-2.916,6.5-6.5v-7
						C52,7.672,51.328,7,50.5,7z M49,15.5c0,1.93-1.57,3.5-3.5,3.5H44v-9h5V15.5z"/>
				</g>
			</g>
		</g>
	</g>
	<g>
		<g>
			<g>
				<g>
					<path class="st0" d="M50.5,6.5h-8c-1.103,0-2,0.897-2,2v12c0,1.103,0.897,2,2,2h3c3.86,0,7-3.141,7-7v-7
						C52.5,7.397,51.604,6.5,50.5,6.5z M51.5,15.5c0,3.309-2.691,6-6,6h-3c-0.551,0-1-0.448-1-1v-12c0-0.552,0.449-1,1-1h8
						c0.551,0,1,0.448,1,1V15.5z M49,9.5h-5c-0.276,0-0.5,0.224-0.5,0.5v9c0,0.276,0.224,0.5,0.5,0.5h1.5c2.206,0,4-1.794,4-4V10
						C49.5,9.724,49.277,9.5,49,9.5z M48.5,15.5c0,1.654-1.346,3-3,3h-1v-8h4V15.5z"/>
				</g>
			</g>
		</g>
	</g>
	<g>
		<g>
			<path class="st2" d="M31,4h13v13c0,6.627-5.373,12-12,12h0c-6.627,0-12-5.373-12-12V4h2"/>
		</g>
	</g>
	<g>
		<g>
			<path class="st0" d="M44,3.5H31c-0.276,0-0.5,0.224-0.5,0.5s0.224,0.5,0.5,0.5h12.5V17c0,6.341-5.159,11.5-11.5,11.5
				S20.5,23.341,20.5,17V4.5H22c0.276,0,0.5-0.224,0.5-0.5S22.276,3.5,22,3.5h-2c-0.276,0-0.5,0.224-0.5,0.5v13
				c0,6.893,5.607,12.5,12.5,12.5S44.5,23.893,44.5,17V4C44.5,3.724,44.276,3.5,44,3.5z"/>
		</g>
	</g>
	<g>
		<g>
			<path class="st0" d="M28,3.5h-3c-0.276,0-0.5,0.224-0.5,0.5s0.224,0.5,0.5,0.5h3c0.276,0,0.5-0.224,0.5-0.5S28.276,3.5,28,3.5z"
				/>
		</g>
	</g>
	<g>
		<g>
			<path class="st2" d="M39.5,44h-15c-1.381,0-2.5,1.119-2.5,2.5V54h20v-7.5C42,45.12,40.881,44,39.5,44z"/>
		</g>
	</g>
	<g>
		<g>
			<g>
				<g>
					<path class="st0" d="M39.5,43.5h-15c-1.654,0-3,1.346-3,3V54c0,0.276,0.224,0.5,0.5,0.5h20c0.276,0,0.5-0.224,0.5-0.5v-7.5
						C42.5,44.846,41.154,43.5,39.5,43.5z M41.5,53.5h-19v-7c0-1.103,0.897-2,2-2h15c1.103,0,2,0.897,2,2V53.5z"/>
				</g>
			</g>
		</g>
	</g>
	<g>
		<g>
			<path class="st3" d="M59.5,54h-55C3.119,54,2,55.12,2,56.5v1C2,58.881,3.119,60,4.5,60h55c1.381,0,2.5-1.119,2.5-2.5v-1
				C62,55.12,60.881,54,59.5,54z"/>
		</g>
	</g>
	<g>
		<g>
			<g>
				<g>
					<path class="st0" d="M59.5,53.5h-55c-1.654,0-3,1.346-3,3v1c0,1.654,1.346,3,3,3h55c1.654,0,3-1.346,3-3v-1
						C62.5,54.846,61.154,53.5,59.5,53.5z M61.5,57.5c0,1.103-0.897,2-2,2h-55c-1.103,0-2-0.897-2-2v-1c0-1.103,0.897-2,2-2h55
						c1.103,0,2,0.897,2,2V57.5z"/>
				</g>
			</g>
		</g>
	</g>
	<g>
		<g>
			<polygon class="st1" points="37.001,14.32 33.546,13.792 32.001,10.5 30.456,13.792 27.001,14.32 29.501,16.882 28.91,20.5 
				32.001,18.792 35.091,20.5 34.501,16.882 			"/>
		</g>
	</g>
	<g>
		<g>
			<g>
				<g>
					<path class="st0" d="M37.475,14.162c-0.06-0.178-0.213-0.308-0.398-0.336l-3.191-0.488l-1.432-3.051
						c-0.165-0.35-0.74-0.35-0.905,0l-1.432,3.051l-3.191,0.488c-0.185,0.028-0.339,0.158-0.398,0.336s-0.015,0.373,0.116,0.508
						l2.324,2.381l-0.549,3.369c-0.031,0.188,0.049,0.379,0.206,0.489c0.157,0.11,0.362,0.122,0.53,0.028L32,19.363l2.849,1.574
						C34.924,20.979,35.008,21,35.091,21c0.101,0,0.202-0.03,0.288-0.091c0.156-0.11,0.236-0.301,0.206-0.489l-0.55-3.369
						l2.324-2.381C37.489,14.535,37.534,14.34,37.475,14.162z M34.143,16.532c-0.111,0.114-0.161,0.273-0.136,0.43l0.425,2.603
						l-2.189-1.21c-0.075-0.042-0.158-0.062-0.242-0.062s-0.167,0.021-0.242,0.062l-2.189,1.21l0.424-2.603
						c0.025-0.156-0.025-0.315-0.136-0.43l-1.82-1.864l2.493-0.382c0.165-0.025,0.306-0.131,0.377-0.281L32,11.677l1.093,2.328
						c0.071,0.15,0.212,0.256,0.377,0.281l2.493,0.381L34.143,16.532z"/>
				</g>
			</g>
		</g>
	</g>
	<g>
		<g>
			<g>
				<g>
					<path class="st0" d="M20.158,35.525L18.5,34.973c-0.691-0.229-1.242-0.78-1.473-1.473l-0.553-1.658
						c-0.136-0.408-0.812-0.408-0.948,0L14.973,33.5c-0.231,0.692-0.782,1.243-1.473,1.473l-1.658,0.553
						C11.638,35.594,11.5,35.785,11.5,36s0.138,0.406,0.342,0.475l1.658,0.553c0.692,0.23,1.242,0.781,1.473,1.473l0.553,1.658
						C15.594,40.362,15.785,40.5,16,40.5s0.406-0.138,0.474-0.342l0.553-1.658c0.231-0.691,0.781-1.242,1.473-1.473l1.658-0.553
						C20.362,36.406,20.5,36.215,20.5,36S20.362,35.594,20.158,35.525z M18.184,36.078c-0.989,0.331-1.776,1.117-2.105,2.105
						L16,38.419l-0.079-0.235c-0.329-0.988-1.116-1.774-2.105-2.105L13.581,36l0.235-0.078c0.989-0.329,1.776-1.116,2.105-2.105
						L16,33.581l0.079,0.235c0.33,0.989,1.117,1.776,2.105,2.105L18.419,36L18.184,36.078z"/>
				</g>
			</g>
		</g>
	</g>
	<g>
		<g>
			<g>
				<g>
					<path class="st0" d="M52.158,35.525L50.5,34.973c-0.691-0.229-1.242-0.78-1.473-1.473l-0.553-1.658
						c-0.136-0.408-0.812-0.408-0.948,0L46.973,33.5c-0.231,0.692-0.782,1.243-1.473,1.473l-1.658,0.553
						C43.638,35.594,43.5,35.785,43.5,36s0.138,0.406,0.342,0.475l1.658,0.553c0.692,0.23,1.242,0.781,1.473,1.473l0.553,1.658
						C47.594,40.362,47.785,40.5,48,40.5s0.406-0.138,0.474-0.342l0.553-1.658c0.231-0.691,0.781-1.242,1.473-1.473l1.658-0.553
						C52.362,36.406,52.5,36.215,52.5,36S52.362,35.594,52.158,35.525z M50.184,36.078c-0.989,0.331-1.776,1.117-2.105,2.105
						L48,38.419l-0.079-0.235c-0.329-0.988-1.116-1.774-2.105-2.105L45.581,36l0.235-0.078c0.989-0.329,1.776-1.116,2.105-2.105
						L48,33.581l0.079,0.235c0.33,0.989,1.117,1.776,2.105,2.105L50.419,36L50.184,36.078z"/>
				</g>
			</g>
		</g>
	</g>
	<g>
		<g>
			<g>
				<g>
					<path class="st0" d="M35.065,28.671c-0.014-0.143-0.087-0.272-0.203-0.356c-0.116-0.085-0.263-0.115-0.401-0.085
						c-1.647,0.359-3.274,0.359-4.922,0c-0.14-0.03-0.286,0-0.401,0.085c-0.116,0.084-0.189,0.214-0.203,0.356l-1.433,15.282
						c-0.013,0.141,0.034,0.279,0.128,0.384C27.725,44.44,27.859,44.5,28,44.5h8c0.141,0,0.275-0.06,0.37-0.163
						c0.095-0.104,0.141-0.243,0.128-0.384L35.065,28.671z M28.549,43.5l1.33-14.186c1.421,0.246,2.821,0.246,4.242,0l1.33,14.186
						H28.549z"/>
				</g>
			</g>
		</g>
	</g>
	<g>
		<g>
			<path class="st4" d="M35,48h-6c-0.552,0-1,0.448-1,1s0.448,1,1,1h6c0.552,0,1-0.448,1-1S35.552,48,35,48z"/>
		</g>
	</g>
	<g>
		<g>
			<g>
				<g>
					<path class="st0" d="M35,47.5h-6c-0.827,0-1.5,0.673-1.5,1.5s0.673,1.5,1.5,1.5h6c0.827,0,1.5-0.673,1.5-1.5
						S35.827,47.5,35,47.5z M35,49.5h-6c-0.276,0-0.5-0.225-0.5-0.5s0.224-0.5,0.5-0.5h6c0.276,0,0.5,0.225,0.5,0.5
						S35.276,49.5,35,49.5z"/>
				</g>
			</g>
		</g>
	</g>
</g>
</svg>
