<?xml version="1.0" encoding="utf-8"?>
<!-- Generator: Adobe Illustrator 21.1.0, SVG Export Plug-In . SVG Version: 6.00 Build 0)  -->
<svg version="1.1" id="Icon_Set" xmlns="http://www.w3.org/2000/svg" xmlns:xlink="http://www.w3.org/1999/xlink" x="0px" y="0px"
	 viewBox="0 0 64 64" style="enable-background:new 0 0 64 64;" xml:space="preserve">
<style type="text/css">
	.st0{fill:#37474F;}
	.st1{fill:#EF5350;}
	.st2{fill:#FFCA28;}
	.st3{fill:#64B5F6;}
	.st4{fill:#FFFFFF;}
	.st5{fill:#FF7043;}
</style>
<g id="Back_To_School">
	<g>
		<g>
			<g>
				<path class="st2" d="M45,24.5H10c2.761,2.761,2.761,7.239,0,10h35c2.761,0,5-2.239,5-5C50,26.738,47.762,24.5,45,24.5z"/>
			</g>
		</g>
		<g>
			<g>
				<g>
					<g>
						<path class="st0" d="M45,24H10c-0.202,0-0.385,0.122-0.462,0.309c-0.078,0.187-0.035,0.402,0.108,0.545
							c1.241,1.241,1.924,2.891,1.924,4.646s-0.683,3.405-1.924,4.646c-0.143,0.143-0.186,0.358-0.108,0.545
							C9.616,34.878,9.798,35,10,35h35c3.033,0,5.5-2.467,5.5-5.5S48.033,24,45,24z M45,34h-33.91c0.961-1.295,1.48-2.857,1.48-4.5
							s-0.519-3.205-1.48-4.5H45c2.481,0,4.5,2.019,4.5,4.5S47.482,34,45,34z"/>
					</g>
				</g>
			</g>
		</g>
	</g>
	<g>
		<g>
			<path class="st4" d="M44.5,27H11.61c0.607,1.609,0.607,3.391,0,5H44.5c1.381,0,2.5-1.119,2.5-2.5C47,28.119,45.881,27,44.5,27z"
				/>
		</g>
	</g>
	<g>
		<g>
			<g>
				<g>
					<path class="st0" d="M44.5,26.5H11.61c-0.164,0-0.318,0.081-0.411,0.216c-0.094,0.135-0.115,0.307-0.057,0.461
						c0.565,1.498,0.565,3.148,0,4.646c-0.058,0.154-0.037,0.326,0.057,0.461c0.093,0.135,0.247,0.216,0.411,0.216H44.5
						c1.654,0,3-1.346,3-3S46.155,26.5,44.5,26.5z M44.5,31.5H12.297c0.358-1.31,0.358-2.69,0-4H44.5c1.103,0,2,0.897,2,2
						S45.604,31.5,44.5,31.5z"/>
				</g>
			</g>
		</g>
	</g>
	<g>
		<g>
			<g>
				<path class="st0" d="M42,29H12.062c-0.276,0-0.5,0.224-0.5,0.5s0.224,0.5,0.5,0.5H42c0.276,0,0.5-0.224,0.5-0.5S42.277,29,42,29
					z"/>
			</g>
		</g>
	</g>
	<g>
		<g>
			<path class="st1" d="M38.546,9.881c-2.057-2.743-6.143-2.83-8.314-0.176L30,9.988L29.77,9.706
				c-2.171-2.654-6.257-2.568-8.314,0.176c-1.219,1.626-1.533,3.758-0.833,5.666l2.174,5.929c1.084,2.956,4.746,3.978,7.204,2.012
				c2.458,1.967,6.121,0.944,7.204-2.012l2.174-5.929C40.078,13.639,39.765,11.507,38.546,9.881z"/>
		</g>
	</g>
	<g>
		<g>
			<g>
				<g>
					<path class="st0" d="M38.945,9.582C37.872,8.15,36.23,7.308,34.441,7.27C32.717,7.259,31.128,7.937,30,9.206
						c-1.128-1.27-2.748-1.962-4.441-1.937c-1.789,0.038-3.431,0.88-4.504,2.312c-1.326,1.769-1.664,4.063-0.902,6.137l2.174,5.93
						c0.573,1.562,1.82,2.714,3.422,3.161c1.477,0.41,3.005,0.156,4.251-0.7c0.856,0.587,1.845,0.893,2.858,0.893
						c0.462,0,0.931-0.064,1.394-0.193c1.602-0.447,2.849-1.6,3.421-3.161l2.174-5.93C40.609,13.644,40.271,11.349,38.945,9.582z
						 M38.91,15.375l-2.174,5.93c-0.46,1.256-1.463,2.182-2.752,2.542c-1.288,0.361-2.625,0.087-3.67-0.749
						c-0.091-0.073-0.202-0.109-0.312-0.109s-0.221,0.037-0.312,0.109c-1.044,0.836-2.38,1.109-3.67,0.749
						c-1.289-0.359-2.292-1.286-2.752-2.542l-2.174-5.93c-0.644-1.755-0.358-3.697,0.764-5.193c0.888-1.184,2.246-1.88,3.726-1.912
						c1.471-0.051,2.865,0.607,3.802,1.753l0.231,0.282c0.189,0.231,0.584,0.231,0.773,0l0.231-0.282l0,0
						c0.937-1.145,2.309-1.787,3.802-1.752c1.479,0.031,2.837,0.728,3.725,1.912C39.268,11.677,39.553,13.619,38.91,15.375z"/>
				</g>
			</g>
		</g>
	</g>
	<g>
		<g>
			<path class="st0" d="M36.545,11.381c-0.53-0.707-1.342-1.113-2.227-1.113c-0.276,0-0.5,0.224-0.5,0.5s0.224,0.5,0.5,0.5
				c0.567,0,1.087,0.26,1.427,0.712c0.51,0.681,0.64,1.563,0.347,2.361c-0.095,0.259,0.038,0.546,0.297,0.642
				c0.057,0.021,0.115,0.031,0.172,0.031c0.204,0,0.395-0.125,0.469-0.328C37.441,13.569,37.26,12.333,36.545,11.381z"/>
		</g>
	</g>
	<g>
		<g>
			<path class="st0" d="M28.89,2.254l-0.536-0.536c-0.195-0.195-0.512-0.195-0.707,0s-0.195,0.512,0,0.707l0.536,0.536
				c0.85,0.85,1.318,1.98,1.318,3.182V6.5C29.5,6.776,29.724,7,30,7s0.5-0.224,0.5-0.5V6.143C30.5,4.674,29.928,3.292,28.89,2.254z"
				/>
		</g>
	</g>
	<g>
		<g>
			<g>
				<g>
					<g>
						<path class="st0" d="M35.496,0.976c-0.014-0.254-0.217-0.458-0.471-0.472c-0.105-0.006-2.607-0.125-4.126,1.394
							c-1.52,1.52-1.399,4.021-1.394,4.126c0.014,0.254,0.217,0.458,0.472,0.471C29.992,6.497,30.063,6.5,30.178,6.5
							c0.64,0,2.636-0.109,3.924-1.398C35.622,3.582,35.502,1.082,35.496,0.976z M33.395,4.395c-0.851,0.851-2.176,1.05-2.883,1.094
							c0.043-0.707,0.242-2.032,1.093-2.883c0.852-0.852,2.178-1.05,2.884-1.093C34.448,2.216,34.25,3.539,33.395,4.395z"/>
					</g>
				</g>
			</g>
		</g>
	</g>
	<g>
		<g>
			<g>
				<path class="st3" d="M55,34.5H22c-3.866,0-7,3.134-7,7c0,3.866,3.134,7,7,7h33C52.009,44.312,52.009,38.687,55,34.5z"/>
			</g>
		</g>
		<g>
			<g>
				<g>
					<g>
						<path class="st0" d="M55.407,34.79c0.109-0.152,0.124-0.353,0.038-0.52C55.359,34.104,55.188,34,55,34H22
							c-4.136,0-7.5,3.364-7.5,7.5S17.865,49,22,49h33c0.188,0,0.359-0.104,0.445-0.271c0.085-0.167,0.071-0.367-0.038-0.52
							C52.541,44.196,52.541,38.803,55.407,34.79z M22,48c-3.584,0-6.5-2.916-6.5-6.5S18.417,35,22,35h32.072
							c-2.42,3.991-2.42,9.009,0,13H22z"/>
					</g>
				</g>
			</g>
		</g>
	</g>
	<g>
		<g>
			<path class="st4" d="M53.144,38.499H22c-1.657,0-3,1.343-3,3s1.343,3,3,3h31.143C52.638,42.532,52.638,40.467,53.144,38.499z"/>
		</g>
	</g>
	<g>
		<g>
			<g>
				<g>
					<path class="st0" d="M53.628,38.624c0.039-0.15,0.005-0.309-0.089-0.431C53.444,38.071,53.298,38,53.144,38H22
						c-1.93,0-3.5,1.57-3.5,3.5S20.071,45,22,45h31.143c0.155,0,0.3-0.071,0.395-0.193c0.095-0.123,0.128-0.281,0.089-0.431
						C53.144,42.494,53.144,40.505,53.628,38.624z M52.516,44H22c-1.378,0-2.5-1.122-2.5-2.5S20.622,39,22,39h30.515
						C52.182,40.646,52.182,42.353,52.516,44z"/>
				</g>
			</g>
		</g>
	</g>
	<g>
		<g>
			<g>
				<path class="st0" d="M52.764,41H24c-0.276,0-0.5,0.224-0.5,0.5S23.724,42,24,42h28.764c0.276,0,0.5-0.224,0.5-0.5
					S53.041,41,52.764,41z"/>
			</g>
		</g>
	</g>
	<g>
		<g>
			<g>
				<path class="st0" d="M61,48H14c-0.276,0-0.5,0.224-0.5,0.5S13.724,49,14,49h47c1.103,0,2,0.897,2,2v1c0,1.103-0.897,2-2,2H3
					c-1.103,0-2-0.897-2-2v-1c0-1.103,0.897-2,2-2h2c0.276,0,0.5-0.224,0.5-0.5S5.277,48,5,48H3c-1.654,0-3,1.346-3,3v1
					c0,1.654,1.346,3,3,3h58c1.654,0,3-1.346,3-3v-1C64,49.345,62.655,48,61,48z"/>
			</g>
		</g>
		<g>
			<g>
				<g>
					<path class="st0" d="M11,48H8c-0.276,0-0.5,0.224-0.5,0.5S7.724,49,8,49h3c0.276,0,0.5-0.224,0.5-0.5S11.277,48,11,48z"/>
				</g>
			</g>
		</g>
		<g>
			<g>
				<path class="st0" d="M9.5,56C9.224,56,9,56.223,9,56.5V63c0,0.276,0.224,0.5,0.5,0.5S10,63.276,10,63v-6.5
					C10,56.223,9.777,56,9.5,56z"/>
			</g>
		</g>
		<g>
			<g>
				<path class="st0" d="M3.5,56C3.224,56,3,56.223,3,56.5V63c0,0.276,0.224,0.5,0.5,0.5S4,63.276,4,63v-6.5
					C4,56.223,3.777,56,3.5,56z"/>
			</g>
		</g>
		<g>
			<g>
				<path class="st0" d="M60.5,56c-0.276,0-0.5,0.224-0.5,0.5V63c0,0.276,0.224,0.5,0.5,0.5S61,63.276,61,63v-6.5
					C61,56.223,60.777,56,60.5,56z"/>
			</g>
		</g>
		<g>
			<g>
				<path class="st0" d="M54.5,56c-0.276,0-0.5,0.224-0.5,0.5V63c0,0.276,0.224,0.5,0.5,0.5S55,63.276,55,63v-6.5
					C55,56.223,54.777,56,54.5,56z"/>
			</g>
		</g>
	</g>
</g>
</svg>
