<?xml version="1.0" encoding="utf-8"?>
<!-- Generator: Adobe Illustrator 21.1.0, SVG Export Plug-In . SVG Version: 6.00 Build 0)  -->
<svg version="1.1" id="Icon_Set" xmlns="http://www.w3.org/2000/svg" xmlns:xlink="http://www.w3.org/1999/xlink" x="0px" y="0px"
	 viewBox="0 0 64 64" style="enable-background:new 0 0 64 64;" xml:space="preserve">
<style type="text/css">
	.st0{fill:#37474F;}
	.st1{fill:#EF5350;}
	.st2{fill:#FFCA28;}
	.st3{fill:#64B5F6;}
	.st4{fill:#FFFFFF;}
	.st5{fill:#FF7043;}
</style>
<g id="Best_Grade">
	<g>
		<g>
			<path class="st3" d="M13.713,43.162l7-3c0,0,0.001,0,0.002,0c0.138-0.059,0.285-0.099,0.437-0.126
				c0.047-0.008,0.094-0.009,0.141-0.014c0.069-0.007,0.136-0.021,0.208-0.021h27v-20c0-0.552-0.448-1-1-1h-7v7.5
				c0,1.381-1.119,2.5-2.5,2.5H19c-1.381,0-2.5-1.119-2.5-2.5v-7.5h-9c-0.552,0-1,0.448-1,1v32c0,0.552,0.448,1,1,1h40
				c0.552,0,1-0.448,1-1v-2h-27c-0.134,0-0.268-0.013-0.4-0.04c-0.134-0.027-0.263-0.068-0.386-0.121c-0.001,0-0.002,0-0.002,0
				l-7.001-3c-0.736-0.315-1.212-1.038-1.212-1.838S12.977,43.478,13.713,43.162z"/>
		</g>
	</g>
	<g>
		<g>
			<path class="st0" d="M0.5,23.501c-0.276,0-0.5,0.224-0.5,0.5v3c0,0.276,0.224,0.5,0.5,0.5s0.5-0.224,0.5-0.5v-3
				C1,23.725,0.776,23.501,0.5,23.501z"/>
		</g>
	</g>
	<g>
		<g>
			<g>
				<g>
					<g>
						<path class="st0" d="M52.5,32.501c-1.103,0-2,0.897-2,2v3c0,1.103,0.897,2,2,2s2-0.897,2-2v-3
							C54.5,33.398,53.603,32.501,52.5,32.501z M53.5,37.501c0,0.552-0.448,1-1,1s-1-0.448-1-1v-3c0-0.552,0.448-1,1-1s1,0.448,1,1
							V37.501z"/>
					</g>
				</g>
			</g>
		</g>
	</g>
	<g>
		<g>
			<g>
				<path class="st0" d="M3.5,33.501c-0.276,0-0.5,0.224-0.5,0.5v4c0,0.276,0.224,0.5,0.5,0.5s0.5-0.224,0.5-0.5v-4
					C4,33.725,3.776,33.501,3.5,33.501z"/>
			</g>
		</g>
	</g>
	<g>
		<g>
			<path class="st2" d="M36,7.001H21c-1.381,0-2.5,1.119-2.5,2.5v15c0,1.381,1.119,2.5,2.5,2.5h15c1.381,0,2.5-1.119,2.5-2.5v-15
				C38.5,8.12,37.381,7.001,36,7.001z"/>
		</g>
	</g>
	<g>
		<g>
			<g>
				<g>
					<path class="st0" d="M36,6.501H21c-1.654,0-3,1.346-3,3v15c0,1.654,1.346,3,3,3h15c1.654,0,3-1.346,3-3v-15
						C39,7.847,37.654,6.501,36,6.501z M38,24.501c0,1.103-0.897,2-2,2H21c-1.103,0-2-0.897-2-2v-15c0-1.103,0.897-2,2-2h15
						c1.103,0,2,0.897,2,2V24.501z"/>
				</g>
			</g>
		</g>
	</g>
	<g>
		<g>
			<path class="st0" d="M51.5,14.501h-11c-0.276,0-0.5,0.224-0.5,0.5s0.224,0.5,0.5,0.5h11c2.481,0,4.5,2.019,4.5,4.5v20
				c0,0.276,0.224,0.5,0.5,0.5s0.5-0.224,0.5-0.5v-20C57,16.969,54.532,14.501,51.5,14.501z"/>
		</g>
	</g>
	<g>
		<g>
			<path class="st0" d="M56.5,49.501c-0.276,0-0.5,0.224-0.5,0.5v2c0,2.481-2.019,4.5-4.5,4.5h-46c-2.481,0-4.5-2.019-4.5-4.5v-32
				c0-2.481,2.019-4.5,4.5-4.5h11c0.276,0,0.5-0.224,0.5-0.5s-0.224-0.5-0.5-0.5h-11c-3.032,0-5.5,2.468-5.5,5.5v32
				c0,3.032,2.468,5.5,5.5,5.5h46c3.032,0,5.5-2.468,5.5-5.5v-2C57,49.725,56.776,49.501,56.5,49.501z"/>
		</g>
	</g>
	<g>
		<g>
			<path class="st0" d="M47.5,18.501h-7c-0.276,0-0.5,0.224-0.5,0.5s0.224,0.5,0.5,0.5h7c0.275,0,0.5,0.225,0.5,0.5v20
				c0,0.276,0.224,0.5,0.5,0.5s0.5-0.224,0.5-0.5v-20C49,19.174,48.327,18.501,47.5,18.501z"/>
		</g>
	</g>
	<g>
		<g>
			<path class="st0" d="M48.5,49.501c-0.276,0-0.5,0.224-0.5,0.5v2c0,0.275-0.225,0.5-0.5,0.5h-40c-0.275,0-0.5-0.225-0.5-0.5
				V31.584c0-0.276-0.224-0.5-0.5-0.5S6,31.308,6,31.584v20.417c0,0.827,0.673,1.5,1.5,1.5h40c0.827,0,1.5-0.673,1.5-1.5v-2
				C49,49.725,48.776,49.501,48.5,49.501z"/>
		</g>
	</g>
	<g>
		<g>
			<path class="st0" d="M6.5,25.084c-0.276,0-0.5,0.224-0.5,0.5v3c0,0.276,0.224,0.5,0.5,0.5S7,28.86,7,28.584v-3
				C7,25.308,6.776,25.084,6.5,25.084z"/>
		</g>
	</g>
	<g>
		<g>
			<path class="st0" d="M16.5,18.501h-9c-0.827,0-1.5,0.673-1.5,1.5v2.583c0,0.276,0.224,0.5,0.5,0.5S7,22.86,7,22.584v-2.583
				c0-0.275,0.225-0.5,0.5-0.5h9c0.276,0,0.5-0.224,0.5-0.5S16.776,18.501,16.5,18.501z"/>
		</g>
	</g>
	<g>
		<g>
			<path class="st0" d="M28.958,20.801l-3.5-8c-0.158-0.365-0.758-0.365-0.916,0l-3.5,8c-0.11,0.253,0.005,0.548,0.258,0.658
				c0.254,0.111,0.548-0.004,0.658-0.258L25,14.248l3.042,6.953c0.082,0.188,0.266,0.3,0.458,0.3c0.067,0,0.135-0.014,0.2-0.042
				C28.953,21.349,29.068,21.054,28.958,20.801z"/>
		</g>
	</g>
	<g>
		<g>
			<path class="st0" d="M26.875,17.501h-3.75c-0.276,0-0.5,0.224-0.5,0.5s0.224,0.5,0.5,0.5h3.75c0.276,0,0.5-0.224,0.5-0.5
				S27.151,17.501,26.875,17.501z"/>
		</g>
	</g>
	<g>
		<g>
			<path class="st0" d="M32,13.001c-0.276,0-0.5,0.224-0.5,0.5v5c0,0.276,0.224,0.5,0.5,0.5s0.5-0.224,0.5-0.5v-5
				C32.5,13.225,32.276,13.001,32,13.001z"/>
		</g>
	</g>
	<g>
		<g>
			<path class="st0" d="M34.5,15.501h-5c-0.276,0-0.5,0.224-0.5,0.5s0.224,0.5,0.5,0.5h5c0.276,0,0.5-0.224,0.5-0.5
				S34.776,15.501,34.5,15.501z"/>
		</g>
	</g>
	<g>
		<g>
			<g>
				<path class="st4" d="M61,42.001H21.5v6H61c1.381,0,2.5-1.119,2.5-2.5v-1C63.5,43.12,62.381,42.001,61,42.001z"/>
			</g>
		</g>
		<g>
			<g>
				<g>
					<g>
						<path class="st0" d="M61,41.501H21.5c-0.276,0-0.5,0.224-0.5,0.5v6c0,0.276,0.224,0.5,0.5,0.5H61c1.654,0,3-1.346,3-3v-1
							C64,42.847,62.654,41.501,61,41.501z M63,45.501c0,1.103-0.897,2-2,2H22v-5h39c1.103,0,2,0.897,2,2V45.501z"/>
					</g>
				</g>
			</g>
		</g>
	</g>
	<g>
		<g>
			<g>
				<polygon class="st4" points="14.5,45.001 21.5,48.001 21.5,42.001 				"/>
			</g>
		</g>
		<g>
			<g>
				<g>
					<g>
						<path class="st0" d="M21.775,41.584c-0.141-0.094-0.317-0.108-0.473-0.043l-7,3C14.119,44.62,14,44.801,14,45.001
							s0.119,0.381,0.303,0.46l7,3c0.063,0.026,0.131,0.04,0.197,0.04c0.097,0,0.192-0.028,0.275-0.083
							C21.916,48.326,22,48.169,22,48.001v-6C22,41.833,21.916,41.676,21.775,41.584z M21,47.243l-5.23-2.242L21,42.759V47.243z"/>
					</g>
				</g>
			</g>
		</g>
	</g>
	<g>
		<g>
			<rect x="21.5" y="42.001" class="st1" width="8" height="6"/>
		</g>
	</g>
	<g>
		<g>
			<g>
				<g>
					<path class="st0" d="M29.5,41.501h-8c-0.276,0-0.5,0.224-0.5,0.5v6c0,0.276,0.224,0.5,0.5,0.5h8c0.276,0,0.5-0.224,0.5-0.5v-6
						C30,41.725,29.776,41.501,29.5,41.501z M29,47.501h-7v-5h7V47.501z"/>
				</g>
			</g>
		</g>
	</g>
</g>
</svg>
