<?xml version="1.0" encoding="utf-8"?>
<!-- Generator: Adobe Illustrator 21.1.0, SVG Export Plug-In . SVG Version: 6.00 Build 0)  -->
<svg version="1.1" id="Icon_Set" xmlns="http://www.w3.org/2000/svg" xmlns:xlink="http://www.w3.org/1999/xlink" x="0px" y="0px"
	 viewBox="0 0 64 64" style="enable-background:new 0 0 64 64;" xml:space="preserve">
<style type="text/css">
	.st0{fill:#37474F;}
	.st1{fill:#EF5350;}
	.st2{fill:#FFCA28;}
	.st3{fill:#64B5F6;}
	.st4{fill:#FFFFFF;}
	.st5{fill:#FF7043;}
</style>
<g id="Biology">
	<g>
		<g>
			<path class="st0" d="M36.463,54.5h-8.927c-0.276,0-0.5,0.224-0.5,0.5s0.224,0.5,0.5,0.5h8.927c0.276,0,0.5-0.224,0.5-0.5
				S36.74,54.5,36.463,54.5z"/>
		</g>
	</g>
	<g>
		<g>
			<path class="st0" d="M38.915,58.5h-13.83c-0.276,0-0.5,0.224-0.5,0.5s0.224,0.5,0.5,0.5h13.83c0.276,0,0.5-0.224,0.5-0.5
				S39.191,58.5,38.915,58.5z"/>
		</g>
	</g>
	<g>
		<g>
			<path class="st0" d="M35.883,37h-7.766c-0.276,0-0.5,0.224-0.5,0.5s0.224,0.5,0.5,0.5h7.766c0.276,0,0.5-0.224,0.5-0.5
				S36.159,37,35.883,37z"/>
		</g>
	</g>
	<g>
		<g>
			<path class="st0" d="M38.807,33H25.192c-0.276,0-0.5,0.224-0.5,0.5s0.224,0.5,0.5,0.5h13.615c0.276,0,0.5-0.224,0.5-0.5
				S39.083,33,38.807,33z"/>
		</g>
	</g>
	<g>
		<g>
			<path class="st0" d="M34.566,25h-5.132c-0.276,0-0.5,0.224-0.5,0.5s0.224,0.5,0.5,0.5h5.132c0.276,0,0.5-0.224,0.5-0.5
				S34.842,25,34.566,25z"/>
		</g>
	</g>
	<g>
		<g>
			<path class="st0" d="M38.438,29H25.561c-0.276,0-0.5,0.224-0.5,0.5s0.224,0.5,0.5,0.5h12.877c0.276,0,0.5-0.224,0.5-0.5
				S38.715,29,38.438,29z"/>
		</g>
	</g>
	<g>
		<g>
			<path class="st0" d="M38.915,4.5h-13.83c-0.276,0-0.5,0.224-0.5,0.5s0.224,0.5,0.5,0.5h13.83c0.276,0,0.5-0.224,0.5-0.5
				S39.191,4.5,38.915,4.5z"/>
		</g>
	</g>
	<g>
		<g>
			<path class="st0" d="M36.462,8.5h-8.925c-0.276,0-0.5,0.224-0.5,0.5s0.224,0.5,0.5,0.5h8.925c0.276,0,0.5-0.224,0.5-0.5
				S36.739,8.5,36.462,8.5z"/>
		</g>
	</g>
	<g>
		<g>
			<g>
				<path class="st1" d="M30.071,41.333C25.607,38.496,23,35.986,23,32c0-4.922,3.972-7.593,10.512-11.409
					C39.834,16.903,47,12.723,47,4c0-1.657-1.343-3-3-3s-3,1.343-3,3c0,4.922-3.972,7.593-10.512,11.409
					C24.166,19.096,17,23.277,17,32c0,5.943,3.328,9.776,7.448,12.782"/>
			</g>
		</g>
	</g>
	<g>
		<g>
			<path class="st0" d="M24.743,44.378c-3.102-2.264-5.066-4.516-6.181-7.085c-0.109-0.254-0.404-0.369-0.658-0.259
				c-0.253,0.11-0.37,0.404-0.259,0.658c1.189,2.739,3.257,5.121,6.508,7.494c0.089,0.065,0.192,0.096,0.294,0.096
				c0.154,0,0.307-0.071,0.404-0.205C25.015,44.854,24.966,44.541,24.743,44.378z"/>
		</g>
	</g>
	<g>
		<g>
			<path class="st0" d="M17.703,29.585c0.047-0.272-0.135-0.531-0.407-0.578c-0.271-0.047-0.53,0.135-0.578,0.407
				C16.573,30.243,16.5,31.113,16.5,32c0,0.524,0.025,1.046,0.076,1.55c0.026,0.258,0.243,0.45,0.497,0.45
				c0.017,0,0.033-0.001,0.05-0.002c0.274-0.027,0.475-0.272,0.448-0.547C17.524,32.979,17.5,32.491,17.5,32
				C17.5,31.17,17.568,30.358,17.703,29.585z"/>
		</g>
	</g>
	<g>
		<g>
			<path class="st0" d="M44,0.5c-1.93,0-3.5,1.57-3.5,3.5c0,4.653-3.877,7.251-10.264,10.977
				c-4.478,2.612-9.554,5.572-12.086,10.286c-0.131,0.244-0.04,0.546,0.204,0.677c0.244,0.131,0.546,0.04,0.677-0.204
				c2.399-4.465,7.345-7.35,11.709-9.896C37.436,11.935,41.5,9.189,41.5,4c0-1.378,1.122-2.5,2.5-2.5s2.5,1.122,2.5,2.5
				c0,8.436-7.034,12.539-13.24,16.16C26.565,24.065,22.5,26.811,22.5,32c0,4.259,2.794,6.89,7.302,9.755
				c0.083,0.053,0.176,0.078,0.268,0.078c0.166,0,0.327-0.082,0.422-0.232c0.148-0.233,0.08-0.542-0.154-0.69
				C26.117,38.228,23.5,35.802,23.5,32c0-4.653,3.877-7.251,10.264-10.977C40.203,17.267,47.5,13.01,47.5,4
				C47.5,2.07,45.93,0.5,44,0.5z"/>
		</g>
	</g>
	<g>
		<g>
			<g>
				<path class="st1" d="M33.93,50.667C38.394,53.504,41,56.014,41,60c0,1.657,1.343,3,3,3s3-1.343,3-3
					c0-5.944-3.329-9.777-7.45-12.784"/>
			</g>
		</g>
		<g>
			<g>
				<path class="st0" d="M39.845,46.812c-0.223-0.163-0.537-0.113-0.699,0.109c-0.163,0.223-0.114,0.536,0.109,0.699
					C44.266,51.276,46.5,55.095,46.5,60c0,1.378-1.122,2.5-2.5,2.5s-2.5-1.122-2.5-2.5c0-4.259-2.794-6.89-7.302-9.754
					c-0.233-0.148-0.542-0.079-0.69,0.154c-0.148,0.233-0.08,0.542,0.154,0.69C37.884,53.772,40.5,56.198,40.5,60
					c0,1.93,1.57,3.5,3.5,3.5s3.5-1.57,3.5-3.5C47.5,53.187,43.131,49.21,39.845,46.812z"/>
			</g>
		</g>
	</g>
	<g>
		<g>
			<g>
				<path class="st3" d="M30.071,13.333C25.607,10.496,23,7.986,23,4c0-1.657-1.343-3-3-3s-3,1.343-3,3
					c0,5.944,3.329,9.777,7.45,12.784"/>
			</g>
		</g>
		<g>
			<g>
				<path class="st0" d="M30.339,12.911C26.117,10.228,23.5,7.802,23.5,4c0-1.93-1.57-3.5-3.5-3.5S16.5,2.07,16.5,4
					c0,6.813,4.369,10.79,7.655,13.188c0.089,0.065,0.192,0.096,0.294,0.096c0.154,0,0.307-0.071,0.404-0.205
					c0.163-0.223,0.114-0.536-0.109-0.699C19.735,12.724,17.5,8.906,17.5,4c0-1.378,1.122-2.5,2.5-2.5s2.5,1.122,2.5,2.5
					c0,4.259,2.794,6.89,7.302,9.755c0.232,0.148,0.542,0.079,0.69-0.154S30.572,13.059,30.339,12.911z"/>
			</g>
		</g>
	</g>
	<g>
		<g>
			<g>
				<path class="st3" d="M33.929,22.666C38.394,25.503,41,28.013,41,32c0,4.922-3.972,7.593-10.512,11.409
					C24.166,47.096,17,51.277,17,60c0,1.657,1.343,3,3,3s3-1.343,3-3c0-4.922,3.972-7.593,10.512-11.409
					C39.834,44.903,47,40.723,47,32c0-5.944-3.329-9.777-7.45-12.784"/>
			</g>
		</g>
		<g>
			<g>
				<path class="st0" d="M39.845,18.812c-0.223-0.163-0.537-0.114-0.699,0.109c-0.163,0.223-0.114,0.536,0.109,0.699
					C44.266,23.276,46.5,27.095,46.5,32c0,8.436-7.034,12.539-13.24,16.16C26.565,52.065,22.5,54.811,22.5,60
					c0,1.378-1.122,2.5-2.5,2.5s-2.5-1.122-2.5-2.5c0-8.436,7.034-12.539,13.24-16.16C37.436,39.935,41.5,37.189,41.5,32
					c0-4.259-2.794-6.891-7.304-9.756c-0.232-0.147-0.542-0.079-0.69,0.154s-0.08,0.542,0.154,0.69
					c4.223,2.684,6.84,5.11,6.84,8.912c0,4.653-3.877,7.251-10.264,10.977C23.798,46.733,16.5,50.99,16.5,60
					c0,1.93,1.57,3.5,3.5,3.5s3.5-1.57,3.5-3.5c0-4.653,3.877-7.251,10.264-10.977C40.203,45.267,47.5,41.01,47.5,32
					C47.5,25.187,43.131,21.21,39.845,18.812z"/>
			</g>
		</g>
	</g>
</g>
</svg>
