<?xml version="1.0" encoding="utf-8"?>
<!-- Generator: Adobe Illustrator 21.1.0, SVG Export Plug-In . SVG Version: 6.00 Build 0)  -->
<svg version="1.1" id="Icon_Set" xmlns="http://www.w3.org/2000/svg" xmlns:xlink="http://www.w3.org/1999/xlink" x="0px" y="0px"
	 viewBox="0 0 64 64" style="enable-background:new 0 0 64 64;" xml:space="preserve">
<style type="text/css">
	.st0{fill:#37474F;}
	.st1{fill:#EF5350;}
	.st2{fill:#FFCA28;}
	.st3{fill:#64B5F6;}
	.st4{fill:#FFFFFF;}
	.st5{fill:#FF7043;}
</style>
<g id="Blended_Learning">
	<g>
		<g>
			<g>
				<g>
					<g>
						<path class="st0" d="M46,30.5c-7.995,0-14.5,6.505-14.5,14.5v8.5c0,1.103,0.897,2,2,2s2-0.897,2-2V45
							c0-5.79,4.71-10.5,10.5-10.5S56.5,39.21,56.5,45v8.5c0,1.103,0.897,2,2,2s2-0.897,2-2V45C60.5,37.004,53.995,30.5,46,30.5z
							 M59.5,53.5c0,0.551-0.449,1-1,1s-1-0.449-1-1V45c0-6.341-5.159-11.5-11.5-11.5S34.5,38.658,34.5,45v8.5c0,0.551-0.449,1-1,1
							s-1-0.449-1-1V45c0-7.444,6.056-13.5,13.5-13.5S59.5,37.556,59.5,45V53.5z"/>
					</g>
				</g>
			</g>
		</g>
	</g>
	<g>
		<g>
			<path class="st3" d="M35.5,48h-1c-0.552,0-1,0.448-1,1v10c0,0.552,0.448,1,1,1h1c0.552,0,1-0.448,1-1V49
				C36.5,48.447,36.052,48,35.5,48z"/>
		</g>
	</g>
	<g>
		<g>
			<g>
				<g>
					<path class="st0" d="M35.5,47.5h-1c-0.827,0-1.5,0.673-1.5,1.5v10c0,0.827,0.673,1.5,1.5,1.5h1c0.827,0,1.5-0.673,1.5-1.5V49
						C37,48.172,36.327,47.5,35.5,47.5z M36,59c0,0.276-0.224,0.5-0.5,0.5h-1c-0.276,0-0.5-0.224-0.5-0.5V49
						c0-0.276,0.224-0.5,0.5-0.5h1c0.276,0,0.5,0.224,0.5,0.5V59z"/>
				</g>
			</g>
		</g>
	</g>
	<g>
		<g>
			<path class="st3" d="M31,49c-1.381,0-2.5,1.119-2.5,2.5v5c0,1.381,1.119,2.5,2.5,2.5h2.5V49H31z"/>
		</g>
	</g>
	<g>
		<g>
			<g>
				<g>
					<path class="st0" d="M33.5,48.5H31c-1.654,0-3,1.346-3,3v5c0,1.654,1.346,3,3,3h2.5c0.276,0,0.5-0.224,0.5-0.5V49
						C34,48.723,33.776,48.5,33.5,48.5z M33,58.5h-2c-1.103,0-2-0.897-2-2v-5c0-1.103,0.897-2,2-2h2V58.5z"/>
				</g>
			</g>
		</g>
	</g>
	<g>
		<g>
			<path class="st3" d="M57.5,48h-1c-0.552,0-1,0.448-1,1v10c0,0.552,0.448,1,1,1h1c0.552,0,1-0.448,1-1V49
				C58.5,48.447,58.052,48,57.5,48z"/>
		</g>
	</g>
	<g>
		<g>
			<g>
				<g>
					<path class="st0" d="M57.5,47.5h-1c-0.827,0-1.5,0.673-1.5,1.5v10c0,0.827,0.673,1.5,1.5,1.5h1c0.827,0,1.5-0.673,1.5-1.5V49
						C59,48.172,58.327,47.5,57.5,47.5z M58,59c0,0.276-0.224,0.5-0.5,0.5h-1c-0.276,0-0.5-0.224-0.5-0.5V49
						c0-0.276,0.224-0.5,0.5-0.5h1c0.276,0,0.5,0.224,0.5,0.5V59z"/>
				</g>
			</g>
		</g>
	</g>
	<g>
		<g>
			<path class="st3" d="M61,49h-2.5v10H61c1.381,0,2.5-1.119,2.5-2.5v-5C63.5,50.119,62.381,49,61,49z"/>
		</g>
	</g>
	<g>
		<g>
			<g>
				<g>
					<path class="st0" d="M61,48.5h-2.5c-0.276,0-0.5,0.224-0.5,0.5v10c0,0.276,0.224,0.5,0.5,0.5H61c1.654,0,3-1.346,3-3v-5
						C64,49.845,62.654,48.5,61,48.5z M63,56.5c0,1.103-0.897,2-2,2h-2v-9h2c1.103,0,2,0.897,2,2V56.5z"/>
				</g>
			</g>
		</g>
	</g>
	<g>
		<g>
			<path class="st0" d="M43.5,35.86c-0.276,0-0.5,0.224-0.5,0.5V36.5c0,1.103-0.897,2-2,2h-1.689c-0.276,0-0.5,0.224-0.5,0.5
				s0.224,0.5,0.5,0.5H41c1.654,0,3-1.346,3-3V36.36C44,36.084,43.776,35.86,43.5,35.86z"/>
		</g>
	</g>
	<g>
		<g>
			<path class="st0" d="M31.178,38.5H3c-1.103,0-2-0.897-2-2V10c0-0.276-0.224-0.5-0.5-0.5S0,9.723,0,10v26.5c0,1.654,1.346,3,3,3
				h28.178c0.276,0,0.5-0.224,0.5-0.5S31.454,38.5,31.178,38.5z"/>
		</g>
	</g>
	<g>
		<g>
			<path class="st0" d="M43.5,9.5C43.224,9.5,43,9.723,43,10v19.215c0,0.276,0.224,0.5,0.5,0.5s0.5-0.224,0.5-0.5V10
				C44,9.723,43.776,9.5,43.5,9.5z"/>
		</g>
	</g>
	<g>
		<g>
			<path class="st2" d="M14,4h27c1.381,0,2.5,1.119,2.5,2.5V10h-43V6.5C0.5,5.119,1.619,4,3,4h2"/>
		</g>
	</g>
	<g>
		<g>
			<path class="st0" d="M41,3.5H14c-0.276,0-0.5,0.224-0.5,0.5s0.224,0.5,0.5,0.5h27c1.103,0,2,0.897,2,2v3H1v-3
				c0-1.103,0.897-2,2-2h2c0.276,0,0.5-0.224,0.5-0.5S5.276,3.5,5,3.5H3c-1.654,0-3,1.346-3,3V10c0,0.276,0.224,0.5,0.5,0.5h43
				c0.276,0,0.5-0.224,0.5-0.5V6.5C44,4.845,42.654,3.5,41,3.5z"/>
		</g>
	</g>
	<g>
		<g>
			<g>
				<g>
					<g>
						<path class="st0" d="M22.5,14.5h-18C4.224,14.5,4,14.723,4,15v3c0,0.276,0.224,0.5,0.5,0.5h18c0.276,0,0.5-0.224,0.5-0.5v-3
							C23,14.723,22.776,14.5,22.5,14.5z M22,17.5H5v-2h17V17.5z"/>
					</g>
				</g>
			</g>
		</g>
	</g>
	<g>
		<g>
			<path class="st0" d="M37.5,22.5h-33C4.224,22.5,4,22.723,4,23s0.224,0.5,0.5,0.5h33c0.276,0,0.5-0.224,0.5-0.5
				S37.776,22.5,37.5,22.5z"/>
		</g>
	</g>
	<g>
		<g>
			<path class="st0" d="M32.5,26.5h-28C4.224,26.5,4,26.723,4,27s0.224,0.5,0.5,0.5h28c0.276,0,0.5-0.224,0.5-0.5
				S32.776,26.5,32.5,26.5z"/>
		</g>
	</g>
	<g>
		<g>
			<path class="st0" d="M22.5,30.5h-18C4.224,30.5,4,30.723,4,31s0.224,0.5,0.5,0.5h18c0.276,0,0.5-0.224,0.5-0.5
				S22.776,30.5,22.5,30.5z"/>
		</g>
	</g>
	<g>
		<g>
			<path class="st0" d="M22.5,6.5h-18C4.224,6.5,4,6.723,4,7s0.224,0.5,0.5,0.5h18C22.776,7.5,23,7.276,23,7S22.776,6.5,22.5,6.5z"
				/>
		</g>
	</g>
	<g>
		<g>
			<path class="st0" d="M28.5,53.5h-20c-0.551,0-1-0.449-1-1s0.449-1,1-1h7c1.103,0,2-0.897,2-2s-0.897-2-2-2h-2
				c-0.551,0-1-0.449-1-1s0.449-1,1-1h6c1.654,0,3-1.346,3-3V41c0-0.276-0.224-0.5-0.5-0.5s-0.5,0.224-0.5,0.5v1.5
				c0,1.103-0.897,2-2,2h-6c-1.103,0-2,0.897-2,2s0.897,2,2,2h2c0.551,0,1,0.449,1,1s-0.449,1-1,1h-7c-1.103,0-2,0.897-2,2
				s0.897,2,2,2h20c0.276,0,0.5-0.224,0.5-0.5S28.776,53.5,28.5,53.5z"/>
		</g>
	</g>
	<g>
		<g>
			<circle class="st1" cx="56.5" cy="20" r="7"/>
		</g>
	</g>
	<g>
		<g>
			<g>
				<g>
					<path class="st0" d="M56.5,12.5c-4.136,0-7.5,3.364-7.5,7.5s3.364,7.5,7.5,7.5S64,24.135,64,20S60.636,12.5,56.5,12.5z
						 M56.5,26.5c-3.584,0-6.5-2.916-6.5-6.5s2.916-6.5,6.5-6.5S63,16.416,63,20S60.084,26.5,56.5,26.5z"/>
				</g>
			</g>
		</g>
	</g>
	<g>
		<g>
			<path class="st4" d="M59.088,19.148l-3.592-2.21c-0.666-0.41-1.524,0.069-1.524,0.852v4.421c0,0.782,0.858,1.262,1.524,0.852
				l3.592-2.21C59.722,20.461,59.722,19.539,59.088,19.148z"/>
		</g>
	</g>
	<g>
		<g>
			<g>
				<g>
					<path class="st0" d="M59.35,18.722l-3.592-2.21c-0.47-0.289-1.038-0.3-1.518-0.032c-0.481,0.269-0.769,0.758-0.769,1.31v4.421
						c0,0.551,0.287,1.041,0.768,1.31c0.231,0.129,0.482,0.193,0.733,0.193c0.271,0,0.542-0.075,0.786-0.225l3.592-2.21
						c0.447-0.275,0.713-0.753,0.713-1.278C60.063,19.475,59.797,18.998,59.35,18.722z M58.826,20.426l-3.591,2.21
						c-0.226,0.139-0.429,0.053-0.507,0.01c-0.077-0.043-0.256-0.172-0.256-0.437v-4.421c0-0.265,0.179-0.394,0.256-0.437
						c0.045-0.025,0.135-0.065,0.247-0.065c0.078,0,0.167,0.02,0.259,0.076l3.592,2.21c0.215,0.132,0.238,0.342,0.238,0.426
						C59.063,20.084,59.041,20.293,58.826,20.426z"/>
				</g>
			</g>
		</g>
	</g>
	<g>
		<g>
			<path class="st0" d="M41.405,6.5H38.5C38.224,6.5,38,6.723,38,7s0.224,0.5,0.5,0.5h2.905c0.276,0,0.5-0.224,0.5-0.5
				S41.682,6.5,41.405,6.5z"/>
		</g>
	</g>
	<g>
		<g>
			<g>
				<path class="st0" d="M11,3.5H8C7.724,3.5,7.5,3.723,7.5,4S7.724,4.5,8,4.5h3c0.276,0,0.5-0.224,0.5-0.5S11.276,3.5,11,3.5z"/>
			</g>
		</g>
	</g>
</g>
</svg>
