<?xml version="1.0" encoding="utf-8"?>
<!-- Generator: Adobe Illustrator 21.1.0, SVG Export Plug-In . SVG Version: 6.00 Build 0)  -->
<svg version="1.1" id="Icon_Set" xmlns="http://www.w3.org/2000/svg" xmlns:xlink="http://www.w3.org/1999/xlink" x="0px" y="0px"
	 viewBox="0 0 64 64" style="enable-background:new 0 0 64 64;" xml:space="preserve">
<style type="text/css">
	.st0{fill:#37474F;}
	.st1{fill:#EF5350;}
	.st2{fill:#FFCA28;}
	.st3{fill:#64B5F6;}
	.st4{fill:#FFFFFF;}
	.st5{fill:#FF7043;}
</style>
<g id="Brainstorming">
	<g>
		<g>
			<g>
				<g>
					<g>
						<path class="st0" d="M9.5,14C6.467,14,4,16.468,4,19.5S6.467,25,9.5,25s5.5-2.468,5.5-5.5S12.533,14,9.5,14z M9.5,24
							C7.019,24,5,21.981,5,19.5S7.019,15,9.5,15s4.5,2.019,4.5,4.5S11.981,24,9.5,24z"/>
					</g>
				</g>
			</g>
		</g>
	</g>
	<g>
		<g>
			<path class="st3" d="M43,30h-0.578c0.206-0.801,0.328-1.635,0.328-2.5c0-5.523-4.477-10-10-10c-3.748,0-7.01,2.065-8.722,5.117
				c-0.416-0.072-0.841-0.117-1.278-0.117c-4.142,0-7.5,3.358-7.5,7.5H15c-4.142,0-7.5,3.358-7.5,7.5S10.858,45,15,45h9.172
				l8.414-8.414c0.635-0.636,1.616-0.771,2.399-0.326c0.782,0.443,1.173,1.353,0.955,2.225L34.311,45H43c4.142,0,7.5-3.358,7.5-7.5
				S47.142,30,43,30z"/>
		</g>
	</g>
	<g>
		<g>
			<path class="st0" d="M28.407,24.343c-1.176-1.175-2.66-1.945-4.293-2.227c-0.272-0.047-0.531,0.136-0.578,0.408
				s0.136,0.531,0.408,0.578c1.429,0.246,2.727,0.919,3.756,1.947c0.098,0.098,0.226,0.146,0.354,0.146s0.256-0.049,0.354-0.146
				C28.602,24.854,28.602,24.538,28.407,24.343z"/>
		</g>
	</g>
	<g>
		<g>
			<path class="st0" d="M40.175,20.075c-0.195-0.195-0.512-0.195-0.707,0s-0.195,0.512,0,0.707c3.704,3.704,3.704,9.731,0,13.436
				c-0.195,0.195-0.195,0.512,0,0.707c0.098,0.098,0.226,0.146,0.354,0.146s0.256-0.049,0.354-0.146
				C44.269,30.831,44.269,24.169,40.175,20.075z"/>
		</g>
	</g>
	<g>
		<g>
			<path class="st2" d="M52.003,7.114c-1.908,0.4-3.437,1.958-3.816,3.87c-0.336,1.696,0.191,3.262,1.214,4.372
				c0.725,0.786,1.185,1.778,1.185,2.847V18.5h5v-0.295c0-1.075,0.47-2.068,1.196-2.861c0.808-0.882,1.304-2.051,1.304-3.343
				C58.086,8.885,55.237,6.435,52.003,7.114z"/>
		</g>
	</g>
	<g>
		<g>
			<g>
				<g>
					<path class="st0" d="M56.551,7.729c-1.294-1.051-2.992-1.451-4.65-1.104c-2.097,0.439-3.786,2.152-4.204,4.263
						c-0.348,1.756,0.139,3.509,1.337,4.808c0.679,0.737,1.053,1.628,1.053,2.509V18.5c0,0.276,0.224,0.5,0.5,0.5h5
						c0.276,0,0.5-0.224,0.5-0.5v-0.296c0-1.124,0.579-1.993,1.065-2.523c0.925-1.011,1.435-2.317,1.435-3.681
						C58.586,10.336,57.845,8.779,56.551,7.729z M56.413,15.005c-0.816,0.893-1.271,1.924-1.322,2.995h-4.01
						c-0.053-1.064-0.514-2.116-1.313-2.983c-0.979-1.062-1.376-2.496-1.091-3.936c0.342-1.722,1.719-3.12,3.429-3.479
						c1.365-0.284,2.756,0.042,3.815,0.902c1.058,0.859,1.665,2.134,1.665,3.495C57.586,13.112,57.17,14.18,56.413,15.005z"/>
				</g>
			</g>
		</g>
	</g>
	<g>
		<g>
			<g>
				<g>
					<g>
						<path class="st0" d="M55.586,18h-5c-0.276,0-0.5,0.224-0.5,0.5V21c0,1.654,1.346,3,3,3s3-1.346,3-3v-2.5
							C56.086,18.224,55.862,18,55.586,18z M55.086,21c0,1.103-0.897,2-2,2s-2-0.897-2-2v-2h4V21z"/>
					</g>
				</g>
			</g>
		</g>
	</g>
	<g>
		<g>
			<path class="st0" d="M55.586,20.5h-5c-0.276,0-0.5,0.224-0.5,0.5s0.224,0.5,0.5,0.5h5c0.276,0,0.5-0.224,0.5-0.5
				S55.862,20.5,55.586,20.5z"/>
		</g>
	</g>
	<g>
		<g>
			<path class="st0" d="M53.086,1.5c-0.276,0-0.5,0.224-0.5,0.5v2c0,0.276,0.224,0.5,0.5,0.5s0.5-0.224,0.5-0.5V2
				C53.586,1.724,53.362,1.5,53.086,1.5z"/>
		</g>
	</g>
	<g>
		<g>
			<path class="st0" d="M48.439,5.354l-1.415-1.414c-0.195-0.195-0.512-0.195-0.707,0s-0.195,0.512,0,0.707l1.415,1.414
				c0.098,0.098,0.226,0.146,0.354,0.146s0.256-0.049,0.354-0.146C48.635,5.865,48.635,5.549,48.439,5.354z"/>
		</g>
	</g>
	<g>
		<g>
			<path class="st0" d="M59.854,3.939c-0.195-0.195-0.512-0.195-0.707,0l-1.414,1.414c-0.195,0.195-0.195,0.512,0,0.707
				c0.098,0.098,0.226,0.146,0.354,0.146s0.256-0.049,0.354-0.146l1.414-1.414C60.049,4.451,60.049,4.135,59.854,3.939z"/>
		</g>
	</g>
	<g>
		<g>
			<path class="st0" d="M53.086,13c-0.276,0-0.5,0.224-0.5,0.5v5c0,0.276,0.224,0.5,0.5,0.5s0.5-0.224,0.5-0.5v-5
				C53.586,13.224,53.362,13,53.086,13z"/>
		</g>
	</g>
	<g>
		<g>
			<polygon class="st1" points="36,50 31,50 34,38 22,50 27,50 24,62 			"/>
		</g>
	</g>
	<g>
		<g>
			<g>
				<g>
					<path class="st0" d="M36.462,49.809C36.385,49.622,36.202,49.5,36,49.5h-4.359l2.845-11.379
						c0.055-0.218-0.043-0.445-0.239-0.557c-0.195-0.109-0.44-0.078-0.6,0.082l-12,12c-0.143,0.143-0.186,0.358-0.108,0.545
						C21.615,50.378,21.798,50.5,22,50.5h4.359l-2.844,11.379c-0.055,0.218,0.043,0.445,0.238,0.557
						C23.831,62.479,23.916,62.5,24,62.5c0.129,0,0.257-0.05,0.354-0.146l12-12C36.496,50.211,36.539,49.995,36.462,49.809z
						 M24.923,60.37l2.562-10.249c0.038-0.149,0.004-0.308-0.091-0.429S27.154,49.5,27,49.5h-3.793l9.87-9.87l-2.562,10.249
						c-0.038,0.149-0.004,0.308,0.091,0.429S30.846,50.5,31,50.5h3.793L24.923,60.37z"/>
				</g>
			</g>
		</g>
	</g>
	<g>
		<g>
			<path class="st0" d="M23.672,44.5H15c-3.86,0-7-3.141-7-7s3.14-7,7-7h0.25c0.276,0,0.5-0.224,0.5-0.5
				c0-1.138,0.279-2.268,0.807-3.267c0.129-0.244,0.036-0.547-0.208-0.676c-0.244-0.128-0.547-0.035-0.675,0.209
				c-0.527,0.996-0.837,2.106-0.907,3.236C10.462,29.628,7,33.167,7,37.5c0,4.411,3.589,8,8,8h8.672c0.276,0,0.5-0.224,0.5-0.5
				S23.948,44.5,23.672,44.5z"/>
		</g>
	</g>
	<g>
		<g>
			<path class="st0" d="M20.52,22.819c-0.099-0.258-0.389-0.386-0.646-0.287c-0.952,0.367-1.814,0.905-2.563,1.602
				c-0.202,0.188-0.214,0.504-0.026,0.706c0.098,0.106,0.232,0.16,0.366,0.16c0.122,0,0.244-0.044,0.34-0.134
				c0.655-0.608,1.41-1.08,2.242-1.4C20.491,23.366,20.619,23.077,20.52,22.819z"/>
		</g>
	</g>
	<g>
		<g>
			<path class="st0" d="M43.048,29.5c0.135-0.676,0.202-1.346,0.202-2c0-5.79-4.71-10.5-10.5-10.5c-3.674,0-7.083,1.935-8.983,5.07
				C23.413,22.023,23.078,22,22.75,22c-0.276,0-0.5,0.224-0.5,0.5s0.224,0.5,0.5,0.5c0.375,0,0.765,0.036,1.193,0.109
				c0.212,0.037,0.417-0.064,0.521-0.248C26.146,19.862,29.321,18,32.75,18c5.238,0,9.5,4.262,9.5,9.5
				c0,0.771-0.105,1.57-0.313,2.375c-0.038,0.15-0.006,0.31,0.089,0.432s0.241,0.193,0.396,0.193H43c3.859,0,7,3.141,7,7
				s-3.141,7-7,7h-8.188c-0.276,0-0.5,0.224-0.5,0.5s0.224,0.5,0.5,0.5H43c4.411,0,8-3.589,8-8C51,33.104,47.437,29.526,43.048,29.5
				z"/>
		</g>
	</g>
	<g>
		<g>
			<path class="st0" d="M53.5,47.5c-0.276,0-0.5,0.224-0.5,0.5v4c0,0.276,0.224,0.5,0.5,0.5S54,52.276,54,52v-4
				C54,47.724,53.776,47.5,53.5,47.5z"/>
		</g>
	</g>
	<g>
		<g>
			<path class="st0" d="M55.5,49.5h-4c-0.276,0-0.5,0.224-0.5,0.5s0.224,0.5,0.5,0.5h4c0.276,0,0.5-0.224,0.5-0.5
				S55.776,49.5,55.5,49.5z"/>
		</g>
	</g>
	<g>
		<g>
			<path class="st0" d="M9.5,17C9.224,17,9,17.224,9,17.5v4C9,21.776,9.224,22,9.5,22s0.5-0.224,0.5-0.5v-4
				C10,17.224,9.776,17,9.5,17z"/>
		</g>
	</g>
	<g>
		<g>
			<path class="st0" d="M11.5,19h-4C7.224,19,7,19.224,7,19.5S7.224,20,7.5,20h4c0.276,0,0.5-0.224,0.5-0.5S11.776,19,11.5,19z"/>
		</g>
	</g>
	<g>
		<g>
			<g>
				<g>
					<g>
						<path class="st0" d="M53.5,44.5c-3.032,0-5.5,2.468-5.5,5.5s2.468,5.5,5.5,5.5S59,53.032,59,50S56.532,44.5,53.5,44.5z
							 M53.5,54.5c-2.481,0-4.5-2.019-4.5-4.5s2.019-4.5,4.5-4.5S58,47.519,58,50S55.981,54.5,53.5,54.5z"/>
					</g>
				</g>
			</g>
		</g>
	</g>
</g>
</svg>
