<?xml version="1.0" encoding="utf-8"?>
<!-- Generator: Adobe Illustrator 21.1.0, SVG Export Plug-In . SVG Version: 6.00 Build 0)  -->
<svg version="1.1" id="Icon_Set" xmlns="http://www.w3.org/2000/svg" xmlns:xlink="http://www.w3.org/1999/xlink" x="0px" y="0px"
	 viewBox="0 0 64 64" style="enable-background:new 0 0 64 64;" xml:space="preserve">
<style type="text/css">
	.st0{fill:#37474F;}
	.st1{fill:#EF5350;}
	.st2{fill:#FFCA28;}
	.st3{fill:#64B5F6;}
	.st4{fill:#FFFFFF;}
	.st5{fill:#FF7043;}
</style>
<g id="Brain_Training">
	<g>
		<g>
			<rect x="38" y="30" class="st3" width="16" height="4"/>
		</g>
	</g>
	<g>
		<g>
			<g>
				<g>
					<path class="st0" d="M54,29.5H38c-0.276,0-0.5,0.224-0.5,0.5v4c0,0.276,0.224,0.5,0.5,0.5h16c0.276,0,0.5-0.224,0.5-0.5v-4
						C54.5,29.724,54.276,29.5,54,29.5z M53.5,33.5h-15v-3h15V33.5z"/>
				</g>
			</g>
		</g>
	</g>
	<g>
		<g>
			<path class="st3" d="M56,23.5h-1c-0.552,0-1,0.448-1,1v15c0,0.552,0.448,1,1,1h1c0.552,0,1-0.448,1-1v-15
				C57,23.948,56.552,23.5,56,23.5z"/>
		</g>
	</g>
	<g>
		<g>
			<g>
				<g>
					<path class="st0" d="M56,23h-1c-0.827,0-1.5,0.673-1.5,1.5v15c0,0.827,0.673,1.5,1.5,1.5h1c0.827,0,1.5-0.673,1.5-1.5v-15
						C57.5,23.673,56.827,23,56,23z M56.5,39.5c0,0.275-0.225,0.5-0.5,0.5h-1c-0.275,0-0.5-0.225-0.5-0.5v-15
						c0-0.275,0.225-0.5,0.5-0.5h1c0.275,0,0.5,0.225,0.5,0.5V39.5z"/>
				</g>
			</g>
		</g>
	</g>
	<g>
		<g>
			<path class="st3" d="M59,26h-2v12h2c0.552,0,1-0.448,1-1V27C60,26.448,59.552,26,59,26z"/>
		</g>
	</g>
	<g>
		<g>
			<g>
				<g>
					<path class="st0" d="M59,25.5h-2c-0.276,0-0.5,0.224-0.5,0.5v12c0,0.276,0.224,0.5,0.5,0.5h2c0.827,0,1.5-0.673,1.5-1.5V27
						C60.5,26.173,59.827,25.5,59,25.5z M59.5,37c0,0.275-0.225,0.5-0.5,0.5h-1.5v-11H59c0.275,0,0.5,0.225,0.5,0.5V37z"/>
				</g>
			</g>
		</g>
	</g>
	<g>
		<g>
			<path class="st3" d="M33,26c-0.552,0-1,0.448-1,1v10c0,0.552,0.448,1,1,1h2V26H33z"/>
		</g>
	</g>
	<g>
		<g>
			<g>
				<g>
					<path class="st0" d="M35,25.5h-2c-0.827,0-1.5,0.673-1.5,1.5v10c0,0.827,0.673,1.5,1.5,1.5h2c0.276,0,0.5-0.224,0.5-0.5V26
						C35.5,25.724,35.276,25.5,35,25.5z M34.5,37.5H33c-0.275,0-0.5-0.225-0.5-0.5V27c0-0.275,0.225-0.5,0.5-0.5h1.5V37.5z"/>
				</g>
			</g>
		</g>
	</g>
	<g>
		<g>
			<path class="st3" d="M37,23.5h-1c-0.552,0-1,0.448-1,1v15c0,0.552,0.448,1,1,1h1c0.552,0,1-0.448,1-1v-15
				C38,23.948,37.552,23.5,37,23.5z"/>
		</g>
	</g>
	<g>
		<g>
			<g>
				<g>
					<path class="st0" d="M37,23h-1c-0.827,0-1.5,0.673-1.5,1.5v15c0,0.827,0.673,1.5,1.5,1.5h1c0.827,0,1.5-0.673,1.5-1.5v-15
						C38.5,23.673,37.827,23,37,23z M37.5,39.5c0,0.275-0.225,0.5-0.5,0.5h-1c-0.275,0-0.5-0.225-0.5-0.5v-15
						c0-0.275,0.225-0.5,0.5-0.5h1c0.275,0,0.5,0.225,0.5,0.5V39.5z"/>
				</g>
			</g>
		</g>
	</g>
	<g>
		<g>
			<g>
				<path class="st2" d="M41.383,63.5v-9.784c0-1.112,0.371-2.192,1.053-3.07l1.734-2.229c2.731-3.511,4.213-7.831,4.213-12.279V36
					H40v3.5c0,1.654-1.346,3-3,3h-1c-1.483,0-2.71-1.084-2.949-2.5H33c-1.654,0-3-1.346-3-3V27c0-1.654,1.346-3,3-3h0.051
					c0.24-1.416,1.466-2.5,2.949-2.5h1c1.654,0,3,1.346,3,3V28h7.337c-2.474-6.986-9.12-12-16.954-12h0c-9.941,0-18,8.059-18,18v1
					L6.73,41.865C6.192,42.517,6.656,43.5,7.501,43.5h5.881V50c0,2.761,2.239,5,5,5h4.5c1.381,0,2.5,1.119,2.5,2.5v6"/>
			</g>
		</g>
	</g>
	<g>
		<g>
			<path class="st0" d="M22.883,54.5h-4.5c-2.481,0-4.5-2.019-4.5-4.5v-6.5c0-0.276-0.224-0.5-0.5-0.5H7.501
				c-0.294,0-0.42-0.219-0.451-0.286c-0.032-0.067-0.121-0.305,0.065-0.532l5.653-6.864c0.074-0.089,0.114-0.201,0.114-0.317v-0.999
				c0-2.178,0.395-4.301,1.172-6.311c0.101-0.258-0.027-0.547-0.285-0.646c-0.257-0.103-0.548,0.027-0.646,0.285
				c-0.823,2.126-1.24,4.37-1.24,6.672v0.819l-5.539,6.727c-0.373,0.452-0.449,1.063-0.199,1.594C6.396,43.671,6.915,44,7.501,44
				h5.382v6c0,3.032,2.468,5.5,5.5,5.5h4.5c1.103,0,2,0.897,2,2v6c0,0.276,0.224,0.5,0.5,0.5s0.5-0.224,0.5-0.5v-6
				C25.883,55.846,24.537,54.5,22.883,54.5z"/>
		</g>
	</g>
	<g>
		<g>
			<path class="st0" d="M17.769,21.148c-0.197-0.189-0.514-0.186-0.707,0.014c-0.904,0.938-1.713,1.977-2.401,3.084
				c-0.146,0.234-0.073,0.542,0.161,0.688c0.082,0.051,0.173,0.075,0.264,0.075c0.167,0,0.33-0.084,0.425-0.236
				c0.651-1.047,1.416-2.029,2.272-2.918C17.974,21.657,17.968,21.341,17.769,21.148z"/>
		</g>
	</g>
	<g>
		<g>
			<path class="st0" d="M47.809,27.833C45.196,20.456,38.193,15.5,30.383,15.5c-3.664,0-7.207,1.069-10.244,3.094
				c-0.229,0.153-0.292,0.464-0.139,0.693c0.153,0.23,0.465,0.289,0.693,0.139c2.872-1.914,6.223-2.926,9.689-2.926
				c7.388,0,14.012,4.688,16.482,11.667c0.073,0.205,0.266,0.333,0.472,0.333c0.056,0,0.111-0.009,0.167-0.028
				C47.764,28.379,47.9,28.094,47.809,27.833z"/>
		</g>
	</g>
	<g>
		<g>
			<path class="st0" d="M48.383,35.5c-0.276,0-0.5,0.224-0.5,0.5v0.139c0,4.314-1.459,8.565-4.107,11.972l-1.733,2.229
				c-0.747,0.96-1.159,2.159-1.159,3.376V63.5c0,0.276,0.224,0.5,0.5,0.5s0.5-0.224,0.5-0.5v-9.784c0-0.996,0.337-1.977,0.948-2.763
				l1.733-2.229c2.785-3.58,4.318-8.05,4.318-12.585V36C48.883,35.724,48.659,35.5,48.383,35.5z"/>
		</g>
	</g>
	<g>
		<g>
			<polygon class="st1" points="18,12.5 13,12.5 16,0.5 4,12.5 9,12.5 6,24.5 			"/>
		</g>
	</g>
	<g>
		<g>
			<g>
				<g>
					<path class="st0" d="M18.462,12.309C18.385,12.122,18.202,12,18,12h-4.359l2.845-11.379c0.055-0.218-0.043-0.445-0.239-0.557
						c-0.195-0.109-0.439-0.078-0.6,0.082l-12,12c-0.143,0.143-0.186,0.358-0.108,0.545S3.798,13,4,13h4.359L5.515,24.379
						c-0.055,0.218,0.043,0.445,0.239,0.557C5.831,24.979,5.916,25,6,25c0.129,0,0.257-0.05,0.354-0.146l12-12
						C18.496,12.711,18.539,12.495,18.462,12.309z M6.923,22.87l2.562-10.249c0.037-0.149,0.004-0.308-0.091-0.429S9.154,12,9,12
						H5.207l9.87-9.87l-2.562,10.249c-0.037,0.149-0.004,0.308,0.091,0.429S12.846,13,13,13h3.793L6.923,22.87z"/>
				</g>
			</g>
		</g>
	</g>
	<g>
		<g>
			<g>
				<g>
					<g>
						<path class="st0" d="M46.5,5.5C43.468,5.5,41,7.968,41,11s2.468,5.5,5.5,5.5S52,14.032,52,11S49.532,5.5,46.5,5.5z M46.5,15.5
							c-2.481,0-4.5-2.019-4.5-4.5s2.019-4.5,4.5-4.5S51,8.519,51,11S48.981,15.5,46.5,15.5z"/>
					</g>
				</g>
			</g>
		</g>
	</g>
	<g>
		<g>
			<path class="st0" d="M46.5,8.5C46.224,8.5,46,8.724,46,9v4c0,0.276,0.224,0.5,0.5,0.5S47,13.276,47,13V9
				C47,8.724,46.776,8.5,46.5,8.5z"/>
		</g>
	</g>
	<g>
		<g>
			<path class="st0" d="M48.5,10.5h-4c-0.276,0-0.5,0.224-0.5,0.5s0.224,0.5,0.5,0.5h4c0.276,0,0.5-0.224,0.5-0.5
				S48.776,10.5,48.5,10.5z"/>
		</g>
	</g>
</g>
</svg>
