<?xml version="1.0" encoding="utf-8"?>
<!-- Generator: Adobe Illustrator 21.1.0, SVG Export Plug-In . SVG Version: 6.00 Build 0)  -->
<svg version="1.1" id="Icon_Set" xmlns="http://www.w3.org/2000/svg" xmlns:xlink="http://www.w3.org/1999/xlink" x="0px" y="0px"
	 viewBox="0 0 64 64" style="enable-background:new 0 0 64 64;" xml:space="preserve">
<style type="text/css">
	.st0{fill:#37474F;}
	.st1{fill:#EF5350;}
	.st2{fill:#FFCA28;}
	.st3{fill:#64B5F6;}
	.st4{fill:#FFFFFF;}
	.st5{fill:#FF7043;}
</style>
<g id="Certificate">
	<g>
		<g>
			<path class="st0" d="M9,12.719H2.5v-4c0-2.206,1.794-4,4-4c0.276,0,0.5-0.224,0.5-0.5s-0.224-0.5-0.5-0.5c-2.757,0-5,2.243-5,5
				v4.5c0,0.276,0.224,0.5,0.5,0.5h7c0.276,0,0.5-0.224,0.5-0.5S9.277,12.719,9,12.719z"/>
		</g>
	</g>
	<g>
		<g>
			<g>
				<g>
					<g>
						<path class="st0" d="M61,50.219H20c-0.276,0-0.5,0.224-0.5,0.5v4.5c0,2.206-1.794,4-4,4c-0.276,0-0.5,0.224-0.5,0.5
							s0.224,0.5,0.5,0.5h41c2.757,0,5-2.243,5-5v-4.5C61.5,50.442,61.277,50.219,61,50.219z M60.5,55.219c0,2.206-1.794,4-4,4
							H18.498c1.215-0.913,2.003-2.366,2.003-4v-4h40V55.219z"/>
					</g>
				</g>
			</g>
		</g>
	</g>
	<g>
		<g>
			<path class="st2" d="M61.205,23.408l-1.34-1.34v-1.895c0-1.498-1.215-2.713-2.713-2.713h-1.895l-1.34-1.34
				c-1.059-1.06-2.777-1.06-3.837,0l-1.34,1.34h-1.895c-1.498,0-2.713,1.215-2.713,2.713v1.895l-1.34,1.34
				c-1.059,1.059-1.059,2.777,0,3.836l1.34,1.34v1.895c0,1.498,1.215,2.713,2.713,2.713h1.895l1.34,1.34
				c1.059,1.06,2.777,1.06,3.837,0l1.34-1.34h1.895c1.498,0,2.713-1.214,2.713-2.713v-1.895l1.34-1.34
				C62.264,26.185,62.264,24.468,61.205,23.408z"/>
		</g>
	</g>
	<g>
		<g>
			<g>
				<g>
					<path class="st0" d="M61.559,23.055l-1.193-1.193v-1.688c0-1.771-1.441-3.213-3.213-3.213h-1.688l-1.193-1.193
						c-1.213-1.213-3.33-1.213-4.543,0l-1.193,1.193h-1.688c-1.771,0-3.213,1.441-3.213,3.213v1.688l-1.193,1.193
						c-1.253,1.253-1.253,3.291,0,4.544l1.193,1.192v1.688c0,1.771,1.441,3.213,3.213,3.213h1.688l1.193,1.193
						c0.626,0.626,1.449,0.938,2.272,0.938s1.646-0.312,2.271-0.938l1.193-1.193h1.688c1.771,0,3.213-1.441,3.213-3.213v-1.688
						l1.193-1.192C62.811,26.346,62.811,24.308,61.559,23.055z M60.852,26.892l-1.34,1.339c-0.094,0.094-0.146,0.221-0.146,0.354
						v1.896c0,1.22-0.993,2.213-2.213,2.213h-1.895c-0.133,0-0.26,0.053-0.354,0.146l-1.34,1.34c-0.863,0.862-2.267,0.86-3.129,0
						l-1.34-1.34c-0.094-0.094-0.221-0.146-0.354-0.146h-1.895c-1.22,0-2.213-0.993-2.213-2.213v-1.896
						c0-0.133-0.053-0.26-0.146-0.354l-1.34-1.339c-0.863-0.863-0.863-2.267,0-3.13l1.34-1.34c0.094-0.094,0.146-0.221,0.146-0.354
						v-1.895c0-1.22,0.993-2.213,2.213-2.213h1.895c0.133,0,0.26-0.053,0.354-0.146l1.34-1.34c0.835-0.836,2.293-0.836,3.129,0
						l1.34,1.34c0.094,0.094,0.221,0.146,0.354,0.146h1.895c1.22,0,2.213,0.993,2.213,2.213v1.895c0,0.133,0.053,0.26,0.146,0.354
						l1.34,1.34C61.714,24.625,61.714,26.028,60.852,26.892z"/>
				</g>
			</g>
		</g>
	</g>
	<g>
		<g>
			<path class="st1" d="M55.257,33.192l-1.34,1.34c-1.059,1.06-2.777,1.06-3.836,0l-1.34-1.34h-0.742v8.635l4-3l4,3v-8.635H55.257z"
				/>
		</g>
	</g>
	<g>
		<g>
			<g>
				<g>
					<path class="st0" d="M56,32.692h-0.742c-0.133,0-0.26,0.053-0.354,0.146l-1.34,1.34c-0.863,0.862-2.267,0.86-3.129,0
						l-1.34-1.34c-0.094-0.094-0.221-0.146-0.354-0.146H48c-0.276,0-0.5,0.224-0.5,0.5v8.634c0,0.189,0.107,0.362,0.276,0.447
						c0.17,0.085,0.373,0.065,0.523-0.047l3.7-2.775l3.7,2.775c0.088,0.065,0.193,0.1,0.3,0.1c0.076,0,0.153-0.018,0.224-0.053
						c0.169-0.085,0.276-0.258,0.276-0.447v-8.634C56.5,32.916,56.276,32.692,56,32.692z M52.299,38.426
						c-0.089-0.066-0.194-0.1-0.3-0.1s-0.211,0.033-0.3,0.1l-3.2,2.4v-7.134l1.228,1.193c1.253,1.252,3.292,1.252,4.543,0
						l1.193-1.193l0.035,7.134L52.299,38.426z"/>
				</g>
			</g>
		</g>
	</g>
	<g>
		<g>
			<path class="st0" d="M15.775,59.194c-2.397-0.121-4.275-2.087-4.275-4.476v-32.5c0-0.276-0.224-0.5-0.5-0.5s-0.5,0.224-0.5,0.5
				v32.5c0,2.922,2.295,5.327,5.225,5.474c0.008,0.001,0.017,0.001,0.025,0.001c0.265,0,0.485-0.208,0.499-0.475
				C16.264,59.442,16.051,59.208,15.775,59.194z"/>
		</g>
	</g>
	<g>
		<g>
			<path class="st0" d="M11,15.719c-0.276,0-0.5,0.224-0.5,0.5v3c0,0.276,0.224,0.5,0.5,0.5s0.5-0.224,0.5-0.5v-3
				C11.5,15.942,11.277,15.719,11,15.719z"/>
		</g>
	</g>
	<g>
		<g>
			<path class="st0" d="M47,3.719H6.5c-0.276,0-0.5,0.224-0.5,0.5s0.224,0.5,0.5,0.5c2.206,0,4,1.794,4,4v4.5
				c0,0.276,0.224,0.5,0.5,0.5s0.5-0.224,0.5-0.5v-4.5c0-1.634-0.788-3.087-2.003-4H47c2.481,0,4.5,2.019,4.5,4.5L51.5,13.326
				c0,0.276,0.224,0.5,0.5,0.5c0.276,0,0.5-0.224,0.5-0.5L52.5,9.219C52.5,6.187,50.033,3.719,47,3.719z"/>
		</g>
	</g>
	<g>
		<g>
			<path class="st0" d="M52.5,41.826c0-0.276-0.224-0.5-0.5-0.5c-0.276,0-0.5,0.224-0.5,0.5l0.001,6.893c0,0.276,0.224,0.5,0.5,0.5
				c0.276,0,0.5-0.224,0.5-0.5L52.5,41.826z"/>
		</g>
	</g>
	<g>
		<g>
			<path class="st0" d="M40.5,32.219h-16.5c-0.276,0-0.5,0.224-0.5,0.5s0.224,0.5,0.5,0.5h16.5c0.276,0,0.5-0.224,0.5-0.5
				S40.777,32.219,40.5,32.219z"/>
		</g>
	</g>
	<g>
		<g>
			<path class="st3" d="M39.501,11.219h-16c-0.552,0-1,0.448-1,1v4c0,0.552,0.448,1,1,1h16c0.552,0,1-0.448,1-1v-4
				C40.501,11.667,40.053,11.219,39.501,11.219z"/>
		</g>
	</g>
	<g>
		<g>
			<g>
				<g>
					<path class="st0" d="M39.5,10.719h-16c-0.827,0-1.5,0.673-1.5,1.5v4c0,0.827,0.673,1.5,1.5,1.5h16c0.827,0,1.5-0.673,1.5-1.5
						v-4C41,11.392,40.328,10.719,39.5,10.719z M40,16.219c0,0.275-0.224,0.5-0.5,0.5h-16c-0.276,0-0.5-0.225-0.5-0.5v-4
						c0-0.275,0.224-0.5,0.5-0.5h16c0.276,0,0.5,0.225,0.5,0.5V16.219z"/>
				</g>
			</g>
		</g>
	</g>
	<g>
		<g>
			<path class="st0" d="M40.5,37.219h-16.5c-0.276,0-0.5,0.224-0.5,0.5s0.224,0.5,0.5,0.5h16.5c0.276,0,0.5-0.224,0.5-0.5
				S40.777,37.219,40.5,37.219z"/>
		</g>
	</g>
	<g>
		<g>
			<path class="st0" d="M40.5,42.219h-16.5c-0.276,0-0.5,0.224-0.5,0.5s0.224,0.5,0.5,0.5h16.5c0.276,0,0.5-0.224,0.5-0.5
				S40.777,42.219,40.5,42.219z"/>
		</g>
	</g>
	<g>
		<g>
			<path class="st0" d="M31.501,27.219h-7.5c-0.276,0-0.5,0.224-0.5,0.5s0.224,0.5,0.5,0.5h7.5c0.276,0,0.5-0.224,0.5-0.5
				S31.777,27.219,31.501,27.219z"/>
		</g>
	</g>
	<g>
		<g>
			<g>
				<g>
					<g>
						<path class="st0" d="M52,18.826c-3.584,0-6.5,2.916-6.5,6.5s2.916,6.5,6.5,6.5s6.5-2.916,6.5-6.5S55.583,18.826,52,18.826z
							 M52,30.826c-3.033,0-5.5-2.468-5.5-5.5s2.467-5.5,5.5-5.5s5.5,2.468,5.5,5.5S55.032,30.826,52,30.826z"/>
					</g>
				</g>
			</g>
		</g>
	</g>
</g>
</svg>
