<?xml version="1.0" encoding="utf-8"?>
<!-- Generator: Adobe Illustrator 21.1.0, SVG Export Plug-In . SVG Version: 6.00 Build 0)  -->
<svg version="1.1" id="Icon_Set" xmlns="http://www.w3.org/2000/svg" xmlns:xlink="http://www.w3.org/1999/xlink" x="0px" y="0px"
	 viewBox="0 0 64 64" style="enable-background:new 0 0 64 64;" xml:space="preserve">
<style type="text/css">
	.st0{fill:#37474F;}
	.st1{fill:#EF5350;}
	.st2{fill:#FFCA28;}
	.st3{fill:#64B5F6;}
	.st4{fill:#FFFFFF;}
	.st5{fill:#FF7043;}
</style>
<g id="Chemistry">
	<g>
		<g>
			<g>
				<g>
					<path class="st4" d="M24.015,10.998L25.356,8C24.872,8.912,24.425,9.917,24.015,10.998z M32.244,2.5
						c-1.829,0-3.452,0.912-4.861,2.498L23.026,14c-1.505,5.264-2.283,11.719-2.283,18c0,14.301,4.03,29.5,11.5,29.5
						s11.5-15.199,11.5-29.5S39.713,2.5,32.244,2.5z M32.244,58.5c-4.865,0-8.5-13.991-8.5-26.5s3.635-26.5,8.5-26.5
						s8.5,13.991,8.5,26.5S37.109,58.5,32.244,58.5z"/>
				</g>
			</g>
		</g>
	</g>
	<g>
		<g>
			<g>
				<g>
					<path class="st0" d="M23.838,11.466c0.059,0.022,0.118,0.032,0.177,0.032c0.202,0,0.392-0.123,0.468-0.323
						c0.406-1.073,0.849-2.063,1.315-2.941c0.129-0.244,0.036-0.547-0.208-0.676c-0.243-0.129-0.547-0.036-0.676,0.208
						c-0.485,0.916-0.945,1.944-1.367,3.056C23.45,11.079,23.58,11.368,23.838,11.466z M32.244,2c-1.904,0-3.665,0.897-5.234,2.667
						c-0.183,0.207-0.165,0.523,0.042,0.706c0.206,0.182,0.522,0.165,0.706-0.042C29.129,3.784,30.639,3,32.244,3
						c6.885,0,11,14.745,11,29s-4.115,29-11,29s-11-14.745-11-29c0-6.415,0.804-12.758,2.264-17.862
						c0.076-0.266-0.078-0.542-0.343-0.619c-0.27-0.074-0.543,0.078-0.619,0.343C21.061,19.054,20.244,25.495,20.244,32
						c0,19.695,6.037,30,12,30s12-10.305,12-30S38.207,2,32.244,2z M32.244,59c5.304,0,9-14.229,9-27s-3.696-27-9-27s-9,14.229-9,27
						S26.94,59,32.244,59z M32.244,6c4.112,0,8,12.636,8,26s-3.888,26-8,26s-8-12.636-8-26S28.131,6,32.244,6z"/>
				</g>
			</g>
		</g>
	</g>
	<g>
		<g>
			<path class="st3" d="M38.92,16.311c-2.195,0.759-4.442,1.689-6.671,2.735c1.161,0.549,2.327,1.139,3.494,1.765
				c1.284-0.542,2.565-1.055,3.823-1.498C39.372,18.279,39.157,17.275,38.92,16.311z"/>
		</g>
	</g>
	<g>
		<g>
			<g>
				<g>
					<path class="st0" d="M40.057,19.221c-0.199-1.059-0.418-2.078-0.652-3.029c-0.033-0.137-0.123-0.253-0.246-0.32
						c-0.124-0.067-0.271-0.079-0.402-0.034c-2.135,0.737-4.396,1.665-6.72,2.755c-0.175,0.082-0.287,0.258-0.288,0.452
						c0,0.194,0.111,0.37,0.286,0.453c1.127,0.533,2.295,1.123,3.471,1.753c0.074,0.039,0.155,0.059,0.236,0.059
						c0.066,0,0.132-0.013,0.194-0.04c1.47-0.621,2.676-1.093,3.795-1.486C39.965,19.703,40.103,19.464,40.057,19.221z
						 M35.768,20.258c-0.79-0.42-1.575-0.823-2.347-1.201c1.768-0.801,3.491-1.501,5.142-2.09c0.151,0.647,0.295,1.324,0.431,2.02
						C38.027,19.336,36.986,19.747,35.768,20.258z"/>
				</g>
			</g>
		</g>
	</g>
	<g>
		<g>
			<path class="st3" d="M57.791,17.25c-2.236-3.873-8.577-3.951-15.964-1.857c0.243,0.962,0.465,1.956,0.662,2.978
				c3.026-0.882,5.807-1.391,8.016-1.391c2.297,0,3.979,0.543,4.688,1.77c0.966,1.673-0.31,4.852-3.411,8.503
				c-3.527,4.152-8.957,8.453-15.289,12.108s-12.771,6.208-18.13,7.187c-4.709,0.859-8.104,0.376-9.069-1.298
				c-0.966-1.673,0.31-4.852,3.411-8.503c3.526-4.152,8.956-8.453,15.288-12.108c1.386-0.8,2.83-1.543,4.287-2.252
				c-1.164-0.577-2.324-1.118-3.471-1.613c-0.778,0.414-1.555,0.828-2.315,1.267c-6.622,3.823-12.331,8.355-16.075,12.764
				C6.342,39.604,5.02,43.847,6.697,46.75c1.221,2.115,3.853,3.208,7.587,3.208c1.392,0,2.937-0.152,4.619-0.459
				c5.689-1.039,12.469-3.717,19.091-7.54s12.331-8.355,16.075-12.764C58.146,24.397,59.468,20.153,57.791,17.25z"/>
		</g>
	</g>
	<g>
		<g>
			<g>
				<g>
					<path class="st0" d="M58.225,17c-2.167-3.755-8.041-4.495-16.533-2.087c-0.261,0.074-0.415,0.341-0.349,0.604
						c0.24,0.949,0.461,1.941,0.657,2.95c0.026,0.138,0.11,0.258,0.23,0.332c0.122,0.074,0.266,0.094,0.4,0.053
						c3.078-0.896,5.802-1.371,7.876-1.371c1.541,0,3.529,0.264,4.254,1.52c0.843,1.459-0.444,4.498-3.359,7.929
						c-3.493,4.111-8.875,8.373-15.158,11.999c-6.285,3.628-12.667,6.16-17.97,7.128C13.843,46.864,10.57,46.46,9.728,45
						c-0.843-1.459,0.444-4.498,3.359-7.929c3.491-4.111,8.874-8.372,15.157-11.999c1.228-0.709,2.62-1.44,4.255-2.235
						c0.171-0.083,0.281-0.257,0.281-0.448c0-0.191-0.107-0.365-0.278-0.45c-1.203-0.596-2.378-1.142-3.495-1.624
						c-0.139-0.06-0.299-0.054-0.433,0.018c-0.783,0.417-1.566,0.834-2.331,1.275c-6.671,3.852-12.427,8.424-16.206,12.873
						C5.813,39.454,4.473,43.9,6.264,47c1.306,2.262,4.079,3.458,8.02,3.458c1.424,0,3.008-0.157,4.709-0.467
						c5.744-1.049,12.581-3.748,19.251-7.599c6.671-3.852,12.427-8.424,16.206-12.873C58.675,24.546,60.015,20.101,58.225,17z
						 M53.688,28.872c-3.707,4.364-9.37,8.858-15.944,12.654c-6.574,3.795-13.297,6.453-18.931,7.481
						C12.881,50.086,8.674,49.175,7.13,46.5c-1.563-2.707-0.26-6.745,3.669-11.372c3.707-4.364,9.37-8.858,15.944-12.654
						c0.686-0.396,1.386-0.771,2.088-1.146c0.748,0.326,1.522,0.681,2.313,1.061c-1.27,0.634-2.389,1.232-3.401,1.816
						c-6.38,3.683-11.856,8.022-15.419,12.218C9.032,40.3,7.77,43.608,8.861,45.5s4.587,2.453,9.592,1.54
						c5.413-0.988,11.908-3.561,18.29-7.245c6.379-3.683,11.855-8.021,15.42-12.218c3.293-3.877,4.555-7.185,3.463-9.077
						c-0.773-1.34-2.497-2.02-5.121-2.02c-2.047,0-4.677,0.435-7.631,1.261c-0.138-0.677-0.287-1.346-0.445-1.996
						c4.702-1.28,12.427-2.577,14.928,1.755C58.922,20.207,57.618,24.246,53.688,28.872z"/>
				</g>
			</g>
		</g>
	</g>
	<g>
		<g>
			<path class="st2" d="M37.994,22.041c-4.185-2.417-8.432-4.372-12.428-5.748c-0.232,0.947-0.436,1.942-0.627,2.956
				c3.708,1.305,7.651,3.136,11.555,5.39c3.925,2.266,7.501,4.78,10.494,7.353c0.785-0.674,1.531-1.352,2.233-2.03
				C46.023,27.178,42.195,24.466,37.994,22.041z"/>
		</g>
	</g>
	<g>
		<g>
			<g>
				<g>
					<path class="st0" d="M49.548,29.584c-3.233-2.815-7.143-5.573-11.305-7.976c-4.149-2.396-8.477-4.397-12.516-5.788
						c-0.132-0.046-0.279-0.033-0.402,0.034c-0.123,0.067-0.212,0.184-0.246,0.32c-0.211,0.864-0.412,1.812-0.632,2.982
						c-0.046,0.242,0.092,0.482,0.325,0.564c3.69,1.299,7.657,3.149,11.471,5.351c3.837,2.215,7.439,4.739,10.418,7.299
						c0.093,0.081,0.209,0.121,0.326,0.121s0.232-0.04,0.326-0.121c0.802-0.688,1.561-1.378,2.254-2.05
						c0.101-0.098,0.156-0.232,0.152-0.373C49.716,29.808,49.654,29.676,49.548,29.584z M46.985,31.332
						c-2.96-2.503-6.492-4.961-10.242-7.126c-3.728-2.151-7.602-3.973-11.234-5.284c0.143-0.736,0.277-1.38,0.414-1.974
						c3.829,1.36,7.903,3.265,11.82,5.526c3.931,2.269,7.63,4.857,10.733,7.506C48.004,30.426,47.505,30.879,46.985,31.332z"/>
				</g>
			</g>
		</g>
	</g>
	<g>
		<g>
			<path class="st2" d="M54.069,34.805c-0.79-0.93-1.686-1.866-2.641-2.8c-0.698,0.679-1.434,1.357-2.21,2.031
				c0.932,0.905,1.801,1.812,2.566,2.711c3.102,3.651,4.377,6.83,3.411,8.503c-2.432,4.214-16.367,0.365-27.2-5.889
				c-6.332-3.655-11.762-7.956-15.288-12.108c-3.102-3.651-4.377-6.83-3.411-8.503c0.651-1.128,2.403-1.716,4.92-1.716
				c1.217,0,2.613,0.138,4.149,0.418c1.165,0.213,2.389,0.513,3.644,0.87c0.195-1.007,0.419-1.979,0.659-2.928
				c-1.293-0.363-2.557-0.673-3.764-0.893c-6.194-1.134-10.53-0.155-12.206,2.749c-1.677,2.903-0.354,7.146,3.722,11.945
				c3.744,4.408,9.453,8.94,16.075,12.764c8.061,4.654,17.303,8.02,23.805,8.02c3.488-0.001,6.189-0.97,7.493-3.229
				C59.468,43.847,58.146,39.604,54.069,34.805z"/>
		</g>
	</g>
	<g>
		<g>
			<g>
				<g>
					<path class="st0" d="M54.45,34.481c-0.748-0.88-1.622-1.807-2.673-2.833c-0.194-0.19-0.504-0.189-0.699-0.001
						c-0.696,0.679-1.433,1.355-2.188,2.012c-0.106,0.092-0.168,0.224-0.172,0.364c-0.004,0.14,0.051,0.275,0.152,0.373
						c0.997,0.968,1.826,1.844,2.533,2.676c2.915,3.431,4.202,6.47,3.359,7.929c-0.996,1.728-4.605,1.999-9.901,0.745
						c-5.104-1.208-11.315-3.756-16.616-6.816c-6.283-3.627-11.666-7.888-15.157-11.999c-2.915-3.431-4.202-6.47-3.359-7.929
						c0.825-1.43,4.147-1.86,8.546-1.056c1.084,0.198,2.261,0.479,3.598,0.859c0.134,0.038,0.279,0.018,0.398-0.055
						c0.119-0.073,0.203-0.193,0.229-0.331c0.179-0.923,0.393-1.872,0.653-2.901c0.066-0.263-0.089-0.531-0.35-0.604
						c-1.42-0.399-2.667-0.694-3.81-0.903C12.574,12.833,8.054,13.896,6.264,17c-1.791,3.1-0.45,7.546,3.774,12.519
						c3.779,4.449,9.535,9.021,16.206,12.873c8.638,4.988,17.855,8.086,24.055,8.086c3.928-0.001,6.595-1.171,7.926-3.479
						C60.015,43.899,58.675,39.454,54.45,34.481z M57.358,46.5c-1.14,1.976-3.516,2.978-7.06,2.979
						c-6.034,0-15.06-3.047-23.555-7.953c-6.575-3.796-12.237-8.29-15.944-12.654C6.87,24.245,5.566,20.207,7.13,17.5
						c1.127-1.955,3.6-2.962,7.131-2.962c1.365,0,2.888,0.151,4.552,0.455c0.986,0.18,2.054,0.428,3.251,0.753
						c-0.166,0.676-0.311,1.32-0.441,1.95c-1.156-0.316-2.198-0.558-3.17-0.735c-1.55-0.283-2.976-0.426-4.239-0.426
						c-2.759,0-4.61,0.68-5.353,1.966c-1.092,1.892,0.17,5.2,3.463,9.077c3.563,4.196,9.04,8.535,15.419,12.218
						c5.38,3.106,11.692,5.694,16.885,6.923c4.131,0.978,9.394,1.56,10.998-1.218c1.092-1.892-0.17-5.2-3.463-9.077
						c-0.634-0.746-1.36-1.524-2.211-2.367c0.502-0.445,0.995-0.898,1.472-1.354c0.876,0.87,1.619,1.667,2.264,2.425
						C57.618,39.754,58.922,43.793,57.358,46.5z"/>
				</g>
			</g>
		</g>
	</g>
	<g>
		<g>
			<circle class="st1" cx="57.5" cy="5" r="2.5"/>
		</g>
	</g>
	<g>
		<g>
			<g>
				<g>
					<path class="st0" d="M57.5,2c-1.654,0-3,1.346-3,3s1.346,3,3,3s3-1.346,3-3S59.154,2,57.5,2z M57.5,7c-1.103,0-2-0.897-2-2
						s0.897-2,2-2s2,0.897,2,2S58.603,7,57.5,7z"/>
				</g>
			</g>
		</g>
	</g>
	<g>
		<g>
			<circle class="st1" cx="6.5" cy="58" r="2.5"/>
		</g>
	</g>
	<g>
		<g>
			<g>
				<g>
					<path class="st0" d="M6.5,55c-1.654,0-3,1.346-3,3s1.346,3,3,3s3-1.346,3-3S8.154,55,6.5,55z M6.5,60c-1.103,0-2-0.897-2-2
						s0.897-2,2-2s2,0.897,2,2S7.603,60,6.5,60z"/>
				</g>
			</g>
		</g>
	</g>
</g>
</svg>
