<?xml version="1.0" encoding="utf-8"?>
<!-- Generator: Adobe Illustrator 21.1.0, SVG Export Plug-In . SVG Version: 6.00 Build 0)  -->
<svg version="1.1" id="Icon_Set" xmlns="http://www.w3.org/2000/svg" xmlns:xlink="http://www.w3.org/1999/xlink" x="0px" y="0px"
	 viewBox="0 0 64 64" style="enable-background:new 0 0 64 64;" xml:space="preserve">
<style type="text/css">
	.st0{fill:#37474F;}
	.st1{fill:#EF5350;}
	.st2{fill:#FFCA28;}
	.st3{fill:#64B5F6;}
	.st4{fill:#FFFFFF;}
	.st5{fill:#FF7043;}
</style>
<g id="Class_Timetable">
	<g>
		<g>
			<path class="st0" d="M53.5,21h-43c-1.654,0-3,1.346-3,3v25c0,1.654,1.346,3,3,3H18c0.276,0,0.5-0.224,0.5-0.5S18.277,51,18,51
				h-7.5c-1.103,0-2-0.897-2-2V24c0-1.103,0.897-2,2-2h43c1.103,0,2,0.897,2,2v25c0,1.103-0.897,2-2,2H46
				c-0.276,0-0.5,0.224-0.5,0.5S45.724,52,46,52h7.5c1.654,0,3-1.346,3-3V24C56.5,22.346,55.155,21,53.5,21z"/>
		</g>
	</g>
	<g>
		<g>
			<path class="st1" d="M8,29.5V49c0,1.381,1.119,2.5,2.5,2.5H16v-22H8z"/>
		</g>
	</g>
	<g>
		<g>
			<g>
				<g>
					<path class="st0" d="M16,29H8c-0.276,0-0.5,0.224-0.5,0.5V49c0,1.654,1.346,3,3,3H16c0.276,0,0.5-0.224,0.5-0.5v-22
						C16.5,29.224,16.277,29,16,29z M15.5,51h-5c-1.103,0-2-0.897-2-2V30h7V51z"/>
				</g>
			</g>
		</g>
	</g>
	<g>
		<g>
			<circle class="st3" cx="32" cy="51.5" r="12"/>
		</g>
	</g>
	<g>
		<g>
			<g>
				<g>
					<path class="st0" d="M32,39c-6.893,0-12.5,5.607-12.5,12.5S25.108,64,32,64s12.5-5.607,12.5-12.5S38.893,39,32,39z M32,63
						c-6.341,0-11.5-5.159-11.5-11.5S25.659,40,32,40s11.5,5.159,11.5,11.5S38.342,63,32,63z"/>
				</g>
			</g>
		</g>
	</g>
	<g>
		<g>
			<path class="st0" d="M18.936,56H7c-2.568,0-4.5-2.123-4.5-3.5v-34C2.5,18.224,2.277,18,2,18s-0.5,0.224-0.5,0.5v34
				C1.5,54.538,3.954,57,7,57h11.936c0.276,0,0.5-0.224,0.5-0.5S19.212,56,18.936,56z"/>
		</g>
	</g>
	<g>
		<g>
			<path class="st0" d="M62,18c-0.276,0-0.5,0.224-0.5,0.5v34c0,1.377-1.932,3.5-4.5,3.5H45.065c-0.276,0-0.5,0.224-0.5,0.5
				s0.224,0.5,0.5,0.5H57c3.047,0,5.5-2.462,5.5-4.5v-34C62.5,18.224,62.277,18,62,18z"/>
		</g>
	</g>
	<g>
		<g>
			<path class="st4" d="M39.561,46.55c-0.586-0.586-1.535-0.586-2.121,0l-6.717,6.717l-3.182-3.182
				c-0.586-0.586-1.535-0.586-2.121,0s-0.586,1.536,0,2.121l4.243,4.242c0.293,0.293,0.677,0.439,1.061,0.439
				s0.768-0.146,1.061-0.439l7.778-7.778C40.147,48.086,40.147,47.136,39.561,46.55z"/>
		</g>
	</g>
	<g>
		<g>
			<g>
				<g>
					<path class="st0" d="M39.915,46.197c-0.779-0.78-2.049-0.78-2.828,0l-6.364,6.364l-2.829-2.829
						c-0.756-0.756-2.072-0.756-2.828,0c-0.378,0.378-0.586,0.88-0.586,1.414c0,0.535,0.208,1.037,0.586,1.414l4.243,4.243
						c0.378,0.378,0.88,0.586,1.414,0.586s1.036-0.208,1.414-0.586l7.778-7.778c0.378-0.377,0.586-0.88,0.586-1.414
						S40.292,46.574,39.915,46.197z M39.208,48.318l-7.778,7.778c-0.378,0.378-1.036,0.378-1.414,0l-4.243-4.243
						c-0.189-0.189-0.293-0.44-0.293-0.707s0.104-0.518,0.293-0.707s0.44-0.293,0.707-0.293s0.518,0.104,0.707,0.293l3.182,3.182
						c0.195,0.195,0.512,0.195,0.707,0l6.718-6.718c0.389-0.389,1.024-0.39,1.414,0c0.189,0.189,0.293,0.44,0.293,0.707
						S39.396,48.129,39.208,48.318z"/>
				</g>
			</g>
		</g>
	</g>
	<g>
		<g>
			<path class="st2" d="M53.5,21.5h-43C9.12,21.5,8,22.619,8,24v5.5h48V24C56,22.619,54.881,21.5,53.5,21.5z"/>
		</g>
	</g>
	<g>
		<g>
			<g>
				<g>
					<path class="st0" d="M53.5,21h-43c-1.654,0-3,1.346-3,3v5.5C7.5,29.776,7.724,30,8,30h48c0.276,0,0.5-0.224,0.5-0.5V24
						C56.5,22.346,55.155,21,53.5,21z M55.5,29h-47v-5c0-1.103,0.897-2,2-2h43c1.103,0,2,0.897,2,2V29z"/>
				</g>
			</g>
		</g>
	</g>
	<g>
		<g>
			<path class="st0" d="M24,29c-0.276,0-0.5,0.224-0.5,0.5v10.51c0,0.276,0.224,0.5,0.5,0.5s0.5-0.224,0.5-0.5V29.5
				C24.5,29.224,24.277,29,24,29z"/>
		</g>
	</g>
	<g>
		<g>
			<path class="st0" d="M32,29c-0.276,0-0.5,0.224-0.5,0.5v8c0,0.276,0.224,0.5,0.5,0.5s0.5-0.224,0.5-0.5v-8
				C32.5,29.224,32.277,29,32,29z"/>
		</g>
	</g>
	<g>
		<g>
			<path class="st0" d="M40,29c-0.276,0-0.5,0.224-0.5,0.5v10.51c0,0.276,0.224,0.5,0.5,0.5s0.5-0.224,0.5-0.5V29.5
				C40.5,29.224,40.277,29,40,29z"/>
		</g>
	</g>
	<g>
		<g>
			<path class="st0" d="M48,29c-0.276,0-0.5,0.224-0.5,0.5v22c0,0.276,0.224,0.5,0.5,0.5s0.5-0.224,0.5-0.5v-22
				C48.5,29.224,48.277,29,48,29z"/>
		</g>
	</g>
	<g>
		<g>
			<path class="st4" d="M13.5,0.5c-1.105,0-2,0.895-2,2v8c0,1.105,0.895,2,2,2s2-0.895,2-2v-8C15.5,1.395,14.605,0.5,13.5,0.5z"/>
		</g>
	</g>
	<g>
		<g>
			<g>
				<g>
					<path class="st0" d="M13.5,0C12.122,0,11,1.122,11,2.5v8c0,1.378,1.122,2.5,2.5,2.5s2.5-1.122,2.5-2.5v-8
						C16,1.122,14.879,0,13.5,0z M15,10.5c0,0.827-0.673,1.5-1.5,1.5S12,11.327,12,10.5v-8C12,1.673,12.673,1,13.5,1
						S15,1.673,15,2.5V10.5z"/>
				</g>
			</g>
		</g>
	</g>
	<g>
		<g>
			<path class="st4" d="M32,0.5c-1.105,0-2,0.895-2,2v8c0,1.105,0.895,2,2,2s2-0.895,2-2v-8C34,1.395,33.105,0.5,32,0.5z"/>
		</g>
	</g>
	<g>
		<g>
			<g>
				<g>
					<path class="st0" d="M32,0c-1.378,0-2.5,1.122-2.5,2.5v8c0,1.378,1.122,2.5,2.5,2.5s2.5-1.122,2.5-2.5v-8
						C34.5,1.122,33.379,0,32,0z M33.5,10.5c0,0.827-0.673,1.5-1.5,1.5s-1.5-0.673-1.5-1.5v-8C30.5,1.673,31.173,1,32,1
						s1.5,0.673,1.5,1.5V10.5z"/>
				</g>
			</g>
		</g>
	</g>
	<g>
		<g>
			<path class="st4" d="M50.5,0.5c-1.105,0-2,0.895-2,2v8c0,1.105,0.895,2,2,2s2-0.895,2-2v-8C52.5,1.395,51.605,0.5,50.5,0.5z"/>
		</g>
	</g>
	<g>
		<g>
			<g>
				<g>
					<path class="st0" d="M50.5,0C49.122,0,48,1.122,48,2.5v8c0,1.378,1.122,2.5,2.5,2.5s2.5-1.122,2.5-2.5v-8
						C53,1.122,51.879,0,50.5,0z M52,10.5c0,0.827-0.673,1.5-1.5,1.5S49,11.327,49,10.5v-8C49,1.673,49.673,1,50.5,1
						S52,1.673,52,2.5V10.5z"/>
				</g>
			</g>
		</g>
	</g>
	<g>
		<g>
			<path class="st3" d="M17,16.5h45v-5c0-2.761-2.239-5-5-5h-4.5v4c0,1.105-0.895,2-2,2s-2-0.895-2-2v-4H34v4c0,1.105-0.895,2-2,2
				c-1.105,0-2-0.895-2-2v-4H15.5v4c0,1.105-0.895,2-2,2s-2-0.895-2-2v-4H7c-2.761,0-5,2.239-5,5v5h6"/>
		</g>
	</g>
	<g>
		<g>
			<path class="st0" d="M57,6h-4.5C52.224,6,52,6.224,52,6.5v4c0,0.827-0.673,1.5-1.5,1.5S49,11.327,49,10.5v-4
				C49,6.224,48.777,6,48.5,6H34c-0.276,0-0.5,0.224-0.5,0.5v4c0,0.827-0.673,1.5-1.5,1.5s-1.5-0.673-1.5-1.5v-4
				C30.5,6.224,30.277,6,30,6H15.5C15.224,6,15,6.224,15,6.5v4c0,0.827-0.673,1.5-1.5,1.5S12,11.327,12,10.5v-4
				C12,6.224,11.777,6,11.5,6H7c-3.033,0-5.5,2.467-5.5,5.5v5C1.5,16.776,1.724,17,2,17h6c0.276,0,0.5-0.224,0.5-0.5S8.277,16,8,16
				H2.5v-4.5C2.5,9.019,4.519,7,7,7h4v3.5c0,1.378,1.122,2.5,2.5,2.5s2.5-1.122,2.5-2.5V7h13.5v3.5c0,1.378,1.122,2.5,2.5,2.5
				s2.5-1.122,2.5-2.5V7H48v3.5c0,1.378,1.122,2.5,2.5,2.5s2.5-1.122,2.5-2.5V7h4c2.481,0,4.5,2.019,4.5,4.5V16H17
				c-0.276,0-0.5,0.224-0.5,0.5S16.724,17,17,17h45c0.276,0,0.5-0.224,0.5-0.5v-5C62.5,8.467,60.033,6,57,6z"/>
		</g>
	</g>
	<g>
		<g>
			<g>
				<path class="st0" d="M14,16h-3c-0.276,0-0.5,0.224-0.5,0.5S10.724,17,11,17h3c0.276,0,0.5-0.224,0.5-0.5S14.277,16,14,16z"/>
			</g>
		</g>
	</g>
</g>
</svg>
