<?xml version="1.0" encoding="utf-8"?>
<!-- Generator: Adobe Illustrator 21.1.0, SVG Export Plug-In . SVG Version: 6.00 Build 0)  -->
<svg version="1.1" id="Icon_Set" xmlns="http://www.w3.org/2000/svg" xmlns:xlink="http://www.w3.org/1999/xlink" x="0px" y="0px"
	 viewBox="0 0 64 64" style="enable-background:new 0 0 64 64;" xml:space="preserve">
<style type="text/css">
	.st0{fill:#37474F;}
	.st1{fill:#EF5350;}
	.st2{fill:#FFCA28;}
	.st3{fill:#64B5F6;}
	.st4{fill:#FFFFFF;}
	.st5{fill:#FF7043;}
</style>
<g id="Cloud_Library">
	<g>
		<g>
			<circle class="st2" cx="32" cy="9.5" r="3"/>
		</g>
	</g>
	<g>
		<g>
			<g>
				<g>
					<path class="st0" d="M32,6c-1.93,0-3.5,1.57-3.5,3.5S30.07,13,32,13s3.5-1.57,3.5-3.5S33.93,6,32,6z M32,12
						c-1.379,0-2.5-1.122-2.5-2.5S30.621,7,32,7s2.5,1.122,2.5,2.5S33.379,12,32,12z"/>
				</g>
			</g>
		</g>
	</g>
	<g>
		<g>
			<g>
				<path class="st0" d="M33.5,15c-0.276,0-0.5,0.224-0.5,0.5v15c0,0.276,0.224,0.5,0.5,0.5s0.5-0.224,0.5-0.5v-15
					C34,15.224,33.776,15,33.5,15z"/>
			</g>
		</g>
	</g>
	<g>
		<g>
			<g>
				<path class="st0" d="M30.5,15c-0.276,0-0.5,0.224-0.5,0.5V23c0,0.276,0.224,0.5,0.5,0.5S31,23.276,31,23v-7.5
					C31,15.224,30.776,15,30.5,15z"/>
			</g>
		</g>
	</g>
	<g>
		<g>
			<rect x="41" y="15.156" class="st3" width="12" height="4"/>
		</g>
	</g>
	<g>
		<g>
			<g>
				<g>
					<path class="st0" d="M53,14.656H41c-0.276,0-0.5,0.224-0.5,0.5v4c0,0.276,0.224,0.5,0.5,0.5h12c0.276,0,0.5-0.224,0.5-0.5v-4
						C53.5,14.879,53.276,14.656,53,14.656z M52.5,18.656h-11v-3h11V18.656z"/>
				</g>
			</g>
		</g>
	</g>
	<g>
		<g>
			<path class="st3" d="M31.5,62.5h13c4.418,0,8-3.582,8-8v0c0-4.418-3.582-8-8-8H42v0c0-5.523-4.477-10-10-10h0
				c-5.523,0-10,4.477-10,10v0h-2.5c-4.418,0-8,3.582-8,8v0c0,4.418,3.582,8,8,8h3"/>
		</g>
	</g>
	<g>
		<g>
			<path class="st0" d="M44.5,46h-2.012C42.227,40.441,37.622,36,32,36s-10.227,4.441-10.488,10H19.5c-4.687,0-8.5,3.813-8.5,8.5
				s3.813,8.5,8.5,8.5h3c0.276,0,0.5-0.224,0.5-0.5S22.776,62,22.5,62h-3c-4.136,0-7.5-3.364-7.5-7.5s3.364-7.5,7.5-7.5H22
				c0.276,0,0.5-0.224,0.5-0.5c0-5.238,4.262-9.5,9.5-9.5s9.5,4.262,9.5,9.5c0,0.276,0.224,0.5,0.5,0.5h2.5
				c4.136,0,7.5,3.364,7.5,7.5S48.636,62,44.5,62h-13c-0.276,0-0.5,0.224-0.5,0.5s0.224,0.5,0.5,0.5h13c4.687,0,8.5-3.813,8.5-8.5
				S49.187,46,44.5,46z"/>
		</g>
	</g>
	<g>
		<g>
			<path class="st0" d="M32,39c-0.276,0-0.5,0.224-0.5,0.5S31.724,40,32,40c3.584,0,6.5,2.916,6.5,6.5c0,0.276,0.224,0.5,0.5,0.5
				s0.5-0.224,0.5-0.5C39.5,42.364,36.136,39,32,39z"/>
		</g>
	</g>
	<g>
		<g>
			<g>
				<path class="st0" d="M28.5,62h-3c-0.276,0-0.5,0.224-0.5,0.5s0.224,0.5,0.5,0.5h3c0.276,0,0.5-0.224,0.5-0.5S28.776,62,28.5,62z
					"/>
			</g>
		</g>
	</g>
	<g>
		<g>
			<polyline class="st2" points="43.516,43.156 53,43.156 53,39.156 41.471,39.156 			"/>
		</g>
	</g>
	<g>
		<g>
			<path class="st0" d="M53,38.656H41.471c-0.276,0-0.5,0.224-0.5,0.5s0.224,0.5,0.5,0.5H52.5v3h-8.984c-0.276,0-0.5,0.224-0.5,0.5
				s0.224,0.5,0.5,0.5H53c0.276,0,0.5-0.224,0.5-0.5v-4C53.5,38.879,53.276,38.656,53,38.656z"/>
		</g>
	</g>
	<g>
		<g>
			<path class="st0" d="M50.5,9.656h-7c-1.654,0-3,1.346-3,3v25.93c0,0.276,0.224,0.5,0.5,0.5s0.5-0.224,0.5-0.5v-25.93
				c0-1.103,0.897-2,2-2h7c1.103,0,2,0.897,2,2v33c0,0.677-0.342,1.304-0.915,1.675c-0.231,0.15-0.297,0.46-0.147,0.691
				c0.097,0.148,0.257,0.228,0.42,0.228c0.094,0,0.188-0.026,0.272-0.081c0.857-0.557,1.37-1.497,1.37-2.514v-33
				C53.5,11.001,52.154,9.656,50.5,9.656z"/>
		</g>
	</g>
	<g>
		<g>
			<path class="st0" d="M35.5,1h-7c-1.654,0-3,1.346-3,3v32.116c0,0.276,0.224,0.5,0.5,0.5s0.5-0.224,0.5-0.5V4c0-1.103,0.897-2,2-2
				h7c1.103,0,2,0.897,2,2v32.116c0,0.276,0.224,0.5,0.5,0.5s0.5-0.224,0.5-0.5V4C38.5,2.346,37.154,1,35.5,1z"/>
		</g>
	</g>
	<g>
		<g>
			<path class="st0" d="M20.5,10h-7c-1.654,0-3,1.346-3,3v33c0,0.914,0.418,1.77,1.147,2.346c0.092,0.073,0.201,0.108,0.311,0.108
				c0.147,0,0.294-0.065,0.393-0.19c0.171-0.216,0.134-0.531-0.082-0.702C11.78,47.176,11.5,46.606,11.5,46V13c0-1.103,0.897-2,2-2
				h7c1.103,0,2,0.897,2,2v25.586c0,0.276,0.224,0.5,0.5,0.5s0.5-0.224,0.5-0.5V13C23.5,11.346,22.154,10,20.5,10z"/>
		</g>
	</g>
	<g>
		<g>
			<polygon class="st1" points="15,10.5 15,22.5 17,20.5 19,22.5 19,10.5 			"/>
		</g>
	</g>
	<g>
		<g>
			<g>
				<g>
					<path class="st0" d="M19,10h-4c-0.276,0-0.5,0.224-0.5,0.5v12c0,0.202,0.122,0.385,0.309,0.462
						c0.186,0.079,0.401,0.035,0.545-0.108L17,21.207l1.646,1.646C18.742,22.949,18.87,23,19,23c0.064,0,0.13-0.012,0.191-0.038
						c0.187-0.077,0.309-0.26,0.309-0.462v-12C19.5,10.224,19.276,10,19,10z M18.5,21.293l-1.146-1.146
						C17.256,20.049,17.128,20,17,20s-0.256,0.049-0.354,0.146L15.5,21.293V11h3V21.293z"/>
				</g>
			</g>
		</g>
	</g>
</g>
</svg>
