<?xml version="1.0" encoding="utf-8"?>
<!-- Generator: Adobe Illustrator 21.1.0, SVG Export Plug-In . SVG Version: 6.00 Build 0)  -->
<svg version="1.1" id="Icon_Set" xmlns="http://www.w3.org/2000/svg" xmlns:xlink="http://www.w3.org/1999/xlink" x="0px" y="0px"
	 viewBox="0 0 64 64" style="enable-background:new 0 0 64 64;" xml:space="preserve">
<style type="text/css">
	.st0{fill:#37474F;}
	.st1{fill:#EF5350;}
	.st2{fill:#FFCA28;}
	.st3{fill:#64B5F6;}
	.st4{fill:#FFFFFF;}
	.st5{fill:#FF7043;}
</style>
<g id="Community">
	<g>
		<g>
			<path class="st3" d="M19.729,45.976c-0.118-0.04-0.236-0.078-0.356-0.114L16.5,45c-1.5,2-4.5,2-6,0l-2.873,0.862
				C3.397,47.131,0.5,51.024,0.5,55.44V60H16v-5.32c0-3.364,1.379-6.476,3.734-8.702C19.732,45.977,19.731,45.976,19.729,45.976z"/>
		</g>
	</g>
	<g>
		<g>
			<path class="st3" d="M56.373,45.862L53.5,45c-1.5,2-4.5,2-6,0l-2.873,0.862c-0.12,0.036-0.239,0.074-0.356,0.114
				c-0.002,0-0.003,0.001-0.005,0.002C46.621,48.204,48,51.315,48,54.68V60h15.5v-4.56C63.5,51.024,60.603,47.131,56.373,45.862z"/>
		</g>
	</g>
	<g>
		<g>
			<path class="st0" d="M23,38.121c-0.276,0-0.5,0.224-0.5,0.5v5.143c0,0.276,0.224,0.5,0.5,0.5s0.5-0.224,0.5-0.5v-5.143
				C23.5,38.345,23.276,38.121,23,38.121z"/>
		</g>
	</g>
	<g>
		<g>
			<path class="st0" d="M19.891,45.502c-0.123-0.042-0.248-0.081-0.374-0.119l-2.874-0.861c-0.199-0.061-0.417,0.012-0.543,0.179
				c-0.62,0.826-1.567,1.3-2.6,1.3s-1.98-0.474-2.6-1.3c-0.125-0.167-0.342-0.239-0.543-0.179l-2.874,0.861
				C3.007,46.726,0,50.768,0,55.44V60c0,0.276,0.224,0.5,0.5,0.5S1,60.276,1,60v-4.56c0-4.228,2.721-7.885,6.77-9.101l2.554-0.765
				C11.129,46.484,12.269,47,13.5,47s2.371-0.516,3.176-1.425l2.553,0.765c0.114,0.034,0.227,0.071,0.339,0.109
				c0.263,0.087,0.545-0.051,0.634-0.312C20.292,45.875,20.152,45.591,19.891,45.502z"/>
		</g>
	</g>
	<g>
		<g>
			<circle class="st0" cx="17" cy="33.5" r="1"/>
		</g>
	</g>
	<g>
		<g>
			<circle class="st0" cx="10" cy="33.5" r="1"/>
		</g>
	</g>
	<g>
		<g>
			<path class="st0" d="M6.5,55.5C6.224,55.5,6,55.724,6,56v4c0,0.276,0.224,0.5,0.5,0.5S7,60.276,7,60v-4
				C7,55.724,6.776,55.5,6.5,55.5z"/>
		</g>
	</g>
	<g>
		<g>
			<path class="st0" d="M22.432,35.722c-0.228-0.156-0.539-0.1-0.695,0.128c-0.281,0.407-0.743,0.65-1.236,0.65
				c-0.276,0-0.5,0.224-0.5,0.5v0.5c0,2.481-2.019,4.5-4.5,4.5h-4C9.019,42,7,39.981,7,37.5V37c0-0.276-0.224-0.5-0.5-0.5
				C5.673,36.5,5,35.827,5,35s0.673-1.5,1.5-1.5C6.776,33.5,7,33.276,7,33v-2.861c0-0.276-0.224-0.5-0.5-0.5S6,29.862,6,30.139
				v2.411C4.86,32.782,4,33.793,4,35s0.86,2.218,2,2.45v0.05c0,3.032,2.467,5.5,5.5,5.5h4c3.033,0,5.5-2.468,5.5-5.5v-0.051
				c0.627-0.128,1.189-0.493,1.56-1.031C22.716,36.19,22.659,35.879,22.432,35.722z"/>
		</g>
	</g>
	<g>
		<g>
			<g>
				<g>
					<g>
						<path class="st0" d="M16.5,36h-6c-0.276,0-0.5,0.224-0.5,0.5c0,1.93,1.57,3.5,3.5,3.5s3.5-1.57,3.5-3.5
							C17,36.224,16.776,36,16.5,36z M13.5,39c-1.208,0-2.217-0.86-2.45-2h4.899C15.717,38.14,14.708,39,13.5,39z"/>
					</g>
				</g>
			</g>
		</g>
	</g>
	<g>
		<g>
			<g>
				<path class="st0" d="M10.5,42c-0.276,0-0.5,0.224-0.5,0.5V45c0,0.276,0.224,0.5,0.5,0.5S11,45.276,11,45v-2.5
					C11,42.224,10.776,42,10.5,42z"/>
			</g>
		</g>
	</g>
	<g>
		<g>
			<g>
				<path class="st0" d="M16.5,42c-0.276,0-0.5,0.224-0.5,0.5V45c0,0.276,0.224,0.5,0.5,0.5S17,45.276,17,45v-2.5
					C17,42.224,16.776,42,16.5,42z"/>
			</g>
		</g>
	</g>
	<g>
		<g>
			<path class="st0" d="M56.517,45.383l-2.874-0.861c-0.199-0.061-0.417,0.012-0.543,0.179c-0.62,0.826-1.567,1.3-2.6,1.3
				s-1.98-0.474-2.6-1.3c-0.125-0.167-0.342-0.239-0.543-0.179l-2.875,0.861c-0.125,0.038-0.25,0.077-0.373,0.119
				c-0.261,0.089-0.401,0.373-0.312,0.635s0.374,0.399,0.634,0.312c0.112-0.038,0.225-0.075,0.338-0.109l2.554-0.765
				C48.129,46.484,49.269,47,50.5,47s2.371-0.516,3.176-1.425l2.554,0.765C60.279,47.556,63,51.213,63,55.44V60
				c0,0.276,0.224,0.5,0.5,0.5S64,60.276,64,60v-4.56C64,50.768,60.993,46.726,56.517,45.383z"/>
		</g>
	</g>
	<g>
		<g>
			<circle class="st0" cx="54" cy="34" r="1"/>
		</g>
	</g>
	<g>
		<g>
			<circle class="st0" cx="47" cy="34" r="1"/>
		</g>
	</g>
	<g>
		<g>
			<path class="st0" d="M57.5,55.5c-0.276,0-0.5,0.224-0.5,0.5v4c0,0.276,0.224,0.5,0.5,0.5S58,60.276,58,60v-4
				C58,55.724,57.776,55.5,57.5,55.5z"/>
		</g>
	</g>
	<g>
		<g>
			<path class="st0" d="M57.5,32.5c-0.276,0-0.5,0.224-0.5,0.5s0.224,0.5,0.5,0.5c0.827,0,1.5,0.673,1.5,1.5s-0.673,1.5-1.5,1.5
				c-0.276,0-0.5,0.224-0.5,0.5v0.5c0,2.481-2.019,4.5-4.5,4.5h-4c-2.481,0-4.5-2.019-4.5-4.5V37c0-0.276-0.224-0.5-0.5-0.5
				c-0.492,0-0.953-0.241-1.234-0.646c-0.158-0.227-0.469-0.282-0.696-0.126c-0.227,0.158-0.283,0.47-0.125,0.696
				c0.371,0.534,0.931,0.898,1.556,1.025V37.5c0,3.032,2.467,5.5,5.5,5.5h4c3.033,0,5.5-2.468,5.5-5.5v-0.05
				c1.14-0.232,2-1.243,2-2.45C60,33.621,58.878,32.5,57.5,32.5z"/>
		</g>
	</g>
	<g>
		<g>
			<g>
				<g>
					<g>
						<path class="st0" d="M53,36.25h-5c-0.276,0-0.5,0.224-0.5,0.5c0,1.654,1.346,3,3,3s3-1.346,3-3
							C53.5,36.474,53.276,36.25,53,36.25z M50.5,38.75c-0.93,0-1.714-0.639-1.937-1.5h3.873C52.214,38.111,51.43,38.75,50.5,38.75z
							"/>
					</g>
				</g>
			</g>
		</g>
	</g>
	<g>
		<g>
			<g>
				<path class="st0" d="M47.5,42c-0.276,0-0.5,0.224-0.5,0.5V45c0,0.276,0.224,0.5,0.5,0.5S48,45.276,48,45v-2.5
					C48,42.224,47.776,42,47.5,42z"/>
			</g>
		</g>
	</g>
	<g>
		<g>
			<g>
				<path class="st0" d="M53.5,42c-0.276,0-0.5,0.224-0.5,0.5V45c0,0.276,0.224,0.5,0.5,0.5S54,45.276,54,45v-2.5
					C54,42.224,53.776,42,53.5,42z"/>
			</g>
		</g>
	</g>
	<g>
		<g>
			<path class="st3" d="M46,63.5v-8.82c0-3.788-2.14-7.25-5.528-8.944L36,43.5l0,0c-1.54,3.466-6.46,3.466-8,0l0,0l-4.472,2.236
				C20.14,47.43,18,50.892,18,54.68v8.82"/>
		</g>
	</g>
	<g>
		<g>
			<path class="st0" d="M40.696,45.288l-4.472-2.235c-0.122-0.061-0.264-0.068-0.393-0.023c-0.128,0.046-0.232,0.143-0.288,0.268
				C34.912,44.717,33.554,45.6,32,45.6s-2.912-0.883-3.543-2.303c-0.056-0.125-0.16-0.222-0.288-0.268
				c-0.127-0.046-0.27-0.038-0.393,0.023l-4.472,2.235c-3.58,1.791-5.804,5.39-5.804,9.392v8.82c0,0.276,0.224,0.5,0.5,0.5
				s0.5-0.224,0.5-0.5v-8.82c0-3.621,2.012-6.877,5.251-8.497l4.028-2.014C28.647,45.681,30.221,46.6,32,46.6
				s3.353-0.919,4.221-2.431l4.028,2.014c3.239,1.62,5.251,4.876,5.251,8.497v8.82c0,0.276,0.224,0.5,0.5,0.5s0.5-0.224,0.5-0.5
				v-8.82C46.5,50.678,44.276,47.079,40.696,45.288z"/>
		</g>
	</g>
	<g>
		<g>
			<circle class="st0" cx="35.5" cy="31" r="1"/>
		</g>
	</g>
	<g>
		<g>
			<circle class="st0" cx="28.5" cy="31" r="1"/>
		</g>
	</g>
	<g>
		<g>
			<path class="st1" d="M37.5,23v5c0,1.381,1.119,2.5,2.5,2.5v-5C40,24.12,38.881,23,37.5,23z"/>
		</g>
	</g>
	<g>
		<g>
			<g>
				<g>
					<path class="st0" d="M37.5,22.5c-0.276,0-0.5,0.224-0.5,0.5v5c0,1.654,1.346,3,3,3c0.276,0,0.5-0.224,0.5-0.5v-5
						C40.5,23.846,39.154,22.5,37.5,22.5z M39.5,29.937C38.638,29.714,38,28.931,38,28v-4.437c0.862,0.223,1.5,1.006,1.5,1.937
						V29.937z"/>
				</g>
			</g>
		</g>
	</g>
	<g>
		<g>
			<path class="st1" d="M36.092,19.5H30c-4.142,0-7.5,3.358-7.5,7.5v1.5l5.022-0.457c3.837-0.349,7.393-2.161,9.931-5.061
				l0.145-0.166C38.729,21.524,37.811,19.5,36.092,19.5z"/>
		</g>
	</g>
	<g>
		<g>
			<g>
				<g>
					<path class="st0" d="M38.369,20.467C37.958,19.562,37.086,19,36.092,19H30c-4.411,0-8,3.589-8,8v1.5
						c0,0.141,0.059,0.274,0.163,0.369C22.255,28.954,22.376,29,22.5,29c0.015,0,0.03-0.001,0.045-0.002l5.022-0.456
						c3.983-0.362,7.628-2.22,10.261-5.229l0.146-0.166C38.628,22.398,38.779,21.372,38.369,20.467z M37.222,22.487l-0.146,0.166
						c-2.464,2.816-5.873,4.554-9.6,4.893L23,27.952V27c0-3.859,3.14-7,7-7h6.092c0.605,0,1.116,0.329,1.366,0.881
						C37.708,21.432,37.62,22.033,37.222,22.487z"/>
				</g>
			</g>
		</g>
	</g>
	<g>
		<g>
			<g>
				<g>
					<g>
						<path class="st0" d="M55,25c-0.276,0-0.5,0.224-0.5,0.5v5c0,1.654,1.346,3,3,3c0.276,0,0.5-0.224,0.5-0.5v-5
							C58,26.346,56.654,25,55,25z M57,32.437c-0.862-0.223-1.5-1.006-1.5-1.937v-4.437C56.362,26.286,57,27.069,57,28V32.437z"/>
					</g>
				</g>
			</g>
		</g>
	</g>
	<g>
		<g>
			<g>
				<g>
					<g>
						<path class="st0" d="M55.142,25.144C54.808,24.438,54.115,24,53.334,24H48.5c-3.033,0-5.5,2.468-5.5,5.5v2
							c0,0.147,0.065,0.288,0.179,0.383C43.27,31.959,43.383,32,43.5,32c0.029,0,0.058-0.003,0.087-0.008l4.939-0.871
							c2.414-0.426,4.598-1.705,6.151-3.604l0.206-0.251C55.377,26.662,55.476,25.849,55.142,25.144z M54.109,26.634l-0.206,0.251
							c-1.402,1.713-3.373,2.867-5.551,3.252L44,30.904V29.5c0-2.481,2.019-4.5,4.5-4.5h4.834c0.396,0,0.734,0.214,0.904,0.572
							C54.408,25.93,54.359,26.327,54.109,26.634z"/>
					</g>
				</g>
			</g>
		</g>
	</g>
	<g>
		<g>
			<path class="st0" d="M40,30c-0.276,0-0.5,0.224-0.5,0.5S39.724,31,40,31c0.827,0,1.5,0.673,1.5,1.5S40.827,34,40,34
				c-0.276,0-0.5,0.224-0.5,0.5c0,3.584-2.916,6.5-6.5,6.5h-2c-3.584,0-6.5-2.916-6.5-6.5c0-0.276-0.224-0.5-0.5-0.5
				c-0.827,0-1.5-0.673-1.5-1.5S23.173,31,24,31c0.276,0,0.5-0.224,0.5-0.5v-2.136c0-0.276-0.224-0.5-0.5-0.5s-0.5,0.224-0.5,0.5
				v1.686c-1.14,0.232-2,1.243-2,2.45c0,1.212,0.867,2.226,2.014,2.452C23.748,38.878,27.017,42,31,42h2
				c3.983,0,7.252-3.122,7.486-7.048c1.146-0.227,2.014-1.24,2.014-2.452C42.5,31.121,41.378,30,40,30z"/>
		</g>
	</g>
	<g>
		<g>
			<path class="st0" d="M20.982,29.854l-0.097-0.066c-0.067-0.045-0.135-0.088-0.198-0.143l-2.361-2.024
				c-0.169-0.144-0.415-0.16-0.603-0.036l-1.727,1.151c-1.517,1.012-3.477,1.012-4.992,0l-1.727-1.151
				c-0.186-0.124-0.432-0.107-0.603,0.036l-2.362,2.025l-0.123,0.101c-0.216,0.171-0.253,0.485-0.082,0.702
				c0.171,0.215,0.486,0.254,0.703,0.081l2.227-1.903l1.412,0.941c1.853,1.236,4.248,1.236,6.102,0l1.412-0.941l2.073,1.777
				c0.093,0.08,0.194,0.148,0.295,0.217l0.084,0.056c0.086,0.061,0.186,0.089,0.283,0.089c0.159,0,0.315-0.075,0.412-0.216
				C21.267,30.321,21.209,30.01,20.982,29.854z"/>
		</g>
	</g>
	<g>
		<g>
			<path class="st0" d="M21.256,23.952C19.732,22.371,17.688,21.5,15.5,21.5h-4c-4.411,0-8,3.589-8,8v15.764
				c0,0.276,0.224,0.5,0.5,0.5s0.5-0.224,0.5-0.5V29.5c0-3.859,3.14-7,7-7h4c1.914,0,3.702,0.762,5.036,2.146
				c0.192,0.201,0.509,0.204,0.707,0.014C21.442,24.467,21.448,24.15,21.256,23.952z"/>
		</g>
	</g>
	<g>
		<g>
			<g>
				<g>
					<g>
						<path class="st0" d="M36.267,40.395c-0.146-0.09-0.328-0.104-0.482-0.028C34.902,40.787,33.965,41,33,41h-2
							c-0.965,0-1.902-0.213-2.785-0.634c-0.155-0.075-0.337-0.062-0.482,0.028c-0.145,0.092-0.233,0.251-0.233,0.423V43.5
							c0,0.07,0.015,0.139,0.043,0.203C28.337,45.489,30.045,46.6,32,46.6s3.663-1.11,4.457-2.896
							C36.485,43.639,36.5,43.57,36.5,43.5v-2.683C36.5,40.646,36.412,40.486,36.267,40.395z M35.5,43.391
							C34.852,44.756,33.52,45.6,32,45.6s-2.852-0.844-3.5-2.209v-1.824C29.305,41.854,30.143,42,31,42h2
							c0.857,0,1.695-0.146,2.5-0.434V43.391z"/>
					</g>
				</g>
			</g>
		</g>
	</g>
	<g>
		<g>
			<g>
				<g>
					<g>
						<path class="st0" d="M35,34h-6c-0.276,0-0.5,0.224-0.5,0.5c0,1.93,1.57,3.5,3.5,3.5s3.5-1.57,3.5-3.5
							C35.5,34.224,35.276,34,35,34z M32,37c-1.208,0-2.217-0.86-2.45-2h4.899C34.217,36.14,33.208,37,32,37z"/>
					</g>
				</g>
			</g>
		</g>
	</g>
	<g>
		<g>
			<path class="st0" d="M23,55.5c-0.276,0-0.5,0.224-0.5,0.5v7.5c0,0.276,0.224,0.5,0.5,0.5s0.5-0.224,0.5-0.5V56
				C23.5,55.724,23.276,55.5,23,55.5z"/>
		</g>
	</g>
	<g>
		<g>
			<path class="st0" d="M41,55.5c-0.276,0-0.5,0.224-0.5,0.5v7.5c0,0.276,0.224,0.5,0.5,0.5s0.5-0.224,0.5-0.5V56
				C41.5,55.724,41.276,55.5,41,55.5z"/>
		</g>
	</g>
	<g>
		<g>
			<path class="st2" d="M51,0.5H13c-0.552,0-1,0.448-1,1v10c0,0.552,0.448,1,1,1h38c0.552,0,1-0.448,1-1v-10
				C52,0.948,51.553,0.5,51,0.5z"/>
		</g>
	</g>
	<g>
		<g>
			<g>
				<g>
					<path class="st0" d="M51,0H13c-0.827,0-1.5,0.673-1.5,1.5v10c0,0.827,0.673,1.5,1.5,1.5h38c0.827,0,1.5-0.673,1.5-1.5v-10
						C52.5,0.673,51.828,0,51,0z M51.5,11.5c0,0.275-0.224,0.5-0.5,0.5H13c-0.276,0-0.5-0.225-0.5-0.5v-10C12.5,1.225,12.725,1,13,1
						h38c0.276,0,0.5,0.225,0.5,0.5V11.5z"/>
				</g>
			</g>
		</g>
	</g>
	<g>
		<g>
			<path class="st2" d="M12,14.5c-1.104,0-2-0.896-2-2v-8H3l4,6l-4,6h16v-2H12z"/>
		</g>
	</g>
	<g>
		<g>
			<path class="st0" d="M19,14c-0.276,0-0.5,0.224-0.5,0.5V16H3.935l3.482-5.223c0.112-0.168,0.112-0.387,0-0.555L3.935,5H10
				c0.276,0,0.5-0.224,0.5-0.5S10.276,4,10,4H3C2.816,4,2.646,4.102,2.56,4.264c-0.087,0.163-0.077,0.36,0.025,0.514L6.399,10.5
				l-3.815,5.723c-0.102,0.153-0.112,0.351-0.025,0.514C2.646,16.898,2.816,17,3,17h16c0.276,0,0.5-0.224,0.5-0.5v-2
				C19.5,14.224,19.277,14,19,14z"/>
		</g>
	</g>
	<g>
		<g>
			<path class="st2" d="M61,4.5h-7v8c0,1.104-0.896,2-2,2h-7v2h16l-4-6L61,4.5z"/>
		</g>
	</g>
	<g>
		<g>
			<path class="st0" d="M57.602,10.5l3.815-5.723c0.102-0.153,0.112-0.351,0.025-0.514C61.354,4.102,61.185,4,61,4h-7
				c-0.276,0-0.5,0.224-0.5,0.5s0.224,0.5,0.5,0.5h6.065l-3.482,5.223c-0.112,0.168-0.112,0.387,0,0.555L60.066,16H45.5v-1.5
				c0-0.276-0.224-0.5-0.5-0.5s-0.5,0.224-0.5,0.5v2c0,0.276,0.224,0.5,0.5,0.5h16c0.185,0,0.354-0.102,0.441-0.264
				c0.087-0.163,0.077-0.36-0.025-0.514L57.602,10.5z"/>
		</g>
	</g>
</g>
</svg>
