<?xml version="1.0" encoding="utf-8"?>
<!-- Generator: Adobe Illustrator 21.1.0, SVG Export Plug-In . SVG Version: 6.00 Build 0)  -->
<svg version="1.1" id="Icon_Set" xmlns="http://www.w3.org/2000/svg" xmlns:xlink="http://www.w3.org/1999/xlink" x="0px" y="0px"
	 viewBox="0 0 64 64" style="enable-background:new 0 0 64 64;" xml:space="preserve">
<style type="text/css">
	.st0{fill:#37474F;}
	.st1{fill:#EF5350;}
	.st2{fill:#FFCA28;}
	.st3{fill:#64B5F6;}
	.st4{fill:#FFFFFF;}
	.st5{fill:#FF7043;}
</style>
<g id="Degree">
	<g>
		<g>
			<path class="st0" d="M13.5,45.282c-0.276,0-0.5,0.224-0.5,0.5v2.085c0,0.276,0.224,0.5,0.5,0.5s0.5-0.224,0.5-0.5v-2.085
				C14,45.506,13.776,45.282,13.5,45.282z"/>
		</g>
	</g>
	<g>
		<g>
			<path class="st0" d="M13.499,21.728c-0.276,0-0.5,0.224-0.5,0.5v9.746c0,0.276,0.224,0.5,0.5,0.5s0.5-0.224,0.5-0.5v-9.746
				C13.999,21.951,13.775,21.728,13.499,21.728z"/>
		</g>
	</g>
	<g>
		<g>
			<path class="st0" d="M57.999,11.893H37c-0.276,0-0.5,0.224-0.5,0.5s0.224,0.5,0.5,0.5h18.002c-1.215,0.913-2.003,2.366-2.003,4
				v18.109c0,0.276,0.224,0.5,0.5,0.5s0.5-0.224,0.5-0.5V16.893c0-2.206,1.794-4,4-4c0.276,0,0.5-0.224,0.5-0.5
				S58.275,11.893,57.999,11.893z"/>
		</g>
	</g>
	<g>
		<g>
			<path class="st0" d="M57.999,11.893c-0.276,0-0.5,0.224-0.5,0.5s0.224,0.5,0.5,0.5c2.206,0,4,1.794,4,4v4h-6.5
				c-0.276,0-0.5,0.224-0.5,0.5s0.224,0.5,0.5,0.5h7c0.276,0,0.5-0.224,0.5-0.5v-4.5C62.999,14.136,60.756,11.893,57.999,11.893z"/>
		</g>
	</g>
	<g>
		<g>
			<path class="st2" d="M62.705,45.082l-1.34-1.34v-1.895c0-1.498-1.215-2.713-2.713-2.713h-1.895l-1.34-1.34
				c-1.059-1.06-2.777-1.06-3.836,0l-1.34,1.34h-1.895c-1.498,0-2.713,1.215-2.713,2.713v1.895l-1.34,1.34
				c-1.059,1.06-1.059,2.777,0,3.837l1.34,1.34v1.895c0,1.498,1.215,2.713,2.713,2.713h1.895l1.34,1.34
				c1.059,1.059,2.777,1.059,3.836,0l1.34-1.34h1.895c1.498,0,2.713-1.215,2.713-2.713v-1.895l1.34-1.34
				C63.765,47.859,63.765,46.141,62.705,45.082z"/>
		</g>
	</g>
	<g>
		<g>
			<g>
				<g>
					<path class="st0" d="M63.059,44.729l-1.193-1.193v-1.688c0-1.771-1.441-3.213-3.213-3.213h-1.688l-1.193-1.192
						c-1.252-1.252-3.291-1.252-4.543,0l-1.193,1.192h-1.688c-1.771,0-3.213,1.441-3.213,3.213v1.688l-1.193,1.193
						C43.335,45.335,43,46.142,43,47c0,0.857,0.335,1.665,0.941,2.271l1.193,1.193v1.688c0,1.771,1.441,3.213,3.213,3.213h1.688
						l1.193,1.193c0.626,0.626,1.449,0.939,2.271,0.939s1.646-0.313,2.271-0.939l1.193-1.193h1.688c1.771,0,3.213-1.441,3.213-3.213
						v-1.688l1.193-1.193C63.665,48.665,64,47.857,64,47C64,46.142,63.665,45.335,63.059,44.729z M62.352,48.564l-1.34,1.34
						c-0.094,0.094-0.146,0.221-0.146,0.354v1.895c0,1.22-0.993,2.213-2.213,2.213h-1.895c-0.133,0-0.26,0.053-0.354,0.146
						l-1.34,1.34c-0.863,0.863-2.266,0.863-3.129,0l-1.34-1.34c-0.094-0.094-0.221-0.146-0.354-0.146h-1.895
						c-1.22,0-2.213-0.993-2.213-2.213v-1.895c0-0.133-0.053-0.26-0.146-0.354l-1.34-1.34C44.23,48.146,44,47.591,44,47
						c0-0.592,0.23-1.146,0.648-1.564l1.34-1.34c0.094-0.094,0.146-0.221,0.146-0.354v-1.896c0-1.22,0.993-2.213,2.213-2.213h1.895
						c0.133,0,0.26-0.053,0.354-0.146l1.34-1.339c0.863-0.863,2.266-0.863,3.129,0l1.34,1.339c0.094,0.094,0.221,0.146,0.354,0.146
						h1.895c1.22,0,2.213,0.993,2.213,2.213v1.896c0,0.133,0.053,0.26,0.146,0.354l1.34,1.34C62.77,45.854,63,46.408,63,47
						C63,47.591,62.77,48.146,62.352,48.564z"/>
				</g>
			</g>
		</g>
	</g>
	<g>
		<g>
			<path class="st1" d="M56.758,54.865l-1.34,1.34c-1.059,1.059-2.777,1.059-3.836,0l-1.34-1.34H49.5V63.5l4-3l4,3v-8.634H56.758z"
				/>
		</g>
	</g>
	<g>
		<g>
			<g>
				<g>
					<path class="st0" d="M57.5,54.365h-0.742c-0.133,0-0.26,0.053-0.354,0.146l-1.34,1.34c-0.836,0.836-2.293,0.836-3.129,0
						l-1.34-1.34c-0.094-0.094-0.221-0.146-0.354-0.146H49.5c-0.276,0-0.5,0.224-0.5,0.5V63.5c0,0.189,0.107,0.362,0.276,0.447
						s0.373,0.065,0.523-0.047l3.7-2.775l3.7,2.775c0.088,0.065,0.193,0.1,0.3,0.1c0.076,0,0.153-0.018,0.224-0.053
						C57.893,63.862,58,63.689,58,63.5v-8.635C58,54.589,57.776,54.365,57.5,54.365z M53.8,60.1c-0.089-0.066-0.194-0.1-0.3-0.1
						s-0.211,0.033-0.3,0.1L50,62.5v-7.135l1.229,1.193c1.252,1.252,3.291,1.252,4.543,0l1.193-1.193L57,62.5L53.8,60.1z"/>
				</g>
			</g>
		</g>
	</g>
	<g>
		<g>
			<path class="st0" d="M43.499,30.893h-20c-0.276,0-0.5,0.224-0.5,0.5s0.224,0.5,0.5,0.5h20c0.276,0,0.5-0.224,0.5-0.5
				S43.775,30.893,43.499,30.893z"/>
		</g>
	</g>
	<g>
		<g>
			<path class="st0" d="M43.499,35.893h-20c-0.276,0-0.5,0.224-0.5,0.5s0.224,0.5,0.5,0.5h20c0.276,0,0.5-0.224,0.5-0.5
				S43.775,35.893,43.499,35.893z"/>
		</g>
	</g>
	<g>
		<g>
			<path class="st0" d="M38.499,40.893h-10c-0.276,0-0.5,0.224-0.5,0.5s0.224,0.5,0.5,0.5h10c0.276,0,0.5-0.224,0.5-0.5
				S38.775,40.893,38.499,40.893z"/>
		</g>
	</g>
	<g>
		<g>
			<path class="st0" d="M37.249,25.893h-7.5c-0.276,0-0.5,0.224-0.5,0.5s0.224,0.5,0.5,0.5h7.5c0.276,0,0.5-0.224,0.5-0.5
				S37.525,25.893,37.249,25.893z"/>
		</g>
	</g>
	<g>
		<g>
			<g>
				<g>
					<g>
						<path class="st0" d="M53.5,40.5c-3.584,0-6.5,2.916-6.5,6.5s2.916,6.5,6.5,6.5S60,50.584,60,47S57.084,40.5,53.5,40.5z
							 M53.5,52.5c-3.032,0-5.5-2.468-5.5-5.5s2.468-5.5,5.5-5.5S59,43.968,59,47S56.532,52.5,53.5,52.5z"/>
					</g>
				</g>
			</g>
		</g>
	</g>
	<g>
		<g>
			<polygon class="st3" points="22.5,0.5 0.5,6 22.5,11.5 44.5,6 			"/>
		</g>
	</g>
	<g>
		<g>
			<g>
				<g>
					<path class="st0" d="M44.621,5.515l-22-5.5c-0.08-0.02-0.162-0.02-0.242,0l-22,5.5C0.156,5.57,0,5.771,0,6
						s0.156,0.43,0.379,0.485l22,5.5C22.419,11.995,22.459,12,22.5,12s0.081-0.005,0.121-0.015l22-5.5C44.844,6.43,45,6.229,45,6
						S44.844,5.57,44.621,5.515z M22.5,10.984L2.562,6L22.5,1.016L42.438,6L22.5,10.984z"/>
				</g>
			</g>
		</g>
	</g>
	<g>
		<g>
			<path class="st3" d="M22.5,11.5L10,8.375v10.126l1.682,0.807c6.839,3.282,14.798,3.282,21.637,0L35,18.501V8.375L22.5,11.5z"/>
		</g>
	</g>
	<g>
		<g>
			<g>
				<g>
					<path class="st0" d="M35.308,7.98c-0.122-0.095-0.278-0.128-0.429-0.091L22.5,10.984L10.121,7.89
						C9.971,7.854,9.813,7.887,9.692,7.98C9.571,8.075,9.5,8.221,9.5,8.375v10.126c0,0.192,0.11,0.367,0.283,0.451l1.682,0.808
						c3.507,1.683,7.271,2.523,11.035,2.523s7.528-0.841,11.035-2.523l1.682-0.808c0.173-0.084,0.283-0.259,0.283-0.451V8.375
						C35.5,8.221,35.429,8.075,35.308,7.98z M34.5,18.187l-1.398,0.671c-6.737,3.234-14.466,3.235-21.203,0L10.5,18.187V9.016
						l11.879,2.97c0.08,0.02,0.162,0.02,0.242,0L34.5,9.016V18.187z"/>
				</g>
			</g>
		</g>
	</g>
	<g>
		<g>
			<path class="st0" d="M41.5,6.522c-0.276,0-0.5,0.224-0.5,0.5v10c0,0.276,0.224,0.5,0.5,0.5s0.5-0.224,0.5-0.5v-10
				C42,6.746,41.776,6.522,41.5,6.522z"/>
		</g>
	</g>
	<g>
		<g>
			<path class="st0" d="M47.5,58.367H9c-2.206,0-4-1.794-4-4v-4h37.498c0.276,0,0.5-0.224,0.5-0.5s-0.224-0.5-0.5-0.5H4.5
				c-0.276,0-0.5,0.224-0.5,0.5v4.5c0,2.757,2.243,5,5,5h38.5c0.276,0,0.5-0.224,0.5-0.5S47.776,58.367,47.5,58.367z"/>
		</g>
	</g>
	<g>
		<g>
			<g>
				<g>
					<g>
						<path class="st0" d="M13.182,33.743c-3.768-3.767-8.113-5.32-9.899-3.535c-0.195,0.195-0.195,0.512,0,0.707l4.698,4.698
							L3.68,33.959c-0.184-0.071-0.393-0.027-0.533,0.113c-0.14,0.14-0.185,0.349-0.113,0.533c0.692,1.799,2.036,3.753,3.785,5.502
							c2.71,2.71,5.721,4.273,7.861,4.273c0.835,0,1.537-0.237,2.038-0.738C18.502,41.858,16.948,37.51,13.182,33.743z
							 M16.011,42.936c-1.195,1.197-4.89,0.061-8.485-3.535c-1.301-1.301-2.361-2.713-3.067-4.07l5.362,2.062
							c0.218,0.084,0.47,0.005,0.599-0.194c0.129-0.198,0.102-0.459-0.065-0.626L4.412,30.63c1.497-0.66,4.82,0.578,8.062,3.82
							C16.07,38.046,17.206,41.74,16.011,42.936z"/>
					</g>
				</g>
			</g>
		</g>
	</g>
	<g>
		<g>
			<path class="st0" d="M21.297,47.516L10.354,36.572c-0.195-0.195-0.512-0.195-0.707,0s-0.195,0.512,0,0.707L20.59,48.223
				c0.098,0.098,0.226,0.146,0.354,0.146s0.256-0.049,0.354-0.146C21.492,48.027,21.492,47.711,21.297,47.516z"/>
		</g>
	</g>
</g>
</svg>
