<?xml version="1.0" encoding="utf-8"?>
<!-- Generator: Adobe Illustrator 21.1.0, SVG Export Plug-In . SVG Version: 6.00 Build 0)  -->
<svg version="1.1" id="Icon_Set" xmlns="http://www.w3.org/2000/svg" xmlns:xlink="http://www.w3.org/1999/xlink" x="0px" y="0px"
	 viewBox="0 0 64 64" style="enable-background:new 0 0 64 64;" xml:space="preserve">
<style type="text/css">
	.st0{fill:#37474F;}
	.st1{fill:#EF5350;}
	.st2{fill:#FFCA28;}
	.st3{fill:#64B5F6;}
	.st4{fill:#FFFFFF;}
	.st5{fill:#FF7043;}
</style>
<g id="Discover">
	<g>
		<g>
			<path class="st0" d="M32,1.501c-0.276,0-0.5,0.224-0.5,0.5v8c0,0.276,0.224,0.5,0.5,0.5s0.5-0.224,0.5-0.5v-8
				C32.5,1.725,32.276,1.501,32,1.501z"/>
		</g>
	</g>
	<g>
		<g>
			<path class="st0" d="M32,53.501c-0.276,0-0.5,0.224-0.5,0.5v8c0,0.276,0.224,0.5,0.5,0.5s0.5-0.224,0.5-0.5v-8
				C32.5,53.725,32.276,53.501,32,53.501z"/>
		</g>
	</g>
	<g>
		<g>
			<path class="st0" d="M52.152,11.849c-0.195-0.195-0.512-0.195-0.707,0l-4.243,4.242c-0.195,0.195-0.195,0.512,0,0.707
				c0.098,0.098,0.226,0.146,0.354,0.146s0.256-0.049,0.354-0.146l4.243-4.242C52.348,12.36,52.348,12.044,52.152,11.849z"/>
		</g>
	</g>
	<g>
		<g>
			<path class="st0" d="M16.797,47.203c-0.195-0.195-0.512-0.195-0.707,0l-4.243,4.243c-0.195,0.195-0.195,0.512,0,0.707
				c0.098,0.098,0.226,0.146,0.354,0.146s0.256-0.049,0.354-0.146l4.243-4.243C16.993,47.715,16.993,47.398,16.797,47.203z"/>
		</g>
	</g>
	<g>
		<g>
			<path class="st0" d="M52.152,51.446l-4.243-4.243c-0.195-0.195-0.512-0.195-0.707,0s-0.195,0.512,0,0.707l4.243,4.243
				c0.098,0.098,0.226,0.146,0.354,0.146s0.256-0.049,0.354-0.146C52.348,51.958,52.348,51.642,52.152,51.446z"/>
		</g>
	</g>
	<g>
		<g>
			<path class="st0" d="M16.797,16.091l-4.243-4.242c-0.195-0.195-0.512-0.195-0.707,0s-0.195,0.512,0,0.707l4.243,4.242
				c0.098,0.098,0.226,0.146,0.354,0.146s0.256-0.049,0.354-0.146C16.993,16.603,16.993,16.286,16.797,16.091z"/>
		</g>
	</g>
	<g>
		<g>
			<path class="st0" d="M9.5,31.501h-7c-0.276,0-0.5,0.224-0.5,0.5s0.224,0.5,0.5,0.5h7c0.276,0,0.5-0.224,0.5-0.5
				S9.776,31.501,9.5,31.501z"/>
		</g>
	</g>
	<g>
		<g>
			<path class="st0" d="M61.5,31.501h-7c-0.276,0-0.5,0.224-0.5,0.5s0.224,0.5,0.5,0.5h7c0.276,0,0.5-0.224,0.5-0.5
				S61.776,31.501,61.5,31.501z"/>
		</g>
	</g>
	<g>
		<g>
			<circle class="st3" cx="40.5" cy="33.501" r="6"/>
		</g>
	</g>
	<g>
		<g>
			<g>
				<g>
					<path class="st0" d="M40.5,27.001c-3.584,0-6.5,2.916-6.5,6.5s2.916,6.5,6.5,6.5s6.5-2.916,6.5-6.5S44.084,27.001,40.5,27.001z
						 M40.5,39.001c-3.033,0-5.5-2.468-5.5-5.5s2.467-5.5,5.5-5.5s5.5,2.468,5.5,5.5S43.533,39.001,40.5,39.001z"/>
				</g>
			</g>
		</g>
	</g>
	<g>
		<g>
			<path class="st2" d="M32.5,33.501c0-1.893,0.661-3.63,1.76-5H26.5v14.5c0,3.038,2.462,5.5,5.5,5.5s5.5-2.462,5.5-5.5v-2.087
				C34.569,39.727,32.5,36.857,32.5,33.501z"/>
		</g>
	</g>
	<g>
		<g>
			<path class="st1" d="M38.5,15.5h-13c-0.552,0-1,0.448-1,1v1c0,0.552,0.448,1,1,1h13c0.552,0,1-0.448,1-1v-1
				C39.5,15.948,39.052,15.5,38.5,15.5z"/>
		</g>
	</g>
	<g>
		<g>
			<g>
				<g>
					<path class="st0" d="M38.5,15.001h-13c-0.827,0-1.5,0.673-1.5,1.5v1c0,0.827,0.673,1.5,1.5,1.5h13c0.827,0,1.5-0.673,1.5-1.5
						v-1C40,15.674,39.327,15.001,38.5,15.001z M39,17.501c0,0.275-0.224,0.5-0.5,0.5h-13c-0.276,0-0.5-0.225-0.5-0.5v-1
						c0-0.275,0.224-0.5,0.5-0.5h13c0.276,0,0.5,0.225,0.5,0.5V17.501z"/>
				</g>
			</g>
		</g>
	</g>
	<g>
		<g>
			<path class="st0" d="M37.5,18.001c-0.276,0-0.5,0.224-0.5,0.5v7.583c0,0.276,0.224,0.5,0.5,0.5s0.5-0.224,0.5-0.5v-7.583
				C38,18.225,37.776,18.001,37.5,18.001z"/>
		</g>
	</g>
	<g>
		<g>
			<path class="st0" d="M37.5,40.414c-0.276,0-0.5,0.224-0.5,0.5v2.087c0,2.757-2.243,5-5,5s-5-2.243-5-5v-11.5
				c0-0.276-0.224-0.5-0.5-0.5s-0.5,0.224-0.5,0.5v11.5c0,3.309,2.691,6,6,6s6-2.691,6-6v-2.087
				C38,40.638,37.776,40.414,37.5,40.414z"/>
		</g>
	</g>
	<g>
		<g>
			<path class="st0" d="M26.5,25.001c-0.276,0-0.5,0.224-0.5,0.5v3c0,0.276,0.224,0.5,0.5,0.5s0.5-0.224,0.5-0.5v-3
				C27,25.225,26.776,25.001,26.5,25.001z"/>
		</g>
	</g>
	<g>
		<g>
			<path class="st0" d="M26.5,18.001c-0.276,0-0.5,0.224-0.5,0.5v4c0,0.276,0.224,0.5,0.5,0.5s0.5-0.224,0.5-0.5v-4
				C27,18.225,26.776,18.001,26.5,18.001z"/>
		</g>
	</g>
	<g>
		<g>
			<path class="st0" d="M43.329,31.233c-0.195-0.195-0.512-0.195-0.707,0l-3.182,3.182l-1.061-1.061
				c-0.195-0.195-0.512-0.195-0.707,0s-0.195,0.512,0,0.707l1.414,1.414c0.098,0.098,0.226,0.146,0.354,0.146
				s0.256-0.049,0.354-0.146l3.536-3.535C43.524,31.745,43.524,31.429,43.329,31.233z"/>
		</g>
	</g>
	<g>
		<g>
			<path class="st0" d="M34.5,21.001c-0.276,0-0.5,0.224-0.5,0.5v4.583c0,0.276,0.224,0.5,0.5,0.5s0.5-0.224,0.5-0.5v-4.583
				C35,21.225,34.776,21.001,34.5,21.001z"/>
		</g>
	</g>
</g>
</svg>
