<?xml version="1.0" encoding="utf-8"?>
<!-- Generator: Adobe Illustrator 21.1.0, SVG Export Plug-In . SVG Version: 6.00 Build 0)  -->
<svg version="1.1" id="Icon_Set" xmlns="http://www.w3.org/2000/svg" xmlns:xlink="http://www.w3.org/1999/xlink" x="0px" y="0px"
	 viewBox="0 0 64 64" style="enable-background:new 0 0 64 64;" xml:space="preserve">
<style type="text/css">
	.st0{fill:#37474F;}
	.st1{fill:#EF5350;}
	.st2{fill:#FFCA28;}
	.st3{fill:#64B5F6;}
	.st4{fill:#FFFFFF;}
	.st5{fill:#FF7043;}
</style>
<g id="Distance_Learning">
	<g>
		<g>
			<path class="st0" d="M24.5,53.5c-0.276,0-0.5,0.224-0.5,0.5v3.5c0,0.276,0.224,0.5,0.5,0.5s0.5-0.224,0.5-0.5V54
				C25,53.724,24.776,53.5,24.5,53.5z"/>
		</g>
	</g>
	<g>
		<g>
			<path class="st0" d="M36.5,53.5c-0.276,0-0.5,0.224-0.5,0.5v3.5c0,0.276,0.224,0.5,0.5,0.5s0.5-0.224,0.5-0.5V54
				C37,53.724,36.776,53.5,36.5,53.5z"/>
		</g>
	</g>
	<g>
		<g>
			<g>
				<g>
					<g>
						<path class="st0" d="M40.5,59h-20c-0.827,0-1.5,0.673-1.5,1.5v2c0,0.827,0.673,1.5,1.5,1.5h20c0.827,0,1.5-0.673,1.5-1.5v-2
							C42,59.673,41.327,59,40.5,59z M41,62.5c0,0.276-0.225,0.5-0.5,0.5h-20c-0.275,0-0.5-0.224-0.5-0.5v-2
							c0-0.276,0.225-0.5,0.5-0.5h20c0.275,0,0.5,0.224,0.5,0.5V62.5z"/>
					</g>
				</g>
			</g>
		</g>
	</g>
	<g>
		<g>
			<path class="st0" d="M60.5,46.5h-60C0.224,46.5,0,46.724,0,47s0.224,0.5,0.5,0.5h60c0.276,0,0.5-0.224,0.5-0.5
				S60.776,46.5,60.5,46.5z"/>
		</g>
	</g>
	<g>
		<g>
			<path class="st0" d="M0.5,20.5C0.224,20.5,0,20.724,0,21v3c0,0.276,0.224,0.5,0.5,0.5S1,24.276,1,24v-3
				C1,20.724,0.776,20.5,0.5,20.5z"/>
		</g>
	</g>
	<g>
		<g>
			<path class="st0" d="M37.724,14.5H0.5C0.224,14.5,0,14.724,0,15s0.224,0.5,0.5,0.5h37.224c0.276,0,0.5-0.224,0.5-0.5
				S38,14.5,37.724,14.5z"/>
		</g>
	</g>
	<g>
		<g>
			<path class="st0" d="M60.5,22.717c-0.276,0-0.5,0.224-0.5,0.5V47c0,2.481-2.019,4.5-4.5,4.5h-50C3.019,51.5,1,49.481,1,47V27
				c0-0.276-0.224-0.5-0.5-0.5S0,26.724,0,27v20c0,3.033,2.468,5.5,5.5,5.5h50c3.032,0,5.5-2.467,5.5-5.5V23.217
				C61,22.94,60.776,22.717,60.5,22.717z"/>
		</g>
	</g>
	<g>
		<g>
			<path class="st0" d="M0.5,20.5C0.224,20.5,0,20.724,0,21v3c0,0.276,0.224,0.5,0.5,0.5S1,24.276,1,24v-3
				C1,20.724,0.776,20.5,0.5,20.5z"/>
		</g>
	</g>
	<g>
		<g>
			<path class="st0" d="M37.736,9.5H5.5C2.468,9.5,0,11.967,0,15v3c0,0.276,0.224,0.5,0.5,0.5S1,18.276,1,18v-3
				c0-2.481,2.019-4.5,4.5-4.5h32.236c0.276,0,0.5-0.224,0.5-0.5S38.013,9.5,37.736,9.5z"/>
		</g>
	</g>
	<g>
		<g>
			<polygon class="st2" points="20.5,28 20.5,34 14.5,34 14.5,40 26.5,40 26.5,28 			"/>
		</g>
	</g>
	<g>
		<g>
			<g>
				<g>
					<path class="st0" d="M26.5,27.5h-6c-0.276,0-0.5,0.224-0.5,0.5v5.5h-5.5c-0.276,0-0.5,0.224-0.5,0.5v6
						c0,0.276,0.224,0.5,0.5,0.5h12c0.276,0,0.5-0.224,0.5-0.5V28C27,27.724,26.776,27.5,26.5,27.5z M26,39.5H15v-5h5.5
						c0.276,0,0.5-0.224,0.5-0.5v-5.5h5V39.5z"/>
				</g>
			</g>
		</g>
	</g>
	<g>
		<g>
			<polygon class="st1" points="8.5,22 8.5,34 14.5,34 14.5,28 20.5,28 20.5,22 			"/>
		</g>
	</g>
	<g>
		<g>
			<g>
				<g>
					<path class="st0" d="M20.5,21.5h-12C8.224,21.5,8,21.724,8,22v12c0,0.276,0.224,0.5,0.5,0.5h6c0.276,0,0.5-0.224,0.5-0.5v-5.5
						h5.5c0.276,0,0.5-0.224,0.5-0.5v-6C21,21.724,20.776,21.5,20.5,21.5z M20,27.5h-5.5c-0.276,0-0.5,0.224-0.5,0.5v5.5H9v-11h11
						V27.5z"/>
				</g>
			</g>
		</g>
	</g>
	<g>
		<g>
			<circle class="st3" cx="51.5" cy="12.5" r="12"/>
		</g>
	</g>
	<g>
		<g>
			<g>
				<g>
					<path class="st0" d="M51.5,0C44.607,0,39,5.607,39,12.5S44.607,25,51.5,25S64,19.393,64,12.5S58.393,0,51.5,0z M51.5,24
						C45.159,24,40,18.841,40,12.5S45.159,1,51.5,1S63,6.159,63,12.5S57.841,24,51.5,24z"/>
				</g>
			</g>
		</g>
	</g>
	<g>
		<g>
			<path class="st0" d="M60.863,4.256c-0.134-0.242-0.44-0.327-0.68-0.193C57.975,5.294,54.81,6,51.5,6s-6.474-0.706-8.683-1.937
				c-0.241-0.134-0.547-0.049-0.68,0.193c-0.135,0.241-0.048,0.546,0.193,0.68C44.684,6.248,48.025,7,51.5,7
				c3.476,0,6.817-0.752,9.17-2.063C60.911,4.802,60.998,4.498,60.863,4.256z"/>
		</g>
	</g>
	<g>
		<g>
			<path class="st0" d="M60.67,20.063C58.317,18.752,54.976,18,51.5,18c-3.475,0-6.816,0.752-9.169,2.063
				c-0.241,0.134-0.328,0.439-0.193,0.68c0.134,0.242,0.439,0.326,0.68,0.193C45.026,19.706,48.19,19,51.5,19
				s6.475,0.706,8.684,1.937C60.261,20.979,60.344,21,60.427,21c0.175,0,0.346-0.092,0.437-0.256
				C60.998,20.502,60.911,20.198,60.67,20.063z"/>
		</g>
	</g>
	<g>
		<g>
			<g>
				<g>
					<g>
						<path class="st0" d="M51.5,0c-4.371,0-7.928,5.607-7.928,12.5S47.129,25,51.5,25c4.372,0,7.929-5.607,7.929-12.5
							S55.872,0,51.5,0z M51.5,24c-3.82,0-6.928-5.159-6.928-11.5S47.68,1,51.5,1s6.929,5.159,6.929,11.5S55.32,24,51.5,24z"/>
					</g>
				</g>
			</g>
		</g>
	</g>
	<g>
		<g>
			<path class="st0" d="M51.5,0C51.224,0,51,0.224,51,0.5v24c0,0.276,0.224,0.5,0.5,0.5s0.5-0.224,0.5-0.5v-24
				C52,0.224,51.776,0,51.5,0z"/>
		</g>
	</g>
	<g>
		<g>
			<path class="st0" d="M63.5,12h-24c-0.276,0-0.5,0.224-0.5,0.5s0.224,0.5,0.5,0.5h24c0.276,0,0.5-0.224,0.5-0.5S63.776,12,63.5,12
				z"/>
		</g>
	</g>
	<g>
		<g>
			<g>
				<path class="st0" d="M41.5,27.5h-10c-0.276,0-0.5,0.224-0.5,0.5s0.224,0.5,0.5,0.5h10c0.276,0,0.5-0.224,0.5-0.5
					S41.776,27.5,41.5,27.5z"/>
			</g>
		</g>
	</g>
	<g>
		<g>
			<g>
				<path class="st0" d="M51.5,36.5h-20c-0.276,0-0.5,0.224-0.5,0.5s0.224,0.5,0.5,0.5h20c0.276,0,0.5-0.224,0.5-0.5
					S51.776,36.5,51.5,36.5z"/>
			</g>
		</g>
	</g>
	<g>
		<g>
			<g>
				<path class="st0" d="M51.5,33.5h-20c-0.276,0-0.5,0.224-0.5,0.5s0.224,0.5,0.5,0.5h20c0.276,0,0.5-0.224,0.5-0.5
					S51.776,33.5,51.5,33.5z"/>
			</g>
		</g>
	</g>
	<g>
		<g>
			<g>
				<path class="st0" d="M51.5,39.5h-20c-0.276,0-0.5,0.224-0.5,0.5s0.224,0.5,0.5,0.5h20c0.276,0,0.5-0.224,0.5-0.5
					S51.776,39.5,51.5,39.5z"/>
			</g>
		</g>
	</g>
</g>
</svg>
