<?xml version="1.0" encoding="utf-8"?>
<!-- Generator: Adobe Illustrator 21.1.0, SVG Export Plug-In . SVG Version: 6.00 Build 0)  -->
<svg version="1.1" id="Icon_Set" xmlns="http://www.w3.org/2000/svg" xmlns:xlink="http://www.w3.org/1999/xlink" x="0px" y="0px"
	 viewBox="0 0 64 64" style="enable-background:new 0 0 64 64;" xml:space="preserve">
<style type="text/css">
	.st0{fill:#37474F;}
	.st1{fill:#EF5350;}
	.st2{fill:#FFCA28;}
	.st3{fill:#64B5F6;}
	.st4{fill:#FFFFFF;}
	.st5{fill:#FF7043;}
</style>
<g id="E-Learning">
	<g>
		<g>
			<path class="st3" d="M55,15v12c0,2.481-2.019,4.5-4.5,4.5h-15c-1.654,0-3,1.346-3,3c0,1.104-0.896,2-2,2s-2-0.896-2-2
				c0-1.654-1.346-3-3-3h-15C8.018,31.5,6,29.481,6,27V15H0.5v32h46v-4c0-2.481,2.019-4.5,4.5-4.5h9.5V15H55z"/>
		</g>
	</g>
	<g>
		<g>
			<path class="st0" d="M24.5,53.5c-0.276,0-0.5,0.224-0.5,0.5v3.5c0,0.276,0.224,0.5,0.5,0.5s0.5-0.224,0.5-0.5V54
				C25,53.724,24.776,53.5,24.5,53.5z"/>
		</g>
	</g>
	<g>
		<g>
			<path class="st0" d="M36.5,53.5c-0.276,0-0.5,0.224-0.5,0.5v3.5c0,0.276,0.224,0.5,0.5,0.5s0.5-0.224,0.5-0.5V54
				C37,53.724,36.776,53.5,36.5,53.5z"/>
		</g>
	</g>
	<g>
		<g>
			<g>
				<g>
					<g>
						<path class="st0" d="M40.5,59h-20c-0.827,0-1.5,0.673-1.5,1.5v2c0,0.827,0.673,1.5,1.5,1.5h20c0.827,0,1.5-0.673,1.5-1.5v-2
							C42,59.673,41.327,59,40.5,59z M41,62.5c0,0.276-0.225,0.5-0.5,0.5h-20c-0.276,0-0.5-0.224-0.5-0.5v-2
							c0-0.276,0.224-0.5,0.5-0.5h20c0.275,0,0.5,0.224,0.5,0.5V62.5z"/>
					</g>
				</g>
			</g>
		</g>
	</g>
	<g>
		<g>
			<path class="st0" d="M46.5,46.5h-46C0.224,46.5,0,46.724,0,47s0.224,0.5,0.5,0.5h46c0.276,0,0.5-0.224,0.5-0.5
				S46.776,46.5,46.5,46.5z"/>
		</g>
	</g>
	<g>
		<g>
			<path class="st2" d="M20.5,29.5h5c2.761,0,5,2.239,5,5v-4c0-2.761-2.239-5-5-5H14c-1.381,0-2.5-1.119-2.5-2.5V5.5h-1
				C9.119,5.5,8,6.619,8,8v19c0,1.381,1.119,2.5,2.5,2.5h1"/>
		</g>
	</g>
	<g>
		<g>
			<path class="st0" d="M25.5,25H14c-1.103,0-2-0.897-2-2V5.5C12,5.224,11.776,5,11.5,5h-1c-1.654,0-3,1.346-3,3v19
				c0,1.654,1.346,3,3,3h1c0.276,0,0.5-0.224,0.5-0.5S11.776,29,11.5,29h-1c-1.103,0-2-0.897-2-2V8c0-1.103,0.897-2,2-2H11v17
				c0,1.654,1.346,3,3,3h11.5c2.481,0,4.5,2.019,4.5,4.5v0.841C29.004,29.926,27.358,29,25.5,29h-5c-0.276,0-0.5,0.224-0.5,0.5
				s0.224,0.5,0.5,0.5h5c2.481,0,4.5,2.019,4.5,4.5c0,0.276,0.224,0.5,0.5,0.5s0.5-0.224,0.5-0.5v-4C31,27.467,28.533,25,25.5,25z"
				/>
		</g>
	</g>
	<g>
		<g>
			<path class="st2" d="M50.5,5.5h-1V23c0,1.381-1.119,2.5-2.5,2.5H35.5c-2.761,0-5,2.239-5,5v4c0-2.761,2.239-5,5-5h15
				c1.381,0,2.5-1.119,2.5-2.5V8C53,6.619,51.881,5.5,50.5,5.5z"/>
		</g>
	</g>
	<g>
		<g>
			<g>
				<g>
					<path class="st0" d="M50.5,5h-1C49.224,5,49,5.224,49,5.5V23c0,1.103-0.897,2-2,2H35.5c-3.033,0-5.5,2.467-5.5,5.5v4
						c0,0.276,0.224,0.5,0.5,0.5s0.5-0.224,0.5-0.5c0-2.481,2.019-4.5,4.5-4.5h15c1.654,0,3-1.346,3-3V8C53.5,6.346,52.154,5,50.5,5
						z M52.5,27c0,1.103-0.897,2-2,2h-15c-1.858,0-3.504,0.926-4.5,2.341V30.5c0-2.481,2.019-4.5,4.5-4.5H47c1.654,0,3-1.346,3-3V6
						h0.5c1.103,0,2,0.897,2,2V27z"/>
				</g>
			</g>
		</g>
	</g>
	<g>
		<g>
			<path class="st0" d="M55.5,9.5H55c-0.276,0-0.5,0.224-0.5,0.5s0.224,0.5,0.5,0.5h0.5c2.481,0,4.5,2.019,4.5,4.5v23.5
				c0,0.276,0.224,0.5,0.5,0.5s0.5-0.224,0.5-0.5V15C61,11.967,58.532,9.5,55.5,9.5z"/>
		</g>
	</g>
	<g>
		<g>
			<path class="st0" d="M46.5,51.5h-41C3.019,51.5,1,49.481,1,47V15c0-2.481,2.019-4.5,4.5-4.5H6c0.276,0,0.5-0.224,0.5-0.5
				S6.276,9.5,6,9.5H5.5C2.467,9.5,0,11.967,0,15v32c0,3.033,2.467,5.5,5.5,5.5h41c0.276,0,0.5-0.224,0.5-0.5S46.776,51.5,46.5,51.5
				z"/>
		</g>
	</g>
	<g>
		<g>
			<path class="st0" d="M60.5,14.5H55c-0.276,0-0.5,0.224-0.5,0.5s0.224,0.5,0.5,0.5h5.5c0.276,0,0.5-0.224,0.5-0.5
				S60.776,14.5,60.5,14.5z"/>
		</g>
	</g>
	<g>
		<g>
			<path class="st0" d="M6,14.5H0.5C0.224,14.5,0,14.724,0,15s0.224,0.5,0.5,0.5H6c0.276,0,0.5-0.224,0.5-0.5S6.276,14.5,6,14.5z"/>
		</g>
	</g>
	<g>
		<g>
			<g>
				<g>
					<g>
						<path class="st0" d="M25.5,0H14c-1.654,0-3,1.346-3,3v20c0,1.654,1.346,3,3,3h11.5c2.164,0,3.976,1.535,4.404,3.573
							l0.098,0.971c0.005,0.061,0.021,0.119,0.047,0.171c0.03,0.063,0.074,0.119,0.126,0.164l0,0c0,0,0,0,0,0
							c0.061,0.051,0.133,0.089,0.213,0.107c0,0,0.001,0,0.001,0C30.426,30.996,30.462,31,30.5,31h0.013
							c0.084-0.002,0.164-0.025,0.233-0.064h0c0,0,0,0,0,0l0,0c0,0,0,0,0,0c0,0,0.001-0.001,0.001-0.001
							c0.045-0.026,0.085-0.058,0.12-0.096c0-0.002,0,0,0.001-0.001h0c0.077-0.085,0.125-0.197,0.129-0.32v-0.008
							c0-0.001,0-0.001,0-0.001c0,0,0-0.001,0-0.001c0,0,0-0.001,0-0.001V5.5C31,2.467,28.533,0,25.5,0z M30,27.341
							C29.004,25.926,27.358,25,25.5,25H14c-1.103,0-2-0.897-2-2V3c0-1.103,0.897-2,2-2h11.5C27.981,1,30,3.019,30,5.5V27.341z"/>
					</g>
				</g>
			</g>
		</g>
	</g>
	<g>
		<g>
			<g>
				<g>
					<g>
						<path class="st0" d="M47,0H35.5C32.467,0,30,2.467,30,5.5v25.004c0,0,0,0,0,0c0,0,0,0,0,0.001c0,0,0,0,0,0.001v0.008
							c0.004,0.123,0.052,0.235,0.129,0.32h0c0,0.001,0.001,0.001,0.001,0.001c0.035,0.038,0.075,0.07,0.12,0.096l0,0
							c0,0,0,0,0.001,0c0,0,0,0,0,0l0,0c0,0,0.001,0,0.001,0c0.069,0.039,0.148,0.062,0.233,0.064H30.5
							c0.036,0,0.071-0.004,0.105-0.011c0.089-0.019,0.17-0.062,0.234-0.122c0,0,0,0,0,0l0,0c0.043-0.041,0.08-0.088,0.107-0.143
							c0.027-0.055,0.044-0.115,0.05-0.179l0.098-0.971C31.524,27.535,33.336,26,35.5,26H47c1.654,0,3-1.346,3-3V3
							C50,1.346,48.654,0,47,0z M49,23c0,1.103-0.897,2-2,2H35.5c-1.858,0-3.504,0.926-4.5,2.341V5.5C31,3.019,33.019,1,35.5,1H47
							c1.103,0,2,0.897,2,2V23z"/>
					</g>
				</g>
			</g>
		</g>
	</g>
	<g>
		<g>
			<g>
				<path class="st0" d="M17.5,29h-3c-0.276,0-0.5,0.224-0.5,0.5s0.224,0.5,0.5,0.5h3c0.276,0,0.5-0.224,0.5-0.5S17.776,29,17.5,29z
					"/>
			</g>
		</g>
	</g>
	<g>
		<g>
			<g>
				<g>
					<g>
						<path class="st0" d="M61,40H51c-1.654,0-3,1.346-3,3v18c0,1.654,1.346,3,3,3h10c1.654,0,3-1.346,3-3V43
							C64,41.346,62.654,40,61,40z M63,61c0,1.103-0.897,2-2,2H51c-1.103,0-2-0.897-2-2V43c0-1.103,0.897-2,2-2h10
							c1.103,0,2,0.897,2,2V61z"/>
					</g>
				</g>
			</g>
		</g>
	</g>
	<g>
		<g>
			<path class="st0" d="M57,60.5h-2c-0.276,0-0.5,0.224-0.5,0.5s0.224,0.5,0.5,0.5h2c0.276,0,0.5-0.224,0.5-0.5S57.276,60.5,57,60.5
				z"/>
		</g>
	</g>
	<g>
		<g>
			<rect x="48.5" y="43.5" class="st1" width="15" height="15"/>
		</g>
	</g>
	<g>
		<g>
			<g>
				<g>
					<path class="st0" d="M63.5,43h-15c-0.276,0-0.5,0.224-0.5,0.5v15c0,0.276,0.224,0.5,0.5,0.5h15c0.276,0,0.5-0.224,0.5-0.5v-15
						C64,43.224,63.776,43,63.5,43z M63,58H49V44h14V58z"/>
				</g>
			</g>
		</g>
	</g>
	<g>
		<g>
			<path class="st0" d="M60.5,46c-0.276,0-0.5,0.224-0.5,0.5v9c0,0.276,0.224,0.5,0.5,0.5s0.5-0.224,0.5-0.5v-9
				C61,46.224,60.776,46,60.5,46z"/>
		</g>
	</g>
	<g>
		<g>
			<g>
				<path class="st0" d="M26,5H16c-0.276,0-0.5,0.224-0.5,0.5S15.724,6,16,6h10c0.276,0,0.5-0.224,0.5-0.5S26.276,5,26,5z"/>
			</g>
		</g>
	</g>
	<g>
		<g>
			<g>
				<path class="st0" d="M26,9H16c-0.276,0-0.5,0.224-0.5,0.5S15.724,10,16,10h10c0.276,0,0.5-0.224,0.5-0.5S26.276,9,26,9z"/>
			</g>
		</g>
	</g>
	<g>
		<g>
			<g>
				<path class="st0" d="M26,13H16c-0.276,0-0.5,0.224-0.5,0.5S15.724,14,16,14h10c0.276,0,0.5-0.224,0.5-0.5S26.276,13,26,13z"/>
			</g>
		</g>
	</g>
	<g>
		<g>
			<g>
				<path class="st0" d="M26,17H16c-0.276,0-0.5,0.224-0.5,0.5S15.724,18,16,18h10c0.276,0,0.5-0.224,0.5-0.5S26.276,17,26,17z"/>
			</g>
		</g>
	</g>
	<g>
		<g>
			<g>
				<path class="st0" d="M45,5H35c-0.276,0-0.5,0.224-0.5,0.5S34.724,6,35,6h10c0.276,0,0.5-0.224,0.5-0.5S45.276,5,45,5z"/>
			</g>
		</g>
	</g>
	<g>
		<g>
			<g>
				<path class="st0" d="M45,9H35c-0.276,0-0.5,0.224-0.5,0.5S34.724,10,35,10h10c0.276,0,0.5-0.224,0.5-0.5S45.276,9,45,9z"/>
			</g>
		</g>
	</g>
	<g>
		<g>
			<g>
				<path class="st0" d="M45,13H35c-0.276,0-0.5,0.224-0.5,0.5S34.724,14,35,14h10c0.276,0,0.5-0.224,0.5-0.5S45.276,13,45,13z"/>
			</g>
		</g>
	</g>
	<g>
		<g>
			<g>
				<path class="st0" d="M45,17H35c-0.276,0-0.5,0.224-0.5,0.5S34.724,18,35,18h10c0.276,0,0.5-0.224,0.5-0.5S45.276,17,45,17z"/>
			</g>
		</g>
	</g>
</g>
</svg>
