<?xml version="1.0" encoding="utf-8"?>
<!-- Generator: Adobe Illustrator 21.1.0, SVG Export Plug-In . SVG Version: 6.00 Build 0)  -->
<svg version="1.1" id="Icon_Set" xmlns="http://www.w3.org/2000/svg" xmlns:xlink="http://www.w3.org/1999/xlink" x="0px" y="0px"
	 viewBox="0 0 64 64" style="enable-background:new 0 0 64 64;" xml:space="preserve">
<style type="text/css">
	.st0{fill:#37474F;}
	.st1{fill:#EF5350;}
	.st2{fill:#FFCA28;}
	.st3{fill:#64B5F6;}
	.st4{fill:#FFFFFF;}
	.st5{fill:#FF7043;}
</style>
<g id="Ebook_Bookstore">
	<g>
		<g>
			<path class="st3" d="M53.5,3.501h-48c-2.761,0-5,2.239-5,5v4h58v-4C58.5,5.74,56.261,3.501,53.5,3.501z"/>
		</g>
	</g>
	<g>
		<g>
			<g>
				<g>
					<path class="st0" d="M53.5,3.001h-48c-3.033,0-5.5,2.468-5.5,5.5v4c0,0.276,0.224,0.5,0.5,0.5h58c0.276,0,0.5-0.224,0.5-0.5v-4
						C59,5.469,56.533,3.001,53.5,3.001z M58,12.001H1v-3.5c0-2.481,2.019-4.5,4.5-4.5h48c2.481,0,4.5,2.019,4.5,4.5V12.001z"/>
				</g>
			</g>
		</g>
	</g>
	<g>
		<g>
			<circle class="st4" cx="5" cy="8.001" r="1.5"/>
		</g>
	</g>
	<g>
		<g>
			<g>
				<g>
					<path class="st0" d="M5,6.001c-1.103,0-2,0.897-2,2s0.897,2,2,2s2-0.897,2-2S6.103,6.001,5,6.001z M5,9.001
						c-0.551,0-1-0.448-1-1s0.449-1,1-1s1,0.448,1,1S5.551,9.001,5,9.001z"/>
				</g>
			</g>
		</g>
	</g>
	<g>
		<g>
			<circle class="st4" cx="10" cy="8.001" r="1.5"/>
		</g>
	</g>
	<g>
		<g>
			<g>
				<g>
					<path class="st0" d="M10,6.001c-1.103,0-2,0.897-2,2s0.897,2,2,2s2-0.897,2-2S11.103,6.001,10,6.001z M10,9.001
						c-0.551,0-1-0.448-1-1s0.449-1,1-1s1,0.448,1,1S10.551,9.001,10,9.001z"/>
				</g>
			</g>
		</g>
	</g>
	<g>
		<g>
			<circle class="st4" cx="15" cy="8.001" r="1.5"/>
		</g>
	</g>
	<g>
		<g>
			<g>
				<g>
					<path class="st0" d="M15,6.001c-1.103,0-2,0.897-2,2s0.897,2,2,2s2-0.897,2-2S16.103,6.001,15,6.001z M15,9.001
						c-0.551,0-1-0.448-1-1s0.449-1,1-1s1,0.448,1,1S15.551,9.001,15,9.001z"/>
				</g>
			</g>
		</g>
	</g>
	<g>
		<g>
			<path class="st0" d="M53.5,3.001h-48c-3.033,0-5.5,2.468-5.5,5.5v7c0,0.276,0.224,0.5,0.5,0.5s0.5-0.224,0.5-0.5v-7
				c0-2.481,2.019-4.5,4.5-4.5h48c2.481,0,4.5,2.019,4.5,4.5v35.828c0,0.276,0.224,0.5,0.5,0.5s0.5-0.224,0.5-0.5V8.501
				C59,5.469,56.533,3.001,53.5,3.001z"/>
		</g>
	</g>
	<g>
		<g>
			<path class="st0" d="M47.328,55.001H5.5c-2.481,0-4.5-2.019-4.5-4.5v-26c0-0.276-0.224-0.5-0.5-0.5S0,24.225,0,24.501v26
				c0,3.032,2.467,5.5,5.5,5.5h41.828c0.276,0,0.5-0.224,0.5-0.5S47.604,55.001,47.328,55.001z"/>
		</g>
	</g>
	<g>
		<g>
			<path class="st0" d="M0.5,18.001c-0.276,0-0.5,0.224-0.5,0.5v3c0,0.276,0.224,0.5,0.5,0.5s0.5-0.224,0.5-0.5v-3
				C1,18.225,0.776,18.001,0.5,18.001z"/>
		</g>
	</g>
	<g>
		<g>
			<g>
				<path class="st2" d="M20.001,47.501h5c2.761,0,5,2.239,5,5v-4c0-2.761-2.239-5-5-5h-11.5c-1.381,0-2.5-1.119-2.5-2.5v-17.5h-1
					c-1.381,0-2.5,1.119-2.5,2.5v19c0,1.381,1.119,2.5,2.5,2.5h1"/>
			</g>
		</g>
		<g>
			<g>
				<path class="st0" d="M25,43.001H13.5c-1.103,0-2-0.897-2-2v-17.5c0-0.276-0.224-0.5-0.5-0.5h-1c-1.654,0-3,1.346-3,3v19
					c0,1.654,1.346,3,3,3h1c0.276,0,0.5-0.224,0.5-0.5s-0.224-0.5-0.5-0.5h-1c-1.103,0-2-0.897-2-2v-19c0-1.103,0.897-2,2-2h0.5v17
					c0,1.654,1.346,3,3,3H25c2.481,0,4.5,2.019,4.5,4.5v0.841c-0.996-1.415-2.642-2.341-4.5-2.341h-5c-0.276,0-0.5,0.224-0.5,0.5
					s0.224,0.5,0.5,0.5h5c2.481,0,4.5,2.019,4.5,4.5c0,0.276,0.224,0.5,0.5,0.5s0.5-0.224,0.5-0.5v-4
					C30.5,45.469,28.033,43.001,25,43.001z"/>
			</g>
		</g>
	</g>
	<g>
		<g>
			<g>
				<g>
					<g>
						<path class="st0" d="M25,18.001H13.5c-1.654,0-3,1.346-3,3v20c0,1.654,1.346,3,3,3H25c2.164,0,3.976,1.535,4.404,3.573
							l0.098,0.972c0.005,0.061,0.021,0.118,0.047,0.171c0.03,0.063,0.074,0.119,0.126,0.164l0.001,0.001
							c0.061,0.051,0.133,0.089,0.213,0.106l0.001,0.001c0.036,0.008,0.072,0.012,0.109,0.012h0.013
							c0.084-0.002,0.164-0.025,0.233-0.064c0.006-0.001,0.001-0.001,0.001-0.001h0c0,0,0.001-0.001,0.001-0.001
							c0.045-0.025,0.085-0.059,0.12-0.097h0c0-0.001,0-0.001,0-0.001h0c0.077-0.085,0.125-0.197,0.129-0.32
							c0-0.001,0-0.001,0-0.002v-0.001c0,0,0,0,0-0.001c0,0,0,0,0-0.001s0-0.001,0-0.001v-0.002c0-0.001,0-0.001,0-0.002v-0.002
							c0,0,0,0,0-0.001c0,0,0,0,0-0.001s0-0.001,0-0.002v-25C30.5,20.469,28.033,18.001,25,18.001z M29.5,45.342
							c-0.996-1.415-2.642-2.341-4.5-2.341H13.5c-1.103,0-2-0.897-2-2v-20c0-1.103,0.897-2,2-2H25c2.481,0,4.5,2.019,4.5,4.5V45.342
							z"/>
					</g>
				</g>
			</g>
		</g>
	</g>
	<g>
		<g>
			<g>
				<g>
					<g>
						<path class="st0" d="M46.5,18.001H35c-3.033,0-5.5,2.468-5.5,5.5v25c0,0.001,0,0.001,0,0.002s0,0.001,0,0.001
							c0,0.001,0,0.001,0,0.001v0.002c0,0.001,0,0.001,0,0.002v0.002c0,0,0,0,0,0.001s0,0.001,0,0.001c0,0.001,0,0.001,0,0.001
							v0.001c0,0.001,0,0.001,0,0.002c0.004,0.123,0.052,0.235,0.129,0.32h0c0,0,0,0,0,0.001h0c0.035,0.038,0.075,0.071,0.12,0.097
							c0,0,0.001,0.001,0.001,0.001h0c0,0,0,0.001,0.001,0.001c0.069,0.039,0.148,0.062,0.233,0.064h0.013
							c0.036,0,0.071-0.004,0.105-0.011c0.089-0.02,0.17-0.062,0.234-0.123h0.001c0.043-0.041,0.08-0.089,0.107-0.144
							c0.027-0.054,0.044-0.114,0.05-0.178l0.098-0.972c0.429-2.038,2.241-3.573,4.404-3.573h11.5c1.654,0,3-1.346,3-3v-20
							C49.5,19.347,48.155,18.001,46.5,18.001z M48.5,41.001c0,1.103-0.897,2-2,2H35c-1.858,0-3.504,0.926-4.5,2.341V23.501
							c0-2.481,2.019-4.5,4.5-4.5h11.5c1.103,0,2,0.897,2,2V41.001z"/>
					</g>
				</g>
			</g>
		</g>
	</g>
	<g>
		<g>
			<g>
				<path class="st0" d="M25.5,23.001h-10c-0.276,0-0.5,0.224-0.5,0.5s0.224,0.5,0.5,0.5h10c0.276,0,0.5-0.224,0.5-0.5
					S25.777,23.001,25.5,23.001z"/>
			</g>
		</g>
	</g>
	<g>
		<g>
			<g>
				<path class="st0" d="M25.5,27.001h-10c-0.276,0-0.5,0.224-0.5,0.5s0.224,0.5,0.5,0.5h10c0.276,0,0.5-0.224,0.5-0.5
					S25.777,27.001,25.5,27.001z"/>
			</g>
		</g>
	</g>
	<g>
		<g>
			<g>
				<path class="st0" d="M25.5,31.001h-10c-0.276,0-0.5,0.224-0.5,0.5s0.224,0.5,0.5,0.5h10c0.276,0,0.5-0.224,0.5-0.5
					S25.777,31.001,25.5,31.001z"/>
			</g>
		</g>
	</g>
	<g>
		<g>
			<g>
				<path class="st0" d="M25.5,35.001h-10c-0.276,0-0.5,0.224-0.5,0.5s0.224,0.5,0.5,0.5h10c0.276,0,0.5-0.224,0.5-0.5
					S25.777,35.001,25.5,35.001z"/>
			</g>
		</g>
	</g>
	<g>
		<g>
			<g>
				<path class="st0" d="M44.5,23.001h-10c-0.276,0-0.5,0.224-0.5,0.5s0.224,0.5,0.5,0.5h10c0.276,0,0.5-0.224,0.5-0.5
					S44.777,23.001,44.5,23.001z"/>
			</g>
		</g>
	</g>
	<g>
		<g>
			<g>
				<path class="st0" d="M44.5,27.001h-10c-0.276,0-0.5,0.224-0.5,0.5s0.224,0.5,0.5,0.5h10c0.276,0,0.5-0.224,0.5-0.5
					S44.777,27.001,44.5,27.001z"/>
			</g>
		</g>
	</g>
	<g>
		<g>
			<g>
				<path class="st0" d="M44.5,31.001h-10c-0.276,0-0.5,0.224-0.5,0.5s0.224,0.5,0.5,0.5h10c0.276,0,0.5-0.224,0.5-0.5
					S44.777,31.001,44.5,31.001z"/>
			</g>
		</g>
	</g>
	<g>
		<g>
			<g>
				<path class="st0" d="M44.5,35.001h-10c-0.276,0-0.5,0.224-0.5,0.5s0.224,0.5,0.5,0.5h10c0.276,0,0.5-0.224,0.5-0.5
					S44.777,35.001,44.5,35.001z"/>
			</g>
		</g>
	</g>
	<g>
		<g>
			<g>
				<path class="st0" d="M17,47.001h-3c-0.276,0-0.5,0.224-0.5,0.5s0.224,0.5,0.5,0.5h3c0.276,0,0.5-0.224,0.5-0.5
					S17.277,47.001,17,47.001z"/>
			</g>
		</g>
	</g>
	<g>
		<g>
			<path class="st1" d="M63.207,56.12l-4.952-4.952c-0.391-0.39-0.391-1.024,0-1.414l1.717-1.717c0.63-0.63,0.184-1.707-0.707-1.707
				h-8.937c-0.552,0-1,0.448-1,1v8.937c0,0.891,1.077,1.337,1.707,0.707l1.717-1.717c0.391-0.391,1.024-0.391,1.414,0l4.952,4.951
				c0.391,0.391,1.024,0.391,1.414,0l2.674-2.675C63.598,57.143,63.598,56.51,63.207,56.12z"/>
		</g>
	</g>
	<g>
		<g>
			<g>
				<g>
					<path class="st0" d="M63.561,55.767l-4.951-4.952c-0.195-0.195-0.195-0.512,0-0.707l1.717-1.717
						c0.437-0.438,0.562-1.063,0.325-1.635c-0.237-0.571-0.768-0.926-1.386-0.926h-8.937c-0.827,0-1.5,0.673-1.5,1.5v8.937
						c0,0.618,0.355,1.149,0.926,1.386c0.57,0.236,1.197,0.113,1.635-0.325l1.718-1.717c0.188-0.188,0.517-0.19,0.707,0l4.951,4.951
						c0.283,0.283,0.66,0.439,1.061,0.439c0.4,0,0.777-0.156,1.061-0.439l2.674-2.674C63.844,57.604,64,57.227,64,56.826
						C64,56.425,63.844,56.049,63.561,55.767z M62.854,57.181l-2.674,2.674c-0.189,0.189-0.518,0.189-0.707,0l-4.952-4.951
						c-0.283-0.283-0.66-0.439-1.061-0.439c-0.401,0-0.778,0.156-1.061,0.439l-1.717,1.717c-0.22,0.22-0.474,0.137-0.545,0.108
						c-0.072-0.03-0.309-0.152-0.309-0.462V47.33c0-0.275,0.224-0.5,0.5-0.5h8.937c0.31,0,0.432,0.236,0.462,0.309
						c0.03,0.072,0.111,0.326-0.108,0.545L57.902,49.4c-0.585,0.585-0.585,1.536,0,2.121l4.952,4.952
						C62.948,56.568,63,56.693,63,56.826C63,56.96,62.948,57.086,62.854,57.181z"/>
				</g>
			</g>
		</g>
	</g>
	<g>
		<g>
			<path class="st2" d="M50.001,23.501h-1v17.5c0,1.381-1.119,2.5-2.5,2.5h-11.5c-2.761,0-5,2.239-5,5v4c0-2.761,2.239-5,5-5h12.328
				v-0.172c0-1.654,1.346-3,3-3h2.172V26.001C52.501,24.62,51.381,23.501,50.001,23.501z"/>
		</g>
	</g>
	<g>
		<g>
			<path class="st0" d="M50,23.001h-1c-0.276,0-0.5,0.224-0.5,0.5v17.5c0,1.103-0.897,2-2,2H35c-3.033,0-5.5,2.468-5.5,5.5v4
				c0,0.276,0.224,0.5,0.5,0.5s0.5-0.224,0.5-0.5c0-2.481,2.019-4.5,4.5-4.5h12.328c0.276,0,0.5-0.224,0.5-0.5s-0.224-0.5-0.5-0.5
				H35c-1.858,0-3.504,0.926-4.5,2.341v-0.841c0-2.481,2.019-4.5,4.5-4.5h11.5c1.654,0,3-1.346,3-3v-17H50c1.103,0,2,0.897,2,2
				v18.328c0,0.276,0.224,0.5,0.5,0.5s0.5-0.224,0.5-0.5V26.001C53,24.347,51.655,23.001,50,23.001z"/>
		</g>
	</g>
</g>
</svg>
