<?xml version="1.0" encoding="utf-8"?>
<!-- Generator: Adobe Illustrator 21.1.0, SVG Export Plug-In . SVG Version: 6.00 Build 0)  -->
<svg version="1.1" id="Icon_Set" xmlns="http://www.w3.org/2000/svg" xmlns:xlink="http://www.w3.org/1999/xlink" x="0px" y="0px"
	 viewBox="0 0 64 64" style="enable-background:new 0 0 64 64;" xml:space="preserve">
<style type="text/css">
	.st0{fill:#37474F;}
	.st1{fill:#EF5350;}
	.st2{fill:#FFCA28;}
	.st3{fill:#64B5F6;}
	.st4{fill:#FFFFFF;}
	.st5{fill:#FF7043;}
</style>
<g id="Ebook">
	<g>
		<g>
			<path class="st0" d="M49,3.5H27c-0.276,0-0.5,0.224-0.5,0.5s0.224,0.5,0.5,0.5h22c2.481,0,4.5,2.019,4.5,4.5v46
				c0,2.481-2.019,4.5-4.5,4.5H15c-2.481,0-4.5-2.019-4.5-4.5V9c0-2.481,2.019-4.5,4.5-4.5h3c0.276,0,0.5-0.224,0.5-0.5
				S18.276,3.5,18,3.5h-3c-3.032,0-5.5,2.467-5.5,5.5v46c0,3.033,2.468,5.5,5.5,5.5h34c3.032,0,5.5-2.467,5.5-5.5V9
				C54.5,5.967,52.032,3.5,49,3.5z"/>
		</g>
	</g>
	<g>
		<g>
			<path class="st0" d="M24,3.5h-3c-0.276,0-0.5,0.224-0.5,0.5s0.224,0.5,0.5,0.5h3c0.276,0,0.5-0.224,0.5-0.5S24.276,3.5,24,3.5z"
				/>
		</g>
	</g>
	<g>
		<g>
			<path class="st3" d="M47,10h2c0.552,0,1,0.448,1,1v40c0,0.552-0.448,1-1,1H15c-0.552,0-1-0.448-1-1V11c0-0.552,0.448-1,1-1h20"/>
		</g>
	</g>
	<g>
		<g>
			<path class="st0" d="M49,9.5h-2c-0.276,0-0.5,0.224-0.5,0.5s0.224,0.5,0.5,0.5h2c0.275,0,0.5,0.224,0.5,0.5v40
				c0,0.276-0.225,0.5-0.5,0.5H15c-0.275,0-0.5-0.224-0.5-0.5V11c0-0.276,0.225-0.5,0.5-0.5h20c0.276,0,0.5-0.224,0.5-0.5
				S35.276,9.5,35,9.5H15c-0.827,0-1.5,0.673-1.5,1.5v40c0,0.827,0.673,1.5,1.5,1.5h34c0.827,0,1.5-0.673,1.5-1.5V11
				C50.5,10.173,49.827,9.5,49,9.5z"/>
		</g>
	</g>
	<g>
		<g>
			<g>
				<g>
					<g>
						<path class="st0" d="M33.5,54h-3c-1.103,0-2,0.897-2,2s0.897,2,2,2h3c1.103,0,2-0.897,2-2S34.603,54,33.5,54z M33.5,57h-3
							c-0.552,0-1-0.449-1-1s0.448-1,1-1h3c0.552,0,1,0.449,1,1S34.052,57,33.5,57z"/>
					</g>
				</g>
			</g>
		</g>
	</g>
	<g>
		<g>
			<path class="st0" d="M41,20.5H23c-0.276,0-0.5,0.224-0.5,0.5s0.224,0.5,0.5,0.5h18c0.276,0,0.5-0.224,0.5-0.5
				S41.276,20.5,41,20.5z"/>
		</g>
	</g>
	<g>
		<g>
			<path class="st0" d="M44,28H20c-0.276,0-0.5,0.224-0.5,0.5S19.724,29,20,29h24c0.276,0,0.5-0.224,0.5-0.5S44.276,28,44,28z"/>
		</g>
	</g>
	<g>
		<g>
			<path class="st0" d="M44,33H20c-0.276,0-0.5,0.224-0.5,0.5S19.724,34,20,34h24c0.276,0,0.5-0.224,0.5-0.5S44.276,33,44,33z"/>
		</g>
	</g>
	<g>
		<g>
			<path class="st0" d="M44,38H20c-0.276,0-0.5,0.224-0.5,0.5S19.724,39,20,39h24c0.276,0,0.5-0.224,0.5-0.5S44.276,38,44,38z"/>
		</g>
	</g>
	<g>
		<g>
			<path class="st0" d="M38,43H20c-0.276,0-0.5,0.224-0.5,0.5S19.724,44,20,44h18c0.276,0,0.5-0.224,0.5-0.5S38.276,43,38,43z"/>
		</g>
	</g>
	<g>
		<g>
			<polygon class="st2" points="37,4 37,17 41,14 45,17 45,4 			"/>
		</g>
	</g>
	<g>
		<g>
			<g>
				<g>
					<path class="st0" d="M45,3.5h-8c-0.276,0-0.5,0.224-0.5,0.5v13c0,0.189,0.107,0.362,0.276,0.447
						c0.168,0.084,0.372,0.067,0.523-0.047l3.7-2.775l3.7,2.775c0.088,0.066,0.193,0.1,0.3,0.1c0.076,0,0.153-0.018,0.224-0.053
						C45.393,17.362,45.5,17.189,45.5,17V4C45.5,3.724,45.276,3.5,45,3.5z M44.5,16l-3.2-2.4c-0.089-0.067-0.194-0.1-0.3-0.1
						s-0.211,0.033-0.3,0.1L37.5,16V4.5h7V16z"/>
				</g>
			</g>
		</g>
	</g>
</g>
</svg>
