<?xml version="1.0" encoding="utf-8"?>
<!-- Generator: Adobe Illustrator 21.1.0, SVG Export Plug-In . SVG Version: 6.00 Build 0)  -->
<svg version="1.1" id="Icon_Set" xmlns="http://www.w3.org/2000/svg" xmlns:xlink="http://www.w3.org/1999/xlink" x="0px" y="0px"
	 viewBox="0 0 64 64" style="enable-background:new 0 0 64 64;" xml:space="preserve">
<style type="text/css">
	.st0{fill:#37474F;}
	.st1{fill:#EF5350;}
	.st2{fill:#FFCA28;}
	.st3{fill:#64B5F6;}
	.st4{fill:#FFFFFF;}
	.st5{fill:#FF7043;}
</style>
<g id="Education_Apps">
	<g>
		<g>
			<path class="st2" d="M44.5,16.5H22v8c0,2.481-2.019,4.5-4.5,4.5H17v15c0,1.381,1.119,2.5,2.5,2.5H42v-8
				c0-2.481,2.019-4.5,4.5-4.5H47V19C47,17.619,45.881,16.5,44.5,16.5z"/>
		</g>
	</g>
	<g>
		<g>
			<path class="st0" d="M36,1.5c-0.276,0-0.5,0.224-0.5,0.5v1.5c0,0.271-0.294,0.5-0.643,0.5h-5.715C28.794,4,28.5,3.771,28.5,3.5V2
				c0-0.276-0.224-0.5-0.5-0.5S27.5,1.724,27.5,2v1.5c0,0.827,0.737,1.5,1.643,1.5h5.715C35.763,5,36.5,4.327,36.5,3.5V2
				C36.5,1.724,36.276,1.5,36,1.5z"/>
		</g>
	</g>
	<g>
		<g>
			<g>
				<g>
					<g>
						<path class="st0" d="M33.5,56h-3c-0.827,0-1.5,0.673-1.5,1.5v1c0,0.827,0.673,1.5,1.5,1.5h3c0.827,0,1.5-0.673,1.5-1.5v-1
							C35,56.673,34.327,56,33.5,56z M34,58.5c0,0.276-0.225,0.5-0.5,0.5h-3c-0.275,0-0.5-0.224-0.5-0.5v-1
							c0-0.276,0.225-0.5,0.5-0.5h3c0.275,0,0.5,0.224,0.5,0.5V58.5z"/>
					</g>
				</g>
			</g>
		</g>
	</g>
	<g>
		<g>
			<polygon class="st4" points="32,24.878 20,28.878 32,32.878 44,28.878 			"/>
		</g>
	</g>
	<g>
		<g>
			<g>
				<g>
					<path class="st0" d="M44.158,28.404l-12-4c-0.104-0.034-0.213-0.034-0.316,0l-12,4c-0.204,0.068-0.342,0.259-0.342,0.474
						s0.138,0.406,0.342,0.474l12,4c0.052,0.017,0.104,0.026,0.158,0.026s0.106-0.009,0.158-0.026l12-4
						c0.204-0.068,0.342-0.259,0.342-0.474S44.362,28.472,44.158,28.404z M32,32.352l-10.419-3.473L32,25.405l10.419,3.473
						L32,32.352z"/>
				</g>
			</g>
		</g>
	</g>
	<g>
		<g>
			<path class="st4" d="M32,32.878l-7-2.333v6.333c4.187,2.991,9.813,2.991,14,0v-6.333L32,32.878z"/>
		</g>
	</g>
	<g>
		<g>
			<g>
				<g>
					<path class="st0" d="M39.292,30.139c-0.13-0.094-0.298-0.121-0.45-0.068L32,32.352l-6.842-2.281
						c-0.154-0.052-0.32-0.026-0.45,0.068c-0.131,0.094-0.208,0.245-0.208,0.406v6.333c0,0.162,0.078,0.313,0.209,0.407
						c2.181,1.557,4.736,2.336,7.291,2.336s5.11-0.779,7.291-2.336c0.131-0.094,0.209-0.245,0.209-0.407v-6.333
						C39.5,30.384,39.423,30.233,39.292,30.139z M38.5,36.618c-3.92,2.672-9.08,2.672-13,0v-5.379l6.342,2.114
						c0.104,0.034,0.213,0.034,0.316,0l6.342-2.114V36.618z"/>
				</g>
			</g>
		</g>
	</g>
	<g>
		<g>
			<path class="st0" d="M42.5,28.878c-0.276,0-0.5,0.224-0.5,0.5v4.256c0,0.276,0.224,0.5,0.5,0.5s0.5-0.224,0.5-0.5v-4.256
				C43,29.102,42.776,28.878,42.5,28.878z"/>
		</g>
	</g>
	<g>
		<g>
			<path class="st3" d="M17.5,9h-13C3.119,9,2,10.119,2,11.5v13C2,25.881,3.119,27,4.5,27h13c1.381,0,2.5-1.119,2.5-2.5v-13
				C20,10.119,18.881,9,17.5,9z"/>
		</g>
	</g>
	<g>
		<g>
			<g>
				<g>
					<path class="st0" d="M17.5,8.5h-13c-1.654,0-3,1.346-3,3v13c0,1.654,1.346,3,3,3h13c1.654,0,3-1.346,3-3v-13
						C20.5,9.846,19.154,8.5,17.5,8.5z M19.5,24.5c0,1.103-0.897,2-2,2h-13c-1.103,0-2-0.897-2-2v-13c0-1.103,0.897-2,2-2h13
						c1.103,0,2,0.897,2,2V24.5z"/>
				</g>
			</g>
		</g>
	</g>
	<g>
		<g>
			<path class="st0" d="M46.5,1.5h-29C14.468,1.5,12,3.967,12,7c0,0.276,0.224,0.5,0.5,0.5S13,7.276,13,7c0-2.481,2.019-4.5,4.5-4.5
				h29C48.981,2.5,51,4.519,51,7v2c0,0.276,0.224,0.5,0.5,0.5S52,9.276,52,9V7C52,3.967,49.532,1.5,46.5,1.5z"/>
		</g>
	</g>
	<g>
		<g>
			<path class="st0" d="M51.5,55.5c-0.276,0-0.5,0.224-0.5,0.5v1c0,2.481-2.019,4.5-4.5,4.5h-29c-2.481,0-4.5-2.019-4.5-4.5v-3
				c0-0.276-0.224-0.5-0.5-0.5S12,53.724,12,54v3c0,3.033,2.468,5.5,5.5,5.5h29c3.032,0,5.5-2.467,5.5-5.5v-1
				C52,55.724,51.776,55.5,51.5,55.5z"/>
		</g>
	</g>
	<g>
		<g>
			<path class="st0" d="M44.5,16H22c-0.276,0-0.5,0.224-0.5,0.5S21.724,17,22,17h22.5c1.103,0,2,0.897,2,2v15
				c0,0.276,0.224,0.5,0.5,0.5s0.5-0.224,0.5-0.5V19C47.5,17.346,46.154,16,44.5,16z"/>
		</g>
	</g>
	<g>
		<g>
			<path class="st0" d="M42,46H19.5c-1.103,0-2-0.897-2-2v-5c0-0.276-0.224-0.5-0.5-0.5s-0.5,0.224-0.5,0.5v5c0,1.654,1.346,3,3,3
				H42c0.276,0,0.5-0.224,0.5-0.5S42.276,46,42,46z"/>
		</g>
	</g>
	<g>
		<g>
			<path class="st0" d="M17,32.5c-0.276,0-0.5,0.224-0.5,0.5v3c0,0.276,0.224,0.5,0.5,0.5s0.5-0.224,0.5-0.5v-3
				C17.5,32.724,17.276,32.5,17,32.5z"/>
		</g>
	</g>
	<g>
		<g>
			<path class="st0" d="M17,28.5c-0.276,0-0.5,0.224-0.5,0.5v1c0,0.276,0.224,0.5,0.5,0.5s0.5-0.224,0.5-0.5v-1
				C17.5,28.724,17.276,28.5,17,28.5z"/>
		</g>
	</g>
	<g>
		<g>
			<polygon class="st4" points="11,15 5.5,13 5.5,21 11,23 16.5,21 16.5,13 			"/>
		</g>
	</g>
	<g>
		<g>
			<g>
				<g>
					<path class="st0" d="M16.787,12.59c-0.135-0.093-0.305-0.117-0.458-0.06L11,14.468L5.671,12.53
						c-0.152-0.057-0.322-0.033-0.458,0.06C5.079,12.684,5,12.837,5,13v8c0,0.21,0.132,0.398,0.329,0.47l5.5,2
						c0.056,0.02,0.113,0.03,0.171,0.03s0.115-0.01,0.171-0.03l5.5-2C16.868,21.398,17,21.21,17,21v-8
						C17,12.837,16.921,12.684,16.787,12.59z M16,20.65l-5,1.818L6,20.65v-6.936l4.829,1.756c0.111,0.04,0.23,0.04,0.342,0
						L16,13.714V20.65z"/>
				</g>
			</g>
		</g>
	</g>
	<g>
		<g>
			<g>
				<path class="st0" d="M11,14.5c-0.276,0-0.5,0.224-0.5,0.5v8c0,0.276,0.224,0.5,0.5,0.5s0.5-0.224,0.5-0.5v-8
					C11.5,14.724,11.276,14.5,11,14.5z"/>
			</g>
		</g>
	</g>
	<g>
		<g>
			<path class="st1" d="M59.5,36h-13c-1.381,0-2.5,1.119-2.5,2.5v13c0,1.381,1.119,2.5,2.5,2.5h13c1.381,0,2.5-1.119,2.5-2.5v-13
				C62,37.119,60.881,36,59.5,36z"/>
		</g>
	</g>
	<g>
		<g>
			<g>
				<g>
					<path class="st0" d="M59.5,35.5h-13c-1.654,0-3,1.346-3,3v13c0,1.654,1.346,3,3,3h13c1.654,0,3-1.346,3-3v-13
						C62.5,36.846,61.154,35.5,59.5,35.5z M61.5,51.5c0,1.103-0.897,2-2,2h-13c-1.103,0-2-0.897-2-2v-13c0-1.103,0.897-2,2-2h13
						c1.103,0,2,0.897,2,2V51.5z"/>
				</g>
			</g>
		</g>
	</g>
	<g>
		<g>
			<path class="st0" d="M51.5,8.5H21.238c-0.276,0-0.5,0.224-0.5,0.5s0.224,0.5,0.5,0.5H51V34c0,0.276,0.224,0.5,0.5,0.5
				S52,34.276,52,34V9C52,8.724,51.776,8.5,51.5,8.5z"/>
		</g>
	</g>
	<g>
		<g>
			<path class="st0" d="M42.762,53.5H13V29c0-0.276-0.224-0.5-0.5-0.5S12,28.724,12,29v25c0,0.276,0.224,0.5,0.5,0.5h30.262
				c0.276,0,0.5-0.224,0.5-0.5S43.038,53.5,42.762,53.5z"/>
		</g>
	</g>
	<g>
		<g>
			<polygon class="st4" points="54.414,40.05 49.818,44.646 48.05,49.95 53.354,48.182 57.95,43.586 			"/>
		</g>
	</g>
	<g>
		<g>
			<g>
				<g>
					<path class="st0" d="M58.304,43.232l-3.536-3.536c-0.195-0.195-0.512-0.195-0.707,0l-4.596,4.596
						c-0.055,0.055-0.097,0.122-0.121,0.195l-1.769,5.303c-0.06,0.18-0.013,0.378,0.121,0.512c0.096,0.095,0.223,0.146,0.354,0.146
						c0.053,0,0.106-0.008,0.158-0.026l5.304-1.768c0.073-0.024,0.141-0.065,0.195-0.121l4.597-4.596
						c0.094-0.094,0.146-0.221,0.146-0.354S58.397,43.326,58.304,43.232z M53.083,47.745l-4.242,1.414l1.414-4.243l4.159-4.159
						l2.829,2.829L53.083,47.745z"/>
				</g>
			</g>
		</g>
	</g>
	<g>
		<g>
			<g>
				<g>
					<g>
						<path class="st0" d="M52.116,48.359l-2.475-2.475c-0.122-0.122-0.3-0.172-0.469-0.133c-0.168,0.04-0.305,0.164-0.359,0.329
							l-1.238,3.712c-0.06,0.18-0.013,0.378,0.121,0.512c0.096,0.095,0.223,0.146,0.354,0.146c0.053,0,0.106-0.008,0.158-0.026
							l3.713-1.237c0.164-0.055,0.289-0.19,0.328-0.359C52.289,48.659,52.239,48.481,52.116,48.359z M48.841,49.159l0.666-1.996
							l1.33,1.331L48.841,49.159z"/>
					</g>
				</g>
			</g>
		</g>
	</g>
</g>
</svg>
