<?xml version="1.0" encoding="utf-8"?>
<!-- Generator: Adobe Illustrator 21.1.0, SVG Export Plug-In . SVG Version: 6.00 Build 0)  -->
<svg version="1.1" id="Icon_Set" xmlns="http://www.w3.org/2000/svg" xmlns:xlink="http://www.w3.org/1999/xlink" x="0px" y="0px"
	 viewBox="0 0 64 64" style="enable-background:new 0 0 64 64;" xml:space="preserve">
<style type="text/css">
	.st0{fill:#37474F;}
	.st1{fill:#EF5350;}
	.st2{fill:#FFCA28;}
	.st3{fill:#64B5F6;}
	.st4{fill:#FFFFFF;}
	.st5{fill:#FF7043;}
</style>
<g id="Educational_Marketing">
	<g>
		<g>
			<path class="st0" d="M56,21.499c-0.276,0-0.5,0.224-0.5,0.5s0.224,0.5,0.5,0.5c2.206,0,4,1.794,4,4v2h-6.5
				c-0.276,0-0.5,0.224-0.5,0.5s0.224,0.5,0.5,0.5h7c0.276,0,0.5-0.224,0.5-0.5v-2.5C61,23.742,58.757,21.499,56,21.499z"/>
		</g>
	</g>
	<g>
		<g>
			<path class="st3" d="M42.5,53.999v-2.5h-26v2.5c0,2.485,2.015,4.5,4.5,4.5h26C44.515,58.499,42.5,56.484,42.5,53.999z"/>
		</g>
	</g>
	<g>
		<g>
			<g>
				<g>
					<path class="st0" d="M47,57.999c-2.206,0-4-1.794-4-4v-2.5c0-0.276-0.224-0.5-0.5-0.5h-26c-0.276,0-0.5,0.224-0.5,0.5v2.5
						c0,2.757,2.243,5,5,5h26c0.276,0,0.5-0.224,0.5-0.5S47.276,57.999,47,57.999z M21,57.999c-2.206,0-4-1.794-4-4v-2h25v2
						c0,1.634,0.788,3.087,2.003,4H21z"/>
				</g>
			</g>
		</g>
	</g>
	<g>
		<g>
			<path class="st0" d="M46.25,42.999h-16c-0.276,0-0.5,0.224-0.5,0.5s0.224,0.5,0.5,0.5h16c0.276,0,0.5-0.224,0.5-0.5
				S46.526,42.999,46.25,42.999z"/>
		</g>
	</g>
	<g>
		<g>
			<path class="st0" d="M46.25,46.999h-16c-0.276,0-0.5,0.224-0.5,0.5s0.224,0.5,0.5,0.5h16c0.276,0,0.5-0.224,0.5-0.5
				S46.526,46.999,46.25,46.999z"/>
		</g>
	</g>
	<g>
		<g>
			<path class="st0" d="M46.25,38.999h-16c-0.276,0-0.5,0.224-0.5,0.5s0.224,0.5,0.5,0.5h16c0.276,0,0.5-0.224,0.5-0.5
				S46.526,38.999,46.25,38.999z"/>
		</g>
	</g>
	<g>
		<g>
			<path class="st0" d="M46.25,34.999h-16c-0.276,0-0.5,0.224-0.5,0.5s0.224,0.5,0.5,0.5h16c0.276,0,0.5-0.224,0.5-0.5
				S46.526,34.999,46.25,34.999z"/>
		</g>
	</g>
	<g>
		<g>
			<circle class="st2" cx="32.5" cy="18.576" r="3"/>
		</g>
	</g>
	<g>
		<g>
			<g>
				<g>
					<path class="st0" d="M32.5,15.076c-1.93,0-3.5,1.57-3.5,3.5s1.57,3.5,3.5,3.5s3.5-1.57,3.5-3.5S34.43,15.076,32.5,15.076z
						 M32.5,21.076c-1.378,0-2.5-1.121-2.5-2.5s1.122-2.5,2.5-2.5c1.379,0,2.5,1.121,2.5,2.5S33.879,21.076,32.5,21.076z"/>
				</g>
			</g>
		</g>
	</g>
	<g>
		<g>
			<path class="st0" d="M44.768,18.076h-6c-0.276,0-0.5,0.224-0.5,0.5s0.224,0.5,0.5,0.5h6c0.276,0,0.5-0.224,0.5-0.5
				S45.044,18.076,44.768,18.076z"/>
		</g>
	</g>
	<g>
		<g>
			<path class="st0" d="M40.854,27.723l-3-3c-0.195-0.195-0.512-0.195-0.707,0s-0.195,0.512,0,0.707l3,3
				c0.098,0.098,0.226,0.146,0.354,0.146s0.256-0.049,0.354-0.146C41.049,28.234,41.049,27.918,40.854,27.723z"/>
		</g>
	</g>
	<g>
		<g>
			<path class="st0" d="M40.854,8.723c-0.195-0.195-0.512-0.195-0.707,0l-3,3c-0.195,0.195-0.195,0.512,0,0.707
				c0.098,0.098,0.226,0.146,0.354,0.146s0.256-0.049,0.354-0.146l3-3C41.049,9.234,41.049,8.918,40.854,8.723z"/>
		</g>
	</g>
	<g>
		<g>
			<path class="st2" d="M13,11.576h1.5L31.16,5.56C31.812,5.324,32.5,5.807,32.5,6.5v24.151c0,0.693-0.688,1.176-1.34,0.941
				L14.5,25.576H3c-1.381,0-2.5-1.119-2.5-2.5v-9c0-1.381,1.119-2.5,2.5-2.5h1"/>
		</g>
	</g>
	<g>
		<g>
			<path class="st0" d="M32.362,5.272c-0.4-0.28-0.913-0.349-1.372-0.184l-16.578,5.987H13c-0.276,0-0.5,0.224-0.5,0.5
				s0.224,0.5,0.5,0.5h1.5c0.058,0,0.115-0.01,0.17-0.029L31.33,6.03c0.155-0.058,0.323-0.034,0.458,0.061S32,6.335,32,6.5v24.151
				c0,0.165-0.078,0.314-0.212,0.409c-0.135,0.096-0.302,0.117-0.458,0.061l-16.66-6.016c-0.055-0.02-0.112-0.029-0.17-0.029H3
				c-1.103,0-2-0.897-2-2v-9c0-1.103,0.897-2,2-2h1c0.276,0,0.5-0.224,0.5-0.5s-0.224-0.5-0.5-0.5H3c-1.654,0-3,1.346-3,3v9
				c0,1.654,1.346,3,3,3h11.412l16.578,5.986c0.166,0.06,0.338,0.089,0.509,0.089c0.305,0,0.607-0.093,0.863-0.272
				C32.762,31.599,33,31.14,33,30.651V6.5C33,6.012,32.762,5.553,32.362,5.272z"/>
		</g>
	</g>
	<g>
		<g>
			<g>
				<path class="st0" d="M10,11.076H7c-0.276,0-0.5,0.224-0.5,0.5s0.224,0.5,0.5,0.5h3c0.276,0,0.5-0.224,0.5-0.5
					S10.277,11.076,10,11.076z"/>
			</g>
		</g>
	</g>
	<g>
		<g>
			<path class="st0" d="M25.5,31.152c-0.276,0-0.5,0.224-0.5,0.5v17.847c0,0.276,0.224,0.5,0.5,0.5s0.5-0.224,0.5-0.5V31.652
				C26,31.376,25.777,31.152,25.5,31.152z"/>
		</g>
	</g>
	<g>
		<g>
			<path class="st0" d="M56,21.524H36.119c-0.276,0-0.5,0.224-0.5,0.5s0.224,0.5,0.5,0.5h16.884c-1.215,0.913-2.003,2.366-2.003,4
				v27c0,2.389-1.878,4.354-4.275,4.476c-0.275,0.014-0.488,0.248-0.474,0.524c0.013,0.267,0.234,0.475,0.499,0.475
				c0.008,0,0.017,0,0.025-0.001C49.705,58.852,52,56.446,52,53.524v-27c0-2.206,1.794-4,4-4c0.276,0,0.5-0.224,0.5-0.5
				S56.276,21.524,56,21.524z"/>
		</g>
	</g>
	<g>
		<g>
			<path class="st0" d="M29.5,5.659c-0.276,0-0.5,0.224-0.5,0.5v24.833c0,0.276,0.224,0.5,0.5,0.5s0.5-0.224,0.5-0.5V6.159
				C30,5.883,29.776,5.659,29.5,5.659z"/>
		</g>
	</g>
	<g>
		<g>
			<g>
				<line class="st5" x1="14.5" y1="11.576" x2="14.5" y2="25.576"/>
			</g>
		</g>
		<g>
			<g>
				<path class="st0" d="M14.5,11.076c-0.276,0-0.5,0.224-0.5,0.5v14c0,0.276,0.224,0.5,0.5,0.5s0.5-0.224,0.5-0.5v-14
					C15,11.3,14.776,11.076,14.5,11.076z"/>
			</g>
		</g>
	</g>
	<g>
		<g>
			<path class="st2" d="M4.5,25.576v9c0,0.552,0.448,1,1,1h2c0.552,0,1-0.448,1-1v-9H4.5z"/>
		</g>
	</g>
	<g>
		<g>
			<g>
				<g>
					<path class="st0" d="M8.5,25.076h-4c-0.276,0-0.5,0.224-0.5,0.5v9c0,0.827,0.673,1.5,1.5,1.5h2c0.827,0,1.5-0.673,1.5-1.5v-9
						C9,25.3,8.776,25.076,8.5,25.076z M8,34.576c0,0.275-0.224,0.5-0.5,0.5h-2c-0.276,0-0.5-0.225-0.5-0.5v-8.5h3V34.576z"/>
				</g>
			</g>
		</g>
	</g>
	<g>
		<g>
			<polyline class="st1" points="13,11.576 14.5,11.576 14.5,25.576 8.5,25.576 8.5,11.576 10,11.576 			"/>
		</g>
	</g>
	<g>
		<g>
			<path class="st0" d="M14.5,11.076H13c-0.276,0-0.5,0.224-0.5,0.5s0.224,0.5,0.5,0.5h1v13H9v-13h1c0.276,0,0.5-0.224,0.5-0.5
				s-0.224-0.5-0.5-0.5H8.5c-0.276,0-0.5,0.224-0.5,0.5v14c0,0.276,0.224,0.5,0.5,0.5h6c0.276,0,0.5-0.224,0.5-0.5v-14
				C15,11.3,14.776,11.076,14.5,11.076z"/>
		</g>
	</g>
	<g>
		<g>
			<path class="st2" d="M11.689,28.333L11,25.576H8.5v4h2.219C11.37,29.576,11.847,28.964,11.689,28.333z"/>
		</g>
	</g>
	<g>
		<g>
			<g>
				<g>
					<path class="st0" d="M12.174,28.212l-0.689-2.757c-0.056-0.223-0.255-0.379-0.485-0.379H8.5c-0.276,0-0.5,0.224-0.5,0.5v4
						c0,0.276,0.224,0.5,0.5,0.5h2.219c0.465,0,0.896-0.21,1.182-0.577C12.187,29.133,12.287,28.663,12.174,28.212z M11.113,28.884
						c-0.096,0.122-0.239,0.192-0.394,0.192H9v-3h1.61l0.594,2.378C11.242,28.604,11.209,28.762,11.113,28.884z"/>
				</g>
			</g>
		</g>
	</g>
	<g>
		<g>
			<path class="st0" d="M58.5,45.999c-0.276,0-0.5,0.224-0.5,0.5v4c0,0.276,0.224,0.5,0.5,0.5s0.5-0.224,0.5-0.5v-4
				C59,46.223,58.776,45.999,58.5,45.999z"/>
		</g>
	</g>
	<g>
		<g>
			<path class="st0" d="M60.5,47.999h-4c-0.276,0-0.5,0.224-0.5,0.5s0.224,0.5,0.5,0.5h4c0.276,0,0.5-0.224,0.5-0.5
				S60.776,47.999,60.5,47.999z"/>
		</g>
	</g>
	<g>
		<g>
			<path class="st0" d="M61.5,35.999c-0.276,0-0.5,0.224-0.5,0.5v4c0,0.276,0.224,0.5,0.5,0.5s0.5-0.224,0.5-0.5v-4
				C62,36.223,61.776,35.999,61.5,35.999z"/>
		</g>
	</g>
	<g>
		<g>
			<path class="st0" d="M63.5,37.999h-4c-0.276,0-0.5,0.224-0.5,0.5s0.224,0.5,0.5,0.5h4c0.276,0,0.5-0.224,0.5-0.5
				S63.776,37.999,63.5,37.999z"/>
		</g>
	</g>
</g>
</svg>
