<?xml version="1.0" encoding="utf-8"?>
<!-- Generator: Adobe Illustrator 21.1.0, SVG Export Plug-In . SVG Version: 6.00 Build 0)  -->
<svg version="1.1" id="Icon_Set" xmlns="http://www.w3.org/2000/svg" xmlns:xlink="http://www.w3.org/1999/xlink" x="0px" y="0px"
	 viewBox="0 0 64 64" style="enable-background:new 0 0 64 64;" xml:space="preserve">
<style type="text/css">
	.st0{fill:#37474F;}
	.st1{fill:#EF5350;}
	.st2{fill:#FFCA28;}
	.st3{fill:#64B5F6;}
	.st4{fill:#FFFFFF;}
	.st5{fill:#FF7043;}
</style>
<g id="Education_Forum">
	<g>
		<g>
			<path class="st3" d="M53.224,24l-3.804,3.169c-0.554,0.462-1.229,0.7-1.913,0.7c-0.432,0-0.868-0.095-1.28-0.287
				c-1.065-0.499-1.728-1.54-1.728-2.717V24H44c-2.31,0-4.197-1.756-4.449-4H24.449c-0.252,2.244-2.139,4-4.449,4h-0.5v0.865
				c0,1.177-0.662,2.218-1.728,2.717c-0.412,0.192-0.848,0.287-1.28,0.287c-0.685,0-1.359-0.238-1.914-0.7L10.776,24H9.5v27h45V24
				H53.224z"/>
		</g>
	</g>
	<g>
		<g>
			<path class="st0" d="M54.5,23.5c-0.276,0-0.5,0.224-0.5,0.5v26.5H10V24c0-0.276-0.224-0.5-0.5-0.5S9,23.724,9,24v27
				c0,0.276,0.224,0.5,0.5,0.5h45c0.276,0,0.5-0.224,0.5-0.5V24C55,23.724,54.776,23.5,54.5,23.5z"/>
		</g>
	</g>
	<g>
		<g>
			<g>
				<g>
					<g>
						<path class="st0" d="M62.5,53.5h-61C0.673,53.5,0,54.173,0,55v2c0,0.827,0.673,1.5,1.5,1.5h61c0.827,0,1.5-0.673,1.5-1.5v-2
							C64,54.173,63.327,53.5,62.5,53.5z M63,57c0,0.275-0.224,0.5-0.5,0.5h-61C1.224,57.5,1,57.275,1,57v-2
							c0-0.275,0.224-0.5,0.5-0.5h61c0.276,0,0.5,0.225,0.5,0.5V57z"/>
					</g>
				</g>
			</g>
		</g>
	</g>
	<g>
		<g>
			<g>
				<g>
					<g>
						<path class="st0" d="M36.5,53.5h-9c-0.276,0-0.5,0.224-0.5,0.5v4c0,0.276,0.224,0.5,0.5,0.5h9c0.276,0,0.5-0.224,0.5-0.5v-4
							C37,53.724,36.776,53.5,36.5,53.5z M36,57.5h-8v-3h8V57.5z"/>
					</g>
				</g>
			</g>
		</g>
	</g>
	<g>
		<g>
			<rect x="18" y="43.5" class="st4" width="28" height="3"/>
		</g>
	</g>
	<g>
		<g>
			<g>
				<g>
					<path class="st0" d="M46,43H18c-0.276,0-0.5,0.224-0.5,0.5v3c0,0.276,0.224,0.5,0.5,0.5h28c0.276,0,0.5-0.224,0.5-0.5v-3
						C46.5,43.224,46.277,43,46,43z M45.5,46h-27v-2h27V46z"/>
				</g>
			</g>
		</g>
	</g>
	<g>
		<g>
			<polygon class="st4" points="32,24.5 18,32.5 46,32.5 			"/>
		</g>
	</g>
	<g>
		<g>
			<g>
				<g>
					<path class="st0" d="M46.249,32.065l-14-8c-0.153-0.088-0.343-0.088-0.496,0l-14,8c-0.197,0.113-0.293,0.344-0.235,0.562
						C17.575,32.848,17.774,33,18,33h28c0.227,0,0.425-0.152,0.483-0.372C46.542,32.409,46.445,32.179,46.249,32.065z M19.883,32
						L32,25.076L44.118,32H19.883z"/>
				</g>
			</g>
		</g>
	</g>
	<g>
		<g>
			<rect x="21" y="32.5" class="st4" width="4" height="11"/>
		</g>
	</g>
	<g>
		<g>
			<g>
				<g>
					<path class="st0" d="M25,32h-4c-0.276,0-0.5,0.224-0.5,0.5v11c0,0.276,0.224,0.5,0.5,0.5h4c0.276,0,0.5-0.224,0.5-0.5v-11
						C25.5,32.224,25.277,32,25,32z M24.5,43h-3V33h3V43z"/>
				</g>
			</g>
		</g>
	</g>
	<g>
		<g>
			<rect x="39" y="32.5" class="st4" width="4" height="11"/>
		</g>
	</g>
	<g>
		<g>
			<g>
				<g>
					<path class="st0" d="M43,32h-4c-0.276,0-0.5,0.224-0.5,0.5v11c0,0.276,0.224,0.5,0.5,0.5h4c0.276,0,0.5-0.224,0.5-0.5v-11
						C43.5,32.224,43.277,32,43,32z M42.5,43h-3V33h3V43z"/>
				</g>
			</g>
		</g>
	</g>
	<g>
		<g>
			<rect x="30" y="32.5" class="st4" width="4" height="11"/>
		</g>
	</g>
	<g>
		<g>
			<g>
				<g>
					<path class="st0" d="M34,32h-4c-0.276,0-0.5,0.224-0.5,0.5v11c0,0.276,0.224,0.5,0.5,0.5h4c0.276,0,0.5-0.224,0.5-0.5v-11
						C34.5,32.224,34.276,32,34,32z M33.5,43h-3V33h3V43z"/>
				</g>
			</g>
		</g>
	</g>
	<g>
		<g>
			<path class="st0" d="M39.5,16.5h-15c-0.276,0-0.5,0.224-0.5,0.5s0.224,0.5,0.5,0.5h15c0.276,0,0.5-0.224,0.5-0.5
				S39.776,16.5,39.5,16.5z"/>
		</g>
	</g>
	<g>
		<g>
			<path class="st0" d="M57.5,23.5c-0.276,0-0.5,0.224-0.5,0.5v29c0,0.275-0.224,0.5-0.5,0.5h-49C7.224,53.5,7,53.275,7,53V24
				c0-0.276-0.224-0.5-0.5-0.5S6,23.724,6,24v29c0,0.827,0.673,1.5,1.5,1.5h49c0.827,0,1.5-0.673,1.5-1.5V24
				C58,23.724,57.776,23.5,57.5,23.5z"/>
		</g>
	</g>
	<g>
		<g>
			<path class="st1" d="M61,6H44c-1.381,0-2.5,1.119-2.5,2.5v11c0,1.381,1.119,2.5,2.5,2.5h2.5v2.865
				c0,0.848,0.989,1.311,1.64,0.768L52.5,22H61c1.381,0,2.5-1.119,2.5-2.5v-11C63.5,7.119,62.381,6,61,6z"/>
		</g>
	</g>
	<g>
		<g>
			<g>
				<g>
					<path class="st0" d="M61,5.5H44c-1.654,0-3,1.346-3,3v11c0,1.654,1.346,3,3,3h2v2.365c0,0.588,0.331,1.108,0.864,1.358
						c0.206,0.096,0.424,0.144,0.64,0.144c0.342,0,0.68-0.119,0.957-0.351l4.221-3.517H61c1.654,0,3-1.346,3-3v-11
						C64,6.846,62.654,5.5,61,5.5z M63,19.5c0,1.103-0.897,2-2,2h-8.5c-0.117,0-0.23,0.041-0.32,0.116l-4.36,3.633
						c-0.227,0.189-0.464,0.101-0.532,0.068C47.22,25.286,47,25.16,47,24.865V22c0-0.276-0.224-0.5-0.5-0.5H44c-1.103,0-2-0.897-2-2
						v-11c0-1.103,0.897-2,2-2h17c1.103,0,2,0.897,2,2V19.5z"/>
				</g>
			</g>
		</g>
	</g>
	<g>
		<g>
			<path class="st0" d="M58.5,11h-12c-0.276,0-0.5,0.224-0.5,0.5s0.224,0.5,0.5,0.5h12c0.276,0,0.5-0.224,0.5-0.5S58.776,11,58.5,11
				z"/>
		</g>
	</g>
	<g>
		<g>
			<path class="st0" d="M52.5,15h-6c-0.276,0-0.5,0.224-0.5,0.5s0.224,0.5,0.5,0.5h6c0.276,0,0.5-0.224,0.5-0.5S52.776,15,52.5,15z"
				/>
		</g>
	</g>
	<g>
		<g>
			<path class="st2" d="M12,6h8c1.381,0,2.5,1.119,2.5,2.5v11c0,1.381-1.119,2.5-2.5,2.5h-2.5v2.865c0,0.848-0.989,1.311-1.64,0.768
				L11.5,22H3c-1.381,0-2.5-1.119-2.5-2.5v-11C0.5,7.119,1.619,6,3,6"/>
		</g>
	</g>
	<g>
		<g>
			<path class="st0" d="M20,5.5h-8c-0.276,0-0.5,0.224-0.5,0.5s0.224,0.5,0.5,0.5h8c1.103,0,2,0.897,2,2v11c0,1.103-0.897,2-2,2
				h-2.5c-0.276,0-0.5,0.224-0.5,0.5v2.865c0,0.295-0.22,0.421-0.288,0.452c-0.067,0.032-0.305,0.121-0.533-0.068l-4.359-3.633
				c-0.09-0.075-0.203-0.116-0.32-0.116H3c-1.103,0-2-0.897-2-2v-11c0-1.103,0.897-2,2-2c0.276,0,0.5-0.224,0.5-0.5S3.276,5.5,3,5.5
				c-1.654,0-3,1.346-3,3v11c0,1.654,1.346,3,3,3h8.319l4.221,3.517c0.277,0.231,0.615,0.351,0.957,0.351
				c0.216,0,0.434-0.048,0.64-0.144C17.669,25.974,18,25.453,18,24.865V22.5h2c1.654,0,3-1.346,3-3v-11C23,6.846,21.654,5.5,20,5.5z
				"/>
		</g>
	</g>
	<g>
		<g>
			<g>
				<path class="st0" d="M9,5.5H6C5.724,5.5,5.5,5.724,5.5,6S5.724,6.5,6,6.5h3c0.276,0,0.5-0.224,0.5-0.5S9.276,5.5,9,5.5z"/>
			</g>
		</g>
	</g>
	<g>
		<g>
			<path class="st0" d="M17.5,11h-12C5.224,11,5,11.224,5,11.5S5.224,12,5.5,12h12c0.276,0,0.5-0.224,0.5-0.5S17.776,11,17.5,11z"/>
		</g>
	</g>
	<g>
		<g>
			<path class="st0" d="M11.5,15h-6C5.224,15,5,15.224,5,15.5S5.224,16,5.5,16h6c0.276,0,0.5-0.224,0.5-0.5S11.776,15,11.5,15z"/>
		</g>
	</g>
</g>
</svg>
