<?xml version="1.0" encoding="utf-8"?>
<!-- Generator: Adobe Illustrator 21.1.0, SVG Export Plug-In . SVG Version: 6.00 Build 0)  -->
<svg version="1.1" id="Icon_Set" xmlns="http://www.w3.org/2000/svg" xmlns:xlink="http://www.w3.org/1999/xlink" x="0px" y="0px"
	 viewBox="0 0 64 64" style="enable-background:new 0 0 64 64;" xml:space="preserve">
<style type="text/css">
	.st0{fill:#37474F;}
	.st1{fill:#EF5350;}
	.st2{fill:#FFCA28;}
	.st3{fill:#64B5F6;}
	.st4{fill:#FFFFFF;}
	.st5{fill:#FF7043;}
</style>
<g id="Favorite_Lessons">
	<g>
		<g>
			<path class="st2" d="M40.968,15c1.995,0,3.871,0.777,5.281,2.188l0.584,0.583V4.5c0-1.381-1.119-2.5-2.5-2.5h-33.5
				c-2.761,0-5,2.239-5,5v44.5c0-2.761,2.239-5,5-5h36V37c-1.223,0-2.371-0.477-3.236-1.341l-7.909-7.91
				c-1.411-1.411-2.188-3.286-2.188-5.281c0-1.995,0.776-3.871,2.188-5.281C37.097,15.777,38.972,15,40.968,15z"/>
		</g>
	</g>
	<g>
		<g>
			<path class="st0" d="M10.833,1.5c-3.032,0-5.5,2.467-5.5,5.5v44.5c0,0.276,0.224,0.5,0.5,0.5s0.5-0.224,0.5-0.5V7
				c0-2.481,2.019-4.5,4.5-4.5c0.276,0,0.5-0.224,0.5-0.5S11.109,1.5,10.833,1.5z"/>
		</g>
	</g>
	<g>
		<g>
			<path class="st0" d="M16.833,1.5h-3c-0.276,0-0.5,0.224-0.5,0.5s0.224,0.5,0.5,0.5h3c0.276,0,0.5-0.224,0.5-0.5
				S17.109,1.5,16.833,1.5z"/>
		</g>
	</g>
	<g>
		<g>
			<path class="st0" d="M41.833,51h-31c-0.276,0-0.5,0.224-0.5,0.5s0.224,0.5,0.5,0.5h31c0.276,0,0.5-0.224,0.5-0.5
				S42.109,51,41.833,51z"/>
		</g>
	</g>
	<g>
		<g>
			<g>
				<path class="st0" d="M38.288,36h-12c-0.276,0-0.5,0.224-0.5,0.5s0.224,0.5,0.5,0.5h12c0.276,0,0.5-0.224,0.5-0.5
					S38.564,36,38.288,36z"/>
			</g>
		</g>
	</g>
	<g>
		<g>
			<g>
				<path class="st0" d="M32.288,39h-6c-0.276,0-0.5,0.224-0.5,0.5s0.224,0.5,0.5,0.5h6c0.276,0,0.5-0.224,0.5-0.5
					S32.564,39,32.288,39z"/>
			</g>
		</g>
	</g>
	<g>
		<g>
			<rect x="13.333" y="9" class="st3" width="9" height="30.5"/>
		</g>
	</g>
	<g>
		<g>
			<g>
				<g>
					<path class="st0" d="M22.333,8.5h-9c-0.276,0-0.5,0.224-0.5,0.5v30.5c0,0.276,0.224,0.5,0.5,0.5h9c0.276,0,0.5-0.224,0.5-0.5V9
						C22.833,8.724,22.609,8.5,22.333,8.5z M21.833,39h-8V9.5h8V39z"/>
				</g>
			</g>
		</g>
	</g>
	<g>
		<g>
			<path class="st1" d="M56.565,18.602c-2.135-2.135-5.598-2.135-7.733,0L46.833,20.6l-1.998-1.999
				c-2.136-2.135-5.598-2.135-7.733,0c-2.136,2.136-2.136,5.598,0,7.734l7.91,7.911c1.006,1.006,2.637,1.006,3.643,0l7.91-7.911
				C58.7,24.2,58.7,20.737,56.565,18.602z"/>
		</g>
	</g>
	<g>
		<g>
			<g>
				<g>
					<path class="st0" d="M56.918,18.248c-2.327-2.328-6.115-2.326-8.44,0l-1.645,1.645l-1.646-1.645
						c-1.127-1.127-2.626-1.748-4.22-1.748c-1.595,0-3.094,0.621-4.221,1.748c-2.326,2.327-2.326,6.114,0,8.44l7.911,7.911
						c0.6,0.6,1.387,0.899,2.175,0.899s1.575-0.3,2.175-0.899l7.91-7.911c1.127-1.127,1.748-2.626,1.748-4.22
						S58.045,19.375,56.918,18.248z M56.211,25.981l-7.91,7.911c-0.809,0.81-2.127,0.81-2.936,0l-7.911-7.911
						c-1.937-1.937-1.937-5.089,0-7.026c0.938-0.938,2.187-1.455,3.514-1.455s2.574,0.517,3.513,1.455l1.999,1.999
						c0.188,0.188,0.52,0.188,0.707,0l1.998-1.999c1.937-1.936,5.088-1.938,7.026,0c0.938,0.938,1.455,2.186,1.455,3.513
						S57.149,25.043,56.211,25.981z"/>
				</g>
			</g>
		</g>
	</g>
	<g>
		<g>
			<path class="st0" d="M44.333,1.5h-24.5c-0.276,0-0.5,0.224-0.5,0.5s0.224,0.5,0.5,0.5h24.5c1.103,0,2,0.897,2,2v13.271
				c0,0.276,0.224,0.5,0.5,0.5s0.5-0.224,0.5-0.5V4.5C47.333,2.846,45.987,1.5,44.333,1.5z"/>
		</g>
	</g>
	<g>
		<g>
			<g>
				<g>
					<g>
						<path class="st0" d="M46.833,46h-36c-1.546,0-3.029,0.656-4.07,1.801c-1.056,1.161-1.554,2.666-1.404,4.238
							C5.624,54.821,8.123,57,11.048,57h33.285c1.654,0,3-1.346,3-3v-7.5C47.333,46.224,47.109,46,46.833,46z M46.333,54
							c0,1.103-0.897,2-2,2H11.048c-2.415,0-4.477-1.782-4.693-4.056c-0.123-1.289,0.285-2.521,1.148-3.47
							C8.354,47.537,9.568,47,10.833,47h35.5V54z"/>
					</g>
				</g>
			</g>
		</g>
	</g>
	<g>
		<g>
			<path class="st0" d="M46.833,36.5c-0.276,0-0.5,0.224-0.5,0.5v9.5c0,0.276,0.224,0.5,0.5,0.5s0.5-0.224,0.5-0.5V37
				C47.333,36.724,47.109,36.5,46.833,36.5z"/>
		</g>
	</g>
	<g>
		<g>
			<polyline class="st2" points="15.833,53.5 15.833,62 13.333,60 10.833,62 10.833,53.5 			"/>
		</g>
	</g>
	<g>
		<g>
			<path class="st0" d="M15.833,53c-0.276,0-0.5,0.224-0.5,0.5v7.459l-1.688-1.35c-0.184-0.146-0.441-0.146-0.625,0l-1.688,1.35
				V53.5c0-0.276-0.224-0.5-0.5-0.5s-0.5,0.224-0.5,0.5V62c0,0.192,0.11,0.367,0.283,0.451c0.174,0.083,0.378,0.059,0.529-0.06
				l2.188-1.75l2.188,1.75c0.091,0.072,0.201,0.109,0.312,0.109c0.073,0,0.147-0.016,0.217-0.049
				c0.173-0.083,0.283-0.258,0.283-0.451v-8.5C16.333,53.224,16.109,53,15.833,53z"/>
		</g>
	</g>
</g>
</svg>
