<?xml version="1.0" encoding="utf-8"?>
<!-- Generator: Adobe Illustrator 21.1.0, SVG Export Plug-In . SVG Version: 6.00 Build 0)  -->
<svg version="1.1" id="Icon_Set" xmlns="http://www.w3.org/2000/svg" xmlns:xlink="http://www.w3.org/1999/xlink" x="0px" y="0px"
	 viewBox="0 0 64 64" style="enable-background:new 0 0 64 64;" xml:space="preserve">
<style type="text/css">
	.st0{fill:#37474F;}
	.st1{fill:#EF5350;}
	.st2{fill:#FFCA28;}
	.st3{fill:#64B5F6;}
	.st4{fill:#FFFFFF;}
	.st5{fill:#FF7043;}
</style>
<g id="First_Place">
	<g>
		<g>
			<g>
				<path class="st3" d="M43,36.501h15c0.552,0,1,0.448,1,1v17.5H43"/>
			</g>
		</g>
	</g>
	<g>
		<g>
			<g>
				<path class="st3" d="M21.011,29.001h-15c-0.552,0-1,0.448-1,1v25h16"/>
			</g>
		</g>
	</g>
	<g>
		<g>
			<g>
				<path class="st2" d="M23,55.001v-35c0-0.552,0.448-1,1-1h16c0.552,0,1,0.448,1,1v35"/>
			</g>
		</g>
	</g>
	<g>
		<g>
			<path class="st0" d="M40,18.501H24c-0.827,0-1.5,0.673-1.5,1.5v2c0,0.276,0.224,0.5,0.5,0.5s0.5-0.224,0.5-0.5v-2
				c0-0.275,0.224-0.5,0.5-0.5h16c0.275,0,0.5,0.225,0.5,0.5v35c0,0.276,0.224,0.5,0.5,0.5s0.5-0.224,0.5-0.5v-35
				C41.5,19.174,40.827,18.501,40,18.501z"/>
		</g>
	</g>
	<g>
		<g>
			<path class="st0" d="M23,24.501c-0.276,0-0.5,0.224-0.5,0.5v3c0,0.276,0.224,0.5,0.5,0.5s0.5-0.224,0.5-0.5v-3
				C23.5,24.725,23.276,24.501,23,24.501z"/>
		</g>
	</g>
	<g>
		<g>
			<path class="st0" d="M23,30.501c-0.276,0-0.5,0.224-0.5,0.5v24c0,0.276,0.224,0.5,0.5,0.5s0.5-0.224,0.5-0.5v-24
				C23.5,30.725,23.276,30.501,23,30.501z"/>
		</g>
	</g>
	<g>
		<g>
			<path class="st0" d="M21.011,28.501h-15c-0.827,0-1.5,0.673-1.5,1.5v25c0,0.276,0.224,0.5,0.5,0.5s0.5-0.224,0.5-0.5v-25
				c0-0.275,0.224-0.5,0.5-0.5h15c0.276,0,0.5-0.224,0.5-0.5S21.288,28.501,21.011,28.501z"/>
		</g>
	</g>
	<g>
		<g>
			<path class="st0" d="M58,36.001H43c-0.276,0-0.5,0.224-0.5,0.5s0.224,0.5,0.5,0.5h15c0.275,0,0.5,0.225,0.5,0.5v17.5
				c0,0.276,0.224,0.5,0.5,0.5s0.5-0.224,0.5-0.5v-17.5C59.5,36.674,58.827,36.001,58,36.001z"/>
		</g>
	</g>
	<g>
		<g>
			<polygon class="st2" points="36.5,9.001 32,3.001 27.5,9.001 23,5.001 23,16.001 41,16.001 41,5.001 			"/>
		</g>
	</g>
	<g>
		<g>
			<g>
				<g>
					<path class="st0" d="M41.205,4.545c-0.182-0.08-0.391-0.049-0.537,0.082l-4.094,3.64L32.4,2.701
						c-0.188-0.252-0.611-0.252-0.8,0l-4.174,5.565l-4.094-3.64c-0.147-0.131-0.358-0.162-0.537-0.082
						C22.616,4.626,22.5,4.804,22.5,5.001v11c0,0.276,0.224,0.5,0.5,0.5h18c0.276,0,0.5-0.224,0.5-0.5v-11
						C41.5,4.804,41.385,4.626,41.205,4.545z M40.5,15.501h-17V6.114l3.668,3.261c0.104,0.092,0.241,0.138,0.382,0.123
						c0.139-0.014,0.266-0.085,0.35-0.197L32,3.834l4.1,5.467c0.084,0.112,0.211,0.184,0.351,0.197
						c0.139,0.015,0.277-0.031,0.382-0.123L40.5,6.114V15.501z"/>
				</g>
			</g>
		</g>
	</g>
	<g>
		<g>
			<circle class="st4" cx="32" cy="28.001" r="6"/>
		</g>
	</g>
	<g>
		<g>
			<g>
				<g>
					<path class="st0" d="M32,21.501c-3.584,0-6.5,2.916-6.5,6.5s2.916,6.5,6.5,6.5s6.5-2.916,6.5-6.5S35.584,21.501,32,21.501z
						 M32,33.501c-3.033,0-5.5-2.468-5.5-5.5s2.467-5.5,5.5-5.5c3.032,0,5.5,2.468,5.5,5.5S35.032,33.501,32,33.501z"/>
				</g>
			</g>
		</g>
	</g>
	<g>
		<g>
			<path class="st0" d="M32.498,25.061c-0.162-0.088-0.36-0.078-0.513,0.024l-1.5,1c-0.23,0.153-0.292,0.464-0.139,0.693
				c0.153,0.229,0.462,0.29,0.693,0.139l0.723-0.481v4.065c0,0.276,0.224,0.5,0.5,0.5s0.5-0.224,0.5-0.5v-5
				C32.762,25.316,32.66,25.147,32.498,25.061z"/>
		</g>
	</g>
	<g>
		<g>
			<path class="st0" d="M33.762,30.001h-3c-0.276,0-0.5,0.224-0.5,0.5s0.224,0.5,0.5,0.5h3c0.276,0,0.5-0.224,0.5-0.5
				S34.038,30.001,33.762,30.001z"/>
		</g>
	</g>
	<g>
		<g>
			<g>
				<g>
					<g>
						<path class="st0" d="M62.5,56.501h-61c-0.827,0-1.5,0.673-1.5,1.5v2c0,0.827,0.673,1.5,1.5,1.5h61c0.827,0,1.5-0.673,1.5-1.5
							v-2C64,57.174,63.327,56.501,62.5,56.501z M63,60.001c0,0.275-0.225,0.5-0.5,0.5h-61c-0.276,0-0.5-0.225-0.5-0.5v-2
							c0-0.275,0.224-0.5,0.5-0.5h61c0.275,0,0.5,0.225,0.5,0.5V60.001z"/>
					</g>
				</g>
			</g>
		</g>
	</g>
	<g>
		<g>
			<g>
				<g>
					<g>
						<path class="st0" d="M53.658,13.526l-1.244-0.415c-0.481-0.16-0.864-0.543-1.024-1.025l-0.415-1.243
							c-0.137-0.408-0.812-0.408-0.949,0l-0.415,1.243c-0.16,0.482-0.543,0.865-1.024,1.025l-1.244,0.415
							C47.138,13.595,47,13.786,47,14.001c0,0.216,0.138,0.406,0.342,0.475l1.243,0.413c0.482,0.162,0.865,0.545,1.025,1.026
							l0.415,1.244c0.068,0.204,0.26,0.342,0.475,0.342s0.406-0.138,0.475-0.342l0.415-1.244c0.16-0.481,0.543-0.864,1.024-1.025
							l1.244-0.414C53.862,14.407,54,14.217,54,14.001C54,13.786,53.862,13.595,53.658,13.526z M50.5,15.438
							c-0.266-0.649-0.787-1.171-1.437-1.438c0.649-0.267,1.171-0.788,1.437-1.438c0.266,0.65,0.787,1.172,1.437,1.438
							C51.287,14.268,50.766,14.789,50.5,15.438z"/>
					</g>
				</g>
			</g>
		</g>
	</g>
	<g>
		<g>
			<g>
				<g>
					<g>
						<path class="st0" d="M16.658,13.526l-1.244-0.415c-0.481-0.16-0.864-0.543-1.025-1.025l-0.415-1.243
							c-0.136-0.408-0.812-0.408-0.948,0l-0.415,1.243c-0.161,0.482-0.544,0.865-1.026,1.025l-1.244,0.415
							C10.138,13.595,10,13.786,10,14.001c0,0.216,0.138,0.406,0.342,0.475l1.243,0.414c0.482,0.16,0.865,0.544,1.026,1.025
							l0.415,1.244c0.068,0.204,0.259,0.342,0.474,0.342s0.406-0.138,0.474-0.342l0.415-1.244c0.161-0.481,0.544-0.865,1.025-1.025
							l1.244-0.414C16.862,14.407,17,14.217,17,14.001C17,13.786,16.862,13.595,16.658,13.526z M13.5,15.438
							c-0.266-0.648-0.788-1.171-1.437-1.437c0.649-0.266,1.171-0.787,1.437-1.438c0.266,0.65,0.788,1.172,1.437,1.438
							C14.288,14.267,13.766,14.788,13.5,15.438z"/>
					</g>
				</g>
			</g>
		</g>
	</g>
	<g>
		<g>
			<g>
				<g>
					<g>
						<path class="st0" d="M41,12.501H23c-0.276,0-0.5,0.224-0.5,0.5v3c0,0.276,0.224,0.5,0.5,0.5h18c0.276,0,0.5-0.224,0.5-0.5v-3
							C41.5,12.725,41.276,12.501,41,12.501z M40.5,15.501h-17v-2h17V15.501z"/>
					</g>
				</g>
			</g>
		</g>
	</g>
	<g>
		<g>
			<path class="st0" d="M56,39.001h-3c-0.276,0-0.5,0.224-0.5,0.5s0.224,0.5,0.5,0.5h2.5v2.5c0,0.276,0.224,0.5,0.5,0.5
				s0.5-0.224,0.5-0.5v-3C56.5,39.225,56.276,39.001,56,39.001z"/>
		</g>
	</g>
	<g>
		<g>
			<path class="st1" d="M32,34.001c-1.539,0-2.938-0.584-4-1.537v8.537l4-3l4,3v-8.537C34.938,33.417,33.539,34.001,32,34.001z"/>
		</g>
	</g>
	<g>
		<g>
			<g>
				<g>
					<path class="st0" d="M36.204,32.008c-0.181-0.081-0.392-0.049-0.538,0.084C34.652,33,33.35,33.501,32,33.501
						c-1.351,0-2.652-0.501-3.666-1.409c-0.147-0.132-0.358-0.163-0.538-0.085c-0.18,0.081-0.296,0.26-0.296,0.457v8.537
						c0,0.189,0.107,0.362,0.276,0.447c0.17,0.084,0.374,0.065,0.523-0.047l3.7-2.775l3.7,2.775c0.088,0.065,0.193,0.1,0.3,0.1
						c0.076,0,0.153-0.018,0.224-0.053c0.169-0.085,0.276-0.258,0.276-0.447v-8.537C36.5,32.267,36.384,32.088,36.204,32.008z
						 M35.5,40.001l-3.2-2.4c-0.089-0.066-0.194-0.1-0.3-0.1s-0.211,0.033-0.3,0.1l-3.2,2.4v-6.529c2.082,1.338,4.916,1.338,7,0
						V40.001z"/>
				</g>
			</g>
		</g>
	</g>
</g>
</svg>
