<?xml version="1.0" encoding="utf-8"?>
<!-- Generator: Adobe Illustrator 21.1.0, SVG Export Plug-In . SVG Version: 6.00 Build 0)  -->
<svg version="1.1" id="Icon_Set" xmlns="http://www.w3.org/2000/svg" xmlns:xlink="http://www.w3.org/1999/xlink" x="0px" y="0px"
	 viewBox="0 0 64 64" style="enable-background:new 0 0 64 64;" xml:space="preserve">
<style type="text/css">
	.st0{fill:#37474F;}
	.st1{fill:#EF5350;}
	.st2{fill:#FFCA28;}
	.st3{fill:#64B5F6;}
	.st4{fill:#FFFFFF;}
	.st5{fill:#FF7043;}
</style>
<g id="Geography">
	<g>
		<g>
			<path class="st3" d="M40.556,8.444c-8.592-8.592-22.521-8.592-31.113,0c-8.592,8.592-8.592,22.521,0,31.113
				c5.91,5.91,14.346,7.754,21.833,5.533c1.279-6.951,7.04-12.328,14.182-13.011C48.575,24.174,46.946,14.834,40.556,8.444z"/>
		</g>
	</g>
	<g>
		<g>
			<path class="st0" d="M31.757,44.947c-0.078-0.265-0.354-0.418-0.622-0.337c-7.575,2.248-15.755,0.177-21.338-5.407
				C2.923,32.328,1.516,21.656,6.374,13.25c0.139-0.239,0.057-0.545-0.183-0.683c-0.235-0.136-0.544-0.057-0.683,0.183
				C0.424,21.547,1.896,32.716,9.09,39.91c4.284,4.284,10.025,6.592,15.91,6.592c2.142,0,4.304-0.306,6.42-0.934
				C31.685,45.49,31.835,45.212,31.757,44.947z"/>
		</g>
	</g>
	<g>
		<g>
			<path class="st0" d="M11.419,6.682c-0.177-0.214-0.491-0.244-0.704-0.068C10.152,7.078,9.605,7.575,9.09,8.09
				C8.586,8.594,8.099,9.129,7.643,9.681c-0.177,0.213-0.146,0.528,0.066,0.704C7.802,10.462,7.915,10.5,8.027,10.5
				c0.144,0,0.286-0.062,0.385-0.181c0.438-0.528,0.903-1.04,1.385-1.521c0.493-0.493,1.016-0.968,1.555-1.412
				C11.564,7.21,11.595,6.895,11.419,6.682z"/>
		</g>
	</g>
	<g>
		<g>
			<path class="st0" d="M40.91,8.09c-6.996-6.998-17.584-8.617-26.34-4.033c-0.245,0.128-0.34,0.43-0.212,0.675
				c0.129,0.244,0.433,0.34,0.675,0.211c8.37-4.379,18.484-2.832,25.17,3.854c6.055,6.055,7.936,15.122,4.791,23.097
				c-0.102,0.257,0.024,0.547,0.281,0.649c0.061,0.023,0.122,0.035,0.184,0.035c0.199,0,0.388-0.12,0.465-0.316
				C49.215,23.915,47.247,14.427,40.91,8.09z"/>
		</g>
	</g>
	<g>
		<g>
			<path class="st0" d="M47.079,24.72c-4.523-1.285-9.607-4.512-13.947-8.852s-7.566-9.423-8.853-13.947
				c-0.075-0.265-0.349-0.423-0.617-0.344c-0.266,0.076-0.42,0.352-0.344,0.618c1.33,4.683,4.649,9.924,9.106,14.381
				c4.457,4.457,9.698,7.776,14.381,9.106c0.046,0.013,0.092,0.019,0.137,0.019c0.218,0,0.419-0.144,0.481-0.363
				C47.499,25.072,47.345,24.795,47.079,24.72z"/>
		</g>
	</g>
	<g>
		<g>
			<path class="st0" d="M26.682,45.806c-1.33-4.683-4.649-9.925-9.106-14.381c-4.457-4.457-9.698-7.776-14.381-9.106
				c-0.269-0.08-0.543,0.079-0.618,0.344c-0.075,0.266,0.079,0.542,0.345,0.618c4.523,1.285,9.607,4.512,13.947,8.852
				s7.566,9.424,8.853,13.948c0.062,0.22,0.263,0.363,0.48,0.363c0.045,0,0.091-0.006,0.137-0.019
				C26.604,46.348,26.758,46.072,26.682,45.806z"/>
		</g>
	</g>
	<g>
		<g>
			<g>
				<g>
					<g>
						<path class="st0" d="M40.91,8.09c-2.7-2.7-6.904-3.546-11.835-2.387c-4.846,1.141-9.839,4.093-14.059,8.313
							C6.244,22.789,3.585,34.405,9.09,39.91c1.942,1.942,4.645,2.868,7.715,2.868c5.633,0,12.502-3.117,18.179-8.794
							C43.757,25.211,46.415,13.595,40.91,8.09z M34.276,33.277c-8.383,8.382-19.363,11.042-24.479,5.926
							c-5.115-5.116-2.456-16.097,5.927-24.479c4.09-4.09,8.913-6.948,13.581-8.046c1.364-0.321,2.666-0.48,3.885-0.48
							c2.876,0,5.296,0.883,7.014,2.6C45.318,13.913,42.659,24.894,34.276,33.277z"/>
					</g>
				</g>
			</g>
		</g>
	</g>
	<g>
		<g>
			<path class="st0" d="M40.91,8.09c-0.195-0.195-0.512-0.195-0.707,0L9.09,39.203c-0.195,0.195-0.195,0.512,0,0.707
				c0.098,0.098,0.226,0.146,0.354,0.146s0.256-0.049,0.354-0.146L40.91,8.797C41.105,8.602,41.105,8.286,40.91,8.09z"/>
		</g>
	</g>
	<g>
		<g>
			<path class="st0" d="M45.354,3.646c-0.195-0.195-0.512-0.195-0.707,0l-40,40c-0.195,0.195-0.195,0.512,0,0.707
				C4.744,44.451,4.872,44.5,5,44.5s0.256-0.049,0.354-0.146l40-40C45.549,4.158,45.549,3.842,45.354,3.646z"/>
		</g>
	</g>
	<g>
		<g>
			<path class="st0" d="M37.091,35.384L9.797,8.09c-0.195-0.195-0.512-0.195-0.707,0s-0.195,0.512,0,0.707l27.294,27.293
				c0.098,0.098,0.226,0.146,0.354,0.146s0.256-0.049,0.354-0.146C37.286,35.896,37.286,35.579,37.091,35.384z"/>
		</g>
	</g>
	<g>
		<g>
			<circle class="st2" cx="47" cy="48" r="14"/>
		</g>
	</g>
	<g>
		<g>
			<g>
				<g>
					<path class="st0" d="M47,33.5c-7.995,0-14.5,6.505-14.5,14.5S39.005,62.5,47,62.5S61.5,55.995,61.5,48S54.995,33.5,47,33.5z
						 M47,61.5c-7.444,0-13.5-6.056-13.5-13.5S39.556,34.5,47,34.5S60.5,40.556,60.5,48S54.444,61.5,47,61.5z"/>
				</g>
			</g>
		</g>
	</g>
	<g>
		<g>
			<path class="st0" d="M44.445,4.555c-0.195-0.195-0.512-0.195-0.707,0L5.555,42.738c-0.195,0.195-0.195,0.512,0,0.707
				c5.237,5.238,12.179,8.062,19.378,8.062c2.11,0,4.244-0.243,6.363-0.739c0.269-0.063,0.436-0.332,0.373-0.601
				c-0.063-0.268-0.322-0.434-0.602-0.373c-8.839,2.07-17.943-0.435-24.449-6.707l37.471-37.47
				c6.834,7.09,9.167,17.257,6.083,26.659c-0.086,0.262,0.058,0.545,0.319,0.631c0.26,0.085,0.545-0.057,0.632-0.319
				C54.376,22.668,51.817,11.926,44.445,4.555z"/>
		</g>
	</g>
	<g>
		<g>
			<circle class="st4" cx="47" cy="48" r="9"/>
		</g>
	</g>
	<g>
		<g>
			<g>
				<g>
					<path class="st0" d="M47,38.5c-5.238,0-9.5,4.262-9.5,9.5s4.262,9.5,9.5,9.5s9.5-4.262,9.5-9.5S52.238,38.5,47,38.5z M47,56.5
						c-4.687,0-8.5-3.813-8.5-8.5s3.813-8.5,8.5-8.5s8.5,3.813,8.5,8.5S51.687,56.5,47,56.5z"/>
				</g>
			</g>
		</g>
	</g>
	<g>
		<g>
			<polygon class="st1" points="45.586,46.586 48.414,49.414 51.95,43.05 			"/>
		</g>
	</g>
	<g>
		<g>
			<g>
				<g>
					<path class="st0" d="M52.304,42.697c-0.157-0.158-0.401-0.191-0.597-0.083l-6.364,3.536c-0.137,0.076-0.23,0.212-0.252,0.368
						s0.03,0.312,0.142,0.423l2.828,2.828c0.095,0.094,0.222,0.146,0.354,0.146c0.023,0,0.046-0.001,0.069-0.005
						c0.155-0.021,0.292-0.115,0.368-0.252l3.536-6.364C52.496,43.098,52.462,42.854,52.304,42.697z M48.299,48.592l-1.891-1.891
						l4.255-2.364L48.299,48.592z"/>
				</g>
			</g>
		</g>
	</g>
	<g>
		<g>
			<g>
				<g>
					<g>
						<path class="st0" d="M48.768,49.061l-2.828-2.828c-0.111-0.111-0.269-0.165-0.423-0.142c-0.155,0.021-0.292,0.115-0.368,0.252
							l-3.536,6.364c-0.108,0.195-0.074,0.438,0.084,0.596c0.096,0.096,0.225,0.146,0.354,0.146c0.083,0,0.167-0.021,0.243-0.063
							l6.364-3.536c0.137-0.076,0.23-0.212,0.252-0.368S48.879,49.171,48.768,49.061z M43.337,51.663l2.364-4.254l1.891,1.891
							L43.337,51.663z"/>
					</g>
				</g>
			</g>
		</g>
	</g>
	<g>
		<g>
			<path class="st0" d="M25,50.5c-0.276,0-0.5,0.224-0.5,0.5v8c0,0.276,0.224,0.5,0.5,0.5s0.5-0.224,0.5-0.5v-8
				C25.5,50.724,25.276,50.5,25,50.5z"/>
		</g>
	</g>
	<g>
		<g>
			<g>
				<g>
					<g>
						<path class="st0" d="M34.5,58.5h-19c-1.103,0-2,0.897-2,2s0.897,2,2,2h19c1.103,0,2-0.897,2-2S35.603,58.5,34.5,58.5z
							 M34.5,61.5h-19c-0.552,0-1-0.449-1-1s0.448-1,1-1h19c0.552,0,1,0.449,1,1S35.052,61.5,34.5,61.5z"/>
					</g>
				</g>
			</g>
		</g>
	</g>
</g>
</svg>
