<?xml version="1.0" encoding="utf-8"?>
<!-- Generator: Adobe Illustrator 21.1.0, SVG Export Plug-In . SVG Version: 6.00 Build 0)  -->
<svg version="1.1" id="Icon_Set" xmlns="http://www.w3.org/2000/svg" xmlns:xlink="http://www.w3.org/1999/xlink" x="0px" y="0px"
	 viewBox="0 0 64 64" style="enable-background:new 0 0 64 64;" xml:space="preserve">
<style type="text/css">
	.st0{fill:#37474F;}
	.st1{fill:#EF5350;}
	.st2{fill:#FFCA28;}
	.st3{fill:#64B5F6;}
	.st4{fill:#FFFFFF;}
	.st5{fill:#FF7043;}
</style>
<g id="Geometry">
	<g>
		<g>
			<circle class="st2" cx="32" cy="24.5" r="8"/>
		</g>
	</g>
	<g>
		<g>
			<g>
				<g>
					<path class="st0" d="M32,16c-4.687,0-8.5,3.813-8.5,8.5S27.313,33,32,33s8.5-3.813,8.5-8.5S36.687,16,32,16z M32,32
						c-4.136,0-7.5-3.364-7.5-7.5S27.864,17,32,17s7.5,3.364,7.5,7.5S36.136,32,32,32z"/>
				</g>
			</g>
		</g>
	</g>
	<g>
		<g>
			<g>
				<g>
					<g>
						<path class="st0" d="M32,20c-2.481,0-4.5,2.019-4.5,4.5S29.519,29,32,29s4.5-2.019,4.5-4.5S34.481,20,32,20z M32,28
							c-1.93,0-3.5-1.57-3.5-3.5S30.07,21,32,21s3.5,1.57,3.5,3.5S33.93,28,32,28z"/>
					</g>
				</g>
			</g>
		</g>
	</g>
	<g>
		<g>
			<path class="st3" d="M34.5,0.5h-5c-0.552,0-1,0.448-1,1v8c0,0.552,0.448,1,1,1h5c0.552,0,1-0.448,1-1v-8
				C35.5,0.948,35.052,0.5,34.5,0.5z"/>
		</g>
	</g>
	<g>
		<g>
			<g>
				<g>
					<path class="st0" d="M34.5,0h-5C28.673,0,28,0.673,28,1.5v8c0,0.827,0.673,1.5,1.5,1.5h5c0.827,0,1.5-0.673,1.5-1.5v-8
						C36,0.673,35.327,0,34.5,0z M35,9.5c0,0.276-0.225,0.5-0.5,0.5h-5C29.225,10,29,9.776,29,9.5v-8C29,1.224,29.225,1,29.5,1h5
						C34.775,1,35,1.224,35,1.5V9.5z"/>
				</g>
			</g>
		</g>
	</g>
	<g>
		<g>
			<path class="st0" d="M33.5,10h-3c-0.276,0-0.5,0.224-0.5,0.5v4.125c0,0.276,0.224,0.5,0.5,0.5s0.5-0.224,0.5-0.5V11h2v3.625
				c0,0.276,0.224,0.5,0.5,0.5s0.5-0.224,0.5-0.5V10.5C34,10.224,33.776,10,33.5,10z"/>
		</g>
	</g>
	<g>
		<g>
			<path class="st3" d="M24.552,31.156L14.786,58.5h7l8.621-24.139C28.092,33.99,26.047,32.828,24.552,31.156z"/>
		</g>
	</g>
	<g>
		<g>
			<path class="st3" d="M39.448,31.156c-1.495,1.672-3.54,2.834-5.855,3.206L42.214,58.5h7L39.448,31.156z"/>
		</g>
	</g>
	<g>
		<g>
			<path class="st0" d="M30.575,33.891c-0.259-0.094-0.545,0.043-0.639,0.303L21.434,58h-5.938l9.526-26.677
				c0.093-0.26-0.043-0.546-0.303-0.639c-0.262-0.093-0.545,0.042-0.639,0.303l-9.766,27.345c-0.055,0.153-0.031,0.323,0.062,0.456
				C14.471,58.921,14.624,59,14.786,59h7c0.211,0,0.399-0.133,0.471-0.332l8.621-24.139C30.971,34.27,30.836,33.983,30.575,33.891z"
				/>
		</g>
	</g>
	<g>
		<g>
			<path class="st0" d="M18.739,58.03c-0.26-0.094-0.545,0.042-0.639,0.303l-1.785,5c-0.093,0.26,0.043,0.546,0.303,0.639
				C16.674,63.991,16.73,64,16.786,64c0.205,0,0.397-0.127,0.471-0.332l1.785-5C19.135,58.409,18.999,58.123,18.739,58.03z"/>
		</g>
	</g>
	<g>
		<g>
			<path class="st0" d="M49.685,58.333l-9.766-27.345c-0.093-0.26-0.376-0.396-0.639-0.303c-0.26,0.093-0.396,0.379-0.303,0.639
				L48.504,58h-5.938l-8.503-23.807c-0.093-0.26-0.379-0.396-0.639-0.303c-0.261,0.093-0.396,0.379-0.303,0.639l8.621,24.139
				C41.814,58.868,42.003,59,42.214,59h7c0.162,0,0.315-0.079,0.409-0.212C49.716,58.656,49.739,58.485,49.685,58.333z"/>
		</g>
	</g>
	<g>
		<g>
			<path class="st0" d="M47.685,63.333l-1.785-5c-0.093-0.26-0.378-0.396-0.639-0.303c-0.26,0.093-0.396,0.379-0.303,0.639l1.785,5
				C46.816,63.873,47.009,64,47.214,64c0.056,0,0.112-0.009,0.168-0.029C47.642,63.878,47.777,63.592,47.685,63.333z"/>
		</g>
	</g>
	<g>
		<g>
			<g>
				<path class="st0" d="M59,44H5c-0.276,0-0.5,0.224-0.5,0.5S4.724,45,5,45h54c0.276,0,0.5-0.224,0.5-0.5S59.276,44,59,44z"/>
			</g>
		</g>
	</g>
	<g>
		<g>
			<path class="st1" d="M7,41.5H6c-0.552,0-1,0.448-1,1v4c0,0.552,0.448,1,1,1h1c0.552,0,1-0.448,1-1v-4C8,41.948,7.552,41.5,7,41.5
				z"/>
		</g>
	</g>
	<g>
		<g>
			<g>
				<g>
					<path class="st0" d="M7,41H6c-0.827,0-1.5,0.673-1.5,1.5v4C4.5,47.327,5.173,48,6,48h1c0.827,0,1.5-0.673,1.5-1.5v-4
						C8.5,41.673,7.827,41,7,41z M7.5,46.5C7.5,46.776,7.275,47,7,47H6c-0.275,0-0.5-0.224-0.5-0.5v-4C5.5,42.224,5.725,42,6,42h1
						c0.275,0,0.5,0.224,0.5,0.5V46.5z"/>
				</g>
			</g>
		</g>
	</g>
	<g>
		<g>
			<path class="st1" d="M58,41.5h-1c-0.552,0-1,0.448-1,1v4c0,0.552,0.448,1,1,1h1c0.552,0,1-0.448,1-1v-4
				C59,41.948,58.552,41.5,58,41.5z"/>
		</g>
	</g>
	<g>
		<g>
			<g>
				<g>
					<path class="st0" d="M58,41h-1c-0.827,0-1.5,0.673-1.5,1.5v4c0,0.827,0.673,1.5,1.5,1.5h1c0.827,0,1.5-0.673,1.5-1.5v-4
						C59.5,41.673,58.827,41,58,41z M58.5,46.5c0,0.276-0.225,0.5-0.5,0.5h-1c-0.275,0-0.5-0.224-0.5-0.5v-4
						c0-0.276,0.225-0.5,0.5-0.5h1c0.275,0,0.5,0.224,0.5,0.5V46.5z"/>
				</g>
			</g>
		</g>
	</g>
	<g>
		<g>
			<g>
				<path class="st0" d="M32,41.5c-0.276,0-0.5,0.224-0.5,0.5v5c0,0.276,0.224,0.5,0.5,0.5s0.5-0.224,0.5-0.5v-5
					C32.5,41.724,32.276,41.5,32,41.5z"/>
			</g>
		</g>
	</g>
</g>
</svg>
