<?xml version="1.0" encoding="utf-8"?>
<!-- Generator: Adobe Illustrator 21.1.0, SVG Export Plug-In . SVG Version: 6.00 Build 0)  -->
<svg version="1.1" id="Icon_Set" xmlns="http://www.w3.org/2000/svg" xmlns:xlink="http://www.w3.org/1999/xlink" x="0px" y="0px"
	 viewBox="0 0 64 64" style="enable-background:new 0 0 64 64;" xml:space="preserve">
<style type="text/css">
	.st0{fill:#37474F;}
	.st1{fill:#EF5350;}
	.st2{fill:#FFCA28;}
	.st3{fill:#64B5F6;}
	.st4{fill:#FFFFFF;}
	.st5{fill:#FF7043;}
</style>
<g id="Global_Education">
	<g>
		<g>
			<path class="st3" d="M45.938,19.968c-0.165,0.173-0.349,0.328-0.572,0.436l-1.682,0.808c-3.713,1.782-7.699,2.673-11.684,2.673
				c-3.986,0-7.971-0.891-11.684-2.672l-1.682-0.808c-0.223-0.107-0.408-0.262-0.572-0.436C11.973,24.321,8,31.444,8,39.5
				c0,4.818,1.425,9.301,3.869,13.06l0.374-0.374l9.193-9.193l0,0c-0.781-0.781-0.781-2.047,0-2.828l7.071-7.071
				c0.781-0.781,2.048-0.781,2.828,0l0.354-0.354c1.755-1.754,4.61-1.755,6.364,0l0,0l0.707,0.708
				c0.85,0.849,1.318,1.979,1.318,3.181s-0.468,2.333-1.318,3.182L19.316,59.255c-0.001,0.001-0.001,0.002-0.002,0.003l-0.373,0.373
				C22.699,62.075,27.182,63.5,32,63.5c13.255,0,24-10.745,24-24C56,31.444,52.027,24.321,45.938,19.968z"/>
		</g>
	</g>
	<g>
		<g>
			<path class="st0" d="M42.517,21.628c-0.154-0.231-0.467-0.291-0.693-0.139c-0.229,0.153-0.292,0.464-0.139,0.693
				c2.97,4.451,4.673,10.762,4.673,17.317C46.357,52.458,39.917,63,32,63c-3.533,0-6.934-2.137-9.577-6.017
				c-0.155-0.228-0.466-0.289-0.694-0.132c-0.229,0.155-0.288,0.466-0.132,0.694C24.431,61.708,28.125,64,32,64
				c8.468,0,15.357-10.991,15.357-24.5C47.357,32.753,45.593,26.239,42.517,21.628z"/>
		</g>
	</g>
	<g>
		<g>
			<path class="st0" d="M22.176,21.49c-0.23-0.154-0.541-0.091-0.693,0.139c-3.076,4.61-4.84,11.125-4.84,17.871
				c0,2.246,0.189,4.469,0.562,6.609c0.042,0.243,0.253,0.414,0.492,0.414c0.028,0,0.057-0.002,0.086-0.007
				c0.272-0.047,0.454-0.307,0.407-0.579c-0.364-2.083-0.548-4.25-0.548-6.438c0-6.554,1.703-12.866,4.672-17.316
				C22.468,21.954,22.406,21.644,22.176,21.49z"/>
		</g>
	</g>
	<g>
		<g>
			<path class="st0" d="M32,47.071c-0.276,0-0.5,0.224-0.5,0.5V63.5c0,0.276,0.224,0.5,0.5,0.5s0.5-0.224,0.5-0.5V47.571
				C32.5,47.295,32.276,47.071,32,47.071z"/>
		</g>
	</g>
	<g>
		<g>
			<path class="st0" d="M32,23.384c-0.276,0-0.5,0.224-0.5,0.5v7.573c0,0.276,0.224,0.5,0.5,0.5s0.5-0.224,0.5-0.5v-7.573
				C32.5,23.608,32.276,23.384,32,23.384z"/>
		</g>
	</g>
	<g>
		<g>
			<path class="st0" d="M56,39H40.043c-0.276,0-0.5,0.224-0.5,0.5s0.224,0.5,0.5,0.5H56c0.276,0,0.5-0.224,0.5-0.5S56.276,39,56,39z
				"/>
		</g>
	</g>
	<g>
		<g>
			<path class="st0" d="M21.101,39H8c-0.276,0-0.5,0.224-0.5,0.5S7.724,40,8,40h13.101c0.276,0,0.5-0.224,0.5-0.5
				S21.377,39,21.101,39z"/>
		</g>
	</g>
	<g>
		<g>
			<path class="st1" d="M37.345,34.862l-0.707-0.707c-0.976-0.976-2.559-0.976-3.536,0L13.657,53.6l4.243,4.243l19.445-19.445
				C38.321,37.421,38.321,35.838,37.345,34.862z"/>
		</g>
	</g>
	<g>
		<g>
			<g>
				<g>
					<path class="st0" d="M37.698,34.508l-0.707-0.707c-1.17-1.169-3.072-1.169-4.242,0L13.303,53.247
						c-0.094,0.094-0.146,0.221-0.146,0.354s0.053,0.26,0.146,0.354l4.243,4.242c0.098,0.098,0.226,0.146,0.354,0.146
						s0.256-0.049,0.354-0.146l19.445-19.445c0.566-0.566,0.879-1.32,0.879-2.121S38.265,35.075,37.698,34.508z M36.991,38.044
						L17.899,57.136l-3.536-3.535l19.092-19.092c0.779-0.779,2.049-0.779,2.828,0l0.707,0.707c0.378,0.378,0.586,0.88,0.586,1.415
						S37.369,37.666,36.991,38.044z"/>
				</g>
			</g>
		</g>
	</g>
	<g>
		<g>
			<g>
				<g>
					<g>
						<path class="st0" d="M18.253,57.489l-4.243-4.242c-0.195-0.195-0.512-0.195-0.707,0l-3.535,3.535
							c-0.055,0.055-0.096,0.122-0.121,0.195l-2.122,6.364c-0.06,0.18-0.013,0.378,0.121,0.512C7.742,63.949,7.87,64,8,64
							c0.053,0,0.106-0.008,0.158-0.026l6.364-2.122c0.074-0.024,0.141-0.066,0.195-0.121l3.535-3.536
							C18.448,58.001,18.448,57.685,18.253,57.489z M14.094,60.941l-5.304,1.768l1.768-5.304l3.098-3.098l3.536,3.535L14.094,60.941
							z"/>
					</g>
				</g>
			</g>
		</g>
	</g>
	<g>
		<g>
			<g>
				<g>
					<g>
						<path class="st0" d="M12.596,61.732l-2.828-2.828c-0.122-0.123-0.299-0.172-0.468-0.133c-0.169,0.04-0.305,0.164-0.359,0.329
							l-1.415,4.243c-0.06,0.18-0.013,0.378,0.121,0.512C7.742,63.949,7.87,64,8,64c0.053,0,0.106-0.008,0.158-0.026l4.243-1.415
							c0.165-0.055,0.289-0.19,0.329-0.359C12.769,62.032,12.719,61.854,12.596,61.732z M8.791,62.709l0.842-2.526l1.684,1.684
							L8.791,62.709z"/>
					</g>
				</g>
			</g>
		</g>
	</g>
	<g>
		<g>
			<path class="st0" d="M30.274,34.155c-0.195-0.195-0.512-0.195-0.707,0l-7.071,7.071c-0.195,0.195-0.195,0.512,0,0.707
				c0.098,0.098,0.226,0.146,0.354,0.146s0.256-0.049,0.354-0.146l7.071-7.071C30.469,34.667,30.469,34.35,30.274,34.155z"/>
		</g>
	</g>
	<g>
		<g>
			<path class="st0" d="M46.229,19.562c-0.225-0.16-0.537-0.109-0.698,0.116c-0.16,0.225-0.108,0.537,0.116,0.697
				c6.17,4.41,9.853,11.56,9.853,19.125C55.5,52.458,44.958,63,32,63c-4.553,0-8.975-1.31-12.787-3.789
				c-0.231-0.15-0.542-0.084-0.692,0.147s-0.084,0.541,0.147,0.692C22.643,62.634,27.253,64,32,64c13.51,0,24.5-10.991,24.5-24.5
				C56.5,31.612,52.66,24.159,46.229,19.562z"/>
		</g>
	</g>
	<g>
		<g>
			<path class="st0" d="M12.289,52.288C9.81,48.475,8.5,44.053,8.5,39.5c0-1.314,0.11-2.633,0.326-3.921
				c0.046-0.272-0.138-0.53-0.41-0.576c-0.276-0.05-0.531,0.138-0.576,0.41C7.614,36.755,7.5,38.131,7.5,39.5
				c0,4.747,1.366,9.357,3.95,13.333c0.096,0.147,0.256,0.228,0.42,0.228c0.093,0,0.188-0.026,0.272-0.081
				C12.373,52.829,12.439,52.519,12.289,52.288z"/>
		</g>
	</g>
	<g>
		<g>
			<path class="st0" d="M10.388,29.046c-0.252-0.118-0.549-0.006-0.663,0.245c-0.456,0.991-0.847,2.021-1.165,3.063
				c-0.08,0.264,0.069,0.543,0.333,0.624C8.941,32.993,8.991,33,9.039,33c0.214,0,0.413-0.139,0.479-0.354
				c0.304-0.998,0.679-1.986,1.116-2.936C10.749,29.458,10.638,29.161,10.388,29.046z"/>
		</g>
	</g>
	<g>
		<g>
			<path class="st0" d="M18.469,19.678c-0.161-0.225-0.473-0.277-0.697-0.116c-2.535,1.812-4.676,4.055-6.364,6.667
				c-0.15,0.232-0.083,0.542,0.148,0.691C11.64,26.975,11.734,27,11.827,27c0.164,0,0.325-0.081,0.42-0.229
				c1.62-2.507,3.674-4.659,6.105-6.397C18.578,20.214,18.629,19.902,18.469,19.678z"/>
		</g>
	</g>
	<g>
		<g>
			<path class="st0" d="M51,6.35c-0.276,0-0.5,0.224-0.5,0.5v10c0,0.276,0.224,0.5,0.5,0.5s0.5-0.224,0.5-0.5v-10
				C51.5,6.574,51.276,6.35,51,6.35z"/>
		</g>
	</g>
	<g>
		<g>
			<polygon class="st2" points="32,0.6 10,6.1 32,11.6 54,6.1 			"/>
		</g>
	</g>
	<g>
		<g>
			<g>
				<g>
					<path class="st0" d="M54.121,5.615l-22-5.5c-0.079-0.021-0.163-0.021-0.242,0l-22,5.5C9.656,5.671,9.5,5.871,9.5,6.1
						s0.156,0.429,0.379,0.485l22,5.5c0.04,0.01,0.081,0.015,0.121,0.015s0.082-0.005,0.121-0.015l22-5.5
						C54.344,6.529,54.5,6.33,54.5,6.1S54.344,5.671,54.121,5.615z M32,11.084L12.062,6.1L32,1.116L51.938,6.1L32,11.084z"/>
				</g>
			</g>
		</g>
	</g>
	<g>
		<g>
			<path class="st2" d="M32,11.6L19.5,8.475v10.126l1.682,0.807c6.839,3.283,14.798,3.283,21.637,0l1.682-0.807V8.475L32,11.6z"/>
		</g>
	</g>
	<g>
		<g>
			<g>
				<g>
					<path class="st0" d="M44.808,8.081c-0.122-0.095-0.28-0.129-0.429-0.091L32,11.084L19.621,7.99
						c-0.148-0.037-0.307-0.003-0.429,0.091C19.071,8.176,19,8.321,19,8.475v10.126c0,0.192,0.11,0.368,0.284,0.451l1.682,0.807
						c3.506,1.683,7.271,2.525,11.035,2.525c3.765,0,7.528-0.842,11.035-2.525l1.682-0.807C44.89,18.969,45,18.793,45,18.601V8.475
						C45,8.321,44.929,8.176,44.808,8.081z M44,18.287l-1.398,0.671c-6.737,3.234-14.466,3.234-21.204,0L20,18.287V9.116
						l11.879,2.969c0.079,0.021,0.163,0.021,0.242,0L44,9.116V18.287z"/>
				</g>
			</g>
		</g>
	</g>
	<g>
		<g>
			<path class="st0" d="M50.289,23.256c-0.136-0.242-0.44-0.327-0.68-0.193C45.122,25.565,38.704,27,32,27
				c-6.703,0-13.122-1.435-17.609-3.937c-0.241-0.135-0.546-0.049-0.68,0.193c-0.135,0.241-0.048,0.546,0.193,0.68
				C18.536,26.519,25.131,28,32,28c6.869,0,13.465-1.481,18.096-4.063C50.337,23.802,50.424,23.498,50.289,23.256z"/>
		</g>
	</g>
	<g>
		<g>
			<path class="st0" d="M50.096,55.063C45.465,52.481,38.869,51,32,51c-1.5,0-3.006,0.07-4.476,0.209
				c-0.275,0.026-0.477,0.27-0.451,0.544c0.025,0.275,0.263,0.487,0.544,0.451C29.056,52.069,30.531,52,32,52
				c6.704,0,13.122,1.435,17.609,3.937C49.687,55.979,49.77,56,49.853,56c0.175,0,0.345-0.092,0.437-0.256
				C50.424,55.502,50.337,55.198,50.096,55.063z"/>
		</g>
	</g>
</g>
</svg>
