<?xml version="1.0" encoding="utf-8"?>
<!-- Generator: Adobe Illustrator 21.1.0, SVG Export Plug-In . SVG Version: 6.00 Build 0)  -->
<svg version="1.1" id="Icon_Set" xmlns="http://www.w3.org/2000/svg" xmlns:xlink="http://www.w3.org/1999/xlink" x="0px" y="0px"
	 viewBox="0 0 64 64" style="enable-background:new 0 0 64 64;" xml:space="preserve">
<style type="text/css">
	.st0{fill:#37474F;}
	.st1{fill:#EF5350;}
	.st2{fill:#FFCA28;}
	.st3{fill:#64B5F6;}
	.st4{fill:#FFFFFF;}
	.st5{fill:#FF7043;}
</style>
<g id="Group_Class">
	<g>
		<g>
			<path class="st3" d="M55.104,31.427L47.25,27.5v0c-1.54,3.466-6.46,3.466-8,0v0l-5.616,2.808c2.567,1.756,4.116,4.65,4.116,7.827
				V47.5h4.5v-4c0-1.104,0.896-2,2-2h1.25v-4c0-1.104,0.896-2,2-2h11.253C58.099,33.76,56.824,32.286,55.104,31.427z"/>
		</g>
	</g>
	<g>
		<g>
			<circle class="st0" cx="46.75" cy="15" r="1"/>
		</g>
	</g>
	<g>
		<g>
			<circle class="st0" cx="39.75" cy="15" r="1"/>
		</g>
	</g>
	<g>
		<g>
			<g>
				<g>
					<g>
						<path class="st0" d="M48.75,6.5c-0.276,0-0.5,0.224-0.5,0.5v5c0,1.654,1.346,3,3,3c0.276,0,0.5-0.224,0.5-0.5v-5
							C51.75,7.846,50.404,6.5,48.75,6.5z M50.75,13.937c-0.861-0.222-1.5-1.006-1.5-1.937V7.563c0.861,0.222,1.5,1.006,1.5,1.937
							V13.937z"/>
					</g>
				</g>
			</g>
		</g>
	</g>
	<g>
		<g>
			<g>
				<g>
					<g>
						<path class="st0" d="M49.619,4.467C49.209,3.562,48.336,3,47.343,3H41.25c-4.411,0-8,3.589-8,8v1.5
							c0,0.141,0.06,0.274,0.163,0.369C33.505,12.954,33.626,13,33.75,13c0.015,0,0.03,0,0.045-0.002l5.022-0.457
							c3.983-0.362,7.627-2.219,10.263-5.229l0.144-0.166C49.878,6.399,50.029,5.372,49.619,4.467z M48.471,6.488l-0.144,0.166
							c-2.465,2.816-5.874,4.553-9.6,4.892l-4.478,0.407V11c0-3.86,3.141-7,7-7h6.093c0.605,0,1.115,0.329,1.366,0.88
							C48.959,5.432,48.87,6.033,48.471,6.488z"/>
					</g>
				</g>
			</g>
		</g>
	</g>
	<g>
		<g>
			<path class="st0" d="M51.25,14c-0.276,0-0.5,0.224-0.5,0.5s0.224,0.5,0.5,0.5c0.827,0,1.5,0.673,1.5,1.5s-0.673,1.5-1.5,1.5
				c-0.276,0-0.5,0.224-0.5,0.5c0,3.584-2.916,6.5-6.5,6.5h-2c-3.584,0-6.5-2.916-6.5-6.5c0-0.276-0.224-0.5-0.5-0.5
				c-0.827,0-1.5-0.673-1.5-1.5s0.673-1.5,1.5-1.5c0.276,0,0.5-0.224,0.5-0.5v-2.136c0-0.276-0.224-0.5-0.5-0.5s-0.5,0.224-0.5,0.5
				v1.687c-1.14,0.232-2,1.242-2,2.45c0,1.212,0.867,2.226,2.014,2.453C34.998,22.878,38.267,26,42.25,26h2
				c3.983,0,7.252-3.122,7.486-7.047c1.146-0.227,2.014-1.241,2.014-2.453C53.75,15.122,52.629,14,51.25,14z"/>
		</g>
	</g>
	<g>
		<g>
			<g>
				<g>
					<g>
						<path class="st0" d="M47.517,24.395c-0.146-0.092-0.326-0.102-0.481-0.029C46.151,24.787,45.214,25,44.25,25h-2
							c-0.964,0-1.901-0.213-2.785-0.634c-0.154-0.073-0.337-0.063-0.481,0.029c-0.146,0.092-0.233,0.251-0.233,0.423V27.5
							c0,0.07,0.015,0.139,0.043,0.203c0.794,1.787,2.502,2.896,4.457,2.896s3.663-1.11,4.457-2.896
							c0.028-0.064,0.043-0.133,0.043-0.203v-2.682C47.75,24.646,47.662,24.486,47.517,24.395z M46.75,27.391
							c-0.648,1.365-1.98,2.208-3.5,2.208s-2.852-0.843-3.5-2.209v-1.824C40.556,25.854,41.394,26,42.25,26h2
							c0.856,0,1.694-0.146,2.5-0.434V27.391z"/>
					</g>
				</g>
			</g>
		</g>
	</g>
	<g>
		<g>
			<g>
				<g>
					<g>
						<path class="st0" d="M46.25,18h-6c-0.276,0-0.5,0.224-0.5,0.5c0,1.93,1.57,3.5,3.5,3.5s3.5-1.57,3.5-3.5
							C46.75,18.224,46.526,18,46.25,18z M43.25,21c-1.207,0-2.218-0.86-2.45-2h4.9C45.468,20.14,44.457,21,43.25,21z"/>
					</g>
				</g>
			</g>
		</g>
	</g>
	<g>
		<g>
			<path class="st0" d="M12.75,4c0.276,0,0.5-0.224,0.5-0.5S13.026,3,12.75,3c-3.032,0-5.5,2.467-5.5,5.5v17
				c0,0.276,0.224,0.5,0.5,0.5c2.483,0,4.667-1.673,5.312-4.068c0.072-0.267-0.086-0.541-0.353-0.613
				c-0.264-0.069-0.541,0.087-0.612,0.353c-0.484,1.797-2.027,3.097-3.847,3.3V8.5C8.25,6.019,10.269,4,12.75,4z"/>
		</g>
	</g>
	<g>
		<g>
			<path class="st2" d="M35.75,47.5v-9.365c0-2.841-1.605-5.438-4.146-6.708L23.75,27.5l0,0c-1.54,3.466-6.46,3.466-8,0l0,0
				l-7.854,3.927c-2.541,1.27-4.146,3.867-4.146,6.708V47.5"/>
		</g>
	</g>
	<g>
		<g>
			<path class="st0" d="M31.828,30.979l-7.854-3.927c-0.122-0.061-0.264-0.069-0.393-0.023c-0.129,0.046-0.232,0.143-0.288,0.268
				c-0.631,1.42-1.988,2.303-3.543,2.303s-2.912-0.882-3.543-2.303c-0.056-0.125-0.159-0.221-0.288-0.268
				c-0.129-0.046-0.271-0.038-0.393,0.023l-7.854,3.927c-2.728,1.364-4.422,4.106-4.422,7.155V47.5c0,0.276,0.224,0.5,0.5,0.5
				s0.5-0.224,0.5-0.5v-9.365c0-2.668,1.482-5.067,3.869-6.261l7.41-3.705c0.867,1.511,2.441,2.43,4.221,2.43
				s3.354-0.919,4.221-2.43l7.41,3.705c2.387,1.194,3.869,3.593,3.869,6.261V47.5c0,0.276,0.224,0.5,0.5,0.5s0.5-0.224,0.5-0.5
				v-9.365C36.25,35.085,34.556,32.344,31.828,30.979z"/>
		</g>
	</g>
	<g>
		<g>
			<path class="st0" d="M59.234,35.309c-0.713-1.889-2.101-3.426-3.906-4.33l-7.854-3.927c-0.121-0.061-0.264-0.069-0.393-0.023
				c-0.129,0.046-0.232,0.143-0.288,0.268c-0.631,1.42-1.988,2.302-3.543,2.302s-2.912-0.882-3.543-2.303
				c-0.056-0.125-0.159-0.221-0.288-0.268s-0.271-0.038-0.393,0.023l-5.615,2.808c-0.247,0.124-0.347,0.424-0.224,0.671
				c0.124,0.247,0.424,0.346,0.671,0.224l5.171-2.585c0.867,1.511,2.441,2.43,4.221,2.43s3.354-0.919,4.221-2.43l7.41,3.705
				c1.58,0.79,2.794,2.136,3.418,3.789c0.075,0.2,0.266,0.323,0.468,0.323c0.059,0,0.118-0.01,0.177-0.032
				C59.201,35.856,59.332,35.568,59.234,35.309z"/>
		</g>
	</g>
	<g>
		<g>
			<circle class="st0" cx="23.25" cy="15" r="1"/>
		</g>
	</g>
	<g>
		<g>
			<circle class="st0" cx="16.25" cy="15" r="1"/>
		</g>
	</g>
	<g>
		<g>
			<path class="st0" d="M10.75,41c-0.276,0-0.5,0.224-0.5,0.5v6c0,0.276,0.224,0.5,0.5,0.5s0.5-0.224,0.5-0.5v-6
				C11.25,41.223,11.026,41,10.75,41z"/>
		</g>
	</g>
	<g>
		<g>
			<path class="st0" d="M28.75,41c-0.276,0-0.5,0.224-0.5,0.5v6c0,0.276,0.224,0.5,0.5,0.5s0.5-0.224,0.5-0.5v-6
				C29.25,41.223,29.026,41,28.75,41z"/>
		</g>
	</g>
	<g>
		<g>
			<g>
				<g>
					<g>
						<path class="st0" d="M21.75,3h-4c-4.411,0-8,3.589-8,8v1.5c0,0.276,0.224,0.5,0.5,0.5h0.41c1.996,0,3.8-1.056,4.777-2.774
							l1.262,0.842c1.854,1.235,4.248,1.235,6.102,0l1.262-0.842C25.04,11.944,26.844,13,28.84,13h0.41c0.276,0,0.5-0.224,0.5-0.5
							V11C29.75,6.589,26.161,3,21.75,3z M28.75,11.999c-1.68-0.033-3.182-0.979-3.935-2.486l-0.118-0.236
							c-0.064-0.128-0.181-0.223-0.319-0.26C24.336,9.005,24.293,9,24.25,9c-0.098,0-0.194,0.029-0.277,0.084l-1.727,1.151
							c-1.516,1.011-3.477,1.011-4.992,0l-1.727-1.151c-0.12-0.08-0.27-0.104-0.405-0.067c-0.139,0.037-0.255,0.131-0.319,0.26
							l-0.118,0.236c-0.753,1.507-2.255,2.454-3.935,2.486V11c0-3.86,3.141-7,7-7h4c3.859,0,7,3.14,7,7V11.999z"/>
					</g>
				</g>
			</g>
		</g>
	</g>
	<g>
		<g>
			<path class="st1" d="M13.25,0.5c-1.657,0-3,1.343-3,3c0,1.201,0.711,2.23,1.731,2.709c1.068-1.285,2.556-2.207,4.254-2.556
				C16.237,3.602,16.25,3.553,16.25,3.5C16.25,1.843,14.907,0.5,13.25,0.5z"/>
		</g>
	</g>
	<g>
		<g>
			<g>
				<g>
					<path class="st0" d="M13.25,0c-1.93,0-3.5,1.57-3.5,3.5c0,1.345,0.792,2.586,2.018,3.162c0.068,0.032,0.141,0.047,0.213,0.047
						c0.145,0,0.287-0.063,0.385-0.18c1.016-1.222,2.426-2.069,3.97-2.386c0.207-0.042,0.372-0.277,0.402-0.487
						C16.74,3.634,16.75,3.523,16.75,3.5C16.75,1.57,15.18,0,13.25,0z M11.871,5.576c-0.69-0.459-1.121-1.24-1.121-2.076
						c0-1.378,1.121-2.5,2.5-2.5c1.292,0,2.358,0.985,2.484,2.257C14.26,3.641,12.912,4.45,11.871,5.576z"/>
				</g>
			</g>
		</g>
	</g>
	<g>
		<g>
			<path class="st0" d="M28.25,14.05V12.5c0-0.276-0.224-0.5-0.5-0.5s-0.5,0.224-0.5,0.5v2c0,0.276,0.224,0.5,0.5,0.5
				c0.827,0,1.5,0.673,1.5,1.5s-0.673,1.5-1.5,1.5c-0.276,0-0.5,0.224-0.5,0.5c0,3.584-2.916,6.5-6.5,6.5h-2
				c-3.584,0-6.5-2.916-6.5-6.5c0-0.276-0.224-0.5-0.5-0.5c-0.827,0-1.5-0.673-1.5-1.5s0.673-1.5,1.5-1.5c0.276,0,0.5-0.224,0.5-0.5
				v-2c0-0.276-0.224-0.5-0.5-0.5s-0.5,0.224-0.5,0.5v1.55c-1.14,0.232-2,1.242-2,2.45c0,1.212,0.867,2.226,2.014,2.453
				C11.498,22.878,14.767,26,18.75,26h2c3.983,0,7.252-3.122,7.486-7.047c1.146-0.227,2.014-1.241,2.014-2.453
				C30.25,15.292,29.39,14.283,28.25,14.05z"/>
		</g>
	</g>
	<g>
		<g>
			<g>
				<g>
					<g>
						<path class="st0" d="M24.017,24.395c-0.145-0.092-0.326-0.102-0.481-0.029C22.651,24.787,21.714,25,20.75,25h-2
							c-0.964,0-1.901-0.213-2.785-0.634c-0.154-0.073-0.336-0.063-0.481,0.029s-0.233,0.251-0.233,0.423V27.5
							c0,0.07,0.015,0.139,0.043,0.203c0.794,1.787,2.502,2.896,4.457,2.896s3.663-1.11,4.457-2.896
							c0.028-0.064,0.043-0.133,0.043-0.203v-2.682C24.25,24.646,24.162,24.486,24.017,24.395z M23.25,27.391
							c-0.648,1.365-1.98,2.208-3.5,2.208s-2.852-0.843-3.5-2.209v-1.824C17.056,25.854,17.894,26,18.75,26h2
							c0.856,0,1.694-0.146,2.5-0.434V27.391z"/>
					</g>
				</g>
			</g>
		</g>
	</g>
	<g>
		<g>
			<g>
				<g>
					<g>
						<path class="st0" d="M22.75,18h-6c-0.276,0-0.5,0.224-0.5,0.5c0,1.93,1.57,3.5,3.5,3.5s3.5-1.57,3.5-3.5
							C23.25,18.224,23.026,18,22.75,18z M19.75,21c-1.207,0-2.218-0.86-2.45-2h4.9C21.968,20.14,20.957,21,19.75,21z"/>
					</g>
				</g>
			</g>
		</g>
	</g>
	<g>
		<g>
			<path class="st0" d="M61,49H15.75c-0.276,0-0.5,0.224-0.5,0.5s0.224,0.5,0.5,0.5H61c1.103,0,2,0.897,2,2v1c0,1.103-0.897,2-2,2H3
				c-1.103,0-2-0.897-2-2v-1c0-1.103,0.897-2,2-2h3.75c0.276,0,0.5-0.224,0.5-0.5S7.026,49,6.75,49H3c-1.654,0-3,1.346-3,3v1
				c0,1.654,1.346,3,3,3h58c1.654,0,3-1.346,3-3v-1C64,50.346,62.654,49,61,49z"/>
		</g>
	</g>
	<g>
		<g>
			<g>
				<path class="st0" d="M12.75,49h-3c-0.276,0-0.5,0.224-0.5,0.5S9.474,50,9.75,50h3c0.276,0,0.5-0.224,0.5-0.5S13.026,49,12.75,49
					z"/>
			</g>
		</g>
	</g>
	<g>
		<g>
			<path class="st0" d="M9.25,57c-0.276,0-0.5,0.224-0.5,0.5v6c0,0.276,0.224,0.5,0.5,0.5s0.5-0.224,0.5-0.5v-6
				C9.75,57.224,9.526,57,9.25,57z"/>
		</g>
	</g>
	<g>
		<g>
			<path class="st0" d="M3.25,57c-0.276,0-0.5,0.224-0.5,0.5v6c0,0.276,0.224,0.5,0.5,0.5s0.5-0.224,0.5-0.5v-6
				C3.75,57.224,3.526,57,3.25,57z"/>
		</g>
	</g>
	<g>
		<g>
			<path class="st0" d="M60.25,57c-0.276,0-0.5,0.224-0.5,0.5v6c0,0.276,0.224,0.5,0.5,0.5s0.5-0.224,0.5-0.5v-6
				C60.75,57.224,60.526,57,60.25,57z"/>
		</g>
	</g>
	<g>
		<g>
			<path class="st0" d="M54.25,57c-0.276,0-0.5,0.224-0.5,0.5v6c0,0.276,0.224,0.5,0.5,0.5s0.5-0.224,0.5-0.5v-6
				C54.75,57.224,54.526,57,54.25,57z"/>
		</g>
	</g>
	<g>
		<g>
			<path class="st1" d="M57.25,43.5h-13v6h13c1.657,0,3-1.343,3-3S58.907,43.5,57.25,43.5z"/>
		</g>
	</g>
	<g>
		<g>
			<g>
				<g>
					<path class="st0" d="M57.25,43h-13c-0.276,0-0.5,0.224-0.5,0.5v6c0,0.276,0.224,0.5,0.5,0.5h13c1.93,0,3.5-1.57,3.5-3.5
						S59.18,43,57.25,43z M57.25,49h-12.5v-5h12.5c1.379,0,2.5,1.122,2.5,2.5S58.629,49,57.25,49z"/>
				</g>
			</g>
		</g>
	</g>
	<g>
		<g>
			<path class="st4" d="M56.516,45.5H44.25v2h12.266c0.552,0,1-0.448,1-1S57.068,45.5,56.516,45.5z"/>
		</g>
	</g>
	<g>
		<g>
			<g>
				<g>
					<path class="st0" d="M56.516,45H44.25c-0.276,0-0.5,0.224-0.5,0.5v2c0,0.276,0.224,0.5,0.5,0.5h12.266
						c0.827,0,1.5-0.673,1.5-1.5S57.343,45,56.516,45z M56.516,47H44.75v-1h11.766c0.275,0,0.5,0.224,0.5,0.5S56.791,47,56.516,47z"
						/>
				</g>
			</g>
		</g>
	</g>
	<g>
		<g>
			<path class="st1" d="M60.5,37.5h-13v6h13c1.657,0,3-1.343,3-3S62.157,37.5,60.5,37.5z"/>
		</g>
	</g>
	<g>
		<g>
			<g>
				<g>
					<path class="st0" d="M60.5,37h-13c-0.276,0-0.5,0.224-0.5,0.5v6c0,0.276,0.224,0.5,0.5,0.5h13c1.93,0,3.5-1.57,3.5-3.5
						S62.43,37,60.5,37z M60.5,43H48v-5h12.5c1.379,0,2.5,1.122,2.5,2.5S61.879,43,60.5,43z"/>
				</g>
			</g>
		</g>
	</g>
	<g>
		<g>
			<path class="st4" d="M59.766,39.5H47.5v2h12.266c0.552,0,1-0.448,1-1S60.318,39.5,59.766,39.5z"/>
		</g>
	</g>
	<g>
		<g>
			<g>
				<g>
					<path class="st0" d="M59.766,39H47.5c-0.276,0-0.5,0.224-0.5,0.5v2c0,0.276,0.224,0.5,0.5,0.5h12.266
						c0.827,0,1.5-0.673,1.5-1.5S60.593,39,59.766,39z M59.766,41H48v-1h11.766c0.275,0,0.5,0.224,0.5,0.5S60.041,41,59.766,41z"/>
				</g>
			</g>
		</g>
	</g>
</g>
</svg>
