<?xml version="1.0" encoding="utf-8"?>
<!-- Generator: Adobe Illustrator 21.1.0, SVG Export Plug-In . SVG Version: 6.00 Build 0)  -->
<svg version="1.1" id="Icon_Set" xmlns="http://www.w3.org/2000/svg" xmlns:xlink="http://www.w3.org/1999/xlink" x="0px" y="0px"
	 viewBox="0 0 64 64" style="enable-background:new 0 0 64 64;" xml:space="preserve">
<style type="text/css">
	.st0{fill:#37474F;}
	.st1{fill:#EF5350;}
	.st2{fill:#FFCA28;}
	.st3{fill:#64B5F6;}
	.st4{fill:#FFFFFF;}
	.st5{fill:#FF7043;}
</style>
<g id="Innovation">
	<g>
		<g>
			<path class="st3" d="M22,8.5H3C1.619,8.5,0.5,9.62,0.5,11v15c0,1.381,1.119,2.5,2.5,2.5h14.622
				c1.297-3.651,3.723-6.772,6.878-8.911V11C24.5,9.62,23.381,8.5,22,8.5z"/>
		</g>
	</g>
	<g>
		<g>
			<path class="st0" d="M22,8H3c-1.654,0-3,1.346-3,3v15c0,1.654,1.346,3,3,3h14.622c0.276,0,0.5-0.224,0.5-0.5s-0.224-0.5-0.5-0.5
				H3c-1.103,0-2-0.897-2-2V11c0-1.103,0.897-2,2-2h19c1.103,0,2,0.897,2,2v8.59c0,0.276,0.224,0.5,0.5,0.5s0.5-0.224,0.5-0.5V11
				C25,9.346,23.654,8,22,8z"/>
		</g>
	</g>
	<g>
		<g>
			<path class="st2" d="M47.835,8.228c-0.962,0.202-1.877,0.551-2.718,1.022c-0.737,0.413-1.419,0.918-2.027,1.5
				c-0.442,0.422-0.846,0.885-1.204,1.381c-0.203,0.28-0.391,0.57-0.564,0.87c-0.132,0.228-0.254,0.462-0.367,0.7
				c-0.34,0.716-0.595,1.476-0.752,2.266c-0.672,3.392,0.382,6.525,2.427,8.744C44.079,26.283,45,28.267,45,30.406V31h10v-0.591
				c0-2.151,0.94-4.136,2.393-5.723C59.009,22.923,60,20.585,60,18C60,11.771,54.303,6.871,47.835,8.228z"/>
		</g>
	</g>
	<g>
		<g>
			<path class="st0" d="M50,1.5c-0.276,0-0.5,0.224-0.5,0.5v3c0,0.276,0.224,0.5,0.5,0.5s0.5-0.224,0.5-0.5V2
				C50.5,1.724,50.276,1.5,50,1.5z"/>
		</g>
	</g>
	<g>
		<g>
			<path class="st0" d="M43.451,10.404c-0.191-0.199-0.507-0.207-0.707-0.016c-0.462,0.44-0.888,0.928-1.264,1.448
				c-0.162,0.223-0.112,0.536,0.111,0.698c0.089,0.063,0.191,0.095,0.293,0.095c0.155,0,0.308-0.071,0.405-0.207
				c0.341-0.471,0.727-0.912,1.145-1.312C43.634,10.921,43.642,10.604,43.451,10.404z"/>
		</g>
	</g>
	<g>
		<g>
			<path class="st0" d="M56.615,9.846c-2.47-2.006-5.706-2.775-8.883-2.107c-0.997,0.209-1.959,0.571-2.859,1.074
				c-0.241,0.135-0.327,0.439-0.192,0.681c0.135,0.241,0.439,0.326,0.681,0.192c0.812-0.454,1.679-0.78,2.577-0.969
				c2.881-0.604,5.813,0.091,8.047,1.905C58.219,12.436,59.5,15.125,59.5,18c0,2.352-0.879,4.606-2.476,6.349
				c-1.651,1.803-2.524,3.898-2.524,6.061V30.5h-9v-0.094c0-2.141-0.889-4.284-2.503-6.034c-2.066-2.242-2.906-5.271-2.305-8.308
				c0.114-0.572,0.284-1.136,0.504-1.675c0.104-0.256-0.018-0.548-0.274-0.652c-0.252-0.104-0.547,0.019-0.652,0.273
				c-0.245,0.599-0.433,1.224-0.559,1.858c-0.665,3.354,0.265,6.701,2.55,9.181c1.443,1.565,2.238,3.468,2.238,5.356V31
				c0,0.276,0.224,0.5,0.5,0.5h10c0.276,0,0.5-0.224,0.5-0.5v-0.591c0-2.41,1.229-4.259,2.261-5.385
				C59.527,23.097,60.5,20.603,60.5,18C60.5,14.822,59.084,11.851,56.615,9.846z"/>
		</g>
	</g>
	<g>
		<g>
			<path class="st0" d="M50,10.5c-0.276,0-0.5,0.224-0.5,0.5s0.224,0.5,0.5,0.5c3.584,0,6.5,2.916,6.5,6.5
				c0,0.276,0.224,0.5,0.5,0.5s0.5-0.224,0.5-0.5C57.5,13.864,54.136,10.5,50,10.5z"/>
		</g>
	</g>
	<g>
		<g>
			<g>
				<g>
					<g>
						<path class="st0" d="M55,30.5H45c-0.276,0-0.5,0.224-0.5,0.5v5c0,3.032,2.467,5.5,5.5,5.5s5.5-2.468,5.5-5.5v-5
							C55.5,30.724,55.276,30.5,55,30.5z M54.5,36c0,2.481-2.019,4.5-4.5,4.5s-4.5-2.019-4.5-4.5v-4.5h9V36z"/>
					</g>
				</g>
			</g>
		</g>
	</g>
	<g>
		<g>
			<path class="st0" d="M49.693,42.502c-0.262-0.087-0.545,0.054-0.632,0.316c-0.704,2.106-1.746,4.056-3.096,5.792l-1.733,2.229
				c-0.747,0.959-1.159,2.158-1.159,3.376V62c0,0.276,0.224,0.5,0.5,0.5s0.5-0.224,0.5-0.5v-7.784c0-0.996,0.336-1.977,0.948-2.763
				l1.733-2.229c1.42-1.825,2.516-3.874,3.255-6.089C50.096,42.873,49.955,42.59,49.693,42.502z"/>
		</g>
	</g>
	<g>
		<g>
			<path class="st0" d="M38.16,18.402C36.957,18.136,35.75,18,34.572,18c-9.098,0-16.5,7.402-16.5,16.501v0.841l-4.796,6.794
				c-0.324,0.459-0.365,1.055-0.106,1.555c0.259,0.499,0.769,0.81,1.332,0.81h4.57v6c0,3.032,2.467,5.5,5.5,5.5h2.5
				c1.103,0,2,0.897,2,2v4c0,0.276,0.224,0.5,0.5,0.5s0.5-0.224,0.5-0.5v-4c0-1.654-1.346-3-3-3h-2.5c-2.481,0-4.5-2.019-4.5-4.5V44
				c0-0.276-0.224-0.5-0.5-0.5h-5.07c-0.19,0-0.356-0.101-0.444-0.27c-0.087-0.169-0.074-0.363,0.036-0.519l4.887-6.924
				c0.06-0.084,0.091-0.185,0.091-0.288v-0.999c0-8.547,6.953-15.501,15.5-15.501c1.105,0,2.24,0.127,3.371,0.379
				c0.271,0.061,0.537-0.109,0.597-0.38C38.599,18.729,38.429,18.462,38.16,18.402z"/>
		</g>
	</g>
	<g>
		<g>
			<path class="st0" d="M55,35.5H45c-0.276,0-0.5,0.224-0.5,0.5s0.224,0.5,0.5,0.5h10c0.276,0,0.5-0.224,0.5-0.5
				S55.276,35.5,55,35.5z"/>
		</g>
	</g>
	<g>
		<g>
			<path class="st0" d="M44.354,5.646l-1.414-1.414c-0.195-0.195-0.512-0.195-0.707,0s-0.195,0.512,0,0.707l1.414,1.414
				C43.744,6.451,43.872,6.5,44,6.5s0.256-0.049,0.354-0.146C44.549,6.158,44.549,5.842,44.354,5.646z"/>
		</g>
	</g>
	<g>
		<g>
			<path class="st0" d="M57.768,4.232c-0.195-0.195-0.512-0.195-0.707,0l-1.414,1.414c-0.195,0.195-0.195,0.512,0,0.707
				C55.744,6.451,55.872,6.5,56,6.5s0.256-0.049,0.354-0.146l1.414-1.414C57.963,4.744,57.963,4.428,57.768,4.232z"/>
		</g>
	</g>
	<g>
		<g>
			<path class="st0" d="M39.5,9.5h-3C36.224,9.5,36,9.724,36,10s0.224,0.5,0.5,0.5h3c0.276,0,0.5-0.224,0.5-0.5S39.776,9.5,39.5,9.5
				z"/>
		</g>
	</g>
	<g>
		<g>
			<path class="st0" d="M63.5,9.5h-3C60.224,9.5,60,9.724,60,10s0.224,0.5,0.5,0.5h3c0.276,0,0.5-0.224,0.5-0.5S63.776,9.5,63.5,9.5
				z"/>
		</g>
	</g>
	<g>
		<g>
			<path class="st0" d="M50,24.5c-0.276,0-0.5,0.224-0.5,0.5v6c0,0.276,0.224,0.5,0.5,0.5s0.5-0.224,0.5-0.5v-6
				C50.5,24.724,50.276,24.5,50,24.5z"/>
		</g>
	</g>
	<g>
		<g>
			<path class="st0" d="M53.182,21.818c-0.195-0.195-0.512-0.195-0.707,0L50,24.293l-2.475-2.475c-0.195-0.195-0.512-0.195-0.707,0
				s-0.195,0.512,0,0.707l2.828,2.828C49.744,25.451,49.872,25.5,50,25.5s0.256-0.049,0.354-0.146l2.829-2.828
				C53.377,22.33,53.377,22.014,53.182,21.818z"/>
		</g>
	</g>
	<g>
		<g>
			<g>
				<g>
					<path class="st1" d="M62.566,53.346l-0.226-0.13c0.087-0.392,0.136-0.797,0.136-1.215c0-0.418-0.049-0.823-0.136-1.215
						l0.226-0.13l0.765-0.672c0.179-0.157,0.222-0.419,0.103-0.625l-0.99-1.715c-0.119-0.207-0.367-0.3-0.593-0.224l-0.964,0.326
						l-0.229,0.132c-0.597-0.548-1.309-0.971-2.101-1.22V46.4l-0.2-0.998C58.31,45.168,58.104,45,57.866,45h-1.98
						c-0.238,0-0.444,0.168-0.49,0.402l-0.2,0.998v0.257c-0.792,0.249-1.504,0.673-2.101,1.22l-0.229-0.132l-0.964-0.326
						c-0.226-0.077-0.474,0.017-0.593,0.224l-0.99,1.715c-0.119,0.206-0.076,0.468,0.103,0.625l0.765,0.672l0.226,0.13
						c-0.087,0.392-0.136,0.797-0.136,1.215c0,0.417,0.049,0.823,0.136,1.215l-0.226,0.13l-0.764,0.672
						c-0.179,0.157-0.222,0.419-0.103,0.625l0.99,1.715c0.119,0.206,0.367,0.3,0.593,0.224l0.964-0.326l0.229-0.132
						c0.597,0.548,1.309,0.971,2.101,1.22v0.257l0.2,0.998C55.442,58.832,55.647,59,55.886,59h1.98c0.238,0,0.444-0.168,0.49-0.402
						l0.2-0.998v-0.257c0.792-0.249,1.504-0.673,2.101-1.22l0.229,0.132l0.964,0.326c0.226,0.076,0.474-0.017,0.593-0.224
						l0.99-1.715c0.119-0.206,0.076-0.468-0.103-0.625L62.566,53.346z M56.876,55.36c-1.856,0-3.36-1.504-3.36-3.36
						c0-1.856,1.504-3.36,3.36-3.36c1.856,0,3.36,1.504,3.36,3.36C60.236,53.856,58.732,55.36,56.876,55.36z"/>
				</g>
			</g>
		</g>
	</g>
	<g>
		<g>
			<g>
				<g>
					<path class="st0" d="M56.876,48.141c-2.128,0-3.86,1.731-3.86,3.859c0,2.129,1.731,3.86,3.86,3.86s3.86-1.731,3.86-3.86
						C60.736,49.872,59.004,48.141,56.876,48.141z M56.876,54.86c-1.577,0-2.86-1.283-2.86-2.86c0-1.576,1.283-2.859,2.86-2.859
						s2.86,1.283,2.86,2.859C59.736,53.577,58.453,54.86,56.876,54.86z M63.66,53.642l-0.764-0.672c0.053-0.325,0.08-0.65,0.08-0.97
						s-0.027-0.645-0.08-0.97l0.764-0.671c0.357-0.313,0.444-0.84,0.207-1.252l-0.991-1.715c-0.237-0.41-0.735-0.598-1.186-0.447
						l-0.959,0.334c-0.512-0.42-1.077-0.749-1.685-0.981l-0.198-0.994c-0.094-0.466-0.506-0.804-0.981-0.804h-1.98
						c-0.475,0-0.887,0.338-0.98,0.805l-0.189,0.99c-0.609,0.23-1.174,0.559-1.686,0.979l-0.968-0.328
						c-0.45-0.151-0.948,0.036-1.187,0.447l-0.99,1.716c-0.237,0.411-0.15,0.938,0.206,1.251l0.766,0.661
						c-0.054,0.329-0.082,0.657-0.082,0.979c0,0.319,0.027,0.645,0.08,0.971l-0.765,0.672c-0.357,0.313-0.443,0.84-0.206,1.25
						l0.989,1.714c0.238,0.414,0.74,0.602,1.187,0.448l0.96-0.333c0.512,0.42,1.076,0.749,1.684,0.98l0.199,0.995
						c0.093,0.465,0.506,0.803,0.98,0.803h1.98c0.475,0,0.888-0.338,0.981-0.804l0.189-0.99c0.608-0.23,1.174-0.559,1.687-0.979
						l0.966,0.327c0.454,0.15,0.951-0.035,1.188-0.447l0.99-1.715C64.104,54.481,64.017,53.955,63.66,53.642z M62.009,56.107
						l-0.873-0.284l-0.229-0.133c-0.189-0.108-0.429-0.084-0.589,0.064c-0.562,0.516-1.206,0.89-1.913,1.11
						c-0.208,0.065-0.351,0.259-0.351,0.478l0.01,0.16l-0.2,0.997l-1.98,0.001l-0.19-0.9v-0.258c0-0.219-0.142-0.412-0.351-0.478
						c-0.707-0.222-1.351-0.595-1.912-1.11c-0.095-0.087-0.216-0.132-0.338-0.132c-0.086,0-0.172,0.022-0.25,0.067l-1.103,0.417
						l-0.99-1.714l0.686-0.615l0.226-0.131c0.188-0.109,0.284-0.328,0.237-0.54c-0.083-0.373-0.124-0.746-0.124-1.107
						s0.042-0.734,0.124-1.107c0.047-0.213-0.05-0.432-0.239-0.541l-0.909-0.744l0.99-1.715l0.874,0.285l0.229,0.133
						c0.189,0.108,0.428,0.084,0.589-0.064c0.561-0.515,1.204-0.89,1.912-1.112c0.208-0.065,0.35-0.258,0.35-0.477l-0.01-0.159
						l0.2-0.998h1.98l0.189,0.9v0.257c0,0.219,0.142,0.411,0.35,0.477c0.708,0.223,1.351,0.597,1.913,1.112
						c0.16,0.148,0.4,0.173,0.589,0.064l1.102-0.418L63,49.607l-0.684,0.614l-0.226,0.13c-0.189,0.109-0.286,0.329-0.239,0.542
						c0.083,0.372,0.125,0.744,0.125,1.106s-0.042,0.734-0.125,1.106c-0.047,0.213,0.049,0.432,0.238,0.541L63,54.393L62.009,56.107
						z"/>
				</g>
			</g>
		</g>
	</g>
	<g>
		<g>
			<path class="st0" d="M18,15H7c-0.276,0-0.5,0.224-0.5,0.5S6.724,16,7,16h11c0.276,0,0.5-0.224,0.5-0.5S18.276,15,18,15z"/>
		</g>
	</g>
	<g>
		<g>
			<path class="st0" d="M7.707,15.5l1.646-1.646c0.195-0.195,0.195-0.512,0-0.707s-0.512-0.195-0.707,0l-2,2
				c-0.195,0.195-0.195,0.512,0,0.707l2,2C8.744,17.951,8.872,18,9,18s0.256-0.049,0.354-0.146c0.195-0.195,0.195-0.512,0-0.707
				L7.707,15.5z"/>
		</g>
	</g>
	<g>
		<g>
			<path class="st0" d="M18,21H7c-0.276,0-0.5,0.224-0.5,0.5S6.724,22,7,22h11c0.276,0,0.5-0.224,0.5-0.5S18.276,21,18,21z"/>
		</g>
	</g>
	<g>
		<g>
			<path class="st0" d="M18.354,21.146l-2-2c-0.195-0.195-0.512-0.195-0.707,0s-0.195,0.512,0,0.707l1.646,1.646l-1.646,1.646
				c-0.195,0.195-0.195,0.512,0,0.707C15.744,23.951,15.872,24,16,24s0.256-0.049,0.354-0.146l2-2
				C18.549,21.658,18.549,21.342,18.354,21.146z"/>
		</g>
	</g>
	<g>
		<g>
			<circle class="st2" cx="34.572" cy="32.5" r="4"/>
		</g>
	</g>
	<g>
		<g>
			<g>
				<g>
					<path class="st0" d="M34.572,28c-2.481,0-4.5,2.019-4.5,4.5s2.019,4.5,4.5,4.5s4.5-2.019,4.5-4.5S37.053,28,34.572,28z
						 M34.572,36c-1.93,0-3.5-1.57-3.5-3.5s1.57-3.5,3.5-3.5s3.5,1.57,3.5,3.5S36.501,36,34.572,36z"/>
				</g>
			</g>
		</g>
	</g>
	<g>
		<g>
			<g>
				<path class="st0" d="M43,32h-2.428c-0.276,0-0.5,0.224-0.5,0.5s0.224,0.5,0.5,0.5H43c0.276,0,0.5-0.224,0.5-0.5S43.276,32,43,32
					z"/>
			</g>
		</g>
	</g>
	<g>
		<g>
			<g>
				<path class="st0" d="M28.572,32h-3c-0.276,0-0.5,0.224-0.5,0.5s0.224,0.5,0.5,0.5h3c0.276,0,0.5-0.224,0.5-0.5
					S28.848,32,28.572,32z"/>
			</g>
		</g>
	</g>
</g>
</svg>
