<?xml version="1.0" encoding="utf-8"?>
<!-- Generator: Adobe Illustrator 21.1.0, SVG Export Plug-In . SVG Version: 6.00 Build 0)  -->
<svg version="1.1" id="Icon_Set" xmlns="http://www.w3.org/2000/svg" xmlns:xlink="http://www.w3.org/1999/xlink" x="0px" y="0px"
	 viewBox="0 0 64 64" style="enable-background:new 0 0 64 64;" xml:space="preserve">
<style type="text/css">
	.st0{fill:#37474F;}
	.st1{fill:#EF5350;}
	.st2{fill:#FFCA28;}
	.st3{fill:#64B5F6;}
	.st4{fill:#FFFFFF;}
	.st5{fill:#FF7043;}
</style>
<g id="Investment_In_Education">
	<g>
		<g>
			<g>
				<g>
					<g>
						<path class="st3" d="M40.096,23.429C38.085,25.619,35.207,27,32,27s-6.085-1.381-8.096-3.571L0.5,30L32,39l31.5-9
							L40.096,23.429z M38.988,30.5c0,0.552-0.448,1-1,1h-12c-0.552,0-1-0.448-1-1v-1c0-0.552,0.448-1,1-1h12c0.552,0,1,0.448,1,1
							V30.5z"/>
					</g>
				</g>
			</g>
		</g>
	</g>
	<g>
		<g>
			<path class="st3" d="M13.988,35.596v-1.743L32,39l17.988-5.139v18.537L49.982,52.4c-11.213,6.133-24.776,6.133-35.989,0
				l-0.006-0.003v-7.801"/>
		</g>
	</g>
	<g>
		<g>
			<path class="st0" d="M50.289,33.461c-0.125-0.095-0.289-0.127-0.438-0.081L32,38.48l-17.875-5.107
				c-0.15-0.046-0.313-0.014-0.438,0.081c-0.125,0.095-0.199,0.242-0.199,0.399v1.743c0,0.276,0.224,0.5,0.5,0.5s0.5-0.224,0.5-0.5
				v-1.08l17.375,4.964c0.09,0.025,0.185,0.025,0.274,0l17.351-4.957V52.1c-10.977,5.896-24.015,5.898-35,0v-7.503
				c0-0.276-0.224-0.5-0.5-0.5s-0.5,0.224-0.5,0.5v7.801c0,0.183,0.105,0.354,0.266,0.441c5.709,3.123,11.97,4.684,18.233,4.684
				c6.264,0,12.529-1.562,18.241-4.687c0.161-0.087,0.261-0.256,0.261-0.438V33.86C50.488,33.703,50.414,33.556,50.289,33.461z"/>
		</g>
	</g>
	<g>
		<g>
			<g>
				<path class="st0" d="M13.988,38.097c-0.276,0-0.5,0.224-0.5,0.5v3c0,0.276,0.224,0.5,0.5,0.5s0.5-0.224,0.5-0.5v-3
					C14.488,38.32,14.264,38.097,13.988,38.097z"/>
			</g>
		</g>
	</g>
	<g>
		<g>
			<path class="st4" d="M49.982,44.4c-11.213,6.133-24.776,6.133-35.989,0l-0.006-0.003v8l0.006,0.003
				c11.213,6.133,24.776,6.133,35.989,0l0.005-0.003v-8L49.982,44.4z"/>
		</g>
	</g>
	<g>
		<g>
			<g>
				<g>
					<path class="st0" d="M50.24,43.969c-0.153-0.089-0.343-0.091-0.498-0.007c-11.118,6.08-24.392,6.08-35.51,0
						c0,0-0.005-0.003-0.006-0.003c-0.155-0.086-0.343-0.083-0.495,0.009c-0.151,0.09-0.245,0.253-0.245,0.43v8
						c0,0.183,0.105,0.354,0.266,0.441c5.709,3.123,11.97,4.684,18.233,4.684c6.264,0,12.529-1.562,18.241-4.687
						c0.161-0.087,0.261-0.256,0.261-0.438v-8C50.488,44.221,50.392,44.059,50.24,43.969z M49.488,52.1
						c-10.977,5.896-24.015,5.898-35,0V45.23c11.017,5.723,23.978,5.723,35,0V52.1z"/>
				</g>
			</g>
		</g>
	</g>
	<g>
		<g>
			<path class="st0" d="M58.5,31.25c-0.276,0-0.5,0.224-0.5,0.5v15c0,0.276,0.224,0.5,0.5,0.5s0.5-0.224,0.5-0.5v-15
				C59,31.474,58.776,31.25,58.5,31.25z"/>
		</g>
	</g>
	<g>
		<g>
			<circle class="st2" cx="32" cy="16" r="9"/>
		</g>
	</g>
	<g>
		<g>
			<g>
				<g>
					<path class="st0" d="M32,6.5c-5.238,0-9.5,4.262-9.5,9.5s4.262,9.5,9.5,9.5s9.5-4.262,9.5-9.5S37.238,6.5,32,6.5z M32,24.5
						c-4.687,0-8.5-3.813-8.5-8.5s3.813-8.5,8.5-8.5s8.5,3.813,8.5,8.5S36.687,24.5,32,24.5z"/>
				</g>
			</g>
		</g>
	</g>
	<g>
		<g>
			<path class="st0" d="M63.635,29.519l-23.404-6.571c-0.265-0.073-0.542,0.081-0.617,0.347c-0.075,0.266,0.081,0.542,0.346,0.616
				l21.705,6.094L32,38.48L2.335,30.004L24.04,23.91c0.266-0.074,0.421-0.351,0.346-0.616s-0.348-0.42-0.617-0.347L0.365,29.519
				C0.149,29.579,0,29.775,0,29.999s0.147,0.42,0.363,0.481l31.5,9c0.045,0.013,0.091,0.02,0.137,0.02s0.092-0.007,0.137-0.02
				l31.5-9C63.853,30.419,64,30.223,64,29.999S63.851,29.579,63.635,29.519z"/>
		</g>
	</g>
	<g>
		<g>
			<g>
				<g>
					<g>
						<path class="st0" d="M32,9c-3.86,0-7,3.141-7,7s3.14,7,7,7s7-3.141,7-7S35.86,9,32,9z M32,22c-3.309,0-6-2.691-6-6
							s2.691-6,6-6s6,2.691,6,6S35.309,22,32,22z"/>
					</g>
				</g>
			</g>
		</g>
	</g>
	<g>
		<g>
			<path class="st0" d="M34.293,15.926c-0.283-0.282-0.659-0.438-1.058-0.438h-0.005l-2.485,0.008h-0.001
				c-0.274,0-0.498-0.222-0.5-0.496l-0.002-0.259c-0.001-0.134,0.051-0.261,0.146-0.355s0.221-0.147,0.354-0.147
				c0.001,0,0.002,0,0.002,0l3.005,0.012c0,0,0.002,0,0.002,0c0.275,0,0.499-0.223,0.5-0.498c0.001-0.276-0.222-0.501-0.498-0.502
				l-3.005-0.012h-0.006c-0.401,0-0.779,0.156-1.062,0.441c-0.285,0.286-0.44,0.665-0.438,1.069l0.002,0.259
				c0.006,0.821,0.678,1.488,1.5,1.488h0.005l2.485-0.008h0.001c0.133,0,0.259,0.052,0.353,0.146
				c0.095,0.095,0.147,0.221,0.147,0.354v0.25c0,0.274-0.223,0.499-0.498,0.5l-2.988,0.012c-0.276,0.001-0.499,0.226-0.498,0.502
				c0.001,0.275,0.225,0.498,0.5,0.498h0.002l2.988-0.012c0.824-0.003,1.494-0.676,1.494-1.5v-0.25
				C34.734,16.587,34.578,16.209,34.293,15.926z"/>
		</g>
	</g>
	<g>
		<g>
			<polygon class="st1" points="59.5,46.75 57.5,46.75 57,51.75 60,51.75 			"/>
		</g>
	</g>
	<g>
		<g>
			<g>
				<g>
					<path class="st0" d="M59.998,46.7c-0.025-0.256-0.241-0.45-0.498-0.45h-2c-0.257,0-0.472,0.194-0.498,0.45l-0.5,5
						c-0.014,0.141,0.032,0.28,0.127,0.386C56.724,52.19,56.859,52.25,57,52.25h3c0.141,0,0.276-0.06,0.371-0.164
						c0.095-0.105,0.141-0.245,0.127-0.386L59.998,46.7z M57.553,51.25l0.4-4h1.095l0.4,4H57.553z"/>
				</g>
			</g>
		</g>
	</g>
	<g>
		<g>
			<path class="st0" d="M7,9C6.724,9,6.5,9.224,6.5,9.5v4C6.5,13.776,6.724,14,7,14s0.5-0.224,0.5-0.5v-4C7.5,9.224,7.276,9,7,9z"/>
		</g>
	</g>
	<g>
		<g>
			<path class="st0" d="M9,11H5c-0.276,0-0.5,0.224-0.5,0.5S4.724,12,5,12h4c0.276,0,0.5-0.224,0.5-0.5S9.276,11,9,11z"/>
		</g>
	</g>
	<g>
		<g>
			<path class="st0" d="M15,16c-0.276,0-0.5,0.224-0.5,0.5v4c0,0.276,0.224,0.5,0.5,0.5s0.5-0.224,0.5-0.5v-4
				C15.5,16.224,15.276,16,15,16z"/>
		</g>
	</g>
	<g>
		<g>
			<path class="st0" d="M17,18h-4c-0.276,0-0.5,0.224-0.5,0.5S12.724,19,13,19h4c0.276,0,0.5-0.224,0.5-0.5S17.276,18,17,18z"/>
		</g>
	</g>
	<g>
		<g>
			<g>
				<g>
					<g>
						<path class="st0" d="M37.988,28h-12c-0.827,0-1.5,0.673-1.5,1.5v1c0,0.827,0.673,1.5,1.5,1.5h12c0.827,0,1.5-0.673,1.5-1.5v-1
							C39.488,28.673,38.815,28,37.988,28z M38.488,30.5c0,0.275-0.224,0.5-0.5,0.5h-12c-0.276,0-0.5-0.225-0.5-0.5v-1
							c0-0.275,0.224-0.5,0.5-0.5h12c0.276,0,0.5,0.225,0.5,0.5V30.5z"/>
					</g>
				</g>
			</g>
		</g>
	</g>
</g>
</svg>
