<?xml version="1.0" encoding="utf-8"?>
<!-- Generator: Adobe Illustrator 21.1.0, SVG Export Plug-In . SVG Version: 6.00 Build 0)  -->
<svg version="1.1" id="Icon_Set" xmlns="http://www.w3.org/2000/svg" xmlns:xlink="http://www.w3.org/1999/xlink" x="0px" y="0px"
	 viewBox="0 0 64 64" style="enable-background:new 0 0 64 64;" xml:space="preserve">
<style type="text/css">
	.st0{fill:#37474F;}
	.st1{fill:#EF5350;}
	.st2{fill:#FFCA28;}
	.st3{fill:#64B5F6;}
	.st4{fill:#FFFFFF;}
	.st5{fill:#FF7043;}
</style>
<g id="Know-How">
	<g>
		<g>
			<path class="st3" d="M41.5,20.897V4.75c0-1.381-1.119-2.5-2.5-2.5H5.5c-2.761,0-5,2.239-5,5v44.5c0-2.761,2.239-5,5-5h28.718
				c-2.13-1.335-4.009-3.231-5.227-6.017c-2.28-5.215-1.397-11.425,2.544-15.532C34.258,22.364,37.873,20.933,41.5,20.897z"/>
		</g>
	</g>
	<g>
		<g>
			<g>
				<g>
					<g>
						<path class="st0" d="M55.429,45.144l-3.662-3.663c-0.104-0.104-0.238-0.153-0.396-0.145c-0.146,0.012-0.28,0.088-0.365,0.208
							c-0.405,0.569-0.809,1.053-1.233,1.479c-0.426,0.425-0.909,0.828-1.479,1.233c-0.12,0.085-0.196,0.219-0.208,0.365
							c-0.013,0.147,0.04,0.292,0.145,0.396l3.663,3.662c0.098,0.098,0.226,0.146,0.354,0.146s0.256-0.049,0.354-0.146l2.828-2.828
							C55.624,45.655,55.624,45.339,55.429,45.144z M52.247,47.618l-2.899-2.898c0.417-0.323,0.79-0.649,1.132-0.99
							c0.341-0.342,0.667-0.715,0.99-1.132l2.898,2.899L52.247,47.618z"/>
					</g>
				</g>
			</g>
		</g>
	</g>
	<g>
		<g>
			<g>
				<g>
					<path class="st0" d="M48.357,28.173c-3.702-3.703-9.73-3.703-13.435,0c-3.704,3.704-3.704,9.73,0,13.435
						c1.852,1.852,4.284,2.778,6.717,2.778c2.434,0,4.866-0.927,6.718-2.778C52.062,37.903,52.062,31.877,48.357,28.173z
						 M47.65,40.9c-3.314,3.313-8.706,3.315-12.021,0c-3.314-3.314-3.314-8.706,0-12.021c1.657-1.657,3.834-2.485,6.01-2.485
						c2.177,0,4.354,0.828,6.011,2.485C50.965,32.194,50.965,37.586,47.65,40.9z M50.479,26.052c-4.873-4.873-12.805-4.873-17.678,0
						c-4.874,4.874-4.874,12.804,0,17.678c2.437,2.437,5.638,3.654,8.839,3.654s6.402-1.218,8.839-3.654
						C55.353,38.855,55.353,30.926,50.479,26.052z M49.772,43.022c-4.484,4.481-11.781,4.483-16.264,0
						c-4.483-4.484-4.483-11.779,0-16.264c2.242-2.242,5.187-3.363,8.132-3.363s5.89,1.121,8.132,3.363
						C54.255,31.243,54.255,38.538,49.772,43.022z"/>
				</g>
			</g>
		</g>
	</g>
	<g>
		<g>
			<path class="st0" d="M5.5,1.75C2.468,1.75,0,4.218,0,7.25v44.5c0,0.276,0.224,0.5,0.5,0.5S1,52.026,1,51.75V7.25
				c0-2.481,2.019-4.5,4.5-4.5c0.276,0,0.5-0.224,0.5-0.5S5.776,1.75,5.5,1.75z"/>
		</g>
	</g>
	<g>
		<g>
			<path class="st0" d="M11.5,1.75h-3C8.224,1.75,8,1.974,8,2.25s0.224,0.5,0.5,0.5h3c0.276,0,0.5-0.224,0.5-0.5
				S11.776,1.75,11.5,1.75z"/>
		</g>
	</g>
	<g>
		<g>
			<path class="st0" d="M39,1.75H14.5c-0.276,0-0.5,0.224-0.5,0.5s0.224,0.5,0.5,0.5H39c1.103,0,2,0.897,2,2v16.147
				c0,0.276,0.224,0.5,0.5,0.5s0.5-0.224,0.5-0.5V4.75C42,3.096,40.654,1.75,39,1.75z"/>
		</g>
	</g>
	<g>
		<g>
			<path class="st0" d="M41.5,48.384c-0.276,0-0.5,0.224-0.5,0.5v5.366c0,1.103-0.897,2-2,2H5.5c-1.265,0-2.479-0.537-3.33-1.474
				c-0.863-0.949-1.271-2.182-1.148-3.47C1.238,49.031,3.3,47.25,5.715,47.25h28.007c0.276,0,0.5-0.224,0.5-0.5s-0.224-0.5-0.5-0.5
				H5.715c-2.925,0-5.424,2.18-5.689,4.961c-0.149,1.572,0.349,3.078,1.404,4.238c1.041,1.145,2.524,1.801,4.07,1.801H39
				c1.654,0,3-1.346,3-3v-5.366C42,48.607,41.776,48.384,41.5,48.384z"/>
		</g>
	</g>
	<g>
		<g>
			<ellipse transform="matrix(0.7071 -0.7071 0.7071 0.7071 -12.475 39.6633)" class="st2" cx="41.64" cy="34.89" rx="9" ry="9"/>
		</g>
	</g>
	<g>
		<g>
			<g>
				<g>
					<path class="st0" d="M48.357,28.173c-3.702-3.703-9.73-3.703-13.435,0c-3.704,3.704-3.704,9.73,0,13.435
						c1.852,1.852,4.284,2.778,6.717,2.778c2.434,0,4.866-0.927,6.718-2.778C52.062,37.903,52.062,31.877,48.357,28.173z
						 M47.65,40.9c-3.314,3.313-8.706,3.315-12.021,0c-3.314-3.314-3.314-8.706,0-12.021c1.657-1.657,3.834-2.485,6.01-2.485
						c2.177,0,4.354,0.828,6.011,2.485C50.965,32.194,50.965,37.586,47.65,40.9z"/>
				</g>
			</g>
		</g>
	</g>
	<g>
		<g>
			<g>
				<path class="st0" d="M46.236,30.294c-1.228-1.228-2.859-1.903-4.596-1.903c-0.276,0-0.5,0.224-0.5,0.5s0.224,0.5,0.5,0.5
					c1.469,0,2.851,0.572,3.889,1.61c1.037,1.037,1.608,2.418,1.608,3.889c0,0.276,0.224,0.5,0.5,0.5s0.5-0.224,0.5-0.5
					C48.138,33.152,47.463,31.52,46.236,30.294z"/>
			</g>
		</g>
	</g>
	<g>
		<g>
			<path class="st1" d="M63.207,52.922l-7.071-7.071c-0.391-0.391-1.024-0.391-1.414,0l-2.121,2.121
				c-0.391,0.391-0.391,1.024,0,1.414l7.071,7.071c0.391,0.391,1.024,0.391,1.414,0l2.121-2.121
				C63.598,53.945,63.598,53.312,63.207,52.922z"/>
		</g>
	</g>
	<g>
		<g>
			<g>
				<g>
					<path class="st0" d="M63.561,52.568l-7.071-7.071c-0.584-0.584-1.537-0.584-2.121,0l-2.121,2.121
						c-0.585,0.585-0.585,1.536,0,2.121l7.071,7.071c0.292,0.292,0.677,0.438,1.061,0.438s0.769-0.146,1.061-0.438l2.121-2.121
						C64.146,54.104,64.146,53.153,63.561,52.568z M62.854,53.982l-2.121,2.121c-0.195,0.195-0.512,0.195-0.707,0l-7.071-7.071
						c-0.195-0.195-0.195-0.512,0-0.707l2.121-2.121c0.098-0.098,0.226-0.146,0.354-0.146s0.256,0.049,0.354,0.146l7.071,7.071
						C63.049,53.471,63.049,53.787,62.854,53.982z"/>
				</g>
			</g>
		</g>
	</g>
	<g>
		<g>
			<rect x="8" y="12.25" class="st4" width="26" height="5"/>
		</g>
	</g>
	<g>
		<g>
			<g>
				<g>
					<path class="st0" d="M34,11.75H8c-0.276,0-0.5,0.224-0.5,0.5v5c0,0.276,0.224,0.5,0.5,0.5h26c0.276,0,0.5-0.224,0.5-0.5v-5
						C34.5,11.974,34.276,11.75,34,11.75z M33.5,16.75h-25v-4h25V16.75z"/>
				</g>
			</g>
		</g>
	</g>
	<g>
		<g>
			<polyline class="st3" points="10.5,53.75 10.5,61.75 8,59.75 5.5,61.75 5.5,53.75 			"/>
		</g>
	</g>
	<g>
		<g>
			<path class="st0" d="M10.5,53.25c-0.276,0-0.5,0.224-0.5,0.5v6.96l-1.688-1.351c-0.184-0.146-0.441-0.146-0.625,0L6,60.71v-6.96
				c0-0.276-0.224-0.5-0.5-0.5S5,53.474,5,53.75v8c0,0.192,0.11,0.367,0.283,0.45c0.174,0.083,0.378,0.06,0.529-0.06L8,60.391
				l2.187,1.75c0.091,0.072,0.201,0.109,0.313,0.109c0.073,0,0.147-0.017,0.217-0.05C10.89,62.117,11,61.942,11,61.75v-8
				C11,53.474,10.776,53.25,10.5,53.25z"/>
		</g>
	</g>
	<g>
		<g>
			<path class="st0" d="M36.5,51.25h-31c-0.276,0-0.5,0.224-0.5,0.5s0.224,0.5,0.5,0.5h31c0.276,0,0.5-0.224,0.5-0.5
				S36.776,51.25,36.5,51.25z"/>
		</g>
	</g>
	<g>
		<g>
			<g>
				<path class="st0" d="M21,28.75H8c-0.276,0-0.5,0.224-0.5,0.5s0.224,0.5,0.5,0.5h13c0.276,0,0.5-0.224,0.5-0.5
					S21.276,28.75,21,28.75z"/>
			</g>
		</g>
	</g>
	<g>
		<g>
			<g>
				<path class="st0" d="M18,33.75H8c-0.276,0-0.5,0.224-0.5,0.5s0.224,0.5,0.5,0.5h10c0.276,0,0.5-0.224,0.5-0.5
					S18.276,33.75,18,33.75z"/>
			</g>
		</g>
	</g>
	<g>
		<g>
			<path class="st0" d="M62.146,51.154c-0.195-0.195-0.512-0.195-0.707,0l-3.535,3.535c-0.195,0.195-0.195,0.512,0,0.707
				c0.098,0.098,0.226,0.146,0.354,0.146s0.256-0.049,0.354-0.146l3.535-3.535C62.342,51.666,62.342,51.35,62.146,51.154z"/>
		</g>
	</g>
</g>
</svg>
