<?xml version="1.0" encoding="utf-8"?>
<!-- Generator: Adobe Illustrator 21.1.0, SVG Export Plug-In . SVG Version: 6.00 Build 0)  -->
<svg version="1.1" id="Icon_Set" xmlns="http://www.w3.org/2000/svg" xmlns:xlink="http://www.w3.org/1999/xlink" x="0px" y="0px"
	 viewBox="0 0 64 64" style="enable-background:new 0 0 64 64;" xml:space="preserve">
<style type="text/css">
	.st0{fill:#37474F;}
	.st1{fill:#EF5350;}
	.st2{fill:#FFCA28;}
	.st3{fill:#64B5F6;}
	.st4{fill:#FFFFFF;}
	.st5{fill:#FF7043;}
</style>
<g id="Knowledge_Mastery">
	<g>
		<g>
			<polyline class="st3" points="30.586,23.515 18.902,11.831 11.831,18.902 23.515,30.586 			"/>
		</g>
	</g>
	<g>
		<g>
			<path class="st0" d="M30.939,23.161L19.256,11.478c-0.195-0.195-0.512-0.195-0.707,0l-7.071,7.071
				c-0.094,0.094-0.146,0.221-0.146,0.354s0.053,0.26,0.146,0.354l11.684,11.683c0.098,0.098,0.226,0.146,0.354,0.146
				s0.256-0.049,0.354-0.146c0.195-0.195,0.195-0.512,0-0.707l-11.33-11.33l6.364-6.364l11.33,11.33
				c0.195,0.195,0.512,0.195,0.707,0S31.135,23.356,30.939,23.161z"/>
		</g>
	</g>
	<g>
		<g>
			<path class="st3" d="M33.414,40.485l19.783,19.783c0.976,0.976,2.559,0.976,3.536,0l3.536-3.536c0.976-0.976,0.976-2.559,0-3.536
				L40.485,33.414"/>
		</g>
	</g>
	<g>
		<g>
			<path class="st0" d="M60.621,52.843L40.839,33.061c-0.195-0.195-0.512-0.195-0.707,0s-0.195,0.512,0,0.707L59.914,53.55
				c0.378,0.378,0.586,0.88,0.586,1.414s-0.208,1.037-0.586,1.415l-3.535,3.536c-0.756,0.755-2.072,0.755-2.828,0L33.768,40.132
				c-0.195-0.195-0.512-0.195-0.707,0s-0.195,0.512,0,0.707l19.783,19.783c0.566,0.566,1.319,0.878,2.121,0.878
				c0.801,0,1.555-0.312,2.121-0.878l3.535-3.536c0.566-0.567,0.879-1.32,0.879-2.122S61.187,53.41,60.621,52.843z"/>
		</g>
	</g>
	<g>
		<g>
			<g>
				<g>
					<g>
						<path class="st0" d="M19.256,11.478L15.72,7.942c-0.045-0.045-0.098-0.081-0.157-0.106L3.197,2.541
							C3.01,2.459,2.791,2.502,2.646,2.646C2.502,2.791,2.46,3.009,2.541,3.197l5.295,12.367c0.025,0.059,0.061,0.112,0.106,0.157
							l3.536,3.536c0.098,0.098,0.226,0.146,0.354,0.146s0.256-0.049,0.354-0.146l7.071-7.071
							C19.451,11.989,19.451,11.673,19.256,11.478z M11.831,18.195l-3.114-3.114L3.951,3.951l11.13,4.766l3.114,3.114L11.831,18.195
							z"/>
					</g>
				</g>
			</g>
		</g>
	</g>
	<g>
		<g>
			<g>
				<g>
					<g>
						<path class="st0" d="M8.147,4.661l-4.951-2.12C3.01,2.459,2.791,2.502,2.646,2.646C2.502,2.791,2.46,3.009,2.541,3.197
							l2.12,4.951C4.726,8.3,4.863,8.41,5.025,8.441C5.057,8.448,5.089,8.451,5.12,8.451c0.131,0,0.259-0.052,0.354-0.146
							l2.831-2.831c0.117-0.117,0.169-0.285,0.137-0.448C8.41,4.863,8.3,4.726,8.147,4.661z M5.289,7.075L3.951,3.951l3.124,1.338
							L5.289,7.075z"/>
					</g>
				</g>
			</g>
		</g>
	</g>
	<g>
		<g>
			
				<rect x="46.783" y="47.283" transform="matrix(0.7071 -0.7071 0.7071 0.7071 -21.449 51.7823)" class="st1" width="10" height="9"/>
		</g>
	</g>
	<g>
		<g>
			<g>
				<g>
					<path class="st0" d="M58.854,51.076l-6.364-6.364c-0.188-0.188-0.52-0.188-0.707,0l-7.07,7.071
						c-0.195,0.195-0.195,0.512,0,0.707l6.363,6.364C51.169,58.947,51.296,59,51.429,59s0.26-0.053,0.354-0.146l7.071-7.071
						C58.947,51.689,59,51.562,59,51.429S58.947,51.169,58.854,51.076z M51.429,57.793l-5.656-5.657l6.363-6.364l5.657,5.657
						L51.429,57.793z"/>
				</g>
			</g>
		</g>
	</g>
	<g>
		<g>
			<path class="st0" d="M27.395,26.688L15.72,15.013c-0.195-0.195-0.512-0.195-0.707,0s-0.195,0.512,0,0.707l11.675,11.675
				c0.098,0.098,0.226,0.146,0.354,0.146s0.256-0.049,0.354-0.146C27.59,27.2,27.59,26.883,27.395,26.688z"/>
		</g>
	</g>
	<g>
		<g>
			<path class="st0" d="M48.954,48.247l-11.65-11.65c-0.195-0.195-0.512-0.195-0.707,0s-0.195,0.512,0,0.707l11.65,11.65
				c0.098,0.098,0.226,0.146,0.354,0.146s0.256-0.049,0.354-0.146C49.149,48.759,49.149,48.442,48.954,48.247z"/>
		</g>
	</g>
	<g>
		<g>
			<path class="st2" d="M31.999,41.899L17.78,56.118C21.948,58.581,26.807,60,32,60c5.192,0,10.051-1.418,14.219-3.881
				L31.999,41.899z"/>
		</g>
	</g>
	<g>
		<g>
			<g>
				<g>
					<g>
						<path class="st0" d="M61.354,2.646c-0.145-0.144-0.363-0.187-0.551-0.106L48.437,7.836c-0.058,0.025-0.111,0.061-0.156,0.106
							l-3.536,3.536c-0.094,0.094-0.146,0.221-0.146,0.354s0.053,0.26,0.146,0.354l7.071,7.071c0.094,0.094,0.221,0.146,0.354,0.146
							s0.26-0.053,0.354-0.146l3.535-3.536c0.045-0.045,0.081-0.098,0.106-0.157L61.46,3.197C61.54,3.009,61.498,2.791,61.354,2.646
							z M55.282,15.082l-3.113,3.114l-6.364-6.364l3.114-3.114l11.13-4.766L55.282,15.082z"/>
					</g>
				</g>
			</g>
		</g>
	</g>
	<g>
		<g>
			<g>
				<g>
					<g>
						<path class="st0" d="M61.354,2.646c-0.145-0.144-0.363-0.187-0.551-0.106l-4.951,2.12c-0.152,0.065-0.263,0.202-0.294,0.365
							c-0.031,0.163,0.021,0.331,0.138,0.448l2.831,2.831c0.095,0.095,0.223,0.146,0.354,0.146c0.031,0,0.063-0.003,0.095-0.009
							c0.163-0.031,0.3-0.142,0.365-0.294l2.12-4.951C61.54,3.009,61.498,2.791,61.354,2.646z M58.711,7.075l-1.786-1.786
							l3.124-1.338L58.711,7.075z"/>
					</g>
				</g>
			</g>
		</g>
	</g>
	<g>
		<g>
			<path class="st3" d="M36.613,20.316l-32.88,32.88c-0.976,0.976-0.976,2.559,0,3.536l3.536,3.536c0.976,0.976,2.559,0.976,3.536,0
				l41.366-41.366l-7.071-7.071l-2.121,2.121"/>
		</g>
	</g>
	<g>
		<g>
			<path class="st0" d="M52.522,18.549l-7.071-7.071c-0.188-0.188-0.52-0.188-0.707,0l-2.121,2.122
				c-0.195,0.195-0.195,0.512,0,0.707s0.512,0.195,0.707,0l1.768-1.768l6.364,6.364L10.45,59.915c-0.779,0.779-2.048,0.78-2.829,0
				l-3.536-3.536c-0.779-0.78-0.779-2.049,0-2.829l32.88-32.88c0.195-0.195,0.195-0.512,0-0.707s-0.512-0.195-0.707,0l-32.88,32.88
				c-1.169,1.17-1.169,3.073,0,4.243l3.536,3.536c0.585,0.584,1.353,0.877,2.121,0.877c0.769,0,1.537-0.292,2.122-0.877
				l41.366-41.366C52.718,19.061,52.718,18.744,52.522,18.549z"/>
		</g>
	</g>
	<g>
		<g>
			
				<rect x="7.717" y="46.783" transform="matrix(0.7071 -0.7071 0.7071 0.7071 -33.0373 23.8055)" class="st1" width="9" height="10"/>
		</g>
	</g>
	<g>
		<g>
			<g>
				<g>
					<path class="st0" d="M19.289,51.783l-7.071-7.071c-0.188-0.188-0.52-0.188-0.707,0l-6.364,6.364
						c-0.195,0.195-0.195,0.512,0,0.707l7.071,7.071C12.315,58.951,12.443,59,12.571,59s0.256-0.049,0.354-0.146l6.364-6.364
						c0.094-0.094,0.146-0.221,0.146-0.354S19.382,51.876,19.289,51.783z M12.571,57.793l-6.364-6.364l5.657-5.657l6.364,6.364
						L12.571,57.793z"/>
				</g>
			</g>
		</g>
	</g>
	<g>
		<g>
			<path class="st0" d="M48.987,15.013c-0.195-0.195-0.512-0.195-0.707,0L15.046,48.247c-0.195,0.195-0.195,0.512,0,0.707
				c0.098,0.098,0.226,0.146,0.354,0.146s0.256-0.049,0.354-0.146L48.987,15.72C49.183,15.525,49.183,15.208,48.987,15.013z"/>
		</g>
	</g>
	<g>
		<g>
			<path class="st2" d="M10.417,20.316l-2.536-2.536C5.418,21.949,4,26.808,4,32c0,5.192,1.418,10.05,3.881,14.218L22.1,31.999
				L10.417,20.316z"/>
		</g>
	</g>
	<g>
		<g>
			<path class="st0" d="M46.649,55.865c-0.143-0.238-0.451-0.316-0.685-0.176C41.744,58.182,36.915,59.5,32,59.5
				c-4.916,0-9.746-1.318-13.966-3.812c-0.237-0.139-0.543-0.061-0.685,0.176c-0.14,0.238-0.062,0.544,0.176,0.685
				C21.9,59.134,26.905,60.5,32,60.5c5.094,0,10.099-1.366,14.473-3.95C46.711,56.409,46.79,56.103,46.649,55.865z"/>
		</g>
	</g>
	<g>
		<g>
			<path class="st0" d="M40.742,49.979c-0.114-0.251-0.411-0.36-0.663-0.248c-5.141,2.348-11.018,2.347-16.16,0
				c-0.251-0.113-0.548-0.003-0.663,0.248c-0.114,0.251-0.004,0.548,0.248,0.663C26.207,51.875,29.065,52.5,32,52.5
				c2.936,0,5.793-0.625,8.495-1.858C40.746,50.527,40.856,50.23,40.742,49.979z"/>
		</g>
	</g>
	<g>
		<g>
			<path class="st0" d="M12.5,32c0-2.791,0.595-5.509,1.769-8.08c0.114-0.251,0.004-0.548-0.248-0.663
				c-0.251-0.114-0.548-0.004-0.663,0.248C12.125,26.207,11.5,29.065,11.5,32c0,2.934,0.625,5.792,1.858,8.494
				c0.084,0.184,0.266,0.292,0.456,0.292c0.069,0,0.14-0.015,0.207-0.045c0.251-0.115,0.362-0.412,0.248-0.663
				C13.095,37.508,12.5,34.79,12.5,32z"/>
		</g>
	</g>
	<g>
		<g>
			<path class="st2" d="M32,4c-5.192,0-10.051,1.418-14.219,3.881l2.536,2.536L31.999,22.1l11.683-11.683l2.536-2.536
				C42.05,5.418,37.192,4,32,4z"/>
		</g>
	</g>
	<g>
		<g>
			<path class="st2" d="M56.118,17.779l-2.537,2.537L41.898,31.999l14.22,14.22C58.581,42.051,60,37.192,60,32
				C60,26.807,58.581,21.948,56.118,17.779z"/>
		</g>
	</g>
	<g>
		<g>
			<path class="st0" d="M40.493,13.358c-5.401-2.465-11.582-2.465-16.988,0c-0.251,0.115-0.362,0.412-0.248,0.663
				c0.084,0.184,0.266,0.292,0.456,0.292c0.069,0,0.14-0.015,0.207-0.045c5.143-2.348,11.018-2.347,16.157,0
				c0.252,0.113,0.549,0.004,0.663-0.248C40.854,13.77,40.744,13.473,40.493,13.358z"/>
		</g>
	</g>
	<g>
		<g>
			<path class="st0" d="M50.641,23.504c-0.114-0.251-0.41-0.361-0.663-0.247c-0.251,0.114-0.361,0.411-0.247,0.662
				c1.174,2.571,1.77,5.29,1.77,8.081c0,2.79-0.595,5.508-1.769,8.08c-0.114,0.251-0.004,0.548,0.247,0.663
				c0.067,0.03,0.139,0.045,0.208,0.045c0.189,0,0.371-0.108,0.455-0.292C51.875,37.792,52.5,34.934,52.5,32
				C52.5,29.064,51.874,26.206,50.641,23.504z"/>
		</g>
	</g>
	<g>
		<g>
			<path class="st0" d="M4.5,31.984c0-4.915,1.318-9.744,3.812-13.965c0.14-0.238,0.062-0.544-0.176-0.685
				c-0.238-0.139-0.544-0.061-0.685,0.176C4.866,21.885,3.5,26.89,3.5,31.984c0,5.094,1.366,10.098,3.95,14.473
				c0.093,0.158,0.26,0.246,0.431,0.246c0.086,0,0.174-0.022,0.254-0.069c0.238-0.141,0.316-0.447,0.176-0.685
				C5.818,41.728,4.5,36.899,4.5,31.984z"/>
		</g>
	</g>
	<g>
		<g>
			<path class="st0" d="M46.472,7.45C42.098,4.866,37.094,3.5,32,3.5c-5.094,0-10.099,1.366-14.474,3.951
				c-0.238,0.141-0.316,0.447-0.176,0.685c0.093,0.158,0.26,0.246,0.431,0.246c0.086,0,0.174-0.022,0.254-0.069
				C22.256,5.818,27.084,4.5,32,4.5c4.914,0,9.743,1.318,13.964,3.812c0.235,0.139,0.543,0.062,0.685-0.176
				C46.789,7.897,46.71,7.591,46.472,7.45z"/>
		</g>
	</g>
	<g>
		<g>
			<path class="st0" d="M56.549,17.525c-0.142-0.239-0.451-0.316-0.685-0.176c-0.238,0.141-0.317,0.447-0.177,0.685
				C58.182,22.255,59.5,27.085,59.5,32s-1.318,9.744-3.813,13.965c-0.141,0.238-0.062,0.544,0.177,0.685
				c0.079,0.047,0.167,0.069,0.254,0.069c0.171,0,0.337-0.088,0.431-0.246C59.134,42.099,60.5,37.094,60.5,32
				C60.5,26.906,59.134,21.9,56.549,17.525z"/>
		</g>
	</g>
	<g>
		<g>
			<g>
				<line class="st3" x1="40.898" y1="16.031" x2="38.776" y2="18.153"/>
			</g>
		</g>
		<g>
			<g>
				<path class="st0" d="M41.251,15.678c-0.195-0.195-0.512-0.195-0.707,0l-2.121,2.121c-0.195,0.195-0.195,0.512,0,0.707
					c0.098,0.098,0.226,0.146,0.354,0.146s0.256-0.049,0.354-0.146l2.121-2.121C41.446,16.189,41.446,15.873,41.251,15.678z"/>
			</g>
		</g>
	</g>
</g>
</svg>
