<?xml version="1.0" encoding="utf-8"?>
<!-- Generator: Adobe Illustrator 21.1.0, SVG Export Plug-In . SVG Version: 6.00 Build 0)  -->
<svg version="1.1" id="Icon_Set" xmlns="http://www.w3.org/2000/svg" xmlns:xlink="http://www.w3.org/1999/xlink" x="0px" y="0px"
	 viewBox="0 0 64 64" style="enable-background:new 0 0 64 64;" xml:space="preserve">
<style type="text/css">
	.st0{fill:#37474F;}
	.st1{fill:#EF5350;}
	.st2{fill:#FFCA28;}
	.st3{fill:#64B5F6;}
	.st4{fill:#FFFFFF;}
	.st5{fill:#FF7043;}
</style>
<g id="Language_Learning">
	<g>
		<g>
			<g>
				<path class="st0" d="M51,36.5H36c-0.276,0-0.5,0.224-0.5,0.5s0.224,0.5,0.5,0.5h15c0.276,0,0.5-0.224,0.5-0.5
					S51.276,36.5,51,36.5z"/>
			</g>
		</g>
	</g>
	<g>
		<g>
			<g>
				<path class="st0" d="M24,28.462H10c-0.276,0-0.5,0.224-0.5,0.5s0.224,0.5,0.5,0.5h14c0.276,0,0.5-0.224,0.5-0.5
					S24.276,28.462,24,28.462z"/>
			</g>
		</g>
	</g>
	<g>
		<g>
			<g>
				<path class="st0" d="M24,32.462H10c-0.276,0-0.5,0.224-0.5,0.5s0.224,0.5,0.5,0.5h14c0.276,0,0.5-0.224,0.5-0.5
					S24.276,32.462,24,32.462z"/>
			</g>
		</g>
	</g>
	<g>
		<g>
			<g>
				<path class="st0" d="M24,36.462H10c-0.276,0-0.5,0.224-0.5,0.5s0.224,0.5,0.5,0.5h14c0.276,0,0.5-0.224,0.5-0.5
					S24.276,36.462,24,36.462z"/>
			</g>
		</g>
	</g>
	<g>
		<g>
			<g>
				<path class="st0" d="M24,40.462H10c-0.276,0-0.5,0.224-0.5,0.5s0.224,0.5,0.5,0.5h14c0.276,0,0.5-0.224,0.5-0.5
					S24.276,40.462,24,40.462z"/>
			</g>
		</g>
	</g>
	<g>
		<g>
			<g>
				<path class="st0" d="M51,32.462h-7c-0.276,0-0.5,0.224-0.5,0.5s0.224,0.5,0.5,0.5h7c0.276,0,0.5-0.224,0.5-0.5
					S51.276,32.462,51,32.462z"/>
			</g>
		</g>
	</g>
	<g>
		<g>
			<g>
				<path class="st0" d="M51,40.462H36.02c-0.276,0-0.5,0.224-0.5,0.5s0.224,0.5,0.5,0.5H51c0.276,0,0.5-0.224,0.5-0.5
					S51.276,40.462,51,40.462z"/>
			</g>
		</g>
	</g>
	<g>
		<g>
			<path class="st2" d="M10,4H8C6.62,4,5.5,5.119,5.5,6.5v10C5.5,17.881,6.62,19,8,19h9.5l3,4l3-4H33c1.381,0,2.5-1.119,2.5-2.5v-10
				C35.5,5.119,34.381,4,33,4H19"/>
		</g>
	</g>
	<g>
		<g>
			<path class="st0" d="M33,3.5H19c-0.276,0-0.5,0.224-0.5,0.5s0.224,0.5,0.5,0.5h14c1.103,0,2,0.897,2,2v10c0,1.103-0.897,2-2,2
				h-9.5c-0.157,0-0.306,0.074-0.4,0.2l-2.6,3.466L17.9,18.7c-0.094-0.126-0.243-0.2-0.4-0.2H8c-1.103,0-2-0.897-2-2v-10
				c0-1.103,0.897-2,2-2h2c0.276,0,0.5-0.224,0.5-0.5S10.277,3.5,10,3.5H8c-1.654,0-3,1.346-3,3v10c0,1.654,1.346,3,3,3h9.25
				l2.85,3.8c0.094,0.126,0.243,0.2,0.4,0.2s0.306-0.074,0.4-0.2l2.85-3.8H33c1.654,0,3-1.346,3-3v-10C36,4.846,34.654,3.5,33,3.5z"
				/>
		</g>
	</g>
	<g>
		<g>
			<path class="st0" d="M15.958,14.276l-3-6c-0.17-0.339-0.725-0.339-0.895,0l-3,6c-0.124,0.247-0.023,0.547,0.224,0.671
				c0.247,0.122,0.547,0.024,0.671-0.224l2.553-5.105l2.553,5.105C15.151,14.899,15.328,15,15.511,15
				c0.075,0,0.151-0.017,0.223-0.053C15.981,14.824,16.082,14.523,15.958,14.276z"/>
		</g>
	</g>
	<g>
		<g>
			<path class="st0" d="M14.761,12.5h-4.5c-0.276,0-0.5,0.224-0.5,0.5s0.224,0.5,0.5,0.5h4.5c0.276,0,0.5-0.224,0.5-0.5
				S15.037,12.5,14.761,12.5z"/>
		</g>
	</g>
	<g>
		<g>
			<g>
				<g>
					<g>
						<path class="st0" d="M21.99,11h-3.5c-0.276,0-0.5,0.224-0.5,0.5v3c0,0.276,0.224,0.5,0.5,0.5h3.5c1.103,0,2-0.897,2-2
							S23.093,11,21.99,11z M21.99,14h-3v-2h3c0.551,0,1,0.449,1,1S22.541,14,21.99,14z"/>
					</g>
				</g>
			</g>
		</g>
	</g>
	<g>
		<g>
			<g>
				<g>
					<g>
						<path class="st0" d="M21.49,8h-3c-0.276,0-0.5,0.224-0.5,0.5v3c0,0.276,0.224,0.5,0.5,0.5h3c1.103,0,2-0.897,2-2
							S22.593,8,21.49,8z M21.49,11h-2.5V9h2.5c0.551,0,1,0.449,1,1S22.041,11,21.49,11z"/>
					</g>
				</g>
			</g>
		</g>
	</g>
	<g>
		<g>
			<path class="st0" d="M31.49,14h-2c-1.378,0-2.5-1.122-2.5-2.5S28.111,9,29.49,9h2c0.276,0,0.5-0.224,0.5-0.5S31.766,8,31.49,8h-2
				c-1.93,0-3.5,1.57-3.5,3.5s1.57,3.5,3.5,3.5h2c0.276,0,0.5-0.224,0.5-0.5S31.766,14,31.49,14z"/>
		</g>
	</g>
	<g>
		<g>
			<path class="st1" d="M62.768,5.439l-0.707-0.707c-0.976-0.976-2.559-0.976-3.536,0L39.08,24.178l4.243,4.243L62.768,8.975
				C63.744,7.999,63.744,6.416,62.768,5.439z"/>
		</g>
	</g>
	<g>
		<g>
			<g>
				<g>
					<path class="st0" d="M63.121,5.086l-0.707-0.707c-1.133-1.133-3.109-1.134-4.242,0L38.727,23.824
						c-0.195,0.195-0.195,0.512,0,0.707l4.242,4.243c0.094,0.094,0.221,0.146,0.354,0.146s0.26-0.053,0.354-0.146L63.121,9.329
						C63.687,8.762,64,8.008,64,7.207S63.687,5.652,63.121,5.086z M62.414,8.622L43.322,27.713l-3.535-3.536L58.879,5.086
						c0.756-0.756,2.072-0.756,2.828,0l0.707,0.707C62.792,6.171,63,6.673,63,7.207S62.792,8.244,62.414,8.622z"/>
				</g>
			</g>
		</g>
	</g>
	<g>
		<g>
			<g>
				<g>
					<g>
						<path class="st0" d="M43.676,28.067l-4.242-4.243c-0.195-0.195-0.512-0.195-0.707,0L35.19,27.36
							c-0.055,0.055-0.097,0.122-0.121,0.195l-2.121,6.364c-0.06,0.18-0.013,0.378,0.121,0.512c0.096,0.095,0.223,0.146,0.354,0.146
							c0.053,0,0.106-0.008,0.158-0.026l6.364-2.121c0.073-0.024,0.141-0.066,0.195-0.121l3.535-3.536
							C43.871,28.579,43.871,28.262,43.676,28.067z M39.517,31.519l-5.304,1.768l1.768-5.303l3.1-3.099l3.535,3.536L39.517,31.519z"
							/>
					</g>
				</g>
			</g>
		</g>
	</g>
	<g>
		<g>
			<g>
				<g>
					<g>
						<path class="st0" d="M38.02,32.31l-2.829-2.829c-0.122-0.123-0.3-0.173-0.469-0.133c-0.168,0.04-0.305,0.165-0.359,0.329
							l-1.414,4.243c-0.06,0.18-0.013,0.378,0.121,0.512c0.096,0.095,0.223,0.146,0.354,0.146c0.053,0,0.106-0.008,0.158-0.026
							l4.243-1.414c0.164-0.055,0.289-0.19,0.328-0.359C38.192,32.609,38.143,32.432,38.02,32.31z M34.213,33.287l0.843-2.526
							l1.685,1.684L34.213,33.287z"/>
					</g>
				</g>
			</g>
		</g>
	</g>
	<g>
		<g>
			<path class="st0" d="M55.697,4.732c-0.195-0.195-0.512-0.195-0.707,0l-7.071,7.071c-0.195,0.195-0.195,0.512,0,0.707
				c0.098,0.098,0.226,0.146,0.354,0.146s0.256-0.049,0.354-0.146l7.071-7.071C55.893,5.244,55.893,4.928,55.697,4.732z"/>
		</g>
	</g>
	<g>
		<g>
			<path class="st3" d="M57,18h-0.429L56,18.571V47.5c0,1.381-1.119,2.5-2.5,2.5H35c-2.761,0-5,2.239-5,5v5c0-2.761,2.239-5,5-5h22
				c1.381,0,2.5-1.119,2.5-2.5v-32C59.5,19.119,58.381,18,57,18z"/>
		</g>
	</g>
	<g>
		<g>
			<g>
				<g>
					<g>
						<path class="st0" d="M57,17.5h-0.429c-0.133,0-0.26,0.053-0.354,0.146l-0.571,0.571c-0.094,0.094-0.146,0.221-0.146,0.354
							V47.5c0,1.103-0.897,2-2,2H35c-3.033,0-5.5,2.467-5.5,5.5v5c0,0.276,0.224,0.5,0.5,0.5s0.5-0.224,0.5-0.5
							c0-2.481,2.019-4.5,4.5-4.5h22c1.654,0,3-1.346,3-3v-32C60,18.846,58.654,17.5,57,17.5z M59,52.5c0,1.103-0.897,2-2,2H35
							c-1.858,0-3.504,0.926-4.5,2.341V55c0-2.481,2.019-4.5,4.5-4.5h18.5c1.654,0,3-1.346,3-3V18.778l0.278-0.278H57
							c1.103,0,2,0.897,2,2V52.5z"/>
					</g>
				</g>
			</g>
		</g>
	</g>
	<g>
		<g>
			<path class="st3" d="M25,50H6.5C5.12,50,4,48.881,4,47.5V18.571L3.429,18H3c-1.381,0-2.5,1.119-2.5,2.5v32
				C0.5,53.881,1.62,55,3,55h22c2.761,0,5,2.239,5,5v-5C30,52.239,27.762,50,25,50z"/>
		</g>
	</g>
	<g>
		<g>
			<g>
				<g>
					<g>
						<path class="st0" d="M25,49.5H6.5c-1.103,0-2-0.897-2-2V18.571c0-0.133-0.053-0.26-0.146-0.354l-0.571-0.571
							C3.689,17.553,3.562,17.5,3.429,17.5H3c-1.654,0-3,1.346-3,3v32c0,1.654,1.346,3,3,3h22c2.481,0,4.5,2.019,4.5,4.5
							c0,0.276,0.224,0.5,0.5,0.5s0.5-0.224,0.5-0.5v-5C30.5,51.967,28.033,49.5,25,49.5z M29.5,56.841
							C28.504,55.426,26.858,54.5,25,54.5H3c-1.103,0-2-0.897-2-2v-32c0-1.103,0.897-2,2-2h0.222L3.5,18.778V47.5
							c0,1.654,1.346,3,3,3H25c2.481,0,4.5,2.019,4.5,4.5V56.841z"/>
					</g>
				</g>
			</g>
		</g>
	</g>
	<g>
		<g>
			<path class="st0" d="M30,20.45c-0.276,0-0.5,0.224-0.5,0.5V55c0,0.276,0.224,0.5,0.5,0.5s0.5-0.224,0.5-0.5V20.95
				C30.5,20.673,30.276,20.45,30,20.45z"/>
		</g>
	</g>
	<g>
		<g>
			<path class="st0" d="M46.467,12.5H37.5c-0.276,0-0.5,0.224-0.5,0.5s0.224,0.5,0.5,0.5h8.967c0.276,0,0.5-0.224,0.5-0.5
				S46.743,12.5,46.467,12.5z"/>
		</g>
	</g>
	<g>
		<g>
			<g>
				<path class="st0" d="M16,3.5h-3c-0.276,0-0.5,0.224-0.5,0.5s0.224,0.5,0.5,0.5h3c0.276,0,0.5-0.224,0.5-0.5S16.277,3.5,16,3.5z"
					/>
			</g>
		</g>
	</g>
</g>
</svg>
