<?xml version="1.0" encoding="utf-8"?>
<!-- Generator: Adobe Illustrator 21.1.0, SVG Export Plug-In . SVG Version: 6.00 Build 0)  -->
<svg version="1.1" id="Icon_Set" xmlns="http://www.w3.org/2000/svg" xmlns:xlink="http://www.w3.org/1999/xlink" x="0px" y="0px"
	 viewBox="0 0 64 64" style="enable-background:new 0 0 64 64;" xml:space="preserve">
<style type="text/css">
	.st0{fill:#37474F;}
	.st1{fill:#EF5350;}
	.st2{fill:#FFCA28;}
	.st3{fill:#64B5F6;}
	.st4{fill:#FFFFFF;}
	.st5{fill:#FF7043;}
</style>
<g id="Learning_Support">
	<g>
		<g>
			<path class="st3" d="M37.496,34.034L25.5,29.8c-1.54,3.466-6.46,3.466-8,0L5.504,34.034C2.505,35.092,0.5,37.927,0.5,41.106V50.3
				h5v-8.8c0-0.604,0.273-1.176,0.743-1.556c0.469-0.38,1.087-0.525,1.676-0.4L21.5,42.455l13.581-2.911
				c0.59-0.123,1.207,0.021,1.676,0.4c0.47,0.38,0.743,0.952,0.743,1.556v8.8h5v-9.194C42.5,37.927,40.495,35.092,37.496,34.034z"/>
		</g>
	</g>
	<g>
		<g>
			<circle class="st0" cx="25" cy="15.3" r="1"/>
		</g>
	</g>
	<g>
		<g>
			<circle class="st0" cx="18" cy="15.3" r="1"/>
		</g>
	</g>
	<g>
		<g>
			<g>
				<g>
					<g>
						<path class="st0" d="M25.782,26.626c-0.137-0.093-0.31-0.11-0.464-0.053c-2.459,0.965-5.177,0.965-7.635,0
							c-0.154-0.059-0.327-0.041-0.464,0.053C17.082,26.719,17,26.874,17,27.039V29.8c0,0.07,0.015,0.139,0.043,0.203
							c0.794,1.786,2.501,2.896,4.457,2.896h0c1.955,0,3.663-1.11,4.457-2.896C25.985,29.938,26,29.87,26,29.8v-2.761
							C26,26.874,25.918,26.719,25.782,26.626z M25,29.69c-0.648,1.365-1.98,2.209-3.5,2.209c-1.52,0-2.851-0.844-3.5-2.209v-1.942
							c2.272,0.732,4.728,0.732,7,0V29.69z"/>
					</g>
				</g>
			</g>
		</g>
	</g>
	<g>
		<g>
			<path class="st0" d="M32.5,13.8c-0.276,0-0.5,0.224-0.5,0.5s0.224,0.5,0.5,0.5c1.103,0,2,0.897,2,2s-0.897,2-2,2
				c-0.051,0-0.099-0.008-0.229-0.025c-0.253-0.036-0.491,0.135-0.548,0.384C30.622,23.952,26.418,27.3,21.5,27.3
				s-9.123-3.348-10.224-8.142c-0.059-0.253-0.375-0.416-0.627-0.373C10.6,18.792,10.551,18.8,10.5,18.8c-1.103,0-2-0.897-2-2
				s0.897-2,2-2c0.276,0,0.5-0.224,0.5-0.5v-1.5c0-0.276-0.224-0.5-0.5-0.5S10,12.523,10,12.8v1.042
				C8.583,14.08,7.5,15.316,7.5,16.8c0,1.622,1.294,2.948,2.905,2.998C11.754,24.825,16.256,28.3,21.5,28.3
				c5.243,0,9.746-3.475,11.095-8.502c1.61-0.05,2.905-1.376,2.905-2.998C35.5,15.146,34.154,13.8,32.5,13.8z"/>
		</g>
	</g>
	<g>
		<g>
			<path class="st0" d="M37.662,33.562l-11.996-4.234c-0.261-0.094-0.546,0.044-0.638,0.306c-0.092,0.26,0.045,0.546,0.305,0.638
				l11.997,4.234c2.793,0.985,4.67,3.638,4.67,6.601V53.3c0,0.276,0.224,0.5,0.5,0.5s0.5-0.224,0.5-0.5V41.106
				C43,37.721,40.855,34.688,37.662,33.562z"/>
		</g>
	</g>
	<g>
		<g>
			<path class="st0" d="M17.972,29.634c-0.092-0.261-0.377-0.398-0.638-0.306L5.337,33.562C2.145,34.688,0,37.721,0,41.106V53.3
				c0,0.276,0.224,0.5,0.5,0.5S1,53.576,1,53.3V41.106c0-2.963,1.876-5.615,4.67-6.601l11.997-4.234
				C17.927,30.18,18.063,29.894,17.972,29.634z"/>
		</g>
	</g>
	<g>
		<g>
			<g>
				<path class="st0" d="M21.5,44c-0.276,0-0.5,0.224-0.5,0.5v19c0,0.276,0.224,0.5,0.5,0.5s0.5-0.224,0.5-0.5v-19
					C22,44.224,21.776,44,21.5,44z"/>
			</g>
		</g>
	</g>
	<g>
		<g>
			<path class="st2" d="M30,4h-0.5v7.8c0,1.381,1.119,2.5,2.5,2.5h0.5V6.5C32.5,5.119,31.38,4,30,4z"/>
		</g>
	</g>
	<g>
		<g>
			<g>
				<g>
					<path class="st0" d="M30,3.5h-0.5C29.224,3.5,29,3.724,29,4v7.8c0,1.654,1.346,3,3,3h0.5c0.276,0,0.5-0.224,0.5-0.5V6.5
						C33,4.846,31.654,3.5,30,3.5z M32,13.8c-1.103,0-2-0.897-2-2V4.5c1.103,0,2,0.897,2,2V13.8z"/>
				</g>
			</g>
		</g>
	</g>
	<g>
		<g>
			<path class="st2" d="M26.495,0.5H18.96c-1.985,0-3.834,0.578-5.39,1.575c-0.856,0.549-1.623,1.224-2.274,2
				c-0.628,0.748-1.148,1.589-1.537,2.5C9.351,7.533,9.087,8.568,8.996,9.653C8.972,9.932,8.96,10.215,8.96,10.5v2.15l6.215-1.137
				c4.345-0.795,8.403-2.727,11.759-5.599l1.186-1.015C29.884,3.389,28.817,0.5,26.495,0.5z"/>
		</g>
	</g>
	<g>
		<g>
			<path class="st0" d="M29.309,1.96C28.869,0.77,27.764,0,26.495,0H18.96c-2.015,0-3.972,0.572-5.66,1.654
				c-0.232,0.149-0.3,0.458-0.151,0.69c0.149,0.233,0.458,0.301,0.691,0.151C15.367,1.518,17.138,1,18.96,1h7.534
				c1.027,0,1.643,0.675,1.876,1.307c0.234,0.632,0.205,1.545-0.575,2.213l-1.186,1.015c-3.284,2.812-7.269,4.709-11.523,5.487
				L9.46,12.051V10.5c0-0.271,0.011-0.54,0.033-0.806c0.023-0.275-0.181-0.518-0.456-0.54c-0.28-0.014-0.517,0.182-0.54,0.456
				C8.473,9.903,8.46,10.201,8.46,10.5v2.15c0,0.148,0.066,0.289,0.18,0.384c0.091,0.076,0.204,0.116,0.32,0.116
				c0.03,0,0.06-0.003,0.09-0.008l6.215-1.137c4.428-0.811,8.576-2.785,11.994-5.712l1.186-1.015
				C29.41,4.454,29.749,3.151,29.309,1.96z"/>
		</g>
	</g>
	<g>
		<g>
			<path class="st0" d="M11.619,3.692c-0.212-0.178-0.526-0.15-0.704,0.062C10.248,4.548,9.705,5.432,9.3,6.379
				C9.192,6.633,9.31,6.927,9.564,7.035c0.064,0.027,0.13,0.04,0.196,0.04c0.194,0,0.379-0.114,0.46-0.304
				c0.366-0.857,0.857-1.656,1.46-2.375C11.858,4.186,11.831,3.87,11.619,3.692z"/>
		</g>
	</g>
	<g>
		<g>
			<path class="st0" d="M25.391,19.373c-0.254-0.105-0.547,0.019-0.651,0.275c-0.539,1.329-1.811,2.188-3.24,2.188
				c-1.429,0-2.701-0.858-3.24-2.188c-0.104-0.256-0.397-0.38-0.651-0.274c-0.256,0.104-0.379,0.396-0.275,0.651
				c0.693,1.708,2.329,2.812,4.167,2.812c1.838,0,3.474-1.104,4.167-2.812C25.77,19.768,25.647,19.477,25.391,19.373z"/>
		</g>
	</g>
	<g>
		<g>
			<g>
				<g>
					<g>
						<path class="st0" d="M11.5,49.8H8v-0.25c0-0.965-0.785-1.75-1.75-1.75S4.5,48.585,4.5,49.55v0.25h-4
							c-0.276,0-0.5,0.224-0.5,0.5v5.5c0,1.654,1.346,3,3,3h8.5c0.827,0,1.5-0.673,1.5-1.5v-6C13,50.473,12.327,49.8,11.5,49.8z
							 M12,57.3c0,0.275-0.224,0.5-0.5,0.5H3c-1.103,0-2-0.897-2-2v-5h4c0.276,0,0.5-0.224,0.5-0.5v-0.75
							c0-0.413,0.336-0.75,0.75-0.75S7,49.137,7,49.55v0.75c0,0.276,0.224,0.5,0.5,0.5h4c0.276,0,0.5,0.225,0.5,0.5V57.3z"/>
					</g>
				</g>
			</g>
		</g>
	</g>
	<g>
		<g>
			<g>
				<path class="st0" d="M12.5,51.8h-4c-0.276,0-0.5,0.224-0.5,0.5s0.224,0.5,0.5,0.5h4c0.276,0,0.5-0.224,0.5-0.5
					S12.776,51.8,12.5,51.8z"/>
			</g>
		</g>
	</g>
	<g>
		<g>
			<g>
				<path class="st0" d="M12.5,53.8h-4c-0.276,0-0.5,0.224-0.5,0.5s0.224,0.5,0.5,0.5h4c0.276,0,0.5-0.224,0.5-0.5
					S12.776,53.8,12.5,53.8z"/>
			</g>
		</g>
	</g>
	<g>
		<g>
			<g>
				<g>
					<g>
						<path class="st0" d="M42.5,49.8h-4v-0.25c0-0.965-0.785-1.75-1.75-1.75S35,48.585,35,49.55v0.25h-3.5
							c-0.827,0-1.5,0.673-1.5,1.5v6c0,0.827,0.673,1.5,1.5,1.5H40c1.654,0,3-1.346,3-3v-5.5C43,50.023,42.776,49.8,42.5,49.8z
							 M42,55.8c0,1.103-0.897,2-2,2h-8.5c-0.276,0-0.5-0.225-0.5-0.5v-6c0-0.275,0.224-0.5,0.5-0.5h4c0.276,0,0.5-0.224,0.5-0.5
							v-0.75c0-0.413,0.337-0.75,0.75-0.75s0.75,0.337,0.75,0.75v0.75c0,0.276,0.224,0.5,0.5,0.5h4V55.8z"/>
					</g>
				</g>
			</g>
		</g>
	</g>
	<g>
		<g>
			<g>
				<g>
					<g>
						<path class="st0" d="M31.5,50.8h4c0.276,0,0.5-0.224,0.5-0.5v-8.8c0-0.151-0.068-0.294-0.186-0.389s-0.275-0.13-0.419-0.101
							L21.5,43.988L7.605,41.011c-0.15-0.027-0.302,0.007-0.419,0.101C7.068,41.206,7,41.349,7,41.5v8.8c0,0.276,0.224,0.5,0.5,0.5
							h4c0.276,0,0.5,0.225,0.5,0.5v6c0,0.275-0.224,0.5-0.5,0.5h-4c-0.276,0-0.5,0.224-0.5,0.5v2.2
							c0,0.235,0.165,0.439,0.395,0.489l14,3C21.43,63.996,21.465,64,21.5,64s0.07-0.004,0.105-0.011l14-3
							C35.835,60.939,36,60.735,36,60.5v-2.2c0-0.276-0.224-0.5-0.5-0.5h-4c-0.276,0-0.5-0.225-0.5-0.5v-6
							C31,51.024,31.224,50.8,31.5,50.8z M31.5,58.8H35v1.296l-13.5,2.893L8,60.096V58.8h3.5c0.827,0,1.5-0.673,1.5-1.5v-6
							c0-0.827-0.673-1.5-1.5-1.5H8v-7.682l13.395,2.871c0.069,0.014,0.141,0.014,0.21,0L35,42.118V49.8h-3.5
							c-0.827,0-1.5,0.673-1.5,1.5v6C30,58.127,30.672,58.8,31.5,58.8z"/>
					</g>
				</g>
			</g>
		</g>
	</g>
	<g>
		<g>
			<g>
				<line class="st4" x1="30.5" y1="52.3" x2="34.5" y2="52.3"/>
			</g>
		</g>
		<g>
			<g>
				<path class="st0" d="M34.5,51.8h-4c-0.276,0-0.5,0.224-0.5,0.5s0.224,0.5,0.5,0.5h4c0.276,0,0.5-0.224,0.5-0.5
					S34.776,51.8,34.5,51.8z"/>
			</g>
		</g>
	</g>
	<g>
		<g>
			<g>
				<line class="st4" x1="30.5" y1="54.3" x2="34.5" y2="54.3"/>
			</g>
		</g>
		<g>
			<g>
				<path class="st0" d="M34.5,53.8h-4c-0.276,0-0.5,0.224-0.5,0.5s0.224,0.5,0.5,0.5h4c0.276,0,0.5-0.224,0.5-0.5
					S34.776,53.8,34.5,53.8z"/>
			</g>
		</g>
	</g>
	<g>
		<g>
			<g>
				<path class="st0" d="M12.5,55.8h-4c-0.276,0-0.5,0.224-0.5,0.5s0.224,0.5,0.5,0.5h4c0.276,0,0.5-0.224,0.5-0.5
					S12.776,55.8,12.5,55.8z"/>
			</g>
		</g>
	</g>
	<g>
		<g>
			<g>
				<line class="st4" x1="30.5" y1="56.3" x2="34.5" y2="56.3"/>
			</g>
		</g>
		<g>
			<g>
				<path class="st0" d="M34.5,55.8h-4c-0.276,0-0.5,0.224-0.5,0.5s0.224,0.5,0.5,0.5h4c0.276,0,0.5-0.224,0.5-0.5
					S34.776,55.8,34.5,55.8z"/>
			</g>
		</g>
	</g>
	<g>
		<g>
			<circle class="st1" cx="51.5" cy="19.5" r="12"/>
		</g>
	</g>
	<g>
		<g>
			<g>
				<g>
					<path class="st0" d="M51.5,7C44.607,7,39,12.607,39,19.5S44.607,32,51.5,32S64,26.393,64,19.5S58.393,7,51.5,7z M51.5,31
						C45.159,31,40,25.841,40,19.5S45.159,8,51.5,8S63,13.159,63,19.5S57.841,31,51.5,31z"/>
				</g>
			</g>
		</g>
	</g>
	<g>
		<g>
			<circle class="st4" cx="51.5" cy="25.5" r="2"/>
		</g>
	</g>
	<g>
		<g>
			<g>
				<g>
					<path class="st0" d="M51.5,23c-1.379,0-2.5,1.121-2.5,2.5s1.121,2.5,2.5,2.5s2.5-1.121,2.5-2.5S52.879,23,51.5,23z M51.5,27
						c-0.827,0-1.5-0.673-1.5-1.5s0.673-1.5,1.5-1.5s1.5,0.673,1.5,1.5S52.327,27,51.5,27z"/>
				</g>
			</g>
		</g>
	</g>
	<g>
		<g>
			<path class="st4" d="M51.5,11.5c-2.757,0-5,2.243-5,5c0,0.828,0.671,1.5,1.5,1.5s1.5-0.672,1.5-1.5c0-1.103,0.897-2,2-2
				s2,0.897,2,2s-0.897,2-2,2c-0.829,0-1.5,0.672-1.5,1.5v2c0,0.828,0.671,1.5,1.5,1.5S53,22.828,53,22v-0.729
				c2.026-0.639,3.5-2.536,3.5-4.771C56.5,13.743,54.257,11.5,51.5,11.5z"/>
		</g>
	</g>
	<g>
		<g>
			<g>
				<g>
					<path class="st0" d="M51.5,11c-3.032,0-5.5,2.468-5.5,5.5c0,1.103,0.897,2,2,2s2-0.897,2-2c0-0.827,0.673-1.5,1.5-1.5
						s1.5,0.673,1.5,1.5S52.327,18,51.5,18c-1.103,0-2,0.897-2,2v2c0,1.103,0.897,2,2,2s2-0.897,2-2v-0.376
						c2.108-0.82,3.5-2.835,3.5-5.124C57,13.468,54.532,11,51.5,11z M52.85,20.794c-0.208,0.065-0.35,0.259-0.35,0.477V22
						c0,0.552-0.448,1-1,1s-1-0.448-1-1v-2c0-0.552,0.448-1,1-1c1.379,0,2.5-1.121,2.5-2.5S52.879,14,51.5,14S49,15.121,49,16.5
						c0,0.552-0.448,1-1,1s-1-0.448-1-1c0-2.481,2.019-4.5,4.5-4.5s4.5,2.019,4.5,4.5C56,18.475,54.734,20.2,52.85,20.794z"/>
				</g>
			</g>
		</g>
	</g>
</g>
</svg>
