<?xml version="1.0" encoding="utf-8"?>
<!-- Generator: Adobe Illustrator 21.1.0, SVG Export Plug-In . SVG Version: 6.00 Build 0)  -->
<svg version="1.1" id="Icon_Set" xmlns="http://www.w3.org/2000/svg" xmlns:xlink="http://www.w3.org/1999/xlink" x="0px" y="0px"
	 viewBox="0 0 64 64" style="enable-background:new 0 0 64 64;" xml:space="preserve">
<style type="text/css">
	.st0{fill:#37474F;}
	.st1{fill:#EF5350;}
	.st2{fill:#FFCA28;}
	.st3{fill:#64B5F6;}
	.st4{fill:#FFFFFF;}
	.st5{fill:#FF7043;}
</style>
<g id="Learning_Material">
	<g>
		<g>
			<path class="st3" d="M62.867,27.184l-1.832-5.495c-1.623,1.138-3.596,1.811-5.73,1.811c-5.523,0-10-4.477-10-10h-13.5
				l4.43,13.291c0.34,1.021,1.296,1.709,2.372,1.709h23.311C62.601,28.5,63.083,27.831,62.867,27.184z"/>
		</g>
	</g>
	<g>
		<g>
			<path class="st0" d="M19.307,0h-8c-0.827,0-1.5,0.673-1.5,1.5v10c0,0.276,0.224,0.5,0.5,0.5s0.5-0.224,0.5-0.5v-10
				c0-0.275,0.225-0.5,0.5-0.5h8c0.275,0,0.5,0.225,0.5,0.5v10c0,0.276,0.224,0.5,0.5,0.5s0.5-0.224,0.5-0.5v-10
				C20.807,0.673,20.134,0,19.307,0z"/>
		</g>
	</g>
	<g>
		<g>
			<path class="st0" d="M20.307,3h-10c-0.276,0-0.5,0.224-0.5,0.5S10.03,4,10.307,4h10c0.276,0,0.5-0.224,0.5-0.5S20.583,3,20.307,3
				z"/>
		</g>
	</g>
	<g>
		<g>
			<path class="st0" d="M20.307,6h-10c-0.276,0-0.5,0.224-0.5,0.5S10.03,7,10.307,7h10c0.276,0,0.5-0.224,0.5-0.5S20.583,6,20.307,6
				z"/>
		</g>
	</g>
	<g>
		<g>
			<path class="st0" d="M32.307,0h-8c-0.827,0-1.5,0.673-1.5,1.5v10c0,0.276,0.224,0.5,0.5,0.5s0.5-0.224,0.5-0.5v-10
				c0-0.275,0.225-0.5,0.5-0.5h8c0.275,0,0.5,0.225,0.5,0.5v10c0,0.276,0.224,0.5,0.5,0.5s0.5-0.224,0.5-0.5v-10
				C33.807,0.673,33.134,0,32.307,0z"/>
		</g>
	</g>
	<g>
		<g>
			<path class="st0" d="M33.307,3h-10c-0.276,0-0.5,0.224-0.5,0.5S23.03,4,23.307,4h10c0.276,0,0.5-0.224,0.5-0.5S33.583,3,33.307,3
				z"/>
		</g>
	</g>
	<g>
		<g>
			<path class="st0" d="M33.307,6h-10c-0.276,0-0.5,0.224-0.5,0.5S23.03,7,23.307,7h10c0.276,0,0.5-0.224,0.5-0.5S33.583,6,33.307,6
				z"/>
		</g>
	</g>
	<g>
		<g>
			<path class="st2" d="M40.954,52.352h-4.586v-11.5c0-0.552-0.448-1-1-1h-7.124c-0.552,0-1,0.448-1,1v11.5h-4.586
				c-0.891,0-1.337,1.077-0.707,1.707l9.148,9.148c0.391,0.391,1.024,0.391,1.414,0l9.148-9.148
				C42.291,53.429,41.845,52.352,40.954,52.352z"/>
		</g>
	</g>
	<g>
		<g>
			<g>
				<g>
					<path class="st0" d="M42.34,52.778c-0.236-0.571-0.768-0.926-1.386-0.926h-4.086v-11c0-0.827-0.673-1.5-1.5-1.5h-7.124
						c-0.827,0-1.5,0.673-1.5,1.5v11h-4.086c-0.618,0-1.149,0.354-1.386,0.926s-0.112,1.197,0.325,1.635l9.147,9.147
						c0.293,0.293,0.677,0.438,1.062,0.438c0.384,0,0.768-0.146,1.061-0.438l9.147-9.147C42.452,53.976,42.576,53.35,42.34,52.778z
						 M41.308,53.706l-9.147,9.147c-0.194,0.194-0.512,0.196-0.708,0l-9.147-9.147c-0.219-0.219-0.139-0.473-0.108-0.545
						s0.152-0.309,0.462-0.309h4.586c0.276,0,0.5-0.224,0.5-0.5v-11.5c0-0.275,0.225-0.5,0.5-0.5h7.124c0.275,0,0.5,0.225,0.5,0.5
						v11.5c0,0.276,0.224,0.5,0.5,0.5h4.586c0.31,0,0.432,0.236,0.462,0.309S41.526,53.487,41.308,53.706z"/>
				</g>
			</g>
		</g>
	</g>
	<g>
		<g>
			<path class="st3" d="M38.608,28.5c-1.076,0-2.031-0.689-2.372-1.709L31.806,13.5l-4.43,13.291
				c-0.34,1.021-1.296,1.709-2.372,1.709H5.306V47c0,1.381,1.119,2.5,2.5,2.5h17.438v-8.647c0-1.657,1.343-3,3-3h7.125
				c1.657,0,3,1.343,3,3V49.5h17.438c1.381,0,2.5-1.119,2.5-2.5V28.5H38.608z"/>
		</g>
	</g>
	<g>
		<g>
			<path class="st0" d="M24.744,49H7.807c-1.103,0-2-0.897-2-2v-7.5c0-0.276-0.224-0.5-0.5-0.5s-0.5,0.224-0.5,0.5V47
				c0,1.654,1.346,3,3,3h16.938c0.276,0,0.5-0.224,0.5-0.5S25.021,49,24.744,49z"/>
		</g>
	</g>
	<g>
		<g>
			<path class="st0" d="M5.307,33c-0.276,0-0.5,0.224-0.5,0.5v3c0,0.276,0.224,0.5,0.5,0.5s0.5-0.224,0.5-0.5v-3
				C5.807,33.224,5.583,33,5.307,33z"/>
		</g>
	</g>
	<g>
		<g>
			<path class="st0" d="M5.307,28c-0.276,0-0.5,0.224-0.5,0.5v2c0,0.276,0.224,0.5,0.5,0.5s0.5-0.224,0.5-0.5v-2
				C5.807,28.224,5.583,28,5.307,28z"/>
		</g>
	</g>
	<g>
		<g>
			<path class="st0" d="M58.307,28c-0.276,0-0.5,0.224-0.5,0.5V47c0,1.103-0.897,2-2,2H38.869c-0.276,0-0.5,0.224-0.5,0.5
				s0.224,0.5,0.5,0.5h16.938c1.654,0,3-1.346,3-3V28.5C58.807,28.224,58.583,28,58.307,28z"/>
		</g>
	</g>
	<g>
		<g>
			<circle class="st1" cx="55.306" cy="13.5" r="8"/>
		</g>
	</g>
	<g>
		<g>
			<g>
				<g>
					<path class="st0" d="M55.307,5c-4.687,0-8.5,3.813-8.5,8.5s3.813,8.5,8.5,8.5s8.5-3.813,8.5-8.5S59.993,5,55.307,5z M55.307,21
						c-4.136,0-7.5-3.364-7.5-7.5s3.364-7.5,7.5-7.5s7.5,3.364,7.5,7.5S59.442,21,55.307,21z"/>
				</g>
			</g>
		</g>
	</g>
	<g>
		<g>
			<path class="st0" d="M55.759,10.038c-0.185-0.077-0.402-0.035-0.545,0.108l-1.5,1.5c-0.195,0.195-0.195,0.512,0,0.707
				s0.512,0.195,0.707,0l0.646-0.646V16.5c0,0.276,0.224,0.5,0.5,0.5s0.5-0.224,0.5-0.5v-6
				C56.067,10.298,55.945,10.115,55.759,10.038z"/>
		</g>
	</g>
	<g>
		<g>
			<path class="st0" d="M63.342,27.025l-1.831-5.495c-0.088-0.262-0.371-0.402-0.633-0.316c-0.262,0.088-0.403,0.371-0.316,0.633
				l1.831,5.495c0.052,0.154,0.026,0.318-0.068,0.451C62.229,27.925,62.081,28,61.919,28H38.608c-0.862,0-1.625-0.55-1.897-1.367
				L32.5,14h12.807c0.276,0,0.5-0.224,0.5-0.5s-0.224-0.5-0.5-0.5h-13.5c-0.161,0-0.312,0.077-0.405,0.208
				c-0.095,0.13-0.12,0.298-0.069,0.45l4.43,13.291C36.171,28.176,37.314,29,38.608,29h23.311c0.488,0,0.932-0.227,1.217-0.623
				C63.421,27.981,63.496,27.488,63.342,27.025z"/>
		</g>
	</g>
	<g>
		<g>
			<path class="st3" d="M7.108,13.5c-1.076,0-2.031,0.689-2.372,1.709L0.745,27.184C0.529,27.831,1.011,28.5,1.694,28.5h23.311
				c1.076,0,2.031-0.688,2.372-1.709l4.43-13.291H7.108z"/>
		</g>
	</g>
	<g>
		<g>
			<g>
				<g>
					<path class="st0" d="M32.212,13.208C32.118,13.077,31.968,13,31.807,13H7.108c-1.294,0-2.438,0.824-2.847,2.051L0.271,27.025
						c-0.154,0.463-0.079,0.956,0.206,1.352C0.762,28.773,1.205,29,1.693,29h23.311c1.294,0,2.438-0.824,2.847-2.051l4.431-13.291
						C32.332,13.506,32.307,13.338,32.212,13.208z M26.901,26.633C26.629,27.45,25.866,28,25.004,28H1.693
						c-0.162,0-0.311-0.075-0.405-0.207c-0.095-0.133-0.12-0.297-0.068-0.451l3.991-11.975C5.483,14.55,6.246,14,7.108,14h24.005
						L26.901,26.633z"/>
				</g>
			</g>
		</g>
	</g>
	<g>
		<g>
			<path class="st0" d="M31.807,13c-0.276,0-0.5,0.224-0.5,0.5v23.853c0,0.276,0.224,0.5,0.5,0.5s0.5-0.224,0.5-0.5V13.5
				C32.307,13.224,32.083,13,31.807,13z"/>
		</g>
	</g>
	<g>
		<g>
			<path class="st0" d="M57.067,16h-3c-0.276,0-0.5,0.224-0.5,0.5s0.224,0.5,0.5,0.5h3c0.276,0,0.5-0.224,0.5-0.5
				S57.344,16,57.067,16z"/>
		</g>
	</g>
	<g>
		<g>
			<path class="st0" d="M55.307,31c-0.276,0-0.5,0.224-0.5,0.5v15c0,0.276,0.224,0.5,0.5,0.5s0.5-0.224,0.5-0.5v-15
				C55.807,31.224,55.583,31,55.307,31z"/>
		</g>
	</g>
</g>
</svg>
