<?xml version="1.0" encoding="utf-8"?>
<!-- Generator: Adobe Illustrator 21.1.0, SVG Export Plug-In . SVG Version: 6.00 Build 0)  -->
<svg version="1.1" id="Icon_Set" xmlns="http://www.w3.org/2000/svg" xmlns:xlink="http://www.w3.org/1999/xlink" x="0px" y="0px"
	 viewBox="0 0 64 64" style="enable-background:new 0 0 64 64;" xml:space="preserve">
<style type="text/css">
	.st0{fill:#37474F;}
	.st1{fill:#EF5350;}
	.st2{fill:#FFCA28;}
	.st3{fill:#64B5F6;}
	.st4{fill:#FFFFFF;}
	.st5{fill:#FF7043;}
</style>
<g id="Learning_Tools">
	<g>
		<g>
			<g>
				<g>
					<path class="st1" d="M55.293,21.707L31.707,45.293C31.077,45.923,31.523,47,32.414,47H56c0.552,0,1-0.448,1-1V22.414
						C57,21.523,55.923,21.077,55.293,21.707z M52,42h-9.929L52,32.071V42z"/>
				</g>
			</g>
		</g>
	</g>
	<g>
		<g>
			<g>
				<g>
					<path class="st0" d="M56.574,21.028c-0.57-0.237-1.197-0.112-1.635,0.325L31.354,44.939c-0.437,0.437-0.562,1.063-0.325,1.635
						c0.237,0.571,0.768,0.926,1.386,0.926H56c0.827,0,1.5-0.673,1.5-1.5V22.414C57.5,21.796,57.146,21.265,56.574,21.028z M56.5,46
						c0,0.276-0.225,0.5-0.5,0.5H32.414c-0.31,0-0.432-0.236-0.462-0.309c-0.03-0.072-0.111-0.326,0.108-0.545l23.586-23.586
						c0.116-0.116,0.241-0.148,0.345-0.148c0.092,0,0.166,0.025,0.2,0.04c0.072,0.03,0.309,0.152,0.309,0.462V46z M52.191,31.609
						c-0.187-0.079-0.401-0.035-0.545,0.108l-9.929,9.929c-0.143,0.143-0.186,0.358-0.108,0.545s0.26,0.309,0.462,0.309H52
						c0.276,0,0.5-0.224,0.5-0.5v-9.929C52.5,31.869,52.378,31.687,52.191,31.609z M51.5,41.5h-8.222l8.222-8.222V41.5z"/>
				</g>
			</g>
		</g>
	</g>
	<g>
		<g>
			<path class="st3" d="M44.5,8h-23c-0.552,0-1,0.448-1,1v4c0,0.552,0.448,1,1,1h23c0.552,0,1-0.448,1-1V9
				C45.5,8.448,45.052,8,44.5,8z"/>
		</g>
	</g>
	<g>
		<g>
			<g>
				<g>
					<path class="st0" d="M44.5,7.5h-23C20.673,7.5,20,8.173,20,9v4c0,0.827,0.673,1.5,1.5,1.5h23c0.827,0,1.5-0.673,1.5-1.5V9
						C46,8.173,45.327,7.5,44.5,7.5z M45,13c0,0.276-0.225,0.5-0.5,0.5h-23c-0.276,0-0.5-0.224-0.5-0.5V9c0-0.276,0.224-0.5,0.5-0.5
						h23C44.775,8.5,45,8.724,45,9V13z"/>
				</g>
			</g>
		</g>
	</g>
	<g>
		<g>
			<g>
				<g>
					<g>
						<path class="st0" d="M30.5,18.5h-2c-0.827,0-1.5,0.673-1.5,1.5v2c0,0.827,0.673,1.5,1.5,1.5h2c0.827,0,1.5-0.673,1.5-1.5v-2
							C32,19.173,31.327,18.5,30.5,18.5z M31,22c0,0.276-0.224,0.5-0.5,0.5h-2c-0.276,0-0.5-0.224-0.5-0.5v-2
							c0-0.276,0.224-0.5,0.5-0.5h2c0.276,0,0.5,0.224,0.5,0.5V22z"/>
					</g>
				</g>
			</g>
		</g>
	</g>
	<g>
		<g>
			<g>
				<g>
					<g>
						<path class="st0" d="M37.5,18.5h-2c-0.827,0-1.5,0.673-1.5,1.5v2c0,0.827,0.673,1.5,1.5,1.5h2c0.827,0,1.5-0.673,1.5-1.5v-2
							C39,19.173,38.327,18.5,37.5,18.5z M38,22c0,0.276-0.225,0.5-0.5,0.5h-2c-0.275,0-0.5-0.224-0.5-0.5v-2
							c0-0.276,0.225-0.5,0.5-0.5h2c0.275,0,0.5,0.224,0.5,0.5V22z"/>
					</g>
				</g>
			</g>
		</g>
	</g>
	<g>
		<g>
			<g>
				<g>
					<g>
						<path class="st0" d="M44.5,18.5h-2c-0.827,0-1.5,0.673-1.5,1.5v2c0,0.827,0.673,1.5,1.5,1.5h2c0.827,0,1.5-0.673,1.5-1.5v-2
							C46,19.173,45.327,18.5,44.5,18.5z M45,22c0,0.276-0.225,0.5-0.5,0.5h-2c-0.275,0-0.5-0.224-0.5-0.5v-2
							c0-0.276,0.225-0.5,0.5-0.5h2c0.275,0,0.5,0.224,0.5,0.5V22z"/>
					</g>
				</g>
			</g>
		</g>
	</g>
	<g>
		<g>
			<g>
				<g>
					<g>
						<path class="st0" d="M30.5,25.5h-2c-0.827,0-1.5,0.673-1.5,1.5v2c0,0.827,0.673,1.5,1.5,1.5h2c0.827,0,1.5-0.673,1.5-1.5v-2
							C32,26.173,31.327,25.5,30.5,25.5z M31,29c0,0.276-0.224,0.5-0.5,0.5h-2c-0.276,0-0.5-0.224-0.5-0.5v-2
							c0-0.276,0.224-0.5,0.5-0.5h2c0.276,0,0.5,0.224,0.5,0.5V29z"/>
					</g>
				</g>
			</g>
		</g>
	</g>
	<g>
		<g>
			<g>
				<g>
					<g>
						<path class="st0" d="M37.5,25.5h-2c-0.827,0-1.5,0.673-1.5,1.5v2c0,0.827,0.673,1.5,1.5,1.5h2c0.827,0,1.5-0.673,1.5-1.5v-2
							C39,26.173,38.327,25.5,37.5,25.5z M38,29c0,0.276-0.225,0.5-0.5,0.5h-2c-0.275,0-0.5-0.224-0.5-0.5v-2
							c0-0.276,0.225-0.5,0.5-0.5h2c0.275,0,0.5,0.224,0.5,0.5V29z"/>
					</g>
				</g>
			</g>
		</g>
	</g>
	<g>
		<g>
			<path class="st0" d="M44.5,25.5h-2c-0.827,0-1.5,0.673-1.5,1.5v2c0,0.827,0.673,1.5,1.5,1.5h1.672c0.276,0,0.5-0.224,0.5-0.5
				s-0.224-0.5-0.5-0.5H42.5c-0.275,0-0.5-0.224-0.5-0.5v-2c0-0.276,0.225-0.5,0.5-0.5h2c0.275,0,0.5,0.224,0.5,0.5v1.671
				c0,0.276,0.224,0.5,0.5,0.5s0.5-0.224,0.5-0.5V27C46,26.173,45.327,25.5,44.5,25.5z"/>
		</g>
	</g>
	<g>
		<g>
			<g>
				<g>
					<g>
						<path class="st0" d="M30.5,32.5h-2c-0.827,0-1.5,0.673-1.5,1.5v2c0,0.827,0.673,1.5,1.5,1.5h2c0.827,0,1.5-0.673,1.5-1.5v-2
							C32,33.173,31.327,32.5,30.5,32.5z M31,36c0,0.276-0.224,0.5-0.5,0.5h-2c-0.276,0-0.5-0.224-0.5-0.5v-2
							c0-0.276,0.224-0.5,0.5-0.5h2c0.276,0,0.5,0.224,0.5,0.5V36z"/>
					</g>
				</g>
			</g>
		</g>
	</g>
	<g>
		<g>
			<g>
				<g>
					<g>
						<path class="st0" d="M23.5,18.5h-2c-0.827,0-1.5,0.673-1.5,1.5v2c0,0.827,0.673,1.5,1.5,1.5h2c0.827,0,1.5-0.673,1.5-1.5v-2
							C25,19.173,24.327,18.5,23.5,18.5z M24,22c0,0.276-0.224,0.5-0.5,0.5h-2c-0.276,0-0.5-0.224-0.5-0.5v-2
							c0-0.276,0.224-0.5,0.5-0.5h2c0.276,0,0.5,0.224,0.5,0.5V22z"/>
					</g>
				</g>
			</g>
		</g>
	</g>
	<g>
		<g>
			<g>
				<g>
					<g>
						<path class="st0" d="M23.5,25.5h-2c-0.827,0-1.5,0.673-1.5,1.5v2c0,0.827,0.673,1.5,1.5,1.5h2c0.827,0,1.5-0.673,1.5-1.5v-2
							C25,26.173,24.327,25.5,23.5,25.5z M24,29c0,0.276-0.224,0.5-0.5,0.5h-2c-0.276,0-0.5-0.224-0.5-0.5v-2
							c0-0.276,0.224-0.5,0.5-0.5h2c0.276,0,0.5,0.224,0.5,0.5V29z"/>
					</g>
				</g>
			</g>
		</g>
	</g>
	<g>
		<g>
			<g>
				<g>
					<g>
						<path class="st0" d="M23.5,32.5h-2c-0.827,0-1.5,0.673-1.5,1.5v2c0,0.827,0.673,1.5,1.5,1.5h2c0.827,0,1.5-0.673,1.5-1.5v-2
							C25,33.173,24.327,32.5,23.5,32.5z M24,36c0,0.276-0.224,0.5-0.5,0.5h-2c-0.276,0-0.5-0.224-0.5-0.5v-2
							c0-0.276,0.224-0.5,0.5-0.5h2c0.276,0,0.5,0.224,0.5,0.5V36z"/>
					</g>
				</g>
			</g>
		</g>
	</g>
	<g>
		<g>
			<path class="st0" d="M37.5,32.5h-2c-0.827,0-1.5,0.673-1.5,1.5v2c0,0.827,0.673,1.5,1.5,1.5h1.672c0.276,0,0.5-0.224,0.5-0.5
				s-0.224-0.5-0.5-0.5H35.5c-0.275,0-0.5-0.224-0.5-0.5v-2c0-0.276,0.225-0.5,0.5-0.5h2c0.275,0,0.5,0.224,0.5,0.5v1.671
				c0,0.276,0.224,0.5,0.5,0.5s0.5-0.224,0.5-0.5V34C39,33.173,38.327,32.5,37.5,32.5z"/>
		</g>
	</g>
	<g>
		<g>
			<path class="st0" d="M22.5,2.5h-3c-1.654,0-3,1.346-3,3V14c0,0.276,0.224,0.5,0.5,0.5s0.5-0.224,0.5-0.5V5.5c0-1.103,0.897-2,2-2
				h3C22.776,3.5,23,3.276,23,3S22.776,2.5,22.5,2.5z"/>
		</g>
	</g>
	<g>
		<g>
			<path class="st0" d="M28.5,2.5h-3C25.224,2.5,25,2.724,25,3s0.224,0.5,0.5,0.5h3C28.776,3.5,29,3.276,29,3S28.776,2.5,28.5,2.5z"
				/>
		</g>
	</g>
	<g>
		<g>
			<path class="st0" d="M46.5,2.5h-15C31.224,2.5,31,2.724,31,3s0.224,0.5,0.5,0.5h15c1.103,0,2,0.897,2,2v19.671
				c0,0.276,0.224,0.5,0.5,0.5s0.5-0.224,0.5-0.5V5.5C49.5,3.846,48.154,2.5,46.5,2.5z"/>
		</g>
	</g>
	<g>
		<g>
			<path class="st2" d="M14.5,15.5h-1c-1.381,0-2.5,1.119-2.5,2.5v27.5h6V18C17,16.619,15.881,15.5,14.5,15.5z"/>
		</g>
	</g>
	<g>
		<g>
			<g>
				<g>
					<path class="st0" d="M14.5,15h-1c-1.654,0-3,1.346-3,3v27.5c0,0.276,0.224,0.5,0.5,0.5h6c0.276,0,0.5-0.224,0.5-0.5V18
						C17.5,16.346,16.154,15,14.5,15z M16.5,45h-5V18c0-1.103,0.897-2,2-2h1c1.103,0,2,0.897,2,2V45z"/>
				</g>
			</g>
		</g>
	</g>
	<g>
		<g>
			<g>
				<g>
					<g>
						<path class="st0" d="M17,45h-6c-0.276,0-0.5,0.224-0.5,0.5v5c0,0.078,0.018,0.154,0.053,0.224l3,6
							C13.638,56.893,13.811,57,14,57s0.362-0.107,0.447-0.276l3-6c0.035-0.069,0.053-0.146,0.053-0.224v-5
							C17.5,45.224,17.276,45,17,45z M16.5,50.382l-2.5,5l-2.5-5V46h5V50.382z"/>
					</g>
				</g>
			</g>
		</g>
	</g>
	<g>
		<g>
			<path class="st0" d="M61,51.5H18.486c-0.276,0-0.5,0.224-0.5,0.5s0.224,0.5,0.5,0.5H61c0.275,0,0.5,0.224,0.5,0.5v7
				c0,0.276-0.225,0.5-0.5,0.5H3c-0.276,0-0.5-0.224-0.5-0.5v-7c0-0.276,0.224-0.5,0.5-0.5h6.514c0.276,0,0.5-0.224,0.5-0.5
				s-0.224-0.5-0.5-0.5H3c-0.827,0-1.5,0.673-1.5,1.5v7c0,0.827,0.673,1.5,1.5,1.5h58c0.827,0,1.5-0.673,1.5-1.5v-7
				C62.5,52.173,61.827,51.5,61,51.5z"/>
		</g>
	</g>
	<g>
		<g>
			<g>
				<g>
					<g>
						<path class="st0" d="M16.425,52.237C16.334,52.09,16.173,52,16,52h-4c-0.173,0-0.334,0.09-0.425,0.237s-0.1,0.332-0.022,0.486
							l2,4C13.638,56.893,13.811,57,14,57s0.362-0.107,0.447-0.276l2-4C16.525,52.569,16.517,52.385,16.425,52.237z M14,55.382
							L12.809,53h2.382L14,55.382z"/>
					</g>
				</g>
			</g>
		</g>
	</g>
	<g>
		<g>
			<path class="st0" d="M9,20c-0.276,0-0.5,0.224-0.5,0.5v10C8.5,30.776,8.724,31,9,31s0.5-0.224,0.5-0.5v-10
				C9.5,20.224,9.276,20,9,20z"/>
		</g>
	</g>
	<g>
		<g>
			<path class="st0" d="M32.171,41.5H20.5c-0.276,0-0.5,0.224-0.5,0.5s0.224,0.5,0.5,0.5h11.671c0.276,0,0.5-0.224,0.5-0.5
				S32.448,41.5,32.171,41.5z"/>
		</g>
	</g>
	<g>
		<g>
			<path class="st0" d="M50,51.5c-0.276,0-0.5,0.224-0.5,0.5v5c0,0.276,0.224,0.5,0.5,0.5s0.5-0.224,0.5-0.5v-5
				C50.5,51.724,50.276,51.5,50,51.5z"/>
		</g>
	</g>
	<g>
		<g>
			<path class="st0" d="M58,51.5c-0.276,0-0.5,0.224-0.5,0.5v3c0,0.276,0.224,0.5,0.5,0.5s0.5-0.224,0.5-0.5v-3
				C58.5,51.724,58.276,51.5,58,51.5z"/>
		</g>
	</g>
	<g>
		<g>
			<path class="st0" d="M54,51.5c-0.276,0-0.5,0.224-0.5,0.5v3c0,0.276,0.224,0.5,0.5,0.5s0.5-0.224,0.5-0.5v-3
				C54.5,51.724,54.276,51.5,54,51.5z"/>
		</g>
	</g>
	<g>
		<g>
			<path class="st0" d="M38,51.5c-0.276,0-0.5,0.224-0.5,0.5v5c0,0.276,0.224,0.5,0.5,0.5s0.5-0.224,0.5-0.5v-5
				C38.5,51.724,38.276,51.5,38,51.5z"/>
		</g>
	</g>
	<g>
		<g>
			<path class="st0" d="M46,51.5c-0.276,0-0.5,0.224-0.5,0.5v3c0,0.276,0.224,0.5,0.5,0.5s0.5-0.224,0.5-0.5v-3
				C46.5,51.724,46.276,51.5,46,51.5z"/>
		</g>
	</g>
	<g>
		<g>
			<path class="st0" d="M42,51.5c-0.276,0-0.5,0.224-0.5,0.5v3c0,0.276,0.224,0.5,0.5,0.5s0.5-0.224,0.5-0.5v-3
				C42.5,51.724,42.276,51.5,42,51.5z"/>
		</g>
	</g>
	<g>
		<g>
			<path class="st0" d="M26,51.5c-0.276,0-0.5,0.224-0.5,0.5v5c0,0.276,0.224,0.5,0.5,0.5s0.5-0.224,0.5-0.5v-5
				C26.5,51.724,26.276,51.5,26,51.5z"/>
		</g>
	</g>
	<g>
		<g>
			<path class="st0" d="M34,51.5c-0.276,0-0.5,0.224-0.5,0.5v3c0,0.276,0.224,0.5,0.5,0.5s0.5-0.224,0.5-0.5v-3
				C34.5,51.724,34.276,51.5,34,51.5z"/>
		</g>
	</g>
	<g>
		<g>
			<path class="st0" d="M30,51.5c-0.276,0-0.5,0.224-0.5,0.5v3c0,0.276,0.224,0.5,0.5,0.5s0.5-0.224,0.5-0.5v-3
				C30.5,51.724,30.276,51.5,30,51.5z"/>
		</g>
	</g>
	<g>
		<g>
			<path class="st0" d="M22,51.5c-0.276,0-0.5,0.224-0.5,0.5v3c0,0.276,0.224,0.5,0.5,0.5s0.5-0.224,0.5-0.5v-3
				C22.5,51.724,22.276,51.5,22,51.5z"/>
		</g>
	</g>
	<g>
		<g>
			<path class="st0" d="M6,51.5c-0.276,0-0.5,0.224-0.5,0.5v3c0,0.276,0.224,0.5,0.5,0.5s0.5-0.224,0.5-0.5v-3
				C6.5,51.724,6.276,51.5,6,51.5z"/>
		</g>
	</g>
</g>
</svg>
