<?xml version="1.0" encoding="utf-8"?>
<!-- Generator: Adobe Illustrator 21.1.0, SVG Export Plug-In . SVG Version: 6.00 Build 0)  -->
<svg version="1.1" id="Icon_Set" xmlns="http://www.w3.org/2000/svg" xmlns:xlink="http://www.w3.org/1999/xlink" x="0px" y="0px"
	 viewBox="0 0 64 64" style="enable-background:new 0 0 64 64;" xml:space="preserve">
<style type="text/css">
	.st0{fill:#37474F;}
	.st1{fill:#EF5350;}
	.st2{fill:#FFCA28;}
	.st3{fill:#64B5F6;}
	.st4{fill:#FFFFFF;}
	.st5{fill:#FF7043;}
</style>
<g id="Literature_Exchange">
	<g>
		<g>
			<path class="st2" d="M59.5,14.5h-34c-1.381,0-2.5,1.119-2.5,2.5v44c0,1.381,1.119,2.5,2.5,2.5H51l11-11V17
				C62,15.619,60.881,14.5,59.5,14.5z"/>
		</g>
	</g>
	<g>
		<g>
			<g>
				<g>
					<path class="st0" d="M59.5,14h-34c-1.654,0-3,1.346-3,3v44c0,1.654,1.346,3,3,3H51c0.133,0,0.26-0.053,0.354-0.146l11-11
						C62.447,52.76,62.5,52.633,62.5,52.5V17C62.5,15.346,61.154,14,59.5,14z M61.5,52.293L50.792,63H25.5c-1.103,0-2-0.897-2-2V17
						c0-1.103,0.897-2,2-2h34c1.103,0,2,0.897,2,2V52.293z"/>
				</g>
			</g>
		</g>
	</g>
	<g>
		<g>
			<path class="st3" d="M38.5,0.5h-34C3.119,0.5,2,1.619,2,2v44c0,2.381,1.119,3.5,2.5,3.5H21V17c0-2.481,2.019-4.5,4.5-4.5H41V3
				C41,1.619,39.881,0.5,38.5,0.5z"/>
		</g>
	</g>
	<g>
		<g>
			<path class="st0" d="M21,49H4.5c-1.103,0-2-0.897-2-2V14c0-0.276-0.224-0.5-0.5-0.5S1.5,13.724,1.5,14v33c0,1.654,1.346,3,3,3H21
				c0.276,0,0.5-0.224,0.5-0.5S21.276,49,21,49z"/>
		</g>
	</g>
	<g>
		<g>
			<path class="st0" d="M2,7.5C1.724,7.5,1.5,7.724,1.5,8v3c0,0.276,0.224,0.5,0.5,0.5s0.5-0.224,0.5-0.5V8
				C2.5,7.724,2.276,7.5,2,7.5z"/>
		</g>
	</g>
	<g>
		<g>
			<path class="st0" d="M38.5,0h-34c-1.654,0-3,1.346-3,3v2c0,0.276,0.224,0.5,0.5,0.5S2.5,5.276,2.5,5V3c0-1.103,0.897-2,2-2h34
				c1.103,0,2,0.897,2,2v9.5c0,0.276,0.224,0.5,0.5,0.5s0.5-0.224,0.5-0.5V3C41.5,1.346,40.154,0,38.5,0z"/>
		</g>
	</g>
	<g>
		<g>
			<path class="st4" d="M53.5,52.5c-1.381,0-2.5,1.119-2.5,2.5v8.5l11-11H53.5z"/>
		</g>
	</g>
	<g>
		<g>
			<g>
				<g>
					<path class="st0" d="M62.462,52.309C62.385,52.122,62.202,52,62,52h-8.5c-1.654,0-3,1.346-3,3v8.5
						c0,0.202,0.122,0.385,0.309,0.462C50.871,63.987,50.936,64,51,64c0.13,0,0.258-0.051,0.354-0.146l11-11
						C62.497,52.711,62.54,52.495,62.462,52.309z M51.5,62.293V55c0-1.103,0.897-2,2-2h7.293L51.5,62.293z"/>
				</g>
			</g>
		</g>
	</g>
	<g>
		<g>
			<path class="st0" d="M57,30H28c-0.276,0-0.5,0.224-0.5,0.5S27.724,31,28,31h29c0.276,0,0.5-0.224,0.5-0.5S57.276,30,57,30z"/>
		</g>
	</g>
	<g>
		<g>
			<path class="st0" d="M57,35H28c-0.276,0-0.5,0.224-0.5,0.5S27.724,36,28,36h29c0.276,0,0.5-0.224,0.5-0.5S57.276,35,57,35z"/>
		</g>
	</g>
	<g>
		<g>
			<path class="st0" d="M57,40H28c-0.276,0-0.5,0.224-0.5,0.5S27.724,41,28,41h29c0.276,0,0.5-0.224,0.5-0.5S57.276,40,57,40z"/>
		</g>
	</g>
	<g>
		<g>
			<path class="st0" d="M47,45H28c-0.276,0-0.5,0.224-0.5,0.5S27.724,46,28,46h19c0.276,0,0.5-0.224,0.5-0.5S47.276,45,47,45z"/>
		</g>
	</g>
	<g>
		<g>
			<path class="st0" d="M39,52H28c-0.276,0-0.5,0.224-0.5,0.5S27.724,53,28,53h11c0.276,0,0.5-0.224,0.5-0.5S39.276,52,39,52z"/>
		</g>
	</g>
	<g>
		<g>
			<rect x="28" y="20.5" class="st4" width="13" height="4"/>
		</g>
	</g>
	<g>
		<g>
			<g>
				<g>
					<path class="st0" d="M41,20H28c-0.276,0-0.5,0.224-0.5,0.5v4c0,0.276,0.224,0.5,0.5,0.5h13c0.276,0,0.5-0.224,0.5-0.5v-4
						C41.5,20.224,41.276,20,41,20z M40.5,24h-12v-3h12V24z"/>
				</g>
			</g>
		</g>
	</g>
	<g>
		<g>
			<path class="st0" d="M43,6h-6c-0.276,0-0.5,0.224-0.5,0.5S36.724,7,37,7h6c5.238,0,9.5,4.262,9.5,9.5v6
				c0,0.276,0.224,0.5,0.5,0.5s0.5-0.224,0.5-0.5v-6C53.5,10.71,48.79,6,43,6z"/>
		</g>
	</g>
	<g>
		<g>
			<path class="st0" d="M57.596,18.646c-0.195-0.195-0.512-0.195-0.707,0L53,22.535l-3.889-3.889c-0.195-0.195-0.512-0.195-0.707,0
				s-0.195,0.512,0,0.707l4.243,4.242c0.098,0.098,0.226,0.146,0.354,0.146s0.256-0.049,0.354-0.146l4.243-4.242
				C57.792,19.158,57.792,18.842,57.596,18.646z"/>
		</g>
	</g>
	<g>
		<g>
			<path class="st0" d="M27,57.5h-6c-5.238,0-9.5-4.262-9.5-9.5v-6c0-0.276-0.224-0.5-0.5-0.5s-0.5,0.224-0.5,0.5v6
				c0,5.79,4.71,10.5,10.5,10.5h6c0.276,0,0.5-0.224,0.5-0.5S27.276,57.5,27,57.5z"/>
		</g>
	</g>
	<g>
		<g>
			<path class="st0" d="M15.596,45.146l-4.243-4.242c-0.195-0.195-0.512-0.195-0.707,0l-4.243,4.242
				c-0.195,0.195-0.195,0.512,0,0.707s0.512,0.195,0.707,0L11,41.965l3.889,3.889C14.987,45.951,15.115,46,15.243,46
				s0.256-0.049,0.354-0.146C15.792,45.658,15.792,45.342,15.596,45.146z"/>
		</g>
	</g>
</g>
</svg>
