<?xml version="1.0" encoding="utf-8"?>
<!-- Generator: Adobe Illustrator 21.1.0, SVG Export Plug-In . SVG Version: 6.00 Build 0)  -->
<svg version="1.1" id="Icon_Set" xmlns="http://www.w3.org/2000/svg" xmlns:xlink="http://www.w3.org/1999/xlink" x="0px" y="0px"
	 viewBox="0 0 64 64" style="enable-background:new 0 0 64 64;" xml:space="preserve">
<style type="text/css">
	.st0{fill:#37474F;}
	.st1{fill:#EF5350;}
	.st2{fill:#FFCA28;}
	.st3{fill:#64B5F6;}
	.st4{fill:#FFFFFF;}
	.st5{fill:#FF7043;}
</style>
<g id="Live_Webinar">
	<g>
		<g>
			<path class="st3" d="M37.982,21.001c-1.669,1.25-3.736,2-5.982,2s-4.312-0.75-5.982-2H9.5v31h45v-31H37.982z"/>
		</g>
	</g>
	<g>
		<g>
			<g>
				<g>
					<g>
						<path class="st0" d="M62.5,54.501h-61c-0.827,0-1.5,0.673-1.5,1.5v2c0,0.827,0.673,1.5,1.5,1.5h61c0.827,0,1.5-0.673,1.5-1.5
							v-2C64,55.174,63.327,54.501,62.5,54.501z M63,58.001c0,0.275-0.225,0.5-0.5,0.5h-61c-0.275,0-0.5-0.225-0.5-0.5v-2
							c0-0.275,0.225-0.5,0.5-0.5h61c0.275,0,0.5,0.225,0.5,0.5V58.001z"/>
					</g>
				</g>
			</g>
		</g>
	</g>
	<g>
		<g>
			<g>
				<g>
					<g>
						<path class="st0" d="M36.5,54.501h-9c-0.276,0-0.5,0.224-0.5,0.5v4c0,0.276,0.224,0.5,0.5,0.5h9c0.276,0,0.5-0.224,0.5-0.5v-4
							C37,54.725,36.776,54.501,36.5,54.501z M36,58.501h-8v-3h8V58.501z"/>
					</g>
				</g>
			</g>
		</g>
	</g>
	<g>
		<g>
			<path class="st0" d="M32,42.969c-0.276,0-0.5,0.224-0.5,0.5v4.532c0,0.276,0.224,0.5,0.5,0.5s0.5-0.224,0.5-0.5v-4.532
				C32.5,43.192,32.276,42.969,32,42.969z"/>
		</g>
	</g>
	<g>
		<g>
			<g>
				<g>
					<g>
						<path class="st0" d="M32,4.501c-4.687,0-8.5,3.813-8.5,8.5s3.813,8.5,8.5,8.5s8.5-3.813,8.5-8.5S36.687,4.501,32,4.501z
							 M32,20.501c-4.136,0-7.5-3.364-7.5-7.5s3.364-7.5,7.5-7.5s7.5,3.364,7.5,7.5S36.136,20.501,32,20.501z"/>
					</g>
				</g>
			</g>
		</g>
	</g>
	<g>
		<g>
			<path class="st0" d="M26.019,20.501H9.5c-0.276,0-0.5,0.224-0.5,0.5v2c0,0.276,0.224,0.5,0.5,0.5s0.5-0.224,0.5-0.5v-1.5h16.019
				c0.276,0,0.5-0.224,0.5-0.5S26.295,20.501,26.019,20.501z"/>
		</g>
	</g>
	<g>
		<g>
			<path class="st0" d="M9.5,25.501c-0.276,0-0.5,0.224-0.5,0.5v3c0,0.276,0.224,0.5,0.5,0.5s0.5-0.224,0.5-0.5v-3
				C10,25.725,9.776,25.501,9.5,25.501z"/>
		</g>
	</g>
	<g>
		<g>
			<path class="st0" d="M54.5,20.501H37.981c-0.276,0-0.5,0.224-0.5,0.5s0.224,0.5,0.5,0.5H54v30H10v-19.5
				c0-0.276-0.224-0.5-0.5-0.5S9,31.725,9,32.001v20c0,0.276,0.224,0.5,0.5,0.5h45c0.276,0,0.5-0.224,0.5-0.5v-31
				C55,20.725,54.776,20.501,54.5,20.501z"/>
		</g>
	</g>
	<g>
		<g>
			<path class="st0" d="M56.5,17.501H40.651c-0.276,0-0.5,0.224-0.5,0.5s0.224,0.5,0.5,0.5H56.5c0.275,0,0.5,0.225,0.5,0.5v35
				c0,0.275-0.225,0.5-0.5,0.5h-49c-0.275,0-0.5-0.225-0.5-0.5v-35c0-0.275,0.225-0.5,0.5-0.5h15.849c0.276,0,0.5-0.224,0.5-0.5
				s-0.224-0.5-0.5-0.5H7.5c-0.827,0-1.5,0.673-1.5,1.5v35c0,0.827,0.673,1.5,1.5,1.5h49c0.827,0,1.5-0.673,1.5-1.5v-35
				C58,18.174,57.327,17.501,56.5,17.501z"/>
		</g>
	</g>
	<g>
		<g>
			<circle class="st1" cx="32" cy="13.001" r="6"/>
		</g>
	</g>
	<g>
		<g>
			<g>
				<g>
					<path class="st0" d="M32,6.501c-3.584,0-6.5,2.916-6.5,6.5s2.916,6.5,6.5,6.5s6.5-2.916,6.5-6.5S35.584,6.501,32,6.501z
						 M32,18.501c-3.032,0-5.5-2.468-5.5-5.5s2.468-5.5,5.5-5.5s5.5,2.468,5.5,5.5S35.032,18.501,32,18.501z"/>
				</g>
			</g>
		</g>
	</g>
	<g>
		<g>
			<path class="st0" d="M32,9.501c-0.276,0-0.5,0.224-0.5,0.5s0.224,0.5,0.5,0.5c1.379,0,2.5,1.121,2.5,2.5
				c0,0.276,0.224,0.5,0.5,0.5s0.5-0.224,0.5-0.5C35.5,11.071,33.93,9.501,32,9.501z"/>
		</g>
	</g>
	<g>
		<g>
			<path class="st2" d="M61,13.001H46c-1.381,0-2.5,1.119-2.5,2.5v7.5c0,1.381,1.119,2.5,2.5,2.5h2.5v2.865
				c0,0.848,0.989,1.311,1.64,0.768l4.36-3.633H61c1.381,0,2.5-1.119,2.5-2.5v-7.5C63.5,14.12,62.381,13.001,61,13.001z"/>
		</g>
	</g>
	<g>
		<g>
			<g>
				<g>
					<path class="st0" d="M61,12.501H46c-1.654,0-3,1.346-3,3v7.5c0,1.654,1.346,3,3,3h2v2.365c0,0.588,0.331,1.108,0.863,1.358
						c0.207,0.096,0.425,0.144,0.641,0.144c0.342,0,0.68-0.119,0.957-0.351l4.22-3.517H61c1.654,0,3-1.346,3-3v-7.5
						C64,13.847,62.654,12.501,61,12.501z M63,23.001c0,1.103-0.897,2-2,2h-6.5c-0.117,0-0.23,0.041-0.32,0.116L49.82,28.75
						c-0.226,0.188-0.465,0.101-0.532,0.068C49.221,28.787,49,28.661,49,28.366v-2.865c0-0.276-0.224-0.5-0.5-0.5H46
						c-1.103,0-2-0.897-2-2v-7.5c0-1.103,0.897-2,2-2h15c1.103,0,2,0.897,2,2V23.001z"/>
				</g>
			</g>
		</g>
	</g>
	<g>
		<g>
			<circle class="st0" cx="48.402" cy="19.251" r="1"/>
		</g>
	</g>
	<g>
		<g>
			<circle class="st0" cx="53.402" cy="19.251" r="1"/>
		</g>
	</g>
	<g>
		<g>
			<circle class="st0" cx="58.402" cy="19.251" r="1"/>
		</g>
	</g>
	<g>
		<g>
			<g>
				<circle class="st4" cx="32.001" cy="36.501" r="12"/>
			</g>
		</g>
		<g>
			<g>
				<g>
					<g>
						<path class="st0" d="M32.001,24.001c-6.893,0-12.5,5.607-12.5,12.5s5.607,12.5,12.5,12.5s12.5-5.607,12.5-12.5
							S38.894,24.001,32.001,24.001z M32.001,48.001c-6.341,0-11.5-5.159-11.5-11.5s5.159-11.5,11.5-11.5s11.5,5.159,11.5,11.5
							S38.342,48.001,32.001,48.001z"/>
					</g>
				</g>
			</g>
		</g>
	</g>
	<g>
		<g>
			<g>
				<g>
					<g>
						<path class="st0" d="M32.003,26.501c-3.032,0-5.5,2.468-5.5,5.5s2.468,5.5,5.5,5.5s5.5-2.468,5.5-5.5
							S35.035,26.501,32.003,26.501z M32.003,36.501c-2.481,0-4.5-2.019-4.5-4.5s2.019-4.5,4.5-4.5s4.5,2.019,4.5,4.5
							S34.484,36.501,32.003,36.501z"/>
					</g>
				</g>
			</g>
		</g>
	</g>
	<g>
		<g>
			<path class="st2" d="M32.003,27.001c-2.761,0-5,2.239-5,5h0.472c2.921,0,5.75-1.023,7.995-2.891l0.373-0.31
				C34.926,27.701,33.547,27.001,32.003,27.001z"/>
		</g>
	</g>
	<g>
		<g>
			<g>
				<g>
					<path class="st0" d="M36.227,28.479c-1.05-1.258-2.589-1.979-4.224-1.979c-3.032,0-5.5,2.468-5.5,5.5
						c0,0.276,0.224,0.5,0.5,0.5h0.473c3.031,0,5.984-1.067,8.313-3.006c0.001,0,0.001,0,0.001-0.001l0.373-0.311
						c0.102-0.084,0.166-0.206,0.178-0.339C36.353,28.713,36.312,28.581,36.227,28.479z M27.53,31.501c0.25-2.247,2.16-4,4.473-4
						c1.169,0,2.279,0.451,3.114,1.253C32.985,30.514,30.295,31.488,27.53,31.501z"/>
				</g>
			</g>
		</g>
	</g>
	<g>
		<g>
			<path class="st0" d="M38.745,38.88l-4.044-1.839c-0.25-0.113-0.547-0.004-0.662,0.248c-0.114,0.251-0.003,0.548,0.248,0.662
				l4.044,1.839c0.712,0.323,1.172,1.038,1.172,1.82v0.399c0,0.276,0.224,0.5,0.5,0.5s0.5-0.224,0.5-0.5V41.61
				C40.503,40.437,39.812,39.364,38.745,38.88z"/>
		</g>
	</g>
	<g>
		<g>
			<path class="st0" d="M29.95,37.299c-0.113-0.251-0.409-0.359-0.662-0.248l-4.03,1.829c-1.069,0.485-1.76,1.558-1.76,2.731v0.398
				c0,0.276,0.224,0.5,0.5,0.5s0.5-0.224,0.5-0.5v-0.398c0-0.782,0.461-1.497,1.174-1.821l4.03-1.829
				C29.953,37.847,30.064,37.551,29.95,37.299z"/>
		</g>
	</g>
	<g>
		<g>
			<g>
				<g>
					<g>
						<path class="st0" d="M34.994,36.312c0-0.179-0.096-0.344-0.25-0.434c-0.155-0.088-0.347-0.089-0.5,0.001
							c-1.434,0.828-3.077,0.823-4.497-0.009c-0.154-0.091-0.346-0.09-0.502-0.002c-0.155,0.089-0.251,0.255-0.251,0.434
							l0.001,1.203c0,0.104,0.033,0.207,0.094,0.291l2.503,3.49c0.094,0.131,0.245,0.209,0.406,0.209c0,0,0,0,0.001,0
							c0.161,0,0.312-0.078,0.406-0.21l2.497-3.5c0.061-0.085,0.093-0.187,0.093-0.29L34.994,36.312z M33.995,37.336l-1.998,2.801
							l-2.002-2.792v-0.238c1.284,0.521,2.709,0.525,4,0.005V37.336z"/>
					</g>
				</g>
			</g>
		</g>
	</g>
	<g>
		<g>
			<path class="st0" d="M31.998,40.496c-0.276,0-0.5,0.224-0.5,0.5v5c0,0.276,0.224,0.5,0.5,0.5s0.5-0.224,0.5-0.5v-5
				C32.498,40.72,32.274,40.496,31.998,40.496z"/>
		</g>
	</g>
</g>
</svg>
