<?xml version="1.0" encoding="utf-8"?>
<!-- Generator: Adobe Illustrator 21.1.0, SVG Export Plug-In . SVG Version: 6.00 Build 0)  -->
<svg version="1.1" id="Icon_Set" xmlns="http://www.w3.org/2000/svg" xmlns:xlink="http://www.w3.org/1999/xlink" x="0px" y="0px"
	 viewBox="0 0 64 64" style="enable-background:new 0 0 64 64;" xml:space="preserve">
<style type="text/css">
	.st0{fill:#37474F;}
	.st1{fill:#EF5350;}
	.st2{fill:#FFCA28;}
	.st3{fill:#64B5F6;}
	.st4{fill:#FFFFFF;}
	.st5{fill:#FF7043;}
</style>
<g id="Mind_Mapping">
	<g>
		<g>
			<path class="st0" d="M32,12.501c-3.664,0-7.206,1.069-10.244,3.093c-0.229,0.153-0.292,0.463-0.139,0.693
				c0.153,0.229,0.462,0.291,0.693,0.139c2.873-1.913,6.224-2.925,9.689-2.925c9.649,0,17.5,7.851,17.5,17.5v2.138
				c0,4.314-1.459,8.566-4.107,11.973l-1.734,2.229c-0.747,0.961-1.159,2.16-1.159,3.377v9.784c0,0.276,0.224,0.5,0.5,0.5
				s0.5-0.224,0.5-0.5v-9.784c0-0.996,0.336-1.978,0.948-2.764l1.734-2.229c2.785-3.58,4.318-8.05,4.318-12.586v-2.138
				C50.5,20.8,42.201,12.501,32,12.501z"/>
		</g>
	</g>
	<g>
		<g>
			<path class="st0" d="M24.5,51.501H20c-2.481,0-4.5-2.019-4.5-4.5v-6.5c0-0.276-0.224-0.5-0.5-0.5H9.119
				c-0.294,0-0.42-0.22-0.452-0.286c-0.032-0.067-0.121-0.305,0.066-0.532l5.653-6.864c0.074-0.089,0.114-0.201,0.114-0.317v-1
				c0-2.177,0.394-4.299,1.172-6.31c0.1-0.258-0.028-0.548-0.286-0.647c-0.256-0.097-0.546,0.028-0.646,0.286
				c-0.822,2.126-1.239,4.371-1.239,6.671v0.82l-5.54,6.727C7.588,39,7.512,39.611,7.762,40.142s0.77,0.859,1.356,0.859H14.5v6
				c0,3.032,2.467,5.5,5.5,5.5h4.5c1.103,0,2,0.897,2,2v6c0,0.276,0.224,0.5,0.5,0.5s0.5-0.224,0.5-0.5v-6
				C27.5,52.847,26.154,51.501,24.5,51.501z"/>
		</g>
	</g>
	<g>
		<g>
			<path class="st0" d="M19.387,18.149c-0.198-0.188-0.515-0.187-0.707,0.014c-0.906,0.94-1.714,1.978-2.402,3.083
				c-0.146,0.234-0.074,0.542,0.161,0.688c0.083,0.051,0.173,0.075,0.264,0.075c0.167,0,0.331-0.084,0.425-0.236
				c0.65-1.045,1.415-2.026,2.272-2.917C19.591,18.658,19.585,18.342,19.387,18.149z"/>
		</g>
	</g>
	<g>
		<g>
			<path class="st4" d="M32,22.001v10h10C42,26.478,37.523,22.001,32,22.001z"/>
		</g>
	</g>
	<g>
		<g>
			<g>
				<g>
					<path class="st0" d="M32,21.501c-0.276,0-0.5,0.224-0.5,0.5v10c0,0.276,0.224,0.5,0.5,0.5h10c0.276,0,0.5-0.224,0.5-0.5
						C42.5,26.211,37.79,21.501,32,21.501z M32.5,31.501v-8.987c4.841,0.253,8.734,4.146,8.987,8.987H32.5z"/>
				</g>
			</g>
		</g>
	</g>
	<g>
		<g>
			<path class="st1" d="M22,32.001c0,5.523,4.477,10,10,10v-10H22z"/>
		</g>
	</g>
	<g>
		<g>
			<g>
				<g>
					<path class="st0" d="M32,31.501H22c-0.276,0-0.5,0.224-0.5,0.5c0,5.79,4.71,10.5,10.5,10.5c0.276,0,0.5-0.224,0.5-0.5v-10
						C32.5,31.725,32.276,31.501,32,31.501z M31.5,41.488c-4.841-0.253-8.734-4.146-8.987-8.987H31.5V41.488z"/>
				</g>
			</g>
		</g>
	</g>
	<g>
		<g>
			<path class="st3" d="M32,32.001v10c5.523,0,10-4.477,10-10H32z"/>
		</g>
	</g>
	<g>
		<g>
			<g>
				<g>
					<path class="st0" d="M42,31.501H32c-0.276,0-0.5,0.224-0.5,0.5v10c0,0.276,0.224,0.5,0.5,0.5c5.79,0,10.5-4.71,10.5-10.5
						C42.5,31.725,42.276,31.501,42,31.501z M32.5,41.488v-8.987h8.987C41.234,37.342,37.341,41.235,32.5,41.488z"/>
				</g>
			</g>
		</g>
	</g>
	<g>
		<g>
			<path class="st2" d="M22,32.001h10v-10C26.477,22.001,22,26.478,22,32.001z"/>
		</g>
	</g>
	<g>
		<g>
			<g>
				<g>
					<path class="st0" d="M32,21.501c-5.79,0-10.5,4.71-10.5,10.5c0,0.276,0.224,0.5,0.5,0.5h10c0.276,0,0.5-0.224,0.5-0.5v-10
						C32.5,21.725,32.276,21.501,32,21.501z M31.5,31.501h-8.987c0.252-4.841,4.146-8.734,8.987-8.987V31.501z"/>
				</g>
			</g>
		</g>
	</g>
	<g>
		<g>
			<path class="st0" d="M27.354,26.647l-20-20c-0.195-0.195-0.512-0.195-0.707,0s-0.195,0.512,0,0.707l20,20
				c0.098,0.098,0.226,0.146,0.354,0.146s0.256-0.049,0.354-0.146C27.549,27.159,27.549,26.843,27.354,26.647z"/>
		</g>
	</g>
	<g>
		<g>
			<path class="st0" d="M57.354,6.647c-0.195-0.195-0.512-0.195-0.707,0l-20,20c-0.195,0.195-0.195,0.512,0,0.707
				c0.098,0.098,0.226,0.146,0.354,0.146s0.256-0.049,0.354-0.146l20-20C57.549,7.159,57.549,6.843,57.354,6.647z"/>
		</g>
	</g>
	<g>
		<g>
			<path class="st0" d="M57.354,56.647l-20-20c-0.195-0.195-0.512-0.195-0.707,0s-0.195,0.512,0,0.707l20,20
				c0.098,0.098,0.226,0.146,0.354,0.146s0.256-0.049,0.354-0.146C57.549,57.159,57.549,56.843,57.354,56.647z"/>
		</g>
	</g>
	<g>
		<g>
			<path class="st0" d="M27.354,36.647c-0.195-0.195-0.512-0.195-0.707,0l-20,20c-0.195,0.195-0.195,0.512,0,0.707
				C6.744,57.452,6.872,57.501,7,57.501s0.256-0.049,0.354-0.146l20-20C27.549,37.159,27.549,36.843,27.354,36.647z"/>
		</g>
	</g>
	<g>
		<g>
			<g>
				<g>
					<g>
						<path class="st0" d="M7,2.501c-2.481,0-4.5,2.019-4.5,4.5s2.019,4.5,4.5,4.5s4.5-2.019,4.5-4.5S9.481,2.501,7,2.501z
							 M7,10.501c-1.93,0-3.5-1.57-3.5-3.5s1.57-3.5,3.5-3.5s3.5,1.57,3.5,3.5S8.93,10.501,7,10.501z"/>
					</g>
				</g>
			</g>
		</g>
	</g>
	<g>
		<g>
			<g>
				<g>
					<g>
						<path class="st0" d="M57,2.501c-2.481,0-4.5,2.019-4.5,4.5s2.019,4.5,4.5,4.5s4.5-2.019,4.5-4.5S59.481,2.501,57,2.501z
							 M57,10.501c-1.93,0-3.5-1.57-3.5-3.5s1.57-3.5,3.5-3.5s3.5,1.57,3.5,3.5S58.93,10.501,57,10.501z"/>
					</g>
				</g>
			</g>
		</g>
	</g>
	<g>
		<g>
			<g>
				<g>
					<g>
						<path class="st0" d="M7,52.501c-2.481,0-4.5,2.019-4.5,4.5s2.019,4.5,4.5,4.5s4.5-2.019,4.5-4.5S9.481,52.501,7,52.501z
							 M7,60.501c-1.93,0-3.5-1.57-3.5-3.5s1.57-3.5,3.5-3.5s3.5,1.57,3.5,3.5S8.93,60.501,7,60.501z"/>
					</g>
				</g>
			</g>
		</g>
	</g>
	<g>
		<g>
			<g>
				<g>
					<g>
						<path class="st0" d="M57,52.501c-2.481,0-4.5,2.019-4.5,4.5s2.019,4.5,4.5,4.5s4.5-2.019,4.5-4.5S59.481,52.501,57,52.501z
							 M57,60.501c-1.93,0-3.5-1.57-3.5-3.5s1.57-3.5,3.5-3.5s3.5,1.57,3.5,3.5S58.93,60.501,57,60.501z"/>
					</g>
				</g>
			</g>
		</g>
	</g>
</g>
</svg>
