<?xml version="1.0" encoding="utf-8"?>
<!-- Generator: Adobe Illustrator 21.1.0, SVG Export Plug-In . SVG Version: 6.00 Build 0)  -->
<svg version="1.1" id="Icon_Set" xmlns="http://www.w3.org/2000/svg" xmlns:xlink="http://www.w3.org/1999/xlink" x="0px" y="0px"
	 viewBox="0 0 64 64" style="enable-background:new 0 0 64 64;" xml:space="preserve">
<style type="text/css">
	.st0{fill:#37474F;}
	.st1{fill:#EF5350;}
	.st2{fill:#FFCA28;}
	.st3{fill:#64B5F6;}
	.st4{fill:#FFFFFF;}
	.st5{fill:#FF7043;}
</style>
<g id="Mobile_Access">
	<g>
		<g>
			<path class="st3" d="M54.5,4.5h-47c-0.552,0-1,0.448-1,1v36c0,0.552,0.448,1,1,1h9.548c-0.236-3.866,1.105-7.811,4.053-10.759
				c5.458-5.459,14.341-5.459,19.799,0c2.948,2.948,4.289,6.893,4.053,10.759H54.5c0.552,0,1-0.448,1-1v-36
				C55.5,4.948,55.052,4.5,54.5,4.5z"/>
		</g>
	</g>
	<g>
		<g>
			<path class="st0" d="M54.5,4h-47C6.672,4,6,4.673,6,5.5v2.583c0,0.276,0.224,0.5,0.5,0.5S7,8.359,7,8.083V5.5
				C7,5.225,7.224,5,7.5,5h47C54.775,5,55,5.225,55,5.5v36c0,0.275-0.224,0.5-0.5,0.5h-9.548c-0.276,0-0.5,0.224-0.5,0.5
				s0.224,0.5,0.5,0.5H54.5c0.827,0,1.5-0.673,1.5-1.5v-36C56,4.673,55.327,4,54.5,4z"/>
		</g>
	</g>
	<g>
		<g>
			<path class="st0" d="M58.5,0h-53C2.467,0,0,2.468,0,5.5v36C0,44.532,2.467,47,5.5,47h12.387c0.276,0,0.5-0.224,0.5-0.5
				s-0.224-0.5-0.5-0.5H5.5C3.018,46,1,43.981,1,41.5v-36C1,3.019,3.018,1,5.5,1h53C60.981,1,63,3.019,63,5.5v36
				c0,2.481-2.019,4.5-4.5,4.5H44.113c-0.276,0-0.5,0.224-0.5,0.5s0.224,0.5,0.5,0.5H58.5c3.033,0,5.5-2.468,5.5-5.5v-36
				C64,2.468,61.532,0,58.5,0z"/>
		</g>
	</g>
	<g>
		<g>
			<path class="st4" d="M40.632,31.5h4.867c1.381,0,2.5-1.119,2.5-2.5V11c0-1.381-1.119-2.5-2.5-2.5h-9.5c-2.761,0-5,1.238-5,4
				c0-2.761-2.239-4-5-4h-9.5c-1.381,0-2.5,1.119-2.5,2.5v18c0,1.381,1.119,2.5,2.5,2.5h4.867"/>
		</g>
	</g>
	<g>
		<g>
			<path class="st0" d="M45.5,8H36c-2.42,0-4.187,0.878-5,2.389C30.186,8.878,28.42,8,26,8h-9.5c-1.654,0-3,1.346-3,3v18
				c0,1.654,1.346,3,3,3h4.867c0.276,0,0.5-0.224,0.5-0.5s-0.224-0.5-0.5-0.5H16.5c-1.103,0-2-0.897-2-2V11c0-1.103,0.897-2,2-2H26
				c1.056,0,4.5,0.252,4.5,3.499c0,0.276,0.224,0.5,0.5,0.5s0.5-0.224,0.5-0.5C31.5,9.252,34.944,9,36,9h9.5c1.103,0,2,0.897,2,2v18
				c0,1.103-0.897,2-2,2h-4.867c-0.276,0-0.5,0.224-0.5,0.5s0.224,0.5,0.5,0.5H45.5c1.654,0,3-1.346,3-3V11
				C48.5,9.346,47.154,8,45.5,8z"/>
		</g>
	</g>
	<g>
		<g>
			<g>
				<g>
					<g>
						<path class="st0" d="M59.5,20c-1.103,0-2,0.897-2,2v3c0,1.103,0.897,2,2,2s2-0.897,2-2v-3C61.5,20.897,60.603,20,59.5,20z
							 M60.5,25c0,0.552-0.449,1-1,1s-1-0.448-1-1v-3c0-0.552,0.449-1,1-1s1,0.448,1,1V25z"/>
					</g>
				</g>
			</g>
		</g>
	</g>
	<g>
		<g>
			<g>
				<line class="st2" x1="3.5" y1="25.5" x2="3.5" y2="21.5"/>
			</g>
		</g>
		<g>
			<g>
				<path class="st0" d="M3.5,21C3.223,21,3,21.224,3,21.5v4C3,25.776,3.223,26,3.5,26S4,25.776,4,25.5v-4C4,21.224,3.776,21,3.5,21
					z"/>
			</g>
		</g>
	</g>
	<g>
		<g>
			<path class="st0" d="M0.5,9C0.223,9,0,9.224,0,9.5v3C0,12.776,0.223,13,0.5,13S1,12.776,1,12.5v-3C1,9.224,0.776,9,0.5,9z"/>
		</g>
	</g>
	<g>
		<g>
			<path class="st0" d="M6.5,10.583c-0.276,0-0.5,0.224-0.5,0.5v3c0,0.276,0.224,0.5,0.5,0.5s0.5-0.224,0.5-0.5v-3
				C7,10.807,6.776,10.583,6.5,10.583z"/>
		</g>
	</g>
	<g>
		<g>
			<path class="st0" d="M17.047,42H7.5C7.224,42,7,41.775,7,41.5V17.083c0-0.276-0.224-0.5-0.5-0.5S6,16.807,6,17.083V41.5
				C6,42.327,6.672,43,7.5,43h9.547c0.276,0,0.5-0.224,0.5-0.5S17.323,42,17.047,42z"/>
		</g>
	</g>
	<g>
		<g>
			<g>
				<line class="st4" x1="35.5" y1="13.5" x2="43.472" y2="13.538"/>
			</g>
		</g>
		<g>
			<g>
				<path class="st0" d="M43.475,13.038L35.502,13c-0.001,0-0.002,0-0.002,0c-0.275,0-0.499,0.223-0.5,0.498
					s0.222,0.501,0.498,0.502l7.973,0.038c0.001,0,0.001,0,0.002,0c0.275,0,0.499-0.223,0.5-0.498S43.75,13.039,43.475,13.038z"/>
			</g>
		</g>
	</g>
	<g>
		<g>
			<g>
				<line class="st4" x1="35.5" y1="17.5" x2="43.472" y2="17.538"/>
			</g>
		</g>
		<g>
			<g>
				<path class="st0" d="M43.475,17.038L35.502,17c-0.258-0.016-0.5,0.222-0.502,0.498c-0.001,0.275,0.222,0.501,0.498,0.502
					l7.973,0.038c0.001,0,0.001,0,0.002,0c0.275,0,0.499-0.223,0.5-0.498S43.75,17.039,43.475,17.038z"/>
			</g>
		</g>
	</g>
	<g>
		<g>
			<g>
				<line class="st4" x1="35.5" y1="21.5" x2="43.472" y2="21.538"/>
			</g>
		</g>
		<g>
			<g>
				<path class="st0" d="M43.475,21.038L35.502,21c-0.001,0-0.002,0-0.002,0c-0.275,0-0.499,0.223-0.5,0.498
					s0.222,0.501,0.498,0.502l7.973,0.038c0.001,0,0.001,0,0.002,0c0.275,0,0.499-0.223,0.5-0.498S43.75,21.039,43.475,21.038z"/>
			</g>
		</g>
	</g>
	<g>
		<g>
			<g>
				<line class="st4" x1="35.5" y1="25.5" x2="43.472" y2="25.538"/>
			</g>
		</g>
		<g>
			<g>
				<path class="st0" d="M43.475,25.038L35.502,25c-0.258-0.016-0.5,0.222-0.502,0.498c-0.001,0.275,0.222,0.501,0.498,0.502
					l7.973,0.038c0.001,0,0.001,0,0.002,0c0.275,0,0.499-0.223,0.5-0.498S43.75,25.039,43.475,25.038z"/>
			</g>
		</g>
	</g>
	<g>
		<g>
			<g>
				<line class="st4" x1="18.5" y1="13.5" x2="26.472" y2="13.538"/>
			</g>
		</g>
		<g>
			<g>
				<path class="st0" d="M26.475,13.038L18.502,13c-0.001,0-0.002,0-0.002,0c-0.275,0-0.499,0.223-0.5,0.498
					s0.222,0.501,0.498,0.502l7.973,0.038c0.001,0,0.001,0,0.002,0c0.275,0,0.499-0.223,0.5-0.498S26.75,13.039,26.475,13.038z"/>
			</g>
		</g>
	</g>
	<g>
		<g>
			<g>
				<line class="st4" x1="18.5" y1="17.5" x2="26.472" y2="17.538"/>
			</g>
		</g>
		<g>
			<g>
				<path class="st0" d="M26.475,17.038L18.502,17c-0.001,0-0.002,0-0.002,0c-0.275,0-0.499,0.223-0.5,0.498
					s0.222,0.501,0.498,0.502l7.973,0.038c0.001,0,0.001,0,0.002,0c0.275,0,0.499-0.223,0.5-0.498S26.75,17.039,26.475,17.038z"/>
			</g>
		</g>
	</g>
	<g>
		<g>
			<g>
				<line class="st4" x1="18.5" y1="21.5" x2="26.472" y2="21.538"/>
			</g>
		</g>
		<g>
			<g>
				<path class="st0" d="M26.475,21.038L18.502,21c-0.001,0-0.002,0-0.002,0c-0.275,0-0.499,0.223-0.5,0.498
					s0.222,0.501,0.498,0.502l7.973,0.038c0.001,0,0.001,0,0.002,0c0.275,0,0.499-0.223,0.5-0.498S26.75,21.039,26.475,21.038z"/>
			</g>
		</g>
	</g>
	<g>
		<g>
			<g>
				<line class="st4" x1="18.5" y1="25.5" x2="26.472" y2="25.538"/>
			</g>
		</g>
		<g>
			<g>
				<path class="st0" d="M26.475,25.038L18.502,25c-0.001,0-0.002,0-0.002,0c-0.275,0-0.499,0.223-0.5,0.498
					s0.222,0.501,0.498,0.502l7.973,0.038c0.001,0,0.001,0,0.002,0c0.275,0,0.499-0.223,0.5-0.498S26.75,25.039,26.475,25.038z"/>
			</g>
		</g>
	</g>
	<g>
		<g>
			<g>
				<g>
					<g>
						<path class="st0" d="M44.788,51.894l-3.663-3.663c-0.104-0.104-0.242-0.152-0.396-0.145c-0.146,0.012-0.28,0.088-0.366,0.208
							c-0.405,0.57-0.809,1.054-1.232,1.479c-0.422,0.422-0.906,0.825-1.479,1.233c-0.12,0.086-0.196,0.22-0.208,0.366
							c-0.012,0.146,0.041,0.291,0.145,0.395l3.663,3.662c0.098,0.098,0.226,0.146,0.354,0.146s0.256-0.049,0.354-0.146l2.829-2.828
							c0.094-0.094,0.146-0.221,0.146-0.354S44.882,51.987,44.788,51.894z M41.606,54.368l-2.899-2.899
							c0.419-0.324,0.792-0.65,1.132-0.989c0.34-0.341,0.667-0.714,0.99-1.132l2.899,2.899L41.606,54.368z"/>
					</g>
				</g>
			</g>
		</g>
	</g>
	<g>
		<g>
			<g>
				<g>
					<path class="st0" d="M39.838,32.802c-2.361-2.361-5.5-3.661-8.839-3.661c-3.339,0-6.478,1.3-8.839,3.661
						c-4.874,4.874-4.874,12.804,0,17.678c2.437,2.437,5.638,3.655,8.839,3.655c3.201,0,6.402-1.219,8.839-3.655
						C44.712,45.605,44.712,37.676,39.838,32.802z M39.131,49.772c-4.484,4.483-11.78,4.482-16.264,0
						c-4.484-4.484-4.484-11.779,0-16.264c2.172-2.172,5.06-3.368,8.132-3.368s5.959,1.196,8.132,3.368
						C43.615,37.993,43.615,45.288,39.131,49.772z M37.717,34.923c-3.704-3.705-9.73-3.703-13.435,0
						c-3.704,3.704-3.704,9.73,0,13.435c1.852,1.852,4.285,2.778,6.718,2.778s4.865-0.927,6.717-2.778
						C41.421,44.653,41.421,38.627,37.717,34.923z M37.01,47.65c-3.314,3.314-8.707,3.314-12.021,0
						c-3.314-3.314-3.314-8.706,0-12.021c1.657-1.657,3.833-2.485,6.011-2.485c2.176,0,4.354,0.829,6.01,2.485
						C40.324,38.944,40.324,44.336,37.01,47.65z"/>
				</g>
			</g>
		</g>
	</g>
	<g>
		<g>
			<path class="st2" d="M16.5,31.5c-1.381,0-2.5-1.119-2.5-2.5V12.5h-1c-1.381,0-2.5,1.119-2.5,2.5v18c0,1.381,1.119,2.5,2.5,2.5
				h5.433c0.661-1.357,1.542-2.633,2.667-3.759c0.086-0.086,0.179-0.158,0.267-0.241H16.5z"/>
		</g>
	</g>
	<g>
		<g>
			<path class="st2" d="M49,12.5h-1V29c0,1.381-1.119,2.5-2.5,2.5h-4.867c0.087,0.083,0.181,0.155,0.267,0.241
				c1.126,1.126,2.006,2.402,2.667,3.759l5.434,0c1.381,0,2.5-1.119,2.5-2.5V15C51.5,13.619,50.38,12.5,49,12.5z"/>
		</g>
	</g>
	<g>
		<g>
			<path class="st0" d="M21.367,31H16.5c-1.103,0-2-0.897-2-2V12.5c0-0.276-0.224-0.5-0.5-0.5h-1c-1.654,0-3,1.346-3,3v18
				c0,1.654,1.346,3,3,3h5.433c0.276,0,0.5-0.224,0.5-0.5s-0.224-0.5-0.5-0.5H13c-1.103,0-2-0.897-2-2V15c0-1.103,0.897-2,2-2h0.5
				v16c0,1.654,1.346,3,3,3h4.867c0.276,0,0.5-0.224,0.5-0.5S21.643,31,21.367,31z"/>
		</g>
	</g>
	<g>
		<g>
			<path class="st0" d="M49,12h-1c-0.276,0-0.5,0.224-0.5,0.5V29c0,1.103-0.897,2-2,2h-4.867c-0.276,0-0.5,0.224-0.5,0.5
				s0.224,0.5,0.5,0.5H45.5c1.654,0,3-1.346,3-3V13H49c1.103,0,2,0.897,2,2v17.999c0,1.103-0.897,2-2,2h-5.434
				c-0.276,0-0.5,0.224-0.5,0.5s0.224,0.5,0.5,0.5H49c1.654,0,3-1.346,3-3V15C52,13.346,50.654,12,49,12z"/>
		</g>
	</g>
	<g>
		<g>
			<path class="st1" d="M52.566,59.672l-7.071-7.071c-0.391-0.391-1.024-0.391-1.414,0l-2.121,2.121
				c-0.391,0.391-0.391,1.024,0,1.414l7.071,7.071c0.391,0.391,1.024,0.391,1.414,0l2.121-2.121
				C52.957,60.695,52.957,60.062,52.566,59.672z"/>
		</g>
	</g>
	<g>
		<g>
			<g>
				<g>
					<path class="st0" d="M52.92,59.318l-7.071-7.071c-0.585-0.584-1.536-0.584-2.121,0l-2.122,2.121
						c-0.585,0.585-0.585,1.536,0,2.121l7.071,7.071C48.96,63.844,49.337,64,49.738,64s0.777-0.156,1.061-0.439l2.122-2.121
						C53.504,60.854,53.504,59.903,52.92,59.318z M52.213,60.732l-2.122,2.121c-0.189,0.189-0.518,0.189-0.707,0l-7.071-7.071
						c-0.195-0.195-0.195-0.512,0-0.707l2.122-2.121c0.098-0.098,0.226-0.146,0.354-0.146s0.256,0.049,0.354,0.146l7.071,7.071
						C52.407,60.221,52.407,60.537,52.213,60.732z"/>
				</g>
			</g>
		</g>
	</g>
	<g>
		<g>
			<g>
				<line class="st4" x1="30.999" y1="12.5" x2="30.999" y2="27.659"/>
			</g>
		</g>
		<g>
			<g>
				<path class="st0" d="M31,11.999c-0.276,0-0.5,0.224-0.5,0.5v15.16c0,0.276,0.224,0.5,0.5,0.5s0.5-0.224,0.5-0.5v-15.16
					C31.5,12.223,31.276,11.999,31,11.999z"/>
			</g>
		</g>
	</g>
	<g>
		<g>
			<path class="st0" d="M31,35.141c-0.276,0-0.5,0.224-0.5,0.5s0.224,0.5,0.5,0.5c3.033,0,5.5,2.468,5.5,5.5
				c0,0.276,0.224,0.5,0.5,0.5s0.5-0.224,0.5-0.5C37.5,38.057,34.583,35.141,31,35.141z"/>
		</g>
	</g>
	<g>
		<g>
			<path class="st0" d="M51.505,57.904c-0.195-0.195-0.512-0.195-0.707,0l-3.536,3.535c-0.195,0.195-0.195,0.512,0,0.707
				c0.098,0.098,0.226,0.146,0.354,0.146s0.256-0.049,0.354-0.146l3.536-3.535C51.701,58.416,51.701,58.1,51.505,57.904z"/>
		</g>
	</g>
</g>
</svg>
