<?xml version="1.0" encoding="utf-8"?>
<!-- Generator: Adobe Illustrator 21.1.0, SVG Export Plug-In . SVG Version: 6.00 Build 0)  -->
<svg version="1.1" id="Icon_Set" xmlns="http://www.w3.org/2000/svg" xmlns:xlink="http://www.w3.org/1999/xlink" x="0px" y="0px"
	 viewBox="0 0 64 64" style="enable-background:new 0 0 64 64;" xml:space="preserve">
<style type="text/css">
	.st0{fill:#37474F;}
	.st1{fill:#EF5350;}
	.st2{fill:#FFCA28;}
	.st3{fill:#64B5F6;}
	.st4{fill:#FFFFFF;}
	.st5{fill:#FF7043;}
</style>
<g id="Modern_Art">
	<g>
		<g>
			<path class="st3" d="M58.856,39.66L43.659,54.856c-0.001,0.001-0.001,0.002-0.002,0.003c-0.106,0.106-0.222,0.195-0.344,0.272
				c-0.034,0.022-0.072,0.037-0.108,0.057c-0.092,0.051-0.184,0.097-0.281,0.132c-0.017,0.006-0.032,0.017-0.049,0.023l-4.243,1.415
				c-0.208,0.069-0.421,0.103-0.632,0.103c-0.522,0-1.033-0.205-1.415-0.586c-0.536-0.536-0.723-1.328-0.483-2.046l1.414-4.243
				c0.006-0.017,0.016-0.031,0.022-0.048c0.036-0.099,0.082-0.193,0.134-0.286c0.019-0.034,0.033-0.07,0.054-0.103
				c0.077-0.122,0.166-0.238,0.272-0.344c0.001-0.001,0.002-0.001,0.003-0.002l9.701-9.701H31c-1.381,0-2.5,1.119-2.5,2.5v19
				c0,1.381,1.119,2.5,2.5,2.5h27c1.381,0,2.5-1.119,2.5-2.5V42C60.5,40.921,59.813,40.01,58.856,39.66z"/>
		</g>
	</g>
	<g>
		<g>
			<path class="st0" d="M59.028,39.19c-0.256-0.091-0.546,0.039-0.642,0.298c-0.095,0.259,0.038,0.546,0.298,0.642
				C59.472,40.417,60,41.169,60,42v19c0,1.103-0.897,2-2,2H31c-1.103,0-2-0.897-2-2V42c0-1.103,0.897-2,2-2h16.703
				c0.276,0,0.5-0.224,0.5-0.5s-0.224-0.5-0.5-0.5H31c-1.654,0-3,1.346-3,3v19c0,1.654,1.346,3,3,3h27c1.654,0,3-1.346,3-3V42
				C61,40.751,60.208,39.622,59.028,39.19z"/>
		</g>
	</g>
	<g>
		<g>
			<path class="st2" d="M39,5.5H6C4.619,5.5,3.5,6.619,3.5,8v39c0,1.381,1.119,2.5,2.5,2.5h20.5v-7c0-2.761,2.239-5,5-5h10V8
				C41.5,6.619,40.381,5.5,39,5.5z"/>
		</g>
	</g>
	<g>
		<g>
			<path class="st0" d="M26.5,49H6c-1.103,0-2-0.897-2-2V20c0-0.276-0.224-0.5-0.5-0.5S3,19.723,3,20v27c0,1.654,1.346,3,3,3h20.5
				c0.276,0,0.5-0.224,0.5-0.5S26.776,49,26.5,49z"/>
		</g>
	</g>
	<g>
		<g>
			<path class="st0" d="M3.5,13.5C3.224,13.5,3,13.723,3,14v3c0,0.276,0.224,0.5,0.5,0.5S4,17.276,4,17v-3
				C4,13.723,3.776,13.5,3.5,13.5z"/>
		</g>
	</g>
	<g>
		<g>
			<path class="st0" d="M39,5H6C4.346,5,3,6.345,3,8v3c0,0.276,0.224,0.5,0.5,0.5S4,11.276,4,11V8c0-1.103,0.897-2,2-2h33
				c1.103,0,2,0.897,2,2v29.5c0,0.276,0.224,0.5,0.5,0.5s0.5-0.224,0.5-0.5V8C42,6.345,40.654,5,39,5z"/>
		</g>
	</g>
	<g>
		<g>
			<g>
				<g>
					<g>
						<path class="st0" d="M42.596,53.092l-2.828-2.829c-0.122-0.123-0.3-0.172-0.469-0.133c-0.168,0.04-0.305,0.165-0.359,0.329
							l-1.414,4.243c-0.06,0.18-0.013,0.378,0.121,0.512c0.096,0.095,0.223,0.146,0.354,0.146c0.053,0,0.106-0.008,0.158-0.026
							l4.242-1.414c0.164-0.055,0.289-0.19,0.328-0.359C42.769,53.392,42.719,53.214,42.596,53.092z M38.791,54.069l0.842-2.526
							l1.684,1.684L38.791,54.069z"/>
					</g>
				</g>
			</g>
		</g>
	</g>
	<g>
		<g>
			<g>
				<g>
					<g>
						<path class="st0" d="M59.92,33.646l-0.707-0.707c-0.584-0.585-1.537-0.585-2.121,0L56.031,34
							c-0.195,0.195-0.195,0.512,0,0.707l2.121,2.122c0.094,0.094,0.221,0.146,0.354,0.146s0.26-0.053,0.354-0.146l1.061-1.061
							C60.505,35.183,60.505,34.231,59.92,33.646z M59.213,35.061l-0.707,0.707l-1.414-1.415l0.707-0.707
							c0.195-0.195,0.512-0.195,0.707,0l0.707,0.707C59.408,34.548,59.408,34.865,59.213,35.061z"/>
					</g>
				</g>
			</g>
		</g>
	</g>
	<g>
		<g>
			
				<rect x="37.387" y="41.722" transform="matrix(0.7071 -0.7071 0.7071 0.7071 -16.5245 47.5509)" class="st1" width="23.5" height="4"/>
		</g>
	</g>
	<g>
		<g>
			<g>
				<g>
					<path class="st0" d="M59.213,36.475l-2.828-2.829c-0.094-0.094-0.221-0.146-0.354-0.146s-0.26,0.053-0.354,0.146L39.061,50.263
						c-0.195,0.195-0.195,0.512,0,0.707l2.828,2.829c0.094,0.094,0.221,0.146,0.354,0.146s0.26-0.053,0.354-0.146l16.617-16.617
						C59.408,36.986,59.408,36.67,59.213,36.475z M42.242,52.738l-2.121-2.122l15.91-15.91l2.121,2.122L42.242,52.738z"/>
				</g>
			</g>
		</g>
	</g>
	<g>
		<g>
			<path class="st0" d="M14.771,51.006c-0.266-0.05-0.529,0.138-0.575,0.411l-1.931,11.582H8.278l1.903-11.417
				c0.046-0.272-0.139-0.53-0.411-0.575c-0.269-0.05-0.529,0.138-0.575,0.411l-2,12c-0.024,0.145,0.017,0.293,0.111,0.405
				c0.096,0.112,0.234,0.177,0.382,0.177h5c0.244,0,0.453-0.177,0.493-0.418l2-12C15.228,51.31,15.043,51.052,14.771,51.006z"/>
		</g>
	</g>
	<g>
		<g>
			<path class="st0" d="M26.5,0h-8C17.673,0,17,0.672,17,1.5v2C17,3.776,17.224,4,17.5,4S18,3.776,18,3.5v-2
				C18,1.224,18.225,1,18.5,1h8C26.775,1,27,1.224,27,1.5v2C27,3.776,27.224,4,27.5,4S28,3.776,28,3.5v-2C28,0.672,27.327,0,26.5,0z
				"/>
		</g>
	</g>
	<g>
		<g>
			<g>
				<g>
					<g>
						<path class="st0" d="M27.5,17.5h-10c-0.276,0-0.5,0.224-0.5,0.5v18c0,0.276,0.224,0.5,0.5,0.5h10c0.276,0,0.5-0.224,0.5-0.5
							V18C28,17.723,27.776,17.5,27.5,17.5z M27,35.5h-9v-17h9V35.5z"/>
					</g>
				</g>
			</g>
		</g>
	</g>
	<g>
		<g>
			<g>
				<g>
					<g>
						<path class="st0" d="M17.5,23.5c-3.584,0-6.5,2.916-6.5,6.5s2.916,6.5,6.5,6.5S24,33.583,24,30S21.084,23.5,17.5,23.5z
							 M17.5,35.5c-3.032,0-5.5-2.467-5.5-5.5s2.468-5.5,5.5-5.5S23,26.967,23,30S20.532,35.5,17.5,35.5z"/>
					</g>
				</g>
			</g>
		</g>
	</g>
	<g>
		<g>
			<g>
				<g>
					<g>
						<path class="st0" d="M27.5,13.5c-2.481,0-4.5,2.019-4.5,4.5s2.019,4.5,4.5,4.5S32,20.481,32,18S29.981,13.5,27.5,13.5z
							 M27.5,21.5c-1.93,0-3.5-1.57-3.5-3.5s1.57-3.5,3.5-3.5S31,16.07,31,18S29.43,21.5,27.5,21.5z"/>
					</g>
				</g>
			</g>
		</g>
	</g>
	<g>
		<g>
			<path class="st0" d="M54,15H43.5c-0.276,0-0.5,0.224-0.5,0.5s0.224,0.5,0.5,0.5H54c1.103,0,2,0.897,2,2s-0.897,2-2,2h-5
				c-1.654,0-3,1.346-3,3s1.346,3,3,3c1.103,0,2,0.897,2,2s-0.897,2-2,2c-1.654,0-3,1.346-3,3v6.5c0,0.276,0.224,0.5,0.5,0.5
				s0.5-0.224,0.5-0.5V33c0-1.103,0.897-2,2-2c1.654,0,3-1.346,3-3s-1.346-3-3-3c-1.103,0-2-0.897-2-2s0.897-2,2-2h5
				c1.654,0,3-1.346,3-3S55.654,15,54,15z"/>
		</g>
	</g>
	<g>
		<g>
			<g>
				<g>
					<g>
						<path class="st0" d="M31.5,49.5c-1.103,0-2,0.897-2,2s0.897,2,2,2s2-0.897,2-2S32.603,49.5,31.5,49.5z M31.5,52.5
							c-0.552,0-1-0.449-1-1s0.448-1,1-1s1,0.449,1,1S32.052,52.5,31.5,52.5z"/>
					</g>
				</g>
			</g>
		</g>
	</g>
	<g>
		<g>
			<path class="st0" d="M32.5,46h-2c-0.276,0-0.5,0.224-0.5,0.5s0.224,0.5,0.5,0.5h2c0.276,0,0.5-0.224,0.5-0.5S32.776,46,32.5,46z"
				/>
		</g>
	</g>
	<g>
		<g>
			<path class="st0" d="M32.5,43.5h-2c-0.276,0-0.5,0.224-0.5,0.5s0.224,0.5,0.5,0.5h2c0.276,0,0.5-0.224,0.5-0.5
				S32.776,43.5,32.5,43.5z"/>
		</g>
	</g>
	<g>
		<g>
			<path class="st0" d="M32.5,58.5h-2c-0.276,0-0.5,0.224-0.5,0.5s0.224,0.5,0.5,0.5h2c0.276,0,0.5-0.224,0.5-0.5
				S32.776,58.5,32.5,58.5z"/>
		</g>
	</g>
	<g>
		<g>
			<path class="st0" d="M32.5,56h-2c-0.276,0-0.5,0.224-0.5,0.5s0.224,0.5,0.5,0.5h2c0.276,0,0.5-0.224,0.5-0.5S32.776,56,32.5,56z"
				/>
		</g>
	</g>
	<g>
		<g>
			<path class="st4" d="M56.5,42.5h-0.483L43.659,54.856c-0.001,0.001-0.001,0.002-0.002,0.003
				c-0.106,0.106-0.222,0.195-0.344,0.272c-0.034,0.022-0.072,0.037-0.108,0.057c-0.092,0.051-0.184,0.097-0.281,0.132
				c-0.017,0.006-0.032,0.017-0.049,0.023l-4.243,1.415c-0.208,0.069-0.421,0.103-0.632,0.103c-0.522,0-1.033-0.205-1.415-0.586
				c-0.536-0.536-0.723-1.328-0.483-2.046l1.414-4.243c0.006-0.017,0.016-0.031,0.022-0.048c0.036-0.099,0.082-0.193,0.134-0.286
				c0.019-0.034,0.033-0.07,0.054-0.103c0.077-0.122,0.166-0.238,0.272-0.344c0.001-0.001,0.002-0.001,0.003-0.002l6.701-6.701H35.5
				c-0.552,0-1,0.448-1,1v16c0,0.552,0.448,1,1,1h21c0.552,0,1-0.448,1-1v-16C57.5,42.947,57.052,42.5,56.5,42.5z"/>
		</g>
	</g>
	<g>
		<g>
			<path class="st0" d="M56.5,42h-0.483c-0.276,0-0.5,0.224-0.5,0.5s0.224,0.5,0.5,0.5H56.5c0.275,0,0.5,0.224,0.5,0.5v16
				c0,0.276-0.225,0.5-0.5,0.5h-21c-0.275,0-0.5-0.224-0.5-0.5v-16c0-0.276,0.225-0.5,0.5-0.5h9.203c0.276,0,0.5-0.224,0.5-0.5
				s-0.224-0.5-0.5-0.5H35.5c-0.827,0-1.5,0.673-1.5,1.5v16c0,0.827,0.673,1.5,1.5,1.5h21c0.827,0,1.5-0.673,1.5-1.5v-16
				C58,42.672,57.327,42,56.5,42z"/>
		</g>
	</g>
</g>
</svg>
