<?xml version="1.0" encoding="utf-8"?>
<!-- Generator: Adobe Illustrator 21.1.0, SVG Export Plug-In . SVG Version: 6.00 Build 0)  -->
<svg version="1.1" id="Icon_Set" xmlns="http://www.w3.org/2000/svg" xmlns:xlink="http://www.w3.org/1999/xlink" x="0px" y="0px"
	 viewBox="0 0 64 64" style="enable-background:new 0 0 64 64;" xml:space="preserve">
<style type="text/css">
	.st0{fill:#37474F;}
	.st1{fill:#EF5350;}
	.st2{fill:#FFCA28;}
	.st3{fill:#64B5F6;}
	.st4{fill:#FFFFFF;}
	.st5{fill:#FF7043;}
</style>
<g id="Music">
	<g>
		<g>
			<path class="st2" d="M49.398,62.492L49.5,63.5c0-2.761-2.239-5-5-5H38c-1.381,0-2.5-1.119-2.5-2.5V43c0-1.381,1.119-2.5,2.5-2.5
				h6.5c2.761,0,5,2.239,5,5v11v7"/>
		</g>
	</g>
	<g>
		<g>
			<g>
				<g>
					<path class="st0" d="M44.5,40H38c-1.654,0-3,1.346-3,3v13c0,1.654,1.346,3,3,3h6.5c2.164,0,3.976,1.535,4.404,3.573
						l0.098,0.972c0.005,0.059,0.021,0.115,0.045,0.167l0,0v0c0.03,0.064,0.074,0.122,0.127,0.167l0,0c0,0,0,0,0,0
						c0.06,0.051,0.131,0.088,0.21,0.106c0,0,0,0,0,0h0C49.423,63.995,49.461,64,49.5,64c0.004,0,0.009,0,0.013,0
						c0.087-0.002,0.168-0.027,0.239-0.068c0.001-0.001,0.002-0.001,0.001-0.001c0,0,0.001,0,0.001,0l0.001,0
						c0.04-0.023,0.075-0.052,0.106-0.085v0l0.001,0c0,0,0,0,0,0c0,0,0.001,0,0.001-0.001c0-0.001,0.001-0.001,0.001-0.001
						c0.081-0.086,0.131-0.2,0.135-0.326v-0.001c0,0,0,0,0,0v-0.001c0,0,0-0.001,0-0.001c0,0,0,0,0,0v-0.001c0,0,0,0,0,0
						c0,0,0,0,0-0.001v0c0-0.001,0-0.001,0-0.001v-0.001c0,0,0,0,0,0c0,0,0,0,0-0.001v0c0-0.001,0-0.002,0-0.002v-18
						C50,42.467,47.533,40,44.5,40z M49,60.34C48.004,58.926,46.358,58,44.5,58H38c-1.103,0-2-0.897-2-2V43c0-1.103,0.897-2,2-2h6.5
						c2.481,0,4.5,2.019,4.5,4.5V60.34z"/>
				</g>
			</g>
		</g>
	</g>
	<g>
		<g>
			<path class="st2" d="M49.602,62.492L49.5,63.5c0-2.761,2.239-5,5-5H61c1.381,0,2.5-1.119,2.5-2.5V43c0-1.381-1.119-2.5-2.5-2.5
				h-6.5c-2.761,0-5,2.239-5,5v11v7"/>
		</g>
	</g>
	<g>
		<g>
			<g>
				<g>
					<path class="st0" d="M61,40h-6.5c-3.033,0-5.5,2.467-5.5,5.5V63.5c0,0,0,0,0,0.001v0c0,0,0,0.001,0,0.001c0,0,0,0.001,0,0.001
						v0.001c0,0,0,0,0,0.001v0c0,0,0,0.001,0,0.001c0,0,0,0,0,0v0.001c0,0,0,0,0,0c0,0,0,0,0,0.001v0.001c0,0,0,0,0,0v0.001
						c0.004,0.126,0.054,0.24,0.135,0.326c0,0.002,0.001,0,0.001,0.001c0,0.001,0.001,0.001,0.001,0.001s0,0,0,0l0.001,0v0
						c0.031,0.033,0.067,0.062,0.106,0.085l0.001,0c0,0,0,0,0,0l0.001,0.001c0.07,0.041,0.151,0.065,0.238,0.068c0,0,0,0,0,0
						c0,0,0.009,0,0.014,0c0.037,0,0.073-0.004,0.108-0.012c0.088-0.02,0.167-0.062,0.231-0.122l0,0c0,0,0,0,0,0
						c0.044-0.041,0.082-0.091,0.108-0.146c0.026-0.054,0.043-0.113,0.049-0.175l0.098-0.972C50.524,60.535,52.336,59,54.5,59H61
						c1.654,0,3-1.346,3-3V43C64,41.345,62.654,40,61,40z M63,56c0,1.103-0.897,2-2,2h-6.5c-1.858,0-3.504,0.926-4.5,2.341V45.5
						c0-2.481,2.019-4.5,4.5-4.5H61c1.103,0,2,0.897,2,2V56z"/>
				</g>
			</g>
		</g>
	</g>
	<g>
		<g>
			<path class="st3" d="M37.839,24.92c-5.467-5.467-13.382-6.417-17.678-2.121c-1.024,1.024-1.747,2.255-2.181,3.609
				c-0.702,2.188-2.68,3.665-4.977,3.61c-3.49-0.084-6.736,1.017-9.105,3.387c-5.467,5.467-4.201,15.598,2.828,22.627
				s17.16,8.296,22.627,2.828c2.37-2.37,3.471-5.616,3.387-9.105c-0.024-1.009,0.262-1.949,0.76-2.754v-4.001
				c0-2.481,2.019-4.5,4.5-4.5h4.279C43.417,34.251,41.848,28.93,37.839,24.92z"/>
		</g>
	</g>
	<g>
		<g>
			<path class="st0" d="M38.192,24.567c-2.723-2.723-6.123-4.451-9.572-4.865c-3.493-0.418-6.624,0.555-8.812,2.744
				c-1.057,1.057-1.832,2.339-2.304,3.81c-0.642,2.001-2.46,3.333-4.488,3.264c-3.726-0.09-7.103,1.165-9.471,3.533
				c-5.653,5.654-4.385,16.122,2.828,23.334c4.178,4.178,9.446,6.361,14.24,6.361c3.483,0,6.715-1.153,9.095-3.533
				c2.368-2.368,3.623-5.731,3.534-9.471c-0.013-0.518,0.065-1.029,0.232-1.521c0.112-0.331,0.265-0.653,0.453-0.958
				c0.145-0.235,0.073-0.543-0.162-0.688c-0.235-0.146-0.543-0.073-0.688,0.162c-0.229,0.369-0.414,0.76-0.55,1.164
				c-0.204,0.604-0.3,1.231-0.285,1.865c0.084,3.514-1.037,6.536-3.241,8.74c-2.533,2.533-6.197,3.646-10.312,3.129
				c-4.164-0.521-8.287-2.636-11.608-5.958c-6.823-6.823-8.092-16.656-2.828-21.92c2.173-2.173,5.272-3.33,8.74-3.24
				c2.492,0.046,4.686-1.531,5.464-3.958c0.422-1.318,1.115-2.465,2.059-3.408c1.966-1.967,4.8-2.844,7.986-2.458
				c3.229,0.387,6.419,2.014,8.984,4.579c3.746,3.746,5.438,8.887,4.312,13.097c-0.071,0.267,0.087,0.541,0.354,0.612
				c0.268,0.074,0.542-0.087,0.612-0.354C43.98,34.081,42.186,28.561,38.192,24.567z"/>
		</g>
	</g>
	<g>
		<g>
			<g>
				<polyline class="st4" points="34.656,23.859 35.717,22.799 47.738,10.778 51.98,15.02 22.989,44.012 18.746,39.769 
					28.292,30.223 				"/>
			</g>
		</g>
		<g>
			<g>
				<path class="st0" d="M52.334,14.667l-4.243-4.243c-0.195-0.195-0.512-0.195-0.707,0L34.303,23.506
					c-0.195,0.195-0.195,0.512,0,0.707s0.512,0.195,0.707,0l12.728-12.728l3.536,3.536L22.989,43.305l-3.536-3.536l9.193-9.192
					c0.195-0.195,0.195-0.512,0-0.707s-0.512-0.195-0.707,0l-9.546,9.546c-0.094,0.094-0.146,0.221-0.146,0.354
					s0.053,0.26,0.146,0.354l4.243,4.243c0.098,0.098,0.226,0.146,0.354,0.146s0.256-0.049,0.354-0.146l28.992-28.991
					c0.094-0.094,0.146-0.221,0.146-0.354S52.428,14.761,52.334,14.667z"/>
			</g>
		</g>
	</g>
	<g>
		<g>
			<ellipse transform="matrix(0.7071 -0.7071 0.7071 0.7071 -22.802 27.3183)" class="st4" cx="21.575" cy="41.184" rx="6" ry="6"/>
		</g>
	</g>
	<g>
		<g>
			<g>
				<g>
					<path class="st0" d="M26.171,36.587c-1.228-1.228-2.86-1.904-4.596-1.904s-3.369,0.676-4.596,1.904
						c-2.534,2.534-2.534,6.658,0,9.192c1.228,1.228,2.86,1.904,4.596,1.904s3.369-0.676,4.596-1.904
						C28.705,43.246,28.705,39.122,26.171,36.587z M25.464,45.073c-1.039,1.039-2.42,1.611-3.889,1.611s-2.851-0.572-3.889-1.611
						c-2.145-2.145-2.145-5.634,0-7.778c1.039-1.039,2.42-1.611,3.889-1.611s2.85,0.572,3.889,1.611
						C27.608,39.439,27.608,42.928,25.464,45.073z"/>
				</g>
			</g>
		</g>
	</g>
	<g>
		<g>
			<path class="st1" d="M61.527,4.768l-3.536-3.536c-0.976-0.976-2.559-0.976-3.536,0l-6.364,6.364
				c-0.976,0.976-0.976,2.559,0,3.536l3.536,3.536c0.976,0.976,2.559,0.976,3.536,0l6.364-6.364
				C62.503,7.327,62.503,5.744,61.527,4.768z"/>
		</g>
	</g>
	<g>
		<g>
			<g>
				<g>
					<path class="st0" d="M61.88,4.414l-3.536-3.535c-1.17-1.17-3.073-1.171-4.243,0l-6.364,6.364c-1.17,1.17-1.17,3.073,0,4.243
						l3.536,3.536c0.585,0.585,1.353,0.877,2.121,0.877s1.536-0.292,2.121-0.877l6.364-6.364C63.05,7.487,63.05,5.584,61.88,4.414z
						 M61.173,7.95l-6.364,6.364c-0.779,0.779-2.049,0.779-2.828,0l-3.536-3.536c-0.78-0.78-0.78-2.049,0-2.829l6.364-6.364
						c0.39-0.39,0.902-0.585,1.414-0.585c0.512,0,1.024,0.195,1.415,0.585l3.536,3.535C61.953,5.901,61.953,7.17,61.173,7.95z"/>
				</g>
			</g>
		</g>
	</g>
	<g>
		<g>
			<g>
				<line class="st2" x1="10.261" y1="44.012" x2="18.747" y2="52.497"/>
			</g>
		</g>
		<g>
			<g>
				<path class="st0" d="M19.1,52.144l-8.485-8.485c-0.195-0.195-0.512-0.195-0.707,0s-0.195,0.512,0,0.707l8.485,8.485
					c0.098,0.098,0.226,0.146,0.354,0.146s0.256-0.049,0.354-0.146C19.295,52.656,19.295,52.339,19.1,52.144z"/>
			</g>
		</g>
	</g>
	<g>
		<g>
			<path class="st0" d="M46.257,46.571l-2.5-1.5c-0.154-0.093-0.347-0.095-0.504-0.006S43,45.319,43,45.5V52
				c0,0.276,0.224,0.5,0.5,0.5S44,52.276,44,52v-5.617l1.5,0.9V49c0,0.276,0.224,0.5,0.5,0.5s0.5-0.224,0.5-0.5v-2
				C46.5,46.824,46.408,46.661,46.257,46.571z"/>
		</g>
	</g>
	<g>
		<g>
			<g>
				<g>
					<g>
						<path class="st0" d="M41,50c-1.682,0-3,0.878-3,2s1.318,2,3,2s3-0.878,3-2S42.682,50,41,50z M41,53c-1.145,0-2-0.528-2-1
							s0.855-1,2-1s2,0.528,2,1S42.145,53,41,53z"/>
					</g>
				</g>
			</g>
		</g>
	</g>
	<g>
		<g>
			<path class="st0" d="M13.186,11.036l-2.5-1c-0.152-0.062-0.327-0.042-0.466,0.05C10.083,10.179,10,10.334,10,10.5V17
				c0,0.276,0.224,0.5,0.5,0.5S11,17.276,11,17v-5.762l1.5,0.6V13.5c0,0.276,0.224,0.5,0.5,0.5s0.5-0.224,0.5-0.5v-2
				C13.5,11.295,13.375,11.112,13.186,11.036z"/>
		</g>
	</g>
	<g>
		<g>
			<g>
				<g>
					<g>
						<path class="st0" d="M8,15c-1.682,0-3,0.878-3,2s1.318,2,3,2s3-0.878,3-2S9.682,15,8,15z M8,18c-1.145,0-2-0.528-2-1
							s0.855-1,2-1s2,0.528,2,1S9.145,18,8,18z"/>
					</g>
				</g>
			</g>
		</g>
	</g>
	<g>
		<g>
			<path class="st0" d="M33.186,1.036l-2.5-1c-0.152-0.061-0.328-0.042-0.466,0.05C30.083,0.179,30,0.334,30,0.5V7
				c0,0.276,0.224,0.5,0.5,0.5S31,7.276,31,7V1.238l1.5,0.6V3.5C32.5,3.776,32.724,4,33,4s0.5-0.224,0.5-0.5v-2
				C33.5,1.295,33.375,1.112,33.186,1.036z"/>
		</g>
	</g>
	<g>
		<g>
			<g>
				<g>
					<g>
						<path class="st0" d="M28,5c-1.682,0-3,0.878-3,2s1.318,2,3,2s3-0.878,3-2S29.682,5,28,5z M28,8c-1.145,0-2-0.528-2-1
							s0.855-1,2-1s2,0.528,2,1S29.145,8,28,8z"/>
					</g>
				</g>
			</g>
		</g>
	</g>
	<g>
		<g>
			<path class="st0" d="M59.5,46h-6c-0.276,0-0.5,0.224-0.5,0.5s0.224,0.5,0.5,0.5h6c0.276,0,0.5-0.224,0.5-0.5S59.776,46,59.5,46z"
				/>
		</g>
	</g>
	<g>
		<g>
			<path class="st0" d="M59.5,49h-6c-0.276,0-0.5,0.224-0.5,0.5s0.224,0.5,0.5,0.5h6c0.276,0,0.5-0.224,0.5-0.5S59.776,49,59.5,49z"
				/>
		</g>
	</g>
	<g>
		<g>
			<path class="st0" d="M59.5,52h-6c-0.276,0-0.5,0.224-0.5,0.5s0.224,0.5,0.5,0.5h6c0.276,0,0.5-0.224,0.5-0.5S59.776,52,59.5,52z"
				/>
		</g>
	</g>
	<g>
		<g>
			<path class="st0" d="M28.646,29.87c-0.195-0.195-0.512-0.195-0.707,0l-15.91,15.91c-0.195,0.195-0.195,0.512,0,0.707
				c0.098,0.098,0.226,0.146,0.354,0.146s0.256-0.049,0.354-0.146l15.91-15.91C28.841,30.381,28.841,30.065,28.646,29.87z"/>
		</g>
	</g>
	<g>
		<g>
			<path class="st0" d="M52.334,14.667l-4.243-4.243c-0.195-0.195-0.512-0.195-0.707,0L34.303,23.506
				c-0.195,0.195-0.195,0.512,0,0.707s0.512,0.195,0.707,0l12.728-12.728l3.536,3.536L16.271,50.022
				c-0.195,0.195-0.195,0.512,0,0.707c0.098,0.098,0.226,0.146,0.354,0.146s0.256-0.049,0.354-0.146l35.355-35.355
				C52.529,15.179,52.529,14.862,52.334,14.667z"/>
		</g>
	</g>
	<g>
		<g>
			<path class="st0" d="M50.212,12.545c-0.195-0.195-0.512-0.195-0.707,0L14.15,47.901c-0.195,0.195-0.195,0.512,0,0.707
				c0.098,0.098,0.226,0.146,0.354,0.146s0.256-0.049,0.354-0.146l35.355-35.355C50.408,13.057,50.408,12.741,50.212,12.545z"/>
		</g>
	</g>
	<g>
		<g>
			<path class="st0" d="M32.888,25.627c-0.195-0.195-0.512-0.195-0.707,0l-2.121,2.122c-0.195,0.195-0.195,0.512,0,0.707
				c0.098,0.098,0.226,0.146,0.354,0.146s0.256-0.049,0.354-0.146l2.121-2.122C33.083,26.139,33.083,25.822,32.888,25.627z"/>
		</g>
	</g>
</g>
</svg>
