<?xml version="1.0" encoding="utf-8"?>
<!-- Generator: Adobe Illustrator 21.1.0, SVG Export Plug-In . SVG Version: 6.00 Build 0)  -->
<svg version="1.1" id="Icon_Set" xmlns="http://www.w3.org/2000/svg" xmlns:xlink="http://www.w3.org/1999/xlink" x="0px" y="0px"
	 viewBox="0 0 64 64" style="enable-background:new 0 0 64 64;" xml:space="preserve">
<style type="text/css">
	.st0{fill:#37474F;}
	.st1{fill:#EF5350;}
	.st2{fill:#FFCA28;}
	.st3{fill:#64B5F6;}
	.st4{fill:#FFFFFF;}
	.st5{fill:#FF7043;}
</style>
<g id="Online_Counseling">
	<g>
		<g>
			<path class="st3" d="M42.739,14c-0.808,1.205-2.182,2-3.738,2h-5.776l-3.803,3.17c-0.554,0.461-1.229,0.7-1.913,0.7
				c-0.432,0-0.868-0.095-1.28-0.288c-1.065-0.499-1.727-1.54-1.727-2.717V16h-0.5c-1.557,0-2.93-0.795-3.738-2H2.001v32h60V14
				H42.739z"/>
		</g>
	</g>
	<g>
		<g>
			<path class="st0" d="M26.001,52.5c-0.276,0-0.5,0.224-0.5,0.5v3.5c0,0.276,0.224,0.5,0.5,0.5s0.5-0.224,0.5-0.5V53
				C26.501,52.724,26.277,52.5,26.001,52.5z"/>
		</g>
	</g>
	<g>
		<g>
			<path class="st0" d="M38.001,52.5c-0.276,0-0.5,0.224-0.5,0.5v3.5c0,0.276,0.224,0.5,0.5,0.5s0.5-0.224,0.5-0.5V53
				C38.501,52.724,38.277,52.5,38.001,52.5z"/>
		</g>
	</g>
	<g>
		<g>
			<g>
				<g>
					<g>
						<path class="st0" d="M42.001,58h-20c-0.827,0-1.5,0.673-1.5,1.5v2c0,0.827,0.673,1.5,1.5,1.5h20c0.827,0,1.5-0.673,1.5-1.5v-2
							C43.501,58.673,42.828,58,42.001,58z M42.501,61.5c0,0.276-0.224,0.5-0.5,0.5h-20c-0.276,0-0.5-0.224-0.5-0.5v-2
							c0-0.276,0.224-0.5,0.5-0.5h20c0.276,0,0.5,0.224,0.5,0.5V61.5z"/>
					</g>
				</g>
			</g>
		</g>
	</g>
	<g>
		<g>
			<path class="st0" d="M62.001,45.5h-60c-0.276,0-0.5,0.224-0.5,0.5s0.224,0.5,0.5,0.5h60c0.276,0,0.5-0.224,0.5-0.5
				S62.277,45.5,62.001,45.5z"/>
		</g>
	</g>
	<g>
		<g>
			<path class="st0" d="M2.001,19.5c-0.276,0-0.5,0.224-0.5,0.5v3c0,0.276,0.224,0.5,0.5,0.5s0.5-0.224,0.5-0.5v-3
				C2.501,19.724,2.277,19.5,2.001,19.5z"/>
		</g>
	</g>
	<g>
		<g>
			<path class="st0" d="M57.001,8.5H43.5C43.224,8.5,43,8.724,43,9s0.224,0.5,0.5,0.5h13.5c2.481,0,4.5,2.019,4.5,4.5v32
				c0,2.481-2.019,4.5-4.5,4.5h-50c-2.481,0-4.5-2.019-4.5-4.5V26c0-0.276-0.224-0.5-0.5-0.5s-0.5,0.224-0.5,0.5v20
				c0,3.033,2.467,5.5,5.5,5.5h50c3.033,0,5.5-2.467,5.5-5.5V14C62.501,10.967,60.034,8.5,57.001,8.5z"/>
		</g>
	</g>
	<g>
		<g>
			<path class="st0" d="M19.501,8.5h-12.5c-3.033,0-5.5,2.467-5.5,5.5v3c0,0.276,0.224,0.5,0.5,0.5s0.5-0.224,0.5-0.5v-3
				c0-2.481,2.019-4.5,4.5-4.5h12.5c0.276,0,0.5-0.224,0.5-0.5S19.777,8.5,19.501,8.5z"/>
		</g>
	</g>
	<g>
		<g>
			<path class="st0" d="M62.001,13.5h-19.26c-0.276,0-0.5,0.224-0.5,0.5s0.224,0.5,0.5,0.5h19.26c0.276,0,0.5-0.224,0.5-0.5
				S62.277,13.5,62.001,13.5z"/>
		</g>
	</g>
	<g>
		<g>
			<path class="st0" d="M20.261,13.5H2.001c-0.276,0-0.5,0.224-0.5,0.5s0.224,0.5,0.5,0.5h18.26c0.276,0,0.5-0.224,0.5-0.5
				S20.538,13.5,20.261,13.5z"/>
		</g>
	</g>
	<g>
		<g>
			<path class="st1" d="M39.001,1.5h-15c-1.381,0-2.5,1.119-2.5,2.5v7.5c0,1.381,1.119,2.5,2.5,2.5h2.5v2.865
				c0,0.848,0.989,1.311,1.64,0.768L32.501,14h6.5c1.381,0,2.5-1.119,2.5-2.5V4C41.501,2.619,40.381,1.5,39.001,1.5z"/>
		</g>
	</g>
	<g>
		<g>
			<g>
				<g>
					<path class="st0" d="M39.001,1h-15c-1.654,0-3,1.346-3,3v7.5c0,1.654,1.346,3,3,3h2v2.365c0,0.588,0.331,1.109,0.864,1.358
						c0.206,0.097,0.424,0.144,0.64,0.144c0.342,0,0.68-0.119,0.957-0.35l4.221-3.517h6.319c1.654,0,3-1.346,3-3V4
						C42.001,2.346,40.655,1,39.001,1z M41.001,11.5c0,1.103-0.897,2-2,2h-6.5c-0.117,0-0.23,0.041-0.32,0.116l-4.36,3.633
						c-0.226,0.188-0.464,0.101-0.532,0.069c-0.068-0.032-0.288-0.158-0.288-0.453V14c0-0.276-0.224-0.5-0.5-0.5h-2.5
						c-1.103,0-2-0.897-2-2V4c0-1.103,0.897-2,2-2h15c1.103,0,2,0.897,2,2V11.5z"/>
				</g>
			</g>
		</g>
	</g>
	<g>
		<g>
			<circle class="st0" cx="26.403" cy="7.75" r="1"/>
		</g>
	</g>
	<g>
		<g>
			<circle class="st0" cx="31.403" cy="7.75" r="1"/>
		</g>
	</g>
	<g>
		<g>
			<circle class="st0" cx="36.403" cy="7.75" r="1"/>
		</g>
	</g>
	<g>
		<g>
			<path class="st4" d="M54.001,21.965l-20,0c-0.552,0-1,0.448-1,1v14c0,0.552,0.448,1,1,1h20c0.552,0,1-0.448,1-1v-14
				C55.001,22.413,54.553,21.965,54.001,21.965z"/>
		</g>
	</g>
	<g>
		<g>
			<g>
				<g>
					<path class="st0" d="M54.001,21.465h-20c-0.827,0-1.5,0.673-1.5,1.5v14c0,0.827,0.673,1.5,1.5,1.5h20
						c0.827,0,1.5-0.673,1.5-1.5v-14C55.501,22.138,54.828,21.465,54.001,21.465z M54.501,36.965c0,0.276-0.224,0.5-0.5,0.5h-20
						c-0.276,0-0.5-0.224-0.5-0.5v-14c0-0.276,0.224-0.5,0.5-0.5h20c0.276,0,0.5,0.224,0.5,0.5V36.965z"/>
				</g>
			</g>
		</g>
	</g>
	<g>
		<g>
			<path class="st0" d="M51.001,25.965h-14c-0.276,0-0.5,0.224-0.5,0.5s0.224,0.5,0.5,0.5h14c0.276,0,0.5-0.224,0.5-0.5
				S51.277,25.965,51.001,25.965z"/>
		</g>
	</g>
	<g>
		<g>
			<path class="st0" d="M51.001,29.465h-14c-0.276,0-0.5,0.224-0.5,0.5s0.224,0.5,0.5,0.5h14c0.276,0,0.5-0.224,0.5-0.5
				S51.277,29.465,51.001,29.465z"/>
		</g>
	</g>
	<g>
		<g>
			<path class="st0" d="M44.001,32.965h-7c-0.276,0-0.5,0.224-0.5,0.5s0.224,0.5,0.5,0.5h7c0.276,0,0.5-0.224,0.5-0.5
				S44.277,32.965,44.001,32.965z"/>
		</g>
	</g>
	<g>
		<g>
			<g>
				<circle class="st4" cx="19.006" cy="23.5" r="6"/>
			</g>
		</g>
		<g>
			<g>
				<g>
					<g>
						<path class="st0" d="M19.005,17c-3.584,0-6.5,2.916-6.5,6.5s2.916,6.5,6.5,6.5s6.5-2.916,6.5-6.5S22.589,17,19.005,17z
							 M19.005,29c-3.033,0-5.5-2.467-5.5-5.5s2.467-5.5,5.5-5.5s5.5,2.467,5.5,5.5S22.038,29,19.005,29z"/>
					</g>
				</g>
			</g>
		</g>
	</g>
	<g>
		<g>
			<path class="st2" d="M19.006,17.5c-3.314,0-6,2.686-6,6h0.566c3.505,0,6.9-1.227,9.594-3.469l0.447-0.372
				C22.512,18.34,20.857,17.5,19.006,17.5z"/>
		</g>
	</g>
	<g>
		<g>
			<g>
				<g>
					<path class="st0" d="M23.997,19.338C22.756,17.852,20.937,17,19.005,17c-3.584,0-6.5,2.916-6.5,6.5c0,0.276,0.224,0.5,0.5,0.5
						h0.566c3.615,0,7.136-1.273,9.914-3.585l0.447-0.372c0.102-0.085,0.166-0.207,0.178-0.339
						C24.123,19.572,24.082,19.44,23.997,19.338z M22.846,19.646C20.247,21.809,16.954,23,13.572,23h-0.044
						c0.253-2.799,2.613-5,5.478-5c1.467,0,2.857,0.581,3.885,1.609L22.846,19.646z"/>
				</g>
			</g>
		</g>
	</g>
	<g>
		<g>
			<path class="st2" d="M15.997,30.505l-4.231,2.113c-1.695,0.847-2.766,2.578-2.766,4.473V46h4.005h12h4v-8.91
				c0-1.894-1.07-3.625-2.764-4.472l-4.245-2.122"/>
		</g>
	</g>
	<g>
		<g>
			<path class="st0" d="M26.465,32.17l-4.245-2.122c-0.247-0.122-0.548-0.024-0.671,0.224c-0.124,0.247-0.023,0.547,0.224,0.671
				l4.245,2.122c1.534,0.767,2.487,2.31,2.487,4.025v8.41H9.501v-8.409c0-1.716,0.954-3.259,2.489-4.026l4.231-2.113
				c0.247-0.124,0.347-0.424,0.224-0.671c-0.123-0.247-0.425-0.347-0.671-0.224l-4.231,2.113c-1.876,0.938-3.042,2.823-3.042,4.92
				V46c0,0.276,0.224,0.5,0.5,0.5h20.004c0.276,0,0.5-0.224,0.5-0.5v-8.91C29.505,34.993,28.34,33.108,26.465,32.17z"/>
		</g>
	</g>
	<g>
		<g>
			<path class="st0" d="M25.005,39c-0.276,0-0.5,0.224-0.5,0.5v6h-11v-6c0-0.276-0.224-0.5-0.5-0.5s-0.5,0.224-0.5,0.5V46
				c0,0.276,0.224,0.5,0.5,0.5h12c0.276,0,0.5-0.224,0.5-0.5v-6.5C25.505,39.224,25.282,39,25.005,39z"/>
		</g>
	</g>
	<g>
		<g>
			<g>
				<path class="st4" d="M21.996,28.697c-0.881,0.508-1.9,0.803-2.99,0.803c-1.098,0-2.124-0.3-3.01-0.815l0.001,1.82l3.004,4.463
					l2.996-4.473L21.996,28.697z"/>
			</g>
		</g>
		<g>
			<g>
				<g>
					<g>
						<path class="st0" d="M22.496,28.696c0-0.178-0.096-0.343-0.25-0.433c-0.155-0.089-0.345-0.089-0.5,0
							c-1.675,0.967-3.822,0.965-5.499-0.011c-0.154-0.09-0.345-0.09-0.501-0.001c-0.155,0.089-0.25,0.254-0.25,0.434l0.001,1.82
							c0,0.099,0.03,0.196,0.085,0.279l3.004,4.462c0.093,0.138,0.248,0.221,0.415,0.221h0c0.167,0,0.322-0.083,0.415-0.222
							l2.996-4.473c0.055-0.083,0.084-0.18,0.084-0.279L22.496,28.696z M19,34.07l-2.503-3.718l-0.001-0.86
							c1.583,0.666,3.417,0.668,5,0.008l0.001,0.843L19,34.07z"/>
					</g>
				</g>
			</g>
		</g>
	</g>
	<g>
		<g>
			<path class="st0" d="M19.001,34.467c-0.276,0-0.5,0.224-0.5,0.5v3c0,0.276,0.224,0.5,0.5,0.5s0.5-0.224,0.5-0.5v-3
				C19.501,34.691,19.277,34.467,19.001,34.467z"/>
		</g>
	</g>
</g>
</svg>
