<?xml version="1.0" encoding="utf-8"?>
<!-- Generator: Adobe Illustrator 21.1.0, SVG Export Plug-In . SVG Version: 6.00 Build 0)  -->
<svg version="1.1" id="Icon_Set" xmlns="http://www.w3.org/2000/svg" xmlns:xlink="http://www.w3.org/1999/xlink" x="0px" y="0px"
	 viewBox="0 0 64 64" style="enable-background:new 0 0 64 64;" xml:space="preserve">
<style type="text/css">
	.st0{fill:#37474F;}
	.st1{fill:#EF5350;}
	.st2{fill:#FFCA28;}
	.st3{fill:#64B5F6;}
	.st4{fill:#FFFFFF;}
	.st5{fill:#FF7043;}
</style>
<g id="Physics">
	<g>
		<g>
			<path class="st0" d="M34.399,30.199C34.305,30.074,34.157,30,34,30h-3.337l1.818-6.363c0.076-0.265-0.078-0.542-0.344-0.618
				c-0.263-0.074-0.542,0.078-0.618,0.344l-2,7c-0.043,0.151-0.013,0.313,0.082,0.438C29.695,30.926,29.843,31,30,31h3.337
				l-1.818,6.363c-0.076,0.265,0.078,0.542,0.344,0.618C31.909,37.994,31.955,38,32,38c0.217,0,0.417-0.143,0.48-0.363l2-7
				C34.523,30.486,34.494,30.324,34.399,30.199z"/>
		</g>
	</g>
	<g>
		<g>
			<path class="st0" d="M39.006,13.008l-4.211-5.616c-0.167-0.222-0.479-0.265-0.7-0.1c-0.221,0.166-0.266,0.479-0.101,0.7
				l4.211,5.616c0.099,0.131,0.249,0.2,0.4,0.2c0.104,0,0.21-0.033,0.3-0.1C39.126,13.542,39.171,13.229,39.006,13.008z"/>
		</g>
	</g>
	<g>
		<g>
			<path class="st0" d="M37,16H27c-0.276,0-0.5,0.224-0.5,0.5S26.724,17,27,17h10c0.276,0,0.5-0.224,0.5-0.5S37.276,16,37,16z"/>
		</g>
	</g>
	<g>
		<g>
			<path class="st0" d="M29.902,7.297c-0.22-0.165-0.534-0.121-0.7,0.1l-4.205,5.606c-0.166,0.221-0.121,0.534,0.1,0.7
				c0.09,0.067,0.195,0.1,0.299,0.1c0.152,0,0.302-0.069,0.4-0.2l4.205-5.606C30.168,7.776,30.124,7.462,29.902,7.297z"/>
		</g>
	</g>
	<g>
		<g>
			<circle class="st1" cx="32" cy="4.5" r="4"/>
		</g>
	</g>
	<g>
		<g>
			<g>
				<g>
					<path class="st0" d="M32,0c-2.481,0-4.5,2.019-4.5,4.5S29.519,9,32,9s4.5-2.019,4.5-4.5S34.481,0,32,0z M32,8
						c-1.93,0-3.5-1.57-3.5-3.5S30.07,1,32,1s3.5,1.57,3.5,3.5S33.93,8,32,8z"/>
				</g>
			</g>
		</g>
	</g>
	<g>
		<g>
			<g>
				<g>
					<g>
						<path class="st0" d="M23,12c-2.481,0-4.5,2.019-4.5,4.5S20.519,21,23,21s4.5-2.019,4.5-4.5S25.481,12,23,12z M23,20
							c-1.93,0-3.5-1.57-3.5-3.5S21.07,13,23,13s3.5,1.57,3.5,3.5S24.93,20,23,20z"/>
					</g>
				</g>
			</g>
		</g>
	</g>
	<g>
		<g>
			<g>
				<g>
					<g>
						<path class="st0" d="M41,12c-2.481,0-4.5,2.019-4.5,4.5S38.519,21,41,21s4.5-2.019,4.5-4.5S43.481,12,41,12z M41,20
							c-1.93,0-3.5-1.57-3.5-3.5S39.07,13,41,13s3.5,1.57,3.5,3.5S42.93,20,41,20z"/>
					</g>
				</g>
			</g>
		</g>
	</g>
	<g>
		<g>
			<g>
				<path class="st0" d="M13,34c-0.276,0-0.5,0.224-0.5,0.5v3c0,0.276,0.224,0.5,0.5,0.5s0.5-0.224,0.5-0.5v-3
					C13.5,34.224,13.276,34,13,34z"/>
			</g>
		</g>
		<g>
			<g>
				<path class="st0" d="M51,23h-8c-0.276,0-0.5,0.224-0.5,0.5v21C42.5,50.29,37.79,55,32,55c-5.79,0-10.5-4.71-10.5-10.5v-21
					c0-0.276-0.224-0.5-0.5-0.5h-8c-0.276,0-0.5,0.224-0.5,0.5v8c0,0.276,0.224,0.5,0.5,0.5s0.5-0.224,0.5-0.5V24h7v20.5
					C20.5,50.841,25.659,56,32,56c6.341,0,11.5-5.159,11.5-11.5V24h7v20.5C50.5,54.701,42.201,63,32,63s-18.5-8.299-18.5-18.5v-4
					c0-0.276-0.224-0.5-0.5-0.5s-0.5,0.224-0.5,0.5v4C12.5,55.252,21.248,64,32,64c10.752,0,19.5-8.748,19.5-19.5v-21
					C51.5,23.224,51.276,23,51,23z"/>
			</g>
		</g>
	</g>
	<g>
		<g>
			<rect x="13" y="23.5" class="st2" width="8" height="8"/>
		</g>
	</g>
	<g>
		<g>
			<g>
				<g>
					<path class="st0" d="M21,23h-8c-0.276,0-0.5,0.224-0.5,0.5v8c0,0.276,0.224,0.5,0.5,0.5h8c0.276,0,0.5-0.224,0.5-0.5v-8
						C21.5,23.224,21.276,23,21,23z M20.5,31h-7v-7h7V31z"/>
				</g>
			</g>
		</g>
	</g>
	<g>
		<g>
			<rect x="43" y="23.5" class="st3" width="8" height="8"/>
		</g>
	</g>
	<g>
		<g>
			<g>
				<g>
					<path class="st0" d="M51,23h-8c-0.276,0-0.5,0.224-0.5,0.5v8c0,0.276,0.224,0.5,0.5,0.5h8c0.276,0,0.5-0.224,0.5-0.5v-8
						C51.5,23.224,51.276,23,51,23z M50.5,31h-7v-7h7V31z"/>
				</g>
			</g>
		</g>
	</g>
</g>
</svg>
