<?xml version="1.0" encoding="utf-8"?>
<!-- Generator: Adobe Illustrator 21.1.0, SVG Export Plug-In . SVG Version: 6.00 Build 0)  -->
<svg version="1.1" id="Icon_Set" xmlns="http://www.w3.org/2000/svg" xmlns:xlink="http://www.w3.org/1999/xlink" x="0px" y="0px"
	 viewBox="0 0 64 64" style="enable-background:new 0 0 64 64;" xml:space="preserve">
<style type="text/css">
	.st0{fill:#37474F;}
	.st1{fill:#EF5350;}
	.st2{fill:#FFCA28;}
	.st3{fill:#64B5F6;}
	.st4{fill:#FFFFFF;}
	.st5{fill:#FF7043;}
</style>
<g id="Potential">
	<g>
		<g>
			<g>
				<path class="st3" d="M59.5,43h-15C43.12,43,42,44.12,42,45.5v15c0,1.381,1.119,2.5,2.5,2.5h15c1.381,0,2.5-1.119,2.5-2.5v-15
					C62,44.12,60.881,43,59.5,43z"/>
			</g>
		</g>
		<g>
			<g>
				<g>
					<g>
						<path class="st0" d="M59.5,42.5h-15c-1.654,0-3,1.346-3,3v15c0,1.654,1.346,3,3,3h15c1.654,0,3-1.346,3-3v-15
							C62.5,43.846,61.154,42.5,59.5,42.5z M61.5,60.5c0,1.103-0.897,2-2,2h-15c-1.103,0-2-0.897-2-2v-15c0-1.103,0.897-2,2-2h15
							c1.103,0,2,0.897,2,2V60.5z"/>
					</g>
				</g>
			</g>
		</g>
	</g>
	<g>
		<g>
			<g>
				<path class="st4" d="M58.364,48.404c-0.586-0.586-1.535-0.586-2.121,0l-6.01,6.01l-2.475-2.475
					c-0.586-0.586-1.535-0.586-2.121,0c-0.586,0.585-0.586,1.536,0,2.121l3.536,3.536c0.293,0.293,0.677,0.439,1.061,0.439
					s0.768-0.146,1.061-0.439l7.071-7.071C58.95,49.94,58.95,48.99,58.364,48.404z"/>
			</g>
		</g>
		<g>
			<g>
				<g>
					<g>
						<path class="st0" d="M58.718,48.051c-0.779-0.779-2.049-0.779-2.828,0l-5.657,5.657l-2.121-2.122
							c-0.779-0.779-2.049-0.779-2.828,0c-0.378,0.378-0.586,0.88-0.586,1.414c0,0.535,0.208,1.037,0.586,1.414l3.535,3.536
							c0.378,0.378,0.88,0.586,1.414,0.586s1.036-0.208,1.414-0.586l7.071-7.071c0.378-0.377,0.586-0.879,0.586-1.414
							C59.304,48.931,59.096,48.429,58.718,48.051z M58.011,50.172l-7.071,7.071c-0.379,0.377-1.035,0.377-1.414,0l-3.535-3.536
							c-0.189-0.188-0.293-0.439-0.293-0.707c0-0.267,0.104-0.518,0.293-0.707c0.195-0.195,0.451-0.292,0.707-0.292
							s0.512,0.097,0.707,0.292l2.475,2.476c0.094,0.094,0.221,0.146,0.354,0.146s0.26-0.053,0.354-0.146l6.011-6.011
							c0.379-0.377,1.035-0.377,1.414,0c0.188,0.189,0.293,0.44,0.293,0.707C58.304,49.732,58.2,49.983,58.011,50.172z"/>
					</g>
				</g>
			</g>
		</g>
	</g>
	<g>
		<g>
			<path class="st2" d="M25.253,38.5V35h-3.252c-1.073,0-2.071-0.579-2.604-1.51c-0.533-0.932-0.526-2.085,0.018-3.011l3.838-6.524
				l0-1.461c0.002-5.655,2.631-10.702,6.724-14.003C27.687,7.225,25.056,6.5,22.253,6.5c-8.835,0-15.997,7.16-16,15.995L6.253,24.5
				l-4.114,6.993C1.747,32.16,2.228,33,3.001,33h4.252c0.552,0,1,0.448,1,1v4.5c0,2.761,2.239,5,5,5h1.5c1.381,0,2.5,1.119,2.5,2.5
				v6h14v-6.58C27.867,44.933,25.253,42.02,25.253,38.5z"/>
		</g>
	</g>
	<g>
		<g>
			<g>
				<g>
					<path class="st2" d="M49.386,24.422l-0.323-0.187c0.124-0.559,0.194-1.139,0.194-1.735s-0.07-1.176-0.194-1.735l0.322-0.186
						l1.039-0.914c0.286-0.252,0.355-0.671,0.165-1.001l-1.344-2.328c-0.191-0.33-0.588-0.48-0.949-0.358l-1.311,0.444l-0.327,0.189
						c-0.853-0.782-1.87-1.388-3.001-1.743V14.5l-0.271-1.357c-0.075-0.374-0.403-0.643-0.784-0.643h-2.688
						c-0.381,0-0.71,0.269-0.784,0.643L38.858,14.5v0.367c-1.131,0.355-2.148,0.961-3.001,1.743l-0.327-0.189l-1.311-0.444
						c-0.361-0.122-0.758,0.028-0.949,0.358l-1.344,2.328c-0.191,0.33-0.122,0.749,0.165,1.001l1.039,0.914l0.322,0.186
						c-0.124,0.559-0.194,1.139-0.194,1.735s0.07,1.176,0.194,1.735l-0.323,0.187l-1.039,0.913
						c-0.286,0.252-0.355,0.671-0.165,1.001l1.344,2.328c0.191,0.33,0.588,0.48,0.949,0.358l1.31-0.443l0.328-0.189
						c0.853,0.782,1.87,1.388,3.001,1.743V30.5l0.271,1.356c0.075,0.374,0.403,0.643,0.784,0.643h2.688
						c0.381,0,0.71-0.269,0.784-0.643l0.271-1.356v-0.368c1.131-0.355,2.148-0.961,3.001-1.743l0.328,0.189l1.31,0.443
						c0.361,0.122,0.759-0.028,0.949-0.358l1.344-2.328c0.191-0.33,0.122-0.749-0.165-1.001L49.386,24.422z M41.258,26.944
						c-2.455,0-4.444-1.99-4.444-4.444s1.99-4.444,4.444-4.444c2.455,0,4.444,1.99,4.444,4.444S43.712,26.944,41.258,26.944z"/>
				</g>
			</g>
		</g>
	</g>
	<g>
		<g>
			<g>
				<g>
					<path class="st0" d="M41.258,17.556c-2.727,0-4.944,2.218-4.944,4.944s2.218,4.944,4.944,4.944s4.944-2.218,4.944-4.944
						S43.984,17.556,41.258,17.556z M41.258,26.444c-2.175,0-3.944-1.77-3.944-3.944s1.77-3.944,3.944-3.944s3.944,1.77,3.944,3.944
						S43.433,26.444,41.258,26.444z M49.717,24.046c-0.024-0.021-0.052-0.041-0.08-0.057l-0.013-0.008
						c0.089-0.497,0.134-0.994,0.134-1.481c0-0.49-0.045-0.99-0.135-1.489l1.133-0.971c0.464-0.408,0.576-1.093,0.267-1.626
						l-1.344-2.328c-0.309-0.536-0.958-0.782-1.542-0.581l-1.4,0.483l-0.017,0.01c-0.774-0.653-1.636-1.154-2.569-1.492
						l-0.273-1.461C43.755,12.439,43.219,12,42.602,12h-2.688c-0.617,0-1.153,0.439-1.275,1.046L38.357,14.5v0.009
						c-0.933,0.339-1.794,0.84-2.567,1.494l-1.41-0.498c-0.586-0.198-1.234,0.045-1.543,0.581l-1.344,2.327
						c-0.31,0.534-0.197,1.219,0.267,1.628l1.12,0.97l0.012,0.007c-0.089,0.498-0.134,0.994-0.134,1.482
						c0,0.49,0.045,0.989,0.135,1.489L31.76,24.96c-0.464,0.408-0.576,1.093-0.267,1.626l1.344,2.328
						c0.309,0.535,0.958,0.781,1.542,0.581l1.401-0.483l0.016-0.01c0.774,0.653,1.636,1.154,2.569,1.492l0.273,1.462
						C38.761,32.561,39.297,33,39.914,33h2.688c0.617,0,1.153-0.439,1.275-1.045l0.281-1.455v-0.009
						c0.933-0.339,1.793-0.84,2.567-1.494l1.41,0.498c0.582,0.195,1.234-0.046,1.543-0.581l1.344-2.327
						c0.31-0.534,0.197-1.219-0.267-1.628L49.717,24.046z M50.157,26.086l-1.344,2.328c-0.071,0.124-0.223,0.181-0.356,0.134
						l-1.22-0.401l-0.327-0.189c-0.188-0.108-0.427-0.083-0.589,0.064c-0.827,0.758-1.773,1.308-2.813,1.635
						c-0.208,0.065-0.35,0.258-0.35,0.477l0.01,0.27l-0.271,1.356C42.868,31.898,42.744,32,42.602,32h-2.688
						c-0.143,0-0.267-0.102-0.295-0.24l-0.262-1.26v-0.367c0-0.219-0.142-0.411-0.35-0.477c-1.04-0.327-1.986-0.877-2.813-1.635
						c-0.095-0.087-0.216-0.132-0.338-0.132c-0.086,0-0.173,0.022-0.251,0.067l-0.236,0.148l-1.312,0.442
						c-0.134,0.045-0.284-0.01-0.355-0.134l-1.344-2.329c-0.071-0.123-0.045-0.28,0.062-0.374l0.959-0.856l0.323-0.187
						c0.188-0.108,0.285-0.328,0.238-0.541c-0.121-0.546-0.183-1.094-0.183-1.627s0.062-1.081,0.183-1.627
						c0.047-0.213-0.049-0.432-0.238-0.541l-0.242-0.13l-1.04-0.912c-0.106-0.095-0.133-0.252-0.062-0.376l1.344-2.328
						c0.072-0.124,0.221-0.179,0.356-0.134l1.221,0.403l0.327,0.188c0.189,0.108,0.427,0.083,0.588-0.065
						c0.827-0.758,1.773-1.308,2.813-1.635c0.208-0.065,0.35-0.258,0.35-0.477l-0.01-0.27l0.271-1.355
						C39.647,13.102,39.771,13,39.914,13h2.688c0.143,0,0.267,0.102,0.295,0.241l0.262,1.259v0.367c0,0.219,0.142,0.411,0.35,0.477
						c1.04,0.327,1.986,0.877,2.813,1.635c0.162,0.148,0.398,0.174,0.588,0.065l0.237-0.148l1.312-0.443
						c0.132-0.046,0.284,0.01,0.355,0.134l1.344,2.329c0.071,0.123,0.045,0.28-0.062,0.374l-0.96,0.856l-0.322,0.187
						c-0.189,0.109-0.285,0.328-0.238,0.541c0.121,0.546,0.183,1.094,0.183,1.627s-0.062,1.081-0.183,1.627
						c-0.047,0.213,0.05,0.433,0.238,0.541l0.28,0.162l1.002,0.88C50.202,25.805,50.229,25.962,50.157,26.086z"/>
				</g>
			</g>
		</g>
	</g>
	<g>
		<g>
			<g>
				<g>
					<path class="st1" d="M59.065,9.346l-0.226-0.13C58.926,8.824,58.975,8.418,58.975,8c0-0.418-0.049-0.823-0.136-1.215
						l0.226-0.13l0.765-0.672c0.179-0.157,0.222-0.419,0.103-0.625l-0.99-1.715c-0.119-0.207-0.367-0.3-0.593-0.224l-0.964,0.326
						l-0.229,0.132c-0.597-0.548-1.309-0.971-2.101-1.22V2.4l-0.2-0.998C54.809,1.169,54.604,1,54.365,1h-1.98
						c-0.238,0-0.444,0.168-0.49,0.402l-0.2,0.998v0.257c-0.792,0.249-1.504,0.672-2.101,1.22l-0.229-0.132l-0.964-0.326
						c-0.226-0.076-0.474,0.017-0.593,0.224l-0.99,1.715c-0.119,0.206-0.076,0.468,0.103,0.625l0.764,0.672l0.226,0.13
						C47.824,7.177,47.775,7.583,47.775,8c0,0.417,0.049,0.823,0.136,1.215l-0.226,0.13l-0.764,0.672
						c-0.179,0.157-0.222,0.419-0.103,0.626l0.99,1.715c0.119,0.206,0.367,0.3,0.593,0.224l0.964-0.326l0.229-0.132
						c0.597,0.548,1.309,0.971,2.101,1.22v0.257l0.2,0.998C51.942,14.832,52.147,15,52.385,15h1.98c0.238,0,0.444-0.168,0.49-0.402
						l0.2-0.998v-0.257c0.792-0.249,1.504-0.673,2.101-1.22l0.229,0.132l0.964,0.326c0.226,0.076,0.474-0.017,0.593-0.224
						l0.99-1.715c0.119-0.207,0.076-0.468-0.103-0.626L59.065,9.346z M53.375,11.36c-1.856,0-3.36-1.504-3.36-3.36
						c0-1.856,1.504-3.36,3.36-3.36c1.856,0,3.36,1.504,3.36,3.36C56.735,9.856,55.231,11.36,53.375,11.36z"/>
				</g>
			</g>
		</g>
	</g>
	<g>
		<g>
			<g>
				<g>
					<path class="st0" d="M60.159,9.643l-0.764-0.672c0-0.001,0-0.001,0-0.001c0.053-0.326,0.08-0.651,0.08-0.97
						s-0.027-0.644-0.08-0.969c0,0,0,0,0-0.001l0.763-0.671c0.357-0.312,0.445-0.839,0.207-1.252l-0.99-1.715
						c-0.236-0.411-0.737-0.598-1.186-0.447l-0.965,0.326c-0.001,0-0.002,0.001-0.004,0.001c-0.51-0.417-1.071-0.743-1.676-0.974
						l-0.199-0.995C55.252,0.838,54.84,0.5,54.365,0.5h-1.98c-0.475,0-0.887,0.338-0.98,0.805l-0.188,0.99
						c-0.609,0.23-1.175,0.559-1.687,0.979l-0.968-0.328c-0.445-0.149-0.948,0.036-1.186,0.447l-0.991,1.716
						c-0.236,0.411-0.15,0.938,0.206,1.251l0.766,0.661C47.303,7.348,47.275,7.677,47.275,8c0,0.32,0.026,0.646,0.08,0.971
						l-0.765,0.672c-0.356,0.313-0.443,0.839-0.205,1.25l0.989,1.714c0.238,0.414,0.735,0.602,1.187,0.448l0.96-0.333
						c0.512,0.421,1.076,0.749,1.685,0.98l0.198,0.995c0.094,0.465,0.506,0.803,0.98,0.803h1.98c0.475,0,0.887-0.338,0.98-0.803
						l0.189-0.991c0.608-0.23,1.174-0.559,1.687-0.979l0.966,0.326c0.452,0.154,0.95-0.034,1.188-0.446l0.99-1.715
						C60.604,10.481,60.517,9.955,60.159,9.643z M58.51,12.107l-0.874-0.284l-0.229-0.133c-0.187-0.109-0.426-0.083-0.588,0.064
						c-0.562,0.516-1.206,0.89-1.912,1.11c-0.209,0.065-0.351,0.259-0.351,0.478l0.01,0.159l-0.2,0.998l-1.98,0.001l-0.189-0.9
						v-0.258c0-0.219-0.142-0.412-0.351-0.478c-0.707-0.221-1.351-0.595-1.912-1.11c-0.095-0.087-0.216-0.132-0.338-0.132
						c-0.086,0-0.173,0.022-0.25,0.067l-1.104,0.417l-0.99-1.714l0.686-0.615l0.226-0.131c0.188-0.109,0.284-0.328,0.237-0.541
						C48.317,8.736,48.275,8.364,48.275,8s0.042-0.736,0.124-1.106c0.047-0.213-0.05-0.433-0.239-0.542l-0.909-0.744l0.99-1.715
						l0.874,0.285l0.229,0.133c0.187,0.108,0.427,0.083,0.588-0.064c0.562-0.516,1.205-0.89,1.913-1.112
						c0.208-0.065,0.35-0.258,0.35-0.477l-0.01-0.159L52.385,1.5l1.98,0.001l0.19,0.899v0.257c0,0.219,0.142,0.411,0.35,0.477
						c0.707,0.223,1.351,0.597,1.913,1.112c0.162,0.147,0.4,0.173,0.589,0.064l1.103-0.418l0.989,1.716l-0.726,0.638L58.59,6.352
						C58.4,6.46,58.304,6.68,58.351,6.894C58.434,7.267,58.476,7.639,58.476,8s-0.042,0.733-0.125,1.106
						c-0.047,0.213,0.049,0.433,0.238,0.541l0.911,0.745L58.51,12.107z M53.375,4.141c-2.128,0-3.859,1.731-3.859,3.859
						c0,2.129,1.731,3.86,3.859,3.86c2.129,0,3.86-1.731,3.86-3.86C57.235,5.872,55.504,4.141,53.375,4.141z M53.375,10.86
						c-1.576,0-2.859-1.283-2.859-2.86c0-1.576,1.283-2.859,2.859-2.859c1.577,0,2.86,1.283,2.86,2.859
						C56.235,9.577,54.952,10.86,53.375,10.86z"/>
				</g>
			</g>
		</g>
	</g>
	<g>
		<g>
			<path class="st0" d="M45.314,6.524C43.944,6.177,42.578,6,41.253,6c-9.096,0-16.497,7.399-16.499,16.495l-0.001,1.868
				l-4.044,6.876c-0.276,0.47-0.28,1.032-0.01,1.505c0.27,0.474,0.757,0.756,1.302,0.756h4.252c0.275,0,0.5,0.225,0.5,0.5v4.5
				c0,3.032,2.468,5.5,5.5,5.5h1.5c1.103,0,2,0.897,2,2v6c0,0.276,0.224,0.5,0.5,0.5s0.5-0.224,0.5-0.5v-6c0-1.654-1.346-3-3-3h-1.5
				c-2.481,0-4.5-2.019-4.5-4.5V34c0-0.827-0.673-1.5-1.5-1.5h-4.252c-0.262,0-0.391-0.176-0.434-0.252
				c-0.044-0.075-0.13-0.275,0.003-0.501l4.113-6.993c0.046-0.077,0.069-0.165,0.069-0.254l0.001-2.005
				C25.756,13.951,32.709,7,41.253,7c1.242,0,2.525,0.166,3.815,0.493c0.27,0.071,0.539-0.094,0.607-0.361
				S45.582,6.592,45.314,6.524z"/>
		</g>
	</g>
	<g>
		<g>
			<path class="st0" d="M56.488,16.164c-0.105-0.256-0.398-0.371-0.654-0.27c-0.255,0.106-0.375,0.399-0.27,0.654
				c0.789,1.894,1.188,3.896,1.188,5.95v2.139c0,4.314-1.459,8.566-4.107,11.973l-1.733,2.229c-0.473,0.607-0.807,1.294-0.994,2.039
				c-0.066,0.269,0.096,0.54,0.363,0.607c0.041,0.01,0.082,0.015,0.122,0.015c0.225,0,0.428-0.151,0.485-0.378
				c0.152-0.611,0.426-1.173,0.812-1.67l1.733-2.229c2.785-3.58,4.318-8.05,4.318-12.586v-2.139
				C57.753,20.312,57.327,18.18,56.488,16.164z"/>
		</g>
	</g>
	<g>
		<g>
			<path class="st0" d="M31.253,44.92c-0.276,0-0.5,0.224-0.5,0.5V52c0,0.276,0.224,0.5,0.5,0.5s0.5-0.224,0.5-0.5v-6.58
				C31.753,45.144,31.529,44.92,31.253,44.92z"/>
		</g>
	</g>
	<g>
		<g>
			<path class="st0" d="M14.753,43h-1.5c-2.481,0-4.5-2.019-4.5-4.5V34c0-0.827-0.673-1.5-1.5-1.5H3.001
				c-0.262,0-0.391-0.176-0.434-0.252c-0.044-0.075-0.13-0.275,0.003-0.501l4.113-6.993c0.046-0.077,0.069-0.165,0.069-0.254
				l0.001-2.005c0-0.276-0.224-0.5-0.5-0.5s-0.5,0.224-0.5,0.5l-0.001,1.868l-4.044,6.876c-0.276,0.47-0.28,1.032-0.01,1.505
				c0.27,0.474,0.757,0.756,1.302,0.756h4.252c0.275,0,0.5,0.225,0.5,0.5v4.5c0,3.032,2.468,5.5,5.5,5.5h1.5c1.103,0,2,0.897,2,2v6
				c0,0.276,0.224,0.5,0.5,0.5s0.5-0.224,0.5-0.5v-6C17.753,44.346,16.407,43,14.753,43z"/>
		</g>
	</g>
	<g>
		<g>
			<path class="st0" d="M7.606,16.031c-0.256-0.106-0.547,0.02-0.65,0.275c-0.391,0.962-0.691,1.969-0.892,2.99
				c-0.054,0.271,0.123,0.534,0.394,0.587c0.033,0.007,0.065,0.01,0.098,0.01c0.233,0,0.442-0.165,0.489-0.403
				c0.189-0.96,0.471-1.904,0.837-2.809C7.986,16.426,7.863,16.135,7.606,16.031z"/>
		</g>
	</g>
	<g>
		<g>
			<path class="st0" d="M30.22,8.053C27.789,6.71,25.034,6,22.253,6c-5.709,0-10.934,2.889-13.977,7.728
				c-0.147,0.234-0.077,0.543,0.156,0.689c0.083,0.053,0.175,0.077,0.267,0.077c0.166,0,0.328-0.083,0.423-0.233
				C11.981,9.714,16.89,7,22.253,7c2.612,0,5.2,0.667,7.482,1.928c0.242,0.136,0.546,0.046,0.68-0.195
				C30.549,8.49,30.461,8.187,30.22,8.053z"/>
		</g>
	</g>
</g>
</svg>
