<?xml version="1.0" encoding="utf-8"?>
<!-- Generator: Adobe Illustrator 21.1.0, SVG Export Plug-In . SVG Version: 6.00 Build 0)  -->
<svg version="1.1" id="Icon_Set" xmlns="http://www.w3.org/2000/svg" xmlns:xlink="http://www.w3.org/1999/xlink" x="0px" y="0px"
	 viewBox="0 0 64 64" style="enable-background:new 0 0 64 64;" xml:space="preserve">
<style type="text/css">
	.st0{fill:#37474F;}
	.st1{fill:#EF5350;}
	.st2{fill:#FFCA28;}
	.st3{fill:#64B5F6;}
	.st4{fill:#FFFFFF;}
	.st5{fill:#FF7043;}
</style>
<g id="Power_Of_Knowledge">
	<g>
		<g>
			<path class="st2" d="M28.041,11.61c-7.713,0.862-13.969,7.046-14.91,14.75c-0.759,6.217,1.842,11.87,6.229,15.394
				C21.074,43.13,22,45.266,22,47.464l0,1.036h16l0-1.039c0-2.218,0.961-4.349,2.685-5.744C44.537,38.601,47,33.84,47,28.5
				C47,18.466,38.307,10.462,28.041,11.61z"/>
		</g>
	</g>
	<g>
		<g>
			<g>
				<path class="st2" d="M20.359,14.5c-0.659,0.456-1.286,0.958-1.874,1.5"/>
			</g>
		</g>
		<g>
			<g>
				<path class="st0" d="M20.771,14.215c-0.157-0.228-0.469-0.283-0.695-0.126c-0.674,0.466-1.323,0.985-1.929,1.543
					c-0.203,0.187-0.216,0.503-0.029,0.707c0.099,0.107,0.233,0.161,0.368,0.161c0.121,0,0.243-0.044,0.339-0.132
					c0.571-0.526,1.184-1.017,1.819-1.457C20.871,14.754,20.928,14.442,20.771,14.215z"/>
			</g>
		</g>
	</g>
	<g>
		<g>
			<path class="st0" d="M41.663,15.453c-3.762-3.364-8.616-4.902-13.678-4.34c-1.794,0.201-3.54,0.683-5.192,1.434
				c-0.251,0.114-0.362,0.411-0.248,0.662c0.115,0.252,0.412,0.364,0.662,0.248c1.556-0.707,3.201-1.161,4.89-1.35
				c4.767-0.536,9.353,0.919,12.899,4.091C44.494,19.327,46.5,23.811,46.5,28.5c0,5.001-2.234,9.677-6.129,12.828
				c-1.824,1.476-2.871,3.711-2.871,6.133V48h-15v-0.536c0-2.434-1.03-4.658-2.826-6.101c-4.488-3.605-6.749-9.192-6.047-14.944
				c0.347-2.837,1.458-5.558,3.212-7.868c0.167-0.22,0.124-0.533-0.096-0.701c-0.221-0.166-0.533-0.125-0.701,0.096
				c-1.86,2.45-3.039,5.338-3.407,8.352c-0.744,6.098,1.652,12.021,6.412,15.844c1.56,1.252,2.453,3.192,2.453,5.321V48.5
				c0,0.276,0.224,0.5,0.5,0.5h16c0.276,0,0.5-0.224,0.5-0.5v-1.039c0-2.118,0.911-4.07,2.5-5.355c4.131-3.342,6.5-8.301,6.5-13.605
				C47.5,23.526,45.372,18.771,41.663,15.453z"/>
		</g>
	</g>
	<g>
		<g>
			<g>
				<g>
					<g>
						<path class="st0" d="M38,48H22c-0.276,0-0.5,0.224-0.5,0.5V56c0,4.411,3.589,8,8,8h1c4.411,0,8-3.589,8-8v-7.5
							C38.5,48.224,38.276,48,38,48z M37.5,56c0,3.86-3.141,7-7,7h-1c-3.859,0-7-3.14-7-7v-7h15V56z"/>
					</g>
				</g>
			</g>
		</g>
	</g>
	<g>
		<g>
			<path class="st0" d="M38,52H22c-0.276,0-0.5,0.224-0.5,0.5S21.724,53,22,53h16c0.276,0,0.5-0.224,0.5-0.5S38.276,52,38,52z"/>
		</g>
	</g>
	<g>
		<g>
			<path class="st0" d="M38,56H22c-0.276,0-0.5,0.224-0.5,0.5S21.724,57,22,57h16c0.276,0,0.5-0.224,0.5-0.5S38.276,56,38,56z"/>
		</g>
	</g>
	<g>
		<g>
			<polygon class="st3" points="37,28.5 32,28.5 35,16.5 23,28.5 28,28.5 25,40.5 			"/>
		</g>
	</g>
	<g>
		<g>
			<g>
				<g>
					<path class="st0" d="M37.462,28.309C37.385,28.122,37.202,28,37,28h-4.359l2.845-11.379c0.055-0.218-0.043-0.445-0.239-0.556
						c-0.195-0.109-0.439-0.078-0.6,0.082l-12,12c-0.143,0.143-0.186,0.358-0.108,0.545S22.798,29,23,29h4.359l-2.845,11.379
						c-0.055,0.218,0.043,0.445,0.239,0.556C24.831,40.979,24.916,41,25,41c0.129,0,0.257-0.05,0.354-0.146l12-12
						C37.496,28.71,37.539,28.496,37.462,28.309z M25.923,38.87l2.562-10.249c0.037-0.149,0.004-0.308-0.091-0.429
						C28.3,28.071,28.154,28,28,28h-3.793l9.87-9.87l-2.562,10.249c-0.037,0.149-0.004,0.308,0.091,0.429
						C31.7,28.929,31.846,29,32,29h3.793L25.923,38.87z"/>
				</g>
			</g>
		</g>
	</g>
	<g>
		<g>
			<path class="st0" d="M30.125,0c-0.276,0-0.5,0.224-0.5,0.5v8c0,0.276,0.224,0.5,0.5,0.5s0.5-0.224,0.5-0.5v-8
				C30.625,0.224,30.401,0,30.125,0z"/>
		</g>
	</g>
	<g>
		<g>
			<path class="st0" d="M10,28H2c-0.276,0-0.5,0.224-0.5,0.5S1.724,29,2,29h8c0.276,0,0.5-0.224,0.5-0.5S10.276,28,10,28z"/>
		</g>
	</g>
	<g>
		<g>
			<path class="st0" d="M58,28h-8c-0.276,0-0.5,0.224-0.5,0.5S49.724,29,50,29h8c0.276,0,0.5-0.224,0.5-0.5S58.276,28,58,28z"/>
		</g>
	</g>
	<g>
		<g>
			<path class="st0" d="M16.212,42.289c-0.195-0.195-0.512-0.195-0.707,0l-4.243,4.243c-0.195,0.195-0.195,0.512,0,0.707
				c0.098,0.098,0.226,0.146,0.354,0.146s0.256-0.049,0.354-0.146l4.243-4.243C16.407,42.8,16.407,42.484,16.212,42.289z"/>
		</g>
	</g>
	<g>
		<g>
			<path class="st0" d="M48.738,9.762c-0.195-0.195-0.512-0.195-0.707,0l-4.242,4.243c-0.195,0.195-0.195,0.512,0,0.707
				c0.098,0.098,0.226,0.146,0.354,0.146s0.256-0.049,0.354-0.146l4.242-4.243C48.934,10.273,48.934,9.957,48.738,9.762z"/>
		</g>
	</g>
	<g>
		<g>
			<path class="st0" d="M16.212,14.004l-4.243-4.243c-0.195-0.195-0.512-0.195-0.707,0s-0.195,0.512,0,0.707l4.243,4.243
				c0.098,0.098,0.226,0.146,0.354,0.146s0.256-0.049,0.354-0.146C16.407,14.516,16.407,14.2,16.212,14.004z"/>
		</g>
	</g>
	<g>
		<g>
			<path class="st1" d="M60.8,48.882c-2.057-2.743-6.143-2.83-8.314-0.176l-0.231,0.282l-0.231-0.282
				c-2.172-2.654-6.257-2.568-8.314,0.176c-1.219,1.626-1.533,3.758-0.833,5.666l2.174,5.929c1.084,2.956,4.746,3.978,7.204,2.012
				c2.458,1.967,6.121,0.944,7.204-2.012l2.174-5.929C62.332,52.64,62.019,50.507,60.8,48.882z"/>
		</g>
	</g>
	<g>
		<g>
			<g>
				<g>
					<path class="st0" d="M61.2,48.582c-1.074-1.432-2.716-2.274-4.504-2.312c-1.699-0.012-3.314,0.667-4.441,1.937
						c-1.128-1.269-2.688-1.969-4.441-1.937c-1.789,0.038-3.431,0.88-4.504,2.312c-1.326,1.768-1.664,4.062-0.903,6.138l2.175,5.929
						c0.572,1.562,1.819,2.714,3.422,3.162c0.463,0.129,0.931,0.193,1.394,0.193c1.014,0,2.002-0.305,2.858-0.893
						c1.246,0.855,2.775,1.111,4.251,0.7c1.603-0.447,2.85-1.6,3.423-3.162l2.174-5.929C62.863,52.645,62.525,50.35,61.2,48.582z
						 M61.163,54.375l-2.174,5.929c-0.46,1.256-1.464,2.183-2.752,2.542c-1.289,0.359-2.627,0.087-3.67-0.749
						c-0.184-0.146-0.441-0.146-0.625,0c-1.044,0.836-2.383,1.108-3.671,0.749c-1.288-0.36-2.291-1.287-2.751-2.542l-2.175-5.929
						c-0.644-1.756-0.358-3.698,0.765-5.194c0.887-1.184,2.244-1.88,3.724-1.912c0.035-0.001,0.069-0.001,0.104-0.001
						c1.44,0,2.783,0.635,3.698,1.754l0.231,0.282c0.095,0.116,0.237,0.183,0.387,0.183c0,0,0,0,0.001,0
						c0.149,0,0.291-0.067,0.387-0.184l0.229-0.282c0.938-1.145,2.347-1.789,3.803-1.753c1.479,0.031,2.837,0.728,3.725,1.912
						C61.521,50.678,61.807,52.619,61.163,54.375z"/>
				</g>
			</g>
		</g>
	</g>
	<g>
		<g>
			<path class="st0" d="M58.8,50.382c-0.53-0.707-1.342-1.113-2.228-1.113c-0.276,0-0.5,0.224-0.5,0.5s0.224,0.5,0.5,0.5
				c0.567,0,1.088,0.26,1.427,0.712c0.511,0.681,0.641,1.563,0.348,2.361c-0.095,0.259,0.038,0.546,0.298,0.642
				c0.057,0.021,0.114,0.031,0.172,0.031c0.204,0,0.396-0.125,0.47-0.328C59.696,52.57,59.514,51.334,58.8,50.382z"/>
		</g>
	</g>
	<g>
		<g>
			<path class="st0" d="M51.144,41.254l-0.535-0.536c-0.195-0.195-0.512-0.195-0.707,0c-0.195,0.195-0.195,0.512,0,0.707
				l0.535,0.536c0.838,0.838,1.318,1.998,1.318,3.182V45.5c0,0.276,0.224,0.5,0.5,0.5s0.5-0.224,0.5-0.5v-0.357
				C52.755,43.696,52.168,42.278,51.144,41.254z"/>
		</g>
	</g>
	<g>
		<g>
			<g>
				<g>
					<g>
						<path class="st0" d="M57.75,39.976c-0.014-0.254-0.217-0.458-0.472-0.471c-0.102-0.006-2.605-0.127-4.126,1.394
							c-1.52,1.52-1.399,4.021-1.394,4.126c0.014,0.254,0.217,0.458,0.472,0.471c0.016,0.001,0.087,0.004,0.201,0.004
							c0.64,0,2.636-0.109,3.925-1.398C57.876,42.583,57.756,40.082,57.75,39.976z M55.649,43.395
							c-0.852,0.851-2.177,1.05-2.883,1.094c0.043-0.707,0.242-2.032,1.093-2.883c0.852-0.852,2.179-1.05,2.885-1.093
							C56.702,41.217,56.505,42.539,55.649,43.395z"/>
					</g>
				</g>
			</g>
		</g>
	</g>
</g>
</svg>
