<?xml version="1.0" encoding="utf-8"?>
<!-- Generator: Adobe Illustrator 21.1.0, SVG Export Plug-In . SVG Version: 6.00 Build 0)  -->
<svg version="1.1" id="Icon_Set" xmlns="http://www.w3.org/2000/svg" xmlns:xlink="http://www.w3.org/1999/xlink" x="0px" y="0px"
	 viewBox="0 0 64 64" style="enable-background:new 0 0 64 64;" xml:space="preserve">
<style type="text/css">
	.st0{fill:#37474F;}
	.st1{fill:#EF5350;}
	.st2{fill:#FFCA28;}
	.st3{fill:#64B5F6;}
	.st4{fill:#FFFFFF;}
	.st5{fill:#FF7043;}
</style>
<g id="Professor_Female">
	<g>
		<g>
			<path class="st3" d="M53.903,44.633L43,38.5l-4,2.015L35,38.5l-10.902,6.133c-2.855,1.606-4.707,4.499-5.03,7.717l4.092,7.162
				c0.437,0.765,0.489,1.674,0.2,2.488H59v-8.652C59,49.736,57.051,46.404,53.903,44.633z"/>
		</g>
	</g>
	<g>
		<g>
			<path class="st0" d="M54.147,44.197l-10.902-6.133c-0.146-0.082-0.321-0.086-0.47-0.011L39,39.955l-3.775-1.901
				c-0.148-0.075-0.324-0.071-0.47,0.011l-10.902,6.133c-2.966,1.668-4.94,4.696-5.283,8.103c-0.027,0.274,0.173,0.52,0.448,0.547
				c0.276,0.026,0.52-0.172,0.547-0.447c0.31-3.082,2.096-5.822,4.778-7.331l10.67-6.002l3.763,1.895
				c0.141,0.072,0.309,0.072,0.449,0l3.763-1.895l10.67,6.002c2.987,1.681,4.843,4.854,4.843,8.28V62c0,0.276,0.224,0.5,0.5,0.5
				s0.5-0.224,0.5-0.5v-8.651C59.5,49.561,57.449,46.054,54.147,44.197z"/>
		</g>
	</g>
	<g>
		<g>
			<path class="st0" d="M53.224,37.261l-2.743-9.599c-0.075-0.266-0.352-0.425-0.618-0.343c-0.266,0.075-0.419,0.353-0.343,0.618
				l2.743,9.598c0.072,0.254-0.065,0.521-0.312,0.609l-5.452,1.947c-0.261,0.093-0.396,0.379-0.303,0.639
				c0.073,0.205,0.266,0.332,0.471,0.332c0.056,0,0.112-0.01,0.168-0.029l5.452-1.947C53.028,38.821,53.44,38.021,53.224,37.261z"/>
		</g>
	</g>
	<g>
		<g>
			<path class="st0" d="M31.502,40.092l-5.452-1.947c-0.247-0.089-0.384-0.355-0.312-0.608l2.743-9.599
				c0.076-0.266-0.078-0.543-0.344-0.618c-0.267-0.08-0.542,0.077-0.618,0.343l-2.743,9.6c-0.216,0.759,0.196,1.561,0.938,1.824
				l5.451,1.947c0.055,0.02,0.112,0.029,0.168,0.029c0.206,0,0.398-0.127,0.471-0.332C31.898,40.471,31.763,40.185,31.502,40.092z"
				/>
		</g>
	</g>
	<g>
		<g>
			<path class="st0" d="M50,22.3c-0.276,0-0.5,0.224-0.5,0.5s0.224,0.5,0.5,0.5c1.103,0,2,0.897,2,2s-0.897,2-2,2
				c-0.05,0-0.099-0.008-0.229-0.025c-0.266-0.037-0.491,0.136-0.548,0.384C48.122,32.452,43.918,35.8,39,35.8
				s-9.122-3.348-10.224-8.142c-0.059-0.253-0.371-0.41-0.628-0.373C28.099,27.292,28.051,27.3,28,27.3c-1.103,0-2-0.897-2-2
				s0.897-2,2-2c0.276,0,0.5-0.224,0.5-0.5v-1.5c0-0.276-0.224-0.5-0.5-0.5s-0.5,0.224-0.5,0.5v1.042
				C26.083,22.58,25,23.816,25,25.3c0,1.622,1.295,2.948,2.905,2.998C29.254,33.325,33.757,36.8,39,36.8
				c5.244,0,9.746-3.475,11.095-8.502C51.705,28.248,53,26.922,53,25.3C53,23.646,51.654,22.3,50,22.3z"/>
		</g>
	</g>
	<g>
		<g>
			<path class="st4" d="M43,38.5l-4,2.015L35,38.5l-5.881,3.308l3.145,6.426c2.743,5.604,10.731,5.604,13.473,0l3.145-6.426L43,38.5
				z"/>
		</g>
	</g>
	<g>
		<g>
			<g>
				<g>
					<path class="st0" d="M49.127,41.373l-5.882-3.309c-0.146-0.082-0.321-0.086-0.47-0.011L39,39.955l-3.775-1.901
						c-0.148-0.075-0.324-0.071-0.47,0.011l-5.881,3.309c-0.231,0.13-0.32,0.417-0.204,0.655l3.145,6.426
						c1.354,2.766,4.106,4.483,7.186,4.483s5.832-1.718,7.186-4.483l3.146-6.426C49.447,41.79,49.358,41.503,49.127,41.373z
						 M45.287,48.015c-1.184,2.42-3.593,3.923-6.287,3.923s-5.104-1.503-6.287-3.923l-2.937-6.002l5.237-2.946l3.763,1.895
						c0.141,0.072,0.309,0.072,0.449,0l3.763-1.895l5.238,2.946L45.287,48.015z"/>
				</g>
			</g>
		</g>
	</g>
	<g>
		<g>
			<polygon class="st1" points="35,38.5 32.46,39.929 35.5,44.015 39,40.515 			"/>
		</g>
	</g>
	<g>
		<g>
			<g>
				<g>
					<path class="st0" d="M39.225,40.068l-4-2.015c-0.148-0.075-0.324-0.071-0.47,0.011l-2.541,1.43
						c-0.125,0.07-0.214,0.191-0.244,0.332s0.002,0.287,0.088,0.402l3.04,4.085c0.087,0.116,0.22,0.189,0.365,0.2
						c0.012,0.001,0.024,0.001,0.036,0.001c0.132,0,0.26-0.053,0.354-0.146l3.5-3.5c0.113-0.113,0.166-0.274,0.141-0.433
						C39.468,40.276,39.368,40.141,39.225,40.068z M35.556,43.252L33.2,40.087l1.812-1.021l3.145,1.584L35.556,43.252z"/>
				</g>
			</g>
		</g>
	</g>
	<g>
		<g>
			<polygon class="st1" points="43,38.5 40.593,39.712 39,40.515 42.5,44.015 45.541,39.929 			"/>
		</g>
	</g>
	<g>
		<g>
			<g>
				<g>
					<path class="st0" d="M45.786,39.494l-2.541-1.43c-0.146-0.082-0.321-0.086-0.47-0.011l-4,2.015
						c-0.144,0.071-0.243,0.208-0.269,0.367c-0.026,0.158,0.026,0.319,0.14,0.433l3.5,3.5c0.094,0.094,0.222,0.146,0.354,0.146
						c0.012,0,0.024,0,0.036-0.001c0.146-0.011,0.278-0.084,0.365-0.2l3.041-4.085c0.086-0.115,0.117-0.262,0.088-0.402
						C46,39.686,45.911,39.564,45.786,39.494z M42.444,43.252l-2.602-2.602l0.976-0.491l2.169-1.093l1.813,1.021L42.444,43.252z"/>
				</g>
			</g>
		</g>
	</g>
	<g>
		<g>
			<path class="st0" d="M35,35.046c-0.276,0-0.5,0.224-0.5,0.5V38.5c0,0.276,0.224,0.5,0.5,0.5s0.5-0.224,0.5-0.5v-2.954
				C35.5,35.27,35.276,35.046,35,35.046z"/>
		</g>
	</g>
	<g>
		<g>
			<path class="st0" d="M43.001,35.046c-0.276,0-0.5,0.224-0.5,0.5V38.5c0,0.276,0.224,0.5,0.5,0.5s0.5-0.224,0.5-0.5v-2.954
				C43.501,35.27,43.277,35.046,43.001,35.046z"/>
		</g>
	</g>
	<g>
		<g>
			<path class="st0" d="M26,51.5c-0.276,0-0.5,0.224-0.5,0.5v10c0,0.276,0.224,0.5,0.5,0.5s0.5-0.224,0.5-0.5V52
				C26.5,51.724,26.276,51.5,26,51.5z"/>
		</g>
	</g>
	<g>
		<g>
			<path class="st0" d="M52,51.5c-0.276,0-0.5,0.224-0.5,0.5v10c0,0.276,0.224,0.5,0.5,0.5s0.5-0.224,0.5-0.5V52
				C52.5,51.724,52.276,51.5,52,51.5z"/>
		</g>
	</g>
	<g>
		<g>
			<g>
				<g>
					<g>
						<path class="st0" d="M34.427,20.3c-1.93,0-3.5,1.57-3.5,3.5s1.57,3.5,3.5,3.5s3.5-1.57,3.5-3.5S36.356,20.3,34.427,20.3z
							 M34.427,26.3c-1.379,0-2.5-1.121-2.5-2.5s1.121-2.5,2.5-2.5s2.5,1.121,2.5,2.5S35.806,26.3,34.427,26.3z"/>
					</g>
				</g>
			</g>
		</g>
	</g>
	<g>
		<g>
			<g>
				<g>
					<g>
						<path class="st0" d="M43.572,20.3c-1.93,0-3.5,1.57-3.5,3.5s1.57,3.5,3.5,3.5s3.5-1.57,3.5-3.5S45.502,20.3,43.572,20.3z
							 M43.572,26.3c-1.379,0-2.5-1.121-2.5-2.5s1.121-2.5,2.5-2.5s2.5,1.121,2.5,2.5S44.951,26.3,43.572,26.3z"/>
					</g>
				</g>
			</g>
		</g>
	</g>
	<g>
		<g>
			<path class="st0" d="M41.89,29.658c-0.173-0.215-0.486-0.248-0.703-0.078c-1.288,1.03-3.086,1.029-4.374-0.001
				c-0.216-0.171-0.53-0.137-0.703,0.078c-0.172,0.216-0.138,0.53,0.078,0.703c0.829,0.662,1.821,0.993,2.813,0.993
				s1.983-0.331,2.811-0.992C42.027,30.188,42.062,29.874,41.89,29.658z"/>
		</g>
	</g>
	<g>
		<g>
			<path class="st0" d="M31.5,22.3H28c-0.276,0-0.5,0.224-0.5,0.5s0.224,0.5,0.5,0.5h3.5c0.276,0,0.5-0.224,0.5-0.5
				S31.776,22.3,31.5,22.3z"/>
		</g>
	</g>
	<g>
		<g>
			<path class="st0" d="M50,22.3h-3.5c-0.276,0-0.5,0.224-0.5,0.5s0.224,0.5,0.5,0.5H50c0.276,0,0.5-0.224,0.5-0.5
				S50.276,22.3,50,22.3z"/>
		</g>
	</g>
	<g>
		<g>
			<g>
				<path class="st0" d="M40.749,22.3h-3.5c-0.276,0-0.5,0.224-0.5,0.5s0.224,0.5,0.5,0.5h3.5c0.276,0,0.5-0.224,0.5-0.5
					S41.025,22.3,40.749,22.3z"/>
			</g>
		</g>
	</g>
	<g>
		<g>
			<path class="st2" d="M12.003,7.114c-1.908,0.4-3.437,1.958-3.816,3.87c-0.336,1.696,0.191,3.262,1.214,4.372
				c0.725,0.786,1.185,1.778,1.185,2.848V18.5h5v-0.295c0-1.075,0.47-2.068,1.196-2.861c0.808-0.882,1.304-2.051,1.304-3.343
				C18.086,8.885,15.238,6.435,12.003,7.114z"/>
		</g>
	</g>
	<g>
		<g>
			<g>
				<g>
					<path class="st0" d="M16.551,7.729c-1.293-1.051-2.99-1.453-4.65-1.104c-2.097,0.44-3.786,2.153-4.204,4.262
						c-0.349,1.757,0.139,3.51,1.336,4.809c0.679,0.736,1.053,1.628,1.053,2.509V18.5c0,0.276,0.224,0.5,0.5,0.5h5
						c0.276,0,0.5-0.224,0.5-0.5v-0.296c0-1.123,0.579-1.992,1.065-2.523c0.925-1.01,1.435-2.317,1.435-3.681
						C18.586,10.336,17.844,8.778,16.551,7.729z M16.413,15.005c-0.816,0.894-1.271,1.925-1.322,2.995h-4.01
						c-0.052-1.064-0.514-2.117-1.312-2.983c-0.979-1.062-1.376-2.496-1.091-3.936c0.341-1.722,1.719-3.119,3.429-3.479
						c1.365-0.285,2.756,0.043,3.815,0.902c1.058,0.859,1.665,2.134,1.665,3.495C17.586,13.113,17.169,14.18,16.413,15.005z"/>
				</g>
			</g>
		</g>
	</g>
	<g>
		<g>
			<g>
				<g>
					<g>
						<path class="st0" d="M15.586,18h-5c-0.276,0-0.5,0.224-0.5,0.5V21c0,1.654,1.346,3,3,3s3-1.346,3-3v-2.5
							C16.086,18.224,15.862,18,15.586,18z M15.086,21c0,1.103-0.897,2-2,2s-2-0.897-2-2v-2h4V21z"/>
					</g>
				</g>
			</g>
		</g>
	</g>
	<g>
		<g>
			<path class="st0" d="M15.586,20.5h-5c-0.276,0-0.5,0.224-0.5,0.5s0.224,0.5,0.5,0.5h5c0.276,0,0.5-0.224,0.5-0.5
				S15.862,20.5,15.586,20.5z"/>
		</g>
	</g>
	<g>
		<g>
			<path class="st0" d="M13.086,1.5c-0.276,0-0.5,0.224-0.5,0.5v2c0,0.276,0.224,0.5,0.5,0.5s0.5-0.224,0.5-0.5V2
				C13.586,1.724,13.362,1.5,13.086,1.5z"/>
		</g>
	</g>
	<g>
		<g>
			<path class="st0" d="M8.439,5.354L7.025,3.939c-0.195-0.195-0.512-0.195-0.707,0s-0.195,0.512,0,0.707l1.414,1.414
				C7.83,6.158,7.958,6.207,8.086,6.207s0.256-0.049,0.354-0.146C8.635,5.865,8.635,5.549,8.439,5.354z"/>
		</g>
	</g>
	<g>
		<g>
			<path class="st0" d="M19.854,3.939c-0.195-0.195-0.512-0.195-0.707,0l-1.414,1.414c-0.195,0.195-0.195,0.512,0,0.707
				c0.098,0.098,0.226,0.146,0.354,0.146s0.256-0.049,0.354-0.146l1.414-1.414C20.049,4.451,20.049,4.135,19.854,3.939z"/>
		</g>
	</g>
	<g>
		<g>
			<path class="st0" d="M13.086,13c-0.276,0-0.5,0.224-0.5,0.5v5c0,0.276,0.224,0.5,0.5,0.5s0.5-0.224,0.5-0.5v-5
				C13.586,13.224,13.362,13,13.086,13z"/>
		</g>
	</g>
	<g>
		<g>
			<path class="st0" d="M39,40.015c-0.276,0-0.5,0.224-0.5,0.5v11.923c0,0.276,0.224,0.5,0.5,0.5s0.5-0.224,0.5-0.5V40.515
				C39.5,40.238,39.276,40.015,39,40.015z"/>
		</g>
	</g>
	<g>
		<g>
			<g>
				<g>
					<g>
						<path class="st0" d="M47,12c-0.128,0-0.25,0.049-0.343,0.136l-3.5,3.3c-0.2,0.188-0.211,0.503-0.023,0.704l6.5,7
							C49.73,23.244,49.863,23.3,50,23.3c0.062,0,0.123-0.012,0.183-0.034c0.191-0.075,0.317-0.26,0.317-0.466v-7.3
							C50.5,13.57,48.93,12,47,12z M49.5,21.526l-5.296-5.703l2.986-2.816c1.29,0.099,2.31,1.179,2.31,2.493V21.526z"/>
					</g>
				</g>
			</g>
		</g>
	</g>
	<g>
		<g>
			<path class="st0" d="M47.102,10.417C46.644,9.234,45.572,8.5,44.304,8.5h-7.843c-2.015,0-3.972,0.572-5.66,1.654
				c-0.232,0.149-0.3,0.458-0.151,0.69c0.148,0.232,0.458,0.3,0.691,0.151c1.526-0.979,3.296-1.496,5.12-1.496h7.843
				c1.011,0,1.626,0.66,1.865,1.278c0.239,0.617,0.229,1.52-0.519,2.2l-2.431,2.215L26.961,19.02V19c0-0.271,0.011-0.54,0.033-0.806
				c0.023-0.275-0.181-0.518-0.456-0.54c-0.265-0.009-0.518,0.181-0.54,0.456c-0.025,0.293-0.037,0.591-0.037,0.89v0.65
				c0,0.152,0.07,0.297,0.189,0.392c0.089,0.071,0.199,0.108,0.311,0.108c0.038,0,0.077-0.004,0.115-0.014l17-4
				c0.083-0.02,0.159-0.06,0.223-0.117l2.526-2.302C47.261,12.864,47.56,11.6,47.102,10.417z"/>
		</g>
	</g>
	<g>
		<g>
			<path class="st0" d="M29.119,12.192c-0.212-0.179-0.526-0.15-0.705,0.062c-0.666,0.794-1.209,1.678-1.614,2.625
				c-0.108,0.254,0.01,0.548,0.264,0.656c0.064,0.027,0.13,0.04,0.196,0.04c0.194,0,0.379-0.113,0.46-0.304
				c0.366-0.857,0.857-1.656,1.46-2.375C29.358,12.685,29.33,12.369,29.119,12.192z"/>
		</g>
	</g>
	<g>
		<g>
			<path class="st0" d="M21.857,60.256l-5.079-8.889V40.5c0-0.276-0.224-0.5-0.5-0.5s-0.5,0.224-0.5,0.5v11
				c0,0.087,0.023,0.173,0.066,0.248l5.145,9.004c0.129,0.226,0.042,0.424-0.002,0.499S20.815,61.5,20.555,61.5H6.001
				c-0.26,0-0.389-0.174-0.433-0.249s-0.13-0.273-0.001-0.499l5.145-9.004c0.043-0.075,0.066-0.161,0.066-0.248v-11
				c0-0.276-0.224-0.5-0.5-0.5s-0.5,0.224-0.5,0.5v10.867l-5.079,8.889c-0.269,0.47-0.267,1.029,0.004,1.497
				C4.975,62.221,5.46,62.5,6.001,62.5h14.554c0.541,0,1.026-0.279,1.297-0.747S22.126,60.726,21.857,60.256z"/>
		</g>
	</g>
	<g>
		<g>
			<path class="st0" d="M17.278,40h-8c-0.276,0-0.5,0.224-0.5,0.5s0.224,0.5,0.5,0.5h8c0.276,0,0.5-0.224,0.5-0.5
				S17.555,40,17.278,40z"/>
		</g>
	</g>
	<g>
		<g>
			<path class="st2" d="M21.423,60.504l-2.031-3.554H7.164l-2.031,3.554C4.752,61.17,5.233,62,6.001,62h14.555
				C21.323,62,21.804,61.17,21.423,60.504z"/>
		</g>
	</g>
	<g>
		<g>
			<g>
				<g>
					<path class="st0" d="M21.857,60.256l-2.031-3.554c-0.089-0.156-0.255-0.252-0.434-0.252H7.164
						c-0.179,0-0.345,0.096-0.434,0.252l-2.031,3.554c-0.269,0.47-0.267,1.029,0.004,1.497C4.975,62.221,5.46,62.5,6.001,62.5
						h14.554c0.541,0,1.026-0.279,1.297-0.747S22.126,60.726,21.857,60.256z M20.987,61.251c-0.043,0.075-0.172,0.249-0.432,0.249
						H6.001c-0.26,0-0.389-0.174-0.432-0.249c-0.043-0.074-0.13-0.273-0.001-0.499l1.887-3.302h11.648l1.887,3.302
						C21.118,60.978,21.031,61.176,20.987,61.251z"/>
				</g>
			</g>
		</g>
	</g>
</g>
</svg>
