<?xml version="1.0" encoding="utf-8"?>
<!-- Generator: Adobe Illustrator 21.1.0, SVG Export Plug-In . SVG Version: 6.00 Build 0)  -->
<svg version="1.1" id="Icon_Set" xmlns="http://www.w3.org/2000/svg" xmlns:xlink="http://www.w3.org/1999/xlink" x="0px" y="0px"
	 viewBox="0 0 64 64" style="enable-background:new 0 0 64 64;" xml:space="preserve">
<style type="text/css">
	.st0{fill:#37474F;}
	.st1{fill:#EF5350;}
	.st2{fill:#FFCA28;}
	.st3{fill:#64B5F6;}
	.st4{fill:#FFFFFF;}
	.st5{fill:#FF7043;}
</style>
<g id="Professor_Male">
	<g>
		<g>
			<path class="st3" d="M53.996,42.734L42,38.5l-4,2.015L34,38.5l-11.996,4.234c-1.563,0.552-2.846,1.592-3.726,2.906v5.329
				l4.881,8.543c0.437,0.765,0.489,1.674,0.2,2.488H59V49.806C59,46.626,56.995,43.792,53.996,42.734z"/>
		</g>
	</g>
	<g>
		<g>
			<path class="st0" d="M54.163,42.263l-11.996-4.234c-0.128-0.044-0.27-0.036-0.392,0.025L38,39.955l-3.775-1.901
				c-0.123-0.062-0.263-0.07-0.392-0.025l-11.996,4.234c-1.627,0.573-3.001,1.646-3.975,3.1c-0.154,0.229-0.092,0.54,0.137,0.693
				c0.229,0.155,0.54,0.092,0.694-0.137c0.853-1.274,2.055-2.212,3.477-2.713l11.795-4.164l3.81,1.919
				c0.142,0.072,0.309,0.072,0.45,0l3.809-1.919l11.795,4.164c2.793,0.985,4.67,3.638,4.67,6.601V62c0,0.276,0.224,0.5,0.5,0.5
				s0.5-0.224,0.5-0.5V49.807C59.5,46.421,57.355,43.389,54.163,42.263z"/>
		</g>
	</g>
	<g>
		<g>
			<path class="st0" d="M49,22.3c-0.276,0-0.5,0.224-0.5,0.5s0.224,0.5,0.5,0.5c1.103,0,2,0.897,2,2s-0.897,2-2,2
				c-0.051,0-0.1-0.008-0.228-0.025c-0.25-0.039-0.491,0.134-0.548,0.384C47.123,32.452,42.918,35.8,38,35.8
				s-9.122-3.348-10.224-8.142c-0.058-0.253-0.369-0.41-0.628-0.373C27.099,27.292,27.051,27.3,27,27.3c-1.103,0-2-0.897-2-2
				s0.897-2,2-2c0.276,0,0.5-0.224,0.5-0.5v-1.5c0-0.276-0.224-0.5-0.5-0.5s-0.5,0.224-0.5,0.5v1.042
				C25.083,22.58,24,23.816,24,25.3c0,1.622,1.295,2.948,2.905,2.998C28.254,33.325,32.757,36.8,38,36.8
				c5.244,0,9.746-3.475,11.095-8.502C50.706,28.248,52,26.922,52,25.3C52,23.646,50.654,22.3,49,22.3z"/>
		</g>
	</g>
	<g>
		<g>
			<g>
				<g>
					<g>
						<path class="st0" d="M46.5,12H46c-0.276,0-0.5,0.224-0.5,0.5v7.8c0,1.654,1.346,3,3,3H49c0.276,0,0.5-0.224,0.5-0.5V15
							C49.5,13.346,48.154,12,46.5,12z M48.5,22.3c-1.103,0-2-0.897-2-2V13c1.103,0,2,0.897,2,2V22.3z"/>
					</g>
				</g>
			</g>
		</g>
	</g>
	<g>
		<g>
			<path class="st0" d="M45.809,10.46c-0.44-1.19-1.544-1.96-2.814-1.96h-7.534c-2.015,0-3.972,0.572-5.66,1.654
				c-0.232,0.149-0.3,0.458-0.151,0.69s0.458,0.3,0.691,0.151c1.526-0.979,3.297-1.496,5.12-1.496h7.534
				c1.027,0,1.643,0.675,1.876,1.307s0.205,1.545-0.576,2.213l-1.186,1.015c-3.285,2.812-7.27,4.709-11.523,5.487l-5.625,1.029V19
				c0-0.271,0.011-0.54,0.033-0.806c0.023-0.275-0.181-0.518-0.456-0.54c-0.275-0.009-0.517,0.181-0.54,0.456
				c-0.025,0.293-0.037,0.591-0.037,0.89v2.15c0,0.148,0.066,0.289,0.18,0.384c0.091,0.076,0.204,0.116,0.32,0.116
				c0.03,0,0.06-0.003,0.09-0.008l6.215-1.137c4.428-0.811,8.575-2.785,11.994-5.712l1.186-1.015
				C45.91,12.954,46.249,11.651,45.809,10.46z"/>
		</g>
	</g>
	<g>
		<g>
			<path class="st0" d="M28.119,12.192c-0.212-0.179-0.526-0.15-0.705,0.062c-0.666,0.794-1.209,1.678-1.614,2.625
				c-0.108,0.254,0.01,0.548,0.264,0.656c0.064,0.027,0.13,0.04,0.196,0.04c0.194,0,0.379-0.113,0.46-0.304
				c0.366-0.857,0.857-1.656,1.46-2.375C28.358,12.685,28.33,12.369,28.119,12.192z"/>
		</g>
	</g>
	<g>
		<g>
			<polygon class="st4" points="42,38.5 38,40.515 34,38.5 27.603,40.753 38,62 48.396,40.757 			"/>
		</g>
	</g>
	<g>
		<g>
			<g>
				<g>
					<path class="st0" d="M48.859,40.567c-0.054-0.132-0.162-0.234-0.296-0.282l-6.396-2.257c-0.128-0.044-0.269-0.036-0.392,0.025
						L38,39.955l-3.775-1.901c-0.123-0.062-0.264-0.07-0.391-0.025l-6.397,2.253c-0.135,0.048-0.243,0.15-0.297,0.282
						c-0.054,0.132-0.049,0.281,0.014,0.409L37.551,62.22c0.084,0.172,0.258,0.28,0.449,0.28s0.365-0.108,0.449-0.28l10.396-21.243
						C48.908,40.849,48.913,40.699,48.859,40.567z M38,60.862l-9.701-19.824l5.666-1.996l3.81,1.919c0.142,0.072,0.309,0.072,0.45,0
						l3.81-1.919l5.665,1.999L38,60.862z"/>
				</g>
			</g>
		</g>
	</g>
	<g>
		<g>
			<g>
				<g>
					<g>
						<path class="st0" d="M38.226,40.068l-4-2.015c-0.123-0.062-0.263-0.07-0.392-0.025l-2.854,1.008
							c-0.15,0.053-0.266,0.174-0.312,0.326c-0.046,0.151-0.018,0.316,0.078,0.444l3.354,4.507c0.086,0.116,0.22,0.189,0.365,0.2
							c0.012,0.001,0.024,0.001,0.036,0.001c0.132,0,0.259-0.053,0.354-0.146l3.5-3.5c0.113-0.113,0.166-0.274,0.14-0.433
							C38.469,40.276,38.369,40.141,38.226,40.068z M34.556,43.252l-2.604-3.499l2.013-0.711l3.192,1.608L34.556,43.252z"/>
					</g>
				</g>
			</g>
		</g>
	</g>
	<g>
		<g>
			<g>
				<g>
					<g>
						<path class="st0" d="M45.333,39.362c-0.046-0.152-0.162-0.273-0.312-0.326l-2.854-1.008c-0.128-0.044-0.269-0.036-0.392,0.025
							l-4,2.015c-0.143,0.072-0.243,0.208-0.269,0.367c-0.025,0.158,0.027,0.319,0.14,0.433l3.5,3.5
							c0.094,0.094,0.221,0.146,0.354,0.146c0.012,0,0.024,0,0.036-0.001c0.145-0.011,0.278-0.084,0.365-0.2l3.354-4.507
							C45.351,39.679,45.379,39.514,45.333,39.362z M41.445,43.252l-2.602-2.602l3.192-1.608l2.014,0.712L41.445,43.252z"/>
					</g>
				</g>
			</g>
		</g>
	</g>
	<g>
		<g>
			<polygon class="st1" points="40,42.848 38,40.515 36,42.848 35.342,56.117 38,62 40.659,56.116 			"/>
		</g>
	</g>
	<g>
		<g>
			<g>
				<g>
					<path class="st0" d="M40.5,42.824c-0.006-0.111-0.048-0.217-0.12-0.301l-2-2.334c-0.19-0.223-0.569-0.223-0.76,0l-2,2.334
						c-0.072,0.084-0.114,0.189-0.12,0.301l-0.659,13.269c-0.004,0.079,0.011,0.158,0.044,0.23l2.658,5.883
						C37.625,62.385,37.804,62.5,38,62.5s0.375-0.115,0.456-0.294l2.659-5.884c0.033-0.072,0.048-0.151,0.044-0.23L40.5,42.824z
						 M38,60.786l-2.153-4.765l0.644-12.978L38,41.283l1.509,1.761l0.644,12.977L38,60.786z"/>
				</g>
			</g>
		</g>
	</g>
	<g>
		<g>
			<path class="st0" d="M34,35.046c-0.276,0-0.5,0.224-0.5,0.5V38.5c0,0.276,0.224,0.5,0.5,0.5s0.5-0.224,0.5-0.5v-2.954
				C34.5,35.27,34.276,35.046,34,35.046z"/>
		</g>
	</g>
	<g>
		<g>
			<path class="st0" d="M42,35.046c-0.276,0-0.5,0.224-0.5,0.5V38.5c0,0.276,0.224,0.5,0.5,0.5s0.5-0.224,0.5-0.5v-2.954
				C42.5,35.27,42.277,35.046,42,35.046z"/>
		</g>
	</g>
	<g>
		<g>
			<path class="st0" d="M25,51.5c-0.276,0-0.5,0.224-0.5,0.5v10c0,0.276,0.224,0.5,0.5,0.5s0.5-0.224,0.5-0.5V52
				C25.5,51.724,25.276,51.5,25,51.5z"/>
		</g>
	</g>
	<g>
		<g>
			<path class="st0" d="M51,51.5c-0.276,0-0.5,0.224-0.5,0.5v10c0,0.276,0.224,0.5,0.5,0.5s0.5-0.224,0.5-0.5V52
				C51.5,51.724,51.276,51.5,51,51.5z"/>
		</g>
	</g>
	<g>
		<g>
			<g>
				<g>
					<g>
						<path class="st0" d="M33.427,20.3c-1.93,0-3.5,1.57-3.5,3.5s1.57,3.5,3.5,3.5s3.5-1.57,3.5-3.5S35.356,20.3,33.427,20.3z
							 M33.427,26.3c-1.378,0-2.5-1.121-2.5-2.5s1.122-2.5,2.5-2.5s2.5,1.121,2.5,2.5S34.805,26.3,33.427,26.3z"/>
					</g>
				</g>
			</g>
		</g>
	</g>
	<g>
		<g>
			<g>
				<g>
					<g>
						<path class="st0" d="M42.572,20.3c-1.93,0-3.5,1.57-3.5,3.5s1.57,3.5,3.5,3.5s3.5-1.57,3.5-3.5S44.502,20.3,42.572,20.3z
							 M42.572,26.3c-1.378,0-2.5-1.121-2.5-2.5s1.122-2.5,2.5-2.5s2.5,1.121,2.5,2.5S43.951,26.3,42.572,26.3z"/>
					</g>
				</g>
			</g>
		</g>
	</g>
	<g>
		<g>
			<path class="st0" d="M40.89,29.658c-0.172-0.215-0.487-0.25-0.703-0.078c-1.288,1.029-3.086,1.03-4.374-0.001
				c-0.216-0.171-0.53-0.136-0.703,0.078c-0.172,0.216-0.137,0.53,0.078,0.703c0.828,0.662,1.82,0.993,2.813,0.993
				c0.992,0,1.983-0.33,2.811-0.992C41.027,30.188,41.062,29.874,40.89,29.658z"/>
		</g>
	</g>
	<g>
		<g>
			<path class="st0" d="M30.5,22.3H27c-0.276,0-0.5,0.224-0.5,0.5s0.224,0.5,0.5,0.5h3.5c0.276,0,0.5-0.224,0.5-0.5
				S30.776,22.3,30.5,22.3z"/>
		</g>
	</g>
	<g>
		<g>
			<path class="st0" d="M49,22.3h-3.5c-0.276,0-0.5,0.224-0.5,0.5s0.224,0.5,0.5,0.5H49c0.276,0,0.5-0.224,0.5-0.5
				S49.276,22.3,49,22.3z"/>
		</g>
	</g>
	<g>
		<g>
			<path class="st0" d="M39.75,22.3h-3.5c-0.276,0-0.5,0.224-0.5,0.5s0.224,0.5,0.5,0.5h3.5c0.276,0,0.5-0.224,0.5-0.5
				S40.026,22.3,39.75,22.3z"/>
		</g>
	</g>
	<g>
		<g>
			<path class="st2" d="M12.003,7.114c-1.908,0.4-3.437,1.958-3.816,3.87c-0.336,1.696,0.191,3.262,1.214,4.372
				c0.725,0.786,1.185,1.778,1.185,2.848V18.5h5v-0.295c0-1.075,0.47-2.068,1.196-2.861c0.808-0.882,1.304-2.051,1.304-3.343
				C18.086,8.885,15.238,6.435,12.003,7.114z"/>
		</g>
	</g>
	<g>
		<g>
			<g>
				<g>
					<path class="st0" d="M16.551,7.729c-1.293-1.051-2.991-1.453-4.65-1.104c-2.097,0.44-3.786,2.153-4.204,4.262
						c-0.349,1.757,0.139,3.51,1.336,4.809c0.679,0.736,1.053,1.628,1.053,2.509V18.5c0,0.276,0.224,0.5,0.5,0.5h5
						c0.276,0,0.5-0.224,0.5-0.5v-0.296c0-1.123,0.579-1.992,1.065-2.523c0.925-1.01,1.435-2.317,1.435-3.681
						C18.586,10.336,17.844,8.778,16.551,7.729z M16.413,15.005c-0.816,0.894-1.271,1.925-1.322,2.995h-4.01
						c-0.052-1.064-0.514-2.117-1.312-2.983c-0.979-1.062-1.376-2.496-1.091-3.936c0.341-1.722,1.719-3.119,3.429-3.479
						c1.367-0.285,2.756,0.043,3.815,0.902c1.058,0.859,1.665,2.134,1.665,3.495C17.586,13.113,17.169,14.18,16.413,15.005z"/>
				</g>
			</g>
		</g>
	</g>
	<g>
		<g>
			<g>
				<g>
					<g>
						<path class="st0" d="M15.586,18h-5c-0.276,0-0.5,0.224-0.5,0.5V21c0,1.654,1.346,3,3,3s3-1.346,3-3v-2.5
							C16.086,18.224,15.862,18,15.586,18z M15.086,21c0,1.103-0.897,2-2,2s-2-0.897-2-2v-2h4V21z"/>
					</g>
				</g>
			</g>
		</g>
	</g>
	<g>
		<g>
			<path class="st0" d="M15.586,20.5h-5c-0.276,0-0.5,0.224-0.5,0.5s0.224,0.5,0.5,0.5h5c0.276,0,0.5-0.224,0.5-0.5
				S15.862,20.5,15.586,20.5z"/>
		</g>
	</g>
	<g>
		<g>
			<path class="st0" d="M13.086,1.5c-0.276,0-0.5,0.224-0.5,0.5v2c0,0.276,0.224,0.5,0.5,0.5s0.5-0.224,0.5-0.5V2
				C13.586,1.724,13.362,1.5,13.086,1.5z"/>
		</g>
	</g>
	<g>
		<g>
			<path class="st0" d="M8.439,5.354L7.025,3.939c-0.195-0.195-0.512-0.195-0.707,0s-0.195,0.512,0,0.707l1.414,1.414
				C7.83,6.158,7.958,6.207,8.086,6.207s0.256-0.049,0.354-0.146C8.635,5.865,8.635,5.549,8.439,5.354z"/>
		</g>
	</g>
	<g>
		<g>
			<path class="st0" d="M19.854,3.939c-0.195-0.195-0.512-0.195-0.707,0l-1.414,1.414c-0.195,0.195-0.195,0.512,0,0.707
				c0.098,0.098,0.226,0.146,0.354,0.146s0.256-0.049,0.354-0.146l1.414-1.414C20.049,4.451,20.049,4.135,19.854,3.939z"/>
		</g>
	</g>
	<g>
		<g>
			<path class="st0" d="M13.086,13c-0.276,0-0.5,0.224-0.5,0.5v5c0,0.276,0.224,0.5,0.5,0.5s0.5-0.224,0.5-0.5v-5
				C13.586,13.224,13.362,13,13.086,13z"/>
		</g>
	</g>
	<g>
		<g>
			<path class="st0" d="M21.857,60.256l-5.079-8.889V40.5c0-0.276-0.224-0.5-0.5-0.5s-0.5,0.224-0.5,0.5v11
				c0,0.087,0.023,0.173,0.066,0.248l5.145,9.004c0.129,0.226,0.042,0.424-0.002,0.499S20.815,61.5,20.555,61.5H6.001
				c-0.26,0-0.389-0.174-0.433-0.249s-0.13-0.273-0.001-0.499l5.145-9.004c0.043-0.075,0.066-0.161,0.066-0.248v-11
				c0-0.276-0.224-0.5-0.5-0.5s-0.5,0.224-0.5,0.5v10.867l-5.079,8.889c-0.269,0.47-0.267,1.029,0.004,1.497
				C4.975,62.221,5.46,62.5,6.001,62.5h14.554c0.541,0,1.026-0.279,1.297-0.747S22.126,60.726,21.857,60.256z"/>
		</g>
	</g>
	<g>
		<g>
			<path class="st0" d="M17.278,40h-8c-0.276,0-0.5,0.224-0.5,0.5s0.224,0.5,0.5,0.5h8c0.276,0,0.5-0.224,0.5-0.5
				S17.555,40,17.278,40z"/>
		</g>
	</g>
	<g>
		<g>
			<path class="st2" d="M21.423,60.504l-2.031-3.554H7.164l-2.031,3.554C4.752,61.17,5.233,62,6.001,62h14.555
				C21.323,62,21.804,61.17,21.423,60.504z"/>
		</g>
	</g>
	<g>
		<g>
			<g>
				<g>
					<path class="st0" d="M21.857,60.256l-2.031-3.554c-0.089-0.156-0.255-0.252-0.434-0.252H7.164
						c-0.179,0-0.345,0.096-0.434,0.252l-2.031,3.554c-0.268,0.469-0.267,1.027,0.004,1.495c0.271,0.469,0.756,0.748,1.298,0.749
						h14.555c0.541-0.001,1.026-0.28,1.297-0.749C22.124,61.283,22.125,60.725,21.857,60.256z M20.988,61.25
						c-0.043,0.075-0.173,0.25-0.433,0.25H6.001c-0.26,0-0.39-0.175-0.433-0.25c-0.043-0.075-0.13-0.272-0.001-0.498l1.887-3.302
						h11.648l1.887,3.302C21.118,60.977,21.031,61.175,20.988,61.25z"/>
				</g>
			</g>
		</g>
	</g>
</g>
</svg>
