<?xml version="1.0" encoding="utf-8"?>
<!-- Generator: Adobe Illustrator 21.1.0, SVG Export Plug-In . SVG Version: 6.00 Build 0)  -->
<svg version="1.1" id="Icon_Set" xmlns="http://www.w3.org/2000/svg" xmlns:xlink="http://www.w3.org/1999/xlink" x="0px" y="0px"
	 viewBox="0 0 64 64" style="enable-background:new 0 0 64 64;" xml:space="preserve">
<style type="text/css">
	.st0{fill:#37474F;}
	.st1{fill:#EF5350;}
	.st2{fill:#FFCA28;}
	.st3{fill:#64B5F6;}
	.st4{fill:#FFFFFF;}
	.st5{fill:#FF7043;}
</style>
<g id="Professional_Training">
	<g>
		<g>
			<path class="st0" d="M60.5,8.999c-0.276,0-0.5,0.224-0.5,0.5v27c0,0.275-0.224,0.5-0.5,0.5H38.162c-0.276,0-0.5,0.224-0.5,0.5
				s0.224,0.5,0.5,0.5H59.5c0.827,0,1.5-0.673,1.5-1.5v-27C61,9.223,60.776,8.999,60.5,8.999z"/>
		</g>
	</g>
	<g>
		<g>
			<path class="st0" d="M30.759,36.999H23.5c-0.276,0-0.5-0.225-0.5-0.5v-14.5c0-0.276-0.224-0.5-0.5-0.5s-0.5,0.224-0.5,0.5v14.5
				c0,0.827,0.673,1.5,1.5,1.5h7.259c0.276,0,0.5-0.224,0.5-0.5S31.035,36.999,30.759,36.999z"/>
		</g>
	</g>
	<g>
		<g>
			<g>
				<path class="st0" d="M22.5,8.999c-0.276,0-0.5,0.224-0.5,0.5v3.5c0,0.276,0.224,0.5,0.5,0.5s0.5-0.224,0.5-0.5v-3.5
					C23,9.223,22.776,8.999,22.5,8.999z"/>
			</g>
		</g>
	</g>
	<g>
		<g>
			<g>
				<path class="st0" d="M22.5,15.499c-0.276,0-0.5,0.224-0.5,0.5v3c0,0.276,0.224,0.5,0.5,0.5s0.5-0.224,0.5-0.5v-3
					C23,15.723,22.776,15.499,22.5,15.499z"/>
			</g>
		</g>
	</g>
	<g>
		<g>
			<path class="st3" d="M62.5,4.499h-42c-0.552,0-1,0.448-1,1v1c0,0.552,0.448,1,1,1h42c0.552,0,1-0.448,1-1v-1
				C63.5,4.947,63.052,4.499,62.5,4.499z"/>
		</g>
	</g>
	<g>
		<g>
			<g>
				<g>
					<path class="st0" d="M62.5,3.999h-42c-0.827,0-1.5,0.673-1.5,1.5v1c0,0.827,0.673,1.5,1.5,1.5h42c0.827,0,1.5-0.673,1.5-1.5v-1
						C64,4.672,63.327,3.999,62.5,3.999z M63,6.499c0,0.275-0.224,0.5-0.5,0.5h-42c-0.276,0-0.5-0.225-0.5-0.5v-1
						c0-0.275,0.224-0.5,0.5-0.5h42c0.276,0,0.5,0.225,0.5,0.5V6.499z"/>
				</g>
			</g>
		</g>
	</g>
	<g>
		<g>
			<g>
				<path class="st2" d="M0.5,59.499V44.754c0-1.976,1.164-3.767,2.97-4.569l6.031-2.68l3.004,4.463l2.996-4.473l3.805,1.723
					c1.097,0.497,2.095,1.187,2.947,2.039l3.662,3.662l5.303-5.303l3.536,3.536l-7.068,7.068c-0.976,0.976-2.559,0.976-3.536,0
					l-4.645-4.645L19.5,59.499"/>
			</g>
		</g>
	</g>
	<g>
		<g>
			<g>
				<g>
					<g>
						<path class="st0" d="M12.5,20C7.813,20,4,23.813,4,28.5S7.813,37,12.5,37s8.5-3.813,8.5-8.5S17.187,20,12.5,20z M12.5,36
							C8.364,36,5,32.636,5,28.5S8.364,21,12.5,21s7.5,3.364,7.5,7.5S16.636,36,12.5,36z"/>
					</g>
				</g>
			</g>
		</g>
	</g>
	<g>
		<g>
			<g>
				<g>
					<g>
						<path class="st0" d="M19.027,23.058C17.405,21.114,15.026,20,12.5,20C7.813,20,4,23.813,4,28.5C4,28.776,4.224,29,4.5,29
							h0.755c4.78,0,9.437-1.684,13.112-4.741v-0.001l0.596-0.496c0.102-0.085,0.166-0.206,0.178-0.339
							C19.153,23.291,19.112,23.159,19.027,23.058z M17.728,23.489C14.232,26.398,9.802,28,5.255,28H5.017
							c0.258-3.903,3.516-7,7.483-7c2.062,0,4.012,0.842,5.426,2.324L17.728,23.489z"/>
					</g>
				</g>
			</g>
		</g>
	</g>
	<g>
		<g>
			<g>
				<g>
					<g>
						<path class="st0" d="M16,35.916c0-0.166-0.083-0.321-0.22-0.414c-0.138-0.093-0.313-0.112-0.467-0.05
							c-1.809,0.729-3.824,0.726-5.625-0.006c-0.154-0.063-0.329-0.044-0.468,0.048C9.082,35.588,9,35.743,9,35.909L9,37.505
							c0,0.1,0.03,0.196,0.085,0.279l3.004,4.463c0.093,0.138,0.248,0.221,0.415,0.221h0c0.167,0,0.322-0.083,0.415-0.222
							l2.996-4.473C15.971,37.691,16,37.594,16,37.495L16,35.916z M12.503,41.071L10,37.353l0-0.733
							c1.621,0.503,3.375,0.506,5,0.005l0,0.72L12.503,41.071z"/>
					</g>
				</g>
			</g>
		</g>
	</g>
	<g>
		<g>
			<path class="st0" d="M35.106,42.797l-3.536-3.535c-0.195-0.195-0.512-0.195-0.707,0l-4.95,4.949l-3.309-3.308
				c-0.897-0.898-1.939-1.619-3.094-2.141l-3.805-1.723c-0.22-0.101-0.485-0.026-0.622,0.177l-2.582,3.854l-2.588-3.846
				c-0.137-0.201-0.396-0.277-0.618-0.178l-6.031,2.68C1.282,40.61,0,42.583,0,44.754v14.745c0,0.276,0.224,0.5,0.5,0.5
				s0.5-0.224,0.5-0.5V44.754c0-1.776,1.049-3.391,2.673-4.112l5.647-2.51l2.77,4.115c0.093,0.138,0.248,0.221,0.415,0.221h0
				c0.167,0,0.322-0.083,0.415-0.222l2.76-4.121l3.419,1.549c1.045,0.472,1.987,1.124,2.799,1.937l3.662,3.661
				c0.195,0.195,0.512,0.195,0.707,0l4.95-4.949l2.829,2.828l-6.715,6.715c-0.756,0.756-2.073,0.756-2.829,0l-4.645-4.645
				c-0.143-0.143-0.357-0.185-0.545-0.108c-0.187,0.077-0.309,0.26-0.309,0.462L19,59.499c0,0.276,0.224,0.5,0.5,0.5
				c0.276,0,0.5-0.224,0.5-0.5l0.003-12.718l3.792,3.791c1.134,1.133,3.11,1.133,4.243,0l7.068-7.068
				c0.094-0.094,0.146-0.221,0.146-0.354S35.2,42.891,35.106,42.797z"/>
		</g>
	</g>
	<g>
		<g>
			<path class="st0" d="M5.5,47.004c-0.276,0-0.5,0.224-0.5,0.5v11.995c0,0.276,0.224,0.5,0.5,0.5s0.5-0.224,0.5-0.5V47.504
				C6,47.228,5.776,47.004,5.5,47.004z"/>
		</g>
	</g>
	<g>
		<g>
			<polygon class="st3" points="13.5,41.968 11.5,41.968 10,54 12.51,56.5 15,54 			"/>
		</g>
	</g>
	<g>
		<g>
			<g>
				<g>
					<path class="st0" d="M13.996,41.906c-0.031-0.251-0.244-0.438-0.496-0.438h-2c-0.252,0-0.465,0.188-0.496,0.438l-1.5,12.032
						c-0.019,0.153,0.034,0.307,0.143,0.416l2.51,2.5C12.25,56.947,12.377,57,12.51,57c0.123-0.039,0.26-0.053,0.354-0.147l2.49-2.5
						c0.109-0.108,0.161-0.262,0.142-0.414L13.996,41.906z M12.508,55.793l-1.982-1.975l1.415-11.351h1.117l1.415,11.353
						L12.508,55.793z"/>
				</g>
			</g>
		</g>
	</g>
	<g>
		<g>
			<g>
				<g>
					<g>
						<path class="st0" d="M15.997,37.44c-0.023-0.209-0.175-0.38-0.378-0.43c-0.204-0.051-0.417,0.033-0.534,0.207l-2.581,3.854
							l-2.588-3.846c-0.117-0.174-0.329-0.255-0.534-0.206c-0.204,0.05-0.354,0.222-0.378,0.43l-0.5,4.463
							c-0.016,0.142,0.029,0.283,0.125,0.389c0.095,0.106,0.23,0.167,0.373,0.167h7c0.142,0,0.278-0.061,0.373-0.167
							c0.095-0.105,0.14-0.247,0.125-0.389L15.997,37.44z M9.559,41.468l0.286-2.555l1.719,2.555H9.559z M13.441,41.468l1.714-2.559
							l0.286,2.559H13.441z"/>
					</g>
				</g>
			</g>
		</g>
	</g>
	<g>
		<g>
			<path class="st0" d="M36.52,37.847c-0.566-0.566-1.319-0.879-2.121-0.879h-0.001c-0.803,0.001-1.557,0.313-2.124,0.882
				c-0.177,0.178-0.195,0.458-0.043,0.657s0.428,0.254,0.645,0.131l0.003-0.002c0.049-0.028,0.091-0.062,0.126-0.103
				c0.375-0.364,0.869-0.564,1.393-0.565c0,0,0.001,0,0.001,0c0.534,0,1.036,0.208,1.414,0.586c0.779,0.779,0.78,2.047-0.03,2.862
				c-0.171,0.206-0.149,0.508,0.049,0.688c0.095,0.087,0.215,0.13,0.336,0.13c0.129,0,0.258-0.05,0.356-0.148
				C37.69,40.917,37.688,39.015,36.52,37.847z"/>
		</g>
	</g>
	<g>
		<g>
			<g>
				<g>
					<g>
						<path class="st0" d="M56.5,46.999h-14c-0.827,0-1.5,0.673-1.5,1.5v10c0,0.827,0.673,1.5,1.5,1.5h14c0.827,0,1.5-0.673,1.5-1.5
							v-10C58,47.672,57.327,46.999,56.5,46.999z M57,58.499c0,0.275-0.224,0.5-0.5,0.5h-14c-0.276,0-0.5-0.225-0.5-0.5v-10
							c0-0.275,0.224-0.5,0.5-0.5h14c0.276,0,0.5,0.225,0.5,0.5V58.499z"/>
					</g>
				</g>
			</g>
		</g>
	</g>
	<g>
		<g>
			<g>
				<g>
					<g>
						<path class="st0" d="M41.5,56.999h-9c-0.827,0-1.5,0.673-1.5,1.5s0.673,1.5,1.5,1.5h9c0.276,0,0.5-0.224,0.5-0.5v-2
							C42,57.223,41.776,56.999,41.5,56.999z M41,58.999h-8.5c-0.276,0-0.5-0.225-0.5-0.5s0.224-0.5,0.5-0.5H41V58.999z"/>
					</g>
				</g>
			</g>
		</g>
	</g>
	<g>
		<g>
			<path class="st0" d="M62.5,58.999h-36c-0.276,0-0.5,0.224-0.5,0.5s0.224,0.5,0.5,0.5h36c0.276,0,0.5-0.224,0.5-0.5
				S62.776,58.999,62.5,58.999z"/>
		</g>
	</g>
	<g>
		<g>
			<g>
				<g>
					<g>
						<path class="st0" d="M49.5,51.499c-1.103,0-2,0.897-2,2s0.897,2,2,2s2-0.897,2-2S50.603,51.499,49.5,51.499z M49.5,54.499
							c-0.551,0-1-0.448-1-1s0.449-1,1-1s1,0.448,1,1S50.051,54.499,49.5,54.499z"/>
					</g>
				</g>
			</g>
		</g>
	</g>
	<g>
		<g>
			<g>
				<g>
					<g>
						<path class="st0" d="M35,15.999c-3.584,0-6.5,2.916-6.5,6.5s2.916,6.5,6.5,6.5s6.5-2.916,6.5-6.5S38.584,15.999,35,15.999z
							 M35,27.999c-3.033,0-5.5-2.468-5.5-5.5s2.467-5.5,5.5-5.5s5.5,2.468,5.5,5.5S38.033,27.999,35,27.999z"/>
					</g>
				</g>
			</g>
		</g>
	</g>
	<g>
		<g>
			<g>
				<g>
					<g>
						<path class="st0" d="M39.596,26.389L35.5,22.292v-5.793c0-0.276-0.224-0.5-0.5-0.5c-3.584,0-6.5,2.916-6.5,6.5
							s2.916,6.5,6.5,6.5c1.737,0,3.369-0.676,4.596-1.903C39.792,26.9,39.792,26.584,39.596,26.389z M35,27.999
							c-3.033,0-5.5-2.468-5.5-5.5c0-2.864,2.201-5.225,5-5.478v5.478c0,0.133,0.053,0.26,0.146,0.354l3.874,3.874
							C37.534,27.551,36.301,27.999,35,27.999z"/>
					</g>
				</g>
			</g>
		</g>
	</g>
	<g>
		<g>
			<path class="st1" d="M35,16.499v6h6C41,19.186,38.314,16.499,35,16.499z"/>
		</g>
	</g>
	<g>
		<g>
			<g>
				<g>
					<path class="st0" d="M35,15.999c-0.276,0-0.5,0.224-0.5,0.5v6c0,0.276,0.224,0.5,0.5,0.5h6c0.276,0,0.5-0.224,0.5-0.5
						C41.5,18.915,38.584,15.999,35,15.999z M35.5,21.999v-4.978c2.635,0.238,4.739,2.343,4.978,4.978H35.5z"/>
				</g>
			</g>
		</g>
	</g>
	<g>
		<g>
			<g>
				<path class="st0" d="M54,21h-8c-0.276,0-0.5,0.224-0.5,0.5S45.724,22,46,22h8c0.276,0,0.5-0.224,0.5-0.5S54.276,21,54,21z"/>
			</g>
		</g>
	</g>
	<g>
		<g>
			<g>
				<path class="st0" d="M49.5,17H46c-0.276,0-0.5,0.224-0.5,0.5S45.724,18,46,18h3.5c0.276,0,0.5-0.224,0.5-0.5S49.776,17,49.5,17z
					"/>
			</g>
		</g>
	</g>
	<g>
		<g>
			<g>
				<path class="st0" d="M54,24h-8c-0.276,0-0.5,0.224-0.5,0.5S45.724,25,46,25h8c0.276,0,0.5-0.224,0.5-0.5S54.276,24,54,24z"/>
			</g>
		</g>
	</g>
	<g>
		<g>
			<g>
				<path class="st0" d="M54,27h-8c-0.276,0-0.5,0.224-0.5,0.5S45.724,28,46,28h8c0.276,0,0.5-0.224,0.5-0.5S54.276,27,54,27z"/>
			</g>
		</g>
	</g>
</g>
</svg>
