<?xml version="1.0" encoding="utf-8"?>
<!-- Generator: Adobe Illustrator 21.1.0, SVG Export Plug-In . SVG Version: 6.00 Build 0)  -->
<svg version="1.1" id="Icon_Set" xmlns="http://www.w3.org/2000/svg" xmlns:xlink="http://www.w3.org/1999/xlink" x="0px" y="0px"
	 viewBox="0 0 64 64" style="enable-background:new 0 0 64 64;" xml:space="preserve">
<style type="text/css">
	.st0{fill:#37474F;}
	.st1{fill:#EF5350;}
	.st2{fill:#FFCA28;}
	.st3{fill:#64B5F6;}
	.st4{fill:#FFFFFF;}
	.st5{fill:#FF7043;}
</style>
<g id="Reading_Online">
	<g>
		<g>
			<path class="st2" d="M50.328,32H54.5V22h-7v8.5c0,2.481-2.019,4.5-4.5,4.5H28c-1.654,0-3,1.346-3,3c0,1.104-0.896,2-2,2
				s-2-0.895-2-2c0-1.654-1.346-3-3-3H9.5v18h45v-6.911l-1.04-1.04l-1.01,1.009c-0.862,0.862-2.146,1.116-3.271,0.65
				c-1.125-0.466-1.851-1.554-1.851-2.771V35C47.328,33.346,48.674,32,50.328,32z"/>
		</g>
	</g>
	<g>
		<g>
			<g>
				<g>
					<g>
						<path class="st0" d="M62.5,55.5h-61C0.673,55.5,0,56.173,0,57v2c0,0.827,0.673,1.5,1.5,1.5h61c0.827,0,1.5-0.673,1.5-1.5v-2
							C64,56.173,63.327,55.5,62.5,55.5z M63,59c0,0.276-0.224,0.5-0.5,0.5h-61C1.224,59.5,1,59.276,1,59v-2
							c0-0.276,0.224-0.5,0.5-0.5h61c0.276,0,0.5,0.224,0.5,0.5V59z"/>
					</g>
				</g>
			</g>
		</g>
	</g>
	<g>
		<g>
			<path class="st3" d="M13,33h5c2.761,0,5,2.239,5,5v-4c0-2.761-2.239-5-5-5H6.5C5.119,29,4,27.881,4,26.5V9H3
				c-1.381,0-2.5,1.119-2.5,2.5v19C0.5,31.881,1.619,33,3,33h1"/>
		</g>
	</g>
	<g>
		<g>
			<path class="st0" d="M18,28.5H6.5c-1.103,0-2-0.897-2-2V9c0-0.276-0.224-0.5-0.5-0.5H3c-1.654,0-3,1.346-3,3v19
				c0,1.654,1.346,3,3,3h1c0.276,0,0.5-0.224,0.5-0.5S4.276,32.5,4,32.5H3c-1.103,0-2-0.897-2-2v-19c0-1.103,0.897-2,2-2h0.5v17
				c0,1.654,1.346,3,3,3H18c2.481,0,4.5,2.019,4.5,4.5v0.841C21.504,33.426,19.858,32.5,18,32.5h-5c-0.276,0-0.5,0.224-0.5,0.5
				s0.224,0.5,0.5,0.5h5c2.481,0,4.5,2.019,4.5,4.5c0,0.276,0.224,0.5,0.5,0.5s0.5-0.224,0.5-0.5v-4
				C23.5,30.967,21.033,28.5,18,28.5z"/>
		</g>
	</g>
	<g>
		<g>
			<path class="st3" d="M43,9h-1v17.5c0,1.381-1.119,2.5-2.5,2.5H28c-2.761,0-5,2.239-5,5v4c0-2.761,2.239-5,5-5h15
				c1.381,0,2.5-1.119,2.5-2.5v-19C45.5,10.119,44.381,9,43,9z"/>
		</g>
	</g>
	<g>
		<g>
			<g>
				<g>
					<path class="st0" d="M43,8.5h-1c-0.276,0-0.5,0.224-0.5,0.5v17.5c0,1.103-0.897,2-2,2H28c-3.033,0-5.5,2.467-5.5,5.5v4
						c0,0.276,0.224,0.5,0.5,0.5s0.5-0.224,0.5-0.5c0-2.481,2.019-4.5,4.5-4.5h15c1.654,0,3-1.346,3-3v-19
						C46,9.846,44.654,8.5,43,8.5z M45,30.5c0,1.103-0.897,2-2,2H28c-1.858,0-3.504,0.926-4.5,2.341V34c0-2.481,2.019-4.5,4.5-4.5
						h11.5c1.654,0,3-1.346,3-3v-17H43c1.103,0,2,0.897,2,2V30.5z"/>
				</g>
			</g>
		</g>
	</g>
	<g>
		<g>
			<path class="st0" d="M54.5,21.5h-7c-0.276,0-0.5,0.224-0.5,0.5s0.224,0.5,0.5,0.5H54V32c0,0.276,0.224,0.5,0.5,0.5
				S55,32.276,55,32V22C55,21.724,54.776,21.5,54.5,21.5z"/>
		</g>
	</g>
	<g>
		<g>
			<path class="st0" d="M54.5,45.589c-0.276,0-0.5,0.224-0.5,0.5V52.5H10V35c0-0.276-0.224-0.5-0.5-0.5S9,34.724,9,35v18
				c0,0.276,0.224,0.5,0.5,0.5h45c0.276,0,0.5-0.224,0.5-0.5v-6.911C55,45.813,54.776,45.589,54.5,45.589z"/>
		</g>
	</g>
	<g>
		<g>
			<path class="st0" d="M56.5,18.5h-9c-0.276,0-0.5,0.224-0.5,0.5s0.224,0.5,0.5,0.5h9c0.276,0,0.5,0.224,0.5,0.5v12
				c0,0.276,0.224,0.5,0.5,0.5S58,32.276,58,32V20C58,19.173,57.327,18.5,56.5,18.5z"/>
		</g>
	</g>
	<g>
		<g>
			<path class="st0" d="M57.5,48.589c-0.276,0-0.5,0.224-0.5,0.5V55c0,0.276-0.224,0.5-0.5,0.5h-49C7.224,55.5,7,55.276,7,55V35
				c0-0.276-0.224-0.5-0.5-0.5S6,34.724,6,35v20c0,0.827,0.673,1.5,1.5,1.5h49c0.827,0,1.5-0.673,1.5-1.5v-5.911
				C58,48.812,57.776,48.589,57.5,48.589z"/>
		</g>
	</g>
	<g>
		<g>
			<g>
				<g>
					<g>
						<path class="st0" d="M18,3.5H6.5c-1.654,0-3,1.346-3,3v20c0,1.654,1.346,3,3,3H18c2.164,0,3.976,1.535,4.404,3.573
							l0.098,0.971c0.005,0.061,0.021,0.119,0.047,0.171c0.03,0.063,0.074,0.119,0.126,0.164l0,0c0,0,0,0,0,0
							c0.061,0.051,0.133,0.089,0.213,0.107c0,0,0.001,0,0.001,0C22.926,34.496,22.962,34.5,23,34.5h0.013
							c0.084-0.002,0.164-0.025,0.233-0.064h0c0,0,0,0,0,0l0,0c0,0,0,0,0,0c0,0,0.001-0.001,0.001-0.001
							c0.045-0.026,0.085-0.058,0.12-0.096c0.001-0.001,0.001-0.001,0.001-0.001h0c0.077-0.085,0.125-0.197,0.129-0.32v-0.008
							c0-0.001,0-0.001,0-0.001c0,0,0-0.001,0-0.001c0,0,0-0.001,0-0.001V9C23.5,5.967,21.033,3.5,18,3.5z M22.5,30.841
							C21.504,29.426,19.858,28.5,18,28.5H6.5c-1.103,0-2-0.897-2-2v-20c0-1.103,0.897-2,2-2H18c2.481,0,4.5,2.019,4.5,4.5V30.841z"
							/>
					</g>
				</g>
			</g>
		</g>
	</g>
	<g>
		<g>
			<g>
				<g>
					<g>
						<path class="st0" d="M39.5,3.5H28c-3.033,0-5.5,2.467-5.5,5.5v25.004c0,0,0,0,0,0c0,0,0,0,0,0.001c0,0,0,0,0,0.001v0.008
							c0.004,0.123,0.052,0.235,0.129,0.32h0c0,0.002,0.001,0.001,0.001,0.001c0.035,0.038,0.075,0.07,0.12,0.096l0,0
							c0,0,0,0,0.001,0c0,0,0,0,0,0l0,0c0,0,0.001,0,0.001,0c0.069,0.039,0.148,0.062,0.233,0.064H23
							c0.036,0,0.071-0.004,0.105-0.011c0.089-0.019,0.17-0.062,0.234-0.122c0,0,0,0,0,0l0,0c0.043-0.041,0.08-0.088,0.107-0.143
							c0.027-0.055,0.044-0.115,0.05-0.179l0.098-0.971C24.024,31.035,25.836,29.5,28,29.5h11.5c1.654,0,3-1.346,3-3v-20
							C42.5,4.846,41.154,3.5,39.5,3.5z M41.5,26.5c0,1.103-0.897,2-2,2H28c-1.858,0-3.504,0.926-4.5,2.341V9
							c0-2.481,2.019-4.5,4.5-4.5h11.5c1.103,0,2,0.897,2,2V26.5z"/>
					</g>
				</g>
			</g>
		</g>
	</g>
	<g>
		<g>
			<path class="st1" d="M63.207,43.79l-4.952-4.952c-0.391-0.391-0.391-1.024,0-1.414l1.717-1.717
				c0.63-0.63,0.184-1.707-0.707-1.707h-8.937c-0.552,0-1,0.448-1,1v8.937c0,0.891,1.077,1.337,1.707,0.707l1.717-1.717
				c0.391-0.391,1.024-0.391,1.414,0l4.952,4.952c0.391,0.391,1.024,0.391,1.414,0l2.674-2.674
				C63.598,44.814,63.598,44.18,63.207,43.79z"/>
		</g>
	</g>
	<g>
		<g>
			<g>
				<g>
					<path class="st0" d="M63.561,43.437l-4.951-4.952c-0.195-0.195-0.195-0.512,0-0.707l1.717-1.717
						c0.437-0.437,0.562-1.063,0.325-1.635c-0.237-0.571-0.768-0.926-1.386-0.926h-8.937c-0.827,0-1.5,0.673-1.5,1.5v8.937
						c0,0.618,0.355,1.149,0.926,1.386c0.573,0.237,1.199,0.111,1.635-0.325l1.717-1.717c0.195-0.195,0.512-0.195,0.708,0
						l4.951,4.952c0.292,0.292,0.677,0.438,1.061,0.438c0.384,0,0.769-0.146,1.061-0.438l2.674-2.675
						C64.146,44.973,64.146,44.021,63.561,43.437z M62.854,44.851l-2.674,2.674c-0.195,0.195-0.512,0.195-0.708,0l-4.951-4.952
						c-0.283-0.283-0.66-0.439-1.061-0.439c-0.401,0-0.778,0.156-1.061,0.439l-1.717,1.717c-0.22,0.219-0.472,0.139-0.545,0.108
						c-0.072-0.03-0.309-0.152-0.309-0.462V35c0-0.276,0.224-0.5,0.5-0.5h8.937c0.31,0,0.432,0.236,0.462,0.309
						c0.03,0.072,0.111,0.326-0.108,0.545l-1.717,1.717c-0.584,0.584-0.584,1.536,0,2.121l4.952,4.952
						C63.048,44.338,63.048,44.656,62.854,44.851z"/>
				</g>
			</g>
		</g>
	</g>
	<g>
		<g>
			<g>
				<g>
					<g>
						<path class="st0" d="M36.5,55.5h-9c-0.276,0-0.5,0.224-0.5,0.5v4c0,0.276,0.224,0.5,0.5,0.5h9c0.276,0,0.5-0.224,0.5-0.5v-4
							C37,55.724,36.776,55.5,36.5,55.5z M36,59.5h-8v-3h8V59.5z"/>
					</g>
				</g>
			</g>
		</g>
	</g>
	<g>
		<g>
			<g>
				<path class="st0" d="M10,32.5H7c-0.276,0-0.5,0.224-0.5,0.5s0.224,0.5,0.5,0.5h3c0.276,0,0.5-0.224,0.5-0.5S10.276,32.5,10,32.5
					z"/>
			</g>
		</g>
	</g>
	<g>
		<g>
			<g>
				<path class="st0" d="M18.5,8.5h-10C8.224,8.5,8,8.724,8,9s0.224,0.5,0.5,0.5h10C18.776,9.5,19,9.276,19,9S18.776,8.5,18.5,8.5z"
					/>
			</g>
		</g>
	</g>
	<g>
		<g>
			<g>
				<path class="st0" d="M18.5,12.5h-10C8.224,12.5,8,12.724,8,13s0.224,0.5,0.5,0.5h10c0.276,0,0.5-0.224,0.5-0.5
					S18.776,12.5,18.5,12.5z"/>
			</g>
		</g>
	</g>
	<g>
		<g>
			<g>
				<path class="st0" d="M18.5,16.5h-10C8.224,16.5,8,16.724,8,17s0.224,0.5,0.5,0.5h10c0.276,0,0.5-0.224,0.5-0.5
					S18.776,16.5,18.5,16.5z"/>
			</g>
		</g>
	</g>
	<g>
		<g>
			<g>
				<path class="st0" d="M18.5,20.5h-10C8.224,20.5,8,20.724,8,21s0.224,0.5,0.5,0.5h10c0.276,0,0.5-0.224,0.5-0.5
					S18.776,20.5,18.5,20.5z"/>
			</g>
		</g>
	</g>
	<g>
		<g>
			<g>
				<path class="st0" d="M37.5,8.5h-10C27.224,8.5,27,8.724,27,9s0.224,0.5,0.5,0.5h10C37.776,9.5,38,9.276,38,9
					S37.776,8.5,37.5,8.5z"/>
			</g>
		</g>
	</g>
	<g>
		<g>
			<g>
				<path class="st0" d="M37.5,12.5h-10c-0.276,0-0.5,0.224-0.5,0.5s0.224,0.5,0.5,0.5h10c0.276,0,0.5-0.224,0.5-0.5
					S37.776,12.5,37.5,12.5z"/>
			</g>
		</g>
	</g>
	<g>
		<g>
			<g>
				<path class="st0" d="M37.5,16.5h-10c-0.276,0-0.5,0.224-0.5,0.5s0.224,0.5,0.5,0.5h10c0.276,0,0.5-0.224,0.5-0.5
					S37.776,16.5,37.5,16.5z"/>
			</g>
		</g>
	</g>
	<g>
		<g>
			<g>
				<path class="st0" d="M37.5,20.5h-10c-0.276,0-0.5,0.224-0.5,0.5s0.224,0.5,0.5,0.5h10c0.276,0,0.5-0.224,0.5-0.5
					S37.776,20.5,37.5,20.5z"/>
			</g>
		</g>
	</g>
</g>
</svg>
