<?xml version="1.0" encoding="utf-8"?>
<!-- Generator: Adobe Illustrator 21.1.0, SVG Export Plug-In . SVG Version: 6.00 Build 0)  -->
<svg version="1.1" id="Icon_Set" xmlns="http://www.w3.org/2000/svg" xmlns:xlink="http://www.w3.org/1999/xlink" x="0px" y="0px"
	 viewBox="0 0 64 64" style="enable-background:new 0 0 64 64;" xml:space="preserve">
<style type="text/css">
	.st0{fill:#37474F;}
	.st1{fill:#EF5350;}
	.st2{fill:#FFCA28;}
	.st3{fill:#64B5F6;}
	.st4{fill:#FFFFFF;}
	.st5{fill:#FF7043;}
</style>
<g id="Right_To_Education">
	<g>
		<g>
			<rect x="22" y="40" class="st3" width="20" height="19"/>
		</g>
	</g>
	<g>
		<g>
			<path class="st0" d="M25.354,31.646l-1.804-1.804c-1.322-1.322-2.05-3.079-2.05-4.949V16c0-0.276-0.224-0.5-0.5-0.5
				s-0.5,0.224-0.5,0.5v8.894c0,2.137,0.832,4.146,2.343,5.656l1.804,1.804C24.744,32.451,24.872,32.5,25,32.5
				s0.256-0.049,0.354-0.146C25.549,32.158,25.549,31.842,25.354,31.646z"/>
		</g>
	</g>
	<g>
		<g>
			<path class="st0" d="M41,17.5c-0.276,0-0.5,0.224-0.5,0.5s0.224,0.5,0.5,0.5c1.93,0,3.5,1.57,3.5,3.5
				c0,1.857-0.57,3.639-1.65,5.15l-3.257,4.559c-0.16,0.225-0.108,0.537,0.116,0.698C39.798,32.47,39.899,32.5,40,32.5
				c0.155,0,0.31-0.072,0.407-0.209l3.257-4.559C44.865,26.05,45.5,24.067,45.5,22C45.5,19.519,43.481,17.5,41,17.5z"/>
		</g>
	</g>
	<g>
		<g>
			<g>
				<g>
					<g>
						<path class="st0" d="M63.224,12.553l-6-3C57.154,9.519,57.077,9.5,57,9.5h-5c-0.276,0-0.5,0.224-0.5,0.5v6
							c0,0.276,0.224,0.5,0.5,0.5h5c0.077,0,0.154-0.019,0.224-0.053l6-3C63.393,13.362,63.5,13.189,63.5,13
							S63.393,12.638,63.224,12.553z M56.882,15.5H52.5v-5h4.382l5,2.5L56.882,15.5z"/>
					</g>
				</g>
			</g>
		</g>
	</g>
	<g>
		<g>
			<g>
				<g>
					<g>
						<path class="st0" d="M63.224,12.553l-4-2c-0.155-0.078-0.34-0.067-0.486,0.021C58.59,10.666,58.5,10.827,58.5,11v4
							c0,0.173,0.09,0.334,0.237,0.426C58.817,15.475,58.908,15.5,59,15.5c0.076,0,0.153-0.018,0.224-0.053l4-2
							C63.393,13.362,63.5,13.189,63.5,13S63.393,12.638,63.224,12.553z M59.5,14.191v-2.383L61.882,13L59.5,14.191z"/>
					</g>
				</g>
			</g>
		</g>
	</g>
	<g>
		<g>
			<path class="st3" d="M41,34H23c-0.552,0-1,0.448-1,1v4c0,0.552,0.448,1,1,1h18c0.552,0,1-0.448,1-1v-4C42,34.448,41.552,34,41,34
				z"/>
		</g>
	</g>
	<g>
		<g>
			<g>
				<g>
					<path class="st0" d="M41,33.5H23c-0.827,0-1.5,0.673-1.5,1.5v4c0,0.827,0.673,1.5,1.5,1.5h18c0.827,0,1.5-0.673,1.5-1.5v-4
						C42.5,34.173,41.827,33.5,41,33.5z M41.5,39c0,0.275-0.225,0.5-0.5,0.5H23c-0.275,0-0.5-0.225-0.5-0.5v-4
						c0-0.275,0.225-0.5,0.5-0.5h18c0.275,0,0.5,0.225,0.5,0.5V39z"/>
				</g>
			</g>
		</g>
	</g>
	<g>
		<g>
			<path class="st0" d="M22,48.5c-0.276,0-0.5,0.224-0.5,0.5v10c0,0.276,0.224,0.5,0.5,0.5s0.5-0.224,0.5-0.5V49
				C22.5,48.724,22.276,48.5,22,48.5z"/>
		</g>
	</g>
	<g>
		<g>
			<path class="st0" d="M22,42.5c-0.276,0-0.5,0.224-0.5,0.5v3c0,0.276,0.224,0.5,0.5,0.5s0.5-0.224,0.5-0.5v-3
				C22.5,42.724,22.276,42.5,22,42.5z"/>
		</g>
	</g>
	<g>
		<g>
			<path class="st0" d="M42,39.5c-0.276,0-0.5,0.224-0.5,0.5v19c0,0.276,0.224,0.5,0.5,0.5s0.5-0.224,0.5-0.5V40
				C42.5,39.724,42.276,39.5,42,39.5z"/>
		</g>
	</g>
	<g>
		<g>
			<g>
				<g>
					<g>
						<path class="st0" d="M38.5,6.5c-1.654,0-3,1.346-3,3v6c0,1.654,1.346,3,3,3s3-1.346,3-3v-6C41.5,7.846,40.154,6.5,38.5,6.5z
							 M40.5,15.5c0,1.103-0.897,2-2,2s-2-0.897-2-2v-6c0-1.103,0.897-2,2-2s2,0.897,2,2V15.5z"/>
					</g>
				</g>
			</g>
		</g>
	</g>
	<g>
		<g>
			<g>
				<g>
					<g>
						<path class="st0" d="M33.5,4.5c-1.654,0-3,1.346-3,3v8c0,1.654,1.346,3,3,3s3-1.346,3-3v-8C36.5,5.846,35.154,4.5,33.5,4.5z
							 M35.5,15.5c0,1.103-0.897,2-2,2s-2-0.897-2-2v-8c0-1.103,0.897-2,2-2s2,0.897,2,2V15.5z"/>
					</g>
				</g>
			</g>
		</g>
	</g>
	<g>
		<g>
			<g>
				<g>
					<g>
						<path class="st0" d="M28.5,6.5c-1.654,0-3,1.346-3,3v6c0,1.654,1.346,3,3,3s3-1.346,3-3v-6C31.5,7.846,30.154,6.5,28.5,6.5z
							 M30.5,15.5c0,1.103-0.897,2-2,2s-2-0.897-2-2v-6c0-1.103,0.897-2,2-2s2,0.897,2,2V15.5z"/>
					</g>
				</g>
			</g>
		</g>
	</g>
	<g>
		<g>
			<g>
				<g>
					<g>
						<path class="st0" d="M23.5,7.5c-1.654,0-3,1.346-3,3v5c0,1.654,1.346,3,3,3s3-1.346,3-3v-5C26.5,8.846,25.154,7.5,23.5,7.5z
							 M25.5,15.5c0,1.103-0.897,2-2,2s-2-0.897-2-2v-5c0-1.103,0.897-2,2-2s2,0.897,2,2V15.5z"/>
					</g>
				</g>
			</g>
		</g>
	</g>
	<g>
		<g>
			<polyline class="st2" points="43,10 52,10 52,16 43,16 			"/>
		</g>
	</g>
	<g>
		<g>
			<path class="st0" d="M52,9.5h-9c-0.276,0-0.5,0.224-0.5,0.5s0.224,0.5,0.5,0.5h8.5v5H43c-0.276,0-0.5,0.224-0.5,0.5
				s0.224,0.5,0.5,0.5h9c0.276,0,0.5-0.224,0.5-0.5v-6C52.5,9.724,52.276,9.5,52,9.5z"/>
		</g>
	</g>
	<g>
		<g>
			<path class="st2" d="M19,16H3.5C2.119,16,1,14.881,1,13.5v-1C1,11.119,2.119,10,3.5,10H19"/>
		</g>
	</g>
	<g>
		<g>
			<path class="st0" d="M19,15.5H3.5c-1.103,0-2-0.897-2-2v-1c0-1.103,0.897-2,2-2H19c0.276,0,0.5-0.224,0.5-0.5S19.276,9.5,19,9.5
				H3.5c-1.654,0-3,1.346-3,3v1c0,1.654,1.346,3,3,3H19c0.276,0,0.5-0.224,0.5-0.5S19.276,15.5,19,15.5z"/>
		</g>
	</g>
	<g>
		<g>
			<path class="st0" d="M41,17.5h-3.5c-1.654,0-3,1.346-3,3s1.346,3,3,3h2.375c0.276,0,0.5-0.224,0.5-0.5s-0.224-0.5-0.5-0.5H37.5
				c-1.103,0-2-0.897-2-2s0.897-2,2-2H41c0.276,0,0.5-0.224,0.5-0.5S41.276,17.5,41,17.5z"/>
		</g>
	</g>
	<g>
		<g>
			<rect x="5" y="10" class="st1" width="4" height="6"/>
		</g>
	</g>
	<g>
		<g>
			<g>
				<g>
					<path class="st0" d="M9,9.5H5c-0.276,0-0.5,0.224-0.5,0.5v6c0,0.276,0.224,0.5,0.5,0.5h4c0.276,0,0.5-0.224,0.5-0.5v-6
						C9.5,9.724,9.276,9.5,9,9.5z M8.5,15.5h-3v-5h3V15.5z"/>
				</g>
			</g>
		</g>
	</g>
</g>
</svg>
