<?xml version="1.0" encoding="utf-8"?>
<!-- Generator: Adobe Illustrator 21.1.0, SVG Export Plug-In . SVG Version: 6.00 Build 0)  -->
<svg version="1.1" id="Icon_Set" xmlns="http://www.w3.org/2000/svg" xmlns:xlink="http://www.w3.org/1999/xlink" x="0px" y="0px"
	 viewBox="0 0 64 64" style="enable-background:new 0 0 64 64;" xml:space="preserve">
<style type="text/css">
	.st0{fill:#37474F;}
	.st1{fill:#EF5350;}
	.st2{fill:#FFCA28;}
	.st3{fill:#64B5F6;}
	.st4{fill:#FFFFFF;}
	.st5{fill:#FF7043;}
</style>
<g id="Scholarship">
	<g>
		<g>
			<path class="st0" d="M55.5,5.75c-0.276,0-0.5,0.224-0.5,0.5s0.224,0.5,0.5,0.5c2.206,0,4,1.794,4,4v4H53
				c-0.276,0-0.5,0.224-0.5,0.5s0.224,0.5,0.5,0.5h7c0.276,0,0.5-0.224,0.5-0.5v-4.5C60.5,7.993,58.257,5.75,55.5,5.75z"/>
		</g>
	</g>
	<g>
		<g>
			<path class="st0" d="M10,21.75c-0.276,0-0.5,0.224-0.5,0.5v24.5c0,0.276,0.224,0.5,0.5,0.5s0.5-0.224,0.5-0.5v-24.5
				C10.5,21.974,10.276,21.75,10,21.75z"/>
		</g>
	</g>
	<g>
		<g>
			<path class="st0" d="M10,15.75c-0.276,0-0.5,0.224-0.5,0.5v3c0,0.276,0.224,0.5,0.5,0.5s0.5-0.224,0.5-0.5v-3
				C10.5,15.974,10.276,15.75,10,15.75z"/>
		</g>
	</g>
	<g>
		<g>
			<path class="st0" d="M55.5,5.75H15c-3.032,0-5.5,2.468-5.5,5.5v2c0,0.276,0.224,0.5,0.5,0.5s0.5-0.224,0.5-0.5v-2
				c0-2.481,2.019-4.5,4.5-4.5h37.503c-1.215,0.913-2.003,2.366-2.003,4v15c0,0.276,0.224,0.5,0.5,0.5s0.5-0.224,0.5-0.5v-15
				c0-2.206,1.794-4,4-4c0.276,0,0.5-0.224,0.5-0.5S55.776,5.75,55.5,5.75z"/>
		</g>
	</g>
	<g>
		<g>
			<path class="st0" d="M38,41.75H21.5c-0.276,0-0.5,0.224-0.5,0.5s0.224,0.5,0.5,0.5H38c0.276,0,0.5-0.224,0.5-0.5
				S38.276,41.75,38,41.75z"/>
		</g>
	</g>
	<g>
		<g>
			<path class="st0" d="M38,38.25H21.5c-0.276,0-0.5,0.224-0.5,0.5s0.224,0.5,0.5,0.5H38c0.276,0,0.5-0.224,0.5-0.5
				S38.276,38.25,38,38.25z"/>
		</g>
	</g>
	<g>
		<g>
			<path class="st2" d="M57.5,53.75h-13c-0.552,0-1,0.448-1,1v2c0,0.552,0.448,1,1,1h13c0.552,0,1-0.448,1-1v-2
				C58.5,54.198,58.052,53.75,57.5,53.75z"/>
		</g>
	</g>
	<g>
		<g>
			<g>
				<g>
					<path class="st0" d="M57.5,53.25h-13c-0.827,0-1.5,0.673-1.5,1.5v2c0,0.827,0.673,1.5,1.5,1.5h13c0.827,0,1.5-0.673,1.5-1.5v-2
						C59,53.923,58.327,53.25,57.5,53.25z M58,56.75c0,0.275-0.225,0.5-0.5,0.5h-13c-0.275,0-0.5-0.225-0.5-0.5v-2
						c0-0.275,0.225-0.5,0.5-0.5h13c0.275,0,0.5,0.225,0.5,0.5V56.75z"/>
				</g>
			</g>
		</g>
	</g>
	<g>
		<g>
			<path class="st2" d="M57.5,49.75h-13c-0.552,0-1,0.448-1,1v2c0,0.552,0.448,1,1,1h13c0.552,0,1-0.448,1-1v-2
				C58.5,50.198,58.052,49.75,57.5,49.75z"/>
		</g>
	</g>
	<g>
		<g>
			<g>
				<g>
					<path class="st0" d="M57.5,49.25h-13c-0.827,0-1.5,0.673-1.5,1.5v2c0,0.827,0.673,1.5,1.5,1.5h13c0.827,0,1.5-0.673,1.5-1.5v-2
						C59,49.923,58.327,49.25,57.5,49.25z M58,52.75c0,0.275-0.225,0.5-0.5,0.5h-13c-0.275,0-0.5-0.225-0.5-0.5v-2
						c0-0.275,0.225-0.5,0.5-0.5h13c0.275,0,0.5,0.225,0.5,0.5V52.75z"/>
				</g>
			</g>
		</g>
	</g>
	<g>
		<g>
			<path class="st2" d="M57.5,45.75h-13c-0.552,0-1,0.448-1,1v2c0,0.552,0.448,1,1,1h13c0.552,0,1-0.448,1-1v-2
				C58.5,46.198,58.052,45.75,57.5,45.75z"/>
		</g>
	</g>
	<g>
		<g>
			<g>
				<g>
					<path class="st0" d="M57.5,45.25h-13c-0.827,0-1.5,0.673-1.5,1.5v2c0,0.827,0.673,1.5,1.5,1.5h13c0.827,0,1.5-0.673,1.5-1.5v-2
						C59,45.923,58.327,45.25,57.5,45.25z M58,48.75c0,0.275-0.225,0.5-0.5,0.5h-13c-0.275,0-0.5-0.225-0.5-0.5v-2
						c0-0.275,0.225-0.5,0.5-0.5h13c0.275,0,0.5,0.225,0.5,0.5V48.75z"/>
				</g>
			</g>
		</g>
	</g>
	<g>
		<g>
			<circle class="st2" cx="51" cy="36.75" r="9"/>
		</g>
	</g>
	<g>
		<g>
			<g>
				<g>
					<path class="st0" d="M51,27.25c-5.238,0-9.5,4.262-9.5,9.5s4.262,9.5,9.5,9.5s9.5-4.262,9.5-9.5S56.238,27.25,51,27.25z
						 M51,45.25c-4.687,0-8.5-3.813-8.5-8.5s3.813-8.5,8.5-8.5s8.5,3.813,8.5,8.5S55.687,45.25,51,45.25z"/>
				</g>
			</g>
		</g>
	</g>
	<g>
		<g>
			<g>
				<g>
					<g>
						<path class="st0" d="M51,29.75c-3.859,0-7,3.141-7,7s3.141,7,7,7s7-3.141,7-7S54.859,29.75,51,29.75z M51,42.75
							c-3.309,0-6-2.691-6-6s2.691-6,6-6s6,2.691,6,6S54.309,42.75,51,42.75z"/>
					</g>
				</g>
			</g>
		</g>
	</g>
	<g>
		<g>
			<path class="st0" d="M53.293,36.676c-0.283-0.282-0.659-0.438-1.059-0.438h-0.006l-2.483,0.008c0,0-0.001,0-0.002,0
				c-0.273,0-0.498-0.222-0.5-0.496l-0.002-0.259c-0.001-0.134,0.051-0.261,0.146-0.355c0.096-0.096,0.252-0.169,0.356-0.147
				L52.748,35c0.001,0,0.001,0,0.002,0c0.275,0,0.499-0.223,0.5-0.498c0.001-0.276-0.222-0.501-0.498-0.502l-3.005-0.012
				c-0.399-0.048-0.784,0.155-1.068,0.441c-0.285,0.286-0.44,0.665-0.438,1.069l0.002,0.259c0.006,0.821,0.679,1.488,1.5,1.488
				h0.006l2.483-0.008c0,0,0.001,0,0.002,0c0.133,0,0.259,0.052,0.353,0.146c0.096,0.095,0.147,0.221,0.147,0.354v0.25
				c0,0.274-0.224,0.499-0.498,0.5L49.248,38.5c-0.276,0.001-0.499,0.226-0.498,0.502c0.001,0.275,0.225,0.498,0.5,0.498
				c0.001,0,0.001,0,0.002,0l2.988-0.012c0.824-0.003,1.494-0.676,1.494-1.5v-0.25C53.734,37.337,53.578,36.959,53.293,36.676z"/>
		</g>
	</g>
	<g>
		<g>
			<path class="st0" d="M51,32.5c-0.276,0-0.5,0.224-0.5,0.5v1c0,0.276,0.224,0.5,0.5,0.5s0.5-0.224,0.5-0.5v-1
				C51.5,32.724,51.276,32.5,51,32.5z"/>
		</g>
	</g>
	<g>
		<g>
			<path class="st0" d="M51,39c-0.276,0-0.5,0.224-0.5,0.5v1c0,0.276,0.224,0.5,0.5,0.5s0.5-0.224,0.5-0.5v-1
				C51.5,39.224,51.276,39,51,39z"/>
		</g>
	</g>
	<g>
		<g>
			<path class="st3" d="M20.25,15.25v8.949l2.015,1.16c4.633,2.668,10.336,2.668,14.97,0l2.015-1.16V15.25H20.25z"/>
		</g>
	</g>
	<g>
		<g>
			<g>
				<g>
					<path class="st0" d="M39.25,14.75h-19c-0.276,0-0.5,0.224-0.5,0.5v8.949c0,0.179,0.096,0.344,0.25,0.434l2.016,1.16
						c2.386,1.373,5.06,2.06,7.734,2.06c2.674,0,5.349-0.687,7.733-2.06l2.016-1.16c0.155-0.09,0.251-0.255,0.251-0.434V15.25
						C39.75,14.974,39.526,14.75,39.25,14.75z M38.75,23.91l-1.766,1.016c-4.461,2.57-10.006,2.57-14.471,0L20.75,23.91v-8.16h18
						V23.91z"/>
				</g>
			</g>
		</g>
	</g>
	<g>
		<g>
			<polygon class="st3" points="29.75,11.25 14.75,15.25 29.75,19.25 44.75,15.25 			"/>
		</g>
	</g>
	<g>
		<g>
			<g>
				<g>
					<path class="st0" d="M44.879,14.767l-15-4c-0.084-0.021-0.174-0.021-0.258,0l-15,4c-0.219,0.059-0.371,0.257-0.371,0.483
						s0.152,0.425,0.371,0.483l15,4c0.042,0.011,0.086,0.017,0.129,0.017s0.087-0.006,0.129-0.017l15-4
						c0.219-0.059,0.371-0.257,0.371-0.483S45.098,14.825,44.879,14.767z M29.75,18.732L16.69,15.25l13.06-3.482l13.06,3.482
						L29.75,18.732z"/>
				</g>
			</g>
		</g>
	</g>
	<g>
		<g>
			<path class="st0" d="M44.75,14.75c-0.276,0-0.5,0.224-0.5,0.5v5.195c0,0.276,0.224,0.5,0.5,0.5s0.5-0.224,0.5-0.5V15.25
				C45.25,14.974,45.026,14.75,44.75,14.75z"/>
		</g>
	</g>
	<g>
		<g>
			<g>
				<g>
					<g>
						<path class="st0" d="M63.158,22.275L61.5,21.723c-0.692-0.23-1.242-0.78-1.473-1.473l-0.553-1.658
							c-0.137-0.408-0.812-0.408-0.949,0l-0.553,1.658c-0.23,0.692-0.78,1.242-1.473,1.473l-1.658,0.553
							c-0.204,0.068-0.342,0.26-0.342,0.475s0.138,0.406,0.342,0.475l1.658,0.553c0.692,0.23,1.242,0.78,1.473,1.473l0.553,1.658
							c0.068,0.204,0.26,0.342,0.475,0.342s0.406-0.138,0.475-0.342l0.553-1.658c0.23-0.692,0.78-1.242,1.473-1.473l1.658-0.553
							c0.204-0.068,0.342-0.26,0.342-0.475S63.362,22.344,63.158,22.275z M61.184,22.828c-0.989,0.329-1.776,1.116-2.105,2.105
							L59,25.169l-0.078-0.235c-0.329-0.989-1.116-1.776-2.105-2.105l-0.235-0.078l0.235-0.078c0.989-0.329,1.776-1.116,2.105-2.105
							L59,20.331l0.078,0.235c0.329,0.989,1.116,1.776,2.105,2.105l0.235,0.078L61.184,22.828z"/>
					</g>
				</g>
			</g>
		</g>
	</g>
	<g>
		<g>
			<path class="st0" d="M41.5,57.25h-36c-2.206,0-4-1.794-4-4v-4h40c0.276,0,0.5-0.224,0.5-0.5s-0.224-0.5-0.5-0.5H1
				c-0.276,0-0.5,0.224-0.5,0.5v4.5c0,2.757,2.243,5,5,5h36c0.276,0,0.5-0.224,0.5-0.5S41.776,57.25,41.5,57.25z"/>
		</g>
	</g>
	<g>
		<g>
			<path class="st1" d="M37,32.25H22.5c-0.552,0-1,0.448-1,1v1c0,0.552,0.448,1,1,1H37c0.552,0,1-0.448,1-1v-1
				C38,32.698,37.552,32.25,37,32.25z"/>
		</g>
	</g>
	<g>
		<g>
			<g>
				<g>
					<path class="st0" d="M37,31.75H22.5c-0.827,0-1.5,0.673-1.5,1.5v1c0,0.827,0.673,1.5,1.5,1.5H37c0.827,0,1.5-0.673,1.5-1.5v-1
						C38.5,32.423,37.827,31.75,37,31.75z M37.5,34.25c0,0.275-0.225,0.5-0.5,0.5H22.5c-0.275,0-0.5-0.225-0.5-0.5v-1
						c0-0.275,0.225-0.5,0.5-0.5H37c0.275,0,0.5,0.225,0.5,0.5V34.25z"/>
				</g>
			</g>
		</g>
	</g>
</g>
</svg>
