<?xml version="1.0" encoding="utf-8"?>
<!-- Generator: Adobe Illustrator 21.1.0, SVG Export Plug-In . SVG Version: 6.00 Build 0)  -->
<svg version="1.1" id="Icon_Set" xmlns="http://www.w3.org/2000/svg" xmlns:xlink="http://www.w3.org/1999/xlink" x="0px" y="0px"
	 viewBox="0 0 64 64" style="enable-background:new 0 0 64 64;" xml:space="preserve">
<style type="text/css">
	.st0{fill:#37474F;}
	.st1{fill:#EF5350;}
	.st2{fill:#FFCA28;}
	.st3{fill:#64B5F6;}
	.st4{fill:#FFFFFF;}
	.st5{fill:#FF7043;}
</style>
<g id="Science">
	<g>
		<g>
			<g>
				<g>
					<g>
						<path class="st0" d="M26.425,16.5h-10c-0.827,0-1.5,0.673-1.5,1.5v1c0,0.827,0.673,1.5,1.5,1.5h10c0.827,0,1.5-0.673,1.5-1.5
							v-1C27.925,17.173,27.252,16.5,26.425,16.5z M26.925,19c0,0.276-0.224,0.5-0.5,0.5h-10c-0.276,0-0.5-0.224-0.5-0.5v-1
							c0-0.276,0.224-0.5,0.5-0.5h10c0.276,0,0.5,0.224,0.5,0.5V19z"/>
					</g>
				</g>
			</g>
		</g>
	</g>
	<g>
		<g>
			<path class="st0" d="M56.5,26.5c-0.276,0-0.5,0.224-0.5,0.5v4c0,0.276,0.224,0.5,0.5,0.5S57,31.276,57,31v-4
				C57,26.724,56.776,26.5,56.5,26.5z"/>
		</g>
	</g>
	<g>
		<g>
			<path class="st0" d="M58.5,28.5h-4c-0.276,0-0.5,0.224-0.5,0.5s0.224,0.5,0.5,0.5h4c0.276,0,0.5-0.224,0.5-0.5
				S58.776,28.5,58.5,28.5z"/>
		</g>
	</g>
	<g>
		<g>
			<path class="st0" d="M7.5,35.5C7.224,35.5,7,35.724,7,36v4c0,0.276,0.224,0.5,0.5,0.5S8,40.276,8,40v-4
				C8,35.724,7.776,35.5,7.5,35.5z"/>
		</g>
	</g>
	<g>
		<g>
			<path class="st0" d="M9.5,37.5h-4C5.224,37.5,5,37.724,5,38s0.224,0.5,0.5,0.5h4c0.276,0,0.5-0.224,0.5-0.5S9.776,37.5,9.5,37.5z
				"/>
		</g>
	</g>
	<g>
		<g>
			<circle class="st1" cx="50.425" cy="5" r="3"/>
		</g>
	</g>
	<g>
		<g>
			<g>
				<g>
					<path class="st0" d="M50.425,1.5c-1.93,0-3.5,1.57-3.5,3.5s1.57,3.5,3.5,3.5s3.5-1.57,3.5-3.5S52.354,1.5,50.425,1.5z
						 M50.425,7.5c-1.378,0-2.5-1.122-2.5-2.5s1.122-2.5,2.5-2.5s2.5,1.122,2.5,2.5S51.803,7.5,50.425,7.5z"/>
				</g>
			</g>
		</g>
	</g>
	<g>
		<g>
			<circle class="st1" cx="43.425" cy="13" r="2"/>
		</g>
	</g>
	<g>
		<g>
			<g>
				<g>
					<path class="st0" d="M43.425,10.5c-1.378,0-2.5,1.122-2.5,2.5s1.122,2.5,2.5,2.5s2.5-1.122,2.5-2.5S44.803,10.5,43.425,10.5z
						 M43.425,14.5c-0.827,0-1.5-0.673-1.5-1.5s0.673-1.5,1.5-1.5s1.5,0.673,1.5,1.5S44.252,14.5,43.425,14.5z"/>
				</g>
			</g>
		</g>
	</g>
	<g>
		<g>
			<g>
				<g>
					<g>
						<path class="st0" d="M48.5,21.5h-10c-0.827,0-1.5,0.673-1.5,1.5v1c0,0.827,0.673,1.5,1.5,1.5h10c0.827,0,1.5-0.673,1.5-1.5v-1
							C50,22.173,49.327,21.5,48.5,21.5z M49,24c0,0.276-0.224,0.5-0.5,0.5h-10c-0.276,0-0.5-0.224-0.5-0.5v-1
							c0-0.276,0.224-0.5,0.5-0.5h10c0.276,0,0.5,0.224,0.5,0.5V24z"/>
					</g>
				</g>
			</g>
		</g>
	</g>
	<g>
		<g>
			<path class="st3" d="M36.949,58.148L29.782,47H13.068L5.901,58.148C4.832,59.812,6.026,62,8.004,62h26.842
				C36.824,62,38.018,59.812,36.949,58.148z"/>
		</g>
	</g>
	<g>
		<g>
			<path class="st0" d="M37.369,57.877L25.925,40.075V20c0-0.276-0.224-0.5-0.5-0.5s-0.5,0.224-0.5,0.5v20.222
				c0,0.096,0.027,0.19,0.08,0.271l11.524,17.926c0.402,0.625,0.429,1.387,0.073,2.04c-0.356,0.652-1.013,1.042-1.756,1.042H8.004
				c-0.743,0-1.399-0.39-1.756-1.042c-0.356-0.652-0.329-1.415,0.073-2.04l11.523-17.926c0.052-0.081,0.08-0.175,0.08-0.271V31
				c0-0.276-0.224-0.5-0.5-0.5s-0.5,0.224-0.5,0.5v9.075L5.481,57.877c-0.603,0.938-0.644,2.082-0.11,3.06
				C5.905,61.916,6.89,62.5,8.004,62.5h26.841c1.115,0,2.099-0.584,2.633-1.563C38.013,59.959,37.972,58.815,37.369,57.877z"/>
		</g>
	</g>
	<g>
		<g>
			<path class="st0" d="M17.425,24.5c-0.276,0-0.5,0.224-0.5,0.5v3c0,0.276,0.224,0.5,0.5,0.5s0.5-0.224,0.5-0.5v-3
				C17.925,24.724,17.701,24.5,17.425,24.5z"/>
		</g>
	</g>
	<g>
		<g>
			<path class="st0" d="M17.425,19.5c-0.276,0-0.5,0.224-0.5,0.5v2c0,0.276,0.224,0.5,0.5,0.5s0.5-0.224,0.5-0.5v-2
				C17.925,19.724,17.701,19.5,17.425,19.5z"/>
		</g>
	</g>
	<g>
		<g>
			<path class="st2" d="M32.763,55.334c0.409,0.822,0.899,1.598,1.478,2.299L32.763,55.334z"/>
		</g>
	</g>
	<g>
		<g>
			<path class="st2" d="M34.089,50l4.543,7.066c0.786,1.223,0.925,2.735,0.406,4.067C40.418,61.687,41.921,62,43.5,62
				c6.627,0,12-5.373,12-12H34.089z"/>
		</g>
	</g>
	<g>
		<g>
			<path class="st0" d="M48,38.349V25c0-0.276-0.224-0.5-0.5-0.5h-8c-0.276,0-0.5,0.224-0.5,0.5v13.349
				c-3.64,1.407-6.435,4.455-7.511,8.216c-0.076,0.266,0.077,0.542,0.343,0.618c0.264,0.077,0.542-0.077,0.618-0.343
				c1.021-3.565,3.719-6.433,7.217-7.672c0.2-0.071,0.333-0.259,0.333-0.471V25.5h7v13.197c0,0.212,0.133,0.401,0.333,0.471
				C51.919,40.792,55,45.145,55,50c0,6.341-5.159,11.5-11.5,11.5c-1.464,0-2.903-0.28-4.276-0.831
				c-0.259-0.103-0.548,0.021-0.65,0.277c-0.103,0.256,0.021,0.548,0.277,0.65c1.493,0.6,3.057,0.903,4.649,0.903
				C50.393,62.5,56,56.893,56,50C56,44.841,52.8,40.203,48,38.349z"/>
		</g>
	</g>
	<g>
		<g>
			<path class="st0" d="M46.666,41.054c-0.262-0.092-0.546,0.044-0.638,0.304c-0.092,0.26,0.044,0.546,0.304,0.638
				C49.722,43.197,52,46.414,52,50c0,0.276,0.224,0.5,0.5,0.5S53,50.276,53,50C53,45.991,50.454,42.396,46.666,41.054z"/>
		</g>
	</g>
</g>
</svg>
