<?xml version="1.0" encoding="utf-8"?>
<!-- Generator: Adobe Illustrator 21.1.0, SVG Export Plug-In . SVG Version: 6.00 Build 0)  -->
<svg version="1.1" id="Icon_Set" xmlns="http://www.w3.org/2000/svg" xmlns:xlink="http://www.w3.org/1999/xlink" x="0px" y="0px"
	 viewBox="0 0 64 64" style="enable-background:new 0 0 64 64;" xml:space="preserve">
<style type="text/css">
	.st0{fill:#37474F;}
	.st1{fill:#EF5350;}
	.st2{fill:#FFCA28;}
	.st3{fill:#64B5F6;}
	.st4{fill:#FFFFFF;}
	.st5{fill:#FF7043;}
</style>
<g id="Science_Research">
	<g>
		<g>
			<g>
				<g>
					<g>
						<path class="st0" d="M34.5,11.5h-5c-0.276,0-0.5,0.224-0.5,0.5v2.5c0,0.276,0.224,0.5,0.5,0.5h5c0.276,0,0.5-0.224,0.5-0.5V12
							C35,11.724,34.776,11.5,34.5,11.5z M34,14h-4v-1.5h4V14z"/>
					</g>
				</g>
			</g>
		</g>
	</g>
	<g>
		<g>
			<g>
				<g>
					<g>
						<path class="st0" d="M34.5,35h-5c-0.276,0-0.5,0.224-0.5,0.5v3c0,0.276,0.224,0.5,0.5,0.5h5c0.276,0,0.5-0.224,0.5-0.5v-3
							C35,35.224,34.776,35,34.5,35z M34,38h-4v-2h4V38z"/>
					</g>
				</g>
			</g>
		</g>
	</g>
	<g>
		<g>
			<path class="st3" d="M51,56.5H13c-0.552,0-1,0.448-1,1v2c0,0.552,0.448,1,1,1h38c0.552,0,1-0.448,1-1v-2
				C52,56.948,51.553,56.5,51,56.5z"/>
		</g>
	</g>
	<g>
		<g>
			<g>
				<g>
					<path class="st0" d="M51,56H13c-0.827,0-1.5,0.673-1.5,1.5v2c0,0.827,0.673,1.5,1.5,1.5h38c0.827,0,1.5-0.673,1.5-1.5v-2
						C52.5,56.673,51.827,56,51,56z M51.5,59.5c0,0.276-0.225,0.5-0.5,0.5H13c-0.276,0-0.5-0.224-0.5-0.5v-2
						c0-0.276,0.224-0.5,0.5-0.5h38c0.275,0,0.5,0.224,0.5,0.5V59.5z"/>
				</g>
			</g>
		</g>
	</g>
	<g>
		<g>
			<circle class="st3" cx="37" cy="25" r="4"/>
		</g>
	</g>
	<g>
		<g>
			<g>
				<g>
					<path class="st0" d="M37,20.5c-2.481,0-4.5,2.019-4.5,4.5s2.019,4.5,4.5,4.5s4.5-2.019,4.5-4.5S39.481,20.5,37,20.5z M37,28.5
						c-1.93,0-3.5-1.57-3.5-3.5s1.57-3.5,3.5-3.5s3.5,1.57,3.5,3.5S38.93,28.5,37,28.5z"/>
				</g>
			</g>
		</g>
	</g>
	<g>
		<g>
			<path class="st2" d="M37,19v-2c0-1.381-1.119-2.5-2.5-2.5h-5C28.12,14.5,27,15.62,27,17v16c0,1.381,1.119,2.5,2.5,2.5h5
				c1.381,0,2.5-1.119,2.5-2.5v-2c-3.314,0-6-2.686-6-6S33.687,19,37,19z"/>
		</g>
	</g>
	<g>
		<g>
			<path class="st0" d="M37,19.5c0.276,0,0.5-0.224,0.5-0.5v-2c0-1.654-1.346-3-3-3h-5c-1.654,0-3,1.346-3,3v16c0,1.654,1.346,3,3,3
				h5c1.654,0,3-1.346,3-3v-2c0-0.276-0.224-0.5-0.5-0.5s-0.5,0.224-0.5,0.5v2c0,1.103-0.897,2-2,2h-5c-1.103,0-2-0.897-2-2V17
				c0-1.103,0.897-2,2-2h5c1.103,0,2,0.897,2,2v2C36.5,19.277,36.724,19.5,37,19.5z"/>
		</g>
	</g>
	<g>
		<g>
			<g>
				<g>
					<g>
						<path class="st0" d="M34,50h-4c-0.276,0-0.5,0.224-0.5,0.5v6c0,0.276,0.224,0.5,0.5,0.5h4c0.276,0,0.5-0.224,0.5-0.5v-6
							C34.5,50.224,34.276,50,34,50z M33.5,56h-3v-5h3V56z"/>
					</g>
				</g>
			</g>
		</g>
	</g>
	<g>
		<g>
			<path class="st0" d="M43.219,24.476c-0.154-0.079-0.336-0.031-0.483,0.061S42.5,24.827,42.5,25h0.458l-0.185,0.37
				C47.23,27.593,50,32.049,50,37c0,7.168-5.832,13-13,13H22.5v-2H37c6.065,0,11-4.935,11-11c0-3.902-2.11-7.548-5.507-9.517
				c-0.237-0.139-0.545-0.058-0.684,0.182c-0.139,0.239-0.057,0.545,0.182,0.683C45.081,30.139,47,33.454,47,37
				c0,5.514-4.486,10-10,10H22c-0.276,0-0.5,0.224-0.5,0.5v3c0,0.276,0.224,0.5,0.5,0.5h15c7.72,0,14-6.28,14-14
				C51,31.668,48.019,26.869,43.219,24.476z"/>
		</g>
	</g>
	<g>
		<g>
			<path class="st0" d="M14.5,38c-0.276,0-0.5,0.224-0.5,0.5v3c0,0.276,0.224,0.5,0.5,0.5s0.5-0.224,0.5-0.5v-3
				C15,38.224,14.777,38,14.5,38z"/>
		</g>
	</g>
	<g>
		<g>
			<path class="st0" d="M12.874,25.663c-0.16-0.224-0.473-0.277-0.697-0.116l-3.34,2.385c-0.225,0.16-0.277,0.473-0.116,0.697
				c0.098,0.137,0.251,0.209,0.407,0.209c0.101,0,0.202-0.03,0.29-0.093l3.34-2.385C12.982,26.2,13.034,25.887,12.874,25.663z"/>
		</g>
	</g>
	<g>
		<g>
			<path class="st0" d="M5.5,29h-4C1.224,29,1,29.224,1,29.5S1.224,30,1.5,30h4C5.777,30,6,29.777,6,29.5S5.777,29,5.5,29z"/>
		</g>
	</g>
	<g>
		<g>
			<path class="st0" d="M13.437,34.73l-4.17-4.17c-0.195-0.195-0.512-0.195-0.707,0s-0.195,0.512,0,0.707l4.17,4.17
				c0.098,0.098,0.226,0.146,0.354,0.146s0.256-0.049,0.354-0.146C13.633,35.242,13.633,34.926,13.437,34.73z"/>
		</g>
	</g>
	<g>
		<g>
			<path class="st0" d="M13.184,37.219c-0.132-0.243-0.438-0.332-0.678-0.2l-6.611,3.606c-0.243,0.132-0.332,0.436-0.2,0.678
				c0.091,0.167,0.262,0.261,0.439,0.261c0.081,0,0.163-0.02,0.239-0.061l6.611-3.606C13.227,37.765,13.316,37.461,13.184,37.219z"
				/>
		</g>
	</g>
	<g>
		<g>
			<g>
				<g>
					<g>
						<path class="st0" d="M7.5,27C6.122,27,5,28.122,5,29.5S6.122,32,7.5,32s2.5-1.122,2.5-2.5S8.879,27,7.5,27z M7.5,31
							C6.673,31,6,30.328,6,29.5S6.673,28,7.5,28S9,28.673,9,29.5S8.328,31,7.5,31z"/>
					</g>
				</g>
			</g>
		</g>
	</g>
	<g>
		<g>
			<g>
				<g>
					<g>
						<path class="st0" d="M14.5,34c-1.378,0-2.5,1.122-2.5,2.5s1.122,2.5,2.5,2.5s2.5-1.122,2.5-2.5S15.879,34,14.5,34z M14.5,38
							c-0.827,0-1.5-0.673-1.5-1.5s0.673-1.5,1.5-1.5s1.5,0.673,1.5,1.5S15.328,38,14.5,38z"/>
					</g>
				</g>
			</g>
		</g>
	</g>
	<g>
		<g>
			<g>
				<g>
					<g>
						<path class="st0" d="M3.5,39c-1.93,0-3.5,1.57-3.5,3.5S1.571,46,3.5,46S7,44.43,7,42.5S5.43,39,3.5,39z M3.5,45
							C2.122,45,1,43.879,1,42.5S2.122,40,3.5,40S6,41.122,6,42.5S4.879,45,3.5,45z"/>
					</g>
				</g>
			</g>
		</g>
	</g>
	<g>
		<g>
			<g>
				<g>
					<g>
						<path class="st0" d="M14.5,21.5c-1.654,0-3,1.346-3,3s1.346,3,3,3s3-1.346,3-3S16.155,21.5,14.5,21.5z M14.5,26.5
							c-1.103,0-2-0.897-2-2s0.897-2,2-2s2,0.897,2,2S15.604,26.5,14.5,26.5z"/>
					</g>
				</g>
			</g>
		</g>
	</g>
	<g>
		<g>
			<path class="st0" d="M14.5,16.5c-0.276,0-0.5,0.224-0.5,0.5v5c0,0.276,0.224,0.5,0.5,0.5S15,22.277,15,22v-5
				C15,16.724,14.777,16.5,14.5,16.5z"/>
		</g>
	</g>
	<g>
		<g>
			<circle class="st1" cx="53.5" cy="9.5" r="6"/>
		</g>
	</g>
	<g>
		<g>
			<g>
				<g>
					<path class="st0" d="M53.5,3C49.916,3,47,5.917,47,9.5s2.916,6.5,6.5,6.5S60,13.084,60,9.5S57.084,3,53.5,3z M53.5,15
						c-3.032,0-5.5-2.467-5.5-5.5S50.468,4,53.5,4S59,6.468,59,9.5S56.532,15,53.5,15z"/>
				</g>
			</g>
		</g>
	</g>
	<g>
		<g>
			<path class="st0" d="M59.211,6.941c-0.268-0.042-0.53,0.136-0.577,0.409c-0.046,0.272,0.137,0.53,0.409,0.577
				C62.273,8.478,63,9.268,63,9.5c0,0.679-3.354,2-9.5,2s-9.5-1.321-9.5-2c0-0.233,0.727-1.022,3.957-1.574
				c0.272-0.046,0.455-0.305,0.409-0.577c-0.047-0.272-0.307-0.452-0.577-0.409C45.604,7.314,43,8.061,43,9.5
				c0,2.061,5.443,3,10.5,3S64,11.562,64,9.5C64,8.06,61.396,7.314,59.211,6.941z"/>
		</g>
	</g>
	<g>
		<g>
			<path class="st0" d="M57.5,26c-0.276,0-0.5,0.224-0.5,0.5v4c0,0.276,0.224,0.5,0.5,0.5s0.5-0.224,0.5-0.5v-4
				C58,26.224,57.776,26,57.5,26z"/>
		</g>
	</g>
	<g>
		<g>
			<path class="st0" d="M59.5,28h-4c-0.276,0-0.5,0.224-0.5,0.5s0.224,0.5,0.5,0.5h4c0.276,0,0.5-0.224,0.5-0.5S59.776,28,59.5,28z"
				/>
		</g>
	</g>
	<g>
		<g>
			<path class="st0" d="M37,16.5H27c-0.276,0-0.5,0.224-0.5,0.5s0.224,0.5,0.5,0.5h10c0.276,0,0.5-0.224,0.5-0.5
				S37.276,16.5,37,16.5z"/>
		</g>
	</g>
	<g>
		<g>
			<path class="st0" d="M37,32.5H27c-0.276,0-0.5,0.224-0.5,0.5s0.224,0.5,0.5,0.5h10c0.276,0,0.5-0.224,0.5-0.5
				S37.276,32.5,37,32.5z"/>
		</g>
	</g>
</g>
</svg>
