<?xml version="1.0" encoding="utf-8"?>
<!-- Generator: Adobe Illustrator 21.1.0, SVG Export Plug-In . SVG Version: 6.00 Build 0)  -->
<svg version="1.1" id="Icon_Set" xmlns="http://www.w3.org/2000/svg" xmlns:xlink="http://www.w3.org/1999/xlink" x="0px" y="0px"
	 viewBox="0 0 64 64" style="enable-background:new 0 0 64 64;" xml:space="preserve">
<style type="text/css">
	.st0{fill:#37474F;}
	.st1{fill:#EF5350;}
	.st2{fill:#FFCA28;}
	.st3{fill:#64B5F6;}
	.st4{fill:#FFFFFF;}
	.st5{fill:#FF7043;}
</style>
<g id="Search_Of_Knowledge">
	<g>
		<g>
			<circle class="st2" cx="32" cy="31" r="9"/>
		</g>
	</g>
	<g>
		<g>
			<g>
				<g>
					<path class="st0" d="M32,21.5c-5.238,0-9.5,4.262-9.5,9.5s4.262,9.5,9.5,9.5s9.5-4.262,9.5-9.5S37.238,21.5,32,21.5z M32,39.5
						c-4.687,0-8.5-3.813-8.5-8.5s3.813-8.5,8.5-8.5s8.5,3.813,8.5,8.5S36.687,39.5,32,39.5z"/>
				</g>
			</g>
		</g>
	</g>
	<g>
		<g>
			<path class="st0" d="M32,8.5c-0.276,0-0.5,0.224-0.5,0.5v8c0,0.276,0.224,0.5,0.5,0.5s0.5-0.224,0.5-0.5V9
				C32.5,8.724,32.276,8.5,32,8.5z"/>
		</g>
	</g>
	<g>
		<g>
			<path class="st0" d="M55.5,3.5H37c-2.216,0-4.13,1.317-5,3.209C31.13,4.817,29.216,3.5,27,3.5H8.5c-1.654,0-3,1.346-3,3v3.071
				c0,0.276,0.224,0.5,0.5,0.5s0.5-0.224,0.5-0.5V6.5c0-1.103,0.897-2,2-2H27c2.481,0,4.5,2.019,4.5,4.5c0,0.276,0.224,0.5,0.5,0.5
				s0.5-0.224,0.5-0.5c0-2.481,2.019-4.5,4.5-4.5h18.5c1.103,0,2,0.897,2,2v3.071c0,0.276,0.224,0.5,0.5,0.5s0.5-0.224,0.5-0.5V6.5
				C58.5,4.846,57.154,3.5,55.5,3.5z"/>
		</g>
	</g>
	<g>
		<g>
			<g>
				<path class="st0" d="M21,19.5H11c-0.276,0-0.5,0.224-0.5,0.5s0.224,0.5,0.5,0.5h10c0.276,0,0.5-0.224,0.5-0.5
					S21.276,19.5,21,19.5z"/>
			</g>
		</g>
	</g>
	<g>
		<g>
			<g>
				<path class="st0" d="M18,23.5h-7c-0.276,0-0.5,0.224-0.5,0.5s0.224,0.5,0.5,0.5h7c0.276,0,0.5-0.224,0.5-0.5
					S18.276,23.5,18,23.5z"/>
			</g>
		</g>
	</g>
	<g>
		<g>
			<g>
				<path class="st0" d="M18,27.5h-7c-0.276,0-0.5,0.224-0.5,0.5s0.224,0.5,0.5,0.5h7c0.276,0,0.5-0.224,0.5-0.5
					S18.276,27.5,18,27.5z"/>
			</g>
		</g>
	</g>
	<g>
		<g>
			<g>
				<path class="st0" d="M18,31.5h-7c-0.276,0-0.5,0.224-0.5,0.5s0.224,0.5,0.5,0.5h7c0.276,0,0.5-0.224,0.5-0.5
					S18.276,31.5,18,31.5z"/>
			</g>
		</g>
	</g>
	<g>
		<g>
			<g>
				<path class="st0" d="M27.048,11.5h-7c-0.276,0-0.5,0.224-0.5,0.5s0.224,0.5,0.5,0.5h7c0.276,0,0.5-0.224,0.5-0.5
					S27.324,11.5,27.048,11.5z"/>
			</g>
		</g>
	</g>
	<g>
		<g>
			<g>
				<path class="st0" d="M27.048,15.5h-7c-0.276,0-0.5,0.224-0.5,0.5s0.224,0.5,0.5,0.5h7c0.276,0,0.5-0.224,0.5-0.5
					S27.324,15.5,27.048,15.5z"/>
			</g>
		</g>
	</g>
	<g>
		<g>
			<g>
				<path class="st0" d="M53,19.5H43c-0.276,0-0.5,0.224-0.5,0.5s0.224,0.5,0.5,0.5h10c0.276,0,0.5-0.224,0.5-0.5
					S53.276,19.5,53,19.5z"/>
			</g>
		</g>
	</g>
	<g>
		<g>
			<g>
				<path class="st0" d="M53,23.5h-7c-0.276,0-0.5,0.224-0.5,0.5s0.224,0.5,0.5,0.5h7c0.276,0,0.5-0.224,0.5-0.5
					S53.276,23.5,53,23.5z"/>
			</g>
		</g>
	</g>
	<g>
		<g>
			<g>
				<path class="st0" d="M53,27.5h-7c-0.276,0-0.5,0.224-0.5,0.5s0.224,0.5,0.5,0.5h7c0.276,0,0.5-0.224,0.5-0.5
					S53.276,27.5,53,27.5z"/>
			</g>
		</g>
	</g>
	<g>
		<g>
			<g>
				<path class="st0" d="M53,31.5h-7c-0.276,0-0.5,0.224-0.5,0.5s0.224,0.5,0.5,0.5h7c0.276,0,0.5-0.224,0.5-0.5
					S53.276,31.5,53,31.5z"/>
			</g>
		</g>
	</g>
	<g>
		<g>
			<g>
				<path class="st0" d="M53,11.5H37c-0.276,0-0.5,0.224-0.5,0.5s0.224,0.5,0.5,0.5h16c0.276,0,0.5-0.224,0.5-0.5
					S53.276,11.5,53,11.5z"/>
			</g>
		</g>
	</g>
	<g>
		<g>
			<g>
				<path class="st0" d="M53,15.5H37c-0.276,0-0.5,0.224-0.5,0.5s0.224,0.5,0.5,0.5h16c0.276,0,0.5-0.224,0.5-0.5
					S53.276,15.5,53,15.5z"/>
			</g>
		</g>
	</g>
	<g>
		<g>
			<g>
				<g>
					<g>
						<path class="st0" d="M34.324,42.438c-0.113-0.094-0.261-0.135-0.406-0.111c-1.382,0.233-2.448,0.234-3.834,0
							c-0.145-0.023-0.292,0.017-0.406,0.111c-0.112,0.095-0.177,0.235-0.177,0.382V48c0,0.276,0.224,0.5,0.5,0.5h4
							c0.276,0,0.5-0.224,0.5-0.5v-5.18C34.501,42.673,34.437,42.533,34.324,42.438z M33.501,47.5h-3v-4.101
							c1.051,0.135,1.951,0.134,3,0V47.5z"/>
					</g>
				</g>
			</g>
		</g>
	</g>
	<g>
		<g>
			<path class="st3" d="M22.222,41H8.5C7.119,41,6,39.881,6,38.5V9.571L5.429,9H5c-1.381,0-2.5,1.119-2.5,2.5v32
				C2.5,44.881,3.619,46,5,46h22c0.345,0,0.677,0.047,1.001,0.116v-1.724C25.801,43.737,23.823,42.566,22.222,41z"/>
		</g>
	</g>
	<g>
		<g>
			<path class="st3" d="M59,9h-0.429L58,9.571V38.5c0,1.381-1.119,2.5-2.5,2.5H41.781c-1.601,1.566-3.579,2.737-5.779,3.391v1.724
				C36.325,46.047,36.656,46,37,46h22c1.381,0,2.5-1.119,2.5-2.5v-32C61.5,10.119,60.381,9,59,9z"/>
		</g>
	</g>
	<g>
		<g>
			<g>
				<g>
					<g>
						<path class="st0" d="M32.001,18.5c-6.893,0-12.5,5.607-12.5,12.5s5.607,12.5,12.5,12.5s12.5-5.607,12.5-12.5
							S38.894,18.5,32.001,18.5z M32.001,42.5c-6.341,0-11.5-5.159-11.5-11.5s5.159-11.5,11.5-11.5s11.5,5.159,11.5,11.5
							S38.342,42.5,32.001,42.5z"/>
					</g>
				</g>
			</g>
		</g>
	</g>
	<g>
		<g>
			<path class="st0" d="M59,8.5h-0.429c-0.133,0-0.26,0.053-0.354,0.146l-0.571,0.571C57.553,9.311,57.5,9.438,57.5,9.571V38.5
				c0,1.103-0.897,2-2,2H41.78c-0.276,0-0.5,0.224-0.5,0.5s0.224,0.5,0.5,0.5H55.5c1.654,0,3-1.346,3-3V9.778L58.778,9.5H59
				c1.103,0,2,0.897,2,2v32c0,1.103-0.897,2-2,2H37c-0.372,0-0.745,0.038-1.107,0.112c-0.271,0.055-0.445,0.319-0.391,0.59
				c0.049,0.237,0.257,0.4,0.489,0.4c0.033,0,0.067-0.003,0.101-0.01C36.39,46.531,36.694,46.5,37,46.5h22c1.654,0,3-1.346,3-3v-32
				C62,9.846,60.654,8.5,59,8.5z"/>
		</g>
	</g>
	<g>
		<g>
			<path class="st0" d="M28.104,45.611C27.742,45.537,27.371,45.5,27,45.5H5c-1.103,0-2-0.897-2-2v-32c0-1.103,0.897-2,2-2h0.222
				l0.425,0.424c0.195,0.195,0.512,0.195,0.707,0s0.195-0.512,0-0.707L5.782,8.646C5.688,8.553,5.562,8.5,5.429,8.5H5
				c-1.654,0-3,1.346-3,3v32c0,1.654,1.346,3,3,3h22c0.305,0,0.608,0.03,0.904,0.09c0.033,0.007,0.067,0.01,0.101,0.01
				c0.232,0,0.44-0.164,0.489-0.4C28.549,45.93,28.374,45.666,28.104,45.611z"/>
		</g>
	</g>
	<g>
		<g>
			<path class="st0" d="M6,12.071c-0.276,0-0.5,0.224-0.5,0.5v3c0,0.276,0.224,0.5,0.5,0.5s0.5-0.224,0.5-0.5v-3
				C6.5,12.294,6.276,12.071,6,12.071z"/>
		</g>
	</g>
	<g>
		<g>
			<path class="st0" d="M22.222,40.5H8.5c-1.103,0-2-0.897-2-2V18.571c0-0.276-0.224-0.5-0.5-0.5s-0.5,0.224-0.5,0.5V38.5
				c0,1.654,1.346,3,3,3h13.722c0.276,0,0.5-0.224,0.5-0.5S22.498,40.5,22.222,40.5z"/>
		</g>
	</g>
	<g>
		<g>
			<path class="st1" d="M33.501,48h-3c-0.552,0-1,0.448-1,1v10c0,0.552,0.448,1,1,1h3c0.552,0,1-0.448,1-1V49
				C34.501,48.448,34.054,48,33.501,48z"/>
		</g>
	</g>
	<g>
		<g>
			<g>
				<g>
					<path class="st0" d="M33.501,47.5h-3c-0.827,0-1.5,0.673-1.5,1.5v10c0,0.827,0.673,1.5,1.5,1.5h3c0.827,0,1.5-0.673,1.5-1.5V49
						C35.001,48.173,34.328,47.5,33.501,47.5z M34.001,59c0,0.276-0.225,0.5-0.5,0.5h-3c-0.275,0-0.5-0.224-0.5-0.5V49
						c0-0.276,0.225-0.5,0.5-0.5h3c0.275,0,0.5,0.224,0.5,0.5V59z"/>
				</g>
			</g>
		</g>
	</g>
	<g>
		<g>
			<path class="st0" d="M32.001,24.499c-0.276,0-0.5,0.224-0.5,0.5s0.224,0.5,0.5,0.5c3.032,0,5.5,2.467,5.5,5.5
				c0,0.276,0.224,0.5,0.5,0.5s0.5-0.224,0.5-0.5C38.501,27.415,35.585,24.499,32.001,24.499z"/>
		</g>
	</g>
	<g>
		<g>
			<path class="st0" d="M17.429,15.743l-3-5c-0.09-0.15-0.252-0.242-0.427-0.243c-0.001,0-0.001,0-0.002,0
				c-0.175,0-0.336,0.091-0.427,0.24c-3.089,5.071-3.088,5.08-3.072,5.297c0.021,0.276,0.259,0.478,0.536,0.461
				c0.196-0.015,0.358-0.141,0.427-0.312c0.149-0.285,1.486-2.498,2.533-4.22l2.574,4.291C16.665,16.414,16.831,16.5,17,16.5
				c0.088,0,0.177-0.023,0.257-0.071C17.494,16.287,17.571,15.979,17.429,15.743z"/>
		</g>
	</g>
	<g>
		<g>
			<path class="st0" d="M15.8,13.5h-3.618c-0.276,0-0.5,0.224-0.5,0.5s0.224,0.5,0.5,0.5H15.8c0.276,0,0.5-0.224,0.5-0.5
				S16.076,13.5,15.8,13.5z"/>
		</g>
	</g>
	<g>
		<g>
			<path class="st0" d="M34.501,56.5h-5c-0.276,0-0.5,0.224-0.5,0.5s0.224,0.5,0.5,0.5h5c0.276,0,0.5-0.224,0.5-0.5
				S34.777,56.5,34.501,56.5z"/>
		</g>
	</g>
</g>
</svg>
