<?xml version="1.0" encoding="utf-8"?>
<!-- Generator: Adobe Illustrator 22.0.0, SVG Export Plug-In . SVG Version: 6.00 Build 0)  -->
<svg version="1.1" id="Icon_Set" xmlns="http://www.w3.org/2000/svg" xmlns:xlink="http://www.w3.org/1999/xlink" x="0px" y="0px"
	 viewBox="0 0 64 64" style="enable-background:new 0 0 64 64;" xml:space="preserve">
<style type="text/css">
	.st0{fill:#64B5F6;}
	.st1{fill:#37474F;}
	.st2{fill:none;}
	.st3{fill:#EF5350;}
	.st4{fill:#FFCA28;}
</style>
<g id="Sharing_Ideas">
	<g>
		<g>
			<path class="st0" d="M61.3,37.9l-35.5,8.9c-0.9,0.2-1,1.4-0.2,1.9l7.6,3.8l2.6,10.3c0.2,0.8,1.1,1,1.7,0.5l5.8-5.8l9,4.5
				c0.5,0.3,1.2,0,1.4-0.5l8.9-22.2C62.7,38.5,62,37.7,61.3,37.9z"/>
		</g>
	</g>
	<g>
		<g>
			<g>
				<g>
					<path class="st1" d="M62.6,37.9c-0.4-0.4-0.9-0.6-1.5-0.5l-35.5,8.9c-0.6,0.2-1.1,0.7-1.1,1.3s0.3,1.2,0.8,1.5l7.4,3.7
						l2.5,10.1c0.1,0.5,0.5,0.9,1.1,1.1c0.1,0,0.3,0.1,0.4,0.1c0.4,0,0.8-0.2,1.1-0.4l5.5-5.5l8.7,4.4c0.4,0.2,0.8,0.2,1.2,0.1
						c0.4-0.1,0.7-0.5,0.9-0.8L63,39.7C63.1,38.9,63,38.3,62.6,37.9z M62,39.1l-8.9,22.2c-0.1,0.1-0.2,0.2-0.3,0.3s-0.3,0-0.4,0
						l-9-4.5C43.2,57,43,57,42.8,57.2L37,62.9C36.9,63,36.6,63,36.6,63c-0.1,0-0.3-0.1-0.4-0.4l-2.6-10.3c0-0.1-0.1-0.3-0.3-0.3
						l-7.6-3.8c-0.3-0.1-0.3-0.4-0.3-0.5s0.1-0.4,0.4-0.4l35.5-8.9h0.1c0.1,0,0.3,0.1,0.4,0.2C62,38.7,62,38.9,62,39.1z"/>
				</g>
			</g>
		</g>
	</g>
	<g>
		<g>
			<g>
				<path class="st1" d="M62.6,37.9c-0.1-0.2-0.4-0.3-0.7-0.2L32.9,52c-0.2,0.1-0.3,0.4-0.2,0.7c0.1,0.2,0.4,0.3,0.7,0.2l23.1-11.4
					l-18.6,13c-0.1,0.1-0.2,0.3-0.2,0.4c0,0.2,0.1,0.3,0.3,0.4l5,2.5c0.1,0,0.1,0.1,0.2,0.1c0.2,0,0.4-0.1,0.4-0.3
					c0.1-0.2,0-0.5-0.2-0.7l-4.2-2.1l23.3-16.3C62.7,38.4,62.7,38.1,62.6,37.9z"/>
			</g>
		</g>
	</g>
	<g>
		<g>
			<g>
				<line class="st2" x1="38.2" y1="55" x2="36.4" y2="63.4"/>
			</g>
		</g>
		<g>
			<g>
				<path class="st1" d="M38.3,54.5c-0.3-0.1-0.5,0.1-0.6,0.4l-1.8,8.5c-0.1,0.3,0.1,0.5,0.4,0.6h0.1c0.2,0,0.4-0.2,0.5-0.4l1.8-8.5
					C38.7,54.8,38.5,54.5,38.3,54.5z"/>
			</g>
		</g>
	</g>
	<g>
		<g>
			<path class="st3" d="M31.4,26.1L2.7,21.7C2,21.6,1.4,22.3,1.6,23l5.6,16.8c0.2,0.6,0.9,0.9,1.4,0.6l7.5-3.9l5.8,4.6
				c0.6,0.4,1.4,0.2,1.6-0.5l2.6-9.1l5.7-3.6C32.5,27.4,32.3,26.2,31.4,26.1z"/>
		</g>
	</g>
	<g>
		<g>
			<g>
				<g>
					<path class="st1" d="M32.7,26.8c-0.1-0.6-0.6-1.1-1.2-1.2L2.7,21.2c-0.5-0.1-1,0.1-1.4,0.5C1,22.1,0.9,22.6,1,23.1L6.7,40
						c0.1,0.4,0.5,0.8,0.9,0.9C8,41.1,8.5,41,8.9,40.8l7.2-3.8l5.6,4.4c0.3,0.2,0.6,0.3,0.9,0.3c0.2,0,0.3,0,0.5-0.1
						c0.5-0.2,0.8-0.5,1-1l2.5-8.9l5.5-3.5C32.5,28,32.8,27.4,32.7,26.8z M31.5,27.5l-5.7,3.6c-0.1,0.1-0.2,0.2-0.2,0.3l-2.6,9
						c0,0.2-0.2,0.3-0.3,0.3c-0.2,0.1-0.3,0-0.5-0.1L16.4,36c-0.1,0-0.3,0-0.4,0s-0.2,0-0.2,0.1L8.3,40c-0.1,0.1-0.3,0.1-0.4,0
						s-0.2-0.2-0.3-0.3L2,22.9c-0.1-0.2,0-0.4,0.1-0.5s0.2-0.2,0.5-0.2l28.7,4.4c0.3,0,0.4,0.3,0.4,0.4
						C31.7,27.1,31.8,27.3,31.5,27.5z"/>
				</g>
			</g>
		</g>
	</g>
	<g>
		<g>
			<g>
				<path class="st3" d="M16,36.5"/>
				<line class="st2" x1="26" y1="31.5" x2="1.8" y2="22"/>
			</g>
		</g>
		<g>
			<g>
				<path class="st1" d="M26.2,31L2,21.5c-0.2-0.1-0.5,0-0.6,0.2s0,0.5,0.2,0.6L20,34l-4.2,2.1c-0.2,0.1-0.3,0.4-0.2,0.7
					c0.1,0.2,0.3,0.3,0.4,0.3c0.1,0,0.2,0,0.2-0.1l5-2.5c0.2-0.1,0.3-0.2,0.3-0.4s-0.1-0.4-0.2-0.4L6.7,24.4L25.9,32
					c0.3,0.1,0.5,0,0.6-0.3C26.6,31.4,26.5,31.1,26.2,31z"/>
			</g>
		</g>
	</g>
	<g>
		<g>
			<g>
				<path class="st1" d="M23.2,41.1L21.5,34c-0.1-0.3-0.4-0.4-0.6-0.3c-0.3,0.1-0.4,0.4-0.3,0.6l1.7,7.1c0.1,0.2,0.3,0.3,0.5,0.3
					c0.1,0,0.1,0,0.2,0C23.2,41.6,23.3,41.3,23.2,41.1z"/>
			</g>
		</g>
	</g>
	<g>
		<g>
			<path class="st4" d="M42.3,11.6c-1.9,0.4-3.4,2-3.8,3.9c-0.3,1.7,0.2,3.3,1.2,4.4c0.7,0.8,1.2,1.8,1.2,2.8V23h5v-0.3
				c0-1.1,0.5-2.1,1.2-2.9c0.8-0.9,1.3-2.1,1.3-3.3C48.3,13.4,45.5,10.9,42.3,11.6z"/>
		</g>
	</g>
	<g>
		<g>
			<g>
				<g>
					<path class="st1" d="M46.8,12.2c-1.3-1.1-3-1.5-4.7-1.1c-2.1,0.4-3.8,2.2-4.2,4.3c-0.3,1.8,0.1,3.5,1.3,4.8
						c0.7,0.7,1.1,1.6,1.1,2.5V23c0,0.3,0.2,0.5,0.5,0.5h5c0.3,0,0.5-0.2,0.5-0.5v-0.3c0-1.1,0.6-2,1.1-2.5c0.9-1,1.4-2.3,1.4-3.7
						C48.8,14.8,48.1,13.3,46.8,12.2z M46.7,19.5c-0.8,0.9-1.3,1.9-1.3,3h-4c-0.1-1.1-0.5-2.1-1.3-3c-1-1.1-1.4-2.5-1.1-3.9
						c0.3-1.7,1.7-3.1,3.4-3.5c1.4-0.3,2.8,0,3.8,0.9c1.1,0.9,1.7,2.1,1.7,3.5C47.8,17.6,47.4,18.7,46.7,19.5z"/>
				</g>
			</g>
		</g>
	</g>
	<g>
		<g>
			<g>
				<g>
					<g>
						<path class="st1" d="M45.8,22.5h-5c-0.3,0-0.5,0.2-0.5,0.5v2.5c0,1.7,1.3,3,3,3s3-1.3,3-3V23C46.3,22.7,46.1,22.5,45.8,22.5z
							 M45.3,25.5c0,1.1-0.9,2-2,2s-2-0.9-2-2v-2h4V25.5z"/>
					</g>
				</g>
			</g>
		</g>
	</g>
	<g>
		<g>
			<path class="st1" d="M45.8,25h-5c-0.3,0-0.5,0.2-0.5,0.5s0.2,0.5,0.5,0.5h5c0.3,0,0.5-0.2,0.5-0.5S46.1,25,45.8,25z"/>
		</g>
	</g>
	<g>
		<g>
			<path class="st1" d="M43.3,6c-0.3,0-0.5,0.2-0.5,0.5v2C42.8,8.8,43,9,43.3,9s0.5-0.2,0.5-0.5v-2C43.8,6.2,43.6,6,43.3,6z"/>
		</g>
	</g>
	<g>
		<g>
			<path class="st1" d="M38.7,9.9l-1.4-1.4c-0.2-0.2-0.5-0.2-0.7,0s-0.2,0.5,0,0.7l1.4,1.4c0.1,0.1,0.2,0.1,0.4,0.1s0.3,0,0.4-0.1
				C38.9,10.4,38.9,10,38.7,9.9z"/>
		</g>
	</g>
	<g>
		<g>
			<path class="st1" d="M50.1,8.4c-0.2-0.2-0.5-0.2-0.7,0L48,9.9c-0.2,0.2-0.2,0.5,0,0.7c0.1,0.1,0.2,0.1,0.4,0.1s0.3,0,0.4-0.1
				l1.4-1.4C50.3,9,50.3,8.6,50.1,8.4z"/>
		</g>
	</g>
	<g>
		<g>
			<path class="st1" d="M43.3,17.5c-0.3,0-0.5,0.2-0.5,0.5v5c0,0.3,0.2,0.5,0.5,0.5s0.5-0.2,0.5-0.5v-5
				C43.8,17.7,43.6,17.5,43.3,17.5z"/>
		</g>
	</g>
	<g>
		<g>
			<path class="st1" d="M31.6,54H13.2c-1.1,0-2-0.9-2-2V41.6c0-0.3-0.2-0.5-0.5-0.5s-0.5,0.2-0.5,0.5V52c0,1.7,1.3,3,3,3h18.5
				c0.3,0,0.5-0.2,0.5-0.5S31.9,54,31.6,54z"/>
		</g>
	</g>
	<g>
		<g>
			<path class="st1" d="M52.2,0H21.7c-0.1,0-0.3,0.1-0.4,0.1l-11,11c-0.1,0.1-0.1,0.2-0.1,0.4v9.4c0,0.3,0.2,0.5,0.5,0.5
				s0.5-0.2,0.5-0.5v-9.2L21.9,1h30.3c1.1,0,2,0.9,2,2v34.5c0,0.3,0.2,0.5,0.5,0.5s0.5-0.2,0.5-0.5V3C55.2,1.3,53.8,0,52.2,0z"/>
		</g>
	</g>
	<g>
		<g>
			<g>
				<g>
					<g>
						<path class="st1" d="M21.8,0c-0.2-0.1-0.4,0-0.5,0.1l-11,11c-0.1,0.1-0.2,0.4-0.1,0.5c0.1,0.2,0.3,0.3,0.5,0.3h8.5
							c1.7,0,3-1.3,3-3V0.5C22.2,0.3,22,0.1,21.8,0z M21.2,9c0,1.1-0.9,2-2,2h-7.3l9.3-9.3V9z"/>
					</g>
				</g>
			</g>
		</g>
	</g>
</g>
</svg>
