<?xml version="1.0" encoding="utf-8"?>
<!-- Generator: Adobe Illustrator 21.1.0, SVG Export Plug-In . SVG Version: 6.00 Build 0)  -->
<svg version="1.1" id="Icon_Set" xmlns="http://www.w3.org/2000/svg" xmlns:xlink="http://www.w3.org/1999/xlink" x="0px" y="0px"
	 viewBox="0 0 64 64" style="enable-background:new 0 0 64 64;" xml:space="preserve">
<style type="text/css">
	.st0{fill:#37474F;}
	.st1{fill:#EF5350;}
	.st2{fill:#FFCA28;}
	.st3{fill:#64B5F6;}
	.st4{fill:#FFFFFF;}
	.st5{fill:#FF7043;}
</style>
<g id="Skill_Development">
	<g>
		<g>
			<g>
				<g>
					<path class="st2" d="M15,17.25H7c-0.828,0-1.5,0.671-1.5,1.5v2c0,3.584,2.916,6.5,6.5,6.5h3c0.828,0,1.5-0.671,1.5-1.5v-7
						C16.5,17.921,15.828,17.25,15,17.25z M13.5,24.25H12c-1.93,0-3.5-1.57-3.5-3.5v-0.5h5V24.25z"/>
				</g>
			</g>
		</g>
	</g>
	<g>
		<g>
			<g>
				<g>
					<path class="st0" d="M15,16.75H7c-1.103,0-2,0.897-2,2v2c0,3.86,3.14,7,7,7h3c1.103,0,2-0.897,2-2v-7
						C17,17.646,16.103,16.75,15,16.75z M16,25.75c0,0.551-0.449,1-1,1h-3c-3.309,0-6-2.691-6-6v-2c0-0.551,0.449-1,1-1h8
						c0.551,0,1,0.449,1,1V25.75z M13.5,19.75h-5c-0.276,0-0.5,0.224-0.5,0.5v0.5c0,2.206,1.794,4,4,4h1.5
						c0.276,0,0.5-0.224,0.5-0.5v-4C14,19.973,13.776,19.75,13.5,19.75z M13,23.75h-1c-1.654,0-3-1.346-3-3h4V23.75z"/>
				</g>
			</g>
		</g>
	</g>
	<g>
		<g>
			<g>
				<g>
					<path class="st2" d="M39,17.25h-8c-0.828,0-1.5,0.671-1.5,1.5v7c0,0.829,0.672,1.5,1.5,1.5h3c3.584,0,6.5-2.916,6.5-6.5v-2
						C40.5,17.921,39.828,17.25,39,17.25z M37.5,20.75c0,1.93-1.57,3.5-3.5,3.5h-1.5v-4h5V20.75z"/>
				</g>
			</g>
		</g>
	</g>
	<g>
		<g>
			<g>
				<g>
					<path class="st0" d="M39,16.75h-8c-1.103,0-2,0.897-2,2v7c0,1.103,0.897,2,2,2h3c3.86,0,7-3.14,7-7v-2
						C41,17.646,40.103,16.75,39,16.75z M40,20.75c0,3.309-2.691,6-6,6h-3c-0.551,0-1-0.449-1-1v-7c0-0.551,0.449-1,1-1h8
						c0.551,0,1,0.449,1,1V20.75z M37.5,19.75h-5c-0.276,0-0.5,0.224-0.5,0.5v4c0,0.276,0.224,0.5,0.5,0.5H34c2.206,0,4-1.794,4-4
						v-0.5C38,19.973,37.776,19.75,37.5,19.75z M34,23.75h-1v-3h4C37,22.404,35.654,23.75,34,23.75z"/>
				</g>
			</g>
		</g>
	</g>
	<g>
		<g>
			<path class="st2" d="M24.5,14.25h8v10.5c0,5.247-4.253,9.5-9.5,9.5h0c-5.247,0-9.5-4.253-9.5-9.5v-10.5h2"/>
		</g>
	</g>
	<g>
		<g>
			<path class="st0" d="M32.5,13.75h-8c-0.276,0-0.5,0.224-0.5,0.5s0.224,0.5,0.5,0.5H32v10c0,4.962-4.038,9-9,9s-9-4.038-9-9v-10
				h1.5c0.276,0,0.5-0.224,0.5-0.5s-0.224-0.5-0.5-0.5h-2c-0.276,0-0.5,0.224-0.5,0.5v10.5c0,5.514,4.486,10,10,10s10-4.486,10-10
				v-10.5C33,13.973,32.776,13.75,32.5,13.75z"/>
		</g>
	</g>
	<g>
		<g>
			<g>
				<path class="st0" d="M21.5,13.75h-3c-0.276,0-0.5,0.224-0.5,0.5s0.224,0.5,0.5,0.5h3c0.276,0,0.5-0.224,0.5-0.5
					S21.776,13.75,21.5,13.75z"/>
			</g>
		</g>
	</g>
	<g>
		<g>
			<path class="st2" d="M27.5,44.25h-9c-1.381,0-2.5,1.119-2.5,2.5v1.5h14v-1.5C30,45.369,28.88,44.25,27.5,44.25z"/>
		</g>
	</g>
	<g>
		<g>
			<g>
				<g>
					<path class="st0" d="M27.5,43.75h-9c-1.654,0-3,1.346-3,3v1.5c0,0.276,0.224,0.5,0.5,0.5h14c0.276,0,0.5-0.224,0.5-0.5v-1.5
						C30.5,45.095,29.154,43.75,27.5,43.75z M29.5,47.75h-13v-1c0-1.103,0.897-2,2-2h9c1.103,0,2,0.897,2,2V47.75z"/>
				</g>
			</g>
		</g>
	</g>
	<g>
		<g>
			<path class="st2" d="M32,48.25H14c-1.105,0-2,0.896-2,2c0,1.105,0.895,2,2,2h18c1.105,0,2-0.895,2-2
				C34,49.145,33.104,48.25,32,48.25z"/>
		</g>
	</g>
	<g>
		<g>
			<g>
				<g>
					<path class="st0" d="M32,47.75H14c-1.378,0-2.5,1.122-2.5,2.5s1.122,2.5,2.5,2.5h18c1.378,0,2.5-1.122,2.5-2.5
						S33.378,47.75,32,47.75z M32,51.75H14c-0.827,0-1.5-0.673-1.5-1.5s0.673-1.5,1.5-1.5h18c0.827,0,1.5,0.673,1.5,1.5
						S32.827,51.75,32,51.75z"/>
				</g>
			</g>
		</g>
	</g>
	<g>
		<g>
			<g>
				<g>
					<g>
						<path class="st0" d="M26.062,33.899c-0.019-0.138-0.095-0.262-0.209-0.341c-0.115-0.08-0.258-0.106-0.393-0.079
							c-1.647,0.359-3.273,0.359-4.921,0c-0.136-0.027-0.278-0.001-0.393,0.079s-0.19,0.203-0.209,0.341l-1.433,10.282
							c-0.02,0.143,0.023,0.288,0.118,0.397c0.095,0.109,0.232,0.172,0.377,0.172h8c0.145,0,0.282-0.062,0.377-0.172
							c0.095-0.109,0.138-0.254,0.118-0.397L26.062,33.899z M19.574,43.75l1.281-9.189c1.438,0.252,2.852,0.252,4.29,0l1.28,9.189
							H19.574z"/>
					</g>
				</g>
			</g>
		</g>
	</g>
	<g>
		<g>
			<path class="st3" d="M38,52.25H3v0c2.761,2.761,2.761,7.239,0,10h35c2.761,0,5-2.239,5-5v0C43,54.488,40.761,52.25,38,52.25z"/>
		</g>
	</g>
	<g>
		<g>
			<g>
				<g>
					<path class="st0" d="M38,51.75H3c-0.202,0-0.385,0.122-0.462,0.309c-0.078,0.187-0.035,0.402,0.108,0.545
						c2.562,2.562,2.562,6.731,0,9.293c-0.143,0.143-0.186,0.358-0.108,0.545C2.615,62.628,2.798,62.75,3,62.75h35
						c3.033,0,5.5-2.467,5.5-5.5S41.033,51.75,38,51.75z M38,61.75H4.089c1.971-2.663,1.971-6.336,0-9H38c2.481,0,4.5,2.019,4.5,4.5
						S40.481,61.75,38,61.75z"/>
				</g>
			</g>
		</g>
	</g>
	<g>
		<g>
			<path class="st4" d="M37.5,54.75H4.609c0.607,1.609,0.607,3.391,0,5H37.5c1.381,0,2.5-1.119,2.5-2.5
				C40,55.869,38.881,54.75,37.5,54.75z"/>
		</g>
	</g>
	<g>
		<g>
			<g>
				<g>
					<path class="st0" d="M37.5,54.25H4.609c-0.164,0-0.318,0.081-0.411,0.216c-0.094,0.135-0.115,0.307-0.057,0.461
						c0.565,1.498,0.565,3.148,0,4.646c-0.058,0.154-0.037,0.326,0.057,0.461c0.093,0.135,0.247,0.216,0.411,0.216H37.5
						c1.654,0,3-1.346,3-3S39.154,54.25,37.5,54.25z M37.5,59.25H5.297c0.358-1.31,0.358-2.69,0-4H37.5c1.103,0,2,0.897,2,2
						S38.603,59.25,37.5,59.25z"/>
				</g>
			</g>
		</g>
	</g>
	<g>
		<g>
			<g>
				<path class="st0" d="M35,56.75H5.061c-0.276,0-0.5,0.224-0.5,0.5s0.224,0.5,0.5,0.5H35c0.276,0,0.5-0.224,0.5-0.5
					S35.276,56.75,35,56.75z"/>
			</g>
		</g>
	</g>
	<g>
		<g>
			<path class="st1" d="M62.3,47.631c-2.057-2.743-6.143-2.83-8.314-0.176l-0.231,0.282l-0.231-0.282
				c-2.171-2.654-6.257-2.568-8.314,0.176c-1.219,1.626-1.533,3.758-0.833,5.666l2.174,5.929c1.084,2.956,4.746,3.978,7.204,2.012
				c2.458,1.967,6.121,0.944,7.204-2.012l2.174-5.929C63.833,51.389,63.519,49.257,62.3,47.631z"/>
		</g>
	</g>
	<g>
		<g>
			<g>
				<g>
					<path class="st0" d="M62.7,47.332c-1.074-1.432-2.715-2.274-4.504-2.312c-1.713-0.006-3.313,0.667-4.441,1.937
						c-1.127-1.27-2.755-1.959-4.441-1.937c-1.789,0.038-3.431,0.88-4.504,2.312c-1.326,1.769-1.664,4.063-0.902,6.137l2.174,5.93
						c0.573,1.562,1.82,2.714,3.422,3.161c1.476,0.41,3.004,0.155,4.251-0.7c0.856,0.587,1.845,0.893,2.858,0.893
						c0.462,0,0.931-0.064,1.394-0.193c1.602-0.447,2.849-1.6,3.421-3.161l2.174-5.93C64.363,51.394,64.026,49.099,62.7,47.332z
						 M62.664,53.125l-2.174,5.93c-0.46,1.256-1.463,2.182-2.752,2.542c-1.289,0.361-2.626,0.086-3.67-0.749
						c-0.091-0.073-0.202-0.109-0.312-0.109s-0.221,0.037-0.312,0.109c-1.043,0.836-2.38,1.111-3.67,0.749
						c-1.289-0.359-2.292-1.286-2.752-2.542l-2.174-5.93c-0.644-1.755-0.358-3.697,0.764-5.193c0.888-1.184,2.246-1.88,3.726-1.912
						c1.484-0.028,2.865,0.608,3.802,1.753l0.231,0.282c0.19,0.231,0.583,0.231,0.773,0l0.231-0.282c0,0,0,0,0,0
						c0.937-1.146,2.301-1.781,3.802-1.753c1.479,0.031,2.837,0.728,3.725,1.912C63.022,49.427,63.308,51.369,62.664,53.125z"/>
				</g>
			</g>
		</g>
	</g>
	<g>
		<g>
			<path class="st0" d="M60.3,49.132c-0.53-0.708-1.342-1.113-2.227-1.113c-0.276,0-0.5,0.224-0.5,0.5s0.224,0.5,0.5,0.5
				c0.567,0,1.087,0.26,1.427,0.713c0.51,0.68,0.64,1.562,0.347,2.361c-0.095,0.259,0.038,0.546,0.297,0.641
				c0.057,0.021,0.115,0.031,0.172,0.031c0.204,0,0.395-0.125,0.469-0.328C61.195,51.319,61.014,50.083,60.3,49.132z"/>
		</g>
	</g>
	<g>
		<g>
			<path class="st0" d="M52.644,40.004l-0.536-0.536c-0.195-0.195-0.512-0.195-0.707,0s-0.195,0.512,0,0.707l0.536,0.536
				c0.85,0.85,1.318,1.98,1.318,3.182v0.357c0,0.276,0.224,0.5,0.5,0.5s0.5-0.224,0.5-0.5v-0.357
				C54.255,42.424,53.683,41.042,52.644,40.004z"/>
		</g>
	</g>
	<g>
		<g>
			<g>
				<g>
					<g>
						<path class="st0" d="M59.25,38.726c-0.014-0.254-0.217-0.458-0.471-0.472c-0.104-0.006-2.607-0.125-4.126,1.394
							c-1.52,1.52-1.399,4.021-1.394,4.126c0.014,0.254,0.217,0.458,0.471,0.471c0.016,0.001,0.088,0.004,0.203,0.004
							c0.641,0,2.635-0.109,3.923-1.398C59.376,41.333,59.256,38.832,59.25,38.726z M57.149,42.145
							c-0.851,0.851-2.176,1.05-2.883,1.093c0.043-0.707,0.242-2.032,1.093-2.883s2.177-1.05,2.883-1.093
							C58.2,39.968,58,41.294,57.149,42.145z"/>
					</g>
				</g>
			</g>
		</g>
	</g>
	<g>
		<g>
			<path class="st0" d="M45.5,23.75h-3c-0.276,0-0.5,0.224-0.5,0.5s0.224,0.5,0.5,0.5h3c0.276,0,0.5-0.224,0.5-0.5
				S45.776,23.75,45.5,23.75z"/>
		</g>
	</g>
	<g>
		<g>
			<path class="st0" d="M3.5,23.75h-3c-0.276,0-0.5,0.224-0.5,0.5s0.224,0.5,0.5,0.5h3c0.276,0,0.5-0.224,0.5-0.5
				S3.776,23.75,3.5,23.75z"/>
		</g>
	</g>
	<g>
		<g>
			<path class="st0" d="M39.264,39.806l-2.122-2.122c-0.195-0.195-0.512-0.195-0.707,0s-0.195,0.512,0,0.707l2.122,2.122
				c0.098,0.098,0.226,0.146,0.354,0.146s0.256-0.049,0.354-0.146C39.459,40.318,39.459,40.001,39.264,39.806z"/>
		</g>
	</g>
	<g>
		<g>
			<path class="st0" d="M9.565,10.107L7.444,7.986c-0.195-0.195-0.512-0.195-0.707,0s-0.195,0.512,0,0.707l2.121,2.121
				c0.098,0.098,0.226,0.146,0.354,0.146s0.256-0.049,0.354-0.146C9.76,10.619,9.76,10.303,9.565,10.107z"/>
		</g>
	</g>
	<g>
		<g>
			<path class="st0" d="M9.565,37.685c-0.195-0.195-0.512-0.195-0.707,0l-2.121,2.122c-0.195,0.195-0.195,0.512,0,0.707
				c0.098,0.098,0.226,0.146,0.354,0.146s0.256-0.049,0.354-0.146l2.121-2.122C9.76,38.196,9.76,37.88,9.565,37.685z"/>
		</g>
	</g>
	<g>
		<g>
			<path class="st0" d="M39.264,7.986c-0.195-0.195-0.512-0.195-0.707,0l-2.122,2.121c-0.195,0.195-0.195,0.512,0,0.707
				c0.098,0.098,0.226,0.146,0.354,0.146s0.256-0.049,0.354-0.146l2.122-2.121C39.459,8.498,39.459,8.182,39.264,7.986z"/>
		</g>
	</g>
	<g>
		<g>
			<path class="st0" d="M23,1.25c-0.276,0-0.5,0.224-0.5,0.5v3c0,0.276,0.224,0.5,0.5,0.5s0.5-0.224,0.5-0.5v-3
				C23.5,1.473,23.276,1.25,23,1.25z"/>
		</g>
	</g>
</g>
</svg>
