<?xml version="1.0" encoding="utf-8"?>
<!-- Generator: Adobe Illustrator 21.1.0, SVG Export Plug-In . SVG Version: 6.00 Build 0)  -->
<svg version="1.1" id="Icon_Set" xmlns="http://www.w3.org/2000/svg" xmlns:xlink="http://www.w3.org/1999/xlink" x="0px" y="0px"
	 viewBox="0 0 64 64" style="enable-background:new 0 0 64 64;" xml:space="preserve">
<style type="text/css">
	.st0{fill:#37474F;}
	.st1{fill:#EF5350;}
	.st2{fill:#FFCA28;}
	.st3{fill:#64B5F6;}
	.st4{fill:#FFFFFF;}
	.st5{fill:#FF7043;}
</style>
<g id="Specialization">
	<g>
		<g>
			<path class="st1" d="M16.056,38.324l20.86-20.86c0.976-0.976,2.559-0.976,3.536,0l0.707,0.707c0.976,0.976,0.976,2.559,0,3.536
				L10.399,52.466l-4.243-4.243l3.536-3.536"/>
		</g>
	</g>
	<g>
		<g>
			<path class="st0" d="M41.512,17.818l-0.708-0.707c-1.133-1.134-3.109-1.134-4.242,0L15.703,37.97
				c-0.195,0.195-0.195,0.512,0,0.707s0.512,0.195,0.707,0l20.86-20.859c0.756-0.756,2.072-0.756,2.828,0l0.708,0.707
				c0.779,0.78,0.779,2.049,0,2.829L10.399,51.759l-3.536-3.536l3.182-3.182c0.195-0.195,0.195-0.512,0-0.707s-0.512-0.195-0.707,0
				L5.803,47.87c-0.195,0.195-0.195,0.512,0,0.707l4.243,4.243c0.098,0.098,0.226,0.146,0.354,0.146s0.256-0.049,0.354-0.146
				l30.759-30.759C42.682,20.891,42.682,18.988,41.512,17.818z"/>
		</g>
	</g>
	<g>
		<g>
			<g>
				<line class="st1" x1="11.814" y1="42.567" x2="13.935" y2="40.445"/>
			</g>
		</g>
		<g>
			<g>
				<path class="st0" d="M14.289,40.092c-0.195-0.195-0.512-0.195-0.707,0l-2.122,2.121c-0.195,0.195-0.195,0.512,0,0.707
					c0.098,0.098,0.226,0.146,0.354,0.146s0.256-0.049,0.354-0.146l2.122-2.121C14.484,40.604,14.484,40.287,14.289,40.092z"/>
			</g>
		</g>
	</g>
	<g>
		<g>
			<g>
				<g>
					<g>
						<path class="st0" d="M10.753,52.113L6.51,47.87c-0.195-0.195-0.512-0.195-0.707,0l-3.536,3.535
							c-0.055,0.055-0.096,0.122-0.121,0.195l-2.121,6.364c-0.06,0.18-0.013,0.378,0.121,0.512c0.095,0.095,0.223,0.146,0.354,0.146
							c0.053,0,0.106-0.008,0.158-0.026l6.364-2.122c0.074-0.024,0.141-0.066,0.195-0.121l3.536-3.535
							c0.094-0.094,0.146-0.221,0.146-0.354S10.847,52.207,10.753,52.113z M6.594,55.564l-5.303,1.768l1.768-5.304l3.099-3.098
							l3.536,3.536L6.594,55.564z"/>
					</g>
				</g>
			</g>
		</g>
	</g>
	<g>
		<g>
			<g>
				<g>
					<g>
						<path class="st0" d="M5.096,56.355l-2.829-2.828c-0.122-0.122-0.299-0.172-0.468-0.133c-0.169,0.04-0.305,0.165-0.359,0.329
							l-1.414,4.243c-0.06,0.18-0.013,0.378,0.121,0.512c0.095,0.095,0.223,0.146,0.354,0.146c0.053,0,0.106-0.008,0.158-0.026
							l4.243-1.415c0.165-0.055,0.289-0.19,0.329-0.359C5.269,56.655,5.219,56.478,5.096,56.355z M1.291,57.333l0.842-2.526
							l1.684,1.684L1.291,57.333z"/>
					</g>
				</g>
			</g>
		</g>
	</g>
	<g>
		<g>
			<polyline class="st3" points="63.5,53.648 53.196,53.648 53.196,29.648 63.5,29.648 			"/>
		</g>
	</g>
	<g>
		<g>
			<path class="st0" d="M63.5,53.148h-9.804v-23H63.5c0.276,0,0.5-0.224,0.5-0.5s-0.224-0.5-0.5-0.5H53.196
				c-0.276,0-0.5,0.224-0.5,0.5v24c0,0.276,0.224,0.5,0.5,0.5H63.5c0.276,0,0.5-0.224,0.5-0.5S63.776,53.148,63.5,53.148z"/>
		</g>
	</g>
	<g>
		<g>
			<path class="st0" d="M32.825,63h-17.67l7.875-3.544c0.215-0.097,0.333-0.331,0.284-0.561c-0.049-0.23-0.253-0.395-0.489-0.395
				H6.067c-0.276,0-0.5,0.224-0.5,0.5s0.224,0.5,0.5,0.5h14.428l-7.875,3.544c-0.215,0.097-0.333,0.331-0.284,0.561
				S12.589,64,12.825,64h20c0.276,0,0.5-0.224,0.5-0.5S33.101,63,32.825,63z"/>
		</g>
	</g>
	<g>
		<g>
			<path class="st3" d="M50.696,29.648h-3c-1.381,0-2.5,1.119-2.5,2.5v19c0,1.381,1.119,2.5,2.5,2.5h3c1.381,0,2.5-1.119,2.5-2.5
				v-19C53.196,30.767,52.077,29.648,50.696,29.648z"/>
		</g>
	</g>
	<g>
		<g>
			<g>
				<g>
					<path class="st0" d="M50.696,29.148h-3c-1.654,0-3,1.346-3,3v19c0,1.654,1.346,3,3,3h3c1.654,0,3-1.346,3-3v-19
						C53.696,30.494,52.35,29.148,50.696,29.148z M52.696,51.148c0,1.103-0.897,2-2,2h-3c-1.103,0-2-0.897-2-2v-19
						c0-1.103,0.897-2,2-2h3c1.103,0,2,0.897,2,2V51.148z"/>
				</g>
			</g>
		</g>
	</g>
	<g>
		<g>
			<path class="st0" d="M24.895,37.97l-4.243-4.243c-0.195-0.195-0.512-0.195-0.707,0s-0.195,0.512,0,0.707l4.243,4.243
				c0.098,0.098,0.226,0.146,0.354,0.146s0.256-0.049,0.354-0.146C25.09,38.482,25.09,38.166,24.895,37.97z"/>
		</g>
	</g>
	<g>
		<g>
			<g>
				<g>
					<g>
						<path class="st0" d="M35.148,19.232l-1.061-1.061c-0.567-0.567-1.555-0.566-2.121,0l-8.485,8.485
							c-0.585,0.585-0.585,1.536,0,2.121l1.061,1.061c0.098,0.098,0.226,0.146,0.354,0.146s0.256-0.049,0.354-0.146l9.899-9.899
							C35.343,19.744,35.343,19.427,35.148,19.232z M24.895,28.778l-0.707-0.707c-0.195-0.195-0.195-0.512,0-0.707l8.485-8.485
							c0,0,0,0,0,0c0.094-0.095,0.219-0.146,0.353-0.146c0.133,0,0.259,0.052,0.354,0.146l0.707,0.707L24.895,28.778z"/>
					</g>
				</g>
			</g>
		</g>
	</g>
	<g>
		<g>
			<path class="st0" d="M43.414,31.173l-6.151-2.974c-0.249-0.119-0.547-0.015-0.668,0.232c-0.12,0.249-0.016,0.548,0.232,0.668
				l6.151,2.974c0.07,0.034,0.145,0.05,0.217,0.05c0.186,0,0.364-0.104,0.451-0.282C43.766,31.592,43.662,31.293,43.414,31.173z"/>
		</g>
	</g>
	<g>
		<g>
			<path class="st0" d="M43.6,47.397c-0.162-0.223-0.475-0.272-0.698-0.11l-2.93,2.131c-2.495,1.814-5.443,2.773-8.528,2.773H16.321
				c-0.564,0-1.104-0.24-1.483-0.658c-0.384-0.424-0.564-0.975-0.506-1.549c0.101-1.005,1.037-1.792,2.132-1.792h6.357
				c3.033,0,5.5-2.467,5.5-5.5v-4.818c0-0.276-0.224-0.5-0.5-0.5s-0.5,0.224-0.5,0.5v4.818c0,2.481-2.019,4.5-4.5,4.5h-6.357
				c-1.603,0-2.976,1.183-3.127,2.693c-0.084,0.847,0.192,1.693,0.76,2.32c0.568,0.627,1.379,0.987,2.225,0.987h15.123
				c3.298,0,6.45-1.025,9.116-2.965l2.93-2.131C43.713,47.933,43.763,47.62,43.6,47.397z"/>
		</g>
	</g>
	<g>
		<g>
			<path class="st0" d="M22.072,27.133c-0.075-0.266-0.354-0.418-0.617-0.346l-7.972,2.242c-1.383,0.389-2.542,1.287-3.265,2.529
				L3.545,43.032C2.74,44.416,3.071,46.197,4.3,47.087c0.52,0.376,1.142,0.575,1.771,0.575c0.206,0,0.413-0.021,0.617-0.064
				c0.828-0.175,1.547-0.695,1.972-1.427l6.64-11.416l2.844-0.738c0.268-0.069,0.428-0.342,0.358-0.609
				c-0.069-0.268-0.344-0.429-0.609-0.358l-3.046,0.79c-0.129,0.033-0.24,0.117-0.307,0.232L7.796,45.668
				c-0.284,0.488-0.763,0.834-1.315,0.951c-0.561,0.119-1.127-0.003-1.595-0.342c-0.818-0.592-1.027-1.797-0.477-2.743l6.674-11.474
				c0.591-1.017,1.54-1.751,2.671-2.069l7.972-2.242C21.992,27.675,22.147,27.398,22.072,27.133z"/>
		</g>
	</g>
	<g>
		<g>
			<path class="st2" d="M15.004,10.234c0.568-0.583,0.24-1.564-0.565-1.687l-1.695-0.259c-0.33-0.05-0.613-0.262-0.754-0.564
				l-0.722-1.538c-0.36-0.767-1.451-0.767-1.81,0L8.736,7.725C8.594,8.027,8.311,8.238,7.981,8.289L6.287,8.547
				C5.482,8.67,5.154,9.652,5.722,10.234l1.288,1.321c0.222,0.227,0.322,0.546,0.271,0.859l-0.295,1.811
				c-0.134,0.824,0.74,1.44,1.471,1.036l1.422-0.786c0.301-0.167,0.667-0.167,0.968,0l1.422,0.786
				c0.731,0.404,1.605-0.212,1.471-1.036l-0.295-1.811c-0.051-0.313,0.05-0.632,0.271-0.859L15.004,10.234z"/>
		</g>
	</g>
	<g>
		<g>
			<g>
				<g>
					<path class="st0" d="M15.362,10.583c0.395-0.404,0.528-0.988,0.349-1.523s-0.637-0.921-1.195-1.007L12.82,7.794
						c-0.165-0.025-0.306-0.131-0.377-0.282l-0.722-1.539c-0.25-0.532-0.77-0.863-1.357-0.863c-0.588,0-1.108,0.331-1.358,0.863
						L8.284,7.512C8.212,7.664,8.071,7.769,7.906,7.794L6.211,8.053C5.653,8.139,5.195,8.524,5.016,9.06s-0.046,1.119,0.349,1.523
						l1.289,1.32c0.11,0.113,0.161,0.274,0.135,0.43l-0.295,1.811c-0.093,0.572,0.144,1.135,0.617,1.468
						c0.26,0.183,0.56,0.275,0.862,0.275c0.249,0,0.498-0.062,0.727-0.189l1.423-0.786c0.151-0.084,0.331-0.084,0.483,0l1.422,0.786
						c0.506,0.28,1.115,0.248,1.589-0.086c0.474-0.333,0.71-0.896,0.617-1.468l-0.295-1.812c-0.026-0.155,0.025-0.316,0.135-0.429
						L15.362,10.583z M13.357,11.206c-0.331,0.34-0.483,0.822-0.407,1.289l0.295,1.811c0.032,0.193-0.045,0.376-0.206,0.49
						c-0.161,0.113-0.359,0.124-0.53,0.029l-1.422-0.786c-0.455-0.251-0.997-0.252-1.451,0l-1.422,0.786
						c-0.171,0.094-0.369,0.084-0.53-0.029c-0.16-0.113-0.237-0.296-0.206-0.49l0.295-1.811c0.076-0.468-0.076-0.95-0.407-1.29
						L6.08,9.885C5.947,9.749,5.903,9.559,5.964,9.377C6.024,9.196,6.173,9.07,6.362,9.042l1.694-0.259
						c0.495-0.075,0.918-0.391,1.132-0.845l0.722-1.539c0.125-0.267,0.378-0.288,0.453-0.288c0.074,0,0.327,0.021,0.452,0.288
						l0.723,1.539c0.213,0.454,0.636,0.77,1.131,0.845l1.695,0.259c0.189,0.029,0.338,0.154,0.398,0.336
						c0.061,0.181,0.017,0.371-0.116,0.508L13.357,11.206z"/>
				</g>
			</g>
		</g>
	</g>
	<g>
		<g>
			<g>
				<g>
					<g>
						<path class="st0" d="M10.5,0C4.71,0,0,4.71,0,10.5S4.71,21,10.5,21S21,16.29,21,10.5S16.29,0,10.5,0z M10.5,20
							C5.262,20,1,15.738,1,10.5S5.262,1,10.5,1S20,5.262,20,10.5S15.738,20,10.5,20z"/>
					</g>
				</g>
			</g>
		</g>
	</g>
</g>
</svg>
