<?xml version="1.0" encoding="utf-8"?>
<!-- Generator: Adobe Illustrator 21.1.0, SVG Export Plug-In . SVG Version: 6.00 Build 0)  -->
<svg version="1.1" id="Icon_Set" xmlns="http://www.w3.org/2000/svg" xmlns:xlink="http://www.w3.org/1999/xlink" x="0px" y="0px"
	 viewBox="0 0 64 64" style="enable-background:new 0 0 64 64;" xml:space="preserve">
<style type="text/css">
	.st0{fill:#37474F;}
	.st1{fill:#EF5350;}
	.st2{fill:#FFCA28;}
	.st3{fill:#64B5F6;}
	.st4{fill:#FFFFFF;}
	.st5{fill:#FF7043;}
</style>
<g id="Sports">
	<g>
		<g>
			<circle class="st2" cx="32" cy="29.5" r="15"/>
		</g>
	</g>
	<g>
		<g>
			<g>
				<g>
					<path class="st0" d="M32,14c-8.547,0-15.5,6.953-15.5,15.5S23.453,45,32,45s15.5-6.953,15.5-15.5S40.547,14,32,14z M32,44
						c-7.995,0-14.5-6.505-14.5-14.5S24.005,15,32,15s14.5,6.505,14.5,14.5S39.995,44,32,44z"/>
				</g>
			</g>
		</g>
	</g>
	<g>
		<g>
			<g>
				<g>
					<g>
						<path class="st0" d="M42.045,17.708C39.241,15.317,35.674,14,32,14s-7.241,1.317-10.045,3.708
							c-0.184,0.156-0.229,0.422-0.109,0.63c1.837,3.179,5.823,5.233,10.154,5.233c4.331,0,8.316-2.054,10.153-5.233
							C42.274,18.13,42.229,17.864,42.045,17.708z M32,22.571c-3.813,0-7.318-1.705-9.067-4.375C25.503,16.132,28.706,15,32,15
							s6.497,1.132,9.067,3.196C39.318,20.867,35.812,22.571,32,22.571z"/>
					</g>
				</g>
			</g>
		</g>
	</g>
	<g>
		<g>
			<g>
				<g>
					<g>
						<path class="st0" d="M42.153,40.662c-1.837-3.179-5.822-5.233-10.153-5.233c-4.331,0-8.316,2.054-10.154,5.233
							c-0.121,0.208-0.075,0.474,0.109,0.63C24.759,43.683,28.326,45,32,45s7.241-1.317,10.045-3.708
							C42.229,41.136,42.274,40.87,42.153,40.662z M32,44c-3.294,0-6.497-1.132-9.067-3.196c1.749-2.67,5.254-4.375,9.067-4.375
							c3.812,0,7.318,1.705,9.067,4.375C38.497,42.868,35.294,44,32,44z"/>
					</g>
				</g>
			</g>
		</g>
	</g>
	<g>
		<g>
			<path class="st0" d="M32,14c-0.276,0-0.5,0.224-0.5,0.5v30c0,0.276,0.224,0.5,0.5,0.5s0.5-0.224,0.5-0.5v-30
				C32.5,14.224,32.276,14,32,14z"/>
		</g>
	</g>
	<g>
		<g>
			<path class="st0" d="M47,29H17c-0.276,0-0.5,0.224-0.5,0.5S16.724,30,17,30h30c0.276,0,0.5-0.224,0.5-0.5S47.276,29,47,29z"/>
		</g>
	</g>
	<g>
		<g>
			<path class="st0" d="M48.411,35.715C48.317,35.58,48.164,35.5,48,35.5H16c-0.164,0-0.317,0.08-0.411,0.215
				c-0.093,0.134-0.115,0.306-0.058,0.459l4.997,13.416V63.5c0,0.276,0.224,0.5,0.5,0.5s0.5-0.224,0.5-0.5v-14
				c0-0.06-0.011-0.119-0.031-0.174L16.72,36.5H47.28l-4.777,12.826c-0.021,0.056-0.031,0.115-0.031,0.174v14
				c0,0.276,0.224,0.5,0.5,0.5s0.5-0.224,0.5-0.5V49.59l4.997-13.416C48.525,36.021,48.504,35.849,48.411,35.715z"/>
		</g>
	</g>
	<g>
		<g>
			<path class="st0" d="M32.309,49.106c-0.218-0.17-0.532-0.132-0.702,0.085l-10.972,14c-0.17,0.217-0.132,0.532,0.085,0.702
				C20.812,63.965,20.92,64,21.028,64c0.148,0,0.295-0.066,0.394-0.191l10.972-14C32.564,49.591,32.526,49.277,32.309,49.106z"/>
		</g>
	</g>
	<g>
		<g>
			<path class="st0" d="M43.365,63.191l-10.972-14c-0.17-0.217-0.484-0.255-0.702-0.085c-0.217,0.17-0.255,0.485-0.085,0.702
				l10.972,14C42.677,63.934,42.823,64,42.972,64c0.108,0,0.217-0.035,0.309-0.106C43.497,63.723,43.535,63.409,43.365,63.191z"/>
		</g>
	</g>
	<g>
		<g>
			<g>
				<g>
					<g>
						<path class="st0" d="M43.44,49.327l-4.972-13.5c-0.07-0.191-0.249-0.32-0.452-0.327c-0.212-0.019-0.392,0.11-0.474,0.296
							L32,48.269l-5.543-12.472c-0.083-0.187-0.278-0.328-0.473-0.296c-0.204,0.006-0.383,0.136-0.453,0.327l-4.972,13.5
							c-0.06,0.163-0.031,0.345,0.076,0.481l10.972,14C31.701,63.929,31.846,64,32,64s0.299-0.071,0.394-0.191l10.972-14
							C43.472,49.672,43.501,49.49,43.44,49.327z M32,62.689L21.594,49.411l4.45-12.082l5.5,12.374c0.161,0.361,0.753,0.361,0.914,0
							l5.5-12.374l4.449,12.082L32,62.689z"/>
					</g>
				</g>
			</g>
		</g>
	</g>
	<g>
		<g>
			<path class="st3" d="M61,0.5h-7.5v49H61c1.381,0,2.5-1.119,2.5-2.5V3C63.5,1.619,62.381,0.5,61,0.5z"/>
		</g>
	</g>
	<g>
		<g>
			<g>
				<g>
					<path class="st0" d="M61,0h-7.5C53.224,0,53,0.224,53,0.5v49c0,0.276,0.224,0.5,0.5,0.5H61c1.654,0,3-1.346,3-3V3
						C64,1.346,62.654,0,61,0z M63,47c0,1.103-0.897,2-2,2h-7V1h7c1.103,0,2,0.897,2,2V47z"/>
				</g>
			</g>
		</g>
	</g>
	<g>
		<g>
			<path class="st1" d="M37,4.5H27c-0.552,0-1,0.448-1,1v3c0,0.552,0.448,1,1,1h10c0.552,0,1-0.448,1-1v-3
				C38,4.948,37.552,4.5,37,4.5z"/>
		</g>
	</g>
	<g>
		<g>
			<g>
				<g>
					<path class="st0" d="M37,4H27c-0.827,0-1.5,0.673-1.5,1.5v3c0,0.827,0.673,1.5,1.5,1.5h10c0.827,0,1.5-0.673,1.5-1.5v-3
						C38.5,4.673,37.827,4,37,4z M37.5,8.5C37.5,8.776,37.275,9,37,9H27c-0.276,0-0.5-0.224-0.5-0.5v-3C26.5,5.224,26.724,5,27,5h10
						c0.275,0,0.5,0.224,0.5,0.5V8.5z"/>
				</g>
			</g>
		</g>
	</g>
	<g>
		<g>
			<g>
				<g>
					<g>
						<path class="st0" d="M53.5,0h-43C10.224,0,10,0.224,10,0.5v49c0,0.276,0.224,0.5,0.5,0.5h43c0.276,0,0.5-0.224,0.5-0.5v-49
							C54,0.224,53.776,0,53.5,0z M53,49H11V1h42V49z"/>
					</g>
				</g>
			</g>
		</g>
	</g>
	<g>
		<g>
			<path class="st3" d="M0.5,6V3c0-1.381,1.119-2.5,2.5-2.5h7.5v49H3c-1.381,0-2.5-1.119-2.5-2.5V15"/>
		</g>
	</g>
	<g>
		<g>
			<path class="st0" d="M10.5,0H3C1.346,0,0,1.346,0,3v3c0,0.276,0.224,0.5,0.5,0.5S1,6.276,1,6V3c0-1.103,0.897-2,2-2h7v48H3
				c-1.103,0-2-0.897-2-2V15c0-0.276-0.224-0.5-0.5-0.5S0,14.724,0,15v32c0,1.654,1.346,3,3,3h7.5c0.276,0,0.5-0.224,0.5-0.5v-49
				C11,0.224,10.776,0,10.5,0z"/>
		</g>
	</g>
	<g>
		<g>
			<g>
				<path class="st0" d="M0.5,8.5C0.224,8.5,0,8.724,0,9v3c0,0.276,0.224,0.5,0.5,0.5S1,12.276,1,12V9C1,8.724,0.776,8.5,0.5,8.5z"
					/>
			</g>
		</g>
	</g>
</g>
</svg>
