<?xml version="1.0" encoding="utf-8"?>
<!-- Generator: Adobe Illustrator 21.1.0, SVG Export Plug-In . SVG Version: 6.00 Build 0)  -->
<svg version="1.1" id="Icon_Set" xmlns="http://www.w3.org/2000/svg" xmlns:xlink="http://www.w3.org/1999/xlink" x="0px" y="0px"
	 viewBox="0 0 64 64" style="enable-background:new 0 0 64 64;" xml:space="preserve">
<style type="text/css">
	.st0{fill:#37474F;}
	.st1{fill:#EF5350;}
	.st2{fill:#FFCA28;}
	.st3{fill:#64B5F6;}
	.st4{fill:#FFFFFF;}
	.st5{fill:#FF7043;}
</style>
<g id="Student_Notes">
	<g>
		<g>
			<path class="st0" d="M44,1.5c-4.411,0-8,3.589-8,8s3.589,8,8,8c0.276,0,0.5-0.224,0.5-0.5s-0.224-0.5-0.5-0.5
				c-3.859,0-7-3.14-7-7s3.141-7,7-7s7,3.14,7,7c0,0.276,0.224,0.5,0.5,0.5S52,9.776,52,9.5C52,5.089,48.411,1.5,44,1.5z"/>
		</g>
	</g>
	<g>
		<g>
			<path class="st0" d="M44,5.5c-2.206,0-4,1.794-4,4s1.794,4,4,4c0.276,0,0.5-0.224,0.5-0.5s-0.224-0.5-0.5-0.5
				c-1.654,0-3-1.346-3-3s1.346-3,3-3s3,1.346,3,3c0,0.276,0.224,0.5,0.5,0.5S48,9.776,48,9.5C48,7.294,46.206,5.5,44,5.5z"/>
		</g>
	</g>
	<g>
		<g>
			<path class="st0" d="M51.5,9C51.224,9,51,9.224,51,9.5V51c0,0.276-0.225,0.5-0.5,0.5h-1c-0.276,0-0.5,0.224-0.5,0.5
				s0.224,0.5,0.5,0.5h1c0.827,0,1.5-0.673,1.5-1.5V9.5C52,9.224,51.776,9,51.5,9z"/>
		</g>
	</g>
	<g>
		<g>
			<path class="st0" d="M47.5,9C47.224,9,47,9.224,47,9.5v50c0,1.103-0.897,2-2,2H8c-1.103,0-2-0.897-2-2V19
				c0-0.276-0.224-0.5-0.5-0.5S5,18.724,5,19v40.5c0,1.654,1.346,3,3,3h37c1.654,0,3-1.346,3-3v-50C48,9.224,47.776,9,47.5,9z"/>
		</g>
	</g>
	<g>
		<g>
			<path class="st3" d="M61,5h-1c-1.381,0-2.5,1.119-2.5,2.5V51h6V7.5C63.5,6.119,62.381,5,61,5z"/>
		</g>
	</g>
	<g>
		<g>
			<g>
				<g>
					<path class="st0" d="M61,4.5h-1c-1.654,0-3,1.346-3,3V51c0,0.276,0.224,0.5,0.5,0.5h6c0.276,0,0.5-0.224,0.5-0.5V7.5
						C64,5.846,62.654,4.5,61,4.5z M63,50.5h-5v-43c0-1.103,0.897-2,2-2h1c1.103,0,2,0.897,2,2V50.5z"/>
				</g>
			</g>
		</g>
	</g>
	<g>
		<g>
			<g>
				<g>
					<g>
						<path class="st0" d="M63.5,50.5h-6c-0.276,0-0.5,0.224-0.5,0.5v5c0,0.078,0.019,0.154,0.053,0.224l3,6
							c0.085,0.169,0.258,0.276,0.447,0.276s0.362-0.107,0.447-0.276l3-6C63.981,56.154,64,56.078,64,56v-5
							C64,50.724,63.776,50.5,63.5,50.5z M63,55.882l-2.5,5l-2.5-5V51.5h5V55.882z"/>
					</g>
				</g>
			</g>
		</g>
	</g>
	<g>
		<g>
			<g>
				<g>
					<g>
						<path class="st0" d="M62.926,57.737C62.834,57.59,62.673,57.5,62.5,57.5h-4c-0.173,0-0.334,0.09-0.426,0.237
							c-0.091,0.147-0.099,0.332-0.021,0.486l2,4c0.085,0.169,0.258,0.276,0.447,0.276s0.362-0.107,0.447-0.276l2-4
							C63.024,58.069,63.017,57.885,62.926,57.737z M60.5,60.882L59.309,58.5h2.383L60.5,60.882z"/>
					</g>
				</g>
			</g>
		</g>
	</g>
	<g>
		<g>
			<g>
				<g>
					<g>
						<path class="st0" d="M57.5,10H56c-0.827,0-1.5,0.673-1.5,1.5v12c0,0.827,0.673,1.5,1.5,1.5h1.5c0.276,0,0.5-0.224,0.5-0.5v-14
							C58,10.224,57.776,10,57.5,10z M57,24h-1c-0.275,0-0.5-0.224-0.5-0.5v-12c0-0.276,0.225-0.5,0.5-0.5h1V24z"/>
					</g>
				</g>
			</g>
		</g>
	</g>
	<g>
		<g>
			<path class="st1" d="M34.5,24h-16c-0.552,0-1,0.448-1,1v2c0,0.552,0.448,1,1,1h16c0.552,0,1-0.448,1-1v-2
				C35.5,24.448,35.052,24,34.5,24z"/>
		</g>
	</g>
	<g>
		<g>
			<g>
				<g>
					<path class="st0" d="M34.5,23.5h-16c-0.827,0-1.5,0.673-1.5,1.5v2c0,0.827,0.673,1.5,1.5,1.5h16c0.827,0,1.5-0.673,1.5-1.5v-2
						C36,24.173,35.327,23.5,34.5,23.5z M35,27c0,0.276-0.225,0.5-0.5,0.5h-16c-0.275,0-0.5-0.224-0.5-0.5v-2
						c0-0.276,0.225-0.5,0.5-0.5h16c0.275,0,0.5,0.224,0.5,0.5V27z"/>
				</g>
			</g>
		</g>
	</g>
	<g>
		<g>
			<g>
				<path class="st0" d="M41.5,32.5h-30c-0.276,0-0.5,0.224-0.5,0.5s0.224,0.5,0.5,0.5h30c0.276,0,0.5-0.224,0.5-0.5
					S41.776,32.5,41.5,32.5z"/>
			</g>
		</g>
	</g>
	<g>
		<g>
			<g>
				<path class="st0" d="M41.5,37.5h-30c-0.276,0-0.5,0.224-0.5,0.5s0.224,0.5,0.5,0.5h30c0.276,0,0.5-0.224,0.5-0.5
					S41.776,37.5,41.5,37.5z"/>
			</g>
		</g>
	</g>
	<g>
		<g>
			<g>
				<path class="st0" d="M41.5,42.5h-30c-0.276,0-0.5,0.224-0.5,0.5s0.224,0.5,0.5,0.5h30c0.276,0,0.5-0.224,0.5-0.5
					S41.776,42.5,41.5,42.5z"/>
			</g>
		</g>
	</g>
	<g>
		<g>
			<g>
				<path class="st0" d="M41.5,47.5h-30c-0.276,0-0.5,0.224-0.5,0.5s0.224,0.5,0.5,0.5h30c0.276,0,0.5-0.224,0.5-0.5
					S41.776,47.5,41.5,47.5z"/>
			</g>
		</g>
	</g>
	<g>
		<g>
			<path class="st2" d="M11,2H8C3.858,2,0.5,5.358,0.5,9.5S3.858,17,8,17h36c-4.142,0-7.5-3.358-7.5-7.5S39.858,2,44,2H20"/>
		</g>
	</g>
	<g>
		<g>
			<path class="st0" d="M44,16.5c-3.859,0-7-3.14-7-7s3.141-7,7-7c0.276,0,0.5-0.224,0.5-0.5S44.276,1.5,44,1.5H20
				c-0.276,0-0.5,0.224-0.5,0.5s0.224,0.5,0.5,0.5h20.13C37.669,3.866,36,6.492,36,9.5s1.669,5.634,4.13,7H8c-3.859,0-7-3.14-7-7
				s3.141-7,7-7h3c0.276,0,0.5-0.224,0.5-0.5S11.276,1.5,11,1.5H8c-4.411,0-8,3.589-8,8s3.589,8,8,8h36c0.276,0,0.5-0.224,0.5-0.5
				S44.276,16.5,44,16.5z"/>
		</g>
	</g>
	<g>
		<g>
			<g>
				<path class="st0" d="M17,1.5h-3c-0.276,0-0.5,0.224-0.5,0.5s0.224,0.5,0.5,0.5h3c0.276,0,0.5-0.224,0.5-0.5S17.276,1.5,17,1.5z"
					/>
			</g>
		</g>
	</g>
	<g>
		<g>
			<path class="st0" d="M63.5,30.5h-6c-0.276,0-0.5,0.224-0.5,0.5s0.224,0.5,0.5,0.5h6c0.276,0,0.5-0.224,0.5-0.5
				S63.776,30.5,63.5,30.5z"/>
		</g>
	</g>
</g>
</svg>
