<?xml version="1.0" encoding="utf-8"?>
<!-- Generator: Adobe Illustrator 21.1.0, SVG Export Plug-In . SVG Version: 6.00 Build 0)  -->
<svg version="1.1" id="Icon_Set" xmlns="http://www.w3.org/2000/svg" xmlns:xlink="http://www.w3.org/1999/xlink" x="0px" y="0px"
	 viewBox="0 0 64 64" style="enable-background:new 0 0 64 64;" xml:space="preserve">
<style type="text/css">
	.st0{fill:#37474F;}
	.st1{fill:#EF5350;}
	.st2{fill:#FFCA28;}
	.st3{fill:#64B5F6;}
	.st4{fill:#FFFFFF;}
	.st5{fill:#FF7043;}
</style>
<g id="Student_Male">
	<g>
		<g>
			<path class="st2" d="M28,33l-11.996,4.234C13.005,38.292,11,41.126,11,44.306V56.5h7v-16c0-0.643,0.309-1.247,0.831-1.623
				c0.521-0.376,1.19-0.479,1.802-0.275L32,42L28,33z"/>
		</g>
	</g>
	<g>
		<g>
			<path class="st2" d="M47.996,37.234L36,33l-4,9l11.367-3.397c0.609-0.204,1.279-0.102,1.802,0.275
				C45.691,39.253,46,39.857,46,40.5v16h7V44.306C53,41.126,50.995,38.292,47.996,37.234z"/>
		</g>
	</g>
	<g>
		<g>
			<circle class="st0" cx="35.5" cy="18.5" r="1"/>
		</g>
	</g>
	<g>
		<g>
			<circle class="st0" cx="28.5" cy="18.5" r="1"/>
		</g>
	</g>
	<g>
		<g>
			<g>
				<g>
					<g>
						<path class="st0" d="M36.282,29.827c-0.137-0.093-0.309-0.114-0.465-0.052c-2.459,0.963-5.176,0.963-7.635,0
							c-0.153-0.062-0.328-0.042-0.464,0.052C27.582,29.92,27.5,30.075,27.5,30.24V33c0,0.07,0.015,0.139,0.043,0.203l4,9
							C31.624,42.384,31.802,42.5,32,42.5s0.376-0.116,0.457-0.297l4-9C36.485,33.139,36.5,33.07,36.5,33v-2.76
							C36.5,30.075,36.418,29.92,36.282,29.827z M35.5,32.894L32,40.769l-3.5-7.875v-1.945c2.272,0.732,4.727,0.732,7,0V32.894z"/>
					</g>
				</g>
			</g>
		</g>
	</g>
	<g>
		<g>
			<polyline class="st3" points="43,2.5 43,12.5 21,12.5 21,2.5 			"/>
		</g>
	</g>
	<g>
		<g>
			<path class="st0" d="M43,2c-0.276,0-0.5,0.224-0.5,0.5V12h-21V2.5C21.5,2.224,21.276,2,21,2s-0.5,0.224-0.5,0.5v10
				c0,0.276,0.224,0.5,0.5,0.5h22c0.276,0,0.5-0.224,0.5-0.5v-10C43.5,2.224,43.276,2,43,2z"/>
		</g>
	</g>
	<g>
		<g>
			<path class="st3" d="M29,0.5h18.5c0.552,0,1,0.448,1,1v0c0,0.552-0.448,1-1,1h-31c-0.552,0-1-0.448-1-1v0c0-0.552,0.448-1,1-1H20
				"/>
		</g>
	</g>
	<g>
		<g>
			<path class="st0" d="M47.5,0H29c-0.276,0-0.5,0.224-0.5,0.5S28.724,1,29,1h18.5C47.775,1,48,1.224,48,1.5S47.775,2,47.5,2h-31
				C16.224,2,16,1.776,16,1.5S16.224,1,16.5,1H20c0.276,0,0.5-0.224,0.5-0.5S20.276,0,20,0h-3.5C15.673,0,15,0.673,15,1.5
				S15.673,3,16.5,3h31C48.327,3,49,2.327,49,1.5S48.327,0,47.5,0z"/>
		</g>
	</g>
	<g>
		<g>
			<g>
				<path class="st0" d="M26,0h-3c-0.276,0-0.5,0.224-0.5,0.5S22.724,1,23,1h3c0.276,0,0.5-0.224,0.5-0.5S26.276,0,26,0z"/>
			</g>
		</g>
	</g>
	<g>
		<g>
			<g>
				<path class="st0" d="M17,2c-0.276,0-0.5,0.224-0.5,0.5v12c0,0.276,0.224,0.5,0.5,0.5s0.5-0.224,0.5-0.5v-12
					C17.5,2.224,17.276,2,17,2z"/>
			</g>
		</g>
	</g>
	<g>
		<g>
			<path class="st0" d="M43,17c-0.276,0-0.5,0.224-0.5,0.5S42.724,18,43,18c1.103,0,2,0.897,2,2s-0.897,2-2,2
				c-0.048,0-0.095-0.008-0.231-0.026c-0.261-0.032-0.488,0.137-0.545,0.385C41.122,27.152,36.918,30.5,32,30.5
				s-9.122-3.348-10.224-8.141c-0.058-0.252-0.373-0.41-0.635-0.373C21.095,21.992,21.048,22,21,22c-1.103,0-2-0.897-2-2
				s0.897-2,2-2c0.276,0,0.5-0.224,0.5-0.5S21.276,17,21,17c-1.654,0-3,1.346-3,3c0,1.623,1.295,2.948,2.905,2.999
				C22.254,28.026,26.757,31.5,32,31.5c5.244,0,9.746-3.474,11.095-8.501C44.705,22.948,46,21.623,46,20C46,18.346,44.654,17,43,17z
				"/>
		</g>
	</g>
	<g>
		<g>
			<path class="st0" d="M24,14c-0.276,0-0.5,0.224-0.5,0.5v3c0,1.103-0.897,2-2,2v-5c0-0.276-0.224-0.5-0.5-0.5s-0.5,0.224-0.5,0.5
				V20c0,0.276,0.224,0.5,0.5,0.5h0.5c1.654,0,3-1.346,3-3v-3C24.5,14.224,24.276,14,24,14z"/>
		</g>
	</g>
	<g>
		<g>
			<path class="st0" d="M43,14c-0.276,0-0.5,0.224-0.5,0.5v5c-1.103,0-2-0.897-2-2v-3c0-0.276-0.224-0.5-0.5-0.5s-0.5,0.224-0.5,0.5
				v3c0,1.654,1.346,3,3,3H43c0.276,0,0.5-0.224,0.5-0.5v-5.5C43.5,14.224,43.276,14,43,14z"/>
		</g>
	</g>
	<g>
		<g>
			<g>
				<g>
					<g>
						<path class="st0" d="M44.292,40.094c-0.131-0.094-0.297-0.122-0.45-0.068L32,43.973l-11.842-3.947
							c-0.154-0.053-0.32-0.026-0.451,0.068c-0.13,0.094-0.208,0.245-0.208,0.406v19c0,0.215,0.138,0.406,0.342,0.474l12,4
							C31.893,63.991,31.947,64,32,64s0.107-0.009,0.158-0.026l12-4c0.204-0.068,0.342-0.259,0.342-0.474v-19
							C44.5,40.339,44.423,40.188,44.292,40.094z M43.5,59.14L32,62.973L20.5,59.14V41.194l11.342,3.78
							c0.103,0.034,0.214,0.034,0.316,0l11.342-3.78V59.14z"/>
					</g>
				</g>
			</g>
		</g>
	</g>
	<g>
		<g>
			<path class="st0" d="M48.162,36.762l-11.996-4.234c-0.256-0.088-0.546,0.045-0.638,0.305s0.045,0.546,0.306,0.638l11.996,4.234
				c2.793,0.985,4.67,3.638,4.67,6.601V56.5c0,0.276,0.224,0.5,0.5,0.5s0.5-0.224,0.5-0.5V44.306
				C53.5,40.92,51.355,37.889,48.162,36.762z"/>
		</g>
	</g>
	<g>
		<g>
			<path class="st0" d="M28.472,32.833c-0.092-0.26-0.376-0.396-0.638-0.305l-11.996,4.234c-3.192,1.127-5.337,4.159-5.337,7.544
				V56.5c0,0.276,0.224,0.5,0.5,0.5s0.5-0.224,0.5-0.5V44.306c0-2.962,1.877-5.615,4.67-6.601l11.996-4.234
				C28.427,33.379,28.563,33.094,28.472,32.833z"/>
		</g>
	</g>
	<g>
		<g>
			<g>
				<path class="st0" d="M32,44c-0.276,0-0.5,0.224-0.5,0.5v19c0,0.276,0.224,0.5,0.5,0.5s0.5-0.224,0.5-0.5v-19
					C32.5,44.224,32.276,44,32,44z"/>
			</g>
		</g>
	</g>
	<g>
		<g>
			<polygon class="st1" points="35,47.5 35,51.5 41,49.5 41,45.5 			"/>
		</g>
	</g>
	<g>
		<g>
			<g>
				<g>
					<path class="st0" d="M41.292,45.094c-0.13-0.094-0.298-0.122-0.45-0.068l-6,2C34.638,47.094,34.5,47.285,34.5,47.5v4
						c0,0.161,0.077,0.312,0.208,0.406C34.794,51.968,34.896,52,35,52c0.053,0,0.106-0.008,0.158-0.026l6-2
						c0.204-0.068,0.342-0.259,0.342-0.474v-4C41.5,45.339,41.423,45.188,41.292,45.094z M40.5,49.14l-5,1.667V47.86l5-1.667V49.14z
						"/>
				</g>
			</g>
		</g>
	</g>
	<g>
		<g>
			<g>
				<g>
					<g>
						<path class="st0" d="M36,22.036h-8c-0.276,0-0.5,0.224-0.5,0.5c0,2.481,2.019,4.5,4.5,4.5s4.5-2.019,4.5-4.5
							C36.5,22.259,36.276,22.036,36,22.036z M32,26.036c-1.76,0-3.221-1.306-3.464-3h6.929C35.221,24.729,33.76,26.036,32,26.036z"
							/>
					</g>
				</g>
			</g>
		</g>
	</g>
</g>
</svg>
