<?xml version="1.0" encoding="utf-8"?>
<!-- Generator: Adobe Illustrator 21.1.0, SVG Export Plug-In . SVG Version: 6.00 Build 0)  -->
<svg version="1.1" id="Icon_Set" xmlns="http://www.w3.org/2000/svg" xmlns:xlink="http://www.w3.org/1999/xlink" x="0px" y="0px"
	 viewBox="0 0 64 64" style="enable-background:new 0 0 64 64;" xml:space="preserve">
<style type="text/css">
	.st0{fill:#37474F;}
	.st1{fill:#EF5350;}
	.st2{fill:#FFCA28;}
	.st3{fill:#64B5F6;}
	.st4{fill:#FFFFFF;}
	.st5{fill:#FF7043;}
</style>
<g id="Student_Profile">
	<g>
		<g>
			<path class="st0" d="M58.5,25.5H33.242c-0.388,0-0.765-0.112-1.09-0.323l-8.136-5.288C23.122,19.308,22.085,19,21.018,19H17
				c-0.276,0-0.5,0.224-0.5,0.5S16.724,20,17,20h4.018c0.873,0,1.721,0.251,2.453,0.727l8.136,5.288
				c0.488,0.317,1.054,0.485,1.635,0.485H58.5c1.103,0,2,0.897,2,2V61c0,1.103-0.897,2-2,2h-53c-1.103,0-2-0.897-2-2V22
				c0-1.103,0.897-2,2-2H8c0.276,0,0.5-0.224,0.5-0.5S8.277,19,8,19H5.5c-1.654,0-3,1.346-3,3v39c0,1.654,1.346,3,3,3h53
				c1.654,0,3-1.346,3-3V28.5C61.5,26.846,60.155,25.5,58.5,25.5z"/>
		</g>
	</g>
	<g>
		<g>
			<path class="st0" d="M14,19h-3c-0.276,0-0.5,0.224-0.5,0.5S10.724,20,11,20h3c0.276,0,0.5-0.224,0.5-0.5S14.277,19,14,19z"/>
		</g>
	</g>
	<g>
		<g>
			<path class="st2" d="M53.5,0.5h-43C9.12,0.5,8,1.619,8,3v14.5h13.018c1.354,0,2.679,0.393,3.815,1.131l8.135,5.288
				c0.093,0.028,0.18,0.053,0.273,0.081H56V3C56,1.619,54.881,0.5,53.5,0.5z"/>
		</g>
	</g>
	<g>
		<g>
			<path class="st0" d="M53.5,0h-43c-1.654,0-3,1.346-3,3v14.5C7.5,17.776,7.724,18,8,18s0.5-0.224,0.5-0.5V3c0-1.103,0.897-2,2-2
				h43c1.103,0,2,0.897,2,2v21c0,0.276,0.224,0.5,0.5,0.5s0.5-0.224,0.5-0.5V3C56.5,1.346,55.155,0,53.5,0z"/>
		</g>
	</g>
	<g>
		<g>
			<path class="st0" d="M33,7H16c-0.276,0-0.5,0.224-0.5,0.5S15.724,8,16,8h17c0.276,0,0.5-0.224,0.5-0.5S33.277,7,33,7z"/>
		</g>
	</g>
	<g>
		<g>
			<path class="st0" d="M43,12H16c-0.276,0-0.5,0.224-0.5,0.5S15.724,13,16,13h27c0.276,0,0.5-0.224,0.5-0.5S43.277,12,43,12z"/>
		</g>
	</g>
	<g>
		<g>
			<path class="st0" d="M33,17h-7c-0.276,0-0.5,0.224-0.5,0.5S25.724,18,26,18h7c0.276,0,0.5-0.224,0.5-0.5S33.277,17,33,17z"/>
		</g>
	</g>
	<g>
		<g>
			<rect x="8" y="34.5" class="st3" width="24" height="24"/>
		</g>
	</g>
	<g>
		<g>
			<g>
				<g>
					<path class="st0" d="M32,34H8c-0.276,0-0.5,0.224-0.5,0.5v24C7.5,58.776,7.724,59,8,59h24c0.276,0,0.5-0.224,0.5-0.5v-24
						C32.5,34.224,32.277,34,32,34z M31.5,58h-23V35h23V58z"/>
				</g>
			</g>
		</g>
	</g>
	<g>
		<g>
			<path class="st4" d="M23,41.917c-0.924,0.373-1.932,0.583-2.991,0.583c-1.065,0-2.08-0.212-3.009-0.59l0.001,2.096l3.004,4.99
				l2.996-5L23,41.917z"/>
		</g>
	</g>
	<g>
		<g>
			<g>
				<g>
					<path class="st0" d="M23.5,41.917c0-0.166-0.083-0.321-0.22-0.414s-0.314-0.112-0.467-0.05
						c-1.806,0.729-3.827,0.724-5.625-0.006c-0.155-0.063-0.33-0.044-0.468,0.048c-0.138,0.093-0.221,0.249-0.221,0.415l0.001,2.096
						c0,0.091,0.025,0.18,0.072,0.258l3.003,4.99c0.09,0.15,0.253,0.242,0.428,0.242h0c0.175,0,0.338-0.093,0.428-0.243l2.997-5
						c0.047-0.077,0.071-0.166,0.071-0.257L23.5,41.917z M20.003,48.025l-2.502-4.158l0-1.247c1.619,0.502,3.376,0.505,5,0.005
						l0,1.232L20.003,48.025z"/>
				</g>
			</g>
		</g>
	</g>
	<g>
		<g>
			<path class="st4" d="M29.035,46.684l-6.034-2.688l-2.996,5l-3.004-4.99l-6.031,2.68C9.164,47.488,8,49.279,8,51.255V58.5h24
				v-7.249C32,49.277,30.839,47.487,29.035,46.684z"/>
		</g>
	</g>
	<g>
		<g>
			<g>
				<g>
					<path class="st0" d="M29.239,46.227l-6.034-2.688c-0.232-0.103-0.503-0.017-0.632,0.2l-2.569,4.286l-2.574-4.277
						c-0.13-0.216-0.401-0.302-0.631-0.199l-6.031,2.68C8.783,47.11,7.5,49.084,7.5,51.255V58.5C7.5,58.776,7.724,59,8,59h24
						c0.276,0,0.5-0.224,0.5-0.5v-7.249C32.5,49.082,31.22,47.11,29.239,46.227z M31.5,58h-23v-6.745
						c0-1.776,1.049-3.391,2.673-4.112l5.627-2.5l2.776,4.611c0.09,0.15,0.253,0.242,0.428,0.242h0c0.175,0,0.338-0.093,0.428-0.243
						l2.769-4.62l5.629,2.508c1.622,0.723,2.669,2.336,2.669,4.11V58z"/>
				</g>
			</g>
		</g>
	</g>
	<g>
		<g>
			<circle class="st4" cx="20" cy="34.5" r="8"/>
		</g>
	</g>
	<g>
		<g>
			<g>
				<g>
					<path class="st0" d="M20,26c-4.687,0-8.5,3.813-8.5,8.5S15.313,43,20,43s8.5-3.813,8.5-8.5S24.688,26,20,26z M20,42
						c-4.136,0-7.5-3.364-7.5-7.5S15.865,27,20,27s7.5,3.364,7.5,7.5S24.136,42,20,42z"/>
				</g>
			</g>
		</g>
	</g>
	<g>
		<g>
			<path class="st2" d="M20,26.5c-4.418,0-8,3.582-8,8h0.755c4.674,0,9.199-1.637,12.792-4.626l0.596-0.496
				C24.676,27.62,22.47,26.5,20,26.5z"/>
		</g>
	</g>
	<g>
		<g>
			<g>
				<g>
					<path class="st0" d="M26.527,29.059C24.906,27.115,22.527,26,20,26c-4.687,0-8.5,3.813-8.5,8.5c0,0.276,0.224,0.5,0.5,0.5
						h0.755c4.78,0,9.437-1.684,13.111-4.74l0.596-0.496c0.102-0.085,0.166-0.207,0.178-0.34
						C26.653,29.292,26.612,29.16,26.527,29.059z M25.228,29.49C21.732,32.398,17.303,34,12.756,34h-0.239
						c0.258-3.903,3.516-7,7.483-7c2.062,0,4.012,0.842,5.426,2.325L25.228,29.49z"/>
				</g>
			</g>
		</g>
	</g>
	<g>
		<g>
			<path class="st0" d="M20.004,47.969c-0.276,0-0.5,0.224-0.5,0.5v10c0,0.276,0.224,0.5,0.5,0.5s0.5-0.224,0.5-0.5v-10
				C20.504,48.192,20.281,47.969,20.004,47.969z"/>
		</g>
	</g>
	<g>
		<g>
			<rect x="37.5" y="34.5" class="st1" width="18" height="5"/>
		</g>
	</g>
	<g>
		<g>
			<g>
				<g>
					<path class="st0" d="M55.5,34h-18c-0.276,0-0.5,0.224-0.5,0.5v5c0,0.276,0.224,0.5,0.5,0.5h18c0.276,0,0.5-0.224,0.5-0.5v-5
						C56,34.224,55.777,34,55.5,34z M55,39H38v-4h17V39z"/>
				</g>
			</g>
		</g>
	</g>
	<g>
		<g>
			<g>
				<g>
					<g>
						<path class="st0" d="M55.5,44h-18c-0.276,0-0.5,0.224-0.5,0.5v5c0,0.276,0.224,0.5,0.5,0.5h18c0.276,0,0.5-0.224,0.5-0.5v-5
							C56,44.224,55.777,44,55.5,44z M55,49H38v-4h17V49z"/>
					</g>
				</g>
			</g>
		</g>
	</g>
</g>
</svg>
