<?xml version="1.0" encoding="utf-8"?>
<!-- Generator: Adobe Illustrator 21.1.0, SVG Export Plug-In . SVG Version: 6.00 Build 0)  -->
<svg version="1.1" id="Icon_Set" xmlns="http://www.w3.org/2000/svg" xmlns:xlink="http://www.w3.org/1999/xlink" x="0px" y="0px"
	 viewBox="0 0 64 64" style="enable-background:new 0 0 64 64;" xml:space="preserve">
<style type="text/css">
	.st0{fill:#37474F;}
	.st1{fill:#EF5350;}
	.st2{fill:#FFCA28;}
	.st3{fill:#64B5F6;}
	.st4{fill:#FFFFFF;}
	.st5{fill:#FF7043;}
</style>
<g id="Study_Success">
	<g>
		<g>
			<g>
				<path class="st2" d="M20,10h-8c-0.828,0-1.5,0.671-1.5,1.5v7c0,3.584,2.916,6.5,6.5,6.5h3c0.828,0,1.5-0.671,1.5-1.5v-12
					C21.5,10.671,20.828,10,20,10z M18.5,22H17c-1.93,0-3.5-1.57-3.5-3.5V13h5V22z"/>
			</g>
		</g>
	</g>
	<g>
		<g>
			<g>
				<path class="st0" d="M18.5,12.5h-5c-0.276,0-0.5,0.224-0.5,0.5v5.5c0,2.206,1.794,4,4,4h1.5c0.276,0,0.5-0.224,0.5-0.5v-9
					C19,12.724,18.776,12.5,18.5,12.5z M18,21.5h-1c-1.654,0-3-1.346-3-3v-5h4V21.5z M20,9.5h-8c-1.103,0-2,0.897-2,2v7
					c0,3.859,3.141,7,7,7h3c1.103,0,2-0.897,2-2v-12C22,10.397,21.103,9.5,20,9.5z M21,23.5c0,0.552-0.448,1-1,1h-3
					c-3.309,0-6-2.691-6-6v-7c0-0.552,0.448-1,1-1h8c0.552,0,1,0.448,1,1V23.5z"/>
			</g>
		</g>
	</g>
	<g>
		<g>
			<g>
				<path class="st2" d="M49,10h-8c-0.828,0-1.5,0.671-1.5,1.5v12c0,0.829,0.672,1.5,1.5,1.5h3c3.584,0,6.5-2.916,6.5-6.5v-7
					C50.5,10.671,49.828,10,49,10z M47.5,18.5c0,1.93-1.57,3.5-3.5,3.5h-1.5v-9h5V18.5z"/>
			</g>
		</g>
	</g>
	<g>
		<g>
			<g>
				<path class="st0" d="M47.5,12.5h-5c-0.276,0-0.5,0.224-0.5,0.5v9c0,0.276,0.224,0.5,0.5,0.5H44c2.206,0,4-1.794,4-4V13
					C48,12.724,47.776,12.5,47.5,12.5z M47,18.5c0,1.654-1.346,3-3,3h-1v-8h4V18.5z M49,9.5h-8c-1.103,0-2,0.897-2,2v12
					c0,1.103,0.897,2,2,2h3c3.859,0,7-3.141,7-7v-7C51,10.397,50.103,9.5,49,9.5z M50,18.5c0,3.309-2.691,6-6,6h-3
					c-0.552,0-1-0.448-1-1v-12c0-0.552,0.448-1,1-1h8c0.552,0,1,0.448,1,1V18.5z"/>
			</g>
		</g>
	</g>
	<g>
		<g>
			<path class="st2" d="M29.5,7h13v13c0,6.627-5.373,12-12,12h0c-6.627,0-12-5.373-12-12V7h2"/>
		</g>
	</g>
	<g>
		<g>
			<path class="st0" d="M42.5,6.5h-13C29.224,6.5,29,6.724,29,7s0.224,0.5,0.5,0.5H42V20c0,6.341-5.159,11.5-11.5,11.5
				S19,26.341,19,20V7.5h1.5C20.776,7.5,21,7.276,21,7s-0.224-0.5-0.5-0.5h-2C18.224,6.5,18,6.724,18,7v13
				c0,6.893,5.607,12.5,12.5,12.5S43,26.893,43,20V7C43,6.724,42.776,6.5,42.5,6.5z"/>
		</g>
	</g>
	<g>
		<g>
			<g>
				<path class="st0" d="M26.5,6.5h-3C23.224,6.5,23,6.724,23,7s0.224,0.5,0.5,0.5h3C26.776,7.5,27,7.276,27,7S26.776,6.5,26.5,6.5z
					"/>
			</g>
		</g>
	</g>
	<g>
		<g>
			<path class="st2" d="M38,47H23c-1.381,0-2.5,1.119-2.5,2.5V57h20v-7.5C40.5,48.119,39.381,47,38,47z"/>
		</g>
	</g>
	<g>
		<g>
			<g>
				<g>
					<path class="st0" d="M38,46.5H23c-1.654,0-3,1.346-3,3V57c0,0.276,0.224,0.5,0.5,0.5h20c0.276,0,0.5-0.224,0.5-0.5v-7.5
						C41,47.846,39.654,46.5,38,46.5z M40,56.5H21v-7c0-1.103,0.897-2,2-2h15c1.103,0,2,0.897,2,2V56.5z"/>
				</g>
			</g>
		</g>
	</g>
	<g>
		<g>
			<g>
				<g>
					<g>
						<path class="st0" d="M62.158,23.525L60.5,22.973c-0.692-0.23-1.242-0.78-1.473-1.473l-0.553-1.658
							c-0.137-0.408-0.812-0.408-0.949,0L56.973,21.5c-0.23,0.692-0.78,1.242-1.473,1.473l-1.658,0.553
							C53.638,23.594,53.5,23.785,53.5,24s0.138,0.406,0.342,0.475l1.658,0.553c0.692,0.23,1.242,0.78,1.473,1.473l0.553,1.658
							C57.594,28.362,57.785,28.5,58,28.5s0.406-0.138,0.475-0.342l0.553-1.658c0.23-0.692,0.78-1.242,1.473-1.473l1.658-0.553
							C62.362,24.406,62.5,24.215,62.5,24S62.362,23.594,62.158,23.525z M60.184,24.078c-0.989,0.329-1.776,1.116-2.105,2.105
							L58,26.419l-0.078-0.235c-0.329-0.989-1.116-1.776-2.105-2.105L55.581,24l0.235-0.078c0.989-0.329,1.776-1.116,2.105-2.105
							L58,21.581l0.078,0.235c0.329,0.989,1.116,1.776,2.105,2.105L60.419,24L60.184,24.078z"/>
					</g>
				</g>
			</g>
		</g>
	</g>
	<g>
		<g>
			<g>
				<g>
					<g>
						<path class="st0" d="M33.565,31.671c-0.014-0.143-0.087-0.272-0.203-0.356c-0.115-0.085-0.261-0.115-0.401-0.085
							c-1.646,0.359-3.275,0.359-4.922,0c-0.141-0.03-0.286,0-0.401,0.085c-0.116,0.084-0.189,0.214-0.203,0.356l-1.433,15.282
							c-0.013,0.141,0.033,0.279,0.128,0.384c0.095,0.104,0.229,0.163,0.37,0.163h8c0.141,0,0.275-0.06,0.37-0.163
							c0.095-0.104,0.141-0.243,0.128-0.384L33.565,31.671z M27.049,46.5l1.33-14.186c1.422,0.246,2.82,0.246,4.242,0l1.33,14.186
							H27.049z"/>
					</g>
				</g>
			</g>
		</g>
	</g>
	<g>
		<g>
			<path class="st4" d="M33.5,51h-6c-0.552,0-1,0.448-1,1s0.448,1,1,1h6c0.552,0,1-0.448,1-1S34.052,51,33.5,51z"/>
		</g>
	</g>
	<g>
		<g>
			<g>
				<g>
					<path class="st0" d="M33.5,50.5h-6c-0.827,0-1.5,0.673-1.5,1.5s0.673,1.5,1.5,1.5h6c0.827,0,1.5-0.673,1.5-1.5
						S34.327,50.5,33.5,50.5z M33.5,52.5h-6c-0.275,0-0.5-0.225-0.5-0.5s0.225-0.5,0.5-0.5h6c0.275,0,0.5,0.225,0.5,0.5
						S33.775,52.5,33.5,52.5z"/>
				</g>
			</g>
		</g>
	</g>
	<g>
		<g>
			<g>
				<g>
					<g>
						<path class="st0" d="M20.059,38.229l-1.192-1.193v-1.688c0-1.771-1.441-3.213-3.213-3.213h-1.688l-1.193-1.193
							c-1.211-1.211-3.328-1.213-4.543,0l-1.193,1.193H5.348c-1.771,0-3.213,1.441-3.213,3.213v1.688l-1.193,1.193
							C0.335,38.835,0,39.643,0,40.5c0,0.858,0.335,1.665,0.941,2.271l1.193,1.193v1.688c0,1.771,1.441,3.212,3.213,3.212h1.688
							l1.193,1.193C8.835,50.665,9.643,51,10.5,51c0.858,0,1.665-0.335,2.271-0.941l1.193-1.193h1.688
							c1.771,0,3.213-1.44,3.213-3.212v-1.688l1.192-1.193C20.665,42.165,21,41.358,21,40.5C21,39.643,20.665,38.835,20.059,38.229z
							 M19.352,42.064l-1.339,1.34c-0.094,0.094-0.146,0.221-0.146,0.354v1.896c0,1.22-0.993,2.212-2.213,2.212h-1.896
							c-0.133,0-0.26,0.053-0.354,0.146l-1.34,1.34c-0.835,0.835-2.292,0.837-3.129,0l-1.34-1.34
							c-0.094-0.094-0.221-0.146-0.354-0.146H5.348c-1.22,0-2.213-0.992-2.213-2.212v-1.896c0-0.133-0.053-0.26-0.146-0.354
							l-1.34-1.34C1.23,41.646,1,41.092,1,40.5c0-0.591,0.23-1.146,0.648-1.564l1.34-1.34c0.094-0.094,0.146-0.221,0.146-0.354
							v-1.895c0-1.22,0.993-2.213,2.213-2.213h1.895c0.133,0,0.26-0.053,0.354-0.146l1.34-1.34c0.837-0.837,2.294-0.835,3.129,0
							l1.34,1.34c0.094,0.094,0.221,0.146,0.354,0.146h1.896c1.22,0,2.213,0.993,2.213,2.213v1.895c0,0.133,0.053,0.26,0.146,0.354
							l1.339,1.34C19.77,39.354,20,39.909,20,40.5C20,41.092,19.77,41.646,19.352,42.064z"/>
					</g>
				</g>
			</g>
		</g>
	</g>
	<g>
		<g>
			<path class="st1" d="M13.758,48.366l-1.34,1.34c-1.059,1.059-2.777,1.059-3.836,0l-1.34-1.34H6.5V57l4-3l4,3v-8.634H13.758z"/>
		</g>
	</g>
	<g>
		<g>
			<g>
				<g>
					<path class="st0" d="M14.5,47.865h-0.742c-0.133,0-0.26,0.053-0.354,0.146l-1.34,1.34c-0.835,0.835-2.292,0.837-3.129,0
						l-1.34-1.34c-0.094-0.094-0.221-0.146-0.354-0.146H6.5c-0.276,0-0.5,0.224-0.5,0.5V57c0,0.189,0.107,0.362,0.276,0.447
						S6.649,57.513,6.8,57.4l3.7-2.775l3.7,2.775c0.088,0.065,0.193,0.1,0.3,0.1c0.076,0,0.153-0.018,0.224-0.053
						C14.893,57.362,15,57.189,15,57v-8.635C15,48.089,14.776,47.865,14.5,47.865z M10.8,53.6c-0.089-0.066-0.194-0.1-0.3-0.1
						s-0.211,0.033-0.3,0.1L7,56v-7.135l1.229,1.193c1.214,1.214,3.331,1.212,4.543,0l1.193-1.193L14,56L10.8,53.6z"/>
				</g>
			</g>
		</g>
	</g>
	<g>
		<g>
			<g>
				<g>
					<g>
						<path class="st0" d="M10.5,34C6.916,34,4,36.916,4,40.5S6.916,47,10.5,47s6.5-2.916,6.5-6.5S14.084,34,10.5,34z M10.5,46
							C7.468,46,5,43.532,5,40.5S7.468,35,10.5,35s5.5,2.468,5.5,5.5S13.532,46,10.5,46z"/>
					</g>
				</g>
			</g>
		</g>
	</g>
	<g>
		<g>
			<g>
				<g>
					<g>
						<path class="st0" d="M62.5,31.5h-18c-0.827,0-1.5,0.673-1.5,1.5v23c0,0.827,0.673,1.5,1.5,1.5h18c0.827,0,1.5-0.673,1.5-1.5
							V33C64,32.173,63.327,31.5,62.5,31.5z M63,56c0,0.275-0.225,0.5-0.5,0.5h-18c-0.275,0-0.5-0.225-0.5-0.5V33
							c0-0.275,0.225-0.5,0.5-0.5h18c0.275,0,0.5,0.225,0.5,0.5V56z"/>
					</g>
				</g>
			</g>
		</g>
	</g>
	<g>
		<g>
			<path class="st3" d="M60.5,34.5h-14c-0.552,0-1,0.448-1,1v18c0,0.552,0.448,1,1,1h14c0.552,0,1-0.448,1-1v-18
				C61.5,34.948,61.052,34.5,60.5,34.5z"/>
		</g>
	</g>
	<g>
		<g>
			<g>
				<g>
					<path class="st0" d="M60.5,34h-14c-0.827,0-1.5,0.673-1.5,1.5v18c0,0.827,0.673,1.5,1.5,1.5h14c0.827,0,1.5-0.673,1.5-1.5v-18
						C62,34.673,61.327,34,60.5,34z M61,53.5c0,0.275-0.225,0.5-0.5,0.5h-14c-0.275,0-0.5-0.225-0.5-0.5v-18
						c0-0.275,0.225-0.5,0.5-0.5h14c0.275,0,0.5,0.225,0.5,0.5V53.5z"/>
				</g>
			</g>
		</g>
	</g>
	<g>
		<g>
			<path class="st0" d="M57.437,37h-8c-0.276,0-0.5,0.224-0.5,0.5s0.224,0.5,0.5,0.5h8c0.276,0,0.5-0.224,0.5-0.5
				S57.714,37,57.437,37z"/>
		</g>
	</g>
	<g>
		<g>
			<path class="st0" d="M58.437,42.5h-10c-0.276,0-0.5,0.224-0.5,0.5s0.224,0.5,0.5,0.5h10c0.276,0,0.5-0.224,0.5-0.5
				S58.714,42.5,58.437,42.5z"/>
		</g>
	</g>
	<g>
		<g>
			<path class="st0" d="M56.437,45.5h-6c-0.276,0-0.5,0.224-0.5,0.5s0.224,0.5,0.5,0.5h6c0.276,0,0.5-0.224,0.5-0.5
				S56.714,45.5,56.437,45.5z"/>
		</g>
	</g>
	<g>
		<g>
			<path class="st0" d="M57.437,51h-8c-0.276,0-0.5,0.224-0.5,0.5s0.224,0.5,0.5,0.5h8c0.276,0,0.5-0.224,0.5-0.5
				S57.714,51,57.437,51z"/>
		</g>
	</g>
</g>
</svg>
