<?xml version="1.0" encoding="utf-8"?>
<!-- Generator: Adobe Illustrator 21.1.0, SVG Export Plug-In . SVG Version: 6.00 Build 0)  -->
<svg version="1.1" id="Icon_Set" xmlns="http://www.w3.org/2000/svg" xmlns:xlink="http://www.w3.org/1999/xlink" x="0px" y="0px"
	 viewBox="0 0 64 64" style="enable-background:new 0 0 64 64;" xml:space="preserve">
<style type="text/css">
	.st0{fill:#37474F;}
	.st1{fill:#EF5350;}
	.st2{fill:#FFCA28;}
	.st3{fill:#64B5F6;}
	.st4{fill:#FFFFFF;}
	.st5{fill:#FF7043;}
</style>
<g id="Student_Desk">
	<g>
		<g>
			<g>
				<g>
					<g>
						<path class="st0" d="M62,5.5H48c-0.827,0-1.5,0.673-1.5,1.5v10c0,0.827,0.673,1.5,1.5,1.5h14c0.827,0,1.5-0.673,1.5-1.5V7
							C63.5,6.173,62.827,5.5,62,5.5z M62.5,17c0,0.276-0.224,0.5-0.5,0.5H48c-0.276,0-0.5-0.224-0.5-0.5V7
							c0-0.276,0.224-0.5,0.5-0.5h14c0.276,0,0.5,0.224,0.5,0.5V17z"/>
					</g>
				</g>
			</g>
		</g>
	</g>
	<g>
		<g>
			<path class="st2" d="M16,49h45c1.381,0,2.5,1.119,2.5,2.5v1c0,1.381-1.119,2.5-2.5,2.5H3c-1.381,0-2.5-1.119-2.5-2.5v-1
				C0.5,50.119,1.619,49,3,49h4"/>
		</g>
	</g>
	<g>
		<g>
			<path class="st0" d="M61,48.5H16c-0.276,0-0.5,0.224-0.5,0.5s0.224,0.5,0.5,0.5h45c1.103,0,2,0.897,2,2v1c0,1.103-0.897,2-2,2H3
				c-1.103,0-2-0.897-2-2v-1c0-1.103,0.897-2,2-2h4c0.276,0,0.5-0.224,0.5-0.5S7.276,48.5,7,48.5H3c-1.654,0-3,1.346-3,3v1
				c0,1.654,1.346,3,3,3h58c1.654,0,3-1.346,3-3v-1C64,49.846,62.654,48.5,61,48.5z"/>
		</g>
	</g>
	<g>
		<g>
			<g>
				<path class="st0" d="M13,48.5h-3c-0.276,0-0.5,0.224-0.5,0.5s0.224,0.5,0.5,0.5h3c0.276,0,0.5-0.224,0.5-0.5
					S13.276,48.5,13,48.5z"/>
			</g>
		</g>
	</g>
	<g>
		<g>
			<path class="st0" d="M9.5,56.5C9.224,56.5,9,56.724,9,57v6.5C9,63.776,9.224,64,9.5,64s0.5-0.224,0.5-0.5V57
				C10,56.724,9.776,56.5,9.5,56.5z"/>
		</g>
	</g>
	<g>
		<g>
			<path class="st0" d="M3.5,56.5C3.224,56.5,3,56.724,3,57v6.5C3,63.776,3.224,64,3.5,64S4,63.776,4,63.5V57
				C4,56.724,3.776,56.5,3.5,56.5z"/>
		</g>
	</g>
	<g>
		<g>
			<path class="st0" d="M60.5,56.5c-0.276,0-0.5,0.224-0.5,0.5v6.5c0,0.276,0.224,0.5,0.5,0.5s0.5-0.224,0.5-0.5V57
				C61,56.724,60.776,56.5,60.5,56.5z"/>
		</g>
	</g>
	<g>
		<g>
			<path class="st0" d="M54.5,56.5c-0.276,0-0.5,0.224-0.5,0.5v6.5c0,0.276,0.224,0.5,0.5,0.5s0.5-0.224,0.5-0.5V57
				C55,56.724,54.776,56.5,54.5,56.5z"/>
		</g>
	</g>
	<g>
		<g>
			<g>
				<g>
					<g>
						<path class="st0" d="M44,19.5H9c-0.827,0-1.5,0.673-1.5,1.5v23c0,0.827,0.673,1.5,1.5,1.5h35c0.827,0,1.5-0.673,1.5-1.5V21
							C45.5,20.173,44.827,19.5,44,19.5z M44.5,44c0,0.276-0.224,0.5-0.5,0.5H9c-0.276,0-0.5-0.224-0.5-0.5V21
							c0-0.276,0.224-0.5,0.5-0.5h35c0.276,0,0.5,0.224,0.5,0.5V44z"/>
					</g>
				</g>
			</g>
		</g>
	</g>
	<g>
		<g>
			<rect x="11" y="23" class="st3" width="31" height="19"/>
		</g>
	</g>
	<g>
		<g>
			<g>
				<g>
					<path class="st0" d="M42,22.5H11c-0.276,0-0.5,0.224-0.5,0.5v19c0,0.276,0.224,0.5,0.5,0.5h31c0.276,0,0.5-0.224,0.5-0.5V23
						C42.5,22.724,42.276,22.5,42,22.5z M41.5,41.5h-30v-18h30V41.5z"/>
				</g>
			</g>
		</g>
	</g>
	<g>
		<g>
			<path class="st0" d="M47,44.5H6c-0.827,0-1.5,0.673-1.5,1.5v3c0,0.276,0.224,0.5,0.5,0.5s0.5-0.224,0.5-0.5v-3
				c0-0.276,0.224-0.5,0.5-0.5h41c0.276,0,0.5,0.224,0.5,0.5v3c0,0.276,0.224,0.5,0.5,0.5s0.5-0.224,0.5-0.5v-3
				C48.5,45.173,47.827,44.5,47,44.5z"/>
		</g>
	</g>
	<g>
		<g>
			<rect x="50.5" y="39" class="st1" width="9" height="10"/>
		</g>
	</g>
	<g>
		<g>
			<g>
				<g>
					<path class="st0" d="M59.5,38.5h-9c-0.276,0-0.5,0.224-0.5,0.5v10c0,0.276,0.224,0.5,0.5,0.5h9c0.276,0,0.5-0.224,0.5-0.5V39
						C60,38.724,59.776,38.5,59.5,38.5z M59,48.5h-8v-9h8V48.5z"/>
				</g>
			</g>
		</g>
	</g>
	<g>
		<g>
			<path class="st0" d="M54,30.5h-2c-0.276,0-0.5,0.224-0.5,0.5v6c0,0.276,0.224,0.5,0.5,0.5s0.5-0.224,0.5-0.5v-5.5h1V37
				c0,0.276,0.224,0.5,0.5,0.5s0.5-0.224,0.5-0.5v-6C54.5,30.724,54.276,30.5,54,30.5z"/>
		</g>
	</g>
	<g>
		<g>
			<path class="st0" d="M59.394,32.692C59.299,32.571,59.154,32.5,59,32.5h-2c-0.229,0-0.429,0.156-0.485,0.379l-1,4
				c-0.067,0.268,0.096,0.539,0.364,0.606c0.267,0.067,0.539-0.096,0.606-0.364l0.906-3.621h0.969l-0.844,3.379
				c-0.067,0.268,0.096,0.539,0.364,0.606C57.919,37.495,57.96,37.5,58,37.5c0.224,0,0.428-0.151,0.484-0.379l1-4
				C59.522,32.972,59.489,32.813,59.394,32.692z"/>
		</g>
	</g>
	<g>
		<g>
			<path class="st0" d="M28,46.5h-2c-0.276,0-0.5,0.224-0.5,0.5s0.224,0.5,0.5,0.5h2c0.276,0,0.5-0.224,0.5-0.5S28.276,46.5,28,46.5
				z"/>
		</g>
	</g>
	<g>
		<g>
			<path class="st0" d="M60,10.5H50c-0.276,0-0.5,0.224-0.5,0.5s0.224,0.5,0.5,0.5h10c0.276,0,0.5-0.224,0.5-0.5
				S60.276,10.5,60,10.5z"/>
		</g>
	</g>
	<g>
		<g>
			<path class="st0" d="M60,13H50c-0.276,0-0.5,0.224-0.5,0.5S49.724,14,50,14h10c0.276,0,0.5-0.224,0.5-0.5S60.276,13,60,13z"/>
		</g>
	</g>
	<g>
		<g>
			<path class="st0" d="M59.441,7.765l-4-7.5c-0.174-0.326-0.709-0.326-0.883,0l-4,7.5c-0.13,0.244-0.038,0.546,0.206,0.677
				c0.245,0.129,0.546,0.037,0.677-0.206L55,1.562l3.559,6.673C58.649,8.404,58.822,8.5,59,8.5c0.079,0,0.16-0.019,0.235-0.059
				C59.479,8.311,59.571,8.008,59.441,7.765z"/>
		</g>
	</g>
	<g>
		<g>
			<g>
				<g>
					<g>
						<path class="st0" d="M39,25.5c-0.276,0-0.5,0.224-0.5,0.5v13c0,0.276,0.224,0.5,0.5,0.5s0.5-0.224,0.5-0.5V26
							C39.5,25.724,39.276,25.5,39,25.5z"/>
					</g>
				</g>
			</g>
		</g>
	</g>
</g>
</svg>
