<?xml version="1.0" encoding="utf-8"?>
<!-- Generator: Adobe Illustrator 21.1.0, SVG Export Plug-In . SVG Version: 6.00 Build 0)  -->
<svg version="1.1" id="Icon_Set" xmlns="http://www.w3.org/2000/svg" xmlns:xlink="http://www.w3.org/1999/xlink" x="0px" y="0px"
	 viewBox="0 0 64 64" style="enable-background:new 0 0 64 64;" xml:space="preserve">
<style type="text/css">
	.st0{fill:#37474F;}
	.st1{fill:#EF5350;}
	.st2{fill:#FFCA28;}
	.st3{fill:#64B5F6;}
	.st4{fill:#FFFFFF;}
	.st5{fill:#FF7043;}
</style>
<g id="Successful_Students">
	<g>
		<g>
			<circle class="st3" cx="32.48" cy="45.5" r="18"/>
		</g>
	</g>
	<g>
		<g>
			<g>
				<g>
					<path class="st0" d="M32.48,27.001c-10.201,0-18.5,8.299-18.5,18.5s8.299,18.5,18.5,18.5s18.5-8.299,18.5-18.5
						S42.682,27.001,32.48,27.001z M32.48,63.001c-9.649,0-17.5-7.851-17.5-17.5s7.851-17.5,17.5-17.5s17.5,7.851,17.5,17.5
						S42.13,63.001,32.48,63.001z"/>
				</g>
			</g>
		</g>
	</g>
	<g>
		<g>
			<circle class="st4" cx="32.5" cy="45.5" r="13"/>
		</g>
	</g>
	<g>
		<g>
			<path class="st0" d="M32.48,32.001c-2.886,0-5.639,0.897-7.96,2.596c-0.223,0.163-0.271,0.476-0.109,0.698
				s0.477,0.272,0.699,0.108c2.15-1.571,4.699-2.402,7.371-2.402c6.893,0,12.5,5.607,12.5,12.5s-5.607,12.5-12.5,12.5
				s-12.5-5.607-12.5-12.5c0-1.144,0.154-2.275,0.458-3.367c0.074-0.266-0.081-0.541-0.347-0.615
				c-0.266-0.075-0.542,0.081-0.616,0.348c-0.329,1.178-0.495,2.401-0.495,3.635c0,7.444,6.056,13.5,13.5,13.5s13.5-6.056,13.5-13.5
				S39.924,32.001,32.48,32.001z"/>
		</g>
	</g>
	<g>
		<g>
			<path class="st2" d="M47.142,0.5l-10.577,25.42c3.39,0.704,6.456,2.275,8.98,4.458L57.999,0.5H47.142z"/>
		</g>
	</g>
	<g>
		<g>
			<path class="st2" d="M16.935,0.5H6L19.14,30.63c1.243-1.116,2.625-2.079,4.118-2.859c1.493-0.78,3.096-1.376,4.782-1.759
				L16.935,0.5z"/>
		</g>
	</g>
	<g>
		<g>
			<path class="st0" d="M22.943,36.653c-0.208-0.18-0.524-0.157-0.705,0.053c-0.675,0.786-1.26,1.648-1.736,2.562
				c-0.127,0.245-0.033,0.547,0.212,0.675C20.788,39.981,20.867,40,20.944,40c0.181,0,0.354-0.098,0.444-0.269
				c0.441-0.847,0.982-1.646,1.608-2.373C23.176,37.148,23.152,36.833,22.943,36.653z"/>
		</g>
	</g>
	<g>
		<g>
			<g>
				<line class="st2" x1="47.142" y1="0.501" x2="36.565" y2="25.921"/>
			</g>
		</g>
		<g>
			<g>
				<path class="st0" d="M47.333,0.039c-0.252-0.102-0.547,0.016-0.653,0.27l-10.577,25.42c-0.106,0.255,0.014,0.548,0.27,0.654
					c0.062,0.025,0.127,0.038,0.192,0.038c0.196,0,0.382-0.116,0.461-0.308l10.577-25.42C47.709,0.438,47.589,0.146,47.333,0.039z"
					/>
			</g>
		</g>
	</g>
	<g>
		<g>
			<g>
				<line class="st2" x1="45.545" y1="30.379" x2="57.999" y2="0.501"/>
			</g>
		</g>
		<g>
			<g>
				<path class="st0" d="M58.192,0.039c-0.252-0.102-0.547,0.015-0.654,0.27L45.083,30.187c-0.106,0.255,0.014,0.548,0.269,0.654
					c0.063,0.025,0.128,0.038,0.192,0.038c0.196,0,0.381-0.115,0.461-0.308L58.461,0.693C58.567,0.438,58.447,0.146,58.192,0.039z"
					/>
			</g>
		</g>
	</g>
	<g>
		<g>
			<g>
				<line class="st2" x1="6" y1="0.501" x2="19.14" y2="30.63"/>
			</g>
		</g>
		<g>
			<g>
				<path class="st0" d="M19.599,30.43L6.458,0.301C6.349,0.049,6.055-0.065,5.8,0.043c-0.253,0.11-0.369,0.404-0.259,0.658
					l13.14,30.129c0.082,0.188,0.266,0.3,0.459,0.3c0.066,0,0.134-0.014,0.199-0.042C19.593,30.978,19.709,30.684,19.599,30.43z"/>
			</g>
		</g>
	</g>
	<g>
		<g>
			<g>
				<line class="st2" x1="28.04" y1="26.012" x2="16.934" y2="0.501"/>
			</g>
		</g>
		<g>
			<g>
				<path class="st0" d="M28.499,25.813L17.393,0.302c-0.11-0.254-0.405-0.37-0.658-0.259c-0.253,0.109-0.369,0.404-0.259,0.657
					l11.105,25.512c0.082,0.188,0.266,0.301,0.459,0.301c0.066,0,0.134-0.014,0.199-0.042
					C28.493,26.361,28.609,26.066,28.499,25.813z"/>
			</g>
		</g>
	</g>
	<g>
		<g>
			<path class="st1" d="M39.121,44.505c0.568-0.583,0.24-1.564-0.565-1.687l-3.077-0.47c-0.33-0.05-0.613-0.262-0.754-0.564
				l-1.34-2.855c-0.36-0.767-1.451-0.767-1.81,0l-1.34,2.855c-0.142,0.302-0.425,0.513-0.754,0.564l-3.077,0.47
				c-0.805,0.123-1.133,1.104-0.565,1.687l2.288,2.346c0.222,0.227,0.322,0.546,0.271,0.859l-0.531,3.258
				c-0.134,0.824,0.74,1.44,1.471,1.036l2.658-1.469c0.301-0.167,0.667-0.167,0.968,0l2.658,1.469
				c0.731,0.404,1.605-0.212,1.471-1.036l-0.531-3.258c-0.051-0.313,0.05-0.632,0.271-0.859L39.121,44.505z"/>
		</g>
	</g>
	<g>
		<g>
			<g>
				<g>
					<path class="st0" d="M39.479,44.854c0.394-0.404,0.528-0.987,0.349-1.523c-0.179-0.535-0.637-0.922-1.196-1.007l-3.078-0.471
						c-0.165-0.025-0.305-0.13-0.376-0.282l-1.34-2.854c-0.25-0.533-0.77-0.863-1.358-0.863s-1.108,0.33-1.358,0.862l-1.34,2.854
						c-0.071,0.152-0.211,0.257-0.377,0.282l-3.077,0.471c-0.559,0.085-1.017,0.472-1.196,1.007
						c-0.179,0.536-0.045,1.119,0.349,1.523l2.289,2.345c0.11,0.113,0.161,0.274,0.136,0.431l-0.532,3.258
						c-0.093,0.571,0.144,1.135,0.617,1.468c0.26,0.183,0.56,0.275,0.862,0.275c0.249,0,0.499-0.062,0.727-0.189l2.659-1.469
						c0.151-0.084,0.332-0.084,0.484,0l2.658,1.469c0.505,0.28,1.114,0.247,1.589-0.086c0.474-0.333,0.71-0.896,0.617-1.468
						l-0.532-3.258c-0.025-0.156,0.025-0.317,0.136-0.43L39.479,44.854z M36.475,46.502c-0.331,0.339-0.483,0.82-0.407,1.288
						l0.532,3.258c0.032,0.194-0.045,0.377-0.206,0.49c-0.16,0.112-0.357,0.123-0.53,0.028l-2.658-1.469
						c-0.454-0.252-0.998-0.252-1.452,0l-2.659,1.469c-0.172,0.094-0.369,0.083-0.529-0.028c-0.16-0.113-0.237-0.296-0.206-0.49
						l0.532-3.258c0.076-0.468-0.077-0.949-0.407-1.289l-2.289-2.346c-0.133-0.136-0.177-0.326-0.116-0.507
						c0.061-0.182,0.209-0.307,0.399-0.336l3.076-0.471c0.496-0.074,0.918-0.391,1.132-0.845l1.34-2.855
						c0.125-0.267,0.378-0.287,0.453-0.287s0.327,0.021,0.453,0.287v0.001l1.34,2.854c0.213,0.454,0.636,0.771,1.131,0.845
						l3.077,0.471c0.189,0.029,0.338,0.154,0.399,0.336c0.061,0.181,0.017,0.371-0.116,0.507L36.475,46.502z"/>
				</g>
			</g>
		</g>
	</g>
</g>
</svg>
