<?xml version="1.0" encoding="utf-8"?>
<!-- Generator: Adobe Illustrator 21.1.0, SVG Export Plug-In . SVG Version: 6.00 Build 0)  -->
<svg version="1.1" id="Icon_Set" xmlns="http://www.w3.org/2000/svg" xmlns:xlink="http://www.w3.org/1999/xlink" x="0px" y="0px"
	 viewBox="0 0 64 64" style="enable-background:new 0 0 64 64;" xml:space="preserve">
<style type="text/css">
	.st0{fill:#37474F;}
	.st1{fill:#EF5350;}
	.st2{fill:#FFCA28;}
	.st3{fill:#64B5F6;}
	.st4{fill:#FFFFFF;}
	.st5{fill:#FF7043;}
</style>
<g id="Teaching">
	<g>
		<g>
			<path class="st1" d="M52.125,45.25h-1.892c-0.43,0-0.813,0.275-0.949,0.684l-3.333,10c-0.216,0.647,0.266,1.316,0.949,1.316
				h1.892c0.43,0,0.813-0.275,0.949-0.684l3.333-10C53.289,45.919,52.807,45.25,52.125,45.25z"/>
		</g>
	</g>
	<g>
		<g>
			<g>
				<g>
					<path class="st0" d="M53.341,45.373c-0.285-0.396-0.729-0.623-1.217-0.623h-1.892c-0.647,0-1.219,0.412-1.423,1.025l-3.333,10
						c-0.155,0.463-0.08,0.956,0.206,1.352c0.285,0.396,0.729,0.623,1.217,0.623h1.892c0.647,0,1.219-0.412,1.423-1.025l3.333-10
						C53.702,46.262,53.627,45.769,53.341,45.373z M52.599,46.408l-3.334,10c-0.068,0.205-0.258,0.342-0.474,0.342h-1.892
						c-0.163,0-0.311-0.076-0.406-0.208s-0.12-0.296-0.069-0.45l3.334-10c0.068-0.205,0.258-0.342,0.474-0.342h1.892
						c0.163,0,0.311,0.076,0.406,0.208S52.65,46.254,52.599,46.408z"/>
				</g>
			</g>
		</g>
	</g>
	<g>
		<g>
			<g>
				<path class="st3" d="M0.5,61.25V46.505c0-1.976,1.164-3.767,2.97-4.569l6.031-2.68l3.004,4.463l2.996-4.473l3.805,1.723
					c1.097,0.497,2.095,1.187,2.947,2.039l3.662,3.662l5.303-5.303l3.536,3.536l-7.068,7.068c-0.976,0.976-2.559,0.976-3.536,0
					l-4.645-4.645L19.5,61.25"/>
			</g>
		</g>
	</g>
	<g>
		<g>
			<g>
				<g>
					<g>
						<path class="st0" d="M12.5,21.75c-4.687,0-8.5,3.813-8.5,8.5s3.813,8.5,8.5,8.5s8.5-3.813,8.5-8.5S17.187,21.75,12.5,21.75z
							 M12.5,37.75c-4.136,0-7.5-3.364-7.5-7.5s3.364-7.5,7.5-7.5s7.5,3.364,7.5,7.5S16.636,37.75,12.5,37.75z"/>
					</g>
				</g>
			</g>
		</g>
	</g>
	<g>
		<g>
			<g>
				<g>
					<g>
						<path class="st0" d="M19.027,24.809c-1.622-1.943-4-3.059-6.527-3.059c-4.687,0-8.5,3.813-8.5,8.5c0,0.276,0.224,0.5,0.5,0.5
							h0.755c4.78,0,9.437-1.684,13.112-4.74c0,0,0,0,0-0.001l0.596-0.496c0.102-0.085,0.166-0.206,0.178-0.339
							C19.153,25.042,19.112,24.91,19.027,24.809z M17.728,25.24c-3.496,2.908-7.925,4.51-12.472,4.51H5.017
							c0.258-3.903,3.516-7,7.483-7c2.062,0,4.012,0.842,5.426,2.325L17.728,25.24z"/>
					</g>
				</g>
			</g>
		</g>
	</g>
	<g>
		<g>
			<g>
				<g>
					<g>
						<path class="st0" d="M16,37.667c0-0.166-0.083-0.321-0.22-0.414c-0.138-0.094-0.314-0.112-0.467-0.05
							c-1.805,0.729-3.827,0.723-5.625-0.006c-0.155-0.064-0.33-0.043-0.468,0.048C9.082,37.339,9,37.494,9,37.66L9,39.256
							c0,0.1,0.03,0.196,0.085,0.279l3.004,4.463c0.093,0.138,0.248,0.221,0.415,0.221h0c0.167,0,0.322-0.083,0.415-0.222
							l2.996-4.473C15.971,39.442,16,39.345,16,39.246L16,37.667z M12.503,42.822L10,39.104l0-0.733
							c1.619,0.502,3.377,0.505,5,0.005l0,0.72L12.503,42.822z"/>
					</g>
				</g>
			</g>
		</g>
	</g>
	<g>
		<g>
			<path class="st0" d="M35.106,44.548l-3.536-3.535c-0.195-0.195-0.512-0.195-0.707,0l-4.95,4.949l-3.309-3.309
				c-0.896-0.897-1.938-1.617-3.094-2.14l-3.805-1.723c-0.22-0.101-0.485-0.026-0.622,0.177l-2.582,3.854l-2.588-3.846
				C9.779,38.775,9.52,38.7,9.297,38.799l-6.031,2.68C1.282,42.359,0,44.333,0,46.505V61.25c0,0.276,0.224,0.5,0.5,0.5
				S1,61.526,1,61.25V46.505c0-1.777,1.049-3.392,2.673-4.112l5.647-2.51l2.77,4.115c0.093,0.138,0.248,0.221,0.415,0.221h0
				c0.167,0,0.322-0.083,0.415-0.222l2.76-4.121l3.419,1.549c1.046,0.473,1.988,1.124,2.799,1.936l3.662,3.662
				c0.195,0.195,0.512,0.195,0.707,0l4.95-4.949l2.829,2.828l-6.715,6.715c-0.756,0.756-2.073,0.756-2.829,0l-4.645-4.646
				c-0.143-0.143-0.357-0.184-0.545-0.108c-0.187,0.077-0.309,0.26-0.309,0.462L19,61.25c0,0.276,0.224,0.5,0.5,0.5
				c0.276,0,0.5-0.224,0.5-0.5l0.003-12.719l3.792,3.792c1.134,1.133,3.11,1.133,4.243,0l7.068-7.068
				c0.094-0.094,0.146-0.221,0.146-0.354S35.2,44.642,35.106,44.548z"/>
		</g>
	</g>
	<g>
		<g>
			<path class="st0" d="M5.5,48.755c-0.276,0-0.5,0.224-0.5,0.5V61.25c0,0.276,0.224,0.5,0.5,0.5S6,61.526,6,61.25V49.255
				C6,48.979,5.776,48.755,5.5,48.755z"/>
		</g>
	</g>
	<g>
		<g>
			<polygon class="st4" points="13.5,43.718 11.5,43.718 10,55.751 12.51,58.251 15,55.751 			"/>
		</g>
	</g>
	<g>
		<g>
			<g>
				<g>
					<path class="st0" d="M13.996,43.657c-0.031-0.251-0.244-0.438-0.496-0.438h-2c-0.252,0-0.465,0.188-0.496,0.438l-1.5,12.032
						c-0.019,0.153,0.034,0.307,0.143,0.416l2.51,2.5c0.094,0.093,0.221,0.146,0.353,0.146c0,0,0,0,0.001,0
						c0.133,0,0.26-0.053,0.353-0.147l2.49-2.5c0.109-0.108,0.161-0.262,0.142-0.414L13.996,43.657z M12.508,57.544l-1.982-1.975
						l1.415-11.351h1.117l1.415,11.353L12.508,57.544z"/>
				</g>
			</g>
		</g>
	</g>
	<g>
		<g>
			<g>
				<g>
					<g>
						<path class="st0" d="M15.997,39.19c-0.023-0.209-0.175-0.38-0.378-0.43c-0.203-0.049-0.417,0.033-0.534,0.207l-2.581,3.854
							l-2.588-3.846c-0.117-0.173-0.329-0.257-0.534-0.206c-0.204,0.05-0.354,0.222-0.378,0.43l-0.5,4.463
							c-0.016,0.142,0.029,0.283,0.125,0.389c0.095,0.106,0.23,0.167,0.373,0.167h7c0.142,0,0.278-0.061,0.373-0.167
							c0.095-0.105,0.14-0.247,0.125-0.389L15.997,39.19z M9.559,43.219l0.286-2.555l1.719,2.555H9.559z M13.44,43.219l1.714-2.56
							l0.286,2.56H13.44z"/>
					</g>
				</g>
			</g>
		</g>
	</g>
	<g>
		<g>
			<path class="st0" d="M36.52,39.598c-0.566-0.566-1.32-0.879-2.121-0.879c0,0-0.002,0-0.002,0
				c-0.803,0.001-1.556,0.314-2.123,0.883c-0.19,0.189-0.195,0.496-0.013,0.692c0.184,0.199,0.489,0.214,0.692,0.04l0.003-0.003
				c0.015-0.013,0.028-0.025,0.041-0.039c0.376-0.369,0.872-0.573,1.4-0.573h0.001c0.534,0,1.036,0.208,1.414,0.586
				c0.779,0.779,0.78,2.047-0.03,2.862c-0.171,0.206-0.149,0.508,0.049,0.688c0.095,0.087,0.215,0.13,0.336,0.13
				c0.129,0,0.258-0.05,0.356-0.148C37.69,42.668,37.688,40.766,36.52,39.598z"/>
		</g>
	</g>
	<g>
		<g>
			<path class="st2" d="M23.5,8.25v-3c0-1.381,1.119-2.5,2.5-2.5h35c1.381,0,2.5,1.119,2.5,2.5v25c0,1.381-1.119,2.5-2.5,2.5H26
				c-1.381,0-2.5-1.119-2.5-2.5v-13"/>
		</g>
	</g>
	<g>
		<g>
			<path class="st0" d="M61,2.25H26c-1.654,0-3,1.346-3,3v3c0,0.276,0.224,0.5,0.5,0.5S24,8.526,24,8.25v-3c0-1.103,0.897-2,2-2h35
				c1.103,0,2,0.897,2,2v25c0,1.103-0.897,2-2,2H26c-1.103,0-2-0.897-2-2v-13c0-0.276-0.224-0.5-0.5-0.5s-0.5,0.224-0.5,0.5v13
				c0,1.654,1.346,3,3,3h35c1.654,0,3-1.346,3-3v-25C64,3.596,62.654,2.25,61,2.25z"/>
		</g>
	</g>
	<g>
		<g>
			<g>
				<path class="st0" d="M23.5,10.75c-0.276,0-0.5,0.224-0.5,0.5v3c0,0.276,0.224,0.5,0.5,0.5s0.5-0.224,0.5-0.5v-3
					C24,10.974,23.776,10.75,23.5,10.75z"/>
			</g>
		</g>
	</g>
	<g>
		<g>
			<path class="st0" d="M40.478,16.25h-3c-0.276,0-0.5,0.224-0.5,0.5s0.224,0.5,0.5,0.5h3c0.276,0,0.5-0.224,0.5-0.5
				S40.754,16.25,40.478,16.25z"/>
		</g>
	</g>
	<g>
		<g>
			<path class="st0" d="M40.478,18.25h-3c-0.276,0-0.5,0.224-0.5,0.5s0.224,0.5,0.5,0.5h3c0.276,0,0.5-0.224,0.5-0.5
				S40.754,18.25,40.478,18.25z"/>
		</g>
	</g>
	<g>
		<g>
			<g>
				<g>
					<g>
						<path class="st0" d="M56.522,14v-1c0-0.276-0.224-0.5-0.5-0.5h-1.5c-0.276,0-0.5,0.224-0.5,0.5v0.75
							c0,0.276,0.224,0.5,0.5,0.5s0.5-0.224,0.5-0.5V13.5h0.5v0.315l-1.379,1.609c-0.078,0.091-0.121,0.206-0.121,0.325V16
							c0,0.276,0.224,0.5,0.5,0.5h1.5c0.276,0,0.5-0.224,0.5-0.5s-0.224-0.5-0.5-0.5h-0.627l1.006-1.175
							C56.48,14.234,56.522,14.119,56.522,14z"/>
					</g>
				</g>
			</g>
		</g>
	</g>
	<g>
		<g>
			<path class="st0" d="M52.522,19h-1.25c-0.689,0-1.25-0.561-1.25-1.25s0.561-1.25,1.25-1.25h1.25c0.276,0,0.5-0.224,0.5-0.5
				s-0.224-0.5-0.5-0.5h-1.25c-1.241,0-2.25,1.01-2.25,2.25S50.032,20,51.272,20h1.25c0.276,0,0.5-0.224,0.5-0.5
				S52.799,19,52.522,19z"/>
		</g>
	</g>
	<g>
		<g>
			<path class="st0" d="M34.478,17.25h-2.5c-0.276,0-0.5-0.225-0.5-0.5s0.224-0.5,0.5-0.5h2.5c0.276,0,0.5-0.224,0.5-0.5
				s-0.224-0.5-0.5-0.5h-2.5c-0.827,0-1.5,0.673-1.5,1.5s0.673,1.5,1.5,1.5h2.5c0.276,0,0.5-0.224,0.5-0.5
				S34.754,17.25,34.478,17.25z"/>
		</g>
	</g>
	<g>
		<g>
			<path class="st0" d="M34.478,19.25h-2.5c-0.276,0-0.5-0.225-0.5-0.5s0.224-0.5,0.5-0.5h2.5c0.276,0,0.5-0.224,0.5-0.5
				s-0.224-0.5-0.5-0.5h-2.5c-0.827,0-1.5,0.673-1.5,1.5s0.673,1.5,1.5,1.5h2.5c0.276,0,0.5-0.224,0.5-0.5
				S34.754,19.25,34.478,19.25z"/>
		</g>
	</g>
	<g>
		<g>
			<path class="st0" d="M46.478,15.5c-0.827,0-1.5,0.673-1.5,1.5v2.5c0,0.276,0.224,0.5,0.5,0.5s0.5-0.224,0.5-0.5V17
				c0-0.275,0.224-0.5,0.5-0.5s0.5,0.225,0.5,0.5v2.5c0,0.276,0.224,0.5,0.5,0.5s0.5-0.224,0.5-0.5V17
				C47.978,16.173,47.305,15.5,46.478,15.5z"/>
		</g>
	</g>
	<g>
		<g>
			<path class="st0" d="M44.478,15.5c-0.827,0-1.5,0.673-1.5,1.5v2.5c0,0.276,0.224,0.5,0.5,0.5s0.5-0.224,0.5-0.5V17
				c0-0.275,0.224-0.5,0.5-0.5s0.5,0.225,0.5,0.5v2.5c0,0.276,0.224,0.5,0.5,0.5s0.5-0.224,0.5-0.5V17
				C45.978,16.173,45.305,15.5,44.478,15.5z"/>
		</g>
	</g>
	<g>
		<g>
			<path class="st0" d="M34.764,26.719c-0.276,0-0.5,0.224-0.5,0.5v10c0,0.276,0.224,0.5,0.5,0.5s0.5-0.224,0.5-0.5v-10
				C35.264,26.942,35.04,26.719,34.764,26.719z"/>
		</g>
	</g>
	<g>
		<g>
			<g>
				<g>
					<g>
						<path class="st0" d="M63.5,56.75h-36c-0.276,0-0.5,0.224-0.5,0.5v4c0,0.276,0.224,0.5,0.5,0.5h36c0.276,0,0.5-0.224,0.5-0.5
							v-4C64,56.974,63.776,56.75,63.5,56.75z M63,60.75H28v-3h35V60.75z"/>
					</g>
				</g>
			</g>
		</g>
	</g>
	<g>
		<g>
			<g>
				<g>
					<g>
						<path class="st0" d="M60.5,44.75h-2c-0.827,0-1.5,0.673-1.5,1.5v10c0,0.827,0.673,1.5,1.5,1.5h2c0.827,0,1.5-0.673,1.5-1.5
							v-10C62,45.423,61.327,44.75,60.5,44.75z M61,56.25c0,0.275-0.224,0.5-0.5,0.5h-2c-0.276,0-0.5-0.225-0.5-0.5v-10
							c0-0.275,0.224-0.5,0.5-0.5h2c0.276,0,0.5,0.225,0.5,0.5V56.25z"/>
					</g>
				</g>
			</g>
		</g>
	</g>
	<g>
		<g>
			<path class="st0" d="M61.5,47.25h-4c-0.276,0-0.5,0.224-0.5,0.5s0.224,0.5,0.5,0.5h4c0.276,0,0.5-0.224,0.5-0.5
				S61.776,47.25,61.5,47.25z"/>
		</g>
	</g>
	<g>
		<g>
			<g>
				<g>
					<g>
						<path class="st0" d="M56.5,44.75h-2c-0.827,0-1.5,0.673-1.5,1.5v10c0,0.827,0.673,1.5,1.5,1.5h2c0.827,0,1.5-0.673,1.5-1.5
							v-10C58,45.423,57.327,44.75,56.5,44.75z M57,56.25c0,0.275-0.224,0.5-0.5,0.5h-2c-0.276,0-0.5-0.225-0.5-0.5v-10
							c0-0.275,0.224-0.5,0.5-0.5h2c0.276,0,0.5,0.225,0.5,0.5V56.25z"/>
					</g>
				</g>
			</g>
		</g>
	</g>
	<g>
		<g>
			<path class="st0" d="M57.5,47.25h-4c-0.276,0-0.5,0.224-0.5,0.5s0.224,0.5,0.5,0.5h4c0.276,0,0.5-0.224,0.5-0.5
				S57.776,47.25,57.5,47.25z"/>
		</g>
	</g>
	<g>
		<g>
			<path class="st0" d="M52.75,47.25h-4c-0.276,0-0.5,0.224-0.5,0.5s0.224,0.5,0.5,0.5h4c0.276,0,0.5-0.224,0.5-0.5
				S53.026,47.25,52.75,47.25z"/>
		</g>
	</g>
	<g>
		<g>
			<path class="st0" d="M59.5,5.25h-3c-0.276,0-0.5,0.224-0.5,0.5s0.224,0.5,0.5,0.5h3c0.276,0,0.5,0.225,0.5,0.5v3
				c0,0.276,0.224,0.5,0.5,0.5s0.5-0.224,0.5-0.5v-3C61,5.923,60.327,5.25,59.5,5.25z"/>
		</g>
	</g>
</g>
</svg>
