<?xml version="1.0" encoding="utf-8"?>
<!-- Generator: Adobe Illustrator 21.1.0, SVG Export Plug-In . SVG Version: 6.00 Build 0)  -->
<svg version="1.1" id="Icon_Set" xmlns="http://www.w3.org/2000/svg" xmlns:xlink="http://www.w3.org/1999/xlink" x="0px" y="0px"
	 viewBox="0 0 64 64" style="enable-background:new 0 0 64 64;" xml:space="preserve">
<style type="text/css">
	.st0{fill:#37474F;}
	.st1{fill:#EF5350;}
	.st2{fill:#FFCA28;}
	.st3{fill:#64B5F6;}
	.st4{fill:#FFFFFF;}
	.st5{fill:#FF7043;}
</style>
<g id="University">
	<g>
		<g>
			<path class="st0" d="M42.5,17h-21c-0.276,0-0.5,0.224-0.5,0.5v2c0,0.276,0.224,0.5,0.5,0.5s0.5-0.224,0.5-0.5V18h20v34.5
				c0,0.276,0.224,0.5,0.5,0.5s0.5-0.224,0.5-0.5v-35C43,17.224,42.776,17,42.5,17z"/>
		</g>
	</g>
	<g>
		<g>
			<path class="st0" d="M21.5,28c-0.276,0-0.5,0.224-0.5,0.5v24c0,0.276,0.224,0.5,0.5,0.5s0.5-0.224,0.5-0.5v-24
				C22,28.223,21.776,28,21.5,28z"/>
		</g>
	</g>
	<g>
		<g>
			<path class="st1" d="M19.5,21.5h-18c-0.552,0-1,0.448-1,1v3c0,0.552,0.448,1,1,1h18"/>
		</g>
	</g>
	<g>
		<g>
			<path class="st0" d="M19.5,26h-18C1.224,26,1,25.776,1,25.5v-3C1,22.224,1.224,22,1.5,22h18c0.276,0,0.5-0.224,0.5-0.5
				S19.776,21,19.5,21h-18C0.673,21,0,21.673,0,22.5v3C0,26.327,0.673,27,1.5,27h18c0.276,0,0.5-0.224,0.5-0.5S19.776,26,19.5,26z"
				/>
		</g>
	</g>
	<g>
		<g>
			<path class="st1" d="M44.5,26.5h18c0.552,0,1-0.448,1-1v-3c0-0.552-0.448-1-1-1h-18"/>
		</g>
	</g>
	<g>
		<g>
			<path class="st0" d="M62.5,21h-18c-0.276,0-0.5,0.224-0.5,0.5s0.224,0.5,0.5,0.5h18c0.276,0,0.5,0.224,0.5,0.5v3
				c0,0.276-0.224,0.5-0.5,0.5h-18c-0.276,0-0.5,0.224-0.5,0.5s0.224,0.5,0.5,0.5h18c0.827,0,1.5-0.673,1.5-1.5v-3
				C64,21.673,63.327,21,62.5,21z"/>
		</g>
	</g>
	<g>
		<g>
			<polygon class="st1" points="32,10.5 21.5,17.5 42.5,17.5 			"/>
		</g>
	</g>
	<g>
		<g>
			<g>
				<g>
					<path class="st0" d="M42.777,17.084l-10.5-7c-0.168-0.112-0.387-0.112-0.555,0l-10.5,7c-0.183,0.122-0.265,0.35-0.201,0.561
						S21.28,18,21.5,18h21c0.22,0,0.415-0.144,0.479-0.355S42.96,17.206,42.777,17.084z M23.151,17L32,11.101L40.849,17H23.151z"/>
				</g>
			</g>
		</g>
	</g>
	<g>
		<g>
			<path class="st0" d="M19.5,26H2c-0.276,0-0.5,0.224-0.5,0.5v33C1.5,60.327,2.173,61,3,61h12.5c0.276,0,0.5-0.224,0.5-0.5
				S15.776,60,15.5,60H3c-0.276,0-0.5-0.224-0.5-0.5V27h17c0.276,0,0.5-0.224,0.5-0.5S19.776,26,19.5,26z"/>
		</g>
	</g>
	<g>
		<g>
			<path class="st0" d="M62,26H44.5c-0.276,0-0.5,0.224-0.5,0.5s0.224,0.5,0.5,0.5h17v32.5c0,0.276-0.224,0.5-0.5,0.5H48.5
				c-0.276,0-0.5,0.224-0.5,0.5s0.224,0.5,0.5,0.5H61c0.827,0,1.5-0.673,1.5-1.5v-33C62.5,26.224,62.276,26,62,26z"/>
		</g>
	</g>
	<g>
		<g>
			<path class="st0" d="M21.5,22c-0.276,0-0.5,0.224-0.5,0.5v3c0,0.276,0.224,0.5,0.5,0.5s0.5-0.224,0.5-0.5v-3
				C22,22.223,21.776,22,21.5,22z"/>
		</g>
	</g>
	<g>
		<g>
			<rect x="5.5" y="32.5" class="st3" width="12" height="5"/>
		</g>
	</g>
	<g>
		<g>
			<g>
				<g>
					<path class="st0" d="M17.5,32h-12C5.224,32,5,32.224,5,32.5v5C5,37.776,5.224,38,5.5,38h12c0.276,0,0.5-0.224,0.5-0.5v-5
						C18,32.224,17.776,32,17.5,32z M17,37H6v-4h11V37z"/>
				</g>
			</g>
		</g>
	</g>
	<g>
		<g>
			<path class="st0" d="M11.5,32c-0.276,0-0.5,0.224-0.5,0.5v5c0,0.276,0.224,0.5,0.5,0.5s0.5-0.224,0.5-0.5v-5
				C12,32.224,11.776,32,11.5,32z"/>
		</g>
	</g>
	<g>
		<g>
			<rect x="5.5" y="43.5" class="st3" width="12" height="5"/>
		</g>
	</g>
	<g>
		<g>
			<g>
				<g>
					<path class="st0" d="M17.5,43h-12C5.224,43,5,43.224,5,43.5v5C5,48.776,5.224,49,5.5,49h12c0.276,0,0.5-0.224,0.5-0.5v-5
						C18,43.224,17.776,43,17.5,43z M17,48H6v-4h11V48z"/>
				</g>
			</g>
		</g>
	</g>
	<g>
		<g>
			<path class="st0" d="M11.5,43c-0.276,0-0.5,0.224-0.5,0.5v5c0,0.276,0.224,0.5,0.5,0.5s0.5-0.224,0.5-0.5v-5
				C12,43.224,11.776,43,11.5,43z"/>
		</g>
	</g>
	<g>
		<g>
			<rect x="46.5" y="32.5" class="st3" width="12" height="5"/>
		</g>
	</g>
	<g>
		<g>
			<g>
				<g>
					<path class="st0" d="M58.5,32h-12c-0.276,0-0.5,0.224-0.5,0.5v5c0,0.276,0.224,0.5,0.5,0.5h12c0.276,0,0.5-0.224,0.5-0.5v-5
						C59,32.224,58.776,32,58.5,32z M58,37H47v-4h11V37z"/>
				</g>
			</g>
		</g>
	</g>
	<g>
		<g>
			<path class="st0" d="M52.5,32c-0.276,0-0.5,0.224-0.5,0.5v5c0,0.276,0.224,0.5,0.5,0.5s0.5-0.224,0.5-0.5v-5
				C53,32.224,52.776,32,52.5,32z"/>
		</g>
	</g>
	<g>
		<g>
			<rect x="46.5" y="43.5" class="st3" width="12" height="5"/>
		</g>
	</g>
	<g>
		<g>
			<g>
				<g>
					<path class="st0" d="M58.5,43h-12c-0.276,0-0.5,0.224-0.5,0.5v5c0,0.276,0.224,0.5,0.5,0.5h12c0.276,0,0.5-0.224,0.5-0.5v-5
						C59,43.224,58.776,43,58.5,43z M58,48H47v-4h11V48z"/>
				</g>
			</g>
		</g>
	</g>
	<g>
		<g>
			<path class="st0" d="M52.5,43c-0.276,0-0.5,0.224-0.5,0.5v5c0,0.276,0.224,0.5,0.5,0.5s0.5-0.224,0.5-0.5v-5
				C53,43.224,52.776,43,52.5,43z"/>
		</g>
	</g>
	<g>
		<g>
			<circle class="st2" cx="32" cy="26.5" r="4.5"/>
		</g>
	</g>
	<g>
		<g>
			<g>
				<g>
					<path class="st0" d="M32,21.5c-2.757,0-5,2.243-5,5s2.243,5,5,5s5-2.243,5-5S34.757,21.5,32,21.5z M32,30.5
						c-2.206,0-4-1.794-4-4s1.794-4,4-4s4,1.794,4,4S34.206,30.5,32,30.5z"/>
				</g>
			</g>
		</g>
	</g>
	<g>
		<g>
			<path class="st0" d="M34,26h-1.5v-2c0-0.276-0.224-0.5-0.5-0.5s-0.5,0.224-0.5,0.5v2.5c0,0.276,0.224,0.5,0.5,0.5h2
				c0.276,0,0.5-0.224,0.5-0.5S34.276,26,34,26z"/>
		</g>
	</g>
	<g>
		<g>
			<path class="st0" d="M32,0c-0.276,0-0.5,0.224-0.5,0.5v10c0,0.276,0.224,0.5,0.5,0.5s0.5-0.224,0.5-0.5v-10
				C32.5,0.224,32.277,0,32,0z"/>
		</g>
	</g>
	<g>
		<g>
			<g>
				<g>
					<g>
						<path class="st0" d="M39,1h-7c-0.276,0-0.5,0.224-0.5,0.5v5C31.5,6.776,31.724,7,32,7h7c0.276,0,0.5-0.224,0.5-0.5v-5
							C39.5,1.224,39.276,1,39,1z M38.5,6h-6V2h6V6z"/>
					</g>
				</g>
			</g>
		</g>
	</g>
	<g>
		<g>
			<path class="st2" d="M32,41.5c-3.038,0-5.5,2.462-5.5,5.5v7.5h11V47C37.5,43.962,35.038,41.5,32,41.5z"/>
		</g>
	</g>
	<g>
		<g>
			<g>
				<g>
					<path class="st0" d="M32,41c-3.309,0-6,2.691-6,6v7.5c0,0.276,0.224,0.5,0.5,0.5h11c0.276,0,0.5-0.224,0.5-0.5V47
						C38,43.691,35.309,41,32,41z M37,54H27v-7c0-2.757,2.243-5,5-5s5,2.243,5,5V54z"/>
				</g>
			</g>
		</g>
	</g>
	<g>
		<g>
			<g>
				<g>
					<g>
						<path class="st0" d="M42.5,54h-21c-0.276,0-0.5,0.224-0.5,0.5v3c0,0.276,0.224,0.5,0.5,0.5h21c0.276,0,0.5-0.224,0.5-0.5v-3
							C43,54.224,42.776,54,42.5,54z M42,57H22v-2h20V57z"/>
					</g>
				</g>
			</g>
		</g>
	</g>
	<g>
		<g>
			<g>
				<g>
					<g>
						<path class="st0" d="M45,57H19c-0.276,0-0.5,0.224-0.5,0.5v3c0,0.276,0.224,0.5,0.5,0.5h26c0.276,0,0.5-0.224,0.5-0.5v-3
							C45.5,57.224,45.276,57,45,57z M44.5,60h-25v-2h25V60z"/>
					</g>
				</g>
			</g>
		</g>
	</g>
	<g>
		<g>
			<g>
				<g>
					<g>
						<path class="st0" d="M46.5,60h-29c-0.276,0-0.5,0.224-0.5,0.5v3c0,0.276,0.224,0.5,0.5,0.5h29c0.276,0,0.5-0.224,0.5-0.5v-3
							C47,60.224,46.776,60,46.5,60z M46,63H18v-2h28V63z"/>
					</g>
				</g>
			</g>
		</g>
	</g>
</g>
</svg>
