<?xml version="1.0" encoding="utf-8"?>
<!-- Generator: Adobe Illustrator 21.1.0, SVG Export Plug-In . SVG Version: 6.00 Build 0)  -->
<svg version="1.1" id="Icon_Set" xmlns="http://www.w3.org/2000/svg" xmlns:xlink="http://www.w3.org/1999/xlink" x="0px" y="0px"
	 viewBox="0 0 64 64" style="enable-background:new 0 0 64 64;" xml:space="preserve">
<style type="text/css">
	.st0{fill:#37474F;}
	.st1{fill:#EF5350;}
	.st2{fill:#FFCA28;}
	.st3{fill:#64B5F6;}
	.st4{fill:#FFFFFF;}
	.st5{fill:#FF7043;}
</style>
<g id="Video_Lesson">
	<g>
		<g>
			<rect x="2" y="10.25" class="st3" width="60" height="32"/>
		</g>
	</g>
	<g>
		<g>
			<rect x="18" y="10.25" class="st2" width="28" height="32"/>
		</g>
	</g>
	<g>
		<g>
			<g>
				<g>
					<path class="st0" d="M46,9.75H18c-0.276,0-0.5,0.224-0.5,0.5v32c0,0.276,0.224,0.5,0.5,0.5h28c0.276,0,0.5-0.224,0.5-0.5v-32
						C46.5,9.974,46.276,9.75,46,9.75z M45.5,41.75h-27v-31h27V41.75z"/>
				</g>
			</g>
		</g>
	</g>
	<g>
		<g>
			<path class="st0" d="M26,48.75c-0.276,0-0.5,0.224-0.5,0.5v3.5c0,0.276,0.224,0.5,0.5,0.5s0.5-0.224,0.5-0.5v-3.5
				C26.5,48.974,26.276,48.75,26,48.75z"/>
		</g>
	</g>
	<g>
		<g>
			<path class="st0" d="M38,48.75c-0.276,0-0.5,0.224-0.5,0.5v3.5c0,0.276,0.224,0.5,0.5,0.5s0.5-0.224,0.5-0.5v-3.5
				C38.5,48.974,38.276,48.75,38,48.75z"/>
		</g>
	</g>
	<g>
		<g>
			<g>
				<g>
					<g>
						<path class="st0" d="M42,54.25H22c-0.827,0-1.5,0.673-1.5,1.5v2c0,0.827,0.673,1.5,1.5,1.5h20c0.827,0,1.5-0.673,1.5-1.5v-2
							C43.5,54.923,42.827,54.25,42,54.25z M42.5,57.75c0,0.276-0.225,0.5-0.5,0.5H22c-0.275,0-0.5-0.224-0.5-0.5v-2
							c0-0.276,0.225-0.5,0.5-0.5h20c0.275,0,0.5,0.224,0.5,0.5V57.75z"/>
					</g>
				</g>
			</g>
		</g>
	</g>
	<g>
		<g>
			<path class="st0" d="M62,41.75H2c-0.276,0-0.5,0.224-0.5,0.5s0.224,0.5,0.5,0.5h60c0.276,0,0.5-0.224,0.5-0.5
				S62.276,41.75,62,41.75z"/>
		</g>
	</g>
	<g>
		<g>
			<path class="st0" d="M2,15.75c-0.276,0-0.5,0.224-0.5,0.5v3c0,0.276,0.224,0.5,0.5,0.5s0.5-0.224,0.5-0.5v-3
				C2.5,15.974,2.276,15.75,2,15.75z"/>
		</g>
	</g>
	<g>
		<g>
			<path class="st0" d="M57,4.75H7c-3.032,0-5.5,2.467-5.5,5.5v3c0,0.276,0.224,0.5,0.5,0.5s0.5-0.224,0.5-0.5v-3
				c0-2.481,2.019-4.5,4.5-4.5h50c2.481,0,4.5,2.019,4.5,4.5v32c0,2.481-2.019,4.5-4.5,4.5H7c-2.481,0-4.5-2.019-4.5-4.5v-20
				c0-0.276-0.224-0.5-0.5-0.5s-0.5,0.224-0.5,0.5v20c0,3.033,2.468,5.5,5.5,5.5h50c3.032,0,5.5-2.467,5.5-5.5v-32
				C62.5,7.217,60.032,4.75,57,4.75z"/>
		</g>
	</g>
	<g>
		<g>
			<path class="st0" d="M62,9.75H2c-0.276,0-0.5,0.224-0.5,0.5s0.224,0.5,0.5,0.5h60c0.276,0,0.5-0.224,0.5-0.5S62.276,9.75,62,9.75
				z"/>
		</g>
	</g>
	<g>
		<g>
			<rect x="46" y="10.25" class="st4" width="6" height="32"/>
		</g>
	</g>
	<g>
		<g>
			<g>
				<g>
					<path class="st0" d="M52,9.75h-6c-0.276,0-0.5,0.224-0.5,0.5v32c0,0.276,0.224,0.5,0.5,0.5h6c0.276,0,0.5-0.224,0.5-0.5v-32
						C52.5,9.974,52.276,9.75,52,9.75z M51.5,41.75h-5v-31h5V41.75z"/>
				</g>
			</g>
		</g>
	</g>
	<g>
		<g>
			<rect x="12" y="10.25" class="st4" width="6" height="32"/>
		</g>
	</g>
	<g>
		<g>
			<g>
				<g>
					<path class="st0" d="M18,9.75h-6c-0.276,0-0.5,0.224-0.5,0.5v32c0,0.276,0.224,0.5,0.5,0.5h6c0.276,0,0.5-0.224,0.5-0.5v-32
						C18.5,9.974,18.276,9.75,18,9.75z M17.5,41.75h-5v-31h5V41.75z"/>
				</g>
			</g>
		</g>
	</g>
	<g>
		<g>
			<path class="st0" d="M18,14.75h-6c-0.276,0-0.5,0.224-0.5,0.5s0.224,0.5,0.5,0.5h6c0.276,0,0.5-0.224,0.5-0.5
				S18.276,14.75,18,14.75z"/>
		</g>
	</g>
	<g>
		<g>
			<path class="st0" d="M18,20.25h-6c-0.276,0-0.5,0.224-0.5,0.5s0.224,0.5,0.5,0.5h6c0.276,0,0.5-0.224,0.5-0.5
				S18.276,20.25,18,20.25z"/>
		</g>
	</g>
	<g>
		<g>
			<path class="st0" d="M18,25.75h-6c-0.276,0-0.5,0.224-0.5,0.5s0.224,0.5,0.5,0.5h6c0.276,0,0.5-0.224,0.5-0.5
				S18.276,25.75,18,25.75z"/>
		</g>
	</g>
	<g>
		<g>
			<path class="st0" d="M18,31.25h-6c-0.276,0-0.5,0.224-0.5,0.5s0.224,0.5,0.5,0.5h6c0.276,0,0.5-0.224,0.5-0.5
				S18.276,31.25,18,31.25z"/>
		</g>
	</g>
	<g>
		<g>
			<path class="st0" d="M18,36.75h-6c-0.276,0-0.5,0.224-0.5,0.5s0.224,0.5,0.5,0.5h6c0.276,0,0.5-0.224,0.5-0.5
				S18.276,36.75,18,36.75z"/>
		</g>
	</g>
	<g>
		<g>
			<path class="st0" d="M52,14.75h-6c-0.276,0-0.5,0.224-0.5,0.5s0.224,0.5,0.5,0.5h6c0.276,0,0.5-0.224,0.5-0.5
				S52.276,14.75,52,14.75z"/>
		</g>
	</g>
	<g>
		<g>
			<path class="st0" d="M52,20.25h-6c-0.276,0-0.5,0.224-0.5,0.5s0.224,0.5,0.5,0.5h6c0.276,0,0.5-0.224,0.5-0.5
				S52.276,20.25,52,20.25z"/>
		</g>
	</g>
	<g>
		<g>
			<path class="st0" d="M52,25.75h-6c-0.276,0-0.5,0.224-0.5,0.5s0.224,0.5,0.5,0.5h6c0.276,0,0.5-0.224,0.5-0.5
				S52.276,25.75,52,25.75z"/>
		</g>
	</g>
	<g>
		<g>
			<path class="st0" d="M52,31.25h-6c-0.276,0-0.5,0.224-0.5,0.5s0.224,0.5,0.5,0.5h6c0.276,0,0.5-0.224,0.5-0.5
				S52.276,31.25,52,31.25z"/>
		</g>
	</g>
	<g>
		<g>
			<path class="st0" d="M52,36.75h-6c-0.276,0-0.5,0.224-0.5,0.5s0.224,0.5,0.5,0.5h6c0.276,0,0.5-0.224,0.5-0.5
				S52.276,36.75,52,36.75z"/>
		</g>
	</g>
	<g>
		<g>
			<ellipse transform="matrix(0.7071 -0.7071 0.7071 0.7071 -9.1888 30.3164)" class="st1" cx="32" cy="26.25" rx="9" ry="9"/>
		</g>
	</g>
	<g>
		<g>
			<path class="st0" d="M26.98,18.761c-0.166-0.221-0.481-0.262-0.7-0.097c-0.352,0.267-0.688,0.559-0.997,0.869
				c-0.312,0.312-0.604,0.647-0.868,0.996c-0.167,0.22-0.123,0.534,0.097,0.701c0.091,0.068,0.196,0.101,0.302,0.101
				c0.151,0,0.301-0.068,0.398-0.198c0.236-0.312,0.498-0.612,0.778-0.893c0.277-0.278,0.578-0.54,0.894-0.778
				C27.104,19.294,27.147,18.981,26.98,18.761z"/>
		</g>
	</g>
	<g>
		<g>
			<path class="st0" d="M38.718,19.533c-2.616-2.617-6.55-3.478-10.024-2.191c-0.259,0.096-0.391,0.384-0.295,0.643
				s0.382,0.392,0.643,0.295c3.107-1.15,6.628-0.381,8.97,1.96c3.314,3.314,3.314,8.707,0,12.021c-1.605,1.605-3.74,2.49-6.01,2.49
				c-2.271,0-4.405-0.884-6.011-2.49c-2.343-2.343-3.111-5.864-1.959-8.972c0.096-0.259-0.036-0.546-0.295-0.643
				c-0.261-0.097-0.546,0.037-0.643,0.295c-1.288,3.473-0.429,7.409,2.189,10.027c1.794,1.794,4.18,2.783,6.718,2.783
				c2.537,0,4.923-0.988,6.717-2.783C42.422,29.263,42.422,23.237,38.718,19.533z"/>
		</g>
	</g>
	<g>
		<g>
			<path class="st4" d="M35.164,25.409l-4.151-2.668c-0.666-0.428-1.541,0.05-1.541,0.841v5.337c0,0.791,0.875,1.269,1.541,0.841
				l4.151-2.668C35.776,26.698,35.776,25.802,35.164,25.409z"/>
		</g>
	</g>
	<g>
		<g>
			<g>
				<g>
					<path class="st0" d="M35.435,24.988l-4.151-2.668c-0.468-0.302-1.038-0.322-1.529-0.056c-0.481,0.263-0.781,0.768-0.781,1.317
						v5.337c0,0.549,0.3,1.054,0.781,1.317c0.229,0.125,0.475,0.186,0.72,0.186c0.28,0,0.56-0.081,0.81-0.242l4.151-2.668
						c0.432-0.277,0.688-0.749,0.688-1.262S35.866,25.265,35.435,24.988z M34.894,26.671l-4.151,2.668
						c-0.223,0.145-0.43,0.062-0.509,0.019c-0.078-0.043-0.261-0.171-0.261-0.439v-5.337c0-0.268,0.183-0.396,0.261-0.439
						c0.045-0.024,0.133-0.063,0.242-0.063c0.08,0,0.172,0.021,0.267,0.082l4.151,2.668c0.146,0.094,0.229,0.248,0.229,0.421
						S35.04,26.577,34.894,26.671z"/>
				</g>
			</g>
		</g>
	</g>
</g>
</svg>
