<?xml version="1.0" encoding="utf-8"?>
<!-- Generator: Adobe Illustrator 21.1.0, SVG Export Plug-In . SVG Version: 6.00 Build 0)  -->
<svg version="1.1" id="Icon_Set" xmlns="http://www.w3.org/2000/svg" xmlns:xlink="http://www.w3.org/1999/xlink" x="0px" y="0px"
	 viewBox="0 0 64 64" style="enable-background:new 0 0 64 64;" xml:space="preserve">
<style type="text/css">
	.st0{fill:#37474F;}
	.st1{fill:#EF5350;}
	.st2{fill:#FFCA28;}
	.st3{fill:#64B5F6;}
	.st4{fill:#FFFFFF;}
	.st5{fill:#FF7043;}
</style>
<g id="Virtual_Education">
	<g>
		<g>
			<path class="st3" d="M50.5,0.5h-45c-2.761,0-5,2.239-5,5v4h55v-4C55.5,2.738,53.261,0.5,50.5,0.5z"/>
		</g>
	</g>
	<g>
		<g>
			<g>
				<g>
					<path class="st0" d="M50.5,0h-45C2.468,0,0,2.467,0,5.5v4C0,9.776,0.224,10,0.5,10h55c0.276,0,0.5-0.224,0.5-0.5v-4
						C56,2.467,53.532,0,50.5,0z M55,9H1V5.5C1,3.019,3.019,1,5.5,1h45C52.981,1,55,3.019,55,5.5V9z"/>
				</g>
			</g>
		</g>
	</g>
	<g>
		<g>
			<g>
				<g>
					<g>
						<path class="st0" d="M50.312,14.146h-18c-0.827,0-1.5,0.673-1.5,1.5v11c0,0.827,0.673,1.5,1.5,1.5h18
							c0.827,0,1.5-0.673,1.5-1.5v-11C51.812,14.819,51.139,14.146,50.312,14.146z M50.812,26.646c0,0.276-0.225,0.5-0.5,0.5h-18
							c-0.275,0-0.5-0.224-0.5-0.5v-11c0-0.276,0.225-0.5,0.5-0.5h18c0.275,0,0.5,0.224,0.5,0.5V26.646z"/>
					</g>
				</g>
			</g>
		</g>
	</g>
	<g>
		<g>
			<g>
				<circle class="st4" cx="5" cy="5" r="1.5"/>
			</g>
		</g>
		<g>
			<g>
				<g>
					<g>
						<path class="st0" d="M5,3C3.897,3,3,3.897,3,5s0.897,2,2,2s2-0.897,2-2S6.103,3,5,3z M5,6C4.448,6,4,5.551,4,5s0.448-1,1-1
							s1,0.449,1,1S5.552,6,5,6z"/>
					</g>
				</g>
			</g>
		</g>
	</g>
	<g>
		<g>
			<g>
				<circle class="st4" cx="10" cy="5" r="1.5"/>
			</g>
		</g>
		<g>
			<g>
				<g>
					<g>
						<path class="st0" d="M10,3C8.897,3,8,3.897,8,5s0.897,2,2,2s2-0.897,2-2S11.103,3,10,3z M10,6C9.448,6,9,5.551,9,5
							s0.448-1,1-1s1,0.449,1,1S10.552,6,10,6z"/>
					</g>
				</g>
			</g>
		</g>
	</g>
	<g>
		<g>
			<g>
				<circle class="st4" cx="15" cy="5" r="1.5"/>
			</g>
		</g>
		<g>
			<g>
				<g>
					<g>
						<path class="st0" d="M15,3c-1.103,0-2,0.897-2,2s0.897,2,2,2s2-0.897,2-2S16.103,3,15,3z M15,6c-0.552,0-1-0.449-1-1
							s0.448-1,1-1s1,0.449,1,1S15.552,6,15,6z"/>
					</g>
				</g>
			</g>
		</g>
	</g>
	<g>
		<g>
			<path class="st1" d="M63.207,50.479l-2.828-2.828c-0.391-0.391-1.024-0.391-1.414,0L47.651,58.964
				c-0.391,0.391-0.391,1.024,0,1.414l2.828,2.828c0.391,0.391,1.024,0.391,1.414,0l11.314-11.314
				C63.598,51.503,63.598,50.87,63.207,50.479z"/>
		</g>
	</g>
	<g>
		<g>
			<g>
				<g>
					<path class="st0" d="M63.561,50.125l-2.828-2.828c-0.584-0.585-1.537-0.585-2.121,0L47.297,58.611
						c-0.584,0.584-0.584,1.536,0,2.121l2.829,2.828c0.292,0.292,0.677,0.438,1.061,0.438s0.769-0.146,1.061-0.438l11.313-11.313
						C64.146,51.662,64.146,50.71,63.561,50.125z M62.854,51.54L51.54,62.854c-0.195,0.195-0.512,0.194-0.707,0l-2.829-2.828
						c-0.194-0.195-0.194-0.513,0-0.708l11.314-11.313c0.098-0.098,0.226-0.146,0.354-0.146s0.256,0.048,0.354,0.146l2.828,2.828
						C63.049,51.028,63.049,51.345,62.854,51.54z"/>
				</g>
			</g>
		</g>
	</g>
	<g>
		<g>
			<g>
				<g>
					<g>
						<path class="st0" d="M58.756,48.138l-1.304-3.26c-1.037-2.593-2.563-4.909-4.537-6.882l-6.896-6.895
							c-1.133-1.134-2.942-1.268-4.115-0.308c-0.659,0.539-1.062,1.333-1.104,2.178c-0.013,0.252,0.007,0.503,0.057,0.746
							c-0.952-0.191-1.979,0.082-2.718,0.818c-0.566,0.566-0.879,1.32-0.879,2.121c0,0.203,0.02,0.402,0.059,0.596
							c-0.95-0.191-1.979,0.082-2.715,0.818c-0.527,0.527-0.834,1.216-0.874,1.954l-7.258-7.257c-1.17-1.171-3.073-1.168-4.243,0
							c-1.169,1.17-1.169,3.073,0,4.243l10.107,10.106h-3.805c-1.647,0-2.988,1.341-2.988,2.989c0,1.399,0.993,2.628,2.361,2.922
							l11.654,2.5c1.074,0.23,2.134,0.554,3.15,0.961l5.497,2.199c0.06,0.024,0.123,0.036,0.186,0.036
							c0.13,0,0.258-0.051,0.354-0.146l9.899-9.899C58.787,48.535,58.83,48.323,58.756,48.138z M48.272,57.636l-5.191-2.076
							c-1.068-0.428-2.183-0.768-3.312-1.01l-11.653-2.5c-0.91-0.196-1.571-1.014-1.571-1.945c0-1.097,0.892-1.989,1.988-1.989
							h5.012c0.202,0,0.385-0.122,0.462-0.309s0.034-0.402-0.108-0.545l-10.961-10.96c-0.779-0.78-0.779-2.049,0-2.829
							c0.778-0.779,2.049-0.78,2.829,0l8.834,8.834c0.002,0.002,0.003,0.003,0.005,0.005c0.195,0.195,0.512,0.195,0.707,0
							s0.195-0.512,0-0.707c-0.378-0.378-0.586-0.88-0.586-1.414s0.208-1.037,0.586-1.415c0.779-0.779,2.049-0.779,2.828,0
							c0.195,0.195,0.512,0.195,0.707,0c0.098-0.098,0.146-0.226,0.146-0.354s-0.049-0.256-0.146-0.354
							c-0.378-0.378-0.586-0.88-0.586-1.414s0.208-1.036,0.586-1.414c0.78-0.781,2.051-0.78,2.829,0
							c0.195,0.195,0.512,0.195,0.707,0c0.195-0.195,0.195-0.512,0-0.707c-0.399-0.399-0.611-0.951-0.584-1.515
							c0.029-0.571,0.291-1.087,0.738-1.453c0.78-0.64,2-0.535,2.775,0.241l6.896,6.895c1.877,1.877,3.329,4.08,4.316,6.546
							l1.181,2.954L48.272,57.636z"/>
					</g>
				</g>
			</g>
		</g>
	</g>
	<g>
		<g>
			<path class="st0" d="M27.599,44H5.5C3.019,44,1,41.981,1,39.5v-18C1,21.224,0.776,21,0.5,21S0,21.224,0,21.5v18
				C0,42.533,2.468,45,5.5,45h22.099c0.276,0,0.5-0.224,0.5-0.5S27.875,44,27.599,44z"/>
		</g>
	</g>
	<g>
		<g>
			<path class="st0" d="M0.5,15C0.224,15,0,15.224,0,15.5v3C0,18.776,0.224,19,0.5,19S1,18.776,1,18.5v-3C1,15.224,0.776,15,0.5,15z
				"/>
		</g>
	</g>
	<g>
		<g>
			<path class="st0" d="M50.5,0h-45C2.468,0,0,2.467,0,5.5v7C0,12.776,0.224,13,0.5,13S1,12.776,1,12.5v-7C1,3.019,3.019,1,5.5,1h45
				C52.981,1,55,3.019,55,5.5v32.96c0,0.276,0.224,0.5,0.5,0.5s0.5-0.224,0.5-0.5V5.5C56,2.467,53.532,0,50.5,0z"/>
		</g>
	</g>
	<g>
		<g>
			<g>
				<line class="st4" x1="38.493" y1="38.424" x2="40.615" y2="40.545"/>
			</g>
		</g>
		<g>
			<g>
				<path class="st0" d="M40.968,40.191l-2.121-2.122c-0.195-0.195-0.512-0.195-0.707,0s-0.195,0.512,0,0.707l2.121,2.122
					c0.098,0.098,0.226,0.146,0.354,0.146s0.256-0.049,0.354-0.146C41.163,40.703,41.163,40.387,40.968,40.191z"/>
			</g>
		</g>
	</g>
	<g>
		<g>
			<g>
				<line class="st4" x1="42.029" y1="34.888" x2="44.15" y2="37.009"/>
			</g>
		</g>
		<g>
			<g>
				<path class="st0" d="M44.504,36.656l-2.121-2.121c-0.195-0.195-0.512-0.195-0.707,0s-0.195,0.512,0,0.707l2.121,2.121
					c0.098,0.098,0.226,0.146,0.354,0.146s0.256-0.049,0.354-0.146C44.699,37.167,44.699,36.851,44.504,36.656z"/>
			</g>
		</g>
	</g>
	<g>
		<g>
			<g>
				<line class="st4" x1="34.958" y1="41.959" x2="37.079" y2="44.08"/>
			</g>
		</g>
		<g>
			<g>
				<path class="st0" d="M37.433,43.727l-2.121-2.122c-0.195-0.195-0.512-0.195-0.707,0s-0.195,0.512,0,0.707l2.121,2.122
					c0.098,0.098,0.226,0.146,0.354,0.146s0.256-0.049,0.354-0.146C37.628,44.239,37.628,43.922,37.433,43.727z"/>
			</g>
		</g>
	</g>
	<g>
		<g>
			<polygon class="st2" points="16,14.5 4,18.5 16,22.5 28,18.5 			"/>
		</g>
	</g>
	<g>
		<g>
			<g>
				<g>
					<path class="st0" d="M28.158,18.026l-12-4c-0.104-0.034-0.213-0.034-0.316,0l-12,4C3.638,18.094,3.5,18.285,3.5,18.5
						s0.138,0.406,0.342,0.474l12,4C15.894,22.991,15.946,23,16,23s0.106-0.009,0.158-0.026l12-4
						c0.204-0.068,0.342-0.259,0.342-0.474S28.362,18.094,28.158,18.026z M16,21.973L5.581,18.5L16,15.027L26.419,18.5L16,21.973z"
						/>
				</g>
			</g>
		</g>
	</g>
	<g>
		<g>
			<path class="st2" d="M16,22.5l-7-2.333V26.5c4.187,2.991,9.813,2.991,14,0v-6.333L16,22.5z"/>
		</g>
	</g>
	<g>
		<g>
			<g>
				<g>
					<path class="st0" d="M23.292,19.761c-0.13-0.094-0.298-0.121-0.45-0.068L16,21.973l-6.842-2.281
						c-0.154-0.052-0.32-0.026-0.45,0.068C8.577,19.855,8.5,20.006,8.5,20.167V26.5c0,0.162,0.078,0.313,0.209,0.407
						c2.181,1.557,4.736,2.336,7.291,2.336s5.11-0.779,7.291-2.336c0.131-0.094,0.209-0.245,0.209-0.407v-6.333
						C23.5,20.006,23.423,19.855,23.292,19.761z M22.5,26.239c-3.92,2.672-9.08,2.672-13,0V20.86l6.342,2.114
						c0.104,0.034,0.213,0.034,0.316,0L22.5,20.86V26.239z"/>
				</g>
			</g>
		</g>
	</g>
	<g>
		<g>
			<path class="st0" d="M26.5,18.5c-0.276,0-0.5,0.224-0.5,0.5v4.256c0,0.276,0.224,0.5,0.5,0.5s0.5-0.224,0.5-0.5V19
				C27,18.724,26.776,18.5,26.5,18.5z"/>
		</g>
	</g>
	<g>
		<g>
			<path class="st0" d="M48.812,17.146h-15c-0.276,0-0.5,0.224-0.5,0.5s0.224,0.5,0.5,0.5h15c0.276,0,0.5-0.224,0.5-0.5
				S49.088,17.146,48.812,17.146z"/>
		</g>
	</g>
	<g>
		<g>
			<path class="st0" d="M48.812,20.146h-15c-0.276,0-0.5,0.224-0.5,0.5s0.224,0.5,0.5,0.5h15c0.276,0,0.5-0.224,0.5-0.5
				S49.088,20.146,48.812,20.146z"/>
		</g>
	</g>
	<g>
		<g>
			<path class="st0" d="M41.312,23.146h-7.5c-0.276,0-0.5,0.224-0.5,0.5s0.224,0.5,0.5,0.5h7.5c0.276,0,0.5-0.224,0.5-0.5
				S41.588,23.146,41.312,23.146z"/>
		</g>
	</g>
</g>
</svg>
