<?xml version="1.0" encoding="utf-8"?>
<!-- Generator: Adobe Illustrator 21.1.0, SVG Export Plug-In . SVG Version: 6.00 Build 0)  -->
<svg version="1.1" id="Icon_Set" xmlns="http://www.w3.org/2000/svg" xmlns:xlink="http://www.w3.org/1999/xlink" x="0px" y="0px"
	 viewBox="0 0 64 64" style="enable-background:new 0 0 64 64;" xml:space="preserve">
<style type="text/css">
	.st0{fill:#37474F;}
	.st1{fill:#EF5350;}
	.st2{fill:#FFCA28;}
	.st3{fill:#64B5F6;}
	.st4{fill:#FFFFFF;}
	.st5{fill:#FF7043;}
</style>
<g id="Webinar">
	<g>
		<g>
			<g>
				<g>
					<g>
						<g>
							<path class="st0" d="M16.003,41.5c-3.032,0-5.5,2.468-5.5,5.5s2.468,5.5,5.5,5.5s5.5-2.468,5.5-5.5S19.035,41.5,16.003,41.5z
								 M16.003,51.5c-2.481,0-4.5-2.019-4.5-4.5s2.019-4.5,4.5-4.5s4.5,2.019,4.5,4.5S18.484,51.5,16.003,51.5z"/>
						</g>
					</g>
				</g>
			</g>
		</g>
		<g>
			<g>
				<path class="st0" d="M13.993,51.325c0-0.276-0.224-0.5-0.5-0.5s-0.5,0.225-0.5,0.5l0.001,0.857L9.26,53.879
					C8.19,54.364,7.5,55.437,7.5,56.61V60c0,0.276,0.224,0.5,0.5,0.5s0.5-0.224,0.5-0.5v-3.39c0-0.782,0.461-1.497,1.174-1.821
					l4.027-1.829c0.179-0.081,0.293-0.259,0.293-0.455L13.993,51.325z"/>
			</g>
		</g>
		<g>
			<g>
				<path class="st0" d="M22.742,53.878l-3.748-1.705l-0.001-0.837c0-0.276-0.224-0.5-0.5-0.5s-0.5,0.225-0.5,0.5l0.001,1.159
					c0,0.196,0.114,0.374,0.293,0.455l4.041,1.838c0.712,0.324,1.172,1.038,1.172,1.82V60c0,0.276,0.224,0.5,0.5,0.5
					s0.5-0.224,0.5-0.5v-3.392C24.5,55.436,23.81,54.364,22.742,53.878z"/>
			</g>
		</g>
	</g>
	<g>
		<g>
			<g>
				<g>
					<g>
						<g>
							<path class="st0" d="M32.002,41.5c-3.032,0-5.5,2.468-5.5,5.5s2.468,5.5,5.5,5.5s5.5-2.468,5.5-5.5S35.034,41.5,32.002,41.5z
								 M32.002,51.5c-2.481,0-4.5-2.019-4.5-4.5s2.019-4.5,4.5-4.5s4.5,2.019,4.5,4.5S34.483,51.5,32.002,51.5z"/>
						</g>
					</g>
				</g>
			</g>
		</g>
		<g>
			<g>
				<path class="st0" d="M29.993,51.325c0-0.276-0.224-0.5-0.5-0.5s-0.5,0.225-0.5,0.5l0.001,0.857l-3.733,1.696
					c-1.069,0.484-1.761,1.557-1.761,2.731V60c0,0.276,0.224,0.5,0.5,0.5s0.5-0.224,0.5-0.5v-3.39c0-0.783,0.461-1.498,1.174-1.821
					l4.027-1.829c0.179-0.081,0.293-0.259,0.293-0.455L29.993,51.325z"/>
			</g>
		</g>
		<g>
			<g>
				<path class="st0" d="M38.742,53.878l-3.748-1.705l-0.001-0.837c0-0.276-0.224-0.5-0.5-0.5s-0.5,0.224-0.5,0.5v1.159
					c0,0.196,0.114,0.374,0.293,0.455l4.042,1.838c0.712,0.324,1.172,1.039,1.172,1.82V60c0,0.276,0.224,0.5,0.5,0.5
					s0.5-0.224,0.5-0.5v-3.392C40.5,55.437,39.811,54.364,38.742,53.878z"/>
			</g>
		</g>
	</g>
	<g>
		<g>
			<g>
				<g>
					<g>
						<g>
							<path class="st0" d="M48.002,41.5c-3.032,0-5.5,2.468-5.5,5.5s2.468,5.5,5.5,5.5s5.5-2.468,5.5-5.5S51.034,41.5,48.002,41.5z
								 M48.002,51.5c-2.481,0-4.5-2.019-4.5-4.5s2.019-4.5,4.5-4.5s4.5,2.019,4.5,4.5S50.483,51.5,48.002,51.5z"/>
						</g>
					</g>
				</g>
			</g>
		</g>
		<g>
			<g>
				<path class="st0" d="M45.993,51.325c0-0.276-0.224-0.5-0.5-0.5s-0.5,0.225-0.5,0.5l0.001,0.857l-3.735,1.696
					C40.19,54.364,39.5,55.437,39.5,56.61V60c0,0.276,0.224,0.5,0.5,0.5s0.5-0.224,0.5-0.5v-3.39c0-0.783,0.46-1.498,1.173-1.821
					l4.028-1.829c0.179-0.081,0.293-0.259,0.293-0.455L45.993,51.325z"/>
			</g>
		</g>
		<g>
			<g>
				<path class="st0" d="M54.741,53.878l-3.747-1.705l-0.001-0.837c0-0.276-0.224-0.5-0.5-0.5s-0.5,0.224-0.5,0.5v1.159
					c0,0.196,0.114,0.374,0.293,0.455l4.041,1.838c0.713,0.324,1.173,1.039,1.173,1.82V60c0,0.276,0.224,0.5,0.5,0.5
					s0.5-0.224,0.5-0.5v-3.392C56.5,55.436,55.81,54.364,54.741,53.878z"/>
			</g>
		</g>
	</g>
	<g>
		<g>
			<g>
				<g>
					<g>
						<path class="st0" d="M32.002,12.5c-3.584,0-6.5,2.916-6.5,6.5s2.916,6.5,6.5,6.5s6.5-2.916,6.5-6.5S35.586,12.5,32.002,12.5z
							 M32.002,24.5c-3.032,0-5.5-2.468-5.5-5.5s2.468-5.5,5.5-5.5s5.5,2.468,5.5,5.5S35.034,24.5,32.002,24.5z"/>
					</g>
				</g>
			</g>
		</g>
	</g>
	<g>
		<g>
			<path class="st2" d="M42.002,40V30c0-2.761-2.239-5-5-5h-1.5l-3.5,4l-3.5-4h-1.5c-2.761,0-5,2.239-5,5v10"/>
		</g>
	</g>
	<g>
		<g>
			<path class="st0" d="M37.002,24.5h-1.5c-0.145,0-0.281,0.062-0.376,0.171l-3.124,3.569l-3.124-3.569
				c-0.095-0.108-0.231-0.171-0.376-0.171h-1.5c-3.032,0-5.5,2.468-5.5,5.5v10c0,0.276,0.224,0.5,0.5,0.5s0.5-0.224,0.5-0.5V30
				c0-2.481,2.019-4.5,4.5-4.5h1.273l3.351,3.829c0.189,0.217,0.562,0.217,0.752,0l3.351-3.829h1.273c2.481,0,4.5,2.019,4.5,4.5v10
				c0,0.276,0.224,0.5,0.5,0.5s0.5-0.224,0.5-0.5V30C42.502,26.968,40.034,24.5,37.002,24.5z"/>
		</g>
	</g>
	<g>
		<g>
			<path class="st0" d="M32.002,28.5c-0.276,0-0.5,0.224-0.5,0.5v5c0,0.276,0.224,0.5,0.5,0.5s0.5-0.224,0.5-0.5v-5
				C32.502,28.724,32.278,28.5,32.002,28.5z"/>
		</g>
	</g>
	<g>
		<g>
			<path class="st0" d="M26.002,31c-0.276,0-0.5,0.224-0.5,0.5V40c0,0.276,0.224,0.5,0.5,0.5s0.5-0.224,0.5-0.5v-8.5
				C26.502,31.224,26.278,31,26.002,31z"/>
		</g>
	</g>
	<g>
		<g>
			<path class="st0" d="M38.002,31c-0.276,0-0.5,0.224-0.5,0.5V40c0,0.276,0.224,0.5,0.5,0.5s0.5-0.224,0.5-0.5v-8.5
				C38.502,31.224,38.278,31,38.002,31z"/>
		</g>
	</g>
	<g>
		<g>
			<path class="st0" d="M9.003,46.5H6c-1.103,0-2-0.897-2-2v-23C4,21.224,3.776,21,3.5,21S3,21.224,3,21.5v23c0,1.654,1.346,3,3,3
				h3.003c0.276,0,0.5-0.224,0.5-0.5S9.279,46.5,9.003,46.5z"/>
		</g>
	</g>
	<g>
		<g>
			<path class="st0" d="M25.002,46.5h-1.999c-0.276,0-0.5,0.224-0.5,0.5s0.224,0.5,0.5,0.5h1.999c0.276,0,0.5-0.224,0.5-0.5
				S25.278,46.5,25.002,46.5z"/>
		</g>
	</g>
	<g>
		<g>
			<path class="st0" d="M41.002,46.5h-2c-0.276,0-0.5,0.224-0.5,0.5s0.224,0.5,0.5,0.5h2c0.276,0,0.5-0.224,0.5-0.5
				S41.278,46.5,41.002,46.5z"/>
		</g>
	</g>
	<g>
		<g>
			<path class="st0" d="M60.5,8.5C60.224,8.5,60,8.724,60,9v35.5c0,1.103-0.897,2-2,2h-2.998c-0.276,0-0.5,0.224-0.5,0.5
				s0.224,0.5,0.5,0.5H58c1.654,0,3-1.346,3-3V9C61,8.724,60.776,8.5,60.5,8.5z"/>
		</g>
	</g>
	<g>
		<g>
			<g>
				<path class="st0" d="M3.5,8.5C3.224,8.5,3,8.724,3,9v3.5C3,12.776,3.224,13,3.5,13S4,12.776,4,12.5V9C4,8.724,3.776,8.5,3.5,8.5
					z"/>
			</g>
		</g>
	</g>
	<g>
		<g>
			<g>
				<path class="st0" d="M3.5,15C3.224,15,3,15.224,3,15.5v3C3,18.776,3.224,19,3.5,19S4,18.776,4,18.5v-3C4,15.224,3.776,15,3.5,15
					z"/>
			</g>
		</g>
	</g>
	<g>
		<g>
			<path class="st1" d="M62.5,4h-61c-0.552,0-1,0.448-1,1v1c0,0.552,0.448,1,1,1h61c0.552,0,1-0.448,1-1V5
				C63.5,4.448,63.052,4,62.5,4z"/>
		</g>
	</g>
	<g>
		<g>
			<g>
				<g>
					<path class="st0" d="M62.5,3.5h-61C0.673,3.5,0,4.173,0,5v1c0,0.827,0.673,1.5,1.5,1.5h61C63.327,7.5,64,6.827,64,6V5
						C64,4.173,63.327,3.5,62.5,3.5z M63,6c0,0.275-0.225,0.5-0.5,0.5h-61C1.225,6.5,1,6.275,1,6V5c0-0.275,0.225-0.5,0.5-0.5h61
						C62.775,4.5,63,4.725,63,5V6z"/>
				</g>
			</g>
		</g>
	</g>
	<g>
		<g>
			<path class="st3" d="M53.502,13h-8c-0.552,0-1,0.448-1,1v8c0,0.552,0.448,1,1,1h8c0.552,0,1-0.448,1-1v-8
				C54.502,13.448,54.054,13,53.502,13z"/>
		</g>
	</g>
	<g>
		<g>
			<g>
				<g>
					<path class="st0" d="M53.502,12.5h-8c-0.827,0-1.5,0.673-1.5,1.5v8c0,0.827,0.673,1.5,1.5,1.5h8c0.827,0,1.5-0.673,1.5-1.5v-8
						C55.002,13.173,54.329,12.5,53.502,12.5z M54.002,22c0,0.275-0.225,0.5-0.5,0.5h-8c-0.275,0-0.5-0.225-0.5-0.5v-8
						c0-0.275,0.225-0.5,0.5-0.5h8c0.275,0,0.5,0.225,0.5,0.5V22z"/>
				</g>
			</g>
		</g>
	</g>
	<g>
		<g>
			<path class="st3" d="M18.502,13h-8c-0.552,0-1,0.448-1,1v8c0,0.552,0.448,1,1,1h8c0.552,0,1-0.448,1-1v-8
				C19.502,13.448,19.054,13,18.502,13z"/>
		</g>
	</g>
	<g>
		<g>
			<g>
				<g>
					<path class="st0" d="M18.502,12.5h-8c-0.827,0-1.5,0.673-1.5,1.5v8c0,0.827,0.673,1.5,1.5,1.5h8c0.827,0,1.5-0.673,1.5-1.5v-8
						C20.002,13.173,19.329,12.5,18.502,12.5z M19.002,22c0,0.275-0.225,0.5-0.5,0.5h-8c-0.275,0-0.5-0.225-0.5-0.5v-8
						c0-0.275,0.225-0.5,0.5-0.5h8c0.275,0,0.5,0.225,0.5,0.5V22z"/>
				</g>
			</g>
		</g>
	</g>
</g>
</svg>
