<?xml version="1.0" encoding="utf-8"?>
<!-- Generator: Adobe Illustrator 21.1.0, SVG Export Plug-In . SVG Version: 6.00 Build 0)  -->
<svg version="1.1" id="Icon_Set" xmlns="http://www.w3.org/2000/svg" xmlns:xlink="http://www.w3.org/1999/xlink" x="0px" y="0px"
	 viewBox="0 0 64 64" style="enable-background:new 0 0 64 64;" xml:space="preserve">
<style type="text/css">
	.st0{fill:#263238;}
	.st1{fill:#FF5252;}
	.st2{fill:#FFD740;}
	.st3{fill:#40C4FF;}
	.st4{fill:#FFFFFF;}
	.st5{fill:#4DB6AC;}
	.st6{fill:#37474F;}
	.st7{fill:#4FC3F7;}
</style>
<g>
	<g>
		<path class="st0" d="M4,32.5c-0.276,0-0.5-0.224-0.5-0.5C3.5,16.285,16.285,3.5,32,3.5c0.276,0,0.5,0.224,0.5,0.5
			S32.276,4.5,32,4.5C16.836,4.5,4.5,16.837,4.5,32C4.5,32.276,4.276,32.5,4,32.5z"/>
	</g>
	<g>
		<path class="st0" d="M35,4.5h-1c-0.276,0-0.5-0.224-0.5-0.5s0.224-0.5,0.5-0.5h1c0.276,0,0.5,0.224,0.5,0.5S35.276,4.5,35,4.5z"/>
	</g>
	<g>
		<path class="st0" d="M32,60.5c-0.276,0-0.5-0.224-0.5-0.5s0.224-0.5,0.5-0.5c15.163,0,27.5-12.337,27.5-27.5
			c0-0.276,0.224-0.5,0.5-0.5s0.5,0.224,0.5,0.5C60.5,47.715,47.715,60.5,32,60.5z"/>
	</g>
	<g>
		<path class="st0" d="M30,60.5h-1c-0.276,0-0.5-0.224-0.5-0.5s0.224-0.5,0.5-0.5h1c0.276,0,0.5,0.224,0.5,0.5S30.276,60.5,30,60.5z
			"/>
	</g>
	<g>
		<path class="st0" d="M53,6.5h-4c-0.276,0-0.5-0.224-0.5-0.5s0.224-0.5,0.5-0.5h4c0.276,0,0.5,0.224,0.5,0.5S53.276,6.5,53,6.5z"/>
	</g>
	<g>
		<path class="st0" d="M51,8.5c-0.276,0-0.5-0.224-0.5-0.5V4c0-0.276,0.224-0.5,0.5-0.5s0.5,0.224,0.5,0.5v4
			C51.5,8.276,51.276,8.5,51,8.5z"/>
	</g>
	<g>
		<path class="st0" d="M60,13h-4c-0.276,0-0.5-0.224-0.5-0.5S55.724,12,56,12h4c0.276,0,0.5,0.224,0.5,0.5S60.276,13,60,13z"/>
	</g>
	<g>
		<path class="st0" d="M58,15c-0.276,0-0.5-0.224-0.5-0.5v-4c0-0.276,0.224-0.5,0.5-0.5s0.5,0.224,0.5,0.5v4
			C58.5,14.776,58.276,15,58,15z"/>
	</g>
	<g>
		<path class="st3" d="M31.262,44.152l-2.038,3.184c-6.203-1.712-11.061-6.658-12.651-12.911l3.128-1.714
			C20.502,32.272,21,31.432,21,30.519V26.5c0-1.381-1.119-2.5-2.5-2.5H15c-2.761,0-5,2.239-5,5v1c0,13.255,10.745,24,24,24h0h0H35
			c2.761,0,5-2.239,5-5v-3.5c0-1.381-1.119-2.5-2.5-2.5h-4.132C32.516,43,31.722,43.434,31.262,44.152z"/>
		<path class="st0" d="M35,54.5h-0.999C20.491,54.5,9.5,43.51,9.5,30v-1c0-3.032,2.467-5.5,5.5-5.5h3.5c1.654,0,3,1.346,3,3v4.019
			c0,1.097-0.597,2.104-1.558,2.631l-2.785,1.526c1.607,5.78,6.099,10.358,11.847,12.077l1.836-2.87
			c0.554-0.866,1.499-1.383,2.527-1.383H37.5c1.654,0,3,1.346,3,3V49C40.5,52.032,38.032,54.5,35,54.5z M15,24.5
			c-2.481,0-4.5,2.019-4.5,4.5v1c0,12.958,10.542,23.5,23.5,23.5h1c2.481,0,4.5-2.019,4.5-4.5v-3.5c0-1.103-0.897-2-2-2h-4.132
			c-0.686,0-1.316,0.345-1.685,0.922c0,0,0,0,0,0l-2.038,3.184c-0.118,0.186-0.343,0.27-0.554,0.213
			c-6.388-1.763-11.37-6.848-13.003-13.27c-0.057-0.221,0.044-0.452,0.244-0.562l3.128-1.715c0.641-0.351,1.039-1.022,1.039-1.754
			V26.5c0-1.103-0.897-2-2-2H15z M31.262,44.152h0.01H31.262z"/>
	</g>
	<g>
		<path class="st0" d="M42,48.049c-0.164,0-0.324-0.081-0.42-0.229c-0.15-0.231-0.083-0.541,0.149-0.69
			C46.908,43.791,50,38.136,50,32c0-9.925-8.075-18-18-18c-6.136,0-11.791,3.092-15.128,8.271c-0.149,0.232-0.459,0.301-0.691,0.149
			c-0.232-0.149-0.299-0.459-0.149-0.69C19.553,16.264,25.523,13,32,13c10.477,0,19,8.523,19,19c0,6.477-3.264,12.446-8.729,15.969
			C42.187,48.023,42.093,48.049,42,48.049z"/>
	</g>
	<g>
		<path class="st2" d="M32.5,36.75h-6c-0.631,0-1.195-0.396-1.411-0.989c-0.215-0.594-0.035-1.259,0.45-1.663l5.101-4.25
			c0.229-0.19,0.36-0.471,0.36-0.769V27.25c0-0.552-0.449-1-1-1h-1c-0.551,0-1,0.448-1,1v2c0,0.828-0.671,1.5-1.5,1.5
			s-1.5-0.672-1.5-1.5v-2c0-2.206,1.794-4,4-4h1c2.206,0,4,1.794,4,4v1.829c0,1.189-0.524,2.31-1.438,3.072l-1.918,1.599H32.5
			c0.829,0,1.5,0.672,1.5,1.5S33.329,36.75,32.5,36.75z"/>
		<path class="st0" d="M32.5,37.25h-6c-0.839,0-1.595-0.53-1.881-1.318c-0.285-0.79-0.044-1.681,0.6-2.218l5.101-4.25
			c0.115-0.096,0.18-0.235,0.18-0.385V27.25c0-0.275-0.224-0.5-0.5-0.5h-1c-0.276,0-0.5,0.225-0.5,0.5v2c0,1.103-0.897,2-2,2
			s-2-0.897-2-2v-2c0-2.481,2.019-4.5,4.5-4.5h1c2.481,0,4.5,2.019,4.5,4.5v1.829c0,1.338-0.59,2.598-1.618,3.456l-0.857,0.715H32.5
			c1.102,0,2,0.897,2,2S33.603,37.25,32.5,37.25z M29,25.75h1c0.827,0,1.5,0.673,1.5,1.5v1.829c0,0.446-0.197,0.867-0.54,1.152
			l-5.101,4.25c-0.322,0.269-0.443,0.715-0.3,1.109c0.143,0.395,0.521,0.659,0.94,0.659h6c0.551,0,1-0.448,1-1s-0.448-1-1-1h-1.856
			c-0.21,0-0.398-0.132-0.47-0.33c-0.072-0.197-0.012-0.419,0.15-0.554l1.918-1.599C33.041,31.1,33.5,30.12,33.5,29.079V27.25
			c0-1.93-1.57-3.5-3.5-3.5h-1c-1.93,0-3.5,1.57-3.5,3.5v2c0,0.552,0.449,1,1,1s1-0.448,1-1v-2C27.5,26.423,28.173,25.75,29,25.75z"
			/>
	</g>
	<g>
		<path class="st2" d="M41.5,23.25c-0.829,0-1.5,0.672-1.5,1.5v4h-3v-4c0-0.828-0.671-1.5-1.5-1.5s-1.5,0.672-1.5,1.5v5.5
			c0,0.828,0.671,1.5,1.5,1.5H40v3.5c0,0.828,0.671,1.5,1.5,1.5s1.5-0.672,1.5-1.5v-10.5C43,23.921,42.329,23.25,41.5,23.25z"/>
		<path class="st0" d="M41.5,37.25c-1.103,0-2-0.897-2-2v-3h-4c-1.103,0-2-0.897-2-2v-5.5c0-1.103,0.897-2,2-2s2,0.897,2,2v3.5h2
			v-3.5c0-1.103,0.897-2,2-2s2,0.897,2,2v10.5C43.5,36.353,42.603,37.25,41.5,37.25z M35.5,23.75c-0.552,0-1,0.448-1,1v5.5
			c0,0.552,0.448,1,1,1H40c0.276,0,0.5,0.224,0.5,0.5v3.5c0,0.552,0.448,1,1,1s1-0.448,1-1v-10.5c0-0.552-0.448-1-1-1s-1,0.448-1,1
			v4c0,0.276-0.224,0.5-0.5,0.5h-3c-0.276,0-0.5-0.224-0.5-0.5v-4C36.5,24.198,36.052,23.75,35.5,23.75z"/>
	</g>
</g>
</svg>
