<?xml version="1.0" encoding="utf-8"?>
<!-- Generator: Adobe Illustrator 21.1.0, SVG Export Plug-In . SVG Version: 6.00 Build 0)  -->
<svg version="1.1" id="Icon_Set" xmlns="http://www.w3.org/2000/svg" xmlns:xlink="http://www.w3.org/1999/xlink" x="0px" y="0px"
	 viewBox="0 0 64 64" style="enable-background:new 0 0 64 64;" xml:space="preserve">
<style type="text/css">
	.st0{fill:#263238;}
	.st1{fill:#FF5252;}
	.st2{fill:#FFD740;}
	.st3{fill:#40C4FF;}
	.st4{fill:#FFFFFF;}
	.st5{fill:#4DB6AC;}
	.st6{fill:#37474F;}
	.st7{fill:#4FC3F7;}
</style>
<g>
	<g>
		<circle class="st3" cx="32" cy="35.5" r="15"/>
	</g>
	<g>
		<path class="st0" d="M43,63.5H21c-3.033,0-5.5-2.467-5.5-5.5V13c0-3.033,2.467-5.5,5.5-5.5h22c3.033,0,5.5,2.467,5.5,5.5v45
			C48.5,61.033,46.032,63.5,43,63.5z M21,8.5c-2.481,0-4.5,2.019-4.5,4.5v45c0,2.481,2.019,4.5,4.5,4.5h22
			c2.481,0,4.5-2.019,4.5-4.5V13c0-2.481-2.019-4.5-4.5-4.5H21z"/>
	</g>
	<g>
		<path class="st0" d="M20.5,3.5h-4C16.224,3.5,16,3.276,16,3s0.224-0.5,0.5-0.5h4C20.776,2.5,21,2.724,21,3S20.776,3.5,20.5,3.5z"
			/>
	</g>
	<g>
		<path class="st0" d="M18.5,5.5C18.224,5.5,18,5.276,18,5V1c0-0.276,0.224-0.5,0.5-0.5S19,0.724,19,1v4
			C19,5.276,18.776,5.5,18.5,5.5z"/>
	</g>
	<g>
		<path class="st0" d="M15,8h-4c-0.276,0-0.5-0.224-0.5-0.5S10.724,7,11,7h4c0.276,0,0.5,0.224,0.5,0.5S15.276,8,15,8z"/>
	</g>
	<g>
		<path class="st0" d="M13,10c-0.276,0-0.5-0.224-0.5-0.5v-4C12.5,5.224,12.724,5,13,5s0.5,0.224,0.5,0.5v4
			C13.5,9.776,13.276,10,13,10z"/>
	</g>
	<g>
		<path class="st0" d="M48,13.5H16c-0.276,0-0.5-0.224-0.5-0.5s0.224-0.5,0.5-0.5h32c0.276,0,0.5,0.224,0.5,0.5S48.276,13.5,48,13.5
			z"/>
	</g>
	<g>
		<path class="st0" d="M48,58.5H16c-0.276,0-0.5-0.224-0.5-0.5s0.224-0.5,0.5-0.5h32c0.276,0,0.5,0.224,0.5,0.5S48.276,58.5,48,58.5
			z"/>
	</g>
	<g>
		<path class="st0" d="M32,63.5c-1.654,0-3-1.346-3-3c0-1.654,1.346-3,3-3c1.654,0,3,1.346,3,3C35,62.154,33.654,63.5,32,63.5z
			 M32,58.5c-1.103,0-2,0.897-2,2c0,1.103,0.897,2,2,2c1.103,0,2-0.897,2-2C34,59.397,33.103,58.5,32,58.5z"/>
	</g>
	<g>
		<path class="st0" d="M34.5,11h-5c-0.276,0-0.5-0.224-0.5-0.5s0.224-0.5,0.5-0.5h5c0.276,0,0.5,0.224,0.5,0.5S34.776,11,34.5,11z"
			/>
	</g>
	<g>
		<path class="st0" d="M11,32.5c-0.276,0-0.5-0.224-0.5-0.5V18c0-0.276,0.224-0.5,0.5-0.5s0.5,0.224,0.5,0.5v14
			C11.5,32.276,11.276,32.5,11,32.5z"/>
	</g>
	<g>
		<path class="st0" d="M11,36.5c-0.276,0-0.5-0.224-0.5-0.5v-2c0-0.276,0.224-0.5,0.5-0.5s0.5,0.224,0.5,0.5v2
			C11.5,36.276,11.276,36.5,11,36.5z"/>
	</g>
	<g>
		<path class="st0" d="M53,53.5c-0.276,0-0.5-0.224-0.5-0.5V39c0-0.276,0.224-0.5,0.5-0.5s0.5,0.224,0.5,0.5v14
			C53.5,53.276,53.276,53.5,53,53.5z"/>
	</g>
	<g>
		<path class="st0" d="M53,37.5c-0.276,0-0.5-0.224-0.5-0.5v-2c0-0.276,0.224-0.5,0.5-0.5s0.5,0.224,0.5,0.5v2
			C53.5,37.276,53.276,37.5,53,37.5z"/>
	</g>
	<g>
		<path class="st6" d="M31.5,44c-0.082,0-0.164-0.02-0.238-0.06C31.1,43.853,31,43.684,31,43.5v-5.75c0-0.276,0.224-0.5,0.5-0.5
			s0.5,0.224,0.5,0.5v4.826l5.072-3.316l-11.337-7.085c-0.234-0.146-0.305-0.455-0.159-0.689c0.146-0.234,0.455-0.306,0.689-0.159
			l12,7.5c0.145,0.09,0.233,0.248,0.235,0.419c0.002,0.17-0.083,0.33-0.227,0.423l-6.5,4.25C31.69,43.973,31.595,44,31.5,44z"/>
	</g>
	<g>
		<path class="st6" d="M26,39.75c-0.167,0-0.33-0.083-0.424-0.235c-0.146-0.234-0.075-0.543,0.159-0.689l11.337-7.085L32,28.424
			v4.826c0,0.276-0.224,0.5-0.5,0.5s-0.5-0.224-0.5-0.5V27.5c0-0.184,0.101-0.353,0.262-0.44c0.162-0.086,0.358-0.079,0.511,0.021
			l6.5,4.25c0.143,0.093,0.229,0.253,0.227,0.423c-0.002,0.171-0.09,0.329-0.235,0.419l-12,7.5C26.182,39.726,26.09,39.75,26,39.75z
			"/>
	</g>
	<g>
		<path class="st0" d="M45,21.5c-0.276,0-0.5-0.224-0.5-0.5v-4.5H40c-0.276,0-0.5-0.224-0.5-0.5s0.224-0.5,0.5-0.5h5
			c0.276,0,0.5,0.224,0.5,0.5v5C45.5,21.276,45.276,21.5,45,21.5z"/>
	</g>
</g>
</svg>
