<?xml version="1.0" encoding="utf-8"?>
<!-- Generator: Adobe Illustrator 21.1.0, SVG Export Plug-In . SVG Version: 6.00 Build 0)  -->
<svg version="1.1" id="Icon_Set" xmlns="http://www.w3.org/2000/svg" xmlns:xlink="http://www.w3.org/1999/xlink" x="0px" y="0px"
	 viewBox="0 0 64 64" style="enable-background:new 0 0 64 64;" xml:space="preserve">
<style type="text/css">
	.st0{fill:#263238;}
	.st1{fill:#FF5252;}
	.st2{fill:#FFD740;}
	.st3{fill:#40C4FF;}
	.st4{fill:#FFFFFF;}
	.st5{fill:#4DB6AC;}
	.st6{fill:#37474F;}
	.st7{fill:#4FC3F7;}
</style>
<g>
	<g>
		<path class="st2" d="M17.057,44.929l-3.692,0.81c-3.176-5.597-3.113-12.53,0.184-18.075l3.424,1
			c0.877,0.256,1.823,0.014,2.469-0.632l2.842-2.842c0.976-0.976,0.976-2.559,0-3.536l-2.475-2.475
			c-1.953-1.953-5.118-1.953-7.071,0l-0.707,0.707c-9.373,9.373-9.373,24.569,0,33.941l0,0l0,0l0.707,0.707
			c1.953,1.953,5.118,1.953,7.071,0l2.475-2.475c0.976-0.976,0.976-2.559,0-3.536l-2.922-2.922
			C18.758,45.001,17.89,44.747,17.057,44.929z"/>
		<path class="st0" d="M16.272,56.5c-1.47,0-2.851-0.572-3.89-1.611l-0.706-0.707C7.049,49.555,4.5,43.402,4.5,36.858
			c0-6.544,2.549-12.697,7.177-17.324l0.707-0.707c1.038-1.039,2.42-1.611,3.889-1.611s2.851,0.572,3.889,1.611l2.476,2.475
			c1.169,1.17,1.169,3.073,0,4.243l-2.843,2.842c-0.774,0.775-1.908,1.067-2.962,0.759l-3.047-0.89
			c-2.952,5.224-3.014,11.638-0.163,16.917l3.328-0.73l0,0c1-0.222,2.036,0.081,2.765,0.809l2.921,2.922
			c0.566,0.566,0.879,1.32,0.879,2.121s-0.312,1.555-0.879,2.121l-2.475,2.475C19.123,55.928,17.741,56.5,16.272,56.5z
			 M16.272,18.216c-1.202,0-2.332,0.468-3.182,1.318l-0.707,0.707C7.945,24.68,5.5,30.581,5.5,36.858
			c0,6.277,2.445,12.178,6.884,16.617l0.706,0.707c0.851,0.85,1.98,1.318,3.183,1.318s2.332-0.468,3.182-1.318l2.475-2.475
			c0.378-0.378,0.586-0.88,0.586-1.414s-0.208-1.036-0.586-1.414l-2.921-2.922c-0.485-0.484-1.176-0.686-1.843-0.54l-3.692,0.811
			c-0.22,0.044-0.435-0.051-0.542-0.242c-3.271-5.762-3.198-12.88,0.188-18.577c0.117-0.197,0.35-0.289,0.57-0.225l3.424,1
			c0.703,0.207,1.457,0.01,1.974-0.506l2.843-2.842c0.779-0.78,0.779-2.049,0-2.829l-2.476-2.475
			C18.604,18.684,17.475,18.216,16.272,18.216z"/>
	</g>
	<g>
		<path class="st0" d="M47.729,56.5c-1.47,0-2.851-0.572-3.89-1.611l-2.475-2.475c-0.566-0.566-0.879-1.32-0.879-2.121
			s0.312-1.555,0.879-2.121l2.922-2.922c0.726-0.727,1.76-1.031,2.765-0.809l0,0l3.328,0.73c2.851-5.28,2.788-11.693-0.163-16.917
			l-3.047,0.89c-1.05,0.306-2.188,0.017-2.963-0.759l-2.842-2.842c-0.566-0.566-0.879-1.32-0.879-2.121s0.312-1.555,0.879-2.122
			l2.475-2.475c2.145-2.143,5.634-2.145,7.778,0l0.707,0.707c4.628,4.627,7.177,10.78,7.177,17.324
			c0,6.544-2.549,12.696-7.177,17.324l-0.707,0.707C50.579,55.928,49.197,56.5,47.729,56.5z M46.404,45.371
			c-0.524,0-1.03,0.206-1.411,0.586l-2.922,2.922c-0.378,0.378-0.586,0.88-0.586,1.414s0.208,1.036,0.586,1.414l2.475,2.475
			c0.851,0.85,1.98,1.318,3.183,1.318s2.332-0.468,3.182-1.318l0.707-0.707c4.438-4.439,6.884-10.34,6.884-16.617
			c0-6.277-2.445-12.179-6.884-16.617l-0.707-0.707c-1.755-1.755-4.611-1.752-6.364,0l-2.475,2.475
			c-0.378,0.378-0.586,0.88-0.586,1.415s0.208,1.036,0.586,1.414l2.842,2.842c0.518,0.518,1.274,0.71,1.976,0.506l3.423-1
			c0.22-0.064,0.453,0.028,0.57,0.225c3.387,5.696,3.459,12.814,0.188,18.577c-0.107,0.19-0.325,0.286-0.542,0.242l-3.692-0.811
			C46.692,45.386,46.548,45.371,46.404,45.371z"/>
	</g>
	<g>
		<polygon class="st1" points="44.5,39.358 38.5,33.358 38.5,36.858 25.5,36.858 25.5,41.858 38.5,41.858 38.5,45.358 		"/>
		<path class="st0" d="M38.5,45.858c-0.064,0-0.13-0.012-0.191-0.038C38.122,45.743,38,45.56,38,45.358v-3H25.5
			c-0.276,0-0.5-0.224-0.5-0.5v-5c0-0.276,0.224-0.5,0.5-0.5H38v-3c0-0.202,0.122-0.385,0.309-0.462
			c0.187-0.078,0.402-0.034,0.545,0.108l6,6c0.195,0.195,0.195,0.512,0,0.707l-6,6C38.758,45.807,38.63,45.858,38.5,45.858z
			 M26,41.358h12.5c0.276,0,0.5,0.224,0.5,0.5v2.293l4.793-4.793L39,34.565v2.293c0,0.276-0.224,0.5-0.5,0.5H26V41.358z"/>
	</g>
	<g>
		<polygon class="st3" points="25.5,31.858 25.5,28.358 19.5,34.358 25.5,40.358 25.5,36.858 38.5,36.858 38.5,36.858 38.5,31.858 
					"/>
		<path class="st0" d="M25.5,40.858c-0.13,0-0.258-0.051-0.354-0.146l-6-6c-0.195-0.195-0.195-0.512,0-0.707l6-6
			c0.144-0.143,0.359-0.187,0.545-0.108C25.878,27.973,26,28.156,26,28.358v3h12.5c0.276,0,0.5,0.224,0.5,0.5v5
			c0,0.276-0.224,0.5-0.5,0.5H26v3c0,0.202-0.122,0.385-0.309,0.462C25.63,40.846,25.564,40.858,25.5,40.858z M20.207,34.358
			L25,39.151v-2.293c0-0.276,0.224-0.5,0.5-0.5H38v-4H25.5c-0.276,0-0.5-0.224-0.5-0.5v-2.293L20.207,34.358z"/>
	</g>
	<g>
		<path class="st0" d="M33,47.858h-5c-0.276,0-0.5-0.224-0.5-0.5s0.224-0.5,0.5-0.5h5c0.276,0,0.5,0.224,0.5,0.5
			S33.276,47.858,33,47.858z"/>
	</g>
	<g>
		<path class="st0" d="M36,47.858h-1c-0.276,0-0.5-0.224-0.5-0.5s0.224-0.5,0.5-0.5h1c0.276,0,0.5,0.224,0.5,0.5
			S36.276,47.858,36,47.858z"/>
	</g>
	<g>
		<path class="st0" d="M36,26.858h-5c-0.276,0-0.5-0.224-0.5-0.5s0.224-0.5,0.5-0.5h5c0.276,0,0.5,0.224,0.5,0.5
			S36.276,26.858,36,26.858z"/>
	</g>
	<g>
		<path class="st0" d="M29,26.858h-1c-0.276,0-0.5-0.224-0.5-0.5s0.224-0.5,0.5-0.5h1c0.276,0,0.5,0.224,0.5,0.5
			S29.276,26.858,29,26.858z"/>
	</g>
	<g>
		<path class="st0" d="M36.75,10.5h-4c-0.276,0-0.5-0.224-0.5-0.5s0.224-0.5,0.5-0.5h4c0.276,0,0.5,0.224,0.5,0.5
			S37.026,10.5,36.75,10.5z"/>
	</g>
	<g>
		<path class="st0" d="M34.75,12.5c-0.276,0-0.5-0.224-0.5-0.5V8c0-0.276,0.224-0.5,0.5-0.5s0.5,0.224,0.5,0.5v4
			C35.25,12.276,35.026,12.5,34.75,12.5z"/>
	</g>
	<g>
		<path class="st0" d="M31.25,15h-4c-0.276,0-0.5-0.224-0.5-0.5s0.224-0.5,0.5-0.5h4c0.276,0,0.5,0.224,0.5,0.5S31.526,15,31.25,15z
			"/>
	</g>
	<g>
		<path class="st0" d="M29.25,17c-0.276,0-0.5-0.224-0.5-0.5v-4c0-0.276,0.224-0.5,0.5-0.5s0.5,0.224,0.5,0.5v4
			C29.75,16.776,29.526,17,29.25,17z"/>
	</g>
</g>
</svg>
