<?xml version="1.0" encoding="utf-8"?>
<!-- Generator: Adobe Illustrator 21.1.0, SVG Export Plug-In . SVG Version: 6.00 Build 0)  -->
<svg version="1.1" id="Icon_Set" xmlns="http://www.w3.org/2000/svg" xmlns:xlink="http://www.w3.org/1999/xlink" x="0px" y="0px"
	 viewBox="0 0 64 64" style="enable-background:new 0 0 64 64;" xml:space="preserve">
<style type="text/css">
	.st0{fill:#263238;}
	.st1{fill:#FF5252;}
	.st2{fill:#FFD740;}
	.st3{fill:#40C4FF;}
	.st4{fill:#FFFFFF;}
	.st5{fill:#4DB6AC;}
	.st6{fill:#37474F;}
	.st7{fill:#4FC3F7;}
</style>
<g>
	<g>
		<path class="st2" d="M53.5,53.75h-43c-1.381,0-2.5-1.119-2.5-2.5v-29c0-1.381,1.119-2.5,2.5-2.5h43c1.381,0,2.5,1.119,2.5,2.5v29
			C56,52.631,54.881,53.75,53.5,53.75z"/>
		<path class="st0" d="M53.5,54.25h-43c-1.654,0-3-1.346-3-3v-29c0-1.654,1.346-3,3-3h43c1.654,0,3,1.346,3,3v29
			C56.5,52.904,55.154,54.25,53.5,54.25z M10.5,20.25c-1.103,0-2,0.897-2,2v29c0,1.103,0.897,2,2,2h43c1.103,0,2-0.897,2-2v-29
			c0-1.103-0.897-2-2-2H10.5z"/>
	</g>
	<g>
		<path class="st4" d="M37.5,46.75h-23c-1.381,0-2.5-1.119-2.5-2.5v-15c0-1.381,1.119-2.5,2.5-2.5h23c1.381,0,2.5,1.119,2.5,2.5v15
			C40,45.631,38.881,46.75,37.5,46.75z"/>
		<path class="st0" d="M37.5,47.25h-23c-1.654,0-3-1.346-3-3v-15c0-1.654,1.346-3,3-3h23c1.654,0,3,1.346,3,3v15
			C40.5,45.904,39.154,47.25,37.5,47.25z M14.5,27.25c-1.103,0-2,0.897-2,2v15c0,1.103,0.897,2,2,2h23c1.103,0,2-0.897,2-2v-15
			c0-1.103-0.897-2-2-2H14.5z"/>
	</g>
	<g>
		<path class="st1" d="M52,19.75h-5v-2c0-0.552,0.448-1,1-1h3c0.552,0,1,0.448,1,1V19.75z"/>
		<path class="st0" d="M52,20.25h-5c-0.276,0-0.5-0.224-0.5-0.5v-2c0-0.827,0.673-1.5,1.5-1.5h3c0.827,0,1.5,0.673,1.5,1.5v2
			C52.5,20.026,52.276,20.25,52,20.25z M47.5,19.25h4v-1.5c0-0.276-0.225-0.5-0.5-0.5h-3c-0.275,0-0.5,0.224-0.5,0.5V19.25z"/>
	</g>
	<g>
		<path class="st0" d="M44,20.25h-5c-0.276,0-0.5-0.224-0.5-0.5v-2c0-0.827,0.673-1.5,1.5-1.5h3c0.827,0,1.5,0.673,1.5,1.5v2
			C44.5,20.026,44.276,20.25,44,20.25z M39.5,19.25h4v-1.5c0-0.276-0.225-0.5-0.5-0.5h-3c-0.275,0-0.5,0.224-0.5,0.5V19.25z"/>
	</g>
	<g>
		<path class="st0" d="M36,20.25h-5c-0.276,0-0.5-0.224-0.5-0.5v-2c0-0.827,0.673-1.5,1.5-1.5h3c0.827,0,1.5,0.673,1.5,1.5v2
			C36.5,20.026,36.276,20.25,36,20.25z M31.5,19.25h4v-1.5c0-0.276-0.225-0.5-0.5-0.5h-3c-0.276,0-0.5,0.224-0.5,0.5V19.25z"/>
	</g>
	<g>
		<circle class="st3" cx="17.5" cy="36.75" r="2.5"/>
		<path class="st0" d="M17.5,39.75c-1.654,0-3-1.346-3-3s1.346-3,3-3s3,1.346,3,3S19.154,39.75,17.5,39.75z M17.5,34.75
			c-1.103,0-2,0.897-2,2s0.897,2,2,2s2-0.897,2-2S18.603,34.75,17.5,34.75z"/>
	</g>
	<g>
		<circle class="st3" cx="34.5" cy="36.75" r="2.5"/>
		<path class="st0" d="M34.5,39.75c-1.654,0-3-1.346-3-3s1.346-3,3-3s3,1.346,3,3S36.154,39.75,34.5,39.75z M34.5,34.75
			c-1.103,0-2,0.897-2,2s0.897,2,2,2s2-0.897,2-2S35.603,34.75,34.5,34.75z"/>
	</g>
	<g>
		<path class="st0" d="M29,38.75h-6c-0.276,0-0.5-0.224-0.5-0.5v-3c0-0.276,0.224-0.5,0.5-0.5h6c0.276,0,0.5,0.224,0.5,0.5v3
			C29.5,38.526,29.276,38.75,29,38.75z M23.5,37.75h5v-2h-5V37.75z"/>
	</g>
	<g>
		<path class="st0" d="M52,33.25h-8c-0.276,0-0.5-0.224-0.5-0.5s0.224-0.5,0.5-0.5h8c0.276,0,0.5,0.224,0.5,0.5
			S52.276,33.25,52,33.25z"/>
	</g>
	<g>
		<path class="st0" d="M52,37.25h-8c-0.276,0-0.5-0.224-0.5-0.5s0.224-0.5,0.5-0.5h8c0.276,0,0.5,0.224,0.5,0.5
			S52.276,37.25,52,37.25z"/>
	</g>
	<g>
		<path class="st0" d="M52,41.25h-8c-0.276,0-0.5-0.224-0.5-0.5s0.224-0.5,0.5-0.5h8c0.276,0,0.5,0.224,0.5,0.5
			S52.276,41.25,52,41.25z"/>
	</g>
	<g>
		<path class="st0" d="M55.5,8.75h-4c-0.276,0-0.5-0.224-0.5-0.5s0.224-0.5,0.5-0.5h4c0.276,0,0.5,0.224,0.5,0.5
			S55.776,8.75,55.5,8.75z"/>
	</g>
	<g>
		<path class="st0" d="M53.5,10.75c-0.276,0-0.5-0.224-0.5-0.5v-4c0-0.276,0.224-0.5,0.5-0.5S54,5.974,54,6.25v4
			C54,10.526,53.776,10.75,53.5,10.75z"/>
	</g>
	<g>
		<path class="st0" d="M61,13.25h-4c-0.276,0-0.5-0.224-0.5-0.5s0.224-0.5,0.5-0.5h4c0.276,0,0.5,0.224,0.5,0.5
			S61.276,13.25,61,13.25z"/>
	</g>
	<g>
		<path class="st0" d="M59,15.25c-0.276,0-0.5-0.224-0.5-0.5v-4c0-0.276,0.224-0.5,0.5-0.5s0.5,0.224,0.5,0.5v4
			C59.5,15.026,59.276,15.25,59,15.25z"/>
	</g>
	<g>
		<path class="st0" d="M21,15.25H7c-0.276,0-0.5-0.224-0.5-0.5s0.224-0.5,0.5-0.5h14c0.276,0,0.5,0.224,0.5,0.5
			S21.276,15.25,21,15.25z"/>
	</g>
	<g>
		<path class="st0" d="M5,15.25H3c-0.276,0-0.5-0.224-0.5-0.5s0.224-0.5,0.5-0.5h2c0.276,0,0.5,0.224,0.5,0.5S5.276,15.25,5,15.25z"
			/>
	</g>
	<g>
		<path class="st0" d="M52,58.25H38c-0.276,0-0.5-0.224-0.5-0.5s0.224-0.5,0.5-0.5h14c0.276,0,0.5,0.224,0.5,0.5
			S52.276,58.25,52,58.25z"/>
	</g>
	<g>
		<path class="st0" d="M56,58.25h-2c-0.276,0-0.5-0.224-0.5-0.5s0.224-0.5,0.5-0.5h2c0.276,0,0.5,0.224,0.5,0.5
			S56.276,58.25,56,58.25z"/>
	</g>
	<g>
		<path class="st0" d="M53,28.25c-0.276,0-0.5-0.224-0.5-0.5v-4c0-0.276-0.225-0.5-0.5-0.5h-4c-0.276,0-0.5-0.224-0.5-0.5
			s0.224-0.5,0.5-0.5h4c0.827,0,1.5,0.673,1.5,1.5v4C53.5,28.026,53.276,28.25,53,28.25z"/>
	</g>
</g>
</svg>
