<?xml version="1.0" encoding="utf-8"?>
<!-- Generator: Adobe Illustrator 21.1.0, SVG Export Plug-In . SVG Version: 6.00 Build 0)  -->
<svg version="1.1" id="Icon_Set" xmlns="http://www.w3.org/2000/svg" xmlns:xlink="http://www.w3.org/1999/xlink" x="0px" y="0px"
	 viewBox="0 0 64 64" style="enable-background:new 0 0 64 64;" xml:space="preserve">
<style type="text/css">
	.st0{fill:#263238;}
	.st1{fill:#FF5252;}
	.st2{fill:#FFD740;}
	.st3{fill:#40C4FF;}
	.st4{fill:#FFFFFF;}
	.st5{fill:#4DB6AC;}
	.st6{fill:#37474F;}
	.st7{fill:#4FC3F7;}
</style>
<g>
	<g>
		<path class="st2" d="M51,45H13c-0.552,0-1-0.448-1-1V28c0-0.552,0.448-1,1-1h38c0.552,0,1,0.448,1,1v16C52,44.553,51.552,45,51,45
			z"/>
		<path class="st0" d="M51,45.5H13c-0.827,0-1.5-0.673-1.5-1.5V28c0-0.827,0.673-1.5,1.5-1.5h38c0.827,0,1.5,0.673,1.5,1.5v16
			C52.5,44.827,51.827,45.5,51,45.5z M13,27.5c-0.275,0-0.5,0.224-0.5,0.5v16c0,0.276,0.225,0.5,0.5,0.5h38
			c0.275,0,0.5-0.224,0.5-0.5V28c0-0.276-0.225-0.5-0.5-0.5H13z"/>
	</g>
	<g>
		<path class="st0" d="M55.5,51.5h-47c-1.654,0-3-1.346-3-3v-33c0-1.654,1.346-3,3-3h47c1.654,0,3,1.346,3,3v33
			C58.5,50.154,57.154,51.5,55.5,51.5z M8.5,13.5c-1.103,0-2,0.897-2,2v33c0,1.103,0.897,2,2,2h47c1.103,0,2-0.897,2-2v-33
			c0-1.103-0.897-2-2-2H8.5z"/>
	</g>
	<g>
		<path class="st3" d="M43.279,19H20.721c-0.43,0-0.813-0.275-0.949-0.684L18,13h28l-1.772,5.316C44.092,18.725,43.71,19,43.279,19z
			"/>
		<path class="st0" d="M43.279,19.5H20.721c-0.646,0-1.219-0.412-1.423-1.026l-1.772-5.316c-0.051-0.152-0.025-0.32,0.069-0.451
			C17.688,12.577,17.839,12.5,18,12.5h28c0.161,0,0.312,0.077,0.405,0.208c0.095,0.13,0.12,0.298,0.069,0.451l-1.772,5.316
			C44.498,19.088,43.926,19.5,43.279,19.5z M18.693,13.5l1.554,4.658c0.067,0.205,0.258,0.342,0.474,0.342h22.559
			c0.216,0,0.406-0.137,0.474-0.341l1.554-4.659H18.693z"/>
	</g>
	<g>
		<path class="st4" d="M44,32H20c-2.209,0-4,1.791-4,4c0,2.209,1.791,4,4,4h24c2.209,0,4-1.791,4-4C48,33.791,46.209,32,44,32z"/>
		<path class="st0" d="M44,40.5H20c-2.481,0-4.5-2.019-4.5-4.5s2.019-4.5,4.5-4.5h24c2.481,0,4.5,2.019,4.5,4.5S46.481,40.5,44,40.5
			z M20,32.5c-1.93,0-3.5,1.57-3.5,3.5s1.57,3.5,3.5,3.5h24c1.93,0,3.5-1.57,3.5-3.5s-1.57-3.5-3.5-3.5H20z"/>
	</g>
	<g>
		<path class="st0" d="M20,40.5c-2.481,0-4.5-2.019-4.5-4.5s2.019-4.5,4.5-4.5s4.5,2.019,4.5,4.5S22.481,40.5,20,40.5z M20,32.5
			c-1.93,0-3.5,1.57-3.5,3.5s1.57,3.5,3.5,3.5s3.5-1.57,3.5-3.5S21.93,32.5,20,32.5z"/>
	</g>
	<g>
		<path class="st0" d="M44,40.5c-2.481,0-4.5-2.019-4.5-4.5s2.019-4.5,4.5-4.5s4.5,2.019,4.5,4.5S46.481,40.5,44,40.5z M44,32.5
			c-1.93,0-3.5,1.57-3.5,3.5s1.57,3.5,3.5,3.5s3.5-1.57,3.5-3.5S45.93,32.5,44,32.5z"/>
	</g>
	<g>
		<path class="st0" d="M38,23.5H26c-0.276,0-0.5-0.224-0.5-0.5s0.224-0.5,0.5-0.5h12c0.276,0,0.5,0.224,0.5,0.5S38.276,23.5,38,23.5
			z"/>
	</g>
	<g>
		<path class="st0" d="M57.5,7.5h-4C53.224,7.5,53,7.276,53,7s0.224-0.5,0.5-0.5h4C57.776,6.5,58,6.724,58,7S57.776,7.5,57.5,7.5z"
			/>
	</g>
	<g>
		<path class="st0" d="M55.5,9.5C55.224,9.5,55,9.276,55,9V5c0-0.276,0.224-0.5,0.5-0.5S56,4.724,56,5v4
			C56,9.276,55.776,9.5,55.5,9.5z"/>
	</g>
	<g>
		<path class="st0" d="M63,12h-4c-0.276,0-0.5-0.224-0.5-0.5S58.724,11,59,11h4c0.276,0,0.5,0.224,0.5,0.5S63.276,12,63,12z"/>
	</g>
	<g>
		<path class="st0" d="M61,14c-0.276,0-0.5-0.224-0.5-0.5v-4C60.5,9.224,60.724,9,61,9s0.5,0.224,0.5,0.5v4
			C61.5,13.776,61.276,14,61,14z"/>
	</g>
	<g>
		<path class="st0" d="M59,55.5H40.5c-0.276,0-0.5-0.224-0.5-0.5s0.224-0.5,0.5-0.5H59c0.276,0,0.5,0.224,0.5,0.5
			S59.276,55.5,59,55.5z"/>
	</g>
	<g>
		<path class="st0" d="M63,55.5h-2c-0.276,0-0.5-0.224-0.5-0.5s0.224-0.5,0.5-0.5h2c0.276,0,0.5,0.224,0.5,0.5S63.276,55.5,63,55.5z
			"/>
	</g>
	<g>
		<path class="st0" d="M23.5,9.5H5C4.724,9.5,4.5,9.276,4.5,9S4.724,8.5,5,8.5h18.5C23.776,8.5,24,8.724,24,9S23.776,9.5,23.5,9.5z"
			/>
	</g>
	<g>
		<path class="st0" d="M3,9.5H1C0.724,9.5,0.5,9.277,0.5,9S0.724,8.5,1,8.5h2c0.276,0,0.5,0.224,0.5,0.5S3.276,9.5,3,9.5z"/>
	</g>
	<g>
		<path class="st0" d="M55,21.5c-0.276,0-0.5-0.224-0.5-0.5v-4c0-0.276-0.225-0.5-0.5-0.5h-4c-0.276,0-0.5-0.224-0.5-0.5
			s0.224-0.5,0.5-0.5h4c0.827,0,1.5,0.673,1.5,1.5v4C55.5,21.276,55.276,21.5,55,21.5z"/>
	</g>
</g>
</svg>
