<?xml version="1.0" encoding="utf-8"?>
<!-- Generator: Adobe Illustrator 21.1.0, SVG Export Plug-In . SVG Version: 6.00 Build 0)  -->
<svg version="1.1" id="Icon_Set" xmlns="http://www.w3.org/2000/svg" xmlns:xlink="http://www.w3.org/1999/xlink" x="0px" y="0px"
	 viewBox="0 0 64 64" style="enable-background:new 0 0 64 64;" xml:space="preserve">
<style type="text/css">
	.st0{fill:#263238;}
	.st1{fill:#FF5252;}
	.st2{fill:#FFD740;}
	.st3{fill:#40C4FF;}
	.st4{fill:#FFFFFF;}
	.st5{fill:#4DB6AC;}
	.st6{fill:#37474F;}
	.st7{fill:#4FC3F7;}
</style>
<g>
	<g>
		<path class="st0" d="M51,11h-4c-0.276,0-0.5-0.224-0.5-0.5S46.724,10,47,10h4c0.276,0,0.5,0.224,0.5,0.5S51.276,11,51,11z"/>
	</g>
	<g>
		<path class="st0" d="M56.5,6.5h-4C52.224,6.5,52,6.276,52,6s0.224-0.5,0.5-0.5h4C56.776,5.5,57,5.724,57,6S56.776,6.5,56.5,6.5z"
			/>
	</g>
	<g>
		<path class="st0" d="M54.5,8.5C54.224,8.5,54,8.276,54,8V4c0-0.276,0.224-0.5,0.5-0.5S55,3.724,55,4v4
			C55,8.276,54.776,8.5,54.5,8.5z"/>
	</g>
	<g>
		<path class="st0" d="M49,13c-0.276,0-0.5-0.224-0.5-0.5v-4C48.5,8.224,48.724,8,49,8s0.5,0.224,0.5,0.5v4
			C49.5,12.776,49.276,13,49,13z"/>
	</g>
	<g>
		<path class="st2" d="M59,33.412v15c0,2.761-2.239,5-5,5h-3c-0.552,0-1,0.448-1,1v4.586c0,0.891-1.077,1.337-1.707,0.707
			l-4.828-4.828c-0.938-0.938-2.209-1.464-3.536-1.464H32c-2.761,0-5-2.239-5-5v-15c0-2.761,2.239-5,5-5h22
			C56.761,28.412,59,30.651,59,33.412z"/>
		<path class="st0" d="M48.991,60.502c-0.386,0-0.761-0.153-1.051-0.443l-4.829-4.828c-0.85-0.85-1.98-1.318-3.182-1.318H32
			c-3.033,0-5.5-2.467-5.5-5.5v-15c0-3.033,2.467-5.5,5.5-5.5h22c3.033,0,5.5,2.467,5.5,5.5v15c0,3.033-2.467,5.5-5.5,5.5h-3
			c-0.276,0-0.5,0.224-0.5,0.5v4.586c0,0.618-0.355,1.149-0.926,1.386C49.383,60.463,49.185,60.502,48.991,60.502z M32,28.912
			c-2.481,0-4.5,2.019-4.5,4.5v15c0,2.481,2.019,4.5,4.5,4.5h7.929c1.469,0,2.851,0.572,3.889,1.611l4.829,4.828
			c0.218,0.219,0.472,0.139,0.545,0.108c0.072-0.03,0.309-0.152,0.309-0.462v-4.586c0-0.827,0.673-1.5,1.5-1.5h3
			c2.481,0,4.5-2.019,4.5-4.5v-15c0-2.481-2.019-4.5-4.5-4.5H32z"/>
	</g>
	<g>
		<path class="st5" d="M25,33.412c0-3.86,3.141-7,7-7h5v-12c0-2.761-2.239-5-5-5H10c-2.761,0-5,2.239-5,5v15c0,2.761,2.239,5,5,5h3
			c0.552,0,1,0.448,1,1v4.586c0,0.891,1.077,1.337,1.707,0.707l4.828-4.828c0.938-0.938,2.209-1.464,3.536-1.464H25V33.412z"/>
	</g>
	<g>
		<path class="st0" d="M15.009,41.502c-0.194,0-0.392-0.039-0.583-0.118c-0.571-0.236-0.926-0.768-0.926-1.386v-4.586
			c0-0.276-0.224-0.5-0.5-0.5h-3c-3.033,0-5.5-2.467-5.5-5.5v-15c0-3.033,2.467-5.5,5.5-5.5h22c3.033,0,5.5,2.467,5.5,5.5v12
			c0,0.276-0.224,0.5-0.5,0.5s-0.5-0.224-0.5-0.5v-12c0-2.481-2.019-4.5-4.5-4.5H10c-2.481,0-4.5,2.019-4.5,4.5v15
			c0,2.481,2.019,4.5,4.5,4.5h3c0.827,0,1.5,0.673,1.5,1.5v4.586c0,0.31,0.236,0.432,0.309,0.462
			c0.073,0.031,0.327,0.11,0.545-0.108l4.829-4.828c1.039-1.039,2.419-1.611,3.889-1.611H25c0.276,0,0.5,0.224,0.5,0.5
			s-0.224,0.5-0.5,0.5h-0.929c-1.202,0-2.332,0.468-3.182,1.318l-4.829,4.828C15.77,41.349,15.396,41.502,15.009,41.502z"/>
	</g>
	<g>
		<circle class="st4" cx="14" cy="21.912" r="2"/>
		<path class="st0" d="M14,24.412c-1.378,0-2.5-1.122-2.5-2.5s1.122-2.5,2.5-2.5s2.5,1.122,2.5,2.5S15.378,24.412,14,24.412z
			 M14,20.412c-0.827,0-1.5,0.673-1.5,1.5s0.673,1.5,1.5,1.5s1.5-0.673,1.5-1.5S14.827,20.412,14,20.412z"/>
	</g>
	<g>
		<circle class="st4" cx="21" cy="21.912" r="2"/>
		<path class="st0" d="M21,24.412c-1.378,0-2.5-1.122-2.5-2.5s1.122-2.5,2.5-2.5s2.5,1.122,2.5,2.5S22.378,24.412,21,24.412z
			 M21,20.412c-0.827,0-1.5,0.673-1.5,1.5s0.673,1.5,1.5,1.5s1.5-0.673,1.5-1.5S21.827,20.412,21,20.412z"/>
	</g>
	<g>
		<circle class="st4" cx="28" cy="21.912" r="2"/>
		<path class="st0" d="M28,24.412c-1.378,0-2.5-1.122-2.5-2.5s1.122-2.5,2.5-2.5s2.5,1.122,2.5,2.5S29.378,24.412,28,24.412z
			 M28,20.412c-0.827,0-1.5,0.673-1.5,1.5s0.673,1.5,1.5,1.5s1.5-0.673,1.5-1.5S28.827,20.412,28,20.412z"/>
	</g>
	<g>
		<circle class="st4" cx="36" cy="40.912" r="2"/>
		<path class="st0" d="M36,43.412c-1.378,0-2.5-1.122-2.5-2.5s1.122-2.5,2.5-2.5s2.5,1.122,2.5,2.5S37.378,43.412,36,43.412z
			 M36,39.412c-0.827,0-1.5,0.673-1.5,1.5s0.673,1.5,1.5,1.5s1.5-0.673,1.5-1.5S36.827,39.412,36,39.412z"/>
	</g>
	<g>
		<circle class="st4" cx="43" cy="40.912" r="2"/>
		<path class="st0" d="M43,43.412c-1.378,0-2.5-1.122-2.5-2.5s1.122-2.5,2.5-2.5s2.5,1.122,2.5,2.5S44.378,43.412,43,43.412z
			 M43,39.412c-0.827,0-1.5,0.673-1.5,1.5s0.673,1.5,1.5,1.5s1.5-0.673,1.5-1.5S43.827,39.412,43,39.412z"/>
	</g>
	<g>
		<circle class="st4" cx="50" cy="40.912" r="2"/>
		<path class="st0" d="M50,43.412c-1.378,0-2.5-1.122-2.5-2.5s1.122-2.5,2.5-2.5s2.5,1.122,2.5,2.5S51.378,43.412,50,43.412z
			 M50,39.412c-0.827,0-1.5,0.673-1.5,1.5s0.673,1.5,1.5,1.5s1.5-0.673,1.5-1.5S50.827,39.412,50,39.412z"/>
	</g>
	<g>
		<path class="st0" d="M53.5,24h-11c-0.276,0-0.5-0.224-0.5-0.5s0.224-0.5,0.5-0.5h11c0.276,0,0.5,0.224,0.5,0.5S53.776,24,53.5,24z
			"/>
	</g>
	<g>
		<path class="st0" d="M57.5,24h-2c-0.276,0-0.5-0.224-0.5-0.5s0.224-0.5,0.5-0.5h2c0.276,0,0.5,0.224,0.5,0.5S57.776,24,57.5,24z"
			/>
	</g>
	<g>
		<path class="st0" d="M23.5,53.912h-11c-0.276,0-0.5-0.224-0.5-0.5s0.224-0.5,0.5-0.5h11c0.276,0,0.5,0.224,0.5,0.5
			S23.776,53.912,23.5,53.912z"/>
	</g>
	<g>
		<path class="st0" d="M10.5,53.912h-2c-0.276,0-0.5-0.224-0.5-0.5s0.224-0.5,0.5-0.5h2c0.276,0,0.5,0.224,0.5,0.5
			S10.776,53.912,10.5,53.912z"/>
	</g>
	<g>
		<path class="st0" d="M34,17.912c-0.276,0-0.5-0.224-0.5-0.5v-2.5c0-1.103-0.897-2-2-2H29c-0.276,0-0.5-0.224-0.5-0.5
			s0.224-0.5,0.5-0.5h2.5c1.654,0,3,1.346,3,3v2.5C34.5,17.688,34.276,17.912,34,17.912z"/>
	</g>
	<g>
		<path class="st0" d="M56,36.912c-0.276,0-0.5-0.224-0.5-0.5v-2.5c0-1.103-0.897-2-2-2H51c-0.276,0-0.5-0.224-0.5-0.5
			s0.224-0.5,0.5-0.5h2.5c1.654,0,3,1.346,3,3v2.5C56.5,36.688,56.276,36.912,56,36.912z"/>
	</g>
</g>
</svg>
