<?xml version="1.0" encoding="utf-8"?>
<!-- Generator: Adobe Illustrator 21.1.0, SVG Export Plug-In . SVG Version: 6.00 Build 0)  -->
<svg version="1.1" id="Icon_Set" xmlns="http://www.w3.org/2000/svg" xmlns:xlink="http://www.w3.org/1999/xlink" x="0px" y="0px"
	 viewBox="0 0 64 64" style="enable-background:new 0 0 64 64;" xml:space="preserve">
<style type="text/css">
	.st0{fill:#263238;}
	.st1{fill:#FF5252;}
	.st2{fill:#FFD740;}
	.st3{fill:#40C4FF;}
	.st4{fill:#FFFFFF;}
	.st5{fill:#4DB6AC;}
	.st6{fill:#37474F;}
	.st7{fill:#4FC3F7;}
</style>
<g>
	<g>
		<ellipse transform="matrix(0.7071 -0.7071 0.7071 0.7071 -10.6312 30.0848)" class="st3" cx="31" cy="27.875" rx="14" ry="14"/>
		<path class="st0" d="M31,42.375c-3.873,0-7.515-1.508-10.253-4.247c-2.739-2.739-4.247-6.38-4.247-10.253
			s1.508-7.514,4.247-10.253c2.738-2.739,6.38-4.247,10.253-4.247s7.515,1.508,10.253,4.247c2.739,2.739,4.247,6.38,4.247,10.253
			s-1.508,7.514-4.247,10.253l0,0l0,0C38.515,40.867,34.873,42.375,31,42.375z M31,14.375c-3.606,0-6.996,1.404-9.546,3.954
			S17.5,24.27,17.5,27.875s1.404,6.996,3.954,9.546s5.939,3.954,9.546,3.954s6.996-1.404,9.546-3.954l0,0
			c2.55-2.55,3.954-5.94,3.954-9.546s-1.404-6.996-3.954-9.546S34.606,14.375,31,14.375z"/>
	</g>
	<g>
		<path class="st0" d="M50.5,4.125h-4c-0.276,0-0.5-0.224-0.5-0.5s0.224-0.5,0.5-0.5h4c0.276,0,0.5,0.224,0.5,0.5
			S50.776,4.125,50.5,4.125z"/>
	</g>
	<g>
		<path class="st0" d="M48.5,6.125c-0.276,0-0.5-0.224-0.5-0.5v-4c0-0.276,0.224-0.5,0.5-0.5s0.5,0.224,0.5,0.5v4
			C49,5.902,48.776,6.125,48.5,6.125z"/>
	</g>
	<g>
		<path class="st0" d="M56,8.625h-4c-0.276,0-0.5-0.224-0.5-0.5s0.224-0.5,0.5-0.5h4c0.276,0,0.5,0.224,0.5,0.5
			S56.276,8.625,56,8.625z"/>
	</g>
	<g>
		<path class="st0" d="M54,10.625c-0.276,0-0.5-0.224-0.5-0.5v-4c0-0.276,0.224-0.5,0.5-0.5s0.5,0.224,0.5,0.5v4
			C54.5,10.402,54.276,10.625,54,10.625z"/>
	</g>
	<g>
		<path class="st0" d="M12,52.875c-0.276,0-0.5-0.224-0.5-0.5v-39c0-3.033,2.468-5.5,5.5-5.5h30.5c1.654,0,3,1.346,3,3v36.5
			c0,0.276-0.224,0.5-0.5,0.5H17c-2.481,0-4.5,2.019-4.5,4.5C12.5,52.652,12.276,52.875,12,52.875z M17,8.875
			c-2.481,0-4.5,2.019-4.5,4.5v35.841c0.996-1.415,2.642-2.341,4.5-2.341h32.5v-36c0-1.103-0.897-2-2-2H17z"/>
	</g>
	<g>
		<path class="st0" d="M47.5,57.875H17c-1.546,0-3.029-0.656-4.07-1.801c-0.948-1.042-1.446-2.363-1.43-3.76V13.375
			c0-3.033,2.468-5.5,5.5-5.5h30.5c1.654,0,3,1.346,3,3v36.5c0,0.276-0.224,0.5-0.5,0.5H17.215c-2.415,0-4.477,1.782-4.693,4.056
			c-0.013,0.134-0.021,0.268-0.021,0.401v0.043c0,0.005,0,0.01,0,0.015c0.002,1.12,0.409,2.175,1.17,3.011
			c0.852,0.937,2.065,1.474,3.33,1.474h30.5c1.103,0,2-0.897,2-2v-5.367c0-0.276,0.224-0.5,0.5-0.5s0.5,0.224,0.5,0.5v5.367
			C50.5,56.53,49.154,57.875,47.5,57.875z M17,8.875c-2.481,0-4.5,2.019-4.5,4.5V49.27c1.04-1.445,2.784-2.395,4.715-2.395H49.5v-36
			c0-1.103-0.897-2-2-2H17z"/>
	</g>
	<g>
		<polyline class="st1" points="22,54.375 22,62.375 19.5,60.375 17,62.375 17,54.375 		"/>
		<path class="st0" d="M22,62.875c-0.111,0-0.222-0.037-0.313-0.109l-2.187-1.75l-2.188,1.75c-0.151,0.12-0.354,0.143-0.529,0.06
			c-0.173-0.083-0.283-0.258-0.283-0.451v-8c0-0.276,0.224-0.5,0.5-0.5s0.5,0.224,0.5,0.5v6.959l1.687-1.35
			c0.184-0.146,0.441-0.146,0.625,0l1.688,1.35v-6.959c0-0.276,0.224-0.5,0.5-0.5s0.5,0.224,0.5,0.5v8
			c0,0.192-0.11,0.367-0.283,0.451C22.147,62.859,22.073,62.875,22,62.875z"/>
	</g>
	<g>
		<path class="st0" d="M46,52.875H16c-0.276,0-0.5-0.224-0.5-0.5s0.224-0.5,0.5-0.5h30c0.276,0,0.5,0.224,0.5,0.5
			S46.276,52.875,46,52.875z"/>
	</g>
	<g>
		<path class="st0" d="M8,27.875c-0.276,0-0.5-0.224-0.5-0.5v-14c0-0.276,0.224-0.5,0.5-0.5s0.5,0.224,0.5,0.5v14
			C8.5,27.652,8.276,27.875,8,27.875z"/>
	</g>
	<g>
		<path class="st0" d="M8,31.875c-0.276,0-0.5-0.224-0.5-0.5v-2c0-0.276,0.224-0.5,0.5-0.5s0.5,0.224,0.5,0.5v2
			C8.5,31.652,8.276,31.875,8,31.875z"/>
	</g>
	<g>
		<path class="st0" d="M54,52.875c-0.276,0-0.5-0.224-0.5-0.5v-13.5c0-0.276,0.224-0.5,0.5-0.5s0.5,0.224,0.5,0.5v13.5
			C54.5,52.652,54.276,52.875,54,52.875z"/>
	</g>
	<g>
		<path class="st0" d="M54,37.375c-0.276,0-0.5-0.224-0.5-0.5v-2c0-0.276,0.224-0.5,0.5-0.5s0.5,0.224,0.5,0.5v2
			C54.5,37.152,54.276,37.375,54,37.375z"/>
	</g>
	<g>
		<circle class="st4" cx="31" cy="23.375" r="6"/>
		<path class="st0" d="M31,29.875c-3.584,0-6.5-2.916-6.5-6.5s2.916-6.5,6.5-6.5s6.5,2.916,6.5,6.5S34.584,29.875,31,29.875z
			 M31,17.875c-3.032,0-5.5,2.467-5.5,5.5s2.468,5.5,5.5,5.5s5.5-2.467,5.5-5.5S34.032,17.875,31,17.875z"/>
	</g>
	<g>
		<path class="st2" d="M35.16,19.906l0.447-0.372c-1.101-1.319-2.755-2.159-4.607-2.159c-3.314,0-6,2.686-6,6h0.566
			C29.072,23.375,32.466,22.148,35.16,19.906z"/>
		<path class="st0" d="M25.566,23.875H25c-0.276,0-0.5-0.224-0.5-0.5c0-3.584,2.916-6.5,6.5-6.5c1.932,0,3.751,0.852,4.991,2.338
			c0.085,0.102,0.126,0.233,0.114,0.366s-0.076,0.254-0.179,0.339l-0.447,0.372C32.701,22.603,29.181,23.875,25.566,23.875z
			 M25.522,22.875h0.044c3.381,0,6.675-1.191,9.274-3.354l0,0l0.045-0.038c-1.028-1.028-2.419-1.609-3.886-1.609
			C28.136,17.875,25.775,20.076,25.522,22.875z"/>
	</g>
	<g>
		<path class="st4" d="M33.99,28.572c-0.881,0.508-1.9,0.803-2.99,0.803c-1.094,0-2.116-0.297-2.999-0.809h-0.001l0.001,1.804
			l3.004,4.501l2.996-4.501l-0.001-1.798H33.99z"/>
		<path class="st0" d="M31.005,35.371c-0.167,0-0.323-0.083-0.416-0.223l-3.004-4.5c-0.055-0.082-0.084-0.178-0.084-0.277
			l-0.002-1.804c0-0.179,0.095-0.344,0.25-0.434c0.155-0.089,0.347-0.088,0.5,0c1.677,0.969,3.818,0.971,5.491,0.005
			c0.076-0.044,0.162-0.067,0.25-0.067h0.009c0.276,0,0.5,0.224,0.5,0.5l0.002,1.798c0,0.099-0.029,0.195-0.084,0.277l-2.996,4.5
			C31.328,35.287,31.173,35.371,31.005,35.371L31.005,35.371z M28.501,30.219l2.503,3.75l2.497-3.75L33.5,29.372
			c-1.582,0.662-3.417,0.663-4.999,0V30.219z"/>
	</g>
	<g>
		<path class="st4" d="M34,30.372l4.236,2.118C39.93,33.337,41,35.068,41,36.962v0.702c-0.035,0.036-0.065,0.075-0.1,0.111
			c-5.467,5.467-14.332,5.467-19.799,0c-0.036-0.036-0.065-0.075-0.1-0.111v-0.702c0-1.892,1.068-3.623,2.76-4.47l4.236-2.122
			l3.008,4.502L34,30.372z"/>
		<path class="st0" d="M31.001,42.369c-3.713,0-7.427-1.414-10.254-4.24c-0.009-0.009-0.071-0.078-0.08-0.087
			c-0.078-0.091-0.167-0.258-0.167-0.378v-0.702c0-2.095,1.164-3.979,3.037-4.917l4.235-2.122c0.223-0.111,0.499-0.041,0.64,0.169
			l2.592,3.878l2.58-3.875c0.141-0.211,0.415-0.283,0.64-0.17l4.236,2.118c1.875,0.938,3.04,2.823,3.04,4.919v0.702
			c0,0.13-0.051,0.255-0.142,0.349l-0.107,0.119C38.426,40.956,34.713,42.369,31.001,42.369z M21.5,37.463
			c5.282,5.204,13.757,5.197,19,0.003v-0.505c0-1.715-0.953-3.257-2.487-4.025l-3.841-1.92l-2.751,4.131
			c-0.093,0.139-0.248,0.223-0.416,0.223l0,0c-0.167,0-0.323-0.083-0.416-0.222l-2.764-4.135l-3.841,1.925
			c-1.532,0.768-2.484,2.309-2.484,4.023V37.463z"/>
	</g>
	<g>
		<path class="st0" d="M31,37.875c-0.276,0-0.5-0.224-0.5-0.5v-2.504c0-0.276,0.224-0.5,0.5-0.5s0.5,0.224,0.5,0.5v2.504
			C31.5,37.652,31.276,37.875,31,37.875z"/>
	</g>
	<g>
		<path class="st0" d="M47,16.875c-0.276,0-0.5-0.224-0.5-0.5v-4c0-0.276-0.225-0.5-0.5-0.5h-4c-0.276,0-0.5-0.224-0.5-0.5
			s0.224-0.5,0.5-0.5h4c0.827,0,1.5,0.673,1.5,1.5v4C47.5,16.652,47.276,16.875,47,16.875z"/>
	</g>
</g>
</svg>
