<?xml version="1.0" encoding="utf-8"?>
<!-- Generator: Adobe Illustrator 21.1.0, SVG Export Plug-In . SVG Version: 6.00 Build 0)  -->
<svg version="1.1" id="Icon_Set" xmlns="http://www.w3.org/2000/svg" xmlns:xlink="http://www.w3.org/1999/xlink" x="0px" y="0px"
	 viewBox="0 0 64 64" style="enable-background:new 0 0 64 64;" xml:space="preserve">
<style type="text/css">
	.st0{fill:#263238;}
	.st1{fill:#FF5252;}
	.st2{fill:#FFD740;}
	.st3{fill:#40C4FF;}
	.st4{fill:#FFFFFF;}
	.st5{fill:#4DB6AC;}
	.st6{fill:#37474F;}
	.st7{fill:#4FC3F7;}
</style>
<g>
	<g>
		<rect x="0.5" y="18" class="st2" width="18" height="22"/>
	</g>
	<g>
		<path class="st0" d="M16,44.5H3c-1.654,0-3-1.346-3-3v-24c0-1.654,1.346-3,3-3h13c1.654,0,3,1.346,3,3v24
			C19,43.154,17.654,44.5,16,44.5z M3,15.5c-1.103,0-2,0.897-2,2v24c0,1.103,0.897,2,2,2h13c1.103,0,2-0.897,2-2v-24
			c0-1.103-0.897-2-2-2H3z"/>
	</g>
	<g>
		<path class="st0" d="M18.5,40.5h-18C0.223,40.5,0,40.276,0,40s0.224-0.5,0.5-0.5h18c0.276,0,0.5,0.224,0.5,0.5
			S18.776,40.5,18.5,40.5z"/>
	</g>
	<g>
		<path class="st0" d="M18.5,18.5h-18C0.223,18.5,0,18.276,0,18s0.224-0.5,0.5-0.5h18c0.276,0,0.5,0.224,0.5,0.5
			S18.776,18.5,18.5,18.5z"/>
	</g>
	<g>
		<path class="st0" d="M11,42.5H8c-0.276,0-0.5-0.224-0.5-0.5s0.224-0.5,0.5-0.5h3c0.276,0,0.5,0.224,0.5,0.5S11.276,42.5,11,42.5z"
			/>
	</g>
	<g>
		<path class="st0" d="M61,59.5H48c-1.654,0-3-1.346-3-3v-24c0-1.654,1.346-3,3-3h13c1.654,0,3,1.346,3,3v24
			C64,58.154,62.654,59.5,61,59.5z M48,30.5c-1.103,0-2,0.897-2,2v24c0,1.103,0.897,2,2,2h13c1.103,0,2-0.897,2-2v-24
			c0-1.103-0.897-2-2-2H48z"/>
	</g>
	<g>
		<path class="st0" d="M63.5,55.5h-18c-0.276,0-0.5-0.224-0.5-0.5s0.224-0.5,0.5-0.5h18c0.276,0,0.5,0.224,0.5,0.5
			S63.776,55.5,63.5,55.5z"/>
	</g>
	<g>
		<path class="st0" d="M63.5,33.5h-18c-0.276,0-0.5-0.224-0.5-0.5s0.224-0.5,0.5-0.5h18c0.276,0,0.5,0.224,0.5,0.5
			S63.776,33.5,63.5,33.5z"/>
	</g>
	<g>
		<path class="st0" d="M56,57.5h-3c-0.276,0-0.5-0.224-0.5-0.5s0.224-0.5,0.5-0.5h3c0.276,0,0.5,0.224,0.5,0.5S56.276,57.5,56,57.5z
			"/>
	</g>
	<g>
		<polygon class="st3" points="23.5,29 29.5,35 29.5,31.5 40.5,31.5 40.5,26.5 29.5,26.5 29.5,23 		"/>
		<path class="st0" d="M29.5,35.5c-0.13,0-0.258-0.051-0.354-0.146l-6-6c-0.195-0.195-0.195-0.512,0-0.707l6-6
			c0.144-0.143,0.357-0.186,0.545-0.108C29.878,22.615,30,22.798,30,23v3h10.5c0.276,0,0.5,0.224,0.5,0.5v5
			c0,0.276-0.224,0.5-0.5,0.5H30v3c0,0.202-0.122,0.385-0.309,0.462C29.629,35.488,29.564,35.5,29.5,35.5z M24.207,29L29,33.793
			V31.5c0-0.276,0.224-0.5,0.5-0.5H40v-4H29.5c-0.276,0-0.5-0.224-0.5-0.5v-2.293L24.207,29z"/>
	</g>
	<g>
		<polygon class="st1" points="40.5,45 34.5,39 34.5,42.5 23.5,42.5 23.5,47.5 34.5,47.5 34.5,51 		"/>
		<path class="st0" d="M34.5,51.5c-0.064,0-0.13-0.012-0.191-0.038C34.122,51.385,34,51.202,34,51v-3H23.5
			c-0.276,0-0.5-0.224-0.5-0.5v-5c0-0.276,0.224-0.5,0.5-0.5H34v-3c0-0.202,0.122-0.385,0.309-0.462
			c0.187-0.077,0.401-0.035,0.545,0.108l6,6c0.195,0.195,0.195,0.512,0,0.707l-6,6C34.758,51.449,34.63,51.5,34.5,51.5z M24,47h10.5
			c0.276,0,0.5,0.224,0.5,0.5v2.293L39.793,45L35,40.207V42.5c0,0.276-0.224,0.5-0.5,0.5H24V47z"/>
	</g>
	<g>
		<path class="st0" d="M34.5,12.5h-4c-0.276,0-0.5-0.224-0.5-0.5s0.224-0.5,0.5-0.5h4c0.276,0,0.5,0.224,0.5,0.5
			S34.776,12.5,34.5,12.5z"/>
	</g>
	<g>
		<path class="st0" d="M40.5,7.5h-4C36.224,7.5,36,7.276,36,7s0.224-0.5,0.5-0.5h4C40.776,6.5,41,6.724,41,7S40.776,7.5,40.5,7.5z"
			/>
	</g>
	<g>
		<path class="st0" d="M38.5,9.5C38.224,9.5,38,9.276,38,9V5c0-0.276,0.224-0.5,0.5-0.5S39,4.724,39,5v4
			C39,9.276,38.776,9.5,38.5,9.5z"/>
	</g>
	<g>
		<path class="st0" d="M32.5,14.5c-0.276,0-0.5-0.224-0.5-0.5v-4c0-0.276,0.224-0.5,0.5-0.5S33,9.724,33,10v4
			C33,14.276,32.776,14.5,32.5,14.5z"/>
	</g>
	<g>
		<path class="st0" d="M18.5,53.5h-14C4.223,53.5,4,53.276,4,53s0.224-0.5,0.5-0.5h14c0.276,0,0.5,0.224,0.5,0.5
			S18.776,53.5,18.5,53.5z"/>
	</g>
	<g>
		<path class="st0" d="M2.5,53.5h-2C0.223,53.5,0,53.276,0,53s0.224-0.5,0.5-0.5h2C2.776,52.5,3,52.724,3,53S2.776,53.5,2.5,53.5z"
			/>
	</g>
	<g>
		<path class="st0" d="M59.5,21.5h-14c-0.276,0-0.5-0.224-0.5-0.5s0.224-0.5,0.5-0.5h14c0.276,0,0.5,0.224,0.5,0.5
			S59.776,21.5,59.5,21.5z"/>
	</g>
	<g>
		<path class="st0" d="M63.5,21.5h-2c-0.276,0-0.5-0.224-0.5-0.5s0.224-0.5,0.5-0.5h2c0.276,0,0.5,0.224,0.5,0.5
			S63.776,21.5,63.5,21.5z"/>
	</g>
	<g>
		<circle class="st5" cx="54.5" cy="44" r="7.5"/>
	</g>
	<g>
		<path class="st0" d="M53.263,46.829c-0.133,0-0.26-0.053-0.354-0.146l-2.829-2.829c-0.195-0.195-0.195-0.512,0-0.707
			s0.512-0.195,0.707,0l2.476,2.475l4.949-4.95c0.195-0.195,0.512-0.195,0.707,0s0.195,0.512,0,0.707l-5.303,5.304
			C53.522,46.776,53.396,46.829,53.263,46.829z"/>
	</g>
</g>
</svg>
