<?xml version="1.0" encoding="utf-8"?>
<!-- Generator: Adobe Illustrator 21.1.0, SVG Export Plug-In . SVG Version: 6.00 Build 0)  -->
<svg version="1.1" id="Icon_Set" xmlns="http://www.w3.org/2000/svg" xmlns:xlink="http://www.w3.org/1999/xlink" x="0px" y="0px"
	 viewBox="0 0 64 64" style="enable-background:new 0 0 64 64;" xml:space="preserve">
<style type="text/css">
	.st0{fill:#263238;}
	.st1{fill:#FF5252;}
	.st2{fill:#FFD740;}
	.st3{fill:#40C4FF;}
	.st4{fill:#FFFFFF;}
	.st5{fill:#4DB6AC;}
	.st6{fill:#37474F;}
	.st7{fill:#4FC3F7;}
</style>
<g>
	<g>
		<path class="st0" d="M26.001,53.25c-0.276,0-0.5-0.224-0.5-0.5v-3.5c0-0.276,0.224-0.5,0.5-0.5s0.5,0.224,0.5,0.5v3.5
			C26.501,53.026,26.277,53.25,26.001,53.25z"/>
	</g>
	<g>
		<path class="st0" d="M38.001,53.25c-0.276,0-0.5-0.224-0.5-0.5v-3.5c0-0.276,0.224-0.5,0.5-0.5s0.5,0.224,0.5,0.5v3.5
			C38.501,53.026,38.277,53.25,38.001,53.25z"/>
	</g>
	<g>
		<path class="st0" d="M42.001,59.25h-20c-0.827,0-1.5-0.673-1.5-1.5v-2c0-0.827,0.673-1.5,1.5-1.5h20c0.827,0,1.5,0.673,1.5,1.5v2
			C43.501,58.577,42.828,59.25,42.001,59.25z M22.001,55.25c-0.275,0-0.5,0.224-0.5,0.5v2c0,0.276,0.225,0.5,0.5,0.5h20
			c0.275,0,0.5-0.224,0.5-0.5v-2c0-0.276-0.225-0.5-0.5-0.5H22.001z"/>
	</g>
	<g>
		<path class="st0" d="M59.501,47.75h-55c-1.654,0-3-1.346-3-3v-37c0-1.654,1.346-3,3-3h55c1.654,0,3,1.346,3,3v37
			C62.501,46.404,61.155,47.75,59.501,47.75z M4.501,5.75c-1.103,0-2,0.897-2,2v37c0,1.103,0.897,2,2,2h55c1.103,0,2-0.897,2-2v-37
			c0-1.103-0.897-2-2-2H4.501z"/>
	</g>
	<g>
		<path class="st0" d="M56.501,53.25h-7.5c-0.276,0-0.5-0.224-0.5-0.5s0.224-0.5,0.5-0.5h7.5c0.276,0,0.5,0.224,0.5,0.5
			S56.777,53.25,56.501,53.25z"/>
	</g>
	<g>
		<path class="st0" d="M59.501,53.25h-1c-0.276,0-0.5-0.224-0.5-0.5s0.224-0.5,0.5-0.5h1c0.276,0,0.5,0.224,0.5,0.5
			S59.777,53.25,59.501,53.25z"/>
	</g>
	<g>
		<path class="st0" d="M15.001,53.25h-7.5c-0.276,0-0.5-0.224-0.5-0.5s0.224-0.5,0.5-0.5h7.5c0.276,0,0.5,0.224,0.5,0.5
			S15.277,53.25,15.001,53.25z"/>
	</g>
	<g>
		<path class="st0" d="M5.501,53.25h-1c-0.276,0-0.5-0.224-0.5-0.5s0.224-0.5,0.5-0.5h1c0.276,0,0.5,0.224,0.5,0.5
			S5.777,53.25,5.501,53.25z"/>
	</g>
	<g>
		<path class="st0" d="M58.001,42.75h-52c-0.827,0-1.5-0.673-1.5-1.5v-30c0-0.827,0.673-1.5,1.5-1.5h52c0.827,0,1.5,0.673,1.5,1.5
			v30C59.501,42.077,58.828,42.75,58.001,42.75z M6.001,10.75c-0.275,0-0.5,0.224-0.5,0.5v30c0,0.276,0.225,0.5,0.5,0.5h52
			c0.275,0,0.5-0.224,0.5-0.5v-30c0-0.276-0.225-0.5-0.5-0.5H6.001z"/>
	</g>
	<g>
		<path class="st5" d="M41.501,15.25h-19c-1.381,0-2.5,1.119-2.5,2.5v12.5c0,1.381,1.119,2.5,2.5,2.5h3v3.443
			c0,0.834,0.962,1.302,1.618,0.786l5.382-4.229h9c1.381,0,2.5-1.119,2.5-2.5v-12.5C44.001,16.369,42.881,15.25,41.501,15.25z"/>
		<path class="st0" d="M26.504,37.694c-0.224,0-0.448-0.05-0.658-0.153c-0.521-0.253-0.845-0.77-0.845-1.349V33.25h-2.5
			c-1.654,0-3-1.346-3-3v-12.5c0-1.654,1.346-3,3-3h19c1.654,0,3,1.346,3,3v12.5c0,1.654-1.346,3-3,3h-8.827l-5.247,4.122
			C27.156,37.585,26.832,37.694,26.504,37.694z M22.501,15.75c-1.103,0-2,0.897-2,2v12.5c0,1.103,0.897,2,2,2h3
			c0.276,0,0.5,0.224,0.5,0.5v3.442c0,0.196,0.105,0.364,0.281,0.45c0.181,0.087,0.374,0.064,0.527-0.056l5.383-4.229
			c0.088-0.069,0.196-0.107,0.309-0.107h9c1.103,0,2-0.897,2-2v-12.5c0-1.103-0.897-2-2-2H22.501z"/>
	</g>
	<g>
		<path class="st0" d="M26.001,25.75c-1.103,0-2-0.897-2-2s0.897-2,2-2s2,0.897,2,2S27.104,25.75,26.001,25.75z M26.001,22.75
			c-0.552,0-1,0.449-1,1s0.448,1,1,1s1-0.449,1-1S26.553,22.75,26.001,22.75z"/>
	</g>
	<g>
		<path class="st0" d="M32.001,25.75c-1.103,0-2-0.897-2-2s0.897-2,2-2s2,0.897,2,2S33.104,25.75,32.001,25.75z M32.001,22.75
			c-0.552,0-1,0.449-1,1s0.448,1,1,1s1-0.449,1-1S32.553,22.75,32.001,22.75z"/>
	</g>
	<g>
		<path class="st0" d="M38.001,25.75c-1.103,0-2-0.897-2-2s0.897-2,2-2s2,0.897,2,2S39.104,25.75,38.001,25.75z M38.001,22.75
			c-0.552,0-1,0.449-1,1s0.448,1,1,1s1-0.449,1-1S38.553,22.75,38.001,22.75z"/>
	</g>
	<g>
		<path class="st0" d="M56.001,18.75c-0.276,0-0.5-0.224-0.5-0.5v-4c0-0.276-0.225-0.5-0.5-0.5h-4c-0.276,0-0.5-0.224-0.5-0.5
			s0.224-0.5,0.5-0.5h4c0.827,0,1.5,0.673,1.5,1.5v4C56.501,18.526,56.277,18.75,56.001,18.75z"/>
	</g>
</g>
</svg>
