<?xml version="1.0" encoding="utf-8"?>
<!-- Generator: Adobe Illustrator 21.1.0, SVG Export Plug-In . SVG Version: 6.00 Build 0)  -->
<svg version="1.1" id="Icon_Set" xmlns="http://www.w3.org/2000/svg" xmlns:xlink="http://www.w3.org/1999/xlink" x="0px" y="0px"
	 viewBox="0 0 64 64" style="enable-background:new 0 0 64 64;" xml:space="preserve">
<style type="text/css">
	.st0{fill:#263238;}
	.st1{fill:#FF5252;}
	.st2{fill:#FFD740;}
	.st3{fill:#40C4FF;}
	.st4{fill:#FFFFFF;}
	.st5{fill:#4DB6AC;}
	.st6{fill:#37474F;}
	.st7{fill:#4FC3F7;}
</style>
<g>
	<g>
		<path class="st0" d="M49,64H12c-1.654,0-3-1.346-3-3v-0.5C9,60.224,9.224,60,9.5,60s0.5,0.224,0.5,0.5V61c0,1.103,0.897,2,2,2h37
			c1.103,0,2-0.897,2-2V14c0-1.103-0.897-2-2-2h-0.5c-0.276,0-0.5-0.224-0.5-0.5s0.224-0.5,0.5-0.5H49c1.654,0,3,1.346,3,3v47
			C52,62.654,50.654,64,49,64z"/>
	</g>
	<g>
		<path class="st0" d="M53,3h-4c-0.276,0-0.5-0.224-0.5-0.5S48.724,2,49,2h4c0.276,0,0.5,0.224,0.5,0.5S53.276,3,53,3z"/>
	</g>
	<g>
		<path class="st0" d="M51,5c-0.276,0-0.5-0.224-0.5-0.5v-4C50.5,0.224,50.724,0,51,0s0.5,0.224,0.5,0.5v4C51.5,4.776,51.276,5,51,5
			z"/>
	</g>
	<g>
		<path class="st0" d="M58.5,8.5h-4C54.224,8.5,54,8.276,54,8s0.224-0.5,0.5-0.5h4C58.776,7.5,59,7.724,59,8S58.776,8.5,58.5,8.5z"
			/>
	</g>
	<g>
		<path class="st0" d="M56.5,10.5c-0.276,0-0.5-0.224-0.5-0.5V6c0-0.276,0.224-0.5,0.5-0.5S57,5.724,57,6v4
			C57,10.276,56.776,10.5,56.5,10.5z"/>
	</g>
	<g>
		<path class="st0" d="M56.5,59c-0.276,0-0.5-0.224-0.5-0.5v-2c0-0.276,0.224-0.5,0.5-0.5s0.5,0.224,0.5,0.5v2
			C57,58.776,56.776,59,56.5,59z"/>
	</g>
	<g>
		<path class="st0" d="M56.5,55c-0.276,0-0.5-0.224-0.5-0.5v-18c0-0.276,0.224-0.5,0.5-0.5s0.5,0.224,0.5,0.5v18
			C57,54.776,56.776,55,56.5,55z"/>
	</g>
	<g>
		<path class="st0" d="M13,17H5.5c-0.202,0-0.385-0.122-0.462-0.309c-0.078-0.187-0.035-0.402,0.108-0.545l10-10
			c0.144-0.144,0.357-0.185,0.545-0.108C15.878,6.115,16,6.298,16,6.5V14C16,15.654,14.654,17,13,17z M6.707,16H13
			c1.103,0,2-0.897,2-2V7.707L6.707,16z"/>
	</g>
	<g>
		<path class="st0" d="M44,59H8c-1.654,0-3-1.346-3-3V16.499c0-0.133,0.053-0.26,0.146-0.354l10-9.999C15.24,6.053,15.367,6,15.5,6
			H44c1.654,0,3,1.346,3,3v47C47,57.654,45.654,59,44,59z M6,16.706V56c0,1.103,0.897,2,2,2h36c1.103,0,2-0.897,2-2V9
			c0-1.103-0.897-2-2-2H15.707L6,16.706z"/>
	</g>
	<g>
		<path class="st0" d="M33.5,17h-15c-0.276,0-0.5-0.224-0.5-0.5s0.224-0.5,0.5-0.5h15c0.276,0,0.5,0.224,0.5,0.5S33.776,17,33.5,17z
			"/>
	</g>
	<g>
		<path class="st0" d="M41,24H11c-0.276,0-0.5-0.224-0.5-0.5S10.724,23,11,23h30c0.276,0,0.5,0.224,0.5,0.5S41.276,24,41,24z"/>
	</g>
	<g>
		<path class="st0" d="M41,29H11c-0.276,0-0.5-0.224-0.5-0.5S10.724,28,11,28h30c0.276,0,0.5,0.224,0.5,0.5S41.276,29,41,29z"/>
	</g>
	<g>
		<path class="st0" d="M41,34H11c-0.276,0-0.5-0.224-0.5-0.5S10.724,33,11,33h30c0.276,0,0.5,0.224,0.5,0.5S41.276,34,41,34z"/>
	</g>
	<g>
		<path class="st0" d="M41,39H11c-0.276,0-0.5-0.224-0.5-0.5S10.724,38,11,38h30c0.276,0,0.5,0.224,0.5,0.5S41.276,39,41,39z"/>
	</g>
	<g>
		<rect x="11" y="43.5" class="st5" width="12" height="7.5"/>
		<path class="st0" d="M23,51.5H11c-0.276,0-0.5-0.224-0.5-0.5v-7.5c0-0.276,0.224-0.5,0.5-0.5h12c0.276,0,0.5,0.224,0.5,0.5V51
			C23.5,51.276,23.276,51.5,23,51.5z M11.5,50.5h11V44h-11V50.5z"/>
	</g>
	<g>
		<path class="st0" d="M43.5,15c-0.276,0-0.5-0.224-0.5-0.5v-4c0-0.275-0.224-0.5-0.5-0.5h-4C38.224,10,38,9.776,38,9.5
			S38.224,9,38.5,9h4c0.827,0,1.5,0.673,1.5,1.5v4C44,14.776,43.776,15,43.5,15z"/>
	</g>
</g>
</svg>
