<?xml version="1.0" encoding="utf-8"?>
<!-- Generator: Adobe Illustrator 21.1.0, SVG Export Plug-In . SVG Version: 6.00 Build 0)  -->
<svg version="1.1" id="Icon_Set" xmlns="http://www.w3.org/2000/svg" xmlns:xlink="http://www.w3.org/1999/xlink" x="0px" y="0px"
	 viewBox="0 0 64 64" style="enable-background:new 0 0 64 64;" xml:space="preserve">
<style type="text/css">
	.st0{fill:#263238;}
	.st1{fill:#FF5252;}
	.st2{fill:#FFD740;}
	.st3{fill:#40C4FF;}
	.st4{fill:#FFFFFF;}
	.st5{fill:#4DB6AC;}
	.st6{fill:#37474F;}
	.st7{fill:#4FC3F7;}
</style>
<g>
	<g>
		<path class="st0" d="M46.398,9.998c-0.769,0-1.537-0.292-2.122-0.877c-1.169-1.17-1.169-3.072,0-4.242
			c1.169-1.169,3.072-1.171,4.243,0c1.169,1.17,1.169,3.072,0,4.242l0,0C47.935,9.706,47.166,9.998,46.398,9.998z M46.398,5.001
			c-0.513,0-1.025,0.195-1.415,0.585c-0.778,0.779-0.778,2.049,0,2.828c0.779,0.78,2.05,0.778,2.829,0
			c0.779-0.78,0.778-2.049,0-2.828C47.423,5.196,46.91,5.001,46.398,5.001z M48.166,8.768h0.01H48.166z"/>
	</g>
	<g>
		<path class="st0" d="M37.205,20.228c-0.11,0-0.22-0.036-0.312-0.109c-0.216-0.173-0.25-0.487-0.078-0.703l7.931-9.913
			c-0.169-0.11-0.325-0.237-0.469-0.381s-0.271-0.301-0.381-0.47l-9.913,7.932c-0.216,0.172-0.53,0.138-0.703-0.078
			c-0.172-0.216-0.138-0.53,0.078-0.703L43.75,7.487c0.125-0.101,0.291-0.134,0.445-0.092c0.154,0.043,0.279,0.157,0.336,0.308
			c0.102,0.272,0.254,0.512,0.453,0.712c0.197,0.197,0.437,0.35,0.71,0.451c0.15,0.057,0.265,0.182,0.308,0.336
			c0.042,0.154,0.008,0.32-0.092,0.445L37.596,20.04C37.497,20.163,37.352,20.228,37.205,20.228z"/>
	</g>
	<g>
		<path class="st2" d="M19.881,5.232c-7.81,7.81-7.81,20.474,0,28.284c7.811,7.811,20.474,7.81,28.284,0L19.881,5.232z"/>
		<path class="st0" d="M34.023,39.865c-5.25,0-10.499-1.999-14.496-5.995c-7.993-7.993-7.993-20.998,0-28.991
			c0.195-0.195,0.512-0.195,0.707,0L48.52,33.163c0.094,0.094,0.146,0.221,0.146,0.354s-0.053,0.26-0.146,0.354
			C44.523,37.866,39.273,39.865,34.023,39.865z M19.886,5.944c-7.251,7.628-7.136,19.734,0.349,27.219
			c7.486,7.485,19.591,7.601,27.219,0.349L19.886,5.944z"/>
	</g>
	<g>
		<path class="st3" d="M52.461,59.5h-42c-0.552,0-1-0.448-1-1v-6c0-0.552,0.448-1,1-1h42c0.552,0,1,0.448,1,1v6
			C53.461,59.052,53.013,59.5,52.461,59.5z"/>
		<path class="st0" d="M52.461,60h-42c-0.827,0-1.5-0.673-1.5-1.5v-6c0-0.827,0.673-1.5,1.5-1.5h42c0.827,0,1.5,0.673,1.5,1.5v6
			C53.961,59.327,53.288,60,52.461,60z M10.461,52c-0.276,0-0.5,0.225-0.5,0.5v6c0,0.275,0.224,0.5,0.5,0.5h42
			c0.275,0,0.5-0.225,0.5-0.5v-6c0-0.275-0.225-0.5-0.5-0.5H10.461z"/>
	</g>
	<g>
		<path class="st0" d="M31.461,50c-0.216,0-0.416-0.141-0.479-0.358l-2.584-8.754c-0.078-0.265,0.073-0.543,0.338-0.621
			c0.266-0.075,0.544,0.073,0.621,0.338l2.584,8.754c0.078,0.265-0.073,0.543-0.338,0.621C31.555,49.993,31.508,50,31.461,50z"/>
	</g>
	<g>
		<path class="st0" d="M21.461,50c-0.047,0-0.096-0.007-0.144-0.021c-0.265-0.079-0.415-0.358-0.335-0.623l3.094-10.283
			c0.08-0.264,0.357-0.415,0.623-0.334c0.265,0.079,0.415,0.358,0.335,0.623L21.94,49.645C21.875,49.86,21.676,50,21.461,50z"/>
	</g>
	<g>
		<path class="st4" d="M21.461,59.5h-5v-4c0-0.552,0.448-1,1-1h3c0.552,0,1,0.448,1,1V59.5z"/>
		<path class="st0" d="M21.461,60h-5c-0.276,0-0.5-0.224-0.5-0.5v-4c0-0.827,0.673-1.5,1.5-1.5h3c0.827,0,1.5,0.673,1.5,1.5v4
			C21.961,59.776,21.737,60,21.461,60z M16.961,59h4v-3.5c0-0.275-0.224-0.5-0.5-0.5h-3c-0.276,0-0.5,0.225-0.5,0.5V59z"/>
	</g>
	<g>
		<line class="st2" x1="16.809" y1="9.231" x2="44.167" y2="36.588"/>
		<path class="st0" d="M44.167,37.089c-0.128,0-0.256-0.049-0.354-0.146L16.456,9.585c-0.195-0.195-0.195-0.512,0-0.707
			s0.512-0.195,0.707,0l27.357,27.357c0.195,0.195,0.195,0.512,0,0.707C44.423,37.04,44.295,37.089,44.167,37.089z"/>
	</g>
	<g>
		<path class="st0" d="M7.787,43.785h-1c-0.276,0-0.5-0.224-0.5-0.5s0.224-0.5,0.5-0.5h1c0.276,0,0.5,0.224,0.5,0.5
			S8.063,43.785,7.787,43.785z"/>
	</g>
	<g>
		<path class="st0" d="M16.787,43.785h-7c-0.276,0-0.5-0.224-0.5-0.5s0.224-0.5,0.5-0.5h7c0.276,0,0.5,0.224,0.5,0.5
			S17.063,43.785,16.787,43.785z"/>
	</g>
	<g>
		<path class="st0" d="M52.64,43.785h-1c-0.276,0-0.5-0.224-0.5-0.5s0.224-0.5,0.5-0.5h1c0.276,0,0.5,0.224,0.5,0.5
			S52.916,43.785,52.64,43.785z"/>
	</g>
	<g>
		<path class="st0" d="M49.64,43.785h-7c-0.276,0-0.5-0.224-0.5-0.5s0.224-0.5,0.5-0.5h7c0.276,0,0.5,0.224,0.5,0.5
			S49.916,43.785,49.64,43.785z"/>
	</g>
	<g>
		<path class="st0" d="M51.213,20.785h-4c-0.276,0-0.5-0.224-0.5-0.5s0.224-0.5,0.5-0.5h4c0.276,0,0.5,0.224,0.5,0.5
			S51.489,20.785,51.213,20.785z"/>
	</g>
	<g>
		<path class="st0" d="M57.213,14.785h-4c-0.276,0-0.5-0.224-0.5-0.5s0.224-0.5,0.5-0.5h4c0.276,0,0.5,0.224,0.5,0.5
			S57.489,14.785,57.213,14.785z"/>
	</g>
	<g>
		<path class="st0" d="M55.213,16.785c-0.276,0-0.5-0.224-0.5-0.5v-4c0-0.276,0.224-0.5,0.5-0.5s0.5,0.224,0.5,0.5v4
			C55.713,16.562,55.489,16.785,55.213,16.785z"/>
	</g>
	<g>
		<path class="st0" d="M49.213,22.785c-0.276,0-0.5-0.224-0.5-0.5v-4c0-0.276,0.224-0.5,0.5-0.5s0.5,0.224,0.5,0.5v4
			C49.713,22.562,49.489,22.785,49.213,22.785z"/>
	</g>
	<g>
		<path class="st0" d="M48.461,56h-20c-0.276,0-0.5-0.224-0.5-0.5s0.224-0.5,0.5-0.5h20c0.276,0,0.5,0.224,0.5,0.5
			S48.737,56,48.461,56z"/>
	</g>
</g>
</svg>
