<?xml version="1.0" encoding="utf-8"?>
<!-- Generator: Adobe Illustrator 21.1.0, SVG Export Plug-In . SVG Version: 6.00 Build 0)  -->
<svg version="1.1" id="Icon_Set" xmlns="http://www.w3.org/2000/svg" xmlns:xlink="http://www.w3.org/1999/xlink" x="0px" y="0px"
	 viewBox="0 0 64 64" style="enable-background:new 0 0 64 64;" xml:space="preserve">
<style type="text/css">
	.st0{fill:#263238;}
	.st1{fill:#FF5252;}
	.st2{fill:#FFD740;}
	.st3{fill:#40C4FF;}
	.st4{fill:#FFFFFF;}
	.st5{fill:#4DB6AC;}
	.st6{fill:#37474F;}
	.st7{fill:#4FC3F7;}
</style>
<g>
	<g>
		<circle class="st3" cx="32" cy="28" r="10"/>
	</g>
	<g>
		<path class="st2" d="M55,25v28.5c0,1.381-1.119,2.5-2.5,2.5h-41C10.119,56,9,54.881,9,53.5V25l23,21L55,25z"/>
		<path class="st0" d="M52.5,56.5h-41c-1.654,0-3-1.346-3-3V25c0-0.198,0.117-0.377,0.298-0.458c0.18-0.079,0.393-0.045,0.539,0.088
			L32,45.323l22.663-20.692c0.146-0.134,0.357-0.167,0.539-0.088C55.383,24.623,55.5,24.802,55.5,25v28.5
			C55.5,55.155,54.154,56.5,52.5,56.5z M9.5,26.134V53.5c0,1.103,0.897,2,2,2h41c1.103,0,2-0.897,2-2V26.134L32.337,46.37
			c-0.19,0.175-0.483,0.175-0.674,0L9.5,26.134z"/>
	</g>
	<g>
		<path class="st0" d="M9.654,55.676c-0.109,0-0.218-0.035-0.31-0.108c-0.216-0.171-0.253-0.486-0.081-0.702l13.609-17.153
			c0.171-0.217,0.486-0.254,0.702-0.081c0.216,0.171,0.253,0.486,0.081,0.702L10.046,55.486C9.947,55.611,9.801,55.676,9.654,55.676
			z"/>
	</g>
	<g>
		<path class="st0" d="M54.345,55.675c-0.147,0-0.293-0.065-0.392-0.189L40.346,38.333c-0.172-0.216-0.136-0.531,0.081-0.702
			c0.215-0.171,0.53-0.136,0.702,0.081l13.607,17.152c0.172,0.216,0.136,0.531-0.081,0.702
			C54.563,55.64,54.454,55.675,54.345,55.675z"/>
	</g>
	<g>
		<path class="st0" d="M49,28.271c-0.276,0-0.5-0.224-0.5-0.5V15.5h-33v12.27c0,0.276-0.224,0.5-0.5,0.5s-0.5-0.224-0.5-0.5V15
			c0-0.276,0.224-0.5,0.5-0.5h34c0.276,0,0.5,0.224,0.5,0.5v12.77C49.5,28.047,49.276,28.271,49,28.271z"/>
	</g>
	<g>
		<path class="st0" d="M44,60.5h-2c-0.276,0-0.5-0.224-0.5-0.5s0.224-0.5,0.5-0.5h2c0.276,0,0.5,0.224,0.5,0.5S44.276,60.5,44,60.5z
			"/>
	</g>
	<g>
		<path class="st0" d="M40,60.5H20c-0.276,0-0.5-0.224-0.5-0.5s0.224-0.5,0.5-0.5h20c0.276,0,0.5,0.224,0.5,0.5S40.276,60.5,40,60.5
			z"/>
	</g>
	<g>
		<path class="st0" d="M55,25.5c-0.12,0-0.241-0.043-0.337-0.131l-4-3.652c-0.204-0.186-0.219-0.502-0.032-0.706
			c0.187-0.204,0.502-0.219,0.706-0.032l4,3.652c0.204,0.186,0.219,0.502,0.032,0.706C55.271,25.446,55.136,25.5,55,25.5z"/>
	</g>
	<g>
		<path class="st0" d="M9,25.5c-0.135,0-0.271-0.055-0.369-0.163c-0.187-0.204-0.172-0.52,0.032-0.706l4-3.652
			c0.203-0.186,0.52-0.173,0.706,0.032c0.187,0.204,0.172,0.52-0.032,0.706l-4,3.652C9.241,25.458,9.121,25.5,9,25.5z"/>
	</g>
	<g>
		<path class="st0" d="M22.143,13.5c-0.135,0-0.271-0.055-0.369-0.163c-0.187-0.204-0.172-0.52,0.032-0.706l8.171-7.461
			c1.152-1.054,2.893-1.054,4.045,0l8.172,7.461c0.204,0.186,0.219,0.502,0.032,0.706c-0.186,0.205-0.502,0.22-0.706,0.032
			l-8.172-7.461c-0.77-0.702-1.928-0.702-2.697,0L22.48,13.37C22.384,13.458,22.264,13.5,22.143,13.5z"/>
	</g>
	<g>
		<path class="st0" d="M49,6.5h-4c-0.276,0-0.5-0.224-0.5-0.5s0.224-0.5,0.5-0.5h4c0.276,0,0.5,0.224,0.5,0.5S49.276,6.5,49,6.5z"/>
	</g>
	<g>
		<path class="st0" d="M47,8.5c-0.276,0-0.5-0.224-0.5-0.5V4c0-0.276,0.224-0.5,0.5-0.5s0.5,0.224,0.5,0.5v4
			C47.5,8.277,47.276,8.5,47,8.5z"/>
	</g>
	<g>
		<path class="st0" d="M54,11h-4c-0.276,0-0.5-0.224-0.5-0.5S49.724,10,50,10h4c0.276,0,0.5,0.224,0.5,0.5S54.276,11,54,11z"/>
	</g>
	<g>
		<path class="st0" d="M52,13c-0.276,0-0.5-0.224-0.5-0.5v-4C51.5,8.224,51.724,8,52,8s0.5,0.224,0.5,0.5v4
			C52.5,12.777,52.276,13,52,13z"/>
	</g>
	<g>
		<path class="st0" d="M32,31.5c-1.93,0-3.5-1.57-3.5-3.5s1.57-3.5,3.5-3.5c1.93,0,3.5,1.57,3.5,3.5S33.93,31.5,32,31.5z M32,25.5
			c-1.378,0-2.5,1.122-2.5,2.5s1.122,2.5,2.5,2.5s2.5-1.122,2.5-2.5S33.378,25.5,32,25.5z"/>
	</g>
	<g>
		<path class="st0" d="M32,34.5c-1.965,0-3.804-0.875-5.045-2.402s-1.718-3.528-1.309-5.492c0.512-2.456,2.506-4.45,4.961-4.961
			c1.962-0.41,3.964,0.067,5.491,1.309C37.624,24.196,38.5,26.035,38.5,28c0,0.926-0.191,1.822-0.568,2.661
			c-0.228,0.509-0.757,0.839-1.347,0.839H36c-0.827,0-1.5-0.673-1.5-1.5v-2c0-0.276,0.224-0.5,0.5-0.5s0.5,0.224,0.5,0.5v2
			c0,0.276,0.225,0.5,0.5,0.5h0.585c0.193,0,0.368-0.1,0.435-0.249c0.318-0.71,0.48-1.467,0.48-2.251
			c0-1.663-0.741-3.219-2.033-4.27c-1.292-1.05-2.989-1.454-4.656-1.106c-2.072,0.432-3.755,2.115-4.187,4.187
			c-0.347,1.667,0.056,3.365,1.106,4.657S30.336,33.5,32,33.5c0.276,0,0.5,0.224,0.5,0.5S32.276,34.5,32,34.5z"/>
	</g>
</g>
</svg>
