<?xml version="1.0" encoding="utf-8"?>
<!-- Generator: Adobe Illustrator 21.1.0, SVG Export Plug-In . SVG Version: 6.00 Build 0)  -->
<svg version="1.1" id="Icon_Set" xmlns="http://www.w3.org/2000/svg" xmlns:xlink="http://www.w3.org/1999/xlink" x="0px" y="0px"
	 viewBox="0 0 64 64" style="enable-background:new 0 0 64 64;" xml:space="preserve">
<style type="text/css">
	.st0{fill:#263238;}
	.st1{fill:#FF5252;}
	.st2{fill:#FFD740;}
	.st3{fill:#40C4FF;}
	.st4{fill:#FFFFFF;}
	.st5{fill:#4DB6AC;}
	.st6{fill:#37474F;}
	.st7{fill:#4FC3F7;}
</style>
<g>
	<g>
		<path class="st0" d="M53.5,55.5h-43c-1.654,0-3-1.346-3-3v-37c0-1.654,1.346-3,3-3h43c1.654,0,3,1.346,3,3v37
			C56.5,54.154,55.154,55.5,53.5,55.5z M10.5,13.5c-1.103,0-2,0.897-2,2v37c0,1.103,0.897,2,2,2h43c1.103,0,2-0.897,2-2v-37
			c0-1.103-0.897-2-2-2H10.5z"/>
	</g>
	<g>
		<path class="st1" d="M35,43h-6c-0.552,0-1-0.448-1-1v-2c0-0.552,0.448-1,1-1h6c0.552,0,1,0.448,1,1v2C36,42.552,35.552,43,35,43z"
			/>
		<path class="st0" d="M35,43.5h-6c-0.827,0-1.5-0.673-1.5-1.5v-2c0-0.827,0.673-1.5,1.5-1.5h6c0.827,0,1.5,0.673,1.5,1.5v2
			C36.5,42.827,35.827,43.5,35,43.5z M29,39.5c-0.276,0-0.5,0.224-0.5,0.5v2c0,0.276,0.224,0.5,0.5,0.5h6c0.276,0,0.5-0.224,0.5-0.5
			v-2c0-0.276-0.224-0.5-0.5-0.5H29z"/>
	</g>
	<g>
		<path class="st2" d="M22,33h-6c-0.552,0-1-0.448-1-1v-2c0-0.552,0.448-1,1-1h6c0.552,0,1,0.448,1,1v2C23,32.552,22.552,33,22,33z"
			/>
		<path class="st0" d="M22,33.5h-6c-0.827,0-1.5-0.673-1.5-1.5v-2c0-0.827,0.673-1.5,1.5-1.5h6c0.827,0,1.5,0.673,1.5,1.5v2
			C23.5,32.827,22.827,33.5,22,33.5z M16,29.5c-0.276,0-0.5,0.224-0.5,0.5v2c0,0.276,0.224,0.5,0.5,0.5h6c0.276,0,0.5-0.224,0.5-0.5
			v-2c0-0.276-0.224-0.5-0.5-0.5H16z"/>
	</g>
	<g>
		<path class="st3" d="M48,36h-6c-0.552,0-1-0.448-1-1v-2c0-0.552,0.448-1,1-1h6c0.552,0,1,0.448,1,1v2C49,35.552,48.552,36,48,36z"
			/>
		<path class="st0" d="M48,36.5h-6c-0.827,0-1.5-0.673-1.5-1.5v-2c0-0.827,0.673-1.5,1.5-1.5h6c0.827,0,1.5,0.673,1.5,1.5v2
			C49.5,35.827,48.827,36.5,48,36.5z M42,32.5c-0.276,0-0.5,0.224-0.5,0.5v2c0,0.276,0.224,0.5,0.5,0.5h6c0.276,0,0.5-0.224,0.5-0.5
			v-2c0-0.276-0.224-0.5-0.5-0.5H42z"/>
	</g>
	<g>
		<path class="st0" d="M33.667,37.5c-0.276,0-0.5-0.224-0.5-0.5V21.5c0-0.551-0.449-1-1-1s-1,0.449-1,1V37
			c0,0.276-0.224,0.5-0.5,0.5s-0.5-0.224-0.5-0.5V21.5c0-1.103,0.897-2,2-2s2,0.897,2,2V37C34.167,37.276,33.943,37.5,33.667,37.5z"
			/>
	</g>
	<g>
		<path class="st0" d="M32.167,48.5c-1.103,0-2-0.897-2-2V45c0-0.276,0.224-0.5,0.5-0.5s0.5,0.224,0.5,0.5v1.5c0,0.551,0.449,1,1,1
			s1-0.449,1-1V45c0-0.276,0.224-0.5,0.5-0.5s0.5,0.224,0.5,0.5v1.5C34.167,47.603,33.27,48.5,32.167,48.5z"/>
	</g>
	<g>
		<path class="st0" d="M20.667,27.5c-0.276,0-0.5-0.224-0.5-0.5v-5.5c0-0.551-0.449-1-1-1s-1,0.449-1,1V27
			c0,0.276-0.224,0.5-0.5,0.5s-0.5-0.224-0.5-0.5v-5.5c0-1.103,0.897-2,2-2s2,0.897,2,2V27C21.167,27.276,20.943,27.5,20.667,27.5z"
			/>
	</g>
	<g>
		<path class="st0" d="M19.167,48.5c-1.103,0-2-0.897-2-2V35c0-0.276,0.224-0.5,0.5-0.5s0.5,0.224,0.5,0.5v11.5c0,0.551,0.449,1,1,1
			s1-0.449,1-1V35c0-0.276,0.224-0.5,0.5-0.5s0.5,0.224,0.5,0.5v11.5C21.167,47.603,20.27,48.5,19.167,48.5z"/>
	</g>
	<g>
		<path class="st0" d="M46.667,30.5c-0.276,0-0.5-0.224-0.5-0.5v-8.5c0-0.551-0.449-1-1-1s-1,0.449-1,1V30
			c0,0.276-0.224,0.5-0.5,0.5s-0.5-0.224-0.5-0.5v-8.5c0-1.103,0.897-2,2-2s2,0.897,2,2V30C47.167,30.276,46.943,30.5,46.667,30.5z"
			/>
	</g>
	<g>
		<path class="st0" d="M45.167,48.5c-1.103,0-2-0.897-2-2V38c0-0.276,0.224-0.5,0.5-0.5s0.5,0.224,0.5,0.5v8.5c0,0.551,0.449,1,1,1
			s1-0.449,1-1V38c0-0.276,0.224-0.5,0.5-0.5s0.5,0.224,0.5,0.5v8.5C47.167,47.603,46.27,48.5,45.167,48.5z"/>
	</g>
	<g>
		<path class="st0" d="M57.5,7.5h-4C53.224,7.5,53,7.276,53,7s0.224-0.5,0.5-0.5h4C57.776,6.5,58,6.724,58,7S57.776,7.5,57.5,7.5z"
			/>
	</g>
	<g>
		<path class="st0" d="M55.5,9.5C55.224,9.5,55,9.276,55,9V5c0-0.276,0.224-0.5,0.5-0.5S56,4.724,56,5v4
			C56,9.276,55.776,9.5,55.5,9.5z"/>
	</g>
	<g>
		<path class="st0" d="M63,12h-4c-0.276,0-0.5-0.224-0.5-0.5S58.724,11,59,11h4c0.276,0,0.5,0.224,0.5,0.5S63.276,12,63,12z"/>
	</g>
	<g>
		<path class="st0" d="M61,14c-0.276,0-0.5-0.224-0.5-0.5v-4C60.5,9.224,60.724,9,61,9s0.5,0.224,0.5,0.5v4
			C61.5,13.776,61.276,14,61,14z"/>
	</g>
	<g>
		<path class="st0" d="M59,59.5H40.5c-0.276,0-0.5-0.224-0.5-0.5s0.224-0.5,0.5-0.5H59c0.276,0,0.5,0.224,0.5,0.5
			S59.276,59.5,59,59.5z"/>
	</g>
	<g>
		<path class="st0" d="M63,59.5h-2c-0.276,0-0.5-0.224-0.5-0.5s0.224-0.5,0.5-0.5h2c0.276,0,0.5,0.224,0.5,0.5S63.276,59.5,63,59.5z
			"/>
	</g>
	<g>
		<path class="st0" d="M23.5,9.5H5C4.724,9.5,4.5,9.276,4.5,9S4.724,8.5,5,8.5h18.5C23.776,8.5,24,8.724,24,9S23.776,9.5,23.5,9.5z"
			/>
	</g>
	<g>
		<path class="st0" d="M3,9.5H1C0.724,9.5,0.5,9.276,0.5,9S0.724,8.5,1,8.5h2c0.276,0,0.5,0.224,0.5,0.5S3.276,9.5,3,9.5z"/>
	</g>
	<g>
		<path class="st0" d="M53,21.5c-0.276,0-0.5-0.224-0.5-0.5v-4c0-0.276-0.224-0.5-0.5-0.5h-4c-0.276,0-0.5-0.224-0.5-0.5
			s0.224-0.5,0.5-0.5h4c0.827,0,1.5,0.673,1.5,1.5v4C53.5,21.276,53.276,21.5,53,21.5z"/>
	</g>
</g>
</svg>
