<?xml version="1.0" encoding="utf-8"?>
<!-- Generator: Adobe Illustrator 21.1.0, SVG Export Plug-In . SVG Version: 6.00 Build 0)  -->
<svg version="1.1" id="Icon_Set" xmlns="http://www.w3.org/2000/svg" xmlns:xlink="http://www.w3.org/1999/xlink" x="0px" y="0px"
	 viewBox="0 0 64 64" style="enable-background:new 0 0 64 64;" xml:space="preserve">
<style type="text/css">
	.st0{fill:#263238;}
	.st1{fill:#FF5252;}
	.st2{fill:#FFD740;}
	.st3{fill:#40C4FF;}
	.st4{fill:#FFFFFF;}
	.st5{fill:#4DB6AC;}
	.st6{fill:#37474F;}
	.st7{fill:#4FC3F7;}
</style>
<g>
	<g>
		<path class="st2" d="M23.5,53h-6c-1.381,0-2.5-1.119-2.5-2.5v-22c0-1.381,1.119-2.5,2.5-2.5h6c1.381,0,2.5,1.119,2.5,2.5v22
			C26,51.881,24.881,53,23.5,53z"/>
		<path class="st0" d="M23.5,53.5h-6c-1.654,0-3-1.346-3-3v-22c0-1.654,1.346-3,3-3h6c1.654,0,3,1.346,3,3v22
			C26.5,52.155,25.154,53.5,23.5,53.5z M17.5,26.5c-1.103,0-2,0.897-2,2v22c0,1.103,0.897,2,2,2h6c1.103,0,2-0.897,2-2v-22
			c0-1.103-0.897-2-2-2H17.5z"/>
	</g>
	<g>
		<path class="st3" d="M47,33.5H31c-0.552,0-1-0.448-1-1v-2c0-0.552,0.448-1,1-1h16c0.552,0,1,0.448,1,1v2
			C48,33.053,47.552,33.5,47,33.5z"/>
		<path class="st0" d="M47,34H31c-0.827,0-1.5-0.673-1.5-1.5v-2c0-0.827,0.673-1.5,1.5-1.5h16c0.827,0,1.5,0.673,1.5,1.5v2
			C48.5,33.328,47.827,34,47,34z M31,30c-0.275,0-0.5,0.224-0.5,0.5v2c0,0.276,0.225,0.5,0.5,0.5h16c0.275,0,0.5-0.224,0.5-0.5v-2
			c0-0.276-0.225-0.5-0.5-0.5H31z"/>
	</g>
	<g>
		<path class="st0" d="M34,40h-4c-0.276,0-0.5-0.224-0.5-0.5v-3c0-0.276,0.224-0.5,0.5-0.5h4c0.276,0,0.5,0.224,0.5,0.5v3
			C34.5,39.777,34.276,40,34,40z M30.5,39h3v-2h-3V39z"/>
	</g>
	<g>
		<path class="st0" d="M41,40h-4c-0.276,0-0.5-0.224-0.5-0.5v-3c0-0.276,0.224-0.5,0.5-0.5h4c0.276,0,0.5,0.224,0.5,0.5v3
			C41.5,39.777,41.276,40,41,40z M37.5,39h3v-2h-3V39z"/>
	</g>
	<g>
		<path class="st0" d="M48,40h-4c-0.276,0-0.5-0.224-0.5-0.5v-3c0-0.276,0.224-0.5,0.5-0.5h4c0.276,0,0.5,0.224,0.5,0.5v3
			C48.5,39.777,48.276,40,48,40z M44.5,39h3v-2h-3V39z"/>
	</g>
	<g>
		<path class="st0" d="M34,46h-4c-0.276,0-0.5-0.224-0.5-0.5v-3c0-0.276,0.224-0.5,0.5-0.5h4c0.276,0,0.5,0.224,0.5,0.5v3
			C34.5,45.777,34.276,46,34,46z M30.5,45h3v-2h-3V45z"/>
	</g>
	<g>
		<path class="st0" d="M41,46h-4c-0.276,0-0.5-0.224-0.5-0.5v-3c0-0.276,0.224-0.5,0.5-0.5h4c0.276,0,0.5,0.224,0.5,0.5v3
			C41.5,45.777,41.276,46,41,46z M37.5,45h3v-2h-3V45z"/>
	</g>
	<g>
		<path class="st0" d="M48,46h-4c-0.276,0-0.5-0.224-0.5-0.5v-3c0-0.276,0.224-0.5,0.5-0.5h4c0.276,0,0.5,0.224,0.5,0.5v3
			C48.5,45.777,48.276,46,48,46z M44.5,45h3v-2h-3V45z"/>
	</g>
	<g>
		<path class="st0" d="M34,52h-4c-0.276,0-0.5-0.224-0.5-0.5v-3c0-0.276,0.224-0.5,0.5-0.5h4c0.276,0,0.5,0.224,0.5,0.5v3
			C34.5,51.777,34.276,52,34,52z M30.5,51h3v-2h-3V51z"/>
	</g>
	<g>
		<path class="st0" d="M41,52h-4c-0.276,0-0.5-0.224-0.5-0.5v-3c0-0.276,0.224-0.5,0.5-0.5h4c0.276,0,0.5,0.224,0.5,0.5v3
			C41.5,51.777,41.276,52,41,52z M37.5,51h3v-2h-3V51z"/>
	</g>
	<g>
		<path class="st0" d="M48,52h-4c-0.276,0-0.5-0.224-0.5-0.5v-3c0-0.276,0.224-0.5,0.5-0.5h4c0.276,0,0.5,0.224,0.5,0.5v3
			C48.5,51.777,48.276,52,48,52z M44.5,51h3v-2h-3V51z"/>
	</g>
	<g>
		<path class="st0" d="M55,40h-4c-0.276,0-0.5-0.224-0.5-0.5v-3c0-0.276,0.224-0.5,0.5-0.5h4c0.276,0,0.5,0.224,0.5,0.5v3
			C55.5,39.777,55.276,40,55,40z M51.5,39h3v-2h-3V39z"/>
	</g>
	<g>
		<path class="st0" d="M55,30.5h-4c-0.276,0-0.5-0.224-0.5-0.5s0.224-0.5,0.5-0.5h4c0.276,0,0.5,0.224,0.5,0.5S55.276,30.5,55,30.5z
			"/>
	</g>
	<g>
		<path class="st0" d="M55,33.5h-4c-0.276,0-0.5-0.224-0.5-0.5s0.224-0.5,0.5-0.5h4c0.276,0,0.5,0.224,0.5,0.5S55.276,33.5,55,33.5z
			"/>
	</g>
	<g>
		<path class="st0" d="M23,33h-5c-0.276,0-0.5-0.224-0.5-0.5S17.724,32,18,32h5c0.276,0,0.5,0.224,0.5,0.5S23.276,33,23,33z"/>
	</g>
	<g>
		<path class="st0" d="M59,60.5h-2c-0.276,0-0.5-0.224-0.5-0.5s0.224-0.5,0.5-0.5h2c0.276,0,0.5,0.224,0.5,0.5S59.276,60.5,59,60.5z
			"/>
	</g>
	<g>
		<path class="st0" d="M55,60.5H34c-0.276,0-0.5-0.224-0.5-0.5s0.224-0.5,0.5-0.5h21c0.276,0,0.5,0.224,0.5,0.5S55.276,60.5,55,60.5
			z"/>
	</g>
	<g>
		<path class="st0" d="M50.5,23.5h-31c-0.276,0-0.5-0.224-0.5-0.5V7c0-2.481,2.019-4.5,4.5-4.5h31C54.776,2.5,55,2.724,55,3
			s-0.224,0.5-0.5,0.5C52.57,3.5,51,5.071,51,7v16C51,23.277,50.776,23.5,50.5,23.5z M20,22.5h30V7c0-1.412,0.653-2.674,1.675-3.5
			H23.5C21.57,3.5,20,5.071,20,7V22.5z"/>
	</g>
	<g>
		<path class="st0" d="M57.5,14.5h-5c-0.276,0-0.5-0.224-0.5-0.5s0.224-0.5,0.5-0.5h5c0.275,0,0.5-0.224,0.5-0.5V7
			c0-1.93-1.57-3.5-3.5-3.5C54.224,3.5,54,3.277,54,3s0.224-0.5,0.5-0.5C56.981,2.5,59,4.519,59,7v6
			C59,13.828,58.327,14.5,57.5,14.5z"/>
	</g>
	<g>
		<path class="st0" d="M46.5,14.5h-23c-0.276,0-0.5-0.224-0.5-0.5s0.224-0.5,0.5-0.5h23c0.276,0,0.5,0.224,0.5,0.5
			S46.776,14.5,46.5,14.5z"/>
	</g>
	<g>
		<path class="st0" d="M46.5,9.5h-23C23.224,9.5,23,9.277,23,9s0.224-0.5,0.5-0.5h23C46.776,8.5,47,8.724,47,9S46.776,9.5,46.5,9.5z
			"/>
	</g>
	<g>
		<path class="st0" d="M56.5,56.5h-43c-1.654,0-3-1.346-3-3v-31c0-1.654,1.346-3,3-3h4c0.276,0,0.5,0.224,0.5,0.5
			s-0.224,0.5-0.5,0.5h-4c-1.103,0-2,0.897-2,2v31c0,1.103,0.897,2,2,2h43c1.103,0,2-0.897,2-2v-31c0-1.103-0.897-2-2-2h-4
			c-0.276,0-0.5-0.224-0.5-0.5s0.224-0.5,0.5-0.5h4c1.654,0,3,1.346,3,3v31C59.5,55.155,58.154,56.5,56.5,56.5z"/>
	</g>
	<g>
		<path class="st0" d="M13,61.5h-0.5c-4.411,0-8-3.589-8-8V42c0-2.605,1.851-4.871,4.4-5.389c0.264-0.052,0.534,0.12,0.59,0.391
			c0.055,0.271-0.12,0.535-0.391,0.59C7.014,38.015,5.5,39.869,5.5,42v11.5c0,3.86,3.141,7,7,7H13c3.859,0,7-3.14,7-7V53
			c0-0.276,0.224-0.5,0.5-0.5S21,52.724,21,53v0.5C21,57.911,17.411,61.5,13,61.5z"/>
	</g>
	<g>
		<path class="st0" d="M53,23.5H17c-0.276,0-0.5-0.224-0.5-0.5s0.224-0.5,0.5-0.5h36c0.276,0,0.5,0.224,0.5,0.5S53.276,23.5,53,23.5
			z"/>
	</g>
	<g>
		<path class="st0" d="M14.5,9.5h-4C10.224,9.5,10,9.277,10,9s0.224-0.5,0.5-0.5h4C14.776,8.5,15,8.724,15,9S14.776,9.5,14.5,9.5z"
			/>
	</g>
	<g>
		<path class="st0" d="M12.5,11.5c-0.276,0-0.5-0.224-0.5-0.5V7c0-0.276,0.224-0.5,0.5-0.5S13,6.724,13,7v4
			C13,11.277,12.776,11.5,12.5,11.5z"/>
	</g>
	<g>
		<path class="st0" d="M9,14H5c-0.276,0-0.5-0.224-0.5-0.5S4.724,13,5,13h4c0.276,0,0.5,0.224,0.5,0.5S9.276,14,9,14z"/>
	</g>
	<g>
		<path class="st0" d="M7,16c-0.276,0-0.5-0.224-0.5-0.5v-4C6.5,11.224,6.724,11,7,11s0.5,0.224,0.5,0.5v4C7.5,15.777,7.276,16,7,16
			z"/>
	</g>
</g>
</svg>
