<?xml version="1.0" encoding="utf-8"?>
<!-- Generator: Adobe Illustrator 21.1.0, SVG Export Plug-In . SVG Version: 6.00 Build 0)  -->
<svg version="1.1" id="Icon_Set" xmlns="http://www.w3.org/2000/svg" xmlns:xlink="http://www.w3.org/1999/xlink" x="0px" y="0px"
	 viewBox="0 0 64 64" style="enable-background:new 0 0 64 64;" xml:space="preserve">
<style type="text/css">
	.st0{fill:#263238;}
	.st1{fill:#FF5252;}
	.st2{fill:#FFD740;}
	.st3{fill:#40C4FF;}
	.st4{fill:#FFFFFF;}
	.st5{fill:#4DB6AC;}
	.st6{fill:#37474F;}
	.st7{fill:#4FC3F7;}
</style>
<g>
	<g>
		<path class="st0" d="M52.5,55.5h-43C8.673,55.5,8,54.827,8,54V12c0-0.827,0.673-1.5,1.5-1.5h36.086
			c0.395,0,0.781,0.16,1.061,0.439l6.914,6.914C53.844,18.137,54,18.514,54,18.915V54C54,54.827,53.327,55.5,52.5,55.5z M9.5,11.5
			C9.225,11.5,9,11.724,9,12v42c0,0.276,0.225,0.5,0.5,0.5h43c0.275,0,0.5-0.224,0.5-0.5V18.915c0-0.134-0.052-0.259-0.146-0.354
			l-6.914-6.914c-0.093-0.093-0.222-0.146-0.354-0.146H9.5z"/>
	</g>
	<g>
		<path class="st3" d="M42,23H20c-0.552,0-1-0.448-1-1V11h24v11C43,22.552,42.552,23,42,23z"/>
		<path class="st0" d="M42,23.5H20c-0.827,0-1.5-0.673-1.5-1.5V11c0-0.276,0.224-0.5,0.5-0.5h24c0.276,0,0.5,0.224,0.5,0.5v11
			C43.5,22.827,42.827,23.5,42,23.5z M19.5,11.5V22c0,0.276,0.225,0.5,0.5,0.5h22c0.275,0,0.5-0.224,0.5-0.5V11.5H19.5z"/>
	</g>
	<g>
		<path class="st0" d="M47,55.5H15c-0.276,0-0.5-0.224-0.5-0.5V32c0-0.827,0.673-1.5,1.5-1.5h30c0.827,0,1.5,0.673,1.5,1.5v23
			C47.5,55.276,47.276,55.5,47,55.5z M15.5,54.5h31V32c0-0.276-0.225-0.5-0.5-0.5H16c-0.275,0-0.5,0.224-0.5,0.5V54.5z"/>
	</g>
	<g>
		<path class="st0" d="M38,19.5h-5c-0.276,0-0.5-0.224-0.5-0.5v-8c0-0.276,0.224-0.5,0.5-0.5h5c0.276,0,0.5,0.224,0.5,0.5v8
			C38.5,19.276,38.276,19.5,38,19.5z M33.5,18.5h4v-7h-4V18.5z"/>
	</g>
	<g>
		<path class="st2" d="M47,38H15v-6c0-0.552,0.448-1,1-1h30c0.552,0,1,0.448,1,1V38z"/>
		<path class="st0" d="M47,38.5H15c-0.276,0-0.5-0.224-0.5-0.5v-6c0-0.827,0.673-1.5,1.5-1.5h30c0.827,0,1.5,0.673,1.5,1.5v6
			C47.5,38.276,47.276,38.5,47,38.5z M15.5,37.5h31V32c0-0.276-0.225-0.5-0.5-0.5H16c-0.275,0-0.5,0.224-0.5,0.5V37.5z"/>
	</g>
	<g>
		<path class="st0" d="M7,7.5H5C4.724,7.5,4.5,7.276,4.5,7S4.724,6.5,5,6.5h2c0.276,0,0.5,0.224,0.5,0.5S7.276,7.5,7,7.5z"/>
	</g>
	<g>
		<path class="st0" d="M25,7.5H9C8.724,7.5,8.5,7.276,8.5,7S8.724,6.5,9,6.5h16c0.276,0,0.5,0.224,0.5,0.5S25.276,7.5,25,7.5z"/>
	</g>
	<g>
		<path class="st0" d="M57,59.5h-2c-0.276,0-0.5-0.224-0.5-0.5s0.224-0.5,0.5-0.5h2c0.276,0,0.5,0.224,0.5,0.5S57.276,59.5,57,59.5z
			"/>
	</g>
	<g>
		<path class="st0" d="M53,59.5H37c-0.276,0-0.5-0.224-0.5-0.5s0.224-0.5,0.5-0.5h16c0.276,0,0.5,0.224,0.5,0.5S53.276,59.5,53,59.5
			z"/>
	</g>
	<g>
		<path class="st0" d="M52,7.5h-4c-0.276,0-0.5-0.224-0.5-0.5s0.224-0.5,0.5-0.5h4c0.276,0,0.5,0.224,0.5,0.5S52.276,7.5,52,7.5z"/>
	</g>
	<g>
		<path class="st0" d="M50,9.5c-0.276,0-0.5-0.224-0.5-0.5V5c0-0.276,0.224-0.5,0.5-0.5s0.5,0.224,0.5,0.5v4
			C50.5,9.276,50.276,9.5,50,9.5z"/>
	</g>
	<g>
		<path class="st0" d="M59,14h-4c-0.276,0-0.5-0.224-0.5-0.5S54.724,13,55,13h4c0.276,0,0.5,0.224,0.5,0.5S59.276,14,59,14z"/>
	</g>
	<g>
		<path class="st0" d="M57,16c-0.276,0-0.5-0.224-0.5-0.5v-4c0-0.276,0.224-0.5,0.5-0.5s0.5,0.224,0.5,0.5v4
			C57.5,15.776,57.276,16,57,16z"/>
	</g>
</g>
</svg>
