<?xml version="1.0" encoding="utf-8"?>
<!-- Generator: Adobe Illustrator 21.1.0, SVG Export Plug-In . SVG Version: 6.00 Build 0)  -->
<svg version="1.1" id="Icon_Set" xmlns="http://www.w3.org/2000/svg" xmlns:xlink="http://www.w3.org/1999/xlink" x="0px" y="0px"
	 viewBox="0 0 64 64" style="enable-background:new 0 0 64 64;" xml:space="preserve">
<style type="text/css">
	.st0{fill:#263238;}
	.st1{fill:#FF5252;}
	.st2{fill:#FFD740;}
	.st3{fill:#40C4FF;}
	.st4{fill:#FFFFFF;}
	.st5{fill:#4DB6AC;}
	.st6{fill:#37474F;}
	.st7{fill:#4FC3F7;}
</style>
<g>
	<g>
		<path class="st0" d="M51.777,48.5c-0.128,0-0.256-0.049-0.354-0.146c-0.195-0.195-0.195-0.512,0-0.707
			c4.094-4.094,4.094-10.756,0-14.85c-0.195-0.195-0.195-0.512,0-0.707s0.512-0.195,0.707,0c4.484,4.484,4.484,11.779,0,16.264
			C52.033,48.451,51.905,48.5,51.777,48.5z"/>
	</g>
	<g>
		<path class="st0" d="M48.949,45.672c-0.128,0-0.256-0.049-0.354-0.146c-0.195-0.195-0.195-0.512,0-0.707
			c2.533-2.534,2.533-6.659,0-9.193c-0.195-0.195-0.195-0.512,0-0.707s0.512-0.195,0.707,0c2.924,2.925,2.924,7.683,0,10.607
			C49.205,45.623,49.077,45.672,48.949,45.672z"/>
	</g>
	<g>
		<path class="st0" d="M46.121,42.843c-0.128,0-0.256-0.049-0.354-0.146c-0.195-0.195-0.195-0.512,0-0.707
			c0.975-0.975,0.975-2.561,0-3.535c-0.195-0.195-0.195-0.512,0-0.707s0.512-0.195,0.707,0c0.661,0.661,1.024,1.539,1.024,2.475
			s-0.363,1.813-1.024,2.475C46.377,42.794,46.249,42.843,46.121,42.843z"/>
	</g>
	<g>
		<path class="st0" d="M35.321,56h-2.645c-2.886,0-5.297-2.256-5.488-5.135l-1.333-20c-0.103-1.535,0.42-3,1.472-4.124
			C28.378,25.619,29.805,25,31.343,25h5.312c1.539,0,2.966,0.619,4.017,1.743c1.052,1.124,1.574,2.588,1.472,4.123l-1.334,20
			C40.617,53.744,38.207,56,35.321,56z M31.343,26c-1.259,0-2.426,0.506-3.285,1.426c-0.86,0.919-1.288,2.117-1.204,3.374l1.333,20
			C28.343,53.154,30.315,55,32.677,55h2.645c2.36,0,4.333-1.846,4.489-4.201l1.334-20c0.084-1.256-0.344-2.454-1.204-3.374
			C39.081,26.506,37.913,26,36.654,26H31.343z"/>
	</g>
	<g>
		<path class="st0" d="M24.695,36.513c-0.053,0-0.105-0.008-0.158-0.025l-0.905-0.302c-4.864-1.623-8.133-6.158-8.133-11.285
			c0-3.726,1.694-7.164,4.648-9.433c2.952-2.269,6.71-3.019,10.312-2.06l18.185,4.849c1.331,0.355,2.126,1.728,1.771,3.06
			c-0.354,1.329-1.724,2.125-3.06,1.772L29.17,18.239c-2.083-0.552-4.264-0.121-5.977,1.194c-1.712,1.315-2.694,3.309-2.694,5.467
			c0,2.71,1.612,5.176,4.108,6.282c0.252,0.112,0.366,0.407,0.254,0.66c-0.112,0.253-0.408,0.365-0.66,0.254
			c-2.856-1.267-4.702-4.091-4.702-7.196c0-2.472,1.124-4.754,3.085-6.261c1.961-1.503,4.455-2.001,6.844-1.367l18.185,4.849
			c0.8,0.21,1.624-0.266,1.836-1.063c0.213-0.799-0.264-1.623-1.062-1.836l-18.185-4.849c-3.296-0.878-6.74-0.192-9.444,1.887
			c-2.706,2.079-4.258,5.228-4.258,8.64c0,4.696,2.993,8.85,7.449,10.336l0.905,0.302c0.262,0.088,0.403,0.371,0.316,0.633
			C25.1,36.38,24.904,36.513,24.695,36.513z"/>
	</g>
	<g>
		<circle class="st1" cx="33.999" cy="30.5" r="1.5"/>
		<path class="st0" d="M33.999,32.5c-1.103,0-2-0.897-2-2s0.897-2,2-2s2,0.897,2,2S35.102,32.5,33.999,32.5z M33.999,29.5
			c-0.552,0-1,0.449-1,1s0.448,1,1,1s1-0.449,1-1S34.551,29.5,33.999,29.5z"/>
	</g>
	<g>
		<path class="st2" d="M33.999,50.5L33.999,50.5c-1.381,0-2.5-1.119-2.5-2.5V38c0-1.381,1.119-2.5,2.5-2.5h0
			c1.381,0,2.5,1.119,2.5,2.5v10C36.499,49.381,35.38,50.5,33.999,50.5z"/>
		<path class="st0" d="M33.999,51c-1.654,0-3-1.346-3-3V38c0-1.654,1.346-3,3-3s3,1.346,3,3v10C36.999,49.654,35.653,51,33.999,51z
			 M33.999,36c-1.103,0-2,0.897-2,2v10c0,1.103,0.897,2,2,2s2-0.897,2-2V38C35.999,36.897,35.102,36,33.999,36z"/>
	</g>
	<g>
		<path class="st0" d="M16.999,11h-4c-0.276,0-0.5-0.224-0.5-0.5s0.224-0.5,0.5-0.5h4c0.276,0,0.5,0.224,0.5,0.5
			S17.275,11,16.999,11z"/>
	</g>
	<g>
		<path class="st0" d="M14.999,13c-0.276,0-0.5-0.224-0.5-0.5v-4c0-0.276,0.224-0.5,0.5-0.5s0.5,0.224,0.5,0.5v4
			C15.499,12.776,15.275,13,14.999,13z"/>
	</g>
	<g>
		<path class="st0" d="M12.999,16h-4c-0.276,0-0.5-0.224-0.5-0.5s0.224-0.5,0.5-0.5h4c0.276,0,0.5,0.224,0.5,0.5
			S13.275,16,12.999,16z"/>
	</g>
	<g>
		<path class="st0" d="M10.999,18c-0.276,0-0.5-0.224-0.5-0.5v-4c0-0.276,0.224-0.5,0.5-0.5s0.5,0.224,0.5,0.5v4
			C11.499,17.776,11.275,18,10.999,18z"/>
	</g>
	<g>
		<path class="st0" d="M9.999,41h-1c-0.276,0-0.5-0.224-0.5-0.5s0.224-0.5,0.5-0.5h1c0.276,0,0.5,0.224,0.5,0.5S10.275,41,9.999,41z
			"/>
	</g>
	<g>
		<path class="st0" d="M21.999,41h-10c-0.276,0-0.5-0.224-0.5-0.5s0.224-0.5,0.5-0.5h10c0.276,0,0.5,0.224,0.5,0.5
			S22.275,41,21.999,41z"/>
	</g>
</g>
</svg>
