<?xml version="1.0" encoding="utf-8"?>
<!-- Generator: Adobe Illustrator 21.1.0, SVG Export Plug-In . SVG Version: 6.00 Build 0)  -->
<svg version="1.1" id="Icon_Set" xmlns="http://www.w3.org/2000/svg" xmlns:xlink="http://www.w3.org/1999/xlink" x="0px" y="0px"
	 viewBox="0 0 64 64" style="enable-background:new 0 0 64 64;" xml:space="preserve">
<style type="text/css">
	.st0{fill:#263238;}
	.st1{fill:#FF5252;}
	.st2{fill:#FFD740;}
	.st3{fill:#40C4FF;}
	.st4{fill:#FFFFFF;}
	.st5{fill:#4DB6AC;}
	.st6{fill:#37474F;}
	.st7{fill:#4FC3F7;}
</style>
<g>
	<g>
		<path class="st0" d="M32.5,11c-0.215,0-0.406-0.138-0.474-0.342l-0.415-1.244c-0.161-0.482-0.544-0.865-1.025-1.025l-1.244-0.415
			C29.138,7.906,29,7.715,29,7.5s0.138-0.406,0.342-0.474l1.244-0.415c0.481-0.161,0.865-0.544,1.026-1.026l0.415-1.244
			c0.136-0.408,0.812-0.408,0.948,0l0.415,1.244c0.161,0.481,0.544,0.865,1.025,1.026l1.244,0.415C35.862,7.094,36,7.285,36,7.5
			s-0.138,0.406-0.342,0.474l-1.244,0.415c-0.481,0.161-0.864,0.544-1.025,1.026l-0.415,1.244C32.906,10.862,32.715,11,32.5,11z
			 M31.063,7.5c0.649,0.265,1.171,0.787,1.437,1.437c0.266-0.65,0.787-1.171,1.437-1.437c-0.649-0.266-1.171-0.788-1.437-1.437
			C32.234,6.712,31.712,7.234,31.063,7.5z"/>
	</g>
	<g>
		<path class="st0" d="M58.5,55.5h-22c-1.654,0-3-1.346-3-3v-19c0-1.654,1.346-3,3-3h22c1.654,0,3,1.346,3,3v19
			C61.5,54.154,60.154,55.5,58.5,55.5z M36.5,31.5c-1.103,0-2,0.897-2,2v19c0,1.103,0.897,2,2,2h22c1.103,0,2-0.897,2-2v-19
			c0-1.103-0.897-2-2-2H36.5z"/>
	</g>
	<g>
		<path class="st2" d="M57,52H38c-0.552,0-1-0.448-1-1V35c0-0.552,0.448-1,1-1h19c0.552,0,1,0.448,1,1v16C58,51.552,57.552,52,57,52
			z"/>
		<path class="st0" d="M57,52.5H38c-0.827,0-1.5-0.673-1.5-1.5V35c0-0.827,0.673-1.5,1.5-1.5h19c0.827,0,1.5,0.673,1.5,1.5v16
			C58.5,51.827,57.827,52.5,57,52.5z M38,34.5c-0.275,0-0.5,0.224-0.5,0.5v16c0,0.276,0.225,0.5,0.5,0.5h19
			c0.275,0,0.5-0.224,0.5-0.5V35c0-0.276-0.225-0.5-0.5-0.5H38z"/>
	</g>
	<g>
		<path class="st0" d="M34,48h-4c-0.276,0-0.5-0.224-0.5-0.5S29.724,47,30,47h3.5v-8H30c-0.276,0-0.5-0.224-0.5-0.5S29.724,38,30,38
			h4c0.276,0,0.5,0.224,0.5,0.5v9C34.5,47.776,34.276,48,34,48z"/>
	</g>
	<g>
		<circle class="st3" cx="16" cy="20.5" r="10"/>
		<path class="st0" d="M16,31c-5.79,0-10.5-4.71-10.5-10.5S10.21,10,16,10s10.5,4.71,10.5,10.5S21.79,31,16,31z M16,11
			c-5.238,0-9.5,4.262-9.5,9.5S10.762,30,16,30s9.5-4.262,9.5-9.5S21.238,11,16,11z"/>
	</g>
	<g>
		<path class="st0" d="M23,21c-0.276,0-0.5-0.224-0.5-0.5c0-3.584-2.916-6.5-6.5-6.5c-0.276,0-0.5-0.224-0.5-0.5S15.724,13,16,13
			c4.136,0,7.5,3.364,7.5,7.5C23.5,20.776,23.276,21,23,21z"/>
	</g>
	<g>
		<path class="st0" d="M20,47.237h-8c-0.827,0-1.5-0.673-1.5-1.5v-2c0-0.827,0.673-1.5,1.5-1.5h8c0.827,0,1.5,0.673,1.5,1.5v2
			C21.5,46.564,20.827,47.237,20,47.237z M12,43.237c-0.276,0-0.5,0.224-0.5,0.5v2c0,0.276,0.224,0.5,0.5,0.5h8
			c0.276,0,0.5-0.224,0.5-0.5v-2c0-0.276-0.224-0.5-0.5-0.5H12z"/>
	</g>
	<g>
		<path class="st0" d="M16,34C8.556,34,2.5,27.944,2.5,20.5S8.556,7,16,7s13.5,6.056,13.5,13.5S23.444,34,16,34z M16,8
			C9.107,8,3.5,13.607,3.5,20.5S9.107,33,16,33s12.5-5.607,12.5-12.5S22.893,8,16,8z"/>
	</g>
	<g>
		<path class="st0" d="M25.5,60h-19c-1.654,0-3-1.346-3-3V32c0-0.748,0.286-1.468,0.806-2.027c0.189-0.202,0.506-0.212,0.707-0.026
			c0.202,0.188,0.214,0.504,0.026,0.707C4.691,31.027,4.5,31.505,4.5,32v25c0,1.103,0.897,2,2,2h19c1.103,0,2-0.897,2-2V32
			c0-0.495-0.191-0.973-0.539-1.347c-0.188-0.202-0.176-0.519,0.026-0.707c0.202-0.187,0.517-0.177,0.707,0.026
			C28.214,30.532,28.5,31.252,28.5,32v25C28.5,58.654,27.154,60,25.5,60z"/>
	</g>
	<g>
		<path class="st0" d="M52.5,27.5h-14c-0.276,0-0.5-0.224-0.5-0.5s0.224-0.5,0.5-0.5h14c0.276,0,0.5,0.224,0.5,0.5
			S52.776,27.5,52.5,27.5z"/>
	</g>
	<g>
		<path class="st0" d="M56.5,27.5h-2c-0.276,0-0.5-0.224-0.5-0.5s0.224-0.5,0.5-0.5h2c0.276,0,0.5,0.224,0.5,0.5
			S56.776,27.5,56.5,27.5z"/>
	</g>
	<g>
		<path class="st0" d="M56.5,59.5h-14c-0.276,0-0.5-0.224-0.5-0.5s0.224-0.5,0.5-0.5h14c0.276,0,0.5,0.224,0.5,0.5
			S56.776,59.5,56.5,59.5z"/>
	</g>
	<g>
		<path class="st0" d="M40.5,59.5h-2c-0.276,0-0.5-0.224-0.5-0.5s0.224-0.5,0.5-0.5h2c0.276,0,0.5,0.224,0.5,0.5
			S40.776,59.5,40.5,59.5z"/>
	</g>
	<g>
		<path class="st0" d="M55,42.5c-0.276,0-0.5-0.224-0.5-0.5v-4.5H50c-0.276,0-0.5-0.224-0.5-0.5s0.224-0.5,0.5-0.5h5
			c0.276,0,0.5,0.224,0.5,0.5v5C55.5,42.276,55.276,42.5,55,42.5z"/>
	</g>
</g>
</svg>
