<?xml version="1.0" encoding="utf-8"?>
<!-- Generator: Adobe Illustrator 21.1.0, SVG Export Plug-In . SVG Version: 6.00 Build 0)  -->
<svg version="1.1" id="Icon_Set" xmlns="http://www.w3.org/2000/svg" xmlns:xlink="http://www.w3.org/1999/xlink" x="0px" y="0px"
	 viewBox="0 0 64 64" style="enable-background:new 0 0 64 64;" xml:space="preserve">
<style type="text/css">
	.st0{fill:#263238;}
	.st1{fill:#FF5252;}
	.st2{fill:#FFD740;}
	.st3{fill:#40C4FF;}
	.st4{fill:#FFFFFF;}
	.st5{fill:#4DB6AC;}
	.st6{fill:#37474F;}
	.st7{fill:#4FC3F7;}
</style>
<g>
	<g>
		<path class="st0" d="M18.5,3.5h-4C14.224,3.5,14,3.276,14,3s0.224-0.5,0.5-0.5h4C18.776,2.5,19,2.724,19,3S18.776,3.5,18.5,3.5z"
			/>
	</g>
	<g>
		<path class="st0" d="M16.5,5.5C16.224,5.5,16,5.276,16,5V1c0-0.276,0.224-0.5,0.5-0.5S17,0.724,17,1v4
			C17,5.276,16.776,5.5,16.5,5.5z"/>
	</g>
	<g>
		<path class="st0" d="M13,8H9C8.724,8,8.5,7.776,8.5,7.5S8.724,7,9,7h4c0.276,0,0.5,0.224,0.5,0.5S13.276,8,13,8z"/>
	</g>
	<g>
		<path class="st0" d="M11,10c-0.276,0-0.5-0.224-0.5-0.5v-4C10.5,5.224,10.724,5,11,5s0.5,0.224,0.5,0.5v4
			C11.5,9.776,11.276,10,11,10z"/>
	</g>
	<g>
		<path class="st0" d="M48,13.5H16c-0.276,0-0.5-0.224-0.5-0.5s0.224-0.5,0.5-0.5h32c0.276,0,0.5,0.224,0.5,0.5S48.276,13.5,48,13.5
			z"/>
	</g>
	<g>
		<path class="st0" d="M48,58.5H16c-0.276,0-0.5-0.224-0.5-0.5s0.224-0.5,0.5-0.5h32c0.276,0,0.5,0.224,0.5,0.5S48.276,58.5,48,58.5
			z"/>
	</g>
	<g>
		<path class="st0" d="M32,63.5c-1.654,0-3-1.346-3-3c0-1.654,1.346-3,3-3c1.654,0,3,1.346,3,3C35,62.154,33.654,63.5,32,63.5z
			 M32,58.5c-1.103,0-2,0.897-2,2c0,1.103,0.897,2,2,2s2-0.897,2-2C34,59.397,33.103,58.5,32,58.5z"/>
	</g>
	<g>
		<path class="st0" d="M34.5,11h-5c-0.276,0-0.5-0.224-0.5-0.5s0.224-0.5,0.5-0.5h5c0.276,0,0.5,0.224,0.5,0.5S34.776,11,34.5,11z"
			/>
	</g>
	<g>
		<path class="st0" d="M11,32.5c-0.276,0-0.5-0.224-0.5-0.5V18c0-0.276,0.224-0.5,0.5-0.5s0.5,0.224,0.5,0.5v14
			C11.5,32.276,11.276,32.5,11,32.5z"/>
	</g>
	<g>
		<path class="st0" d="M11,36.5c-0.276,0-0.5-0.224-0.5-0.5v-2c0-0.276,0.224-0.5,0.5-0.5s0.5,0.224,0.5,0.5v2
			C11.5,36.276,11.276,36.5,11,36.5z"/>
	</g>
	<g>
		<path class="st0" d="M53,62c-0.276,0-0.5-0.224-0.5-0.5v-14c0-0.276,0.224-0.5,0.5-0.5s0.5,0.224,0.5,0.5v14
			C53.5,61.776,53.276,62,53,62z"/>
	</g>
	<g>
		<path class="st0" d="M53,46c-0.276,0-0.5-0.224-0.5-0.5v-2c0-0.276,0.224-0.5,0.5-0.5s0.5,0.224,0.5,0.5v2
			C53.5,45.776,53.276,46,53,46z"/>
	</g>
	<g>
		<polygon class="st2" points="24,35.5 36,47.5 36,41.5 55,41.5 55,29.5 36,29.5 36,23.5 		"/>
		<path class="st0" d="M36,48c-0.13,0-0.258-0.051-0.354-0.146l-12-12C23.552,35.76,23.5,35.633,23.5,35.5s0.053-0.26,0.146-0.354
			l12-12c0.144-0.143,0.359-0.187,0.545-0.108c0.187,0.077,0.309,0.26,0.309,0.462V29h18.499c0.276,0,0.5,0.224,0.5,0.5v12
			c0,0.276-0.224,0.5-0.5,0.5H36.5v5.5c0,0.202-0.122,0.385-0.309,0.462C36.13,47.988,36.064,48,36,48z M24.707,35.5L35.5,46.293
			V41.5c0-0.276,0.224-0.5,0.5-0.5h18.499V30H36c-0.276,0-0.5-0.224-0.5-0.5v-4.793L24.707,35.5z"/>
	</g>
	<g>
		<path class="st0" d="M43,63.5H21c-3.033,0-5.5-2.467-5.5-5.5V13c0-3.033,2.467-5.5,5.5-5.5h22c3.032,0,5.5,2.467,5.5,5.5v14.5
			c0,0.276-0.224,0.5-0.5,0.5s-0.5-0.224-0.5-0.5V13c0-2.481-2.019-4.5-4.5-4.5H21c-2.481,0-4.5,2.019-4.5,4.5v45
			c0,2.481,2.019,4.5,4.5,4.5h22c2.481,0,4.5-2.019,4.5-4.5V43.5c0-0.276,0.224-0.5,0.5-0.5s0.5,0.224,0.5,0.5V58
			C48.5,61.033,46.032,63.5,43,63.5z"/>
	</g>
	<g>
		<path class="st0" d="M45,21.5c-0.276,0-0.5-0.224-0.5-0.5v-4.5H40c-0.276,0-0.5-0.224-0.5-0.5s0.224-0.5,0.5-0.5h5
			c0.276,0,0.5,0.224,0.5,0.5v5C45.5,21.276,45.276,21.5,45,21.5z"/>
	</g>
</g>
</svg>
