<?xml version="1.0" encoding="utf-8"?>
<!-- Generator: Adobe Illustrator 21.1.0, SVG Export Plug-In . SVG Version: 6.00 Build 0)  -->
<svg version="1.1" id="Icon_Set" xmlns="http://www.w3.org/2000/svg" xmlns:xlink="http://www.w3.org/1999/xlink" x="0px" y="0px"
	 viewBox="0 0 64 64" style="enable-background:new 0 0 64 64;" xml:space="preserve">
<style type="text/css">
	.st0{fill:#263238;}
	.st1{fill:#FF5252;}
	.st2{fill:#FFD740;}
	.st3{fill:#40C4FF;}
	.st4{fill:#FFFFFF;}
	.st5{fill:#4DB6AC;}
	.st6{fill:#37474F;}
	.st7{fill:#4FC3F7;}
</style>
<g>
	<g>
		<path class="st2" d="M21.5,51.25h-8c-1.381,0-2.5-1.119-2.5-2.5v-33c0-1.381,1.119-2.5,2.5-2.5h8c1.381,0,2.5,1.119,2.5,2.5v33
			C24,50.131,22.881,51.25,21.5,51.25z"/>
		<path class="st0" d="M21.5,51.75h-8c-1.654,0-3-1.346-3-3v-33c0-1.654,1.346-3,3-3h8c1.654,0,3,1.346,3,3v33
			C24.5,50.405,23.154,51.75,21.5,51.75z M13.5,13.75c-1.103,0-2,0.897-2,2v33c0,1.103,0.897,2,2,2h8c1.103,0,2-0.897,2-2v-33
			c0-1.103-0.897-2-2-2H13.5z"/>
	</g>
	<g>
		<path class="st0" d="M54.5,55.75h-45c-1.654,0-3-1.346-3-3v-33c0-1.421,1.01-2.658,2.4-2.94c0.271-0.049,0.535,0.12,0.59,0.391
			c0.055,0.271-0.12,0.535-0.391,0.59c-0.927,0.188-1.6,1.012-1.6,1.959v33c0,1.103,0.897,2,2,2h45c1.103,0,2-0.897,2-2v-33
			c0-1.103-0.897-2-2-2H26c-0.276,0-0.5-0.224-0.5-0.5s0.224-0.5,0.5-0.5h28.5c1.654,0,3,1.346,3,3v33
			C57.5,54.405,56.154,55.75,54.5,55.75z"/>
	</g>
	<g>
		<path class="st3" d="M46,28.75H30c-0.552,0-1-0.448-1-1v-4c0-0.552,0.448-1,1-1h16c0.552,0,1,0.448,1,1v4
			C47,28.303,46.552,28.75,46,28.75z"/>
		<path class="st0" d="M46,29.25H30c-0.827,0-1.5-0.673-1.5-1.5v-4c0-0.827,0.673-1.5,1.5-1.5h16c0.827,0,1.5,0.673,1.5,1.5v4
			C47.5,28.578,46.827,29.25,46,29.25z M30,23.25c-0.275,0-0.5,0.224-0.5,0.5v4c0,0.276,0.225,0.5,0.5,0.5h16
			c0.275,0,0.5-0.224,0.5-0.5v-4c0-0.276-0.225-0.5-0.5-0.5H30z"/>
	</g>
	<g>
		<path class="st0" d="M33,36.25h-4c-0.276,0-0.5-0.224-0.5-0.5v-4c0-0.276,0.224-0.5,0.5-0.5h4c0.276,0,0.5,0.224,0.5,0.5v4
			C33.5,36.027,33.276,36.25,33,36.25z M29.5,35.25h3v-3h-3V35.25z"/>
	</g>
	<g>
		<path class="st0" d="M40,36.25h-4c-0.276,0-0.5-0.224-0.5-0.5v-4c0-0.276,0.224-0.5,0.5-0.5h4c0.276,0,0.5,0.224,0.5,0.5v4
			C40.5,36.027,40.276,36.25,40,36.25z M36.5,35.25h3v-3h-3V35.25z"/>
	</g>
	<g>
		<path class="st0" d="M47,36.25h-4c-0.276,0-0.5-0.224-0.5-0.5v-4c0-0.276,0.224-0.5,0.5-0.5h4c0.276,0,0.5,0.224,0.5,0.5v4
			C47.5,36.027,47.276,36.25,47,36.25z M43.5,35.25h3v-3h-3V35.25z"/>
	</g>
	<g>
		<path class="st0" d="M33,43.25h-4c-0.276,0-0.5-0.224-0.5-0.5v-4c0-0.276,0.224-0.5,0.5-0.5h4c0.276,0,0.5,0.224,0.5,0.5v4
			C33.5,43.027,33.276,43.25,33,43.25z M29.5,42.25h3v-3h-3V42.25z"/>
	</g>
	<g>
		<path class="st0" d="M40,43.25h-4c-0.276,0-0.5-0.224-0.5-0.5v-4c0-0.276,0.224-0.5,0.5-0.5h4c0.276,0,0.5,0.224,0.5,0.5v4
			C40.5,43.027,40.276,43.25,40,43.25z M36.5,42.25h3v-3h-3V42.25z"/>
	</g>
	<g>
		<path class="st0" d="M47,43.25h-4c-0.276,0-0.5-0.224-0.5-0.5v-4c0-0.276,0.224-0.5,0.5-0.5h4c0.276,0,0.5,0.224,0.5,0.5v4
			C47.5,43.027,47.276,43.25,47,43.25z M43.5,42.25h3v-3h-3V42.25z"/>
	</g>
	<g>
		<path class="st0" d="M33,50.25h-4c-0.276,0-0.5-0.224-0.5-0.5v-4c0-0.276,0.224-0.5,0.5-0.5h4c0.276,0,0.5,0.224,0.5,0.5v4
			C33.5,50.027,33.276,50.25,33,50.25z M29.5,49.25h3v-3h-3V49.25z"/>
	</g>
	<g>
		<path class="st0" d="M40,50.25h-4c-0.276,0-0.5-0.224-0.5-0.5v-4c0-0.276,0.224-0.5,0.5-0.5h4c0.276,0,0.5,0.224,0.5,0.5v4
			C40.5,50.027,40.276,50.25,40,50.25z M36.5,49.25h3v-3h-3V49.25z"/>
	</g>
	<g>
		<path class="st0" d="M47,50.25h-4c-0.276,0-0.5-0.224-0.5-0.5v-4c0-0.276,0.224-0.5,0.5-0.5h4c0.276,0,0.5,0.224,0.5,0.5v4
			C47.5,50.027,47.276,50.25,47,50.25z M43.5,49.25h3v-3h-3V49.25z"/>
	</g>
	<g>
		<path class="st0" d="M54,36.25h-4c-0.276,0-0.5-0.224-0.5-0.5v-4c0-0.276,0.224-0.5,0.5-0.5h4c0.276,0,0.5,0.224,0.5,0.5v4
			C54.5,36.027,54.276,36.25,54,36.25z M50.5,35.25h3v-3h-3V35.25z"/>
	</g>
	<g>
		<path class="st0" d="M54,24.75h-4c-0.276,0-0.5-0.224-0.5-0.5s0.224-0.5,0.5-0.5h4c0.276,0,0.5,0.224,0.5,0.5
			S54.276,24.75,54,24.75z"/>
	</g>
	<g>
		<path class="st0" d="M54,27.75h-4c-0.276,0-0.5-0.224-0.5-0.5s0.224-0.5,0.5-0.5h4c0.276,0,0.5,0.224,0.5,0.5
			S54.276,27.75,54,27.75z"/>
	</g>
	<g>
		<path class="st0" d="M20,21.25h-5c-0.276,0-0.5-0.224-0.5-0.5s0.224-0.5,0.5-0.5h5c0.276,0,0.5,0.224,0.5,0.5
			S20.276,21.25,20,21.25z"/>
	</g>
	<g>
		<path class="st0" d="M59,59.75h-2c-0.276,0-0.5-0.224-0.5-0.5s0.224-0.5,0.5-0.5h2c0.276,0,0.5,0.224,0.5,0.5
			S59.276,59.75,59,59.75z"/>
	</g>
	<g>
		<path class="st0" d="M55,59.75H34c-0.276,0-0.5-0.224-0.5-0.5s0.224-0.5,0.5-0.5h21c0.276,0,0.5,0.224,0.5,0.5
			S55.276,59.75,55,59.75z"/>
	</g>
	<g>
		<path class="st0" d="M9,11.75H5c-0.276,0-0.5-0.224-0.5-0.5s0.224-0.5,0.5-0.5h4c0.276,0,0.5,0.224,0.5,0.5S9.276,11.75,9,11.75z"
			/>
	</g>
	<g>
		<path class="st0" d="M17,7.25h-4c-0.276,0-0.5-0.224-0.5-0.5s0.224-0.5,0.5-0.5h4c0.276,0,0.5,0.224,0.5,0.5S17.276,7.25,17,7.25z
			"/>
	</g>
	<g>
		<path class="st0" d="M15,9.25c-0.276,0-0.5-0.224-0.5-0.5v-4c0-0.276,0.224-0.5,0.5-0.5s0.5,0.224,0.5,0.5v4
			C15.5,9.027,15.276,9.25,15,9.25z"/>
	</g>
	<g>
		<path class="st0" d="M7,13.75c-0.276,0-0.5-0.224-0.5-0.5v-4c0-0.276,0.224-0.5,0.5-0.5s0.5,0.224,0.5,0.5v4
			C7.5,13.527,7.276,13.75,7,13.75z"/>
	</g>
</g>
</svg>
