<?xml version="1.0" encoding="utf-8"?>
<!-- Generator: Adobe Illustrator 21.1.0, SVG Export Plug-In . SVG Version: 6.00 Build 0)  -->
<svg version="1.1" id="Icon_Set" xmlns="http://www.w3.org/2000/svg" xmlns:xlink="http://www.w3.org/1999/xlink" x="0px" y="0px"
	 viewBox="0 0 64 64" style="enable-background:new 0 0 64 64;" xml:space="preserve">
<style type="text/css">
	.st0{fill:#263238;}
	.st1{fill:#FF5252;}
	.st2{fill:#FFD740;}
	.st3{fill:#40C4FF;}
	.st4{fill:#FFFFFF;}
	.st5{fill:#4DB6AC;}
	.st6{fill:#37474F;}
	.st7{fill:#4FC3F7;}
</style>
<g>
	<g>
		<path class="st3" d="M23.985,40.628c-0.64,0-1.279-0.244-1.768-0.732c-0.977-0.976-0.977-2.559,0-3.535L36.36,22.218
			c0.977-0.977,2.559-0.977,3.535,0c0.977,0.976,0.977,2.559,0,3.535L25.753,39.895C25.264,40.384,24.625,40.628,23.985,40.628z"/>
		<path class="st0" d="M23.985,41.128c-0.801,0-1.555-0.312-2.121-0.879c-0.566-0.566-0.879-1.32-0.879-2.121
			s0.312-1.555,0.879-2.121l14.143-14.143c1.17-1.17,3.072-1.17,4.242,0c0.566,0.566,0.879,1.32,0.879,2.121
			s-0.312,1.555-0.879,2.121L26.106,40.249C25.54,40.816,24.786,41.128,23.985,41.128z M38.128,21.986
			c-0.512,0-1.024,0.195-1.414,0.585L22.571,36.714c-0.378,0.378-0.586,0.88-0.586,1.414s0.208,1.036,0.586,1.414
			c0.756,0.756,2.072,0.756,2.828,0l14.143-14.143c0.378-0.378,0.586-0.88,0.586-1.414s-0.208-1.036-0.586-1.414
			C39.152,22.182,38.64,21.986,38.128,21.986z"/>
	</g>
	<g>
		<path class="st2" d="M25.758,42.719c-0.002,0.002-0.003,0.003-0.004,0.005l-7.071,7.071c-0.851,0.85-1.98,1.318-3.183,1.318
			c-1.201,0-2.331-0.468-3.182-1.318C11.468,48.945,11,47.815,11,46.613c0-1.202,0.468-2.332,1.318-3.182l7.071-7.071c0,0,0,0,0,0
			l5.918-5.918c-0.877-0.262-1.796-0.4-2.737-0.4c-2.537,0-4.923,0.988-6.717,2.782l-7.071,7.071C6.988,41.689,6,44.075,6,46.613
			c0,2.538,0.988,4.923,2.783,6.717c1.794,1.794,4.18,2.783,6.717,2.783c2.538,0,4.924-0.988,6.718-2.782l7.071-7.071
			c0-0.001,0-0.001,0-0.001c2.554-2.554,3.345-6.211,2.378-9.45L25.758,42.719z"/>
	</g>
	<g>
		<path class="st0" d="M15.5,51.613c-1.335,0-2.591-0.52-3.535-1.465c-0.944-0.943-1.465-2.199-1.465-3.535
			c0-1.335,0.521-2.591,1.465-3.535l7.071-7.071c0.195-0.195,0.512-0.195,0.707,0s0.195,0.512,0,0.707l-7.071,7.071
			c-0.756,0.755-1.172,1.76-1.172,2.828c0,1.069,0.416,2.073,1.172,2.828c1.512,1.512,4.146,1.511,5.657,0L25.4,42.37
			c0.195-0.195,0.512-0.195,0.707,0s0.195,0.512,0,0.707l-7.071,7.071C18.092,51.093,16.836,51.613,15.5,51.613z"/>
	</g>
	<g>
		<path class="st0" d="M15.5,56.613c-2.671,0-5.182-1.041-7.07-2.929c-1.89-1.888-2.93-4.399-2.93-7.071s1.04-5.183,2.93-7.071
			l7.071-7.071c1.889-1.889,4.399-2.929,7.07-2.929c0.979,0,1.948,0.142,2.88,0.421c0.265,0.08,0.415,0.358,0.335,0.623
			c-0.079,0.265-0.358,0.413-0.622,0.335c-0.838-0.251-1.711-0.379-2.593-0.379c-2.403,0-4.663,0.936-6.363,2.636l-7.071,7.071
			c-1.7,1.7-2.637,3.96-2.637,6.364s0.937,4.664,2.637,6.364c1.699,1.7,3.959,2.636,6.363,2.636s4.664-0.936,6.364-2.636
			l7.071-7.071c2.34-2.34,3.203-5.771,2.252-8.954c-0.079-0.265,0.071-0.543,0.336-0.622c0.268-0.079,0.543,0.072,0.623,0.336
			c1.056,3.535,0.097,7.346-2.504,9.946l-7.071,7.071C20.683,55.573,18.172,56.613,15.5,56.613z"/>
	</g>
	<g>
		<path class="st2" d="M42.718,25.758c0.002-0.002,0.003-0.003,0.005-0.004l7.071-7.071c0.85-0.851,1.318-1.98,1.318-3.183
			c0-1.201-0.468-2.331-1.318-3.182C48.945,11.468,47.815,11,46.613,11c-1.202,0-2.332,0.468-3.182,1.318L36.36,19.39l0,0
			l-5.918,5.918c-0.262-0.877-0.4-1.796-0.4-2.737c0-2.537,0.988-4.923,2.782-6.717l7.071-7.071C41.689,6.988,44.075,6,46.613,6
			c2.538,0,4.923,0.988,6.717,2.783c1.794,1.794,2.783,4.18,2.783,6.717c0,2.538-0.988,4.924-2.782,6.718l-7.071,7.071
			c-0.001,0-0.001,0-0.001,0c-2.554,2.554-6.211,3.345-9.45,2.378L42.718,25.758z"/>
	</g>
	<g>
		<path class="st0" d="M42.724,26.254c-0.128,0-0.256-0.049-0.354-0.146c-0.195-0.195-0.195-0.512,0-0.707l7.071-7.071
			c0.755-0.756,1.171-1.761,1.171-2.829c0-1.068-0.416-2.072-1.172-2.828c-1.509-1.511-4.144-1.513-5.656,0l-7.071,7.071
			c-0.195,0.195-0.512,0.195-0.707,0s-0.195-0.512,0-0.707l7.071-7.071c0.944-0.945,2.2-1.465,3.535-1.465
			c1.336,0,2.592,0.521,3.535,1.465c0.944,0.944,1.465,2.2,1.465,3.535c0,1.335-0.52,2.591-1.464,3.536l-7.071,7.071
			C42.979,26.205,42.852,26.254,42.724,26.254z"/>
	</g>
	<g>
		<path class="st0" d="M39.546,32.568c-0.961,0-1.93-0.138-2.879-0.421c-0.265-0.079-0.415-0.357-0.337-0.622
			c0.08-0.264,0.36-0.414,0.622-0.336c3.187,0.951,6.614,0.086,8.953-2.253l7.071-7.071c1.699-1.7,2.636-3.96,2.636-6.364
			c0-2.404-0.937-4.664-2.636-6.363c-1.699-1.7-3.96-2.637-6.364-2.637c-2.403,0-4.664,0.937-6.364,2.637l-7.07,7.071
			c-1.699,1.7-2.636,3.959-2.636,6.363c0,0.883,0.127,1.755,0.378,2.593c0.08,0.265-0.07,0.543-0.335,0.623
			c-0.269,0.08-0.544-0.071-0.622-0.335c-0.279-0.932-0.421-1.9-0.421-2.88c0-2.671,1.04-5.182,2.929-7.07l7.07-7.071
			c1.89-1.889,4.4-2.93,7.071-2.93c2.672,0,5.184,1.041,7.071,2.93c1.889,1.889,2.929,4.399,2.929,7.07
			c0,2.671-1.04,5.183-2.929,7.071l-7.07,7.071C44.711,31.544,42.161,32.568,39.546,32.568z"/>
	</g>
	<g>
		<path class="st0" d="M20.223,11.056h-4c-0.276,0-0.5-0.224-0.5-0.5s0.224-0.5,0.5-0.5h4c0.276,0,0.5,0.224,0.5,0.5
			S20.499,11.056,20.223,11.056z"/>
	</g>
	<g>
		<path class="st0" d="M18.223,13.056c-0.276,0-0.5-0.224-0.5-0.5v-4c0-0.276,0.224-0.5,0.5-0.5s0.5,0.224,0.5,0.5v4
			C18.723,12.833,18.499,13.056,18.223,13.056z"/>
	</g>
	<g>
		<path class="st0" d="M13.723,17.556h-4c-0.276,0-0.5-0.224-0.5-0.5s0.224-0.5,0.5-0.5h4c0.276,0,0.5,0.224,0.5,0.5
			S13.999,17.556,13.723,17.556z"/>
	</g>
	<g>
		<path class="st0" d="M11.723,19.556c-0.276,0-0.5-0.224-0.5-0.5v-4c0-0.276,0.224-0.5,0.5-0.5s0.5,0.224,0.5,0.5v4
			C12.223,19.333,11.999,19.556,11.723,19.556z"/>
	</g>
	<g>
		<path class="st0" d="M51,58.5h-1c-0.276,0-0.5-0.224-0.5-0.5s0.224-0.5,0.5-0.5h1c0.276,0,0.5,0.224,0.5,0.5S51.276,58.5,51,58.5z
			"/>
	</g>
	<g>
		<path class="st0" d="M48,58.5H33c-0.276,0-0.5-0.224-0.5-0.5s0.224-0.5,0.5-0.5h15c0.276,0,0.5,0.224,0.5,0.5S48.276,58.5,48,58.5
			z"/>
	</g>
	<g>
		<path class="st0" d="M41,55.5h-1c-0.276,0-0.5-0.224-0.5-0.5s0.224-0.5,0.5-0.5h1c0.276,0,0.5,0.224,0.5,0.5S41.276,55.5,41,55.5z
			"/>
	</g>
	<g>
		<path class="st0" d="M58,55.5H43c-0.276,0-0.5-0.224-0.5-0.5s0.224-0.5,0.5-0.5h15c0.276,0,0.5,0.224,0.5,0.5S58.276,55.5,58,55.5
			z"/>
	</g>
</g>
</svg>
