<?xml version="1.0" encoding="utf-8"?>
<!-- Generator: Adobe Illustrator 21.1.0, SVG Export Plug-In . SVG Version: 6.00 Build 0)  -->
<svg version="1.1" id="Icon_Set" xmlns="http://www.w3.org/2000/svg" xmlns:xlink="http://www.w3.org/1999/xlink" x="0px" y="0px"
	 viewBox="0 0 64 64" style="enable-background:new 0 0 64 64;" xml:space="preserve">
<style type="text/css">
	.st0{fill:#263238;}
	.st1{fill:#FF5252;}
	.st2{fill:#FFD740;}
	.st3{fill:#40C4FF;}
	.st4{fill:#FFFFFF;}
	.st5{fill:#4DB6AC;}
	.st6{fill:#37474F;}
	.st7{fill:#4FC3F7;}
</style>
<g>
	<g>
		<path class="st3" d="M25.5,42h-18C6.119,42,5,40.881,5,39.5V26c0-1.381,1.119-2.5,2.5-2.5h18V42z"/>
		<path class="st0" d="M25.5,42.5h-18c-1.654,0-3-1.346-3-3V26c0-1.654,1.346-3,3-3h18c0.276,0,0.5,0.224,0.5,0.5V42
			C26,42.276,25.776,42.5,25.5,42.5z M7.5,24c-1.103,0-2,0.897-2,2v13.5c0,1.103,0.897,2,2,2H25V24H7.5z"/>
	</g>
	<g>
		<path class="st0" d="M44,50c-0.063,0-0.127-0.012-0.188-0.037l-18.5-7.5C25.124,42.387,25,42.203,25,42V23.5
			c0-0.204,0.124-0.387,0.312-0.463l18.5-7.5c0.152-0.062,0.328-0.045,0.467,0.049C44.417,15.678,44.5,15.833,44.5,16v33.5
			c0,0.166-0.083,0.321-0.221,0.415C44.195,49.971,44.098,50,44,50z M26,41.663l17.5,7.095V16.742L26,23.837V41.663z"/>
	</g>
	<g>
		<path class="st0" d="M17.5,59.5h-6c-0.827,0-1.5-0.673-1.5-1.5V42c0-0.276,0.224-0.5,0.5-0.5h8c0.276,0,0.5,0.224,0.5,0.5v16
			C19,58.827,18.327,59.5,17.5,59.5z M11,42.5V58c0,0.275,0.224,0.5,0.5,0.5h6c0.276,0,0.5-0.225,0.5-0.5V42.5H11z"/>
	</g>
	<g>
		<path class="st2" d="M48,51.5h-3c-0.552,0-1-0.448-1-1V15c0-0.552,0.448-1,1-1h3c0.552,0,1,0.448,1,1v35.5
			C49,51.052,48.552,51.5,48,51.5z"/>
		<path class="st0" d="M48,52h-3c-0.827,0-1.5-0.673-1.5-1.5V15c0-0.827,0.673-1.5,1.5-1.5h3c0.827,0,1.5,0.673,1.5,1.5v35.5
			C49.5,51.327,48.827,52,48,52z M45,14.5c-0.275,0-0.5,0.224-0.5,0.5v35.5c0,0.275,0.225,0.5,0.5,0.5h3c0.275,0,0.5-0.225,0.5-0.5
			V15c0-0.276-0.225-0.5-0.5-0.5H45z"/>
	</g>
	<g>
		<path class="st0" d="M59,33.25h-7c-0.276,0-0.5-0.224-0.5-0.5s0.224-0.5,0.5-0.5h7c0.276,0,0.5,0.224,0.5,0.5
			S59.276,33.25,59,33.25z"/>
	</g>
	<g>
		<path class="st0" d="M52,28.25c-0.151,0-0.302-0.069-0.4-0.2c-0.165-0.221-0.12-0.534,0.101-0.7l4-3
			c0.22-0.166,0.533-0.122,0.7,0.1c0.165,0.221,0.12,0.534-0.101,0.7l-4,3C52.21,28.217,52.104,28.25,52,28.25z"/>
	</g>
	<g>
		<path class="st0" d="M56,41.25c-0.104,0-0.21-0.032-0.3-0.1l-4-3c-0.221-0.166-0.266-0.479-0.101-0.7
			c0.167-0.221,0.48-0.265,0.7-0.101l4,3c0.221,0.166,0.266,0.479,0.101,0.7C56.302,41.181,56.151,41.25,56,41.25z"/>
	</g>
	<g>
		<path class="st0" d="M20.549,48.5H18.5c-0.276,0-0.5-0.224-0.5-0.5v-6c0-0.276,0.224-0.5,0.5-0.5h4
			c0.245,0,0.453,0.177,0.493,0.418l0.515,3.089c0.145,0.872-0.099,1.759-0.67,2.433C22.267,48.113,21.432,48.5,20.549,48.5z
			 M19,47.5h1.549c0.589,0,1.145-0.258,1.526-0.707s0.543-1.041,0.447-1.622L22.076,42.5H19V47.5z"/>
	</g>
	<g>
		<path class="st0" d="M18.5,55.5h-8c-0.276,0-0.5-0.224-0.5-0.5s0.224-0.5,0.5-0.5h8c0.276,0,0.5,0.224,0.5,0.5
			S18.776,55.5,18.5,55.5z"/>
	</g>
	<g>
		<path class="st0" d="M19,20H5c-0.276,0-0.5-0.224-0.5-0.5S4.724,19,5,19h14c0.276,0,0.5,0.224,0.5,0.5S19.276,20,19,20z"/>
	</g>
	<g>
		<path class="st0" d="M23,20h-2c-0.276,0-0.5-0.224-0.5-0.5S20.724,19,21,19h2c0.276,0,0.5,0.224,0.5,0.5S23.276,20,23,20z"/>
	</g>
	<g>
		<path class="st0" d="M49,56H35c-0.276,0-0.5-0.224-0.5-0.5S34.724,55,35,55h14c0.276,0,0.5,0.224,0.5,0.5S49.276,56,49,56z"/>
	</g>
	<g>
		<path class="st0" d="M33,56h-2c-0.276,0-0.5-0.224-0.5-0.5S30.724,55,31,55h2c0.276,0,0.5,0.224,0.5,0.5S33.276,56,33,56z"/>
	</g>
	<g>
		<path class="st0" d="M39,7.5h-4c-0.276,0-0.5-0.224-0.5-0.5s0.224-0.5,0.5-0.5h4c0.276,0,0.5,0.224,0.5,0.5S39.276,7.5,39,7.5z"/>
	</g>
	<g>
		<path class="st0" d="M37,9.5c-0.276,0-0.5-0.224-0.5-0.5V5c0-0.276,0.224-0.5,0.5-0.5s0.5,0.224,0.5,0.5v4
			C37.5,9.276,37.276,9.5,37,9.5z"/>
	</g>
	<g>
		<path class="st0" d="M32.5,11h-4c-0.276,0-0.5-0.224-0.5-0.5s0.224-0.5,0.5-0.5h4c0.276,0,0.5,0.224,0.5,0.5S32.776,11,32.5,11z"
			/>
	</g>
	<g>
		<path class="st0" d="M30.5,13c-0.276,0-0.5-0.224-0.5-0.5v-4C30,8.224,30.224,8,30.5,8S31,8.224,31,8.5v4
			C31,12.776,30.776,13,30.5,13z"/>
	</g>
</g>
</svg>
