<?xml version="1.0" encoding="utf-8"?>
<!-- Generator: Adobe Illustrator 21.1.0, SVG Export Plug-In . SVG Version: 6.00 Build 0)  -->
<svg version="1.1" id="Icon_Set" xmlns="http://www.w3.org/2000/svg" xmlns:xlink="http://www.w3.org/1999/xlink" x="0px" y="0px"
	 viewBox="0 0 64 64" style="enable-background:new 0 0 64 64;" xml:space="preserve">
<style type="text/css">
	.st0{fill:#263238;}
	.st1{fill:#FF5252;}
	.st2{fill:#FFD740;}
	.st3{fill:#40C4FF;}
	.st4{fill:#FFFFFF;}
	.st5{fill:#4DB6AC;}
	.st6{fill:#37474F;}
	.st7{fill:#4FC3F7;}
</style>
<g>
	<g>
		<path class="st0" d="M34.5,61c-0.276,0-0.5-0.224-0.5-0.5v-15c0-0.276,0.224-0.5,0.5-0.5s0.5,0.224,0.5,0.5v15
			C35,60.776,34.776,61,34.5,61z"/>
	</g>
	<g>
		<path class="st0" d="M29.5,61c-0.276,0-0.5-0.224-0.5-0.5v-15c0-0.276,0.224-0.5,0.5-0.5s0.5,0.224,0.5,0.5v15
			C30,60.776,29.776,61,29.5,61z"/>
	</g>
	<g>
		<rect x="12.5" y="27.5" class="st3" width="12" height="3"/>
		<path class="st0" d="M24.5,31h-12c-0.276,0-0.5-0.224-0.5-0.5v-3c0-0.276,0.224-0.5,0.5-0.5h12c0.276,0,0.5,0.224,0.5,0.5v3
			C25,30.776,24.776,31,24.5,31z M13,30h11v-2H13V30z"/>
	</g>
	<g>
		<path class="st2" d="M53,43.5H11c-1.381,0-2.5-1.119-2.5-2.5v-3.5h47V41C55.5,42.381,54.381,43.5,53,43.5z"/>
		<path class="st0" d="M53,44H11c-1.654,0-3-1.346-3-3v-3.5C8,37.224,8.224,37,8.5,37h47c0.276,0,0.5,0.224,0.5,0.5V41
			C56,42.654,54.654,44,53,44z M9,38v3c0,1.103,0.897,2,2,2h42c1.103,0,2-0.897,2-2v-3H9z"/>
	</g>
	<g>
		<path class="st0" d="M26,44H11c-1.654,0-3-1.346-3-3V25.843c0-5.711,4.306-10.464,9.802-10.82l0,0
			c2.938-0.186,5.737,0.81,7.877,2.815C27.79,19.816,29,22.609,29,25.5V41C29,42.654,27.654,44,26,44z M17.867,16.021
			C12.895,16.342,9,20.657,9,25.843V41c0,1.103,0.897,2,2,2h15c1.103,0,2-0.897,2-2V25.5c0-2.654-1.067-5.116-3.004-6.933
			C23.06,16.753,20.528,15.849,17.867,16.021L17.867,16.021z"/>
	</g>
	<g>
		<path class="st0" d="M52.5,26c-0.276,0-0.5-0.224-0.5-0.5c0-3.584-2.916-6.5-6.5-6.5c-0.276,0-0.5-0.224-0.5-0.5
			s0.224-0.5,0.5-0.5c4.136,0,7.5,3.364,7.5,7.5C53,25.776,52.776,26,52.5,26z"/>
	</g>
	<g>
		<rect x="42.5" y="10.5" class="st1" width="3" height="13"/>
		<path class="st0" d="M45.5,24h-3c-0.276,0-0.5-0.224-0.5-0.5v-13c0-0.276,0.224-0.5,0.5-0.5h3c0.276,0,0.5,0.224,0.5,0.5v13
			C46,23.776,45.776,24,45.5,24z M43,23h2V11h-2V23z"/>
	</g>
	<g>
		<path class="st0" d="M55.5,38h-27c-0.276,0-0.5-0.224-0.5-0.5v-12c0-5.238-4.262-9.5-9.5-9.5c-0.276,0-0.5-0.224-0.5-0.5
			s0.224-0.5,0.5-0.5h22c0.276,0,0.5,0.224,0.5,0.5S40.776,16,40.5,16H22.971C26.531,17.682,29,21.308,29,25.5V37h26V25.5
			c0-4.5-3.196-8.415-7.6-9.309c-0.271-0.055-0.445-0.319-0.391-0.59c0.055-0.27,0.317-0.444,0.59-0.391
			c4.868,0.989,8.4,5.316,8.4,10.29v12C56,37.776,55.776,38,55.5,38z"/>
	</g>
	<g>
		<rect x="42.5" y="3.5" class="st1" width="11" height="7"/>
		<path class="st0" d="M53.5,11h-11c-0.276,0-0.5-0.224-0.5-0.5v-7C42,3.224,42.224,3,42.5,3h11C53.776,3,54,3.224,54,3.5v7
			C54,10.776,53.776,11,53.5,11z M43,10h10V4H43V10z"/>
	</g>
	<g>
		<path class="st0" d="M59,53h-2c-0.276,0-0.5-0.224-0.5-0.5S56.724,52,57,52h2c0.276,0,0.5,0.224,0.5,0.5S59.276,53,59,53z"/>
	</g>
	<g>
		<path class="st0" d="M55,53H41.5c-0.276,0-0.5-0.224-0.5-0.5s0.224-0.5,0.5-0.5H55c0.276,0,0.5,0.224,0.5,0.5S55.276,53,55,53z"/>
	</g>
	<g>
		<path class="st0" d="M7,53H5c-0.276,0-0.5-0.224-0.5-0.5S4.724,52,5,52h2c0.276,0,0.5,0.224,0.5,0.5S7.276,53,7,53z"/>
	</g>
	<g>
		<path class="st0" d="M22.5,53H9c-0.276,0-0.5-0.224-0.5-0.5S8.724,52,9,52h13.5c0.276,0,0.5,0.224,0.5,0.5S22.776,53,22.5,53z"/>
	</g>
	<g>
		<path class="st0" d="M13.5,10.5h-4C9.224,10.5,9,10.276,9,10s0.224-0.5,0.5-0.5h4c0.276,0,0.5,0.224,0.5,0.5
			S13.776,10.5,13.5,10.5z"/>
	</g>
	<g>
		<path class="st0" d="M21.5,6h-4C17.224,6,17,5.776,17,5.5S17.224,5,17.5,5h4C21.776,5,22,5.224,22,5.5S21.776,6,21.5,6z"/>
	</g>
	<g>
		<path class="st0" d="M19.5,8C19.224,8,19,7.776,19,7.5v-4C19,3.224,19.224,3,19.5,3S20,3.224,20,3.5v4C20,7.776,19.776,8,19.5,8z"
			/>
	</g>
	<g>
		<path class="st0" d="M11.5,12.5c-0.276,0-0.5-0.224-0.5-0.5V8c0-0.276,0.224-0.5,0.5-0.5S12,7.724,12,8v4
			C12,12.276,11.776,12.5,11.5,12.5z"/>
	</g>
</g>
</svg>
