<?xml version="1.0" encoding="utf-8"?>
<!-- Generator: Adobe Illustrator 21.1.0, SVG Export Plug-In . SVG Version: 6.00 Build 0)  -->
<svg version="1.1" id="Icon_Set" xmlns="http://www.w3.org/2000/svg" xmlns:xlink="http://www.w3.org/1999/xlink" x="0px" y="0px"
	 viewBox="0 0 64 64" style="enable-background:new 0 0 64 64;" xml:space="preserve">
<style type="text/css">
	.st0{fill:#263238;}
	.st1{fill:#FF5252;}
	.st2{fill:#FFD740;}
	.st3{fill:#40C4FF;}
	.st4{fill:#FFFFFF;}
	.st5{fill:#4DB6AC;}
	.st6{fill:#37474F;}
	.st7{fill:#4FC3F7;}
</style>
<g>
	<g>
		<path class="st5" d="M9,21.633v18c0,4.142,3.358,7.5,7.5,7.5H23v7.865c0,0.848,0.989,1.311,1.64,0.768L35,47.134h12.5
			c4.142,0,7.5-3.358,7.5-7.5v-18c0-4.142-3.358-7.5-7.5-7.5h-31C12.358,14.133,9,17.491,9,21.633z"/>
		<path class="st0" d="M24.003,56.501c-0.216,0-0.434-0.047-0.64-0.144c-0.533-0.25-0.864-0.77-0.864-1.358v-7.365h-6
			c-4.411,0-8-3.589-8-8v-18c0-4.411,3.589-8,8-8h31c4.411,0,8,3.589,8,8v18c0,4.411-3.589,8-8,8H35.181L24.96,56.151
			C24.683,56.382,24.346,56.501,24.003,56.501z M16.5,14.633c-3.86,0-7,3.14-7,7v18c0,3.86,3.14,7,7,7H23c0.276,0,0.5,0.224,0.5,0.5
			v7.865c0,0.295,0.22,0.421,0.288,0.453s0.306,0.12,0.532-0.069l10.36-8.633c0.09-0.075,0.203-0.116,0.32-0.116h12.5
			c3.86,0,7-3.14,7-7v-18c0-3.86-3.14-7-7-7H16.5z"/>
	</g>
	<g>
		<circle class="st4" cx="32" cy="30.633" r="2.5"/>
		<path class="st0" d="M32,33.633c-1.654,0-3-1.346-3-3s1.346-3,3-3s3,1.346,3,3S33.654,33.633,32,33.633z M32,28.633
			c-1.103,0-2,0.897-2,2s0.897,2,2,2s2-0.897,2-2S33.103,28.633,32,28.633z"/>
	</g>
	<g>
		<circle class="st4" cx="21.5" cy="30.633" r="2.5"/>
		<path class="st0" d="M21.5,33.633c-1.654,0-3-1.346-3-3s1.346-3,3-3s3,1.346,3,3S23.154,33.633,21.5,33.633z M21.5,28.633
			c-1.103,0-2,0.897-2,2s0.897,2,2,2s2-0.897,2-2S22.603,28.633,21.5,28.633z"/>
	</g>
	<g>
		<circle class="st4" cx="42.5" cy="30.633" r="2.5"/>
		<path class="st0" d="M42.5,33.633c-1.654,0-3-1.346-3-3s1.346-3,3-3s3,1.346,3,3S44.154,33.633,42.5,33.633z M42.5,28.633
			c-1.103,0-2,0.897-2,2s0.897,2,2,2s2-0.897,2-2S43.603,28.633,42.5,28.633z"/>
	</g>
	<g>
		<path class="st0" d="M51,51.633H37c-0.276,0-0.5-0.224-0.5-0.5s0.224-0.5,0.5-0.5h14c0.276,0,0.5,0.224,0.5,0.5
			S51.276,51.633,51,51.633z"/>
	</g>
	<g>
		<path class="st0" d="M55,51.633h-2c-0.276,0-0.5-0.224-0.5-0.5s0.224-0.5,0.5-0.5h2c0.276,0,0.5,0.224,0.5,0.5
			S55.276,51.633,55,51.633z"/>
	</g>
	<g>
		<path class="st0" d="M22,10.633H8c-0.276,0-0.5-0.224-0.5-0.5s0.224-0.5,0.5-0.5h14c0.276,0,0.5,0.224,0.5,0.5
			S22.276,10.633,22,10.633z"/>
	</g>
	<g>
		<path class="st0" d="M6,10.633H4c-0.276,0-0.5-0.224-0.5-0.5s0.224-0.5,0.5-0.5h2c0.276,0,0.5,0.224,0.5,0.5
			S6.276,10.633,6,10.633z"/>
	</g>
	<g>
		<path class="st0" d="M54.5,10.5h-4c-0.276,0-0.5-0.224-0.5-0.5s0.224-0.5,0.5-0.5h4c0.276,0,0.5,0.224,0.5,0.5
			S54.776,10.5,54.5,10.5z"/>
	</g>
	<g>
		<path class="st0" d="M52.5,12.5c-0.276,0-0.5-0.224-0.5-0.5V8c0-0.276,0.224-0.5,0.5-0.5S53,7.724,53,8v4
			C53,12.276,52.776,12.5,52.5,12.5z"/>
	</g>
	<g>
		<path class="st0" d="M60,15h-4c-0.276,0-0.5-0.224-0.5-0.5S55.724,14,56,14h4c0.276,0,0.5,0.224,0.5,0.5S60.276,15,60,15z"/>
	</g>
	<g>
		<path class="st0" d="M58,17c-0.276,0-0.5-0.224-0.5-0.5v-4c0-0.276,0.224-0.5,0.5-0.5s0.5,0.224,0.5,0.5v4
			C58.5,16.776,58.276,17,58,17z"/>
	</g>
	<g>
		<path class="st0" d="M52,27.633c-0.276,0-0.5-0.224-0.5-0.5v-5c0-2.481-2.019-4.5-4.5-4.5h-5c-0.276,0-0.5-0.224-0.5-0.5
			s0.224-0.5,0.5-0.5h5c3.033,0,5.5,2.467,5.5,5.5v5C52.5,27.41,52.276,27.633,52,27.633z"/>
	</g>
</g>
</svg>
