<?xml version="1.0" encoding="utf-8"?>
<!-- Generator: Adobe Illustrator 21.1.0, SVG Export Plug-In . SVG Version: 6.00 Build 0)  -->
<svg version="1.1" id="Icon_Set" xmlns="http://www.w3.org/2000/svg" xmlns:xlink="http://www.w3.org/1999/xlink" x="0px" y="0px"
	 viewBox="0 0 64 64" style="enable-background:new 0 0 64 64;" xml:space="preserve">
<style type="text/css">
	.st0{fill:#263238;}
	.st1{fill:#FF5252;}
	.st2{fill:#FFD740;}
	.st3{fill:#40C4FF;}
	.st4{fill:#FFFFFF;}
	.st5{fill:#4DB6AC;}
	.st6{fill:#37474F;}
	.st7{fill:#4FC3F7;}
</style>
<g>
	<g>
		<path class="st0" d="M42.5,63.5h-22c-3.033,0-5.5-2.468-5.5-5.5V13c0-3.032,2.467-5.5,5.5-5.5h22c3.032,0,5.5,2.468,5.5,5.5v45
			C48,61.032,45.532,63.5,42.5,63.5z M20.5,8.5c-2.481,0-4.5,2.019-4.5,4.5v45c0,2.481,2.019,4.5,4.5,4.5h22
			c2.481,0,4.5-2.019,4.5-4.5V13c0-2.481-2.019-4.5-4.5-4.5H20.5z"/>
	</g>
	<g>
		<path class="st0" d="M20.001,3.5h-4c-0.276,0-0.5-0.224-0.5-0.5s0.224-0.5,0.5-0.5h4c0.276,0,0.5,0.224,0.5,0.5
			S20.277,3.5,20.001,3.5z"/>
	</g>
	<g>
		<path class="st0" d="M18.001,5.5c-0.276,0-0.5-0.224-0.5-0.5V1c0-0.276,0.224-0.5,0.5-0.5s0.5,0.224,0.5,0.5v4
			C18.501,5.276,18.277,5.5,18.001,5.5z"/>
	</g>
	<g>
		<path class="st0" d="M14.501,8h-4c-0.276,0-0.5-0.224-0.5-0.5s0.224-0.5,0.5-0.5h4c0.276,0,0.5,0.224,0.5,0.5S14.777,8,14.501,8z"
			/>
	</g>
	<g>
		<path class="st0" d="M12.501,10c-0.276,0-0.5-0.224-0.5-0.5v-4c0-0.276,0.224-0.5,0.5-0.5s0.5,0.224,0.5,0.5v4
			C13.001,9.776,12.777,10,12.501,10z"/>
	</g>
	<g>
		<path class="st0" d="M47.5,13.5h-32c-0.276,0-0.5-0.224-0.5-0.5s0.224-0.5,0.5-0.5h32c0.276,0,0.5,0.224,0.5,0.5
			S47.776,13.5,47.5,13.5z"/>
	</g>
	<g>
		<path class="st0" d="M47.5,58.5h-32c-0.276,0-0.5-0.224-0.5-0.5s0.224-0.5,0.5-0.5h32c0.276,0,0.5,0.224,0.5,0.5
			S47.776,58.5,47.5,58.5z"/>
	</g>
	<g>
		<path class="st0" d="M31.501,63.5c-1.654,0-3-1.346-3-3s1.346-3,3-3s3,1.346,3,3S33.155,63.5,31.501,63.5z M31.501,58.5
			c-1.103,0-2,0.897-2,2s0.897,2,2,2s2-0.897,2-2S32.604,58.5,31.501,58.5z"/>
	</g>
	<g>
		<path class="st0" d="M34.001,11h-5c-0.276,0-0.5-0.224-0.5-0.5s0.224-0.5,0.5-0.5h5c0.276,0,0.5,0.224,0.5,0.5
			S34.277,11,34.001,11z"/>
	</g>
	<g>
		<path class="st0" d="M11.5,58.5c-0.276,0-0.5-0.224-0.5-0.5V46.5c0-0.276,0.224-0.5,0.5-0.5s0.5,0.224,0.5,0.5V58
			C12,58.276,11.777,58.5,11.5,58.5z"/>
	</g>
	<g>
		<path class="st0" d="M11.5,45c-0.276,0-0.5-0.224-0.5-0.5v-2c0-0.276,0.224-0.5,0.5-0.5s0.5,0.224,0.5,0.5v2
			C12,44.776,11.776,45,11.5,45z"/>
	</g>
	<g>
		<path class="st0" d="M51.5,25c-0.276,0-0.5-0.224-0.5-0.5V13c0-0.276,0.224-0.5,0.5-0.5S52,12.724,52,13v11.5
			C52,24.776,51.776,25,51.5,25z"/>
	</g>
	<g>
		<path class="st0" d="M51.5,29c-0.276,0-0.5-0.224-0.5-0.5v-2c0-0.276,0.224-0.5,0.5-0.5s0.5,0.224,0.5,0.5v2
			C52,28.776,51.776,29,51.5,29z"/>
	</g>
	<g>
		<path class="st0" d="M13.5,36H13c-4.411,0-8-3.589-8-8s3.589-8,8-8h10.5c0.276,0,0.5,0.224,0.5,0.5S23.777,21,23.5,21H13
			c-3.86,0-7,3.141-7,7s3.14,7,7,7h0.5c0.276,0,0.5,0.224,0.5,0.5S13.777,36,13.5,36z"/>
	</g>
	<g>
		<path class="st0" d="M21,23.5c-0.128,0-0.256-0.049-0.354-0.146c-0.195-0.195-0.195-0.512,0-0.707l2.146-2.146l-2.146-2.146
			c-0.195-0.195-0.195-0.512,0-0.707s0.512-0.195,0.707,0l2.5,2.5c0.195,0.195,0.195,0.512,0,0.707l-2.5,2.5
			C21.256,23.451,21.128,23.5,21,23.5z"/>
	</g>
	<g>
		<path class="st0" d="M51,51H40.5c-0.276,0-0.5-0.224-0.5-0.5s0.224-0.5,0.5-0.5H51c3.859,0,7-3.141,7-7s-3.141-7-7-7h-0.5
			c-0.276,0-0.5-0.224-0.5-0.5s0.224-0.5,0.5-0.5H51c4.411,0,8,3.589,8,8S55.411,51,51,51z"/>
	</g>
	<g>
		<path class="st0" d="M43,53.5c-0.128,0-0.256-0.049-0.354-0.146l-2.5-2.5c-0.195-0.195-0.195-0.512,0-0.707l2.5-2.5
			c0.195-0.195,0.512-0.195,0.707,0s0.195,0.512,0,0.707L41.207,50.5l2.146,2.146c0.195,0.195,0.195,0.512,0,0.707
			C43.256,53.451,43.128,53.5,43,53.5z"/>
	</g>
	<g>
		<ellipse transform="matrix(0.7071 -0.7071 0.7071 0.7071 -15.876 32.672)" class="st5" cx="31.501" cy="35.5" rx="10" ry="10"/>
		<path class="st0" d="M31.5,46c-2.805,0-5.441-1.092-7.424-3.075c-4.094-4.094-4.094-10.756,0-14.85
			C26.059,26.092,28.696,25,31.5,25c2.804,0,5.441,1.092,7.424,3.075c4.094,4.094,4.094,10.756,0,14.85
			C36.941,44.908,34.305,46,31.5,46z M31.5,26c-2.538,0-4.923,0.988-6.717,2.782c-3.704,3.704-3.704,9.731,0,13.436
			C26.577,44.012,28.963,45,31.5,45s4.923-0.988,6.717-2.782c3.704-3.704,3.704-9.731,0-13.436C36.424,26.988,34.038,26,31.5,26z"/>
	</g>
	<g>
		<path class="st0" d="M29.733,39.535c-0.128,0-0.256-0.049-0.354-0.146l-3.536-3.535c-0.195-0.195-0.195-0.512,0-0.707
			s0.512-0.195,0.707,0l3.182,3.182l6.717-6.717c0.195-0.195,0.512-0.195,0.707,0s0.195,0.512,0,0.707l-7.071,7.07
			C29.989,39.486,29.861,39.535,29.733,39.535z"/>
	</g>
	<g>
		<path class="st0" d="M47.501,58.5h-32c-0.276,0-0.5-0.224-0.5-0.5V12.999c0-0.276,0.224-0.5,0.5-0.5h32c0.276,0,0.5,0.224,0.5,0.5
			V58C48.001,58.276,47.777,58.5,47.501,58.5z M16.001,57.5h31V13.499h-31V57.5z"/>
	</g>
	<g>
		<path class="st0" d="M44.501,21.499c-0.276,0-0.5-0.224-0.5-0.5v-4.5h-4.5c-0.276,0-0.5-0.224-0.5-0.5s0.224-0.5,0.5-0.5h5
			c0.276,0,0.5,0.224,0.5,0.5v5C45.001,21.275,44.777,21.499,44.501,21.499z"/>
	</g>
</g>
</svg>
