<?xml version="1.0" encoding="utf-8"?>
<!-- Generator: Adobe Illustrator 21.1.0, SVG Export Plug-In . SVG Version: 6.00 Build 0)  -->
<svg version="1.1" id="Icon_Set" xmlns="http://www.w3.org/2000/svg" xmlns:xlink="http://www.w3.org/1999/xlink" x="0px" y="0px"
	 viewBox="0 0 64 64" style="enable-background:new 0 0 64 64;" xml:space="preserve">
<style type="text/css">
	.st0{fill:#263238;}
	.st1{fill:#FF5252;}
	.st2{fill:#FFD740;}
	.st3{fill:#40C4FF;}
	.st4{fill:#FFFFFF;}
	.st5{fill:#4DB6AC;}
	.st6{fill:#37474F;}
	.st7{fill:#4FC3F7;}
</style>
<g>
	<g>
		<path class="st2" d="M52,30.055H35.5v5c0,2.481-2.019,4.5-4.5,4.5h-0.5v5.5c0,1.381,1.119,2.5,2.5,2.5h9l5.382,4.229
			C48.038,52.3,49,51.832,49,50.998v-3.443h3c1.381,0,2.5-1.119,2.5-2.5l0-12.5C54.5,31.174,53.38,30.055,52,30.055z"/>
	</g>
	<g>
		<path class="st0" d="M19,3.5h-4c-0.276,0-0.5-0.224-0.5-0.5s0.224-0.5,0.5-0.5h4c0.276,0,0.5,0.224,0.5,0.5S19.276,3.5,19,3.5z"/>
	</g>
	<g>
		<path class="st0" d="M17,5.5c-0.276,0-0.5-0.224-0.5-0.5V1c0-0.276,0.224-0.5,0.5-0.5s0.5,0.224,0.5,0.5v4
			C17.5,5.276,17.276,5.5,17,5.5z"/>
	</g>
	<g>
		<path class="st0" d="M13.5,8h-4C9.224,8,9,7.776,9,7.5S9.224,7,9.5,7h4C13.776,7,14,7.224,14,7.5S13.776,8,13.5,8z"/>
	</g>
	<g>
		<path class="st0" d="M11.5,10C11.224,10,11,9.776,11,9.5v-4C11,5.224,11.224,5,11.5,5S12,5.224,12,5.5v4
			C12,9.776,11.776,10,11.5,10z"/>
	</g>
	<g>
		<path class="st0" d="M48,13.5H16c-0.276,0-0.5-0.224-0.5-0.5s0.224-0.5,0.5-0.5h32c0.276,0,0.5,0.224,0.5,0.5S48.276,13.5,48,13.5
			z"/>
	</g>
	<g>
		<path class="st0" d="M48,58.5H16c-0.276,0-0.5-0.224-0.5-0.5s0.224-0.5,0.5-0.5h32c0.276,0,0.5,0.224,0.5,0.5S48.276,58.5,48,58.5
			z"/>
	</g>
	<g>
		<path class="st0" d="M32,63.5c-1.653,0-2.999-1.346-2.999-3c0-1.654,1.346-3,2.999-3c1.654,0,3,1.346,3,3
			C35,62.154,33.654,63.5,32,63.5z M32,58.5c-1.103,0-1.999,0.897-1.999,2c0,1.103,0.896,2,1.999,2s2-0.897,2-2
			C34,59.397,33.103,58.5,32,58.5z"/>
	</g>
	<g>
		<path class="st0" d="M34.5,11h-4.999c-0.276,0-0.5-0.224-0.5-0.5s0.224-0.5,0.5-0.5H34.5c0.276,0,0.5,0.224,0.5,0.5
			S34.776,11,34.5,11z"/>
	</g>
	<g>
		<path class="st0" d="M12,56c-0.276,0-0.5-0.224-0.5-0.5v-10c0-0.276,0.224-0.5,0.5-0.5s0.5,0.224,0.5,0.5v10
			C12.5,55.776,12.276,56,12,56z"/>
	</g>
	<g>
		<path class="st0" d="M12,44c-0.276,0-0.5-0.224-0.5-0.5v-1c0-0.276,0.224-0.5,0.5-0.5s0.5,0.224,0.5,0.5v1
			C12.5,43.776,12.276,44,12,44z"/>
	</g>
	<g>
		<path class="st0" d="M52,22.555c-0.276,0-0.5-0.224-0.5-0.5v-10c0-0.276,0.224-0.5,0.5-0.5s0.5,0.224,0.5,0.5v10
			C52.5,22.332,52.276,22.555,52,22.555z"/>
	</g>
	<g>
		<path class="st0" d="M52,25.555c-0.276,0-0.5-0.224-0.5-0.5v-1c0-0.276,0.224-0.5,0.5-0.5s0.5,0.224,0.5,0.5v1
			C52.5,25.332,52.276,25.555,52,25.555z"/>
	</g>
	<g>
		<path class="st0" d="M36.5,40.555c-1.103,0-2-0.897-2-2s0.897-2,2-2s2,0.897,2,2S37.603,40.555,36.5,40.555z M36.5,37.555
			c-0.552,0-1,0.449-1,1s0.448,1,1,1s1-0.449,1-1S37.052,37.555,36.5,37.555z"/>
	</g>
	<g>
		<path class="st0" d="M42.5,40.555c-1.103,0-2-0.897-2-2s0.897-2,2-2s2,0.897,2,2S43.603,40.555,42.5,40.555z M42.5,37.555
			c-0.552,0-1,0.449-1,1s0.448,1,1,1s1-0.449,1-1S43.052,37.555,42.5,37.555z"/>
	</g>
	<g>
		<path class="st0" d="M48.5,40.555c-1.103,0-2-0.897-2-2s0.897-2,2-2s2,0.897,2,2S49.603,40.555,48.5,40.555z M48.5,37.555
			c-0.552,0-1,0.449-1,1s0.448,1,1,1s1-0.449,1-1S49.052,37.555,48.5,37.555z"/>
	</g>
	<g>
		<path class="st5" d="M31,20.055H12c-1.381,0-2.5,1.119-2.5,2.5v12.5c0,1.381,1.119,2.5,2.5,2.5h3v3.443
			c0,0.834,0.962,1.302,1.618,0.786L22,37.555h9c1.381,0,2.5-1.119,2.5-2.5v-12.5C33.5,21.174,32.381,20.055,31,20.055z"/>
		<path class="st0" d="M16.003,42.5c-0.224,0-0.448-0.05-0.658-0.153c-0.521-0.253-0.845-0.77-0.845-1.349v-2.942H12
			c-1.654,0-3-1.346-3-3v-12.5c0-1.654,1.346-3,3-3h19c1.654,0,3,1.346,3,3v12.5c0,1.654-1.346,3-3,3h-8.827l-5.247,4.122
			C16.655,42.39,16.331,42.5,16.003,42.5z M12,20.555c-1.103,0-2,0.897-2,2v12.5c0,1.103,0.897,2,2,2h3c0.276,0,0.5,0.224,0.5,0.5
			v3.442c0,0.196,0.105,0.364,0.281,0.45c0.18,0.086,0.374,0.064,0.527-0.056l5.383-4.229c0.088-0.069,0.196-0.107,0.309-0.107h9
			c1.103,0,2-0.897,2-2v-12.5c0-1.103-0.897-2-2-2H12z"/>
	</g>
	<g>
		<path class="st0" d="M47.997,52.5c-0.328,0-0.652-0.109-0.924-0.322l-5.246-4.122H33c-1.654,0-3-1.346-3-3v-5.5
			c0-0.276,0.224-0.5,0.5-0.5s0.5,0.224,0.5,0.5v5.5c0,1.103,0.897,2,2,2h9c0.112,0,0.221,0.038,0.309,0.107l5.382,4.229
			c0.154,0.121,0.35,0.142,0.528,0.056c0.176-0.086,0.281-0.254,0.281-0.45v-3.442c0-0.276,0.224-0.5,0.5-0.5h3c1.103,0,2-0.897,2-2
			v-12.5c0-1.103-0.897-2-2-2H35.5c-0.276,0-0.5-0.224-0.5-0.5s0.224-0.5,0.5-0.5H52c1.654,0,3,1.346,3,3v12.5c0,1.654-1.346,3-3,3
			h-2.5v2.942c0,0.579-0.323,1.096-0.844,1.349C48.445,52.449,48.221,52.5,47.997,52.5z"/>
	</g>
	<g>
		<path class="st0" d="M48,28.555c-0.276,0-0.5-0.224-0.5-0.5V13c0-2.481-2.019-4.5-4.5-4.5H21c-2.481,0-4.5,2.019-4.5,4.5v5.055
			c0,0.276-0.224,0.5-0.5,0.5s-0.5-0.224-0.5-0.5V13c0-3.033,2.468-5.5,5.5-5.5h22c3.032,0,5.5,2.467,5.5,5.5v15.055
			C48.5,28.332,48.276,28.555,48,28.555z"/>
	</g>
	<g>
		<path class="st0" d="M43,63.5H21c-3.032,0-5.5-2.467-5.5-5.5V44.001c0-0.276,0.224-0.5,0.5-0.5s0.505,0.224,0.505,0.5
			c0,0.025-0.001,0.049-0.005,0.073V58c0,2.481,2.019,4.5,4.5,4.5h22c2.481,0,4.5-2.019,4.5-4.5v-3.949
			c-0.002-0.017-0.002-0.033-0.002-0.05c0-0.276,0.221-0.5,0.497-0.5s0.505,0.223,0.505,0.5V58C48.5,61.033,46.032,63.5,43,63.5z"/>
	</g>
	<g>
		<path class="st0" d="M15.5,30.555c-1.103,0-2-0.897-2-2s0.897-2,2-2s2,0.897,2,2S16.603,30.555,15.5,30.555z M15.5,27.555
			c-0.552,0-1,0.449-1,1s0.448,1,1,1s1-0.449,1-1S16.052,27.555,15.5,27.555z"/>
	</g>
	<g>
		<path class="st0" d="M21.5,30.555c-1.103,0-2-0.897-2-2s0.897-2,2-2s2,0.897,2,2S22.603,30.555,21.5,30.555z M21.5,27.555
			c-0.552,0-1,0.449-1,1s0.448,1,1,1s1-0.449,1-1S22.052,27.555,21.5,27.555z"/>
	</g>
	<g>
		<path class="st0" d="M27.5,30.555c-1.103,0-2-0.897-2-2s0.897-2,2-2s2,0.897,2,2S28.603,30.555,27.5,30.555z M27.5,27.555
			c-0.552,0-1,0.449-1,1s0.448,1,1,1s1-0.449,1-1S28.052,27.555,27.5,27.555z"/>
	</g>
	<g>
		<path class="st0" d="M45,21.5c-0.276,0-0.5-0.224-0.5-0.5v-4.5H40c-0.276,0-0.5-0.224-0.5-0.5s0.224-0.5,0.5-0.5h5
			c0.276,0,0.5,0.224,0.5,0.5v5C45.5,21.276,45.276,21.5,45,21.5z"/>
	</g>
</g>
</svg>
