<?xml version="1.0" encoding="utf-8"?>
<!-- Generator: Adobe Illustrator 21.1.0, SVG Export Plug-In . SVG Version: 6.00 Build 0)  -->
<svg version="1.1" id="Icon_Set" xmlns="http://www.w3.org/2000/svg" xmlns:xlink="http://www.w3.org/1999/xlink" x="0px" y="0px"
	 viewBox="0 0 64 64" style="enable-background:new 0 0 64 64;" xml:space="preserve">
<style type="text/css">
	.st0{fill:#263238;}
	.st1{fill:#FF5252;}
	.st2{fill:#FFD740;}
	.st3{fill:#40C4FF;}
	.st4{fill:#FFFFFF;}
	.st5{fill:#4DB6AC;}
	.st6{fill:#37474F;}
	.st7{fill:#4FC3F7;}
</style>
<g>
	<g>
		<circle class="st2" cx="19.05" cy="15.999" r="15"/>
	</g>
	<g>
		<path class="st0" d="M26.829,13.721c-0.128,0-0.256-0.049-0.354-0.146c-4.094-4.094-10.756-4.094-14.85,0
			c-0.195,0.195-0.512,0.195-0.707,0s-0.195-0.512,0-0.707c4.484-4.482,11.779-4.482,16.264,0c0.195,0.195,0.195,0.512,0,0.707
			C27.084,13.672,26.957,13.721,26.829,13.721z"/>
	</g>
	<g>
		<path class="st0" d="M14.101,16.55c-0.128,0-0.256-0.049-0.354-0.146c-0.195-0.195-0.195-0.512,0-0.707
			c2.924-2.923,7.682-2.924,10.606,0c0.195,0.195,0.195,0.512,0,0.707s-0.512,0.195-0.707,0c-2.534-2.533-6.658-2.533-9.192,0
			C14.356,16.501,14.229,16.55,14.101,16.55z"/>
	</g>
	<g>
		<path class="st0" d="M21.171,19.378c-0.128,0-0.256-0.049-0.354-0.146c-0.945-0.946-2.592-0.944-3.536,0
			c-0.195,0.195-0.512,0.195-0.707,0s-0.195-0.512,0-0.707c1.322-1.322,3.628-1.322,4.95,0c0.195,0.195,0.195,0.512,0,0.707
			C21.427,19.329,21.299,19.378,21.171,19.378z"/>
	</g>
	<g>
		<path class="st0" d="M55,58.5H9c-3.033,0-5.5-2.468-5.5-5.5V43c0-3.032,2.467-5.5,5.5-5.5h46c3.033,0,5.5,2.468,5.5,5.5v10
			C60.5,56.032,58.033,58.5,55,58.5z M9,38.5c-2.481,0-4.5,2.019-4.5,4.5v10c0,2.481,2.019,4.5,4.5,4.5h46
			c2.481,0,4.5-2.019,4.5-4.5V43c0-2.481-2.019-4.5-4.5-4.5H9z"/>
	</g>
	<g>
		<path class="st0" d="M38.5,50.5c-1.378,0-2.5-1.121-2.5-2.5s1.122-2.5,2.5-2.5S41,46.621,41,48S39.878,50.5,38.5,50.5z M38.5,46.5
			c-0.827,0-1.5,0.673-1.5,1.5s0.673,1.5,1.5,1.5S40,48.827,40,48S39.327,46.5,38.5,46.5z"/>
	</g>
	<g>
		<path class="st0" d="M45.5,50.5c-1.378,0-2.5-1.121-2.5-2.5s1.122-2.5,2.5-2.5S48,46.621,48,48S46.878,50.5,45.5,50.5z M45.5,46.5
			c-0.827,0-1.5,0.673-1.5,1.5s0.673,1.5,1.5,1.5S47,48.827,47,48S46.327,46.5,45.5,46.5z"/>
	</g>
	<g>
		<path class="st0" d="M52.5,50.5c-1.378,0-2.5-1.121-2.5-2.5s1.122-2.5,2.5-2.5S55,46.621,55,48S53.878,50.5,52.5,50.5z M52.5,46.5
			c-0.827,0-1.5,0.673-1.5,1.5s0.673,1.5,1.5,1.5S54,48.827,54,48S53.327,46.5,52.5,46.5z"/>
	</g>
	<g>
		<path class="st3" d="M25.05,51h-16c-0.552,0-1-0.448-1-1v-4c0-0.552,0.448-1,1-1h16c0.552,0,1,0.448,1,1v4
			C26.05,50.552,25.603,51,25.05,51z"/>
		<path class="st0" d="M25.05,51.5h-16c-0.827,0-1.5-0.673-1.5-1.5v-4c0-0.827,0.673-1.5,1.5-1.5h16c0.827,0,1.5,0.673,1.5,1.5v4
			C26.55,50.827,25.877,51.5,25.05,51.5z M9.05,45.5c-0.276,0-0.5,0.225-0.5,0.5v4c0,0.275,0.224,0.5,0.5,0.5h16
			c0.276,0,0.5-0.225,0.5-0.5v-4c0-0.275-0.224-0.5-0.5-0.5H9.05z"/>
	</g>
	<g>
		<path class="st0" d="M20.55,36.5c-0.276,0-0.5-0.224-0.5-0.5V23.499c0-0.552-0.449-1-1-1s-1,0.448-1,1V36
			c0,0.276-0.224,0.5-0.5,0.5s-0.5-0.224-0.5-0.5V23.499c0-1.103,0.897-2,2-2s2,0.897,2,2V36C21.05,36.276,20.827,36.5,20.55,36.5z"
			/>
	</g>
	<g>
		<path class="st0" d="M14,63.5H9c-0.827,0-1.5-0.673-1.5-1.5v-2c0-0.276,0.224-0.5,0.5-0.5s0.5,0.224,0.5,0.5v2
			c0,0.275,0.224,0.5,0.5,0.5h5c0.276,0,0.5-0.225,0.5-0.5v-2c0-0.276,0.224-0.5,0.5-0.5s0.5,0.224,0.5,0.5v2
			C15.5,62.827,14.827,63.5,14,63.5z"/>
	</g>
	<g>
		<path class="st0" d="M55,63.5h-5c-0.827,0-1.5-0.673-1.5-1.5v-2c0-0.276,0.224-0.5,0.5-0.5s0.5,0.224,0.5,0.5v2
			c0,0.275,0.224,0.5,0.5,0.5h5c0.276,0,0.5-0.225,0.5-0.5v-2c0-0.276,0.224-0.5,0.5-0.5s0.5,0.224,0.5,0.5v2
			C56.5,62.827,55.827,63.5,55,63.5z"/>
	</g>
	<g>
		<path class="st0" d="M57,46.5c-0.276,0-0.5-0.224-0.5-0.5v-2.5c0-1.103-0.897-2-2-2H52c-0.276,0-0.5-0.224-0.5-0.5
			s0.224-0.5,0.5-0.5h2.5c1.654,0,3,1.346,3,3V46C57.5,46.276,57.276,46.5,57,46.5z"/>
	</g>
	<g>
		<path class="st0" d="M51,34.5H37c-0.276,0-0.5-0.224-0.5-0.5s0.224-0.5,0.5-0.5h14c0.276,0,0.5,0.224,0.5,0.5S51.276,34.5,51,34.5
			z"/>
	</g>
	<g>
		<path class="st0" d="M55,34.5h-2c-0.276,0-0.5-0.224-0.5-0.5s0.224-0.5,0.5-0.5h2c0.276,0,0.5,0.224,0.5,0.5S55.276,34.5,55,34.5z
			"/>
	</g>
	<g>
		<path class="st0" d="M52.25,14.86h-4c-0.276,0-0.5-0.224-0.5-0.5s0.224-0.5,0.5-0.5h4c0.276,0,0.5,0.224,0.5,0.5
			S52.527,14.86,52.25,14.86z"/>
	</g>
	<g>
		<path class="st0" d="M50.25,16.86c-0.276,0-0.5-0.224-0.5-0.5v-4c0-0.276,0.224-0.5,0.5-0.5s0.5,0.224,0.5,0.5v4
			C50.75,16.637,50.527,16.86,50.25,16.86z"/>
	</g>
	<g>
		<path class="st0" d="M46.75,19.36h-4c-0.276,0-0.5-0.224-0.5-0.5s0.224-0.5,0.5-0.5h4c0.276,0,0.5,0.224,0.5,0.5
			S47.027,19.36,46.75,19.36z"/>
	</g>
	<g>
		<path class="st0" d="M44.75,21.36c-0.276,0-0.5-0.224-0.5-0.5v-4c0-0.276,0.224-0.5,0.5-0.5s0.5,0.224,0.5,0.5v4
			C45.25,21.137,45.027,21.36,44.75,21.36z"/>
	</g>
</g>
</svg>
