<?xml version="1.0" encoding="utf-8"?>
<!-- Generator: Adobe Illustrator 21.1.0, SVG Export Plug-In . SVG Version: 6.00 Build 0)  -->
<svg version="1.1" id="Icon_Set" xmlns="http://www.w3.org/2000/svg" xmlns:xlink="http://www.w3.org/1999/xlink" x="0px" y="0px"
	 viewBox="0 0 64 64" style="enable-background:new 0 0 64 64;" xml:space="preserve">
<style type="text/css">
	.st0{fill:#263238;}
	.st1{fill:#FF5252;}
	.st2{fill:#FFD740;}
	.st3{fill:#40C4FF;}
	.st4{fill:#FFFFFF;}
	.st5{fill:#4DB6AC;}
	.st6{fill:#37474F;}
	.st7{fill:#4FC3F7;}
</style>
<g>
	<g>
		<path class="st0" d="M26,53.25c-0.276,0-0.5-0.224-0.5-0.5v-3.5c0-0.276,0.224-0.5,0.5-0.5s0.5,0.224,0.5,0.5v3.5
			C26.5,53.026,26.276,53.25,26,53.25z"/>
	</g>
	<g>
		<path class="st0" d="M38,53.25c-0.276,0-0.5-0.224-0.5-0.5v-3.5c0-0.276,0.224-0.5,0.5-0.5s0.5,0.224,0.5,0.5v3.5
			C38.5,53.026,38.276,53.25,38,53.25z"/>
	</g>
	<g>
		<path class="st0" d="M42,59.25H22c-0.827,0-1.5-0.673-1.5-1.5v-2c0-0.827,0.673-1.5,1.5-1.5h20c0.827,0,1.5,0.673,1.5,1.5v2
			C43.5,58.577,42.827,59.25,42,59.25z M22,55.25c-0.276,0-0.5,0.224-0.5,0.5v2c0,0.276,0.224,0.5,0.5,0.5h20
			c0.276,0,0.5-0.224,0.5-0.5v-2c0-0.276-0.224-0.5-0.5-0.5H22z"/>
	</g>
	<g>
		<path class="st0" d="M59.5,47.75h-55c-1.654,0-3-1.346-3-3v-37c0-1.654,1.346-3,3-3h55c1.654,0,3,1.346,3,3v37
			C62.5,46.404,61.154,47.75,59.5,47.75z M4.5,5.75c-1.103,0-2,0.897-2,2v37c0,1.103,0.897,2,2,2h55c1.103,0,2-0.897,2-2v-37
			c0-1.103-0.897-2-2-2H4.5z"/>
	</g>
	<g>
		<path class="st0" d="M56.5,53.25H49c-0.276,0-0.5-0.224-0.5-0.5s0.224-0.5,0.5-0.5h7.5c0.276,0,0.5,0.224,0.5,0.5
			S56.776,53.25,56.5,53.25z"/>
	</g>
	<g>
		<path class="st0" d="M59.5,53.25h-1c-0.276,0-0.5-0.224-0.5-0.5s0.224-0.5,0.5-0.5h1c0.276,0,0.5,0.224,0.5,0.5
			S59.776,53.25,59.5,53.25z"/>
	</g>
	<g>
		<path class="st0" d="M15,53.25H7.5c-0.276,0-0.5-0.224-0.5-0.5s0.224-0.5,0.5-0.5H15c0.276,0,0.5,0.224,0.5,0.5
			S15.276,53.25,15,53.25z"/>
	</g>
	<g>
		<path class="st0" d="M5.5,53.25h-1c-0.276,0-0.5-0.224-0.5-0.5s0.224-0.5,0.5-0.5h1c0.276,0,0.5,0.224,0.5,0.5
			S5.776,53.25,5.5,53.25z"/>
	</g>
	<g>
		<path class="st2" d="M58,42.25H6c-0.552,0-1-0.448-1-1v-30c0-0.552,0.448-1,1-1h52c0.552,0,1,0.448,1,1v30
			C59,41.802,58.552,42.25,58,42.25z"/>
		<path class="st0" d="M58,42.75H6c-0.827,0-1.5-0.673-1.5-1.5v-30c0-0.827,0.673-1.5,1.5-1.5h52c0.827,0,1.5,0.673,1.5,1.5v30
			C59.5,42.077,58.827,42.75,58,42.75z M6,10.75c-0.276,0-0.5,0.224-0.5,0.5v30c0,0.276,0.224,0.5,0.5,0.5h52
			c0.276,0,0.5-0.224,0.5-0.5v-30c0-0.276-0.224-0.5-0.5-0.5H6z"/>
	</g>
	<g>
		<path class="st0" d="M56,18.75c-0.128,0-0.256-0.049-0.354-0.146l-5-5c-0.195-0.195-0.195-0.512,0-0.707s0.512-0.195,0.707,0l5,5
			c0.195,0.195,0.195,0.512,0,0.707C56.256,18.701,56.128,18.75,56,18.75z"/>
	</g>
	<g>
		<path class="st0" d="M56,23.75c-0.128,0-0.256-0.049-0.354-0.146l-10-10c-0.195-0.195-0.195-0.512,0-0.707s0.512-0.195,0.707,0
			l10,10c0.195,0.195,0.195,0.512,0,0.707C56.256,23.701,56.128,23.75,56,23.75z"/>
	</g>
</g>
</svg>
