<?xml version="1.0" encoding="utf-8"?>
<!-- Generator: Adobe Illustrator 21.1.0, SVG Export Plug-In . SVG Version: 6.00 Build 0)  -->
<svg version="1.1" id="Icon_Set" xmlns="http://www.w3.org/2000/svg" xmlns:xlink="http://www.w3.org/1999/xlink" x="0px" y="0px"
	 viewBox="0 0 64 64" style="enable-background:new 0 0 64 64;" xml:space="preserve">
<style type="text/css">
	.st0{fill:#263238;}
	.st1{fill:#FF5252;}
	.st2{fill:#FFD740;}
	.st3{fill:#40C4FF;}
	.st4{fill:#FFFFFF;}
	.st5{fill:#4DB6AC;}
	.st6{fill:#37474F;}
	.st7{fill:#4FC3F7;}
</style>
<g>
	<g>
		<path class="st0" d="M39.5,61H29c-3.032,0-5.5-2.467-5.5-5.5v-2c0-0.276,0.224-0.5,0.5-0.5s0.5,0.224,0.5,0.5v2
			c0,2.481,2.019,4.5,4.5,4.5h10.5c2.481,0,4.5-2.019,4.5-4.5V47c0-1.654,1.346-3,3-3h3c1.103,0,2-0.897,2-2V28.5
			c0-0.276,0.224-0.5,0.5-0.5s0.5,0.224,0.5,0.5V42c0,1.654-1.346,3-3,3h-3c-1.103,0-2,0.897-2,2v8.5C45,58.533,42.532,61,39.5,61z"
			/>
	</g>
	<g>
		<path class="st0" d="M44.5,43c-0.276,0-0.5-0.224-0.5-0.5V36c0-0.276,0.224-0.5,0.5-0.5S45,35.724,45,36v6.5
			C45,42.776,44.776,43,44.5,43z"/>
	</g>
	<g>
		<path class="st0" d="M34.5,50h-21c-1.654,0-3-1.346-3-3V29.5c0-0.276,0.224-0.5,0.5-0.5s0.5,0.224,0.5,0.5V47c0,1.103,0.897,2,2,2
			h21c1.103,0,2-0.897,2-2V6c0-1.103-0.897-2-2-2h-21c-1.103,0-2,0.897-2,2v1.5C11.5,7.776,11.276,8,11,8s-0.5-0.224-0.5-0.5V6
			c0-1.654,1.346-3,3-3h21c1.654,0,3,1.346,3,3v41C37.5,48.654,36.154,50,34.5,50z"/>
	</g>
	<g>
		<polyline class="st2" points="11,8.5 11,7.5 37,7.5 37,29.5 11,29.5 11,28.5 		"/>
		<path class="st0" d="M37,30H11c-0.276,0-0.5-0.224-0.5-0.5v-1c0-0.276,0.224-0.5,0.5-0.5s0.5,0.224,0.5,0.5V29h25V8h-25v0.5
			C11.5,8.776,11.276,9,11,9s-0.5-0.224-0.5-0.5v-1C10.5,7.224,10.724,7,11,7h26c0.276,0,0.5,0.224,0.5,0.5v22
			C37.5,29.776,37.276,30,37,30z"/>
	</g>
	<g>
		<path class="st0" d="M24,46c-3.584,0-6.5-2.916-6.5-6.5S20.416,33,24,33s6.5,2.916,6.5,6.5S27.584,46,24,46z M24,34
			c-3.032,0-5.5,2.467-5.5,5.5S20.968,45,24,45s5.5-2.467,5.5-5.5S27.032,34,24,34z"/>
	</g>
	<g>
		<path class="st0" d="M24,42c-1.379,0-2.5-1.122-2.5-2.5S22.621,37,24,37s2.5,1.122,2.5,2.5S25.379,42,24,42z M24,38
			c-0.827,0-1.5,0.673-1.5,1.5S23.173,41,24,41s1.5-0.673,1.5-1.5S24.827,38,24,38z"/>
	</g>
	<g>
		<path class="st0" d="M26,52h-4c-0.276,0-0.5-0.224-0.5-0.5v-2c0-0.276,0.224-0.5,0.5-0.5s0.5,0.224,0.5,0.5V51h3v-1.5
			c0-0.276,0.224-0.5,0.5-0.5s0.5,0.224,0.5,0.5v2C26.5,51.776,26.276,52,26,52z"/>
	</g>
	<g>
		<path class="st0" d="M34,16c-0.276,0-0.5-0.224-0.5-0.5V11H29c-0.276,0-0.5-0.224-0.5-0.5S28.724,10,29,10h5
			c0.276,0,0.5,0.224,0.5,0.5v5C34.5,15.776,34.276,16,34,16z"/>
	</g>
	<g>
		<circle class="st3" cx="11" cy="18.5" r="8"/>
	</g>
	<g>
		<path class="st0" d="M9.5,21.25c-0.276,0-0.5-0.224-0.5-0.5v-5.5c0-0.238,0.168-0.443,0.402-0.49l5-1
			c0.147-0.028,0.299,0.009,0.415,0.104C14.933,13.958,15,14.1,15,14.25v5.5c0,0.276-0.224,0.5-0.5,0.5s-0.5-0.224-0.5-0.5v-4.89
			l-4,0.8v5.09C10,21.026,9.776,21.25,9.5,21.25z"/>
	</g>
	<g>
		<path class="st0" d="M8,22.25c-1.121,0-2-0.659-2-1.5s0.879-1.5,2-1.5s2,0.659,2,1.5S9.121,22.25,8,22.25z M8,20.25
			c-0.61,0-1,0.296-1,0.5s0.39,0.5,1,0.5c0.602,0,1-0.301,1-0.5S8.602,20.25,8,20.25z"/>
	</g>
	<g>
		<path class="st0" d="M13,21.25c-1.121,0-2-0.659-2-1.5s0.879-1.5,2-1.5s2,0.659,2,1.5S14.121,21.25,13,21.25z M13,19.25
			c-0.61,0-1,0.296-1,0.5s0.39,0.5,1,0.5c0.602,0,1-0.301,1-0.5S13.602,19.25,13,19.25z"/>
	</g>
	<g>
		<path class="st0" d="M4,55H3c-0.276,0-0.5-0.224-0.5-0.5S2.724,54,3,54h1c0.276,0,0.5,0.224,0.5,0.5S4.276,55,4,55z"/>
	</g>
	<g>
		<path class="st0" d="M16,55H6c-0.276,0-0.5-0.224-0.5-0.5S5.724,54,6,54h10c0.276,0,0.5,0.224,0.5,0.5S16.276,55,16,55z"/>
	</g>
	<g>
		<path class="st0" d="M61,55h-1c-0.276,0-0.5-0.224-0.5-0.5S59.724,54,60,54h1c0.276,0,0.5,0.224,0.5,0.5S61.276,55,61,55z"/>
	</g>
	<g>
		<path class="st0" d="M58,55H48c-0.276,0-0.5-0.224-0.5-0.5S47.724,54,48,54h10c0.276,0,0.5,0.224,0.5,0.5S58.276,55,58,55z"/>
	</g>
	<g>
		<path class="st0" d="M53.5,6h-4C49.224,6,49,5.776,49,5.5S49.224,5,49.5,5h4C53.776,5,54,5.224,54,5.5S53.776,6,53.5,6z"/>
	</g>
	<g>
		<path class="st0" d="M51.5,8C51.224,8,51,7.776,51,7.5v-4C51,3.224,51.224,3,51.5,3S52,3.224,52,3.5v4C52,7.776,51.776,8,51.5,8z"
			/>
	</g>
	<g>
		<path class="st0" d="M46.5,11.5h-4c-0.276,0-0.5-0.224-0.5-0.5s0.224-0.5,0.5-0.5h4c0.276,0,0.5,0.224,0.5,0.5
			S46.776,11.5,46.5,11.5z"/>
	</g>
	<g>
		<path class="st0" d="M44.5,13.5c-0.276,0-0.5-0.224-0.5-0.5V9c0-0.276,0.224-0.5,0.5-0.5S45,8.724,45,9v4
			C45,13.276,44.776,13.5,44.5,13.5z"/>
	</g>
	<g>
		<path class="st0" d="M44.5,34.5c-1.103,0-2-0.897-2-2v-4c0-1.103,0.897-2,2-2s2,0.897,2,2v4C46.5,33.603,45.603,34.5,44.5,34.5z
			 M44.5,27.5c-0.552,0-1,0.449-1,1v4c0,0.551,0.448,1,1,1s1-0.449,1-1v-4C45.5,27.949,45.052,27.5,44.5,27.5z"/>
	</g>
	<g>
		<path class="st1" d="M44.5,23c-2.209,0-4,1.791-4,4c0,1.678,1.035,3.109,2.5,3.703V28.5c0-0.828,0.672-1.5,1.5-1.5
			s1.5,0.672,1.5,1.5v2.203c1.465-0.594,2.5-2.026,2.5-3.703C48.5,24.791,46.709,23,44.5,23z"/>
		<path class="st0" d="M46,31.204c-0.098,0-0.195-0.029-0.279-0.085c-0.138-0.093-0.221-0.248-0.221-0.415V28.5c0-0.551-0.448-1-1-1
			s-1,0.449-1,1v2.204c0,0.167-0.083,0.322-0.221,0.415c-0.139,0.094-0.313,0.111-0.467,0.049C41.104,30.474,40,28.838,40,27
			c0-2.481,2.019-4.5,4.5-4.5S49,24.519,49,27c0,1.838-1.104,3.474-2.813,4.167C46.127,31.191,46.063,31.204,46,31.204z M44.5,26.5
			c1.103,0,2,0.897,2,2v1.369C47.43,29.224,48,28.165,48,27c0-1.93-1.57-3.5-3.5-3.5S41,25.07,41,27c0,1.165,0.57,2.224,1.5,2.869
			V28.5C42.5,27.397,43.397,26.5,44.5,26.5z"/>
	</g>
	<g>
		<path class="st0" d="M52.5,27c-1.103,0-2-0.897-2-2v-4c0-1.103,0.897-2,2-2s2,0.897,2,2v4C54.5,26.103,53.603,27,52.5,27z
			 M52.5,20c-0.552,0-1,0.449-1,1v4c0,0.551,0.448,1,1,1s1-0.449,1-1v-4C53.5,20.449,53.052,20,52.5,20z"/>
	</g>
	<g>
		<path class="st1" d="M52.5,15.5c-2.209,0-4,1.791-4,4c0,1.678,1.035,3.109,2.5,3.703V21c0-0.828,0.672-1.5,1.5-1.5
			S54,20.172,54,21v2.203c1.465-0.594,2.5-2.026,2.5-3.703C56.5,17.291,54.709,15.5,52.5,15.5z"/>
		<path class="st0" d="M54,23.704c-0.098,0-0.195-0.029-0.279-0.085c-0.138-0.093-0.221-0.248-0.221-0.415V21c0-0.551-0.448-1-1-1
			s-1,0.449-1,1v2.204c0,0.167-0.083,0.322-0.221,0.415c-0.14,0.093-0.314,0.111-0.467,0.049C49.104,22.974,48,21.338,48,19.5
			c0-2.481,2.019-4.5,4.5-4.5s4.5,2.019,4.5,4.5c0,1.838-1.104,3.474-2.813,4.167C54.127,23.691,54.063,23.704,54,23.704z M52.5,19
			c1.103,0,2,0.897,2,2v1.369c0.93-0.645,1.5-1.704,1.5-2.869c0-1.93-1.57-3.5-3.5-3.5S49,17.57,49,19.5
			c0,1.165,0.57,2.224,1.5,2.869V21C50.5,19.897,51.397,19,52.5,19z"/>
	</g>
</g>
</svg>
