<?xml version="1.0" encoding="utf-8"?>
<!-- Generator: Adobe Illustrator 21.1.0, SVG Export Plug-In . SVG Version: 6.00 Build 0)  -->
<svg version="1.1" id="Icon_Set" xmlns="http://www.w3.org/2000/svg" xmlns:xlink="http://www.w3.org/1999/xlink" x="0px" y="0px"
	 viewBox="0 0 64 64" style="enable-background:new 0 0 64 64;" xml:space="preserve">
<style type="text/css">
	.st0{fill:#263238;}
	.st1{fill:#FF5252;}
	.st2{fill:#FFD740;}
	.st3{fill:#40C4FF;}
	.st4{fill:#FFFFFF;}
	.st5{fill:#4DB6AC;}
	.st6{fill:#37474F;}
	.st7{fill:#4FC3F7;}
</style>
<g>
	<g>
		<path class="st0" d="M52.501,60.5h-41c-2.481,0-4.5-2.019-4.5-4.5V14.5c0-1.654,1.346-3,3-3h36c1.654,0,3,1.346,3,3V56
			c0,1.93,1.57,3.5,3.5,3.5c0.276,0,0.5,0.224,0.5,0.5S52.777,60.5,52.501,60.5z M10.001,12.5c-1.103,0-2,0.897-2,2V56
			c0,1.93,1.57,3.5,3.5,3.5h38.175c-1.021-0.825-1.675-2.088-1.675-3.5V14.5c0-1.103-0.897-2-2-2H10.001z"/>
	</g>
	<g>
		<path class="st0" d="M52.501,60.5c-0.276,0-0.5-0.224-0.5-0.5s0.224-0.5,0.5-0.5c1.93,0,3.5-1.57,3.5-3.5V42c0-1.103-0.897-2-2-2
			h-3.5c-0.276,0-0.5-0.224-0.5-0.5s0.224-0.5,0.5-0.5h3.5c1.654,0,3,1.346,3,3v14C57.001,58.481,54.982,60.5,52.501,60.5z"/>
	</g>
	<g>
		<path class="st0" d="M44.501,49.5h-33c-0.276,0-0.5-0.224-0.5-0.5s0.224-0.5,0.5-0.5h33c0.276,0,0.5,0.224,0.5,0.5
			S44.777,49.5,44.501,49.5z"/>
	</g>
	<g>
		<path class="st0" d="M44.501,54.5h-33c-0.276,0-0.5-0.224-0.5-0.5s0.224-0.5,0.5-0.5h33c0.276,0,0.5,0.224,0.5,0.5
			S44.777,54.5,44.501,54.5z"/>
	</g>
	<g>
		<path class="st0" d="M44.501,44.5h-33c-0.276,0-0.5-0.224-0.5-0.5s0.224-0.5,0.5-0.5h33c0.276,0,0.5,0.224,0.5,0.5
			S44.777,44.5,44.501,44.5z"/>
	</g>
	<g>
		<path class="st2" d="M12.501,22h31c0.552,0,1-0.448,1-1v-3c0-0.552-0.448-1-1-1h-31c-0.552,0-1,0.448-1,1v3
			C11.501,21.552,11.948,22,12.501,22z"/>
		<path class="st0" d="M43.501,22.5h-31c-0.827,0-1.5-0.673-1.5-1.5v-3c0-0.827,0.673-1.5,1.5-1.5h31c0.827,0,1.5,0.673,1.5,1.5v3
			C45.001,21.827,44.328,22.5,43.501,22.5z M12.501,17.5c-0.275,0-0.5,0.225-0.5,0.5v3c0,0.275,0.225,0.5,0.5,0.5h31
			c0.275,0,0.5-0.225,0.5-0.5v-3c0-0.275-0.225-0.5-0.5-0.5H12.501z"/>
	</g>
	<g>
		<path class="st3" d="M31.001,39h12.5c0.552,0,1-0.448,1-1V28c0-0.552-0.448-1-1-1h-12.5c-0.552,0-1,0.448-1,1v10
			C30.001,38.552,30.448,39,31.001,39z"/>
		<path class="st0" d="M43.501,39.5h-12.5c-0.827,0-1.5-0.673-1.5-1.5V28c0-0.827,0.673-1.5,1.5-1.5h12.5c0.827,0,1.5,0.673,1.5,1.5
			v10C45.001,38.827,44.328,39.5,43.501,39.5z M31.001,27.5c-0.275,0-0.5,0.225-0.5,0.5v10c0,0.275,0.225,0.5,0.5,0.5h12.5
			c0.275,0,0.5-0.225,0.5-0.5V28c0-0.275-0.225-0.5-0.5-0.5H31.001z"/>
	</g>
	<g>
		<path class="st0" d="M27.001,28.5h-15.5c-0.276,0-0.5-0.224-0.5-0.5s0.224-0.5,0.5-0.5h15.5c0.276,0,0.5,0.224,0.5,0.5
			S27.277,28.5,27.001,28.5z"/>
	</g>
	<g>
		<path class="st0" d="M27.001,33.5h-15.5c-0.276,0-0.5-0.224-0.5-0.5s0.224-0.5,0.5-0.5h15.5c0.276,0,0.5,0.224,0.5,0.5
			S27.277,33.5,27.001,33.5z"/>
	</g>
	<g>
		<path class="st0" d="M27.001,38.5h-15.5c-0.276,0-0.5-0.224-0.5-0.5s0.224-0.5,0.5-0.5h15.5c0.276,0,0.5,0.224,0.5,0.5
			S27.277,38.5,27.001,38.5z"/>
	</g>
	<g>
		<path class="st0" d="M51.001,6.5h-4c-0.276,0-0.5-0.224-0.5-0.5s0.224-0.5,0.5-0.5h4c0.276,0,0.5,0.224,0.5,0.5
			S51.277,6.5,51.001,6.5z"/>
	</g>
	<g>
		<path class="st0" d="M49.001,8.5c-0.276,0-0.5-0.224-0.5-0.5V4c0-0.276,0.224-0.5,0.5-0.5s0.5,0.224,0.5,0.5v4
			C49.501,8.276,49.277,8.5,49.001,8.5z"/>
	</g>
	<g>
		<path class="st0" d="M56.501,11h-4c-0.276,0-0.5-0.224-0.5-0.5s0.224-0.5,0.5-0.5h4c0.276,0,0.5,0.224,0.5,0.5
			S56.777,11,56.501,11z"/>
	</g>
	<g>
		<path class="st0" d="M54.501,13c-0.276,0-0.5-0.224-0.5-0.5v-4c0-0.276,0.224-0.5,0.5-0.5s0.5,0.224,0.5,0.5v4
			C55.001,12.776,54.777,13,54.501,13z"/>
	</g>
	<g>
		<path class="st0" d="M52.511,32c-0.276,0-0.5-0.224-0.5-0.5v-12c0-0.276,0.224-0.5,0.5-0.5s0.5,0.224,0.5,0.5v12
			C53.011,31.776,52.787,32,52.511,32z"/>
	</g>
	<g>
		<path class="st0" d="M52.511,35c-0.276,0-0.5-0.224-0.5-0.5v-1c0-0.276,0.224-0.5,0.5-0.5s0.5,0.224,0.5,0.5v1
			C53.011,34.776,52.787,35,52.511,35z"/>
	</g>
</g>
</svg>
