<?xml version="1.0" encoding="utf-8"?>
<!-- Generator: Adobe Illustrator 21.1.0, SVG Export Plug-In . SVG Version: 6.00 Build 0)  -->
<svg version="1.1" id="Icon_Set" xmlns="http://www.w3.org/2000/svg" xmlns:xlink="http://www.w3.org/1999/xlink" x="0px" y="0px"
	 viewBox="0 0 64 64" style="enable-background:new 0 0 64 64;" xml:space="preserve">
<style type="text/css">
	.st0{fill:#263238;}
	.st1{fill:#FF5252;}
	.st2{fill:#FFD740;}
	.st3{fill:#40C4FF;}
	.st4{fill:#FFFFFF;}
	.st5{fill:#4DB6AC;}
	.st6{fill:#37474F;}
	.st7{fill:#4FC3F7;}
</style>
<g>
	<g>
		<path class="st0" d="M32,32c-5.243,0-9.746-3.475-11.096-8.502c-0.614-0.02-1.202-0.229-1.707-0.61
			c-0.125-0.095-0.198-0.242-0.198-0.399v-3.977c0-0.157,0.073-0.305,0.198-0.399c0.505-0.381,1.093-0.591,1.707-0.61
			C22.254,12.475,26.757,9,32,9c5.242,0,9.745,3.475,11.095,8.502c0.613,0.02,1.201,0.229,1.706,0.609
			c0.125,0.095,0.198,0.242,0.198,0.399v3.979c0,0.157-0.073,0.305-0.198,0.399c-0.505,0.38-1.093,0.59-1.706,0.609
			C41.745,28.525,37.242,32,32,32z M21.222,22.48c0.239,0,0.501,0.149,0.554,0.378C22.878,27.652,27.082,31,32,31
			c4.917,0,9.121-3.348,10.224-8.142c0.057-0.249,0.282-0.421,0.548-0.384C42.9,22.492,42.949,22.5,43,22.5
			c0.351,0,0.692-0.095,0.999-0.276v-3.447c-0.352-0.208-0.755-0.316-1.148-0.262c-0.252,0.043-0.568-0.121-0.627-0.373
			C41.121,13.348,36.917,10,32,10c-4.918,0-9.122,3.348-10.225,8.142c-0.058,0.249-0.288,0.421-0.548,0.384
			C21.099,18.508,21.051,18.5,21,18.5c-0.352,0-0.693,0.096-1.001,0.277v3.445c0.353,0.208,0.761,0.316,1.148,0.263
			C21.172,22.481,21.196,22.48,21.222,22.48z"/>
	</g>
	<g>
		<path class="st0" d="M34.499,35h-2.5c-0.276,0-0.5-0.224-0.5-0.5s0.224-0.5,0.5-0.5h2.5c5.238,0,9.5-4.262,9.5-9.5
			c0-0.276,0.224-0.5,0.5-0.5s0.5,0.224,0.5,0.5C44.999,30.29,40.289,35,34.499,35z"/>
	</g>
	<g>
		<path class="st0" d="M13.999,57c-0.276,0-0.5-0.224-0.5-0.5V43.445c0-3.205,1.903-6.091,4.849-7.354l9.454-4.052
			c0.251-0.107,0.547,0.008,0.657,0.263c0.108,0.254-0.009,0.548-0.263,0.657l-9.454,4.052c-2.578,1.104-4.243,3.63-4.243,6.434
			V56.5C14.499,56.776,14.275,57,13.999,57z"/>
	</g>
	<g>
		<path class="st0" d="M49.999,57c-0.276,0-0.5-0.224-0.5-0.5V43.445c0-2.804-1.665-5.329-4.242-6.434l-4.506-1.931
			c-0.254-0.109-0.371-0.403-0.263-0.657c0.11-0.255,0.405-0.37,0.657-0.263l4.506,1.931c2.944,1.263,4.848,4.149,4.848,7.354V56.5
			C50.499,56.776,50.275,57,49.999,57z"/>
	</g>
	<g>
		<path class="st0" d="M31.999,39L31.999,39c-0.167,0-0.323-0.084-0.416-0.223l-4-6c-0.055-0.082-0.084-0.179-0.084-0.277v-1.761
			c0-0.165,0.082-0.32,0.219-0.413c0.136-0.094,0.312-0.111,0.464-0.053c2.457,0.965,5.178,0.965,7.635,0
			c0.152-0.059,0.327-0.041,0.464,0.053c0.137,0.093,0.219,0.248,0.219,0.413V32.5c0,0.276-0.224,0.5-0.5,0.5s-0.5-0.224-0.5-0.5
			v-1.052c-2.271,0.732-4.729,0.732-7,0v0.9l3.5,5.25l0.918-1.376c0.154-0.23,0.466-0.29,0.693-0.139
			c0.229,0.153,0.292,0.464,0.139,0.693l-1.334,2C32.322,38.916,32.166,39,31.999,39z"/>
	</g>
	<g>
		<path class="st0" d="M18.249,31.714h-9c-0.276,0-0.5-0.224-0.5-0.5s0.224-0.5,0.5-0.5h9c0.276,0,0.5,0.224,0.5,0.5
			S18.525,31.714,18.249,31.714z"/>
	</g>
	<g>
		<path class="st0" d="M7.249,31.714h-2c-0.276,0-0.5-0.224-0.5-0.5s0.224-0.5,0.5-0.5h2c0.276,0,0.5,0.224,0.5,0.5
			S7.525,31.714,7.249,31.714z"/>
	</g>
	<g>
		<path class="st0" d="M54.749,31.714h-9c-0.276,0-0.5-0.224-0.5-0.5s0.224-0.5,0.5-0.5h9c0.276,0,0.5,0.224,0.5,0.5
			S55.025,31.714,54.749,31.714z"/>
	</g>
	<g>
		<path class="st0" d="M58.749,31.714h-2c-0.276,0-0.5-0.224-0.5-0.5s0.224-0.5,0.5-0.5h2c0.276,0,0.5,0.224,0.5,0.5
			S59.025,31.714,58.749,31.714z"/>
	</g>
	<g>
		<path class="st0" d="M35.499,64c-0.276,0-0.5-0.224-0.5-0.5V59h-5v4.5c0,0.276-0.224,0.5-0.5,0.5s-0.5-0.224-0.5-0.5v-5
			c0-0.276,0.224-0.5,0.5-0.5h6c0.276,0,0.5,0.224,0.5,0.5v5C35.999,63.776,35.775,64,35.499,64z"/>
	</g>
	<g>
		<path class="st0" d="M43.999,62h-6.5c-0.276,0-0.5-0.224-0.5-0.5s0.224-0.5,0.5-0.5h6.5c1.103,0,2-0.897,2-2V44
			c0-1.103-0.897-2-2-2h-23c-1.103,0-2,0.897-2,2v15c0,1.103,0.897,2,2,2h6.5c0.276,0,0.5,0.224,0.5,0.5s-0.224,0.5-0.5,0.5h-6.5
			c-1.654,0-3-1.346-3-3V44c0-1.654,1.346-3,3-3h23c1.654,0,3,1.346,3,3v15C46.999,60.654,45.653,62,43.999,62z"/>
	</g>
	<g>
		<path class="st0" d="M32.546,54c-1.379,0-2.5-1.121-2.5-2.5s1.121-2.5,2.5-2.5s2.5,1.121,2.5,2.5S33.925,54,32.546,54z M32.546,50
			c-0.827,0-1.5,0.673-1.5,1.5s0.673,1.5,1.5,1.5s1.5-0.673,1.5-1.5S33.373,50,32.546,50z"/>
	</g>
	<g>
		<path class="st0" d="M43.499,50c-0.276,0-0.5-0.224-0.5-0.5v-4c0-0.275-0.225-0.5-0.5-0.5h-4c-0.276,0-0.5-0.224-0.5-0.5
			s0.224-0.5,0.5-0.5h4c0.827,0,1.5,0.673,1.5,1.5v4C43.999,49.776,43.775,50,43.499,50z"/>
	</g>
	<g>
		<path class="st0" d="M15.499,7.5h-4c-0.276,0-0.5-0.224-0.5-0.5s0.224-0.5,0.5-0.5h4c0.276,0,0.5,0.224,0.5,0.5
			S15.775,7.5,15.499,7.5z"/>
	</g>
	<g>
		<path class="st0" d="M13.499,9.5c-0.276,0-0.5-0.224-0.5-0.5V5c0-0.276,0.224-0.5,0.5-0.5s0.5,0.224,0.5,0.5v4
			C13.999,9.276,13.775,9.5,13.499,9.5z"/>
	</g>
	<g>
		<path class="st0" d="M11.499,12.5h-4c-0.276,0-0.5-0.224-0.5-0.5s0.224-0.5,0.5-0.5h4c0.276,0,0.5,0.224,0.5,0.5
			S11.775,12.5,11.499,12.5z"/>
	</g>
	<g>
		<path class="st0" d="M9.499,14.5c-0.276,0-0.5-0.224-0.5-0.5v-4c0-0.276,0.224-0.5,0.5-0.5s0.5,0.224,0.5,0.5v4
			C9.999,14.276,9.775,14.5,9.499,14.5z"/>
	</g>
	<g>
		<path class="st2" d="M22,19.5h-0.5V13h3v4C24.5,18.381,23.38,19.5,22,19.5z"/>
		<path class="st0" d="M22,20h-0.5c-0.276,0-0.5-0.224-0.5-0.5V13c0-0.276,0.224-0.5,0.5-0.5h3c0.276,0,0.5,0.224,0.5,0.5v4
			C25,18.654,23.654,20,22,20z M22,19h0.01H22z M22,13.5V19c1.103,0,2-0.897,2-2v-3.5H22z"/>
	</g>
	<g>
		<path class="st2" d="M39.5,12.95V17c0,1.381,1.119,2.5,2.5,2.5h0.5v-7.935C41.711,12.339,40.662,12.833,39.5,12.95z"/>
		<path class="st0" d="M42.5,20H42c-1.654,0-3-1.346-3-3v-4.051c0-0.257,0.194-0.472,0.45-0.497
			c1.029-0.104,1.988-0.546,2.699-1.244c0.145-0.142,0.359-0.183,0.544-0.104C42.879,11.182,43,11.363,43,11.564V19.5
			C43,19.776,42.776,20,42.5,20z M40,13.383V17c0,1.103,0.897,2,2,2v-6.402C41.398,12.983,40.718,13.252,40,13.383z"/>
	</g>
	<g>
		<path class="st0" d="M32,26c-1.47,0-2.851-0.572-3.89-1.611c-0.195-0.195-0.195-0.512,0-0.707s0.512-0.195,0.707,0
			C29.668,24.532,30.798,25,32,25s2.332-0.468,3.182-1.318c0.195-0.195,0.512-0.195,0.707,0s0.195,0.512,0,0.707
			C34.851,25.428,33.469,26,32,26z"/>
	</g>
	<g>
		<path class="st2" d="M39,13H21.5v0c0-4.142,3.358-7.5,7.5-7.5h5.205c2.171,0,4.315-0.471,6.286-1.381L44,2.5V8
			C44,10.761,41.761,13,39,13z"/>
		<path class="st0" d="M39,13.5H21.5c-0.276,0-0.5-0.224-0.5-0.5c0-4.411,3.589-8,8-8h5.205c2.085,0,4.186-0.462,6.076-1.335
			l3.509-1.619c0.155-0.07,0.336-0.06,0.479,0.033c0.144,0.092,0.23,0.25,0.23,0.421V8C44.5,11.032,42.032,13.5,39,13.5z
			 M22.018,12.5H39c2.481,0,4.5-2.019,4.5-4.5V3.281l-2.799,1.292C38.68,5.507,36.434,6,34.205,6H29
			C25.309,6,22.275,8.873,22.018,12.5z"/>
	</g>
	<g>
		<path class="st0" d="M44.499,17c-0.276,0-0.5-0.224-0.5-0.5v-3.073c0-0.34-0.014-0.676-0.041-1.008
			c-0.022-0.275,0.182-0.517,0.457-0.539c0.272-0.021,0.517,0.183,0.539,0.457c0.029,0.359,0.045,0.723,0.045,1.09V16.5
			C44.999,16.776,44.775,17,44.499,17z"/>
	</g>
	<g>
		<path class="st3" d="M44.499,16.5h1.5c1.381,0,2.5,1.119,2.5,2.5v3c0,1.381-1.119,2.5-2.5,2.5h-1.5V16.5z"/>
		<path class="st0" d="M45.999,25h-1.5c-0.276,0-0.5-0.224-0.5-0.5v-8c0-0.276,0.224-0.5,0.5-0.5h1.5c1.654,0,3,1.346,3,3v3
			C48.999,23.654,47.653,25,45.999,25z M44.999,24h1c1.103,0,2-0.897,2-2v-3c0-1.103-0.897-2-2-2h-1V24z"/>
	</g>
	<g>
		<path class="st3" d="M19.499,24.5h-1.5c-1.381,0-2.5-1.119-2.5-2.5v-3c0-1.381,1.119-2.5,2.5-2.5h1.5V24.5z"/>
		<path class="st0" d="M19.499,25h-1.5c-1.654,0-3-1.346-3-3v-3c0-1.654,1.346-3,3-3h1.5c0.276,0,0.5,0.224,0.5,0.5v8
			C19.999,24.776,19.775,25,19.499,25z M17.999,17c-1.103,0-2,0.897-2,2v3c0,1.103,0.897,2,2,2h1v-7H17.999z"/>
	</g>
	<g>
		<path class="st0" d="M44.499,17c-0.276,0-0.5-0.224-0.5-0.5V13c0-0.133-0.009-0.264-0.018-0.395l-0.014-0.222
			c-0.015-0.276,0.198-0.511,0.474-0.524c0.302-0.032,0.512,0.199,0.524,0.474l0.013,0.205c0.011,0.153,0.021,0.306,0.021,0.462v3.5
			C44.999,16.776,44.775,17,44.499,17z"/>
	</g>
	<g>
		<path class="st0" d="M19.499,17c-0.276,0-0.5-0.224-0.5-0.5V13c0-7.168,5.832-13,13-13c2.572,0,5.062,0.753,7.199,2.178
			c0.229,0.153,0.292,0.464,0.139,0.693c-0.154,0.23-0.465,0.291-0.693,0.139C36.671,1.695,34.373,1,31.999,1
			c-6.617,0-12,5.383-12,12v3.5C19.999,16.776,19.775,17,19.499,17z"/>
	</g>
</g>
</svg>
