<?xml version="1.0" encoding="utf-8"?>
<!-- Generator: Adobe Illustrator 21.1.0, SVG Export Plug-In . SVG Version: 6.00 Build 0)  -->
<svg version="1.1" id="Icon_Set" xmlns="http://www.w3.org/2000/svg" xmlns:xlink="http://www.w3.org/1999/xlink" x="0px" y="0px"
	 viewBox="0 0 64 64" style="enable-background:new 0 0 64 64;" xml:space="preserve">
<style type="text/css">
	.st0{fill:#263238;}
	.st1{fill:#FF5252;}
	.st2{fill:#FFD740;}
	.st3{fill:#40C4FF;}
	.st4{fill:#FFFFFF;}
	.st5{fill:#4DB6AC;}
	.st6{fill:#37474F;}
	.st7{fill:#4FC3F7;}
</style>
<g>
	<g>
		<path class="st0" d="M54,58.5H38c-0.276,0-0.5-0.224-0.5-0.5s0.224-0.5,0.5-0.5h16c0.276,0,0.5,0.224,0.5,0.5S54.276,58.5,54,58.5
			z"/>
	</g>
	<g>
		<path class="st0" d="M58,58.499h-2c-0.276,0-0.5-0.224-0.5-0.5s0.224-0.5,0.5-0.5h2c0.276,0,0.5,0.224,0.5,0.5
			S58.276,58.499,58,58.499z"/>
	</g>
	<g>
		<path class="st0" d="M57,18.07c-0.276,0-0.5-0.224-0.5-0.5V14.5c0-1.103-0.897-2-2-2H42c-0.276,0-0.5-0.224-0.5-0.5
			s0.224-0.5,0.5-0.5h12.5c1.654,0,3,1.346,3,3v3.07C57.5,17.847,57.276,18.07,57,18.07z"/>
	</g>
	<g>
		<path class="st3" d="M58,17h-1v29.5c0,1.381-1.119,2.5-2.5,2.5H36c-2.761,0-5,2.239-5,5v5c0-2.761,2.239-5,5-5h22
			c1.381,0,2.5-1.119,2.5-2.5v-32C60.5,18.119,59.381,17,58,17z"/>
		<path class="st0" d="M31,59.5c-0.276,0-0.5-0.224-0.5-0.5v-5c0-3.032,2.467-5.5,5.5-5.5h18.5c1.103,0,2-0.897,2-2V17
			c0-0.276,0.224-0.5,0.5-0.5h1c1.654,0,3,1.346,3,3v32c0,1.654-1.346,3-3,3H36c-2.481,0-4.5,2.019-4.5,4.5
			C31.5,59.276,31.276,59.5,31,59.5z M36,49.5c-2.481,0-4.5,2.019-4.5,4.5v1.841c0.996-1.415,2.642-2.341,4.5-2.341h22
			c1.103,0,2-0.897,2-2v-32c0-1.103-0.897-2-2-2h-0.5v29c0,1.654-1.346,3-3,3H36z"/>
	</g>
	<g>
		<path class="st3" d="M4,17h1v29.5C5,47.88,6.119,49,7.5,49H26c2.761,0,5,2.239,5,5v5c0-2.761-2.239-5-5-5H4
			c-1.381,0-2.5-1.119-2.5-2.5v-32C1.5,18.119,2.619,17,4,17z"/>
		<path class="st0" d="M31,59.5c-0.276,0-0.5-0.224-0.5-0.5c0-2.481-2.019-4.5-4.5-4.5H4c-1.654,0-3-1.346-3-3v-32
			c0-1.654,1.346-3,3-3h1c0.276,0,0.5,0.224,0.5,0.5v29.5c0,1.103,0.897,2,2,2H26c3.033,0,5.5,2.468,5.5,5.5v5
			C31.5,59.276,31.276,59.5,31,59.5z M4,17.5c-1.103,0-2,0.897-2,2v32c0,1.103,0.897,2,2,2h22c1.858,0,3.504,0.926,4.5,2.341V54
			c0-2.481-2.019-4.5-4.5-4.5H7.5c-1.654,0-3-1.346-3-3v-29H4z"/>
	</g>
	<g>
		<path class="st0" d="M31,54.5c-0.276,0-0.5-0.224-0.5-0.5V17c0-0.276,0.224-0.5,0.5-0.5s0.5,0.224,0.5,0.5v37
			C31.5,54.276,31.276,54.5,31,54.5z"/>
	</g>
	<g>
		<path class="st0" d="M25,34.5H11c-0.276,0-0.5-0.224-0.5-0.5s0.224-0.5,0.5-0.5h14c0.276,0,0.5,0.224,0.5,0.5S25.276,34.5,25,34.5
			z"/>
	</g>
	<g>
		<path class="st0" d="M25,38.5H11c-0.276,0-0.5-0.224-0.5-0.5s0.224-0.5,0.5-0.5h14c0.276,0,0.5,0.224,0.5,0.5S25.276,38.5,25,38.5
			z"/>
	</g>
	<g>
		<path class="st0" d="M51,30.5H37c-0.276,0-0.5-0.224-0.5-0.5s0.224-0.5,0.5-0.5h14c0.276,0,0.5,0.224,0.5,0.5S51.276,30.5,51,30.5
			z"/>
	</g>
	<g>
		<path class="st0" d="M51,34.5H37c-0.276,0-0.5-0.224-0.5-0.5s0.224-0.5,0.5-0.5h14c0.276,0,0.5,0.224,0.5,0.5S51.276,34.5,51,34.5
			z"/>
	</g>
	<g>
		<path class="st0" d="M51,22.5H37c-0.276,0-0.5-0.224-0.5-0.5s0.224-0.5,0.5-0.5h14c0.276,0,0.5,0.224,0.5,0.5S51.276,22.5,51,22.5
			z"/>
	</g>
	<g>
		<path class="st0" d="M51,26.5H37c-0.276,0-0.5-0.224-0.5-0.5s0.224-0.5,0.5-0.5h14c0.276,0,0.5,0.224,0.5,0.5S51.276,26.5,51,26.5
			z"/>
	</g>
	<g>
		<path class="st0" d="M51,38.5H37c-0.276,0-0.5-0.224-0.5-0.5s0.224-0.5,0.5-0.5h14c0.276,0,0.5,0.224,0.5,0.5S51.276,38.5,51,38.5
			z"/>
	</g>
	<g>
		<path class="st0" d="M57,18.07c-0.276,0-0.5-0.224-0.5-0.5V14.5c0-1.103-0.897-2-2-2H36c-2.481,0-4.5,2.019-4.5,4.5
			c0,0.276-0.224,0.5-0.5,0.5s-0.5-0.224-0.5-0.5c0-2.481-2.019-4.5-4.5-4.5H7.5c-1.103,0-2,0.897-2,2v3.07
			c0,0.276-0.224,0.5-0.5,0.5s-0.5-0.224-0.5-0.5V14.5c0-1.654,1.346-3,3-3H26c2.216,0,4.129,1.317,5,3.209
			c0.871-1.892,2.784-3.209,5-3.209h18.5c1.654,0,3,1.346,3,3v3.07C57.5,17.847,57.276,18.07,57,18.07z"/>
	</g>
	<g>
		<path class="st0" d="M57,7.5h-4c-0.276,0-0.5-0.224-0.5-0.5s0.224-0.5,0.5-0.5h4c0.276,0,0.5,0.224,0.5,0.5S57.276,7.5,57,7.5z"/>
	</g>
	<g>
		<path class="st0" d="M55,9.5c-0.276,0-0.5-0.224-0.5-0.5V5c0-0.276,0.224-0.5,0.5-0.5s0.5,0.224,0.5,0.5v4
			C55.5,9.276,55.276,9.5,55,9.5z"/>
	</g>
	<g>
		<path class="st0" d="M62.5,12h-4c-0.276,0-0.5-0.224-0.5-0.5s0.224-0.5,0.5-0.5h4c0.276,0,0.5,0.224,0.5,0.5S62.776,12,62.5,12z"
			/>
	</g>
	<g>
		<path class="st0" d="M60.5,14c-0.276,0-0.5-0.224-0.5-0.5v-4C60,9.224,60.224,9,60.5,9S61,9.224,61,9.5v4
			C61,13.776,60.776,14,60.5,14z"/>
	</g>
	<g>
		<path class="st0" d="M24,8.5H8C7.724,8.5,7.5,8.276,7.5,8S7.724,7.5,8,7.5h16c0.276,0,0.5,0.224,0.5,0.5S24.276,8.5,24,8.5z"/>
	</g>
	<g>
		<path class="st0" d="M6,8.5H4C3.724,8.5,3.5,8.276,3.5,8S3.724,7.5,4,7.5h2c0.276,0,0.5,0.224,0.5,0.5S6.276,8.5,6,8.5z"/>
	</g>
	<g>
		<rect x="11" y="22" class="st2" width="14" height="8"/>
		<path class="st0" d="M25,30.5H11c-0.276,0-0.5-0.224-0.5-0.5v-8c0-0.276,0.224-0.5,0.5-0.5h14c0.276,0,0.5,0.224,0.5,0.5v8
			C25.5,30.276,25.276,30.5,25,30.5z M11.5,29.5h13v-7h-13V29.5z"/>
	</g>
</g>
</svg>
