<?xml version="1.0" encoding="utf-8"?>
<!-- Generator: Adobe Illustrator 21.1.0, SVG Export Plug-In . SVG Version: 6.00 Build 0)  -->
<svg version="1.1" id="Icon_Set" xmlns="http://www.w3.org/2000/svg" xmlns:xlink="http://www.w3.org/1999/xlink" x="0px" y="0px"
	 viewBox="0 0 64 64" style="enable-background:new 0 0 64 64;" xml:space="preserve">
<style type="text/css">
	.st0{fill:#263238;}
	.st1{fill:#FF5252;}
	.st2{fill:#FFD740;}
	.st3{fill:#40C4FF;}
	.st4{fill:#FFFFFF;}
	.st5{fill:#4DB6AC;}
	.st6{fill:#37474F;}
	.st7{fill:#4FC3F7;}
</style>
<g>
	<g>
		<circle class="st2" cx="17" cy="20" r="15"/>
	</g>
	<g>
		<path class="st0" d="M24.778,17.722c-0.128,0-0.256-0.049-0.354-0.146c-4.094-4.094-10.756-4.094-14.85,0
			c-0.195,0.195-0.512,0.195-0.707,0s-0.195-0.512,0-0.707c4.484-4.483,11.779-4.483,16.264,0c0.195,0.195,0.195,0.512,0,0.707
			C25.034,17.673,24.906,17.722,24.778,17.722z"/>
	</g>
	<g>
		<path class="st0" d="M21.95,20.55c-0.128,0-0.256-0.049-0.354-0.146c-2.535-2.534-6.658-2.534-9.193,0
			c-0.195,0.195-0.512,0.195-0.707,0s-0.195-0.512,0-0.707c2.924-2.924,7.684-2.924,10.607,0c0.195,0.195,0.195,0.512,0,0.707
			C22.206,20.501,22.078,20.55,21.95,20.55z"/>
	</g>
	<g>
		<path class="st0" d="M19.121,23.379c-0.128,0-0.256-0.049-0.354-0.146c-0.943-0.944-2.592-0.944-3.535,0
			c-0.195,0.195-0.512,0.195-0.707,0c-0.195-0.195-0.195-0.512,0-0.707c1.32-1.322,3.629-1.322,4.949,0
			c0.195,0.195,0.195,0.512,0,0.707C19.377,23.33,19.249,23.379,19.121,23.379z"/>
	</g>
	<g>
		<path class="st0" d="M24.937,57.084c-0.802,0-1.555-0.312-2.121-0.879L10.794,44.185c-1.169-1.17-1.169-3.073,0-4.243
			l24.749-24.749c1.134-1.135,3.11-1.133,4.242,0l12.021,12.021c1.169,1.17,1.169,3.073,0,4.243l0,0L27.058,56.206
			C26.491,56.772,25.737,57.084,24.937,57.084z M37.664,15.315c-0.534,0-1.036,0.208-1.414,0.586L11.501,40.649
			c-0.779,0.78-0.779,2.049,0,2.829l12.021,12.021c0.756,0.756,2.072,0.756,2.828,0L51.1,30.75c0.779-0.78,0.779-2.049,0-2.829
			L39.078,15.901C38.7,15.523,38.198,15.315,37.664,15.315z M51.453,31.104h0.01H51.453z"/>
	</g>
	<g>
		<path class="st0" d="M24.937,57.084c-0.802,0-1.555-0.312-2.121-0.879L10.794,44.185c-1.169-1.17-1.169-3.073,0-4.243
			l24.749-24.749c1.134-1.135,3.11-1.133,4.242,0l12.021,12.021c1.169,1.17,1.169,3.073,0,4.243l0,0L27.058,56.206
			C26.491,56.772,25.737,57.084,24.937,57.084z M37.664,15.315c-0.534,0-1.036,0.208-1.414,0.586L11.501,40.649
			c-0.779,0.78-0.779,2.049,0,2.829l12.021,12.021c0.756,0.756,2.072,0.756,2.828,0L51.1,30.75c0.779-0.78,0.779-2.049,0-2.829
			L39.078,15.901C38.7,15.523,38.198,15.315,37.664,15.315z M51.453,31.104h0.01H51.453z"/>
	</g>
	<g>
		<path class="st0" d="M52.514,26.3c-0.128,0-0.256-0.049-0.354-0.146c-0.195-0.195-0.195-0.512,0-0.707l6.363-6.364
			c0.195-0.195,0.195-0.512,0-0.708l-9.899-9.899c-0.195-0.195-0.512-0.195-0.707,0l-6.363,6.364c-0.195,0.195-0.512,0.195-0.707,0
			s-0.195-0.512,0-0.707l6.363-6.364c0.584-0.585,1.537-0.585,2.121,0l9.899,9.899c0.585,0.585,0.585,1.537,0,2.122l-6.363,6.364
			C52.77,26.251,52.642,26.3,52.514,26.3z"/>
	</g>
	<g>
		<path class="st0" d="M46.857,17.108c-0.128,0-0.256-0.049-0.354-0.146c-0.195-0.195-0.195-0.512,0-0.707l2.121-2.122
			c0.195-0.195,0.512-0.195,0.707,0s0.195,0.512,0,0.707l-2.121,2.122C47.113,17.06,46.985,17.108,46.857,17.108z"/>
	</g>
	<g>
		<path class="st0" d="M50.393,20.644c-0.128,0-0.256-0.049-0.354-0.146c-0.195-0.195-0.195-0.512,0-0.707l2.121-2.121
			c0.195-0.195,0.512-0.195,0.707,0c0.195,0.195,0.195,0.512,0,0.707l-2.121,2.121C50.648,20.595,50.521,20.644,50.393,20.644z"/>
	</g>
	<g>
		<path class="st0" d="M62,32.5h-4c-0.276,0-0.5-0.224-0.5-0.5s0.224-0.5,0.5-0.5h4c0.276,0,0.5,0.224,0.5,0.5S62.276,32.5,62,32.5z
			"/>
	</g>
	<g>
		<path class="st0" d="M60,34.5c-0.276,0-0.5-0.224-0.5-0.5v-4c0-0.276,0.224-0.5,0.5-0.5s0.5,0.224,0.5,0.5v4
			C60.5,34.276,60.276,34.5,60,34.5z"/>
	</g>
	<g>
		<path class="st0" d="M56.5,38h-4c-0.276,0-0.5-0.224-0.5-0.5s0.224-0.5,0.5-0.5h4c0.276,0,0.5,0.224,0.5,0.5S56.776,38,56.5,38z"
			/>
	</g>
	<g>
		<path class="st0" d="M54.5,40c-0.276,0-0.5-0.224-0.5-0.5v-4c0-0.276,0.224-0.5,0.5-0.5s0.5,0.224,0.5,0.5v4
			C55,39.776,54.776,40,54.5,40z"/>
	</g>
	<g>
		<path class="st0" d="M55,59.5h-1c-0.276,0-0.5-0.224-0.5-0.5s0.224-0.5,0.5-0.5h1c0.276,0,0.5,0.224,0.5,0.5S55.276,59.5,55,59.5z
			"/>
	</g>
	<g>
		<path class="st0" d="M52,59.5H37c-0.276,0-0.5-0.224-0.5-0.5s0.224-0.5,0.5-0.5h15c0.276,0,0.5,0.224,0.5,0.5S52.276,59.5,52,59.5
			z"/>
	</g>
	<g>
		<path class="st0" d="M45,56.5h-1c-0.276,0-0.5-0.224-0.5-0.5s0.224-0.5,0.5-0.5h1c0.276,0,0.5,0.224,0.5,0.5S45.276,56.5,45,56.5z
			"/>
	</g>
	<g>
		<path class="st0" d="M62,56.5H47c-0.276,0-0.5-0.224-0.5-0.5s0.224-0.5,0.5-0.5h15c0.276,0,0.5,0.224,0.5,0.5S62.276,56.5,62,56.5
			z"/>
	</g>
	<g>
		<path class="st1" d="M37.664,32.871l-9.192,9.192c-0.976,0.976-2.559,0.976-3.536,0l0,0c-0.976-0.976-0.976-2.559,0-3.536
			l9.192-9.192c0.976-0.976,2.559-0.976,3.536,0l0,0C38.641,30.312,38.641,31.895,37.664,32.871z"/>
		<path class="st0" d="M26.704,43.294c-0.769,0-1.536-0.292-2.121-0.877c-0.566-0.566-0.879-1.32-0.879-2.121
			s0.312-1.555,0.879-2.121l9.192-9.192c1.17-1.17,3.072-1.17,4.242,0c0.566,0.566,0.879,1.32,0.879,2.121s-0.312,1.555-0.879,2.121
			l-9.192,9.192C28.24,43.002,27.473,43.294,26.704,43.294z M35.896,29.104c-0.512,0-1.024,0.195-1.414,0.585l-9.192,9.192
			c-0.378,0.378-0.586,0.88-0.586,1.414s0.208,1.036,0.586,1.414c0.779,0.779,2.049,0.779,2.828,0l9.192-9.192l0,0
			c0.378-0.378,0.586-0.88,0.586-1.414s-0.208-1.036-0.586-1.414C36.921,29.3,36.408,29.104,35.896,29.104z"/>
	</g>
	<g>
		<path class="st0" d="M35.896,35.139c-0.128,0-0.256-0.049-0.354-0.146l-3.535-3.536c-0.195-0.195-0.195-0.512,0-0.707
			c0.195-0.195,0.512-0.195,0.707,0l3.535,3.536c0.195,0.195,0.195,0.512,0,0.707C36.152,35.09,36.024,35.139,35.896,35.139z"/>
	</g>
	<g>
		<path class="st0" d="M45.442,33.371c-0.128,0-0.256-0.049-0.354-0.146c-0.195-0.195-0.195-0.512,0-0.707l2.828-2.828
			c0.095-0.095,0.146-0.22,0.146-0.354c0-0.134-0.052-0.259-0.146-0.353l-2.828-2.829c-0.195-0.195-0.195-0.512,0-0.707
			s0.512-0.195,0.707,0l2.828,2.829c0.283,0.283,0.439,0.66,0.439,1.061c0,0.4-0.156,0.777-0.439,1.061l-2.828,2.828
			C45.698,33.322,45.57,33.371,45.442,33.371z"/>
	</g>
</g>
</svg>
