<?xml version="1.0" encoding="utf-8"?>
<!-- Generator: Adobe Illustrator 21.1.0, SVG Export Plug-In . SVG Version: 6.00 Build 0)  -->
<svg version="1.1" id="Icon_Set" xmlns="http://www.w3.org/2000/svg" xmlns:xlink="http://www.w3.org/1999/xlink" x="0px" y="0px"
	 viewBox="0 0 64 64" style="enable-background:new 0 0 64 64;" xml:space="preserve">
<style type="text/css">
	.st0{fill:#263238;}
	.st1{fill:#FF5252;}
	.st2{fill:#FFD740;}
	.st3{fill:#40C4FF;}
	.st4{fill:#FFFFFF;}
	.st5{fill:#4DB6AC;}
	.st6{fill:#37474F;}
	.st7{fill:#4FC3F7;}
</style>
<g>
	<g>
		<path class="st0" d="M19,8.5h-4c-0.276,0-0.5-0.224-0.5-0.5s0.224-0.5,0.5-0.5h4c0.276,0,0.5,0.224,0.5,0.5S19.276,8.5,19,8.5z"/>
	</g>
	<g>
		<path class="st0" d="M17,10.5c-0.276,0-0.5-0.224-0.5-0.5V6c0-0.276,0.224-0.5,0.5-0.5s0.5,0.224,0.5,0.5v4
			C17.5,10.276,17.276,10.5,17,10.5z"/>
	</g>
	<g>
		<path class="st0" d="M13.5,13h-4C9.224,13,9,12.776,9,12.5S9.224,12,9.5,12h4c0.276,0,0.5,0.224,0.5,0.5S13.776,13,13.5,13z"/>
	</g>
	<g>
		<path class="st0" d="M11.5,15c-0.276,0-0.5-0.224-0.5-0.5v-4c0-0.276,0.224-0.5,0.5-0.5s0.5,0.224,0.5,0.5v4
			C12,14.776,11.776,15,11.5,15z"/>
	</g>
	<g>
		<path class="st0" d="M29.5,58.5h-16c-0.276,0-0.5-0.224-0.5-0.5s0.224-0.5,0.5-0.5h16c0.276,0,0.5,0.224,0.5,0.5
			S29.776,58.5,29.5,58.5z"/>
	</g>
	<g>
		<path class="st0" d="M11.5,58.5h-2C9.224,58.5,9,58.276,9,58s0.224-0.5,0.5-0.5h2c0.276,0,0.5,0.224,0.5,0.5
			S11.776,58.5,11.5,58.5z"/>
	</g>
	<g>
		<path class="st0" d="M50.5,11h-16c-0.276,0-0.5-0.224-0.5-0.5s0.224-0.5,0.5-0.5h16c0.276,0,0.5,0.224,0.5,0.5S50.776,11,50.5,11z
			"/>
	</g>
	<g>
		<path class="st0" d="M54.5,11h-2c-0.276,0-0.5-0.224-0.5-0.5s0.224-0.5,0.5-0.5h2c0.276,0,0.5,0.224,0.5,0.5S54.776,11,54.5,11z"
			/>
	</g>
	<g>
		<path class="st2" d="M49,14.5H30c-1.381,0-2.5,1.119-2.5,2.5v12.5c0,1.381,1.119,2.5,2.5,2.5h3v3.443
			c0,0.834,0.962,1.302,1.618,0.786L40,32h9c1.381,0,2.5-1.119,2.5-2.5V17C51.5,15.619,50.381,14.5,49,14.5z"/>
		<path class="st0" d="M34.003,36.944c-0.224,0-0.448-0.05-0.658-0.153c-0.521-0.253-0.845-0.77-0.845-1.349V32.5H30
			c-1.654,0-3-1.346-3-3V17c0-1.654,1.346-3,3-3h19c1.654,0,3,1.346,3,3v12.5c0,1.654-1.346,3-3,3h-8.827l-5.246,4.122
			C34.656,36.835,34.331,36.944,34.003,36.944z M30,15c-1.103,0-2,0.897-2,2v12.5c0,1.103,0.897,2,2,2h3c0.276,0,0.5,0.224,0.5,0.5
			v3.442c0,0.196,0.105,0.364,0.281,0.45c0.179,0.085,0.374,0.065,0.528-0.057l5.382-4.229C39.779,31.538,39.888,31.5,40,31.5h9
			c1.103,0,2-0.897,2-2V17c0-1.103-0.897-2-2-2H30z"/>
	</g>
	<g>
		<path class="st0" d="M33.5,25c-1.103,0-2-0.897-2-2s0.897-2,2-2s2,0.897,2,2S34.603,25,33.5,25z M33.5,22c-0.552,0-1,0.449-1,1
			s0.448,1,1,1s1-0.449,1-1S34.052,22,33.5,22z"/>
	</g>
	<g>
		<path class="st0" d="M39.5,25c-1.103,0-2-0.897-2-2s0.897-2,2-2s2,0.897,2,2S40.603,25,39.5,25z M39.5,22c-0.552,0-1,0.449-1,1
			s0.448,1,1,1s1-0.449,1-1S40.052,22,39.5,22z"/>
	</g>
	<g>
		<path class="st0" d="M45.5,25c-1.103,0-2-0.897-2-2s0.897-2,2-2s2,0.897,2,2S46.603,25,45.5,25z M45.5,22c-0.552,0-1,0.449-1,1
			s0.448,1,1,1s1-0.449,1-1S46.052,22,45.5,22z"/>
	</g>
	<g>
		<path class="st3" d="M30.762,44.152l-2.038,3.184c-6.203-1.712-11.061-6.658-12.651-12.911l3.128-1.714
			c0.801-0.439,1.299-1.279,1.299-2.192V26.5c0-1.381-1.119-2.5-2.5-2.5h-3.5c-2.761,0-5,2.239-5,5v1c0,13.255,10.745,24,24,24h0h0
			H34.5c2.761,0,5-2.239,5-5v-3.5c0-1.381-1.119-2.5-2.5-2.5h-4.132C32.016,43,31.222,43.434,30.762,44.152z"/>
		<path class="st0" d="M34.5,54.5h-0.999C19.991,54.5,9,43.509,9,30v-1c0-3.033,2.468-5.5,5.5-5.5H18c1.654,0,3,1.346,3,3v4.019
			c0,1.096-0.597,2.104-1.558,2.631l-2.785,1.525c1.607,5.781,6.099,10.36,11.848,12.077l1.837-2.87
			c0.554-0.866,1.498-1.383,2.526-1.383H37c1.654,0,3,1.346,3,3V49C40,52.033,37.532,54.5,34.5,54.5z M14.5,24.5
			c-2.481,0-4.5,2.019-4.5,4.5v1c0,12.958,10.542,23.5,23.5,23.5h1c2.481,0,4.5-2.019,4.5-4.5v-3.5c0-1.103-0.897-2-2-2h-4.132
			c-0.686,0-1.315,0.345-1.685,0.922l0,0l-2.038,3.184c-0.119,0.185-0.345,0.271-0.554,0.212c-6.388-1.762-11.37-6.847-13.003-13.27
			c-0.057-0.221,0.044-0.452,0.244-0.562l3.129-1.714C19.603,31.922,20,31.25,20,30.519V26.5c0-1.103-0.897-2-2-2H14.5z
			 M30.763,44.152h0.01H30.763z"/>
	</g>
</g>
</svg>
