<?xml version="1.0" encoding="utf-8"?>
<!-- Generator: Adobe Illustrator 21.1.0, SVG Export Plug-In . SVG Version: 6.00 Build 0)  -->
<svg version="1.1" id="Icon_Set" xmlns="http://www.w3.org/2000/svg" xmlns:xlink="http://www.w3.org/1999/xlink" x="0px" y="0px"
	 viewBox="0 0 64 64" style="enable-background:new 0 0 64 64;" xml:space="preserve">
<style type="text/css">
	.st0{fill:#263238;}
	.st1{fill:#FF5252;}
	.st2{fill:#FFD740;}
	.st3{fill:#40C4FF;}
	.st4{fill:#FFFFFF;}
	.st5{fill:#4DB6AC;}
	.st6{fill:#37474F;}
	.st7{fill:#4FC3F7;}
</style>
<g>
	<g>
		<path class="st0" d="M53.25,54.5h-43c-1.654,0-3-1.346-3-3v-29c0-1.654,1.346-3,3-3h43c1.654,0,3,1.346,3,3v29
			C56.25,53.155,54.904,54.5,53.25,54.5z M10.25,20.5c-1.103,0-2,0.897-2,2v29c0,1.103,0.897,2,2,2h43c1.103,0,2-0.897,2-2v-29
			c0-1.103-0.897-2-2-2H10.25z"/>
	</g>
	<g>
		<path class="st0" d="M17.75,20.5h-6c-0.276,0-0.5-0.224-0.5-0.5v-2c0-0.827,0.673-1.5,1.5-1.5h4c0.827,0,1.5,0.673,1.5,1.5v2
			C18.25,20.277,18.026,20.5,17.75,20.5z M12.25,19.5h5V18c0-0.276-0.224-0.5-0.5-0.5h-4c-0.276,0-0.5,0.224-0.5,0.5V19.5z"/>
	</g>
	<g>
		<path class="st0" d="M15.25,8.5h-4c-0.276,0-0.5-0.224-0.5-0.5s0.224-0.5,0.5-0.5h4c0.276,0,0.5,0.224,0.5,0.5
			S15.526,8.5,15.25,8.5z"/>
	</g>
	<g>
		<path class="st0" d="M13.25,10.5c-0.276,0-0.5-0.224-0.5-0.5V6c0-0.276,0.224-0.5,0.5-0.5s0.5,0.224,0.5,0.5v4
			C13.75,10.277,13.526,10.5,13.25,10.5z"/>
	</g>
	<g>
		<path class="st0" d="M9.75,13h-4c-0.276,0-0.5-0.224-0.5-0.5S5.474,12,5.75,12h4c0.276,0,0.5,0.224,0.5,0.5S10.026,13,9.75,13z"/>
	</g>
	<g>
		<path class="st0" d="M7.75,15c-0.276,0-0.5-0.224-0.5-0.5v-4c0-0.276,0.224-0.5,0.5-0.5s0.5,0.224,0.5,0.5v4
			C8.25,14.777,8.026,15,7.75,15z"/>
	</g>
	<g>
		<path class="st0" d="M54.25,58.5h-19c-0.276,0-0.5-0.224-0.5-0.5s0.224-0.5,0.5-0.5h19c0.276,0,0.5,0.224,0.5,0.5
			S54.526,58.5,54.25,58.5z"/>
	</g>
	<g>
		<path class="st0" d="M58.25,58.5h-2c-0.276,0-0.5-0.224-0.5-0.5s0.224-0.5,0.5-0.5h2c0.276,0,0.5,0.224,0.5,0.5
			S58.526,58.5,58.25,58.5z"/>
	</g>
	<g>
		<circle class="st2" cx="21.75" cy="37.324" r="10"/>
		<path class="st0" d="M21.75,47.824c-5.79,0-10.5-4.71-10.5-10.5s4.71-10.5,10.5-10.5s10.5,4.71,10.5,10.5
			S27.54,47.824,21.75,47.824z M21.75,27.824c-5.238,0-9.5,4.262-9.5,9.5s4.262,9.5,9.5,9.5s9.5-4.262,9.5-9.5
			S26.988,27.824,21.75,27.824z"/>
	</g>
	<g>
		<circle class="st2" cx="21.75" cy="37.324" r="7"/>
		<path class="st0" d="M21.75,44.824c-4.136,0-7.5-3.364-7.5-7.5s3.364-7.5,7.5-7.5s7.5,3.364,7.5,7.5S25.886,44.824,21.75,44.824z
			 M21.75,30.824c-3.584,0-6.5,2.916-6.5,6.5s2.916,6.5,6.5,6.5s6.5-2.916,6.5-6.5S25.334,30.824,21.75,30.824z"/>
	</g>
	<g>
		<rect x="36.75" y="28.324" class="st3" width="14" height="9"/>
		<path class="st0" d="M50.75,37.824h-14c-0.276,0-0.5-0.224-0.5-0.5v-9c0-0.276,0.224-0.5,0.5-0.5h14c0.276,0,0.5,0.224,0.5,0.5v9
			C51.25,37.6,51.026,37.824,50.75,37.824z M37.25,36.824h13v-8h-13V36.824z"/>
	</g>
	<g>
		<path class="st0" d="M17.75,19.596c-0.108,0-0.215-0.035-0.303-0.103c-0.124-0.095-0.197-0.242-0.197-0.397V18
			c0-0.276-0.224-0.5-0.5-0.5h-2.705c-0.25,0-0.462-0.185-0.496-0.433c-0.033-0.249,0.122-0.483,0.363-0.549l36.308-9.947
			c1.07-0.287,2.167,0.339,2.457,1.4l0,0c0.142,0.515,0.074,1.055-0.19,1.519s-0.694,0.798-1.209,0.939l-33.396,9.149
			C17.838,19.59,17.794,19.596,17.75,19.596z M17.333,16.618C17.871,16.846,18.25,17.38,18.25,18v0.44l32.764-8.977
			c0.258-0.07,0.473-0.237,0.605-0.469c0.132-0.232,0.166-0.501,0.095-0.759c0,0,0,0,0,0c-0.145-0.53-0.695-0.845-1.229-0.7
			L17.333,16.618z"/>
	</g>
	<g>
		<path class="st0" d="M21.75,42.824c-0.276,0-0.5-0.224-0.5-0.5v-10c0-0.276,0.224-0.5,0.5-0.5s0.5,0.224,0.5,0.5v10
			C22.25,42.6,22.026,42.824,21.75,42.824z"/>
	</g>
	<g>
		<path class="st0" d="M25.25,40.824c-0.276,0-0.5-0.224-0.5-0.5v-6c0-0.276,0.224-0.5,0.5-0.5s0.5,0.224,0.5,0.5v6
			C25.75,40.6,25.526,40.824,25.25,40.824z"/>
	</g>
	<g>
		<path class="st0" d="M18.25,40.824c-0.276,0-0.5-0.224-0.5-0.5v-6c0-0.276,0.224-0.5,0.5-0.5s0.5,0.224,0.5,0.5v6
			C18.75,40.6,18.526,40.824,18.25,40.824z"/>
	</g>
	<g>
		<path class="st0" d="M39.375,47.824c-1.654,0-3-1.346-3-3s1.346-3,3-3s3,1.346,3,3S41.029,47.824,39.375,47.824z M39.375,42.824
			c-1.103,0-2,0.897-2,2s0.897,2,2,2s2-0.897,2-2S40.478,42.824,39.375,42.824z"/>
	</g>
	<g>
		<path class="st0" d="M48.125,47.824c-1.654,0-3-1.346-3-3s1.346-3,3-3s3,1.346,3,3S49.779,47.824,48.125,47.824z M48.125,42.824
			c-1.103,0-2,0.897-2,2s0.897,2,2,2s2-0.897,2-2S49.228,42.824,48.125,42.824z"/>
	</g>
	<g>
		<path class="st0" d="M40.75,37.824c-0.276,0-0.5-0.224-0.5-0.5v-4.5c0-0.276,0.224-0.5,0.5-0.5s0.5,0.224,0.5,0.5v4.5
			C41.25,37.6,41.026,37.824,40.75,37.824z"/>
	</g>
	<g>
		<path class="st0" d="M50.75,35.824h-14c-0.276,0-0.5-0.224-0.5-0.5s0.224-0.5,0.5-0.5h14c0.276,0,0.5,0.224,0.5,0.5
			S51.026,35.824,50.75,35.824z"/>
	</g>
	<g>
		<path class="st0" d="M55.75,23.5h-48c-0.276,0-0.5-0.224-0.5-0.5s0.224-0.5,0.5-0.5h48c0.276,0,0.5,0.224,0.5,0.5
			S56.026,23.5,55.75,23.5z"/>
	</g>
	<g>
		<path class="st0" d="M55.75,51.5h-48c-0.276,0-0.5-0.224-0.5-0.5s0.224-0.5,0.5-0.5h48c0.276,0,0.5,0.224,0.5,0.5
			S56.026,51.5,55.75,51.5z"/>
	</g>
</g>
</svg>
