<?xml version="1.0" encoding="utf-8"?>
<!-- Generator: Adobe Illustrator 21.1.0, SVG Export Plug-In . SVG Version: 6.00 Build 0)  -->
<svg version="1.1" id="Icon_Set" xmlns="http://www.w3.org/2000/svg" xmlns:xlink="http://www.w3.org/1999/xlink" x="0px" y="0px"
	 viewBox="0 0 64 64" style="enable-background:new 0 0 64 64;" xml:space="preserve">
<style type="text/css">
	.st0{fill:#263238;}
	.st1{fill:#FF5252;}
	.st2{fill:#FFD740;}
	.st3{fill:#40C4FF;}
	.st4{fill:#FFFFFF;}
	.st5{fill:#4DB6AC;}
	.st6{fill:#37474F;}
	.st7{fill:#4FC3F7;}
</style>
<g>
	<g>
		<path class="st3" d="M38.75,60.3c-1.654,0-3-1.346-3-3v-6c0-1.654,1.346-3,3-3H41c0.491-1.174,1.65-2,3-2
			c0.444,0,0.864,0.097,1.25,0.259l0-5.058l-13.5,3l-13.5-3l0,5.058c0.386-0.162,0.806-0.259,1.25-0.259c1.35,0,2.509,0.826,3,2
			h2.25c1.654,0,3,1.346,3,3v6c0,1.654-1.346,3-3,3h-6.5v0.2l13.5,3l13.5-3v-0.2H38.75z"/>
	</g>
	<g>
		<path class="st0" d="M45.25,47.059c-0.276,0-0.5-0.224-0.5-0.5v-4.436l-12.892,2.865c-0.072,0.016-0.145,0.016-0.217,0
			L18.75,42.123v4.436c0,0.276-0.224,0.5-0.5,0.5s-0.5-0.224-0.5-0.5V41.5c0-0.151,0.068-0.295,0.187-0.39
			c0.117-0.096,0.271-0.132,0.421-0.099l13.392,2.977l13.392-2.977c0.15-0.031,0.304,0.004,0.421,0.099
			c0.119,0.095,0.188,0.238,0.188,0.39v5.059C45.75,46.835,45.526,47.059,45.25,47.059z"/>
	</g>
	<g>
		<path class="st0" d="M31.75,64c-0.036,0-0.072-0.004-0.108-0.012l-13.5-3c-0.27-0.061-0.439-0.327-0.38-0.597
			c0.06-0.269,0.327-0.438,0.597-0.38l13.392,2.977l13.392-2.977c0.272-0.059,0.537,0.111,0.597,0.38
			c0.06,0.27-0.11,0.536-0.38,0.597l-13.5,3C31.822,63.996,31.786,64,31.75,64z"/>
	</g>
	<g>
		<path class="st0" d="M18.25,30H6.75c-0.276,0-0.5-0.224-0.5-0.5S6.474,29,6.75,29h11.5c0.276,0,0.5,0.224,0.5,0.5
			S18.526,30,18.25,30z"/>
	</g>
	<g>
		<path class="st0" d="M4.75,30h-2c-0.276,0-0.5-0.224-0.5-0.5S2.474,29,2.75,29h2c0.276,0,0.5,0.224,0.5,0.5S5.026,30,4.75,30z"/>
	</g>
	<g>
		<path class="st0" d="M57.25,30h-11.5c-0.276,0-0.5-0.224-0.5-0.5s0.224-0.5,0.5-0.5h11.5c0.276,0,0.5,0.224,0.5,0.5
			S57.526,30,57.25,30z"/>
	</g>
	<g>
		<path class="st0" d="M61.25,30h-2c-0.276,0-0.5-0.224-0.5-0.5s0.224-0.5,0.5-0.5h2c0.276,0,0.5,0.224,0.5,0.5S61.526,30,61.25,30z
			"/>
	</g>
	<g>
		<path class="st0" d="M31.75,30c-5.243,0-9.746-3.475-11.095-8.502c-1.61-0.05-2.905-1.376-2.905-2.998s1.295-2.948,2.905-2.998
			C22.003,10.475,26.506,7,31.75,7s9.747,3.475,11.095,8.502c1.61,0.05,2.905,1.376,2.905,2.998s-1.295,2.948-2.905,2.998
			C41.496,26.525,36.993,30,31.75,30z M20.961,20.481c0.241,0,0.513,0.148,0.565,0.377C22.628,25.652,26.832,29,31.75,29
			s9.122-3.348,10.224-8.142c0.057-0.247,0.294-0.414,0.543-0.385c0.142,0.019,0.187,0.026,0.233,0.026c1.103,0,2-0.897,2-2
			s-0.897-2-2-2c-0.049,0-0.097,0.008-0.144,0.014c-0.251,0.033-0.574-0.121-0.633-0.373C40.872,11.348,36.668,8,31.75,8
			s-9.122,3.348-10.224,8.141c-0.057,0.247-0.295,0.411-0.543,0.385c-0.137-0.018-0.185-0.025-0.233-0.025c-1.103,0-2,0.897-2,2
			s0.897,2,2,2c0.047,0,0.092-0.008,0.137-0.014C20.911,20.482,20.936,20.481,20.961,20.481z"/>
	</g>
	<g>
		<path class="st2" d="M21.75,17.5h-0.5V11h3v4C24.25,16.38,23.131,17.5,21.75,17.5z"/>
		<path class="st0" d="M21.75,18h-0.5c-0.276,0-0.5-0.224-0.5-0.5V11c0-0.276,0.224-0.5,0.5-0.5h3c0.276,0,0.5,0.224,0.5,0.5v4
			C24.75,16.654,23.404,18,21.75,18z M21.75,17h0.01H21.75z M21.75,11.5V17c1.103,0,2-0.897,2-2v-3.5H21.75z"/>
	</g>
	<g>
		<path class="st2" d="M39.25,10.949V15c0,1.381,1.119,2.5,2.5,2.5h0.5V9.564C41.461,10.339,40.412,10.832,39.25,10.949z"/>
		<path class="st0" d="M42.25,18h-0.5c-1.654,0-3-1.346-3-3v-4.051c0-0.257,0.194-0.472,0.45-0.497
			c1.029-0.104,1.988-0.546,2.699-1.244c0.145-0.142,0.358-0.183,0.544-0.104s0.307,0.26,0.307,0.461V17.5
			C42.75,17.776,42.526,18,42.25,18z M39.75,11.383V15c0,1.103,0.897,2,2,2v-6.402C41.148,10.983,40.468,11.252,39.75,11.383z"/>
	</g>
	<g>
		<path class="st0" d="M31.75,23.997c-1.408,0-2.816-0.536-3.889-1.608c-0.195-0.195-0.195-0.512,0-0.707s0.512-0.195,0.707,0
			c1.754,1.754,4.609,1.754,6.363,0c0.195-0.195,0.512-0.195,0.707,0s0.195,0.512,0,0.707C34.566,23.461,33.158,23.997,31.75,23.997
			z"/>
	</g>
	<g>
		<path class="st2" d="M38.75,11h-17.5v0c0-4.142,3.358-7.5,7.5-7.5h5.205c2.171,0,4.315-0.471,6.286-1.381L43.75,0.5V6
			C43.75,8.761,41.511,11,38.75,11z"/>
		<path class="st0" d="M38.75,11.5h-17.5c-0.276,0-0.5-0.224-0.5-0.5c0-4.411,3.589-8,8-8h5.205c2.082,0,4.184-0.462,6.077-1.335
			l3.508-1.619c0.156-0.069,0.335-0.06,0.479,0.033c0.144,0.092,0.23,0.25,0.23,0.421V6C44.25,9.032,41.782,11.5,38.75,11.5z
			 M21.768,10.5H38.75c2.481,0,4.5-2.019,4.5-4.5V1.281l-2.799,1.292C38.428,3.507,36.182,4,33.955,4H28.75
			C25.059,4,22.025,6.873,21.768,10.5z"/>
	</g>
	<g>
		<path class="st0" d="M27.685,38.5c-0.041,0-0.083-0.005-0.124-0.016c-0.158-0.04-0.287-0.155-0.344-0.309l-2.416-6.437
			c-0.095-0.25,0.025-0.53,0.271-0.636l2.481-1.063c0.188-0.078,0.406-0.038,0.551,0.106l4,4c0.099,0.099,0.151,0.233,0.146,0.372
			c-0.006,0.139-0.068,0.27-0.174,0.36l-4.065,3.5C27.919,38.458,27.803,38.5,27.685,38.5z M25.904,31.835l1.997,5.319l3.114-2.682
			l-3.38-3.38L25.904,31.835z"/>
	</g>
	<g>
		<path class="st0" d="M35.807,38.5c-0.118,0-0.234-0.042-0.326-0.121l-4.057-3.5c-0.105-0.091-0.168-0.222-0.174-0.36
			c-0.005-0.139,0.048-0.273,0.146-0.372l4-4c0.145-0.145,0.362-0.185,0.551-0.106l2.481,1.063c0.245,0.105,0.365,0.386,0.271,0.637
			l-2.425,6.437c-0.058,0.152-0.187,0.268-0.345,0.308C35.89,38.495,35.848,38.5,35.807,38.5z M32.484,34.473l3.106,2.681
			l2.004-5.318l-1.73-0.742L32.484,34.473z"/>
	</g>
	<g>
		<path class="st0" d="M49.75,50.8c-0.276,0-0.5-0.224-0.5-0.5v-8.854c0-2.804-1.665-5.33-4.243-6.434l-9.454-4.052
			c-0.184-0.079-0.303-0.26-0.303-0.46v-1.052c-2.275,0.732-4.725,0.732-7,0V30.5c0,0.2-0.119,0.381-0.303,0.46l-9.454,4.052
			c-2.578,1.104-4.243,3.63-4.243,6.434V50.3c0,0.276-0.224,0.5-0.5,0.5s-0.5-0.224-0.5-0.5v-8.854c0-3.205,1.903-6.091,4.849-7.354
			l9.151-3.922v-1.431c0-0.165,0.082-0.32,0.218-0.413c0.137-0.093,0.309-0.111,0.465-0.053c2.463,0.965,5.172,0.965,7.635,0
			c0.156-0.059,0.328-0.04,0.465,0.053c0.136,0.093,0.218,0.248,0.218,0.413v1.431l9.151,3.922c2.945,1.263,4.849,4.148,4.849,7.354
			V50.3C50.25,50.576,50.026,50.8,49.75,50.8z"/>
	</g>
	<g>
		<path class="st0" d="M31.75,64c-0.276,0-0.5-0.224-0.5-0.5v-19c0-0.276,0.224-0.5,0.5-0.5s0.5,0.224,0.5,0.5v19
			C32.25,63.776,32.026,64,31.75,64z"/>
	</g>
	<g>
		<path class="st0" d="M24.75,58.8h-8.5c-1.654,0-3-1.346-3-3v-5.5c0-0.276,0.224-0.5,0.5-0.5h4v-0.25c0-0.965,0.785-1.75,1.75-1.75
			s1.75,0.785,1.75,1.75v0.25h3.5c0.827,0,1.5,0.673,1.5,1.5v6C26.25,58.127,25.577,58.8,24.75,58.8z M14.25,50.8v5
			c0,1.103,0.897,2,2,2h8.5c0.275,0,0.5-0.225,0.5-0.5v-6c0-0.275-0.225-0.5-0.5-0.5h-4c-0.276,0-0.5-0.224-0.5-0.5v-0.75
			c0-0.413-0.337-0.75-0.75-0.75s-0.75,0.337-0.75,0.75v0.75c0,0.276-0.224,0.5-0.5,0.5H14.25z"/>
	</g>
	<g>
		<path class="st0" d="M25.75,52.8h-4c-0.276,0-0.5-0.224-0.5-0.5s0.224-0.5,0.5-0.5h4c0.276,0,0.5,0.224,0.5,0.5
			S26.026,52.8,25.75,52.8z"/>
	</g>
	<g>
		<path class="st0" d="M25.75,54.8h-4c-0.276,0-0.5-0.224-0.5-0.5s0.224-0.5,0.5-0.5h4c0.276,0,0.5,0.224,0.5,0.5
			S26.026,54.8,25.75,54.8z"/>
	</g>
	<g>
		<path class="st0" d="M47.25,58.8h-8.5c-0.827,0-1.5-0.673-1.5-1.5v-6c0-0.827,0.673-1.5,1.5-1.5h3.5v-0.25
			c0-0.965,0.785-1.75,1.75-1.75s1.75,0.785,1.75,1.75v0.25h4c0.276,0,0.5,0.224,0.5,0.5v5.5C50.25,57.454,48.904,58.8,47.25,58.8z
			 M38.75,50.8c-0.275,0-0.5,0.225-0.5,0.5v6c0,0.275,0.225,0.5,0.5,0.5h8.5c1.103,0,2-0.897,2-2v-5h-4c-0.276,0-0.5-0.224-0.5-0.5
			v-0.75c0-0.413-0.337-0.75-0.75-0.75s-0.75,0.337-0.75,0.75v0.75c0,0.276-0.224,0.5-0.5,0.5H38.75z"/>
	</g>
	<g>
		<path class="st0" d="M41.75,52.8h-4c-0.276,0-0.5-0.224-0.5-0.5s0.224-0.5,0.5-0.5h4c0.276,0,0.5,0.224,0.5,0.5
			S42.026,52.8,41.75,52.8z"/>
	</g>
	<g>
		<path class="st0" d="M41.75,54.8h-4c-0.276,0-0.5-0.224-0.5-0.5s0.224-0.5,0.5-0.5h4c0.276,0,0.5,0.224,0.5,0.5
			S42.026,54.8,41.75,54.8z"/>
	</g>
	<g>
		<path class="st0" d="M25.75,56.8h-4c-0.276,0-0.5-0.224-0.5-0.5s0.224-0.5,0.5-0.5h4c0.276,0,0.5,0.224,0.5,0.5
			S26.026,56.8,25.75,56.8z"/>
	</g>
	<g>
		<path class="st0" d="M41.75,56.8h-4c-0.276,0-0.5-0.224-0.5-0.5s0.224-0.5,0.5-0.5h4c0.276,0,0.5,0.224,0.5,0.5
			S42.026,56.8,41.75,56.8z"/>
	</g>
	<g>
		<path class="st0" d="M20.5,3h-4C16.224,3,16,2.776,16,2.5S16.224,2,16.5,2h4C20.776,2,21,2.224,21,2.5S20.776,3,20.5,3z"/>
	</g>
	<g>
		<path class="st0" d="M18.5,5C18.224,5,18,4.776,18,4.5v-4C18,0.224,18.224,0,18.5,0S19,0.224,19,0.5v4C19,4.776,18.776,5,18.5,5z"
			/>
	</g>
	<g>
		<path class="st0" d="M16.5,8h-4C12.224,8,12,7.776,12,7.5S12.224,7,12.5,7h4C16.776,7,17,7.224,17,7.5S16.776,8,16.5,8z"/>
	</g>
	<g>
		<path class="st0" d="M14.5,10C14.224,10,14,9.776,14,9.5v-4C14,5.224,14.224,5,14.5,5S15,5.224,15,5.5v4
			C15,9.776,14.776,10,14.5,10z"/>
	</g>
</g>
</svg>
