<?xml version="1.0" encoding="utf-8"?>
<!-- Generator: Adobe Illustrator 21.1.0, SVG Export Plug-In . SVG Version: 6.00 Build 0)  -->
<svg version="1.1" id="Icon_Set" xmlns="http://www.w3.org/2000/svg" xmlns:xlink="http://www.w3.org/1999/xlink" x="0px" y="0px"
	 viewBox="0 0 64 64" style="enable-background:new 0 0 64 64;" xml:space="preserve">
<style type="text/css">
	.st0{fill:#263238;}
	.st1{fill:#FF5252;}
	.st2{fill:#FFD740;}
	.st3{fill:#40C4FF;}
	.st4{fill:#FFFFFF;}
	.st5{fill:#4DB6AC;}
	.st6{fill:#37474F;}
	.st7{fill:#4FC3F7;}
</style>
<g>
	<g>
		<polygon class="st2" points="38.72,56.5 25.28,56.5 21.23,59.5 42.77,59.5 		"/>
	</g>
	<g>
		<path class="st0" d="M42.77,60H21.23c-0.276,0-0.5-0.224-0.5-0.5s0.224-0.5,0.5-0.5H42.77c0.276,0,0.5,0.224,0.5,0.5
			S43.046,60,42.77,60z"/>
	</g>
	<g>
		<circle class="st1" cx="32" cy="20.5" r="5"/>
	</g>
	<g>
		<path class="st2" d="M13.999,62c-0.206,0-0.415-0.042-0.615-0.133c-0.755-0.34-1.092-1.228-0.752-1.983l18-40
			C30.874,19.346,31.409,19,32,19s1.125,0.346,1.368,0.884l18.001,40c0.34,0.756,0.003,1.644-0.753,1.983
			c-0.752,0.34-1.643,0.003-1.983-0.752L32,24.155l-16.632,36.96C15.118,61.671,14.571,62,13.999,62z"/>
		<path class="st0" d="M50.002,62.501c-0.238,0-0.478-0.043-0.707-0.13c-0.502-0.189-0.898-0.562-1.119-1.05L32,25.374
			L15.823,61.321c-0.439,0.977-1.672,1.446-2.645,1.002c-0.486-0.219-0.859-0.615-1.049-1.114s-0.173-1.043,0.047-1.53l17.999-40
			C30.498,18.963,31.214,18.5,32,18.5c0.785,0,1.501,0.463,1.823,1.179l18.001,40c0.452,1.006,0.002,2.192-1.004,2.645
			C50.56,62.442,50.281,62.501,50.002,62.501z M32,23.655c0.196,0,0.375,0.115,0.456,0.295l16.632,36.96
			c0.109,0.244,0.309,0.43,0.56,0.525c0.25,0.095,0.521,0.085,0.762-0.023c0.245-0.11,0.432-0.308,0.526-0.558
			s0.086-0.521-0.023-0.765l-18.001-40C32.75,19.731,32.393,19.5,32,19.5s-0.751,0.231-0.912,0.589l-17.999,40
			c-0.11,0.244-0.118,0.516-0.023,0.765c0.094,0.25,0.28,0.448,0.524,0.557c0.492,0.221,1.102-0.014,1.321-0.501l16.633-36.96
			C31.625,23.771,31.804,23.655,32,23.655z"/>
	</g>
	<g>
		<path class="st0" d="M38.143,26.122c-0.113,0-0.227-0.038-0.32-0.116c-0.212-0.177-0.24-0.492-0.063-0.704
			c1.123-1.345,1.741-3.05,1.741-4.802c0-4.136-3.364-7.5-7.5-7.5s-7.5,3.364-7.5,7.5c0,1.751,0.618,3.457,1.74,4.801
			c0.177,0.212,0.148,0.527-0.063,0.704c-0.213,0.176-0.527,0.149-0.704-0.063C24.2,24.418,23.5,22.485,23.5,20.5
			c0-4.687,3.813-8.5,8.5-8.5s8.5,3.813,8.5,8.5c0,1.985-0.701,3.918-1.974,5.442C38.428,26.061,38.285,26.122,38.143,26.122z"/>
	</g>
	<g>
		<path class="st0" d="M40.328,30.978c-0.143,0-0.285-0.061-0.384-0.179c-0.177-0.212-0.148-0.527,0.063-0.705
			c2.854-2.386,4.492-5.883,4.492-9.594C44.5,13.607,38.893,8,32,8s-12.5,5.607-12.5,12.5c0,3.711,1.638,7.208,4.492,9.594
			c0.212,0.177,0.24,0.493,0.063,0.705c-0.177,0.212-0.494,0.24-0.704,0.063C20.269,28.285,18.5,24.508,18.5,20.5
			C18.5,13.056,24.556,7,32,7s13.5,6.056,13.5,13.5c0,4.008-1.769,7.785-4.852,10.361C40.556,30.939,40.441,30.978,40.328,30.978z"
			/>
	</g>
	<g>
		<path class="st0" d="M42.432,35.651c-0.155,0-0.31-0.073-0.407-0.209c-0.16-0.225-0.108-0.537,0.117-0.698
			C46.749,31.457,49.5,26.132,49.5,20.5C49.5,10.851,41.649,3,32,3s-17.5,7.851-17.5,17.5c0,5.632,2.751,10.957,7.358,14.244
			c0.226,0.161,0.277,0.473,0.117,0.698c-0.161,0.225-0.474,0.275-0.697,0.117C16.407,32.083,13.5,26.455,13.5,20.5
			C13.5,10.299,21.799,2,32,2s18.5,8.299,18.5,18.5c0,5.955-2.907,11.583-7.778,15.058C42.634,35.621,42.532,35.651,42.432,35.651z"
			/>
	</g>
	<g>
		<polygon class="st2" points="42.982,53.434 26.508,41.232 25.248,44.032 45.502,59.035 		"/>
	</g>
	<g>
		<path class="st0" d="M45.502,59.535c-0.104,0-0.208-0.032-0.298-0.098L24.95,44.434c-0.222-0.165-0.269-0.478-0.104-0.699
			c0.164-0.223,0.479-0.268,0.699-0.104L45.8,58.633c0.222,0.165,0.269,0.478,0.104,0.699
			C45.806,59.465,45.654,59.535,45.502,59.535z"/>
	</g>
	<g>
		<path class="st0" d="M42.982,53.935c-0.104,0-0.208-0.032-0.298-0.098L26.211,41.633c-0.222-0.165-0.269-0.478-0.104-0.7
			c0.165-0.222,0.478-0.268,0.699-0.104L43.28,53.033c0.222,0.165,0.269,0.478,0.104,0.7C43.286,53.865,43.135,53.935,42.982,53.935
			z"/>
	</g>
	<g>
		<path class="st0" d="M38.72,57H25.28c-0.276,0-0.5-0.224-0.5-0.5s0.224-0.5,0.5-0.5H38.72c0.276,0,0.5,0.224,0.5,0.5
			S38.996,57,38.72,57z"/>
	</g>
	<g>
		<polygon class="st2" points="37.491,41.232 21.017,53.435 18.496,59.036 38.751,44.033 		"/>
	</g>
	<g>
		<path class="st0" d="M21.017,53.935c-0.152,0-0.304-0.07-0.401-0.203c-0.165-0.222-0.118-0.535,0.104-0.699l16.475-12.203
			c0.223-0.164,0.535-0.119,0.699,0.104c0.165,0.222,0.118,0.535-0.104,0.699L21.314,53.837
			C21.225,53.903,21.12,53.935,21.017,53.935z"/>
	</g>
	<g>
		<path class="st0" d="M18.496,59.536c-0.152,0-0.304-0.07-0.401-0.203c-0.165-0.222-0.118-0.535,0.104-0.699l20.255-15.003
			c0.222-0.164,0.535-0.118,0.699,0.104c0.165,0.222,0.118,0.535-0.104,0.7L18.794,59.438C18.704,59.504,18.6,59.536,18.496,59.536z
			"/>
	</g>
	<g>
		<path class="st0" d="M57,10.5h-4c-0.276,0-0.5-0.224-0.5-0.5s0.224-0.5,0.5-0.5h4c0.276,0,0.5,0.224,0.5,0.5S57.276,10.5,57,10.5z
			"/>
	</g>
	<g>
		<path class="st0" d="M53,4.5h-4c-0.276,0-0.5-0.224-0.5-0.5s0.224-0.5,0.5-0.5h4c0.276,0,0.5,0.224,0.5,0.5S53.276,4.5,53,4.5z"/>
	</g>
	<g>
		<path class="st0" d="M51,6.5c-0.276,0-0.5-0.224-0.5-0.5V2c0-0.276,0.224-0.5,0.5-0.5s0.5,0.224,0.5,0.5v4
			C51.5,6.276,51.276,6.5,51,6.5z"/>
	</g>
	<g>
		<path class="st0" d="M55,12.5c-0.276,0-0.5-0.224-0.5-0.5V8c0-0.276,0.224-0.5,0.5-0.5s0.5,0.224,0.5,0.5v4
			C55.5,12.276,55.276,12.5,55,12.5z"/>
	</g>
	<g>
		<path class="st0" d="M58,38H47c-0.276,0-0.5-0.224-0.5-0.5S46.724,37,47,37h11c0.276,0,0.5,0.224,0.5,0.5S58.276,38,58,38z"/>
	</g>
	<g>
		<path class="st0" d="M62,38h-2c-0.276,0-0.5-0.224-0.5-0.5S59.724,37,60,37h2c0.276,0,0.5,0.224,0.5,0.5S62.276,38,62,38z"/>
	</g>
	<g>
		<path class="st0" d="M17,38H6c-0.276,0-0.5-0.224-0.5-0.5S5.724,37,6,37h11c0.276,0,0.5,0.224,0.5,0.5S17.276,38,17,38z"/>
	</g>
	<g>
		<path class="st0" d="M4,38H2c-0.276,0-0.5-0.224-0.5-0.5S1.724,37,2,37h2c0.276,0,0.5,0.224,0.5,0.5S4.276,38,4,38z"/>
	</g>
</g>
</svg>
