<?xml version="1.0" encoding="utf-8"?>
<!-- Generator: Adobe Illustrator 21.1.0, SVG Export Plug-In . SVG Version: 6.00 Build 0)  -->
<svg version="1.1" id="Icon_Set" xmlns="http://www.w3.org/2000/svg" xmlns:xlink="http://www.w3.org/1999/xlink" x="0px" y="0px"
	 viewBox="0 0 64 64" style="enable-background:new 0 0 64 64;" xml:space="preserve">
<style type="text/css">
	.st0{fill:#263238;}
	.st1{fill:#FF5252;}
	.st2{fill:#FFD740;}
	.st3{fill:#40C4FF;}
	.st4{fill:#FFFFFF;}
	.st5{fill:#4DB6AC;}
	.st6{fill:#37474F;}
	.st7{fill:#4FC3F7;}
</style>
<g>
	<g>
		<rect x="22.5" y="30.499" class="st3" width="19" height="28"/>
		<path class="st0" d="M41.5,58.999h-19c-0.276,0-0.5-0.224-0.5-0.5v-28c0-0.276,0.224-0.5,0.5-0.5h19c0.276,0,0.5,0.224,0.5,0.5v28
			C42,58.775,41.776,58.999,41.5,58.999z M23,57.999h18v-27H23V57.999z"/>
	</g>
	<g>
		<path class="st0" d="M36.299,63.999h-8.598c-0.916,0-1.771-0.41-2.343-1.125l-3.249-4.062c-0.12-0.15-0.144-0.355-0.06-0.529
			c0.083-0.173,0.258-0.283,0.45-0.283h19c0.192,0,0.367,0.11,0.45,0.283c0.084,0.174,0.061,0.379-0.06,0.529l-3.249,4.062
			C38.069,63.589,37.215,63.999,36.299,63.999z M23.54,58.999l2.6,3.25c0.381,0.477,0.95,0.75,1.562,0.75h8.598
			c0.611,0,1.181-0.273,1.562-0.75l2.6-3.25H23.54z"/>
	</g>
	<g>
		<path class="st2" d="M31.5,24.499c6.627,0,12-5.373,12-12h-24C19.5,19.127,24.873,24.499,31.5,24.499z"/>
		<path class="st0" d="M31.5,24.999c-6.893,0-12.5-5.607-12.5-12.5c0-0.276,0.224-0.5,0.5-0.5h24c0.276,0,0.5,0.224,0.5,0.5
			C44,19.392,38.393,24.999,31.5,24.999z M20.011,12.999c0.263,6.11,5.315,11,11.489,11s11.227-4.89,11.489-11H20.011z"/>
	</g>
	<g>
		<g>
			<path class="st0" d="M31.5,21.999c-0.276,0-0.5-0.224-0.5-0.5s0.224-0.5,0.5-0.5c3.592,0,6.813-2.277,8.015-5.667
				c0.094-0.26,0.384-0.396,0.639-0.305c0.261,0.093,0.396,0.379,0.305,0.639C39.114,19.454,35.515,21.999,31.5,21.999z"/>
		</g>
	</g>
	<g>
		<path class="st0" d="M41.5,30.999h-19c-0.202,0-0.385-0.122-0.462-0.309s-0.034-0.402,0.108-0.545l4.688-4.687
			c0.195-0.195,0.512-0.195,0.707,0s0.195,0.512,0,0.707l-3.834,3.833h16.49l-4.378-3.939c-0.206-0.186-0.223-0.501-0.038-0.706
			c0.187-0.206,0.503-0.222,0.706-0.038l5.347,4.812c0.154,0.139,0.207,0.357,0.133,0.551S41.707,30.999,41.5,30.999z"/>
	</g>
	<g>
		<path class="st0" d="M20.5,53.999H3c-0.276,0-0.5-0.224-0.5-0.5v-18c0-0.276,0.224-0.5,0.5-0.5h17.5c0.276,0,0.5,0.224,0.5,0.5
			s-0.224,0.5-0.5,0.5h-17v17h17c0.276,0,0.5,0.224,0.5,0.5S20.776,53.999,20.5,53.999z"/>
	</g>
	<g>
		<path class="st0" d="M8,53.999c-0.276,0-0.5-0.224-0.5-0.5v-18c0-0.276,0.224-0.5,0.5-0.5s0.5,0.224,0.5,0.5v18
			C8.5,53.775,8.276,53.999,8,53.999z"/>
	</g>
	<g>
		<path class="st0" d="M13,53.999c-0.276,0-0.5-0.224-0.5-0.5v-18c0-0.276,0.224-0.5,0.5-0.5s0.5,0.224,0.5,0.5v18
			C13.5,53.775,13.276,53.999,13,53.999z"/>
	</g>
	<g>
		<path class="st0" d="M18,53.999c-0.276,0-0.5-0.224-0.5-0.5v-18c0-0.276,0.224-0.5,0.5-0.5s0.5,0.224,0.5,0.5v18
			C18.5,53.775,18.276,53.999,18,53.999z"/>
	</g>
	<g>
		<path class="st0" d="M20.5,44.999H3c-0.276,0-0.5-0.224-0.5-0.5s0.224-0.5,0.5-0.5h17.5c0.276,0,0.5,0.224,0.5,0.5
			S20.776,44.999,20.5,44.999z"/>
	</g>
	<g>
		<rect x="29.5" y="37.499" class="st4" width="5" height="12"/>
		<path class="st0" d="M34.5,49.999h-5c-0.276,0-0.5-0.224-0.5-0.5v-12c0-0.276,0.224-0.5,0.5-0.5h5c0.276,0,0.5,0.224,0.5,0.5v12
			C35,49.775,34.776,49.999,34.5,49.999z M30,48.999h4v-11h-4V48.999z"/>
	</g>
	<g>
		<path class="st0" d="M34.5,34.999h-5c-0.276,0-0.5-0.224-0.5-0.5s0.224-0.5,0.5-0.5h5c0.276,0,0.5,0.224,0.5,0.5
			S34.776,34.999,34.5,34.999z"/>
	</g>
	<g>
		<path class="st0" d="M31.5,5.999c-1.379,0-2.5-1.121-2.5-2.5s1.121-2.5,2.5-2.5S34,2.12,34,3.499S32.879,5.999,31.5,5.999z
			 M31.5,1.999c-0.827,0-1.5,0.673-1.5,1.5s0.673,1.5,1.5,1.5s1.5-0.673,1.5-1.5S32.327,1.999,31.5,1.999z"/>
	</g>
	<g>
		<path class="st0" d="M29.736,10.999c-0.02,0-0.039-0.001-0.06-0.004c-0.274-0.032-0.471-0.28-0.438-0.555l0.63-5.354
			c0.031-0.273,0.271-0.48,0.555-0.438c0.274,0.032,0.471,0.28,0.438,0.555l-0.63,5.354C30.202,10.812,29.986,10.999,29.736,10.999z
			"/>
	</g>
	<g>
		<path class="st0" d="M33.264,10.999c-0.25,0-0.466-0.188-0.495-0.441l-0.63-5.354c-0.033-0.274,0.163-0.522,0.438-0.555
			c0.271-0.044,0.523,0.164,0.555,0.438l0.63,5.354c0.033,0.274-0.163,0.522-0.438,0.555C33.304,10.998,33.283,10.999,33.264,10.999
			z"/>
	</g>
	<g>
		<path class="st0" d="M52.5,2.999h-4c-0.276,0-0.5-0.224-0.5-0.5s0.224-0.5,0.5-0.5h4c0.276,0,0.5,0.224,0.5,0.5
			S52.776,2.999,52.5,2.999z"/>
	</g>
	<g>
		<path class="st0" d="M50.5,4.999c-0.276,0-0.5-0.224-0.5-0.5v-4c0-0.276,0.224-0.5,0.5-0.5s0.5,0.224,0.5,0.5v4
			C51,4.775,50.776,4.999,50.5,4.999z"/>
	</g>
	<g>
		<path class="st0" d="M59,9.499h-4c-0.276,0-0.5-0.224-0.5-0.5s0.224-0.5,0.5-0.5h4c0.276,0,0.5,0.224,0.5,0.5
			S59.276,9.499,59,9.499z"/>
	</g>
	<g>
		<path class="st0" d="M57,11.499c-0.276,0-0.5-0.224-0.5-0.5v-4c0-0.276,0.224-0.5,0.5-0.5s0.5,0.224,0.5,0.5v4
			C57.5,11.275,57.276,11.499,57,11.499z"/>
	</g>
	<g>
		<path class="st0" d="M4,25.499H3c-0.276,0-0.5-0.224-0.5-0.5s0.224-0.5,0.5-0.5h1c0.276,0,0.5,0.224,0.5,0.5
			S4.276,25.499,4,25.499z"/>
	</g>
	<g>
		<path class="st0" d="M18.5,25.499H6c-0.276,0-0.5-0.224-0.5-0.5s0.224-0.5,0.5-0.5h12.5c0.276,0,0.5,0.224,0.5,0.5
			S18.776,25.499,18.5,25.499z"/>
	</g>
	<g>
		<path class="st0" d="M61,25.499h-1c-0.276,0-0.5-0.224-0.5-0.5s0.224-0.5,0.5-0.5h1c0.276,0,0.5,0.224,0.5,0.5
			S61.276,25.499,61,25.499z"/>
	</g>
	<g>
		<path class="st0" d="M58,25.499H45.5c-0.276,0-0.5-0.224-0.5-0.5s0.224-0.5,0.5-0.5H58c0.276,0,0.5,0.224,0.5,0.5
			S58.276,25.499,58,25.499z"/>
	</g>
	<g>
		<path class="st0" d="M61,53.999H43.5c-0.276,0-0.5-0.224-0.5-0.5s0.224-0.5,0.5-0.5h17v-17h-17c-0.276,0-0.5-0.224-0.5-0.5
			s0.224-0.5,0.5-0.5H61c0.276,0,0.5,0.224,0.5,0.5v18C61.5,53.775,61.276,53.999,61,53.999z"/>
	</g>
	<g>
		<path class="st0" d="M56,53.999c-0.276,0-0.5-0.224-0.5-0.5v-18c0-0.276,0.224-0.5,0.5-0.5s0.5,0.224,0.5,0.5v18
			C56.5,53.775,56.276,53.999,56,53.999z"/>
	</g>
	<g>
		<path class="st0" d="M51,53.999c-0.276,0-0.5-0.224-0.5-0.5v-18c0-0.276,0.224-0.5,0.5-0.5s0.5,0.224,0.5,0.5v18
			C51.5,53.775,51.276,53.999,51,53.999z"/>
	</g>
	<g>
		<path class="st0" d="M46,53.999c-0.276,0-0.5-0.224-0.5-0.5v-18c0-0.276,0.224-0.5,0.5-0.5s0.5,0.224,0.5,0.5v18
			C46.5,53.775,46.276,53.999,46,53.999z"/>
	</g>
	<g>
		<path class="st0" d="M61,44.999H43.5c-0.276,0-0.5-0.224-0.5-0.5s0.224-0.5,0.5-0.5H61c0.276,0,0.5,0.224,0.5,0.5
			S61.276,44.999,61,44.999z"/>
	</g>
</g>
</svg>
