<?xml version="1.0" encoding="utf-8"?>
<!-- Generator: Adobe Illustrator 21.1.0, SVG Export Plug-In . SVG Version: 6.00 Build 0)  -->
<svg version="1.1" id="Icon_Set" xmlns="http://www.w3.org/2000/svg" xmlns:xlink="http://www.w3.org/1999/xlink" x="0px" y="0px"
	 viewBox="0 0 64 64" style="enable-background:new 0 0 64 64;" xml:space="preserve">
<style type="text/css">
	.st0{fill:#263238;}
	.st1{fill:#FF5252;}
	.st2{fill:#FFD740;}
	.st3{fill:#40C4FF;}
	.st4{fill:#FFFFFF;}
	.st5{fill:#4DB6AC;}
	.st6{fill:#37474F;}
	.st7{fill:#4FC3F7;}
</style>
<g>
	<g>
		<path class="st0" d="M26.72,45.54c-0.128,0-0.256-0.049-0.354-0.146l-2.829-2.828c-0.094-0.094-0.146-0.221-0.146-0.354
			s0.053-0.26,0.146-0.354l5.763-5.763c0.102-0.103,0.244-0.153,0.387-0.146c0.144,0.01,0.277,0.081,0.364,0.195
			c0.785,1.028,1.705,1.948,2.735,2.734c0.114,0.087,0.186,0.22,0.195,0.364c0.009,0.144-0.043,0.285-0.146,0.387l-5.763,5.763
			C26.976,45.491,26.848,45.54,26.72,45.54z M24.598,42.211l2.122,2.121l5.013-5.013c-0.774-0.637-1.485-1.348-2.122-2.121
			L24.598,42.211z"/>
	</g>
	<g>
		<path class="st0" d="M25,9.5h-4c-0.276,0-0.5-0.224-0.5-0.5s0.224-0.5,0.5-0.5h4c0.276,0,0.5,0.224,0.5,0.5S25.276,9.5,25,9.5z"/>
	</g>
	<g>
		<path class="st0" d="M23,11.5c-0.276,0-0.5-0.224-0.5-0.5V7c0-0.276,0.224-0.5,0.5-0.5s0.5,0.224,0.5,0.5v4
			C23.5,11.276,23.276,11.5,23,11.5z"/>
	</g>
	<g>
		<path class="st0" d="M19,14.5h-4c-0.276,0-0.5-0.224-0.5-0.5s0.224-0.5,0.5-0.5h4c0.276,0,0.5,0.224,0.5,0.5S19.276,14.5,19,14.5z
			"/>
	</g>
	<g>
		<path class="st0" d="M17,16.5c-0.276,0-0.5-0.224-0.5-0.5v-4c0-0.276,0.224-0.5,0.5-0.5s0.5,0.224,0.5,0.5v4
			C17.5,16.276,17.276,16.5,17,16.5z"/>
	</g>
	<g>
		<path class="st1" d="M23.538,41.858l3.536,3.536c0.391,0.391,0.391,1.024,0,1.414l-9.899,9.899c-0.391,0.391-1.024,0.391-1.414,0
			l-3.536-3.536c-0.391-0.391-0.391-1.024,0-1.414l9.899-9.899C22.514,41.467,23.147,41.467,23.538,41.858z"/>
		<path class="st0" d="M16.466,57.5c-0.384,0-0.768-0.146-1.061-0.439l-3.535-3.536c-0.585-0.585-0.585-1.536,0-2.121l9.899-9.899
			c0.585-0.585,1.536-0.585,2.121,0l3.536,3.535c0.585,0.585,0.585,1.537,0,2.122l-9.899,9.899
			C17.235,57.353,16.851,57.5,16.466,57.5z M22.831,42.065c-0.128,0-0.256,0.048-0.354,0.146l-9.899,9.899
			c-0.195,0.195-0.195,0.512,0,0.707l3.535,3.536c0.196,0.196,0.513,0.196,0.708,0l9.899-9.899c0.195-0.195,0.195-0.512,0-0.708
			l-3.536-3.535l0,0C23.086,42.114,22.958,42.065,22.831,42.065z"/>
	</g>
	<g>
		<path class="st0" d="M41.569,42.862c-8.547,0-15.5-6.954-15.5-15.5c0-8.547,6.953-15.5,15.5-15.5s15.5,6.954,15.5,15.5
			S50.116,42.862,41.569,42.862z M41.569,12.862c-7.995,0-14.5,6.505-14.5,14.5c0,7.995,6.505,14.5,14.5,14.5
			c7.995,0,14.5-6.505,14.5-14.5C56.069,19.367,49.564,12.862,41.569,12.862z"/>
	</g>
	<g>
		<path class="st3" d="M53.569,27.362c0,6.627-5.373,12-12,12s-12-5.373-12-12c0-6.627,5.373-12,12-12
			C48.196,15.362,53.569,20.735,53.569,27.362z"/>
		<path class="st0" d="M41.569,39.862c-6.893,0-12.5-5.607-12.5-12.5c0-3.339,1.3-6.479,3.661-8.839
			c2.361-2.36,5.5-3.661,8.838-3.661c0,0,0,0,0.001,0c6.893,0,12.5,5.607,12.5,12.5S48.461,39.862,41.569,39.862z M41.568,15.862
			c-3.071,0-5.959,1.196-8.131,3.368c-2.172,2.172-3.368,5.061-3.368,8.132c0,6.341,5.159,11.5,11.5,11.5s11.5-5.159,11.5-11.5
			S47.91,15.862,41.568,15.862L41.568,15.862z"/>
	</g>
	<g>
		<path class="st0" d="M50.569,27.862c-0.276,0-0.5-0.224-0.5-0.5c0-4.687-3.813-8.5-8.5-8.5c-0.276,0-0.5-0.224-0.5-0.5
			s0.224-0.5,0.5-0.5c5.238,0,9.5,4.262,9.5,9.5C51.069,27.639,50.845,27.862,50.569,27.862z"/>
	</g>
	<g>
		<path class="st0" d="M57,48.806h-2c-0.276,0-0.5-0.224-0.5-0.5s0.224-0.5,0.5-0.5h2c0.276,0,0.5,0.224,0.5,0.5
			S57.276,48.806,57,48.806z"/>
	</g>
	<g>
		<path class="st0" d="M53,48.806H42c-0.276,0-0.5-0.224-0.5-0.5s0.224-0.5,0.5-0.5h11c0.276,0,0.5,0.224,0.5,0.5
			S53.276,48.806,53,48.806z"/>
	</g>
	<g>
		<path class="st0" d="M9,33.806H7c-0.276,0-0.5-0.224-0.5-0.5s0.224-0.5,0.5-0.5h2c0.276,0,0.5,0.224,0.5,0.5
			S9.276,33.806,9,33.806z"/>
	</g>
	<g>
		<path class="st0" d="M22,33.806H11c-0.276,0-0.5-0.224-0.5-0.5s0.224-0.5,0.5-0.5h11c0.276,0,0.5,0.224,0.5,0.5
			S22.276,33.806,22,33.806z"/>
	</g>
</g>
</svg>
