<?xml version="1.0" encoding="utf-8"?>
<!-- Generator: Adobe Illustrator 21.1.0, SVG Export Plug-In . SVG Version: 6.00 Build 0)  -->
<svg version="1.1" id="Icon_Set" xmlns="http://www.w3.org/2000/svg" xmlns:xlink="http://www.w3.org/1999/xlink" x="0px" y="0px"
	 viewBox="0 0 64 64" style="enable-background:new 0 0 64 64;" xml:space="preserve">
<style type="text/css">
	.st0{fill:#263238;}
	.st1{fill:#FF5252;}
	.st2{fill:#FFD740;}
	.st3{fill:#40C4FF;}
	.st4{fill:#FFFFFF;}
	.st5{fill:#4DB6AC;}
	.st6{fill:#37474F;}
	.st7{fill:#4FC3F7;}
</style>
<g>
	<g>
		<path class="st0" d="M46.799,9h-4c-0.276,0-0.5-0.224-0.5-0.5s0.224-0.5,0.5-0.5h4c0.276,0,0.5,0.224,0.5,0.5S47.075,9,46.799,9z"
			/>
	</g>
	<g>
		<path class="st0" d="M44.799,11c-0.276,0-0.5-0.224-0.5-0.5v-4c0-0.276,0.224-0.5,0.5-0.5s0.5,0.224,0.5,0.5v4
			C45.299,10.776,45.075,11,44.799,11z"/>
	</g>
	<g>
		<path class="st0" d="M54.299,12.5h-4c-0.276,0-0.5-0.224-0.5-0.5s0.224-0.5,0.5-0.5h4c0.276,0,0.5,0.224,0.5,0.5
			S54.575,12.5,54.299,12.5z"/>
	</g>
	<g>
		<path class="st0" d="M52.299,14.5c-0.276,0-0.5-0.224-0.5-0.5v-4c0-0.276,0.224-0.5,0.5-0.5s0.5,0.224,0.5,0.5v4
			C52.799,14.276,52.575,14.5,52.299,14.5z"/>
	</g>
	<g>
		<path class="st2" d="M51.799,31.201c-0.64,0-1.279-0.244-1.768-0.732C45.215,25.652,38.812,23,32,23s-13.215,2.652-18.031,7.469
			c-0.977,0.977-2.559,0.977-3.535,0c-0.977-0.976-0.977-2.559,0-3.535C16.194,21.172,23.854,18,32,18s15.806,3.172,21.566,8.934
			c0.977,0.976,0.977,2.559,0,3.535C53.078,30.957,52.438,31.201,51.799,31.201z"/>
		<path class="st0" d="M51.799,31.701c-0.801,0-1.555-0.312-2.121-0.879C44.956,26.101,38.678,23.5,32,23.5
			s-12.956,2.601-17.678,7.322c-1.17,1.17-3.072,1.17-4.242,0c-0.567-0.566-0.879-1.32-0.879-2.121s0.312-1.555,0.879-2.121
			C15.935,20.725,23.72,17.5,32,17.5s16.065,3.225,21.92,9.08c0.566,0.566,0.879,1.32,0.879,2.121s-0.312,1.555-0.879,2.121
			C53.354,31.389,52.6,31.701,51.799,31.701z M32,22.5c6.945,0,13.474,2.705,18.385,7.615c0.756,0.756,2.072,0.756,2.828,0
			c0.378-0.378,0.586-0.88,0.586-1.414s-0.208-1.036-0.586-1.414C47.547,21.621,40.014,18.5,32,18.5
			c-8.013,0-15.547,3.121-21.213,8.787c-0.378,0.378-0.586,0.88-0.586,1.414s0.208,1.036,0.586,1.414
			c0.779,0.779,2.049,0.779,2.828,0C18.526,25.205,25.055,22.5,32,22.5z"/>
	</g>
	<g>
		<path class="st2" d="M43.313,39.687c-0.64,0-1.279-0.244-1.768-0.732C38.996,36.404,35.606,35,32,35s-6.996,1.404-9.546,3.954
			c-0.977,0.977-2.559,0.976-3.535,0c-0.977-0.977-0.977-2.56,0-3.536C22.413,31.924,27.059,30,32,30s9.587,1.924,13.081,5.419
			c0.977,0.976,0.977,2.559,0,3.536C44.593,39.442,43.953,39.687,43.313,39.687z"/>
		<path class="st0" d="M43.313,40.187c-0.801,0-1.555-0.312-2.121-0.879C38.737,36.852,35.473,35.5,32,35.5
			c-3.472,0-6.737,1.352-9.192,3.808c-1.169,1.169-3.072,1.169-4.242,0c-0.567-0.567-0.879-1.32-0.879-2.122
			s0.312-1.555,0.879-2.121C22.154,31.477,26.925,29.5,32,29.5s9.847,1.977,13.435,5.565c0.566,0.566,0.879,1.32,0.879,2.121
			s-0.312,1.555-0.879,2.122C44.867,39.875,44.114,40.187,43.313,40.187z M32,34.5c3.739,0,7.255,1.456,9.899,4.101
			c0.756,0.756,2.072,0.755,2.828,0c0.378-0.378,0.586-0.88,0.586-1.415s-0.208-1.036-0.586-1.414
			C41.328,32.373,36.808,30.5,32,30.5c-4.808,0-9.328,1.873-12.728,5.272c-0.378,0.378-0.586,0.88-0.586,1.414
			s0.208,1.037,0.586,1.415c0.779,0.779,2.049,0.779,2.828,0C24.745,35.956,28.261,34.5,32,34.5z"/>
	</g>
	<g>
		<path class="st1" d="M32,54.5c-3.033,0-5.5-2.467-5.5-5.5s2.467-5.5,5.5-5.5s5.5,2.467,5.5,5.5S35.033,54.5,32,54.5z"/>
		<path class="st0" d="M32,55c-3.309,0-6-2.691-6-6s2.691-6,6-6s6,2.691,6,6S35.309,55,32,55z M32,44c-2.757,0-5,2.243-5,5
			s2.243,5,5,5s5-2.243,5-5S34.757,44,32,44z"/>
	</g>
	<g>
		<path class="st0" d="M53,49.5H42c-0.276,0-0.5-0.224-0.5-0.5s0.224-0.5,0.5-0.5h11c0.276,0,0.5,0.224,0.5,0.5S53.276,49.5,53,49.5
			z"/>
	</g>
	<g>
		<path class="st0" d="M57,49.5h-2c-0.276,0-0.5-0.224-0.5-0.5s0.224-0.5,0.5-0.5h2c0.276,0,0.5,0.224,0.5,0.5S57.276,49.5,57,49.5z
			"/>
	</g>
	<g>
		<path class="st0" d="M22,49.5H11c-0.276,0-0.5-0.224-0.5-0.5s0.224-0.5,0.5-0.5h11c0.276,0,0.5,0.224,0.5,0.5S22.276,49.5,22,49.5
			z"/>
	</g>
	<g>
		<path class="st0" d="M9,49.5H7c-0.276,0-0.5-0.224-0.5-0.5s0.224-0.5,0.5-0.5h2c0.276,0,0.5,0.224,0.5,0.5S9.276,49.5,9,49.5z"/>
	</g>
</g>
</svg>
