<?xml version="1.0" encoding="utf-8"?>
<!-- Generator: Adobe Illustrator 21.1.0, SVG Export Plug-In . SVG Version: 6.00 Build 0)  -->
<svg version="1.1" id="Icon_Set" xmlns="http://www.w3.org/2000/svg" xmlns:xlink="http://www.w3.org/1999/xlink" x="0px" y="0px"
	 viewBox="0 0 64 64" style="enable-background:new 0 0 64 64;" xml:space="preserve">
<style type="text/css">
	.st0{fill:#263238;}
	.st1{fill:#FF5252;}
	.st2{fill:#FFD740;}
	.st3{fill:#40C4FF;}
	.st4{fill:#FFFFFF;}
	.st5{fill:#4DB6AC;}
	.st6{fill:#37474F;}
	.st7{fill:#4FC3F7;}
</style>
<g>
	<g>
		<path class="st0" d="M59,4.5h-4c-0.276,0-0.5-0.224-0.5-0.5s0.224-0.5,0.5-0.5h4c0.276,0,0.5,0.224,0.5,0.5S59.276,4.5,59,4.5z"/>
	</g>
	<g>
		<path class="st0" d="M57,6.5c-0.276,0-0.5-0.224-0.5-0.5V2c0-0.276,0.224-0.5,0.5-0.5s0.5,0.224,0.5,0.5v4
			C57.5,6.277,57.276,6.5,57,6.5z"/>
	</g>
	<g>
		<path class="st0" d="M53.5,9.5h-4C49.224,9.5,49,9.277,49,9s0.224-0.5,0.5-0.5h4C53.776,8.5,54,8.724,54,9S53.776,9.5,53.5,9.5z"
			/>
	</g>
	<g>
		<path class="st0" d="M51.5,11.5c-0.276,0-0.5-0.224-0.5-0.5V7c0-0.276,0.224-0.5,0.5-0.5S52,6.724,52,7v4
			C52,11.277,51.776,11.5,51.5,11.5z"/>
	</g>
	<g>
		<path class="st0" d="M54,58.5H10c-3.033,0-5.5-2.467-5.5-5.5V25c0-3.033,2.467-5.5,5.5-5.5h44c3.033,0,5.5,2.467,5.5,5.5v28
			C59.5,56.033,57.033,58.5,54,58.5z M10,20.5c-2.481,0-4.5,2.019-4.5,4.5v28c0,2.481,2.019,4.5,4.5,4.5h44
			c2.481,0,4.5-2.019,4.5-4.5V25c0-2.481-2.019-4.5-4.5-4.5H10z"/>
	</g>
	<g>
		<path class="st3" d="M43,53H15c-2.761,0-5-2.239-5-5V30c0-2.761,2.239-5,5-5h28c2.761,0,5,2.239,5,5v18C48,50.762,45.761,53,43,53
			z"/>
		<path class="st0" d="M43,53.5H15c-3.033,0-5.5-2.467-5.5-5.5V30c0-3.033,2.467-5.5,5.5-5.5h28c3.033,0,5.5,2.467,5.5,5.5v18
			C48.5,51.033,46.033,53.5,43,53.5z M15,25.5c-2.481,0-4.5,2.019-4.5,4.5v18c0,2.481,2.019,4.5,4.5,4.5h28
			c2.481,0,4.5-2.019,4.5-4.5V30c0-2.481-2.019-4.5-4.5-4.5H15z"/>
	</g>
	<g>
		<path class="st0" d="M45,33.5c-0.276,0-0.5-0.224-0.5-0.5v-3c0-0.827-0.673-1.5-1.5-1.5h-3c-0.276,0-0.5-0.224-0.5-0.5
			s0.224-0.5,0.5-0.5h3c1.378,0,2.5,1.122,2.5,2.5v3C45.5,33.276,45.276,33.5,45,33.5z"/>
	</g>
	<g>
		<path class="st0" d="M32,20.5c-0.128,0-0.256-0.049-0.354-0.146L19.879,8.586c-0.195-0.195-0.195-0.512,0-0.707
			s0.512-0.195,0.707,0L32,19.293L43.415,7.879c0.195-0.195,0.512-0.195,0.707,0s0.195,0.512,0,0.707L32.354,20.354
			C32.256,20.451,32.128,20.5,32,20.5z"/>
	</g>
	<g>
		<circle class="st1" cx="53.5" cy="27" r="2"/>
		<path class="st0" d="M53.5,29.5c-1.378,0-2.5-1.122-2.5-2.5s1.122-2.5,2.5-2.5S56,25.622,56,27S54.878,29.5,53.5,29.5z M53.5,25.5
			c-0.827,0-1.5,0.673-1.5,1.5s0.673,1.5,1.5,1.5S55,27.827,55,27S54.327,25.5,53.5,25.5z"/>
	</g>
	<g>
		<circle class="st2" cx="53.5" cy="35" r="2"/>
		<path class="st0" d="M53.5,37.5c-1.378,0-2.5-1.122-2.5-2.5s1.122-2.5,2.5-2.5S56,33.622,56,35S54.878,37.5,53.5,37.5z M53.5,33.5
			c-0.827,0-1.5,0.673-1.5,1.5s0.673,1.5,1.5,1.5S55,35.827,55,35S54.327,33.5,53.5,33.5z"/>
	</g>
	<g>
		<path class="st0" d="M56,44.5h-5c-0.276,0-0.5-0.224-0.5-0.5s0.224-0.5,0.5-0.5h5c0.276,0,0.5,0.224,0.5,0.5S56.276,44.5,56,44.5z
			"/>
	</g>
	<g>
		<path class="st0" d="M56,47.5h-5c-0.276,0-0.5-0.224-0.5-0.5s0.224-0.5,0.5-0.5h5c0.276,0,0.5,0.224,0.5,0.5S56.276,47.5,56,47.5z
			"/>
	</g>
	<g>
		<path class="st0" d="M56,50.5h-5c-0.276,0-0.5-0.224-0.5-0.5s0.224-0.5,0.5-0.5h5c0.276,0,0.5,0.224,0.5,0.5S56.276,50.5,56,50.5z
			"/>
	</g>
	<g>
		<path class="st2" d="M32,16.5c-1.933,0-3.5,1.567-3.5,3.5h7C35.5,18.067,33.933,16.5,32,16.5z"/>
		<path class="st0" d="M35.5,20.5h-7c-0.276,0-0.5-0.224-0.5-0.5c0-2.206,1.794-4,4-4s4,1.794,4,4C36,20.276,35.777,20.5,35.5,20.5z
			 M29.042,19.5h5.917C34.72,18.083,33.484,17,32,17S29.281,18.083,29.042,19.5z"/>
	</g>
	<g>
		<path class="st0" d="M43.25,62.5h-18.5c-0.276,0-0.5-0.224-0.5-0.5s0.224-0.5,0.5-0.5h18.5c0.276,0,0.5,0.224,0.5,0.5
			S43.527,62.5,43.25,62.5z"/>
	</g>
	<g>
		<path class="st0" d="M22.75,62.5h-2c-0.276,0-0.5-0.224-0.5-0.5s0.224-0.5,0.5-0.5h2c0.276,0,0.5,0.224,0.5,0.5
			S23.027,62.5,22.75,62.5z"/>
	</g>
</g>
</svg>
