<?xml version="1.0" encoding="utf-8"?>
<!-- Generator: Adobe Illustrator 21.1.0, SVG Export Plug-In . SVG Version: 6.00 Build 0)  -->
<svg version="1.1" id="Icon_Set" xmlns="http://www.w3.org/2000/svg" xmlns:xlink="http://www.w3.org/1999/xlink" x="0px" y="0px"
	 viewBox="0 0 64 64" style="enable-background:new 0 0 64 64;" xml:space="preserve">
<style type="text/css">
	.st0{fill:#263238;}
	.st1{fill:#FF5252;}
	.st2{fill:#FFD740;}
	.st3{fill:#40C4FF;}
	.st4{fill:#FFFFFF;}
	.st5{fill:#4DB6AC;}
	.st6{fill:#37474F;}
	.st7{fill:#4FC3F7;}
</style>
<g>
	<g>
		<path class="st3" d="M50.5,19.5h-19c-1.381,0-2.5,1.119-2.5,2.5v11c0,1.381,1.119,2.5,2.5,2.5H38v2.865
			c0,0.848,0.989,1.311,1.64,0.768L44,35.5h6.5c1.381,0,2.5-1.119,2.5-2.5V22C53,20.619,51.881,19.5,50.5,19.5z"/>
		<path class="st0" d="M39.004,39.867c-0.216,0-0.434-0.047-0.641-0.144c-0.532-0.25-0.863-0.77-0.863-1.358V36h-6
			c-1.654,0-3-1.346-3-3V22c0-1.654,1.346-3,3-3h19c1.654,0,3,1.346,3,3v11c0,1.654-1.346,3-3,3h-6.319l-4.22,3.518
			C39.684,39.748,39.347,39.867,39.004,39.867z M31.5,20c-1.103,0-2,0.897-2,2v11c0,1.103,0.897,2,2,2H38c0.276,0,0.5,0.224,0.5,0.5
			v2.865c0,0.295,0.221,0.421,0.288,0.453c0.068,0.031,0.306,0.121,0.532-0.069l4.359-3.633C43.77,35.041,43.883,35,44,35h6.5
			c1.103,0,2-0.897,2-2V22c0-1.103-0.897-2-2-2H31.5z"/>
	</g>
	<g>
		<path class="st0" d="M50,24H32c-0.276,0-0.5-0.224-0.5-0.5S31.724,23,32,23h18c0.276,0,0.5,0.224,0.5,0.5S50.276,24,50,24z"/>
	</g>
	<g>
		<path class="st0" d="M50,28H32c-0.276,0-0.5-0.224-0.5-0.5S31.724,27,32,27h18c0.276,0,0.5,0.224,0.5,0.5S50.276,28,50,28z"/>
	</g>
	<g>
		<path class="st0" d="M43,32H32c-0.276,0-0.5-0.224-0.5-0.5S31.724,31,32,31h11c0.276,0,0.5,0.224,0.5,0.5S43.276,32,43,32z"/>
	</g>
	<g>
		<path class="st0" d="M43,63.5H21c-3.033,0-5.5-2.467-5.5-5.5V13c0-3.033,2.467-5.5,5.5-5.5h22c3.032,0,5.5,2.467,5.5,5.5v4.5
			c0,0.276-0.224,0.5-0.5,0.5s-0.5-0.224-0.5-0.5V13c0-2.481-2.019-4.5-4.5-4.5H21c-2.481,0-4.5,2.019-4.5,4.5v45
			c0,2.481,2.019,4.5,4.5,4.5h22c2.481,0,4.5-2.019,4.5-4.5V37.5c0-0.276,0.224-0.5,0.5-0.5s0.5,0.224,0.5,0.5V58
			C48.5,61.033,46.032,63.5,43,63.5z"/>
	</g>
	<g>
		<path class="st0" d="M20.5,3.5h-4C16.224,3.5,16,3.276,16,3s0.224-0.5,0.5-0.5h4C20.777,2.5,21,2.724,21,3S20.777,3.5,20.5,3.5z"
			/>
	</g>
	<g>
		<path class="st0" d="M18.5,5.5C18.224,5.5,18,5.276,18,5V1c0-0.276,0.224-0.5,0.5-0.5S19,0.724,19,1v4
			C19,5.276,18.777,5.5,18.5,5.5z"/>
	</g>
	<g>
		<path class="st0" d="M15,8h-4c-0.276,0-0.5-0.224-0.5-0.5S10.724,7,11,7h4c0.276,0,0.5,0.224,0.5,0.5S15.277,8,15,8z"/>
	</g>
	<g>
		<path class="st0" d="M13,10c-0.276,0-0.5-0.224-0.5-0.5v-4C12.5,5.224,12.724,5,13,5s0.5,0.224,0.5,0.5v4
			C13.5,9.776,13.277,10,13,10z"/>
	</g>
	<g>
		<path class="st0" d="M48,13.5H16c-0.276,0-0.5-0.224-0.5-0.5s0.224-0.5,0.5-0.5h32c0.276,0,0.5,0.224,0.5,0.5S48.276,13.5,48,13.5
			z"/>
	</g>
	<g>
		<path class="st0" d="M48,58.5H16c-0.276,0-0.5-0.224-0.5-0.5s0.224-0.5,0.5-0.5h32c0.276,0,0.5,0.224,0.5,0.5S48.276,58.5,48,58.5
			z"/>
	</g>
	<g>
		<path class="st0" d="M32,63.5c-1.654,0-3-1.346-3-3c0-1.654,1.346-3,3-3c1.655,0,3,1.346,3,3C35.001,62.154,33.655,63.5,32,63.5z
			 M32,58.5c-1.103,0-2,0.897-2,2c0,1.103,0.897,2,2,2c1.103,0,2-0.897,2-2C34.001,59.397,33.104,58.5,32,58.5z"/>
	</g>
	<g>
		<path class="st0" d="M34.501,11h-5c-0.276,0-0.5-0.224-0.5-0.5s0.224-0.5,0.5-0.5h5c0.276,0,0.5,0.224,0.5,0.5
			S34.777,11,34.501,11z"/>
	</g>
	<g>
		<path class="st0" d="M11,32.5c-0.276,0-0.5-0.224-0.5-0.5V18c0-0.276,0.224-0.5,0.5-0.5s0.5,0.224,0.5,0.5v14
			C11.5,32.276,11.277,32.5,11,32.5z"/>
	</g>
	<g>
		<path class="st0" d="M11,36.5c-0.276,0-0.5-0.224-0.5-0.5v-2c0-0.276,0.224-0.5,0.5-0.5s0.5,0.224,0.5,0.5v2
			C11.5,36.276,11.277,36.5,11,36.5z"/>
	</g>
	<g>
		<path class="st0" d="M53,58.5c-0.276,0-0.5-0.224-0.5-0.5V44c0-0.276,0.224-0.5,0.5-0.5s0.5,0.224,0.5,0.5v14
			C53.5,58.276,53.276,58.5,53,58.5z"/>
	</g>
	<g>
		<path class="st0" d="M53,42.5c-0.276,0-0.5-0.224-0.5-0.5v-2c0-0.276,0.224-0.5,0.5-0.5s0.5,0.224,0.5,0.5v2
			C53.5,42.276,53.276,42.5,53,42.5z"/>
	</g>
</g>
</svg>
