<?xml version="1.0" encoding="utf-8"?>
<!-- Generator: Adobe Illustrator 21.1.0, SVG Export Plug-In . SVG Version: 6.00 Build 0)  -->
<svg version="1.1" id="Icon_Set" xmlns="http://www.w3.org/2000/svg" xmlns:xlink="http://www.w3.org/1999/xlink" x="0px" y="0px"
	 viewBox="0 0 64 64" style="enable-background:new 0 0 64 64;" xml:space="preserve">
<style type="text/css">
	.st0{fill:#263238;}
	.st1{fill:#FF5252;}
	.st2{fill:#FFD740;}
	.st3{fill:#40C4FF;}
	.st4{fill:#FFFFFF;}
	.st5{fill:#4DB6AC;}
	.st6{fill:#37474F;}
	.st7{fill:#4FC3F7;}
</style>
<g>
	<g>
		<path class="st2" d="M51,47H13c-0.552,0-1-0.448-1-1V30c0-0.552,0.448-1,1-1h38c0.552,0,1,0.448,1,1v16C52,46.552,51.552,47,51,47
			z"/>
		<path class="st0" d="M51,47.5H13c-0.827,0-1.5-0.673-1.5-1.5V30c0-0.827,0.673-1.5,1.5-1.5h38c0.827,0,1.5,0.673,1.5,1.5v16
			C52.5,46.827,51.827,47.5,51,47.5z M13,29.5c-0.275,0-0.5,0.224-0.5,0.5v16c0,0.276,0.225,0.5,0.5,0.5h38
			c0.275,0,0.5-0.224,0.5-0.5V30c0-0.276-0.225-0.5-0.5-0.5H13z"/>
	</g>
	<g>
		<path class="st0" d="M55.5,53.5h-47c-1.654,0-3-1.346-3-3v-33c0-1.654,1.346-3,3-3h47c1.654,0,3,1.346,3,3v33
			C58.5,52.154,57.154,53.5,55.5,53.5z M8.5,15.5c-1.103,0-2,0.897-2,2v33c0,1.103,0.897,2,2,2h47c1.103,0,2-0.897,2-2v-33
			c0-1.103-0.897-2-2-2H8.5z"/>
	</g>
	<g>
		<path class="st1" d="M58,21H6v-3.5C6,16.119,7.119,15,8.5,15h47c1.381,0,2.5,1.119,2.5,2.5V21z"/>
		<path class="st0" d="M58,21.5H6c-0.276,0-0.5-0.224-0.5-0.5v-3.5c0-1.654,1.346-3,3-3h47c1.654,0,3,1.346,3,3V21
			C58.5,21.276,58.276,21.5,58,21.5z M6.5,20.5h51v-3c0-1.103-0.897-2-2-2h-47c-1.103,0-2,0.897-2,2V20.5z"/>
	</g>
	<g>
		<circle class="st4" cx="23" cy="38" r="6"/>
		<path class="st0" d="M23,44.5c-3.584,0-6.5-2.916-6.5-6.5s2.916-6.5,6.5-6.5s6.5,2.916,6.5,6.5S26.584,44.5,23,44.5z M23,32.5
			c-3.032,0-5.5,2.467-5.5,5.5s2.468,5.5,5.5,5.5s5.5-2.467,5.5-5.5S26.032,32.5,23,32.5z"/>
	</g>
	<g>
		<circle class="st4" cx="41" cy="38" r="6"/>
		<path class="st0" d="M41,44.5c-3.584,0-6.5-2.916-6.5-6.5s2.916-6.5,6.5-6.5s6.5,2.916,6.5,6.5S44.584,44.5,41,44.5z M41,32.5
			c-3.032,0-5.5,2.467-5.5,5.5s2.468,5.5,5.5,5.5s5.5-2.467,5.5-5.5S44.032,32.5,41,32.5z"/>
	</g>
	<g>
		<path class="st0" d="M57.5,9.5h-4C53.224,9.5,53,9.276,53,9s0.224-0.5,0.5-0.5h4C57.776,8.5,58,8.724,58,9S57.776,9.5,57.5,9.5z"
			/>
	</g>
	<g>
		<path class="st0" d="M55.5,11.5c-0.276,0-0.5-0.224-0.5-0.5V7c0-0.276,0.224-0.5,0.5-0.5S56,6.724,56,7v4
			C56,11.276,55.776,11.5,55.5,11.5z"/>
	</g>
	<g>
		<path class="st0" d="M63,14h-4c-0.276,0-0.5-0.224-0.5-0.5S58.724,13,59,13h4c0.276,0,0.5,0.224,0.5,0.5S63.276,14,63,14z"/>
	</g>
	<g>
		<path class="st0" d="M61,16c-0.276,0-0.5-0.224-0.5-0.5v-4c0-0.276,0.224-0.5,0.5-0.5s0.5,0.224,0.5,0.5v4
			C61.5,15.776,61.276,16,61,16z"/>
	</g>
	<g>
		<path class="st0" d="M59,57.5H40.5c-0.276,0-0.5-0.224-0.5-0.5s0.224-0.5,0.5-0.5H59c0.276,0,0.5,0.224,0.5,0.5
			S59.276,57.5,59,57.5z"/>
	</g>
	<g>
		<path class="st0" d="M63,57.5h-2c-0.276,0-0.5-0.224-0.5-0.5s0.224-0.5,0.5-0.5h2c0.276,0,0.5,0.224,0.5,0.5S63.276,57.5,63,57.5z
			"/>
	</g>
	<g>
		<path class="st0" d="M23.5,11.5H5c-0.276,0-0.5-0.224-0.5-0.5s0.224-0.5,0.5-0.5h18.5c0.276,0,0.5,0.224,0.5,0.5
			S23.776,11.5,23.5,11.5z"/>
	</g>
	<g>
		<path class="st0" d="M3,11.5H1c-0.276,0-0.5-0.224-0.5-0.5s0.224-0.5,0.5-0.5h2c0.276,0,0.5,0.224,0.5,0.5S3.276,11.5,3,11.5z"/>
	</g>
	<g>
		<rect x="23" y="29" class="st4" width="18" height="18"/>
		<path class="st0" d="M41,47.5H23c-0.276,0-0.5-0.224-0.5-0.5V29c0-0.276,0.224-0.5,0.5-0.5h18c0.276,0,0.5,0.224,0.5,0.5v18
			C41.5,47.276,41.276,47.5,41,47.5z M23.5,46.5h17v-17h-17V46.5z"/>
	</g>
	<g>
		<path class="st0" d="M37,37H27c-0.276,0-0.5-0.224-0.5-0.5S26.724,36,27,36h10c0.276,0,0.5,0.224,0.5,0.5S37.276,37,37,37z"/>
	</g>
	<g>
		<path class="st0" d="M37,40H27c-0.276,0-0.5-0.224-0.5-0.5S26.724,39,27,39h10c0.276,0,0.5,0.224,0.5,0.5S37.276,40,37,40z"/>
	</g>
</g>
</svg>
