<?xml version="1.0" encoding="utf-8"?>
<!-- Generator: Adobe Illustrator 21.1.0, SVG Export Plug-In . SVG Version: 6.00 Build 0)  -->
<svg version="1.1" id="Icon_Set" xmlns="http://www.w3.org/2000/svg" xmlns:xlink="http://www.w3.org/1999/xlink" x="0px" y="0px"
	 viewBox="0 0 64 64" style="enable-background:new 0 0 64 64;" xml:space="preserve">
<style type="text/css">
	.st0{fill:#263238;}
	.st1{fill:#FF5252;}
	.st2{fill:#FFD740;}
	.st3{fill:#40C4FF;}
	.st4{fill:#FFFFFF;}
	.st5{fill:#4DB6AC;}
	.st6{fill:#37474F;}
	.st7{fill:#4FC3F7;}
</style>
<g>
	<g>
		<path class="st0" d="M35.5,43h-7C21.607,43,16,37.393,16,30.5v-7c0-0.276,0.224-0.5,0.5-0.5H18c0.276,0,0.5,0.224,0.5,0.5
			S18.276,24,18,24h-1v6.5C17,36.841,22.159,42,28.5,42h7C41.841,42,47,36.841,47,30.5V24h-1c-0.276,0-0.5-0.224-0.5-0.5
			S45.724,23,46,23h1.5c0.276,0,0.5,0.224,0.5,0.5v7C48,37.393,42.393,43,35.5,43z"/>
	</g>
	<g>
		<path class="st0" d="M35.5,46h-7C19.953,46,13,39.047,13,30.5V22c0-1.103,0.897-2,2-2h3c0.276,0,0.5,0.224,0.5,0.5
			S18.276,21,18,21h-3c-0.551,0-1,0.449-1,1v8.5C14,38.495,20.505,45,28.5,45h7C43.495,45,50,38.495,50,30.5V22c0-0.551-0.449-1-1-1
			h-3c-0.276,0-0.5-0.224-0.5-0.5S45.724,20,46,20h3c1.103,0,2,0.897,2,2v8.5C51,39.047,44.047,46,35.5,46z"/>
	</g>
	<g>
		<path class="st0" d="M42,20.5H22c-0.276,0-0.5-0.224-0.5-0.5v-7.5c0-4.411,3.589-8,8-8h5H34.5c2.137,0,4.145,0.832,5.656,2.343
			c1.511,1.511,2.343,3.52,2.343,5.657V20C42.5,20.276,42.276,20.5,42,20.5z M22.5,19.5h19v-7c0-1.87-0.728-3.628-2.05-4.95
			C38.127,6.228,36.37,5.5,34.5,5.5H34.5h-5c-3.86,0-7,3.14-7,7V19.5z"/>
	</g>
	<g>
		<path class="st2" d="M21.999,24v7.5c0,4.142,3.358,7.5,7.5,7.5h5c4.142,0,7.5-3.358,7.5-7.5V24H21.999z"/>
		<path class="st0" d="M34.5,39.5h-5c-4.411,0-8-3.589-8-8V24c0-0.276,0.224-0.5,0.5-0.5h20c0.276,0,0.5,0.224,0.5,0.5v7.5
			C42.5,35.911,38.911,39.5,34.5,39.5z M22.5,24.5v7c0,3.86,3.14,7,7,7h5c3.86,0,7-3.141,7-7v-7H22.5z"/>
	</g>
	<g>
		<path class="st0" d="M39,32c-0.276,0-0.5-0.224-0.5-0.5V27c0-0.276,0.224-0.5,0.5-0.5s0.5,0.224,0.5,0.5v4.5
			C39.5,31.776,39.276,32,39,32z"/>
	</g>
	<g>
		<circle class="st0" cx="27.999" cy="9.5" r="1"/>
	</g>
	<g>
		<circle class="st0" cx="31.999" cy="9.5" r="1"/>
	</g>
	<g>
		<circle class="st0" cx="35.999" cy="9.5" r="1"/>
	</g>
	<g>
		<circle class="st0" cx="27.999" cy="13.5" r="1"/>
	</g>
	<g>
		<circle class="st0" cx="31.999" cy="13.5" r="1"/>
	</g>
	<g>
		<circle class="st0" cx="35.999" cy="13.5" r="1"/>
	</g>
	<g>
		<circle class="st0" cx="27.999" cy="17.5" r="1"/>
	</g>
	<g>
		<circle class="st0" cx="31.999" cy="17.5" r="1"/>
	</g>
	<g>
		<circle class="st0" cx="35.999" cy="17.5" r="1"/>
	</g>
	<g>
		<rect x="20" y="20" class="st3" width="24" height="4"/>
		<path class="st0" d="M44,24.5H20c-0.276,0-0.5-0.224-0.5-0.5v-4c0-0.276,0.224-0.5,0.5-0.5h24c0.276,0,0.5,0.224,0.5,0.5v4
			C44.5,24.276,44.276,24.5,44,24.5z M20.5,23.5h23v-3h-23V23.5z"/>
	</g>
	<g>
		<path class="st0" d="M58,19h-4c-0.276,0-0.5-0.224-0.5-0.5S53.724,18,54,18h4c0.276,0,0.5,0.224,0.5,0.5S58.276,19,58,19z"/>
	</g>
	<g>
		<path class="st0" d="M52.5,14.5h-4c-0.276,0-0.5-0.224-0.5-0.5s0.224-0.5,0.5-0.5h4c0.276,0,0.5,0.224,0.5,0.5
			S52.776,14.5,52.5,14.5z"/>
	</g>
	<g>
		<path class="st0" d="M50.5,16.5c-0.276,0-0.5-0.224-0.5-0.5v-4c0-0.276,0.224-0.5,0.5-0.5S51,11.724,51,12v4
			C51,16.276,50.776,16.5,50.5,16.5z"/>
	</g>
	<g>
		<path class="st0" d="M56,21c-0.276,0-0.5-0.224-0.5-0.5v-4c0-0.276,0.224-0.5,0.5-0.5s0.5,0.224,0.5,0.5v4
			C56.5,20.776,56.276,21,56,21z"/>
	</g>
	<g>
		<path class="st0" d="M55,50H44c-0.276,0-0.5-0.224-0.5-0.5S43.724,49,44,49h11c0.276,0,0.5,0.224,0.5,0.5S55.276,50,55,50z"/>
	</g>
	<g>
		<path class="st0" d="M59,50h-2c-0.276,0-0.5-0.224-0.5-0.5S56.724,49,57,49h2c0.276,0,0.5,0.224,0.5,0.5S59.276,50,59,50z"/>
	</g>
	<g>
		<path class="st0" d="M20,50H9c-0.276,0-0.5-0.224-0.5-0.5S8.724,49,9,49h11c0.276,0,0.5,0.224,0.5,0.5S20.276,50,20,50z"/>
	</g>
	<g>
		<path class="st0" d="M7,50H5c-0.276,0-0.5-0.224-0.5-0.5S4.724,49,5,49h2c0.276,0,0.5,0.224,0.5,0.5S7.276,50,7,50z"/>
	</g>
	<g>
		<path class="st0" d="M30.5,52.5c-0.276,0-0.5-0.224-0.5-0.5v-6.5c0-0.276,0.224-0.5,0.5-0.5s0.5,0.224,0.5,0.5V52
			C31,52.276,30.776,52.5,30.5,52.5z"/>
	</g>
	<g>
		<path class="st0" d="M33.5,52.5c-0.276,0-0.5-0.224-0.5-0.5v-6.5c0-0.276,0.224-0.5,0.5-0.5s0.5,0.224,0.5,0.5V52
			C34,52.276,33.776,52.5,33.5,52.5z"/>
	</g>
	<g>
		<path class="st0" d="M44,59.5H20c-0.276,0-0.5-0.224-0.5-0.5c0-3.032,2.467-5.5,5.5-5.5h14c3.033,0,5.5,2.468,5.5,5.5
			C44.5,59.276,44.276,59.5,44,59.5z M20.528,58.5h22.944c-0.25-2.247-2.16-4-4.472-4H25C22.687,54.5,20.777,56.253,20.528,58.5z"/>
	</g>
</g>
</svg>
