<?xml version="1.0" encoding="utf-8"?>
<!-- Generator: Adobe Illustrator 21.1.0, SVG Export Plug-In . SVG Version: 6.00 Build 0)  -->
<svg version="1.1" id="Icon_Set" xmlns="http://www.w3.org/2000/svg" xmlns:xlink="http://www.w3.org/1999/xlink" x="0px" y="0px"
	 viewBox="0 0 64 64" style="enable-background:new 0 0 64 64;" xml:space="preserve">
<style type="text/css">
	.st0{fill:#263238;}
	.st1{fill:#FF5252;}
	.st2{fill:#FFD740;}
	.st3{fill:#40C4FF;}
	.st4{fill:#FFFFFF;}
	.st5{fill:#4DB6AC;}
	.st6{fill:#37474F;}
	.st7{fill:#4FC3F7;}
</style>
<g>
	<g>
		<path class="st0" d="M46.556,46.057c-0.128,0-0.256-0.049-0.354-0.146c-0.195-0.195-0.195-0.512,0-0.707
			C50.264,41.142,52.5,35.743,52.5,30c0-0.276,0.224-0.5,0.5-0.5s0.5,0.224,0.5,0.5c0,6.01-2.341,11.66-6.591,15.91
			C46.812,46.008,46.684,46.057,46.556,46.057z M9,30.5c-0.276,0-0.5-0.224-0.5-0.5c0-6.01,2.341-11.66,6.591-15.91
			c0.195-0.195,0.512-0.195,0.707,0s0.195,0.512,0,0.707C11.736,18.858,9.5,24.257,9.5,30C9.5,30.276,9.276,30.5,9,30.5z"/>
	</g>
	<g>
		<path class="st3" d="M43.728,42.728c7.029-7.029,7.029-18.426,0-25.456c-7.029-7.029-18.426-7.029-25.456,0
			s-7.029,18.426,0,25.456C25.302,49.757,36.699,49.757,43.728,42.728z M21.454,20.454c5.272-5.272,13.82-5.272,19.092,0
			c5.272,5.272,5.272,13.82,0,19.092s-13.82,5.272-19.092,0C16.182,34.274,16.182,25.726,21.454,20.454z"/>
		<path class="st0" d="M31,48.491c-4.737,0-9.475-1.803-13.081-5.41C14.425,39.587,12.5,34.941,12.5,30
			c0-4.942,1.925-9.587,5.419-13.082c7.214-7.213,18.95-7.212,26.162,0C47.575,20.413,49.5,25.058,49.5,30
			c0,4.941-1.925,9.587-5.419,13.082l0,0l0,0C40.475,46.688,35.737,48.491,31,48.491z M31,12.508c-4.481,0-8.963,1.706-12.374,5.117
			C15.32,20.931,13.5,25.325,13.5,30c0,4.674,1.82,9.069,5.126,12.375c6.822,6.823,17.926,6.823,24.748,0l0,0
			C46.68,39.069,48.5,34.674,48.5,30c0-4.675-1.82-9.069-5.126-12.375C39.963,14.214,35.481,12.508,31,12.508z M31,43.993
			c-3.585,0-7.17-1.365-9.899-4.094C18.456,37.255,17,33.74,17,30s1.456-7.255,4.101-9.899c5.459-5.458,14.34-5.458,19.799,0
			C43.544,22.745,45,26.26,45,30s-1.456,7.255-4.101,9.899C38.17,42.628,34.585,43.993,31,43.993z M31,17.006
			c-3.329,0-6.658,1.267-9.192,3.801C19.353,23.263,18,26.527,18,30s1.353,6.737,3.808,9.192c5.068,5.068,13.316,5.068,18.385,0
			C42.647,36.737,44,33.473,44,30s-1.353-6.737-3.808-9.192C37.658,18.273,34.329,17.006,31,17.006z"/>
	</g>
	<g>
		<path class="st0" d="M31,36.5c-1.736,0-3.368-0.676-4.596-1.904l0,0l0,0C25.177,33.369,24.5,31.736,24.5,30
			s0.677-3.369,1.904-4.596S29.264,23.5,31,23.5s3.368,0.676,4.596,1.904S37.5,28.264,37.5,30s-0.677,3.369-1.904,4.596
			S32.736,36.5,31,36.5z M31,24.5c-1.469,0-2.85,0.572-3.889,1.611S25.5,28.531,25.5,30s0.572,2.85,1.611,3.889l0,0
			C28.15,34.928,29.531,35.5,31,35.5s2.85-0.572,3.889-1.611S36.5,31.469,36.5,30s-0.572-2.85-1.611-3.889S32.469,24.5,31,24.5z"/>
	</g>
	<g>
		<path class="st0" d="M33.5,29.5c-1.379,0-2.5-1.122-2.5-2.5s1.121-2.5,2.5-2.5S36,25.622,36,27S34.879,29.5,33.5,29.5z M33.5,25.5
			c-0.827,0-1.5,0.673-1.5,1.5s0.673,1.5,1.5,1.5S35,27.827,35,27S34.327,25.5,33.5,25.5z"/>
	</g>
	<g>
		<path class="st2" d="M35,58h-8v-4c0-0.552,0.448-1,1-1h6c0.552,0,1,0.448,1,1V58z"/>
		<path class="st0" d="M35,58.5h-8c-0.276,0-0.5-0.224-0.5-0.5v-4c0-0.827,0.673-1.5,1.5-1.5h6c0.827,0,1.5,0.673,1.5,1.5v4
			C35.5,58.276,35.276,58.5,35,58.5z M27.5,57.5h7V54c0-0.276-0.225-0.5-0.5-0.5h-6c-0.275,0-0.5,0.224-0.5,0.5V57.5z"/>
	</g>
	<g>
		<path class="st0" d="M9,33.5c-0.276,0-0.5-0.224-0.5-0.5v-1c0-0.276,0.224-0.5,0.5-0.5s0.5,0.224,0.5,0.5v1
			C9.5,33.276,9.276,33.5,9,33.5z"/>
	</g>
	<g>
		<path class="st0" d="M53,28.5c-0.276,0-0.5-0.224-0.5-0.5v-1c0-0.276,0.224-0.5,0.5-0.5s0.5,0.224,0.5,0.5v1
			C53.5,28.276,53.276,28.5,53,28.5z"/>
	</g>
	<g>
		<path class="st0" d="M48,8.5h-4c-0.276,0-0.5-0.224-0.5-0.5s0.224-0.5,0.5-0.5h4c0.276,0,0.5,0.224,0.5,0.5S48.276,8.5,48,8.5z"/>
	</g>
	<g>
		<path class="st0" d="M46,10.5c-0.276,0-0.5-0.224-0.5-0.5V6c0-0.276,0.224-0.5,0.5-0.5s0.5,0.224,0.5,0.5v4
			C46.5,10.276,46.276,10.5,46,10.5z"/>
	</g>
	<g>
		<path class="st0" d="M55,15h-4c-0.276,0-0.5-0.224-0.5-0.5S50.724,14,51,14h4c0.276,0,0.5,0.224,0.5,0.5S55.276,15,55,15z"/>
	</g>
	<g>
		<path class="st0" d="M53,17c-0.276,0-0.5-0.224-0.5-0.5v-4c0-0.276,0.224-0.5,0.5-0.5s0.5,0.224,0.5,0.5v4
			C53.5,16.776,53.276,17,53,17z"/>
	</g>
	<g>
		<path class="st0" d="M43,58.5H19c-0.276,0-0.5-0.224-0.5-0.5c0-3.848,1.742-7.426,4.778-9.817c0.216-0.171,0.53-0.134,0.702,0.083
			c0.171,0.217,0.134,0.532-0.083,0.702c-2.663,2.097-4.243,5.184-4.387,8.532h22.979c-0.144-3.348-1.724-6.435-4.387-8.532
			c-0.217-0.17-0.254-0.485-0.083-0.702c0.172-0.216,0.486-0.253,0.702-0.083C41.758,50.574,43.5,54.152,43.5,58
			C43.5,58.276,43.276,58.5,43,58.5z"/>
	</g>
</g>
</svg>
