<?xml version="1.0" encoding="utf-8"?>
<!-- Generator: Adobe Illustrator 21.1.0, SVG Export Plug-In . SVG Version: 6.00 Build 0)  -->
<svg version="1.1" id="Icon_Set" xmlns="http://www.w3.org/2000/svg" xmlns:xlink="http://www.w3.org/1999/xlink" x="0px" y="0px"
	 viewBox="0 0 64 64" style="enable-background:new 0 0 64 64;" xml:space="preserve">
<style type="text/css">
	.st0{fill:#263238;}
	.st1{fill:#FF5252;}
	.st2{fill:#FFD740;}
	.st3{fill:#40C4FF;}
	.st4{fill:#FFFFFF;}
	.st5{fill:#4DB6AC;}
	.st6{fill:#37474F;}
	.st7{fill:#4FC3F7;}
</style>
<g>
	<g>
		<circle class="st3" cx="32" cy="32" r="24"/>
		<path class="st0" d="M32,56.5C18.491,56.5,7.5,45.51,7.5,32S18.491,7.5,32,7.5S56.5,18.49,56.5,32S45.509,56.5,32,56.5z M32,8.5
			C19.042,8.5,8.5,19.042,8.5,32S19.042,55.5,32,55.5S55.5,44.958,55.5,32S44.958,8.5,32,8.5z"/>
	</g>
	<g>
		<path class="st0" d="M56,32.5H8c-0.276,0-0.5-0.224-0.5-0.5s0.224-0.5,0.5-0.5h48c0.276,0,0.5,0.224,0.5,0.5S56.276,32.5,56,32.5z
			"/>
	</g>
	<g>
		<path class="st0" d="M32,56.5c-6.893,0-12.5-10.99-12.5-24.5S25.107,7.5,32,7.5S44.5,18.49,44.5,32S38.893,56.5,32,56.5z M32,8.5
			c-6.341,0-11.5,10.542-11.5,23.5S25.659,55.5,32,55.5S43.5,44.958,43.5,32S38.341,8.5,32,8.5z"/>
	</g>
	<g>
		<path class="st0" d="M32,56.5c-6.956,0-13.609-2.977-18.256-8.166c-0.101-0.113-0.146-0.267-0.121-0.416
			c0.025-0.15,0.117-0.28,0.25-0.354C18.497,44.981,25.104,43.5,32,43.5s13.503,1.481,18.127,4.063
			c0.133,0.074,0.225,0.204,0.25,0.354c0.025,0.149-0.02,0.303-0.121,0.416C45.609,53.523,38.956,56.5,32,56.5z M14.919,48.135
			C19.352,52.823,25.541,55.5,32,55.5s12.648-2.677,17.081-7.365C44.633,45.819,38.456,44.5,32,44.5S19.367,45.819,14.919,48.135z"
			/>
	</g>
	<g>
		<path class="st0" d="M32,20.5c-6.896,0-13.503-1.481-18.127-4.063c-0.133-0.074-0.225-0.204-0.25-0.354
			c-0.025-0.149,0.02-0.303,0.121-0.415C18.39,10.477,25.043,7.5,32,7.5s13.61,2.977,18.256,8.167
			c0.101,0.112,0.146,0.266,0.121,0.415c-0.025,0.15-0.117,0.28-0.25,0.354C45.503,19.019,38.896,20.5,32,20.5z M14.919,15.865
			C19.367,18.181,25.544,19.5,32,19.5s12.633-1.319,17.081-3.635C44.649,11.177,38.46,8.5,32,8.5S19.351,11.177,14.919,15.865z"/>
	</g>
	<g>
		<path class="st0" d="M32,56.5c-0.276,0-0.5-0.224-0.5-0.5V8c0-0.276,0.224-0.5,0.5-0.5s0.5,0.224,0.5,0.5v48
			C32.5,56.276,32.276,56.5,32,56.5z"/>
	</g>
	<g>
		<path class="st0" d="M4,32.5c-0.276,0-0.5-0.224-0.5-0.5C3.5,16.285,16.285,3.5,32,3.5c0.276,0,0.5,0.224,0.5,0.5
			S32.276,4.5,32,4.5C16.836,4.5,4.5,16.837,4.5,32C4.5,32.276,4.276,32.5,4,32.5z"/>
	</g>
	<g>
		<path class="st0" d="M35,4.5h-1c-0.276,0-0.5-0.224-0.5-0.5s0.224-0.5,0.5-0.5h1c0.276,0,0.5,0.224,0.5,0.5S35.276,4.5,35,4.5z"/>
	</g>
	<g>
		<path class="st0" d="M32,60.5c-0.276,0-0.5-0.224-0.5-0.5s0.224-0.5,0.5-0.5c15.164,0,27.5-12.337,27.5-27.5
			c0-0.276,0.224-0.5,0.5-0.5s0.5,0.224,0.5,0.5C60.5,47.715,47.715,60.5,32,60.5z"/>
	</g>
	<g>
		<path class="st0" d="M30,60.5h-1c-0.276,0-0.5-0.224-0.5-0.5s0.224-0.5,0.5-0.5h1c0.276,0,0.5,0.224,0.5,0.5S30.276,60.5,30,60.5z
			"/>
	</g>
	<g>
		<path class="st0" d="M53,6.5h-4c-0.276,0-0.5-0.224-0.5-0.5s0.224-0.5,0.5-0.5h4c0.276,0,0.5,0.224,0.5,0.5S53.276,6.5,53,6.5z"/>
	</g>
	<g>
		<path class="st0" d="M51,8.5c-0.276,0-0.5-0.224-0.5-0.5V4c0-0.276,0.224-0.5,0.5-0.5s0.5,0.224,0.5,0.5v4
			C51.5,8.276,51.276,8.5,51,8.5z"/>
	</g>
	<g>
		<path class="st0" d="M60,13h-4c-0.276,0-0.5-0.224-0.5-0.5S55.724,12,56,12h4c0.276,0,0.5,0.224,0.5,0.5S60.276,13,60,13z"/>
	</g>
	<g>
		<path class="st0" d="M58,15c-0.276,0-0.5-0.224-0.5-0.5v-4c0-0.276,0.224-0.5,0.5-0.5s0.5,0.224,0.5,0.5v4
			C58.5,14.776,58.276,15,58,15z"/>
	</g>
</g>
</svg>
