<?xml version="1.0" encoding="utf-8"?>
<!-- Generator: Adobe Illustrator 22.0.0, SVG Export Plug-In . SVG Version: 6.00 Build 0)  -->
<svg version="1.1" id="Layer_1" xmlns="http://www.w3.org/2000/svg" xmlns:xlink="http://www.w3.org/1999/xlink" x="0px" y="0px"
	 viewBox="0 0 64 64" style="enable-background:new 0 0 64 64;" xml:space="preserve">
<style type="text/css">
	.st0{fill:#263238;}
	.st1{fill:#4FC3F7;}
	.st2{fill:#FFD740;}
	.st3{fill:#FF5252;}
	.st4{fill:#4DB6AC;}
	.st5{fill:#FFFFFF;}
	.st6{fill:#40C4FF;}
	.st7{fill:#A2A2A1;}
	.st8{fill:#212A41;}
</style>
<g>
	<g>
		<rect x="11" y="32" class="st2" width="15.306" height="4"/>
	</g>
	<g>
		<path class="st1" d="M54.949,49c-0.252,2.244-2.139,4-4.449,4H35.107c-0.996,0-1.92-0.681-2.08-1.664
			C32.823,50.083,33.785,49,35,49h-4.051c-0.252,2.244-2.139,4-4.449,4H11.107c-0.996,0-1.92-0.681-2.08-1.664
			C8.823,50.083,9.785,49,11,49H0v0c0,6.627,5.373,12,12,12h40c6.627,0,12-5.373,12-12v0H54.949z"/>
	</g>
	<g>
		<path class="st0" d="M21.5,15.5h-2c-0.276,0-0.5-0.224-0.5-0.5s0.224-0.5,0.5-0.5h2c0.276,0,0.5,0.224,0.5,0.5
			S21.776,15.5,21.5,15.5z"/>
	</g>
	<g>
		<path class="st0" d="M34.5,15.5h-11c-0.276,0-0.5-0.224-0.5-0.5s0.224-0.5,0.5-0.5h11c0.276,0,0.5,0.224,0.5,0.5
			S34.776,15.5,34.5,15.5z"/>
	</g>
	<g>
		<path class="st0" d="M39.5,12.5h-12c-0.276,0-0.5-0.224-0.5-0.5s0.224-0.5,0.5-0.5h12c0.276,0,0.5,0.224,0.5,0.5
			S39.776,12.5,39.5,12.5z"/>
	</g>
	<g>
		<path class="st1" d="M4.5,6c0-1.657,1.343-3,3-3s3,1.343,3,3c1.657,0,3,1.343,3,3s-1.343,3-3,3h-6c-1.657,0-3-1.343-3-3
			S2.843,6,4.5,6z"/>
	</g>
	<g>
		<path class="st0" d="M57,7.5h-4c-0.276,0-0.5-0.224-0.5-0.5s0.224-0.5,0.5-0.5h4c0.276,0,0.5,0.224,0.5,0.5S57.276,7.5,57,7.5z"/>
	</g>
	<g>
		<path class="st0" d="M55,9.5c-0.276,0-0.5-0.224-0.5-0.5V5c0-0.276,0.224-0.5,0.5-0.5s0.5,0.224,0.5,0.5v4
			C55.5,9.276,55.276,9.5,55,9.5z"/>
	</g>
	<g>
		<path class="st0" d="M52,12.5h-4c-0.276,0-0.5-0.224-0.5-0.5s0.224-0.5,0.5-0.5h4c0.276,0,0.5,0.224,0.5,0.5S52.276,12.5,52,12.5z
			"/>
	</g>
	<g>
		<path class="st0" d="M50,14.5c-0.276,0-0.5-0.224-0.5-0.5v-4c0-0.276,0.224-0.5,0.5-0.5s0.5,0.224,0.5,0.5v4
			C50.5,14.276,50.276,14.5,50,14.5z"/>
	</g>
	<g>
		<path class="st1" d="M56,23c0-1.105,0.895-2,2-2s2,0.895,2,2c1.105,0,2,0.895,2,2c0,1.105-0.895,2-2,2h-4c-1.105,0-2-0.895-2-2
			C54,23.895,54.896,23,56,23z"/>
	</g>
	<g>
		<path class="st0" d="M50.5,51.5H35c-0.276,0-0.5-0.224-0.5-0.5s0.224-0.5,0.5-0.5h15.5c1.103,0,2-0.897,2-2
			c0-0.276,0.224-0.5,0.5-0.5s0.5,0.224,0.5,0.5C53.5,50.154,52.154,51.5,50.5,51.5z"/>
	</g>
	<g>
		<path class="st0" d="M26.5,51.5H11c-0.276,0-0.5-0.224-0.5-0.5s0.224-0.5,0.5-0.5h15.5c1.103,0,2-0.897,2-2
			c0-0.276,0.224-0.5,0.5-0.5s0.5,0.224,0.5,0.5C29.5,50.154,28.154,51.5,26.5,51.5z"/>
	</g>
	<g>
		<path class="st0" d="M48.5,46.5H16c-0.133,0-0.26-0.053-0.354-0.146l-5-5C10.553,41.26,10.5,41.133,10.5,41V29
			c0-0.276,0.224-0.5,0.5-0.5h26.648c0.972,0,1.93,0.259,2.771,0.749l10.833,6.319C51.406,35.658,51.5,35.822,51.5,36v7.5
			C51.5,45.154,50.154,46.5,48.5,46.5z M16.207,45.5H48.5c1.103,0,2-0.897,2-2v-7.213l-10.584-6.175
			c-0.688-0.4-1.472-0.612-2.267-0.612H11.5v11.293L16.207,45.5z"/>
	</g>
	<g>
		<path class="st0" d="M11,40H7.5c-1.654,0-3-1.346-3-3s1.346-3,3-3H11c0.276,0,0.5,0.224,0.5,0.5v5C11.5,39.776,11.276,40,11,40z
			 M7.5,35c-1.103,0-2,0.897-2,2s0.897,2,2,2h3v-4H7.5z"/>
	</g>
	<g>
		<path class="st0" d="M8,45c-0.276,0-0.5-0.224-0.5-0.5v-15C7.5,29.224,7.724,29,8,29s0.5,0.224,0.5,0.5v15
			C8.5,44.776,8.276,45,8,45z"/>
	</g>
	<g>
		<path class="st0" d="M23,29.5H11c-0.276,0-0.5-0.224-0.5-0.5v-2c0-0.827,0.673-1.5,1.5-1.5h6c0.091,0,0.18,0.024,0.257,0.071l5,3
			c0.193,0.115,0.285,0.346,0.225,0.562C23.422,29.35,23.225,29.5,23,29.5z M11.5,28.5h9.695l-3.333-2H12
			c-0.276,0-0.5,0.225-0.5,0.5V28.5z"/>
	</g>
	<g>
		<path class="st0" d="M51,36.5H26.306c-0.276,0-0.5-0.224-0.5-0.5v-4c0-0.276,0.224-0.5,0.5-0.5h17.837
			c0.088,0,0.175,0.023,0.252,0.068l6.857,4c0.195,0.113,0.29,0.344,0.231,0.562C51.424,36.349,51.226,36.5,51,36.5z M26.806,35.5
			H49.15l-5.143-3H26.806V35.5z"/>
	</g>
	<g>
		<path class="st0" d="M36.306,36.5c-0.276,0-0.5-0.224-0.5-0.5v-4c0-0.276,0.224-0.5,0.5-0.5s0.5,0.224,0.5,0.5v4
			C36.806,36.276,36.583,36.5,36.306,36.5z"/>
	</g>
	<g>
		<path class="st0" d="M24,51.5c-0.276,0-0.5-0.224-0.5-0.5v-3c0-0.276,0.224-0.5,0.5-0.5s0.5,0.224,0.5,0.5v3
			C24.5,51.276,24.276,51.5,24,51.5z"/>
	</g>
	<g>
		<path class="st0" d="M16,51.5c-0.276,0-0.5-0.224-0.5-0.5v-3c0-0.276,0.224-0.5,0.5-0.5s0.5,0.224,0.5,0.5v3
			C16.5,51.276,16.276,51.5,16,51.5z"/>
	</g>
	<g>
		<path class="st0" d="M48,51.5c-0.276,0-0.5-0.224-0.5-0.5v-3c0-0.276,0.224-0.5,0.5-0.5s0.5,0.224,0.5,0.5v3
			C48.5,51.276,48.276,51.5,48,51.5z"/>
	</g>
	<g>
		<path class="st0" d="M40,51.5c-0.276,0-0.5-0.224-0.5-0.5v-3c0-0.276,0.224-0.5,0.5-0.5s0.5,0.224,0.5,0.5v3
			C40.5,51.276,40.276,51.5,40,51.5z"/>
	</g>
	<g>
		<path class="st0" d="M48,43.5c-0.276,0-0.5-0.224-0.5-0.5v-4c0-0.276,0.224-0.5,0.5-0.5s0.5,0.224,0.5,0.5v4
			C48.5,43.276,48.276,43.5,48,43.5z"/>
	</g>
</g>
</svg>
