<?xml version="1.0" encoding="utf-8"?>
<!-- Generator: Adobe Illustrator 22.0.0, SVG Export Plug-In . SVG Version: 6.00 Build 0)  -->
<svg version="1.1" id="Layer_1" xmlns="http://www.w3.org/2000/svg" xmlns:xlink="http://www.w3.org/1999/xlink" x="0px" y="0px"
	 viewBox="0 0 64 64" style="enable-background:new 0 0 64 64;" xml:space="preserve">
<style type="text/css">
	.st0{fill:#263238;}
	.st1{fill:#4FC3F7;}
	.st2{fill:#FFD740;}
	.st3{fill:#FF5252;}
	.st4{fill:#4DB6AC;}
	.st5{fill:#FFFFFF;}
	.st6{fill:#40C4FF;}
	.st7{fill:#A2A2A1;}
	.st8{fill:#212A41;}
</style>
<g>
	<g>
		<path class="st1" d="M54.5,55c0-1.105-0.895-2-2-2s-2,0.895-2,2c-1.105,0-2,0.895-2,2s0.895,2,2,2h4c1.105,0,2-0.895,2-2
			S55.605,55,54.5,55z"/>
	</g>
	<g>
		<path class="st1" d="M8,8c0-1.657,1.343-3,3-3s3,1.343,3,3c1.657,0,3,1.343,3,3s-1.343,3-3,3H8c-1.657,0-3-1.343-3-3S6.343,8,8,8z
			"/>
	</g>
	<g>
		<path class="st0" d="M53.5,13.5h-4c-0.276,0-0.5-0.224-0.5-0.5s0.224-0.5,0.5-0.5h4c0.276,0,0.5,0.224,0.5,0.5
			S53.776,13.5,53.5,13.5z"/>
	</g>
	<g>
		<path class="st0" d="M51.5,15.5c-0.276,0-0.5-0.224-0.5-0.5v-4c0-0.276,0.224-0.5,0.5-0.5S52,10.724,52,11v4
			C52,15.276,51.776,15.5,51.5,15.5z"/>
	</g>
	<g>
		<path class="st0" d="M59.5,17h-4c-0.276,0-0.5-0.224-0.5-0.5s0.224-0.5,0.5-0.5h4c0.276,0,0.5,0.224,0.5,0.5S59.776,17,59.5,17z"
			/>
	</g>
	<g>
		<path class="st0" d="M57.5,19c-0.276,0-0.5-0.224-0.5-0.5v-4c0-0.276,0.224-0.5,0.5-0.5s0.5,0.224,0.5,0.5v4
			C58,18.776,57.776,19,57.5,19z"/>
	</g>
	<g>
		<path class="st0" d="M31.5,41.143C19.139,41.143,6,39.165,6,35.5s13.139-5.643,25.5-5.643S57,31.835,57,35.5
			S43.861,41.143,31.5,41.143z M31.5,30.857C17.062,30.857,7,33.304,7,35.5s10.062,4.643,24.5,4.643S56,37.696,56,35.5
			S45.938,30.857,31.5,30.857z"/>
	</g>
	<g>
		<path class="st0" d="M31.5,48C17.439,48,6,42.393,6,35.5S17.439,23,31.5,23S57,28.607,57,35.5S45.561,48,31.5,48z M31.5,24
			C17.99,24,7,29.159,7,35.5S17.99,47,31.5,47S56,41.841,56,35.5S45.01,24,31.5,24z"/>
	</g>
	<g>
		<path class="st2" d="M17.348,25.609L15.72,22.76c-0.445-0.779-1.273-1.26-2.171-1.26H9l1.112,7.784
			C11.955,27.826,14.428,26.573,17.348,25.609z"/>
		<path class="st0" d="M10.112,29.783c-0.062,0-0.125-0.012-0.186-0.036c-0.166-0.065-0.284-0.216-0.31-0.394L8.505,21.57
			c-0.021-0.144,0.022-0.288,0.117-0.397C8.717,21.062,8.855,21,9,21h4.549c1.074,0,2.072,0.579,2.605,1.512l1.628,2.85
			c0.074,0.13,0.086,0.287,0.032,0.427c-0.054,0.141-0.168,0.249-0.31,0.296c-2.854,0.942-5.303,2.185-7.082,3.592
			C10.333,29.746,10.223,29.783,10.112,29.783z M9.576,22l0.912,6.377c1.665-1.183,3.719-2.204,6.125-3.046l-1.328-2.323
			C14.931,22.386,14.265,22,13.549,22H9.576z"/>
	</g>
	<g>
		<path class="st2" d="M10.112,41.716L9,49.5h4.549c0.897,0,1.725-0.481,2.171-1.26l1.628-2.849
			C14.429,44.427,11.955,43.174,10.112,41.716z"/>
		<path class="st0" d="M13.549,50H9c-0.145,0-0.283-0.062-0.378-0.173c-0.095-0.109-0.138-0.254-0.117-0.397l1.112-7.783
			c0.025-0.178,0.144-0.328,0.31-0.394c0.168-0.068,0.355-0.039,0.496,0.071c1.779,1.407,4.229,2.649,7.082,3.592
			c0.142,0.047,0.256,0.155,0.31,0.296c0.054,0.14,0.042,0.297-0.032,0.427l-1.628,2.85C15.621,49.421,14.623,50,13.549,50z
			 M9.576,49h3.973c0.716,0,1.382-0.386,1.736-1.008l1.328-2.323c-2.406-0.842-4.46-1.863-6.125-3.046L9.576,49z"/>
	</g>
	<g>
		<path class="st0" d="M35.455,53h-7.91c-1.144,0-2.172-0.636-2.684-1.658l-0.809-1.618c-0.123-0.247-0.023-0.548,0.224-0.671
			c0.248-0.124,0.547-0.023,0.671,0.224l0.809,1.618C26.097,51.576,26.782,52,27.545,52h7.91c0.763,0,1.448-0.424,1.789-1.105
			l0.809-1.618c0.125-0.246,0.424-0.347,0.671-0.224s0.347,0.424,0.224,0.671l-0.809,1.618C37.627,52.364,36.599,53,35.455,53z"/>
	</g>
	<g>
		<path class="st0" d="M25.25,13.5h-2c-0.276,0-0.5-0.224-0.5-0.5s0.224-0.5,0.5-0.5h2c0.276,0,0.5,0.224,0.5,0.5
			S25.526,13.5,25.25,13.5z"/>
	</g>
	<g>
		<path class="st0" d="M36.75,13.5h-9.5c-0.276,0-0.5-0.224-0.5-0.5s0.224-0.5,0.5-0.5h9.5c0.276,0,0.5,0.224,0.5,0.5
			S37.026,13.5,36.75,13.5z"/>
	</g>
	<g>
		<path class="st0" d="M40.75,16.5h-10.5c-0.276,0-0.5-0.224-0.5-0.5s0.224-0.5,0.5-0.5h10.5c0.276,0,0.5,0.224,0.5,0.5
			S41.026,16.5,40.75,16.5z"/>
	</g>
</g>
</svg>
