<?xml version="1.0" encoding="utf-8"?>
<!-- Generator: Adobe Illustrator 22.0.0, SVG Export Plug-In . SVG Version: 6.00 Build 0)  -->
<svg version="1.1" id="Layer_1" xmlns="http://www.w3.org/2000/svg" xmlns:xlink="http://www.w3.org/1999/xlink" x="0px" y="0px"
	 viewBox="0 0 64 64" style="enable-background:new 0 0 64 64;" xml:space="preserve">
<style type="text/css">
	.st0{fill:#263238;}
	.st1{fill:#4FC3F7;}
	.st2{fill:#FFD740;}
	.st3{fill:#FF5252;}
	.st4{fill:#4DB6AC;}
	.st5{fill:#FFFFFF;}
	.st6{fill:#40C4FF;}
	.st7{fill:#A2A2A1;}
	.st8{fill:#212A41;}
</style>
<g>
	<g>
		<path class="st3" d="M4.5,36.75v8h54c-0.552,0-1-0.448-1-1v-2.5c0-0.552,0.448-1,1-1h2v-3.5H4.5z"/>
	</g>
	<g>
		<path class="st0" d="M3.5,58.75h-3c-0.276,0-0.5-0.224-0.5-0.5s0.224-0.5,0.5-0.5h3c0.276,0,0.5,0.224,0.5,0.5
			S3.776,58.75,3.5,58.75z"/>
	</g>
	<g>
		<path class="st0" d="M63.5,58.75h-58c-0.276,0-0.5-0.224-0.5-0.5s0.224-0.5,0.5-0.5h58c0.276,0,0.5,0.224,0.5,0.5
			S63.776,58.75,63.5,58.75z"/>
	</g>
	<g>
		<path class="st0" d="M22.5,17.25h-2c-0.276,0-0.5-0.224-0.5-0.5s0.224-0.5,0.5-0.5h2c0.276,0,0.5,0.224,0.5,0.5
			S22.776,17.25,22.5,17.25z"/>
	</g>
	<g>
		<path class="st0" d="M35.5,17.25h-11c-0.276,0-0.5-0.224-0.5-0.5s0.224-0.5,0.5-0.5h11c0.276,0,0.5,0.224,0.5,0.5
			S35.776,17.25,35.5,17.25z"/>
	</g>
	<g>
		<path class="st0" d="M40.5,14.25h-12c-0.276,0-0.5-0.224-0.5-0.5s0.224-0.5,0.5-0.5h12c0.276,0,0.5,0.224,0.5,0.5
			S40.776,14.25,40.5,14.25z"/>
	</g>
	<g>
		<path class="st0" d="M50,58.75c-3.86,0-7-3.14-7-7s3.14-7,7-7s7,3.14,7,7S53.86,58.75,50,58.75z M50,45.75c-3.309,0-6,2.691-6,6
			s2.691,6,6,6s6-2.691,6-6S53.309,45.75,50,45.75z"/>
	</g>
	<g>
		<path class="st0" d="M50,55.75c-2.206,0-4-1.794-4-4s1.794-4,4-4s4,1.794,4,4S52.206,55.75,50,55.75z M50,48.75
			c-1.654,0-3,1.346-3,3s1.346,3,3,3s3-1.346,3-3S51.654,48.75,50,48.75z"/>
	</g>
	<g>
		<path class="st0" d="M16.25,58.75c-3.86,0-7-3.14-7-7s3.14-7,7-7s7,3.14,7,7S20.11,58.75,16.25,58.75z M16.25,45.75
			c-3.309,0-6,2.691-6,6s2.691,6,6,6s6-2.691,6-6S19.559,45.75,16.25,45.75z"/>
	</g>
	<g>
		<path class="st0" d="M7.75,52.25H7c-1.654,0-3-1.346-3-3v-23c0-1.654,1.346-3,3-3h43.514c2.026,0,3.882,1.108,4.843,2.892
			l5.584,10.371C60.979,36.586,61,36.667,61,36.75v12.5c0,1.422-1.011,2.659-2.403,2.94c-0.27,0.057-0.534-0.12-0.589-0.391
			c-0.055-0.271,0.121-0.535,0.391-0.589C59.327,51.022,60,50.198,60,49.25V36.876l-5.524-10.26
			c-0.786-1.459-2.304-2.366-3.962-2.366H7c-1.103,0-2,0.897-2,2v23c0,1.103,0.897,2,2,2h0.75c0.276,0,0.5,0.224,0.5,0.5
			S8.026,52.25,7.75,52.25z"/>
	</g>
	<g>
		<path class="st0" d="M41.5,52.25H24.75c-0.276,0-0.5-0.224-0.5-0.5s0.224-0.5,0.5-0.5H41.5c0.276,0,0.5,0.224,0.5,0.5
			S41.776,52.25,41.5,52.25z"/>
	</g>
	<g>
		<path class="st0" d="M16.25,55.75c-2.206,0-4-1.794-4-4s1.794-4,4-4s4,1.794,4,4S18.456,55.75,16.25,55.75z M16.25,48.75
			c-1.654,0-3,1.346-3,3s1.346,3,3,3s3-1.346,3-3S17.904,48.75,16.25,48.75z"/>
	</g>
	<g>
		<path class="st1" d="M8.5,8.25c0-1.657,1.343-3,3-3s3,1.343,3,3c1.657,0,3,1.343,3,3s-1.343,3-3,3h-6c-1.657,0-3-1.343-3-3
			S6.843,8.25,8.5,8.25z"/>
	</g>
	<g>
		<path class="st0" d="M52.5,8.75h-4c-0.276,0-0.5-0.224-0.5-0.5s0.224-0.5,0.5-0.5h4c0.276,0,0.5,0.224,0.5,0.5
			S52.776,8.75,52.5,8.75z"/>
	</g>
	<g>
		<path class="st0" d="M50.5,10.75c-0.276,0-0.5-0.224-0.5-0.5v-4c0-0.276,0.224-0.5,0.5-0.5S51,5.974,51,6.25v4
			C51,10.526,50.776,10.75,50.5,10.75z"/>
	</g>
	<g>
		<path class="st0" d="M58.5,12.75h-4c-0.276,0-0.5-0.224-0.5-0.5s0.224-0.5,0.5-0.5h4c0.276,0,0.5,0.224,0.5,0.5
			S58.776,12.75,58.5,12.75z"/>
	</g>
	<g>
		<path class="st0" d="M56.5,14.75c-0.276,0-0.5-0.224-0.5-0.5v-4c0-0.276,0.224-0.5,0.5-0.5s0.5,0.224,0.5,0.5v4
			C57,14.526,56.776,14.75,56.5,14.75z"/>
	</g>
	<g>
		<path class="st0" d="M60.5,37.25h-20c-0.276,0-0.5-0.224-0.5-0.5v-9c0-0.827,0.673-1.5,1.5-1.5h13.615
			c0.184,0,0.353,0.101,0.44,0.263l5.385,10c0.083,0.155,0.079,0.342-0.011,0.493C60.839,37.158,60.676,37.25,60.5,37.25z M41,36.25
			h18.663l-4.847-9H41.5c-0.276,0-0.5,0.224-0.5,0.5V36.25z"/>
	</g>
	<g>
		<path class="st0" d="M55.478,34.25c-0.178,0-0.351-0.095-0.441-0.263l-2.154-4c-0.131-0.243-0.04-0.546,0.204-0.677
			c0.243-0.13,0.546-0.04,0.677,0.204l2.154,4c0.131,0.243,0.04,0.546-0.204,0.677C55.639,34.231,55.558,34.25,55.478,34.25z"/>
	</g>
	<g>
		<path class="st0" d="M60.5,45.25h-2c-0.827,0-1.5-0.673-1.5-1.5v-2.5c0-0.827,0.673-1.5,1.5-1.5h2c0.276,0,0.5,0.224,0.5,0.5v4.5
			C61,45.026,60.776,45.25,60.5,45.25z M58.5,40.75c-0.276,0-0.5,0.224-0.5,0.5v2.5c0,0.276,0.224,0.5,0.5,0.5H60v-3.5H58.5z"/>
	</g>
	<g>
		<path class="st0" d="M40.5,52.25c-0.276,0-0.5-0.224-0.5-0.5v-13c0-0.276,0.224-0.5,0.5-0.5s0.5,0.224,0.5,0.5v13
			C41,52.026,40.776,52.25,40.5,52.25z"/>
	</g>
	<g>
		<path class="st0" d="M45.618,40.75h-2.5c-0.276,0-0.5-0.224-0.5-0.5s0.224-0.5,0.5-0.5h2.5c0.276,0,0.5,0.224,0.5,0.5
			S45.895,40.75,45.618,40.75z"/>
	</g>
	<g>
		<path class="st0" d="M36.5,49.25h-2c-0.827,0-1.5-0.673-1.5-1.5v-2c0-0.827,0.673-1.5,1.5-1.5h2c0.827,0,1.5,0.673,1.5,1.5v2
			C38,48.577,37.327,49.25,36.5,49.25z M34.5,45.25c-0.276,0-0.5,0.224-0.5,0.5v2c0,0.276,0.224,0.5,0.5,0.5h2
			c0.276,0,0.5-0.224,0.5-0.5v-2c0-0.276-0.224-0.5-0.5-0.5H34.5z"/>
	</g>
	<g>
		<polygon class="st5" points="27.5,34.75 24.5,34.75 24.5,31.75 20.5,31.75 20.5,34.75 17.5,34.75 17.5,38.75 20.5,38.75 
			20.5,41.75 24.5,41.75 24.5,38.75 27.5,38.75 		"/>
		<path class="st0" d="M24.5,42.25h-4c-0.276,0-0.5-0.224-0.5-0.5v-2.5h-2.5c-0.276,0-0.5-0.224-0.5-0.5v-4
			c0-0.276,0.224-0.5,0.5-0.5H20v-2.5c0-0.276,0.224-0.5,0.5-0.5h4c0.276,0,0.5,0.224,0.5,0.5v2.5h2.5c0.276,0,0.5,0.224,0.5,0.5v4
			c0,0.276-0.224,0.5-0.5,0.5H25v2.5C25,42.026,24.776,42.25,24.5,42.25z M21,41.25h3v-2.5c0-0.276,0.224-0.5,0.5-0.5H27v-3h-2.5
			c-0.276,0-0.5-0.224-0.5-0.5v-2.5h-3v2.5c0,0.276-0.224,0.5-0.5,0.5H18v3h2.5c0.276,0,0.5,0.224,0.5,0.5V41.25z"/>
	</g>
	<g>
		<path class="st3" d="M40.5,20.25c-1.933,0-3.5,1.567-3.5,3.5h7C44,21.817,42.433,20.25,40.5,20.25z"/>
		<path class="st0" d="M44,24.25h-7c-0.276,0-0.5-0.224-0.5-0.5c0-2.206,1.794-4,4-4s4,1.794,4,4C44.5,24.026,44.276,24.25,44,24.25
			z M37.542,23.25h5.917c-0.239-1.417-1.475-2.5-2.958-2.5S37.78,21.833,37.542,23.25z"/>
	</g>
</g>
</svg>
