<?xml version="1.0" encoding="utf-8"?>
<!-- Generator: Adobe Illustrator 22.0.0, SVG Export Plug-In . SVG Version: 6.00 Build 0)  -->
<svg version="1.1" id="Layer_1" xmlns="http://www.w3.org/2000/svg" xmlns:xlink="http://www.w3.org/1999/xlink" x="0px" y="0px"
	 viewBox="0 0 64 64" style="enable-background:new 0 0 64 64;" xml:space="preserve">
<style type="text/css">
	.st0{fill:#263238;}
	.st1{fill:#4FC3F7;}
	.st2{fill:#FFD740;}
	.st3{fill:#FF5252;}
	.st4{fill:#4DB6AC;}
	.st5{fill:#FFFFFF;}
	.st6{fill:#40C4FF;}
	.st7{fill:#A2A2A1;}
	.st8{fill:#212A41;}
</style>
<g>
	<g>
		<path class="st4" d="M7.795,47.392C7.916,47.301,8,47.163,8,47c0-1.304,0.727-2.392,1.852-2.857
			C10.929,43.7,12.143,43.91,13,44.678v-0.264c0-1.218,0.727-2.306,1.852-2.771c1.129-0.465,2.409-0.209,3.27,0.65l4.328,4.328
			c0.567,0.566,1.32,0.879,2.122,0.879h31.516c1.481-1.37,2.413-3.324,2.413-5.5v-5.5c0-1.381-1.119-2.5-2.5-2.5H8
			c-1.381,0-2.5,1.119-2.5,2.5V42C5.5,44.119,6.383,46.029,7.795,47.392z"/>
	</g>
	<g>
		<path class="st0" d="M21.5,17.5h-2c-0.276,0-0.5-0.224-0.5-0.5s0.224-0.5,0.5-0.5h2c0.276,0,0.5,0.224,0.5,0.5
			S21.777,17.5,21.5,17.5z"/>
	</g>
	<g>
		<path class="st0" d="M34.5,17.5h-11c-0.276,0-0.5-0.224-0.5-0.5s0.224-0.5,0.5-0.5h11c0.276,0,0.5,0.224,0.5,0.5
			S34.776,17.5,34.5,17.5z"/>
	</g>
	<g>
		<path class="st0" d="M39.5,14.5h-12c-0.276,0-0.5-0.224-0.5-0.5s0.224-0.5,0.5-0.5h12c0.276,0,0.5,0.224,0.5,0.5
			S39.776,14.5,39.5,14.5z"/>
	</g>
	<g>
		<path class="st1" d="M9.5,4.5c0-1.657,1.343-3,3-3s3,1.343,3,3c1.657,0,3,1.343,3,3s-1.343,3-3,3h-6c-1.657,0-3-1.343-3-3
			S7.843,4.5,9.5,4.5z"/>
	</g>
	<g>
		<path class="st0" d="M57,4h-4c-0.276,0-0.5-0.224-0.5-0.5S52.724,3,53,3h4c0.276,0,0.5,0.224,0.5,0.5S57.276,4,57,4z"/>
	</g>
	<g>
		<path class="st0" d="M55,6c-0.276,0-0.5-0.224-0.5-0.5v-4C54.5,1.224,54.724,1,55,1s0.5,0.224,0.5,0.5v4C55.5,5.776,55.276,6,55,6
			z"/>
	</g>
	<g>
		<path class="st0" d="M52,9h-4c-0.276,0-0.5-0.224-0.5-0.5S47.724,8,48,8h4c0.276,0,0.5,0.224,0.5,0.5S52.276,9,52,9z"/>
	</g>
	<g>
		<path class="st0" d="M50,11c-0.276,0-0.5-0.224-0.5-0.5v-4C49.5,6.224,49.724,6,50,6s0.5,0.224,0.5,0.5v4
			C50.5,10.776,50.276,11,50,11z"/>
	</g>
	<g>
		<path class="st1" d="M51.001,22c0-1.105,0.895-2,2-2s2,0.895,2,2c1.105,0,2,0.895,2,2c0,1.105-0.895,2-2,2h-4
			c-1.105,0-2-0.895-2-2C49.001,22.895,49.896,22,51.001,22z"/>
	</g>
	<g>
		<path class="st0" d="M50.694,48c-0.211,0-0.407-0.135-0.476-0.347c-0.803-2.484-3.098-4.153-5.711-4.153s-4.908,1.669-5.711,4.153
			c-0.085,0.263-0.365,0.407-0.629,0.322c-0.263-0.085-0.407-0.366-0.322-0.629c0.937-2.899,3.614-4.847,6.662-4.847
			s5.726,1.947,6.662,4.847c0.085,0.263-0.06,0.544-0.322,0.629C50.797,47.992,50.745,48,50.694,48z"/>
	</g>
	<g>
		<path class="st0" d="M47.41,48.043c-0.16,0-0.317-0.077-0.414-0.22c-0.56-0.829-1.49-1.323-2.488-1.323
			c-0.979,0-1.9,0.48-2.462,1.286c-0.159,0.229-0.472,0.28-0.696,0.124c-0.227-0.158-0.282-0.47-0.124-0.696
			c0.749-1.073,1.976-1.714,3.282-1.714c1.331,0,2.57,0.659,3.316,1.763c0.155,0.229,0.095,0.54-0.134,0.694
			C47.604,48.016,47.507,48.043,47.41,48.043z"/>
	</g>
	<g>
		<path class="st0" d="M25.695,48c-0.211,0-0.407-0.135-0.476-0.347c-0.803-2.484-3.098-4.153-5.711-4.153
			c-0.201,0-0.401,0.01-0.598,0.029c-0.276,0.03-0.52-0.173-0.548-0.447s0.173-0.52,0.447-0.547c0.23-0.023,0.463-0.035,0.698-0.035
			c3.049,0,5.726,1.947,6.662,4.847c0.085,0.263-0.059,0.544-0.322,0.629C25.797,47.992,25.746,48,25.695,48z"/>
	</g>
	<g>
		<path class="st0" d="M50.821,34.5c-0.128,0-0.256-0.049-0.354-0.146l-10-10c-0.195-0.195-0.195-0.512,0-0.707s0.512-0.195,0.707,0
			l10,10c0.195,0.195,0.195,0.512,0,0.707C51.077,34.451,50.949,34.5,50.821,34.5z"/>
	</g>
	<g>
		<path class="st0" d="M20.196,34.5c-0.276,0-0.5-0.224-0.5-0.5V24c0-0.276,0.224-0.5,0.5-0.5s0.5,0.224,0.5,0.5v10
			C20.696,34.276,20.472,34.5,20.196,34.5z"/>
	</g>
	<g>
		<path class="st0" d="M36.821,34.5c-0.113,0-0.227-0.038-0.32-0.116c-0.212-0.177-0.24-0.491-0.063-0.704l1.75-2.101
			c0.57-0.686,1.41-1.079,2.305-1.079h7.329c0.276,0,0.5,0.224,0.5,0.5s-0.224,0.5-0.5,0.5h-7.329c-0.596,0-1.156,0.262-1.536,0.72
			l-1.751,2.101C37.106,34.438,36.964,34.5,36.821,34.5z"/>
	</g>
	<g>
		<path class="st0" d="M26.832,32.5c-0.204,0-0.396-0.126-0.47-0.329l-1.038-2.854C25.038,28.529,24.282,28,23.444,28h-1.249
			c-0.276,0-0.5-0.224-0.5-0.5s0.224-0.5,0.5-0.5h1.249c1.257,0,2.39,0.794,2.819,1.975l1.038,2.854
			c0.095,0.26-0.04,0.547-0.299,0.641C26.946,32.49,26.889,32.5,26.832,32.5z"/>
	</g>
	<g>
		<path class="st0" d="M9.196,34.5c-0.155,0-0.307-0.071-0.405-0.206c-0.163-0.224-0.113-0.536,0.11-0.698l11-8
			c0.223-0.162,0.537-0.113,0.698,0.11c0.163,0.224,0.113,0.536-0.11,0.698l-11,8C9.401,34.469,9.298,34.5,9.196,34.5z"/>
	</g>
	<g>
		<path class="st0" d="M54.75,40.5H7.5C7.224,40.5,7,40.276,7,40s0.224-0.5,0.5-0.5h47.25c0.276,0,0.5,0.224,0.5,0.5
			S55.026,40.5,54.75,40.5z"/>
	</g>
	<g>
		<path class="st1" d="M21.036,48.036l-4.328-4.328C16.077,43.077,15,43.523,15,44.414V49.5l-3.293-3.293
			C11.077,45.577,10,46.023,10,46.914V47c0,1.381-1.119,2.5-2.5,2.5H0V50c0,6.904,5.596,12.5,12.5,12.5h39
			C58.404,62.5,64,56.904,64,50v-0.5H24.571C23.245,49.5,21.973,48.973,21.036,48.036z"/>
	</g>
	<g>
		<path class="st0" d="M56.087,48c-0.135,0-0.269-0.054-0.367-0.16c-0.188-0.203-0.175-0.52,0.027-0.707
			C57.2,45.789,58,43.967,58,42v-5.5c0-1.103-0.897-2-2-2H8c-1.103,0-2,0.897-2,2V42c0,1.912,0.761,3.699,2.142,5.033
			c0.199,0.191,0.204,0.508,0.013,0.707s-0.508,0.204-0.707,0.012C5.87,46.229,5,44.186,5,42v-5.5c0-1.654,1.346-3,3-3h48
			c1.654,0,3,1.346,3,3V42c0,2.216-0.938,4.354-2.573,5.867C56.33,47.956,56.208,48,56.087,48z"/>
	</g>
	<g>
		<path class="st2" d="M59.25,43h-1.5c-0.552,0-1-0.448-1-1v-4c0-0.552,0.448-1,1-1h1.5c0.552,0,1,0.448,1,1v4
			C60.25,42.552,59.803,43,59.25,43z"/>
		<path class="st0" d="M59.25,43.5h-1.5c-0.827,0-1.5-0.673-1.5-1.5v-4c0-0.827,0.673-1.5,1.5-1.5h1.5c0.827,0,1.5,0.673,1.5,1.5v4
			C60.75,42.827,60.077,43.5,59.25,43.5z M57.75,37.5c-0.275,0-0.5,0.225-0.5,0.5v4c0,0.275,0.225,0.5,0.5,0.5h1.5
			c0.275,0,0.5-0.225,0.5-0.5v-4c0-0.275-0.225-0.5-0.5-0.5H57.75z"/>
	</g>
</g>
</svg>
