<?xml version="1.0" encoding="utf-8"?>
<!-- Generator: Adobe Illustrator 22.0.0, SVG Export Plug-In . SVG Version: 6.00 Build 0)  -->
<svg version="1.1" id="Layer_1" xmlns="http://www.w3.org/2000/svg" xmlns:xlink="http://www.w3.org/1999/xlink" x="0px" y="0px"
	 viewBox="0 0 64 64" style="enable-background:new 0 0 64 64;" xml:space="preserve">
<style type="text/css">
	.st0{fill:#263238;}
	.st1{fill:#4FC3F7;}
	.st2{fill:#FFD740;}
	.st3{fill:#FF5252;}
	.st4{fill:#4DB6AC;}
	.st5{fill:#FFFFFF;}
	.st6{fill:#40C4FF;}
	.st7{fill:#A2A2A1;}
	.st8{fill:#212A41;}
</style>
<g>
	<g>
		<path class="st1" d="M54.5,26c0-1.105,0.895-2,2-2c1.105,0,2,0.895,2,2c1.105,0,2,0.895,2,2c0,1.105-0.895,2-2,2h-4
			c-1.105,0-2-0.895-2-2C52.5,26.895,53.395,26,54.5,26z"/>
	</g>
	<g>
		<path class="st3" d="M25.315,43.719C24.978,42.693,24.02,42,22.941,42H13.75V27.5h-6V49c0,1.381,1.119,2.5,2.5,2.5h0.5
			c0-3.59,2.91-6.5,6.5-6.5s6.5,2.91,6.5,6.5h4.124L25.315,43.719z"/>
	</g>
	<g>
		<path class="st0" d="M25,16.5h-2c-0.276,0-0.5-0.224-0.5-0.5s0.224-0.5,0.5-0.5h2c0.276,0,0.5,0.224,0.5,0.5S25.276,16.5,25,16.5z
			"/>
	</g>
	<g>
		<path class="st0" d="M38,16.5H27c-0.276,0-0.5-0.224-0.5-0.5s0.224-0.5,0.5-0.5h11c0.276,0,0.5,0.224,0.5,0.5S38.276,16.5,38,16.5
			z"/>
	</g>
	<g>
		<path class="st0" d="M43,13.5H31c-0.276,0-0.5-0.224-0.5-0.5s0.224-0.5,0.5-0.5h12c0.276,0,0.5,0.224,0.5,0.5S43.276,13.5,43,13.5
			z"/>
	</g>
	<g>
		<path class="st0" d="M3.5,58.5h-3C0.223,58.5,0,58.276,0,58s0.224-0.5,0.5-0.5h3C3.776,57.5,4,57.724,4,58S3.776,58.5,3.5,58.5z"
			/>
	</g>
	<g>
		<path class="st0" d="M63.5,58.5h-58C5.223,58.5,5,58.276,5,58s0.224-0.5,0.5-0.5h58c0.276,0,0.5,0.224,0.5,0.5
			S63.776,58.5,63.5,58.5z"/>
	</g>
	<g>
		<path class="st1" d="M8.5,9c0-1.657,1.343-3,3-3s3,1.343,3,3c1.657,0,3,1.343,3,3s-1.343,3-3,3h-6c-1.657,0-3-1.343-3-3
			S6.843,9,8.5,9z"/>
	</g>
	<g>
		<path class="st0" d="M52.5,8.5h-4C48.223,8.5,48,8.276,48,8s0.224-0.5,0.5-0.5h4C52.776,7.5,53,7.724,53,8S52.776,8.5,52.5,8.5z"
			/>
	</g>
	<g>
		<path class="st0" d="M50.5,10.5c-0.276,0-0.5-0.224-0.5-0.5V6c0-0.276,0.224-0.5,0.5-0.5S51,5.724,51,6v4
			C51,10.276,50.776,10.5,50.5,10.5z"/>
	</g>
	<g>
		<path class="st0" d="M58.5,12.5h-4c-0.276,0-0.5-0.224-0.5-0.5s0.224-0.5,0.5-0.5h4c0.276,0,0.5,0.224,0.5,0.5
			S58.776,12.5,58.5,12.5z"/>
	</g>
	<g>
		<path class="st0" d="M56.5,14.5c-0.276,0-0.5-0.224-0.5-0.5v-4c0-0.276,0.224-0.5,0.5-0.5S57,9.724,57,10v4
			C57,14.276,56.776,14.5,56.5,14.5z"/>
	</g>
	<g>
		<path class="st0" d="M17.25,58.5c-3.86,0-7-3.14-7-7s3.14-7,7-7s7,3.14,7,7S21.11,58.5,17.25,58.5z M17.25,45.5
			c-3.309,0-6,2.691-6,6s2.691,6,6,6s6-2.691,6-6S20.559,45.5,17.25,45.5z"/>
	</g>
	<g>
		<path class="st0" d="M17.25,55.5c-2.206,0-4-1.794-4-4s1.794-4,4-4s4,1.794,4,4S19.456,55.5,17.25,55.5z M17.25,48.5
			c-1.654,0-3,1.346-3,3s1.346,3,3,3s3-1.346,3-3S18.904,48.5,17.25,48.5z"/>
	</g>
	<g>
		<path class="st3" d="M48.75,44v7.5h7.5C56.25,47.358,52.892,44,48.75,44z"/>
		<path class="st0" d="M56.25,52h-7.5c-0.276,0-0.5-0.224-0.5-0.5V44c0-0.276,0.224-0.5,0.5-0.5c4.411,0,8,3.589,8,8
			C56.75,51.776,56.526,52,56.25,52z M49.25,51h6.482c-0.246-3.462-3.021-6.237-6.482-6.482V51z"/>
	</g>
	<g>
		<path class="st0" d="M43.75,28h-36c-0.276,0-0.5-0.224-0.5-0.5V26c0-1.654,1.346-3,3-3h33.5c0.827,0,1.5,0.673,1.5,1.5v2
			C45.25,27.327,44.577,28,43.75,28z M8.25,27h35.5c0.276,0,0.5-0.224,0.5-0.5v-2c0-0.276-0.224-0.5-0.5-0.5h-33.5
			c-1.103,0-2,0.897-2,2V27z"/>
	</g>
	<g>
		<path class="st0" d="M32.25,52h-6.5c-0.276,0-0.5-0.224-0.5-0.5s0.224-0.5,0.5-0.5h6.5c0.276,0,0.5,0.224,0.5,0.5
			S32.526,52,32.25,52z"/>
	</g>
	<g>
		<rect x="32.25" y="37.5" class="st3" width="16.5" height="14"/>
		<path class="st0" d="M48.75,52h-16.5c-0.276,0-0.5-0.224-0.5-0.5v-14c0-0.276,0.224-0.5,0.5-0.5h16.5c0.276,0,0.5,0.224,0.5,0.5
			v14C49.25,51.776,49.026,52,48.75,52z M32.75,51h15.5V38h-15.5V51z"/>
	</g>
	<g>
		<path class="st0" d="M48.75,38h-16.5c-0.276,0-0.5-0.224-0.5-0.5v-10c0-0.276,0.224-0.5,0.5-0.5h11.143
			c0.184,0,0.354,0.102,0.441,0.264l5.357,10c0.083,0.155,0.079,0.342-0.012,0.493S48.925,38,48.75,38z M32.75,37h15.165l-4.821-9
			H32.75V37z"/>
	</g>
	<g>
		<path class="st0" d="M43.74,35c-0.179,0-0.351-0.096-0.441-0.264l-2.143-4c-0.13-0.244-0.039-0.547,0.205-0.677
			c0.244-0.13,0.546-0.039,0.677,0.205l2.143,4c0.13,0.244,0.039,0.547-0.205,0.677C43.9,34.981,43.819,35,43.74,35z"/>
	</g>
	<g>
		<path class="st0" d="M18.75,42.5h-5c-0.276,0-0.5-0.224-0.5-0.5v-7.5c0-0.276,0.224-0.5,0.5-0.5h2.231
			c0.679,0,1.274,0.458,1.449,1.113l1.802,6.758c0.04,0.15,0.008,0.311-0.086,0.434S18.905,42.5,18.75,42.5z M14.25,41.5h3.849
			l-1.634-6.129C16.406,35.152,16.208,35,15.981,35H14.25V41.5z"/>
	</g>
	<g>
		<path class="st0" d="M27.875,52c-0.21,0-0.406-0.133-0.475-0.344l-2.559-7.781c-0.271-0.822-1.034-1.375-1.9-1.375h-9.19
			c-0.276,0-0.5-0.224-0.5-0.5V28h-5v21c0,0.637,0.299,1.223,0.821,1.606c0.222,0.164,0.27,0.477,0.106,0.699
			c-0.164,0.222-0.476,0.27-0.699,0.106C7.698,50.838,7.25,49.958,7.25,49V27.5c0-0.276,0.224-0.5,0.5-0.5h6
			c0.276,0,0.5,0.224,0.5,0.5v14h8.69c1.299,0,2.444,0.829,2.85,2.062l2.559,7.781c0.086,0.262-0.057,0.545-0.319,0.631
			C27.979,51.992,27.926,52,27.875,52z"/>
	</g>
	<g>
		<path class="st0" d="M37.75,41h-2.5c-0.276,0-0.5-0.224-0.5-0.5s0.224-0.5,0.5-0.5h2.5c0.276,0,0.5,0.224,0.5,0.5
			S38.026,41,37.75,41z"/>
	</g>
	<g>
		<path class="st0" d="M48.75,58.5c-3.045,0-5.722-1.948-6.659-4.846c-0.085-0.263,0.059-0.544,0.322-0.629
			c0.266-0.085,0.544,0.06,0.629,0.322c0.804,2.484,3.097,4.154,5.708,4.154c2.611,0,4.904-1.669,5.708-4.154
			c0.085-0.262,0.366-0.407,0.629-0.322c0.263,0.085,0.407,0.367,0.322,0.629C54.472,56.552,51.795,58.5,48.75,58.5z"/>
	</g>
	<g>
		<path class="st0" d="M48.75,55.5c-1.301,0-2.526-0.641-3.276-1.713c-0.158-0.227-0.103-0.538,0.123-0.696
			c0.227-0.158,0.538-0.104,0.696,0.123c0.563,0.806,1.482,1.287,2.457,1.287c0.976,0,1.894-0.481,2.457-1.287
			c0.158-0.227,0.468-0.282,0.696-0.123c0.226,0.158,0.281,0.47,0.123,0.696C51.276,54.859,50.051,55.5,48.75,55.5z"/>
	</g>
</g>
</svg>
