<?xml version="1.0" encoding="utf-8"?>
<!-- Generator: Adobe Illustrator 22.0.0, SVG Export Plug-In . SVG Version: 6.00 Build 0)  -->
<svg version="1.1" id="Layer_1" xmlns="http://www.w3.org/2000/svg" xmlns:xlink="http://www.w3.org/1999/xlink" x="0px" y="0px"
	 viewBox="0 0 64 64" style="enable-background:new 0 0 64 64;" xml:space="preserve">
<style type="text/css">
	.st0{fill:#263238;}
	.st1{fill:#4FC3F7;}
	.st2{fill:#FFD740;}
	.st3{fill:#FF5252;}
	.st4{fill:#4DB6AC;}
	.st5{fill:#FFFFFF;}
	.st6{fill:#40C4FF;}
	.st7{fill:#A2A2A1;}
	.st8{fill:#212A41;}
</style>
<g>
	<g>
		<path class="st0" d="M17.5,23.25h-2c-0.276,0-0.5-0.224-0.5-0.5s0.224-0.5,0.5-0.5h2c0.276,0,0.5,0.224,0.5,0.5
			S17.776,23.25,17.5,23.25z"/>
	</g>
	<g>
		<path class="st0" d="M30.5,23.25h-11c-0.276,0-0.5-0.224-0.5-0.5s0.224-0.5,0.5-0.5h11c0.276,0,0.5,0.224,0.5,0.5
			S30.776,23.25,30.5,23.25z"/>
	</g>
	<g>
		<path class="st0" d="M35.5,20.25h-12c-0.276,0-0.5-0.224-0.5-0.5s0.224-0.5,0.5-0.5h12c0.276,0,0.5,0.224,0.5,0.5
			S35.776,20.25,35.5,20.25z"/>
	</g>
	<g>
		<path class="st0" d="M3.5,58.25h-3c-0.276,0-0.5-0.224-0.5-0.5s0.224-0.5,0.5-0.5h3c0.276,0,0.5,0.224,0.5,0.5
			S3.776,58.25,3.5,58.25z"/>
	</g>
	<g>
		<path class="st0" d="M63.5,58.25h-58c-0.276,0-0.5-0.224-0.5-0.5s0.224-0.5,0.5-0.5h58c0.276,0,0.5,0.224,0.5,0.5
			S63.776,58.25,63.5,58.25z"/>
	</g>
	<g>
		<path class="st1" d="M6.5,9.25c0-1.657,1.343-3,3-3s3,1.343,3,3c1.657,0,3,1.343,3,3s-1.343,3-3,3h-6c-1.657,0-3-1.343-3-3
			S4.843,9.25,6.5,9.25z"/>
	</g>
	<g>
		<path class="st0" d="M53,8.75h-4c-0.276,0-0.5-0.224-0.5-0.5s0.224-0.5,0.5-0.5h4c0.276,0,0.5,0.224,0.5,0.5S53.276,8.75,53,8.75z
			"/>
	</g>
	<g>
		<path class="st0" d="M51,10.75c-0.276,0-0.5-0.224-0.5-0.5v-4c0-0.276,0.224-0.5,0.5-0.5s0.5,0.224,0.5,0.5v4
			C51.5,10.526,51.276,10.75,51,10.75z"/>
	</g>
	<g>
		<path class="st0" d="M48,12.75h-4c-0.276,0-0.5-0.224-0.5-0.5s0.224-0.5,0.5-0.5h4c0.276,0,0.5,0.224,0.5,0.5
			S48.276,12.75,48,12.75z"/>
	</g>
	<g>
		<path class="st0" d="M46,14.75c-0.276,0-0.5-0.224-0.5-0.5v-4c0-0.276,0.224-0.5,0.5-0.5s0.5,0.224,0.5,0.5v4
			C46.5,14.526,46.276,14.75,46,14.75z"/>
	</g>
	<g>
		<path class="st0" d="M48,49.25c-0.184,0-0.36-0.101-0.448-0.276l-10-20c-0.078-0.155-0.069-0.339,0.022-0.486
			S37.827,28.25,38,28.25h5c0.276,0,0.5,0.224,0.5,0.5s-0.224,0.5-0.5,0.5h-4.191l9.638,19.276c0.124,0.247,0.023,0.547-0.224,0.671
			C48.152,49.233,48.076,49.25,48,49.25z"/>
	</g>
	<g>
		<path class="st0" d="M48,58.25c-5.238,0-9.5-4.262-9.5-9.5c0-2.851,1.265-5.526,3.47-7.34c0.213-0.176,0.528-0.145,0.704,0.069
			c0.175,0.213,0.145,0.528-0.069,0.704c-1.973,1.623-3.104,4.016-3.104,6.567c0,4.687,3.813,8.5,8.5,8.5s8.5-3.813,8.5-8.5
			s-3.813-8.5-8.5-8.5c-0.652,0-1.33,0.084-2.013,0.25c-0.269,0.066-0.539-0.099-0.604-0.368c-0.065-0.269,0.099-0.539,0.368-0.604
			C51.953,38.018,57.5,42.78,57.5,48.75C57.5,53.988,53.238,58.25,48,58.25z"/>
	</g>
	<g>
		<path class="st2" d="M48,42.75c-0.251,0-0.496,0.02-0.739,0.05l2.528,5.055c0.494,0.988,0.094,2.189-0.895,2.684
			c-0.287,0.144-0.593,0.211-0.893,0.211c-0.734,0-1.44-0.405-1.791-1.106l-2.528-5.056C42.643,45.668,42,47.133,42,48.75
			c0,3.314,2.686,6,6,6s6-2.686,6-6S51.314,42.75,48,42.75z"/>
	</g>
	<g>
		<path class="st0" d="M48,55.25c-3.584,0-6.5-2.916-6.5-6.5c0-1.688,0.647-3.288,1.823-4.508c0.192-0.198,0.509-0.204,0.707-0.013
			c0.199,0.191,0.205,0.508,0.013,0.707c-0.995,1.032-1.543,2.387-1.543,3.814c0,3.033,2.467,5.5,5.5,5.5s5.5-2.467,5.5-5.5
			s-2.467-5.5-5.5-5.5c-0.229,0-0.455,0.019-0.677,0.046c-0.273,0.033-0.524-0.16-0.558-0.434s0.16-0.524,0.434-0.558
			c0.263-0.033,0.529-0.054,0.801-0.054c3.584,0,6.5,2.916,6.5,6.5S51.584,55.25,48,55.25z"/>
	</g>
	<g>
		<path class="st0" d="M29.871,46.471c-0.197,0-0.384-0.118-0.463-0.312l-5.371-13.221c-0.104-0.256,0.02-0.547,0.275-0.651
			c0.255-0.103,0.547,0.019,0.651,0.275l5.371,13.221c0.104,0.256-0.02,0.547-0.275,0.651
			C29.998,46.459,29.934,46.471,29.871,46.471z"/>
	</g>
	<g>
		<path class="st0" d="M27.548,33.25H22.5c-0.827,0-1.5-0.673-1.5-1.5v-1c0-0.827,0.673-1.5,1.5-1.5h3.622
			c1.144,0,2.172,0.635,2.683,1.658l0.085,0.171c0.234,0.468,0.209,1.014-0.065,1.459C28.549,32.984,28.072,33.25,27.548,33.25z
			 M22.5,30.25c-0.276,0-0.5,0.224-0.5,0.5v1c0,0.276,0.224,0.5,0.5,0.5h5.048c0.252,0,0.381-0.166,0.425-0.237
			c0.044-0.071,0.135-0.261,0.022-0.486l-0.085-0.171c-0.341-0.682-1.026-1.105-1.789-1.105H22.5z"/>
	</g>
	<g>
		<path class="st1" d="M53.742,24.75c0-1.105,0.895-2,2-2s2,0.895,2,2c1.105,0,2,0.895,2,2s-0.895,2-2,2h-4c-1.105,0-2-0.895-2-2
			S52.638,24.75,53.742,24.75z"/>
	</g>
	<g>
		<path class="st0" d="M31,52.25c-1.93,0-3.5-1.57-3.5-3.5s1.57-3.5,3.5-3.5s3.5,1.57,3.5,3.5S32.93,52.25,31,52.25z M31,46.25
			c-1.378,0-2.5,1.122-2.5,2.5s1.122,2.5,2.5,2.5s2.5-1.122,2.5-2.5S32.378,46.25,31,46.25z"/>
	</g>
	<g>
		<path class="st0" d="M28,49.25H16.5c-0.194,0-0.371-0.112-0.453-0.288c-0.083-0.175-0.056-0.383,0.068-0.532l10-12
			c0.095-0.114,0.236-0.18,0.384-0.18H41c0.194,0,0.371,0.112,0.453,0.288c0.083,0.175,0.056,0.383-0.068,0.532l-8.08,9.695
			c-0.177,0.212-0.492,0.24-0.705,0.064c-0.212-0.177-0.241-0.492-0.064-0.705l7.396-8.875H26.734l-9.167,11H28
			c0.276,0,0.5,0.224,0.5,0.5S28.276,49.25,28,49.25z"/>
	</g>
	<g>
		<path class="st0" d="M24.769,47.25c-0.228,0-0.434-0.157-0.487-0.389c-0.244-1.069-0.684-2.066-1.308-2.962
			c-0.158-0.227-0.102-0.538,0.125-0.696c0.226-0.157,0.539-0.102,0.696,0.125c0.699,1.002,1.191,2.117,1.462,3.312
			c0.062,0.269-0.107,0.537-0.376,0.598C24.843,47.246,24.806,47.25,24.769,47.25z"/>
	</g>
	<g>
		<path class="st0" d="M16,58.25c-5.238,0-9.5-4.262-9.5-9.5s4.262-9.5,9.5-9.5c1.631,0,3.246,0.426,4.67,1.232
			c0.241,0.136,0.325,0.441,0.189,0.681s-0.441,0.325-0.681,0.189C18.903,40.631,17.458,40.25,16,40.25c-4.687,0-8.5,3.813-8.5,8.5
			s3.813,8.5,8.5,8.5c3.992,0,7.397-2.718,8.282-6.611c0.061-0.27,0.329-0.437,0.599-0.377c0.269,0.062,0.438,0.329,0.377,0.599
			C24.268,55.211,20.461,58.25,16,58.25z"/>
	</g>
	<g>
		<path class="st2" d="M16.5,50.75c-0.776,0-1.482-0.449-1.812-1.152c-0.329-0.703-0.222-1.532,0.275-2.128l3.492-4.19
			c-0.75-0.337-1.58-0.529-2.456-0.529c-3.314,0-6,2.686-6,6s2.686,6,6,6c2.611,0,4.827-1.671,5.651-4H16.5z"/>
	</g>
	<g>
		<path class="st0" d="M16,55.25c-3.584,0-6.5-2.916-6.5-6.5s2.916-6.5,6.5-6.5c0.92,0,1.815,0.193,2.661,0.573
			c0.252,0.113,0.364,0.409,0.251,0.661c-0.113,0.251-0.408,0.365-0.661,0.251c-0.716-0.322-1.473-0.485-2.25-0.485
			c-3.033,0-5.5,2.467-5.5,5.5s2.467,5.5,5.5,5.5c2.322,0,4.403-1.474,5.18-3.667c0.092-0.26,0.378-0.396,0.638-0.304
			c0.26,0.092,0.396,0.378,0.304,0.638C21.205,53.509,18.744,55.25,16,55.25z"/>
	</g>
	<g>
		<path class="st0" d="M31,54.25c-0.276,0-0.5-0.224-0.5-0.5v-5c0-0.276,0.224-0.5,0.5-0.5s0.5,0.224,0.5,0.5v5
			C31.5,54.026,31.276,54.25,31,54.25z"/>
	</g>
</g>
</svg>
