<?xml version="1.0" encoding="utf-8"?>
<!-- Generator: Adobe Illustrator 22.0.0, SVG Export Plug-In . SVG Version: 6.00 Build 0)  -->
<svg version="1.1" id="Layer_1" xmlns="http://www.w3.org/2000/svg" xmlns:xlink="http://www.w3.org/1999/xlink" x="0px" y="0px"
	 viewBox="0 0 64 64" style="enable-background:new 0 0 64 64;" xml:space="preserve">
<style type="text/css">
	.st0{fill:#263238;}
	.st1{fill:#4FC3F7;}
	.st2{fill:#FFD740;}
	.st3{fill:#FF5252;}
	.st4{fill:#4DB6AC;}
	.st5{fill:#FFFFFF;}
	.st6{fill:#40C4FF;}
	.st7{fill:#A2A2A1;}
	.st8{fill:#212A41;}
</style>
<g>
	<g>
		<path class="st2" d="M15.407,38.973c1.026-0.209,2.084,0.19,2.825,0.93l4.219,4.218c0.565,0.566,1.317,0.877,2.118,0.878H47.4l8-8
			h-41c-0.552,0-1,0.448-1,1v2.429C13.813,39.707,14.512,39.156,15.407,38.973z"/>
	</g>
	<g>
		<path class="st0" d="M47.4,45.5c-0.128,0-0.256-0.049-0.354-0.146c-0.195-0.195-0.195-0.512,0-0.707l7.146-7.146H14.4
			c-0.276,0-0.5,0.225-0.5,0.5v2.43c0,0.276-0.224,0.5-0.5,0.5s-0.5-0.224-0.5-0.5V38c0-0.827,0.673-1.5,1.5-1.5h41
			c0.202,0,0.385,0.122,0.462,0.309c0.078,0.187,0.035,0.402-0.108,0.545l-8,8C47.656,45.451,47.528,45.5,47.4,45.5z"/>
	</g>
	<g>
		<path class="st0" d="M15.9,23.5h-2c-0.276,0-0.5-0.224-0.5-0.5s0.224-0.5,0.5-0.5h2c0.276,0,0.5,0.224,0.5,0.5
			S16.177,23.5,15.9,23.5z"/>
	</g>
	<g>
		<path class="st0" d="M28.9,23.5h-11c-0.276,0-0.5-0.224-0.5-0.5s0.224-0.5,0.5-0.5h11c0.276,0,0.5,0.224,0.5,0.5
			S29.177,23.5,28.9,23.5z"/>
	</g>
	<g>
		<path class="st0" d="M33.9,20.5h-12c-0.276,0-0.5-0.224-0.5-0.5s0.224-0.5,0.5-0.5h12c0.276,0,0.5,0.224,0.5,0.5
			S34.177,20.5,33.9,20.5z"/>
	</g>
	<g>
		<path class="st1" d="M8.9,7.5c0-1.657,1.343-3,3-3s3,1.343,3,3c1.657,0,3,1.343,3,3s-1.343,3-3,3h-6c-1.657,0-3-1.343-3-3
			S7.243,7.5,8.9,7.5z"/>
	</g>
	<g>
		<path class="st0" d="M56.4,7h-4c-0.276,0-0.5-0.224-0.5-0.5S52.124,6,52.4,6h4c0.276,0,0.5,0.224,0.5,0.5S56.677,7,56.4,7z"/>
	</g>
	<g>
		<path class="st0" d="M54.4,9c-0.276,0-0.5-0.224-0.5-0.5v-4c0-0.276,0.224-0.5,0.5-0.5s0.5,0.224,0.5,0.5v4
			C54.9,8.776,54.677,9,54.4,9z"/>
	</g>
	<g>
		<path class="st0" d="M51.4,12h-4c-0.276,0-0.5-0.224-0.5-0.5s0.224-0.5,0.5-0.5h4c0.276,0,0.5,0.224,0.5,0.5S51.677,12,51.4,12z"
			/>
	</g>
	<g>
		<path class="st0" d="M49.4,14c-0.276,0-0.5-0.224-0.5-0.5v-4c0-0.276,0.224-0.5,0.5-0.5s0.5,0.224,0.5,0.5v4
			C49.9,13.776,49.677,14,49.4,14z"/>
	</g>
	<g>
		<path class="st1" d="M50.401,21c0-1.105,0.895-2,2-2s2,0.895,2,2c1.105,0,2,0.895,2,2c0,1.105-0.895,2-2,2h-4
			c-1.105,0-2-0.895-2-2C48.401,21.895,49.296,21,50.401,21z"/>
	</g>
	<g>
		<path class="st0" d="M15.9,37.5h-5.5c-0.827,0-1.5-0.673-1.5-1.5v-3c0-0.827,0.673-1.5,1.5-1.5h5.5c0.827,0,1.5,0.673,1.5,1.5v3
			C17.4,36.827,16.728,37.5,15.9,37.5z M10.4,32.5c-0.276,0-0.5,0.225-0.5,0.5v3c0,0.275,0.224,0.5,0.5,0.5h5.5
			c0.276,0,0.5-0.225,0.5-0.5v-3c0-0.275-0.224-0.5-0.5-0.5H10.4z"/>
	</g>
	<g>
		<path class="st0" d="M51.4,37.5h-19c-0.177,0-0.341-0.094-0.431-0.246c-0.09-0.153-0.092-0.342-0.006-0.497l5-9
			c0.067-0.12,0.181-0.208,0.315-0.242c0.135-0.033,0.276-0.009,0.393,0.064l14,9c0.187,0.12,0.272,0.349,0.209,0.562
			C51.817,37.354,51.622,37.5,51.4,37.5z M33.25,36.5h16.448l-12.119-7.791L33.25,36.5z"/>
	</g>
	<g>
		<path class="st0" d="M46.775,42.5H20.328c-0.276,0-0.5-0.224-0.5-0.5s0.224-0.5,0.5-0.5h26.447c0.276,0,0.5,0.224,0.5,0.5
			S47.052,42.5,46.775,42.5z"/>
	</g>
	<g>
		<path class="st0" d="M32.4,37.5H20.9c-0.173,0-0.334-0.09-0.425-0.237s-0.1-0.331-0.022-0.486l0.809-1.618
			c0.511-1.022,1.54-1.658,2.683-1.658h10.122c0.177,0,0.341,0.094,0.431,0.246c0.09,0.153,0.092,0.342,0.006,0.497l-1.667,3
			C32.749,37.401,32.582,37.5,32.4,37.5z M21.709,36.5h10.397l1.111-2h-9.272c-0.762,0-1.448,0.424-1.789,1.105L21.709,36.5z"/>
	</g>
	<g>
		<path class="st1" d="M21.036,45.536l-4.328-4.328C16.077,40.577,15,41.023,15,41.914V47l-3.293-3.293
			C11.077,43.077,10,43.523,10,44.414V44.5c0,1.381-1.119,2.5-2.5,2.5H0v0.5C0,54.404,5.596,60,12.5,60h39
			C58.404,60,64,54.404,64,47.5V47H24.571C23.245,47,21.973,46.473,21.036,45.536z"/>
	</g>
</g>
</svg>
