<?xml version="1.0" encoding="utf-8"?>
<!-- Generator: Adobe Illustrator 22.0.0, SVG Export Plug-In . SVG Version: 6.00 Build 0)  -->
<svg version="1.1" id="Layer_1" xmlns="http://www.w3.org/2000/svg" xmlns:xlink="http://www.w3.org/1999/xlink" x="0px" y="0px"
	 viewBox="0 0 64 64" style="enable-background:new 0 0 64 64;" xml:space="preserve">
<style type="text/css">
	.st0{fill:#263238;}
	.st1{fill:#4FC3F7;}
	.st2{fill:#FFD740;}
	.st3{fill:#FF5252;}
	.st4{fill:#4DB6AC;}
	.st5{fill:#FFFFFF;}
	.st6{fill:#40C4FF;}
	.st7{fill:#A2A2A1;}
	.st8{fill:#212A41;}
</style>
<g>
	<g>
		<path class="st0" d="M3.5,59h-3C0.224,59,0,58.776,0,58.5S0.224,58,0.5,58h3C3.776,58,4,58.224,4,58.5S3.776,59,3.5,59z"/>
	</g>
	<g>
		<path class="st0" d="M63.5,59h-58C5.224,59,5,58.776,5,58.5S5.224,58,5.5,58h58c0.276,0,0.5,0.224,0.5,0.5S63.776,59,63.5,59z"/>
	</g>
	<g>
		<path class="st0" d="M52,59c-3.859,0-7-3.14-7-7s3.141-7,7-7s7,3.14,7,7S55.859,59,52,59z M52,46c-3.309,0-6,2.691-6,6
			s2.691,6,6,6s6-2.691,6-6S55.309,46,52,46z"/>
	</g>
	<g>
		<path class="st0" d="M52,56c-2.206,0-4-1.794-4-4s1.794-4,4-4s4,1.794,4,4S54.206,56,52,56z M52,49c-1.654,0-3,1.346-3,3
			s1.346,3,3,3s3-1.346,3-3S53.654,49,52,49z"/>
	</g>
	<g>
		<path class="st0" d="M13,59c-3.859,0-7-3.14-7-7s3.141-7,7-7s7,3.14,7,7S16.859,59,13,59z M13,46c-3.309,0-6,2.691-6,6
			s2.691,6,6,6s6-2.691,6-6S16.309,46,13,46z"/>
	</g>
	<g>
		<path class="st0" d="M4.641,54H3c-1.654,0-3-1.346-3-3V25c0-1.654,1.346-3,3-3h51.489c2.598,0,4.805,1.771,5.369,4.307
			L63.75,43.82c0.166,0.747,0.25,1.513,0.25,2.277v4.866c0,1.654-1.346,3-3,3h-0.5c-0.276,0-0.5-0.224-0.5-0.5s0.224-0.5,0.5-0.5H61
			c1.103,0,2-0.897,2-2v-4.866c0-0.691-0.076-1.385-0.227-2.061l-3.892-17.513C58.421,24.449,56.614,23,54.489,23H3
			c-1.103,0-2,0.897-2,2v26c0,1.103,0.897,2,2,2h1.641c0.276,0,0.5,0.224,0.5,0.5S4.917,54,4.641,54z"/>
	</g>
	<g>
		<path class="st0" d="M43.64,54H21.36c-0.276,0-0.5-0.224-0.5-0.5s0.224-0.5,0.5-0.5H43.64c0.276,0,0.5,0.224,0.5,0.5
			S43.916,54,43.64,54z"/>
	</g>
	<g>
		<path class="st0" d="M13,56c-2.206,0-4-1.794-4-4s1.794-4,4-4s4,1.794,4,4S15.206,56,13,56z M13,49c-1.654,0-3,1.346-3,3
			s1.346,3,3,3s3-1.346,3-3S14.654,49,13,49z"/>
	</g>
	<g>
		<path class="st6" d="M60.104,42h2.729L59.37,26.415c-0.071-0.32-0.179-0.624-0.306-0.915H0.5v9h50.59
			c1.672,0,3.233,0.836,4.16,2.226l2.774,4.16C58.487,41.582,59.268,42,60.104,42z"/>
		<path class="st0" d="M62.833,42.5h-2.729c-1.005,0-1.938-0.5-2.496-1.336l-2.773-4.16C53.998,35.749,52.599,35,51.09,35H0.5
			C0.224,35,0,34.776,0,34.5v-9C0,25.224,0.224,25,0.5,25h58.563c0.198,0,0.378,0.118,0.458,0.299
			c0.153,0.351,0.264,0.681,0.337,1.008l3.463,15.584c0.032,0.148-0.003,0.303-0.099,0.421C63.128,42.431,62.984,42.5,62.833,42.5z
			 M1,34h50.09c1.844,0,3.555,0.916,4.576,2.449l2.773,4.16c0.372,0.558,0.994,0.891,1.664,0.891h2.106l-3.328-14.976
			c-0.038-0.17-0.089-0.344-0.155-0.524H1V34z"/>
	</g>
	<g>
		<path class="st0" d="M58.455,36.625c-0.229,0-0.437-0.159-0.488-0.392l-1.695-7.625c-0.06-0.27,0.11-0.537,0.38-0.597
			c0.272-0.057,0.537,0.111,0.597,0.38l1.695,7.625c0.06,0.27-0.11,0.537-0.38,0.597C58.527,36.621,58.49,36.625,58.455,36.625z"/>
	</g>
	<g>
		<path class="st6" d="M42.5,49.5h-8c-0.552,0-1-0.448-1-1v-23h10v23C43.5,49.052,43.052,49.5,42.5,49.5z"/>
		<path class="st0" d="M42.5,50h-8c-0.827,0-1.5-0.673-1.5-1.5v-23c0-0.276,0.224-0.5,0.5-0.5h10c0.276,0,0.5,0.224,0.5,0.5v23
			C44,49.327,43.327,50,42.5,50z M34,26v22.5c0,0.276,0.225,0.5,0.5,0.5h8c0.275,0,0.5-0.224,0.5-0.5V26H34z"/>
	</g>
	<g>
		<path class="st0" d="M22.5,35c-0.276,0-0.5-0.224-0.5-0.5v-9c0-0.276,0.224-0.5,0.5-0.5s0.5,0.224,0.5,0.5v9
			C23,34.776,22.776,35,22.5,35z"/>
	</g>
	<g>
		<path class="st0" d="M11.5,35c-0.276,0-0.5-0.224-0.5-0.5v-9c0-0.276,0.224-0.5,0.5-0.5s0.5,0.224,0.5,0.5v9
			C12,34.776,11.776,35,11.5,35z"/>
	</g>
	<g>
		<path class="st0" d="M20.416,18h-2c-0.276,0-0.5-0.224-0.5-0.5s0.224-0.5,0.5-0.5h2c0.276,0,0.5,0.224,0.5,0.5
			S20.692,18,20.416,18z"/>
	</g>
	<g>
		<path class="st0" d="M38.416,18h-16c-0.276,0-0.5-0.224-0.5-0.5s0.224-0.5,0.5-0.5h16c0.276,0,0.5,0.224,0.5,0.5
			S38.692,18,38.416,18z"/>
	</g>
	<g>
		<path class="st0" d="M43.416,15h-17c-0.276,0-0.5-0.224-0.5-0.5s0.224-0.5,0.5-0.5h17c0.276,0,0.5,0.224,0.5,0.5
			S43.692,15,43.416,15z"/>
	</g>
	<g>
		<path class="st1" d="M5,8.5c0-1.657,1.343-3,3-3s3,1.343,3,3c1.657,0,3,1.343,3,3s-1.343,3-3,3H5c-1.657,0-3-1.343-3-3
			S3.343,8.5,5,8.5z"/>
	</g>
	<g>
		<path class="st0" d="M54.416,9h-4c-0.276,0-0.5-0.224-0.5-0.5S50.14,8,50.416,8h4c0.276,0,0.5,0.224,0.5,0.5S54.692,9,54.416,9z"
			/>
	</g>
	<g>
		<path class="st0" d="M52.416,11c-0.276,0-0.5-0.224-0.5-0.5v-4c0-0.276,0.224-0.5,0.5-0.5s0.5,0.224,0.5,0.5v4
			C52.916,10.776,52.692,11,52.416,11z"/>
	</g>
	<g>
		<path class="st0" d="M60.417,13h-4c-0.276,0-0.5-0.224-0.5-0.5s0.224-0.5,0.5-0.5h4c0.276,0,0.5,0.224,0.5,0.5
			S60.693,13,60.417,13z"/>
	</g>
	<g>
		<path class="st0" d="M58.417,15c-0.276,0-0.5-0.224-0.5-0.5v-4c0-0.276,0.224-0.5,0.5-0.5s0.5,0.224,0.5,0.5v4
			C58.917,14.776,58.693,15,58.417,15z"/>
	</g>
	<g>
		<path class="st0" d="M63,32c-0.276,0-0.5-0.224-0.5-0.5v-5c0-0.276-0.225-0.5-0.5-0.5h-2.937c-0.276,0-0.5-0.224-0.5-0.5
			s0.224-0.5,0.5-0.5H62c0.827,0,1.5,0.673,1.5,1.5v5C63.5,31.776,63.276,32,63,32z"/>
	</g>
	<g>
		<path class="st0" d="M63.455,50.5h-2c-0.827,0-1.5-0.673-1.5-1.5v-2.5c0-0.827,0.673-1.5,1.5-1.5h2c0.276,0,0.5,0.224,0.5,0.5V50
			C63.955,50.276,63.731,50.5,63.455,50.5z M61.455,46c-0.275,0-0.5,0.224-0.5,0.5V49c0,0.276,0.225,0.5,0.5,0.5h1.5V46H61.455z"/>
	</g>
</g>
</svg>
