<?xml version="1.0" encoding="utf-8"?>
<!-- Generator: Adobe Illustrator 22.0.0, SVG Export Plug-In . SVG Version: 6.00 Build 0)  -->
<svg version="1.1" id="Layer_1" xmlns="http://www.w3.org/2000/svg" xmlns:xlink="http://www.w3.org/1999/xlink" x="0px" y="0px"
	 viewBox="0 0 64 64" style="enable-background:new 0 0 64 64;" xml:space="preserve">
<style type="text/css">
	.st0{fill:#263238;}
	.st1{fill:#4FC3F7;}
	.st2{fill:#FFD740;}
	.st3{fill:#FF5252;}
	.st4{fill:#4DB6AC;}
	.st5{fill:#FFFFFF;}
	.st6{fill:#40C4FF;}
	.st7{fill:#A2A2A1;}
	.st8{fill:#212A41;}
</style>
<g>
	<g>
		<path class="st0" d="M3.5,18.5h-3C0.224,18.5,0,18.276,0,18s0.224-0.5,0.5-0.5h3C3.776,17.5,4,17.723,4,18S3.776,18.5,3.5,18.5z"
			/>
	</g>
	<g>
		<path class="st0" d="M63.5,18.5h-58C5.224,18.5,5,18.276,5,18s0.224-0.5,0.5-0.5h58c0.276,0,0.5,0.224,0.5,0.5
			S63.776,18.5,63.5,18.5z"/>
	</g>
	<g>
		<path class="st0" d="M30.5,28.5H27c-0.173,0-0.334-0.09-0.426-0.237c-0.091-0.147-0.099-0.332-0.021-0.486l5-10
			c0.124-0.247,0.424-0.344,0.671-0.224c0.247,0.124,0.347,0.424,0.224,0.671L27.809,27.5H30.5c0.276,0,0.5,0.224,0.5,0.5
			S30.776,28.5,30.5,28.5z"/>
	</g>
	<g>
		<path class="st0" d="M37,28.5h-3.5c-0.276,0-0.5-0.224-0.5-0.5s0.224-0.5,0.5-0.5H37c0.276,0,0.5,0.224,0.5,0.5
			S37.276,28.5,37,28.5z"/>
	</g>
	<g>
		<path class="st1" d="M59.5,27c0-1.105-0.895-2-2-2s-2,0.895-2,2c-1.105,0-2,0.895-2,2s0.895,2,2,2h4c1.105,0,2-0.895,2-2
			S60.605,27,59.5,27z"/>
	</g>
	<g>
		<path class="st0" d="M54,7h-4c-0.276,0-0.5-0.224-0.5-0.5S49.724,6,50,6h4c0.276,0,0.5,0.224,0.5,0.5S54.276,7,54,7z"/>
	</g>
	<g>
		<path class="st0" d="M52,9c-0.276,0-0.5-0.224-0.5-0.5v-4C51.5,4.223,51.724,4,52,4s0.5,0.224,0.5,0.5v4C52.5,8.776,52.276,9,52,9
			z"/>
	</g>
	<g>
		<path class="st0" d="M48.5,11.5h-4c-0.276,0-0.5-0.224-0.5-0.5s0.224-0.5,0.5-0.5h4c0.276,0,0.5,0.224,0.5,0.5
			S48.776,11.5,48.5,11.5z"/>
	</g>
	<g>
		<path class="st0" d="M46.5,13.5c-0.276,0-0.5-0.224-0.5-0.5V9c0-0.276,0.224-0.5,0.5-0.5S47,8.723,47,9v4
			C47,13.276,46.776,13.5,46.5,13.5z"/>
	</g>
	<g>
		<path class="st1" d="M8,7c0-1.657,1.343-3,3-3s3,1.343,3,3c1.657,0,3,1.343,3,3s-1.343,3-3,3H8c-1.657,0-3-1.343-3-3S6.343,7,8,7z
			"/>
	</g>
	<g>
		<path class="st0" d="M41,34.5H23c-0.276,0-0.5-0.224-0.5-0.5v-2c0-0.827,0.673-1.5,1.5-1.5h16c0.827,0,1.5,0.673,1.5,1.5v2
			C41.5,34.276,41.276,34.5,41,34.5z M23.5,33.5h17V32c0-0.276-0.225-0.5-0.5-0.5H24c-0.275,0-0.5,0.224-0.5,0.5V33.5z"/>
	</g>
	<g>
		<path class="st3" d="M37,52v8h6.5c4.142,0,7.5-3.358,7.5-7.5V52H37z"/>
	</g>
	<g>
		<path class="st3" d="M13,52v0.5c0,4.142,3.358,7.5,7.5,7.5H27v-8H13z"/>
	</g>
	<g>
		<path class="st0" d="M43.5,60.5h-23c-4.411,0-8-3.589-8-8v-11c0-4.411,3.589-8,8-8h23c4.411,0,8,3.589,8,8v11
			C51.5,56.911,47.911,60.5,43.5,60.5z M20.5,34.5c-3.859,0-7,3.14-7,7v11c0,3.86,3.141,7,7,7h23c3.859,0,7-3.14,7-7v-11
			c0-3.86-3.141-7-7-7H20.5z"/>
	</g>
	<g>
		<path class="st0" d="M20.5,52.5H13c-0.276,0-0.5-0.224-0.5-0.5V42c0-0.276,0.224-0.5,0.5-0.5h7.5c1.654,0,3,1.346,3,3v5
			C23.5,51.154,22.154,52.5,20.5,52.5z M13.5,51.5h7c1.103,0,2-0.897,2-2v-5c0-1.103-0.897-2-2-2h-7V51.5z"/>
	</g>
	<g>
		<path class="st0" d="M51,52.5h-7.5c-1.654,0-3-1.346-3-3v-5c0-1.654,1.346-3,3-3H51c0.276,0,0.5,0.224,0.5,0.5v10
			C51.5,52.276,51.276,52.5,51,52.5z M43.5,42.5c-1.103,0-2,0.897-2,2v5c0,1.103,0.897,2,2,2h7v-9H43.5z"/>
	</g>
	<g>
		<path class="st0" d="M37,60.5H27c-0.276,0-0.5-0.224-0.5-0.5V43c0-0.827,0.673-1.5,1.5-1.5h8c0.827,0,1.5,0.673,1.5,1.5v17
			C37.5,60.276,37.276,60.5,37,60.5z M27.5,59.5h9V43c0-0.276-0.225-0.5-0.5-0.5h-8c-0.275,0-0.5,0.224-0.5,0.5V59.5z"/>
	</g>
	<g>
		<rect x="30.5" y="26" class="st5" width="3" height="5"/>
		<path class="st0" d="M33.5,31.5h-3c-0.276,0-0.5-0.224-0.5-0.5v-5c0-0.276,0.224-0.5,0.5-0.5h3c0.276,0,0.5,0.224,0.5,0.5v5
			C34,31.276,33.776,31.5,33.5,31.5z M31,30.5h2v-4h-2V30.5z"/>
	</g>
	<g>
		<path class="st0" d="M48,49.5c-0.276,0-0.5-0.224-0.5-0.5v-4c0-0.276,0.224-0.5,0.5-0.5s0.5,0.224,0.5,0.5v4
			C48.5,49.276,48.276,49.5,48,49.5z"/>
	</g>
	<g>
		<path class="st0" d="M20,49.5c-0.276,0-0.5-0.224-0.5-0.5v-4c0-0.276,0.224-0.5,0.5-0.5s0.5,0.224,0.5,0.5v4
			C20.5,49.276,20.276,49.5,20,49.5z"/>
	</g>
</g>
</svg>
