<?xml version="1.0" encoding="utf-8"?>
<!-- Generator: Adobe Illustrator 22.0.0, SVG Export Plug-In . SVG Version: 6.00 Build 0)  -->
<svg version="1.1" id="Layer_1" xmlns="http://www.w3.org/2000/svg" xmlns:xlink="http://www.w3.org/1999/xlink" x="0px" y="0px"
	 viewBox="0 0 64 64" style="enable-background:new 0 0 64 64;" xml:space="preserve">
<style type="text/css">
	.st0{fill:#263238;}
	.st1{fill:#4FC3F7;}
	.st2{fill:#FFD740;}
	.st3{fill:#FF5252;}
	.st4{fill:#4DB6AC;}
	.st5{fill:#FFFFFF;}
	.st6{fill:#40C4FF;}
	.st7{fill:#A2A2A1;}
	.st8{fill:#212A41;}
</style>
<g>
	<g>
		<path class="st0" d="M3.5,61h-3C0.224,61,0,60.776,0,60.5S0.224,60,0.5,60h3C3.776,60,4,60.224,4,60.5S3.776,61,3.5,61z"/>
	</g>
	<g>
		<path class="st0" d="M63.5,61h-58C5.224,61,5,60.776,5,60.5S5.224,60,5.5,60h58c0.276,0,0.5,0.224,0.5,0.5S63.776,61,63.5,61z"/>
	</g>
	<g>
		<path class="st0" d="M22,19h-2c-0.276,0-0.5-0.224-0.5-0.5S19.724,18,20,18h2c0.276,0,0.5,0.224,0.5,0.5S22.276,19,22,19z"/>
	</g>
	<g>
		<path class="st0" d="M35,19H24c-0.276,0-0.5-0.224-0.5-0.5S23.724,18,24,18h11c0.276,0,0.5,0.224,0.5,0.5S35.276,19,35,19z"/>
	</g>
	<g>
		<path class="st0" d="M40,16H28c-0.276,0-0.5-0.224-0.5-0.5S27.724,15,28,15h12c0.276,0,0.5,0.224,0.5,0.5S40.276,16,40,16z"/>
	</g>
	<g>
		<path class="st1" d="M8.5,6.5c0-1.657,1.343-3,3-3s3,1.343,3,3c1.657,0,3,1.343,3,3s-1.343,3-3,3h-6c-1.657,0-3-1.343-3-3
			S6.843,6.5,8.5,6.5z"/>
	</g>
	<g>
		<path class="st0" d="M57.5,6h-4C53.224,6,53,5.776,53,5.5S53.224,5,53.5,5h4C57.776,5,58,5.224,58,5.5S57.776,6,57.5,6z"/>
	</g>
	<g>
		<path class="st0" d="M55.5,8C55.224,8,55,7.776,55,7.5v-4C55,3.224,55.224,3,55.5,3S56,3.224,56,3.5v4C56,7.776,55.776,8,55.5,8z"
			/>
	</g>
	<g>
		<path class="st0" d="M51.5,10h-4C47.224,10,47,9.776,47,9.5S47.224,9,47.5,9h4C51.776,9,52,9.224,52,9.5S51.776,10,51.5,10z"/>
	</g>
	<g>
		<path class="st0" d="M49.5,12c-0.276,0-0.5-0.224-0.5-0.5v-4C49,7.224,49.224,7,49.5,7S50,7.224,50,7.5v4
			C50,11.776,49.776,12,49.5,12z"/>
	</g>
	<g>
		<path class="st0" d="M49.862,61c-3.86,0-7-3.14-7-7s3.14-7,7-7s7,3.14,7,7S53.722,61,49.862,61z M49.862,48c-3.309,0-6,2.691-6,6
			s2.691,6,6,6s6-2.691,6-6S53.17,48,49.862,48z"/>
	</g>
	<g>
		<path class="st0" d="M49.862,58c-2.206,0-4-1.794-4-4s1.794-4,4-4s4,1.794,4,4S52.067,58,49.862,58z M49.862,51
			c-1.654,0-3,1.346-3,3s1.346,3,3,3s3-1.346,3-3S51.516,51,49.862,51z"/>
	</g>
	<g>
		<path class="st0" d="M60.641,57h-2.654c-0.276,0-0.5-0.224-0.5-0.5s0.224-0.5,0.5-0.5h2.654c0.215,0,0.406-0.138,0.475-0.342
			l1.497-4.491c0.078-0.235-0.03-0.496-0.252-0.606l-1.233-0.613c-0.173-0.086-0.281-0.265-0.277-0.458l0.095-4.506
			c0.02-0.939-0.603-1.754-1.515-1.982l-6.064-1.516c-0.11-0.027-0.208-0.091-0.277-0.182L45.24,31h-8.877l0,25.5
			c0,0.276-0.224,0.5-0.5,0.5l0,0c-0.276,0-0.5-0.224-0.5-0.5l0-26c0-0.276,0.224-0.5,0.5-0.5h9.625
			c0.156,0,0.303,0.073,0.398,0.197l7.894,10.361l5.895,1.474c1.367,0.342,2.301,1.564,2.272,2.973l-0.088,4.189l0.949,0.472
			c0.666,0.332,0.99,1.113,0.755,1.818l-1.497,4.491C61.86,56.588,61.288,57,60.641,57z"/>
	</g>
	<g>
		<path class="st6" d="M38.862,34.5V40c0,0.552,0.448,1,1,1h13.625l-5.714-7.5h-7.911C39.309,33.5,38.862,33.948,38.862,34.5z"/>
		<path class="st0" d="M53.487,41.5H39.862c-0.827,0-1.5-0.673-1.5-1.5v-5.5c0-0.827,0.673-1.5,1.5-1.5h7.911
			c0.156,0,0.303,0.073,0.398,0.197l5.714,7.5c0.115,0.151,0.134,0.355,0.05,0.525C53.851,41.392,53.677,41.5,53.487,41.5z
			 M39.862,34c-0.276,0-0.5,0.224-0.5,0.5V40c0,0.276,0.224,0.5,0.5,0.5h12.616L47.525,34H39.862z"/>
	</g>
	<g>
		<path class="st0" d="M47.431,38.5c-0.151,0-0.3-0.068-0.398-0.197l-1.143-1.5c-0.167-0.22-0.125-0.534,0.094-0.701
			c0.221-0.169,0.534-0.125,0.701,0.094l1.143,1.5c0.167,0.22,0.125,0.534-0.094,0.701C47.643,38.467,47.536,38.5,47.431,38.5z"/>
	</g>
	<g>
		<path class="st0" d="M53.487,46.123c-0.276,0-0.5-0.224-0.5-0.5V43c0-0.276,0.224-0.5,0.5-0.5s0.5,0.224,0.5,0.5v2.623
			C53.987,45.899,53.764,46.123,53.487,46.123z"/>
	</g>
	<g>
		<path class="st0" d="M61.351,50h-3c-0.156,0-0.302-0.073-0.397-0.196s-0.126-0.284-0.085-0.435l1.083-4
			C59.011,45.151,59.209,45,59.435,45h2c0.134,0,0.263,0.054,0.357,0.15c0.094,0.096,0.146,0.226,0.143,0.36l-0.084,4
			C61.845,49.783,61.623,50,61.351,50z M59.004,49h1.857l0.062-3h-1.106L59.004,49z"/>
	</g>
	<g>
		<path class="st0" d="M35.862,57c-0.276,0-0.5-0.224-0.5-0.5v-26c0-0.276,0.224-0.5,0.5-0.5h14c0.276,0,0.5-0.224,0.5-0.5V26
			c0-1.103-0.897-2-2-2h-45c-1.103,0-2,0.897-2,2v28c0,1.103,0.897,2,2,2h1.733c0.276,0,0.5,0.224,0.5,0.5S5.371,57,5.095,57H3.362
			c-1.654,0-3-1.346-3-3V26c0-1.654,1.346-3,3-3h45c1.654,0,3,1.346,3,3v3.5c0,0.827-0.673,1.5-1.5,1.5h-13.5v25.5
			C36.362,56.776,36.138,57,35.862,57z"/>
	</g>
	<g>
		<path class="st0" d="M13.362,61c-3.86,0-7-3.14-7-7s3.14-7,7-7s7,3.14,7,7S17.222,61,13.362,61z M13.362,48c-3.309,0-6,2.691-6,6
			s2.691,6,6,6s6-2.691,6-6S16.671,48,13.362,48z"/>
	</g>
	<g>
		<path class="st0" d="M41.737,57h-20.25c-0.276,0-0.5-0.224-0.5-0.5s0.224-0.5,0.5-0.5h20.25c0.276,0,0.5,0.224,0.5,0.5
			S42.013,57,41.737,57z"/>
	</g>
	<g>
		<path class="st0" d="M13.362,58c-2.206,0-4-1.794-4-4s1.794-4,4-4s4,1.794,4,4S15.568,58,13.362,58z M13.362,51
			c-1.654,0-3,1.346-3,3s1.346,3,3,3s3-1.346,3-3S15.017,51,13.362,51z"/>
	</g>
	<g>
		<path class="st6" d="M29.862,41h-29v-7.5h29c0.552,0,1,0.448,1,1V40C30.862,40.552,30.414,41,29.862,41z"/>
		<path class="st0" d="M29.862,41.5h-29c-0.276,0-0.5-0.224-0.5-0.5v-7.5c0-0.276,0.224-0.5,0.5-0.5h29c0.827,0,1.5,0.673,1.5,1.5
			V40C31.362,40.827,30.689,41.5,29.862,41.5z M1.362,40.5h28.5c0.276,0,0.5-0.224,0.5-0.5v-5.5c0-0.276-0.224-0.5-0.5-0.5h-28.5
			V40.5z"/>
	</g>
	<g>
		<path class="st0" d="M35.862,31h-35c-0.276,0-0.5-0.224-0.5-0.5s0.224-0.5,0.5-0.5h35c0.276,0,0.5,0.224,0.5,0.5
			S36.138,31,35.862,31z"/>
	</g>
	<g>
		<path class="st0" d="M35.862,44.5h-35c-0.276,0-0.5-0.224-0.5-0.5s0.224-0.5,0.5-0.5h35c0.276,0,0.5,0.224,0.5,0.5
			S36.138,44.5,35.862,44.5z"/>
	</g>
	<g>
		<path class="st0" d="M50.862,27.5h-50c-0.276,0-0.5-0.224-0.5-0.5s0.224-0.5,0.5-0.5h50c0.276,0,0.5,0.224,0.5,0.5
			S51.138,27.5,50.862,27.5z"/>
	</g>
	<g>
		<path class="st0" d="M31.862,54h-2c-0.827,0-1.5-0.673-1.5-1.5v-2c0-0.827,0.673-1.5,1.5-1.5h2c0.827,0,1.5,0.673,1.5,1.5v2
			C33.362,53.327,32.689,54,31.862,54z M29.862,50c-0.276,0-0.5,0.224-0.5,0.5v2c0,0.276,0.224,0.5,0.5,0.5h2
			c0.276,0,0.5-0.224,0.5-0.5v-2c0-0.276-0.224-0.5-0.5-0.5H29.862z"/>
	</g>
</g>
</svg>
