<?xml version="1.0" encoding="utf-8"?>
<!-- Generator: Adobe Illustrator 22.0.0, SVG Export Plug-In . SVG Version: 6.00 Build 0)  -->
<svg version="1.1" id="Layer_1" xmlns="http://www.w3.org/2000/svg" xmlns:xlink="http://www.w3.org/1999/xlink" x="0px" y="0px"
	 viewBox="0 0 64 64" style="enable-background:new 0 0 64 64;" xml:space="preserve">
<style type="text/css">
	.st0{fill:#263238;}
	.st1{fill:#4FC3F7;}
	.st2{fill:#FFD740;}
	.st3{fill:#FF5252;}
	.st4{fill:#4DB6AC;}
	.st5{fill:#FFFFFF;}
	.st6{fill:#40C4FF;}
	.st7{fill:#A2A2A1;}
	.st8{fill:#212A41;}
</style>
<g>
	<g>
		<path class="st1" d="M21.036,48.036l-4.328-4.328C16.077,43.077,15,43.523,15,44.414V49.5l-3.293-3.293
			C11.077,45.577,10,46.023,10,46.914V47c0,1.381-1.119,2.5-2.5,2.5H0V50c0,6.904,5.596,12.5,12.5,12.5h39
			C58.404,62.5,64,56.904,64,50v-0.5H24.571C23.245,49.5,21.973,48.973,21.036,48.036z"/>
	</g>
	<g>
		<path class="st2" d="M7.511,47.498C7.781,47.492,8,47.272,8,47c0-1.304,0.727-2.392,1.852-2.857
			C10.929,43.7,12.143,43.91,13,44.678v-0.264c0-1.218,0.727-2.306,1.852-2.771c1.129-0.465,2.409-0.21,3.27,0.65l3.186,3.186
			c0.571-0.451,1.276-0.682,2.009-0.646l2.835-2.835h-6.676c-4.128,0-7.475-3.347-7.475-7.475c-4.042,0.267-7.21,3.727-6.989,7.885
			C5.119,44.442,6.074,46.227,7.511,47.498z"/>
	</g>
	<g>
		<path class="st2" d="M56.486,47.5c1.438-1.271,2.394-3.057,2.502-5.092c0.221-4.158-2.948-7.617-6.989-7.885
			c0,4.128-3.347,7.475-7.475,7.475h-8.475L30.548,47.5H56.486z"/>
	</g>
	<g>
		<path class="st0" d="M18.5,25.5h-2c-0.276,0-0.5-0.224-0.5-0.5s0.224-0.5,0.5-0.5h2c0.276,0,0.5,0.224,0.5,0.5
			S18.776,25.5,18.5,25.5z"/>
	</g>
	<g>
		<path class="st0" d="M31.5,25.5h-11c-0.276,0-0.5-0.224-0.5-0.5s0.224-0.5,0.5-0.5h11c0.276,0,0.5,0.224,0.5,0.5
			S31.776,25.5,31.5,25.5z"/>
	</g>
	<g>
		<path class="st0" d="M36.5,22.5h-12c-0.276,0-0.5-0.224-0.5-0.5s0.224-0.5,0.5-0.5h12c0.276,0,0.5,0.224,0.5,0.5
			S36.776,22.5,36.5,22.5z"/>
	</g>
	<g>
		<path class="st1" d="M9.5,4.5c0-1.657,1.343-3,3-3s3,1.343,3,3c1.657,0,3,1.343,3,3s-1.343,3-3,3h-6c-1.657,0-3-1.343-3-3
			S7.843,4.5,9.5,4.5z"/>
	</g>
	<g>
		<path class="st0" d="M57,4h-4c-0.276,0-0.5-0.224-0.5-0.5S52.724,3,53,3h4c0.276,0,0.5,0.224,0.5,0.5S57.276,4,57,4z"/>
	</g>
	<g>
		<path class="st0" d="M55,6c-0.276,0-0.5-0.224-0.5-0.5v-4C54.5,1.224,54.724,1,55,1s0.5,0.224,0.5,0.5v4C55.5,5.776,55.276,6,55,6
			z"/>
	</g>
	<g>
		<path class="st0" d="M52,9h-4c-0.276,0-0.5-0.224-0.5-0.5S47.724,8,48,8h4c0.276,0,0.5,0.224,0.5,0.5S52.276,9,52,9z"/>
	</g>
	<g>
		<path class="st0" d="M50,11c-0.276,0-0.5-0.224-0.5-0.5v-4C49.5,6.224,49.724,6,50,6s0.5,0.224,0.5,0.5v4
			C50.5,10.776,50.276,11,50,11z"/>
	</g>
	<g>
		<path class="st1" d="M51,21.5c0-1.105,0.895-2,2-2c1.105,0,2,0.895,2,2c1.105,0,2,0.895,2,2c0,1.105-0.895,2-2,2h-4
			c-1.105,0-2-0.895-2-2C49,22.395,49.896,21.5,51,21.5z"/>
	</g>
	<g>
		<path class="st0" d="M41.533,34.565c-0.802,0-1.555-0.312-2.121-0.879c-1.17-1.17-1.17-3.073,0-4.243
			c1.167-1.17,3.071-1.17,4.242,0c1.17,1.17,1.17,3.073,0,4.243C43.088,34.253,42.334,34.565,41.533,34.565z M41.533,29.566
			c-0.513,0-1.024,0.194-1.414,0.584c-0.78,0.78-0.78,2.049,0,2.829c0.756,0.756,2.072,0.756,2.828,0c0.78-0.78,0.78-2.049,0-2.829
			C42.558,29.761,42.045,29.566,41.533,29.566z"/>
	</g>
	<g>
		<path class="st0" d="M7.469,47.964c-0.119,0-0.238-0.042-0.334-0.128c-1.583-1.42-2.515-3.338-2.623-5.401
			c-0.232-4.35,3.112-8.122,7.454-8.41c0.141-0.018,0.274,0.04,0.375,0.134c0.101,0.095,0.158,0.227,0.158,0.365
			c0,3.846,3.129,6.975,6.976,6.975h6.676c0.276,0,0.5,0.224,0.5,0.5s-0.224,0.5-0.5,0.5h-6.676c-4.212,0-7.672-3.281-7.957-7.423
			c-3.545,0.501-6.201,3.674-6.008,7.307c0.095,1.796,0.909,3.469,2.293,4.71c0.205,0.185,0.223,0.5,0.038,0.706
			C7.742,47.908,7.605,47.964,7.469,47.964z"/>
	</g>
	<g>
		<path class="st0" d="M56.487,48.002c-0.138,0-0.275-0.057-0.375-0.169c-0.183-0.207-0.163-0.522,0.044-0.706
			c1.407-1.244,2.236-2.929,2.333-4.745c0.193-3.633-2.463-6.806-6.009-7.307c-0.285,4.142-3.744,7.423-7.956,7.423h-8.476
			c-0.276,0-0.5-0.224-0.5-0.5s0.224-0.5,0.5-0.5h8.476c3.846,0,6.975-3.129,6.975-6.975c0-0.139,0.058-0.271,0.158-0.365
			c0.101-0.094,0.237-0.151,0.375-0.134c4.343,0.288,7.688,4.061,7.455,8.41c-0.111,2.086-1.059,4.019-2.669,5.442
			C56.724,47.961,56.605,48.002,56.487,48.002z"/>
	</g>
	<g>
		<path class="st0" d="M19.612,57.106c-0.4,0-0.777-0.156-1.061-0.439l-2.121-2.121c-0.585-0.585-0.585-1.536,0-2.121l5.671-5.671
			c0.324-0.325,0.769-0.479,1.228-0.43l2.702,0.3c0.232,0.026,0.416,0.209,0.442,0.441l0.301,2.704
			c0.05,0.457-0.107,0.904-0.431,1.228l-5.671,5.67C20.391,56.95,20.015,57.106,19.612,57.106
			C19.613,57.106,19.613,57.106,19.612,57.106z M23.16,47.315c-0.132,0-0.257,0.051-0.352,0.146l-5.671,5.671
			c-0.195,0.195-0.195,0.512,0,0.707l2.121,2.121c0.095,0.095,0.22,0.146,0.354,0.146h0.001c0.133,0,0.258-0.052,0.353-0.146
			l5.671-5.67c0.108-0.108,0.16-0.258,0.144-0.41l-0.257-2.306l-2.306-0.256C23.198,47.316,23.179,47.315,23.16,47.315z"/>
	</g>
	<g>
		<path class="st0" d="M26.188,49.531c-0.056,0-0.111-0.009-0.166-0.028c-0.181-0.063-0.31-0.226-0.331-0.417l-0.168-1.512
			l-1.511-0.168c-0.191-0.021-0.354-0.15-0.417-0.332c-0.063-0.181-0.018-0.383,0.118-0.519l14.999-14.998
			c0.136-0.135,0.332-0.18,0.513-0.12c0.18,0.06,0.31,0.217,0.336,0.404c0.062,0.441,0.254,0.834,0.558,1.138
			s0.696,0.496,1.138,0.558c0.188,0.026,0.345,0.156,0.404,0.336c0.061,0.18,0.014,0.379-0.12,0.513L26.542,49.385
			C26.446,49.48,26.318,49.531,26.188,49.531z M25.156,46.527l0.875,0.097c0.233,0.026,0.416,0.209,0.442,0.442l0.097,0.876
			L40.243,34.27c-0.308-0.144-0.588-0.34-0.831-0.583s-0.439-0.523-0.583-0.831L25.156,46.527z"/>
	</g>
</g>
</svg>
