<?xml version="1.0" encoding="utf-8"?>
<!-- Generator: Adobe Illustrator 22.0.0, SVG Export Plug-In . SVG Version: 6.00 Build 0)  -->
<svg version="1.1" id="Layer_1" xmlns="http://www.w3.org/2000/svg" xmlns:xlink="http://www.w3.org/1999/xlink" x="0px" y="0px"
	 viewBox="0 0 64 64" style="enable-background:new 0 0 64 64;" xml:space="preserve">
<style type="text/css">
	.st0{fill:#263238;}
	.st1{fill:#4FC3F7;}
	.st2{fill:#FFD740;}
	.st3{fill:#FF5252;}
	.st4{fill:#4DB6AC;}
	.st5{fill:#FFFFFF;}
	.st6{fill:#40C4FF;}
	.st7{fill:#A2A2A1;}
	.st8{fill:#212A41;}
</style>
<g>
	<g>
		<path class="st3" d="M61.943,47.226L61.489,47l-0.667-3.182c-0.42-2.004-2.02-3.549-4.037-3.899l-8.16-1.419l-10.938-8.835
			C36.353,28.587,34.69,28,32.975,28H20.161c-1.379,0-2.696,0.569-3.641,1.573L10,36.5H1.766c-0.777,0-1.257,0.848-0.857,1.514
			L3,41.5V47h0c-1.287,0-2.246,1.186-1.976,2.444L2,54h5.5c-0.292-0.699-0.466-1.459-0.495-2.256
			C6.872,48.16,9.836,45.042,13.422,45C17.048,44.958,20,47.884,20,51.5c0,0.886-0.179,1.73-0.5,2.5H44
			c-0.292-0.699-0.466-1.459-0.495-2.256c-0.133-3.584,2.831-6.701,6.417-6.744c3.626-0.043,6.578,2.884,6.578,6.5
			c0,0.886-0.179,1.73-0.5,2.5h5.5l1.45-4.351C63.265,48.703,62.836,47.669,61.943,47.226z M20.045,38.5
			c-1.858,0-3.067-1.956-2.236-3.618l1.5-3c0.423-0.847,1.289-1.382,2.236-1.382H38.72l9.905,8H20.045z M58.716,47l-1.276-2.553
			C57.107,43.782,57.591,43,58.334,43h2.234c0.105,0.263,0.194,0.535,0.253,0.818L61.489,47l0,0H58.716z"/>
	</g>
	<g>
		<path class="st4" d="M49.479,36.618l3.449,0.6l-4.452-19.865c-0.233-1.042-1.718-1.042-1.952,0l-3.203,14.291L49.479,36.618z"/>
	</g>
	<g>
		<path class="st4" d="M38.944,28.109l2.372,1.916l-2.84-12.672c-0.233-1.042-1.718-1.042-1.952,0l-1.968,8.781
			C36.155,26.406,37.673,27.083,38.944,28.109z"/>
	</g>
	<g>
		<path class="st4" d="M30.414,26l-1.938-8.646c-0.233-1.042-1.718-1.042-1.952,0L24.586,26H30.414z"/>
	</g>
	<g>
		<path class="st0" d="M61.5,54.5h-3.375c-0.276,0-0.5-0.224-0.5-0.5s0.224-0.5,0.5-0.5h3.015l1.336-4.009
			c0.234-0.705-0.09-1.487-0.755-1.817l-0.455-0.226c-0.137-0.068-0.235-0.195-0.267-0.345l-0.667-3.181
			c-0.381-1.814-1.807-3.192-3.633-3.509l-8.16-1.419c-0.083-0.015-0.162-0.05-0.228-0.104l-10.938-8.834
			c-1.241-1.002-2.803-1.555-4.398-1.555H20.161c-1.236,0-2.43,0.516-3.277,1.416l-6.519,6.927C10.27,36.942,10.138,37,10,37H1.767
			c-0.263,0-0.392,0.178-0.436,0.254c-0.043,0.076-0.129,0.278,0.006,0.503l2.092,3.485C3.476,41.32,3.5,41.409,3.5,41.5V47
			c0,0.276-0.224,0.5-0.5,0.5c-0.462,0-0.893,0.206-1.183,0.565s-0.401,0.824-0.305,1.275l0.892,4.16h2.971
			c0.276,0,0.5,0.224,0.5,0.5s-0.224,0.5-0.5,0.5H2c-0.236,0-0.439-0.165-0.489-0.395l-0.977-4.555
			c-0.161-0.749,0.023-1.519,0.504-2.114c0.375-0.463,0.89-0.772,1.46-0.887l0-4.911L0.48,38.271
			c-0.282-0.47-0.289-1.034-0.019-1.511C0.731,36.284,1.219,36,1.767,36h8.018l6.371-6.77c1.035-1.1,2.495-1.73,4.005-1.73h12.814
			c1.823,0,3.608,0.631,5.026,1.776l10.838,8.753l8.032,1.397c2.232,0.388,3.975,2.072,4.44,4.29l0.618,2.944l0.238,0.118
			c1.109,0.551,1.65,1.854,1.259,3.029l-1.451,4.351C61.906,54.362,61.715,54.5,61.5,54.5z"/>
	</g>
	<g>
		<path class="st0" d="M3.5,58.5h-3C0.224,58.5,0,58.276,0,58s0.224-0.5,0.5-0.5h3C3.776,57.5,4,57.724,4,58S3.776,58.5,3.5,58.5z"
			/>
	</g>
	<g>
		<path class="st0" d="M63.5,58.5h-58C5.224,58.5,5,58.276,5,58s0.224-0.5,0.5-0.5h58c0.276,0,0.5,0.224,0.5,0.5
			S63.776,58.5,63.5,58.5z"/>
	</g>
	<g>
		<path class="st0" d="M2.5,26.5h-2C0.224,26.5,0,26.276,0,26s0.224-0.5,0.5-0.5h2C2.776,25.5,3,25.724,3,26S2.776,26.5,2.5,26.5z"
			/>
	</g>
	<g>
		<path class="st0" d="M15.5,26.5h-11C4.224,26.5,4,26.276,4,26s0.224-0.5,0.5-0.5h11c0.276,0,0.5,0.224,0.5,0.5
			S15.776,26.5,15.5,26.5z"/>
	</g>
	<g>
		<path class="st0" d="M20.5,23.5h-12C8.224,23.5,8,23.276,8,23s0.224-0.5,0.5-0.5h12c0.276,0,0.5,0.224,0.5,0.5
			S20.776,23.5,20.5,23.5z"/>
	</g>
	<g>
		<path class="st0" d="M50,58.5c-3.86,0-7-3.14-7-7s3.14-7,7-7s7,3.14,7,7S53.86,58.5,50,58.5z M50,45.5c-3.309,0-6,2.691-6,6
			s2.691,6,6,6s6-2.691,6-6S53.309,45.5,50,45.5z"/>
	</g>
	<g>
		<path class="st0" d="M50,55.5c-2.206,0-4-1.794-4-4s1.794-4,4-4s4,1.794,4,4S52.206,55.5,50,55.5z M50,48.5c-1.654,0-3,1.346-3,3
			s1.346,3,3,3s3-1.346,3-3S51.654,48.5,50,48.5z"/>
	</g>
	<g>
		<path class="st0" d="M13.5,58.5c-3.86,0-7-3.14-7-7s3.14-7,7-7s7,3.14,7,7S17.36,58.5,13.5,58.5z M13.5,45.5c-3.309,0-6,2.691-6,6
			s2.691,6,6,6s6-2.691,6-6S16.809,45.5,13.5,45.5z"/>
	</g>
	<g>
		<path class="st0" d="M41.875,54.5h-20.25c-0.276,0-0.5-0.224-0.5-0.5s0.224-0.5,0.5-0.5h20.25c0.276,0,0.5,0.224,0.5,0.5
			S42.151,54.5,41.875,54.5z"/>
	</g>
	<g>
		<path class="st0" d="M13.5,55.5c-2.206,0-4-1.794-4-4s1.794-4,4-4s4,1.794,4,4S15.706,55.5,13.5,55.5z M13.5,48.5
			c-1.654,0-3,1.346-3,3s1.346,3,3,3s3-1.346,3-3S15.154,48.5,13.5,48.5z"/>
	</g>
	<g>
		<path class="st0" d="M48.625,39h-28.58c-1.047,0-2.001-0.532-2.552-1.423c-0.55-0.891-0.6-1.982-0.131-2.919l1.5-3l0,0
			C19.374,30.635,20.402,30,21.545,30H38.72c0.114,0,0.225,0.039,0.314,0.111l9.905,8c0.165,0.133,0.228,0.356,0.157,0.556
			C49.026,38.866,48.837,39,48.625,39z M19.756,32.105l-1.5,3c-0.312,0.625-0.279,1.352,0.087,1.946
			C18.71,37.646,19.347,38,20.045,38H47.21l-8.667-7H21.545C20.783,31,20.097,31.424,19.756,32.105L19.756,32.105z"/>
	</g>
	<g>
		<path class="st0" d="M47.625,43.95c-0.276,0-0.5-0.224-0.5-0.5V40.5c0-0.276,0.224-0.5,0.5-0.5s0.5,0.224,0.5,0.5v2.95
			C48.125,43.726,47.901,43.95,47.625,43.95z"/>
	</g>
	<g>
		<path class="st0" d="M30.5,52.5c-0.276,0-0.5-0.224-0.5-0.5V40.5c0-0.276,0.224-0.5,0.5-0.5s0.5,0.224,0.5,0.5V52
			C31,52.276,30.776,52.5,30.5,52.5z"/>
	</g>
	<g>
		<path class="st0" d="M30.5,39c-0.276,0-0.5-0.224-0.5-0.5v-8c0-0.276,0.224-0.5,0.5-0.5s0.5,0.224,0.5,0.5v8
			C31,38.776,30.776,39,30.5,39z"/>
	</g>
	<g>
		<path class="st0" d="M9.125,43.5h-2c-0.827,0-1.5-0.673-1.5-1.5v-2c0-0.827,0.673-1.5,1.5-1.5h2c0.827,0,1.5,0.673,1.5,1.5v2
			C10.625,42.827,9.952,43.5,9.125,43.5z M7.125,39.5c-0.276,0-0.5,0.224-0.5,0.5v2c0,0.276,0.224,0.5,0.5,0.5h2
			c0.276,0,0.5-0.224,0.5-0.5v-2c0-0.276-0.224-0.5-0.5-0.5H7.125z"/>
	</g>
	<g>
		<path class="st0" d="M61.489,47.5h-2.772c-0.189,0-0.362-0.107-0.447-0.276l-1.276-2.553c-0.234-0.468-0.209-1.014,0.065-1.459
			c0.275-0.445,0.752-0.711,1.276-0.711h2.234c0.205,0,0.389,0.125,0.465,0.315c0.126,0.318,0.217,0.613,0.277,0.9l0.667,3.182
			c0.031,0.147-0.006,0.301-0.101,0.417C61.782,47.432,61.639,47.5,61.489,47.5z M59.025,46.5h1.848l-0.541-2.579
			c-0.029-0.136-0.066-0.275-0.114-0.421h-1.884c-0.252,0-0.381,0.166-0.425,0.237c-0.044,0.071-0.135,0.261-0.022,0.486
			L59.025,46.5z"/>
	</g>
	<g>
		<path class="st1" d="M8.5,9c0-1.657,1.343-3,3-3s3,1.343,3,3c1.657,0,3,1.343,3,3s-1.343,3-3,3h-6c-1.657,0-3-1.343-3-3
			S6.843,9,8.5,9z"/>
	</g>
	<g>
		<path class="st0" d="M52.5,8.5h-4C48.224,8.5,48,8.276,48,8s0.224-0.5,0.5-0.5h4C52.776,7.5,53,7.724,53,8S52.776,8.5,52.5,8.5z"
			/>
	</g>
	<g>
		<path class="st0" d="M50.5,10.5c-0.276,0-0.5-0.224-0.5-0.5V6c0-0.276,0.224-0.5,0.5-0.5S51,5.724,51,6v4
			C51,10.276,50.776,10.5,50.5,10.5z"/>
	</g>
	<g>
		<path class="st0" d="M58.5,12.5h-4c-0.276,0-0.5-0.224-0.5-0.5s0.224-0.5,0.5-0.5h4c0.276,0,0.5,0.224,0.5,0.5
			S58.776,12.5,58.5,12.5z"/>
	</g>
	<g>
		<path class="st0" d="M56.5,14.5c-0.276,0-0.5-0.224-0.5-0.5v-4c0-0.276,0.224-0.5,0.5-0.5S57,9.724,57,10v4
			C57,14.276,56.776,14.5,56.5,14.5z"/>
	</g>
	<g>
		<path class="st0" d="M40.136,36c-0.11,0-0.221-0.036-0.313-0.111l-2.476-2c-0.215-0.174-0.249-0.488-0.075-0.703
			c0.174-0.215,0.489-0.249,0.703-0.075l2.476,2c0.215,0.174,0.249,0.488,0.075,0.703C40.426,35.937,40.282,36,40.136,36z"/>
	</g>
	<g>
		<path class="st0" d="M17.542,43.95c-0.276,0-0.5-0.224-0.5-0.5V40.5c0-0.276,0.224-0.5,0.5-0.5s0.5,0.224,0.5,0.5v2.95
			C18.042,43.726,17.818,43.95,17.542,43.95z"/>
	</g>
</g>
</svg>
