<?xml version="1.0" encoding="utf-8"?>
<!-- Generator: Adobe Illustrator 22.0.0, SVG Export Plug-In . SVG Version: 6.00 Build 0)  -->
<svg version="1.1" id="Layer_1" xmlns="http://www.w3.org/2000/svg" xmlns:xlink="http://www.w3.org/1999/xlink" x="0px" y="0px"
	 viewBox="0 0 64 64" style="enable-background:new 0 0 64 64;" xml:space="preserve">
<style type="text/css">
	.st0{fill:#263238;}
	.st1{fill:#4FC3F7;}
	.st2{fill:#FFD740;}
	.st3{fill:#FF5252;}
	.st4{fill:#4DB6AC;}
	.st5{fill:#FFFFFF;}
	.st6{fill:#40C4FF;}
	.st7{fill:#A2A2A1;}
	.st8{fill:#212A41;}
</style>
<g>
	<g>
		<path class="st0" d="M3.5,59.5h-3C0.224,59.5,0,59.276,0,59s0.224-0.5,0.5-0.5h3C3.776,58.5,4,58.724,4,59S3.776,59.5,3.5,59.5z"
			/>
	</g>
	<g>
		<path class="st0" d="M63.5,59.5h-58C5.224,59.5,5,59.276,5,59s0.224-0.5,0.5-0.5h58c0.276,0,0.5,0.224,0.5,0.5
			S63.776,59.5,63.5,59.5z"/>
	</g>
	<g>
		<path class="st0" d="M54.25,14.125h-4c-0.276,0-0.5-0.224-0.5-0.5s0.224-0.5,0.5-0.5h4c0.276,0,0.5,0.224,0.5,0.5
			S54.526,14.125,54.25,14.125z"/>
	</g>
	<g>
		<path class="st0" d="M52.25,16.125c-0.276,0-0.5-0.224-0.5-0.5v-4c0-0.276,0.224-0.5,0.5-0.5s0.5,0.224,0.5,0.5v4
			C52.75,15.901,52.526,16.125,52.25,16.125z"/>
	</g>
	<g>
		<path class="st0" d="M59.75,18.625h-4c-0.276,0-0.5-0.224-0.5-0.5s0.224-0.5,0.5-0.5h4c0.276,0,0.5,0.224,0.5,0.5
			S60.026,18.625,59.75,18.625z"/>
	</g>
	<g>
		<path class="st0" d="M57.75,20.625c-0.276,0-0.5-0.224-0.5-0.5v-4c0-0.276,0.224-0.5,0.5-0.5s0.5,0.224,0.5,0.5v4
			C58.25,20.401,58.026,20.625,57.75,20.625z"/>
	</g>
	<g>
		<path class="st0" d="M24.75,14h-2c-0.276,0-0.5-0.224-0.5-0.5s0.224-0.5,0.5-0.5h2c0.276,0,0.5,0.224,0.5,0.5S25.026,14,24.75,14z
			"/>
	</g>
	<g>
		<path class="st0" d="M37.75,14h-11c-0.276,0-0.5-0.224-0.5-0.5s0.224-0.5,0.5-0.5h11c0.276,0,0.5,0.224,0.5,0.5
			S38.026,14,37.75,14z"/>
	</g>
	<g>
		<path class="st0" d="M42.75,11h-12c-0.276,0-0.5-0.224-0.5-0.5s0.224-0.5,0.5-0.5h12c0.276,0,0.5,0.224,0.5,0.5
			S43.026,11,42.75,11z"/>
	</g>
	<g>
		<path class="st1" d="M7.25,8c0-1.657,1.343-3,3-3s3,1.343,3,3c1.657,0,3,1.343,3,3s-1.343,3-3,3h-6c-1.657,0-3-1.343-3-3
			S5.593,8,7.25,8z"/>
	</g>
	<g>
		<path class="st0" d="M49,30.312H15c-0.827,0-1.5-0.673-1.5-1.5v-1c0-0.827,0.673-1.5,1.5-1.5h34c0.827,0,1.5,0.673,1.5,1.5v1
			C50.5,29.64,49.827,30.312,49,30.312z M15,27.312c-0.276,0-0.5,0.224-0.5,0.5v1c0,0.276,0.224,0.5,0.5,0.5h34
			c0.275,0,0.5-0.224,0.5-0.5v-1c0-0.276-0.225-0.5-0.5-0.5H15z"/>
	</g>
	<g>
		<path class="st0" d="M48,27.312H16c-0.276,0-0.5-0.224-0.5-0.5c0-3.033,2.467-5.5,5.5-5.5h22c3.032,0,5.5,2.467,5.5,5.5
			C48.5,27.089,48.276,27.312,48,27.312z M16.528,26.312h30.945c-0.25-2.247-2.16-4-4.473-4H21
			C18.687,22.312,16.777,24.065,16.528,26.312z"/>
	</g>
	<g>
		<path class="st0" d="M28,41.312c-0.276,0-0.5-0.224-0.5-0.5v-8c0-0.276,0.224-0.5,0.5-0.5s0.5,0.224,0.5,0.5v8
			C28.5,41.089,28.276,41.312,28,41.312z"/>
	</g>
	<g>
		<path class="st0" d="M36,41.312c-0.276,0-0.5-0.224-0.5-0.5v-8c0-0.276,0.224-0.5,0.5-0.5s0.5,0.224,0.5,0.5v8
			C36.5,41.089,36.276,41.312,36,41.312z"/>
	</g>
	<g>
		<path class="st0" d="M14,40.312H6.5c-0.827,0-1.5-0.673-1.5-1.5v-1c0-0.827,0.673-1.5,1.5-1.5H14c0.276,0,0.5,0.224,0.5,0.5
			s-0.224,0.5-0.5,0.5H6.5c-0.276,0-0.5,0.224-0.5,0.5v1c0,0.276,0.224,0.5,0.5,0.5H14c0.276,0,0.5,0.224,0.5,0.5
			S14.276,40.312,14,40.312z"/>
	</g>
	<g>
		<path class="st0" d="M57.5,40.312H50c-0.276,0-0.5-0.224-0.5-0.5s0.224-0.5,0.5-0.5h7.5c0.275,0,0.5-0.224,0.5-0.5v-1
			c0-0.276-0.225-0.5-0.5-0.5H50c-0.276,0-0.5-0.224-0.5-0.5s0.224-0.5,0.5-0.5h7.5c0.827,0,1.5,0.673,1.5,1.5v1
			C59,39.64,58.327,40.312,57.5,40.312z"/>
	</g>
	<g>
		<path class="st0" d="M50,59.5c-4.687,0-8.5-3.813-8.5-8.5s3.813-8.5,8.5-8.5s8.5,3.813,8.5,8.5S54.687,59.5,50,59.5z M50,43.5
			c-4.136,0-7.5,3.364-7.5,7.5s3.364,7.5,7.5,7.5s7.5-3.364,7.5-7.5S54.136,43.5,50,43.5z"/>
	</g>
	<g>
		<path class="st0" d="M50,56c-2.757,0-5-2.243-5-5s2.243-5,5-5s5,2.243,5,5S52.757,56,50,56z M50,47c-2.206,0-4,1.794-4,4
			s1.794,4,4,4s4-1.794,4-4S52.206,47,50,47z"/>
	</g>
	<g>
		<path class="st0" d="M14,59.5c-4.687,0-8.5-3.813-8.5-8.5s3.813-8.5,8.5-8.5s8.5,3.813,8.5,8.5S18.687,59.5,14,59.5z M14,43.5
			c-4.136,0-7.5,3.364-7.5,7.5s3.364,7.5,7.5,7.5s7.5-3.364,7.5-7.5S18.136,43.5,14,43.5z"/>
	</g>
	<g>
		<path class="st2" d="M48,41.202V29.813H16v11.389c4.559,0.929,8,4.969,8,9.798h16C40,46.171,43.441,42.131,48,41.202z M36,40.813
			v6h-8v-6h-7v-8h7h8h7v8H36z"/>
	</g>
	<g>
		<path class="st0" d="M40,51.5H24c-0.276,0-0.5-0.224-0.5-0.5s0.224-0.5,0.5-0.5h16c0.276,0,0.5,0.224,0.5,0.5S40.276,51.5,40,51.5
			z M35,47.312h-6c-0.827,0-1.5-0.673-1.5-1.5v-4.5H22c-0.827,0-1.5-0.673-1.5-1.5v-6c0-0.827,0.673-1.5,1.5-1.5h20
			c0.827,0,1.5,0.673,1.5,1.5v6c0,0.827-0.673,1.5-1.5,1.5h-5.5v4.5C36.5,46.64,35.827,47.312,35,47.312z M22,33.312
			c-0.276,0-0.5,0.224-0.5,0.5v6c0,0.276,0.224,0.5,0.5,0.5h6c0.276,0,0.5,0.224,0.5,0.5v5c0,0.276,0.224,0.5,0.5,0.5h6
			c0.275,0,0.5-0.224,0.5-0.5v-5c0-0.276,0.224-0.5,0.5-0.5h6c0.275,0,0.5-0.224,0.5-0.5v-6c0-0.276-0.225-0.5-0.5-0.5H22z
			 M48,41.702c-0.276,0-0.5-0.224-0.5-0.5V30.312h-31v10.889c0,0.276-0.224,0.5-0.5,0.5s-0.5-0.224-0.5-0.5V29.812
			c0-0.276,0.224-0.5,0.5-0.5h32c0.276,0,0.5,0.224,0.5,0.5v11.389C48.5,41.478,48.276,41.702,48,41.702z"/>
	</g>
	<g>
		<path class="st0" d="M14,56c-2.757,0-5-2.243-5-5s2.243-5,5-5s5,2.243,5,5S16.757,56,14,56z M14,47c-2.206,0-4,1.794-4,4
			s1.794,4,4,4s4-1.794,4-4S16.206,47,14,47z"/>
	</g>
</g>
</svg>
