<?xml version="1.0" encoding="utf-8"?>
<!-- Generator: Adobe Illustrator 22.0.0, SVG Export Plug-In . SVG Version: 6.00 Build 0)  -->
<svg version="1.1" id="Layer_1" xmlns="http://www.w3.org/2000/svg" xmlns:xlink="http://www.w3.org/1999/xlink" x="0px" y="0px"
	 viewBox="0 0 64 64" style="enable-background:new 0 0 64 64;" xml:space="preserve">
<style type="text/css">
	.st0{fill:#263238;}
	.st1{fill:#4FC3F7;}
	.st2{fill:#FFD740;}
	.st3{fill:#FF5252;}
	.st4{fill:#4DB6AC;}
	.st5{fill:#FFFFFF;}
	.st6{fill:#40C4FF;}
	.st7{fill:#A2A2A1;}
	.st8{fill:#212A41;}
</style>
<g>
	<g>
		<path class="st3" d="M25.066,43.719C24.729,42.693,23.771,42,22.691,42H13.5V27.5h-6V49c0,1.381,1.119,2.5,2.5,2.5h0.5
			c0-3.59,2.91-6.5,6.5-6.5s6.5,2.91,6.5,6.5h4.124L25.066,43.719z"/>
	</g>
	<g>
		<path class="st0" d="M50,58.5c-3.86,0-7-3.14-7-7c0-2.149,0.971-4.149,2.663-5.488c0.217-0.171,0.532-0.134,0.702,0.082
			c0.171,0.216,0.135,0.531-0.082,0.702C44.833,47.944,44,49.659,44,51.5c0,3.309,2.691,6,6,6s6-2.691,6-6s-2.691-6-6-6
			l-0.255,0.014c-0.246,0.015-0.509-0.202-0.521-0.479c-0.012-0.276,0.203-0.509,0.479-0.521c0.16-0.01,0.228-0.015,0.297-0.015
			c3.86,0,7,3.14,7,7S53.86,58.5,50,58.5z"/>
	</g>
	<g>
		<path class="st1" d="M50.243,24.5c0-1.105,0.895-2,2-2s2,0.895,2,2c1.105,0,2,0.895,2,2c0,1.105-0.895,2-2,2h-4
			c-1.105,0-2-0.895-2-2C48.243,25.395,49.138,24.5,50.243,24.5z"/>
	</g>
	<g>
		<path class="st0" d="M25,16.5h-2c-0.276,0-0.5-0.224-0.5-0.5s0.224-0.5,0.5-0.5h2c0.276,0,0.5,0.224,0.5,0.5S25.276,16.5,25,16.5z
			"/>
	</g>
	<g>
		<path class="st0" d="M38,16.5H27c-0.276,0-0.5-0.224-0.5-0.5s0.224-0.5,0.5-0.5h11c0.276,0,0.5,0.224,0.5,0.5S38.276,16.5,38,16.5
			z"/>
	</g>
	<g>
		<path class="st0" d="M43,13.5H31c-0.276,0-0.5-0.224-0.5-0.5s0.224-0.5,0.5-0.5h12c0.276,0,0.5,0.224,0.5,0.5S43.276,13.5,43,13.5
			z"/>
	</g>
	<g>
		<path class="st0" d="M3.5,58.5h-3C0.224,58.5,0,58.276,0,58s0.224-0.5,0.5-0.5h3C3.776,57.5,4,57.724,4,58S3.776,58.5,3.5,58.5z"
			/>
	</g>
	<g>
		<path class="st0" d="M63.5,58.5h-58C5.224,58.5,5,58.276,5,58s0.224-0.5,0.5-0.5h58c0.276,0,0.5,0.224,0.5,0.5
			S63.776,58.5,63.5,58.5z"/>
	</g>
	<g>
		<path class="st1" d="M8.5,9c0-1.657,1.343-3,3-3s3,1.343,3,3c1.657,0,3,1.343,3,3s-1.343,3-3,3h-6c-1.657,0-3-1.343-3-3
			S6.843,9,8.5,9z"/>
	</g>
	<g>
		<path class="st0" d="M52.5,8.5h-4C48.224,8.5,48,8.276,48,8s0.224-0.5,0.5-0.5h4C52.776,7.5,53,7.724,53,8S52.776,8.5,52.5,8.5z"
			/>
	</g>
	<g>
		<path class="st0" d="M50.5,10.5c-0.276,0-0.5-0.224-0.5-0.5V6c0-0.276,0.224-0.5,0.5-0.5S51,5.724,51,6v4
			C51,10.276,50.776,10.5,50.5,10.5z"/>
	</g>
	<g>
		<path class="st0" d="M58.5,12.5h-4c-0.276,0-0.5-0.224-0.5-0.5s0.224-0.5,0.5-0.5h4c0.276,0,0.5,0.224,0.5,0.5
			S58.776,12.5,58.5,12.5z"/>
	</g>
	<g>
		<path class="st0" d="M56.5,14.5c-0.276,0-0.5-0.224-0.5-0.5v-4c0-0.276,0.224-0.5,0.5-0.5S57,9.724,57,10v4
			C57,14.276,56.776,14.5,56.5,14.5z"/>
	</g>
	<g>
		<path class="st0" d="M17,58.5c-3.86,0-7-3.14-7-7s3.14-7,7-7s7,3.14,7,7S20.86,58.5,17,58.5z M17,45.5c-3.309,0-6,2.691-6,6
			s2.691,6,6,6s6-2.691,6-6S20.309,45.5,17,45.5z"/>
	</g>
	<g>
		<path class="st0" d="M17,55.5c-2.206,0-4-1.794-4-4s1.794-4,4-4s4,1.794,4,4S19.206,55.5,17,55.5z M17,48.5c-1.654,0-3,1.346-3,3
			s1.346,3,3,3s3-1.346,3-3S18.655,48.5,17,48.5z"/>
	</g>
	<g>
		<path class="st0" d="M25,28H7.5C7.224,28,7,27.776,7,27.5V26c0-1.654,1.346-3,3-3h13.5c1.654,0,3,1.346,3,3v0.5
			C26.5,27.327,25.827,28,25,28z M8,27h17c0.276,0,0.5-0.224,0.5-0.5V26c0-1.103-0.897-2-2-2H10c-1.103,0-2,0.897-2,2V27z"/>
	</g>
	<g>
		<path class="st0" d="M18.5,42.5h-5c-0.276,0-0.5-0.224-0.5-0.5v-7.5c0-0.276,0.224-0.5,0.5-0.5h2.231
			c0.679,0,1.274,0.458,1.449,1.113l1.802,6.758c0.04,0.15,0.008,0.311-0.086,0.434S18.656,42.5,18.5,42.5z M14,41.5h3.849
			l-1.634-6.129C16.157,35.152,15.958,35,15.732,35H14V41.5z"/>
	</g>
	<g>
		<path class="st0" d="M27.625,52c-0.21,0-0.406-0.133-0.475-0.344l-2.559-7.781c-0.271-0.822-1.034-1.375-1.9-1.375H13.5
			c-0.276,0-0.5-0.224-0.5-0.5V28H8v21c0,0.637,0.299,1.222,0.822,1.606c0.222,0.164,0.27,0.477,0.106,0.699
			c-0.164,0.222-0.477,0.27-0.699,0.106C7.448,50.837,7,49.958,7,49V27.5C7,27.224,7.224,27,7.5,27h6c0.276,0,0.5,0.224,0.5,0.5v14
			h8.69c1.299,0,2.444,0.829,2.85,2.062l2.559,7.781c0.086,0.262-0.057,0.545-0.319,0.631C27.729,51.992,27.677,52,27.625,52z"/>
	</g>
	<g>
		<path class="st0" d="M50,52c-0.203,0-0.394-0.125-0.469-0.326L43.153,34.5H41c-0.276,0-0.5-0.224-0.5-0.5s0.224-0.5,0.5-0.5h2.5
			c0.209,0,0.396,0.13,0.469,0.326l6.5,17.5c0.096,0.259-0.036,0.547-0.294,0.643C50.117,51.99,50.059,52,50,52z"/>
	</g>
	<g>
		<path class="st0" d="M50,55.5c-2.206,0-4-1.794-4-4c0-0.815,0.248-1.603,0.716-2.277c0.157-0.228,0.469-0.284,0.696-0.125
			c0.227,0.158,0.283,0.469,0.125,0.696C47.186,50.299,47,50.89,47,51.5c0,1.654,1.346,3,3,3s3-1.346,3-3
			c0-1.357-0.924-2.546-2.246-2.891c-0.268-0.07-0.428-0.343-0.358-0.61c0.07-0.268,0.346-0.427,0.61-0.358
			C52.77,48.101,54,49.688,54,51.5C54,53.706,52.206,55.5,50,55.5z"/>
	</g>
	<g>
		<path class="st0" d="M39.625,52h-12c-0.186,0-0.356-0.103-0.442-0.267s-0.075-0.363,0.03-0.516l6.5-9.5
			c0.093-0.136,0.248-0.218,0.413-0.218h12c0.186,0,0.356,0.103,0.442,0.267s0.075,0.363-0.03,0.516l-6.5,9.5
			C39.944,51.918,39.79,52,39.625,52z M28.573,51h10.789l5.816-8.5H34.389L28.573,51z"/>
	</g>
	<g>
		<path class="st0" d="M39.625,52c-0.172,0-0.339-0.089-0.433-0.248l-7-12c-0.139-0.239-0.058-0.545,0.18-0.684
			c0.239-0.138,0.545-0.058,0.684,0.18l7,12c0.139,0.239,0.058,0.545-0.18,0.684C39.798,51.978,39.711,52,39.625,52z"/>
	</g>
	<g>
		<polygon class="st3" points="25,27.5 13.5,42 13.5,27.5 		"/>
		<path class="st0" d="M13.5,42.5c-0.055,0-0.11-0.009-0.165-0.028C13.135,42.402,13,42.213,13,42V27.5c0-0.276,0.224-0.5,0.5-0.5
			H25c0.192,0,0.367,0.11,0.45,0.282c0.083,0.173,0.061,0.378-0.059,0.528l-11.5,14.5C13.795,42.433,13.65,42.5,13.5,42.5z M14,28
			v12.565L23.965,28H14z"/>
	</g>
	<g>
		<path class="st0" d="M34.916,40h-4c-0.276,0-0.5-0.224-0.5-0.5s0.224-0.5,0.5-0.5h4c0.276,0,0.5,0.224,0.5,0.5
			S35.192,40,34.916,40z"/>
	</g>
	<g>
		<path class="st0" d="M27.625,52H25.5c-0.276,0-0.5-0.224-0.5-0.5s0.224-0.5,0.5-0.5h2.125c0.276,0,0.5,0.224,0.5,0.5
			S27.901,52,27.625,52z"/>
	</g>
</g>
</svg>
