<?xml version="1.0" encoding="utf-8"?>
<!-- Generator: Adobe Illustrator 22.0.0, SVG Export Plug-In . SVG Version: 6.00 Build 0)  -->
<svg version="1.1" id="Layer_1" xmlns="http://www.w3.org/2000/svg" xmlns:xlink="http://www.w3.org/1999/xlink" x="0px" y="0px"
	 viewBox="0 0 64 64" style="enable-background:new 0 0 64 64;" xml:space="preserve">
<style type="text/css">
	.st0{fill:#263238;}
	.st1{fill:#4FC3F7;}
	.st2{fill:#FFD740;}
	.st3{fill:#FF5252;}
	.st4{fill:#4DB6AC;}
	.st5{fill:#FFFFFF;}
	.st6{fill:#40C4FF;}
	.st7{fill:#A2A2A1;}
	.st8{fill:#212A41;}
</style>
<g>
	<g>
		<path class="st0" d="M21,26.5h-2c-0.276,0-0.5-0.224-0.5-0.5s0.224-0.5,0.5-0.5h2c0.276,0,0.5,0.224,0.5,0.5S21.276,26.5,21,26.5z
			"/>
	</g>
	<g>
		<path class="st0" d="M34,26.5H23c-0.276,0-0.5-0.224-0.5-0.5s0.224-0.5,0.5-0.5h11c0.276,0,0.5,0.224,0.5,0.5S34.276,26.5,34,26.5
			z"/>
	</g>
	<g>
		<path class="st0" d="M39,23.5H27c-0.276,0-0.5-0.224-0.5-0.5s0.224-0.5,0.5-0.5h12c0.276,0,0.5,0.224,0.5,0.5S39.276,23.5,39,23.5
			z"/>
	</g>
	<g>
		<path class="st1" d="M4.5,7.5c0-1.657,1.343-3,3-3s3,1.343,3,3c1.657,0,3,1.343,3,3s-1.343,3-3,3h-6c-1.657,0-3-1.343-3-3
			S2.843,7.5,4.5,7.5z"/>
	</g>
	<g>
		<path class="st0" d="M41.5,6.5h-4C37.224,6.5,37,6.276,37,6s0.224-0.5,0.5-0.5h4C41.776,5.5,42,5.724,42,6S41.776,6.5,41.5,6.5z"
			/>
	</g>
	<g>
		<path class="st0" d="M39.5,8.5C39.224,8.5,39,8.276,39,8V4c0-0.276,0.224-0.5,0.5-0.5S40,3.724,40,4v4
			C40,8.276,39.776,8.5,39.5,8.5z"/>
	</g>
	<g>
		<path class="st0" d="M36.5,11.5h-4c-0.276,0-0.5-0.224-0.5-0.5s0.224-0.5,0.5-0.5h4c0.276,0,0.5,0.224,0.5,0.5
			S36.776,11.5,36.5,11.5z"/>
	</g>
	<g>
		<path class="st0" d="M34.5,13.5c-0.276,0-0.5-0.224-0.5-0.5V9c0-0.276,0.224-0.5,0.5-0.5S35,8.724,35,9v4
			C35,13.276,34.776,13.5,34.5,13.5z"/>
	</g>
	<g>
		<path class="st0" d="M23.5,48.5h-16c-1.654,0-3-1.346-3-3v-13h-1c-1.654,0-3-1.346-3-3V27c0-0.276,0.224-0.5,0.5-0.5h3.91
			c2.096,0,3.981,1.165,4.919,3.04l2.927,5.854c0.341,0.682,1.027,1.105,1.789,1.105H23.5c1.654,0,3,1.346,3,3v6
			C26.5,47.154,25.155,48.5,23.5,48.5z M1.5,27.5v2c0,1.103,0.897,2,2,2H5c0.276,0,0.5,0.224,0.5,0.5v13.5c0,1.103,0.897,2,2,2h16
			c1.103,0,2-0.897,2-2v-6c0-1.103-0.897-2-2-2h-8.955c-1.143,0-2.171-0.636-2.684-1.658l0,0l-2.927-5.854
			C8.167,28.453,6.625,27.5,4.91,27.5H1.5z"/>
	</g>
	<g>
		<path class="st0" d="M28,51.5H4c-1.654,0-3-1.346-3-3v-1C1,47.224,1.224,47,1.5,47S2,47.224,2,47.5v1c0,1.103,0.897,2,2,2h24
			c1.103,0,2-0.897,2-2v-2c0-1.103-0.897-2-2-2c-0.276,0-0.5-0.224-0.5-0.5s0.224-0.5,0.5-0.5c1.654,0,3,1.346,3,3v2
			C31,50.154,29.654,51.5,28,51.5z"/>
	</g>
	<g>
		<path class="st1" d="M58.5,48v2c0,1.657-1.343,3-3,3h-1.166c-1.446,0-2.686-1.03-2.953-2.451L50.903,48h-8.805l-0.479,2.553
			C41.353,51.972,40.114,53,38.67,53H37.5c-1.657,0-3-1.343-3-3v-2h-2v0.5c0,2.481-2.019,4.5-4.5,4.5H4
			c-1.731,0-3.219-0.993-3.972-2.429C0.326,55.826,4.67,60,10,60h44c5.523,0,10-4.477,10-10v-2H58.5z"/>
	</g>
	<g>
		<path class="st0" d="M50.5,41h-23c-0.276,0-0.5-0.224-0.5-0.5s0.224-0.5,0.5-0.5h22.919l5.923-1.975
			c0.263-0.088,0.545,0.055,0.632,0.316s-0.054,0.545-0.316,0.633l-6,2C50.607,40.991,50.554,41,50.5,41z"/>
	</g>
	<g>
		<path class="st0" d="M56.5,39.048c-0.088,0-0.176-0.023-0.257-0.071l-5.07-3.048c-0.236-0.143-0.313-0.449-0.171-0.687
			s0.448-0.312,0.687-0.171l5.07,3.048c0.236,0.143,0.313,0.449,0.171,0.687C56.835,38.962,56.669,39.048,56.5,39.048z"/>
	</g>
	<g>
		<path class="st1" d="M53.5,13c0-1.105,0.895-2,2-2s2,0.895,2,2c1.105,0,2,0.895,2,2s-0.895,2-2,2h-4c-1.105,0-2-0.895-2-2
			S52.395,13,53.5,13z"/>
	</g>
	<g>
		<path class="st0" d="M26,45.5H5c-0.276,0-0.5-0.224-0.5-0.5s0.224-0.5,0.5-0.5h21c0.276,0,0.5,0.224,0.5,0.5S26.277,45.5,26,45.5z
			"/>
	</g>
	<g>
		<rect x="5" y="41" class="st3" width="21" height="4"/>
		<path class="st0" d="M26,45.5H5c-0.276,0-0.5-0.224-0.5-0.5v-4c0-0.276,0.224-0.5,0.5-0.5h21c0.276,0,0.5,0.224,0.5,0.5v4
			C26.5,45.276,26.277,45.5,26,45.5z M5.5,44.5h20v-3h-20V44.5z"/>
	</g>
	<g>
		<path class="st0" d="M55.5,51.5h-1.17c-0.721,0-1.341-0.515-1.474-1.223l-0.964-5.146c-0.177-0.945-1.004-1.631-1.966-1.631h-6.85
			c-0.962,0-1.789,0.686-1.966,1.631l-0.964,5.146c-0.133,0.709-0.753,1.224-1.474,1.224H37.5c-0.827,0-1.5-0.673-1.5-1.5V38
			c0-1.654,1.346-3,3-3h12.189l7.059-8.812c0.118-0.148,0.311-0.217,0.497-0.176c0.186,0.04,0.332,0.183,0.378,0.367l0.861,3.444
			l2.864,1.324c0.724,0.336,1.06,1.179,0.763,1.919l-0.396,0.99C62.987,34.63,62.44,35,61.823,35h-2.265
			c-0.174,0-0.333,0.089-0.425,0.237L57,38.689V50C57,50.827,56.327,51.5,55.5,51.5z M43.075,42.5h6.85
			c1.443,0,2.683,1.029,2.949,2.447l0.964,5.146c0.044,0.235,0.251,0.407,0.492,0.407h1.17c0.276,0,0.5-0.225,0.5-0.5V38.548
			c0-0.093,0.026-0.184,0.075-0.263l2.207-3.573C58.557,34.267,59.034,34,59.558,34h2.265c0.206,0,0.388-0.123,0.464-0.314
			l0.396-0.99c0.099-0.247-0.013-0.528-0.254-0.64l-3.081-1.425c-0.137-0.063-0.238-0.187-0.275-0.333L58.398,27.6l-6.579,8.213
			C51.725,35.931,51.582,36,51.43,36H39c-1.103,0-2,0.897-2,2v12c0,0.275,0.224,0.5,0.5,0.5h1.17c0.24,0,0.447-0.172,0.492-0.408
			l0.964-5.145C40.392,43.529,41.632,42.5,43.075,42.5z"/>
	</g>
</g>
</svg>
