<?xml version="1.0" encoding="utf-8"?>
<!-- Generator: Adobe Illustrator 22.0.0, SVG Export Plug-In . SVG Version: 6.00 Build 0)  -->
<svg version="1.1" id="Layer_1" xmlns="http://www.w3.org/2000/svg" xmlns:xlink="http://www.w3.org/1999/xlink" x="0px" y="0px"
	 viewBox="0 0 64 64" style="enable-background:new 0 0 64 64;" xml:space="preserve">
<style type="text/css">
	.st0{fill:#263238;}
	.st1{fill:#4FC3F7;}
	.st2{fill:#FFD740;}
	.st3{fill:#FF5252;}
	.st4{fill:#4DB6AC;}
	.st5{fill:#FFFFFF;}
	.st6{fill:#40C4FF;}
	.st7{fill:#A2A2A1;}
	.st8{fill:#212A41;}
</style>
<g>
	<g>
		<path class="st3" d="M61.5,46h2v-4h-23v12c0,0.552-0.448,1-1,1h-8c-0.552,0-1-0.448-1-1V42h-30v13.5C0.5,56.881,1.619,58,3,58
			h3.681C6.567,57.518,6.5,57.017,6.5,56.5c0-3.59,2.91-6.5,6.5-6.5c3.59,0,6.5,2.91,6.5,6.5c0,0.517-0.067,1.018-0.181,1.5h25.361
			c-0.114-0.482-0.181-0.983-0.181-1.5c0-3.59,2.91-6.5,6.5-6.5c3.59,0,6.5,2.91,6.5,6.5c0,0.517-0.067,1.018-0.181,1.5H61
			c1.381,0,2.5-1.119,2.5-2.5v-5h-2c-0.552,0-1-0.448-1-1V47C60.5,46.448,60.948,46,61.5,46z"/>
	</g>
	<g>
		<path class="st3" d="M59.733,18.205C58.99,16.274,57.135,15,55.066,15H3c-1.381,0-2.5,1.119-2.5,2.5V19h59.538L59.733,18.205z"/>
	</g>
	<g>
		<polygon class="st3" points="0.5,28 0.5,33 30.5,33 40.5,33 58.5,33 63.5,33 63.5,28 		"/>
	</g>
	<g>
		<path class="st0" d="M3.5,63.5h-3C0.224,63.5,0,63.276,0,63s0.224-0.5,0.5-0.5h3C3.776,62.5,4,62.724,4,63S3.776,63.5,3.5,63.5z"
			/>
	</g>
	<g>
		<path class="st0" d="M63.5,63.5h-58C5.224,63.5,5,63.276,5,63s0.224-0.5,0.5-0.5h58c0.276,0,0.5,0.224,0.5,0.5
			S63.776,63.5,63.5,63.5z"/>
	</g>
	<g>
		<path class="st0" d="M51,63.5c-3.859,0-7-3.14-7-7s3.141-7,7-7s7,3.14,7,7S54.859,63.5,51,63.5z M51,50.5c-3.309,0-6,2.691-6,6
			s2.691,6,6,6s6-2.691,6-6S54.309,50.5,51,50.5z"/>
	</g>
	<g>
		<path class="st0" d="M51,60.5c-2.206,0-4-1.794-4-4s1.794-4,4-4s4,1.794,4,4S53.206,60.5,51,60.5z M51,53.5c-1.654,0-3,1.346-3,3
			s1.346,3,3,3s3-1.346,3-3S52.654,53.5,51,53.5z"/>
	</g>
	<g>
		<path class="st0" d="M13,63.5c-3.859,0-7-3.14-7-7s3.141-7,7-7s7,3.14,7,7S16.859,63.5,13,63.5z M13,50.5c-3.309,0-6,2.691-6,6
			s2.691,6,6,6s6-2.691,6-6S16.309,50.5,13,50.5z"/>
	</g>
	<g>
		<path class="st0" d="M61,58.5h-1.641c-0.276,0-0.5-0.224-0.5-0.5s0.224-0.5,0.5-0.5H61c1.103,0,2-0.897,2-2V42.129l-4.938-8.887
			c-0.086-0.155-0.083-0.344,0.007-0.496c0.09-0.153,0.254-0.247,0.431-0.247H63v-4.407l-3.734-9.708
			c-0.663-1.726-2.351-2.885-4.2-2.885H3c-1.103,0-2,0.897-2,2v38c0,1.103,0.897,2,2,2h1.641c0.276,0,0.5,0.224,0.5,0.5
			s-0.224,0.5-0.5,0.5H3c-1.654,0-3-1.346-3-3v-38c0-1.654,1.346-3,3-3h52.065c2.26,0,4.323,1.417,5.134,3.526l3.768,9.794
			C63.988,27.878,64,27.938,64,28v5c0,0.276-0.224,0.5-0.5,0.5h-4.15l4.588,8.257C63.979,41.832,64,41.915,64,42v13.5
			C64,57.154,62.654,58.5,61,58.5z"/>
	</g>
	<g>
		<path class="st0" d="M42.64,58.5H21.36c-0.276,0-0.5-0.224-0.5-0.5s0.224-0.5,0.5-0.5H42.64c0.276,0,0.5,0.224,0.5,0.5
			S42.916,58.5,42.64,58.5z"/>
	</g>
	<g>
		<path class="st0" d="M13,60.5c-2.206,0-4-1.794-4-4s1.794-4,4-4s4,1.794,4,4S15.206,60.5,13,60.5z M13,53.5c-1.654,0-3,1.346-3,3
			s1.346,3,3,3s3-1.346,3-3S14.654,53.5,13,53.5z"/>
	</g>
	<g>
		<path class="st0" d="M63.5,42.5h-23c-0.276,0-0.5-0.224-0.5-0.5s0.224-0.5,0.5-0.5h22.15l-4.444-8H1v8h29.5
			c0.276,0,0.5,0.224,0.5,0.5s-0.224,0.5-0.5,0.5h-30C0.224,42.5,0,42.276,0,42v-9c0-0.276,0.224-0.5,0.5-0.5h58
			c0.182,0,0.349,0.099,0.437,0.257l5,9c0.086,0.155,0.083,0.344-0.007,0.496C63.841,42.406,63.677,42.5,63.5,42.5z"/>
	</g>
	<g>
		<path class="st0" d="M39.5,55.5h-8c-0.827,0-1.5-0.673-1.5-1.5V33c0-0.276,0.224-0.5,0.5-0.5h10c0.276,0,0.5,0.224,0.5,0.5v21
			C41,54.827,40.327,55.5,39.5,55.5z M31,33.5V54c0,0.276,0.225,0.5,0.5,0.5h8c0.275,0,0.5-0.224,0.5-0.5V33.5H31z"/>
	</g>
	<g>
		<path class="st0" d="M20.5,42.5c-0.276,0-0.5-0.224-0.5-0.5v-9c0-0.276,0.224-0.5,0.5-0.5S21,32.724,21,33v9
			C21,42.276,20.776,42.5,20.5,42.5z"/>
	</g>
	<g>
		<path class="st0" d="M50.5,42.5c-0.276,0-0.5-0.224-0.5-0.5v-9c0-0.276,0.224-0.5,0.5-0.5S51,32.724,51,33v9
			C51,42.276,50.776,42.5,50.5,42.5z"/>
	</g>
	<g>
		<path class="st0" d="M10.5,42.5c-0.276,0-0.5-0.224-0.5-0.5v-9c0-0.276,0.224-0.5,0.5-0.5S11,32.724,11,33v9
			C11,42.276,10.776,42.5,10.5,42.5z"/>
	</g>
	<g>
		<path class="st0" d="M63.5,28.5h-63C0.224,28.5,0,28.276,0,28v-9c0-0.276,0.224-0.5,0.5-0.5h59.538
			c0.207,0,0.393,0.127,0.467,0.32l3.462,9c0.059,0.154,0.039,0.327-0.055,0.463C63.819,28.419,63.665,28.5,63.5,28.5z M1,27.5
			h61.771l-3.077-8H1V27.5z"/>
	</g>
	<g>
		<path class="st0" d="M59.132,25.5c-0.201,0-0.391-0.122-0.467-0.32l-1.154-3c-0.099-0.258,0.029-0.547,0.287-0.646
			c0.262-0.098,0.548,0.03,0.646,0.287l1.154,3c0.099,0.258-0.029,0.547-0.287,0.646C59.252,25.489,59.191,25.5,59.132,25.5z"/>
	</g>
	<g>
		<path class="st0" d="M20.5,28.5c-0.276,0-0.5-0.224-0.5-0.5v-9c0-0.276,0.224-0.5,0.5-0.5S21,18.724,21,19v9
			C21,28.276,20.776,28.5,20.5,28.5z"/>
	</g>
	<g>
		<path class="st0" d="M50.5,28.5c-0.276,0-0.5-0.224-0.5-0.5v-9c0-0.276,0.224-0.5,0.5-0.5S51,18.724,51,19v9
			C51,28.276,50.776,28.5,50.5,28.5z"/>
	</g>
	<g>
		<path class="st0" d="M40.5,28.5c-0.276,0-0.5-0.224-0.5-0.5v-9c0-0.276,0.224-0.5,0.5-0.5S41,18.724,41,19v9
			C41,28.276,40.776,28.5,40.5,28.5z"/>
	</g>
	<g>
		<path class="st0" d="M30.5,28.5c-0.276,0-0.5-0.224-0.5-0.5v-9c0-0.276,0.224-0.5,0.5-0.5S31,18.724,31,19v9
			C31,28.276,30.776,28.5,30.5,28.5z"/>
	</g>
	<g>
		<path class="st0" d="M10.5,28.5c-0.276,0-0.5-0.224-0.5-0.5v-9c0-0.276,0.224-0.5,0.5-0.5S11,18.724,11,19v9
			C11,28.276,10.776,28.5,10.5,28.5z"/>
	</g>
	<g>
		<path class="st0" d="M23.986,10h-2c-0.276,0-0.5-0.224-0.5-0.5S21.71,9,21.986,9h2c0.276,0,0.5,0.224,0.5,0.5S24.263,10,23.986,10
			z"/>
	</g>
	<g>
		<path class="st0" d="M41.986,10h-16c-0.276,0-0.5-0.224-0.5-0.5S25.71,9,25.986,9h16c0.276,0,0.5,0.224,0.5,0.5
			S42.263,10,41.986,10z"/>
	</g>
	<g>
		<path class="st0" d="M46.986,7h-17c-0.276,0-0.5-0.224-0.5-0.5S29.71,6,29.986,6h17c0.276,0,0.5,0.224,0.5,0.5S47.263,7,46.986,7z
			"/>
	</g>
	<g>
		<path class="st1" d="M6,4c0-1.657,1.343-3,3-3s3,1.343,3,3c1.657,0,3,1.343,3,3s-1.343,3-3,3H6c-1.657,0-3-1.343-3-3S4.343,4,6,4z
			"/>
	</g>
	<g>
		<path class="st0" d="M57.486,3.5h-4c-0.276,0-0.5-0.224-0.5-0.5s0.224-0.5,0.5-0.5h4c0.276,0,0.5,0.224,0.5,0.5
			S57.763,3.5,57.486,3.5z"/>
	</g>
	<g>
		<path class="st0" d="M55.486,5.5c-0.276,0-0.5-0.224-0.5-0.5V1c0-0.276,0.224-0.5,0.5-0.5s0.5,0.224,0.5,0.5v4
			C55.986,5.276,55.763,5.5,55.486,5.5z"/>
	</g>
	<g>
		<path class="st0" d="M63.486,7.5h-4c-0.276,0-0.5-0.224-0.5-0.5s0.224-0.5,0.5-0.5h4c0.276,0,0.5,0.224,0.5,0.5
			S63.763,7.5,63.486,7.5z"/>
	</g>
	<g>
		<path class="st0" d="M61.486,9.5c-0.276,0-0.5-0.224-0.5-0.5V5c0-0.276,0.224-0.5,0.5-0.5s0.5,0.224,0.5,0.5v4
			C61.986,9.276,61.763,9.5,61.486,9.5z"/>
	</g>
	<g>
		<path class="st0" d="M63.5,51h-2c-0.827,0-1.5-0.673-1.5-1.5V47c0-0.827,0.673-1.5,1.5-1.5h2c0.276,0,0.5,0.224,0.5,0.5v4.5
			C64,50.776,63.776,51,63.5,51z M61.5,46.5c-0.275,0-0.5,0.224-0.5,0.5v2.5c0,0.276,0.225,0.5,0.5,0.5H63v-3.5H61.5z"/>
	</g>
</g>
</svg>
