<?xml version="1.0" encoding="utf-8"?>
<!-- Generator: Adobe Illustrator 22.0.0, SVG Export Plug-In . SVG Version: 6.00 Build 0)  -->
<svg version="1.1" id="Layer_1" xmlns="http://www.w3.org/2000/svg" xmlns:xlink="http://www.w3.org/1999/xlink" x="0px" y="0px"
	 viewBox="0 0 64 64" style="enable-background:new 0 0 64 64;" xml:space="preserve">
<style type="text/css">
	.st0{fill:#263238;}
	.st1{fill:#4FC3F7;}
	.st2{fill:#FFD740;}
	.st3{fill:#FF5252;}
	.st4{fill:#4DB6AC;}
	.st5{fill:#FFFFFF;}
	.st6{fill:#40C4FF;}
	.st7{fill:#A2A2A1;}
	.st8{fill:#212A41;}
</style>
<g>
	<g>
		<path class="st1" d="M58.191,27.382C57.768,26.535,56.902,26,55.955,26H42.5c-0.552,0-1,0.448-1,1v27h4c0-3.59,2.91-6.5,6.5-6.5
			c3.59,0,6.5,2.91,6.5,6.5H61c1.381,0,2.5-1.119,2.5-2.5V38L58.191,27.382z M63.5,47.5h-2c-0.552,0-1-0.448-1-1V44
			c0-0.552,0.448-1,1-1h2V47.5z M49.5,38c-0.552,0-1-0.448-1-1v-7c0-0.552,0.448-1,1-1H59l4.5,9H49.5z"/>
	</g>
	<g>
		<path class="st0" d="M52,61c-3.859,0-7-3.14-7-7s3.141-7,7-7s7,3.14,7,7S55.859,61,52,61z M52,48c-3.309,0-6,2.691-6,6
			s2.691,6,6,6s6-2.691,6-6S55.309,48,52,48z"/>
	</g>
	<g>
		<path class="st2" d="M0.5,19v15.123c0,0.568,0.193,1.118,0.548,1.562L8.5,45h30V23h7.382c0.379,0,0.725-0.214,0.894-0.553l1.5-3
			C48.609,18.782,48.125,18,47.382,18H1.5C0.948,18,0.5,18.448,0.5,19z"/>
	</g>
	<g>
		<path class="st1" d="M6,6.5c0-1.657,1.343-3,3-3s3,1.343,3,3c1.657,0,3,1.343,3,3s-1.343,3-3,3H6c-1.657,0-3-1.343-3-3
			S4.343,6.5,6,6.5z"/>
	</g>
	<g>
		<path class="st0" d="M57.5,6h-4C53.224,6,53,5.777,53,5.5S53.224,5,53.5,5h4C57.776,5,58,5.224,58,5.5S57.776,6,57.5,6z"/>
	</g>
	<g>
		<path class="st0" d="M55.5,8C55.224,8,55,7.777,55,7.5v-4C55,3.224,55.224,3,55.5,3S56,3.224,56,3.5v4C56,7.777,55.776,8,55.5,8z"
			/>
	</g>
	<g>
		<path class="st0" d="M51.5,10h-4C47.224,10,47,9.777,47,9.5S47.224,9,47.5,9h4C51.776,9,52,9.224,52,9.5S51.776,10,51.5,10z"/>
	</g>
	<g>
		<path class="st0" d="M49.5,12c-0.276,0-0.5-0.224-0.5-0.5v-4C49,7.224,49.224,7,49.5,7S50,7.224,50,7.5v4
			C50,11.777,49.776,12,49.5,12z"/>
	</g>
	<g>
		<path class="st0" d="M3.5,61h-3C0.224,61,0,60.777,0,60.5S0.224,60,0.5,60h3C3.776,60,4,60.224,4,60.5S3.776,61,3.5,61z"/>
	</g>
	<g>
		<path class="st0" d="M63.5,61h-58C5.224,61,5,60.777,5,60.5S5.224,60,5.5,60h58c0.276,0,0.5,0.224,0.5,0.5S63.776,61,63.5,61z"/>
	</g>
	<g>
		<path class="st0" d="M8.5,45.5c-0.147,0-0.292-0.064-0.391-0.188l-7.452-9.315C0.233,35.467,0,34.802,0,34.124V19
			c0-0.827,0.673-1.5,1.5-1.5h45.882c0.523,0,1,0.266,1.275,0.711s0.301,0.991,0.066,1.459l-1.5,3
			c-0.255,0.512-0.77,0.83-1.342,0.83H39V45c0,0.276-0.224,0.5-0.5,0.5S38,45.277,38,45V23c0-0.276,0.224-0.5,0.5-0.5h7.382
			c0.19,0,0.362-0.106,0.447-0.276l1.5-3c0.112-0.225,0.021-0.416-0.022-0.487S47.633,18.5,47.382,18.5H1.5
			C1.224,18.5,1,18.724,1,19v15.124c0,0.452,0.156,0.896,0.438,1.25l7.452,9.315c0.172,0.216,0.137,0.53-0.078,0.703
			C8.72,45.465,8.61,45.5,8.5,45.5z"/>
	</g>
	<g>
		<path class="st0" d="M61,54.5h-0.5c-0.276,0-0.5-0.224-0.5-0.5s0.224-0.5,0.5-0.5H61c1.103,0,2-0.897,2-2V38.119l-5.256-10.513
			c-0.341-0.682-1.026-1.105-1.789-1.105H42.5c-0.275,0-0.5,0.224-0.5,0.5v26.5h1.5c0.276,0,0.5,0.224,0.5,0.5s-0.224,0.5-0.5,0.5
			h-2c-0.276,0-0.5-0.224-0.5-0.5V27c0-0.827,0.673-1.5,1.5-1.5h13.455c1.144,0,2.172,0.635,2.684,1.658l5.309,10.618
			C63.981,37.846,64,37.923,64,38v13.5C64,53.155,62.654,54.5,61,54.5z"/>
	</g>
	<g>
		<path class="st0" d="M52,58c-2.206,0-4-1.794-4-4s1.794-4,4-4s4,1.794,4,4S54.206,58,52,58z M52,51c-1.654,0-3,1.346-3,3
			s1.346,3,3,3s3-1.346,3-3S53.654,51,52,51z"/>
	</g>
	<g>
		<path class="st0" d="M10,61c-3.86,0-7-3.14-7-7s3.14-7,7-7s7,3.14,7,7S13.86,61,10,61z M10,48c-3.309,0-6,2.691-6,6s2.691,6,6,6
			s6-2.691,6-6S13.309,48,10,48z"/>
	</g>
	<g>
		<path class="st0" d="M10,58c-2.206,0-4-1.794-4-4s1.794-4,4-4s4,1.794,4,4S12.206,58,10,58z M10,51c-1.654,0-3,1.346-3,3
			s1.346,3,3,3s3-1.346,3-3S11.654,51,10,51z"/>
	</g>
	<g>
		<path class="st0" d="M63.5,38.5h-14c-0.827,0-1.5-0.673-1.5-1.5v-7c0-0.827,0.673-1.5,1.5-1.5H59c0.189,0,0.362,0.107,0.447,0.276
			l4.5,9c0.077,0.155,0.069,0.339-0.021,0.486C63.834,38.411,63.673,38.5,63.5,38.5z M49.5,29.5c-0.275,0-0.5,0.224-0.5,0.5v7
			c0,0.276,0.225,0.5,0.5,0.5h13.191l-4-8H49.5z"/>
	</g>
	<g>
		<path class="st0" d="M1.5,54.5C0.673,54.5,0,53.828,0,53v-7c0-0.827,0.673-1.5,1.5-1.5h40c0.276,0,0.5,0.224,0.5,0.5
			s-0.224,0.5-0.5,0.5h-40C1.224,45.5,1,45.725,1,46v7c0,0.276,0.224,0.5,0.5,0.5C1.776,53.5,2,53.724,2,54S1.776,54.5,1.5,54.5z"/>
	</g>
	<g>
		<path class="st0" d="M21.5,13.5h-2c-0.276,0-0.5-0.224-0.5-0.5s0.224-0.5,0.5-0.5h2c0.276,0,0.5,0.224,0.5,0.5
			S21.776,13.5,21.5,13.5z"/>
	</g>
	<g>
		<path class="st0" d="M34.5,13.5h-11c-0.276,0-0.5-0.224-0.5-0.5s0.224-0.5,0.5-0.5h11c0.276,0,0.5,0.224,0.5,0.5
			S34.776,13.5,34.5,13.5z"/>
	</g>
	<g>
		<path class="st0" d="M39.5,10.5h-12c-0.276,0-0.5-0.224-0.5-0.5s0.224-0.5,0.5-0.5h12c0.276,0,0.5,0.224,0.5,0.5
			S39.776,10.5,39.5,10.5z"/>
	</g>
	<g>
		<path class="st0" d="M48.5,46.209c-0.276,0-0.5-0.224-0.5-0.5V40c0-0.276,0.224-0.5,0.5-0.5S49,39.724,49,40v5.708
			C49,45.985,48.776,46.209,48.5,46.209z"/>
	</g>
	<g>
		<path class="st0" d="M43.5,54.5h-9c-0.276,0-0.5-0.224-0.5-0.5s0.224-0.5,0.5-0.5h9c0.276,0,0.5,0.224,0.5,0.5
			S43.776,54.5,43.5,54.5z"/>
	</g>
	<g>
		<path class="st0" d="M10,58c-2.206,0-4-1.794-4-4s1.794-4,4-4s4,1.794,4,4S12.206,58,10,58z M10,51c-1.654,0-3,1.346-3,3
			s1.346,3,3,3s3-1.346,3-3S11.654,51,10,51z"/>
	</g>
	<g>
		<path class="st0" d="M26,61c-3.86,0-7-3.14-7-7s3.14-7,7-7s7,3.14,7,7S29.86,61,26,61z M26,48c-3.309,0-6,2.691-6,6s2.691,6,6,6
			s6-2.691,6-6S29.309,48,26,48z"/>
	</g>
	<g>
		<path class="st0" d="M26,58c-2.206,0-4-1.794-4-4s1.794-4,4-4s4,1.794,4,4S28.206,58,26,58z M26,51c-1.654,0-3,1.346-3,3
			s1.346,3,3,3s3-1.346,3-3S27.654,51,26,51z"/>
	</g>
	<g>
		<path class="st0" d="M26,58c-2.206,0-4-1.794-4-4s1.794-4,4-4s4,1.794,4,4S28.206,58,26,58z M26,51c-1.654,0-3,1.346-3,3
			s1.346,3,3,3s3-1.346,3-3S27.654,51,26,51z"/>
	</g>
	<g>
		<path class="st0" d="M28.5,42.5c-0.276,0-0.5-0.224-0.5-0.5V26c0-0.276,0.224-0.5,0.5-0.5S29,25.724,29,26v16
			C29,42.276,28.776,42.5,28.5,42.5z"/>
	</g>
	<g>
		<path class="st0" d="M33.5,42.5c-0.276,0-0.5-0.224-0.5-0.5V26c0-0.276,0.224-0.5,0.5-0.5S34,25.724,34,26v16
			C34,42.276,33.776,42.5,33.5,42.5z"/>
	</g>
	<g>
		<path class="st0" d="M23.5,42.5c-0.276,0-0.5-0.224-0.5-0.5V26c0-0.276,0.224-0.5,0.5-0.5S24,25.724,24,26v16
			C24,42.276,23.776,42.5,23.5,42.5z"/>
	</g>
	<g>
		<path class="st0" d="M18.5,42.5c-0.276,0-0.5-0.224-0.5-0.5V26c0-0.276,0.224-0.5,0.5-0.5S19,25.724,19,26v16
			C19,42.276,18.776,42.5,18.5,42.5z"/>
	</g>
	<g>
		<path class="st0" d="M13.5,42.5c-0.276,0-0.5-0.224-0.5-0.5V26c0-0.276,0.224-0.5,0.5-0.5S14,25.724,14,26v16
			C14,42.276,13.776,42.5,13.5,42.5z"/>
	</g>
	<g>
		<path class="st0" d="M8.5,35.5C8.224,35.5,8,35.277,8,35v-9c0-0.276,0.224-0.5,0.5-0.5S9,25.724,9,26v9
			C9,35.277,8.776,35.5,8.5,35.5z"/>
	</g>
	<g>
		<path class="st0" d="M36.5,23.5h-34C2.224,23.5,2,23.276,2,23s0.224-0.5,0.5-0.5h34c0.276,0,0.5,0.224,0.5,0.5
			S36.776,23.5,36.5,23.5z"/>
	</g>
	<g>
		<path class="st0" d="M63.5,48h-2c-0.827,0-1.5-0.673-1.5-1.5V44c0-0.827,0.673-1.5,1.5-1.5h2c0.276,0,0.5,0.224,0.5,0.5v4.5
			C64,47.776,63.776,48,63.5,48z M61.5,43.5c-0.275,0-0.5,0.224-0.5,0.5v2.5c0,0.276,0.225,0.5,0.5,0.5H63v-3.5H61.5z"/>
	</g>
	<g>
		<path class="st0" d="M58.646,35.5c-0.183,0-0.359-0.101-0.447-0.276l-1.5-3c-0.123-0.247-0.023-0.547,0.224-0.671
			c0.247-0.122,0.547-0.023,0.671,0.224l1.5,3c0.123,0.247,0.023,0.547-0.224,0.671C58.797,35.483,58.721,35.5,58.646,35.5z"/>
	</g>
</g>
</svg>
