<?xml version="1.0" encoding="utf-8"?>
<!-- Generator: Adobe Illustrator 22.0.0, SVG Export Plug-In . SVG Version: 6.00 Build 0)  -->
<svg version="1.1" id="Layer_1" xmlns="http://www.w3.org/2000/svg" xmlns:xlink="http://www.w3.org/1999/xlink" x="0px" y="0px"
	 viewBox="0 0 64 64" style="enable-background:new 0 0 64 64;" xml:space="preserve">
<style type="text/css">
	.st0{fill:#263238;}
	.st1{fill:#4FC3F7;}
	.st2{fill:#FFD740;}
	.st3{fill:#FF5252;}
	.st4{fill:#4DB6AC;}
	.st5{fill:#FFFFFF;}
	.st6{fill:#40C4FF;}
	.st7{fill:#A2A2A1;}
	.st8{fill:#212A41;}
</style>
<g>
	<g>
		<path class="st2" d="M60,43h2v-5H48c-0.552,0-1-0.448-1-1v-9c0-0.552,0.448-1,1-1h9.6L62,38l-5.371-13.428
			C56.249,23.623,55.33,23,54.307,23H41c-0.552,0-1,0.448-1,1v30h4c0-3.59,2.91-6.5,6.5-6.5S57,50.41,57,54h2.5
			c1.381,0,2.5-1.119,2.5-2.5v-4h-2c-0.552,0-1-0.448-1-1V44C59,43.448,59.448,43,60,43z"/>
	</g>
	<g>
		<path class="st1" d="M6,6.5c0-1.657,1.343-3,3-3s3,1.343,3,3c1.657,0,3,1.343,3,3s-1.343,3-3,3H6c-1.657,0-3-1.343-3-3
			S4.343,6.5,6,6.5z"/>
	</g>
	<g>
		<path class="st0" d="M57.5,6h-4C53.224,6,53,5.777,53,5.5S53.224,5,53.5,5h4C57.776,5,58,5.224,58,5.5S57.776,6,57.5,6z"/>
	</g>
	<g>
		<path class="st0" d="M55.5,8C55.224,8,55,7.777,55,7.5v-4C55,3.224,55.224,3,55.5,3S56,3.224,56,3.5v4C56,7.777,55.776,8,55.5,8z"
			/>
	</g>
	<g>
		<path class="st0" d="M51.5,10h-4C47.224,10,47,9.777,47,9.5S47.224,9,47.5,9h4C51.776,9,52,9.224,52,9.5S51.776,10,51.5,10z"/>
	</g>
	<g>
		<path class="st0" d="M49.5,12c-0.276,0-0.5-0.224-0.5-0.5v-4C49,7.224,49.224,7,49.5,7S50,7.224,50,7.5v4
			C50,11.777,49.776,12,49.5,12z"/>
	</g>
	<g>
		<path class="st0" d="M3.5,61h-3C0.224,61,0,60.777,0,60.5S0.224,60,0.5,60h3C3.776,60,4,60.224,4,60.5S3.776,61,3.5,61z"/>
	</g>
	<g>
		<path class="st0" d="M63.5,61h-58C5.224,61,5,60.777,5,60.5S5.224,60,5.5,60h58c0.276,0,0.5,0.224,0.5,0.5S63.776,61,63.5,61z"/>
	</g>
	<g>
		<path class="st0" d="M21.5,15.5h-2c-0.276,0-0.5-0.224-0.5-0.5s0.224-0.5,0.5-0.5h2c0.276,0,0.5,0.224,0.5,0.5
			S21.776,15.5,21.5,15.5z"/>
	</g>
	<g>
		<path class="st0" d="M34.5,15.5h-11c-0.276,0-0.5-0.224-0.5-0.5s0.224-0.5,0.5-0.5h11c0.276,0,0.5,0.224,0.5,0.5
			S34.776,15.5,34.5,15.5z"/>
	</g>
	<g>
		<path class="st0" d="M39.5,12.5h-12c-0.276,0-0.5-0.224-0.5-0.5s0.224-0.5,0.5-0.5h12c0.276,0,0.5,0.224,0.5,0.5
			S39.776,12.5,39.5,12.5z"/>
	</g>
	<g>
		<path class="st0" d="M37,54.5c-0.276,0-0.5-0.224-0.5-0.5V21c0-0.276-0.224-0.5-0.5-0.5H3c-0.276,0-0.5,0.224-0.5,0.5v32
			c0,0.276,0.224,0.5,0.5,0.5h1c0.276,0,0.5,0.224,0.5,0.5S4.276,54.5,4,54.5H3c-0.827,0-1.5-0.673-1.5-1.5V21
			c0-0.827,0.673-1.5,1.5-1.5h33c0.827,0,1.5,0.673,1.5,1.5v33C37.5,54.277,37.276,54.5,37,54.5z"/>
	</g>
	<g>
		<path class="st0" d="M59.5,54.5H59c-0.276,0-0.5-0.224-0.5-0.5s0.224-0.5,0.5-0.5h0.5c1.103,0,2-0.897,2-2V38.097l-5.335-13.339
			c-0.306-0.763-1.034-1.257-1.857-1.257H41c-0.276,0-0.5,0.224-0.5,0.5v30c0,0.276-0.224,0.5-0.5,0.5s-0.5-0.224-0.5-0.5V24
			c0-0.827,0.673-1.5,1.5-1.5h13.308c1.234,0,2.327,0.74,2.786,1.886l5.371,13.429C62.488,37.874,62.5,37.937,62.5,38v13.5
			C62.5,53.155,61.154,54.5,59.5,54.5z"/>
	</g>
	<g>
		<path class="st0" d="M50.5,61c-3.86,0-7-3.14-7-7s3.14-7,7-7s7,3.14,7,7S54.36,61,50.5,61z M50.5,48c-3.309,0-6,2.691-6,6
			s2.691,6,6,6s6-2.691,6-6S53.809,48,50.5,48z"/>
	</g>
	<g>
		<path class="st0" d="M50.5,58c-2.206,0-4-1.794-4-4s1.794-4,4-4s4,1.794,4,4S52.706,58,50.5,58z M50.5,51c-1.654,0-3,1.346-3,3
			s1.346,3,3,3s3-1.346,3-3S52.154,51,50.5,51z"/>
	</g>
	<g>
		<path class="st0" d="M12.5,61c-3.86,0-7-3.14-7-7s3.14-7,7-7s7,3.14,7,7S16.36,61,12.5,61z M12.5,48c-3.309,0-6,2.691-6,6
			s2.691,6,6,6s6-2.691,6-6S15.809,48,12.5,48z"/>
	</g>
	<g>
		<path class="st0" d="M12.5,58c-2.206,0-4-1.794-4-4s1.794-4,4-4s4,1.794,4,4S14.706,58,12.5,58z M12.5,51c-1.654,0-3,1.346-3,3
			s1.346,3,3,3s3-1.346,3-3S14.154,51,12.5,51z"/>
	</g>
	<g>
		<path class="st0" d="M62,38.5H48c-0.827,0-1.5-0.673-1.5-1.5v-9c0-0.827,0.673-1.5,1.5-1.5h9.6c0.205,0,0.388,0.125,0.464,0.314
			l4.4,11c0.062,0.154,0.042,0.329-0.05,0.466C62.321,38.418,62.166,38.5,62,38.5z M48,27.5c-0.276,0-0.5,0.224-0.5,0.5v9
			c0,0.276,0.224,0.5,0.5,0.5h13.262l-4-10H48z"/>
	</g>
	<g>
		<path class="st0" d="M57.569,35.5c-0.198,0-0.386-0.119-0.464-0.314l-2-5c-0.103-0.256,0.022-0.547,0.279-0.65
			c0.254-0.102,0.547,0.021,0.65,0.279l2,5c0.103,0.256-0.022,0.547-0.279,0.65C57.694,35.489,57.631,35.5,57.569,35.5z"/>
	</g>
	<g>
		<path class="st0" d="M37,40.5H2c-0.276,0-0.5-0.224-0.5-0.5s0.224-0.5,0.5-0.5h35c0.276,0,0.5,0.224,0.5,0.5S37.276,40.5,37,40.5z
			"/>
	</g>
	<g>
		<path class="st0" d="M47,46.209c-0.276,0-0.5-0.224-0.5-0.5V40c0-0.276,0.224-0.5,0.5-0.5s0.5,0.224,0.5,0.5v5.708
			C47.5,45.985,47.276,46.209,47,46.209z"/>
	</g>
	<g>
		<path class="st3" d="M4.5,25L4.5,25C3.119,25,2,23.881,2,22.5V21c0-0.552,0.448-1,1-1h4v2.5C7,23.881,5.881,25,4.5,25z"/>
		<path class="st0" d="M4.5,25.5c-1.654,0-3-1.346-3-3V21c0-0.827,0.673-1.5,1.5-1.5h4c0.276,0,0.5,0.224,0.5,0.5v2.5
			C7.5,24.154,6.154,25.5,4.5,25.5z M3,20.5c-0.276,0-0.5,0.224-0.5,0.5v1.5c0,1.103,0.897,2,2,2s2-0.897,2-2v-2H3z"/>
	</g>
	<g>
		<path class="st0" d="M9.5,25.5c-1.654,0-3-1.346-3-3V20c0-0.276,0.224-0.5,0.5-0.5h5c0.276,0,0.5,0.224,0.5,0.5v2.5
			C12.5,24.154,11.154,25.5,9.5,25.5z M7.5,20.5v2c0,1.103,0.897,2,2,2s2-0.897,2-2v-2H7.5z"/>
	</g>
	<g>
		<path class="st3" d="M14.5,25L14.5,25c-1.381,0-2.5-1.119-2.5-2.5V20h5v2.5C17,23.881,15.881,25,14.5,25z"/>
		<path class="st0" d="M14.5,25.5c-1.654,0-3-1.346-3-3V20c0-0.276,0.224-0.5,0.5-0.5h5c0.276,0,0.5,0.224,0.5,0.5v2.5
			C17.5,24.154,16.154,25.5,14.5,25.5z M12.5,20.5v2c0,1.103,0.897,2,2,2s2-0.897,2-2v-2H12.5z"/>
	</g>
	<g>
		<path class="st0" d="M19.5,25.5c-1.654,0-3-1.346-3-3V20c0-0.276,0.224-0.5,0.5-0.5h5c0.276,0,0.5,0.224,0.5,0.5v2.5
			C22.5,24.154,21.154,25.5,19.5,25.5z M17.5,20.5v2c0,1.103,0.897,2,2,2s2-0.897,2-2v-2H17.5z"/>
	</g>
	<g>
		<path class="st3" d="M24.5,25L24.5,25c-1.381,0-2.5-1.119-2.5-2.5V20h5v2.5C27,23.881,25.881,25,24.5,25z"/>
		<path class="st0" d="M24.5,25.5c-1.654,0-3-1.346-3-3V20c0-0.276,0.224-0.5,0.5-0.5h5c0.276,0,0.5,0.224,0.5,0.5v2.5
			C27.5,24.154,26.154,25.5,24.5,25.5z M22.5,20.5v2c0,1.103,0.897,2,2,2s2-0.897,2-2v-2H22.5z"/>
	</g>
	<g>
		<path class="st0" d="M29.5,25.5c-1.654,0-3-1.346-3-3V20c0-0.276,0.224-0.5,0.5-0.5h5c0.276,0,0.5,0.224,0.5,0.5v2.5
			C32.5,24.154,31.154,25.5,29.5,25.5z M27.5,20.5v2c0,1.103,0.897,2,2,2s2-0.897,2-2v-2H27.5z"/>
	</g>
	<g>
		<path class="st3" d="M34.5,25L34.5,25c-1.381,0-2.5-1.119-2.5-2.5V20h4c0.552,0,1,0.448,1,1v1.5C37,23.881,35.881,25,34.5,25z"/>
		<path class="st0" d="M34.5,25.5c-1.654,0-3-1.346-3-3V20c0-0.276,0.224-0.5,0.5-0.5h4c0.827,0,1.5,0.673,1.5,1.5v1.5
			C37.5,24.154,36.154,25.5,34.5,25.5z M32.5,20.5v2c0,1.103,0.897,2,2,2s2-0.897,2-2V21c0-0.276-0.224-0.5-0.5-0.5H32.5z"/>
	</g>
	<g>
		<path class="st0" d="M15,40.5H5c-0.276,0-0.5-0.224-0.5-0.5v-4c0-0.276,0.224-0.5,0.5-0.5h10c0.276,0,0.5,0.224,0.5,0.5v4
			C15.5,40.277,15.276,40.5,15,40.5z M5.5,39.5h9v-3h-9V39.5z"/>
	</g>
	<g>
		<path class="st0" d="M8.5,36.5C8.224,36.5,8,36.277,8,36v-2c0-0.276,0.224-0.5,0.5-0.5S9,33.724,9,34v2
			C9,36.277,8.776,36.5,8.5,36.5z"/>
	</g>
	<g>
		<path class="st0" d="M11,34.5H6c-0.276,0-0.5-0.224-0.5-0.5v-3.083c0-0.276,0.224-0.5,0.5-0.5h5c0.276,0,0.5,0.224,0.5,0.5V34
			C11.5,34.277,11.276,34.5,11,34.5z M6.5,33.5h4v-2.083h-4V33.5z"/>
	</g>
	<g>
		<polygon class="st2" points="33.5,40 18,40 18,36 19,31 32.5,31 33.5,36 		"/>
		<path class="st0" d="M33.5,40.5H18c-0.276,0-0.5-0.224-0.5-0.5v-4l1.01-5.098C18.557,30.668,18.762,30.5,19,30.5h13.5
			c0.238,0,0.443,0.168,0.49,0.402l1,5L34,40C34,40.276,33.776,40.5,33.5,40.5z M18.499,39.5H33V36l-0.909-4.5H19.41l-0.919,4.598
			L18.499,39.5z"/>
	</g>
	<g>
		<path class="st0" d="M33.5,36.5H18c-0.276,0-0.5-0.224-0.5-0.5s0.224-0.5,0.5-0.5h15.5c0.276,0,0.5,0.224,0.5,0.5
			S33.776,36.5,33.5,36.5z"/>
	</g>
	<g>
		<path class="st0" d="M24.5,36.5h-4c-0.276,0-0.5-0.224-0.5-0.5c0-1.378,1.122-2.5,2.5-2.5S25,34.622,25,36
			C25,36.277,24.776,36.5,24.5,36.5z M21.085,35.5h2.829c-0.207-0.582-0.763-1-1.415-1S21.292,34.918,21.085,35.5z"/>
	</g>
	<g>
		<path class="st0" d="M31,36.5h-4c-0.276,0-0.5-0.224-0.5-0.5c0-1.378,1.122-2.5,2.5-2.5s2.5,1.122,2.5,2.5
			C31.5,36.277,31.276,36.5,31,36.5z M27.585,35.5h2.829c-0.207-0.582-0.763-1-1.415-1S27.792,34.918,27.585,35.5z"/>
	</g>
	<g>
		<path class="st0" d="M24.5,40.5h-4c-0.276,0-0.5-0.224-0.5-0.5c0-1.378,1.122-2.5,2.5-2.5S25,38.622,25,40
			C25,40.277,24.776,40.5,24.5,40.5z M21.085,39.5h2.829c-0.207-0.582-0.763-1-1.415-1S21.292,38.918,21.085,39.5z"/>
	</g>
	<g>
		<path class="st0" d="M31,40.5h-4c-0.276,0-0.5-0.224-0.5-0.5c0-1.378,1.122-2.5,2.5-2.5s2.5,1.122,2.5,2.5
			C31.5,40.277,31.276,40.5,31,40.5z M27.585,39.5h2.829c-0.207-0.582-0.763-1-1.415-1S27.792,38.918,27.585,39.5z"/>
	</g>
	<g>
		<path class="st0" d="M42,54.5H21c-0.276,0-0.5-0.224-0.5-0.5s0.224-0.5,0.5-0.5h21c0.276,0,0.5,0.224,0.5,0.5S42.276,54.5,42,54.5
			z"/>
	</g>
	<g>
		<path class="st0" d="M40,49.5h-3c-0.276,0-0.5-0.224-0.5-0.5s0.224-0.5,0.5-0.5h3c0.276,0,0.5,0.224,0.5,0.5S40.276,49.5,40,49.5z
			"/>
	</g>
	<g>
		<path class="st0" d="M62,48h-2c-0.827,0-1.5-0.673-1.5-1.5V44c0-0.827,0.673-1.5,1.5-1.5h2c0.276,0,0.5,0.224,0.5,0.5v4.5
			C62.5,47.776,62.276,48,62,48z M60,43.5c-0.276,0-0.5,0.224-0.5,0.5v2.5c0,0.276,0.224,0.5,0.5,0.5h1.5v-3.5H60z"/>
	</g>
	<g>
		<path class="st0" d="M37,44.5H2c-0.276,0-0.5-0.224-0.5-0.5s0.224-0.5,0.5-0.5h35c0.276,0,0.5,0.224,0.5,0.5S37.276,44.5,37,44.5z
			"/>
	</g>
</g>
</svg>
