<?xml version="1.0" encoding="utf-8"?>
<!-- Generator: Adobe Illustrator 22.0.0, SVG Export Plug-In . SVG Version: 6.00 Build 0)  -->
<svg version="1.1" id="Layer_1" xmlns="http://www.w3.org/2000/svg" xmlns:xlink="http://www.w3.org/1999/xlink" x="0px" y="0px"
	 viewBox="0 0 64 64" style="enable-background:new 0 0 64 64;" xml:space="preserve">
<style type="text/css">
	.st0{fill:#263238;}
	.st1{fill:#4FC3F7;}
	.st2{fill:#FFD740;}
	.st3{fill:#FF5252;}
	.st4{fill:#4DB6AC;}
	.st5{fill:#FFFFFF;}
	.st6{fill:#40C4FF;}
	.st7{fill:#A2A2A1;}
	.st8{fill:#212A41;}
</style>
<g>
	<g>
		<path class="st2" d="M58.191,27.382C57.767,26.535,56.901,26,55.954,26H42.5c-0.552,0-1,0.448-1,1v27h4c0-3.59,2.91-6.5,6.5-6.5
			c3.59,0,6.5,2.91,6.5,6.5H61c1.381,0,2.5-1.119,2.5-2.5V38L58.191,27.382z M63.5,47.5h-2c-0.552,0-1-0.448-1-1V44
			c0-0.552,0.448-1,1-1h2V47.5z M49.5,38c-0.552,0-1-0.448-1-1v-7c0-0.552,0.448-1,1-1H59l4.5,9H49.5z"/>
	</g>
	<g>
		<path class="st0" d="M52,61c-3.859,0-7-3.14-7-7s3.141-7,7-7s7,3.14,7,7S55.859,61,52,61z M52,48c-3.309,0-6,2.691-6,6
			s2.691,6,6,6s6-2.691,6-6S55.309,48,52,48z"/>
	</g>
	<g>
		<path class="st4" d="M11.246,18.623L0.5,45h38V23h8.882c0.743,0,1.227-0.782,0.894-1.447l-1.5-3C46.607,18.214,46.26,18,45.881,18
			h-33.71C11.765,18,11.399,18.246,11.246,18.623z"/>
	</g>
	<g>
		<path class="st1" d="M5.999,6.5c0-1.657,1.343-3,3-3s3,1.343,3,3c1.657,0,3,1.343,3,3s-1.343,3-3,3h-6c-1.657,0-3-1.343-3-3
			S4.342,6.5,5.999,6.5z"/>
	</g>
	<g>
		<path class="st0" d="M57.499,6h-4c-0.276,0-0.5-0.224-0.5-0.5s0.224-0.5,0.5-0.5h4c0.276,0,0.5,0.224,0.5,0.5S57.775,6,57.499,6z"
			/>
	</g>
	<g>
		<path class="st0" d="M55.499,8c-0.276,0-0.5-0.224-0.5-0.5v-4c0-0.276,0.224-0.5,0.5-0.5s0.5,0.224,0.5,0.5v4
			C55.999,7.777,55.775,8,55.499,8z"/>
	</g>
	<g>
		<path class="st0" d="M51.499,10h-4c-0.276,0-0.5-0.224-0.5-0.5s0.224-0.5,0.5-0.5h4c0.276,0,0.5,0.224,0.5,0.5
			S51.775,10,51.499,10z"/>
	</g>
	<g>
		<path class="st0" d="M49.499,12c-0.276,0-0.5-0.224-0.5-0.5v-4c0-0.276,0.224-0.5,0.5-0.5s0.5,0.224,0.5,0.5v4
			C49.999,11.777,49.775,12,49.499,12z"/>
	</g>
	<g>
		<path class="st0" d="M3.499,61h-3c-0.276,0-0.5-0.224-0.5-0.5s0.224-0.5,0.5-0.5h3c0.276,0,0.5,0.224,0.5,0.5S3.775,61,3.499,61z"
			/>
	</g>
	<g>
		<path class="st0" d="M63.499,61h-58c-0.276,0-0.5-0.224-0.5-0.5s0.224-0.5,0.5-0.5h58c0.276,0,0.5,0.224,0.5,0.5
			S63.775,61,63.499,61z"/>
	</g>
	<g>
		<path class="st0" d="M0.5,45.5c-0.063,0-0.127-0.012-0.189-0.037c-0.256-0.104-0.378-0.396-0.273-0.652l10.747-26.368
			c0.229-0.573,0.776-0.943,1.393-0.943l33.705,0c0.571,0,1.085,0.318,1.342,0.829l1.5,3c0.234,0.469,0.209,1.015-0.066,1.46
			S47.905,23.5,47.382,23.5H39V45c0,0.276-0.224,0.5-0.5,0.5S38,45.277,38,45V23c0-0.276,0.224-0.5,0.5-0.5h8.882
			c0.251,0,0.381-0.166,0.425-0.237s0.135-0.262,0.022-0.487l-1.5-3c-0.084-0.168-0.26-0.277-0.447-0.277l-33.705,0
			c-0.206,0-0.388,0.124-0.465,0.314l-1.748,4.371L0.963,45.19C0.884,45.383,0.697,45.5,0.5,45.5z"/>
	</g>
	<g>
		<path class="st0" d="M61,54.5h-0.5c-0.276,0-0.5-0.224-0.5-0.5s0.224-0.5,0.5-0.5H61c1.103,0,2-0.897,2-2V38.119l-5.257-10.513
			c-0.341-0.682-1.026-1.105-1.789-1.105H42.5c-0.275,0-0.5,0.224-0.5,0.5v26.5h1.5c0.276,0,0.5,0.224,0.5,0.5s-0.224,0.5-0.5,0.5
			h-2c-0.276,0-0.5-0.224-0.5-0.5V27c0-0.827,0.673-1.5,1.5-1.5h13.454c1.144,0,2.172,0.635,2.684,1.658l5.31,10.618
			C63.981,37.846,64,37.923,64,38v13.5C64,53.155,62.654,54.5,61,54.5z"/>
	</g>
	<g>
		<path class="st0" d="M52,58c-2.206,0-4-1.794-4-4s1.794-4,4-4s4,1.794,4,4S54.206,58,52,58z M52,51c-1.654,0-3,1.346-3,3
			s1.346,3,3,3s3-1.346,3-3S53.654,51,52,51z"/>
	</g>
	<g>
		<path class="st0" d="M10,61c-3.859,0-7-3.14-7-7s3.141-7,7-7s7,3.14,7,7S13.859,61,10,61z M10,48c-3.309,0-6,2.691-6,6
			s2.691,6,6,6s6-2.691,6-6S13.309,48,10,48z"/>
	</g>
	<g>
		<path class="st0" d="M10,58c-2.206,0-4-1.794-4-4s1.794-4,4-4s4,1.794,4,4S12.206,58,10,58z M10,51c-1.654,0-3,1.346-3,3
			s1.346,3,3,3s3-1.346,3-3S11.654,51,10,51z"/>
	</g>
	<g>
		<path class="st0" d="M63.5,38.5h-14c-0.827,0-1.5-0.673-1.5-1.5v-7c0-0.827,0.673-1.5,1.5-1.5H59c0.189,0,0.362,0.107,0.447,0.276
			l4.5,9c0.077,0.155,0.069,0.339-0.021,0.486C63.834,38.411,63.673,38.5,63.5,38.5z M49.5,29.5c-0.275,0-0.5,0.224-0.5,0.5v7
			c0,0.276,0.225,0.5,0.5,0.5h13.191l-4-8H49.5z"/>
	</g>
	<g>
		<path class="st0" d="M58.645,35.5c-0.183,0-0.359-0.101-0.447-0.276l-1.5-3c-0.123-0.247-0.023-0.547,0.224-0.671
			c0.248-0.122,0.547-0.023,0.671,0.224l1.5,3c0.123,0.247,0.023,0.547-0.224,0.671C58.796,35.483,58.72,35.5,58.645,35.5z"/>
	</g>
	<g>
		<path class="st0" d="M1.499,54.5c-0.827,0-1.5-0.673-1.5-1.5v-8c0-0.276,0.224-0.5,0.5-0.5H41.5c0.276,0,0.5,0.224,0.5,0.5
			s-0.224,0.5-0.5,0.5H0.999V53c0,0.276,0.225,0.5,0.5,0.5c0.276,0,0.5,0.224,0.5,0.5S1.775,54.5,1.499,54.5z"/>
	</g>
	<g>
		<path class="st0" d="M21.5,13.5h-2c-0.276,0-0.5-0.224-0.5-0.5s0.224-0.5,0.5-0.5h2c0.276,0,0.5,0.224,0.5,0.5
			S21.776,13.5,21.5,13.5z"/>
	</g>
	<g>
		<path class="st0" d="M34.5,13.5h-11c-0.276,0-0.5-0.224-0.5-0.5s0.224-0.5,0.5-0.5h11c0.276,0,0.5,0.224,0.5,0.5
			S34.776,13.5,34.5,13.5z"/>
	</g>
	<g>
		<path class="st0" d="M39.5,10.5h-12c-0.276,0-0.5-0.224-0.5-0.5s0.224-0.5,0.5-0.5h12c0.276,0,0.5,0.224,0.5,0.5
			S39.776,10.5,39.5,10.5z"/>
	</g>
	<g>
		<path class="st0" d="M48.5,46.209c-0.276,0-0.5-0.224-0.5-0.5V40c0-0.276,0.224-0.5,0.5-0.5S49,39.724,49,40v5.709
			C49,45.986,48.776,46.209,48.5,46.209z"/>
	</g>
	<g>
		<path class="st0" d="M43.5,54.5h-9c-0.276,0-0.5-0.224-0.5-0.5s0.224-0.5,0.5-0.5h9c0.276,0,0.5,0.224,0.5,0.5
			S43.776,54.5,43.5,54.5z"/>
	</g>
	<g>
		<path class="st0" d="M10,58c-2.206,0-4-1.794-4-4s1.794-4,4-4s4,1.794,4,4S12.206,58,10,58z M10,51c-1.654,0-3,1.346-3,3
			s1.346,3,3,3s3-1.346,3-3S11.654,51,10,51z"/>
	</g>
	<g>
		<path class="st0" d="M26,61c-3.859,0-7-3.14-7-7s3.141-7,7-7s7,3.14,7,7S29.859,61,26,61z M26,48c-3.309,0-6,2.691-6,6
			s2.691,6,6,6s6-2.691,6-6S29.309,48,26,48z"/>
	</g>
	<g>
		<path class="st0" d="M26,58c-2.206,0-4-1.794-4-4s1.794-4,4-4s4,1.794,4,4S28.206,58,26,58z M26,51c-1.654,0-3,1.346-3,3
			s1.346,3,3,3s3-1.346,3-3S27.654,51,26,51z"/>
	</g>
	<g>
		<path class="st0" d="M26,58c-2.206,0-4-1.794-4-4s1.794-4,4-4s4,1.794,4,4S28.206,58,26,58z M26,51c-1.654,0-3,1.346-3,3
			s1.346,3,3,3s3-1.346,3-3S27.654,51,26,51z"/>
	</g>
	<g>
		<path class="st0" d="M19.5,43.5c-0.276,0-0.5-0.224-0.5-0.5V25c0-0.276,0.224-0.5,0.5-0.5S20,24.724,20,25v18
			C20,43.277,19.776,43.5,19.5,43.5z"/>
	</g>
	<g>
		<path class="st0" d="M29.5,43.5c-0.276,0-0.5-0.224-0.5-0.5V25c0-0.276,0.224-0.5,0.5-0.5S30,24.724,30,25v18
			C30,43.277,29.776,43.5,29.5,43.5z"/>
	</g>
	<g>
		<path class="st0" d="M9.5,43.5C9.224,43.5,9,43.277,9,43V29c0-0.276,0.224-0.5,0.5-0.5S10,28.724,10,29v14
			C10,43.277,9.776,43.5,9.5,43.5z"/>
	</g>
	<g>
		<path class="st0" d="M36.5,23.5h-25c-0.276,0-0.5-0.224-0.5-0.5s0.224-0.5,0.5-0.5h25c0.276,0,0.5,0.224,0.5,0.5
			S36.776,23.5,36.5,23.5z"/>
	</g>
	<g>
		<path class="st0" d="M36.5,34.5H7c-0.276,0-0.5-0.224-0.5-0.5s0.224-0.5,0.5-0.5h29.5c0.276,0,0.5,0.224,0.5,0.5
			S36.776,34.5,36.5,34.5z"/>
	</g>
	<g>
		<path class="st0" d="M63.5,48h-2c-0.827,0-1.5-0.673-1.5-1.5V44c0-0.827,0.673-1.5,1.5-1.5h2c0.276,0,0.5,0.224,0.5,0.5v4.5
			C64,47.776,63.776,48,63.5,48z M61.5,43.5c-0.275,0-0.5,0.224-0.5,0.5v2.5c0,0.276,0.225,0.5,0.5,0.5H63v-3.5H61.5z"/>
	</g>
</g>
</svg>
