<?xml version="1.0" encoding="utf-8"?>
<!-- Generator: Adobe Illustrator 22.0.0, SVG Export Plug-In . SVG Version: 6.00 Build 0)  -->
<svg version="1.1" id="Layer_1" xmlns="http://www.w3.org/2000/svg" xmlns:xlink="http://www.w3.org/1999/xlink" x="0px" y="0px"
	 viewBox="0 0 64 64" style="enable-background:new 0 0 64 64;" xml:space="preserve">
<style type="text/css">
	.st0{fill:#263238;}
	.st1{fill:#4FC3F7;}
	.st2{fill:#FFD740;}
	.st3{fill:#FF5252;}
	.st4{fill:#4DB6AC;}
	.st5{fill:#FFFFFF;}
	.st6{fill:#40C4FF;}
	.st7{fill:#A2A2A1;}
	.st8{fill:#212A41;}
</style>
<g>
	<g>
		<path class="st1" d="M11.031,50.5c0-1.105-0.895-2-2-2s-2,0.895-2,2c-1.105,0-2,0.895-2,2s0.895,2,2,2h4c1.105,0,2-0.895,2-2
			S12.135,50.5,11.031,50.5z"/>
	</g>
	<g>
		<path class="st0" d="M40.25,50.5h-2c-0.276,0-0.5-0.224-0.5-0.5s0.224-0.5,0.5-0.5h2c0.276,0,0.5,0.224,0.5,0.5
			S40.526,50.5,40.25,50.5z"/>
	</g>
	<g>
		<path class="st0" d="M56.75,50.5h-14.5c-0.276,0-0.5-0.224-0.5-0.5s0.224-0.5,0.5-0.5h14.5c0.276,0,0.5,0.224,0.5,0.5
			S57.026,50.5,56.75,50.5z"/>
	</g>
	<g>
		<path class="st0" d="M60.75,53.5h-15.5c-0.276,0-0.5-0.224-0.5-0.5s0.224-0.5,0.5-0.5h15.5c0.276,0,0.5,0.224,0.5,0.5
			S61.026,53.5,60.75,53.5z"/>
	</g>
	<g>
		<path class="st1" d="M47.531,12.5c0-1.657,1.343-3,3-3s3,1.343,3,3c1.657,0,3,1.343,3,3s-1.343,3-3,3h-6c-1.657,0-3-1.343-3-3
			S45.874,12.5,47.531,12.5z"/>
	</g>
	<g>
		<path class="st0" d="M16.03,12h-4c-0.276,0-0.5-0.224-0.5-0.5s0.224-0.5,0.5-0.5h4c0.276,0,0.5,0.224,0.5,0.5S16.307,12,16.03,12z
			"/>
	</g>
	<g>
		<path class="st0" d="M14.03,14c-0.276,0-0.5-0.224-0.5-0.5v-4c0-0.276,0.224-0.5,0.5-0.5s0.5,0.224,0.5,0.5v4
			C14.53,13.776,14.307,14,14.03,14z"/>
	</g>
	<g>
		<path class="st0" d="M21.03,17.5h-4c-0.276,0-0.5-0.224-0.5-0.5s0.224-0.5,0.5-0.5h4c0.276,0,0.5,0.224,0.5,0.5
			S21.307,17.5,21.03,17.5z"/>
	</g>
	<g>
		<path class="st0" d="M19.03,19.5c-0.276,0-0.5-0.224-0.5-0.5v-4c0-0.276,0.224-0.5,0.5-0.5s0.5,0.224,0.5,0.5v4
			C19.53,19.276,19.307,19.5,19.03,19.5z"/>
	</g>
	<g>
		<path class="st0" d="M24.25,50.5h-6.5c-0.2,0-0.381-0.119-0.46-0.304c-0.078-0.185-0.04-0.397,0.099-0.542l11.5-12
			c0.095-0.099,0.225-0.154,0.361-0.154h10c0.212,0,0.401,0.134,0.472,0.335c0.07,0.2,0.007,0.423-0.159,0.556l-15,12
			C24.474,50.461,24.363,50.5,24.25,50.5z M18.922,49.5h5.152l13.75-11h-8.361L18.922,49.5z"/>
	</g>
	<g>
		<path class="st0" d="M6.25,36h-3.5c-0.202,0-0.385-0.122-0.462-0.309s-0.034-0.402,0.108-0.545l5-5C7.49,30.053,7.617,30,7.75,30
			h7c0.226,0,0.423,0.151,0.482,0.368c0.06,0.218-0.034,0.448-0.229,0.562l-8.5,5C6.427,35.977,6.339,36,6.25,36z M3.957,35h2.157
			l6.8-4H7.957L3.957,35z"/>
	</g>
	<g>
		<path class="st0" d="M61.25,38.5H11.285c-1.306,0-2.451-0.842-2.851-2.095c-0.084-0.263,0.062-0.544,0.325-0.628
			c0.261-0.082,0.545,0.062,0.628,0.325c0.266,0.836,1.028,1.397,1.897,1.397H59.81l-5.645-4.456C52.496,31.726,50.405,31,48.278,31
			H17.25c-0.17,0-0.328-0.087-0.421-0.229l-3.024-4.704C12.973,24.772,11.559,24,10.021,24H6.864l0.921,4.456
			c0.057,0.271-0.117,0.535-0.388,0.591c-0.268,0.061-0.535-0.116-0.591-0.388l-1.046-5.058c-0.031-0.147,0.007-0.301,0.102-0.417
			C5.957,23.067,6.1,23,6.25,23h3.771c1.88,0,3.608,0.944,4.626,2.525L17.523,30h30.755c2.351,0,4.661,0.803,6.506,2.259
			l6.775,5.349c0.167,0.132,0.232,0.355,0.163,0.557C61.652,38.365,61.463,38.5,61.25,38.5z"/>
	</g>
	<g>
		<path class="st2" d="M47.25,34.5h9.567l-2.342-1.849c-1.765-1.393-3.948-2.151-6.196-2.151H44.75V32
			C44.75,33.381,45.869,34.5,47.25,34.5z"/>
		<path class="st0" d="M56.816,35H47.25c-1.654,0-3-1.346-3-3v-1.5c0-0.276,0.224-0.5,0.5-0.5h3.528
			c2.351,0,4.661,0.803,6.506,2.259l2.342,1.849c0.167,0.132,0.232,0.355,0.163,0.557C57.219,34.865,57.029,35,56.816,35z M45.25,31
			v1c0,1.103,0.897,2,2,2h8.126l-1.211-0.956C52.496,31.726,50.405,31,48.278,31H45.25z"/>
	</g>
</g>
</svg>
