<?xml version="1.0" encoding="utf-8"?>
<!-- Generator: Adobe Illustrator 22.0.0, SVG Export Plug-In . SVG Version: 6.00 Build 0)  -->
<svg version="1.1" id="Layer_1" xmlns="http://www.w3.org/2000/svg" xmlns:xlink="http://www.w3.org/1999/xlink" x="0px" y="0px"
	 viewBox="0 0 64 64" style="enable-background:new 0 0 64 64;" xml:space="preserve">
<style type="text/css">
	.st0{fill:#263238;}
	.st1{fill:#4FC3F7;}
	.st2{fill:#FFD740;}
	.st3{fill:#FF5252;}
	.st4{fill:#4DB6AC;}
	.st5{fill:#FFFFFF;}
	.st6{fill:#40C4FF;}
	.st7{fill:#A2A2A1;}
	.st8{fill:#212A41;}
</style>
<g>
	<g>
		<polygon class="st3" points="22.763,21.367 29.535,25.908 43.443,12 32.13,12 		"/>
		<path class="st0" d="M29.535,26.408c-0.097,0-0.194-0.027-0.278-0.085l-6.772-4.542c-0.125-0.083-0.205-0.218-0.219-0.366
			c-0.015-0.149,0.038-0.297,0.144-0.402l9.367-9.366c0.094-0.094,0.221-0.146,0.354-0.146h11.313c0.202,0,0.385,0.122,0.462,0.309
			c0.078,0.187,0.035,0.402-0.108,0.545L29.889,26.262C29.792,26.358,29.664,26.408,29.535,26.408z M23.547,21.29l5.925,3.974
			L42.236,12.5h-9.899L23.547,21.29z"/>
	</g>
	<g>
		<polygon class="st3" points="45.092,41.464 49.633,48.237 59,38.87 59,27.556 		"/>
		<path class="st0" d="M49.633,48.736c-0.016,0-0.032-0.001-0.049-0.002c-0.148-0.015-0.283-0.096-0.366-0.22l-4.542-6.772
			c-0.133-0.198-0.107-0.463,0.062-0.632l13.908-13.908c0.143-0.144,0.358-0.186,0.545-0.108s0.309,0.26,0.309,0.462V38.87
			c0,0.133-0.053,0.26-0.146,0.354l-9.367,9.366C49.893,48.685,49.765,48.736,49.633,48.736z M45.736,41.526l3.974,5.927l8.79-8.79
			v-9.9L45.736,41.526z"/>
	</g>
	<g>
		<path class="st0" d="M56.468,56.994c-0.975,0.001-1.884-0.477-2.46-1.336h0L38.487,32.513L15.341,16.991
			c-1.122-0.752-1.592-2.073-1.199-3.365c0.393-1.291,1.52-2.126,2.87-2.126H54c3.033,0,5.5,2.468,5.5,5.5v36.987
			c0,1.351-0.835,2.478-2.127,2.871C57.07,56.95,56.766,56.994,56.468,56.994z M17.012,12.5c-1.093,0-1.705,0.732-1.914,1.418
			c-0.208,0.685-0.108,1.634,0.799,2.243l23.228,15.576c0.054,0.036,0.101,0.082,0.137,0.137l15.576,23.228h0
			c0.608,0.908,1.559,1.01,2.243,0.8c0.686-0.209,1.418-0.821,1.418-1.914V17c0-2.481-2.019-4.5-4.5-4.5H17.012z"/>
	</g>
	<g>
		<path class="st0" d="M29.773,45.263c-0.133,0-0.26-0.053-0.354-0.146l-3.536-3.536c-0.195-0.195-0.195-0.512,0-0.707l9.166-9.165
			c0.195-0.195,0.512-0.195,0.707,0s0.195,0.512,0,0.707l-8.812,8.812l2.829,2.829l8.812-8.812c0.195-0.195,0.512-0.195,0.707,0
			s0.195,0.512,0,0.707l-9.165,9.165C30.033,45.21,29.906,45.263,29.773,45.263z"/>
	</g>
	<g>
		<path class="st0" d="M26.237,41.727c-0.128,0-0.256-0.049-0.354-0.146l-3.889-3.889c-0.094-0.094-0.146-0.221-0.146-0.354
			s0.053-0.26,0.146-0.354l0.809-0.809c0.597-0.598,1.426-0.933,2.265-0.875l6.319,0.301c0.198,0.009,0.371,0.134,0.442,0.318
			s0.027,0.395-0.113,0.534l-5.126,5.126C26.493,41.678,26.365,41.727,26.237,41.727z M23.055,37.338l3.182,3.182l3.974-3.974
			l-5.191-0.247c-0.55-0.019-1.111,0.186-1.509,0.584L23.055,37.338z"/>
	</g>
	<g>
		<path class="st0" d="M33.662,49.151c-0.128,0-0.256-0.049-0.354-0.146l-3.889-3.889c-0.094-0.094-0.146-0.221-0.146-0.354
			s0.053-0.26,0.146-0.354l5.126-5.127c0.14-0.14,0.351-0.183,0.534-0.113c0.185,0.072,0.31,0.245,0.319,0.443l0.301,6.32
			c0.04,0.843-0.279,1.668-0.875,2.264l-0.809,0.809C33.918,49.103,33.79,49.151,33.662,49.151z M30.48,44.763l3.182,3.182
			l0.456-0.455c0.397-0.397,0.61-0.947,0.583-1.51l-0.248-5.191L30.48,44.763z"/>
	</g>
	<g>
		<path class="st0" d="M8.231,39.934c-0.128,0-0.256-0.049-0.354-0.146c-0.195-0.195-0.195-0.512,0-0.707l1.414-1.414
			c0.195-0.195,0.512-0.195,0.707,0s0.195,0.512,0,0.707l-1.414,1.414C8.487,39.885,8.359,39.934,8.231,39.934z"/>
	</g>
	<g>
		<path class="st0" d="M11.06,37.105c-0.128,0-0.256-0.049-0.354-0.146c-0.195-0.195-0.195-0.512,0-0.707l6.718-6.718
			c0.195-0.195,0.512-0.195,0.707,0s0.195,0.512,0,0.707l-6.718,6.718C11.315,37.057,11.188,37.105,11.06,37.105z"/>
	</g>
	<g>
		<path class="st0" d="M15.302,37.105c-0.128,0-0.256-0.049-0.354-0.146c-0.195-0.195-0.195-0.512,0-0.707l7.425-7.425
			c0.195-0.195,0.512-0.195,0.707,0s0.195,0.512,0,0.707l-7.425,7.425C15.558,37.057,15.43,37.105,15.302,37.105z"/>
	</g>
	<g>
		<path class="st1" d="M8,53c0-1.657,1.343-3,3-3s3,1.343,3,3c1.657,0,3,1.343,3,3s-1.343,3-3,3H8c-1.657,0-3-1.343-3-3
			S6.343,53,8,53z"/>
	</g>
	<g>
		<path class="st0" d="M13.921,7.5h-4c-0.276,0-0.5-0.224-0.5-0.5s0.224-0.5,0.5-0.5h4c0.276,0,0.5,0.224,0.5,0.5
			S14.197,7.5,13.921,7.5z"/>
	</g>
	<g>
		<path class="st0" d="M11.921,9.5c-0.276,0-0.5-0.224-0.5-0.5V5c0-0.276,0.224-0.5,0.5-0.5s0.5,0.224,0.5,0.5v4
			C12.421,9.276,12.197,9.5,11.921,9.5z"/>
	</g>
	<g>
		<path class="st0" d="M9.421,13h-4c-0.276,0-0.5-0.224-0.5-0.5s0.224-0.5,0.5-0.5h4c0.276,0,0.5,0.224,0.5,0.5S9.697,13,9.421,13z"
			/>
	</g>
	<g>
		<path class="st0" d="M7.421,15c-0.276,0-0.5-0.224-0.5-0.5v-4c0-0.276,0.224-0.5,0.5-0.5s0.5,0.224,0.5,0.5v4
			C7.921,14.776,7.697,15,7.421,15z"/>
	</g>
</g>
</svg>
