<?xml version="1.0" encoding="utf-8"?>
<!-- Generator: Adobe Illustrator 22.0.0, SVG Export Plug-In . SVG Version: 6.00 Build 0)  -->
<svg version="1.1" id="Layer_1" xmlns="http://www.w3.org/2000/svg" xmlns:xlink="http://www.w3.org/1999/xlink" x="0px" y="0px"
	 viewBox="0 0 64 64" style="enable-background:new 0 0 64 64;" xml:space="preserve">
<style type="text/css">
	.st0{fill:#263238;}
	.st1{fill:#4FC3F7;}
	.st2{fill:#FFD740;}
	.st3{fill:#FF5252;}
	.st4{fill:#4DB6AC;}
	.st5{fill:#FFFFFF;}
	.st6{fill:#40C4FF;}
	.st7{fill:#A2A2A1;}
	.st8{fill:#212A41;}
</style>
<g>
	<g>
		<path class="st1" d="M47.75,56c0-1.105-0.895-2-2-2s-2,0.895-2,2c-1.105,0-2,0.895-2,2s0.895,2,2,2h4c1.105,0,2-0.895,2-2
			S48.855,56,47.75,56z"/>
	</g>
	<g>
		<path class="st0" d="M6,49.5H4c-0.276,0-0.5-0.224-0.5-0.5s0.224-0.5,0.5-0.5h2c0.276,0,0.5,0.224,0.5,0.5S6.276,49.5,6,49.5z"/>
	</g>
	<g>
		<path class="st0" d="M17.5,49.5H8c-0.276,0-0.5-0.224-0.5-0.5s0.224-0.5,0.5-0.5h9.5c0.276,0,0.5,0.224,0.5,0.5
			S17.776,49.5,17.5,49.5z"/>
	</g>
	<g>
		<path class="st0" d="M21.5,52.5H11c-0.276,0-0.5-0.224-0.5-0.5s0.224-0.5,0.5-0.5h10.5c0.276,0,0.5,0.224,0.5,0.5
			S21.776,52.5,21.5,52.5z"/>
	</g>
	<g>
		<path class="st1" d="M8.75,9c0-1.657,1.343-3,3-3s3,1.343,3,3c1.657,0,3,1.343,3,3s-1.343,3-3,3h-6c-1.657,0-3-1.343-3-3
			S7.093,9,8.75,9z"/>
	</g>
	<g>
		<path class="st0" d="M58.75,6.5h-4c-0.276,0-0.5-0.224-0.5-0.5s0.224-0.5,0.5-0.5h4c0.276,0,0.5,0.224,0.5,0.5
			S59.026,6.5,58.75,6.5z"/>
	</g>
	<g>
		<path class="st0" d="M56.75,8.5c-0.276,0-0.5-0.224-0.5-0.5V4c0-0.276,0.224-0.5,0.5-0.5s0.5,0.224,0.5,0.5v4
			C57.25,8.276,57.026,8.5,56.75,8.5z"/>
	</g>
	<g>
		<path class="st0" d="M52.75,10.5h-4c-0.276,0-0.5-0.224-0.5-0.5s0.224-0.5,0.5-0.5h4c0.276,0,0.5,0.224,0.5,0.5
			S53.026,10.5,52.75,10.5z"/>
	</g>
	<g>
		<path class="st0" d="M50.75,12.5c-0.276,0-0.5-0.224-0.5-0.5V8c0-0.276,0.224-0.5,0.5-0.5s0.5,0.224,0.5,0.5v4
			C51.25,12.276,51.026,12.5,50.75,12.5z"/>
	</g>
	<g>
		<path class="st0" d="M58.25,49.5h-25c-0.276,0-0.5-0.224-0.5-0.5s0.224-0.5,0.5-0.5h25c0.276,0,0.5,0.224,0.5,0.5
			S58.526,49.5,58.25,49.5z"/>
	</g>
	<g>
		<path class="st0" d="M52.25,49.5c-0.276,0-0.5-0.224-0.5-0.5v-3c0-0.276,0.224-0.5,0.5-0.5s0.5,0.224,0.5,0.5v3
			C52.75,49.276,52.526,49.5,52.25,49.5z"/>
	</g>
	<g>
		<path class="st0" d="M39.25,49.5c-0.276,0-0.5-0.224-0.5-0.5v-3c0-0.276,0.224-0.5,0.5-0.5s0.5,0.224,0.5,0.5v3
			C39.75,49.276,39.526,49.5,39.25,49.5z"/>
	</g>
	<g>
		<path class="st0" d="M12,39c-2.757,0-5-2.243-5-5s2.243-5,5-5s5,2.243,5,5S14.757,39,12,39z M12,30c-2.206,0-4,1.794-4,4
			s1.794,4,4,4s4-1.794,4-4S14.206,30,12,30z"/>
	</g>
	<g>
		<circle class="st2" cx="12" cy="34" r="1.5"/>
		<path class="st0" d="M12,36c-1.103,0-2-0.897-2-2s0.897-2,2-2s2,0.897,2,2S13.103,36,12,36z M12,33c-0.551,0-1,0.448-1,1
			s0.449,1,1,1s1-0.448,1-1S12.551,33,12,33z"/>
	</g>
	<g>
		<path class="st0" d="M54.726,43.5H36.249c-2.171,0-4.144-1.282-5.026-3.266L28.675,34.5H18.5c-0.276,0-0.5-0.224-0.5-0.5
			s0.224-0.5,0.5-0.5H29c0.198,0,0.376,0.116,0.457,0.297l2.68,6.031c0.721,1.623,2.335,2.672,4.112,2.672h18.477
			c1.682,0,3.163-0.884,3.961-2.364s0.723-3.203-0.202-4.609l-5.921-9c-0.835-1.269-2.24-2.026-3.759-2.026h-15.39
			c-0.698,0-1.355,0.372-1.715,0.972l-2.271,3.785C29.338,29.408,29.176,29.5,29,29.5H17c-0.148,0-0.289-0.065-0.384-0.18
			l-4.25-5.101c-0.381-0.457-0.941-0.72-1.536-0.72H8.5v5.382c0,0.276-0.224,0.5-0.5,0.5s-0.5-0.224-0.5-0.5V23
			c0-0.276,0.224-0.5,0.5-0.5h2.829c0.892,0,1.732,0.394,2.304,1.079l4.101,4.921h11.482l2.126-3.543
			c0.54-0.899,1.525-1.457,2.572-1.457h15.39c1.856,0,3.573,0.926,4.595,2.478l5.921,9c1.13,1.718,1.222,3.823,0.246,5.633
			S56.781,43.5,54.726,43.5z"/>
	</g>
	<g>
		<path class="st0" d="M49,24.5H34c-0.161,0-0.312-0.077-0.405-0.208c-0.095-0.13-0.12-0.298-0.069-0.45l0.431-1.29
			c0.408-1.228,1.552-2.052,2.846-2.052h9.396c1.294,0,2.438,0.824,2.846,2.052l0.431,1.29c0.051,0.152,0.025,0.32-0.069,0.45
			C49.312,24.423,49.161,24.5,49,24.5z M34.694,23.5h13.611l-0.211-0.632c-0.272-0.818-1.034-1.368-1.896-1.368h-9.396
			c-0.862,0-1.624,0.55-1.896,1.368L34.694,23.5z"/>
	</g>
	<g>
		<path class="st0" d="M60,19.5H44c-0.276,0-0.5-0.224-0.5-0.5s0.224-0.5,0.5-0.5h16c0.276,0,0.5,0.224,0.5,0.5S60.276,19.5,60,19.5
			z"/>
	</g>
	<g>
		<path class="st0" d="M40,19.5H24c-0.276,0-0.5-0.224-0.5-0.5s0.224-0.5,0.5-0.5h16c0.276,0,0.5,0.224,0.5,0.5S40.276,19.5,40,19.5
			z"/>
	</g>
	<g>
		<path class="st0" d="M44,21.5h-4c-0.276,0-0.5-0.224-0.5-0.5v-3c0-0.827,0.673-1.5,1.5-1.5h2c0.827,0,1.5,0.673,1.5,1.5v3
			C44.5,21.276,44.276,21.5,44,21.5z M40.5,20.5h3V18c0-0.275-0.225-0.5-0.5-0.5h-2c-0.275,0-0.5,0.225-0.5,0.5V20.5z"/>
	</g>
	<g>
		<path class="st2" d="M53.474,27h-8.031c-0.698,0-1.181,0.697-0.936,1.351l1.885,5.027C46.758,34.354,47.69,35,48.733,35h10.004
			L53.474,27z"/>
		<path class="st0" d="M58.737,35.5H48.732c-1.243,0-2.372-0.782-2.809-1.946l-1.885-5.026c-0.173-0.461-0.108-0.978,0.172-1.382
			c0.279-0.404,0.74-0.646,1.232-0.646h8.03c0.168,0,0.325,0.085,0.418,0.226l5.264,8c0.101,0.153,0.109,0.35,0.022,0.512
			C59.09,35.399,58.921,35.5,58.737,35.5z M45.443,27.5c-0.166,0-0.316,0.078-0.411,0.215c-0.095,0.137-0.115,0.306-0.058,0.461
			l1.885,5.026c0.292,0.776,1.044,1.298,1.873,1.298h9.077l-4.605-7H45.443z"/>
	</g>
	<g>
		<path class="st0" d="M53.172,32.5c-0.162,0-0.321-0.079-0.418-0.226l-1.315-2c-0.151-0.23-0.088-0.54,0.144-0.692
			c0.228-0.151,0.538-0.089,0.692,0.144l1.315,2c0.151,0.23,0.088,0.54-0.144,0.692C53.362,32.474,53.267,32.5,53.172,32.5z"/>
	</g>
	<g>
		<path class="st0" d="M56.309,40.5H34.681c-0.276,0-0.5-0.224-0.5-0.5s0.224-0.5,0.5-0.5h21.628c0.276,0,0.5,0.224,0.5,0.5
			S56.585,40.5,56.309,40.5z"/>
	</g>
</g>
</svg>
