<?xml version="1.0" encoding="utf-8"?>
<!-- Generator: Adobe Illustrator 22.0.0, SVG Export Plug-In . SVG Version: 6.00 Build 0)  -->
<svg version="1.1" id="Layer_1" xmlns="http://www.w3.org/2000/svg" xmlns:xlink="http://www.w3.org/1999/xlink" x="0px" y="0px"
	 viewBox="0 0 64 64" style="enable-background:new 0 0 64 64;" xml:space="preserve">
<style type="text/css">
	.st0{fill:#263238;}
	.st1{fill:#4FC3F7;}
	.st2{fill:#FFD740;}
	.st3{fill:#FF5252;}
	.st4{fill:#4DB6AC;}
	.st5{fill:#FFFFFF;}
	.st6{fill:#40C4FF;}
	.st7{fill:#A2A2A1;}
	.st8{fill:#212A41;}
</style>
<g>
	<g>
		<path class="st1" d="M58,35c0-1.105-0.895-2-2-2s-2,0.895-2,2c-1.105,0-2,0.895-2,2s0.895,2,2,2h4c1.105,0,2-0.895,2-2
			S59.105,35,58,35z"/>
	</g>
	<g>
		<path class="st0" d="M9.5,48.5h-2C7.224,48.5,7,48.276,7,48s0.224-0.5,0.5-0.5h2c0.276,0,0.5,0.224,0.5,0.5S9.776,48.5,9.5,48.5z"
			/>
	</g>
	<g>
		<path class="st0" d="M21,48.5h-9.5c-0.276,0-0.5-0.224-0.5-0.5s0.224-0.5,0.5-0.5H21c0.276,0,0.5,0.224,0.5,0.5
			S21.276,48.5,21,48.5z"/>
	</g>
	<g>
		<path class="st0" d="M58.5,48.5h-2c-0.276,0-0.5-0.224-0.5-0.5s0.224-0.5,0.5-0.5h2c0.276,0,0.5,0.224,0.5,0.5
			S58.776,48.5,58.5,48.5z"/>
	</g>
	<g>
		<path class="st0" d="M54.5,48.5H45c-0.276,0-0.5-0.224-0.5-0.5s0.224-0.5,0.5-0.5h9.5c0.276,0,0.5,0.224,0.5,0.5
			S54.776,48.5,54.5,48.5z"/>
	</g>
	<g>
		<path class="st0" d="M38,62.5H28c-0.827,0-1.5-0.673-1.5-1.5v-7c0-0.827,0.673-1.5,1.5-1.5h10c0.827,0,1.5,0.673,1.5,1.5v7
			C39.5,61.827,38.827,62.5,38,62.5z M28,53.5c-0.276,0-0.5,0.225-0.5,0.5v7c0,0.275,0.224,0.5,0.5,0.5h10
			c0.275,0,0.5-0.225,0.5-0.5v-7c0-0.275-0.225-0.5-0.5-0.5H28z"/>
	</g>
	<g>
		<path class="st2" d="M26.5,43l-8.876-9.9c-2.656-2.962-4.124-6.8-4.124-10.779v-0.175C13.5,13.229,20.729,6,29.647,6h7.206
			C45.771,6,53,13.229,53,22.147v0c0,4.083-1.547,8.014-4.329,11.003L39.5,43H26.5z"/>
		<path class="st0" d="M39.5,43.5h-13c-0.142,0-0.277-0.061-0.372-0.166l-8.875-9.899C14.51,30.375,13,26.429,13,22.321v-0.175
			C13,12.968,20.468,5.5,29.647,5.5h7.207c9.179,0,16.646,7.468,16.646,16.646c0,4.224-1.585,8.252-4.463,11.344l-9.171,9.851
			C39.771,43.442,39.639,43.5,39.5,43.5z M26.723,42.5h12.559l9.022-9.691c2.705-2.905,4.195-6.692,4.195-10.662
			C52.5,13.519,45.481,6.5,36.854,6.5h-7.207C21.019,6.5,14,13.519,14,22.146v0.175c0,3.86,1.419,7.57,3.997,10.445L26.723,42.5z"/>
	</g>
	<g>
		<path class="st3" d="M31.5,43l-5.512-9.99c-1.632-2.959-2.488-6.283-2.488-9.662V15.75c0-5.385,4.365-9.75,9.75-9.75h0
			C38.635,6,43,10.365,43,15.75v7.32c0,3.556-0.948,7.047-2.746,10.114L34.5,43H31.5z"/>
		<path class="st0" d="M34.5,43.5h-3c-0.182,0-0.35-0.099-0.438-0.259l-5.512-9.989C23.882,30.228,23,26.803,23,23.349V15.75
			C23,10.098,27.598,5.5,33.25,5.5c5.652,0,10.25,4.598,10.25,10.25v7.32c0,3.641-0.974,7.226-2.814,10.367l-5.754,9.815
			C34.842,43.406,34.678,43.5,34.5,43.5z M31.795,42.5h2.418l5.608-9.568c1.752-2.988,2.678-6.398,2.678-9.861v-7.32
			c0-5.101-4.149-9.25-9.25-9.25S24,10.649,24,15.75v7.599c0,3.286,0.839,6.544,2.426,9.421L31.795,42.5z"/>
	</g>
	<g>
		<path class="st0" d="M50,22.646c-0.276,0-0.5-0.224-0.5-0.5c0-3.624-1.576-7.085-4.324-9.497
			c-0.207-0.183-0.228-0.498-0.046-0.706s0.499-0.228,0.706-0.046C48.8,14.5,50.5,18.235,50.5,22.146
			C50.5,22.423,50.276,22.646,50,22.646z"/>
	</g>
	<g>
		<path class="st0" d="M29,51.5c-0.213,0-0.41-0.137-0.477-0.351l-2.5-8c-0.083-0.264,0.064-0.544,0.328-0.627
			c0.262-0.084,0.543,0.064,0.626,0.328l2.5,8c0.083,0.264-0.064,0.544-0.328,0.627C29.1,51.493,29.049,51.5,29,51.5z"/>
	</g>
	<g>
		<path class="st0" d="M37,51.5c-0.049,0-0.1-0.007-0.149-0.022c-0.264-0.083-0.41-0.363-0.328-0.627l2.5-8
			c0.083-0.263,0.361-0.413,0.627-0.328c0.264,0.083,0.41,0.363,0.328,0.627l-2.5,8C37.41,51.363,37.213,51.5,37,51.5z"/>
	</g>
	<g>
		<path class="st0" d="M39,59.5H27c-0.276,0-0.5-0.224-0.5-0.5s0.224-0.5,0.5-0.5h12c0.276,0,0.5,0.224,0.5,0.5S39.276,59.5,39,59.5
			z"/>
	</g>
	<g>
		<path class="st1" d="M5,5c0-1.657,1.343-3,3-3s3,1.343,3,3c1.657,0,3,1.343,3,3s-1.343,3-3,3H5c-1.657,0-3-1.343-3-3S3.343,5,5,5z
			"/>
	</g>
	<g>
		<path class="st0" d="M58.5,6.5h-4C54.224,6.5,54,6.276,54,6s0.224-0.5,0.5-0.5h4C58.776,5.5,59,5.724,59,6S58.776,6.5,58.5,6.5z"
			/>
	</g>
	<g>
		<path class="st0" d="M56.5,8.5C56.224,8.5,56,8.276,56,8V4c0-0.276,0.224-0.5,0.5-0.5S57,3.724,57,4v4
			C57,8.276,56.776,8.5,56.5,8.5z"/>
	</g>
	<g>
		<path class="st0" d="M62,12h-4c-0.276,0-0.5-0.224-0.5-0.5S57.724,11,58,11h4c0.276,0,0.5,0.224,0.5,0.5S62.276,12,62,12z"/>
	</g>
	<g>
		<path class="st0" d="M60,14c-0.276,0-0.5-0.224-0.5-0.5v-4C59.5,9.224,59.724,9,60,9s0.5,0.224,0.5,0.5v4
			C60.5,13.776,60.276,14,60,14z"/>
	</g>
</g>
</svg>
