<?xml version="1.0" encoding="utf-8"?>
<!-- Generator: Adobe Illustrator 22.0.0, SVG Export Plug-In . SVG Version: 6.00 Build 0)  -->
<svg version="1.1" id="Layer_1" xmlns="http://www.w3.org/2000/svg" xmlns:xlink="http://www.w3.org/1999/xlink" x="0px" y="0px"
	 viewBox="0 0 64 64" style="enable-background:new 0 0 64 64;" xml:space="preserve">
<style type="text/css">
	.st0{fill:#263238;}
	.st1{fill:#4FC3F7;}
	.st2{fill:#FFD740;}
	.st3{fill:#FF5252;}
	.st4{fill:#4DB6AC;}
	.st5{fill:#FFFFFF;}
	.st6{fill:#40C4FF;}
	.st7{fill:#A2A2A1;}
	.st8{fill:#212A41;}
</style>
<g>
	<g>
		<path class="st3" d="M14.852,41.643c1.129-0.465,2.409-0.21,3.27,0.65l4.327,4.328c0.567,0.566,1.321,0.879,2.123,0.879h29.406
			c0.633-0.838,1.022-1.869,1.022-3c0-2.761-2.239-5-5-5H18c-2.522,0-4.587,1.874-4.93,4.301
			C13.27,42.842,13.921,42.028,14.852,41.643z"/>
	</g>
	<g>
		<path class="st0" d="M53.978,48c-0.105,0-0.211-0.033-0.302-0.101c-0.22-0.167-0.264-0.48-0.098-0.701
			C54.182,46.4,54.5,45.468,54.5,44.5c0-2.481-2.019-4.5-4.5-4.5H18c-2.217,0-4.123,1.664-4.435,3.871
			c-0.038,0.273-0.284,0.459-0.565,0.425c-0.273-0.039-0.464-0.292-0.425-0.565C12.956,41.034,15.288,39,18,39h32
			c3.032,0,5.5,2.468,5.5,5.5c0,1.187-0.389,2.328-1.123,3.302C54.278,47.932,54.129,48,53.978,48z"/>
	</g>
	<g>
		<path class="st1" d="M21.036,48.036l-4.328-4.328C16.077,43.077,15,43.524,15,44.414V49.5l-3.293-3.293
			C11.077,45.577,10,46.024,10,46.914V47c0,1.381-1.119,2.5-2.5,2.5H0V50c0,6.904,5.596,12.5,12.5,12.5h39
			C58.404,62.5,64,56.904,64,50v-0.5H24.571C23.245,49.5,21.973,48.973,21.036,48.036z"/>
	</g>
	<g>
		<path class="st0" d="M19,19.5h-2c-0.276,0-0.5-0.224-0.5-0.5s0.224-0.5,0.5-0.5h2c0.276,0,0.5,0.224,0.5,0.5S19.276,19.5,19,19.5z
			"/>
	</g>
	<g>
		<path class="st0" d="M32,19.5H21c-0.276,0-0.5-0.224-0.5-0.5s0.224-0.5,0.5-0.5h11c0.276,0,0.5,0.224,0.5,0.5S32.276,19.5,32,19.5
			z"/>
	</g>
	<g>
		<path class="st0" d="M37,16.5H25c-0.276,0-0.5-0.224-0.5-0.5s0.224-0.5,0.5-0.5h12c0.276,0,0.5,0.224,0.5,0.5S37.276,16.5,37,16.5
			z"/>
	</g>
	<g>
		<path class="st1" d="M7.5,5c0-1.657,1.343-3,3-3s3,1.343,3,3c1.657,0,3,1.343,3,3s-1.343,3-3,3h-6c-1.657,0-3-1.343-3-3
			S5.843,5,7.5,5z"/>
	</g>
	<g>
		<path class="st0" d="M56,4.5h-4c-0.276,0-0.5-0.224-0.5-0.5s0.224-0.5,0.5-0.5h4c0.276,0,0.5,0.224,0.5,0.5S56.276,4.5,56,4.5z"/>
	</g>
	<g>
		<path class="st0" d="M54,6.5c-0.276,0-0.5-0.224-0.5-0.5V2c0-0.276,0.224-0.5,0.5-0.5s0.5,0.224,0.5,0.5v4
			C54.5,6.276,54.276,6.5,54,6.5z"/>
	</g>
	<g>
		<path class="st0" d="M51,9.5h-4c-0.276,0-0.5-0.224-0.5-0.5s0.224-0.5,0.5-0.5h4c0.276,0,0.5,0.224,0.5,0.5S51.276,9.5,51,9.5z"/>
	</g>
	<g>
		<path class="st0" d="M49,11.5c-0.276,0-0.5-0.224-0.5-0.5V7c0-0.276,0.224-0.5,0.5-0.5s0.5,0.224,0.5,0.5v4
			C49.5,11.276,49.276,11.5,49,11.5z"/>
	</g>
	<g>
		<path class="st1" d="M53.5,19c0-1.105,0.895-2,2-2c1.105,0,2,0.895,2,2c1.105,0,2,0.895,2,2c0,1.105-0.895,2-2,2h-4
			c-1.105,0-2-0.895-2-2C51.5,19.895,52.396,19,53.5,19z"/>
	</g>
	<g>
		<path class="st0" d="M49,40H36c-0.276,0-0.5-0.224-0.5-0.5v-9c0-0.276,0.224-0.5,0.5-0.5h5.058c1.996,0,3.839,1.084,4.809,2.829
			l3.571,6.428c0.086,0.155,0.083,0.344-0.007,0.497C49.341,39.906,49.177,40,49,40z M36.5,39h11.65l-3.159-5.685
			C44.198,31.887,42.691,31,41.058,31H36.5V39z"/>
	</g>
	<g>
		<path class="st0" d="M43.901,37c-0.175,0-0.346-0.093-0.438-0.257l-1.095-1.971C42.104,34.296,41.602,34,41.058,34
			c-0.276,0-0.5-0.224-0.5-0.5s0.224-0.5,0.5-0.5c0.906,0,1.744,0.493,2.186,1.286l1.096,1.971c0.134,0.242,0.047,0.546-0.194,0.681
			C44.067,36.979,43.984,37,43.901,37z"/>
	</g>
	<g>
		<path class="st0" d="M24.5,40h-7c-0.276,0-0.5-0.224-0.5-0.5v-9c0-0.276,0.224-0.5,0.5-0.5h3.279c0.646,0,1.219,0.412,1.423,1.025
			l2.772,8.316c0.051,0.152,0.025,0.32-0.069,0.45C24.812,39.923,24.661,40,24.5,40z M18,39h5.807l-2.554-7.658
			C21.186,31.137,20.995,31,20.779,31H18V39z"/>
	</g>
	<g>
		<path class="st0" d="M16.5,35h-2c-0.827,0-1.5-0.673-1.5-1.5v-6c0-0.827,0.673-1.5,1.5-1.5h2c0.827,0,1.5,0.673,1.5,1.5v6
			C18,34.327,17.327,35,16.5,35z M14.5,27c-0.275,0-0.5,0.225-0.5,0.5v6c0,0.275,0.225,0.5,0.5,0.5h2c0.275,0,0.5-0.225,0.5-0.5v-6
			c0-0.275-0.225-0.5-0.5-0.5H14.5z"/>
	</g>
	<g>
		<path class="st0" d="M48.5,48c-0.276,0-0.5-0.224-0.5-0.5v-8c0-0.276,0.224-0.5,0.5-0.5s0.5,0.224,0.5,0.5v8
			C49,47.776,48.776,48,48.5,48z"/>
	</g>
	<g>
		<path class="st0" d="M42.5,48c-0.276,0-0.5-0.224-0.5-0.5v-8c0-0.276,0.224-0.5,0.5-0.5s0.5,0.224,0.5,0.5v8
			C43,47.776,42.776,48,42.5,48z"/>
	</g>
	<g>
		<path class="st0" d="M36.5,48c-0.276,0-0.5-0.224-0.5-0.5v-8c0-0.276,0.224-0.5,0.5-0.5s0.5,0.224,0.5,0.5v8
			C37,47.776,36.776,48,36.5,48z"/>
	</g>
	<g>
		<path class="st0" d="M30.5,48c-0.276,0-0.5-0.224-0.5-0.5v-8c0-0.276,0.224-0.5,0.5-0.5s0.5,0.224,0.5,0.5v8
			C31,47.776,30.776,48,30.5,48z"/>
	</g>
	<g>
		<path class="st0" d="M24.5,48c-0.276,0-0.5-0.224-0.5-0.5v-8c0-0.276,0.224-0.5,0.5-0.5s0.5,0.224,0.5,0.5v8
			C25,47.776,24.776,48,24.5,48z"/>
	</g>
	<g>
		<path class="st0" d="M18.5,43.172c-0.276,0-0.5-0.224-0.5-0.5V39.5c0-0.276,0.224-0.5,0.5-0.5s0.5,0.224,0.5,0.5v3.172
			C19,42.948,18.776,43.172,18.5,43.172z"/>
	</g>
</g>
</svg>
