<?xml version="1.0" encoding="utf-8"?>
<!-- Generator: Adobe Illustrator 22.0.0, SVG Export Plug-In . SVG Version: 6.00 Build 0)  -->
<svg version="1.1" id="Layer_1" xmlns="http://www.w3.org/2000/svg" xmlns:xlink="http://www.w3.org/1999/xlink" x="0px" y="0px"
	 viewBox="0 0 64 64" style="enable-background:new 0 0 64 64;" xml:space="preserve">
<style type="text/css">
	.st0{fill:#263238;}
	.st1{fill:#4FC3F7;}
	.st2{fill:#FFD740;}
	.st3{fill:#FF5252;}
	.st4{fill:#4DB6AC;}
	.st5{fill:#FFFFFF;}
	.st6{fill:#40C4FF;}
	.st7{fill:#A2A2A1;}
	.st8{fill:#212A41;}
</style>
<g>
	<g>
		<path class="st0" d="M18.9,21.5h-2c-0.276,0-0.5-0.224-0.5-0.5s0.224-0.5,0.5-0.5h2c0.276,0,0.5,0.224,0.5,0.5
			S19.177,21.5,18.9,21.5z"/>
	</g>
	<g>
		<path class="st0" d="M31.9,21.5h-11c-0.276,0-0.5-0.224-0.5-0.5s0.224-0.5,0.5-0.5h11c0.276,0,0.5,0.224,0.5,0.5
			S32.177,21.5,31.9,21.5z"/>
	</g>
	<g>
		<path class="st0" d="M36.9,18.5h-12c-0.276,0-0.5-0.224-0.5-0.5s0.224-0.5,0.5-0.5h12c0.276,0,0.5,0.224,0.5,0.5
			S37.177,18.5,36.9,18.5z"/>
	</g>
	<g>
		<path class="st1" d="M7.9,7c0-1.657,1.343-3,3-3s3,1.343,3,3c1.657,0,3,1.343,3,3s-1.343,3-3,3h-6c-1.657,0-3-1.343-3-3
			S6.243,7,7.9,7z"/>
	</g>
	<g>
		<path class="st0" d="M56.4,6.5h-4c-0.276,0-0.5-0.224-0.5-0.5s0.224-0.5,0.5-0.5h4c0.276,0,0.5,0.224,0.5,0.5S56.677,6.5,56.4,6.5
			z"/>
	</g>
	<g>
		<path class="st0" d="M54.4,8.5c-0.276,0-0.5-0.224-0.5-0.5V4c0-0.276,0.224-0.5,0.5-0.5s0.5,0.224,0.5,0.5v4
			C54.9,8.276,54.677,8.5,54.4,8.5z"/>
	</g>
	<g>
		<path class="st0" d="M51.4,11.5h-4c-0.276,0-0.5-0.224-0.5-0.5s0.224-0.5,0.5-0.5h4c0.276,0,0.5,0.224,0.5,0.5
			S51.677,11.5,51.4,11.5z"/>
	</g>
	<g>
		<path class="st0" d="M49.4,13.5c-0.276,0-0.5-0.224-0.5-0.5V9c0-0.276,0.224-0.5,0.5-0.5s0.5,0.224,0.5,0.5v4
			C49.9,13.276,49.677,13.5,49.4,13.5z"/>
	</g>
	<g>
		<path class="st1" d="M53.901,21c0-1.105,0.895-2,2-2s2,0.895,2,2c1.105,0,2,0.895,2,2c0,1.105-0.895,2-2,2h-4
			c-1.105,0-2-0.895-2-2C51.901,21.895,52.796,21,53.901,21z"/>
	</g>
	<g>
		<path class="st1" d="M21.036,45.536l-4.328-4.328C16.077,40.577,15,41.023,15,41.914V47l-3.293-3.293
			C11.077,43.077,10,43.523,10,44.414V44.5c0,1.381-1.119,2.5-2.5,2.5H0v0.5C0,54.404,5.596,60,12.5,60h39
			C58.404,60,64,54.404,64,47.5V47H24.571C23.245,47,21.973,46.473,21.036,45.536z"/>
	</g>
	<g>
		<path class="st2" d="M44.73,34H16.5c-1.657,0-3-1.343-3-3v0h39l-2.625,1.575C48.321,33.507,46.543,34,44.73,34z"/>
		<path class="st0" d="M44.73,34.5H16.5c-1.93,0-3.5-1.57-3.5-3.5c0-0.276,0.224-0.5,0.5-0.5h39c0.225,0,0.422,0.15,0.481,0.366
			c0.061,0.217-0.031,0.447-0.225,0.562l-2.625,1.574C48.501,33.982,46.633,34.5,44.73,34.5z M14.05,31.5c0.232,1.14,1.242,2,2.45,2
			h28.23c1.721,0,3.411-0.469,4.887-1.354l1.077-0.646H14.05z"/>
	</g>
	<g>
		<path class="st0" d="M25,47.5h-3c-0.276,0-0.5-0.224-0.5-0.5V34c0-0.276,0.224-0.5,0.5-0.5h3c0.276,0,0.5,0.224,0.5,0.5v13
			C25.5,47.276,25.276,47.5,25,47.5z M22.5,46.5h2v-12h-2V46.5z"/>
	</g>
	<g>
		<path class="st0" d="M30,50.5H19c-0.276,0-0.5-0.224-0.5-0.5v-3c0-0.276,0.224-0.5,0.5-0.5h8.5c0.148,0,0.289,0.065,0.384,0.18
			l2.5,3c0.124,0.149,0.151,0.356,0.068,0.532C30.371,50.388,30.194,50.5,30,50.5z M19.5,49.5h9.433l-1.667-2H19.5V49.5z"/>
	</g>
</g>
</svg>
