<?xml version="1.0" encoding="utf-8"?>
<!-- Generator: Adobe Illustrator 22.0.0, SVG Export Plug-In . SVG Version: 6.00 Build 0)  -->
<svg version="1.1" id="Layer_1" xmlns="http://www.w3.org/2000/svg" xmlns:xlink="http://www.w3.org/1999/xlink" x="0px" y="0px"
	 viewBox="0 0 64 64" style="enable-background:new 0 0 64 64;" xml:space="preserve">
<style type="text/css">
	.st0{fill:#263238;}
	.st1{fill:#4FC3F7;}
	.st2{fill:#FFD740;}
	.st3{fill:#FF5252;}
	.st4{fill:#4DB6AC;}
	.st5{fill:#FFFFFF;}
	.st6{fill:#40C4FF;}
	.st7{fill:#A2A2A1;}
	.st8{fill:#212A41;}
</style>
<g>
	<g>
		<path class="st0" d="M3.5,60.25h-3c-0.276,0-0.5-0.224-0.5-0.5s0.224-0.5,0.5-0.5h3c0.276,0,0.5,0.224,0.5,0.5
			S3.776,60.25,3.5,60.25z"/>
	</g>
	<g>
		<path class="st0" d="M63.5,60.25h-58c-0.276,0-0.5-0.224-0.5-0.5s0.224-0.5,0.5-0.5h58c0.276,0,0.5,0.224,0.5,0.5
			S63.776,60.25,63.5,60.25z"/>
	</g>
	<g>
		<path class="st0" d="M54,27.375h-4c-0.276,0-0.5-0.224-0.5-0.5s0.224-0.5,0.5-0.5h4c0.276,0,0.5,0.224,0.5,0.5
			S54.276,27.375,54,27.375z"/>
	</g>
	<g>
		<path class="st0" d="M52,29.375c-0.276,0-0.5-0.224-0.5-0.5v-4c0-0.276,0.224-0.5,0.5-0.5s0.5,0.224,0.5,0.5v4
			C52.5,29.151,52.276,29.375,52,29.375z"/>
	</g>
	<g>
		<path class="st0" d="M60.5,30.375h-4c-0.276,0-0.5-0.224-0.5-0.5s0.224-0.5,0.5-0.5h4c0.276,0,0.5,0.224,0.5,0.5
			S60.776,30.375,60.5,30.375z"/>
	</g>
	<g>
		<path class="st0" d="M58.5,32.375c-0.276,0-0.5-0.224-0.5-0.5v-4c0-0.276,0.224-0.5,0.5-0.5s0.5,0.224,0.5,0.5v4
			C59,32.151,58.776,32.375,58.5,32.375z"/>
	</g>
	<g>
		<path class="st0" d="M21,21.25h-2c-0.276,0-0.5-0.224-0.5-0.5s0.224-0.5,0.5-0.5h2c0.276,0,0.5,0.224,0.5,0.5
			S21.276,21.25,21,21.25z"/>
	</g>
	<g>
		<path class="st0" d="M34,21.25H23c-0.276,0-0.5-0.224-0.5-0.5s0.224-0.5,0.5-0.5h11c0.276,0,0.5,0.224,0.5,0.5
			S34.276,21.25,34,21.25z"/>
	</g>
	<g>
		<path class="st0" d="M39,18.25H27c-0.276,0-0.5-0.224-0.5-0.5s0.224-0.5,0.5-0.5h12c0.276,0,0.5,0.224,0.5,0.5
			S39.276,18.25,39,18.25z"/>
	</g>
	<g>
		<path class="st0" d="M24.5,55.25h-24c-0.276,0-0.5-0.224-0.5-0.5s0.224-0.5,0.5-0.5H24v-24H0.5c-0.276,0-0.5-0.224-0.5-0.5
			s0.224-0.5,0.5-0.5h24c0.276,0,0.5,0.224,0.5,0.5v25C25,55.026,24.776,55.25,24.5,55.25z"/>
	</g>
	<g>
		<path class="st0" d="M56,52.25H26.5c-0.276,0-0.5-0.224-0.5-0.5s0.224-0.5,0.5-0.5H56c3.764,0,6.844-2.986,6.994-6.714
			l-8.17-4.698c-7.496-4.31-16.028-6.588-24.675-6.588H26.5c-0.276,0-0.5-0.224-0.5-0.5s0.224-0.5,0.5-0.5h3.649
			c8.821,0,17.526,2.324,25.173,6.721l8.427,4.845C63.904,43.906,64,44.071,64,44.25C64,48.661,60.411,52.25,56,52.25z"/>
	</g>
	<g>
		<path class="st0" d="M63.5,55.25h-39c-0.276,0-0.5-0.224-0.5-0.5s0.224-0.5,0.5-0.5h39c0.276,0,0.5,0.224,0.5,0.5
			S63.776,55.25,63.5,55.25z"/>
	</g>
	<g>
		<path class="st6" d="M48.008,41.75h11.144l-4.079-2.345c-1.03-0.593-2.083-1.139-3.148-1.655H39.5l2.261,1.809
			C43.534,40.977,45.737,41.75,48.008,41.75z"/>
		<path class="st0" d="M59.152,42.25H48.008c-2.375,0-4.704-0.817-6.56-2.301l-2.261-1.809c-0.166-0.133-0.229-0.356-0.159-0.556
			s0.26-0.334,0.472-0.334h12.425c0.075,0,0.15,0.017,0.218,0.05c1.164,0.563,2.205,1.11,3.18,1.671l4.079,2.345
			c0.196,0.113,0.292,0.344,0.234,0.562C59.577,42.098,59.379,42.25,59.152,42.25z M40.926,38.25l1.147,0.918
			c1.679,1.343,3.786,2.082,5.935,2.082h9.271l-2.455-1.412c-0.926-0.533-1.913-1.053-3.015-1.588H40.926z"/>
	</g>
	<g>
		<path class="st0" d="M22.5,33.25h-22c-0.276,0-0.5-0.224-0.5-0.5s0.224-0.5,0.5-0.5h22c0.276,0,0.5,0.224,0.5,0.5
			S22.776,33.25,22.5,33.25z"/>
	</g>
	<g>
		<path class="st0" d="M22.5,52.25h-22c-0.276,0-0.5-0.224-0.5-0.5s0.224-0.5,0.5-0.5h22c0.276,0,0.5,0.224,0.5,0.5
			S22.776,52.25,22.5,52.25z"/>
	</g>
	<g>
		<path class="st0" d="M12.5,55.25c-0.276,0-0.5-0.224-0.5-0.5v-25c0-0.276,0.224-0.5,0.5-0.5s0.5,0.224,0.5,0.5v25
			C13,55.026,12.776,55.25,12.5,55.25z"/>
	</g>
	<g>
		<path class="st1" d="M4.5,7.25c0-1.657,1.343-3,3-3s3,1.343,3,3c1.657,0,3,1.343,3,3s-1.343,3-3,3h-6c-1.657,0-3-1.343-3-3
			S2.843,7.25,4.5,7.25z"/>
	</g>
	<g>
		<path class="st1" d="M50.5,9.75c0-1.105,0.895-2,2-2s2,0.895,2,2c1.105,0,2,0.895,2,2s-0.895,2-2,2h-4c-1.105,0-2-0.895-2-2
			S49.395,9.75,50.5,9.75z"/>
	</g>
</g>
</svg>
