<?xml version="1.0" encoding="utf-8"?>
<!-- Generator: Adobe Illustrator 22.0.0, SVG Export Plug-In . SVG Version: 6.00 Build 0)  -->
<svg version="1.1" id="Layer_1" xmlns="http://www.w3.org/2000/svg" xmlns:xlink="http://www.w3.org/1999/xlink" x="0px" y="0px"
	 viewBox="0 0 64 64" style="enable-background:new 0 0 64 64;" xml:space="preserve">
<style type="text/css">
	.st0{fill:#263238;}
	.st1{fill:#4FC3F7;}
	.st2{fill:#FFD740;}
	.st3{fill:#FF5252;}
	.st4{fill:#4DB6AC;}
	.st5{fill:#FFFFFF;}
	.st6{fill:#40C4FF;}
	.st7{fill:#A2A2A1;}
	.st8{fill:#212A41;}
</style>
<g>
	<g>
		<path class="st0" d="M10.9,23.5h-2c-0.276,0-0.5-0.224-0.5-0.5s0.224-0.5,0.5-0.5h2c0.276,0,0.5,0.224,0.5,0.5
			S11.177,23.5,10.9,23.5z"/>
	</g>
	<g>
		<path class="st0" d="M23.9,23.5h-11c-0.276,0-0.5-0.224-0.5-0.5s0.224-0.5,0.5-0.5h11c0.276,0,0.5,0.224,0.5,0.5
			S24.177,23.5,23.9,23.5z"/>
	</g>
	<g>
		<path class="st0" d="M28.9,20.5h-12c-0.276,0-0.5-0.224-0.5-0.5s0.224-0.5,0.5-0.5h12c0.276,0,0.5,0.224,0.5,0.5
			S29.177,20.5,28.9,20.5z"/>
	</g>
	<g>
		<path class="st1" d="M8.9,7.5c0-1.657,1.343-3,3-3s3,1.343,3,3c1.657,0,3,1.343,3,3s-1.343,3-3,3h-6c-1.657,0-3-1.343-3-3
			S7.243,7.5,8.9,7.5z"/>
	</g>
	<g>
		<path class="st0" d="M56.4,7h-4c-0.276,0-0.5-0.224-0.5-0.5S52.124,6,52.4,6h4c0.276,0,0.5,0.224,0.5,0.5S56.677,7,56.4,7z"/>
	</g>
	<g>
		<path class="st0" d="M54.4,9c-0.276,0-0.5-0.224-0.5-0.5v-4c0-0.276,0.224-0.5,0.5-0.5s0.5,0.224,0.5,0.5v4
			C54.9,8.776,54.677,9,54.4,9z"/>
	</g>
	<g>
		<path class="st0" d="M51.4,12h-4c-0.276,0-0.5-0.224-0.5-0.5s0.224-0.5,0.5-0.5h4c0.276,0,0.5,0.224,0.5,0.5S51.677,12,51.4,12z"
			/>
	</g>
	<g>
		<path class="st0" d="M49.4,14c-0.276,0-0.5-0.224-0.5-0.5v-4c0-0.276,0.224-0.5,0.5-0.5s0.5,0.224,0.5,0.5v4
			C49.9,13.776,49.677,14,49.4,14z"/>
	</g>
	<g>
		<path class="st1" d="M50.401,25c0-1.105,0.895-2,2-2s2,0.895,2,2c1.105,0,2,0.895,2,2c0,1.105-0.895,2-2,2h-4
			c-1.105,0-2-0.895-2-2C48.401,25.895,49.296,25,50.401,25z"/>
	</g>
	<g>
		<path class="st1" d="M21.036,45.536l-4.328-4.328C16.077,40.577,15,41.023,15,41.914V47l-3.293-3.293
			C11.077,43.077,10,43.523,10,44.414V44.5c0,1.381-1.119,2.5-2.5,2.5H0v0.5C0,54.404,5.596,60,12.5,60h39
			C58.404,60,64,54.404,64,47.5V47H24.571C23.245,47,21.973,46.473,21.036,45.536z"/>
	</g>
	<g>
		<path class="st3" d="M14.852,39.143c1.125-0.465,2.409-0.21,3.269,0.65L21.328,43H50l-0.854-1.708
			C46.605,36.21,41.411,33,35.729,33H34.5l-4.809,3.935C29.244,37.3,28.685,37.5,28.108,37.5H15c-0.552,0-1,0.448-1,1v1.185
			C14.248,39.463,14.532,39.275,14.852,39.143z"/>
	</g>
	<g>
		<path class="st0" d="M50,43.5c-0.184,0-0.36-0.102-0.448-0.276l-0.854-1.708c-2.472-4.944-7.441-8.016-12.969-8.016h-1.051
			l-4.671,3.821C29.474,37.759,28.799,38,28.107,38H15c-0.276,0-0.5,0.225-0.5,0.5v1.186c0,0.276-0.224,0.5-0.5,0.5
			s-0.5-0.224-0.5-0.5V38.5c0-0.827,0.673-1.5,1.5-1.5h13.107c0.461,0,0.911-0.16,1.266-0.452l4.811-3.935
			C34.273,32.54,34.385,32.5,34.5,32.5h1.229c5.909,0,11.221,3.283,13.864,8.568l0.854,1.708c0.124,0.247,0.023,0.547-0.224,0.671
			C50.152,43.483,50.076,43.5,50,43.5z"/>
	</g>
	<g>
		<path class="st0" d="M34.5,33.5c-0.156,0-0.31-0.072-0.407-0.209L31.743,30H29c-0.276,0-0.5-0.224-0.5-0.5S28.724,29,29,29h3
			c0.162,0,0.313,0.078,0.407,0.209l2.5,3.5c0.161,0.226,0.108,0.537-0.116,0.698C34.703,33.47,34.601,33.5,34.5,33.5z"/>
	</g>
	<g>
		<path class="st0" d="M28,38H16c-0.276,0-0.5-0.224-0.5-0.5v-2c0-0.827,0.673-1.5,1.5-1.5h10c0.827,0,1.5,0.673,1.5,1.5v2
			C28.5,37.776,28.276,38,28,38z M16.5,37h11v-1.5c0-0.275-0.224-0.5-0.5-0.5H17c-0.276,0-0.5,0.225-0.5,0.5V37z"/>
	</g>
	<g>
		<path class="st0" d="M51.445,45.5c-0.085,0-0.172-0.021-0.251-0.068c-0.238-0.139-0.319-0.444-0.18-0.684
			c0.233-0.4,0.384-0.818,0.449-1.248H21.329c-0.276,0-0.5-0.224-0.5-0.5s0.224-0.5,0.5-0.5H52c0.276,0,0.5,0.224,0.5,0.5
			c0,0.785-0.209,1.543-0.623,2.252C51.784,45.411,51.617,45.5,51.445,45.5z"/>
	</g>
</g>
</svg>
