<?xml version="1.0" encoding="utf-8"?>
<!-- Generator: Adobe Illustrator 22.0.0, SVG Export Plug-In . SVG Version: 6.00 Build 0)  -->
<svg version="1.1" id="Layer_1" xmlns="http://www.w3.org/2000/svg" xmlns:xlink="http://www.w3.org/1999/xlink" x="0px" y="0px"
	 viewBox="0 0 64 64" style="enable-background:new 0 0 64 64;" xml:space="preserve">
<style type="text/css">
	.st0{fill:#263238;}
	.st1{fill:#4FC3F7;}
	.st2{fill:#FFD740;}
	.st3{fill:#FF5252;}
	.st4{fill:#4DB6AC;}
	.st5{fill:#FFFFFF;}
	.st6{fill:#40C4FF;}
	.st7{fill:#A2A2A1;}
	.st8{fill:#212A41;}
</style>
<g>
	<g>
		<path class="st1" d="M56.5,55.001c0-1.105-0.895-2-2-2s-2,0.895-2,2c-1.105,0-2,0.895-2,2s0.895,2,2,2h4c1.105,0,2-0.895,2-2
			S57.605,55.001,56.5,55.001z"/>
	</g>
	<g>
		<path class="st1" d="M8,7.001c0-1.657,1.343-3,3-3s3,1.343,3,3c1.657,0,3,1.343,3,3s-1.343,3-3,3H8c-1.657,0-3-1.343-3-3
			S6.343,7.001,8,7.001z"/>
	</g>
	<g>
		<path class="st0" d="M51,6.501h-4c-0.276,0-0.5-0.224-0.5-0.5s0.224-0.5,0.5-0.5h4c0.276,0,0.5,0.224,0.5,0.5
			S51.276,6.501,51,6.501z"/>
	</g>
	<g>
		<path class="st0" d="M49,8.501c-0.276,0-0.5-0.224-0.5-0.5v-4c0-0.276,0.224-0.5,0.5-0.5s0.5,0.224,0.5,0.5v4
			C49.5,8.277,49.276,8.501,49,8.501z"/>
	</g>
	<g>
		<path class="st0" d="M56.5,12.001h-4c-0.276,0-0.5-0.224-0.5-0.5s0.224-0.5,0.5-0.5h4c0.276,0,0.5,0.224,0.5,0.5
			S56.776,12.001,56.5,12.001z"/>
	</g>
	<g>
		<path class="st0" d="M54.5,14.001c-0.276,0-0.5-0.224-0.5-0.5v-4c0-0.276,0.224-0.5,0.5-0.5s0.5,0.224,0.5,0.5v4
			C55,13.777,54.776,14.001,54.5,14.001z"/>
	</g>
	<g>
		<path class="st2" d="M19,32.223l-3.714,2.063C14.492,34.728,14,35.564,14,36.472v4.029c0,1.381,1.119,2.5,2.5,2.5H19V32.223z"/>
	</g>
	<g>
		<path class="st2" d="M48.714,34.287L45,32.223v10.778h2.5c1.381,0,2.5-1.119,2.5-2.5v-4.029
			C50,35.564,49.508,34.728,48.714,34.287z"/>
	</g>
	<g>
		<path class="st0" d="M19,43.501h-2.5c-1.654,0-3-1.346-3-3v-4.029c0-1.089,0.592-2.094,1.543-2.622l3.714-2.064
			c0.24-0.13,0.545-0.048,0.681,0.194c0.134,0.242,0.047,0.546-0.194,0.681l-3.714,2.063c-0.635,0.353-1.029,1.022-1.029,1.748
			v4.029c0,1.103,0.897,2,2,2H19c0.276,0,0.5,0.224,0.5,0.5S19.276,43.501,19,43.501z"/>
	</g>
	<g>
		<path class="st0" d="M47.5,43.501H45c-0.276,0-0.5-0.224-0.5-0.5s0.224-0.5,0.5-0.5h2.5c1.103,0,2-0.897,2-2v-4.029
			c0-0.726-0.395-1.396-1.029-1.749l-3.714-2.062c-0.241-0.135-0.328-0.438-0.194-0.681c0.135-0.242,0.441-0.325,0.681-0.194
			l3.714,2.063c0.951,0.529,1.543,1.534,1.543,2.623v4.029C50.5,42.155,49.154,43.501,47.5,43.501z"/>
	</g>
	<g>
		<path class="st0" d="M41,50.501h-8c-0.154,0-0.3-0.071-0.395-0.192s-0.128-0.279-0.091-0.429l1-4
			c0.056-0.223,0.256-0.379,0.485-0.379h6c0.229,0,0.43,0.156,0.485,0.379l1,4c0.037,0.149,0.004,0.308-0.091,0.429
			S41.154,50.501,41,50.501z M33.641,49.501h6.719l-0.75-3h-5.219L33.641,49.501z"/>
	</g>
	<g>
		<path class="st0" d="M31,50.501h-8c-0.154,0-0.3-0.071-0.395-0.192s-0.128-0.279-0.091-0.429l1-4
			c0.056-0.223,0.256-0.379,0.485-0.379h6c0.229,0,0.43,0.156,0.485,0.379l1,4c0.037,0.149,0.004,0.308-0.091,0.429
			S31.154,50.501,31,50.501z M23.641,49.501h6.719l-0.75-3h-5.219L23.641,49.501z"/>
	</g>
	<g>
		<polygon class="st3" points="27,60.001 29.75,52.001 27,53.501 24.25,52.001 		"/>
		<path class="st0" d="M27,60.501c-0.214,0-0.403-0.136-0.473-0.338l-2.75-8c-0.067-0.194-0.008-0.411,0.15-0.544
			c0.157-0.133,0.381-0.155,0.562-0.057L27,52.932l2.511-1.369c0.181-0.099,0.404-0.076,0.562,0.057
			c0.158,0.133,0.218,0.35,0.15,0.544l-2.75,8C27.403,60.365,27.214,60.501,27,60.501z M25.142,53.057L27,58.463l1.858-5.406
			l-1.619,0.883c-0.148,0.082-0.33,0.082-0.479,0L25.142,53.057z"/>
	</g>
	<g>
		<polygon class="st3" points="37,60.001 39.75,52.001 37,53.501 34.25,52.001 		"/>
		<path class="st0" d="M37,60.501c-0.214,0-0.403-0.136-0.473-0.338l-2.75-8c-0.067-0.194-0.008-0.411,0.15-0.544
			c0.156-0.133,0.381-0.155,0.562-0.057L37,52.932l2.511-1.369c0.181-0.099,0.404-0.076,0.562,0.057
			c0.158,0.133,0.218,0.35,0.15,0.544l-2.75,8C37.403,60.365,37.214,60.501,37,60.501z M35.142,53.057L37,58.463l1.858-5.406
			l-1.619,0.883c-0.148,0.082-0.33,0.082-0.479,0L35.142,53.057z"/>
	</g>
	<g>
		<rect x="22" y="32.223" class="st2" width="20" height="5"/>
		<path class="st0" d="M42,37.723H22c-0.276,0-0.5-0.224-0.5-0.5v-5c0-0.276,0.224-0.5,0.5-0.5h20c0.276,0,0.5,0.224,0.5,0.5v5
			C42.5,37.499,42.276,37.723,42,37.723z M22.5,36.723h19v-4h-19V36.723z"/>
	</g>
	<g>
		<path class="st0" d="M32,30.723c-0.276,0-0.5-0.224-0.5-0.5V19.001c0-2.481-2.019-4.5-4.5-4.5s-4.5,2.019-4.5,4.5v11.222
			c0,0.276-0.224,0.5-0.5,0.5s-0.5-0.224-0.5-0.5V19.001c0-3.032,2.468-5.5,5.5-5.5s5.5,2.468,5.5,5.5v11.222
			C32.5,30.499,32.276,30.723,32,30.723z"/>
	</g>
	<g>
		<path class="st0" d="M29.917,46.501h-5.834c-1.424,0-2.583-1.159-2.583-2.583v-4.695c0-0.276,0.224-0.5,0.5-0.5s0.5,0.224,0.5,0.5
			v4.695c0,0.873,0.71,1.583,1.583,1.583h5.834c0.873,0,1.583-0.71,1.583-1.583v-4.695c0-0.276,0.224-0.5,0.5-0.5s0.5,0.224,0.5,0.5
			v4.695C32.5,45.342,31.341,46.501,29.917,46.501z"/>
	</g>
	<g>
		<path class="st0" d="M42,30.723c-0.276,0-0.5-0.224-0.5-0.5V19.001c0-2.481-2.019-4.5-4.5-4.5s-4.5,2.019-4.5,4.5v11.222
			c0,0.276-0.224,0.5-0.5,0.5s-0.5-0.224-0.5-0.5V19.001c0-3.032,2.468-5.5,5.5-5.5s5.5,2.468,5.5,5.5v11.222
			C42.5,30.499,42.276,30.723,42,30.723z"/>
	</g>
	<g>
		<path class="st0" d="M39,22.501c-0.276,0-0.5-0.224-0.5-0.5v-3c0-0.827-0.673-1.5-1.5-1.5c-0.276,0-0.5-0.224-0.5-0.5
			s0.224-0.5,0.5-0.5c1.379,0,2.5,1.121,2.5,2.5v3C39.5,22.277,39.276,22.501,39,22.501z"/>
	</g>
	<g>
		<path class="st0" d="M29,22.501c-0.276,0-0.5-0.224-0.5-0.5v-3c0-0.827-0.673-1.5-1.5-1.5c-0.276,0-0.5-0.224-0.5-0.5
			s0.224-0.5,0.5-0.5c1.379,0,2.5,1.121,2.5,2.5v3C29.5,22.277,29.276,22.501,29,22.501z"/>
	</g>
	<g>
		<path class="st0" d="M39.917,46.501h-5.834c-1.424,0-2.583-1.159-2.583-2.583v-4.695c0-0.276,0.224-0.5,0.5-0.5s0.5,0.224,0.5,0.5
			v4.695c0,0.873,0.71,1.583,1.583,1.583h5.834c0.873,0,1.583-0.71,1.583-1.583v-4.695c0-0.276,0.224-0.5,0.5-0.5s0.5,0.224,0.5,0.5
			v4.695C42.5,45.342,41.341,46.501,39.917,46.501z"/>
	</g>
	<g>
		<path class="st0" d="M6,27.501H4c-0.276,0-0.5-0.224-0.5-0.5s0.224-0.5,0.5-0.5h2c0.276,0,0.5,0.224,0.5,0.5
			S6.276,27.501,6,27.501z"/>
	</g>
	<g>
		<path class="st0" d="M17.5,27.501H8c-0.276,0-0.5-0.224-0.5-0.5s0.224-0.5,0.5-0.5h9.5c0.276,0,0.5,0.224,0.5,0.5
			S17.776,27.501,17.5,27.501z"/>
	</g>
	<g>
		<path class="st0" d="M60,27.501h-2c-0.276,0-0.5-0.224-0.5-0.5s0.224-0.5,0.5-0.5h2c0.276,0,0.5,0.224,0.5,0.5
			S60.276,27.501,60,27.501z"/>
	</g>
	<g>
		<path class="st0" d="M56,27.501h-9.5c-0.276,0-0.5-0.224-0.5-0.5s0.224-0.5,0.5-0.5H56c0.276,0,0.5,0.224,0.5,0.5
			S56.276,27.501,56,27.501z"/>
	</g>
</g>
</svg>
