<?xml version="1.0" encoding="utf-8"?>
<!-- Generator: Adobe Illustrator 22.0.0, SVG Export Plug-In . SVG Version: 6.00 Build 0)  -->
<svg version="1.1" id="Layer_1" xmlns="http://www.w3.org/2000/svg" xmlns:xlink="http://www.w3.org/1999/xlink" x="0px" y="0px"
	 viewBox="0 0 64 64" style="enable-background:new 0 0 64 64;" xml:space="preserve">
<style type="text/css">
	.st0{fill:#263238;}
	.st1{fill:#4FC3F7;}
	.st2{fill:#FFD740;}
	.st3{fill:#FF5252;}
	.st4{fill:#4DB6AC;}
	.st5{fill:#FFFFFF;}
	.st6{fill:#40C4FF;}
	.st7{fill:#A2A2A1;}
	.st8{fill:#212A41;}
</style>
<g>
	<g>
		<path class="st2" d="M15.286,26l-3.537-4.127C11.273,21.319,10.58,21,9.85,21H5l1.079,5H15.286z"/>
	</g>
	<g>
		<path class="st1" d="M12.281,50.5c0-1.105-0.895-2-2-2s-2,0.895-2,2c-1.105,0-2,0.895-2,2s0.895,2,2,2h4c1.105,0,2-0.895,2-2
			S13.386,50.5,12.281,50.5z"/>
	</g>
	<g>
		<path class="st0" d="M41.5,50.5h-2c-0.276,0-0.5-0.224-0.5-0.5s0.224-0.5,0.5-0.5h2c0.276,0,0.5,0.224,0.5,0.5
			S41.776,50.5,41.5,50.5z"/>
	</g>
	<g>
		<path class="st0" d="M58,50.5H43.5c-0.276,0-0.5-0.224-0.5-0.5s0.224-0.5,0.5-0.5H58c0.276,0,0.5,0.224,0.5,0.5
			S58.276,50.5,58,50.5z"/>
	</g>
	<g>
		<path class="st0" d="M62,53.5H46.5c-0.276,0-0.5-0.224-0.5-0.5s0.224-0.5,0.5-0.5H62c0.276,0,0.5,0.224,0.5,0.5
			S62.276,53.5,62,53.5z"/>
	</g>
	<g>
		<path class="st1" d="M48.781,12.5c0-1.657,1.343-3,3-3s3,1.343,3,3c1.657,0,3,1.343,3,3s-1.343,3-3,3h-6c-1.657,0-3-1.343-3-3
			S47.124,12.5,48.781,12.5z"/>
	</g>
	<g>
		<path class="st0" d="M17.281,12h-4c-0.276,0-0.5-0.224-0.5-0.5s0.224-0.5,0.5-0.5h4c0.276,0,0.5,0.224,0.5,0.5
			S17.557,12,17.281,12z"/>
	</g>
	<g>
		<path class="st0" d="M15.281,14c-0.276,0-0.5-0.224-0.5-0.5v-4c0-0.276,0.224-0.5,0.5-0.5s0.5,0.224,0.5,0.5v4
			C15.781,13.776,15.557,14,15.281,14z"/>
	</g>
	<g>
		<path class="st0" d="M22.281,17.5h-4c-0.276,0-0.5-0.224-0.5-0.5s0.224-0.5,0.5-0.5h4c0.276,0,0.5,0.224,0.5,0.5
			S22.557,17.5,22.281,17.5z"/>
	</g>
	<g>
		<path class="st0" d="M20.281,19.5c-0.276,0-0.5-0.224-0.5-0.5v-4c0-0.276,0.224-0.5,0.5-0.5s0.5,0.224,0.5,0.5v4
			C20.781,19.276,20.557,19.5,20.281,19.5z"/>
	</g>
	<g>
		<path class="st0" d="M23.5,45.5H17c-0.205,0-0.388-0.124-0.464-0.314c-0.076-0.189-0.028-0.406,0.12-0.548l10.5-10
			C27.248,34.55,27.372,34.5,27.5,34.5h15c0.23,0,0.43,0.157,0.485,0.38c0.055,0.224-0.049,0.455-0.252,0.562l-19,10
			C23.661,45.48,23.581,45.5,23.5,45.5z M18.25,44.5h5.126l17.1-9H27.7L18.25,44.5z"/>
	</g>
	<g>
		<path class="st0" d="M7,40.5H2c-0.21,0-0.398-0.132-0.47-0.33c-0.072-0.197-0.012-0.419,0.15-0.554l6-5
			C7.77,34.541,7.883,34.5,8,34.5h12c0.241,0,0.448,0.172,0.492,0.409c0.044,0.236-0.087,0.471-0.312,0.558l-13,5
			C7.122,40.488,7.062,40.5,7,40.5z M3.381,39.5h3.526l10.4-4H8.181L3.381,39.5z"/>
	</g>
	<g>
		<path class="st0" d="M59.56,38.5H41.094c-0.276,0-0.5-0.224-0.5-0.5s0.224-0.5,0.5-0.5H59.56c0.332,0,0.446-0.26,0.473-0.339
			c0.027-0.08,0.095-0.355-0.168-0.558l-6.625-5.097c-2.521-1.939-5.661-3.007-8.841-3.007H17c-0.146,0-0.285-0.063-0.379-0.175
			l-5.251-6.127C10.988,21.755,10.435,21.5,9.85,21.5H5.619l2.468,11.439c0.058,0.27-0.113,0.536-0.383,0.594
			c-0.268,0.06-0.535-0.112-0.594-0.383L4.511,21.105c-0.032-0.147,0.005-0.302,0.1-0.42C4.706,20.568,4.849,20.5,5,20.5h4.85
			c0.876,0,1.707,0.382,2.278,1.048L17.23,27.5h27.168c3.399,0,6.756,1.142,9.451,3.214l6.625,5.097
			c0.518,0.397,0.716,1.054,0.506,1.672C60.77,38.101,60.213,38.5,59.56,38.5z"/>
	</g>
	<g>
		<path class="st0" d="M21.45,38.5h-3.679c-0.276,0-0.5-0.224-0.5-0.5s0.224-0.5,0.5-0.5h3.679c0.276,0,0.5,0.224,0.5,0.5
			S21.727,38.5,21.45,38.5z"/>
	</g>
	<g>
		<path class="st2" d="M54.7,32l-1.156-0.889C50.922,29.094,47.706,28,44.398,28H42.5v1.5c0,1.381,1.119,2.5,2.5,2.5H54.7z"/>
		<path class="st0" d="M54.7,32.5H45c-1.654,0-3-1.346-3-3V28c0-0.276,0.224-0.5,0.5-0.5h1.898c3.399,0,6.755,1.142,9.45,3.214
			l1.156,0.89c0.17,0.131,0.238,0.354,0.168,0.558C55.104,32.363,54.914,32.5,54.7,32.5z M43,28.5v1c0,1.103,0.897,2,2,2h8.23
			c-2.52-1.935-5.656-3-8.832-3H43z"/>
	</g>
	<g>
		<path class="st0" d="M28.5,45.5h-5c-0.276,0-0.5-0.224-0.5-0.5s0.224-0.5,0.5-0.5h5c0.276,0,0.5,0.224,0.5,0.5
			S28.776,45.5,28.5,45.5z"/>
	</g>
	<g>
		<path class="st0" d="M34.5,42.5h-5c-0.276,0-0.5-0.224-0.5-0.5s0.224-0.5,0.5-0.5h5c0.276,0,0.5,0.224,0.5,0.5
			S34.776,42.5,34.5,42.5z"/>
	</g>
</g>
</svg>
