<?xml version="1.0" encoding="utf-8"?>
<!-- Generator: Adobe Illustrator 22.0.0, SVG Export Plug-In . SVG Version: 6.00 Build 0)  -->
<svg version="1.1" id="Layer_1" xmlns="http://www.w3.org/2000/svg" xmlns:xlink="http://www.w3.org/1999/xlink" x="0px" y="0px"
	 viewBox="0 0 64 64" style="enable-background:new 0 0 64 64;" xml:space="preserve">
<style type="text/css">
	.st0{fill:#263238;}
	.st1{fill:#4FC3F7;}
	.st2{fill:#FFD740;}
	.st3{fill:#FF5252;}
	.st4{fill:#4DB6AC;}
	.st5{fill:#FFFFFF;}
	.st6{fill:#40C4FF;}
	.st7{fill:#A2A2A1;}
	.st8{fill:#212A41;}
</style>
<g>
	<g>
		<path class="st0" d="M12.5,36.5h-2c-0.276,0-0.5-0.224-0.5-0.5s0.224-0.5,0.5-0.5h2c0.276,0,0.5,0.224,0.5,0.5
			S12.776,36.5,12.5,36.5z"/>
	</g>
	<g>
		<path class="st0" d="M25.5,36.5h-11c-0.276,0-0.5-0.224-0.5-0.5s0.224-0.5,0.5-0.5h11c0.276,0,0.5,0.224,0.5,0.5
			S25.776,36.5,25.5,36.5z"/>
	</g>
	<g>
		<path class="st0" d="M30.5,33.5h-12c-0.276,0-0.5-0.224-0.5-0.5s0.224-0.5,0.5-0.5h12c0.276,0,0.5,0.224,0.5,0.5
			S30.776,33.5,30.5,33.5z"/>
	</g>
	<g>
		<path class="st0" d="M3.5,58h-3C0.224,58,0,57.776,0,57.5S0.224,57,0.5,57h3C3.776,57,4,57.224,4,57.5S3.776,58,3.5,58z"/>
	</g>
	<g>
		<path class="st0" d="M63.5,58h-58C5.224,58,5,57.776,5,57.5S5.224,57,5.5,57h58c0.276,0,0.5,0.224,0.5,0.5S63.776,58,63.5,58z"/>
	</g>
	<g>
		<path class="st1" d="M11.5,9.5c0-1.657,1.343-3,3-3s3,1.343,3,3c1.657,0,3,1.343,3,3s-1.343,3-3,3h-6c-1.657,0-3-1.343-3-3
			S9.843,9.5,11.5,9.5z"/>
	</g>
	<g>
		<path class="st0" d="M53,9h-4c-0.276,0-0.5-0.224-0.5-0.5S48.724,8,49,8h4c0.276,0,0.5,0.224,0.5,0.5S53.276,9,53,9z"/>
	</g>
	<g>
		<path class="st0" d="M51,11c-0.276,0-0.5-0.224-0.5-0.5v-4C50.5,6.224,50.724,6,51,6s0.5,0.224,0.5,0.5v4
			C51.5,10.776,51.276,11,51,11z"/>
	</g>
	<g>
		<path class="st0" d="M58,13h-4c-0.276,0-0.5-0.224-0.5-0.5S53.724,12,54,12h4c0.276,0,0.5,0.224,0.5,0.5S58.276,13,58,13z"/>
	</g>
	<g>
		<path class="st0" d="M56,15c-0.276,0-0.5-0.224-0.5-0.5v-4c0-0.276,0.224-0.5,0.5-0.5s0.5,0.224,0.5,0.5v4
			C56.5,14.776,56.276,15,56,15z"/>
	</g>
	<g>
		<path class="st1" d="M56.242,34.5c0-1.105,0.895-2,2-2s2,0.895,2,2c1.105,0,2,0.895,2,2s-0.895,2-2,2h-4c-1.105,0-2-0.895-2-2
			S55.138,34.5,56.242,34.5z"/>
	</g>
	<g>
		<path class="st0" d="M48.5,26.438h-5c-1.103,0-2-0.897-2-2s0.897-2,2-2h5c1.103,0,2,0.897,2,2S49.603,26.438,48.5,26.438z
			 M43.5,23.438c-0.551,0-1,0.449-1,1s0.449,1,1,1h5c0.551,0,1-0.449,1-1s-0.449-1-1-1H43.5z"/>
	</g>
	<g>
		<path class="st0" d="M18,58c-3.584,0-6.5-2.916-6.5-6.5S14.416,45,18,45s6.5,2.916,6.5,6.5S21.584,58,18,58z M18,46
			c-3.033,0-5.5,2.467-5.5,5.5S14.967,57,18,57s5.5-2.467,5.5-5.5S21.033,46,18,46z"/>
	</g>
	<g>
		<circle class="st3" cx="18" cy="51.5" r="3"/>
		<path class="st0" d="M18,55c-1.93,0-3.5-1.57-3.5-3.5S16.07,48,18,48s3.5,1.57,3.5,3.5S19.93,55,18,55z M18,49
			c-1.378,0-2.5,1.122-2.5,2.5S16.622,54,18,54s2.5-1.122,2.5-2.5S19.378,49,18,49z"/>
	</g>
	<g>
		<path class="st0" d="M46,58c-3.584,0-6.5-2.916-6.5-6.5S42.416,45,46,45s6.5,2.916,6.5,6.5S49.584,58,46,58z M46,46
			c-3.033,0-5.5,2.467-5.5,5.5S42.967,57,46,57s5.5-2.467,5.5-5.5S49.033,46,46,46z"/>
	</g>
	<g>
		<circle class="st3" cx="46" cy="51.5" r="3"/>
		<path class="st0" d="M46,55c-1.93,0-3.5-1.57-3.5-3.5S44.07,48,46,48s3.5,1.57,3.5,3.5S47.93,55,46,55z M46,49
			c-1.378,0-2.5,1.122-2.5,2.5S44.622,54,46,54s2.5-1.122,2.5-2.5S47.378,49,46,49z"/>
	</g>
	<g>
		<path class="st0" d="M38.146,53.5H25.854c-0.276,0-0.5-0.224-0.5-0.5s0.224-0.5,0.5-0.5h12.292c0.276,0,0.5,0.224,0.5,0.5
			S38.422,53.5,38.146,53.5z"/>
	</g>
	<g>
		<path class="st0" d="M34.34,50.5h-8.486c-0.276,0-0.5-0.224-0.5-0.5s0.224-0.5,0.5-0.5h8.266L44,38.722V25.938
			c0-0.276,0.224-0.5,0.5-0.5s0.5,0.224,0.5,0.5v12.979c0,0.125-0.047,0.246-0.131,0.338l-10.16,11.083
			C34.614,50.441,34.48,50.5,34.34,50.5z"/>
	</g>
	<g>
		<path class="st0" d="M47.5,44.146c-0.276,0-0.5-0.224-0.5-0.5V25.938c0-0.276,0.224-0.5,0.5-0.5s0.5,0.224,0.5,0.5v17.708
			C48,43.922,47.776,44.146,47.5,44.146z"/>
	</g>
</g>
</svg>
