<?xml version="1.0" encoding="utf-8"?>
<!-- Generator: Adobe Illustrator 22.0.0, SVG Export Plug-In . SVG Version: 6.00 Build 0)  -->
<svg version="1.1" id="Layer_1" xmlns="http://www.w3.org/2000/svg" xmlns:xlink="http://www.w3.org/1999/xlink" x="0px" y="0px"
	 viewBox="0 0 64 64" style="enable-background:new 0 0 64 64;" xml:space="preserve">
<style type="text/css">
	.st0{fill:#263238;}
	.st1{fill:#4FC3F7;}
	.st2{fill:#FFD740;}
	.st3{fill:#FF5252;}
	.st4{fill:#4DB6AC;}
	.st5{fill:#FFFFFF;}
	.st6{fill:#40C4FF;}
	.st7{fill:#A2A2A1;}
	.st8{fill:#212A41;}
</style>
<g>
	<g>
		<path class="st0" d="M6.5,28h-2C4.224,28,4,27.776,4,27.5S4.224,27,4.5,27h2C6.776,27,7,27.224,7,27.5S6.776,28,6.5,28z"/>
	</g>
	<g>
		<path class="st0" d="M19.5,28h-11C8.224,28,8,27.776,8,27.5S8.224,27,8.5,27h11c0.276,0,0.5,0.224,0.5,0.5S19.776,28,19.5,28z"/>
	</g>
	<g>
		<path class="st0" d="M24.5,25h-12c-0.276,0-0.5-0.224-0.5-0.5s0.224-0.5,0.5-0.5h12c0.276,0,0.5,0.224,0.5,0.5S24.776,25,24.5,25z
			"/>
	</g>
	<g>
		<path class="st0" d="M3.5,59h-3C0.224,59,0,58.776,0,58.5S0.224,58,0.5,58h3C3.776,58,4,58.224,4,58.5S3.776,59,3.5,59z"/>
	</g>
	<g>
		<path class="st0" d="M63.5,59h-58C5.224,59,5,58.776,5,58.5S5.224,58,5.5,58h58c0.276,0,0.5,0.224,0.5,0.5S63.776,59,63.5,59z"/>
	</g>
	<g>
		<path class="st1" d="M9.5,8.5c0-1.657,1.343-3,3-3s3,1.343,3,3c1.657,0,3,1.343,3,3s-1.343,3-3,3h-6c-1.657,0-3-1.343-3-3
			S7.843,8.5,9.5,8.5z"/>
	</g>
	<g>
		<path class="st0" d="M57,8.5h-4c-0.276,0-0.5-0.224-0.5-0.5s0.224-0.5,0.5-0.5h4c0.276,0,0.5,0.224,0.5,0.5S57.276,8.5,57,8.5z"/>
	</g>
	<g>
		<path class="st0" d="M55,10.5c-0.276,0-0.5-0.224-0.5-0.5V6c0-0.276,0.224-0.5,0.5-0.5s0.5,0.224,0.5,0.5v4
			C55.5,10.276,55.276,10.5,55,10.5z"/>
	</g>
	<g>
		<path class="st0" d="M52,13.5h-4c-0.276,0-0.5-0.224-0.5-0.5s0.224-0.5,0.5-0.5h4c0.276,0,0.5,0.224,0.5,0.5S52.276,13.5,52,13.5z
			"/>
	</g>
	<g>
		<path class="st0" d="M50,15.5c-0.276,0-0.5-0.224-0.5-0.5v-4c0-0.276,0.224-0.5,0.5-0.5s0.5,0.224,0.5,0.5v4
			C50.5,15.276,50.276,15.5,50,15.5z"/>
	</g>
	<g>
		<path class="st1" d="M51,30.5c0-1.105,0.895-2,2-2s2,0.895,2,2c1.105,0,2,0.895,2,2c0,1.105-0.895,2-2,2h-4c-1.105,0-2-0.895-2-2
			C49,31.395,49.896,30.5,51,30.5z"/>
	</g>
	<g>
		<path class="st0" d="M44.5,59c-3.309,0-6-2.691-6-6s2.691-6,6-6s6,2.691,6,6S47.809,59,44.5,59z M44.5,48c-2.757,0-5,2.243-5,5
			s2.243,5,5,5s5-2.243,5-5S47.257,48,44.5,48z"/>
	</g>
	<g>
		<path class="st0" d="M44.5,55.5c-1.378,0-2.5-1.121-2.5-2.5s1.122-2.5,2.5-2.5S47,51.621,47,53S45.878,55.5,44.5,55.5z M44.5,51.5
			c-0.827,0-1.5,0.673-1.5,1.5s0.673,1.5,1.5,1.5S46,53.827,46,53S45.327,51.5,44.5,51.5z"/>
	</g>
	<g>
		<path class="st0" d="M19.5,59c-3.309,0-6-2.691-6-6s2.691-6,6-6s6,2.691,6,6S22.809,59,19.5,59z M19.5,48c-2.757,0-5,2.243-5,5
			s2.243,5,5,5s5-2.243,5-5S22.257,48,19.5,48z"/>
	</g>
	<g>
		<path class="st0" d="M58,55.5h-6.278c-0.276,0-0.5-0.224-0.5-0.5s0.224-0.5,0.5-0.5h5.45l-0.396-0.754
			C54.26,48.969,49.344,46,43.944,46H11.5c-1.103,0-2,0.897-2,2v4.5c0,1.103,0.897,2,2,2h0.778c0.276,0,0.5,0.224,0.5,0.5
			s-0.224,0.5-0.5,0.5H11.5c-1.654,0-3-1.346-3-3V48c0-1.654,1.346-3,3-3h32.444c5.772,0,11.028,3.173,13.716,8.281l0.782,1.486
			c0.082,0.154,0.076,0.341-0.014,0.491C58.337,55.408,58.175,55.5,58,55.5z"/>
	</g>
	<g>
		<path class="st0" d="M37.278,55.5H26.722c-0.276,0-0.5-0.224-0.5-0.5s0.224-0.5,0.5-0.5h10.556c0.276,0,0.5,0.224,0.5,0.5
			S37.554,55.5,37.278,55.5z"/>
	</g>
	<g>
		<path class="st0" d="M19.5,55.5c-1.378,0-2.5-1.121-2.5-2.5s1.122-2.5,2.5-2.5S22,51.621,22,53S20.878,55.5,19.5,55.5z M19.5,51.5
			c-0.827,0-1.5,0.673-1.5,1.5s0.673,1.5,1.5,1.5S21,53.827,21,53S20.327,51.5,19.5,51.5z"/>
	</g>
	<g>
		<path class="st3" d="M25,38h13.5V11l-0.234,0.245c-6.385,6.705-10.784,15.05-12.705,24.108L25,38z"/>
		<path class="st0" d="M38.5,38.5H25c-0.151,0-0.293-0.068-0.389-0.186c-0.095-0.117-0.132-0.271-0.101-0.418l0.562-2.647
			c1.942-9.153,6.379-17.573,12.832-24.349l0.234-0.245c0.141-0.149,0.357-0.196,0.548-0.119C38.875,10.612,39,10.796,39,11v27
			C39,38.276,38.776,38.5,38.5,38.5z M25.617,37.5H38V12.262c-5.985,6.522-10.11,14.522-11.949,23.194L25.617,37.5z"/>
	</g>
	<g>
		<path class="st0" d="M38.5,44c-0.276,0-0.5-0.224-0.5-0.5V38c0-0.276,0.224-0.5,0.5-0.5S39,37.724,39,38v5.5
			C39,43.776,38.776,44,38.5,44z"/>
	</g>
	<g>
		<path class="st2" d="M26.699,31H38.5v-9h-8.031C28.925,24.864,27.662,27.877,26.699,31z"/>
		<path class="st0" d="M38.5,31.5H26.699c-0.159,0-0.308-0.075-0.402-0.203s-0.122-0.292-0.076-0.444
			c0.969-3.143,2.25-6.201,3.808-9.09c0.087-0.162,0.256-0.263,0.44-0.263H38.5c0.276,0,0.5,0.224,0.5,0.5v9
			C39,31.276,38.776,31.5,38.5,31.5z M27.381,30.5H38v-8h-7.232C29.411,25.055,28.273,27.742,27.381,30.5z"/>
	</g>
	<g>
		<path class="st0" d="M21,44c-0.184,0-0.36-0.102-0.448-0.276l-1.309-2.618C18.903,40.424,18.217,40,17.455,40H17v3.5
			c0,0.276-0.224,0.5-0.5,0.5S16,43.776,16,43.5v-4c0-0.276,0.224-0.5,0.5-0.5h0.955c1.144,0,2.172,0.636,2.683,1.658l1.309,2.618
			c0.124,0.247,0.023,0.547-0.224,0.671C21.152,43.983,21.076,44,21,44z"/>
	</g>
</g>
</svg>
