<?xml version="1.0" encoding="utf-8"?>
<!-- Generator: Adobe Illustrator 22.0.0, SVG Export Plug-In . SVG Version: 6.00 Build 0)  -->
<svg version="1.1" id="Layer_1" xmlns="http://www.w3.org/2000/svg" xmlns:xlink="http://www.w3.org/1999/xlink" x="0px" y="0px"
	 viewBox="0 0 64 64" style="enable-background:new 0 0 64 64;" xml:space="preserve">
<style type="text/css">
	.st0{fill:#263238;}
	.st1{fill:#4FC3F7;}
	.st2{fill:#FFD740;}
	.st3{fill:#FF5252;}
	.st4{fill:#4DB6AC;}
	.st5{fill:#FFFFFF;}
	.st6{fill:#40C4FF;}
	.st7{fill:#A2A2A1;}
	.st8{fill:#212A41;}
</style>
<g>
	<g>
		<path class="st0" d="M2.5,27.75h-2c-0.276,0-0.5-0.224-0.5-0.5s0.224-0.5,0.5-0.5h2c0.276,0,0.5,0.224,0.5,0.5
			S2.776,27.75,2.5,27.75z"/>
	</g>
	<g>
		<path class="st0" d="M15.5,27.75h-11c-0.276,0-0.5-0.224-0.5-0.5s0.224-0.5,0.5-0.5h11c0.276,0,0.5,0.224,0.5,0.5
			S15.776,27.75,15.5,27.75z"/>
	</g>
	<g>
		<path class="st0" d="M20.5,24.75h-12c-0.276,0-0.5-0.224-0.5-0.5s0.224-0.5,0.5-0.5h12c0.276,0,0.5,0.224,0.5,0.5
			S20.776,24.75,20.5,24.75z"/>
	</g>
	<g>
		<path class="st1" d="M11.5,10.75c0-1.657,1.343-3,3-3s3,1.343,3,3c1.657,0,3,1.343,3,3s-1.343,3-3,3h-6c-1.657,0-3-1.343-3-3
			S9.843,10.75,11.5,10.75z"/>
	</g>
	<g>
		<path class="st0" d="M53,10.25h-4c-0.276,0-0.5-0.224-0.5-0.5s0.224-0.5,0.5-0.5h4c0.276,0,0.5,0.224,0.5,0.5
			S53.276,10.25,53,10.25z"/>
	</g>
	<g>
		<path class="st0" d="M51,12.25c-0.276,0-0.5-0.224-0.5-0.5v-4c0-0.276,0.224-0.5,0.5-0.5s0.5,0.224,0.5,0.5v4
			C51.5,12.026,51.276,12.25,51,12.25z"/>
	</g>
	<g>
		<path class="st0" d="M48,14.25h-4c-0.276,0-0.5-0.224-0.5-0.5s0.224-0.5,0.5-0.5h4c0.276,0,0.5,0.224,0.5,0.5
			S48.276,14.25,48,14.25z"/>
	</g>
	<g>
		<path class="st0" d="M46,16.25c-0.276,0-0.5-0.224-0.5-0.5v-4c0-0.276,0.224-0.5,0.5-0.5s0.5,0.224,0.5,0.5v4
			C46.5,16.026,46.276,16.25,46,16.25z"/>
	</g>
	<g>
		<path class="st1" d="M51.242,26.75c0-1.105,0.895-2,2-2s2,0.895,2,2c1.105,0,2,0.895,2,2s-0.895,2-2,2h-4c-1.105,0-2-0.895-2-2
			S50.138,26.75,51.242,26.75z"/>
	</g>
	<g>
		<path class="st0" d="M3.5,56.75h-3c-0.276,0-0.5-0.224-0.5-0.5s0.224-0.5,0.5-0.5h3c0.276,0,0.5,0.224,0.5,0.5
			S3.776,56.75,3.5,56.75z"/>
	</g>
	<g>
		<path class="st0" d="M63.5,56.75h-58c-0.276,0-0.5-0.224-0.5-0.5s0.224-0.5,0.5-0.5h58c0.276,0,0.5,0.224,0.5,0.5
			S63.776,56.75,63.5,56.75z"/>
	</g>
	<g>
		<circle class="st2" cx="32" cy="41.25" r="15"/>
		<path class="st0" d="M32,56.75c-8.547,0-15.5-6.953-15.5-15.5s6.953-15.5,15.5-15.5s15.5,6.953,15.5,15.5S40.547,56.75,32,56.75z
			 M32,26.75c-7.995,0-14.5,6.505-14.5,14.5s6.505,14.5,14.5,14.5s14.5-6.505,14.5-14.5S39.995,26.75,32,26.75z"/>
	</g>
	<g>
		<circle class="st5" cx="32" cy="41.25" r="12"/>
		<path class="st0" d="M32,53.75c-6.893,0-12.5-5.607-12.5-12.5s5.607-12.5,12.5-12.5s12.5,5.607,12.5,12.5S38.893,53.75,32,53.75z
			 M32,29.75c-6.341,0-11.5,5.159-11.5,11.5s5.159,11.5,11.5,11.5s11.5-5.159,11.5-11.5S38.341,29.75,32,29.75z"/>
	</g>
	<g>
		<path class="st0" d="M41,41.75c-0.276,0-0.5-0.224-0.5-0.5c0-4.687-3.813-8.5-8.5-8.5c-0.276,0-0.5-0.224-0.5-0.5
			s0.224-0.5,0.5-0.5c5.238,0,9.5,4.262,9.5,9.5C41.5,41.526,41.276,41.75,41,41.75z"/>
	</g>
	<g>
		<path class="st0" d="M35,48.75h-6c-1.103,0-2-0.897-2-2s0.897-2,2-2h6c1.103,0,2,0.897,2,2S36.103,48.75,35,48.75z M29,45.75
			c-0.551,0-1,0.449-1,1s0.449,1,1,1h6c0.551,0,1-0.449,1-1s-0.449-1-1-1H29z"/>
	</g>
</g>
</svg>
