<?xml version="1.0" encoding="utf-8"?>
<!-- Generator: Adobe Illustrator 22.0.0, SVG Export Plug-In . SVG Version: 6.00 Build 0)  -->
<svg version="1.1" id="Layer_1" xmlns="http://www.w3.org/2000/svg" xmlns:xlink="http://www.w3.org/1999/xlink" x="0px" y="0px"
	 viewBox="0 0 64 64" style="enable-background:new 0 0 64 64;" xml:space="preserve">
<style type="text/css">
	.st0{fill:#263238;}
	.st1{fill:#4FC3F7;}
	.st2{fill:#FFD740;}
	.st3{fill:#FF5252;}
	.st4{fill:#4DB6AC;}
	.st5{fill:#FFFFFF;}
	.st6{fill:#40C4FF;}
	.st7{fill:#A2A2A1;}
	.st8{fill:#212A41;}
</style>
<g>
	<g>
		<path class="st0" d="M2.5,25.5h-2C0.224,25.5,0,25.277,0,25s0.224-0.5,0.5-0.5h2C2.776,24.5,3,24.724,3,25S2.776,25.5,2.5,25.5z"
			/>
	</g>
	<g>
		<path class="st0" d="M15.5,25.5h-11C4.224,25.5,4,25.277,4,25s0.224-0.5,0.5-0.5h11c0.276,0,0.5,0.224,0.5,0.5
			S15.776,25.5,15.5,25.5z"/>
	</g>
	<g>
		<path class="st0" d="M20.5,22.5h-12C8.224,22.5,8,22.277,8,22s0.224-0.5,0.5-0.5h12c0.276,0,0.5,0.224,0.5,0.5
			S20.776,22.5,20.5,22.5z"/>
	</g>
	<g>
		<path class="st0" d="M3.5,56.5h-3C0.224,56.5,0,56.277,0,56s0.224-0.5,0.5-0.5h3C3.776,55.5,4,55.724,4,56S3.776,56.5,3.5,56.5z"
			/>
	</g>
	<g>
		<path class="st0" d="M63.5,56.5h-58C5.224,56.5,5,56.277,5,56s0.224-0.5,0.5-0.5h58c0.276,0,0.5,0.224,0.5,0.5
			S63.776,56.5,63.5,56.5z"/>
	</g>
	<g>
		<path class="st1" d="M51.5,12.5c0-1.657,1.343-3,3-3s3,1.343,3,3c1.657,0,3,1.343,3,3s-1.343,3-3,3h-6c-1.657,0-3-1.343-3-3
			S49.843,12.5,51.5,12.5z"/>
	</g>
	<g>
		<path class="st0" d="M38,10.5h-4c-0.276,0-0.5-0.224-0.5-0.5s0.224-0.5,0.5-0.5h4c0.276,0,0.5,0.224,0.5,0.5S38.276,10.5,38,10.5z
			"/>
	</g>
	<g>
		<path class="st0" d="M36,12.5c-0.276,0-0.5-0.224-0.5-0.5V8c0-0.276,0.224-0.5,0.5-0.5s0.5,0.224,0.5,0.5v4
			C36.5,12.277,36.276,12.5,36,12.5z"/>
	</g>
	<g>
		<path class="st0" d="M33,14.5h-4c-0.276,0-0.5-0.224-0.5-0.5s0.224-0.5,0.5-0.5h4c0.276,0,0.5,0.224,0.5,0.5S33.276,14.5,33,14.5z
			"/>
	</g>
	<g>
		<path class="st0" d="M31,16.5c-0.276,0-0.5-0.224-0.5-0.5v-4c0-0.276,0.224-0.5,0.5-0.5s0.5,0.224,0.5,0.5v4
			C31.5,16.277,31.276,16.5,31,16.5z"/>
	</g>
	<g>
		<path class="st0" d="M27,35H13.5c-0.276,0-0.5-0.224-0.5-0.5v-2c0-0.827,0.673-1.5,1.5-1.5h12.205
			c0.495,0,0.958,0.244,1.237,0.653c0.28,0.409,0.34,0.929,0.16,1.391l-0.637,1.638C27.392,34.874,27.206,35,27,35z M14,34h12.658
			l0.513-1.319c0.061-0.156,0.041-0.325-0.054-0.464C27.022,32.08,26.873,32,26.705,32H14.5c-0.275,0-0.5,0.224-0.5,0.5V34z"/>
	</g>
	<g>
		<path class="st1" d="M11.242,13.5c0-1.105,0.895-2,2-2s2,0.895,2,2c1.105,0,2,0.895,2,2s-0.895,2-2,2h-4c-1.105,0-2-0.895-2-2
			S10.138,13.5,11.242,13.5z"/>
	</g>
	<g>
		<path class="st0" d="M31,50.5c-1.93,0-3.5-1.57-3.5-3.5s1.57-3.5,3.5-3.5s3.5,1.57,3.5,3.5S32.93,50.5,31,50.5z M31,44.5
			c-1.379,0-2.5,1.122-2.5,2.5s1.121,2.5,2.5,2.5s2.5-1.122,2.5-2.5S32.379,44.5,31,44.5z"/>
	</g>
	<g>
		<path class="st4" d="M40.222,34.798l-8.565,9.279c1.051,0.235,1.883,1.024,2.197,2.043l7.803-8.453L40.222,34.798z"/>
		<path class="st0" d="M33.854,46.621c-0.037,0-0.074-0.004-0.11-0.012c-0.175-0.04-0.314-0.169-0.367-0.34
			c-0.265-0.857-0.966-1.509-1.829-1.703c-0.174-0.039-0.314-0.168-0.368-0.339c-0.053-0.17-0.011-0.357,0.11-0.488l8.565-9.279
			c0.111-0.12,0.276-0.18,0.438-0.156c0.162,0.023,0.304,0.125,0.377,0.271l1.435,2.87c0.093,0.186,0.062,0.41-0.08,0.563
			l-7.803,8.453C34.125,46.563,33.991,46.621,33.854,46.621z M32.536,43.862c0.607,0.3,1.118,0.775,1.464,1.362l7.055-7.642
			l-0.957-1.913L32.536,43.862z"/>
	</g>
	<g>
		<path class="st0" d="M48,36h-2c-1.93,0-3.5-1.57-3.5-3.5S44.07,29,46,29h2c0.276,0,0.5,0.224,0.5,0.5v6
			C48.5,35.777,48.276,36,48,36z M46,30c-1.379,0-2.5,1.122-2.5,2.5S44.621,35,46,35h1.5v-5H46z"/>
	</g>
	<g>
		<path class="st0" d="M38.25,28.5h-4.5c-1.103,0-2-0.897-2-2s0.897-2,2-2h4.5c1.103,0,2,0.897,2,2S39.353,28.5,38.25,28.5z
			 M33.75,25.5c-0.552,0-1,0.449-1,1s0.448,1,1,1h4.5c0.552,0,1-0.449,1-1s-0.448-1-1-1H33.75z"/>
	</g>
	<g>
		<path class="st4" d="M39.665,26.976C39.465,27.57,38.911,28,38.25,28h-1.427l9.165,18.329C46.358,47.07,47.259,47.371,48,47h0
			c0.741-0.371,1.041-1.272,0.671-2.013L39.665,26.976z"/>
		<path class="st0" d="M47.331,47.66c-0.213,0-0.427-0.034-0.635-0.104c-0.507-0.169-0.918-0.525-1.156-1.003l-9.165-18.329
			c-0.077-0.155-0.069-0.339,0.021-0.486c0.092-0.147,0.253-0.237,0.426-0.237h1.428c0.426,0,0.804-0.274,0.941-0.683
			c0.063-0.191,0.237-0.326,0.438-0.34c0.2-0.007,0.393,0.094,0.482,0.275l9.006,18.011c0.493,0.987,0.092,2.19-0.895,2.684
			C47.941,47.589,47.638,47.66,47.331,47.66z M37.631,28.5l8.804,17.605c0.119,0.239,0.324,0.417,0.578,0.501
			c0.251,0.083,0.525,0.065,0.764-0.054c0.493-0.247,0.693-0.849,0.447-1.342l-8.621-17.243c-0.36,0.334-0.839,0.532-1.353,0.532
			H37.631z"/>
	</g>
	<g>
		<path class="st0" d="M48,56.5c-5.238,0-9.5-4.262-9.5-9.5c0-2.259,0.812-4.45,2.285-6.168c0.181-0.209,0.497-0.233,0.705-0.054
			c0.21,0.18,0.234,0.496,0.055,0.705C40.227,43.021,39.5,44.979,39.5,47c0,4.687,3.813,8.5,8.5,8.5s8.5-3.813,8.5-8.5
			s-3.813-8.5-8.5-8.5c-0.104,0-0.203,0.011-0.304,0.021l-0.229,0.021c-0.274,0.003-0.513-0.191-0.531-0.467
			c-0.018-0.276,0.191-0.514,0.467-0.531l0.193-0.017C47.729,37.513,47.862,37.5,48,37.5c5.238,0,9.5,4.262,9.5,9.5
			S53.238,56.5,48,56.5z"/>
	</g>
	<g>
		<path class="st0" d="M48,53.5c-3.584,0-6.5-2.916-6.5-6.5c0-1.055,0.253-2.069,0.753-3.016c0.13-0.246,0.435-0.336,0.676-0.209
			c0.244,0.129,0.338,0.432,0.209,0.676C42.715,45.252,42.5,46.11,42.5,47c0,3.033,2.468,5.5,5.5,5.5s5.5-2.467,5.5-5.5
			c0-2.713-1.944-4.994-4.624-5.423c-0.272-0.043-0.458-0.3-0.415-0.573c0.044-0.273,0.304-0.459,0.573-0.415
			C52.201,41.098,54.5,43.794,54.5,47C54.5,50.584,51.584,53.5,48,53.5z"/>
	</g>
	<g>
		<path class="st4" d="M28,47c0-0.549,0.158-1.057,0.416-1.5H17.5c-0.828,0-1.5,0.672-1.5,1.5s0.672,1.5,1.5,1.5h10.916
			C28.158,48.058,28,47.55,28,47z"/>
		<path class="st0" d="M28.416,49H17.5c-1.103,0-2-0.897-2-2s0.897-2,2-2h10.916c0.179,0,0.345,0.096,0.434,0.251
			c0.089,0.155,0.089,0.346-0.002,0.5C28.617,46.149,28.5,46.569,28.5,47s0.117,0.852,0.348,1.249
			c0.091,0.155,0.091,0.346,0.002,0.5C28.761,48.905,28.595,49,28.416,49z M17.5,46c-0.552,0-1,0.449-1,1s0.448,1,1,1h10.151
			c-0.101-0.325-0.151-0.659-0.151-1s0.051-0.675,0.151-1H17.5z"/>
	</g>
	<g>
		<path class="st0" d="M16,56.5c-5.238,0-9.5-4.262-9.5-9.5s4.262-9.5,9.5-9.5c3.816,0,7.245,2.279,8.735,5.806
			c0.107,0.254-0.012,0.547-0.267,0.655c-0.252,0.107-0.547-0.011-0.655-0.266C22.48,40.54,19.414,38.5,16,38.5
			c-4.687,0-8.5,3.813-8.5,8.5s3.813,8.5,8.5,8.5c3.413,0,6.48-2.039,7.813-5.195c0.108-0.254,0.403-0.372,0.655-0.266
			c0.255,0.107,0.374,0.401,0.267,0.655C23.245,54.222,19.816,56.5,16,56.5z"/>
	</g>
	<g>
		<path class="st0" d="M16,53.5c-3.584,0-6.5-2.916-6.5-6.5s2.916-6.5,6.5-6.5c2.066,0,4.03,1.012,5.253,2.708
			c0.162,0.224,0.111,0.537-0.112,0.698c-0.226,0.16-0.537,0.111-0.698-0.113C19.392,42.336,17.772,41.5,16,41.5
			c-3.032,0-5.5,2.467-5.5,5.5s2.468,5.5,5.5,5.5c1.771,0,3.391-0.835,4.442-2.292c0.162-0.225,0.475-0.274,0.698-0.113
			s0.274,0.474,0.112,0.698C20.03,52.488,18.066,53.5,16,53.5z"/>
	</g>
	<g>
		<path class="st4" d="M16.513,38.026c4.225,0.239,7.665,3.386,8.354,7.474h3.55c0,0,0,0,0,0.001
			c0.415-0.713,1.105-1.242,1.934-1.426L27,34.5H12.754c-0.446,0-0.839,0.296-0.962,0.725l-0.429,1.5
			C11.182,37.364,11.661,38,12.326,38H16.5L16.513,38.026z"/>
		<path class="st0" d="M28.416,46.001L28.416,46.001l-3.55,0c-0.244,0-0.452-0.176-0.493-0.417c-0.65-3.868-3.968-6.836-7.889-7.058
			c-0.045-0.002-0.089-0.011-0.131-0.025h-4.027c-0.476,0-0.912-0.218-1.198-0.597c-0.286-0.379-0.375-0.858-0.244-1.315l0.429-1.5
			C11.494,34.448,12.087,34,12.754,34H27c0.213,0,0.401,0.134,0.472,0.335l3.35,9.575c0.048,0.135,0.035,0.283-0.035,0.408
			c-0.069,0.125-0.188,0.214-0.328,0.245c-0.671,0.148-1.257,0.582-1.609,1.188C28.759,45.906,28.594,46.001,28.416,46.001z
			 M25.279,45h2.863c0.393-0.562,0.938-0.996,1.564-1.248L26.646,35H12.754c-0.222,0-0.419,0.149-0.48,0.362l-0.429,1.5
			c-0.043,0.152-0.014,0.312,0.082,0.438c0.095,0.126,0.241,0.199,0.399,0.199H16.5c0.065,0,0.128,0.013,0.187,0.036
			C20.863,37.838,24.401,40.929,25.279,45z"/>
	</g>
	<g>
		<path class="st6" d="M28.165,46.06c-0.026,0.074-0.05,0.148-0.07,0.224C28.114,46.208,28.141,46.134,28.165,46.06z"/>
		<path class="st0" d="M28.096,46.784c-0.04,0-0.08-0.005-0.121-0.015c-0.267-0.066-0.43-0.336-0.365-0.603
			c0.012-0.047,0.025-0.093,0.04-0.139c0.014-0.044,0.028-0.087,0.043-0.13c0.089-0.259,0.372-0.401,0.632-0.311
			c0.261,0.087,0.401,0.369,0.315,0.63c0,0.001-0.016,0.047-0.016,0.048c-0.006,0.017-0.012,0.034-0.017,0.051
			c-0.01,0.031-0.02,0.062-0.027,0.093C28.522,46.634,28.319,46.784,28.096,46.784z"/>
	</g>
	<g>
		<path class="st6" d="M28.051,46.491C28.021,46.657,28,46.825,28,47C28,46.826,28.023,46.657,28.051,46.491z"/>
		<path class="st0" d="M28,47.5c-0.276,0-0.5-0.224-0.5-0.5c0-0.206,0.024-0.404,0.06-0.6c0.05-0.271,0.312-0.453,0.58-0.402
			c0.271,0.049,0.452,0.308,0.404,0.579C28.52,46.716,28.5,46.855,28.5,47C28.5,47.277,28.276,47.5,28,47.5z"/>
	</g>
</g>
</svg>
