<?xml version="1.0" encoding="utf-8"?>
<!-- Generator: Adobe Illustrator 22.0.0, SVG Export Plug-In . SVG Version: 6.00 Build 0)  -->
<svg version="1.1" id="Layer_1" xmlns="http://www.w3.org/2000/svg" xmlns:xlink="http://www.w3.org/1999/xlink" x="0px" y="0px"
	 viewBox="0 0 64 64" style="enable-background:new 0 0 64 64;" xml:space="preserve">
<style type="text/css">
	.st0{fill:#263238;}
	.st1{fill:#4FC3F7;}
	.st2{fill:#FFD740;}
	.st3{fill:#FF5252;}
	.st4{fill:#4DB6AC;}
	.st5{fill:#FFFFFF;}
	.st6{fill:#40C4FF;}
	.st7{fill:#A2A2A1;}
	.st8{fill:#212A41;}
</style>
<g>
	<g>
		<path class="st0" d="M5,28.5H3c-0.276,0-0.5-0.224-0.5-0.5s0.224-0.5,0.5-0.5h2c0.276,0,0.5,0.224,0.5,0.5S5.276,28.5,5,28.5z"/>
	</g>
	<g>
		<path class="st0" d="M18,28.5H7c-0.276,0-0.5-0.224-0.5-0.5s0.224-0.5,0.5-0.5h11c0.276,0,0.5,0.224,0.5,0.5S18.276,28.5,18,28.5z
			"/>
	</g>
	<g>
		<path class="st0" d="M23,25.5H11c-0.276,0-0.5-0.224-0.5-0.5s0.224-0.5,0.5-0.5h12c0.276,0,0.5,0.224,0.5,0.5S23.276,25.5,23,25.5
			z"/>
	</g>
	<g>
		<path class="st0" d="M3.5,56.5h-3C0.224,56.5,0,56.277,0,56s0.224-0.5,0.5-0.5h3C3.776,55.5,4,55.724,4,56S3.776,56.5,3.5,56.5z"
			/>
	</g>
	<g>
		<path class="st0" d="M63.5,56.5h-58C5.224,56.5,5,56.277,5,56s0.224-0.5,0.5-0.5h58c0.276,0,0.5,0.224,0.5,0.5
			S63.776,56.5,63.5,56.5z"/>
	</g>
	<g>
		<path class="st1" d="M51.5,12.5c0-1.657,1.343-3,3-3s3,1.343,3,3c1.657,0,3,1.343,3,3s-1.343,3-3,3h-6c-1.657,0-3-1.343-3-3
			S49.843,12.5,51.5,12.5z"/>
	</g>
	<g>
		<path class="st0" d="M38,10.5h-4c-0.276,0-0.5-0.224-0.5-0.5s0.224-0.5,0.5-0.5h4c0.276,0,0.5,0.224,0.5,0.5S38.276,10.5,38,10.5z
			"/>
	</g>
	<g>
		<path class="st0" d="M36,12.5c-0.276,0-0.5-0.224-0.5-0.5V8c0-0.276,0.224-0.5,0.5-0.5s0.5,0.224,0.5,0.5v4
			C36.5,12.277,36.276,12.5,36,12.5z"/>
	</g>
	<g>
		<path class="st0" d="M33,14.5h-4c-0.276,0-0.5-0.224-0.5-0.5s0.224-0.5,0.5-0.5h4c0.276,0,0.5,0.224,0.5,0.5S33.276,14.5,33,14.5z
			"/>
	</g>
	<g>
		<path class="st0" d="M31,16.5c-0.276,0-0.5-0.224-0.5-0.5v-4c0-0.276,0.224-0.5,0.5-0.5s0.5,0.224,0.5,0.5v4
			C31.5,16.277,31.276,16.5,31,16.5z"/>
	</g>
	<g>
		<path class="st1" d="M6.242,13.5c0-1.105,0.895-2,2-2s2,0.895,2,2c1.105,0,2,0.895,2,2s-0.895,2-2,2h-4c-1.105,0-2-0.895-2-2
			S5.138,13.5,6.242,13.5z"/>
	</g>
	<g>
		<path class="st3" d="M42.5,31h-7.121c-1.211,0-2.381,0.44-3.293,1.237L29.5,34.5h-7l-5-1.5h-6c-0.552,0-1,0.448-1,1v1
			c0,0.552,0.448,1,1,1h6.413c1.033,0,2.04,0.32,2.883,0.915l6.555,4.627C27.774,41.84,28.277,42,28.793,42h6.398
			c0.526,0,1.038-0.166,1.464-0.473l7.308-5.278C44.615,35.779,45,35.025,45,34.222V33.5C45,32.12,43.881,31,42.5,31z"/>
		<path class="st0" d="M35.191,42.5h-6.398c-0.623,0-1.221-0.19-1.73-0.549l-6.556-4.627c-0.763-0.539-1.66-0.824-2.595-0.824H11.5
			c-0.827,0-1.5-0.673-1.5-1.5v-1c0-0.827,0.673-1.5,1.5-1.5h6c0.049,0,0.097,0.007,0.144,0.021L22.573,34h6.739l2.445-2.14
			c1.003-0.877,2.289-1.36,3.622-1.36H42.5c1.654,0,3,1.346,3,3v0.722c0,0.96-0.465,1.87-1.243,2.432l-7.309,5.278
			C36.435,42.304,35.827,42.5,35.191,42.5z M11.5,33.5c-0.276,0-0.5,0.224-0.5,0.5v1c0,0.276,0.224,0.5,0.5,0.5h6.413
			c1.143,0,2.24,0.348,3.172,1.007l6.555,4.627c0.339,0.24,0.738,0.366,1.153,0.366h6.398c0.424,0,0.828-0.131,1.171-0.379
			l7.309-5.278c0.52-0.375,0.829-0.981,0.829-1.621V33.5c0-1.103-0.897-2-2-2h-7.121c-1.091,0-2.144,0.396-2.964,1.113l-2.586,2.263
			C29.738,34.957,29.621,35,29.5,35h-7c-0.049,0-0.097-0.007-0.144-0.021l-4.93-1.479H11.5z"/>
	</g>
	<g>
		<path class="st0" d="M29.5,35h-7c-0.049,0-0.097-0.007-0.144-0.021l-4.5-1.35c-0.211-0.063-0.356-0.258-0.356-0.479V32
			c0-0.827,0.673-1.5,1.5-1.5h10c0.827,0,1.5,0.673,1.5,1.5v2.15c0,0.163-0.08,0.316-0.213,0.41l-0.5,0.35
			C29.703,34.969,29.603,35,29.5,35z M22.573,34h6.769l0.158-0.11V32c0-0.276-0.224-0.5-0.5-0.5H19c-0.276,0-0.5,0.224-0.5,0.5
			v0.778L22.573,34z"/>
	</g>
	<g>
		<path class="st0" d="M50,36h-2c-1.93,0-3.5-1.57-3.5-3.5S46.07,29,48,29h2c0.276,0,0.5,0.224,0.5,0.5v6
			C50.5,35.777,50.276,36,50,36z M48,30c-1.379,0-2.5,1.122-2.5,2.5S46.621,35,48,35h1.5v-5H48z"/>
	</g>
	<g>
		<path class="st0" d="M35,50.5h-2.5c-0.276,0-0.5-0.224-0.5-0.5s0.224-0.5,0.5-0.5H35c0.275,0,0.5-0.224,0.5-0.5v-5
			c0-0.276,0.224-0.5,0.5-0.5s0.5,0.224,0.5,0.5v5C36.5,49.828,35.827,50.5,35,50.5z"/>
	</g>
	<g>
		<path class="st0" d="M30,49.5c-1.654,0-3-1.346-3-3s1.346-3,3-3s3,1.346,3,3S31.654,49.5,30,49.5z M30,44.5c-1.103,0-2,0.897-2,2
			s0.897,2,2,2s2-0.897,2-2S31.103,44.5,30,44.5z"/>
	</g>
	<g>
		<path class="st0" d="M36,47.5h-2c-0.276,0-0.5-0.224-0.5-0.5s0.224-0.5,0.5-0.5h2c0.276,0,0.5,0.224,0.5,0.5S36.276,47.5,36,47.5z
			"/>
	</g>
	<g>
		<path class="st0" d="M28.011,48.5H16.5c-1.103,0-2-0.897-2-2s0.897-2,2-2h11.511c0.19,0,0.363,0.107,0.448,0.277
			s0.065,0.373-0.049,0.524C28.142,45.657,28,46.071,28,46.5c0,0.429,0.142,0.843,0.41,1.199c0.114,0.151,0.133,0.354,0.049,0.524
			C28.375,48.393,28.201,48.5,28.011,48.5z M16.5,45.5c-0.551,0-1,0.449-1,1s0.449,1,1,1h10.675C27.06,47.181,27,46.844,27,46.5
			s0.06-0.681,0.175-1H16.5z"/>
	</g>
	<g>
		<path class="st0" d="M16,56.5c-5.238,0-9.5-4.262-9.5-9.5s4.262-9.5,9.5-9.5c3.624,0,6.881,2.022,8.499,5.277
			c0.123,0.248,0.022,0.547-0.225,0.67c-0.249,0.124-0.548,0.022-0.67-0.225C22.155,40.31,19.242,38.5,16,38.5
			c-4.687,0-8.5,3.813-8.5,8.5s3.813,8.5,8.5,8.5c3.587,0,6.803-2.277,8.003-5.667c0.092-0.26,0.376-0.396,0.638-0.304
			c0.26,0.092,0.396,0.378,0.304,0.638C23.605,53.956,20.01,56.5,16,56.5z"/>
	</g>
	<g>
		<path class="st0" d="M16,53.5c-3.584,0-6.5-2.916-6.5-6.5s2.916-6.5,6.5-6.5c1.824,0,3.579,0.79,4.815,2.166
			c0.185,0.206,0.167,0.521-0.038,0.706c-0.206,0.184-0.521,0.167-0.706-0.038C19.009,42.152,17.563,41.5,16,41.5
			c-3.033,0-5.5,2.467-5.5,5.5s2.467,5.5,5.5,5.5c1.952,0,3.774-1.054,4.755-2.75c0.137-0.239,0.442-0.322,0.683-0.182
			c0.239,0.138,0.321,0.444,0.182,0.683C20.462,52.255,18.308,53.5,16,53.5z"/>
	</g>
	<g>
		<path class="st0" d="M48,49.001c-0.816,0-1.543-0.488-1.852-1.244L41.97,37.544c-0.087-0.214-0.017-0.459,0.17-0.595l1.531-1.106
			c0.286-0.206,0.507-0.492,0.657-0.849c0.078-0.186,0.268-0.292,0.464-0.305c0.202,0.001,0.384,0.124,0.46,0.311l4.6,11.243v0
			c0.417,1.021-0.074,2.19-1.094,2.608C48.514,48.951,48.259,49.001,48,49.001z M43.044,37.529l4.03,9.849
			c0.203,0.498,0.795,0.755,1.306,0.547c0.509-0.208,0.754-0.793,0.546-1.304l-4.236-10.355c-0.132,0.145-0.276,0.274-0.433,0.387
			L43.044,37.529z"/>
	</g>
	<g>
		<path class="st0" d="M48,53.5c-3.584,0-6.5-2.916-6.5-6.5c0-1.211,0.345-2.401,0.996-3.439c0.149-0.235,0.459-0.303,0.689-0.158
			c0.234,0.146,0.305,0.455,0.158,0.689C42.792,44.972,42.5,45.977,42.5,47c0,3.033,2.468,5.5,5.5,5.5s5.5-2.467,5.5-5.5
			c0-2.553-1.735-4.75-4.22-5.344c-0.269-0.064-0.435-0.334-0.37-0.603s0.331-0.437,0.603-0.37C52.449,41.386,54.5,43.983,54.5,47
			C54.5,50.584,51.584,53.5,48,53.5z"/>
	</g>
	<g>
		<path class="st0" d="M48,56.5c-5.238,0-9.5-4.262-9.5-9.5c0-2.516,0.985-4.89,2.773-6.686c0.195-0.196,0.512-0.196,0.707-0.001
			c0.196,0.195,0.196,0.511,0.002,0.707C40.382,42.627,39.5,44.751,39.5,47c0,4.687,3.813,8.5,8.5,8.5s8.5-3.813,8.5-8.5
			c0-4.632-3.771-8.443-8.404-8.495c-0.275-0.003-0.497-0.229-0.494-0.505c0.003-0.274,0.227-0.495,0.5-0.495
			c0.002,0,0.004,0,0.006,0C53.286,37.563,57.5,41.823,57.5,47C57.5,52.239,53.238,56.5,48,56.5z"/>
	</g>
	<g>
		<path class="st0" d="M40.5,27H36c-1.103,0-2-0.897-2-2s0.897-2,2-2h4.5c1.103,0,2,0.897,2,2S41.603,27,40.5,27z M36,24
			c-0.552,0-1,0.449-1,1s0.448,1,1,1h4.5c0.552,0,1-0.449,1-1s-0.448-1-1-1H36z"/>
	</g>
	<g>
		<path class="st0" d="M43.109,31.584c-0.041,0-0.081-0.005-0.122-0.015C42.802,31.522,42.646,31.5,42.5,31.5h-2.666
			c-0.203,0-0.386-0.123-0.463-0.311l-1.842-4.5c-0.062-0.154-0.045-0.33,0.048-0.468C37.67,26.083,37.825,26,37.992,26H40.5
			c0.147,0,0.297-0.037,0.444-0.111c0.125-0.062,0.269-0.069,0.399-0.021c0.131,0.049,0.234,0.15,0.287,0.279l1.941,4.747
			c0.071,0.175,0.038,0.375-0.085,0.517C43.391,31.522,43.252,31.584,43.109,31.584z M40.17,30.5h2.16l-1.447-3.539
			C40.757,26.987,40.629,27,40.5,27h-1.763L40.17,30.5z"/>
	</g>
	<g>
		<path class="st0" d="M39.433,34.5h-2.5c-0.276,0-0.5-0.224-0.5-0.5s0.224-0.5,0.5-0.5h2.5c0.276,0,0.5,0.224,0.5,0.5
			S39.709,34.5,39.433,34.5z"/>
	</g>
</g>
</svg>
