<?xml version="1.0" encoding="utf-8"?>
<!-- Generator: Adobe Illustrator 22.0.0, SVG Export Plug-In . SVG Version: 6.00 Build 0)  -->
<svg version="1.1" id="Layer_1" xmlns="http://www.w3.org/2000/svg" xmlns:xlink="http://www.w3.org/1999/xlink" x="0px" y="0px"
	 viewBox="0 0 64 64" style="enable-background:new 0 0 64 64;" xml:space="preserve">
<style type="text/css">
	.st0{fill:#263238;}
	.st1{fill:#4FC3F7;}
	.st2{fill:#FFD740;}
	.st3{fill:#FF5252;}
	.st4{fill:#4DB6AC;}
	.st5{fill:#FFFFFF;}
	.st6{fill:#40C4FF;}
	.st7{fill:#A2A2A1;}
	.st8{fill:#212A41;}
</style>
<g>
	<g>
		<path class="st0" d="M11.4,17.75h-2c-0.276,0-0.5-0.224-0.5-0.5s0.224-0.5,0.5-0.5h2c0.276,0,0.5,0.224,0.5,0.5
			S11.677,17.75,11.4,17.75z"/>
	</g>
	<g>
		<path class="st0" d="M24.4,17.75h-11c-0.276,0-0.5-0.224-0.5-0.5s0.224-0.5,0.5-0.5h11c0.276,0,0.5,0.224,0.5,0.5
			S24.677,17.75,24.4,17.75z"/>
	</g>
	<g>
		<path class="st0" d="M29.4,14.75h-12c-0.276,0-0.5-0.224-0.5-0.5s0.224-0.5,0.5-0.5h12c0.276,0,0.5,0.224,0.5,0.5
			S29.677,14.75,29.4,14.75z"/>
	</g>
	<g>
		<path class="st1" d="M51.4,21.75c0-1.657,1.343-3,3-3s3,1.343,3,3c1.657,0,3,1.343,3,3s-1.343,3-3,3h-6c-1.657,0-3-1.343-3-3
			S49.743,21.75,51.4,21.75z"/>
	</g>
	<g>
		<path class="st0" d="M56.4,4.25h-4c-0.276,0-0.5-0.224-0.5-0.5s0.224-0.5,0.5-0.5h4c0.276,0,0.5,0.224,0.5,0.5
			S56.677,4.25,56.4,4.25z"/>
	</g>
	<g>
		<path class="st0" d="M54.4,6.25c-0.276,0-0.5-0.224-0.5-0.5v-4c0-0.276,0.224-0.5,0.5-0.5s0.5,0.224,0.5,0.5v4
			C54.9,6.026,54.677,6.25,54.4,6.25z"/>
	</g>
	<g>
		<path class="st0" d="M51.4,9.25h-4c-0.276,0-0.5-0.224-0.5-0.5s0.224-0.5,0.5-0.5h4c0.276,0,0.5,0.224,0.5,0.5
			S51.677,9.25,51.4,9.25z"/>
	</g>
	<g>
		<path class="st0" d="M49.4,11.25c-0.276,0-0.5-0.224-0.5-0.5v-4c0-0.276,0.224-0.5,0.5-0.5s0.5,0.224,0.5,0.5v4
			C49.9,11.026,49.677,11.25,49.4,11.25z"/>
	</g>
	<g>
		<path class="st1" d="M5.401,3.75c0-1.105,0.895-2,2-2s2,0.895,2,2c1.105,0,2,0.895,2,2s-0.895,2-2,2h-4c-1.105,0-2-0.895-2-2
			S4.296,3.75,5.401,3.75z"/>
	</g>
	<g>
		<path class="st1" d="M21.036,47.786l-4.328-4.328C16.077,42.827,15,43.273,15,44.164v5.086l-3.293-3.293
			C11.077,45.327,10,45.773,10,46.664v0.086c0,1.381-1.119,2.5-2.5,2.5H0v0.5c0,6.904,5.596,12.5,12.5,12.5h39
			c6.904,0,12.5-5.596,12.5-12.5v-0.5H24.571C23.245,49.25,21.973,48.723,21.036,47.786z"/>
	</g>
	<g>
		<path class="st2" d="M22.451,46.372c0.566,0.566,1.319,0.878,2.121,0.878h25.255c0.818-0.611,1.557-1.336,2.165-2.188L54,42.25
			H18.328L22.451,46.372z"/>
	</g>
	<g>
		<path class="st0" d="M49.826,47.75c-0.152,0-0.303-0.069-0.4-0.201c-0.165-0.221-0.12-0.534,0.102-0.699
			c0.814-0.609,1.507-1.308,2.057-2.078l1.444-2.021h-32.7c-0.276,0-0.5-0.224-0.5-0.5s0.224-0.5,0.5-0.5H54
			c0.187,0,0.358,0.104,0.444,0.271c0.086,0.166,0.071,0.367-0.037,0.52l-2.009,2.812c-0.61,0.854-1.375,1.627-2.273,2.297
			C50.035,47.718,49.931,47.75,49.826,47.75z"/>
	</g>
	<g>
		<path class="st0" d="M54,42.75H15.5c-0.827,0-1.5-0.673-1.5-1.5v-1c0-0.827,0.673-1.5,1.5-1.5H54c0.827,0,1.5,0.673,1.5,1.5v1
			C55.5,42.077,54.827,42.75,54,42.75z M15.5,39.75c-0.276,0-0.5,0.225-0.5,0.5v1c0,0.275,0.224,0.5,0.5,0.5H54
			c0.275,0,0.5-0.225,0.5-0.5v-1c0-0.275-0.225-0.5-0.5-0.5H15.5z"/>
	</g>
	<g>
		<path class="st0" d="M48.304,37.75c-0.223,0-0.426-0.149-0.484-0.375c-0.626-2.429-2.813-4.125-5.319-4.125
			s-4.693,1.696-5.319,4.125c-0.069,0.267-0.339,0.429-0.609,0.359c-0.268-0.069-0.428-0.342-0.359-0.609
			c0.74-2.87,3.326-4.875,6.288-4.875s5.548,2.005,6.288,4.875c0.068,0.268-0.092,0.54-0.359,0.609
			C48.387,37.745,48.345,37.75,48.304,37.75z"/>
	</g>
	<g>
		<path class="st0" d="M25.137,37.75c-0.172,0-0.339-0.089-0.432-0.247l-1.912-3.264c-0.357-0.61-1.019-0.989-1.726-0.989H20v4
			c0,0.276-0.224,0.5-0.5,0.5s-0.5-0.224-0.5-0.5v-4.5c0-0.276,0.224-0.5,0.5-0.5h1.567c1.061,0,2.052,0.568,2.588,1.483
			l1.913,3.264c0.139,0.238,0.06,0.545-0.179,0.685C25.31,37.728,25.223,37.75,25.137,37.75z"/>
	</g>
	<g>
		<path class="st2" d="M37.5,27.75h-18c-0.552,0-1-0.448-1-1v-1c0-0.552,0.448-1,1-1h18c0.552,0,1,0.448,1,1v1
			C38.5,27.302,38.052,27.75,37.5,27.75z"/>
		<path class="st0" d="M37.5,28.25h-18c-0.827,0-1.5-0.673-1.5-1.5v-1c0-0.827,0.673-1.5,1.5-1.5h18c0.827,0,1.5,0.673,1.5,1.5v1
			C39,27.577,38.327,28.25,37.5,28.25z M19.5,25.25c-0.276,0-0.5,0.225-0.5,0.5v1c0,0.275,0.224,0.5,0.5,0.5h18
			c0.275,0,0.5-0.225,0.5-0.5v-1c0-0.275-0.225-0.5-0.5-0.5H19.5z"/>
	</g>
	<g>
		<path class="st0" d="M34.919,39.75h-5c-0.199,0-0.379-0.118-0.458-0.301l-5-11.5c-0.067-0.154-0.052-0.332,0.041-0.474
			c0.092-0.141,0.25-0.226,0.418-0.226h3c0.174,0,0.336,0.091,0.427,0.24l7,11.5c0.095,0.154,0.098,0.348,0.009,0.505
			C35.267,39.652,35.1,39.75,34.919,39.75z M30.246,38.75h3.783l-6.392-10.5h-1.957L30.246,38.75z"/>
	</g>
</g>
</svg>
