<?xml version="1.0" encoding="utf-8"?>
<!-- Generator: Adobe Illustrator 22.0.0, SVG Export Plug-In . SVG Version: 6.00 Build 0)  -->
<svg version="1.1" id="Layer_1" xmlns="http://www.w3.org/2000/svg" xmlns:xlink="http://www.w3.org/1999/xlink" x="0px" y="0px"
	 viewBox="0 0 64 64" style="enable-background:new 0 0 64 64;" xml:space="preserve">
<style type="text/css">
	.st0{fill:#263238;}
	.st1{fill:#4FC3F7;}
	.st2{fill:#FFD740;}
	.st3{fill:#FF5252;}
	.st4{fill:#4DB6AC;}
	.st5{fill:#FFFFFF;}
	.st6{fill:#40C4FF;}
	.st7{fill:#A2A2A1;}
	.st8{fill:#212A41;}
</style>
<g>
	<g>
		<path class="st0" d="M9,42.146H7c-0.276,0-0.5-0.224-0.5-0.5s0.224-0.5,0.5-0.5h2c0.276,0,0.5,0.224,0.5,0.5
			S9.276,42.146,9,42.146z"/>
	</g>
	<g>
		<path class="st0" d="M22,42.146H11c-0.276,0-0.5-0.224-0.5-0.5s0.224-0.5,0.5-0.5h11c0.276,0,0.5,0.224,0.5,0.5
			S22.276,42.146,22,42.146z"/>
	</g>
	<g>
		<path class="st0" d="M57,42.146h-2c-0.276,0-0.5-0.224-0.5-0.5s0.224-0.5,0.5-0.5h2c0.276,0,0.5,0.224,0.5,0.5
			S57.276,42.146,57,42.146z"/>
	</g>
	<g>
		<path class="st0" d="M53,42.146H42c-0.276,0-0.5-0.224-0.5-0.5s0.224-0.5,0.5-0.5h11c0.276,0,0.5,0.224,0.5,0.5
			S53.276,42.146,53,42.146z"/>
	</g>
	<g>
		<path class="st0" d="M3.5,60.5h-3C0.224,60.5,0,60.276,0,60s0.224-0.5,0.5-0.5h3C3.776,59.5,4,59.724,4,60S3.776,60.5,3.5,60.5z"
			/>
	</g>
	<g>
		<path class="st0" d="M63.5,60.5h-58C5.224,60.5,5,60.276,5,60s0.224-0.5,0.5-0.5h58c0.276,0,0.5,0.224,0.5,0.5
			S63.776,60.5,63.5,60.5z"/>
	</g>
	<g>
		<path class="st1" d="M6,7c0-1.657,1.343-3,3-3s3,1.343,3,3c1.657,0,3,1.343,3,3s-1.343,3-3,3H6c-1.657,0-3-1.343-3-3S4.343,7,6,7z
			"/>
	</g>
	<g>
		<path class="st0" d="M57.5,6.5h-4C53.224,6.5,53,6.276,53,6s0.224-0.5,0.5-0.5h4C57.776,5.5,58,5.724,58,6S57.776,6.5,57.5,6.5z"
			/>
	</g>
	<g>
		<path class="st0" d="M55.5,8.5C55.224,8.5,55,8.276,55,8V4c0-0.276,0.224-0.5,0.5-0.5S56,3.724,56,4v4
			C56,8.276,55.776,8.5,55.5,8.5z"/>
	</g>
	<g>
		<path class="st0" d="M52.5,10.5h-4c-0.276,0-0.5-0.224-0.5-0.5s0.224-0.5,0.5-0.5h4c0.276,0,0.5,0.224,0.5,0.5
			S52.776,10.5,52.5,10.5z"/>
	</g>
	<g>
		<path class="st0" d="M50.5,12.5c-0.276,0-0.5-0.224-0.5-0.5V8c0-0.276,0.224-0.5,0.5-0.5S51,7.724,51,8v4
			C51,12.276,50.776,12.5,50.5,12.5z"/>
	</g>
	<g>
		<path class="st1" d="M53.242,26.5c0-1.105,0.895-2,2-2s2,0.895,2,2c1.105,0,2,0.895,2,2s-0.895,2-2,2h-4c-1.105,0-2-0.895-2-2
			S52.138,26.5,53.242,26.5z"/>
	</g>
	<g>
		<path class="st0" d="M33.5,46.354c-0.276,0-0.5-0.224-0.5-0.5v-2.208c0-0.276,0.224-0.5,0.5-0.5s0.5,0.224,0.5,0.5v2.208
			C34,46.131,33.776,46.354,33.5,46.354z"/>
	</g>
	<g>
		<path class="st0" d="M30.5,46.354c-0.276,0-0.5-0.224-0.5-0.5v-2.208c0-0.276,0.224-0.5,0.5-0.5s0.5,0.224,0.5,0.5v2.208
			C31,46.131,30.776,46.354,30.5,46.354z"/>
	</g>
	<g>
		<path class="st0" d="M33.5,57.5c-0.276,0-0.5-0.224-0.5-0.5v-4.146c0-0.276,0.224-0.5,0.5-0.5s0.5,0.224,0.5,0.5V57
			C34,57.276,33.776,57.5,33.5,57.5z"/>
	</g>
	<g>
		<path class="st0" d="M30.5,57.5c-0.276,0-0.5-0.224-0.5-0.5v-4.146c0-0.276,0.224-0.5,0.5-0.5s0.5,0.224,0.5,0.5V57
			C31,57.276,30.776,57.5,30.5,57.5z"/>
	</g>
	<g>
		<path class="st2" d="M34.5,41.646h-5c-0.552,0-1-0.448-1-1v-15c0-0.552,0.448-1,1-1h5c0.552,0,1,0.448,1,1v15
			C35.5,41.198,35.052,41.646,34.5,41.646z"/>
		<path class="st0" d="M34.5,42.146h-5c-0.827,0-1.5-0.673-1.5-1.5v-15c0-0.827,0.673-1.5,1.5-1.5h5c0.827,0,1.5,0.673,1.5,1.5v15
			C36,41.473,35.327,42.146,34.5,42.146z M29.5,25.146c-0.276,0-0.5,0.224-0.5,0.5v15c0,0.276,0.224,0.5,0.5,0.5h5
			c0.275,0,0.5-0.224,0.5-0.5v-15c0-0.276-0.225-0.5-0.5-0.5H29.5z"/>
	</g>
	<g>
		<path class="st0" d="M40,51.354H24c-0.276,0-0.5-0.224-0.5-0.5v-3c0-0.276,0.224-0.5,0.5-0.5h16c0.276,0,0.5,0.224,0.5,0.5v3
			C40.5,51.131,40.276,51.354,40,51.354z M24.5,50.354h15v-2h-15V50.354z"/>
	</g>
	<g>
		<path class="st0" d="M33.5,23.146c-0.276,0-0.5-0.224-0.5-0.5v-1.708c0-1.654,1.346-3,3-3h2.5c0.276,0,0.5,0.224,0.5,0.5
			s-0.224,0.5-0.5,0.5H36c-1.103,0-2,0.897-2,2v1.708C34,22.922,33.776,23.146,33.5,23.146z"/>
	</g>
	<g>
		<path class="st0" d="M30.5,23.146c-0.276,0-0.5-0.224-0.5-0.5v-1.708c0-1.103-0.897-2-2-2h-2.5c-0.276,0-0.5-0.224-0.5-0.5
			s0.224-0.5,0.5-0.5H28c1.654,0,3,1.346,3,3v1.708C31,22.922,30.776,23.146,30.5,23.146z"/>
	</g>
	<g>
		<path class="st0" d="M44.5,20.438h-5c-0.827,0-1.5-0.673-1.5-1.5v-1c0-0.827,0.673-1.5,1.5-1.5h5c0.827,0,1.5,0.673,1.5,1.5v1
			C46,19.765,45.327,20.438,44.5,20.438z M39.5,17.438c-0.275,0-0.5,0.224-0.5,0.5v1c0,0.276,0.225,0.5,0.5,0.5h5
			c0.275,0,0.5-0.224,0.5-0.5v-1c0-0.276-0.225-0.5-0.5-0.5H39.5z"/>
	</g>
	<g>
		<path class="st0" d="M24.5,20.438h-5c-0.827,0-1.5-0.673-1.5-1.5v-1c0-0.827,0.673-1.5,1.5-1.5h5c0.827,0,1.5,0.673,1.5,1.5v1
			C26,19.765,25.327,20.438,24.5,20.438z M19.5,17.438c-0.276,0-0.5,0.224-0.5,0.5v1c0,0.276,0.224,0.5,0.5,0.5h5
			c0.276,0,0.5-0.224,0.5-0.5v-1c0-0.276-0.224-0.5-0.5-0.5H19.5z"/>
	</g>
	<g>
		<path class="st0" d="M34.5,60.5h-5c-0.276,0-0.5-0.224-0.5-0.5v-3c0-0.276,0.224-0.5,0.5-0.5h5c0.276,0,0.5,0.224,0.5,0.5v3
			C35,60.276,34.776,60.5,34.5,60.5z M30,59.5h4v-2h-4V59.5z"/>
	</g>
	<g>
		<path class="st0" d="M35.5,39.146h-7c-0.232,0-0.434-0.16-0.487-0.385s0.056-0.458,0.263-0.562l5.105-2.553H28.5
			c-0.227,0-0.425-0.152-0.483-0.372s0.039-0.45,0.235-0.562l5.365-3.066H28.5c-0.232,0-0.434-0.16-0.487-0.385
			s0.056-0.458,0.263-0.562l5.105-2.553H28.5c-0.276,0-0.5-0.224-0.5-0.5s0.224-0.5,0.5-0.5h7c0.231,0,0.434,0.16,0.486,0.385
			c0.054,0.226-0.056,0.458-0.263,0.562l-5.105,2.553H35.5c0.227,0,0.425,0.152,0.483,0.372c0.058,0.219-0.038,0.45-0.235,0.562
			l-5.365,3.066H35.5c0.231,0,0.434,0.16,0.486,0.385c0.054,0.226-0.056,0.458-0.263,0.562l-5.105,2.553H35.5
			c0.276,0,0.5,0.224,0.5,0.5S35.776,39.146,35.5,39.146z"/>
	</g>
</g>
</svg>
