<?xml version="1.0" encoding="utf-8"?>
<!-- Generator: Adobe Illustrator 22.0.0, SVG Export Plug-In . SVG Version: 6.00 Build 0)  -->
<svg version="1.1" id="Layer_1" xmlns="http://www.w3.org/2000/svg" xmlns:xlink="http://www.w3.org/1999/xlink" x="0px" y="0px"
	 viewBox="0 0 64 64" style="enable-background:new 0 0 64 64;" xml:space="preserve">
<style type="text/css">
	.st0{fill:#263238;}
	.st1{fill:#4FC3F7;}
	.st2{fill:#FFD740;}
	.st3{fill:#FF5252;}
	.st4{fill:#4DB6AC;}
	.st5{fill:#FFFFFF;}
	.st6{fill:#40C4FF;}
	.st7{fill:#A2A2A1;}
	.st8{fill:#212A41;}
</style>
<g>
	<g>
		<path class="st1" d="M62,53c0-1.105-0.895-2-2-2s-2,0.895-2,2c-1.105,0-2,0.895-2,2s0.895,2,2,2h4c1.105,0,2-0.895,2-2
			S63.105,53,62,53z"/>
	</g>
	<g>
		<path class="st0" d="M36,46h-8c-0.219,0-0.413-0.143-0.478-0.352l-7-22.5c-0.082-0.264,0.065-0.544,0.329-0.626
			c0.264-0.083,0.544,0.066,0.626,0.329L28.368,45h7.264l6.891-22.148c0.083-0.263,0.361-0.413,0.626-0.329
			c0.264,0.082,0.411,0.362,0.329,0.626l-7,22.5C36.413,45.857,36.219,46,36,46z"/>
	</g>
	<g>
		<path class="st0" d="M32,54c-4.687,0-8.5-3.813-8.5-8.5S27.313,37,32,37s8.5,3.813,8.5,8.5S36.687,54,32,54z M32,38
			c-4.136,0-7.5,3.364-7.5,7.5S27.864,53,32,53s7.5-3.364,7.5-7.5S36.136,38,32,38z"/>
	</g>
	<g>
		<path class="st0" d="M32,50c-2.481,0-4.5-2.019-4.5-4.5S29.519,41,32,41s4.5,2.019,4.5,4.5S34.481,50,32,50z M32,42
			c-1.93,0-3.5,1.57-3.5,3.5S30.07,49,32,49s3.5-1.57,3.5-3.5S33.93,42,32,42z"/>
	</g>
	<g>
		<path class="st0" d="M37.75,58h-11.5c-0.147,0-0.287-0.064-0.381-0.177c-0.095-0.112-0.136-0.261-0.112-0.405l2-12
			C27.797,45.177,28.005,45,28.25,45h7.5c0.245,0,0.453,0.177,0.493,0.418l2,12c0.024,0.145-0.017,0.293-0.112,0.405
			C38.037,57.936,37.897,58,37.75,58z M26.84,57H37.16l-1.833-11h-6.653L26.84,57z"/>
	</g>
	<g>
		<path class="st0" d="M42,58H22c-0.276,0-0.5-0.224-0.5-0.5S21.724,57,22,57h20c0.276,0,0.5,0.224,0.5,0.5S42.276,58,42,58z"/>
	</g>
	<g>
		<path class="st0" d="M21,61h-1c-0.827,0-1.5-0.673-1.5-1.5v-4c0-0.827,0.673-1.5,1.5-1.5h1c0.827,0,1.5,0.673,1.5,1.5v4
			C22.5,60.327,21.827,61,21,61z M20,55c-0.276,0-0.5,0.225-0.5,0.5v4c0,0.275,0.224,0.5,0.5,0.5h1c0.276,0,0.5-0.225,0.5-0.5v-4
			c0-0.275-0.224-0.5-0.5-0.5H20z"/>
	</g>
	<g>
		<path class="st0" d="M44,61h-1c-0.827,0-1.5-0.673-1.5-1.5v-4c0-0.827,0.673-1.5,1.5-1.5h1c0.827,0,1.5,0.673,1.5,1.5v4
			C45.5,60.327,44.827,61,44,61z M43,55c-0.276,0-0.5,0.225-0.5,0.5v4c0,0.275,0.224,0.5,0.5,0.5h1c0.276,0,0.5-0.225,0.5-0.5v-4
			c0-0.275-0.224-0.5-0.5-0.5H43z"/>
	</g>
	<g>
		<path class="st0" d="M25,36c-0.276,0-0.5-0.224-0.5-0.5v-13c0-0.276,0.224-0.5,0.5-0.5s0.5,0.224,0.5,0.5v13
			C25.5,35.776,25.276,36,25,36z"/>
	</g>
	<g>
		<path class="st0" d="M39,36c-0.276,0-0.5-0.224-0.5-0.5v-13c0-0.276,0.224-0.5,0.5-0.5s0.5,0.224,0.5,0.5v13
			C39.5,35.776,39.276,36,39,36z"/>
	</g>
	<g>
		<path class="st2" d="M58.997,30.001c-0.619,0-1.247-0.145-1.834-0.448l-9.097-4.705c-2.969-1.536-6.305-2.348-9.648-2.348H25.583
			c-3.343,0-6.679,0.812-9.647,2.348l-9.098,4.705c-1.963,1.015-4.375,0.246-5.39-1.715c-1.015-1.963-0.247-4.376,1.715-5.391
			l9.097-4.705c4.099-2.121,8.706-3.242,13.323-3.242h12.834c4.617,0,9.225,1.121,13.324,3.242l9.097,4.705
			c1.962,1.015,2.73,3.428,1.715,5.391C61.842,29.212,60.445,30.001,58.997,30.001z"/>
		<path class="st0" d="M58.997,30.501c-0.712,0-1.426-0.174-2.063-0.504l-9.097-4.705C44.938,23.792,41.681,23,38.417,23H25.583
			c-3.264,0-6.52,0.792-9.417,2.292l-9.098,4.705c-2.203,1.139-4.924,0.273-6.063-1.93C0.451,27,0.348,25.78,0.712,24.636
			c0.364-1.146,1.153-2.08,2.221-2.633l9.097-4.705C16.2,15.141,20.886,14,25.583,14h12.834c4.697,0,9.384,1.141,13.554,3.298
			l9.096,4.705c1.068,0.553,1.857,1.487,2.221,2.633c0.365,1.145,0.261,2.364-0.291,3.432
			C62.221,29.568,60.688,30.501,58.997,30.501z M25.583,22h12.834c3.423,0,6.839,0.831,9.878,2.403l9.097,4.705
			c0.504,0.261,1.043,0.393,1.604,0.393c1.315,0,2.508-0.726,3.112-1.893c0.429-0.831,0.51-1.779,0.226-2.67
			c-0.283-0.891-0.896-1.617-1.727-2.047l-9.097-4.705C47.483,16.102,42.955,15,38.417,15H25.583c-4.538,0-9.065,1.102-13.093,3.187
			l-9.098,4.705c-0.831,0.43-1.444,1.156-1.727,2.047c-0.284,0.891-0.203,1.839,0.227,2.67c0.886,1.714,3.002,2.388,4.716,1.5
			l9.098-4.705C18.745,22.831,22.16,22,25.583,22z"/>
	</g>
	<g>
		<path class="st3" d="M43,14.879c-1.515-0.244-3.047-0.379-4.583-0.379H25.583c-1.535,0-3.068,0.135-4.583,0.379v8.138
			c1.503-0.337,3.042-0.517,4.583-0.517h12.834c1.541,0,3.08,0.18,4.583,0.517V14.879z"/>
		<path class="st0" d="M21,23.517c-0.113,0-0.223-0.038-0.313-0.109c-0.119-0.096-0.187-0.239-0.187-0.391v-8.138
			c0-0.245,0.178-0.455,0.421-0.494C22.514,14.13,24.082,14,25.583,14h12.834c1.501,0,3.069,0.13,4.662,0.385
			c0.243,0.039,0.421,0.249,0.421,0.494v8.138c0,0.151-0.069,0.295-0.188,0.391c-0.118,0.095-0.274,0.13-0.421,0.098
			C41.393,23.17,39.888,23,38.417,23H25.583c-1.47,0-2.976,0.17-4.474,0.505C21.073,23.513,21.036,23.517,21,23.517z M21.5,15.308
			v7.094C22.868,22.135,24.239,22,25.583,22h12.834c1.344,0,2.715,0.135,4.083,0.401v-7.094C41.105,15.104,39.733,15,38.417,15
			H25.583C24.267,15,22.896,15.104,21.5,15.308z"/>
	</g>
	<g>
		<path class="st0" d="M7.25,46h-2c-0.276,0-0.5-0.224-0.5-0.5S4.974,45,5.25,45h2c0.276,0,0.5,0.224,0.5,0.5S7.526,46,7.25,46z"/>
	</g>
	<g>
		<path class="st0" d="M18.75,46h-9.5c-0.276,0-0.5-0.224-0.5-0.5S8.974,45,9.25,45h9.5c0.276,0,0.5,0.224,0.5,0.5
			S19.026,46,18.75,46z"/>
	</g>
	<g>
		<path class="st0" d="M58.75,46h-2c-0.276,0-0.5-0.224-0.5-0.5s0.224-0.5,0.5-0.5h2c0.276,0,0.5,0.224,0.5,0.5S59.026,46,58.75,46z
			"/>
	</g>
	<g>
		<path class="st0" d="M54.75,46h-9.5c-0.276,0-0.5-0.224-0.5-0.5s0.224-0.5,0.5-0.5h9.5c0.276,0,0.5,0.224,0.5,0.5
			S55.026,46,54.75,46z"/>
	</g>
	<g>
		<path class="st1" d="M3,6.5c0-1.657,1.343-3,3-3s3,1.343,3,3c1.657,0,3,1.343,3,3s-1.343,3-3,3H3c-1.657,0-3-1.343-3-3
			C0,7.843,1.343,6.5,3,6.5z"/>
	</g>
	<g>
		<path class="st0" d="M59.368,6h-4c-0.276,0-0.5-0.224-0.5-0.5s0.224-0.5,0.5-0.5h4c0.276,0,0.5,0.224,0.5,0.5S59.645,6,59.368,6z"
			/>
	</g>
	<g>
		<path class="st0" d="M57.368,8c-0.276,0-0.5-0.224-0.5-0.5v-4c0-0.276,0.224-0.5,0.5-0.5s0.5,0.224,0.5,0.5v4
			C57.868,7.776,57.645,8,57.368,8z"/>
	</g>
	<g>
		<path class="st0" d="M53.368,10h-4c-0.276,0-0.5-0.224-0.5-0.5s0.224-0.5,0.5-0.5h4c0.276,0,0.5,0.224,0.5,0.5
			S53.645,10,53.368,10z"/>
	</g>
	<g>
		<path class="st0" d="M51.368,12c-0.276,0-0.5-0.224-0.5-0.5v-4c0-0.276,0.224-0.5,0.5-0.5s0.5,0.224,0.5,0.5v4
			C51.868,11.776,51.645,12,51.368,12z"/>
	</g>
	<g>
		<path class="st0" d="M60,26.5c-0.073,0-0.147-0.016-0.217-0.05L49.44,21.446C46.133,19.846,42.443,19,38.77,19H25.23
			c-3.674,0-7.364,0.846-10.671,2.446L4.218,26.45c-0.25,0.122-0.547,0.017-0.668-0.232c-0.12-0.249-0.016-0.548,0.232-0.668
			l10.342-5.004C17.566,18.881,21.407,18,25.23,18H38.77c3.824,0,7.665,0.881,11.106,2.546l10.342,5.004
			c0.249,0.12,0.353,0.419,0.232,0.668C60.364,26.396,60.186,26.5,60,26.5z"/>
	</g>
</g>
</svg>
