<?xml version="1.0" encoding="utf-8"?>
<!-- Generator: Adobe Illustrator 22.0.0, SVG Export Plug-In . SVG Version: 6.00 Build 0)  -->
<svg version="1.1" id="Layer_1" xmlns="http://www.w3.org/2000/svg" xmlns:xlink="http://www.w3.org/1999/xlink" x="0px" y="0px"
	 viewBox="0 0 64 64" style="enable-background:new 0 0 64 64;" xml:space="preserve">
<style type="text/css">
	.st0{fill:#263238;}
	.st1{fill:#4FC3F7;}
	.st2{fill:#FFD740;}
	.st3{fill:#FF5252;}
	.st4{fill:#4DB6AC;}
	.st5{fill:#FFFFFF;}
	.st6{fill:#40C4FF;}
	.st7{fill:#A2A2A1;}
	.st8{fill:#212A41;}
</style>
<g>
	<g>
		<path class="st0" d="M19,24.25h-2c-0.276,0-0.5-0.224-0.5-0.5s0.224-0.5,0.5-0.5h2c0.276,0,0.5,0.224,0.5,0.5
			S19.276,24.25,19,24.25z"/>
	</g>
	<g>
		<path class="st0" d="M32,24.25H21c-0.276,0-0.5-0.224-0.5-0.5s0.224-0.5,0.5-0.5h11c0.276,0,0.5,0.224,0.5,0.5
			S32.276,24.25,32,24.25z"/>
	</g>
	<g>
		<path class="st0" d="M37,21.25H25c-0.276,0-0.5-0.224-0.5-0.5s0.224-0.5,0.5-0.5h12c0.276,0,0.5,0.224,0.5,0.5
			S37.276,21.25,37,21.25z"/>
	</g>
	<g>
		<path class="st0" d="M3.5,55.75h-3c-0.276,0-0.5-0.224-0.5-0.5s0.224-0.5,0.5-0.5h3c0.276,0,0.5,0.224,0.5,0.5
			S3.776,55.75,3.5,55.75z"/>
	</g>
	<g>
		<path class="st0" d="M63.5,55.75h-58c-0.276,0-0.5-0.224-0.5-0.5s0.224-0.5,0.5-0.5h58c0.276,0,0.5,0.224,0.5,0.5
			S63.776,55.75,63.5,55.75z"/>
	</g>
	<g>
		<path class="st1" d="M6.5,11.75c0-1.657,1.343-3,3-3s3,1.343,3,3c1.657,0,3,1.343,3,3s-1.343,3-3,3h-6c-1.657,0-3-1.343-3-3
			S4.843,11.75,6.5,11.75z"/>
	</g>
	<g>
		<path class="st0" d="M52,11.25h-4c-0.276,0-0.5-0.224-0.5-0.5s0.224-0.5,0.5-0.5h4c0.276,0,0.5,0.224,0.5,0.5
			S52.276,11.25,52,11.25z"/>
	</g>
	<g>
		<path class="st0" d="M50,13.25c-0.276,0-0.5-0.224-0.5-0.5v-4c0-0.276,0.224-0.5,0.5-0.5s0.5,0.224,0.5,0.5v4
			C50.5,13.026,50.276,13.25,50,13.25z"/>
	</g>
	<g>
		<path class="st0" d="M47,15.25h-4c-0.276,0-0.5-0.224-0.5-0.5s0.224-0.5,0.5-0.5h4c0.276,0,0.5,0.224,0.5,0.5
			S47.276,15.25,47,15.25z"/>
	</g>
	<g>
		<path class="st0" d="M45,17.25c-0.276,0-0.5-0.224-0.5-0.5v-4c0-0.276,0.224-0.5,0.5-0.5s0.5,0.224,0.5,0.5v4
			C45.5,17.026,45.276,17.25,45,17.25z"/>
	</g>
	<g>
		<path class="st1" d="M54.242,22.75c0-1.105,0.895-2,2-2s2,0.895,2,2c1.105,0,2,0.895,2,2s-0.895,2-2,2h-4c-1.105,0-2-0.895-2-2
			S53.138,22.75,54.242,22.75z"/>
	</g>
	<g>
		<path class="st0" d="M49,55.75c-4.687,0-8.5-3.813-8.5-8.5s3.813-8.5,8.5-8.5s8.5,3.813,8.5,8.5S53.687,55.75,49,55.75z M49,39.75
			c-4.136,0-7.5,3.364-7.5,7.5s3.364,7.5,7.5,7.5s7.5-3.364,7.5-7.5S53.136,39.75,49,39.75z"/>
	</g>
	<g>
		<path class="st0" d="M49,52.25c-2.757,0-5-2.243-5-5s2.243-5,5-5s5,2.243,5,5S51.757,52.25,49,52.25z M49,43.25
			c-2.206,0-4,1.794-4,4s1.794,4,4,4s4-1.794,4-4S51.206,43.25,49,43.25z"/>
	</g>
	<g>
		<path class="st0" d="M18,55.75c-4.687,0-8.5-3.813-8.5-8.5s3.813-8.5,8.5-8.5s8.5,3.813,8.5,8.5S22.687,55.75,18,55.75z M18,39.75
			c-4.136,0-7.5,3.364-7.5,7.5s3.364,7.5,7.5,7.5s7.5-3.364,7.5-7.5S22.136,39.75,18,39.75z"/>
	</g>
	<g>
		<path class="st0" d="M39,47.75H28c-0.276,0-0.5-0.224-0.5-0.5s0.224-0.5,0.5-0.5h11c0.276,0,0.5,0.224,0.5,0.5
			S39.276,47.75,39,47.75z"/>
	</g>
	<g>
		<path class="st0" d="M39.459,50.75H27.541c-0.276,0-0.5-0.224-0.5-0.5s0.224-0.5,0.5-0.5h11.918c0.276,0,0.5,0.224,0.5,0.5
			S39.735,50.75,39.459,50.75z"/>
	</g>
	<g>
		<path class="st0" d="M18,52.25c-2.757,0-5-2.243-5-5s2.243-5,5-5s5,2.243,5,5S20.757,52.25,18,52.25z M18,43.25
			c-2.206,0-4,1.794-4,4s1.794,4,4,4s4-1.794,4-4S20.206,43.25,18,43.25z"/>
	</g>
	<g>
		<path class="st0" d="M43.122,39.672c-0.181,0-0.354-0.098-0.444-0.27l-1.894-3.652H38c-1.103,0-2-0.897-2-2s0.897-2,2-2h4
			c0.75,0,1.431,0.414,1.776,1.08l2.452,4.729c0.127,0.245,0.031,0.547-0.214,0.674s-0.547,0.033-0.675-0.214l-2.452-4.729
			c-0.172-0.333-0.513-0.54-0.888-0.54h-4c-0.552,0-1,0.449-1,1s0.448,1,1,1h3.088c0.187,0,0.357,0.104,0.444,0.27l2.034,3.922
			c0.127,0.245,0.031,0.547-0.214,0.674C43.278,39.654,43.2,39.672,43.122,39.672z"/>
	</g>
	<g>
		<path class="st3" d="M19.634,37.395c1.308,0.216,2.528,0.683,3.613,1.354l-2.825-8.473c-0.261-0.786-1.113-1.21-1.897-0.949
			c-0.786,0.262-1.21,1.111-0.948,1.897L19.634,37.395z"/>
	</g>
	<g>
		<path class="st3" d="M34.003,44.25h-6.462c0.298,0.947,0.459,1.955,0.459,3h6.003c0.828,0,1.5-0.671,1.5-1.5
			S34.831,44.25,34.003,44.25z"/>
	</g>
	<g>
		<path class="st0" d="M23.247,39.249c-0.209,0-0.404-0.132-0.475-0.342l-2.824-8.473c-0.084-0.253-0.262-0.458-0.5-0.578
			c-0.239-0.12-0.512-0.139-0.765-0.055c-0.254,0.084-0.459,0.263-0.578,0.501s-0.139,0.51-0.054,0.763l2.057,6.171
			c0.087,0.262-0.055,0.545-0.316,0.632s-0.545-0.054-0.633-0.316l-2.057-6.171c-0.169-0.507-0.13-1.049,0.108-1.526
			c0.239-0.478,0.649-0.834,1.156-1.003s1.05-0.13,1.528,0.11c0.479,0.239,0.834,0.65,1.002,1.156l2.824,8.472
			c0.087,0.262-0.055,0.545-0.316,0.632C23.353,39.241,23.3,39.249,23.247,39.249z"/>
	</g>
	<g>
		<path class="st0" d="M34.003,47.75H28c-0.276,0-0.5-0.224-0.5-0.5s0.224-0.5,0.5-0.5h6.003c0.552,0,1-0.449,1-1s-0.448-1-1-1
			h-6.462c-0.276,0-0.5-0.224-0.5-0.5s0.224-0.5,0.5-0.5h6.462c1.103,0,2,0.897,2,2S35.105,47.75,34.003,47.75z"/>
	</g>
	<g>
		<path class="st0" d="M44.468,35.75h-3.38c-0.276,0-0.5-0.224-0.5-0.5s0.224-0.5,0.5-0.5h3.38c0.276,0,0.5,0.224,0.5,0.5
			S44.744,35.75,44.468,35.75z"/>
	</g>
</g>
</svg>
