<?xml version="1.0" encoding="utf-8"?>
<!-- Generator: Adobe Illustrator 22.0.0, SVG Export Plug-In . SVG Version: 6.00 Build 0)  -->
<svg version="1.1" id="Layer_1" xmlns="http://www.w3.org/2000/svg" xmlns:xlink="http://www.w3.org/1999/xlink" x="0px" y="0px"
	 viewBox="0 0 64 64" style="enable-background:new 0 0 64 64;" xml:space="preserve">
<style type="text/css">
	.st0{fill:#263238;}
	.st1{fill:#4FC3F7;}
	.st2{fill:#FFD740;}
	.st3{fill:#FF5252;}
	.st4{fill:#4DB6AC;}
	.st5{fill:#FFFFFF;}
	.st6{fill:#40C4FF;}
	.st7{fill:#A2A2A1;}
	.st8{fill:#212A41;}
</style>
<g>
	<g>
		<path class="st3" d="M62.714,47.613L61.489,47l-0.457-1.507c-0.555-1.831-2.106-3.185-3.995-3.487L47.625,40.5L23,39.5l5.5-4.937
			l10.713,0.679l-3.077-1.923c-0.336-0.21-0.716-0.337-1.111-0.371l-9.216-0.793c-1.168-0.101-2.335,0.213-3.296,0.885L14,39
			L2.091,38.575c-0.84-0.03-1.34,0.927-0.836,1.599L3,42.5V47H1.737c-0.637,0-1.111,0.587-0.978,1.21l1.071,5
			C1.93,53.67,2.337,54,2.809,54H7.5c-0.291-0.698-0.465-1.457-0.495-2.253c-0.135-3.583,2.826-6.7,6.411-6.746
			C17.044,44.955,20,47.882,20,51.5c0,0.886-0.179,1.73-0.5,2.5H44c-0.291-0.698-0.465-1.457-0.495-2.253
			c-0.135-3.583,2.826-6.7,6.411-6.746c3.628-0.046,6.584,2.881,6.584,6.499c0,0.886-0.179,1.73-0.5,2.5h4.778
			c0.431,0,0.814-0.276,0.949-0.685l1.489-4.493C63.373,48.35,63.159,47.835,62.714,47.613z"/>
	</g>
	<g>
		<path class="st4" d="M35.197,30.956c0.706,0.061,1.396,0.292,1.997,0.666l11.146,6.968l6.268,1.003l-4.984-22.238
			c-0.233-1.042-1.718-1.042-1.952,0l-4.024,17.954l-4.024-17.954c-0.233-1.042-1.718-1.042-1.952,0l-3.038,13.554L35.197,30.956z"
			/>
	</g>
	<g>
		<path class="st4" d="M25.98,30.163l6.644,0.572l-2.999-13.381c-0.233-1.042-1.718-1.042-1.952,0l-2.871,12.811
			C25.192,30.132,25.586,30.128,25.98,30.163z"/>
	</g>
	<g>
		<path class="st0" d="M3.5,58.5h-3C0.224,58.5,0,58.276,0,58s0.224-0.5,0.5-0.5h3C3.776,57.5,4,57.724,4,58S3.776,58.5,3.5,58.5z"
			/>
	</g>
	<g>
		<path class="st0" d="M63.5,58.5h-58C5.224,58.5,5,58.276,5,58s0.224-0.5,0.5-0.5h58c0.276,0,0.5,0.224,0.5,0.5
			S63.776,58.5,63.5,58.5z"/>
	</g>
	<g>
		<path class="st0" d="M3.5,26.5h-2C1.224,26.5,1,26.276,1,26s0.224-0.5,0.5-0.5h2C3.776,25.5,4,25.724,4,26S3.776,26.5,3.5,26.5z"
			/>
	</g>
	<g>
		<path class="st0" d="M16.5,26.5h-11C5.224,26.5,5,26.276,5,26s0.224-0.5,0.5-0.5h11c0.276,0,0.5,0.224,0.5,0.5
			S16.776,26.5,16.5,26.5z"/>
	</g>
	<g>
		<path class="st0" d="M21.5,23.5h-12C9.224,23.5,9,23.276,9,23s0.224-0.5,0.5-0.5h12c0.276,0,0.5,0.224,0.5,0.5
			S21.776,23.5,21.5,23.5z"/>
	</g>
	<g>
		<path class="st0" d="M50,58.5c-3.859,0-7-3.14-7-7s3.141-7,7-7s7,3.14,7,7S53.859,58.5,50,58.5z M50,45.5c-3.309,0-6,2.691-6,6
			s2.691,6,6,6s6-2.691,6-6S53.309,45.5,50,45.5z"/>
	</g>
	<g>
		<path class="st0" d="M50,56c-2.481,0-4.5-2.019-4.5-4.5S47.519,47,50,47s4.5,2.019,4.5,4.5S52.481,56,50,56z M50,48
			c-1.93,0-3.5,1.57-3.5,3.5S48.07,55,50,55s3.5-1.57,3.5-3.5S51.93,48,50,48z"/>
	</g>
	<g>
		<path class="st0" d="M13.5,58.5c-3.86,0-7-3.14-7-7s3.14-7,7-7s7,3.14,7,7S17.36,58.5,13.5,58.5z M13.5,45.5c-3.309,0-6,2.691-6,6
			s2.691,6,6,6s6-2.691,6-6S16.809,45.5,13.5,45.5z"/>
	</g>
	<g>
		<path class="st0" d="M60.777,54.5h-2.652c-0.276,0-0.5-0.224-0.5-0.5s0.224-0.5,0.5-0.5h2.652c0.217,0,0.407-0.137,0.475-0.342
			l1.49-4.494c0.077-0.234-0.03-0.494-0.251-0.604l-1.226-0.613c-0.123-0.062-0.215-0.171-0.255-0.302l-0.457-1.507
			c-0.496-1.637-1.907-2.869-3.596-3.139l-9.412-1.506c-0.066-0.011-0.129-0.034-0.186-0.07l-11.489-7.181
			c-0.268-0.167-0.575-0.27-0.889-0.297l-9.216-0.793c-1.049-0.09-2.104,0.193-2.966,0.797l-8.513,5.959
			c-0.088,0.063-0.181,0.105-0.305,0.09L2.073,39.074c-0.18-0.002-0.369,0.093-0.46,0.268s-0.075,0.374,0.043,0.532L3.4,42.2
			c0.065,0.086,0.1,0.191,0.1,0.3V47c0,0.276-0.224,0.5-0.5,0.5H1.737c-0.152,0-0.293,0.068-0.389,0.186
			c-0.095,0.118-0.132,0.271-0.1,0.419l1.072,5C2.369,53.334,2.575,53.5,2.809,53.5h2.566c0.276,0,0.5,0.224,0.5,0.5
			s-0.224,0.5-0.5,0.5H2.809c-0.703,0-1.319-0.499-1.466-1.186l-1.072-5c-0.095-0.445,0.014-0.904,0.3-1.257
			C0.857,46.703,1.282,46.5,1.737,46.5H2.5v-3.833l-1.644-2.193c-0.35-0.466-0.4-1.078-0.129-1.595
			c0.27-0.517,0.793-0.824,1.383-0.804l11.741,0.419l8.376-5.863c1.055-0.738,2.347-1.087,3.625-0.974l9.217,0.793
			c0.471,0.041,0.932,0.195,1.332,0.445l11.403,7.127l9.312,1.49c2.063,0.33,3.789,1.836,4.395,3.836l0.395,1.301l1.033,0.517
			c0.662,0.331,0.985,1.111,0.753,1.813l-1.49,4.493C61.999,54.086,61.427,54.5,60.777,54.5z"/>
	</g>
	<g>
		<path class="st0" d="M41.875,54.5h-20.25c-0.276,0-0.5-0.224-0.5-0.5s0.224-0.5,0.5-0.5h20.25c0.276,0,0.5,0.224,0.5,0.5
			S42.151,54.5,41.875,54.5z"/>
	</g>
	<g>
		<path class="st0" d="M13.5,56C11.019,56,9,53.981,9,51.5s2.019-4.5,4.5-4.5s4.5,2.019,4.5,4.5S15.981,56,13.5,56z M13.5,48
			c-1.93,0-3.5,1.57-3.5,3.5s1.57,3.5,3.5,3.5s3.5-1.57,3.5-3.5S15.43,48,13.5,48z"/>
	</g>
	<g>
		<path class="st0" d="M47.625,41c-0.007,0-0.014,0-0.021,0l-24.625-1c-0.203-0.008-0.381-0.139-0.45-0.33
			c-0.069-0.191-0.015-0.406,0.137-0.542l5.5-4.937c0.099-0.089,0.224-0.136,0.366-0.127l10.712,0.679
			c0.083,0.005,0.163,0.031,0.233,0.075l8.412,5.258c0.192,0.12,0.28,0.354,0.213,0.571C48.038,40.858,47.844,41,47.625,41z
			 M24.25,39.05l21.51,0.874l-6.705-4.19l-10.377-0.658L24.25,39.05z"/>
	</g>
	<g>
		<path class="st0" d="M28.5,52.5c-0.276,0-0.5-0.224-0.5-0.5V41.683c0-0.276,0.224-0.5,0.5-0.5s0.5,0.224,0.5,0.5V52
			C29,52.276,28.776,52.5,28.5,52.5z"/>
	</g>
	<g>
		<path class="st0" d="M28.5,40.178c-0.276,0-0.5-0.224-0.5-0.5v-5.114c0-0.276,0.224-0.5,0.5-0.5s0.5,0.224,0.5,0.5v5.114
			C29,39.954,28.776,40.178,28.5,40.178z"/>
	</g>
	<g>
		<path class="st1" d="M8.5,9c0-1.657,1.343-3,3-3s3,1.343,3,3c1.657,0,3,1.343,3,3s-1.343,3-3,3h-6c-1.657,0-3-1.343-3-3
			S6.843,9,8.5,9z"/>
	</g>
	<g>
		<path class="st0" d="M52.5,8.5h-4C48.224,8.5,48,8.276,48,8s0.224-0.5,0.5-0.5h4C52.776,7.5,53,7.724,53,8S52.776,8.5,52.5,8.5z"
			/>
	</g>
	<g>
		<path class="st0" d="M50.5,10.5c-0.276,0-0.5-0.224-0.5-0.5V6c0-0.276,0.224-0.5,0.5-0.5S51,5.724,51,6v4
			C51,10.276,50.776,10.5,50.5,10.5z"/>
	</g>
	<g>
		<path class="st0" d="M58.5,12.5h-4c-0.276,0-0.5-0.224-0.5-0.5s0.224-0.5,0.5-0.5h4c0.276,0,0.5,0.224,0.5,0.5
			S58.776,12.5,58.5,12.5z"/>
	</g>
	<g>
		<path class="st0" d="M56.5,14.5c-0.276,0-0.5-0.224-0.5-0.5v-4c0-0.276,0.224-0.5,0.5-0.5S57,9.724,57,10v4
			C57,14.276,56.776,14.5,56.5,14.5z"/>
	</g>
	<g>
		<path class="st3" d="M11.174,32.354l-6.5-1.147C4.062,31.099,3.5,31.57,3.5,32.192v1.865c0,0.529,0.413,0.967,0.941,0.998
			l6.5,0.382C11.516,35.471,12,35.015,12,34.439v-1.1C12,32.854,11.652,32.438,11.174,32.354z"/>
		<path class="st0" d="M10.999,35.939c-0.029,0-0.058,0-0.087-0.002l-6.5-0.382C3.621,35.508,3,34.851,3,34.057v-1.865
			c0-0.444,0.195-0.863,0.536-1.149c0.341-0.286,0.787-0.405,1.225-0.328l6.5,1.147l0,0c0.718,0.126,1.239,0.748,1.239,1.477v1.101
			c0,0.411-0.171,0.809-0.471,1.091C11.751,35.793,11.379,35.939,10.999,35.939z M4.497,31.691c-0.116,0-0.227,0.041-0.318,0.118
			C4.112,31.865,4,31.989,4,32.192v1.865c0,0.264,0.207,0.483,0.471,0.499l6.5,0.382c0.135,0.003,0.271-0.04,0.373-0.136
			c0.101-0.095,0.157-0.224,0.157-0.363v-1.101c0-0.243-0.174-0.45-0.413-0.493l-6.5-1.147C4.557,31.694,4.527,31.691,4.497,31.691z
			"/>
	</g>
	<g>
		<path class="st0" d="M9.5,39.38c-0.007,0-0.013,0-0.02,0l-4-0.16C5.212,39.208,5,38.988,5,38.72v-3.595
			c0-0.138,0.057-0.27,0.158-0.364c0.1-0.095,0.237-0.144,0.374-0.135l4,0.25C9.795,34.893,10,35.111,10,35.375v3.505
			c0,0.136-0.056,0.266-0.154,0.36C9.753,39.33,9.629,39.38,9.5,39.38z M6,38.239l3,0.12v-2.515l-3-0.188V38.239z"/>
	</g>
	<g>
		<path class="st0" d="M44.5,45h-2c-0.276,0-0.5-0.224-0.5-0.5s0.224-0.5,0.5-0.5h2c0.276,0,0.5,0.224,0.5,0.5S44.776,45,44.5,45z"
			/>
	</g>
	<g>
		<path class="st0" d="M44.5,43h-2c-0.276,0-0.5-0.224-0.5-0.5s0.224-0.5,0.5-0.5h2c0.276,0,0.5,0.224,0.5,0.5S44.776,43,44.5,43z"
			/>
	</g>
</g>
</svg>
