<?xml version="1.0" encoding="utf-8"?>
<!-- Generator: Adobe Illustrator 22.0.0, SVG Export Plug-In . SVG Version: 6.00 Build 0)  -->
<svg version="1.1" id="Layer_1" xmlns="http://www.w3.org/2000/svg" xmlns:xlink="http://www.w3.org/1999/xlink" x="0px" y="0px"
	 viewBox="0 0 64 64" style="enable-background:new 0 0 64 64;" xml:space="preserve">
<style type="text/css">
	.st0{fill:#263238;}
	.st1{fill:#4FC3F7;}
	.st2{fill:#FFD740;}
	.st3{fill:#FF5252;}
	.st4{fill:#4DB6AC;}
	.st5{fill:#FFFFFF;}
	.st6{fill:#40C4FF;}
	.st7{fill:#A2A2A1;}
	.st8{fill:#212A41;}
</style>
<g>
	<g>
		<path class="st0" d="M17,63.75c-0.176,0-0.347-0.094-0.438-0.259c-0.133-0.242-0.045-0.546,0.197-0.68l3.524-1.938
			c3.835-2.108,6.217-6.137,6.217-10.514v-1.311c0-0.276,0.224-0.5,0.5-0.5s0.5,0.224,0.5,0.5v1.311
			c0,4.741-2.581,9.106-6.734,11.391l-3.524,1.938C17.164,63.73,17.082,63.75,17,63.75z"/>
	</g>
	<g>
		<path class="st0" d="M47,63.75c-0.082,0-0.164-0.02-0.241-0.062l-3.524-1.938c-4.153-2.284-6.734-6.649-6.734-11.391v-1.311
			c0-0.276,0.224-0.5,0.5-0.5s0.5,0.224,0.5,0.5v1.311c0,4.377,2.382,8.405,6.217,10.514l3.524,1.938
			c0.242,0.134,0.33,0.438,0.197,0.68C47.347,63.656,47.176,63.75,47,63.75z"/>
	</g>
	<g>
		<path class="st0" d="M12.5,63.75c-0.276,0-0.5-0.224-0.5-0.5c0-6.893,5.607-12.5,12.5-12.5c0.062,0,0.123,0.004,0.185,0.008
			l0.101,0.006c0.275,0.006,0.495,0.234,0.489,0.511c-0.006,0.272-0.229,0.489-0.5,0.489c-0.003,0-0.007,0-0.011,0L24.5,51.75
			c-6.341,0-11.5,5.159-11.5,11.5C13,63.526,12.776,63.75,12.5,63.75z"/>
	</g>
	<g>
		<path class="st0" d="M51.5,63.75c-0.276,0-0.5-0.224-0.5-0.5c0-6.341-5.159-11.5-11.5-11.5l-0.264,0.014c-0.004,0-0.008,0-0.011,0
			c-0.271,0-0.494-0.217-0.5-0.489c-0.006-0.276,0.213-0.505,0.489-0.511c0.161-0.01,0.223-0.014,0.285-0.014
			c6.893,0,12.5,5.607,12.5,12.5C52,63.526,51.776,63.75,51.5,63.75z"/>
	</g>
	<g>
		<path class="st0" d="M2.5,63.75c-0.276,0-0.5-0.224-0.5-0.5c0-5.238,4.262-9.5,9.5-9.5c0.73,0,1.473,0.089,2.204,0.264
			c0.269,0.064,0.435,0.334,0.37,0.603c-0.063,0.268-0.331,0.437-0.603,0.37c-0.656-0.157-1.319-0.236-1.972-0.236
			c-4.687,0-8.5,3.813-8.5,8.5C3,63.526,2.776,63.75,2.5,63.75z"/>
	</g>
	<g>
		<path class="st0" d="M61.5,63.75c-0.276,0-0.5-0.224-0.5-0.5c0-4.687-3.813-8.5-8.5-8.5c-0.652,0-1.315,0.079-1.972,0.236
			c-0.273,0.066-0.539-0.103-0.603-0.37c-0.064-0.269,0.102-0.538,0.37-0.603c0.731-0.175,1.474-0.264,2.204-0.264
			c5.238,0,9.5,4.262,9.5,9.5C62,63.526,61.776,63.75,61.5,63.75z"/>
	</g>
	<g>
		<path class="st0" d="M63.5,63.75h-27c-0.276,0-0.5-0.224-0.5-0.5s0.224-0.5,0.5-0.5h27c0.276,0,0.5,0.224,0.5,0.5
			S63.776,63.75,63.5,63.75z"/>
	</g>
	<g>
		<path class="st0" d="M33.5,63.75h-3c-0.276,0-0.5-0.224-0.5-0.5s0.224-0.5,0.5-0.5h3c0.276,0,0.5,0.224,0.5,0.5
			S33.776,63.75,33.5,63.75z"/>
	</g>
	<g>
		<path class="st0" d="M27.5,63.75h-27c-0.276,0-0.5-0.224-0.5-0.5s0.224-0.5,0.5-0.5h27c0.276,0,0.5,0.224,0.5,0.5
			S27.776,63.75,27.5,63.75z"/>
	</g>
	<g>
		<path class="st0" d="M39,43.549H25c-0.276,0-0.5-0.224-0.5-0.5V14.411c0-4.535,1.533-9.005,4.318-12.585
			C29.606,0.813,30.757,0.25,32,0.25s2.394,0.563,3.157,1.545l0.024,0.031c2.785,3.58,4.318,8.05,4.318,12.585v28.638
			C39.5,43.325,39.276,43.549,39,43.549z M25.5,42.549h13V14.411c0-4.313-1.459-8.565-4.107-11.971l-0.023-0.031
			C33.796,1.673,32.933,1.25,32,1.25s-1.796,0.423-2.368,1.158C26.959,5.846,25.5,10.097,25.5,14.411V42.549z"/>
	</g>
	<g>
		<rect x="13" y="39.049" class="st3" width="10" height="4"/>
	</g>
	<g>
		<path class="st0" d="M37,47.549H27c-0.276,0-0.5-0.224-0.5-0.5v-4c0-0.276,0.224-0.5,0.5-0.5h10c0.276,0,0.5,0.224,0.5,0.5v4
			C37.5,47.325,37.276,47.549,37,47.549z M27.5,46.549h9v-3h-9V46.549z"/>
	</g>
	<g>
		<circle class="st6" cx="32" cy="12.75" r="4"/>
		<path class="st0" d="M32,17.25c-2.481,0-4.5-2.019-4.5-4.5s2.019-4.5,4.5-4.5s4.5,2.019,4.5,4.5S34.481,17.25,32,17.25z M32,9.25
			c-1.93,0-3.5,1.57-3.5,3.5s1.57,3.5,3.5,3.5s3.5-1.57,3.5-3.5S33.93,9.25,32,9.25z"/>
	</g>
	<g>
		<path class="st0" d="M13,39.549c-0.276,0-0.5-0.224-0.5-0.5v-0.581c0-1.691,0.761-3.263,2.086-4.312l8.104-6.415
			c0.216-0.172,0.53-0.135,0.702,0.081c0.172,0.217,0.136,0.531-0.081,0.702l-8.104,6.415c-1.085,0.858-1.707,2.145-1.707,3.528
			v0.581C13.5,39.325,13.276,39.549,13,39.549z"/>
	</g>
	<g>
		<rect x="41" y="39.049" class="st3" width="10" height="4"/>
	</g>
	<g>
		<path class="st0" d="M23,43.549H13c-0.276,0-0.5-0.224-0.5-0.5v-4c0-0.276,0.224-0.5,0.5-0.5h10c0.276,0,0.5,0.224,0.5,0.5
			s-0.224,0.5-0.5,0.5h-9.5v3H23c0.276,0,0.5,0.224,0.5,0.5S23.276,43.549,23,43.549z"/>
	</g>
	<g>
		<path class="st0" d="M51,43.549H41c-0.276,0-0.5-0.224-0.5-0.5s0.224-0.5,0.5-0.5h9.5v-3H41c-0.276,0-0.5-0.224-0.5-0.5
			s0.224-0.5,0.5-0.5h10c0.276,0,0.5,0.224,0.5,0.5v4C51.5,43.325,51.276,43.549,51,43.549z"/>
	</g>
	<g>
		<path class="st0" d="M51,39.549c-0.276,0-0.5-0.224-0.5-0.5v-0.581c0-1.384-0.622-2.67-1.707-3.528l-8.104-6.415
			c-0.217-0.171-0.253-0.485-0.081-0.702c0.172-0.216,0.486-0.253,0.702-0.081l8.104,6.415c1.325,1.049,2.086,2.62,2.086,4.312
			v0.581C51.5,39.325,51.276,39.549,51,39.549z"/>
	</g>
	<g>
		<path class="st0" d="M54,4.25h-4c-0.276,0-0.5-0.224-0.5-0.5s0.224-0.5,0.5-0.5h4c0.276,0,0.5,0.224,0.5,0.5S54.276,4.25,54,4.25z
			"/>
	</g>
	<g>
		<path class="st0" d="M52,6.25c-0.276,0-0.5-0.224-0.5-0.5v-4c0-0.276,0.224-0.5,0.5-0.5s0.5,0.224,0.5,0.5v4
			C52.5,6.026,52.276,6.25,52,6.25z"/>
	</g>
	<g>
		<path class="st0" d="M48.5,8.25h-4c-0.276,0-0.5-0.224-0.5-0.5s0.224-0.5,0.5-0.5h4c0.276,0,0.5,0.224,0.5,0.5
			S48.776,8.25,48.5,8.25z"/>
	</g>
	<g>
		<path class="st0" d="M46.5,10.25c-0.276,0-0.5-0.224-0.5-0.5v-4c0-0.276,0.224-0.5,0.5-0.5S47,5.474,47,5.75v4
			C47,10.026,46.776,10.25,46.5,10.25z"/>
	</g>
	<g>
		<path class="st0" d="M6.5,27.5h-2C4.224,27.5,4,27.276,4,27s0.224-0.5,0.5-0.5h2C6.776,26.5,7,26.724,7,27S6.776,27.5,6.5,27.5z"
			/>
	</g>
	<g>
		<path class="st0" d="M16,27.5H8.5C8.224,27.5,8,27.276,8,27s0.224-0.5,0.5-0.5H16c0.276,0,0.5,0.224,0.5,0.5S16.276,27.5,16,27.5z
			"/>
	</g>
	<g>
		<path class="st0" d="M59.5,27.5h-2c-0.276,0-0.5-0.224-0.5-0.5s0.224-0.5,0.5-0.5h2c0.276,0,0.5,0.224,0.5,0.5
			S59.776,27.5,59.5,27.5z"/>
	</g>
	<g>
		<path class="st0" d="M55.5,27.5H48c-0.276,0-0.5-0.224-0.5-0.5s0.224-0.5,0.5-0.5h7.5c0.276,0,0.5,0.224,0.5,0.5
			S55.776,27.5,55.5,27.5z"/>
	</g>
	<g>
		<path class="st0" d="M19,31.799c-0.074,0-0.148-0.017-0.218-0.05c-0.173-0.084-0.282-0.259-0.282-0.45V19.562
			c0-1.089,0.319-2.144,0.924-3.051l1.16-1.74c0.186-0.277,0.646-0.277,0.832,0l1.16,1.74l0,0c0.604,0.907,0.924,1.962,0.924,3.051
			v8.57c0,0.152-0.07,0.297-0.189,0.392l-4,3.166C19.221,31.762,19.11,31.799,19,31.799z M21,15.95l-0.744,1.116
			c-0.494,0.742-0.756,1.605-0.756,2.496v10.703l3-2.375v-8.328c0-0.891-0.262-1.754-0.756-2.496L21,15.95z"/>
	</g>
	<g>
		<path class="st0" d="M45,31.799c-0.11,0-0.221-0.037-0.311-0.108l-4-3.166C40.57,28.43,40.5,28.285,40.5,28.133v-8.57
			c0-1.09,0.319-2.145,0.924-3.051l1.16-1.74c0.093-0.139,0.249-0.223,0.416-0.223l0,0c0.167,0,0.323,0.084,0.416,0.223l1.16,1.741
			c0.604,0.906,0.924,1.961,0.924,3.051v11.735c0,0.191-0.109,0.366-0.282,0.45C45.148,31.782,45.074,31.799,45,31.799z
			 M41.5,27.891l3,2.375V19.563c0-0.892-0.262-1.755-0.756-2.496L43,15.95l-0.744,1.116l0,0c-0.494,0.741-0.756,1.604-0.756,2.496
			V27.891z M41.84,16.789h0.01H41.84z"/>
	</g>
	<g>
		<path class="st0" d="M36,40.549c-0.276,0-0.5-0.224-0.5-0.5v-5.2c0-0.276,0.224-0.5,0.5-0.5s0.5,0.224,0.5,0.5v5.2
			C36.5,40.325,36.276,40.549,36,40.549z"/>
	</g>
</g>
</svg>
