<?xml version="1.0" encoding="utf-8"?>
<!-- Generator: Adobe Illustrator 22.0.0, SVG Export Plug-In . SVG Version: 6.00 Build 0)  -->
<svg version="1.1" id="Layer_1" xmlns="http://www.w3.org/2000/svg" xmlns:xlink="http://www.w3.org/1999/xlink" x="0px" y="0px"
	 viewBox="0 0 64 64" style="enable-background:new 0 0 64 64;" xml:space="preserve">
<style type="text/css">
	.st0{fill:#263238;}
	.st1{fill:#4FC3F7;}
	.st2{fill:#FFD740;}
	.st3{fill:#FF5252;}
	.st4{fill:#4DB6AC;}
	.st5{fill:#FFFFFF;}
	.st6{fill:#40C4FF;}
	.st7{fill:#A2A2A1;}
	.st8{fill:#212A41;}
</style>
<g>
	<g>
		<path class="st0" d="M20,8h-2c-0.276,0-0.5-0.224-0.5-0.5S17.724,7,18,7h2c0.276,0,0.5,0.224,0.5,0.5S20.276,8,20,8z"/>
	</g>
	<g>
		<path class="st0" d="M33,8H22c-0.276,0-0.5-0.224-0.5-0.5S21.724,7,22,7h11c0.276,0,0.5,0.224,0.5,0.5S33.276,8,33,8z"/>
	</g>
	<g>
		<path class="st0" d="M38,5H26c-0.276,0-0.5-0.224-0.5-0.5S25.724,4,26,4h12c0.276,0,0.5,0.224,0.5,0.5S38.276,5,38,5z"/>
	</g>
	<g>
		<path class="st0" d="M12,5H8C7.724,5,7.5,4.776,7.5,4.5S7.724,4,8,4h4c0.276,0,0.5,0.224,0.5,0.5S12.276,5,12,5z"/>
	</g>
	<g>
		<path class="st0" d="M10,7C9.724,7,9.5,6.776,9.5,6.5v-4C9.5,2.224,9.724,2,10,2s0.5,0.224,0.5,0.5v4C10.5,6.776,10.276,7,10,7z"
			/>
	</g>
	<g>
		<path class="st0" d="M7,10H3c-0.276,0-0.5-0.224-0.5-0.5S2.724,9,3,9h4c0.276,0,0.5,0.224,0.5,0.5S7.276,10,7,10z"/>
	</g>
	<g>
		<path class="st0" d="M5,12c-0.276,0-0.5-0.224-0.5-0.5v-4C4.5,7.224,4.724,7,5,7s0.5,0.224,0.5,0.5v4C5.5,11.776,5.276,12,5,12z"
			/>
	</g>
	<g>
		<path class="st0" d="M18,57c-3.309,0-6-2.691-6-6s2.691-6,6-6s6,2.691,6,6S21.309,57,18,57z M18,46c-2.757,0-5,2.243-5,5
			s2.243,5,5,5s5-2.243,5-5S20.757,46,18,46z"/>
	</g>
	<g>
		<path class="st0" d="M18,54.5c-1.93,0-3.5-1.57-3.5-3.5s1.57-3.5,3.5-3.5s3.5,1.57,3.5,3.5S19.93,54.5,18,54.5z M18,48.5
			c-1.378,0-2.5,1.121-2.5,2.5s1.122,2.5,2.5,2.5s2.5-1.121,2.5-2.5S19.379,48.5,18,48.5z"/>
	</g>
	<g>
		<path class="st0" d="M46,57c-3.309,0-6-2.691-6-6s2.691-6,6-6s6,2.691,6,6S49.309,57,46,57z M46,46c-2.757,0-5,2.243-5,5
			s2.243,5,5,5s5-2.243,5-5S48.757,46,46,46z"/>
	</g>
	<g>
		<path class="st0" d="M46,54.5c-1.93,0-3.5-1.57-3.5-3.5s1.57-3.5,3.5-3.5s3.5,1.57,3.5,3.5S47.93,54.5,46,54.5z M46,48.5
			c-1.379,0-2.5,1.121-2.5,2.5s1.121,2.5,2.5,2.5s2.5-1.121,2.5-2.5S47.379,48.5,46,48.5z"/>
	</g>
	<g>
		<path class="st0" d="M32,57c-3.309,0-6-2.691-6-6s2.691-6,6-6s6,2.691,6,6S35.309,57,32,57z M32,46c-2.757,0-5,2.243-5,5
			s2.243,5,5,5s5-2.243,5-5S34.757,46,32,46z"/>
	</g>
	<g>
		<path class="st2" d="M53.5,51c0,4.136-3.364,7.5-7.5,7.5c-3.194,0-5.921-2.01-7-4.83c-1.079,2.819-3.806,4.83-7,4.83
			c-3.194,0-5.92-2.01-7-4.829c-1.079,2.819-3.806,4.829-7,4.829c-4.136,0-7.5-3.364-7.5-7.5H0v0c0,6.627,5.373,12,12,12h40
			c6.627,0,12-5.373,12-12v0H53.5z"/>
	</g>
	<g>
		<path class="st0" d="M32,54.5c-1.93,0-3.5-1.57-3.5-3.5s1.57-3.5,3.5-3.5s3.5,1.57,3.5,3.5S33.93,54.5,32,54.5z M32,48.5
			c-1.378,0-2.5,1.121-2.5,2.5s1.122,2.5,2.5,2.5c1.379,0,2.5-1.121,2.5-2.5S33.379,48.5,32,48.5z"/>
	</g>
	<g>
		<circle class="st7" cx="54.5" cy="25.5" r="1.5"/>
	</g>
	<g>
		<circle class="st7" cx="5" cy="35.5" r="2"/>
	</g>
	<g>
		<circle class="st2" cx="54" cy="7.5" r="6.5"/>
		<path class="st0" d="M54,14.5c-3.859,0-7-3.141-7-7s3.141-7,7-7s7,3.141,7,7S57.859,14.5,54,14.5z M54,1.5c-3.309,0-6,2.691-6,6
			s2.691,6,6,6s6-2.691,6-6S57.309,1.5,54,1.5z"/>
	</g>
	<g>
		<path class="st8" d="M63,8H45c-0.276,0-0.5-0.224-0.5-0.5S44.724,7,45,7h18c0.276,0,0.5,0.224,0.5,0.5S63.276,8,63,8z"/>
	</g>
	<g>
		<path class="st0" d="M11.089,48.589c-0.128,0-0.256-0.049-0.354-0.146l-2.089-2.089C8.553,46.26,8.5,46.133,8.5,46v-4.5
			c0-1.654,1.346-3,3-3h41c1.654,0,3,1.346,3,3V46c0,0.133-0.053,0.26-0.146,0.354l-2.089,2.088c-0.195,0.195-0.512,0.195-0.707,0
			s-0.195-0.512,0-0.707l1.942-1.941V41.5c0-1.103-0.897-2-2-2h-41c-1.103,0-2,0.897-2,2v4.293l1.942,1.942
			c0.195,0.195,0.195,0.512,0,0.707C11.345,48.54,11.217,48.589,11.089,48.589z"/>
	</g>
	<g>
		<path class="st0" d="M19.5,39.496c-2.048,0-4.097-0.779-5.656-2.339c-3.119-3.119-3.119-8.195,0-11.314
			c0.187-0.188,0.52-0.188,0.708,0l10.606,10.606c0.195,0.195,0.195,0.512,0,0.707C23.598,38.716,21.548,39.496,19.5,39.496z
			 M14.21,26.916c-2.383,2.747-2.27,6.924,0.34,9.534c2.611,2.61,6.786,2.724,9.534,0.341L14.21,26.916z"/>
	</g>
	<g>
		<path class="st0" d="M19.501,32c-0.128,0-0.256-0.049-0.354-0.146c-0.195-0.195-0.195-0.512,0-0.707l5.303-5.303
			c0.195-0.195,0.512-0.195,0.707,0s0.195,0.512,0,0.707l-5.303,5.303C19.757,31.951,19.629,32,19.501,32z"/>
	</g>
	<g>
		<path class="st0" d="M52,39.5H32c-0.276,0-0.5-0.224-0.5-0.5V28c0-0.827,0.673-1.5,1.5-1.5h11.455
			c1.144,0,2.172,0.636,2.684,1.658l5.309,10.618c0.077,0.155,0.069,0.339-0.021,0.486C52.334,39.41,52.173,39.5,52,39.5z
			 M32.5,38.5h18.691l-4.947-9.895c-0.341-0.682-1.026-1.105-1.789-1.105H33c-0.276,0-0.5,0.225-0.5,0.5V38.5z"/>
	</g>
	<g>
		<path class="st0" d="M35,27.5c-0.276,0-0.5-0.224-0.5-0.5v-5c0-0.276,0.224-0.5,0.5-0.5s0.5,0.224,0.5,0.5v5
			C35.5,27.276,35.276,27.5,35,27.5z"/>
	</g>
	<g>
		<path class="st6" d="M47.75,30.5H41.5c-0.552,0-1,0.448-1,1v3c0,0.552,0.448,1,1,1h8.75L47.75,30.5z"/>
		<path class="st0" d="M50.25,36H41.5c-0.827,0-1.5-0.673-1.5-1.5v-3c0-0.827,0.673-1.5,1.5-1.5h6.25
			c0.189,0,0.362,0.107,0.447,0.276l2.5,5c0.077,0.155,0.069,0.339-0.021,0.486C50.584,35.91,50.423,36,50.25,36z M41.5,31
			c-0.275,0-0.5,0.225-0.5,0.5v3c0,0.275,0.225,0.5,0.5,0.5h7.941l-2-4H41.5z"/>
	</g>
	<g>
		<path class="st0" d="M52,43.5H12c-0.276,0-0.5-0.224-0.5-0.5s0.224-0.5,0.5-0.5h40c0.276,0,0.5,0.224,0.5,0.5S52.276,43.5,52,43.5
			z"/>
	</g>
	<g>
		<path class="st0" d="M26.054,26.946c-1.103,0-2-0.897-2-2s0.897-2,2-2s2,0.897,2,2S27.157,26.946,26.054,26.946z M26.054,23.946
			c-0.551,0-1,0.448-1,1s0.449,1,1,1s1-0.448,1-1S26.605,23.946,26.054,23.946z"/>
	</g>
	<g>
		<path class="st0" d="M37,22.5h-4c-0.276,0-0.5-0.224-0.5-0.5v-4c0-0.276,0.224-0.5,0.5-0.5h4c0.276,0,0.5,0.224,0.5,0.5v4
			C37.5,22.276,37.276,22.5,37,22.5z M33.5,21.5h3v-3h-3V21.5z"/>
	</g>
</g>
</svg>
