<?xml version="1.0" encoding="utf-8"?>
<!-- Generator: Adobe Illustrator 22.0.0, SVG Export Plug-In . SVG Version: 6.00 Build 0)  -->
<svg version="1.1" id="Layer_1" xmlns="http://www.w3.org/2000/svg" xmlns:xlink="http://www.w3.org/1999/xlink" x="0px" y="0px"
	 viewBox="0 0 64 64" style="enable-background:new 0 0 64 64;" xml:space="preserve">
<style type="text/css">
	.st0{fill:#263238;}
	.st1{fill:#4FC3F7;}
	.st2{fill:#FFD740;}
	.st3{fill:#FF5252;}
	.st4{fill:#4DB6AC;}
	.st5{fill:#FFFFFF;}
	.st6{fill:#40C4FF;}
	.st7{fill:#A2A2A1;}
	.st8{fill:#212A41;}
</style>
<g>
	<g>
		<path class="st0" d="M3.9,23.5h-2c-0.276,0-0.5-0.224-0.5-0.5s0.224-0.5,0.5-0.5h2c0.276,0,0.5,0.224,0.5,0.5S4.177,23.5,3.9,23.5
			z"/>
	</g>
	<g>
		<path class="st0" d="M16.9,23.5h-11c-0.276,0-0.5-0.224-0.5-0.5s0.224-0.5,0.5-0.5h11c0.276,0,0.5,0.224,0.5,0.5
			S17.177,23.5,16.9,23.5z"/>
	</g>
	<g>
		<path class="st0" d="M21.9,20.5h-12c-0.276,0-0.5-0.224-0.5-0.5s0.224-0.5,0.5-0.5h12c0.276,0,0.5,0.224,0.5,0.5
			S22.177,20.5,21.9,20.5z"/>
	</g>
	<g>
		<path class="st1" d="M52.9,18.5c0-1.657,1.343-3,3-3s3,1.343,3,3c1.657,0,3,1.343,3,3s-1.343,3-3,3h-6c-1.657,0-3-1.343-3-3
			S51.243,18.5,52.9,18.5z"/>
	</g>
	<g>
		<path class="st0" d="M56.4,4h-4c-0.276,0-0.5-0.224-0.5-0.5S52.124,3,52.4,3h4c0.276,0,0.5,0.224,0.5,0.5S56.677,4,56.4,4z"/>
	</g>
	<g>
		<path class="st0" d="M54.4,6c-0.276,0-0.5-0.224-0.5-0.5v-4c0-0.276,0.224-0.5,0.5-0.5s0.5,0.224,0.5,0.5v4
			C54.9,5.776,54.677,6,54.4,6z"/>
	</g>
	<g>
		<path class="st0" d="M51.4,9h-4c-0.276,0-0.5-0.224-0.5-0.5S47.124,8,47.4,8h4c0.276,0,0.5,0.224,0.5,0.5S51.677,9,51.4,9z"/>
	</g>
	<g>
		<path class="st0" d="M49.4,11c-0.276,0-0.5-0.224-0.5-0.5v-4c0-0.276,0.224-0.5,0.5-0.5s0.5,0.224,0.5,0.5v4
			C49.9,10.776,49.677,11,49.4,11z"/>
	</g>
	<g>
		<path class="st1" d="M8.901,3.5c0-1.105,0.895-2,2-2s2,0.895,2,2c1.105,0,2,0.895,2,2s-0.895,2-2,2h-4c-1.105,0-2-0.895-2-2
			S7.796,3.5,8.901,3.5z"/>
	</g>
	<g>
		<path class="st1" d="M21.036,48.036l-4.328-4.328C16.077,43.077,15,43.524,15,44.414V49.5l-3.293-3.293
			C11.077,45.577,10,46.024,10,46.914V47c0,1.381-1.119,2.5-2.5,2.5H0V50c0,6.904,5.596,12.5,12.5,12.5h39
			C58.404,62.5,64,56.904,64,50v-0.5H24.571C23.245,49.5,21.973,48.973,21.036,48.036z"/>
	</g>
	<g>
		<path class="st0" d="M48.193,48c-0.135,0-0.269-0.054-0.367-0.161c-0.188-0.203-0.175-0.519,0.028-0.706
			c0.521-0.481,0.955-1.014,1.29-1.584l2.382-4.049H11.275l1.441,2.449c0.14,0.238,0.061,0.545-0.178,0.685
			c-0.238,0.141-0.545,0.061-0.685-0.177L9.97,41.254c-0.091-0.155-0.092-0.347-0.003-0.502c0.089-0.156,0.255-0.252,0.434-0.252h42
			c0.179,0,0.345,0.096,0.434,0.252c0.089,0.155,0.088,0.347-0.003,0.502l-2.825,4.803c-0.385,0.653-0.881,1.263-1.475,1.811
			C48.437,47.956,48.315,48,48.193,48z"/>
	</g>
	<g>
		<path class="st0" d="M43.151,41.5h-23c-0.144,0-0.28-0.062-0.375-0.169c-0.095-0.107-0.139-0.251-0.121-0.394l0.5-4
			c0.031-0.25,0.244-0.438,0.496-0.438h16.623c0.678,0,1.344,0.233,1.874,0.657l4.316,3.452c0.166,0.133,0.229,0.355,0.159,0.556
			C43.552,41.366,43.363,41.5,43.151,41.5z M20.717,40.5h21.008l-3.203-2.562c-0.354-0.283-0.797-0.438-1.249-0.438H21.092
			L20.717,40.5z"/>
	</g>
	<g>
		<path class="st0" d="M29.401,34.5h-14.5c-0.204,0-0.387-0.124-0.463-0.312c-0.077-0.189-0.031-0.405,0.116-0.547l14.5-14
			c0.144-0.14,0.358-0.181,0.542-0.101c0.185,0.078,0.305,0.26,0.305,0.46v14C29.901,34.276,29.677,34.5,29.401,34.5z M16.139,33.5
			h12.762V21.178L16.139,33.5z"/>
	</g>
	<g>
		<polygon class="st2" points="32.401,34 46.901,34 32.401,13 		"/>
		<path class="st0" d="M46.901,34.5h-14.5c-0.276,0-0.5-0.224-0.5-0.5V13c0-0.219,0.142-0.412,0.351-0.478
			c0.208-0.062,0.436,0.014,0.561,0.193l14.5,21c0.105,0.153,0.118,0.352,0.031,0.517C47.257,34.396,47.087,34.5,46.901,34.5z
			 M32.901,33.5h13.047L32.901,14.604V33.5z"/>
	</g>
	<g>
		<path class="st0" d="M41.184,31.5c-0.159,0-0.315-0.075-0.412-0.216l-5.782-8.375c-0.157-0.228-0.1-0.539,0.127-0.695
			c0.227-0.158,0.538-0.101,0.696,0.127l5.782,8.375c0.157,0.228,0.1,0.539-0.127,0.695C41.381,31.472,41.282,31.5,41.184,31.5z"/>
	</g>
	<g>
		<path class="st0" d="M32.401,37.5c-0.276,0-0.5-0.224-0.5-0.5v-3c0-0.276,0.224-0.5,0.5-0.5s0.5,0.224,0.5,0.5v3
			C32.901,37.276,32.677,37.5,32.401,37.5z"/>
	</g>
	<g>
		<path class="st0" d="M29.401,37.5c-0.276,0-0.5-0.224-0.5-0.5v-3c0-0.276,0.224-0.5,0.5-0.5s0.5,0.224,0.5,0.5v3
			C29.901,37.276,29.677,37.5,29.401,37.5z"/>
	</g>
</g>
</svg>
