<?xml version="1.0" encoding="utf-8"?>
<!-- Generator: Adobe Illustrator 22.0.0, SVG Export Plug-In . SVG Version: 6.00 Build 0)  -->
<svg version="1.1" id="Layer_1" xmlns="http://www.w3.org/2000/svg" xmlns:xlink="http://www.w3.org/1999/xlink" x="0px" y="0px"
	 viewBox="0 0 64 64" style="enable-background:new 0 0 64 64;" xml:space="preserve">
<style type="text/css">
	.st0{fill:#263238;}
	.st1{fill:#4FC3F7;}
	.st2{fill:#FFD740;}
	.st3{fill:#FF5252;}
	.st4{fill:#4DB6AC;}
	.st5{fill:#FFFFFF;}
	.st6{fill:#40C4FF;}
	.st7{fill:#A2A2A1;}
	.st8{fill:#212A41;}
</style>
<g>
	<g>
		<path class="st0" d="M7.5,28.5h-2C5.224,28.5,5,28.277,5,28s0.224-0.5,0.5-0.5h2C7.776,27.5,8,27.724,8,28S7.776,28.5,7.5,28.5z"
			/>
	</g>
	<g>
		<path class="st0" d="M20.5,28.5h-11C9.224,28.5,9,28.277,9,28s0.224-0.5,0.5-0.5h11c0.276,0,0.5,0.224,0.5,0.5
			S20.776,28.5,20.5,28.5z"/>
	</g>
	<g>
		<path class="st0" d="M25.5,25.5h-12c-0.276,0-0.5-0.224-0.5-0.5s0.224-0.5,0.5-0.5h12c0.276,0,0.5,0.224,0.5,0.5
			S25.776,25.5,25.5,25.5z"/>
	</g>
	<g>
		<path class="st0" d="M3.5,56.5h-3C0.224,56.5,0,56.277,0,56s0.224-0.5,0.5-0.5h3C3.776,55.5,4,55.724,4,56S3.776,56.5,3.5,56.5z"
			/>
	</g>
	<g>
		<path class="st0" d="M63.5,56.5h-58C5.224,56.5,5,56.277,5,56s0.224-0.5,0.5-0.5h58c0.276,0,0.5,0.224,0.5,0.5
			S63.776,56.5,63.5,56.5z"/>
	</g>
	<g>
		<path class="st1" d="M51.5,12.5c0-1.657,1.343-3,3-3s3,1.343,3,3c1.657,0,3,1.343,3,3s-1.343,3-3,3h-6c-1.657,0-3-1.343-3-3
			S49.843,12.5,51.5,12.5z"/>
	</g>
	<g>
		<path class="st0" d="M38,10.5h-4c-0.276,0-0.5-0.224-0.5-0.5s0.224-0.5,0.5-0.5h4c0.276,0,0.5,0.224,0.5,0.5S38.276,10.5,38,10.5z
			"/>
	</g>
	<g>
		<path class="st0" d="M36,12.5c-0.276,0-0.5-0.224-0.5-0.5V8c0-0.276,0.224-0.5,0.5-0.5s0.5,0.224,0.5,0.5v4
			C36.5,12.277,36.276,12.5,36,12.5z"/>
	</g>
	<g>
		<path class="st0" d="M33,14.5h-4c-0.276,0-0.5-0.224-0.5-0.5s0.224-0.5,0.5-0.5h4c0.276,0,0.5,0.224,0.5,0.5S33.276,14.5,33,14.5z
			"/>
	</g>
	<g>
		<path class="st0" d="M31,16.5c-0.276,0-0.5-0.224-0.5-0.5v-4c0-0.276,0.224-0.5,0.5-0.5s0.5,0.224,0.5,0.5v4
			C31.5,16.277,31.276,16.5,31,16.5z"/>
	</g>
	<g>
		<path class="st1" d="M6.242,13.5c0-1.105,0.895-2,2-2s2,0.895,2,2c1.105,0,2,0.895,2,2s-0.895,2-2,2h-4c-1.105,0-2-0.895-2-2
			S5.138,13.5,6.242,13.5z"/>
	</g>
	<g>
		<path class="st2" d="M28.5,49h-18c-0.552,0-1-0.448-1-1v-4c0-4.142,3.358-7.5,7.5-7.5h13.5c0.552,0,1,0.448,1,1v1.121
			c0,0.563-0.223,1.102-0.621,1.5L28.5,42.5V49z"/>
		<path class="st0" d="M28.5,49.5h-18C9.673,49.5,9,48.828,9,48v-4c0-4.411,3.589-8,8-8h13.5c0.827,0,1.5,0.673,1.5,1.5v1.121
			c0,0.7-0.272,1.358-0.768,1.854L29,42.708V49C29,49.277,28.776,49.5,28.5,49.5z M17,37c-3.859,0-7,3.14-7,7v4
			c0,0.276,0.225,0.5,0.5,0.5H28v-6c0-0.133,0.053-0.26,0.146-0.354l2.379-2.379C30.831,39.461,31,39.054,31,38.622V37.5
			c0-0.276-0.225-0.5-0.5-0.5H17z"/>
	</g>
	<g>
		<path class="st0" d="M29.5,37h-14c-0.276,0-0.5-0.224-0.5-0.5V35c0-1.654,1.346-3,3-3h9c1.654,0,3,1.346,3,3v1.5
			C30,36.777,29.776,37,29.5,37z M16,36h13v-1c0-1.103-0.897-2-2-2h-9c-1.103,0-2,0.897-2,2V36z"/>
	</g>
	<g>
		<path class="st2" d="M44.5,30.001H40v-2.5c0-1.381,1.119-2.5,2.5-2.5h2c0.552,0,1,0.448,1,1v3
			C45.5,29.553,45.052,30.001,44.5,30.001z"/>
		<path class="st0" d="M44.5,30.501H40c-0.276,0-0.5-0.224-0.5-0.5v-2.5c0-1.654,1.346-3,3-3h2c0.827,0,1.5,0.673,1.5,1.5v3
			C46,29.828,45.327,30.501,44.5,30.501z M40.5,29.501h4c0.275,0,0.5-0.224,0.5-0.5v-3c0-0.276-0.225-0.5-0.5-0.5h-2
			c-1.103,0-2,0.897-2,2V29.501z"/>
	</g>
	<g>
		<polygon class="st2" points="42.008,30.001 40,30 40,46 28.5,46 28.5,49 47.508,49 		"/>
		<path class="st0" d="M47.508,49.5H28.5c-0.276,0-0.5-0.224-0.5-0.5v-3c0-0.276,0.224-0.5,0.5-0.5h11V30
			c0-0.133,0.053-0.26,0.146-0.354S39.867,29.5,40,29.5l0,0l2.008,0c0.223,0,0.418,0.147,0.48,0.361l5.5,19
			c0.044,0.151,0.014,0.314-0.081,0.439C47.813,49.427,47.665,49.5,47.508,49.5z M29,48.5h17.843l-5.211-18l-1.132,0V46
			c0,0.276-0.224,0.5-0.5,0.5H29V48.5z"/>
	</g>
	<g>
		<path class="st2" d="M53.157,43.343C51.709,41.896,49.709,41,47.5,41c-4.418,0-8,3.582-8,8h8L53.157,43.343z"/>
		<path class="st0" d="M47.5,49.5h-8c-0.276,0-0.5-0.224-0.5-0.5c0-4.687,3.813-8.5,8.5-8.5c2.27,0,4.404,0.884,6.011,2.489
			c0.094,0.094,0.146,0.221,0.146,0.354c0,0.132-0.053,0.26-0.146,0.354l-5.657,5.657C47.76,49.448,47.633,49.5,47.5,49.5z
			 M40.017,48.5h7.276l5.146-5.146C51.07,42.156,49.335,41.5,47.5,41.5C43.532,41.5,40.274,44.597,40.017,48.5z"/>
	</g>
	<g>
		<path class="st0" d="M47.5,56.5c-3.292,0-6.246-2.203-7.186-5.357c-0.078-0.265,0.072-0.543,0.337-0.622
			c0.269-0.081,0.544,0.072,0.622,0.336c0.813,2.733,3.374,4.643,6.227,4.643c3.584,0,6.5-2.916,6.5-6.5
			c0-1.08-0.271-2.149-0.781-3.092c-0.132-0.243-0.042-0.546,0.201-0.678c0.238-0.13,0.545-0.043,0.678,0.201
			C54.688,46.521,55,47.754,55,49C55,53.136,51.636,56.5,47.5,56.5z"/>
	</g>
	<g>
		<path class="st0" d="M40,30.5h-4c-0.827,0-1.5-0.673-1.5-1.5v-1c0-0.827,0.673-1.5,1.5-1.5h4c0.276,0,0.5,0.224,0.5,0.5v3
			C40.5,30.277,40.276,30.5,40,30.5z M36,27.501c-0.275,0-0.5,0.224-0.5,0.5v1c0,0.276,0.225,0.5,0.5,0.5h3.5v-2H36z"/>
	</g>
	<g>
		<path class="st0" d="M27.5,49.5c-0.276,0-0.5-0.224-0.5-0.5c0-4.136-3.364-7.5-7.5-7.5S12,44.865,12,49c0,0.276-0.224,0.5-0.5,0.5
			S11,49.277,11,49c0-4.687,3.813-8.5,8.5-8.5S28,44.313,28,49C28,49.277,27.776,49.5,27.5,49.5z"/>
	</g>
	<g>
		<path class="st0" d="M22,46h-5c-0.276,0-0.5-0.224-0.5-0.5S16.724,45,17,45h5c0.276,0,0.5,0.224,0.5,0.5S22.276,46,22,46z"/>
	</g>
	<g>
		<path class="st0" d="M19.5,56.5c-3.292,0-6.246-2.203-7.186-5.357c-0.078-0.265,0.072-0.543,0.337-0.622
			c0.267-0.081,0.544,0.072,0.622,0.336c0.813,2.733,3.374,4.643,6.227,4.643s5.413-1.909,6.227-4.643
			c0.078-0.264,0.354-0.417,0.622-0.336c0.265,0.079,0.415,0.357,0.337,0.622C25.746,54.297,22.792,56.5,19.5,56.5z"/>
	</g>
	<g>
		<path class="st0" d="M47.508,53c-1.302,0-2.526-0.641-3.277-1.713c-0.158-0.227-0.103-0.538,0.124-0.696
			c0.224-0.157,0.537-0.104,0.696,0.123C45.614,51.52,46.532,52,47.508,52c1.654,0,3-1.346,3-3c0-0.181-0.023-0.357-0.055-0.529
			c-0.049-0.272,0.132-0.532,0.403-0.581c0.276-0.048,0.531,0.132,0.581,0.404c0.041,0.23,0.07,0.464,0.07,0.706
			C51.508,51.206,49.714,53,47.508,53z"/>
	</g>
	<g>
		<path class="st0" d="M19.5,53c-1.302,0-2.526-0.641-3.276-1.714c-0.158-0.226-0.103-0.538,0.124-0.696
			c0.225-0.157,0.537-0.104,0.696,0.124C17.606,51.52,18.524,52,19.5,52s1.894-0.481,2.456-1.286
			c0.159-0.228,0.473-0.281,0.696-0.124c0.227,0.158,0.282,0.47,0.124,0.696C22.026,52.36,20.802,53,19.5,53z"/>
	</g>
</g>
</svg>
