<?xml version="1.0" encoding="utf-8"?>
<!-- Generator: Adobe Illustrator 22.0.0, SVG Export Plug-In . SVG Version: 6.00 Build 0)  -->
<svg version="1.1" id="Layer_1" xmlns="http://www.w3.org/2000/svg" xmlns:xlink="http://www.w3.org/1999/xlink" x="0px" y="0px"
	 viewBox="0 0 64 64" style="enable-background:new 0 0 64 64;" xml:space="preserve">
<style type="text/css">
	.st0{fill:#263238;}
	.st1{fill:#4FC3F7;}
	.st2{fill:#FFD740;}
	.st3{fill:#FF5252;}
	.st4{fill:#4DB6AC;}
	.st5{fill:#FFFFFF;}
	.st6{fill:#40C4FF;}
	.st7{fill:#A2A2A1;}
	.st8{fill:#212A41;}
</style>
<g>
	<g>
		<path class="st0" d="M25.5,12.5h-2c-0.276,0-0.5-0.224-0.5-0.5s0.224-0.5,0.5-0.5h2c0.276,0,0.5,0.224,0.5,0.5
			S25.776,12.5,25.5,12.5z"/>
	</g>
	<g>
		<path class="st0" d="M38.5,12.5h-11c-0.276,0-0.5-0.224-0.5-0.5s0.224-0.5,0.5-0.5h11c0.276,0,0.5,0.224,0.5,0.5
			S38.776,12.5,38.5,12.5z"/>
	</g>
	<g>
		<path class="st0" d="M43.5,9.5h-12C31.224,9.5,31,9.276,31,9s0.224-0.5,0.5-0.5h12C43.776,8.5,44,8.724,44,9S43.776,9.5,43.5,9.5z
			"/>
	</g>
	<g>
		<path class="st0" d="M3.5,61.5h-3C0.224,61.5,0,61.276,0,61s0.224-0.5,0.5-0.5h3C3.776,60.5,4,60.724,4,61S3.776,61.5,3.5,61.5z"
			/>
	</g>
	<g>
		<path class="st0" d="M63.5,61.5h-58C5.224,61.5,5,61.276,5,61s0.224-0.5,0.5-0.5h58c0.276,0,0.5,0.224,0.5,0.5
			S63.776,61.5,63.5,61.5z"/>
	</g>
	<g>
		<path class="st1" d="M9.5,6c0-1.657,1.343-3,3-3s3,1.343,3,3c1.657,0,3,1.343,3,3s-1.343,3-3,3h-6c-1.657,0-3-1.343-3-3
			S7.843,6,9.5,6z"/>
	</g>
	<g>
		<path class="st0" d="M57,11.5h-4c-0.276,0-0.5-0.224-0.5-0.5s0.224-0.5,0.5-0.5h4c0.276,0,0.5,0.224,0.5,0.5S57.276,11.5,57,11.5z
			"/>
	</g>
	<g>
		<path class="st0" d="M55,13.5c-0.276,0-0.5-0.224-0.5-0.5V9c0-0.276,0.224-0.5,0.5-0.5s0.5,0.224,0.5,0.5v4
			C55.5,13.276,55.276,13.5,55,13.5z"/>
	</g>
	<g>
		<path class="st0" d="M52,16.5h-4c-0.276,0-0.5-0.224-0.5-0.5s0.224-0.5,0.5-0.5h4c0.276,0,0.5,0.224,0.5,0.5S52.276,16.5,52,16.5z
			"/>
	</g>
	<g>
		<path class="st0" d="M50,18.5c-0.276,0-0.5-0.224-0.5-0.5v-4c0-0.276,0.224-0.5,0.5-0.5s0.5,0.224,0.5,0.5v4
			C50.5,18.276,50.276,18.5,50,18.5z"/>
	</g>
	<g>
		<path class="st1" d="M51,30c0-1.105,0.895-2,2-2s2,0.895,2,2c1.105,0,2,0.895,2,2c0,1.105-0.895,2-2,2h-4c-1.105,0-2-0.895-2-2
			C49,30.895,49.896,30,51,30z"/>
	</g>
	<g>
		<path class="st0" d="M11,61.5c-3.033,0-5.5-2.468-5.5-5.5s2.467-5.5,5.5-5.5s5.5,2.468,5.5,5.5S14.033,61.5,11,61.5z M11,51.5
			c-2.481,0-4.5,2.019-4.5,4.5s2.019,4.5,4.5,4.5s4.5-2.019,4.5-4.5S13.481,51.5,11,51.5z"/>
	</g>
	<g>
		<path class="st0" d="M11,58.5c-1.378,0-2.5-1.121-2.5-2.5s1.122-2.5,2.5-2.5s2.5,1.121,2.5,2.5S12.378,58.5,11,58.5z M11,54.5
			c-0.827,0-1.5,0.673-1.5,1.5s0.673,1.5,1.5,1.5s1.5-0.673,1.5-1.5S11.827,54.5,11,54.5z"/>
	</g>
	<g>
		<path class="st0" d="M33.5,61.5c-3.033,0-5.5-2.468-5.5-5.5s2.467-5.5,5.5-5.5S39,52.968,39,56S36.533,61.5,33.5,61.5z M33.5,51.5
			c-2.481,0-4.5,2.019-4.5,4.5s2.019,4.5,4.5,4.5S38,58.481,38,56S35.981,51.5,33.5,51.5z"/>
	</g>
	<g>
		<path class="st0" d="M33.5,58.5c-1.378,0-2.5-1.121-2.5-2.5s1.122-2.5,2.5-2.5S36,54.621,36,56S34.878,58.5,33.5,58.5z M33.5,54.5
			c-0.827,0-1.5,0.673-1.5,1.5s0.673,1.5,1.5,1.5S35,56.827,35,56S34.327,54.5,33.5,54.5z"/>
	</g>
	<g>
		<rect x="6.5" y="36" class="st2" width="31.5" height="10"/>
		<path class="st0" d="M38,46.5H6.5C6.224,46.5,6,46.276,6,46V36c0-0.276,0.224-0.5,0.5-0.5H38c0.276,0,0.5,0.224,0.5,0.5v10
			C38.5,46.276,38.276,46.5,38,46.5z M7,45.5h30.5v-9H7V45.5z"/>
	</g>
	<g>
		<path class="st2" d="M37,26H7.5c-0.552,0-1-0.448-1-1v-1c0-0.552,0.448-1,1-1H37c0.552,0,1,0.448,1,1v1C38,25.552,37.552,26,37,26
			z"/>
		<path class="st0" d="M37,26.5H7.5C6.673,26.5,6,25.827,6,25v-1c0-0.827,0.673-1.5,1.5-1.5H37c0.827,0,1.5,0.673,1.5,1.5v1
			C38.5,25.827,37.827,26.5,37,26.5z M7.5,23.5C7.224,23.5,7,23.725,7,24v1c0,0.275,0.224,0.5,0.5,0.5H37c0.276,0,0.5-0.225,0.5-0.5
			v-1c0-0.275-0.224-0.5-0.5-0.5H7.5z"/>
	</g>
	<g>
		<path class="st0" d="M7.5,36.5C7.224,36.5,7,36.276,7,36V26c0-0.276,0.224-0.5,0.5-0.5S8,25.724,8,26v10
			C8,36.276,7.776,36.5,7.5,36.5z"/>
	</g>
	<g>
		<path class="st0" d="M37,36.5c-0.276,0-0.5-0.224-0.5-0.5V26c0-0.276,0.224-0.5,0.5-0.5s0.5,0.224,0.5,0.5v10
			C37.5,36.276,37.276,36.5,37,36.5z"/>
	</g>
	<g>
		<path class="st0" d="M58,54H42c-0.185,0-0.354-0.102-0.441-0.265l-4-7.5c-0.083-0.155-0.078-0.342,0.013-0.492
			C37.662,45.592,37.824,45.5,38,45.5h16c0.185,0,0.354,0.102,0.441,0.265l4,7.5c0.083,0.155,0.078,0.342-0.013,0.492
			C58.338,53.908,58.176,54,58,54z M42.3,53h14.867L53.7,46.5H38.833L42.3,53z"/>
	</g>
	<g>
		<path class="st0" d="M11,49.5c-0.276,0-0.5-0.224-0.5-0.5v-3c0-0.276,0.224-0.5,0.5-0.5s0.5,0.224,0.5,0.5v3
			C11.5,49.276,11.276,49.5,11,49.5z"/>
	</g>
	<g>
		<path class="st0" d="M33.5,49.5c-0.276,0-0.5-0.224-0.5-0.5v-3c0-0.276,0.224-0.5,0.5-0.5S34,45.724,34,46v3
			C34,49.276,33.776,49.5,33.5,49.5z"/>
	</g>
	<g>
		<path class="st0" d="M26.5,56.5H18c-0.276,0-0.5-0.224-0.5-0.5s0.224-0.5,0.5-0.5h8.5c0.276,0,0.5,0.224,0.5,0.5
			S26.776,56.5,26.5,56.5z"/>
	</g>
	<g>
		<path class="st0" d="M36,39.75H8.5c-0.276,0-0.5-0.224-0.5-0.5s0.224-0.5,0.5-0.5H36c0.276,0,0.5,0.224,0.5,0.5
			S36.276,39.75,36,39.75z"/>
	</g>
	<g>
		<path class="st0" d="M36,43.25H8.5c-0.276,0-0.5-0.224-0.5-0.5s0.224-0.5,0.5-0.5H36c0.276,0,0.5,0.224,0.5,0.5
			S36.276,43.25,36,43.25z"/>
	</g>
	<g>
		<path class="st0" d="M17.25,36.5c-0.276,0-0.5-0.224-0.5-0.5V26c0-0.276,0.224-0.5,0.5-0.5s0.5,0.224,0.5,0.5v10
			C17.75,36.276,17.526,36.5,17.25,36.5z"/>
	</g>
	<g>
		<path class="st0" d="M27.25,36.5c-0.276,0-0.5-0.224-0.5-0.5V26c0-0.276,0.224-0.5,0.5-0.5s0.5,0.224,0.5,0.5v10
			C27.75,36.276,27.526,36.5,27.25,36.5z"/>
	</g>
	<g>
		<path class="st0" d="M42,54c-0.079,0-0.16-0.019-0.235-0.059c-0.244-0.13-0.336-0.433-0.206-0.677l4-7.5
			c0.174-0.326,0.709-0.326,0.883,0L50,52.438l3.559-6.673c0.13-0.244,0.432-0.337,0.677-0.206c0.244,0.13,0.336,0.433,0.206,0.677
			l-4,7.5c-0.174,0.326-0.709,0.326-0.883,0L46,47.062l-3.559,6.673C42.351,53.904,42.178,54,42,54z"/>
	</g>
	<g>
		<path class="st0" d="M22.25,56.5c-0.276,0-0.5-0.224-0.5-0.5V46c0-0.276,0.224-0.5,0.5-0.5s0.5,0.224,0.5,0.5v10
			C22.75,56.276,22.526,56.5,22.25,56.5z"/>
	</g>
</g>
</svg>
