<?xml version="1.0" encoding="utf-8"?>
<!-- Generator: Adobe Illustrator 22.0.0, SVG Export Plug-In . SVG Version: 6.00 Build 0)  -->
<svg version="1.1" id="Layer_1" xmlns="http://www.w3.org/2000/svg" xmlns:xlink="http://www.w3.org/1999/xlink" x="0px" y="0px"
	 viewBox="0 0 64 64" style="enable-background:new 0 0 64 64;" xml:space="preserve">
<style type="text/css">
	.st0{fill:#263238;}
	.st1{fill:#4FC3F7;}
	.st2{fill:#FFD740;}
	.st3{fill:#FF5252;}
	.st4{fill:#4DB6AC;}
	.st5{fill:#FFFFFF;}
	.st6{fill:#40C4FF;}
	.st7{fill:#A2A2A1;}
	.st8{fill:#212A41;}
</style>
<g>
	<g>
		<path class="st2" d="M53.748,48.862C54.225,49.807,54.5,50.871,54.5,52c0,1.958-0.81,3.728-2.111,5H58v-9.497
			C56.665,48.188,55.235,48.652,53.748,48.862z"/>
	</g>
	<g>
		<path class="st2" d="M51.848,42c1.341,0,2.629-0.406,3.728-1.175l2.417-1.692c0.003-0.002,0.005-0.003,0.008-0.004V29h-8
			c0,5.116-2.145,9.723-5.571,13H51.848z"/>
	</g>
	<g>
		<path class="st2" d="M21.389,57h21.221c-1.3-1.272-2.111-3.042-2.111-5c0-1.074,0.251-2.089,0.685-3h-18.37
			c0.435,0.911,0.685,1.926,0.685,3C23.5,53.958,22.69,55.728,21.389,57z"/>
	</g>
	<g>
		<path class="st2" d="M6.007,39.132l2.418,1.692C9.523,41.594,10.812,42,12.152,42h7.419C16.145,38.723,14,34.116,14,29H6v10.128
			C6.002,39.13,6.005,39.131,6.007,39.132z"/>
	</g>
	<g>
		<path class="st2" d="M9.5,52c0-1.129,0.275-2.193,0.752-3.138C8.765,48.652,7.335,48.188,6,47.503V57h5.611
			C10.31,55.728,9.5,53.958,9.5,52z"/>
	</g>
	<g>
		<path class="st0" d="M24,26.5h-2c-0.276,0-0.5-0.224-0.5-0.5s0.224-0.5,0.5-0.5h2c0.276,0,0.5,0.224,0.5,0.5S24.276,26.5,24,26.5z
			"/>
	</g>
	<g>
		<path class="st0" d="M37,26.5H26c-0.276,0-0.5-0.224-0.5-0.5s0.224-0.5,0.5-0.5h11c0.276,0,0.5,0.224,0.5,0.5S37.276,26.5,37,26.5
			z"/>
	</g>
	<g>
		<path class="st0" d="M42,23.5H30c-0.276,0-0.5-0.224-0.5-0.5s0.224-0.5,0.5-0.5h12c0.276,0,0.5,0.224,0.5,0.5S42.276,23.5,42,23.5
			z"/>
	</g>
	<g>
		<path class="st0" d="M47.5,57.5c-3.032,0-5.5-2.467-5.5-5.5s2.468-5.5,5.5-5.5S53,48.967,53,52S50.532,57.5,47.5,57.5z M47.5,47.5
			c-2.481,0-4.5,2.019-4.5,4.5s2.019,4.5,4.5,4.5S52,54.481,52,52S49.981,47.5,47.5,47.5z"/>
	</g>
	<g>
		<circle class="st3" cx="47.5" cy="52" r="2"/>
		<path class="st0" d="M47.5,54.5c-1.379,0-2.5-1.122-2.5-2.5s1.121-2.5,2.5-2.5S50,50.622,50,52S48.879,54.5,47.5,54.5z M47.5,50.5
			c-0.827,0-1.5,0.673-1.5,1.5s0.673,1.5,1.5,1.5S49,52.827,49,52S48.327,50.5,47.5,50.5z"/>
	</g>
	<g>
		<path class="st0" d="M16.5,57.5c-3.032,0-5.5-2.467-5.5-5.5s2.468-5.5,5.5-5.5S22,48.967,22,52S19.532,57.5,16.5,57.5z M16.5,47.5
			c-2.481,0-4.5,2.019-4.5,4.5s2.019,4.5,4.5,4.5S21,54.481,21,52S18.981,47.5,16.5,47.5z"/>
	</g>
	<g>
		<circle class="st3" cx="16.5" cy="52" r="2"/>
		<path class="st0" d="M16.5,54.5c-1.379,0-2.5-1.122-2.5-2.5s1.121-2.5,2.5-2.5S19,50.622,19,52S17.879,54.5,16.5,54.5z M16.5,50.5
			c-0.827,0-1.5,0.673-1.5,1.5s0.673,1.5,1.5,1.5S18,52.827,18,52S17.327,50.5,16.5,50.5z"/>
	</g>
	<g>
		<path class="st0" d="M3.5,57.5h-3C0.224,57.5,0,57.276,0,57s0.224-0.5,0.5-0.5h3C3.776,56.5,4,56.724,4,57S3.776,57.5,3.5,57.5z"
			/>
	</g>
	<g>
		<path class="st0" d="M63.5,57.5h-58C5.224,57.5,5,57.276,5,57s0.224-0.5,0.5-0.5h58c0.276,0,0.5,0.224,0.5,0.5
			S63.776,57.5,63.5,57.5z"/>
	</g>
	<g>
		<path class="st1" d="M6,10c0-1.657,1.343-3,3-3s3,1.343,3,3c1.657,0,3,1.343,3,3s-1.343,3-3,3H6c-1.657,0-3-1.343-3-3
			S4.343,10,6,10z"/>
	</g>
	<g>
		<path class="st0" d="M57.5,9.5h-4C53.224,9.5,53,9.276,53,9s0.224-0.5,0.5-0.5h4C57.776,8.5,58,8.724,58,9S57.776,9.5,57.5,9.5z"
			/>
	</g>
	<g>
		<path class="st0" d="M55.5,11.5c-0.276,0-0.5-0.224-0.5-0.5V7c0-0.276,0.224-0.5,0.5-0.5S56,6.724,56,7v4
			C56,11.276,55.776,11.5,55.5,11.5z"/>
	</g>
	<g>
		<path class="st0" d="M52.5,13.5h-4c-0.276,0-0.5-0.224-0.5-0.5s0.224-0.5,0.5-0.5h4c0.276,0,0.5,0.224,0.5,0.5
			S52.776,13.5,52.5,13.5z"/>
	</g>
	<g>
		<path class="st0" d="M50.5,15.5c-0.276,0-0.5-0.224-0.5-0.5v-4c0-0.276,0.224-0.5,0.5-0.5S51,10.724,51,11v4
			C51,15.276,50.776,15.5,50.5,15.5z"/>
	</g>
	<g>
		<path class="st0" d="M51.848,47.5H12.152c-2.476,0-4.854-0.75-6.882-2.169l-2.418-1.692c-0.438-0.307-0.729-0.765-0.822-1.291
			c-0.093-0.526,0.025-1.057,0.332-1.495c0.306-0.437,0.764-0.729,1.291-0.822c0.528-0.094,1.058,0.025,1.494,0.331l2.418,1.692
			C8.916,43,10.502,43.5,12.152,43.5h39.695c1.649,0,3.236-0.5,4.587-1.446l2.418-1.693c0.905-0.632,2.153-0.412,2.786,0.492
			c0.306,0.438,0.424,0.968,0.331,1.495c-0.093,0.526-0.385,0.984-0.822,1.291l-2.418,1.692C56.702,46.75,54.322,47.5,51.848,47.5z
			 M4.003,41c-0.059,0-0.117,0.005-0.177,0.016c-0.263,0.046-0.492,0.192-0.645,0.411c-0.154,0.219-0.213,0.484-0.167,0.748
			c0.047,0.263,0.193,0.492,0.412,0.646l2.418,1.692c1.857,1.301,4.038,1.989,6.308,1.989h39.695c2.269,0,4.45-0.688,6.308-1.988
			l2.418-1.692c0.219-0.153,0.365-0.382,0.412-0.646c0.046-0.263-0.013-0.528-0.166-0.747c-0.316-0.452-0.941-0.562-1.394-0.246
			l-2.417,1.692c-1.521,1.064-3.305,1.626-5.161,1.626H12.152c-1.856,0-3.641-0.562-5.161-1.627l-2.418-1.692
			C4.404,41.062,4.206,41,4.003,41z"/>
	</g>
</g>
</svg>
