<?xml version="1.0" encoding="utf-8"?>
<!-- Generator: Adobe Illustrator 22.0.0, SVG Export Plug-In . SVG Version: 6.00 Build 0)  -->
<svg version="1.1" id="Layer_1" xmlns="http://www.w3.org/2000/svg" xmlns:xlink="http://www.w3.org/1999/xlink" x="0px" y="0px"
	 viewBox="0 0 64 64" style="enable-background:new 0 0 64 64;" xml:space="preserve">
<style type="text/css">
	.st0{fill:#263238;}
	.st1{fill:#4FC3F7;}
	.st2{fill:#FFD740;}
	.st3{fill:#FF5252;}
	.st4{fill:#4DB6AC;}
	.st5{fill:#FFFFFF;}
	.st6{fill:#40C4FF;}
	.st7{fill:#A2A2A1;}
	.st8{fill:#212A41;}
</style>
<g>
	<g>
		<path class="st0" d="M21.5,15.5h-2c-0.276,0-0.5-0.224-0.5-0.5s0.224-0.5,0.5-0.5h2c0.276,0,0.5,0.224,0.5,0.5
			S21.776,15.5,21.5,15.5z"/>
	</g>
	<g>
		<path class="st0" d="M34.5,15.5h-11c-0.276,0-0.5-0.224-0.5-0.5s0.224-0.5,0.5-0.5h11c0.276,0,0.5,0.224,0.5,0.5
			S34.776,15.5,34.5,15.5z"/>
	</g>
	<g>
		<path class="st0" d="M39.5,12.5h-12c-0.276,0-0.5-0.224-0.5-0.5s0.224-0.5,0.5-0.5h12c0.276,0,0.5,0.224,0.5,0.5
			S39.776,12.5,39.5,12.5z"/>
	</g>
	<g>
		<path class="st1" d="M4.5,6c0-1.657,1.343-3,3-3s3,1.343,3,3c1.657,0,3,1.343,3,3s-1.343,3-3,3h-6c-1.657,0-3-1.343-3-3
			S2.843,6,4.5,6z"/>
	</g>
	<g>
		<path class="st0" d="M57,7.5h-4c-0.276,0-0.5-0.224-0.5-0.5s0.224-0.5,0.5-0.5h4c0.276,0,0.5,0.224,0.5,0.5S57.276,7.5,57,7.5z"/>
	</g>
	<g>
		<path class="st0" d="M55,9.5c-0.276,0-0.5-0.224-0.5-0.5V5c0-0.276,0.224-0.5,0.5-0.5s0.5,0.224,0.5,0.5v4
			C55.5,9.276,55.276,9.5,55,9.5z"/>
	</g>
	<g>
		<path class="st0" d="M52,12.5h-4c-0.276,0-0.5-0.224-0.5-0.5s0.224-0.5,0.5-0.5h4c0.276,0,0.5,0.224,0.5,0.5S52.276,12.5,52,12.5z
			"/>
	</g>
	<g>
		<path class="st0" d="M50,14.5c-0.276,0-0.5-0.224-0.5-0.5v-4c0-0.276,0.224-0.5,0.5-0.5s0.5,0.224,0.5,0.5v4
			C50.5,14.276,50.276,14.5,50,14.5z"/>
	</g>
	<g>
		<path class="st1" d="M56,23c0-1.105,0.895-2,2-2s2,0.895,2,2c1.215,0,2.176,1.083,1.973,2.336C61.813,26.319,60.89,27,59.893,27
			h-4.854C53.032,25.236,54.255,23,56,23z"/>
	</g>
	<g>
		<path class="st0" d="M50.5,51.5H35c-0.276,0-0.5-0.224-0.5-0.5s0.224-0.5,0.5-0.5h15.5c1.103,0,2-0.897,2-2
			c0-0.276,0.224-0.5,0.5-0.5s0.5,0.224,0.5,0.5C53.5,50.154,52.154,51.5,50.5,51.5z"/>
	</g>
	<g>
		<path class="st0" d="M48,51.5c-0.276,0-0.5-0.224-0.5-0.5v-3c0-0.276,0.224-0.5,0.5-0.5s0.5,0.224,0.5,0.5v3
			C48.5,51.276,48.276,51.5,48,51.5z"/>
	</g>
	<g>
		<path class="st0" d="M40,51.5c-0.276,0-0.5-0.224-0.5-0.5v-3c0-0.276,0.224-0.5,0.5-0.5s0.5,0.224,0.5,0.5v3
			C40.5,51.276,40.276,51.5,40,51.5z"/>
	</g>
	<g>
		<path class="st0" d="M46.38,46.5H30.787c-0.276,0-0.5-0.224-0.5-0.5s0.224-0.5,0.5-0.5H46.38c2.218,0,4.377-0.782,6.081-2.201
			l2.799-2.332l-4.685-4.685c-1.794-1.794-4.18-2.782-6.718-2.782h-8.764l-8.912,3.466C26.123,36.988,26.062,37,26,37H12
			c-0.275,0-0.5,0.225-0.5,0.5V41c0,0.276-0.224,0.5-0.5,0.5s-0.5-0.224-0.5-0.5v-3.5c0-0.827,0.673-1.5,1.5-1.5h13.906l8.912-3.466
			C34.877,32.512,34.938,32.5,35,32.5h8.857c2.805,0,5.441,1.092,7.425,3.075l5.071,5.071c0.1,0.1,0.152,0.235,0.146,0.376
			c-0.006,0.141-0.071,0.271-0.179,0.361l-3.219,2.683C51.218,45.636,48.831,46.5,46.38,46.5z"/>
	</g>
	<g>
		<path class="st2" d="M25,48.5H12c-0.829,0-1.5-0.672-1.5-1.5s0.671-1.5,1.5-1.5h13c0.829,0,1.5,0.672,1.5,1.5S25.829,48.5,25,48.5
			z"/>
		<path class="st0" d="M25,49H12c-1.103,0-2-0.897-2-2s0.897-2,2-2h13c1.103,0,2,0.897,2,2S26.103,49,25,49z M12,46
			c-0.552,0-1,0.448-1,1s0.448,1,1,1h13c0.552,0,1-0.448,1-1s-0.448-1-1-1H12z"/>
	</g>
	<g>
		<path class="st0" d="M35,33.5c-0.166,0-0.329-0.083-0.424-0.235L32.223,29.5H29c-0.276,0-0.5-0.224-0.5-0.5s0.224-0.5,0.5-0.5h3.5
			c0.173,0,0.333,0.089,0.424,0.235l2.5,4c0.146,0.233,0.075,0.542-0.159,0.688C35.183,33.476,35.091,33.5,35,33.5z"/>
	</g>
	<g>
		<path class="st0" d="M25.5,37h-12c-0.276,0-0.5-0.224-0.5-0.5v-2c0-0.827,0.673-1.5,1.5-1.5h10c0.827,0,1.5,0.673,1.5,1.5v2
			C26,36.776,25.776,37,25.5,37z M14,36h11v-1.5c0-0.275-0.225-0.5-0.5-0.5h-10c-0.275,0-0.5,0.225-0.5,0.5V36z"/>
	</g>
	<g>
		<path class="st0" d="M41.449,33.5h-3.498c-0.176,0-0.339-0.092-0.429-0.243l-3.737-6.229c-0.093-0.154-0.095-0.347-0.007-0.503
			c0.089-0.157,0.256-0.254,0.436-0.254h3.498c0.176,0,0.338,0.092,0.429,0.243l3.737,6.229c0.093,0.154,0.095,0.347,0.007,0.503
			C41.796,33.403,41.629,33.5,41.449,33.5z M38.234,32.5h2.332l-3.138-5.229h-2.332L38.234,32.5z"/>
	</g>
	<g>
		<path class="st2" d="M46.5,37l2.536,2.536C49.973,40.473,51.245,41,52.571,41H56l-4-4H46.5z"/>
		<path class="st0" d="M56,41.5h-3.429c-1.47,0-2.851-0.572-3.89-1.611l-2.535-2.535c-0.143-0.143-0.186-0.358-0.108-0.545
			S46.298,36.5,46.5,36.5H52c0.133,0,0.26,0.053,0.354,0.146l4,4c0.143,0.143,0.186,0.358,0.108,0.545S56.202,41.5,56,41.5z
			 M47.707,37.5l1.682,1.682c0.851,0.851,1.98,1.318,3.183,1.318h2.222l-3-3H47.707z"/>
	</g>
	<g>
		<path class="st0" d="M25,51.5H12c-2.481,0-4.5-2.019-4.5-4.5s2.019-4.5,4.5-4.5h13c2.481,0,4.5,2.019,4.5,4.5S27.481,51.5,25,51.5
			z M12,43.5c-1.93,0-3.5,1.57-3.5,3.5s1.57,3.5,3.5,3.5h13c1.93,0,3.5-1.57,3.5-3.5s-1.57-3.5-3.5-3.5H12z"/>
	</g>
	<g>
		<path class="st1" d="M54.949,49c-0.252,2.244-2.139,4-4.449,4H35.107c-0.996,0-1.92-0.681-2.08-1.664
			C32.823,50.083,33.785,49,35,49h-4.35c-0.726,2.043-2.525,3.576-4.719,3.92c-0.008,0.001-0.016,0.002-0.024,0.004
			C25.611,52.969,25.309,53,25,53H12c-0.309,0-0.611-0.031-0.907-0.076c-0.008-0.001-0.016-0.002-0.024-0.004
			C8.875,52.576,7.076,51.043,6.35,49H0v2c0,5.523,4.477,10,10,10h44c5.523,0,10-4.477,10-10v-2H54.949z"/>
	</g>
</g>
</svg>
