<?xml version="1.0" encoding="utf-8"?>
<!-- Generator: Adobe Illustrator 22.0.0, SVG Export Plug-In . SVG Version: 6.00 Build 0)  -->
<svg version="1.1" id="Layer_1" xmlns="http://www.w3.org/2000/svg" xmlns:xlink="http://www.w3.org/1999/xlink" x="0px" y="0px"
	 viewBox="0 0 64 64" style="enable-background:new 0 0 64 64;" xml:space="preserve">
<style type="text/css">
	.st0{fill:#263238;}
	.st1{fill:#4FC3F7;}
	.st2{fill:#FFD740;}
	.st3{fill:#FF5252;}
	.st4{fill:#4DB6AC;}
	.st5{fill:#FFFFFF;}
	.st6{fill:#40C4FF;}
	.st7{fill:#A2A2A1;}
	.st8{fill:#212A41;}
</style>
<g>
	<g>
		<path class="st0" d="M3.5,62.5h-3C0.224,62.5,0,62.276,0,62s0.224-0.5,0.5-0.5h3C3.776,61.5,4,61.724,4,62S3.776,62.5,3.5,62.5z"
			/>
	</g>
	<g>
		<path class="st0" d="M63.5,62.5h-58C5.224,62.5,5,62.276,5,62s0.224-0.5,0.5-0.5h58c0.276,0,0.5,0.224,0.5,0.5
			S63.776,62.5,63.5,62.5z"/>
	</g>
	<g>
		<path class="st0" d="M58.5,10.625h-4c-0.276,0-0.5-0.224-0.5-0.5s0.224-0.5,0.5-0.5h4c0.276,0,0.5,0.224,0.5,0.5
			S58.776,10.625,58.5,10.625z"/>
	</g>
	<g>
		<path class="st0" d="M56.5,12.625c-0.276,0-0.5-0.224-0.5-0.5v-4c0-0.276,0.224-0.5,0.5-0.5s0.5,0.224,0.5,0.5v4
			C57,12.401,56.776,12.625,56.5,12.625z"/>
	</g>
	<g>
		<path class="st0" d="M53,15.125h-4c-0.276,0-0.5-0.224-0.5-0.5s0.224-0.5,0.5-0.5h4c0.276,0,0.5,0.224,0.5,0.5
			S53.276,15.125,53,15.125z"/>
	</g>
	<g>
		<path class="st0" d="M51,17.125c-0.276,0-0.5-0.224-0.5-0.5v-4c0-0.276,0.224-0.5,0.5-0.5s0.5,0.224,0.5,0.5v4
			C51.5,16.901,51.276,17.125,51,17.125z"/>
	</g>
	<g>
		<path class="st0" d="M24.5,11h-2c-0.276,0-0.5-0.224-0.5-0.5s0.224-0.5,0.5-0.5h2c0.276,0,0.5,0.224,0.5,0.5S24.776,11,24.5,11z"
			/>
	</g>
	<g>
		<path class="st0" d="M37.5,11h-11c-0.276,0-0.5-0.224-0.5-0.5s0.224-0.5,0.5-0.5h11c0.276,0,0.5,0.224,0.5,0.5S37.776,11,37.5,11z
			"/>
	</g>
	<g>
		<path class="st0" d="M42.5,8h-12C30.224,8,30,7.776,30,7.5S30.224,7,30.5,7h12C42.776,7,43,7.224,43,7.5S42.776,8,42.5,8z"/>
	</g>
	<g>
		<path class="st0" d="M63.5,57.5h-63C0.224,57.5,0,57.276,0,57s0.224-0.5,0.5-0.5h63c0.276,0,0.5,0.224,0.5,0.5
			S63.776,57.5,63.5,57.5z"/>
	</g>
	<g>
		<path class="st1" d="M6,5c0-1.657,1.343-3,3-3s3,1.343,3,3c1.657,0,3,1.343,3,3s-1.343,3-3,3H6c-1.657,0-3-1.343-3-3S4.343,5,6,5z
			"/>
	</g>
	<g>
		<path class="st0" d="M52,45.5H23c-0.276,0-0.5-0.224-0.5-0.5V31c0-0.276,0.224-0.5,0.5-0.5h26.5c1.654,0,3,1.346,3,3V45
			C52.5,45.276,52.276,45.5,52,45.5z M23.5,44.5h28v-11c0-1.103-0.897-2-2-2h-26V44.5z"/>
	</g>
	<g>
		<path class="st0" d="M23,21.5H4c-0.827,0-1.5-0.673-1.5-1.5v-1c0-0.827,0.673-1.5,1.5-1.5h19c0.827,0,1.5,0.673,1.5,1.5v1
			C24.5,20.827,23.827,21.5,23,21.5z M4,18.5c-0.275,0-0.5,0.224-0.5,0.5v1c0,0.276,0.225,0.5,0.5,0.5h19c0.275,0,0.5-0.224,0.5-0.5
			v-1c0-0.276-0.225-0.5-0.5-0.5H4z"/>
	</g>
	<g>
		<rect x="40" y="24" class="st2" width="8" height="7"/>
		<path class="st0" d="M48,31.5h-8c-0.276,0-0.5-0.224-0.5-0.5v-7c0-0.276,0.224-0.5,0.5-0.5h8c0.276,0,0.5,0.224,0.5,0.5v7
			C48.5,31.276,48.276,31.5,48,31.5z M40.5,30.5h7v-6h-7V30.5z"/>
	</g>
	<g>
		<path class="st0" d="M48,24.5h-8c-0.827,0-1.5-0.673-1.5-1.5v-1c0-0.827,0.673-1.5,1.5-1.5h8c0.827,0,1.5,0.673,1.5,1.5v1
			C49.5,23.827,48.827,24.5,48,24.5z M40,21.5c-0.275,0-0.5,0.224-0.5,0.5v1c0,0.276,0.225,0.5,0.5,0.5h8c0.275,0,0.5-0.224,0.5-0.5
			v-1c0-0.276-0.225-0.5-0.5-0.5H40z"/>
	</g>
	<g>
		<path class="st0" d="M14,57.5c-3.032,0-5.5-2.467-5.5-5.5s2.468-5.5,5.5-5.5s5.5,2.467,5.5,5.5S17.032,57.5,14,57.5z M14,47.5
			c-2.481,0-4.5,2.019-4.5,4.5s2.019,4.5,4.5,4.5s4.5-2.019,4.5-4.5S16.481,47.5,14,47.5z"/>
	</g>
	<g>
		<path class="st0" d="M40,57.5c-3.032,0-5.5-2.467-5.5-5.5s2.468-5.5,5.5-5.5s5.5,2.467,5.5,5.5S43.032,57.5,40,57.5z M40,47.5
			c-2.481,0-4.5,2.019-4.5,4.5s2.019,4.5,4.5,4.5s4.5-2.019,4.5-4.5S42.481,47.5,40,47.5z"/>
	</g>
	<g>
		<path class="st0" d="M40,54.5c-1.379,0-2.5-1.122-2.5-2.5s1.121-2.5,2.5-2.5s2.5,1.122,2.5,2.5S41.379,54.5,40,54.5z M40,50.5
			c-0.827,0-1.5,0.673-1.5,1.5s0.673,1.5,1.5,1.5s1.5-0.673,1.5-1.5S40.827,50.5,40,50.5z"/>
	</g>
	<g>
		<path class="st0" d="M27,57.5c-3.032,0-5.5-2.467-5.5-5.5s2.468-5.5,5.5-5.5s5.5,2.467,5.5,5.5S30.032,57.5,27,57.5z M27,47.5
			c-2.481,0-4.5,2.019-4.5,4.5s2.019,4.5,4.5,4.5s4.5-2.019,4.5-4.5S29.481,47.5,27,47.5z"/>
	</g>
	<g>
		<path class="st0" d="M27,54.5c-1.379,0-2.5-1.122-2.5-2.5s1.121-2.5,2.5-2.5s2.5,1.122,2.5,2.5S28.379,54.5,27,54.5z M27,50.5
			c-0.827,0-1.5,0.673-1.5,1.5s0.673,1.5,1.5,1.5s1.5-0.673,1.5-1.5S27.827,50.5,27,50.5z"/>
	</g>
	<g>
		<path class="st0" d="M14,54.5c-1.379,0-2.5-1.122-2.5-2.5s1.121-2.5,2.5-2.5s2.5,1.122,2.5,2.5S15.379,54.5,14,54.5z M14,50.5
			c-0.827,0-1.5,0.673-1.5,1.5s0.673,1.5,1.5,1.5s1.5-0.673,1.5-1.5S14.827,50.5,14,50.5z"/>
	</g>
	<g>
		<path class="st0" d="M55.3,54.5h-8.595c-0.276,0-0.5-0.224-0.5-0.5s0.224-0.5,0.5-0.5H55.3c0.259,0,0.388-0.172,0.432-0.247
			c0.043-0.074,0.131-0.271,0.006-0.496l-4.175-7.515c-0.134-0.241-0.047-0.546,0.194-0.68c0.24-0.133,0.546-0.048,0.681,0.194
			l4.174,7.514c0.261,0.469,0.254,1.025-0.018,1.488C56.321,54.223,55.837,54.5,55.3,54.5z"/>
	</g>
	<g>
		<path class="st0" d="M7.294,54.5H5c-0.827,0-1.5-0.673-1.5-1.5v-8c0-0.276,0.224-0.5,0.5-0.5s0.5,0.224,0.5,0.5v8
			c0,0.276,0.225,0.5,0.5,0.5h2.294c0.276,0,0.5,0.224,0.5,0.5S7.57,54.5,7.294,54.5z"/>
	</g>
	<g>
		<path class="st3" d="M4,21v24h19V21H4z M19.5,32c0,0.552-0.448,1-1,1h-10c-0.552,0-1-0.448-1-1v-7c0-0.552,0.448-1,1-1h10
			c0.552,0,1,0.448,1,1V32z"/>
		<path class="st0" d="M23,45.5H4c-0.276,0-0.5-0.224-0.5-0.5V21c0-0.276,0.224-0.5,0.5-0.5h19c0.276,0,0.5,0.224,0.5,0.5v24
			C23.5,45.276,23.276,45.5,23,45.5z M4.5,44.5h18v-23h-18V44.5z M18.5,33.5h-10C7.673,33.5,7,32.827,7,32v-7
			c0-0.827,0.673-1.5,1.5-1.5h10c0.827,0,1.5,0.673,1.5,1.5v7C20,32.827,19.327,33.5,18.5,33.5z M8.5,24.5C8.225,24.5,8,24.724,8,25
			v7c0,0.276,0.225,0.5,0.5,0.5h10c0.275,0,0.5-0.224,0.5-0.5v-7c0-0.276-0.225-0.5-0.5-0.5H8.5z"/>
	</g>
	<g>
		<path class="st0" d="M34,31.5h-5c-0.276,0-0.5-0.224-0.5-0.5v-2.5c0-1.654,1.346-3,2.999-3c1.654,0,3.001,1.346,3.001,3V31
			C34.5,31.276,34.276,31.5,34,31.5z M29.5,30.5h4v-2c0-1.103-0.897-2-2-2s-2,0.897-2,2V30.5z"/>
	</g>
	<g>
		<path class="st0" d="M40,52.5H14c-0.276,0-0.5-0.224-0.5-0.5s0.224-0.5,0.5-0.5h26c0.276,0,0.5,0.224,0.5,0.5S40.276,52.5,40,52.5
			z"/>
	</g>
	<g>
		<path class="st0" d="M52,38.5H23c-0.276,0-0.5-0.224-0.5-0.5s0.224-0.5,0.5-0.5h29c0.276,0,0.5,0.224,0.5,0.5S52.276,38.5,52,38.5
			z"/>
	</g>
	<g>
		<path class="st0" d="M16.5,30.5c-0.276,0-0.5-0.224-0.5-0.5v-3c0-0.276,0.224-0.5,0.5-0.5S17,26.724,17,27v3
			C17,30.276,16.776,30.5,16.5,30.5z"/>
	</g>
</g>
</svg>
