<?xml version="1.0" encoding="utf-8"?>
<!-- Generator: Adobe Illustrator 22.0.0, SVG Export Plug-In . SVG Version: 6.00 Build 0)  -->
<svg version="1.1" id="Layer_1" xmlns="http://www.w3.org/2000/svg" xmlns:xlink="http://www.w3.org/1999/xlink" x="0px" y="0px"
	 viewBox="0 0 64 64" style="enable-background:new 0 0 64 64;" xml:space="preserve">
<style type="text/css">
	.st0{fill:#263238;}
	.st1{fill:#4FC3F7;}
	.st2{fill:#FFD740;}
	.st3{fill:#FF5252;}
	.st4{fill:#4DB6AC;}
	.st5{fill:#FFFFFF;}
	.st6{fill:#40C4FF;}
	.st7{fill:#A2A2A1;}
	.st8{fill:#212A41;}
</style>
<g>
	<g>
		<path class="st6" d="M52.822,33.034c-0.013-0.012-0.027-0.022-0.04-0.034H0.606v8h60.752L52.822,33.034z"/>
	</g>
	<g>
		<path class="st0" d="M3.5,60.5h-3C0.224,60.5,0,60.276,0,60s0.224-0.5,0.5-0.5h3C3.776,59.5,4,59.724,4,60S3.776,60.5,3.5,60.5z"
			/>
	</g>
	<g>
		<path class="st0" d="M63.5,60.5h-58C5.224,60.5,5,60.276,5,60s0.224-0.5,0.5-0.5h58c0.276,0,0.5,0.224,0.5,0.5
			S63.776,60.5,63.5,60.5z"/>
	</g>
	<g>
		<path class="st0" d="M63.5,4.5h-63C0.224,4.5,0,4.276,0,4s0.224-0.5,0.5-0.5h63C63.776,3.5,64,3.724,64,4S63.776,4.5,63.5,4.5z"/>
	</g>
	<g>
		<path class="st0" d="M58,25.125h-4c-0.276,0-0.5-0.224-0.5-0.5s0.224-0.5,0.5-0.5h4c0.276,0,0.5,0.224,0.5,0.5
			S58.276,25.125,58,25.125z"/>
	</g>
	<g>
		<path class="st0" d="M56,27.125c-0.276,0-0.5-0.224-0.5-0.5v-4c0-0.276,0.224-0.5,0.5-0.5s0.5,0.224,0.5,0.5v4
			C56.5,26.901,56.276,27.125,56,27.125z"/>
	</g>
	<g>
		<path class="st0" d="M63.5,29.125h-4c-0.276,0-0.5-0.224-0.5-0.5s0.224-0.5,0.5-0.5h4c0.276,0,0.5,0.224,0.5,0.5
			S63.776,29.125,63.5,29.125z"/>
	</g>
	<g>
		<path class="st0" d="M61.5,31.125c-0.276,0-0.5-0.224-0.5-0.5v-4c0-0.276,0.224-0.5,0.5-0.5s0.5,0.224,0.5,0.5v4
			C62,30.901,61.776,31.125,61.5,31.125z"/>
	</g>
	<g>
		<path class="st0" d="M58.5,53.5h-58C0.224,53.5,0,53.276,0,53s0.224-0.5,0.5-0.5h58c2.481,0,4.5-2.019,4.5-4.5v-2.827
			c0-1.243-0.521-2.442-1.43-3.29L52.481,33.4c-2.694-2.515-6.208-3.9-9.894-3.9H0.5C0.224,29.5,0,29.276,0,29s0.224-0.5,0.5-0.5
			h42.088c3.939,0,7.695,1.48,10.575,4.168l9.089,8.483C63.363,42.188,64,43.653,64,45.173V48C64,51.033,61.532,53.5,58.5,53.5z"/>
	</g>
	<g>
		<path class="st0" d="M61.357,41.5H0.605c-0.276,0-0.5-0.224-0.5-0.5s0.224-0.5,0.5-0.5h59.483l-7.5-7H0.605
			c-0.276,0-0.5-0.224-0.5-0.5s0.224-0.5,0.5-0.5h52.177c0.129,0,0.253,0.05,0.347,0.14l8.569,7.995
			c0.15,0.14,0.199,0.358,0.124,0.549C61.747,41.375,61.562,41.5,61.357,41.5z"/>
	</g>
	<g>
		<line class="st5" x1="53.746" y1="38" x2="51.604" y2="36"/>
		<path class="st0" d="M53.746,38.5c-0.122,0-0.245-0.044-0.341-0.134l-2.143-2c-0.202-0.188-0.213-0.505-0.024-0.707
			c0.189-0.202,0.506-0.212,0.706-0.024l2.143,2c0.202,0.188,0.213,0.505,0.024,0.707C54.013,38.447,53.88,38.5,53.746,38.5z"/>
	</g>
	<g>
		<path class="st0" d="M63.5,55.5h-6c-0.276,0-0.5-0.224-0.5-0.5s0.224-0.5,0.5-0.5h6c0.276,0,0.5,0.224,0.5,0.5
			S63.776,55.5,63.5,55.5z"/>
	</g>
	<g>
		<path class="st0" d="M28,23.5h-2c-0.276,0-0.5-0.224-0.5-0.5s0.224-0.5,0.5-0.5h2c0.276,0,0.5,0.224,0.5,0.5S28.276,23.5,28,23.5z
			"/>
	</g>
	<g>
		<path class="st0" d="M41,23.5H30c-0.276,0-0.5-0.224-0.5-0.5s0.224-0.5,0.5-0.5h11c0.276,0,0.5,0.224,0.5,0.5S41.276,23.5,41,23.5
			z"/>
	</g>
	<g>
		<path class="st0" d="M46,20.5H34c-0.276,0-0.5-0.224-0.5-0.5s0.224-0.5,0.5-0.5h12c0.276,0,0.5,0.224,0.5,0.5S46.276,20.5,46,20.5
			z"/>
	</g>
	<g>
		<path class="st0" d="M54.5,57.5h-54C0.224,57.5,0,57.276,0,57s0.224-0.5,0.5-0.5h53.691l1.5-3H0.5C0.224,53.5,0,53.276,0,53
			s0.224-0.5,0.5-0.5h56c0.173,0,0.334,0.09,0.426,0.237c0.091,0.147,0.099,0.332,0.021,0.486l-2,4
			C54.862,57.393,54.689,57.5,54.5,57.5z"/>
	</g>
	<g>
		<path class="st0" d="M40.5,41.5c-0.276,0-0.5-0.224-0.5-0.5v-8c0-0.276,0.224-0.5,0.5-0.5S41,32.724,41,33v8
			C41,41.276,40.776,41.5,40.5,41.5z"/>
	</g>
	<g>
		<path class="st0" d="M25.5,41.5c-0.276,0-0.5-0.224-0.5-0.5v-8c0-0.276,0.224-0.5,0.5-0.5S26,32.724,26,33v8
			C26,41.276,25.776,41.5,25.5,41.5z"/>
	</g>
	<g>
		<path class="st0" d="M10.5,41.5c-0.276,0-0.5-0.224-0.5-0.5v-8c0-0.276,0.224-0.5,0.5-0.5S11,32.724,11,33v8
			C11,41.276,10.776,41.5,10.5,41.5z"/>
	</g>
	<g>
		<path class="st2" d="M21,18H4c-0.552,0-1-0.448-1-1v-7c0-0.552,0.448-1,1-1h17c0.552,0,1,0.448,1,1v7C22,17.552,21.552,18,21,18z"
			/>
		<path class="st0" d="M21,18.5H4c-0.827,0-1.5-0.673-1.5-1.5v-7c0-0.827,0.673-1.5,1.5-1.5h17c0.827,0,1.5,0.673,1.5,1.5v7
			C22.5,17.827,21.827,18.5,21,18.5z M4,9.5c-0.276,0-0.5,0.224-0.5,0.5v7c0,0.276,0.224,0.5,0.5,0.5h17c0.276,0,0.5-0.224,0.5-0.5
			v-7c0-0.276-0.224-0.5-0.5-0.5H4z"/>
	</g>
	<g>
		<path class="st0" d="M17.5,9.5C17.224,9.5,17,9.276,17,9V4c0-0.276,0.224-0.5,0.5-0.5S18,3.724,18,4v5
			C18,9.276,17.776,9.5,17.5,9.5z"/>
	</g>
	<g>
		<path class="st0" d="M7.5,9.5C7.224,9.5,7,9.276,7,9V4c0-0.276,0.224-0.5,0.5-0.5S8,3.724,8,4v5C8,9.276,7.776,9.5,7.5,9.5z"/>
	</g>
	<g>
		<path class="st0" d="M19,12.5h-5c-0.276,0-0.5-0.224-0.5-0.5s0.224-0.5,0.5-0.5h5c0.276,0,0.5,0.224,0.5,0.5S19.276,12.5,19,12.5z
			"/>
	</g>
	<g>
		<path class="st0" d="M19,15.5h-5c-0.276,0-0.5-0.224-0.5-0.5s0.224-0.5,0.5-0.5h5c0.276,0,0.5,0.224,0.5,0.5S19.276,15.5,19,15.5z
			"/>
	</g>
	<g>
		<rect x="7.5" y="12" class="st2" width="3" height="3"/>
		<path class="st0" d="M10.5,15.5h-3C7.224,15.5,7,15.276,7,15v-3c0-0.276,0.224-0.5,0.5-0.5h3c0.276,0,0.5,0.224,0.5,0.5v3
			C11,15.276,10.776,15.5,10.5,15.5z M8,14.5h2v-2H8V14.5z"/>
	</g>
</g>
</svg>
