<?xml version="1.0" encoding="utf-8"?>
<!-- Generator: Adobe Illustrator 22.0.0, SVG Export Plug-In . SVG Version: 6.00 Build 0)  -->
<svg version="1.1" id="Layer_1" xmlns="http://www.w3.org/2000/svg" xmlns:xlink="http://www.w3.org/1999/xlink" x="0px" y="0px"
	 viewBox="0 0 64 64" style="enable-background:new 0 0 64 64;" xml:space="preserve">
<style type="text/css">
	.st0{fill:#263238;}
	.st1{fill:#4FC3F7;}
	.st2{fill:#FFD740;}
	.st3{fill:#FF5252;}
	.st4{fill:#4DB6AC;}
	.st5{fill:#FFFFFF;}
	.st6{fill:#40C4FF;}
	.st7{fill:#A2A2A1;}
	.st8{fill:#212A41;}
</style>
<g>
	<g>
		<path class="st0" d="M3.5,57h-3C0.224,57,0,56.776,0,56.5S0.224,56,0.5,56h3C3.776,56,4,56.224,4,56.5S3.776,57,3.5,57z"/>
	</g>
	<g>
		<path class="st0" d="M63.5,57h-58C5.224,57,5,56.776,5,56.5S5.224,56,5.5,56h58c0.276,0,0.5,0.224,0.5,0.5S63.776,57,63.5,57z"/>
	</g>
	<g>
		<path class="st0" d="M25.25,11h-2c-0.276,0-0.5-0.224-0.5-0.5s0.224-0.5,0.5-0.5h2c0.276,0,0.5,0.224,0.5,0.5S25.526,11,25.25,11z
			"/>
	</g>
	<g>
		<path class="st0" d="M38.25,11h-11c-0.276,0-0.5-0.224-0.5-0.5s0.224-0.5,0.5-0.5h11c0.276,0,0.5,0.224,0.5,0.5
			S38.526,11,38.25,11z"/>
	</g>
	<g>
		<path class="st0" d="M43.25,8h-12c-0.276,0-0.5-0.224-0.5-0.5S30.974,7,31.25,7h12c0.276,0,0.5,0.224,0.5,0.5S43.526,8,43.25,8z"
			/>
	</g>
	<g>
		<path class="st1" d="M7.25,13.5c0-1.657,1.343-3,3-3s3,1.343,3,3c1.657,0,3,1.343,3,3s-1.343,3-3,3h-6c-1.657,0-3-1.343-3-3
			S5.593,13.5,7.25,13.5z"/>
	</g>
	<g>
		<path class="st0" d="M59.75,11h-4c-0.276,0-0.5-0.224-0.5-0.5s0.224-0.5,0.5-0.5h4c0.276,0,0.5,0.224,0.5,0.5S60.026,11,59.75,11z
			"/>
	</g>
	<g>
		<path class="st0" d="M57.75,13c-0.276,0-0.5-0.224-0.5-0.5v-4c0-0.276,0.224-0.5,0.5-0.5s0.5,0.224,0.5,0.5v4
			C58.25,12.776,58.026,13,57.75,13z"/>
	</g>
	<g>
		<path class="st0" d="M54.75,16h-4c-0.276,0-0.5-0.224-0.5-0.5s0.224-0.5,0.5-0.5h4c0.276,0,0.5,0.224,0.5,0.5S55.026,16,54.75,16z
			"/>
	</g>
	<g>
		<path class="st0" d="M52.75,18c-0.276,0-0.5-0.224-0.5-0.5v-4c0-0.276,0.224-0.5,0.5-0.5s0.5,0.224,0.5,0.5v4
			C53.25,17.776,53.026,18,52.75,18z"/>
	</g>
	<g>
		<path class="st0" d="M43.25,57h-22.5c-3.998,0-7.25-3.252-7.25-7.25s3.252-7.25,7.25-7.25h22.5c3.998,0,7.25,3.252,7.25,7.25
			S47.248,57,43.25,57z M20.75,43.5c-3.446,0-6.25,2.804-6.25,6.25S17.304,56,20.75,56h22.5c3.446,0,6.25-2.804,6.25-6.25
			s-2.804-6.25-6.25-6.25H20.75z"/>
	</g>
	<g>
		<path class="st4" d="M49,34.001H15l-5,5V49c0,1.268,0.948,2.304,2.171,2.467c-0.28-1.402-0.237-2.921,0.282-4.486
			C13.656,43.36,17.16,41,20.976,41h22.049c3.815,0,7.32,2.36,8.522,5.981c0.52,1.565,0.563,3.084,0.282,4.486
			C53.052,51.304,54,50.268,54,49v-9.999L49,34.001z"/>
	</g>
	<g>
		<path class="st0" d="M51.828,51.967c-0.247,0-0.462-0.183-0.495-0.435c-0.036-0.273,0.156-0.524,0.43-0.562
			C52.753,50.84,53.5,49.992,53.5,49v-9.792l-4.707-4.707H15.207L10.5,39.208V49c0,0.992,0.747,1.84,1.737,1.971
			c0.274,0.037,0.466,0.288,0.43,0.562c-0.036,0.274-0.292,0.466-0.561,0.431C10.62,51.766,9.5,50.492,9.5,49v-9.999
			c0-0.133,0.053-0.26,0.146-0.354l5-5c0.094-0.094,0.221-0.146,0.354-0.146h34c0.133,0,0.26,0.053,0.354,0.146l5,5
			c0.094,0.094,0.146,0.221,0.146,0.354V49c0,1.492-1.12,2.766-2.606,2.963C51.872,51.966,51.85,51.967,51.828,51.967z"/>
	</g>
	<g>
		<path class="st0" d="M20.75,54c-2.343,0-4.25-1.906-4.25-4.25s1.907-4.25,4.25-4.25S25,47.406,25,49.75S23.093,54,20.75,54z
			 M20.75,46.5c-1.792,0-3.25,1.458-3.25,3.25S18.958,53,20.75,53S24,51.542,24,49.75S22.542,46.5,20.75,46.5z"/>
	</g>
	<g>
		<path class="st0" d="M20.75,51.75c-1.103,0-2-0.897-2-2s0.897-2,2-2s2,0.897,2,2S21.853,51.75,20.75,51.75z M20.75,48.75
			c-0.551,0-1,0.448-1,1s0.449,1,1,1s1-0.448,1-1S21.301,48.75,20.75,48.75z"/>
	</g>
	<g>
		<path class="st0" d="M28.25,54C25.907,54,24,52.094,24,49.75s1.907-4.25,4.25-4.25s4.25,1.906,4.25,4.25S30.593,54,28.25,54z
			 M28.25,46.5c-1.792,0-3.25,1.458-3.25,3.25S26.458,53,28.25,53s3.25-1.458,3.25-3.25S30.042,46.5,28.25,46.5z"/>
	</g>
	<g>
		<path class="st0" d="M28.25,51.75c-1.103,0-2-0.897-2-2s0.897-2,2-2s2,0.897,2,2S29.353,51.75,28.25,51.75z M28.25,48.75
			c-0.551,0-1,0.448-1,1s0.449,1,1,1s1-0.448,1-1S28.801,48.75,28.25,48.75z"/>
	</g>
	<g>
		<path class="st0" d="M35.75,54c-2.343,0-4.25-1.906-4.25-4.25s1.907-4.25,4.25-4.25S40,47.406,40,49.75S38.093,54,35.75,54z
			 M35.75,46.5c-1.792,0-3.25,1.458-3.25,3.25S33.958,53,35.75,53S39,51.542,39,49.75S37.542,46.5,35.75,46.5z"/>
	</g>
	<g>
		<path class="st0" d="M35.75,51.75c-1.103,0-2-0.897-2-2s0.897-2,2-2s2,0.897,2,2S36.853,51.75,35.75,51.75z M35.75,48.75
			c-0.551,0-1,0.448-1,1s0.449,1,1,1s1-0.448,1-1S36.301,48.75,35.75,48.75z"/>
	</g>
	<g>
		<path class="st0" d="M43.25,54C40.907,54,39,52.094,39,49.75s1.907-4.25,4.25-4.25s4.25,1.906,4.25,4.25S45.593,54,43.25,54z
			 M43.25,46.5c-1.792,0-3.25,1.458-3.25,3.25S41.458,53,43.25,53s3.25-1.458,3.25-3.25S45.042,46.5,43.25,46.5z"/>
	</g>
	<g>
		<path class="st0" d="M43.25,51.75c-1.103,0-2-0.897-2-2s0.897-2,2-2s2,0.897,2,2S44.353,51.75,43.25,51.75z M43.25,48.75
			c-0.551,0-1,0.448-1,1s0.449,1,1,1s1-0.448,1-1S43.801,48.75,43.25,48.75z"/>
	</g>
	<g>
		<path class="st0" d="M39.75,34.501h-15.5c-0.276,0-0.5-0.224-0.5-0.5v-6.5c0-1.654,1.346-3,3-3h10.5c1.654,0,3,1.346,3,3v6.5
			C40.25,34.277,40.026,34.501,39.75,34.501z M24.75,33.501h14.5v-6c0-1.103-0.897-2-2-2h-10.5c-1.103,0-2,0.897-2,2V33.501z"/>
	</g>
	<g>
		<path class="st0" d="M58,31.501H39.75c-0.276,0-0.5-0.224-0.5-0.5v-3c0-0.276,0.224-0.5,0.5-0.5H58c0.827,0,1.5,0.673,1.5,1.5v1
			C59.5,30.828,58.827,31.501,58,31.501z M40.25,30.501H58c0.276,0,0.5-0.225,0.5-0.5v-1c0-0.275-0.224-0.5-0.5-0.5H40.25V30.501z"
			/>
	</g>
	<g>
		<path class="st0" d="M54,39.501H10c-0.276,0-0.5-0.224-0.5-0.5s0.224-0.5,0.5-0.5h44c0.276,0,0.5,0.224,0.5,0.5
			S54.276,39.501,54,39.501z"/>
	</g>
	<g>
		<path class="st0" d="M39.75,31.501h-15.5c-0.276,0-0.5-0.224-0.5-0.5s0.224-0.5,0.5-0.5h15.5c0.276,0,0.5,0.224,0.5,0.5
			S40.026,31.501,39.75,31.501z"/>
	</g>
	<g>
		<path class="st0" d="M43.25,54h-22.5c-2.343,0-4.25-1.906-4.25-4.25s1.907-4.25,4.25-4.25h22.5c2.343,0,4.25,1.906,4.25,4.25
			S45.593,54,43.25,54z M20.75,46.5c-1.792,0-3.25,1.458-3.25,3.25S18.958,53,20.75,53h22.5c1.792,0,3.25-1.458,3.25-3.25
			s-1.458-3.25-3.25-3.25H20.75z"/>
	</g>
	<g>
		<path class="st0" d="M35,28.501h-6c-0.276,0-0.5-0.224-0.5-0.5v-3c0-0.276,0.224-0.5,0.5-0.5h6c0.276,0,0.5,0.224,0.5,0.5v3
			C35.5,28.277,35.276,28.501,35,28.501z M29.5,27.501h5v-2h-5V27.501z"/>
	</g>
</g>
</svg>
