<?xml version="1.0" encoding="utf-8"?>
<!-- Generator: Adobe Illustrator 22.0.0, SVG Export Plug-In . SVG Version: 6.00 Build 0)  -->
<svg version="1.1" id="Layer_1" xmlns="http://www.w3.org/2000/svg" xmlns:xlink="http://www.w3.org/1999/xlink" x="0px" y="0px"
	 viewBox="0 0 64 64" style="enable-background:new 0 0 64 64;" xml:space="preserve">
<style type="text/css">
	.st0{fill:#263238;}
	.st1{fill:#4FC3F7;}
	.st2{fill:#FFD740;}
	.st3{fill:#FF5252;}
	.st4{fill:#4DB6AC;}
	.st5{fill:#FFFFFF;}
	.st6{fill:#40C4FF;}
	.st7{fill:#A2A2A1;}
	.st8{fill:#212A41;}
</style>
<g>
	<g>
		<path class="st2" d="M61.912,38.018l-9.09-8.483l8.535,7.966H38.5c-0.552,0-1-0.448-1-1v-6c0-0.552,0.448-1,1-1h14.282
			c0.013,0.012,0.027,0.022,0.04,0.034c-2.778-2.592-6.435-4.034-10.235-4.034H0.5v4h8c0.552,0,1,0.448,1,1v6c0,0.552-0.448,1-1,1
			h-8v12h58c2.761,0,5-2.239,5-5v-2.827C63.5,40.287,62.925,38.963,61.912,38.018z M33.5,36.5c0,0.552-0.448,1-1,1h-18
			c-0.552,0-1-0.448-1-1v-6c0-0.552,0.448-1,1-1h18c0.552,0,1,0.448,1,1V36.5z"/>
	</g>
	<g>
		<path class="st0" d="M3.5,58h-3C0.224,58,0,57.776,0,57.5S0.224,57,0.5,57h3C3.776,57,4,57.224,4,57.5S3.776,58,3.5,58z"/>
	</g>
	<g>
		<path class="st0" d="M63.5,58h-58C5.224,58,5,57.776,5,57.5S5.224,57,5.5,57h58c0.276,0,0.5,0.224,0.5,0.5S63.776,58,63.5,58z"/>
	</g>
	<g>
		<path class="st1" d="M7,9.5c0-1.657,1.343-3,3-3s3,1.343,3,3c1.657,0,3,1.343,3,3s-1.343,3-3,3H7c-1.657,0-3-1.343-3-3
			S5.343,9.5,7,9.5z"/>
	</g>
	<g>
		<path class="st0" d="M55,21.625h-4c-0.276,0-0.5-0.224-0.5-0.5s0.224-0.5,0.5-0.5h4c0.276,0,0.5,0.224,0.5,0.5
			S55.276,21.625,55,21.625z"/>
	</g>
	<g>
		<path class="st0" d="M53,23.625c-0.276,0-0.5-0.224-0.5-0.5v-4c0-0.276,0.224-0.5,0.5-0.5s0.5,0.224,0.5,0.5v4
			C53.5,23.401,53.276,23.625,53,23.625z"/>
	</g>
	<g>
		<path class="st0" d="M60.5,25.625h-4c-0.276,0-0.5-0.224-0.5-0.5s0.224-0.5,0.5-0.5h4c0.276,0,0.5,0.224,0.5,0.5
			S60.776,25.625,60.5,25.625z"/>
	</g>
	<g>
		<path class="st0" d="M58.5,27.625c-0.276,0-0.5-0.224-0.5-0.5v-4c0-0.276,0.224-0.5,0.5-0.5s0.5,0.224,0.5,0.5v4
			C59,27.401,58.776,27.625,58.5,27.625z"/>
	</g>
	<g>
		<path class="st0" d="M58.5,50h-58C0.224,50,0,49.776,0,49.5S0.224,49,0.5,49h58c2.481,0,4.5-2.019,4.5-4.5v-2.827
			c0-1.243-0.521-2.442-1.43-3.29L52.481,29.9c-2.694-2.515-6.208-3.9-9.894-3.9H0.5C0.224,26,0,25.776,0,25.5S0.224,25,0.5,25
			h42.087c3.94,0,7.696,1.48,10.576,4.168l9.089,8.483C63.363,38.688,64,40.154,64,41.673V44.5C64,47.533,61.533,50,58.5,50z"/>
	</g>
	<g>
		<path class="st0" d="M61.357,38H38.5c-0.827,0-1.5-0.673-1.5-1.5v-6c0-0.827,0.673-1.5,1.5-1.5h14.282
			c0.126,0,0.247,0.047,0.34,0.133c0,0,0.042,0.035,0.042,0.035l8.535,7.966c0.15,0.14,0.199,0.358,0.124,0.549
			C61.747,37.875,61.563,38,61.357,38z M38.5,30c-0.276,0-0.5,0.224-0.5,0.5v6c0,0.276,0.224,0.5,0.5,0.5h21.589l-7.5-7H38.5z"/>
	</g>
	<g>
		<path class="st0" d="M53.746,35c-0.123,0-0.245-0.044-0.341-0.134l-2.143-2c-0.202-0.188-0.212-0.505-0.024-0.707
			c0.188-0.202,0.505-0.212,0.707-0.024l2.143,2c0.202,0.188,0.212,0.505,0.024,0.707C54.013,34.947,53.88,35,53.746,35z"/>
	</g>
	<g>
		<path class="st0" d="M32.5,38h-18c-0.827,0-1.5-0.673-1.5-1.5v-6c0-0.827,0.673-1.5,1.5-1.5h18c0.827,0,1.5,0.673,1.5,1.5v6
			C34,37.327,33.327,38,32.5,38z M14.5,30c-0.276,0-0.5,0.224-0.5,0.5v6c0,0.276,0.224,0.5,0.5,0.5h18c0.276,0,0.5-0.224,0.5-0.5v-6
			c0-0.276-0.224-0.5-0.5-0.5H14.5z"/>
	</g>
	<g>
		<path class="st0" d="M8.5,38h-8C0.224,38,0,37.776,0,37.5S0.224,37,0.5,37h8C8.776,37,9,36.776,9,36.5v-6
			C9,30.224,8.776,30,8.5,30h-8C0.224,30,0,29.776,0,29.5S0.224,29,0.5,29h8c0.827,0,1.5,0.673,1.5,1.5v6C10,37.327,9.327,38,8.5,38
			z"/>
	</g>
	<g>
		<path class="st0" d="M63.5,53h-63C0.224,53,0,52.776,0,52.5S0.224,52,0.5,52h63c0.276,0,0.5,0.224,0.5,0.5S63.776,53,63.5,53z"/>
	</g>
	<g>
		<path class="st0" d="M19.793,53c-2.042,0-3.828-1.388-4.342-3.375c-0.039-0.15-0.006-0.309,0.088-0.432
			C15.634,49.072,15.78,49,15.935,49h7.717c0.155,0,0.301,0.072,0.396,0.194c0.095,0.123,0.127,0.282,0.088,0.432
			C23.621,51.612,21.835,53,19.793,53z M16.645,50c0.57,1.204,1.785,2,3.148,2s2.578-0.796,3.148-2H16.645z"/>
	</g>
	<g>
		<path class="st0" d="M12.076,53c-2.042,0-3.828-1.388-4.342-3.375c-0.039-0.15-0.006-0.309,0.088-0.432
			C7.917,49.072,8.062,49,8.217,49h7.717c0.155,0,0.301,0.072,0.396,0.194c0.095,0.123,0.127,0.282,0.088,0.432
			C15.904,51.612,14.118,53,12.076,53z M8.928,50c0.57,1.204,1.785,2,3.148,2c1.362,0,2.578-0.796,3.148-2H8.928z"/>
	</g>
	<g>
		<path class="st0" d="M49.51,53c-2.042,0-3.828-1.388-4.343-3.375c-0.039-0.15-0.006-0.309,0.088-0.432
			C45.351,49.072,45.497,49,45.651,49h7.717c0.155,0,0.301,0.072,0.396,0.194c0.095,0.123,0.127,0.282,0.088,0.432
			C53.338,51.612,51.552,53,49.51,53z M46.362,50c0.57,1.204,1.786,2,3.148,2s2.578-0.796,3.148-2H46.362z"/>
	</g>
	<g>
		<path class="st0" d="M41.51,53c-2.042,0-3.828-1.388-4.343-3.375c-0.039-0.15-0.006-0.309,0.088-0.432
			C37.351,49.072,37.497,49,37.651,49h7.717c0.155,0,0.301,0.072,0.396,0.194c0.095,0.123,0.127,0.282,0.088,0.432
			C45.338,51.612,43.552,53,41.51,53z M38.362,50c0.57,1.204,1.786,2,3.148,2s2.578-0.796,3.148-2H38.362z"/>
	</g>
	<g>
		<path class="st0" d="M60.5,41.5h-60C0.224,41.5,0,41.276,0,41s0.224-0.5,0.5-0.5h60c0.276,0,0.5,0.224,0.5,0.5
			S60.776,41.5,60.5,41.5z"/>
	</g>
	<g>
		<path class="st0" d="M24.5,16h-2c-0.276,0-0.5-0.224-0.5-0.5s0.224-0.5,0.5-0.5h2c0.276,0,0.5,0.224,0.5,0.5S24.776,16,24.5,16z"
			/>
	</g>
	<g>
		<path class="st0" d="M37.5,16h-11c-0.276,0-0.5-0.224-0.5-0.5s0.224-0.5,0.5-0.5h11c0.276,0,0.5,0.224,0.5,0.5S37.776,16,37.5,16z
			"/>
	</g>
	<g>
		<path class="st0" d="M42.5,13h-12c-0.276,0-0.5-0.224-0.5-0.5s0.224-0.5,0.5-0.5h12c0.276,0,0.5,0.224,0.5,0.5S42.776,13,42.5,13z
			"/>
	</g>
	<g>
		<path class="st1" d="M52,8.5c0-1.105,0.895-2,2-2s2,0.895,2,2c1.105,0,2,0.895,2,2s-0.895,2-2,2h-4c-1.105,0-2-0.895-2-2
			S50.895,8.5,52,8.5z"/>
	</g>
</g>
</svg>
