<?xml version="1.0" encoding="utf-8"?>
<!-- Generator: Adobe Illustrator 22.0.0, SVG Export Plug-In . SVG Version: 6.00 Build 0)  -->
<svg version="1.1" id="Layer_1" xmlns="http://www.w3.org/2000/svg" xmlns:xlink="http://www.w3.org/1999/xlink" x="0px" y="0px"
	 viewBox="0 0 64 64" style="enable-background:new 0 0 64 64;" xml:space="preserve">
<style type="text/css">
	.st0{fill:#263238;}
	.st1{fill:#4FC3F7;}
	.st2{fill:#FFD740;}
	.st3{fill:#FF5252;}
	.st4{fill:#4DB6AC;}
	.st5{fill:#FFFFFF;}
	.st6{fill:#40C4FF;}
	.st7{fill:#A2A2A1;}
	.st8{fill:#212A41;}
</style>
<g>
	<g>
		<path class="st1" d="M58.129,24.572C57.749,23.623,56.83,23,55.807,23H42.5c-0.552,0-1,0.448-1,1v30h4c0-3.59,2.91-6.5,6.5-6.5
			c3.59,0,6.5,2.91,6.5,6.5H61c1.381,0,2.5-1.119,2.5-2.5V38L58.129,24.572z M63.5,47.5h-2c-0.552,0-1-0.448-1-1V44
			c0-0.552,0.448-1,1-1h2V47.5z M49.5,38c-0.552,0-1-0.448-1-1v-9c0-0.552,0.448-1,1-1h9.6l4.4,11H49.5z"/>
	</g>
	<g>
		<path class="st2" d="M1.5,20h36c0.552,0,1,0.448,1,1v24h-38V21C0.5,20.448,0.948,20,1.5,20z"/>
	</g>
	<g>
		<path class="st1" d="M6,6.5c0-1.657,1.343-3,3-3s3,1.343,3,3c1.657,0,3,1.343,3,3s-1.343,3-3,3H6c-1.657,0-3-1.343-3-3
			S4.343,6.5,6,6.5z"/>
	</g>
	<g>
		<path class="st0" d="M57.5,6h-4C53.224,6,53,5.777,53,5.5S53.224,5,53.5,5h4C57.776,5,58,5.224,58,5.5S57.776,6,57.5,6z"/>
	</g>
	<g>
		<path class="st0" d="M55.5,8C55.224,8,55,7.777,55,7.5v-4C55,3.224,55.224,3,55.5,3S56,3.224,56,3.5v4C56,7.777,55.776,8,55.5,8z"
			/>
	</g>
	<g>
		<path class="st0" d="M51.5,10h-4C47.223,10,47,9.777,47,9.5S47.223,9,47.5,9h4C51.776,9,52,9.224,52,9.5S51.776,10,51.5,10z"/>
	</g>
	<g>
		<path class="st0" d="M49.5,12c-0.276,0-0.5-0.224-0.5-0.5v-4C49,7.224,49.223,7,49.5,7S50,7.224,50,7.5v4
			C50,11.777,49.776,12,49.5,12z"/>
	</g>
	<g>
		<path class="st0" d="M3.5,61h-3C0.224,61,0,60.777,0,60.5S0.224,60,0.5,60h3C3.776,60,4,60.224,4,60.5S3.776,61,3.5,61z"/>
	</g>
	<g>
		<path class="st0" d="M63.5,61h-58C5.224,61,5,60.777,5,60.5S5.224,60,5.5,60h58c0.276,0,0.5,0.224,0.5,0.5S63.776,61,63.5,61z"/>
	</g>
	<g>
		<path class="st0" d="M25,54.5h-4.5c-0.276,0-0.5-0.224-0.5-0.5s0.224-0.5,0.5-0.5H25c0.276,0,0.5,0.224,0.5,0.5
			S25.276,54.5,25,54.5z"/>
	</g>
	<g>
		<path class="st0" d="M3.5,54.5h-2C0.673,54.5,0,53.828,0,53V21c0-0.827,0.673-1.5,1.5-1.5h36c0.827,0,1.5,0.673,1.5,1.5v24
			c0,0.276-0.224,0.5-0.5,0.5S38,45.277,38,45V21c0-0.276-0.224-0.5-0.5-0.5h-36C1.224,20.5,1,20.724,1,21v32
			c0,0.276,0.224,0.5,0.5,0.5h2C3.776,53.5,4,53.724,4,54S3.776,54.5,3.5,54.5z"/>
	</g>
	<g>
		<path class="st0" d="M61,54.5h-0.5c-0.276,0-0.5-0.224-0.5-0.5s0.224-0.5,0.5-0.5H61c1.103,0,2-0.897,2-2V38.097l-5.336-13.339
			c-0.305-0.764-1.034-1.257-1.856-1.257H42.5c-0.276,0-0.5,0.224-0.5,0.5v29.5h1.5c0.276,0,0.5,0.224,0.5,0.5s-0.224,0.5-0.5,0.5
			h-2c-0.276,0-0.5-0.224-0.5-0.5V24c0-0.827,0.673-1.5,1.5-1.5h13.308c1.234,0,2.327,0.74,2.785,1.886l5.372,13.429
			C63.988,37.874,64,37.937,64,38v13.5C64,53.155,62.654,54.5,61,54.5z"/>
	</g>
	<g>
		<path class="st0" d="M52,61c-3.86,0-7-3.14-7-7s3.14-7,7-7s7,3.14,7,7S55.86,61,52,61z M52,48c-3.309,0-6,2.691-6,6s2.691,6,6,6
			s6-2.691,6-6S55.309,48,52,48z"/>
	</g>
	<g>
		<path class="st0" d="M52,58c-2.206,0-4-1.794-4-4s1.794-4,4-4s4,1.794,4,4S54.206,58,52,58z M52,51c-1.654,0-3,1.346-3,3
			s1.346,3,3,3s3-1.346,3-3S53.654,51,52,51z"/>
	</g>
	<g>
		<path class="st0" d="M52,61c-3.86,0-7-3.14-7-7s3.14-7,7-7s7,3.14,7,7S55.86,61,52,61z M52,48c-3.309,0-6,2.691-6,6s2.691,6,6,6
			s6-2.691,6-6S55.309,48,52,48z"/>
	</g>
	<g>
		<path class="st0" d="M12,61c-3.86,0-7-3.14-7-7s3.14-7,7-7s7,3.14,7,7S15.86,61,12,61z M12,48c-3.309,0-6,2.691-6,6s2.691,6,6,6
			s6-2.691,6-6S15.309,48,12,48z"/>
	</g>
	<g>
		<path class="st0" d="M12,58c-2.206,0-4-1.794-4-4s1.794-4,4-4s4,1.794,4,4S14.206,58,12,58z M12,51c-1.654,0-3,1.346-3,3
			s1.346,3,3,3s3-1.346,3-3S13.654,51,12,51z"/>
	</g>
	<g>
		<path class="st0" d="M63.5,38.5h-14c-0.827,0-1.5-0.673-1.5-1.5v-9c0-0.827,0.673-1.5,1.5-1.5h9.6
			c0.205,0,0.388,0.125,0.464,0.314l4.4,11c0.062,0.154,0.042,0.329-0.05,0.466C63.821,38.418,63.666,38.5,63.5,38.5z M49.5,27.5
			c-0.276,0-0.5,0.224-0.5,0.5v9c0,0.276,0.224,0.5,0.5,0.5h13.262l-4-10H49.5z"/>
	</g>
	<g>
		<path class="st0" d="M59.069,35.5c-0.198,0-0.386-0.119-0.464-0.314l-2-5c-0.103-0.256,0.022-0.547,0.279-0.65
			c0.254-0.102,0.547,0.021,0.65,0.279l2,5c0.103,0.256-0.022,0.547-0.279,0.65C59.194,35.489,59.131,35.5,59.069,35.5z"/>
	</g>
	<g>
		<path class="st0" d="M35,56H25c-0.276,0-0.5-0.224-0.5-0.5v-3c0-0.276,0.224-0.5,0.5-0.5h10c0.276,0,0.5,0.224,0.5,0.5v3
			C35.5,55.777,35.276,56,35,56z M25.5,55h9v-2h-9V55z"/>
	</g>
	<g>
		<path class="st0" d="M41.5,45.5h-41C0.224,45.5,0,45.277,0,45s0.224-0.5,0.5-0.5h41c0.276,0,0.5,0.224,0.5,0.5
			S41.776,45.5,41.5,45.5z"/>
	</g>
	<g>
		<path class="st0" d="M21.5,15.5h-2c-0.276,0-0.5-0.224-0.5-0.5s0.224-0.5,0.5-0.5h2c0.276,0,0.5,0.224,0.5,0.5
			S21.776,15.5,21.5,15.5z"/>
	</g>
	<g>
		<path class="st0" d="M34.5,15.5h-11c-0.276,0-0.5-0.224-0.5-0.5s0.224-0.5,0.5-0.5h11c0.276,0,0.5,0.224,0.5,0.5
			S34.776,15.5,34.5,15.5z"/>
	</g>
	<g>
		<path class="st0" d="M39.5,12.5h-12c-0.276,0-0.5-0.224-0.5-0.5s0.224-0.5,0.5-0.5h12c0.276,0,0.5,0.224,0.5,0.5
			S39.776,12.5,39.5,12.5z"/>
	</g>
	<g>
		<path class="st0" d="M48.5,46.209c-0.276,0-0.5-0.224-0.5-0.5V40c0-0.276,0.224-0.5,0.5-0.5S49,39.724,49,40v5.708
			C49,45.985,48.776,46.209,48.5,46.209z"/>
	</g>
	<g>
		<path class="st0" d="M43.5,54.5H35c-0.276,0-0.5-0.224-0.5-0.5s0.224-0.5,0.5-0.5h8.5c0.276,0,0.5,0.224,0.5,0.5
			S43.776,54.5,43.5,54.5z"/>
	</g>
	<g>
		<path class="st0" d="M52,61c-3.86,0-7-3.14-7-7s3.14-7,7-7s7,3.14,7,7S55.86,61,52,61z M52,48c-3.309,0-6,2.691-6,6s2.691,6,6,6
			s6-2.691,6-6S55.309,48,52,48z"/>
	</g>
	<g>
		<path class="st0" d="M12,58c-2.206,0-4-1.794-4-4s1.794-4,4-4s4,1.794,4,4S14.206,58,12,58z M12,51c-1.654,0-3,1.346-3,3
			s1.346,3,3,3s3-1.346,3-3S13.654,51,12,51z"/>
	</g>
	<g>
		<path class="st0" d="M36.5,25.5h-34C2.224,25.5,2,25.276,2,25s0.224-0.5,0.5-0.5h34c0.276,0,0.5,0.224,0.5,0.5
			S36.776,25.5,36.5,25.5z"/>
	</g>
	<g>
		<path class="st0" d="M36.5,30.5h-34C2.224,30.5,2,30.276,2,30s0.224-0.5,0.5-0.5h34c0.276,0,0.5,0.224,0.5,0.5
			S36.776,30.5,36.5,30.5z"/>
	</g>
	<g>
		<path class="st0" d="M36.5,35.5h-34C2.224,35.5,2,35.276,2,35s0.224-0.5,0.5-0.5h34c0.276,0,0.5,0.224,0.5,0.5
			S36.776,35.5,36.5,35.5z"/>
	</g>
	<g>
		<path class="st0" d="M36.5,40.5h-34C2.224,40.5,2,40.276,2,40s0.224-0.5,0.5-0.5h34c0.276,0,0.5,0.224,0.5,0.5
			S36.776,40.5,36.5,40.5z"/>
	</g>
	<g>
		<path class="st0" d="M63.5,48h-2c-0.827,0-1.5-0.673-1.5-1.5V44c0-0.827,0.673-1.5,1.5-1.5h2c0.276,0,0.5,0.224,0.5,0.5v4.5
			C64,47.776,63.776,48,63.5,48z M61.5,43.5c-0.276,0-0.5,0.224-0.5,0.5v2.5c0,0.276,0.224,0.5,0.5,0.5H63v-3.5H61.5z"/>
	</g>
</g>
</svg>
