<?xml version="1.0" encoding="utf-8"?>
<!-- Generator: Adobe Illustrator 22.0.0, SVG Export Plug-In . SVG Version: 6.00 Build 0)  -->
<svg version="1.1" id="Layer_1" xmlns="http://www.w3.org/2000/svg" xmlns:xlink="http://www.w3.org/1999/xlink" x="0px" y="0px"
	 viewBox="0 0 64 64" style="enable-background:new 0 0 64 64;" xml:space="preserve">
<style type="text/css">
	.st0{fill:#263238;}
	.st1{fill:#4FC3F7;}
	.st2{fill:#FFD740;}
	.st3{fill:#FF5252;}
	.st4{fill:#4DB6AC;}
	.st5{fill:#FFFFFF;}
	.st6{fill:#40C4FF;}
	.st7{fill:#A2A2A1;}
	.st8{fill:#212A41;}
</style>
<g>
	<g>
		<path class="st0" d="M6.5,32.625h-2c-0.276,0-0.5-0.224-0.5-0.5s0.224-0.5,0.5-0.5h2c0.276,0,0.5,0.224,0.5,0.5
			S6.776,32.625,6.5,32.625z"/>
	</g>
	<g>
		<path class="st0" d="M19.5,32.625h-11c-0.276,0-0.5-0.224-0.5-0.5s0.224-0.5,0.5-0.5h11c0.276,0,0.5,0.224,0.5,0.5
			S19.776,32.625,19.5,32.625z"/>
	</g>
	<g>
		<path class="st0" d="M24.5,29.625h-12c-0.276,0-0.5-0.224-0.5-0.5s0.224-0.5,0.5-0.5h12c0.276,0,0.5,0.224,0.5,0.5
			S24.776,29.625,24.5,29.625z"/>
	</g>
	<g>
		<path class="st0" d="M3.5,57.125h-3c-0.276,0-0.5-0.224-0.5-0.5s0.224-0.5,0.5-0.5h3c0.276,0,0.5,0.224,0.5,0.5
			S3.776,57.125,3.5,57.125z"/>
	</g>
	<g>
		<path class="st0" d="M63.5,57.125h-58c-0.276,0-0.5-0.224-0.5-0.5s0.224-0.5,0.5-0.5h58c0.276,0,0.5,0.224,0.5,0.5
			S63.776,57.125,63.5,57.125z"/>
	</g>
	<g>
		<path class="st1" d="M9,10.375c0-1.657,1.343-3,3-3s3,1.343,3,3c1.657,0,3,1.343,3,3s-1.343,3-3,3H9c-1.657,0-3-1.343-3-3
			S7.343,10.375,9,10.375z"/>
	</g>
	<g>
		<path class="st0" d="M55.5,10.125h-4c-0.276,0-0.5-0.224-0.5-0.5s0.224-0.5,0.5-0.5h4c0.276,0,0.5,0.224,0.5,0.5
			S55.776,10.125,55.5,10.125z"/>
	</g>
	<g>
		<path class="st0" d="M53.5,12.125c-0.276,0-0.5-0.224-0.5-0.5v-4c0-0.276,0.224-0.5,0.5-0.5s0.5,0.224,0.5,0.5v4
			C54,11.901,53.776,12.125,53.5,12.125z"/>
	</g>
	<g>
		<path class="st0" d="M50.5,14.125h-4c-0.276,0-0.5-0.224-0.5-0.5s0.224-0.5,0.5-0.5h4c0.276,0,0.5,0.224,0.5,0.5
			S50.776,14.125,50.5,14.125z"/>
	</g>
	<g>
		<path class="st0" d="M48.5,16.125c-0.276,0-0.5-0.224-0.5-0.5v-4c0-0.276,0.224-0.5,0.5-0.5s0.5,0.224,0.5,0.5v4
			C49,15.901,48.776,16.125,48.5,16.125z"/>
	</g>
	<g>
		<path class="st1" d="M50.242,27.625c0-1.105,0.895-2,2-2s2,0.895,2,2c1.105,0,2,0.895,2,2c0,1.105-0.895,2-2,2h-4
			c-1.105,0-2-0.895-2-2C48.242,28.52,49.138,27.625,50.242,27.625z"/>
	</g>
	<g>
		<path class="st0" d="M36.628,23.625H27.5c-0.827,0-1.5-0.673-1.5-1.5v-2.5c0-0.827,0.673-1.5,1.5-1.5h7.042
			c1.184,0,2.26,0.699,2.741,1.782l0.715,1.609c0.207,0.466,0.165,1-0.113,1.427C37.608,23.37,37.138,23.625,36.628,23.625z
			 M27.5,19.125c-0.276,0-0.5,0.224-0.5,0.5v2.5c0,0.276,0.224,0.5,0.5,0.5h9.128c0.172,0,0.325-0.083,0.419-0.228
			c0.094-0.145,0.108-0.318,0.038-0.476l-0.715-1.609c-0.321-0.722-1.038-1.188-1.827-1.188H27.5z"/>
	</g>
	<g>
		<path class="st0" d="M32,47.625c-1.103,0-2-0.897-2-2v-22.5c0-0.276,0.224-0.5,0.5-0.5h3c0.276,0,0.5,0.224,0.5,0.5v22.5
			C34,46.728,33.103,47.625,32,47.625z M31,23.625v22c0,0.551,0.449,1,1,1s1-0.449,1-1v-22H31z"/>
	</g>
	<g>
		<path class="st0" d="M32,44.625h-5.5c-0.276,0-0.5-0.224-0.5-0.5s0.224-0.5,0.5-0.5H32c0.276,0,0.5,0.224,0.5,0.5
			S32.276,44.625,32,44.625z"/>
	</g>
	<g>
		<path class="st2" d="M35.5,38.436v7.189c0,1.93-1.57,3.5-3.5,3.5c-1.758,0-3.204-1.308-3.449-3H26.5c-1.104,0-2-0.896-2-2
			s0.896-2,2-2h2v-3.689c-2.664,1.298-4.5,4.027-4.5,7.189c0,4.418,3.582,8,8,8s8-3.582,8-8C40,42.463,38.164,39.733,35.5,38.436z"
			/>
	</g>
	<g>
		<path class="st0" d="M32,57.12c-2.945,0-5.89-1.121-8.132-3.363c-4.483-4.484-4.483-11.78,0-16.264
			c1.261-1.26,2.766-2.187,4.474-2.755c0.261-0.086,0.545,0.055,0.632,0.317c0.087,0.262-0.055,0.545-0.317,0.632
			c-1.56,0.518-2.933,1.364-4.083,2.513c-4.094,4.094-4.094,10.755,0,14.85c4.094,4.093,10.755,4.094,14.85,0
			c4.094-4.094,4.094-10.755,0-14.85c-1.149-1.149-2.523-1.995-4.083-2.513c-0.262-0.087-0.404-0.37-0.317-0.632
			c0.087-0.262,0.37-0.403,0.632-0.317c1.708,0.568,3.213,1.495,4.474,2.755c4.483,4.484,4.483,11.78,0,16.264
			C37.89,55.999,34.945,57.12,32,57.12z"/>
	</g>
	<g>
		<path class="st0" d="M32,54.125c-4.687,0-8.5-3.813-8.5-8.5c0-3.275,1.832-6.203,4.781-7.639c0.249-0.121,0.548-0.017,0.668,0.231
			c0.121,0.248,0.018,0.547-0.231,0.668c-2.602,1.268-4.219,3.85-4.219,6.74c0,4.136,3.364,7.5,7.5,7.5s7.5-3.364,7.5-7.5
			c0-2.89-1.617-5.472-4.219-6.74c-0.249-0.121-0.352-0.42-0.231-0.668c0.122-0.248,0.42-0.353,0.668-0.231
			c2.949,1.437,4.781,4.364,4.781,7.639C40.5,50.312,36.687,54.125,32,54.125z"/>
	</g>
</g>
</svg>
