<?xml version="1.0" encoding="utf-8"?>
<!-- Generator: Adobe Illustrator 22.0.0, SVG Export Plug-In . SVG Version: 6.00 Build 0)  -->
<svg version="1.1" id="Layer_1" xmlns="http://www.w3.org/2000/svg" xmlns:xlink="http://www.w3.org/1999/xlink" x="0px" y="0px"
	 viewBox="0 0 64 64" style="enable-background:new 0 0 64 64;" xml:space="preserve">
<style type="text/css">
	.st0{fill:#263238;}
	.st1{fill:#4FC3F7;}
	.st2{fill:#FFD740;}
	.st3{fill:#FF5252;}
	.st4{fill:#4DB6AC;}
	.st5{fill:#FFFFFF;}
	.st6{fill:#40C4FF;}
	.st7{fill:#A2A2A1;}
	.st8{fill:#212A41;}
</style>
<g>
	<g>
		<path class="st2" d="M58.5,40.5h2V37h-56v12.5C4.5,50.881,5.619,52,7,52h2.75c0-3.59,2.91-6.5,6.5-6.5c3.59,0,6.5,2.91,6.5,6.5
			H43.5c0-3.59,2.91-6.5,6.5-6.5s6.5,2.91,6.5,6.5H58c1.381,0,2.5-1.119,2.5-2.5V45h-2c-0.552,0-1-0.448-1-1v-2.5
			C57.5,40.948,57.948,40.5,58.5,40.5z"/>
	</g>
	<g>
		<path class="st0" d="M3.5,59h-3C0.224,59,0,58.776,0,58.5S0.224,58,0.5,58h3C3.776,58,4,58.224,4,58.5S3.776,59,3.5,59z"/>
	</g>
	<g>
		<path class="st0" d="M63.5,59h-58C5.224,59,5,58.776,5,58.5S5.224,58,5.5,58h58c0.276,0,0.5,0.224,0.5,0.5S63.776,59,63.5,59z"/>
	</g>
	<g>
		<path class="st0" d="M24.5,19.5h-2c-0.276,0-0.5-0.224-0.5-0.5s0.224-0.5,0.5-0.5h2c0.276,0,0.5,0.224,0.5,0.5
			S24.776,19.5,24.5,19.5z"/>
	</g>
	<g>
		<path class="st0" d="M37.5,19.5h-11c-0.276,0-0.5-0.224-0.5-0.5s0.224-0.5,0.5-0.5h11c0.276,0,0.5,0.224,0.5,0.5
			S37.776,19.5,37.5,19.5z"/>
	</g>
	<g>
		<path class="st0" d="M42.5,16.5h-12c-0.276,0-0.5-0.224-0.5-0.5s0.224-0.5,0.5-0.5h12c0.276,0,0.5,0.224,0.5,0.5
			S42.776,16.5,42.5,16.5z"/>
	</g>
	<g>
		<path class="st0" d="M50,59c-3.859,0-7-3.14-7-7s3.141-7,7-7s7,3.14,7,7S53.859,59,50,59z M50,46c-3.309,0-6,2.691-6,6
			s2.691,6,6,6s6-2.691,6-6S53.309,46,50,46z"/>
	</g>
	<g>
		<path class="st0" d="M50,56c-2.206,0-4-1.794-4-4s1.794-4,4-4s4,1.794,4,4S52.206,56,50,56z M50,49c-1.654,0-3,1.346-3,3
			s1.346,3,3,3s3-1.346,3-3S51.654,49,50,49z"/>
	</g>
	<g>
		<path class="st0" d="M16.25,59c-3.86,0-7-3.14-7-7s3.14-7,7-7s7,3.14,7,7S20.11,59,16.25,59z M16.25,46c-3.309,0-6,2.691-6,6
			s2.691,6,6,6s6-2.691,6-6S19.559,46,16.25,46z"/>
	</g>
	<g>
		<path class="st0" d="M7.75,52.5H7c-1.654,0-3-1.346-3-3v-23c0-1.654,1.346-3,3-3h43.514c2.026,0,3.882,1.108,4.843,2.893
			l5.584,10.371C60.979,36.836,61,36.917,61,37v12.5c0,1.422-1.011,2.659-2.404,2.94c-0.268,0.056-0.534-0.12-0.589-0.392
			c-0.055-0.271,0.121-0.534,0.392-0.589C59.326,51.272,60,50.448,60,49.5V37.126l-5.524-10.26
			c-0.786-1.459-2.304-2.366-3.962-2.366H7c-1.103,0-2,0.897-2,2v23c0,1.103,0.897,2,2,2h0.75c0.276,0,0.5,0.224,0.5,0.5
			S8.026,52.5,7.75,52.5z"/>
	</g>
	<g>
		<path class="st0" d="M41.5,52.5H24.75c-0.276,0-0.5-0.224-0.5-0.5s0.224-0.5,0.5-0.5H41.5c0.276,0,0.5,0.224,0.5,0.5
			S41.776,52.5,41.5,52.5z"/>
	</g>
	<g>
		<path class="st0" d="M16.25,56c-2.206,0-4-1.794-4-4s1.794-4,4-4s4,1.794,4,4S18.456,56,16.25,56z M16.25,49c-1.654,0-3,1.346-3,3
			s1.346,3,3,3s3-1.346,3-3S17.904,49,16.25,49z"/>
	</g>
	<g>
		<path class="st1" d="M8.5,8.5c0-1.657,1.343-3,3-3s3,1.343,3,3c1.657,0,3,1.343,3,3s-1.343,3-3,3h-6c-1.657,0-3-1.343-3-3
			S6.843,8.5,8.5,8.5z"/>
	</g>
	<g>
		<path class="st0" d="M52.5,9h-4C48.224,9,48,8.776,48,8.5S48.224,8,48.5,8h4C52.776,8,53,8.224,53,8.5S52.776,9,52.5,9z"/>
	</g>
	<g>
		<path class="st0" d="M50.5,11c-0.276,0-0.5-0.224-0.5-0.5v-4C50,6.224,50.224,6,50.5,6S51,6.224,51,6.5v4
			C51,10.776,50.776,11,50.5,11z"/>
	</g>
	<g>
		<path class="st0" d="M58.5,13h-4c-0.276,0-0.5-0.224-0.5-0.5s0.224-0.5,0.5-0.5h4c0.276,0,0.5,0.224,0.5,0.5S58.776,13,58.5,13z"
			/>
	</g>
	<g>
		<path class="st0" d="M56.5,15c-0.276,0-0.5-0.224-0.5-0.5v-4c0-0.276,0.224-0.5,0.5-0.5s0.5,0.224,0.5,0.5v4
			C57,14.776,56.776,15,56.5,15z"/>
	</g>
	<g>
		<path class="st0" d="M60.5,37.5h-19c-0.827,0-1.5-0.673-1.5-1.5v-8c0-0.827,0.673-1.5,1.5-1.5h13.615
			c0.184,0,0.353,0.101,0.44,0.263l5.385,10c0.083,0.155,0.079,0.342-0.011,0.493C60.839,37.408,60.676,37.5,60.5,37.5z M41.5,27.5
			c-0.275,0-0.5,0.224-0.5,0.5v8c0,0.276,0.225,0.5,0.5,0.5h18.163l-4.847-9H41.5z"/>
	</g>
	<g>
		<path class="st0" d="M55.477,34.5c-0.178,0-0.35-0.095-0.44-0.263l-2.153-4c-0.131-0.243-0.04-0.546,0.203-0.677
			c0.242-0.13,0.546-0.041,0.678,0.204l2.153,4c0.131,0.243,0.04,0.546-0.203,0.677C55.639,34.481,55.557,34.5,55.477,34.5z"/>
	</g>
	<g>
		<path class="st0" d="M34.25,37.5H4.5C4.224,37.5,4,37.276,4,37V27c0-0.276,0.224-0.5,0.5-0.5h29.75c0.827,0,1.5,0.673,1.5,1.5v8
			C35.75,36.827,35.077,37.5,34.25,37.5z M5,36.5h29.25c0.275,0,0.5-0.224,0.5-0.5v-8c0-0.276-0.225-0.5-0.5-0.5H5V36.5z"/>
	</g>
	<g>
		<path class="st0" d="M19.875,37.5c-0.276,0-0.5-0.224-0.5-0.5V27c0-0.276,0.224-0.5,0.5-0.5s0.5,0.224,0.5,0.5v10
			C20.375,37.276,20.151,37.5,19.875,37.5z"/>
	</g>
	<g>
		<path class="st0" d="M60.5,45.5h-2c-0.827,0-1.5-0.673-1.5-1.5v-2.5c0-0.827,0.673-1.5,1.5-1.5h2c0.276,0,0.5,0.224,0.5,0.5V45
			C61,45.276,60.776,45.5,60.5,45.5z M58.5,41c-0.275,0-0.5,0.224-0.5,0.5V44c0,0.276,0.225,0.5,0.5,0.5H60V41H58.5z"/>
	</g>
	<g>
		<path class="st0" d="M40.5,52.5c-0.276,0-0.5-0.224-0.5-0.5V39c0-0.276,0.224-0.5,0.5-0.5S41,38.724,41,39v13
			C41,52.276,40.776,52.5,40.5,52.5z"/>
	</g>
	<g>
		<path class="st0" d="M45.618,41h-2.5c-0.276,0-0.5-0.224-0.5-0.5s0.224-0.5,0.5-0.5h2.5c0.276,0,0.5,0.224,0.5,0.5
			S45.895,41,45.618,41z"/>
	</g>
	<g>
		<path class="st0" d="M36.5,49.5h-2c-0.827,0-1.5-0.673-1.5-1.5v-2c0-0.827,0.673-1.5,1.5-1.5h2c0.827,0,1.5,0.673,1.5,1.5v2
			C38,48.827,37.327,49.5,36.5,49.5z M34.5,45.5c-0.275,0-0.5,0.224-0.5,0.5v2c0,0.276,0.225,0.5,0.5,0.5h2
			c0.275,0,0.5-0.224,0.5-0.5v-2c0-0.276-0.225-0.5-0.5-0.5H34.5z"/>
	</g>
</g>
</svg>
