<?xml version="1.0" encoding="utf-8"?>
<!-- Generator: Adobe Illustrator 22.0.0, SVG Export Plug-In . SVG Version: 6.00 Build 0)  -->
<svg version="1.1" id="Layer_1" xmlns="http://www.w3.org/2000/svg" xmlns:xlink="http://www.w3.org/1999/xlink" x="0px" y="0px"
	 viewBox="0 0 64 64" style="enable-background:new 0 0 64 64;" xml:space="preserve">
<style type="text/css">
	.st0{fill:#263238;}
	.st1{fill:#4FC3F7;}
	.st2{fill:#FFD740;}
	.st3{fill:#FF5252;}
	.st4{fill:#4DB6AC;}
	.st5{fill:#FFFFFF;}
	.st6{fill:#40C4FF;}
	.st7{fill:#A2A2A1;}
	.st8{fill:#212A41;}
</style>
<g>
	<g>
		<path class="st0" d="M5.9,21h-2c-0.276,0-0.5-0.224-0.5-0.5S3.624,20,3.9,20h2c0.276,0,0.5,0.224,0.5,0.5S6.177,21,5.9,21z"/>
	</g>
	<g>
		<path class="st0" d="M18.9,21h-11c-0.276,0-0.5-0.224-0.5-0.5S7.624,20,7.9,20h11c0.276,0,0.5,0.224,0.5,0.5S19.177,21,18.9,21z"
			/>
	</g>
	<g>
		<path class="st0" d="M23.9,18h-12c-0.276,0-0.5-0.224-0.5-0.5s0.224-0.5,0.5-0.5h12c0.276,0,0.5,0.224,0.5,0.5S24.177,18,23.9,18z
			"/>
	</g>
	<g>
		<path class="st1" d="M52.9,18.5c0-1.657,1.343-3,3-3s3,1.343,3,3c1.657,0,3,1.343,3,3s-1.343,3-3,3h-6c-1.657,0-3-1.343-3-3
			S51.243,18.5,52.9,18.5z"/>
	</g>
	<g>
		<path class="st0" d="M56.4,4h-4c-0.276,0-0.5-0.224-0.5-0.5S52.124,3,52.4,3h4c0.276,0,0.5,0.224,0.5,0.5S56.677,4,56.4,4z"/>
	</g>
	<g>
		<path class="st0" d="M54.4,6c-0.276,0-0.5-0.224-0.5-0.5v-4c0-0.276,0.224-0.5,0.5-0.5s0.5,0.224,0.5,0.5v4
			C54.9,5.776,54.677,6,54.4,6z"/>
	</g>
	<g>
		<path class="st0" d="M51.4,9h-4c-0.276,0-0.5-0.224-0.5-0.5S47.124,8,47.4,8h4c0.276,0,0.5,0.224,0.5,0.5S51.677,9,51.4,9z"/>
	</g>
	<g>
		<path class="st0" d="M49.4,11c-0.276,0-0.5-0.224-0.5-0.5v-4c0-0.276,0.224-0.5,0.5-0.5s0.5,0.224,0.5,0.5v4
			C49.9,10.776,49.677,11,49.4,11z"/>
	</g>
	<g>
		<path class="st1" d="M8.901,3.5c0-1.105,0.895-2,2-2s2,0.895,2,2c1.105,0,2,0.895,2,2s-0.895,2-2,2h-4c-1.105,0-2-0.895-2-2
			S7.796,3.5,8.901,3.5z"/>
	</g>
	<g>
		<path class="st1" d="M21.036,48.036l-4.328-4.328C16.077,43.077,15,43.523,15,44.414V49.5l-3.293-3.293
			C11.077,45.577,10,46.023,10,46.914V47c0,1.381-1.119,2.5-2.5,2.5H0V50c0,6.904,5.596,12.5,12.5,12.5h39
			C58.404,62.5,64,56.904,64,50v-0.5H24.571C23.245,49.5,21.973,48.973,21.036,48.036z"/>
	</g>
	<g>
		<path class="st0" d="M48.538,48c-0.153,0-0.305-0.07-0.402-0.203c-0.164-0.223-0.116-0.536,0.105-0.699
			c0.482-0.355,0.893-0.712,1.254-1.09l6.238-6.552H38.51l-5.402,2.494c-0.719,0.331-1.516,0.506-2.305,0.506H12.284l-0.43,1.615
			c-0.071,0.267-0.342,0.428-0.612,0.354c-0.267-0.071-0.426-0.346-0.354-0.612l0.529-1.986c0.059-0.219,0.257-0.371,0.483-0.371
			h18.902c0.646,0,1.298-0.144,1.886-0.414l5.502-2.54c0.066-0.03,0.138-0.046,0.21-0.046h18.5c0.2,0,0.381,0.119,0.46,0.303
			c0.078,0.185,0.04,0.397-0.098,0.542l-7.044,7.396c-0.402,0.421-0.854,0.815-1.384,1.205C48.745,47.969,48.642,48,48.538,48z"/>
	</g>
	<g>
		<path class="st0" d="M15.9,42.456c-0.042,0-0.085-0.005-0.127-0.017c-0.268-0.07-0.427-0.344-0.356-0.61l2.304-8.754
			c0.174-0.659,0.771-1.119,1.45-1.119h21.34c0.378,0,0.738,0.141,1.016,0.396l6.795,6.236c0.204,0.187,0.217,0.503,0.03,0.706
			c-0.187,0.205-0.504,0.216-0.706,0.03l-6.796-6.236c-0.093-0.085-0.213-0.132-0.339-0.132h-21.34
			c-0.227,0-0.425,0.153-0.483,0.374l-2.304,8.753C16.325,42.308,16.122,42.456,15.9,42.456z"/>
	</g>
	<g>
		<path class="st0" d="M20.75,32.956c-0.04,0-0.08-0.005-0.121-0.015c-0.269-0.067-0.431-0.339-0.364-0.606l0.561-2.242
			c0.168-0.669,0.767-1.137,1.456-1.137h6.078l0.466-1.863c0.168-0.669,0.767-1.137,1.456-1.137h3.029
			c0.418,0,0.82,0.177,1.104,0.485l5.203,5.677c0.187,0.203,0.173,0.52-0.03,0.706c-0.202,0.188-0.519,0.174-0.706-0.03
			l-5.203-5.676c-0.095-0.103-0.229-0.162-0.368-0.162h-3.029c-0.23,0-0.43,0.156-0.485,0.379l-0.561,2.242
			c-0.056,0.223-0.256,0.379-0.485,0.379h-6.469c-0.23,0-0.43,0.156-0.485,0.379l-0.561,2.242
			C21.179,32.805,20.975,32.956,20.75,32.956z"/>
	</g>
	<g>
		<path class="st2" d="M29,35.456l2.252,2.627c0.475,0.554,1.168,0.873,1.898,0.873h14.834l-3.814-3.5H29z"/>
		<path class="st0" d="M47.983,39.456H33.149c-0.877,0-1.707-0.382-2.278-1.048l-2.251-2.627c-0.127-0.148-0.156-0.356-0.074-0.534
			c0.081-0.178,0.259-0.291,0.454-0.291h15.17c0.125,0,0.246,0.047,0.338,0.132l3.813,3.5c0.152,0.14,0.203,0.357,0.128,0.55
			C48.375,39.329,48.189,39.456,47.983,39.456z M30.087,35.956l1.544,1.802c0.38,0.443,0.934,0.698,1.519,0.698h13.55l-2.724-2.5
			H30.087z"/>
	</g>
	<g>
		<path class="st0" d="M51.043,42.456H36.9c-0.276,0-0.5-0.224-0.5-0.5s0.224-0.5,0.5-0.5h14.143c0.276,0,0.5,0.224,0.5,0.5
			S51.319,42.456,51.043,42.456z"/>
	</g>
</g>
</svg>
