<?xml version="1.0" encoding="utf-8"?>
<!-- Generator: Adobe Illustrator 22.0.0, SVG Export Plug-In . SVG Version: 6.00 Build 0)  -->
<svg version="1.1" id="Layer_1" xmlns="http://www.w3.org/2000/svg" xmlns:xlink="http://www.w3.org/1999/xlink" x="0px" y="0px"
	 viewBox="0 0 64 64" style="enable-background:new 0 0 64 64;" xml:space="preserve">
<style type="text/css">
	.st0{fill:#263238;}
	.st1{fill:#4FC3F7;}
	.st2{fill:#FFD740;}
	.st3{fill:#FF5252;}
	.st4{fill:#4DB6AC;}
	.st5{fill:#FFFFFF;}
	.st6{fill:#40C4FF;}
	.st7{fill:#A2A2A1;}
	.st8{fill:#212A41;}
</style>
<g>
	<g>
		<path class="st0" d="M63.5,17h-63C0.224,17,0,16.776,0,16.5S0.224,16,0.5,16h63c0.276,0,0.5,0.224,0.5,0.5S63.776,17,63.5,17z"/>
	</g>
	<g>
		<path class="st0" d="M44,28.5H20c-0.276,0-0.5-0.224-0.5-0.5v-3c0-0.276,0.224-0.5,0.5-0.5h24c0.276,0,0.5,0.224,0.5,0.5v3
			C44.5,28.276,44.276,28.5,44,28.5z M20.5,27.5h23v-2h-23V27.5z"/>
	</g>
	<g>
		<path class="st2" d="M37,18H27c-0.552,0-1-0.448-1-1v-1c0-0.552,0.448-1,1-1h10c0.552,0,1,0.448,1,1v1C38,17.552,37.552,18,37,18z
			"/>
		<path class="st0" d="M37,18.5H27c-0.827,0-1.5-0.673-1.5-1.5v-1c0-0.827,0.673-1.5,1.5-1.5h10c0.827,0,1.5,0.673,1.5,1.5v1
			C38.5,17.827,37.827,18.5,37,18.5z M27,15.5c-0.275,0-0.5,0.225-0.5,0.5v1c0,0.275,0.225,0.5,0.5,0.5h10
			c0.275,0,0.5-0.225,0.5-0.5v-1c0-0.275-0.225-0.5-0.5-0.5H27z"/>
	</g>
	<g>
		<path class="st2" d="M48,52.5H16c-0.552,0-1-0.448-1-1v-3c0-0.552,0.448-1,1-1h32c0.552,0,1,0.448,1,1v3
			C49,52.052,48.552,52.5,48,52.5z"/>
		<path class="st0" d="M48,53H16c-0.827,0-1.5-0.673-1.5-1.5v-3c0-0.827,0.673-1.5,1.5-1.5h32c0.827,0,1.5,0.673,1.5,1.5v3
			C49.5,52.327,48.827,53,48,53z M16,48c-0.275,0-0.5,0.225-0.5,0.5v3c0,0.275,0.225,0.5,0.5,0.5h32c0.275,0,0.5-0.225,0.5-0.5v-3
			c0-0.275-0.225-0.5-0.5-0.5H16z"/>
	</g>
	<g>
		<path class="st1" d="M57,26.5c0-1.105-0.895-2-2-2s-2,0.895-2,2c-1.105,0-2,0.895-2,2s0.895,2,2,2h4c1.105,0,2-0.895,2-2
			S58.105,26.5,57,26.5z"/>
	</g>
	<g>
		<path class="st0" d="M54,7h-4c-0.276,0-0.5-0.224-0.5-0.5S49.724,6,50,6h4c0.276,0,0.5,0.224,0.5,0.5S54.276,7,54,7z"/>
	</g>
	<g>
		<path class="st0" d="M52,9c-0.276,0-0.5-0.224-0.5-0.5v-4C51.5,4.224,51.724,4,52,4s0.5,0.224,0.5,0.5v4C52.5,8.776,52.276,9,52,9
			z"/>
	</g>
	<g>
		<path class="st0" d="M48.5,11.5h-4c-0.276,0-0.5-0.224-0.5-0.5s0.224-0.5,0.5-0.5h4c0.276,0,0.5,0.224,0.5,0.5
			S48.776,11.5,48.5,11.5z"/>
	</g>
	<g>
		<path class="st0" d="M46.5,13.5c-0.276,0-0.5-0.224-0.5-0.5V9c0-0.276,0.224-0.5,0.5-0.5S47,8.724,47,9v4
			C47,13.276,46.776,13.5,46.5,13.5z"/>
	</g>
	<g>
		<path class="st1" d="M8,7c0-1.657,1.343-3,3-3s3,1.343,3,3c1.657,0,3,1.343,3,3s-1.343,3-3,3H8c-1.657,0-3-1.343-3-3S6.343,7,8,7z
			"/>
	</g>
	<g>
		<path class="st0" d="M33.5,25.5h-3c-0.276,0-0.5-0.224-0.5-0.5v-7c0-0.276,0.224-0.5,0.5-0.5h3c0.276,0,0.5,0.224,0.5,0.5v7
			C34,25.276,33.776,25.5,33.5,25.5z M31,24.5h2v-6h-2V24.5z"/>
	</g>
	<g>
		<path class="st0" d="M24.5,48h-9c-0.152,0-0.297-0.069-0.392-0.188s-0.13-0.275-0.096-0.424l4.5-19.5
			C19.565,27.661,19.768,27.5,20,27.5s0.435,0.161,0.487,0.388l4.5,19.5c0.034,0.148-0.001,0.305-0.096,0.424S24.652,48,24.5,48z
			 M16.129,47h7.742L20,30.224L16.129,47z"/>
	</g>
	<g>
		<path class="st2" d="M24,52.5h-8c-0.552,0-1-0.448-1-1v-3c0-0.552,0.448-1,1-1h8c0.552,0,1,0.448,1,1v3
			C25,52.052,24.552,52.5,24,52.5z"/>
		<path class="st0" d="M24,53h-8c-0.827,0-1.5-0.673-1.5-1.5v-3c0-0.827,0.673-1.5,1.5-1.5h8c0.827,0,1.5,0.673,1.5,1.5v3
			C25.5,52.327,24.827,53,24,53z M16,48c-0.275,0-0.5,0.225-0.5,0.5v3c0,0.275,0.225,0.5,0.5,0.5h8c0.275,0,0.5-0.225,0.5-0.5v-3
			c0-0.275-0.225-0.5-0.5-0.5H16z"/>
	</g>
	<g>
		<path class="st0" d="M48.5,48h-9c-0.152,0-0.297-0.069-0.392-0.188s-0.13-0.275-0.096-0.424l4.5-19.5
			C43.565,27.661,43.768,27.5,44,27.5s0.435,0.161,0.487,0.388l4.5,19.5c0.034,0.148-0.001,0.305-0.096,0.424S48.652,48,48.5,48z
			 M40.129,47h7.742L44,30.224L40.129,47z"/>
	</g>
	<g>
		<path class="st0" d="M7.5,57.5h-2C5.224,57.5,5,57.276,5,57s0.224-0.5,0.5-0.5h2C7.776,56.5,8,56.724,8,57S7.776,57.5,7.5,57.5z"
			/>
	</g>
	<g>
		<path class="st0" d="M19,57.5H9.5C9.224,57.5,9,57.276,9,57s0.224-0.5,0.5-0.5H19c0.276,0,0.5,0.224,0.5,0.5S19.276,57.5,19,57.5z
			"/>
	</g>
	<g>
		<path class="st0" d="M23,60.5H12.5c-0.276,0-0.5-0.224-0.5-0.5s0.224-0.5,0.5-0.5H23c0.276,0,0.5,0.224,0.5,0.5
			S23.276,60.5,23,60.5z"/>
	</g>
</g>
</svg>
