<?xml version="1.0" encoding="utf-8"?>
<!-- Generator: Adobe Illustrator 21.0.0, SVG Export Plug-In . SVG Version: 6.00 Build 0)  -->
<svg version="1.1" id="Layer_1" xmlns="http://www.w3.org/2000/svg" xmlns:xlink="http://www.w3.org/1999/xlink" x="0px" y="0px"
	 viewBox="0 0 64 64" style="enable-background:new 0 0 64 64;" xml:space="preserve">
<style type="text/css">
	.st0{fill:none;stroke:#263238;stroke-linecap:round;stroke-linejoin:round;stroke-miterlimit:10;}
	.st1{fill:#FFD740;stroke:#263238;stroke-linecap:round;stroke-linejoin:round;stroke-miterlimit:10;}
	.st2{fill:#40C4FF;stroke:#263238;stroke-linecap:round;stroke-linejoin:round;stroke-miterlimit:10;}
	.st3{fill:#FFFFFF;stroke:#263238;stroke-linecap:round;stroke-linejoin:round;stroke-miterlimit:10;}
	.st4{fill:#FF5252;stroke:#263238;stroke-linecap:round;stroke-linejoin:round;stroke-miterlimit:10;}
	.st5{fill:#FF5252;}
	.st6{fill:#4DB6AC;stroke:#263238;stroke-linecap:round;stroke-linejoin:round;stroke-miterlimit:10;}
	.st7{fill:#FFD740;}
	.st8{fill:#40C4FF;}
	.st9{fill:#4DB6AC;}
	.st10{fill:#FFFFFF;}
	.st11{fill:#263238;stroke:#263238;stroke-linecap:round;stroke-linejoin:round;stroke-miterlimit:10;}
	.st12{fill:#4FC3F7;}
	.st13{fill:#E0E0E0;stroke:#263238;stroke-linecap:round;stroke-linejoin:round;stroke-miterlimit:10;}
</style>
<g id="Airplane">
	<g>
		<g>
			<g>
				<path class="st12" d="M10.5,14c0-1.1-0.9-2-2-2s-2,0.9-2,2c-1.1,0-2,0.9-2,2c0,1.1,0.9,2,2,2h4c1.1,0,2-0.9,2-2
					C12.5,14.9,11.6,14,10.5,14z"/>
			</g>
		</g>
		<g>
			<g>
				<path class="st12" d="M57.5,14.1c0-1.1-0.9-2-2-2s-2,0.9-2,2c-1.1,0-2,0.9-2,2s0.9,2,2,2h4c1.1,0,2-0.9,2-2S58.6,14.1,57.5,14.1
					z"/>
			</g>
		</g>
		<g>
			<path class="st0" d="M28,58.9c-0.9-0.9-1.5-2.2-1.5-3.5V9.3c0-2.5,0.9-4.9,2.6-6.8l1-1.1c1-1.1,2.7-1.1,3.7,0l1,1.1
				c1.7,1.8,2.6,4.3,2.6,6.8v46.1c0,1.4-0.5,2.6-1.4,3.5"/>
			<g>
				<path class="st0" d="M3.5,30.3V28c0-0.6,0.4-1,1-1h2c0.6,0,1,0.4,1,1v0.3"/>
				<path class="st0" d="M10.5,26.9V25c0-0.6,0.4-1,1-1h2c0.6,0,1,0.4,1,1"/>
				<path class="st4" d="M1.8,42l24.7-7.6v-13L1.9,33.2c-0.9,0.4-1.4,1.3-1.4,2.3V41C0.5,41.7,1.2,42.2,1.8,42z"/>
			</g>
			<g>
				<path class="st0" d="M60.5,30.3V28c0-0.6-0.4-1-1-1h-2c-0.6,0-1,0.4-1,1v0.3"/>
				<path class="st0" d="M53.5,26.9V25c0-0.6-0.4-1-1-1h-2c-0.6,0-1,0.4-1,1"/>
				<path class="st4" d="M62.2,42l-24.7-7.6v-13l24.6,11.8c0.9,0.4,1.4,1.3,1.4,2.3V41C63.5,41.7,62.8,42.2,62.2,42z"/>
			</g>
			<path class="st4" d="M18.1,52.1l8.4-3.7v8h-8c-0.6,0-1-0.4-1-1v-2.4C17.5,52.7,17.7,52.3,18.1,52.1z"/>
			<path class="st4" d="M45.9,52.1l-8.4-3.7v8h8c0.6,0,1-0.4,1-1v-2.4C46.5,52.7,46.3,52.3,45.9,52.1z"/>
			<path class="st4" d="M32,63.4L32,63.4c-1.3,0-2.4-1.2-2.3-2.5l0.7-6.6c0.1-0.5,0.5-0.9,1-0.9h1.2c0.5,0,0.9,0.4,1,0.9l0.7,6.6
				C34.4,62.2,33.3,63.4,32,63.4z"/>
			<g>
				<g>
					<g>
						<line class="st0" x1="5.5" y1="59" x2="5.5" y2="60"/>
						<line class="st0" x1="5.5" y1="45" x2="5.5" y2="57"/>
					</g>
				</g>
				<g>
					<g>
						<line class="st0" x1="11.5" y1="55" x2="11.5" y2="56"/>
						<line class="st0" x1="11.5" y1="43" x2="11.5" y2="53"/>
					</g>
				</g>
			</g>
			<g>
				<g>
					<g>
						<line class="st0" x1="58.5" y1="59" x2="58.5" y2="60"/>
						<line class="st0" x1="58.5" y1="45" x2="58.5" y2="57"/>
					</g>
				</g>
				<g>
					<g>
						<line class="st0" x1="52.5" y1="55" x2="52.5" y2="56"/>
						<line class="st0" x1="52.5" y1="43" x2="52.5" y2="53"/>
					</g>
				</g>
			</g>
			<path class="st0" d="M29.5,7.5L29.5,7.5c1.5-1.2,3.5-1.2,5,0l0,0"/>
			<line class="st0" x1="34.5" y1="10.5" x2="34.5" y2="50.4"/>
		</g>
	</g>
</g>
</svg>
