<?xml version="1.0" encoding="utf-8"?>
<!-- Generator: Adobe Illustrator 21.0.0, SVG Export Plug-In . SVG Version: 6.00 Build 0)  -->
<svg version="1.1" id="Layer_1" xmlns="http://www.w3.org/2000/svg" xmlns:xlink="http://www.w3.org/1999/xlink" x="0px" y="0px"
	 viewBox="0 0 64 64" style="enable-background:new 0 0 64 64;" xml:space="preserve">
<style type="text/css">
	.st0{fill:none;stroke:#263238;stroke-linecap:round;stroke-linejoin:round;stroke-miterlimit:10;}
	.st1{fill:#FFD740;stroke:#263238;stroke-linecap:round;stroke-linejoin:round;stroke-miterlimit:10;}
	.st2{fill:#40C4FF;stroke:#263238;stroke-linecap:round;stroke-linejoin:round;stroke-miterlimit:10;}
	.st3{fill:#FFFFFF;stroke:#263238;stroke-linecap:round;stroke-linejoin:round;stroke-miterlimit:10;}
	.st4{fill:#FF5252;stroke:#263238;stroke-linecap:round;stroke-linejoin:round;stroke-miterlimit:10;}
	.st5{fill:#FF5252;}
	.st6{fill:#4DB6AC;stroke:#263238;stroke-linecap:round;stroke-linejoin:round;stroke-miterlimit:10;}
	.st7{fill:#FFD740;}
	.st8{fill:#40C4FF;}
	.st9{fill:#4DB6AC;}
	.st10{fill:#FFFFFF;}
	.st11{fill:#263238;stroke:#263238;stroke-linecap:round;stroke-linejoin:round;stroke-miterlimit:10;}
	.st12{fill:#4FC3F7;}
	.st13{fill:#E0E0E0;stroke:#263238;stroke-linecap:round;stroke-linejoin:round;stroke-miterlimit:10;}
</style>
<g id="Automation">
	<g>
		<g>
			<circle class="st2" cx="51.5" cy="51.5" r="10"/>
			<path class="st3" d="M55.5,50.6L50,47.4c-0.7-0.4-1.5,0.1-1.5,0.9v6.5c0,0.8,0.8,1.3,1.5,0.9l5.5-3.3C56.2,52,56.2,51,55.5,50.6z
				"/>
		</g>
		<g>
			<g>
				<path class="st0" d="M30.5,58.5c-15.5,0-28-12.5-28-28"/>
				<line class="st0" x1="2.5" y1="28.5" x2="2.5" y2="27.5"/>
			</g>
			<g>
				<path class="st0" d="M30.5,2.5c15.5,0,28,12.5,28,28"/>
				<line class="st0" x1="58.5" y1="33.5" x2="58.5" y2="32.5"/>
			</g>
		</g>
		<g>
			<g>
				<g>
					<circle class="st5" cx="30.5" cy="30.5" r="6"/>
				</g>
			</g>
			<path class="st0" d="M30.5,16.5c7.7,0,14,6.3,14,14"/>
			<path class="st0" d="M45.6,39.4c0.8-1.4,1.5-2.9,1.9-4.5h0l2.1-0.4c1.2-0.2,2-1.3,2-2.4v-3c0-1.2-0.8-2.2-2-2.4l-2.1-0.4h0
				c-0.4-1.6-1-3.1-1.9-4.5l0,0l1.2-1.8c0.6-1,0.5-2.3-0.3-3.1l-2.1-2.1c-0.8-0.8-2.1-1-3.1-0.3l-1.8,1.2l0,0
				c-1.4-0.8-2.9-1.5-4.5-1.9v0l-0.4-2.1c-0.2-1.2-1.3-2-2.4-2h-3c-1.2,0-2.2,0.8-2.4,2l-0.4,2.1v0c-1.6,0.4-3.1,1-4.5,1.9l0,0
				l-1.8-1.2c-1-0.6-2.3-0.5-3.1,0.3l-2.1,2.1c-0.8,0.8-1,2.1-0.3,3.1l1.2,1.8l0,0c-0.8,1.4-1.5,2.9-1.9,4.5h0l-2.1,0.4
				c-1.2,0.2-2,1.3-2,2.4v3c0,1.2,0.8,2.2,2,2.4l2.1,0.4h0c0.4,1.6,1,3.1,1.9,4.5l0,0l-1.2,1.8c-0.6,1-0.5,2.3,0.3,3.1l2.1,2.1
				c0.8,0.8,2.1,1,3.1,0.3l1.8-1.2l0,0c1.4,0.8,2.9,1.5,4.5,1.9v0l0.4,2.1c0.2,1.2,1.3,2,2.4,2h3c1.2,0,2.2-0.8,2.4-2l0.4-2.1v0
				c1.6-0.4,3.1-1,4.5-1.9 M30.5,40.5c-5.5,0-10-4.5-10-10c0-5.5,4.5-10,10-10s10,4.5,10,10C40.5,36,36,40.5,30.5,40.5z"/>
		</g>
	</g>
</g>
</svg>
