<?xml version="1.0" encoding="utf-8"?>
<!-- Generator: Adobe Illustrator 21.0.0, SVG Export Plug-In . SVG Version: 6.00 Build 0)  -->
<svg version="1.1" id="Layer_1" xmlns="http://www.w3.org/2000/svg" xmlns:xlink="http://www.w3.org/1999/xlink" x="0px" y="0px"
	 viewBox="0 0 64 64" style="enable-background:new 0 0 64 64;" xml:space="preserve">
<style type="text/css">
	.st0{fill:none;stroke:#263238;stroke-linecap:round;stroke-linejoin:round;stroke-miterlimit:10;}
	.st1{fill:#FFD740;stroke:#263238;stroke-linecap:round;stroke-linejoin:round;stroke-miterlimit:10;}
	.st2{fill:#40C4FF;stroke:#263238;stroke-linecap:round;stroke-linejoin:round;stroke-miterlimit:10;}
	.st3{fill:#FFFFFF;stroke:#263238;stroke-linecap:round;stroke-linejoin:round;stroke-miterlimit:10;}
	.st4{fill:#FF5252;stroke:#263238;stroke-linecap:round;stroke-linejoin:round;stroke-miterlimit:10;}
	.st5{fill:#FF5252;}
	.st6{fill:#4DB6AC;stroke:#263238;stroke-linecap:round;stroke-linejoin:round;stroke-miterlimit:10;}
	.st7{fill:#FFD740;}
	.st8{fill:#40C4FF;}
	.st9{fill:#4DB6AC;}
	.st10{fill:#FFFFFF;}
	.st11{fill:#263238;stroke:#263238;stroke-linecap:round;stroke-linejoin:round;stroke-miterlimit:10;}
	.st12{fill:#4FC3F7;}
	.st13{fill:#E0E0E0;stroke:#263238;stroke-linecap:round;stroke-linejoin:round;stroke-miterlimit:10;}
</style>
<g id="Autonomous_Car">
	<g>
		<g>
			<g>
				<g>
					<circle class="st7" cx="48.5" cy="20.5" r="15"/>
				</g>
			</g>
			<path class="st0" d="M40.7,17.7c4.3-4.3,11.3-4.3,15.6,0"/>
			<path class="st0" d="M43.6,20.6c2.7-2.7,7.2-2.7,9.9,0"/>
			<path class="st0" d="M46.4,23.4c1.2-1.2,3.1-1.2,4.2,0"/>
		</g>
		<g>
			<line class="st0" x1="43.6" y1="56.5" x2="26.6" y2="56.5"/>
			<line class="st0" x1="22.1" y1="58.5" x2="21.1" y2="58.5"/>
			<line class="st0" x1="39.6" y1="58.5" x2="24.1" y2="58.5"/>
		</g>
		<g>
			<path class="st2" d="M61.5,51.5h1c0.6,0,1-0.4,1-1v-4c0-0.6-0.4-1-1-1H62l-0.5-2.8c-0.5-3.1-3-5.6-6.1-6.1l-6.3-1.1L43,29.6
				c-2.8-2.7-6.5-4.1-10.3-4.1H12.1c-0.7,0-1.2,0.7-0.9,1.4l1.1,2.9c0.2,0.4,0,0.9-0.4,1.2L7.3,34C5.8,34.9,5,36.5,5,38.2v7.3H4.5
				c-0.6,0-1,0.4-1,1v4c0,0.6,0.4,1,1,1h2"/>
			<line class="st2" x1="25.1" y1="51.5" x2="43.5" y2="51.5"/>
			<circle class="st3" cx="52.5" cy="49.5" r="7"/>
			<circle class="st0" cx="52.5" cy="49.5" r="4"/>
			<circle class="st3" cx="16.1" cy="49.5" r="7"/>
			<circle class="st0" cx="16.1" cy="49.5" r="4"/>
			<path class="st3" d="M43,29.6c-0.4-0.4-0.9-0.8-1.4-1.1H20.5c-1.9,0-3.1,2-2.2,3.6l1,2c0.4,0.8,1.3,1.4,2.2,1.4h27.6L43,29.6z"/>
			<line class="st0" x1="49.1" y1="37.5" x2="49.1" y2="41.5"/>
			<line class="st0" x1="30.5" y1="49.5" x2="30.5" y2="37.5"/>
			<circle class="st0" cx="11" cy="39.5" r="2"/>
			<line class="st0" x1="30.5" y1="35.5" x2="30.5" y2="28.5"/>
		</g>
		<g>
			<path class="st0" d="M2.3,9.2L2.3,9.2c-2,1.9-2.4,5-1,7.4l5.2,8.8l5.2-8.8c1.4-2.4,1-5.4-1-7.4l0,0C8.3,6.9,4.7,6.9,2.3,9.2z"/>
			<circle class="st0" cx="6.5" cy="13.5" r="3"/>
		</g>
	</g>
</g>
</svg>
