<?xml version="1.0" encoding="utf-8"?>
<!-- Generator: Adobe Illustrator 21.0.0, SVG Export Plug-In . SVG Version: 6.00 Build 0)  -->
<svg version="1.1" id="Layer_1" xmlns="http://www.w3.org/2000/svg" xmlns:xlink="http://www.w3.org/1999/xlink" x="0px" y="0px"
	 viewBox="0 0 64 64" style="enable-background:new 0 0 64 64;" xml:space="preserve">
<style type="text/css">
	.st0{fill:none;stroke:#263238;stroke-linecap:round;stroke-linejoin:round;stroke-miterlimit:10;}
	.st1{fill:#FFD740;stroke:#263238;stroke-linecap:round;stroke-linejoin:round;stroke-miterlimit:10;}
	.st2{fill:#40C4FF;stroke:#263238;stroke-linecap:round;stroke-linejoin:round;stroke-miterlimit:10;}
	.st3{fill:#FFFFFF;stroke:#263238;stroke-linecap:round;stroke-linejoin:round;stroke-miterlimit:10;}
	.st4{fill:#FF5252;stroke:#263238;stroke-linecap:round;stroke-linejoin:round;stroke-miterlimit:10;}
	.st5{fill:#FF5252;}
	.st6{fill:#4DB6AC;stroke:#263238;stroke-linecap:round;stroke-linejoin:round;stroke-miterlimit:10;}
	.st7{fill:#FFD740;}
	.st8{fill:#40C4FF;}
	.st9{fill:#4DB6AC;}
	.st10{fill:#FFFFFF;}
	.st11{fill:#263238;stroke:#263238;stroke-linecap:round;stroke-linejoin:round;stroke-miterlimit:10;}
	.st12{fill:#4FC3F7;}
	.st13{fill:#E0E0E0;stroke:#263238;stroke-linecap:round;stroke-linejoin:round;stroke-miterlimit:10;}
</style>
<g id="Bike_Charging_Station">
	<g>
		<g>
			<circle class="st1" cx="48" cy="9.5" r="9"/>
			<polygon class="st3" points="45.3,16 47.5,9.5 44.2,9.5 50.7,3 48.5,9.5 51.8,9.5 			"/>
		</g>
		<g>
			<g>
				<line class="st0" x1="25" y1="8.5" x2="26" y2="8.5"/>
				<line class="st0" x1="15" y1="8.5" x2="23" y2="8.5"/>
			</g>
			<g>
				<line class="st0" x1="9" y1="10.5" x2="8" y2="10.5"/>
				<line class="st0" x1="19" y1="10.5" x2="11" y2="10.5"/>
			</g>
		</g>
		<g>
			<path class="st0" d="M8,22H2c-0.6,0-1-0.4-1-1v-1c0-0.6,0.4-1,1-1h6c0.6,0,1,0.4,1,1v1C9,21.6,8.6,22,8,22z"/>
			<path class="st0" d="M32,22h-6c-0.6,0-1-0.4-1-1v-1c0-0.6,0.4-1,1-1h6c0.6,0,1,0.4,1,1v1C33,21.6,32.6,22,32,22z"/>
			<line class="st0" x1="11" y1="20" x2="23" y2="20"/>
			<polyline class="st0" points="18,27.5 18,21.5 23,21.5 			"/>
			<polyline class="st0" points="16,35.5 16,40.5 18,40.5 18,35.5 			"/>
			<polyline class="st0" points="11,21.5 16,21.5 16,27.5 			"/>
			<circle class="st0" cx="17" cy="31.5" r="4"/>
			<path class="st0" d="M17,63.5L17,63.5c-1.4,0-2.5-1.1-2.5-2.5V46c0-1.4,1.1-2.5,2.5-2.5h0c1.4,0,2.5,1.1,2.5,2.5v15
				C19.5,62.4,18.4,63.5,17,63.5z"/>
			<path class="st0" d="M12,52v-6.5c0-2.8,2.2-5,5-5h0c2.8,0,5,2.2,5,5V52"/>
		</g>
		<line class="st0" x1="20" y1="38" x2="37" y2="38"/>
		<g>
			<path class="st2" d="M56.5,58.5h-17c-1.4,0-2.5-1.1-2.5-2.5V31c0-1.4,1.1-2.5,2.5-2.5h17c1.4,0,2.5,1.1,2.5,2.5v25
				C59,57.4,57.9,58.5,56.5,58.5z"/>
			<path class="st0" d="M40,26.5v-1c0-0.6,0.4-1,1-1h2c0.6,0,1,0.4,1,1v1"/>
			<path class="st0" d="M52,26.5v-1c0-0.6,0.4-1,1-1h2c0.6,0,1,0.4,1,1v1"/>
			<path class="st3" d="M55,41.5H41c-0.6,0-1-0.4-1-1v-8c0-0.6,0.4-1,1-1h14c0.6,0,1,0.4,1,1v8C56,41.1,55.6,41.5,55,41.5z"/>
			<path class="st0" d="M60.5,63.5h-25c-1.4,0-2.5-1.1-2.5-2.5l0,0c0-1.4,1.1-2.5,2.5-2.5h25c1.4,0,2.5,1.1,2.5,2.5l0,0
				C63,62.4,61.9,63.5,60.5,63.5z"/>
			<rect x="43.5" y="34.5" class="st0" width="3" height="4"/>
			<rect x="46.5" y="34.5" class="st0" width="3" height="4"/>
			<rect x="49.5" y="34.5" class="st0" width="3" height="4"/>
			<line class="st0" x1="56" y1="55.5" x2="56" y2="44.5"/>
		</g>
	</g>
</g>
</svg>
