<?xml version="1.0" encoding="utf-8"?>
<!-- Generator: Adobe Illustrator 21.0.0, SVG Export Plug-In . SVG Version: 6.00 Build 0)  -->
<svg version="1.1" id="Layer_1" xmlns="http://www.w3.org/2000/svg" xmlns:xlink="http://www.w3.org/1999/xlink" x="0px" y="0px"
	 viewBox="0 0 64 64" style="enable-background:new 0 0 64 64;" xml:space="preserve">
<style type="text/css">
	.st0{fill:none;stroke:#263238;stroke-linecap:round;stroke-linejoin:round;stroke-miterlimit:10;}
	.st1{fill:#FFD740;stroke:#263238;stroke-linecap:round;stroke-linejoin:round;stroke-miterlimit:10;}
	.st2{fill:#40C4FF;stroke:#263238;stroke-linecap:round;stroke-linejoin:round;stroke-miterlimit:10;}
	.st3{fill:#FFFFFF;stroke:#263238;stroke-linecap:round;stroke-linejoin:round;stroke-miterlimit:10;}
	.st4{fill:#FF5252;stroke:#263238;stroke-linecap:round;stroke-linejoin:round;stroke-miterlimit:10;}
	.st5{fill:#FF5252;}
	.st6{fill:#4DB6AC;stroke:#263238;stroke-linecap:round;stroke-linejoin:round;stroke-miterlimit:10;}
	.st7{fill:#FFD740;}
	.st8{fill:#40C4FF;}
	.st9{fill:#4DB6AC;}
	.st10{fill:#FFFFFF;}
	.st11{fill:#263238;stroke:#263238;stroke-linecap:round;stroke-linejoin:round;stroke-miterlimit:10;}
	.st12{fill:#4FC3F7;}
	.st13{fill:#E0E0E0;stroke:#263238;stroke-linecap:round;stroke-linejoin:round;stroke-miterlimit:10;}
</style>
<g id="CD_Player">
	<g>
		<g>
			<path class="st0" d="M46.3,38c3.5-3.6,5.7-8.5,5.7-14c0-11-9-20-20-20s-20,9-20,20c0,5.5,2.2,10.4,5.7,14 M32,29
				c-2.8,0-5-2.2-5-5s2.2-5,5-5s5,2.2,5,5S34.8,29,32,29z"/>
			<path class="st0" d="M48.5,20C46.7,12.5,40,7,32,7 M49,24c0-0.7,0-1.3-0.1-2"/>
			<circle class="st0" cx="32" cy="24" r="9"/>
		</g>
		<g>
			<path class="st2" d="M61,60H3c-1.4,0-2.5-1.1-2.5-2.5v-15C0.5,41.1,1.6,40,3,40h58c1.4,0,2.5,1.1,2.5,2.5v15
				C63.5,58.9,62.4,60,61,60z"/>
			<path class="st1" d="M41,53H7.5c-0.6,0-1-0.4-1-1v-4c0-0.6,0.4-1,1-1H41c0.6,0,1,0.4,1,1v4C42,52.6,41.6,53,41,53z"/>
			<circle class="st2" cx="48.5" cy="50" r="2"/>
			<circle class="st2" cx="55.5" cy="50" r="2"/>
		</g>
		<path class="st0" d="M55.5,31l1.2-0.4c0.6-0.2,1.1-0.7,1.3-1.3l0.4-1.2l0.4,1.2c0.2,0.6,0.7,1.1,1.3,1.3l1.2,0.4l-1.2,0.4
			c-0.6,0.2-1.1,0.7-1.3,1.3L58.5,34l-0.4-1.2c-0.2-0.6-0.7-1.1-1.3-1.3L55.5,31z"/>
		<g>
			<line class="st0" x1="16" y1="8" x2="8" y2="8"/>
			<line class="st0" x1="3.5" y1="10" x2="2.5" y2="10"/>
			<line class="st0" x1="12" y1="10" x2="5.5" y2="10"/>
		</g>
	</g>
</g>
</svg>
