<?xml version="1.0" encoding="utf-8"?>
<!-- Generator: Adobe Illustrator 21.0.0, SVG Export Plug-In . SVG Version: 6.00 Build 0)  -->
<svg version="1.1" id="Layer_1" xmlns="http://www.w3.org/2000/svg" xmlns:xlink="http://www.w3.org/1999/xlink" x="0px" y="0px"
	 viewBox="0 0 64 64" style="enable-background:new 0 0 64 64;" xml:space="preserve">
<style type="text/css">
	.st0{fill:none;stroke:#263238;stroke-linecap:round;stroke-linejoin:round;stroke-miterlimit:10;}
	.st1{fill:#FFD740;stroke:#263238;stroke-linecap:round;stroke-linejoin:round;stroke-miterlimit:10;}
	.st2{fill:#40C4FF;stroke:#263238;stroke-linecap:round;stroke-linejoin:round;stroke-miterlimit:10;}
	.st3{fill:#FFFFFF;stroke:#263238;stroke-linecap:round;stroke-linejoin:round;stroke-miterlimit:10;}
	.st4{fill:#FF5252;stroke:#263238;stroke-linecap:round;stroke-linejoin:round;stroke-miterlimit:10;}
	.st5{fill:#FF5252;}
	.st6{fill:#4DB6AC;stroke:#263238;stroke-linecap:round;stroke-linejoin:round;stroke-miterlimit:10;}
	.st7{fill:#FFD740;}
	.st8{fill:#40C4FF;}
	.st9{fill:#4DB6AC;}
	.st10{fill:#FFFFFF;}
	.st11{fill:#263238;stroke:#263238;stroke-linecap:round;stroke-linejoin:round;stroke-miterlimit:10;}
	.st12{fill:#4FC3F7;}
	.st13{fill:#E0E0E0;stroke:#263238;stroke-linecap:round;stroke-linejoin:round;stroke-miterlimit:10;}
</style>
<g id="Collaborative_Innovation_Network">
	<g>
		<g>
			<g>
				<circle class="st8" cx="32" cy="41.5" r="9"/>
			</g>
		</g>
		<g>
			<circle class="st1" cx="32" cy="6.5" r="6"/>
			<path class="st0" d="M24.5,29.5H22V18c0-2.5,2-4.5,4.5-4.5h0"/>
			<path class="st0" d="M37.5,13.5L37.5,13.5c2.5,0,4.5,2,4.5,4.5v11.5h-2.5"/>
			<line class="st0" x1="28.5" y1="13.5" x2="32" y2="16.5"/>
			<polyline class="st0" points="35.5,13.5 32,16.5 32,22.5 			"/>
			<polyline class="st0" points="37.5,22.5 37.5,29.5 26.5,29.5 26.5,22.5 			"/>
		</g>
		<g>
			<circle class="st1" cx="52" cy="37.5" r="6"/>
			<path class="st0" d="M44.5,60.5H42V49c0-2.5,2-4.5,4.5-4.5h0"/>
			<path class="st0" d="M57.5,44.5L57.5,44.5c2.5,0,4.5,2,4.5,4.5v11.5h-2.5"/>
			<line class="st0" x1="48.5" y1="44.5" x2="52" y2="47.5"/>
			<polyline class="st0" points="55.5,44.5 52,47.5 52,53.5 			"/>
			<polyline class="st0" points="57.5,53.5 57.5,60.5 46.5,60.5 46.5,53.5 			"/>
		</g>
		<g>
			<circle class="st1" cx="12" cy="37.5" r="6"/>
			<path class="st0" d="M4.5,60.5H2V49c0-2.5,2-4.5,4.5-4.5h0"/>
			<path class="st0" d="M17.5,44.5L17.5,44.5c2.5,0,4.5,2,4.5,4.5v11.5h-2.5"/>
			<line class="st0" x1="8.5" y1="44.5" x2="12" y2="47.5"/>
			<polyline class="st0" points="15.5,44.5 12,47.5 12,53.5 			"/>
			<polyline class="st0" points="17.5,53.5 17.5,60.5 6.5,60.5 6.5,53.5 			"/>
		</g>
		<g>
			<polyline class="st0" points="27,45 32,41.5 37,45 			"/>
			<line class="st0" x1="32" y1="36.5" x2="32" y2="41.5"/>
		</g>
		<g>
			<g>
				<line class="st0" x1="54.3" y1="25.5" x2="48.2" y2="15"/>
				<line class="st0" x1="55.8" y1="28" x2="55.2" y2="27"/>
			</g>
		</g>
		<g>
			<g>
				<line class="st0" x1="14.3" y1="17.5" x2="8.2" y2="28"/>
				<line class="st0" x1="15.8" y1="15" x2="15.2" y2="16"/>
			</g>
		</g>
		<g>
			<g>
				<line class="st0" x1="27.2" y1="63.5" x2="39.3" y2="63.5"/>
				<line class="st0" x1="24.3" y1="63.5" x2="25.5" y2="63.5"/>
			</g>
		</g>
	</g>
</g>
</svg>
