<?xml version="1.0" encoding="utf-8"?>
<!-- Generator: Adobe Illustrator 21.0.0, SVG Export Plug-In . SVG Version: 6.00 Build 0)  -->
<svg version="1.1" id="Layer_1" xmlns="http://www.w3.org/2000/svg" xmlns:xlink="http://www.w3.org/1999/xlink" x="0px" y="0px"
	 viewBox="0 0 64 64" style="enable-background:new 0 0 64 64;" xml:space="preserve">
<style type="text/css">
	.st0{fill:none;stroke:#263238;stroke-linecap:round;stroke-linejoin:round;stroke-miterlimit:10;}
	.st1{fill:#FFD740;stroke:#263238;stroke-linecap:round;stroke-linejoin:round;stroke-miterlimit:10;}
	.st2{fill:#40C4FF;stroke:#263238;stroke-linecap:round;stroke-linejoin:round;stroke-miterlimit:10;}
	.st3{fill:#FFFFFF;stroke:#263238;stroke-linecap:round;stroke-linejoin:round;stroke-miterlimit:10;}
	.st4{fill:#FF5252;stroke:#263238;stroke-linecap:round;stroke-linejoin:round;stroke-miterlimit:10;}
	.st5{fill:#FF5252;}
	.st6{fill:#4DB6AC;stroke:#263238;stroke-linecap:round;stroke-linejoin:round;stroke-miterlimit:10;}
	.st7{fill:#FFD740;}
	.st8{fill:#40C4FF;}
	.st9{fill:#4DB6AC;}
	.st10{fill:#FFFFFF;}
	.st11{fill:#263238;stroke:#263238;stroke-linecap:round;stroke-linejoin:round;stroke-miterlimit:10;}
	.st12{fill:#4FC3F7;}
	.st13{fill:#E0E0E0;stroke:#263238;stroke-linecap:round;stroke-linejoin:round;stroke-miterlimit:10;}
</style>
<g id="Connected_Car">
	<g>
		<g>
			<line class="st0" x1="43.6" y1="58" x2="26.6" y2="58"/>
			<line class="st0" x1="22.1" y1="60" x2="21.1" y2="60"/>
			<line class="st0" x1="39.6" y1="60" x2="24.1" y2="60"/>
		</g>
		<g>
			<path class="st1" d="M61.5,53h1c0.6,0,1-0.4,1-1v-4c0-0.6-0.4-1-1-1H62l-0.5-2.8c-0.5-3.1-3-5.6-6.1-6.1L49.1,37l-7.6-7.2
				C39.7,28,37.2,27,34.6,27H21.3c-1.7,0-3.3,0.9-4.2,2.3l-5,7.7H5c-1.4,0-2.5,1.1-2.5,2.5V47h-1c-0.6,0-1,0.4-1,1v4
				c0,0.6,0.4,1,1,1h3.6"/>
			<circle class="st3" cx="52.5" cy="51" r="7"/>
			<circle class="st0" cx="52.5" cy="51" r="4"/>
			<circle class="st3" cx="14.1" cy="51" r="7"/>
			<circle class="st0" cx="14.1" cy="51" r="4"/>
			<path class="st3" d="M49.1,37l-7.3-7H23.1c-1,0-1.9,0.6-2.3,1.5l-1.8,4.1C18.8,36.3,19.3,37,20,37H49.1z"/>
			<line class="st0" x1="49.1" y1="39" x2="49.1" y2="43"/>
			<line class="st0" x1="30.5" y1="51" x2="30.5" y2="39"/>
			<line class="st0" x1="30.5" y1="37" x2="30.5" y2="30"/>
			<line class="st2" x1="23.1" y1="53" x2="43.5" y2="53"/>
		</g>
		<g>
			<circle class="st2" cx="11.5" cy="14" r="10"/>
			<circle class="st3" cx="11.5" cy="14" r="4"/>
			<path class="st3" d="M5.6,22.1c1.7,1.2,3.7,1.9,5.9,1.9s4.2-0.7,5.9-1.9v0c0-2.3-1.8-4.1-4.1-4.1H9.7C7.5,18,5.6,19.8,5.6,22.1
				L5.6,22.1z"/>
		</g>
		<g>
			<path class="st0" d="M47.5,21.5v-15C47.5,5.1,48.6,4,50,4h7c1.4,0,2.5,1.1,2.5,2.5v15c0,1.4-1.1,2.5-2.5,2.5h-7
				C48.6,24,47.5,22.9,47.5,21.5z"/>
			<path class="st0" d="M59.5,20h-12v1.5c0,1.4,1.1,2.5,2.5,2.5h7c1.4,0,2.5-1.1,2.5-2.5V20z"/>
			<line class="st0" x1="52.5" y1="22" x2="54.5" y2="22"/>
		</g>
		<g>
			<g>
				<line class="st0" x1="39.5" y1="11" x2="27.5" y2="11"/>
				<polyline class="st0" points="29.5,13 27.5,11 29.5,9 				"/>
			</g>
			<g>
				<line class="st0" x1="29.5" y1="17" x2="41.5" y2="17"/>
				<polyline class="st0" points="39.5,15 41.5,17 39.5,19 				"/>
			</g>
		</g>
	</g>
</g>
</svg>
