<?xml version="1.0" encoding="utf-8"?>
<!-- Generator: Adobe Illustrator 21.0.0, SVG Export Plug-In . SVG Version: 6.00 Build 0)  -->
<svg version="1.1" id="Layer_1" xmlns="http://www.w3.org/2000/svg" xmlns:xlink="http://www.w3.org/1999/xlink" x="0px" y="0px"
	 viewBox="0 0 64 64" style="enable-background:new 0 0 64 64;" xml:space="preserve">
<style type="text/css">
	.st0{fill:none;stroke:#263238;stroke-linecap:round;stroke-linejoin:round;stroke-miterlimit:10;}
	.st1{fill:#FFD740;stroke:#263238;stroke-linecap:round;stroke-linejoin:round;stroke-miterlimit:10;}
	.st2{fill:#40C4FF;stroke:#263238;stroke-linecap:round;stroke-linejoin:round;stroke-miterlimit:10;}
	.st3{fill:#FFFFFF;stroke:#263238;stroke-linecap:round;stroke-linejoin:round;stroke-miterlimit:10;}
	.st4{fill:#FF5252;stroke:#263238;stroke-linecap:round;stroke-linejoin:round;stroke-miterlimit:10;}
	.st5{fill:#FF5252;}
	.st6{fill:#4DB6AC;stroke:#263238;stroke-linecap:round;stroke-linejoin:round;stroke-miterlimit:10;}
	.st7{fill:#FFD740;}
	.st8{fill:#40C4FF;}
	.st9{fill:#4DB6AC;}
	.st10{fill:#FFFFFF;}
	.st11{fill:#263238;stroke:#263238;stroke-linecap:round;stroke-linejoin:round;stroke-miterlimit:10;}
	.st12{fill:#4FC3F7;}
	.st13{fill:#E0E0E0;stroke:#263238;stroke-linecap:round;stroke-linejoin:round;stroke-miterlimit:10;}
</style>
<g id="Disaster_Management">
	<g>
		<polyline class="st0" points="31.5,59.5 33,55.5 30,51.5 32,47.5 0.5,47.5 		"/>
		<path class="st0" d="M4,45.5v-28c0-0.6,0.4-1,1-1h18c0.6,0,1,0.4,1,1v28"/>
		<path class="st0" d="M7,14.5v-1c0-0.6,0.4-1,1-1h12c0.6,0,1,0.4,1,1v1"/>
		<path class="st4" d="M19.5,24.5h-11c-0.6,0-1-0.4-1-1v-2c0-0.6,0.4-1,1-1h11c0.6,0,1,0.4,1,1v2C20.5,24.1,20.1,24.5,19.5,24.5z"/>
		<path class="st4" d="M19.5,32.5h-11c-0.6,0-1-0.4-1-1v-2c0-0.6,0.4-1,1-1h11c0.6,0,1,0.4,1,1v2C20.5,32.1,20.1,32.5,19.5,32.5z"/>
		<path class="st4" d="M19.5,40.5h-11c-0.6,0-1-0.4-1-1v-2c0-0.6,0.4-1,1-1h11c0.6,0,1,0.4,1,1v2C20.5,40.1,20.1,40.5,19.5,40.5z"/>
		<polyline class="st0" points="63.5,47.5 36.8,47.5 33.8,51.5 36.8,55.5 33.8,59.5 		"/>
		<path class="st0" d="M28,45.5v-20c0-0.6,0.4-1,1-1h14c0.6,0,1,0.4,1,1v20"/>
		<path class="st0" d="M31,22.5v-1c0-0.6,0.4-1,1-1h8c0.6,0,1,0.4,1,1v1"/>
		<path class="st4" d="M33.5,32.5h-2c-0.6,0-1-0.4-1-1v-2c0-0.6,0.4-1,1-1h2c0.6,0,1,0.4,1,1v2C34.5,32.1,34.1,32.5,33.5,32.5z"/>
		<path class="st4" d="M40.5,32.5h-2c-0.6,0-1-0.4-1-1v-2c0-0.6,0.4-1,1-1h2c0.6,0,1,0.4,1,1v2C41.5,32.1,41.1,32.5,40.5,32.5z"/>
		<path class="st4" d="M33.5,40.5h-2c-0.6,0-1-0.4-1-1v-2c0-0.6,0.4-1,1-1h2c0.6,0,1,0.4,1,1v2C34.5,40.1,34.1,40.5,33.5,40.5z"/>
		<path class="st4" d="M40.5,40.5h-2c-0.6,0-1-0.4-1-1v-2c0-0.6,0.4-1,1-1h2c0.6,0,1,0.4,1,1v2C41.5,40.1,41.1,40.5,40.5,40.5z"/>
		<line class="st0" x1="0.5" y1="63.5" x2="63.5" y2="63.5"/>
		<path class="st1" d="M60.7,7.8l-0.9-0.2h0C59.6,7,59.3,6.3,59,5.7l0,0l0.5-0.8c0.3-0.4,0.2-1-0.1-1.3l-0.9-0.9
			c-0.4-0.4-0.9-0.4-1.3-0.1L56.3,3l0,0c-0.6-0.4-1.3-0.6-1.9-0.8v0l-0.2-0.9c-0.1-0.5-0.5-0.8-1-0.8h-1.3c-0.5,0-0.9,0.4-1,0.8
			l-0.2,0.9v0C50,2.4,49.3,2.7,48.7,3l0,0l-0.8-0.5c-0.4-0.3-1-0.2-1.3,0.1l-0.9,0.9c-0.4,0.4-0.4,0.9-0.1,1.3L46,5.7l0,0
			c-0.4,0.6-0.6,1.3-0.8,1.9h0l-0.9,0.2c-0.5,0.1-0.8,0.5-0.8,1v1.3c0,0.5,0.4,0.9,0.8,1l0.9,0.2h0c0.2,0.7,0.4,1.3,0.8,1.9h0l0,0
			l-0.5,0.8c-0.3,0.4-0.2,1,0.1,1.3l0.9,0.9c0.4,0.4,0.9,0.4,1.3,0.1l0.8-0.5l0,0v0c0.6,0.4,1.3,0.6,1.9,0.8v0l0.2,0.9
			c0.1,0.5,0.5,0.8,1,0.8h1.3c0.5,0,0.9-0.4,1-0.8l0.2-0.9v0c0.7-0.2,1.3-0.4,1.9-0.8l0,0l0.8,0.5c0.4,0.3,1,0.2,1.3-0.1l0.9-0.9
			c0.4-0.4,0.4-0.9,0.1-1.3L59,13.3l0,0c0.4-0.6,0.6-1.3,0.8-1.9h0l0.9-0.2c0.5-0.1,0.8-0.5,0.8-1V8.9C61.5,8.4,61.1,7.9,60.7,7.8z
			 M52.5,13.8c-2.4,0-4.3-1.9-4.3-4.3s1.9-4.3,4.3-4.3c2.4,0,4.3,1.9,4.3,4.3S54.9,13.8,52.5,13.8z"/>
		<g>
			<g>
				<path class="st12" d="M32,6.5c0-1.1-0.9-2-2-2s-2,0.9-2,2c-1.1,0-2,0.9-2,2c0,1.1,0.9,2,2,2h4c1.1,0,2-0.9,2-2
					C34,7.4,33.1,6.5,32,6.5z"/>
			</g>
		</g>
		<g>
			<g>
				<g>
					<line class="st0" x1="54" y1="37.5" x2="54" y2="38.5"/>
					<line class="st0" x1="54" y1="20.5" x2="54" y2="35.5"/>
				</g>
			</g>
			<g>
				<g>
					<line class="st0" x1="51" y1="21.5" x2="51" y2="20.5"/>
					<line class="st0" x1="51" y1="38.5" x2="51" y2="23.5"/>
				</g>
			</g>
		</g>
		<polyline class="st0" points="28,53.5 25.5,51.5 23,53.5 		"/>
		<line class="st0" x1="21" y1="53.5" x2="20" y2="53.5"/>
		<polyline class="st0" points="38.5,58 41,56 43.5,58 		"/>
		<line class="st0" x1="45.5" y1="58" x2="46.5" y2="58"/>
	</g>
</g>
</svg>
