<?xml version="1.0" encoding="utf-8"?>
<!-- Generator: Adobe Illustrator 21.0.0, SVG Export Plug-In . SVG Version: 6.00 Build 0)  -->
<svg version="1.1" id="Layer_1" xmlns="http://www.w3.org/2000/svg" xmlns:xlink="http://www.w3.org/1999/xlink" x="0px" y="0px"
	 viewBox="0 0 64 64" style="enable-background:new 0 0 64 64;" xml:space="preserve">
<style type="text/css">
	.st0{fill:none;stroke:#263238;stroke-linecap:round;stroke-linejoin:round;stroke-miterlimit:10;}
	.st1{fill:#FFD740;stroke:#263238;stroke-linecap:round;stroke-linejoin:round;stroke-miterlimit:10;}
	.st2{fill:#40C4FF;stroke:#263238;stroke-linecap:round;stroke-linejoin:round;stroke-miterlimit:10;}
	.st3{fill:#FFFFFF;stroke:#263238;stroke-linecap:round;stroke-linejoin:round;stroke-miterlimit:10;}
	.st4{fill:#FF5252;stroke:#263238;stroke-linecap:round;stroke-linejoin:round;stroke-miterlimit:10;}
	.st5{fill:#FF5252;}
	.st6{fill:#4DB6AC;stroke:#263238;stroke-linecap:round;stroke-linejoin:round;stroke-miterlimit:10;}
	.st7{fill:#FFD740;}
	.st8{fill:#40C4FF;}
	.st9{fill:#4DB6AC;}
	.st10{fill:#FFFFFF;}
	.st11{fill:#263238;stroke:#263238;stroke-linecap:round;stroke-linejoin:round;stroke-miterlimit:10;}
	.st12{fill:#4FC3F7;}
	.st13{fill:#E0E0E0;stroke:#263238;stroke-linecap:round;stroke-linejoin:round;stroke-miterlimit:10;}
</style>
<g id="Drone_Delivery">
	<g>
		<g>
			<polyline class="st0" points="27.5,28 27.5,23.5 36.5,23.5 36.5,28 			"/>
			<g>
				<path class="st0" d="M21,19h-2c-3.6,0-6.5-2.9-6.5-6.5V8"/>
				<path class="st0" d="M51.5,8v4.5c0,3.6-2.9,6.5-6.5,6.5h-2"/>
				<path class="st0" d="M48.5,3V2.5C48.5,1.7,49.2,1,50,1s1.5,0.7,1.5,1.5V3"/>
				<path class="st0" d="M43,16h2c1.9,0,3.5-1.6,3.5-3.5V8"/>
				<path class="st0" d="M15.5,8v4.5c0,1.9,1.6,3.5,3.5,3.5h2"/>
				<path class="st0" d="M12.5,3V2.5C12.5,1.7,13.2,1,14,1s1.5,0.7,1.5,1.5V3"/>
			</g>
			<path class="st4" d="M18.5,8h-9C8.7,8,8,7.3,8,6.5v0C8,5.7,8.7,5,9.5,5h9C19.3,5,20,5.7,20,6.5v0C20,7.3,19.3,8,18.5,8z"/>
			<path class="st4" d="M54.5,8h-9C44.7,8,44,7.3,44,6.5v0C44,5.7,44.7,5,45.5,5h9C55.3,5,56,5.7,56,6.5v0C56,7.3,55.3,8,54.5,8z"/>
			<path class="st4" d="M38,23.5H26c-1.7,0-3-1.3-3-3v-6c0-1.7,1.3-3,3-3h12c1.7,0,3,1.3,3,3v6C41,22.2,39.7,23.5,38,23.5z"/>
			<circle class="st3" cx="32" cy="17.5" r="2"/>
		</g>
		<g>
			<path class="st0" d="M47,63H17c-2.8,0-5-2.2-5-5V35c0-2.8,2.2-5,5-5h30c2.8,0,5,2.2,5,5v23C52,60.8,49.8,63,47,63z"/>
			<path class="st1" d="M39,54.5H25c-0.6,0-1-0.4-1-1v-14c0-0.6,0.4-1,1-1h14c0.6,0,1,0.4,1,1v14C40,54.1,39.6,54.5,39,54.5z"/>
			<g>
				<line class="st0" x1="29" y1="42.5" x2="29" y2="48"/>
				<polyline class="st0" points="27,44.5 29,42.5 31,44.5 				"/>
			</g>
			<g>
				<line class="st0" x1="35" y1="42.5" x2="35" y2="48"/>
				<polyline class="st0" points="33,44.5 35,42.5 37,44.5 				"/>
			</g>
			<line class="st0" x1="27" y1="50.5" x2="37" y2="50.5"/>
		</g>
		<path class="st0" d="M42,33h5 M47,33c1.1,0,2,0.9,2,2v5"/>
		<g>
			<g>
				<line class="st0" x1="57" y1="36.5" x2="57" y2="35.5"/>
				<line class="st0" x1="57" y1="57.5" x2="57" y2="38.5"/>
			</g>
		</g>
		<g>
			<g>
				<line class="st0" x1="7" y1="56.5" x2="7" y2="57.5"/>
				<line class="st0" x1="7" y1="35.5" x2="7" y2="54.5"/>
			</g>
		</g>
	</g>
</g>
</svg>
