<?xml version="1.0" encoding="utf-8"?>
<!-- Generator: Adobe Illustrator 21.0.0, SVG Export Plug-In . SVG Version: 6.00 Build 0)  -->
<svg version="1.1" id="Layer_1" xmlns="http://www.w3.org/2000/svg" xmlns:xlink="http://www.w3.org/1999/xlink" x="0px" y="0px"
	 viewBox="0 0 64 64" style="enable-background:new 0 0 64 64;" xml:space="preserve">
<style type="text/css">
	.st0{fill:none;stroke:#263238;stroke-linecap:round;stroke-linejoin:round;stroke-miterlimit:10;}
	.st1{fill:#FFD740;stroke:#263238;stroke-linecap:round;stroke-linejoin:round;stroke-miterlimit:10;}
	.st2{fill:#40C4FF;stroke:#263238;stroke-linecap:round;stroke-linejoin:round;stroke-miterlimit:10;}
	.st3{fill:#FFFFFF;stroke:#263238;stroke-linecap:round;stroke-linejoin:round;stroke-miterlimit:10;}
	.st4{fill:#FF5252;stroke:#263238;stroke-linecap:round;stroke-linejoin:round;stroke-miterlimit:10;}
	.st5{fill:#FF5252;}
	.st6{fill:#4DB6AC;stroke:#263238;stroke-linecap:round;stroke-linejoin:round;stroke-miterlimit:10;}
	.st7{fill:#FFD740;}
	.st8{fill:#40C4FF;}
	.st9{fill:#4DB6AC;}
	.st10{fill:#FFFFFF;}
	.st11{fill:#263238;stroke:#263238;stroke-linecap:round;stroke-linejoin:round;stroke-miterlimit:10;}
	.st12{fill:#4FC3F7;}
	.st13{fill:#E0E0E0;stroke:#263238;stroke-linecap:round;stroke-linejoin:round;stroke-miterlimit:10;}
</style>
<g id="Drone_Surveillance">
	<g>
		<path class="st2" d="M32,59.5L32,59.5c-5.5,0-10-4.5-10-10v-8h20v8C42,55,37.5,59.5,32,59.5z"/>
		<g>
			<polyline class="st0" points="27.5,31.5 27.5,27 36.5,27 36.5,31.5 			"/>
			<g>
				<path class="st0" d="M21,22.5h-2c-3.6,0-6.5-2.9-6.5-6.5v-4.5"/>
				<path class="st0" d="M51.5,11.5V16c0,3.6-2.9,6.5-6.5,6.5h-2"/>
				<path class="st0" d="M48.5,6.5V6c0-0.8,0.7-1.5,1.5-1.5s1.5,0.7,1.5,1.5v0.5"/>
				<path class="st0" d="M43,19.5h2c1.9,0,3.5-1.6,3.5-3.5v-4.5"/>
				<path class="st0" d="M15.5,11.5V16c0,1.9,1.6,3.5,3.5,3.5h2"/>
				<path class="st0" d="M12.5,6.5V6c0-0.8,0.7-1.5,1.5-1.5s1.5,0.7,1.5,1.5v0.5"/>
			</g>
			<path class="st4" d="M18.5,11.5h-9C8.7,11.5,8,10.8,8,10v0c0-0.8,0.7-1.5,1.5-1.5h9c0.8,0,1.5,0.7,1.5,1.5v0
				C20,10.8,19.3,11.5,18.5,11.5z"/>
			<path class="st4" d="M54.5,11.5h-9c-0.8,0-1.5-0.7-1.5-1.5v0c0-0.8,0.7-1.5,1.5-1.5h9c0.8,0,1.5,0.7,1.5,1.5v0
				C56,10.8,55.3,11.5,54.5,11.5z"/>
			<path class="st4" d="M38,27H26c-1.7,0-3-1.3-3-3v-6c0-1.7,1.3-3,3-3h12c1.7,0,3,1.3,3,3v6C41,25.7,39.7,27,38,27z"/>
			<circle class="st3" cx="32" cy="21" r="2"/>
		</g>
		<g>
			<g>
				<line class="st0" x1="51" y1="36.5" x2="51" y2="35.5"/>
				<line class="st0" x1="51" y1="57.5" x2="51" y2="38.5"/>
			</g>
		</g>
		<g>
			<g>
				<line class="st0" x1="13" y1="56.5" x2="13" y2="57.5"/>
				<line class="st0" x1="13" y1="35.5" x2="13" y2="54.5"/>
			</g>
		</g>
		<path class="st0" d="M43.5,41.5h-23c-1.4,0-2.5-1.1-2.5-2.5v-3c0-1.4,1.1-2.5,2.5-2.5h23c1.4,0,2.5,1.1,2.5,2.5v3
			C46,40.4,44.9,41.5,43.5,41.5z"/>
		<circle class="st3" cx="32" cy="50.5" r="6"/>
		<path class="st0" d="M32,46.5c2.2,0,4,1.8,4,4"/>
		<circle class="st0" cx="41.5" cy="37.5" r="1.5"/>
	</g>
</g>
</svg>
