<?xml version="1.0" encoding="utf-8"?>
<!-- Generator: Adobe Illustrator 21.0.0, SVG Export Plug-In . SVG Version: 6.00 Build 0)  -->
<svg version="1.1" id="Layer_1" xmlns="http://www.w3.org/2000/svg" xmlns:xlink="http://www.w3.org/1999/xlink" x="0px" y="0px"
	 viewBox="0 0 64 64" style="enable-background:new 0 0 64 64;" xml:space="preserve">
<style type="text/css">
	.st0{fill:none;stroke:#263238;stroke-linecap:round;stroke-linejoin:round;stroke-miterlimit:10;}
	.st1{fill:#FFD740;stroke:#263238;stroke-linecap:round;stroke-linejoin:round;stroke-miterlimit:10;}
	.st2{fill:#40C4FF;stroke:#263238;stroke-linecap:round;stroke-linejoin:round;stroke-miterlimit:10;}
	.st3{fill:#FFFFFF;stroke:#263238;stroke-linecap:round;stroke-linejoin:round;stroke-miterlimit:10;}
	.st4{fill:#FF5252;stroke:#263238;stroke-linecap:round;stroke-linejoin:round;stroke-miterlimit:10;}
	.st5{fill:#FF5252;}
	.st6{fill:#4DB6AC;stroke:#263238;stroke-linecap:round;stroke-linejoin:round;stroke-miterlimit:10;}
	.st7{fill:#FFD740;}
	.st8{fill:#40C4FF;}
	.st9{fill:#4DB6AC;}
	.st10{fill:#FFFFFF;}
	.st11{fill:#263238;stroke:#263238;stroke-linecap:round;stroke-linejoin:round;stroke-miterlimit:10;}
	.st12{fill:#4FC3F7;}
	.st13{fill:#E0E0E0;stroke:#263238;stroke-linecap:round;stroke-linejoin:round;stroke-miterlimit:10;}
</style>
<g id="ECO_Friendly">
	<g>
		<path class="st0" d="M11.9,26c2.6-8.7,10.6-15,20.1-15c9.5,0,17.5,6.3,20.1,15"/>
		<path class="st0" d="M52.8,35C51.3,45.2,42.6,53,32,53s-19.3-7.8-20.8-18"/>
		<path class="st0" d="M43.9,40.6C41.8,47.9,37.3,53,32,53c-5.3,0-9.8-5.1-11.9-12.4"/>
		<path class="st0" d="M19.7,25.2C21.5,16.9,26.3,11,32,11c5.7,0,10.5,5.9,12.3,14.2"/>
		<path class="st0" d="M32,44c-5.9,0-11.2,1-15,2.7c3.8,3.9,9.1,6.3,15,6.3s11.2-2.4,15-6.3C43.2,45,37.9,44,32,44z"/>
		<path class="st0" d="M32,20c5.9,0,11.2-1,15-2.7c-3.8-3.9-9.1-6.3-15-6.3s-11.2,2.4-15,6.3C20.8,19,26.1,20,32,20z"/>
		<line class="st3" x1="52" y1="32" x2="12" y2="32"/>
		<line class="st0" x1="32" y1="11" x2="32" y2="53"/>
		<g>
			<path class="st6" d="M17.9,37.8c5.4,2.2,11.8-0.8,11.8-0.8s-2.4-6.7-7.8-8.9s-11.8,0.8-11.8,0.8S12.5,35.5,17.9,37.8z"/>
			<path class="st0" d="M19.9,31.9L19.9,31.9C26.6,31.9,32,37.3,32,44v0"/>
		</g>
		<g>
			<path class="st6" d="M46.1,37.8c-5.4,2.2-11.8-0.8-11.8-0.8s2.4-6.7,7.8-8.9s11.8,0.8,11.8,0.8S51.5,35.5,46.1,37.8z"/>
			<path class="st0" d="M46.5,30.2 M49.7,30.6c-1,1.6-2.6,3.6-4.7,4.4"/>
			<path class="st0" d="M44.1,31.9L44.1,31.9C37.4,31.9,32,37.3,32,44v0"/>
		</g>
		<g>
			<path class="st0" d="M3.1,32C3.1,16,16,3.1,32,3.1"/>
			<path class="st0" d="M60.9,32c0,16-13,28.9-28.9,28.9"/>
			<path class="st6" d="M63,24.9c0,2.3-2.1,4.1-2.1,4.1s-2.1-1.9-2.1-4.1s2.1-4.1,2.1-4.1S63,22.6,63,24.9z"/>
			<line class="st6" x1="29.9" y1="60.9" x2="28.9" y2="60.9"/>
			<line class="st6" x1="35.1" y1="3.1" x2="34.1" y2="3.1"/>
			<path class="st6" d="M5.1,39.1c0,2.3-2.1,4.1-2.1,4.1S1,41.4,1,39.1S3.1,35,3.1,35S5.1,36.9,5.1,39.1z"/>
		</g>
	</g>
</g>
</svg>
