<?xml version="1.0" encoding="utf-8"?>
<!-- Generator: Adobe Illustrator 21.0.0, SVG Export Plug-In . SVG Version: 6.00 Build 0)  -->
<svg version="1.1" id="Layer_1" xmlns="http://www.w3.org/2000/svg" xmlns:xlink="http://www.w3.org/1999/xlink" x="0px" y="0px"
	 viewBox="0 0 64 64" style="enable-background:new 0 0 64 64;" xml:space="preserve">
<style type="text/css">
	.st0{fill:none;stroke:#263238;stroke-linecap:round;stroke-linejoin:round;stroke-miterlimit:10;}
	.st1{fill:#FFD740;stroke:#263238;stroke-linecap:round;stroke-linejoin:round;stroke-miterlimit:10;}
	.st2{fill:#40C4FF;stroke:#263238;stroke-linecap:round;stroke-linejoin:round;stroke-miterlimit:10;}
	.st3{fill:#FFFFFF;stroke:#263238;stroke-linecap:round;stroke-linejoin:round;stroke-miterlimit:10;}
	.st4{fill:#FF5252;stroke:#263238;stroke-linecap:round;stroke-linejoin:round;stroke-miterlimit:10;}
	.st5{fill:#FF5252;}
	.st6{fill:#4DB6AC;stroke:#263238;stroke-linecap:round;stroke-linejoin:round;stroke-miterlimit:10;}
	.st7{fill:#FFD740;}
	.st8{fill:#40C4FF;}
	.st9{fill:#4DB6AC;}
	.st10{fill:#FFFFFF;}
	.st11{fill:#263238;stroke:#263238;stroke-linecap:round;stroke-linejoin:round;stroke-miterlimit:10;}
	.st12{fill:#4FC3F7;}
	.st13{fill:#E0E0E0;stroke:#263238;stroke-linecap:round;stroke-linejoin:round;stroke-miterlimit:10;}
</style>
<g id="Energy_Consumption">
	<g>
		<g>
			<circle class="st8" cx="30.5" cy="35.5" r="19.9"/>
		</g>
	</g>
	<polygon class="st1" points="49.5,24.5 53.5,12.5 47.5,12.5 59.5,0.5 55.5,12.5 61.5,12.5 	"/>
	<g>
		<path class="st3" d="M33,43.5h-5c-4.1,0-7.5-3.4-7.5-7.5v-8.5h20V36C40.5,40.1,37.1,43.5,33,43.5z"/>
		<path class="st3" d="M35.5,30.5h2v2"/>
		<polyline class="st0" points="29,57.5 29,46.5 32,46.5 32,57.5 		"/>
		<path class="st3" d="M25.5,23.5v-8c0-1.1-0.9-2-2-2h0c-1.1,0-2,0.9-2,2v8H25.5z"/>
		<path class="st3" d="M39.5,23.5v-8c0-1.1-0.9-2-2-2h0c-1.1,0-2,0.9-2,2v8H39.5z"/>
		<path class="st3" d="M41.5,27.5h-22c-0.6,0-1-0.4-1-1v-2c0-0.6,0.4-1,1-1h22c0.6,0,1,0.4,1,1v2C42.5,27.1,42.1,27.5,41.5,27.5z"/>
		<path class="st3" d="M32.5,43.5h-4c-0.6,0-1,0.4-1,1v1c0,0.6,0.4,1,1,1h4c0.6,0,1-0.4,1-1v-1C33.5,43.9,33.1,43.5,32.5,43.5z"/>
		<line class="st3" x1="25.5" y1="38" x2="35.5" y2="38"/>
		<line class="st3" x1="25.5" y1="35" x2="35.5" y2="35"/>
	</g>
	<g>
		<g>
			<path class="st0" d="M2.5,35.5c0-15.5,12.5-28,28-28"/>
			<line class="st0" x1="32.5" y1="7.5" x2="33.5" y2="7.5"/>
		</g>
		<g>
			<path class="st0" d="M58.5,35.5c0,15.5-12.5,28-28,28"/>
			<line class="st0" x1="27.5" y1="63.5" x2="28.5" y2="63.5"/>
		</g>
	</g>
	<g>
		<g>
			<line class="st0" x1="16.6" y1="45.4" x2="12.6" y2="45.4"/>
			<line class="st0" x1="14.6" y1="43.4" x2="14.6" y2="47.4"/>
		</g>
		<g>
			<line class="st0" x1="9.6" y1="51.9" x2="5.6" y2="51.9"/>
			<line class="st0" x1="7.6" y1="49.9" x2="7.6" y2="53.9"/>
		</g>
	</g>
</g>
</svg>
