<?xml version="1.0" encoding="utf-8"?>
<!-- Generator: Adobe Illustrator 21.0.0, SVG Export Plug-In . SVG Version: 6.00 Build 0)  -->
<svg version="1.1" id="Layer_1" xmlns="http://www.w3.org/2000/svg" xmlns:xlink="http://www.w3.org/1999/xlink" x="0px" y="0px"
	 viewBox="0 0 64 64" style="enable-background:new 0 0 64 64;" xml:space="preserve">
<style type="text/css">
	.st0{fill:none;stroke:#263238;stroke-linecap:round;stroke-linejoin:round;stroke-miterlimit:10;}
	.st1{fill:#FFD740;stroke:#263238;stroke-linecap:round;stroke-linejoin:round;stroke-miterlimit:10;}
	.st2{fill:#40C4FF;stroke:#263238;stroke-linecap:round;stroke-linejoin:round;stroke-miterlimit:10;}
	.st3{fill:#FFFFFF;stroke:#263238;stroke-linecap:round;stroke-linejoin:round;stroke-miterlimit:10;}
	.st4{fill:#FF5252;stroke:#263238;stroke-linecap:round;stroke-linejoin:round;stroke-miterlimit:10;}
	.st5{fill:#FF5252;}
	.st6{fill:#4DB6AC;stroke:#263238;stroke-linecap:round;stroke-linejoin:round;stroke-miterlimit:10;}
	.st7{fill:#FFD740;}
	.st8{fill:#40C4FF;}
	.st9{fill:#4DB6AC;}
	.st10{fill:#FFFFFF;}
	.st11{fill:#263238;stroke:#263238;stroke-linecap:round;stroke-linejoin:round;stroke-miterlimit:10;}
	.st12{fill:#4FC3F7;}
	.st13{fill:#E0E0E0;stroke:#263238;stroke-linecap:round;stroke-linejoin:round;stroke-miterlimit:10;}
</style>
<g id="Household_Carbon_Footprint">
	<g>
		<g>
			<g>
				<path class="st12" d="M7.5,17.7c0-1.1-0.9-2-2-2s-2,0.9-2,2c-1.1,0-2,0.9-2,2c0,1.1,0.9,2,2,2h4c1.1,0,2-0.9,2-2
					C9.5,18.6,8.6,17.7,7.5,17.7z"/>
			</g>
		</g>
		<g>
			<path class="st0" d="M62.5,12.2c0-6.1-4.9-11-11-11s-11,4.9-11,11c0,5.5,4,10,9.3,10.9c0,0.1,0,0.1,0,0.1c0,1.1,0.9,2,2,2
				s2-0.9,2-2c0-0.1,0-0.2,0-0.2C58.7,22,62.5,17.6,62.5,12.2z"/>
			<path class="st0" d="M53.7,15.8L53.7,15.8c-1.4,0-2.5-1.1-2.5-2.5v-3c0-1.4,1.1-2.5,2.5-2.5h0c1.4,0,2.5,1.1,2.5,2.5v3
				C56.2,14.6,55.1,15.8,53.7,15.8z"/>
			<path class="st0" d="M49.2,13.3c0,1.4-1.1,2.5-2.5,2.5h0c-1.4,0-2.5-1.1-2.5-2.5v-3c0-1.4,1.1-2.5,2.5-2.5h0
				c1.4,0,2.5,1.1,2.5,2.5"/>
			<polyline class="st0" points="57.7,14.5 57.7,13.8 59.2,13.8 59.2,15.2 57.7,16.5 57.7,17.2 59.2,17.2 			"/>
			<circle class="st0" cx="51.7" cy="29.2" r="2"/>
		</g>
		<path class="st0" d="M61.5,62.8h-59c-1.1,0-2-0.9-2-2v0c0-1.1,0.9-2,2-2h59c1.1,0,2,0.9,2,2v0C63.5,61.9,62.6,62.8,61.5,62.8z"/>
		<g>
			<g>
				<line class="st0" x1="28" y1="8.8" x2="29" y2="8.8"/>
				<line class="st0" x1="18" y1="8.8" x2="26" y2="8.8"/>
			</g>
			<g>
				<line class="st0" x1="12" y1="10.8" x2="11" y2="10.8"/>
				<line class="st0" x1="22" y1="10.8" x2="14" y2="10.8"/>
			</g>
		</g>
		<g>
			<polyline class="st0" points="48.4,27 32,13.8 6,34.8 12,34.8 12,56.8 			"/>
			<polyline class="st0" points="52,56.8 52,34.8 58,34.7 54.6,32 			"/>
			<path class="st1" d="M40,34.7H24c-0.6,0-1,0.4-1,1v10c0,0.6,0.4,1,1,1h16c0.6,0,1-0.4,1-1v-10C41,35.2,40.6,34.7,40,34.7z"/>
			<line class="st1" x1="32" y1="34.7" x2="32" y2="46.7"/>
			<line class="st0" x1="49" y1="56.8" x2="49" y2="34.8"/>
			<line class="st1" x1="23" y1="38.7" x2="41" y2="38.7"/>
		</g>
	</g>
</g>
</svg>
