<?xml version="1.0" encoding="utf-8"?>
<!-- Generator: Adobe Illustrator 21.0.0, SVG Export Plug-In . SVG Version: 6.00 Build 0)  -->
<svg version="1.1" id="Layer_1" xmlns="http://www.w3.org/2000/svg" xmlns:xlink="http://www.w3.org/1999/xlink" x="0px" y="0px"
	 viewBox="0 0 64 64" style="enable-background:new 0 0 64 64;" xml:space="preserve">
<style type="text/css">
	.st0{fill:none;stroke:#263238;stroke-linecap:round;stroke-linejoin:round;stroke-miterlimit:10;}
	.st1{fill:#FFD740;stroke:#263238;stroke-linecap:round;stroke-linejoin:round;stroke-miterlimit:10;}
	.st2{fill:#40C4FF;stroke:#263238;stroke-linecap:round;stroke-linejoin:round;stroke-miterlimit:10;}
	.st3{fill:#FFFFFF;stroke:#263238;stroke-linecap:round;stroke-linejoin:round;stroke-miterlimit:10;}
	.st4{fill:#FF5252;stroke:#263238;stroke-linecap:round;stroke-linejoin:round;stroke-miterlimit:10;}
	.st5{fill:#FF5252;}
	.st6{fill:#4DB6AC;stroke:#263238;stroke-linecap:round;stroke-linejoin:round;stroke-miterlimit:10;}
	.st7{fill:#FFD740;}
	.st8{fill:#40C4FF;}
	.st9{fill:#4DB6AC;}
	.st10{fill:#FFFFFF;}
	.st11{fill:#263238;stroke:#263238;stroke-linecap:round;stroke-linejoin:round;stroke-miterlimit:10;}
	.st12{fill:#4FC3F7;}
	.st13{fill:#E0E0E0;stroke:#263238;stroke-linecap:round;stroke-linejoin:round;stroke-miterlimit:10;}
</style>
<g id="Intelligent_Urbanism">
	<g>
		<path class="st0" d="M25.5,62V29c0-0.6-0.4-1-1-1h-18c-0.6,0-1,0.4-1,1v33h-5"/>
		<path class="st0" d="M55.5,21h2c0.6,0,1,0.4,1,1v40h5"/>
		<path class="st0" d="M43.5,62V22c0-0.6,0.4-1,1-1h2"/>
		<path class="st0" d="M8.5,26v-1c0-0.6,0.4-1,1-1h12c0.6,0,1,0.4,1,1v1"/>
		<path class="st2" d="M21,36H10c-0.6,0-1-0.4-1-1v-2c0-0.6,0.4-1,1-1h11c0.6,0,1,0.4,1,1v2C22,35.6,21.6,36,21,36z"/>
		<path class="st2" d="M21,44H10c-0.6,0-1-0.4-1-1v-2c0-0.6,0.4-1,1-1h11c0.6,0,1,0.4,1,1v2C22,43.6,21.6,44,21,44z"/>
		<path class="st2" d="M21,52H10c-0.6,0-1-0.4-1-1v-2c0-0.6,0.4-1,1-1h11c0.6,0,1,0.4,1,1v2C22,51.6,21.6,52,21,52z"/>
		<line class="st0" x1="27.5" y1="36" x2="41.5" y2="36"/>
		<path class="st0" d="M29.5,34v-1c0-0.6,0.4-1,1-1h8c0.6,0,1,0.4,1,1v1"/>
		<path class="st2" d="M32,44h-2c-0.6,0-1-0.4-1-1v-2c0-0.6,0.4-1,1-1h2c0.6,0,1,0.4,1,1v2C33,43.6,32.6,44,32,44z"/>
		<path class="st2" d="M39,44h-2c-0.6,0-1-0.4-1-1v-2c0-0.6,0.4-1,1-1h2c0.6,0,1,0.4,1,1v2C40,43.6,39.6,44,39,44z"/>
		<path class="st2" d="M32,52h-2c-0.6,0-1-0.4-1-1v-2c0-0.6,0.4-1,1-1h2c0.6,0,1,0.4,1,1v2C33,51.6,32.6,52,32,52z"/>
		<path class="st2" d="M39,52h-2c-0.6,0-1-0.4-1-1v-2c0-0.6,0.4-1,1-1h2c0.6,0,1,0.4,1,1v2C40,51.6,39.6,52,39,52z"/>
		<g>
			<g>
				<path class="st1" d="M56,12c0-3.1-2.8-5.6-6.1-4.9c-1.9,0.4-3.4,2-3.8,3.9c-0.3,1.7,0.2,3.3,1.2,4.4c0.7,0.8,1.2,1.8,1.2,2.8
					v0.3h5v-0.3c0-1.1,0.5-2.1,1.2-2.9C55.5,14.5,56,13.3,56,12z"/>
				<path class="st0" d="M51,23.5L51,23.5c-1.4,0-2.5-1.1-2.5-2.5v-2.5h5V21C53.5,22.4,52.4,23.5,51,23.5z"/>
				<line class="st0" x1="48.5" y1="21" x2="53.5" y2="21"/>
			</g>
			<line class="st3" x1="51" y1="2" x2="51" y2="4"/>
			<line class="st3" x1="44.6" y1="4.3" x2="46" y2="5.7"/>
			<line class="st3" x1="57.4" y1="4.3" x2="56" y2="5.7"/>
		</g>
		<path class="st2" d="M48.5,54h-1c-0.6,0-1-0.4-1-1V27c0-0.6,0.4-1,1-1h1c0.6,0,1,0.4,1,1v26C49.5,53.6,49.1,54,48.5,54z"/>
		<path class="st2" d="M54.5,54h-1c-0.6,0-1-0.4-1-1V27c0-0.6,0.4-1,1-1h1c0.6,0,1,0.4,1,1v26C55.5,53.6,55.1,54,54.5,54z"/>
		<g>
			<line class="st0" x1="23.8" y1="16" x2="31.8" y2="16"/>
			<line class="st0" x1="36.2" y1="18" x2="37.2" y2="18"/>
			<line class="st0" x1="27.8" y1="18" x2="34.2" y2="18"/>
		</g>
		<g>
			<g>
				<path class="st12" d="M14.5,12c0-1.1-0.9-2-2-2s-2,0.9-2,2c-1.1,0-2,0.9-2,2c0,1.1,0.9,2,2,2h4c1.1,0,2-0.9,2-2
					C16.5,12.9,15.6,12,14.5,12z"/>
			</g>
		</g>
	</g>
</g>
</svg>
