<?xml version="1.0" encoding="utf-8"?>
<!-- Generator: Adobe Illustrator 21.0.0, SVG Export Plug-In . SVG Version: 6.00 Build 0)  -->
<svg version="1.1" id="Layer_1" xmlns="http://www.w3.org/2000/svg" xmlns:xlink="http://www.w3.org/1999/xlink" x="0px" y="0px"
	 viewBox="0 0 64 64" style="enable-background:new 0 0 64 64;" xml:space="preserve">
<style type="text/css">
	.st0{fill:none;stroke:#263238;stroke-linecap:round;stroke-linejoin:round;stroke-miterlimit:10;}
	.st1{fill:#FFD740;stroke:#263238;stroke-linecap:round;stroke-linejoin:round;stroke-miterlimit:10;}
	.st2{fill:#40C4FF;stroke:#263238;stroke-linecap:round;stroke-linejoin:round;stroke-miterlimit:10;}
	.st3{fill:#FFFFFF;stroke:#263238;stroke-linecap:round;stroke-linejoin:round;stroke-miterlimit:10;}
	.st4{fill:#FF5252;stroke:#263238;stroke-linecap:round;stroke-linejoin:round;stroke-miterlimit:10;}
	.st5{fill:#FF5252;}
	.st6{fill:#4DB6AC;stroke:#263238;stroke-linecap:round;stroke-linejoin:round;stroke-miterlimit:10;}
	.st7{fill:#FFD740;}
	.st8{fill:#40C4FF;}
	.st9{fill:#4DB6AC;}
	.st10{fill:#FFFFFF;}
	.st11{fill:#263238;stroke:#263238;stroke-linecap:round;stroke-linejoin:round;stroke-miterlimit:10;}
	.st12{fill:#4FC3F7;}
	.st13{fill:#E0E0E0;stroke:#263238;stroke-linecap:round;stroke-linejoin:round;stroke-miterlimit:10;}
</style>
<g id="MP4_Player">
	<g>
		<g>
			<path class="st0" d="M24,54v2c0,2.8,2.2,5,5,5h8c2.8,0,5-2.2,5-5V43c0-2.8,2.2-5,5-5h3"/>
			<path class="st0" d="M11,7V5.5C11,4.1,12.1,3,13.5,3h21C35.9,3,37,4.1,37,5.5v41c0,1.4-1.1,2.5-2.5,2.5h-21
				c-1.4,0-2.5-1.1-2.5-2.5V29"/>
			<polyline class="st1" points="11,8 11,7 37,7 37,29 11,29 11,28 			"/>
			<circle class="st0" cx="24" cy="39" r="6"/>
			<circle class="st0" cx="24" cy="39" r="2"/>
			<polyline class="st0" points="25.5,49 25.5,52 22.5,52 22.5,49 			"/>
			<g>
				<path class="st0" d="M53.5,26h-1c-1.4,0-2.5-1.1-2.5-2.5v-1c0-1.4,1.1-2.5,2.5-2.5h1V26z"/>
				<path class="st0" d="M56,27h-1.5c-0.6,0-1-0.4-1-1v-6c0-0.6,0.4-1,1-1H56c0.6,0,1,0.4,1,1v6C57,26.6,56.6,27,56,27z"/>
			</g>
			<g>
				<path class="st0" d="M53.5,41h-1c-1.4,0-2.5-1.1-2.5-2.5v-1c0-1.4,1.1-2.5,2.5-2.5h1V41z"/>
				<path class="st0" d="M56,42h-1.5c-0.6,0-1-0.4-1-1v-6c0-0.6,0.4-1,1-1H56c0.6,0,1,0.4,1,1v6C57,41.6,56.6,42,56,42z"/>
			</g>
			<path class="st0" d="M50,23h-3c-2.8,0-5,2.2-5,5v10"/>
			<polyline class="st0" points="29,10 34,10 34,15 			"/>
		</g>
		<g>
			<g>
				<g>
					<circle class="st8" cx="11" cy="18" r="8"/>
				</g>
			</g>
			<g>
				<polyline class="st0" points="9.5,20.2 9.5,14.8 14.5,13.8 14.5,19.2 				"/>
				<ellipse class="st0" cx="8" cy="20.2" rx="1.5" ry="1"/>
				<ellipse class="st0" cx="13" cy="19.2" rx="1.5" ry="1"/>
			</g>
		</g>
		<g>
			<g>
				<line class="st0" x1="60" y1="14" x2="61" y2="14"/>
				<line class="st0" x1="48" y1="14" x2="58" y2="14"/>
			</g>
			<g>
				<line class="st0" x1="44" y1="12" x2="43" y2="12"/>
				<line class="st0" x1="56" y1="12" x2="46" y2="12"/>
			</g>
		</g>
		<g>
			<g>
				<line class="st0" x1="3" y1="47.5" x2="7" y2="47.5"/>
				<line class="st0" x1="5" y1="45.5" x2="5" y2="49.5"/>
			</g>
			<g>
				<line class="st0" x1="10" y1="54" x2="14" y2="54"/>
				<line class="st0" x1="12" y1="52" x2="12" y2="56"/>
			</g>
		</g>
	</g>
</g>
</svg>
