<?xml version="1.0" encoding="utf-8"?>
<!-- Generator: Adobe Illustrator 21.0.0, SVG Export Plug-In . SVG Version: 6.00 Build 0)  -->
<svg version="1.1" id="Layer_1" xmlns="http://www.w3.org/2000/svg" xmlns:xlink="http://www.w3.org/1999/xlink" x="0px" y="0px"
	 viewBox="0 0 64 64" style="enable-background:new 0 0 64 64;" xml:space="preserve">
<style type="text/css">
	.st0{fill:none;stroke:#263238;stroke-linecap:round;stroke-linejoin:round;stroke-miterlimit:10;}
	.st1{fill:#FFD740;stroke:#263238;stroke-linecap:round;stroke-linejoin:round;stroke-miterlimit:10;}
	.st2{fill:#40C4FF;stroke:#263238;stroke-linecap:round;stroke-linejoin:round;stroke-miterlimit:10;}
	.st3{fill:#FFFFFF;stroke:#263238;stroke-linecap:round;stroke-linejoin:round;stroke-miterlimit:10;}
	.st4{fill:#FF5252;stroke:#263238;stroke-linecap:round;stroke-linejoin:round;stroke-miterlimit:10;}
	.st5{fill:#FF5252;}
	.st6{fill:#4DB6AC;stroke:#263238;stroke-linecap:round;stroke-linejoin:round;stroke-miterlimit:10;}
	.st7{fill:#FFD740;}
	.st8{fill:#40C4FF;}
	.st9{fill:#4DB6AC;}
	.st10{fill:#FFFFFF;}
	.st11{fill:#263238;stroke:#263238;stroke-linecap:round;stroke-linejoin:round;stroke-miterlimit:10;}
	.st12{fill:#4FC3F7;}
	.st13{fill:#E0E0E0;stroke:#263238;stroke-linecap:round;stroke-linejoin:round;stroke-miterlimit:10;}
</style>
<g>
	<g>
		<g>
			<g>
				<g>
					<circle class="st5" cx="19.2" cy="32" r="12"/>
				</g>
			</g>
			<g>
				<path class="st0" d="M34.7,55.5c-0.9,1.2-2.4,2-4,2h-23c-2.8,0-5-2.2-5-5v-41c0-2.8,2.2-5,5-5h16"/>
				<line class="st0" x1="35.8" y1="18.5" x2="35.8" y2="26.3"/>
				<line class="st0" x1="21.2" y1="51.5" x2="2.8" y2="51.5"/>
				<line class="st0" x1="2.8" y1="12.5" x2="23.8" y2="12.5"/>
				<line class="st0" x1="16.2" y1="9.5" x2="22.2" y2="9.5"/>
				<path class="st0" d="M21.3,55.5h-4c-0.6,0-1-0.4-1-1v0c0-0.6,0.4-1,1-1h4c0.6,0,1,0.4,1,1v0C22.2,55,21.8,55.5,21.3,55.5z"/>
			</g>
			<path class="st0" d="M23.2,37h-8c-0.6,0-1-0.4-1-1v-8c0-0.6,0.4-1,1-1h8c0.6,0,1,0.4,1,1v8C24.2,36.6,23.8,37,23.2,37z"/>
		</g>
		<g>
			<g>
				<path class="st3" d="M60.5,50l-2.8-2.8c-1-1-2.6-1-3.5,0L45,56.4c-1,1-1,2.6,0,3.5l2.8,2.8c1,1,2.6,1,3.5,0l9.2-9.2
					C61.5,52.6,61.5,51,60.5,50z"/>
				<path class="st3" d="M37.1,28.2c-1.2,1-1.2,2.7-0.2,3.7c-1-1-2.6-1-3.5,0c-1,1-1,2.6,0,3.5c-1-1-2.6-1-3.5,0c-1,1-1,2.6,0,3.5
					l-7.4-7.4c-1-1-2.6-1-3.5,0l0,0c-1,1-1,2.6,0,3.5l11,11h-5c-1.4,0-2.5,1.1-2.5,2.5v0c0,1.2,0.8,2.2,2,2.4l12.1,2.6
					c0.8,0.2,1.6,0.4,2.4,0.7l5.9,2.4l9.9-9.9l-1.7-4.2c-0.8-1.9-1.9-3.6-3.3-5l-9-9C39.6,27.6,38.1,27.4,37.1,28.2z"/>
				<line class="st3" x1="33.3" y1="35.5" x2="35.5" y2="37.6"/>
				<line class="st3" x1="36.9" y1="32" x2="39" y2="34.1"/>
				<line class="st3" x1="29.8" y1="39" x2="31.9" y2="41.1"/>
			</g>
			<path class="st0" d="M47.4,39.7c1.2,1.2,2,2.5,2.7,4l1,2.4"/>
			<line class="st3" x1="33.3" y1="35.5" x2="35.5" y2="37.6"/>
			<line class="st3" x1="36.9" y1="32" x2="39" y2="34.1"/>
			<line class="st3" x1="29.8" y1="39" x2="31.9" y2="41.1"/>
		</g>
		<g>
			<g>
				<line class="st0" x1="47.8" y1="26.5" x2="47.8" y2="22.5"/>
				<line class="st0" x1="45.8" y1="24.5" x2="49.8" y2="24.5"/>
			</g>
			<g>
				<line class="st0" x1="54" y1="20.5" x2="54" y2="16.5"/>
				<line class="st0" x1="52" y1="18.5" x2="56" y2="18.5"/>
			</g>
		</g>
		<g>
			<path class="st1" d="M43.2,16.5h-15c-1.4,0-2.5-1.1-2.5-2.5V3c0-1.4,1.1-2.5,2.5-2.5h15c1.4,0,2.5,1.1,2.5,2.5v11
				C45.8,15.4,44.6,16.5,43.2,16.5z"/>
			<g>
				<polyline class="st0" points="29.2,11.5 33.7,8.5 38.2,11.5 42.3,5.5 				"/>
			</g>
		</g>
	</g>
	<g>
		<line class="st0" x1="39.5" y1="61.5" x2="22.5" y2="61.5"/>
		<line class="st0" x1="18" y1="63.5" x2="17" y2="63.5"/>
		<line class="st0" x1="35.5" y1="63.5" x2="20" y2="63.5"/>
	</g>
</g>
</svg>
