<?xml version="1.0" encoding="utf-8"?>
<!-- Generator: Adobe Illustrator 21.0.0, SVG Export Plug-In . SVG Version: 6.00 Build 0)  -->
<svg version="1.1" id="Layer_1" xmlns="http://www.w3.org/2000/svg" xmlns:xlink="http://www.w3.org/1999/xlink" x="0px" y="0px"
	 viewBox="0 0 64 64" style="enable-background:new 0 0 64 64;" xml:space="preserve">
<style type="text/css">
	.st0{fill:none;stroke:#263238;stroke-linecap:round;stroke-linejoin:round;stroke-miterlimit:10;}
	.st1{fill:#FFD740;stroke:#263238;stroke-linecap:round;stroke-linejoin:round;stroke-miterlimit:10;}
	.st2{fill:#40C4FF;stroke:#263238;stroke-linecap:round;stroke-linejoin:round;stroke-miterlimit:10;}
	.st3{fill:#FFFFFF;stroke:#263238;stroke-linecap:round;stroke-linejoin:round;stroke-miterlimit:10;}
	.st4{fill:#FF5252;stroke:#263238;stroke-linecap:round;stroke-linejoin:round;stroke-miterlimit:10;}
	.st5{fill:#FF5252;}
	.st6{fill:#4DB6AC;stroke:#263238;stroke-linecap:round;stroke-linejoin:round;stroke-miterlimit:10;}
	.st7{fill:#FFD740;}
	.st8{fill:#40C4FF;}
	.st9{fill:#4DB6AC;}
	.st10{fill:#FFFFFF;}
	.st11{fill:#263238;stroke:#263238;stroke-linecap:round;stroke-linejoin:round;stroke-miterlimit:10;}
	.st12{fill:#4FC3F7;}
	.st13{fill:#E0E0E0;stroke:#263238;stroke-linecap:round;stroke-linejoin:round;stroke-miterlimit:10;}
</style>
<g id="Open_Data">
	<g>
		<g>
			<g>
				<line class="st0" x1="3" y1="44.5" x2="3" y2="45.5"/>
				<line class="st0" x1="3" y1="23.5" x2="3" y2="42.5"/>
			</g>
		</g>
		<g>
			<line class="st0" x1="61" y1="36.5" x2="61" y2="37.5"/>
			<line class="st0" x1="61" y1="15.5" x2="61" y2="34.5"/>
		</g>
		<g>
			<g>
				<line class="st0" x1="9.2" y1="3" x2="9.2" y2="7"/>
				<line class="st0" x1="11.2" y1="5" x2="7.2" y2="5"/>
			</g>
			<g>
				<line class="st0" x1="3" y1="11" x2="3" y2="15"/>
				<line class="st0" x1="5" y1="13" x2="1" y2="13"/>
			</g>
		</g>
		<g>
			<path class="st0" d="M56,11v37.5c0,1.4-1.1,2.5-2.5,2.5h-43C9.1,51,8,49.9,8,48.5V11"/>
			<path class="st2" d="M60.5,9h-57C2.1,9,1,7.9,1,6.5v-3C1,2.1,2.1,1,3.5,1h57C61.9,1,63,2.1,63,3.5v3C63,7.9,61.9,9,60.5,9z"/>
			<path class="st0" d="M17,42h-4c-0.6,0-1-0.4-1-1V23c0-0.6,0.4-1,1-1h4c0.6,0,1,0.4,1,1v18C18,41.6,17.6,42,17,42z"/>
			<path class="st4" d="M35,42h-4c-0.6,0-1-0.4-1-1V16c0-0.6,0.4-1,1-1h4c0.6,0,1,0.4,1,1v25C36,41.6,35.6,42,35,42z"/>
			<path class="st1" d="M26,42h-4c-0.6,0-1-0.4-1-1V29c0-0.6,0.4-1,1-1h4c0.6,0,1,0.4,1,1v12C27,41.6,26.6,42,26,42z"/>
			<line class="st0" x1="42" y1="29" x2="52" y2="29"/>
			<line class="st0" x1="42" y1="36" x2="52" y2="36"/>
			<line class="st0" x1="42" y1="39" x2="52" y2="39"/>
			<line class="st0" x1="42" y1="42" x2="47" y2="42"/>
			<line class="st0" x1="32" y1="53" x2="32" y2="57"/>
			<circle class="st2" cx="32" cy="60" r="3"/>
			<polyline class="st0" points="53,17 53,12 48,12 			"/>
		</g>
		<g>
			<g>
				<line class="st0" x1="63" y1="49.5" x2="59" y2="49.5"/>
				<line class="st0" x1="61" y1="47.5" x2="61" y2="51.5"/>
			</g>
			<g>
				<line class="st0" x1="56" y1="56" x2="52" y2="56"/>
				<line class="st0" x1="54" y1="54" x2="54" y2="58"/>
			</g>
		</g>
	</g>
</g>
</svg>
