<?xml version="1.0" encoding="utf-8"?>
<!-- Generator: Adobe Illustrator 21.0.0, SVG Export Plug-In . SVG Version: 6.00 Build 0)  -->
<svg version="1.1" id="Layer_1" xmlns="http://www.w3.org/2000/svg" xmlns:xlink="http://www.w3.org/1999/xlink" x="0px" y="0px"
	 viewBox="0 0 64 64" style="enable-background:new 0 0 64 64;" xml:space="preserve">
<style type="text/css">
	.st0{fill:none;stroke:#263238;stroke-linecap:round;stroke-linejoin:round;stroke-miterlimit:10;}
	.st1{fill:#FFD740;stroke:#263238;stroke-linecap:round;stroke-linejoin:round;stroke-miterlimit:10;}
	.st2{fill:#40C4FF;stroke:#263238;stroke-linecap:round;stroke-linejoin:round;stroke-miterlimit:10;}
	.st3{fill:#FFFFFF;stroke:#263238;stroke-linecap:round;stroke-linejoin:round;stroke-miterlimit:10;}
	.st4{fill:#FF5252;stroke:#263238;stroke-linecap:round;stroke-linejoin:round;stroke-miterlimit:10;}
	.st5{fill:#FF5252;}
	.st6{fill:#4DB6AC;stroke:#263238;stroke-linecap:round;stroke-linejoin:round;stroke-miterlimit:10;}
	.st7{fill:#FFD740;}
	.st8{fill:#40C4FF;}
	.st9{fill:#4DB6AC;}
	.st10{fill:#FFFFFF;}
	.st11{fill:#263238;stroke:#263238;stroke-linecap:round;stroke-linejoin:round;stroke-miterlimit:10;}
	.st12{fill:#4FC3F7;}
	.st13{fill:#E0E0E0;stroke:#263238;stroke-linecap:round;stroke-linejoin:round;stroke-miterlimit:10;}
</style>
<g id="Processing_Power">
	<g>
		<path class="st1" d="M44,49H20c-2.8,0-5-2.2-5-5V20c0-2.8,2.2-5,5-5h24c2.8,0,5,2.2,5,5v24C49,46.8,46.8,49,44,49z"/>
		<path class="st0" d="M40.5,18h3c1.4,0,2.5,1.1,2.5,2.5v3"/>
		<polygon class="st3" points="27,41 31,32 27,32 37,23 33,32 37,32 		"/>
		<g>
			<path class="st0" d="M23,15v-5c0-0.6,0.4-1,1-1s1,0.4,1,1v5"/>
		</g>
		<g>
			<path class="st0" d="M31,15v-5c0-0.6,0.4-1,1-1s1,0.4,1,1v5"/>
		</g>
		<g>
			<path class="st0" d="M39,15v-5c0-0.6,0.4-1,1-1s1,0.4,1,1v5"/>
		</g>
		<g>
			<g>
				<g>
					<line class="st0" x1="22" y1="62" x2="21" y2="62"/>
					<line class="st0" x1="43" y1="62" x2="24" y2="62"/>
				</g>
			</g>
			<g>
				<g>
					<line class="st0" x1="42" y1="2" x2="43" y2="2"/>
					<line class="st0" x1="21" y1="2" x2="40" y2="2"/>
				</g>
			</g>
		</g>
		<g>
			<g>
				<g>
					<line class="st0" x1="62" y1="42" x2="62" y2="43"/>
					<line class="st0" x1="62" y1="21" x2="62" y2="40"/>
				</g>
			</g>
			<g>
				<g>
					<line class="st0" x1="2" y1="22" x2="2" y2="21"/>
					<line class="st0" x1="2" y1="43" x2="2" y2="24"/>
				</g>
			</g>
		</g>
		<path class="st0" d="M43,11h5c2.8,0,5,2.2,5,5v5"/>
		<line class="st0" x1="35" y1="11" x2="37" y2="11"/>
		<line class="st0" x1="27" y1="11" x2="29" y2="11"/>
		<path class="st0" d="M11,21v-5c0-2.8,2.2-5,5-5h5"/>
		<g>
			<g>
				<path class="st0" d="M41,49v5c0,0.6-0.4,1-1,1s-1-0.4-1-1v-5"/>
			</g>
			<g>
				<path class="st0" d="M33,49v5c0,0.6-0.4,1-1,1s-1-0.4-1-1v-5"/>
			</g>
			<g>
				<path class="st0" d="M25,49v5c0,0.6-0.4,1-1,1s-1-0.4-1-1v-5"/>
			</g>
			<path class="st0" d="M21,53h-5c-2.8,0-5-2.2-5-5v-5"/>
			<line class="st0" x1="29" y1="53" x2="27" y2="53"/>
			<line class="st0" x1="37" y1="53" x2="35" y2="53"/>
			<path class="st0" d="M53,43v5c0,2.8-2.2,5-5,5h-5"/>
		</g>
		<g>
			<path class="st0" d="M49,23h5c0.6,0,1,0.4,1,1s-0.4,1-1,1h-5"/>
		</g>
		<g>
			<path class="st0" d="M49,31h5c0.6,0,1,0.4,1,1s-0.4,1-1,1h-5"/>
		</g>
		<g>
			<path class="st0" d="M49,39h5c0.6,0,1,0.4,1,1s-0.4,1-1,1h-5"/>
		</g>
		<line class="st0" x1="53" y1="35" x2="53" y2="37"/>
		<line class="st0" x1="53" y1="27" x2="53" y2="29"/>
		<g>
			<g>
				<path class="st0" d="M15,41h-5c-0.6,0-1-0.4-1-1s0.4-1,1-1h5"/>
			</g>
			<g>
				<path class="st0" d="M15,33h-5c-0.6,0-1-0.4-1-1s0.4-1,1-1h5"/>
			</g>
			<g>
				<path class="st0" d="M15,25h-5c-0.6,0-1-0.4-1-1s0.4-1,1-1h5"/>
			</g>
			<line class="st0" x1="11" y1="29" x2="11" y2="27"/>
			<line class="st0" x1="11" y1="37" x2="11" y2="35"/>
		</g>
	</g>
</g>
</svg>
