<?xml version="1.0" encoding="utf-8"?>
<!-- Generator: Adobe Illustrator 21.0.0, SVG Export Plug-In . SVG Version: 6.00 Build 0)  -->
<svg version="1.1" id="Layer_1" xmlns="http://www.w3.org/2000/svg" xmlns:xlink="http://www.w3.org/1999/xlink" x="0px" y="0px"
	 viewBox="0 0 64 64" style="enable-background:new 0 0 64 64;" xml:space="preserve">
<style type="text/css">
	.st0{fill:none;stroke:#263238;stroke-linecap:round;stroke-linejoin:round;stroke-miterlimit:10;}
	.st1{fill:#FFD740;stroke:#263238;stroke-linecap:round;stroke-linejoin:round;stroke-miterlimit:10;}
	.st2{fill:#40C4FF;stroke:#263238;stroke-linecap:round;stroke-linejoin:round;stroke-miterlimit:10;}
	.st3{fill:#FFFFFF;stroke:#263238;stroke-linecap:round;stroke-linejoin:round;stroke-miterlimit:10;}
	.st4{fill:#FF5252;stroke:#263238;stroke-linecap:round;stroke-linejoin:round;stroke-miterlimit:10;}
	.st5{fill:#FF5252;}
	.st6{fill:#4DB6AC;stroke:#263238;stroke-linecap:round;stroke-linejoin:round;stroke-miterlimit:10;}
	.st7{fill:#FFD740;}
	.st8{fill:#40C4FF;}
	.st9{fill:#4DB6AC;}
	.st10{fill:#FFFFFF;}
	.st11{fill:#263238;stroke:#263238;stroke-linecap:round;stroke-linejoin:round;stroke-miterlimit:10;}
	.st12{fill:#4FC3F7;}
	.st13{fill:#E0E0E0;stroke:#263238;stroke-linecap:round;stroke-linejoin:round;stroke-miterlimit:10;}
</style>
<g id="Public_Safety">
	<g>
		<g>
			<path class="st4" d="M37.1,60.7L32,63.5l-5.1-2.8C22,58.1,19,53.1,19,47.5v-12l0,0c3.7,3.2,9.2,3.2,12.9,0l0,0l0,0
				c3.7,3.2,9.2,3.2,12.9,0l0,0v12C45,53.1,42,58.1,37.1,60.7z"/>
			<g>
				<path class="st3" d="M29.9,54.6c-0.4,0-0.8-0.1-1.1-0.4l-5-4.9c-0.6-0.6-0.6-1.5,0-2.1s1.5-0.6,2.1,0l3.9,3.9l8.1-8.1
					c0.6-0.6,1.5-0.6,2.1,0c0.6,0.6,0.6,1.5,0,2.1l-9.2,9.2C30.6,54.4,30.3,54.6,29.9,54.6z"/>
			</g>
		</g>
		<g>
			<g>
				<line class="st0" x1="1.5" y1="12.5" x2="0.5" y2="12.5"/>
				<line class="st0" x1="11.5" y1="12.5" x2="3.5" y2="12.5"/>
			</g>
			<g>
				<line class="st0" x1="16.5" y1="14.5" x2="17.5" y2="14.5"/>
				<line class="st0" x1="6.5" y1="14.5" x2="14.5" y2="14.5"/>
			</g>
		</g>
		<g>
			<g>
				<line class="st0" x1="62.5" y1="12.5" x2="63.5" y2="12.5"/>
				<line class="st0" x1="52.5" y1="12.5" x2="60.5" y2="12.5"/>
			</g>
			<g>
				<line class="st0" x1="47.5" y1="14.5" x2="46.5" y2="14.5"/>
				<line class="st0" x1="57.5" y1="14.5" x2="49.5" y2="14.5"/>
			</g>
		</g>
		<g>
			<path class="st0" d="M22,33.5v-24c0-0.6,0.4-1,1-1h18c0.6,0,1,0.4,1,1v24"/>
			<path class="st0" d="M25,6.5v-1c0-0.6,0.4-1,1-1h12c0.6,0,1,0.4,1,1v1"/>
			<path class="st0" d="M29,2.5v-1c0-0.6,0.4-1,1-1h4c0.6,0,1,0.4,1,1v1"/>
			<path class="st0" d="M17,49.5H7c-0.6,0-1-0.4-1-1v-23c0-0.6,0.4-1,1-1h13"/>
			<path class="st0" d="M9,22.5v-1c0-0.6,0.4-1,1-1h8c0.6,0,1,0.4,1,1v1"/>
			<path class="st2" d="M37.5,16.5h-11c-0.6,0-1-0.4-1-1v-2c0-0.6,0.4-1,1-1h11c0.6,0,1,0.4,1,1v2C38.5,16.1,38.1,16.5,37.5,16.5z"
				/>
			<path class="st2" d="M37.5,24.5h-11c-0.6,0-1-0.4-1-1v-2c0-0.6,0.4-1,1-1h11c0.6,0,1,0.4,1,1v2C38.5,24.1,38.1,24.5,37.5,24.5z"
				/>
			<path class="st2" d="M37.5,32.5h-11c-0.6,0-1-0.4-1-1v-2c0-0.6,0.4-1,1-1h11c0.6,0,1,0.4,1,1v2C38.5,32.1,38.1,32.5,37.5,32.5z"
				/>
			<path class="st2" d="M17.5,32.5h-7c-0.6,0-1-0.4-1-1v-2c0-0.6,0.4-1,1-1h7c0.6,0,1,0.4,1,1v2C18.5,32.1,18.1,32.5,17.5,32.5z"/>
			<path class="st0" d="M44,24.5h13c0.6,0,1,0.4,1,1v23c0,0.6-0.4,1-1,1H47"/>
			<path class="st0" d="M45,22.5v-1c0-0.6,0.4-1,1-1h8c0.6,0,1,0.4,1,1v1"/>
			<path class="st2" d="M54,32.5h-8c-0.6,0-1-0.4-1-1v-2c0-0.6,0.4-1,1-1h8c0.6,0,1,0.4,1,1v2C55,32.1,54.6,32.5,54,32.5z"/>
			<line class="st0" x1="55" y1="35.5" x2="55" y2="46.5"/>
		</g>
	</g>
</g>
</svg>
