<?xml version="1.0" encoding="utf-8"?>
<!-- Generator: Adobe Illustrator 21.0.0, SVG Export Plug-In . SVG Version: 6.00 Build 0)  -->
<svg version="1.1" id="Layer_1" xmlns="http://www.w3.org/2000/svg" xmlns:xlink="http://www.w3.org/1999/xlink" x="0px" y="0px"
	 viewBox="0 0 64 64" style="enable-background:new 0 0 64 64;" xml:space="preserve">
<style type="text/css">
	.st0{fill:none;stroke:#263238;stroke-linecap:round;stroke-linejoin:round;stroke-miterlimit:10;}
	.st1{fill:#FFD740;stroke:#263238;stroke-linecap:round;stroke-linejoin:round;stroke-miterlimit:10;}
	.st2{fill:#40C4FF;stroke:#263238;stroke-linecap:round;stroke-linejoin:round;stroke-miterlimit:10;}
	.st3{fill:#FFFFFF;stroke:#263238;stroke-linecap:round;stroke-linejoin:round;stroke-miterlimit:10;}
	.st4{fill:#FF5252;stroke:#263238;stroke-linecap:round;stroke-linejoin:round;stroke-miterlimit:10;}
	.st5{fill:#FF5252;}
	.st6{fill:#4DB6AC;stroke:#263238;stroke-linecap:round;stroke-linejoin:round;stroke-miterlimit:10;}
	.st7{fill:#FFD740;}
	.st8{fill:#40C4FF;}
	.st9{fill:#4DB6AC;}
	.st10{fill:#FFFFFF;}
	.st11{fill:#263238;stroke:#263238;stroke-linecap:round;stroke-linejoin:round;stroke-miterlimit:10;}
	.st12{fill:#4FC3F7;}
	.st13{fill:#E0E0E0;stroke:#263238;stroke-linecap:round;stroke-linejoin:round;stroke-miterlimit:10;}
</style>
<g id="Research">
	<g>
		<g>
			<path class="st0" d="M40.1,3.7l0.8-0.8c0.4-0.4,1-0.4,1.4,0l2.8,2.8c0.4,0.4,0.4,1,0,1.4l-0.8,0.8"/>
			<path class="st2" d="M42.5,12.5c1-1,1-2.6,0-3.5L39,5.5c-1-1-2.6-1-3.5,0L18.6,22.3c-1,1-1,2.6,0,3.5l3.5,3.5c1,1,2.6,1,3.5,0
				L42.5,12.5z"/>
			<line class="st0" x1="26.8" y1="28.3" x2="19.7" y2="21.2"/>
			<path class="st0" d="M39.9,53.5c7.6-3.1,13-10.5,13.1-19c0.2-8.1-4.2-15.1-10.8-18.8"/>
			<path class="st0" d="M25.4,47.5c-2.1-1-4-2.6-5.4-4.5h4c0.6,0,1-0.4,1-1v-4c0-0.6-0.4-1-1-1H8c-0.6,0-1,0.4-1,1v4
				c0,0.6,0.4,1,1,1h5c2.3,4.8,6.3,8.5,11.1,10.5"/>
			<path class="st0" d="M38.6,20.5c5.6,2.7,9.2,8.8,8.3,15.7c-0.7,4.9-3.9,9.2-8.2,11.3"/>
			<path class="st0" d="M57,62H7c-1.1,0-2-0.9-2-2v0c0-1.1,0.9-2,2-2h50c1.1,0,2,0.9,2,2v0C59,61.1,58.1,62,57,62z"/>
			<circle class="st3" cx="32" cy="16" r="6"/>
			<circle class="st0" cx="32" cy="16" r="3"/>
			<circle class="st0" cx="32" cy="52" r="6"/>
			<circle class="st0" cx="32" cy="52" r="3"/>
		</g>
		<path class="st1" d="M20,37h-8c-0.6,0-1-0.4-1-1v-3c0-0.6,0.4-1,1-1h8c0.6,0,1,0.4,1,1v3C21,36.6,20.6,37,20,37z"/>
		<circle class="st0" cx="8" cy="12" r="2"/>
		<circle class="st0" cx="16" cy="4" r="2"/>
		<path class="st0" d="M58.4,32.6c0,0.7,0.1,1.3,0.1,2"/>
		<path class="st0" d="M50.7,15.8c3.9,3.9,6.6,9,7.5,14.7"/>
	</g>
</g>
</svg>
