<?xml version="1.0" encoding="utf-8"?>
<!-- Generator: Adobe Illustrator 21.0.0, SVG Export Plug-In . SVG Version: 6.00 Build 0)  -->
<svg version="1.1" id="Layer_1" xmlns="http://www.w3.org/2000/svg" xmlns:xlink="http://www.w3.org/1999/xlink" x="0px" y="0px"
	 viewBox="0 0 64 64" style="enable-background:new 0 0 64 64;" xml:space="preserve">
<style type="text/css">
	.st0{fill:none;stroke:#263238;stroke-linecap:round;stroke-linejoin:round;stroke-miterlimit:10;}
	.st1{fill:#FFD740;stroke:#263238;stroke-linecap:round;stroke-linejoin:round;stroke-miterlimit:10;}
	.st2{fill:#40C4FF;stroke:#263238;stroke-linecap:round;stroke-linejoin:round;stroke-miterlimit:10;}
	.st3{fill:#FFFFFF;stroke:#263238;stroke-linecap:round;stroke-linejoin:round;stroke-miterlimit:10;}
	.st4{fill:#FF5252;stroke:#263238;stroke-linecap:round;stroke-linejoin:round;stroke-miterlimit:10;}
	.st5{fill:#FF5252;}
	.st6{fill:#4DB6AC;stroke:#263238;stroke-linecap:round;stroke-linejoin:round;stroke-miterlimit:10;}
	.st7{fill:#FFD740;}
	.st8{fill:#40C4FF;}
	.st9{fill:#4DB6AC;}
	.st10{fill:#FFFFFF;}
	.st11{fill:#263238;stroke:#263238;stroke-linecap:round;stroke-linejoin:round;stroke-miterlimit:10;}
	.st12{fill:#4FC3F7;}
	.st13{fill:#E0E0E0;stroke:#263238;stroke-linecap:round;stroke-linejoin:round;stroke-miterlimit:10;}
</style>
<g id="Robotics">
	<g>
		<g>
			<path class="st0" d="M61.5,60h-59c-1.1,0-2-0.9-2-2v0c0-1.1,0.9-2,2-2h59c1.1,0,2,0.9,2,2v0C63.5,59.1,62.6,60,61.5,60z"/>
			<g>
				<g>
					<line class="st0" x1="44" y1="28.2" x2="33" y2="17.1"/>
					<line class="st0" x1="37.4" y1="42" x2="44" y2="35.4"/>
					<line class="st0" x1="47.5" y1="38.9" x2="44.4" y2="42"/>
					<line class="st0" x1="36.5" y1="13.6" x2="47.5" y2="24.6"/>
				</g>
				<ellipse transform="matrix(0.7071 -0.7071 0.7071 0.7071 1.5299 23.694)" class="st2" cx="29.4" cy="10" rx="6" ry="6"/>
				<ellipse transform="matrix(0.7071 -0.7071 0.7071 0.7071 -7.4865 45.4616)" class="st2" cx="51.1" cy="31.8" rx="6" ry="6"/>
				<ellipse transform="matrix(0.7071 -0.7071 0.7071 0.7071 -7.4865 45.4616)" class="st2" cx="51.1" cy="31.8" rx="6" ry="6"/>
				<ellipse transform="matrix(0.7071 -0.7071 0.7071 0.7071 1.5299 23.694)" class="st2" cx="29.4" cy="10" rx="3" ry="3"/>
				<ellipse transform="matrix(0.7071 -0.7071 0.7071 0.7071 -7.4865 45.4616)" class="st2" cx="51.1" cy="31.8" rx="3" ry="3"/>
				<path class="st0" d="M21.9,12.5H9.4c-1.4,0-2.5-1.1-2.5-2.5v0c0-1.4,1.1-2.5,2.5-2.5h12.5"/>
				<path class="st0" d="M30.6,54v-5.9c0-2.3,1.9-4.1,4.1-4.1h9.7c2.3,0,4.1,1.9,4.1,4.1V54"/>
				<path class="st0" d="M44.5,47 M44.5,47c0.6,0,1.1,0.5,1.1,1.1V54"/>
				<path class="st0" d="M17.4,14v1c0,0.6-0.4,1-1,1h-4c-0.6,0-1-0.4-1-1v-1"/>
				<circle class="st2" cx="14.4" cy="27.5" r="3"/>
				<line class="st0" x1="15.9" y1="18" x2="15.9" y2="23"/>
				<line class="st0" x1="12.9" y1="23" x2="12.9" y2="18"/>
				<polyline class="st0" points="17.4,27.5 19.4,27.5 21.9,32.5 19.4,37.5 				"/>
				<polyline class="st0" points="9.4,37.5 6.9,32.5 9.4,27.5 11.4,27.5 				"/>
				<g>
					<g>
						<line class="st0" x1="15.4" y1="35" x2="15.4" y2="34"/>
						<line class="st0" x1="15.4" y1="45" x2="15.4" y2="37"/>
					</g>
					<g>
						<line class="st0" x1="13.4" y1="51" x2="13.4" y2="52"/>
						<line class="st0" x1="13.4" y1="41" x2="13.4" y2="49"/>
					</g>
				</g>
			</g>
		</g>
		<path class="st0" d="M48.1,10l1.2-0.4c0.6-0.2,1.1-0.7,1.3-1.3L51.1,7l0.4,1.2c0.2,0.6,0.7,1.1,1.3,1.3l1.2,0.4l-1.2,0.4
			c-0.6,0.2-1.1,0.7-1.3,1.3L51.1,13l-0.4-1.2c-0.2-0.6-0.7-1.1-1.3-1.3L48.1,10z"/>
	</g>
</g>
</svg>
