<?xml version="1.0" encoding="utf-8"?>
<!-- Generator: Adobe Illustrator 21.0.0, SVG Export Plug-In . SVG Version: 6.00 Build 0)  -->
<svg version="1.1" id="Layer_1" xmlns="http://www.w3.org/2000/svg" xmlns:xlink="http://www.w3.org/1999/xlink" x="0px" y="0px"
	 viewBox="0 0 64 64" style="enable-background:new 0 0 64 64;" xml:space="preserve">
<style type="text/css">
	.st0{fill:none;stroke:#263238;stroke-linecap:round;stroke-linejoin:round;stroke-miterlimit:10;}
	.st1{fill:#FFD740;stroke:#263238;stroke-linecap:round;stroke-linejoin:round;stroke-miterlimit:10;}
	.st2{fill:#40C4FF;stroke:#263238;stroke-linecap:round;stroke-linejoin:round;stroke-miterlimit:10;}
	.st3{fill:#FFFFFF;stroke:#263238;stroke-linecap:round;stroke-linejoin:round;stroke-miterlimit:10;}
	.st4{fill:#FF5252;stroke:#263238;stroke-linecap:round;stroke-linejoin:round;stroke-miterlimit:10;}
	.st5{fill:#FF5252;}
	.st6{fill:#4DB6AC;stroke:#263238;stroke-linecap:round;stroke-linejoin:round;stroke-miterlimit:10;}
	.st7{fill:#FFD740;}
	.st8{fill:#40C4FF;}
	.st9{fill:#4DB6AC;}
	.st10{fill:#FFFFFF;}
	.st11{fill:#263238;stroke:#263238;stroke-linecap:round;stroke-linejoin:round;stroke-miterlimit:10;}
	.st12{fill:#4FC3F7;}
	.st13{fill:#E0E0E0;stroke:#263238;stroke-linecap:round;stroke-linejoin:round;stroke-miterlimit:10;}
</style>
<g id="Security_Panel">
	<g>
		<g>
			<path class="st0" d="M39.5,56.5h-25c-2.8,0-5-2.2-5-5v-43c0-2.8,2.2-5,5-5h26c2.8,0,5,2.2,5,5v30"/>
			<path class="st6" d="M38,24.5H17c-1.4,0-2.5-1.1-2.5-2.5V11c0-1.4,1.1-2.5,2.5-2.5h21c1.4,0,2.5,1.1,2.5,2.5v11
				C40.5,23.4,39.4,24.5,38,24.5z"/>
			<path class="st0" d="M29.5,31h-4c-0.6,0-1-0.4-1-1v-1c0-0.6,0.4-1,1-1h4c0.6,0,1,0.4,1,1v1C30.5,30.6,30.1,31,29.5,31z"/>
			<path class="st0" d="M19.5,31h-4c-0.6,0-1-0.4-1-1v-1c0-0.6,0.4-1,1-1h4c0.6,0,1,0.4,1,1v1C20.5,30.6,20.1,31,19.5,31z"/>
			<path class="st0" d="M39.5,31h-4c-0.6,0-1-0.4-1-1v-1c0-0.6,0.4-1,1-1h4c0.6,0,1,0.4,1,1v1C40.5,30.6,40.1,31,39.5,31z"/>
			<path class="st0" d="M29.5,37h-4c-0.6,0-1-0.4-1-1v-1c0-0.6,0.4-1,1-1h4c0.6,0,1,0.4,1,1v1C30.5,36.6,30.1,37,29.5,37z"/>
			<path class="st0" d="M19.5,37h-4c-0.6,0-1-0.4-1-1v-1c0-0.6,0.4-1,1-1h4c0.6,0,1,0.4,1,1v1C20.5,36.6,20.1,37,19.5,37z"/>
			<path class="st0" d="M39.5,37h-4c-0.6,0-1-0.4-1-1v-1c0-0.6,0.4-1,1-1h4c0.6,0,1,0.4,1,1v1C40.5,36.6,40.1,37,39.5,37z"/>
			<path class="st0" d="M29.5,43h-4c-0.6,0-1-0.4-1-1v-1c0-0.6,0.4-1,1-1h4c0.6,0,1,0.4,1,1v1C30.5,42.6,30.1,43,29.5,43z"/>
			<path class="st0" d="M29.5,49h-4c-0.6,0-1-0.4-1-1v-1c0-0.6,0.4-1,1-1h4c0.6,0,1,0.4,1,1v1C30.5,48.6,30.1,49,29.5,49z"/>
			<path class="st0" d="M19.5,43h-4c-0.6,0-1-0.4-1-1v-1c0-0.6,0.4-1,1-1h4c0.6,0,1,0.4,1,1v1C20.5,42.6,20.1,43,19.5,43z"/>
			<path class="st0" d="M39.5,43h-4c-0.6,0-1-0.4-1-1v-1c0-0.6,0.4-1,1-1h4c0.6,0,1,0.4,1,1v1C40.5,42.6,40.1,43,39.5,43z"/>
			<line class="st0" x1="9.6" y1="52.5" x2="39.5" y2="52.5"/>
			<path class="st3" d="M25.7,21.5c-0.4,0-0.8-0.1-1.1-0.4l-3.5-3.5c-0.6-0.6-0.6-1.5,0-2.1s1.5-0.6,2.1,0l2.5,2.5l6-6
				c0.6-0.6,1.5-0.6,2.1,0c0.6,0.6,0.6,1.5,0,2.1l-7.1,7.1C26.5,21.4,26.1,21.5,25.7,21.5z"/>
		</g>
		<g>
			<path class="st4" d="M55,63.5H44c-1.4,0-2.5-1.1-2.5-2.5V51c0-1.4,1.1-2.5,2.5-2.5h11c1.4,0,2.5,1.1,2.5,2.5v10
				C57.5,62.4,56.4,63.5,55,63.5z"/>
			<path class="st0" d="M44.5,48.5V44c0-1.9,1.6-3.5,3.5-3.5h3c1.9,0,3.5,1.6,3.5,3.5v4.5 M52.5,48.5V44c0-0.8-0.7-1.5-1.5-1.5h-3
				c-0.8,0-1.5,0.7-1.5,1.5v4.5"/>
			<path class="st4" d="M51.5,55c0-1.1-0.9-2-2-2s-2,0.9-2,2c0,0.8,0.4,1.4,1.1,1.8L48,59h3l-0.6-2.2C51.1,56.4,51.5,55.8,51.5,55z"
				/>
		</g>
		<g>
			<path class="st0" d="M18.5,59.5H14c-4.1,0-7.5-3.4-7.5-7.5v-4.5"/>
			<line class="st0" x1="6.5" y1="45.5" x2="6.5" y2="44.5"/>
		</g>
		<g>
			<path class="st0" d="M36.5,0.5H41c4.1,0,7.5,3.4,7.5,7.5v4.5"/>
			<line class="st0" x1="48.5" y1="14.5" x2="48.5" y2="15.5"/>
		</g>
	</g>
</g>
</svg>
