<?xml version="1.0" encoding="utf-8"?>
<!-- Generator: Adobe Illustrator 21.0.0, SVG Export Plug-In . SVG Version: 6.00 Build 0)  -->
<svg version="1.1" id="Layer_1" xmlns="http://www.w3.org/2000/svg" xmlns:xlink="http://www.w3.org/1999/xlink" x="0px" y="0px"
	 viewBox="0 0 64 64" style="enable-background:new 0 0 64 64;" xml:space="preserve">
<style type="text/css">
	.st0{fill:none;stroke:#263238;stroke-linecap:round;stroke-linejoin:round;stroke-miterlimit:10;}
	.st1{fill:#FFD740;stroke:#263238;stroke-linecap:round;stroke-linejoin:round;stroke-miterlimit:10;}
	.st2{fill:#40C4FF;stroke:#263238;stroke-linecap:round;stroke-linejoin:round;stroke-miterlimit:10;}
	.st3{fill:#FFFFFF;stroke:#263238;stroke-linecap:round;stroke-linejoin:round;stroke-miterlimit:10;}
	.st4{fill:#FF5252;stroke:#263238;stroke-linecap:round;stroke-linejoin:round;stroke-miterlimit:10;}
	.st5{fill:#FF5252;}
	.st6{fill:#4DB6AC;stroke:#263238;stroke-linecap:round;stroke-linejoin:round;stroke-miterlimit:10;}
	.st7{fill:#FFD740;}
	.st8{fill:#40C4FF;}
	.st9{fill:#4DB6AC;}
	.st10{fill:#FFFFFF;}
	.st11{fill:#263238;stroke:#263238;stroke-linecap:round;stroke-linejoin:round;stroke-miterlimit:10;}
	.st12{fill:#4FC3F7;}
	.st13{fill:#E0E0E0;stroke:#263238;stroke-linecap:round;stroke-linejoin:round;stroke-miterlimit:10;}
</style>
<g id="Smart_TV_Box">
	<g>
		<g>
			<path class="st0" d="M54.5,63h-11c-1.4,0-2.5-1.1-2.5-2.5v-35c0-1.4,1.1-2.5,2.5-2.5h11c1.4,0,2.5,1.1,2.5,2.5v35
				C57,61.9,55.9,63,54.5,63z"/>
			<circle class="st2" cx="49" cy="48" r="4"/>
			<circle class="st0" cx="49" cy="48" r="2"/>
			<line class="st0" x1="44" y1="27" x2="46" y2="27"/>
			<line class="st0" x1="52" y1="27" x2="54" y2="27"/>
			<line class="st0" x1="44" y1="32" x2="46" y2="32"/>
			<line class="st0" x1="48" y1="32" x2="50" y2="32"/>
			<line class="st0" x1="52" y1="32" x2="54" y2="32"/>
			<line class="st0" x1="44" y1="35" x2="46" y2="35"/>
			<line class="st0" x1="48" y1="35" x2="50" y2="35"/>
			<line class="st0" x1="52" y1="35" x2="54" y2="35"/>
			<line class="st0" x1="44" y1="38" x2="46" y2="38"/>
			<line class="st0" x1="48" y1="38" x2="50" y2="38"/>
			<line class="st0" x1="48" y1="41" x2="50" y2="41"/>
			<line class="st0" x1="52" y1="38" x2="54" y2="38"/>
			<line class="st0" x1="44" y1="55" x2="46" y2="55"/>
			<line class="st0" x1="48" y1="55" x2="50" y2="55"/>
			<line class="st0" x1="52" y1="55" x2="54" y2="55"/>
		</g>
		<g>
			<path class="st0" d="M47.4,4.2c4.3-4.3,11.3-4.3,15.6,0"/>
			<path class="st0" d="M50.3,7.1c2.7-2.7,7.2-2.7,9.9,0"/>
			<path class="st0" d="M53.1,9.9c1.2-1.2,3.1-1.2,4.2,0"/>
		</g>
		<g>
			<g>
				<line class="st0" x1="35" y1="63" x2="36" y2="63"/>
				<line class="st0" x1="14" y1="63" x2="33" y2="63"/>
			</g>
		</g>
		<g>
			<g>
				<line class="st0" x1="15" y1="3" x2="14" y2="3"/>
				<line class="st0" x1="36" y1="3" x2="17" y2="3"/>
			</g>
		</g>
		<g>
			<path class="st0" d="M39,57H8.5C4.4,57,1,53.6,1,49.5v-33C1,12.4,4.4,9,8.5,9h33c4.1,0,7.5,3.4,7.5,7.5V21"/>
			<g>
				<path class="st1" d="M32.5,40h-15c-1.4,0-2.5-1.1-2.5-2.5v-9c0-1.4,1.1-2.5,2.5-2.5h15c1.4,0,2.5,1.1,2.5,2.5v9
					C35,38.9,33.9,40,32.5,40z"/>
				<g>
					<polyline class="st0" points="18,29.8 24.5,29.8 28,36.3 31.5,29.8 					"/>
					<line class="st0" x1="21" y1="36.3" x2="21" y2="31.8"/>
				</g>
			</g>
			<circle class="st2" cx="19" cy="13.5" r="1.5"/>
			<circle class="st2" cx="25" cy="13.5" r="1.5"/>
			<circle class="st2" cx="31" cy="13.5" r="1.5"/>
			<path class="st0" d="M40,12h1c2.8,0,5,2.2,5,5v1"/>
		</g>
	</g>
</g>
</svg>
