<?xml version="1.0" encoding="utf-8"?>
<!-- Generator: Adobe Illustrator 21.0.0, SVG Export Plug-In . SVG Version: 6.00 Build 0)  -->
<svg version="1.1" id="Layer_1" xmlns="http://www.w3.org/2000/svg" xmlns:xlink="http://www.w3.org/1999/xlink" x="0px" y="0px"
	 viewBox="0 0 64 64" style="enable-background:new 0 0 64 64;" xml:space="preserve">
<style type="text/css">
	.st0{fill:none;stroke:#263238;stroke-linecap:round;stroke-linejoin:round;stroke-miterlimit:10;}
	.st1{fill:#FFD740;stroke:#263238;stroke-linecap:round;stroke-linejoin:round;stroke-miterlimit:10;}
	.st2{fill:#40C4FF;stroke:#263238;stroke-linecap:round;stroke-linejoin:round;stroke-miterlimit:10;}
	.st3{fill:#FFFFFF;stroke:#263238;stroke-linecap:round;stroke-linejoin:round;stroke-miterlimit:10;}
	.st4{fill:#FF5252;stroke:#263238;stroke-linecap:round;stroke-linejoin:round;stroke-miterlimit:10;}
	.st5{fill:#FF5252;}
	.st6{fill:#4DB6AC;stroke:#263238;stroke-linecap:round;stroke-linejoin:round;stroke-miterlimit:10;}
	.st7{fill:#FFD740;}
	.st8{fill:#40C4FF;}
	.st9{fill:#4DB6AC;}
	.st10{fill:#FFFFFF;}
	.st11{fill:#263238;stroke:#263238;stroke-linecap:round;stroke-linejoin:round;stroke-miterlimit:10;}
	.st12{fill:#4FC3F7;}
	.st13{fill:#E0E0E0;stroke:#263238;stroke-linecap:round;stroke-linejoin:round;stroke-miterlimit:10;}
</style>
<g id="Smart_Retail">
	<g>
		<path class="st0" d="M34.3,35.5l-0.6-2.3c-0.1-0.4-0.5-0.7-1-0.7h-4.2"/>
		<path class="st6" d="M34.3,35.5l3,11.3c0.1,0.4,0.5,0.7,1,0.7h16.9c0.5,0,0.9-0.3,1-0.8l2.1-10c0.1-0.6-0.3-1.2-1-1.2l-21,0"/>
		<circle class="st0" cx="41.5" cy="52.5" r="3"/>
		<circle class="st0" cx="51.5" cy="52.5" r="3"/>
		<g>
			<path class="st4" d="M9.3,24.2L9.3,24.2c-2,1.9-2.4,5-1,7.4l5.2,8.8l5.2-8.8c1.4-2.4,1-5.4-1-7.4l0,0
				C15.3,21.9,11.7,21.9,9.3,24.2z"/>
			<circle class="st3" cx="13.5" cy="28.5" r="3"/>
		</g>
		<g>
			<path class="st0" d="M47.5,0.5c6.1,0,11,4.9,11,11"/>
			<path class="st0" d="M47.5,4.5c3.9,0,7,3.1,7,7"/>
			<path class="st0" d="M47.5,8.5c1.7,0,3,1.3,3,3"/>
		</g>
		<line class="st0" x1="37.9" y1="41.5" x2="55.2" y2="41.5"/>
		<line class="st0" x1="43" y1="37.5" x2="43" y2="45.5"/>
		<line class="st0" x1="50" y1="37.5" x2="50" y2="45.5"/>
		<g>
			<line class="st0" x1="30" y1="47.5" x2="11" y2="47.5"/>
			<line class="st0" x1="6.5" y1="49.5" x2="5.5" y2="49.5"/>
			<line class="st0" x1="24" y1="49.5" x2="8.5" y2="49.5"/>
		</g>
		<g>
			<g>
				<path class="st0" d="M13.5,20.5v-3c0-2.8,2.2-5,5-5h23c2.8,0,5,2.2,5,5v16"/>
				<path class="st0" d="M46.5,49.5v9c0,2.8-2.2,5-5,5h-23c-2.8,0-5-2.2-5-5V42.3"/>
				<line class="st0" x1="46.5" y1="57.5" x2="13.5" y2="57.5"/>
				<line class="st0" x1="13.5" y1="18.5" x2="46.5" y2="18.5"/>
				<line class="st0" x1="27" y1="15.5" x2="33" y2="15.5"/>
				<path class="st0" d="M32,61.5h-4c-0.6,0-1-0.4-1-1l0,0c0-0.6,0.4-1,1-1h4c0.6,0,1,0.4,1,1l0,0C33,61.1,32.6,61.5,32,61.5z"/>
			</g>
			<polyline class="st0" points="43.5,26.5 43.5,21.5 38.5,21.5 			"/>
		</g>
	</g>
</g>
</svg>
