<?xml version="1.0" encoding="utf-8"?>
<!-- Generator: Adobe Illustrator 21.0.0, SVG Export Plug-In . SVG Version: 6.00 Build 0)  -->
<svg version="1.1" id="Layer_1" xmlns="http://www.w3.org/2000/svg" xmlns:xlink="http://www.w3.org/1999/xlink" x="0px" y="0px"
	 viewBox="0 0 64 64" style="enable-background:new 0 0 64 64;" xml:space="preserve">
<style type="text/css">
	.st0{fill:none;stroke:#263238;stroke-linecap:round;stroke-linejoin:round;stroke-miterlimit:10;}
	.st1{fill:#FFD740;stroke:#263238;stroke-linecap:round;stroke-linejoin:round;stroke-miterlimit:10;}
	.st2{fill:#40C4FF;stroke:#263238;stroke-linecap:round;stroke-linejoin:round;stroke-miterlimit:10;}
	.st3{fill:#FFFFFF;stroke:#263238;stroke-linecap:round;stroke-linejoin:round;stroke-miterlimit:10;}
	.st4{fill:#FF5252;stroke:#263238;stroke-linecap:round;stroke-linejoin:round;stroke-miterlimit:10;}
	.st5{fill:#FF5252;}
	.st6{fill:#4DB6AC;stroke:#263238;stroke-linecap:round;stroke-linejoin:round;stroke-miterlimit:10;}
	.st7{fill:#FFD740;}
	.st8{fill:#40C4FF;}
	.st9{fill:#4DB6AC;}
	.st10{fill:#FFFFFF;}
	.st11{fill:#263238;stroke:#263238;stroke-linecap:round;stroke-linejoin:round;stroke-miterlimit:10;}
	.st12{fill:#4FC3F7;}
	.st13{fill:#E0E0E0;stroke:#263238;stroke-linecap:round;stroke-linejoin:round;stroke-miterlimit:10;}
</style>
<g id="Smart_Water">
	<g>
		<g>
			<g>
				<g>
					<circle class="st7" cx="15.5" cy="15.5" r="15"/>
				</g>
			</g>
			<path class="st0" d="M7.7,12.7c4.3-4.3,11.3-4.3,15.6,0"/>
			<path class="st0" d="M10.6,15.6c2.7-2.7,7.2-2.7,9.9,0"/>
			<path class="st0" d="M13.4,18.4c1.2-1.2,3.1-1.2,4.2,0"/>
		</g>
		<g>
			<g>
				<line class="st0" x1="47.7" y1="52.7" x2="48.7" y2="52.7"/>
				<path class="st0" d="M28.8,52.7c1.6-1.6,4.1-1.6,5.7,0"/>
				<path class="st0" d="M34.4,52.7c1.6-1.6,4.1-1.6,5.7,0"/>
				<path class="st0" d="M40.1,52.7c1.6-1.6,4.1-1.6,5.7,0"/>
			</g>
			<g>
				<line class="st0" x1="40.3" y1="58.8" x2="41.3" y2="58.8"/>
				<g>
					<path class="st0" d="M43.3,58.8c1.6-1.6,4.1-1.6,5.7,0"/>
					<path class="st0" d="M48.9,58.8c1.6-1.6,4.1-1.6,5.7,0"/>
					<path class="st0" d="M54.6,58.8c1.6-1.6,4.1-1.6,5.7,0"/>
				</g>
			</g>
		</g>
		<g>
			<path class="st2" d="M18.3,62.4L18.3,62.4c1.3-1.3,1.6-3.3,0.7-4.9l-3.4-5.8l-3.4,5.8c-0.9,1.6-0.7,3.6,0.7,4.9l0,0
				C14.3,63.9,16.7,63.9,18.3,62.4z"/>
			<g>
				<g>
					<path class="st0" d="M11.5,46v1c0,1.4,1.1,2.5,2.5,2.5h3c1.4,0,2.5-1.1,2.5-2.5v-1"/>
					<path class="st0" d="M34.5,29.5h-9c-3.3,0-6,2.7-6,6V38"/>
					<path class="st0" d="M60.5,21.5H61c1.4,0,2.5,1.1,2.5,2.5v3c0,1.4-1.1,2.5-2.5,2.5h-0.5"/>
					<path class="st0" d="M11.5,38v-2.5c0-7.7,6.3-14,14-14l9,0"/>
				</g>
				<path class="st0" d="M56,6.5H43c-1.4,0-2.5-1.1-2.5-2.5V3c0-1.4,1.1-2.5,2.5-2.5h13c1.4,0,2.5,1.1,2.5,2.5v1
					C58.5,5.4,57.4,6.5,56,6.5z"/>
				<line class="st0" x1="51.5" y1="6.5" x2="51.5" y2="10.5"/>
				<line class="st0" x1="47.5" y1="10.5" x2="47.5" y2="6.5"/>
				<path class="st0" d="M54.5,16.5h-10V15c0-1.4,1.1-2.5,2.5-2.5h5c1.4,0,2.5,1.1,2.5,2.5V16.5z"/>
				<path class="st2" d="M56,34.5H43c-1.4,0-2.5-1.1-2.5-2.5V19c0-1.4,1.1-2.5,2.5-2.5h13c1.4,0,2.5,1.1,2.5,2.5v13
					C58.5,33.4,57.4,34.5,56,34.5z"/>
				<path class="st0" d="M55.5,26.5v4c0,0.6-0.4,1-1,1h-4"/>
				<path class="st0" d="M39,31.5h1.5v-12H39c-1.4,0-2.5,1.1-2.5,2.5v7C36.5,30.4,37.6,31.5,39,31.5z"/>
				<path class="st0" d="M9.5,42L9.5,42c0,1.1,0.9,2,2,2h8c1.1,0,2-0.9,2-2v0c0-1.1-0.9-2-2-2h-8C10.4,40,9.5,40.9,9.5,42z"/>
				<path class="st3" d="M53.5,23.5h-8c-0.6,0-1-0.4-1-1v-2c0-0.6,0.4-1,1-1h8c0.6,0,1,0.4,1,1v2C54.5,23.1,54.1,23.5,53.5,23.5z"/>
			</g>
		</g>
		<g>
			<g>
				<line class="st0" x1="63.5" y1="38.5" x2="59.5" y2="38.5"/>
				<line class="st0" x1="61.5" y1="36.5" x2="61.5" y2="40.5"/>
			</g>
			<g>
				<line class="st0" x1="56.5" y1="45" x2="52.5" y2="45"/>
				<line class="st0" x1="54.5" y1="43" x2="54.5" y2="47"/>
			</g>
		</g>
	</g>
</g>
</svg>
