<?xml version="1.0" encoding="utf-8"?>
<!-- Generator: Adobe Illustrator 21.0.0, SVG Export Plug-In . SVG Version: 6.00 Build 0)  -->
<svg version="1.1" id="Layer_1" xmlns="http://www.w3.org/2000/svg" xmlns:xlink="http://www.w3.org/1999/xlink" x="0px" y="0px"
	 viewBox="0 0 64 64" style="enable-background:new 0 0 64 64;" xml:space="preserve">
<style type="text/css">
	.st0{fill:none;stroke:#263238;stroke-linecap:round;stroke-linejoin:round;stroke-miterlimit:10;}
	.st1{fill:#FFD740;stroke:#263238;stroke-linecap:round;stroke-linejoin:round;stroke-miterlimit:10;}
	.st2{fill:#40C4FF;stroke:#263238;stroke-linecap:round;stroke-linejoin:round;stroke-miterlimit:10;}
	.st3{fill:#FFFFFF;stroke:#263238;stroke-linecap:round;stroke-linejoin:round;stroke-miterlimit:10;}
	.st4{fill:#FF5252;stroke:#263238;stroke-linecap:round;stroke-linejoin:round;stroke-miterlimit:10;}
	.st5{fill:#FF5252;}
	.st6{fill:#4DB6AC;stroke:#263238;stroke-linecap:round;stroke-linejoin:round;stroke-miterlimit:10;}
	.st7{fill:#FFD740;}
	.st8{fill:#40C4FF;}
	.st9{fill:#4DB6AC;}
	.st10{fill:#FFFFFF;}
	.st11{fill:#263238;stroke:#263238;stroke-linecap:round;stroke-linejoin:round;stroke-miterlimit:10;}
	.st12{fill:#4FC3F7;}
	.st13{fill:#E0E0E0;stroke:#263238;stroke-linecap:round;stroke-linejoin:round;stroke-miterlimit:10;}
</style>
<g id="Smart_Product_Management">
	<g>
		<g>
			<circle class="st1" cx="18" cy="14" r="6"/>
			<line class="st0" x1="18" y1="6" x2="18" y2="2"/>
			<line class="st0" x1="26" y1="14" x2="30" y2="14"/>
			<line class="st0" x1="10" y1="14" x2="6" y2="14"/>
			<line class="st0" x1="23.7" y1="8.3" x2="26.5" y2="5.5"/>
			<line class="st0" x1="12.3" y1="8.3" x2="9.5" y2="5.5"/>
		</g>
		<g>
			<path class="st0" d="M32.8,39H3.2c-0.6,0-1.1-0.6-1-1.2l2.6-14c0.1-0.5,0.5-0.8,1-0.8h24.3c0.5,0,0.9,0.3,1,0.8l2.6,14
				C33.9,38.4,33.4,39,32.8,39z"/>
			<line class="st0" x1="8.4" y1="37" x2="10.6" y2="25"/>
			<line class="st0" x1="27.6" y1="37" x2="25.4" y2="25"/>
			<line class="st0" x1="18" y1="25" x2="18" y2="37"/>
			<line class="st0" x1="5.5" y1="31" x2="30.5" y2="31"/>
		</g>
		<g>
			<path class="st0" d="M34,55H23c-2.8,0-5-2.2-5-5v-7"/>
			<polyline class="st0" points="32,53 34,55 32,57 			"/>
		</g>
		<g>
			<path class="st0" d="M60.5,62h-19c-1.4,0-2.5-1.1-2.5-2.5v-30c0-1.4,1.1-2.5,2.5-2.5h19c1.4,0,2.5,1.1,2.5,2.5v30
				C63,60.9,61.9,62,60.5,62z"/>
			<polygon class="st0" points="48.3,57.5 50.5,51 47.2,51 53.7,44.5 51.5,51 54.8,51 			"/>
			<path class="st0" d="M42,25v-1c0-0.6,0.4-1,1-1h2c0.6,0,1,0.4,1,1v1"/>
			<path class="st0" d="M56,25v-1c0-0.6,0.4-1,1-1h2c0.6,0,1,0.4,1,1v1"/>
			<path class="st2" d="M59,40H43c-0.6,0-1-0.4-1-1v-8c0-0.6,0.4-1,1-1h16c0.6,0,1,0.4,1,1v8C60,39.6,59.6,40,59,40z"/>
			<line class="st0" x1="60" y1="59" x2="60" y2="43"/>
		</g>
		<g>
			<line class="st0" x1="59.2" y1="14" x2="60.2" y2="14"/>
			<line class="st0" x1="49.2" y1="14" x2="57.2" y2="14"/>
		</g>
		<g>
			<line class="st0" x1="43.2" y1="16" x2="42.2" y2="16"/>
			<line class="st0" x1="53.2" y1="16" x2="45.2" y2="16"/>
		</g>
		<g>
			<g>
				<line class="st0" x1="12" y1="49" x2="8" y2="49"/>
				<line class="st0" x1="10" y1="47" x2="10" y2="51"/>
			</g>
			<g>
				<line class="st0" x1="5" y1="55.5" x2="1" y2="55.5"/>
				<line class="st0" x1="3" y1="53.5" x2="3" y2="57.5"/>
			</g>
		</g>
	</g>
</g>
</svg>
