<?xml version="1.0" encoding="utf-8"?>
<!-- Generator: Adobe Illustrator 21.0.0, SVG Export Plug-In . SVG Version: 6.00 Build 0)  -->
<svg version="1.1" id="Layer_1" xmlns="http://www.w3.org/2000/svg" xmlns:xlink="http://www.w3.org/1999/xlink" x="0px" y="0px"
	 viewBox="0 0 64 64" style="enable-background:new 0 0 64 64;" xml:space="preserve">
<style type="text/css">
	.st0{fill:none;stroke:#263238;stroke-linecap:round;stroke-linejoin:round;stroke-miterlimit:10;}
	.st1{fill:#FFD740;stroke:#263238;stroke-linecap:round;stroke-linejoin:round;stroke-miterlimit:10;}
	.st2{fill:#40C4FF;stroke:#263238;stroke-linecap:round;stroke-linejoin:round;stroke-miterlimit:10;}
	.st3{fill:#FFFFFF;stroke:#263238;stroke-linecap:round;stroke-linejoin:round;stroke-miterlimit:10;}
	.st4{fill:#FF5252;stroke:#263238;stroke-linecap:round;stroke-linejoin:round;stroke-miterlimit:10;}
	.st5{fill:#FF5252;}
	.st6{fill:#4DB6AC;stroke:#263238;stroke-linecap:round;stroke-linejoin:round;stroke-miterlimit:10;}
	.st7{fill:#FFD740;}
	.st8{fill:#40C4FF;}
	.st9{fill:#4DB6AC;}
	.st10{fill:#FFFFFF;}
	.st11{fill:#263238;stroke:#263238;stroke-linecap:round;stroke-linejoin:round;stroke-miterlimit:10;}
	.st12{fill:#4FC3F7;}
	.st13{fill:#E0E0E0;stroke:#263238;stroke-linecap:round;stroke-linejoin:round;stroke-miterlimit:10;}
</style>
<g id="Smart_Working_1_">
	<g>
		<g>
			<g>
				<g>
					<rect x="2" y="6.5" class="st8" width="36" height="36"/>
				</g>
			</g>
			<path class="st0" d="M25.4,48.5H7c-2.8,0-5-2.2-5-5v-38c0-2.8,2.2-5,5-5h26c2.8,0,5,2.2,5,5V27"/>
			<path class="st3" d="M17,22.5H7c-0.6,0-1-0.4-1-1v-10c0-0.6,0.4-1,1-1h10c0.6,0,1,0.4,1,1v10C18,22.1,17.6,22.5,17,22.5z"/>
			<path class="st3" d="M33,22.5H23c-0.6,0-1-0.4-1-1v-10c0-0.6,0.4-1,1-1h10c0.6,0,1,0.4,1,1v10C34,22.1,33.6,22.5,33,22.5z"/>
			<path class="st3" d="M17,38.5H7c-0.6,0-1-0.4-1-1v-10c0-0.6,0.4-1,1-1h10c0.6,0,1,0.4,1,1v10C18,38.1,17.6,38.5,17,38.5z"/>
			<line class="st0" x1="17" y1="3.5" x2="23" y2="3.5"/>
			<path class="st0" d="M22,46.5h-4c-0.6,0-1-0.4-1-1l0,0c0-0.6,0.4-1,1-1h4c0.6,0,1,0.4,1,1l0,0C23,46.1,22.6,46.5,22,46.5z"/>
			<line class="st0" x1="2" y1="6.5" x2="38" y2="6.5"/>
			<line class="st0" x1="2" y1="42.5" x2="21.8" y2="42.5"/>
		</g>
		<g>
			<line class="st0" x1="24.5" y1="54.5" x2="7.5" y2="54.5"/>
			<line class="st0" x1="3" y1="56.5" x2="2" y2="56.5"/>
			<line class="st0" x1="20.5" y1="56.5" x2="5" y2="56.5"/>
		</g>
		<g>
			<g>
				<path class="st3" d="M46,61v-4c0-1.4-1.1-2.5-2.5-2.5h-13c-1.4,0-2.5,1.1-2.5,2.5v4c0,1.4,1.1,2.5,2.5,2.5h13
					C44.8,63.5,46,62.4,46,61z"/>
				<path class="st3" d="M44.8,29c-1.5-0.2-2.8,1-2.8,2.5c0-1.4-1.1-2.5-2.5-2.5c-1.4,0-2.5,1.1-2.5,2.5c0-1.4-1.1-2.5-2.5-2.5
					c-1.4,0-2.5,1.1-2.5,2.5V21c0-1.4-1.1-2.5-2.5-2.5h0c-1.4,0-2.5,1.1-2.5,2.5v15.5L23.5,33c-1-1-2.5-1-3.5,0l0,0
					c-0.8,0.8-1,2.1-0.3,3.1l6.7,10.4c0.5,0.7,0.9,1.5,1.2,2.2l2.5,5.8h14l1.8-4.2c0.8-1.9,1.2-3.9,1.2-5.9l0-12.8
					C47,30.3,46.1,29.1,44.8,29z"/>
				<line class="st3" x1="37" y1="31.5" x2="37" y2="34.5"/>
				<line class="st3" x1="42" y1="31.5" x2="42" y2="34.5"/>
				<line class="st3" x1="32" y1="31.5" x2="32" y2="34.5"/>
			</g>
			<path class="st3" d="M44,44.4c0,1.6-0.3,3.2-1,4.7l-1,2.4"/>
			<line class="st3" x1="37" y1="31.5" x2="37" y2="34.5"/>
			<line class="st3" x1="42" y1="31.5" x2="42" y2="34.5"/>
			<line class="st3" x1="32" y1="31.5" x2="32" y2="34.5"/>
		</g>
		<g>
			<g>
				<path class="st1" d="M56.3,13.5c0-3.1-2.8-5.6-6.1-4.9c-1.9,0.4-3.4,2-3.8,3.9c-0.3,1.7,0.2,3.3,1.2,4.4
					c0.7,0.8,1.2,1.8,1.2,2.8V20h5v-0.3c0-1.1,0.5-2.1,1.2-2.9C55.8,16,56.3,14.8,56.3,13.5z"/>
				<path class="st0" d="M51.3,25L51.3,25c-1.4,0-2.5-1.1-2.5-2.5V20h5v2.5C53.8,23.9,52.7,25,51.3,25z"/>
				<line class="st0" x1="48.8" y1="22.5" x2="53.8" y2="22.5"/>
			</g>
			<line class="st3" x1="51.3" y1="3.5" x2="51.3" y2="5.5"/>
			<line class="st3" x1="44.9" y1="5.8" x2="46.3" y2="7.2"/>
			<line class="st3" x1="57.7" y1="5.8" x2="56.3" y2="7.2"/>
		</g>
		<g>
			<g>
				<line class="st0" x1="62" y1="29" x2="58" y2="29"/>
				<line class="st0" x1="60" y1="27" x2="60" y2="31"/>
			</g>
			<g>
				<line class="st0" x1="55" y1="35.5" x2="51" y2="35.5"/>
				<line class="st0" x1="53" y1="33.5" x2="53" y2="37.5"/>
			</g>
		</g>
	</g>
</g>
</svg>
