<?xml version="1.0" encoding="utf-8"?>
<!-- Generator: Adobe Illustrator 21.0.0, SVG Export Plug-In . SVG Version: 6.00 Build 0)  -->
<svg version="1.1" id="Layer_1" xmlns="http://www.w3.org/2000/svg" xmlns:xlink="http://www.w3.org/1999/xlink" x="0px" y="0px"
	 viewBox="0 0 64 64" style="enable-background:new 0 0 64 64;" xml:space="preserve">
<style type="text/css">
	.st0{fill:none;stroke:#263238;stroke-linecap:round;stroke-linejoin:round;stroke-miterlimit:10;}
	.st1{fill:#FFD740;stroke:#263238;stroke-linecap:round;stroke-linejoin:round;stroke-miterlimit:10;}
	.st2{fill:#40C4FF;stroke:#263238;stroke-linecap:round;stroke-linejoin:round;stroke-miterlimit:10;}
	.st3{fill:#FFFFFF;stroke:#263238;stroke-linecap:round;stroke-linejoin:round;stroke-miterlimit:10;}
	.st4{fill:#FF5252;stroke:#263238;stroke-linecap:round;stroke-linejoin:round;stroke-miterlimit:10;}
	.st5{fill:#FF5252;}
	.st6{fill:#4DB6AC;stroke:#263238;stroke-linecap:round;stroke-linejoin:round;stroke-miterlimit:10;}
	.st7{fill:#FFD740;}
	.st8{fill:#40C4FF;}
	.st9{fill:#4DB6AC;}
	.st10{fill:#FFFFFF;}
	.st11{fill:#263238;stroke:#263238;stroke-linecap:round;stroke-linejoin:round;stroke-miterlimit:10;}
	.st12{fill:#4FC3F7;}
	.st13{fill:#E0E0E0;stroke:#263238;stroke-linecap:round;stroke-linejoin:round;stroke-miterlimit:10;}
</style>
<g id="Smart_TV">
	<g>
		<g>
			<path class="st0" d="M5.5,56C4.1,56,3,54.9,3,53.5v-36C3,16.1,4.1,15,5.5,15h53c1.4,0,2.5,1.1,2.5,2.5v36c0,1.4-1.1,2.5-2.5,2.5
				H5.5z"/>
			<path class="st0" d="M8.2,53C7,53,6,52,6,50.9V20.1C6,19,7,18,8.2,18h47.5c1.2,0,2.2,1,2.2,2.1v30.7c0,1.2-1,2.1-2.2,2.1H8.2z"/>
			<path class="st0" d="M55,26v-4c0-0.6-0.4-1-1-1h-4"/>
			<polyline class="st0" points="39.5,58 45.5,62 40.5,62 37,60 27,60 23.5,62 18.5,62 24.5,58 			"/>
			<g>
				<rect x="44" y="27.5" class="st1" width="6" height="6"/>
				<rect x="34" y="27.5" class="st2" width="6" height="6"/>
				<rect x="44" y="37.5" class="st6" width="6" height="6"/>
				<rect x="34" y="37.5" class="st4" width="6" height="6"/>
				<rect x="24" y="27.5" class="st1" width="6" height="6"/>
				<rect x="14" y="27.5" class="st2" width="6" height="6"/>
				<rect x="24" y="37.5" class="st6" width="6" height="6"/>
				<rect x="14" y="37.5" class="st4" width="6" height="6"/>
			</g>
			<g>
				<g>
					<line class="st0" x1="0.5" y1="45.5" x2="0.5" y2="46.5"/>
					<line class="st0" x1="0.5" y1="24.5" x2="0.5" y2="43.5"/>
				</g>
			</g>
			<g>
				<g>
					<line class="st0" x1="63.5" y1="25.5" x2="63.5" y2="24.5"/>
					<line class="st0" x1="63.5" y1="46.5" x2="63.5" y2="27.5"/>
				</g>
			</g>
			<g>
				<line class="st0" x1="21.5" y1="9" x2="17.5" y2="9"/>
				<line class="st0" x1="19.5" y1="7" x2="19.5" y2="11"/>
			</g>
			<g>
				<line class="st0" x1="14" y1="11" x2="10" y2="11"/>
				<line class="st0" x1="12" y1="9" x2="12" y2="13"/>
			</g>
		</g>
		<g>
			<path class="st0" d="M44.9,5.2c4.3-4.3,11.3-4.3,15.6,0"/>
			<path class="st0" d="M47.8,8.1c2.7-2.7,7.2-2.7,9.9,0"/>
			<path class="st0" d="M50.6,10.9c1.2-1.2,3.1-1.2,4.2,0"/>
		</g>
	</g>
</g>
</svg>
