<?xml version="1.0" encoding="utf-8"?>
<!-- Generator: Adobe Illustrator 21.0.0, SVG Export Plug-In . SVG Version: 6.00 Build 0)  -->
<svg version="1.1" id="Layer_1" xmlns="http://www.w3.org/2000/svg" xmlns:xlink="http://www.w3.org/1999/xlink" x="0px" y="0px"
	 viewBox="0 0 64 64" style="enable-background:new 0 0 64 64;" xml:space="preserve">
<style type="text/css">
	.st0{fill:none;stroke:#263238;stroke-linecap:round;stroke-linejoin:round;stroke-miterlimit:10;}
	.st1{fill:#FFD740;stroke:#263238;stroke-linecap:round;stroke-linejoin:round;stroke-miterlimit:10;}
	.st2{fill:#40C4FF;stroke:#263238;stroke-linecap:round;stroke-linejoin:round;stroke-miterlimit:10;}
	.st3{fill:#FFFFFF;stroke:#263238;stroke-linecap:round;stroke-linejoin:round;stroke-miterlimit:10;}
	.st4{fill:#FF5252;stroke:#263238;stroke-linecap:round;stroke-linejoin:round;stroke-miterlimit:10;}
	.st5{fill:#FF5252;}
	.st6{fill:#4DB6AC;stroke:#263238;stroke-linecap:round;stroke-linejoin:round;stroke-miterlimit:10;}
	.st7{fill:#FFD740;}
	.st8{fill:#40C4FF;}
	.st9{fill:#4DB6AC;}
	.st10{fill:#FFFFFF;}
	.st11{fill:#263238;stroke:#263238;stroke-linecap:round;stroke-linejoin:round;stroke-miterlimit:10;}
	.st12{fill:#4FC3F7;}
	.st13{fill:#E0E0E0;stroke:#263238;stroke-linecap:round;stroke-linejoin:round;stroke-miterlimit:10;}
</style>
<g id="Smart_Glasses">
	<g>
		<path class="st0" d="M25.7,8.2C30,3.9,37,3.9,41.3,8.2"/>
		<path class="st0" d="M28.5,11.1c2.7-2.7,7.2-2.7,9.9,0"/>
		<path class="st0" d="M31.4,13.9c1.2-1.2,3.1-1.2,4.2,0"/>
		<path class="st0" d="M0.5,26l1.2-0.4c0.6-0.2,1.1-0.7,1.3-1.3L3.5,23l0.4,1.2c0.2,0.6,0.7,1.1,1.3,1.3L6.5,26l-1.2,0.4
			c-0.6,0.2-1.1,0.7-1.3,1.3L3.5,29l-0.4-1.2c-0.2-0.6-0.7-1.1-1.3-1.3L0.5,26z"/>
		<path class="st0" d="M4.5,37c0.9-1.2,2.4-2,4-2h16c2.8,0,5,2.2,5,5v5c0,0.6-0.1,1.3-0.4,1.9L28,49.7c-1.5,3.8-5.2,6.3-9.3,6.3H8.5
			c-2.8,0-5-2.2-5-5v-2"/>
		<path class="st0" d="M58.5,56H48.3c-4.1,0-7.8-2.5-9.3-6.3l-1.1-2.8c-0.2-0.6-0.4-1.2-0.4-1.9v-5c0-2.8,2.2-5,5-5h16
			c2.8,0,5,2.2,5,5v11C63.5,53.8,61.3,56,58.5,56z"/>
		<rect x="29.5" y="40" class="st0" width="8" height="6"/>
		<path class="st2" d="M15.5,47h-14c-0.6,0-1-0.4-1-1v-6c0-0.6,0.4-1,1-1h14c0.6,0,1,0.4,1,1v6C16.5,46.6,16.1,47,15.5,47z"/>
		<g>
			<path class="st0" d="M6.2,33l10.6-17.7c0.8-1.4,2.7-1.6,3.8-0.6l3.9,3.5c0.4,0.4,0.4,1,0.1,1.4l-0.7,0.7c-0.4,0.4-1,0.4-1.4,0.1
				L20,18.2c-0.5-0.4-1.2-0.3-1.5,0.2L9.7,33"/>
		</g>
		<g>
			<path class="st0" d="M60.8,33L50.1,15.3c-0.8-1.4-2.7-1.6-3.8-0.6l-3.9,3.5c-0.4,0.4-0.4,1-0.1,1.4l0.7,0.7
				c0.4,0.4,1,0.4,1.4,0.1l2.5-2.3c0.5-0.4,1.2-0.3,1.5,0.2L57.3,33"/>
		</g>
		<path class="st0" d="M55.5,38H58c1.4,0,2.5,1.1,2.5,2.5V43"/>
		<g>
			<line class="st0" x1="52" y1="32" x2="53" y2="32"/>
			<line class="st0" x1="42" y1="32" x2="50" y2="32"/>
		</g>
		<g>
			<line class="st0" x1="12" y1="59" x2="11" y2="59"/>
			<line class="st0" x1="22" y1="59" x2="14" y2="59"/>
		</g>
	</g>
</g>
</svg>
