<?xml version="1.0" encoding="utf-8"?>
<!-- Generator: Adobe Illustrator 21.0.0, SVG Export Plug-In . SVG Version: 6.00 Build 0)  -->
<svg version="1.1" id="Layer_1" xmlns="http://www.w3.org/2000/svg" xmlns:xlink="http://www.w3.org/1999/xlink" x="0px" y="0px"
	 viewBox="0 0 64 64" style="enable-background:new 0 0 64 64;" xml:space="preserve">
<style type="text/css">
	.st0{fill:none;stroke:#263238;stroke-linecap:round;stroke-linejoin:round;stroke-miterlimit:10;}
	.st1{fill:#FFD740;stroke:#263238;stroke-linecap:round;stroke-linejoin:round;stroke-miterlimit:10;}
	.st2{fill:#40C4FF;stroke:#263238;stroke-linecap:round;stroke-linejoin:round;stroke-miterlimit:10;}
	.st3{fill:#FFFFFF;stroke:#263238;stroke-linecap:round;stroke-linejoin:round;stroke-miterlimit:10;}
	.st4{fill:#FF5252;stroke:#263238;stroke-linecap:round;stroke-linejoin:round;stroke-miterlimit:10;}
	.st5{fill:#FF5252;}
	.st6{fill:#4DB6AC;stroke:#263238;stroke-linecap:round;stroke-linejoin:round;stroke-miterlimit:10;}
	.st7{fill:#FFD740;}
	.st8{fill:#40C4FF;}
	.st9{fill:#4DB6AC;}
	.st10{fill:#FFFFFF;}
	.st11{fill:#263238;stroke:#263238;stroke-linecap:round;stroke-linejoin:round;stroke-miterlimit:10;}
	.st12{fill:#4FC3F7;}
	.st13{fill:#E0E0E0;stroke:#263238;stroke-linecap:round;stroke-linejoin:round;stroke-miterlimit:10;}
</style>
<g id="Smart_Washing_Machine">
	<g>
		<g>
			<circle class="st0" cx="30.5" cy="44" r="13"/>
			<circle class="st2" cx="30.5" cy="44" r="10"/>
			<path class="st0" d="M37.5,44c0,3.9-3.1,7-7,7"/>
			<g>
				<path class="st0" d="M47.5,63.5h-34c-2.8,0-5-2.2-5-5v-41c0-2.8,2.2-5,5-5h34c2.8,0,5,2.2,5,5v41C52.5,61.3,50.3,63.5,47.5,63.5
					z"/>
				<path class="st1" d="M52.5,24.5h-44v-7c0-2.8,2.2-5,5-5h34c2.8,0,5,2.2,5,5V24.5z"/>
				<path class="st3" d="M34.5,20.5h-8c-0.6,0-1-0.4-1-1v-2c0-0.6,0.4-1,1-1h8c0.6,0,1,0.4,1,1v2C35.5,20.1,35.1,20.5,34.5,20.5z"/>
				<circle class="st3" cx="46.5" cy="18.5" r="2"/>
				<circle class="st3" cx="40.5" cy="18.5" r="2"/>
			</g>
			<g>
				<path class="st0" d="M9.5,3.7c4.3-4.3,11.3-4.3,15.6,0"/>
				<path class="st0" d="M12.3,6.6c2.7-2.7,7.2-2.7,9.9,0"/>
				<path class="st0" d="M15.2,9.4c1.2-1.2,3.1-1.2,4.2,0"/>
			</g>
			<g>
				<g>
					<line class="st0" x1="55.5" y1="19.5" x2="55.5" y2="18.5"/>
					<line class="st0" x1="55.5" y1="40.5" x2="55.5" y2="21.5"/>
				</g>
			</g>
			<g>
				<g>
					<line class="st0" x1="5.5" y1="56.5" x2="5.5" y2="57.5"/>
					<line class="st0" x1="5.5" y1="35.5" x2="5.5" y2="54.5"/>
				</g>
			</g>
		</g>
		<path class="st0" d="M52.5,9.5l1.2-0.4c0.6-0.2,1.1-0.7,1.3-1.3l0.4-1.2l0.4,1.2c0.2,0.6,0.7,1.1,1.3,1.3l1.2,0.4l-1.2,0.4
			c-0.6,0.2-1.1,0.7-1.3,1.3l-0.4,1.2l-0.4-1.2c-0.2-0.6-0.7-1.1-1.3-1.3L52.5,9.5z"/>
	</g>
</g>
</svg>
