<?xml version="1.0" encoding="utf-8"?>
<!-- Generator: Adobe Illustrator 21.0.0, SVG Export Plug-In . SVG Version: 6.00 Build 0)  -->
<svg version="1.1" id="Layer_1" xmlns="http://www.w3.org/2000/svg" xmlns:xlink="http://www.w3.org/1999/xlink" x="0px" y="0px"
	 viewBox="0 0 64 64" style="enable-background:new 0 0 64 64;" xml:space="preserve">
<style type="text/css">
	.st0{fill:none;stroke:#263238;stroke-linecap:round;stroke-linejoin:round;stroke-miterlimit:10;}
	.st1{fill:#FFD740;stroke:#263238;stroke-linecap:round;stroke-linejoin:round;stroke-miterlimit:10;}
	.st2{fill:#40C4FF;stroke:#263238;stroke-linecap:round;stroke-linejoin:round;stroke-miterlimit:10;}
	.st3{fill:#FFFFFF;stroke:#263238;stroke-linecap:round;stroke-linejoin:round;stroke-miterlimit:10;}
	.st4{fill:#FF5252;stroke:#263238;stroke-linecap:round;stroke-linejoin:round;stroke-miterlimit:10;}
	.st5{fill:#FF5252;}
	.st6{fill:#4DB6AC;stroke:#263238;stroke-linecap:round;stroke-linejoin:round;stroke-miterlimit:10;}
	.st7{fill:#FFD740;}
	.st8{fill:#40C4FF;}
	.st9{fill:#4DB6AC;}
	.st10{fill:#FFFFFF;}
	.st11{fill:#263238;stroke:#263238;stroke-linecap:round;stroke-linejoin:round;stroke-miterlimit:10;}
	.st12{fill:#4FC3F7;}
	.st13{fill:#E0E0E0;stroke:#263238;stroke-linecap:round;stroke-linejoin:round;stroke-miterlimit:10;}
</style>
<g id="Smart_Home">
	<g>
		<g>
			<g>
				<path class="st12" d="M25.5,7.5c0-1.1-0.9-2-2-2s-2,0.9-2,2c-1.1,0-2,0.9-2,2c0,1.1,0.9,2,2,2h4c1.1,0,2-0.9,2-2
					C27.5,8.4,26.6,7.5,25.5,7.5z"/>
			</g>
		</g>
		<g>
			<path class="st0" d="M4,14.5v-12c0-1.1,0.9-2,2-2h6c1.1,0,2,0.9,2,2v12c0,1.1-0.9,2-2,2H6C4.9,16.5,4,15.6,4,14.5z"/>
			<path class="st0" d="M14,12.5H4v2c0,1.1,0.9,2,2,2h6c1.1,0,2-0.9,2-2V12.5z"/>
			<line class="st13" x1="8.5" y1="14.5" x2="9.5" y2="14.5"/>
		</g>
		<g>
			<g>
				<g>
					<circle class="st7" cx="48.5" cy="15.5" r="15"/>
				</g>
			</g>
			<path class="st0" d="M40.7,12.7c4.3-4.3,11.3-4.3,15.6,0"/>
			<path class="st0" d="M43.6,15.6c2.7-2.7,7.2-2.7,9.9,0"/>
			<path class="st0" d="M46.4,18.4c1.2-1.2,3.1-1.2,4.2,0"/>
		</g>
		<g>
			<path class="st0" d="M61.5,63.5h-59c-1.1,0-2-0.9-2-2v0c0-1.1,0.9-2,2-2h59c1.1,0,2,0.9,2,2v0C63.5,62.6,62.6,63.5,61.5,63.5z"/>
			<g>
				<polyline class="st0" points="41.5,35.5 60.5,35.5 60.5,57.5 				"/>
				<polygon class="st2" points="50,26.5 34,26.5 44.5,35.5 60.5,35.5 				"/>
				<path class="st3" d="M50.5,30h-4c-0.6,0-1-0.4-1-1v-6c0-0.6,0.4-1,1-1h4c0.6,0,1,0.4,1,1v6C51.5,29.6,51.1,30,50.5,30z"/>
				<path class="st0" d="M56.5,57.5v-10c0-1.1-0.9-2-2-2h-7c-1.1,0-2,0.9-2,2v10"/>
				<polyline class="st0" points="5.5,57.5 5.5,35.5 2.5,35.5 23.5,17.5 44.5,35.5 41.5,35.5 41.5,57.5 				"/>
				<g>
					<path class="st2" d="M44.5,37.5c-0.5,0-0.9-0.2-1.3-0.5L23.5,20.1L3.8,37C3,37.7,1.7,37.6,1,36.8C0.3,36,0.4,34.7,1.2,34l21-18
						c0.7-0.6,1.9-0.6,2.6,0l21,18c0.8,0.7,0.9,2,0.2,2.8C45.6,37.3,45.1,37.5,44.5,37.5z"/>
				</g>
				<path class="st0" d="M29.5,57.5v-8.6c0-2.4-2.1-4.4-4.8-4.4h-2.4c-2.7,0-4.8,2-4.8,4.4v8.6"/>
				<path class="st1" d="M28.5,31.5h-10c-0.6,0-1,0.4-1,1v6c0,0.6,0.4,1,1,1h10c0.6,0,1-0.4,1-1v-6C29.5,31.9,29.1,31.5,28.5,31.5z"
					/>
				<polyline class="st0" points="53.5,38.5 57.5,38.5 57.5,42.5 				"/>
			</g>
		</g>
		<g>
			<g>
				<g>
					<line class="st0" x1="8.5" y1="19.5" x2="8.5" y2="18.5"/>
					<line class="st0" x1="8.5" y1="43.9" x2="8.5" y2="21.5"/>
				</g>
			</g>
			<g>
				<g>
					<line class="st0" x1="10.5" y1="42.9" x2="10.5" y2="43.9"/>
					<line class="st0" x1="10.5" y1="18.5" x2="10.5" y2="40.9"/>
				</g>
			</g>
		</g>
	</g>
</g>
</svg>
