<?xml version="1.0" encoding="utf-8"?>
<!-- Generator: Adobe Illustrator 21.0.0, SVG Export Plug-In . SVG Version: 6.00 Build 0)  -->
<svg version="1.1" id="Layer_1" xmlns="http://www.w3.org/2000/svg" xmlns:xlink="http://www.w3.org/1999/xlink" x="0px" y="0px"
	 viewBox="0 0 64 64" style="enable-background:new 0 0 64 64;" xml:space="preserve">
<style type="text/css">
	.st0{fill:none;stroke:#263238;stroke-linecap:round;stroke-linejoin:round;stroke-miterlimit:10;}
	.st1{fill:#FFD740;stroke:#263238;stroke-linecap:round;stroke-linejoin:round;stroke-miterlimit:10;}
	.st2{fill:#40C4FF;stroke:#263238;stroke-linecap:round;stroke-linejoin:round;stroke-miterlimit:10;}
	.st3{fill:#FFFFFF;stroke:#263238;stroke-linecap:round;stroke-linejoin:round;stroke-miterlimit:10;}
	.st4{fill:#FF5252;stroke:#263238;stroke-linecap:round;stroke-linejoin:round;stroke-miterlimit:10;}
	.st5{fill:#FF5252;}
	.st6{fill:#4DB6AC;stroke:#263238;stroke-linecap:round;stroke-linejoin:round;stroke-miterlimit:10;}
	.st7{fill:#FFD740;}
	.st8{fill:#40C4FF;}
	.st9{fill:#4DB6AC;}
	.st10{fill:#FFFFFF;}
	.st11{fill:#263238;stroke:#263238;stroke-linecap:round;stroke-linejoin:round;stroke-miterlimit:10;}
	.st12{fill:#4FC3F7;}
	.st13{fill:#E0E0E0;stroke:#263238;stroke-linecap:round;stroke-linejoin:round;stroke-miterlimit:10;}
</style>
<g id="Smart_Highway">
	<g>
		<g>
			<g>
				<g>
					<polygon class="st7" points="43,13.5 35.5,13.5 35.5,30.7 46.4,30.7 					"/>
				</g>
			</g>
			<g>
				<g>
					<polygon class="st7" points="48.8,42.5 35.5,42.5 35.5,63.5 53,63.5 					"/>
				</g>
			</g>
		</g>
		<g>
			<g>
				<g>
					<polygon class="st7" points="21,13.5 17.6,30.7 28.5,30.7 28.5,13.5 					"/>
				</g>
			</g>
			<g>
				<g>
					<polygon class="st7" points="15.2,42.5 11,63.5 28.5,63.5 28.5,42.5 					"/>
				</g>
			</g>
		</g>
		<g>
			<line class="st0" x1="28.5" y1="42.5" x2="28.5" y2="63.5"/>
			<line class="st0" x1="28.5" y1="13.5" x2="28.5" y2="30.7"/>
			<line class="st0" x1="17.6" y1="30.7" x2="21" y2="13.5"/>
			<line class="st0" x1="11" y1="63.5" x2="15.2" y2="42.5"/>
		</g>
		<g>
			<line class="st0" x1="35.5" y1="42.5" x2="35.5" y2="63.5"/>
			<line class="st0" x1="35.5" y1="13.5" x2="35.5" y2="30.7"/>
			<line class="st0" x1="46.4" y1="30.7" x2="43" y2="13.5"/>
			<line class="st0" x1="53" y1="63.5" x2="48.8" y2="42.5"/>
		</g>
		<g>
			<path class="st0" d="M46.4,3.7c4.3-4.3,11.3-4.3,15.6,0"/>
			<path class="st0" d="M49.3,6.6c2.7-2.7,7.2-2.7,9.9,0"/>
			<path class="st0" d="M52.1,9.4c1.2-1.2,3.1-1.2,4.2,0"/>
		</g>
		<g>
			<g>
				<g>
					<line class="st0" x1="52.7" y1="27.5" x2="52.7" y2="28.5"/>
					<line class="st0" x1="52.7" y1="13.5" x2="52.7" y2="25.5"/>
				</g>
			</g>
			<g>
				<g>
					<line class="st0" x1="55.7" y1="14.5" x2="55.7" y2="13.5"/>
					<line class="st0" x1="55.7" y1="28.5" x2="55.7" y2="16.5"/>
				</g>
			</g>
		</g>
		<g>
			<g>
				<path class="st12" d="M12,19.5c0-1.1-0.9-2-2-2c-1.1,0-2,0.9-2,2c-1.1,0-2,0.9-2,2c0,1.1,0.9,2,2,2h4c1.1,0,2-0.9,2-2
					C14,20.4,13.1,19.5,12,19.5z"/>
			</g>
		</g>
		<g>
			<path class="st0" d="M2,33.5v6c0,0.6,0.4,1,1,1h0.5C4.9,40.5,6,41.6,6,43v3.5c0,0.6,0.4,1,1,1h2.2c0.4,0,0.8-0.3,1-0.7l1.3-4.5
				c0.3-1.1,1.3-1.8,2.4-1.8h36.2c1.1,0,2.1,0.7,2.4,1.8l1.3,4.5c0.1,0.4,0.5,0.7,1,0.7H57c0.6,0,1-0.4,1-1V43
				c0-1.4,1.1-2.5,2.5-2.5H61c0.6,0,1-0.4,1-1v-6c0-0.6-0.4-1-1-1H3C2.4,32.5,2,32.9,2,33.5z"/>
			<line class="st0" x1="59" y1="34.5" x2="59" y2="38.5"/>
		</g>
	</g>
</g>
</svg>
