<?xml version="1.0" encoding="utf-8"?>
<!-- Generator: Adobe Illustrator 21.0.0, SVG Export Plug-In . SVG Version: 6.00 Build 0)  -->
<svg version="1.1" id="Layer_1" xmlns="http://www.w3.org/2000/svg" xmlns:xlink="http://www.w3.org/1999/xlink" x="0px" y="0px"
	 viewBox="0 0 64 64" style="enable-background:new 0 0 64 64;" xml:space="preserve">
<style type="text/css">
	.st0{fill:none;stroke:#263238;stroke-linecap:round;stroke-linejoin:round;stroke-miterlimit:10;}
	.st1{fill:#FFD740;stroke:#263238;stroke-linecap:round;stroke-linejoin:round;stroke-miterlimit:10;}
	.st2{fill:#40C4FF;stroke:#263238;stroke-linecap:round;stroke-linejoin:round;stroke-miterlimit:10;}
	.st3{fill:#FFFFFF;stroke:#263238;stroke-linecap:round;stroke-linejoin:round;stroke-miterlimit:10;}
	.st4{fill:#FF5252;stroke:#263238;stroke-linecap:round;stroke-linejoin:round;stroke-miterlimit:10;}
	.st5{fill:#FF5252;}
	.st6{fill:#4DB6AC;stroke:#263238;stroke-linecap:round;stroke-linejoin:round;stroke-miterlimit:10;}
	.st7{fill:#FFD740;}
	.st8{fill:#40C4FF;}
	.st9{fill:#4DB6AC;}
	.st10{fill:#FFFFFF;}
	.st11{fill:#263238;stroke:#263238;stroke-linecap:round;stroke-linejoin:round;stroke-miterlimit:10;}
	.st12{fill:#4FC3F7;}
	.st13{fill:#E0E0E0;stroke:#263238;stroke-linecap:round;stroke-linejoin:round;stroke-miterlimit:10;}
</style>
<g id="Smart_Timer">
	<g>
		<g>
			<path class="st0" d="M25,9h10c0.6,0,1-0.4,1-1V6c0-0.6-0.4-1-1-1H25c-0.6,0-1,0.4-1,1v2C24,8.6,24.4,9,25,9z"/>
			<line class="st0" x1="27" y1="9" x2="27" y2="11"/>
			<line class="st0" x1="33" y1="11" x2="33" y2="9"/>
			<circle class="st0" cx="30" cy="34" r="21"/>
			<g>
				<g>
					<path class="st9" d="M30,19L30,19l0,6h0c5,0,9,4,9,9c0,5-4,9-9,9c-2.5,0-4.7-1-6.4-2.6l-4.2,4.2C22.1,47.3,25.9,49,30,49
						c8.3,0,15-6.7,15-15S38.3,19,30,19z"/>
				</g>
			</g>
			<polyline class="st0" points="30,18 30,34 18.7,45.3 			"/>
			<path class="st0" d="M18.4,42.8c-1.8-2.4-2.9-5.5-2.9-8.8c0-7.3,5.4-13.4,12.5-14.4"/>
			<line class="st0" x1="49.1" y1="17.7" x2="47.7" y2="19.2"/>
			<line class="st0" x1="44.8" y1="16.3" x2="46.3" y2="14.9"/>
			<path class="st0" d="M49.1,17.7l-2.8-2.8c-0.4-0.4-0.4-1,0-1.4l0.7-0.7c0.4-0.4,1-0.4,1.4,0l2.8,2.8c0.4,0.4,0.4,1,0,1.4
				l-0.7,0.7C50.1,18.1,49.5,18.1,49.1,17.7z"/>
		</g>
		<g>
			<path class="st0" d="M51,2c6.1,0,11,4.9,11,11"/>
			<path class="st0" d="M51,6c3.9,0,7,3.1,7,7"/>
			<path class="st0" d="M51,10c1.7,0,3,1.3,3,3"/>
		</g>
		<path class="st0" d="M2,34c0-12.3,8-22.8,19-26.5"/>
		<line class="st0" x1="2" y1="36" x2="2" y2="37"/>
		<path class="st0" d="M58,34c0,15.5-12.5,28-28,28"/>
		<line class="st0" x1="58" y1="31" x2="58" y2="32"/>
		<line class="st0" x1="5.6" y1="49.3" x2="9.6" y2="49.3"/>
		<line class="st0" x1="7.6" y1="47.3" x2="7.6" y2="51.3"/>
		<line class="st0" x1="12.6" y1="55.8" x2="16.6" y2="55.8"/>
		<line class="st0" x1="14.6" y1="53.8" x2="14.6" y2="57.8"/>
	</g>
</g>
</svg>
