<?xml version="1.0" encoding="utf-8"?>
<!-- Generator: Adobe Illustrator 21.0.0, SVG Export Plug-In . SVG Version: 6.00 Build 0)  -->
<svg version="1.1" id="Layer_1" xmlns="http://www.w3.org/2000/svg" xmlns:xlink="http://www.w3.org/1999/xlink" x="0px" y="0px"
	 viewBox="0 0 64 64" style="enable-background:new 0 0 64 64;" xml:space="preserve">
<style type="text/css">
	.st0{fill:none;stroke:#263238;stroke-linecap:round;stroke-linejoin:round;stroke-miterlimit:10;}
	.st1{fill:#FFD740;stroke:#263238;stroke-linecap:round;stroke-linejoin:round;stroke-miterlimit:10;}
	.st2{fill:#40C4FF;stroke:#263238;stroke-linecap:round;stroke-linejoin:round;stroke-miterlimit:10;}
	.st3{fill:#FFFFFF;stroke:#263238;stroke-linecap:round;stroke-linejoin:round;stroke-miterlimit:10;}
	.st4{fill:#FF5252;stroke:#263238;stroke-linecap:round;stroke-linejoin:round;stroke-miterlimit:10;}
	.st5{fill:#FF5252;}
	.st6{fill:#4DB6AC;stroke:#263238;stroke-linecap:round;stroke-linejoin:round;stroke-miterlimit:10;}
	.st7{fill:#FFD740;}
	.st8{fill:#40C4FF;}
	.st9{fill:#4DB6AC;}
	.st10{fill:#FFFFFF;}
	.st11{fill:#263238;stroke:#263238;stroke-linecap:round;stroke-linejoin:round;stroke-miterlimit:10;}
	.st12{fill:#4FC3F7;}
	.st13{fill:#E0E0E0;stroke:#263238;stroke-linecap:round;stroke-linejoin:round;stroke-miterlimit:10;}
</style>
<g id="Smoke_Sensor">
	<g>
		<path class="st4" d="M35.6,53.6l-0.1,0.3c-0.4,1.9-1.8,3.5-3.5,4.2l0,0l0-10.7l-4.8,8.1c-0.7,1.3-0.9,2.8-0.4,4.2
			c1.9,5,8.5,5,10.4,0c0.5-1.4,0.3-2.9-0.4-4.2L35.6,53.6z"/>
		<path class="st0" d="M23.5,50.5l-0.9,1.3c-0.7,1-0.5,2.3,0.3,3.2l0.1,0.1c0.8,0.8,1,2.2,0.3,3.2l-0.9,1.3"/>
		<path class="st0" d="M41.5,50.5l-0.9,1.3c-0.7,1-0.5,2.3,0.3,3.2l0.1,0.1c0.8,0.8,1,2.2,0.3,3.2l-0.9,1.3"/>
		<g>
			<g>
				<g>
					<circle class="st5" cx="32" cy="12.5" r="12"/>
				</g>
			</g>
			<g>
				<path class="st3" d="M32.5,15.5h-1c-0.6,0-1-0.4-1-1v-9c0-0.6,0.4-1,1-1h1c0.6,0,1,0.4,1,1v9C33.5,15.1,33.1,15.5,32.5,15.5z"/>
				<circle class="st3" cx="32" cy="19" r="1.5"/>
			</g>
		</g>
		<g>
			<path class="st0" d="M43,20.5h7.5c1.4,0,2.5,1.1,2.5,2.5v4c0,1.4-1.1,2.5-2.5,2.5h-37c-1.4,0-2.5-1.1-2.5-2.5v-4
				c0-1.4,1.1-2.5,2.5-2.5H21"/>
			<path class="st0" d="M46.5,44.5h-29c-1.4,0-2.5-1.1-2.5-2.5v-1c0-1.4,1.1-2.5,2.5-2.5h29c1.4,0,2.5,1.1,2.5,2.5v1
				C49,43.4,47.9,44.5,46.5,44.5z"/>
			<line class="st0" x1="18" y1="38.5" x2="16" y2="31.5"/>
			<line class="st0" x1="21" y1="31.5" x2="23" y2="38.5"/>
			<line class="st0" x1="29.5" y1="38.5" x2="29.5" y2="31.5"/>
			<line class="st0" x1="34.5" y1="31.5" x2="34.5" y2="38.5"/>
			<line class="st0" x1="41" y1="38.5" x2="43" y2="31.5"/>
			<line class="st0" x1="48" y1="31.5" x2="46" y2="38.5"/>
			<line class="st0" x1="50" y1="23" x2="50" y2="27"/>
		</g>
		<g>
			<g>
				<line class="st0" x1="5.5" y1="12.5" x2="15.5" y2="12.5"/>
			</g>
			<g>
				<line class="st0" x1="1.5" y1="14.5" x2="0.5" y2="14.5"/>
				<line class="st0" x1="12.5" y1="14.5" x2="3.5" y2="14.5"/>
			</g>
		</g>
		<g>
			<g>
				<line class="st0" x1="58.5" y1="12.5" x2="48.5" y2="12.5"/>
			</g>
			<g>
				<line class="st0" x1="62.5" y1="14.5" x2="63.5" y2="14.5"/>
				<line class="st0" x1="51.5" y1="14.5" x2="60.5" y2="14.5"/>
			</g>
		</g>
	</g>
</g>
</svg>
