<?xml version="1.0" encoding="utf-8"?>
<!-- Generator: Adobe Illustrator 21.0.0, SVG Export Plug-In . SVG Version: 6.00 Build 0)  -->
<svg version="1.1" id="Layer_1" xmlns="http://www.w3.org/2000/svg" xmlns:xlink="http://www.w3.org/1999/xlink" x="0px" y="0px"
	 viewBox="0 0 64 64" style="enable-background:new 0 0 64 64;" xml:space="preserve">
<style type="text/css">
	.st0{fill:none;stroke:#263238;stroke-linecap:round;stroke-linejoin:round;stroke-miterlimit:10;}
	.st1{fill:#FFD740;stroke:#263238;stroke-linecap:round;stroke-linejoin:round;stroke-miterlimit:10;}
	.st2{fill:#40C4FF;stroke:#263238;stroke-linecap:round;stroke-linejoin:round;stroke-miterlimit:10;}
	.st3{fill:#FFFFFF;stroke:#263238;stroke-linecap:round;stroke-linejoin:round;stroke-miterlimit:10;}
	.st4{fill:#FF5252;stroke:#263238;stroke-linecap:round;stroke-linejoin:round;stroke-miterlimit:10;}
	.st5{fill:#FF5252;}
	.st6{fill:#4DB6AC;stroke:#263238;stroke-linecap:round;stroke-linejoin:round;stroke-miterlimit:10;}
	.st7{fill:#FFD740;}
	.st8{fill:#40C4FF;}
	.st9{fill:#4DB6AC;}
	.st10{fill:#FFFFFF;}
	.st11{fill:#263238;stroke:#263238;stroke-linecap:round;stroke-linejoin:round;stroke-miterlimit:10;}
	.st12{fill:#4FC3F7;}
	.st13{fill:#E0E0E0;stroke:#263238;stroke-linecap:round;stroke-linejoin:round;stroke-miterlimit:10;}
</style>
<g id="Social_Media">
	<g>
		<g>
			<path class="st0" d="M55.5,17.6c-0.1-0.7-0.7-1.1-1.3-1.1l-5.2,0c-0.3,0-0.5-0.2-0.5-0.5v-3.3c0-0.8-0.6-1.4-1.4-1.4l0,0
				c-0.5,0-1,0.3-1.3,0.7L43,16.5v10l9.7,0c0.7,0,1.2-0.5,1.3-1.1c0.1-0.7-0.5-1.4-1.2-1.4l0.4,0c0.7,0,1.2-0.5,1.3-1.1
				c0.1-0.7-0.5-1.4-1.2-1.4l0.4,0c0.7,0,1.2-0.5,1.3-1.1c0.1-0.7-0.5-1.4-1.2-1.4h0.5C55,19,55.6,18.4,55.5,17.6z"/>
			<path class="st2" d="M39,26.5h3c0.6,0,1-0.4,1-1v-8c0-0.6-0.4-1-1-1h-3c-0.6,0-1,0.4-1,1v8C38,26.1,38.4,26.5,39,26.5z"/>
		</g>
		<path class="st4" d="M59,31.3l-1,1l-1-1c-1-1-2.7-1-3.8,0l0,0c-1,1-1,2.7,0,3.8l3.8,3.8c0.5,0.5,1.3,0.5,1.8,0l3.8-3.8
			c1-1,1-2.7,0-3.8l0,0C61.7,30.2,60,30.2,59,31.3z"/>
		<g>
			<path class="st0" d="M5,52V22.5C5,21.1,6.1,20,7.5,20H36"/>
			<line class="st0" x1="50" y1="28.5" x2="50" y2="52"/>
			<path class="st0" d="M47,28.5V48c0,0.6-0.4,1-1,1H9c-0.6,0-1-0.4-1-1V24c0-0.6,0.4-1,1-1h27"/>
			<path class="st0" d="M54,59H3c-1.4,0-2.5-1.1-2.5-2.5v0C0.5,55.1,1.6,54,3,54h51c1.4,0,2.5,1.1,2.5,2.5v0
				C56.5,57.9,55.4,59,54,59z"/>
			<line class="st0" x1="34.8" y1="33" x2="42.8" y2="33"/>
			<line class="st0" x1="34.8" y1="35" x2="40.3" y2="35"/>
			<circle class="st0" cx="29.8" cy="34" r="2"/>
			<path class="st1" d="M22.8,42h-9c-0.6,0-1-0.4-1-1V31c0-0.6,0.4-1,1-1h9c0.6,0,1,0.4,1,1v10C23.8,41.6,23.4,42,22.8,42z"/>
			<line class="st0" x1="27.8" y1="39.2" x2="42.8" y2="39.2"/>
			<path class="st0" d="M26,54v1c0,0.6,0.4,1,1,1h3c0.6,0,1-0.4,1-1v-1"/>
		</g>
		<path class="st0" d="M37.5,9.2l0.6-1.2c0.3-0.6,0.3-1.3,0-1.9L37.5,5l1.2,0.6c0.6,0.3,1.3,0.3,1.9,0L41.7,5l-0.6,1.2
			c-0.3,0.6-0.3,1.3,0,1.9l0.6,1.2l-1.2-0.6c-0.6-0.3-1.3-0.3-1.9,0L37.5,9.2z"/>
		<g>
			<line class="st0" x1="33" y1="14" x2="14" y2="14"/>
			<line class="st0" x1="9.5" y1="16" x2="8.5" y2="16"/>
			<line class="st0" x1="27" y1="16" x2="11.5" y2="16"/>
		</g>
	</g>
</g>
</svg>
