<?xml version="1.0" encoding="utf-8"?>
<!-- Generator: Adobe Illustrator 21.0.0, SVG Export Plug-In . SVG Version: 6.00 Build 0)  -->
<svg version="1.1" id="Layer_1" xmlns="http://www.w3.org/2000/svg" xmlns:xlink="http://www.w3.org/1999/xlink" x="0px" y="0px"
	 viewBox="0 0 64 64" style="enable-background:new 0 0 64 64;" xml:space="preserve">
<style type="text/css">
	.st0{fill:none;stroke:#263238;stroke-linecap:round;stroke-linejoin:round;stroke-miterlimit:10;}
	.st1{fill:#FFD740;stroke:#263238;stroke-linecap:round;stroke-linejoin:round;stroke-miterlimit:10;}
	.st2{fill:#40C4FF;stroke:#263238;stroke-linecap:round;stroke-linejoin:round;stroke-miterlimit:10;}
	.st3{fill:#FFFFFF;stroke:#263238;stroke-linecap:round;stroke-linejoin:round;stroke-miterlimit:10;}
	.st4{fill:#FF5252;stroke:#263238;stroke-linecap:round;stroke-linejoin:round;stroke-miterlimit:10;}
	.st5{fill:#FF5252;}
	.st6{fill:#4DB6AC;stroke:#263238;stroke-linecap:round;stroke-linejoin:round;stroke-miterlimit:10;}
	.st7{fill:#FFD740;}
	.st8{fill:#40C4FF;}
	.st9{fill:#4DB6AC;}
	.st10{fill:#FFFFFF;}
	.st11{fill:#263238;stroke:#263238;stroke-linecap:round;stroke-linejoin:round;stroke-miterlimit:10;}
	.st12{fill:#4FC3F7;}
	.st13{fill:#E0E0E0;stroke:#263238;stroke-linecap:round;stroke-linejoin:round;stroke-miterlimit:10;}
</style>
<g id="Solar_Energy">
	<g>
		<g>
			<path class="st2" d="M58.4,63.5H5.6c-1.6,0-2.8-1.5-2.4-3l4.9-23c0.2-1.2,1.3-2,2.4-2h43c1.2,0,2.2,0.8,2.4,2l4.9,23
				C61.2,62,60,63.5,58.4,63.5z"/>
			<line class="st2" x1="3.6" y1="44.5" x2="4" y2="42.5"/>
			<line class="st2" x1="1" y1="56.5" x2="3.1" y2="46.5"/>
			<line class="st2" x1="62.6" y1="54.5" x2="63" y2="56.5"/>
			<line class="st2" x1="60" y1="42.5" x2="62.1" y2="52.5"/>
			<line class="st0" x1="14.9" y1="61.5" x2="20.1" y2="37.5"/>
			<line class="st0" x1="49.1" y1="61.5" x2="43.9" y2="37.5"/>
			<line class="st0" x1="32" y1="37.5" x2="32" y2="61.5"/>
			<line class="st0" x1="7.5" y1="49.5" x2="56.5" y2="49.5"/>
		</g>
		<polygon class="st0" points="49,13.5 51.2,7 47.9,7 54.4,0.5 52.2,7 55.5,7 		"/>
		<g>
			<line class="st0" x1="8.5" y1="15.5" x2="8.5" y2="19.5"/>
			<line class="st0" x1="10.5" y1="17.5" x2="6.5" y2="17.5"/>
		</g>
		<g>
			<line class="st0" x1="55.5" y1="23.5" x2="55.5" y2="27.5"/>
			<line class="st0" x1="57.5" y1="25.5" x2="53.5" y2="25.5"/>
		</g>
		<g>
			<path class="st1" d="M23.9,33.5c-0.6-1.2-0.9-2.6-0.9-4c0-5,4-9,9-9s9,4,9,9c0,1.4-0.3,2.8-0.9,4"/>
			<g>
				<path class="st3" d="M32,18c-0.6,0-1-0.4-1-1v-5c0-0.6,0.4-1,1-1s1,0.4,1,1v5C33,17.6,32.6,18,32,18z"/>
			</g>
			<g>
				<path class="st3" d="M40.8,21.7c-0.3,0-0.5-0.1-0.7-0.3c-0.4-0.4-0.4-1,0-1.4l3.5-3.5c0.4-0.4,1-0.4,1.4,0s0.4,1,0,1.4l-3.5,3.5
					C41.4,21.6,41.1,21.7,40.8,21.7z"/>
			</g>
			<g>
				<path class="st3" d="M23.2,21.7c-0.3,0-0.5-0.1-0.7-0.3l-3.5-3.5c-0.4-0.4-0.4-1,0-1.4s1-0.4,1.4,0l3.5,3.5c0.4,0.4,0.4,1,0,1.4
					C23.7,21.6,23.4,21.7,23.2,21.7z"/>
			</g>
			<g>
				<path class="st3" d="M19.5,30.5h-5c-0.6,0-1-0.4-1-1s0.4-1,1-1h5c0.6,0,1,0.4,1,1S20.1,30.5,19.5,30.5z"/>
			</g>
			<g>
				<path class="st3" d="M49.5,30.5h-5c-0.6,0-1-0.4-1-1s0.4-1,1-1h5c0.6,0,1,0.4,1,1S50.1,30.5,49.5,30.5z"/>
			</g>
			<path class="st1" d="M32,23.5c3.3,0,6,2.7,6,6"/>
		</g>
	</g>
</g>
</svg>
