<?xml version="1.0" encoding="utf-8"?>
<!-- Generator: Adobe Illustrator 21.0.0, SVG Export Plug-In . SVG Version: 6.00 Build 0)  -->
<svg version="1.1" id="Layer_1" xmlns="http://www.w3.org/2000/svg" xmlns:xlink="http://www.w3.org/1999/xlink" x="0px" y="0px"
	 viewBox="0 0 64 64" style="enable-background:new 0 0 64 64;" xml:space="preserve">
<style type="text/css">
	.st0{fill:none;stroke:#263238;stroke-linecap:round;stroke-linejoin:round;stroke-miterlimit:10;}
	.st1{fill:#FFD740;stroke:#263238;stroke-linecap:round;stroke-linejoin:round;stroke-miterlimit:10;}
	.st2{fill:#40C4FF;stroke:#263238;stroke-linecap:round;stroke-linejoin:round;stroke-miterlimit:10;}
	.st3{fill:#FFFFFF;stroke:#263238;stroke-linecap:round;stroke-linejoin:round;stroke-miterlimit:10;}
	.st4{fill:#FF5252;stroke:#263238;stroke-linecap:round;stroke-linejoin:round;stroke-miterlimit:10;}
	.st5{fill:#FF5252;}
	.st6{fill:#4DB6AC;stroke:#263238;stroke-linecap:round;stroke-linejoin:round;stroke-miterlimit:10;}
	.st7{fill:#FFD740;}
	.st8{fill:#40C4FF;}
	.st9{fill:#4DB6AC;}
	.st10{fill:#FFFFFF;}
	.st11{fill:#263238;stroke:#263238;stroke-linecap:round;stroke-linejoin:round;stroke-miterlimit:10;}
	.st12{fill:#4FC3F7;}
	.st13{fill:#E0E0E0;stroke:#263238;stroke-linecap:round;stroke-linejoin:round;stroke-miterlimit:10;}
</style>
<g id="Tablet">
	<g>
		<g>
			<g>
				<polyline class="st7" points="51.2,32.3 51.2,54.5 21.2,54.5 21.2,14.5 51.2,14.5 51.2,20.6 				"/>
				<rect x="7.2" y="14.5" class="st2" width="14" height="40"/>
				<path class="st0" d="M51.2,20.6v-8.1c0-2.8-2.2-5-5-5h-34c-2.8,0-5,2.2-5,5v45c0,2.8,2.2,5,5,5h34c2.8,0,5-2.2,5-5V32.3"/>
				<path class="st3" d="M11.2,23.5v-4c0-0.6,0.4-1,1-1h4c0.6,0,1,0.4,1,1v4c0,0.6-0.4,1-1,1h-4C11.7,24.5,11.2,24.1,11.2,23.5z"/>
				<path class="st3" d="M11.2,33.5v-4c0-0.6,0.4-1,1-1h4c0.6,0,1,0.4,1,1v4c0,0.6-0.4,1-1,1h-4C11.7,34.5,11.2,34.1,11.2,33.5z"/>
				<path class="st3" d="M11.2,43.5v-4c0-0.6,0.4-1,1-1h4c0.6,0,1,0.4,1,1v4c0,0.6-0.4,1-1,1h-4C11.7,44.5,11.2,44.1,11.2,43.5z"/>
				<path class="st0" d="M25.2,7.5V9c0,0.6,0.5,1,1.1,1h5.7c0.6,0,1.1-0.4,1.1-1V7.5"/>
				<path class="st0" d="M32.2,60h-6c-0.6,0-1-0.4-1-1v-1c0-0.6,0.4-1,1-1h6c0.6,0,1,0.4,1,1v1C33.2,59.6,32.8,60,32.2,60z"/>
				<line class="st0" x1="7.2" y1="14.5" x2="51.2" y2="14.5"/>
				<line class="st0" x1="7.2" y1="54.5" x2="51.2" y2="54.5"/>
			</g>
			<polyline class="st0" points="43.2,17.5 48.2,17.5 48.2,22.5 			"/>
		</g>
		<g>
			<path class="st3" d="M60.5,20L33.2,47.2L28.6,49l1.8-4.6l27.2-27.2c0.4-0.4,1-0.4,1.4,0l1.4,1.4C60.8,19,60.8,19.6,60.5,20z"/>
			<line class="st3" x1="54.8" y1="20" x2="57.6" y2="22.8"/>
		</g>
		<path class="st0" d="M52.2,4.5l1.2-0.4c0.6-0.2,1.1-0.7,1.3-1.3l0.4-1.2l0.4,1.2c0.2,0.6,0.7,1.1,1.3,1.3l1.2,0.4L57,4.9
			c-0.6,0.2-1.1,0.7-1.3,1.3l-0.4,1.2l-0.4-1.2c-0.2-0.6-0.7-1.1-1.3-1.3L52.2,4.5z"/>
		<g>
			<g>
				<line class="st0" x1="3.2" y1="39.5" x2="3.2" y2="40.5"/>
				<line class="st0" x1="3.2" y1="18.5" x2="3.2" y2="37.5"/>
			</g>
		</g>
		<g>
			<g>
				<line class="st0" x1="55.2" y1="36.5" x2="55.2" y2="35.5"/>
				<line class="st0" x1="55.2" y1="57.5" x2="55.2" y2="38.5"/>
			</g>
		</g>
	</g>
</g>
</svg>
