<?xml version="1.0" encoding="utf-8"?>
<!-- Generator: Adobe Illustrator 21.0.0, SVG Export Plug-In . SVG Version: 6.00 Build 0)  -->
<svg version="1.1" id="Layer_1" xmlns="http://www.w3.org/2000/svg" xmlns:xlink="http://www.w3.org/1999/xlink" x="0px" y="0px"
	 viewBox="0 0 64 64" style="enable-background:new 0 0 64 64;" xml:space="preserve">
<style type="text/css">
	.st0{fill:none;stroke:#263238;stroke-linecap:round;stroke-linejoin:round;stroke-miterlimit:10;}
	.st1{fill:#FFD740;stroke:#263238;stroke-linecap:round;stroke-linejoin:round;stroke-miterlimit:10;}
	.st2{fill:#40C4FF;stroke:#263238;stroke-linecap:round;stroke-linejoin:round;stroke-miterlimit:10;}
	.st3{fill:#FFFFFF;stroke:#263238;stroke-linecap:round;stroke-linejoin:round;stroke-miterlimit:10;}
	.st4{fill:#FF5252;stroke:#263238;stroke-linecap:round;stroke-linejoin:round;stroke-miterlimit:10;}
	.st5{fill:#FF5252;}
	.st6{fill:#4DB6AC;stroke:#263238;stroke-linecap:round;stroke-linejoin:round;stroke-miterlimit:10;}
	.st7{fill:#FFD740;}
	.st8{fill:#40C4FF;}
	.st9{fill:#4DB6AC;}
	.st10{fill:#FFFFFF;}
	.st11{fill:#263238;stroke:#263238;stroke-linecap:round;stroke-linejoin:round;stroke-miterlimit:10;}
	.st12{fill:#4FC3F7;}
	.st13{fill:#E0E0E0;stroke:#263238;stroke-linecap:round;stroke-linejoin:round;stroke-miterlimit:10;}
</style>
<g id="Train">
	<g>
		<polyline class="st0" points="37.5,50.5 32.7,50.5 26.5,50.5 		"/>
		<g>
			<line class="st0" x1="43" y1="50.5" x2="59" y2="63.5"/>
			<line class="st0" x1="5" y1="63.5" x2="21" y2="50.5"/>
			<line class="st0" x1="19" y1="55" x2="45" y2="55"/>
			<line class="st0" x1="12" y1="60.5" x2="52" y2="60.5"/>
		</g>
		<g>
			<line class="st0" x1="14" y1="48" x2="6" y2="48"/>
			<line class="st0" x1="1.5" y1="50" x2="0.5" y2="50"/>
			<line class="st0" x1="10" y1="50" x2="3.5" y2="50"/>
		</g>
		<g>
			<line class="st0" x1="50" y1="48" x2="58" y2="48"/>
			<line class="st0" x1="62.5" y1="50" x2="63.5" y2="50"/>
			<line class="st0" x1="54" y1="50" x2="60.5" y2="50"/>
		</g>
		<polygon class="st0" points="52,12.5 54,6.5 51,6.5 57,0.5 55,6.5 58,6.5 		"/>
		<g>
			<g>
				<path class="st12" d="M6.5,32.4c0-1.1-0.9-2-2-2s-2,0.9-2,2c-1.1,0-2,0.9-2,2c0,1.1,0.9,2,2,2h4c1.1,0,2-0.9,2-2
					C8.5,33.3,7.6,32.4,6.5,32.4z"/>
			</g>
		</g>
		<g>
			<g>
				<path class="st12" d="M60,15c0-1.1-0.9-2-2-2s-2,0.9-2,2c-1.1,0-2,0.9-2,2s0.9,2,2,2h4c1.1,0,2-0.9,2-2S61.1,15,60,15z"/>
			</g>
		</g>
		<g>
			<path class="st4" d="M44,46.5H20c-3.3,0-6-2.7-6-6v-24c0-3.3,2.7-6,6-6h24c3.3,0,6,2.7,6,6v24C50,43.8,47.3,46.5,44,46.5z"/>
			<path class="st3" d="M44,30H20c-1.1,0-2-0.9-2-2V16c0-1.1,0.9-2,2-2h24c1.1,0,2,0.9,2,2v12C46,29.1,45.1,30,44,30z"/>
			<path class="st0" d="M34.9,42.5h-5.7c-1,0-1.8-0.7-2-1.6l-0.7-3.4h11l-0.7,3.4C36.6,41.8,35.8,42.5,34.9,42.5z"/>
			<line class="st0" x1="14" y1="37.5" x2="50" y2="37.5"/>
			<circle class="st1" cx="20" cy="37.4" r="3"/>
			<circle class="st1" cx="44" cy="37.4" r="3"/>
			<line class="st0" x1="40.9" y1="2.5" x2="24.9" y2="2.5"/>
			<line class="st0" x1="40.9" y1="0.5" x2="24.9" y2="0.5"/>
			<line class="st0" x1="32.9" y1="4.5" x2="32.9" y2="7.5"/>
			<path class="st0" d="M32.9,7.5c-1.7,0-3,1.3-3,3h6C35.9,8.8,34.5,7.5,32.9,7.5z"/>
			<line class="st0" x1="43" y1="17" x2="43" y2="27"/>
			<polyline class="st0" points="24.5,50.5 24.5,48.5 39.5,48.5 39.5,50.5 43,50.5 45,46.5 19,46.5 21,50.5 24.5,50.5 			"/>
		</g>
	</g>
</g>
</svg>
