<?xml version="1.0" encoding="utf-8"?>
<!-- Generator: Adobe Illustrator 21.0.0, SVG Export Plug-In . SVG Version: 6.00 Build 0)  -->
<svg version="1.1" id="Layer_1" xmlns="http://www.w3.org/2000/svg" xmlns:xlink="http://www.w3.org/1999/xlink" x="0px" y="0px"
	 viewBox="0 0 64 64" style="enable-background:new 0 0 64 64;" xml:space="preserve">
<style type="text/css">
	.st0{fill:none;stroke:#263238;stroke-linecap:round;stroke-linejoin:round;stroke-miterlimit:10;}
	.st1{fill:#FFD740;stroke:#263238;stroke-linecap:round;stroke-linejoin:round;stroke-miterlimit:10;}
	.st2{fill:#40C4FF;stroke:#263238;stroke-linecap:round;stroke-linejoin:round;stroke-miterlimit:10;}
	.st3{fill:#FFFFFF;stroke:#263238;stroke-linecap:round;stroke-linejoin:round;stroke-miterlimit:10;}
	.st4{fill:#FF5252;stroke:#263238;stroke-linecap:round;stroke-linejoin:round;stroke-miterlimit:10;}
	.st5{fill:#FF5252;}
	.st6{fill:#4DB6AC;stroke:#263238;stroke-linecap:round;stroke-linejoin:round;stroke-miterlimit:10;}
	.st7{fill:#FFD740;}
	.st8{fill:#40C4FF;}
	.st9{fill:#4DB6AC;}
	.st10{fill:#FFFFFF;}
	.st11{fill:#263238;stroke:#263238;stroke-linecap:round;stroke-linejoin:round;stroke-miterlimit:10;}
	.st12{fill:#4FC3F7;}
	.st13{fill:#E0E0E0;stroke:#263238;stroke-linecap:round;stroke-linejoin:round;stroke-miterlimit:10;}
</style>
<g id="UAV">
	<g>
		<path class="st2" d="M47.6,12.9l-8.5,8.5c-3.9,3.9-10.2,3.9-14.1,0l-8.5-8.5c-1-1-2.6-1-3.5,0l0,0c-1,1-1,2.6,0,3.5l8.5,8.5
			c3.9,3.9,3.9,10.2,0,14.1l-8.5,8.5c-1,1-1,2.6,0,3.5l0,0c1,1,2.6,1,3.5,0l8.5-8.5c3.9-3.9,10.2-3.9,14.1,0l8.5,8.5
			c1,1,2.6,1,3.5,0l0,0c1-1,1-2.6,0-3.5l-8.5-8.5c-3.9-3.9-3.9-10.2,0-14.1l8.5-8.5c1-1,1-2.6,0-3.5l0,0
			C50.1,11.9,48.5,11.9,47.6,12.9z"/>
		<circle class="st3" cx="32" cy="32" r="3"/>
		<path class="st0" d="M17.2,23.5c-1.4,0.6-3,0.9-4.7,0.9c-6.6,0-12-5.4-12-12s5.4-12,12-12s12,5.4,12,12c0,1.7-0.3,3.2-0.9,4.7"/>
		<path class="st0" d="M23.5,46.8c0.6,1.4,1,3,1,4.7c0,6.6-5.4,12-12,12s-12-5.4-12-12s5.4-12,12-12c1.7,0,3.2,0.3,4.7,0.9"/>
		<path class="st0" d="M40.5,17.2c-0.6-1.4-1-3-1-4.7c0-6.6,5.4-12,12-12s12,5.4,12,12s-5.4,12-12,12c-1.7,0-3.2-0.3-4.7-0.9"/>
		<path class="st0" d="M46.8,40.4c1.4-0.6,3-0.9,4.7-0.9c6.6,0,12,5.4,12,12s-5.4,12-12,12s-12-5.4-12-12c0-1.7,0.3-3.2,0.9-4.7"/>
		<path class="st0" d="M3.5,12.5c0-5,4-9,9-9"/>
		<path class="st0" d="M12.5,60.5c-5,0-9-4-9-9"/>
		<path class="st0" d="M51.5,3.5c5,0,9,4,9,9"/>
		<path class="st0" d="M60.5,51.5c0,5-4,9-9,9"/>
		<path class="st0" d="M6.5,12.5c0-3.3,2.7-6,6-6"/>
		<path class="st0" d="M57.5,12.5c0-3.3-2.7-6-6-6"/>
		<path class="st0" d="M57.5,51.5c0,3.3-2.7,6-6,6"/>
		<path class="st0" d="M6.5,51.5c0,3.3,2.7,6,6,6"/>
	</g>
</g>
</svg>
