<?xml version="1.0" encoding="utf-8"?>
<!-- Generator: Adobe Illustrator 21.0.0, SVG Export Plug-In . SVG Version: 6.00 Build 0)  -->
<svg version="1.1" id="Layer_1" xmlns="http://www.w3.org/2000/svg" xmlns:xlink="http://www.w3.org/1999/xlink" x="0px" y="0px"
	 viewBox="0 0 64 64" style="enable-background:new 0 0 64 64;" xml:space="preserve">
<style type="text/css">
	.st0{fill:none;stroke:#263238;stroke-linecap:round;stroke-linejoin:round;stroke-miterlimit:10;}
	.st1{fill:#FFD740;stroke:#263238;stroke-linecap:round;stroke-linejoin:round;stroke-miterlimit:10;}
	.st2{fill:#40C4FF;stroke:#263238;stroke-linecap:round;stroke-linejoin:round;stroke-miterlimit:10;}
	.st3{fill:#FFFFFF;stroke:#263238;stroke-linecap:round;stroke-linejoin:round;stroke-miterlimit:10;}
	.st4{fill:#FF5252;stroke:#263238;stroke-linecap:round;stroke-linejoin:round;stroke-miterlimit:10;}
	.st5{fill:#FF5252;}
	.st6{fill:#4DB6AC;stroke:#263238;stroke-linecap:round;stroke-linejoin:round;stroke-miterlimit:10;}
	.st7{fill:#FFD740;}
	.st8{fill:#40C4FF;}
	.st9{fill:#4DB6AC;}
	.st10{fill:#FFFFFF;}
	.st11{fill:#263238;stroke:#263238;stroke-linecap:round;stroke-linejoin:round;stroke-miterlimit:10;}
	.st12{fill:#4FC3F7;}
	.st13{fill:#E0E0E0;stroke:#263238;stroke-linecap:round;stroke-linejoin:round;stroke-miterlimit:10;}
</style>
<g id="User_Driven_Innovation">
	<g>
		<g>
			<path class="st0" d="M28.1,15.1h-6c-8.3,0-15,6.7-15,15v0.5l-4.7,6.5c-1.2,1.7,0,4,2,4h2.6v4.5c0,4.1,3.4,7.5,7.5,7.5h11.5"/>
			<path class="st0" d="M21.1,55.1v3c0,2.8,2.2,5,5,5h9c2.8,0,5-2.2,5-5l0-15.3"/>
			<line class="st0" x1="12.1" y1="30.6" x2="18.1" y2="30.6"/>
		</g>
		<g>
			<line class="st3" x1="40.1" y1="0.9" x2="40.1" y2="4.9"/>
			<g>
				<path class="st1" d="M50.1,17.9c0-6.2-5.7-11.1-12.2-9.8c-3.8,0.8-6.9,3.9-7.6,7.7c-0.7,3.4,0.4,6.5,2.4,8.7
					c1.4,1.6,2.4,3.6,2.4,5.7v0.6h10v-0.6c0-2.2,0.9-4.1,2.4-5.7C49.2,22.8,50.1,20.4,50.1,17.9z"/>
				<path class="st0" d="M40.1,10.9 M40.1,10.9c3.9,0,7,3.1,7,7"/>
				<path class="st0" d="M40.1,40.9L40.1,40.9c-2.8,0-5-2.2-5-5v-5h10v5C45.1,38.6,42.9,40.9,40.1,40.9z"/>
				<line class="st0" x1="35.1" y1="35.9" x2="45.1" y2="35.9"/>
			</g>
			<line class="st3" x1="32" y1="3.7" x2="34.1" y2="5.9"/>
			<line class="st3" x1="48.3" y1="3.7" x2="46.1" y2="5.9"/>
			<line class="st3" x1="25.6" y1="9.9" x2="29.6" y2="9.9"/>
			<line class="st3" x1="50.6" y1="9.9" x2="54.6" y2="9.9"/>
		</g>
		<g>
			<g>
				<g>
					<line class="st0" x1="45.6" y1="58.1" x2="45.6" y2="59.1"/>
					<line class="st0" x1="45.6" y1="44.1" x2="45.6" y2="56.1"/>
				</g>
			</g>
			<g>
				<g>
					<line class="st0" x1="48.6" y1="45.1" x2="48.6" y2="44.1"/>
					<line class="st0" x1="48.6" y1="59.1" x2="48.6" y2="47.1"/>
				</g>
			</g>
		</g>
		<g>
			<g>
				<line class="st0" x1="62" y1="23.9" x2="58" y2="23.9"/>
				<line class="st0" x1="60" y1="21.9" x2="60" y2="25.9"/>
			</g>
			<g>
				<line class="st0" x1="55" y1="30.4" x2="51" y2="30.4"/>
				<line class="st0" x1="53" y1="28.4" x2="53" y2="32.4"/>
			</g>
		</g>
	</g>
</g>
</svg>
