<?xml version="1.0" encoding="utf-8"?>
<!-- Generator: Adobe Illustrator 21.0.0, SVG Export Plug-In . SVG Version: 6.00 Build 0)  -->
<svg version="1.1" id="Layer_1" xmlns="http://www.w3.org/2000/svg" xmlns:xlink="http://www.w3.org/1999/xlink" x="0px" y="0px"
	 viewBox="0 0 64 64" style="enable-background:new 0 0 64 64;" xml:space="preserve">
<style type="text/css">
	.st0{fill:none;stroke:#263238;stroke-linecap:round;stroke-linejoin:round;stroke-miterlimit:10;}
	.st1{fill:#FFD740;stroke:#263238;stroke-linecap:round;stroke-linejoin:round;stroke-miterlimit:10;}
	.st2{fill:#40C4FF;stroke:#263238;stroke-linecap:round;stroke-linejoin:round;stroke-miterlimit:10;}
	.st3{fill:#FFFFFF;stroke:#263238;stroke-linecap:round;stroke-linejoin:round;stroke-miterlimit:10;}
	.st4{fill:#FF5252;stroke:#263238;stroke-linecap:round;stroke-linejoin:round;stroke-miterlimit:10;}
	.st5{fill:#FF5252;}
	.st6{fill:#4DB6AC;stroke:#263238;stroke-linecap:round;stroke-linejoin:round;stroke-miterlimit:10;}
	.st7{fill:#FFD740;}
	.st8{fill:#40C4FF;}
	.st9{fill:#4DB6AC;}
	.st10{fill:#FFFFFF;}
	.st11{fill:#263238;stroke:#263238;stroke-linecap:round;stroke-linejoin:round;stroke-miterlimit:10;}
	.st12{fill:#4FC3F7;}
	.st13{fill:#E0E0E0;stroke:#263238;stroke-linecap:round;stroke-linejoin:round;stroke-miterlimit:10;}
</style>
<g id="VR_Technology">
	<g>
		<g>
			<g>
				<circle class="st7" cx="32" cy="32" r="20"/>
			</g>
		</g>
		<g>
			<g>
				<path class="st0" d="M12.2,12.2c10.9-10.9,28.7-10.9,39.6,0"/>
				<line class="st0" x1="53.2" y1="13.6" x2="53.9" y2="14.3"/>
			</g>
			<g>
				<path class="st0" d="M51.8,51.8c-10.9,10.9-28.7,10.9-39.6,0"/>
				<line class="st0" x1="10.1" y1="49.7" x2="10.8" y2="50.4"/>
			</g>
		</g>
		<g>
			<line class="st0" x1="3.5" y1="14" x2="6.5" y2="14"/>
			<line class="st0" x1="0.5" y1="17" x2="3.5" y2="17"/>
			<line class="st0" x1="6.5" y1="17" x2="9.5" y2="17"/>
		</g>
		<g>
			<line class="st0" x1="60.5" y1="50" x2="57.5" y2="50"/>
			<line class="st0" x1="63.5" y1="47" x2="60.5" y2="47"/>
			<line class="st0" x1="57.5" y1="47" x2="54.5" y2="47"/>
		</g>
		<g>
			<path class="st3" d="M48,46h-4.6c-1.6,0-3.1-0.4-4.5-1.1l-1.8-0.9c-1.4-0.7-2.9-1.1-4.5-1.1h-1.3c-1.6,0-3.1,0.4-4.5,1.1
				l-1.8,0.9c-1.4,0.7-2.9,1.1-4.5,1.1H16c-2.8,0-5-2.2-5-5V23c0-2.8,2.2-5,5-5h32c2.8,0,5,2.2,5,5v18C53,43.8,50.8,46,48,46z"/>
			<path class="st0" d="M9,37.5H7c-0.6,0-1-0.4-1-1v-10c0-0.6,0.4-1,1-1h2"/>
			<path class="st0" d="M55,25.5h2c0.6,0,1,0.4,1,1v10c0,0.6-0.4,1-1,1h-2"/>
			<rect x="11" y="23" class="st2" width="42" height="17"/>
			<g>
				<polyline class="st0" points="27,29.5 29.8,34.5 32.5,29.5 				"/>
				<polyline class="st0" points="32.5,29.5 36.5,29.5 35,32 33.5,32 35,34.5 				"/>
			</g>
			<line class="st0" x1="14" y1="29" x2="17" y2="26"/>
			<line class="st0" x1="14" y1="32" x2="20" y2="26"/>
		</g>
	</g>
</g>
</svg>
