<?xml version="1.0" encoding="utf-8"?>
<!-- Generator: Adobe Illustrator 21.0.0, SVG Export Plug-In . SVG Version: 6.00 Build 0)  -->
<svg version="1.1" id="Layer_1" xmlns="http://www.w3.org/2000/svg" xmlns:xlink="http://www.w3.org/1999/xlink" x="0px" y="0px"
	 viewBox="0 0 64 64" style="enable-background:new 0 0 64 64;" xml:space="preserve">
<style type="text/css">
	.st0{fill:none;stroke:#263238;stroke-linecap:round;stroke-linejoin:round;stroke-miterlimit:10;}
	.st1{fill:#FFD740;stroke:#263238;stroke-linecap:round;stroke-linejoin:round;stroke-miterlimit:10;}
	.st2{fill:#40C4FF;stroke:#263238;stroke-linecap:round;stroke-linejoin:round;stroke-miterlimit:10;}
	.st3{fill:#FFFFFF;stroke:#263238;stroke-linecap:round;stroke-linejoin:round;stroke-miterlimit:10;}
	.st4{fill:#FF5252;stroke:#263238;stroke-linecap:round;stroke-linejoin:round;stroke-miterlimit:10;}
	.st5{fill:#FF5252;}
	.st6{fill:#4DB6AC;stroke:#263238;stroke-linecap:round;stroke-linejoin:round;stroke-miterlimit:10;}
	.st7{fill:#FFD740;}
	.st8{fill:#40C4FF;}
	.st9{fill:#4DB6AC;}
	.st10{fill:#FFFFFF;}
	.st11{fill:#263238;stroke:#263238;stroke-linecap:round;stroke-linejoin:round;stroke-miterlimit:10;}
	.st12{fill:#4FC3F7;}
	.st13{fill:#E0E0E0;stroke:#263238;stroke-linecap:round;stroke-linejoin:round;stroke-miterlimit:10;}
</style>
<g id="Wearable_Technology">
	<g>
		<g>
			<g>
				<line class="st0" x1="17.5" y1="15.5" x2="18.5" y2="15.5"/>
				<line class="st0" x1="7.5" y1="15.5" x2="15.5" y2="15.5"/>
			</g>
			<g>
				<line class="st0" x1="1.5" y1="17.5" x2="0.5" y2="17.5"/>
				<line class="st0" x1="11.5" y1="17.5" x2="3.5" y2="17.5"/>
			</g>
		</g>
		<g>
			<path class="st0" d="M46.1,58.5H2.5c-1.1,0-2-0.9-2-2v0c0-1.1,0.9-2,2-2h43.2"/>
			<polyline class="st0" points="45.5,20.4 32,9.5 6,30.5 12,30.5 12,52.5 			"/>
			<path class="st1" d="M38.5,30.5H26c-0.6,0-1,0.4-1,1v10c0,0.6,0.4,1,1,1h12.5c0.6,0,1-0.4,1-1v-10C39.5,30.9,39.1,30.5,38.5,30.5
				z"/>
			<line class="st1" x1="32.2" y1="30.5" x2="32.2" y2="42.5"/>
			<line class="st1" x1="25" y1="34.5" x2="39.5" y2="34.5"/>
		</g>
		<g>
			<g>
				<path class="st2" d="M61,46.5H46c-1.4,0-2.5-1.1-2.5-2.5V29c0-1.4,1.1-2.5,2.5-2.5h15c1.4,0,2.5,1.1,2.5,2.5v15
					C63.5,45.4,62.4,46.5,61,46.5z"/>
				<path class="st0" d="M59.5,51.5l-0.9,11.1c0,0.5-0.5,0.9-1,0.9h-8.2c-0.5,0-1-0.4-1-0.9l-0.9-11.1"/>
				<path class="st0" d="M59.5,49.5h-12c-0.6,0-1-0.4-1-1v-2h14v2C60.5,49.1,60.1,49.5,59.5,49.5z"/>
				<path class="st0" d="M47.5,21.5l0.9-11.1c0-0.5,0.5-0.9,1-0.9h8.2c0.5,0,1,0.4,1,0.9l0.9,11.1"/>
				<path class="st0" d="M47.5,23.5h12c0.6,0,1,0.4,1,1v2h-14v-2C46.5,23.9,46.9,23.5,47.5,23.5z"/>
				<path class="st0" d="M57.5,29.5h2c0.6,0,1,0.4,1,1v2"/>
			</g>
			<path class="st3" d="M56.3,31.7L56.3,31.7c-1.6-1.5-4-1.5-5.6,0v0c-1.3,1.3-1.6,3.3-0.7,4.9l3.4,5.8l3.4-5.8
				C57.9,35,57.6,33,56.3,31.7z M53.5,36.6c-1.1,0-2-0.9-2-2c0-1.1,0.9-2,2-2s2,0.9,2,2C55.5,35.7,54.6,36.6,53.5,36.6z"/>
		</g>
		<g>
			<g>
				<line class="st0" x1="51.7" y1="2.5" x2="47.7" y2="2.5"/>
				<line class="st0" x1="49.7" y1="0.5" x2="49.7" y2="4.5"/>
			</g>
			<g>
				<line class="st0" x1="44.7" y1="9" x2="40.7" y2="9"/>
				<line class="st0" x1="42.7" y1="7" x2="42.7" y2="11"/>
			</g>
		</g>
	</g>
</g>
</svg>
