<?xml version="1.0" encoding="utf-8"?>
<!-- Generator: Adobe Illustrator 21.0.0, SVG Export Plug-In . SVG Version: 6.00 Build 0)  -->
<svg version="1.1" id="Layer_1" xmlns="http://www.w3.org/2000/svg" xmlns:xlink="http://www.w3.org/1999/xlink" x="0px" y="0px"
	 viewBox="0 0 64 64" style="enable-background:new 0 0 64 64;" xml:space="preserve">
<style type="text/css">
	.st0{fill:none;stroke:#263238;stroke-linecap:round;stroke-linejoin:round;stroke-miterlimit:10;}
	.st1{fill:#FFD740;stroke:#263238;stroke-linecap:round;stroke-linejoin:round;stroke-miterlimit:10;}
	.st2{fill:#40C4FF;stroke:#263238;stroke-linecap:round;stroke-linejoin:round;stroke-miterlimit:10;}
	.st3{fill:#FFFFFF;stroke:#263238;stroke-linecap:round;stroke-linejoin:round;stroke-miterlimit:10;}
	.st4{fill:#FF5252;stroke:#263238;stroke-linecap:round;stroke-linejoin:round;stroke-miterlimit:10;}
	.st5{fill:#FF5252;}
	.st6{fill:#4DB6AC;stroke:#263238;stroke-linecap:round;stroke-linejoin:round;stroke-miterlimit:10;}
	.st7{fill:#FFD740;}
	.st8{fill:#40C4FF;}
	.st9{fill:#4DB6AC;}
	.st10{fill:#FFFFFF;}
	.st11{fill:#263238;stroke:#263238;stroke-linecap:round;stroke-linejoin:round;stroke-miterlimit:10;}
	.st12{fill:#4FC3F7;}
	.st13{fill:#E0E0E0;stroke:#263238;stroke-linecap:round;stroke-linejoin:round;stroke-miterlimit:10;}
</style>
<g id="Wifi">
	<g>
		<g>
			<g>
				<g>
					<line class="st0" x1="28.5" y1="30.5" x2="29.5" y2="30.5"/>
					<line class="st0" x1="14.5" y1="30.5" x2="26.5" y2="30.5"/>
				</g>
			</g>
			<g>
				<g>
					<line class="st0" x1="15.5" y1="27.5" x2="14.5" y2="27.5"/>
					<line class="st0" x1="29.5" y1="27.5" x2="17.5" y2="27.5"/>
				</g>
			</g>
		</g>
		<g>
			<g>
				<g>
					<circle class="st7" cx="45" cy="16" r="15"/>
				</g>
			</g>
			<path class="st0" d="M37.2,13.2c4.3-4.3,11.3-4.3,15.6,0"/>
			<path class="st0" d="M40.1,16.1c2.7-2.7,7.2-2.7,9.9,0"/>
			<path class="st0" d="M42.9,18.9c1.2-1.2,3.1-1.2,4.2,0"/>
		</g>
		<g>
			<path class="st0" d="M55,58H9c-2.8,0-5-2.2-5-5V43c0-2.8,2.2-5,5-5h46c2.8,0,5,2.2,5,5v10C60,55.8,57.8,58,55,58z"/>
			<circle class="st0" cx="41.5" cy="48.5" r="2"/>
			<circle class="st0" cx="48.5" cy="48.5" r="2"/>
			<path class="st2" d="M31.5,50.5h-19c-0.6,0-1-0.4-1-1v-2c0-0.6,0.4-1,1-1h19c0.6,0,1,0.4,1,1v2C32.5,50.1,32.1,50.5,31.5,50.5z"
				/>
			<g>
				<path class="st0" d="M43.5,36V23.5c0-0.8,0.7-1.5,1.5-1.5s1.5,0.7,1.5,1.5V36"/>
			</g>
			<path class="st0" d="M18,60v2c0,0.6-0.4,1-1,1h-6c-0.6,0-1-0.4-1-1v-2"/>
			<path class="st0" d="M54,60v2c0,0.6-0.4,1-1,1h-6c-0.6,0-1-0.4-1-1v-2"/>
			<path class="st0" d="M52,41h2.5c1.4,0,2.5,1.1,2.5,2.5V46"/>
		</g>
	</g>
</g>
</svg>
