<?xml version="1.0" encoding="utf-8"?>
<!-- Generator: Adobe Illustrator 21.0.0, SVG Export Plug-In . SVG Version: 6.00 Build 0)  -->
<svg version="1.1" id="Layer_1" xmlns="http://www.w3.org/2000/svg" xmlns:xlink="http://www.w3.org/1999/xlink" x="0px" y="0px"
	 viewBox="0 0 64 64" style="enable-background:new 0 0 64 64;" xml:space="preserve">
<style type="text/css">
	.st0{fill:none;stroke:#263238;stroke-linecap:round;stroke-linejoin:round;stroke-miterlimit:10;}
	.st1{fill:#FFD740;stroke:#263238;stroke-linecap:round;stroke-linejoin:round;stroke-miterlimit:10;}
	.st2{fill:#40C4FF;stroke:#263238;stroke-linecap:round;stroke-linejoin:round;stroke-miterlimit:10;}
	.st3{fill:#FFFFFF;stroke:#263238;stroke-linecap:round;stroke-linejoin:round;stroke-miterlimit:10;}
	.st4{fill:#FF5252;stroke:#263238;stroke-linecap:round;stroke-linejoin:round;stroke-miterlimit:10;}
	.st5{fill:#FF5252;}
	.st6{fill:#4DB6AC;stroke:#263238;stroke-linecap:round;stroke-linejoin:round;stroke-miterlimit:10;}
	.st7{fill:#FFD740;}
	.st8{fill:#40C4FF;}
	.st9{fill:#4DB6AC;}
	.st10{fill:#FFFFFF;}
	.st11{fill:#263238;stroke:#263238;stroke-linecap:round;stroke-linejoin:round;stroke-miterlimit:10;}
	.st12{fill:#4FC3F7;}
	.st13{fill:#E0E0E0;stroke:#263238;stroke-linecap:round;stroke-linejoin:round;stroke-miterlimit:10;}
</style>
<g id="Wireless_Mouse">
	<g>
		<g>
			<g>
				<g>
					<circle class="st7" cx="47.8" cy="15.5" r="15"/>
				</g>
			</g>
			<path class="st0" d="M40,12.7c4.3-4.3,11.3-4.3,15.6,0"/>
			<path class="st0" d="M42.8,15.6c2.7-2.7,7.2-2.7,9.9,0"/>
			<path class="st0" d="M45.6,18.4c1.2-1.2,3.1-1.2,4.2,0"/>
		</g>
		<g>
			<path class="st0" d="M40.8,55.5v-7c0-0.6,0.4-1,1-1h10c0.6,0,1,0.4,1,1v7"/>
			<path class="st2" d="M53.8,63.5h-14c-0.6,0-1-0.4-1-1v-4c0-0.6,0.4-1,1-1h14c0.6,0,1,0.4,1,1v4C54.8,63.1,54.3,63.5,53.8,63.5z"
				/>
			<line class="st0" x1="43.8" y1="50.5" x2="43.8" y2="53.5"/>
			<line class="st0" x1="49.8" y1="50.5" x2="49.8" y2="53.5"/>
		</g>
		<g>
			<g>
				<g>
					<line class="st0" x1="15.2" y1="42.5" x2="16.2" y2="42.5"/>
					<line class="st0" x1="1.2" y1="42.5" x2="13.2" y2="42.5"/>
				</g>
			</g>
			<g>
				<g>
					<line class="st0" x1="2.2" y1="39.5" x2="1.2" y2="39.5"/>
					<line class="st0" x1="16.2" y1="39.5" x2="4.2" y2="39.5"/>
				</g>
			</g>
		</g>
		<g>
			<path class="st0" d="M36.3,61.5c-2.2,1.3-4.8,2-7.5,2h-5c-8.3,0-15-6.7-15-15v-18c0-8.3,6.7-15,15-15h5c8.3,0,15,6.7,15,15v15"/>
			<path class="st0" d="M26.3,34L26.3,34c-1.4,0-2.5-1.1-2.5-2.5v-5c0-1.4,1.1-2.5,2.5-2.5h0c1.4,0,2.5,1.1,2.5,2.5v5
				C28.8,32.9,27.6,34,26.3,34z"/>
			<line class="st0" x1="21.8" y1="29" x2="10.8" y2="29"/>
			<line class="st0" x1="41.8" y1="29" x2="30.8" y2="29"/>
			<line class="st0" x1="40.8" y1="32" x2="40.8" y2="44.5"/>
		</g>
	</g>
</g>
</svg>
