<?xml version="1.0" encoding="utf-8"?>
<!-- Generator: Adobe Illustrator 21.0.0, SVG Export Plug-In . SVG Version: 6.00 Build 0)  -->
<svg version="1.1" id="Layer_1" xmlns="http://www.w3.org/2000/svg" xmlns:xlink="http://www.w3.org/1999/xlink" x="0px" y="0px"
	 viewBox="0 0 64 64" style="enable-background:new 0 0 64 64;" xml:space="preserve">
<style type="text/css">
	.st0{fill:none;stroke:#263238;stroke-linecap:round;stroke-linejoin:round;stroke-miterlimit:10;}
	.st1{fill:#FFD740;stroke:#263238;stroke-linecap:round;stroke-linejoin:round;stroke-miterlimit:10;}
	.st2{fill:#40C4FF;stroke:#263238;stroke-linecap:round;stroke-linejoin:round;stroke-miterlimit:10;}
	.st3{fill:#FFFFFF;stroke:#263238;stroke-linecap:round;stroke-linejoin:round;stroke-miterlimit:10;}
	.st4{fill:#FF5252;stroke:#263238;stroke-linecap:round;stroke-linejoin:round;stroke-miterlimit:10;}
	.st5{fill:#FF5252;}
	.st6{fill:#4DB6AC;stroke:#263238;stroke-linecap:round;stroke-linejoin:round;stroke-miterlimit:10;}
	.st7{fill:#FFD740;}
	.st8{fill:#40C4FF;}
	.st9{fill:#4DB6AC;}
	.st10{fill:#FFFFFF;}
	.st11{fill:#263238;stroke:#263238;stroke-linecap:round;stroke-linejoin:round;stroke-miterlimit:10;}
	.st12{fill:#4FC3F7;}
	.st13{fill:#E0E0E0;stroke:#263238;stroke-linecap:round;stroke-linejoin:round;stroke-miterlimit:10;}
</style>
<g id="Zero_Emission">
	<g>
		<path class="st0" d="M38.7,32.4h4.6c4.1,0,7.5-3.4,7.5-7.5v0c0-4.1-3.4-7.5-7.5-7.5H41v0c0-5-4-9-9-9h0c-5,0-9,4-9,9v0h-2.3
			c-4.1,0-7.5,3.4-7.5,7.5v0c0,4.1,3.4,7.5,7.5,7.5h4.6"/>
		<g>
			<path class="st0" d="M38,17.4c0-3.3-2.7-6-6-6"/>
		</g>
		<g>
			<g>
				<path class="st6" d="M46.1,54.8c-5.4,2.2-11.8-0.8-11.8-0.8s2.4-6.7,7.8-8.9s11.8,0.8,11.8,0.8S51.5,52.5,46.1,54.8z"/>
				<path class="st0" d="M44.1,48.9L44.1,48.9C37.4,48.9,32,54.3,32,61v0"/>
			</g>
			<g>
				<path class="st6" d="M17.9,54.8c5.4,2.2,11.8-0.8,11.8-0.8s-2.4-6.7-7.8-8.9s-11.8,0.8-11.8,0.8S12.5,52.5,17.9,54.8z"/>
				<path class="st0" d="M32,61L32,61c0-6.7-5.4-12.1-12.1-12.1h0"/>
			</g>
			<path class="st6" d="M26.7,38c0,5.9,5.3,10.6,5.3,10.6s5.3-4.7,5.3-10.6S32,27.4,32,27.4S26.7,32.1,26.7,38z"/>
			<line class="st6" x1="32" y1="38" x2="32" y2="61"/>
		</g>
		<path class="st0" d="M44.8,6L46,5.6c0.6-0.2,1.1-0.7,1.3-1.3L47.8,3l0.4,1.2c0.2,0.6,0.7,1.1,1.3,1.3L50.8,6l-1.2,0.4
			c-0.6,0.2-1.1,0.7-1.3,1.3L47.8,9l-0.4-1.2c-0.2-0.6-0.7-1.1-1.3-1.3L44.8,6z"/>
		<g>
			<g>
				<line class="st0" x1="59.2" y1="36.5" x2="60.2" y2="36.5"/>
				<line class="st0" x1="49.2" y1="36.5" x2="57.2" y2="36.5"/>
			</g>
			<g>
				<line class="st0" x1="43.2" y1="38.5" x2="42.2" y2="38.5"/>
				<line class="st0" x1="53.2" y1="38.5" x2="45.2" y2="38.5"/>
			</g>
		</g>
		<g>
			<g>
				<line class="st0" x1="4.2" y1="36.5" x2="3.2" y2="36.5"/>
				<line class="st0" x1="14.2" y1="36.5" x2="6.2" y2="36.5"/>
			</g>
			<g>
				<line class="st0" x1="20.2" y1="38.5" x2="21.2" y2="38.5"/>
				<line class="st0" x1="10.2" y1="38.5" x2="18.2" y2="38.5"/>
			</g>
		</g>
		<g>
			<g>
				<path class="st12" d="M6.8,19.4c0-1.1-0.9-2-2-2s-2,0.9-2,2c-1.1,0-2,0.9-2,2c0,1.1,0.9,2,2,2h4c1.1,0,2-0.9,2-2
					C8.8,20.3,7.9,19.4,6.8,19.4z"/>
			</g>
		</g>
		<g>
			<g>
				<path class="st12" d="M61.2,19.4c0-1.1-0.9-2-2-2s-2,0.9-2,2c-1.1,0-2,0.9-2,2c0,1.1,0.9,2,2,2h4c1.1,0,2-0.9,2-2
					C63.2,20.3,62.4,19.4,61.2,19.4z"/>
			</g>
		</g>
	</g>
</g>
</svg>
