<?xml version="1.0" encoding="utf-8"?>
<!-- Generator: Adobe Illustrator 21.1.0, SVG Export Plug-In . SVG Version: 6.00 Build 0)  -->
<svg version="1.1" id="Layer_1" xmlns="http://www.w3.org/2000/svg" xmlns:xlink="http://www.w3.org/1999/xlink" x="0px" y="0px"
	 viewBox="0 0 64 64" style="enable-background:new 0 0 64 64;" xml:space="preserve">
<style type="text/css">
	.st0{fill:#263238;}
	.st1{fill:#FFD740;}
	.st2{fill:#40C4FF;}
	.st3{fill:#FF5252;}
	.st4{fill:#4DB6AC;}
	.st5{fill:#FFFFFF;}
	.st6{fill:#37474F;}
	.st7{fill:#4FC3F7;}
</style>
<g>
	<g>
		<path class="st0" d="M54,3h-4c-0.276,0-0.5-0.224-0.5-0.5S49.724,2,50,2h4c0.276,0,0.5,0.224,0.5,0.5S54.276,3,54,3z"/>
	</g>
	<g>
		<path class="st0" d="M52,5c-0.276,0-0.5-0.224-0.5-0.5v-4C51.5,0.224,51.724,0,52,0s0.5,0.224,0.5,0.5v4C52.5,4.776,52.276,5,52,5
			z"/>
	</g>
	<g>
		<path class="st0" d="M59.5,8.5h-4C55.224,8.5,55,8.276,55,8s0.224-0.5,0.5-0.5h4C59.776,7.5,60,7.724,60,8S59.776,8.5,59.5,8.5z"
			/>
	</g>
	<g>
		<path class="st0" d="M57.5,10.5c-0.276,0-0.5-0.224-0.5-0.5V6c0-0.276,0.224-0.5,0.5-0.5S58,5.724,58,6v4
			C58,10.276,57.776,10.5,57.5,10.5z"/>
	</g>
	<g>
		<path class="st0" d="M54,44c-0.276,0-0.5-0.224-0.5-0.5v-2c0-0.276,0.224-0.5,0.5-0.5s0.5,0.224,0.5,0.5v2
			C54.5,43.776,54.276,44,54,44z"/>
	</g>
	<g>
		<path class="st0" d="M54,40c-0.276,0-0.5-0.224-0.5-0.5v-18c0-0.276,0.224-0.5,0.5-0.5s0.5,0.224,0.5,0.5v18
			C54.5,39.776,54.276,40,54,40z"/>
	</g>
	<g>
		<path class="st0" d="M29.5,49.362c-8.547,0-15.5-6.954-15.5-15.5c0-8.547,6.953-15.5,15.5-15.5S45,25.315,45,33.862
			S38.047,49.362,29.5,49.362z M29.5,19.362c-7.995,0-14.5,6.505-14.5,14.5c0,7.995,6.505,14.5,14.5,14.5
			c7.995,0,14.5-6.505,14.5-14.5S37.495,19.362,29.5,19.362z"/>
	</g>
	<g>
		<path class="st1" d="M41.5,33.862c0,6.627-5.373,12-12,12s-12-5.373-12-12c0-6.627,5.373-12,12-12
			C36.127,21.862,41.5,27.235,41.5,33.862z"/>
		<path class="st0" d="M29.5,46.362c-6.893,0-12.5-5.607-12.5-12.5c0-3.339,1.3-6.479,3.661-8.839
			c2.36-2.36,5.499-3.661,8.838-3.661H29.5c6.893,0,12.5,5.607,12.5,12.5S36.393,46.362,29.5,46.362z M29.499,22.362
			c-3.071,0-5.959,1.196-8.131,3.368C19.196,27.902,18,30.79,18,33.862c0,6.341,5.159,11.5,11.5,11.5S41,40.204,41,33.862
			S35.841,22.362,29.499,22.362L29.499,22.362z"/>
	</g>
	<g>
		<path class="st0" d="M38.5,34.362c-0.276,0-0.5-0.224-0.5-0.5c0-4.687-3.813-8.5-8.5-8.5c-0.276,0-0.5-0.224-0.5-0.5
			s0.224-0.5,0.5-0.5c5.238,0,9.5,4.262,9.5,9.5C39,34.139,38.776,34.362,38.5,34.362z"/>
	</g>
	<g>
		<path class="st0" d="M44.35,52.04c-0.128,0-0.256-0.049-0.354-0.146l-5.763-5.763c-0.102-0.102-0.155-0.243-0.146-0.387
			s0.081-0.276,0.195-0.364c1.029-0.787,1.949-1.707,2.734-2.734c0.088-0.114,0.221-0.186,0.364-0.195
			c0.146-0.006,0.285,0.044,0.387,0.146l5.763,5.763c0.195,0.195,0.195,0.512,0,0.707l-2.828,2.828
			C44.605,51.991,44.478,52.04,44.35,52.04z M39.337,45.82l5.013,5.013l2.121-2.121l-5.013-5.013
			C40.821,44.472,40.111,45.182,39.337,45.82z"/>
	</g>
	<g>
		<path class="st2" d="M47.531,48.358l-3.536,3.536c-0.391,0.391-0.391,1.024,0,1.414l9.899,9.899c0.391,0.391,1.024,0.391,1.414,0
			l3.536-3.536c0.391-0.391,0.391-1.024,0-1.414l-9.899-9.899C48.555,47.967,47.922,47.967,47.531,48.358z"/>
		<path class="st0" d="M54.603,63.999c-0.384,0-0.769-0.146-1.061-0.438l-9.899-9.899c-0.585-0.585-0.585-1.537,0-2.122l3.535-3.535
			c0.584-0.585,1.537-0.585,2.121,0l9.899,9.899c0.585,0.585,0.585,1.536,0,2.121l-3.535,3.536
			C55.371,63.853,54.986,63.999,54.603,63.999z M48.238,48.565c-0.128,0-0.256,0.048-0.354,0.146l-3.535,3.535
			c-0.195,0.195-0.195,0.512,0,0.708l9.899,9.899c0.195,0.195,0.512,0.195,0.707,0l3.535-3.536c0.195-0.195,0.195-0.512,0-0.707
			l-9.899-9.899C48.494,48.614,48.366,48.565,48.238,48.565z"/>
	</g>
	<g>
		<path class="st0" d="M46.359,59H11.5c-1.654,0-3-1.346-3-3V9c0-1.654,1.346-3,3-3h36c1.654,0,3,1.346,3,3v37.648
			c0,0.276-0.224,0.5-0.5,0.5s-0.5-0.224-0.5-0.5V9c0-1.103-0.897-2-2-2h-36c-1.103,0-2,0.897-2,2v47c0,1.103,0.897,2,2,2h34.859
			c0.276,0,0.5,0.224,0.5,0.5S46.636,59,46.359,59z"/>
	</g>
	<g>
		<path class="st0" d="M29.5,34.362c-0.096,0-0.192-0.027-0.277-0.084l-14.659-9.772l-9.71,9.71c-0.195,0.195-0.512,0.195-0.707,0
			s-0.195-0.512,0-0.707l10-10c0.169-0.168,0.432-0.195,0.631-0.062l14.659,9.772l14.71-14.71c0.195-0.195,0.512-0.195,0.707,0
			s0.195,0.512,0,0.707l-15,15C29.757,34.312,29.629,34.362,29.5,34.362z"/>
	</g>
	<g>
		<circle class="st1" cx="29.5" cy="33.862" r="2.5"/>
		<path class="st0" d="M29.5,36.862c-1.654,0-3-1.346-3-3s1.346-3,3-3s3,1.346,3,3S31.154,36.862,29.5,36.862z M29.5,31.862
			c-1.103,0-2,0.897-2,2s0.897,2,2,2s2-0.897,2-2S30.603,31.862,29.5,31.862z"/>
	</g>
	<g>
		<rect x="19" y="10.5" class="st3" width="21" height="4"/>
		<path class="st0" d="M40,15H19c-0.276,0-0.5-0.224-0.5-0.5v-4c0-0.276,0.224-0.5,0.5-0.5h21c0.276,0,0.5,0.224,0.5,0.5v4
			C40.5,14.776,40.276,15,40,15z M19.5,14h20v-3h-20V14z"/>
	</g>
</g>
</svg>
