<?xml version="1.0" encoding="utf-8"?>
<!-- Generator: Adobe Illustrator 21.1.0, SVG Export Plug-In . SVG Version: 6.00 Build 0)  -->
<svg version="1.1" id="Layer_1" xmlns="http://www.w3.org/2000/svg" xmlns:xlink="http://www.w3.org/1999/xlink" x="0px" y="0px"
	 viewBox="0 0 64 64" style="enable-background:new 0 0 64 64;" xml:space="preserve">
<style type="text/css">
	.st0{fill:#263238;}
	.st1{fill:#FFD740;}
	.st2{fill:#40C4FF;}
	.st3{fill:#FF5252;}
	.st4{fill:#4DB6AC;}
	.st5{fill:#FFFFFF;}
	.st6{fill:#37474F;}
	.st7{fill:#4FC3F7;}
</style>
<g>
	<g>
		<path class="st0" d="M35,53h-5c-0.827,0-1.5-0.673-1.5-1.5V50c0-0.276,0.224-0.5,0.5-0.5s0.5,0.224,0.5,0.5v1.5
			c0,0.276,0.225,0.5,0.5,0.5h5c0.275,0,0.5-0.224,0.5-0.5V50c0-0.276,0.224-0.5,0.5-0.5s0.5,0.224,0.5,0.5v1.5
			C36.5,52.327,35.827,53,35,53z"/>
	</g>
	<g>
		<path class="st0" d="M12,6.5H8C7.724,6.5,7.5,6.276,7.5,6S7.724,5.5,8,5.5h4c0.276,0,0.5,0.224,0.5,0.5S12.276,6.5,12,6.5z"/>
	</g>
	<g>
		<path class="st0" d="M10,8.5C9.724,8.5,9.5,8.276,9.5,8V4c0-0.276,0.224-0.5,0.5-0.5s0.5,0.224,0.5,0.5v4
			C10.5,8.276,10.276,8.5,10,8.5z"/>
	</g>
	<g>
		<path class="st0" d="M5,13H1c-0.276,0-0.5-0.224-0.5-0.5S0.724,12,1,12h4c0.276,0,0.5,0.224,0.5,0.5S5.276,13,5,13z"/>
	</g>
	<g>
		<path class="st0" d="M3,15c-0.276,0-0.5-0.224-0.5-0.5v-4C2.5,10.224,2.724,10,3,10s0.5,0.224,0.5,0.5v4C3.5,14.776,3.276,15,3,15
			z"/>
	</g>
	<g>
		<path class="st0" d="M7.5,48.5C7.224,48.5,7,48.276,7,48V16.5c0-1.654,1.346-3,3-3h45c1.654,0,3,1.346,3,3V33
			c0,0.276-0.224,0.5-0.5,0.5S57,33.276,57,33V16.5c0-1.103-0.897-2-2-2H10c-1.103,0-2,0.897-2,2V48C8,48.276,7.776,48.5,7.5,48.5z"
			/>
	</g>
	<g>
		<path class="st0" d="M34.25,59.5h-2c-0.276,0-0.5-0.224-0.5-0.5s0.224-0.5,0.5-0.5h2c0.276,0,0.5,0.224,0.5,0.5
			S34.526,59.5,34.25,59.5z"/>
	</g>
	<g>
		<path class="st0" d="M30.25,59.5h-20c-0.276,0-0.5-0.224-0.5-0.5s0.224-0.5,0.5-0.5h20c0.276,0,0.5,0.224,0.5,0.5
			S30.526,59.5,30.25,59.5z"/>
	</g>
	<g>
		<path class="st0" d="M30.5,9.5h-2C28.224,9.5,28,9.276,28,9s0.224-0.5,0.5-0.5h2C30.776,8.5,31,8.724,31,9S30.776,9.5,30.5,9.5z"
			/>
	</g>
	<g>
		<path class="st0" d="M52.5,9.5h-20C32.224,9.5,32,9.276,32,9s0.224-0.5,0.5-0.5h20C52.776,8.5,53,8.724,53,9S52.776,9.5,52.5,9.5z
			"/>
	</g>
	<g>
		<path class="st0" d="M62,60.5H50c-0.827,0-1.5-0.673-1.5-1.5V36c0-0.827,0.673-1.5,1.5-1.5h12c0.827,0,1.5,0.673,1.5,1.5v23
			C63.5,59.827,62.827,60.5,62,60.5z M50,35.5c-0.275,0-0.5,0.224-0.5,0.5v23c0,0.276,0.225,0.5,0.5,0.5h12
			c0.275,0,0.5-0.224,0.5-0.5V36c0-0.276-0.225-0.5-0.5-0.5H50z"/>
	</g>
	<g>
		<path class="st0" d="M46.5,55.5h-42c-1.654,0-3-1.346-3-3s1.346-3,3-3h42c0.276,0,0.5,0.224,0.5,0.5s-0.224,0.5-0.5,0.5h-42
			c-1.103,0-2,0.897-2,2s0.897,2,2,2h42c0.276,0,0.5,0.224,0.5,0.5S46.776,55.5,46.5,55.5z"/>
	</g>
	<g>
		<path class="st0" d="M46.5,45.5h-35c-0.827,0-1.5-0.673-1.5-1.5V18c0-0.827,0.673-1.5,1.5-1.5h42c0.827,0,1.5,0.673,1.5,1.5v15
			c0,0.276-0.224,0.5-0.5,0.5S54,33.276,54,33V18c0-0.276-0.225-0.5-0.5-0.5h-42c-0.275,0-0.5,0.224-0.5,0.5v26
			c0,0.276,0.225,0.5,0.5,0.5h35c0.276,0,0.5,0.224,0.5,0.5S46.776,45.5,46.5,45.5z"/>
	</g>
	<g>
		<path class="st0" d="M58.5,37.5h-5c-0.229,0-0.43-0.156-0.485-0.379l-0.5-2c-0.066-0.268,0.096-0.539,0.364-0.606
			c0.264-0.07,0.539,0.096,0.606,0.364l0.405,1.621h4.219l0.405-1.621c0.066-0.268,0.335-0.433,0.606-0.364
			c0.269,0.067,0.431,0.338,0.364,0.606l-0.5,2C58.93,37.344,58.729,37.5,58.5,37.5z"/>
	</g>
	<g>
		<polygon class="st1" points="32.25,40.25 21.75,28.25 25.75,22.75 38.75,22.75 42.75,28.25 		"/>
		<path class="st0" d="M32.25,40.75c-0.145,0-0.281-0.062-0.376-0.171l-10.5-12c-0.154-0.176-0.166-0.435-0.028-0.623l4-5.5
			c0.094-0.129,0.244-0.206,0.404-0.206h13c0.16,0,0.311,0.077,0.404,0.206l4,5.5c0.138,0.188,0.126,0.447-0.028,0.623l-10.5,12
			C32.531,40.688,32.395,40.75,32.25,40.75z M22.39,28.221l9.86,11.27l9.86-11.27l-3.615-4.971h-12.49L22.39,28.221z"/>
	</g>
	<g>
		<path class="st0" d="M32.25,40.75c-0.208,0-0.395-0.129-0.468-0.324l-4.5-12c-0.053-0.141-0.04-0.298,0.036-0.427l3.202-5.5
			c0.089-0.154,0.254-0.249,0.432-0.249h3.095c0.19,0,0.364,0.108,0.449,0.279l2.702,5.5c0.062,0.124,0.068,0.267,0.02,0.396
			l-4.5,12C32.645,40.621,32.458,40.75,32.25,40.75z M28.302,28.296l3.948,10.53l3.956-10.549l-2.471-5.027h-2.496L28.302,28.296z"
			/>
	</g>
	<g>
		<path class="st0" d="M42.75,28.75h-21c-0.276,0-0.5-0.224-0.5-0.5s0.224-0.5,0.5-0.5h21c0.276,0,0.5,0.224,0.5,0.5
			S43.026,28.75,42.75,28.75z"/>
	</g>
	<g>
		<path class="st0" d="M56,48.5h-5c-0.276,0-0.5-0.224-0.5-0.5v-5c0-0.276,0.224-0.5,0.5-0.5h5c0.276,0,0.5,0.224,0.5,0.5v5
			C56.5,48.276,56.276,48.5,56,48.5z M51.5,47.5h4v-4h-4V47.5z"/>
	</g>
	<g>
		<rect x="56" y="43" class="st3" width="5" height="5"/>
		<path class="st0" d="M61,48.5h-5c-0.276,0-0.5-0.224-0.5-0.5v-5c0-0.276,0.224-0.5,0.5-0.5h5c0.276,0,0.5,0.224,0.5,0.5v5
			C61.5,48.276,61.276,48.5,61,48.5z M56.5,47.5h4v-4h-4V47.5z"/>
	</g>
	<g>
		<rect x="51" y="48" class="st2" width="5" height="5"/>
		<path class="st0" d="M56,53.5h-5c-0.276,0-0.5-0.224-0.5-0.5v-5c0-0.276,0.224-0.5,0.5-0.5h5c0.276,0,0.5,0.224,0.5,0.5v5
			C56.5,53.276,56.276,53.5,56,53.5z M51.5,52.5h4v-4h-4V52.5z"/>
	</g>
	<g>
		<path class="st0" d="M61,53.5h-5c-0.276,0-0.5-0.224-0.5-0.5v-5c0-0.276,0.224-0.5,0.5-0.5h5c0.276,0,0.5,0.224,0.5,0.5v5
			C61.5,53.276,61.276,53.5,61,53.5z M56.5,52.5h4v-4h-4V52.5z"/>
	</g>
	<g>
		<path class="st0" d="M51.5,25.5c-0.276,0-0.5-0.224-0.5-0.5v-4.5h-4.5c-0.276,0-0.5-0.224-0.5-0.5s0.224-0.5,0.5-0.5h5
			c0.276,0,0.5,0.224,0.5,0.5v5C52,25.276,51.776,25.5,51.5,25.5z"/>
	</g>
</g>
</svg>
