<?xml version="1.0" encoding="utf-8"?>
<!-- Generator: Adobe Illustrator 21.1.0, SVG Export Plug-In . SVG Version: 6.00 Build 0)  -->
<svg version="1.1" id="Layer_1" xmlns="http://www.w3.org/2000/svg" xmlns:xlink="http://www.w3.org/1999/xlink" x="0px" y="0px"
	 viewBox="0 0 64 64" style="enable-background:new 0 0 64 64;" xml:space="preserve">
<style type="text/css">
	.st0{fill:#263238;}
	.st1{fill:#FFD740;}
	.st2{fill:#40C4FF;}
	.st3{fill:#FF5252;}
	.st4{fill:#4DB6AC;}
	.st5{fill:#FFFFFF;}
	.st6{fill:#37474F;}
	.st7{fill:#4FC3F7;}
</style>
<g>
	<g>
		<path class="st1" d="M20,8l0,11.602c0,6.607,5.169,12.275,11.775,12.396C38.505,32.121,44,26.702,44,20V8c0-0.552-0.448-1-1-1H21
			C20.448,7,20,7.448,20,8z"/>
		<path class="st0" d="M32.001,32.5c-0.079,0-0.157-0.001-0.236-0.002C25.002,32.374,19.5,26.589,19.5,19.603V8
			c0-0.827,0.673-1.5,1.5-1.5h22c0.827,0,1.5,0.673,1.5,1.5v12c0,3.382-1.329,6.55-3.743,8.92C38.4,31.233,35.299,32.5,32.001,32.5z
			 M21,7.5c-0.276,0-0.5,0.225-0.5,0.5v11.603c0,6.445,5.062,11.781,11.284,11.896c3.123,0.054,6.052-1.113,8.272-3.292
			C42.277,26.025,43.5,23.111,43.5,20V8c0-0.275-0.224-0.5-0.5-0.5H21z"/>
	</g>
	<g>
		<path class="st0" d="M21.102,25.5H18.5c-3.86,0-7-3.141-7-7v-7c0-1.103,0.897-2,2-2H20c0.276,0,0.5,0.224,0.5,0.5v3
			c0,0.276-0.224,0.5-0.5,0.5h-4.5v5c0,1.654,1.346,3,3,3h1v-1.495c0-0.276,0.224-0.5,0.5-0.5c0.276,0,0.5,0.224,0.5,0.5
			c0.001,1.654,0.356,3.265,1.056,4.786c0.071,0.155,0.059,0.335-0.033,0.479S21.272,25.5,21.102,25.5z M13.5,10.5
			c-0.551,0-1,0.448-1,1v7c0,3.309,2.691,6,6,6h1.847c-0.255-0.654-0.452-1.321-0.592-2H18.5c-2.206,0-4-1.794-4-4V13
			c0-0.276,0.224-0.5,0.5-0.5h4.5v-2H13.5z"/>
	</g>
	<g>
		<path class="st0" d="M45.5,25.5h-2.602c-0.17,0-0.329-0.087-0.421-0.23s-0.104-0.323-0.033-0.479
			c0.7-1.524,1.056-3.136,1.056-4.791V10c0-0.276,0.224-0.5,0.5-0.5h6.5c1.103,0,2,0.897,2,2v7C52.5,22.359,49.36,25.5,45.5,25.5z
			 M43.653,24.5H45.5c3.309,0,6-2.691,6-6v-7c0-0.552-0.449-1-1-1h-6v2H49c0.276,0,0.5,0.224,0.5,0.5v5.5c0,2.206-1.794,4-4,4
			h-1.254C44.105,23.178,43.908,23.846,43.653,24.5z M44.5,21.5h1c1.654,0,3-1.346,3-3v-5h-4V21.5z"/>
	</g>
	<g>
		<polygon class="st5" points="32,13.5 33.545,16.792 37,17.32 34.5,19.882 35.091,23.5 32,21.792 28.91,23.5 29.5,19.882 27,17.32 
			30.455,16.792 		"/>
		<path class="st0" d="M28.91,24c-0.101,0-0.202-0.03-0.288-0.091c-0.156-0.11-0.236-0.301-0.206-0.489l0.55-3.369l-2.324-2.382
			c-0.131-0.135-0.176-0.331-0.116-0.509s0.213-0.307,0.398-0.335l3.191-0.487l1.432-3.051C31.63,13.112,31.807,13,32,13l0,0
			c0.194,0,0.37,0.112,0.453,0.287l1.432,3.051l3.191,0.487c0.185,0.028,0.339,0.157,0.398,0.335s0.015,0.374-0.116,0.509
			l-2.324,2.382l0.549,3.369c0.031,0.188-0.049,0.379-0.206,0.489s-0.363,0.121-0.53,0.028L32,22.363l-2.849,1.574
			C29.077,23.979,28.993,24,28.91,24z M28.038,17.667l1.82,1.865c0.111,0.114,0.161,0.273,0.136,0.43l-0.425,2.603l2.189-1.21
			c0.15-0.084,0.333-0.084,0.483,0l2.189,1.21l-0.424-2.603c-0.025-0.156,0.025-0.315,0.136-0.43l1.82-1.865l-2.493-0.381
			c-0.165-0.025-0.306-0.131-0.377-0.281L32,14.677l-1.093,2.328c-0.071,0.15-0.212,0.256-0.377,0.281L28.038,17.667z"/>
	</g>
	<g>
		<path class="st0" d="M16,43.5c-0.215,0-0.406-0.138-0.474-0.342L14.973,41.5c-0.231-0.692-0.782-1.243-1.473-1.473l-1.659-0.553
			C11.638,39.406,11.5,39.215,11.5,39s0.138-0.406,0.342-0.475l1.658-0.553c0.691-0.229,1.242-0.78,1.473-1.473l0.553-1.658
			c0.136-0.408,0.812-0.408,0.948,0l0.553,1.658c0.231,0.692,0.782,1.243,1.473,1.473l1.659,0.553
			C20.362,38.594,20.5,38.785,20.5,39s-0.138,0.406-0.342,0.475L18.5,40.027c-0.691,0.229-1.242,0.78-1.473,1.473l-0.553,1.658
			C16.406,43.362,16.215,43.5,16,43.5z M13.581,39l0.235,0.078c0.988,0.329,1.775,1.116,2.105,2.105L16,41.419l0.079-0.235
			c0.33-0.989,1.117-1.776,2.105-2.105L18.419,39l-0.235-0.078c-0.988-0.329-1.775-1.116-2.105-2.105L16,36.581l-0.079,0.235
			c-0.33,0.989-1.117,1.776-2.105,2.105L13.581,39z"/>
	</g>
	<g>
		<path class="st0" d="M48,43.5c-0.215,0-0.406-0.138-0.474-0.342L46.973,41.5c-0.231-0.692-0.782-1.243-1.473-1.473l-1.659-0.553
			C43.638,39.406,43.5,39.215,43.5,39s0.138-0.406,0.342-0.475l1.658-0.553c0.691-0.229,1.242-0.78,1.473-1.473l0.553-1.658
			c0.136-0.408,0.812-0.408,0.948,0l0.553,1.658c0.231,0.692,0.782,1.243,1.473,1.473l1.659,0.553
			C52.362,38.594,52.5,38.785,52.5,39s-0.138,0.406-0.342,0.475L50.5,40.027c-0.691,0.229-1.242,0.78-1.473,1.473l-0.553,1.658
			C48.406,43.362,48.215,43.5,48,43.5z M45.581,39l0.235,0.078c0.988,0.329,1.775,1.116,2.105,2.105L48,41.419l0.079-0.235
			c0.33-0.989,1.117-1.776,2.105-2.105L50.419,39l-0.235-0.078c-0.988-0.329-1.775-1.116-2.105-2.105L48,36.581l-0.079,0.235
			c-0.33,0.989-1.117,1.776-2.105,2.105L45.581,39z"/>
	</g>
	<g>
		<path class="st0" d="M37,47.5H27c-0.145,0-0.282-0.062-0.377-0.172c-0.095-0.109-0.138-0.255-0.118-0.397l2.161-15.352
			c0.02-0.141,0.098-0.265,0.214-0.345c0.116-0.08,0.261-0.104,0.399-0.072c1.843,0.45,3.601,0.449,5.442,0.001
			c0.138-0.033,0.283-0.008,0.399,0.071c0.117,0.08,0.195,0.204,0.214,0.345l2.161,15.352c0.02,0.143-0.023,0.288-0.118,0.397
			C37.282,47.438,37.145,47.5,37,47.5z M27.575,46.5h8.85l-2.006-14.246c-1.633,0.326-3.204,0.326-4.838,0L27.575,46.5z"/>
	</g>
	<g>
		<path class="st1" d="M41.999,52h-20v-2.5c0-1.381,1.119-2.5,2.5-2.5h15c1.381,0,2.5,1.119,2.5,2.5V52z"/>
		<path class="st0" d="M42,52.5H22c-0.276,0-0.5-0.224-0.5-0.5v-2.5c0-1.654,1.346-3,3-3h15c1.654,0,3,1.346,3,3V52
			C42.5,52.276,42.276,52.5,42,52.5z M22.5,51.5h19v-2c0-1.103-0.897-2-2-2h-15c-1.103,0-2,0.897-2,2V51.5z"/>
	</g>
	<g>
		<path class="st1" d="M43.499,57h-23c-1.381,0-2.5-1.119-2.5-2.5v0c0-1.381,1.119-2.5,2.5-2.5h23c1.381,0,2.5,1.119,2.5,2.5v0
			C45.999,55.881,44.88,57,43.499,57z"/>
		<path class="st0" d="M43.5,57.5h-23c-1.654,0-3-1.346-3-3s1.346-3,3-3h23c1.654,0,3,1.346,3,3S45.154,57.5,43.5,57.5z M20.5,52.5
			c-1.103,0-2,0.897-2,2s0.897,2,2,2h23c1.103,0,2-0.897,2-2s-0.897-2-2-2H20.5z"/>
	</g>
	<g>
		<path class="st0" d="M48,57.5H16c-0.276,0-0.5-0.224-0.5-0.5s0.224-0.5,0.5-0.5h32c0.276,0,0.5,0.224,0.5,0.5S48.276,57.5,48,57.5
			z"/>
	</g>
	<g>
		<path class="st0" d="M14,57.5h-2c-0.276,0-0.5-0.224-0.5-0.5s0.224-0.5,0.5-0.5h2c0.276,0,0.5,0.224,0.5,0.5S14.276,57.5,14,57.5z
			"/>
	</g>
	<g>
		<path class="st0" d="M52,57.5h-2c-0.276,0-0.5-0.224-0.5-0.5s0.224-0.5,0.5-0.5h2c0.276,0,0.5,0.224,0.5,0.5S52.276,57.5,52,57.5z
			"/>
	</g>
</g>
</svg>
