<?xml version="1.0" encoding="utf-8"?>
<!-- Generator: Adobe Illustrator 21.1.0, SVG Export Plug-In . SVG Version: 6.00 Build 0)  -->
<svg version="1.1" id="Layer_1" xmlns="http://www.w3.org/2000/svg" xmlns:xlink="http://www.w3.org/1999/xlink" x="0px" y="0px"
	 viewBox="0 0 64 64" style="enable-background:new 0 0 64 64;" xml:space="preserve">
<style type="text/css">
	.st0{fill:#263238;}
	.st1{fill:#FFD740;}
	.st2{fill:#40C4FF;}
	.st3{fill:#FF5252;}
	.st4{fill:#4DB6AC;}
	.st5{fill:#FFFFFF;}
	.st6{fill:#37474F;}
	.st7{fill:#4FC3F7;}
</style>
<g>
	<g>
		<path class="st0" d="M4,32.5c-0.276,0-0.5-0.224-0.5-0.5C3.5,16.285,16.285,3.5,32,3.5c0.276,0,0.5,0.224,0.5,0.5
			S32.276,4.5,32,4.5C16.836,4.5,4.5,16.837,4.5,32C4.5,32.276,4.276,32.5,4,32.5z"/>
	</g>
	<g>
		<path class="st0" d="M35,4.5h-1c-0.276,0-0.5-0.224-0.5-0.5s0.224-0.5,0.5-0.5h1c0.276,0,0.5,0.224,0.5,0.5S35.276,4.5,35,4.5z"/>
	</g>
	<g>
		<path class="st0" d="M32,60.5c-0.276,0-0.5-0.224-0.5-0.5s0.224-0.5,0.5-0.5c15.164,0,27.5-12.337,27.5-27.5
			c0-0.276,0.224-0.5,0.5-0.5s0.5,0.224,0.5,0.5C60.5,47.715,47.715,60.5,32,60.5z"/>
	</g>
	<g>
		<path class="st0" d="M30,60.5h-1c-0.276,0-0.5-0.224-0.5-0.5s0.224-0.5,0.5-0.5h1c0.276,0,0.5,0.224,0.5,0.5S30.276,60.5,30,60.5z
			"/>
	</g>
	<g>
		<path class="st0" d="M53,6.5h-4c-0.276,0-0.5-0.224-0.5-0.5s0.224-0.5,0.5-0.5h4c0.276,0,0.5,0.224,0.5,0.5S53.276,6.5,53,6.5z"/>
	</g>
	<g>
		<path class="st0" d="M51,8.5c-0.276,0-0.5-0.224-0.5-0.5V4c0-0.276,0.224-0.5,0.5-0.5s0.5,0.224,0.5,0.5v4
			C51.5,8.276,51.276,8.5,51,8.5z"/>
	</g>
	<g>
		<path class="st0" d="M60,13h-4c-0.276,0-0.5-0.224-0.5-0.5S55.724,12,56,12h4c0.276,0,0.5,0.224,0.5,0.5S60.276,13,60,13z"/>
	</g>
	<g>
		<path class="st0" d="M58,15c-0.276,0-0.5-0.224-0.5-0.5v-4c0-0.276,0.224-0.5,0.5-0.5s0.5,0.224,0.5,0.5v4
			C58.5,14.776,58.276,15,58,15z"/>
	</g>
	<g>
		<g>
			<path class="st1" d="M25.816,14.503C22.532,14.601,20,17.466,20,20.752L20,24c-2.209,0-4,1.791-4,4
				c0,1.268,0.601,2.384,1.522,3.117C15.997,32.205,15,33.984,15,36c0,2.971,2.164,5.424,5,5.902V43.5c0,3.314,2.686,6,6,6h0
				c3.314,0,6-2.686,6-6v-23C32,17.125,29.214,14.401,25.816,14.503z"/>
			<path class="st0" d="M26,50c-3.584,0-6.5-2.916-6.5-6.5v-1.188c-2.921-0.688-5-3.277-5-6.312c0-1.888,0.831-3.682,2.25-4.911
				C15.949,30.255,15.5,29.158,15.5,28c0-2.312,1.753-4.223,4-4.473v-2.775c0-3.618,2.827-6.646,6.301-6.749h0
				c1.784-0.04,3.454,0.598,4.726,1.833C31.799,17.07,32.5,18.728,32.5,20.5v23C32.5,47.084,29.584,50,26,50z M26.001,15
				c-0.057,0-0.113,0.001-0.17,0.003h0c-2.939,0.087-5.331,2.666-5.331,5.749V24c0,0.276-0.224,0.5-0.5,0.5
				c-1.93,0-3.5,1.57-3.5,3.5c0,1.058,0.486,2.052,1.333,2.726c0.123,0.099,0.192,0.248,0.188,0.404
				c-0.004,0.157-0.082,0.303-0.209,0.395C16.364,32.558,15.5,34.23,15.5,36c0,2.688,1.927,4.962,4.583,5.409
				c0.241,0.041,0.417,0.249,0.417,0.493V43.5c0,3.032,2.467,5.5,5.5,5.5s5.5-2.468,5.5-5.5v-23c0-1.5-0.593-2.901-1.67-3.947
				C28.794,15.548,27.44,15,26.001,15z M25.816,14.503h0.01H25.816z"/>
		</g>
		<g>
			<path class="st0" d="M21,42.5c-3.584,0-6.5-2.916-6.5-6.5c0-0.276,0.224-0.5,0.5-0.5s0.5,0.224,0.5,0.5
				c0,3.032,2.467,5.5,5.5,5.5s5.5-2.468,5.5-5.5v-2c0-0.276,0.224-0.5,0.5-0.5s0.5,0.224,0.5,0.5v2
				C27.5,39.584,24.584,42.5,21,42.5z"/>
		</g>
		<g>
			<path class="st0" d="M21.815,35.003c-0.276,0-0.5-0.224-0.5-0.5v-2.427c0-1.772,0.861-3.446,2.303-4.477l0.36-0.256
				c0.524-0.374,0.837-0.983,0.837-1.628v-3.713c0-0.276,0.224-0.5,0.5-0.5s0.5,0.224,0.5,0.5v3.713c0,0.967-0.47,1.88-1.256,2.442
				l-0.36,0.256c-1.179,0.843-1.884,2.212-1.884,3.662v2.427C22.315,34.779,22.092,35.003,21.815,35.003z"/>
		</g>
	</g>
	<g>
		<g>
			<path class="st1" d="M38.184,14.503C41.468,14.601,44,17.466,44,20.752V24c2.209,0,4,1.791,4,4c0,1.268-0.601,2.384-1.522,3.117
				C48.003,32.205,49,33.984,49,36c0,2.971-2.164,5.424-5,5.902V43.5c0,3.314-2.686,6-6,6h0c-3.314,0-6-2.686-6-6v-23
				C32,17.125,34.786,14.401,38.184,14.503z"/>
			<path class="st0" d="M38,50c-3.584,0-6.5-2.916-6.5-6.5v-23c0-1.772,0.701-3.43,1.973-4.664c1.272-1.235,2.95-1.872,4.726-1.833
				c3.474,0.104,6.301,3.131,6.301,6.749v2.775c2.247,0.25,4,2.16,4,4.473c0,1.158-0.449,2.255-1.25,3.089
				c1.419,1.229,2.25,3.023,2.25,4.911c0,3.034-2.079,5.624-5,6.312V43.5C44.5,47.084,41.584,50,38,50z M37.999,15
				c-1.439,0-2.793,0.548-3.829,1.553C33.093,17.599,32.5,19,32.5,20.5v23c0,3.032,2.467,5.5,5.5,5.5s5.5-2.468,5.5-5.5v-1.598
				c0-0.244,0.176-0.452,0.417-0.493C46.573,40.962,48.5,38.688,48.5,36c0-1.77-0.864-3.442-2.312-4.476
				c-0.127-0.092-0.205-0.237-0.209-0.395c-0.004-0.156,0.066-0.306,0.188-0.404C47.014,30.052,47.5,29.058,47.5,28
				c0-1.93-1.57-3.5-3.5-3.5c-0.276,0-0.5-0.224-0.5-0.5v-3.248c0-3.083-2.392-5.662-5.331-5.749h0
				C38.112,15.001,38.056,15,37.999,15z"/>
		</g>
		<g>
			<path class="st0" d="M43,42.5c-3.584,0-6.5-2.916-6.5-6.5v-2c0-0.276,0.224-0.5,0.5-0.5s0.5,0.224,0.5,0.5v2
				c0,3.032,2.467,5.5,5.5,5.5s5.5-2.468,5.5-5.5c0-0.276,0.224-0.5,0.5-0.5s0.5,0.224,0.5,0.5C49.5,39.584,46.584,42.5,43,42.5z"/>
		</g>
		<g>
			<path class="st0" d="M42.185,35.003c-0.276,0-0.5-0.224-0.5-0.5v-2.427c0-1.45-0.705-2.819-1.884-3.662l-0.359-0.256
				c-0.787-0.562-1.257-1.476-1.257-2.442v-3.713c0-0.276,0.224-0.5,0.5-0.5s0.5,0.224,0.5,0.5v3.713
				c0,0.645,0.313,1.254,0.837,1.628l0.359,0.256c1.443,1.03,2.304,2.704,2.304,4.477v2.427
				C42.685,34.779,42.461,35.003,42.185,35.003z"/>
		</g>
	</g>
</g>
</svg>
