<?xml version="1.0" encoding="utf-8"?>
<!-- Generator: Adobe Illustrator 21.1.0, SVG Export Plug-In . SVG Version: 6.00 Build 0)  -->
<svg version="1.1" id="Layer_1" xmlns="http://www.w3.org/2000/svg" xmlns:xlink="http://www.w3.org/1999/xlink" x="0px" y="0px"
	 viewBox="0 0 64 64" style="enable-background:new 0 0 64 64;" xml:space="preserve">
<style type="text/css">
	.st0{fill:#263238;}
	.st1{fill:#FFD740;}
	.st2{fill:#40C4FF;}
	.st3{fill:#FF5252;}
	.st4{fill:#4DB6AC;}
	.st5{fill:#FFFFFF;}
	.st6{fill:#37474F;}
	.st7{fill:#4FC3F7;}
</style>
<g>
	<g>
		<path class="st0" d="M36.5,13h-9c-0.276,0-0.5-0.224-0.5-0.5s0.224-0.5,0.5-0.5h9c0.276,0,0.5,0.224,0.5,0.5S36.776,13,36.5,13z"
			/>
	</g>
	<g>
		<path class="st0" d="M36.5,17.5h-9c-0.276,0-0.5-0.224-0.5-0.5s0.224-0.5,0.5-0.5h9c0.276,0,0.5,0.224,0.5,0.5
			S36.776,17.5,36.5,17.5z"/>
	</g>
	<g>
		<path class="st0" d="M36.388,22h-8.775c-0.276,0-0.5-0.224-0.5-0.5s0.224-0.5,0.5-0.5h8.775c0.276,0,0.5,0.224,0.5,0.5
			S36.664,22,36.388,22z"/>
	</g>
	<g>
		<path class="st0" d="M36.388,38h-8.775c-0.276,0-0.5-0.224-0.5-0.5s0.224-0.5,0.5-0.5h8.775c0.276,0,0.5,0.224,0.5,0.5
			S36.664,38,36.388,38z"/>
	</g>
	<g>
		<path class="st0" d="M36.5,42.5h-9c-0.276,0-0.5-0.224-0.5-0.5s0.224-0.5,0.5-0.5h9c0.276,0,0.5,0.224,0.5,0.5
			S36.776,42.5,36.5,42.5z"/>
	</g>
	<g>
		<path class="st0" d="M29.5,49c-0.106,0-0.211-0.034-0.3-0.1l-2-1.5c-0.221-0.166-0.266-0.479-0.1-0.7s0.48-0.266,0.7-0.1
			l1.731,1.298l2.211-1.327c0.158-0.095,0.356-0.095,0.515,0l2.212,1.327L36.2,46.6c0.22-0.166,0.534-0.121,0.7,0.1
			c0.166,0.221,0.121,0.534-0.1,0.7l-2,1.5c-0.163,0.122-0.383,0.133-0.557,0.029L32,47.583l-2.243,1.346
			C29.678,48.977,29.589,49,29.5,49z"/>
	</g>
	<g>
		<path class="st1" d="M40,49c-0.829,0-1.5-0.671-1.5-1.5v-10c0-3.584-2.916-6.5-6.5-6.5c-5.238,0-9.5-4.262-9.5-9.5v-10
			c0-0.829,0.671-1.5,1.5-1.5s1.5,0.671,1.5,1.5v10c0,3.584,2.916,6.5,6.5,6.5c5.238,0,9.5,4.262,9.5,9.5v10
			C41.5,48.328,40.829,49,40,49z"/>
		<path class="st0" d="M40,49.5c-1.103,0-2-0.897-2-2v-10c0-3.309-2.691-6-6-6c-5.514,0-10-4.486-10-10v-10c0-1.103,0.897-2,2-2
			s2,0.897,2,2v10c0,3.309,2.691,6,6,6c5.514,0,10,4.486,10,10v10C42,48.603,41.103,49.5,40,49.5z M24,10.5c-0.551,0-1,0.449-1,1v10
			c0,4.962,4.038,9,9,9c3.86,0,7,3.14,7,7v10c0,0.551,0.449,1,1,1s1-0.449,1-1v-10c0-4.962-4.038-9-9-9c-3.86,0-7-3.14-7-7v-10
			C25,10.949,24.551,10.5,24,10.5z"/>
	</g>
	<g>
		<path class="st1" d="M38.731,28.195c1.71-1.719,2.769-4.086,2.769-6.696v-10c0-0.829-0.671-1.5-1.5-1.5s-1.5,0.671-1.5,1.5v10
			c0,2.123-1.028,4.006-2.607,5.193C36.914,27.062,37.867,27.569,38.731,28.195z"/>
	</g>
	<g>
		<path class="st1" d="M25.269,30.804C23.559,32.523,22.5,34.89,22.5,37.5v10c0,0.829,0.671,1.5,1.5,1.5s1.5-0.671,1.5-1.5v-10
			c0-2.123,1.028-4.006,2.607-5.193C27.086,31.938,26.133,31.431,25.269,30.804z"/>
	</g>
	<g>
		<path class="st0" d="M38.731,28.695c-0.127,0-0.255-0.048-0.353-0.146c-0.196-0.195-0.197-0.511-0.002-0.707
			C40.068,26.142,41,23.89,41,21.5v-10c0-0.551-0.449-1-1-1s-1,0.449-1,1v10c0,2.214-1.023,4.252-2.807,5.592
			c-0.22,0.166-0.533,0.122-0.7-0.1c-0.166-0.221-0.121-0.534,0.1-0.7C37.123,25.143,38,23.396,38,21.5v-10c0-1.103,0.897-2,2-2
			s2,0.897,2,2v10c0,2.656-1.035,5.159-2.914,7.048C38.988,28.646,38.86,28.695,38.731,28.695z"/>
	</g>
	<g>
		<path class="st0" d="M24,49.5c-1.103,0-2-0.897-2-2v-10c0-2.656,1.035-5.159,2.914-7.048c0.195-0.195,0.512-0.196,0.707-0.002
			c0.196,0.195,0.197,0.511,0.002,0.707C23.932,32.857,23,35.11,23,37.5v10c0,0.551,0.449,1,1,1s1-0.449,1-1v-10
			c0-2.213,1.023-4.252,2.807-5.593c0.221-0.165,0.534-0.121,0.7,0.1c0.166,0.221,0.121,0.534-0.1,0.7
			C26.877,33.857,26,35.604,26,37.5v10C26,48.603,25.103,49.5,24,49.5z"/>
	</g>
	<g>
		<path class="st0" d="M32,60.5c-0.17,0-0.329-0.087-0.421-0.23l-6.118-9.559c-0.149-0.232-0.081-0.542,0.151-0.69
			c0.232-0.15,0.542-0.081,0.69,0.151L32,59.072l5.697-8.901c0.147-0.232,0.457-0.302,0.69-0.151c0.232,0.148,0.3,0.458,0.151,0.69
			l-6.118,9.559C32.329,60.413,32.17,60.5,32,60.5z"/>
	</g>
	<g>
		<path class="st0" d="M6,55.5H4c-0.276,0-0.5-0.224-0.5-0.5s0.224-0.5,0.5-0.5h2c0.276,0,0.5,0.224,0.5,0.5S6.276,55.5,6,55.5z"/>
	</g>
	<g>
		<path class="st0" d="M20.5,55.5H8c-0.276,0-0.5-0.224-0.5-0.5s0.224-0.5,0.5-0.5h12.5c0.276,0,0.5,0.224,0.5,0.5
			S20.776,55.5,20.5,55.5z"/>
	</g>
	<g>
		<path class="st0" d="M60,55.5h-2c-0.276,0-0.5-0.224-0.5-0.5s0.224-0.5,0.5-0.5h2c0.276,0,0.5,0.224,0.5,0.5S60.276,55.5,60,55.5z
			"/>
	</g>
	<g>
		<path class="st0" d="M56,55.5H43.5c-0.276,0-0.5-0.224-0.5-0.5s0.224-0.5,0.5-0.5H56c0.276,0,0.5,0.224,0.5,0.5
			S56.276,55.5,56,55.5z"/>
	</g>
	<g>
		<path class="st0" d="M52.5,6.5h-4C48.224,6.5,48,6.276,48,6s0.224-0.5,0.5-0.5h4C52.776,5.5,53,5.724,53,6S52.776,6.5,52.5,6.5z"
			/>
	</g>
	<g>
		<path class="st0" d="M50.5,8.5C50.224,8.5,50,8.276,50,8V4c0-0.276,0.224-0.5,0.5-0.5S51,3.724,51,4v4
			C51,8.276,50.776,8.5,50.5,8.5z"/>
	</g>
	<g>
		<path class="st0" d="M59.5,13h-4c-0.276,0-0.5-0.224-0.5-0.5s0.224-0.5,0.5-0.5h4c0.276,0,0.5,0.224,0.5,0.5S59.776,13,59.5,13z"
			/>
	</g>
	<g>
		<path class="st0" d="M57.5,15c-0.276,0-0.5-0.224-0.5-0.5v-4c0-0.276,0.224-0.5,0.5-0.5s0.5,0.224,0.5,0.5v4
			C58,14.776,57.776,15,57.5,15z"/>
	</g>
	<g>
		<polygon class="st2" points="28.8,55 32,60 35.2,55 		"/>
		<path class="st0" d="M32,60.5c-0.17,0-0.329-0.087-0.421-0.23l-3.2-5c-0.099-0.154-0.105-0.349-0.018-0.51
			c0.087-0.16,0.256-0.26,0.438-0.26h6.4c0.183,0,0.351,0.1,0.438,0.26c0.088,0.161,0.081,0.356-0.018,0.51l-3.2,5
			C32.329,60.413,32.17,60.5,32,60.5z M29.713,55.5L32,59.072l2.287-3.572H29.713z"/>
	</g>
</g>
</svg>
