<?xml version="1.0" encoding="utf-8"?>
<!-- Generator: Adobe Illustrator 21.1.0, SVG Export Plug-In . SVG Version: 6.00 Build 0)  -->
<svg version="1.1" id="Layer_1" xmlns="http://www.w3.org/2000/svg" xmlns:xlink="http://www.w3.org/1999/xlink" x="0px" y="0px"
	 viewBox="0 0 64 64" style="enable-background:new 0 0 64 64;" xml:space="preserve">
<style type="text/css">
	.st0{fill:#263238;}
	.st1{fill:#FFD740;}
	.st2{fill:#40C4FF;}
	.st3{fill:#FF5252;}
	.st4{fill:#4DB6AC;}
	.st5{fill:#FFFFFF;}
	.st6{fill:#37474F;}
	.st7{fill:#4FC3F7;}
</style>
<g>
	<g>
		<path class="st0" d="M50,6.5c-0.276,0-0.5-0.224-0.5-0.5V2c0-0.276,0.224-0.5,0.5-0.5s0.5,0.224,0.5,0.5v4
			C50.5,6.276,50.276,6.5,50,6.5z"/>
	</g>
	<g>
		<path class="st0" d="M52,4.5h-4c-0.276,0-0.5-0.224-0.5-0.5s0.224-0.5,0.5-0.5h4c0.276,0,0.5,0.224,0.5,0.5S52.276,4.5,52,4.5z"/>
	</g>
	<g>
		<path class="st0" d="M55,14c-0.276,0-0.5-0.224-0.5-0.5v-4C54.5,9.224,54.724,9,55,9s0.5,0.224,0.5,0.5v4
			C55.5,13.776,55.276,14,55,14z"/>
	</g>
	<g>
		<path class="st0" d="M57,12h-4c-0.276,0-0.5-0.224-0.5-0.5S52.724,11,53,11h4c0.276,0,0.5,0.224,0.5,0.5S57.276,12,57,12z"/>
	</g>
	<g>
		<path class="st0" d="M7.5,5.5h-2C5.224,5.5,5,5.276,5,5s0.224-0.5,0.5-0.5h2C7.776,4.5,8,4.724,8,5S7.776,5.5,7.5,5.5z"/>
	</g>
	<g>
		<path class="st0" d="M28.5,5.5h-19C9.224,5.5,9,5.276,9,5s0.224-0.5,0.5-0.5h19C28.776,4.5,29,4.724,29,5S28.776,5.5,28.5,5.5z"/>
	</g>
	<g>
		<path class="st0" d="M58.5,62.5h-2c-0.276,0-0.5-0.224-0.5-0.5s0.224-0.5,0.5-0.5h2c0.276,0,0.5,0.224,0.5,0.5
			S58.776,62.5,58.5,62.5z"/>
	</g>
	<g>
		<path class="st0" d="M54.5,62.5h-19c-0.276,0-0.5-0.224-0.5-0.5s0.224-0.5,0.5-0.5h19c0.276,0,0.5,0.224,0.5,0.5
			S54.776,62.5,54.5,62.5z"/>
	</g>
	<g>
		<path class="st0" d="M50,26.5H13c-0.276,0-0.5-0.224-0.5-0.5V11.5c0-1.654,1.346-3,3-3h32c1.654,0,3,1.346,3,3V26
			C50.5,26.276,50.276,26.5,50,26.5z M13.5,25.5h36v-14c0-1.103-0.897-2-2-2h-32c-1.103,0-2,0.897-2,2V25.5z"/>
	</g>
	<g>
		<path class="st0" d="M47.5,58.5h-32c-1.654,0-3-1.346-3-3V26c0-0.276,0.224-0.5,0.5-0.5h37c0.276,0,0.5,0.224,0.5,0.5v29.5
			C50.5,57.154,49.154,58.5,47.5,58.5z M13.5,26.5v29c0,1.103,0.897,2,2,2h32c1.103,0,2-0.897,2-2v-29H13.5z"/>
	</g>
	<g>
		<path class="st2" d="M45,21.5H18c-0.552,0-1-0.448-1-1v-6c0-0.552,0.448-1,1-1h27c0.552,0,1,0.448,1,1v6
			C46,21.052,45.552,21.5,45,21.5z"/>
		<path class="st0" d="M45,22H18c-0.827,0-1.5-0.673-1.5-1.5v-6c0-0.827,0.673-1.5,1.5-1.5h27c0.827,0,1.5,0.673,1.5,1.5v6
			C46.5,21.327,45.827,22,45,22z M18,14c-0.276,0-0.5,0.225-0.5,0.5v6c0,0.275,0.224,0.5,0.5,0.5h27c0.276,0,0.5-0.225,0.5-0.5v-6
			c0-0.275-0.224-0.5-0.5-0.5H18z"/>
	</g>
	<g>
		<path class="st0" d="M21,37h-3c-0.827,0-1.5-0.673-1.5-1.5v-3c0-0.827,0.673-1.5,1.5-1.5h3c0.827,0,1.5,0.673,1.5,1.5v3
			C22.5,36.327,21.827,37,21,37z M18,32c-0.276,0-0.5,0.225-0.5,0.5v3c0,0.275,0.224,0.5,0.5,0.5h3c0.276,0,0.5-0.225,0.5-0.5v-3
			c0-0.275-0.224-0.5-0.5-0.5H18z"/>
	</g>
	<g>
		<path class="st0" d="M29,37h-3c-0.827,0-1.5-0.673-1.5-1.5v-3c0-0.827,0.673-1.5,1.5-1.5h3c0.827,0,1.5,0.673,1.5,1.5v3
			C30.5,36.327,29.827,37,29,37z M26,32c-0.276,0-0.5,0.225-0.5,0.5v3c0,0.275,0.224,0.5,0.5,0.5h3c0.276,0,0.5-0.225,0.5-0.5v-3
			c0-0.275-0.224-0.5-0.5-0.5H26z"/>
	</g>
	<g>
		<path class="st0" d="M37,37h-3c-0.827,0-1.5-0.673-1.5-1.5v-3c0-0.827,0.673-1.5,1.5-1.5h3c0.827,0,1.5,0.673,1.5,1.5v3
			C38.5,36.327,37.827,37,37,37z M34,32c-0.276,0-0.5,0.225-0.5,0.5v3c0,0.275,0.224,0.5,0.5,0.5h3c0.276,0,0.5-0.225,0.5-0.5v-3
			c0-0.275-0.224-0.5-0.5-0.5H34z"/>
	</g>
	<g>
		<path class="st3" d="M45,36.5h-3c-0.552,0-1-0.448-1-1v-3c0-0.552,0.448-1,1-1h3c0.552,0,1,0.448,1,1v3
			C46,36.052,45.552,36.5,45,36.5z"/>
		<path class="st0" d="M45,37h-3c-0.827,0-1.5-0.673-1.5-1.5v-3c0-0.827,0.673-1.5,1.5-1.5h3c0.827,0,1.5,0.673,1.5,1.5v3
			C46.5,36.327,45.827,37,45,37z M42,32c-0.276,0-0.5,0.225-0.5,0.5v3c0,0.275,0.224,0.5,0.5,0.5h3c0.276,0,0.5-0.225,0.5-0.5v-3
			c0-0.275-0.224-0.5-0.5-0.5H42z"/>
	</g>
	<g>
		<path class="st0" d="M21,45h-3c-0.827,0-1.5-0.673-1.5-1.5v-3c0-0.827,0.673-1.5,1.5-1.5h3c0.827,0,1.5,0.673,1.5,1.5v3
			C22.5,44.327,21.827,45,21,45z M18,40c-0.276,0-0.5,0.225-0.5,0.5v3c0,0.275,0.224,0.5,0.5,0.5h3c0.276,0,0.5-0.225,0.5-0.5v-3
			c0-0.275-0.224-0.5-0.5-0.5H18z"/>
	</g>
	<g>
		<path class="st0" d="M29,45h-3c-0.827,0-1.5-0.673-1.5-1.5v-3c0-0.827,0.673-1.5,1.5-1.5h3c0.827,0,1.5,0.673,1.5,1.5v3
			C30.5,44.327,29.827,45,29,45z M26,40c-0.276,0-0.5,0.225-0.5,0.5v3c0,0.275,0.224,0.5,0.5,0.5h3c0.276,0,0.5-0.225,0.5-0.5v-3
			c0-0.275-0.224-0.5-0.5-0.5H26z"/>
	</g>
	<g>
		<path class="st0" d="M37,45h-3c-0.827,0-1.5-0.673-1.5-1.5v-3c0-0.827,0.673-1.5,1.5-1.5h3c0.827,0,1.5,0.673,1.5,1.5v3
			C38.5,44.327,37.827,45,37,45z M34,40c-0.276,0-0.5,0.225-0.5,0.5v3c0,0.275,0.224,0.5,0.5,0.5h3c0.276,0,0.5-0.225,0.5-0.5v-3
			c0-0.275-0.224-0.5-0.5-0.5H34z"/>
	</g>
	<g>
		<path class="st0" d="M21,53h-3c-0.827,0-1.5-0.673-1.5-1.5v-3c0-0.827,0.673-1.5,1.5-1.5h3c0.827,0,1.5,0.673,1.5,1.5v3
			C22.5,52.327,21.827,53,21,53z M18,48c-0.276,0-0.5,0.225-0.5,0.5v3c0,0.275,0.224,0.5,0.5,0.5h3c0.276,0,0.5-0.225,0.5-0.5v-3
			c0-0.275-0.224-0.5-0.5-0.5H18z"/>
	</g>
	<g>
		<path class="st0" d="M29,53h-3c-0.827,0-1.5-0.673-1.5-1.5v-3c0-0.827,0.673-1.5,1.5-1.5h3c0.827,0,1.5,0.673,1.5,1.5v3
			C30.5,52.327,29.827,53,29,53z M26,48c-0.276,0-0.5,0.225-0.5,0.5v3c0,0.275,0.224,0.5,0.5,0.5h3c0.276,0,0.5-0.225,0.5-0.5v-3
			c0-0.275-0.224-0.5-0.5-0.5H26z"/>
	</g>
	<g>
		<path class="st0" d="M37,53h-3c-0.827,0-1.5-0.673-1.5-1.5v-3c0-0.827,0.673-1.5,1.5-1.5h3c0.827,0,1.5,0.673,1.5,1.5v3
			C38.5,52.327,37.827,53,37,53z M34,48c-0.276,0-0.5,0.225-0.5,0.5v3c0,0.275,0.224,0.5,0.5,0.5h3c0.276,0,0.5-0.225,0.5-0.5v-3
			c0-0.275-0.224-0.5-0.5-0.5H34z"/>
	</g>
	<g>
		<path class="st0" d="M45,53h-3c-0.827,0-1.5-0.673-1.5-1.5v-11c0-0.827,0.673-1.5,1.5-1.5h3c0.827,0,1.5,0.673,1.5,1.5v11
			C46.5,52.327,45.827,53,45,53z M42,40c-0.276,0-0.5,0.225-0.5,0.5v11c0,0.275,0.224,0.5,0.5,0.5h3c0.276,0,0.5-0.225,0.5-0.5v-11
			c0-0.275-0.224-0.5-0.5-0.5H42z"/>
	</g>
	<g>
		<path class="st0" d="M42,20h-0.5c-0.827,0-1.5-0.673-1.5-1.5v-2c0-0.827,0.673-1.5,1.5-1.5H42c0.827,0,1.5,0.673,1.5,1.5v2
			C43.5,19.327,42.827,20,42,20z M41.5,16c-0.276,0-0.5,0.225-0.5,0.5v2c0,0.275,0.224,0.5,0.5,0.5H42c0.276,0,0.5-0.225,0.5-0.5v-2
			c0-0.275-0.224-0.5-0.5-0.5H41.5z"/>
	</g>
</g>
</svg>
