<?xml version="1.0" encoding="utf-8"?>
<!-- Generator: Adobe Illustrator 21.1.0, SVG Export Plug-In . SVG Version: 6.00 Build 0)  -->
<svg version="1.1" id="Layer_1" xmlns="http://www.w3.org/2000/svg" xmlns:xlink="http://www.w3.org/1999/xlink" x="0px" y="0px"
	 viewBox="0 0 64 64" style="enable-background:new 0 0 64 64;" xml:space="preserve">
<style type="text/css">
	.st0{fill:#263238;}
	.st1{fill:#FFD740;}
	.st2{fill:#40C4FF;}
	.st3{fill:#FF5252;}
	.st4{fill:#4DB6AC;}
	.st5{fill:#FFFFFF;}
	.st6{fill:#37474F;}
	.st7{fill:#4FC3F7;}
</style>
<g>
	<g>
		<path class="st0" d="M36.816,60.5c-1.82,0-3.652-0.473-5.306-1.441l-5.493-3.22c-1.456-0.854-3.117-1.305-4.804-1.305h-2.785
			c-0.276,0-0.5-0.224-0.5-0.5s0.224-0.5,0.5-0.5h2.785c1.864,0,3.7,0.498,5.31,1.441l5.493,3.22
			c3.728,2.188,8.466,1.578,11.521-1.478l10.446-10.446c0.78-0.78,0.78-2.049,0-2.829c-0.756-0.756-2.072-0.756-2.828,0
			l-4.242,4.243c-0.195,0.195-0.512,0.195-0.707,0s-0.195-0.512,0-0.707l4.242-4.243c1.133-1.134,3.109-1.132,4.242,0
			c1.17,1.17,1.17,3.073,0,4.243L44.245,57.425C42.223,59.447,39.533,60.5,36.816,60.5z"/>
	</g>
	<g>
		<path class="st2" d="M8.928,41.034v14.5c0,0.552,0.448,1,1,1h5.5c0.552,0,1-0.448,1-1v-14.5c0-0.552-0.448-1-1-1h-5.5
			C9.376,40.034,8.928,40.482,8.928,41.034z"/>
		<path class="st0" d="M15.429,57.034h-5.5c-0.827,0-1.5-0.673-1.5-1.5v-14.5c0-0.827,0.673-1.5,1.5-1.5h5.5
			c0.827,0,1.5,0.673,1.5,1.5v14.5C16.929,56.361,16.256,57.034,15.429,57.034z M9.929,40.534c-0.275,0-0.5,0.225-0.5,0.5v14.5
			c0,0.275,0.225,0.5,0.5,0.5h5.5c0.275,0,0.5-0.225,0.5-0.5v-14.5c0-0.275-0.225-0.5-0.5-0.5H9.929z"/>
	</g>
	<g>
		<path class="st0" d="M41.429,52.034h-6.5c-0.276,0-0.5-0.224-0.5-0.5s0.224-0.5,0.5-0.5h6.5c1.103,0,2-0.897,2-2s-0.897-2-2-2h-7
			c-0.061,0-0.121-0.011-0.178-0.033l-7.921-3.017c-1.654-0.631-3.391-0.95-5.162-0.95h-2.739c-0.276,0-0.5-0.224-0.5-0.5
			s0.224-0.5,0.5-0.5h2.739c1.894,0,3.75,0.342,5.518,1.017l7.835,2.983h6.908c1.654,0,3,1.346,3,3S43.083,52.034,41.429,52.034z"/>
	</g>
	<g>
		<path class="st3" d="M31.999,9.059L31.999,9.059L31.999,9.059c-2.745-2.745-7.196-2.745-9.941,0l0,0
			c-2.745,2.745-2.745,7.196,0,9.941l9.941,9.941L41.941,19c2.745-2.745,2.745-7.196,0-9.941l0,0
			C39.195,6.314,34.745,6.314,31.999,9.059z"/>
		<path class="st0" d="M31.999,29.441c-0.133,0-0.26-0.053-0.354-0.146l-9.94-9.941c-2.936-2.936-2.936-7.712,0-10.647
			c2.82-2.82,7.338-2.932,10.294-0.332c2.954-2.6,7.474-2.488,10.295,0.332c2.936,2.936,2.936,7.712,0,10.647l-9.941,9.941
			C32.259,29.389,32.132,29.441,31.999,29.441z M27.028,7.504c-1.672,0-3.344,0.637-4.616,1.909c-2.546,2.546-2.546,6.688,0,9.233
			l9.587,9.588l9.588-9.588c2.546-2.546,2.546-6.688,0-9.233c-2.547-2.545-6.688-2.545-9.234,0c-0.195,0.195-0.512,0.195-0.707,0
			C30.373,8.141,28.701,7.504,27.028,7.504z"/>
	</g>
	<g>
		<path class="st3" d="M42.499,28.515L42.499,28.515L42.499,28.515c-1.373-1.373-3.598-1.373-4.971,0l0,0
			c-1.373,1.373-1.373,3.598,0,4.971l4.971,4.971l4.971-4.971c1.373-1.373,1.373-3.598,0-4.971l0,0
			C46.097,27.142,43.872,27.142,42.499,28.515z"/>
		<path class="st0" d="M42.499,38.956c-0.133,0-0.26-0.053-0.354-0.146l-4.97-4.971c-0.759-0.758-1.177-1.766-1.177-2.839
			c0-1.072,0.418-2.08,1.177-2.839c1.453-1.451,3.751-1.557,5.323-0.314c1.576-1.244,3.874-1.137,5.324,0.314
			c0.759,0.759,1.176,1.767,1.176,2.839c0,1.073-0.417,2.081-1.176,2.839l-4.971,4.971C42.759,38.903,42.632,38.956,42.499,38.956z
			 M40.014,27.985c-0.805,0-1.562,0.313-2.131,0.883S36.999,30.195,36.999,31c0,0.806,0.314,1.562,0.884,2.132l4.616,4.617
			l4.617-4.617c0.569-0.569,0.883-1.326,0.883-2.132c0-0.805-0.313-1.562-0.883-2.132c-1.175-1.176-3.087-1.176-4.264,0
			c-0.195,0.195-0.512,0.195-0.707,0C41.576,28.299,40.819,27.985,40.014,27.985z"/>
	</g>
	<g>
		<path class="st3" d="M21.499,28.515L21.499,28.515L21.499,28.515c-1.373-1.373-3.598-1.373-4.971,0l0,0
			c-1.373,1.373-1.373,3.598,0,4.971l4.971,4.971l4.971-4.971c1.373-1.373,1.373-3.598,0-4.971l0,0
			C25.097,27.142,22.872,27.142,21.499,28.515z"/>
		<path class="st0" d="M21.499,38.956c-0.133,0-0.26-0.053-0.354-0.146l-4.97-4.971c-0.759-0.758-1.177-1.766-1.177-2.839
			c0-1.072,0.418-2.08,1.177-2.839c1.452-1.451,3.751-1.557,5.323-0.314c1.577-1.244,3.873-1.137,5.324,0.314
			c0.759,0.759,1.176,1.767,1.176,2.839c0,1.073-0.417,2.081-1.176,2.839l-4.971,4.971C21.759,38.903,21.632,38.956,21.499,38.956z
			 M19.014,27.985c-0.805,0-1.562,0.313-2.131,0.883S15.999,30.195,15.999,31c0,0.806,0.314,1.562,0.884,2.132l4.616,4.617
			l4.617-4.617c0.569-0.569,0.883-1.326,0.883-2.132c0-0.805-0.313-1.562-0.883-2.132c-1.175-1.176-3.087-1.176-4.264,0
			c-0.195,0.195-0.512,0.195-0.707,0C20.576,28.299,19.819,27.985,19.014,27.985z"/>
	</g>
	<g>
		<path class="st0" d="M7.999,20.941h-1c-0.276,0-0.5-0.224-0.5-0.5s0.224-0.5,0.5-0.5h1c0.276,0,0.5,0.224,0.5,0.5
			S8.275,20.941,7.999,20.941z"/>
	</g>
	<g>
		<path class="st0" d="M15.999,20.941h-6c-0.276,0-0.5-0.224-0.5-0.5s0.224-0.5,0.5-0.5h6c0.276,0,0.5,0.224,0.5,0.5
			S16.275,20.941,15.999,20.941z"/>
	</g>
	<g>
		<path class="st0" d="M56.999,20.941h-1c-0.276,0-0.5-0.224-0.5-0.5s0.224-0.5,0.5-0.5h1c0.276,0,0.5,0.224,0.5,0.5
			S57.275,20.941,56.999,20.941z"/>
	</g>
	<g>
		<path class="st0" d="M53.999,20.941h-6c-0.276,0-0.5-0.224-0.5-0.5s0.224-0.5,0.5-0.5h6c0.276,0,0.5,0.224,0.5,0.5
			S54.275,20.941,53.999,20.941z"/>
	</g>
	<g>
		<path class="st0" d="M49.499,6.5h-4c-0.276,0-0.5-0.224-0.5-0.5s0.224-0.5,0.5-0.5h4c0.276,0,0.5,0.224,0.5,0.5
			S49.775,6.5,49.499,6.5z"/>
	</g>
	<g>
		<path class="st0" d="M47.499,8.5c-0.276,0-0.5-0.224-0.5-0.5V4c0-0.276,0.224-0.5,0.5-0.5s0.5,0.224,0.5,0.5v4
			C47.999,8.276,47.775,8.5,47.499,8.5z"/>
	</g>
	<g>
		<path class="st0" d="M53.499,12h-4c-0.276,0-0.5-0.224-0.5-0.5s0.224-0.5,0.5-0.5h4c0.276,0,0.5,0.224,0.5,0.5
			S53.775,12,53.499,12z"/>
	</g>
	<g>
		<path class="st0" d="M51.499,14c-0.276,0-0.5-0.224-0.5-0.5v-4c0-0.276,0.224-0.5,0.5-0.5s0.5,0.224,0.5,0.5v4
			C51.999,13.776,51.775,14,51.499,14z"/>
	</g>
</g>
</svg>
