<?xml version="1.0" encoding="utf-8"?>
<!-- Generator: Adobe Illustrator 21.1.0, SVG Export Plug-In . SVG Version: 6.00 Build 0)  -->
<svg version="1.1" id="Layer_1" xmlns="http://www.w3.org/2000/svg" xmlns:xlink="http://www.w3.org/1999/xlink" x="0px" y="0px"
	 viewBox="0 0 64 64" style="enable-background:new 0 0 64 64;" xml:space="preserve">
<style type="text/css">
	.st0{fill:#263238;}
	.st1{fill:#FFD740;}
	.st2{fill:#40C4FF;}
	.st3{fill:#FF5252;}
	.st4{fill:#4DB6AC;}
	.st5{fill:#FFFFFF;}
	.st6{fill:#37474F;}
	.st7{fill:#4FC3F7;}
</style>
<g>
	<g>
		<path class="st0" d="M32.5,43c-0.871,0-1.614-0.56-1.888-1.338C30.294,41.875,29.911,42,29.5,42c-0.871,0-1.614-0.56-1.888-1.338
			C27.294,40.875,26.911,41,26.5,41c-1.103,0-2-0.897-2-2V24c0-0.276,0.224-0.5,0.5-0.5s0.5,0.224,0.5,0.5v15c0,0.551,0.448,1,1,1
			s1-0.449,1-1c0-0.276,0.224-0.5,0.5-0.5s0.5,0.224,0.5,0.5v1c0,0.551,0.448,1,1,1s1-0.449,1-1c0-0.276,0.224-0.5,0.5-0.5
			s0.5,0.224,0.5,0.5v1c0,0.551,0.448,1,1,1s1-0.449,1-1v-1.5c0-0.276,0.224-0.5,0.5-0.5s0.5,0.224,0.5,0.5c0,0.551,0.448,1,1,1
			s1-0.449,1-1v-8c0-0.276,0.224-0.5,0.5-0.5s0.5,0.224,0.5,0.5c0,0.551,0.448,1,1,1s1-0.449,1-1v-3.464
			c0-0.534-0.208-1.036-0.586-1.414l-2.268-2.268c-0.195-0.195-0.195-0.512,0-0.707s0.512-0.195,0.707,0l2.268,2.268
			c0.566,0.567,0.879,1.32,0.879,2.121V31.5c0,1.103-0.897,2-2,2c-0.364,0-0.706-0.098-1-0.269V39.5c0,1.103-0.897,2-2,2
			c-0.369,0-0.716-0.101-1.013-0.276C34.376,42.222,33.527,43,32.5,43z"/>
	</g>
	<g>
		<path class="st0" d="M38,17.5H24c-0.276,0-0.5-0.224-0.5-0.5V2.5C23.5,2.224,23.724,2,24,2s0.5,0.224,0.5,0.5v14h13v-14
			C37.5,2.224,37.724,2,38,2s0.5,0.224,0.5,0.5V17C38.5,17.276,38.276,17.5,38,17.5z"/>
	</g>
	<g>
		<path class="st0" d="M34,40c-0.276,0-0.5-0.224-0.5-0.5v-5c0-0.276,0.224-0.5,0.5-0.5s0.5,0.224,0.5,0.5v5
			C34.5,39.776,34.276,40,34,40z"/>
	</g>
	<g>
		<path class="st0" d="M31,40.5c-0.276,0-0.5-0.224-0.5-0.5v-5.5c0-0.276,0.224-0.5,0.5-0.5s0.5,0.224,0.5,0.5V40
			C31.5,40.276,31.276,40.5,31,40.5z"/>
	</g>
	<g>
		<path class="st0" d="M28,39.5c-0.276,0-0.5-0.224-0.5-0.5v-4.5c0-0.276,0.224-0.5,0.5-0.5s0.5,0.224,0.5,0.5V39
			C28.5,39.276,28.276,39.5,28,39.5z"/>
	</g>
	<g>
		<path class="st1" d="M24,17h14v4c0,0.552-0.448,1-1,1H25c-0.552,0-1-0.448-1-1V17z"/>
		<path class="st0" d="M37,22.5H25c-0.827,0-1.5-0.673-1.5-1.5v-4c0-0.276,0.224-0.5,0.5-0.5h14c0.276,0,0.5,0.224,0.5,0.5v4
			C38.5,21.827,37.827,22.5,37,22.5z M24.5,17.5V21c0,0.276,0.225,0.5,0.5,0.5h12c0.275,0,0.5-0.224,0.5-0.5v-3.5H24.5z"/>
	</g>
	<g>
		<path class="st0" d="M45.59,37.604c-0.128,0-0.256-0.049-0.354-0.146l-3.996-3.996c-0.195-0.195-0.195-0.512,0-0.707
			s0.512-0.195,0.707,0l3.996,3.996c0.195,0.195,0.195,0.512,0,0.707C45.846,37.556,45.718,37.604,45.59,37.604z"/>
	</g>
	<g>
		<path class="st0" d="M37.104,46.09h-3.207c-0.802,0-1.555-0.312-2.121-0.878l-0.472-0.472c-0.195-0.195-0.195-0.512,0-0.707
			s0.512-0.195,0.707,0l0.472,0.472c0.378,0.377,0.88,0.585,1.414,0.585h3.207c0.276,0,0.5,0.224,0.5,0.5S37.381,46.09,37.104,46.09
			z"/>
	</g>
	<g>
		<path class="st0" d="M51.601,62c-0.128,0-0.256-0.049-0.354-0.146L40.994,51.601c-0.195-0.195-0.195-0.512,0-0.707l9.899-9.9
			c0.188-0.188,0.52-0.188,0.707,0l10.253,10.253c0.195,0.195,0.195,0.512,0,0.707s-0.512,0.195-0.707,0l-9.899-9.9l-9.192,9.193
			l9.899,9.899c0.195,0.195,0.195,0.512,0,0.707C51.856,61.951,51.729,62,51.601,62z"/>
	</g>
	<g>
		<path class="st3" d="M51.247,41.347l-9.899,9.899l-2.828-2.828c-0.391-0.391-0.391-1.024,0-1.414l8.485-8.485
			c0.391-0.391,1.024-0.391,1.414,0L51.247,41.347z"/>
		<path class="st0" d="M41.348,51.747c-0.128,0-0.256-0.049-0.354-0.146l-2.829-2.829c-0.584-0.585-0.584-1.537,0-2.121l8.485-8.485
			c0.566-0.566,1.556-0.567,2.122,0l2.828,2.828c0.195,0.195,0.195,0.512,0,0.707l-9.899,9.9
			C41.604,51.698,41.476,51.747,41.348,51.747z M47.711,38.726c-0.128,0-0.256,0.049-0.354,0.146l-8.485,8.485
			c-0.194,0.195-0.194,0.512,0,0.708l2.476,2.475l9.192-9.193l-2.475-2.475C47.968,38.775,47.84,38.726,47.711,38.726z"/>
	</g>
	<g>
		<path class="st0" d="M26.896,46.09c-0.128,0-0.256-0.049-0.354-0.146c-0.195-0.195-0.195-0.512,0-0.707l2.142-2.142
			c0.195-0.195,0.512-0.195,0.707,0s0.195,0.512,0,0.707l-2.142,2.142C27.151,46.041,27.023,46.09,26.896,46.09z"/>
	</g>
	<g>
		<path class="st0" d="M18.41,37.604c-0.276,0-0.5-0.224-0.5-0.5v-3.207c0-0.802,0.312-1.555,0.878-2.121l2.45-2.45
			c0.481-0.482,1.183-0.672,1.879-0.504c0.269,0.065,0.434,0.335,0.369,0.604c-0.064,0.268-0.327,0.433-0.604,0.369
			c-0.354-0.087-0.699,0.001-0.938,0.239l-2.45,2.45c-0.377,0.377-0.585,0.879-0.585,1.414v3.207
			C18.91,37.381,18.687,37.604,18.41,37.604z"/>
	</g>
	<g>
		<path class="st0" d="M12.399,62c-0.128,0-0.256-0.049-0.354-0.146c-0.195-0.195-0.195-0.512,0-0.707l9.899-9.899l-9.192-9.193
			l-9.899,9.9c-0.195,0.195-0.512,0.195-0.707,0s-0.195-0.512,0-0.707l10.253-10.253c0.188-0.188,0.52-0.188,0.707,0l9.899,9.9
			c0.195,0.195,0.195,0.512,0,0.707L12.753,61.854C12.655,61.951,12.527,62,12.399,62z"/>
	</g>
	<g>
		<path class="st2" d="M22.653,51.247l-9.899-9.899l2.828-2.828c0.391-0.391,1.024-0.391,1.414,0l8.485,8.485
			c0.391,0.391,0.391,1.024,0,1.414L22.653,51.247z"/>
		<path class="st0" d="M22.652,51.747c-0.128,0-0.256-0.049-0.354-0.146l-9.899-9.9c-0.195-0.195-0.195-0.512,0-0.707l2.828-2.828
			c0.568-0.567,1.558-0.565,2.122,0l8.485,8.485c0.584,0.584,0.584,1.536,0,2.121l-2.829,2.829
			C22.908,51.698,22.78,51.747,22.652,51.747z M13.46,41.347l9.192,9.193l2.476-2.475c0.194-0.195,0.194-0.512,0-0.707l-8.485-8.485
			c-0.196-0.196-0.514-0.194-0.708,0L13.46,41.347z"/>
	</g>
	<g>
		<path class="st0" d="M2.5,27.5h-2C0.224,27.5,0,27.276,0,27s0.224-0.5,0.5-0.5h2C2.776,26.5,3,26.724,3,27S2.776,27.5,2.5,27.5z"
			/>
	</g>
	<g>
		<path class="st0" d="M17,27.5H4.5C4.224,27.5,4,27.276,4,27s0.224-0.5,0.5-0.5H17c0.276,0,0.5,0.224,0.5,0.5S17.276,27.5,17,27.5z
			"/>
	</g>
	<g>
		<path class="st0" d="M63.5,27.5h-2c-0.276,0-0.5-0.224-0.5-0.5s0.224-0.5,0.5-0.5h2c0.276,0,0.5,0.224,0.5,0.5
			S63.776,27.5,63.5,27.5z"/>
	</g>
	<g>
		<path class="st0" d="M59.5,27.5H47c-0.276,0-0.5-0.224-0.5-0.5s0.224-0.5,0.5-0.5h12.5c0.276,0,0.5,0.224,0.5,0.5
			S59.776,27.5,59.5,27.5z"/>
	</g>
	<g>
		<path class="st0" d="M52,7.5h-4c-0.276,0-0.5-0.224-0.5-0.5s0.224-0.5,0.5-0.5h4c0.276,0,0.5,0.224,0.5,0.5S52.276,7.5,52,7.5z"/>
	</g>
	<g>
		<path class="st0" d="M50,9.5c-0.276,0-0.5-0.224-0.5-0.5V5c0-0.276,0.224-0.5,0.5-0.5s0.5,0.224,0.5,0.5v4
			C50.5,9.276,50.276,9.5,50,9.5z"/>
	</g>
	<g>
		<path class="st0" d="M59,14h-4c-0.276,0-0.5-0.224-0.5-0.5S54.724,13,55,13h4c0.276,0,0.5,0.224,0.5,0.5S59.276,14,59,14z"/>
	</g>
	<g>
		<path class="st0" d="M57,16c-0.276,0-0.5-0.224-0.5-0.5v-4c0-0.276,0.224-0.5,0.5-0.5s0.5,0.224,0.5,0.5v4
			C57.5,15.776,57.276,16,57,16z"/>
	</g>
</g>
</svg>
