<?xml version="1.0" encoding="utf-8"?>
<!-- Generator: Adobe Illustrator 21.1.0, SVG Export Plug-In . SVG Version: 6.00 Build 0)  -->
<svg version="1.1" id="Layer_1" xmlns="http://www.w3.org/2000/svg" xmlns:xlink="http://www.w3.org/1999/xlink" x="0px" y="0px"
	 viewBox="0 0 64 64" style="enable-background:new 0 0 64 64;" xml:space="preserve">
<style type="text/css">
	.st0{fill:#263238;}
	.st1{fill:#FFD740;}
	.st2{fill:#40C4FF;}
	.st3{fill:#FF5252;}
	.st4{fill:#4DB6AC;}
	.st5{fill:#FFFFFF;}
	.st6{fill:#37474F;}
	.st7{fill:#4FC3F7;}
</style>
<g>
	<g>
		<path class="st2" d="M37.167,28C36.522,28,36,27.458,36,26.789V19h-4v28h21.25c0.552,0,1-0.448,1-1V28H37.167z"/>
	</g>
	<g>
		<path class="st0" d="M60.25,57.5h-56c-1.654,0-3-1.346-3-3s1.346-3,3-3h56c1.654,0,3,1.346,3,3S61.904,57.5,60.25,57.5z
			 M4.25,52.5c-1.103,0-2,0.897-2,2s0.897,2,2,2h56c1.103,0,2-0.897,2-2s-0.897-2-2-2H4.25z"/>
	</g>
	<g>
		<path class="st0" d="M34.75,55h-5c-0.827,0-1.5-0.673-1.5-1.5V52c0-0.276,0.224-0.5,0.5-0.5s0.5,0.224,0.5,0.5v1.5
			c0,0.276,0.224,0.5,0.5,0.5h5c0.276,0,0.5-0.224,0.5-0.5V52c0-0.276,0.224-0.5,0.5-0.5s0.5,0.224,0.5,0.5v1.5
			C36.25,54.327,35.577,55,34.75,55z"/>
	</g>
	<g>
		<path class="st0" d="M12.25,5.5h-4c-0.276,0-0.5-0.224-0.5-0.5s0.224-0.5,0.5-0.5h4c0.276,0,0.5,0.224,0.5,0.5
			S12.526,5.5,12.25,5.5z"/>
	</g>
	<g>
		<path class="st0" d="M10.25,7.5c-0.276,0-0.5-0.224-0.5-0.5V3c0-0.276,0.224-0.5,0.5-0.5s0.5,0.224,0.5,0.5v4
			C10.75,7.276,10.526,7.5,10.25,7.5z"/>
	</g>
	<g>
		<path class="st0" d="M5.25,12h-4c-0.276,0-0.5-0.224-0.5-0.5S0.974,11,1.25,11h4c0.276,0,0.5,0.224,0.5,0.5S5.526,12,5.25,12z"/>
	</g>
	<g>
		<path class="st0" d="M3.25,14c-0.276,0-0.5-0.224-0.5-0.5v-4c0-0.276,0.224-0.5,0.5-0.5s0.5,0.224,0.5,0.5v4
			C3.75,13.776,3.526,14,3.25,14z"/>
	</g>
	<g>
		<path class="st0" d="M53.25,47.5h-42c-0.827,0-1.5-0.673-1.5-1.5V20c0-0.827,0.673-1.5,1.5-1.5H36c0.276,0,0.5,0.224,0.5,0.5
			s-0.224,0.5-0.5,0.5H11.25c-0.276,0-0.5,0.224-0.5,0.5v26c0,0.276,0.224,0.5,0.5,0.5h42c0.276,0,0.5-0.224,0.5-0.5V28
			c0-0.276,0.224-0.5,0.5-0.5s0.5,0.224,0.5,0.5v18C54.75,46.827,54.077,47.5,53.25,47.5z"/>
	</g>
	<g>
		<path class="st0" d="M22.25,61.5h-2c-0.276,0-0.5-0.224-0.5-0.5s0.224-0.5,0.5-0.5h2c0.276,0,0.5,0.224,0.5,0.5
			S22.526,61.5,22.25,61.5z"/>
	</g>
	<g>
		<path class="st0" d="M44.25,61.5h-20c-0.276,0-0.5-0.224-0.5-0.5s0.224-0.5,0.5-0.5h20c0.276,0,0.5,0.224,0.5,0.5
			S44.526,61.5,44.25,61.5z"/>
	</g>
	<g>
		<path class="st0" d="M28.25,31.5h-15c-0.276,0-0.5-0.224-0.5-0.5s0.224-0.5,0.5-0.5h15c0.276,0,0.5,0.224,0.5,0.5
			S28.526,31.5,28.25,31.5z"/>
	</g>
	<g>
		<path class="st0" d="M28.25,34.5h-12.5c-0.276,0-0.5-0.224-0.5-0.5s0.224-0.5,0.5-0.5h12.5c0.276,0,0.5,0.224,0.5,0.5
			S28.526,34.5,28.25,34.5z"/>
	</g>
	<g>
		<path class="st0" d="M28.25,24.5h-15c-0.276,0-0.5-0.224-0.5-0.5s0.224-0.5,0.5-0.5h15c0.276,0,0.5,0.224,0.5,0.5
			S28.526,24.5,28.25,24.5z"/>
	</g>
	<g>
		<path class="st0" d="M28.25,27.5h-12.5c-0.276,0-0.5-0.224-0.5-0.5s0.224-0.5,0.5-0.5h12.5c0.276,0,0.5,0.224,0.5,0.5
			S28.526,27.5,28.25,27.5z"/>
	</g>
	<g>
		<path class="st0" d="M28.25,41.5h-12.5c-0.276,0-0.5-0.224-0.5-0.5s0.224-0.5,0.5-0.5h12.5c0.276,0,0.5,0.224,0.5,0.5
			S28.526,41.5,28.25,41.5z"/>
	</g>
	<g>
		<path class="st0" d="M28.25,38.5h-15c-0.276,0-0.5-0.224-0.5-0.5s0.224-0.5,0.5-0.5h15c0.276,0,0.5,0.224,0.5,0.5
			S28.526,38.5,28.25,38.5z"/>
	</g>
	<g>
		<path class="st3" d="M62,11H38V8c0-0.552,0.448-1,1-1h22c0.552,0,1,0.448,1,1V11z"/>
		<path class="st0" d="M62,11.5H38c-0.276,0-0.5-0.224-0.5-0.5V8c0-0.827,0.673-1.5,1.5-1.5h22c0.827,0,1.5,0.673,1.5,1.5v3
			C62.5,11.276,62.276,11.5,62,11.5z M38.5,10.5h23V8c0-0.276-0.224-0.5-0.5-0.5H39c-0.276,0-0.5,0.224-0.5,0.5V10.5z"/>
	</g>
	<g>
		<path class="st0" d="M61,26.5H39c-0.827,0-1.5-0.673-1.5-1.5V11c0-0.276,0.224-0.5,0.5-0.5h24c0.276,0,0.5,0.224,0.5,0.5v14
			C62.5,25.827,61.827,26.5,61,26.5z M38.5,11.5V25c0,0.276,0.224,0.5,0.5,0.5h22c0.276,0,0.5-0.224,0.5-0.5V11.5H38.5z"/>
	</g>
	<g>
		<path class="st0" d="M57.25,50.5c-0.276,0-0.5-0.224-0.5-0.5V28c0-0.276,0.224-0.5,0.5-0.5s0.5,0.224,0.5,0.5v22
			C57.75,50.276,57.526,50.5,57.25,50.5z"/>
	</g>
	<g>
		<path class="st0" d="M7.25,50.5c-0.276,0-0.5-0.224-0.5-0.5V18.5c0-1.654,1.346-3,3-3H36c0.276,0,0.5,0.224,0.5,0.5
			s-0.224,0.5-0.5,0.5H9.75c-1.103,0-2,0.897-2,2V50C7.75,50.276,7.526,50.5,7.25,50.5z"/>
	</g>
	<g>
		<path class="st0" d="M32,47.5c-0.276,0-0.5-0.224-0.5-0.5V19c0-0.276,0.224-0.5,0.5-0.5s0.5,0.224,0.5,0.5v28
			C32.5,47.276,32.276,47.5,32,47.5z"/>
	</g>
	<g>
		<path class="st0" d="M47.5,21.25c-0.104,0-0.209-0.033-0.299-0.1l-3-2.25c-0.126-0.094-0.2-0.243-0.2-0.4s0.074-0.306,0.2-0.4
			l3-2.25c0.22-0.167,0.534-0.122,0.7,0.1c0.166,0.221,0.121,0.534-0.1,0.7l-2.466,1.85l2.466,1.85c0.221,0.166,0.266,0.479,0.1,0.7
			C47.802,21.181,47.652,21.25,47.5,21.25z"/>
	</g>
	<g>
		<path class="st0" d="M52.5,21.25c-0.152,0-0.302-0.069-0.4-0.2c-0.166-0.221-0.121-0.534,0.1-0.7l2.466-1.85L52.2,16.65
			c-0.221-0.166-0.266-0.479-0.1-0.7c0.166-0.221,0.479-0.266,0.7-0.1l3,2.25c0.126,0.094,0.2,0.243,0.2,0.4s-0.074,0.306-0.2,0.4
			l-3,2.25C52.71,21.217,52.605,21.25,52.5,21.25z"/>
	</g>
	<g>
		<path class="st0" d="M49.5,21c-0.04,0-0.081-0.005-0.122-0.015c-0.268-0.067-0.431-0.338-0.364-0.606l1-4
			c0.066-0.269,0.338-0.434,0.606-0.364c0.268,0.067,0.431,0.338,0.364,0.606l-1,4C49.928,20.849,49.725,21,49.5,21z"/>
	</g>
	<g>
		<rect x="35" y="32" class="st1" width="8" height="10"/>
		<path class="st0" d="M43,42.5h-8c-0.276,0-0.5-0.224-0.5-0.5V32c0-0.276,0.224-0.5,0.5-0.5h8c0.276,0,0.5,0.224,0.5,0.5v10
			C43.5,42.276,43.276,42.5,43,42.5z M35.5,41.5h7v-9h-7V41.5z"/>
	</g>
	<g>
		<rect x="43" y="32" class="st1" width="8" height="5"/>
		<path class="st0" d="M51,37.5h-8c-0.276,0-0.5-0.224-0.5-0.5v-5c0-0.276,0.224-0.5,0.5-0.5h8c0.276,0,0.5,0.224,0.5,0.5v5
			C51.5,37.276,51.276,37.5,51,37.5z M43.5,36.5h7v-4h-7V36.5z"/>
	</g>
	<g>
		<rect x="43" y="37" class="st1" width="8" height="5"/>
		<path class="st0" d="M51,42.5h-8c-0.276,0-0.5-0.224-0.5-0.5v-5c0-0.276,0.224-0.5,0.5-0.5h8c0.276,0,0.5,0.224,0.5,0.5v5
			C51.5,42.276,51.276,42.5,51,42.5z M43.5,41.5h7v-4h-7V41.5z"/>
	</g>
</g>
</svg>
