<?xml version="1.0" encoding="utf-8"?>
<!-- Generator: Adobe Illustrator 21.1.0, SVG Export Plug-In . SVG Version: 6.00 Build 0)  -->
<svg version="1.1" id="Layer_1" xmlns="http://www.w3.org/2000/svg" xmlns:xlink="http://www.w3.org/1999/xlink" x="0px" y="0px"
	 viewBox="0 0 64 64" style="enable-background:new 0 0 64 64;" xml:space="preserve">
<style type="text/css">
	.st0{fill:#263238;}
	.st1{fill:#FFD740;}
	.st2{fill:#40C4FF;}
	.st3{fill:#FF5252;}
	.st4{fill:#4DB6AC;}
	.st5{fill:#FFFFFF;}
	.st6{fill:#37474F;}
	.st7{fill:#4FC3F7;}
</style>
<g>
	<g>
		<path class="st0" d="M14.957,57h-2c-4.136,0-7.5-3.364-7.5-7.5v-10c0-4.136,3.364-7.5,7.5-7.5h2c0.276,0,0.5,0.224,0.5,0.5
			s-0.224,0.5-0.5,0.5h-2c-3.584,0-6.5,2.916-6.5,6.5v10c0,3.584,2.916,6.5,6.5,6.5h2c0.276,0,0.5,0.224,0.5,0.5
			S15.233,57,14.957,57z"/>
	</g>
	<g>
		<path class="st0" d="M14.957,53h-2c-1.93,0-3.5-1.57-3.5-3.5v-10c0-1.93,1.57-3.5,3.5-3.5h2c0.276,0,0.5,0.224,0.5,0.5
			s-0.224,0.5-0.5,0.5h-2c-1.379,0-2.5,1.121-2.5,2.5v10c0,1.379,1.121,2.5,2.5,2.5h2c0.276,0,0.5,0.224,0.5,0.5
			S15.233,53,14.957,53z"/>
	</g>
	<g>
		<path class="st0" d="M44.457,63h-25c-1.654,0-3-1.346-3-3V29c0-1.654,1.346-3,3-3h25c1.654,0,3,1.346,3,3v31
			C47.457,61.654,46.111,63,44.457,63z M19.457,27c-1.103,0-2,0.897-2,2v31c0,1.103,0.897,2,2,2h25c1.103,0,2-0.897,2-2V29
			c0-1.103-0.897-2-2-2H19.457z"/>
	</g>
	<g>
		<path class="st0" d="M24.457,15h-1c-0.276,0-0.5-0.224-0.5-0.5s0.224-0.5,0.5-0.5h1c0.276,0,0.5,0.224,0.5,0.5
			S24.733,15,24.457,15z"/>
	</g>
	<g>
		<path class="st0" d="M24.458,25c-0.276,0-0.5-0.224-0.5-0.5V22c0-1.103-0.897-2-2-2h-5.001c-1.654,0-3-1.346-3-3s1.346-3,3-3h4.5
			c0.276,0,0.5,0.224,0.5,0.5s-0.224,0.5-0.5,0.5h-4.5c-1.103,0-2,0.897-2,2s0.897,2,2,2h5.001c1.654,0,3,1.346,3,3v2.5
			C24.958,24.776,24.734,25,24.458,25z"/>
	</g>
	<g>
		<path class="st0" d="M57.957,20.5h-1c-0.276,0-0.5-0.224-0.5-0.5s0.224-0.5,0.5-0.5h1c0.276,0,0.5,0.224,0.5,0.5
			S58.233,20.5,57.957,20.5z"/>
	</g>
	<g>
		<path class="st0" d="M39.457,25c-0.276,0-0.5-0.224-0.5-0.5v-2c0-1.654,1.346-3,3-3h13c0.276,0,0.5,0.224,0.5,0.5
			s-0.224,0.5-0.5,0.5h-13c-1.103,0-2,0.897-2,2v2C39.957,24.776,39.733,25,39.457,25z"/>
	</g>
	<g>
		<path class="st0" d="M54.957,7.5h-4c-0.276,0-0.5-0.224-0.5-0.5s0.224-0.5,0.5-0.5h4c0.276,0,0.5,0.224,0.5,0.5
			S55.233,7.5,54.957,7.5z"/>
	</g>
	<g>
		<path class="st0" d="M52.957,9.5c-0.276,0-0.5-0.224-0.5-0.5V5c0-0.276,0.224-0.5,0.5-0.5s0.5,0.224,0.5,0.5v4
			C53.457,9.276,53.233,9.5,52.957,9.5z"/>
	</g>
	<g>
		<path class="st0" d="M48.957,13h-4c-0.276,0-0.5-0.224-0.5-0.5s0.224-0.5,0.5-0.5h4c0.276,0,0.5,0.224,0.5,0.5
			S49.233,13,48.957,13z"/>
	</g>
	<g>
		<path class="st0" d="M46.957,15c-0.276,0-0.5-0.224-0.5-0.5v-4c0-0.276,0.224-0.5,0.5-0.5s0.5,0.224,0.5,0.5v4
			C47.457,14.776,47.233,15,46.957,15z"/>
	</g>
	<g>
		<path class="st0" d="M43.957,35c-0.276,0-0.5-0.224-0.5-0.5v-4c0-0.275-0.225-0.5-0.5-0.5h-4c-0.276,0-0.5-0.224-0.5-0.5
			s0.224-0.5,0.5-0.5h4c0.827,0,1.5,0.673,1.5,1.5v4C44.457,34.776,44.233,35,43.957,35z"/>
	</g>
	<g>
		<path class="st1" d="M36.957,11.5c0-3.115-2.848-5.565-6.083-4.886c-1.908,0.4-3.437,1.958-3.816,3.87
			c-0.336,1.696,0.191,3.263,1.214,4.372c0.725,0.786,1.185,1.778,1.185,2.848V18h5v-0.295c0-1.075,0.47-2.068,1.196-2.861
			C36.462,13.961,36.957,12.792,36.957,11.5z"/>
		<path class="st0" d="M34.457,18.5h-5c-0.276,0-0.5-0.224-0.5-0.5v-0.297c0-0.882-0.374-1.772-1.052-2.509
			c-1.198-1.299-1.685-3.052-1.337-4.808c0.418-2.11,2.107-3.823,4.204-4.263c1.661-0.35,3.357,0.054,4.649,1.104
			c1.294,1.05,2.035,2.607,2.035,4.271c0,1.363-0.51,2.671-1.435,3.682c-0.486,0.53-1.065,1.399-1.065,2.523V18
			C34.957,18.276,34.733,18.5,34.457,18.5z M29.952,17.5h4.01c0.052-1.07,0.506-2.102,1.322-2.994
			c0.757-0.825,1.173-1.893,1.173-3.006c0-1.362-0.606-2.636-1.665-3.495s-2.448-1.187-3.814-0.902
			c-1.71,0.358-3.087,1.757-3.429,3.479c-0.285,1.439,0.112,2.874,1.091,3.936C29.438,15.383,29.899,16.436,29.952,17.5z"/>
	</g>
	<g>
		<path class="st0" d="M31.957,23.5c-1.654,0-3-1.346-3-3V18c0-0.276,0.224-0.5,0.5-0.5h5c0.276,0,0.5,0.224,0.5,0.5v2.5
			C34.957,22.154,33.611,23.5,31.957,23.5z M29.957,18.5v2c0,1.103,0.897,2,2,2s2-0.897,2-2v-2H29.957z"/>
	</g>
	<g>
		<path class="st0" d="M34.457,21h-5c-0.276,0-0.5-0.224-0.5-0.5s0.224-0.5,0.5-0.5h5c0.276,0,0.5,0.224,0.5,0.5
			S34.733,21,34.457,21z"/>
	</g>
	<g>
		<path class="st0" d="M31.957,4c-0.276,0-0.5-0.224-0.5-0.5v-2c0-0.276,0.224-0.5,0.5-0.5s0.5,0.224,0.5,0.5v2
			C32.457,3.776,32.233,4,31.957,4z"/>
	</g>
	<g>
		<path class="st0" d="M26.957,5.707c-0.128,0-0.256-0.049-0.354-0.146l-1.414-1.414c-0.195-0.195-0.195-0.512,0-0.707
			s0.512-0.195,0.707,0l1.414,1.414c0.195,0.195,0.195,0.512,0,0.707C27.213,5.658,27.085,5.707,26.957,5.707z"/>
	</g>
	<g>
		<path class="st0" d="M36.957,5.707c-0.128,0-0.256-0.049-0.354-0.146c-0.195-0.195-0.195-0.512,0-0.707l1.415-1.414
			c0.195-0.195,0.512-0.195,0.707,0s0.195,0.512,0,0.707l-1.415,1.414C37.213,5.658,37.085,5.707,36.957,5.707z"/>
	</g>
	<g>
		<path class="st0" d="M31.957,18.5c-0.276,0-0.5-0.224-0.5-0.5v-5c0-0.276,0.224-0.5,0.5-0.5s0.5,0.224,0.5,0.5v5
			C32.457,18.276,32.233,18.5,31.957,18.5z"/>
	</g>
	<g>
		<circle class="st4" cx="31.957" cy="44.5" r="6"/>
		<path class="st0" d="M31.957,51c-3.584,0-6.5-2.916-6.5-6.5s2.916-6.5,6.5-6.5s6.5,2.916,6.5,6.5S35.541,51,31.957,51z M31.957,39
			c-3.032,0-5.5,2.468-5.5,5.5s2.468,5.5,5.5,5.5s5.5-2.468,5.5-5.5S34.989,39,31.957,39z"/>
	</g>
</g>
</svg>
