<?xml version="1.0" encoding="utf-8"?>
<!-- Generator: Adobe Illustrator 21.1.0, SVG Export Plug-In . SVG Version: 6.00 Build 0)  -->
<svg version="1.1" id="Layer_1" xmlns="http://www.w3.org/2000/svg" xmlns:xlink="http://www.w3.org/1999/xlink" x="0px" y="0px"
	 viewBox="0 0 64 64" style="enable-background:new 0 0 64 64;" xml:space="preserve">
<style type="text/css">
	.st0{fill:#263238;}
	.st1{fill:#FFD740;}
	.st2{fill:#40C4FF;}
	.st3{fill:#FF5252;}
	.st4{fill:#4DB6AC;}
	.st5{fill:#FFFFFF;}
	.st6{fill:#37474F;}
	.st7{fill:#4FC3F7;}
</style>
<g>
	<g>
		<path class="st1" d="M18.5,35v1c5.523,0,10,4.477,10,10c0,1.423-0.302,2.774-0.838,4H29.5V34h-10C18.948,34,18.5,34.448,18.5,35z"
			/>
	</g>
	<g>
		<path class="st1" d="M33.5,26h-14c-0.552,0-1,0.448-1,1v2c0,0.552,0.448,1,1,1h10v-1c0-0.552,0.448-1,1-1h4v-1
			C34.5,26.448,34.052,26,33.5,26z"/>
	</g>
	<g>
		<path class="st1" d="M53.5,18h-14c-0.552,0-1-0.448-1-1v-2c0-0.552,0.448-1,1-1h14c0.552,0,1,0.448,1,1v2
			C54.5,17.552,54.052,18,53.5,18z"/>
		<path class="st0" d="M53.5,18.5h-14c-0.827,0-1.5-0.673-1.5-1.5v-2c0-0.827,0.673-1.5,1.5-1.5h14c0.827,0,1.5,0.673,1.5,1.5v2
			C55,17.827,54.327,18.5,53.5,18.5z M39.5,14.5c-0.275,0-0.5,0.225-0.5,0.5v2c0,0.275,0.225,0.5,0.5,0.5h14
			c0.275,0,0.5-0.225,0.5-0.5v-2c0-0.275-0.225-0.5-0.5-0.5H39.5z"/>
	</g>
	<g>
		<path class="st1" d="M53.5,14h-14c-0.552,0-1-0.448-1-1v-2c0-0.552,0.448-1,1-1h14c0.552,0,1,0.448,1,1v2
			C54.5,13.552,54.052,14,53.5,14z"/>
		<path class="st0" d="M53.5,14.5h-14c-0.827,0-1.5-0.673-1.5-1.5v-2c0-0.827,0.673-1.5,1.5-1.5h14c0.827,0,1.5,0.673,1.5,1.5v2
			C55,13.827,54.327,14.5,53.5,14.5z M39.5,10.5c-0.275,0-0.5,0.225-0.5,0.5v2c0,0.275,0.225,0.5,0.5,0.5h14
			c0.275,0,0.5-0.225,0.5-0.5v-2c0-0.275-0.225-0.5-0.5-0.5H39.5z"/>
	</g>
	<g>
		<path class="st1" d="M53.5,26h-14c-0.552,0-1-0.448-1-1v-2c0-0.552,0.448-1,1-1h14c0.552,0,1,0.448,1,1v2
			C54.5,25.552,54.052,26,53.5,26z"/>
		<path class="st0" d="M53.5,26.5h-14c-0.827,0-1.5-0.673-1.5-1.5v-2c0-0.827,0.673-1.5,1.5-1.5h14c0.827,0,1.5,0.673,1.5,1.5v2
			C55,25.827,54.327,26.5,53.5,26.5z M39.5,22.5c-0.275,0-0.5,0.225-0.5,0.5v2c0,0.275,0.225,0.5,0.5,0.5h14
			c0.275,0,0.5-0.225,0.5-0.5v-2c0-0.275-0.225-0.5-0.5-0.5H39.5z"/>
	</g>
	<g>
		<path class="st1" d="M53.5,22h-14c-0.552,0-1-0.448-1-1v-2c0-0.552,0.448-1,1-1h14c0.552,0,1,0.448,1,1v2
			C54.5,21.552,54.052,22,53.5,22z"/>
		<path class="st0" d="M53.5,22.5h-14c-0.827,0-1.5-0.673-1.5-1.5v-2c0-0.827,0.673-1.5,1.5-1.5h14c0.827,0,1.5,0.673,1.5,1.5v2
			C55,21.827,54.327,22.5,53.5,22.5z M39.5,18.5c-0.275,0-0.5,0.225-0.5,0.5v2c0,0.275,0.225,0.5,0.5,0.5h14
			c0.275,0,0.5-0.225,0.5-0.5v-2c0-0.275-0.225-0.5-0.5-0.5H39.5z"/>
	</g>
	<g>
		<path class="st0" d="M54.5,54.5h-2c-0.276,0-0.5-0.224-0.5-0.5s0.224-0.5,0.5-0.5h2c0.276,0,0.5,0.224,0.5,0.5
			S54.776,54.5,54.5,54.5z"/>
	</g>
	<g>
		<path class="st0" d="M50.5,54.5h-16c-0.276,0-0.5-0.224-0.5-0.5s0.224-0.5,0.5-0.5h16c0.276,0,0.5,0.224,0.5,0.5
			S50.776,54.5,50.5,54.5z"/>
	</g>
	<g>
		<path class="st1" d="M46.5,50h-14c-0.552,0-1-0.448-1-1v-2c0-0.552,0.448-1,1-1h14c0.552,0,1,0.448,1,1v2
			C47.5,49.552,47.052,50,46.5,50z"/>
		<path class="st0" d="M46.5,50.5h-14c-0.827,0-1.5-0.673-1.5-1.5v-2c0-0.827,0.673-1.5,1.5-1.5h14c0.827,0,1.5,0.673,1.5,1.5v2
			C48,49.827,47.327,50.5,46.5,50.5z M32.5,46.5c-0.275,0-0.5,0.225-0.5,0.5v2c0,0.275,0.225,0.5,0.5,0.5h14
			c0.275,0,0.5-0.225,0.5-0.5v-2c0-0.275-0.225-0.5-0.5-0.5H32.5z"/>
	</g>
	<g>
		<path class="st1" d="M46.5,46h-14c-0.552,0-1-0.448-1-1v-2c0-0.552,0.448-1,1-1h14c0.552,0,1,0.448,1,1v2
			C47.5,45.552,47.052,46,46.5,46z"/>
		<path class="st0" d="M46.5,46.5h-14c-0.827,0-1.5-0.673-1.5-1.5v-2c0-0.827,0.673-1.5,1.5-1.5h14c0.827,0,1.5,0.673,1.5,1.5v2
			C48,45.827,47.327,46.5,46.5,46.5z M32.5,42.5c-0.275,0-0.5,0.225-0.5,0.5v2c0,0.275,0.225,0.5,0.5,0.5h14
			c0.275,0,0.5-0.225,0.5-0.5v-2c0-0.275-0.225-0.5-0.5-0.5H32.5z"/>
	</g>
	<g>
		<path class="st1" d="M46.5,42h-14c-0.552,0-1-0.448-1-1v-2c0-0.552,0.448-1,1-1h14c0.552,0,1,0.448,1,1v2
			C47.5,41.552,47.052,42,46.5,42z"/>
		<path class="st0" d="M46.5,42.5h-14c-0.827,0-1.5-0.673-1.5-1.5v-2c0-0.827,0.673-1.5,1.5-1.5h14c0.827,0,1.5,0.673,1.5,1.5v2
			C48,41.827,47.327,42.5,46.5,42.5z M32.5,38.5c-0.275,0-0.5,0.225-0.5,0.5v2c0,0.275,0.225,0.5,0.5,0.5h14
			c0.275,0,0.5-0.225,0.5-0.5v-2c0-0.275-0.225-0.5-0.5-0.5H32.5z"/>
	</g>
	<g>
		<path class="st1" d="M46.5,38h-14c-0.552,0-1-0.448-1-1v-2c0-0.552,0.448-1,1-1h14c0.552,0,1,0.448,1,1v2
			C47.5,37.552,47.052,38,46.5,38z"/>
		<path class="st0" d="M46.5,38.5h-14c-0.827,0-1.5-0.673-1.5-1.5v-2c0-0.827,0.673-1.5,1.5-1.5h14c0.827,0,1.5,0.673,1.5,1.5v2
			C48,37.827,47.327,38.5,46.5,38.5z M32.5,34.5c-0.275,0-0.5,0.225-0.5,0.5v2c0,0.275,0.225,0.5,0.5,0.5h14
			c0.275,0,0.5-0.225,0.5-0.5v-2c0-0.275-0.225-0.5-0.5-0.5H32.5z"/>
	</g>
	<g>
		<path class="st1" d="M46.5,34h-14c-0.552,0-1-0.448-1-1v-2c0-0.552,0.448-1,1-1h14c0.552,0,1,0.448,1,1v2
			C47.5,33.552,47.052,34,46.5,34z"/>
		<path class="st0" d="M46.5,34.5h-14c-0.827,0-1.5-0.673-1.5-1.5v-2c0-0.827,0.673-1.5,1.5-1.5h14c0.827,0,1.5,0.673,1.5,1.5v2
			C48,33.827,47.327,34.5,46.5,34.5z M32.5,30.5c-0.275,0-0.5,0.225-0.5,0.5v2c0,0.275,0.225,0.5,0.5,0.5h14
			c0.275,0,0.5-0.225,0.5-0.5v-2c0-0.275-0.225-0.5-0.5-0.5H32.5z"/>
	</g>
	<g>
		<path class="st1" d="M49.5,42h4c0.552,0,1-0.448,1-1v-2c0-0.552-0.448-1-1-1h-4"/>
		<path class="st0" d="M53.5,42.5h-4c-0.276,0-0.5-0.224-0.5-0.5s0.224-0.5,0.5-0.5h4c0.275,0,0.5-0.225,0.5-0.5v-2
			c0-0.275-0.225-0.5-0.5-0.5h-4c-0.276,0-0.5-0.224-0.5-0.5s0.224-0.5,0.5-0.5h4c0.827,0,1.5,0.673,1.5,1.5v2
			C55,41.827,54.327,42.5,53.5,42.5z"/>
	</g>
	<g>
		<path class="st1" d="M49.5,38h4c0.552,0,1-0.448,1-1v-2c0-0.552-0.448-1-1-1h-4"/>
		<path class="st0" d="M53.5,38.5h-4c-0.276,0-0.5-0.224-0.5-0.5s0.224-0.5,0.5-0.5h4c0.275,0,0.5-0.225,0.5-0.5v-2
			c0-0.275-0.225-0.5-0.5-0.5h-4c-0.276,0-0.5-0.224-0.5-0.5s0.224-0.5,0.5-0.5h4c0.827,0,1.5,0.673,1.5,1.5v2
			C55,37.827,54.327,38.5,53.5,38.5z"/>
	</g>
	<g>
		<path class="st1" d="M49.5,50h4c0.552,0,1-0.448,1-1v-2c0-0.552-0.448-1-1-1h-4"/>
		<path class="st0" d="M53.5,50.5h-4c-0.276,0-0.5-0.224-0.5-0.5s0.224-0.5,0.5-0.5h4c0.275,0,0.5-0.225,0.5-0.5v-2
			c0-0.275-0.225-0.5-0.5-0.5h-4c-0.276,0-0.5-0.224-0.5-0.5s0.224-0.5,0.5-0.5h4c0.827,0,1.5,0.673,1.5,1.5v2
			C55,49.827,54.327,50.5,53.5,50.5z"/>
	</g>
	<g>
		<path class="st1" d="M49.5,46h4c0.552,0,1-0.448,1-1v-2c0-0.552-0.448-1-1-1h-4"/>
		<path class="st0" d="M53.5,46.5h-4c-0.276,0-0.5-0.224-0.5-0.5s0.224-0.5,0.5-0.5h4c0.275,0,0.5-0.225,0.5-0.5v-2
			c0-0.275-0.225-0.5-0.5-0.5h-4c-0.276,0-0.5-0.224-0.5-0.5s0.224-0.5,0.5-0.5h4c0.827,0,1.5,0.673,1.5,1.5v2
			C55,45.827,54.327,46.5,53.5,46.5z"/>
	</g>
	<g>
		<path class="st1" d="M49.5,34h4c0.552,0,1-0.448,1-1v-2c0-0.552-0.448-1-1-1h-4"/>
		<path class="st0" d="M53.5,34.5h-4c-0.276,0-0.5-0.224-0.5-0.5s0.224-0.5,0.5-0.5h4c0.275,0,0.5-0.225,0.5-0.5v-2
			c0-0.275-0.225-0.5-0.5-0.5h-4c-0.276,0-0.5-0.224-0.5-0.5s0.224-0.5,0.5-0.5h4c0.827,0,1.5,0.673,1.5,1.5v2
			C55,33.827,54.327,34.5,53.5,34.5z"/>
	</g>
	<g>
		<path class="st1" d="M29.5,34h-10c-0.552,0-1-0.448-1-1v-2c0-0.552,0.448-1,1-1h10"/>
		<path class="st0" d="M29.5,34.5h-10c-0.827,0-1.5-0.673-1.5-1.5v-2c0-0.827,0.673-1.5,1.5-1.5h10c0.276,0,0.5,0.224,0.5,0.5
			s-0.224,0.5-0.5,0.5h-10c-0.275,0-0.5,0.225-0.5,0.5v2c0,0.275,0.225,0.5,0.5,0.5h10c0.276,0,0.5,0.224,0.5,0.5
			S29.776,34.5,29.5,34.5z"/>
	</g>
	<g>
		<path class="st1" d="M53.5,26h-14c-0.552,0-1,0.448-1,1v1h10c0.552,0,1,0.448,1,1v1h4c0.552,0,1-0.448,1-1v-2
			C54.5,26.448,54.052,26,53.5,26z"/>
	</g>
	<g>
		<path class="st0" d="M53.5,30.5h-4c-0.276,0-0.5-0.224-0.5-0.5s0.224-0.5,0.5-0.5h4c0.275,0,0.5-0.225,0.5-0.5v-2
			c0-0.275-0.225-0.5-0.5-0.5h-14c-0.275,0-0.5,0.225-0.5,0.5v1c0,0.276-0.224,0.5-0.5,0.5S38,28.276,38,28v-1
			c0-0.827,0.673-1.5,1.5-1.5h14c0.827,0,1.5,0.673,1.5,1.5v2C55,29.827,54.327,30.5,53.5,30.5z"/>
	</g>
	<g>
		<path class="st0" d="M29.5,30.5h-10c-0.827,0-1.5-0.673-1.5-1.5v-2c0-0.827,0.673-1.5,1.5-1.5h14c0.827,0,1.5,0.673,1.5,1.5v1
			c0,0.276-0.224,0.5-0.5,0.5S34,28.276,34,28v-1c0-0.275-0.225-0.5-0.5-0.5h-14c-0.275,0-0.5,0.225-0.5,0.5v2
			c0,0.275,0.225,0.5,0.5,0.5h10c0.276,0,0.5,0.224,0.5,0.5S29.776,30.5,29.5,30.5z"/>
	</g>
	<g>
		<path class="st1" d="M33.5,26h-14c-0.552,0-1-0.448-1-1v-2c0-0.552,0.448-1,1-1h14c0.552,0,1,0.448,1,1v2
			C34.5,25.552,34.052,26,33.5,26z"/>
		<path class="st0" d="M33.5,26.5h-14c-0.827,0-1.5-0.673-1.5-1.5v-2c0-0.827,0.673-1.5,1.5-1.5h14c0.827,0,1.5,0.673,1.5,1.5v2
			C35,25.827,34.327,26.5,33.5,26.5z M19.5,22.5c-0.275,0-0.5,0.225-0.5,0.5v2c0,0.275,0.225,0.5,0.5,0.5h14
			c0.275,0,0.5-0.225,0.5-0.5v-2c0-0.275-0.225-0.5-0.5-0.5H19.5z"/>
	</g>
	<g>
		<path class="st1" d="M33.5,22h-14c-0.552,0-1-0.448-1-1v-2c0-0.552,0.448-1,1-1h14c0.552,0,1,0.448,1,1v2
			C34.5,21.552,34.052,22,33.5,22z"/>
		<path class="st0" d="M33.5,22.5h-14c-0.827,0-1.5-0.673-1.5-1.5v-2c0-0.827,0.673-1.5,1.5-1.5h14c0.827,0,1.5,0.673,1.5,1.5v2
			C35,21.827,34.327,22.5,33.5,22.5z M19.5,18.5c-0.275,0-0.5,0.225-0.5,0.5v2c0,0.275,0.225,0.5,0.5,0.5h14
			c0.275,0,0.5-0.225,0.5-0.5v-2c0-0.275-0.225-0.5-0.5-0.5H19.5z"/>
	</g>
	<g>
		<circle class="st1" cx="18.5" cy="46" r="8"/>
		<path class="st0" d="M18.5,54.5c-4.687,0-8.5-3.813-8.5-8.5s3.813-8.5,8.5-8.5S27,41.313,27,46S23.187,54.5,18.5,54.5z M18.5,38.5
			c-4.136,0-7.5,3.364-7.5,7.5s3.364,7.5,7.5,7.5S26,50.136,26,46S22.636,38.5,18.5,38.5z"/>
	</g>
	<g>
		<path class="st0" d="M29.5,38.5h-5.019c-0.276,0-0.5-0.224-0.5-0.5s0.224-0.5,0.5-0.5H29.5c0.276,0,0.5,0.224,0.5,0.5
			S29.776,38.5,29.5,38.5z"/>
	</g>
	<g>
		<path class="st0" d="M18.5,36.5c-0.276,0-0.5-0.224-0.5-0.5v-1c0-0.827,0.673-1.5,1.5-1.5h10c0.276,0,0.5,0.224,0.5,0.5
			s-0.224,0.5-0.5,0.5h-10c-0.275,0-0.5,0.225-0.5,0.5v1C19,36.276,18.776,36.5,18.5,36.5z"/>
	</g>
	<g>
		<path class="st0" d="M29.5,38.5h-5.019c-0.276,0-0.5-0.224-0.5-0.5s0.224-0.5,0.5-0.5H29.5c0.276,0,0.5,0.224,0.5,0.5
			S29.776,38.5,29.5,38.5z"/>
	</g>
	<g>
		<path class="st0" d="M29.5,50.5h-1.838c-0.276,0-0.5-0.224-0.5-0.5s0.224-0.5,0.5-0.5H29.5c0.276,0,0.5,0.224,0.5,0.5
			S29.776,50.5,29.5,50.5z"/>
	</g>
	<g>
		<path class="st0" d="M29.5,42.5h-1.838c-0.276,0-0.5-0.224-0.5-0.5s0.224-0.5,0.5-0.5H29.5c0.276,0,0.5,0.224,0.5,0.5
			S29.776,42.5,29.5,42.5z"/>
	</g>
	<g>
		<path class="st0" d="M29.5,42.5h-1.838c-0.276,0-0.5-0.224-0.5-0.5s0.224-0.5,0.5-0.5H29.5c0.276,0,0.5,0.224,0.5,0.5
			S29.776,42.5,29.5,42.5z"/>
	</g>
	<g>
		<path class="st0" d="M29.5,46.5h-1c-0.276,0-0.5-0.224-0.5-0.5s0.224-0.5,0.5-0.5h1c0.276,0,0.5,0.224,0.5,0.5
			S29.776,46.5,29.5,46.5z"/>
	</g>
	<g>
		<path class="st0" d="M29.5,46.5h-1c-0.276,0-0.5-0.224-0.5-0.5s0.224-0.5,0.5-0.5h1c0.276,0,0.5,0.224,0.5,0.5
			S29.776,46.5,29.5,46.5z"/>
	</g>
	<g>
		<path class="st0" d="M29.5,50.5h-1.838c-0.276,0-0.5-0.224-0.5-0.5s0.224-0.5,0.5-0.5H29.5c0.276,0,0.5,0.224,0.5,0.5
			S29.776,50.5,29.5,50.5z"/>
	</g>
	<g>
		<path class="st0" d="M18.5,44c-0.276,0-0.5-0.224-0.5-0.5V42c0-0.276,0.224-0.5,0.5-0.5S19,41.724,19,42v1.5
			C19,43.776,18.776,44,18.5,44z"/>
	</g>
	<g>
		<path class="st0" d="M18.5,50.5c-0.276,0-0.5-0.224-0.5-0.5v-1.5c0-0.276,0.224-0.5,0.5-0.5s0.5,0.224,0.5,0.5V50
			C19,50.276,18.776,50.5,18.5,50.5z"/>
	</g>
	<g>
		<path class="st0" d="M19.25,49H16.5c-0.276,0-0.5-0.224-0.5-0.5s0.224-0.5,0.5-0.5h2.75c0.413,0,0.75-0.337,0.75-0.75
			s-0.337-0.75-0.75-0.75h-1.5c-0.965,0-1.75-0.785-1.75-1.75S16.785,43,17.75,43H20c0.276,0,0.5,0.224,0.5,0.5S20.276,44,20,44
			h-2.25C17.337,44,17,44.337,17,44.75s0.337,0.75,0.75,0.75h1.5c0.965,0,1.75,0.785,1.75,1.75S20.215,49,19.25,49z"/>
	</g>
	<g>
		<path class="st0" d="M19,12.5h-4c-0.276,0-0.5-0.224-0.5-0.5s0.224-0.5,0.5-0.5h4c0.276,0,0.5,0.224,0.5,0.5S19.276,12.5,19,12.5z
			"/>
	</g>
	<g>
		<path class="st0" d="M17,14.5c-0.276,0-0.5-0.224-0.5-0.5v-4c0-0.276,0.224-0.5,0.5-0.5s0.5,0.224,0.5,0.5v4
			C17.5,14.276,17.276,14.5,17,14.5z"/>
	</g>
	<g>
		<path class="st0" d="M13.5,17.5h-4C9.224,17.5,9,17.276,9,17s0.224-0.5,0.5-0.5h4c0.276,0,0.5,0.224,0.5,0.5
			S13.776,17.5,13.5,17.5z"/>
	</g>
	<g>
		<path class="st0" d="M11.5,19.5c-0.276,0-0.5-0.224-0.5-0.5v-4c0-0.276,0.224-0.5,0.5-0.5S12,14.724,12,15v4
			C12,19.276,11.776,19.5,11.5,19.5z"/>
	</g>
</g>
</svg>
