<?xml version="1.0" encoding="utf-8"?>
<!-- Generator: Adobe Illustrator 21.1.0, SVG Export Plug-In . SVG Version: 6.00 Build 0)  -->
<svg version="1.1" id="Layer_1" xmlns="http://www.w3.org/2000/svg" xmlns:xlink="http://www.w3.org/1999/xlink" x="0px" y="0px"
	 viewBox="0 0 64 64" style="enable-background:new 0 0 64 64;" xml:space="preserve">
<style type="text/css">
	.st0{fill:#263238;}
	.st1{fill:#FFD740;}
	.st2{fill:#40C4FF;}
	.st3{fill:#FF5252;}
	.st4{fill:#4DB6AC;}
	.st5{fill:#FFFFFF;}
	.st6{fill:#37474F;}
	.st7{fill:#4FC3F7;}
</style>
<g>
	<g>
		<path class="st0" d="M14,57.003H4c-0.276,0-0.5-0.224-0.5-0.5s0.224-0.5,0.5-0.5h10c0.276,0,0.5,0.224,0.5,0.5
			S14.276,57.003,14,57.003z"/>
	</g>
	<g>
		<path class="st0" d="M2,57.003H1c-0.276,0-0.5-0.224-0.5-0.5s0.224-0.5,0.5-0.5h1c0.276,0,0.5,0.224,0.5,0.5
			S2.276,57.003,2,57.003z"/>
	</g>
	<g>
		<path class="st0" d="M60,57.003H50c-0.276,0-0.5-0.224-0.5-0.5s0.224-0.5,0.5-0.5h10c0.276,0,0.5,0.224,0.5,0.5
			S60.276,57.003,60,57.003z"/>
	</g>
	<g>
		<path class="st0" d="M63,57.003h-1c-0.276,0-0.5-0.224-0.5-0.5s0.224-0.5,0.5-0.5h1c0.276,0,0.5,0.224,0.5,0.5
			S63.276,57.003,63,57.003z"/>
	</g>
	<g>
		<path class="st0" d="M30.75,13h-4c-0.276,0-0.5-0.224-0.5-0.5s0.224-0.5,0.5-0.5h4c0.276,0,0.5,0.224,0.5,0.5S31.026,13,30.75,13z
			"/>
	</g>
	<g>
		<path class="st0" d="M37.25,8h-4c-0.276,0-0.5-0.224-0.5-0.5S32.974,7,33.25,7h4c0.276,0,0.5,0.224,0.5,0.5S37.526,8,37.25,8z"/>
	</g>
	<g>
		<path class="st0" d="M35.25,10c-0.276,0-0.5-0.224-0.5-0.5v-4c0-0.276,0.224-0.5,0.5-0.5s0.5,0.224,0.5,0.5v4
			C35.75,9.776,35.526,10,35.25,10z"/>
	</g>
	<g>
		<path class="st0" d="M28.75,15c-0.276,0-0.5-0.224-0.5-0.5v-4c0-0.276,0.224-0.5,0.5-0.5s0.5,0.224,0.5,0.5v4
			C29.25,14.776,29.026,15,28.75,15z"/>
	</g>
	<g>
		<path class="st0" d="M32,38.998c-4.687,0-8.5-3.813-8.5-8.5s3.813-8.5,8.5-8.5s8.5,3.813,8.5,8.5S36.688,38.998,32,38.998z
			 M32,22.998c-4.136,0-7.5,3.364-7.5,7.5s3.364,7.5,7.5,7.5s7.5-3.364,7.5-7.5S36.136,22.998,32,22.998z"/>
	</g>
	<g>
		<path class="st1" d="M37.547,25.872l0.596-0.496c-1.468-1.758-3.674-2.878-6.143-2.878c-4.418,0-8,3.582-8,8h0.755
			C29.429,30.498,33.955,28.861,37.547,25.872z"/>
		<path class="st0" d="M24.755,30.998H24c-0.276,0-0.5-0.224-0.5-0.5c0-4.687,3.813-8.5,8.5-8.5c2.526,0,4.905,1.114,6.527,3.058
			c0.085,0.102,0.126,0.233,0.114,0.365c-0.012,0.133-0.076,0.255-0.178,0.34l-0.596,0.496
			C34.193,29.314,29.536,30.998,24.755,30.998z M24.517,29.998h0.238c4.547,0,8.977-1.602,12.472-4.511l0,0l0.199-0.165
			c-1.414-1.482-3.365-2.324-5.426-2.324C28.033,22.998,24.775,26.095,24.517,29.998z"/>
	</g>
	<g>
		<path class="st0" d="M35,39.999c-0.276,0-0.5-0.224-0.5-0.5v-1.591c0-0.276,0.224-0.5,0.5-0.5s0.5,0.224,0.5,0.5v1.591
			C35.5,39.775,35.276,39.999,35,39.999z"/>
	</g>
	<g>
		<path class="st0" d="M29.001,39.999c-0.276,0-0.5-0.224-0.5-0.5L28.5,37.916c0-0.275,0.224-0.5,0.5-0.5c0,0,0,0,0,0
			c0.276,0,0.5,0.224,0.5,0.5l0.001,1.583C29.501,39.774,29.277,39.999,29.001,39.999C29.001,39.999,29.001,39.999,29.001,39.999z"
			/>
	</g>
	<g>
		<path class="st0" d="M36,44.5L36,44.5l-8-0.001c-0.152,0-0.295-0.069-0.39-0.188c-0.095-0.118-0.131-0.272-0.098-0.421l1-4.5
			c0.043-0.195,0.2-0.347,0.396-0.383c0.2-0.035,0.397,0.048,0.508,0.214L32,43.098l2.583-3.875c0.111-0.166,0.31-0.253,0.508-0.214
			c0.197,0.036,0.353,0.188,0.396,0.383l1,4.5c0.033,0.148-0.003,0.303-0.098,0.421C36.295,44.432,36.152,44.5,36,44.5z
			 M32.935,43.5h2.442l-0.61-2.748L32.935,43.5z M28.624,43.499h2.443l-1.832-2.748L28.624,43.499z"/>
	</g>
	<g>
		<path class="st0" d="M25,54.998c-0.276,0-0.5-0.224-0.5-0.5l0-6.998c0-0.276,0.224-0.5,0.5-0.5c0.276,0,0.5,0.224,0.5,0.5l0,6.998
			C25.5,54.774,25.277,54.998,25,54.998z"/>
	</g>
	<g>
		<path class="st0" d="M20,54.998L20,54.998c-0.276,0-0.5-0.224-0.5-0.5l0.001-7.75c0-2.171,1.282-4.144,3.266-5.025l6.031-2.681
			c0.252-0.111,0.548,0.002,0.66,0.254s-0.001,0.548-0.254,0.66l-6.031,2.681c-1.624,0.722-2.672,2.335-2.672,4.111l-0.001,7.75
			C20.5,54.774,20.276,54.998,20,54.998z"/>
	</g>
	<g>
		<path class="st0" d="M39,54.998c-0.276,0-0.5-0.224-0.5-0.5V47.5c0-0.276,0.224-0.5,0.5-0.5s0.5,0.224,0.5,0.5v6.998
			C39.5,54.774,39.276,54.998,39,54.998z"/>
	</g>
	<g>
		<path class="st0" d="M44,54.998c-0.276,0-0.5-0.224-0.5-0.5v-7.749c0-1.776-1.049-3.391-2.672-4.111l-6.031-2.681
			c-0.252-0.112-0.366-0.408-0.254-0.66c0.113-0.252,0.409-0.364,0.66-0.254l6.031,2.681c1.984,0.881,3.266,2.854,3.266,5.025v7.749
			C44.5,54.774,44.276,54.998,44,54.998z"/>
	</g>
	<g>
		<path class="st0" d="M13,31.999c-4.687,0-8.5-3.813-8.5-8.5s3.813-8.5,8.5-8.5s8.5,3.813,8.5,8.5S17.688,31.999,13,31.999z
			 M13,15.999c-4.136,0-7.5,3.364-7.5,7.5s3.364,7.5,7.5,7.5s7.5-3.364,7.5-7.5S17.136,15.999,13,15.999z"/>
	</g>
	<g>
		<path class="st1" d="M18.547,18.873l0.596-0.496c-1.468-1.758-3.674-2.878-6.143-2.878c-4.418,0-8,3.582-8,8h0.755
			C10.429,23.499,14.955,21.863,18.547,18.873z"/>
		<path class="st0" d="M5.755,23.999H5c-0.276,0-0.5-0.224-0.5-0.5c0-4.687,3.813-8.5,8.5-8.5c2.526,0,4.905,1.115,6.527,3.059
			c0.085,0.102,0.126,0.233,0.114,0.366c-0.012,0.132-0.077,0.254-0.179,0.339l-0.596,0.495
			C15.192,22.315,10.536,23.999,5.755,23.999z M5.517,22.999h0.238c4.547,0,8.977-1.602,12.472-4.511h0l0.198-0.164
			c-1.414-1.483-3.364-2.325-5.425-2.325C9.033,15.999,5.775,19.096,5.517,22.999z"/>
	</g>
	<g>
		<path class="st0" d="M16,33.001c-0.276,0-0.5-0.224-0.5-0.5V30.91c0-0.276,0.224-0.5,0.5-0.5s0.5,0.224,0.5,0.5v1.591
			C16.5,32.777,16.276,33.001,16,33.001z"/>
	</g>
	<g>
		<path class="st0" d="M10.001,33.001c-0.276,0-0.5-0.224-0.5-0.5L9.5,30.918c0-0.275,0.224-0.5,0.5-0.5c0,0,0,0,0,0
			c0.276,0,0.5,0.224,0.5,0.5l0.001,1.583C10.501,32.776,10.277,33.001,10.001,33.001C10.001,33.001,10.001,33.001,10.001,33.001z"
			/>
	</g>
	<g>
		<path class="st0" d="M17,37.501H9c-0.152,0-0.295-0.068-0.39-0.188c-0.095-0.118-0.131-0.272-0.098-0.421l1-4.5
			c0.043-0.195,0.2-0.347,0.396-0.383c0.202-0.037,0.397,0.048,0.508,0.214L13,36.1l2.583-3.876
			c0.111-0.167,0.308-0.254,0.508-0.214c0.197,0.036,0.353,0.188,0.396,0.383l1,4.5c0.033,0.148-0.003,0.303-0.098,0.421
			C17.295,37.433,17.152,37.501,17,37.501z M13.935,36.501h2.442l-0.61-2.748L13.935,36.501z M9.624,36.501h2.442l-1.832-2.748
			L9.624,36.501z"/>
	</g>
	<g>
		<path class="st0" d="M6,49.999c-0.276,0-0.5-0.224-0.5-0.5l0-8.998c0-0.276,0.224-0.5,0.5-0.5c0.276,0,0.5,0.224,0.5,0.5l0,8.998
			C6.5,49.775,6.277,49.999,6,49.999z"/>
	</g>
	<g>
		<path class="st0" d="M1,49.999L1,49.999c-0.276,0-0.5-0.224-0.5-0.5l0.001-9.749c0-2.171,1.282-4.145,3.266-5.026l6.031-2.68
			c0.253-0.113,0.547,0.002,0.66,0.254c0.112,0.253-0.001,0.548-0.254,0.66l-6.031,2.68c-1.624,0.722-2.672,2.336-2.672,4.112
			L1.5,49.499C1.5,49.775,1.276,49.999,1,49.999z"/>
	</g>
	<g>
		<path class="st0" d="M24.958,39.607c-0.248,0-0.463-0.184-0.496-0.436c-0.2-1.547-1.21-2.9-2.635-3.533l-6.031-2.681
			c-0.252-0.112-0.366-0.408-0.254-0.66c0.113-0.252,0.409-0.366,0.66-0.254l6.031,2.681c1.742,0.773,2.976,2.429,3.221,4.318
			c0.036,0.274-0.158,0.524-0.431,0.561C25.001,39.606,24.98,39.607,24.958,39.607z"/>
	</g>
	<g>
		<path class="st0" d="M51,31.999c-4.687,0-8.5-3.813-8.5-8.5s3.813-8.5,8.5-8.5s8.5,3.813,8.5,8.5S55.687,31.999,51,31.999z
			 M51,15.999c-4.136,0-7.5,3.364-7.5,7.5s3.364,7.5,7.5,7.5s7.5-3.364,7.5-7.5S55.136,15.999,51,15.999z"/>
	</g>
	<g>
		<path class="st1" d="M56.547,18.873l0.596-0.496c-1.468-1.758-3.674-2.878-6.143-2.878c-4.418,0-8,3.582-8,8h0.755
			C48.429,23.499,52.955,21.863,56.547,18.873z"/>
		<path class="st0" d="M43.755,23.999H43c-0.276,0-0.5-0.224-0.5-0.5c0-4.687,3.813-8.5,8.5-8.5c2.526,0,4.905,1.115,6.527,3.059
			c0.085,0.102,0.126,0.233,0.114,0.366c-0.012,0.132-0.077,0.254-0.179,0.339l-0.596,0.495
			C53.192,22.315,48.536,23.999,43.755,23.999z M43.517,22.999h0.239c4.547,0,8.977-1.602,12.472-4.511h0l0.198-0.164
			c-1.414-1.483-3.364-2.325-5.425-2.325C47.033,15.999,43.775,19.096,43.517,22.999z"/>
	</g>
	<g>
		<path class="st0" d="M48,33.001c-0.276,0-0.5-0.224-0.5-0.5V30.91c0-0.276,0.224-0.5,0.5-0.5s0.5,0.224,0.5,0.5v1.591
			C48.5,32.777,48.276,33.001,48,33.001z"/>
	</g>
	<g>
		<path class="st0" d="M54,33.001L54,33.001c-0.276,0-0.5-0.224-0.5-0.5l0-1.583c0-0.276,0.224-0.5,0.5-0.5l0,0
			c0.276,0,0.5,0.224,0.5,0.5l0,1.583C54.5,32.777,54.275,33.001,54,33.001z"/>
	</g>
	<g>
		<path class="st0" d="M55,37.501h-8c-0.152,0-0.295-0.068-0.39-0.188c-0.095-0.118-0.131-0.272-0.098-0.421l1-4.5
			c0.043-0.195,0.2-0.347,0.396-0.383c0.2-0.037,0.397,0.048,0.508,0.214L51,36.1l2.584-3.876c0.111-0.167,0.309-0.254,0.508-0.214
			c0.197,0.036,0.353,0.188,0.396,0.383l1,4.5c0.033,0.148-0.003,0.303-0.098,0.421C55.295,37.433,55.152,37.501,55,37.501z
			 M51.934,36.501h2.442l-0.61-2.748L51.934,36.501z M47.624,36.501h2.442l-1.832-2.748L47.624,36.501z"/>
	</g>
	<g>
		<path class="st0" d="M58,49.999c-0.276,0-0.5-0.224-0.5-0.5v-8.998c0-0.276,0.224-0.5,0.5-0.5s0.5,0.224,0.5,0.5v8.998
			C58.5,49.775,58.276,49.999,58,49.999z"/>
	</g>
	<g>
		<path class="st0" d="M63,49.999c-0.276,0-0.5-0.224-0.5-0.5l0-9.749c0-1.776-1.049-3.391-2.672-4.112l-6.031-2.68
			c-0.252-0.112-0.366-0.407-0.254-0.66c0.112-0.252,0.408-0.366,0.66-0.254l6.031,2.68c1.984,0.882,3.266,2.855,3.266,5.026
			l0,9.749C63.5,49.775,63.276,49.999,63,49.999z"/>
	</g>
	<g>
		<path class="st0" d="M39.042,39.607c-0.021,0-0.043-0.001-0.065-0.004c-0.273-0.036-0.467-0.286-0.432-0.561
			c0.245-1.89,1.479-3.545,3.221-4.318l6.031-2.681c0.254-0.112,0.548,0.002,0.66,0.254c0.112,0.252-0.001,0.548-0.254,0.66
			l-6.031,2.681c-1.425,0.633-2.435,1.986-2.635,3.533C39.505,39.424,39.29,39.607,39.042,39.607z"/>
	</g>
</g>
</svg>
