<?xml version="1.0" encoding="utf-8"?>
<!-- Generator: Adobe Illustrator 21.1.0, SVG Export Plug-In . SVG Version: 6.00 Build 0)  -->
<svg version="1.1" id="Layer_1" xmlns="http://www.w3.org/2000/svg" xmlns:xlink="http://www.w3.org/1999/xlink" x="0px" y="0px"
	 viewBox="0 0 64 64" style="enable-background:new 0 0 64 64;" xml:space="preserve">
<style type="text/css">
	.st0{fill:#263238;}
	.st1{fill:#FFD740;}
	.st2{fill:#40C4FF;}
	.st3{fill:#FF5252;}
	.st4{fill:#4DB6AC;}
	.st5{fill:#FFFFFF;}
	.st6{fill:#37474F;}
	.st7{fill:#4FC3F7;}
</style>
<g>
	<g>
		<path class="st0" d="M37,16.447c-0.276,0-0.5-0.224-0.5-0.5v-2c0-1.379-1.121-2.5-2.5-2.5h-4c-1.379,0-2.5,1.121-2.5,2.5v2
			c0,0.276-0.224,0.5-0.5,0.5s-0.5-0.224-0.5-0.5v-2c0-1.93,1.57-3.5,3.5-3.5h4c1.93,0,3.5,1.57,3.5,3.5v2
			C37.5,16.224,37.276,16.447,37,16.447z"/>
	</g>
	<g>
		<path class="st2" d="M32,17.947c-11.598,0-21,9.402-21,21s9.402,21,21,21s21-9.402,21-21S43.598,17.947,32,17.947z M32,56.947
			c-9.941,0-18-8.059-18-18c0-9.941,8.059-18,18-18s18,8.059,18,18C50,48.888,41.941,56.947,32,56.947z"/>
		<path class="st0" d="M32,60.447c-11.855,0-21.5-9.645-21.5-21.5s9.645-21.5,21.5-21.5s21.5,9.645,21.5,21.5
			S43.855,60.447,32,60.447z M32,18.447c-11.304,0-20.5,9.196-20.5,20.5s9.196,20.5,20.5,20.5s20.5-9.196,20.5-20.5
			S43.304,18.447,32,18.447z M32,57.447c-10.201,0-18.5-8.299-18.5-18.5s8.299-18.5,18.5-18.5s18.5,8.299,18.5,18.5
			S42.201,57.447,32,57.447z M32,21.447c-9.649,0-17.5,7.851-17.5,17.5s7.851,17.5,17.5,17.5s17.5-7.851,17.5-17.5
			S41.649,21.447,32,21.447z"/>
	</g>
	<g>
		<path class="st0" d="M32,43.447c-2.481,0-4.5-2.019-4.5-4.5s2.019-4.5,4.5-4.5s4.5,2.019,4.5,4.5S34.481,43.447,32,43.447z
			 M32,35.447c-1.93,0-3.5,1.57-3.5,3.5s1.57,3.5,3.5,3.5s3.5-1.57,3.5-3.5S33.93,35.447,32,35.447z"/>
	</g>
	<g>
		<path class="st3" d="M42.606,28.34l-11.713,6.781c0.354-0.102,0.72-0.174,1.106-0.174c2.209,0,4,1.791,4,4
			c0,0.386-0.072,0.752-0.174,1.105L42.606,28.34z"/>
		<path class="st0" d="M35.826,40.552c-0.065,0-0.132-0.013-0.195-0.04c-0.232-0.099-0.354-0.355-0.285-0.598
			c0.105-0.367,0.154-0.674,0.154-0.967c0-1.93-1.57-3.5-3.5-3.5c-0.298,0-0.604,0.049-0.967,0.154
			c-0.248,0.068-0.501-0.052-0.6-0.284c-0.1-0.232-0.01-0.502,0.209-0.629l11.713-6.781c0.195-0.113,0.443-0.082,0.604,0.079
			c0.16,0.16,0.192,0.408,0.079,0.604l-6.78,11.712C36.167,40.461,36,40.552,35.826,40.552z M32.899,34.537
			c1.761,0.359,3.15,1.749,3.51,3.509l4.825-8.334L32.899,34.537z"/>
	</g>
	<g>
		<path class="st1" d="M32,42.947c-2.209,0-4-1.791-4-4c0-0.387,0.072-0.753,0.175-1.107l-6.782,11.714l11.712-6.781
			C32.752,42.875,32.386,42.947,32,42.947z"/>
		<path class="st0" d="M21.394,50.054c-0.129,0-0.257-0.05-0.354-0.146c-0.16-0.16-0.192-0.408-0.079-0.604l6.781-11.714
			c0.127-0.219,0.399-0.308,0.629-0.209c0.232,0.1,0.354,0.356,0.284,0.6c-0.106,0.364-0.155,0.672-0.155,0.968
			c0,1.93,1.57,3.5,3.5,3.5c0.295,0,0.602-0.049,0.966-0.155c0.246-0.067,0.501,0.052,0.6,0.284c0.1,0.232,0.01,0.502-0.209,0.629
			l-11.712,6.781C21.566,50.031,21.479,50.054,21.394,50.054z M27.591,39.848l-4.825,8.334l8.333-4.825
			C29.339,42.997,27.949,41.607,27.591,39.848z"/>
	</g>
	<g>
		<path class="st0" d="M51.799,59.246c-0.128,0-0.256-0.049-0.354-0.146c-0.195-0.195-0.195-0.512,0-0.707
			c10.722-10.723,10.722-28.168,0-38.891c-0.195-0.195-0.195-0.512,0-0.707s0.512-0.195,0.707,0
			c11.112,11.112,11.112,29.192,0,40.305C52.055,59.197,51.927,59.246,51.799,59.246z"/>
	</g>
	<g>
		<path class="st0" d="M50.385,18.234c-0.128,0-0.256-0.049-0.354-0.146l-0.707-0.708c-0.195-0.195-0.195-0.512,0-0.707
			s0.512-0.195,0.707,0l0.707,0.708c0.195,0.195,0.195,0.512,0,0.707C50.641,18.186,50.513,18.234,50.385,18.234z"/>
	</g>
	<g>
		<path class="st0" d="M12.201,59.246c-0.128,0-0.256-0.049-0.354-0.146c-11.112-11.112-11.112-29.192,0-40.305
			c0.195-0.195,0.512-0.195,0.707,0s0.195,0.512,0,0.707c-10.722,10.723-10.722,28.168,0,38.891c0.195,0.195,0.195,0.512,0,0.707
			C12.457,59.197,12.329,59.246,12.201,59.246z"/>
	</g>
	<g>
		<path class="st0" d="M13.615,18.234c-0.128,0-0.256-0.049-0.354-0.146c-0.195-0.195-0.195-0.512,0-0.707l0.707-0.708
			c0.195-0.195,0.512-0.195,0.707,0s0.195,0.512,0,0.707l-0.707,0.708C13.871,18.186,13.743,18.234,13.615,18.234z"/>
	</g>
	<g>
		<path class="st0" d="M48.5,10.447h-4c-0.276,0-0.5-0.224-0.5-0.5s0.224-0.5,0.5-0.5h4c0.276,0,0.5,0.224,0.5,0.5
			S48.776,10.447,48.5,10.447z"/>
	</g>
	<g>
		<path class="st0" d="M55,5.447h-4c-0.276,0-0.5-0.224-0.5-0.5s0.224-0.5,0.5-0.5h4c0.276,0,0.5,0.224,0.5,0.5
			S55.276,5.447,55,5.447z"/>
	</g>
	<g>
		<path class="st0" d="M53,7.447c-0.276,0-0.5-0.224-0.5-0.5v-4c0-0.276,0.224-0.5,0.5-0.5s0.5,0.224,0.5,0.5v4
			C53.5,7.224,53.276,7.447,53,7.447z"/>
	</g>
	<g>
		<path class="st0" d="M46.5,12.447c-0.276,0-0.5-0.224-0.5-0.5v-4c0-0.276,0.224-0.5,0.5-0.5s0.5,0.224,0.5,0.5v4
			C47,12.224,46.776,12.447,46.5,12.447z"/>
	</g>
	<g>
		<path class="st0" d="M38.647,12.634c-0.052,0-0.104-0.008-0.156-0.025c-0.263-0.086-0.405-0.368-0.318-0.631
			c0.218-0.662,0.328-1.346,0.328-2.03c0-3.584-2.916-6.5-6.5-6.5s-6.5,2.916-6.5,6.5c0,0.687,0.11,1.369,0.327,2.029
			c0.087,0.263-0.056,0.545-0.318,0.631c-0.264,0.089-0.545-0.056-0.631-0.318c-0.251-0.762-0.378-1.549-0.378-2.342
			c0-4.136,3.364-7.5,7.5-7.5s7.5,3.364,7.5,7.5c0,0.791-0.127,1.579-0.379,2.343C39.053,12.5,38.857,12.634,38.647,12.634z"/>
	</g>
</g>
</svg>
