<?xml version="1.0" encoding="utf-8"?>
<!-- Generator: Adobe Illustrator 21.1.0, SVG Export Plug-In . SVG Version: 6.00 Build 0)  -->
<svg version="1.1" id="Layer_1" xmlns="http://www.w3.org/2000/svg" xmlns:xlink="http://www.w3.org/1999/xlink" x="0px" y="0px"
	 viewBox="0 0 64 64" style="enable-background:new 0 0 64 64;" xml:space="preserve">
<style type="text/css">
	.st0{fill:#263238;}
	.st1{fill:#FFD740;}
	.st2{fill:#40C4FF;}
	.st3{fill:#FF5252;}
	.st4{fill:#4DB6AC;}
	.st5{fill:#FFFFFF;}
	.st6{fill:#37474F;}
	.st7{fill:#4FC3F7;}
</style>
<g>
	<g>
		<path class="st0" d="M61.75,16h-7c-0.276,0-0.5-0.224-0.5-0.5s0.224-0.5,0.5-0.5h6.5v-4c0-2.206-1.794-4-4-4
			c-0.276,0-0.5-0.224-0.5-0.5S56.974,6,57.25,6c2.757,0,5,2.243,5,5v4.5C62.25,15.776,62.026,16,61.75,16z"/>
	</g>
	<g>
		<path class="st0" d="M38.249,34H20.75c-0.276,0-0.5-0.224-0.5-0.5s0.224-0.5,0.5-0.5h17.499c0.276,0,0.5,0.224,0.5,0.5
			S38.525,34,38.249,34z"/>
	</g>
	<g>
		<path class="st0" d="M33.249,38H20.75c-0.276,0-0.5-0.224-0.5-0.5s0.224-0.5,0.5-0.5h12.499c0.276,0,0.5,0.224,0.5,0.5
			S33.525,38,33.249,38z"/>
	</g>
	<g>
		<path class="st0" d="M33.249,45H20.75c-0.276,0-0.5-0.224-0.5-0.5s0.224-0.5,0.5-0.5h12.499c0.276,0,0.5,0.224,0.5,0.5
			S33.525,45,33.249,45z"/>
	</g>
	<g>
		<path class="st0" d="M43.249,30H20.75c-0.276,0-0.5-0.224-0.5-0.5s0.224-0.5,0.5-0.5h22.499c0.276,0,0.5,0.224,0.5,0.5
			S43.525,30,43.249,30z"/>
	</g>
	<g>
		<path class="st1" d="M60.608,19.412L60.13,18.5L40.381,38.248c-0.938,0.938-1.464,2.209-1.464,3.536v2.172l1.414,1.414h2.172
			c1.326,0,2.598-0.527,3.536-1.464l12.782-12.782C61.913,28.03,62.637,23.286,60.608,19.412z"/>
		<path class="st0" d="M42.503,45.87h-2.172c-0.133,0-0.26-0.053-0.354-0.146l-1.414-1.414c-0.094-0.094-0.146-0.221-0.146-0.354
			v-2.171c0-1.47,0.572-2.851,1.61-3.889l19.749-19.749c0.113-0.113,0.278-0.165,0.429-0.141c0.157,0.024,0.294,0.121,0.368,0.262
			l0.478,0.912c2.143,4.09,1.389,9.031-1.877,12.297L46.392,44.259C45.353,45.297,43.972,45.87,42.503,45.87z M40.538,44.87h1.965
			c1.202,0,2.332-0.468,3.182-1.318L58.467,30.77c2.954-2.955,3.637-7.426,1.697-11.126l0,0l-0.162-0.31L40.734,38.602
			c-0.85,0.85-1.317,1.979-1.317,3.182v1.964L40.538,44.87z"/>
	</g>
	<g>
		<path class="st0" d="M11.75,51.5c-0.276,0-0.5-0.224-0.5-0.5V11.5c0-3.033,2.468-5.5,5.5-5.5h40.5c0.276,0,0.5,0.224,0.5,0.5
			S57.526,7,57.25,7c-2.206,0-4,1.794-4,4v12.052c0,0.276-0.224,0.5-0.5,0.5s-0.5-0.224-0.5-0.5V11c0-1.634,0.788-3.087,2.003-4
			H16.75c-2.481,0-4.5,2.019-4.5,4.5V51C12.25,51.276,12.026,51.5,11.75,51.5z"/>
	</g>
	<g>
		<path class="st0" d="M48,62.475c-0.265,0-0.486-0.208-0.499-0.475c-0.015-0.276,0.198-0.511,0.474-0.525
			c2.397-0.121,4.275-2.087,4.275-4.476V40.022c0-0.276,0.224-0.5,0.5-0.5s0.5,0.224,0.5,0.5V57c0,2.922-2.295,5.327-5.225,5.475
			C48.017,62.475,48.008,62.475,48,62.475z"/>
	</g>
	<g>
		<path class="st0" d="M35.044,49.742c-0.128,0-0.256-0.049-0.354-0.146c-0.195-0.195-0.195-0.512,0-0.707l13.772-13.772
			c0.195-0.195,0.512-0.195,0.707,0s0.195,0.512,0,0.707L35.397,49.596C35.3,49.693,35.172,49.742,35.044,49.742z"/>
	</g>
	<g>
		<path class="st2" d="M43.75,57.5V53h-41v4.5c0,2.485,2.015,4.5,4.5,4.5h41C45.764,62,43.75,59.985,43.75,57.5z"/>
		<path class="st0" d="M48.25,62.5h-41c-2.757,0-5-2.243-5-5V53c0-0.276,0.224-0.5,0.5-0.5h41c0.276,0,0.5,0.224,0.5,0.5v4.5
			c0,2.206,1.794,4,4,4c0.276,0,0.5,0.224,0.5,0.5S48.526,62.5,48.25,62.5z M3.25,53.5v4c0,2.206,1.794,4,4,4h38.003
			c-1.215-0.913-2.003-2.366-2.003-4v-4H3.25z"/>
	</g>
	<g>
		<circle class="st3" cx="43.75" cy="17" r="4"/>
		<path class="st0" d="M43.75,21.5c-2.481,0-4.5-2.019-4.5-4.5s2.019-4.5,4.5-4.5s4.5,2.019,4.5,4.5S46.231,21.5,43.75,21.5z
			 M43.75,13.5c-1.93,0-3.5,1.57-3.5,3.5s1.57,3.5,3.5,3.5s3.5-1.57,3.5-3.5S45.68,13.5,43.75,13.5z"/>
	</g>
	<g>
		<path class="st0" d="M32.25,16h-9c-0.276,0-0.5-0.224-0.5-0.5s0.224-0.5,0.5-0.5h9c0.276,0,0.5,0.224,0.5,0.5S32.526,16,32.25,16z
			"/>
	</g>
	<g>
		<path class="st0" d="M28,19h-4.75c-0.276,0-0.5-0.224-0.5-0.5s0.224-0.5,0.5-0.5H28c0.276,0,0.5,0.224,0.5,0.5S28.276,19,28,19z"
			/>
	</g>
	<g>
		<path class="st0" d="M6.25,9h-4c-0.276,0-0.5-0.224-0.5-0.5S1.974,8,2.25,8h4c0.276,0,0.5,0.224,0.5,0.5S6.526,9,6.25,9z"/>
	</g>
	<g>
		<path class="st0" d="M11.75,4.5h-4c-0.276,0-0.5-0.224-0.5-0.5s0.224-0.5,0.5-0.5h4c0.276,0,0.5,0.224,0.5,0.5
			S12.026,4.5,11.75,4.5z"/>
	</g>
	<g>
		<path class="st0" d="M9.75,6.5c-0.276,0-0.5-0.224-0.5-0.5V2c0-0.276,0.224-0.5,0.5-0.5s0.5,0.224,0.5,0.5v4
			C10.25,6.276,10.026,6.5,9.75,6.5z"/>
	</g>
	<g>
		<path class="st0" d="M4.25,11c-0.276,0-0.5-0.224-0.5-0.5v-4c0-0.276,0.224-0.5,0.5-0.5s0.5,0.224,0.5,0.5v4
			C4.75,10.776,4.526,11,4.25,11z"/>
	</g>
	<g>
		<path class="st0" d="M7.75,37.5c-0.276,0-0.5-0.224-0.5-0.5v-2c0-0.276,0.224-0.5,0.5-0.5s0.5,0.224,0.5,0.5v2
			C8.25,37.276,8.026,37.5,7.75,37.5z"/>
	</g>
	<g>
		<path class="st0" d="M7.75,33.5c-0.276,0-0.5-0.224-0.5-0.5V17c0-0.276,0.224-0.5,0.5-0.5s0.5,0.224,0.5,0.5v16
			C8.25,33.276,8.026,33.5,7.75,33.5z"/>
	</g>
	<g>
		<path class="st0" d="M56.75,42c-0.276,0-0.5-0.224-0.5-0.5v-2c0-0.276,0.224-0.5,0.5-0.5s0.5,0.224,0.5,0.5v2
			C57.25,41.776,57.026,42,56.75,42z"/>
	</g>
	<g>
		<path class="st0" d="M56.75,60c-0.276,0-0.5-0.224-0.5-0.5v-16c0-0.276,0.224-0.5,0.5-0.5s0.5,0.224,0.5,0.5v16
			C57.25,59.776,57.026,60,56.75,60z"/>
	</g>
	<g>
		<path class="st0" d="M34.75,21.5h-14c-0.276,0-0.5-0.224-0.5-0.5v-8c0-0.276,0.224-0.5,0.5-0.5h14c0.276,0,0.5,0.224,0.5,0.5v8
			C35.25,21.276,35.026,21.5,34.75,21.5z M21.25,20.5h13v-7h-13V20.5z"/>
	</g>
</g>
</svg>
