<?xml version="1.0" encoding="utf-8"?>
<!-- Generator: Adobe Illustrator 21.1.0, SVG Export Plug-In . SVG Version: 6.00 Build 0)  -->
<svg version="1.1" id="Layer_1" xmlns="http://www.w3.org/2000/svg" xmlns:xlink="http://www.w3.org/1999/xlink" x="0px" y="0px"
	 viewBox="0 0 64 64" style="enable-background:new 0 0 64 64;" xml:space="preserve">
<style type="text/css">
	.st0{fill:#263238;}
	.st1{fill:#FFD740;}
	.st2{fill:#40C4FF;}
	.st3{fill:#FF5252;}
	.st4{fill:#4DB6AC;}
	.st5{fill:#FFFFFF;}
	.st6{fill:#37474F;}
	.st7{fill:#4FC3F7;}
</style>
<g>
	<g>
		<path class="st1" d="M61.983,48.5H2.016C1.455,48.5,1,48.052,1,47.5v-2c0-0.552,0.455-1,1.016-1h59.967
			c0.561,0,1.016,0.448,1.016,1v2C63,48.052,62.544,48.5,61.983,48.5z"/>
		<path class="st0" d="M61.983,49H2.016C1.18,49,0.5,48.327,0.5,47.5v-2c0-0.827,0.68-1.5,1.517-1.5h59.967
			c0.836,0,1.517,0.673,1.517,1.5v2C63.5,48.327,62.819,49,61.983,49z M2.016,45C1.731,45,1.5,45.224,1.5,45.5v2
			c0,0.276,0.232,0.5,0.517,0.5h59.967c0.285,0,0.517-0.224,0.517-0.5v-2c0-0.276-0.232-0.5-0.517-0.5H2.016z"/>
	</g>
	<g>
		<path class="st0" d="M7.5,64.5C7.223,64.5,7,64.276,7,64V50.5C7,50.224,7.223,50,7.5,50S8,50.224,8,50.5V64
			C8,64.276,7.776,64.5,7.5,64.5z"/>
	</g>
	<g>
		<path class="st0" d="M3.5,64.5C3.223,64.5,3,64.276,3,64V50.5C3,50.224,3.223,50,3.5,50S4,50.224,4,50.5V64
			C4,64.276,3.776,64.5,3.5,64.5z"/>
	</g>
	<g>
		<path class="st0" d="M19.5,64.5c-0.276,0-0.5-0.224-0.5-0.5v-5c0-0.276,0.224-0.5,0.5-0.5S20,58.724,20,59v5
			C20,64.276,19.776,64.5,19.5,64.5z"/>
	</g>
	<g>
		<path class="st0" d="M16.5,64.5c-0.276,0-0.5-0.224-0.5-0.5v-5c0-0.276,0.224-0.5,0.5-0.5S17,58.724,17,59v5
			C17,64.276,16.776,64.5,16.5,64.5z"/>
	</g>
	<g>
		<path class="st0" d="M60.5,64.5c-0.276,0-0.5-0.224-0.5-0.5V50.5c0-0.276,0.224-0.5,0.5-0.5s0.5,0.224,0.5,0.5V64
			C61,64.276,60.776,64.5,60.5,64.5z"/>
	</g>
	<g>
		<path class="st0" d="M56.5,64.5c-0.276,0-0.5-0.224-0.5-0.5V50.5c0-0.276,0.224-0.5,0.5-0.5s0.5,0.224,0.5,0.5V64
			C57,64.276,56.776,64.5,56.5,64.5z"/>
	</g>
	<g>
		<path class="st3" d="M23,57H13c-0.552,0-1-0.448-1-1v-2c0-0.552,0.448-1,1-1h10c0.552,0,1,0.448,1,1v2C24,56.552,23.552,57,23,57z
			"/>
		<path class="st0" d="M23,57.5H13c-0.827,0-1.5-0.673-1.5-1.5v-2c0-0.827,0.673-1.5,1.5-1.5h10c0.827,0,1.5,0.673,1.5,1.5v2
			C24.5,56.827,23.827,57.5,23,57.5z M13,53.5c-0.276,0-0.5,0.224-0.5,0.5v2c0,0.276,0.224,0.5,0.5,0.5h10
			c0.276,0,0.5-0.224,0.5-0.5v-2c0-0.276-0.224-0.5-0.5-0.5H13z"/>
	</g>
	<g>
		<path class="st0" d="M47.5,64.5c-0.276,0-0.5-0.224-0.5-0.5v-5c0-0.276,0.224-0.5,0.5-0.5S48,58.724,48,59v5
			C48,64.276,47.776,64.5,47.5,64.5z"/>
	</g>
	<g>
		<path class="st0" d="M44.5,64.5c-0.276,0-0.5-0.224-0.5-0.5v-5c0-0.276,0.224-0.5,0.5-0.5S45,58.724,45,59v5
			C45,64.276,44.776,64.5,44.5,64.5z"/>
	</g>
	<g>
		<path class="st3" d="M51,57H41c-0.552,0-1-0.448-1-1v-2c0-0.552,0.448-1,1-1h10c0.552,0,1,0.448,1,1v2C52,56.552,51.552,57,51,57z
			"/>
		<path class="st0" d="M51,57.5H41c-0.827,0-1.5-0.673-1.5-1.5v-2c0-0.827,0.673-1.5,1.5-1.5h10c0.827,0,1.5,0.673,1.5,1.5v2
			C52.5,56.827,51.827,57.5,51,57.5z M41,53.5c-0.276,0-0.5,0.224-0.5,0.5v2c0,0.276,0.224,0.5,0.5,0.5h10
			c0.276,0,0.5-0.224,0.5-0.5v-2c0-0.276-0.224-0.5-0.5-0.5H41z"/>
	</g>
	<g>
		<polygon class="st2" points="25,20.292 11,20.292 18,12.292 		"/>
		<path class="st0" d="M25,20.792H11c-0.196,0-0.374-0.115-0.455-0.293c-0.082-0.179-0.05-0.388,0.079-0.536l7-8
			c0.19-0.218,0.562-0.218,0.753,0l7,8c0.129,0.147,0.16,0.357,0.079,0.536C25.374,20.677,25.196,20.792,25,20.792z M12.102,19.792
			h11.796L18,13.051L12.102,19.792z"/>
	</g>
	<g>
		<path class="st6" d="M18,12.792c-0.276,0-0.5-0.224-0.5-0.5V4.625c0-0.276,0.224-0.5,0.5-0.5s0.5,0.224,0.5,0.5v7.667
			C18.5,12.568,18.276,12.792,18,12.792z"/>
	</g>
	<g>
		<path class="st6" d="M18,22.792c-1.378,0-2.5-1.122-2.5-2.5c0-0.276,0.224-0.5,0.5-0.5h4c0.276,0,0.5,0.224,0.5,0.5
			C20.5,21.67,19.378,22.792,18,22.792z M16.585,20.792c0.207,0.582,0.763,1,1.415,1s1.208-0.418,1.415-1H16.585z"/>
	</g>
	<g>
		<polygon class="st2" points="53,20.292 39,20.292 46,12.292 		"/>
		<path class="st0" d="M53,20.792H39c-0.196,0-0.374-0.115-0.455-0.293c-0.082-0.179-0.05-0.388,0.079-0.536l7-8
			c0.19-0.218,0.562-0.218,0.753,0l7,8c0.129,0.147,0.16,0.357,0.079,0.536C53.374,20.677,53.196,20.792,53,20.792z M40.102,19.792
			h11.796L46,13.051L40.102,19.792z"/>
	</g>
	<g>
		<path class="st6" d="M46,12.792c-0.276,0-0.5-0.224-0.5-0.5V4.625c0-0.276,0.224-0.5,0.5-0.5s0.5,0.224,0.5,0.5v7.667
			C46.5,12.568,46.276,12.792,46,12.792z"/>
	</g>
	<g>
		<path class="st0" d="M46,22.792c-1.378,0-2.5-1.122-2.5-2.5c0-0.276,0.224-0.5,0.5-0.5h4c0.276,0,0.5,0.224,0.5,0.5
			C48.5,21.67,47.378,22.792,46,22.792z M44.585,20.792c0.207,0.582,0.763,1,1.415,1s1.208-0.418,1.415-1H44.585z"/>
	</g>
	<g>
		<path class="st0" d="M54,42.5H38c-0.827,0-1.5-0.673-1.5-1.5V31c0-0.827,0.673-1.5,1.5-1.5h16c0.827,0,1.5,0.673,1.5,1.5v10
			C55.5,41.827,54.827,42.5,54,42.5z M38,30.5c-0.276,0-0.5,0.224-0.5,0.5v10c0,0.276,0.224,0.5,0.5,0.5h16
			c0.276,0,0.5-0.224,0.5-0.5V31c0-0.276-0.224-0.5-0.5-0.5H38z"/>
	</g>
	<g>
		<path class="st0" d="M56,45H36c-0.827,0-1.5-0.673-1.5-1.5V43c0-0.827,0.673-1.5,1.5-1.5h20c0.827,0,1.5,0.673,1.5,1.5v0.5
			C57.5,44.327,56.827,45,56,45z M36,42.5c-0.276,0-0.5,0.224-0.5,0.5v0.5c0,0.276,0.224,0.5,0.5,0.5h20c0.276,0,0.5-0.224,0.5-0.5
			V43c0-0.276-0.224-0.5-0.5-0.5H36z"/>
	</g>
	<g>
		<path class="st0" d="M53,34.5c-0.128,0-0.256-0.049-0.354-0.146l-2-2c-0.195-0.195-0.195-0.512,0-0.707s0.512-0.195,0.707,0l2,2
			c0.195,0.195,0.195,0.512,0,0.707C53.255,34.451,53.127,34.5,53,34.5z"/>
	</g>
	<g>
		<path class="st0" d="M53,37.5c-0.128,0-0.256-0.049-0.354-0.146l-5-5c-0.195-0.195-0.195-0.512,0-0.707s0.512-0.195,0.707,0l5,5
			c0.195,0.195,0.195,0.512,0,0.707C53.255,37.451,53.127,37.5,53,37.5z"/>
	</g>
	<g>
		<path class="st0" d="M26,42.5H10c-0.827,0-1.5-0.673-1.5-1.5V31c0-0.827,0.673-1.5,1.5-1.5h16c0.827,0,1.5,0.673,1.5,1.5v10
			C27.5,41.827,26.827,42.5,26,42.5z M10,30.5c-0.276,0-0.5,0.224-0.5,0.5v10c0,0.276,0.224,0.5,0.5,0.5h16
			c0.276,0,0.5-0.224,0.5-0.5V31c0-0.276-0.224-0.5-0.5-0.5H10z"/>
	</g>
	<g>
		<path class="st0" d="M28,45H8c-0.827,0-1.5-0.673-1.5-1.5V43c0-0.827,0.673-1.5,1.5-1.5h20c0.827,0,1.5,0.673,1.5,1.5v0.5
			C29.5,44.327,28.827,45,28,45z M8,42.5c-0.276,0-0.5,0.224-0.5,0.5v0.5C7.5,43.776,7.724,44,8,44h20c0.276,0,0.5-0.224,0.5-0.5V43
			c0-0.276-0.224-0.5-0.5-0.5H8z"/>
	</g>
	<g>
		<path class="st0" d="M25,34.5c-0.128,0-0.256-0.049-0.354-0.146l-2-2c-0.195-0.195-0.195-0.512,0-0.707s0.512-0.195,0.707,0l2,2
			c0.195,0.195,0.195,0.512,0,0.707C25.255,34.451,25.127,34.5,25,34.5z"/>
	</g>
	<g>
		<path class="st0" d="M25,37.5c-0.128,0-0.256-0.049-0.354-0.146l-5-5c-0.195-0.195-0.195-0.512,0-0.707s0.512-0.195,0.707,0l5,5
			c0.195,0.195,0.195,0.512,0,0.707C25.255,37.451,25.127,37.5,25,37.5z"/>
	</g>
	<g>
		<path class="st0" d="M62,4.5H2C1.172,4.5,0.5,3.827,0.5,3V2c0-0.827,0.673-1.5,1.5-1.5h60c0.827,0,1.5,0.673,1.5,1.5v1
			C63.5,3.827,62.827,4.5,62,4.5z M2,1.5C1.724,1.5,1.5,1.724,1.5,2v1c0,0.276,0.224,0.5,0.5,0.5h60c0.276,0,0.5-0.224,0.5-0.5V2
			c0-0.276-0.224-0.5-0.5-0.5H2z"/>
	</g>
	<g>
		<path class="st0" d="M55.5,12.292c-0.276,0-0.5-0.224-0.5-0.5v-4c0-0.276,0.224-0.5,0.5-0.5s0.5,0.224,0.5,0.5v4
			C56,12.068,55.776,12.292,55.5,12.292z"/>
	</g>
	<g>
		<path class="st0" d="M57.5,10.292h-4c-0.276,0-0.5-0.224-0.5-0.5s0.224-0.5,0.5-0.5h4c0.276,0,0.5,0.224,0.5,0.5
			S57.776,10.292,57.5,10.292z"/>
	</g>
	<g>
		<path class="st0" d="M61,18.292c-0.276,0-0.5-0.224-0.5-0.5v-4c0-0.276,0.224-0.5,0.5-0.5s0.5,0.224,0.5,0.5v4
			C61.5,18.068,61.276,18.292,61,18.292z"/>
	</g>
	<g>
		<path class="st0" d="M63,16.292h-4c-0.276,0-0.5-0.224-0.5-0.5s0.224-0.5,0.5-0.5h4c0.276,0,0.5,0.224,0.5,0.5
			S63.276,16.292,63,16.292z"/>
	</g>
</g>
</svg>
