<?xml version="1.0" encoding="utf-8"?>
<!-- Generator: Adobe Illustrator 21.1.0, SVG Export Plug-In . SVG Version: 6.00 Build 0)  -->
<svg version="1.1" id="Layer_1" xmlns="http://www.w3.org/2000/svg" xmlns:xlink="http://www.w3.org/1999/xlink" x="0px" y="0px"
	 viewBox="0 0 64 64" style="enable-background:new 0 0 64 64;" xml:space="preserve">
<style type="text/css">
	.st0{fill:#263238;}
	.st1{fill:#FFD740;}
	.st2{fill:#40C4FF;}
	.st3{fill:#FF5252;}
	.st4{fill:#4DB6AC;}
	.st5{fill:#FFFFFF;}
	.st6{fill:#37474F;}
	.st7{fill:#4FC3F7;}
</style>
<g>
	<g>
		<rect x="28" y="35.5" class="st2" width="8" height="10"/>
	</g>
	<g>
		<path class="st0" d="M40,48H24c-0.276,0-0.5-0.224-0.5-0.5v-1.036c0-2.129-0.894-4.069-2.453-5.321
			c-4.76-3.824-7.157-9.747-6.412-15.844c0.967-7.913,7.423-14.3,15.351-15.187c5.06-0.565,9.917,0.977,13.677,4.34
			C47.373,17.77,49.5,22.526,49.5,27.5c0,5.305-2.369,10.264-6.5,13.605c-1.588,1.285-2.5,3.238-2.5,5.356V47.5
			C40.5,47.776,40.276,48,40,48z M24.5,47h15v-0.539c0-2.422,1.046-4.657,2.871-6.133C46.266,37.177,48.5,32.501,48.5,27.5
			c0-4.689-2.006-9.173-5.504-12.302c-3.546-3.171-8.125-4.623-12.899-4.091c-7.473,0.835-13.558,6.855-14.47,14.313
			c-0.702,5.751,1.558,11.337,6.046,14.943c1.797,1.443,2.827,3.667,2.827,6.101V47z"/>
	</g>
	<g>
		<path class="st0" d="M46,28c-0.276,0-0.5-0.224-0.5-0.5C45.5,20.056,39.444,14,32,14c-0.276,0-0.5-0.224-0.5-0.5S31.724,13,32,13
			c7.995,0,14.5,6.505,14.5,14.5C46.5,27.776,46.276,28,46,28z"/>
	</g>
	<g>
		<path class="st1" d="M32.5,62.5h-1c-4.142,0-7.5-3.358-7.5-7.5v-7.5h16V55C40,59.142,36.642,62.5,32.5,62.5z"/>
		<path class="st0" d="M32.5,63h-1c-4.411,0-8-3.589-8-8v-7.5c0-0.276,0.224-0.5,0.5-0.5h16c0.276,0,0.5,0.224,0.5,0.5V55
			C40.5,59.411,36.911,63,32.5,63z M24.5,48v7c0,3.86,3.14,7,7,7h1c3.86,0,7-3.14,7-7v-7H24.5z"/>
	</g>
	<g>
		<path class="st0" d="M40,52H24c-0.276,0-0.5-0.224-0.5-0.5S23.724,51,24,51h16c0.276,0,0.5,0.224,0.5,0.5S40.276,52,40,52z"/>
	</g>
	<g>
		<path class="st0" d="M40,56H24c-0.276,0-0.5-0.224-0.5-0.5S23.724,55,24,55h16c0.276,0,0.5,0.224,0.5,0.5S40.276,56,40,56z"/>
	</g>
	<g>
		<path class="st0" d="M32.125,8c-0.276,0-0.5-0.224-0.5-0.5v-6c0-0.276,0.224-0.5,0.5-0.5s0.5,0.224,0.5,0.5v6
			C32.625,7.776,32.401,8,32.125,8z"/>
	</g>
	<g>
		<path class="st0" d="M12,28H6c-0.276,0-0.5-0.224-0.5-0.5S5.724,27,6,27h6c0.276,0,0.5,0.224,0.5,0.5S12.276,28,12,28z"/>
	</g>
	<g>
		<path class="st0" d="M58,28h-6c-0.276,0-0.5-0.224-0.5-0.5S51.724,27,52,27h6c0.276,0,0.5,0.224,0.5,0.5S58.276,28,58,28z"/>
	</g>
	<g>
		<path class="st0" d="M13.615,46.384c-0.128,0-0.256-0.049-0.354-0.146c-0.195-0.195-0.195-0.512,0-0.707l4.243-4.243
			c0.195-0.195,0.512-0.195,0.707,0s0.195,0.512,0,0.707l-4.243,4.243C13.871,46.335,13.743,46.384,13.615,46.384z"/>
	</g>
	<g>
		<path class="st0" d="M46.142,13.857c-0.128,0-0.256-0.049-0.354-0.146c-0.195-0.195-0.195-0.512,0-0.707l4.243-4.243
			c0.195-0.195,0.512-0.195,0.707,0s0.195,0.512,0,0.707l-4.243,4.243C46.398,13.809,46.27,13.857,46.142,13.857z"/>
	</g>
	<g>
		<path class="st0" d="M50.385,46.384c-0.128,0-0.256-0.049-0.354-0.146l-4.243-4.243c-0.195-0.195-0.195-0.512,0-0.707
			s0.512-0.195,0.707,0l4.243,4.243c0.195,0.195,0.195,0.512,0,0.707C50.641,46.335,50.513,46.384,50.385,46.384z"/>
	</g>
	<g>
		<path class="st0" d="M17.858,13.857c-0.128,0-0.256-0.049-0.354-0.146l-4.243-4.243c-0.195-0.195-0.195-0.512,0-0.707
			s0.512-0.195,0.707,0l4.243,4.243c0.195,0.195,0.195,0.512,0,0.707C18.114,13.809,17.986,13.857,17.858,13.857z"/>
	</g>
	<g>
		<path class="st0" d="M61,28h-1c-0.276,0-0.5-0.224-0.5-0.5S59.724,27,60,27h1c0.276,0,0.5,0.224,0.5,0.5S61.276,28,61,28z"/>
	</g>
	<g>
		<path class="st0" d="M4,28H3c-0.276,0-0.5-0.224-0.5-0.5S2.724,27,3,27h1c0.276,0,0.5,0.224,0.5,0.5S4.276,28,4,28z"/>
	</g>
	<g>
		<path class="st0" d="M36,46c-0.276,0-0.5-0.224-0.5-0.5v-9.882l-3.5-7l-3.5,7V45.5c0,0.276-0.224,0.5-0.5,0.5s-0.5-0.224-0.5-0.5
			v-10c0-0.078,0.018-0.154,0.053-0.224l4-8c0.17-0.339,0.725-0.339,0.895,0l4,8c0.035,0.069,0.053,0.146,0.053,0.224v10
			C36.5,45.776,36.276,46,36,46z"/>
	</g>
	<g>
		<path class="st0" d="M34,32h-4c-0.276,0-0.5-0.224-0.5-0.5S29.724,31,30,31h4c0.276,0,0.5,0.224,0.5,0.5S34.276,32,34,32z"/>
	</g>
	<g>
		<path class="st0" d="M36,36h-8c-0.276,0-0.5-0.224-0.5-0.5S27.723,35,28,35h8c0.276,0,0.5,0.224,0.5,0.5S36.276,36,36,36z"/>
	</g>
	<g>
		<path class="st0" d="M36,39h-8c-0.276,0-0.5-0.224-0.5-0.5S27.723,38,28,38h8c0.276,0,0.5,0.224,0.5,0.5S36.276,39,36,39z"/>
	</g>
	<g>
		<path class="st0" d="M36.318,32.165c-0.241,0-0.453-0.174-0.493-0.419l-0.319-1.954c-0.025-0.157,0.025-0.316,0.136-0.43
			l3.32-3.403l-4.566-0.698c-0.165-0.025-0.306-0.131-0.377-0.282L32,20.676l-2.02,4.303c-0.071,0.151-0.212,0.257-0.377,0.282
			l-4.566,0.698l3.32,3.403c0.111,0.114,0.161,0.273,0.136,0.43l-0.319,1.954c-0.045,0.272-0.306,0.457-0.574,0.413
			c-0.272-0.044-0.458-0.302-0.413-0.574l0.278-1.705l-3.824-3.919c-0.131-0.134-0.176-0.33-0.116-0.508s0.213-0.307,0.398-0.335
			l5.264-0.805l2.359-5.025c0.165-0.352,0.74-0.352,0.905,0l2.359,5.025l5.264,0.805c0.185,0.028,0.339,0.158,0.398,0.335
			s0.015,0.374-0.116,0.508l-3.824,3.919l0.278,1.705c0.044,0.272-0.141,0.53-0.413,0.574
			C36.372,32.163,36.345,32.165,36.318,32.165z"/>
	</g>
</g>
</svg>
