<?xml version="1.0" encoding="utf-8"?>
<!-- Generator: Adobe Illustrator 21.1.0, SVG Export Plug-In . SVG Version: 6.00 Build 0)  -->
<svg version="1.1" id="Layer_1" xmlns="http://www.w3.org/2000/svg" xmlns:xlink="http://www.w3.org/1999/xlink" x="0px" y="0px"
	 viewBox="0 0 64 64" style="enable-background:new 0 0 64 64;" xml:space="preserve">
<style type="text/css">
	.st0{fill:#263238;}
	.st1{fill:#FFD740;}
	.st2{fill:#40C4FF;}
	.st3{fill:#FF5252;}
	.st4{fill:#4DB6AC;}
	.st5{fill:#FFFFFF;}
	.st6{fill:#37474F;}
	.st7{fill:#4FC3F7;}
</style>
<g>
	<g>
		<path class="st0" d="M13.501,15h-4c-0.276,0-0.5-0.224-0.5-0.5s0.224-0.5,0.5-0.5h4c0.276,0,0.5,0.224,0.5,0.5
			S13.777,15,13.501,15z"/>
	</g>
	<g>
		<path class="st0" d="M11.501,17c-0.276,0-0.5-0.224-0.5-0.5v-4c0-0.276,0.224-0.5,0.5-0.5s0.5,0.224,0.5,0.5v4
			C12.001,16.776,11.777,17,11.501,17z"/>
	</g>
	<g>
		<path class="st0" d="M8.001,21.5h-4c-0.276,0-0.5-0.224-0.5-0.5s0.224-0.5,0.5-0.5h4c0.276,0,0.5,0.224,0.5,0.5
			S8.277,21.5,8.001,21.5z"/>
	</g>
	<g>
		<path class="st0" d="M6.001,23.5c-0.276,0-0.5-0.224-0.5-0.5v-4c0-0.276,0.224-0.5,0.5-0.5s0.5,0.224,0.5,0.5v4
			C6.501,23.276,6.277,23.5,6.001,23.5z"/>
	</g>
	<g>
		<path class="st1" d="M28.739,31c0.165-0.64,0.262-1.308,0.262-2c0-4.418-3.582-8-8-8s-8,3.582-8,8c0,0.692,0.097,1.36,0.262,2"/>
		<path class="st0" d="M28.739,31.5c-0.042,0-0.083-0.005-0.125-0.016c-0.267-0.069-0.428-0.342-0.359-0.609
			c0.164-0.634,0.247-1.265,0.247-1.875c0-4.136-3.364-7.5-7.5-7.5s-7.5,3.364-7.5,7.5c0,0.612,0.083,1.243,0.246,1.875
			c0.069,0.267-0.091,0.54-0.359,0.609c-0.267,0.072-0.54-0.091-0.609-0.359c-0.185-0.713-0.278-1.429-0.278-2.125
			c0-4.687,3.813-8.5,8.5-8.5s8.5,3.813,8.5,8.5c0,0.694-0.094,1.409-0.278,2.125C29.165,31.351,28.962,31.5,28.739,31.5z"/>
	</g>
	<g>
		<path class="st1" d="M50.739,31c0.165-0.64,0.262-1.308,0.262-2c0-4.418-3.582-8-8-8s-8,3.582-8,8c0,0.692,0.097,1.36,0.262,2"/>
		<path class="st0" d="M50.739,31.5c-0.042,0-0.083-0.005-0.125-0.016c-0.267-0.069-0.428-0.342-0.359-0.609
			c0.164-0.634,0.247-1.265,0.247-1.875c0-4.136-3.364-7.5-7.5-7.5s-7.5,3.364-7.5,7.5c0,0.612,0.083,1.243,0.246,1.875
			c0.069,0.267-0.091,0.54-0.359,0.609c-0.268,0.072-0.54-0.091-0.609-0.359c-0.185-0.713-0.278-1.429-0.278-2.125
			c0-4.687,3.813-8.5,8.5-8.5s8.5,3.813,8.5,8.5c0,0.694-0.094,1.409-0.278,2.125C51.165,31.351,50.962,31.5,50.739,31.5z"/>
	</g>
	<g>
		<path class="st0" d="M21.001,27c-0.276,0-0.5-0.224-0.5-0.5V25c0-0.276,0.224-0.5,0.5-0.5s0.5,0.224,0.5,0.5v1.5
			C21.501,26.776,21.277,27,21.001,27z"/>
	</g>
	<g>
		<path class="st0" d="M22.749,31.502c-0.104,0-0.21-0.033-0.3-0.101c-0.221-0.166-0.265-0.479-0.099-0.7
			c0.098-0.131,0.15-0.287,0.15-0.451c0-0.414-0.336-0.75-0.75-0.75h-1.5c-0.965,0-1.75-0.785-1.75-1.75S19.286,26,20.25,26h2.25
			c0.276,0,0.5,0.224,0.5,0.5S22.777,27,22.5,27h-2.25c-0.414,0-0.75,0.336-0.75,0.75s0.336,0.75,0.75,0.75h1.5
			c0.965,0,1.75,0.785,1.75,1.75c0,0.383-0.122,0.747-0.352,1.053C23.051,31.433,22.901,31.502,22.749,31.502z"/>
	</g>
	<g>
		<path class="st0" d="M43.001,27c-0.276,0-0.5-0.224-0.5-0.5V25c0-0.276,0.224-0.5,0.5-0.5s0.5,0.224,0.5,0.5v1.5
			C43.501,26.776,43.277,27,43.001,27z"/>
	</g>
	<g>
		<path class="st0" d="M44.748,31.503c-0.105,0-0.21-0.033-0.301-0.101c-0.22-0.167-0.264-0.48-0.098-0.7
			c0.099-0.131,0.151-0.287,0.151-0.452c0-0.414-0.336-0.75-0.75-0.75h-1.5c-0.965,0-1.75-0.785-1.75-1.75S41.286,26,42.25,26h2.25
			c0.276,0,0.5,0.224,0.5,0.5S44.777,27,44.5,27h-2.25c-0.414,0-0.75,0.336-0.75,0.75s0.336,0.75,0.75,0.75h1.5
			c0.965,0,1.75,0.785,1.75,1.75c0,0.384-0.122,0.749-0.353,1.054C45.049,31.435,44.899,31.503,44.748,31.503z"/>
	</g>
	<g>
		<path class="st0" d="M32.001,62.5h-20.5c-1.654,0-3-1.346-3-3v-16c0-0.276,0.224-0.5,0.5-0.5s0.5,0.224,0.5,0.5v16
			c0,1.103,0.897,2,2,2h20V33c0-0.276,0.224-0.5,0.5-0.5s0.5,0.224,0.5,0.5v29C32.501,62.276,32.277,62.5,32.001,62.5z"/>
	</g>
	<g>
		<path class="st0" d="M23.001,42h-19c-0.205,0-0.389-0.125-0.465-0.315s-0.027-0.407,0.122-0.548l9-8.5
			c0.093-0.088,0.216-0.137,0.343-0.137h19c0.205,0,0.389,0.125,0.465,0.315s0.027,0.407-0.122,0.548l-9,8.5
			C23.251,41.951,23.128,42,23.001,42z M5.259,41h17.543l7.941-7.5H13.2L5.259,41z"/>
	</g>
	<g>
		<path class="st0" d="M52.501,62.5h-20.5c-0.276,0-0.5-0.224-0.5-0.5V33c0-0.276,0.224-0.5,0.5-0.5s0.5,0.224,0.5,0.5v28.5h20
			c1.103,0,2-0.897,2-2v-16c0-0.276,0.224-0.5,0.5-0.5s0.5,0.224,0.5,0.5v16C55.501,61.154,54.155,62.5,52.501,62.5z"/>
	</g>
	<g>
		<path class="st0" d="M60.001,42h-19c-0.127,0-0.25-0.049-0.343-0.137l-9-8.5c-0.149-0.141-0.197-0.357-0.122-0.548
			s0.26-0.315,0.465-0.315h19c0.127,0,0.25,0.049,0.343,0.137l9,8.5c0.149,0.141,0.197,0.357,0.122,0.548S60.206,42,60.001,42z
			 M41.2,41h17.543l-7.941-7.5H33.259L41.2,41z"/>
	</g>
	<g>
		<circle class="st1" cx="32.001" cy="10" r="8"/>
		<path class="st0" d="M32.001,18.5c-4.687,0-8.5-3.813-8.5-8.5s3.813-8.5,8.5-8.5s8.5,3.813,8.5,8.5S36.688,18.5,32.001,18.5z
			 M32.001,2.5c-4.136,0-7.5,3.364-7.5,7.5s3.364,7.5,7.5,7.5s7.5-3.364,7.5-7.5S36.137,2.5,32.001,2.5z"/>
	</g>
	<g>
		<path class="st0" d="M32.001,8c-0.276,0-0.5-0.224-0.5-0.5V6c0-0.276,0.224-0.5,0.5-0.5s0.5,0.224,0.5,0.5v1.5
			C32.501,7.776,32.277,8,32.001,8z"/>
	</g>
	<g>
		<path class="st0" d="M32.001,14.5c-0.276,0-0.5-0.224-0.5-0.5v-1.5c0-0.276,0.224-0.5,0.5-0.5s0.5,0.224,0.5,0.5V14
			C32.501,14.276,32.277,14.5,32.001,14.5z"/>
	</g>
	<g>
		<path class="st0" d="M32.75,13H30c-0.276,0-0.5-0.224-0.5-0.5S29.724,12,30,12h2.75c0.414,0,0.75-0.336,0.75-0.75
			s-0.336-0.75-0.75-0.75h-1.5c-0.965,0-1.75-0.785-1.75-1.75S30.286,7,31.25,7h2.25C33.777,7,34,7.224,34,7.5S33.777,8,33.5,8
			h-2.25c-0.414,0-0.75,0.336-0.75,0.75s0.336,0.75,0.75,0.75h1.5c0.965,0,1.75,0.785,1.75,1.75S33.715,13,32.75,13z"/>
	</g>
	<g>
		<path class="st0" d="M43.501,46c-0.276,0-0.5-0.224-0.5-0.5v-2c0-0.276,0.224-0.5,0.5-0.5s0.5,0.224,0.5,0.5v2
			C44.001,45.776,43.777,46,43.501,46z"/>
	</g>
	<g>
		<path class="st0" d="M38.501,47.708c-0.128,0-0.256-0.049-0.354-0.146l-1.415-1.415c-0.195-0.195-0.195-0.512,0-0.707
			s0.512-0.195,0.707,0l1.415,1.415c0.195,0.195,0.195,0.512,0,0.707C38.757,47.659,38.629,47.708,38.501,47.708z"/>
	</g>
	<g>
		<path class="st0" d="M48.501,47.708c-0.128,0-0.256-0.049-0.354-0.146c-0.195-0.195-0.195-0.512,0-0.707l1.414-1.415
			c0.195-0.195,0.512-0.195,0.707,0s0.195,0.512,0,0.707l-1.414,1.415C48.757,47.659,48.629,47.708,48.501,47.708z"/>
	</g>
	<g>
		<path class="st0" d="M43.501,55c-2.206,0-4-1.794-4-4s1.794-4,4-4s4,1.794,4,4S45.707,55,43.501,55z M43.501,48
			c-1.654,0-3,1.346-3,3s1.346,3,3,3s3-1.346,3-3S45.155,48,43.501,48z"/>
	</g>
	<g>
		<path class="st0" d="M45.501,57.5h-4c-0.276,0-0.5-0.224-0.5-0.5s0.224-0.5,0.5-0.5h4c0.276,0,0.5,0.224,0.5,0.5
			S45.777,57.5,45.501,57.5z"/>
	</g>
	<g>
		<path class="st0" d="M44.501,59.5h-2c-0.276,0-0.5-0.224-0.5-0.5s0.224-0.5,0.5-0.5h2c0.276,0,0.5,0.224,0.5,0.5
			S44.777,59.5,44.501,59.5z"/>
	</g>
	<g>
		<path class="st0" d="M43.501,54.5c-0.276,0-0.5-0.224-0.5-0.5v-3c0-0.276,0.224-0.5,0.5-0.5s0.5,0.224,0.5,0.5v3
			C44.001,54.276,43.777,54.5,43.501,54.5z"/>
	</g>
	<g>
		<path class="st0" d="M43.001,17.5c-0.276,0-0.5-0.224-0.5-0.5v-2c0-0.276,0.224-0.5,0.5-0.5s0.5,0.224,0.5,0.5v2
			C43.501,17.276,43.277,17.5,43.001,17.5z"/>
	</g>
	<g>
		<path class="st0" d="M43.001,13.5c-0.276,0-0.5-0.224-0.5-0.5v-2.5c0-3.033,2.467-5.5,5.5-5.5h2.5c0.276,0,0.5,0.224,0.5,0.5
			S50.777,6,50.501,6h-2.5c-2.481,0-4.5,2.019-4.5,4.5V13C43.501,13.276,43.277,13.5,43.001,13.5z"/>
	</g>
	<g>
		<path class="st0" d="M21.001,17.5c-0.276,0-0.5-0.224-0.5-0.5v-2c0-0.276,0.224-0.5,0.5-0.5s0.5,0.224,0.5,0.5v2
			C21.501,17.276,21.277,17.5,21.001,17.5z"/>
	</g>
	<g>
		<path class="st0" d="M21.001,13.5c-0.276,0-0.5-0.224-0.5-0.5v-2.5c0-2.481-2.019-4.5-4.5-4.5h-2.5c-0.276,0-0.5-0.224-0.5-0.5
			s0.224-0.5,0.5-0.5h2.5c3.033,0,5.5,2.467,5.5,5.5V13C21.501,13.276,21.277,13.5,21.001,13.5z"/>
	</g>
</g>
</svg>
