<?xml version="1.0" encoding="utf-8"?>
<!-- Generator: Adobe Illustrator 21.1.0, SVG Export Plug-In . SVG Version: 6.00 Build 0)  -->
<svg version="1.1" id="Layer_1" xmlns="http://www.w3.org/2000/svg" xmlns:xlink="http://www.w3.org/1999/xlink" x="0px" y="0px"
	 viewBox="0 0 64 64" style="enable-background:new 0 0 64 64;" xml:space="preserve">
<style type="text/css">
	.st0{fill:#263238;}
	.st1{fill:#FFD740;}
	.st2{fill:#40C4FF;}
	.st3{fill:#FF5252;}
	.st4{fill:#4DB6AC;}
	.st5{fill:#FFFFFF;}
	.st6{fill:#37474F;}
	.st7{fill:#4FC3F7;}
</style>
<g>
	<g>
		<path class="st0" d="M48.736,49.592c-0.129,0-0.257-0.05-0.354-0.146l-2.121-2.122c-0.997-0.997-2.423-1.474-3.818-1.272
			c-1.655,0.236-3.245-0.805-3.686-2.422l-0.25-0.917c-0.142-0.518,0.006-1.075,0.386-1.455l2.646-2.646
			c0.435-0.436,1.083-0.562,1.651-0.319l0.559,0.24c2.518,1.079,4.29,3.336,4.74,6.038l0.74,4.44
			c0.036,0.214-0.071,0.427-0.265,0.527C48.892,49.574,48.814,49.592,48.736,49.592z M43.07,45.006c1.448,0,2.863,0.576,3.898,1.61
			l1.018,1.018l-0.483-2.901c-0.395-2.364-1.945-4.339-4.147-5.283l-0.558-0.239c-0.189-0.081-0.406-0.039-0.551,0.106L39.6,41.964
			c-0.126,0.126-0.176,0.312-0.128,0.485l0.25,0.917c0.309,1.131,1.421,1.863,2.58,1.695C42.558,45.024,42.814,45.006,43.07,45.006z
			"/>
	</g>
	<g>
		<path class="st0" d="M14.84,49.66c-0.13,0-0.258-0.051-0.354-0.146c-0.145-0.145-0.187-0.363-0.106-0.55l4.243-9.899
			c0.065-0.153,0.202-0.263,0.365-0.294c0.165-0.029,0.331,0.021,0.448,0.138l5.657,5.657c0.117,0.117,0.169,0.285,0.138,0.448
			c-0.032,0.163-0.142,0.299-0.294,0.365l-9.9,4.243C14.973,49.646,14.906,49.66,14.84,49.66z M19.251,40.136l-3.459,8.071
			l8.072-3.459L19.251,40.136z"/>
	</g>
	<g>
		<path class="st0" d="M14.84,49.659c-0.066,0-0.133-0.013-0.197-0.041c-0.254-0.109-0.372-0.403-0.263-0.656l1.914-4.465
			c0.065-0.153,0.202-0.263,0.365-0.294c0.165-0.031,0.331,0.021,0.448,0.138l2.552,2.552c0.195,0.195,0.195,0.512,0,0.707
			s-0.512,0.195-0.707,0l-2.03-2.029L15.3,49.356C15.219,49.546,15.034,49.659,14.84,49.659z"/>
	</g>
	<g>
		<path class="st1" d="M48.428,21.229c0.976-0.976,0.976-2.559,0-3.536l-2.121-2.121c-0.976-0.976-2.559-0.976-3.536,0L19.083,39.26
			l5.657,5.657L48.428,21.229z"/>
		<path class="st0" d="M24.74,45.417c-0.128,0-0.256-0.049-0.354-0.146l-5.657-5.657c-0.195-0.195-0.195-0.512,0-0.707
			l23.688-23.688c1.169-1.17,3.073-1.17,4.243,0l2.121,2.122c1.169,1.169,1.169,3.073,0,4.243l0,0L25.093,45.271
			C24.996,45.368,24.868,45.417,24.74,45.417z M19.79,39.26l4.95,4.95l23.334-23.334c0.78-0.78,0.78-2.049,0-2.829l-2.121-2.122
			c-0.78-0.779-2.049-0.779-2.829,0L19.79,39.26z M48.428,21.229h0.01H48.428z"/>
	</g>
	<g>
		<rect x="38.71" y="18.29" transform="matrix(-0.7071 0.7071 -0.7071 -0.7071 86.9649 8.557)" class="st3" width="6" height="8"/>
		<path class="st0" d="M42.417,27.739c-0.128,0-0.256-0.049-0.354-0.146l-5.657-5.657c-0.094-0.094-0.146-0.221-0.146-0.354
			s0.053-0.26,0.146-0.354l4.243-4.243c0.195-0.195,0.512-0.195,0.707,0l5.657,5.657c0.094,0.094,0.146,0.221,0.146,0.354
			s-0.053,0.26-0.146,0.354l-4.243,4.243C42.673,27.69,42.545,27.739,42.417,27.739z M37.467,21.583l4.95,4.95l3.536-3.536
			l-4.95-4.95L37.467,21.583z"/>
	</g>
	<g>
		<path class="st2" d="M30.687,24.827l-10.102-9.262c-0.99-0.908-2.521-0.871-3.466,0.084l-1.132,1.143
			c-0.938,0.948-0.967,2.465-0.066,3.448l9.257,10.096"/>
		<path class="st0" d="M25.179,30.836c-0.135,0-0.27-0.055-0.369-0.162l-9.257-10.096c-1.083-1.181-1.048-2.999,0.079-4.138
			l1.132-1.143c1.139-1.15,2.966-1.195,4.159-0.101l10.103,9.262c0.204,0.187,0.217,0.503,0.031,0.707
			c-0.188,0.204-0.503,0.216-0.707,0.031l-10.103-9.262c-0.795-0.729-2.014-0.7-2.772,0.067l-1.132,1.143
			c-0.752,0.759-0.775,1.971-0.053,2.759l9.257,10.096c0.187,0.204,0.173,0.52-0.031,0.707C25.42,30.792,25.3,30.836,25.179,30.836z
			"/>
	</g>
	<g>
		<polyline class="st2" points="34.593,37.891 37.776,40.253 40.604,37.424 38.243,34.242 		"/>
		<path class="st0" d="M37.776,40.753c-0.104,0-0.209-0.032-0.298-0.099l-3.183-2.361c-0.222-0.165-0.268-0.478-0.104-0.699
			c0.165-0.221,0.478-0.268,0.699-0.104l2.837,2.104l2.218-2.218l-2.104-2.836c-0.165-0.222-0.118-0.535,0.104-0.699
			c0.221-0.165,0.534-0.119,0.699,0.104l2.361,3.183c0.148,0.199,0.127,0.476-0.048,0.651l-2.829,2.829
			C38.033,40.703,37.904,40.753,37.776,40.753z"/>
	</g>
	<g>
		<path class="st0" d="M10.5,11h-5C5.224,11,5,10.776,5,10.5v-5C5,5.223,5.224,5,5.5,5h5C10.776,5,11,5.223,11,5.5v5
			C11,10.776,10.776,11,10.5,11z M6,10h4V6H6V10z"/>
	</g>
	<g>
		<path class="st0" d="M58.5,11h-5c-0.276,0-0.5-0.224-0.5-0.5v-5C53,5.223,53.224,5,53.5,5h5C58.776,5,59,5.223,59,5.5v5
			C59,10.776,58.776,11,58.5,11z M54,10h4V6h-4V10z"/>
	</g>
	<g>
		<path class="st0" d="M10.5,59h-5C5.224,59,5,58.776,5,58.5v-5C5,53.223,5.224,53,5.5,53h5c0.276,0,0.5,0.224,0.5,0.5v5
			C11,58.776,10.776,59,10.5,59z M6,58h4v-4H6V58z"/>
	</g>
	<g>
		<path class="st0" d="M58.5,59h-5c-0.276,0-0.5-0.224-0.5-0.5v-5c0-0.276,0.224-0.5,0.5-0.5h5c0.276,0,0.5,0.224,0.5,0.5v5
			C59,58.776,58.776,59,58.5,59z M54,58h4v-4h-4V58z"/>
	</g>
	<g>
		<path class="st0" d="M53.5,56.5h-43c-0.276,0-0.5-0.224-0.5-0.5v-2H8c-0.276,0-0.5-0.224-0.5-0.5v-43C7.5,10.223,7.724,10,8,10h2
			V8c0-0.276,0.224-0.5,0.5-0.5h43C53.776,7.5,54,7.723,54,8v2h2c0.276,0,0.5,0.224,0.5,0.5v43c0,0.276-0.224,0.5-0.5,0.5h-2v2
			C54,56.276,53.776,56.5,53.5,56.5z M11,55.5h42v-2c0-0.276,0.224-0.5,0.5-0.5h2V11h-2c-0.276,0-0.5-0.224-0.5-0.5v-2H11v2
			c0,0.276-0.224,0.5-0.5,0.5h-2v42h2c0.276,0,0.5,0.224,0.5,0.5V55.5z"/>
	</g>
	<g>
		<path class="st0" d="M22,60.5h-2c-0.276,0-0.5-0.224-0.5-0.5s0.224-0.5,0.5-0.5h2c0.276,0,0.5,0.224,0.5,0.5S22.276,60.5,22,60.5z
			"/>
	</g>
	<g>
		<path class="st0" d="M44,60.5H24c-0.276,0-0.5-0.224-0.5-0.5s0.224-0.5,0.5-0.5h20c0.276,0,0.5,0.224,0.5,0.5S44.276,60.5,44,60.5
			z"/>
	</g>
	<g>
		<path class="st0" d="M44,4.5h-2c-0.276,0-0.5-0.224-0.5-0.5s0.224-0.5,0.5-0.5h2c0.276,0,0.5,0.224,0.5,0.5S44.276,4.5,44,4.5z"/>
	</g>
	<g>
		<path class="st0" d="M40,4.5H20c-0.276,0-0.5-0.224-0.5-0.5s0.224-0.5,0.5-0.5h20c0.276,0,0.5,0.224,0.5,0.5S40.276,4.5,40,4.5z"
			/>
	</g>
</g>
</svg>
