<?xml version="1.0" encoding="utf-8"?>
<!-- Generator: Adobe Illustrator 21.1.0, SVG Export Plug-In . SVG Version: 6.00 Build 0)  -->
<svg version="1.1" id="Layer_1" xmlns="http://www.w3.org/2000/svg" xmlns:xlink="http://www.w3.org/1999/xlink" x="0px" y="0px"
	 viewBox="0 0 64 64" style="enable-background:new 0 0 64 64;" xml:space="preserve">
<style type="text/css">
	.st0{fill:#263238;}
	.st1{fill:#FFD740;}
	.st2{fill:#40C4FF;}
	.st3{fill:#FF5252;}
	.st4{fill:#4DB6AC;}
	.st5{fill:#FFFFFF;}
	.st6{fill:#37474F;}
	.st7{fill:#4FC3F7;}
</style>
<g>
	<g>
		<polyline class="st1" points="58,54.5 4,54.5 4,44.5 58,44.5 		"/>
	</g>
	<g>
		<polyline class="st3" points="58,44.5 4,44.5 4,34.5 58,34.5 		"/>
	</g>
	<g>
		<polyline class="st5" points="22,54.5 22,36.5 12,36.5 12,54.5 		"/>
		<path class="st0" d="M22,55c-0.276,0-0.5-0.224-0.5-0.5V37h-9v17.5c0,0.276-0.224,0.5-0.5,0.5s-0.5-0.224-0.5-0.5v-18
			c0-0.276,0.224-0.5,0.5-0.5h10c0.276,0,0.5,0.224,0.5,0.5v18C22.5,54.776,22.276,55,22,55z"/>
	</g>
	<g>
		<polyline class="st5" points="32,54.5 32,44 22,44 22,54.5 		"/>
		<path class="st0" d="M32,55c-0.276,0-0.5-0.224-0.5-0.5v-10h-9v10c0,0.276-0.224,0.5-0.5,0.5s-0.5-0.224-0.5-0.5V44
			c0-0.276,0.224-0.5,0.5-0.5h10c0.276,0,0.5,0.224,0.5,0.5v10.5C32.5,54.776,32.276,55,32,55z"/>
	</g>
	<g>
		<polyline class="st5" points="42,54.5 42,34 32,34 32,54.5 		"/>
		<path class="st0" d="M42,55c-0.276,0-0.5-0.224-0.5-0.5v-20h-9v20c0,0.276-0.224,0.5-0.5,0.5s-0.5-0.224-0.5-0.5V34
			c0-0.276,0.224-0.5,0.5-0.5h10c0.276,0,0.5,0.224,0.5,0.5v20.5C42.5,54.776,42.276,55,42,55z"/>
	</g>
	<g>
		<polyline class="st5" points="52,54.5 52,29 42,29 42,54.5 		"/>
		<path class="st0" d="M52,55c-0.276,0-0.5-0.224-0.5-0.5v-25h-9v25c0,0.276-0.224,0.5-0.5,0.5s-0.5-0.224-0.5-0.5V29
			c0-0.276,0.224-0.5,0.5-0.5h10c0.276,0,0.5,0.224,0.5,0.5v25.5C52.5,54.776,52.276,55,52,55z"/>
	</g>
	<g>
		<path class="st0" d="M27,30c-0.128,0-0.256-0.049-0.354-0.146l-9.71-9.71l-8.659,5.772c-0.23,0.152-0.541,0.091-0.693-0.139
			c-0.153-0.23-0.091-0.54,0.139-0.693l9-6c0.197-0.132,0.462-0.106,0.631,0.062L27,28.793l9.646-9.646l10.066-7.056
			c0.138-0.095,0.31-0.117,0.467-0.057l13,5c0.258,0.099,0.386,0.389,0.287,0.646s-0.386,0.386-0.646,0.287l-12.752-4.905
			l-9.781,6.848l-9.934,9.944C27.256,29.951,27.128,30,27,30z"/>
	</g>
	<g>
		<circle class="st2" cx="37" cy="19.405" r="2.5"/>
		<path class="st0" d="M37,22.405c-1.654,0-3-1.346-3-3s1.346-3,3-3s3,1.346,3,3S38.654,22.405,37,22.405z M37,17.405
			c-1.103,0-2,0.897-2,2s0.897,2,2,2s2-0.897,2-2S38.103,17.405,37,17.405z"/>
	</g>
	<g>
		<circle class="st2" cx="27" cy="29.5" r="2.5"/>
		<path class="st0" d="M27,32.5c-1.654,0-3-1.346-3-3s1.346-3,3-3s3,1.346,3,3S28.654,32.5,27,32.5z M27,27.5c-1.103,0-2,0.897-2,2
			s0.897,2,2,2s2-0.897,2-2S28.103,27.5,27,27.5z"/>
	</g>
	<g>
		<circle class="st2" cx="17" cy="19.5" r="2.5"/>
		<path class="st0" d="M17,22.5c-1.654,0-3-1.346-3-3s1.346-3,3-3s3,1.346,3,3S18.654,22.5,17,22.5z M17,17.5c-1.103,0-2,0.897-2,2
			s0.897,2,2,2s2-0.897,2-2S18.103,17.5,17,17.5z"/>
	</g>
	<g>
		<circle class="st2" cx="47" cy="12.5" r="2.5"/>
		<path class="st0" d="M47,15.5c-1.654,0-3-1.346-3-3s1.346-3,3-3s3,1.346,3,3S48.654,15.5,47,15.5z M47,10.5c-1.103,0-2,0.897-2,2
			s0.897,2,2,2s2-0.897,2-2S48.103,10.5,47,10.5z"/>
	</g>
	<g>
		<path class="st0" d="M19,7.5h-4c-0.276,0-0.5-0.224-0.5-0.5s0.224-0.5,0.5-0.5h4c0.276,0,0.5,0.224,0.5,0.5S19.276,7.5,19,7.5z"/>
	</g>
	<g>
		<path class="st0" d="M17,9.5c-0.276,0-0.5-0.224-0.5-0.5V5c0-0.276,0.224-0.5,0.5-0.5s0.5,0.224,0.5,0.5v4
			C17.5,9.276,17.276,9.5,17,9.5z"/>
	</g>
	<g>
		<path class="st0" d="M26,14h-4c-0.276,0-0.5-0.224-0.5-0.5S21.724,13,22,13h4c0.276,0,0.5,0.224,0.5,0.5S26.276,14,26,14z"/>
	</g>
	<g>
		<path class="st0" d="M24,16c-0.276,0-0.5-0.224-0.5-0.5v-4c0-0.276,0.224-0.5,0.5-0.5s0.5,0.224,0.5,0.5v4
			C24.5,15.776,24.276,16,24,16z"/>
	</g>
	<g>
		<path class="st0" d="M60,57H4c-0.276,0-0.5-0.224-0.5-0.5v-51C3.5,5.224,3.724,5,4,5s0.5,0.224,0.5,0.5V56H60
			c0.276,0,0.5,0.224,0.5,0.5S60.276,57,60,57z"/>
	</g>
	<g>
		<path class="st0" d="M12,59.5c-0.276,0-0.5-0.224-0.5-0.5v-2.5c0-0.276,0.224-0.5,0.5-0.5s0.5,0.224,0.5,0.5V59
			C12.5,59.276,12.276,59.5,12,59.5z"/>
	</g>
	<g>
		<path class="st0" d="M22,59.5c-0.276,0-0.5-0.224-0.5-0.5v-2.5c0-0.276,0.224-0.5,0.5-0.5s0.5,0.224,0.5,0.5V59
			C22.5,59.276,22.276,59.5,22,59.5z"/>
	</g>
	<g>
		<path class="st0" d="M32,59.5c-0.276,0-0.5-0.224-0.5-0.5v-2.5c0-0.276,0.224-0.5,0.5-0.5s0.5,0.224,0.5,0.5V59
			C32.5,59.276,32.276,59.5,32,59.5z"/>
	</g>
	<g>
		<path class="st0" d="M42,59.5c-0.276,0-0.5-0.224-0.5-0.5v-2.5c0-0.276,0.224-0.5,0.5-0.5s0.5,0.224,0.5,0.5V59
			C42.5,59.276,42.276,59.5,42,59.5z"/>
	</g>
	<g>
		<path class="st0" d="M52,59.5c-0.276,0-0.5-0.224-0.5-0.5v-2.5c0-0.276,0.224-0.5,0.5-0.5s0.5,0.224,0.5,0.5V59
			C52.5,59.276,52.276,59.5,52,59.5z"/>
	</g>
</g>
</svg>
