<?xml version="1.0" encoding="utf-8"?>
<!-- Generator: Adobe Illustrator 21.1.0, SVG Export Plug-In . SVG Version: 6.00 Build 0)  -->
<svg version="1.1" id="Layer_1" xmlns="http://www.w3.org/2000/svg" xmlns:xlink="http://www.w3.org/1999/xlink" x="0px" y="0px"
	 viewBox="0 0 64 64" style="enable-background:new 0 0 64 64;" xml:space="preserve">
<style type="text/css">
	.st0{fill:#263238;}
	.st1{fill:#FFD740;}
	.st2{fill:#40C4FF;}
	.st3{fill:#FF5252;}
	.st4{fill:#4DB6AC;}
	.st5{fill:#FFFFFF;}
	.st6{fill:#37474F;}
	.st7{fill:#4FC3F7;}
</style>
<g>
	<g>
		<path class="st0" d="M35,64c-0.276,0-0.5-0.224-0.5-0.5V6h-5v57.5c0,0.276-0.224,0.5-0.5,0.5s-0.5-0.224-0.5-0.5v-58
			C28.5,5.224,28.724,5,29,5h6c0.276,0,0.5,0.224,0.5,0.5v58C35.5,63.776,35.276,64,35,64z"/>
	</g>
	<g>
		<polyline class="st2" points="27,20.5 8.5,20.5 1,25.5 8.5,30.5 27,30.5 		"/>
		<path class="st0" d="M27,31H8.5c-0.099,0-0.195-0.029-0.277-0.084l-7.5-5C0.583,25.823,0.5,25.667,0.5,25.5
			s0.083-0.323,0.223-0.416l7.5-5C8.305,20.029,8.401,20,8.5,20H27c0.276,0,0.5,0.224,0.5,0.5S27.276,21,27,21H8.651l-6.75,4.5
			l6.75,4.5H27c0.276,0,0.5,0.224,0.5,0.5S27.276,31,27,31z"/>
	</g>
	<g>
		<polyline class="st3" points="37,20.5 50.5,20.5 58,15.5 50.5,10.5 37,10.5 		"/>
		<path class="st0" d="M50.5,21H37c-0.276,0-0.5-0.224-0.5-0.5S36.724,20,37,20h13.349l6.75-4.5l-6.75-4.5H37
			c-0.276,0-0.5-0.224-0.5-0.5S36.724,10,37,10h13.5c0.099,0,0.195,0.029,0.277,0.084l7.5,5c0.139,0.093,0.223,0.249,0.223,0.416
			s-0.084,0.323-0.223,0.416l-7.5,5C50.695,20.971,50.599,21,50.5,21z"/>
	</g>
	<g>
		<polyline class="st1" points="37,40.5 55.5,40.5 63,35.5 55.5,30.5 37,30.5 		"/>
		<path class="st0" d="M55.5,41H37c-0.276,0-0.5-0.224-0.5-0.5S36.724,40,37,40h18.349l6.75-4.5l-6.75-4.5H37
			c-0.276,0-0.5-0.224-0.5-0.5S36.724,30,37,30h18.5c0.099,0,0.195,0.029,0.277,0.084l7.5,5c0.139,0.093,0.223,0.249,0.223,0.416
			s-0.084,0.323-0.223,0.416l-7.5,5C55.695,40.971,55.599,41,55.5,41z"/>
	</g>
	<g>
		<path class="st0" d="M35.5,6h-7C27.673,6,27,5.327,27,4.5v-3C27,0.673,27.673,0,28.5,0h7C36.327,0,37,0.673,37,1.5v3
			C37,5.327,36.327,6,35.5,6z M28.5,1C28.224,1,28,1.225,28,1.5v3C28,4.775,28.224,5,28.5,5h7C35.775,5,36,4.775,36,4.5v-3
			C36,1.225,35.775,1,35.5,1H28.5z"/>
	</g>
	<g>
		<path class="st0" d="M19,10h-4c-0.276,0-0.5-0.224-0.5-0.5S14.724,9,15,9h4c0.276,0,0.5,0.224,0.5,0.5S19.276,10,19,10z"/>
	</g>
	<g>
		<path class="st0" d="M13,5H9C8.724,5,8.5,4.776,8.5,4.5S8.724,4,9,4h4c0.276,0,0.5,0.224,0.5,0.5S13.276,5,13,5z"/>
	</g>
	<g>
		<path class="st0" d="M11,7c-0.276,0-0.5-0.224-0.5-0.5v-4C10.5,2.224,10.724,2,11,2s0.5,0.224,0.5,0.5v4C11.5,6.776,11.276,7,11,7
			z"/>
	</g>
	<g>
		<path class="st0" d="M17,12c-0.276,0-0.5-0.224-0.5-0.5v-4C16.5,7.224,16.724,7,17,7s0.5,0.224,0.5,0.5v4
			C17.5,11.776,17.276,12,17,12z"/>
	</g>
	<g>
		<path class="st0" d="M19.5,49H8c-0.276,0-0.5-0.224-0.5-0.5S7.724,48,8,48h11.5c0.276,0,0.5,0.224,0.5,0.5S19.776,49,19.5,49z"/>
	</g>
	<g>
		<path class="st0" d="M6,49H4c-0.276,0-0.5-0.224-0.5-0.5S3.724,48,4,48h2c0.276,0,0.5,0.224,0.5,0.5S6.276,49,6,49z"/>
	</g>
	<g>
		<path class="st0" d="M56,49H44.5c-0.276,0-0.5-0.224-0.5-0.5s0.224-0.5,0.5-0.5H56c0.276,0,0.5,0.224,0.5,0.5S56.276,49,56,49z"/>
	</g>
	<g>
		<path class="st0" d="M60,49h-2c-0.276,0-0.5-0.224-0.5-0.5S57.724,48,58,48h2c0.276,0,0.5,0.224,0.5,0.5S60.276,49,60,49z"/>
	</g>
</g>
</svg>
