<?xml version="1.0" encoding="utf-8"?>
<!-- Generator: Adobe Illustrator 21.1.0, SVG Export Plug-In . SVG Version: 6.00 Build 0)  -->
<svg version="1.1" id="Layer_1" xmlns="http://www.w3.org/2000/svg" xmlns:xlink="http://www.w3.org/1999/xlink" x="0px" y="0px"
	 viewBox="0 0 64 64" style="enable-background:new 0 0 64 64;" xml:space="preserve">
<style type="text/css">
	.st0{fill:#263238;}
	.st1{fill:#FFD740;}
	.st2{fill:#40C4FF;}
	.st3{fill:#FF5252;}
	.st4{fill:#4DB6AC;}
	.st5{fill:#FFFFFF;}
	.st6{fill:#37474F;}
	.st7{fill:#4FC3F7;}
</style>
<g>
	<g>
		<path class="st2" d="M38.5,7.5H14v27h15.5v9l9.582-7.499c1.211-0.948,1.918-2.4,1.918-3.938V10C41,8.619,39.881,7.5,38.5,7.5z"/>
	</g>
	<g>
		<path class="st2" d="M56.515,16.5H43v15.563c0,2.153-0.99,4.186-2.686,5.512L32.745,43.5l0,0h23.77
			c0.821,0,1.292-0.935,0.804-1.595l-7.716-10.417c-0.655-0.884-0.655-2.092,0-2.976l7.716-10.417
			C57.807,17.435,57.336,16.5,56.515,16.5z"/>
	</g>
	<g>
		<path class="st0" d="M56.515,44H32.746c-0.276,0-0.5-0.224-0.5-0.5s0.224-0.5,0.5-0.5h23.769c0.193,0,0.36-0.103,0.447-0.275
			c0.086-0.172,0.069-0.367-0.045-0.521l-7.716-10.417c-0.792-1.067-0.792-2.503,0-3.572l7.716-10.416
			c0.114-0.155,0.131-0.351,0.045-0.522C56.875,17.103,56.708,17,56.515,17H43c-0.276,0-0.5-0.224-0.5-0.5S42.724,16,43,16h13.515
			c0.57,0,1.084,0.316,1.34,0.825c0.257,0.51,0.205,1.11-0.135,1.568L50.004,28.81c-0.527,0.712-0.527,1.669,0,2.381l7.716,10.417
			c0.34,0.457,0.392,1.058,0.135,1.566C57.599,43.684,57.085,44,56.515,44z"/>
	</g>
	<g>
		<path class="st0" d="M12,64c-0.276,0-0.5-0.224-0.5-0.5V6h-5v57.5C6.5,63.776,6.276,64,6,64s-0.5-0.224-0.5-0.5v-58
			C5.5,5.224,5.724,5,6,5h6c0.276,0,0.5,0.224,0.5,0.5v58C12.5,63.776,12.276,64,12,64z"/>
	</g>
	<g>
		<path class="st1" d="M12.5,5.5h-7c-0.552,0-1-0.448-1-1v-3c0-0.552,0.448-1,1-1h7c0.552,0,1,0.448,1,1v3
			C13.5,5.052,13.052,5.5,12.5,5.5z"/>
		<path class="st0" d="M12.5,6h-7C4.673,6,4,5.327,4,4.5v-3C4,0.673,4.673,0,5.5,0h7C13.327,0,14,0.673,14,1.5v3
			C14,5.327,13.327,6,12.5,6z M5.5,1C5.224,1,5,1.225,5,1.5v3C5,4.775,5.224,5,5.5,5h7C12.776,5,13,4.775,13,4.5v-3
			C13,1.225,12.776,1,12.5,1H5.5z"/>
	</g>
	<g>
		<path class="st0" d="M29.5,44c-0.075,0-0.149-0.017-0.219-0.051C29.109,43.865,29,43.691,29,43.5v-7c0-0.276,0.224-0.5,0.5-0.5
			s0.5,0.224,0.5,0.5v5.974l8.773-6.865c1.098-0.859,1.727-2.15,1.727-3.544V10c0-1.103-0.897-2-2-2H14c-0.276,0-0.5-0.224-0.5-0.5
			S13.724,7,14,7h24.5c1.654,0,3,1.346,3,3v22.064c0,1.702-0.769,3.281-2.109,4.331l-9.583,7.498C29.718,43.964,29.609,44,29.5,44z"
			/>
	</g>
	<g>
		<path class="st0" d="M37,35H14c-0.276,0-0.5-0.224-0.5-0.5S13.724,34,14,34h23c0.276,0,0.5,0.224,0.5,0.5S37.276,35,37,35z"/>
	</g>
	<g>
		<path class="st0" d="M24,51h-2c-0.276,0-0.5-0.224-0.5-0.5S21.724,50,22,50h2c0.276,0,0.5,0.224,0.5,0.5S24.276,51,24,51z"/>
	</g>
	<g>
		<path class="st0" d="M41,51H26c-0.276,0-0.5-0.224-0.5-0.5S25.724,50,26,50h15c0.276,0,0.5,0.224,0.5,0.5S41.276,51,41,51z"/>
	</g>
	<g>
		<path class="st0" d="M47,54H29c-0.276,0-0.5-0.224-0.5-0.5S28.724,53,29,53h18c0.276,0,0.5,0.224,0.5,0.5S47.276,54,47,54z"/>
	</g>
	<g>
		<path class="st0" d="M52.5,4.5h-4C48.224,4.5,48,4.276,48,4s0.224-0.5,0.5-0.5h4C52.776,3.5,53,3.724,53,4S52.776,4.5,52.5,4.5z"
			/>
	</g>
	<g>
		<path class="st0" d="M50.5,6.5C50.224,6.5,50,6.276,50,6V2c0-0.276,0.224-0.5,0.5-0.5S51,1.724,51,2v4
			C51,6.276,50.776,6.5,50.5,6.5z"/>
	</g>
	<g>
		<path class="st0" d="M59.5,11h-4c-0.276,0-0.5-0.224-0.5-0.5s0.224-0.5,0.5-0.5h4c0.276,0,0.5,0.224,0.5,0.5S59.776,11,59.5,11z"
			/>
	</g>
	<g>
		<path class="st0" d="M57.5,13c-0.276,0-0.5-0.224-0.5-0.5v-4C57,8.224,57.224,8,57.5,8S58,8.224,58,8.5v4
			C58,12.776,57.776,13,57.5,13z"/>
	</g>
	<g>
		<path class="st0" d="M38,16c-0.276,0-0.5-0.224-0.5-0.5v-4c0-0.275-0.225-0.5-0.5-0.5h-4c-0.276,0-0.5-0.224-0.5-0.5
			S32.724,10,33,10h4c0.827,0,1.5,0.673,1.5,1.5v4C38.5,15.776,38.276,16,38,16z"/>
	</g>
</g>
</svg>
