<?xml version="1.0" encoding="utf-8"?>
<!-- Generator: Adobe Illustrator 21.1.0, SVG Export Plug-In . SVG Version: 6.00 Build 0)  -->
<svg version="1.1" id="Layer_1" xmlns="http://www.w3.org/2000/svg" xmlns:xlink="http://www.w3.org/1999/xlink" x="0px" y="0px"
	 viewBox="0 0 64 64" style="enable-background:new 0 0 64 64;" xml:space="preserve">
<style type="text/css">
	.st0{fill:#263238;}
	.st1{fill:#FFD740;}
	.st2{fill:#40C4FF;}
	.st3{fill:#FF5252;}
	.st4{fill:#4DB6AC;}
	.st5{fill:#FFFFFF;}
	.st6{fill:#37474F;}
	.st7{fill:#4FC3F7;}
</style>
<g>
	<g>
		<circle class="st3" cx="8" cy="50" r="7.5"/>
		<path class="st0" d="M8,58c-4.411,0-8-3.589-8-8s3.589-8,8-8s8,3.589,8,8S12.412,58,8,58z M8,43c-3.86,0-7,3.14-7,7s3.14,7,7,7
			s7-3.14,7-7S11.86,43,8,43z"/>
	</g>
	<g>
		<path class="st0" d="M10.829,53.328c-0.128,0-0.256-0.049-0.354-0.146c-1.365-1.365-3.586-1.364-4.95,0
			c-0.195,0.195-0.512,0.195-0.707,0s-0.195-0.512,0-0.707c1.754-1.754,4.608-1.755,6.364,0c0.195,0.195,0.195,0.512,0,0.707
			C11.084,53.279,10.957,53.328,10.829,53.328z"/>
	</g>
	<g>
		<circle class="st0" cx="5.5" cy="49" r="1"/>
	</g>
	<g>
		<circle class="st0" cx="10.5" cy="49" r="1"/>
	</g>
	<g>
		<circle class="st4" cx="8.001" cy="14" r="7.5"/>
		<path class="st0" d="M8,22c-4.411,0-8-3.589-8-8s3.589-8,8-8s8,3.589,8,8S12.412,22,8,22z M8,7c-3.86,0-7,3.14-7,7s3.14,7,7,7
			s7-3.14,7-7S11.86,7,8,7z"/>
	</g>
	<g>
		<path class="st0" d="M8,18.498c-1.152,0-2.304-0.438-3.182-1.316c-0.195-0.195-0.195-0.512,0-0.707s0.512-0.195,0.707,0
			c1.365,1.364,3.586,1.364,4.95,0c0.195-0.195,0.512-0.195,0.707,0s0.195,0.512,0,0.707C10.305,18.059,9.153,18.498,8,18.498z"/>
	</g>
	<g>
		<circle class="st0" cx="5.501" cy="13" r="1"/>
	</g>
	<g>
		<circle class="st0" cx="10.501" cy="13" r="1"/>
	</g>
	<g>
		<path class="st0" d="M8,40c-4.411,0-8-3.589-8-8s3.589-8,8-8s8,3.589,8,8S12.412,40,8,40z M8,25c-3.86,0-7,3.14-7,7s3.14,7,7,7
			s7-3.14,7-7S11.86,25,8,25z"/>
	</g>
	<g>
		<path class="st0" d="M10.829,35.328H5.172c-0.276,0-0.5-0.224-0.5-0.5s0.224-0.5,0.5-0.5h5.657c0.276,0,0.5,0.224,0.5,0.5
			S11.105,35.328,10.829,35.328z"/>
	</g>
	<g>
		<circle class="st0" cx="5.5" cy="31" r="1"/>
	</g>
	<g>
		<circle class="st0" cx="10.5" cy="31" r="1"/>
	</g>
	<g>
		<path class="st0" d="M45.5,34.5c-5.244,0-9.746-3.475-11.095-8.501C32.795,25.947,31.5,24.622,31.5,23
			c0-1.623,1.294-2.948,2.905-2.999C35.754,14.974,40.257,11.5,45.5,11.5s9.746,3.474,11.095,8.501
			c1.61,0.05,2.905,1.376,2.905,2.999s-1.294,2.948-2.905,2.999C55.246,31.025,50.744,34.5,45.5,34.5z M34.719,24.98
			c0.24,0,0.505,0.15,0.558,0.378C36.378,30.152,40.583,33.5,45.5,33.5c4.917,0,9.122-3.348,10.224-8.141
			c0.057-0.249,0.293-0.418,0.545-0.385C56.403,24.992,56.451,25,56.5,25c1.103,0,2-0.897,2-2s-0.897-2-2-2
			c-0.048,0-0.095,0.008-0.142,0.014c-0.26,0.036-0.577-0.121-0.635-0.373C54.622,15.847,50.418,12.5,45.5,12.5
			c-4.918,0-9.122,3.348-10.224,8.141c-0.057,0.249-0.299,0.414-0.545,0.385C34.596,21.007,34.549,21,34.5,21c-1.103,0-2,0.897-2,2
			s0.897,2,2,2c0.05,0,0.098-0.008,0.146-0.015C34.67,24.982,34.694,24.98,34.719,24.98z"/>
	</g>
	<g>
		<path class="st1" d="M35.5,22H35v-6.5h3v4C38,20.88,36.881,22,35.5,22z"/>
		<path class="st0" d="M35.5,22.5H35c-0.276,0-0.5-0.224-0.5-0.5v-6.5c0-0.276,0.224-0.5,0.5-0.5h3c0.276,0,0.5,0.224,0.5,0.5v4
			C38.5,21.154,37.155,22.5,35.5,22.5z M35.5,21.5h0.01H35.5z M35.5,16v5.5c1.103,0,2-0.897,2-2V16H35.5z"/>
	</g>
	<g>
		<path class="st1" d="M53,15.449v4.05c0,1.381,1.119,2.5,2.5,2.5H56v-7.935C55.212,14.839,54.162,15.332,53,15.449z"/>
		<path class="st0" d="M56,22.5h-0.5c-1.654,0-3-1.346-3-3v-4.05c0-0.257,0.194-0.472,0.45-0.498c1.03-0.104,1.988-0.545,2.7-1.244
			c0.145-0.141,0.359-0.182,0.543-0.104c0.186,0.078,0.307,0.26,0.307,0.461V22C56.5,22.276,56.277,22.5,56,22.5z M53.5,15.883V19.5
			c0,1.103,0.897,2,2,2v-6.401C54.899,15.483,54.218,15.751,53.5,15.883z"/>
	</g>
	<g>
		<path class="st0" d="M45.5,28.497c-1.409,0-2.817-0.536-3.889-1.608c-0.195-0.195-0.195-0.512,0-0.707s0.512-0.195,0.707,0
			c1.755,1.755,4.609,1.755,6.364,0c0.195-0.195,0.512-0.195,0.707,0s0.195,0.512,0,0.707C48.317,27.961,46.909,28.497,45.5,28.497z
			"/>
	</g>
	<g>
		<path class="st1" d="M52.5,15.5H35v0c0-4.142,3.358-7.5,7.5-7.5h5.205c2.171,0,4.315-0.471,6.286-1.381L57.5,5v5.5
			C57.5,13.261,55.262,15.5,52.5,15.5z"/>
		<path class="st0" d="M52.5,16H35c-0.276,0-0.5-0.224-0.5-0.5c0-4.411,3.589-8,8-8h5.206c2.084,0,4.185-0.461,6.076-1.334
			l3.509-1.62c0.154-0.071,0.335-0.059,0.479,0.033C57.914,4.67,58,4.829,58,5v5.5C58,13.532,55.533,16,52.5,16z M35.518,15H52.5
			c2.481,0,4.5-2.019,4.5-4.5V5.781l-2.799,1.292C52.18,8.006,49.934,8.5,47.706,8.5H42.5C38.809,8.5,35.775,11.372,35.518,15z"/>
	</g>
	<g>
		<polygon class="st2" points="48,56.062 45.5,59 43,56.062 44.5,41 46.5,41 		"/>
		<path class="st0" d="M45.5,59.5c-0.146,0-0.286-0.064-0.381-0.176l-2.5-2.938c-0.088-0.104-0.13-0.239-0.117-0.374l1.5-15.062
			c0.025-0.256,0.241-0.451,0.498-0.451h2c0.257,0,0.472,0.195,0.498,0.451l1.5,15.062c0.014,0.135-0.029,0.27-0.117,0.374
			l-2.5,2.938C45.786,59.436,45.647,59.5,45.5,59.5z M43.519,55.9l1.981,2.328l1.981-2.328l-1.434-14.4h-1.095L43.519,55.9z"/>
	</g>
	<g>
		<path class="st0" d="M35.5,59.5c-0.276,0-0.5-0.224-0.5-0.5V49c0-0.276,0.224-0.5,0.5-0.5S36,48.723,36,49v10
			C36,59.276,35.777,59.5,35.5,59.5z"/>
	</g>
	<g>
		<path class="st0" d="M55.5,59.5c-0.276,0-0.5-0.224-0.5-0.5V49c0-0.276,0.224-0.5,0.5-0.5S56,48.723,56,49v10
			C56,59.276,55.777,59.5,55.5,59.5z"/>
	</g>
	<g>
		<path class="st0" d="M27.5,59.5c-0.276,0-0.5-0.224-0.5-0.5V45.945c0-3.205,1.903-6.091,4.849-7.353l6.973-2.988
			c0.251-0.11,0.547,0.008,0.656,0.263c0.109,0.253-0.009,0.547-0.263,0.656l-6.973,2.988C29.666,40.616,28,43.141,28,45.945V59
			C28,59.276,27.777,59.5,27.5,59.5z"/>
	</g>
	<g>
		<path class="st0" d="M63.5,59.5c-0.276,0-0.5-0.224-0.5-0.5V45.945c0-2.804-1.666-5.33-4.243-6.434l-6.973-2.989
			c-0.254-0.109-0.372-0.403-0.263-0.656c0.108-0.254,0.405-0.372,0.656-0.263l6.973,2.989C62.097,39.854,64,42.741,64,45.945V59
			C64,59.276,63.777,59.5,63.5,59.5z"/>
	</g>
	<g>
		<path class="st0" d="M39.435,41.5c-0.07,0-0.141-0.015-0.207-0.044c-0.165-0.075-0.276-0.233-0.292-0.414l-0.416-4.937
			c-0.018-0.215,0.103-0.417,0.301-0.501l2.482-1.063c0.22-0.094,0.479-0.018,0.613,0.182l2,3c0.148,0.222,0.096,0.521-0.119,0.68
			l-4.066,3C39.644,41.467,39.54,41.5,39.435,41.5z M39.547,36.381l0.311,3.686l2.962-2.186l-1.505-2.257L39.547,36.381z"/>
	</g>
	<g>
		<path class="st0" d="M51.557,41.5c-0.105,0-0.21-0.033-0.297-0.098l-4.056-3c-0.214-0.158-0.267-0.458-0.119-0.679l2-3
			c0.134-0.201,0.394-0.277,0.613-0.182l2.481,1.063c0.198,0.085,0.32,0.288,0.301,0.502l-0.425,4.937
			c-0.016,0.18-0.127,0.338-0.292,0.413C51.697,41.485,51.626,41.5,51.557,41.5z M48.181,37.881l2.955,2.185l0.317-3.686
			l-1.767-0.757L48.181,37.881z"/>
	</g>
	<g>
		<path class="st2" d="M46.5,41h-2c-0.552,0-1-0.448-1-1v-1c0-0.552,0.448-1,1-1h2c0.552,0,1,0.448,1,1v1
			C47.5,40.552,47.053,41,46.5,41z"/>
		<path class="st0" d="M46.5,41.5h-2c-0.827,0-1.5-0.673-1.5-1.5v-1c0-0.827,0.673-1.5,1.5-1.5h2c0.827,0,1.5,0.673,1.5,1.5v1
			C48,40.827,47.328,41.5,46.5,41.5z M44.5,38.5c-0.276,0-0.5,0.224-0.5,0.5v1c0,0.276,0.224,0.5,0.5,0.5h2
			c0.276,0,0.5-0.224,0.5-0.5v-1c0-0.276-0.224-0.5-0.5-0.5H44.5z"/>
	</g>
	<g>
		<path class="st0" d="M43.744,38.866c-0.009,0-0.019,0-0.027-0.001c-0.157-0.008-0.301-0.091-0.389-0.222l-2.244-3.366
			C41.03,35.195,41,35.099,41,35v-1.761c0-0.166,0.082-0.32,0.218-0.413c0.136-0.093,0.311-0.113,0.464-0.052
			c2.459,0.963,5.177,0.963,7.636,0c0.153-0.061,0.328-0.041,0.464,0.052C49.919,32.919,50,33.074,50,33.239V35
			c0,0.099-0.029,0.195-0.084,0.277l-2.244,3.366c-0.087,0.131-0.231,0.213-0.389,0.222c-0.167,0.01-0.31-0.058-0.411-0.178
			C46.814,38.617,46.688,38.5,46.5,38.5h-2c-0.179,0-0.302,0.102-0.374,0.187C44.032,38.801,43.892,38.866,43.744,38.866z
			 M42,34.849l1.866,2.799C44.063,37.551,44.28,37.5,44.5,37.5h2c0.221,0,0.437,0.051,0.634,0.147L49,34.849v-0.9
			c-2.272,0.732-4.728,0.732-7,0V34.849z"/>
	</g>
	<g>
		<path class="st0" d="M24.5,14.564h-7c-0.276,0-0.5-0.224-0.5-0.5s0.224-0.5,0.5-0.5h7c0.276,0,0.5,0.224,0.5,0.5
			S24.777,14.564,24.5,14.564z"/>
	</g>
	<g>
		<path class="st0" d="M21.5,17.564c-0.128,0-0.256-0.049-0.354-0.146c-0.195-0.195-0.195-0.512,0-0.707l2.646-2.646l-2.646-2.646
			c-0.195-0.195-0.195-0.512,0-0.707s0.512-0.195,0.707,0l3,3c0.195,0.195,0.195,0.512,0,0.707l-3,3
			C21.756,17.516,21.628,17.564,21.5,17.564z"/>
	</g>
	<g>
		<path class="st0" d="M24.5,32.5h-7c-0.276,0-0.5-0.224-0.5-0.5s0.224-0.5,0.5-0.5h7c0.276,0,0.5,0.224,0.5,0.5
			S24.777,32.5,24.5,32.5z"/>
	</g>
	<g>
		<path class="st0" d="M21.5,35.5c-0.128,0-0.256-0.049-0.354-0.146c-0.195-0.195-0.195-0.512,0-0.707L23.793,32l-2.646-2.646
			c-0.195-0.195-0.195-0.512,0-0.707s0.512-0.195,0.707,0l3,3c0.195,0.195,0.195,0.512,0,0.707l-3,3
			C21.756,35.451,21.628,35.5,21.5,35.5z"/>
	</g>
	<g>
		<path class="st0" d="M24.5,50.5h-7c-0.276,0-0.5-0.224-0.5-0.5s0.224-0.5,0.5-0.5h7c0.276,0,0.5,0.224,0.5,0.5
			S24.777,50.5,24.5,50.5z"/>
	</g>
	<g>
		<path class="st0" d="M21.5,53.5c-0.128,0-0.256-0.049-0.354-0.146c-0.195-0.195-0.195-0.512,0-0.707L23.793,50l-2.646-2.646
			c-0.195-0.195-0.195-0.512,0-0.707s0.512-0.195,0.707,0l3,3c0.195,0.195,0.195,0.512,0,0.707l-3,3
			C21.756,53.451,21.628,53.5,21.5,53.5z"/>
	</g>
</g>
</svg>
