<?xml version="1.0" encoding="utf-8"?>
<!-- Generator: Adobe Illustrator 21.1.0, SVG Export Plug-In . SVG Version: 6.00 Build 0)  -->
<svg version="1.1" id="Layer_1" xmlns="http://www.w3.org/2000/svg" xmlns:xlink="http://www.w3.org/1999/xlink" x="0px" y="0px"
	 viewBox="0 0 64 64" style="enable-background:new 0 0 64 64;" xml:space="preserve">
<style type="text/css">
	.st0{fill:#263238;}
	.st1{fill:#FFD740;}
	.st2{fill:#40C4FF;}
	.st3{fill:#FF5252;}
	.st4{fill:#4DB6AC;}
	.st5{fill:#FFFFFF;}
	.st6{fill:#37474F;}
	.st7{fill:#4FC3F7;}
</style>
<g>
	<g>
		<path class="st0" d="M31.99,52.523c-6.263,0-12.526-1.562-18.237-4.685c-0.16-0.088-0.265-0.259-0.265-0.441v-8
			c0-0.276,0.224-0.5,0.499-0.5c0.001,0,0.001,0,0.001,0c0.275,0,0.499,0.223,0.5,0.499l0.004,1.706
			c10.98,5.894,24.015,5.893,34.991,0l0.005-1.707c0.001-0.275,0.225-0.498,0.5-0.498c0,0,0,0,0.001,0
			c0.275,0,0.499,0.225,0.499,0.5v8c0,0.189-0.107,0.362-0.276,0.447C44.51,50.964,38.251,52.523,31.99,52.523z M14.488,47.101
			c10.97,5.896,24.015,5.898,35-0.001V42.23c-11.019,5.723-23.979,5.723-35,0V47.101z"/>
	</g>
	<g>
		<path class="st1" d="M31.143,14.313L3.073,24.561c-0.876,0.32-0.876,1.559,0,1.879l28.07,10.248c0.554,0.202,1.161,0.202,1.715,0
			l28.07-10.248c0.876-0.32,0.876-1.559,0-1.879l-28.07-10.248C32.304,14.111,31.696,14.111,31.143,14.313z"/>
		<path class="st0" d="M32,37.339c-0.349,0-0.697-0.061-1.029-0.182L2.901,26.909c-0.598-0.218-0.984-0.771-0.985-1.408
			c0-0.638,0.387-1.191,0.985-1.41l28.069-10.247c0.664-0.242,1.395-0.242,2.059,0l28.069,10.247
			c0.599,0.219,0.985,0.772,0.985,1.41c-0.001,0.638-0.388,1.19-0.986,1.408L33.029,37.157C32.697,37.278,32.349,37.339,32,37.339z
			 M31.314,14.783L3.245,25.03c-0.306,0.111-0.329,0.389-0.329,0.471s0.024,0.357,0.328,0.469l28.07,10.248
			c0.441,0.162,0.93,0.162,1.371,0L60.755,25.97c0.305-0.111,0.329-0.387,0.329-0.469s-0.023-0.359-0.329-0.471L32.686,14.783
			C32.244,14.621,31.756,14.621,31.314,14.783L31.314,14.783z M31.143,14.313h0.01H31.143z"/>
	</g>
	<g>
		<path class="st0" d="M49.982,39.9L49.982,39.9c-0.276,0-0.5-0.225-0.5-0.5l0.006-8.968c0-0.276,0.224-0.5,0.5-0.5l0,0
			c0.276,0,0.5,0.225,0.5,0.5L50.482,39.4C50.482,39.677,50.259,39.9,49.982,39.9z"/>
	</g>
	<g>
		<path class="st0" d="M13.988,39.897c-0.276,0-0.5-0.224-0.5-0.5v-8.974c0-0.276,0.224-0.5,0.5-0.5s0.5,0.224,0.5,0.5v8.974
			C14.488,39.674,14.265,39.897,13.988,39.897z"/>
	</g>
	<g>
		<polygon class="st3" points="57.5,51.25 53.5,51.25 54,42.25 57,42.25 		"/>
		<path class="st0" d="M57.5,51.75h-4c-0.138,0-0.269-0.057-0.363-0.156s-0.144-0.234-0.136-0.371l0.5-9
			c0.015-0.266,0.233-0.473,0.499-0.473h3c0.266,0,0.484,0.207,0.499,0.473l0.5,9c0.008,0.137-0.041,0.271-0.136,0.371
			S57.638,51.75,57.5,51.75z M54.028,50.75h2.943l-0.444-8h-2.055L54.028,50.75z"/>
	</g>
	<g>
		<path class="st0" d="M18.5,11.5c-0.276,0-0.5-0.224-0.5-0.5V7c0-0.276,0.224-0.5,0.5-0.5S19,6.724,19,7v4
			C19,11.276,18.776,11.5,18.5,11.5z"/>
	</g>
	<g>
		<path class="st0" d="M20.5,9.5h-4C16.224,9.5,16,9.276,16,9s0.224-0.5,0.5-0.5h4C20.776,8.5,21,8.724,21,9S20.776,9.5,20.5,9.5z"
			/>
	</g>
	<g>
		<path class="st0" d="M10.5,15c-0.276,0-0.5-0.224-0.5-0.5v-4c0-0.276,0.224-0.5,0.5-0.5s0.5,0.224,0.5,0.5v4
			C11,14.776,10.776,15,10.5,15z"/>
	</g>
	<g>
		<path class="st0" d="M12.5,13h-4C8.224,13,8,12.776,8,12.5S8.224,12,8.5,12h4c0.276,0,0.5,0.224,0.5,0.5S12.776,13,12.5,13z"/>
	</g>
	<g>
		<path class="st0" d="M55.5,42.75c-0.276,0-0.5-0.224-0.5-0.5V30.5c0-2.481-2.019-4.5-4.5-4.5H33.988c-0.276,0-0.5-0.224-0.5-0.5
			s0.224-0.5,0.5-0.5H50.5c3.032,0,5.5,2.468,5.5,5.5v11.75C56,42.526,55.776,42.75,55.5,42.75z"/>
	</g>
	<g>
		<path class="st0" d="M40.5,9.5h-2C38.224,9.5,38,9.276,38,9s0.224-0.5,0.5-0.5h2C40.776,8.5,41,8.724,41,9S40.776,9.5,40.5,9.5z"
			/>
	</g>
	<g>
		<path class="st0" d="M58.5,9.5h-16C42.224,9.5,42,9.276,42,9s0.224-0.5,0.5-0.5h16C58.776,8.5,59,8.724,59,9S58.776,9.5,58.5,9.5z
			"/>
	</g>
	<g>
		<path class="st0" d="M25.5,57.5h-2c-0.276,0-0.5-0.224-0.5-0.5s0.224-0.5,0.5-0.5h2c0.276,0,0.5,0.224,0.5,0.5
			S25.776,57.5,25.5,57.5z"/>
	</g>
	<g>
		<path class="st0" d="M21.5,57.5h-16C5.224,57.5,5,57.276,5,57s0.224-0.5,0.5-0.5h16c0.276,0,0.5,0.224,0.5,0.5
			S21.776,57.5,21.5,57.5z"/>
	</g>
	<g>
		<path class="st0" d="M31.988,28c-1.379,0-2.5-1.121-2.5-2.5s1.121-2.5,2.5-2.5s2.5,1.121,2.5,2.5S33.367,28,31.988,28z M31.988,24
			c-0.827,0-1.5,0.673-1.5,1.5s0.673,1.5,1.5,1.5s1.5-0.673,1.5-1.5S32.815,24,31.988,24z"/>
	</g>
</g>
</svg>
