<?xml version="1.0" encoding="utf-8"?>
<!-- Generator: Adobe Illustrator 21.1.0, SVG Export Plug-In . SVG Version: 6.00 Build 0)  -->
<svg version="1.1" id="Layer_1" xmlns="http://www.w3.org/2000/svg" xmlns:xlink="http://www.w3.org/1999/xlink" x="0px" y="0px"
	 viewBox="0 0 64 64" style="enable-background:new 0 0 64 64;" xml:space="preserve">
<style type="text/css">
	.st0{fill:#263238;}
	.st1{fill:#FFD740;}
	.st2{fill:#40C4FF;}
	.st3{fill:#FF5252;}
	.st4{fill:#4DB6AC;}
	.st5{fill:#FFFFFF;}
	.st6{fill:#37474F;}
	.st7{fill:#4FC3F7;}
</style>
<g>
	<g>
		<path class="st0" d="M4,32.501c-0.276,0-0.5-0.224-0.5-0.5c0-15.715,12.785-28.5,28.5-28.5c0.276,0,0.5,0.224,0.5,0.5
			s-0.224,0.5-0.5,0.5c-15.163,0-27.5,12.337-27.5,27.5C4.5,32.277,4.276,32.501,4,32.501z"/>
	</g>
	<g>
		<path class="st0" d="M35,4.501h-1c-0.276,0-0.5-0.224-0.5-0.5s0.224-0.5,0.5-0.5h1c0.276,0,0.5,0.224,0.5,0.5
			S35.276,4.501,35,4.501z"/>
	</g>
	<g>
		<path class="st0" d="M32,60.501c-0.276,0-0.5-0.224-0.5-0.5s0.224-0.5,0.5-0.5c15.163,0,27.5-12.337,27.5-27.5
			c0-0.276,0.224-0.5,0.5-0.5s0.5,0.224,0.5,0.5C60.5,47.716,47.715,60.501,32,60.501z"/>
	</g>
	<g>
		<path class="st0" d="M30,60.501h-1c-0.276,0-0.5-0.224-0.5-0.5s0.224-0.5,0.5-0.5h1c0.276,0,0.5,0.224,0.5,0.5
			S30.276,60.501,30,60.501z"/>
	</g>
	<g>
		<path class="st3" d="M32,8.001c-13.255,0-24,10.745-24,24s10.745,24,24,24s24-10.745,24-24S45.255,8.001,32,8.001z M32,47.001
			c-8.284,0-15-6.716-15-15s6.716-15,15-15s15,6.716,15,15S40.284,47.001,32,47.001z"/>
		<path class="st0" d="M32,56.501c-13.51,0-24.5-10.99-24.5-24.5s10.99-24.5,24.5-24.5s24.5,10.99,24.5,24.5S45.51,56.501,32,56.501
			z M32,8.501c-12.958,0-23.5,10.542-23.5,23.5s10.542,23.5,23.5,23.5s23.5-10.542,23.5-23.5S44.958,8.501,32,8.501z M32,47.501
			c-8.547,0-15.5-6.953-15.5-15.5s6.953-15.5,15.5-15.5s15.5,6.953,15.5,15.5S40.547,47.501,32,47.501z M32,17.501
			c-7.995,0-14.5,6.505-14.5,14.5s6.505,14.5,14.5,14.5s14.5-6.505,14.5-14.5S39.995,17.501,32,17.501z"/>
	</g>
	<g>
		<path class="st0" d="M53,6.501h-4c-0.276,0-0.5-0.224-0.5-0.5s0.224-0.5,0.5-0.5h4c0.276,0,0.5,0.224,0.5,0.5
			S53.276,6.501,53,6.501z"/>
	</g>
	<g>
		<path class="st0" d="M51,8.501c-0.276,0-0.5-0.224-0.5-0.5v-4c0-0.276,0.224-0.5,0.5-0.5s0.5,0.224,0.5,0.5v4
			C51.5,8.277,51.276,8.501,51,8.501z"/>
	</g>
	<g>
		<path class="st0" d="M60,13.001h-4c-0.276,0-0.5-0.224-0.5-0.5s0.224-0.5,0.5-0.5h4c0.276,0,0.5,0.224,0.5,0.5
			S60.276,13.001,60,13.001z"/>
	</g>
	<g>
		<path class="st0" d="M58,15.001c-0.276,0-0.5-0.224-0.5-0.5v-4c0-0.276,0.224-0.5,0.5-0.5s0.5,0.224,0.5,0.5v4
			C58.5,14.777,58.276,15.001,58,15.001z"/>
	</g>
	<g>
		<path class="st5" d="M32,47.001c-1.638,0-3.211-0.272-4.687-0.757l-0.761,9.129c1.751,0.406,3.573,0.628,5.448,0.628
			s3.697-0.222,5.448-0.628l-0.761-9.129C35.211,46.729,33.638,47.001,32,47.001z"/>
		<path class="st0" d="M32,56.501c-1.854,0-3.725-0.216-5.561-0.642c-0.241-0.057-0.405-0.281-0.385-0.529l0.761-9.129
			c0.013-0.152,0.095-0.29,0.222-0.375c0.129-0.084,0.289-0.106,0.433-0.058c2.957,0.973,6.104,0.973,9.061,0
			c0.143-0.051,0.304-0.027,0.433,0.058c0.127,0.085,0.209,0.223,0.222,0.375l0.761,9.129c0.021,0.248-0.144,0.473-0.385,0.529
			C35.725,56.285,33.854,56.501,32,56.501z M27.087,54.979c3.252,0.693,6.574,0.693,9.826,0l-0.673-8.075
			c-2.779,0.793-5.701,0.793-8.48,0L27.087,54.979z"/>
	</g>
	<g>
		<path class="st5" d="M32,17.001c1.638,0,3.211,0.272,4.687,0.757l0.761-9.129C35.697,8.223,33.875,8.001,32,8.001
			s-3.697,0.222-5.448,0.628l0.761,9.129C28.789,17.272,30.362,17.001,32,17.001z"/>
		<path class="st0" d="M36.687,18.258c-0.053,0-0.105-0.008-0.156-0.025c-2.953-0.971-6.107-0.971-9.061,0
			c-0.145,0.049-0.305,0.026-0.433-0.058c-0.127-0.085-0.209-0.223-0.222-0.375l-0.761-9.129c-0.021-0.248,0.144-0.473,0.385-0.529
			c3.666-0.85,7.455-0.85,11.121,0c0.241,0.057,0.405,0.281,0.385,0.529L37.185,17.8c-0.013,0.152-0.095,0.29-0.222,0.375
			C36.88,18.229,36.783,18.258,36.687,18.258z M32,16.501c1.429,0,2.852,0.2,4.24,0.597l0.673-8.075
			c-3.248-0.693-6.578-0.693-9.826,0l0.673,8.075C29.148,16.701,30.571,16.501,32,16.501z"/>
	</g>
	<g>
		<path class="st5" d="M17,32.001c0-1.638,0.272-3.211,0.757-4.687l-9.129-0.761C8.222,28.304,8,30.126,8,32.001
			c0,1.875,0.222,3.697,0.628,5.448l9.129-0.761C17.272,35.212,17,33.639,17,32.001z"/>
		<path class="st0" d="M8.629,37.948c-0.23,0-0.434-0.159-0.487-0.387C7.716,35.73,7.5,33.859,7.5,32.001
			c0-1.859,0.216-3.73,0.642-5.562c0.057-0.241,0.268-0.397,0.529-0.385l9.129,0.761c0.152,0.013,0.29,0.095,0.375,0.222
			c0.084,0.128,0.105,0.287,0.058,0.433c-0.486,1.476-0.732,3-0.732,4.531s0.246,3.055,0.732,4.53
			c0.048,0.146,0.026,0.305-0.058,0.433c-0.085,0.127-0.223,0.209-0.375,0.222l-9.129,0.761C8.656,37.947,8.643,37.948,8.629,37.948
			z M9.021,27.087C8.676,28.71,8.5,30.36,8.5,32.001c0,1.64,0.176,3.29,0.521,4.913l8.076-0.673
			c-0.396-1.388-0.598-2.811-0.598-4.24s0.201-2.854,0.598-4.241L9.021,27.087z"/>
	</g>
	<g>
		<path class="st5" d="M47,32.001c0,1.638-0.272,3.211-0.757,4.687l9.129,0.761C55.778,35.697,56,33.875,56,32.001
			c0-1.875-0.222-3.697-0.628-5.448l-9.129,0.761C46.728,28.79,47,30.362,47,32.001z"/>
		<path class="st0" d="M55.371,37.948c-0.014,0-0.027-0.001-0.042-0.002L46.2,37.186c-0.152-0.013-0.29-0.095-0.375-0.222
			c-0.084-0.128-0.105-0.287-0.058-0.433c0.486-1.476,0.732-2.999,0.732-4.53s-0.246-3.056-0.732-4.531
			c-0.048-0.146-0.026-0.305,0.058-0.433c0.085-0.127,0.223-0.209,0.375-0.222l9.129-0.761c0.262-0.012,0.473,0.144,0.529,0.385
			c0.426,1.831,0.642,3.702,0.642,5.562c0,1.858-0.216,3.729-0.642,5.561C55.805,37.789,55.602,37.948,55.371,37.948z
			 M46.902,36.241l8.076,0.673c0.346-1.623,0.521-3.273,0.521-4.913c0-1.641-0.176-3.291-0.521-4.914l-8.076,0.673
			c0.396,1.388,0.598,2.812,0.598,4.241S47.299,34.854,46.902,36.241z"/>
	</g>
</g>
</svg>
