<?xml version="1.0" encoding="utf-8"?>
<!-- Generator: Adobe Illustrator 21.1.0, SVG Export Plug-In . SVG Version: 6.00 Build 0)  -->
<svg version="1.1" id="Layer_1" xmlns="http://www.w3.org/2000/svg" xmlns:xlink="http://www.w3.org/1999/xlink" x="0px" y="0px"
	 viewBox="0 0 64 64" style="enable-background:new 0 0 64 64;" xml:space="preserve">
<style type="text/css">
	.st0{fill:#263238;}
	.st1{fill:#FFD740;}
	.st2{fill:#40C4FF;}
	.st3{fill:#FF5252;}
	.st4{fill:#4DB6AC;}
	.st5{fill:#FFFFFF;}
	.st6{fill:#37474F;}
	.st7{fill:#4FC3F7;}
</style>
<g>
	<g>
		<path class="st0" d="M20.001,11.969h-10c-0.276,0-0.5-0.224-0.5-0.5s0.224-0.5,0.5-0.5h10c0.276,0,0.5,0.224,0.5,0.5
			S20.277,11.969,20.001,11.969z"/>
	</g>
	<g>
		<path class="st0" d="M8.001,11.969h-1c-0.276,0-0.5-0.224-0.5-0.5s0.224-0.5,0.5-0.5h1c0.276,0,0.5,0.224,0.5,0.5
			S8.277,11.969,8.001,11.969z"/>
	</g>
	<g>
		<path class="st0" d="M54.001,11.969h-10c-0.276,0-0.5-0.224-0.5-0.5s0.224-0.5,0.5-0.5h10c0.276,0,0.5,0.224,0.5,0.5
			S54.277,11.969,54.001,11.969z"/>
	</g>
	<g>
		<path class="st0" d="M57.001,11.969h-1c-0.276,0-0.5-0.224-0.5-0.5s0.224-0.5,0.5-0.5h1c0.276,0,0.5,0.224,0.5,0.5
			S57.277,11.969,57.001,11.969z"/>
	</g>
	<g>
		<path class="st0" d="M32.009,40c-0.276,0-0.5-0.224-0.5-0.5v-9.221c0-0.276,0.224-0.5,0.5-0.5s0.5,0.224,0.5,0.5V39.5
			C32.509,39.776,32.286,40,32.009,40z"/>
	</g>
	<g>
		<path class="st0" d="M52.001,40c-0.276,0-0.5-0.224-0.5-0.5v-3c0-1.103-0.897-2-2-2H14.506c-1.103,0-2,0.897-2,2v3
			c0,0.276-0.224,0.5-0.5,0.5s-0.5-0.224-0.5-0.5v-3c0-1.654,1.346-3,3-3h34.995c1.654,0,3,1.346,3,3v3
			C52.501,39.776,52.277,40,52.001,40z"/>
	</g>
	<g>
		<path class="st0" d="M52,55c-3.584,0-6.5-2.916-6.5-6.5S48.416,42,52,42s6.5,2.916,6.5,6.5S55.584,55,52,55z M52,43
			c-3.032,0-5.5,2.468-5.5,5.5S48.968,54,52,54s5.5-2.468,5.5-5.5S55.032,43,52,43z"/>
	</g>
	<g>
		<path class="st1" d="M56.16,45.031l0.447-0.372C55.507,43.34,53.852,42.5,52,42.5c-3.314,0-6,2.686-6,6h0.566
			C50.072,48.5,53.466,47.273,56.16,45.031z"/>
		<path class="st0" d="M46.566,49H46c-0.276,0-0.5-0.224-0.5-0.5c0-3.584,2.916-6.5,6.5-6.5c1.932,0,3.75,0.853,4.991,2.339
			c0.085,0.102,0.126,0.233,0.114,0.365c-0.012,0.133-0.076,0.255-0.179,0.34l-0.447,0.372l0,0C53.701,47.727,50.181,49,46.566,49z
			 M46.522,48h0.044c3.381,0,6.675-1.19,9.274-3.354l0.045-0.037C54.856,43.581,53.466,43,52,43C49.136,43,46.775,45.2,46.522,48z
			 M56.16,45.031h0.01H56.16z"/>
	</g>
	<g>
		<path class="st0" d="M52.005,60.496c-0.167,0-0.323-0.083-0.416-0.223l-3.004-4.501c-0.055-0.082-0.084-0.178-0.084-0.276
			l-0.002-1.804c0-0.276,0.224-0.501,0.499-0.501c0.001,0,0.001,0,0.001,0c0.276,0,0.5,0.224,0.5,0.499l0.002,1.653l2.503,3.751
			l2.497-3.751l-0.002-1.646c0-0.276,0.224-0.501,0.499-0.501c0.001,0,0.001,0,0.001,0c0.276,0,0.5,0.224,0.5,0.499l0.002,1.798
			c0,0.1-0.029,0.196-0.084,0.278l-2.996,4.501C52.328,60.412,52.173,60.496,52.005,60.496L52.005,60.496z"/>
	</g>
	<g>
		<path class="st0" d="M62,62.997c-0.276,0-0.5-0.224-0.5-0.5v-0.41c0-1.715-0.953-3.258-2.487-4.024l-4.236-2.118
			c-0.247-0.124-0.347-0.424-0.224-0.671c0.125-0.246,0.424-0.347,0.671-0.224l4.236,2.118c1.875,0.938,3.04,2.822,3.04,4.919v0.41
			C62.5,62.773,62.276,62.997,62,62.997z"/>
	</g>
	<g>
		<path class="st0" d="M42,62.999c-0.276,0-0.5-0.224-0.5-0.5v-0.412c0-2.095,1.164-3.979,3.037-4.918l4.235-2.122
			c0.244-0.124,0.547-0.024,0.671,0.224c0.123,0.246,0.023,0.547-0.224,0.671l-4.235,2.122c-1.532,0.768-2.484,2.31-2.484,4.023
			v0.412C42.5,62.775,42.276,62.999,42,62.999z"/>
	</g>
	<g>
		<path class="st0" d="M52,63c-0.276,0-0.5-0.224-0.5-0.5v-2.504c0-0.276,0.224-0.5,0.5-0.5s0.5,0.224,0.5,0.5V62.5
			C52.5,62.776,52.276,63,52,63z"/>
	</g>
	<g>
		<path class="st0" d="M32,55c-3.584,0-6.5-2.916-6.5-6.5S28.416,42,32,42s6.5,2.916,6.5,6.5S35.584,55,32,55z M32,43
			c-3.033,0-5.5,2.468-5.5,5.5S28.967,54,32,54c3.032,0,5.5-2.468,5.5-5.5S35.032,43,32,43z"/>
	</g>
	<g>
		<path class="st1" d="M36.16,45.031l0.447-0.372C35.507,43.34,33.852,42.5,32,42.5c-3.314,0-6,2.686-6,6h0.566
			C30.072,48.5,33.466,47.273,36.16,45.031z"/>
		<path class="st0" d="M26.566,49H26c-0.276,0-0.5-0.224-0.5-0.5c0-3.584,2.916-6.5,6.5-6.5c1.932,0,3.75,0.853,4.991,2.339
			c0.085,0.102,0.126,0.233,0.114,0.365c-0.012,0.133-0.076,0.255-0.179,0.34l-0.447,0.372l0,0C33.701,47.727,30.181,49,26.566,49z
			 M26.522,48h0.044c3.381,0,6.675-1.19,9.274-3.354l0.045-0.037C34.856,43.581,33.466,43,32,43C29.136,43,26.776,45.2,26.522,48z
			 M36.16,45.031h0.01H36.16z"/>
	</g>
	<g>
		<path class="st0" d="M32.004,60.496c-0.167,0-0.323-0.083-0.416-0.223l-3.004-4.501C28.53,55.69,28.5,55.594,28.5,55.495
			L28.5,53.691c0-0.275,0.224-0.5,0.5-0.5c0,0,0,0,0,0c0.276,0,0.5,0.224,0.5,0.5l0.001,1.652l2.503,3.751l2.497-3.751l-0.002-1.646
			c0-0.276,0.224-0.501,0.499-0.501c0.001,0,0.001,0,0.001,0c0.276,0,0.5,0.224,0.5,0.499l0.002,1.798
			c0,0.1-0.029,0.196-0.084,0.278l-2.997,4.501C32.328,60.412,32.172,60.496,32.004,60.496
			C32.004,60.496,32.004,60.496,32.004,60.496z"/>
	</g>
	<g>
		<path class="st0" d="M42,62.997c-0.276,0-0.5-0.224-0.5-0.5v-0.41c0-1.715-0.953-3.258-2.487-4.024l-4.236-2.118
			c-0.247-0.124-0.347-0.424-0.224-0.671c0.124-0.246,0.424-0.347,0.671-0.224l4.236,2.118c1.875,0.938,3.04,2.822,3.04,4.919v0.41
			C42.5,62.773,42.276,62.997,42,62.997z"/>
	</g>
	<g>
		<path class="st0" d="M22,62.999c-0.276,0-0.5-0.224-0.5-0.5v-0.412c0-2.095,1.164-3.979,3.036-4.918l4.236-2.122
			c0.249-0.125,0.548-0.024,0.671,0.224c0.124,0.246,0.023,0.547-0.223,0.671l-4.236,2.122c-1.533,0.768-2.484,2.31-2.484,4.023
			v0.412C22.5,62.775,22.276,62.999,22,62.999z"/>
	</g>
	<g>
		<path class="st0" d="M32,63c-0.276,0-0.5-0.224-0.5-0.5v-2.504c0-0.276,0.224-0.5,0.5-0.5s0.5,0.224,0.5,0.5V62.5
			C32.5,62.776,32.276,63,32,63z"/>
	</g>
	<g>
		<path class="st0" d="M12,55c-3.584,0-6.5-2.916-6.5-6.5S8.416,42,12,42s6.5,2.916,6.5,6.5S15.584,55,12,55z M12,43
			c-3.033,0-5.5,2.468-5.5,5.5S8.967,54,12,54s5.5-2.468,5.5-5.5S15.033,43,12,43z"/>
	</g>
	<g>
		<path class="st1" d="M16.16,45.031l0.447-0.372C15.507,43.34,13.852,42.5,12,42.5c-3.314,0-6,2.686-6,6h0.566
			C10.072,48.5,13.466,47.273,16.16,45.031z"/>
		<path class="st0" d="M6.566,49H6c-0.276,0-0.5-0.224-0.5-0.5c0-3.584,2.916-6.5,6.5-6.5c1.931,0,3.75,0.853,4.991,2.339
			c0.085,0.102,0.126,0.233,0.114,0.365c-0.012,0.133-0.076,0.255-0.178,0.34l-0.447,0.372l0,0C13.701,47.727,10.181,49,6.566,49z
			 M6.522,48h0.044c3.381,0,6.674-1.19,9.274-3.354l0.045-0.037C14.856,43.581,13.466,43,12,43C9.136,43,6.776,45.2,6.522,48z
			 M16.16,45.031h0.01H16.16z"/>
	</g>
	<g>
		<path class="st0" d="M12.004,60.496c-0.167,0-0.323-0.083-0.416-0.223l-3.004-4.501C8.53,55.69,8.5,55.594,8.5,55.495L8.5,53.691
			c0-0.275,0.224-0.5,0.5-0.5c0,0,0,0,0,0c0.276,0,0.5,0.224,0.5,0.5L9.5,55.344l2.503,3.751l2.497-3.751L14.5,53.697
			c0-0.275,0.224-0.5,0.5-0.5c0,0,0,0,0,0c0.276,0,0.5,0.224,0.5,0.5l0.001,1.798c0,0.099-0.029,0.195-0.084,0.277l-2.996,4.501
			C12.328,60.412,12.172,60.496,12.004,60.496C12.004,60.496,12.004,60.496,12.004,60.496z"/>
	</g>
	<g>
		<path class="st0" d="M22,62.997c-0.276,0-0.5-0.224-0.5-0.5v-0.41c0-1.716-0.953-3.258-2.488-4.024l-4.236-2.118
			c-0.247-0.124-0.347-0.424-0.224-0.671c0.124-0.246,0.424-0.348,0.671-0.224l4.236,2.118c1.875,0.938,3.041,2.822,3.041,4.919
			v0.41C22.5,62.773,22.276,62.997,22,62.997z"/>
	</g>
	<g>
		<path class="st0" d="M2,62.999c-0.276,0-0.5-0.224-0.5-0.5v-0.412c0-2.095,1.164-3.979,3.036-4.918l4.236-2.122
			c0.248-0.125,0.547-0.024,0.671,0.224c0.124,0.246,0.023,0.547-0.223,0.671l-4.236,2.122C3.452,58.831,2.5,60.373,2.5,62.087
			v0.412C2.5,62.775,2.276,62.999,2,62.999z"/>
	</g>
	<g>
		<path class="st0" d="M12,63c-0.276,0-0.5-0.224-0.5-0.5v-2.504c0-0.276,0.224-0.5,0.5-0.5s0.5,0.224,0.5,0.5V62.5
			C12.5,62.776,12.276,63,12,63z"/>
	</g>
	<g>
		<path class="st0" d="M32.001,14c-3.584,0-6.5-2.916-6.5-6.5s2.916-6.5,6.5-6.5s6.5,2.916,6.5,6.5S35.585,14,32.001,14z M32.001,2
			c-3.033,0-5.5,2.468-5.5,5.5s2.467,5.5,5.5,5.5c3.032,0,5.5-2.468,5.5-5.5S35.033,2,32.001,2z"/>
	</g>
	<g>
		<path class="st1" d="M36.161,4.031l0.447-0.372C35.508,2.34,33.853,1.5,32.001,1.5c-3.314,0-6,2.686-6,6h0.566
			C30.073,7.5,33.467,6.273,36.161,4.031z"/>
		<path class="st0" d="M26.567,8h-0.566c-0.276,0-0.5-0.224-0.5-0.5c0-3.584,2.916-6.5,6.5-6.5c1.932,0,3.75,0.853,4.991,2.339
			c0.085,0.102,0.126,0.233,0.114,0.365c-0.012,0.133-0.076,0.255-0.179,0.34L36.48,4.416l0,0C33.702,6.727,30.182,8,26.567,8z
			 M26.523,7h0.044c3.381,0,6.675-1.19,9.274-3.354l0.045-0.037C34.857,2.581,33.467,2,32.001,2C29.137,2,26.777,4.2,26.523,7z
			 M36.161,4.031h0.01H36.161z"/>
	</g>
	<g>
		<path class="st0" d="M32.005,19.496c-0.167,0-0.323-0.083-0.416-0.223l-3.003-4.501c-0.055-0.082-0.084-0.179-0.084-0.277
			L28.5,12.691c0-0.275,0.224-0.5,0.5-0.5h0c0.276,0,0.5,0.224,0.5,0.5l0.001,1.652l2.503,3.751l2.497-3.751L34.5,12.698
			c0-0.276,0.224-0.501,0.499-0.501c0.001,0,0.001,0,0.001,0c0.276,0,0.5,0.224,0.5,0.499l0.002,1.798
			c0,0.1-0.029,0.196-0.084,0.278l-2.997,4.501C32.329,19.412,32.173,19.496,32.005,19.496
			C32.005,19.496,32.005,19.496,32.005,19.496z"/>
	</g>
	<g>
		<path class="st0" d="M42.001,23.998c-0.276,0-0.5-0.224-0.5-0.5v-2.411c0-1.715-0.953-3.258-2.487-4.024l-4.236-2.118
			c-0.247-0.124-0.347-0.424-0.224-0.671c0.125-0.246,0.424-0.348,0.671-0.224l4.236,2.118c1.875,0.938,3.04,2.822,3.04,4.919v2.411
			C42.501,23.774,42.277,23.998,42.001,23.998z"/>
	</g>
	<g>
		<path class="st0" d="M22.001,24c-0.276,0-0.5-0.224-0.5-0.5v-2.413c0-2.095,1.164-3.979,3.037-4.918l4.236-2.122
			c0.249-0.124,0.548-0.024,0.671,0.224c0.124,0.246,0.023,0.547-0.223,0.671l-4.236,2.122c-1.533,0.768-2.485,2.31-2.485,4.023
			V23.5C22.501,23.776,22.277,24,22.001,24z"/>
	</g>
	<g>
		<polygon class="st2" points="33.498,25.5 31.998,27.5 30.498,25.5 30.998,16.5 32.998,16.5 		"/>
		<path class="st0" d="M31.999,28c-0.157,0-0.306-0.074-0.4-0.2l-1.5-2c-0.071-0.094-0.106-0.21-0.099-0.327l0.5-9
			C30.514,16.207,30.733,16,30.999,16h2c0.265,0,0.485,0.207,0.5,0.473l0.499,9c0.007,0.117-0.028,0.233-0.099,0.327l-1.5,2
			C32.304,27.926,32.156,28,31.999,28z M31.008,25.346l0.991,1.321l0.99-1.321L32.525,17h-1.054L31.008,25.346z"/>
	</g>
</g>
</svg>
