<?xml version="1.0" encoding="utf-8"?>
<!-- Generator: Adobe Illustrator 21.1.0, SVG Export Plug-In . SVG Version: 6.00 Build 0)  -->
<svg version="1.1" id="Layer_1" xmlns="http://www.w3.org/2000/svg" xmlns:xlink="http://www.w3.org/1999/xlink" x="0px" y="0px"
	 viewBox="0 0 64 64" style="enable-background:new 0 0 64 64;" xml:space="preserve">
<style type="text/css">
	.st0{fill:#263238;}
	.st1{fill:#FFD740;}
	.st2{fill:#40C4FF;}
	.st3{fill:#FF5252;}
	.st4{fill:#4DB6AC;}
	.st5{fill:#FFFFFF;}
	.st6{fill:#37474F;}
	.st7{fill:#4FC3F7;}
</style>
<g>
	<g>
		<path class="st0" d="M18.49,59.5c-0.257,0-0.475-0.196-0.497-0.457L16.08,36.796l-6.337,2.716C7.165,40.616,5.5,43.143,5.5,45.945
			V59c0,0.276-0.224,0.5-0.5,0.5S4.5,59.276,4.5,59V45.945c0-3.204,1.903-6.09,4.849-7.354l6.973-2.988
			c0.147-0.062,0.317-0.051,0.454,0.031c0.138,0.082,0.228,0.226,0.241,0.386l1.973,22.937c0.023,0.275-0.18,0.518-0.455,0.541
			C18.52,59.499,18.505,59.5,18.49,59.5z"/>
	</g>
	<g>
		<path class="st0" d="M27.509,59.5c-0.015,0-0.029-0.001-0.044-0.002c-0.275-0.023-0.479-0.266-0.455-0.541l1.974-22.937
			c0.014-0.16,0.104-0.304,0.241-0.386c0.138-0.081,0.307-0.093,0.454-0.031l6.973,2.988c2.945,1.264,4.849,4.149,4.849,7.354V50.5
			H51c0.276,0,0.5,0.224,0.5,0.5v8c0,0.276-0.224,0.5-0.5,0.5H38c-3.032,0-5.5-2.468-5.5-5.5v-3c0-0.276,0.224-0.5,0.5-0.5
			s0.5,0.224,0.5,0.5v3c0,2.481,2.019,4.5,4.5,4.5h12.5v-7H41c-0.276,0-0.5-0.224-0.5-0.5v-5.055c0-2.803-1.665-5.329-4.243-6.434
			l-6.337-2.716l-1.914,22.247C27.983,59.304,27.765,59.5,27.509,59.5z"/>
	</g>
	<g>
		<path class="st0" d="M59.439,58.5H53c-0.276,0-0.5-0.224-0.5-0.5s0.224-0.5,0.5-0.5h6.439c0.888,0,1.679-0.597,1.923-1.45
			l1.118-3.912c0.043-0.152,0.014-0.312-0.082-0.438c-0.095-0.127-0.241-0.199-0.399-0.199H53c-0.276,0-0.5-0.224-0.5-0.5
			s0.224-0.5,0.5-0.5h8.999c0.476,0,0.912,0.218,1.198,0.597s0.375,0.858,0.244,1.316l-1.118,3.912
			C61.958,57.605,60.771,58.5,59.439,58.5z"/>
	</g>
	<g>
		<path class="st4" d="M60.496,47H48.381c-1.949,0-3.149-2.131-2.137-3.797L52.439,33h4l6.194,10.203
			C63.645,44.869,62.445,47,60.496,47z"/>
		<path class="st0" d="M60.496,47.5H48.381c-1.099,0-2.076-0.571-2.614-1.528c-0.539-0.957-0.52-2.089,0.05-3.028l6.194-10.203
			c0.091-0.149,0.253-0.24,0.428-0.24h4c0.175,0,0.337,0.091,0.428,0.24l6.194,10.203c0.569,0.939,0.589,2.071,0.05,3.028
			C62.572,46.929,61.595,47.5,60.496,47.5z M52.72,33.5l-6.048,9.963c-0.381,0.626-0.393,1.38-0.034,2.019
			c0.359,0.638,1.011,1.019,1.743,1.019h12.115c0.732,0,1.384-0.381,1.743-1.019c0.358-0.639,0.347-1.393-0.034-2.019L56.157,33.5
			H52.72z"/>
	</g>
	<g>
		<path class="st0" d="M56.438,33.5h-4c-0.276,0-0.5-0.224-0.5-0.5v-2c0-0.276,0.224-0.5,0.5-0.5h4c0.276,0,0.5,0.224,0.5,0.5v2
			C56.938,33.276,56.715,33.5,56.438,33.5z M52.938,32.5h3v-1h-3V32.5z"/>
	</g>
	<g>
		<path class="st0" d="M55.188,43h-2.25c-0.276,0-0.5-0.224-0.5-0.5s0.224-0.5,0.5-0.5h2.25c0.413,0,0.75-0.337,0.75-0.75
			s-0.337-0.75-0.75-0.75h-1.5c-0.965,0-1.75-0.785-1.75-1.75S52.724,37,53.688,37h2.25c0.276,0,0.5,0.224,0.5,0.5
			s-0.224,0.5-0.5,0.5h-2.25c-0.413,0-0.75,0.337-0.75,0.75s0.337,0.75,0.75,0.75h1.5c0.965,0,1.75,0.785,1.75,1.75
			S56.153,43,55.188,43z"/>
	</g>
	<g>
		<path class="st0" d="M54.438,37.5c-0.276,0-0.5-0.224-0.5-0.5v-1c0-0.276,0.224-0.5,0.5-0.5s0.5,0.224,0.5,0.5v1
			C54.938,37.276,54.715,37.5,54.438,37.5z"/>
	</g>
	<g>
		<path class="st0" d="M54.438,44.5c-0.276,0-0.5-0.224-0.5-0.5v-1c0-0.276,0.224-0.5,0.5-0.5s0.5,0.224,0.5,0.5v1
			C54.938,44.276,54.715,44.5,54.438,44.5z"/>
	</g>
	<g>
		<polygon class="st4" points="56.439,31 52.439,31 50.439,25 58.439,25 		"/>
		<path class="st0" d="M56.438,31.5h-4c-0.215,0-0.406-0.138-0.475-0.342l-2-6c-0.051-0.152-0.025-0.32,0.069-0.45
			c0.094-0.131,0.244-0.208,0.405-0.208h8c0.161,0,0.312,0.077,0.405,0.208c0.095,0.13,0.12,0.298,0.069,0.45l-2,6
			C56.845,31.362,56.653,31.5,56.438,31.5z M52.799,30.5h3.279l1.667-5h-6.613L52.799,30.5z"/>
	</g>
	<g>
		<path class="st0" d="M54.438,28.5c-0.276,0-0.5-0.224-0.5-0.5v-3c0-0.276,0.224-0.5,0.5-0.5s0.5,0.224,0.5,0.5v3
			C54.938,28.276,54.715,28.5,54.438,28.5z"/>
	</g>
	<g>
		<path class="st0" d="M23,34.5c-5.244,0-9.746-3.475-11.095-8.502C10.295,25.948,9,24.622,9,23s1.295-2.948,2.905-2.998
			C13.254,14.975,17.756,11.5,23,11.5s9.746,3.475,11.095,8.502C35.705,20.052,37,21.378,37,23s-1.295,2.948-2.905,2.998
			C32.746,31.025,28.244,34.5,23,34.5z M12.224,24.979c0.239,0,0.5,0.15,0.553,0.379C13.878,30.152,18.082,33.5,23,33.5
			s9.122-3.348,10.224-8.142c0.057-0.248,0.282-0.421,0.548-0.384C33.901,24.992,33.95,25,34,25c1.103,0,2-0.897,2-2s-0.897-2-2-2
			c-0.046,0-0.091,0.008-0.135,0.014c-0.253,0.034-0.583-0.119-0.642-0.372C32.122,15.848,27.918,12.5,23,12.5
			s-9.122,3.348-10.224,8.142c-0.057,0.247-0.294,0.411-0.543,0.385C12.092,21.008,12.047,21,12,21c-1.103,0-2,0.897-2,2
			s0.897,2,2,2c0.051,0,0.101-0.009,0.149-0.016C12.174,24.981,12.198,24.979,12.224,24.979z"/>
	</g>
	<g>
		<path class="st1" d="M13,22h-0.5v-6.5h3v4C15.5,20.881,14.381,22,13,22z"/>
		<path class="st0" d="M13,22.5h-0.5c-0.276,0-0.5-0.224-0.5-0.5v-6.5c0-0.276,0.224-0.5,0.5-0.5h3c0.276,0,0.5,0.224,0.5,0.5v4
			C16,21.154,14.654,22.5,13,22.5z M13,21.5h0.01H13z M13,16v5.5c1.103,0,2-0.897,2-2V16H13z"/>
	</g>
	<g>
		<path class="st1" d="M30.5,15.45v4.05c0,1.381,1.119,2.5,2.5,2.5h0.5v-7.935C32.711,14.84,31.662,15.333,30.5,15.45z"/>
		<path class="st0" d="M33.5,22.5H33c-1.654,0-3-1.346-3-3v-4.05c0-0.257,0.194-0.472,0.45-0.497
			c1.029-0.104,1.988-0.546,2.699-1.244c0.145-0.142,0.359-0.183,0.544-0.104C33.879,13.683,34,13.864,34,14.065V22
			C34,22.276,33.776,22.5,33.5,22.5z M31,15.884V19.5c0,1.103,0.897,2,2,2v-6.401C32.398,15.484,31.718,15.753,31,15.884z"/>
	</g>
	<g>
		<path class="st0" d="M23,28.498c-1.408,0-2.816-0.536-3.889-1.608c-0.195-0.195-0.195-0.512,0-0.707s0.512-0.195,0.707,0
			c1.754,1.754,4.609,1.754,6.363,0c0.195-0.195,0.512-0.195,0.707,0s0.195,0.512,0,0.707C25.816,27.962,24.408,28.498,23,28.498z"
			/>
	</g>
	<g>
		<path class="st1" d="M30,15.5H12.5v0c0-4.142,3.358-7.5,7.5-7.5h5.205c2.171,0,4.315-0.471,6.286-1.381L35,5v5.5
			C35,13.262,32.761,15.5,30,15.5z"/>
		<path class="st0" d="M30,16H12.5c-0.276,0-0.5-0.224-0.5-0.5c0-4.411,3.589-8,8-8h5.205c2.085,0,4.186-0.462,6.076-1.335
			l3.509-1.619c0.156-0.07,0.336-0.06,0.479,0.033C35.413,4.671,35.5,4.829,35.5,5v5.5C35.5,13.532,33.032,16,30,16z M13.018,15H30
			c2.481,0,4.5-2.019,4.5-4.5V5.781l-2.799,1.292C29.68,8.007,27.434,8.5,25.205,8.5H20C16.309,8.5,13.275,11.373,13.018,15z"/>
	</g>
	<g>
		<polygon class="st2" points="25.5,56.063 23,59 20.5,56.063 22,41 24,41 		"/>
		<path class="st0" d="M23,59.5c-0.146,0-0.286-0.064-0.381-0.176l-2.5-2.938c-0.088-0.104-0.13-0.238-0.116-0.374l1.5-15.062
			c0.025-0.256,0.24-0.45,0.497-0.45h2c0.257,0,0.472,0.194,0.497,0.45l1.5,15.062c0.014,0.136-0.028,0.271-0.116,0.374l-2.5,2.938
			C23.286,59.436,23.146,59.5,23,59.5z M21.019,55.9L23,58.229l1.981-2.328l-1.435-14.4h-1.094L21.019,55.9z"/>
	</g>
	<g>
		<path class="st0" d="M13,59.5c-0.276,0-0.5-0.224-0.5-0.5V49c0-0.276,0.224-0.5,0.5-0.5s0.5,0.224,0.5,0.5v10
			C13.5,59.276,13.276,59.5,13,59.5z"/>
	</g>
	<g>
		<path class="st0" d="M33,59.5c-0.276,0-0.5-0.224-0.5-0.5V49c0-0.276,0.224-0.5,0.5-0.5s0.5,0.224,0.5,0.5v10
			C33.5,59.276,33.276,59.5,33,59.5z"/>
	</g>
	<g>
		<path class="st0" d="M16.935,41.5c-0.07,0-0.141-0.015-0.206-0.045c-0.165-0.074-0.277-0.232-0.292-0.413l-0.416-4.937
			c-0.019-0.215,0.104-0.417,0.301-0.502l2.481-1.063c0.224-0.093,0.48-0.018,0.613,0.183l2,3c0.148,0.222,0.096,0.521-0.119,0.68
			l-4.065,3C17.144,41.467,17.04,41.5,16.935,41.5z M17.047,36.381l0.311,3.686l2.962-2.186l-1.505-2.258L17.047,36.381z"/>
	</g>
	<g>
		<path class="st0" d="M29.057,41.5c-0.105,0-0.21-0.033-0.297-0.098l-4.057-3c-0.215-0.159-0.267-0.458-0.119-0.68l2-3
			c0.134-0.2,0.39-0.276,0.613-0.183l2.481,1.063c0.198,0.085,0.319,0.288,0.301,0.503l-0.425,4.937
			c-0.016,0.181-0.127,0.338-0.292,0.413C29.196,41.485,29.127,41.5,29.057,41.5z M25.68,37.881l2.955,2.186l0.317-3.686
			l-1.767-0.758L25.68,37.881z"/>
	</g>
	<g>
		<path class="st0" d="M24,41.5h-2c-0.827,0-1.5-0.673-1.5-1.5v-1c0-0.827,0.673-1.5,1.5-1.5h2c0.827,0,1.5,0.673,1.5,1.5v1
			C25.5,40.827,24.827,41.5,24,41.5z M22,38.5c-0.275,0-0.5,0.225-0.5,0.5v1c0,0.275,0.225,0.5,0.5,0.5h2c0.275,0,0.5-0.225,0.5-0.5
			v-1c0-0.275-0.225-0.5-0.5-0.5H22z"/>
	</g>
	<g>
		<path class="st0" d="M21.244,38.866c-0.009,0-0.019,0-0.027-0.001c-0.157-0.009-0.302-0.091-0.389-0.222l-2.244-3.366
			C18.529,35.195,18.5,35.099,18.5,35v-1.761c0-0.165,0.082-0.32,0.219-0.413c0.137-0.094,0.312-0.111,0.464-0.053
			c2.457,0.965,5.178,0.965,7.635,0c0.152-0.059,0.328-0.041,0.464,0.053c0.137,0.093,0.219,0.248,0.219,0.413V35
			c0,0.099-0.029,0.195-0.084,0.277l-2.244,3.366c-0.088,0.131-0.231,0.214-0.389,0.222c-0.179,0.014-0.31-0.058-0.411-0.179
			C24.313,38.617,24.188,38.5,24,38.5h-2c-0.188,0-0.314,0.117-0.373,0.188C21.532,38.801,21.392,38.866,21.244,38.866z
			 M19.5,34.849l1.866,2.799C21.563,37.552,21.779,37.5,22,37.5h2c0.221,0,0.438,0.052,0.634,0.147l1.866-2.799v-0.9
			c-2.271,0.732-4.729,0.732-7,0V34.849z"/>
	</g>
	<g>
		<path class="st0" d="M11.5,34H4c-0.276,0-0.5-0.224-0.5-0.5S3.724,33,4,33h7.5c0.276,0,0.5,0.224,0.5,0.5S11.776,34,11.5,34z"/>
	</g>
	<g>
		<path class="st0" d="M2,34H1c-0.276,0-0.5-0.224-0.5-0.5S0.724,33,1,33h1c0.276,0,0.5,0.224,0.5,0.5S2.276,34,2,34z"/>
	</g>
	<g>
		<path class="st0" d="M52.5,18.5h-4c-0.276,0-0.5-0.224-0.5-0.5s0.224-0.5,0.5-0.5h4c0.276,0,0.5,0.224,0.5,0.5
			S52.776,18.5,52.5,18.5z"/>
	</g>
	<g>
		<path class="st0" d="M50.5,20.5c-0.276,0-0.5-0.224-0.5-0.5v-4c0-0.276,0.224-0.5,0.5-0.5S51,15.724,51,16v4
			C51,20.276,50.776,20.5,50.5,20.5z"/>
	</g>
	<g>
		<path class="st0" d="M46.5,23.5h-4c-0.276,0-0.5-0.224-0.5-0.5s0.224-0.5,0.5-0.5h4c0.276,0,0.5,0.224,0.5,0.5
			S46.776,23.5,46.5,23.5z"/>
	</g>
	<g>
		<path class="st0" d="M44.5,25.5c-0.276,0-0.5-0.224-0.5-0.5v-4c0-0.276,0.224-0.5,0.5-0.5S45,20.724,45,21v4
			C45,25.276,44.776,25.5,44.5,25.5z"/>
	</g>
</g>
</svg>
