<?xml version="1.0" encoding="utf-8"?>
<!-- Generator: Adobe Illustrator 21.1.0, SVG Export Plug-In . SVG Version: 6.00 Build 0)  -->
<svg version="1.1" id="Layer_1" xmlns="http://www.w3.org/2000/svg" xmlns:xlink="http://www.w3.org/1999/xlink" x="0px" y="0px"
	 viewBox="0 0 64 64" style="enable-background:new 0 0 64 64;" xml:space="preserve">
<style type="text/css">
	.st0{fill:#263238;}
	.st1{fill:#FFD740;}
	.st2{fill:#40C4FF;}
	.st3{fill:#FF5252;}
	.st4{fill:#4DB6AC;}
	.st5{fill:#FFFFFF;}
	.st6{fill:#37474F;}
	.st7{fill:#4FC3F7;}
</style>
<g>
	<g>
		<path class="st3" d="M28.25,23.892c0-2.364,1.776-4.393,4.043-4.621c1.268-0.123,2.535,0.289,3.477,1.141
			c0.94,0.852,1.48,2.068,1.48,3.337v5.861c0.015-0.002,0.028-0.003,0.043-0.005c1.272-0.124,2.534,0.289,3.476,1.14
			c0.074,0.067,0.146,0.137,0.216,0.208c0.409-0.182,0.849-0.302,1.309-0.349c1.27-0.125,2.534,0.288,3.476,1.14
			c0.183,0.165,0.347,0.348,0.498,0.539c1.564-2.472,2.483-5.393,2.483-8.535c0-8.837-7.163-16-16-16s-16,7.163-16,16
			c0,7.273,4.856,13.402,11.5,15.347V23.892z"/>
	</g>
	<g>
		<path class="st0" d="M28.25,39.596c-0.046,0-0.094-0.006-0.141-0.02C21.127,37.531,16.25,31.023,16.25,23.75
			c0-9.098,7.402-16.5,16.5-16.5s16.5,7.402,16.5,16.5c0,3.111-0.886,6.155-2.561,8.802c-0.148,0.234-0.457,0.304-0.69,0.155
			c-0.233-0.147-0.303-0.457-0.155-0.69c1.574-2.486,2.406-5.345,2.406-8.267c0-8.547-6.953-15.5-15.5-15.5s-15.5,6.953-15.5,15.5
			c0,6.833,4.581,12.946,11.141,14.867c0.265,0.078,0.417,0.355,0.339,0.621C28.666,39.455,28.467,39.596,28.25,39.596z"/>
	</g>
	<g>
		<path class="st2" d="M50.25,59.249v-5.5c0-0.552-0.448-1-1-1h-18c-0.552,0-1,0.448-1,1v5.5c0,0.552,0.448,1,1,1h18
			C49.802,60.249,50.25,59.802,50.25,59.249z"/>
		<path class="st0" d="M49.25,60.75h-18c-0.827,0-1.5-0.673-1.5-1.5v-5.5c0-0.827,0.673-1.5,1.5-1.5h18c0.827,0,1.5,0.673,1.5,1.5
			v5.5C50.75,60.077,50.077,60.75,49.25,60.75z M31.25,53.25c-0.275,0-0.5,0.224-0.5,0.5v5.5c0,0.276,0.225,0.5,0.5,0.5h18
			c0.275,0,0.5-0.224,0.5-0.5v-5.5c0-0.276-0.225-0.5-0.5-0.5H31.25z"/>
	</g>
	<g>
		<path class="st0" d="M30.25,51.25c-0.166,0-0.329-0.083-0.424-0.235l-1.74-2.784c-0.547-0.876-0.836-1.884-0.836-2.915V43.75
			c0-1.484,1.083-2.72,2.5-2.958V23.892c0-1.603,1.183-2.976,2.692-3.127c0.845-0.084,1.692,0.192,2.32,0.76
			c0.628,0.568,0.987,1.378,0.987,2.225v8.137c0.459-0.435,1.046-0.724,1.692-0.789c0.854-0.085,1.693,0.193,2.32,0.759
			c0.368,0.334,0.645,0.752,0.811,1.211c0.48-0.536,1.137-0.897,1.869-0.971c0.854-0.084,1.693,0.192,2.32,0.759
			c0.469,0.425,0.789,0.985,0.92,1.595c0.469-0.472,1.081-0.787,1.76-0.854c0.854-0.083,1.694,0.192,2.32,0.759
			c0.627,0.568,0.987,1.379,0.987,2.225V50.75c0,0.276-0.224,0.5-0.5,0.5s-0.5-0.224-0.5-0.5V36.583c0-0.564-0.24-1.104-0.658-1.483
			c-0.425-0.383-0.972-0.564-1.55-0.506c-1.005,0.101-1.792,1.037-1.792,2.132c0,0.276-0.224,0.5-0.5,0.5s-0.5-0.224-0.5-0.5v-1.643
			c0-0.564-0.24-1.104-0.658-1.483c-0.425-0.384-0.974-0.563-1.55-0.506c-1.005,0.101-1.792,1.037-1.792,2.132
			c0,0.276-0.224,0.5-0.5,0.5s-0.5-0.224-0.5-0.5v-1.143c0-0.564-0.24-1.104-0.658-1.483c-0.425-0.384-0.973-0.566-1.55-0.506
			c-1.005,0.101-1.792,1.037-1.792,2.132c0,0.276-0.224,0.5-0.5,0.5s-0.5-0.224-0.5-0.5V23.75c0-0.564-0.24-1.105-0.658-1.483
			c-0.424-0.384-0.973-0.564-1.55-0.506c-1.005,0.101-1.792,1.037-1.792,2.132V41.25c0,0.276-0.224,0.5-0.5,0.5
			c-1.103,0-2,0.897-2,2v1.566c0,0.844,0.236,1.668,0.684,2.385l1.74,2.784c0.146,0.234,0.075,0.543-0.159,0.689
			C30.433,51.225,30.341,51.25,30.25,51.25z"/>
	</g>
	<g>
		<path class="st0" d="M28.25,33.171c-0.076,0-0.153-0.017-0.226-0.054c-3.562-1.801-5.774-5.39-5.774-9.368
			c0-5.79,4.71-10.5,10.5-10.5s10.5,4.71,10.5,10.5c0,2.552-0.937,5.017-2.636,6.941c-0.184,0.207-0.501,0.225-0.706,0.043
			c-0.207-0.183-0.227-0.499-0.044-0.706c1.538-1.741,2.386-3.971,2.386-6.279c0-5.238-4.262-9.5-9.5-9.5s-9.5,4.262-9.5,9.5
			c0,3.598,2.002,6.846,5.226,8.475c0.246,0.125,0.346,0.425,0.221,0.672C28.608,33.071,28.433,33.171,28.25,33.171z"/>
	</g>
	<g>
		<path class="st0" d="M35.25,37.226c-0.276,0-0.5-0.224-0.5-0.5v-2.5c0-0.276,0.224-0.5,0.5-0.5s0.5,0.224,0.5,0.5v2.5
			C35.75,37.002,35.526,37.226,35.25,37.226z"/>
	</g>
	<g>
		<path class="st0" d="M40.25,37.226c-0.276,0-0.5-0.224-0.5-0.5v-2.5c0-0.276,0.224-0.5,0.5-0.5s0.5,0.224,0.5,0.5v2.5
			C40.75,37.002,40.526,37.226,40.25,37.226z"/>
	</g>
	<g>
		<path class="st0" d="M25.922,43.028c-0.057,0-0.114-0.01-0.171-0.03C17.676,40.06,12.25,32.324,12.25,23.75
			c0-0.276,0.224-0.5,0.5-0.5s0.5,0.224,0.5,0.5c0,8.156,5.161,15.514,12.843,18.309c0.26,0.094,0.394,0.381,0.299,0.641
			C26.317,42.902,26.126,43.028,25.922,43.028z"/>
	</g>
	<g>
		<path class="st0" d="M52.75,24.25c-0.276,0-0.5-0.224-0.5-0.5c0-10.752-8.748-19.5-19.5-19.5c-0.276,0-0.5-0.224-0.5-0.5
			s0.224-0.5,0.5-0.5c11.304,0,20.5,9.196,20.5,20.5C53.25,24.026,53.026,24.25,52.75,24.25z"/>
	</g>
	<g>
		<path class="st0" d="M30.75,4.25h-2c-0.276,0-0.5-0.224-0.5-0.5s0.224-0.5,0.5-0.5h2c0.276,0,0.5,0.224,0.5,0.5
			S31.026,4.25,30.75,4.25z"/>
	</g>
	<g>
		<path class="st0" d="M20.25,6.25h-4c-0.276,0-0.5-0.224-0.5-0.5s0.224-0.5,0.5-0.5h4c0.276,0,0.5,0.224,0.5,0.5
			S20.526,6.25,20.25,6.25z"/>
	</g>
	<g>
		<path class="st0" d="M18.25,8.25c-0.276,0-0.5-0.224-0.5-0.5v-4c0-0.276,0.224-0.5,0.5-0.5s0.5,0.224,0.5,0.5v4
			C18.75,8.026,18.526,8.25,18.25,8.25z"/>
	</g>
	<g>
		<path class="st0" d="M15.25,12.75h-4c-0.276,0-0.5-0.224-0.5-0.5s0.224-0.5,0.5-0.5h4c0.276,0,0.5,0.224,0.5,0.5
			S15.526,12.75,15.25,12.75z"/>
	</g>
	<g>
		<path class="st0" d="M13.25,14.75c-0.276,0-0.5-0.224-0.5-0.5v-4c0-0.276,0.224-0.5,0.5-0.5s0.5,0.224,0.5,0.5v4
			C13.75,14.526,13.526,14.75,13.25,14.75z"/>
	</g>
</g>
</svg>
