<?xml version="1.0" encoding="utf-8"?>
<!-- Generator: Adobe Illustrator 21.1.0, SVG Export Plug-In . SVG Version: 6.00 Build 0)  -->
<svg version="1.1" id="Layer_1" xmlns="http://www.w3.org/2000/svg" xmlns:xlink="http://www.w3.org/1999/xlink" x="0px" y="0px"
	 viewBox="0 0 64 64" style="enable-background:new 0 0 64 64;" xml:space="preserve">
<style type="text/css">
	.st0{fill:#263238;}
	.st1{fill:#FFD740;}
	.st2{fill:#40C4FF;}
	.st3{fill:#FF5252;}
	.st4{fill:#4DB6AC;}
	.st5{fill:#FFFFFF;}
	.st6{fill:#37474F;}
	.st7{fill:#4FC3F7;}
</style>
<g>
	<g>
		<path class="st1" d="M42.613,32.118l-0.628,1.087c-0.238,0.413-0.735,0.6-1.186,0.447l-1.638-0.554l-0.41-0.236
			c-1.066,0.978-2.337,1.735-3.751,2.179v0.46l-0.339,1.696C34.567,37.663,34.157,38,33.68,38h-3.36
			c-0.477,0-0.887-0.336-0.981-0.804L29,35.5v-0.46c-1.414-0.444-2.685-1.201-3.751-2.179l-0.41,0.236l-1.638,0.554
			c-0.452,0.153-0.948-0.034-1.186-0.447l-1.68-2.91c-0.238-0.413-0.152-0.936,0.206-1.251l1.299-1.142l0.403-0.233
			C22.088,26.97,22,26.246,22,25.5s0.088-1.47,0.243-2.169l-0.403-0.233l-1.299-1.142c-0.358-0.315-0.444-0.838-0.206-1.251
			l1.68-2.91c0.238-0.413,0.735-0.6,1.186-0.447l1.638,0.554l0.409,0.236c1.066-0.978,2.337-1.735,3.751-2.179V15.5l0.339-1.696
			C29.432,13.336,29.843,13,30.32,13h3.36c0.477,0,0.887,0.336,0.981,0.804L35,15.5v0.459c1.414,0.444,2.685,1.201,3.751,2.179
			l0.409-0.236l1.638-0.554c0.452-0.153,0.948,0.034,1.186,0.447l0.628,1.087l-4.873,4.873C36.992,21.293,34.706,19.5,32,19.5
			c-3.314,0-6,2.686-6,6s2.686,6,6,6c2.706,0,4.993-1.793,5.74-4.255L42.613,32.118z"/>
	</g>
	<g>
		<path class="st0" d="M38,61.5c-0.276,0-0.5-0.224-0.5-0.5v-9c0-0.276,0.224-0.5,0.5-0.5s0.5,0.224,0.5,0.5v9
			C38.5,61.276,38.276,61.5,38,61.5z"/>
	</g>
	<g>
		<polygon class="st2" points="38.823,25.5 44.823,31.5 44.823,28 57.323,28 57.323,23 44.823,23 44.823,19.5 		"/>
		<path class="st0" d="M44.823,32c-0.13,0-0.258-0.051-0.354-0.146l-6-6c-0.195-0.195-0.195-0.512,0-0.707l6-6
			c0.144-0.143,0.357-0.187,0.545-0.108c0.187,0.077,0.309,0.26,0.309,0.462v3h12c0.276,0,0.5,0.224,0.5,0.5v5
			c0,0.276-0.224,0.5-0.5,0.5h-12v3c0,0.202-0.122,0.385-0.309,0.462C44.952,31.988,44.887,32,44.823,32z M39.53,25.5l4.793,4.793
			V28c0-0.276,0.224-0.5,0.5-0.5h12v-4h-12c-0.276,0-0.5-0.224-0.5-0.5v-2.293L39.53,25.5z"/>
	</g>
	<g>
		<path class="st0" d="M32,32c-3.584,0-6.5-2.916-6.5-6.5S28.416,19,32,19c2.882,0,5.381,1.853,6.219,4.609
			c0.08,0.264-0.069,0.543-0.333,0.624c-0.267,0.08-0.544-0.069-0.624-0.333C36.553,21.567,34.438,20,32,20
			c-3.033,0-5.5,2.467-5.5,5.5S28.967,31,32,31c2.439,0,4.554-1.567,5.262-3.9c0.081-0.264,0.357-0.412,0.624-0.333
			c0.264,0.081,0.413,0.36,0.333,0.624C37.381,30.147,34.882,32,32,32z"/>
	</g>
	<g>
		<path class="st0" d="M33.68,38.5h-3.361c-0.712,0-1.331-0.507-1.471-1.206l-0.343-1.892c-1.211-0.427-2.325-1.074-3.32-1.928
			l-0.097,0.056l-1.728,0.595c-0.676,0.229-1.423-0.054-1.78-0.671l-1.68-2.91c-0.356-0.617-0.226-1.406,0.309-1.877l1.472-1.245
			c-0.121-0.645-0.182-1.29-0.182-1.923c0-0.631,0.061-1.274,0.181-1.917l-0.091-0.052l-1.38-1.2
			c-0.535-0.47-0.665-1.259-0.309-1.876l1.68-2.91c0.356-0.617,1.107-0.898,1.78-0.671l1.82,0.655
			c0.994-0.854,2.107-1.502,3.318-1.93V15.5l0.349-1.794c0.14-0.699,0.759-1.206,1.471-1.206h3.36c0.712,0,1.331,0.507,1.471,1.206
			l0.342,1.891c1.211,0.428,2.325,1.075,3.32,1.928l0.097-0.056l1.728-0.595c0.676-0.229,1.424,0.054,1.78,0.671l0.628,1.087
			c0.138,0.239,0.056,0.545-0.183,0.683c-0.239,0.137-0.545,0.056-0.683-0.183l-0.628-1.087c-0.119-0.206-0.368-0.3-0.593-0.224
			l-1.638,0.554l-0.319,0.196c-0.188,0.108-0.428,0.083-0.588-0.064c-1.046-0.96-2.245-1.657-3.563-2.071
			c-0.208-0.065-0.35-0.259-0.35-0.477V15.5l-0.329-1.598c-0.047-0.233-0.253-0.402-0.491-0.402h-3.36
			c-0.237,0-0.443,0.169-0.49,0.402l-0.339,1.696l0.01,0.361c0,0.218-0.142,0.412-0.35,0.477c-1.318,0.415-2.517,1.111-3.563,2.071
			c-0.161,0.147-0.4,0.173-0.588,0.064l-0.409-0.236l-1.548-0.514c-0.226-0.077-0.475,0.018-0.593,0.224l-1.68,2.91
			c-0.119,0.206-0.076,0.469,0.103,0.625l1.299,1.142l0.323,0.175c0.189,0.109,0.286,0.328,0.239,0.542
			C22.577,24.13,22.5,24.823,22.5,25.5s0.078,1.37,0.231,2.061c0.047,0.213-0.049,0.433-0.238,0.542l-0.404,0.233l-1.219,1.083
			c-0.178,0.157-0.221,0.42-0.103,0.626l1.68,2.91c0.118,0.206,0.365,0.299,0.593,0.224l1.638-0.554l0.32-0.196
			c0.189-0.109,0.427-0.083,0.588,0.064c1.046,0.96,2.245,1.656,3.563,2.07c0.208,0.065,0.35,0.259,0.35,0.477v0.46l0.33,1.598
			c0.047,0.233,0.253,0.402,0.49,0.402h3.361c0.237,0,0.443-0.169,0.49-0.402l0.339-1.696l-0.01-0.362
			c0-0.218,0.142-0.412,0.35-0.477c1.318-0.414,2.517-1.11,3.563-2.07c0.16-0.147,0.399-0.174,0.588-0.064l0.41,0.236l1.548,0.514
			c0.229,0.076,0.475-0.018,0.593-0.224l0.628-1.087c0.138-0.24,0.444-0.322,0.683-0.183c0.239,0.138,0.321,0.444,0.183,0.683
			l-0.628,1.087c-0.356,0.617-1.104,0.899-1.78,0.671l-1.82-0.655c-0.995,0.854-2.108,1.502-3.319,1.93v0.1l-0.349,1.794
			C35.011,37.993,34.392,38.5,33.68,38.5z"/>
	</g>
	<g>
		<path class="st0" d="M22,61.5c-0.276,0-0.5-0.224-0.5-0.5l-0.001-14.952l-3.062-2.702c-4.409-3.89-6.937-9.492-6.937-15.372V26
			c0-11.304,9.196-20.5,20.5-20.5c9.34,0,17.494,6.322,19.829,15.375c0.069,0.268-0.092,0.54-0.359,0.609
			c-0.267,0.071-0.54-0.091-0.609-0.359C48.639,12.514,40.883,6.5,32,6.5c-10.752,0-19.5,8.748-19.5,19.5v1.975
			c0,5.592,2.405,10.922,6.598,14.622l3.231,2.851c0.108,0.095,0.169,0.231,0.169,0.375L22.5,61C22.5,61.276,22.276,61.5,22,61.5z"
			/>
	</g>
	<g>
		<path class="st0" d="M44.5,52.5H33c-0.276,0-0.5-0.224-0.5-0.5s0.224-0.5,0.5-0.5h11.5c3.86,0,7-3.14,7-7V38
			c0-0.276,0.224-0.5,0.5-0.5h2.642c0.764,0,1.428-0.405,1.778-1.084c0.35-0.68,0.293-1.456-0.15-2.078l-2.891-4.047
			c-0.161-0.225-0.108-0.537,0.116-0.697c0.225-0.162,0.537-0.108,0.697,0.116l2.891,4.047c0.656,0.918,0.743,2.113,0.226,3.117
			c-0.517,1.003-1.539,1.627-2.667,1.627H52.5v6C52.5,48.911,48.911,52.5,44.5,52.5z"/>
	</g>
	<g>
		<path class="st0" d="M6,57.5H5c-0.276,0-0.5-0.224-0.5-0.5s0.224-0.5,0.5-0.5h1c0.276,0,0.5,0.224,0.5,0.5S6.276,57.5,6,57.5z"/>
	</g>
	<g>
		<path class="st0" d="M19,57.5H8c-0.276,0-0.5-0.224-0.5-0.5s0.224-0.5,0.5-0.5h11c0.276,0,0.5,0.224,0.5,0.5S19.276,57.5,19,57.5z
			"/>
	</g>
	<g>
		<path class="st0" d="M55,57.5h-1c-0.276,0-0.5-0.224-0.5-0.5s0.224-0.5,0.5-0.5h1c0.276,0,0.5,0.224,0.5,0.5S55.276,57.5,55,57.5z
			"/>
	</g>
	<g>
		<path class="st0" d="M52,57.5H41c-0.276,0-0.5-0.224-0.5-0.5s0.224-0.5,0.5-0.5h11c0.276,0,0.5,0.224,0.5,0.5S52.276,57.5,52,57.5
			z"/>
	</g>
	<g>
		<path class="st0" d="M59,11.5h-4c-0.276,0-0.5-0.224-0.5-0.5s0.224-0.5,0.5-0.5h4c0.276,0,0.5,0.224,0.5,0.5S59.277,11.5,59,11.5z
			"/>
	</g>
	<g>
		<path class="st0" d="M54,5.5h-4c-0.276,0-0.5-0.224-0.5-0.5s0.224-0.5,0.5-0.5h4c0.276,0,0.5,0.224,0.5,0.5S54.277,5.5,54,5.5z"/>
	</g>
	<g>
		<path class="st0" d="M52,7.5c-0.276,0-0.5-0.224-0.5-0.5V3c0-0.276,0.224-0.5,0.5-0.5s0.5,0.224,0.5,0.5v4
			C52.5,7.276,52.277,7.5,52,7.5z"/>
	</g>
	<g>
		<path class="st0" d="M57,13.5c-0.276,0-0.5-0.224-0.5-0.5V9c0-0.276,0.224-0.5,0.5-0.5s0.5,0.224,0.5,0.5v4
			C57.5,13.276,57.277,13.5,57,13.5z"/>
	</g>
</g>
</svg>
