<?xml version="1.0" encoding="utf-8"?>
<!-- Generator: Adobe Illustrator 21.1.0, SVG Export Plug-In . SVG Version: 6.00 Build 0)  -->
<svg version="1.1" id="Layer_1" xmlns="http://www.w3.org/2000/svg" xmlns:xlink="http://www.w3.org/1999/xlink" x="0px" y="0px"
	 viewBox="0 0 64 64" style="enable-background:new 0 0 64 64;" xml:space="preserve">
<style type="text/css">
	.st0{fill:#263238;}
	.st1{fill:#FFD740;}
	.st2{fill:#40C4FF;}
	.st3{fill:#FF5252;}
	.st4{fill:#4DB6AC;}
	.st5{fill:#FFFFFF;}
	.st6{fill:#37474F;}
	.st7{fill:#4FC3F7;}
</style>
<g>
	<g>
		<circle class="st1" cx="42.501" cy="47.5" r="8"/>
		<path class="st0" d="M42.501,56c-4.687,0-8.5-3.813-8.5-8.5s3.813-8.5,8.5-8.5s8.5,3.813,8.5,8.5S47.188,56,42.501,56z M42.501,40
			c-4.136,0-7.5,3.364-7.5,7.5s3.364,7.5,7.5,7.5s7.5-3.364,7.5-7.5S46.637,40,42.501,40z"/>
	</g>
	<g>
		<path class="st3" d="M32.501,47.5c0-5.355,4.212-9.714,9.503-9.975l1.601-2.718c3.157-5.357,2.236-12.179-2.228-16.508
			c-5.225-5.066-13.529-5.066-18.753,0c-4.464,4.329-5.385,11.151-2.228,16.508L32,54.5l1.531-2.599
			C32.878,50.572,32.501,49.082,32.501,47.5z M25.266,27.97c0-3.72,3.015-6.735,6.735-6.735s6.735,3.015,6.735,6.735
			c0,3.719-3.015,6.735-6.735,6.735S25.266,31.689,25.266,27.97z"/>
	</g>
	<g>
		<path class="st0" d="M58.001,60.5h-52c-0.15,0-0.293-0.068-0.388-0.185c-0.095-0.117-0.132-0.27-0.101-0.417l5-24
			c0.048-0.232,0.252-0.398,0.489-0.398h6.276c0.276,0,0.5,0.224,0.5,0.5s-0.224,0.5-0.5,0.5h-5.869l-4.792,23h50.771l-4.792-23
			h-7.37c-0.276,0-0.5-0.224-0.5-0.5s0.224-0.5,0.5-0.5h7.777c0.237,0,0.441,0.166,0.489,0.398l5,24
			c0.031,0.147-0.006,0.301-0.101,0.417C58.294,60.432,58.151,60.5,58.001,60.5z"/>
	</g>
	<g>
		<path class="st0" d="M32.001,55c-0.171,0-0.338-0.088-0.431-0.246L19.965,35.062c-3.286-5.576-2.335-12.616,2.311-17.121
			c5.452-5.289,13.995-5.289,19.449,0c4.646,4.505,5.596,11.545,2.311,17.121l-1.602,2.718c-0.141,0.237-0.448,0.316-0.685,0.177
			c-0.238-0.14-0.317-0.447-0.177-0.685l1.602-2.718c3.05-5.176,2.168-11.712-2.146-15.895c-5.062-4.909-12.994-4.909-18.057,0
			c-4.313,4.183-5.196,10.719-2.146,15.895l11.604,19.692c0.14,0.238,0.061,0.544-0.177,0.685C32.175,54.978,32.087,55,32.001,55z
			 M32,35.205c-3.989,0-7.235-3.246-7.235-7.235s3.246-7.235,7.235-7.235s7.235,3.246,7.235,7.235S35.99,35.205,32,35.205z
			 M32,21.735c-3.438,0-6.235,2.797-6.235,6.235s2.797,6.235,6.235,6.235s6.235-2.797,6.235-6.235S35.438,21.735,32,21.735z"/>
	</g>
	<g>
		<path class="st0" d="M42.501,45.5c-0.276,0-0.5-0.224-0.5-0.5v-1.5c0-0.276,0.224-0.5,0.5-0.5s0.5,0.224,0.5,0.5V45
			C43.001,45.276,42.777,45.5,42.501,45.5z"/>
	</g>
	<g>
		<path class="st0" d="M42.501,52c-0.276,0-0.5-0.224-0.5-0.5V50c0-0.276,0.224-0.5,0.5-0.5s0.5,0.224,0.5,0.5v1.5
			C43.001,51.776,42.777,52,42.501,52z"/>
	</g>
	<g>
		<path class="st0" d="M43.25,50.5H40.5c-0.276,0-0.5-0.224-0.5-0.5s0.224-0.5,0.5-0.5h2.75c0.414,0,0.75-0.336,0.75-0.75
			S43.664,48,43.25,48h-1.5C40.786,48,40,47.215,40,46.25s0.785-1.75,1.75-1.75H44c0.276,0,0.5,0.224,0.5,0.5s-0.224,0.5-0.5,0.5
			h-2.25c-0.414,0-0.75,0.336-0.75,0.75S41.337,47,41.75,47h1.5c0.965,0,1.75,0.785,1.75,1.75S44.215,50.5,43.25,50.5z"/>
	</g>
	<g>
		<path class="st0" d="M5,28.5H4c-0.276,0-0.5-0.224-0.5-0.5s0.224-0.5,0.5-0.5h1c0.276,0,0.5,0.224,0.5,0.5S5.277,28.5,5,28.5z"/>
	</g>
	<g>
		<path class="st0" d="M14.5,28.5H7c-0.276,0-0.5-0.224-0.5-0.5s0.224-0.5,0.5-0.5h7.5c0.276,0,0.5,0.224,0.5,0.5
			S14.777,28.5,14.5,28.5z"/>
	</g>
	<g>
		<path class="st0" d="M60,28.5h-1c-0.276,0-0.5-0.224-0.5-0.5s0.224-0.5,0.5-0.5h1c0.276,0,0.5,0.224,0.5,0.5S60.277,28.5,60,28.5z
			"/>
	</g>
	<g>
		<path class="st0" d="M57,28.5h-7.5c-0.276,0-0.5-0.224-0.5-0.5s0.224-0.5,0.5-0.5H57c0.276,0,0.5,0.224,0.5,0.5
			S57.277,28.5,57,28.5z"/>
	</g>
	<g>
		<path class="st0" d="M44,6.5h-4c-0.276,0-0.5-0.224-0.5-0.5s0.224-0.5,0.5-0.5h4c0.276,0,0.5,0.224,0.5,0.5S44.277,6.5,44,6.5z"/>
	</g>
	<g>
		<path class="st0" d="M42,8.5c-0.276,0-0.5-0.224-0.5-0.5V4c0-0.276,0.224-0.5,0.5-0.5s0.5,0.224,0.5,0.5v4
			C42.5,8.276,42.277,8.5,42,8.5z"/>
	</g>
	<g>
		<path class="st0" d="M51,12h-4c-0.276,0-0.5-0.224-0.5-0.5S46.724,11,47,11h4c0.276,0,0.5,0.224,0.5,0.5S51.277,12,51,12z"/>
	</g>
	<g>
		<path class="st0" d="M49,14c-0.276,0-0.5-0.224-0.5-0.5v-4C48.5,9.224,48.724,9,49,9s0.5,0.224,0.5,0.5v4
			C49.5,13.776,49.277,14,49,14z"/>
	</g>
	<g>
		<path class="st0" d="M18.041,44.75c-0.028,0-0.056-0.002-0.084-0.007c-0.272-0.046-0.456-0.305-0.41-0.577l1.25-7.378
			c0.046-0.272,0.303-0.452,0.577-0.41c0.272,0.046,0.456,0.305,0.41,0.577l-1.25,7.378C18.492,44.578,18.28,44.75,18.041,44.75z"/>
	</g>
	<g>
		<polygon class="st4" points="9.282,44.25 18.04,44.25 16.938,50.75 24.001,50.75 22.501,60 6.001,60 		"/>
		<path class="st0" d="M22.501,60.5h-16.5c-0.15,0-0.293-0.068-0.388-0.185c-0.095-0.117-0.132-0.27-0.101-0.417l3.281-15.75
			c0.048-0.232,0.252-0.398,0.489-0.398h8.758c0.147,0,0.287,0.065,0.382,0.177c0.095,0.112,0.136,0.261,0.111,0.406L17.53,50.25
			h6.471c0.146,0,0.286,0.064,0.381,0.176c0.095,0.112,0.136,0.26,0.113,0.404l-1.5,9.25C22.955,60.322,22.746,60.5,22.501,60.5z
			 M6.616,59.5h15.46l1.338-8.25h-6.475c-0.147,0-0.287-0.065-0.382-0.177c-0.095-0.112-0.136-0.261-0.111-0.406l1.003-5.917H9.689
			L6.616,59.5z"/>
	</g>
	<g>
		<path class="st0" d="M29,55h-5.608c-0.276,0-0.5-0.224-0.5-0.5s0.224-0.5,0.5-0.5H29c0.276,0,0.5,0.224,0.5,0.5S29.277,55,29,55z"
			/>
	</g>
	<g>
		<path class="st0" d="M54.042,41.5h-4c-0.276,0-0.5-0.224-0.5-0.5s0.224-0.5,0.5-0.5h4c0.276,0,0.5,0.224,0.5,0.5
			S54.319,41.5,54.042,41.5z"/>
	</g>
	<g>
		<path class="st0" d="M56.855,55h-7c-0.276,0-0.5-0.224-0.5-0.5s0.224-0.5,0.5-0.5h7c0.276,0,0.5,0.224,0.5,0.5
			S57.131,55,56.855,55z"/>
	</g>
</g>
</svg>
