<?xml version="1.0" encoding="utf-8"?>
<!-- Generator: Adobe Illustrator 21.1.0, SVG Export Plug-In . SVG Version: 6.00 Build 0)  -->
<svg version="1.1" id="Layer_1" xmlns="http://www.w3.org/2000/svg" xmlns:xlink="http://www.w3.org/1999/xlink" x="0px" y="0px"
	 viewBox="0 0 64 64" style="enable-background:new 0 0 64 64;" xml:space="preserve">
<style type="text/css">
	.st0{fill:#263238;}
	.st1{fill:#FFD740;}
	.st2{fill:#40C4FF;}
	.st3{fill:#FF5252;}
	.st4{fill:#4DB6AC;}
	.st5{fill:#FFFFFF;}
	.st6{fill:#37474F;}
	.st7{fill:#4FC3F7;}
</style>
<g>
	<g>
		<path class="st0" d="M39,53.5H28.5c-1.654,0-3-1.346-3-3v-7c0-1.654,1.346-3,3-3H39c0.276,0,0.5,0.224,0.5,0.5v12
			C39.5,53.276,39.276,53.5,39,53.5z M28.5,41.5c-1.103,0-2,0.897-2,2v7c0,1.103,0.897,2,2,2h10v-11H28.5z"/>
	</g>
	<g>
		<path class="st0" d="M51,57c-0.047,0-0.094-0.006-0.14-0.02l-12-3.5c-0.214-0.062-0.36-0.258-0.36-0.48V41
			c0-0.222,0.146-0.418,0.36-0.48l12-3.5c0.15-0.044,0.314-0.015,0.439,0.08c0.126,0.094,0.2,0.243,0.2,0.4v19
			c0,0.157-0.074,0.306-0.2,0.4C51.213,56.966,51.106,57,51,57z M39.5,52.625l11,3.208V38.167l-11,3.208V52.625z"/>
	</g>
	<g>
		<path class="st0" d="M35,63.5h-4c-0.827,0-1.5-0.673-1.5-1.5v-9c0-0.276,0.224-0.5,0.5-0.5h6c0.276,0,0.5,0.224,0.5,0.5v9
			C36.5,62.827,35.827,63.5,35,63.5z M30.5,53.5V62c0,0.276,0.225,0.5,0.5,0.5h4c0.275,0,0.5-0.224,0.5-0.5v-8.5H30.5z"/>
	</g>
	<g>
		<path class="st1" d="M54,58.5h-2c-0.552,0-1-0.448-1-1v-21c0-0.552,0.448-1,1-1h2c0.552,0,1,0.448,1,1v21
			C55,58.052,54.552,58.5,54,58.5z"/>
		<path class="st0" d="M54,59h-2c-0.827,0-1.5-0.673-1.5-1.5v-21c0-0.827,0.673-1.5,1.5-1.5h2c0.827,0,1.5,0.673,1.5,1.5v21
			C55.5,58.327,54.827,59,54,59z M52,36c-0.275,0-0.5,0.224-0.5,0.5v21c0,0.276,0.225,0.5,0.5,0.5h2c0.275,0,0.5-0.224,0.5-0.5v-21
			c0-0.276-0.225-0.5-0.5-0.5H52z"/>
	</g>
	<g>
		<path class="st0" d="M62,47.5h-4c-0.276,0-0.5-0.224-0.5-0.5s0.224-0.5,0.5-0.5h4c0.276,0,0.5,0.224,0.5,0.5S62.276,47.5,62,47.5z
			"/>
	</g>
	<g>
		<path class="st0" d="M58,44.5c-0.161,0-0.319-0.078-0.416-0.223c-0.153-0.23-0.091-0.54,0.139-0.693l3-2
			c0.227-0.153,0.539-0.093,0.693,0.139c0.153,0.23,0.091,0.54-0.139,0.693l-3,2C58.192,44.473,58.096,44.5,58,44.5z"/>
	</g>
	<g>
		<path class="st0" d="M61,52.5c-0.096,0-0.192-0.027-0.277-0.084l-3-2c-0.229-0.153-0.292-0.463-0.139-0.693
			c0.154-0.23,0.465-0.291,0.693-0.139l3,2c0.229,0.153,0.292,0.463,0.139,0.693C61.319,52.422,61.161,52.5,61,52.5z"/>
	</g>
	<g>
		<path class="st0" d="M24,50H4.5c-1.654,0-3-1.346-3-3V17.5C1.5,17.224,1.724,17,2,17h48c0.276,0,0.5,0.224,0.5,0.5v16
			c0,0.276-0.224,0.5-0.5,0.5s-0.5-0.224-0.5-0.5V18h-47v29c0,1.103,0.897,2,2,2H24c0.276,0,0.5,0.224,0.5,0.5S24.276,50,24,50z"/>
	</g>
	<g>
		<path class="st0" d="M50,18H2c-0.276,0-0.5-0.224-0.5-0.5V12c0-1.654,1.346-3,3-3h43c1.654,0,3,1.346,3,3v5.5
			C50.5,17.776,50.276,18,50,18z M2.5,17h47v-5c0-1.103-0.897-2-2-2h-43c-1.103,0-2,0.897-2,2V17z"/>
	</g>
	<g>
		<path class="st0" d="M6.5,15.5c-1.103,0-2-0.897-2-2s0.897-2,2-2s2,0.897,2,2S7.603,15.5,6.5,15.5z M6.5,12.5
			c-0.552,0-1,0.449-1,1s0.448,1,1,1s1-0.449,1-1S7.052,12.5,6.5,12.5z"/>
	</g>
	<g>
		<path class="st0" d="M11.5,15.5c-1.103,0-2-0.897-2-2s0.897-2,2-2s2,0.897,2,2S12.603,15.5,11.5,15.5z M11.5,12.5
			c-0.552,0-1,0.449-1,1s0.448,1,1,1s1-0.449,1-1S12.052,12.5,11.5,12.5z"/>
	</g>
	<g>
		<path class="st0" d="M51,3.5h-4c-0.276,0-0.5-0.224-0.5-0.5s0.224-0.5,0.5-0.5h4c0.276,0,0.5,0.224,0.5,0.5S51.276,3.5,51,3.5z"/>
	</g>
	<g>
		<path class="st0" d="M49,5.5c-0.276,0-0.5-0.224-0.5-0.5V1c0-0.276,0.224-0.5,0.5-0.5s0.5,0.224,0.5,0.5v4
			C49.5,5.276,49.276,5.5,49,5.5z"/>
	</g>
	<g>
		<path class="st0" d="M58,10h-4c-0.276,0-0.5-0.224-0.5-0.5S53.724,9,54,9h4c0.276,0,0.5,0.224,0.5,0.5S58.276,10,58,10z"/>
	</g>
	<g>
		<path class="st0" d="M56,12c-0.276,0-0.5-0.224-0.5-0.5v-4C55.5,7.224,55.724,7,56,7s0.5,0.224,0.5,0.5v4
			C56.5,11.776,56.276,12,56,12z"/>
	</g>
	<g>
		<path class="st0" d="M10,54H8c-0.276,0-0.5-0.224-0.5-0.5S7.724,53,8,53h2c0.276,0,0.5,0.224,0.5,0.5S10.276,54,10,54z"/>
	</g>
	<g>
		<path class="st0" d="M22,54H12c-0.276,0-0.5-0.224-0.5-0.5S11.724,53,12,53h10c0.276,0,0.5,0.224,0.5,0.5S22.276,54,22,54z"/>
	</g>
	<g>
		<path class="st0" d="M40,6h-2c-0.276,0-0.5-0.224-0.5-0.5S37.724,5,38,5h2c0.276,0,0.5,0.224,0.5,0.5S40.276,6,40,6z"/>
	</g>
	<g>
		<path class="st0" d="M36,6H16c-0.276,0-0.5-0.224-0.5-0.5S15.724,5,16,5h20c0.276,0,0.5,0.224,0.5,0.5S36.276,6,36,6z"/>
	</g>
	<g>
		<circle class="st3" cx="16" cy="33.5" r="9"/>
		<path class="st0" d="M16,43c-5.238,0-9.5-4.262-9.5-9.5S10.762,24,16,24s9.5,4.262,9.5,9.5S21.238,43,16,43z M16,25
			c-4.687,0-8.5,3.813-8.5,8.5S11.313,42,16,42s8.5-3.813,8.5-8.5S20.687,25,16,25z"/>
	</g>
	<g>
		<path class="st5" d="M19.163,32.659l-4.151-2.668c-0.666-0.428-1.541,0.05-1.541,0.841v5.337c0,0.791,0.875,1.269,1.541,0.841
			l4.151-2.668C19.776,33.947,19.776,33.052,19.163,32.659z"/>
		<path class="st0" d="M14.474,37.671c-0.246,0-0.493-0.062-0.721-0.187c-0.489-0.267-0.781-0.759-0.781-1.316v-5.336
			c0-0.557,0.292-1.049,0.781-1.316c0.489-0.268,1.061-0.247,1.53,0.054l4.15,2.669c0.432,0.277,0.688,0.749,0.688,1.262
			c0,0.513-0.257,0.984-0.688,1.261l-4.15,2.668C15.033,37.59,14.754,37.671,14.474,37.671z M14.476,30.33
			c-0.11,0-0.198,0.039-0.243,0.063c-0.079,0.043-0.261,0.171-0.261,0.439v5.336c0,0.268,0.182,0.396,0.26,0.439
			c0.078,0.042,0.285,0.127,0.511-0.019l4.15-2.668c0.146-0.094,0.229-0.247,0.229-0.42c0-0.174-0.083-0.327-0.229-0.421l0,0
			l-4.15-2.668C14.647,30.35,14.556,30.33,14.476,30.33z"/>
	</g>
	<g>
		<rect x="30" y="24.5" class="st2" width="15" height="3"/>
		<path class="st0" d="M45,28H30c-0.276,0-0.5-0.224-0.5-0.5v-3c0-0.276,0.224-0.5,0.5-0.5h15c0.276,0,0.5,0.224,0.5,0.5v3
			C45.5,27.776,45.276,28,45,28z M30.5,27h14v-2h-14V27z"/>
	</g>
	<g>
		<rect x="30" y="30.5" class="st2" width="9" height="3"/>
		<path class="st0" d="M39,34h-9c-0.276,0-0.5-0.224-0.5-0.5v-3c0-0.276,0.224-0.5,0.5-0.5h9c0.276,0,0.5,0.224,0.5,0.5v3
			C39.5,33.776,39.276,34,39,34z M30.5,33h8v-2h-8V33z"/>
	</g>
</g>
</svg>
