<?xml version="1.0" encoding="utf-8"?>
<!-- Generator: Adobe Illustrator 21.1.0, SVG Export Plug-In . SVG Version: 6.00 Build 0)  -->
<svg version="1.1" id="Layer_1" xmlns="http://www.w3.org/2000/svg" xmlns:xlink="http://www.w3.org/1999/xlink" x="0px" y="0px"
	 viewBox="0 0 64 64" style="enable-background:new 0 0 64 64;" xml:space="preserve">
<style type="text/css">
	.st0{fill:#263238;}
	.st1{fill:#FFD740;}
	.st2{fill:#40C4FF;}
	.st3{fill:#FF5252;}
	.st4{fill:#4DB6AC;}
	.st5{fill:#FFFFFF;}
	.st6{fill:#37474F;}
	.st7{fill:#4FC3F7;}
</style>
<g>
	<g>
		<path class="st0" d="M22.501,10.751h-4c-0.276,0-0.5-0.224-0.5-0.5s0.224-0.5,0.5-0.5h4c0.276,0,0.5,0.224,0.5,0.5
			S22.777,10.751,22.501,10.751z"/>
	</g>
	<g>
		<path class="st0" d="M20.501,12.751c-0.276,0-0.5-0.224-0.5-0.5v-4c0-0.276,0.224-0.5,0.5-0.5s0.5,0.224,0.5,0.5v4
			C21.001,12.527,20.777,12.751,20.501,12.751z"/>
	</g>
	<g>
		<path class="st0" d="M14.501,15.251h-4c-0.276,0-0.5-0.224-0.5-0.5s0.224-0.5,0.5-0.5h4c0.276,0,0.5,0.224,0.5,0.5
			S14.777,15.251,14.501,15.251z"/>
	</g>
	<g>
		<path class="st0" d="M12.501,17.251c-0.276,0-0.5-0.224-0.5-0.5v-4c0-0.276,0.224-0.5,0.5-0.5s0.5,0.224,0.5,0.5v4
			C13.001,17.027,12.777,17.251,12.501,17.251z"/>
	</g>
	<g>
		<path class="st0" d="M13.751,56.251h-2c-0.276,0-0.5-0.224-0.5-0.5s0.224-0.5,0.5-0.5h2c0.276,0,0.5,0.224,0.5,0.5
			S14.027,56.251,13.751,56.251z"/>
	</g>
	<g>
		<path class="st0" d="M25.796,56.251H15.751c-0.276,0-0.5-0.224-0.5-0.5s0.224-0.5,0.5-0.5h10.045c2.422,0,4.729-0.913,6.498-2.57
			l5.115-4.795c0.201-0.188,0.519-0.178,0.707,0.023c0.189,0.201,0.179,0.518-0.023,0.707l-5.115,4.795
			C31.023,55.242,28.473,56.251,25.796,56.251z"/>
	</g>
	<g>
		<polygon class="st2" points="54.001,10.751 10.001,30.251 23.501,34.251 27.501,48.751 37.744,38.454 51.001,42.251 		"/>
		<path class="st0" d="M27.5,49.251c-0.042,0-0.085-0.005-0.127-0.017c-0.172-0.045-0.308-0.179-0.355-0.351l-3.926-14.232
			L9.858,30.73c-0.201-0.06-0.343-0.238-0.357-0.447s0.105-0.404,0.296-0.489l44-19.5c0.162-0.073,0.35-0.053,0.495,0.052
			c0.144,0.104,0.222,0.275,0.205,0.453l-3,31.5c-0.014,0.147-0.093,0.281-0.216,0.365c-0.122,0.084-0.275,0.107-0.419,0.067
			L37.89,39.016L27.855,49.104C27.76,49.199,27.632,49.251,27.5,49.251z M11.445,30.157l12.197,3.614
			c0.166,0.049,0.294,0.18,0.34,0.347l3.771,13.67l9.636-9.687c0.128-0.129,0.317-0.182,0.492-0.128l12.678,3.631l2.862-30.05
			L11.445,30.157z"/>
	</g>
	<g>
		<path class="st0" d="M37.744,38.954c-0.051,0-0.103-0.008-0.154-0.024l-5.243-1.703c-0.158-0.051-0.28-0.177-0.326-0.336
			c-0.046-0.159-0.011-0.331,0.095-0.458l18.659-22.564L23.806,34.647c-0.218,0.167-0.532,0.127-0.701-0.092
			c-0.168-0.219-0.128-0.532,0.091-0.701l30.5-23.5c0.202-0.154,0.488-0.133,0.665,0.049c0.177,0.184,0.188,0.47,0.026,0.666
			L33.354,36.503l4.543,1.476c0.263,0.085,0.407,0.367,0.321,0.63C38.15,38.82,37.955,38.954,37.744,38.954z"/>
	</g>
	<g>
		<path class="st0" d="M27.5,49.251c-0.064,0-0.129-0.013-0.192-0.038c-0.255-0.106-0.375-0.399-0.269-0.654l5-12
			c0.106-0.255,0.399-0.371,0.654-0.27c0.255,0.106,0.375,0.399,0.269,0.654l-5,12C27.882,49.136,27.696,49.251,27.5,49.251z"/>
	</g>
</g>
</svg>
