<?xml version="1.0" encoding="utf-8"?>
<!-- Generator: Adobe Illustrator 21.1.0, SVG Export Plug-In . SVG Version: 6.00 Build 0)  -->
<svg version="1.1" id="Layer_1" xmlns="http://www.w3.org/2000/svg" xmlns:xlink="http://www.w3.org/1999/xlink" x="0px" y="0px"
	 viewBox="0 0 64 64" style="enable-background:new 0 0 64 64;" xml:space="preserve">
<style type="text/css">
	.st0{fill:#263238;}
	.st1{fill:#FFD740;}
	.st2{fill:#40C4FF;}
	.st3{fill:#FF5252;}
	.st4{fill:#4DB6AC;}
	.st5{fill:#FFFFFF;}
	.st6{fill:#37474F;}
	.st7{fill:#4FC3F7;}
</style>
<g>
	<g>
		<circle class="st1" cx="32.125" cy="35" r="8"/>
		<path class="st0" d="M32.125,43.5c-4.687,0-8.5-3.813-8.5-8.5s3.813-8.5,8.5-8.5s8.5,3.813,8.5,8.5S36.812,43.5,32.125,43.5z
			 M32.125,27.5c-4.136,0-7.5,3.364-7.5,7.5s3.364,7.5,7.5,7.5s7.5-3.364,7.5-7.5S36.261,27.5,32.125,27.5z"/>
	</g>
	<g>
		<path class="st0" d="M32.125,33c-0.276,0-0.5-0.224-0.5-0.5V31c0-0.276,0.224-0.5,0.5-0.5s0.5,0.224,0.5,0.5v1.5
			C32.625,32.776,32.401,33,32.125,33z"/>
	</g>
	<g>
		<path class="st0" d="M32.125,39.5c-0.276,0-0.5-0.224-0.5-0.5v-1.5c0-0.276,0.224-0.5,0.5-0.5s0.5,0.224,0.5,0.5V39
			C32.625,39.276,32.401,39.5,32.125,39.5z"/>
	</g>
	<g>
		<path class="st0" d="M32.875,38h-2.751c-0.276,0-0.5-0.224-0.5-0.5s0.224-0.5,0.5-0.5h2.751c0.413,0,0.749-0.336,0.749-0.75
			s-0.336-0.75-0.749-0.75h-1.501c-0.965,0-1.75-0.785-1.75-1.75S30.409,32,31.374,32h2.25c0.276,0,0.5,0.224,0.5,0.5
			S33.9,33,33.624,33h-2.25c-0.413,0-0.75,0.336-0.75,0.75s0.337,0.75,0.75,0.75h1.501c0.965,0,1.749,0.785,1.749,1.75
			S33.84,38,32.875,38z"/>
	</g>
	<g>
		<path class="st2" d="M30.625,45.887c-4.87-0.667-8.72-4.515-9.386-9.387H11.125V51c0,2.761,2.239,5,5,5h14.5V45.887z"/>
		<path class="st0" d="M30.624,56.5H16.125c-3.032,0-5.5-2.467-5.5-5.5V36.5c0-0.276,0.224-0.5,0.5-0.5h10.113
			c0.25,0,0.462,0.185,0.495,0.432c0.636,4.64,4.319,8.324,8.958,8.959c0.248,0.034,0.433,0.246,0.433,0.496V56
			C31.124,56.276,30.9,56.5,30.624,56.5z M11.625,37v14c0,2.481,2.019,4.5,4.5,4.5h13.999v-9.186
			c-4.734-0.834-8.479-4.58-9.313-9.314H11.625z"/>
	</g>
	<g>
		<path class="st0" d="M48.124,56.5h-14.5c-0.276,0-0.5-0.224-0.5-0.5V45.886c0-0.25,0.185-0.461,0.433-0.496
			c4.64-0.634,8.324-4.318,8.96-8.958C42.55,36.185,42.762,36,43.012,36h10.112c0.276,0,0.5,0.224,0.5,0.5V51
			C53.624,54.033,51.156,56.5,48.124,56.5z M34.124,55.5h14c2.481,0,4.5-2.019,4.5-4.5V37h-9.185
			c-0.834,4.735-4.58,8.481-9.315,9.314V55.5z"/>
	</g>
	<g>
		<path class="st0" d="M21.238,34H11.125c-0.276,0-0.5-0.224-0.5-0.5V19c0-3.033,2.468-5.5,5.5-5.5h14.499
			c0.276,0,0.5,0.224,0.5,0.5v10.114c0,0.25-0.185,0.461-0.433,0.496c-4.64,0.634-8.323,4.318-8.958,8.958
			C21.7,33.815,21.488,34,21.238,34z M11.625,33h9.186c0.833-4.735,4.578-8.48,9.313-9.313V14.5H16.125c-2.481,0-4.5,2.019-4.5,4.5
			V33z"/>
	</g>
	<g>
		<path class="st3" d="M48.124,14h-14.5v10.113c4.87,0.667,8.72,4.515,9.386,9.387h10.114V19C53.124,16.239,50.886,14,48.124,14z"/>
		<path class="st0" d="M53.124,34H43.011c-0.25,0-0.462-0.185-0.495-0.432c-0.635-4.64-4.318-8.324-8.959-8.959
			c-0.248-0.034-0.433-0.246-0.433-0.496V14c0-0.276,0.224-0.5,0.5-0.5h14.5c3.032,0,5.5,2.467,5.5,5.5v14.5
			C53.624,33.776,53.4,34,53.124,34z M43.438,33h9.186V19c0-2.481-2.019-4.5-4.5-4.5h-14v9.186
			C38.859,24.519,42.605,28.265,43.438,33z"/>
	</g>
	<g>
		<path class="st0" d="M57.874,60.5h-2c-0.276,0-0.5-0.224-0.5-0.5s0.224-0.5,0.5-0.5h2c0.276,0,0.5,0.224,0.5,0.5
			S58.15,60.5,57.874,60.5z"/>
	</g>
	<g>
		<path class="st0" d="M53.874,60.5h-16c-0.276,0-0.5-0.224-0.5-0.5s0.224-0.5,0.5-0.5h16c0.276,0,0.5,0.224,0.5,0.5
			S54.15,60.5,53.874,60.5z"/>
	</g>
	<g>
		<path class="st0" d="M7.874,10.5h-2c-0.276,0-0.5-0.224-0.5-0.5s0.224-0.5,0.5-0.5h2c0.276,0,0.5,0.224,0.5,0.5
			S8.15,10.5,7.874,10.5z"/>
	</g>
	<g>
		<path class="st0" d="M25.874,10.5h-16c-0.276,0-0.5-0.224-0.5-0.5s0.224-0.5,0.5-0.5h16c0.276,0,0.5,0.224,0.5,0.5
			S26.15,10.5,25.874,10.5z"/>
	</g>
	<g>
		<path class="st0" d="M52.625,6.5h-4c-0.276,0-0.5-0.224-0.5-0.5s0.224-0.5,0.5-0.5h4c0.276,0,0.5,0.224,0.5,0.5
			S52.901,6.5,52.625,6.5z"/>
	</g>
	<g>
		<path class="st0" d="M50.625,8.5c-0.276,0-0.5-0.224-0.5-0.5V4c0-0.276,0.224-0.5,0.5-0.5s0.5,0.224,0.5,0.5v4
			C51.125,8.276,50.901,8.5,50.625,8.5z"/>
	</g>
	<g>
		<path class="st0" d="M58.125,11.5h-4c-0.276,0-0.5-0.224-0.5-0.5s0.224-0.5,0.5-0.5h4c0.276,0,0.5,0.224,0.5,0.5
			S58.401,11.5,58.125,11.5z"/>
	</g>
	<g>
		<path class="st0" d="M56.125,13.5c-0.276,0-0.5-0.224-0.5-0.5V9c0-0.276,0.224-0.5,0.5-0.5s0.5,0.224,0.5,0.5v4
			C56.625,13.276,56.401,13.5,56.125,13.5z"/>
	</g>
</g>
</svg>
