<?xml version="1.0" encoding="utf-8"?>
<!-- Generator: Adobe Illustrator 21.1.0, SVG Export Plug-In . SVG Version: 6.00 Build 0)  -->
<svg version="1.1" id="Layer_1" xmlns="http://www.w3.org/2000/svg" xmlns:xlink="http://www.w3.org/1999/xlink" x="0px" y="0px"
	 viewBox="0 0 64 64" style="enable-background:new 0 0 64 64;" xml:space="preserve">
<style type="text/css">
	.st0{fill:#263238;}
	.st1{fill:#FFD740;}
	.st2{fill:#40C4FF;}
	.st3{fill:#FF5252;}
	.st4{fill:#4DB6AC;}
	.st5{fill:#FFFFFF;}
	.st6{fill:#37474F;}
	.st7{fill:#4FC3F7;}
</style>
<g>
	<g>
		<path class="st0" d="M10.5,6h-4C6.224,6,6,5.776,6,5.5S6.224,5,6.5,5h4C10.776,5,11,5.224,11,5.5S10.776,6,10.5,6z"/>
	</g>
	<g>
		<path class="st0" d="M8.5,8C8.224,8,8,7.776,8,7.5v-4C8,3.224,8.224,3,8.5,3S9,3.224,9,3.5v4C9,7.776,8.776,8,8.5,8z"/>
	</g>
	<g>
		<path class="st0" d="M4.5,10.5h-4C0.224,10.5,0,10.276,0,10s0.224-0.5,0.5-0.5h4C4.776,9.5,5,9.724,5,10S4.776,10.5,4.5,10.5z"/>
	</g>
	<g>
		<path class="st0" d="M2.5,12.5C2.224,12.5,2,12.276,2,12V8c0-0.276,0.224-0.5,0.5-0.5S3,7.724,3,8v4C3,12.276,2.776,12.5,2.5,12.5
			z"/>
	</g>
	<g>
		<path class="st0" d="M57.5,18.5h-51C6.224,18.5,6,18.276,6,18v-5.5c0-1.654,1.346-3,3-3h46c1.654,0,3,1.346,3,3V18
			C58,18.276,57.776,18.5,57.5,18.5z M7,17.5h50v-5c0-1.103-0.897-2-2-2H9c-1.103,0-2,0.897-2,2V17.5z"/>
	</g>
	<g>
		<path class="st0" d="M10,16c-1.103,0-2-0.897-2-2s0.897-2,2-2s2,0.897,2,2S11.103,16,10,16z M10,13c-0.552,0-1,0.449-1,1
			s0.448,1,1,1s1-0.449,1-1S10.552,13,10,13z"/>
	</g>
	<g>
		<path class="st0" d="M15,16c-1.103,0-2-0.897-2-2s0.897-2,2-2s2,0.897,2,2S16.103,16,15,16z M15,13c-0.552,0-1,0.449-1,1
			s0.448,1,1,1s1-0.449,1-1S15.552,13,15,13z"/>
	</g>
	<g>
		<path class="st0" d="M12.5,58.5h-2c-0.276,0-0.5-0.224-0.5-0.5s0.224-0.5,0.5-0.5h2c0.276,0,0.5,0.224,0.5,0.5
			S12.776,58.5,12.5,58.5z"/>
	</g>
	<g>
		<path class="st0" d="M34.5,58.5h-20c-0.276,0-0.5-0.224-0.5-0.5s0.224-0.5,0.5-0.5h20c0.276,0,0.5,0.224,0.5,0.5
			S34.776,58.5,34.5,58.5z"/>
	</g>
	<g>
		<path class="st0" d="M53.5,6.5h-2C51.224,6.5,51,6.276,51,6s0.224-0.5,0.5-0.5h2C53.776,5.5,54,5.724,54,6S53.776,6.5,53.5,6.5z"
			/>
	</g>
	<g>
		<path class="st0" d="M49.5,6.5h-20C29.224,6.5,29,6.276,29,6s0.224-0.5,0.5-0.5h20C49.776,5.5,50,5.724,50,6S49.776,6.5,49.5,6.5z
			"/>
	</g>
	<g>
		<polygon class="st2" points="52.186,49.186 52.186,57.671 54.661,55.196 59.964,60.5 63.5,56.964 58.197,51.661 60.672,49.186 		
			"/>
		<path class="st0" d="M59.965,61c-0.133,0-0.26-0.053-0.354-0.146l-4.95-4.95l-2.121,2.122c-0.144,0.143-0.359,0.186-0.545,0.108
			c-0.187-0.077-0.309-0.26-0.309-0.462v-8.485c0-0.276,0.224-0.5,0.5-0.5h8.485c0.202,0,0.385,0.122,0.462,0.309
			c0.077,0.187,0.034,0.402-0.108,0.545l-2.122,2.122l4.95,4.95c0.195,0.195,0.195,0.512,0,0.707l-3.535,3.536
			C60.225,60.947,60.098,61,59.965,61z M54.661,54.696c0.133,0,0.26,0.053,0.354,0.146l4.95,4.95l2.828-2.829l-4.95-4.95
			c-0.094-0.094-0.146-0.221-0.146-0.354s0.053-0.26,0.146-0.354l1.622-1.622h-6.778v6.778l1.621-1.622
			C54.401,54.749,54.528,54.696,54.661,54.696z"/>
	</g>
	<g>
		<path class="st0" d="M50.187,54.5H9c-1.654,0-3-1.346-3-3V18c0-0.276,0.224-0.5,0.5-0.5h51c0.276,0,0.5,0.224,0.5,0.5v29.187
			c0,0.276-0.224,0.5-0.5,0.5s-0.5-0.224-0.5-0.5V18.5H7v33c0,1.103,0.897,2,2,2h41.187c0.276,0,0.5,0.224,0.5,0.5
			S50.463,54.5,50.187,54.5z"/>
	</g>
	<g>
		<path class="st0" d="M25.199,29.995h-9.5c-0.222,0-0.417-0.146-0.479-0.359L13.126,22.5H11.5c-0.276,0-0.5-0.224-0.5-0.5
			s0.224-0.5,0.5-0.5h2c0.222,0,0.417,0.146,0.479,0.359l2.094,7.136h8.766l1.667-5l-10.307,0.003c-0.276,0-0.5-0.224-0.5-0.5
			c0-0.276,0.224-0.5,0.5-0.5l11-0.003c0.16,0,0.312,0.077,0.405,0.208c0.095,0.13,0.12,0.298,0.069,0.451l-2,6
			C25.605,29.857,25.414,29.995,25.199,29.995z"/>
	</g>
	<g>
		<path class="st0" d="M17.199,34.995c-1.103,0-2-0.897-2-2s0.897-2,2-2s2,0.897,2,2S18.302,34.995,17.199,34.995z M17.199,31.995
			c-0.552,0-1,0.449-1,1s0.448,1,1,1s1-0.449,1-1S17.751,31.995,17.199,31.995z"/>
	</g>
	<g>
		<path class="st0" d="M23.699,34.995c-1.103,0-2-0.897-2-2s0.897-2,2-2s2,0.897,2,2S24.802,34.995,23.699,34.995z M23.699,31.995
			c-0.552,0-1,0.449-1,1s0.448,1,1,1s1-0.449,1-1S24.251,31.995,23.699,31.995z"/>
	</g>
	<g>
		<rect x="13.5" y="39.498" class="st1" width="8" height="8"/>
		<path class="st0" d="M21.5,47.998h-8c-0.276,0-0.5-0.224-0.5-0.5v-8c0-0.276,0.224-0.5,0.5-0.5h8c0.276,0,0.5,0.224,0.5,0.5v8
			C22,47.774,21.776,47.998,21.5,47.998z M14,46.998h7v-7h-7V46.998z"/>
	</g>
	<g>
		<rect x="28" y="39.498" class="st3" width="8" height="8"/>
		<path class="st0" d="M36,47.998h-8c-0.276,0-0.5-0.224-0.5-0.5v-8c0-0.276,0.224-0.5,0.5-0.5h8c0.276,0,0.5,0.224,0.5,0.5v8
			C36.5,47.774,36.276,47.998,36,47.998z M28.5,46.998h7v-7h-7V46.998z"/>
	</g>
	<g>
		<rect x="42.5" y="39.498" class="st4" width="8" height="8"/>
		<path class="st0" d="M50.5,47.998h-8c-0.276,0-0.5-0.224-0.5-0.5v-8c0-0.276,0.224-0.5,0.5-0.5h8c0.276,0,0.5,0.224,0.5,0.5v8
			C51,47.774,50.776,47.998,50.5,47.998z M43,46.998h7v-7h-7V46.998z"/>
	</g>
	<g>
		<path class="st0" d="M50.5,27.5h-15c-0.276,0-0.5-0.224-0.5-0.5v-3c0-0.276,0.224-0.5,0.5-0.5h15c0.276,0,0.5,0.224,0.5,0.5v3
			C51,27.276,50.776,27.5,50.5,27.5z M36,26.5h14v-2H36V26.5z"/>
	</g>
	<g>
		<path class="st0" d="M50.5,30.5h-15c-0.276,0-0.5-0.224-0.5-0.5s0.224-0.5,0.5-0.5h15c0.276,0,0.5,0.224,0.5,0.5
			S50.776,30.5,50.5,30.5z"/>
	</g>
	<g>
		<path class="st0" d="M43,33.5h-7.5c-0.276,0-0.5-0.224-0.5-0.5s0.224-0.5,0.5-0.5H43c0.276,0,0.5,0.224,0.5,0.5
			S43.276,33.5,43,33.5z"/>
	</g>
</g>
</svg>
