<?xml version="1.0" encoding="utf-8"?>
<!-- Generator: Adobe Illustrator 21.1.0, SVG Export Plug-In . SVG Version: 6.00 Build 0)  -->
<svg version="1.1" id="Layer_1" xmlns="http://www.w3.org/2000/svg" xmlns:xlink="http://www.w3.org/1999/xlink" x="0px" y="0px"
	 viewBox="0 0 64 64" style="enable-background:new 0 0 64 64;" xml:space="preserve">
<style type="text/css">
	.st0{fill:#263238;}
	.st1{fill:#FFD740;}
	.st2{fill:#40C4FF;}
	.st3{fill:#FF5252;}
	.st4{fill:#4DB6AC;}
	.st5{fill:#FFFFFF;}
	.st6{fill:#37474F;}
	.st7{fill:#4FC3F7;}
</style>
<g>
	<g>
		<path class="st0" d="M38.004,61.5c-0.276,0-0.5-0.224-0.5-0.5v-9c0-0.276,0.224-0.5,0.5-0.5s0.5,0.224,0.5,0.5v9
			C38.504,61.276,38.28,61.5,38.004,61.5z"/>
	</g>
	<g>
		<polygon class="st1" points="14.504,31 8.504,37 12.004,37 12.004,49.5 17.004,49.5 17.004,37 20.504,37 		"/>
		<path class="st0" d="M17.004,50h-5c-0.276,0-0.5-0.224-0.5-0.5v-12h-3c-0.202,0-0.385-0.122-0.462-0.309S8.008,36.79,8.15,36.646
			l6-6c0.195-0.195,0.512-0.195,0.707,0l6,6c0.143,0.143,0.186,0.358,0.108,0.545s-0.26,0.309-0.462,0.309h-3v12
			C17.504,49.776,17.28,50,17.004,50z M12.504,49h4V37c0-0.276,0.224-0.5,0.5-0.5h2.293l-4.793-4.793L9.711,36.5h2.293
			c0.276,0,0.5,0.224,0.5,0.5V49z"/>
	</g>
	<g>
		<path class="st0" d="M22.004,61.5c-0.276,0-0.5-0.224-0.5-0.5l-0.001-14.952l-2.83-2.497c-0.207-0.183-0.227-0.499-0.044-0.706
			c0.183-0.208,0.498-0.227,0.706-0.044l2.999,2.646c0.107,0.095,0.169,0.231,0.169,0.375L22.504,61
			C22.504,61.276,22.28,61.5,22.004,61.5z"/>
	</g>
	<g>
		<path class="st0" d="M44.504,52.5h-11.5c-0.276,0-0.5-0.224-0.5-0.5s0.224-0.5,0.5-0.5h11.5c3.859,0,7-3.14,7-7V38
			c0-0.276,0.224-0.5,0.5-0.5h2.643c0.764,0,1.429-0.405,1.778-1.084c0.35-0.68,0.293-1.456-0.151-2.078l-4.677-6.547
			c-0.061-0.084-0.093-0.187-0.093-0.291V26c0-10.752-8.748-19.5-19.5-19.5s-19.5,8.748-19.5,19.5v1.975
			c0,0.789,0.055,1.619,0.163,2.467c0.035,0.274-0.159,0.524-0.433,0.56c-0.271,0.029-0.524-0.159-0.56-0.433
			c-0.113-0.89-0.171-1.762-0.171-2.593V26c0-11.304,9.196-20.5,20.5-20.5s20.5,9.196,20.5,20.5v1.34l4.584,6.417
			c0.655,0.918,0.742,2.113,0.226,3.117c-0.517,1.003-1.538,1.627-2.667,1.627h-2.143v6C52.504,48.911,48.915,52.5,44.504,52.5z"/>
	</g>
	<g>
		<path class="st0" d="M59,11.5h-4c-0.276,0-0.5-0.224-0.5-0.5s0.224-0.5,0.5-0.5h4c0.276,0,0.5,0.224,0.5,0.5S59.276,11.5,59,11.5z
			"/>
	</g>
	<g>
		<path class="st0" d="M54,5.5h-4c-0.276,0-0.5-0.224-0.5-0.5s0.224-0.5,0.5-0.5h4c0.276,0,0.5,0.224,0.5,0.5S54.276,5.5,54,5.5z"/>
	</g>
	<g>
		<path class="st0" d="M52,7.5c-0.276,0-0.5-0.224-0.5-0.5V3c0-0.276,0.224-0.5,0.5-0.5s0.5,0.224,0.5,0.5v4
			C52.5,7.276,52.276,7.5,52,7.5z"/>
	</g>
	<g>
		<path class="st0" d="M57,13.5c-0.276,0-0.5-0.224-0.5-0.5V9c0-0.276,0.224-0.5,0.5-0.5s0.5,0.224,0.5,0.5v4
			C57.5,13.276,57.276,13.5,57,13.5z"/>
	</g>
	<g>
		<path class="st0" d="M6,57.5H5c-0.276,0-0.5-0.224-0.5-0.5s0.224-0.5,0.5-0.5h1c0.276,0,0.5,0.224,0.5,0.5S6.276,57.5,6,57.5z"/>
	</g>
	<g>
		<path class="st0" d="M19,57.5H8c-0.276,0-0.5-0.224-0.5-0.5s0.224-0.5,0.5-0.5h11c0.276,0,0.5,0.224,0.5,0.5S19.276,57.5,19,57.5z
			"/>
	</g>
	<g>
		<path class="st0" d="M55,57.5h-1c-0.276,0-0.5-0.224-0.5-0.5s0.224-0.5,0.5-0.5h1c0.276,0,0.5,0.224,0.5,0.5S55.276,57.5,55,57.5z
			"/>
	</g>
	<g>
		<path class="st0" d="M52,57.5H41c-0.276,0-0.5-0.224-0.5-0.5s0.224-0.5,0.5-0.5h11c0.276,0,0.5,0.224,0.5,0.5S52.276,57.5,52,57.5
			z"/>
	</g>
	<g>
		<path class="st3" d="M32.75,19.343L32.75,19.343L32.75,19.343c-2.002-2.002-5.247-2.002-7.249,0l0,0
			c-2.002,2.002-2.002,5.247,0,7.249l7.249,7.249l7.249-7.249c2.002-2.002,2.002-5.247,0-7.249l0,0
			C37.997,17.341,34.751,17.341,32.75,19.343z"/>
		<path class="st0" d="M32.75,34.342c-0.133,0-0.26-0.053-0.354-0.146l-7.25-7.25c-1.062-1.062-1.647-2.475-1.647-3.978
			c0-1.502,0.585-2.916,1.647-3.978s2.476-1.648,3.979-1.648c1.342,0,2.611,0.466,3.624,1.323c1.014-0.857,2.283-1.323,3.625-1.323
			c1.503,0,2.916,0.585,3.979,1.648s1.648,2.476,1.648,3.978c0,1.503-0.586,2.916-1.648,3.978l-7.249,7.25
			C33.01,34.289,32.883,34.342,32.75,34.342z M29.125,18.344c-1.185,0-2.369,0.451-3.271,1.353
			c-0.874,0.874-1.354,2.036-1.354,3.271c0,1.236,0.48,2.397,1.354,3.271l6.896,6.896l6.896-6.896
			c0.874-0.874,1.355-2.035,1.355-3.271c0-1.235-0.481-2.397-1.355-3.271c-0.874-0.874-2.035-1.355-3.271-1.355
			c-1.235,0-2.397,0.481-3.271,1.355c-0.188,0.188-0.52,0.188-0.707,0C31.494,18.795,30.31,18.344,29.125,18.344z"/>
	</g>
	<g>
		
			<rect x="27.623" y="21.466" transform="matrix(0.7071 -0.7071 0.7071 0.7071 -9.2116 30.9462)" class="st3" width="10.252" height="10.252"/>
		<path class="st0" d="M32.749,34.342L32.749,34.342c-0.133,0-0.26-0.053-0.354-0.146l-7.249-7.25c-0.195-0.195-0.195-0.512,0-0.707
			l7.249-7.249c0.195-0.195,0.512-0.195,0.707,0l7.25,7.249c0.094,0.094,0.146,0.221,0.146,0.354s-0.053,0.26-0.146,0.354
			l-7.25,7.25C33.009,34.289,32.882,34.342,32.749,34.342z M26.207,26.592l6.542,6.542l6.543-6.542l-6.543-6.542L26.207,26.592z"/>
	</g>
</g>
</svg>
