<?xml version="1.0" encoding="utf-8"?>
<!-- Generator: Adobe Illustrator 21.1.0, SVG Export Plug-In . SVG Version: 6.00 Build 0)  -->
<svg version="1.1" id="Layer_1" xmlns="http://www.w3.org/2000/svg" xmlns:xlink="http://www.w3.org/1999/xlink" x="0px" y="0px"
	 viewBox="0 0 64 64" style="enable-background:new 0 0 64 64;" xml:space="preserve">
<style type="text/css">
	.st0{fill:#263238;}
	.st1{fill:#FFD740;}
	.st2{fill:#40C4FF;}
	.st3{fill:#FF5252;}
	.st4{fill:#4DB6AC;}
	.st5{fill:#FFFFFF;}
	.st6{fill:#37474F;}
	.st7{fill:#4FC3F7;}
</style>
<g>
	<g>
		<path class="st0" d="M37.75,26.5h-11.5c-0.276,0-0.5-0.224-0.5-0.5V6c0-0.276,0.224-0.5,0.5-0.5h11.5c0.276,0,0.5,0.224,0.5,0.5
			v20C38.25,26.276,38.026,26.5,37.75,26.5z M26.75,25.5h10.5v-19h-10.5V25.5z"/>
	</g>
	<g>
		<path class="st0" d="M60.75,26.5h-11.5c-0.276,0-0.5-0.224-0.5-0.5V6c0-0.276,0.224-0.5,0.5-0.5h11.5c0.276,0,0.5,0.224,0.5,0.5
			v20C61.25,26.276,61.026,26.5,60.75,26.5z M49.75,25.5h10.5v-19h-10.5V25.5z"/>
	</g>
	<g>
		<path class="st0" d="M60.75,18.5h-11.5c-0.276,0-0.5-0.224-0.5-0.5V6c0-0.276,0.224-0.5,0.5-0.5h11.5c0.276,0,0.5,0.224,0.5,0.5
			v12C61.25,18.276,61.026,18.5,60.75,18.5z M49.75,17.5h10.5v-11h-10.5V17.5z"/>
	</g>
	<g>
		<path class="st0" d="M14.75,18.5H3.25c-0.276,0-0.5-0.224-0.5-0.5v-4c0-0.276,0.224-0.5,0.5-0.5h11.5c0.276,0,0.5,0.224,0.5,0.5v4
			C15.25,18.276,15.026,18.5,14.75,18.5z M3.75,17.5h10.5v-3H3.75V17.5z"/>
	</g>
	<g>
		<path class="st0" d="M14.75,26.5H3.25c-0.276,0-0.5-0.224-0.5-0.5v-4c0-0.276,0.224-0.5,0.5-0.5h11.5c0.276,0,0.5,0.224,0.5,0.5v4
			C15.25,26.276,15.026,26.5,14.75,26.5z M3.75,25.5h10.5v-3H3.75V25.5z"/>
	</g>
	<g>
		<path class="st0" d="M14.75,10.5H3.25c-0.276,0-0.5-0.224-0.5-0.5V6c0-0.276,0.224-0.5,0.5-0.5h11.5c0.276,0,0.5,0.224,0.5,0.5v4
			C15.25,10.276,15.026,10.5,14.75,10.5z M3.75,9.5h10.5v-3H3.75V9.5z"/>
	</g>
	<g>
		<path class="st0" d="M60.75,18.5c-0.131,0-0.263-0.052-0.361-0.154l-11.5-12c-0.191-0.2-0.185-0.516,0.015-0.707
			s0.516-0.184,0.707,0.015l11.5,12c0.191,0.2,0.185,0.516-0.015,0.707C60.999,18.454,60.875,18.5,60.75,18.5z"/>
	</g>
	<g>
		<path class="st0" d="M49.25,18.5c-0.125,0-0.249-0.046-0.346-0.139c-0.199-0.191-0.206-0.507-0.015-0.707l11.5-12
			c0.191-0.199,0.507-0.207,0.707-0.015c0.199,0.191,0.206,0.507,0.015,0.707l-11.5,12C49.513,18.448,49.381,18.5,49.25,18.5z"/>
	</g>
	<g>
		<path class="st0" d="M37.75,58.5h-11.5c-0.276,0-0.5-0.224-0.5-0.5V38c0-0.276,0.224-0.5,0.5-0.5h11.5c0.276,0,0.5,0.224,0.5,0.5
			v20C38.25,58.276,38.026,58.5,37.75,58.5z M26.75,57.5h10.5v-19h-10.5V57.5z"/>
	</g>
	<g>
		<rect x="26.25" y="41.5" class="st3" width="11.5" height="13"/>
		<path class="st0" d="M37.75,55h-11.5c-0.276,0-0.5-0.224-0.5-0.5v-13c0-0.276,0.224-0.5,0.5-0.5h11.5c0.276,0,0.5,0.224,0.5,0.5
			v13C38.25,54.776,38.026,55,37.75,55z M26.75,54h10.5V42h-10.5V54z"/>
	</g>
	<g>
		<rect x="3.25" y="38" class="st2" width="11.5" height="20"/>
		<path class="st0" d="M14.75,58.5H3.25c-0.276,0-0.5-0.224-0.5-0.5V38c0-0.276,0.224-0.5,0.5-0.5h11.5c0.276,0,0.5,0.224,0.5,0.5
			v20C15.25,58.276,15.026,58.5,14.75,58.5z M3.75,57.5h10.5v-19H3.75V57.5z"/>
	</g>
	<g>
		<rect x="49.25" y="38" class="st1" width="11.5" height="20"/>
		<path class="st0" d="M60.75,58.5h-11.5c-0.276,0-0.5-0.224-0.5-0.5V38c0-0.276,0.224-0.5,0.5-0.5h11.5c0.276,0,0.5,0.224,0.5,0.5
			v20C61.25,58.276,61.026,58.5,60.75,58.5z M49.75,57.5h10.5v-19h-10.5V57.5z"/>
	</g>
	<g>
		<path class="st0" d="M24.25,16.5h-7.5c-0.276,0-0.5-0.224-0.5-0.5s0.224-0.5,0.5-0.5h7.5c0.276,0,0.5,0.224,0.5,0.5
			S24.526,16.5,24.25,16.5z"/>
	</g>
	<g>
		<path class="st0" d="M21.25,19.5c-0.128,0-0.256-0.049-0.354-0.146c-0.195-0.195-0.195-0.512,0-0.707L23.543,16l-2.646-2.646
			c-0.195-0.195-0.195-0.512,0-0.707s0.512-0.195,0.707,0l3,3c0.195,0.195,0.195,0.512,0,0.707l-3,3
			C21.506,19.451,21.378,19.5,21.25,19.5z"/>
	</g>
	<g>
		<path class="st0" d="M47.25,16.5h-7.5c-0.276,0-0.5-0.224-0.5-0.5s0.224-0.5,0.5-0.5h7.5c0.276,0,0.5,0.224,0.5,0.5
			S47.526,16.5,47.25,16.5z"/>
	</g>
	<g>
		<path class="st0" d="M44.25,19.5c-0.128,0-0.256-0.049-0.354-0.146c-0.195-0.195-0.195-0.512,0-0.707L46.543,16l-2.646-2.646
			c-0.195-0.195-0.195-0.512,0-0.707s0.512-0.195,0.707,0l3,3c0.195,0.195,0.195,0.512,0,0.707l-3,3
			C44.506,19.451,44.378,19.5,44.25,19.5z"/>
	</g>
	<g>
		<path class="st0" d="M24.25,48.5h-7.5c-0.276,0-0.5-0.224-0.5-0.5s0.224-0.5,0.5-0.5h7.5c0.276,0,0.5,0.224,0.5,0.5
			S24.526,48.5,24.25,48.5z"/>
	</g>
	<g>
		<path class="st0" d="M21.25,51.5c-0.128,0-0.256-0.049-0.354-0.146c-0.195-0.195-0.195-0.512,0-0.707L23.543,48l-2.646-2.646
			c-0.195-0.195-0.195-0.512,0-0.707s0.512-0.195,0.707,0l3,3c0.195,0.195,0.195,0.512,0,0.707l-3,3
			C21.506,51.451,21.378,51.5,21.25,51.5z"/>
	</g>
	<g>
		<path class="st0" d="M47.25,48.5h-7.5c-0.276,0-0.5-0.224-0.5-0.5s0.224-0.5,0.5-0.5h7.5c0.276,0,0.5,0.224,0.5,0.5
			S47.526,48.5,47.25,48.5z"/>
	</g>
	<g>
		<path class="st0" d="M44.25,51.5c-0.128,0-0.256-0.049-0.354-0.146c-0.195-0.195-0.195-0.512,0-0.707L46.543,48l-2.646-2.646
			c-0.195-0.195-0.195-0.512,0-0.707s0.512-0.195,0.707,0l3,3c0.195,0.195,0.195,0.512,0,0.707l-3,3
			C44.506,51.451,44.378,51.5,44.25,51.5z"/>
	</g>
	<g>
		<path class="st0" d="M35,10.5h-6c-0.276,0-0.5-0.224-0.5-0.5s0.224-0.5,0.5-0.5h6c0.276,0,0.5,0.224,0.5,0.5S35.276,10.5,35,10.5z
			"/>
	</g>
	<g>
		<path class="st0" d="M35,18.5h-6c-0.276,0-0.5-0.224-0.5-0.5s0.224-0.5,0.5-0.5h6c0.276,0,0.5,0.224,0.5,0.5S35.276,18.5,35,18.5z
			"/>
	</g>
	<g>
		<path class="st0" d="M35,14.5h-6c-0.276,0-0.5-0.224-0.5-0.5s0.224-0.5,0.5-0.5h6c0.276,0,0.5,0.224,0.5,0.5S35.276,14.5,35,14.5z
			"/>
	</g>
	<g>
		<path class="st0" d="M35,22.5h-6c-0.276,0-0.5-0.224-0.5-0.5s0.224-0.5,0.5-0.5h6c0.276,0,0.5,0.224,0.5,0.5S35.276,22.5,35,22.5z
			"/>
	</g>
	<g>
		<path class="st0" d="M58,22.5h-6c-0.276,0-0.5-0.224-0.5-0.5s0.224-0.5,0.5-0.5h6c0.276,0,0.5,0.224,0.5,0.5S58.276,22.5,58,22.5z
			"/>
	</g>
	<g>
		<polygon class="st5" points="55,44 56.236,46.633 59,47.056 57,49.106 57.472,52 55,50.633 52.528,52 53,49.106 51,47.056 
			53.764,46.633 		"/>
		<path class="st0" d="M57.472,52.5c-0.083,0-0.167-0.021-0.242-0.062L55,51.205l-2.23,1.233c-0.167,0.093-0.374,0.082-0.53-0.029
			s-0.236-0.3-0.206-0.489l0.432-2.646l-1.824-1.869c-0.131-0.134-0.176-0.33-0.116-0.508s0.213-0.307,0.398-0.335l2.5-0.382
			l1.123-2.392c0.165-0.351,0.74-0.351,0.905,0l1.123,2.392l2.5,0.382c0.185,0.028,0.339,0.158,0.398,0.335s0.015,0.374-0.116,0.508
			l-1.824,1.869l0.432,2.646c0.031,0.189-0.049,0.379-0.206,0.489C57.674,52.469,57.573,52.5,57.472,52.5z M55,50.133
			c0.083,0,0.167,0.021,0.242,0.062l1.571,0.869l-0.307-1.878c-0.025-0.157,0.025-0.316,0.136-0.43l1.32-1.354l-1.802-0.275
			c-0.165-0.025-0.306-0.131-0.377-0.282L55,45.177l-0.783,1.669c-0.071,0.151-0.212,0.257-0.377,0.282l-1.802,0.275l1.32,1.354
			c0.111,0.114,0.161,0.273,0.136,0.43l-0.307,1.878l1.571-0.869C54.833,50.154,54.917,50.133,55,50.133z"/>
	</g>
	<g>
		<circle class="st5" cx="9" cy="45.5" r="3"/>
		<path class="st0" d="M9,49c-1.93,0-3.5-1.57-3.5-3.5S7.07,42,9,42s3.5,1.57,3.5,3.5S10.93,49,9,49z M9,43
			c-1.378,0-2.5,1.122-2.5,2.5S7.622,48,9,48s2.5-1.122,2.5-2.5S10.378,43,9,43z"/>
	</g>
	<g>
		<rect x="6" y="50.867" class="st5" width="6" height="2.5"/>
		<path class="st0" d="M12,53.867H6c-0.276,0-0.5-0.224-0.5-0.5v-2.5c0-0.276,0.224-0.5,0.5-0.5h6c0.276,0,0.5,0.224,0.5,0.5v2.5
			C12.5,53.643,12.276,53.867,12,53.867z M6.5,52.867h5v-1.5h-5V52.867z"/>
	</g>
	<g>
		<polygon class="st5" points="29.25,51 29.25,45 34.75,48 		"/>
		<path class="st0" d="M29.25,51.5c-0.088,0-0.177-0.023-0.255-0.07c-0.151-0.09-0.245-0.254-0.245-0.43v-6
			c0-0.176,0.093-0.34,0.245-0.43c0.151-0.09,0.339-0.093,0.495-0.009l5.5,3C35.15,47.648,35.25,47.817,35.25,48
			s-0.1,0.352-0.261,0.439l-5.5,3C29.415,51.479,29.333,51.5,29.25,51.5z M29.75,45.842v4.315L33.707,48L29.75,45.842z"/>
	</g>
	<g>
		<path class="st0" d="M9,36.5c-0.276,0-0.5-0.224-0.5-0.5v-4c0-0.276,0.224-0.5,0.5-0.5h45.5V28c0-0.276,0.224-0.5,0.5-0.5
			s0.5,0.224,0.5,0.5v4c0,0.276-0.224,0.5-0.5,0.5H9.5V36C9.5,36.276,9.276,36.5,9,36.5z"/>
	</g>
	<g>
		<path class="st0" d="M43.5,62.5h-19c-0.276,0-0.5-0.224-0.5-0.5s0.224-0.5,0.5-0.5h19c0.276,0,0.5,0.224,0.5,0.5
			S43.776,62.5,43.5,62.5z"/>
	</g>
	<g>
		<path class="st0" d="M22.5,62.5h-2c-0.276,0-0.5-0.224-0.5-0.5s0.224-0.5,0.5-0.5h2c0.276,0,0.5,0.224,0.5,0.5
			S22.776,62.5,22.5,62.5z"/>
	</g>
	<g>
		<path class="st0" d="M39.5,2.5h-19C20.224,2.5,20,2.276,20,2s0.224-0.5,0.5-0.5h19C39.776,1.5,40,1.724,40,2S39.776,2.5,39.5,2.5z
			"/>
	</g>
	<g>
		<path class="st0" d="M43.5,2.5h-2C41.224,2.5,41,2.276,41,2s0.224-0.5,0.5-0.5h2C43.776,1.5,44,1.724,44,2S43.776,2.5,43.5,2.5z"
			/>
	</g>
</g>
</svg>
