<?xml version="1.0" encoding="utf-8"?>
<!-- Generator: Adobe Illustrator 21.1.0, SVG Export Plug-In . SVG Version: 6.00 Build 0)  -->
<svg version="1.1" id="Layer_1" xmlns="http://www.w3.org/2000/svg" xmlns:xlink="http://www.w3.org/1999/xlink" x="0px" y="0px"
	 viewBox="0 0 64 64" style="enable-background:new 0 0 64 64;" xml:space="preserve">
<style type="text/css">
	.st0{fill:#263238;}
	.st1{fill:#FFD740;}
	.st2{fill:#40C4FF;}
	.st3{fill:#FF5252;}
	.st4{fill:#4DB6AC;}
	.st5{fill:#FFFFFF;}
	.st6{fill:#37474F;}
	.st7{fill:#4FC3F7;}
</style>
<g>
	<g>
		<path class="st0" d="M50,19H2c-0.276,0-0.5-0.224-0.5-0.5V13c0-1.654,1.346-3,3-3h43c1.654,0,3,1.346,3,3v5.5
			C50.5,18.776,50.276,19,50,19z M2.5,18h47v-5c0-1.103-0.897-2-2-2h-43c-1.103,0-2,0.897-2,2V18z"/>
	</g>
	<g>
		<path class="st0" d="M6.5,16.5c-1.103,0-2-0.897-2-2s0.897-2,2-2s2,0.897,2,2S7.603,16.5,6.5,16.5z M6.5,13.5
			c-0.551,0-1,0.448-1,1s0.449,1,1,1s1-0.448,1-1S7.051,13.5,6.5,13.5z"/>
	</g>
	<g>
		<path class="st0" d="M11.5,16.5c-1.103,0-2-0.897-2-2s0.897-2,2-2s2,0.897,2,2S12.603,16.5,11.5,16.5z M11.5,13.5
			c-0.551,0-1,0.448-1,1s0.449,1,1,1s1-0.448,1-1S12.051,13.5,11.5,13.5z"/>
	</g>
	<g>
		<path class="st0" d="M51,4.5h-4c-0.276,0-0.5-0.224-0.5-0.5s0.224-0.5,0.5-0.5h4c0.276,0,0.5,0.224,0.5,0.5S51.276,4.5,51,4.5z"/>
	</g>
	<g>
		<path class="st0" d="M49,6.5c-0.276,0-0.5-0.224-0.5-0.5V2c0-0.276,0.224-0.5,0.5-0.5s0.5,0.224,0.5,0.5v4
			C49.5,6.276,49.276,6.5,49,6.5z"/>
	</g>
	<g>
		<path class="st0" d="M58,11h-4c-0.276,0-0.5-0.224-0.5-0.5S53.724,10,54,10h4c0.276,0,0.5,0.224,0.5,0.5S58.276,11,58,11z"/>
	</g>
	<g>
		<path class="st0" d="M56,13c-0.276,0-0.5-0.224-0.5-0.5v-4C55.5,8.224,55.724,8,56,8s0.5,0.224,0.5,0.5v4
			C56.5,12.776,56.276,13,56,13z"/>
	</g>
	<g>
		<path class="st0" d="M7.5,56.5h-2C5.224,56.5,5,56.276,5,56s0.224-0.5,0.5-0.5h2C7.776,55.5,8,55.724,8,56S7.776,56.5,7.5,56.5z"
			/>
	</g>
	<g>
		<path class="st0" d="M19.5,56.5h-10C9.224,56.5,9,56.276,9,56s0.224-0.5,0.5-0.5h10c0.276,0,0.5,0.224,0.5,0.5
			S19.776,56.5,19.5,56.5z"/>
	</g>
	<g>
		<path class="st0" d="M40,7h-2c-0.276,0-0.5-0.224-0.5-0.5S37.724,6,38,6h2c0.276,0,0.5,0.224,0.5,0.5S40.276,7,40,7z"/>
	</g>
	<g>
		<path class="st0" d="M36,7H16c-0.276,0-0.5-0.224-0.5-0.5S15.724,6,16,6h20c0.276,0,0.5,0.224,0.5,0.5S36.276,7,36,7z"/>
	</g>
	<g>
		<path class="st0" d="M28,46h-4c-0.827,0-1.5-0.673-1.5-1.5v-1c0-0.827,0.673-1.5,1.5-1.5h4c0.827,0,1.5,0.673,1.5,1.5v1
			C29.5,45.327,28.827,46,28,46z M24,43c-0.276,0-0.5,0.225-0.5,0.5v1c0,0.275,0.224,0.5,0.5,0.5h4c0.276,0,0.5-0.225,0.5-0.5v-1
			c0-0.275-0.224-0.5-0.5-0.5H24z"/>
	</g>
	<g>
		<path class="st0" d="M28,56.5h-4c-0.827,0-1.5-0.673-1.5-1.5v-1c0-0.827,0.673-1.5,1.5-1.5h4c0.827,0,1.5,0.673,1.5,1.5v1
			C29.5,55.827,28.827,56.5,28,56.5z M24,53.5c-0.276,0-0.5,0.225-0.5,0.5v1c0,0.275,0.224,0.5,0.5,0.5h4c0.276,0,0.5-0.225,0.5-0.5
			v-1c0-0.275-0.224-0.5-0.5-0.5H24z"/>
	</g>
	<g>
		<path class="st0" d="M61,62.5H27c-0.827,0-1.5-0.673-1.5-1.5v-3c0-0.276,0.224-0.5,0.5-0.5s0.5,0.224,0.5,0.5v3
			c0,0.275,0.224,0.5,0.5,0.5h34c0.276,0,0.5-0.225,0.5-0.5V37.5c0-0.275-0.224-0.5-0.5-0.5H27c-0.276,0-0.5,0.225-0.5,0.5v3
			c0,0.276-0.224,0.5-0.5,0.5s-0.5-0.224-0.5-0.5v-3c0-0.827,0.673-1.5,1.5-1.5h34c0.827,0,1.5,0.673,1.5,1.5V61
			C62.5,61.827,61.827,62.5,61,62.5z"/>
	</g>
	<g>
		<path class="st0" d="M26,51.5c-0.276,0-0.5-0.224-0.5-0.5v-3.5c0-0.276,0.224-0.5,0.5-0.5s0.5,0.224,0.5,0.5V51
			C26.5,51.276,26.276,51.5,26,51.5z"/>
	</g>
	<g>
		<path class="st0" d="M24,51H4.5c-1.654,0-3-1.346-3-3V18.5C1.5,18.224,1.724,18,2,18h48c0.276,0,0.5,0.224,0.5,0.5v16
			c0,0.276-0.224,0.5-0.5,0.5s-0.5-0.224-0.5-0.5V19h-47v29c0,1.103,0.897,2,2,2H24c0.276,0,0.5,0.224,0.5,0.5S24.276,51,24,51z"/>
	</g>
	<g>
		<rect x="7" y="23.5" class="st3" width="10" height="10"/>
		<path class="st0" d="M17,34H7c-0.276,0-0.5-0.224-0.5-0.5v-10C6.5,23.224,6.724,23,7,23h10c0.276,0,0.5,0.224,0.5,0.5v10
			C17.5,33.776,17.276,34,17,34z M7.5,33h9v-9h-9V33z"/>
	</g>
	<g>
		<path class="st0" d="M17,37H7c-0.276,0-0.5-0.224-0.5-0.5S6.724,36,7,36h10c0.276,0,0.5,0.224,0.5,0.5S17.276,37,17,37z"/>
	</g>
	<g>
		<rect x="21" y="23.5" class="st1" width="10" height="10"/>
		<path class="st0" d="M31,34H21c-0.276,0-0.5-0.224-0.5-0.5v-10c0-0.276,0.224-0.5,0.5-0.5h10c0.276,0,0.5,0.224,0.5,0.5v10
			C31.5,33.776,31.276,34,31,34z M21.5,33h9v-9h-9V33z"/>
	</g>
	<g>
		<path class="st0" d="M24,37h-3c-0.276,0-0.5-0.224-0.5-0.5S20.724,36,21,36h3c0.276,0,0.5,0.224,0.5,0.5S24.276,37,24,37z"/>
	</g>
	<g>
		<rect x="35" y="23.5" class="st2" width="10" height="10"/>
		<path class="st0" d="M45,34H35c-0.276,0-0.5-0.224-0.5-0.5v-10c0-0.276,0.224-0.5,0.5-0.5h10c0.276,0,0.5,0.224,0.5,0.5v10
			C45.5,33.776,45.276,34,45,34z M35.5,33h9v-9h-9V33z"/>
	</g>
	<g>
		<path class="st0" d="M45,37H35c-0.276,0-0.5-0.224-0.5-0.5S34.724,36,35,36h10c0.276,0,0.5,0.224,0.5,0.5S45.276,37,45,37z"/>
	</g>
	<g>
		<path class="st0" d="M17,49c-0.276,0-0.5-0.224-0.5-0.5V42h-9v6.5C7.5,48.776,7.276,49,7,49s-0.5-0.224-0.5-0.5v-7
			C6.5,41.224,6.724,41,7,41h10c0.276,0,0.5,0.224,0.5,0.5v7C17.5,48.776,17.276,49,17,49z"/>
	</g>
	<g>
		<path class="st0" d="M50,56.75c-0.087,0-0.174-0.022-0.252-0.068l-6-3.5c-0.154-0.09-0.248-0.254-0.248-0.432v-7
			c0-0.178,0.094-0.342,0.248-0.432l6-3.5c0.155-0.092,0.349-0.092,0.504,0l6,3.5c0.154,0.09,0.248,0.254,0.248,0.432v7
			c0,0.178-0.094,0.342-0.248,0.432l-6,3.5C50.174,56.728,50.087,56.75,50,56.75z M44.5,52.463l5.5,3.208l5.5-3.208v-6.426
			L50,42.829l-5.5,3.208V52.463z"/>
	</g>
	<g>
		<polyline class="st4" points="42,45.75 34,45.75 34,52.75 42,52.75 		"/>
		<path class="st0" d="M42,53.25h-8c-0.276,0-0.5-0.224-0.5-0.5v-7c0-0.276,0.224-0.5,0.5-0.5h8c0.276,0,0.5,0.224,0.5,0.5
			s-0.224,0.5-0.5,0.5h-7.5v6H42c0.276,0,0.5,0.224,0.5,0.5S42.276,53.25,42,53.25z"/>
	</g>
	<g>
		<path class="st0" d="M50,56.75c-0.086,0-0.172-0.022-0.249-0.066c-0.155-0.089-0.251-0.255-0.251-0.434v-7
			c0-0.178,0.094-0.342,0.248-0.432l6-3.5c0.154-0.091,0.346-0.091,0.501-0.002S56.5,45.571,56.5,45.75v7
			c0,0.178-0.094,0.342-0.248,0.432l-6,3.5C50.174,56.728,50.087,56.75,50,56.75z M50.5,49.537v5.843l5-2.917V46.62L50.5,49.537z"/>
	</g>
	<g>
		<line class="st4" x1="50" y1="49.25" x2="44" y2="45.75"/>
		<path class="st0" d="M50,49.75c-0.085,0-0.172-0.021-0.251-0.068l-6-3.5c-0.238-0.139-0.319-0.445-0.18-0.684
			c0.14-0.238,0.446-0.32,0.684-0.18l6,3.5c0.238,0.139,0.319,0.445,0.18,0.684C50.339,49.661,50.171,49.75,50,49.75z"/>
	</g>
</g>
</svg>
