<?xml version="1.0" encoding="utf-8"?>
<!-- Generator: Adobe Illustrator 21.1.0, SVG Export Plug-In . SVG Version: 6.00 Build 0)  -->
<svg version="1.1" id="Layer_1" xmlns="http://www.w3.org/2000/svg" xmlns:xlink="http://www.w3.org/1999/xlink" x="0px" y="0px"
	 viewBox="0 0 64 64" style="enable-background:new 0 0 64 64;" xml:space="preserve">
<style type="text/css">
	.st0{fill:#263238;}
	.st1{fill:#FFD740;}
	.st2{fill:#40C4FF;}
	.st3{fill:#FF5252;}
	.st4{fill:#4DB6AC;}
	.st5{fill:#FFFFFF;}
	.st6{fill:#37474F;}
	.st7{fill:#4FC3F7;}
</style>
<g>
	<g>
		<path class="st0" d="M15.002,56c-3.032,0-5.5-2.467-5.5-5.5s2.468-5.5,5.5-5.5s5.5,2.467,5.5,5.5S18.034,56,15.002,56z M15.002,46
			c-2.481,0-4.5,2.019-4.5,4.5s2.019,4.5,4.5,4.5s4.5-2.019,4.5-4.5S17.483,46,15.002,46z"/>
	</g>
	<g>
		<path class="st0" d="M7,64c-0.276,0-0.5-0.224-0.5-0.5v-3.39c0-1.174,0.69-2.246,1.759-2.731l3.735-1.695l-0.001-0.858
			c0-0.276,0.224-0.5,0.5-0.5l0,0c0.276,0,0.5,0.224,0.5,0.5l0.001,1.18c0,0.196-0.114,0.375-0.293,0.456l-4.028,1.829
			C7.96,58.612,7.5,59.327,7.5,60.109v3.39C7.5,63.776,7.276,64,7,64z"/>
	</g>
	<g>
		<path class="st0" d="M23,64c-0.276,0-0.5-0.224-0.5-0.5v-3.391c0-0.782-0.46-1.497-1.173-1.821l-4.041-1.837
			c-0.179-0.081-0.293-0.259-0.293-0.455v-1.16c0-0.276,0.224-0.5,0.5-0.5l0,0c0.276,0,0.5,0.224,0.5,0.5l0.001,0.837l3.747,1.705
			c1.068,0.486,1.759,1.558,1.759,2.731V63.5C23.5,63.776,23.276,64,23,64z"/>
	</g>
	<g>
		<path class="st0" d="M31.002,56c-3.032,0-5.5-2.467-5.5-5.5s2.468-5.5,5.5-5.5s5.5,2.467,5.5,5.5S34.034,56,31.002,56z M31.002,46
			c-2.481,0-4.5,2.019-4.5,4.5s2.019,4.5,4.5,4.5s4.5-2.019,4.5-4.5S33.483,46,31.002,46z"/>
	</g>
	<g>
		<path class="st0" d="M23,64c-0.276,0-0.5-0.224-0.5-0.5v-3.39c0-1.174,0.69-2.246,1.759-2.731l3.734-1.695l-0.001-0.858
			c0-0.276,0.224-0.5,0.5-0.5l0,0c0.276,0,0.5,0.224,0.5,0.5l0.001,1.18c0,0.196-0.114,0.375-0.293,0.456l-4.027,1.829
			c-0.713,0.324-1.173,1.039-1.173,1.821v3.39C23.5,63.776,23.276,64,23,64z"/>
	</g>
	<g>
		<path class="st0" d="M38.999,64c-0.276,0-0.5-0.224-0.5-0.5v-3.391c0-0.782-0.46-1.497-1.172-1.821l-4.041-1.837
			c-0.179-0.081-0.293-0.259-0.293-0.455l-0.001-1.16c0-0.276,0.224-0.5,0.5-0.5l0,0c0.276,0,0.5,0.224,0.5,0.5l0.001,0.837
			l3.748,1.705c1.067,0.485,1.758,1.557,1.758,2.731V63.5C39.499,63.776,39.275,64,38.999,64z"/>
	</g>
	<g>
		<path class="st0" d="M47.002,56c-3.032,0-5.5-2.467-5.5-5.5s2.468-5.5,5.5-5.5s5.5,2.467,5.5,5.5S50.034,56,47.002,56z M47.002,46
			c-2.481,0-4.5,2.019-4.5,4.5s2.019,4.5,4.5,4.5s4.5-2.019,4.5-4.5S49.483,46,47.002,46z"/>
	</g>
	<g>
		<path class="st0" d="M38.999,64c-0.276,0-0.5-0.224-0.5-0.5v-3.39c0-1.173,0.69-2.246,1.76-2.731l3.734-1.695l-0.001-0.858
			c0-0.276,0.224-0.5,0.5-0.5l0,0c0.276,0,0.5,0.224,0.5,0.5l0.001,1.18c0,0.196-0.114,0.375-0.293,0.456l-4.027,1.829
			c-0.713,0.324-1.174,1.039-1.174,1.821v3.39C39.499,63.776,39.275,64,38.999,64z"/>
	</g>
	<g>
		<path class="st0" d="M54.999,64c-0.276,0-0.5-0.224-0.5-0.5v-3.391c0-0.782-0.46-1.497-1.172-1.821l-4.041-1.837
			c-0.179-0.081-0.293-0.259-0.293-0.455l-0.001-1.16c0-0.276,0.224-0.5,0.5-0.5l0,0c0.276,0,0.5,0.224,0.5,0.5l0.001,0.837
			l3.748,1.705c1.067,0.485,1.758,1.557,1.758,2.731V63.5C55.499,63.776,55.275,64,54.999,64z"/>
	</g>
	<g>
		<path class="st2" d="M30.999,0.5h-14c-0.552,0-1,0.448-1,1v9c0,0.552,0.448,1,1,1h2.5v2.865c0,0.848,0.989,1.311,1.64,0.768
			l4.36-3.633h5.5c0.552,0,1-0.448,1-1v-9C31.999,0.947,31.552,0.5,30.999,0.5z"/>
		<path class="st0" d="M20.503,15.867c-0.216,0-0.434-0.047-0.64-0.144c-0.533-0.25-0.864-0.77-0.864-1.358V12h-2
			c-0.827,0-1.5-0.673-1.5-1.5v-9c0-0.827,0.673-1.5,1.5-1.5h14c0.827,0,1.5,0.673,1.5,1.5v9c0,0.827-0.673,1.5-1.5,1.5H25.68
			l-4.22,3.518C21.183,15.748,20.846,15.867,20.503,15.867z M16.999,1c-0.275,0-0.5,0.224-0.5,0.5v9c0,0.276,0.225,0.5,0.5,0.5h2.5
			c0.276,0,0.5,0.224,0.5,0.5v2.865c0,0.295,0.221,0.421,0.288,0.453c0.067,0.033,0.306,0.121,0.532-0.069l4.359-3.633
			c0.09-0.075,0.203-0.116,0.32-0.116h5.5c0.275,0,0.5-0.224,0.5-0.5v-9c0-0.276-0.225-0.5-0.5-0.5H16.999z"/>
	</g>
	<g>
		<path class="st0" d="M51.999,32h-10c-0.276,0-0.5-0.224-0.5-0.5s0.224-0.5,0.5-0.5h10c0.276,0,0.5,0.224,0.5,0.5
			S52.275,32,51.999,32z"/>
	</g>
	<g>
		<path class="st0" d="M48.999,34.5h-7c-0.276,0-0.5-0.224-0.5-0.5s0.224-0.5,0.5-0.5h7c0.276,0,0.5,0.224,0.5,0.5
			S49.275,34.5,48.999,34.5z"/>
	</g>
	<g>
		<path class="st0" d="M48.999,29.5h-7c-0.276,0-0.5-0.224-0.5-0.5s0.224-0.5,0.5-0.5h7c0.276,0,0.5,0.224,0.5,0.5
			S49.275,29.5,48.999,29.5z"/>
	</g>
	<g>
		<path class="st0" d="M12.005,26c-3.584,0-6.5-2.916-6.5-6.5s2.916-6.5,6.5-6.5s6.5,2.916,6.5,6.5S15.589,26,12.005,26z M12.005,14
			c-3.032,0-5.5,2.467-5.5,5.5s2.468,5.5,5.5,5.5s5.5-2.467,5.5-5.5S15.037,14,12.005,14z"/>
	</g>
	<g>
		<path class="st1" d="M16.165,16.03l0.447-0.372c-1.101-1.319-2.755-2.159-4.607-2.159c-3.314,0-6,2.686-6,6h0.566
			C10.076,19.499,13.47,18.272,16.165,16.03z"/>
		<path class="st0" d="M6.571,20H6.005c-0.276,0-0.5-0.224-0.5-0.5c0-3.584,2.916-6.5,6.5-6.5c1.932,0,3.751,0.852,4.991,2.338
			c0.085,0.102,0.126,0.233,0.114,0.366s-0.076,0.254-0.179,0.339l-0.447,0.372C13.706,18.727,10.186,20,6.571,20z M6.527,19h0.044
			c3.381,0,6.675-1.191,9.274-3.354l0,0l0.045-0.038C14.862,14.581,13.472,14,12.005,14C9.141,14,6.78,16.2,6.527,19z"/>
	</g>
	<g>
		<path class="st0" d="M2,42.5c-0.276,0-0.5-0.224-0.5-0.5v-8.913c0-2.095,1.163-3.979,3.036-4.917l4.236-2.123
			c0.244-0.122,0.547-0.023,0.671,0.223c0.123,0.247,0.023,0.547-0.224,0.671l-4.236,2.122C3.452,29.832,2.5,31.373,2.5,33.087V42
			C2.5,42.276,2.276,42.5,2,42.5z"/>
	</g>
	<g>
		<path class="st0" d="M6.005,42.5c-0.276,0-0.5-0.224-0.5-0.5v-6.5c0-0.276,0.224-0.5,0.5-0.5s0.5,0.224,0.5,0.5V42
			C6.505,42.276,6.281,42.5,6.005,42.5z"/>
	</g>
	<g>
		<path class="st0" d="M11.995,31.495L11.995,31.495c-0.167,0-0.323-0.083-0.416-0.223l-2.999-4.5
			c-0.055-0.082-0.084-0.178-0.084-0.277l-0.002-1.804c0-0.276,0.224-0.5,0.499-0.5c0.001,0,0.001,0,0.001,0
			c0.276,0,0.5,0.224,0.5,0.5l0.002,1.653l2.499,3.75l2.501-3.75l-0.001-1.646c0-0.276,0.224-0.5,0.5-0.5l0,0
			c0.276,0,0.5,0.224,0.5,0.5l0.001,1.798c0,0.099-0.029,0.196-0.084,0.278l-3.001,4.5C12.318,31.412,12.162,31.495,11.995,31.495z"
			/>
	</g>
	<g>
		<path class="st0" d="M12,35.495c-0.276,0-0.5-0.224-0.5-0.5v-4c0-0.276,0.224-0.5,0.5-0.5s0.5,0.224,0.5,0.5v4
			C12.5,35.271,12.276,35.495,12,35.495z"/>
	</g>
	<g>
		<path class="st0" d="M18.005,42.5L18.005,42.5c-0.276,0-0.5-0.224-0.5-0.5l0.002-9.331c0-0.202,0.122-0.385,0.309-0.462
			s0.402-0.034,0.545,0.108l5.815,5.815c0.566,0.566,1.555,0.566,2.121,0l5.304-5.303l-2.121-2.121l-3.89,3.889
			c-0.195,0.195-0.512,0.195-0.707,0l-3.884-3.884c-0.67-0.67-1.437-1.236-2.276-1.68l-3.96-2.095
			c-0.244-0.129-0.338-0.432-0.209-0.676c0.13-0.244,0.434-0.337,0.676-0.208l3.961,2.095c0.929,0.491,1.774,1.116,2.516,1.857
			l3.53,3.53l3.89-3.889c0.195-0.195,0.512-0.195,0.707,0l2.828,2.828c0.094,0.094,0.146,0.221,0.146,0.354s-0.053,0.26-0.146,0.354
			l-5.657,5.656c-0.945,0.944-2.59,0.944-3.535,0l-4.962-4.962L18.505,42C18.505,42.276,18.281,42.5,18.005,42.5z"/>
	</g>
	<g>
		<path class="st0" d="M57.999,38H30.464c-0.276,0-0.5-0.224-0.5-0.5s0.224-0.5,0.5-0.5h27.535c0.275,0,0.5-0.224,0.5-0.5v-22
			c0-0.276-0.225-0.5-0.5-0.5h-28c-0.275,0-0.5,0.224-0.5,0.5v13.566c0,0.276-0.224,0.5-0.5,0.5s-0.5-0.224-0.5-0.5V14.5
			c0-0.827,0.673-1.5,1.5-1.5h28c0.827,0,1.5,0.673,1.5,1.5v22C59.499,37.327,58.826,38,57.999,38z"/>
	</g>
	<g>
		<path class="st0" d="M33.722,31.914c-0.128,0-0.256-0.049-0.354-0.146c-0.195-0.195-0.195-0.512,0-0.707
			c0.585-0.585,0.585-1.537,0-2.122c-0.566-0.566-1.555-0.566-2.121,0l-0.708-0.707c0.974-0.975,2.561-0.976,3.536,0
			c0.975,0.975,0.975,2.561,0,3.536C33.978,31.865,33.85,31.914,33.722,31.914z"/>
	</g>
	<g>
		<path class="st0" d="M57,3.933h-4c-0.276,0-0.5-0.224-0.5-0.5s0.224-0.5,0.5-0.5h4c0.276,0,0.5,0.224,0.5,0.5
			S57.276,3.933,57,3.933z"/>
	</g>
	<g>
		<path class="st0" d="M55,5.933c-0.276,0-0.5-0.224-0.5-0.5v-4c0-0.276,0.224-0.5,0.5-0.5s0.5,0.224,0.5,0.5v4
			C55.5,5.709,55.276,5.933,55,5.933z"/>
	</g>
	<g>
		<path class="st0" d="M62,9.433h-4c-0.276,0-0.5-0.224-0.5-0.5s0.224-0.5,0.5-0.5h4c0.276,0,0.5,0.224,0.5,0.5
			S62.276,9.433,62,9.433z"/>
	</g>
	<g>
		<path class="st0" d="M60,11.433c-0.276,0-0.5-0.224-0.5-0.5v-4c0-0.276,0.224-0.5,0.5-0.5s0.5,0.224,0.5,0.5v4
			C60.5,11.209,60.276,11.433,60,11.433z"/>
	</g>
	<g>
		<path class="st0" d="M53.499,40.965h-10c-0.276,0-0.5-0.224-0.5-0.5s0.224-0.5,0.5-0.5h10c0.276,0,0.5,0.224,0.5,0.5
			S53.775,40.965,53.499,40.965z"/>
	</g>
	<g>
		<path class="st0" d="M56.499,40.965h-1c-0.276,0-0.5-0.224-0.5-0.5s0.224-0.5,0.5-0.5h1c0.276,0,0.5,0.224,0.5,0.5
			S56.775,40.965,56.499,40.965z"/>
	</g>
	<g>
		<path class="st0" d="M28.999,5h-10c-0.276,0-0.5-0.224-0.5-0.5s0.224-0.5,0.5-0.5h10c0.276,0,0.5,0.224,0.5,0.5S29.275,5,28.999,5
			z"/>
	</g>
	<g>
		<path class="st0" d="M28.999,8h-10c-0.276,0-0.5-0.224-0.5-0.5s0.224-0.5,0.5-0.5h10c0.276,0,0.5,0.224,0.5,0.5S29.275,8,28.999,8
			z"/>
	</g>
	<g>
		<rect x="41.999" y="21" class="st4" width="4" height="5"/>
		<path class="st0" d="M45.999,26.5h-4c-0.276,0-0.5-0.224-0.5-0.5v-5c0-0.276,0.224-0.5,0.5-0.5h4c0.276,0,0.5,0.224,0.5,0.5v5
			C46.499,26.276,46.275,26.5,45.999,26.5z M42.499,25.5h3v-4h-3V25.5z"/>
	</g>
	<g>
		<rect x="47.999" y="17" class="st3" width="4" height="9"/>
		<path class="st0" d="M51.999,26.5h-4c-0.276,0-0.5-0.224-0.5-0.5v-9c0-0.276,0.224-0.5,0.5-0.5h4c0.276,0,0.5,0.224,0.5,0.5v9
			C52.499,26.276,52.275,26.5,51.999,26.5z M48.499,25.5h3v-8h-3V25.5z"/>
	</g>
	<g>
		<path class="st0" d="M38.999,20.5h-6c-0.276,0-0.5-0.224-0.5-0.5v-3c0-0.276,0.224-0.5,0.5-0.5h6c0.276,0,0.5,0.224,0.5,0.5v3
			C39.499,20.276,39.275,20.5,38.999,20.5z M33.499,19.5h5v-2h-5V19.5z"/>
	</g>
</g>
</svg>
