<?xml version="1.0" encoding="utf-8"?>
<!-- Generator: Adobe Illustrator 21.1.0, SVG Export Plug-In . SVG Version: 6.00 Build 0)  -->
<svg version="1.1" id="Layer_1" xmlns="http://www.w3.org/2000/svg" xmlns:xlink="http://www.w3.org/1999/xlink" x="0px" y="0px"
	 viewBox="0 0 64 64" style="enable-background:new 0 0 64 64;" xml:space="preserve">
<style type="text/css">
	.st0{fill:#263238;}
	.st1{fill:#FFD740;}
	.st2{fill:#40C4FF;}
	.st3{fill:#FF5252;}
	.st4{fill:#4DB6AC;}
	.st5{fill:#FFFFFF;}
	.st6{fill:#37474F;}
	.st7{fill:#4FC3F7;}
</style>
<g>
	<g>
		<path class="st0" d="M23.132,55.929c-0.128,0-0.256-0.049-0.354-0.146c-0.195-0.195-0.195-0.512,0-0.707l3.217-3.218
			c0.491-0.491,1.062-0.879,1.697-1.155l6.275-2.727c1.627-0.707,3.02-1.852,4.028-3.311l9.093-13.152
			c0.157-0.229,0.469-0.285,0.695-0.127c0.228,0.157,0.284,0.468,0.127,0.695l-9.093,13.152c-1.114,1.613-2.654,2.878-4.452,3.659
			l-6.275,2.727c-0.52,0.226-0.987,0.544-1.389,0.945l-3.217,3.218C23.388,55.88,23.26,55.929,23.132,55.929z"/>
	</g>
	<g>
		<path class="st0" d="M31.475,41.103c-0.696,0-1.387-0.132-2.041-0.394l-1.697-0.679c-1.364-0.546-2.434-1.59-3.013-2.94
			l-2.184-5.096c-0.109-0.253,0.009-0.547,0.263-0.656c0.251-0.111,0.547,0.008,0.656,0.263l2.184,5.096
			c0.474,1.104,1.349,1.959,2.465,2.405l1.697,0.679c0.813,0.326,1.695,0.407,2.554,0.235l1.778-0.355
			c1.023-0.205,1.95-0.764,2.609-1.575l5.365-6.603c0.174-0.214,0.488-0.246,0.703-0.073c0.214,0.174,0.247,0.489,0.072,0.704
			l-5.365,6.603c-0.805,0.991-1.938,1.675-3.189,1.925l-1.777,0.355C32.197,41.067,31.835,41.103,31.475,41.103z"/>
	</g>
	<g>
		<path class="st0" d="M15,47.797c-0.128,0-0.256-0.049-0.354-0.146c-0.195-0.195-0.195-0.512,0-0.707l2.502-2.502
			c1.481-1.481,2.217-3.527,2.019-5.613l-0.665-6.983c-0.026-0.275,0.175-0.519,0.45-0.545c0.276-0.037,0.519,0.175,0.545,0.45
			l0.665,6.983c0.227,2.384-0.614,4.723-2.307,6.415l-2.502,2.502C15.256,47.748,15.128,47.797,15,47.797z"/>
	</g>
	<g>
		<path class="st2" d="M7.222,52.954l10.253,10.253c0.391,0.391,1.024,0.391,1.414,0l3.889-3.889c0.391-0.391,0.391-1.024,0-1.414
			L12.525,47.65c-0.391-0.391-1.024-0.391-1.414,0l-3.889,3.889C6.831,51.93,6.831,52.563,7.222,52.954z"/>
		<path class="st0" d="M18.182,64c-0.401,0-0.778-0.156-1.061-0.439L6.868,53.307c0,0,0,0,0,0c-0.583-0.585-0.583-1.536,0-2.121
			l3.89-3.889c0.567-0.567,1.556-0.566,2.122,0L23.132,57.55c0.584,0.585,0.584,1.537,0,2.121l-3.889,3.889
			C18.959,63.843,18.583,64,18.182,64z M7.575,52.6l10.253,10.253c0.189,0.189,0.518,0.189,0.707,0l3.889-3.889
			c0.195-0.195,0.195-0.512,0-0.707L12.171,48.004c-0.188-0.189-0.517-0.188-0.707,0l-3.889,3.889
			C7.381,52.088,7.381,52.405,7.575,52.6L7.575,52.6z"/>
	</g>
	<g>
		<path class="st0" d="M56.5,30.297h-49c-0.827,0-1.5-0.673-1.5-1.5v-2c0-0.827,0.673-1.5,1.5-1.5h49c0.827,0,1.5,0.673,1.5,1.5v2
			C58,29.624,57.327,30.297,56.5,30.297z M7.5,26.297c-0.276,0-0.5,0.224-0.5,0.5v2c0,0.276,0.224,0.5,0.5,0.5h49
			c0.275,0,0.5-0.224,0.5-0.5v-2c0-0.276-0.225-0.5-0.5-0.5H7.5z"/>
	</g>
	<g>
		<path class="st0" d="M32.135,38.9c-0.111,0-0.222-0.037-0.315-0.112c-0.214-0.174-0.247-0.489-0.073-0.704l5.365-6.603
			c0.174-0.214,0.489-0.246,0.703-0.073c0.214,0.174,0.247,0.489,0.072,0.704l-5.364,6.603C32.424,38.837,32.28,38.9,32.135,38.9z"
			/>
	</g>
	<g>
		<path class="st0" d="M52.5,53h-1c-0.276,0-0.5-0.224-0.5-0.5s0.224-0.5,0.5-0.5h1c0.276,0,0.5,0.224,0.5,0.5S52.776,53,52.5,53z"
			/>
	</g>
	<g>
		<path class="st0" d="M49.5,53h-11c-0.276,0-0.5-0.224-0.5-0.5s0.224-0.5,0.5-0.5h11c0.276,0,0.5,0.224,0.5,0.5S49.776,53,49.5,53z
			"/>
	</g>
	<g>
		<path class="st0" d="M47.5,56h-13c-0.276,0-0.5-0.224-0.5-0.5s0.224-0.5,0.5-0.5h13c0.276,0,0.5,0.224,0.5,0.5S47.776,56,47.5,56z
			"/>
	</g>
	<g>
		<path class="st0" d="M50.25,9c-0.215,0-0.406-0.138-0.475-0.342L49.223,7c-0.23-0.692-0.78-1.242-1.473-1.472l-1.658-0.554
			C45.888,4.906,45.75,4.715,45.75,4.5s0.138-0.406,0.342-0.474l1.658-0.553c0.692-0.23,1.242-0.781,1.473-1.473l0.553-1.659
			c0.137-0.408,0.812-0.408,0.949,0L51.277,2c0.23,0.692,0.78,1.242,1.473,1.472l1.658,0.553C54.612,4.093,54.75,4.284,54.75,4.5
			s-0.138,0.406-0.342,0.474L52.75,5.527c-0.692,0.23-1.242,0.781-1.473,1.472l-0.553,1.659C50.656,8.862,50.465,9,50.25,9z
			 M47.83,4.5l0.236,0.079c0.989,0.329,1.776,1.116,2.105,2.105l0.078,0.235l0.078-0.235c0.329-0.988,1.116-1.775,2.105-2.105
			L52.67,4.5l-0.236-0.079c-0.988-0.329-1.775-1.116-2.105-2.104L50.25,2.081l-0.078,0.235c-0.33,0.989-1.117,1.775-2.105,2.105
			L47.83,4.5z"/>
	</g>
	<g>
		<path class="st4" d="M44,8.797c0-0.552-0.448-1-1-1H13c-0.552,0-1,0.448-1,1v16c0,0.552,0.448,1,1,1h30c0.552,0,1-0.448,1-1V8.797
			z"/>
		<path class="st0" d="M43,26.297H13c-0.827,0-1.5-0.673-1.5-1.5v-16c0-0.827,0.673-1.5,1.5-1.5h30c0.827,0,1.5,0.673,1.5,1.5v16
			C44.5,25.624,43.827,26.297,43,26.297z M13,8.297c-0.276,0-0.5,0.224-0.5,0.5v16c0,0.276,0.224,0.5,0.5,0.5h30
			c0.275,0,0.5-0.224,0.5-0.5v-16c0-0.276-0.225-0.5-0.5-0.5H13z"/>
	</g>
	<g>
		<path class="st1" d="M46,25.797h5c0.552,0,1-0.448,1-1v-2c0-0.552-0.448-1-1-1h-5"/>
		<path class="st0" d="M51,26.297h-5c-0.276,0-0.5-0.224-0.5-0.5s0.224-0.5,0.5-0.5h5c0.275,0,0.5-0.224,0.5-0.5v-2
			c0-0.276-0.225-0.5-0.5-0.5h-5c-0.276,0-0.5-0.224-0.5-0.5s0.224-0.5,0.5-0.5h5c0.827,0,1.5,0.673,1.5,1.5v2
			C52.5,25.624,51.827,26.297,51,26.297z"/>
	</g>
	<g>
		<path class="st1" d="M46,21.797h5c0.552,0,1-0.448,1-1v-2c0-0.552-0.448-1-1-1h-5"/>
		<path class="st0" d="M51,22.297h-5c-0.276,0-0.5-0.224-0.5-0.5s0.224-0.5,0.5-0.5h5c0.275,0,0.5-0.224,0.5-0.5v-2
			c0-0.276-0.225-0.5-0.5-0.5h-5c-0.276,0-0.5-0.224-0.5-0.5s0.224-0.5,0.5-0.5h5c0.827,0,1.5,0.673,1.5,1.5v2
			C52.5,21.624,51.827,22.297,51,22.297z"/>
	</g>
	<g>
		<path class="st1" d="M46,17.797h5c0.552,0,1-0.448,1-1v-2c0-0.552-0.448-1-1-1h-5"/>
		<path class="st0" d="M51,18.297h-5c-0.276,0-0.5-0.224-0.5-0.5s0.224-0.5,0.5-0.5h5c0.275,0,0.5-0.224,0.5-0.5v-2
			c0-0.276-0.225-0.5-0.5-0.5h-5c-0.276,0-0.5-0.224-0.5-0.5s0.224-0.5,0.5-0.5h5c0.827,0,1.5,0.673,1.5,1.5v2
			C52.5,17.624,51.827,18.297,51,18.297z"/>
	</g>
	<g>
		<circle class="st5" cx="28" cy="16.797" r="6"/>
		<path class="st0" d="M28,23.297c-3.584,0-6.5-2.916-6.5-6.5s2.916-6.5,6.5-6.5s6.5,2.916,6.5,6.5S31.584,23.297,28,23.297z
			 M28,11.297c-3.033,0-5.5,2.467-5.5,5.5s2.467,5.5,5.5,5.5s5.5-2.467,5.5-5.5S31.033,11.297,28,11.297z"/>
	</g>
	<g>
		<path class="st0" d="M28.75,19.797H26c-0.276,0-0.5-0.224-0.5-0.5s0.224-0.5,0.5-0.5h2.75c0.414,0,0.75-0.336,0.75-0.75
			s-0.336-0.75-0.75-0.75h-1.5c-0.965,0-1.75-0.785-1.75-1.75s0.785-1.75,1.75-1.75h2.25c0.276,0,0.5,0.224,0.5,0.5
			s-0.224,0.5-0.5,0.5h-2.25c-0.414,0-0.75,0.336-0.75,0.75s0.336,0.75,0.75,0.75h1.5c0.965,0,1.75,0.785,1.75,1.75
			S29.715,19.797,28.75,19.797z"/>
	</g>
	<g>
		<path class="st0" d="M28,14.797c-0.276,0-0.5-0.224-0.5-0.5v-1.5c0-0.276,0.224-0.5,0.5-0.5s0.5,0.224,0.5,0.5v1.5
			C28.5,14.574,28.276,14.797,28,14.797z"/>
	</g>
	<g>
		<path class="st0" d="M28,21.297c-0.276,0-0.5-0.224-0.5-0.5v-1.5c0-0.276,0.224-0.5,0.5-0.5s0.5,0.224,0.5,0.5v1.5
			C28.5,21.074,28.276,21.297,28,21.297z"/>
	</g>
	<g>
		<path class="st0" d="M37.686,23.297H18.314c-0.193,0-0.368-0.111-0.451-0.285c-0.723-1.514-1.981-2.679-3.542-3.278
			C14.127,19.66,14,19.474,14,19.267v-4.94c0-0.207,0.127-0.393,0.321-0.467c1.562-0.6,2.82-1.765,3.543-3.279
			c0.083-0.174,0.258-0.285,0.451-0.285h19.371c0.192,0,0.368,0.111,0.451,0.285c0.723,1.515,1.98,2.679,3.543,3.279
			c0.192,0.074,0.32,0.26,0.32,0.467v4.94c0,0.207-0.128,0.393-0.32,0.467c-1.562,0.6-2.82,1.765-3.543,3.278
			C38.054,23.186,37.878,23.297,37.686,23.297z M18.623,22.297h18.754c0.797-1.505,2.066-2.684,3.623-3.365v-4.27
			c-1.557-0.681-2.826-1.86-3.623-3.365H18.623c-0.797,1.505-2.066,2.685-3.623,3.365v4.27
			C16.556,19.613,17.826,20.792,18.623,22.297z"/>
	</g>
</g>
</svg>
