<?xml version="1.0" encoding="utf-8"?>
<!-- Generator: Adobe Illustrator 21.1.0, SVG Export Plug-In . SVG Version: 6.00 Build 0)  -->
<svg version="1.1" id="Layer_1" xmlns="http://www.w3.org/2000/svg" xmlns:xlink="http://www.w3.org/1999/xlink" x="0px" y="0px"
	 viewBox="0 0 64 64" style="enable-background:new 0 0 64 64;" xml:space="preserve">
<style type="text/css">
	.st0{fill:#263238;}
	.st1{fill:#FFD740;}
	.st2{fill:#40C4FF;}
	.st3{fill:#FF5252;}
	.st4{fill:#4DB6AC;}
	.st5{fill:#FFFFFF;}
	.st6{fill:#37474F;}
	.st7{fill:#4FC3F7;}
</style>
<g>
	<g>
		<rect x="31" y="52.75" class="st2" width="8" height="4"/>
	</g>
	<g>
		<path class="st0" d="M26,55.25c-0.276,0-0.5-0.224-0.5-0.5v-7.5c0-0.276,0.224-0.5,0.5-0.5s0.5,0.224,0.5,0.5v7.5
			C26.5,55.026,26.276,55.25,26,55.25z"/>
	</g>
	<g>
		<path class="st0" d="M27,42.75H2c-0.276,0-0.5-0.224-0.5-0.5s0.224-0.5,0.5-0.5h25c0.276,0,0.5,0.224,0.5,0.5
			S27.276,42.75,27,42.75z"/>
	</g>
	<g>
		<path class="st0" d="M61.999,10.75H2c-0.276,0-0.5-0.224-0.5-0.5s0.224-0.5,0.5-0.5h60c0.276,0,0.5,0.224,0.5,0.5
			S62.275,10.75,61.999,10.75z"/>
	</g>
	<g>
		<path class="st0" d="M15,53.25H7.5c-0.276,0-0.5-0.224-0.5-0.5s0.224-0.5,0.5-0.5H15c0.276,0,0.5,0.224,0.5,0.5
			S15.276,53.25,15,53.25z"/>
	</g>
	<g>
		<path class="st0" d="M5.5,53.25h-1c-0.276,0-0.5-0.224-0.5-0.5s0.224-0.5,0.5-0.5h1c0.276,0,0.5,0.224,0.5,0.5
			S5.776,53.25,5.5,53.25z"/>
	</g>
	<g>
		<path class="st0" d="M39.999,59.25H30c-0.827,0-1.5-0.673-1.5-1.5v-16c0-0.827,0.673-1.5,1.5-1.5h10c0.827,0,1.5,0.673,1.5,1.5v16
			C41.499,58.577,40.826,59.25,39.999,59.25z M30,41.25c-0.276,0-0.5,0.224-0.5,0.5v16c0,0.276,0.224,0.5,0.5,0.5h10
			c0.275,0,0.5-0.224,0.5-0.5v-16c0-0.276-0.225-0.5-0.5-0.5H30z"/>
	</g>
	<g>
		<path class="st0" d="M54.499,59.25h-11.5c-0.276,0-0.5-0.224-0.5-0.5s0.224-0.5,0.5-0.5h11.5c1.103,0,2-0.897,2-2v-25.5
			c0-1.103-0.897-2-2-2h-17c-1.103,0-2,0.897-2,2v8c0,0.276-0.224,0.5-0.5,0.5s-0.5-0.224-0.5-0.5v-8c0-1.654,1.346-3,3-3h17
			c1.654,0,3,1.346,3,3v25.5C57.499,57.904,56.153,59.25,54.499,59.25z"/>
	</g>
	<g>
		<path class="st0" d="M27,47.75H7c-3.033,0-5.5-2.467-5.5-5.5v-32c0-3.033,2.467-5.5,5.5-5.5h50c3.032,0,5.5,2.467,5.5,5.5v32
			c0,2.182-1.295,4.159-3.3,5.036c-0.252,0.112-0.547-0.003-0.658-0.257c-0.11-0.253,0.005-0.548,0.258-0.659
			c1.641-0.718,2.7-2.335,2.7-4.12v-32c0-2.481-2.019-4.5-4.5-4.5H7c-2.481,0-4.5,2.019-4.5,4.5v32c0,2.481,2.019,4.5,4.5,4.5h20
			c0.276,0,0.5,0.224,0.5,0.5S27.276,47.75,27,47.75z"/>
	</g>
	<g>
		<path class="st0" d="M27,59.25h-5c-0.827,0-1.5-0.673-1.5-1.5v-2c0-0.827,0.673-1.5,1.5-1.5h5c0.276,0,0.5,0.224,0.5,0.5
			s-0.224,0.5-0.5,0.5h-5c-0.276,0-0.5,0.224-0.5,0.5v2c0,0.276,0.224,0.5,0.5,0.5h5c0.276,0,0.5,0.224,0.5,0.5
			S27.276,59.25,27,59.25z"/>
	</g>
	<g>
		<rect x="12" y="15.25" class="st1" width="40" height="8"/>
		<path class="st0" d="M51.999,23.75H12c-0.276,0-0.5-0.224-0.5-0.5v-8c0-0.276,0.224-0.5,0.5-0.5h40c0.276,0,0.5,0.224,0.5,0.5v8
			C52.499,23.526,52.275,23.75,51.999,23.75z M12.5,22.75h39v-7h-39V22.75z"/>
	</g>
	<g>
		<rect x="38" y="32.25" class="st1" width="16" height="6"/>
		<path class="st0" d="M53.999,38.75h-16c-0.276,0-0.5-0.224-0.5-0.5v-6c0-0.276,0.224-0.5,0.5-0.5h16c0.276,0,0.5,0.224,0.5,0.5v6
			C54.499,38.526,54.275,38.75,53.999,38.75z M38.499,37.75h15v-5h-15V37.75z"/>
	</g>
	<g>
		<path class="st2" d="M27,40c0-0.552,0.448-1,1-1h4v-5.75H12v7h15V40z"/>
	</g>
	<g>
		<path class="st0" d="M12,40.75c-0.276,0-0.5-0.224-0.5-0.5v-7c0-0.276,0.224-0.5,0.5-0.5h20c0.276,0,0.5,0.224,0.5,0.5
			s-0.224,0.5-0.5,0.5H12.5v6.5C12.5,40.526,12.276,40.75,12,40.75z"/>
	</g>
	<g>
		<path class="st0" d="M32,28.75H12c-0.276,0-0.5-0.224-0.5-0.5s0.224-0.5,0.5-0.5h20c0.276,0,0.5,0.224,0.5,0.5
			S32.276,28.75,32,28.75z"/>
	</g>
	<g>
		<path class="st0" d="M53.999,43.75h-11c-0.276,0-0.5-0.224-0.5-0.5s0.224-0.5,0.5-0.5h11c0.276,0,0.5,0.224,0.5,0.5
			S54.275,43.75,53.999,43.75z"/>
	</g>
	<g>
		<path class="st0" d="M38.999,50.25h-8c-0.276,0-0.5-0.224-0.5-0.5s0.224-0.5,0.5-0.5h8c0.276,0,0.5,0.224,0.5,0.5
			S39.275,50.25,38.999,50.25z"/>
	</g>
	<g>
		<polyline class="st2" points="43,48.25 54,48.25 54,55.25 43,55.25 		"/>
	</g>
	<g>
		<path class="st0" d="M53.999,55.75c-0.276,0-0.5-0.224-0.5-0.5v-6.5h-10.5c-0.276,0-0.5-0.224-0.5-0.5s0.224-0.5,0.5-0.5h11
			c0.276,0,0.5,0.224,0.5,0.5v7C54.499,55.526,54.275,55.75,53.999,55.75z"/>
	</g>
	<g>
		<rect x="31" y="42.75" class="st1" width="8" height="4"/>
		<path class="st0" d="M38.999,47.25h-8c-0.276,0-0.5-0.224-0.5-0.5v-4c0-0.276,0.224-0.5,0.5-0.5h8c0.276,0,0.5,0.224,0.5,0.5v4
			C39.499,47.026,39.275,47.25,38.999,47.25z M31.5,46.25h7v-3h-7V46.25z"/>
	</g>
	<g>
		<path class="st0" d="M38.999,57.25c-0.276,0-0.5-0.224-0.5-0.5v-3.5h-7v3.5c0,0.276-0.224,0.5-0.5,0.5s-0.5-0.224-0.5-0.5v-4
			c0-0.276,0.224-0.5,0.5-0.5h8c0.276,0,0.5,0.224,0.5,0.5v4C39.499,57.026,39.275,57.25,38.999,57.25z"/>
	</g>
</g>
</svg>
