<?xml version="1.0" encoding="utf-8"?>
<!-- Generator: Adobe Illustrator 21.1.0, SVG Export Plug-In . SVG Version: 6.00 Build 0)  -->
<svg version="1.1" id="Layer_1" xmlns="http://www.w3.org/2000/svg" xmlns:xlink="http://www.w3.org/1999/xlink" x="0px" y="0px"
	 viewBox="0 0 64 64" style="enable-background:new 0 0 64 64;" xml:space="preserve">
<style type="text/css">
	.st0{fill:#263238;}
	.st1{fill:#FFD740;}
	.st2{fill:#40C4FF;}
	.st3{fill:#FF5252;}
	.st4{fill:#4DB6AC;}
	.st5{fill:#FFFFFF;}
	.st6{fill:#37474F;}
	.st7{fill:#4FC3F7;}
</style>
<g>
	<g>
		<path class="st0" d="M41.989,57.5h-3c-1.654,0-3-1.346-3-3V54h-11v0.5c0,1.654-1.346,3-3,3h-3c-1.654,0-3-1.346-3-3v-2.451
			c-5.153-2.862-8.198-8.266-7.965-14.175C8.347,29.673,15.49,23,23.946,23h13.565c1.16,0,2.339,0.14,3.513,0.415
			c0.311-2.779,2.644-4.915,5.465-4.915c0.276,0,0.5,0.224,0.5,0.5v7.256c2.533,1.965,4.416,4.695,5.342,7.744h0.658
			c1.654,0,3,1.346,3,3v3c0,1.654-1.346,3-3,3h-0.658c-1.168,3.849-3.819,7.125-7.342,9.07v2.43
			C44.989,56.154,43.643,57.5,41.989,57.5z M24.489,53h12c0.276,0,0.5,0.224,0.5,0.5v1c0,1.103,0.897,2,2,2h3c1.103,0,2-0.897,2-2
			v-2.728c0-0.186,0.103-0.355,0.267-0.442c3.525-1.857,6.156-5.124,7.217-8.963C51.533,42.15,51.73,42,51.955,42h1.034
			c1.103,0,2-0.897,2-2v-3c0-1.103-0.897-2-2-2h-1.034c-0.225,0-0.422-0.15-0.482-0.367c-0.847-3.064-2.724-5.81-5.284-7.729
			c-0.126-0.095-0.2-0.243-0.2-0.4v-6.976c-2.247,0.25-4,2.16-4,4.473c0,0.156-0.073,0.328-0.197,0.423
			c-0.124,0.093-0.286,0.146-0.436,0.109C40.072,24.179,38.778,24,37.511,24H23.946C16.02,24,9.325,30.241,9.022,37.913
			c-0.221,5.623,2.729,10.756,7.701,13.396c0.164,0.087,0.266,0.257,0.266,0.441V54.5c0,1.103,0.897,2,2,2h3c1.103,0,2-0.897,2-2v-1
			C23.989,53.224,24.212,53,24.489,53z"/>
	</g>
	<g>
		<path class="st2" d="M37.011,30h-13c-0.828,0-1.5-0.672-1.5-1.5v0c0-0.828,0.672-1.5,1.5-1.5h13c0.828,0,1.5,0.672,1.5,1.5v0
			C38.511,29.328,37.84,30,37.011,30z"/>
		<path class="st0" d="M37.011,30.5h-13c-1.103,0-2-0.897-2-2s0.897-2,2-2h13c1.103,0,2,0.897,2,2S38.114,30.5,37.011,30.5z
			 M24.011,27.5c-0.551,0-1,0.448-1,1s0.449,1,1,1h13c0.551,0,1-0.448,1-1s-0.449-1-1-1H24.011z"/>
	</g>
	<g>
		<circle class="st1" cx="30.511" cy="17" r="8"/>
		<path class="st0" d="M30.511,25.5c-4.687,0-8.5-3.813-8.5-8.5s3.813-8.5,8.5-8.5s8.5,3.813,8.5,8.5S35.198,25.5,30.511,25.5z
			 M30.511,9.5c-4.136,0-7.5,3.364-7.5,7.5s3.364,7.5,7.5,7.5s7.5-3.364,7.5-7.5S34.647,9.5,30.511,9.5z"/>
	</g>
	<g>
		<path class="st0" d="M30.511,15c-0.276,0-0.5-0.224-0.5-0.5V13c0-0.276,0.224-0.5,0.5-0.5s0.5,0.224,0.5,0.5v1.5
			C31.011,14.776,30.788,15,30.511,15z"/>
	</g>
	<g>
		<path class="st0" d="M30.511,21.5c-0.276,0-0.5-0.224-0.5-0.5v-1.5c0-0.276,0.224-0.5,0.5-0.5s0.5,0.224,0.5,0.5V21
			C31.011,21.276,30.788,21.5,30.511,21.5z"/>
	</g>
	<g>
		<path class="st0" d="M31.261,20h-2.75c-0.276,0-0.5-0.224-0.5-0.5s0.224-0.5,0.5-0.5h2.75c0.414,0,0.75-0.337,0.75-0.75
			s-0.336-0.75-0.75-0.75h-1.5c-0.965,0-1.75-0.785-1.75-1.75S28.796,14,29.761,14h2.25c0.276,0,0.5,0.224,0.5,0.5
			s-0.224,0.5-0.5,0.5h-2.25c-0.414,0-0.75,0.337-0.75,0.75s0.336,0.75,0.75,0.75h1.5c0.965,0,1.75,0.785,1.75,1.75
			S32.226,20,31.261,20z"/>
	</g>
	<g>
		<path class="st0" d="M10.511,9.5h-4c-0.276,0-0.5-0.224-0.5-0.5s0.224-0.5,0.5-0.5h4c0.276,0,0.5,0.224,0.5,0.5
			S10.788,9.5,10.511,9.5z"/>
	</g>
	<g>
		<path class="st0" d="M8.511,11.5c-0.276,0-0.5-0.224-0.5-0.5V7c0-0.276,0.224-0.5,0.5-0.5s0.5,0.224,0.5,0.5v4
			C9.011,11.276,8.788,11.5,8.511,11.5z"/>
	</g>
	<g>
		<path class="st0" d="M16.011,14.5h-4c-0.276,0-0.5-0.224-0.5-0.5s0.224-0.5,0.5-0.5h4c0.276,0,0.5,0.224,0.5,0.5
			S16.288,14.5,16.011,14.5z"/>
	</g>
	<g>
		<path class="st0" d="M14.011,16.5c-0.276,0-0.5-0.224-0.5-0.5v-4c0-0.276,0.224-0.5,0.5-0.5s0.5,0.224,0.5,0.5v4
			C14.511,16.276,14.288,16.5,14.011,16.5z"/>
	</g>
	<g>
		<path class="st0" d="M12.5,53.5H5c-0.276,0-0.5-0.224-0.5-0.5s0.224-0.5,0.5-0.5h7.5c0.276,0,0.5,0.224,0.5,0.5
			S12.776,53.5,12.5,53.5z"/>
	</g>
	<g>
		<path class="st0" d="M3,53.5H2c-0.276,0-0.5-0.224-0.5-0.5s0.224-0.5,0.5-0.5h1c0.276,0,0.5,0.224,0.5,0.5S3.276,53.5,3,53.5z"/>
	</g>
	<g>
		<path class="st0" d="M59,53.5h-7.5c-0.276,0-0.5-0.224-0.5-0.5s0.224-0.5,0.5-0.5H59c0.276,0,0.5,0.224,0.5,0.5
			S59.276,53.5,59,53.5z"/>
	</g>
	<g>
		<path class="st0" d="M62,53.5h-1c-0.276,0-0.5-0.224-0.5-0.5s0.224-0.5,0.5-0.5h1c0.276,0,0.5,0.224,0.5,0.5S62.276,53.5,62,53.5z
			"/>
	</g>
	<g>
		<path class="st0" d="M46.989,34.5c-1.103,0-2-0.897-2-2s0.897-2,2-2s2,0.897,2,2S48.092,34.5,46.989,34.5z M46.989,31.5
			c-0.551,0-1,0.448-1,1s0.449,1,1,1s1-0.448,1-1S47.54,31.5,46.989,31.5z"/>
	</g>
	<g>
		<path class="st0" d="M37.512,48h-14c-0.276,0-0.5-0.224-0.5-0.5s0.224-0.5,0.5-0.5h14c0.276,0,0.5,0.224,0.5,0.5
			S37.788,48,37.512,48z"/>
	</g>
</g>
</svg>
