<?xml version="1.0" encoding="utf-8"?>
<!-- Generator: Adobe Illustrator 21.1.0, SVG Export Plug-In . SVG Version: 6.00 Build 0)  -->
<svg version="1.1" id="Layer_1" xmlns="http://www.w3.org/2000/svg" xmlns:xlink="http://www.w3.org/1999/xlink" x="0px" y="0px"
	 viewBox="0 0 64 64" style="enable-background:new 0 0 64 64;" xml:space="preserve">
<style type="text/css">
	.st0{fill:#263238;}
	.st1{fill:#FFD740;}
	.st2{fill:#40C4FF;}
	.st3{fill:#FF5252;}
	.st4{fill:#4DB6AC;}
	.st5{fill:#FFFFFF;}
	.st6{fill:#37474F;}
	.st7{fill:#4FC3F7;}
</style>
<g>
	<g>
		<path class="st3" d="M14.5,7.501H11c-1.381,0-2.5,1.119-2.5,2.5v7.5h50v-7.5c0-1.381-1.119-2.5-2.5-2.5h-3.5"/>
	</g>
	<g>
		<rect x="8.5" y="27.001" class="st1" width="50" height="7.5"/>
	</g>
	<g>
		<path class="st5" d="M18,12.501L18,12.501c-0.828,0-1.5-0.672-1.5-1.5v-7c0-0.828,0.672-1.5,1.5-1.5h0c0.828,0,1.5,0.672,1.5,1.5
			v7C19.5,11.829,18.828,12.501,18,12.501z"/>
		<path class="st0" d="M18,13.001c-1.103,0-2-0.897-2-2v-7c0-1.103,0.897-2,2-2s2,0.897,2,2v7C20,12.104,19.103,13.001,18,13.001z
			 M18,3.001c-0.551,0-1,0.448-1,1v7c0,0.552,0.449,1,1,1s1-0.448,1-1v-7C19,3.449,18.551,3.001,18,3.001z"/>
	</g>
	<g>
		<path class="st5" d="M33.5,12.501L33.5,12.501c-0.828,0-1.5-0.672-1.5-1.5v-7c0-0.828,0.672-1.5,1.5-1.5h0
			c0.828,0,1.5,0.672,1.5,1.5v7C35,11.829,34.328,12.501,33.5,12.501z"/>
		<path class="st0" d="M33.5,13.001c-1.103,0-2-0.897-2-2v-7c0-1.103,0.897-2,2-2c1.103,0,2,0.897,2,2v7
			C35.5,12.104,34.603,13.001,33.5,13.001z M33.5,3.001c-0.551,0-1,0.448-1,1v7c0,0.552,0.449,1,1,1c0.552,0,1-0.448,1-1v-7
			C34.5,3.449,34.052,3.001,33.5,3.001z"/>
	</g>
	<g>
		<path class="st5" d="M49,12.501L49,12.501c-0.828,0-1.5-0.672-1.5-1.5v-7c0-0.828,0.672-1.5,1.5-1.5l0,0
			c0.828,0,1.5,0.672,1.5,1.5v7C50.5,11.829,49.828,12.501,49,12.501z"/>
		<path class="st0" d="M49,13.001c-1.103,0-2-0.897-2-2v-7c0-1.103,0.897-2,2-2s2,0.897,2,2v7C51,12.104,50.103,13.001,49,13.001z
			 M49,3.001c-0.552,0-1,0.448-1,1v7c0,0.552,0.448,1,1,1s1-0.448,1-1v-7C50,3.449,49.552,3.001,49,3.001z"/>
	</g>
	<g>
		<path class="st0" d="M30,8.001h-8.5c-0.276,0-0.5-0.224-0.5-0.5s0.224-0.5,0.5-0.5H30c0.276,0,0.5,0.224,0.5,0.5
			S30.276,8.001,30,8.001z"/>
	</g>
	<g>
		<path class="st0" d="M45.5,8.001H37c-0.276,0-0.5-0.224-0.5-0.5s0.224-0.5,0.5-0.5h8.5c0.276,0,0.5,0.224,0.5,0.5
			S45.776,8.001,45.5,8.001z"/>
	</g>
	<g>
		<path class="st0" d="M58.5,18.001h-50c-0.276,0-0.5-0.224-0.5-0.5v-7.5c0-1.654,1.346-3,3-3h3.5c0.276,0,0.5,0.224,0.5,0.5
			s-0.224,0.5-0.5,0.5H11c-1.103,0-2,0.897-2,2v7h49v-7c0-1.103-0.897-2-2-2h-3.5c-0.276,0-0.5-0.224-0.5-0.5s0.224-0.5,0.5-0.5H56
			c1.654,0,3,1.346,3,3v7.5C59,17.777,58.776,18.001,58.5,18.001z"/>
	</g>
	<g>
		<path class="st0" d="M37.143,52.001H11c-1.654,0-3-1.346-3-3v-29.5c0-0.276,0.224-0.5,0.5-0.5s0.5,0.224,0.5,0.5v29.5
			c0,1.103,0.897,2,2,2h26.143c0.276,0,0.5,0.224,0.5,0.5S37.419,52.001,37.143,52.001z"/>
	</g>
	<g>
		<path class="st0" d="M21,52.001c-0.276,0-0.5-0.224-0.5-0.5v-32c0-0.276,0.224-0.5,0.5-0.5s0.5,0.224,0.5,0.5v32
			C21.5,51.777,21.276,52.001,21,52.001z"/>
	</g>
	<g>
		<path class="st0" d="M33.5,52.001c-0.276,0-0.5-0.224-0.5-0.5v-32c0-0.276,0.224-0.5,0.5-0.5s0.5,0.224,0.5,0.5v32
			C34,51.777,33.776,52.001,33.5,52.001z"/>
	</g>
	<g>
		<path class="st0" d="M46,36.922c-0.276,0-0.5-0.224-0.5-0.5V19.501c0-0.276,0.224-0.5,0.5-0.5s0.5,0.224,0.5,0.5v16.921
			C46.5,36.698,46.276,36.922,46,36.922z"/>
	</g>
	<g>
		<path class="st0" d="M58.5,38.179c-0.276,0-0.5-0.224-0.5-0.5V19.501c0-0.276,0.224-0.5,0.5-0.5s0.5,0.224,0.5,0.5v18.178
			C59,37.955,58.776,38.179,58.5,38.179z"/>
	</g>
	<g>
		<path class="st0" d="M58.5,27.501h-50c-0.276,0-0.5-0.224-0.5-0.5s0.224-0.5,0.5-0.5h50c0.276,0,0.5,0.224,0.5,0.5
			S58.776,27.501,58.5,27.501z"/>
	</g>
	<g>
		<path class="st0" d="M58.5,35.001h-50c-0.276,0-0.5-0.224-0.5-0.5s0.224-0.5,0.5-0.5h50c0.276,0,0.5,0.224,0.5,0.5
			S58.776,35.001,58.5,35.001z"/>
	</g>
	<g>
		<path class="st0" d="M39.178,42.501H8.5c-0.276,0-0.5-0.224-0.5-0.5s0.224-0.5,0.5-0.5h30.678c0.276,0,0.5,0.224,0.5,0.5
			S39.454,42.501,39.178,42.501z"/>
	</g>
	<g>
		<path class="st0" d="M5,9.001H1c-0.276,0-0.5-0.224-0.5-0.5s0.224-0.5,0.5-0.5h4c0.276,0,0.5,0.224,0.5,0.5S5.276,9.001,5,9.001z"
			/>
	</g>
	<g>
		<path class="st0" d="M3,11.001c-0.276,0-0.5-0.224-0.5-0.5v-4c0-0.276,0.224-0.5,0.5-0.5s0.5,0.224,0.5,0.5v4
			C3.5,10.777,3.276,11.001,3,11.001z"/>
	</g>
	<g>
		<path class="st0" d="M32.5,57.001h-2c-0.276,0-0.5-0.224-0.5-0.5s0.224-0.5,0.5-0.5h2c0.276,0,0.5,0.224,0.5,0.5
			S32.776,57.001,32.5,57.001z"/>
	</g>
	<g>
		<path class="st0" d="M28.5,57.001h-15c-0.276,0-0.5-0.224-0.5-0.5s0.224-0.5,0.5-0.5h15c0.276,0,0.5,0.224,0.5,0.5
			S28.776,57.001,28.5,57.001z"/>
	</g>
	<g>
		<g>
			<circle class="st2" cx="51" cy="49.501" r="12"/>
			<path class="st0" d="M51,62.001c-6.893,0-12.5-5.607-12.5-12.5s5.607-12.5,12.5-12.5s12.5,5.607,12.5,12.5
				S57.893,62.001,51,62.001z M51,38.001c-6.341,0-11.5,5.159-11.5,11.5s5.159,11.5,11.5,11.5s11.5-5.159,11.5-11.5
				S57.341,38.001,51,38.001z"/>
		</g>
		<g>
			<circle class="st5" cx="51" cy="49.501" r="9"/>
			<path class="st0" d="M51,59.001c-5.238,0-9.5-4.262-9.5-9.5s4.262-9.5,9.5-9.5s9.5,4.262,9.5,9.5S56.238,59.001,51,59.001z
				 M51,41.001c-4.687,0-8.5,3.813-8.5,8.5s3.813,8.5,8.5,8.5s8.5-3.813,8.5-8.5S55.687,41.001,51,41.001z"/>
		</g>
		<g>
			<path class="st0" d="M51,51.001h-5c-0.276,0-0.5-0.224-0.5-0.5s0.224-0.5,0.5-0.5h4.5v-5.5c0-0.276,0.224-0.5,0.5-0.5
				s0.5,0.224,0.5,0.5v6C51.5,50.777,51.276,51.001,51,51.001z"/>
		</g>
	</g>
	<g>
		<path class="st0" d="M11.5,2.001h-4c-0.276,0-0.5-0.224-0.5-0.5s0.224-0.5,0.5-0.5h4c0.276,0,0.5,0.224,0.5,0.5
			S11.776,2.001,11.5,2.001z"/>
	</g>
	<g>
		<path class="st0" d="M9.5,4.001c-0.276,0-0.5-0.224-0.5-0.5v-4c0-0.276,0.224-0.5,0.5-0.5s0.5,0.224,0.5,0.5v4
			C10,3.777,9.776,4.001,9.5,4.001z"/>
	</g>
</g>
</svg>
