<?xml version="1.0" encoding="utf-8"?>
<!-- Generator: Adobe Illustrator 21.1.0, SVG Export Plug-In . SVG Version: 6.00 Build 0)  -->
<svg version="1.1" id="Layer_1" xmlns="http://www.w3.org/2000/svg" xmlns:xlink="http://www.w3.org/1999/xlink" x="0px" y="0px"
	 viewBox="0 0 64 64" style="enable-background:new 0 0 64 64;" xml:space="preserve">
<style type="text/css">
	.st0{fill:#263238;}
	.st1{fill:#FFD740;}
	.st2{fill:#40C4FF;}
	.st3{fill:#FF5252;}
	.st4{fill:#4DB6AC;}
	.st5{fill:#FFFFFF;}
	.st6{fill:#37474F;}
	.st7{fill:#4FC3F7;}
</style>
<g>
	<g>
		<path class="st0" d="M37.28,45.54c-0.128,0-0.256-0.049-0.354-0.146l-5.763-5.763c-0.102-0.102-0.155-0.243-0.146-0.387
			c0.01-0.144,0.081-0.276,0.195-0.364c1.028-0.785,1.948-1.705,2.734-2.734c0.088-0.114,0.221-0.186,0.364-0.195
			c0.147-0.008,0.285,0.044,0.387,0.146l5.763,5.763c0.195,0.195,0.195,0.512,0,0.707l-2.828,2.828
			C37.536,45.491,37.408,45.54,37.28,45.54z M32.268,39.32l5.013,5.013l2.121-2.121l-5.013-5.013
			C33.751,37.974,33.041,38.684,32.268,39.32z"/>
	</g>
	<g>
		<path class="st0" d="M43,9.501h-4c-0.276,0-0.5-0.224-0.5-0.5s0.224-0.5,0.5-0.5h4c0.276,0,0.5,0.224,0.5,0.5
			S43.276,9.501,43,9.501z"/>
	</g>
	<g>
		<path class="st0" d="M41,11.501c-0.276,0-0.5-0.224-0.5-0.5v-4c0-0.276,0.224-0.5,0.5-0.5s0.5,0.224,0.5,0.5v4
			C41.5,11.277,41.276,11.501,41,11.501z"/>
	</g>
	<g>
		<path class="st0" d="M49,14.501h-4c-0.276,0-0.5-0.224-0.5-0.5s0.224-0.5,0.5-0.5h4c0.276,0,0.5,0.224,0.5,0.5
			S49.276,14.501,49,14.501z"/>
	</g>
	<g>
		<path class="st0" d="M47,16.501c-0.276,0-0.5-0.224-0.5-0.5v-4c0-0.276,0.224-0.5,0.5-0.5s0.5,0.224,0.5,0.5v4
			C47.5,16.277,47.276,16.501,47,16.501z"/>
	</g>
	<g>
		<path class="st2" d="M40.462,41.858l-3.536,3.536c-0.391,0.391-0.391,1.024,0,1.414l9.899,9.899c0.391,0.391,1.024,0.391,1.414,0
			l3.536-3.536c0.391-0.391,0.391-1.024,0-1.414l-9.899-9.899C41.486,41.468,40.853,41.468,40.462,41.858z"/>
		<path class="st0" d="M47.533,57.499c-0.384,0-0.768-0.146-1.061-0.438l-9.899-9.9c-0.283-0.282-0.439-0.658-0.439-1.06
			c0-0.4,0.156-0.778,0.439-1.062l3.535-3.535c0.584-0.585,1.535-0.587,2.122,0l9.899,9.899c0.585,0.585,0.585,1.536,0,2.121
			l-3.536,3.536C48.301,57.354,47.917,57.499,47.533,57.499z M41.169,42.065c-0.133,0-0.259,0.052-0.354,0.146l-3.535,3.535
			c-0.095,0.095-0.146,0.221-0.146,0.354c0,0.133,0.052,0.258,0.146,0.353l9.899,9.9c0.195,0.193,0.512,0.193,0.707,0l3.536-3.536
			c0.095-0.095,0.146-0.22,0.146-0.354s-0.052-0.259-0.146-0.354l-9.899-9.899C41.429,42.117,41.303,42.065,41.169,42.065z"/>
	</g>
	<g>
		<path class="st0" d="M22.431,42.862c-8.547,0-15.5-6.953-15.5-15.5s6.953-15.5,15.5-15.5c8.546,0,15.5,6.953,15.5,15.5
			S30.978,42.862,22.431,42.862z M22.431,12.862c-7.995,0-14.5,6.505-14.5,14.5s6.505,14.5,14.5,14.5s14.5-6.505,14.5-14.5
			S30.426,12.862,22.431,12.862z"/>
	</g>
	<g>
		<path class="st1" d="M34.431,27.363c0,6.627-5.373,12-12,12s-12-5.373-12-12c0-6.627,5.373-12,12-12
			C29.059,15.363,34.431,20.735,34.431,27.363z"/>
		<path class="st0" d="M22.431,39.862c-6.893,0-12.5-5.607-12.5-12.5s5.607-12.5,12.5-12.5c6.892,0,12.5,5.607,12.5,12.5
			S29.323,39.862,22.431,39.862z M22.431,15.862c-6.341,0-11.5,5.159-11.5,11.5s5.159,11.5,11.5,11.5c6.341,0,11.5-5.159,11.5-11.5
			S28.772,15.862,22.431,15.862z"/>
	</g>
	<g>
		<path class="st0" d="M31.431,27.862c-0.276,0-0.5-0.224-0.5-0.5c0-4.687-3.813-8.5-8.5-8.5c-0.276,0-0.5-0.224-0.5-0.5
			s0.224-0.5,0.5-0.5c5.238,0,9.5,4.262,9.5,9.5C31.931,27.639,31.708,27.862,31.431,27.862z"/>
	</g>
	<g>
		<path class="st0" d="M9,48.807H7c-0.276,0-0.5-0.224-0.5-0.5s0.224-0.5,0.5-0.5h2c0.276,0,0.5,0.224,0.5,0.5
			S9.276,48.807,9,48.807z"/>
	</g>
	<g>
		<path class="st0" d="M22,48.807H11c-0.276,0-0.5-0.224-0.5-0.5s0.224-0.5,0.5-0.5h11c0.276,0,0.5,0.224,0.5,0.5
			S22.276,48.807,22,48.807z"/>
	</g>
	<g>
		<path class="st0" d="M57,33.807h-2c-0.276,0-0.5-0.224-0.5-0.5s0.224-0.5,0.5-0.5h2c0.276,0,0.5,0.224,0.5,0.5
			S57.276,33.807,57,33.807z"/>
	</g>
	<g>
		<path class="st0" d="M53,33.807H42c-0.276,0-0.5-0.224-0.5-0.5s0.224-0.5,0.5-0.5h11c0.276,0,0.5,0.224,0.5,0.5
			S53.276,33.807,53,33.807z"/>
	</g>
</g>
</svg>
