<?xml version="1.0" encoding="utf-8"?>
<!-- Generator: Adobe Illustrator 21.1.0, SVG Export Plug-In . SVG Version: 6.00 Build 0)  -->
<svg version="1.1" id="Layer_1" xmlns="http://www.w3.org/2000/svg" xmlns:xlink="http://www.w3.org/1999/xlink" x="0px" y="0px"
	 viewBox="0 0 64 64" style="enable-background:new 0 0 64 64;" xml:space="preserve">
<style type="text/css">
	.st0{fill:#263238;}
	.st1{fill:#FFD740;}
	.st2{fill:#40C4FF;}
	.st3{fill:#FF5252;}
	.st4{fill:#4DB6AC;}
	.st5{fill:#FFFFFF;}
	.st6{fill:#37474F;}
	.st7{fill:#4FC3F7;}
</style>
<g>
	<g>
		<path class="st3" d="M47.142,17.858C43.523,14.239,38.523,12,33,12v20L47.142,17.858z"/>
		<path class="st0" d="M33,32.5c-0.064,0-0.129-0.012-0.191-0.038C32.621,32.385,32.5,32.202,32.5,32V12c0-0.276,0.224-0.5,0.5-0.5
			c5.476,0,10.624,2.132,14.496,6.004c0.094,0.094,0.146,0.221,0.146,0.354s-0.053,0.26-0.146,0.354L33.353,32.354
			C33.257,32.449,33.129,32.5,33,32.5z M33.5,12.506v18.287l12.931-12.931C42.911,14.515,38.354,12.627,33.5,12.506z"/>
	</g>
	<g>
		<path class="st2" d="M48.483,21.845L34.414,35.914l12.728,12.728C50.761,45.023,53,40.023,53,34.5
			C53,29.697,51.304,25.293,48.483,21.845z"/>
		<path class="st0" d="M47.142,49.142c-0.128,0-0.256-0.049-0.354-0.146L34.06,36.268c-0.094-0.094-0.146-0.221-0.146-0.354
			s0.053-0.26,0.146-0.354l14.069-14.069c0.1-0.1,0.242-0.153,0.378-0.146c0.141,0.007,0.272,0.074,0.362,0.183
			c2.986,3.648,4.63,8.255,4.63,12.971c0,5.476-2.132,10.624-6.004,14.496C47.397,49.093,47.27,49.142,47.142,49.142z
			 M35.121,35.914l12.017,12.017C50.599,44.292,52.5,39.542,52.5,34.5c0-4.301-1.438-8.507-4.06-11.905L35.121,35.914z"/>
	</g>
	<g>
		<circle class="st1" cx="19" cy="47" r="8"/>
		<path class="st0" d="M19,55.5c-4.687,0-8.5-3.813-8.5-8.5s3.813-8.5,8.5-8.5s8.5,3.813,8.5,8.5S23.687,55.5,19,55.5z M19,39.5
			c-4.136,0-7.5,3.364-7.5,7.5s3.364,7.5,7.5,7.5s7.5-3.364,7.5-7.5S23.135,39.5,19,39.5z"/>
	</g>
	<g>
		<path class="st0" d="M31,55.5c-1.743,0-3.529-0.242-5.308-0.719c-0.267-0.071-0.425-0.346-0.354-0.612
			c0.072-0.267,0.346-0.423,0.612-0.354C27.646,54.27,29.344,54.5,31,54.5c4.302,0,8.507-1.438,11.905-4.06L29.232,36.768
			c-0.112-0.112-0.208-0.233-0.293-0.358c-0.132-0.193-0.224-0.385-0.3-0.611l-0.043-0.147C28.531,35.414,28.5,35.201,28.5,35
			V15.661c-9.73,1.238-17,9.457-17,19.339c0,1.653,0.23,3.353,0.685,5.049c0.071,0.267-0.087,0.541-0.354,0.612
			c-0.266,0.074-0.541-0.086-0.612-0.354C10.741,38.527,10.5,36.741,10.5,35c0-10.583,7.932-19.352,18.451-20.396
			c0.141-0.013,0.28,0.032,0.385,0.127c0.105,0.095,0.165,0.229,0.165,0.371V35c0,0.113,0.02,0.237,0.061,0.391
			c0.074,0.232,0.126,0.343,0.19,0.438c0.063,0.089,0.121,0.164,0.189,0.232l14.068,14.068c0.1,0.1,0.153,0.237,0.146,0.378
			c-0.007,0.141-0.074,0.272-0.183,0.362C40.323,53.855,35.716,55.5,31,55.5z"/>
	</g>
	<g>
		<path class="st0" d="M19,45c-0.276,0-0.5-0.224-0.5-0.5V43c0-0.276,0.224-0.5,0.5-0.5s0.5,0.224,0.5,0.5v1.5
			C19.5,44.776,19.276,45,19,45z"/>
	</g>
	<g>
		<path class="st0" d="M19,51.5c-0.276,0-0.5-0.224-0.5-0.5v-1.5c0-0.276,0.224-0.5,0.5-0.5s0.5,0.224,0.5,0.5V51
			C19.5,51.276,19.276,51.5,19,51.5z"/>
	</g>
	<g>
		<path class="st0" d="M19.75,50H17c-0.276,0-0.5-0.224-0.5-0.5S16.723,49,17,49h2.75c0.414,0,0.75-0.336,0.75-0.75
			s-0.336-0.75-0.75-0.75h-1.5c-0.965,0-1.75-0.785-1.75-1.75S17.285,44,18.25,44h2.25c0.276,0,0.5,0.224,0.5,0.5S20.776,45,20.5,45
			h-2.25c-0.414,0-0.75,0.336-0.75,0.75s0.336,0.75,0.75,0.75h1.5c0.965,0,1.75,0.785,1.75,1.75S20.714,50,19.75,50z"/>
	</g>
	<g>
		<path class="st0" d="M53,57.5H43c-0.276,0-0.5-0.224-0.5-0.5s0.224-0.5,0.5-0.5h10c0.276,0,0.5,0.224,0.5,0.5S53.276,57.5,53,57.5
			z"/>
	</g>
	<g>
		<path class="st0" d="M56,57.5h-1c-0.276,0-0.5-0.224-0.5-0.5s0.224-0.5,0.5-0.5h1c0.276,0,0.5,0.224,0.5,0.5S56.276,57.5,56,57.5z
			"/>
	</g>
	<g>
		<path class="st0" d="M18.5,9.5h-4C14.223,9.5,14,9.276,14,9s0.224-0.5,0.5-0.5h4C18.776,8.5,19,8.724,19,9S18.776,9.5,18.5,9.5z"
			/>
	</g>
	<g>
		<path class="st0" d="M16.5,11.5c-0.276,0-0.5-0.224-0.5-0.5V7c0-0.276,0.224-0.5,0.5-0.5S17,6.724,17,7v4
			C17,11.276,16.776,11.5,16.5,11.5z"/>
	</g>
	<g>
		<path class="st0" d="M12,15H8c-0.276,0-0.5-0.224-0.5-0.5S7.723,14,8,14h4c0.276,0,0.5,0.224,0.5,0.5S12.276,15,12,15z"/>
	</g>
	<g>
		<path class="st0" d="M10,17c-0.276,0-0.5-0.224-0.5-0.5v-4c0-0.276,0.224-0.5,0.5-0.5s0.5,0.224,0.5,0.5v4
			C10.5,16.776,10.276,17,10,17z"/>
	</g>
</g>
</svg>
