<?xml version="1.0" encoding="utf-8"?>
<!-- Generator: Adobe Illustrator 21.1.0, SVG Export Plug-In . SVG Version: 6.00 Build 0)  -->
<svg version="1.1" id="Layer_1" xmlns="http://www.w3.org/2000/svg" xmlns:xlink="http://www.w3.org/1999/xlink" x="0px" y="0px"
	 viewBox="0 0 64 64" style="enable-background:new 0 0 64 64;" xml:space="preserve">
<style type="text/css">
	.st0{fill:#263238;}
	.st1{fill:#FFD740;}
	.st2{fill:#40C4FF;}
	.st3{fill:#FF5252;}
	.st4{fill:#4DB6AC;}
	.st5{fill:#FFFFFF;}
	.st6{fill:#37474F;}
	.st7{fill:#4FC3F7;}
</style>
<g>
	<g>
		<path class="st0" d="M33.095,41.849c-0.128,0-0.256-0.049-0.354-0.146L16.955,25.916l-1.619-0.324
			c-0.098-0.02-0.187-0.066-0.256-0.137l-3.171-3.171c-0.58-0.579-0.585-1.526-0.009-2.112l2.807-2.851
			c0.283-0.287,0.661-0.446,1.064-0.448c0.001,0,0.003,0,0.005,0c0.401,0,0.777,0.156,1.061,0.439l3.16,3.16
			c0.07,0.069,0.117,0.158,0.137,0.256l0.324,1.619l15.818,15.819c0.195,0.195,0.195,0.512,0,0.707l-2.828,2.828
			C33.351,41.8,33.223,41.849,33.095,41.849z M15.68,24.641l1.619,0.324c0.098,0.02,0.187,0.066,0.256,0.137l15.54,15.54
			l2.121-2.121L19.644,22.947c-0.07-0.069-0.117-0.158-0.137-0.256l-0.324-1.619L16.13,18.02c-0.095-0.095-0.22-0.146-0.354-0.146
			c0,0-0.001,0-0.002,0c-0.134,0.001-0.261,0.054-0.354,0.149l-2.807,2.851c-0.191,0.195-0.19,0.511,0.003,0.704l0,0L15.68,24.641z"
			/>
	</g>
	<g>
		<path class="st1" d="M53.213,54.464l-4.243,4.243c-0.391,0.391-1.024,0.391-1.414,0L34.475,45.626l5.657-5.657L53.213,53.05
			C53.604,53.441,53.604,54.074,53.213,54.464z"/>
		<path class="st0" d="M48.264,59.499c-0.384,0-0.769-0.146-1.061-0.438L34.121,45.979c-0.094-0.094-0.146-0.221-0.146-0.354
			s0.053-0.26,0.146-0.354l5.657-5.657c0.195-0.195,0.512-0.195,0.707,0l13.081,13.081c0.585,0.585,0.585,1.537,0,2.122
			l-4.242,4.242C49.032,59.353,48.647,59.499,48.264,59.499z M35.182,45.626L47.91,58.354c0.195,0.195,0.512,0.195,0.707,0
			l4.242-4.242c0.195-0.195,0.195-0.513,0-0.708L40.132,40.676L35.182,45.626z"/>
	</g>
	<g>
		<path class="st1" d="M40.839,39.262l-7.071,7.071c-0.391,0.391-1.024,0.391-1.414,0l-1.414-1.414
			c-0.391-0.391-0.391-1.024,0-1.414l7.071-7.071c0.391-0.391,1.024-0.391,1.414,0l1.414,1.414
			C41.229,38.238,41.229,38.871,40.839,39.262z"/>
		<path class="st0" d="M33.061,47.125c-0.384,0-0.769-0.146-1.061-0.438l-1.414-1.414c-0.585-0.585-0.585-1.537,0-2.122l7.071-7.07
			c0.584-0.584,1.537-0.584,2.121,0l1.414,1.414c0.585,0.585,0.585,1.536,0,2.121l-7.071,7.071
			C33.829,46.979,33.444,47.125,33.061,47.125z M38.718,36.641c-0.128,0-0.256,0.049-0.354,0.146l-7.071,7.07
			c-0.195,0.195-0.195,0.513,0,0.708l1.414,1.414c0.195,0.195,0.512,0.195,0.707,0l7.071-7.071c0.195-0.195,0.195-0.512,0-0.707
			l-1.414-1.414C38.974,36.689,38.846,36.641,38.718,36.641z"/>
	</g>
	<g>
		<path class="st0" d="M45.436,31.556c-1.921,0-3.842-0.731-5.304-2.193c-2.924-2.924-2.924-7.683,0-10.606
			c2.018-2.018,4.959-2.71,7.676-1.806c0.164,0.055,0.288,0.191,0.328,0.359c0.04,0.169-0.01,0.346-0.133,0.469l-4.07,4.071
			l3.712,3.712l4.071-4.071c0.122-0.122,0.3-0.175,0.469-0.133c0.168,0.04,0.305,0.164,0.359,0.328
			c0.904,2.718,0.212,5.659-1.806,7.677C49.276,30.824,47.355,31.556,45.436,31.556z M45.414,17.561
			c-1.691,0-3.335,0.662-4.575,1.902c-1.228,1.228-1.903,2.86-1.903,4.597c0,1.735,0.676,3.368,1.903,4.596s2.86,1.903,4.596,1.903
			c1.736,0,3.369-0.676,4.597-1.903c1.55-1.55,2.196-3.729,1.777-5.844l-3.811,3.811c-0.195,0.195-0.512,0.195-0.707,0l-4.419-4.419
			c-0.195-0.195-0.195-0.512,0-0.707l3.811-3.811C46.26,17.602,45.836,17.561,45.414,17.561z"/>
	</g>
	<g>
		<path class="st0" d="M40.132,34.812c-0.128,0-0.256-0.049-0.354-0.146c-0.195-0.195-0.195-0.512,0-0.707l2.921-2.921
			c-0.961-0.375-1.838-0.945-2.567-1.675c-0.729-0.73-1.3-1.606-1.676-2.567l-5.715,5.716c-0.195,0.195-0.512,0.195-0.707,0
			s-0.195-0.512,0-0.707l6.29-6.291c0.126-0.126,0.309-0.178,0.483-0.129c0.173,0.046,0.308,0.181,0.354,0.354
			c0.294,1.104,0.874,2.114,1.678,2.918s1.812,1.383,2.917,1.677c0.173,0.046,0.309,0.181,0.354,0.354
			c0.047,0.173-0.002,0.357-0.129,0.483l-3.496,3.496C40.388,34.763,40.26,34.812,40.132,34.812z"/>
	</g>
	<g>
		<path class="st0" d="M63.5,38.684h-2c-0.276,0-0.5-0.224-0.5-0.5s0.224-0.5,0.5-0.5h2c0.276,0,0.5,0.224,0.5,0.5
			S63.776,38.684,63.5,38.684z"/>
	</g>
	<g>
		<path class="st0" d="M59.5,38.684h-10c-0.276,0-0.5-0.224-0.5-0.5s0.224-0.5,0.5-0.5h10c0.276,0,0.5,0.224,0.5,0.5
			S59.776,38.684,59.5,38.684z"/>
	</g>
	<g>
		<path class="st0" d="M2.5,38.684h-2c-0.276,0-0.5-0.224-0.5-0.5s0.224-0.5,0.5-0.5h2c0.276,0,0.5,0.224,0.5,0.5
			S2.776,38.684,2.5,38.684z"/>
	</g>
	<g>
		<path class="st0" d="M14.5,38.684h-10c-0.276,0-0.5-0.224-0.5-0.5s0.224-0.5,0.5-0.5h10c0.276,0,0.5,0.224,0.5,0.5
			S14.776,38.684,14.5,38.684z"/>
	</g>
	<g>
		<path class="st0" d="M53.045,7.5h-4c-0.276,0-0.5-0.224-0.5-0.5s0.224-0.5,0.5-0.5h4c0.276,0,0.5,0.224,0.5,0.5
			S53.321,7.5,53.045,7.5z"/>
	</g>
	<g>
		<path class="st0" d="M51.045,9.5c-0.276,0-0.5-0.224-0.5-0.5V5c0-0.276,0.224-0.5,0.5-0.5s0.5,0.224,0.5,0.5v4
			C51.545,9.276,51.321,9.5,51.045,9.5z"/>
	</g>
	<g>
		<path class="st0" d="M60.045,14h-4c-0.276,0-0.5-0.224-0.5-0.5s0.224-0.5,0.5-0.5h4c0.276,0,0.5,0.224,0.5,0.5
			S60.321,14,60.045,14z"/>
	</g>
	<g>
		<path class="st0" d="M58.045,16c-0.276,0-0.5-0.224-0.5-0.5v-4c0-0.276,0.224-0.5,0.5-0.5s0.5,0.224,0.5,0.5v4
			C58.545,15.776,58.321,16,58.045,16z"/>
	</g>
	<g>
		<path class="st0" d="M16.797,59.193c-1.664,0-3.329-0.634-4.596-1.9c-1.228-1.228-1.904-2.859-1.904-4.596
			c0-1.737,0.677-3.369,1.904-4.597c1.41-1.409,3.404-2.084,5.386-1.851l8.791-8.79c0.195-0.195,0.512-0.195,0.707,0
			s0.195,0.512,0,0.707l-8.968,8.967c-0.113,0.114-0.275,0.169-0.434,0.14c-1.744-0.286-3.531,0.29-4.775,1.534
			c-1.039,1.039-1.611,2.42-1.611,3.89c0,1.469,0.572,2.85,1.611,3.889c2.146,2.146,5.635,2.144,7.778,0
			c1.243-1.244,1.816-3.029,1.533-4.775c-0.026-0.158,0.026-0.32,0.14-0.434l6.105-6.104c0.195-0.195,0.512-0.195,0.707,0
			s0.195,0.512,0,0.707l-5.929,5.928c0.24,1.979-0.44,3.976-1.85,5.386C20.126,58.56,18.462,59.193,16.797,59.193z"/>
	</g>
	<g>
		<path class="st0" d="M16.805,55.698c-0.771,0-1.542-0.293-2.129-0.88c-1.174-1.175-1.174-3.085,0-4.259s3.083-1.174,4.259,0l0,0
			c1.174,1.174,1.174,3.084,0,4.259C18.348,55.405,17.576,55.698,16.805,55.698z M16.805,50.679c-0.515,0-1.03,0.196-1.422,0.588
			c-0.784,0.784-0.784,2.061,0,2.845c0.785,0.785,2.062,0.783,2.845,0c0.784-0.784,0.784-2.061,0-2.845
			C17.835,50.875,17.32,50.679,16.805,50.679z"/>
	</g>
	<g>
		<path class="st0" d="M45.435,28.095c-0.128,0-0.256-0.049-0.354-0.146l-3.535-3.536c-0.195-0.195-0.195-0.512,0-0.707
			s0.512-0.195,0.707,0l3.535,3.536c0.195,0.195,0.195,0.512,0,0.707C45.69,28.046,45.562,28.095,45.435,28.095z"/>
	</g>
	<g>
		<path class="st0" d="M49.854,55.849c-0.128,0-0.256-0.049-0.354-0.146L38.188,44.388c-0.195-0.195-0.195-0.512,0-0.707
			s0.512-0.195,0.707,0l11.313,11.314c0.195,0.195,0.195,0.512,0,0.707C50.11,55.8,49.982,55.849,49.854,55.849z"/>
	</g>
</g>
</svg>
