<?xml version="1.0" encoding="utf-8"?>
<!-- Generator: Adobe Illustrator 21.1.0, SVG Export Plug-In . SVG Version: 6.00 Build 0)  -->
<svg version="1.1" id="Layer_1" xmlns="http://www.w3.org/2000/svg" xmlns:xlink="http://www.w3.org/1999/xlink" x="0px" y="0px"
	 viewBox="0 0 64 64" style="enable-background:new 0 0 64 64;" xml:space="preserve">
<style type="text/css">
	.st0{fill:#263238;}
	.st1{fill:#FFD740;}
	.st2{fill:#40C4FF;}
	.st3{fill:#FF5252;}
	.st4{fill:#4DB6AC;}
	.st5{fill:#FFFFFF;}
	.st6{fill:#37474F;}
	.st7{fill:#4FC3F7;}
</style>
<g>
	<g>
		<path class="st2" d="M30,26.5H18v12h8v-3c0-1.381,1.119-2.5,2.5-2.5H30V26.5z"/>
	</g>
	<g>
		<path class="st0" d="M60.5,9.5h-4C56.224,9.5,56,9.276,56,9s0.224-0.5,0.5-0.5h4C60.776,8.5,61,8.724,61,9S60.776,9.5,60.5,9.5z"
			/>
	</g>
	<g>
		<path class="st0" d="M58.5,11.5c-0.276,0-0.5-0.224-0.5-0.5V7c0-0.276,0.224-0.5,0.5-0.5S59,6.724,59,7v4
			C59,11.276,58.776,11.5,58.5,11.5z"/>
	</g>
	<g>
		<path class="st0" d="M53.5,16h-4c-0.276,0-0.5-0.224-0.5-0.5s0.224-0.5,0.5-0.5h4c0.276,0,0.5,0.224,0.5,0.5S53.776,16,53.5,16z"
			/>
	</g>
	<g>
		<path class="st0" d="M51.5,18c-0.276,0-0.5-0.224-0.5-0.5v-4c0-0.276,0.224-0.5,0.5-0.5s0.5,0.224,0.5,0.5v4
			C52,17.776,51.776,18,51.5,18z"/>
	</g>
	<g>
		<path class="st0" d="M9,61H8c-0.276,0-0.5-0.224-0.5-0.5S7.724,60,8,60h1c0.276,0,0.5,0.224,0.5,0.5S9.276,61,9,61z"/>
	</g>
	<g>
		<path class="st0" d="M24.5,61H11c-0.276,0-0.5-0.224-0.5-0.5S10.724,60,11,60h13.5c0.276,0,0.5,0.224,0.5,0.5S24.776,61,24.5,61z"
			/>
	</g>
	<g>
		<path class="st1" d="M29.5,2h-11c-2.206,0-4,1.794-4,4v6.5h3V6c0-0.551,0.449-1,1-1h11c0.552,0,1,0.449,1,1v6.5h3V6
			C33.5,3.795,31.706,2,29.5,2z"/>
	</g>
	<g>
		<path class="st0" d="M33.5,13c-0.276,0-0.5-0.224-0.5-0.5V6c0-1.93-1.57-3.5-3.5-3.5h-11C16.57,2.5,15,4.07,15,6v6.5
			c0,0.276-0.224,0.5-0.5,0.5S14,12.776,14,12.5V6c0-2.481,2.019-4.5,4.5-4.5h11C31.981,1.5,34,3.519,34,6v6.5
			C34,12.776,33.776,13,33.5,13z"/>
	</g>
	<g>
		<path class="st0" d="M30.5,13c-0.276,0-0.5-0.224-0.5-0.5V6c0-0.276-0.224-0.5-0.5-0.5h-11C18.224,5.5,18,5.724,18,6v6.5
			c0,0.276-0.224,0.5-0.5,0.5S17,12.776,17,12.5V6c0-0.827,0.673-1.5,1.5-1.5h11C30.327,4.5,31,5.173,31,6v6.5
			C31,12.776,30.776,13,30.5,13z"/>
	</g>
	<g>
		<rect x="41.5" y="35" class="st3" width="5" height="27"/>
		<path class="st0" d="M46.5,62.5h-5c-0.276,0-0.5-0.224-0.5-0.5V35c0-0.276,0.224-0.5,0.5-0.5h5c0.276,0,0.5,0.224,0.5,0.5v27
			C47,62.276,46.776,62.5,46.5,62.5z M42,61.5h4v-26h-4V61.5z"/>
	</g>
	<g>
		<path class="st0" d="M39.5,62.5H30c-0.827,0-1.5-0.673-1.5-1.5V43c0-0.276,0.224-0.5,0.5-0.5s0.5,0.224,0.5,0.5v18
			c0,0.276,0.224,0.5,0.5,0.5h9.5c0.276,0,0.5,0.224,0.5,0.5S39.776,62.5,39.5,62.5z"/>
	</g>
	<g>
		<path class="st0" d="M58,62.5h-9.5c-0.276,0-0.5-0.224-0.5-0.5s0.224-0.5,0.5-0.5H58c0.276,0,0.5-0.224,0.5-0.5V43
			c0-0.276,0.224-0.5,0.5-0.5s0.5,0.224,0.5,0.5v18C59.5,61.827,58.827,62.5,58,62.5z"/>
	</g>
	<g>
		<path class="st0" d="M39.5,43.5H29c-0.827,0-1.5-0.673-1.5-1.5v-6c0-0.827,0.673-1.5,1.5-1.5h10.5c0.276,0,0.5,0.224,0.5,0.5
			s-0.224,0.5-0.5,0.5H29c-0.276,0-0.5,0.224-0.5,0.5v6c0,0.276,0.224,0.5,0.5,0.5h10.5c0.276,0,0.5,0.224,0.5,0.5
			S39.776,43.5,39.5,43.5z"/>
	</g>
	<g>
		<path class="st0" d="M59,43.5H48.5c-0.276,0-0.5-0.224-0.5-0.5s0.224-0.5,0.5-0.5H59c0.276,0,0.5-0.224,0.5-0.5v-6
			c0-0.276-0.224-0.5-0.5-0.5H48.5c-0.276,0-0.5-0.224-0.5-0.5s0.224-0.5,0.5-0.5H59c0.827,0,1.5,0.673,1.5,1.5v6
			C60.5,42.827,59.827,43.5,59,43.5z"/>
	</g>
	<g>
		<polyline class="st3" points="44,33 37.5,25 32.5,29.5 39,33 		"/>
		<path class="st0" d="M39,33.5c-0.08,0-0.161-0.019-0.236-0.06l-6.5-3.5c-0.144-0.077-0.24-0.219-0.26-0.381
			c-0.019-0.162,0.041-0.322,0.162-0.431l5-4.5c0.102-0.092,0.23-0.141,0.374-0.127c0.136,0.011,0.263,0.077,0.349,0.183l6.5,8
			c0.174,0.214,0.142,0.529-0.073,0.704c-0.214,0.175-0.529,0.142-0.704-0.073l-6.168-7.592l-4.081,3.673l5.875,3.163
			c0.243,0.131,0.334,0.435,0.204,0.677C39.35,33.405,39.178,33.5,39,33.5z"/>
	</g>
	<g>
		<polyline class="st3" points="44,33 50.5,25 55,29.5 49,33 		"/>
		<path class="st0" d="M49,33.5c-0.172,0-0.339-0.089-0.433-0.248c-0.139-0.239-0.058-0.545,0.18-0.684l5.44-3.173l-3.649-3.649
			l-6.15,7.57c-0.174,0.214-0.488,0.248-0.704,0.073c-0.214-0.174-0.247-0.489-0.073-0.704l6.5-8
			c0.089-0.11,0.221-0.177,0.362-0.184c0.139-0.003,0.279,0.046,0.379,0.146l4.5,4.5c0.11,0.109,0.162,0.264,0.143,0.417
			c-0.02,0.154-0.11,0.29-0.244,0.368l-6,3.5C49.173,33.478,49.086,33.5,49,33.5z"/>
	</g>
	<g>
		<path class="st0" d="M27,57H6.153c-0.835,0-1.61-0.335-2.184-0.943c-0.573-0.607-0.861-1.401-0.811-2.235l2.202-37
			C5.455,15.24,6.771,14,8.355,14h31.289c1.585,0,2.9,1.24,2.995,2.822l0.687,11.533c0.017,0.276-0.194,0.513-0.469,0.529
			c-0.278,0.015-0.513-0.193-0.529-0.469l-0.687-11.533C41.578,15.826,40.701,15,39.645,15H8.355c-1.057,0-1.934,0.826-1.997,1.881
			l-2.202,37c-0.033,0.556,0.159,1.085,0.541,1.49S5.597,56,6.153,56H27c0.276,0,0.5,0.224,0.5,0.5S27.276,57,27,57z"/>
	</g>
	<g>
		<path class="st0" d="M26,39h-7c-0.827,0-1.5-0.673-1.5-1.5v-10c0-0.827,0.673-1.5,1.5-1.5h10c0.827,0,1.5,0.673,1.5,1.5V33
			c0,0.276-0.224,0.5-0.5,0.5s-0.5-0.224-0.5-0.5v-5.5c0-0.276-0.224-0.5-0.5-0.5H19c-0.276,0-0.5,0.224-0.5,0.5v10
			c0,0.276,0.224,0.5,0.5,0.5h7c0.276,0,0.5,0.224,0.5,0.5S26.276,39,26,39z"/>
	</g>
	<g>
		<path class="st0" d="M27,47h-9c-0.276,0-0.5-0.224-0.5-0.5v-3c0-0.276,0.224-0.5,0.5-0.5h8c0.276,0,0.5,0.224,0.5,0.5
			S26.276,44,26,44h-7.5v2H27c0.276,0,0.5,0.224,0.5,0.5S27.276,47,27,47z"/>
	</g>
</g>
</svg>
