<?xml version="1.0" encoding="utf-8"?>
<!-- Generator: Adobe Illustrator 21.1.0, SVG Export Plug-In . SVG Version: 6.00 Build 0)  -->
<svg version="1.1" id="Layer_1" xmlns="http://www.w3.org/2000/svg" xmlns:xlink="http://www.w3.org/1999/xlink" x="0px" y="0px"
	 viewBox="0 0 64 64" style="enable-background:new 0 0 64 64;" xml:space="preserve">
<style type="text/css">
	.st0{fill:#263238;}
	.st1{fill:#FFD740;}
	.st2{fill:#40C4FF;}
	.st3{fill:#FF5252;}
	.st4{fill:#4DB6AC;}
	.st5{fill:#FFFFFF;}
	.st6{fill:#37474F;}
	.st7{fill:#4FC3F7;}
</style>
<g>
	<g>
		<path class="st0" d="M18,53.269c-6.341,0-11.5-5.159-11.5-11.5s5.159-11.5,11.5-11.5s11.5,5.159,11.5,11.5
			S24.341,53.269,18,53.269z M18,31.269c-5.79,0-10.5,4.71-10.5,10.5s4.71,10.5,10.5,10.5s10.5-4.71,10.5-10.5
			S23.789,31.269,18,31.269z"/>
	</g>
	<g>
		<circle class="st2" cx="18" cy="41.769" r="8"/>
		<path class="st0" d="M18,50.269c-4.687,0-8.5-3.813-8.5-8.5s3.813-8.5,8.5-8.5s8.5,3.813,8.5,8.5S22.687,50.269,18,50.269z
			 M18,34.269c-4.136,0-7.5,3.364-7.5,7.5s3.364,7.5,7.5,7.5s7.5-3.364,7.5-7.5S22.135,34.269,18,34.269z"/>
	</g>
	<g>
		<path class="st0" d="M28.986,41.996c-0.271,0-0.493-0.216-0.5-0.488c-0.141-5.742-4.747-10.24-10.486-10.24
			c-3.387,0-6.572,1.663-8.533,4.398l-0.454,0.689c-0.031,0.051-0.062,0.103-0.092,0.155c-0.138,0.238-0.443,0.32-0.682,0.182
			C8,36.556,7.917,36.251,8.054,36.012c0.005-0.009,0.048-0.092,0.054-0.101l0.058-0.089c0.15-0.247,0.309-0.487,0.475-0.721
			l9.208-13.978c1.178-1.788,3.16-2.855,5.3-2.855c1.696,0,3.29,0.661,4.489,1.86c1.199,1.2,1.858,2.794,1.857,4.491l-0.01,16.877
			c0,0.273-0.22,0.496-0.494,0.5C28.99,41.996,28.988,41.996,28.986,41.996z M18,30.269c4.696,0,8.7,2.749,10.489,6.762
			l0.007-12.412c0.001-1.429-0.555-2.772-1.565-3.783c-1.01-1.011-2.353-1.567-3.782-1.567c-1.804,0-3.473,0.899-4.465,2.405
			l-6.853,10.403C13.65,30.917,15.785,30.269,18,30.269z"/>
	</g>
	<g>
		<path class="st0" d="M28.497,22.756c-0.195,0-0.376-0.114-0.458-0.298c-0.856-1.938-2.775-3.19-4.89-3.19
			c-1.052,0-2.077,0.313-2.965,0.907c-0.19,0.129-0.446,0.109-0.617-0.048c-0.17-0.156-0.21-0.409-0.098-0.611l0.92-1.656
			c0.81-1.456,2.348-2.361,4.014-2.361c2.532,0,4.593,2.061,4.593,4.593v2.164c0,0.236-0.166,0.44-0.397,0.489
			C28.565,22.753,28.531,22.756,28.497,22.756z M23.149,18.269c1.896,0,3.66,0.848,4.847,2.254v-0.43
			c0-1.981-1.612-3.593-3.593-3.593c-1.304,0-2.507,0.708-3.14,1.847l-0.144,0.258C21.771,18.383,22.455,18.269,23.149,18.269z"/>
	</g>
	<g>
		<path class="st0" d="M46,53.269c-6.341,0-11.5-5.159-11.5-11.5s5.159-11.5,11.5-11.5s11.5,5.159,11.5,11.5
			S52.341,53.269,46,53.269z M46,31.269c-5.79,0-10.5,4.71-10.5,10.5s4.71,10.5,10.5,10.5s10.5-4.71,10.5-10.5
			S51.79,31.269,46,31.269z"/>
	</g>
	<g>
		<circle class="st2" cx="46" cy="41.769" r="8"/>
		<path class="st0" d="M46,50.269c-4.687,0-8.5-3.813-8.5-8.5s3.813-8.5,8.5-8.5s8.5,3.813,8.5,8.5S50.687,50.269,46,50.269z
			 M46,34.269c-4.136,0-7.5,3.364-7.5,7.5s3.364,7.5,7.5,7.5s7.5-3.364,7.5-7.5S50.136,34.269,46,34.269z"/>
	</g>
	<g>
		<path class="st0" d="M35.014,41.996c-0.002,0-0.004,0-0.006,0c-0.273-0.003-0.494-0.226-0.494-0.5L34.503,24.62
			c-0.001-1.696,0.658-3.291,1.857-4.491s2.793-1.86,4.489-1.86c2.141,0,4.122,1.067,5.301,2.855l9.212,13.984
			c0.163,0.229,0.317,0.464,0.465,0.706l0.064,0.098c0.013,0.02,0.044,0.079,0.054,0.101c0.113,0.243,0.024,0.549-0.213,0.673
			c-0.237,0.125-0.521,0.056-0.654-0.174c0-0.001-0.001-0.002-0.002-0.003l-0.643-0.978c-1.968-2.655-5.103-4.262-8.434-4.262
			c-5.74,0-10.346,4.498-10.486,10.24C35.507,41.78,35.285,41.996,35.014,41.996z M40.85,19.269c-1.429,0-2.771,0.557-3.782,1.567
			c-1.01,1.011-1.565,2.354-1.564,3.783l0.008,12.411C37.3,33.017,41.304,30.269,46,30.269c2.209,0,4.34,0.646,6.155,1.8
			l-6.841-10.395C44.322,20.168,42.653,19.269,40.85,19.269z"/>
	</g>
	<g>
		<path class="st0" d="M35.503,22.756c-0.034,0-0.068-0.003-0.104-0.011c-0.231-0.049-0.396-0.253-0.396-0.489v-2.164
			c0-2.532,2.061-4.593,4.593-4.593c1.666,0,3.204,0.905,4.014,2.361l0.921,1.656c0.111,0.202,0.071,0.454-0.099,0.61
			c-0.17,0.157-0.426,0.176-0.616,0.048c-0.889-0.593-1.914-0.907-2.966-0.907c-2.114,0-4.033,1.252-4.89,3.19
			C35.879,22.642,35.697,22.756,35.503,22.756z M39.596,16.5c-1.981,0-3.593,1.612-3.593,3.593v0.43
			c1.188-1.406,2.951-2.254,4.847-2.254c0.694,0,1.379,0.115,2.03,0.337l-0.145-0.259C42.102,17.208,40.898,16.5,39.596,16.5z"/>
	</g>
	<g>
		<path class="st0" d="M35,38.78h-6c-0.276,0-0.5-0.224-0.5-0.5v-13c0-0.276,0.224-0.5,0.5-0.5h6c0.276,0,0.5,0.224,0.5,0.5v13
			C35.5,38.556,35.276,38.78,35,38.78z M29.5,37.78h5v-12h-5V37.78z"/>
	</g>
	<g>
		<path class="st0" d="M52.5,9.5h-4C48.224,9.5,48,9.276,48,9s0.224-0.5,0.5-0.5h4C52.776,8.5,53,8.724,53,9S52.776,9.5,52.5,9.5z"
			/>
	</g>
	<g>
		<path class="st0" d="M50.5,11.5c-0.276,0-0.5-0.224-0.5-0.5V7c0-0.276,0.224-0.5,0.5-0.5S51,6.724,51,7v4
			C51,11.276,50.776,11.5,50.5,11.5z"/>
	</g>
	<g>
		<path class="st0" d="M57,16h-4c-0.276,0-0.5-0.224-0.5-0.5S52.724,15,53,15h4c0.276,0,0.5,0.224,0.5,0.5S57.276,16,57,16z"/>
	</g>
	<g>
		<path class="st0" d="M55,18c-0.276,0-0.5-0.224-0.5-0.5v-4c0-0.276,0.224-0.5,0.5-0.5s0.5,0.224,0.5,0.5v4
			C55.5,17.776,55.276,18,55,18z"/>
	</g>
	<g>
		<path class="st0" d="M12,57.5h-1c-0.276,0-0.5-0.224-0.5-0.5s0.224-0.5,0.5-0.5h1c0.276,0,0.5,0.224,0.5,0.5S12.276,57.5,12,57.5z
			"/>
	</g>
	<g>
		<path class="st0" d="M25,57.5H14c-0.276,0-0.5-0.224-0.5-0.5s0.224-0.5,0.5-0.5h11c0.276,0,0.5,0.224,0.5,0.5S25.276,57.5,25,57.5
			z"/>
	</g>
	<g>
		<path class="st0" d="M53,57.269h-1c-0.276,0-0.5-0.224-0.5-0.5s0.224-0.5,0.5-0.5h1c0.276,0,0.5,0.224,0.5,0.5
			S53.276,57.269,53,57.269z"/>
	</g>
	<g>
		<path class="st0" d="M50,57.269H39c-0.276,0-0.5-0.224-0.5-0.5s0.224-0.5,0.5-0.5h11c0.276,0,0.5,0.224,0.5,0.5
			S50.276,57.269,50,57.269z"/>
	</g>
	<g>
		<path class="st1" d="M26,41.769c0-1.076-0.216-2.1-0.601-3.037L18.5,44.769l-3.5-4l-4.474,3.835
			c1.145,3.017,4.055,5.165,7.474,5.165C22.418,49.769,26,46.187,26,41.769z"/>
		<path class="st0" d="M18,50.269c-3.503,0-6.695-2.206-7.941-5.488c-0.075-0.197-0.018-0.42,0.142-0.557l4.474-3.834
			c0.207-0.179,0.52-0.157,0.702,0.05l3.17,3.624l6.523-5.708c0.121-0.106,0.287-0.146,0.443-0.11
			c0.157,0.037,0.287,0.147,0.348,0.297c0.423,1.03,0.638,2.116,0.638,3.227C26.5,46.456,22.687,50.269,18,50.269z M11.125,44.749
			c1.181,2.717,3.9,4.52,6.875,4.52c4.136,0,7.5-3.364,7.5-7.5c0-0.743-0.109-1.472-0.324-2.177l-6.347,5.554
			c-0.1,0.087-0.233,0.13-0.362,0.123c-0.132-0.009-0.256-0.07-0.343-0.17l-3.174-3.627L11.125,44.749z"/>
	</g>
	<g>
		<path class="st1" d="M54,41.769c0-1.076-0.216-2.1-0.601-3.037L46.5,44.769l-3.5-4l-4.474,3.835
			c1.145,3.017,4.055,5.165,7.474,5.165C50.418,49.769,54,46.187,54,41.769z"/>
		<path class="st0" d="M46,50.269c-3.505,0-6.696-2.206-7.941-5.488c-0.074-0.197-0.018-0.42,0.143-0.557l4.474-3.834
			c0.207-0.179,0.521-0.157,0.701,0.05l3.171,3.624l6.523-5.708c0.121-0.106,0.286-0.146,0.443-0.11
			c0.157,0.037,0.287,0.147,0.349,0.297c0.423,1.031,0.638,2.117,0.638,3.227C54.5,46.456,50.687,50.269,46,50.269z M39.125,44.749
			c1.18,2.717,3.899,4.52,6.875,4.52c4.136,0,7.5-3.364,7.5-7.5c0-0.742-0.108-1.472-0.324-2.177l-6.347,5.554
			c-0.099,0.086-0.234,0.128-0.362,0.123c-0.133-0.009-0.256-0.07-0.343-0.17l-3.175-3.627L39.125,44.749z"/>
	</g>
</g>
</svg>
