<?xml version="1.0" encoding="utf-8"?>
<!-- Generator: Adobe Illustrator 21.1.0, SVG Export Plug-In . SVG Version: 6.00 Build 0)  -->
<svg version="1.1" id="Layer_1" xmlns="http://www.w3.org/2000/svg" xmlns:xlink="http://www.w3.org/1999/xlink" x="0px" y="0px"
	 viewBox="0 0 64 64" style="enable-background:new 0 0 64 64;" xml:space="preserve">
<style type="text/css">
	.st0{fill:#263238;}
	.st1{fill:#FFD740;}
	.st2{fill:#40C4FF;}
	.st3{fill:#FF5252;}
	.st4{fill:#4DB6AC;}
	.st5{fill:#FFFFFF;}
	.st6{fill:#37474F;}
	.st7{fill:#4FC3F7;}
</style>
<g>
	<g>
		<rect x="16.001" y="17" class="st1" width="32" height="11.472"/>
	</g>
	<g>
		<path class="st0" d="M43,63.5H21c-3.033,0-5.5-2.468-5.5-5.5V13c0-3.032,2.467-5.5,5.5-5.5h22c3.033,0,5.5,2.468,5.5,5.5v45
			C48.5,61.032,46.033,63.5,43,63.5z M21,8.5c-2.481,0-4.5,2.019-4.5,4.5v45c0,2.481,2.019,4.5,4.5,4.5h22
			c2.481,0,4.5-2.019,4.5-4.5V13c0-2.481-2.019-4.5-4.5-4.5H21z"/>
	</g>
	<g>
		<path class="st0" d="M20.501,3.5h-4c-0.276,0-0.5-0.224-0.5-0.5s0.224-0.5,0.5-0.5h4c0.276,0,0.5,0.224,0.5,0.5
			S20.777,3.5,20.501,3.5z"/>
	</g>
	<g>
		<path class="st0" d="M18.501,5.5c-0.276,0-0.5-0.224-0.5-0.5V1c0-0.276,0.224-0.5,0.5-0.5s0.5,0.224,0.5,0.5v4
			C19.001,5.276,18.777,5.5,18.501,5.5z"/>
	</g>
	<g>
		<path class="st0" d="M15.001,8h-4c-0.276,0-0.5-0.224-0.5-0.5s0.224-0.5,0.5-0.5h4c0.276,0,0.5,0.224,0.5,0.5S15.277,8,15.001,8z"
			/>
	</g>
	<g>
		<path class="st0" d="M13.001,10c-0.276,0-0.5-0.224-0.5-0.5v-4c0-0.276,0.224-0.5,0.5-0.5s0.5,0.224,0.5,0.5v4
			C13.501,9.776,13.277,10,13.001,10z"/>
	</g>
	<g>
		<rect x="20.001" y="33" class="st2" width="6" height="6"/>
		<path class="st0" d="M26.001,39.5h-6c-0.276,0-0.5-0.224-0.5-0.5v-6c0-0.276,0.224-0.5,0.5-0.5h6c0.276,0,0.5,0.224,0.5,0.5v6
			C26.501,39.276,26.278,39.5,26.001,39.5z M20.501,38.5h5v-5h-5V38.5z"/>
	</g>
	<g>
		<path class="st0" d="M35.001,39.5h-6c-0.276,0-0.5-0.224-0.5-0.5v-6c0-0.276,0.224-0.5,0.5-0.5h6c0.276,0,0.5,0.224,0.5,0.5v6
			C35.501,39.276,35.278,39.5,35.001,39.5z M29.501,38.5h5v-5h-5V38.5z"/>
	</g>
	<g>
		<rect x="38.001" y="33" class="st1" width="6" height="6"/>
		<path class="st0" d="M44.001,39.5h-6c-0.276,0-0.5-0.224-0.5-0.5v-6c0-0.276,0.224-0.5,0.5-0.5h6c0.276,0,0.5,0.224,0.5,0.5v6
			C44.501,39.276,44.278,39.5,44.001,39.5z M38.501,38.5h5v-5h-5V38.5z"/>
	</g>
	<g>
		<path class="st0" d="M26.001,48h-6c-0.276,0-0.5-0.224-0.5-0.5v-6c0-0.276,0.224-0.5,0.5-0.5h6c0.276,0,0.5,0.224,0.5,0.5v6
			C26.501,47.776,26.278,48,26.001,48z M20.501,47h5v-5h-5V47z"/>
	</g>
	<g>
		<rect x="29.001" y="41.5" class="st3" width="6" height="6"/>
		<path class="st0" d="M35.001,48h-6c-0.276,0-0.5-0.224-0.5-0.5v-6c0-0.276,0.224-0.5,0.5-0.5h6c0.276,0,0.5,0.224,0.5,0.5v6
			C35.501,47.776,35.278,48,35.001,48z M29.501,47h5v-5h-5V47z"/>
	</g>
	<g>
		<path class="st0" d="M44.001,48h-6c-0.276,0-0.5-0.224-0.5-0.5v-6c0-0.276,0.224-0.5,0.5-0.5h6c0.276,0,0.5,0.224,0.5,0.5v6
			C44.501,47.776,44.278,48,44.001,48z M38.501,47h5v-5h-5V47z"/>
	</g>
	<g>
		<path class="st0" d="M48,13.5H16c-0.276,0-0.5-0.224-0.5-0.5s0.224-0.5,0.5-0.5h32c0.276,0,0.5,0.224,0.5,0.5S48.277,13.5,48,13.5
			z"/>
	</g>
	<g>
		<path class="st0" d="M48,58.5H16c-0.276,0-0.5-0.224-0.5-0.5s0.224-0.5,0.5-0.5h32c0.276,0,0.5,0.224,0.5,0.5S48.277,58.5,48,58.5
			z"/>
	</g>
	<g>
		<path class="st0" d="M32.001,63.5c-1.654,0-3-1.346-3-3s1.346-3,3-3c1.654,0,3,1.346,3,3S33.655,63.5,32.001,63.5z M32.001,58.5
			c-1.103,0-2,0.897-2,2s0.897,2,2,2c1.103,0,2-0.897,2-2S33.104,58.5,32.001,58.5z"/>
	</g>
	<g>
		<path class="st0" d="M34.501,11h-5c-0.276,0-0.5-0.224-0.5-0.5s0.224-0.5,0.5-0.5h5c0.276,0,0.5,0.224,0.5,0.5
			S34.777,11,34.501,11z"/>
	</g>
	<g>
		<path class="st0" d="M11.001,32.5c-0.276,0-0.5-0.224-0.5-0.5V18c0-0.276,0.224-0.5,0.5-0.5s0.5,0.224,0.5,0.5v14
			C11.501,32.276,11.277,32.5,11.001,32.5z"/>
	</g>
	<g>
		<path class="st0" d="M11.001,36.5c-0.276,0-0.5-0.224-0.5-0.5v-2c0-0.276,0.224-0.5,0.5-0.5s0.5,0.224,0.5,0.5v2
			C11.501,36.276,11.277,36.5,11.001,36.5z"/>
	</g>
	<g>
		<path class="st0" d="M53,53.5c-0.276,0-0.5-0.224-0.5-0.5V39c0-0.276,0.224-0.5,0.5-0.5s0.5,0.224,0.5,0.5v14
			C53.5,53.276,53.277,53.5,53,53.5z"/>
	</g>
	<g>
		<path class="st0" d="M53,37.5c-0.276,0-0.5-0.224-0.5-0.5v-2c0-0.276,0.224-0.5,0.5-0.5s0.5,0.224,0.5,0.5v2
			C53.5,37.276,53.277,37.5,53,37.5z"/>
	</g>
	<g>
		<rect x="16.001" y="13" class="st4" width="32" height="4"/>
		<path class="st0" d="M48,17.5h-32c-0.276,0-0.5-0.224-0.5-0.5v-4c0-0.276,0.224-0.5,0.5-0.5h32c0.276,0,0.5,0.224,0.5,0.5v4
			C48.5,17.276,48.277,17.5,48,17.5z M16.501,16.5h31v-3h-31V16.5z"/>
	</g>
</g>
</svg>
