<?xml version="1.0" encoding="utf-8"?>
<!-- Generator: Adobe Illustrator 21.1.0, SVG Export Plug-In . SVG Version: 6.00 Build 0)  -->
<svg version="1.1" id="Layer_1" xmlns="http://www.w3.org/2000/svg" xmlns:xlink="http://www.w3.org/1999/xlink" x="0px" y="0px"
	 viewBox="0 0 64 64" style="enable-background:new 0 0 64 64;" xml:space="preserve">
<style type="text/css">
	.st0{fill:#263238;}
	.st1{fill:#FFD740;}
	.st2{fill:#40C4FF;}
	.st3{fill:#FF5252;}
	.st4{fill:#4DB6AC;}
	.st5{fill:#FFFFFF;}
	.st6{fill:#37474F;}
	.st7{fill:#4FC3F7;}
</style>
<g>
	<g>
		<path class="st3" d="M37.515,55.485c-3.338-3.338-4.285-8.151-2.868-12.339L31.668,38h-14.5L8.34,53.247
			C7.375,54.914,8.578,57,10.504,57h27.828c0.297,0,0.568-0.063,0.826-0.153C38.582,56.445,38.028,55.998,37.515,55.485z"/>
	</g>
	<g>
		<path class="st0" d="M31.668,19.5h-14.5c-0.827,0-1.5-0.673-1.5-1.5v-1c0-0.827,0.673-1.5,1.5-1.5h14.5c0.827,0,1.5,0.673,1.5,1.5
			v1C33.168,18.827,32.495,19.5,31.668,19.5z M17.168,16.5c-0.275,0-0.5,0.224-0.5,0.5v1c0,0.276,0.225,0.5,0.5,0.5h14.5
			c0.275,0,0.5-0.224,0.5-0.5v-1c0-0.276-0.225-0.5-0.5-0.5H17.168z"/>
	</g>
	<g>
		<path class="st0" d="M19.668,38.5h-2.5c-0.276,0-0.5-0.224-0.5-0.5s0.224-0.5,0.5-0.5h2.5c0.276,0,0.5,0.224,0.5,0.5
			S19.944,38.5,19.668,38.5z"/>
	</g>
	<g>
		<path class="st0" d="M19.668,33.5h-2.5c-0.276,0-0.5-0.224-0.5-0.5s0.224-0.5,0.5-0.5h2.5c0.276,0,0.5,0.224,0.5,0.5
			S19.944,33.5,19.668,33.5z"/>
	</g>
	<g>
		<path class="st0" d="M19.668,28.5h-2.5c-0.276,0-0.5-0.224-0.5-0.5s0.224-0.5,0.5-0.5h2.5c0.276,0,0.5,0.224,0.5,0.5
			S19.944,28.5,19.668,28.5z"/>
	</g>
	<g>
		<path class="st0" d="M19.668,23.5h-2.5c-0.276,0-0.5-0.224-0.5-0.5s0.224-0.5,0.5-0.5h2.5c0.276,0,0.5,0.224,0.5,0.5
			S19.944,23.5,19.668,23.5z"/>
	</g>
	<g>
		<path class="st0" d="M12.168,15.5h-4c-0.276,0-0.5-0.224-0.5-0.5s0.224-0.5,0.5-0.5h4c0.276,0,0.5,0.224,0.5,0.5
			S12.444,15.5,12.168,15.5z"/>
	</g>
	<g>
		<path class="st0" d="M17.168,9.5h-4c-0.276,0-0.5-0.224-0.5-0.5s0.224-0.5,0.5-0.5h4c0.276,0,0.5,0.224,0.5,0.5
			S17.444,9.5,17.168,9.5z"/>
	</g>
	<g>
		<path class="st0" d="M15.168,11.5c-0.276,0-0.5-0.224-0.5-0.5V7c0-0.276,0.224-0.5,0.5-0.5s0.5,0.224,0.5,0.5v4
			C15.668,11.276,15.444,11.5,15.168,11.5z"/>
	</g>
	<g>
		<path class="st0" d="M10.168,17.5c-0.276,0-0.5-0.224-0.5-0.5v-4c0-0.276,0.224-0.5,0.5-0.5s0.5,0.224,0.5,0.5v4
			C10.668,17.276,10.444,17.5,10.168,17.5z"/>
	</g>
	<g>
		<ellipse transform="matrix(0.7071 -0.7071 0.7071 0.7071 -19.7607 46.2928)" class="st4" cx="46" cy="47" rx="10" ry="10"/>
		<path class="st0" d="M46,57.495c-2.688,0-5.378-1.024-7.425-3.071c-4.094-4.094-4.094-10.755,0-14.849s10.756-4.094,14.85,0
			s4.094,10.755,0,14.849C51.378,56.471,48.688,57.495,46,57.495z M46,37.504c-2.433,0-4.865,0.926-6.718,2.778
			c-3.704,3.704-3.704,9.731,0,13.435c3.705,3.704,9.73,3.704,13.436,0c3.704-3.704,3.704-9.731,0-13.435
			C50.865,38.43,48.433,37.504,46,37.504z"/>
	</g>
	<g>
		<path class="st0" d="M44.232,51.035c-0.128,0-0.256-0.049-0.354-0.146l-3.536-3.536c-0.195-0.195-0.195-0.512,0-0.707
			s0.512-0.195,0.707,0l3.183,3.182l6.718-6.717c0.195-0.195,0.512-0.195,0.707,0s0.195,0.512,0,0.707l-7.071,7.071
			C44.488,50.986,44.36,51.035,44.232,51.035z"/>
	</g>
	<g>
		<path class="st0" d="M13.168,23.5c-0.276,0-0.5-0.224-0.5-0.5v-1c0-0.276,0.224-0.5,0.5-0.5s0.5,0.224,0.5,0.5v1
			C13.668,23.276,13.444,23.5,13.168,23.5z"/>
	</g>
	<g>
		<path class="st0" d="M13.168,36.5c-0.276,0-0.5-0.224-0.5-0.5V25c0-0.276,0.224-0.5,0.5-0.5s0.5,0.224,0.5,0.5v11
			C13.668,36.276,13.444,36.5,13.168,36.5z"/>
	</g>
	<g>
		<path class="st1" d="M51,19.5c0-3.115-2.848-5.565-6.083-4.886c-1.908,0.4-3.437,1.958-3.816,3.87
			c-0.336,1.696,0.191,3.263,1.214,4.372c0.725,0.786,1.185,1.778,1.185,2.848V26h5v-0.295c0-1.075,0.47-2.068,1.196-2.861
			C50.504,21.961,51,20.792,51,19.5z"/>
		<path class="st0" d="M48.5,26.5h-5c-0.276,0-0.5-0.224-0.5-0.5v-0.297c0-0.881-0.374-1.771-1.053-2.508
			c-1.198-1.299-1.685-3.052-1.336-4.808c0.418-2.11,2.107-3.822,4.203-4.262c1.66-0.35,3.357,0.054,4.65,1.104
			c1.293,1.05,2.035,2.607,2.035,4.271c0,1.363-0.51,2.67-1.435,3.681C49.579,23.711,49,24.579,49,25.704V26
			C49,26.276,48.776,26.5,48.5,26.5z M43.995,25.5h4.01c0.054-1.061,0.519-2.117,1.322-2.995C50.084,21.68,50.5,20.612,50.5,19.5
			c0-1.362-0.607-2.636-1.665-3.495c-1.059-0.859-2.447-1.189-3.815-0.902c-1.709,0.358-3.086,1.756-3.428,3.478
			c-0.286,1.439,0.111,2.874,1.09,3.936C43.481,23.383,43.942,24.436,43.995,25.5z"/>
	</g>
	<g>
		<path class="st0" d="M46,31.5c-1.654,0-3-1.346-3-3V26c0-0.276,0.224-0.5,0.5-0.5h5c0.276,0,0.5,0.224,0.5,0.5v2.5
			C49,30.154,47.654,31.5,46,31.5z M44,26.5v2c0,1.103,0.897,2,2,2s2-0.897,2-2v-2H44z"/>
	</g>
	<g>
		<path class="st0" d="M46,12c-0.276,0-0.5-0.224-0.5-0.5v-2C45.5,9.223,45.724,9,46,9s0.5,0.224,0.5,0.5v2
			C46.5,11.776,46.276,12,46,12z"/>
	</g>
	<g>
		<path class="st0" d="M41,13.707c-0.128,0-0.256-0.049-0.354-0.146l-1.414-1.414c-0.195-0.195-0.195-0.512,0-0.707
			s0.512-0.195,0.707,0l1.414,1.414c0.195,0.195,0.195,0.512,0,0.707C41.256,13.658,41.128,13.707,41,13.707z"/>
	</g>
	<g>
		<path class="st0" d="M51,13.707c-0.128,0-0.256-0.049-0.354-0.146c-0.195-0.195-0.195-0.512,0-0.707l1.414-1.414
			c0.195-0.195,0.512-0.195,0.707,0s0.195,0.512,0,0.707l-1.414,1.414C51.256,13.658,51.128,13.707,51,13.707z"/>
	</g>
	<g>
		<path class="st0" d="M46,26.5c-0.276,0-0.5-0.224-0.5-0.5v-5c0-0.276,0.224-0.5,0.5-0.5s0.5,0.224,0.5,0.5v5
			C46.5,26.276,46.276,26.5,46,26.5z"/>
	</g>
	<g>
		<path class="st0" d="M38.332,57.5H10.504c-1.085,0-2.058-0.562-2.6-1.502c-0.542-0.94-0.541-2.062,0.003-3.001l8.761-15.131V19
			c0-0.276,0.224-0.5,0.5-0.5h14.5c0.276,0,0.5,0.224,0.5,0.5v18.866l2.912,5.03c0.139,0.239,0.057,0.545-0.182,0.683
			c-0.238,0.138-0.545,0.058-0.684-0.182l-2.979-5.146c-0.044-0.076-0.067-0.163-0.067-0.25V19.5h-13.5V38
			c0,0.088-0.023,0.174-0.067,0.25L8.772,53.498c-0.362,0.626-0.363,1.374-0.002,2c0.362,0.627,1.01,1.001,1.733,1.001h27.828
			c0.206,0,0.416-0.04,0.66-0.125c0.262-0.091,0.546,0.046,0.637,0.307c0.092,0.261-0.046,0.546-0.307,0.637
			C38.974,57.44,38.649,57.5,38.332,57.5z"/>
	</g>
	<g>
		<path class="st0" d="M48.5,29h-5c-0.276,0-0.5-0.224-0.5-0.5s0.224-0.5,0.5-0.5h5c0.276,0,0.5,0.224,0.5,0.5S48.776,29,48.5,29z"
			/>
	</g>
</g>
</svg>
