<?xml version="1.0" encoding="utf-8"?>
<!-- Generator: Adobe Illustrator 21.1.0, SVG Export Plug-In . SVG Version: 6.00 Build 0)  -->
<svg version="1.1" id="Layer_1" xmlns="http://www.w3.org/2000/svg" xmlns:xlink="http://www.w3.org/1999/xlink" x="0px" y="0px"
	 viewBox="0 0 64 64" style="enable-background:new 0 0 64 64;" xml:space="preserve">
<style type="text/css">
	.st0{fill:#263238;}
	.st1{fill:#FFD740;}
	.st2{fill:#40C4FF;}
	.st3{fill:#FF5252;}
	.st4{fill:#4DB6AC;}
	.st5{fill:#FFFFFF;}
	.st6{fill:#37474F;}
	.st7{fill:#4FC3F7;}
</style>
<g>
	<g>
		<path class="st0" d="M52.5,10.5h-4c-0.276,0-0.5-0.224-0.5-0.5s0.224-0.5,0.5-0.5h4c0.276,0,0.5,0.224,0.5,0.5
			S52.776,10.5,52.5,10.5z"/>
	</g>
	<g>
		<path class="st0" d="M50.5,12.5c-0.276,0-0.5-0.224-0.5-0.5V8c0-0.276,0.224-0.5,0.5-0.5S51,7.724,51,8v4
			C51,12.276,50.776,12.5,50.5,12.5z"/>
	</g>
	<g>
		<path class="st0" d="M59.5,16h-4c-0.276,0-0.5-0.224-0.5-0.5s0.224-0.5,0.5-0.5h4c0.276,0,0.5,0.224,0.5,0.5S59.776,16,59.5,16z"
			/>
	</g>
	<g>
		<path class="st0" d="M57.5,18c-0.276,0-0.5-0.224-0.5-0.5v-4c0-0.276,0.224-0.5,0.5-0.5s0.5,0.224,0.5,0.5v4
			C58,17.776,57.776,18,57.5,18z"/>
	</g>
	<g>
		<path class="st3" d="M48.971,24.03l-3.182,3.182h0c1.364,1.364,1.364,3.585,0.001,4.949l-0.285,0.284
			C47.077,34.921,48,37.85,48,41h8C56,34.373,53.314,28.373,48.971,24.03z"/>
	</g>
	<g>
		<path class="st1" d="M40.555,27.495l0.284-0.284c1.323-1.322,3.628-1.322,4.95,0l3.182-3.182C44.627,19.686,38.627,17,32,17
			s-12.627,2.686-16.971,7.029l5.657,5.657C23.582,26.791,27.582,25,32,25C35.15,25,38.079,25.923,40.555,27.495z"/>
	</g>
	<g>
		<path class="st4" d="M16,41H8c0-6.627,2.686-12.627,7.029-16.971l5.657,5.657C17.791,32.582,16,36.582,16,41z"/>
	</g>
	<g>
		<path class="st0" d="M56,41.5h-8c-0.276,0-0.5-0.224-0.5-0.5s0.224-0.5,0.5-0.5h7.495c-0.267-12.729-10.704-23-23.495-23
			S8.771,27.771,8.505,40.5H16c0.276,0,0.5,0.224,0.5,0.5s-0.224,0.5-0.5,0.5H8c-0.276,0-0.5-0.224-0.5-0.5
			c0-13.51,10.99-24.5,24.5-24.5S56.5,27.49,56.5,41C56.5,41.276,56.276,41.5,56,41.5z"/>
	</g>
	<g>
		<path class="st0" d="M32,43c-0.534,0-1.036-0.208-1.414-0.586S30,41.534,30,41s0.208-1.036,0.586-1.414l11.313-11.313
			c0.756-0.757,2.074-0.756,2.828,0c0.378,0.378,0.586,0.88,0.586,1.414s-0.208,1.036-0.586,1.414L33.414,42.414
			C33.036,42.792,32.534,43,32,43z M43.313,28.687c-0.267,0-0.518,0.104-0.707,0.293L31.293,40.293c-0.39,0.39-0.39,1.024,0,1.414
			c0.391,0.391,1.023,0.391,1.414,0l11.313-11.313c0.39-0.39,0.39-1.024,0-1.414C43.832,28.79,43.581,28.687,43.313,28.687z"/>
	</g>
	<g>
		<circle class="st2" cx="32" cy="41" r="4"/>
		<path class="st0" d="M32,45.5c-2.481,0-4.5-2.019-4.5-4.5s2.019-4.5,4.5-4.5s4.5,2.019,4.5,4.5S34.481,45.5,32,45.5z M32,37.5
			c-1.93,0-3.5,1.57-3.5,3.5s1.57,3.5,3.5,3.5s3.5-1.57,3.5-3.5S33.93,37.5,32,37.5z"/>
	</g>
	<g>
		<path class="st2" d="M39,56H25c-0.552,0-1-0.448-1-1v-4c0-0.552,0.448-1,1-1h14c0.552,0,1,0.448,1,1v4C40,55.553,39.552,56,39,56z
			"/>
		<path class="st0" d="M39,56.5H25c-0.827,0-1.5-0.673-1.5-1.5v-4c0-0.827,0.673-1.5,1.5-1.5h14c0.827,0,1.5,0.673,1.5,1.5v4
			C40.5,55.827,39.827,56.5,39,56.5z M25,50.5c-0.275,0-0.5,0.225-0.5,0.5v4c0,0.275,0.225,0.5,0.5,0.5h14
			c0.275,0,0.5-0.225,0.5-0.5v-4c0-0.275-0.225-0.5-0.5-0.5H25z"/>
	</g>
	<g>
		<path class="st0" d="M42,51.289c-0.126,0-0.253-0.048-0.35-0.143c-0.197-0.193-0.201-0.51-0.008-0.707
			C44.13,47.898,45.5,44.547,45.5,41c0-2.396-0.65-4.764-1.88-6.847c-0.141-0.237-0.062-0.544,0.177-0.685
			c0.234-0.141,0.543-0.062,0.685,0.177C45.802,35.882,46.5,38.425,46.5,41c0,3.81-1.472,7.41-4.143,10.139
			C42.26,51.239,42.13,51.289,42,51.289z"/>
	</g>
	<g>
		<path class="st0" d="M22,51.289c-0.13,0-0.26-0.05-0.357-0.15C18.972,48.41,17.5,44.81,17.5,41c0-7.995,6.505-14.5,14.5-14.5
			c2.576,0,5.119,0.698,7.354,2.019c0.238,0.141,0.317,0.447,0.177,0.685c-0.141,0.238-0.45,0.315-0.685,0.177
			C36.765,28.15,34.397,27.5,32,27.5c-7.444,0-13.5,6.056-13.5,13.5c0,3.547,1.37,6.898,3.857,9.439
			c0.193,0.197,0.189,0.514-0.008,0.707C22.253,51.241,22.126,51.289,22,51.289z"/>
	</g>
	<g>
		<path class="st0" d="M5.5,51h-2C3.224,51,3,50.776,3,50.5S3.224,50,3.5,50h2C5.776,50,6,50.224,6,50.5S5.776,51,5.5,51z"/>
	</g>
	<g>
		<path class="st0" d="M16,51H7.5C7.224,51,7,50.776,7,50.5S7.224,50,7.5,50H16c0.276,0,0.5,0.224,0.5,0.5S16.276,51,16,51z"/>
	</g>
	<g>
		<path class="st0" d="M60.5,51h-2c-0.276,0-0.5-0.224-0.5-0.5s0.224-0.5,0.5-0.5h2c0.276,0,0.5,0.224,0.5,0.5S60.776,51,60.5,51z"
			/>
	</g>
	<g>
		<path class="st0" d="M56.5,51H48c-0.276,0-0.5-0.224-0.5-0.5S47.724,50,48,50h8.5c0.276,0,0.5,0.224,0.5,0.5S56.776,51,56.5,51z"
			/>
	</g>
</g>
</svg>
