<?xml version="1.0" encoding="utf-8"?>
<!-- Generator: Adobe Illustrator 21.1.0, SVG Export Plug-In . SVG Version: 6.00 Build 0)  -->
<svg version="1.1" id="Layer_1" xmlns="http://www.w3.org/2000/svg" xmlns:xlink="http://www.w3.org/1999/xlink" x="0px" y="0px"
	 viewBox="0 0 64 64" style="enable-background:new 0 0 64 64;" xml:space="preserve">
<style type="text/css">
	.st0{fill:#263238;}
	.st1{fill:#FFD740;}
	.st2{fill:#40C4FF;}
	.st3{fill:#FF5252;}
	.st4{fill:#4DB6AC;}
	.st5{fill:#FFFFFF;}
	.st6{fill:#37474F;}
	.st7{fill:#4FC3F7;}
</style>
<g>
	<g>
		<path class="st0" d="M16.999,63.75c-0.176,0-0.347-0.094-0.438-0.259c-0.133-0.242-0.044-0.546,0.197-0.679l2.229-1.226
			c4.634-2.548,7.512-7.417,7.512-12.706v-2.332c0-0.276,0.224-0.5,0.5-0.5s0.5,0.224,0.5,0.5v2.332
			c0,5.653-3.077,10.857-8.029,13.582l-2.229,1.226C17.163,63.73,17.081,63.75,16.999,63.75z"/>
	</g>
	<g>
		<path class="st0" d="M46.999,63.75c-0.082,0-0.164-0.02-0.241-0.062l-2.229-1.226c-4.953-2.724-8.03-7.929-8.03-13.582v-2.332
			c0-0.276,0.224-0.5,0.5-0.5s0.5,0.224,0.5,0.5v2.332c0,5.288,2.879,10.157,7.513,12.706l2.229,1.226
			c0.241,0.133,0.33,0.437,0.197,0.679C47.346,63.656,47.175,63.75,46.999,63.75z"/>
	</g>
	<g>
		<path class="st0" d="M12.499,63.75c-0.276,0-0.5-0.224-0.5-0.5c0-6.893,5.607-12.5,12.5-12.5c0.063,0,0.127,0.004,0.189,0.009
			c0.276,0.007,0.543,0.24,0.536,0.516c-0.008,0.272-0.183,0.49-0.451,0.49c-0.004,0-0.009,0-0.014,0l-0.261-0.014
			c-6.341,0-11.5,5.159-11.5,11.5C12.999,63.526,12.775,63.75,12.499,63.75z"/>
	</g>
	<g>
		<path class="st0" d="M51.499,63.75c-0.276,0-0.5-0.224-0.5-0.5c0-6.341-5.159-11.5-11.5-11.5l-0.26,0.014c-0.005,0-0.01,0-0.014,0
			c-0.271,0-0.492-0.215-0.5-0.487c-0.007-0.276,0.211-0.506,0.486-0.513c0.161-0.01,0.224-0.014,0.287-0.014
			c6.893,0,12.5,5.607,12.5,12.5C51.999,63.526,51.775,63.75,51.499,63.75z"/>
	</g>
	<g>
		<path class="st0" d="M2.499,63.75c-0.276,0-0.5-0.224-0.5-0.5c0-5.238,4.262-9.5,9.5-9.5c0.734,0,1.477,0.089,2.206,0.264
			c0.269,0.065,0.434,0.335,0.369,0.603c-0.065,0.268-0.324,0.434-0.604,0.37c-0.652-0.157-1.316-0.237-1.972-0.237
			c-4.687,0-8.5,3.813-8.5,8.5C2.999,63.526,2.775,63.75,2.499,63.75z"/>
	</g>
	<g>
		<path class="st0" d="M61.499,63.75c-0.276,0-0.5-0.224-0.5-0.5c0-4.687-3.813-8.5-8.5-8.5c-0.655,0-1.318,0.08-1.971,0.237
			c-0.277,0.064-0.539-0.102-0.604-0.37s0.101-0.538,0.369-0.603c0.729-0.175,1.472-0.264,2.205-0.264c5.238,0,9.5,4.262,9.5,9.5
			C61.999,63.526,61.775,63.75,61.499,63.75z"/>
	</g>
	<g>
		<path class="st0" d="M63.499,63.75h-27c-0.276,0-0.5-0.224-0.5-0.5s0.224-0.5,0.5-0.5h27c0.276,0,0.5,0.224,0.5,0.5
			S63.775,63.75,63.499,63.75z"/>
	</g>
	<g>
		<path class="st0" d="M33.499,63.75h-3c-0.276,0-0.5-0.224-0.5-0.5s0.224-0.5,0.5-0.5h3c0.276,0,0.5,0.224,0.5,0.5
			S33.775,63.75,33.499,63.75z"/>
	</g>
	<g>
		<path class="st0" d="M27.499,63.75H0.5c-0.276,0-0.5-0.224-0.5-0.5s0.224-0.5,0.5-0.5h26.999c0.276,0,0.5,0.224,0.5,0.5
			S27.775,63.75,27.499,63.75z"/>
	</g>
	<g>
		<path class="st0" d="M38.999,41.049h-14c-0.133,0-0.26-0.053-0.354-0.146s-0.146-0.221-0.146-0.354L24.5,14.412
			c0-4.536,1.533-9.006,4.318-12.586C29.605,0.813,30.756,0.25,32,0.25c1.243,0,2.394,0.562,3.157,1.544l-0.371,0.338l0.395-0.307
			c2.785,3.58,4.318,8.05,4.318,12.586v26.138C39.499,40.826,39.275,41.049,38.999,41.049z M25.499,40.049h13V14.412
			c0-4.315-1.459-8.566-4.107-11.972c-0.002-0.002-0.004-0.005-0.006-0.007l-0.023-0.031C33.796,1.672,32.933,1.25,32,1.25
			c-0.934,0-1.797,0.422-2.369,1.158C26.959,5.845,25.5,10.097,25.5,14.412L25.499,40.049z"/>
	</g>
	<g>
		<polyline class="st1" points="23,36.549 13,36.549 13,40.549 23,40.549 		"/>
		<path class="st0" d="M22.999,41.049h-10c-0.276,0-0.5-0.224-0.5-0.5v-4c0-0.276,0.224-0.5,0.5-0.5h10c0.276,0,0.5,0.224,0.5,0.5
			s-0.224,0.5-0.5,0.5h-9.5v3h9.5c0.276,0,0.5,0.224,0.5,0.5S23.275,41.049,22.999,41.049z"/>
	</g>
	<g>
		<path class="st0" d="M36.999,45.049h-10c-0.276,0-0.5-0.224-0.5-0.5v-4c0-0.276,0.224-0.5,0.5-0.5h10c0.276,0,0.5,0.224,0.5,0.5v4
			C37.499,44.826,37.275,45.049,36.999,45.049z M27.499,44.049h9v-3h-9V44.049z"/>
	</g>
	<g>
		<circle class="st2" cx="32" cy="12.75" r="4"/>
		<path class="st0" d="M31.999,17.25c-2.481,0-4.5-2.019-4.5-4.5s2.019-4.5,4.5-4.5s4.5,2.019,4.5,4.5S34.48,17.25,31.999,17.25z
			 M31.999,9.25c-1.93,0-3.5,1.57-3.5,3.5s1.57,3.5,3.5,3.5s3.5-1.57,3.5-3.5S33.929,9.25,31.999,9.25z"/>
	</g>
	<g>
		<path class="st0" d="M12.999,37.049c-0.276,0-0.5-0.224-0.5-0.5v-3c0-0.153,0.07-0.297,0.189-0.392l10-7.917
			c0.216-0.171,0.53-0.136,0.702,0.082c0.172,0.217,0.136,0.531-0.081,0.703l-9.811,7.766v2.758
			C13.499,36.826,13.275,37.049,12.999,37.049z"/>
	</g>
	<g>
		<polyline class="st1" points="41,36.549 51,36.549 51,40.549 41,40.549 		"/>
		<path class="st0" d="M50.999,41.049h-10c-0.276,0-0.5-0.224-0.5-0.5s0.224-0.5,0.5-0.5h9.5v-3h-9.5c-0.276,0-0.5-0.224-0.5-0.5
			s0.224-0.5,0.5-0.5h10c0.276,0,0.5,0.224,0.5,0.5v4C51.499,40.826,51.275,41.049,50.999,41.049z"/>
	</g>
	<g>
		<path class="st0" d="M50.999,37.049c-0.276,0-0.5-0.224-0.5-0.5v-2.758l-9.811-7.766c-0.217-0.171-0.253-0.486-0.081-0.703
			c0.172-0.217,0.486-0.252,0.702-0.082l10,7.917c0.119,0.095,0.189,0.239,0.189,0.392v3C51.499,36.826,51.275,37.049,50.999,37.049
			z"/>
	</g>
	<g>
		<path class="st0" d="M56.499,6.75h-4c-0.276,0-0.5-0.224-0.5-0.5s0.224-0.5,0.5-0.5h4c0.276,0,0.5,0.224,0.5,0.5
			S56.775,6.75,56.499,6.75z"/>
	</g>
	<g>
		<path class="st0" d="M54.499,8.75c-0.276,0-0.5-0.224-0.5-0.5v-4c0-0.276,0.224-0.5,0.5-0.5s0.5,0.224,0.5,0.5v4
			C54.999,8.526,54.775,8.75,54.499,8.75z"/>
	</g>
	<g>
		<path class="st0" d="M63.499,13.25h-4c-0.276,0-0.5-0.224-0.5-0.5s0.224-0.5,0.5-0.5h4c0.276,0,0.5,0.224,0.5,0.5
			S63.775,13.25,63.499,13.25z"/>
	</g>
	<g>
		<path class="st0" d="M61.499,15.25c-0.276,0-0.5-0.224-0.5-0.5v-4c0-0.276,0.224-0.5,0.5-0.5s0.5,0.224,0.5,0.5v4
			C61.999,15.026,61.775,15.25,61.499,15.25z"/>
	</g>
	<g>
		<path class="st0" d="M20.999,21.75c-0.276,0-0.5-0.224-0.5-0.5v-2c0-0.276,0.224-0.5,0.5-0.5s0.5,0.224,0.5,0.5v2
			C21.499,21.526,21.275,21.75,20.999,21.75z"/>
	</g>
	<g>
		<path class="st0" d="M20.999,17.75L20.999,17.75c-0.276,0-0.5-0.224-0.5-0.5l0.001-7.5c0-0.276,0.224-0.5,0.5-0.5l0,0
			c0.276,0,0.5,0.224,0.5,0.5l-0.001,7.5C21.499,17.526,21.275,17.75,20.999,17.75z"/>
	</g>
	<g>
		<path class="st0" d="M42.999,21.75c-0.276,0-0.5-0.224-0.5-0.5v-2c0-0.276,0.224-0.5,0.5-0.5s0.5,0.224,0.5,0.5v2
			C43.499,21.526,43.275,21.75,42.999,21.75z"/>
	</g>
	<g>
		<path class="st0" d="M42.999,17.75L42.999,17.75c-0.276,0-0.5-0.224-0.5-0.5l0.001-7.5c0-0.276,0.224-0.5,0.5-0.5l0,0
			c0.276,0,0.5,0.224,0.5,0.5l-0.001,7.5C43.499,17.526,43.275,17.75,42.999,17.75z"/>
	</g>
	<g>
		<path class="st0" d="M35.999,38.049c-0.276,0-0.5-0.224-0.5-0.5v-20c0-0.276,0.224-0.5,0.5-0.5s0.5,0.224,0.5,0.5v20
			C36.499,37.826,36.275,38.049,35.999,38.049z"/>
	</g>
</g>
</svg>
