<?xml version="1.0" encoding="utf-8"?>
<!-- Generator: Adobe Illustrator 21.1.0, SVG Export Plug-In . SVG Version: 6.00 Build 0)  -->
<svg version="1.1" id="Layer_1" xmlns="http://www.w3.org/2000/svg" xmlns:xlink="http://www.w3.org/1999/xlink" x="0px" y="0px"
	 viewBox="0 0 64 64" style="enable-background:new 0 0 64 64;" xml:space="preserve">
<style type="text/css">
	.st0{fill:#263238;}
	.st1{fill:#FFD740;}
	.st2{fill:#40C4FF;}
	.st3{fill:#FF5252;}
	.st4{fill:#4DB6AC;}
	.st5{fill:#FFFFFF;}
	.st6{fill:#37474F;}
	.st7{fill:#4FC3F7;}
</style>
<g>
	<g>
		<path class="st1" d="M51,61.25H13c-0.552,0-1-0.448-1-1v-2.5c0-1.381,1.119-2.5,2.5-2.5h35c1.381,0,2.5,1.119,2.5,2.5v2.5
			C52,60.802,51.552,61.25,51,61.25z"/>
		<path class="st0" d="M51,61.75H13c-0.827,0-1.5-0.673-1.5-1.5v-2.5c0-1.654,1.346-3,3-3h35c1.654,0,3,1.346,3,3v2.5
			C52.5,61.077,51.827,61.75,51,61.75z M14.5,55.75c-1.103,0-2,0.897-2,2v2.5c0,0.276,0.224,0.5,0.5,0.5h38
			c0.275,0,0.5-0.224,0.5-0.5v-2.5c0-1.103-0.897-2-2-2H14.5z"/>
	</g>
	<g>
		<path class="st1" d="M48,55.25H16v-3.5c0-1.381,1.119-2.5,2.5-2.5h27c1.381,0,2.5,1.119,2.5,2.5V55.25z"/>
		<path class="st0" d="M48,55.75H16c-0.276,0-0.5-0.224-0.5-0.5v-3.5c0-1.654,1.346-3,3-3h27c1.654,0,3,1.346,3,3v3.5
			C48.5,55.526,48.276,55.75,48,55.75z M16.5,54.75h31v-3c0-1.103-0.897-2-2-2h-27c-1.103,0-2,0.897-2,2V54.75z"/>
	</g>
	<g>
		<path class="st0" d="M38.246,49.75h-13c-0.171,0-0.331-0.087-0.422-0.232l-4.368-6.888c-5.278-8.323-4.67-19.071,1.513-26.746
			l4.354-5.406l1.626-3.251c0.603-1.206,1.624-2.146,2.877-2.647l3.235-1.294c0.166-0.067,0.359-0.038,0.501,0.076
			c0.141,0.114,0.208,0.296,0.177,0.475l-0.9,5.138c2.782-0.326,5.578,0.473,7.776,2.23l12.912,10.33
			c0.37,0.297,0.575,0.739,0.562,1.213c-0.013,0.474-0.241,0.904-0.627,1.179l-2.311,1.65l-0.51,1.19
			c-0.629,1.468-2.298,2.185-3.795,1.633l-4.562-1.681c-1.504-0.554-3.204-0.262-4.436,0.766l-0.396,0.329l2.987,3.547
			c2.944,3.498,3.295,8.452,0.872,12.329l-3.642,5.827C38.579,49.661,38.419,49.75,38.246,49.75z M25.521,48.75h12.448l3.495-5.592
			c2.192-3.507,1.875-7.99-0.79-11.154l-3.311-3.932c-0.085-0.102-0.127-0.234-0.115-0.366c0.012-0.133,0.076-0.255,0.178-0.34
			l0.781-0.65c1.506-1.255,3.583-1.614,5.422-0.936l4.562,1.681c1.001,0.368,2.11-0.109,2.529-1.088l0.565-1.319
			c0.036-0.084,0.095-0.156,0.169-0.209l2.424-1.731c0.129-0.092,0.205-0.235,0.21-0.394c0.004-0.158-0.064-0.305-0.188-0.404
			L40.989,11.985c-2.146-1.718-4.929-2.42-7.634-1.929l-0.04,0.007c-0.162,0.032-0.326-0.021-0.442-0.137s-0.168-0.28-0.141-0.441
			l0.866-4.938l-2.402,0.961c-1.024,0.41-1.86,1.179-2.354,2.166l-1.65,3.3c-0.016,0.032-0.036,0.062-0.058,0.09l-4.389,5.448
			c-5.913,7.341-6.495,17.623-1.446,25.583L25.521,48.75z"/>
	</g>
	<g>
		<path class="st0" d="M5.5,15.75h-1c-0.276,0-0.5-0.224-0.5-0.5s0.224-0.5,0.5-0.5h1c0.276,0,0.5,0.224,0.5,0.5
			S5.776,15.75,5.5,15.75z"/>
	</g>
	<g>
		<path class="st0" d="M16,15.75H7.5c-0.276,0-0.5-0.224-0.5-0.5s0.224-0.5,0.5-0.5H16c0.276,0,0.5,0.224,0.5,0.5
			S16.276,15.75,16,15.75z"/>
	</g>
	<g>
		<path class="st0" d="M59.5,40.75h-1c-0.276,0-0.5-0.224-0.5-0.5s0.224-0.5,0.5-0.5h1c0.276,0,0.5,0.224,0.5,0.5
			S59.776,40.75,59.5,40.75z"/>
	</g>
	<g>
		<path class="st0" d="M56.5,40.75H48c-0.276,0-0.5-0.224-0.5-0.5s0.224-0.5,0.5-0.5h8.5c0.276,0,0.5,0.224,0.5,0.5
			S56.776,40.75,56.5,40.75z"/>
	</g>
	<g>
		<path class="st0" d="M51.62,5.25h-4c-0.276,0-0.5-0.224-0.5-0.5s0.224-0.5,0.5-0.5h4c0.276,0,0.5,0.224,0.5,0.5
			S51.896,5.25,51.62,5.25z"/>
	</g>
	<g>
		<path class="st0" d="M49.62,7.25c-0.276,0-0.5-0.224-0.5-0.5v-4c0-0.276,0.224-0.5,0.5-0.5s0.5,0.224,0.5,0.5v4
			C50.12,7.026,49.896,7.25,49.62,7.25z"/>
	</g>
	<g>
		<path class="st0" d="M58.62,10.75h-4c-0.276,0-0.5-0.224-0.5-0.5s0.224-0.5,0.5-0.5h4c0.276,0,0.5,0.224,0.5,0.5
			S58.896,10.75,58.62,10.75z"/>
	</g>
	<g>
		<path class="st0" d="M56.62,12.75c-0.276,0-0.5-0.224-0.5-0.5v-4c0-0.276,0.224-0.5,0.5-0.5s0.5,0.224,0.5,0.5v4
			C57.12,12.526,56.896,12.75,56.62,12.75z"/>
	</g>
	<g>
		<path class="st0" d="M32,49.75c-0.099,0-0.198-0.029-0.285-0.089c-0.227-0.158-0.283-0.469-0.125-0.696l3.223-4.633
			c2.63-3.779,2.176-8.886-1.081-12.142l-4.085-4.085c-0.143-0.142-0.186-0.356-0.109-0.542s0.256-0.309,0.458-0.311l8-0.083
			c0.001,0,0.003,0,0.005,0c0.273,0,0.497,0.22,0.5,0.495c0.003,0.276-0.219,0.502-0.495,0.505l-6.81,0.071l3.244,3.244
			c3.6,3.599,4.102,9.243,1.194,13.42l-3.222,4.633C32.313,49.675,32.158,49.75,32,49.75z"/>
	</g>
	<g>
		<path class="st2" d="M43.12,16.25l-8.5-2.5l2.182,3.481c0.73,1.164,2.261,1.521,3.43,0.8L43.12,16.25z"/>
		<path class="st0" d="M38.928,18.9c-1,0-1.98-0.499-2.549-1.404l-2.183-3.481c-0.11-0.176-0.101-0.402,0.025-0.567
			c0.125-0.166,0.342-0.237,0.539-0.178l8.5,2.5c0.189,0.056,0.329,0.217,0.354,0.413c0.026,0.196-0.064,0.388-0.232,0.492
			l-2.888,1.781C40.007,18.757,39.465,18.9,38.928,18.9z M35.744,14.602l1.482,2.363c0.58,0.927,1.811,1.213,2.743,0.64l1.934-1.192
			L35.744,14.602z"/>
	</g>
</g>
</svg>
