<?xml version="1.0" encoding="utf-8"?>
<!-- Generator: Adobe Illustrator 21.1.0, SVG Export Plug-In . SVG Version: 6.00 Build 0)  -->
<svg version="1.1" id="Layer_1" xmlns="http://www.w3.org/2000/svg" xmlns:xlink="http://www.w3.org/1999/xlink" x="0px" y="0px"
	 viewBox="0 0 64 64" style="enable-background:new 0 0 64 64;" xml:space="preserve">
<style type="text/css">
	.st0{fill:#263238;}
	.st1{fill:#FFD740;}
	.st2{fill:#40C4FF;}
	.st3{fill:#FF5252;}
	.st4{fill:#4DB6AC;}
	.st5{fill:#FFFFFF;}
	.st6{fill:#37474F;}
	.st7{fill:#4FC3F7;}
</style>
<g>
	<g>
		<path class="st0" d="M56.002,23.922h-10c-0.276,0-0.5-0.224-0.5-0.5s0.224-0.5,0.5-0.5h10c0.276,0,0.5,0.224,0.5,0.5
			S56.278,23.922,56.002,23.922z"/>
	</g>
	<g>
		<path class="st0" d="M59.002,23.922h-1c-0.276,0-0.5-0.224-0.5-0.5s0.224-0.5,0.5-0.5h1c0.276,0,0.5,0.224,0.5,0.5
			S59.278,23.922,59.002,23.922z"/>
	</g>
	<g>
		<path class="st0" d="M59.002,9h-4c-0.276,0-0.5-0.224-0.5-0.5s0.224-0.5,0.5-0.5h4c0.276,0,0.5,0.224,0.5,0.5S59.278,9,59.002,9z"
			/>
	</g>
	<g>
		<path class="st0" d="M57.002,11c-0.276,0-0.5-0.224-0.5-0.5v-4c0-0.276,0.224-0.5,0.5-0.5s0.5,0.224,0.5,0.5v4
			C57.502,10.776,57.278,11,57.002,11z"/>
	</g>
	<g>
		<path class="st0" d="M52.002,15.5h-4c-0.276,0-0.5-0.224-0.5-0.5s0.224-0.5,0.5-0.5h4c0.276,0,0.5,0.224,0.5,0.5
			S52.278,15.5,52.002,15.5z"/>
	</g>
	<g>
		<path class="st0" d="M50.002,17.5c-0.276,0-0.5-0.224-0.5-0.5v-4c0-0.276,0.224-0.5,0.5-0.5s0.5,0.224,0.5,0.5v4
			C50.502,17.276,50.278,17.5,50.002,17.5z"/>
	</g>
	<g>
		<path class="st0" d="M32.002,23.423c-4.687,0-8.5-3.813-8.5-8.5s3.813-8.5,8.5-8.5s8.5,3.813,8.5,8.5S36.688,23.423,32.002,23.423
			z M32.002,7.423c-4.136,0-7.5,3.364-7.5,7.5s3.364,7.5,7.5,7.5s7.5-3.364,7.5-7.5S36.138,7.423,32.002,7.423z"/>
	</g>
	<g>
		<path class="st1" d="M37.549,10.298l0.596-0.496c-1.468-1.758-3.674-2.878-6.143-2.878c-4.418,0-8,3.582-8,8h0.755
			C29.431,14.923,33.957,13.287,37.549,10.298z"/>
		<path class="st0" d="M24.758,15.423h-0.756c-0.276,0-0.5-0.224-0.5-0.5c0-4.687,3.813-8.5,8.5-8.5
			c2.526,0,4.905,1.115,6.527,3.058c0.085,0.102,0.126,0.233,0.114,0.366s-0.076,0.254-0.179,0.339l-0.597,0.496
			C34.194,13.739,29.538,15.423,24.758,15.423z M24.519,14.423h0.239c4.548,0,8.977-1.602,12.471-4.51c0.001,0,0.001,0,0.001,0
			l0.198-0.165c-1.414-1.483-3.364-2.325-5.426-2.325C28.034,7.423,24.776,10.52,24.519,14.423z"/>
	</g>
	<g>
		<path class="st0" d="M32.002,28.929L32.002,28.929c-0.167,0-0.323-0.083-0.416-0.223l-2.999-4.5
			c-0.055-0.082-0.084-0.178-0.084-0.277l-0.001-1.592c0-0.276,0.224-0.5,0.5-0.5l0,0c0.276,0,0.5,0.224,0.5,0.5l0.001,1.441
			l2.499,3.75l2.5-3.75v-1.441c0-0.276,0.224-0.5,0.5-0.5s0.5,0.224,0.5,0.5v1.593c0,0.099-0.029,0.195-0.084,0.277l-3,4.5
			C32.325,28.845,32.169,28.929,32.002,28.929z"/>
	</g>
	<g>
		<polygon class="st2" points="34.512,40.429 32.012,42.929 29.512,40.429 31.002,28.429 33.002,28.429 		"/>
		<path class="st0" d="M32.012,43.429c-0.128,0-0.256-0.049-0.354-0.146l-2.5-2.5c-0.109-0.109-0.162-0.262-0.143-0.415l1.49-12
			c0.031-0.25,0.244-0.438,0.496-0.438h2c0.252,0,0.465,0.188,0.496,0.438l1.51,12c0.02,0.153-0.033,0.307-0.143,0.416l-2.5,2.5
			C32.268,43.38,32.14,43.429,32.012,43.429z M30.038,40.249l1.974,1.974l1.974-1.974l-1.425-11.319h-1.117L30.038,40.249z"/>
	</g>
	<g>
		<path class="st0" d="M36.002,28.929L36.002,28.929l-8,0c-0.151,0-0.295-0.069-0.39-0.187c-0.096-0.119-0.131-0.273-0.099-0.421
			l1-4.5c0.044-0.196,0.199-0.346,0.396-0.383c0.195-0.032,0.397,0.048,0.508,0.214l2.584,3.876l2.584-3.875
			c0.111-0.167,0.311-0.249,0.508-0.214c0.197,0.037,0.353,0.188,0.396,0.383l1,4.5c0.032,0.148-0.003,0.303-0.099,0.421
			C36.297,28.86,36.153,28.929,36.002,28.929z M32.937,27.929h2.442l-0.611-2.748L32.937,27.929z M28.625,27.929h2.442l-1.831-2.748
			L28.625,27.929z"/>
	</g>
	<g>
		<path class="st0" d="M44.002,46.499h-5c-0.276,0-0.5-0.224-0.5-0.5s0.224-0.5,0.5-0.5h4.5V31.172c0-1.773-1.046-3.386-2.665-4.109
			l-6.039-2.698c-0.252-0.113-0.365-0.408-0.252-0.661c0.112-0.252,0.408-0.366,0.66-0.252l6.039,2.698
			c1.979,0.884,3.257,2.855,3.257,5.022v14.827C44.502,46.275,44.278,46.499,44.002,46.499z"/>
	</g>
	<g>
		<path class="st0" d="M24.998,46.499c-0.276,0-0.5-0.224-0.5-0.5V33.206l-3.792,3.792c-1.169,1.17-3.071,1.17-4.242,0l-7.068-7.068
			c-0.195-0.195-0.195-0.512,0-0.707l3.535-3.535c0.195-0.195,0.512-0.195,0.707,0l4.95,4.95l3.309-3.309
			c0.896-0.896,1.938-1.617,3.094-2.141l3.805-1.722c0.25-0.114,0.548-0.002,0.661,0.25c0.114,0.251,0.003,0.548-0.249,0.662
			l-3.805,1.722c-1.046,0.474-1.987,1.126-2.799,1.937l-3.662,3.662c-0.195,0.195-0.512,0.195-0.707,0l-4.95-4.95l-2.828,2.828
			l6.715,6.715c0.779,0.779,2.049,0.779,2.828,0l4.646-4.645c0.143-0.143,0.359-0.187,0.545-0.108
			c0.187,0.077,0.309,0.26,0.309,0.462v14C25.498,46.275,25.274,46.499,24.998,46.499z"/>
	</g>
	<g>
		<path class="st0" d="M39.002,46.499c-0.276,0-0.5-0.224-0.5-0.5V32c0-0.276,0.224-0.5,0.5-0.5s0.5,0.224,0.5,0.5v14
			C39.502,46.275,39.278,46.499,39.002,46.499z"/>
	</g>
	<g>
		<path class="st0" d="M8.335,28.662c-0.161,0-0.319-0.078-0.416-0.223c-1.106-1.097-1.105-2.999,0.062-4.167
			c0.566-0.567,1.32-0.878,2.121-0.878c0.001,0,0.002,0,0.003,0c0.802,0,1.556,0.313,2.122,0.881
			c0.181,0.182,0.195,0.472,0.032,0.67c-0.165,0.198-0.452,0.24-0.664,0.099c-0.031-0.021-0.059-0.044-0.084-0.07
			c-0.376-0.374-0.876-0.58-1.407-0.58c0,0-0.001,0-0.002,0c-0.534,0-1.036,0.208-1.414,0.585c-0.778,0.779-0.779,2.047-0.002,2.827
			c0.023,0.023,0.046,0.051,0.064,0.079c0.153,0.23,0.091,0.54-0.139,0.693C8.527,28.634,8.431,28.662,8.335,28.662z"/>
	</g>
	<g>
		<path class="st0" d="M41.501,50.928c-0.802,0-1.556-0.312-2.123-0.88c-0.566-0.567-0.878-1.322-0.877-2.124
			c0-0.252,0.188-0.465,0.439-0.496c0.258-0.04,0.484,0.131,0.546,0.375c0.011,0.044,0.016,0.089,0.015,0.133
			c0.002,0.531,0.21,1.029,0.585,1.405c0.378,0.378,0.881,0.587,1.415,0.587c1.102,0,1.998-0.896,2-1.997
			c0-0.046,0.007-0.092,0.02-0.137c0.075-0.266,0.349-0.423,0.618-0.345c0.231,0.066,0.379,0.284,0.362,0.515
			C44.481,49.602,43.143,50.928,41.501,50.928z"/>
	</g>
	<g>
		<path class="st0" d="M39.002,57.999c-0.276,0-0.5-0.224-0.5-0.5v-11h-13v11c0,0.276-0.224,0.5-0.5,0.5s-0.5-0.224-0.5-0.5v-11.5
			c0-0.276,0.224-0.5,0.5-0.5h14c0.276,0,0.5,0.224,0.5,0.5v11.5C39.502,57.775,39.278,57.999,39.002,57.999z"/>
	</g>
	<g>
		<path class="st0" d="M32.002,57.999c-0.276,0-0.5-0.224-0.5-0.5v-6.5c0-0.276,0.224-0.5,0.5-0.5s0.5,0.224,0.5,0.5v6.5
			C32.502,57.775,32.278,57.999,32.002,57.999z"/>
	</g>
	<g>
		<path class="st0" d="M52.5,49.999c-3.584,0-6.5-2.916-6.5-6.5s2.916-6.5,6.5-6.5s6.5,2.916,6.5,6.5S56.084,49.999,52.5,49.999z
			 M52.5,37.999c-3.032,0-5.5,2.467-5.5,5.5s2.468,5.5,5.5,5.5s5.5-2.467,5.5-5.5S55.532,37.999,52.5,37.999z"/>
	</g>
	<g>
		<path class="st1" d="M56.66,40.03l0.447-0.372c-1.101-1.319-2.755-2.159-4.607-2.159c-3.314,0-6,2.686-6,6h0.566
			C50.571,43.499,53.966,42.272,56.66,40.03z"/>
		<path class="st0" d="M47.066,43.999H46.5c-0.276,0-0.5-0.224-0.5-0.5c0-3.584,2.916-6.5,6.5-6.5c1.932,0,3.751,0.852,4.991,2.338
			c0.085,0.102,0.126,0.233,0.114,0.366c-0.012,0.132-0.076,0.254-0.179,0.339l-0.447,0.372
			C54.201,42.726,50.681,43.999,47.066,43.999z M47.022,42.999h0.044c3.381,0,6.675-1.191,9.274-3.354l0,0l0.045-0.038
			c-1.029-1.028-2.419-1.609-3.886-1.609C49.636,37.999,47.275,40.2,47.022,42.999z"/>
	</g>
	<g>
		<path class="st0" d="M52.504,55.495c-0.167,0-0.323-0.083-0.416-0.223l-3.003-4.5c-0.055-0.082-0.084-0.178-0.084-0.277
			l-0.002-1.804c0-0.276,0.224-0.5,0.499-0.5c0.001,0,0.001,0,0.001,0c0.276,0,0.5,0.224,0.5,0.5l0.002,1.652l2.503,3.751
			l2.497-3.75l-0.002-1.647c0-0.276,0.224-0.5,0.499-0.5c0.001,0,0.001,0,0.001,0c0.276,0,0.5,0.224,0.5,0.5l0.002,1.798
			c0,0.099-0.029,0.195-0.084,0.278l-2.997,4.5C52.827,55.411,52.671,55.495,52.504,55.495L52.504,55.495z"/>
	</g>
	<g>
		<path class="st0" d="M62.5,57.996c-0.276,0-0.5-0.224-0.5-0.5v-0.41c0-1.715-0.953-3.257-2.487-4.025l-4.236-2.118
			c-0.247-0.124-0.347-0.424-0.224-0.671c0.124-0.248,0.425-0.344,0.671-0.224l4.236,2.118C61.835,53.104,63,54.99,63,57.086v0.41
			C63,57.772,62.776,57.996,62.5,57.996z"/>
	</g>
	<g>
		<path class="st0" d="M42.5,57.998c-0.276,0-0.5-0.224-0.5-0.5v-0.413c0-2.095,1.164-3.979,3.037-4.917l4.235-2.122
			c0.244-0.123,0.547-0.024,0.671,0.223c0.123,0.247,0.023,0.547-0.224,0.671l-4.235,2.122C43.952,53.83,43,55.372,43,57.085v0.413
			C43,57.774,42.776,57.998,42.5,57.998z"/>
	</g>
	<g>
		<path class="st0" d="M52.5,57.999c-0.276,0-0.5-0.224-0.5-0.5v-2.504c0-0.276,0.224-0.5,0.5-0.5s0.5,0.224,0.5,0.5v2.504
			C53,57.775,52.776,57.999,52.5,57.999z"/>
	</g>
	<g>
		<path class="st0" d="M11.5,49.999c-3.584,0-6.5-2.916-6.5-6.5s2.916-6.5,6.5-6.5s6.5,2.916,6.5,6.5S15.084,49.999,11.5,49.999z
			 M11.5,37.999c-3.032,0-5.5,2.467-5.5,5.5s2.468,5.5,5.5,5.5s5.5-2.467,5.5-5.5S14.532,37.999,11.5,37.999z"/>
	</g>
	<g>
		<path class="st1" d="M15.66,40.03l0.447-0.372c-1.101-1.319-2.755-2.159-4.607-2.159c-3.314,0-6,2.686-6,6h0.566
			C9.572,43.499,12.966,42.272,15.66,40.03z"/>
		<path class="st0" d="M6.066,43.999H5.5c-0.276,0-0.5-0.224-0.5-0.5c0-3.584,2.916-6.5,6.5-6.5c1.932,0,3.751,0.852,4.991,2.338
			c0.085,0.102,0.126,0.233,0.114,0.366c-0.012,0.132-0.076,0.254-0.179,0.339l-0.447,0.372
			C13.201,42.726,9.681,43.999,6.066,43.999z M6.022,42.999h0.044c3.381,0,6.675-1.191,9.274-3.354l0,0l0.045-0.038
			c-1.029-1.028-2.419-1.609-3.886-1.609C8.636,37.999,6.275,40.2,6.022,42.999z"/>
	</g>
	<g>
		<path class="st0" d="M11.505,55.495c-0.167,0-0.323-0.083-0.416-0.223l-3.004-4.5c-0.055-0.082-0.084-0.178-0.084-0.277
			l-0.002-1.804c0-0.276,0.224-0.5,0.499-0.5c0.001,0,0.001,0,0.001,0c0.276,0,0.5,0.224,0.5,0.5l0.002,1.652l2.503,3.751
			l2.497-3.75l-0.002-1.647c0-0.276,0.224-0.5,0.499-0.5c0.001,0,0.001,0,0.001,0c0.276,0,0.5,0.224,0.5,0.5l0.002,1.798
			c0,0.099-0.029,0.195-0.084,0.277l-2.996,4.5C11.828,55.411,11.673,55.495,11.505,55.495L11.505,55.495z"/>
	</g>
	<g>
		<path class="st0" d="M21.5,57.996c-0.276,0-0.5-0.224-0.5-0.5v-0.41c0-1.715-0.953-3.257-2.487-4.025l-4.236-2.118
			c-0.247-0.124-0.347-0.424-0.224-0.671c0.125-0.248,0.424-0.344,0.671-0.224l4.236,2.118C20.835,53.104,22,54.99,22,57.086v0.41
			C22,57.772,21.776,57.996,21.5,57.996z"/>
	</g>
	<g>
		<path class="st0" d="M1.5,57.998c-0.276,0-0.5-0.224-0.5-0.5v-0.413c0-2.095,1.164-3.979,3.037-4.917l4.235-2.122
			c0.244-0.123,0.547-0.024,0.671,0.223c0.123,0.247,0.023,0.547-0.224,0.671l-4.235,2.122C2.952,53.83,2,55.372,2,57.085v0.413
			C2,57.774,1.776,57.998,1.5,57.998z"/>
	</g>
	<g>
		<path class="st0" d="M11.5,57.999c-0.276,0-0.5-0.224-0.5-0.5v-2.504c0-0.276,0.224-0.5,0.5-0.5s0.5,0.224,0.5,0.5v2.504
			C12,57.775,11.776,57.999,11.5,57.999z"/>
	</g>
	<g>
		<path class="st0" d="M10.005,17.92c-3.032,0-5.5-2.467-5.5-5.5v-5c0-0.276,0.224-0.5,0.5-0.5h10c0.276,0,0.5,0.224,0.5,0.5v5
			C15.505,15.453,13.037,17.92,10.005,17.92z M5.505,7.92v4.5c0,2.481,2.019,4.5,4.5,4.5s4.5-2.019,4.5-4.5v-4.5H5.505z"/>
	</g>
	<g>
		<path class="st0" d="M11.005,22.394c-0.276,0-0.5-0.224-0.5-0.5V17.92h-1v3.973c0,0.276-0.224,0.5-0.5,0.5s-0.5-0.224-0.5-0.5
			V17.42c0-0.276,0.224-0.5,0.5-0.5h2c0.276,0,0.5,0.224,0.5,0.5v4.473C11.505,22.17,11.281,22.394,11.005,22.394z"/>
	</g>
	<g>
		<path class="st0" d="M5.005,13.92h-1c-1.654,0-3-1.346-3-3v-2c0-0.276,0.224-0.5,0.5-0.5h3.5c0.276,0,0.5,0.224,0.5,0.5v4.5
			C5.505,13.697,5.281,13.92,5.005,13.92z M2.005,9.42v1.5c0,1.103,0.897,2,2,2h0.5v-3.5H2.005z"/>
	</g>
	<g>
		<path class="st0" d="M16.005,13.92h-1c-0.276,0-0.5-0.224-0.5-0.5v-4.5c0-0.276,0.224-0.5,0.5-0.5h3.5c0.276,0,0.5,0.224,0.5,0.5
			v2C19.005,12.575,17.659,13.92,16.005,13.92z M15.505,12.92h0.5c1.103,0,2-0.897,2-2v-1.5h-2.5V12.92z"/>
	</g>
</g>
</svg>
