<?xml version="1.0" encoding="utf-8"?>
<!-- Generator: Adobe Illustrator 21.1.0, SVG Export Plug-In . SVG Version: 6.00 Build 0)  -->
<svg version="1.1" id="Layer_1" xmlns="http://www.w3.org/2000/svg" xmlns:xlink="http://www.w3.org/1999/xlink" x="0px" y="0px"
	 viewBox="0 0 64 64" style="enable-background:new 0 0 64 64;" xml:space="preserve">
<style type="text/css">
	.st0{fill:#263238;}
	.st1{fill:#FFD740;}
	.st2{fill:#40C4FF;}
	.st3{fill:#FF5252;}
	.st4{fill:#4DB6AC;}
	.st5{fill:#FFFFFF;}
	.st6{fill:#37474F;}
	.st7{fill:#4FC3F7;}
</style>
<g>
	<g>
		<path class="st0" d="M59,12.5h-4c-0.276,0-0.5-0.224-0.5-0.5s0.224-0.5,0.5-0.5h4c0.276,0,0.5,0.224,0.5,0.5S59.276,12.5,59,12.5z
			"/>
	</g>
	<g>
		<path class="st0" d="M54,6.5h-4c-0.276,0-0.5-0.224-0.5-0.5s0.224-0.5,0.5-0.5h4c0.276,0,0.5,0.224,0.5,0.5S54.276,6.5,54,6.5z"/>
	</g>
	<g>
		<path class="st0" d="M52,8.5c-0.276,0-0.5-0.224-0.5-0.5V4c0-0.276,0.224-0.5,0.5-0.5s0.5,0.224,0.5,0.5v4
			C52.5,8.276,52.276,8.5,52,8.5z"/>
	</g>
	<g>
		<path class="st0" d="M57,14.5c-0.276,0-0.5-0.224-0.5-0.5v-4c0-0.276,0.224-0.5,0.5-0.5s0.5,0.224,0.5,0.5v4
			C57.5,14.276,57.276,14.5,57,14.5z"/>
	</g>
	<g>
		<path class="st0" d="M6,58.5H5c-0.276,0-0.5-0.224-0.5-0.5s0.224-0.5,0.5-0.5h1c0.276,0,0.5,0.224,0.5,0.5S6.276,58.5,6,58.5z"/>
	</g>
	<g>
		<path class="st0" d="M19,58.5H8c-0.276,0-0.5-0.224-0.5-0.5s0.224-0.5,0.5-0.5h11c0.276,0,0.5,0.224,0.5,0.5S19.276,58.5,19,58.5z
			"/>
	</g>
	<g>
		<path class="st0" d="M55,58.5h-1c-0.276,0-0.5-0.224-0.5-0.5s0.224-0.5,0.5-0.5h1c0.276,0,0.5,0.224,0.5,0.5S55.276,58.5,55,58.5z
			"/>
	</g>
	<g>
		<path class="st0" d="M52,58.5H41c-0.276,0-0.5-0.224-0.5-0.5s0.224-0.5,0.5-0.5h11c0.276,0,0.5,0.224,0.5,0.5S52.276,58.5,52,58.5
			z"/>
	</g>
	<g>
		<path class="st0" d="M38,62.5c-0.276,0-0.5-0.224-0.5-0.5v-9c0-0.276,0.224-0.5,0.5-0.5s0.5,0.224,0.5,0.5v9
			C38.5,62.276,38.276,62.5,38,62.5z"/>
	</g>
	<g>
		<path class="st1" d="M18.487,12c0-3.115-2.848-5.565-6.083-4.886c-1.908,0.4-3.437,1.958-3.816,3.87
			c-0.336,1.696,0.191,3.263,1.214,4.372c0.725,0.786,1.185,1.778,1.185,2.848V18.5h5v-0.295c0-1.075,0.47-2.068,1.196-2.861
			C17.991,14.461,18.487,13.292,18.487,12z"/>
		<path class="st0" d="M15.987,19h-5c-0.276,0-0.5-0.224-0.5-0.5v-0.297c0-0.881-0.374-1.771-1.053-2.508
			c-1.198-1.299-1.685-3.052-1.337-4.808c0.418-2.109,2.107-3.822,4.204-4.262c1.659-0.351,3.357,0.054,4.65,1.104
			c1.293,1.05,2.035,2.607,2.035,4.271c0,1.363-0.51,2.67-1.435,3.681c-0.486,0.53-1.065,1.398-1.065,2.523V18.5
			C16.487,18.776,16.264,19,15.987,19z M11.482,18h4.01c0.054-1.061,0.519-2.117,1.322-2.995c0.757-0.825,1.173-1.893,1.173-3.005
			c0-1.362-0.607-2.636-1.665-3.495c-1.059-0.859-2.447-1.188-3.815-0.902C10.798,7.961,9.42,9.358,9.078,11.08
			c-0.285,1.44,0.112,2.875,1.091,3.936C10.969,15.883,11.43,16.936,11.482,18z"/>
	</g>
	<g>
		<path class="st0" d="M13.487,24c-1.654,0-3-1.346-3-3v-2.5c0-0.276,0.224-0.5,0.5-0.5h5c0.276,0,0.5,0.224,0.5,0.5V21
			C16.487,22.654,15.142,24,13.487,24z M11.487,19v2c0,1.103,0.897,2,2,2s2-0.897,2-2v-2H11.487z"/>
	</g>
	<g>
		<path class="st0" d="M15.987,21.5h-5c-0.276,0-0.5-0.224-0.5-0.5s0.224-0.5,0.5-0.5h5c0.276,0,0.5,0.224,0.5,0.5
			S16.264,21.5,15.987,21.5z"/>
	</g>
	<g>
		<path class="st0" d="M13.487,4.5c-0.276,0-0.5-0.224-0.5-0.5V2c0-0.276,0.224-0.5,0.5-0.5s0.5,0.224,0.5,0.5v2
			C13.987,4.276,13.764,4.5,13.487,4.5z"/>
	</g>
	<g>
		<path class="st0" d="M8.487,6.207c-0.128,0-0.256-0.049-0.354-0.146L6.72,4.646c-0.195-0.195-0.195-0.512,0-0.707
			s0.512-0.195,0.707,0l1.414,1.414c0.195,0.195,0.195,0.512,0,0.707C8.743,6.158,8.615,6.207,8.487,6.207z"/>
	</g>
	<g>
		<path class="st0" d="M18.487,6.207c-0.128,0-0.256-0.049-0.354-0.146c-0.195-0.195-0.195-0.512,0-0.707l1.414-1.414
			c0.195-0.195,0.512-0.195,0.707,0s0.195,0.512,0,0.707L18.841,6.06C18.743,6.158,18.615,6.207,18.487,6.207z"/>
	</g>
	<g>
		<path class="st0" d="M13.487,19c-0.276,0-0.5-0.224-0.5-0.5v-5c0-0.276,0.224-0.5,0.5-0.5s0.5,0.224,0.5,0.5v5
			C13.987,18.776,13.764,19,13.487,19z"/>
	</g>
	<g>
		<path class="st0" d="M22,62.5c-0.276,0-0.5-0.224-0.5-0.5l-0.001-14.952l-3.062-2.702c-4.408-3.89-6.937-9.493-6.937-15.372V27
			c0-0.664,0.048-1.303,0.09-1.786c0.024-0.275,0.277-0.482,0.541-0.455c0.275,0.024,0.479,0.266,0.455,0.541
			c-0.04,0.463-0.086,1.074-0.086,1.7v1.974c0,5.592,2.405,10.922,6.599,14.622l3.231,2.851c0.107,0.095,0.169,0.231,0.169,0.375
			L22.5,62C22.5,62.275,22.276,62.5,22,62.5z"/>
	</g>
	<g>
		<path class="st0" d="M44.5,53.5H33c-0.276,0-0.5-0.224-0.5-0.5s0.224-0.5,0.5-0.5h11.5c3.859,0,7-3.14,7-7V39
			c0-0.276,0.224-0.5,0.5-0.5h2.643c0.764,0,1.429-0.405,1.778-1.084c0.35-0.68,0.293-1.456-0.151-2.078l-4.677-6.547
			C51.532,28.706,51.5,28.604,51.5,28.5V27c0-10.752-8.748-19.5-19.5-19.5c-4.081,0-8.002,1.265-11.339,3.657
			c-0.224,0.16-0.536,0.11-0.697-0.115c-0.161-0.225-0.109-0.537,0.115-0.698C23.586,7.829,27.709,6.5,32,6.5
			c11.304,0,20.5,9.196,20.5,20.5v1.339l4.584,6.417c0.655,0.918,0.742,2.113,0.226,3.117c-0.517,1.003-1.538,1.627-2.667,1.627
			H52.5v6C52.5,49.911,48.911,53.5,44.5,53.5z"/>
	</g>
	<g>
		<circle class="st2" cx="32.147" cy="25" r="12"/>
		<path class="st0" d="M32.146,37.5c-6.893,0-12.5-5.607-12.5-12.5s5.607-12.5,12.5-12.5s12.5,5.607,12.5,12.5
			S39.039,37.5,32.146,37.5z M32.146,13.5c-6.341,0-11.5,5.159-11.5,11.5s5.159,11.5,11.5,11.5s11.5-5.159,11.5-11.5
			S38.487,13.5,32.146,13.5z"/>
	</g>
	<g>
		<path class="st0" d="M32.146,19.5c-3.477,0-6.818-0.752-9.169-2.063c-0.241-0.134-0.328-0.439-0.193-0.68
			c0.135-0.243,0.439-0.327,0.68-0.193c2.207,1.23,5.371,1.937,8.683,1.937c3.311,0,6.476-0.706,8.684-1.937
			c0.24-0.133,0.544-0.049,0.68,0.193c0.135,0.241,0.048,0.546-0.193,0.68C38.965,18.748,35.622,19.5,32.146,19.5z"/>
	</g>
	<g>
		<path class="st0" d="M41.073,33.5c-0.083,0-0.166-0.021-0.243-0.063c-2.209-1.23-5.374-1.937-8.684-1.937
			c-3.311,0-6.475,0.706-8.683,1.937c-0.239,0.134-0.545,0.049-0.68-0.193c-0.135-0.241-0.048-0.546,0.193-0.68
			c2.352-1.312,5.693-2.063,9.169-2.063s6.817,0.752,9.17,2.063c0.241,0.134,0.328,0.439,0.193,0.68
			C41.419,33.407,41.248,33.5,41.073,33.5z"/>
	</g>
	<g>
		<path class="st0" d="M32.146,37.5c-4.372,0-7.929-5.607-7.929-12.5s3.557-12.5,7.929-12.5s7.929,5.607,7.929,12.5
			S36.519,37.5,32.146,37.5z M32.146,13.5c-3.82,0-6.929,5.159-6.929,11.5s3.108,11.5,6.929,11.5s6.929-5.159,6.929-11.5
			S35.967,13.5,32.146,13.5z"/>
	</g>
	<g>
		<path class="st0" d="M32.146,37.5c-0.276,0-0.5-0.224-0.5-0.5V13c0-0.276,0.224-0.5,0.5-0.5s0.5,0.224,0.5,0.5v24
			C32.646,37.276,32.423,37.5,32.146,37.5z"/>
	</g>
	<g>
		<path class="st0" d="M44.146,25.5h-24c-0.276,0-0.5-0.224-0.5-0.5s0.224-0.5,0.5-0.5h24c0.276,0,0.5,0.224,0.5,0.5
			S44.423,25.5,44.146,25.5z"/>
	</g>
</g>
</svg>
