<?xml version="1.0" encoding="utf-8"?>
<!-- Generator: Adobe Illustrator 21.1.0, SVG Export Plug-In . SVG Version: 6.00 Build 0)  -->
<svg version="1.1" id="Layer_1" xmlns="http://www.w3.org/2000/svg" xmlns:xlink="http://www.w3.org/1999/xlink" x="0px" y="0px"
	 viewBox="0 0 64 64" style="enable-background:new 0 0 64 64;" xml:space="preserve">
<style type="text/css">
	.st0{fill:#263238;}
	.st1{fill:#FFD740;}
	.st2{fill:#40C4FF;}
	.st3{fill:#FF5252;}
	.st4{fill:#4DB6AC;}
	.st5{fill:#FFFFFF;}
	.st6{fill:#37474F;}
	.st7{fill:#4FC3F7;}
</style>
<g>
	<g>
		<path class="st2" d="M39.74,18.667h-0.05c-0.254-2.523-2.359-4.5-4.95-4.5c-1.131,0-2.162,0.39-3,1.023
			c-0.838-0.633-1.869-1.023-3-1.023c-2.623,0-4.751,2.027-4.959,4.597c-2.394,0.466-4.179,2.635-4.032,5.197
			c0.154,2.681,2.522,4.706,5.207,4.706l1.784,0v3.238c0,0.935,1.169,1.359,1.768,0.64l3.232-3.878h8c3.3,0,5.854-3.198,4.731-6.664
			C43.817,19.983,41.863,18.667,39.74,18.667z"/>
		<path class="st0" d="M27.748,33.407c-0.173,0-0.348-0.03-0.519-0.092c-0.601-0.218-0.989-0.771-0.989-1.411v-2.738h-1.284
			c-3.034,0-5.54-2.274-5.706-5.178c-0.15-2.612,1.581-4.97,4.075-5.633c0.395-2.698,2.662-4.689,5.416-4.689
			c1.066,0,2.097,0.313,3,0.911c0.904-0.597,1.934-0.911,3-0.911c2.674,0,4.916,1.911,5.386,4.513
			c2.237,0.149,4.146,1.586,4.821,3.669c0.571,1.764,0.295,3.604-0.757,5.05c-1.033,1.42-2.696,2.268-4.45,2.268h-7.766
			l-3.082,3.698C28.599,33.216,28.182,33.407,27.748,33.407z M28.74,14.667c-2.352,0-4.269,1.779-4.46,4.137
			c-0.019,0.223-0.183,0.407-0.403,0.45c-2.197,0.428-3.757,2.438-3.629,4.678c0.136,2.375,2.204,4.235,4.708,4.235h1.784
			c0.276,0,0.5,0.224,0.5,0.5v3.238c0,0.326,0.252,0.442,0.33,0.47s0.347,0.1,0.555-0.15l3.231-3.878
			c0.095-0.114,0.236-0.18,0.384-0.18h8c1.435,0,2.796-0.694,3.642-1.856c0.861-1.185,1.085-2.698,0.614-4.154
			c-0.57-1.76-2.32-2.99-4.256-2.99h-0.051c-0.257,0-0.472-0.194-0.497-0.45c-0.232-2.309-2.146-4.05-4.452-4.05
			c-0.968,0-1.901,0.319-2.699,0.921c-0.178,0.135-0.425,0.135-0.603,0C30.641,14.985,29.708,14.667,28.74,14.667z"/>
	</g>
	<g>
		<path class="st0" d="M59,12.5h-4c-0.276,0-0.5-0.224-0.5-0.5s0.224-0.5,0.5-0.5h4c0.276,0,0.5,0.224,0.5,0.5S59.276,12.5,59,12.5z
			"/>
	</g>
	<g>
		<path class="st0" d="M54,6.5h-4c-0.276,0-0.5-0.224-0.5-0.5s0.224-0.5,0.5-0.5h4c0.276,0,0.5,0.224,0.5,0.5S54.276,6.5,54,6.5z"/>
	</g>
	<g>
		<path class="st0" d="M52,8.5c-0.276,0-0.5-0.224-0.5-0.5V4c0-0.276,0.224-0.5,0.5-0.5s0.5,0.224,0.5,0.5v4
			C52.5,8.276,52.276,8.5,52,8.5z"/>
	</g>
	<g>
		<path class="st0" d="M57,14.5c-0.276,0-0.5-0.224-0.5-0.5v-4c0-0.276,0.224-0.5,0.5-0.5s0.5,0.224,0.5,0.5v4
			C57.5,14.276,57.276,14.5,57,14.5z"/>
	</g>
	<g>
		<path class="st0" d="M6,58.5H5c-0.276,0-0.5-0.224-0.5-0.5s0.224-0.5,0.5-0.5h1c0.276,0,0.5,0.224,0.5,0.5S6.276,58.5,6,58.5z"/>
	</g>
	<g>
		<path class="st0" d="M19,58.5H8c-0.276,0-0.5-0.224-0.5-0.5s0.224-0.5,0.5-0.5h11c0.276,0,0.5,0.224,0.5,0.5S19.276,58.5,19,58.5z
			"/>
	</g>
	<g>
		<path class="st0" d="M55,58.5h-1c-0.276,0-0.5-0.224-0.5-0.5s0.224-0.5,0.5-0.5h1c0.276,0,0.5,0.224,0.5,0.5S55.276,58.5,55,58.5z
			"/>
	</g>
	<g>
		<path class="st0" d="M52,58.5H41c-0.276,0-0.5-0.224-0.5-0.5s0.224-0.5,0.5-0.5h11c0.276,0,0.5,0.224,0.5,0.5S52.276,58.5,52,58.5
			z"/>
	</g>
	<g>
		<path class="st0" d="M38,62.5c-0.276,0-0.5-0.224-0.5-0.5v-9c0-0.276,0.224-0.5,0.5-0.5s0.5,0.224,0.5,0.5v9
			C38.5,62.276,38.276,62.5,38,62.5z"/>
	</g>
	<g>
		<path class="st0" d="M26.24,25.167c-0.827,0-1.5-0.673-1.5-1.5s0.673-1.5,1.5-1.5s1.5,0.673,1.5,1.5S27.067,25.167,26.24,25.167z
			 M26.24,23.167c-0.276,0-0.5,0.224-0.5,0.5s0.224,0.5,0.5,0.5s0.5-0.224,0.5-0.5S26.516,23.167,26.24,23.167z"/>
	</g>
	<g>
		<path class="st0" d="M32.24,25.167c-0.827,0-1.5-0.673-1.5-1.5s0.673-1.5,1.5-1.5c0.828,0,1.5,0.673,1.5,1.5
			S33.067,25.167,32.24,25.167z M32.24,23.167c-0.276,0-0.5,0.224-0.5,0.5s0.224,0.5,0.5,0.5s0.5-0.224,0.5-0.5
			S32.516,23.167,32.24,23.167z"/>
	</g>
	<g>
		<path class="st0" d="M38.24,25.167c-0.827,0-1.5-0.673-1.5-1.5s0.673-1.5,1.5-1.5s1.5,0.673,1.5,1.5S39.067,25.167,38.24,25.167z
			 M38.24,23.167c-0.275,0-0.5,0.224-0.5,0.5s0.225,0.5,0.5,0.5s0.5-0.224,0.5-0.5S38.516,23.167,38.24,23.167z"/>
	</g>
	<g>
		<path class="st1" d="M18.487,12c0-3.115-2.848-5.565-6.083-4.886c-1.908,0.4-3.437,1.958-3.816,3.87
			c-0.336,1.696,0.191,3.263,1.214,4.372c0.725,0.786,1.185,1.778,1.185,2.848V18.5h5v-0.295c0-1.075,0.47-2.068,1.196-2.861
			C17.991,14.461,18.487,13.292,18.487,12z"/>
		<path class="st0" d="M15.987,19h-5c-0.276,0-0.5-0.224-0.5-0.5v-0.297c0-0.881-0.374-1.772-1.053-2.509
			c-1.197-1.299-1.685-3.051-1.336-4.808c0.418-2.11,2.108-3.822,4.204-4.262c1.661-0.35,3.356,0.053,4.65,1.104
			c1.293,1.05,2.035,2.607,2.035,4.272c0,1.363-0.51,2.67-1.435,3.681c-0.486,0.53-1.065,1.399-1.065,2.523V18.5
			C16.487,18.776,16.263,19,15.987,19z M11.482,18h4.01c0.051-1.071,0.506-2.103,1.323-2.995c0.756-0.825,1.172-1.893,1.172-3.005
			c0-1.362-0.607-2.636-1.666-3.496s-2.447-1.189-3.814-0.901c-1.709,0.358-3.087,1.756-3.429,3.478
			c-0.285,1.439,0.113,2.874,1.091,3.936C10.968,15.883,11.43,16.935,11.482,18z"/>
	</g>
	<g>
		<path class="st0" d="M13.487,24c-1.654,0-3-1.346-3-3v-2.5c0-0.276,0.224-0.5,0.5-0.5h5c0.276,0,0.5,0.224,0.5,0.5V21
			C16.487,22.654,15.141,24,13.487,24z M11.487,19v2c0,1.103,0.897,2,2,2s2-0.897,2-2v-2H11.487z"/>
	</g>
	<g>
		<path class="st0" d="M15.987,21.5h-5c-0.276,0-0.5-0.224-0.5-0.5s0.224-0.5,0.5-0.5h5c0.276,0,0.5,0.224,0.5,0.5
			S16.263,21.5,15.987,21.5z"/>
	</g>
	<g>
		<path class="st0" d="M13.487,4.5c-0.276,0-0.5-0.224-0.5-0.5V2c0-0.276,0.224-0.5,0.5-0.5s0.5,0.224,0.5,0.5v2
			C13.987,4.276,13.763,4.5,13.487,4.5z"/>
	</g>
	<g>
		<path class="st0" d="M8.487,6.207c-0.128,0-0.256-0.049-0.354-0.146L6.719,4.646c-0.195-0.195-0.195-0.512,0-0.707
			s0.512-0.195,0.707,0L8.84,5.354c0.195,0.195,0.195,0.512,0,0.707C8.743,6.158,8.615,6.207,8.487,6.207z"/>
	</g>
	<g>
		<path class="st0" d="M18.487,6.207c-0.128,0-0.256-0.049-0.354-0.146c-0.195-0.195-0.195-0.512,0-0.707l1.415-1.414
			c0.195-0.195,0.512-0.195,0.707,0s0.195,0.512,0,0.707L18.84,6.061C18.743,6.158,18.615,6.207,18.487,6.207z"/>
	</g>
	<g>
		<path class="st0" d="M13.487,19c-0.276,0-0.5-0.224-0.5-0.5v-5c0-0.276,0.224-0.5,0.5-0.5s0.5,0.224,0.5,0.5v5
			C13.987,18.776,13.763,19,13.487,19z"/>
	</g>
	<g>
		<path class="st0" d="M22,62.5c-0.276,0-0.5-0.224-0.5-0.5l-0.001-14.952l-3.062-2.702c-4.408-3.889-6.937-9.492-6.937-15.372V27
			c0-0.664,0.048-1.303,0.09-1.785c0.023-0.275,0.26-0.49,0.541-0.455c0.275,0.024,0.479,0.266,0.455,0.541
			C12.546,25.764,12.5,26.375,12.5,27v1.975c0,5.593,2.405,10.922,6.598,14.622l3.231,2.851c0.107,0.095,0.169,0.231,0.169,0.375
			L22.5,62C22.5,62.276,22.276,62.5,22,62.5z"/>
	</g>
	<g>
		<path class="st0" d="M44.5,53.5H33c-0.276,0-0.5-0.224-0.5-0.5s0.224-0.5,0.5-0.5h11.5c3.859,0,7-3.14,7-7V39
			c0-0.276,0.224-0.5,0.5-0.5h2.643c0.764,0,1.429-0.405,1.778-1.084c0.35-0.68,0.293-1.456-0.151-2.078l-4.677-6.547
			C51.532,28.706,51.5,28.604,51.5,28.5V27c0-10.752-8.748-19.5-19.5-19.5c-4.082,0-8.003,1.265-11.338,3.657
			c-0.225,0.162-0.537,0.109-0.698-0.115c-0.161-0.225-0.109-0.537,0.115-0.698C23.585,7.829,27.708,6.5,32,6.5
			c11.304,0,20.5,9.196,20.5,20.5v1.34l4.584,6.417c0.655,0.918,0.742,2.113,0.226,3.117c-0.517,1.003-1.538,1.627-2.667,1.627H52.5
			v6C52.5,49.911,48.911,53.5,44.5,53.5z"/>
	</g>
</g>
</svg>
