<?xml version="1.0" encoding="utf-8"?>
<!-- Generator: Adobe Illustrator 21.1.0, SVG Export Plug-In . SVG Version: 6.00 Build 0)  -->
<svg version="1.1" id="Layer_1" xmlns="http://www.w3.org/2000/svg" xmlns:xlink="http://www.w3.org/1999/xlink" x="0px" y="0px"
	 viewBox="0 0 64 64" style="enable-background:new 0 0 64 64;" xml:space="preserve">
<style type="text/css">
	.st0{fill:#263238;}
	.st1{fill:#FFD740;}
	.st2{fill:#40C4FF;}
	.st3{fill:#FF5252;}
	.st4{fill:#4DB6AC;}
	.st5{fill:#FFFFFF;}
	.st6{fill:#37474F;}
	.st7{fill:#4FC3F7;}
</style>
<g>
	<g>
		<path class="st0" d="M4,32.5c-0.276,0-0.5-0.224-0.5-0.5C3.5,16.285,16.285,3.5,32,3.5c0.276,0,0.5,0.224,0.5,0.5
			S32.276,4.5,32,4.5C16.836,4.5,4.5,16.837,4.5,32C4.5,32.276,4.276,32.5,4,32.5z"/>
	</g>
	<g>
		<path class="st0" d="M35,4.5h-1c-0.276,0-0.5-0.224-0.5-0.5s0.224-0.5,0.5-0.5h1c0.276,0,0.5,0.224,0.5,0.5S35.276,4.5,35,4.5z"/>
	</g>
	<g>
		<path class="st0" d="M32,60.5c-0.276,0-0.5-0.224-0.5-0.5s0.224-0.5,0.5-0.5c15.163,0,27.5-12.337,27.5-27.5
			c0-0.276,0.224-0.5,0.5-0.5s0.5,0.224,0.5,0.5C60.5,47.715,47.715,60.5,32,60.5z"/>
	</g>
	<g>
		<path class="st0" d="M30,60.5h-1c-0.276,0-0.5-0.224-0.5-0.5s0.224-0.5,0.5-0.5h1c0.276,0,0.5,0.224,0.5,0.5S30.276,60.5,30,60.5z
			"/>
	</g>
	<g>
		<path class="st0" d="M53,6.5h-4c-0.276,0-0.5-0.224-0.5-0.5s0.224-0.5,0.5-0.5h4c0.276,0,0.5,0.224,0.5,0.5S53.276,6.5,53,6.5z"/>
	</g>
	<g>
		<path class="st0" d="M51,8.5c-0.276,0-0.5-0.224-0.5-0.5V4c0-0.276,0.224-0.5,0.5-0.5s0.5,0.224,0.5,0.5v4
			C51.5,8.276,51.276,8.5,51,8.5z"/>
	</g>
	<g>
		<path class="st0" d="M60,13h-4c-0.276,0-0.5-0.224-0.5-0.5S55.724,12,56,12h4c0.276,0,0.5,0.224,0.5,0.5S60.276,13,60,13z"/>
	</g>
	<g>
		<path class="st0" d="M58,15c-0.276,0-0.5-0.224-0.5-0.5v-4c0-0.276,0.224-0.5,0.5-0.5s0.5,0.224,0.5,0.5v4
			C58.5,14.776,58.276,15,58,15z"/>
	</g>
	<g>
		<path class="st1" d="M35.382,19h-6.764c-0.743,0-1.227-0.782-0.894-1.447l3.382-6.764c0.369-0.737,1.42-0.737,1.789,0l3.382,6.764
			C36.609,18.218,36.125,19,35.382,19z"/>
		<path class="st0" d="M35.382,19.5h-6.764c-0.524,0-1.001-0.266-1.276-0.711c-0.275-0.446-0.3-0.991-0.065-1.46l3.382-6.764
			c0.256-0.512,0.77-0.829,1.342-0.829s1.086,0.317,1.341,0.829l3.382,6.764c0.234,0.468,0.21,1.014-0.065,1.459
			S35.906,19.5,35.382,19.5z M32,10.736c-0.193,0-0.361,0.104-0.447,0.276l-3.382,6.764c-0.113,0.226-0.022,0.415,0.022,0.486
			c0.044,0.071,0.173,0.237,0.425,0.237h6.764c0.252,0,0.382-0.166,0.426-0.237s0.134-0.262,0.021-0.486l-3.381-6.764
			C32.361,10.84,32.194,10.736,32,10.736z"/>
	</g>
	<g>
		<path class="st4" d="M51,45h-8c-0.552,0-1-0.448-1-1v-8c0-0.552,0.448-1,1-1h8c0.552,0,1,0.448,1,1v8C52,44.552,51.552,45,51,45z"
			/>
		<path class="st0" d="M51,45.5h-8c-0.827,0-1.5-0.673-1.5-1.5v-8c0-0.827,0.673-1.5,1.5-1.5h8c0.827,0,1.5,0.673,1.5,1.5v8
			C52.5,44.827,51.827,45.5,51,45.5z M43,35.5c-0.275,0-0.5,0.225-0.5,0.5v8c0,0.275,0.225,0.5,0.5,0.5h8c0.275,0,0.5-0.225,0.5-0.5
			v-8c0-0.275-0.225-0.5-0.5-0.5H43z"/>
	</g>
	<g>
		<path class="st0" d="M32,50.5c-3.648,0-7.182-1.066-10.219-3.084c-0.23-0.152-0.292-0.463-0.14-0.692
			c0.152-0.23,0.462-0.292,0.693-0.14C25.207,48.491,28.549,49.5,32,49.5c3.45,0,6.793-1.009,9.666-2.917
			c0.227-0.15,0.539-0.092,0.693,0.141c0.152,0.229,0.09,0.54-0.141,0.693C39.182,49.434,35.648,50.5,32,50.5z"/>
	</g>
	<g>
		<path class="st0" d="M14.05,33.5c-0.263,0-0.484-0.206-0.499-0.473l-0.019-0.29C13.516,32.493,13.5,32.249,13.5,32
			c0-7.455,4.438-14.147,11.306-17.049c0.254-0.105,0.547,0.011,0.655,0.267c0.107,0.254-0.012,0.548-0.266,0.655
			C18.698,18.617,14.5,24.947,14.5,32c0,0.226,0.016,0.447,0.031,0.669l0.019,0.304c0.016,0.275-0.195,0.511-0.471,0.526
			C14.069,33.5,14.06,33.5,14.05,33.5z"/>
	</g>
	<g>
		<path class="st0" d="M49.949,33.5c-0.009,0-0.019,0-0.027-0.001c-0.276-0.016-0.487-0.251-0.472-0.526l0.02-0.304
			c0.015-0.222,0.03-0.443,0.03-0.669c0-7.052-4.198-13.382-10.694-16.127c-0.255-0.107-0.374-0.401-0.267-0.655
			c0.107-0.256,0.402-0.371,0.655-0.267C46.062,17.854,50.5,24.546,50.5,32c0,0.249-0.017,0.493-0.033,0.737l-0.019,0.29
			C50.434,33.294,50.213,33.5,49.949,33.5z"/>
	</g>
	<g>
		<circle class="st2" cx="17" cy="40" r="5"/>
		<path class="st0" d="M17,45.5c-3.033,0-5.5-2.468-5.5-5.5s2.467-5.5,5.5-5.5s5.5,2.468,5.5,5.5S20.033,45.5,17,45.5z M17,35.5
			c-2.481,0-4.5,2.019-4.5,4.5s2.019,4.5,4.5,4.5s4.5-2.019,4.5-4.5S19.481,35.5,17,35.5z"/>
	</g>
	<g>
		<path class="st0" d="M32,38.5c-1.736,0-3.369-0.677-4.596-1.904c-0.195-0.195-0.195-0.512,0-0.707s0.512-0.195,0.707,0
			C29.149,36.928,30.531,37.5,32,37.5c1.469,0,2.85-0.572,3.889-1.611C36.928,34.851,37.5,33.47,37.5,32c0-0.276,0.224-0.5,0.5-0.5
			s0.5,0.224,0.5,0.5c0,1.736-0.677,3.369-1.904,4.596C35.368,37.823,33.736,38.5,32,38.5z"/>
	</g>
	<g>
		<path class="st0" d="M26,32.501c-0.276,0-0.5-0.224-0.5-0.5c0-1.736,0.676-3.369,1.904-4.598c2.534-2.533,6.659-2.533,9.192,0
			c0.195,0.195,0.195,0.512,0,0.707s-0.512,0.195-0.707,0c-2.144-2.144-5.633-2.145-7.778,0c-1.039,1.039-1.611,2.421-1.611,3.891
			C26.5,32.277,26.276,32.501,26,32.501z"/>
	</g>
	<g>
		<path class="st0" d="M26,33.25c-0.128,0-0.256-0.049-0.354-0.146l-1.5-1.5c-0.195-0.195-0.195-0.512,0-0.707s0.512-0.195,0.707,0
			L26,32.043l1.146-1.146c0.195-0.195,0.512-0.195,0.707,0s0.195,0.512,0,0.707l-1.5,1.5C26.255,33.201,26.127,33.25,26,33.25z"/>
	</g>
	<g>
		<path class="st0" d="M39.5,33.25c-0.128,0-0.256-0.049-0.354-0.146L38,31.957l-1.146,1.146c-0.195,0.195-0.512,0.195-0.707,0
			s-0.195-0.512,0-0.707l1.5-1.5c0.195-0.195,0.512-0.195,0.707,0l1.5,1.5c0.195,0.195,0.195,0.512,0,0.707
			C39.756,33.201,39.628,33.25,39.5,33.25z"/>
	</g>
</g>
</svg>
