<?xml version="1.0" encoding="utf-8"?>
<!-- Generator: Adobe Illustrator 21.1.0, SVG Export Plug-In . SVG Version: 6.00 Build 0)  -->
<svg version="1.1" id="Layer_1" xmlns="http://www.w3.org/2000/svg" xmlns:xlink="http://www.w3.org/1999/xlink" x="0px" y="0px"
	 viewBox="0 0 64 64" style="enable-background:new 0 0 64 64;" xml:space="preserve">
<style type="text/css">
	.st0{fill:#263238;}
	.st1{fill:#FFD740;}
	.st2{fill:#40C4FF;}
	.st3{fill:#FF5252;}
	.st4{fill:#4DB6AC;}
	.st5{fill:#FFFFFF;}
	.st6{fill:#37474F;}
	.st7{fill:#4FC3F7;}
</style>
<g>
	<g>
		<path class="st2" d="M50.5,21h-37c-0.552,0-1-0.448-1-1v-3c0-0.552,0.448-1,1-1h37c0.552,0,1,0.448,1,1v3
			C51.5,20.552,51.052,21,50.5,21z"/>
		<path class="st0" d="M50.5,21.5h-37c-0.827,0-1.5-0.673-1.5-1.5v-3c0-0.827,0.673-1.5,1.5-1.5h37c0.827,0,1.5,0.673,1.5,1.5v3
			C52,20.827,51.327,21.5,50.5,21.5z M13.5,16.5c-0.275,0-0.5,0.225-0.5,0.5v3c0,0.275,0.225,0.5,0.5,0.5h37
			c0.275,0,0.5-0.225,0.5-0.5v-3c0-0.275-0.225-0.5-0.5-0.5H13.5z"/>
	</g>
	<g>
		<path class="st2" d="M26,14v-2c0-0.552,0.448-1,1-1h10c0.552,0,1,0.448,1,1v2"/>
		<path class="st0" d="M38,14.5c-0.276,0-0.5-0.224-0.5-0.5v-2c0-0.275-0.225-0.5-0.5-0.5H27c-0.275,0-0.5,0.225-0.5,0.5v2
			c0,0.276-0.224,0.5-0.5,0.5s-0.5-0.224-0.5-0.5v-2c0-0.827,0.673-1.5,1.5-1.5h10c0.827,0,1.5,0.673,1.5,1.5v2
			C38.5,14.276,38.276,14.5,38,14.5z"/>
	</g>
	<g>
		<path class="st0" d="M60,11h-4c-0.276,0-0.5-0.224-0.5-0.5S55.724,10,56,10h4c0.276,0,0.5,0.224,0.5,0.5S60.276,11,60,11z"/>
	</g>
	<g>
		<path class="st0" d="M53.5,6h-4C49.224,6,49,5.776,49,5.5S49.224,5,49.5,5h4C53.776,5,54,5.224,54,5.5S53.776,6,53.5,6z"/>
	</g>
	<g>
		<path class="st0" d="M51.5,8C51.224,8,51,7.776,51,7.5v-4C51,3.224,51.224,3,51.5,3S52,3.224,52,3.5v4C52,7.776,51.776,8,51.5,8z"
			/>
	</g>
	<g>
		<path class="st0" d="M58,13c-0.276,0-0.5-0.224-0.5-0.5v-4C57.5,8.224,57.724,8,58,8s0.5,0.224,0.5,0.5v4
			C58.5,12.776,58.276,13,58,13z"/>
	</g>
	<g>
		<circle class="st1" cx="17" cy="51.5" r="9"/>
		<path class="st0" d="M17,61c-5.238,0-9.5-4.262-9.5-9.5S11.762,42,17,42s9.5,4.262,9.5,9.5S22.238,61,17,61z M17,43
			c-4.687,0-8.5,3.813-8.5,8.5S12.313,60,17,60s8.5-3.813,8.5-8.5S21.687,43,17,43z"/>
	</g>
	<g>
		<path class="st0" d="M45.135,59.5H25.03c-0.276,0-0.5-0.224-0.5-0.5s0.224-0.5,0.5-0.5h20.104c1.062,0,1.938-0.83,1.997-1.889
			l1.869-33.639c0.016-0.275,0.258-0.481,0.526-0.472c0.276,0.015,0.487,0.251,0.472,0.526L48.13,56.666
			C48.042,58.255,46.727,59.5,45.135,59.5z"/>
	</g>
	<g>
		<path class="st0" d="M15.479,41.104c-0.264,0-0.484-0.206-0.499-0.473l-0.979-17.604c-0.016-0.275,0.195-0.512,0.472-0.526
			c0.275-0.009,0.512,0.196,0.526,0.472l0.979,17.604c0.016,0.275-0.195,0.512-0.472,0.526
			C15.497,41.104,15.487,41.104,15.479,41.104z"/>
	</g>
	<g>
		<path class="st0" d="M25,44.466c-0.276,0-0.5-0.224-0.5-0.5V27c0-0.827-0.673-1.5-1.5-1.5s-1.5,0.673-1.5,1.5v14.262
			c0,0.276-0.224,0.5-0.5,0.5s-0.5-0.224-0.5-0.5V27c0-1.379,1.121-2.5,2.5-2.5s2.5,1.121,2.5,2.5v16.966
			C25.5,44.242,25.276,44.466,25,44.466z"/>
	</g>
	<g>
		<path class="st0" d="M32,55.5c-1.379,0-2.5-1.121-2.5-2.5V27c0-1.379,1.121-2.5,2.5-2.5s2.5,1.121,2.5,2.5v26
			C34.5,54.379,33.379,55.5,32,55.5z M32,25.5c-0.827,0-1.5,0.673-1.5,1.5v26c0,0.827,0.673,1.5,1.5,1.5s1.5-0.673,1.5-1.5V27
			C33.5,26.173,32.827,25.5,32,25.5z"/>
	</g>
	<g>
		<path class="st0" d="M41,55.5c-1.379,0-2.5-1.121-2.5-2.5V27c0-1.379,1.121-2.5,2.5-2.5s2.5,1.121,2.5,2.5v26
			C43.5,54.379,42.379,55.5,41,55.5z M41,25.5c-0.827,0-1.5,0.673-1.5,1.5v26c0,0.827,0.673,1.5,1.5,1.5s1.5-0.673,1.5-1.5V27
			C42.5,26.173,41.827,25.5,41,25.5z"/>
	</g>
	<g>
		<polygon class="st5" points="14.291,58 16.458,51.5 13.208,51.5 19.708,45 17.541,51.5 20.791,51.5 		"/>
		<path class="st0" d="M14.291,58.5c-0.091,0-0.182-0.024-0.263-0.074c-0.197-0.122-0.285-0.364-0.212-0.584L15.765,52h-2.557
			c-0.202,0-0.385-0.122-0.462-0.309s-0.034-0.402,0.108-0.545l6.5-6.5c0.166-0.164,0.421-0.192,0.616-0.072
			c0.197,0.122,0.285,0.364,0.212,0.584L18.234,51h2.557c0.202,0,0.385,0.122,0.462,0.309s0.034,0.402-0.108,0.545l-6.5,6.5
			C14.548,58.45,14.42,58.5,14.291,58.5z M14.415,51h2.043c0.161,0,0.312,0.077,0.405,0.208c0.095,0.13,0.12,0.298,0.069,0.45
			l-1.497,4.49L19.584,52h-2.043c-0.161,0-0.312-0.077-0.405-0.208c-0.095-0.13-0.12-0.298-0.069-0.45l1.497-4.49L14.415,51z"/>
	</g>
	<g>
		<path class="st0" d="M2,12.5H1c-0.276,0-0.5-0.224-0.5-0.5s0.224-0.5,0.5-0.5h1c0.276,0,0.5,0.224,0.5,0.5S2.276,12.5,2,12.5z"/>
	</g>
	<g>
		<path class="st0" d="M12.5,12.5H4c-0.276,0-0.5-0.224-0.5-0.5s0.224-0.5,0.5-0.5h8.5c0.276,0,0.5,0.224,0.5,0.5
			S12.776,12.5,12.5,12.5z"/>
	</g>
	<g>
		<path class="st0" d="M63,55.5h-1c-0.276,0-0.5-0.224-0.5-0.5s0.224-0.5,0.5-0.5h1c0.276,0,0.5,0.224,0.5,0.5S63.276,55.5,63,55.5z
			"/>
	</g>
	<g>
		<path class="st0" d="M60,55.5h-8.5c-0.276,0-0.5-0.224-0.5-0.5s0.224-0.5,0.5-0.5H60c0.276,0,0.5,0.224,0.5,0.5
			S60.276,55.5,60,55.5z"/>
	</g>
</g>
</svg>
