<?xml version="1.0" encoding="utf-8"?>
<!-- Generator: Adobe Illustrator 21.1.0, SVG Export Plug-In . SVG Version: 6.00 Build 0)  -->
<svg version="1.1" id="Layer_1" xmlns="http://www.w3.org/2000/svg" xmlns:xlink="http://www.w3.org/1999/xlink" x="0px" y="0px"
	 viewBox="0 0 64 64" style="enable-background:new 0 0 64 64;" xml:space="preserve">
<style type="text/css">
	.st0{fill:#263238;}
	.st1{fill:#FFD740;}
	.st2{fill:#40C4FF;}
	.st3{fill:#FF5252;}
	.st4{fill:#4DB6AC;}
	.st5{fill:#FFFFFF;}
	.st6{fill:#37474F;}
	.st7{fill:#4FC3F7;}
</style>
<g>
	<g>
		<path class="st0" d="M32,46.5c-7.133,0-13.526-3.865-17.634-7.107c-4.43-3.497-7.146-6.939-7.26-7.084
			c-0.142-0.182-0.142-0.436,0-0.617c0.113-0.145,2.83-3.587,7.26-7.084C18.474,21.365,24.867,17.5,32,17.5
			s13.526,3.865,17.634,7.107c4.43,3.497,7.146,6.939,7.26,7.084c0.142,0.182,0.142,0.436,0,0.617
			c-0.113,0.145-2.83,3.587-7.26,7.084C45.526,42.635,39.133,46.5,32,46.5z M8.146,32C9.854,34.042,19.982,45.5,32,45.5
			c12.025,0,22.146-11.457,23.854-13.5C54.146,29.958,44.018,18.5,32,18.5C19.975,18.5,9.854,29.957,8.146,32z"/>
	</g>
	<g>
		<path class="st0" d="M32,46.5c-7.995,0-14.5-6.505-14.5-14.5S24.005,17.5,32,17.5S46.5,24.005,46.5,32S39.995,46.5,32,46.5z
			 M32,18.5c-7.444,0-13.5,6.056-13.5,13.5S24.556,45.5,32,45.5S45.5,39.444,45.5,32S39.444,18.5,32,18.5z"/>
	</g>
	<g>
		<path class="st0" d="M43,32.5c-0.276,0-0.5-0.224-0.5-0.5c0-5.79-4.71-10.5-10.5-10.5c-0.276,0-0.5-0.224-0.5-0.5
			s0.224-0.5,0.5-0.5c6.341,0,11.5,5.159,11.5,11.5C43.5,32.276,43.276,32.5,43,32.5z"/>
	</g>
	<g>
		<polygon class="st3" points="37,40 27,40 32,30 		"/>
		<path class="st0" d="M37,40.5H27c-0.173,0-0.334-0.09-0.426-0.237c-0.091-0.147-0.099-0.331-0.021-0.486l5-10
			c0.17-0.338,0.725-0.338,0.895,0l5,10c0.077,0.155,0.069,0.339-0.021,0.486C37.334,40.41,37.173,40.5,37,40.5z M27.809,39.5h8.383
			L32,31.118L27.809,39.5z"/>
	</g>
	<g>
		<path class="st1" d="M30.211,29.106C30.55,28.429,31.243,28,32,28s1.45,0.428,1.789,1.105l4.131,8.262
			C39.208,35.948,40,34.069,40,32c0-4.418-3.582-8-8-8s-8,3.582-8,8c0,2.068,0.792,3.947,2.08,5.367L30.211,29.106z"/>
	</g>
	<g>
		<path class="st0" d="M37.92,37.868c-0.12,0-0.24-0.043-0.336-0.13c-0.204-0.186-0.22-0.501-0.034-0.706
			c1.258-1.388,1.95-3.175,1.95-5.032c0-4.136-3.364-7.5-7.5-7.5s-7.5,3.364-7.5,7.5c0,1.857,0.692,3.645,1.95,5.032
			c0.186,0.205,0.17,0.521-0.034,0.706c-0.203,0.186-0.521,0.171-0.706-0.034C24.285,36.132,23.5,34.106,23.5,32
			c0-4.687,3.813-8.5,8.5-8.5s8.5,3.813,8.5,8.5c0,2.106-0.785,4.132-2.21,5.704C38.191,37.812,38.056,37.868,37.92,37.868z"/>
	</g>
	<g>
		<path class="st0" d="M17,5h-2c-0.276,0-0.5-0.224-0.5-0.5S14.724,4,15,4h2c0.276,0,0.5,0.224,0.5,0.5S17.276,5,17,5z"/>
	</g>
	<g>
		<path class="st0" d="M2,20c-0.276,0-0.5-0.224-0.5-0.5v-10C1.5,6.468,3.968,4,7,4h6c0.276,0,0.5,0.224,0.5,0.5S13.276,5,13,5H7
			C4.519,5,2.5,7.019,2.5,9.5v10C2.5,19.776,2.276,20,2,20z"/>
	</g>
	<g>
		<path class="st0" d="M49,60h-2c-0.276,0-0.5-0.224-0.5-0.5S46.724,59,47,59h2c0.276,0,0.5,0.224,0.5,0.5S49.276,60,49,60z"/>
	</g>
	<g>
		<path class="st0" d="M57,60h-6c-0.276,0-0.5-0.224-0.5-0.5S50.724,59,51,59h6c2.481,0,4.5-2.019,4.5-4.5v-10
			c0-0.276,0.224-0.5,0.5-0.5s0.5,0.224,0.5,0.5v10C62.5,57.532,60.032,60,57,60z"/>
	</g>
	<g>
		<path class="st0" d="M62,20c-0.276,0-0.5-0.224-0.5-0.5v-10C61.5,7.019,59.481,5,57,5H47c-0.276,0-0.5-0.224-0.5-0.5
			S46.724,4,47,4h10c3.032,0,5.5,2.468,5.5,5.5v10C62.5,19.776,62.276,20,62,20z"/>
	</g>
	<g>
		<path class="st0" d="M17,60H7c-3.032,0-5.5-2.468-5.5-5.5v-10C1.5,44.224,1.724,44,2,44s0.5,0.224,0.5,0.5v10
			C2.5,56.981,4.519,59,7,59h10c0.276,0,0.5,0.224,0.5,0.5S17.276,60,17,60z"/>
	</g>
	<g>
		<path class="st0" d="M48,14h-4c-0.276,0-0.5-0.224-0.5-0.5S43.724,13,44,13h4c0.276,0,0.5,0.224,0.5,0.5S48.276,14,48,14z"/>
	</g>
	<g>
		<path class="st0" d="M46,16c-0.276,0-0.5-0.224-0.5-0.5v-4c0-0.276,0.224-0.5,0.5-0.5s0.5,0.224,0.5,0.5v4
			C46.5,15.776,46.276,16,46,16z"/>
	</g>
	<g>
		<path class="st0" d="M55,18.5h-4c-0.276,0-0.5-0.224-0.5-0.5s0.224-0.5,0.5-0.5h4c0.276,0,0.5,0.224,0.5,0.5S55.276,18.5,55,18.5z
			"/>
	</g>
	<g>
		<path class="st0" d="M53,20.5c-0.276,0-0.5-0.224-0.5-0.5v-4c0-0.276,0.224-0.5,0.5-0.5s0.5,0.224,0.5,0.5v4
			C53.5,20.276,53.276,20.5,53,20.5z"/>
	</g>
</g>
</svg>
