<?xml version="1.0" encoding="utf-8"?>
<!-- Generator: Adobe Illustrator 21.1.0, SVG Export Plug-In . SVG Version: 6.00 Build 0)  -->
<svg version="1.1" id="Layer_1" xmlns="http://www.w3.org/2000/svg" xmlns:xlink="http://www.w3.org/1999/xlink" x="0px" y="0px"
	 viewBox="0 0 64 64" style="enable-background:new 0 0 64 64;" xml:space="preserve">
<style type="text/css">
	.st0{fill:#263238;}
	.st1{fill:#FFD740;}
	.st2{fill:#40C4FF;}
	.st3{fill:#FF5252;}
	.st4{fill:#4DB6AC;}
	.st5{fill:#FFFFFF;}
	.st6{fill:#37474F;}
	.st7{fill:#4FC3F7;}
</style>
<g>
	<g>
		<path class="st0" d="M10.5,6h-4C6.224,6,6,5.776,6,5.5S6.224,5,6.5,5h4C10.776,5,11,5.224,11,5.5S10.776,6,10.5,6z"/>
	</g>
	<g>
		<path class="st0" d="M8.5,8C8.224,8,8,7.776,8,7.5v-4C8,3.224,8.224,3,8.5,3S9,3.224,9,3.5v4C9,7.776,8.776,8,8.5,8z"/>
	</g>
	<g>
		<path class="st0" d="M4.5,10.5h-4C0.224,10.5,0,10.276,0,10s0.224-0.5,0.5-0.5h4C4.776,9.5,5,9.724,5,10S4.776,10.5,4.5,10.5z"/>
	</g>
	<g>
		<path class="st0" d="M2.5,12.5C2.224,12.5,2,12.276,2,12V8c0-0.276,0.224-0.5,0.5-0.5S3,7.724,3,8v4C3,12.276,2.776,12.5,2.5,12.5
			z"/>
	</g>
	<g>
		<path class="st0" d="M57.5,18.5h-51C6.224,18.5,6,18.276,6,18v-5.5c0-1.654,1.346-3,3-3h46c1.654,0,3,1.346,3,3V18
			C58,18.276,57.776,18.5,57.5,18.5z M7,17.5h50v-5c0-1.103-0.897-2-2-2H9c-1.103,0-2,0.897-2,2V17.5z"/>
	</g>
	<g>
		<path class="st0" d="M10,16c-1.103,0-2-0.897-2-2s0.897-2,2-2s2,0.897,2,2S11.103,16,10,16z M10,13c-0.552,0-1,0.449-1,1
			s0.448,1,1,1s1-0.449,1-1S10.552,13,10,13z"/>
	</g>
	<g>
		<path class="st0" d="M15,16c-1.103,0-2-0.897-2-2s0.897-2,2-2s2,0.897,2,2S16.103,16,15,16z M15,13c-0.552,0-1,0.449-1,1
			s0.448,1,1,1s1-0.449,1-1S15.552,13,15,13z"/>
	</g>
	<g>
		<path class="st0" d="M12.5,58.5h-2c-0.276,0-0.5-0.224-0.5-0.5s0.224-0.5,0.5-0.5h2c0.276,0,0.5,0.224,0.5,0.5
			S12.776,58.5,12.5,58.5z"/>
	</g>
	<g>
		<path class="st0" d="M34.5,58.5h-20c-0.276,0-0.5-0.224-0.5-0.5s0.224-0.5,0.5-0.5h20c0.276,0,0.5,0.224,0.5,0.5
			S34.776,58.5,34.5,58.5z"/>
	</g>
	<g>
		<path class="st0" d="M53.5,6.5h-2C51.224,6.5,51,6.276,51,6s0.224-0.5,0.5-0.5h2C53.776,5.5,54,5.724,54,6S53.776,6.5,53.5,6.5z"
			/>
	</g>
	<g>
		<path class="st0" d="M49.5,6.5h-20C29.224,6.5,29,6.276,29,6s0.224-0.5,0.5-0.5h20C49.776,5.5,50,5.724,50,6S49.776,6.5,49.5,6.5z
			"/>
	</g>
	<g>
		<polygon class="st2" points="52.186,49.186 52.186,57.672 54.661,55.197 59.964,60.5 63.5,56.964 58.197,51.661 60.672,49.186 		
			"/>
		<path class="st0" d="M59.965,61c-0.133,0-0.26-0.053-0.354-0.146l-4.95-4.95l-2.121,2.121c-0.144,0.144-0.359,0.186-0.545,0.108
			c-0.187-0.077-0.309-0.26-0.309-0.462v-8.485c0-0.276,0.224-0.5,0.5-0.5h8.485c0.202,0,0.385,0.122,0.462,0.309
			c0.077,0.187,0.034,0.402-0.108,0.545l-2.122,2.122l4.95,4.95c0.195,0.195,0.195,0.512,0,0.707l-3.535,3.536
			C60.225,60.947,60.098,61,59.965,61z M54.661,54.697c0.128,0,0.256,0.049,0.354,0.146l4.95,4.95l2.828-2.829l-4.95-4.95
			c-0.094-0.094-0.146-0.221-0.146-0.354s0.053-0.26,0.146-0.354l1.622-1.622h-6.778v6.778l1.621-1.621
			C54.405,54.746,54.533,54.697,54.661,54.697z"/>
	</g>
	<g>
		<path class="st0" d="M50.187,54.5H9c-1.654,0-3-1.346-3-3V18c0-0.276,0.224-0.5,0.5-0.5h51c0.276,0,0.5,0.224,0.5,0.5v29.187
			c0,0.276-0.224,0.5-0.5,0.5s-0.5-0.224-0.5-0.5V18.5H7v33c0,1.103,0.897,2,2,2h41.187c0.276,0,0.5,0.224,0.5,0.5
			S50.463,54.5,50.187,54.5z"/>
	</g>
	<g>
		<rect x="17" y="21" class="st1" width="30" height="10"/>
		<path class="st0" d="M47,31.5H17c-0.276,0-0.5-0.224-0.5-0.5V21c0-0.276,0.224-0.5,0.5-0.5h30c0.276,0,0.5,0.224,0.5,0.5v10
			C47.5,31.276,47.276,31.5,47,31.5z M17.5,30.5h29v-9h-29V30.5z"/>
	</g>
	<g>
		<path class="st0" d="M47,31.5c-0.053,0-0.105-0.008-0.158-0.026l-30-10c-0.262-0.087-0.403-0.37-0.316-0.632
			c0.088-0.262,0.371-0.401,0.633-0.316l30,10c0.262,0.087,0.403,0.37,0.316,0.632C47.404,31.368,47.209,31.5,47,31.5z"/>
	</g>
	<g>
		<path class="st0" d="M17,31.5c-0.209,0-0.404-0.132-0.475-0.342c-0.087-0.262,0.055-0.545,0.316-0.632l30-10
			c0.261-0.086,0.545,0.054,0.633,0.316c0.087,0.262-0.055,0.545-0.316,0.632l-30,10C17.105,31.492,17.053,31.5,17,31.5z"/>
	</g>
	<g>
		<path class="st0" d="M14,29c-0.128,0-0.256-0.049-0.354-0.146l-2.5-2.5c-0.195-0.195-0.195-0.512,0-0.707l2.5-2.5
			c0.195-0.195,0.512-0.195,0.707,0s0.195,0.512,0,0.707L12.207,26l2.146,2.146c0.195,0.195,0.195,0.512,0,0.707
			C14.256,28.951,14.128,29,14,29z"/>
	</g>
	<g>
		<path class="st0" d="M50,29c-0.128,0-0.256-0.049-0.354-0.146c-0.195-0.195-0.195-0.512,0-0.707L51.793,26l-2.146-2.146
			c-0.195-0.195-0.195-0.512,0-0.707s0.512-0.195,0.707,0l2.5,2.5c0.195,0.195,0.195,0.512,0,0.707l-2.5,2.5
			C50.256,28.951,50.128,29,50,29z"/>
	</g>
	<g>
		<rect x="17" y="35" class="st3" width="8" height="8"/>
		<path class="st0" d="M25,43.5h-8c-0.276,0-0.5-0.224-0.5-0.5v-8c0-0.276,0.224-0.5,0.5-0.5h8c0.276,0,0.5,0.224,0.5,0.5v8
			C25.5,43.276,25.276,43.5,25,43.5z M17.5,42.5h7v-7h-7V42.5z"/>
	</g>
	<g>
		<path class="st0" d="M25,43.5c-0.128,0-0.256-0.049-0.354-0.146l-8-8c-0.195-0.195-0.195-0.512,0-0.707s0.512-0.195,0.707,0l8,8
			c0.195,0.195,0.195,0.512,0,0.707C25.256,43.451,25.128,43.5,25,43.5z"/>
	</g>
	<g>
		<path class="st0" d="M17,43.5c-0.128,0-0.256-0.049-0.354-0.146c-0.195-0.195-0.195-0.512,0-0.707l8-8
			c0.195-0.195,0.512-0.195,0.707,0s0.195,0.512,0,0.707l-8,8C17.256,43.451,17.128,43.5,17,43.5z"/>
	</g>
	<g>
		<path class="st0" d="M35.083,35.5h-7.5c-0.276,0-0.5-0.224-0.5-0.5s0.224-0.5,0.5-0.5h7.5c0.276,0,0.5,0.224,0.5,0.5
			S35.359,35.5,35.083,35.5z"/>
	</g>
	<g>
		<path class="st0" d="M35.083,39.5h-7.5c-0.276,0-0.5-0.224-0.5-0.5s0.224-0.5,0.5-0.5h7.5c0.276,0,0.5,0.224,0.5,0.5
			S35.359,39.5,35.083,39.5z"/>
	</g>
	<g>
		<path class="st0" d="M35.083,43.5h-7.5c-0.276,0-0.5-0.224-0.5-0.5s0.224-0.5,0.5-0.5h7.5c0.276,0,0.5,0.224,0.5,0.5
			S35.359,43.5,35.083,43.5z"/>
	</g>
	<g>
		<path class="st0" d="M47,51.5h-8c-0.276,0-0.5-0.224-0.5-0.5V35c0-0.276,0.224-0.5,0.5-0.5h8c0.276,0,0.5,0.224,0.5,0.5v16
			C47.5,51.276,47.276,51.5,47,51.5z M39.5,50.5h7v-15h-7V50.5z"/>
	</g>
	<g>
		<path class="st0" d="M47,51.5c-0.183,0-0.359-0.101-0.447-0.276l-8-16c-0.123-0.247-0.023-0.547,0.224-0.671
			c0.247-0.123,0.547-0.024,0.671,0.224l8,16c0.123,0.247,0.023,0.547-0.224,0.671C47.151,51.483,47.075,51.5,47,51.5z"/>
	</g>
	<g>
		<path class="st0" d="M39,51.5c-0.075,0-0.151-0.017-0.224-0.053c-0.247-0.124-0.347-0.424-0.224-0.671l8-16
			c0.124-0.247,0.424-0.346,0.671-0.224c0.247,0.124,0.347,0.424,0.224,0.671l-8,16C39.359,51.399,39.183,51.5,39,51.5z"/>
	</g>
	<g>
		<path class="st0" d="M35,52.5c-0.276,0-0.5-0.224-0.5-0.5v-4.5h-17V52c0,0.276-0.224,0.5-0.5,0.5s-0.5-0.224-0.5-0.5v-5
			c0-0.276,0.224-0.5,0.5-0.5h18c0.276,0,0.5,0.224,0.5,0.5v5C35.5,52.276,35.276,52.5,35,52.5z"/>
	</g>
</g>
</svg>
