<?xml version="1.0" encoding="utf-8"?>
<!-- Generator: Adobe Illustrator 22.0.0, SVG Export Plug-In . SVG Version: 6.00 Build 0)  -->
<svg version="1.1" id="Icon_Set" xmlns="http://www.w3.org/2000/svg" xmlns:xlink="http://www.w3.org/1999/xlink" x="0px" y="0px"
	 viewBox="0 0 64 64" style="enable-background:new 0 0 64 64;" xml:space="preserve">
<style type="text/css">
	.st0{fill:#263238;}
	.st1{fill:#FFD740;}
	.st2{fill:#40C4FF;}
	.st3{fill:#FF5252;}
	.st4{fill:#FFFFFF;}
	.st5{fill:#4DB6AC;}
	.st6{fill:#4FC3F7;}
</style>
<g>
	<g>
		<path class="st0" d="M44.509,59.5H19.491c-1.544,0-3.027-0.655-4.067-1.797c-1.04-1.142-1.553-2.679-1.409-4.216l1.212-12.934
			C15.979,32.542,22.613,26.5,30.66,26.5h2.681c8.047,0,14.681,6.042,15.433,14.053l1.212,12.934
			c0.144,1.538-0.37,3.074-1.409,4.216C47.536,58.845,46.054,59.5,44.509,59.5z M30.66,27.5c-7.528,0-13.734,5.652-14.437,13.146
			L15.011,53.58c-0.118,1.258,0.302,2.515,1.152,3.449c0.851,0.935,2.064,1.471,3.328,1.471h25.019c1.264,0,2.477-0.536,3.328-1.471
			c0.851-0.934,1.271-2.191,1.152-3.449l-1.212-12.934C47.074,33.152,40.868,27.5,33.34,27.5H30.66z"/>
	</g>
	<g>
		<path class="st1" d="M33.34,35c3.634,0,6.63,2.728,6.969,6.347L41.215,51h-18.43l0.905-9.653C24.029,37.728,27.026,35,30.66,35
			H33.34"/>
		<path class="st0" d="M41.215,51.5h-18.43c-0.141,0-0.275-0.059-0.37-0.164c-0.095-0.104-0.141-0.243-0.128-0.383l0.905-9.654
			c0.364-3.876,3.574-6.799,7.468-6.799h2.681c3.894,0,7.104,2.923,7.468,6.8l0.905,9.653c0.013,0.14-0.034,0.279-0.128,0.383
			C41.49,51.441,41.355,51.5,41.215,51.5z M23.334,50.5h17.332l-0.854-9.106c-0.315-3.36-3.097-5.894-6.472-5.894H30.66
			c-3.375,0-6.157,2.533-6.472,5.893L23.334,50.5z"/>
	</g>
	<g>
		<path class="st0" d="M38.05,27.5H25.95c-4.783,0-8.844-3.579-9.446-8.324c-0.018-0.143,0.026-0.286,0.121-0.394
			c0.095-0.108,0.231-0.169,0.375-0.169h30c0.144,0,0.28,0.062,0.375,0.169c0.095,0.108,0.139,0.251,0.121,0.394
			C46.894,23.921,42.833,27.5,38.05,27.5z M17.586,19.613c0.774,3.964,4.274,6.887,8.363,6.887H38.05
			c4.089,0,7.589-2.923,8.363-6.887H17.586z"/>
	</g>
	<g>
		<path class="st4" d="M35,51h-6v-6c0-0.552,0.448-1,1-1h4c0.552,0,1,0.448,1,1V51z"/>
		<path class="st0" d="M35,51.5h-6c-0.276,0-0.5-0.224-0.5-0.5v-6c0-0.827,0.673-1.5,1.5-1.5h4c0.827,0,1.5,0.673,1.5,1.5v6
			C35.5,51.276,35.276,51.5,35,51.5z M29.5,50.5h5V45c0-0.276-0.224-0.5-0.5-0.5h-4c-0.276,0-0.5,0.224-0.5,0.5V50.5z"/>
	</g>
	<g>
		<path class="st3" d="M34,41c0,1.381-2,3-2,3s-2-1.619-2-3s2-3,2-3S34,39.619,34,41z"/>
		<path class="st0" d="M32,44.5c-0.111,0-0.223-0.037-0.314-0.111C31.461,44.208,29.5,42.573,29.5,41
			c0-1.574,1.962-3.208,2.186-3.389c0.184-0.148,0.445-0.148,0.629,0C32.538,37.792,34.5,39.426,34.5,41
			c0,1.573-1.961,3.208-2.186,3.389C32.223,44.463,32.111,44.5,32,44.5z M32,38.666c-0.584,0.548-1.5,1.567-1.5,2.334
			c0,0.769,0.915,1.788,1.5,2.334c0.584-0.548,1.5-1.568,1.5-2.334S32.584,39.214,32,38.666z"/>
	</g>
	<g>
		<path class="st0" d="M11,16.557c-1.378,0-2.5-1.122-2.5-2.5s1.122-2.5,2.5-2.5s2.5,1.122,2.5,2.5S12.378,16.557,11,16.557z
			 M11,12.557c-0.827,0-1.5,0.673-1.5,1.5s0.673,1.5,1.5,1.5s1.5-0.673,1.5-1.5S11.827,12.557,11,12.557z"/>
	</g>
	<g>
		<path class="st0" d="M11,19.557c-1.497,0-2.74-1.101-2.964-2.536C6.601,16.797,5.5,15.553,5.5,14.057s1.101-2.74,2.536-2.964
			C8.26,9.658,9.503,8.557,11,8.557s2.74,1.101,2.964,2.536c1.435,0.224,2.536,1.468,2.536,2.964s-1.101,2.74-2.536,2.964
			C13.74,18.456,12.497,19.557,11,19.557z M11,9.557c-1.103,0-2,0.897-2,2c0,0.276-0.224,0.5-0.5,0.5c-1.103,0-2,0.897-2,2
			s0.897,2,2,2c0.276,0,0.5,0.224,0.5,0.5c0,1.103,0.897,2,2,2s2-0.897,2-2c0-0.276,0.224-0.5,0.5-0.5c1.103,0,2-0.897,2-2
			s-0.897-2-2-2c-0.276,0-0.5-0.224-0.5-0.5C13,10.454,12.103,9.557,11,9.557z M14,11.557h0.01H14z"/>
	</g>
	<g>
		<path class="st0" d="M53,16.557c-1.378,0-2.5-1.122-2.5-2.5s1.122-2.5,2.5-2.5s2.5,1.122,2.5,2.5S54.378,16.557,53,16.557z
			 M53,12.557c-0.827,0-1.5,0.673-1.5,1.5s0.673,1.5,1.5,1.5s1.5-0.673,1.5-1.5S53.827,12.557,53,12.557z"/>
	</g>
	<g>
		<path class="st0" d="M53,19.557c-1.497,0-2.74-1.101-2.964-2.536c-1.435-0.224-2.536-1.468-2.536-2.964s1.101-2.74,2.536-2.964
			C50.26,9.658,51.503,8.557,53,8.557s2.74,1.101,2.964,2.536c1.435,0.224,2.536,1.468,2.536,2.964s-1.101,2.74-2.536,2.964
			C55.74,18.456,54.497,19.557,53,19.557z M53,9.557c-1.103,0-2,0.897-2,2c0,0.276-0.224,0.5-0.5,0.5c-1.103,0-2,0.897-2,2
			s0.897,2,2,2c0.276,0,0.5,0.224,0.5,0.5c0,1.103,0.897,2,2,2s2-0.897,2-2c0-0.276,0.224-0.5,0.5-0.5c1.103,0,2-0.897,2-2
			s-0.897-2-2-2c-0.276,0-0.5-0.224-0.5-0.5C55,10.454,54.103,9.557,53,9.557z M56,11.557h0.01H56z"/>
	</g>
	<g>
		<path class="st0" d="M31.991,17c-0.062,0-0.126-0.012-0.188-0.037c-0.256-0.104-0.379-0.396-0.275-0.651l0.99-2.443
			c0.255-0.63,0.176-1.338-0.213-1.896l-1.429-2.048c-0.597-0.855-0.708-1.939-0.297-2.898l0.953-2.224
			c0.109-0.255,0.403-0.373,0.656-0.263c0.254,0.108,0.372,0.402,0.263,0.656L31.498,7.42c-0.274,0.64-0.2,1.362,0.198,1.933
			l1.429,2.048c0.583,0.835,0.703,1.898,0.32,2.844l-0.99,2.443C32.375,16.882,32.188,17,31.991,17z"/>
	</g>
	<g>
		<path class="st0" d="M26.991,17c-0.062,0-0.126-0.012-0.188-0.037c-0.256-0.104-0.379-0.396-0.275-0.651l0.99-2.443
			c0.255-0.63,0.176-1.338-0.213-1.896l-1.429-2.048c-0.597-0.855-0.708-1.939-0.297-2.898l0.953-2.224
			c0.108-0.255,0.404-0.373,0.656-0.263c0.254,0.108,0.372,0.402,0.263,0.656L26.498,7.42c-0.274,0.64-0.2,1.362,0.198,1.933
			l1.429,2.048c0.583,0.835,0.703,1.898,0.32,2.844l-0.99,2.443C27.375,16.882,27.188,17,26.991,17z"/>
	</g>
	<g>
		<path class="st0" d="M36.991,17c-0.062,0-0.126-0.012-0.188-0.037c-0.256-0.104-0.379-0.396-0.275-0.651l0.99-2.443
			c0.255-0.63,0.176-1.338-0.213-1.896l-1.429-2.048c-0.597-0.855-0.708-1.939-0.297-2.898l0.953-2.224
			c0.108-0.255,0.404-0.373,0.656-0.263c0.254,0.108,0.372,0.402,0.263,0.656L36.498,7.42c-0.274,0.64-0.2,1.362,0.198,1.933
			l1.429,2.048c0.583,0.835,0.703,1.898,0.32,2.844l-0.99,2.443C37.375,16.882,37.188,17,36.991,17z"/>
	</g>
	<g>
		<path class="st0" d="M12.75,31.25h-9c-0.276,0-0.5-0.224-0.5-0.5s0.224-0.5,0.5-0.5h9c0.276,0,0.5,0.224,0.5,0.5
			S13.026,31.25,12.75,31.25z"/>
	</g>
	<g>
		<path class="st0" d="M60.25,31.25h-9c-0.276,0-0.5-0.224-0.5-0.5s0.224-0.5,0.5-0.5h9c0.276,0,0.5,0.224,0.5,0.5
			S60.526,31.25,60.25,31.25z"/>
	</g>
	<g>
		<path class="st0" d="M2,31.25H0.5c-0.276,0-0.5-0.224-0.5-0.5s0.224-0.5,0.5-0.5H2c0.276,0,0.5,0.224,0.5,0.5S2.276,31.25,2,31.25
			z"/>
	</g>
	<g>
		<path class="st0" d="M63.5,31.25H62c-0.276,0-0.5-0.224-0.5-0.5s0.224-0.5,0.5-0.5h1.5c0.276,0,0.5,0.224,0.5,0.5
			S63.776,31.25,63.5,31.25z"/>
	</g>
</g>
</svg>
