<?xml version="1.0" encoding="utf-8"?>
<!-- Generator: Adobe Illustrator 22.0.0, SVG Export Plug-In . SVG Version: 6.00 Build 0)  -->
<svg version="1.1" id="Icon_Set" xmlns="http://www.w3.org/2000/svg" xmlns:xlink="http://www.w3.org/1999/xlink" x="0px" y="0px"
	 viewBox="0 0 64 64" style="enable-background:new 0 0 64 64;" xml:space="preserve">
<style type="text/css">
	.st0{fill:#263238;}
	.st1{fill:#FFD740;}
	.st2{fill:#40C4FF;}
	.st3{fill:#FF5252;}
	.st4{fill:#FFFFFF;}
	.st5{fill:#4DB6AC;}
	.st6{fill:#4FC3F7;}
</style>
<g>
	<g>
		<path class="st1" d="M52,45.5c-4.561-6.072-11.822-10-20-10c-8.179,0-15.439,3.928-20,10"/>
		<path class="st0" d="M52,46c-0.151,0-0.302-0.069-0.399-0.2C46.922,39.572,39.778,36,32,36s-14.922,3.572-19.601,9.8
			c-0.165,0.222-0.479,0.266-0.699,0.1c-0.222-0.166-0.266-0.479-0.1-0.7C16.469,38.718,23.904,35,32,35s15.531,3.718,20.399,10.2
			c0.166,0.221,0.122,0.534-0.1,0.7C52.21,45.967,52.104,46,52,46z"/>
	</g>
	<g>
		<path class="st0" d="M47.5,25.5h-31c-1.654,0-3-1.346-3-3v-13c0-1.654,1.346-3,3-3h31c1.654,0,3,1.346,3,3v13
			C50.5,24.154,49.154,25.5,47.5,25.5z M16.5,7.5c-1.103,0-2,0.897-2,2v13c0,1.103,0.897,2,2,2h31c1.103,0,2-0.897,2-2v-13
			c0-1.103-0.897-2-2-2H16.5z"/>
	</g>
	<g>
		<path class="st0" d="M54,53H10c-0.827,0-1.5-0.673-1.5-1.5v-3c0-0.827,0.673-1.5,1.5-1.5h44c0.827,0,1.5,0.673,1.5,1.5v3
			C55.5,52.327,54.827,53,54,53z M10,48c-0.275,0-0.5,0.224-0.5,0.5v3c0,0.276,0.225,0.5,0.5,0.5h44c0.275,0,0.5-0.224,0.5-0.5v-3
			c0-0.276-0.225-0.5-0.5-0.5H10z"/>
	</g>
	<g>
		<path class="st0" d="M19,37.319c-0.276,0-0.5-0.224-0.5-0.5V25c0-0.276,0.224-0.5,0.5-0.5h4c0.276,0,0.5,0.224,0.5,0.5v10.028
			c0,0.276-0.224,0.5-0.5,0.5s-0.5-0.224-0.5-0.5V25.5h-3v11.319C19.5,37.096,19.276,37.319,19,37.319z"/>
	</g>
	<g>
		<path class="st0" d="M45,37.319c-0.276,0-0.5-0.224-0.5-0.5V25.5h-3v9.528c0,0.276-0.224,0.5-0.5,0.5s-0.5-0.224-0.5-0.5V25
			c0-0.276,0.224-0.5,0.5-0.5h4c0.276,0,0.5,0.224,0.5,0.5v11.819C45.5,37.096,45.276,37.319,45,37.319z"/>
	</g>
	<g>
		<path class="st0" d="M15,63.5c-0.276,0-0.5-0.224-0.5-0.5V53h-3v10c0,0.276-0.224,0.5-0.5,0.5s-0.5-0.224-0.5-0.5V52.5
			c0-0.276,0.224-0.5,0.5-0.5h4c0.276,0,0.5,0.224,0.5,0.5V63C15.5,63.276,15.276,63.5,15,63.5z"/>
	</g>
	<g>
		<path class="st0" d="M53,63.5c-0.276,0-0.5-0.224-0.5-0.5V53h-3v10c0,0.276-0.224,0.5-0.5,0.5s-0.5-0.224-0.5-0.5V52.5
			c0-0.276,0.224-0.5,0.5-0.5h4c0.276,0,0.5,0.224,0.5,0.5V63C53.5,63.276,53.276,63.5,53,63.5z"/>
	</g>
	<g>
		<path class="st1" d="M18.011,39.784C21.618,40.844,26.551,41.5,32,41.5s10.382-0.656,13.989-1.716"/>
		<path class="st0" d="M32,42c-5.302,0-10.32-0.617-14.13-1.736c-0.266-0.078-0.417-0.355-0.339-0.621
			c0.077-0.265,0.355-0.419,0.62-0.338C21.872,40.398,26.791,41,32,41s10.128-0.602,13.849-1.695
			c0.264-0.082,0.543,0.073,0.62,0.338c0.078,0.265-0.073,0.543-0.339,0.621C42.32,41.383,37.302,42,32,42z"/>
	</g>
	<g>
		<path class="st0" d="M10,8.5H6C5.724,8.5,5.5,8.276,5.5,8S5.724,7.5,6,7.5h4c0.276,0,0.5,0.224,0.5,0.5S10.276,8.5,10,8.5z"/>
	</g>
	<g>
		<path class="st0" d="M8,10.5c-0.276,0-0.5-0.224-0.5-0.5V6c0-0.276,0.224-0.5,0.5-0.5S8.5,5.724,8.5,6v4
			C8.5,10.276,8.276,10.5,8,10.5z"/>
	</g>
	<g>
		<path class="st0" d="M16,3.5h-4c-0.276,0-0.5-0.224-0.5-0.5s0.224-0.5,0.5-0.5h4c0.276,0,0.5,0.224,0.5,0.5S16.276,3.5,16,3.5z"/>
	</g>
	<g>
		<path class="st0" d="M14,5.5c-0.276,0-0.5-0.224-0.5-0.5V1c0-0.276,0.224-0.5,0.5-0.5s0.5,0.224,0.5,0.5v4
			C14.5,5.276,14.276,5.5,14,5.5z"/>
	</g>
	<g>
		<path class="st0" d="M47,15.5c-0.276,0-0.5-0.224-0.5-0.5v-4c0-0.276-0.225-0.5-0.5-0.5h-4c-0.276,0-0.5-0.224-0.5-0.5
			s0.224-0.5,0.5-0.5h4c0.827,0,1.5,0.673,1.5,1.5v4C47.5,15.276,47.276,15.5,47,15.5z"/>
	</g>
	<g>
		<path class="st0" d="M62,32.5h-2c-0.276,0-0.5-0.224-0.5-0.5s0.224-0.5,0.5-0.5h2c0.276,0,0.5,0.224,0.5,0.5S62.276,32.5,62,32.5z
			"/>
	</g>
	<g>
		<path class="st0" d="M58,32.5H48c-0.276,0-0.5-0.224-0.5-0.5s0.224-0.5,0.5-0.5h10c0.276,0,0.5,0.224,0.5,0.5S58.276,32.5,58,32.5
			z"/>
	</g>
	<g>
		<path class="st0" d="M4,32.5H2c-0.276,0-0.5-0.224-0.5-0.5s0.224-0.5,0.5-0.5h2c0.276,0,0.5,0.224,0.5,0.5S4.276,32.5,4,32.5z"/>
	</g>
	<g>
		<path class="st0" d="M16,32.5H6c-0.276,0-0.5-0.224-0.5-0.5s0.224-0.5,0.5-0.5h10c0.276,0,0.5,0.224,0.5,0.5S16.276,32.5,16,32.5z
			"/>
	</g>
</g>
</svg>
