<?xml version="1.0" encoding="utf-8"?>
<!-- Generator: Adobe Illustrator 22.0.0, SVG Export Plug-In . SVG Version: 6.00 Build 0)  -->
<svg version="1.1" id="Icon_Set" xmlns="http://www.w3.org/2000/svg" xmlns:xlink="http://www.w3.org/1999/xlink" x="0px" y="0px"
	 viewBox="0 0 64 64" style="enable-background:new 0 0 64 64;" xml:space="preserve">
<style type="text/css">
	.st0{fill:#263238;}
	.st1{fill:#FFD740;}
	.st2{fill:#40C4FF;}
	.st3{fill:#FF5252;}
	.st4{fill:#FFFFFF;}
	.st5{fill:#4DB6AC;}
	.st6{fill:#4FC3F7;}
</style>
<g>
	<g>
		<path class="st0" d="M39,62.5H25c-0.133,0-0.26-0.053-0.354-0.146l-5-5C19.553,57.26,19.5,57.133,19.5,57V15
			c0-0.133,0.053-0.26,0.146-0.354l5-5C24.74,9.553,24.867,9.5,25,9.5h14c0.133,0,0.26,0.053,0.354,0.146l5,5
			C44.447,14.74,44.5,14.867,44.5,15v42c0,0.133-0.053,0.26-0.146,0.354l-5,5C39.26,62.447,39.133,62.5,39,62.5z M25.207,61.5
			h13.586l4.707-4.707V15.207L38.793,10.5H25.207L20.5,15.207v41.586L25.207,61.5z M44,57h0.01H44z"/>
	</g>
	<g>
		<path class="st0" d="M44,38H20c-0.276,0-0.5-0.224-0.5-0.5v-3c0-0.276,0.224-0.5,0.5-0.5h24c0.276,0,0.5,0.224,0.5,0.5v3
			C44.5,37.776,44.276,38,44,38z M20.5,37h23v-2h-23V37z"/>
	</g>
	<g>
		<path class="st2" d="M23,16.243L26.242,13h11.516L41,16.243V34.5H23V16.243z M41,55.757L37.758,59H26.242L23,55.757V37.5h18
			V55.757z"/>
		<path class="st0" d="M37.758,59.5H26.242c-0.133,0-0.26-0.053-0.354-0.146l-3.242-3.243c-0.094-0.094-0.146-0.221-0.146-0.354
			V37.5c0-0.276,0.224-0.5,0.5-0.5h18c0.276,0,0.5,0.224,0.5,0.5v18.257c0,0.133-0.053,0.26-0.146,0.354l-3.242,3.243
			C38.018,59.447,37.891,59.5,37.758,59.5z M26.449,58.5h11.102l2.949-2.95V38h-17v17.55L26.449,58.5z M41,55.757h0.01H41z M41,35
			H23c-0.276,0-0.5-0.224-0.5-0.5V16.243c0-0.133,0.053-0.26,0.146-0.354l3.242-3.243c0.094-0.094,0.221-0.146,0.354-0.146h11.516
			c0.133,0,0.26,0.053,0.354,0.146l3.242,3.243c0.094,0.094,0.146,0.221,0.146,0.354V34.5C41.5,34.776,41.276,35,41,35z M23.5,34h17
			V16.45l-2.949-2.95H26.449L23.5,16.45V34z"/>
	</g>
	<g>
		<g>
			<path class="st0" d="M38,20.985c-0.276,0-0.5-0.224-0.5-0.5v-2.793L36.308,16.5h-2.793c-0.276,0-0.5-0.224-0.5-0.5
				s0.224-0.5,0.5-0.5h3c0.133,0,0.26,0.053,0.354,0.146l1.485,1.485c0.094,0.094,0.146,0.221,0.146,0.354v3
				C38.5,20.762,38.276,20.985,38,20.985z"/>
		</g>
	</g>
	<g>
		<path class="st0" d="M61,36.5h-2c-0.276,0-0.5-0.224-0.5-0.5s0.224-0.5,0.5-0.5h2c0.276,0,0.5,0.224,0.5,0.5S61.276,36.5,61,36.5z
			"/>
	</g>
	<g>
		<path class="st0" d="M57,36.5H47c-0.276,0-0.5-0.224-0.5-0.5s0.224-0.5,0.5-0.5h10c0.276,0,0.5,0.224,0.5,0.5S57.276,36.5,57,36.5
			z"/>
	</g>
	<g>
		<path class="st0" d="M5,36.5H3c-0.276,0-0.5-0.224-0.5-0.5s0.224-0.5,0.5-0.5h2c0.276,0,0.5,0.224,0.5,0.5S5.276,36.5,5,36.5z"/>
	</g>
	<g>
		<path class="st0" d="M17,36.5H7c-0.276,0-0.5-0.224-0.5-0.5s0.224-0.5,0.5-0.5h10c0.276,0,0.5,0.224,0.5,0.5S17.276,36.5,17,36.5z
			"/>
	</g>
	<g>
		<path class="st0" d="M52,10h-4c-0.276,0-0.5-0.224-0.5-0.5S47.724,9,48,9h4c0.276,0,0.5,0.224,0.5,0.5S52.276,10,52,10z"/>
	</g>
	<g>
		<path class="st0" d="M50,12c-0.276,0-0.5-0.224-0.5-0.5v-4C49.5,7.224,49.724,7,50,7s0.5,0.224,0.5,0.5v4
			C50.5,11.776,50.276,12,50,12z"/>
	</g>
	<g>
		<path class="st0" d="M46.5,4.5h-4C42.224,4.5,42,4.276,42,4s0.224-0.5,0.5-0.5h4C46.776,3.5,47,3.724,47,4S46.776,4.5,46.5,4.5z"
			/>
	</g>
	<g>
		<path class="st0" d="M44.5,6.5C44.224,6.5,44,6.276,44,6V2c0-0.276,0.224-0.5,0.5-0.5S45,1.724,45,2v4
			C45,6.276,44.776,6.5,44.5,6.5z"/>
	</g>
</g>
</svg>
