<?xml version="1.0" encoding="utf-8"?>
<!-- Generator: Adobe Illustrator 22.0.0, SVG Export Plug-In . SVG Version: 6.00 Build 0)  -->
<svg version="1.1" id="Icon_Set" xmlns="http://www.w3.org/2000/svg" xmlns:xlink="http://www.w3.org/1999/xlink" x="0px" y="0px"
	 viewBox="0 0 64 64" style="enable-background:new 0 0 64 64;" xml:space="preserve">
<style type="text/css">
	.st0{fill:#263238;}
	.st1{fill:#FFD740;}
	.st2{fill:#40C4FF;}
	.st3{fill:#FF5252;}
	.st4{fill:#FFFFFF;}
	.st5{fill:#4DB6AC;}
	.st6{fill:#4FC3F7;}
</style>
<g>
	<g>
		<path class="st0" d="M50,34.008c-4.136,0-7.5-3.364-7.5-7.5s3.364-7.5,7.5-7.5s7.5,3.364,7.5,7.5S54.136,34.008,50,34.008z
			 M50,20.008c-3.584,0-6.5,2.916-6.5,6.5s2.916,6.5,6.5,6.5s6.5-2.916,6.5-6.5S53.584,20.008,50,20.008z"/>
	</g>
	<g>
		<path class="st1" d="M54.854,22.461l0.522-0.434c-1.284-1.538-3.215-2.518-5.375-2.518c-3.866,0-7,3.134-7,7h0.661
			C47.75,26.508,51.711,25.076,54.854,22.461z"/>
		<path class="st0" d="M43.661,27.008H43c-0.276,0-0.5-0.224-0.5-0.5c0-4.136,3.364-7.5,7.5-7.5c2.228,0,4.327,0.983,5.759,2.698
			c0.085,0.102,0.126,0.233,0.114,0.365c-0.012,0.132-0.076,0.254-0.178,0.339l-0.521,0.435c0,0,0,0.001,0,0.001
			C51.947,25.529,47.859,27.008,43.661,27.008z M43.52,26.008h0.142c3.964,0,7.826-1.396,10.873-3.931l0.123-0.103
			c-1.222-1.256-2.892-1.967-4.656-1.967C46.584,20.008,43.776,22.656,43.52,26.008z M54.854,22.461h0.01H54.854z"/>
	</g>
	<g>
		<path class="st0" d="M42.321,40.839c-0.617,0-1.212-0.188-1.719-0.542l-19.75-13.836c-0.656-0.459-1.094-1.147-1.233-1.937
			c-0.139-0.789,0.038-1.586,0.498-2.242c0.948-1.353,2.821-1.684,4.178-0.736l19.75,13.836c0.656,0.459,1.094,1.147,1.233,1.937
			c0.139,0.789-0.038,1.586-0.498,2.242C44.219,40.361,43.3,40.839,42.321,40.839z M22.576,22.005c-0.631,0-1.252,0.297-1.641,0.852
			c-0.307,0.438-0.425,0.968-0.332,1.494s0.384,0.985,0.822,1.292l19.75,13.835c0.874,0.611,2.176,0.379,2.785-0.491
			c0.307-0.438,0.425-0.968,0.332-1.494s-0.384-0.985-0.822-1.292L23.72,22.365C23.372,22.122,22.972,22.005,22.576,22.005z"/>
	</g>
	<g>
		<path class="st0" d="M24.275,52.327c-0.029,0-0.058-0.003-0.087-0.008c-1.24-0.22-2.39-0.632-3.418-1.225L7.251,43.291
			c-1.348-0.778-2.307-2.098-2.63-3.62c-0.324-1.521,0.015-3.117,0.93-4.376l10.986-15.121c1.319-1.816,3.796-2.214,5.638-0.901
			c0.726,0.518,1.238,1.271,1.48,2.181c0.045,0.171-0.003,0.353-0.126,0.479c-0.124,0.126-0.305,0.176-0.476,0.135
			c-0.814-0.2-1.642,0.11-2.117,0.789c-0.307,0.438-0.425,0.968-0.332,1.494s0.384,0.985,0.822,1.292l0.435,0.305
			c0.22,0.153,0.279,0.453,0.135,0.679l-6.905,10.798l9.436,5.446c0.155,0.089,0.25,0.254,0.25,0.433v8.524
			c0,0.147-0.065,0.288-0.179,0.383C24.506,52.286,24.392,52.327,24.275,52.327z M19.795,19.503c-0.936,0-1.851,0.436-2.449,1.259
			L6.36,35.883c-0.748,1.03-1.025,2.335-0.761,3.581c0.265,1.245,1.049,2.325,2.152,2.962l13.518,7.803
			c0.764,0.44,1.604,0.771,2.506,0.984v-7.621l-9.639-5.563c-0.118-0.067-0.204-0.182-0.236-0.314s-0.009-0.272,0.064-0.388
			l6.929-10.835l-0.042-0.03c-0.657-0.459-1.095-1.147-1.233-1.937c-0.139-0.789,0.038-1.586,0.498-2.242
			c0.541-0.771,1.388-1.227,2.295-1.271c-0.203-0.37-0.478-0.683-0.816-0.924C21.042,19.693,20.414,19.503,19.795,19.503z"/>
	</g>
	<g>
		<path class="st2" d="M49.698,35.499c-1.637-2.979-5.399-3.997-8.307-2.283l-0.712,0.419l3.077,2.156
			c1.131,0.792,1.405,2.352,0.613,3.482c-0.486,0.694-1.262,1.065-2.049,1.065c-0.496,0-0.996-0.146-1.433-0.452l-4.942-3.462
			l-11.671,6.878v8.525C24.85,51.929,25.431,52,26.019,52h1.679c3.571,0,7.077-0.956,10.154-2.769l9.416-5.549
			C50.098,42.014,51.281,38.378,49.698,35.499z"/>
		<path class="st0" d="M27.698,52.5h-1.679c-0.559,0-1.14-0.058-1.831-0.181c-0.238-0.043-0.412-0.25-0.412-0.492v-8.524
			c0-0.177,0.094-0.341,0.246-0.431l11.671-6.878c0.169-0.099,0.381-0.093,0.541,0.021l4.941,3.462
			c0.874,0.611,2.176,0.379,2.785-0.491c0.307-0.438,0.425-0.968,0.332-1.494s-0.384-0.985-0.822-1.292l-3.078-2.156
			c-0.139-0.098-0.219-0.259-0.212-0.429s0.099-0.325,0.246-0.411l0.712-0.419c1.527-0.901,3.311-1.138,5.02-0.669
			c1.709,0.47,3.123,1.585,3.978,3.142l0,0c1.674,3.046,0.501,7.019-2.615,8.854l-9.416,5.549
			C34.955,51.519,31.356,52.5,27.698,52.5z M24.775,51.402c0.455,0.066,0.857,0.098,1.243,0.098h1.679c3.479,0,6.903-0.934,9.9-2.7
			l9.416-5.549c2.655-1.564,3.663-4.935,2.247-7.511l0,0c-0.724-1.318-1.919-2.263-3.366-2.659
			c-1.445-0.397-2.956-0.195-4.248,0.565l-0.042,0.025l2.44,1.71c0.656,0.459,1.094,1.147,1.233,1.937
			c0.139,0.789-0.038,1.586-0.498,2.242c-0.915,1.306-2.865,1.653-4.178,0.736l-4.678-3.278l-11.148,6.57V51.402z"/>
	</g>
	<g>
		<path class="st2" d="M20.548,27.959l-6.281-3.811l-8.312,11.44c-1.745,2.402-1.025,5.786,1.546,7.269l13.518,7.803
			c1.011,0.583,2.116,0.964,3.256,1.167v-8.525l-9.889-5.707L20.548,27.959z"/>
		<path class="st0" d="M24.275,52.327c-0.029,0-0.058-0.003-0.087-0.008c-1.24-0.22-2.39-0.632-3.418-1.225L7.251,43.291
			c-1.348-0.778-2.307-2.098-2.63-3.62c-0.324-1.521,0.015-3.117,0.93-4.376l8.312-11.44c0.152-0.211,0.441-0.269,0.664-0.134
			l6.281,3.811c0.115,0.07,0.197,0.184,0.228,0.314c0.031,0.131,0.007,0.27-0.065,0.383l-5.88,9.195l9.436,5.446
			c0.155,0.089,0.25,0.254,0.25,0.433v8.524c0,0.147-0.065,0.288-0.179,0.383C24.506,52.286,24.392,52.327,24.275,52.327z
			 M14.402,24.814L6.36,35.883c-0.748,1.03-1.025,2.335-0.761,3.581c0.265,1.245,1.049,2.325,2.152,2.962l13.518,7.803
			c0.764,0.44,1.604,0.771,2.506,0.984v-7.621l-9.639-5.563c-0.118-0.067-0.204-0.182-0.236-0.314s-0.009-0.272,0.064-0.388
			l5.886-9.205L14.402,24.814z"/>
	</g>
	<g>
		<path class="st0" d="M47.5,14.5h-4c-0.276,0-0.5-0.224-0.5-0.5s0.224-0.5,0.5-0.5h4c0.276,0,0.5,0.224,0.5,0.5
			S47.777,14.5,47.5,14.5z"/>
	</g>
	<g>
		<path class="st0" d="M45.5,16.5c-0.276,0-0.5-0.224-0.5-0.5v-4c0-0.276,0.224-0.5,0.5-0.5S46,11.724,46,12v4
			C46,16.276,45.777,16.5,45.5,16.5z"/>
	</g>
	<g>
		<path class="st0" d="M41.5,19h-4c-0.276,0-0.5-0.224-0.5-0.5s0.224-0.5,0.5-0.5h4c0.276,0,0.5,0.224,0.5,0.5S41.777,19,41.5,19z"
			/>
	</g>
	<g>
		<path class="st0" d="M39.5,21c-0.276,0-0.5-0.224-0.5-0.5v-4c0-0.276,0.224-0.5,0.5-0.5s0.5,0.224,0.5,0.5v4
			C40,20.776,39.777,21,39.5,21z"/>
	</g>
	<g>
		<path class="st0" d="M59,52.5h-2c-0.276,0-0.5-0.224-0.5-0.5s0.224-0.5,0.5-0.5h2c0.276,0,0.5,0.224,0.5,0.5S59.276,52.5,59,52.5z
			"/>
	</g>
	<g>
		<path class="st0" d="M55,52.5H39.5c-0.276,0-0.5-0.224-0.5-0.5s0.224-0.5,0.5-0.5H55c0.276,0,0.5,0.224,0.5,0.5
			S55.276,52.5,55,52.5z"/>
	</g>
</g>
</svg>
