<?xml version="1.0" encoding="utf-8"?>
<!-- Generator: Adobe Illustrator 22.0.0, SVG Export Plug-In . SVG Version: 6.00 Build 0)  -->
<svg version="1.1" id="Icon_Set" xmlns="http://www.w3.org/2000/svg" xmlns:xlink="http://www.w3.org/1999/xlink" x="0px" y="0px"
	 viewBox="0 0 64 64" style="enable-background:new 0 0 64 64;" xml:space="preserve">
<style type="text/css">
	.st0{fill:#263238;}
	.st1{fill:#FFD740;}
	.st2{fill:#40C4FF;}
	.st3{fill:#FF5252;}
	.st4{fill:#FFFFFF;}
	.st5{fill:#4DB6AC;}
	.st6{fill:#4FC3F7;}
</style>
<g>
	<g>
		<path class="st0" d="M3.5,24.5H2c-0.276,0-0.5-0.224-0.5-0.5s0.224-0.5,0.5-0.5h1.5C3.776,23.5,4,23.724,4,24S3.776,24.5,3.5,24.5
			z"/>
	</g>
	<g>
		<path class="st0" d="M14.25,24.5h-9c-0.276,0-0.5-0.224-0.5-0.5s0.224-0.5,0.5-0.5h9c0.276,0,0.5,0.224,0.5,0.5
			S14.526,24.5,14.25,24.5z"/>
	</g>
	<g>
		<path class="st0" d="M58.75,24.5h-9c-0.276,0-0.5-0.224-0.5-0.5s0.224-0.5,0.5-0.5h9c0.276,0,0.5,0.224,0.5,0.5
			S59.026,24.5,58.75,24.5z"/>
	</g>
	<g>
		<path class="st0" d="M13,13.768c-0.128,0-0.256-0.049-0.354-0.146l-3.536-3.536c-0.195-0.195-0.195-0.512,0-0.707
			s0.512-0.195,0.707,0l3.536,3.536c0.195,0.195,0.195,0.512,0,0.707C13.256,13.719,13.128,13.768,13,13.768z"/>
	</g>
	<g>
		<path class="st0" d="M51,13.768c-0.128,0-0.256-0.049-0.354-0.146c-0.195-0.195-0.195-0.512,0-0.707l3.535-3.536
			c0.195-0.195,0.512-0.195,0.707,0s0.195,0.512,0,0.707l-3.535,3.536C51.256,13.719,51.128,13.768,51,13.768z"/>
	</g>
	<g>
		<path class="st0" d="M54.536,38.768c-0.128,0-0.256-0.049-0.354-0.146l-3.535-3.536c-0.195-0.195-0.195-0.512,0-0.707
			s0.512-0.195,0.707,0l3.535,3.536c0.195,0.195,0.195,0.512,0,0.707C54.792,38.719,54.664,38.768,54.536,38.768z"/>
	</g>
	<g>
		<path class="st0" d="M9.464,38.768c-0.128,0-0.256-0.049-0.354-0.146c-0.195-0.195-0.195-0.512,0-0.707l3.536-3.536
			c0.195-0.195,0.512-0.195,0.707,0s0.195,0.512,0,0.707l-3.536,3.536C9.72,38.719,9.592,38.768,9.464,38.768z"/>
	</g>
	<g>
		<path class="st0" d="M62,24.5h-1.5c-0.276,0-0.5-0.224-0.5-0.5s0.224-0.5,0.5-0.5H62c0.276,0,0.5,0.224,0.5,0.5
			S62.276,24.5,62,24.5z"/>
	</g>
	<g>
		<path class="st1" d="M44.394,31.079l-5.493-2.996L23,38.5V47c0,0.552,0.448,1,1,1h14v6h4c2.761,0,5-2.239,5-5l0-13.532
			C47,33.639,46.001,31.955,44.394,31.079z"/>
	</g>
	<g>
		<line class="st1" x1="38.902" y1="28.083" x2="23" y2="38.5"/>
		<path class="st0" d="M23,39c-0.163,0-0.323-0.08-0.419-0.226c-0.151-0.231-0.086-0.541,0.145-0.692l15.901-10.417
			c0.231-0.15,0.541-0.086,0.692,0.145c0.151,0.231,0.086,0.541-0.145,0.692L23.274,38.918C23.189,38.974,23.094,39,23,39z"/>
	</g>
	<g>
		<path class="st0" d="M29,54.5h-7c-3.033,0-5.5-2.467-5.5-5.5V35.468c0-2.014,1.099-3.864,2.867-4.828l8.133-4.437v-1.541
			c0-0.276,0.224-0.5,0.5-0.5s0.5,0.224,0.5,0.5V26.5c0,0.183-0.1,0.351-0.261,0.439l-8.394,4.579
			c-1.447,0.789-2.345,2.302-2.345,3.95V49c0,2.481,2.019,4.5,4.5,4.5h7c1.378,0,2.5-1.122,2.5-2.5c0-1.379-1.122-2.5-2.5-2.5h-5
			c-0.827,0-1.5-0.673-1.5-1.5V35.5c0-0.276,0.224-0.5,0.5-0.5s0.5,0.224,0.5,0.5V47c0,0.276,0.224,0.5,0.5,0.5h5
			c1.93,0,3.5,1.57,3.5,3.5C32.5,52.93,30.93,54.5,29,54.5z"/>
	</g>
	<g>
		<path class="st0" d="M42,54.5h-7c-1.93,0-3.5-1.57-3.5-3.5c0-1.93,1.57-3.5,3.5-3.5h5.5v-12c0-0.276,0.224-0.5,0.5-0.5
			s0.5,0.224,0.5,0.5V48c0,0.276-0.224,0.5-0.5,0.5h-6c-1.378,0-2.5,1.122-2.5,2.5c0,1.379,1.122,2.5,2.5,2.5h7
			c2.481,0,4.5-2.019,4.5-4.5l0-13.532c0-1.647-0.899-3.162-2.345-3.951l-8.394-4.579C35.6,26.852,35.5,26.683,35.5,26.5v-1.838
			c0-0.276,0.224-0.5,0.5-0.5s0.5,0.224,0.5,0.5v1.541l8.133,4.437c1.769,0.965,2.867,2.815,2.867,4.829L47.5,49
			C47.5,52.033,45.033,54.5,42,54.5z"/>
	</g>
	<g>
		<path class="st1" d="M52,50h-3.08c-0.488,3.387-3.401,6-6.92,6h-7.5c-0.925,0-1.785-0.28-2.5-0.76C31.285,55.72,30.424,56,29.5,56
			H22c-3.52,0-6.432-2.614-6.92-6H12c-3.314,0-6,2.686-6,6s2.686,6,6,6h40c3.314,0,6-2.686,6-6S55.314,50,52,50z"/>
	</g>
	<g>
		<path class="st0" d="M52,62.5H12c-3.584,0-6.5-2.916-6.5-6.5s2.916-6.5,6.5-6.5h3.08c0.276,0,0.5,0.224,0.5,0.5
			s-0.224,0.5-0.5,0.5H12c-3.033,0-5.5,2.467-5.5,5.5s2.467,5.5,5.5,5.5h40c3.033,0,5.5-2.467,5.5-5.5s-2.467-5.5-5.5-5.5h-3.08
			c-0.276,0-0.5-0.224-0.5-0.5s0.224-0.5,0.5-0.5H52c3.584,0,6.5,2.916,6.5,6.5S55.584,62.5,52,62.5z"/>
	</g>
	<g>
		<path class="st0" d="M32,26c-4.659,0-8.733-3.063-10.053-7.5c-1.63-0.028-2.947-1.363-2.947-3s1.317-2.971,2.947-3
			C23.266,8.063,27.341,5,32,5s8.734,3.063,10.053,7.5c1.63,0.028,2.947,1.363,2.947,3s-1.317,2.971-2.947,3
			C40.733,22.937,36.659,26,32,26z M22.259,17.477c0.234,0,0.488,0.145,0.544,0.368C23.875,22.058,27.657,25,32,25
			s8.125-2.942,9.196-7.155c0.062-0.246,0.295-0.406,0.549-0.373C41.876,17.49,41.937,17.5,42,17.5c1.103,0,2-0.897,2-2
			s-0.897-2-2-2c-0.063,0-0.124,0.01-0.185,0.019c-0.254,0.036-0.556-0.117-0.619-0.363C40.125,8.942,36.343,6,32,6
			s-8.125,2.942-9.196,7.155c-0.062,0.245-0.298,0.398-0.549,0.373C22.124,13.51,22.063,13.5,22,13.5c-1.103,0-2,0.897-2,2
			s0.897,2,2,2c0.063,0,0.124-0.01,0.185-0.019C22.209,17.478,22.234,17.477,22.259,17.477z"/>
	</g>
	<g>
		<path class="st0" d="M47,58.5H17c-3.033,0-5.5-2.467-5.5-5.5v-2.5c0-0.276,0.224-0.5,0.5-0.5s0.5,0.224,0.5,0.5V53
			c0,2.481,2.019,4.5,4.5,4.5h30c0.276,0,0.5,0.224,0.5,0.5S47.276,58.5,47,58.5z"/>
	</g>
	<g>
		<path class="st0" d="M32,20.997c-1.409,0-2.817-0.536-3.889-1.608c-0.195-0.195-0.195-0.512,0-0.707s0.512-0.195,0.707,0
			c1.755,1.755,4.609,1.755,6.364,0c0.195-0.195,0.512-0.195,0.707,0s0.195,0.512,0,0.707C34.817,20.461,33.409,20.997,32,20.997z"
			/>
	</g>
	<g>
		<path class="st0" d="M35.438,6.613c-0.058,0-0.117-0.01-0.172-0.031c-2.102-0.772-4.428-0.771-6.532,0
			c-0.139,0.051-0.294,0.038-0.422-0.036c-0.128-0.074-0.217-0.201-0.243-0.346C28.029,5.971,28,5.739,28,5.5c0-2.206,1.794-4,4-4
			s4,1.794,4,4c0,0.24-0.029,0.472-0.07,0.701c-0.026,0.146-0.115,0.272-0.243,0.346C35.611,6.59,35.525,6.613,35.438,6.613z M32,5
			c1.02,0,2.026,0.148,3,0.44c-0.032-1.627-1.365-2.94-3-2.94c-1.634,0-2.967,1.313-3,2.939C29.975,5.147,30.981,5,32,5z"/>
	</g>
	<g>
		<path class="st0" d="M38,54.5c-0.276,0-0.5-0.224-0.5-0.5v-6c0-0.276,0.224-0.5,0.5-0.5s0.5,0.224,0.5,0.5v6
			C38.5,54.276,38.277,54.5,38,54.5z"/>
	</g>
</g>
</svg>
