<?xml version="1.0" encoding="utf-8"?>
<!-- Generator: Adobe Illustrator 22.0.0, SVG Export Plug-In . SVG Version: 6.00 Build 0)  -->
<svg version="1.1" id="Icon_Set" xmlns="http://www.w3.org/2000/svg" xmlns:xlink="http://www.w3.org/1999/xlink" x="0px" y="0px"
	 viewBox="0 0 64 64" style="enable-background:new 0 0 64 64;" xml:space="preserve">
<style type="text/css">
	.st0{fill:#263238;}
	.st1{fill:#FFD740;}
	.st2{fill:#40C4FF;}
	.st3{fill:#FF5252;}
	.st4{fill:#FFFFFF;}
	.st5{fill:#4DB6AC;}
	.st6{fill:#4FC3F7;}
</style>
<g>
	<g>
		<circle class="st5" cx="32" cy="31.145" r="3.5"/>
	</g>
	<g>
		<circle class="st1" cx="32" cy="39.645" r="3.5"/>
	</g>
	<g>
		<circle class="st3" cx="32" cy="56.645" r="3.5"/>
	</g>
	<g>
		<path class="st0" d="M32,24.646c-4.659,0-8.734-3.063-10.053-7.5c-1.63-0.028-2.947-1.363-2.947-3s1.317-2.971,2.947-3
			c1.319-4.438,5.394-7.5,10.053-7.5s8.734,3.063,10.053,7.5c1.63,0.028,2.947,1.363,2.947,3s-1.317,2.971-2.947,3
			C40.734,21.583,36.659,24.646,32,24.646z M22.259,16.122c0.234,0,0.488,0.145,0.544,0.368c1.072,4.213,4.854,7.155,9.196,7.155
			s8.125-2.942,9.196-7.155c0.062-0.246,0.295-0.401,0.549-0.373c0.131,0.018,0.192,0.028,0.255,0.028c1.103,0,2-0.897,2-2
			s-0.897-2-2-2c-0.063,0-0.124,0.01-0.185,0.019c-0.254,0.038-0.556-0.116-0.619-0.363C40.125,7.588,36.343,4.646,32,4.646
			s-8.125,2.942-9.196,7.155c-0.062,0.246-0.298,0.396-0.549,0.373c-0.131-0.018-0.192-0.028-0.255-0.028c-1.103,0-2,0.897-2,2
			s0.897,2,2,2c0.063,0,0.124-0.01,0.185-0.019C22.209,16.124,22.234,16.122,22.259,16.122z"/>
	</g>
	<g>
		<path class="st0" d="M63,34.549h-2c-0.276,0-0.5-0.224-0.5-0.5s0.224-0.5,0.5-0.5h2c0.276,0,0.5,0.224,0.5,0.5
			S63.276,34.549,63,34.549z"/>
	</g>
	<g>
		<path class="st0" d="M59,34.549h-7.5c-0.276,0-0.5-0.224-0.5-0.5s0.224-0.5,0.5-0.5H59c0.276,0,0.5,0.224,0.5,0.5
			S59.276,34.549,59,34.549z"/>
	</g>
	<g>
		<path class="st0" d="M3,34.549H1c-0.276,0-0.5-0.224-0.5-0.5s0.224-0.5,0.5-0.5h2c0.276,0,0.5,0.224,0.5,0.5
			S3.276,34.549,3,34.549z"/>
	</g>
	<g>
		<path class="st0" d="M12.5,34.549H5c-0.276,0-0.5-0.224-0.5-0.5s0.224-0.5,0.5-0.5h7.5c0.276,0,0.5,0.224,0.5,0.5
			S12.776,34.549,12.5,34.549z"/>
	</g>
	<g>
		<path class="st0" d="M10.773,48.742c-1.371,0-2.676-0.811-3.235-2.153c-0.36-0.863-0.362-1.814-0.006-2.679
			c0.356-0.864,1.027-1.539,1.89-1.898l7.077-2.949v-6.414c0-2.304,1.455-4.381,3.62-5.168l7.38-2.684v-1.488
			c0-0.276,0.224-0.5,0.5-0.5s0.5,0.224,0.5,0.5v1.838c0,0.21-0.131,0.398-0.329,0.47l-7.709,2.803
			c-1.771,0.644-2.962,2.344-2.962,4.229v6.748c0,0.202-0.122,0.384-0.308,0.461l-7.385,3.077c-0.617,0.257-1.096,0.738-1.35,1.356
			c-0.254,0.618-0.253,1.297,0.004,1.914c0.53,1.272,1.999,1.875,3.269,1.346l10.77-4.488v-9.667c0-0.276,0.224-0.5,0.5-0.5
			s0.5,0.224,0.5,0.5v10c0,0.202-0.122,0.384-0.308,0.461l-11.077,4.616C11.676,48.655,11.221,48.742,10.773,48.742z"/>
	</g>
	<g>
		<path class="st0" d="M53.227,48.742c-0.448,0-0.903-0.086-1.342-0.27l-11.077-4.616c-0.186-0.078-0.308-0.26-0.308-0.461
			L40.5,33.253c0-0.276,0.224-0.5,0.5-0.5c0.276,0,0.5,0.224,0.5,0.5l0.001,9.809L52.27,47.55c1.271,0.53,2.738-0.073,3.269-1.346
			c0.257-0.616,0.258-1.296,0.004-1.914c-0.254-0.618-0.734-1.099-1.35-1.356l-7.385-3.077c-0.186-0.078-0.308-0.26-0.308-0.461
			v-6.748c0-1.885-1.19-3.585-2.962-4.229l-7.708-2.803c-0.198-0.072-0.329-0.259-0.329-0.47v-1.838c0-0.276,0.224-0.5,0.5-0.5
			s0.5,0.224,0.5,0.5v1.488l7.379,2.684c2.166,0.787,3.621,2.864,3.621,5.168v6.414l7.077,2.949c0.863,0.359,1.534,1.034,1.89,1.898
			c0.355,0.864,0.354,1.816-0.006,2.679C55.902,47.931,54.598,48.742,53.227,48.742z"/>
	</g>
	<g>
		<path class="st0" d="M22.999,47.76c-0.276,0-0.5-0.224-0.5-0.5v-3.864c0-0.276,0.224-0.5,0.5-0.5s0.5,0.224,0.5,0.5v3.864
			C23.499,47.536,23.275,47.76,22.999,47.76z"/>
	</g>
	<g>
		<path class="st0" d="M41,47.76L41,47.76c-0.276,0-0.5-0.224-0.5-0.5l0-3.864c0-0.276,0.224-0.5,0.5-0.5l0,0
			c0.276,0,0.5,0.224,0.5,0.5l0,3.864C41.5,47.536,41.276,47.76,41,47.76z"/>
	</g>
	<g>
		<path class="st0" d="M12.776,60.646c-1.317,0-2.583-0.491-3.576-1.407c-1.229-1.135-1.839-2.749-1.673-4.429
			c0.241-2.449,2.265-4.439,4.813-4.733l17.882-2.063c1.178-0.137,2.374-0.137,3.553,0l17.884,2.063
			c2.548,0.294,4.573,2.284,4.813,4.733c0.165,1.68-0.445,3.294-1.674,4.429c-1.23,1.137-2.88,1.619-4.527,1.322L32,57.281
			l-18.273,3.28C13.409,60.618,13.091,60.646,12.776,60.646z M31.999,48.911c-0.555,0-1.11,0.032-1.662,0.095L12.455,51.07
			c-2.083,0.241-3.737,1.854-3.933,3.837c-0.134,1.365,0.36,2.676,1.356,3.596c0.997,0.921,2.335,1.311,3.672,1.073l18.361-3.295
			c0.059-0.011,0.118-0.011,0.177,0l18.361,3.295c1.336,0.24,2.674-0.151,3.672-1.073c0.997-0.92,1.491-2.231,1.357-3.596
			c-0.195-1.983-1.849-3.597-3.933-3.837l-17.884-2.063C33.11,48.943,32.555,48.911,31.999,48.911z"/>
	</g>
	<g>
		<path class="st0" d="M10.5,26.646c-0.215,0-0.406-0.138-0.474-0.342l-0.553-1.658C9.242,23.954,8.691,23.403,8,23.172L6.342,22.62
			C6.138,22.552,6,22.361,6,22.146s0.138-0.406,0.342-0.474L8,21.119c0.691-0.231,1.242-0.782,1.473-1.473l0.553-1.658
			c0.136-0.408,0.812-0.408,0.948,0l0.553,1.658c0.231,0.691,0.782,1.242,1.473,1.473l1.658,0.553C14.862,21.739,15,21.93,15,22.146
			s-0.138,0.406-0.342,0.474L13,23.172c-0.691,0.231-1.242,0.782-1.473,1.473l-0.553,1.658C10.906,26.508,10.715,26.646,10.5,26.646
			z M8.081,22.146l0.235,0.079c0.988,0.33,1.775,1.117,2.105,2.105l0.079,0.235l0.079-0.235c0.33-0.988,1.117-1.775,2.105-2.105
			l0.235-0.079l-0.235-0.079c-0.988-0.33-1.775-1.117-2.105-2.105L10.5,19.727l-0.079,0.235c-0.33,0.988-1.117,1.775-2.105,2.105
			L8.081,22.146z"/>
	</g>
	<g>
		<path class="st0" d="M53.5,26.646c-0.215,0-0.406-0.138-0.474-0.342l-0.553-1.658c-0.231-0.691-0.782-1.242-1.473-1.473
			l-1.658-0.553C49.138,22.552,49,22.361,49,22.146s0.138-0.406,0.342-0.474L51,21.119c0.691-0.231,1.242-0.782,1.473-1.473
			l0.553-1.658c0.136-0.408,0.812-0.408,0.948,0l0.553,1.658c0.231,0.691,0.782,1.242,1.473,1.473l1.658,0.553
			C57.862,21.739,58,21.93,58,22.146s-0.138,0.406-0.342,0.474L56,23.172c-0.691,0.231-1.242,0.782-1.473,1.473l-0.553,1.658
			C53.906,26.508,53.715,26.646,53.5,26.646z M51.081,22.146l0.235,0.079c0.988,0.33,1.775,1.117,2.105,2.105l0.079,0.235
			l0.079-0.235c0.33-0.988,1.117-1.775,2.105-2.105l0.235-0.079l-0.235-0.079c-0.988-0.33-1.775-1.117-2.105-2.105L53.5,19.727
			l-0.079,0.235c-0.33,0.988-1.117,1.775-2.105,2.105L51.081,22.146z"/>
	</g>
	<g>
		<circle class="st2" cx="32" cy="14.145" r="3.5"/>
	</g>
</g>
</svg>
