<?xml version="1.0" encoding="utf-8"?>
<!-- Generator: Adobe Illustrator 22.0.0, SVG Export Plug-In . SVG Version: 6.00 Build 0)  -->
<svg version="1.1" id="Icon_Set" xmlns="http://www.w3.org/2000/svg" xmlns:xlink="http://www.w3.org/1999/xlink" x="0px" y="0px"
	 viewBox="0 0 64 64" style="enable-background:new 0 0 64 64;" xml:space="preserve">
<style type="text/css">
	.st0{fill:#263238;}
	.st1{fill:#FFD740;}
	.st2{fill:#40C4FF;}
	.st3{fill:#FF5252;}
	.st4{fill:#FFFFFF;}
	.st5{fill:#4DB6AC;}
	.st6{fill:#4FC3F7;}
</style>
<g>
	<g>
		<path class="st0" d="M6,41H4c-0.276,0-0.5-0.224-0.5-0.5S3.724,40,4,40h2c0.276,0,0.5,0.224,0.5,0.5S6.276,41,6,41z"/>
	</g>
	<g>
		<path class="st0" d="M19.5,41H8c-0.276,0-0.5-0.224-0.5-0.5S7.724,40,8,40h11.5c0.276,0,0.5,0.224,0.5,0.5S19.776,41,19.5,41z"/>
	</g>
	<g>
		<path class="st0" d="M34,19h-4c-0.276,0-0.5-0.224-0.5-0.5S29.724,18,30,18h4c0.276,0,0.5,0.224,0.5,0.5S34.276,19,34,19z"/>
	</g>
	<g>
		<path class="st0" d="M32,21c-0.276,0-0.5-0.224-0.5-0.5v-4c0-0.276,0.224-0.5,0.5-0.5s0.5,0.224,0.5,0.5v4
			C32.5,20.776,32.276,21,32,21z"/>
	</g>
	<g>
		<path class="st0" d="M28,14.5h-4c-0.276,0-0.5-0.224-0.5-0.5s0.224-0.5,0.5-0.5h4c0.276,0,0.5,0.224,0.5,0.5S28.276,14.5,28,14.5z
			"/>
	</g>
	<g>
		<path class="st0" d="M26,16.5c-0.276,0-0.5-0.224-0.5-0.5v-4c0-0.276,0.224-0.5,0.5-0.5s0.5,0.224,0.5,0.5v4
			C26.5,16.276,26.276,16.5,26,16.5z"/>
	</g>
	<g>
		<path class="st0" d="M47.21,28.5c-4.136,0-7.5-3.364-7.5-7.5s3.364-7.5,7.5-7.5s7.5,3.364,7.5,7.5S51.346,28.5,47.21,28.5z
			 M47.21,14.5c-3.584,0-6.5,2.916-6.5,6.5s2.916,6.5,6.5,6.5s6.5-2.916,6.5-6.5S50.794,14.5,47.21,14.5z"/>
	</g>
	<g>
		<path class="st1" d="M52.064,16.953l0.522-0.434C51.301,14.98,49.371,14,47.21,14c-3.866,0-7,3.134-7,7h0.661
			C44.96,21,48.92,19.568,52.064,16.953z"/>
		<path class="st0" d="M40.871,21.5H40.21c-0.276,0-0.5-0.224-0.5-0.5c0-4.136,3.364-7.5,7.5-7.5c2.229,0,4.327,0.983,5.759,2.698
			c0.085,0.102,0.126,0.233,0.114,0.365s-0.076,0.254-0.178,0.339l-0.521,0.435c0,0,0,0.001-0.001,0.001
			C49.157,20.021,45.068,21.5,40.871,21.5z M40.729,20.5h0.143c3.964,0,7.825-1.396,10.872-3.931l0.123-0.103
			c-1.223-1.256-2.893-1.967-4.656-1.967C43.794,14.5,40.985,17.148,40.729,20.5z M52.063,16.953h0.01H52.063z"/>
	</g>
	<g>
		<path class="st0" d="M41.21,52.5H11.33c-1.996,0-3.62-1.624-3.62-3.62c0-1.875,1.463-3.459,3.331-3.607l22.032-1.763l3.692-1.847
			c1.385-0.693,2.876-1.064,4.432-1.104c0.143,0.013,0.266,0.048,0.361,0.142c0.097,0.095,0.151,0.224,0.151,0.358V52
			C41.71,52.276,41.486,52.5,41.21,52.5z M40.71,41.585c-1.223,0.096-2.397,0.422-3.497,0.973l-3.779,1.89
			c-0.058,0.028-0.12,0.046-0.184,0.051l-22.129,1.771C9.769,46.376,8.71,47.523,8.71,48.88c0,1.444,1.176,2.62,2.62,2.62h29.38
			V41.585z"/>
	</g>
	<g>
		<path class="st0" d="M57.499,52.498c-0.727,0-1.428-0.264-1.974-0.742l-10.29-9c-0.651-0.569-1.025-1.393-1.025-2.258v-5
			c0-1.654,1.346-3,3-3s3,1.346,3,3v3.639l9.265,8.104c0.604,0.527,0.966,1.258,1.019,2.058c0.054,0.8-0.207,1.572-0.735,2.175
			C59.188,52.124,58.365,52.498,57.499,52.498z M47.21,33.498c-1.103,0-2,0.897-2,2v5c0,0.577,0.249,1.126,0.684,1.506l10.29,9
			c0.799,0.698,2.125,0.609,2.821-0.189c0.353-0.402,0.526-0.917,0.491-1.45c-0.036-0.532-0.277-1.02-0.68-1.372l-9.436-8.253
			c-0.108-0.095-0.171-0.231-0.171-0.376v-3.865C49.21,34.396,48.312,33.498,47.21,33.498z"/>
	</g>
	<g>
		<path class="st2" d="M45.564,42.38c-0.543-0.475-0.854-1.161-0.854-1.882v-5c0-1.381,1.119-2.5,2.5-2.5s2.5,1.119,2.5,2.5v3.865
			l3.284,2.872c0.137-0.726,0.216-1.472,0.216-2.238V34.25c0-3.285-2.532-6.15-5.815-6.249c-3.398-0.102-6.185,2.622-6.185,5.997
			v7.061v10.94c3.988,0,7.512-1.954,9.694-4.948L45.564,42.38z"/>
		<path class="st0" d="M41.21,52.499c-0.133,0-0.26-0.053-0.354-0.146s-0.146-0.221-0.146-0.354V33.998
			c0-1.773,0.701-3.431,1.974-4.666c1.271-1.233,2.949-1.888,4.726-1.831c3.475,0.104,6.301,3.132,6.301,6.749v5.748
			c0,0.756-0.075,1.539-0.225,2.33c-0.033,0.176-0.158,0.321-0.328,0.38c-0.168,0.058-0.357,0.021-0.492-0.097l-3.284-2.872
			c-0.108-0.095-0.171-0.231-0.171-0.376v-3.865c0-1.103-0.897-2-2-2c-1.103,0-2,0.897-2,2v5c0,0.577,0.249,1.126,0.684,1.506l0,0
			l5.34,4.671c0.195,0.17,0.228,0.461,0.075,0.671C48.958,50.571,45.183,52.498,41.21,52.499z M47.208,28.498
			c-1.439,0-2.792,0.548-3.828,1.552c-1.077,1.046-1.67,2.447-1.67,3.948v17.49c3.318-0.148,6.442-1.75,8.514-4.368l-4.988-4.364
			c-0.651-0.569-1.025-1.393-1.025-2.258v-5c0-1.654,1.346-3,3-3s3,1.346,3,3v3.639l2.427,2.122
			c0.049-0.428,0.073-0.849,0.073-1.261V34.25c0-3.082-2.392-5.661-5.33-5.749C47.322,28.499,47.265,28.498,47.208,28.498z"/>
	</g>
	<g>
		<path class="st2" d="M41.209,41.059c-1.45,0.036-2.892,0.387-4.221,1.051L33.21,44l-18,1.44V52l25.999-0.001V41.059z"/>
		<path class="st0" d="M15.21,52.5c-0.133,0-0.26-0.053-0.354-0.146S14.71,52.133,14.71,52v-6.561c0-0.261,0.2-0.478,0.46-0.498
			l17.903-1.432l3.692-1.847c1.364-0.684,2.896-1.065,4.431-1.104c0.144,0.013,0.266,0.048,0.361,0.142
			c0.097,0.095,0.151,0.224,0.151,0.358v10.94c0,0.276-0.224,0.5-0.5,0.5L15.21,52.5z M15.71,45.901V51.5l24.999-0.001v-9.913
			c-1.215,0.098-2.414,0.43-3.496,0.972l-3.779,1.89c-0.058,0.028-0.12,0.046-0.184,0.051L15.71,45.901z"/>
	</g>
</g>
</svg>
