<?xml version="1.0" encoding="utf-8"?>
<!-- Generator: Adobe Illustrator 22.0.0, SVG Export Plug-In . SVG Version: 6.00 Build 0)  -->
<svg version="1.1" id="Icon_Set" xmlns="http://www.w3.org/2000/svg" xmlns:xlink="http://www.w3.org/1999/xlink" x="0px" y="0px"
	 viewBox="0 0 64 64" style="enable-background:new 0 0 64 64;" xml:space="preserve">
<style type="text/css">
	.st0{fill:#263238;}
	.st1{fill:#FFD740;}
	.st2{fill:#40C4FF;}
</style>
<g>
	<g>
		<path class="st0" d="M37.5,22.5h-4c-0.3,0-0.5-0.2-0.5-0.5s0.2-0.5,0.5-0.5h4c0.3,0,0.5,0.2,0.5,0.5S37.8,22.5,37.5,22.5z"/>
	</g>
	<g>
		<path class="st0" d="M35.5,24.5c-0.3,0-0.5-0.2-0.5-0.5v-4c0-0.3,0.2-0.5,0.5-0.5S36,19.7,36,20v4C36,24.3,35.8,24.5,35.5,24.5z"
			/>
	</g>
	<g>
		<path class="st0" d="M30.5,14.5h-4c-0.3,0-0.5-0.2-0.5-0.5s0.2-0.5,0.5-0.5h4c0.3,0,0.5,0.2,0.5,0.5S30.8,14.5,30.5,14.5z"/>
	</g>
	<g>
		<path class="st0" d="M28.5,16.5c-0.3,0-0.5-0.2-0.5-0.5v-4c0-0.3,0.2-0.5,0.5-0.5S29,11.7,29,12v4C29,16.3,28.8,16.5,28.5,16.5z"
			/>
	</g>
	<g>
		<path class="st0" d="M7.5,51.5C3.4,51.5,0,48.1,0,44s3.4-7.5,7.5-7.5S15,39.9,15,44S11.6,51.5,7.5,51.5z M7.5,37.5
			C3.9,37.5,1,40.4,1,44s2.9,6.5,6.5,6.5S14,47.6,14,44S11.1,37.5,7.5,37.5z"/>
	</g>
	<g>
		<path class="st1" d="M3.5,39.1L3,38.6c-1.5,1.3-2.5,3.2-2.5,5.4c0,3.9,3.1,7,7,7v-0.7C7.5,46.2,6.1,42.3,3.5,39.1z"/>
		<path class="st0" d="M7.5,51.5C3.4,51.5,0,48.1,0,44c0-2.2,1-4.3,2.7-5.8c0.1-0.1,0.2-0.1,0.4-0.1c0.1,0,0.3,0.1,0.3,0.2l0.4,0.5
			v0C6.5,42.1,8,46.1,8,50.3V51C8,51.3,7.8,51.5,7.5,51.5z M3,39.3c-1.3,1.2-2,2.9-2,4.7c0,3.4,2.6,6.2,6,6.5v-0.1
			c0-4-1.4-7.8-3.9-10.9L3,39.3z"/>
	</g>
	<g>
		<path class="st0" d="M63.5,52.5h-2c-0.3,0-0.5-0.2-0.5-0.5s0.2-0.5,0.5-0.5h2c0.3,0,0.5,0.2,0.5,0.5S63.8,52.5,63.5,52.5z"/>
	</g>
	<g>
		<path class="st0" d="M59.5,52.5H48c-0.3,0-0.5-0.2-0.5-0.5s0.2-0.5,0.5-0.5h11.5c0.3,0,0.5,0.2,0.5,0.5S59.8,52.5,59.5,52.5z"/>
	</g>
	<g>
		<path class="st0" d="M39,51.5C39,51.5,39,51.5,39,51.5l-17,0c-0.8,0-1.7-0.4-2.2-1c-0.6-0.6-0.8-1.5-0.8-2.3
			c0.1-1.5,1.5-2.7,3.1-2.7H39c1.7,0,3,1.3,3,3c0,0.8-0.3,1.6-0.9,2.1S39.8,51.5,39,51.5z M22.1,46.5c-1.1,0-2,0.8-2.1,1.8
			c-0.1,0.6,0.1,1.1,0.5,1.5c0.4,0.4,0.9,0.7,1.5,0.7l17,0c0,0,0,0,0,0c0.5,0,1-0.2,1.4-0.6c0.4-0.4,0.6-0.9,0.6-1.4
			c0-1.1-0.9-2-2-2H22.1z"/>
	</g>
	<g>
		<path class="st0" d="M59.9,47.5H41c-0.2,0-0.3-0.1-0.4-0.2c-0.4-0.5-1-0.8-1.6-0.8h-4.5c-0.3,0-0.5-0.2-0.5-0.5v-7
			c0-0.1,0.1-0.3,0.2-0.4c0.1-0.1,0.2-0.1,0.4-0.1l25.6,0.9l0,0c2.2,0.1,3.9,1.9,3.9,4.1C64,45.7,62.2,47.5,59.9,47.5z M41.2,46.5
			h18.7c1.7,0,3.1-1.4,3.1-3.1c0-1.7-1.3-3-3-3.1l-25-0.9v6h4C39.9,45.5,40.7,45.9,41.2,46.5z"/>
	</g>
	<g>
		<path class="st2" d="M22,51c-1.5,0-2.6-1.3-2.5-2.8c0.1-1.3,1.3-2.2,2.6-2.2h12.4v-7h-14c-3.3,0-6,2.7-6,6c0,3.3,2.7,6,6,6L22,51z
			"/>
		<path class="st0" d="M20.5,51.5c-3.6,0-6.5-2.9-6.5-6.5s2.9-6.5,6.5-6.5h14c0.3,0,0.5,0.2,0.5,0.5v7c0,0.3-0.2,0.5-0.5,0.5H22.1
			c-1.1,0-2,0.8-2.1,1.8c-0.1,0.6,0.1,1.1,0.5,1.5c0.4,0.4,0.9,0.7,1.5,0.7c0.3,0,0.5,0.2,0.5,0.5s-0.2,0.5-0.5,0.5L20.5,51.5z
			 M20.5,39.5c-3,0-5.5,2.5-5.5,5.5c0,2.8,2.1,5.1,4.7,5.4c-0.5-0.6-0.8-1.4-0.7-2.3c0.1-1.5,1.5-2.7,3.1-2.7H34v-6H20.5z"/>
	</g>
	<g>
		<path class="st2" d="M34.5,39v7H39c0.8,0,1.5,0.4,2,1h15.5v-7.2L34.5,39z"/>
		<path class="st0" d="M56.5,47.5H41c-0.2,0-0.3-0.1-0.4-0.2c-0.4-0.5-1-0.8-1.6-0.8h-4.5c-0.3,0-0.5-0.2-0.5-0.5v-7
			c0-0.1,0.1-0.3,0.2-0.4c0.1-0.1,0.2-0.1,0.4-0.1l22,0.8c0.3,0,0.5,0.2,0.5,0.5V47C57,47.3,56.8,47.5,56.5,47.5z M41.2,46.5H56
			v-6.3l-21-0.7v6h4C39.9,45.5,40.7,45.9,41.2,46.5z"/>
	</g>
</g>
</svg>
