<?xml version="1.0" encoding="utf-8"?>
<!-- Generator: Adobe Illustrator 22.0.0, SVG Export Plug-In . SVG Version: 6.00 Build 0)  -->
<svg version="1.1" id="Icon_Set" xmlns="http://www.w3.org/2000/svg" xmlns:xlink="http://www.w3.org/1999/xlink" x="0px" y="0px"
	 viewBox="0 0 64 64" style="enable-background:new 0 0 64 64;" xml:space="preserve">
<style type="text/css">
	.st0{fill:#263238;}
	.st1{fill:#FFD740;}
	.st2{fill:#40C4FF;}
	.st3{fill:#FF5252;}
	.st4{fill:#FFFFFF;}
	.st5{fill:#4DB6AC;}
	.st6{fill:#4FC3F7;}
</style>
<g>
	<g>
		<path class="st1" d="M32.001,8c-13.255,0-24,10.745-24,24s10.745,24,24,24s24-10.745,24-24S45.255,8,32.001,8z M32.001,51
			c-10.493,0-19-8.507-19-19s8.507-19,19-19s19,8.507,19,19S42.494,51,32.001,51z"/>
		<path class="st0" d="M32,56.5C18.491,56.5,7.5,45.509,7.5,32S18.491,7.5,32,7.5S56.5,18.491,56.5,32S45.51,56.5,32,56.5z M32,8.5
			C19.042,8.5,8.5,19.042,8.5,32S19.042,55.5,32,55.5S55.5,44.958,55.5,32S44.958,8.5,32,8.5z M32,51.5
			c-10.752,0-19.5-8.748-19.5-19.5S21.248,12.5,32,12.5S51.5,21.248,51.5,32S42.753,51.5,32,51.5z M32,13.5
			c-10.201,0-18.5,8.299-18.5,18.5S21.799,50.5,32,50.5S50.5,42.201,50.5,32S42.202,13.5,32,13.5z"/>
	</g>
	<g>
		<path class="st0" d="M4,32.5c-0.276,0-0.5-0.224-0.5-0.5C3.5,16.285,16.286,3.5,32,3.5c0.276,0,0.5,0.224,0.5,0.5
			S32.277,4.5,32,4.5C16.837,4.5,4.5,16.836,4.5,32C4.5,32.276,4.277,32.5,4,32.5z"/>
	</g>
	<g>
		<path class="st0" d="M35,4.5h-1c-0.276,0-0.5-0.224-0.5-0.5s0.224-0.5,0.5-0.5h1c0.276,0,0.5,0.224,0.5,0.5S35.277,4.5,35,4.5z"/>
	</g>
	<g>
		<path class="st0" d="M32,60.5c-0.276,0-0.5-0.224-0.5-0.5s0.224-0.5,0.5-0.5c15.164,0,27.5-12.336,27.5-27.5
			c0-0.276,0.224-0.5,0.5-0.5s0.5,0.224,0.5,0.5C60.5,47.715,47.715,60.5,32,60.5z"/>
	</g>
	<g>
		<path class="st0" d="M30,60.5h-1c-0.276,0-0.5-0.224-0.5-0.5s0.224-0.5,0.5-0.5h1c0.276,0,0.5,0.224,0.5,0.5S30.277,60.5,30,60.5z
			"/>
	</g>
	<g>
		<path class="st0" d="M53,6.5h-4c-0.276,0-0.5-0.224-0.5-0.5s0.224-0.5,0.5-0.5h4c0.276,0,0.5,0.224,0.5,0.5S53.277,6.5,53,6.5z"/>
	</g>
	<g>
		<path class="st0" d="M51,8.5c-0.276,0-0.5-0.224-0.5-0.5V4c0-0.276,0.224-0.5,0.5-0.5s0.5,0.224,0.5,0.5v4
			C51.5,8.276,51.277,8.5,51,8.5z"/>
	</g>
	<g>
		<path class="st0" d="M60,13h-4c-0.276,0-0.5-0.224-0.5-0.5S55.724,12,56,12h4c0.276,0,0.5,0.224,0.5,0.5S60.277,13,60,13z"/>
	</g>
	<g>
		<path class="st0" d="M58,15c-0.276,0-0.5-0.224-0.5-0.5v-4c0-0.276,0.224-0.5,0.5-0.5s0.5,0.224,0.5,0.5v4
			C58.5,14.776,58.277,15,58,15z"/>
	</g>
	<g>
		<path class="st0" d="M46,40.167H18c-0.18,0-0.345-0.096-0.435-0.252c-0.089-0.156-0.087-0.348,0.004-0.502l14-23.667
			c0.18-0.305,0.681-0.305,0.86,0l14,23.667c0.092,0.154,0.093,0.346,0.004,0.502C46.346,40.07,46.18,40.167,46,40.167z
			 M18.877,39.167h26.247L32,16.982L18.877,39.167z"/>
	</g>
	<g>
		<path class="st0" d="M39,46.833c-0.068,0-0.137-0.014-0.203-0.043c-0.252-0.112-0.366-0.408-0.253-0.66l8.105-18.155l-24.065-7.6
			l2.914,25.903c0.031,0.274-0.167,0.521-0.441,0.553c-0.266,0.03-0.522-0.167-0.553-0.441l-3-26.667
			c-0.019-0.168,0.049-0.334,0.179-0.442c0.131-0.107,0.307-0.142,0.468-0.09l25.333,8c0.136,0.042,0.247,0.142,0.306,0.271
			s0.059,0.279,0,0.409l-8.333,18.667C39.374,46.723,39.191,46.833,39,46.833z"/>
	</g>
	<g>
		<path class="st0" d="M25.001,46.833c-0.191,0-0.374-0.11-0.457-0.296L16.211,27.87c-0.058-0.13-0.058-0.279,0-0.409
			s0.169-0.229,0.306-0.271l25.333-8c0.161-0.051,0.337-0.018,0.468,0.09c0.13,0.107,0.198,0.274,0.179,0.442l-3,26.667
			c-0.031,0.274-0.282,0.473-0.553,0.441c-0.274-0.031-0.472-0.278-0.441-0.553l2.914-25.903l-24.065,7.6l8.104,18.155
			c0.113,0.252,0,0.548-0.253,0.66C25.138,46.82,25.069,46.833,25.001,46.833z"/>
	</g>
</g>
</svg>
