<?xml version="1.0" encoding="utf-8"?>
<!-- Generator: Adobe Illustrator 22.0.0, SVG Export Plug-In . SVG Version: 6.00 Build 0)  -->
<svg version="1.1" id="Icon_Set" xmlns="http://www.w3.org/2000/svg" xmlns:xlink="http://www.w3.org/1999/xlink" x="0px" y="0px"
	 viewBox="0 0 64 64" style="enable-background:new 0 0 64 64;" xml:space="preserve">
<style type="text/css">
	.st0{fill:#263238;}
	.st1{fill:#FFD740;}
	.st2{fill:#40C4FF;}
	.st3{fill:#FF5252;}
	.st4{fill:#FFFFFF;}
	.st5{fill:#4DB6AC;}
	.st6{fill:#4FC3F7;}
</style>
<g>
	<g>
		<path class="st0" d="M60,36h-2c-0.276,0-0.5-0.224-0.5-0.5S57.724,35,58,35h2c0.276,0,0.5,0.224,0.5,0.5S60.276,36,60,36z"/>
	</g>
	<g>
		<path class="st0" d="M56,36H44.5c-0.276,0-0.5-0.224-0.5-0.5s0.224-0.5,0.5-0.5H56c0.276,0,0.5,0.224,0.5,0.5S56.276,36,56,36z"/>
	</g>
	<g>
		<path class="st0" d="M11,36.003c-2.003,0-3.887-0.78-5.303-2.197C4.28,32.39,3.5,30.506,3.5,28.503s0.78-3.887,2.197-5.304
			c2.924-2.924,7.683-2.924,10.606,0l0,0C17.72,24.616,18.5,26.5,18.5,28.503s-0.78,3.887-2.197,5.303
			C14.887,35.223,13.003,36.003,11,36.003z M11,22.006c-1.665,0-3.329,0.633-4.596,1.9C5.176,25.135,4.5,26.767,4.5,28.503
			s0.676,3.368,1.904,4.596s2.86,1.904,4.596,1.904s3.369-0.677,4.596-1.904s1.904-2.859,1.904-4.596s-0.676-3.368-1.904-4.597
			C14.329,22.639,12.665,22.006,11,22.006z"/>
	</g>
	<g>
		<path class="st1" d="M11.57,22.209l0.062-0.676c-1.996-0.18-4.054,0.492-5.582,2.02c-2.734,2.734-2.734,7.166,0,9.899l0.467-0.467
			C9.409,30.094,11.197,26.281,11.57,22.209z"/>
		<path class="st0" d="M6.05,33.952c-0.128,0-0.256-0.049-0.354-0.146C4.28,32.39,3.5,30.506,3.5,28.503s0.78-3.887,2.197-5.304
			c1.576-1.575,3.757-2.364,5.98-2.164c0.132,0.012,0.254,0.076,0.339,0.178s0.126,0.233,0.114,0.365l-0.062,0.676
			c0,0.001,0,0.001,0,0.001c-0.383,4.18-2.229,8.116-5.197,11.084l-0.467,0.467C6.306,33.903,6.178,33.952,6.05,33.952z
			 M10.997,22.005c-1.719,0-3.367,0.676-4.593,1.901C5.176,25.135,4.5,26.767,4.5,28.503c0,1.568,0.552,3.052,1.564,4.229l0.1-0.101
			c2.803-2.803,4.546-6.521,4.908-10.469l0.015-0.158C11.057,22.005,11.027,22.005,10.997,22.005z M11.57,22.209h0.01H11.57z"/>
	</g>
	<g>
		<path class="st0" d="M21,52.5h-7.825c-1.125,0-2.149-0.393-2.882-1.104c-1.244-1.211-1.586-3.001-0.871-4.562l3.809-8.311
			c0.69-1.504,2.476-2.168,3.978-1.478c1.503,0.689,2.166,2.474,1.477,3.977l-2.51,5.478H21c1.654,0,3,1.346,3,3
			S22.654,52.5,21,52.5z M15.962,37.772c-0.759,0-1.485,0.434-1.822,1.167l-3.809,8.311c-0.537,1.171-0.278,2.517,0.659,3.429
			c0.537,0.521,1.333,0.821,2.185,0.821H21c1.103,0,2-0.897,2-2s-0.897-2-2-2h-5.604c-0.17,0-0.329-0.087-0.421-0.229
			c-0.092-0.144-0.104-0.324-0.034-0.479l2.835-6.186c0.459-1.002,0.018-2.192-0.984-2.652
			C16.523,37.831,16.24,37.772,15.962,37.772z"/>
	</g>
	<g>
		<path class="st2" d="M23.28,34.683c-2.558-2.107-6.34-1.741-8.446,0.817c-0.895,1.087-1.339,2.395-1.363,3.701l0.215-0.47
			c0.575-1.255,2.059-1.806,3.315-1.231c1.255,0.575,1.806,2.059,1.231,3.314l-1.749,3.816L19.359,47H21c1.381,0,2.5,1.119,2.5,2.5
			c0,0.264-0.052,0.514-0.128,0.752C25.029,51.387,26.996,52,29.018,52h1.576l4-8L23.28,34.683z"/>
		<path class="st0" d="M30.594,52.5h-1.576c-2.124,0-4.174-0.635-5.928-1.834c-0.182-0.125-0.261-0.354-0.194-0.563
			C22.967,49.876,23,49.686,23,49.5c0-1.103-0.897-2-2-2h-1.641c-0.116,0-0.229-0.04-0.318-0.114l-2.877-2.369
			c-0.175-0.144-0.231-0.388-0.137-0.594l1.749-3.816c0.459-1.002,0.018-2.192-0.984-2.652c-1.002-0.458-2.192-0.018-2.652,0.985
			l-0.215,0.47c-0.1,0.215-0.332,0.332-0.566,0.279c-0.23-0.053-0.393-0.26-0.389-0.496c0.027-1.483,0.538-2.869,1.478-4.01
			c2.279-2.768,6.384-3.164,9.15-0.886l0,0l11.314,9.317c0.18,0.148,0.233,0.4,0.129,0.609l-4,8
			C30.956,52.393,30.783,52.5,30.594,52.5z M23.945,50.032c1.521,0.961,3.267,1.468,5.073,1.468h1.267l3.684-7.367l-11.006-9.064
			c-2.34-1.927-5.814-1.592-7.743,0.75c-0.355,0.431-0.638,0.904-0.844,1.407c0.826-0.513,1.885-0.616,2.833-0.18
			c1.503,0.689,2.166,2.474,1.477,3.977l-1.589,3.467l2.441,2.011H21c1.654,0,3,1.346,3,3C24,49.673,23.982,49.849,23.945,50.032z"
			/>
	</g>
	<g>
		<path class="st0" d="M24,14.5h-4c-0.276,0-0.5-0.224-0.5-0.5s0.224-0.5,0.5-0.5h4c0.276,0,0.5,0.224,0.5,0.5S24.276,14.5,24,14.5z
			"/>
	</g>
	<g>
		<path class="st0" d="M22,16.5c-0.276,0-0.5-0.224-0.5-0.5v-4c0-0.276,0.224-0.5,0.5-0.5s0.5,0.224,0.5,0.5v4
			C22.5,16.276,22.276,16.5,22,16.5z"/>
	</g>
	<g>
		<path class="st0" d="M30,19h-4c-0.276,0-0.5-0.224-0.5-0.5S25.724,18,26,18h4c0.276,0,0.5,0.224,0.5,0.5S30.276,19,30,19z"/>
	</g>
	<g>
		<path class="st0" d="M28,21c-0.276,0-0.5-0.224-0.5-0.5v-4c0-0.276,0.224-0.5,0.5-0.5s0.5,0.224,0.5,0.5v4
			C28.5,20.776,28.276,21,28,21z"/>
	</g>
	<g>
		<polygon class="st2" points="53,44.725 34.594,44 30.594,52 53,52 		"/>
		<path class="st0" d="M53,52.5H30.594c-0.173,0-0.334-0.09-0.425-0.237s-0.1-0.331-0.022-0.486l4-8
			c0.088-0.176,0.269-0.275,0.467-0.276l18.406,0.725c0.269,0.011,0.48,0.231,0.48,0.5V52C53.5,52.276,53.276,52.5,53,52.5z
			 M31.403,51.5H52.5v-6.295l-17.604-0.692L31.403,51.5z"/>
	</g>
	<g>
		<path class="st0" d="M56.431,52.5H30.594c-0.173,0-0.334-0.09-0.425-0.237s-0.1-0.331-0.022-0.486l4-8
			c0.088-0.176,0.269-0.275,0.467-0.276l21.978,0.865c2.192,0.087,3.909,1.872,3.909,4.066C60.5,50.675,58.675,52.5,56.431,52.5z
			 M31.403,51.5h25.028c1.692,0,3.069-1.376,3.069-3.068c0-1.654-1.295-3.002-2.948-3.066l0,0l-21.655-0.853L31.403,51.5z"/>
	</g>
</g>
</svg>
