<?xml version="1.0" encoding="utf-8"?>
<!-- Generator: Adobe Illustrator 22.0.0, SVG Export Plug-In . SVG Version: 6.00 Build 0)  -->
<svg version="1.1" id="Icon_Set" xmlns="http://www.w3.org/2000/svg" xmlns:xlink="http://www.w3.org/1999/xlink" x="0px" y="0px"
	 viewBox="0 0 64 64" style="enable-background:new 0 0 64 64;" xml:space="preserve">
<style type="text/css">
	.st0{fill:#263238;}
	.st1{fill:#FFD740;}
	.st2{fill:#40C4FF;}
	.st3{fill:#FF5252;}
	.st4{fill:#FFFFFF;}
	.st5{fill:#4DB6AC;}
	.st6{fill:#4FC3F7;}
</style>
<g>
	<g>
		<path class="st0" d="M53,16.016h-4c-0.276,0-0.5-0.224-0.5-0.5s0.224-0.5,0.5-0.5h4c0.276,0,0.5,0.224,0.5,0.5
			S53.276,16.016,53,16.016z"/>
	</g>
	<g>
		<path class="st0" d="M51,18.016c-0.276,0-0.5-0.224-0.5-0.5v-4c0-0.276,0.224-0.5,0.5-0.5s0.5,0.224,0.5,0.5v4
			C51.5,17.792,51.276,18.016,51,18.016z"/>
	</g>
	<g>
		<path class="st0" d="M59,21.516h-4c-0.276,0-0.5-0.224-0.5-0.5s0.224-0.5,0.5-0.5h4c0.276,0,0.5,0.224,0.5,0.5
			S59.276,21.516,59,21.516z"/>
	</g>
	<g>
		<path class="st0" d="M57,23.516c-0.276,0-0.5-0.224-0.5-0.5v-4c0-0.276,0.224-0.5,0.5-0.5s0.5,0.224,0.5,0.5v4
			C57.5,23.292,57.276,23.516,57,23.516z"/>
	</g>
	<g>
		<path class="st0" d="M15,45.354h-3c-3.032,0-5.5-2.467-5.5-5.5v-10c0-3.033,2.468-5.5,5.5-5.5h3c0.276,0,0.5,0.224,0.5,0.5
			s-0.224,0.5-0.5,0.5h-3c-2.481,0-4.5,2.019-4.5,4.5v10c0,2.481,2.019,4.5,4.5,4.5h3c0.276,0,0.5,0.224,0.5,0.5
			S15.276,45.354,15,45.354z"/>
	</g>
	<g>
		<path class="st0" d="M15,42.354h-2.5c-1.654,0-3-1.346-3-3v-9c0-1.654,1.346-3,3-3H15c0.276,0,0.5,0.224,0.5,0.5
			s-0.224,0.5-0.5,0.5h-2.5c-1.103,0-2,0.897-2,2v9c0,1.103,0.897,2,2,2H15c0.276,0,0.5,0.224,0.5,0.5S15.276,42.354,15,42.354z"/>
	</g>
	<g>
		<path class="st0" d="M44,31.354c-0.276,0-0.5-0.224-0.5-0.5v-4c0-0.276-0.225-0.5-0.5-0.5h-4c-0.276,0-0.5-0.224-0.5-0.5
			s0.224-0.5,0.5-0.5h4c0.827,0,1.5,0.673,1.5,1.5v4C44.5,31.131,44.276,31.354,44,31.354z"/>
	</g>
	<g>
		<path class="st1" d="M54.737,48.137l-2.459-0.234l2.136-2.136c0.781-0.781,0.781-2.047,0-2.828c-0.781-0.781-2.047-0.781-2.828,0
			l-4.473,4.473l-5.638-0.537C38.539,46.595,36,48.903,36,51.853s2.539,5.258,5.475,4.979l13.262-1.263
			C56.02,55.446,57,54.368,57,53.08v-2.454C57,49.337,56.02,48.259,54.737,48.137z"/>
		<path class="st0" d="M41.005,57.354c-1.362,0-2.689-0.508-3.705-1.431c-1.144-1.041-1.8-2.524-1.8-4.07
			c0-1.546,0.656-3.029,1.8-4.069s2.683-1.552,4.223-1.407l5.403,0.515l4.307-4.306c0.975-0.975,2.561-0.975,3.535,0
			c0.473,0.472,0.732,1.1,0.732,1.768s-0.26,1.296-0.732,1.768l-1.386,1.386l1.403,0.134c1.548,0.147,2.715,1.431,2.715,2.986v2.454
			c0,1.555-1.167,2.839-2.716,2.986l-13.261,1.263C41.35,57.346,41.177,57.354,41.005,57.354z M41.004,47.352
			c-1.114,0-2.2,0.416-3.031,1.171c-0.936,0.851-1.473,2.064-1.473,3.33s0.537,2.479,1.473,3.33
			c0.937,0.852,2.202,1.269,3.456,1.151l13.261-1.263c1.032-0.098,1.811-0.954,1.811-1.991v-2.454c0-1.037-0.778-1.893-1.81-1.991
			c-0.001,0-0.001,0-0.001,0L52.23,48.4c-0.192-0.018-0.357-0.146-0.423-0.328c-0.065-0.183-0.02-0.386,0.117-0.523l2.136-2.136
			c0.283-0.283,0.439-0.66,0.439-1.061s-0.156-0.777-0.439-1.061c-0.584-0.585-1.537-0.585-2.121,0l-4.473,4.473
			c-0.105,0.105-0.247,0.155-0.401,0.144l-5.638-0.537C41.287,47.358,41.146,47.352,41.004,47.352z"/>
	</g>
	<g>
		<line class="st1" x1="47.114" y1="47.411" x2="44.614" y2="49.911"/>
		<path class="st0" d="M44.613,50.411c-0.128,0-0.256-0.049-0.354-0.146c-0.195-0.195-0.195-0.512,0-0.707l2.5-2.5
			c0.195-0.195,0.512-0.195,0.707,0s0.195,0.512,0,0.707l-2.5,2.5C44.869,50.362,44.741,50.411,44.613,50.411z"/>
	</g>
	<g>
		<line class="st1" x1="52.5" y1="55.755" x2="51" y2="53.255"/>
		<path class="st0" d="M52.5,56.255c-0.169,0-0.335-0.086-0.429-0.243l-1.5-2.5c-0.143-0.237-0.065-0.544,0.172-0.686
			c0.234-0.141,0.543-0.066,0.686,0.171l1.5,2.5c0.143,0.237,0.065,0.544-0.172,0.686C52.677,56.232,52.588,56.255,52.5,56.255z"/>
	</g>
	<g>
		<path class="st0" d="M36.115,57.354H18c-0.827,0-1.5-0.673-1.5-1.5v-1c0-0.827,0.673-1.5,1.5-1.5h16.3c0.276,0,0.5,0.224,0.5,0.5
			s-0.224,0.5-0.5,0.5H18c-0.275,0-0.5,0.224-0.5,0.5v1c0,0.276,0.225,0.5,0.5,0.5h18.115c0.276,0,0.5,0.224,0.5,0.5
			S36.392,57.354,36.115,57.354z"/>
	</g>
	<g>
		<path class="st0" d="M31.991,18.854c-0.062,0-0.126-0.012-0.188-0.037c-0.256-0.104-0.38-0.395-0.276-0.651l0.99-2.443
			c0.255-0.629,0.176-1.338-0.213-1.896l-1.43-2.048c-0.597-0.856-0.708-1.94-0.296-2.899l0.952-2.223
			c0.109-0.255,0.403-0.373,0.657-0.263c0.254,0.109,0.371,0.403,0.263,0.656l-0.953,2.224c-0.274,0.639-0.201,1.361,0.197,1.932
			l1.43,2.048c0.583,0.836,0.702,1.899,0.32,2.843l-0.99,2.444C32.376,18.737,32.188,18.854,31.991,18.854z"/>
	</g>
	<g>
		<path class="st0" d="M26.991,18.854c-0.062,0-0.126-0.012-0.188-0.037c-0.256-0.104-0.38-0.395-0.276-0.651l0.99-2.443
			c0.255-0.629,0.176-1.338-0.213-1.896l-1.43-2.048c-0.597-0.856-0.708-1.94-0.296-2.899l0.952-2.223
			c0.109-0.255,0.403-0.373,0.657-0.263c0.254,0.109,0.371,0.403,0.263,0.656l-0.953,2.224c-0.274,0.639-0.201,1.361,0.197,1.932
			l1.43,2.048c0.583,0.836,0.702,1.899,0.32,2.843l-0.99,2.444C27.376,18.737,27.188,18.854,26.991,18.854z"/>
	</g>
	<g>
		<path class="st0" d="M36.991,18.854c-0.062,0-0.126-0.012-0.188-0.037c-0.256-0.104-0.38-0.395-0.276-0.651l0.99-2.443
			c0.255-0.629,0.176-1.338-0.213-1.896l-1.43-2.048c-0.597-0.856-0.708-1.94-0.296-2.899l0.952-2.223
			c0.109-0.255,0.404-0.373,0.657-0.263c0.254,0.109,0.371,0.403,0.263,0.656l-0.953,2.224c-0.274,0.639-0.201,1.361,0.197,1.932
			l1.43,2.048c0.583,0.836,0.702,1.899,0.32,2.843l-0.99,2.444C37.376,18.737,37.188,18.854,36.991,18.854z"/>
	</g>
	<g>
		<path class="st0" d="M14.25,51.016h-9c-0.276,0-0.5-0.224-0.5-0.5s0.224-0.5,0.5-0.5h9c0.276,0,0.5,0.224,0.5,0.5
			S14.526,51.016,14.25,51.016z"/>
	</g>
	<g>
		<path class="st0" d="M3.5,51.016H2c-0.276,0-0.5-0.224-0.5-0.5s0.224-0.5,0.5-0.5h1.5c0.276,0,0.5,0.224,0.5,0.5
			S3.776,51.016,3.5,51.016z"/>
	</g>
	<g>
		<path class="st0" d="M58.75,36.016h-9c-0.276,0-0.5-0.224-0.5-0.5s0.224-0.5,0.5-0.5h9c0.276,0,0.5,0.224,0.5,0.5
			S59.026,36.016,58.75,36.016z"/>
	</g>
	<g>
		<path class="st0" d="M62,36.016h-1.5c-0.276,0-0.5-0.224-0.5-0.5s0.224-0.5,0.5-0.5H62c0.276,0,0.5,0.224,0.5,0.5
			S62.276,36.016,62,36.016z"/>
	</g>
	<g>
		<path class="st0" d="M21.667,52.354c-0.161,0-0.319-0.078-0.416-0.223l-2.987-4.481c-1.153-1.729-1.764-3.744-1.764-5.824V25.354
			c0-1.654,1.346-3,3-3h25.001c1.654,0,3,1.346,3,3v16.472c0,1.212-0.233,2.45-0.694,3.678c-0.097,0.259-0.387,0.388-0.644,0.292
			c-0.259-0.097-0.39-0.385-0.292-0.644c0.418-1.115,0.63-2.234,0.63-3.326V25.354c0-1.103-0.897-2-2-2H19.5c-1.103,0-2,0.897-2,2
			v16.472c0,1.882,0.552,3.705,1.596,5.27l2.987,4.481c0.153,0.23,0.091,0.54-0.139,0.693
			C21.859,52.327,21.763,52.354,21.667,52.354z"/>
	</g>
</g>
</svg>
