<?xml version="1.0" encoding="utf-8"?>
<!-- Generator: Adobe Illustrator 22.0.0, SVG Export Plug-In . SVG Version: 6.00 Build 0)  -->
<svg version="1.1" id="Icon_Set" xmlns="http://www.w3.org/2000/svg" xmlns:xlink="http://www.w3.org/1999/xlink" x="0px" y="0px"
	 viewBox="0 0 64 64" style="enable-background:new 0 0 64 64;" xml:space="preserve">
<style type="text/css">
	.st0{fill:#263238;}
	.st1{fill:#FFD740;}
	.st2{fill:#40C4FF;}
	.st3{fill:#FF5252;}
	.st4{fill:#FFFFFF;}
	.st5{fill:#4DB6AC;}
	.st6{fill:#4FC3F7;}
</style>
<g>
	<g>
		<path class="st0" d="M34.766,25.25c-4.136,0-7.5-3.364-7.5-7.5s3.364-7.5,7.5-7.5s7.5,3.364,7.5,7.5S38.902,25.25,34.766,25.25z
			 M34.766,11.25c-3.584,0-6.5,2.916-6.5,6.5s2.916,6.5,6.5,6.5s6.5-2.916,6.5-6.5S38.35,11.25,34.766,11.25z"/>
	</g>
	<g>
		<path class="st1" d="M39.62,13.703l0.522-0.434c-1.284-1.538-3.215-2.518-5.375-2.518c-3.866,0-7,3.134-7,7h0.661
			C32.516,17.75,36.476,16.318,39.62,13.703z"/>
		<path class="st0" d="M28.427,18.25h-0.661c-0.276,0-0.5-0.224-0.5-0.5c0-4.136,3.364-7.5,7.5-7.5c2.229,0,4.328,0.983,5.759,2.698
			c0.085,0.102,0.126,0.233,0.114,0.365c-0.012,0.133-0.076,0.255-0.178,0.339l-0.522,0.435c0,0.001,0,0.001,0,0.001
			C36.713,16.771,32.625,18.25,28.427,18.25z M28.285,17.25h0.142c3.965,0,7.826-1.396,10.873-3.932l0.123-0.102
			c-1.222-1.256-2.893-1.967-4.656-1.967C31.35,11.25,28.541,13.898,28.285,17.25z M39.62,13.703h0.01H39.62z"/>
	</g>
	<g>
		<path class="st0" d="M40.382,53.75h-18.04c-2.393,0-4.34-1.947-4.34-4.34c0-1.208,0.509-2.37,1.396-3.189
			c0.887-0.82,2.088-1.24,3.291-1.137l17.983,1.438c1.868,0.149,3.331,1.734,3.331,3.607C44.002,52.126,42.378,53.75,40.382,53.75z
			 M22.333,46.069c-0.839,0-1.632,0.31-2.257,0.887c-0.693,0.64-1.074,1.511-1.074,2.454c0,1.842,1.499,3.34,3.34,3.34h18.04
			c1.444,0,2.62-1.176,2.62-2.62c0-1.355-1.059-2.503-2.411-2.611L22.608,46.08C22.517,46.073,22.424,46.069,22.333,46.069z"/>
	</g>
	<g>
		<path class="st0" d="M9.008,53.669c-0.337,0-0.677-0.043-1.01-0.13c-1.142-0.297-2.09-1.078-2.601-2.143
			c-0.812-1.688-0.356-3.687,1.108-4.857l5.131-4.104c0.206-0.163,0.502-0.141,0.68,0.052c0.71,0.77,1.901,0.863,2.711,0.213
			l10.917-8.733c0.133-0.106,0.314-0.14,0.475-0.082c0.631,0.217,1.206,0.537,1.709,0.952l13.286,10.94h0
			c0.513,0.422,0.923,0.96,1.217,1.601c0.094,0.206,0.039,0.449-0.135,0.594c-0.174,0.143-0.424,0.154-0.608,0.023
			c-0.387-0.274-0.835-0.438-1.295-0.476l-12.27-0.981c-0.102-0.008-0.199-0.047-0.278-0.112l-3.463-2.852l-13.268,9.362
			C10.63,53.418,9.825,53.669,9.008,53.669z M11.925,43.483L7.13,47.32c-1.099,0.878-1.44,2.377-0.832,3.644
			c0.383,0.799,1.094,1.385,1.951,1.607c0.855,0.223,1.763,0.058,2.487-0.452l13.58-9.583c0.184-0.131,0.432-0.122,0.606,0.022
			l3.637,2.994l12.112,0.97c0.028,0.002,0.057,0.005,0.085,0.008L27.493,35.607c-0.343-0.282-0.727-0.512-1.146-0.683L15.652,43.48
			C14.556,44.356,13.002,44.334,11.925,43.483z"/>
	</g>
	<g>
		<path class="st0" d="M17.502,22.75h-4c-0.276,0-0.5-0.224-0.5-0.5s0.224-0.5,0.5-0.5h4c0.276,0,0.5,0.224,0.5,0.5
			S17.779,22.75,17.502,22.75z"/>
	</g>
	<g>
		<path class="st0" d="M15.502,24.75c-0.276,0-0.5-0.224-0.5-0.5v-4c0-0.276,0.224-0.5,0.5-0.5s0.5,0.224,0.5,0.5v4
			C16.002,24.526,15.779,24.75,15.502,24.75z"/>
	</g>
	<g>
		<path class="st0" d="M11.502,27.25h-4c-0.276,0-0.5-0.224-0.5-0.5s0.224-0.5,0.5-0.5h4c0.276,0,0.5,0.224,0.5,0.5
			S11.778,27.25,11.502,27.25z"/>
	</g>
	<g>
		<path class="st0" d="M9.502,29.25L9.502,29.25c-0.276,0-0.5-0.224-0.5-0.5l0-4c0-0.276,0.224-0.5,0.5-0.5l0,0
			c0.276,0,0.5,0.224,0.5,0.5l0,4C10.002,29.026,9.778,29.25,9.502,29.25z"/>
	</g>
	<g>
		<path class="st0" d="M40.301,46.008c-0.113,0-0.226-0.038-0.318-0.114l-3.972-3.271c-0.118-0.098-0.186-0.244-0.182-0.397
			s0.077-0.296,0.2-0.389l5.237-3.928V25.915c0-0.146,0.064-0.286,0.177-0.382c0.112-0.095,0.261-0.138,0.405-0.111l0.822,0.137
			c2.663,0.443,4.596,2.725,4.596,5.425v8.425c0,0.94-0.449,1.837-1.2,2.4l-5.465,4.1C40.512,45.975,40.407,46.008,40.301,46.008z
			 M37.138,42.255l3.178,2.617l5.151-3.864c0.501-0.375,0.8-0.973,0.8-1.6v-8.425c0-2.209-1.581-4.076-3.76-4.438l-0.24-0.04v11.653
			c0,0.157-0.074,0.306-0.2,0.4L37.138,42.255z M41.767,38.158h0.01H41.767z"/>
	</g>
	<g>
		<path class="st2" d="M36.329,42.237l5.438-4.078V25.915l-4.002-0.667c-1.358,2.265-4.64,2.266-5.999,0.001l-0.001-0.001l-4,1.5
			v8.442c0.015,0.012,0.031,0.019,0.045,0.031L36.329,42.237z"/>
		<path class="st0" d="M36.329,42.736c-0.113,0-0.226-0.038-0.318-0.114l-8.519-7.015c-0.119-0.095-0.228-0.265-0.228-0.417v-8.442
			c0-0.208,0.129-0.395,0.324-0.468l4-1.5c0.227-0.085,0.48,0.004,0.604,0.211c0.547,0.911,1.509,1.456,2.572,1.456
			c1.063-0.001,2.024-0.545,2.571-1.456c0.106-0.176,0.312-0.271,0.511-0.236l4.002,0.667c0.241,0.04,0.418,0.249,0.418,0.493
			v12.243c0,0.157-0.074,0.306-0.2,0.4l-5.438,4.078C36.54,42.703,36.434,42.736,36.329,42.736z M28.265,34.954l8.078,6.646
			l4.923-3.692V26.339l-3.264-0.544c-0.75,1.04-1.937,1.652-3.238,1.652c-1.276,0-2.441-0.588-3.193-1.592l-3.307,1.239V34.954z"/>
	</g>
	<g>
		<path class="st0" d="M13.781,44.138c-0.881,0-1.754-0.386-2.346-1.125c-1.033-1.292-0.823-3.184,0.469-4.217l15.548-12.438
			c0.149-0.119,0.356-0.143,0.529-0.06c0.173,0.083,0.284,0.258,0.284,0.45v6.402c0,0.152-0.069,0.296-0.188,0.391l-12.425,9.94
			C15.1,43.923,14.438,44.138,13.781,44.138z M27.265,27.788L12.529,39.577c-0.861,0.688-1.001,1.949-0.312,2.811
			c0.688,0.86,1.95,1.003,2.811,0.312l12.238-9.79V27.788z"/>
	</g>
	<g>
		<path class="st0" d="M58.502,53.75h-2c-0.276,0-0.5-0.224-0.5-0.5s0.224-0.5,0.5-0.5h2c0.276,0,0.5,0.224,0.5,0.5
			S58.778,53.75,58.502,53.75z"/>
	</g>
	<g>
		<path class="st0" d="M54.502,53.75h-9c-0.276,0-0.5-0.224-0.5-0.5s0.224-0.5,0.5-0.5h9c0.276,0,0.5,0.224,0.5,0.5
			S54.778,53.75,54.502,53.75z"/>
	</g>
	<g>
		<path class="st2" d="M36.502,46.69l-13.854-1.108c-2.234-0.179-4.146,1.586-4.146,3.828c0,2.121,1.719,3.84,3.84,3.84h14.16V46.69
			z"/>
		<path class="st0" d="M36.502,53.75h-14.16c-2.393,0-4.34-1.947-4.34-4.34c0-1.208,0.509-2.37,1.396-3.189
			c0.887-0.82,2.088-1.24,3.291-1.137l13.854,1.108c0.26,0.021,0.46,0.237,0.46,0.498v6.56C37.002,53.526,36.778,53.75,36.502,53.75
			z M22.333,46.069c-0.839,0-1.632,0.31-2.257,0.887c-0.693,0.64-1.074,1.511-1.074,2.454c0,1.842,1.499,3.34,3.34,3.34h13.66
			v-5.598L22.608,46.08C22.516,46.073,22.424,46.069,22.333,46.069z"/>
	</g>
	<g>
		<path class="st2" d="M41.096,46.162L27.81,35.221c-0.473-0.389-1.001-0.675-1.554-0.865L15.34,43.09
			c-1.032,0.825-2.51,0.691-3.391-0.266L9.5,44.783l4.686,5.513l10.419-7.353l3.758,3.095l12.269,0.981
			c0.576,0.046,1.102,0.252,1.544,0.565C41.931,47.052,41.579,46.56,41.096,46.162z"/>
		<path class="st0" d="M14.186,50.797c-0.143,0-0.283-0.061-0.381-0.176l-4.686-5.514c-0.088-0.104-0.13-0.237-0.117-0.372
			c0.013-0.135,0.08-0.258,0.185-0.343l2.448-1.958c0.206-0.163,0.502-0.141,0.68,0.052c0.709,0.768,1.9,0.862,2.711,0.214
			l10.917-8.733c0.134-0.105,0.314-0.139,0.475-0.082c0.631,0.216,1.206,0.536,1.709,0.951l13.286,10.94c0,0,0,0,0,0
			c0.514,0.424,0.923,0.963,1.216,1.601c0.094,0.206,0.039,0.449-0.135,0.594c-0.174,0.145-0.423,0.154-0.608,0.023
			c-0.39-0.274-0.838-0.438-1.296-0.476l-12.269-0.981c-0.102-0.008-0.199-0.047-0.278-0.112l-3.463-2.852l-10.107,7.132
			C14.387,50.767,14.286,50.797,14.186,50.797z M10.214,44.852l4.057,4.773l10.045-7.089c0.184-0.131,0.432-0.122,0.606,0.022
			l3.637,2.994l12.112,0.97c0.028,0.002,0.057,0.005,0.085,0.008L27.493,35.607c-0.343-0.282-0.727-0.511-1.145-0.683l-10.695,8.557
			c-1.097,0.877-2.65,0.853-3.727,0.002L10.214,44.852z"/>
	</g>
</g>
</svg>
