<?xml version="1.0" encoding="utf-8"?>
<!-- Generator: Adobe Illustrator 22.0.0, SVG Export Plug-In . SVG Version: 6.00 Build 0)  -->
<svg version="1.1" id="Icon_Set" xmlns="http://www.w3.org/2000/svg" xmlns:xlink="http://www.w3.org/1999/xlink" x="0px" y="0px"
	 viewBox="0 0 64 64" style="enable-background:new 0 0 64 64;" xml:space="preserve">
<style type="text/css">
	.st0{fill:#263238;}
	.st1{fill:#FFD740;}
	.st2{fill:#40C4FF;}
	.st3{fill:#FF5252;}
	.st4{fill:#FFFFFF;}
	.st5{fill:#4DB6AC;}
	.st6{fill:#4FC3F7;}
</style>
<g>
	<g>
		<path class="st1" d="M27.145,60.548l-0.522,0.434c1.284,1.538,3.215,2.518,5.375,2.518c3.866,0,7-3.134,7-7h-0.661
			C34.248,56.5,30.288,57.932,27.145,60.548z"/>
		<path class="st0" d="M31.999,64c-2.229,0-4.328-0.983-5.76-2.698c-0.085-0.102-0.126-0.233-0.114-0.365
			c0.012-0.133,0.076-0.255,0.179-0.34l0.521-0.434C30.051,57.479,34.14,56,38.338,56h0.661c0.276,0,0.5,0.224,0.5,0.5
			C39.499,60.636,36.135,64,31.999,64z M27.343,61.033C28.564,62.289,30.235,63,31.999,63c3.416,0,6.225-2.648,6.481-6h-0.143
			c-3.965,0-7.827,1.396-10.873,3.933c-0.001,0-0.001,0-0.001,0L27.343,61.033z M27.145,60.548h0.01H27.145z"/>
	</g>
	<g>
		<path class="st0" d="M59,64h-2c-0.276,0-0.5-0.224-0.5-0.5S56.724,63,57,63h2c0.276,0,0.5,0.224,0.5,0.5S59.276,64,59,64z"/>
	</g>
	<g>
		<path class="st0" d="M55,64H43.5c-0.276,0-0.5-0.224-0.5-0.5s0.224-0.5,0.5-0.5H55c0.276,0,0.5,0.224,0.5,0.5S55.276,64,55,64z"/>
	</g>
	<g>
		<path class="st0" d="M7,64H5c-0.276,0-0.5-0.224-0.5-0.5S4.724,63,5,63h2c0.276,0,0.5,0.224,0.5,0.5S7.276,64,7,64z"/>
	</g>
	<g>
		<path class="st0" d="M20.5,64H9c-0.276,0-0.5-0.224-0.5-0.5S8.724,63,9,63h11.5c0.276,0,0.5,0.224,0.5,0.5S20.776,64,20.5,64z"/>
	</g>
	<g>
		<path class="st0" d="M54,38h-4c-0.276,0-0.5-0.224-0.5-0.5S49.724,37,50,37h4c0.276,0,0.5,0.224,0.5,0.5S54.276,38,54,38z"/>
	</g>
	<g>
		<path class="st0" d="M52,40c-0.276,0-0.5-0.224-0.5-0.5v-4c0-0.276,0.224-0.5,0.5-0.5s0.5,0.224,0.5,0.5v4
			C52.5,39.776,52.276,40,52,40z"/>
	</g>
	<g>
		<path class="st0" d="M49,32h-4c-0.276,0-0.5-0.224-0.5-0.5S44.724,31,45,31h4c0.276,0,0.5,0.224,0.5,0.5S49.276,32,49,32z"/>
	</g>
	<g>
		<path class="st0" d="M47,34c-0.276,0-0.5-0.224-0.5-0.5v-4c0-0.276,0.224-0.5,0.5-0.5s0.5,0.224,0.5,0.5v4
			C47.5,33.776,47.276,34,47,34z"/>
	</g>
	<g>
		<path class="st0" d="M31.999,64c-4.136,0-7.5-3.364-7.5-7.5s3.364-7.5,7.5-7.5s7.5,3.364,7.5,7.5S36.135,64,31.999,64z M31.999,50
			c-3.584,0-6.5,2.916-6.5,6.5s2.916,6.5,6.5,6.5s6.5-2.916,6.5-6.5S35.583,50,31.999,50z"/>
	</g>
	<g>
		<path class="st2" d="M29,49L29,49c1.358-2.265,4.64-2.265,5.999-0.001L35,49l4-2.5v-17H24.998v17L29,49z"/>
		<path class="st0" d="M29,49.5c-0.093,0-0.185-0.026-0.265-0.076l-4.003-2.5c-0.146-0.091-0.235-0.251-0.235-0.424v-17
			c0-0.276,0.224-0.5,0.5-0.5H39c0.276,0,0.5,0.224,0.5,0.5v17c0,0.173-0.089,0.333-0.235,0.424l-4,2.5
			c-0.113,0.071-0.25,0.092-0.382,0.062c-0.13-0.031-0.242-0.114-0.312-0.229c-0.548-0.912-1.509-1.457-2.571-1.457
			c-0.001,0-0.001,0-0.001,0c-1.062,0.001-2.023,0.545-2.57,1.456c-0.069,0.115-0.182,0.198-0.312,0.229
			C29.078,49.495,29.039,49.5,29,49.5z M25.497,46.223l3.362,2.101c0.754-0.961,1.895-1.522,3.14-1.522H32
			c1.245,0,2.386,0.561,3.139,1.521l3.361-2.1V30H25.497V46.223z"/>
	</g>
	<g>
		<path class="st0" d="M32.001,29.998H25c-0.136,0-0.266-0.055-0.359-0.153c-0.095-0.097-0.145-0.229-0.141-0.364L25.398,3.43
			C25.465,1.506,27.024,0,28.949,0c1.958,0,3.552,1.593,3.552,3.552v25.946C32.501,29.774,32.277,29.998,32.001,29.998z
			 M25.518,28.998h5.983V3.552C31.501,2.145,30.356,1,28.949,1c-1.383,0-2.504,1.083-2.551,2.464L25.518,28.998z"/>
	</g>
	<g>
		<polygon class="st2" points="25,29.498 32.001,29.498 32.001,7.498 25.741,7.498 		"/>
		<path class="st0" d="M32.001,29.998H25c-0.136,0-0.266-0.055-0.359-0.152c-0.095-0.098-0.145-0.229-0.141-0.364l0.741-22
			c0.01-0.27,0.23-0.483,0.5-0.483h6.26c0.276,0,0.5,0.224,0.5,0.5v22C32.501,29.774,32.277,29.998,32.001,29.998z M25.518,28.998
			h5.983v-21h-5.276L25.518,28.998z"/>
	</g>
	<g>
		<path class="st0" d="M39,30h-7.001c-0.276,0-0.5-0.224-0.5-0.5V3.554c0-1.958,1.594-3.552,3.552-3.552
			c1.925,0,3.484,1.506,3.551,3.43L39.5,29.483c0.004,0.135-0.046,0.267-0.141,0.364C39.266,29.945,39.136,30,39,30z M32.499,29
			h5.983L37.602,3.466c-0.047-1.381-1.168-2.464-2.551-2.464c-1.407,0-2.552,1.145-2.552,2.552V29z"/>
	</g>
	<g>
		<polygon class="st2" points="39,29.5 31.999,29.5 31.999,7.5 38.259,7.5 		"/>
		<path class="st0" d="M39,30h-7.001c-0.276,0-0.5-0.224-0.5-0.5v-22c0-0.276,0.224-0.5,0.5-0.5h6.26c0.27,0,0.49,0.214,0.5,0.483
			l0.741,22c0.004,0.135-0.046,0.267-0.141,0.364C39.266,29.945,39.136,30,39,30z M32.499,29h5.983L37.775,8h-5.276V29z"/>
	</g>
	<g>
		<path class="st0" d="M43.895,58.33h-5.025c-0.149,0-0.29-0.066-0.385-0.182c-0.096-0.114-0.135-0.266-0.106-0.412
			c0.08-0.422,0.121-0.838,0.121-1.236c0-1.198-0.337-2.377-0.974-3.407c-0.095-0.154-0.1-0.348-0.011-0.506
			c0.088-0.159,0.255-0.257,0.437-0.257h5.169l-4.507-5.516c-0.073-0.089-0.113-0.201-0.113-0.316v-8.657
			c0-0.229,0.156-0.43,0.379-0.485c0.327-0.081,0.324-0.086,7.593,9.716l1.842,2.484c1.245,1.679,1.435,3.881,0.494,5.747
			C47.868,57.17,45.985,58.33,43.895,58.33z M39.451,57.33h4.443c1.736,0,3.239-0.926,4.021-2.477
			c0.78-1.55,0.629-3.308-0.404-4.702l-1.843-2.484c-2.413-3.255-4.886-6.588-6.168-8.316v6.969l5.062,6.194
			c0.123,0.149,0.147,0.356,0.065,0.53c-0.083,0.175-0.259,0.286-0.452,0.286H38.79c0.466,0.992,0.709,2.073,0.709,3.17
			C39.499,56.771,39.482,57.049,39.451,57.33z"/>
	</g>
	<g>
		<path class="st0" d="M25.129,58.33h-5.024c-2.091,0-3.973-1.159-4.913-3.026c-0.939-1.866-0.75-4.069,0.495-5.748l6.003-8.096
			c3.101-4.18,3.104-4.185,3.432-4.104c0.223,0.056,0.379,0.256,0.379,0.485v8.657c0,0.115-0.04,0.228-0.113,0.316l-4.508,5.516
			h5.167c0.182,0,0.349,0.098,0.437,0.257c0.089,0.158,0.084,0.352-0.011,0.506c-0.637,1.029-0.973,2.208-0.973,3.407
			c0,0.403,0.041,0.819,0.121,1.235c0.028,0.146-0.011,0.298-0.105,0.413S25.278,58.33,25.129,58.33z M24.5,39.351
			c-1.33,1.791-4.097,5.522-8.011,10.801c-1.033,1.395-1.185,3.152-0.404,4.702c0.78,1.551,2.283,2.477,4.02,2.477h4.442
			c-0.032-0.279-0.048-0.557-0.048-0.83c0-1.097,0.243-2.178,0.709-3.17h-5.384c-0.193,0-0.369-0.111-0.452-0.286
			c-0.082-0.174-0.058-0.381,0.065-0.53l5.063-6.194V39.351z"/>
	</g>
</g>
</svg>
