<?xml version="1.0" encoding="utf-8"?>
<!-- Generator: Adobe Illustrator 22.0.0, SVG Export Plug-In . SVG Version: 6.00 Build 0)  -->
<svg version="1.1" id="Icon_Set" xmlns="http://www.w3.org/2000/svg" xmlns:xlink="http://www.w3.org/1999/xlink" x="0px" y="0px"
	 viewBox="0 0 64 64" style="enable-background:new 0 0 64 64;" xml:space="preserve">
<style type="text/css">
	.st0{fill:#263238;}
	.st1{fill:#FFD740;}
	.st2{fill:#40C4FF;}
	.st3{fill:#FF5252;}
	.st4{fill:#FFFFFF;}
	.st5{fill:#4DB6AC;}
	.st6{fill:#4FC3F7;}
</style>
<g>
	<g>
		<path class="st0" d="M58,40.875h-2c-0.276,0-0.5-0.224-0.5-0.5s0.224-0.5,0.5-0.5h2c0.276,0,0.5,0.224,0.5,0.5
			S58.276,40.875,58,40.875z"/>
	</g>
	<g>
		<path class="st0" d="M54,40.875h-7.5c-0.276,0-0.5-0.224-0.5-0.5s0.224-0.5,0.5-0.5H54c0.276,0,0.5,0.224,0.5,0.5
			S54.276,40.875,54,40.875z"/>
	</g>
	<g>
		<path class="st0" d="M8,40.875H6c-0.276,0-0.5-0.224-0.5-0.5s0.224-0.5,0.5-0.5h2c0.276,0,0.5,0.224,0.5,0.5
			S8.276,40.875,8,40.875z"/>
	</g>
	<g>
		<path class="st0" d="M17.5,40.875H10c-0.276,0-0.5-0.224-0.5-0.5s0.224-0.5,0.5-0.5h7.5c0.276,0,0.5,0.224,0.5,0.5
			S17.776,40.875,17.5,40.875z"/>
	</g>
	<g>
		<path class="st1" d="M32.018,31.44c-5.523,0-10,4.477-10,10v5.221L32,50.328l10.018-3.68V41.44
			C42.018,35.917,37.54,31.44,32.018,31.44z"/>
	</g>
	<g>
		<path class="st0" d="M41.546,38.906c-0.027,0-0.056-0.002-0.084-0.007c-0.185-0.031-0.336-0.163-0.393-0.342
			c-0.516-1.621-1.473-3.083-2.767-4.227c-0.195-0.172-0.226-0.466-0.069-0.674l4.904-6.539c0.623-0.831,0.514-1.983-0.254-2.681
			L31.682,14.254c-0.104-0.095-0.164-0.229-0.164-0.37V7.778c0-1.654,1.346-3,3-3s3,1.346,3,3v3.673l9.401,8.546l0,0
			c3.071,2.792,3.509,7.401,1.02,10.72l-5.992,7.989C41.851,38.833,41.702,38.906,41.546,38.906z M39.305,33.895
			c1.029,0.993,1.843,2.177,2.392,3.477l5.441-7.254c2.179-2.905,1.796-6.938-0.891-9.38l-9.565-8.695
			c-0.104-0.095-0.164-0.229-0.164-0.37V7.778c0-1.103-0.897-2-2-2s-2,0.897-2,2v5.885l11.038,10.034
			c1.152,1.047,1.316,2.775,0.383,4.021L39.305,33.895z"/>
	</g>
	<g>
		<path class="st0" d="M22.489,38.907c-0.156,0-0.305-0.073-0.4-0.2l-5.992-7.989c-2.489-3.32-2.052-7.929,1.02-10.72l9.401-8.547
			V7.778c0-1.654,1.346-3,3-3s3,1.346,3,3v6.106c0,0.141-0.06,0.275-0.164,0.37L21.151,24.438c-0.768,0.698-0.877,1.85-0.254,2.68
			l4.904,6.539c0.156,0.208,0.126,0.501-0.069,0.674c-1.295,1.146-2.252,2.608-2.767,4.228c-0.057,0.179-0.208,0.311-0.393,0.342
			C22.545,38.904,22.517,38.907,22.489,38.907z M29.518,5.778c-1.103,0-2,0.897-2,2v3.894c0,0.141-0.06,0.275-0.164,0.37
			l-9.565,8.696c-2.687,2.442-3.069,6.475-0.891,9.38l5.441,7.255c0.549-1.3,1.362-2.484,2.392-3.478l-4.634-6.178
			c-0.934-1.245-0.77-2.974,0.383-4.02l11.038-10.035V7.778C31.518,6.675,30.62,5.778,29.518,5.778z"/>
	</g>
	<g>
		<path class="st0" d="M32.018,31.94c-4.411,0-8-3.589-8-8s3.589-8,8-8s8,3.589,8,8S36.429,31.94,32.018,31.94z M32.018,16.94
			c-3.859,0-7,3.14-7,7s3.141,7,7,7s7-3.14,7-7S35.877,16.94,32.018,16.94z"/>
	</g>
	<g>
		<path class="st1" d="M24.954,21.44h14.128c-1.031-2.911-3.8-5-7.064-5S25.984,18.529,24.954,21.44z"/>
		<path class="st0" d="M39.082,21.94H24.953c-0.162,0-0.314-0.079-0.408-0.211s-0.117-0.303-0.063-0.456
			c1.131-3.19,4.159-5.333,7.536-5.333s6.405,2.143,7.536,5.333c0.054,0.153,0.03,0.323-0.063,0.456S39.244,21.94,39.082,21.94z
			 M25.7,20.94h12.635c-1.149-2.419-3.604-4-6.317-4S26.85,18.521,25.7,20.94z"/>
	</g>
	<g>
		<path class="st0" d="M32.018,28.94c-1.895,0-3.603-1.064-4.459-2.776c-0.123-0.247-0.023-0.547,0.224-0.671
			c0.247-0.122,0.547-0.024,0.671,0.224c0.686,1.372,2.052,2.224,3.564,2.224s2.879-0.852,3.564-2.224
			c0.124-0.248,0.424-0.344,0.671-0.224c0.247,0.124,0.347,0.424,0.224,0.671C35.62,27.876,33.912,28.94,32.018,28.94z"/>
	</g>
	<g>
		<path class="st0" d="M36.473,59.97c-0.793,0-1.554-0.215-1.956-0.33l-18.006-4.145c-1.143-0.326-2.069-1.062-2.634-2.078
			c-0.564-1.017-0.7-2.192-0.38-3.31c0.331-1.159,1.138-2.137,2.213-2.684c1.074-0.547,2.339-0.622,3.473-0.206l17.591,6.462
			c0.928,0.341,1.663,1.025,2.071,1.926c0.408,0.901,0.437,1.906,0.081,2.829C38.457,59.649,37.44,59.97,36.473,59.97z
			 M17.678,47.948c-0.52,0-1.035,0.123-1.516,0.367c-0.84,0.427-1.445,1.162-1.704,2.067c-0.246,0.861-0.142,1.767,0.293,2.55
			c0.435,0.783,1.148,1.35,2.01,1.595l17.993,4.142c0.008,0.002,0.017,0.004,0.025,0.006c2.367,0.677,2.952,0.076,3.213-0.601
			c0.259-0.671,0.238-1.401-0.059-2.056c-0.296-0.655-0.831-1.152-1.506-1.4l-17.591-6.462
			C18.458,48.017,18.066,47.948,17.678,47.948z"/>
	</g>
	<g>
		<path class="st0" d="M36.473,59.97c-0.793,0-1.554-0.215-1.956-0.33l-18.006-4.145c-1.143-0.326-2.069-1.062-2.634-2.078
			c-0.564-1.017-0.7-2.192-0.38-3.31c0.331-1.159,1.138-2.137,2.213-2.684c1.074-0.547,2.339-0.622,3.473-0.206l17.591,6.462
			c0.928,0.341,1.663,1.025,2.071,1.926c0.408,0.901,0.437,1.906,0.081,2.829C38.457,59.649,37.44,59.97,36.473,59.97z
			 M17.678,47.948c-0.52,0-1.035,0.123-1.516,0.367c-0.84,0.427-1.445,1.162-1.704,2.067c-0.246,0.861-0.142,1.767,0.293,2.55
			c0.435,0.783,1.148,1.35,2.01,1.595l17.993,4.142c0.008,0.002,0.017,0.004,0.025,0.006c2.367,0.677,2.952,0.076,3.213-0.601
			c0.259-0.671,0.238-1.401-0.059-2.056c-0.296-0.655-0.831-1.152-1.506-1.4l-17.591-6.462
			C18.458,48.017,18.066,47.948,17.678,47.948z"/>
	</g>
	<g>
		<path class="st0" d="M22.018,47.161c-0.276,0-0.5-0.224-0.5-0.5V41.44c0-5.79,4.71-10.5,10.5-10.5s10.5,4.71,10.5,10.5v5.208
			c0,0.276-0.224,0.5-0.5,0.5s-0.5-0.224-0.5-0.5V41.44c0-5.238-4.262-9.5-9.5-9.5s-9.5,4.262-9.5,9.5v5.221
			C22.518,46.938,22.294,47.161,22.018,47.161z"/>
	</g>
	<g>
		<path class="st1" d="M22.018,48.792l-3.008-1.105c-2.102-0.772-4.417,0.404-5.033,2.558c-0.585,2.046,0.6,4.178,2.646,4.763
			l5.395,1.242V48.792z"/>
		<path class="st0" d="M22.018,56.75c-0.037,0-0.075-0.004-0.112-0.013l-5.395-1.242c-1.143-0.326-2.069-1.062-2.634-2.078
			c-0.564-1.017-0.7-2.192-0.38-3.31c0.331-1.16,1.138-2.138,2.213-2.684c1.074-0.547,2.339-0.622,3.473-0.206l3.008,1.105
			c0.196,0.072,0.327,0.26,0.327,0.469v7.458c0,0.152-0.069,0.296-0.188,0.391C22.239,56.712,22.13,56.75,22.018,56.75z
			 M17.678,47.948c-0.52,0-1.035,0.123-1.515,0.367c-0.841,0.427-1.446,1.162-1.705,2.067c-0.246,0.861-0.142,1.767,0.293,2.55
			c0.435,0.783,1.148,1.35,2.01,1.595l4.757,1.095v-6.48l-2.681-0.985C18.458,48.017,18.066,47.948,17.678,47.948z"/>
	</g>
	<g>
		<path class="st0" d="M40.62,57.063c-0.229,0-0.434-0.156-0.487-0.388c-0.062-0.269,0.106-0.538,0.375-0.6l6.757-1.556
			c0.836-0.239,1.55-0.806,1.984-1.589c0.435-0.783,0.539-1.688,0.293-2.55c-0.259-0.906-0.864-1.64-1.704-2.067
			c-0.841-0.426-1.789-0.483-2.675-0.158l-10.091,3.707c-0.261,0.097-0.546-0.038-0.643-0.297c-0.095-0.259,0.038-0.546,0.297-0.642
			l10.091-3.707c1.134-0.416,2.398-0.341,3.473,0.206c1.075,0.546,1.882,1.524,2.213,2.684c0.32,1.118,0.185,2.293-0.38,3.31
			c-0.564,1.017-1.491,1.752-2.608,2.072l-6.782,1.562C40.694,57.06,40.657,57.063,40.62,57.063z"/>
	</g>
	<g>
		<path class="st1" d="M41.982,48.792l3.008-1.105c2.102-0.772,4.417,0.404,5.033,2.558c0.585,2.046-0.6,4.178-2.646,4.763
			l-5.395,1.242V48.792z"/>
		<path class="st0" d="M41.982,56.75c-0.112,0-0.222-0.038-0.312-0.109c-0.119-0.095-0.188-0.239-0.188-0.391v-7.458
			c0-0.209,0.131-0.397,0.327-0.469l3.008-1.105c1.134-0.416,2.398-0.341,3.473,0.206c1.075,0.546,1.882,1.524,2.213,2.684
			c0.32,1.118,0.185,2.293-0.38,3.31c-0.564,1.017-1.491,1.752-2.608,2.072l-5.42,1.248C42.058,56.745,42.02,56.75,41.982,56.75z
			 M42.482,49.141v6.48l4.782-1.101c0.836-0.239,1.55-0.806,1.984-1.589c0.435-0.783,0.539-1.688,0.293-2.549
			c-0.259-0.906-0.864-1.641-1.705-2.068c-0.838-0.426-1.788-0.483-2.674-0.158L42.482,49.141z"/>
	</g>
	<g>
		<path class="st0" d="M53.5,14.778h-4c-0.276,0-0.5-0.224-0.5-0.5s0.224-0.5,0.5-0.5h4c0.276,0,0.5,0.224,0.5,0.5
			S53.776,14.778,53.5,14.778z"/>
	</g>
	<g>
		<path class="st0" d="M51.5,16.778c-0.276,0-0.5-0.224-0.5-0.5v-4c0-0.276,0.224-0.5,0.5-0.5s0.5,0.224,0.5,0.5v4
			C52,16.554,51.776,16.778,51.5,16.778z"/>
	</g>
	<g>
		<path class="st0" d="M47.5,9.778h-4c-0.276,0-0.5-0.224-0.5-0.5s0.224-0.5,0.5-0.5h4c0.276,0,0.5,0.224,0.5,0.5
			S47.776,9.778,47.5,9.778z"/>
	</g>
	<g>
		<path class="st0" d="M45.5,11.778c-0.276,0-0.5-0.224-0.5-0.5v-4c0-0.276,0.224-0.5,0.5-0.5s0.5,0.224,0.5,0.5v4
			C46,11.554,45.776,11.778,45.5,11.778z"/>
	</g>
	<g>
		<path class="st4" d="M32.902,37.4l0.59,1.117c0.151,0.285,0.43,0.481,0.75,0.524l1.202,0.163c0.841,0.114,1.166,1.158,0.539,1.73
			l-0.685,0.624c-0.315,0.287-0.459,0.715-0.382,1.134l0.173,0.941c0.148,0.808-0.687,1.44-1.425,1.078l-1.204-0.592
			c-0.278-0.137-0.604-0.137-0.882,0l-1.204,0.592c-0.737,0.362-1.573-0.27-1.425-1.078l0.173-0.941
			c0.077-0.419-0.068-0.847-0.382-1.134l-0.685-0.624c-0.627-0.572-0.302-1.616,0.539-1.73l1.202-0.163
			c0.32-0.043,0.599-0.239,0.75-0.524l0.59-1.117C31.509,36.689,32.527,36.689,32.902,37.4z"/>
		<path class="st0" d="M34.105,45.314c-0.226,0-0.451-0.051-0.663-0.155l-1.204-0.592c-0.139-0.068-0.303-0.068-0.441,0
			l-1.204,0.592c-0.514,0.251-1.112,0.193-1.566-0.15c-0.454-0.344-0.673-0.906-0.57-1.467l0.172-0.94
			c0.047-0.251-0.038-0.503-0.227-0.674l-0.686-0.624c-0.436-0.397-0.597-0.993-0.421-1.555c0.175-0.562,0.646-0.96,1.229-1.04
			l1.202-0.163c0.159-0.021,0.3-0.12,0.376-0.263l0.589-1.116c0.261-0.493,0.769-0.799,1.325-0.799c0.001,0,0.001,0,0.001,0
			c0.558,0,1.065,0.306,1.327,0.799c0,0,0,0,0,0.001l0.589,1.117c0.075,0.142,0.216,0.24,0.375,0.261l1.202,0.163
			c0.583,0.08,1.055,0.478,1.229,1.04c0.176,0.562,0.015,1.158-0.421,1.555l-0.686,0.624c-0.188,0.171-0.273,0.423-0.227,0.673
			l0.172,0.942c0.103,0.561-0.116,1.123-0.57,1.467C34.742,45.211,34.425,45.314,34.105,45.314z M32.018,43.518
			c0.228,0,0.455,0.051,0.662,0.153l1.204,0.592c0.173,0.085,0.368,0.066,0.521-0.05c0.153-0.117,0.225-0.299,0.189-0.489
			l-0.172-0.941c-0.108-0.591,0.092-1.188,0.537-1.593l0.686-0.624c0.218-0.199,0.163-0.447,0.141-0.518s-0.117-0.307-0.41-0.347
			l-1.202-0.163c-0.478-0.065-0.897-0.358-1.124-0.785l-0.59-1.118c-0.127-0.241-0.352-0.267-0.442-0.267l0,0
			c-0.091,0-0.314,0.026-0.441,0.266l-0.59,1.117c-0.228,0.428-0.647,0.721-1.125,0.786L28.659,39.7
			c-0.293,0.04-0.388,0.275-0.41,0.347s-0.077,0.319,0.141,0.518l0.686,0.624c0.445,0.406,0.646,1.002,0.537,1.594l-0.172,0.94
			c-0.035,0.19,0.036,0.373,0.189,0.49c0.153,0.116,0.35,0.134,0.521,0.05l1.204-0.592C31.562,43.568,31.79,43.518,32.018,43.518z"
			/>
	</g>
</g>
</svg>
