<?xml version="1.0" encoding="utf-8"?>
<!-- Generator: Adobe Illustrator 22.0.0, SVG Export Plug-In . SVG Version: 6.00 Build 0)  -->
<svg version="1.1" id="Icon_Set" xmlns="http://www.w3.org/2000/svg" xmlns:xlink="http://www.w3.org/1999/xlink" x="0px" y="0px"
	 viewBox="0 0 64 64" style="enable-background:new 0 0 64 64;" xml:space="preserve">
<style type="text/css">
	.st0{fill:#263238;}
	.st1{fill:#FFD740;}
	.st2{fill:#40C4FF;}
	.st3{fill:#FF5252;}
	.st4{fill:#FFFFFF;}
	.st5{fill:#4DB6AC;}
	.st6{fill:#4FC3F7;}
</style>
<g>
	<g>
		<rect x="12" y="39" class="st1" width="18" height="16"/>
		<path class="st0" d="M30,55.5H12c-0.276,0-0.5-0.224-0.5-0.5V39c0-0.276,0.224-0.5,0.5-0.5h18c0.276,0,0.5,0.224,0.5,0.5v16
			C30.5,55.276,30.276,55.5,30,55.5z M12.5,54.5h17v-15h-17V54.5z"/>
	</g>
	<g>
		<path class="st0" d="M26,26H16c-0.276,0-0.5-0.224-0.5-0.5v-4c0-0.276,0.224-0.5,0.5-0.5h10c0.276,0,0.5,0.224,0.5,0.5v4
			C26.5,25.776,26.276,26,26,26z M16.5,25h9v-3h-9V25z"/>
	</g>
	<g>
		<path class="st0" d="M23.5,22h-5c-0.276,0-0.5-0.224-0.5-0.5v-6c0-0.276,0.224-0.5,0.5-0.5h5c0.276,0,0.5,0.224,0.5,0.5v6
			C24,21.776,23.776,22,23.5,22z M19,21h4v-5h-4V21z"/>
	</g>
	<g>
		<path class="st0" d="M27.5,60.5h-13c-1.654,0-3-1.346-3-3V28c0-1.654,1.346-3,3-3h13c1.654,0,3,1.346,3,3v29.5
			C30.5,59.154,29.154,60.5,27.5,60.5z M14.5,26c-1.103,0-2,0.897-2,2v29.5c0,1.103,0.897,2,2,2h13c1.103,0,2-0.897,2-2V28
			c0-1.103-0.897-2-2-2H14.5z"/>
	</g>
	<g>
		<path class="st0" d="M52,50.5H39.5c-0.256,0-0.472-0.194-0.498-0.449l-3-29.5c-0.014-0.141,0.032-0.281,0.126-0.386
			C36.224,20.06,36.358,20,36.5,20H55c0.142,0,0.276,0.06,0.371,0.165c0.095,0.104,0.141,0.245,0.126,0.386l-3,29.5
			C52.472,50.306,52.256,50.5,52,50.5z M39.952,49.5h11.597L54.447,21H37.053L39.952,49.5z"/>
	</g>
	<g>
		<path class="st0" d="M51,60.5H40.5c-0.827,0-1.5-0.673-1.5-1.5v-9c0-0.276,0.224-0.5,0.5-0.5H52c0.276,0,0.5,0.224,0.5,0.5v9
			C52.5,59.827,51.827,60.5,51,60.5z M40,50.5V59c0,0.275,0.224,0.5,0.5,0.5H51c0.276,0,0.5-0.225,0.5-0.5v-8.5H40z"/>
	</g>
	<g>
		<path class="st0" d="M52,57.5H39.5c-0.276,0-0.5-0.224-0.5-0.5s0.224-0.5,0.5-0.5H52c0.276,0,0.5,0.224,0.5,0.5
			S52.276,57.5,52,57.5z"/>
	</g>
	<g>
		<path class="st0" d="M29,16H18c-0.827,0-1.5-0.673-1.5-1.5v-2c0-0.827,0.673-1.5,1.5-1.5h11c0.827,0,1.5,0.673,1.5,1.5v2
			C30.5,15.327,29.827,16,29,16z M18,12c-0.276,0-0.5,0.224-0.5,0.5v2c0,0.276,0.224,0.5,0.5,0.5h11c0.276,0,0.5-0.224,0.5-0.5v-2
			c0-0.276-0.224-0.5-0.5-0.5H18z"/>
	</g>
	<g>
		<path class="st0" d="M45.5,12h-4c-0.276,0-0.5-0.224-0.5-0.5s0.224-0.5,0.5-0.5h4c0.276,0,0.5,0.224,0.5,0.5S45.776,12,45.5,12z"
			/>
	</g>
	<g>
		<path class="st0" d="M43.5,14c-0.276,0-0.5-0.224-0.5-0.5v-4C43,9.224,43.224,9,43.5,9S44,9.224,44,9.5v4
			C44,13.776,43.776,14,43.5,14z"/>
	</g>
	<g>
		<path class="st0" d="M50,6.5h-4c-0.276,0-0.5-0.224-0.5-0.5s0.224-0.5,0.5-0.5h4c0.276,0,0.5,0.224,0.5,0.5S50.276,6.5,50,6.5z"/>
	</g>
	<g>
		<path class="st0" d="M48,8.5c-0.276,0-0.5-0.224-0.5-0.5V4c0-0.276,0.224-0.5,0.5-0.5s0.5,0.224,0.5,0.5v4
			C48.5,8.276,48.276,8.5,48,8.5z"/>
	</g>
	<g>
		<path class="st0" d="M8,36c-0.276,0-0.5-0.224-0.5-0.5v-10C7.5,25.224,7.724,25,8,25s0.5,0.224,0.5,0.5v10
			C8.5,35.776,8.276,36,8,36z"/>
	</g>
	<g>
		<path class="st0" d="M8,39c-0.276,0-0.5-0.224-0.5-0.5v-1C7.5,37.224,7.724,37,8,37s0.5,0.224,0.5,0.5v1C8.5,38.776,8.276,39,8,39
			z"/>
	</g>
	<g>
		<path class="st0" d="M56,60.5c-0.276,0-0.5-0.224-0.5-0.5V50c0-0.276,0.224-0.5,0.5-0.5s0.5,0.224,0.5,0.5v10
			C56.5,60.276,56.276,60.5,56,60.5z"/>
	</g>
	<g>
		<path class="st0" d="M56,48.5c-0.276,0-0.5-0.224-0.5-0.5v-1c0-0.276,0.224-0.5,0.5-0.5s0.5,0.224,0.5,0.5v1
			C56.5,48.276,56.276,48.5,56,48.5z"/>
	</g>
	<g>
		<path class="st2" d="M45.75,41L45.75,41c-1.381,0-2.5-1.119-2.5-2.5v-7c0-1.381,1.119-2.5,2.5-2.5h0c1.381,0,2.5,1.119,2.5,2.5v7
			C48.25,39.881,47.131,41,45.75,41z"/>
		<path class="st0" d="M45.75,41.5c-1.654,0-3-1.346-3-3v-7c0-1.654,1.346-3,3-3s3,1.346,3,3v7C48.75,40.154,47.404,41.5,45.75,41.5
			z M45.75,29.5c-1.103,0-2,0.897-2,2v7c0,1.103,0.897,2,2,2s2-0.897,2-2v-7C47.75,30.397,46.853,29.5,45.75,29.5z"/>
	</g>
	<g>
		<path class="st0" d="M27,34c-0.276,0-0.5-0.224-0.5-0.5V29H22c-0.276,0-0.5-0.224-0.5-0.5S21.724,28,22,28h5
			c0.276,0,0.5,0.224,0.5,0.5v5C27.5,33.776,27.276,34,27,34z"/>
	</g>
</g>
</svg>
