<?xml version="1.0" encoding="utf-8"?>
<!-- Generator: Adobe Illustrator 22.0.0, SVG Export Plug-In . SVG Version: 6.00 Build 0)  -->
<svg version="1.1" id="Icon_Set" xmlns="http://www.w3.org/2000/svg" xmlns:xlink="http://www.w3.org/1999/xlink" x="0px" y="0px"
	 viewBox="0 0 64 64" style="enable-background:new 0 0 64 64;" xml:space="preserve">
<style type="text/css">
	.st0{fill:#263238;}
	.st1{fill:#FFD740;}
	.st2{fill:#40C4FF;}
	.st3{fill:#FF5252;}
	.st4{fill:#FFFFFF;}
	.st5{fill:#4DB6AC;}
	.st6{fill:#4FC3F7;}
</style>
<g>
	<g>
		<path class="st0" d="M31.206,42.075c-0.065,0-0.13-0.013-0.191-0.038l-2.771-1.148c-7.896-3.271-11.659-12.355-8.389-20.251
			l1.148-2.771c0.106-0.254,0.398-0.375,0.653-0.271l2.771,1.148c3.825,1.584,6.804,4.563,8.389,8.388
			c1.584,3.825,1.584,8.038,0,11.863l-1.148,2.772c-0.051,0.123-0.148,0.22-0.271,0.271C31.336,42.062,31.271,42.075,31.206,42.075z
			 M21.735,18.71l-0.957,2.31c-3.06,7.387,0.461,15.885,7.848,18.945l2.31,0.957l0.957-2.31c1.482-3.578,1.481-7.519,0-11.098
			c-1.482-3.578-4.27-6.365-7.848-7.847L21.735,18.71z"/>
	</g>
	<g>
		<path class="st5" d="M28.5,44.074c-4.698,0-8.955-1.916-12.035-5.007c-1.621,0.689-3.142,1.685-4.464,3.007
			c4.741,4.741,12.007,5.4,17.464,2L28.5,44.074z"/>
	</g>
	<g>
		<path class="st0" d="M21.977,46.729c-3.769,0-7.495-1.466-10.33-4.301c-0.195-0.195-0.195-0.512,0-0.707
			c1.326-1.326,2.881-2.374,4.622-3.114c0.253-0.108,0.547,0.01,0.655,0.264c0.108,0.254-0.01,0.548-0.265,0.656
			c-1.464,0.623-2.787,1.479-3.938,2.547c4.51,4.193,11.214,4.856,16.479,1.576c0.234-0.145,0.544-0.075,0.689,0.16
			c0.146,0.234,0.074,0.542-0.16,0.688C27.323,45.997,24.64,46.729,21.977,46.729z"/>
	</g>
	<g>
		<path class="st5" d="M35.5,44.074c4.698,0,8.955-1.916,12.035-5.007c1.621,0.689,3.142,1.685,4.464,3.007
			c-4.741,4.741-12.007,5.4-17.464,2L35.5,44.074z"/>
	</g>
	<g>
		<path class="st0" d="M42.023,46.729c-2.663,0-5.347-0.731-7.752-2.23c-0.234-0.146-0.306-0.454-0.16-0.688
			c0.146-0.235,0.455-0.305,0.689-0.16c5.268,3.281,11.971,2.618,16.479-1.576c-1.151-1.069-2.475-1.924-3.938-2.547
			c-0.255-0.108-0.373-0.401-0.265-0.656c0.108-0.254,0.403-0.373,0.655-0.264c1.741,0.74,3.296,1.788,4.622,3.114
			c0.195,0.195,0.195,0.512,0,0.707C49.519,45.263,45.792,46.729,42.023,46.729z"/>
	</g>
	<g>
		<path class="st0" d="M33.49,41.786c-0.196,0-0.382-0.116-0.462-0.309c-0.105-0.255,0.016-0.548,0.271-0.653l2.075-0.86
			c7.387-3.06,10.907-11.558,7.848-18.945l-0.957-2.31l-2.31,0.957c-2.572,1.065-4.772,2.845-6.363,5.146
			c-0.158,0.229-0.47,0.283-0.695,0.127c-0.228-0.157-0.284-0.468-0.127-0.695c1.7-2.46,4.053-4.362,6.803-5.501l2.771-1.148
			c0.123-0.051,0.26-0.051,0.383,0c0.122,0.051,0.22,0.148,0.271,0.271l1.148,2.772c1.584,3.825,1.584,8.038,0,11.863
			c-1.585,3.825-4.563,6.804-8.389,8.388l-2.075,0.86C33.619,41.774,33.554,41.786,33.49,41.786z"/>
	</g>
	<g>
		<path class="st3" d="M32.005,22.761c1.526-2.005,3.462-3.637,5.687-4.79c-0.399-0.52-0.822-1.028-1.298-1.504L32,12.075
			l-4.393,4.393c-0.476,0.476-0.899,0.984-1.298,1.505v0.002C28.563,19.137,30.492,20.771,32.005,22.761z"/>
	</g>
	<g>
		<path class="st0" d="M26.309,18.472c-0.106,0-0.213-0.034-0.304-0.103c-0.22-0.168-0.261-0.481-0.094-0.701
			c0.471-0.615,0.897-1.109,1.342-1.554l4.394-4.394c0.195-0.195,0.512-0.195,0.707,0l4.394,4.393
			c0.442,0.442,0.868,0.936,1.341,1.553c0.168,0.219,0.127,0.533-0.093,0.701c-0.216,0.166-0.533,0.126-0.7-0.093
			c-0.446-0.582-0.845-1.044-1.255-1.455L32,12.782l-4.04,4.04c-0.412,0.413-0.811,0.875-1.254,1.455
			C26.607,18.405,26.459,18.472,26.309,18.472z"/>
	</g>
	<g>
		<path class="st0" d="M27.098,42.503c-0.016,0-0.031,0-0.047-0.002C19.04,41.757,13,35.125,13,27.075v-3c0-0.276,0.224-0.5,0.5-0.5
			h3c0.223,0,0.442,0.015,0.662,0.029l0.232,0.015c0.276,0.016,0.486,0.252,0.471,0.528c-0.016,0.275-0.216,0.494-0.527,0.47
			l-0.243-0.016c-0.197-0.013-0.395-0.027-0.595-0.027H14v2.5c0,7.531,5.65,13.735,13.143,14.431
			c0.275,0.026,0.478,0.27,0.452,0.544C27.57,42.309,27.353,42.503,27.098,42.503z"/>
	</g>
	<g>
		<path class="st0" d="M36.902,42.503c-0.255,0-0.473-0.194-0.497-0.454c-0.025-0.275,0.177-0.519,0.452-0.544
			C44.35,40.81,50,34.606,50,27.075v-2.5h-2.5c-0.2,0-0.397,0.014-0.595,0.027l-0.243,0.016c-0.298,0.024-0.511-0.195-0.527-0.47
			c-0.016-0.276,0.194-0.512,0.471-0.528l0.232-0.015c0.22-0.015,0.439-0.029,0.662-0.029h3c0.276,0,0.5,0.224,0.5,0.5v3
			c0,8.051-6.04,14.683-14.051,15.427C36.934,42.503,36.918,42.503,36.902,42.503z"/>
	</g>
	<g>
		<path class="st6" d="M50.941,34.146c-0.545,1.186-1.219,2.314-2.027,3.352c1.668,0.787,3.191,1.854,4.5,3.163
			C53.789,41.035,54,41.544,54,42.074c0,0.53-0.21,1.039-0.586,1.414c-3.147,3.147-7.28,4.721-11.414,4.721
			c-3.54,0-7.08-1.154-10-3.462c-6.329,5.003-15.572,4.583-21.414-1.259C10.21,43.113,10,42.605,10,42.074
			c0-0.531,0.211-1.04,0.586-1.415c1.309-1.309,2.833-2.376,4.5-3.163c-0.808-1.038-1.482-2.166-2.027-3.352H1.5v24h61v-24H50.941z"
			/>
	</g>
	<g>
		<path class="st0" d="M63,34.646h-2c-0.276,0-0.5-0.224-0.5-0.5s0.224-0.5,0.5-0.5h2c0.276,0,0.5,0.224,0.5,0.5
			S63.276,34.646,63,34.646z"/>
	</g>
	<g>
		<path class="st0" d="M59,34.646h-7.5c-0.276,0-0.5-0.224-0.5-0.5s0.224-0.5,0.5-0.5H59c0.276,0,0.5,0.224,0.5,0.5
			S59.276,34.646,59,34.646z"/>
	</g>
	<g>
		<path class="st0" d="M3,34.646H1c-0.276,0-0.5-0.224-0.5-0.5s0.224-0.5,0.5-0.5h2c0.276,0,0.5,0.224,0.5,0.5
			S3.276,34.646,3,34.646z"/>
	</g>
	<g>
		<path class="st0" d="M12.5,34.646H5c-0.276,0-0.5-0.224-0.5-0.5s0.224-0.5,0.5-0.5h7.5c0.276,0,0.5,0.224,0.5,0.5
			S12.776,34.646,12.5,34.646z"/>
	</g>
	<g>
		<path class="st6" d="M12.5,9.146c0-1.105-0.895-2-2-2s-2,0.895-2,2c-1.105,0-2,0.895-2,2s0.895,2,2,2h4c1.105,0,2-0.895,2-2
			S13.605,9.146,12.5,9.146z"/>
	</g>
	<g>
		<path class="st0" d="M57.5,13.646h-4c-0.276,0-0.5-0.224-0.5-0.5s0.224-0.5,0.5-0.5h4c0.276,0,0.5,0.224,0.5,0.5
			S57.776,13.646,57.5,13.646z"/>
	</g>
	<g>
		<path class="st0" d="M55.5,15.646c-0.276,0-0.5-0.224-0.5-0.5v-4c0-0.276,0.224-0.5,0.5-0.5s0.5,0.224,0.5,0.5v4
			C56,15.422,55.776,15.646,55.5,15.646z"/>
	</g>
	<g>
		<path class="st0" d="M51.5,8.646h-4c-0.276,0-0.5-0.224-0.5-0.5s0.224-0.5,0.5-0.5h4c0.276,0,0.5,0.224,0.5,0.5
			S51.776,8.646,51.5,8.646z"/>
	</g>
	<g>
		<path class="st0" d="M49.5,10.646c-0.276,0-0.5-0.224-0.5-0.5v-4c0-0.276,0.224-0.5,0.5-0.5s0.5,0.224,0.5,0.5v4
			C50,10.422,49.776,10.646,49.5,10.646z"/>
	</g>
</g>
</svg>
