<?xml version="1.0" encoding="utf-8"?>
<!-- Generator: Adobe Illustrator 22.0.0, SVG Export Plug-In . SVG Version: 6.00 Build 0)  -->
<svg version="1.1" id="Icon_Set" xmlns="http://www.w3.org/2000/svg" xmlns:xlink="http://www.w3.org/1999/xlink" x="0px" y="0px"
	 viewBox="0 0 64 64" style="enable-background:new 0 0 64 64;" xml:space="preserve">
<style type="text/css">
	.st0{fill:#263238;}
	.st1{fill:#FFD740;}
	.st2{fill:#40C4FF;}
	.st3{fill:#FF5252;}
	.st4{fill:#FFFFFF;}
	.st5{fill:#4DB6AC;}
	.st6{fill:#4FC3F7;}
</style>
<g>
	<g>
		<path class="st1" d="M52,50c3.314,0,6,2.686,6,6s-2.686,6-6,6H12c-3.314,0-6-2.686-6-6s2.686-6,6-6H52z"/>
		<path class="st0" d="M52,62.5H12c-3.584,0-6.5-2.916-6.5-6.5s2.916-6.5,6.5-6.5h40c3.584,0,6.5,2.916,6.5,6.5S55.584,62.5,52,62.5
			z M12,50.5c-3.033,0-5.5,2.467-5.5,5.5s2.467,5.5,5.5,5.5h40c3.032,0,5.5-2.467,5.5-5.5s-2.468-5.5-5.5-5.5H12z"/>
	</g>
	<g>
		<path class="st0" d="M3.5,24.5H2c-0.276,0-0.5-0.224-0.5-0.5s0.224-0.5,0.5-0.5h1.5C3.776,23.5,4,23.724,4,24S3.776,24.5,3.5,24.5
			z"/>
	</g>
	<g>
		<path class="st0" d="M14.25,24.5h-9c-0.276,0-0.5-0.224-0.5-0.5s0.224-0.5,0.5-0.5h9c0.276,0,0.5,0.224,0.5,0.5
			S14.526,24.5,14.25,24.5z"/>
	</g>
	<g>
		<path class="st0" d="M58.75,24.5h-9c-0.276,0-0.5-0.224-0.5-0.5s0.224-0.5,0.5-0.5h9c0.276,0,0.5,0.224,0.5,0.5
			S59.026,24.5,58.75,24.5z"/>
	</g>
	<g>
		<path class="st0" d="M13,13.768c-0.128,0-0.256-0.049-0.354-0.146l-3.536-3.536c-0.195-0.195-0.195-0.512,0-0.707
			s0.512-0.195,0.707,0l3.536,3.536c0.195,0.195,0.195,0.512,0,0.707C13.256,13.719,13.128,13.768,13,13.768z"/>
	</g>
	<g>
		<path class="st0" d="M51,13.768c-0.128,0-0.256-0.049-0.354-0.146c-0.195-0.195-0.195-0.512,0-0.707l3.536-3.536
			c0.195-0.195,0.512-0.195,0.707,0s0.195,0.512,0,0.707l-3.536,3.536C51.256,13.719,51.128,13.768,51,13.768z"/>
	</g>
	<g>
		<path class="st0" d="M54.536,38.768c-0.128,0-0.256-0.049-0.354-0.146l-3.536-3.536c-0.195-0.195-0.195-0.512,0-0.707
			s0.512-0.195,0.707,0l3.536,3.536c0.195,0.195,0.195,0.512,0,0.707C54.792,38.719,54.664,38.768,54.536,38.768z"/>
	</g>
	<g>
		<path class="st0" d="M9.464,38.768c-0.128,0-0.256-0.049-0.354-0.146c-0.195-0.195-0.195-0.512,0-0.707l3.536-3.536
			c0.195-0.195,0.512-0.195,0.707,0s0.195,0.512,0,0.707l-3.536,3.536C9.72,38.719,9.592,38.768,9.464,38.768z"/>
	</g>
	<g>
		<path class="st0" d="M62,24.5h-1.5c-0.276,0-0.5-0.224-0.5-0.5s0.224-0.5,0.5-0.5H62c0.276,0,0.5,0.224,0.5,0.5
			S62.276,24.5,62,24.5z"/>
	</g>
	<g>
		<path class="st0" d="M32,26c-4.659,0-8.733-3.063-10.053-7.5c-1.63-0.028-2.947-1.363-2.947-3s1.317-2.971,2.947-3
			C23.266,8.063,27.341,5,32,5s8.733,3.063,10.053,7.5c1.63,0.028,2.947,1.363,2.947,3s-1.317,2.971-2.947,3
			C40.733,22.937,36.659,26,32,26z M22.259,17.477c0.234,0,0.488,0.145,0.544,0.368C23.875,22.058,27.657,25,32,25
			s8.124-2.942,9.196-7.155c0.062-0.245,0.287-0.403,0.549-0.373C41.876,17.49,41.937,17.5,42,17.5c1.103,0,2-0.897,2-2
			s-0.897-2-2-2c-0.063,0-0.124,0.01-0.185,0.019c-0.259,0.037-0.557-0.117-0.619-0.363C40.125,8.942,36.343,6,32,6
			s-8.125,2.942-9.196,7.155c-0.062,0.245-0.301,0.398-0.549,0.373C22.124,13.51,22.063,13.5,22,13.5c-1.103,0-2,0.897-2,2
			s0.897,2,2,2c0.063,0,0.124-0.01,0.185-0.019C22.209,17.478,22.234,17.477,22.259,17.477z"/>
	</g>
	<g>
		<path class="st0" d="M42.001,58.25H17c-3.033,0-5.5-2.467-5.5-5.5v-2.5c0-0.276,0.224-0.5,0.5-0.5s0.5,0.224,0.5,0.5v2.5
			c0,2.481,2.019,4.5,4.5,4.5h25.001c0.276,0,0.5,0.224,0.5,0.5S42.277,58.25,42.001,58.25z"/>
	</g>
	<g>
		<path class="st0" d="M32,21c-1.469,0-2.851-0.572-3.889-1.611c-0.195-0.195-0.195-0.512,0-0.707s0.512-0.195,0.707,0
			C29.668,19.532,30.798,20,32,20s2.332-0.468,3.182-1.318c0.195-0.195,0.512-0.195,0.707,0s0.195,0.512,0,0.707
			C34.851,20.428,33.469,21,32,21z"/>
	</g>
	<g>
		<path class="st0" d="M35.438,6.613c-0.059,0-0.116-0.01-0.173-0.031c-2.101-0.772-4.428-0.771-6.531,0
			c-0.138,0.051-0.294,0.038-0.422-0.036c-0.128-0.074-0.217-0.201-0.243-0.346C28.029,5.971,28,5.739,28,5.5c0-2.206,1.794-4,4-4
			s4,1.794,4,4c0,0.24-0.029,0.472-0.069,0.7c-0.025,0.146-0.114,0.272-0.243,0.347C35.611,6.59,35.525,6.613,35.438,6.613z M32,5
			c1.02,0,2.025,0.147,2.999,0.439C34.967,3.813,33.634,2.5,32,2.5c-1.634,0-2.967,1.313-3,2.939C29.975,5.147,30.981,5,32,5z"/>
	</g>
	<g>
		<path class="st1" d="M43.71,29.303l-4.29-1.56L23,38.5v5.75L23,48h18.001v-2.75L47,47.749l0.001-13.747
			C47.001,31.9,45.686,30.022,43.71,29.303z"/>
	</g>
	<g>
		<path class="st0" d="M47,48.25L47,48.25c-0.276,0-0.5-0.224-0.5-0.5l0.001-6.5c0-0.276,0.224-0.5,0.5-0.5l0,0
			c0.276,0,0.5,0.224,0.5,0.5l-0.001,6.5C47.5,48.026,47.276,48.25,47,48.25z"/>
	</g>
	<g>
		<path class="st0" d="M41.001,48.5c-0.276,0-0.5-0.224-0.5-0.5v-3.75c0-0.276,0.224-0.5,0.5-0.5s0.5,0.224,0.5,0.5V48
			C41.501,48.276,41.277,48.5,41.001,48.5z"/>
	</g>
	<g>
		<path class="st0" d="M49.5,54.5H32.001c-0.276,0-0.5-0.224-0.5-0.5s0.224-0.5,0.5-0.5H49.5c1.103,0,2-0.897,2-2v-1.25
			c0-0.276,0.224-0.5,0.5-0.5s0.5,0.224,0.5,0.5v1.25C52.5,53.154,51.154,54.5,49.5,54.5z"/>
	</g>
	<g>
		<path class="st0" d="M10.773,50.596c-1.371,0-2.675-0.811-3.235-2.153c-0.743-1.782,0.103-3.835,1.884-4.577l7.077-2.949v-6.914
			c0-2.304,1.455-4.381,3.621-5.169L27.5,26.15v-1.488c0-0.276,0.224-0.5,0.5-0.5s0.5,0.224,0.5,0.5V26.5
			c0,0.21-0.131,0.398-0.329,0.47l-7.708,2.803c-1.772,0.645-2.962,2.344-2.962,4.229v7.248c0,0.202-0.122,0.384-0.308,0.461
			l-7.385,3.077c-1.272,0.53-1.876,1.997-1.346,3.27c0.53,1.272,1.996,1.875,3.269,1.346l10.77-4.487V34.25
			c0-0.276,0.224-0.5,0.5-0.5s0.5,0.224,0.5,0.5v11c0,0.202-0.122,0.384-0.308,0.461l-11.077,4.615
			C11.677,50.51,11.222,50.596,10.773,50.596z"/>
	</g>
	<g>
		<path class="st0" d="M53.232,50.598c-0.456,0-0.913-0.091-1.347-0.271L40.81,45.711c-0.187-0.078-0.308-0.26-0.308-0.461v-11
			c0-0.276,0.224-0.5,0.5-0.5s0.5,0.224,0.5,0.5v10.667l10.769,4.487c0.615,0.256,1.296,0.258,1.913,0.004
			c0.618-0.254,1.1-0.733,1.355-1.35c0.258-0.617,0.259-1.296,0.005-1.914s-0.733-1.099-1.351-1.356l-7.384-3.077
			c-0.187-0.078-0.308-0.26-0.308-0.461v-7.248c0-1.885-1.19-3.585-2.963-4.229l-7.708-2.803c-0.197-0.072-0.329-0.259-0.329-0.47
			v-1.838c0-0.276,0.224-0.5,0.5-0.5s0.5,0.224,0.5,0.5v1.488l7.379,2.684c2.166,0.788,3.621,2.865,3.621,5.169v6.914l7.076,2.949
			c0.863,0.359,1.535,1.034,1.891,1.898c0.355,0.864,0.354,1.816-0.006,2.679s-1.033,1.534-1.898,1.89
			C54.135,50.51,53.684,50.598,53.232,50.598z"/>
	</g>
	<g>
		<path class="st0" d="M23,39c-0.163,0-0.323-0.08-0.419-0.226c-0.151-0.231-0.086-0.541,0.145-0.692l16.419-10.757
			c0.229-0.15,0.54-0.088,0.692,0.145c0.151,0.231,0.087,0.541-0.144,0.692l-16.42,10.757C23.189,38.974,23.094,39,23,39z"/>
	</g>
	<g>
		<path class="st0" d="M23,48.5c-0.276,0-0.5-0.224-0.5-0.5v-2.75c0-0.276,0.224-0.5,0.5-0.5s0.5,0.224,0.5,0.5V48
			C23.5,48.276,23.276,48.5,23,48.5z"/>
	</g>
</g>
</svg>
