<?xml version="1.0" encoding="utf-8"?>
<!-- Generator: Adobe Illustrator 22.0.0, SVG Export Plug-In . SVG Version: 6.00 Build 0)  -->
<svg version="1.1" id="Icon_Set" xmlns="http://www.w3.org/2000/svg" xmlns:xlink="http://www.w3.org/1999/xlink" x="0px" y="0px"
	 viewBox="0 0 64 64" style="enable-background:new 0 0 64 64;" xml:space="preserve">
<style type="text/css">
	.st0{fill:#263238;}
	.st1{fill:#FFD740;}
	.st2{fill:#40C4FF;}
	.st3{fill:#FF5252;}
	.st4{fill:#FFFFFF;}
	.st5{fill:#4DB6AC;}
	.st6{fill:#4FC3F7;}
</style>
<g>
	<g>
		<path class="st0" d="M38,17.5c-4.687,0-8.5-3.813-8.5-8.5s3.813-8.5,8.5-8.5s8.5,3.813,8.5,8.5S42.687,17.5,38,17.5z M38,1.5
			c-4.136,0-7.5,3.364-7.5,7.5s3.364,7.5,7.5,7.5s7.5-3.364,7.5-7.5S42.136,1.5,38,1.5z"/>
	</g>
	<g>
		<path class="st1" d="M43.547,4.374l0.596-0.496C42.676,2.12,40.469,1,38,1c-4.418,0-8,3.582-8,8h0.755
			C35.429,9,39.954,7.364,43.547,4.374z"/>
		<path class="st0" d="M30.755,9.5H30c-0.276,0-0.5-0.224-0.5-0.5c0-4.687,3.813-8.5,8.5-8.5c2.526,0,4.905,1.115,6.526,3.058
			c0.085,0.102,0.126,0.233,0.114,0.366c-0.012,0.132-0.076,0.254-0.178,0.339l-0.596,0.496c0,0,0,0-0.001,0
			C40.192,7.816,35.535,9.5,30.755,9.5z M30.517,8.5h0.238c4.548,0,8.977-1.602,12.473-4.51l0.198-0.165
			C42.012,2.342,40.062,1.5,38,1.5C34.032,1.5,30.774,4.597,30.517,8.5z M43.547,4.375h0.01H43.547z"/>
	</g>
	<g>
		<path class="st0" d="M45.002,40.504H31c-0.276,0-0.5-0.224-0.5-0.5V26.502h-15c-1.654,0-3-1.346-3-3s1.346-3,3-3h12.607
			l6.392-2.841v-1.249c0-0.167,0.083-0.322,0.221-0.415c0.139-0.092,0.312-0.111,0.467-0.049c1.805,0.73,3.824,0.73,5.625,0
			c0.153-0.063,0.328-0.045,0.467,0.049c0.138,0.093,0.221,0.248,0.221,0.415v1.248l6.393,2.841H60.5c1.654,0,3,1.346,3,3
			s-1.346,3-3,3H45.502v13.502C45.502,40.281,45.278,40.504,45.002,40.504z M31.5,39.504h13.002V26.002c0-0.276,0.224-0.5,0.5-0.5
			H60.5c1.103,0,2-0.897,2-2s-0.897-2-2-2H47.785c-0.07,0-0.139-0.015-0.203-0.043l-6.786-3.016
			c-0.181-0.081-0.297-0.259-0.297-0.457v-0.864c-1.621,0.501-3.377,0.502-5-0.001v0.865c0,0.198-0.116,0.376-0.297,0.457
			l-6.785,3.016c-0.063,0.028-0.133,0.043-0.203,0.043H15.5c-1.103,0-2,0.897-2,2s0.897,2,2,2H31c0.276,0,0.5,0.224,0.5,0.5V39.504z
			"/>
	</g>
	<g>
		<path class="st0" d="M54.406,63.5c-1.893,0-3.468-1.48-3.587-3.369L50.03,47.504H35.926l-2.3,5.307
			c-0.658,1.513-1.715,2.815-3.058,3.767l-8.487,6.012c-1.562,1.107-3.684,0.845-4.93-0.607c-0.659-0.766-0.97-1.742-0.875-2.748
			c0.095-1.007,0.582-1.908,1.373-2.539l8.519-6.795l4.374-10.095c0.079-0.183,0.26-0.301,0.459-0.301H51.5
			c3.584,0,6.5,2.916,6.5,6.5v13.902C58,61.888,56.388,63.5,54.406,63.5z M35.598,46.504H50.5c0.264,0,0.482,0.205,0.499,0.469
			l0.818,13.095c0.086,1.363,1.223,2.432,2.589,2.432c1.431,0,2.594-1.164,2.594-2.593V46.004c0-3.033-2.468-5.5-5.5-5.5H31.329
			l-4.293,9.908c-0.033,0.075-0.083,0.141-0.147,0.192l-8.616,6.873c-0.576,0.459-0.932,1.117-1,1.85
			c-0.069,0.733,0.157,1.445,0.637,2.003c0.91,1.058,2.453,1.25,3.594,0.442l8.487-6.012c1.193-0.845,2.134-2.003,2.718-3.348
			l2.431-5.608C35.218,46.623,35.398,46.504,35.598,46.504z"/>
	</g>
	<g>
		<path class="st0" d="M14.5,30.5H13c-0.276,0-0.5-0.224-0.5-0.5s0.224-0.5,0.5-0.5h1.5c0.276,0,0.5,0.224,0.5,0.5
			S14.776,30.5,14.5,30.5z"/>
	</g>
	<g>
		<path class="st0" d="M25.25,30.5h-9c-0.276,0-0.5-0.224-0.5-0.5s0.224-0.5,0.5-0.5h9c0.276,0,0.5,0.224,0.5,0.5
			S25.526,30.5,25.25,30.5z"/>
	</g>
	<g>
		<path class="st0" d="M59.75,17.5h-9c-0.276,0-0.5-0.224-0.5-0.5s0.224-0.5,0.5-0.5h9c0.276,0,0.5,0.224,0.5,0.5
			S60.026,17.5,59.75,17.5z"/>
	</g>
	<g>
		<path class="st0" d="M63,17.5h-1.5c-0.276,0-0.5-0.224-0.5-0.5s0.224-0.5,0.5-0.5H63c0.276,0,0.5,0.224,0.5,0.5
			S63.276,17.5,63,17.5z"/>
	</g>
	<g>
		<path class="st0" d="M5.76,6h-4c-0.276,0-0.5-0.224-0.5-0.5S1.483,5,1.76,5h4c0.276,0,0.5,0.224,0.5,0.5S6.036,6,5.76,6z"/>
	</g>
	<g>
		<path class="st0" d="M3.76,8c-0.276,0-0.5-0.224-0.5-0.5v-4c0-0.276,0.224-0.5,0.5-0.5s0.5,0.224,0.5,0.5v4
			C4.26,7.776,4.036,8,3.76,8z"/>
	</g>
	<g>
		<path class="st0" d="M11.76,12h-4c-0.276,0-0.5-0.224-0.5-0.5S7.483,11,7.76,11h4c0.276,0,0.5,0.224,0.5,0.5S12.036,12,11.76,12z"
			/>
	</g>
	<g>
		<path class="st0" d="M9.76,14c-0.276,0-0.5-0.224-0.5-0.5v-4c0-0.276,0.224-0.5,0.5-0.5s0.5,0.224,0.5,0.5v4
			C10.26,13.776,10.036,14,9.76,14z"/>
	</g>
	<g>
		<path class="st0" d="M7,63.5c-1.736,0-3.368-0.676-4.596-1.904S0.5,58.736,0.5,57c0-1.736,0.677-3.368,1.904-4.596
			S5.264,50.5,7,50.5s3.369,0.676,4.597,1.904c2.534,2.534,2.534,6.658,0,9.192l0,0C10.369,62.824,8.736,63.5,7,63.5z M7,51.5
			c-1.469,0-2.85,0.572-3.889,1.611C2.072,54.15,1.5,55.531,1.5,57c0,1.469,0.572,2.851,1.611,3.889C4.15,61.928,5.531,62.5,7,62.5
			s2.851-0.572,3.89-1.611l0,0c1.039-1.039,1.61-2.42,1.61-3.889c0-1.469-0.571-2.85-1.61-3.889S8.469,51.5,7,51.5z M11.243,61.243
			h0.01H11.243z"/>
	</g>
	<g>
		<path class="st0" d="M12.984,57.828c-0.045,0-0.091-0.006-0.137-0.019c-1.354-0.384-2.803-1.299-4.08-2.576
			c-1.276-1.276-2.19-2.725-2.576-4.08c-0.075-0.266,0.079-0.542,0.345-0.618c0.268-0.076,0.543,0.079,0.618,0.344
			c0.334,1.177,1.18,2.506,2.32,3.646c1.143,1.141,2.472,1.987,3.646,2.321c0.266,0.076,0.42,0.352,0.345,0.618
			C13.403,57.684,13.202,57.828,12.984,57.828z"/>
	</g>
	<g>
		<path class="st0" d="M7.328,63.484c-0.218,0-0.418-0.144-0.48-0.363c-0.335-1.176-1.181-2.504-2.322-3.646
			c-1.141-1.141-2.47-1.987-3.646-2.321c-0.266-0.076-0.42-0.352-0.345-0.618s0.35-0.422,0.618-0.344
			c1.354,0.385,2.804,1.3,4.08,2.576c1.276,1.277,2.191,2.726,2.576,4.08c0.076,0.266-0.078,0.542-0.344,0.618
			C7.419,63.479,7.373,63.484,7.328,63.484z"/>
	</g>
	<g>
		<path class="st3" d="M40.999,17.986v-0.026c-0.61,1.027-1.719,1.723-3,1.723c-1.282,0-2.391-0.696-3-1.724v0.027l-4,1.778v6.238
			v14.002h14.002V26.002v-6.237L40.999,17.986z"/>
		<path class="st0" d="M45.002,40.504H31c-0.276,0-0.5-0.224-0.5-0.5V19.764c0-0.198,0.116-0.376,0.297-0.457l3.911-1.738
			c0.047-0.036,0.101-0.062,0.158-0.078c0.216-0.059,0.446,0.019,0.562,0.213c0.551,0.926,1.512,1.479,2.571,1.479
			s2.02-0.552,2.569-1.478c0.115-0.193,0.345-0.285,0.562-0.227c0.076,0.021,0.145,0.059,0.2,0.109l3.874,1.721
			c0.181,0.081,0.297,0.259,0.297,0.457v20.239C45.502,40.281,45.278,40.504,45.002,40.504z M31.5,39.504h13.002V20.09l-3.336-1.483
			c-0.755,0.995-1.907,1.576-3.166,1.576s-2.412-0.581-3.167-1.576L31.5,20.088V39.504z"/>
	</g>
	<g>
		<path class="st3" d="M51.5,40.004H31.001l-4.424,10.209l-5.141,4.101l4.119,5.202l4.725-3.347
			c1.269-0.898,2.267-2.128,2.888-3.557l2.43-5.608H50.5L51.062,56H57.5v-9.996C57.5,42.691,54.814,40.004,51.5,40.004z"/>
		<path class="st0" d="M25.555,60.017c-0.147,0-0.294-0.065-0.392-0.189l-4.118-5.202c-0.171-0.216-0.136-0.53,0.08-0.701
			l5.043-4.023l4.374-10.095c0.079-0.183,0.26-0.301,0.459-0.301H51.5c3.584,0,6.5,2.916,6.5,6.5V56c0,0.276-0.224,0.5-0.5,0.5
			h-6.438c-0.264,0-0.482-0.205-0.499-0.469l-0.533-8.527H35.926l-2.299,5.307c-0.658,1.513-1.715,2.815-3.058,3.767l-4.726,3.347
			C25.756,59.987,25.655,60.017,25.555,60.017z M22.138,54.395l3.515,4.44l4.339-3.073c1.193-0.845,2.134-2.003,2.718-3.348
			l2.43-5.608c0.079-0.183,0.26-0.301,0.459-0.301H50.5c0.264,0,0.482,0.205,0.499,0.469l0.533,8.527H57v-9.496
			c0-3.033-2.468-5.5-5.5-5.5H31.329l-4.293,9.908c-0.033,0.075-0.083,0.141-0.147,0.192L22.138,54.395z"/>
	</g>
	<g>
		<path class="st0" d="M11.243,61.743c-0.128,0-0.256-0.049-0.354-0.146l-8.485-8.485c-0.195-0.195-0.195-0.512,0-0.707
			s0.512-0.195,0.707,0l8.485,8.485c0.195,0.195,0.195,0.512,0,0.707C11.499,61.694,11.371,61.743,11.243,61.743z"/>
	</g>
</g>
</svg>
