<?xml version="1.0" encoding="utf-8"?>
<!-- Generator: Adobe Illustrator 22.0.0, SVG Export Plug-In . SVG Version: 6.00 Build 0)  -->
<svg version="1.1" id="Icon_Set" xmlns="http://www.w3.org/2000/svg" xmlns:xlink="http://www.w3.org/1999/xlink" x="0px" y="0px"
	 viewBox="0 0 64 64" style="enable-background:new 0 0 64 64;" xml:space="preserve">
<style type="text/css">
	.st0{fill:#263238;}
	.st1{fill:#FFD740;}
	.st2{fill:#40C4FF;}
	.st3{fill:#FF5252;}
	.st4{fill:#FFFFFF;}
	.st5{fill:#4DB6AC;}
	.st6{fill:#4FC3F7;}
</style>
<g>
	<g>
		<path class="st0" d="M32,33.388c-0.276,0-0.5-0.224-0.5-0.5v-4c0-0.827-0.673-1.5-1.5-1.5s-1.5,0.673-1.5,1.5v4
			c0,0.276-0.224,0.5-0.5,0.5s-0.5-0.224-0.5-0.5v-4c0-1.378,1.122-2.5,2.5-2.5s2.5,1.122,2.5,2.5v4
			C32.5,33.164,32.276,33.388,32,33.388z"/>
	</g>
	<g>
		<path class="st1" d="M28.033,51.419l-9.52-7.305c-0.876-0.672-1.042-1.928-0.369-2.804l0,0c0.672-0.876,1.928-1.042,2.804-0.369
			l9.52,7.305c0.876,0.672,1.042,1.928,0.369,2.804l0,0C30.165,51.927,28.909,52.092,28.033,51.419z"/>
		<path class="st0" d="M29.248,52.332c-0.531,0-1.066-0.168-1.519-0.516l0,0l-9.52-7.305c-0.53-0.406-0.87-0.995-0.957-1.657
			c-0.087-0.662,0.089-1.318,0.496-1.849c0.839-1.092,2.411-1.3,3.505-0.461l9.52,7.305c1.094,0.839,1.301,2.411,0.461,3.505
			C30.742,51.995,29.999,52.332,29.248,52.332z M28.337,51.023c0.658,0.504,1.601,0.378,2.104-0.277
			c0.503-0.656,0.379-1.6-0.277-2.104l-9.52-7.305c-0.657-0.504-1.601-0.379-2.104,0.277c-0.244,0.318-0.35,0.712-0.297,1.109
			c0.052,0.397,0.256,0.75,0.574,0.994L28.337,51.023z"/>
	</g>
	<g>
		<path class="st1" d="M25.598,54.593l-9.52-7.305c-0.876-0.672-1.042-1.928-0.369-2.804l0,0c0.672-0.876,1.928-1.042,2.804-0.369
			l9.52,7.305c0.876,0.672,1.042,1.928,0.369,2.804h0C27.73,55.1,26.474,55.265,25.598,54.593z"/>
		<path class="st0" d="M26.812,55.505c-0.531,0-1.066-0.168-1.519-0.516l0,0l-9.52-7.305c-0.53-0.406-0.87-0.995-0.957-1.657
			c-0.087-0.662,0.089-1.318,0.496-1.849c0.839-1.092,2.412-1.3,3.505-0.461l9.52,7.305c1.094,0.839,1.301,2.411,0.461,3.505
			C28.307,55.168,27.563,55.505,26.812,55.505z M25.902,54.196c0.657,0.504,1.6,0.379,2.104-0.277
			c0.503-0.656,0.379-1.6-0.277-2.104l-9.52-7.305c-0.657-0.503-1.601-0.379-2.104,0.277c-0.244,0.318-0.35,0.712-0.297,1.109
			c0.052,0.397,0.256,0.75,0.574,0.994L25.902,54.196z"/>
	</g>
	<g>
		<path class="st0" d="M31.07,46.688c-0.095,0-0.191-0.027-0.276-0.083c-0.23-0.153-0.292-0.463-0.14-0.693l0.091-0.137
			c0.494-0.741,0.755-1.604,0.755-2.494V14.257c0-1.031-0.838-1.87-1.869-1.87c-0.77,0-1.471,0.483-1.747,1.202l-4.905,12.83
			c-0.629,1.645-0.788,3.43-0.46,5.16l1.215,6.416c0.122,0.642,0.027,1.317-0.265,1.9l-0.123,0.245
			c-0.123,0.247-0.421,0.35-0.67,0.224c-0.247-0.123-0.348-0.423-0.224-0.67l0.123-0.246c0.195-0.39,0.257-0.839,0.177-1.268
			l-1.215-6.416c-0.362-1.913-0.186-3.885,0.509-5.704l4.905-12.83c0.422-1.104,1.499-1.845,2.68-1.845
			c1.582,0,2.869,1.287,2.869,2.87V43.28c0,1.088-0.319,2.143-0.922,3.048l-0.09,0.136C31.391,46.609,31.232,46.688,31.07,46.688z"
			/>
	</g>
	<g>
		<path class="st0" d="M20.515,62.538c-0.095,0-0.191-0.027-0.277-0.084c-0.229-0.153-0.292-0.463-0.139-0.693l3.845-5.774
			c0.017-0.039,0.039-0.075,0.066-0.109c0.174-0.214,0.471-0.259,0.685-0.086c0.209,0.16,0.272,0.462,0.126,0.682l-3.89,5.842
			C20.835,62.459,20.677,62.538,20.515,62.538z"/>
	</g>
	<g>
		<path class="st0" d="M10.202,54.624c-0.119,0-0.238-0.042-0.333-0.127c-0.206-0.184-0.224-0.5-0.04-0.706l4.677-5.234
			c0.186-0.207,0.5-0.223,0.706-0.04c0.206,0.184,0.224,0.5,0.04,0.706l-4.677,5.234C10.476,54.567,10.339,54.624,10.202,54.624z"/>
	</g>
	<g>
		<path class="st0" d="M36,33.388c-0.276,0-0.5-0.224-0.5-0.5v-4c0-0.827-0.673-1.5-1.5-1.5s-1.5,0.673-1.5,1.5v4
			c0,0.276-0.224,0.5-0.5,0.5s-0.5-0.224-0.5-0.5v-4c0-1.378,1.122-2.5,2.5-2.5s2.5,1.122,2.5,2.5v4
			C36.5,33.164,36.276,33.388,36,33.388z"/>
	</g>
	<g>
		<path class="st1" d="M35.967,51.419l9.52-7.305c0.876-0.672,1.042-1.928,0.369-2.804l0,0c-0.672-0.876-1.928-1.042-2.804-0.369
			l-9.52,7.305c-0.876,0.672-1.042,1.928-0.369,2.804l0,0C33.835,51.927,35.091,52.092,35.967,51.419z"/>
		<path class="st0" d="M34.752,52.332c-0.751,0-1.495-0.336-1.986-0.977c-0.839-1.094-0.632-2.666,0.461-3.505l9.52-7.305
			c1.093-0.839,2.667-0.632,3.505,0.461c0.407,0.53,0.583,1.186,0.496,1.848c-0.087,0.662-0.427,1.25-0.957,1.657l-9.52,7.305l0,0
			C35.819,52.164,35.284,52.332,34.752,52.332z M35.967,51.419h0.01H35.967z M44.268,41.028c-0.318,0-0.64,0.101-0.912,0.309
			l-9.52,7.305c-0.656,0.503-0.78,1.447-0.277,2.104c0.503,0.656,1.446,0.78,2.104,0.277l9.52-7.305
			c0.318-0.244,0.522-0.597,0.574-0.994c0.052-0.397-0.053-0.791-0.297-1.109C45.165,41.23,44.719,41.028,44.268,41.028z"/>
	</g>
	<g>
		<path class="st1" d="M38.402,54.593l9.52-7.305c0.876-0.672,1.042-1.928,0.369-2.804l0,0c-0.672-0.876-1.928-1.042-2.804-0.369
			l-9.52,7.305c-0.876,0.672-1.042,1.928-0.369,2.804l0,0C36.27,55.1,37.526,55.265,38.402,54.593z"/>
		<path class="st0" d="M37.188,55.505c-0.751,0-1.495-0.336-1.986-0.977c-0.839-1.094-0.632-2.666,0.461-3.505l9.52-7.305
			c1.094-0.839,2.667-0.631,3.505,0.461c0.839,1.094,0.632,2.666-0.461,3.505l-9.52,7.305l0,0
			C38.254,55.337,37.719,55.505,37.188,55.505z M38.402,54.593h0.01H38.402z M46.703,44.202c-0.318,0-0.64,0.101-0.912,0.309
			l-9.52,7.305c-0.656,0.503-0.78,1.447-0.277,2.104c0.503,0.656,1.447,0.781,2.104,0.277l9.52-7.305
			c0.656-0.503,0.78-1.447,0.277-2.104C47.6,44.403,47.154,44.202,46.703,44.202z"/>
	</g>
	<g>
		<path class="st0" d="M32.93,46.688c-0.162,0-0.321-0.079-0.417-0.223l-0.091-0.137c-0.603-0.905-0.922-1.959-0.922-3.048V14.257
			c0-1.583,1.287-2.87,2.869-2.87c1.181,0,2.258,0.741,2.68,1.845l4.905,12.83c0.695,1.819,0.872,3.791,0.509,5.704l-1.215,6.416
			c-0.081,0.428-0.018,0.877,0.177,1.267l0.123,0.246c0.124,0.247,0.023,0.547-0.224,0.67c-0.247,0.125-0.547,0.023-0.67-0.224
			l-0.123-0.246c-0.292-0.583-0.386-1.258-0.265-1.899l1.215-6.416c0.328-1.73,0.168-3.515-0.46-5.16l-4.905-12.83
			c-0.275-0.719-0.977-1.202-1.747-1.202c-1.031,0-1.869,0.839-1.869,1.87V43.28c0,0.891,0.261,1.753,0.754,2.494l0.091,0.137
			c0.153,0.23,0.09,0.541-0.14,0.693C33.121,46.661,33.025,46.688,32.93,46.688z"/>
	</g>
	<g>
		<path class="st0" d="M43.485,62.538c-0.162,0-0.32-0.078-0.417-0.223l-3.89-5.842c-0.146-0.22-0.097-0.515,0.112-0.674
			c0.215-0.174,0.537-0.145,0.71,0.069c0.044,0.054,0.075,0.115,0.094,0.178L43.9,61.76c0.153,0.23,0.091,0.541-0.139,0.693
			C43.676,62.51,43.58,62.538,43.485,62.538z"/>
	</g>
	<g>
		<path class="st0" d="M53.798,54.624c-0.137,0-0.274-0.056-0.373-0.167l-4.677-5.234c-0.184-0.206-0.166-0.522,0.04-0.706
			c0.206-0.183,0.521-0.167,0.706,0.04l4.677,5.234c0.184,0.206,0.166,0.522-0.04,0.706C54.036,54.582,53.917,54.624,53.798,54.624z
			"/>
	</g>
	<g>
		<path class="st0" d="M32,9.462c-0.276,0-0.5-0.224-0.5-0.5v-7c0-0.276,0.224-0.5,0.5-0.5s0.5,0.224,0.5,0.5v7
			C32.5,9.239,32.276,9.462,32,9.462z"/>
	</g>
	<g>
		<path class="st0" d="M15.5,29.462h-9c-0.276,0-0.5-0.224-0.5-0.5s0.224-0.5,0.5-0.5h9c0.276,0,0.5,0.224,0.5,0.5
			S15.776,29.462,15.5,29.462z"/>
	</g>
	<g>
		<path class="st0" d="M57.5,29.462h-9c-0.276,0-0.5-0.224-0.5-0.5s0.224-0.5,0.5-0.5h9c0.276,0,0.5,0.224,0.5,0.5
			S57.776,29.462,57.5,29.462z"/>
	</g>
	<g>
		<path class="st0" d="M18.918,16.381c-0.128,0-0.256-0.049-0.354-0.146l-3.536-3.536c-0.195-0.195-0.195-0.512,0-0.707
			s0.512-0.195,0.707,0l3.536,3.536c0.195,0.195,0.195,0.512,0,0.707C19.174,16.333,19.046,16.381,18.918,16.381z"/>
	</g>
	<g>
		<path class="st0" d="M45.082,16.381c-0.128,0-0.256-0.049-0.354-0.146c-0.195-0.195-0.195-0.512,0-0.707l3.536-3.536
			c0.195-0.195,0.512-0.195,0.707,0s0.195,0.512,0,0.707l-3.536,3.536C45.337,16.333,45.209,16.381,45.082,16.381z"/>
	</g>
	<g>
		<path class="st0" d="M4.75,29.462h-1.5c-0.276,0-0.5-0.224-0.5-0.5s0.224-0.5,0.5-0.5h1.5c0.276,0,0.5,0.224,0.5,0.5
			S5.026,29.462,4.75,29.462z"/>
	</g>
	<g>
		<path class="st0" d="M60.75,29.462h-1.5c-0.276,0-0.5-0.224-0.5-0.5s0.224-0.5,0.5-0.5h1.5c0.276,0,0.5,0.224,0.5,0.5
			S61.026,29.462,60.75,29.462z"/>
	</g>
</g>
</svg>
