<?xml version="1.0" encoding="utf-8"?>
<!-- Generator: Adobe Illustrator 22.0.0, SVG Export Plug-In . SVG Version: 6.00 Build 0)  -->
<svg version="1.1" id="Icon_Set" xmlns="http://www.w3.org/2000/svg" xmlns:xlink="http://www.w3.org/1999/xlink" x="0px" y="0px"
	 viewBox="0 0 64 64" style="enable-background:new 0 0 64 64;" xml:space="preserve">
<style type="text/css">
	.st0{fill:#263238;}
	.st1{fill:#FFD740;}
	.st2{fill:#40C4FF;}
	.st3{fill:#FF5252;}
	.st4{fill:#FFFFFF;}
	.st5{fill:#4DB6AC;}
	.st6{fill:#4FC3F7;}
</style>
<g>
	<g>
		<path class="st0" d="M5.5,52.5h-2C3.224,52.5,3,52.276,3,52s0.224-0.5,0.5-0.5h2C5.776,51.5,6,51.724,6,52S5.776,52.5,5.5,52.5z"
			/>
	</g>
	<g>
		<path class="st0" d="M19,52.5H7.5C7.224,52.5,7,52.276,7,52s0.224-0.5,0.5-0.5H19c0.276,0,0.5,0.224,0.5,0.5S19.276,52.5,19,52.5z
			"/>
	</g>
	<g>
		<path class="st0" d="M15.5,18h-4c-0.276,0-0.5-0.224-0.5-0.5s0.224-0.5,0.5-0.5h4c0.276,0,0.5,0.224,0.5,0.5S15.776,18,15.5,18z"
			/>
	</g>
	<g>
		<path class="st0" d="M13.5,20c-0.276,0-0.5-0.224-0.5-0.5v-4c0-0.276,0.224-0.5,0.5-0.5s0.5,0.224,0.5,0.5v4
			C14,19.776,13.776,20,13.5,20z"/>
	</g>
	<g>
		<path class="st0" d="M22.5,14.5h-4c-0.276,0-0.5-0.224-0.5-0.5s0.224-0.5,0.5-0.5h4c0.276,0,0.5,0.224,0.5,0.5
			S22.776,14.5,22.5,14.5z"/>
	</g>
	<g>
		<path class="st0" d="M20.5,16.5c-0.276,0-0.5-0.224-0.5-0.5v-4c0-0.276,0.224-0.5,0.5-0.5S21,11.724,21,12v4
			C21,16.276,20.776,16.5,20.5,16.5z"/>
	</g>
	<g>
		<path class="st0" d="M28.98,52.5c-4.136,0-7.5-3.364-7.5-7.5s3.364-7.5,7.5-7.5s7.5,3.364,7.5,7.5S33.116,52.5,28.98,52.5z
			 M28.98,38.5c-3.584,0-6.5,2.916-6.5,6.5s2.916,6.5,6.5,6.5s6.5-2.916,6.5-6.5S32.564,38.5,28.98,38.5z"/>
	</g>
	<g>
		<path class="st1" d="M24.933,40.146l-0.434-0.522C22.96,40.909,21.98,42.839,21.98,45c0,3.866,3.134,7,7,7v-0.661
			C28.98,47.25,27.548,43.29,24.933,40.146z"/>
		<path class="st0" d="M28.98,52.5c-4.136,0-7.5-3.364-7.5-7.5c0-2.229,0.983-4.328,2.698-5.759
			c0.102-0.085,0.234-0.122,0.366-0.114c0.132,0.012,0.254,0.076,0.339,0.178l0.434,0.521v0.001
			c2.685,3.227,4.163,7.314,4.163,11.512V52C29.48,52.276,29.256,52.5,28.98,52.5z M24.447,40.345
			C23.191,41.565,22.48,43.236,22.48,45c0,3.416,2.648,6.225,6,6.481v-0.143c0-3.964-1.396-7.825-3.932-10.873L24.447,40.345z"/>
	</g>
	<g>
		<path class="st0" d="M58.001,52.498c-0.001,0-0.001,0-0.002,0L41,52.487c-0.844,0-1.654-0.358-2.221-0.984
			c-0.567-0.625-0.846-1.469-0.764-2.314c0.146-1.508,1.513-2.688,3.111-2.688h16.875c1.654,0,2.999,1.346,2.999,2.999
			c0,0.802-0.312,1.555-0.879,2.121C59.555,52.187,58.802,52.498,58.001,52.498z M41.126,47.5c-1.089,0-2.019,0.784-2.116,1.785
			c-0.056,0.574,0.125,1.123,0.509,1.546c0.378,0.417,0.918,0.656,1.481,0.656l17,0.011c0,0,0.001,0,0.001,0
			c0.534,0,1.036-0.208,1.413-0.585C59.792,50.535,60,50.033,60,49.499c0-1.103-0.897-1.999-1.999-1.999H41.126z"/>
	</g>
	<g>
		<path class="st0" d="M39.273,52.5h-1.154c-0.915,0-1.768-0.409-2.34-1.123s-0.787-1.635-0.588-2.527l3.476-15.639L8.782,42.438
			c-1.139,0.351-2.367,0.182-3.369-0.464c-1.001-0.646-1.663-1.705-1.813-2.905c-0.229-1.816,0.856-3.568,2.637-4.26l27.08-10.531
			c3.842-1.495,8.042-1.41,11.82,0.239l-0.124,0.491l0.2-0.458c4.593,2.003,7.138,7.007,6.051,11.898l-1.74,7.83
			c-0.229,1.031-0.622,2.031-1.166,2.972c-0.089,0.155-0.254,0.25-0.433,0.25h-6.799c-1.045,0-1.948,0.71-2.099,1.652
			c-0.167,1.048,0.504,2.051,1.529,2.283c0.238,0.054,0.402,0.271,0.389,0.514s-0.199,0.441-0.44,0.47
			C40.042,52.475,39.651,52.5,39.273,52.5z M39.341,31.979c0.124,0,0.245,0.046,0.339,0.133c0.131,0.12,0.188,0.302,0.149,0.476
			l-3.662,16.479c-0.132,0.595,0.01,1.209,0.392,1.685c0.381,0.476,0.95,0.749,1.56,0.749h0.664
			c-0.594-0.657-0.893-1.569-0.743-2.506c0.228-1.422,1.555-2.494,3.086-2.494h6.506c0.421-0.778,0.729-1.598,0.915-2.438l1.74-7.83
			c0.984-4.426-1.318-8.953-5.474-10.766c0,0-0.001,0-0.001,0l-0.076-0.033c-3.536-1.542-7.462-1.622-11.057-0.224L6.6,35.74
			c-1.332,0.518-2.176,1.864-2.007,3.203c0.116,0.919,0.6,1.697,1.364,2.189c0.752,0.486,1.675,0.611,2.531,0.35l30.706-9.48
			C39.242,31.986,39.292,31.979,39.341,31.979z"/>
	</g>
	<g>
		<path class="st2" d="M49.685,29.211l-10.344,3.269l-3.662,16.478C35.332,50.519,36.52,52,38.119,52h1.154
			c0.396,0,0.786-0.031,1.172-0.077c-0.085-0.019-0.139-0.038-0.174-0.057c-1.099-0.337-1.88-1.399-1.758-2.633
			C38.641,47.938,39.825,47,41.126,47l6.799,0c0.125-0.216,0.243-0.438,0.353-0.664c0.33-0.679,0.588-1.403,0.758-2.166l1.739-7.827
			C51.331,33.837,50.887,31.312,49.685,29.211z"/>
		<path class="st0" d="M39.273,52.5h-1.154c-0.915,0-1.768-0.409-2.34-1.123s-0.787-1.635-0.588-2.527l3.662-16.479
			c0.039-0.174,0.167-0.314,0.337-0.368l10.344-3.269c0.222-0.072,0.468,0.023,0.585,0.229c1.304,2.28,1.71,4.939,1.144,7.487
			l-1.739,7.828c-0.173,0.778-0.441,1.544-0.796,2.276c-0.115,0.236-0.238,0.468-0.369,0.695c-0.089,0.154-0.254,0.25-0.433,0.25
			h-6.799c-1.087,0-2.017,0.783-2.116,1.782c-0.094,0.957,0.484,1.823,1.407,2.105c0.238,0.053,0.472,0.293,0.459,0.536
			c-0.012,0.244-0.13,0.467-0.373,0.495C40.042,52.475,39.651,52.5,39.273,52.5z M39.767,32.869l-3.6,16.197
			c-0.132,0.595,0.01,1.209,0.392,1.685c0.381,0.476,0.95,0.749,1.56,0.749h0.659c-0.545-0.605-0.849-1.444-0.763-2.315
			c0.149-1.506,1.515-2.685,3.111-2.685h6.505c0.068-0.126,0.133-0.253,0.196-0.382c0.321-0.662,0.563-1.354,0.719-2.057
			l1.739-7.828c0.484-2.175,0.184-4.439-0.843-6.422L39.767,32.869z"/>
	</g>
	<g>
		<path class="st2" d="M10.084,33.849l2.116,7.01l27.14-8.38l10.344-3.269c-1.038-1.815-2.64-3.316-4.672-4.203l-0.076-0.033
			c-3.632-1.585-7.743-1.668-11.437-0.232L10.084,33.849z"/>
		<path class="st0" d="M12.201,41.359c-0.081,0-0.162-0.02-0.235-0.059c-0.118-0.062-0.206-0.17-0.244-0.297l-2.116-7.011
			c-0.076-0.25,0.054-0.516,0.297-0.61l23.416-9.106c3.842-1.493,8.04-1.408,11.818,0.24c2.152,0.939,3.849,2.465,4.981,4.446
			c0.075,0.131,0.086,0.289,0.032,0.43c-0.055,0.142-0.171,0.25-0.315,0.295l-10.344,3.269l-27.144,8.381
			C12.3,41.352,12.25,41.359,12.201,41.359z M10.697,34.147l1.837,6.086l26.659-8.231l9.73-3.075
			c-1.012-1.534-2.423-2.725-4.111-3.461c-3.609-1.575-7.537-1.656-11.131-0.258L10.697,34.147z"/>
	</g>
</g>
</svg>
