<?xml version="1.0" encoding="utf-8"?>
<!-- Generator: Adobe Illustrator 22.0.0, SVG Export Plug-In . SVG Version: 6.00 Build 0)  -->
<svg version="1.1" id="Icon_Set" xmlns="http://www.w3.org/2000/svg" xmlns:xlink="http://www.w3.org/1999/xlink" x="0px" y="0px"
	 viewBox="0 0 64 64" style="enable-background:new 0 0 64 64;" xml:space="preserve">
<style type="text/css">
	.st0{fill:#263238;}
	.st1{fill:#FFD740;}
	.st2{fill:#40C4FF;}
	.st3{fill:#FF5252;}
	.st4{fill:#FFFFFF;}
	.st5{fill:#4DB6AC;}
	.st6{fill:#4FC3F7;}
</style>
<g>
	<g>
		<path class="st0" d="M32,25.146c-4.659,0-8.734-3.063-10.053-7.5c-1.63-0.028-2.947-1.363-2.947-3s1.317-2.971,2.947-3
			c1.319-4.438,5.394-7.5,10.053-7.5c4.659,0,8.733,3.063,10.052,7.5c1.63,0.028,2.948,1.363,2.948,3s-1.317,2.972-2.948,3
			C40.734,22.083,36.659,25.146,32,25.146z M22.26,16.622c0.234,0,0.488,0.145,0.544,0.368c1.072,4.213,4.854,7.155,9.196,7.155
			s8.124-2.942,9.196-7.155c0.062-0.246,0.298-0.402,0.548-0.373c0.132,0.019,0.193,0.028,0.256,0.028c1.103,0,2-0.897,2-2
			s-0.897-2-2-2c-0.063,0-0.124,0.01-0.185,0.019c-0.253,0.038-0.557-0.116-0.62-0.363C40.125,8.088,36.343,5.146,32,5.146
			s-8.125,2.942-9.196,7.155c-0.062,0.245-0.301,0.401-0.549,0.373c-0.131-0.018-0.192-0.028-0.255-0.028c-1.103,0-2,0.897-2,2
			s0.897,2,2,2c0.063,0,0.124-0.01,0.185-0.019C22.21,16.624,22.235,16.622,22.26,16.622z"/>
	</g>
	<g>
		<path class="st0" d="M32,20.146c-1.469,0-2.851-0.572-3.889-1.611c-0.195-0.195-0.195-0.512,0-0.707s0.512-0.195,0.707,0
			c0.85,0.85,1.98,1.318,3.182,1.318s2.332-0.468,3.182-1.318c0.195-0.195,0.512-0.195,0.707,0s0.195,0.512,0,0.707
			C34.851,19.574,33.47,20.146,32,20.146z"/>
	</g>
	<g>
		<path class="st1" d="M32.001,4.645L32.001,4.645c-5.523,0-10,4.477-10,10l5.955-5l1.265,1.14c2.756,2.485,6.334,3.86,10.045,3.86
			h2.736C42.001,9.123,37.524,4.645,32.001,4.645z"/>
		<path class="st0" d="M22.001,15.146c-0.072,0-0.144-0.015-0.211-0.047c-0.176-0.082-0.289-0.259-0.289-0.453
			c0-5.79,4.71-10.5,10.5-10.5s10.5,4.71,10.5,10.5c0,0.276-0.224,0.5-0.5,0.5h-2.736c-3.841,0-7.527-1.417-10.38-3.988
			l-0.941-0.849l-5.622,4.72C22.23,15.105,22.116,15.146,22.001,15.146z M27.956,9.146c0.12,0,0.24,0.043,0.335,0.128l1.265,1.14
			c2.668,2.406,6.117,3.731,9.71,3.731h2.223c-0.261-5.007-4.417-9-9.487-9c-4.856,0-8.874,3.663-9.433,8.371l5.066-4.254
			C27.727,9.185,27.841,9.146,27.956,9.146z"/>
	</g>
	<g>
		<path class="st2" d="M51.001,49.646l-6.672,0c-1.721,5.165-6.592,8.903-12.328,8.903s-10.607-3.738-12.328-8.903l-6.671,0
			c-2.761,0-5,2.239-5,5v0c0,2.761,2.239,5,5,5h38c2.761,0,5-2.239,5-5v0C56.001,51.884,53.762,49.646,51.001,49.646z"/>
	</g>
	<g>
		<path class="st0" d="M51,60.146H13c-3.033,0-5.5-2.467-5.5-5.5s2.467-5.5,5.5-5.5h6.671c0.276,0,0.5,0.224,0.5,0.5
			s-0.224,0.5-0.5,0.5H13c-2.481,0-4.5,2.019-4.5,4.5s2.019,4.5,4.5,4.5h38c2.481,0,4.5-2.019,4.5-4.5s-2.019-4.5-4.5-4.5h-6.672
			c-0.276,0-0.5-0.224-0.5-0.5s0.224-0.5,0.5-0.5H51c3.033,0,5.5,2.467,5.5,5.5S54.033,60.146,51,60.146z"/>
	</g>
	<g>
		<path class="st1" d="M36.002,23.808v1.838l7.709,2.803c0.083,0.03,0.157,0.074,0.237,0.108L41.65,17.218
			c-0.791,2.971-2.909,5.398-5.683,6.603C35.978,23.816,35.99,23.813,36.002,23.808z"/>
		<path class="st0" d="M43.947,29.057c-0.066,0-0.133-0.013-0.196-0.04l-0.119-0.056c-0.03-0.015-0.06-0.03-0.092-0.042
			l-7.709-2.804c-0.198-0.072-0.329-0.259-0.329-0.47v-1.668c-0.083-0.245,0.026-0.512,0.266-0.616
			c2.641-1.147,4.659-3.493,5.398-6.273c0.06-0.224,0.239-0.375,0.499-0.372c0.232,0.007,0.429,0.173,0.475,0.401l2.298,11.339
			c0.037,0.182-0.03,0.37-0.174,0.487C44.172,29.018,44.061,29.057,43.947,29.057z M36.502,25.296l6.773,2.463l-1.764-8.704
			c-1.026,2.199-2.806,4.017-5.01,5.071V25.296z"/>
	</g>
	<g>
		<path class="st1" d="M20.292,28.449L28,25.646v-1.838c0.001,0.001,0.003,0.001,0.005,0.002c-2.759-1.209-4.866-3.631-5.654-6.592
			l-2.298,11.34C20.134,28.523,20.208,28.479,20.292,28.449z"/>
		<path class="st0" d="M20.053,29.058c-0.113,0-0.225-0.038-0.315-0.112c-0.144-0.117-0.211-0.305-0.175-0.487l2.298-11.34
			c0.046-0.228,0.243-0.394,0.475-0.401c0.245-0.005,0.438,0.147,0.499,0.372c0.736,2.767,2.74,5.105,5.361,6.258
			c0.004,0.002,0.008,0.003,0.011,0.005c0.208,0.091,0.323,0.308,0.293,0.524v1.77c0,0.21-0.131,0.398-0.329,0.47l-7.708,2.803
			c-0.033,0.012-0.063,0.028-0.095,0.043l-0.117,0.055C20.188,29.044,20.12,29.058,20.053,29.058z M22.489,19.055l-1.764,8.705
			l6.775-2.463v-1.167C25.296,23.075,23.515,21.255,22.489,19.055z"/>
	</g>
	<g>
		<path class="st2" d="M42.224,39.443l-1.223-4.894h-0.528c-2.941,0-5.842,0.685-8.472,2l0,0l0,0c-2.631-1.315-5.531-2-8.472-2H23
			l-1.223,4.894c-0.394,1.578,0.799,3.106,2.425,3.106h15.597C41.426,42.549,42.619,41.02,42.224,39.443z"/>
		<path class="st0" d="M39.799,43.049H24.202c-0.93,0-1.792-0.42-2.365-1.154c-0.572-0.733-0.771-1.671-0.545-2.574l1.224-4.894
			c0.056-0.223,0.255-0.379,0.485-0.379h0.528c2.919,0,5.843,0.671,8.472,1.943c2.629-1.272,5.553-1.943,8.472-1.943h0.528
			c0.229,0,0.429,0.156,0.485,0.379l1.224,4.894l0,0c0.226,0.902,0.027,1.841-0.545,2.574
			C41.591,42.628,40.729,43.049,39.799,43.049z M23.391,35.049l-1.129,4.515c-0.15,0.602-0.018,1.228,0.364,1.716
			c0.381,0.489,0.956,0.769,1.576,0.769h15.597c0.62,0,1.195-0.28,1.576-0.769c0.382-0.489,0.515-1.114,0.364-1.716l-1.129-4.515
			h-0.138c-2.848,0-5.7,0.673-8.249,1.947c-0.141,0.07-0.307,0.07-0.447,0c-2.548-1.274-5.4-1.947-8.249-1.947H23.391z"/>
	</g>
	<g>
		<path class="st0" d="M32,57.049c-6.341,0-11.5-5.159-11.5-11.5c0-0.675,0.067-1.378,0.199-2.091
			c0.05-0.272,0.309-0.456,0.583-0.401c0.271,0.05,0.451,0.311,0.401,0.583c-0.121,0.653-0.182,1.295-0.182,1.909
			c0,5.79,4.71,10.5,10.5,10.5s10.5-4.71,10.5-10.5c0-0.616-0.061-1.258-0.182-1.909c-0.05-0.271,0.129-0.532,0.401-0.583
			c0.271-0.054,0.532,0.128,0.583,0.401c0.131,0.71,0.198,1.414,0.198,2.091C43.5,51.89,38.341,57.049,32,57.049z"/>
	</g>
	<g>
		<circle class="st0" cx="32" cy="50.549" r="1"/>
	</g>
	<g>
		<path class="st0" d="M10,22.548c-1.378,0-2.5-1.122-2.5-2.5s1.122-2.5,2.5-2.5s2.5,1.122,2.5,2.5S11.379,22.548,10,22.548z
			 M10,18.548c-0.827,0-1.5,0.673-1.5,1.5s0.673,1.5,1.5,1.5s1.5-0.673,1.5-1.5S10.828,18.548,10,18.548z"/>
	</g>
	<g>
		<path class="st0" d="M10,25.548c-1.497,0-2.74-1.101-2.964-2.536C5.602,22.789,4.5,21.545,4.5,20.048s1.101-2.74,2.536-2.964
			C7.26,15.649,8.504,14.548,10,14.548s2.74,1.101,2.964,2.536c1.435,0.224,2.536,1.468,2.536,2.964s-1.101,2.74-2.536,2.964
			C12.741,24.447,11.497,25.548,10,25.548z M10,15.548c-1.103,0-2,0.897-2,2c0,0.276-0.224,0.5-0.5,0.5c-1.103,0-2,0.897-2,2
			s0.897,2,2,2c0.276,0,0.5,0.224,0.5,0.5c0,1.103,0.897,2,2,2s2-0.897,2-2c0-0.276,0.224-0.5,0.5-0.5c1.103,0,2-0.897,2-2
			s-0.897-2-2-2c-0.276,0-0.5-0.224-0.5-0.5C12,16.445,11.104,15.548,10,15.548z M13,17.548h0.01H13z"/>
	</g>
	<g>
		<path class="st0" d="M54,22.548c-1.378,0-2.5-1.122-2.5-2.5s1.122-2.5,2.5-2.5s2.5,1.122,2.5,2.5S55.379,22.548,54,22.548z
			 M54,18.548c-0.827,0-1.5,0.673-1.5,1.5s0.673,1.5,1.5,1.5s1.5-0.673,1.5-1.5S54.828,18.548,54,18.548z"/>
	</g>
	<g>
		<path class="st0" d="M54,25.548c-1.497,0-2.74-1.101-2.964-2.536c-1.435-0.224-2.536-1.468-2.536-2.964s1.101-2.74,2.536-2.964
			c0.224-1.435,1.468-2.536,2.964-2.536s2.74,1.101,2.964,2.536c1.435,0.224,2.536,1.468,2.536,2.964s-1.101,2.74-2.536,2.964
			C56.741,24.447,55.497,25.548,54,25.548z M54,15.548c-1.103,0-2,0.897-2,2c0,0.276-0.224,0.5-0.5,0.5c-1.103,0-2,0.897-2,2
			s0.897,2,2,2c0.276,0,0.5,0.224,0.5,0.5c0,1.103,0.897,2,2,2s2-0.897,2-2c0-0.276,0.224-0.5,0.5-0.5c1.103,0,2-0.897,2-2
			s-0.897-2-2-2c-0.276,0-0.5-0.224-0.5-0.5C56,16.445,55.104,15.548,54,15.548z M57,17.548h0.01H57z"/>
	</g>
	<g>
		<path class="st0" d="M63,36.049h-2c-0.276,0-0.5-0.224-0.5-0.5s0.224-0.5,0.5-0.5h2c0.276,0,0.5,0.224,0.5,0.5
			S63.277,36.049,63,36.049z"/>
	</g>
	<g>
		<path class="st0" d="M59,36.049h-7.5c-0.276,0-0.5-0.224-0.5-0.5s0.224-0.5,0.5-0.5H59c0.276,0,0.5,0.224,0.5,0.5
			S59.277,36.049,59,36.049z"/>
	</g>
	<g>
		<path class="st0" d="M3,36.049H1c-0.276,0-0.5-0.224-0.5-0.5s0.224-0.5,0.5-0.5h2c0.276,0,0.5,0.224,0.5,0.5
			S3.277,36.049,3,36.049z"/>
	</g>
	<g>
		<path class="st0" d="M12.5,36.049H5c-0.276,0-0.5-0.224-0.5-0.5s0.224-0.5,0.5-0.5h7.5c0.276,0,0.5,0.224,0.5,0.5
			S12.777,36.049,12.5,36.049z"/>
	</g>
	<g>
		<path class="st0" d="M10.773,50.242c-1.371,0-2.676-0.811-3.235-2.153c-0.36-0.863-0.362-1.814-0.006-2.679
			c0.356-0.864,1.027-1.539,1.89-1.898l7.077-2.949v-7.414c0-2.304,1.455-4.381,3.62-5.168l7.38-2.684v-1.488
			c0-0.276,0.224-0.5,0.5-0.5s0.5,0.224,0.5,0.5v1.838c0,0.21-0.131,0.398-0.329,0.47l-7.709,2.803
			c-1.771,0.644-2.962,2.344-2.962,4.229v7.748c0,0.202-0.122,0.384-0.308,0.461l-7.385,3.077c-0.617,0.257-1.096,0.738-1.35,1.356
			c-0.254,0.618-0.253,1.297,0.004,1.914c0.531,1.273,1.998,1.875,3.269,1.346l7.128-2.97c0.254-0.105,0.547,0.014,0.654,0.269
			s-0.014,0.548-0.269,0.654l-7.128,2.97C11.676,50.155,11.221,50.242,10.773,50.242z"/>
	</g>
	<g>
		<path class="st0" d="M53.227,50.242c-0.448,0-0.903-0.086-1.342-0.27l-7.128-2.97c-0.255-0.106-0.375-0.399-0.269-0.654
			s0.401-0.374,0.654-0.269l7.128,2.97c1.271,0.529,2.739-0.074,3.269-1.346c0.257-0.616,0.258-1.296,0.004-1.914
			c-0.254-0.618-0.734-1.099-1.35-1.356l-7.385-3.077c-0.186-0.078-0.308-0.26-0.308-0.461v-7.748c0-1.885-1.19-3.585-2.962-4.229
			l-7.708-2.803c-0.198-0.072-0.329-0.259-0.329-0.47v-1.838c0-0.276,0.224-0.5,0.5-0.5s0.5,0.224,0.5,0.5v1.488l7.379,2.684
			c2.166,0.787,3.621,2.864,3.621,5.168v7.414l7.077,2.949c0.863,0.359,1.534,1.034,1.89,1.898c0.356,0.864,0.354,1.816-0.006,2.679
			C55.902,49.431,54.598,50.242,53.227,50.242z"/>
	</g>
</g>
</svg>
