<?xml version="1.0" encoding="utf-8"?>
<!-- Generator: Adobe Illustrator 22.0.0, SVG Export Plug-In . SVG Version: 6.00 Build 0)  -->
<svg version="1.1" id="Icon_Set" xmlns="http://www.w3.org/2000/svg" xmlns:xlink="http://www.w3.org/1999/xlink" x="0px" y="0px"
	 viewBox="0 0 64 64" style="enable-background:new 0 0 64 64;" xml:space="preserve">
<style type="text/css">
	.st0{fill:#263238;}
	.st1{fill:#FFD740;}
	.st2{fill:#40C4FF;}
	.st3{fill:#FF5252;}
	.st4{fill:#FFFFFF;}
	.st5{fill:#4DB6AC;}
	.st6{fill:#4FC3F7;}
</style>
<g>
	<g>
		<path class="st0" d="M9,27.5H7c-0.276,0-0.5-0.224-0.5-0.5s0.224-0.5,0.5-0.5h2c0.276,0,0.5,0.224,0.5,0.5S9.276,27.5,9,27.5z"/>
	</g>
	<g>
		<path class="st0" d="M22.5,27.5H11c-0.276,0-0.5-0.224-0.5-0.5s0.224-0.5,0.5-0.5h11.5c0.276,0,0.5,0.224,0.5,0.5
			S22.776,27.5,22.5,27.5z"/>
	</g>
	<g>
		<path class="st0" d="M57,19h-4c-0.276,0-0.5-0.224-0.5-0.5S52.724,18,53,18h4c0.276,0,0.5,0.224,0.5,0.5S57.276,19,57,19z"/>
	</g>
	<g>
		<path class="st0" d="M55,21c-0.276,0-0.5-0.224-0.5-0.5v-4c0-0.276,0.224-0.5,0.5-0.5s0.5,0.224,0.5,0.5v4
			C55.5,20.776,55.276,21,55,21z"/>
	</g>
	<g>
		<path class="st0" d="M51,14.5h-4c-0.276,0-0.5-0.224-0.5-0.5s0.224-0.5,0.5-0.5h4c0.276,0,0.5,0.224,0.5,0.5S51.276,14.5,51,14.5z
			"/>
	</g>
	<g>
		<path class="st0" d="M49,16.5c-0.276,0-0.5-0.224-0.5-0.5v-4c0-0.276,0.224-0.5,0.5-0.5s0.5,0.224,0.5,0.5v4
			C49.5,16.276,49.276,16.5,49,16.5z"/>
	</g>
	<g>
		<path class="st0" d="M54.5,48H40.002c-1.725,0-3.407-0.337-5.002-1l-7.846-3.27c-0.739-0.308-1.315-0.886-1.62-1.627
			c-0.305-0.74-0.303-1.556,0.005-2.296c0.637-1.526,2.398-2.251,3.922-1.616l7.849,3.271C38.168,41.819,39.073,42,40,42h14.5
			c1.654,0,3,1.346,3,3S56.154,48,54.5,48z M28.312,38.961c-0.784,0-1.53,0.464-1.85,1.231c-0.205,0.493-0.207,1.036-0.003,1.53
			s0.587,0.879,1.08,1.084l7.846,3.27C36.856,46.689,38.41,47,40.002,47H54.5c1.103,0,2-0.897,2-2s-0.897-2-2-2H40
			c-1.06,0-2.094-0.207-3.074-0.614l-7.849-3.271C28.827,39.011,28.567,38.961,28.312,38.961z"/>
	</g>
	<g>
		<path class="st1" d="M43.349,42.5c1.026-1.217,1.652-2.783,1.652-4.5c0-3.866-3.134-7-7-7v0.661c0,3.94,1.341,7.753,3.778,10.839
			H43.349z"/>
		<path class="st0" d="M43.349,43h-1.569c-0.153,0-0.298-0.07-0.393-0.19c-2.506-3.172-3.886-7.132-3.886-11.148V31
			c0-0.276,0.224-0.5,0.5-0.5c4.136,0,7.5,3.364,7.5,7.5c0,1.756-0.629,3.468-1.771,4.822C43.636,42.935,43.496,43,43.349,43z
			 M42.023,42h1.088c0.897-1.145,1.39-2.556,1.39-4c0-3.416-2.648-6.225-6-6.481v0.143C38.501,35.374,39.75,39.036,42.023,42z"/>
	</g>
	<g>
		<path class="st0" d="M43.359,43H40c-1.06,0-2.094-0.207-3.074-0.614l0,0l-5.969-2.487c-0.152-0.063-0.264-0.198-0.297-0.36
			C30.554,39.031,30.5,38.514,30.5,38c0-4.136,3.365-7.5,7.5-7.5s7.5,3.364,7.5,7.5c0,1.761-0.625,3.474-1.759,4.822
			C43.647,42.935,43.507,43,43.359,43z M37.311,41.462C38.168,41.819,39.073,42,40,42h3.121c0.892-1.14,1.38-2.551,1.38-4
			c0-3.584-2.916-6.5-6.5-6.5s-6.5,2.916-6.5,6.5c0,0.359,0.03,0.721,0.09,1.079L37.311,41.462z"/>
	</g>
	<g>
		<path class="st2" d="M40.002,47.5c-1.651,0-3.286-0.327-4.81-0.962L29.101,44H8.643c-0.28,4.127,2.963,8,7.493,8H50v-4.5H40.002z"
			/>
		<path class="st0" d="M50,52.5H16.136c-2.242,0-4.313-0.895-5.832-2.52c-1.521-1.629-2.309-3.82-2.16-6.015
			C8.162,43.704,8.38,43.5,8.643,43.5h20.458c0.066,0,0.131,0.013,0.192,0.038l6.091,2.538C36.856,46.689,38.41,47,40.002,47H50
			c0.276,0,0.5,0.224,0.5,0.5V52C50.5,52.276,50.276,52.5,50,52.5z M9.126,44.5c0.001,1.76,0.683,3.486,1.908,4.798
			c1.327,1.42,3.139,2.202,5.101,2.202H49.5V48h-9.498c-1.725,0-3.407-0.337-5.002-1l-5.999-2.5H9.126z"/>
	</g>
	<g>
		<path class="st2" d="M27.347,43.269c-1.274-0.531-1.877-1.995-1.346-3.269c0.531-1.275,1.995-1.877,3.269-1.346L31,39.375V37
			c0-2.761-2.239-5-5-5h-2.729c-5.682,0-10.876,3.21-13.416,8.292l-0.427,0.854C8.96,42.081,8.708,43.047,8.643,44h20.458
			L27.347,43.269z"/>
		<path class="st0" d="M29.101,44.5H8.643c-0.139,0-0.271-0.058-0.365-0.158c-0.095-0.102-0.143-0.237-0.134-0.376
			c0.072-1.054,0.354-2.078,0.836-3.044l0.427-0.854c2.642-5.285,7.954-8.568,13.863-8.568H26c3.033,0,5.5,2.468,5.5,5.5v2.375
			c0,0.167-0.083,0.323-0.223,0.416c-0.14,0.092-0.316,0.109-0.47,0.046l-1.73-0.722c-1.016-0.425-2.191,0.059-2.615,1.077
			c-0.424,1.018,0.059,2.191,1.077,2.615l1.754,0.73c0.22,0.092,0.345,0.326,0.298,0.56C29.544,44.332,29.339,44.5,29.101,44.5z
			 M9.199,43.5h17.509c-1.216-0.766-1.74-2.322-1.169-3.692c0.637-1.526,2.398-2.251,3.922-1.616l1.039,0.434V37
			c0-2.481-2.019-4.5-4.5-4.5h-2.729c-5.528,0-10.497,3.071-12.969,8.016l-0.427,0.854C9.534,42.052,9.307,42.767,9.199,43.5z"/>
	</g>
	<g>
		<path class="st0" d="M53.433,52.5H16.136c-2.242,0-4.313-0.895-5.832-2.52c-1.521-1.629-2.309-3.82-2.16-6.015
			C8.162,43.704,8.38,43.5,8.643,43.5h20.458c0.066,0,0.131,0.013,0.192,0.038l6.091,2.538C36.856,46.689,38.41,47,40.002,47H54.5
			c0.606,0,1.175-0.279,1.56-0.767c0.102-0.127,0.244-0.208,0.42-0.188c0.162,0.009,0.31,0.096,0.396,0.233
			c0.408,0.65,0.624,1.396,0.624,2.154C57.5,50.676,55.676,52.5,53.433,52.5z M9.126,44.5c0.001,1.76,0.683,3.486,1.908,4.798
			c1.327,1.42,3.139,2.202,5.101,2.202h37.297c1.691,0,3.067-1.376,3.067-3.067c0-0.359-0.064-0.714-0.189-1.051
			C55.794,47.78,55.163,48,54.5,48H40.002c-1.725,0-3.407-0.337-5.002-1l-5.999-2.5H9.126z"/>
	</g>
</g>
</svg>
