<?xml version="1.0" encoding="utf-8"?>
<!-- Generator: Adobe Illustrator 22.0.0, SVG Export Plug-In . SVG Version: 6.00 Build 0)  -->
<svg version="1.1" id="Icon_Set" xmlns="http://www.w3.org/2000/svg" xmlns:xlink="http://www.w3.org/1999/xlink" x="0px" y="0px"
	 viewBox="0 0 64 64" style="enable-background:new 0 0 64 64;" xml:space="preserve">
<style type="text/css">
	.st0{fill:#263238;}
	.st1{fill:#FFD740;}
	.st2{fill:#40C4FF;}
	.st3{fill:#FF5252;}
	.st4{fill:#FFFFFF;}
	.st5{fill:#4DB6AC;}
	.st6{fill:#4FC3F7;}
</style>
<g>
	<g>
		<path class="st1" d="M44,28.083h-0.133C42.47,30.424,39.919,32,37,32H25c-2.919,0-5.47-1.576-6.867-3.917H18c-2.761,0-5,2.239-5,5
			v0.27c0,2.654,2.073,4.845,4.723,4.992l26,1.444C46.589,39.949,49,37.668,49,34.798v-1.715C49,30.322,46.761,28.083,44,28.083z"/>
	</g>
	<g>
		<path class="st0" d="M62,58.5h-2c-0.276,0-0.5-0.224-0.5-0.5s0.224-0.5,0.5-0.5h2c0.276,0,0.5,0.224,0.5,0.5S62.276,58.5,62,58.5z
			"/>
	</g>
	<g>
		<path class="st0" d="M58,58.5h-7.5c-0.276,0-0.5-0.224-0.5-0.5s0.224-0.5,0.5-0.5H58c0.276,0,0.5,0.224,0.5,0.5
			S58.276,58.5,58,58.5z"/>
	</g>
	<g>
		<path class="st0" d="M4,23.5H2c-0.276,0-0.5-0.224-0.5-0.5s0.224-0.5,0.5-0.5h2c0.276,0,0.5,0.224,0.5,0.5S4.276,23.5,4,23.5z"/>
	</g>
	<g>
		<path class="st0" d="M13.5,23.5H6c-0.276,0-0.5-0.224-0.5-0.5s0.224-0.5,0.5-0.5h7.5c0.276,0,0.5,0.224,0.5,0.5
			S13.776,23.5,13.5,23.5z"/>
	</g>
	<g>
		<path class="st0" d="M44.01,40.298c-0.104,0-0.209-0.003-0.314-0.009l-26-1.444c-2.913-0.162-5.195-2.574-5.195-5.491v-0.271
			c0-3.033,2.468-5.5,5.5-5.5h0.133c0.276,0,0.5,0.224,0.5,0.5s-0.224,0.5-0.5,0.5H18c-2.481,0-4.5,2.019-4.5,4.5v0.271
			c0,2.387,1.867,4.36,4.25,4.493l26,1.444c1.266,0.063,2.436-0.366,3.343-1.224C48,37.208,48.5,36.047,48.5,34.798v-1.715
			c0-2.481-2.019-4.5-4.5-4.5h-0.133c-0.276,0-0.5-0.224-0.5-0.5s0.224-0.5,0.5-0.5H44c3.032,0,5.5,2.467,5.5,5.5v1.715
			c0,1.527-0.611,2.946-1.721,3.995C46.747,39.77,45.419,40.298,44.01,40.298z"/>
	</g>
	<g>
		<ellipse class="st5" cx="31" cy="15" rx="10" ry="5"/>
		<path class="st0" d="M31,20.5c-5.888,0-10.5-2.416-10.5-5.5S25.112,9.5,31,9.5s10.5,2.416,10.5,5.5S36.888,20.5,31,20.5z M31,10.5
			c-5.149,0-9.5,2.061-9.5,4.5s4.351,4.5,9.5,4.5s9.5-2.061,9.5-4.5S36.149,10.5,31,10.5z"/>
	</g>
	<g>
		<path class="st0" d="M38.03,15.629c-0.203,0-0.38-0.121-0.46-0.294c-0.009-0.01-0.018-0.021-0.026-0.032
			C37.176,14.822,34.939,13.5,31,13.5c-0.276,0-0.5-0.224-0.5-0.5s0.224-0.5,0.5-0.5c4.121,0,6.688,1.347,7.339,2.196
			c0.021,0.028,0.039,0.058,0.055,0.089c0.085,0.09,0.137,0.211,0.137,0.344C38.53,15.406,38.307,15.629,38.03,15.629z"/>
	</g>
	<g>
		<path class="st0" d="M37,30.5H25c-3.584,0-6.5-2.916-6.5-6.5c0-2.028,0.927-3.905,2.542-5.148
			c0.218-0.169,0.531-0.129,0.701,0.091c0.168,0.219,0.127,0.533-0.092,0.701C20.284,20.697,19.5,22.284,19.5,24
			c0,3.033,2.468,5.5,5.5,5.5h12c3.032,0,5.5-2.467,5.5-5.5c0-1.716-0.784-3.303-2.151-4.356c-0.219-0.168-0.26-0.482-0.092-0.701
			c0.168-0.219,0.483-0.259,0.701-0.091C42.573,20.095,43.5,21.972,43.5,24C43.5,27.584,40.584,30.5,37,30.5z"/>
	</g>
	<g>
		<path class="st0" d="M31,56.5C17.262,56.5,6.5,51.888,6.5,46c0-2.846,2.547-5.495,7.171-7.459c0.251-0.109,0.547,0.01,0.655,0.265
			c0.108,0.254-0.011,0.547-0.265,0.655C9.83,41.259,7.5,43.581,7.5,46c0,5.149,10.762,9.5,23.5,9.5s23.5-4.351,23.5-9.5
			c0-2.188-1.962-4.343-5.525-6.068c-0.249-0.121-0.353-0.419-0.232-0.668c0.121-0.248,0.419-0.351,0.668-0.232
			c3.927,1.901,6.09,4.376,6.09,6.968C55.5,51.888,44.738,56.5,31,56.5z"/>
	</g>
	<g>
		<path class="st0" d="M50,8.5h-4c-0.276,0-0.5-0.224-0.5-0.5s0.224-0.5,0.5-0.5h4c0.276,0,0.5,0.224,0.5,0.5S50.276,8.5,50,8.5z"/>
	</g>
	<g>
		<path class="st0" d="M48,10.5c-0.276,0-0.5-0.224-0.5-0.5V6c0-0.276,0.224-0.5,0.5-0.5s0.5,0.224,0.5,0.5v4
			C48.5,10.276,48.276,10.5,48,10.5z"/>
	</g>
	<g>
		<path class="st0" d="M55,15h-4c-0.276,0-0.5-0.224-0.5-0.5S50.724,14,51,14h4c0.276,0,0.5,0.224,0.5,0.5S55.276,15,55,15z"/>
	</g>
	<g>
		<path class="st0" d="M53,17c-0.276,0-0.5-0.224-0.5-0.5v-4c0-0.276,0.224-0.5,0.5-0.5s0.5,0.224,0.5,0.5v4
			C53.5,16.776,53.276,17,53,17z"/>
	</g>
</g>
</svg>
