<?xml version="1.0" encoding="utf-8"?>
<!-- Generator: Adobe Illustrator 22.0.0, SVG Export Plug-In . SVG Version: 6.00 Build 0)  -->
<svg version="1.1" id="Icon_Set" xmlns="http://www.w3.org/2000/svg" xmlns:xlink="http://www.w3.org/1999/xlink" x="0px" y="0px"
	 viewBox="0 0 64 64" style="enable-background:new 0 0 64 64;" xml:space="preserve">
<style type="text/css">
	.st0{fill:#263238;}
	.st1{fill:#FFD740;}
	.st2{fill:#40C4FF;}
	.st3{fill:#FF5252;}
	.st4{fill:#FFFFFF;}
	.st5{fill:#4DB6AC;}
	.st6{fill:#4FC3F7;}
</style>
<g>
	<g>
		<path class="st1" d="M22.52,49.946l18.352,0.734c0.03-0.221,0.068-0.44,0.069-0.669L41,22.5c0,0,0,0,0,0H7V50c0,2.761,2.239,5,5,5
			h5.26c0-1.389,0.552-2.684,1.554-3.647C19.815,50.391,21.128,49.896,22.52,49.946z"/>
	</g>
	<g>
		<path class="st1" d="M41,19.5C41,19.5,41,19.5,41,19.5l0-2.5c0-2.761-2.239-5-5-5H12c-2.761,0-5,2.239-5,5v2.5"/>
		<path class="st0" d="M41,20c-0.276,0-0.5-0.224-0.5-0.5V17c0-2.481-2.019-4.5-4.5-4.5H12c-2.481,0-4.5,2.019-4.5,4.5v2.5
			C7.5,19.776,7.276,20,7,20s-0.5-0.224-0.5-0.5V17c0-3.033,2.467-5.5,5.5-5.5h24c3.033,0,5.5,2.467,5.5,5.5v2.5
			C41.5,19.776,41.276,20,41,20z"/>
	</g>
	<g>
		<path class="st0" d="M41,23H7c-1.103,0-2-0.897-2-2s0.897-2,2-2h34c1.103,0,2,0.897,2,2S42.103,23,41,23z M7,20
			c-0.551,0-1,0.449-1,1s0.449,1,1,1h34c0.551,0,1-0.449,1-1s-0.449-1-1-1H7z"/>
	</g>
	<g>
		<path class="st4" d="M30,46.5H18c-0.552,0-1-0.448-1-1v-16c0-0.552,0.448-1,1-1h12c0.552,0,1,0.448,1,1v16
			C31,46.052,30.553,46.5,30,46.5z"/>
		<path class="st0" d="M30,47H18c-0.827,0-1.5-0.673-1.5-1.5v-16c0-0.827,0.673-1.5,1.5-1.5h12c0.827,0,1.5,0.673,1.5,1.5v16
			C31.5,46.327,30.827,47,30,47z M18,29c-0.276,0-0.5,0.224-0.5,0.5v16c0,0.276,0.224,0.5,0.5,0.5h12c0.276,0,0.5-0.224,0.5-0.5v-16
			c0-0.276-0.224-0.5-0.5-0.5H18z"/>
	</g>
	<g>
		<path class="st5" d="M51,48.5L51,48.5L51,48.5c0-2.761,2.239-5,5-5h0v0C56,46.261,53.762,48.5,51,48.5z"/>
		<path class="st0" d="M51,49c-0.276,0-0.5-0.224-0.5-0.5c0-3.033,2.467-5.5,5.5-5.5c0.276,0,0.5,0.224,0.5,0.5
			C56.5,46.533,54.033,49,51,49z M55.469,44.031c-2.058,0.243-3.695,1.88-3.938,3.938C53.589,47.726,55.226,46.089,55.469,44.031z"
			/>
	</g>
	<g>
		<path class="st5" d="M51,48.5L51,48.5L51,48.5c-2.761,0-5-2.239-5-5v0h0C48.762,43.5,51,45.739,51,48.5z"/>
		<path class="st0" d="M51,49c-3.033,0-5.5-2.467-5.5-5.5c0-0.276,0.224-0.5,0.5-0.5c3.033,0,5.5,2.467,5.5,5.5
			C51.5,48.776,51.276,49,51,49z M46.531,44.031c0.243,2.058,1.88,3.695,3.938,3.938C50.226,45.911,48.589,44.274,46.531,44.031z"/>
	</g>
	<g>
		<path class="st5" d="M51,53L51,53L51,53c0-3.314,2.686-6,6-6h0v0C57,50.314,54.314,53,51,53z"/>
		<path class="st0" d="M51,53.5c-0.276,0-0.5-0.224-0.5-0.5c0-3.584,2.916-6.5,6.5-6.5c0.276,0,0.5,0.224,0.5,0.5
			C57.5,50.584,54.584,53.5,51,53.5z M56.475,47.525c-2.615,0.249-4.702,2.335-4.95,4.95C54.14,52.227,56.227,50.14,56.475,47.525z"
			/>
	</g>
	<g>
		<path class="st5" d="M51,53L51,53L51,53c-3.314,0-6-2.686-6-6v0h0C48.314,47,51,49.686,51,53z"/>
		<path class="st0" d="M51,53.5c-3.584,0-6.5-2.916-6.5-6.5c0-0.276,0.224-0.5,0.5-0.5c3.584,0,6.5,2.916,6.5,6.5
			C51.5,53.276,51.276,53.5,51,53.5z M45.525,47.525c0.249,2.615,2.335,4.702,4.95,4.95C50.227,49.86,48.14,47.773,45.525,47.525z"
			/>
	</g>
	<g>
		<path class="st0" d="M51,12h-4c-0.276,0-0.5-0.224-0.5-0.5S46.724,11,47,11h4c0.276,0,0.5,0.224,0.5,0.5S51.276,12,51,12z"/>
	</g>
	<g>
		<path class="st0" d="M49,14c-0.276,0-0.5-0.224-0.5-0.5v-4C48.5,9.224,48.724,9,49,9s0.5,0.224,0.5,0.5v4
			C49.5,13.776,49.276,14,49,14z"/>
	</g>
	<g>
		<path class="st0" d="M46.5,6.5h-4C42.224,6.5,42,6.276,42,6s0.224-0.5,0.5-0.5h4C46.776,5.5,47,5.724,47,6S46.776,6.5,46.5,6.5z"
			/>
	</g>
	<g>
		<path class="st0" d="M44.5,8.5C44.224,8.5,44,8.276,44,8V4c0-0.276,0.224-0.5,0.5-0.5S45,3.724,45,4v4
			C45,8.276,44.776,8.5,44.5,8.5z"/>
	</g>
	<g>
		<path class="st0" d="M51,60.5c-2.926,0-5.568-1.07-6.978-2.808L22.46,58.555c-0.979,0.039-1.903-0.312-2.607-0.989
			C19.148,56.888,18.76,55.978,18.76,55c0-0.977,0.388-1.888,1.093-2.565c0.705-0.677,1.628-1.028,2.607-0.989l21.564,0.863
			c0.144-0.173,0.311-0.35,0.505-0.535c0.2-0.189,0.517-0.182,0.707,0.018c0.19,0.2,0.182,0.517-0.018,0.707
			c-0.232,0.221-0.414,0.422-0.555,0.615c-0.099,0.134-0.268,0.213-0.424,0.205l-21.82-0.873c-0.701-0.031-1.368,0.224-1.874,0.711
			C20.039,53.643,19.76,54.297,19.76,55s0.279,1.357,0.786,1.844c0.506,0.487,1.174,0.738,1.874,0.711l21.82-0.873
			c0.166-0.004,0.326,0.07,0.424,0.205C45.823,58.475,48.31,59.5,51,59.5c3.86,0,7-2.019,7-4.5c0-0.891-0.418-1.759-1.21-2.51
			c-0.201-0.19-0.209-0.506-0.019-0.707c0.19-0.201,0.506-0.209,0.707-0.019C58.474,52.708,59,53.828,59,55
			C59,58.033,55.411,60.5,51,60.5z"/>
	</g>
	<g>
		<path class="st0" d="M17.26,55.5H12c-3.033,0-5.5-2.467-5.5-5.5V22.5C6.5,22.224,6.724,22,7,22s0.5,0.224,0.5,0.5V50
			c0,2.481,2.019,4.5,4.5,4.5h5.26c0.276,0,0.5,0.224,0.5,0.5S17.536,55.5,17.26,55.5z"/>
	</g>
	<g>
		<path class="st0" d="M40.933,51.183c-0.022,0-0.045-0.001-0.068-0.004c-0.273-0.037-0.465-0.289-0.428-0.563l0.016-0.111
			c0.023-0.164,0.048-0.328,0.048-0.498V22.5c0-0.276,0.224-0.5,0.5-0.5s0.5,0.224,0.5,0.5v27.506c0,0.218-0.028,0.428-0.058,0.638
			l-0.015,0.106C41.394,51,41.179,51.183,40.933,51.183z"/>
	</g>
	<g>
		<path class="st0" d="M28,38h-8c-0.276,0-0.5-0.224-0.5-0.5S19.724,37,20,37h8c0.276,0,0.5,0.224,0.5,0.5S28.276,38,28,38z"/>
	</g>
	<g>
		<path class="st0" d="M28,35h-8c-0.276,0-0.5-0.224-0.5-0.5S19.724,34,20,34h8c0.276,0,0.5,0.224,0.5,0.5S28.276,35,28,35z"/>
	</g>
	<g>
		<path class="st0" d="M26,41h-4c-0.276,0-0.5-0.224-0.5-0.5S21.724,40,22,40h4c0.276,0,0.5,0.224,0.5,0.5S26.276,41,26,41z"/>
	</g>
	<g>
		<path class="st0" d="M55,35H45c-0.276,0-0.5-0.224-0.5-0.5S44.724,34,45,34h10c0.276,0,0.5,0.224,0.5,0.5S55.276,35,55,35z"/>
	</g>
	<g>
		<path class="st0" d="M58,35h-1c-0.276,0-0.5-0.224-0.5-0.5S56.724,34,57,34h1c0.276,0,0.5,0.224,0.5,0.5S58.276,35,58,35z"/>
	</g>
	<g>
		<path class="st0" d="M38,31c-0.276,0-0.5-0.224-0.5-0.5V26H33c-0.276,0-0.5-0.224-0.5-0.5S32.724,25,33,25h5
			c0.276,0,0.5,0.224,0.5,0.5v5C38.5,30.776,38.276,31,38,31z"/>
	</g>
</g>
</svg>
