<?xml version="1.0" encoding="utf-8"?>
<!-- Generator: Adobe Illustrator 22.0.0, SVG Export Plug-In . SVG Version: 6.00 Build 0)  -->
<svg version="1.1" id="Icon_Set" xmlns="http://www.w3.org/2000/svg" xmlns:xlink="http://www.w3.org/1999/xlink" x="0px" y="0px"
	 viewBox="0 0 64 64" style="enable-background:new 0 0 64 64;" xml:space="preserve">
<style type="text/css">
	.st0{fill:#263238;}
	.st1{fill:#FFD740;}
	.st2{fill:#40C4FF;}
	.st3{fill:#FF5252;}
	.st4{fill:#FFFFFF;}
	.st5{fill:#4DB6AC;}
	.st6{fill:#4FC3F7;}
</style>
<g>
	<g>
		<path class="st0" d="M38,13h-4c-0.276,0-0.5-0.224-0.5-0.5S33.724,12,34,12h4c0.276,0,0.5,0.224,0.5,0.5S38.276,13,38,13z"/>
	</g>
	<g>
		<path class="st0" d="M36,15c-0.276,0-0.5-0.224-0.5-0.5v-4c0-0.276,0.224-0.5,0.5-0.5s0.5,0.224,0.5,0.5v4
			C36.5,14.776,36.276,15,36,15z"/>
	</g>
	<g>
		<path class="st0" d="M32,8.5h-4c-0.276,0-0.5-0.224-0.5-0.5s0.224-0.5,0.5-0.5h4c0.276,0,0.5,0.224,0.5,0.5S32.276,8.5,32,8.5z"/>
	</g>
	<g>
		<path class="st0" d="M30,10.5c-0.276,0-0.5-0.224-0.5-0.5V6c0-0.276,0.224-0.5,0.5-0.5s0.5,0.224,0.5,0.5v4
			C30.5,10.276,30.276,10.5,30,10.5z"/>
	</g>
	<g>
		<path class="st0" d="M19.509,34.665c-4.136,0-7.5-3.364-7.5-7.5s3.364-7.5,7.5-7.5s7.5,3.364,7.5,7.5S23.645,34.665,19.509,34.665
			z M19.509,20.665c-3.584,0-6.5,2.916-6.5,6.5s2.916,6.5,6.5,6.5s6.5-2.916,6.5-6.5S23.093,20.665,19.509,20.665z"/>
	</g>
	<g>
		<path class="st1" d="M15.461,22.312l-0.434-0.522c-1.538,1.284-2.518,3.215-2.518,5.375c0,3.866,3.134,7,7,7v-0.661
			C19.508,29.415,18.076,25.455,15.461,22.312z"/>
		<path class="st0" d="M19.509,34.665c-4.136,0-7.5-3.364-7.5-7.5c0-2.229,0.983-4.328,2.697-5.759
			c0.102-0.085,0.235-0.121,0.365-0.114c0.132,0.012,0.254,0.076,0.339,0.178l0.435,0.521c0,0,0.001,0,0.001,0.001
			c2.685,3.227,4.163,7.315,4.163,11.513v0.66C20.009,34.441,19.785,34.665,19.509,34.665z M14.975,22.509
			c-1.255,1.222-1.966,2.893-1.966,4.656c0,3.416,2.648,6.225,6,6.481v-0.142c0-3.964-1.396-7.825-3.933-10.874L14.975,22.509z"/>
	</g>
	<g>
		<path class="st0" d="M31.006,54.666c-1.654,0-3-1.346-3-3v-17.5c0-0.276,0.224-0.5,0.5-0.5h5c0.276,0,0.5,0.224,0.5,0.5v17.5
			C34.006,53.32,32.66,54.666,31.006,54.666z M29.006,34.666v17c0,1.103,0.897,2,2,2s2-0.897,2-2v-17H29.006z"/>
	</g>
	<g>
		<path class="st0" d="M55.756,58.5c-1.98,0-3.622-1.548-3.738-3.524l-1.034-17.577L37.081,56.927
			c-0.7,0.985-1.841,1.573-3.05,1.573h-0.188c-1.124,0-2.175-0.494-2.882-1.354c-0.721-0.879-1.01-2.013-0.791-3.111
			c0.051-0.26,0.308-0.43,0.558-0.397c0.125,0.018,0.2,0.029,0.278,0.029c1.103,0,2-0.897,2-2v-2.38c0-0.096,0.027-0.19,0.08-0.271
			l9.658-14.997V20.165c0-0.276,0.224-0.5,0.5-0.5H49c5.79,0,10.5,4.71,10.5,10.5v24.59C59.5,56.82,57.82,58.5,55.756,58.5z
			 M51.399,35.452c0.046,0,0.093,0.006,0.138,0.02c0.204,0.059,0.349,0.239,0.361,0.451l1.117,18.994
			c0.085,1.448,1.289,2.583,2.74,2.583c1.513,0,2.744-1.231,2.744-2.745v-24.59c0-5.238-4.262-9.5-9.5-9.5h-5.256v13.501
			c0,0.096-0.027,0.19-0.08,0.271l-9.658,14.997v2.232c0,1.623-1.295,2.948-2.905,2.998c-0.022,0.662,0.198,1.316,0.634,1.847
			c0.523,0.638,1.272,0.989,2.108,0.989h0.188c0.886,0,1.722-0.431,2.235-1.153l14.726-20.685
			C51.088,35.528,51.24,35.452,51.399,35.452z"/>
	</g>
	<g>
		<path class="st2" d="M43.244,20.165H28.508l-1.503,4.002c2.265,1.358,2.266,4.64,0.001,5.999l-0.001,0.001l1.5,4l14.739-0.001
			V20.165z"/>
		<path class="st0" d="M43.244,34.666H28.506c-0.208,0-0.395-0.129-0.468-0.324l-1.5-3.999c-0.085-0.227,0.004-0.48,0.21-0.604
			c0.912-0.548,1.457-1.509,1.457-2.572c-0.001-1.062-0.545-2.023-1.456-2.57c-0.207-0.124-0.296-0.379-0.211-0.604l1.503-4.002
			c0.073-0.195,0.26-0.324,0.468-0.324h14.735c0.276,0,0.5,0.224,0.5,0.5v14.001C43.744,34.442,43.521,34.666,43.244,34.666z
			 M28.853,33.666h13.892V20.665H28.855l-1.243,3.308c1.004,0.752,1.593,1.918,1.593,3.193s-0.588,2.441-1.592,3.194L28.853,33.666z
			"/>
	</g>
	<g>
		<path class="st0" d="M37.351,20.664h-8.84c-0.099,0-0.195-0.029-0.277-0.084l-2.124-1.416H9.501c-1.654,0-3-1.346-3-3s1.346-3,3-3
			h16.76c1.088,0,2.144,0.319,3.051,0.924l8.37,5.58c0.11,0.073,0.188,0.188,0.213,0.318c0.026,0.131-0.001,0.266-0.075,0.376
			C37.727,20.501,37.518,20.664,37.351,20.664z M28.662,19.664h7.211l-7.116-4.744c-0.742-0.494-1.605-0.756-2.496-0.756H9.501
			c-1.103,0-2,0.897-2,2s0.897,2,2,2h16.76c0.099,0,0.195,0.029,0.277,0.084L28.662,19.664z"/>
	</g>
	<g>
		<path class="st2" d="M49,20.165h-5.756v14.001l-9.739,15.12V51h7.181l10.712-15.048L52.285,51H59V34.166v-4.001
			C59,24.642,54.523,20.165,49,20.165z"/>
		<path class="st0" d="M59,51.5h-6.716c-0.265,0-0.483-0.206-0.499-0.471l-0.802-13.631L41.095,51.29
			c-0.094,0.132-0.245,0.21-0.407,0.21h-7.182c-0.276,0-0.5-0.224-0.5-0.5v-1.714c0-0.096,0.027-0.19,0.08-0.271l9.658-14.997
			V20.165c0-0.276,0.224-0.5,0.5-0.5H49c5.79,0,10.5,4.71,10.5,10.5V51C59.5,51.276,59.276,51.5,59,51.5z M52.756,50.5H58.5V30.165
			c0-5.238-4.262-9.5-9.5-9.5h-5.256v13.501c0,0.096-0.027,0.19-0.08,0.271l-9.658,14.997V50.5h6.424l10.562-14.838
			c0.123-0.172,0.345-0.251,0.545-0.19c0.204,0.059,0.349,0.239,0.361,0.451L52.756,50.5z"/>
	</g>
	<g>
		<path class="st0" d="M7,58.5H5c-0.276,0-0.5-0.224-0.5-0.5s0.224-0.5,0.5-0.5h2c0.276,0,0.5,0.224,0.5,0.5S7.276,58.5,7,58.5z"/>
	</g>
	<g>
		<path class="st0" d="M25.5,58.5H9c-0.276,0-0.5-0.224-0.5-0.5s0.224-0.5,0.5-0.5h16.5c0.276,0,0.5,0.224,0.5,0.5
			S25.776,58.5,25.5,58.5z"/>
	</g>
</g>
</svg>
