<?xml version="1.0" encoding="utf-8"?>
<!-- Generator: Adobe Illustrator 22.0.0, SVG Export Plug-In . SVG Version: 6.00 Build 0)  -->
<svg version="1.1" id="Icon_Set" xmlns="http://www.w3.org/2000/svg" xmlns:xlink="http://www.w3.org/1999/xlink" x="0px" y="0px"
	 viewBox="0 0 64 64" style="enable-background:new 0 0 64 64;" xml:space="preserve">
<style type="text/css">
	.st0{fill:#263238;}
	.st1{fill:#FFD740;}
	.st2{fill:#40C4FF;}
	.st3{fill:#FF5252;}
	.st4{fill:#FFFFFF;}
	.st5{fill:#4DB6AC;}
	.st6{fill:#4FC3F7;}
</style>
<g>
	<g>
		<circle class="st1" cx="32" cy="29.5" r="10"/>
	</g>
	<g>
		<path class="st0" d="M43,63.5H21c-3.032,0-5.5-2.467-5.5-5.5V13c0-3.033,2.468-5.5,5.5-5.5h22c3.032,0,5.5,2.467,5.5,5.5v45
			C48.5,61.032,46.032,63.5,43,63.5z M21,8.5c-2.481,0-4.5,2.019-4.5,4.5v45c0,2.481,2.019,4.5,4.5,4.5h22
			c2.481,0,4.5-2.019,4.5-4.5V13c0-2.481-2.019-4.5-4.5-4.5H21z"/>
	</g>
	<g>
		<path class="st0" d="M20.5,3.5h-4C16.224,3.5,16,3.276,16,3s0.224-0.5,0.5-0.5h4C20.776,2.5,21,2.723,21,3S20.776,3.5,20.5,3.5z"
			/>
	</g>
	<g>
		<path class="st0" d="M18.5,5.5C18.224,5.5,18,5.276,18,5V1c0-0.276,0.224-0.5,0.5-0.5S19,0.723,19,1v4
			C19,5.276,18.776,5.5,18.5,5.5z"/>
	</g>
	<g>
		<path class="st0" d="M15,8h-4c-0.276,0-0.5-0.224-0.5-0.5S10.724,7,11,7h4c0.276,0,0.5,0.224,0.5,0.5S15.276,8,15,8z"/>
	</g>
	<g>
		<path class="st0" d="M13,10c-0.276,0-0.5-0.224-0.5-0.5v-4C12.5,5.223,12.724,5,13,5s0.5,0.224,0.5,0.5v4
			C13.5,9.776,13.276,10,13,10z"/>
	</g>
	<g>
		<path class="st0" d="M48,13.5H16c-0.276,0-0.5-0.224-0.5-0.5s0.224-0.5,0.5-0.5h32c0.276,0,0.5,0.224,0.5,0.5S48.276,13.5,48,13.5
			z"/>
	</g>
	<g>
		<path class="st0" d="M48,58.5H16c-0.276,0-0.5-0.224-0.5-0.5s0.224-0.5,0.5-0.5h32c0.276,0,0.5,0.224,0.5,0.5S48.276,58.5,48,58.5
			z"/>
	</g>
	<g>
		<path class="st0" d="M32,63.5c-1.653,0-2.999-1.346-2.999-3s1.346-3,2.999-3c1.654,0,3,1.346,3,3S33.654,63.5,32,63.5z M32,58.5
			c-1.103,0-1.999,0.897-1.999,2s0.896,2,1.999,2s2-0.897,2-2S33.103,58.5,32,58.5z"/>
	</g>
	<g>
		<path class="st0" d="M34.5,11h-4.999c-0.276,0-0.5-0.224-0.5-0.5s0.224-0.5,0.5-0.5H34.5c0.276,0,0.5,0.224,0.5,0.5
			S34.776,11,34.5,11z"/>
	</g>
	<g>
		<path class="st0" d="M11,32.5c-0.276,0-0.5-0.224-0.5-0.5V18c0-0.276,0.224-0.5,0.5-0.5s0.5,0.224,0.5,0.5v14
			C11.5,32.276,11.276,32.5,11,32.5z"/>
	</g>
	<g>
		<path class="st0" d="M11,36.5c-0.276,0-0.5-0.224-0.5-0.5v-2c0-0.276,0.224-0.5,0.5-0.5s0.5,0.224,0.5,0.5v2
			C11.5,36.276,11.276,36.5,11,36.5z"/>
	</g>
	<g>
		<path class="st0" d="M53,53.5c-0.276,0-0.5-0.224-0.5-0.5V39c0-0.276,0.224-0.5,0.5-0.5s0.5,0.224,0.5,0.5v14
			C53.5,53.276,53.276,53.5,53,53.5z"/>
	</g>
	<g>
		<path class="st0" d="M53,37.5c-0.276,0-0.5-0.224-0.5-0.5v-2c0-0.276,0.224-0.5,0.5-0.5s0.5,0.224,0.5,0.5v2
			C53.5,37.276,53.276,37.5,53,37.5z"/>
	</g>
	<g>
		<path class="st0" d="M32,34c-2.481,0-4.5-2.019-4.5-4.5S29.519,25,32,25s4.5,2.019,4.5,4.5S34.481,34,32,34z M32,26
			c-1.93,0-3.5,1.57-3.5,3.5S30.07,33,32,33s3.5-1.57,3.5-3.5S33.93,26,32,26z"/>
	</g>
	<g>
		<path class="st0" d="M36,46h-8c-0.276,0-0.5-0.224-0.5-0.5v-5.672l-1.586,1.586C25.536,41.792,25.034,42,24.5,42H20
			c-1.103,0-2-0.897-2-2s0.897-2,2-2h3.672l4.414-4.414C28.464,33.208,28.966,33,29.5,33h5c0.534,0,1.036,0.208,1.414,0.586
			L40.328,38H44c1.103,0,2,0.897,2,2s-0.897,2-2,2h-4.5c-0.526,0-1.042-0.213-1.414-0.586L36.5,39.828V45.5
			C36.5,45.776,36.276,46,36,46z M28.5,45h7v-6.378c0-0.202,0.122-0.385,0.309-0.462c0.187-0.078,0.402-0.034,0.545,0.108
			l2.439,2.439C38.979,40.893,39.237,41,39.5,41H44c0.552,0,1-0.449,1-1s-0.448-1-1-1h-3.879c-0.133,0-0.26-0.053-0.354-0.146
			l-4.561-4.561C35.018,34.104,34.767,34,34.5,34h-5c-0.267,0-0.518,0.104-0.707,0.293l-4.561,4.561
			C24.139,38.947,24.012,39,23.879,39H20c-0.552,0-1,0.449-1,1s0.448,1,1,1h4.5c0.267,0,0.518-0.104,0.707-0.293l2.439-2.439
			c0.144-0.144,0.359-0.186,0.545-0.108c0.187,0.077,0.309,0.26,0.309,0.462V45z"/>
	</g>
	<g>
		<path class="st2" d="M39.01,50.902l-6.029-1.206c-0.647-0.129-1.314-0.129-1.961,0l-6.029,1.206C23.443,51.211,22,50.028,22,48.45
			V48c0-1.381,1.119-2.5,2.5-2.5h15c1.381,0,2.5,1.119,2.5,2.5v0.45C42,50.028,40.557,51.211,39.01,50.902z"/>
		<path class="st0" d="M39.504,51.451c-0.197,0-0.396-0.019-0.592-0.059l0,0l-6.029-1.206c-0.586-0.117-1.18-0.117-1.766,0
			l-6.029,1.206c-0.879,0.178-1.791-0.049-2.49-0.622C21.9,50.198,21.5,49.353,21.5,48.45V48c0-1.654,1.346-3,3-3h15
			c1.654,0,3,1.346,3,3v0.451c0,0.902-0.4,1.748-1.098,2.32C40.859,51.215,40.19,51.451,39.504,51.451z M39.107,50.412
			c0.594,0.118,1.195-0.033,1.661-0.415c0.465-0.381,0.731-0.945,0.731-1.546V48c0-1.103-0.897-2-2-2h-15c-1.103,0-2,0.897-2,2
			v0.451c0,0.602,0.267,1.165,0.731,1.546c0.466,0.382,1.066,0.533,1.661,0.415l6.029-1.206c0.715-0.144,1.441-0.144,2.156,0
			L39.107,50.412z"/>
	</g>
	<g>
		<path class="st2" d="M35.561,33.939C35.268,33.646,34.884,33.5,34.5,33.5h-5c-0.384,0-0.768,0.146-1.061,0.439L28,34.378V45.5h8
			V34.379L35.561,33.939z"/>
		<path class="st0" d="M36,46h-8c-0.276,0-0.5-0.224-0.5-0.5V34.378c0-0.133,0.053-0.26,0.146-0.354l0.439-0.439
			C28.464,33.208,28.966,33,29.5,33h5c0.534,0,1.036,0.208,1.414,0.586l0.439,0.439c0.094,0.094,0.146,0.221,0.146,0.354V45.5
			C36.5,45.776,36.276,46,36,46z M28.5,45h7V34.585l-0.293-0.293C35.018,34.104,34.767,34,34.5,34h-5
			c-0.267,0-0.518,0.104-0.707,0.293L28.5,34.585V45z"/>
	</g>
	<g>
		<path class="st0" d="M45,21.5c-0.276,0-0.5-0.224-0.5-0.5v-4.5H40c-0.276,0-0.5-0.224-0.5-0.5s0.224-0.5,0.5-0.5h5
			c0.276,0,0.5,0.224,0.5,0.5v5C45.5,21.276,45.276,21.5,45,21.5z"/>
	</g>
</g>
</svg>
