<?xml version="1.0" encoding="utf-8"?>
<!-- Generator: Adobe Illustrator 22.0.0, SVG Export Plug-In . SVG Version: 6.00 Build 0)  -->
<svg version="1.1" id="Icon_Set" xmlns="http://www.w3.org/2000/svg" xmlns:xlink="http://www.w3.org/1999/xlink" x="0px" y="0px"
	 viewBox="0 0 64 64" style="enable-background:new 0 0 64 64;" xml:space="preserve">
<style type="text/css">
	.st0{fill:#263238;}
	.st1{fill:#FFD740;}
	.st2{fill:#40C4FF;}
	.st3{fill:#FF5252;}
	.st4{fill:#FFFFFF;}
	.st5{fill:#4DB6AC;}
	.st6{fill:#4FC3F7;}
</style>
<g>
	<g>
		<path class="st1" d="M46,53H8c-1.381,0-2.5-1.119-2.5-2.5v-30C5.5,19.119,6.619,18,8,18h38c1.381,0,2.5,1.119,2.5,2.5v30
			C48.5,51.881,47.381,53,46,53z"/>
		<path class="st0" d="M46,53.5H8c-1.654,0-3-1.346-3-3v-30c0-1.654,1.346-3,3-3h38c1.654,0,3,1.346,3,3v30
			C49,52.154,47.654,53.5,46,53.5z M8,18.5c-1.103,0-2,0.897-2,2v30c0,1.103,0.897,2,2,2h38c1.103,0,2-0.897,2-2v-30
			c0-1.103-0.897-2-2-2H8z"/>
	</g>
	<g>
		<path class="st0" d="M56,53.5H46c-0.276,0-0.5-0.224-0.5-0.5s0.224-0.5,0.5-0.5c1.103,0,2-0.897,2-2v-30c0-1.103-0.897-2-2-2
			c-0.276,0-0.5-0.224-0.5-0.5s0.224-0.5,0.5-0.5h10c1.654,0,3,1.346,3,3v30C59,52.154,57.654,53.5,56,53.5z M48.234,52.5H56
			c1.103,0,2-0.897,2-2v-30c0-1.103-0.897-2-2-2h-7.766C48.71,19.031,49,19.732,49,20.5v30C49,51.268,48.71,51.969,48.234,52.5z"/>
	</g>
	<g>
		<path class="st0" d="M53.5,53.5c-0.276,0-0.5-0.224-0.5-0.5V18c0-0.276,0.224-0.5,0.5-0.5S54,17.724,54,18v35
			C54,53.276,53.776,53.5,53.5,53.5z"/>
	</g>
	<g>
		<path class="st0" d="M27,41.031h-1c-3.033,0-5.5-2.467-5.5-5.5v-1c0-0.276,0.224-0.5,0.5-0.5h1c3.033,0,5.5,2.467,5.5,5.5v1
			C27.5,40.807,27.276,41.031,27,41.031z M21.5,35.031v0.5c0,2.481,2.019,4.5,4.5,4.5h0.5v-0.5c0-2.481-2.019-4.5-4.5-4.5H21.5z"/>
	</g>
	<g>
		<path class="st0" d="M28,41.031h-1c-0.276,0-0.5-0.224-0.5-0.5v-1c0-3.033,2.467-5.5,5.5-5.5h1c0.276,0,0.5,0.224,0.5,0.5v1
			C33.5,38.563,31.033,41.031,28,41.031z M27.5,40.031H28c2.481,0,4.5-2.019,4.5-4.5v-0.5H32c-2.481,0-4.5,2.019-4.5,4.5V40.031z"/>
	</g>
	<g>
		<path class="st0" d="M27,40.031c-0.276,0-0.5-0.224-0.5-0.5c0-1.671-0.935-3.195-2.441-3.977
			c-0.179-0.093-0.285-0.285-0.268-0.486c0.235-2.772,2.801-4.897,2.91-4.986c0.185-0.15,0.448-0.15,0.633,0
			c0.108,0.088,2.662,2.203,2.909,4.965c0.018,0.203-0.089,0.397-0.271,0.49c-1.525,0.777-2.472,2.308-2.472,3.994
			C27.5,39.807,27.276,40.031,27,40.031z M24.827,34.838c0.968,0.582,1.716,1.426,2.172,2.412c0.461-0.998,1.222-1.851,2.207-2.433
			c-0.286-1.672-1.58-3.088-2.188-3.673C26.408,31.732,25.105,33.157,24.827,34.838z"/>
	</g>
	<g>
		<path class="st0" d="M55,57.5h-2c-0.276,0-0.5-0.224-0.5-0.5s0.224-0.5,0.5-0.5h2c0.276,0,0.5,0.224,0.5,0.5S55.276,57.5,55,57.5z
			"/>
	</g>
	<g>
		<path class="st0" d="M51,57.5H31c-0.276,0-0.5-0.224-0.5-0.5s0.224-0.5,0.5-0.5h20c0.276,0,0.5,0.224,0.5,0.5S51.276,57.5,51,57.5
			z"/>
	</g>
	<g>
		<path class="st0" d="M4,14.5H2c-0.276,0-0.5-0.224-0.5-0.5s0.224-0.5,0.5-0.5h2c0.276,0,0.5,0.224,0.5,0.5S4.276,14.5,4,14.5z"/>
	</g>
	<g>
		<path class="st0" d="M26,14.5H6c-0.276,0-0.5-0.224-0.5-0.5s0.224-0.5,0.5-0.5h20c0.276,0,0.5,0.224,0.5,0.5S26.276,14.5,26,14.5z
			"/>
	</g>
	<g>
		<path class="st0" d="M62,14.5h-4c-0.276,0-0.5-0.224-0.5-0.5s0.224-0.5,0.5-0.5h4c0.276,0,0.5,0.224,0.5,0.5S62.276,14.5,62,14.5z
			"/>
	</g>
	<g>
		<path class="st0" d="M60,16.5c-0.276,0-0.5-0.224-0.5-0.5v-4c0-0.276,0.224-0.5,0.5-0.5s0.5,0.224,0.5,0.5v4
			C60.5,16.276,60.276,16.5,60,16.5z"/>
	</g>
	<g>
		<path class="st0" d="M56,9.5h-4c-0.276,0-0.5-0.224-0.5-0.5s0.224-0.5,0.5-0.5h4c0.276,0,0.5,0.224,0.5,0.5S56.276,9.5,56,9.5z"/>
	</g>
	<g>
		<path class="st0" d="M54,11.5c-0.276,0-0.5-0.224-0.5-0.5V7c0-0.276,0.224-0.5,0.5-0.5s0.5,0.224,0.5,0.5v4
			C54.5,11.276,54.276,11.5,54,11.5z"/>
	</g>
	<g>
		<path class="st0" d="M45.5,26.5c-0.276,0-0.5-0.224-0.5-0.5v-4c0-0.276-0.224-0.5-0.5-0.5h-4c-0.276,0-0.5-0.224-0.5-0.5
			s0.224-0.5,0.5-0.5h4c0.827,0,1.5,0.673,1.5,1.5v4C46,26.276,45.776,26.5,45.5,26.5z"/>
	</g>
</g>
</svg>
