<?xml version="1.0" encoding="utf-8"?>
<!-- Generator: Adobe Illustrator 22.0.0, SVG Export Plug-In . SVG Version: 6.00 Build 0)  -->
<svg version="1.1" id="Icon_Set" xmlns="http://www.w3.org/2000/svg" xmlns:xlink="http://www.w3.org/1999/xlink" x="0px" y="0px"
	 viewBox="0 0 64 64" style="enable-background:new 0 0 64 64;" xml:space="preserve">
<style type="text/css">
	.st0{fill:#263238;}
	.st1{fill:#FFD740;}
	.st2{fill:#40C4FF;}
	.st3{fill:#FF5252;}
	.st4{fill:#FFFFFF;}
	.st5{fill:#4DB6AC;}
	.st6{fill:#4FC3F7;}
</style>
<g>
	<g>
		<path class="st2" d="M22.999,45.76L32,46.799l9-1.039l0-7.864h6v-5.748c0-2.103-1.315-3.98-3.291-4.699L36,24.646
			c-1.593,3.385-6.408,3.385-8.001,0h0l-7.709,2.803c-1.976,0.719-3.291,2.596-3.291,4.699v5.748h6V45.76z"/>
	</g>
	<g>
		<path class="st0" d="M32,27.685c-1.926,0-3.633-1.083-4.453-2.826c-0.118-0.25-0.011-0.548,0.239-0.665
			c0.25-0.119,0.547-0.011,0.665,0.239c0.654,1.389,2.014,2.251,3.549,2.251s2.895-0.863,3.548-2.251
			c0.117-0.25,0.418-0.356,0.665-0.24c0.25,0.118,0.357,0.416,0.239,0.666C35.632,26.602,33.926,27.685,32,27.685z"/>
	</g>
	<g>
		<path class="st0" d="M32,24.146c-4.659,0-8.734-3.063-10.053-7.5c-1.63-0.028-2.947-1.363-2.947-3s1.317-2.971,2.947-3
			c1.319-4.438,5.394-7.5,10.053-7.5s8.733,3.063,10.053,7.5c1.63,0.028,2.947,1.363,2.947,3s-1.317,2.971-2.947,3
			C40.733,21.083,36.659,24.146,32,24.146z M22.259,15.622c0.234,0,0.488,0.145,0.544,0.368c1.072,4.213,4.854,7.155,9.196,7.155
			s8.125-2.942,9.196-7.155c0.062-0.245,0.287-0.406,0.549-0.373c0.131,0.018,0.191,0.028,0.255,0.028c1.103,0,2-0.897,2-2
			s-0.897-2-2-2c-0.063,0-0.124,0.01-0.185,0.019c-0.259,0.035-0.557-0.117-0.619-0.363C40.125,7.088,36.343,4.146,32,4.146
			s-8.125,2.942-9.196,7.155c-0.062,0.245-0.301,0.402-0.549,0.373c-0.131-0.018-0.192-0.028-0.255-0.028c-1.103,0-2,0.897-2,2
			s0.897,2,2,2c0.063,0,0.124-0.01,0.185-0.019C22.209,15.624,22.234,15.622,22.259,15.622z"/>
	</g>
	<g>
		<path class="st0" d="M32,19.146c-1.469,0-2.851-0.572-3.889-1.611c-0.195-0.195-0.195-0.512,0-0.707s0.512-0.195,0.707,0
			c0.85,0.85,1.98,1.318,3.182,1.318s2.332-0.468,3.182-1.318c0.195-0.195,0.512-0.195,0.707,0s0.195,0.512,0,0.707
			C34.851,18.574,33.469,19.146,32,19.146z"/>
	</g>
	<g>
		<path class="st1" d="M32.001,3.646L32.001,3.646c-5.523,0-10,4.477-10,10l5.955-5l1.265,1.14c2.756,2.485,6.334,3.86,10.045,3.86
			h2.736C42.001,8.123,37.524,3.646,32.001,3.646z"/>
		<path class="st0" d="M22.001,14.146c-0.072,0-0.144-0.015-0.211-0.047c-0.176-0.082-0.289-0.259-0.289-0.453
			c0-5.79,4.71-10.5,10.5-10.5h0c5.79,0,10.5,4.71,10.5,10.5c0,0.276-0.224,0.5-0.5,0.5h-2.736c-3.841,0-7.527-1.417-10.379-3.988
			l-0.942-0.85l-5.621,4.72C22.23,14.105,22.116,14.146,22.001,14.146z M27.955,8.146c0.12,0,0.24,0.043,0.335,0.128l1.265,1.141
			c2.668,2.406,6.117,3.731,9.709,3.731h2.224c-0.262-5.007-4.417-9-9.487-9c-4.856,0-8.874,3.663-9.433,8.371l5.065-4.254
			C27.727,8.185,27.841,8.146,27.955,8.146z"/>
	</g>
	<g>
		<path class="st0" d="M63,35.049h-2c-0.276,0-0.5-0.224-0.5-0.5s0.224-0.5,0.5-0.5h2c0.276,0,0.5,0.224,0.5,0.5
			S63.276,35.049,63,35.049z"/>
	</g>
	<g>
		<path class="st0" d="M59,35.049h-7.5c-0.276,0-0.5-0.224-0.5-0.5s0.224-0.5,0.5-0.5H59c0.276,0,0.5,0.224,0.5,0.5
			S59.276,35.049,59,35.049z"/>
	</g>
	<g>
		<path class="st0" d="M3,35.049H1c-0.276,0-0.5-0.224-0.5-0.5s0.224-0.5,0.5-0.5h2c0.276,0,0.5,0.224,0.5,0.5
			S3.276,35.049,3,35.049z"/>
	</g>
	<g>
		<path class="st0" d="M12.5,35.049H5c-0.276,0-0.5-0.224-0.5-0.5s0.224-0.5,0.5-0.5h7.5c0.276,0,0.5,0.224,0.5,0.5
			S12.776,35.049,12.5,35.049z"/>
	</g>
	<g>
		<path class="st0" d="M10.773,49.242c-1.371,0-2.675-0.811-3.235-2.153c-0.36-0.863-0.362-1.814-0.006-2.679
			s1.027-1.539,1.89-1.898l7.077-2.949v-7.414c0-2.304,1.455-4.381,3.62-5.169l7.38-2.684v-1.488c0-0.276,0.224-0.5,0.5-0.5
			s0.5,0.224,0.5,0.5v1.838c0,0.21-0.131,0.398-0.329,0.47l-7.709,2.803c-1.771,0.645-2.962,2.344-2.962,4.229v7.748
			c0,0.202-0.122,0.384-0.308,0.461l-7.385,3.077c-0.617,0.257-1.096,0.738-1.35,1.356c-0.254,0.618-0.253,1.297,0.004,1.914
			c0.53,1.272,1.998,1.876,3.269,1.346l10.77-4.487V32.896c0-0.276,0.224-0.5,0.5-0.5s0.5,0.224,0.5,0.5v11
			c0,0.202-0.122,0.384-0.308,0.461l-11.077,4.615C11.676,49.155,11.221,49.242,10.773,49.242z"/>
	</g>
	<g>
		<path class="st0" d="M53.226,49.242c-0.447,0-0.902-0.086-1.341-0.269l-11.077-4.615c-0.187-0.078-0.308-0.26-0.308-0.461V32.753
			c0-0.276,0.224-0.5,0.5-0.5s0.5,0.224,0.5,0.5v10.81l10.77,4.487c1.271,0.528,2.738-0.073,3.269-1.346
			c0.258-0.617,0.259-1.296,0.005-1.914s-0.733-1.099-1.351-1.356l-7.385-3.077c-0.187-0.078-0.308-0.26-0.308-0.461v-7.748
			c0-1.885-1.19-3.585-2.962-4.229l-2.631-0.957c-0.26-0.094-0.394-0.381-0.299-0.641c0.094-0.259,0.381-0.393,0.641-0.299
			l2.631,0.957c2.165,0.788,3.62,2.865,3.62,5.169v7.414l7.077,2.949c0.863,0.359,1.535,1.034,1.891,1.898
			c0.355,0.864,0.354,1.816-0.006,2.679C55.901,48.431,54.597,49.242,53.226,49.242z"/>
	</g>
	<g>
		<path class="st0" d="M22.999,46.26c-0.276,0-0.5-0.224-0.5-0.5v-1.864c0-0.276,0.224-0.5,0.5-0.5s0.5,0.224,0.5,0.5v1.864
			C23.499,46.036,23.275,46.26,22.999,46.26z"/>
	</g>
	<g>
		<path class="st0" d="M41,46.26c-0.276,0-0.5-0.224-0.5-0.5v-1.864c0-0.276,0.224-0.5,0.5-0.5s0.5,0.224,0.5,0.5v1.864
			C41.5,46.036,41.276,46.26,41,46.26z"/>
	</g>
	<g>
		<path class="st0" d="M32,41.199c-0.187,0-0.359-0.104-0.444-0.271l-7.5-14.553c-0.126-0.246-0.03-0.547,0.215-0.673
			c0.245-0.127,0.546-0.031,0.673,0.215L32,39.608l5.629-10.921c0.127-0.246,0.43-0.343,0.674-0.215
			c0.245,0.126,0.342,0.428,0.215,0.673l-6.074,11.784C32.358,41.095,32.187,41.199,32,41.199z"/>
	</g>
	<g>
		<circle class="st4" cx="32.001" cy="40.699" r="2"/>
		<path class="st0" d="M32.001,43.199c-1.378,0-2.5-1.122-2.5-2.5s1.122-2.5,2.5-2.5c1.379,0,2.5,1.122,2.5,2.5
			S33.38,43.199,32.001,43.199z M32.001,39.199c-0.827,0-1.5,0.673-1.5,1.5s0.673,1.5,1.5,1.5s1.5-0.673,1.5-1.5
			S32.828,39.199,32.001,39.199z"/>
	</g>
	<g>
		<circle class="st4" cx="28.001" cy="33.199" r="1.5"/>
		<path class="st0" d="M28.001,35.199c-1.103,0-2-0.897-2-2s0.897-2,2-2s2,0.897,2,2S29.104,35.199,28.001,35.199z M28.001,32.199
			c-0.551,0-1,0.449-1,1s0.449,1,1,1s1-0.449,1-1S28.552,32.199,28.001,32.199z"/>
	</g>
	<g>
		<circle class="st4" cx="36.001" cy="33.199" r="1.5"/>
		<path class="st0" d="M36.001,35.199c-1.103,0-2-0.897-2-2s0.897-2,2-2s2,0.897,2,2S37.104,35.199,36.001,35.199z M36.001,32.199
			c-0.552,0-1,0.449-1,1s0.448,1,1,1s1-0.449,1-1S36.553,32.199,36.001,32.199z"/>
	</g>
	<g>
		<path class="st0" d="M22.999,38.396h-6c-0.276,0-0.5-0.224-0.5-0.5s0.224-0.5,0.5-0.5h6c0.276,0,0.5,0.224,0.5,0.5
			S23.275,38.396,22.999,38.396z"/>
	</g>
	<g>
		<path class="st0" d="M47,38.396h-6c-0.276,0-0.5-0.224-0.5-0.5s0.224-0.5,0.5-0.5h6c0.276,0,0.5,0.224,0.5,0.5
			S47.276,38.396,47,38.396z"/>
	</g>
	<g>
		<path class="st0" d="M12.788,61.145c-1.231,0-2.43-0.43-3.391-1.234C8.191,58.903,7.5,57.423,7.5,55.852
			c0-2.689,2.015-4.95,4.686-5.257l30.488-3.518c2.211-0.255,4.233,1.184,4.721,3.345c0.069,0.31,0.105,0.632,0.105,0.956
			c0,2.099-1.499,3.891-3.565,4.261l-30.207,5.422C13.415,61.117,13.1,61.145,12.788,61.145z M43.177,48.047
			c-0.128,0-0.258,0.007-0.388,0.022L12.3,51.588c-2.167,0.25-3.8,2.083-3.8,4.264c0,1.274,0.561,2.474,1.538,3.292
			c0.978,0.818,2.259,1.158,3.513,0.933l30.208-5.422l0,0c1.588-0.285,2.741-1.663,2.741-3.277c0-0.25-0.027-0.498-0.081-0.736
			C46.073,49.107,44.717,48.047,43.177,48.047z"/>
	</g>
	<g>
		<path class="st2" d="M51.757,51.091l-4.851-0.56C46.967,50.803,47,51.086,47,51.377c0,1.854-1.328,3.442-3.153,3.769L32,57.273
			l0,0l18.361,3.296C53.299,61.096,56,58.837,56,55.852C56,53.418,54.175,51.37,51.757,51.091z"/>
		<path class="st0" d="M51.213,61.145c-0.312,0-0.627-0.028-0.939-0.084l-18.362-3.296c-0.238-0.043-0.412-0.25-0.412-0.492
			s0.173-0.449,0.412-0.492l11.847-2.126c1.588-0.285,2.741-1.663,2.741-3.277c0-0.25-0.027-0.497-0.081-0.735
			c-0.036-0.158,0.007-0.324,0.115-0.444s0.263-0.185,0.43-0.163l4.851,0.56c2.671,0.308,4.686,2.568,4.686,5.257
			c0,1.571-0.691,3.051-1.896,4.059C53.642,60.715,52.443,61.145,51.213,61.145z M34.83,57.273l15.619,2.804
			c1.256,0.226,2.535-0.115,3.513-0.933c0.978-0.817,1.538-2.018,1.538-3.292c0-2.181-1.634-4.014-3.801-4.264l0,0l-4.208-0.485
			c0.006,0.091,0.009,0.183,0.009,0.275c0,2.099-1.499,3.891-3.565,4.261L34.83,57.273z"/>
	</g>
	<g>
		<path class="st0" d="M17.094,51.032c-0.141,0-0.276-0.06-0.372-0.166c-0.108-0.121-0.151-0.286-0.116-0.444
			c0.486-2.162,2.522-3.595,4.72-3.345l10.731,1.238c0.252,0.029,0.443,0.243,0.443,0.497s-0.19,0.468-0.443,0.497l-14.906,1.72
			C17.132,51.031,17.113,51.032,17.094,51.032z M20.823,48.047c-1.294,0-2.458,0.748-3.001,1.896l9.816-1.132l-6.426-0.742
			C21.081,48.055,20.951,48.047,20.823,48.047z"/>
	</g>
	<g>
		<path class="st2" d="M41,47.773l-28.757,3.318C9.825,51.37,8,53.418,8,55.852c0,2.985,2.7,5.244,5.639,4.717L32,57.273L41,55.658
			V47.773z"/>
		<path class="st0" d="M12.788,61.145c-1.231,0-2.43-0.43-3.391-1.234C8.191,58.903,7.5,57.423,7.5,55.852
			c0-2.689,2.015-4.95,4.686-5.257l28.756-3.318c0.146-0.02,0.283,0.028,0.391,0.124c0.106,0.095,0.167,0.23,0.167,0.373v7.885
			c0,0.242-0.174,0.449-0.412,0.492l-27.361,4.911C13.414,61.117,13.1,61.145,12.788,61.145z M40.5,48.334l-28.2,3.254
			c-2.167,0.25-3.8,2.083-3.8,4.264c0,1.274,0.561,2.475,1.538,3.292c0.978,0.818,2.259,1.158,3.512,0.933l26.95-4.837V48.334z"/>
	</g>
	<g>
		<path class="st1" d="M36,22.808v6.305h0.68c2.761,0,5-2.239,5-5v-8C40.932,19.056,38.703,21.558,36,22.808z"/>
		<path class="st0" d="M36.681,29.613H36c-0.276,0-0.5-0.224-0.5-0.5v-6.305c0-0.195,0.113-0.372,0.29-0.454
			c2.646-1.225,4.719-3.664,5.406-6.365c0.062-0.244,0.286-0.406,0.547-0.373c0.25,0.031,0.438,0.244,0.438,0.496v8
			C42.181,27.146,39.713,29.613,36.681,29.613z M36.5,28.613h0.181c2.481,0,4.5-2.019,4.5-4.5v-5.447
			c-1.06,1.875-2.715,3.473-4.681,4.456V28.613z"/>
	</g>
	<g>
		<path class="st0" d="M53.5,21.146h-4c-0.276,0-0.5-0.224-0.5-0.5s0.224-0.5,0.5-0.5h4c0.276,0,0.5,0.224,0.5,0.5
			S53.776,21.146,53.5,21.146z"/>
	</g>
	<g>
		<path class="st0" d="M51.5,23.146c-0.276,0-0.5-0.224-0.5-0.5v-4c0-0.276,0.224-0.5,0.5-0.5s0.5,0.224,0.5,0.5v4
			C52,22.922,51.776,23.146,51.5,23.146z"/>
	</g>
	<g>
		<path class="st0" d="M59.5,16.146h-4c-0.276,0-0.5-0.224-0.5-0.5s0.224-0.5,0.5-0.5h4c0.276,0,0.5,0.224,0.5,0.5
			S59.776,16.146,59.5,16.146z"/>
	</g>
	<g>
		<path class="st0" d="M57.5,18.146c-0.276,0-0.5-0.224-0.5-0.5v-4c0-0.276,0.224-0.5,0.5-0.5s0.5,0.224,0.5,0.5v4
			C58,17.922,57.776,18.146,57.5,18.146z"/>
	</g>
</g>
</svg>
