<?xml version="1.0" encoding="utf-8"?>
<!-- Generator: Adobe Illustrator 22.0.0, SVG Export Plug-In . SVG Version: 6.00 Build 0)  -->
<svg version="1.1" id="Icon_Set" xmlns="http://www.w3.org/2000/svg" xmlns:xlink="http://www.w3.org/1999/xlink" x="0px" y="0px"
	 viewBox="0 0 64 64" style="enable-background:new 0 0 64 64;" xml:space="preserve">
<style type="text/css">
	.st0{fill:#263238;}
	.st1{fill:#FFD740;}
	.st2{fill:#40C4FF;}
	.st3{fill:#FF5252;}
	.st4{fill:#FFFFFF;}
	.st5{fill:#4DB6AC;}
	.st6{fill:#4FC3F7;}
</style>
<g>
	<g>
		<path class="st0" d="M23,27.5c-2.481,0-4.5-2.019-4.5-4.5s2.019-4.5,4.5-4.5s4.5,2.019,4.5,4.5S25.481,27.5,23,27.5z M23,19.5
			c-1.93,0-3.5,1.57-3.5,3.5s1.57,3.5,3.5,3.5s3.5-1.57,3.5-3.5S24.93,19.5,23,19.5z"/>
	</g>
	<g>
		<path class="st0" d="M19,30.5h-8.5c-1.103,0-2-0.897-2-2s0.897-2,2-2H19c0.276,0,0.5,0.224,0.5,0.5v3
			C19.5,30.276,19.276,30.5,19,30.5z M10.5,27.5c-0.551,0-1,0.449-1,1s0.449,1,1,1h8v-2H10.5z"/>
	</g>
	<g>
		<rect x="19" y="27" transform="matrix(-1 -4.467905e-11 4.467905e-11 -1 46.0003 65.5)" class="st2" width="8" height="11.5"/>
		<path class="st0" d="M27,39h-8c-0.276,0-0.5-0.224-0.5-0.5V27c0-0.276,0.224-0.5,0.5-0.5h8c0.276,0,0.5,0.224,0.5,0.5v11.5
			C27.5,38.776,27.276,39,27,39z M19.5,38h7V27.5h-7V38z"/>
	</g>
	<g>
		<path class="st0" d="M25,56.5c-1.378,0-2.5-1.122-2.5-2.5V41.547l-1.151,2.263c0.093,0.091,0.151,0.218,0.151,0.358
			c0,0.276-0.224,0.5-0.5,0.5h-0.395c-0.174,0-0.335-0.09-0.426-0.239c-0.091-0.148-0.098-0.333-0.02-0.488l2.395-4.707
			c0.056-0.109,0.147-0.191,0.254-0.235h-3.5l-2.497,4.906c-0.399,0.784-0.429,1.669-0.081,2.368
			c0.429,0.86,1.289,1.395,2.243,1.395H21c0.276,0,0.5,0.224,0.5,0.5s-0.224,0.5-0.5,0.5h-2.025c-1.336,0-2.538-0.747-3.137-1.948
			c-0.489-0.981-0.458-2.203,0.083-3.268l2.636-5.179C18.642,38.105,18.814,38,19.002,38H27c0.276,0,0.5,0.224,0.5,0.5V54
			C27.5,55.378,26.378,56.5,25,56.5z M23.191,39c0.185,0.076,0.309,0.257,0.309,0.462V54c0,0.827,0.673,1.5,1.5,1.5
			s1.5-0.673,1.5-1.5V39H23.191z"/>
	</g>
	<g>
		<path class="st0" d="M40,20.5c-3.032,0-5.5-2.467-5.5-5.5s2.468-5.5,5.5-5.5s5.5,2.467,5.5,5.5S43.032,20.5,40,20.5z M40,10.5
			c-2.481,0-4.5,2.019-4.5,4.5s2.019,4.5,4.5,4.5s4.5-2.019,4.5-4.5S42.481,10.5,40,10.5z"/>
	</g>
	<g>
		<path class="st0" d="M55,24.5H45c-0.276,0-0.5-0.224-0.5-0.5v-4c0-0.276,0.224-0.5,0.5-0.5h10c1.379,0,2.5,1.122,2.5,2.5
			S56.379,24.5,55,24.5z M45.5,23.5H55c0.827,0,1.5-0.673,1.5-1.5s-0.673-1.5-1.5-1.5h-9.5V23.5z"/>
	</g>
	<g>
		<rect x="35" y="20" class="st3" width="10" height="15"/>
		<path class="st0" d="M45,35.5H35c-0.276,0-0.5-0.224-0.5-0.5V20c0-0.276,0.224-0.5,0.5-0.5h10c0.276,0,0.5,0.224,0.5,0.5v15
			C45.5,35.276,45.276,35.5,45,35.5z M35.5,34.5h9v-14h-9V34.5z"/>
	</g>
	<g>
		<path class="st0" d="M37.5,56.5c-1.654,0-3-1.346-3-3V35c0-0.276,0.224-0.5,0.5-0.5h9.998c0.191,0,0.366,0.109,0.45,0.282
			l3.381,6.973c0.662,1.369,0.498,2.972-0.428,4.184c-0.747,0.978-1.999,1.562-3.348,1.562H42c-0.276,0-0.5-0.224-0.5-0.5
			s0.224-0.5,0.5-0.5h3.054c1.039,0,1.994-0.437,2.553-1.169c0.695-0.91,0.819-2.114,0.322-3.141l-3.244-6.69H35.5v18
			c0,1.103,0.897,2,2,2s2-0.897,2-2V36.15c0-0.233,0.161-0.435,0.388-0.487c0.229-0.053,0.461,0.06,0.562,0.269l2.836,5.85
			c0.075,0.155,0.065,0.338-0.026,0.484S43.008,42.5,42.836,42.5H42c-0.276,0-0.5-0.224-0.5-0.5s0.224-0.5,0.5-0.5h0.038
			L40.5,38.328V53.5C40.5,55.154,39.154,56.5,37.5,56.5z"/>
	</g>
	<g>
		<path class="st0" d="M35,26.377c-0.137,0-0.27-0.056-0.366-0.16l-5.332-5.742c-0.517-0.556-0.802-1.281-0.802-2.042V10
			c0-1.378,1.122-2.5,2.5-2.5s2.5,1.122,2.5,2.5v7.452c0,0.126,0.048,0.248,0.134,0.341l1.732,1.865
			c0.086,0.092,0.134,0.214,0.134,0.34v5.878c0,0.206-0.126,0.39-0.317,0.465C35.123,26.366,35.062,26.377,35,26.377z M31,8.5
			c-0.827,0-1.5,0.673-1.5,1.5v8.434c0,0.507,0.19,0.99,0.534,1.361l4.466,4.809v-4.409l-1.6-1.722c-0.259-0.28-0.4-0.642-0.4-1.021
			V10C32.5,9.173,31.827,8.5,31,8.5z"/>
	</g>
	<g>
		<path class="st0" d="M27,31.96c-0.061,0-0.122-0.011-0.18-0.034c-0.193-0.074-0.32-0.26-0.32-0.466V27
			c0-0.125,0.046-0.244,0.13-0.336l1.74-1.915c0.083-0.092,0.13-0.211,0.13-0.335V21.62c0-0.276,0.224-0.5,0.5-0.5
			s0.5,0.224,0.5,0.5v2.793c0,0.373-0.138,0.731-0.39,1.008l-1.61,1.772v2.973l3.089-3.398c0.496-0.545,0.799-1.239,0.876-2.007
			c0.028-0.274,0.275-0.468,0.548-0.447c0.275,0.028,0.475,0.273,0.447,0.548c-0.1,0.982-0.491,1.875-1.131,2.58l-3.959,4.355
			C27.273,31.903,27.138,31.96,27,31.96z"/>
	</g>
	<g>
		<path class="st0" d="M3.5,53.043H2c-0.276,0-0.5-0.224-0.5-0.5s0.224-0.5,0.5-0.5h1.5c0.276,0,0.5,0.224,0.5,0.5
			S3.776,53.043,3.5,53.043z"/>
	</g>
	<g>
		<path class="st0" d="M14.25,53.043h-9c-0.276,0-0.5-0.224-0.5-0.5s0.224-0.5,0.5-0.5h9c0.276,0,0.5,0.224,0.5,0.5
			S14.526,53.043,14.25,53.043z"/>
	</g>
	<g>
		<path class="st0" d="M58.75,53.043h-9c-0.276,0-0.5-0.224-0.5-0.5s0.224-0.5,0.5-0.5h9c0.276,0,0.5,0.224,0.5,0.5
			S59.026,53.043,58.75,53.043z"/>
	</g>
	<g>
		<path class="st0" d="M62,53.043h-1.5c-0.276,0-0.5-0.224-0.5-0.5s0.224-0.5,0.5-0.5H62c0.276,0,0.5,0.224,0.5,0.5
			S62.276,53.043,62,53.043z"/>
	</g>
	<g>
		<path class="st0" d="M13,17.5H9c-0.276,0-0.5-0.224-0.5-0.5s0.224-0.5,0.5-0.5h4c0.276,0,0.5,0.224,0.5,0.5S13.276,17.5,13,17.5z"
			/>
	</g>
	<g>
		<path class="st0" d="M11,19.5c-0.276,0-0.5-0.224-0.5-0.5v-4c0-0.276,0.224-0.5,0.5-0.5s0.5,0.224,0.5,0.5v4
			C11.5,19.276,11.276,19.5,11,19.5z"/>
	</g>
	<g>
		<path class="st0" d="M19,12.5h-4c-0.276,0-0.5-0.224-0.5-0.5s0.224-0.5,0.5-0.5h4c0.276,0,0.5,0.224,0.5,0.5S19.276,12.5,19,12.5z
			"/>
	</g>
	<g>
		<path class="st0" d="M17,14.5c-0.276,0-0.5-0.224-0.5-0.5v-4c0-0.276,0.224-0.5,0.5-0.5s0.5,0.224,0.5,0.5v4
			C17.5,14.276,17.276,14.5,17,14.5z"/>
	</g>
</g>
</svg>
