<?xml version="1.0" encoding="utf-8"?>
<!-- Generator: Adobe Illustrator 22.0.0, SVG Export Plug-In . SVG Version: 6.00 Build 0)  -->
<svg version="1.1" id="Icon_Set" xmlns="http://www.w3.org/2000/svg" xmlns:xlink="http://www.w3.org/1999/xlink" x="0px" y="0px"
	 viewBox="0 0 64 64" style="enable-background:new 0 0 64 64;" xml:space="preserve">
<style type="text/css">
	.st0{fill:#263238;}
	.st1{fill:#FFD740;}
	.st2{fill:#40C4FF;}
	.st3{fill:#FF5252;}
	.st4{fill:#FFFFFF;}
	.st5{fill:#4DB6AC;}
	.st6{fill:#4FC3F7;}
</style>
<g>
	<g>
		<path class="st2" d="M57,48.5c0-4.142-3.358-7.5-7.5-7.5S42,44.358,42,48.5v-31c0-4.142,3.358-7.5,7.5-7.5s7.5,3.358,7.5,7.5V48.5
			z"/>
		<path class="st0" d="M57,49c-0.276,0-0.5-0.224-0.5-0.5c0-3.86-3.14-7-7-7s-7,3.14-7,7c0,0.276-0.224,0.5-0.5,0.5
			s-0.5-0.224-0.5-0.5v-31c0-4.411,3.589-8,8-8s8,3.589,8,8v31C57.5,48.776,57.276,49,57,49z M49.5,40.5c3.008,0,5.634,1.669,7,4.13
			V17.5c0-3.86-3.14-7-7-7s-7,3.14-7,7v27.13C43.866,42.169,46.492,40.5,49.5,40.5z"/>
	</g>
	<g>
		<path class="st0" d="M54,39.514c-0.276,0-0.5-0.224-0.5-0.5V17.5c0-2.206-1.794-4-4-4c-0.276,0-0.5-0.224-0.5-0.5
			s0.224-0.5,0.5-0.5c2.757,0,5,2.243,5,5v21.514C54.5,39.29,54.276,39.514,54,39.514z"/>
	</g>
	<g>
		<path class="st0" d="M49.302,52.5H45.5c-2.206,0-4-1.794-4-4c0-0.276,0.224-0.5,0.5-0.5s0.5,0.224,0.5,0.5c0,1.654,1.346,3,3,3
			h3.802c1.679,0,3.112-1.273,3.194-2.838c0.044-0.833-0.247-1.624-0.819-2.227C51.104,45.832,50.331,45.5,49.5,45.5
			c-1.654,0-3,1.346-3,3c0,0.276-0.224,0.5-0.5,0.5s-0.5-0.224-0.5-0.5c0-2.206,1.794-4,4-4c1.108,0,2.139,0.443,2.902,1.247
			c0.763,0.804,1.15,1.857,1.093,2.967C53.385,50.802,51.504,52.5,49.302,52.5z"/>
	</g>
	<g>
		<path class="st0" d="M59,60.5h-2c-0.276,0-0.5-0.224-0.5-0.5s0.224-0.5,0.5-0.5h2c0.276,0,0.5,0.224,0.5,0.5S59.276,60.5,59,60.5z
			"/>
	</g>
	<g>
		<path class="st0" d="M55,60.5H35c-0.276,0-0.5-0.224-0.5-0.5s0.224-0.5,0.5-0.5h20c0.276,0,0.5,0.224,0.5,0.5S55.276,60.5,55,60.5
			z"/>
	</g>
	<g>
		<path class="st0" d="M7,11.5H5c-0.276,0-0.5-0.224-0.5-0.5s0.224-0.5,0.5-0.5h2c0.276,0,0.5,0.224,0.5,0.5S7.276,11.5,7,11.5z"/>
	</g>
	<g>
		<path class="st0" d="M29,11.5H9c-0.276,0-0.5-0.224-0.5-0.5s0.224-0.5,0.5-0.5h20c0.276,0,0.5,0.224,0.5,0.5S29.276,11.5,29,11.5z
			"/>
	</g>
	<g>
		<path class="st0" d="M62,11.5h-4c-0.276,0-0.5-0.224-0.5-0.5s0.224-0.5,0.5-0.5h4c0.276,0,0.5,0.224,0.5,0.5S62.276,11.5,62,11.5z
			"/>
	</g>
	<g>
		<path class="st0" d="M60,13.5c-0.276,0-0.5-0.224-0.5-0.5V9c0-0.276,0.224-0.5,0.5-0.5s0.5,0.224,0.5,0.5v4
			C60.5,13.276,60.276,13.5,60,13.5z"/>
	</g>
	<g>
		<path class="st0" d="M56,6.5h-4c-0.276,0-0.5-0.224-0.5-0.5s0.224-0.5,0.5-0.5h4c0.276,0,0.5,0.224,0.5,0.5S56.276,6.5,56,6.5z"/>
	</g>
	<g>
		<path class="st0" d="M54,8.5c-0.276,0-0.5-0.224-0.5-0.5V4c0-0.276,0.224-0.5,0.5-0.5s0.5,0.224,0.5,0.5v4
			C54.5,8.276,54.276,8.5,54,8.5z"/>
	</g>
	<g>
		<path class="st1" d="M22.5,37h-18C3.119,37,2,35.881,2,34.5v-11C2,22.119,3.119,21,4.5,21h18c1.381,0,2.5,1.119,2.5,2.5v11
			C25,35.881,23.881,37,22.5,37z"/>
		<path class="st0" d="M22.5,37.5h-18c-1.654,0-3-1.346-3-3v-11c0-1.654,1.346-3,3-3h18c1.654,0,3,1.346,3,3v11
			C25.5,36.154,24.154,37.5,22.5,37.5z M4.5,21.5c-1.103,0-2,0.897-2,2v11c0,1.103,0.897,2,2,2h18c1.103,0,2-0.897,2-2v-11
			c0-1.103-0.897-2-2-2H4.5z"/>
	</g>
	<g>
		<path class="st0" d="M22.5,40.5h-18c-1.654,0-3-1.346-3-3v-3C1.5,34.224,1.724,34,2,34s0.5,0.224,0.5,0.5v3c0,1.103,0.897,2,2,2
			h18c1.103,0,2-0.897,2-2v-3c0-0.276,0.224-0.5,0.5-0.5s0.5,0.224,0.5,0.5v3C25.5,39.154,24.154,40.5,22.5,40.5z"/>
	</g>
	<g>
		<path class="st0" d="M33.333,51.5H32c-0.276,0-0.5-0.224-0.5-0.5v-8c0-0.276,0.224-0.5,0.5-0.5h1.333c2.481,0,4.5,2.019,4.5,4.5
			S35.815,51.5,33.333,51.5z M32.5,50.5h0.833c1.93,0,3.5-1.57,3.5-3.5s-1.57-3.5-3.5-3.5H32.5V50.5z"/>
	</g>
	<g>
		<path class="st3" d="M33,50H3c-0.552,0-1-0.448-1-1v-4c0-0.552,0.448-1,1-1h30c0.552,0,1,0.448,1,1v4C34,49.552,33.552,50,33,50z"
			/>
		<path class="st0" d="M33,50.5H3c-0.827,0-1.5-0.673-1.5-1.5v-4c0-0.827,0.673-1.5,1.5-1.5h30c0.827,0,1.5,0.673,1.5,1.5v4
			C34.5,49.827,33.827,50.5,33,50.5z M3,44.5c-0.276,0-0.5,0.224-0.5,0.5v4c0,0.276,0.224,0.5,0.5,0.5h30c0.276,0,0.5-0.224,0.5-0.5
			v-4c0-0.276-0.224-0.5-0.5-0.5H3z"/>
	</g>
	<g>
		<path class="st0" d="M49.5,56.5h-40c-1.654,0-3-1.346-3-3V52c0-0.276,0.224-0.5,0.5-0.5s0.5,0.224,0.5,0.5v1.5
			c0,1.103,0.897,2,2,2h40c3.86,0,7-3.14,7-7c0-0.276,0.224-0.5,0.5-0.5s0.5,0.224,0.5,0.5C57.5,52.911,53.911,56.5,49.5,56.5z"/>
	</g>
	<g>
		<path class="st0" d="M7,19.5c-0.276,0-0.5-0.224-0.5-0.5v-1.5c0-1.654,1.346-3,3-3H40c0.276,0,0.5,0.224,0.5,0.5
			s-0.224,0.5-0.5,0.5H9.5c-1.103,0-2,0.897-2,2V19C7.5,19.276,7.276,19.5,7,19.5z"/>
	</g>
	<g>
		<path class="st0" d="M5,50.5c-0.276,0-0.5-0.224-0.5-0.5v-6c0-0.276,0.224-0.5,0.5-0.5s0.5,0.224,0.5,0.5v6
			C5.5,50.276,5.276,50.5,5,50.5z"/>
	</g>
</g>
</svg>
