<?xml version="1.0" encoding="utf-8"?>
<!-- Generator: Adobe Illustrator 22.0.0, SVG Export Plug-In . SVG Version: 6.00 Build 0)  -->
<svg version="1.1" id="Icon_Set" xmlns="http://www.w3.org/2000/svg" xmlns:xlink="http://www.w3.org/1999/xlink" x="0px" y="0px"
	 viewBox="0 0 64 64" style="enable-background:new 0 0 64 64;" xml:space="preserve">
<style type="text/css">
	.st0{fill:#263238;}
	.st1{fill:#FFD740;}
	.st2{fill:#40C4FF;}
	.st3{fill:#FF5252;}
	.st4{fill:#FFFFFF;}
	.st5{fill:#4DB6AC;}
	.st6{fill:#4FC3F7;}
</style>
<g>
	<g>
		<path class="st0" d="M44,62.5h-2c-0.276,0-0.5-0.224-0.5-0.5s0.224-0.5,0.5-0.5h2c0.276,0,0.5,0.224,0.5,0.5S44.276,62.5,44,62.5z
			"/>
	</g>
	<g>
		<path class="st0" d="M40,62.5H20c-0.276,0-0.5-0.224-0.5-0.5s0.224-0.5,0.5-0.5h20c0.276,0,0.5,0.224,0.5,0.5S40.276,62.5,40,62.5
			z"/>
	</g>
	<g>
		<path class="st0" d="M11,9.5H7C6.724,9.5,6.5,9.276,6.5,9S6.724,8.5,7,8.5h4c0.276,0,0.5,0.224,0.5,0.5S11.276,9.5,11,9.5z"/>
	</g>
	<g>
		<path class="st0" d="M9,11.5c-0.276,0-0.5-0.224-0.5-0.5V7c0-0.276,0.224-0.5,0.5-0.5S9.5,6.724,9.5,7v4
			C9.5,11.276,9.276,11.5,9,11.5z"/>
	</g>
	<g>
		<path class="st0" d="M17,4.5h-4c-0.276,0-0.5-0.224-0.5-0.5s0.224-0.5,0.5-0.5h4c0.276,0,0.5,0.224,0.5,0.5S17.277,4.5,17,4.5z"/>
	</g>
	<g>
		<path class="st0" d="M15,6.5c-0.276,0-0.5-0.224-0.5-0.5V2c0-0.276,0.224-0.5,0.5-0.5s0.5,0.224,0.5,0.5v4
			C15.5,6.276,15.277,6.5,15,6.5z"/>
	</g>
	<g>
		<path class="st3" d="M15.5,14h-6C8.12,14,7,15.119,7,16.5V24h50v-7.5c0-1.381-1.119-2.5-2.5-2.5h-6"/>
	</g>
	<g>
		<path class="st4" d="M19,19L19,19c-0.828,0-1.5-0.672-1.5-1.5v-7C17.5,9.672,18.172,9,19,9h0c0.828,0,1.5,0.672,1.5,1.5v7
			C20.5,18.328,19.829,19,19,19z"/>
		<path class="st0" d="M19,19.5c-1.103,0-2-0.897-2-2v-7c0-1.103,0.897-2,2-2s2,0.897,2,2v7C21,18.603,20.103,19.5,19,19.5z M19,9.5
			c-0.552,0-1,0.449-1,1v7c0,0.551,0.449,1,1,1h0c0.551,0,1-0.449,1-1v-7C20,9.949,19.552,9.5,19,9.5z"/>
	</g>
	<g>
		<path class="st4" d="M45,19L45,19c-0.828,0-1.5-0.672-1.5-1.5v-7C43.5,9.672,44.172,9,45,9l0,0c0.828,0,1.5,0.672,1.5,1.5v7
			C46.5,18.328,45.829,19,45,19z"/>
		<path class="st0" d="M45,19.5c-1.103,0-2-0.897-2-2v-7c0-1.103,0.897-2,2-2s2,0.897,2,2v7C47,18.603,46.103,19.5,45,19.5z M45,9.5
			c-0.552,0-1,0.449-1,1v7c0,0.551,0.449,1,1,1h0c0.551,0,1-0.449,1-1v-7C46,9.949,45.552,9.5,45,9.5z"/>
	</g>
	<g>
		<path class="st0" d="M57,24.5H7c-0.276,0-0.5-0.224-0.5-0.5v-7.5c0-1.654,1.346-3,3-3h6c0.276,0,0.5,0.224,0.5,0.5
			s-0.224,0.5-0.5,0.5h-6c-1.103,0-2,0.897-2,2v7h49v-7c0-1.103-0.897-2-2-2h-6c-0.276,0-0.5-0.224-0.5-0.5s0.224-0.5,0.5-0.5h6
			c1.654,0,3,1.346,3,3V24C57.5,24.276,57.276,24.5,57,24.5z"/>
	</g>
	<g>
		<path class="st0" d="M54.5,58.5h-45c-1.654,0-3-1.346-3-3V26c0-0.276,0.224-0.5,0.5-0.5s0.5,0.224,0.5,0.5v29.5
			c0,1.103,0.897,2,2,2h45c1.103,0,2-0.897,2-2V26c0-0.276,0.224-0.5,0.5-0.5s0.5,0.224,0.5,0.5v29.5
			C57.5,57.154,56.154,58.5,54.5,58.5z"/>
	</g>
	<g>
		<path class="st0" d="M32.5,36.5c-2.481,0-4.5-2.019-4.5-4.5s2.019-4.5,4.5-4.5S37,29.519,37,32S34.981,36.5,32.5,36.5z M32.5,28.5
			c-1.93,0-3.5,1.57-3.5,3.5s1.57,3.5,3.5,3.5S36,33.93,36,32S34.43,28.5,32.5,28.5z"/>
	</g>
	<g>
		<path class="st0" d="M36.5,48.5h-8c-0.276,0-0.5-0.224-0.5-0.5v-5.672l-1.586,1.586C26.036,44.292,25.534,44.5,25,44.5h-4.5
			c-1.103,0-2-0.897-2-2s0.897-2,2-2h3.672l4.414-4.414C28.964,35.708,29.466,35.5,30,35.5h5c0.534,0,1.036,0.208,1.414,0.586
			l4.414,4.414H44.5c1.103,0,2,0.897,2,2s-0.897,2-2,2H40c-0.534,0-1.036-0.208-1.414-0.586L37,42.329V48
			C37,48.276,36.777,48.5,36.5,48.5z M29,47.5h7v-6.379c0-0.202,0.122-0.385,0.309-0.462c0.188-0.078,0.401-0.034,0.545,0.108
			l2.439,2.439C39.482,43.396,39.733,43.5,40,43.5h4.5c0.551,0,1-0.449,1-1s-0.449-1-1-1h-3.879c-0.133,0-0.26-0.053-0.354-0.146
			l-4.561-4.561C35.518,36.604,35.267,36.5,35,36.5h-5c-0.267,0-0.518,0.104-0.707,0.293l-4.561,4.561
			c-0.094,0.094-0.221,0.146-0.354,0.146H20.5c-0.551,0-1,0.449-1,1s0.449,1,1,1H25c0.267,0,0.518-0.104,0.707-0.293l2.44-2.439
			c0.143-0.143,0.358-0.187,0.545-0.108C28.879,40.736,29,40.919,29,41.121V47.5z"/>
	</g>
	<g>
		<path class="st2" d="M39.51,53.402l-6.029-1.206c-0.647-0.129-1.314-0.129-1.961,0l-6.029,1.206
			c-1.547,0.309-2.99-0.874-2.99-2.451V50.5c0-1.381,1.119-2.5,2.5-2.5h15c1.381,0,2.5,1.119,2.5,2.5v0.45
			C42.5,52.528,41.057,53.711,39.51,53.402z"/>
		<path class="st0" d="M24.996,53.951c-0.687,0-1.356-0.236-1.898-0.681C22.4,52.699,22,51.853,22,50.951V50.5c0-1.654,1.346-3,3-3
			h15c1.654,0,3,1.346,3,3v0.451c0,0.902-0.4,1.748-1.098,2.32c-0.697,0.573-1.606,0.8-2.49,0.622l-6.029-1.206
			c-0.585-0.117-1.179-0.117-1.765,0l-6.029,1.206C25.392,53.932,25.193,53.951,24.996,53.951z M25,48.5c-1.103,0-2,0.897-2,2v0.451
			c0,0.602,0.267,1.165,0.732,1.546c0.465,0.381,1.071,0.532,1.661,0.415l6.029-1.206c0.717-0.143,1.443-0.143,2.158,0l6.029,1.206
			l0,0c0.589,0.118,1.195-0.033,1.66-0.414C41.733,52.116,42,51.552,42,50.951V50.5c0-1.103-0.897-2-2-2H25z"/>
	</g>
	<g>
		<path class="st2" d="M36.061,36.439C35.768,36.146,35.384,36,35,36h-5c-0.384,0-0.768,0.146-1.061,0.439L28.5,36.879V48h8V36.879
			L36.061,36.439z"/>
		<path class="st0" d="M36.5,48.5h-8c-0.276,0-0.5-0.224-0.5-0.5V36.878c0-0.133,0.053-0.26,0.146-0.354l0.439-0.439
			C28.964,35.708,29.466,35.5,30,35.5h5c0.534,0,1.036,0.208,1.414,0.586l0.439,0.439C36.947,36.619,37,36.746,37,36.879V48
			C37,48.276,36.776,48.5,36.5,48.5z M29,47.5h7V37.086l-0.293-0.293C35.518,36.604,35.267,36.5,35,36.5h-5
			c-0.267,0-0.518,0.104-0.707,0.293L29,37.085V47.5z"/>
	</g>
	<g>
		<path class="st0" d="M41.5,14.5h-19c-0.276,0-0.5-0.224-0.5-0.5s0.224-0.5,0.5-0.5h19c0.276,0,0.5,0.224,0.5,0.5
			S41.776,14.5,41.5,14.5z"/>
	</g>
	<g>
		<path class="st0" d="M54,32.5c-0.276,0-0.5-0.224-0.5-0.5v-4.5H49c-0.276,0-0.5-0.224-0.5-0.5s0.224-0.5,0.5-0.5h5
			c0.276,0,0.5,0.224,0.5,0.5v5C54.5,32.276,54.277,32.5,54,32.5z"/>
	</g>
</g>
</svg>
