<?xml version="1.0" encoding="utf-8"?>
<!-- Generator: Adobe Illustrator 22.0.0, SVG Export Plug-In . SVG Version: 6.00 Build 0)  -->
<svg version="1.1" id="Icon_Set" xmlns="http://www.w3.org/2000/svg" xmlns:xlink="http://www.w3.org/1999/xlink" x="0px" y="0px"
	 viewBox="0 0 64 64" style="enable-background:new 0 0 64 64;" xml:space="preserve">
<style type="text/css">
	.st0{fill:#263238;}
	.st1{fill:#FFD740;}
	.st2{fill:#40C4FF;}
	.st3{fill:#FF5252;}
	.st4{fill:#FFFFFF;}
	.st5{fill:#4DB6AC;}
	.st6{fill:#4FC3F7;}
</style>
<g>
	<g>
		<path class="st0" d="M25.778,18.528h-4c-0.276,0-0.5-0.224-0.5-0.5s0.224-0.5,0.5-0.5h4c0.276,0,0.5,0.224,0.5,0.5
			S26.055,18.528,25.778,18.528z"/>
	</g>
	<g>
		<path class="st0" d="M23.778,20.528c-0.276,0-0.5-0.224-0.5-0.5v-4c0-0.276,0.224-0.5,0.5-0.5s0.5,0.224,0.5,0.5v4
			C24.278,20.305,24.055,20.528,23.778,20.528z"/>
	</g>
	<g>
		<path class="st0" d="M19.778,23.028h-4c-0.276,0-0.5-0.224-0.5-0.5s0.224-0.5,0.5-0.5h4c0.276,0,0.5,0.224,0.5,0.5
			S20.055,23.028,19.778,23.028z"/>
	</g>
	<g>
		<path class="st0" d="M17.778,25.028c-0.276,0-0.5-0.224-0.5-0.5v-4c0-0.276,0.224-0.5,0.5-0.5s0.5,0.224,0.5,0.5v4
			C18.278,24.805,18.055,25.028,17.778,25.028z"/>
	</g>
	<g>
		<path class="st0" d="M8,5.5H6C5.724,5.5,5.5,5.276,5.5,5S5.724,4.5,6,4.5h2c0.276,0,0.5,0.224,0.5,0.5S8.276,5.5,8,5.5z"/>
	</g>
	<g>
		<path class="st0" d="M30,5.5H10C9.724,5.5,9.5,5.276,9.5,5S9.724,4.5,10,4.5h20c0.276,0,0.5,0.224,0.5,0.5S30.276,5.5,30,5.5z"/>
	</g>
	<g>
		<path class="st0" d="M58,59.5h-2c-0.276,0-0.5-0.224-0.5-0.5s0.224-0.5,0.5-0.5h2c0.276,0,0.5,0.224,0.5,0.5S58.276,59.5,58,59.5z
			"/>
	</g>
	<g>
		<path class="st0" d="M54,59.5H34c-0.276,0-0.5-0.224-0.5-0.5s0.224-0.5,0.5-0.5h20c0.276,0,0.5,0.224,0.5,0.5S54.276,59.5,54,59.5
			z"/>
	</g>
	<g>
		<path class="st3" d="M41.441,13.322L6.793,47.971c-0.391,0.391-0.391,1.024,0,1.414l5.657,5.657c0.391,0.391,1.024,0.391,1.414,0
			l34.648-34.648c0.391-0.391,0.391-1.024,0-1.414l-5.657-5.657C42.465,12.932,41.832,12.932,41.441,13.322z"/>
		<path class="st0" d="M13.157,55.833c-0.384,0-0.769-0.146-1.061-0.438l-5.657-5.657C6.156,49.455,6,49.078,6,48.678
			c0-0.401,0.156-0.778,0.439-1.061l34.648-34.648c0.584-0.585,1.537-0.585,2.121,0l5.657,5.657c0.585,0.585,0.585,1.537,0,2.122
			L14.218,55.395C13.926,55.688,13.541,55.833,13.157,55.833z M42.148,13.53c-0.128,0-0.256,0.048-0.354,0.146L7.146,48.324
			C7.052,48.418,7,48.544,7,48.678c0,0.133,0.052,0.259,0.146,0.354l5.657,5.657c0.195,0.194,0.512,0.195,0.707,0L48.159,20.04
			c0.195-0.195,0.195-0.512,0-0.708l-5.657-5.657C42.404,13.579,42.276,13.53,42.148,13.53z"/>
	</g>
	<g>
		<path class="st3" d="M54.33,45.335H26.399l-10,10H54.33c0.552,0,1-0.448,1-1v-8C55.33,45.782,54.883,45.335,54.33,45.335z"/>
	</g>
	<g>
		<path class="st0" d="M54.33,55.834H16.399c-0.276,0-0.5-0.224-0.5-0.5s0.224-0.5,0.5-0.5H54.33c0.275,0,0.5-0.224,0.5-0.5v-8
			c0-0.276-0.225-0.5-0.5-0.5H26.399c-0.276,0-0.5-0.224-0.5-0.5s0.224-0.5,0.5-0.5H54.33c0.827,0,1.5,0.673,1.5,1.5v8
			C55.83,55.162,55.157,55.834,54.33,55.834z"/>
	</g>
	<g>
		<path class="st0" d="M50.28,21.954c-0.128,0-0.256-0.049-0.354-0.146c-0.195-0.195-0.195-0.512,0-0.707
			c2.534-2.535,2.534-6.658,0-9.192c-1.228-1.228-2.86-1.904-4.597-1.904c-1.735,0-3.368,0.676-4.596,1.904
			c-0.195,0.195-0.512,0.195-0.707,0s-0.195-0.512,0-0.707c1.416-1.417,3.3-2.197,5.303-2.197c2.004,0,3.888,0.78,5.304,2.197
			c2.924,2.924,2.924,7.682,0,10.606C50.536,21.905,50.408,21.954,50.28,21.954z"/>
	</g>
	<g>
		<rect x="39.295" y="15.04" transform="matrix(0.7071 -0.7071 0.7071 0.7071 -1.9289 35.423)" class="st4" width="5" height="10"/>
		<path class="st0" d="M43.562,25.843c-0.128,0-0.256-0.049-0.354-0.146l-7.071-7.071c-0.094-0.094-0.146-0.221-0.146-0.354
			s0.053-0.26,0.146-0.354l3.536-3.536c0.195-0.195,0.512-0.195,0.707,0l7.071,7.071c0.094,0.094,0.146,0.221,0.146,0.354
			s-0.053,0.26-0.146,0.354l-3.536,3.536C43.818,25.794,43.69,25.843,43.562,25.843z M37.198,18.272l6.364,6.364l2.829-2.829
			l-6.364-6.364L37.198,18.272z"/>
	</g>
</g>
</svg>
