<?xml version="1.0" encoding="utf-8"?>
<!-- Generator: Adobe Illustrator 22.0.0, SVG Export Plug-In . SVG Version: 6.00 Build 0)  -->
<svg version="1.1" id="Icon_Set" xmlns="http://www.w3.org/2000/svg" xmlns:xlink="http://www.w3.org/1999/xlink" x="0px" y="0px"
	 viewBox="0 0 64 64" style="enable-background:new 0 0 64 64;" xml:space="preserve">
<style type="text/css">
	.st0{fill:#263238;}
	.st1{fill:#FFD740;}
	.st2{fill:#40C4FF;}
	.st3{fill:#FF5252;}
	.st4{fill:#FFFFFF;}
	.st5{fill:#4DB6AC;}
	.st6{fill:#4FC3F7;}
</style>
<g>
	<g>
		<path class="st0" d="M48,56.5H8c-1.654,0-3-1.346-3-3v-36c0-1.654,1.346-3,3-3h30.5c0.276,0,0.5,0.224,0.5,0.5s-0.224,0.5-0.5,0.5
			H8c-1.103,0-2,0.897-2,2v36c0,1.103,0.897,2,2,2h40c3.859,0,7-3.14,7-7c0-0.276,0.224-0.5,0.5-0.5s0.5,0.224,0.5,0.5
			C56,52.911,52.411,56.5,48,56.5z"/>
	</g>
	<g>
		<path class="st2" d="M55.5,48.5c0-4.142-3.358-7.5-7.5-7.5s-7.5,3.358-7.5,7.5v-31c0-4.142,3.358-7.5,7.5-7.5s7.5,3.358,7.5,7.5
			V48.5z"/>
		<path class="st0" d="M55.5,49c-0.276,0-0.5-0.224-0.5-0.5c0-3.86-3.141-7-7-7s-7,3.14-7,7c0,0.276-0.224,0.5-0.5,0.5
			S40,48.776,40,48.5v-31c0-4.411,3.589-8,8-8s8,3.589,8,8v31C56,48.776,55.776,49,55.5,49z M48,40.5c3.008,0,5.634,1.669,7,4.13
			V17.5c0-3.86-3.141-7-7-7s-7,3.14-7,7v27.13C42.366,42.169,44.992,40.5,48,40.5z"/>
	</g>
	<g>
		<path class="st0" d="M47.802,52.5H44c-2.206,0-4-1.794-4-4c0-0.276,0.224-0.5,0.5-0.5s0.5,0.224,0.5,0.5c0,1.654,1.346,3,3,3
			h3.802c1.679,0,3.111-1.273,3.194-2.838c0.043-0.833-0.248-1.624-0.819-2.227C49.604,45.832,48.831,45.5,48,45.5
			c-1.654,0-3,1.346-3,3c0,0.276-0.224,0.5-0.5,0.5S44,48.776,44,48.5c0-2.206,1.794-4,4-4c1.108,0,2.139,0.443,2.901,1.247
			c0.763,0.803,1.151,1.857,1.093,2.967C51.885,50.802,50.004,52.5,47.802,52.5z"/>
	</g>
	<g>
		<path class="st0" d="M57.5,60.5h-2c-0.276,0-0.5-0.224-0.5-0.5s0.224-0.5,0.5-0.5h2c0.276,0,0.5,0.224,0.5,0.5
			S57.776,60.5,57.5,60.5z"/>
	</g>
	<g>
		<path class="st0" d="M53.5,60.5h-20c-0.276,0-0.5-0.224-0.5-0.5s0.224-0.5,0.5-0.5h20c0.276,0,0.5,0.224,0.5,0.5
			S53.776,60.5,53.5,60.5z"/>
	</g>
	<g>
		<path class="st0" d="M5.5,11.5h-2C3.224,11.5,3,11.276,3,11s0.224-0.5,0.5-0.5h2C5.776,10.5,6,10.724,6,11S5.776,11.5,5.5,11.5z"
			/>
	</g>
	<g>
		<path class="st0" d="M27.5,11.5h-20C7.224,11.5,7,11.276,7,11s0.224-0.5,0.5-0.5h20c0.276,0,0.5,0.224,0.5,0.5
			S27.776,11.5,27.5,11.5z"/>
	</g>
	<g>
		<path class="st0" d="M60.5,11.5h-4c-0.276,0-0.5-0.224-0.5-0.5s0.224-0.5,0.5-0.5h4c0.276,0,0.5,0.224,0.5,0.5
			S60.776,11.5,60.5,11.5z"/>
	</g>
	<g>
		<path class="st0" d="M58.5,13.5c-0.276,0-0.5-0.224-0.5-0.5V9c0-0.276,0.224-0.5,0.5-0.5S59,8.724,59,9v4
			C59,13.276,58.776,13.5,58.5,13.5z"/>
	</g>
	<g>
		<path class="st0" d="M54.5,6.5h-4C50.224,6.5,50,6.276,50,6s0.224-0.5,0.5-0.5h4C54.776,5.5,55,5.724,55,6S54.776,6.5,54.5,6.5z"
			/>
	</g>
	<g>
		<path class="st0" d="M52.5,8.5C52.224,8.5,52,8.276,52,8V4c0-0.276,0.224-0.5,0.5-0.5S53,3.724,53,4v4
			C53,8.276,52.776,8.5,52.5,8.5z"/>
	</g>
	<g>
		<circle class="st0" cx="28.5" cy="19.5" r="1"/>
	</g>
	<g>
		<circle class="st0" cx="28.5" cy="23.5" r="1"/>
	</g>
	<g>
		<circle class="st0" cx="28.5" cy="27.5" r="1"/>
	</g>
	<g>
		<circle class="st0" cx="28.5" cy="31.5" r="1"/>
	</g>
	<g>
		<circle class="st0" cx="28.5" cy="35.5" r="1"/>
	</g>
	<g>
		<circle class="st0" cx="28.5" cy="39.5" r="1"/>
	</g>
	<g>
		<circle class="st0" cx="28.5" cy="43.5" r="1"/>
	</g>
	<g>
		<circle class="st0" cx="28.5" cy="47.5" r="1"/>
	</g>
	<g>
		<circle class="st0" cx="28.5" cy="51.5" r="1"/>
	</g>
	<g>
		<circle class="st0" cx="36.5" cy="19.5" r="1"/>
	</g>
	<g>
		<circle class="st0" cx="36.5" cy="23.5" r="1"/>
	</g>
	<g>
		<circle class="st0" cx="36.5" cy="27.5" r="1"/>
	</g>
	<g>
		<circle class="st0" cx="36.5" cy="31.5" r="1"/>
	</g>
	<g>
		<circle class="st0" cx="36.5" cy="35.5" r="1"/>
	</g>
	<g>
		<circle class="st0" cx="36.5" cy="39.5" r="1"/>
	</g>
	<g>
		<circle class="st0" cx="36.5" cy="43.5" r="1"/>
	</g>
	<g>
		<circle class="st0" cx="36.5" cy="47.5" r="1"/>
	</g>
	<g>
		<circle class="st0" cx="36.5" cy="51.5" r="1"/>
	</g>
	<g>
		<circle class="st0" cx="32.5" cy="21.5" r="1"/>
	</g>
	<g>
		<circle class="st0" cx="32.5" cy="25.5" r="1"/>
	</g>
	<g>
		<circle class="st0" cx="32.5" cy="29.5" r="1"/>
	</g>
	<g>
		<circle class="st0" cx="32.5" cy="33.5" r="1"/>
	</g>
	<g>
		<circle class="st0" cx="32.5" cy="37.5" r="1"/>
	</g>
	<g>
		<circle class="st0" cx="32.5" cy="41.5" r="1"/>
	</g>
	<g>
		<circle class="st0" cx="32.5" cy="45.5" r="1"/>
	</g>
	<g>
		<circle class="st0" cx="32.5" cy="49.5" r="1"/>
	</g>
	<g>
		<path class="st0" d="M52.5,39.514c-0.276,0-0.5-0.224-0.5-0.5V17.5c0-2.206-1.794-4-4-4c-0.276,0-0.5-0.224-0.5-0.5
			s0.224-0.5,0.5-0.5c2.757,0,5,2.243,5,5v21.514C53,39.29,52.776,39.514,52.5,39.514z"/>
	</g>
</g>
</svg>
