<?xml version="1.0" encoding="utf-8"?>
<!-- Generator: Adobe Illustrator 22.0.0, SVG Export Plug-In . SVG Version: 6.00 Build 0)  -->
<svg version="1.1" id="Icon_Set" xmlns="http://www.w3.org/2000/svg" xmlns:xlink="http://www.w3.org/1999/xlink" x="0px" y="0px"
	 viewBox="0 0 64 64" style="enable-background:new 0 0 64 64;" xml:space="preserve">
<style type="text/css">
	.st0{fill:#263238;}
	.st1{fill:#FFD740;}
	.st2{fill:#40C4FF;}
	.st3{fill:#FF5252;}
	.st4{fill:#FFFFFF;}
	.st5{fill:#4DB6AC;}
	.st6{fill:#4FC3F7;}
</style>
<g>
	<g>
		<path class="st0" d="M39.549,59.5h-3.631c-0.785,0-1.428-0.59-1.495-1.372L32,29.855l-2.423,28.273
			C29.51,58.91,28.867,59.5,28.082,59.5h-3.631c-0.8,0-1.458-0.626-1.498-1.426l-0.848-16.947c-0.068-1.371-0.234-2.75-0.494-4.099
			l-0.814-4.233c-0.857-4.458-0.699-9.134,0.456-13.522l0.763-2.901C22.074,16.153,22.273,16,22.5,16h19
			c0.227,0,0.426,0.153,0.483,0.373l0.763,2.901c1.155,4.388,1.313,9.064,0.456,13.522l-0.814,4.233
			c-0.26,1.349-0.426,2.728-0.494,4.099l-0.848,16.948C41.007,58.874,40.349,59.5,39.549,59.5z M32,23.5
			c0.26,0,0.476,0.199,0.498,0.458l2.921,34.084c0.022,0.257,0.241,0.458,0.499,0.458h3.631c0.267,0,0.486-0.209,0.499-0.475
			l0.848-16.949c0.071-1.417,0.243-2.843,0.511-4.237l0.814-4.232c0.829-4.312,0.677-8.834-0.44-13.079L41.115,17H22.885
			l-0.665,2.528c-1.117,4.244-1.27,8.767-0.44,13.079l0.814,4.232c0.268,1.395,0.44,2.82,0.511,4.237l0.848,16.948
			c0.013,0.267,0.232,0.476,0.499,0.476h3.631c0.257,0,0.477-0.201,0.499-0.458l2.921-34.084C31.524,23.699,31.74,23.5,32,23.5z"/>
	</g>
	<g>
		<rect x="22.5" y="12.5" class="st2" width="19" height="4"/>
		<path class="st0" d="M41.5,17h-19c-0.276,0-0.5-0.224-0.5-0.5v-4c0-0.276,0.224-0.5,0.5-0.5h19c0.276,0,0.5,0.224,0.5,0.5v4
			C42,16.776,41.776,17,41.5,17z M23,16h18v-3H23V16z"/>
	</g>
	<g>
		<path class="st0" d="M6.5,36.25H5c-0.276,0-0.5-0.224-0.5-0.5s0.224-0.5,0.5-0.5h1.5c0.276,0,0.5,0.224,0.5,0.5
			S6.776,36.25,6.5,36.25z"/>
	</g>
	<g>
		<path class="st0" d="M17.25,36.25h-9c-0.276,0-0.5-0.224-0.5-0.5s0.224-0.5,0.5-0.5h9c0.276,0,0.5,0.224,0.5,0.5
			S17.526,36.25,17.25,36.25z"/>
	</g>
	<g>
		<path class="st0" d="M55.75,36.25h-9c-0.276,0-0.5-0.224-0.5-0.5s0.224-0.5,0.5-0.5h9c0.276,0,0.5,0.224,0.5,0.5
			S56.026,36.25,55.75,36.25z"/>
	</g>
	<g>
		<path class="st0" d="M59,36.25h-1.5c-0.276,0-0.5-0.224-0.5-0.5s0.224-0.5,0.5-0.5H59c0.276,0,0.5,0.224,0.5,0.5
			S59.276,36.25,59,36.25z"/>
	</g>
	<g>
		<path class="st0" d="M45.321,7.5h-4c-0.276,0-0.5-0.224-0.5-0.5s0.224-0.5,0.5-0.5h4c0.276,0,0.5,0.224,0.5,0.5
			S45.598,7.5,45.321,7.5z"/>
	</g>
	<g>
		<path class="st0" d="M43.321,9.5c-0.276,0-0.5-0.224-0.5-0.5V5c0-0.276,0.224-0.5,0.5-0.5s0.5,0.224,0.5,0.5v4
			C43.821,9.276,43.598,9.5,43.321,9.5z"/>
	</g>
	<g>
		<path class="st0" d="M50.321,14h-4c-0.276,0-0.5-0.224-0.5-0.5s0.224-0.5,0.5-0.5h4c0.276,0,0.5,0.224,0.5,0.5
			S50.598,14,50.321,14z"/>
	</g>
	<g>
		<path class="st0" d="M48.321,16c-0.276,0-0.5-0.224-0.5-0.5v-4c0-0.276,0.224-0.5,0.5-0.5s0.5,0.224,0.5,0.5v4
			C48.821,15.776,48.598,16,48.321,16z"/>
	</g>
</g>
</svg>
