<?xml version="1.0" encoding="utf-8"?>
<!-- Generator: Adobe Illustrator 24.0.0, SVG Export Plug-In . SVG Version: 6.00 Build 0)  -->
<svg version="1.1" xmlns="http://www.w3.org/2000/svg" xmlns:xlink="http://www.w3.org/1999/xlink" x="0px" y="0px"
	 viewBox="0 0 256 256" style="enable-background:new 0 0 256 256;" xml:space="preserve">
<style type="text/css">
	.st0{fill:#6CADEF;}
	.st1{fill:#F9D0B4;}
	.st2{fill:#5B5D60;}
	.st3{fill:#9BE5F9;}
	.st4{fill:#FC657E;}
	.st5{fill:#70D6F9;}
	.st6{fill:#F5C84C;}
	.st7{fill:#F98FA6;}
	.st8{fill:#FED690;}
	.st9{fill:#87D147;}
	.st10{fill:#B2E26D;}
	.st11{fill:#EDF4FC;}
	.st12{fill:#FCDD86;}
	.st13{fill:#754E34;}
	.st14{fill:#B598F9;}
	.st15{fill:#5290DB;}
	.st16{fill:#C7D7E5;}
	.st17{fill:#C18E6B;}
	.st18{fill:#DAE6F1;}
	.st19{fill:#3CAADC;}
	.st20{fill:#818182;}
	.st21{fill:#CBEFF7;}
	.st22{fill:#FCA265;}
	.st23{fill:#A57453;}
	.st24{fill:#8652D8;}
	.st25{fill:#966AEA;}
	.st26{fill:#FEB872;}
	.st27{fill:#EDB311;}
	.st28{fill:#EF4460;}
</style>
<g id="Layer_1">
</g>
<g id="Layer_2">
</g>
<g id="Layer_3">
</g>
<g id="Layer_4">
</g>
<g id="Layer_5">
</g>
<g id="Layer_6">
</g>
<g id="Layer_7">
</g>
<g id="Layer_8">
</g>
<g id="Layer_9">
</g>
<g id="Layer_10">
</g>
<g id="Layer_11">
</g>
<g id="Layer_12">
</g>
<g id="Layer_13">
</g>
<g id="Layer_14">
</g>
<g id="Layer_15">
</g>
<g id="Layer_16">
</g>
<g id="Layer_17">
</g>
<g id="Layer_18">
</g>
<g id="Layer_19">
</g>
<g id="Layer_20">
</g>
<g id="Layer_21">
</g>
<g id="Layer_22">
</g>
<g id="Layer_23">
</g>
<g id="Layer_24">
</g>
<g id="Layer_25">
</g>
<g id="Layer_26">
</g>
<g id="Layer_27">
</g>
<g id="Layer_28">
</g>
<g id="Layer_29">
</g>
<g id="Layer_30">
</g>
<g id="Layer_31">
</g>
<g id="Layer_32">
</g>
<g id="Layer_33">
</g>
<g id="Layer_34">
</g>
<g id="Layer_35">
</g>
<g id="Layer_36">
</g>
<g id="Layer_37">
</g>
<g id="Layer_38">
</g>
<g id="Layer_39">
	<g>
		<g>
			<g>
				<circle class="st7" cx="128" cy="75.283" r="57"/>
			</g>
		</g>
		<g>
			<g>
				<path class="st0" d="M98.332,219.891c-0.228-4.095-3.093-7.566-7.07-8.568l-12.859-3.236c-6.816-1.715-12.175-4.655-12.106-4.62
					c-2.802-1.382-4.576-4.235-4.576-7.359v-3.865c-3.28,1.717-7.001,2.695-10.942,2.695s-7.662-0.978-10.942-2.695v3.865
					c0,3.12-1.768,5.974-4.566,7.354c-3.791,1.869-7.097,3.362-12.116,4.626l-12.858,3.236c-3.978,1.001-6.842,4.473-7.07,8.568
					l-0.723,12.466c-0.087,1.498,1.104,2.76,2.605,2.76h91.341c1.5,0,2.692-1.262,2.605-2.76L98.332,219.891z"/>
			</g>
		</g>
		<g>
			<g>
				<path class="st1" d="M71.137,142.779c-1.553-1.629-4.078-1.779-5.848-0.389c-2.799,2.197-7.642,4.913-14.483,4.913
					c-6.857,0-11.726-2.729-14.537-4.929c-1.769-1.384-4.289-1.229-5.839,0.396l-0.008,0.009c-2.178,2.284-3.393,5.319-3.393,8.475
					v19.933c0,13.063,10.688,23.75,23.75,23.75c13.063,0,23.75-10.688,23.75-23.75v-19.933
					C74.53,148.098,73.315,145.063,71.137,142.779z"/>
			</g>
		</g>
		<g>
			<g>
				<path class="st1" d="M76.054,153.085c-0.519,0-1.027,0.044-1.524,0.121v17.98c0,0.536-0.024,1.066-0.06,1.593
					c0.517,0.083,1.043,0.138,1.584,0.138c5.476,0,9.916-4.439,9.916-9.916C85.97,157.525,81.531,153.085,76.054,153.085z"/>
			</g>
		</g>
		<g>
			<g>
				<path class="st1" d="M27.029,171.186v-17.98c-0.497-0.077-1.005-0.121-1.524-0.121c-5.477,0-9.916,4.44-9.916,9.916
					c0,5.477,4.44,9.916,9.916,9.916c0.54,0,1.067-0.055,1.584-0.138v0C27.054,172.251,27.029,171.722,27.029,171.186z"/>
			</g>
		</g>
		<g>
			<g>
				<path class="st2" d="M74.442,132.826c-0.795,0-1.485-0.613-1.496-1.409c-0.182-13.234-15.295-15.72-30.346-13.121
					c-12.76,2.203-22.086,13.269-22.086,26.218v9.93c1.467-0.858,3.169-1.358,4.992-1.358c0.519,0,1.027,0.044,1.524,0.121v-1.952
					c0-3.156,1.215-6.191,3.393-8.475l0.008-0.009c1.55-1.625,4.07-1.781,5.839-0.396c2.811,2.2,7.68,4.929,14.537,4.929
					c6.841,0,11.684-2.716,14.483-4.913c1.77-1.39,4.295-1.24,5.848,0.389c2.178,2.284,3.393,5.319,3.393,8.475v1.952
					c0.497-0.077,1.005-0.121,1.524-0.121c1.844,0,3.565,0.513,5.044,1.39v-8.153C81.098,134.472,76.819,132.826,74.442,132.826z"/>
			</g>
		</g>
		<g>
			<g>
				<path class="st5" d="M252.773,219.891c-0.228-4.095-3.093-7.566-7.07-8.568l-12.859-3.236
					c-6.816-1.715-12.175-4.655-12.106-4.62c-2.802-1.382-4.576-4.235-4.576-7.359v-3.865c-3.28,1.717-7.001,2.695-10.942,2.695h0
					c-3.941,0-7.662-0.978-10.942-2.695v3.865c0,3.12-1.768,5.974-4.566,7.354c-3.791,1.869-7.097,3.362-12.116,4.626l-12.859,3.236
					c-3.978,1.001-6.842,4.473-7.07,8.568l-0.723,12.466c-0.087,1.498,1.104,2.76,2.605,2.76h91.341c1.5,0,2.692-1.262,2.605-2.76
					L252.773,219.891z"/>
			</g>
		</g>
		<g>
			<g>
				<path class="st1" d="M225.578,142.779c-1.553-1.629-4.078-1.779-5.848-0.389c-2.799,2.197-7.642,4.913-14.483,4.913
					c-6.857,0-11.726-2.729-14.537-4.929c-1.769-1.384-4.289-1.229-5.839,0.396l-0.008,0.009c-2.178,2.284-3.393,5.319-3.393,8.475
					v19.933c0,13.063,10.688,23.75,23.75,23.75h0c13.063,0,23.75-10.688,23.75-23.75v-19.933
					C228.971,148.098,227.756,145.063,225.578,142.779z"/>
			</g>
		</g>
		<g>
			<g>
				<path class="st1" d="M230.495,153.085c-0.519,0-1.027,0.044-1.524,0.121v17.98c0,0.536-0.024,1.066-0.06,1.593
					c0.517,0.083,1.043,0.138,1.584,0.138c5.477,0,9.916-4.439,9.916-9.916C240.411,157.525,235.971,153.085,230.495,153.085z"/>
			</g>
		</g>
		<g>
			<g>
				<path class="st1" d="M181.47,171.186v-17.98c-0.497-0.077-1.005-0.121-1.524-0.121c-5.476,0-9.916,4.44-9.916,9.916
					c0,5.477,4.44,9.916,9.916,9.916c0.541,0,1.067-0.055,1.584-0.138v0C181.494,172.251,181.47,171.722,181.47,171.186z"/>
			</g>
		</g>
		<g>
			<g>
				<path class="st13" d="M228.882,132.826c-0.795,0-1.485-0.613-1.496-1.409c-0.182-13.234-15.295-15.72-30.346-13.121
					c-12.76,2.203-22.086,13.269-22.086,26.218v9.93c1.467-0.858,3.169-1.358,4.991-1.358c0.519,0,1.027,0.044,1.524,0.121v-1.952
					c0-3.156,1.215-6.191,3.393-8.475l0.008-0.009c1.55-1.625,4.07-1.781,5.839-0.396c2.811,2.2,7.68,4.929,14.537,4.929
					c6.841,0,11.684-2.716,14.483-4.913c1.77-1.39,4.295-1.24,5.848,0.389c2.178,2.284,3.393,5.319,3.393,8.475v1.952
					c0.497-0.077,1.005-0.121,1.524-0.121c1.844,0,3.565,0.513,5.044,1.39v-8.153C235.539,134.472,231.259,132.826,228.882,132.826z
					"/>
			</g>
		</g>
		<g>
			<g>
				<path class="st1" d="M66.298,203.466c-2.802-1.382-4.576-4.235-4.576-7.359v-3.865c-3.28,1.717-7.001,2.695-10.942,2.695
					s-7.662-0.978-10.942-2.695v3.865c0,3.124-1.774,5.977-4.576,7.359c-0.439,0.216-0.871,0.427-1.3,0.634
					c2.488,6.887,9.101,11.844,16.818,11.844c7.709,0,14.317-4.947,16.811-11.822C66.749,203.714,66.277,203.456,66.298,203.466z"/>
			</g>
		</g>
		<g>
			<g>
				<path class="st1" d="M220.738,203.466c-2.802-1.382-4.576-4.235-4.576-7.359v-3.865c-3.28,1.717-7.001,2.695-10.942,2.695h0
					c-3.941,0-7.662-0.978-10.942-2.695v3.865c0,3.124-1.774,5.977-4.576,7.359c-0.439,0.216-0.871,0.427-1.3,0.634
					c2.488,6.887,9.101,11.844,16.819,11.844c7.708,0,14.316-4.947,16.811-11.822C221.189,203.714,220.718,203.456,220.738,203.466z
					"/>
			</g>
		</g>
		<g>
			<g>
				<circle class="st4" cx="128" cy="75.283" r="44"/>
			</g>
		</g>
		<g>
			<g>
				<path class="st4" d="M66.426,70.283h-30.78l3.978-3.978c1.953-1.953,1.953-5.118,0.001-7.071c-1.953-1.953-5.12-1.953-7.071,0
					L20.039,71.748c-0.938,0.938-1.465,2.209-1.465,3.536s0.526,2.598,1.465,3.536l12.515,12.514c1.952,1.953,5.119,1.952,7.07,0
					c1.953-1.953,1.953-5.119,0-7.071l-3.979-3.979h30.78c2.762,0,5-2.239,5-5S69.187,70.283,66.426,70.283z"/>
			</g>
		</g>
		<g>
			<g>
				<path class="st4" d="M235.961,71.748l-12.515-12.514c-1.953-1.952-5.118-1.953-7.071,0c-1.952,1.953-1.952,5.118,0.001,7.071
					l3.978,3.978h-30.78c-2.762,0-5,2.239-5,5s2.238,5,5,5h30.78l-3.979,3.979c-1.953,1.953-1.953,5.119,0,7.071
					c1.952,1.953,5.119,1.952,7.07,0l12.515-12.514c0.938-0.938,1.465-2.209,1.465-3.536S236.899,72.685,235.961,71.748z"/>
			</g>
		</g>
		<g>
			<g>
				<path class="st9" d="M140.506,0c-1.878,0-3.4,1.522-3.4,3.4c0,1.878,1.522,3.4,3.4,3.4c1.878,0,3.4-1.522,3.4-3.4
					C143.906,1.522,142.384,0,140.506,0z"/>
			</g>
		</g>
		<g>
			<g>
				<path class="st5" d="M130.206,227.3h-2.4V225c0-1.8-1.4-3.2-3.2-3.2c-1.7,0-3.2,1.4-3.2,3.1v2.4h-2.3c-1.8,0-3.2,1.4-3.2,3.2
					c-0.1,1.7,1.3,3.2,3.2,3.2h2.3v2.3c0,1.8,1.4,3.2,3.2,3.2c1.7,0,3.2-1.4,3.2-3.1v-2.4h2.3c1.8,0,3.2-1.4,3.2-3.2
					C133.306,228.8,131.906,227.3,130.206,227.3z"/>
			</g>
		</g>
		<g>
			<g>
				<path class="st4" d="M149.506,249.2c-1.878,0-3.4,1.522-3.4,3.4s1.522,3.4,3.4,3.4c1.878,0,3.4-1.522,3.4-3.4
					S151.384,249.2,149.506,249.2z"/>
			</g>
		</g>
		<g>
			<g>
				<path class="st6" d="M111.288,141.4c-3.1-0.6-5.6-3-6.2-6.1c0-0.1-0.3-0.1-0.3,0c-0.6,3.1-3.1,5.5-6.2,6.1c-0.1,0-0.1,0.2,0,0.3
					c3.1,0.6,5.6,3,6.2,6.1c0,0.1,0.3,0.1,0.3,0c0.6-3.1,3.1-5.5,6.2-6.1C111.388,141.6,111.388,141.4,111.288,141.4z"/>
			</g>
		</g>
		<g>
			<g>
				<path class="st6" d="M183.288,22.4c-4.5-0.8-8-4.3-8.9-8.7c0-0.2-0.4-0.2-0.4,0c-0.9,4.4-4.4,7.9-8.9,8.7c-0.2,0-0.2,0.3,0,0.4
					c4.5,0.8,8,4.3,8.9,8.7c0,0.2,0.4,0.2,0.4,0c0.9-4.4,4.4-7.9,8.9-8.7C183.488,22.7,183.488,22.4,183.288,22.4z"/>
			</g>
		</g>
		<g>
			<g>
				<g>
					<path d="M100.828,219.752c-0.29-5.216-3.889-9.578-8.956-10.854l-12.858-3.236c-6.221-1.566-11.221-4.23-11.484-4.372
						c-0.041-0.023-0.083-0.045-0.126-0.066c-1.963-0.968-3.182-2.928-3.182-5.117v-3.865c0-0.875-0.457-1.686-1.205-2.139
						c-0.749-0.453-1.681-0.482-2.454-0.076c-3.056,1.599-6.347,2.41-9.782,2.41c-3.437,0-6.728-0.811-9.783-2.41
						c-0.773-0.406-1.705-0.376-2.454,0.076c-0.748,0.453-1.205,1.264-1.205,2.139v3.865c0,2.155-1.245,4.162-3.171,5.111
						c-3.441,1.697-6.691,3.203-11.621,4.444l-12.858,3.236c-5.067,1.276-8.666,5.638-8.956,10.848l-0.723,12.465
						c-0.081,1.398,0.424,2.785,1.385,3.803c0.961,1.019,2.315,1.603,3.716,1.603H96.45c1.4,0,2.756-0.584,3.717-1.603
						c0.961-1.018,1.466-2.404,1.385-3.802L100.828,219.752z M96.45,232.617H5.109l-0.108-0.116l0.723-12.472
						c0.168-3.019,2.251-5.543,5.185-6.282l12.858-3.236c5.406-1.361,8.91-2.982,12.611-4.808c3.62-1.785,5.96-5.551,5.96-9.596
						v-0.08c5.427,1.855,11.455,1.856,16.884,0v0.08c0,4.068,2.245,7.717,5.868,9.55c0.703,0.435,1.84,0.959,3.73,1.776
						c2.072,0.895,5.311,2.156,8.973,3.077l12.858,3.236c2.934,0.738,5.017,3.263,5.185,6.289l0.694,12.546
						C96.498,232.617,96.466,232.617,96.45,232.617z"/>
				</g>
			</g>
		</g>
		<g>
			<g>
				<g>
					<path d="M72.947,141.054C72.947,141.054,72.947,141.054,72.947,141.054c-2.442-2.56-6.398-2.832-9.202-0.63
						c-2.545,1.998-6.854,4.379-12.939,4.379c-6.098,0-10.433-2.391-12.996-4.398c-2.801-2.191-6.751-1.916-9.197,0.649
						c-2.633,2.761-4.083,6.383-4.083,10.199v19.933c0,14.475,11.776,26.25,26.251,26.25s26.25-11.776,26.25-26.25v-19.933
						C77.03,147.438,75.58,143.815,72.947,141.054z M72.03,171.186c0,11.718-9.532,21.25-21.25,21.25
						c-11.718,0-21.251-9.533-21.251-21.25v-19.933c0-2.525,0.96-4.922,2.711-6.758c0.354-0.372,0.832-0.562,1.316-0.562
						c0.408,0,0.822,0.135,1.172,0.409c3.182,2.491,8.554,5.46,16.077,5.46c7.513,0,12.862-2.961,16.027-5.446
						c0.767-0.603,1.84-0.538,2.495,0.147c1.742,1.827,2.702,4.224,2.702,6.749V171.186z"/>
				</g>
			</g>
		</g>
		<g>
			<g>
				<path d="M83.123,220.771c-1.381,0-2.5,1.119-2.5,2.5v11.457c0,1.381,1.119,2.5,2.5,2.5s2.5-1.119,2.5-2.5v-11.457
					C85.623,221.891,84.504,220.771,83.123,220.771z"/>
			</g>
		</g>
		<g>
			<g>
				<path d="M18.437,220.771c-1.381,0-2.5,1.119-2.5,2.5v11.457c0,1.381,1.119,2.5,2.5,2.5s2.5-1.119,2.5-2.5v-11.457
					C20.937,221.891,19.817,220.771,18.437,220.771z"/>
			</g>
		</g>
		<g>
			<g>
				<g>
					<path d="M74.146,150.736c-1.218,0.189-2.116,1.237-2.116,2.47v17.98c0,0.479-0.022,0.955-0.054,1.426
						c-0.086,1.288,0.821,2.429,2.096,2.634c0.71,0.115,1.358,0.171,1.982,0.171c6.847,0,12.416-5.57,12.416-12.416
						C88.471,155.531,81.838,149.538,74.146,150.736z M77.03,170.354v-14.704c3.63,0.479,6.44,3.594,6.44,7.352
						S80.66,169.875,77.03,170.354z"/>
				</g>
			</g>
		</g>
		<g>
			<g>
				<g>
					<path d="M29.529,171.186v-17.98c0-1.233-0.898-2.281-2.116-2.47c-7.692-1.2-14.324,4.795-14.324,12.266
						c0,6.846,5.569,12.416,12.416,12.416c0.624,0,1.272-0.056,1.982-0.171c1.274-0.206,2.182-1.347,2.096-2.634
						C29.552,172.14,29.529,171.666,29.529,171.186z M24.529,170.354c-3.63-0.479-6.44-3.594-6.44-7.352s2.811-6.873,6.44-7.352
						V170.354z"/>
				</g>
			</g>
		</g>
		<g>
			<g>
				<g>
					<path d="M75.407,130.382c-0.284-4.36-2.038-7.907-5.223-10.551c-7.666-6.366-20.839-5.237-28.01-3.999
						c-14,2.417-24.161,14.48-24.161,28.682v9.929c0,0.896,0.479,1.723,1.256,2.168c0.774,0.445,1.732,0.442,2.505-0.01
						c1.461-0.853,3.108-1.198,4.871-0.925c0.72,0.111,1.456-0.097,2.011-0.572c0.554-0.475,0.873-1.168,0.873-1.898v-1.953
						c0-2.525,0.96-4.922,2.711-6.758c0.653-0.686,1.724-0.752,2.488-0.153c3.182,2.491,8.554,5.46,16.077,5.46
						c7.513,0,12.862-2.961,16.027-5.446c0.767-0.603,1.84-0.538,2.495,0.147c1.742,1.827,2.702,4.224,2.702,6.749v1.953
						c0,0.73,0.319,1.423,0.873,1.898c0.556,0.475,1.288,0.683,2.011,0.572c1.778-0.275,3.44,0.079,4.91,0.949
						c0.393,0.233,0.833,0.35,1.274,0.35c0.427,0,0.854-0.109,1.237-0.328c0.78-0.445,1.263-1.274,1.263-2.172v-8.153
						C83.599,133.646,78.84,130.791,75.407,130.382z M78.599,150.852c-0.521-0.11-1.05-0.187-1.582-0.229
						c-0.15-3.583-1.582-6.961-4.07-9.57c-2.441-2.56-6.397-2.832-9.201-0.63c-2.545,1.998-6.854,4.379-12.939,4.379
						c-6.098,0-10.433-2.391-12.996-4.398c-2.8-2.19-6.75-1.917-9.197,0.649c-2.487,2.609-3.919,5.986-4.069,9.569
						c-0.515,0.04-1.025,0.113-1.529,0.217v-6.327c0-11.762,8.416-21.752,20.013-23.755c10.758-1.858,19.494-0.793,23.964,2.919
						c2.279,1.893,3.41,4.436,3.456,7.773c0.029,2.137,1.821,3.875,3.995,3.875c2.604,0,4.157,4.111,4.157,10.997V150.852z"/>
				</g>
			</g>
		</g>
		<g>
			<g>
				<g>
					<path d="M255.269,219.752c-0.29-5.216-3.889-9.578-8.956-10.854l-12.858-3.236c-6.218-1.565-11.217-4.228-11.484-4.372
						c-0.041-0.023-0.083-0.045-0.126-0.066c-1.963-0.968-3.182-2.928-3.182-5.117v-3.865c0-0.875-0.457-1.686-1.205-2.139
						c-0.75-0.453-1.681-0.482-2.454-0.076c-3.056,1.599-6.347,2.41-9.783,2.41c-3.436,0-6.727-0.811-9.782-2.41
						c-0.774-0.406-1.705-0.376-2.454,0.076c-0.748,0.453-1.205,1.264-1.205,2.139v3.865c0,2.155-1.245,4.162-3.171,5.111
						c-3.441,1.697-6.691,3.203-11.621,4.444l-12.858,3.236c-5.067,1.276-8.666,5.638-8.956,10.847l-0.724,12.466
						c-0.081,1.398,0.424,2.784,1.385,3.802c0.961,1.019,2.316,1.603,3.717,1.603h91.341c1.4,0,2.755-0.584,3.716-1.603
						c0.961-1.018,1.466-2.404,1.385-3.802L255.269,219.752z M250.891,232.617H159.55l-0.109-0.115l0.724-12.472
						c0.168-3.019,2.251-5.543,5.185-6.282l12.858-3.236c5.406-1.361,8.91-2.982,12.611-4.808c3.62-1.785,5.96-5.551,5.96-9.596
						v-0.08c5.43,1.856,11.458,1.855,16.884,0v0.08c0,4.068,2.245,7.717,5.868,9.55c0.703,0.435,1.84,0.959,3.73,1.776
						c2.072,0.895,5.311,2.156,8.973,3.077l12.858,3.236c2.934,0.739,5.017,3.263,5.185,6.288l0.693,12.547
						C250.938,232.617,250.906,232.617,250.891,232.617z"/>
				</g>
			</g>
		</g>
		<g>
			<g>
				<g>
					<path d="M227.388,141.054C227.388,141.054,227.388,141.054,227.388,141.054c-2.442-2.56-6.397-2.832-9.202-0.63
						c-2.544,1.998-6.854,4.379-12.939,4.379c-6.098,0-10.433-2.392-12.996-4.397c-2.799-2.191-6.75-1.917-9.197,0.649
						c-2.633,2.761-4.083,6.383-4.083,10.199v19.933c0,14.475,11.775,26.25,26.25,26.25s26.251-11.776,26.251-26.25v-19.933
						C231.471,147.438,230.021,143.815,227.388,141.054z M226.471,171.186c0,11.718-9.533,21.25-21.251,21.25
						s-21.25-9.533-21.25-21.25v-19.933c0-2.525,0.96-4.922,2.711-6.758c0.354-0.372,0.831-0.562,1.315-0.562
						c0.408,0,0.822,0.135,1.172,0.409c3.184,2.491,8.557,5.46,16.078,5.46c7.513,0,12.862-2.961,16.027-5.446
						c0.767-0.603,1.841-0.539,2.496,0.148c1.741,1.827,2.701,4.224,2.701,6.749V171.186z"/>
				</g>
			</g>
		</g>
		<g>
			<g>
				<path d="M237.563,220.771c-1.381,0-2.5,1.119-2.5,2.5v11.457c0,1.381,1.119,2.5,2.5,2.5s2.5-1.119,2.5-2.5v-11.457
					C240.063,221.891,238.944,220.771,237.563,220.771z"/>
			</g>
		</g>
		<g>
			<g>
				<path d="M172.877,220.771c-1.381,0-2.5,1.119-2.5,2.5v11.457c0,1.381,1.119,2.5,2.5,2.5s2.5-1.119,2.5-2.5v-11.457
					C175.377,221.891,174.258,220.771,172.877,220.771z"/>
			</g>
		</g>
		<g>
			<g>
				<g>
					<path d="M228.587,150.736c-1.218,0.189-2.116,1.237-2.116,2.47v17.98c0,0.479-0.022,0.955-0.054,1.426
						c-0.086,1.288,0.821,2.429,2.096,2.634c0.71,0.115,1.358,0.171,1.982,0.171c6.846,0,12.415-5.57,12.415-12.416
						C242.91,155.531,236.278,149.538,228.587,150.736z M231.471,170.354v-14.704c3.629,0.479,6.439,3.594,6.439,7.352
						S235.1,169.875,231.471,170.354z"/>
				</g>
			</g>
		</g>
		<g>
			<g>
				<g>
					<path d="M183.97,171.186v-17.98c0-1.233-0.898-2.281-2.116-2.47c-7.697-1.2-14.324,4.795-14.324,12.266
						c0,6.846,5.569,12.416,12.416,12.416c0.624,0,1.272-0.056,1.982-0.171c1.274-0.206,2.182-1.347,2.096-2.634
						C183.992,172.14,183.97,171.666,183.97,171.186z M178.97,170.354c-3.63-0.479-6.44-3.594-6.44-7.352s2.811-6.873,6.44-7.352
						V170.354z"/>
				</g>
			</g>
		</g>
		<g>
			<g>
				<g>
					<path d="M229.847,130.382c-0.284-4.361-2.037-7.907-5.222-10.551c-7.665-6.364-20.839-5.237-28.01-3.999
						c-14,2.417-24.161,14.48-24.161,28.682v9.929c0,0.896,0.479,1.723,1.256,2.168c0.774,0.445,1.732,0.442,2.505-0.01
						c1.461-0.853,3.106-1.198,4.871-0.925c0.719,0.111,1.456-0.097,2.011-0.572c0.554-0.475,0.873-1.168,0.873-1.898v-1.953
						c0-2.525,0.96-4.922,2.711-6.758c0.652-0.686,1.723-0.752,2.487-0.153c3.184,2.491,8.557,5.46,16.078,5.46
						c7.513,0,12.862-2.961,16.027-5.446c0.767-0.603,1.84-0.538,2.495,0.147c1.742,1.827,2.702,4.224,2.702,6.749v1.953
						c0,0.73,0.319,1.423,0.873,1.898c0.556,0.475,1.29,0.683,2.011,0.572c1.78-0.275,3.44,0.079,4.91,0.949
						c0.393,0.233,0.833,0.35,1.274,0.35c0.427,0,0.854-0.109,1.237-0.328c0.781-0.445,1.263-1.274,1.263-2.172v-8.153
						C238.039,133.645,233.279,130.791,229.847,130.382z M233.039,150.852c-0.521-0.11-1.05-0.187-1.582-0.229
						c-0.15-3.583-1.582-6.961-4.07-9.57c-2.441-2.56-6.396-2.832-9.201-0.63c-2.544,1.998-6.854,4.379-12.939,4.379
						c-6.098,0-10.433-2.392-12.996-4.397c-2.799-2.191-6.75-1.917-9.197,0.649c-2.487,2.609-3.919,5.986-4.069,9.569
						c-0.515,0.04-1.025,0.113-1.529,0.217v-6.327c0-11.762,8.416-21.752,20.013-23.755c10.758-1.858,19.494-0.793,23.964,2.919
						c2.279,1.893,3.409,4.436,3.455,7.776c0.031,2.135,1.824,3.872,3.996,3.872c2.604,0,4.157,4.111,4.157,10.997V150.852z"/>
				</g>
			</g>
		</g>
		<g>
			<g>
				<g>
					<path d="M128,28.783c-25.641,0-46.5,20.86-46.5,46.5s20.859,46.5,46.5,46.5s46.5-20.86,46.5-46.5S153.641,28.783,128,28.783z
						 M128,116.783c-22.883,0-41.5-18.617-41.5-41.5s18.617-41.5,41.5-41.5s41.5,18.617,41.5,41.5S150.883,116.783,128,116.783z"/>
				</g>
			</g>
		</g>
		<g>
			<g>
				<path d="M150.165,60.103c-0.968-0.372-2.062-0.107-2.754,0.662l-7.035,7.817l-7.035-7.817c-0.691-0.769-1.788-1.032-2.754-0.662
					c-0.967,0.371-1.604,1.299-1.604,2.334V88.13c0,1.381,1.119,2.5,2.5,2.5s2.5-1.119,2.5-2.5V68.952l4.535,5.039
					c0.949,1.054,2.768,1.054,3.717,0l4.535-5.039V88.13c0,1.381,1.119,2.5,2.5,2.5s2.5-1.119,2.5-2.5V62.437
					C151.77,61.402,151.132,60.474,150.165,60.103z"/>
			</g>
		</g>
		<g>
			<g>
				<path d="M120.565,85.63H109.23v-8.37c0-1.346,1.095-2.441,2.44-2.441h3.953c4.104,0,7.441-3.338,7.441-7.441
					s-3.338-7.441-7.441-7.441h-8.894c-1.381,0-2.5,1.119-2.5,2.5s1.119,2.5,2.5,2.5h8.894c1.347,0,2.441,1.095,2.441,2.441
					s-1.095,2.441-2.441,2.441h-3.953c-4.103,0-7.44,3.338-7.44,7.441v10.87c0,1.381,1.119,2.5,2.5,2.5h13.835
					c1.381,0,2.5-1.119,2.5-2.5S121.946,85.63,120.565,85.63z"/>
			</g>
		</g>
		<g>
			<g>
				<g>
					<path d="M66.426,67.783H41.667c2.646-2.94,2.555-7.487-0.274-10.316c-1.417-1.417-3.3-2.197-5.304-2.197
						s-3.888,0.78-5.303,2.196L18.272,69.979c-1.418,1.416-2.198,3.3-2.198,5.304s0.78,3.888,2.197,5.303L30.785,93.1
						c1.416,1.417,3.3,2.197,5.304,2.197s3.888-0.78,5.303-2.196c1.417-1.417,2.197-3.3,2.197-5.304c0-1.87-0.68-3.636-1.923-5.014
						h24.76c4.136,0,7.5-3.364,7.5-7.5S70.562,67.783,66.426,67.783z M66.426,77.783h-30.78c-1.011,0-1.923,0.609-2.31,1.543
						c-0.387,0.934-0.173,2.009,0.542,2.724l3.979,3.979c0.473,0.472,0.732,1.1,0.732,1.768s-0.26,1.295-0.733,1.769
						c-0.941,0.943-2.589,0.944-3.534,0L21.806,77.05c-0.472-0.472-0.731-1.099-0.731-1.767s0.26-1.295,0.732-1.768l12.516-12.515
						c0.471-0.472,1.099-0.731,1.767-0.731s1.296,0.26,1.769,0.732c0.974,0.975,0.974,2.561-0.001,3.535l-3.979,3.978
						c-0.715,0.715-0.929,1.791-0.542,2.725s1.299,1.543,2.31,1.543h30.78c1.379,0,2.5,1.122,2.5,2.5S67.805,77.783,66.426,77.783z"
						/>
				</g>
			</g>
		</g>
		<g>
			<g>
				<g>
					<path d="M237.728,69.979l-12.514-12.513c-2.928-2.924-7.685-2.923-10.606,0.001c-2.829,2.83-2.921,7.376-0.274,10.316h-24.759
						c-4.136,0-7.5,3.364-7.5,7.5s3.364,7.5,7.5,7.5h24.76c-1.243,1.379-1.923,3.144-1.923,5.014c0,2.003,0.78,3.887,2.196,5.303
						c1.416,1.417,3.3,2.197,5.304,2.197s3.888-0.78,5.303-2.197l12.514-12.513c1.418-1.416,2.198-3.3,2.198-5.304
						S239.146,71.395,237.728,69.979z M234.193,77.051l-12.516,12.515c-0.941,0.943-2.589,0.944-3.534-0.001
						c-0.473-0.472-0.732-1.1-0.732-1.768s0.26-1.295,0.732-1.768l3.979-3.979c0.715-0.715,0.929-1.79,0.542-2.724
						c-0.387-0.935-1.299-1.543-2.31-1.543h-30.78c-1.379,0-2.5-1.122-2.5-2.5s1.121-2.5,2.5-2.5h30.78
						c1.011,0,1.923-0.609,2.31-1.543s0.173-2.009-0.542-2.725l-3.979-3.978c-0.975-0.975-0.975-2.561-0.001-3.535
						c0.974-0.974,2.561-0.976,3.536,0l12.515,12.514c0,0,0,0,0.001,0c0.472,0.472,0.731,1.099,0.731,1.767
						S234.666,76.579,234.193,77.051z"/>
				</g>
			</g>
		</g>
		<g>
			<g>
				<g>
					<path d="M68.682,201.873c-0.65-0.315-1.059-0.532-1.158-0.585c-0.039-0.022-0.079-0.043-0.12-0.063
						c-1.963-0.968-3.182-2.928-3.182-5.117v-3.865c0-0.875-0.457-1.686-1.205-2.139c-0.749-0.453-1.681-0.482-2.454-0.076
						c-3.056,1.599-6.347,2.41-9.782,2.41c-3.437,0-6.728-0.811-9.783-2.41c-0.773-0.406-1.705-0.376-2.454,0.076
						c-0.748,0.453-1.205,1.264-1.205,2.139v3.865c0,2.188-1.219,4.149-3.182,5.117c0,0,0,0-0.001,0
						c-0.431,0.213-0.855,0.42-1.277,0.623c-1.156,0.556-1.704,1.896-1.269,3.103c2.917,8.071,10.621,13.495,19.171,13.495
						c8.538,0,16.238-5.413,19.161-13.469C70.378,203.771,69.834,202.432,68.682,201.873z M50.78,213.444
						c-5.717,0-10.933-3.217-13.58-8.192c3.191-1.934,5.138-5.357,5.138-9.145v-0.08c5.427,1.855,11.455,1.856,16.884,0v0.08
						c0,3.787,1.946,7.211,5.138,9.145C61.713,210.227,56.494,213.444,50.78,213.444z"/>
				</g>
			</g>
		</g>
		<g>
			<g>
				<g>
					<path d="M223.122,201.873c-0.65-0.315-1.059-0.532-1.158-0.585c-0.039-0.022-0.079-0.043-0.12-0.063
						c-1.963-0.968-3.182-2.928-3.182-5.117v-3.865c0-0.875-0.457-1.686-1.205-2.139c-0.75-0.453-1.681-0.482-2.454-0.076
						c-3.056,1.599-6.347,2.41-9.783,2.41c-3.436,0-6.727-0.811-9.782-2.41c-0.774-0.406-1.705-0.376-2.454,0.076
						c-0.748,0.453-1.205,1.264-1.205,2.139v3.865c0,2.188-1.219,4.148-3.181,5.116c-0.432,0.213-0.856,0.42-1.279,0.624
						c-1.156,0.556-1.704,1.896-1.269,3.103c2.917,8.071,10.62,13.495,19.17,13.495c8.538,0,16.239-5.413,19.162-13.469
						C224.818,203.771,224.274,202.432,223.122,201.873z M205.22,213.444c-5.716,0-10.933-3.217-13.579-8.192
						c3.191-1.934,5.138-5.357,5.138-9.145v-0.08c5.43,1.856,11.458,1.855,16.884,0v0.08c0,3.787,1.946,7.211,5.138,9.145
						C216.153,210.227,210.935,213.444,205.22,213.444z"/>
				</g>
			</g>
		</g>
	</g>
</g>
<g id="Layer_40">
</g>
<g id="Layer_41">
</g>
<g id="Layer_42">
</g>
<g id="Layer_43">
</g>
<g id="Layer_44">
</g>
<g id="Layer_45">
</g>
<g id="Layer_46">
</g>
<g id="Layer_47">
</g>
<g id="Layer_48">
</g>
<g id="Layer_49">
</g>
<g id="Layer_50">
</g>
<g id="Layer_51">
</g>
<g id="Layer_52">
</g>
<g id="Layer_53">
</g>
<g id="Layer_54">
</g>
<g id="Layer_55">
</g>
<g id="Layer_56">
</g>
<g id="Layer_57">
</g>
<g id="Layer_58">
</g>
<g id="Layer_59">
</g>
<g id="Layer_60">
</g>
<g id="Layer_61">
</g>
<g id="Layer_62">
</g>
<g id="Layer_63">
</g>
<g id="Layer_64">
</g>
<g id="Layer_65">
</g>
<g id="Layer_66">
</g>
<g id="Layer_67">
</g>
<g id="Layer_68">
</g>
<g id="Layer_69">
</g>
<g id="Layer_70">
</g>
<g id="Layer_71">
</g>
<g id="Layer_72">
</g>
<g id="Layer_73">
</g>
<g id="Layer_74">
</g>
<g id="Layer_75">
</g>
<g id="Layer_76">
</g>
<g id="Layer_77">
</g>
<g id="Layer_78">
</g>
<g id="Layer_79">
</g>
<g id="Layer_80">
</g>
</svg>
