<?xml version="1.0" encoding="utf-8"?>
<!-- Generator: Adobe Illustrator 24.0.0, SVG Export Plug-In . SVG Version: 6.00 Build 0)  -->
<svg version="1.1" xmlns="http://www.w3.org/2000/svg" xmlns:xlink="http://www.w3.org/1999/xlink" x="0px" y="0px"
	 viewBox="0 0 256 256" style="enable-background:new 0 0 256 256;" xml:space="preserve">
<style type="text/css">
	.st0{fill:#6CADEF;}
	.st1{fill:#F9D0B4;}
	.st2{fill:#5B5D60;}
	.st3{fill:#9BE5F9;}
	.st4{fill:#FC657E;}
	.st5{fill:#70D6F9;}
	.st6{fill:#F5C84C;}
	.st7{fill:#F98FA6;}
	.st8{fill:#FED690;}
	.st9{fill:#87D147;}
	.st10{fill:#B2E26D;}
	.st11{fill:#EDF4FC;}
	.st12{fill:#FCDD86;}
	.st13{fill:#754E34;}
	.st14{fill:#B598F9;}
	.st15{fill:#5290DB;}
	.st16{fill:#C7D7E5;}
	.st17{fill:#C18E6B;}
	.st18{fill:#DAE6F1;}
	.st19{fill:#3CAADC;}
	.st20{fill:#818182;}
	.st21{fill:#CBEFF7;}
	.st22{fill:#FCA265;}
	.st23{fill:#A57453;}
	.st24{fill:#8652D8;}
	.st25{fill:#966AEA;}
	.st26{fill:#FEB872;}
	.st27{fill:#EDB311;}
	.st28{fill:#EF4460;}
</style>
<g id="Layer_1">
</g>
<g id="Layer_2">
</g>
<g id="Layer_3">
</g>
<g id="Layer_4">
</g>
<g id="Layer_5">
</g>
<g id="Layer_6">
</g>
<g id="Layer_7">
</g>
<g id="Layer_8">
</g>
<g id="Layer_9">
</g>
<g id="Layer_10">
</g>
<g id="Layer_11">
</g>
<g id="Layer_12">
</g>
<g id="Layer_13">
</g>
<g id="Layer_14">
</g>
<g id="Layer_15">
</g>
<g id="Layer_16">
</g>
<g id="Layer_17">
</g>
<g id="Layer_18">
</g>
<g id="Layer_19">
</g>
<g id="Layer_20">
</g>
<g id="Layer_21">
</g>
<g id="Layer_22">
</g>
<g id="Layer_23">
</g>
<g id="Layer_24">
</g>
<g id="Layer_25">
	<g>
		<g>
			<g>
				<path class="st20" d="M153.102,2.5h-50.204c-2.981,0-5.398,2.417-5.398,5.398v22.204c0,2.981,2.417,5.398,5.398,5.398h50.204
					c2.981,0,5.398-2.417,5.398-5.398V7.898C158.5,4.917,156.083,2.5,153.102,2.5z"/>
			</g>
		</g>
		<g>
			<g>
				<path class="st3" d="M149.169,35.5h-42.341c-2.762,0-5.001,2.239-5,5.001c0.001,2.761,2.239,4.999,5,4.999h42.347
					c2.76,0,4.997-2.237,4.997-4.997C154.172,37.74,151.932,35.5,149.169,35.5z"/>
			</g>
		</g>
		<g>
			<g>
				<path class="st21" d="M158.045,55.918c-4.613-1.507-7.823-5.675-7.869-10.519c-0.324,0.066-0.659,0.101-1.002,0.101h-42.347
					c-0.344,0-0.68-0.035-1.005-0.101c-0.045,4.844-3.255,9.012-7.869,10.519c-15.645,5.11-27.031,19.872-27.031,37.167v146.684
					c0,7.553,6.179,13.732,13.732,13.732h86.688c7.552,0,13.732-6.179,13.732-13.732V93.084
					C185.076,75.79,173.691,61.028,158.045,55.918z"/>
			</g>
		</g>
		<g>
			<g>
				<path class="st5" d="M178.523,71.5H77.477c-4.134,6.195-6.553,13.62-6.553,21.584v146.684c0,7.553,6.179,13.732,13.732,13.732
					h86.688c7.552,0,13.732-6.179,13.732-13.732V93.084C185.076,85.12,182.657,77.695,178.523,71.5z"/>
			</g>
		</g>
		<g>
			<g>
				<rect x="70.924" y="113.181" class="st11" width="114.152" height="98.637"/>
			</g>
		</g>
		<g>
			<g>
				<path class="st12" d="M169.215,125.805H86.785c-1.797,0-3.253,1.456-3.253,3.253v66.885c0,1.797,1.456,3.253,3.253,3.253h82.429
					c1.797,0,3.253-1.456,3.253-3.253v-66.885C172.468,127.261,171.011,125.805,169.215,125.805z"/>
			</g>
		</g>
		<g>
			<g>
				<path class="st4" d="M216.206,200.1h-2.4v-2.3c0-1.8-1.4-3.2-3.2-3.2c-1.7,0-3.2,1.4-3.2,3.1v2.4h-2.3c-1.8,0-3.2,1.4-3.2,3.2
					c-0.1,1.7,1.3,3.2,3.2,3.2h2.3v2.3c0,1.8,1.4,3.2,3.2,3.2c1.7,0,3.2-1.4,3.2-3.1v-2.4h2.3c1.8,0,3.2-1.4,3.2-3.2
					C219.306,201.6,217.906,200.1,216.206,200.1z"/>
			</g>
		</g>
		<g>
			<g>
				<path class="st6" d="M203.506,231.5c-1.878,0-3.4,1.522-3.4,3.4c0,1.878,1.522,3.4,3.4,3.4c1.878,0,3.4-1.522,3.4-3.4
					C206.906,233.022,205.384,231.5,203.506,231.5z"/>
			</g>
		</g>
		<g>
			<g>
				<path class="st9" d="M79.506,0c-1.878,0-3.4,1.522-3.4,3.4c0,1.878,1.522,3.4,3.4,3.4c1.878,0,3.4-1.522,3.4-3.4
					C82.906,1.522,81.384,0,79.506,0z"/>
			</g>
		</g>
		<g>
			<g>
				<path class="st5" d="M57.288,125.2c-3.1-0.6-5.6-3-6.2-6.1c0-0.1-0.3-0.1-0.3,0c-0.6,3.1-3.1,5.5-6.2,6.1c-0.1,0-0.1,0.2,0,0.3
					c3.1,0.6,5.6,3,6.2,6.1c0,0.1,0.3,0.1,0.3,0c0.6-3.1,3.1-5.5,6.2-6.1C57.388,125.4,57.388,125.2,57.288,125.2z"/>
			</g>
		</g>
		<g>
			<g>
				<path class="st6" d="M73.288,27.2c-4.5-0.8-8-4.3-8.9-8.7c0-0.2-0.4-0.2-0.4,0c-0.9,4.4-4.4,7.9-8.9,8.7c-0.2,0-0.2,0.3,0,0.4
					c4.5,0.8,8,4.3,8.9,8.7c0,0.2,0.4,0.2,0.4,0c0.9-4.4,4.4-7.9,8.9-8.7C73.488,27.5,73.488,27.2,73.288,27.2z"/>
			</g>
		</g>
		<g>
			<g>
				<g>
					<path d="M153.102,0h-50.203C98.543,0,95,3.543,95,7.898v22.204C95,34.457,98.543,38,102.898,38h50.203
						c4.355,0,7.898-3.543,7.898-7.898V7.898C161,3.543,157.457,0,153.102,0z M156,30.102C156,31.7,154.7,33,153.102,33h-50.203
						C101.3,33,100,31.7,100,30.102V7.898C100,6.3,101.3,5,102.898,5h50.203C154.7,5,156,6.3,156,7.898V30.102z"/>
				</g>
			</g>
		</g>
		<g>
			<g>
				<g>
					<path d="M149.169,33h-42.341c-2.004,0-3.887,0.78-5.304,2.197s-2.197,3.301-2.196,5.304c0,4.135,3.364,7.499,7.5,7.499h42.347
						c4.134,0,7.497-3.363,7.497-7.497C156.672,36.366,153.306,33,149.169,33z M149.175,43h-42.347c-1.379,0-2.5-1.121-2.5-2.5
						c0-0.667,0.26-1.295,0.731-1.768C105.532,38.26,106.16,38,106.828,38h42.341c1.38,0,2.503,1.123,2.503,2.503
						C151.672,41.88,150.552,43,149.175,43z"/>
				</g>
			</g>
		</g>
		<g>
			<g>
				<g>
					<path d="M158.821,53.542c-3.641-1.189-6.11-4.471-6.145-8.166c-0.007-0.747-0.348-1.451-0.928-1.921
						c-0.58-0.469-1.338-0.655-2.072-0.506c-0.164,0.034-0.333,0.051-0.502,0.051h-42.347c-0.17,0-0.341-0.017-0.507-0.051
						c-0.729-0.149-1.49,0.037-2.071,0.506c-0.58,0.47-0.92,1.174-0.927,1.92c-0.034,3.695-2.504,6.976-6.145,8.166
						C79.979,59.159,68.424,75.05,68.424,93.084v146.684c0,8.95,7.282,16.232,16.232,16.232h86.688
						c8.95,0,16.232-7.282,16.232-16.232V93.084C187.576,75.05,176.021,59.159,158.821,53.542z M182.576,239.768
						c0,6.193-5.039,11.232-11.232,11.232H84.656c-6.193,0-11.232-5.039-11.232-11.232V93.084c0-15.865,10.17-29.846,25.308-34.79
						c4.829-1.578,8.339-5.55,9.316-10.294h39.904c0.978,4.744,4.486,8.716,9.316,10.294c15.138,4.944,25.308,18.925,25.308,34.79
						V239.768z"/>
				</g>
			</g>
		</g>
		<g>
			<g>
				<g>
					<g>
						<g>
							<path d="M102.497,156.787h-9.639c-1.381,0-2.5,1.119-2.5,2.5v11.781c0,4.331,3.524,7.855,7.855,7.855h4.283
								c4.331,0,7.855-3.524,7.855-7.855v-6.426C110.353,160.311,106.828,156.787,102.497,156.787z M105.353,171.068
								c0,1.574-1.281,2.855-2.855,2.855h-4.283c-1.574,0-2.855-1.281-2.855-2.855v-9.281h7.139c1.574,0,2.855,1.281,2.855,2.855
								V171.068z"/>
						</g>
					</g>
				</g>
				<g>
					<g>
						<path d="M102.497,146.077h-4.283c-4.331,0-7.855,3.524-7.855,7.855v5.355c0,1.381,1.119,2.5,2.5,2.5s2.5-1.119,2.5-2.5v-5.355
							c0-1.574,1.281-2.855,2.855-2.855h4.283c1.574,0,2.855,1.281,2.855,2.855c0,1.381,1.119,2.5,2.5,2.5s2.5-1.119,2.5-2.5
							C110.353,149.601,106.828,146.077,102.497,146.077z"/>
					</g>
				</g>
			</g>
			<g>
				<g>
					<g>
						<g>
							<path d="M126.061,146.077h-4.284c-4.331,0-7.855,3.524-7.855,7.855v17.137c0,4.331,3.524,7.855,7.855,7.855h4.284
								c4.331,0,7.854-3.524,7.854-7.855v-17.137C133.915,149.601,130.392,146.077,126.061,146.077z M128.915,171.068
								c0,1.574-1.28,2.855-2.854,2.855h-4.284c-1.574,0-2.855-1.281-2.855-2.855v-17.137c0-1.574,1.281-2.855,2.855-2.855h4.284
								c1.574,0,2.854,1.281,2.854,2.855V171.068z"/>
						</g>
					</g>
				</g>
				<g>
					<g>
						<path d="M130.235,147.34c-1.275-0.531-2.738,0.071-3.27,1.346l-10.711,25.705c-0.531,1.274,0.071,2.738,1.346,3.269
							c0.314,0.131,0.641,0.193,0.961,0.193c0.979,0,1.908-0.579,2.309-1.539l10.711-25.705
							C132.112,149.334,131.51,147.871,130.235,147.34z"/>
					</g>
				</g>
			</g>
			<g>
				<g>
					<g>
						<path d="M160.716,146.375c-1.214-0.655-2.732-0.2-3.387,1.016l-14.994,27.847c-0.654,1.215-0.2,2.731,1.016,3.386
							c0.377,0.203,0.783,0.299,1.184,0.299c0.89,0,1.752-0.477,2.203-1.315l14.994-27.847
							C162.386,148.546,161.932,147.03,160.716,146.375z"/>
					</g>
				</g>
				<g>
					<g>
						<g>
							<path d="M158.598,161.806c-3.884,0-7.044,3.16-7.044,7.044v3.03c0,3.884,3.16,7.044,7.044,7.044s7.044-3.16,7.044-7.044
								v-3.03C165.642,164.965,162.481,161.806,158.598,161.806z M160.642,171.879c0,1.127-0.917,2.044-2.044,2.044
								s-2.044-0.917-2.044-2.044v-3.03c0-1.127,0.917-2.044,2.044-2.044s2.044,0.917,2.044,2.044V171.879z"/>
						</g>
					</g>
				</g>
				<g>
					<g>
						<g>
							<path d="M145.469,146.077c-3.884,0-7.044,3.16-7.044,7.044v3.03c0,3.884,3.16,7.044,7.044,7.044s7.044-3.16,7.044-7.044
								v-3.03C152.513,149.236,149.353,146.077,145.469,146.077z M147.513,156.15c0,1.127-0.917,2.044-2.044,2.044
								s-2.044-0.917-2.044-2.044v-3.03c0-1.127,0.917-2.044,2.044-2.044s2.044,0.917,2.044,2.044V156.15z"/>
						</g>
					</g>
				</g>
			</g>
		</g>
		<g>
			<g>
				<g>
					<path d="M158.821,53.542c-3.641-1.189-6.11-4.471-6.145-8.166c-0.007-0.747-0.348-1.451-0.928-1.921
						c-0.58-0.469-1.338-0.655-2.072-0.506c-0.164,0.034-0.333,0.051-0.502,0.051h-42.347c-0.17,0-0.341-0.017-0.507-0.051
						c-0.729-0.149-1.49,0.037-2.071,0.506c-0.58,0.47-0.92,1.174-0.927,1.92c-0.034,3.695-2.504,6.976-6.145,8.166
						C79.979,59.159,68.424,75.05,68.424,93.084v146.684c0,8.95,7.282,16.232,16.232,16.232h86.688
						c8.95,0,16.232-7.282,16.232-16.232V93.084C187.576,75.05,176.021,59.159,158.821,53.542z M182.576,239.768
						c0,6.193-5.039,11.232-11.232,11.232H84.656c-6.193,0-11.232-5.039-11.232-11.232V93.084c0-15.865,10.17-29.846,25.308-34.79
						c4.829-1.578,8.339-5.55,9.316-10.294h39.904c0.978,4.744,4.486,8.716,9.316,10.294c15.138,4.944,25.308,18.925,25.308,34.79
						V239.768z"/>
				</g>
			</g>
		</g>
		<g>
			<g>
				<g>
					<path d="M180.604,70.113c-0.464-0.695-1.244-1.113-2.08-1.113H77.477c-0.836,0-1.616,0.417-2.08,1.113
						c-4.562,6.838-6.973,14.782-6.973,22.972v146.684c0,8.95,7.282,16.232,16.232,16.232h86.688c8.95,0,16.232-7.282,16.232-16.232
						V93.084C187.576,84.895,185.165,76.951,180.604,70.113z M182.576,239.768c0,6.193-5.039,11.232-11.232,11.232H84.656
						c-6.193,0-11.232-5.039-11.232-11.232V93.084c0-6.759,1.869-13.329,5.419-19.084h98.314c3.55,5.755,5.419,12.325,5.419,19.084
						V239.768z"/>
				</g>
			</g>
		</g>
		<g>
			<g>
				<g>
					<path d="M185.076,110.681H70.924c-1.381,0-2.5,1.119-2.5,2.5v98.637c0,1.381,1.119,2.5,2.5,2.5h114.152
						c1.381,0,2.5-1.119,2.5-2.5v-98.637C187.576,111.8,186.457,110.681,185.076,110.681z M182.576,209.318H73.424v-93.637h109.152
						V209.318z"/>
				</g>
			</g>
		</g>
		<g>
			<g>
				<g>
					<path d="M169.215,123.305h-82.43c-3.172,0-5.753,2.581-5.753,5.752v66.885c0,3.172,2.581,5.753,5.753,5.753h82.43
						c3.172,0,5.753-2.581,5.753-5.753v-66.885C174.968,125.885,172.387,123.305,169.215,123.305z M169.968,195.942
						c0,0.415-0.338,0.753-0.753,0.753h-82.43c-0.415,0-0.753-0.338-0.753-0.753v-66.885c0-0.415,0.338-0.752,0.753-0.752h82.43
						c0.415,0,0.753,0.337,0.753,0.752V195.942z"/>
				</g>
			</g>
		</g>
	</g>
</g>
<g id="Layer_26">
</g>
<g id="Layer_27">
</g>
<g id="Layer_28">
</g>
<g id="Layer_29">
</g>
<g id="Layer_30">
</g>
<g id="Layer_31">
</g>
<g id="Layer_32">
</g>
<g id="Layer_33">
</g>
<g id="Layer_34">
</g>
<g id="Layer_35">
</g>
<g id="Layer_36">
</g>
<g id="Layer_37">
</g>
<g id="Layer_38">
</g>
<g id="Layer_39">
</g>
<g id="Layer_40">
</g>
<g id="Layer_41">
</g>
<g id="Layer_42">
</g>
<g id="Layer_43">
</g>
<g id="Layer_44">
</g>
<g id="Layer_45">
</g>
<g id="Layer_46">
</g>
<g id="Layer_47">
</g>
<g id="Layer_48">
</g>
<g id="Layer_49">
</g>
<g id="Layer_50">
</g>
<g id="Layer_51">
</g>
<g id="Layer_52">
</g>
<g id="Layer_53">
</g>
<g id="Layer_54">
</g>
<g id="Layer_55">
</g>
<g id="Layer_56">
</g>
<g id="Layer_57">
</g>
<g id="Layer_58">
</g>
<g id="Layer_59">
</g>
<g id="Layer_60">
</g>
<g id="Layer_61">
</g>
<g id="Layer_62">
</g>
<g id="Layer_63">
</g>
<g id="Layer_64">
</g>
<g id="Layer_65">
</g>
<g id="Layer_66">
</g>
<g id="Layer_67">
</g>
<g id="Layer_68">
</g>
<g id="Layer_69">
</g>
<g id="Layer_70">
</g>
<g id="Layer_71">
</g>
<g id="Layer_72">
</g>
<g id="Layer_73">
</g>
<g id="Layer_74">
</g>
<g id="Layer_75">
</g>
<g id="Layer_76">
</g>
<g id="Layer_77">
</g>
<g id="Layer_78">
</g>
<g id="Layer_79">
</g>
<g id="Layer_80">
</g>
</svg>
