<?xml version="1.0" encoding="utf-8"?>
<!-- Generator: Adobe Illustrator 24.0.0, SVG Export Plug-In . SVG Version: 6.00 Build 0)  -->
<svg version="1.1" xmlns="http://www.w3.org/2000/svg" xmlns:xlink="http://www.w3.org/1999/xlink" x="0px" y="0px"
	 viewBox="0 0 256 256" style="enable-background:new 0 0 256 256;" xml:space="preserve">
<style type="text/css">
	.st0{fill:#6CADEF;}
	.st1{fill:#F9D0B4;}
	.st2{fill:#5B5D60;}
	.st3{fill:#9BE5F9;}
	.st4{fill:#FC657E;}
	.st5{fill:#70D6F9;}
	.st6{fill:#F5C84C;}
	.st7{fill:#F98FA6;}
	.st8{fill:#FED690;}
	.st9{fill:#87D147;}
	.st10{fill:#B2E26D;}
	.st11{fill:#EDF4FC;}
	.st12{fill:#FCDD86;}
	.st13{fill:#754E34;}
	.st14{fill:#B598F9;}
	.st15{fill:#5290DB;}
	.st16{fill:#C7D7E5;}
	.st17{fill:#C18E6B;}
	.st18{fill:#DAE6F1;}
	.st19{fill:#3CAADC;}
	.st20{fill:#818182;}
	.st21{fill:#CBEFF7;}
	.st22{fill:#FCA265;}
	.st23{fill:#A57453;}
	.st24{fill:#8652D8;}
	.st25{fill:#966AEA;}
	.st26{fill:#FEB872;}
	.st27{fill:#EDB311;}
	.st28{fill:#EF4460;}
</style>
<g id="Layer_1">
</g>
<g id="Layer_2">
</g>
<g id="Layer_3">
</g>
<g id="Layer_4">
	<g>
		<g>
			<g>
				
					<ellipse transform="matrix(0.1222 -0.9925 0.9925 0.1222 49.0296 183.0537)" class="st5" cx="128" cy="63.809" rx="61.921" ry="61.921"/>
			</g>
		</g>
		<g>
			<g>
				<path class="st10" d="M159.96,10.767c-3.183,0.808-8.885,3.122-11.576,9.582c-3.66,8.783,12.307,2.308,16.153,12.307
					c3.846,10,3.846,12.307,10,14.615c6.154,2.308,6.923,18.461-2.308,22.307c-9.23,3.846-16.922,13.846-13.846,20.768
					c3.077,6.923,3.846,13.846-1.538,19.23c-2.891,2.891-2.677,6.89-1.859,9.975c20.677-10.029,34.935-31.219,34.935-55.743
					C189.921,41.305,177.915,21.609,159.96,10.767z"/>
			</g>
		</g>
		<g>
			<g>
				<path class="st10" d="M128.385,30.349c6.267-2.611,6.861-5.931,6.596-7.794c-0.123-0.865-0.686-1.615-1.484-1.968
					c-9.211-4.076-22.517,5.774-35.111,2.071c-5.758-1.694-10.619-2.343-14.259-2.539c-9.041,9.079-15.284,20.946-17.323,34.2
					c4.176,2.531,8.506,5.921,8.506,9.107c0,3.235-4.463,6.255-8.697,8.395c2.495,19.299,13.863,35.807,29.891,45.298
					c1.24-6.74,4.949-14.444,7.267-19.079c3.846-7.692-4.615-8.461-10.769-14.615c-6.154-6.154-2.308-13.846,2.308-17.692
					c4.615-3.846,12.307,2.308,18.461,2.308c6.154,0,10.769-0.769,14.615-4.615c3.846-3.846,0-10-5.384-15.384
					C117.616,42.656,119.154,34.195,128.385,30.349z"/>
			</g>
		</g>
		<g>
			<g>
				<path class="st10" d="M138.778,75.567c-4.283-4.283-6.881,0.702-11.109,3.022c-2.422,1.329-3.859,3.94-3.859,6.703
					c0,3.481,2.31,6.553,5.667,7.474c4.111,1.128,9.593,1.562,13.384-2.23C149.665,83.731,144.221,81.01,138.778,75.567z"/>
			</g>
		</g>
		<g>
			<g>
				<path class="st10" d="M113.18,116.091c-2.106-2.107-5.152-1.865-7.436-1.239c-1.865,0.512-3.148,2.218-3.148,4.152
					c0,0.474,0.084,0.936,0.229,1.375c2.878,1.283,5.869,2.354,8.958,3.191C114.456,121.072,116.593,119.505,113.18,116.091z"/>
			</g>
		</g>
		<g>
			<g>
				<path class="st8" d="M238.183,178.666c4.206-6.596,2.219-13.017,0.364-16.644c-1.628,2.581-4.497,4.302-7.774,4.302
					c-0.501,0-0.989-0.051-1.468-0.128c-0.517,7.704-5.037,14.357-11.49,17.874v6.677c0,2.138,1.122,4.094,2.919,5.201
					c0.72,0.444-0.194-0.077,5.939,2.974c0.825,0.407,1.915,0.838,2.755,1.101c0.167,0.052,0.335,0.098,0.504,0.145
					c3.24-1.186,6.099-3.069,7.951-6.001c3.395-5.376,1.414-10.585,0.164-12.916C237.607,180.431,237.683,179.449,238.183,178.666z"
					/>
			</g>
		</g>
		<g>
			<g>
				<path class="st8" d="M185.379,166.195c-0.479,0.077-0.967,0.128-1.469,0.128c-3.277,0-6.146-1.72-7.774-4.302
					c-1.855,3.627-3.842,10.049,0.364,16.644c0.5,0.784,0.575,1.766,0.136,2.585c-1.25,2.331-3.231,7.54,0.164,12.916
					c1.852,2.932,4.71,4.815,7.951,6.001c0.168-0.048,0.337-0.093,0.503-0.145c0.84-0.263,1.93-0.694,2.755-1.101
					c6.531-3.249,5.273-2.563,5.939-2.974c1.797-1.107,2.919-3.063,2.919-5.201v-6.677
					C190.416,180.552,185.896,173.899,185.379,166.195z"/>
			</g>
		</g>
		<g>
			<g>
				<path class="st1" d="M230.773,147.938c-0.481,0-0.952,0.041-1.413,0.112v16.669c0,0.497-0.023,0.988-0.056,1.477
					c0.479,0.077,0.967,0.128,1.468,0.128c5.077,0,9.193-4.116,9.193-9.193S235.85,147.938,230.773,147.938z"/>
			</g>
		</g>
		<g>
			<g>
				<path class="st1" d="M228.006,145.253c-2.228-0.516-4.933-1.807-8.034-4.624c-0.613-0.557-1.559-0.511-2.098,0.118
					c-3.353,3.914-15.245,15.789-32.55,10.86v13.113c0,12.11,9.908,22.018,22.018,22.018s22.019-9.908,22.019-22.018V146.93
					C229.36,146.121,228.794,145.435,228.006,145.253z"/>
			</g>
		</g>
		<g>
			<g>
				<path class="st1" d="M185.323,164.719v-13.113c-1.512-0.431-3.065-0.988-4.657-1.691c-1.027-0.453-2.226-0.245-3.045,0.523
					c-1.786,1.675-2.904,4.051-2.904,6.693c0,5.077,4.116,9.193,9.193,9.193c0.501,0,0.989-0.051,1.469-0.128
					C185.346,165.707,185.323,165.215,185.323,164.719z"/>
			</g>
		</g>
		<g>
			<g>
				<path class="st8" d="M207.342,115.315c-16.468,0-29.941,13.474-29.941,29.941v5.411c0.075-0.075,0.143-0.156,0.221-0.229
					c0.819-0.768,2.018-0.976,3.045-0.523c1.592,0.703,3.145,1.26,4.657,1.691c17.305,4.93,29.197-6.946,32.55-10.86
					c0.539-0.629,1.485-0.675,2.098-0.118c3.101,2.818,5.806,4.108,8.034,4.624c0.788,0.183,1.354,0.868,1.354,1.677v1.12
					c0.461-0.071,0.932-0.112,1.413-0.112c2.544,0,4.845,1.033,6.51,2.703v-5.385C237.283,128.788,223.809,115.315,207.342,115.315z
					"/>
			</g>
		</g>
		<g>
			<g>
				<path class="st7" d="M253.036,212.549c-0.22-3.945-2.979-7.289-6.811-8.253l-4.376-1.105c-0.41-0.104-10.83-2.734-11.367-2.869
					c-1.316-0.331-2.593-0.801-3.809-1.401l-5.444-2.684c-2.091-1.031-3.414-3.159-3.414-5.49v-6.677
					c-3.119,1.7-6.689,2.668-10.473,2.668c-3.784,0-7.354-0.968-10.473-2.668v6.678c0,2.331-1.324,4.459-3.414,5.49l-5.444,2.684
					c-1.217,0.6-2.494,1.069-3.809,1.401c-0.078,0.02-11.295,2.851-11.367,2.869l-4.376,1.105c-3.832,0.965-6.591,4.308-6.811,8.253
					l-0.462,12.702c-0.056,1.545,1.181,2.828,2.728,2.828h86.858c1.546,0,2.784-1.283,2.727-2.828L253.036,212.549z"/>
			</g>
		</g>
		<g>
			<g>
				<path class="st0" d="M175.683,238.263c-0.229-4.107-3.101-7.587-7.09-8.591l-12.894-3.245
					c-6.834-1.72-12.209-4.668-12.139-4.633c-2.81-1.385-4.589-4.246-4.589-7.379v-3.876c-3.289,1.722-7.021,2.702-10.972,2.702h0
					c-3.951,0-7.683-0.981-10.972-2.702v3.876c0,3.128-1.773,5.99-4.578,7.374c-3.801,1.875-7.117,3.372-12.149,4.638l-12.894,3.245
					c-3.989,1.004-6.861,4.485-7.09,8.591l-0.725,12.5c-0.087,1.502,1.107,2.768,2.612,2.768h91.592
					c1.504,0,2.699-1.266,2.612-2.768L175.683,238.263z"/>
			</g>
		</g>
		<g>
			<g>
				<path class="st1" d="M148.413,160.94c-1.557-1.633-4.089-1.783-5.864-0.39c-2.807,2.203-7.663,4.926-14.523,4.926
					c-6.876,0-11.758-2.736-14.577-4.942c-1.774-1.388-4.3-1.232-5.855,0.398l-0.008,0.009c-2.184,2.29-3.402,5.333-3.402,8.498
					v19.987c0,13.099,10.717,23.816,23.816,23.816h0c13.099,0,23.816-10.717,23.816-23.816v-19.987
					C151.816,166.273,150.597,163.23,148.413,160.94z"/>
			</g>
		</g>
		<g>
			<g>
				<path class="st1" d="M153.344,171.274c-0.52,0-1.03,0.044-1.528,0.121v18.03c0,0.537-0.024,1.069-0.06,1.597
					c0.518,0.083,1.046,0.139,1.588,0.139c5.491,0,9.943-4.452,9.943-9.943S158.835,171.274,153.344,171.274z"/>
			</g>
		</g>
		<g>
			<g>
				<path class="st1" d="M104.184,189.425v-18.03c-0.499-0.077-1.008-0.121-1.528-0.121c-5.492,0-9.943,4.452-9.943,9.943
					s4.452,9.943,9.943,9.943c0.542,0,1.07-0.055,1.588-0.139v0C104.209,190.493,104.184,189.962,104.184,189.425z"/>
			</g>
		</g>
		<g>
			<g>
				<path class="st2" d="M151.727,150.959c-0.798,0-1.489-0.615-1.5-1.413c-0.183-13.271-15.337-15.764-30.429-13.158
					c-12.795,2.209-22.147,13.305-22.147,26.29v9.957c1.471-0.86,3.178-1.361,5.005-1.361c0.52,0,1.03,0.044,1.528,0.121v-1.958
					c0-3.165,1.218-6.208,3.402-8.498l0.008-0.009c1.554-1.63,4.081-1.786,5.855-0.398c2.819,2.206,7.701,4.942,14.577,4.942
					c6.859,0,11.716-2.723,14.523-4.926c1.775-1.393,4.307-1.243,5.864,0.39c2.184,2.29,3.402,5.333,3.402,8.498v1.958
					c0.499-0.077,1.008-0.121,1.528-0.121c1.849,0,3.575,0.514,5.058,1.393v-8.175C158.402,152.61,154.111,150.959,151.727,150.959z
					"/>
			</g>
		</g>
		<g>
			<g>
				<path class="st5" d="M94.284,213.497c-0.218-3.922-2.962-7.247-6.771-8.206l-12.315-3.1c-6.528-1.643-11.661-4.458-11.594-4.425
					c-2.684-1.323-4.383-4.056-4.383-7.048v-3.702c-3.142,1.644-6.706,2.581-10.48,2.581h0c-3.774,0-7.338-0.937-10.48-2.581v3.702
					c0,2.988-1.693,5.722-4.373,7.043c-3.63,1.79-6.797,3.22-11.604,4.43l-12.315,3.1c-3.81,0.959-6.553,4.284-6.772,8.206
					l-0.692,11.939c-0.083,1.435,1.058,2.644,2.495,2.644h87.483c1.437,0,2.578-1.209,2.495-2.644L94.284,213.497z"/>
			</g>
		</g>
		<g>
			<g>
				<path class="st1" d="M68.238,139.643c-1.487-1.56-3.906-1.703-5.601-0.373c-2.681,2.104-7.319,4.705-13.871,4.705
					c-6.568,0-11.231-2.614-13.923-4.721c-1.694-1.326-4.108-1.177-5.592,0.38l-0.008,0.008c-2.086,2.188-3.25,5.094-3.25,8.117
					v19.091c0,12.511,10.236,22.747,22.747,22.747h0c12.511,0,22.747-10.236,22.747-22.747v-19.091
					C71.488,144.737,70.324,141.83,68.238,139.643z"/>
			</g>
		</g>
		<g>
			<g>
				<path class="st1" d="M72.947,149.514c-0.497,0-0.984,0.042-1.46,0.116v17.221c0,0.513-0.023,1.021-0.057,1.525
					c0.495,0.08,0.999,0.132,1.517,0.132c5.245,0,9.497-4.252,9.497-9.497C82.444,153.766,78.192,149.514,72.947,149.514z"/>
			</g>
		</g>
		<g>
			<g>
				<path class="st1" d="M25.993,166.85v-17.221c-0.476-0.074-0.963-0.116-1.46-0.116c-5.245,0-9.497,4.252-9.497,9.497
					c0,5.245,4.252,9.497,9.497,9.497c0.518,0,1.022-0.053,1.517-0.132v0C26.017,167.87,25.993,167.363,25.993,166.85z"/>
			</g>
		</g>
		<g>
			<g>
				<path class="st13" d="M71.403,130.11c-0.762,0-1.422-0.587-1.433-1.349c-0.174-12.675-14.649-15.056-29.064-12.567
					c-12.221,2.11-21.153,12.708-21.153,25.11v9.51c1.405-0.822,3.035-1.3,4.781-1.3c0.497,0,0.984,0.042,1.46,0.116v-1.87
					c0-3.023,1.164-5.929,3.25-8.117l0.008-0.008c1.485-1.557,3.898-1.705,5.592-0.38c2.692,2.107,7.355,4.721,13.923,4.721
					c6.552,0,11.19-2.601,13.871-4.705c1.695-1.331,4.114-1.187,5.601,0.373c2.086,2.188,3.25,5.094,3.25,8.117v1.87
					c0.476-0.074,0.963-0.116,1.46-0.116c1.766,0,3.414,0.491,4.831,1.331v-7.808C77.778,131.686,73.68,130.11,71.403,130.11z"/>
			</g>
		</g>
		<g>
			<g>
				<path class="st1" d="M221.229,196.237c-2.091-1.031-3.414-3.159-3.414-5.49v-6.677c-3.119,1.7-6.689,2.668-10.473,2.668
					c-3.784,0-7.354-0.968-10.473-2.668v6.677c0,2.331-1.324,4.46-3.414,5.49l-4.033,1.989c3.296,7.775,8.35,14.643,14.661,20.091
					c1.867,1.612,4.652,1.612,6.519,0c6.311-5.449,11.365-12.316,14.661-20.091L221.229,196.237z"/>
			</g>
		</g>
		<g>
			<g>
				<path class="st1" d="M143.561,221.793c-2.81-1.385-4.589-4.246-4.589-7.379v-3.876c-3.289,1.722-7.021,2.702-10.972,2.702h0
					c-3.951,0-7.683-0.981-10.972-2.702v3.876c0,3.133-1.779,5.994-4.589,7.379c-0.44,0.217-0.873,0.428-1.304,0.635
					c2.495,6.906,9.126,11.877,16.865,11.877c7.73,0,14.356-4.96,16.857-11.854C144.013,222.042,143.54,221.783,143.561,221.793z"/>
			</g>
		</g>
		<g>
			<g>
				<path class="st1" d="M63.603,197.766c-2.684-1.323-4.383-4.056-4.383-7.048v-3.702c-3.142,1.644-6.706,2.581-10.48,2.581
					c-3.774,0-7.338-0.937-10.48-2.581v3.702c0,2.992-1.699,5.725-4.383,7.048c-0.42,0.207-0.834,0.409-1.245,0.607
					c2.383,6.596,8.717,11.344,16.108,11.344c7.383,0,13.712-4.738,16.101-11.322C64.035,198.004,63.583,197.756,63.603,197.766z"/>
			</g>
		</g>
		<g>
			<g>
				<path class="st3" d="M138.173,191.186c-2.609,0-5.133-0.782-7.272-2.208c-0.865-0.577-1.862-0.924-2.901-0.924
					s-2.036,0.348-2.901,0.924c-2.138,1.427-4.663,2.208-7.272,2.208h-13.57c0.91,12.284,11.237,22.055,23.743,22.055h0
					c12.506,0,22.833-9.771,23.743-22.055H138.173z"/>
			</g>
		</g>
		<g>
			<g>
				<path class="st3" d="M216.976,168.532c-2.492,0-4.903-0.747-6.945-2.109c-0.826-0.551-1.778-0.883-2.771-0.883
					c-0.993,0-1.945,0.332-2.771,0.883c-2.042,1.363-4.454,2.109-6.945,2.109h-11.88c1.82,10.308,10.869,18.205,21.679,18.205
					s19.859-7.897,21.679-18.205H216.976z"/>
			</g>
		</g>
		<g>
			<g>
				<path class="st3" d="M58.457,168.532c-2.492,0-4.903-0.747-6.945-2.109c-0.826-0.551-1.778-0.883-2.771-0.883
					c-0.993,0-1.945,0.332-2.771,0.883c-2.042,1.363-4.454,2.109-6.945,2.109H26.062c0.869,11.733,10.733,21.066,22.678,21.066h0
					c11.945,0,21.809-9.333,22.678-21.066H58.457z"/>
			</g>
		</g>
		<g>
			<g>
				<g>
					<path d="M240.772,160.883c-0.409-0.8-1.216-1.318-2.113-1.359c-0.907-0.035-1.748,0.404-2.227,1.164
						c-1.238,1.963-3.354,3.135-5.659,3.135c-0.318,0-0.669-0.031-1.071-0.096c-0.696-0.113-1.404,0.075-1.954,0.512
						c-0.55,0.438-0.891,1.087-0.938,1.789c-0.449,6.689-4.26,12.613-10.192,15.846c-0.804,0.438-1.304,1.28-1.304,2.195v6.677
						c0,3.005,1.536,5.746,4.106,7.329l0.104,0.064c0.385,0.239,0.469,0.28,1.271,0.671c0.697,0.339,2.025,0.987,4.77,2.352
						c0.922,0.455,2.114,0.932,3.115,1.245c0.147,0.046,0.295,0.088,0.443,0.13l0.121,0.034c0.224,0.064,0.454,0.096,0.685,0.096
						c0.291,0,0.582-0.051,0.859-0.152c4.122-1.508,7.219-3.868,9.205-7.014c4.163-6.59,1.564-12.988,0.295-15.491
						C245.247,172.238,242.72,164.69,240.772,160.883z M235.843,182.432c1.113,2.077,2.584,6.19-0.075,10.4
						c-1.266,2.005-3.26,3.581-5.937,4.692c-0.682-0.234-1.467-0.556-2.045-0.841c-2.758-1.372-4.096-2.024-4.798-2.366
						c-0.606-0.295-0.609-0.291-0.826-0.425l-0.118-0.073c-1.083-0.667-1.729-1.815-1.729-3.072v-5.244
						c5.998-3.75,10.041-9.8,11.199-16.702c2.252-0.141,4.374-0.921,6.147-2.221c0.852,3.121,0.859,6.906-1.586,10.741
						C235.079,178.881,234.99,180.839,235.843,182.432z"/>
				</g>
			</g>
		</g>
		<g>
			<g>
				<g>
					<path d="M198.064,181.875c-5.933-3.234-9.742-9.158-10.191-15.847c-0.047-0.702-0.387-1.351-0.938-1.789
						c-0.55-0.438-1.255-0.626-1.954-0.512c-0.402,0.065-0.753,0.096-1.071,0.096c-2.306,0-4.422-1.172-5.658-3.135
						c-0.479-0.76-1.313-1.199-2.228-1.165c-0.897,0.04-1.704,0.559-2.113,1.359c-1.947,3.806-4.473,11.352,0.511,19.208
						c-1.313,2.46-3.884,8.84,0.266,15.411c1.987,3.145,5.084,5.505,9.205,7.013c0.277,0.102,0.568,0.152,0.859,0.152
						c0.23,0,0.461-0.032,0.685-0.096l0.126-0.036c0.147-0.041,0.294-0.083,0.441-0.128c0.999-0.313,2.191-0.79,3.12-1.249
						c2.964-1.474,4.318-2.135,4.978-2.457c0.83-0.406,0.826-0.414,1.028-0.544l0.131-0.082c2.572-1.583,4.107-4.324,4.107-7.33
						v-6.677C199.368,183.154,198.868,182.313,198.064,181.875z M194.368,190.747c0,1.257-0.646,2.405-1.73,3.073l-0.205,0.131
						c-0.08,0.043-0.21,0.105-0.525,0.259c-0.663,0.324-2.026,0.99-5.003,2.47c-0.585,0.289-1.371,0.61-2.053,0.844
						c-2.676-1.111-4.671-2.688-5.937-4.692c-2.657-4.208-1.188-8.321-0.075-10.399c0.854-1.591,0.765-3.55-0.231-5.11
						c-2.446-3.836-2.438-7.622-1.586-10.742c1.773,1.299,3.895,2.08,6.147,2.22c1.157,6.902,5.199,12.951,11.198,16.702V190.747z"
						/>
				</g>
			</g>
		</g>
		<g>
			<g>
				<g>
					<path d="M230.773,145.438c-0.583,0-1.188,0.048-1.795,0.142c-1.219,0.188-2.118,1.237-2.118,2.471v16.669
						c0,0.441-0.021,0.878-0.05,1.312c-0.085,1.288,0.823,2.428,2.097,2.633c0.668,0.107,1.278,0.16,1.866,0.16
						c6.447,0,11.692-5.246,11.692-11.693S237.221,145.438,230.773,145.438z M231.86,163.735v-13.209
						c3.175,0.521,5.605,3.284,5.605,6.604S235.035,163.214,231.86,163.735z"/>
				</g>
			</g>
		</g>
		<g>
			<g>
				<g>
					<path d="M228.57,142.817c-2.203-0.51-4.53-1.87-6.918-4.04c-0.794-0.721-1.865-1.097-2.927-1.03
						c-1.073,0.067-2.051,0.554-2.751,1.371c0,0,0,0,0,0c-3.009,3.511-14.055,14.614-29.967,10.082
						c-0.751-0.215-1.565-0.064-2.19,0.409c-0.626,0.472-0.994,1.211-0.994,1.995v13.113c0,13.52,10.999,24.518,24.519,24.518
						s24.519-10.999,24.519-24.518V146.93C231.86,144.958,230.508,143.266,228.57,142.817z M226.86,164.719
						c0,10.762-8.756,19.518-19.519,19.518s-19.519-8.756-19.519-19.518v-9.961c15.988,2.946,27.205-7.16,31.247-11.593
						c2.582,2.194,5.196,3.663,7.79,4.376V164.719z"/>
				</g>
			</g>
		</g>
		<g>
			<g>
				<g>
					<path d="M187.823,164.719v-13.113c0-1.117-0.741-2.098-1.815-2.404c-1.435-0.409-2.892-0.938-4.332-1.574
						c-1.945-0.859-4.209-0.472-5.765,0.987c-2.347,2.2-3.693,5.304-3.693,8.516c0,6.447,5.245,11.693,11.692,11.693
						c0.588,0,1.198-0.052,1.866-0.16c1.275-0.205,2.185-1.349,2.097-2.638C187.844,165.593,187.823,165.158,187.823,164.719z
						 M182.823,163.735c-3.175-0.521-5.605-3.284-5.605-6.604c0-1.862,0.75-3.591,2.113-4.869c0.059-0.055,0.135-0.084,0.21-0.084
						c0.039,0,0.078,0.008,0.115,0.024c1.05,0.463,2.109,0.878,3.167,1.24V163.735z"/>
				</g>
			</g>
		</g>
		<g>
			<g>
				<g>
					<g>
						<path d="M207.342,112.815c-17.889,0-32.441,14.553-32.441,32.441v5.411c0,1.011,0.609,1.923,1.543,2.31
							c0.938,0.389,2.01,0.173,2.725-0.542l0.175-0.183c0.09-0.075,0.209-0.096,0.313-0.049c1.65,0.729,3.327,1.337,4.982,1.809
							c3.139,0.894,6.111,1.278,8.903,1.278c12.938,0,21.988-8.24,25.528-12.124c2.582,2.194,5.196,3.663,7.79,4.376v0.509
							c0,0.73,0.319,1.423,0.873,1.898s1.288,0.684,2.009,0.573c0.359-0.056,0.696-0.083,1.031-0.083
							c1.791,0,3.474,0.699,4.738,1.968c0.714,0.717,1.79,0.932,2.726,0.545c0.935-0.387,1.545-1.299,1.545-2.311v-5.385
							C239.782,127.368,225.229,112.815,207.342,112.815z M234.782,146.14c-1.015-0.37-2.083-0.597-3.183-0.673
							c-0.481-1.304-1.596-2.317-3.029-2.649c-2.203-0.511-4.53-1.87-6.918-4.04c-0.794-0.721-1.865-1.097-2.927-1.03
							c-1.073,0.067-2.051,0.554-2.751,1.372c-3.008,3.511-14.055,14.614-29.967,10.082c-1.435-0.409-2.892-0.938-4.332-1.574
							c-0.573-0.253-1.174-0.398-1.775-0.439v-1.933c0-15.131,12.311-27.441,27.441-27.441s27.44,12.31,27.44,27.441V146.14z"/>
					</g>
				</g>
			</g>
		</g>
		<g>
			<g>
				<g>
					<path d="M255.532,212.41c-0.282-5.065-3.777-9.3-8.694-10.538l-15.745-3.975c-1.144-0.288-2.258-0.698-3.314-1.219
						l-5.443-2.684c-1.246-0.615-2.021-1.859-2.021-3.248v-6.677c0-0.882-0.465-1.699-1.224-2.149
						c-0.758-0.45-1.697-0.467-2.473-0.046c-5.672,3.092-12.882,3.092-18.554,0c-0.774-0.421-1.715-0.404-2.473,0.046
						c-0.759,0.45-1.224,1.267-1.224,2.149v6.678c0,1.389-0.773,2.633-2.02,3.248l-5.443,2.684c-1.056,0.521-2.171,0.93-3.317,1.22
						c-0.099,0.025-11.219,2.832-11.366,2.869l-4.374,1.104c-4.919,1.238-8.414,5.473-8.698,10.586l-0.462,12.702
						c-0.053,1.432,0.466,2.789,1.46,3.82c0.995,1.031,2.332,1.6,3.765,1.6h86.858c1.434,0,2.771-0.568,3.766-1.6
						c0.994-1.031,1.513-2.388,1.46-3.819L255.532,212.41z M250.937,225.509c-0.045,0.047-0.101,0.07-0.166,0.07h-86.858
						c-0.064,0-0.12-0.023-0.164-0.07c-0.045-0.046-0.066-0.103-0.064-0.167l0.46-12.654c0.16-2.868,2.139-5.267,4.927-5.968
						l4.37-1.104c0.072-0.018,11.297-2.852,11.372-2.87c1.485-0.375,2.934-0.907,4.304-1.583l5.443-2.684
						c2.966-1.462,4.809-4.425,4.809-7.732v-2.852c5.115,1.767,10.833,1.767,15.946,0v2.851c0,3.307,1.843,6.27,4.81,7.732
						l5.443,2.684c1.371,0.676,2.819,1.209,4.305,1.583l15.743,3.974c2.786,0.701,4.765,3.1,4.923,5.919L251,225.343
						C251.002,225.407,250.98,225.463,250.937,225.509z"/>
				</g>
			</g>
		</g>
		<g>
			<g>
				<path d="M237.472,216.093c-1.381,0-2.5,1.119-2.5,2.5v8.166c0,1.381,1.119,2.5,2.5,2.5s2.5-1.119,2.5-2.5v-8.166
					C239.972,217.212,238.853,216.093,237.472,216.093z"/>
			</g>
		</g>
		<g>
			<g>
				<path d="M177.211,216.093c-1.381,0-2.5,1.119-2.5,2.5v8.166c0,1.381,1.119,2.5,2.5,2.5s2.5-1.119,2.5-2.5v-8.166
					C179.711,217.212,178.592,216.093,177.211,216.093z"/>
			</g>
		</g>
		<g>
			<g>
				<path d="M216.921,156.822c-1.576,0-2.853,1.277-2.853,2.853s1.277,2.853,2.853,2.853c1.575,0,2.853-1.277,2.853-2.853
					S218.497,156.822,216.921,156.822z"/>
			</g>
		</g>
		<g>
			<g>
				<path d="M197.762,156.822c-1.576,0-2.853,1.277-2.853,2.853s1.277,2.853,2.853,2.853s2.853-1.277,2.853-2.853
					S199.338,156.822,197.762,156.822z"/>
			</g>
		</g>
		<g>
			<g>
				<g>
					<path d="M178.18,238.124c-0.292-5.228-3.899-9.598-8.976-10.876l-12.895-3.246c-6.237-1.57-11.271-4.251-11.521-4.386
						c-0.04-0.022-0.08-0.044-0.122-0.064c-1.97-0.972-3.194-2.94-3.194-5.137v-3.876c0-0.875-0.457-1.686-1.205-2.139
						c-0.749-0.453-1.681-0.482-2.454-0.076c-3.064,1.604-6.366,2.417-9.813,2.417s-6.748-0.813-9.813-2.417
						c-0.774-0.406-1.704-0.376-2.454,0.076c-0.748,0.453-1.205,1.264-1.205,2.139v3.876c0,2.163-1.25,4.178-3.184,5.132
						c-3.452,1.702-6.711,3.212-11.654,4.456l-12.895,3.246c-5.076,1.278-8.684,5.648-8.976,10.871l-0.725,12.5
						c-0.081,1.4,0.425,2.788,1.388,3.808c0.962,1.02,2.318,1.604,3.721,1.604h91.592c1.402,0,2.759-0.585,3.721-1.604
						c0.963-1.02,1.469-2.408,1.388-3.808L178.18,238.124z M173.796,251.031H82.204l-0.116-0.124l0.725-12.505
						c0.169-3.031,2.261-5.566,5.204-6.307l12.895-3.246c5.419-1.364,8.933-2.99,12.646-4.82c3.684-1.818,5.972-5.502,5.972-9.616
						v-0.089c5.447,1.863,11.496,1.863,16.943,0v0.089c0,4.078,2.252,7.736,5.885,9.573c0.705,0.435,1.844,0.961,3.736,1.778
						c2.077,0.897,5.325,2.162,8.996,3.085l12.895,3.246c2.943,0.741,5.035,3.275,5.204,6.312l0.693,12.587
						C173.846,251.031,173.811,251.031,173.796,251.031z"/>
				</g>
			</g>
		</g>
		<g>
			<g>
				<g>
					<path d="M150.222,159.214c-2.444-2.564-6.405-2.837-9.217-0.631c-2.553,2.004-6.877,4.393-12.979,4.393
						c-6.117,0-10.466-2.399-13.036-4.411c-2.806-2.196-6.764-1.921-9.212,0.649c-2.64,2.767-4.094,6.398-4.094,10.223v19.987
						c0,14.511,11.805,26.316,26.315,26.316s26.315-11.805,26.315-26.316v-19.987C154.315,165.612,152.861,161.981,150.222,159.214z
						 M149.315,189.425c0,11.753-9.563,21.316-21.315,21.316s-21.315-9.563-21.315-21.316v-19.987c0-2.534,0.963-4.939,2.72-6.781
						c0.356-0.375,0.837-0.565,1.324-0.565c0.411,0,0.827,0.136,1.18,0.412c3.19,2.497,8.576,5.474,16.118,5.474
						c7.53,0,12.894-2.969,16.066-5.46c0.772-0.606,1.853-0.542,2.511,0.149c0,0,0,0,0.001,0c1.748,1.833,2.711,4.238,2.711,6.772
						V189.425z"/>
				</g>
			</g>
		</g>
		<g>
			<g>
				<path d="M160.433,239.153c-1.381,0-2.5,1.119-2.5,2.5v11.489c0,1.381,1.119,2.5,2.5,2.5s2.5-1.119,2.5-2.5v-11.489
					C162.933,240.272,161.813,239.153,160.433,239.153z"/>
			</g>
		</g>
		<g>
			<g>
				<path d="M95.567,239.153c-1.381,0-2.5,1.119-2.5,2.5v11.489c0,1.381,1.119,2.5,2.5,2.5s2.5-1.119,2.5-2.5v-11.489
					C98.067,240.272,96.948,239.153,95.567,239.153z"/>
			</g>
		</g>
		<g>
			<g>
				<g>
					<path d="M153.344,168.774c-0.622,0-1.265,0.051-1.91,0.15c-1.219,0.188-2.118,1.237-2.118,2.471v18.029
						c0,0.481-0.022,0.958-0.054,1.431c-0.086,1.288,0.822,2.429,2.097,2.634c0.713,0.115,1.361,0.17,1.985,0.17
						c6.861,0,12.443-5.582,12.443-12.443C165.787,174.356,160.205,168.774,153.344,168.774z M154.315,188.598v-14.76
						c3.647,0.478,6.472,3.605,6.472,7.38S157.963,188.12,154.315,188.598z"/>
				</g>
			</g>
		</g>
		<g>
			<g>
				<g>
					<path d="M106.685,189.425v-18.029c0-1.233-0.899-2.282-2.118-2.471c-0.646-0.1-1.288-0.15-1.91-0.15
						c-6.861,0-12.443,5.582-12.443,12.443c0,6.861,5.582,12.443,12.443,12.443c0.626,0,1.275-0.056,1.987-0.171
						c1.273-0.206,2.181-1.347,2.095-2.634C106.707,190.382,106.685,189.906,106.685,189.425z M101.685,188.598
						c-3.647-0.478-6.472-3.605-6.472-7.38s2.824-6.903,6.472-7.38V188.598z"/>
				</g>
			</g>
		</g>
		<g>
			<g>
				<path d="M139.091,179.117c-1.767,0-3.2,1.433-3.2,3.2c0,1.767,1.432,3.2,3.2,3.2s3.2-1.433,3.2-3.2
					C142.291,180.55,140.858,179.117,139.091,179.117z"/>
			</g>
		</g>
		<g>
			<g>
				<path d="M117.602,179.117c-1.767,0-3.2,1.433-3.2,3.2c0,1.767,1.433,3.2,3.2,3.2c1.767,0,3.2-1.433,3.2-3.2
					C120.802,180.55,119.369,179.117,117.602,179.117z"/>
			</g>
		</g>
		<g>
			<g>
				<g>
					<path d="M152.688,148.515c-0.283-4.374-2.041-7.93-5.234-10.582c-7.683-6.38-20.892-5.249-28.081-4.008
						c-14.035,2.423-24.222,14.516-24.222,28.753v9.957c0,0.896,0.479,1.723,1.256,2.168c0.774,0.445,1.732,0.442,2.505-0.01
						c1.465-0.856,3.118-1.204,4.889-0.929c0.728,0.112,1.456-0.096,2.011-0.571c0.555-0.475,0.874-1.169,0.874-1.899v-1.958
						c0-2.534,0.963-4.939,2.72-6.781c0.658-0.69,1.733-0.757,2.504-0.154c3.19,2.497,8.576,5.474,16.118,5.474
						c7.53,0,12.894-2.969,16.066-5.46c0.772-0.606,1.852-0.542,2.512,0.149c1.748,1.833,2.711,4.238,2.711,6.772v1.958
						c0,0.73,0.319,1.424,0.874,1.899c0.554,0.475,1.282,0.683,2.011,0.571c1.786-0.277,3.453,0.079,4.926,0.952
						c0.393,0.233,0.834,0.35,1.275,0.35c0.427,0,0.854-0.109,1.237-0.328c0.78-0.444,1.263-1.274,1.263-2.172v-8.175
						C160.901,151.779,156.128,148.922,152.688,148.515z M155.901,169.043c-0.526-0.112-1.061-0.189-1.599-0.231
						c-0.149-3.594-1.585-6.982-4.08-9.597c-2.443-2.565-6.406-2.838-9.218-0.632c-2.553,2.004-6.877,4.393-12.979,4.393
						c-6.117,0-10.466-2.399-13.036-4.411c-2.806-2.196-6.764-1.921-9.212,0.649c-2.496,2.616-3.932,6.003-4.081,9.598
						c-0.52,0.041-1.037,0.114-1.547,0.22v-6.353c0-11.797,8.441-21.818,20.073-23.827c10.784-1.864,19.55-0.797,24.035,2.928
						c2.287,1.9,3.422,4.451,3.468,7.803c0.031,2.137,1.826,3.876,4,3.876c2.614,0,4.175,4.125,4.175,11.034V169.043z"/>
				</g>
			</g>
		</g>
		<g>
			<g>
				<g>
					<path d="M96.78,213.358c-0.281-5.042-3.761-9.258-8.657-10.491l-12.315-3.1c-5.942-1.496-10.723-4.042-10.974-4.177
						c-0.041-0.023-0.083-0.045-0.125-0.066c-1.844-0.909-2.989-2.75-2.989-4.806v-3.702c0-0.875-0.457-1.686-1.205-2.139
						c-0.75-0.453-1.681-0.482-2.454-0.076c-2.911,1.523-6.047,2.296-9.32,2.296s-6.409-0.772-9.32-2.296
						c-0.775-0.406-1.705-0.376-2.454,0.076c-0.748,0.453-1.205,1.264-1.205,2.139v3.702c0,2.024-1.169,3.909-2.979,4.801
						c-3.29,1.623-6.397,3.062-11.109,4.248l-12.315,3.1c-4.896,1.233-8.376,5.449-8.657,10.486l-0.692,11.939
						c-0.079,1.368,0.415,2.724,1.355,3.72s2.266,1.568,3.636,1.568h87.482c1.37,0,2.695-0.571,3.636-1.568
						c0.94-0.996,1.435-2.352,1.355-3.72L96.78,213.358z M5,225.581l0.692-11.944c0.159-2.846,2.122-5.225,4.886-5.921l12.315-3.1
						c5.188-1.306,8.549-2.861,12.1-4.612c3.536-1.744,5.741-5.27,5.768-9.214c5.137,1.723,10.822,1.723,15.959,0
						c0.026,3.9,2.185,7.392,5.657,9.159c0.688,0.431,1.789,0.933,3.601,1.715c1.988,0.859,5.096,2.068,8.609,2.953l12.315,3.1
						c2.764,0.696,4.727,3.075,4.886,5.926l0.697,11.938L5,225.581z"/>
				</g>
			</g>
		</g>
		<g>
			<g>
				<g>
					<path d="M70.047,137.917c-2.374-2.491-6.224-2.757-8.954-0.614c-2.424,1.903-6.53,4.172-12.327,4.172
						c-5.81,0-9.939-2.278-12.382-4.189c-2.728-2.133-6.57-1.866-8.949,0.631c-2.542,2.665-3.941,6.16-3.941,9.842v19.091
						c0,13.921,11.326,25.247,25.247,25.247s25.247-11.326,25.247-25.247v-19.091C73.987,144.077,72.588,140.582,70.047,137.917z
						 M68.987,166.85c0,11.164-9.083,20.247-20.247,20.247s-20.247-9.083-20.247-20.247v-19.091c0-2.391,0.909-4.661,2.567-6.399
						c0.318-0.334,0.748-0.505,1.184-0.505c0.369,0,0.742,0.122,1.058,0.369c3.062,2.396,8.229,5.252,15.464,5.252
						c7.225,0,12.37-2.849,15.415-5.239c0.691-0.544,1.66-0.485,2.248,0.131c0,0,0,0,0.001,0c1.649,1.729,2.558,3.999,2.558,6.391
						V166.85z"/>
				</g>
			</g>
		</g>
		<g>
			<g>
				<path d="M79.718,214.235c-1.381,0-2.5,1.119-2.5,2.5v10.973c0,1.381,1.119,2.5,2.5,2.5s2.5-1.119,2.5-2.5v-10.973
					C82.218,215.354,81.099,214.235,79.718,214.235z"/>
			</g>
		</g>
		<g>
			<g>
				<path d="M17.764,214.235c-1.381,0-2.5,1.119-2.5,2.5v10.973c0,1.381,1.119,2.5,2.5,2.5s2.5-1.119,2.5-2.5v-10.973
					C20.264,215.354,19.145,214.235,17.764,214.235z"/>
			</g>
		</g>
		<g>
			<g>
				<g>
					<path d="M72.947,147.014c-0.6,0-1.22,0.049-1.842,0.145c-1.219,0.188-2.118,1.238-2.118,2.471v17.221
						c0,0.458-0.021,0.911-0.051,1.361c-0.085,1.287,0.823,2.428,2.098,2.632c0.687,0.11,1.313,0.164,1.913,0.164
						c6.615,0,11.997-5.382,11.997-11.997S79.562,147.014,72.947,147.014z M73.987,165.931v-13.84
						c3.367,0.504,5.957,3.415,5.957,6.92S77.354,165.427,73.987,165.931z"/>
				</g>
			</g>
		</g>
		<g>
			<g>
				<g>
					<path d="M28.493,166.85v-17.221c0-1.233-0.898-2.282-2.117-2.471c-7.451-1.155-13.84,4.635-13.84,11.852
						c0,6.615,5.382,11.997,11.997,11.997c0.604,0,1.23-0.054,1.917-0.165c1.274-0.206,2.182-1.349,2.095-2.637
						C28.515,167.757,28.493,167.306,28.493,166.85z M23.493,165.931c-3.367-0.504-5.957-3.415-5.957-6.92s2.59-6.416,5.957-6.92
						V165.931z"/>
				</g>
			</g>
		</g>
		<g>
			<g>
				<path d="M59.333,157.004c-1.688,0-3.056,1.368-3.056,3.056c0,1.688,1.368,3.056,3.056,3.056s3.056-1.368,3.056-3.056
					C62.39,158.373,61.021,157.004,59.333,157.004z"/>
			</g>
		</g>
		<g>
			<g>
				<path d="M38.809,157.004c-1.688,0-3.056,1.368-3.056,3.056c0,1.688,1.368,3.056,3.056,3.056c1.688,0,3.056-1.368,3.056-3.056
					C41.865,158.373,40.497,157.004,38.809,157.004z"/>
			</g>
		</g>
		<g>
			<g>
				<g>
					<path d="M72.426,127.675c-0.291-4.166-1.98-7.558-5.032-10.092c-7.373-6.123-20.024-5.043-26.913-3.854
						c-13.459,2.324-23.228,13.921-23.228,27.574v9.51c0,0.896,0.479,1.723,1.256,2.168c0.776,0.445,1.731,0.443,2.506-0.01
						c1.375-0.803,2.916-1.134,4.596-0.872c0.725,0.109,1.456-0.098,2.01-0.572c0.554-0.475,0.873-1.168,0.873-1.898v-1.87
						c0-2.391,0.909-4.661,2.567-6.399c0.589-0.618,1.554-0.675,2.241-0.136c3.062,2.396,8.229,5.252,15.464,5.252
						c7.225,0,12.37-2.849,15.415-5.239c0.69-0.544,1.659-0.487,2.248,0.132c1.65,1.729,2.559,3.999,2.559,6.391v1.87
						c0,0.73,0.319,1.423,0.873,1.898c0.554,0.475,1.289,0.683,2.009,0.573c0.376-0.058,0.729-0.086,1.078-0.086
						c1.244,0,2.474,0.339,3.556,0.981c0.394,0.233,0.834,0.35,1.275,0.35c0.427,0,0.854-0.109,1.237-0.328
						c0.78-0.445,1.263-1.274,1.263-2.172v-7.809C80.278,130.919,75.746,128.107,72.426,127.675z M75.278,147.245
						c-0.432-0.086-0.868-0.148-1.308-0.187c-0.166-3.423-1.545-6.646-3.923-9.14c-2.376-2.492-6.225-2.757-8.955-0.614
						c-2.424,1.903-6.53,4.172-12.327,4.172c-5.81,0-9.939-2.278-12.382-4.189c-2.728-2.133-6.57-1.866-8.949,0.631
						c-2.38,2.495-3.759,5.718-3.925,9.141c-0.422,0.037-0.842,0.096-1.257,0.177v-5.931c0-11.214,8.023-20.738,19.079-22.647
						c10.27-1.774,18.609-0.764,22.866,2.773c2.158,1.792,3.229,4.201,3.271,7.366c0.03,2.103,1.794,3.814,3.933,3.814
						c2.427,0,3.876,3.897,3.876,10.426V147.245z"/>
				</g>
			</g>
		</g>
		<g>
			<g>
				<path class="st6" d="M213.282,24.85c-4.5-0.8-8-4.3-8.9-8.7c0-0.2-0.4-0.2-0.4,0c-0.9,4.4-4.4,7.9-8.9,8.7c-0.2,0-0.2,0.3,0,0.4
					c4.5,0.8,8,4.3,8.9,8.7c0,0.2,0.4,0.2,0.4,0c0.9-4.4,4.4-7.9,8.9-8.7C213.482,25.15,213.482,24.85,213.282,24.85z"/>
			</g>
		</g>
		<g>
			<g>
				<path class="st4" d="M63.227,248.794c-3.506-0.623-6.232-3.35-6.933-6.777c0-0.156-0.312-0.156-0.312,0
					c-0.701,3.428-3.428,6.154-6.933,6.777c-0.156,0-0.156,0.234,0,0.312c3.506,0.623,6.232,3.35,6.933,6.777
					c0,0.156,0.312,0.156,0.312,0c0.701-3.428,3.428-6.154,6.933-6.777C63.382,249.028,63.382,248.794,63.227,248.794z"/>
			</g>
		</g>
		<g>
			<g>
				<path class="st6" d="M56.282,99c-1.878,0-3.4,1.522-3.4,3.4c0,1.878,1.522,3.4,3.4,3.4c1.878,0,3.4-1.522,3.4-3.4
					C59.682,100.522,58.16,99,56.282,99z"/>
			</g>
		</g>
		<g>
			<g>
				<path class="st5" d="M47.182,75.5h-2.3v-2.3c0-1.7-1.4-3.2-3.2-3.2s-3.2,1.4-3.2,3.2v2.3h-2.3c-1.7,0-3.2,1.4-3.2,3.2
					c0,1.8,1.4,3.2,3.2,3.2h2.3v2.3c0,1.7,1.4,3.2,3.2,3.2s3.2-1.4,3.2-3.2v-2.3h2.3c1.7,0,3.2-1.4,3.2-3.2
					C50.382,76.9,48.982,75.5,47.182,75.5z"/>
			</g>
		</g>
		<g>
			<g>
				<path class="st9" d="M182.282,0c-1.878,0-3.4,1.522-3.4,3.4c0,1.878,1.522,3.4,3.4,3.4s3.4-1.522,3.4-3.4
					C185.682,1.522,184.16,0,182.282,0z"/>
			</g>
		</g>
		<g>
			<g>
				<g>
					<path d="M128-0.612c-35.521,0-64.421,28.899-64.421,64.421S92.479,128.23,128,128.23s64.421-28.899,64.421-64.421
						S163.521-0.612,128-0.612z M128,123.23c-32.765,0-59.421-26.656-59.421-59.421S95.235,4.388,128,4.388
						s59.421,26.656,59.421,59.421S160.765,123.23,128,123.23z"/>
				</g>
			</g>
		</g>
		<g>
			<g>
				<g>
					<path d="M226.367,195.983l-4.033-1.989c-1.245-0.614-2.02-1.859-2.02-3.248v-6.677c0-0.882-0.465-1.699-1.224-2.149
						c-0.758-0.45-1.697-0.467-2.473-0.046c-5.672,3.092-12.882,3.092-18.554,0c-0.774-0.421-1.715-0.404-2.473,0.046
						c-0.759,0.45-1.224,1.267-1.224,2.149v6.677c0,1.389-0.773,2.634-2.02,3.248l-4.033,1.989
						c-1.188,0.586-1.714,1.998-1.196,3.218c3.401,8.021,8.702,15.286,15.329,21.007c1.395,1.205,3.144,1.807,4.894,1.807
						c1.749,0,3.499-0.602,4.894-1.807c6.628-5.722,11.928-12.986,15.328-21.008C228.081,197.981,227.556,196.569,226.367,195.983z
						 M208.968,216.425c-0.928,0.8-2.324,0.8-3.252,0c-5.452-4.708-9.921-10.558-13.022-17.025l1.866-0.92
						c2.966-1.462,4.809-4.425,4.809-7.732v-2.851c5.115,1.767,10.833,1.767,15.946,0v2.851c0,3.307,1.843,6.27,4.809,7.732
						l1.866,0.92C218.889,205.867,214.421,211.716,208.968,216.425z"/>
				</g>
			</g>
		</g>
		<g>
			<g>
				<g>
					<path d="M145.949,220.203c-0.654-0.317-1.065-0.536-1.165-0.589c-0.038-0.022-0.078-0.042-0.118-0.063
						c-1.97-0.972-3.194-2.94-3.194-5.137v-3.876c0-0.875-0.457-1.686-1.205-2.139c-0.749-0.453-1.681-0.482-2.454-0.076
						c-3.064,1.604-6.366,2.417-9.813,2.417s-6.748-0.813-9.813-2.417c-0.774-0.406-1.704-0.376-2.454,0.076
						c-0.748,0.453-1.205,1.264-1.205,2.139v3.876c0,2.197-1.225,4.166-3.194,5.137c-0.434,0.213-0.86,0.421-1.283,0.625
						c-1.155,0.557-1.702,1.896-1.267,3.102c2.923,8.091,10.645,13.528,19.216,13.528c8.558,0,16.276-5.426,19.207-13.501
						C147.645,222.101,147.102,220.762,145.949,220.203z M128,231.806c-5.737,0-10.972-3.229-13.625-8.225
						c3.201-1.938,5.153-5.37,5.153-9.167v-0.089c5.447,1.864,11.496,1.864,16.943,0v0.089c0,3.797,1.952,7.23,5.154,9.167
						C138.971,228.575,133.734,231.806,128,231.806z"/>
				</g>
			</g>
		</g>
		<g>
			<g>
				<g>
					<path d="M65.932,196.145c-0.602-0.292-0.986-0.495-1.093-0.552c-0.042-0.024-0.086-0.047-0.13-0.069
						c-1.844-0.909-2.989-2.75-2.989-4.806v-3.702c0-0.875-0.457-1.686-1.205-2.139c-0.75-0.453-1.681-0.482-2.454-0.076
						c-2.911,1.523-6.047,2.296-9.32,2.296s-6.409-0.772-9.32-2.296c-0.773-0.406-1.705-0.376-2.454,0.076
						c-0.748,0.453-1.205,1.264-1.205,2.139v3.702c0,2.056-1.146,3.897-2.988,4.806c-0.414,0.203-0.819,0.402-1.224,0.596
						c-1.155,0.556-1.703,1.896-1.268,3.103c2.809,7.772,10.227,12.994,18.459,12.994c8.222,0,15.637-5.212,18.451-12.97
						C67.628,198.043,67.084,196.704,65.932,196.145z M48.74,207.217c-5.401,0-10.334-3.021-12.864-7.703
						c3.017-1.868,4.86-5.123,4.885-8.725c5.137,1.723,10.822,1.723,15.959,0c0.024,3.603,1.868,6.857,4.886,8.725
						C59.075,204.195,54.141,207.217,48.74,207.217z"/>
				</g>
			</g>
		</g>
		<g>
			<g>
				<g>
					<path d="M153.575,189.484c-0.474-0.509-1.137-0.799-1.832-0.799h-13.57c-2.097,0-4.131-0.618-5.885-1.789
						c-2.639-1.759-5.937-1.759-8.577,0c-1.753,1.17-3.787,1.788-5.884,1.788h-13.57c-0.695,0-1.358,0.29-1.832,0.799
						c-0.473,0.509-0.713,1.193-0.661,1.886c1.013,13.666,12.537,24.371,26.236,24.371s25.224-10.705,26.236-24.371
						C154.288,190.677,154.048,189.994,153.575,189.484z M128,210.741c-10.182,0-18.88-7.3-20.878-17.055h10.705
						c3.088,0,6.082-0.909,8.658-2.628c0.345-0.23,0.889-0.504,1.515-0.504s1.17,0.274,1.514,0.504
						c2.577,1.72,5.571,2.629,8.659,2.629h10.705C146.88,203.441,138.182,210.741,128,210.741z"/>
				</g>
			</g>
		</g>
		<g>
			<g>
				<g>
					<path d="M230.936,166.925c-0.475-0.566-1.176-0.893-1.915-0.893h-12.045c-1.979,0-3.901-0.584-5.557-1.688
						c-2.555-1.707-5.762-1.708-8.318-0.001c-1.656,1.105-3.578,1.689-5.558,1.689h-11.88c-0.739,0-1.44,0.327-1.915,0.893
						c-0.476,0.566-0.676,1.313-0.547,2.042c2.073,11.746,12.226,20.271,24.141,20.271c11.914,0,22.066-8.525,24.141-20.271
						C231.611,168.239,231.411,167.491,230.936,166.925z M207.342,184.237c-8.46,0-15.805-5.401-18.464-13.205h8.665
						c2.971,0,5.853-0.875,8.333-2.53c0.316-0.211,0.813-0.463,1.384-0.463s1.066,0.251,1.384,0.463
						c2.481,1.655,5.362,2.529,8.332,2.529h8.829C223.146,178.836,215.802,184.237,207.342,184.237z"/>
				</g>
			</g>
		</g>
		<g>
			<g>
				<g>
					<path d="M73.25,166.831c-0.474-0.509-1.137-0.799-1.832-0.799H58.457c-1.979,0-3.901-0.584-5.558-1.689
						c-2.558-1.707-5.767-1.704-8.316,0c-1.657,1.105-3.58,1.689-5.559,1.689H26.062c-0.695,0-1.358,0.29-1.832,0.799
						c-0.473,0.509-0.713,1.193-0.661,1.886c0.972,13.111,12.027,23.381,25.171,23.381c13.145,0,24.201-10.27,25.171-23.381
						C73.963,168.023,73.723,167.34,73.25,166.831z M48.74,187.097c-9.624,0-17.853-6.867-19.803-16.065h10.087
						c2.97,0,5.851-0.875,8.334-2.531c0.315-0.21,0.812-0.462,1.382-0.462s1.067,0.251,1.384,0.463
						c2.48,1.655,5.362,2.53,8.333,2.53h10.086C66.594,180.23,58.365,187.097,48.74,187.097z"/>
				</g>
			</g>
		</g>
		<g>
			<g>
				<g>
					<path d="M161.252,8.627c-0.571-0.346-1.262-0.448-1.907-0.283c-3.62,0.919-10.158,3.577-13.269,11.043
						c-0.931,2.233-0.979,4.062-0.147,5.591c1.332,2.449,4.239,2.977,7.317,3.536c4.419,0.802,7.647,1.633,8.958,5.039
						c0.53,1.379,0.987,2.612,1.396,3.717c2.61,7.04,3.69,9.954,10.059,12.341c1.65,0.619,2.942,3.728,3.005,7.231
						c0.067,3.745-1.306,8.723-5.396,10.428c-6.733,2.806-12.615,8.462-14.982,14.409c-1.388,3.486-1.452,6.834-0.186,9.682
						c3.237,7.286,2.912,12.512-1.022,16.447c-2.994,2.995-3.86,7.276-2.508,12.383c0.191,0.722,0.695,1.32,1.375,1.632
						c0.331,0.152,0.687,0.228,1.042,0.228c0.373,0,0.747-0.083,1.091-0.25c22.078-10.708,36.344-33.472,36.344-57.992
						C192.421,41.041,180.77,20.412,161.252,8.627z M156.949,115.714c0.01-1.808,0.565-3.271,1.663-4.37
						c5.438-5.438,6.13-12.844,2.056-22.014c-0.893-2.008-0.35-4.264,0.263-5.802c1.865-4.686,6.792-9.365,12.261-11.643
						c5.272-2.197,8.598-8.137,8.472-15.133c-0.104-5.798-2.557-10.438-6.248-11.823c-4.229-1.586-4.615-2.626-7.126-9.398
						c-0.416-1.122-0.88-2.373-1.419-3.773c-2.419-6.292-8.625-7.418-12.73-8.164c-1.319-0.239-3.287-0.597-3.797-1.003
						c-0.001-0.14,0.034-0.525,0.349-1.281c2.02-4.847,6.104-6.945,8.896-7.837c17.45,10.958,27.834,29.694,27.834,50.335
						C187.421,85.623,175.832,105.209,156.949,115.714z"/>
				</g>
			</g>
		</g>
		<g>
			<g>
				<g>
					<path d="M129.347,32.656c7.881-3.284,8.463-7.959,8.108-10.455c-0.243-1.71-1.372-3.205-2.947-3.902
						c-5.307-2.347-11.268-0.879-17.579,0.676c-5.938,1.463-12.083,2.976-17.837,1.282c-5.075-1.493-10.064-2.38-14.831-2.637
						c-0.711-0.042-1.404,0.228-1.906,0.732c-9.708,9.749-15.94,22.054-18.021,35.584c-0.154,1,0.31,1.994,1.175,2.518
						c5.39,3.266,7.302,5.795,7.302,6.968c0,1.136-1.918,3.432-7.325,6.164c-0.945,0.478-1.487,1.5-1.352,2.552
						c2.554,19.762,13.889,36.939,31.097,47.129c0.391,0.231,0.832,0.349,1.273,0.349c0.353,0,0.706-0.074,1.035-0.225
						c0.744-0.338,1.275-1.019,1.424-1.823c1.115-6.063,4.351-13.025,7.045-18.413c3.631-7.263-1.479-10.567-5.583-13.223
						c-1.916-1.239-3.897-2.521-5.655-4.278c-1.723-1.723-2.547-3.669-2.451-5.785c0.153-3.366,2.472-6.453,4.592-8.219
						c1.617-1.35,4.407-0.512,8.477,0.922c2.743,0.966,5.579,1.965,8.384,1.965c6.624,0,11.945-0.909,16.383-5.348
						c1.445-1.445,3.536-4.648,1.3-9.867c-1.179-2.75-3.428-5.796-6.685-9.052c-1.906-1.907-2.7-4.248-2.237-6.591
						C123.104,36.783,125.589,34.222,129.347,32.656z M121.232,49.809c2.765,2.765,4.71,5.353,5.623,7.486
						c1.237,2.886,0.203,3.92-0.238,4.362c-3.247,3.248-7.17,3.883-12.848,3.883c-1.949,0-4.376-0.855-6.723-1.682
						c-4.412-1.554-9.413-3.317-13.339-0.046c-3.806,3.172-6.193,7.596-6.386,11.833c-0.159,3.527,1.192,6.828,3.911,9.547
						c2.132,2.132,4.439,3.624,6.475,4.94c4.632,2.996,5.335,3.771,3.826,6.788c-2.348,4.696-5.09,10.55-6.665,16.211
						c-13.765-9.232-22.939-23.548-25.532-39.925c5.697-3.152,8.473-6.362,8.473-9.783c0-3.33-2.707-6.72-8.265-10.337
						c2.085-11.475,7.438-21.934,15.565-30.4c4.043,0.307,8.266,1.102,12.57,2.369c7.054,2.075,14.169,0.322,20.444-1.225
						c5.458-1.345,10.614-2.615,14.359-0.958l1.012-2.286l-0.991,2.32c0.353,2.479-3.032,4.281-5.082,5.135
						c-5.323,2.218-8.895,6.107-9.797,10.67C116.84,42.685,118.154,46.729,121.232,49.809z"/>
				</g>
			</g>
		</g>
		<g>
			<g>
				<g>
					<path d="M142.886,76.021c-0.753-0.697-1.547-1.43-2.34-2.223c-4.7-4.702-8.822-1.388-11.284,0.594
						c-0.903,0.727-1.836,1.478-2.795,2.004c-3.182,1.745-5.157,5.153-5.157,8.895c0,4.608,3.087,8.672,7.506,9.885
						c2.163,0.593,4.201,0.888,6.095,0.888c3.922,0,7.222-1.265,9.718-3.761c2.714-2.713,3.955-5.126,3.907-7.595
						C148.466,81.183,145.756,78.676,142.886,76.021z M141.093,88.767C141.093,88.768,141.093,88.768,141.093,88.767
						c-2.977,2.979-7.602,2.507-10.955,1.587c-2.254-0.618-3.828-2.7-3.828-5.063c0-1.916,0.981-3.645,2.562-4.511
						c1.346-0.738,2.504-1.67,3.525-2.493c1.661-1.337,2.483-1.901,3.123-1.901c0.503,0,0.894,0.35,1.491,0.947
						c0.841,0.841,1.682,1.62,2.479,2.358c2.156,1.994,4.019,3.716,4.046,5.113C143.555,85.78,142.71,87.15,141.093,88.767z"/>
				</g>
			</g>
		</g>
		<g>
			<g>
				<g>
					<path d="M114.947,114.323c-2.354-2.355-5.766-3.005-9.864-1.882c-2.937,0.806-4.987,3.505-4.987,6.563
						c0,0.716,0.119,1.441,0.354,2.156c0.221,0.669,0.714,1.215,1.357,1.502c3.021,1.347,6.158,2.464,9.322,3.32
						c0.216,0.059,0.436,0.087,0.653,0.087c0.626,0,1.238-0.235,1.707-0.673l0.455-0.422c1.696-1.569,3.45-3.191,3.497-5.624
						C117.475,117.678,116.659,116.034,114.947,114.323z M111.11,120.781c-2.02-0.599-4.022-1.312-5.98-2.13
						c0.13-0.661,0.618-1.208,1.275-1.388c1.579-0.434,3.73-0.682,5.007,0.596c0.938,0.938,1.027,1.377,1.032,1.377c0,0,0,0,0.001,0
						C112.379,119.537,111.733,120.191,111.11,120.781z"/>
				</g>
			</g>
		</g>
	</g>
</g>
<g id="Layer_5">
</g>
<g id="Layer_6">
</g>
<g id="Layer_7">
</g>
<g id="Layer_8">
</g>
<g id="Layer_9">
</g>
<g id="Layer_10">
</g>
<g id="Layer_11">
</g>
<g id="Layer_12">
</g>
<g id="Layer_13">
</g>
<g id="Layer_14">
</g>
<g id="Layer_15">
</g>
<g id="Layer_16">
</g>
<g id="Layer_17">
</g>
<g id="Layer_18">
</g>
<g id="Layer_19">
</g>
<g id="Layer_20">
</g>
<g id="Layer_21">
</g>
<g id="Layer_22">
</g>
<g id="Layer_23">
</g>
<g id="Layer_24">
</g>
<g id="Layer_25">
</g>
<g id="Layer_26">
</g>
<g id="Layer_27">
</g>
<g id="Layer_28">
</g>
<g id="Layer_29">
</g>
<g id="Layer_30">
</g>
<g id="Layer_31">
</g>
<g id="Layer_32">
</g>
<g id="Layer_33">
</g>
<g id="Layer_34">
</g>
<g id="Layer_35">
</g>
<g id="Layer_36">
</g>
<g id="Layer_37">
</g>
<g id="Layer_38">
</g>
<g id="Layer_39">
</g>
<g id="Layer_40">
</g>
<g id="Layer_41">
</g>
<g id="Layer_42">
</g>
<g id="Layer_43">
</g>
<g id="Layer_44">
</g>
<g id="Layer_45">
</g>
<g id="Layer_46">
</g>
<g id="Layer_47">
</g>
<g id="Layer_48">
</g>
<g id="Layer_49">
</g>
<g id="Layer_50">
</g>
<g id="Layer_51">
</g>
<g id="Layer_52">
</g>
<g id="Layer_53">
</g>
<g id="Layer_54">
</g>
<g id="Layer_55">
</g>
<g id="Layer_56">
</g>
<g id="Layer_57">
</g>
<g id="Layer_58">
</g>
<g id="Layer_59">
</g>
<g id="Layer_60">
</g>
<g id="Layer_61">
</g>
<g id="Layer_62">
</g>
<g id="Layer_63">
</g>
<g id="Layer_64">
</g>
<g id="Layer_65">
</g>
<g id="Layer_66">
</g>
<g id="Layer_67">
</g>
<g id="Layer_68">
</g>
<g id="Layer_69">
</g>
<g id="Layer_70">
</g>
<g id="Layer_71">
</g>
<g id="Layer_72">
</g>
<g id="Layer_73">
</g>
<g id="Layer_74">
</g>
<g id="Layer_75">
</g>
<g id="Layer_76">
</g>
<g id="Layer_77">
</g>
<g id="Layer_78">
</g>
<g id="Layer_79">
</g>
<g id="Layer_80">
</g>
</svg>
