<?xml version="1.0" encoding="utf-8"?>
<!-- Generator: Adobe Illustrator 24.0.0, SVG Export Plug-In . SVG Version: 6.00 Build 0)  -->
<svg version="1.1" xmlns="http://www.w3.org/2000/svg" xmlns:xlink="http://www.w3.org/1999/xlink" x="0px" y="0px"
	 viewBox="0 0 256 256" style="enable-background:new 0 0 256 256;" xml:space="preserve">
<style type="text/css">
	.st0{fill:#6CADEF;}
	.st1{fill:#F9D0B4;}
	.st2{fill:#5B5D60;}
	.st3{fill:#9BE5F9;}
	.st4{fill:#FC657E;}
	.st5{fill:#70D6F9;}
	.st6{fill:#F5C84C;}
	.st7{fill:#F98FA6;}
	.st8{fill:#FED690;}
	.st9{fill:#87D147;}
	.st10{fill:#B2E26D;}
	.st11{fill:#EDF4FC;}
	.st12{fill:#FCDD86;}
	.st13{fill:#754E34;}
	.st14{fill:#B598F9;}
	.st15{fill:#5290DB;}
	.st16{fill:#C7D7E5;}
	.st17{fill:#C18E6B;}
	.st18{fill:#DAE6F1;}
	.st19{fill:#3CAADC;}
	.st20{fill:#818182;}
	.st21{fill:#CBEFF7;}
	.st22{fill:#FCA265;}
	.st23{fill:#A57453;}
	.st24{fill:#8652D8;}
	.st25{fill:#966AEA;}
	.st26{fill:#FEB872;}
	.st27{fill:#EDB311;}
	.st28{fill:#EF4460;}
</style>
<g id="Layer_1">
</g>
<g id="Layer_2">
</g>
<g id="Layer_3">
</g>
<g id="Layer_4">
</g>
<g id="Layer_5">
</g>
<g id="Layer_6">
</g>
<g id="Layer_7">
</g>
<g id="Layer_8">
</g>
<g id="Layer_9">
</g>
<g id="Layer_10">
</g>
<g id="Layer_11">
</g>
<g id="Layer_12">
</g>
<g id="Layer_13">
</g>
<g id="Layer_14">
</g>
<g id="Layer_15">
</g>
<g id="Layer_16">
</g>
<g id="Layer_17">
</g>
<g id="Layer_18">
</g>
<g id="Layer_19">
</g>
<g id="Layer_20">
</g>
<g id="Layer_21">
</g>
<g id="Layer_22">
</g>
<g id="Layer_23">
</g>
<g id="Layer_24">
</g>
<g id="Layer_25">
</g>
<g id="Layer_26">
</g>
<g id="Layer_27">
</g>
<g id="Layer_28">
</g>
<g id="Layer_29">
	<g>
		<g>
			<g>
				<path class="st20" d="M158.75,239.5v5.75c0,4.537,3.713,8.25,8.25,8.25s8.25-3.713,8.25-8.25v-5.75H158.75z"/>
			</g>
		</g>
		<g>
			<g>
				<path class="st20" d="M80.75,239.5v5.75c0,4.537,3.713,8.25,8.25,8.25s8.25-3.713,8.25-8.25v-5.75H80.75z"/>
			</g>
		</g>
		<g>
			<g>
				<path class="st11" d="M182,226.5H74c-3.59,0-6.5,2.91-6.5,6.5s2.91,6.5,6.5,6.5h108c3.59,0,6.5-2.91,6.5-6.5
					S185.59,226.5,182,226.5z"/>
			</g>
		</g>
		<g>
			<g>
				<path class="st0" d="M160.5,29.5h-65c-3.59,0-6.5,2.91-6.5,6.5s2.91,6.5,6.5,6.5h65c3.59,0,6.5-2.91,6.5-6.5
					S164.09,29.5,160.5,29.5z"/>
			</g>
		</g>
		<g>
			<g>
				<path class="st18" d="M168,196H88c-6.6,0-12,5.4-12,12v18.5h104V208C180,201.4,174.6,196,168,196z"/>
			</g>
		</g>
		<g>
			<g>
				<rect x="105.65" y="42.5" class="st3" width="44.701" height="153.5"/>
			</g>
		</g>
		<g>
			<g>
				<rect x="118.5" y="42.5" class="st21" width="19" height="153.5"/>
			</g>
		</g>
		<g>
			<g>
				<path class="st0" d="M148.087,18.5h-40.174c-4.902,0-8.913,4.011-8.913,8.913V29.5h58v-2.087
					C157,22.511,152.989,18.5,148.087,18.5z"/>
			</g>
		</g>
		<g>
			<g>
				
					<ellipse transform="matrix(0.9732 -0.2298 0.2298 0.9732 -30.4631 50.0425)" class="st4" cx="199.666" cy="155.839" rx="11.356" ry="11.356"/>
			</g>
		</g>
		<g>
			<g>
				<circle class="st4" cx="50.647" cy="79.839" r="15.781"/>
			</g>
		</g>
		<g>
			<g>
				<path class="st5" d="M51.206,188.1h-2.4v-2.3c0-1.8-1.4-3.2-3.2-3.2c-1.7,0-3.2,1.4-3.2,3.1v2.4h-2.3c-1.8,0-3.2,1.4-3.2,3.2
					c-0.1,1.7,1.3,3.2,3.2,3.2h2.3v2.3c0,1.8,1.4,3.2,3.2,3.2c1.7,0,3.2-1.4,3.2-3.1v-2.4h2.3c1.8,0,3.2-1.4,3.2-3.2
					C54.306,189.6,52.906,188.1,51.206,188.1z"/>
			</g>
		</g>
		<g>
			<g>
				<path class="st4" d="M166.506,0c-1.878,0-3.4,1.522-3.4,3.4c0,1.878,1.522,3.4,3.4,3.4c1.878,0,3.4-1.522,3.4-3.4
					C169.906,1.522,168.384,0,166.506,0z"/>
			</g>
		</g>
		<g>
			<g>
				<path class="st9" d="M218.288,97.2c-3.1-0.6-5.6-3-6.2-6.1c0-0.1-0.3-0.1-0.3,0c-0.6,3.1-3.1,5.5-6.2,6.1c-0.1,0-0.1,0.2,0,0.3
					c3.1,0.6,5.6,3,6.2,6.1c0,0.1,0.3,0.1,0.3,0c0.6-3.1,3.1-5.5,6.2-6.1C218.388,97.4,218.388,97.2,218.288,97.2z"/>
			</g>
		</g>
		<g>
			<g>
				<path class="st6" d="M54.4,218c-1.878,0-3.4,1.522-3.4,3.4c0,1.878,1.522,3.4,3.4,3.4c1.878,0,3.4-1.522,3.4-3.4
					C57.8,219.522,56.278,218,54.4,218z"/>
			</g>
		</g>
		<g>
			<g>
				<path class="st6" d="M201.288,22.2c-4.5-0.8-8-4.3-8.9-8.7c0-0.2-0.4-0.2-0.4,0c-0.9,4.4-4.4,7.9-8.9,8.7c-0.2,0-0.2,0.3,0,0.4
					c4.5,0.8,8,4.3,8.9,8.7c0,0.2,0.4,0.2,0.4,0c0.9-4.4,4.4-7.9,8.9-8.7C201.488,22.5,201.488,22.2,201.288,22.2z"/>
			</g>
		</g>
		<g>
			<g>
				<g>
					<path d="M182,224H74c-4.963,0-9,4.038-9,9s4.037,9,9,9h108c4.963,0,9-4.038,9-9S186.963,224,182,224z M182,237H74
						c-2.206,0-4-1.794-4-4s1.794-4,4-4h108c2.206,0,4,1.794,4,4S184.206,237,182,237z"/>
				</g>
			</g>
		</g>
		<g>
			<g>
				<g>
					<path d="M160.5,27h-65c-4.963,0-9,4.038-9,9s4.037,9,9,9h65c4.963,0,9-4.038,9-9S165.463,27,160.5,27z M160.5,40h-65
						c-2.206,0-4-1.794-4-4s1.794-4,4-4h65c2.206,0,4,1.794,4,4S162.706,40,160.5,40z"/>
				</g>
			</g>
		</g>
		<g>
			<g>
				<g>
					<g>
						<path d="M168,193.5H88c-7.995,0-14.5,6.505-14.5,14.5v18.5c0,1.381,1.119,2.5,2.5,2.5h104c1.381,0,2.5-1.119,2.5-2.5V208
							C182.5,200.005,175.995,193.5,168,193.5z M177.5,224h-99v-16c0-5.238,4.262-9.5,9.5-9.5h80c5.238,0,9.5,4.262,9.5,9.5V224z"/>
					</g>
				</g>
			</g>
		</g>
		<g>
			<g>
				<g>
					<path d="M150.351,40h-44.7c-1.381,0-2.5,1.119-2.5,2.5V196c0,1.381,1.119,2.5,2.5,2.5h44.7c1.381,0,2.5-1.119,2.5-2.5V42.5
						C152.851,41.119,151.731,40,150.351,40z M147.851,193.5h-39.7V45h39.7V193.5z"/>
				</g>
			</g>
		</g>
		<g>
			<g>
				<g>
					<path d="M137.5,40h-19c-1.381,0-2.5,1.119-2.5,2.5V196c0,1.381,1.119,2.5,2.5,2.5h19c1.381,0,2.5-1.119,2.5-2.5V42.5
						C140,41.119,138.881,40,137.5,40z M135,193.5h-14V45h14V193.5z"/>
				</g>
			</g>
		</g>
		<g>
			<g>
				<path d="M160.5,41c-1.381,0-2.5,1.119-2.5,2.5v151c0,1.381,1.119,2.5,2.5,2.5s2.5-1.119,2.5-2.5v-151
					C163,42.119,161.881,41,160.5,41z"/>
			</g>
		</g>
		<g>
			<g>
				<path d="M95.5,41c-1.381,0-2.5,1.119-2.5,2.5v151c0,1.381,1.119,2.5,2.5,2.5s2.5-1.119,2.5-2.5v-151
					C98,42.119,96.881,41,95.5,41z"/>
			</g>
		</g>
		<g>
			<g>
				<g>
					<g>
						<path d="M148.087,16h-40.174C101.62,16,96.5,21.12,96.5,27.413V29.5c0,1.381,1.119,2.5,2.5,2.5h58c1.381,0,2.5-1.119,2.5-2.5
							v-2.087C159.5,21.12,154.38,16,148.087,16z M101.513,27c0.214-3.344,3.003-6,6.4-6h40.174c3.397,0,6.187,2.656,6.4,6H101.513z
							"/>
					</g>
				</g>
			</g>
		</g>
		<g>
			<g>
				<path d="M164.5,209h-7c-1.381,0-2.5,1.119-2.5,2.5s1.119,2.5,2.5,2.5h7c1.381,0,2.5-1.119,2.5-2.5S165.881,209,164.5,209z"/>
			</g>
		</g>
		<g>
			<g>
				<g>
					<path d="M199.666,141.983c-7.641,0-13.856,6.216-13.856,13.856c0,7.641,6.216,13.856,13.856,13.856s13.856-6.216,13.856-13.856
						C213.522,148.199,207.307,141.983,199.666,141.983z M199.666,164.695c-4.884,0-8.856-3.973-8.856-8.856
						s3.973-8.856,8.856-8.856s8.856,3.973,8.856,8.856S204.55,164.695,199.666,164.695z"/>
				</g>
			</g>
		</g>
		<g>
			<g>
				<path d="M199.666,135.44c-1.381,0-2.5,1.119-2.5,2.5v4.642c0,1.381,1.119,2.5,2.5,2.5s2.5-1.119,2.5-2.5v-4.642
					C202.166,136.559,201.047,135.44,199.666,135.44z"/>
			</g>
		</g>
		<g>
			<g>
				<path d="M202.567,133.119h-5.802c-1.381,0-2.5,1.119-2.5,2.5s1.119,2.5,2.5,2.5h5.802c1.381,0,2.5-1.119,2.5-2.5
					S203.948,133.119,202.567,133.119z"/>
			</g>
		</g>
		<g>
			<g>
				<path d="M199.666,166.597c-1.381,0-2.5,1.119-2.5,2.5v4.642c0,1.381,1.119,2.5,2.5,2.5s2.5-1.119,2.5-2.5v-4.642
					C202.166,167.716,201.047,166.597,199.666,166.597z"/>
			</g>
		</g>
		<g>
			<g>
				<path d="M202.567,173.559h-5.802c-1.381,0-2.5,1.119-2.5,2.5s1.119,2.5,2.5,2.5h5.802c1.381,0,2.5-1.119,2.5-2.5
					S203.948,173.559,202.567,173.559z"/>
			</g>
		</g>
		<g>
			<g>
				<path d="M189.435,147.045l-4.02-2.321c-1.193-0.689-2.725-0.282-3.415,0.915c-0.69,1.196-0.28,2.725,0.915,3.415l4.02,2.321
					c0.394,0.228,0.823,0.335,1.248,0.335c0.863,0,1.704-0.448,2.167-1.25C191.04,149.265,190.63,147.736,189.435,147.045z"/>
			</g>
		</g>
		<g>
			<g>
				<path d="M184.855,141.052c-1.193-0.689-2.725-0.281-3.415,0.915l-2.9,5.024c-0.69,1.196-0.28,2.725,0.915,3.415
					c0.394,0.228,0.823,0.335,1.248,0.335c0.863,0,1.704-0.449,2.167-1.25l2.9-5.024
					C186.461,143.271,186.051,141.742,184.855,141.052z"/>
			</g>
		</g>
		<g>
			<g>
				<path d="M216.417,162.624l-4.02-2.321c-1.193-0.69-2.725-0.282-3.415,0.915c-0.69,1.196-0.28,2.725,0.915,3.415l4.02,2.321
					c0.394,0.228,0.823,0.335,1.248,0.335c0.863,0,1.704-0.448,2.167-1.25C218.022,164.843,217.612,163.314,216.417,162.624z"/>
			</g>
		</g>
		<g>
			<g>
				<path d="M219.878,161.271c-1.193-0.689-2.724-0.282-3.415,0.915l-2.901,5.025c-0.69,1.196-0.28,2.725,0.915,3.415
					c0.394,0.228,0.823,0.335,1.248,0.335c0.863,0,1.704-0.448,2.167-1.25l2.901-5.025
					C221.483,163.491,221.073,161.962,219.878,161.271z"/>
			</g>
		</g>
		<g>
			<g>
				<path d="M190.35,161.218c-0.69-1.197-2.221-1.604-3.415-0.915l-4.02,2.321c-1.195,0.69-1.605,2.219-0.915,3.415
					c0.463,0.802,1.304,1.25,2.167,1.25c0.425,0,0.854-0.108,1.248-0.335l4.02-2.321C190.63,163.942,191.04,162.414,190.35,161.218z
					"/>
			</g>
		</g>
		<g>
			<g>
				<path d="M185.771,167.211l-2.9-5.025c-0.691-1.197-2.222-1.604-3.415-0.915c-1.195,0.69-1.605,2.219-0.915,3.415l2.9,5.025
					c0.463,0.802,1.304,1.25,2.167,1.25c0.425,0,0.854-0.108,1.248-0.335C186.051,169.937,186.461,168.407,185.771,167.211z"/>
			</g>
		</g>
		<g>
			<g>
				<path d="M217.332,145.64c-0.69-1.197-2.222-1.603-3.415-0.915l-4.02,2.321c-1.195,0.69-1.605,2.219-0.915,3.415
					c0.463,0.802,1.304,1.25,2.167,1.25c0.425,0,0.854-0.108,1.248-0.335l4.02-2.321
					C217.612,148.364,218.022,146.835,217.332,145.64z"/>
			</g>
		</g>
		<g>
			<g>
				<path d="M220.793,146.991l-2.901-5.024c-0.691-1.197-2.222-1.603-3.415-0.915c-1.196,0.69-1.605,2.22-0.915,3.415l2.901,5.024
					c0.463,0.802,1.304,1.25,2.167,1.25c0.425,0,0.854-0.108,1.248-0.335C221.074,149.716,221.483,148.187,220.793,146.991z"/>
			</g>
		</g>
		<g>
			<g>
				<g>
					<path d="M50.646,61.558c-10.08,0-18.281,8.201-18.281,18.281S40.566,98.12,50.646,98.12s18.281-8.201,18.281-18.281
						S60.727,61.558,50.646,61.558z M50.646,93.12c-7.323,0-13.281-5.958-13.281-13.281s5.958-13.281,13.281-13.281
						s13.281,5.958,13.281,13.281S57.97,93.12,50.646,93.12z"/>
				</g>
			</g>
		</g>
		<g>
			<g>
				<path d="M50.646,52.465c-1.381,0-2.5,1.119-2.5,2.5v6.45c0,1.381,1.119,2.5,2.5,2.5s2.5-1.119,2.5-2.5v-6.45
					C53.146,53.584,52.027,52.465,50.646,52.465z"/>
			</g>
		</g>
		<g>
			<g>
				<path d="M54.678,49.24h-8.063c-1.381,0-2.5,1.119-2.5,2.5s1.119,2.5,2.5,2.5h8.063c1.381,0,2.5-1.119,2.5-2.5
					S56.059,49.24,54.678,49.24z"/>
			</g>
		</g>
		<g>
			<g>
				<path d="M50.646,95.762c-1.381,0-2.5,1.119-2.5,2.5v6.45c0,1.381,1.119,2.5,2.5,2.5s2.5-1.119,2.5-2.5v-6.45
					C53.146,96.881,52.027,95.762,50.646,95.762z"/>
			</g>
		</g>
		<g>
			<g>
				<path d="M54.678,105.438h-8.063c-1.381,0-2.5,1.119-2.5,2.5s1.119,2.5,2.5,2.5h8.063c1.381,0,2.5-1.119,2.5-2.5
					S56.059,105.438,54.678,105.438z"/>
			</g>
		</g>
		<g>
			<g>
				<path d="M35.941,68.462l-5.586-3.225c-1.193-0.69-2.725-0.282-3.415,0.915c-0.69,1.196-0.28,2.725,0.915,3.415l5.586,3.225
					c0.394,0.228,0.823,0.335,1.248,0.335c0.863,0,1.704-0.448,2.167-1.25C37.547,70.682,37.137,69.153,35.941,68.462z"/>
			</g>
		</g>
		<g>
			<g>
				<path d="M29.578,60.133c-1.193-0.689-2.725-0.281-3.415,0.915l-4.031,6.982c-0.69,1.196-0.28,2.725,0.915,3.415
					c0.394,0.228,0.823,0.335,1.248,0.335c0.863,0,1.704-0.449,2.167-1.25l4.031-6.982C31.184,62.353,30.773,60.824,29.578,60.133z"
					/>
			</g>
		</g>
		<g>
			<g>
				<path d="M73.437,90.111l-5.586-3.225c-1.194-0.69-2.725-0.282-3.415,0.915c-0.69,1.196-0.28,2.725,0.915,3.415l5.586,3.225
					c0.394,0.228,0.823,0.335,1.248,0.335c0.863,0,1.704-0.448,2.167-1.25C75.043,92.33,74.633,90.801,73.437,90.111z"/>
			</g>
		</g>
		<g>
			<g>
				<path d="M78.246,88.232c-1.193-0.69-2.725-0.281-3.415,0.915L70.8,96.129c-0.69,1.196-0.28,2.725,0.915,3.415
					c0.394,0.228,0.823,0.335,1.248,0.335c0.863,0,1.704-0.449,2.167-1.25l4.031-6.982C79.852,90.451,79.441,88.922,78.246,88.232z"
					/>
			</g>
		</g>
		<g>
			<g>
				<path d="M36.856,87.801c-0.69-1.197-2.222-1.605-3.415-0.915l-5.586,3.225c-1.195,0.69-1.605,2.219-0.915,3.415
					c0.463,0.802,1.304,1.25,2.167,1.25c0.425,0,0.854-0.108,1.248-0.335l5.586-3.225C37.137,90.525,37.547,88.997,36.856,87.801z"
					/>
			</g>
		</g>
		<g>
			<g>
				<path d="M30.493,96.129l-4.031-6.982c-0.69-1.197-2.223-1.605-3.415-0.915c-1.195,0.69-1.605,2.219-0.915,3.415l4.031,6.982
					c0.463,0.802,1.304,1.25,2.167,1.25c0.425,0,0.854-0.108,1.248-0.335C30.773,98.854,31.184,97.325,30.493,96.129z"/>
			</g>
		</g>
		<g>
			<g>
				<path d="M74.353,66.152c-0.69-1.197-2.222-1.605-3.415-0.915l-5.586,3.225c-1.195,0.69-1.605,2.219-0.915,3.415
					c0.463,0.802,1.304,1.25,2.167,1.25c0.425,0,0.854-0.108,1.248-0.335l5.586-3.225C74.633,68.877,75.043,67.348,74.353,66.152z"
					/>
			</g>
		</g>
		<g>
			<g>
				<path d="M79.161,68.031l-4.031-6.982c-0.691-1.197-2.222-1.604-3.415-0.915c-1.195,0.69-1.605,2.219-0.915,3.415l4.031,6.982
					c0.463,0.802,1.304,1.25,2.167,1.25c0.425,0,0.854-0.108,1.248-0.335C79.441,70.755,79.852,69.227,79.161,68.031z"/>
			</g>
		</g>
		<g>
			<g>
				<g>
					<g>
						<path d="M175.25,237h-16.5c-1.381,0-2.5,1.119-2.5,2.5v5.75c0,5.928,4.822,10.75,10.75,10.75s10.75-4.822,10.75-10.75v-5.75
							C177.75,238.119,176.631,237,175.25,237z M172.75,245.25c0,3.17-2.579,5.75-5.75,5.75s-5.75-2.58-5.75-5.75V242h11.5V245.25z"
							/>
					</g>
				</g>
			</g>
		</g>
		<g>
			<g>
				<g>
					<g>
						<path d="M97.25,237h-16.5c-1.381,0-2.5,1.119-2.5,2.5v5.75c0,5.928,4.822,10.75,10.75,10.75s10.75-4.822,10.75-10.75v-5.75
							C99.75,238.119,98.631,237,97.25,237z M94.75,245.25c0,3.17-2.579,5.75-5.75,5.75s-5.75-2.58-5.75-5.75V242h11.5V245.25z"/>
					</g>
				</g>
			</g>
		</g>
	</g>
</g>
<g id="Layer_30">
</g>
<g id="Layer_31">
</g>
<g id="Layer_32">
</g>
<g id="Layer_33">
</g>
<g id="Layer_34">
</g>
<g id="Layer_35">
</g>
<g id="Layer_36">
</g>
<g id="Layer_37">
</g>
<g id="Layer_38">
</g>
<g id="Layer_39">
</g>
<g id="Layer_40">
</g>
<g id="Layer_41">
</g>
<g id="Layer_42">
</g>
<g id="Layer_43">
</g>
<g id="Layer_44">
</g>
<g id="Layer_45">
</g>
<g id="Layer_46">
</g>
<g id="Layer_47">
</g>
<g id="Layer_48">
</g>
<g id="Layer_49">
</g>
<g id="Layer_50">
</g>
<g id="Layer_51">
</g>
<g id="Layer_52">
</g>
<g id="Layer_53">
</g>
<g id="Layer_54">
</g>
<g id="Layer_55">
</g>
<g id="Layer_56">
</g>
<g id="Layer_57">
</g>
<g id="Layer_58">
</g>
<g id="Layer_59">
</g>
<g id="Layer_60">
</g>
<g id="Layer_61">
</g>
<g id="Layer_62">
</g>
<g id="Layer_63">
</g>
<g id="Layer_64">
</g>
<g id="Layer_65">
</g>
<g id="Layer_66">
</g>
<g id="Layer_67">
</g>
<g id="Layer_68">
</g>
<g id="Layer_69">
</g>
<g id="Layer_70">
</g>
<g id="Layer_71">
</g>
<g id="Layer_72">
</g>
<g id="Layer_73">
</g>
<g id="Layer_74">
</g>
<g id="Layer_75">
</g>
<g id="Layer_76">
</g>
<g id="Layer_77">
</g>
<g id="Layer_78">
</g>
<g id="Layer_79">
</g>
<g id="Layer_80">
</g>
</svg>
