<?xml version="1.0" encoding="utf-8"?>
<!-- Generator: Adobe Illustrator 24.0.0, SVG Export Plug-In . SVG Version: 6.00 Build 0)  -->
<svg version="1.1" xmlns="http://www.w3.org/2000/svg" xmlns:xlink="http://www.w3.org/1999/xlink" x="0px" y="0px"
	 viewBox="0 0 256 256" style="enable-background:new 0 0 256 256;" xml:space="preserve">
<style type="text/css">
	.st0{fill:#6CADEF;}
	.st1{fill:#F9D0B4;}
	.st2{fill:#5B5D60;}
	.st3{fill:#9BE5F9;}
	.st4{fill:#FC657E;}
	.st5{fill:#70D6F9;}
	.st6{fill:#F5C84C;}
	.st7{fill:#F98FA6;}
	.st8{fill:#FED690;}
	.st9{fill:#87D147;}
	.st10{fill:#B2E26D;}
	.st11{fill:#EDF4FC;}
	.st12{fill:#FCDD86;}
	.st13{fill:#754E34;}
	.st14{fill:#B598F9;}
	.st15{fill:#5290DB;}
	.st16{fill:#C7D7E5;}
	.st17{fill:#C18E6B;}
	.st18{fill:#DAE6F1;}
	.st19{fill:#3CAADC;}
	.st20{fill:#818182;}
	.st21{fill:#CBEFF7;}
	.st22{fill:#FCA265;}
	.st23{fill:#A57453;}
	.st24{fill:#8652D8;}
	.st25{fill:#966AEA;}
	.st26{fill:#FEB872;}
	.st27{fill:#EDB311;}
	.st28{fill:#EF4460;}
</style>
<g id="Layer_1">
</g>
<g id="Layer_2">
</g>
<g id="Layer_3">
</g>
<g id="Layer_4">
</g>
<g id="Layer_5">
</g>
<g id="Layer_6">
</g>
<g id="Layer_7">
</g>
<g id="Layer_8">
</g>
<g id="Layer_9">
</g>
<g id="Layer_10">
</g>
<g id="Layer_11">
</g>
<g id="Layer_12">
</g>
<g id="Layer_13">
</g>
<g id="Layer_14">
</g>
<g id="Layer_15">
</g>
<g id="Layer_16">
</g>
<g id="Layer_17">
</g>
<g id="Layer_18">
</g>
<g id="Layer_19">
</g>
<g id="Layer_20">
</g>
<g id="Layer_21">
</g>
<g id="Layer_22">
</g>
<g id="Layer_23">
</g>
<g id="Layer_24">
</g>
<g id="Layer_25">
</g>
<g id="Layer_26">
</g>
<g id="Layer_27">
</g>
<g id="Layer_28">
</g>
<g id="Layer_29">
</g>
<g id="Layer_30">
</g>
<g id="Layer_31">
</g>
<g id="Layer_32">
</g>
<g id="Layer_33">
</g>
<g id="Layer_34">
</g>
<g id="Layer_35">
	<g>
		<g>
			<g>
				<path class="st14" d="M231.017,102.667l-98.15-98.151C131.576,3.225,129.826,2.5,128,2.5s-3.576,0.725-4.866,2.016
					l-98.15,98.151c-2.689,2.688-2.689,7.046,0,9.734c2.686,2.688,7.047,2.688,9.733,0L128,19.117l93.284,93.284
					c2.687,2.689,7.047,2.687,9.733,0C233.706,109.713,233.706,105.355,231.017,102.667z"/>
			</g>
		</g>
		<g>
			<g>
				<polygon class="st3" points="128,19.117 40.242,106.875 40.242,253.5 215.758,253.5 215.758,106.875 				"/>
			</g>
		</g>
		<g>
			<g>
				<path class="st20" d="M86.066,134.669c-3.909,0-7.078,3.169-7.078,7.078v48.456c0,3.909,3.169,7.078,7.078,7.078
					c3.909,0,7.078-3.169,7.078-7.078v-48.456C93.144,137.838,89.975,134.669,86.066,134.669z"/>
			</g>
		</g>
		<g>
			<g>
				<path class="st20" d="M71.911,140.386L71.911,140.386c-3.909,0-7.078,3.169-7.078,7.078v37.023c0,3.909,3.169,7.078,7.078,7.078
					h0c3.909,0,7.078-3.169,7.078-7.078v-37.023C78.989,143.554,75.82,140.386,71.911,140.386z"/>
			</g>
		</g>
		<g>
			<g>
				<path class="st2" d="M61.021,158.897c-3.909,0-7.078,3.169-7.078,7.078s3.169,7.078,7.078,7.078h3.811v-14.156H61.021z"/>
			</g>
		</g>
		<g>
			<g>
				<path class="st20" d="M169.934,134.669c-3.909,0-7.078,3.169-7.078,7.078v48.456c0,3.909,3.169,7.078,7.078,7.078
					c3.909,0,7.078-3.169,7.078-7.078v-48.456C177.011,137.838,173.843,134.669,169.934,134.669z"/>
			</g>
		</g>
		<g>
			<g>
				<path class="st20" d="M184.089,140.386L184.089,140.386c-3.909,0-7.078,3.169-7.078,7.078v37.023
					c0,3.909,3.169,7.078,7.078,7.078h0c3.909,0,7.078-3.169,7.078-7.078v-37.023C191.167,143.554,187.999,140.386,184.089,140.386z
					"/>
			</g>
		</g>
		<g>
			<g>
				<path class="st2" d="M194.979,158.897h-3.811v14.156h3.811c3.909,0,7.078-3.169,7.078-7.078S198.887,158.897,194.979,158.897z"
					/>
			</g>
		</g>
		<g>
			<g>
				<rect x="93.144" y="158.897" class="st11" width="69.711" height="14.156"/>
			</g>
		</g>
		<g>
			<g>
				<rect x="137.562" y="158.897" class="st16" width="12.494" height="14.156"/>
			</g>
		</g>
		<g>
			<g>
				<rect x="105.944" y="158.897" class="st16" width="11.319" height="14.156"/>
			</g>
		</g>
		<g>
			<g>
				<g>
					<g>
						<path d="M232.784,100.899L134.635,2.749C132.862,0.976,130.507,0,128,0s-4.862,0.976-6.634,2.749l-98.15,98.15
							c-1.772,1.772-2.749,4.129-2.749,6.635c0,2.506,0.977,4.863,2.748,6.635c1.772,1.772,4.128,2.748,6.635,2.748
							s4.862-0.976,6.634-2.748L128,22.653l91.516,91.515c1.771,1.773,4.128,2.749,6.636,2.749c2.507,0,4.862-0.977,6.633-2.748
							c1.772-1.772,2.749-4.129,2.749-6.635C235.533,105.028,234.557,102.671,232.784,100.899z M229.248,110.634
							c-0.826,0.827-1.927,1.283-3.098,1.283c-1.171,0-2.271-0.456-3.098-1.283l-0.001,0L129.768,17.35
							c-0.488-0.488-1.128-0.732-1.768-0.732s-1.279,0.244-1.768,0.732l-93.285,93.284c-0.826,0.828-1.927,1.283-3.098,1.283
							s-2.271-0.456-3.099-1.284c-0.828-0.828-1.284-1.928-1.284-3.099c0-1.17,0.456-2.271,1.284-3.099l98.151-98.151
							C125.729,5.456,126.829,5,128,5s2.271,0.456,3.099,1.284l98.15,98.151c0.828,0.828,1.284,1.928,1.284,3.099
							C230.533,108.705,230.077,109.805,229.248,110.634z"/>
					</g>
				</g>
			</g>
		</g>
		<g>
			<g>
				<path d="M222.984,251H33.016c-1.381,0-2.5,1.119-2.5,2.5s1.119,2.5,2.5,2.5h189.969c1.381,0,2.5-1.119,2.5-2.5
					S224.365,251,222.984,251z"/>
			</g>
		</g>
		<g>
			<g>
				<g>
					<path d="M217.525,105.107L129.768,17.35c-0.977-0.977-2.559-0.977-3.535,0l-87.758,87.757
						c-0.469,0.469-0.732,1.104-0.732,1.768V253.5c0,1.381,1.119,2.5,2.5,2.5h175.516c1.381,0,2.5-1.119,2.5-2.5V106.875
						C218.258,106.211,217.994,105.576,217.525,105.107z M213.258,251H42.742V107.91L128,22.653l85.258,85.257V251z"/>
				</g>
			</g>
		</g>
		<g>
			<g>
				<path class="st5" d="M22.206,198.1h-2.4v-2.3c0-1.8-1.4-3.2-3.2-3.2c-1.7,0-3.2,1.4-3.2,3.1v2.4h-2.3c-1.8,0-3.2,1.4-3.2,3.2
					c-0.1,1.7,1.3,3.2,3.2,3.2h2.3v2.3c0,1.8,1.4,3.2,3.2,3.2c1.7,0,3.2-1.4,3.2-3.1v-2.4h2.3c1.8,0,3.2-1.4,3.2-3.2
					C25.306,199.6,23.906,198.1,22.206,198.1z"/>
			</g>
		</g>
		<g>
			<g>
				<path class="st6" d="M22.506,228.5c-1.878,0-3.4,1.522-3.4,3.4c0,1.878,1.522,3.4,3.4,3.4c1.878,0,3.4-1.522,3.4-3.4
					C25.906,230.022,24.384,228.5,22.506,228.5z"/>
			</g>
		</g>
		<g>
			<g>
				<path class="st9" d="M170.506,0c-1.878,0-3.4,1.522-3.4,3.4c0,1.878,1.522,3.4,3.4,3.4c1.878,0,3.4-1.522,3.4-3.4
					C173.906,1.522,172.384,0,170.506,0z"/>
			</g>
		</g>
		<g>
			<g>
				<path class="st4" d="M241.288,201.2c-3.1-0.6-5.6-3-6.2-6.1c0-0.1-0.3-0.1-0.3,0c-0.6,3.1-3.1,5.5-6.2,6.1c-0.1,0-0.1,0.2,0,0.3
					c3.1,0.6,5.6,3,6.2,6.1c0,0.1,0.3,0.1,0.3,0c0.6-3.1,3.1-5.5,6.2-6.1C241.388,201.4,241.388,201.2,241.288,201.2z"/>
			</g>
		</g>
		<g>
			<g>
				<path class="st6" d="M200.288,24.2c-4.5-0.8-8-4.3-8.9-8.7c0-0.2-0.4-0.2-0.4,0c-0.9,4.4-4.4,7.9-8.9,8.7c-0.2,0-0.2,0.3,0,0.4
					c4.5,0.8,8,4.3,8.9,8.7c0,0.2,0.4,0.2,0.4,0c0.9-4.4,4.4-7.9,8.9-8.7C200.488,24.5,200.488,24.2,200.288,24.2z"/>
			</g>
		</g>
		<g>
			<g>
				<g>
					<path d="M86.066,132.169c-5.281,0-9.578,4.296-9.578,9.578v48.457c0,5.281,4.297,9.578,9.578,9.578s9.578-4.297,9.578-9.578
						v-48.457C95.645,136.465,91.348,132.169,86.066,132.169z M90.645,190.203c0,2.524-2.054,4.578-4.578,4.578
						s-4.578-2.054-4.578-4.578v-48.457c0-2.524,2.054-4.578,4.578-4.578s4.578,2.054,4.578,4.578V190.203z"/>
				</g>
			</g>
		</g>
		<g>
			<g>
				<g>
					<path d="M71.91,137.886c-5.281,0-9.577,4.296-9.577,9.578v37.023c0,5.281,4.296,9.578,9.577,9.578s9.578-4.297,9.578-9.578
						v-37.023C81.488,142.182,77.191,137.886,71.91,137.886z M76.488,184.486c0,2.524-2.054,4.578-4.578,4.578
						c-2.523,0-4.577-2.054-4.577-4.578v-37.023c0-2.524,2.054-4.578,4.577-4.578c2.524,0,4.578,2.054,4.578,4.578V184.486z"/>
				</g>
			</g>
		</g>
		<g>
			<g>
				<g>
					<g>
						<path d="M64.833,156.397h-3.812c-5.281,0-9.578,4.297-9.578,9.578s4.297,9.578,9.578,9.578h3.812c1.381,0,2.5-1.119,2.5-2.5
							v-14.156C67.333,157.516,66.214,156.397,64.833,156.397z M62.333,170.553h-1.312c-2.524,0-4.578-2.054-4.578-4.578
							c0-2.524,2.054-4.578,4.578-4.578h1.312V170.553z"/>
					</g>
				</g>
			</g>
		</g>
		<g>
			<g>
				<g>
					<path d="M169.934,132.169c-5.281,0-9.578,4.296-9.578,9.578v48.457c0,5.281,4.297,9.578,9.578,9.578s9.578-4.297,9.578-9.578
						v-48.457C179.512,136.465,175.215,132.169,169.934,132.169z M174.512,190.203c0,2.524-2.054,4.578-4.578,4.578
						s-4.578-2.054-4.578-4.578v-48.457c0-2.524,2.054-4.578,4.578-4.578s4.578,2.054,4.578,4.578V190.203z"/>
				</g>
			</g>
		</g>
		<g>
			<g>
				<g>
					<path d="M184.09,137.886c-5.281,0-9.578,4.296-9.578,9.578v37.023c0,5.281,4.297,9.578,9.578,9.578s9.577-4.297,9.577-9.578
						v-37.023C193.667,142.182,189.371,137.886,184.09,137.886z M188.667,184.486c0,2.524-2.054,4.578-4.577,4.578
						c-2.524,0-4.578-2.054-4.578-4.578v-37.023c0-2.524,2.054-4.578,4.578-4.578c2.523,0,4.577,2.054,4.577,4.578V184.486z"/>
				</g>
			</g>
		</g>
		<g>
			<g>
				<g>
					<g>
						<path d="M194.979,156.397h-3.812c-1.381,0-2.5,1.119-2.5,2.5v14.156c0,1.381,1.119,2.5,2.5,2.5h3.812
							c5.281,0,9.578-4.296,9.578-9.578S200.26,156.397,194.979,156.397z M194.979,170.553h-1.312v-9.156h1.312
							c2.524,0,4.578,2.054,4.578,4.578C199.557,168.499,197.503,170.553,194.979,170.553z"/>
					</g>
				</g>
			</g>
		</g>
		<g>
			<g>
				<g>
					<path d="M162.855,156.397H93.145c-1.381,0-2.5,1.119-2.5,2.5v14.156c0,1.381,1.119,2.5,2.5,2.5h69.711
						c1.381,0,2.5-1.119,2.5-2.5v-14.156C165.355,157.516,164.236,156.397,162.855,156.397z M160.355,170.553H95.645v-9.156h64.711
						V170.553z"/>
				</g>
			</g>
		</g>
		<g>
			<g>
				<g>
					<path d="M150.057,156.397h-12.494c-1.381,0-2.5,1.119-2.5,2.5v14.156c0,1.381,1.119,2.5,2.5,2.5h12.494
						c1.381,0,2.5-1.119,2.5-2.5v-14.156C152.557,157.516,151.438,156.397,150.057,156.397z M147.557,170.553h-7.494v-9.156h7.494
						V170.553z"/>
				</g>
			</g>
		</g>
		<g>
			<g>
				<g>
					<path d="M117.263,156.397h-11.319c-1.381,0-2.5,1.119-2.5,2.5v14.156c0,1.381,1.119,2.5,2.5,2.5h11.319
						c1.381,0,2.5-1.119,2.5-2.5v-14.156C119.763,157.516,118.644,156.397,117.263,156.397z M114.763,170.553h-6.319v-9.156h6.319
						V170.553z"/>
				</g>
			</g>
		</g>
	</g>
</g>
<g id="Layer_36">
</g>
<g id="Layer_37">
</g>
<g id="Layer_38">
</g>
<g id="Layer_39">
</g>
<g id="Layer_40">
</g>
<g id="Layer_41">
</g>
<g id="Layer_42">
</g>
<g id="Layer_43">
</g>
<g id="Layer_44">
</g>
<g id="Layer_45">
</g>
<g id="Layer_46">
</g>
<g id="Layer_47">
</g>
<g id="Layer_48">
</g>
<g id="Layer_49">
</g>
<g id="Layer_50">
</g>
<g id="Layer_51">
</g>
<g id="Layer_52">
</g>
<g id="Layer_53">
</g>
<g id="Layer_54">
</g>
<g id="Layer_55">
</g>
<g id="Layer_56">
</g>
<g id="Layer_57">
</g>
<g id="Layer_58">
</g>
<g id="Layer_59">
</g>
<g id="Layer_60">
</g>
<g id="Layer_61">
</g>
<g id="Layer_62">
</g>
<g id="Layer_63">
</g>
<g id="Layer_64">
</g>
<g id="Layer_65">
</g>
<g id="Layer_66">
</g>
<g id="Layer_67">
</g>
<g id="Layer_68">
</g>
<g id="Layer_69">
</g>
<g id="Layer_70">
</g>
<g id="Layer_71">
</g>
<g id="Layer_72">
</g>
<g id="Layer_73">
</g>
<g id="Layer_74">
</g>
<g id="Layer_75">
</g>
<g id="Layer_76">
</g>
<g id="Layer_77">
</g>
<g id="Layer_78">
</g>
<g id="Layer_79">
</g>
<g id="Layer_80">
</g>
</svg>
