<?xml version="1.0" encoding="utf-8"?>
<!-- Generator: Adobe Illustrator 24.0.0, SVG Export Plug-In . SVG Version: 6.00 Build 0)  -->
<svg version="1.1" xmlns="http://www.w3.org/2000/svg" xmlns:xlink="http://www.w3.org/1999/xlink" x="0px" y="0px"
	 viewBox="0 0 256 256" style="enable-background:new 0 0 256 256;" xml:space="preserve">
<style type="text/css">
	.st0{fill:#6CADEF;}
	.st1{fill:#F9D0B4;}
	.st2{fill:#5B5D60;}
	.st3{fill:#9BE5F9;}
	.st4{fill:#FC657E;}
	.st5{fill:#70D6F9;}
	.st6{fill:#F5C84C;}
	.st7{fill:#F98FA6;}
	.st8{fill:#FED690;}
	.st9{fill:#87D147;}
	.st10{fill:#B2E26D;}
	.st11{fill:#EDF4FC;}
	.st12{fill:#FCDD86;}
	.st13{fill:#754E34;}
	.st14{fill:#B598F9;}
	.st15{fill:#5290DB;}
	.st16{fill:#C7D7E5;}
	.st17{fill:#C18E6B;}
	.st18{fill:#DAE6F1;}
	.st19{fill:#3CAADC;}
	.st20{fill:#818182;}
	.st21{fill:#CBEFF7;}
	.st22{fill:#FCA265;}
	.st23{fill:#A57453;}
	.st24{fill:#8652D8;}
	.st25{fill:#966AEA;}
	.st26{fill:#FEB872;}
	.st27{fill:#EDB311;}
	.st28{fill:#EF4460;}
</style>
<g id="Layer_1">
</g>
<g id="Layer_2">
</g>
<g id="Layer_3">
</g>
<g id="Layer_4">
</g>
<g id="Layer_5">
</g>
<g id="Layer_6">
</g>
<g id="Layer_7">
</g>
<g id="Layer_8">
</g>
<g id="Layer_9">
</g>
<g id="Layer_10">
</g>
<g id="Layer_11">
</g>
<g id="Layer_12">
</g>
<g id="Layer_13">
</g>
<g id="Layer_14">
</g>
<g id="Layer_15">
</g>
<g id="Layer_16">
</g>
<g id="Layer_17">
</g>
<g id="Layer_18">
</g>
<g id="Layer_19">
</g>
<g id="Layer_20">
</g>
<g id="Layer_21">
</g>
<g id="Layer_22">
</g>
<g id="Layer_23">
</g>
<g id="Layer_24">
</g>
<g id="Layer_25">
</g>
<g id="Layer_26">
</g>
<g id="Layer_27">
</g>
<g id="Layer_28">
</g>
<g id="Layer_29">
</g>
<g id="Layer_30">
</g>
<g id="Layer_31">
</g>
<g id="Layer_32">
</g>
<g id="Layer_33">
</g>
<g id="Layer_34">
</g>
<g id="Layer_35">
</g>
<g id="Layer_36">
</g>
<g id="Layer_37">
</g>
<g id="Layer_38">
</g>
<g id="Layer_39">
</g>
<g id="Layer_40">
</g>
<g id="Layer_41">
</g>
<g id="Layer_42">
	<g>
		<g>
			<g>
				<path class="st1" d="M213.589,144.078c-0.834-4.656-5.283-7.753-9.939-6.92l-10.574,1.894c4.475-0.802,7.584-4.98,6.967-9.563
					c-0.654-4.872-5.221-8.148-9.986-7.295c-0.066,0.012-0.345,0.061-0.28,0.05l-41.293,7.395c5.483-0.982,9.054-6.536,7.488-12.027
					c-1.365-4.784-6.396-7.552-11.293-6.675l-11.267,2.018c-8.788,1.573-16.886,5.795-23.209,12.099
					c-5.654,4.769-9.461,12.631-24.29,15.938L2.5,156.015l17,60.981l87.526-16.273c8.726-1.563,14.45,0.215,19.331,0.667
					c3.794,0.518,7.646,0.438,11.415-0.237l55.187-9.883c4.402-0.789,7.758-4.711,7.391-9.168c-0.421-5.114-5.481-8.573-10.41-7.69
					l9.174-1.643c4.655-0.833,7.753-5.283,6.92-9.938c-0.834-4.655-5.283-7.754-9.939-6.92l10.574-1.894
					C211.324,153.183,214.422,148.733,213.589,144.078z"/>
			</g>
		</g>
		<g>
			<g>
				<circle class="st21" cx="164.749" cy="48.252" r="13.472"/>
			</g>
		</g>
		<g>
			<g>
				<path class="st21" d="M214.536,73.439c-4.529,0-8.2,3.671-8.2,8.2c0,4.529,3.671,8.2,8.2,8.2c4.529,0,8.2-3.671,8.2-8.2
					C222.736,77.11,219.065,73.439,214.536,73.439z"/>
			</g>
		</g>
		<g>
			<g>
				<path class="st3" d="M198.136,19.552c-4.852,0-8.786,3.934-8.786,8.786c0,4.853,3.934,8.786,8.786,8.786
					s8.786-3.934,8.786-8.786C206.922,23.485,202.988,19.552,198.136,19.552z"/>
			</g>
		</g>
		<g>
			<g>
				<path class="st1" d="M163.13,78.223l-10.767-3.886c-8.398-3.031-17.522-3.424-26.149-1.127
					c-7.28,1.303-14.509,6.209-29.005,1.658L24.5,47.996l-22,59.152l83.128,30.006c2.021,0.729,3.788,1.542,5.367,2.393
					c10.729-3.787,14.263-10.324,19.207-14.495c6.323-6.304,14.42-10.525,23.209-12.099l1.866-0.334
					c1.792-9.444,9.556-16.888,19.45-17.958c1.31-0.142,2.378-1.152,2.461-2.466c0.347-5.529,3.25-10.3,7.496-13.254
					C164.191,78.663,163.673,78.419,163.13,78.223z"/>
			</g>
		</g>
		<g>
			<g>
				<path class="st3" d="M179.758,193.634l-41.986,7.519c-3.769,0.675-7.621,0.755-11.415,0.237
					c-1.858-0.172-3.839-0.536-6.059-0.835c-0.016,0.193-0.045,0.383-0.053,0.578c-0.324,8.353,6.352,15.225,14.632,15.225
					c4.53,0,8.571-2.062,11.253-5.296c1.062-1.28,3-1.38,4.146-0.174c3.197,3.366,7.707,5.47,12.716,5.47
					c9.986,0,18.027-8.33,17.552-18.421C180.473,196.446,180.189,195.01,179.758,193.634z"/>
			</g>
		</g>
		<g>
			<g>
				<path class="st3" d="M226.193,140.969c-0.652-0.799-0.802-1.893-0.369-2.828c4.948-10.704-2.045-23.361-13.879-24.745
					c-1.226-0.143-2.195-1.043-2.425-2.256c-1.4-7.364-7.392-13.139-14.943-14.113c-1.374-0.177-2.389-1.393-2.316-2.777
					c0.522-9.879-7.366-18.469-17.554-18.469c-9.241,0-16.937,7.168-17.518,16.413c-0.083,1.315-1.151,2.325-2.461,2.466
					c-9.894,1.07-17.658,8.514-19.45,17.958l9.401-1.684c4.897-0.877,9.928,1.891,11.293,6.675
					c1.567,5.491-2.005,11.045-7.488,12.027l41.293-7.395c-0.065,0.012,0.214-0.038,0.28-0.05c4.766-0.854,9.332,2.423,9.986,7.295
					c0.617,4.583-2.493,8.762-6.967,9.563l10.574-1.894c4.655-0.834,9.105,2.264,9.939,6.92c0.834,4.655-2.264,9.105-6.92,9.939
					l-10.574,1.894c4.655-0.834,9.105,2.265,9.939,6.92c0.834,4.656-2.264,9.105-6.92,9.938l-9.174,1.643
					c4.928-0.882,9.989,2.577,10.41,7.69c0.367,4.457-2.988,8.38-7.391,9.168l-3.948,0.707c3.293,4.184,8.412,6.877,14.037,6.808
					c12.058-0.148,20.188-12.083,16.431-23.139c-0.429-1.263,0.064-2.619,1.207-3.306c6.137-3.684,10.25-10.391,10.25-18.07
					C230.937,149.222,229.154,144.597,226.193,140.969z"/>
			</g>
		</g>
		<g>
			<g>
				<path class="st5" d="M126.206,31.374h-2.4v-2.3c0-1.8-1.4-3.2-3.2-3.2c-1.7,0-3.2,1.4-3.2,3.1v2.4h-2.3c-1.8,0-3.2,1.4-3.2,3.2
					c-0.1,1.7,1.3,3.2,3.2,3.2h2.3v2.3c0,1.8,1.4,3.2,3.2,3.2c1.7,0,3.2-1.4,3.2-3.1v-2.4h2.3c1.8,0,3.2-1.4,3.2-3.2
					C129.306,32.874,127.906,31.374,126.206,31.374z"/>
			</g>
		</g>
		<g>
			<g>
				<path class="st9" d="M230.506,201.273c-1.878,0-3.4,1.522-3.4,3.4s1.522,3.4,3.4,3.4c1.878,0,3.4-1.522,3.4-3.4
					S232.384,201.273,230.506,201.273z"/>
			</g>
		</g>
		<g>
			<g>
				<path class="st6" d="M97.506,45.273c-1.878,0-3.4,1.522-3.4,3.4s1.522,3.4,3.4,3.4c1.878,0,3.4-1.522,3.4-3.4
					S99.384,45.273,97.506,45.273z"/>
			</g>
		</g>
		<g>
			<g>
				<path class="st4" d="M124.288,232.474c-3.1-0.6-5.6-3-6.2-6.1c0-0.1-0.3-0.1-0.3,0c-0.6,3.1-3.1,5.5-6.2,6.1
					c-0.1,0-0.1,0.2,0,0.3c3.1,0.6,5.6,3,6.2,6.1c0,0.1,0.3,0.1,0.3,0c0.6-3.1,3.1-5.5,6.2-6.1
					C124.388,232.674,124.388,232.474,124.288,232.474z"/>
			</g>
		</g>
		<g>
			<g>
				<path class="st6" d="M255.85,181.474c-4.5-0.8-8-4.3-8.9-8.7c0-0.2-0.4-0.2-0.4,0c-0.9,4.4-4.4,7.9-8.9,8.7
					c-0.2,0-0.2,0.3,0,0.4c4.5,0.8,8,4.3,8.9,8.7c0,0.2,0.4,0.2,0.4,0c0.9-4.4,4.4-7.9,8.9-8.7
					C256.05,181.773,256.05,181.474,255.85,181.474z"/>
			</g>
		</g>
		<g>
			<g>
				<path d="M151.174,129.156c-0.244-1.36-1.548-2.263-2.901-2.021l-9.149,1.638c-1.359,0.244-2.264,1.542-2.021,2.901
					c0.217,1.21,1.271,2.06,2.458,2.06c0.146,0,0.294-0.013,0.443-0.04l9.149-1.638
					C150.513,131.814,151.417,130.515,151.174,129.156z"/>
			</g>
		</g>
		<g>
			<g>
				<path d="M195.537,138.611c-0.244-1.359-1.542-2.264-2.902-2.02l-27.299,4.889c-1.359,0.244-2.263,1.542-2.02,2.902
					c0.217,1.21,1.271,2.06,2.458,2.06c0.146,0,0.294-0.013,0.444-0.04l27.299-4.889C194.875,141.269,195.78,139.97,195.537,138.611
					z"/>
			</g>
		</g>
		<g>
			<g>
				<path d="M198.556,155.469c-0.244-1.36-1.542-2.261-2.902-2.02l-27.299,4.889c-1.359,0.244-2.263,1.542-2.02,2.902
					c0.217,1.21,1.271,2.06,2.458,2.06c0.146,0,0.294-0.013,0.444-0.04l27.299-4.889
					C197.895,158.127,198.799,156.829,198.556,155.469z"/>
			</g>
		</g>
		<g>
			<g>
				<path d="M201.575,172.329c-0.244-1.36-1.546-2.263-2.901-2.021l-27.299,4.888c-1.359,0.244-2.264,1.542-2.021,2.901
					c0.217,1.21,1.271,2.06,2.458,2.06c0.146,0,0.294-0.013,0.443-0.04l27.299-4.888
					C200.914,174.986,201.818,173.688,201.575,172.329z"/>
			</g>
		</g>
		<g>
			<g>
				<path d="M216.05,143.638c-0.521-2.909-2.144-5.441-4.569-7.13s-5.363-2.331-8.271-1.811l-1.463,0.262
					c0.752-1.77,1.05-3.759,0.775-5.804c-0.406-3.025-1.984-5.679-4.444-7.472c-2.46-1.794-5.464-2.487-8.458-1.951l-0.273,0.048
					c-0.003,0.001-0.007,0.001-0.01,0.002h0c-0.002,0-0.004,0.001-0.007,0.001l-31.685,5.674c1.271-2.644,1.543-5.687,0.732-8.533
					c-1.672-5.858-7.886-9.571-14.138-8.45l-11.267,2.018c-9.301,1.666-17.756,6.062-24.461,12.717
					c-1.417,1.205-2.677,2.535-4.01,3.942c-4.011,4.232-8.556,9.029-19.082,11.388L2.057,153.554
					c-1.358,0.245-2.262,1.545-2.017,2.904c0.245,1.358,1.541,2.259,2.904,2.017l83.413-15.024c0.034-0.006,0.067-0.013,0.101-0.021
					c12.052-2.688,17.387-8.317,21.673-12.84c1.259-1.33,2.449-2.585,3.685-3.627c0.053-0.045,0.104-0.092,0.153-0.141
					c5.991-5.973,13.558-9.918,21.884-11.409l11.268-2.018c3.757-0.673,7.473,1.478,8.448,4.9c0.554,1.94,0.27,3.952-0.798,5.665
					c-1.058,1.695-2.78,2.867-4.726,3.215c-1.359,0.244-2.263,1.542-2.02,2.902s1.544,2.257,2.901,2.02h0
					c0.006-0.001,0.013-0.002,0.02-0.003l41.273-7.391v-0.002l0,0.002c0.019-0.003,0.039-0.007,0.058-0.011
					c0.024-0.004,0.049-0.008,0.075-0.013l0.147-0.026c1.639-0.293,3.286,0.086,4.633,1.069c1.347,0.982,2.211,2.437,2.435,4.098
					c0.433,3.223-1.732,6.197-4.931,6.77c-1.359,0.244-2.263,1.542-2.02,2.901c0.243,1.36,1.543,2.257,2.901,2.021c0,0,0,0,0,0
					l10.574-1.894c1.594-0.287,3.204,0.067,4.533,0.992c1.329,0.925,2.219,2.313,2.504,3.907c0.286,1.594-0.067,3.204-0.992,4.534
					c-0.926,1.329-2.313,2.218-3.908,2.503l-10.554,1.89c-0.006,0.001-0.013,0.002-0.02,0.003c-1.359,0.244-2.264,1.542-2.021,2.901
					c0.243,1.359,1.543,2.26,2.901,2.021c0,0,0,0,0,0l0.011-0.002c3.289-0.582,6.438,1.614,7.026,4.901
					c0.589,3.291-1.609,6.448-4.9,7.037l-9.169,1.642c-0.001,0-0.003,0.001-0.004,0.001h0c-1.359,0.244-2.263,1.542-2.02,2.901
					s1.541,2.258,2.901,2.021c1.8-0.321,3.677,0.148,5.158,1.287c1.362,1.048,2.186,2.521,2.32,4.148
					c0.252,3.065-2.093,5.921-5.34,6.502l-55.187,9.883c-3.518,0.63-7.096,0.705-10.636,0.221c-0.036-0.005-0.072-0.009-0.107-0.012
					c-1.099-0.102-2.286-0.282-3.543-0.473c-4.196-0.635-9.418-1.428-16.476-0.164l-87.525,16.273
					c-1.357,0.252-2.253,1.558-2.001,2.915c0.224,1.203,1.274,2.043,2.455,2.043c0.152,0,0.306-0.014,0.46-0.042l87.509-16.271
					c6.226-1.116,10.796-0.423,14.829,0.188c1.312,0.199,2.551,0.387,3.776,0.502c4.041,0.545,8.125,0.458,12.141-0.26l55.187-9.883
					c5.756-1.03,9.903-6.229,9.442-11.834c-0.21-2.551-1.303-4.883-3.115-6.7c5.909-1.153,9.833-6.86,8.769-12.808
					c-0.395-2.202-1.419-4.135-2.854-5.648l1.469-0.263c2.909-0.521,5.441-2.143,7.129-4.568S216.57,146.546,216.05,143.638z"/>
			</g>
		</g>
		<g>
			<g>
				<g>
					<path d="M164.749,32.281c-8.807,0-15.972,7.165-15.972,15.972c0,8.807,7.165,15.972,15.972,15.972
						c8.807,0,15.972-7.165,15.972-15.972C180.721,39.446,173.556,32.281,164.749,32.281z M164.749,59.225
						c-6.05,0-10.972-4.922-10.972-10.972c0-6.05,4.922-10.972,10.972-10.972c6.05,0,10.972,4.922,10.972,10.972
						C175.721,54.303,170.799,59.225,164.749,59.225z"/>
				</g>
			</g>
		</g>
		<g>
			<g>
				<g>
					<path d="M214.536,70.939c-5.9,0-10.7,4.8-10.7,10.7c0,5.9,4.8,10.701,10.7,10.701s10.7-4.8,10.7-10.701
						C225.236,75.739,220.436,70.939,214.536,70.939z M214.536,87.34c-3.143,0-5.7-2.557-5.7-5.701c0-3.143,2.557-5.7,5.7-5.7
						s5.7,2.557,5.7,5.7C220.236,84.783,217.679,87.34,214.536,87.34z"/>
				</g>
			</g>
		</g>
		<g>
			<g>
				<g>
					<path d="M198.136,17.051c-6.223,0-11.286,5.063-11.286,11.286s5.063,11.286,11.286,11.286s11.286-5.063,11.286-11.286
						S204.359,17.051,198.136,17.051z M198.136,34.624c-3.466,0-6.286-2.82-6.286-6.286s2.82-6.286,6.286-6.286
						c3.466,0,6.286,2.82,6.286,6.286S201.602,34.624,198.136,34.624z"/>
				</g>
			</g>
		</g>
		<g>
			<g>
				<path d="M165.909,76.761c-0.636-0.357-1.285-0.656-1.93-0.889l-10.767-3.886c-8.888-3.208-18.409-3.628-27.542-1.217
					c-1.83,0.335-3.587,0.857-5.446,1.409c-5.586,1.659-11.917,3.541-22.208,0.325L25.367,45.651
					c-1.294-0.481-2.733,0.183-3.211,1.478c-0.479,1.295,0.183,2.733,1.478,3.211l72.709,26.873
					c0.039,0.015,0.078,0.028,0.118,0.041c11.78,3.698,19.215,1.491,25.188-0.284c1.756-0.521,3.414-1.014,5.006-1.299
					c0.068-0.012,0.136-0.027,0.203-0.045c8.173-2.177,16.699-1.811,24.657,1.062l8.454,3.052
					c-3.108,3.345-4.983,7.652-5.275,12.298c-0.002,0.04-0.093,0.122-0.235,0.137c-10.315,1.116-18.657,8.369-21.253,18.275
					l-0.234,0.042c-9.301,1.666-17.756,6.062-24.46,12.717c-1.417,1.205-2.678,2.535-4.011,3.942
					c-3.32,3.503-6.749,7.121-13.332,9.667c-1.511-0.762-3.056-1.425-4.692-2.016L3.349,104.796c-1.298-0.466-2.731,0.205-3.2,1.503
					c-0.469,1.298,0.204,2.731,1.503,3.2l83.128,30.006c1.769,0.638,3.415,1.372,5.03,2.242c0.369,0.199,0.776,0.299,1.186,0.299
					c0.281,0,0.562-0.047,0.832-0.143c8.384-2.959,12.774-7.591,16.302-11.314c1.26-1.329,2.45-2.584,3.686-3.627
					c0.053-0.045,0.104-0.092,0.153-0.141c5.991-5.973,13.558-9.918,21.884-11.409l1.866-0.334c1.021-0.183,1.822-0.976,2.016-1.995
					c1.631-8.593,8.568-14.999,17.263-15.939c2.559-0.276,4.53-2.293,4.688-4.794c0.287-4.575,2.63-8.716,6.429-11.359
					c0.707-0.492,1.11-1.312,1.069-2.172S166.659,77.183,165.909,76.761z"/>
			</g>
		</g>
		<g>
			<g>
				<g>
					<path d="M182.143,192.886c-0.377-1.201-1.591-1.93-2.826-1.712l-41.986,7.519c-3.518,0.629-7.097,0.703-10.636,0.221
						c-0.036-0.005-0.072-0.009-0.107-0.012c-1.099-0.102-2.288-0.282-3.547-0.473c-0.774-0.117-1.576-0.238-2.41-0.351
						c-0.681-0.093-1.368,0.101-1.902,0.531c-0.534,0.431-0.868,1.062-0.923,1.746l-0.016,0.151
						c-0.02,0.177-0.037,0.354-0.043,0.532c-0.183,4.711,1.513,9.172,4.774,12.563c3.263,3.392,7.651,5.259,12.356,5.259
						c5.106,0,9.909-2.26,13.177-6.2c0.078-0.094,0.17-0.116,0.233-0.118c0.107-0.004,0.156,0.05,0.175,0.07
						c3.827,4.029,8.986,6.248,14.529,6.248c5.541,0,10.699-2.208,14.525-6.219c3.824-4.008,5.786-9.271,5.524-14.82
						C182.964,196.2,182.662,194.54,182.143,192.886z M173.898,209.188c-2.873,3.012-6.747,4.67-10.907,4.67
						c-4.158,0-8.031-1.666-10.903-4.691c-0.987-1.04-2.361-1.627-3.793-1.627c-0.058,0-0.117,0.001-0.175,0.003
						c-1.516,0.051-2.943,0.752-3.915,1.923c-2.315,2.791-5.715,4.392-9.329,4.392c-3.333,0-6.441-1.323-8.752-3.726
						c-1.789-1.859-2.912-4.174-3.268-6.676c1.107,0.167,2.167,0.318,3.216,0.417c4.041,0.545,8.125,0.458,12.141-0.26l39.67-7.104
						c0.085,0.521,0.141,1.038,0.165,1.545C178.243,202.225,176.77,206.179,173.898,209.188z"/>
				</g>
			</g>
		</g>
		<g>
			<g>
				<g>
					<path d="M233.437,154.271c0-5.403-1.884-10.688-5.306-14.882c-0.04-0.049-0.071-0.127-0.038-0.199
						c2.709-5.859,2.436-12.48-0.749-18.165c-3.18-5.676-8.687-9.361-15.109-10.112c-0.141-0.017-0.233-0.102-0.259-0.24
						c-1.624-8.537-8.487-15.018-17.08-16.125c-0.078-0.01-0.144-0.088-0.139-0.166c0.288-5.45-1.715-10.861-5.497-14.848
						c-3.825-4.032-8.994-6.252-14.554-6.252c-10.561,0-19.352,8.238-20.013,18.756c-0.002,0.04-0.093,0.122-0.235,0.137
						c-10.897,1.179-19.593,9.207-21.637,19.978c-0.153,0.808,0.101,1.64,0.679,2.225c0.578,0.584,1.407,0.847,2.218,0.702
						l9.401-1.684c3.757-0.673,7.473,1.478,8.448,4.9c0.554,1.94,0.27,3.952-0.798,5.665c-1.056,1.692-2.773,2.862-4.714,3.213
						l-0.012,0.002c-1.359,0.244-2.263,1.542-2.02,2.902s1.544,2.257,2.901,2.02l41.293-7.395c0.019-0.003,0.039-0.007,0.058-0.011
						c0.025-0.004,0.05-0.008,0.075-0.013l0.147-0.026c1.639-0.293,3.286,0.086,4.633,1.069c1.347,0.982,2.211,2.437,2.435,4.098
						c0.433,3.223-1.732,6.197-4.931,6.77c-1.359,0.244-2.264,1.542-2.021,2.901c0.243,1.36,1.543,2.257,2.901,2.021l10.575-1.894
						c1.594-0.287,3.205,0.067,4.533,0.992c1.329,0.925,2.219,2.313,2.504,3.907c0.286,1.594-0.067,3.204-0.992,4.534
						c-0.926,1.329-2.313,2.218-3.907,2.503l-10.574,1.894c-1.359,0.244-2.264,1.542-2.021,2.901
						c0.243,1.359,1.543,2.265,2.901,2.021c3.296-0.589,6.448,1.609,7.038,4.899c0.589,3.291-1.609,6.448-4.9,7.037l-9.174,1.643
						c-1.359,0.244-2.263,1.542-2.02,2.901s1.541,2.258,2.901,2.021h0l0.009-0.002c1.795-0.318,3.669,0.151,5.148,1.289
						c1.362,1.048,2.186,2.521,2.32,4.148c0.252,3.065-2.093,5.921-5.34,6.502l-3.947,0.707c-0.864,0.155-1.583,0.751-1.896,1.572
						c-0.312,0.821-0.171,1.745,0.372,2.435c3.835,4.874,9.726,7.764,15.799,7.764c0.078,0,0.156,0,0.234-0.001
						c6.489-0.08,12.36-3.167,16.109-8.469c3.707-5.243,4.701-11.962,2.658-17.974c-0.051-0.151-0.006-0.278,0.127-0.358
						C229.151,170.174,233.437,162.618,233.437,154.271z M219.4,170.197c-2.158,1.295-3.099,3.867-2.288,6.253
						c1.552,4.568,0.821,9.481-2.006,13.479c-2.814,3.979-7.22,6.296-12.088,6.355c-3.115,0.043-6.185-0.95-8.75-2.744
						c5.299-1.372,9.011-6.325,8.573-11.644c-0.21-2.551-1.303-4.883-3.115-6.7c5.909-1.153,9.833-6.86,8.769-12.808
						c-0.395-2.202-1.419-4.135-2.854-5.648l1.469-0.263c6.005-1.075,10.016-6.835,8.94-12.84c-0.521-2.909-2.144-5.441-4.569-7.13
						s-5.363-2.331-8.271-1.811l-1.463,0.262c0.752-1.77,1.05-3.759,0.775-5.804c-0.406-3.025-1.984-5.679-4.444-7.472
						c-2.46-1.794-5.464-2.487-8.458-1.951l-0.272,0.048c-0.003,0.001-0.007,0.001-0.01,0.002h0c-0.002,0-0.005,0.001-0.008,0.001
						l-31.684,5.674c1.271-2.644,1.543-5.687,0.732-8.533c-1.671-5.858-7.884-9.568-14.139-8.45l-5.454,0.977
						c2.656-6.723,8.794-11.502,16.212-12.305c2.559-0.276,4.53-2.293,4.688-4.794c0.496-7.889,7.095-14.069,15.022-14.069
						c4.175,0,8.056,1.667,10.927,4.693c2.841,2.996,4.347,7.057,4.131,11.144c-0.141,2.678,1.833,5.044,4.493,5.388
						c6.442,0.831,11.589,5.693,12.807,12.1c0.435,2.286,2.28,4.002,4.591,4.272c4.812,0.563,8.94,3.329,11.328,7.59
						c2.392,4.27,2.601,9.235,0.573,13.623c-0.837,1.81-0.568,3.901,0.701,5.458l0,0c2.735,3.352,4.18,7.405,4.18,11.721
						C228.437,160.846,225.059,166.8,219.4,170.197z"/>
				</g>
			</g>
		</g>
	</g>
</g>
<g id="Layer_43">
</g>
<g id="Layer_44">
</g>
<g id="Layer_45">
</g>
<g id="Layer_46">
</g>
<g id="Layer_47">
</g>
<g id="Layer_48">
</g>
<g id="Layer_49">
</g>
<g id="Layer_50">
</g>
<g id="Layer_51">
</g>
<g id="Layer_52">
</g>
<g id="Layer_53">
</g>
<g id="Layer_54">
</g>
<g id="Layer_55">
</g>
<g id="Layer_56">
</g>
<g id="Layer_57">
</g>
<g id="Layer_58">
</g>
<g id="Layer_59">
</g>
<g id="Layer_60">
</g>
<g id="Layer_61">
</g>
<g id="Layer_62">
</g>
<g id="Layer_63">
</g>
<g id="Layer_64">
</g>
<g id="Layer_65">
</g>
<g id="Layer_66">
</g>
<g id="Layer_67">
</g>
<g id="Layer_68">
</g>
<g id="Layer_69">
</g>
<g id="Layer_70">
</g>
<g id="Layer_71">
</g>
<g id="Layer_72">
</g>
<g id="Layer_73">
</g>
<g id="Layer_74">
</g>
<g id="Layer_75">
</g>
<g id="Layer_76">
</g>
<g id="Layer_77">
</g>
<g id="Layer_78">
</g>
<g id="Layer_79">
</g>
<g id="Layer_80">
</g>
</svg>
