<?xml version="1.0" encoding="utf-8"?>
<!-- Generator: Adobe Illustrator 24.0.0, SVG Export Plug-In . SVG Version: 6.00 Build 0)  -->
<svg version="1.1" xmlns="http://www.w3.org/2000/svg" xmlns:xlink="http://www.w3.org/1999/xlink" x="0px" y="0px"
	 viewBox="0 0 256 256" style="enable-background:new 0 0 256 256;" xml:space="preserve">
<style type="text/css">
	.st0{fill:#6CADEF;}
	.st1{fill:#F9D0B4;}
	.st2{fill:#5B5D60;}
	.st3{fill:#9BE5F9;}
	.st4{fill:#FC657E;}
	.st5{fill:#70D6F9;}
	.st6{fill:#F5C84C;}
	.st7{fill:#F98FA6;}
	.st8{fill:#FED690;}
	.st9{fill:#87D147;}
	.st10{fill:#B2E26D;}
	.st11{fill:#EDF4FC;}
	.st12{fill:#FCDD86;}
	.st13{fill:#754E34;}
	.st14{fill:#B598F9;}
	.st15{fill:#5290DB;}
	.st16{fill:#C7D7E5;}
	.st17{fill:#C18E6B;}
	.st18{fill:#DAE6F1;}
	.st19{fill:#3CAADC;}
	.st20{fill:#818182;}
	.st21{fill:#CBEFF7;}
	.st22{fill:#FCA265;}
	.st23{fill:#A57453;}
	.st24{fill:#8652D8;}
	.st25{fill:#966AEA;}
	.st26{fill:#FEB872;}
	.st27{fill:#EDB311;}
	.st28{fill:#EF4460;}
</style>
<g id="Layer_1">
</g>
<g id="Layer_2">
</g>
<g id="Layer_3">
</g>
<g id="Layer_4">
</g>
<g id="Layer_5">
</g>
<g id="Layer_6">
</g>
<g id="Layer_7">
</g>
<g id="Layer_8">
</g>
<g id="Layer_9">
</g>
<g id="Layer_10">
</g>
<g id="Layer_11">
</g>
<g id="Layer_12">
</g>
<g id="Layer_13">
</g>
<g id="Layer_14">
</g>
<g id="Layer_15">
</g>
<g id="Layer_16">
</g>
<g id="Layer_17">
</g>
<g id="Layer_18">
</g>
<g id="Layer_19">
</g>
<g id="Layer_20">
</g>
<g id="Layer_21">
</g>
<g id="Layer_22">
</g>
<g id="Layer_23">
</g>
<g id="Layer_24">
</g>
<g id="Layer_25">
</g>
<g id="Layer_26">
</g>
<g id="Layer_27">
</g>
<g id="Layer_28">
</g>
<g id="Layer_29">
</g>
<g id="Layer_30">
</g>
<g id="Layer_31">
</g>
<g id="Layer_32">
</g>
<g id="Layer_33">
</g>
<g id="Layer_34">
</g>
<g id="Layer_35">
</g>
<g id="Layer_36">
</g>
<g id="Layer_37">
</g>
<g id="Layer_38">
</g>
<g id="Layer_39">
</g>
<g id="Layer_40">
</g>
<g id="Layer_41">
</g>
<g id="Layer_42">
</g>
<g id="Layer_43">
</g>
<g id="Layer_44">
</g>
<g id="Layer_45">
</g>
<g id="Layer_46">
</g>
<g id="Layer_47">
</g>
<g id="Layer_48">
</g>
<g id="Layer_49">
</g>
<g id="Layer_50">
</g>
<g id="Layer_51">
</g>
<g id="Layer_52">
</g>
<g id="Layer_53">
</g>
<g id="Layer_54">
</g>
<g id="Layer_55">
</g>
<g id="Layer_56">
</g>
<g id="Layer_57">
</g>
<g id="Layer_58">
</g>
<g id="Layer_59">
</g>
<g id="Layer_60">
	<g>
		<g>
			<g>
				<path class="st23" d="M84.328,66.044l-6.189,3.2c-0.583,0.301-1.279,0.287-1.848-0.039l-7.677-4.385
					c-0.595-0.34-1.325-0.34-1.92,0l-7.624,4.357c-0.595,0.34-1.325,0.34-1.92,0l-7.627-4.357c-0.595-0.34-1.325-0.34-1.92,0
					l-7.624,4.357c-0.595,0.34-1.326,0.34-1.921,0l-7.621-4.356c-0.595-0.34-1.326-0.34-1.921,0l-7.667,4.383
					c-0.57,0.326-1.266,0.341-1.85,0.039l-6.181-3.198c-1.288-0.666-2.824,0.269-2.824,1.719v50.275
					c0,3.115,2.548,5.663,5.663,5.663h65.832c3.115,0,5.663-2.548,5.663-5.663V67.763C87.152,66.313,85.616,65.378,84.328,66.044z"
					/>
			</g>
		</g>
		<g>
			<g>
				<path class="st26" d="M48.5,30.5c-4.627,0-8.377,3.751-8.377,8.377v30.219l7.479-4.275c0.595-0.34,1.325-0.34,1.92,0
					l7.355,4.202V38.877C56.877,34.251,53.127,30.5,48.5,30.5z"/>
			</g>
		</g>
		<g>
			<g>
				<path class="st5" d="M37.324,41.5H18.922c-1.546,0-2.799,1.253-2.799,2.799v23.456L19,69.243c0.583,0.302,1.28,0.287,1.85-0.039
					l7.667-4.383c0.595-0.34,1.326-0.34,1.921,0l7.621,4.356c0.595,0.34,1.325,0.34,1.921,0l0.144-0.083V44.299
					C40.123,42.753,38.869,41.5,37.324,41.5z"/>
			</g>
		</g>
		<g>
			<g>
				<path class="st27" d="M68,53.5c-5.799,0-10.5,4.701-10.5,10.5c0,1.912,0.519,3.699,1.412,5.243
					c0.052-0.024,0.107-0.036,0.157-0.064l7.624-4.357c0.595-0.34,1.325-0.34,1.92,0l7.677,4.385
					c0.215,0.123,0.449,0.186,0.686,0.22C77.937,67.841,78.5,65.988,78.5,64C78.5,58.201,73.799,53.5,68,53.5z"/>
			</g>
		</g>
		<g>
			<g>
				<path class="st9" d="M82.074,47.3c-0.772-0.348-1.578-0.514-2.373-0.518c-0.989-0.005-1.748-0.797-1.677-1.783
					c0.175-2.405-1.163-4.739-3.446-5.768c-2.284-1.03-4.918-0.486-6.604,1.235c-0.692,0.707-1.788,0.662-2.446-0.076
					c-0.529-0.593-1.188-1.088-1.959-1.436c-2.558-1.154-5.211-0.161-6.69,1.813v28.257l0.272,0.155
					c0.545,0.311,1.199,0.323,1.763,0.064C58.019,67.699,57.5,65.912,57.5,64c0-5.799,4.701-10.5,10.5-10.5
					c4.979,0,9.138,3.469,10.219,8.119l5.253-5.059C86.254,53.879,85.821,48.99,82.074,47.3z"/>
			</g>
		</g>
		<g>
			<g>
				<path class="st18" d="M16.123,55.5v12.255L19,69.243c0.583,0.302,1.28,0.287,1.85-0.039l7.667-4.383
					c0.595-0.34,1.326-0.34,1.921,0l7.621,4.356c0.595,0.34,1.325,0.34,1.921,0l0.144-0.083V55.5H16.123z"/>
			</g>
		</g>
		<g>
			<g>
				<path class="st10" d="M183.587,67.3c-6.239,0-11.777,4.115-13.39,9.968c2.741,0.77,4.909,3.089,5.339,6.087
					c0.359,2.515-0.59,4.914-2.33,6.512c2.479,2.743,6.058,4.476,10.024,4.476h15.853c1.545,0,2.797-1.252,2.797-2.797V67.3H183.587
					z"/>
			</g>
		</g>
		<g>
			<g>
				<path class="st10" d="M57.912,159.452c-23.617,0-42.763,19.146-42.763,42.763c0,2.851,0.285,5.635,0.817,8.331h83.891
					c0.532-2.695,0.817-5.479,0.817-8.331C100.675,178.598,81.529,159.452,57.912,159.452z"/>
			</g>
		</g>
		<g>
			<g>
				<path class="st10" d="M216.205,151.886l-21.102-43.86c-0.996-2.071-3.092-3.388-5.39-3.388h-6.831l7.565,52.955
					c0.246,1.723-0.039,3.48-0.818,5.038l-15.483,31.153c-1.461,2.94-4.461,4.8-7.745,4.8H100.51
					c0.101,1.198,0.165,2.407,0.165,3.632c0,2.851-0.285,5.635-0.817,8.331h74.115c4.741,0,8.796-3.444,9.526-8.129
					c3.264-20.921,18.734-32.497,28.603-37.863C216.629,162.092,218.439,156.53,216.205,151.886z"/>
			</g>
		</g>
		<g>
			<g>
				<path class="st0" d="M142.428,190.282l0.177-1.465c-2.769,0.255-5.749,0.287-8.97,0.019
					c-25.418-2.118-37.067-40.245-12.709-52.954h-68.42c-2.593,0-5.155,0.55-7.508,1.638c-11.266,5.211-42.937,24.013-42.154,65.176
					c0.083,4.365,3.681,7.851,8.046,7.851h5.075c-0.532-2.695-0.817-5.479-0.817-8.331c0-23.617,19.146-42.763,42.763-42.763
					c22.393,0,40.754,17.216,42.599,39.132H150C144.973,198.584,141.931,194.405,142.428,190.282z"/>
			</g>
		</g>
		<g>
			<g>
				<path class="st10" d="M250.282,175.925c-7.487-5.603-16.775-8.924-26.825-8.924c-9.595,0-18.488,3.037-25.79,8.187
					c-6.489,6.432-12.309,15.313-14.168,27.229c-0.47,3.012-2.317,5.504-4.833,6.905c-0.047,0.844-0.077,1.692-0.077,2.548v0.079
					c0.008,4.22,3.52,7.6,7.74,7.6h11.966c3.398,0,6.702-1.119,9.401-3.183l42.591-32.57
					C252.879,181.813,252.895,177.881,250.282,175.925z"/>
			</g>
		</g>
		<g>
			<g>
				<path class="st10" d="M175.536,83.355c-0.58-4.052-4.333-6.871-8.387-6.29L134.701,81.7l-23.14-31.169
					c-2.441-3.287-7.084-3.971-10.372-1.533c-3.287,2.441-3.974,7.083-1.533,10.372l25.771,34.712
					c1.41,1.899,3.627,2.994,5.952,2.994c0.348,0,0.699-0.025,1.049-0.075l36.816-5.259
					C173.298,91.164,176.115,87.408,175.536,83.355z"/>
			</g>
		</g>
		<g>
			<g>
				<path class="st9" d="M165.271,183.757h-4.736c-1.268,0-2.251-1.109-2.099-2.367l6.076-50.34c0.443-3.67-1.886-7.106-5.459-8.053
					l-36.012-9.554c-1.871-0.496-3.174-2.189-3.174-4.125V86.592L99.657,59.37c-1.024-1.38-1.491-2.998-1.453-4.592
					c-0.001,0.058-0.009,0.114-0.009,0.172v61.536c0,3.347,2.295,6.312,5.513,7.165l45.311,12.022l-6.591,54.608
					c-0.497,4.124,2.545,8.302,7.572,8.302h15.581c4.17,0,7.536-3.443,7.41-7.641C172.87,186.885,169.33,183.757,165.271,183.757z"
					/>
			</g>
		</g>
		<g>
			<g>
				<path class="st18" d="M210.156,67.3h-8.276v16.093l9.559-6.117c0.684-0.438,1.097-1.193,1.097-2.004V69.68
					C212.536,68.365,211.47,67.3,210.156,67.3z"/>
			</g>
		</g>
		<g>
			<g>
				<path class="st20" d="M183.23,94.343c-2.579,0-4.987-0.742-7.042-2.008v12.357c0.17-0.032,0.344-0.053,0.523-0.053h13.002
					c0.445,0,0.878,0.063,1.301,0.158V94.343H183.23z"/>
			</g>
		</g>
		<g>
			<g>
				<path class="st16" d="M165.271,183.757h-4.736c-1.268,0-2.251-1.109-2.099-2.367l0.316-2.616h-14.935l-1.389,11.508
					c-0.497,4.124,2.545,8.302,7.572,8.302h15.581c4.17,0,7.536-3.443,7.41-7.641C172.87,186.885,169.33,183.757,165.271,183.757z"
					/>
			</g>
		</g>
		<g>
			<g>
				<path class="st15" d="M159.053,122.996l-36.012-9.554c-1.871-0.496-3.174-2.189-3.174-4.125v-1.528l-21.672,2.028v6.67
					c0,3.347,2.295,6.312,5.513,7.165l45.311,12.022l-5.202,43.1h14.935l5.76-47.724
					C164.955,127.379,162.626,123.943,159.053,122.996z"/>
			</g>
		</g>
		<g>
			<g>
				<path class="st16" d="M175.536,83.355c-0.58-4.052-4.333-6.871-8.387-6.29l-9.656,1.379l2.777,14.581l8.975-1.282
					C173.298,91.164,176.115,87.408,175.536,83.355z"/>
			</g>
		</g>
		<g>
			<g>
				
					<ellipse transform="matrix(0.9871 -0.1602 0.1602 0.9871 -3.285 18.1388)" class="st1" cx="110.865" cy="29.445" rx="15.357" ry="15.356"/>
			</g>
		</g>
		<g>
			<g>
				<path class="st0" d="M110.865,14.089c-8.481,0-15.357,6.875-15.357,15.356c0,8.481,6.875,15.356,15.357,15.356
					c0.056,0,0.11-0.008,0.165-0.008c0-8.043,0-16.44,0-16.44h15.136C125.604,20.384,118.978,14.089,110.865,14.089z"/>
			</g>
		</g>
		<g>
			<g>
				<path class="st0" d="M190.447,157.594l-7.565-52.955h-6.171c-1.563,0-2.831,1.268-2.831,2.831v52.76
					c0,6.688-2.646,13.116-7.411,17.808c-1.901,1.872-4.215,3.756-6.992,5.422c0.311,0.182,0.668,0.296,1.058,0.296h4.736
					c4.06,0,7.599,3.128,7.721,7.186c0.126,4.198-3.24,7.641-7.41,7.641h0.821c3.283,0,6.283-1.859,7.745-4.8l15.483-31.153
					C190.408,161.074,190.693,159.317,190.447,157.594z"/>
			</g>
		</g>
		<g>
			<g>
				<path class="st17" d="M103.899,123.702H45.997c-3.363,0-6.09,2.726-6.09,6.09c0,3.363,2.726,6.09,6.09,6.09h75.723
					c3.278,0,5.944-2.593,6.077-5.838L103.899,123.702z"/>
			</g>
		</g>
		<g>
			<g>
				<path class="st2" d="M88.251,210.546H28.234c-0.019,0.439-0.033,0.88-0.033,1.324c0,16.592,13.45,30.042,30.042,30.042
					c16.592,0,30.042-13.45,30.042-30.042C88.284,211.426,88.27,210.985,88.251,210.546z"/>
			</g>
		</g>
		<g>
			<g>
				<path class="st2" d="M243.187,189.225l-35.491,27.14c-2.699,2.064-6.003,3.183-9.401,3.183h-3.885
					c3.394,12.871,15.11,22.364,29.048,22.364c16.592,0,30.042-13.45,30.042-30.042
					C253.499,202.832,249.502,194.732,243.187,189.225z"/>
			</g>
		</g>
		<g>
			<g>
				<path class="st18" d="M73.702,210.546H42.784c-0.037,0.437-0.067,0.877-0.067,1.324c0,8.575,6.951,15.526,15.526,15.526
					s15.526-6.951,15.526-15.526C73.769,211.423,73.739,210.983,73.702,210.546z"/>
			</g>
		</g>
		<g>
			<g>
				<path class="st18" d="M231.175,198.41l-22.725,17.378c1.739,6.674,7.789,11.607,15.007,11.607
					c8.575,0,15.526-6.951,15.526-15.526C238.983,206.107,235.837,201.089,231.175,198.41z"/>
			</g>
		</g>
		<g>
			<g>
				<path class="st9" d="M128.206,234.1h-2.4v-2.3c0-1.8-1.4-3.2-3.2-3.2c-1.7,0-3.2,1.4-3.2,3.1v2.4h-2.3c-1.8,0-3.2,1.4-3.2,3.2
					c-0.1,1.7,1.3,3.2,3.2,3.2h2.3v2.3c0,1.8,1.4,3.2,3.2,3.2c1.7,0,3.2-1.4,3.2-3.1v-2.4h2.3c1.8,0,3.2-1.4,3.2-3.2
					C131.306,235.6,129.906,234.1,128.206,234.1z"/>
			</g>
		</g>
		<g>
			<g>
				<path class="st6" d="M92.506,249.2c-1.878,0-3.4,1.522-3.4,3.4c0,1.878,1.522,3.4,3.4,3.4c1.878,0,3.4-1.522,3.4-3.4
					C95.906,250.722,94.384,249.2,92.506,249.2z"/>
			</g>
		</g>
		<g>
			<g>
				<path class="st5" d="M226.288,105.2c-3.1-0.6-5.6-3-6.2-6.1c0-0.1-0.3-0.1-0.3,0c-0.6,3.1-3.1,5.5-6.2,6.1c-0.1,0-0.1,0.2,0,0.3
					c3.1,0.6,5.6,3,6.2,6.1c0,0.1,0.3,0.1,0.3,0c0.6-3.1,3.1-5.5,6.2-6.1C226.388,105.4,226.388,105.2,226.288,105.2z"/>
			</g>
		</g>
		<g>
			<g>
				<path class="st4" d="M92.506,0c-1.878,0-3.4,1.522-3.4,3.4c0,1.878,1.522,3.4,3.4,3.4c1.878,0,3.4-1.522,3.4-3.4
					C95.906,1.522,94.384,0,92.506,0z"/>
			</g>
		</g>
		<g>
			<g>
				<path class="st6" d="M77.288,15.2c-4.5-0.8-8-4.3-8.9-8.7c0-0.2-0.4-0.2-0.4,0c-0.9,4.4-4.4,7.9-8.9,8.7c-0.2,0-0.2,0.3,0,0.4
					c4.5,0.8,8,4.3,8.9,8.7c0,0.2,0.4,0.2,0.4,0c0.9-4.4,4.4-7.9,8.9-8.7C77.488,15.5,77.488,15.2,77.288,15.2z"/>
			</g>
		</g>
		<g>
			<g>
				<g>
					<g>
						<path d="M178.01,83.002c-0.374-2.621-1.747-4.94-3.864-6.529c-2.119-1.589-4.733-2.259-7.351-1.883l-30.974,4.425
							l-22.253-29.974c-3.256-4.389-9.479-5.308-13.869-2.049c-2.126,1.578-3.51,3.89-3.897,6.509
							c-0.387,2.619,0.27,5.233,1.849,7.359l25.771,34.712c1.861,2.507,4.836,4.004,7.959,4.004c0.467,0,0.938-0.033,1.402-0.1
							l36.816-5.259C175.01,93.444,178.783,88.413,178.01,83.002z M172.127,87.353c-0.787,1.05-1.937,1.73-3.235,1.916
							l-36.814,5.258c-1.766,0.251-3.582-0.506-4.643-1.935L101.664,57.88c-0.782-1.054-1.107-2.35-0.916-3.647
							c0.192-1.298,0.878-2.443,1.931-3.226c0.88-0.652,1.906-0.967,2.925-0.967c1.504,0,2.988,0.686,3.951,1.981l23.14,31.169
							c0.546,0.736,1.451,1.121,2.36,0.984l32.448-4.636c1.294-0.182,2.592,0.146,3.642,0.934s1.73,1.937,1.916,3.236
							C173.246,85.008,172.914,86.302,172.127,87.353z"/>
					</g>
				</g>
			</g>
		</g>
		<g>
			<g>
				<g>
					<path d="M165.271,181.257h-4.3l6.023-49.907c0.589-4.881-2.55-9.511-7.3-10.77l-36.013-9.555
						c-0.773-0.206-1.314-0.908-1.314-1.709V86.593c0-0.537-0.173-1.06-0.493-1.49l-20.21-27.223
						c-0.654-0.883-0.987-1.935-0.961-3.042c0-0.007,0.001-0.013,0.001-0.018c0.023-1.377-1.072-2.514-2.449-2.541
						c-0.018-0.001-0.034-0.001-0.052-0.001c-1.342,0-2.446,1.063-2.497,2.405c-0.005,0.063-0.011,0.208-0.011,0.267v61.536
						c0,4.49,3.031,8.43,7.371,9.581l43.21,11.465l-6.33,52.45c-0.34,2.816,0.544,5.647,2.424,7.769
						c1.905,2.149,4.615,3.333,7.63,3.333h15.581c2.704,0,5.231-1.069,7.115-3.01c1.883-1.94,2.875-4.5,2.794-7.206
						C175.332,185.568,170.747,181.257,165.271,181.257z M169.107,194.592c-0.934,0.962-2.186,1.492-3.526,1.492H150
						c-2.005,0-3.222-0.897-3.889-1.649c-0.932-1.052-1.369-2.456-1.2-3.853l6.59-54.608c0.149-1.238-0.637-2.396-1.841-2.716
						l-45.311-12.022c-2.117-0.563-3.654-2.56-3.654-4.749l-0.002-51.526l16.674,22.459v21.897c0,3.065,2.069,5.756,5.032,6.541
						l36.013,9.556c2.354,0.624,3.91,2.918,3.617,5.337l-6.074,50.339c-0.159,1.31,0.252,2.627,1.127,3.614s2.134,1.554,3.453,1.554
						h4.735c2.801,0,5.144,2.136,5.222,4.761C170.532,192.361,170.041,193.631,169.107,194.592z"/>
				</g>
			</g>
		</g>
		<g>
			<g>
				<g>
					<g>
						<path d="M165.271,181.257h-4.3l0.264-2.185c0.085-0.71-0.138-1.422-0.612-1.957c-0.474-0.535-1.155-0.842-1.87-0.842h-14.935
							c-1.265,0-2.33,0.944-2.482,2.2l-1.389,11.509c-0.34,2.816,0.544,5.647,2.424,7.769c1.905,2.149,4.615,3.333,7.63,3.333
							h15.581c2.705,0,5.231-1.069,7.115-3.01c1.883-1.94,2.875-4.5,2.794-7.206C175.332,185.568,170.747,181.257,165.271,181.257z
							 M169.108,194.592c-0.934,0.962-2.187,1.492-3.527,1.492H150c-2.005,0-3.222-0.897-3.889-1.649
							c-0.932-1.052-1.369-2.456-1.2-3.853l1.123-9.309h9.902c-0.101,1.248,0.312,2.489,1.146,3.43
							c0.875,0.987,2.134,1.554,3.453,1.554h4.735c2.801,0,5.144,2.136,5.222,4.761
							C170.532,192.361,170.041,193.631,169.108,194.592z"/>
					</g>
				</g>
			</g>
		</g>
		<g>
			<g>
				<g>
					<path d="M159.694,120.58l-36.013-9.556c-0.773-0.205-1.314-0.907-1.314-1.708v-1.528c0-0.703-0.297-1.375-0.816-1.849
						c-0.521-0.473-1.211-0.703-1.917-0.641l-21.672,2.028c-1.284,0.12-2.267,1.199-2.267,2.489v6.67c0,4.49,3.031,8.43,7.371,9.581
						l43.21,11.465l-4.941,40.941c-0.085,0.71,0.138,1.423,0.611,1.958c0.475,0.535,1.156,0.842,1.871,0.842h14.935
						c1.265,0,2.33-0.944,2.482-2.2l5.76-47.724C167.583,126.47,164.444,121.84,159.694,120.58z M162.029,130.75l-5.494,45.523
						h-9.897l4.863-40.3c0.149-1.238-0.637-2.396-1.841-2.716l-45.311-12.022c-2.117-0.563-3.654-2.56-3.654-4.749v-4.393
						l16.78-1.571c0.461,2.545,2.357,4.655,4.924,5.335l36.012,9.555c0.001,0,0.001,0,0.001,0.001
						C160.767,126.037,162.322,128.331,162.029,130.75z"/>
				</g>
			</g>
		</g>
		<g>
			<g>
				<g>
					<path d="M178.01,83.002c-0.374-2.621-1.747-4.94-3.864-6.529c-2.119-1.59-4.732-2.261-7.351-1.883l-9.656,1.38
						c-0.677,0.097-1.283,0.466-1.681,1.021s-0.55,1.25-0.422,1.921l2.777,14.58c0.228,1.193,1.271,2.032,2.453,2.032
						c0.118,0,0.236-0.008,0.356-0.025l8.976-1.281C175.01,93.444,178.783,88.413,178.01,83.002z M168.892,89.269l-6.613,0.943
						l-1.84-9.663l7.063-1.01c0,0,0,0,0.001,0c1.294-0.182,2.592,0.146,3.642,0.934s1.73,1.937,1.916,3.236
						C173.443,86.392,171.573,88.885,168.892,89.269z"/>
				</g>
			</g>
		</g>
		<g>
			<g>
				<g>
					<path d="M110.865,11.589c-9.846,0-17.856,8.011-17.856,17.856s8.011,17.856,17.856,17.856s17.856-8.011,17.856-17.856
						S120.711,11.589,110.865,11.589z M110.865,42.302c-7.089,0-12.856-5.768-12.856-12.856s5.768-12.856,12.856-12.856
						s12.856,5.768,12.856,12.856S117.954,42.302,110.865,42.302z"/>
				</g>
			</g>
		</g>
		<g>
			<g>
				<path d="M132.41,25.853h-21.38c-1.381,0-2.5,1.119-2.5,2.5v15.754c0,1.381,1.119,2.5,2.5,2.5s2.5-1.119,2.5-2.5V30.853h18.88
					c1.381,0,2.5-1.119,2.5-2.5S133.791,25.853,132.41,25.853z"/>
			</g>
		</g>
		<g>
			<g>
				<g>
					<path d="M110.865,11.589c-9.846,0-17.856,8.011-17.856,17.856s8.011,17.856,17.856,17.856c0.094,0,0.186-0.005,0.209-0.009
						c1.363-0.024,2.456-1.137,2.456-2.5v-13.94h12.636c0.693,0,1.356-0.288,1.829-0.796c0.473-0.507,0.714-1.188,0.665-1.88
						C128.004,18.875,120.188,11.589,110.865,11.589z M111.03,25.853c-1.381,0-2.5,1.119-2.5,2.5v13.736
						c-5.979-1.101-10.521-6.352-10.521-12.644c0-7.089,5.768-12.856,12.856-12.856c5.785,0,10.764,3.898,12.329,9.264H111.03z"/>
				</g>
			</g>
		</g>
		<g>
			<g>
				<g>
					<path d="M210.156,64.8h-8.276c-1.381,0-2.5,1.119-2.5,2.5v16.094c0,0.914,0.498,1.755,1.3,2.193
						c0.375,0.205,0.788,0.307,1.2,0.307c0.47,0,0.938-0.132,1.348-0.395l9.559-6.118c1.409-0.901,2.25-2.438,2.25-4.109V69.68
						C215.036,66.989,212.847,64.8,210.156,64.8z M210.036,75.205l-5.656,3.62V69.8h5.656V75.205z"/>
				</g>
			</g>
		</g>
		<g>
			<g>
				<g>
					<path d="M201.88,64.8h-18.293c-7.388,0-13.885,4.854-15.8,11.804c-0.365,1.326,0.409,2.698,1.733,3.07
						c1.875,0.527,3.265,2.111,3.54,4.035c0.229,1.604-0.35,3.217-1.547,4.317c-1.011,0.929-1.084,2.499-0.163,3.518
						c3.044,3.367,7.374,5.299,11.879,5.299h15.854c2.921,0,5.297-2.376,5.297-5.297V67.3C204.38,65.919,203.261,64.8,201.88,64.8z
						 M199.38,91.546c0,0.164-0.133,0.297-0.297,0.297h-15.854c-2.389,0-4.707-0.793-6.605-2.222
						c1.21-1.954,1.719-4.292,1.386-6.619c-0.424-2.966-2.158-5.53-4.638-7.05c1.873-3.705,5.813-6.152,10.215-6.152h15.793V91.546z
						"/>
				</g>
			</g>
		</g>
		<g>
			<g>
				<path d="M187.149,44.492h-12.668c-1.381,0-2.5,1.119-2.5,2.5s1.119,2.5,2.5,2.5h10.168v16.501c0,1.381,1.119,2.5,2.5,2.5
					s2.5-1.119,2.5-2.5V46.992C189.649,45.611,188.53,44.492,187.149,44.492z"/>
			</g>
		</g>
		<g>
			<g>
				<path d="M173.849,37.776c-1.381,0-2.5,1.119-2.5,2.5v13.892c0,1.381,1.119,2.5,2.5,2.5s2.5-1.119,2.5-2.5V40.276
					C176.349,38.896,175.229,37.776,173.849,37.776z"/>
			</g>
		</g>
		<g>
			<g>
				<g>
					<path d="M57.912,156.952c-24.958,0-45.264,20.305-45.264,45.263c0,2.943,0.291,5.909,0.864,8.815
						c0.231,1.171,1.259,2.016,2.453,2.016h83.892c1.194,0,2.222-0.845,2.453-2.016c0.573-2.906,0.864-5.872,0.864-8.815
						C103.175,177.257,82.87,156.952,57.912,156.952z M97.75,208.046H18.073c-0.282-1.936-0.425-3.889-0.425-5.831
						c0-22.201,18.063-40.263,40.264-40.263s40.263,18.062,40.263,40.263C98.175,204.157,98.032,206.11,97.75,208.046z"/>
				</g>
			</g>
		</g>
		<g>
			<g>
				<g>
					<g>
						<path d="M218.458,150.803l-21.103-43.858c-1.403-2.92-4.403-4.806-7.643-4.806h-6.831c-0.725,0-1.414,0.314-1.889,0.862
							c-0.475,0.547-0.688,1.273-0.586,1.991l7.564,52.956c0.176,1.225-0.024,2.457-0.581,3.57l-15.483,31.153
							c-1.045,2.104-3.155,3.412-5.505,3.412h-65.892c-0.699,0-1.367,0.293-1.84,0.808c-0.474,0.515-0.71,1.204-0.651,1.901
							c0.104,1.245,0.155,2.364,0.155,3.423c0,2.618-0.259,5.258-0.771,7.846c-0.145,0.733,0.047,1.494,0.521,2.071
							c0.475,0.578,1.184,0.913,1.932,0.913h74.115c6.025,0,11.071-4.309,11.996-10.243c3.144-20.148,18.471-31.236,27.327-36.053
							C219,163.649,221.268,156.645,218.458,150.803z M210.907,162.357c-9.667,5.257-26.403,17.401-29.878,39.675
							c-0.544,3.484-3.512,6.014-7.057,6.014h-71.176c0.251-1.938,0.378-3.889,0.378-5.83c0-0.371-0.006-0.748-0.017-1.132h63.244
							c4.262,0,8.087-2.371,9.982-6.188l15.479-31.146c1.012-2.021,1.378-4.273,1.057-6.51l-7.156-50.102h3.948
							c1.329,0,2.561,0.774,3.137,1.973l21.103,43.859C215.605,156.407,214.269,160.53,210.907,162.357z"/>
					</g>
				</g>
			</g>
		</g>
		<g>
			<g>
				<g>
					<path d="M150,196.084c-2.005,0-3.222-0.897-3.889-1.649c-0.932-1.052-1.369-2.456-1.2-3.853c0,0,0,0,0-0.001l0.177-1.466
						c0.09-0.749-0.163-1.5-0.689-2.041c-0.527-0.543-1.267-0.813-2.022-0.747c-2.755,0.252-5.626,0.258-8.533,0.017
						c-13.074-1.09-21.212-12.419-23.24-22.484c-2.258-11.202,2.034-20.833,11.48-25.761c1.021-0.533,1.546-1.693,1.271-2.813
						c-0.273-1.118-1.276-1.904-2.428-1.904H52.506c-2.996,0-5.875,0.629-8.558,1.869C33.51,140.08-0.483,159.219,0.345,202.743
						c0.108,5.681,4.839,10.303,10.546,10.303h5.075c0.748,0,1.457-0.335,1.932-0.913c0.475-0.577,0.666-1.338,0.521-2.071
						c-0.511-2.588-0.77-5.228-0.77-7.846c0-22.201,18.063-40.264,40.264-40.264c20.75,0,38.367,16.183,40.107,36.842
						c0.109,1.295,1.191,2.29,2.491,2.29H150c1.381,0,2.5-1.119,2.5-2.5S151.381,196.084,150,196.084z M102.749,196.084
						c-3.018-22.123-22.28-39.132-44.837-39.132c-24.958,0-45.264,20.306-45.264,45.264c0,1.941,0.127,3.893,0.378,5.83h-2.136
						c-3.002,0-5.49-2.422-5.546-5.398c-0.771-40.496,30.96-58.352,40.702-62.858c2.02-0.934,4.193-1.407,6.459-1.407h60.677
						c-6.748,6.514-9.575,16.075-7.481,26.465c2.916,14.474,14.317,25.362,27.726,26.479c2.177,0.182,4.339,0.235,6.453,0.165
						c0.053,1.615,0.499,3.193,1.296,4.593H102.749z"/>
				</g>
			</g>
		</g>
		<g>
			<g>
				<g>
					<path d="M192.921,157.239L192.921,157.239l-7.564-52.954c-0.176-1.231-1.23-2.146-2.475-2.146h-6.171
						c-2.939,0-5.331,2.392-5.331,5.331v52.761c0,6.014-2.43,11.854-6.666,16.026c-1.973,1.944-4.168,3.646-6.523,5.06
						c-0.757,0.454-1.219,1.273-1.214,2.156s0.475,1.697,1.235,2.145c0.715,0.418,1.518,0.64,2.323,0.64h4.735
						c2.801,0,5.144,2.136,5.222,4.761c0.04,1.344-0.451,2.613-1.384,3.574c-0.934,0.962-2.187,1.492-3.527,1.492
						c-1.381,0-2.5,1.119-2.5,2.5s1.119,2.5,2.5,2.5h0.821c4.262,0,8.087-2.371,9.982-6.188l15.479-31.146
						C192.876,161.729,193.242,159.477,192.921,157.239z M187.391,161.519l-12.763,25.68c-1.425-3.108-4.464-5.399-8.038-5.857
						c0.558-0.491,1.103-0.999,1.633-1.521c5.185-5.105,8.157-12.245,8.157-19.589V107.47c0-0.183,0.148-0.331,0.331-0.331h4.003
						l7.258,50.809v0.001C188.147,159.173,187.947,160.405,187.391,161.519z"/>
				</g>
			</g>
		</g>
		<g>
			<g>
				<g>
					<path d="M128.439,127.627l-23.898-6.341c-0.21-0.056-0.425-0.084-0.642-0.084H45.997c-4.736,0-8.59,3.854-8.59,8.59
						s3.854,8.59,8.59,8.59h75.724c4.619,0,8.386-3.618,8.575-8.236C130.344,128.975,129.571,127.927,128.439,127.627z
						 M121.721,133.382H45.997c-1.979,0-3.59-1.61-3.59-3.59s1.61-3.59,3.59-3.59h57.576l21.118,5.604
						C124.048,132.76,122.957,133.382,121.721,133.382z"/>
				</g>
			</g>
		</g>
		<g>
			<g>
				<g>
					<path d="M90.748,210.435c-0.059-1.336-1.159-2.389-2.497-2.389H28.234c-1.338,0-2.438,1.053-2.497,2.389
						c-0.021,0.477-0.036,0.954-0.036,1.435c0,17.943,14.599,32.542,32.542,32.542s32.541-14.599,32.541-32.542
						C90.784,211.389,90.77,210.911,90.748,210.435z M58.243,239.411c-14.793,0-26.899-11.722-27.518-26.365H85.76
						C85.142,227.689,73.035,239.411,58.243,239.411z"/>
				</g>
			</g>
		</g>
		<g>
			<g>
				<g>
					<path d="M76.193,210.34c-0.106-1.296-1.19-2.294-2.491-2.294H42.784c-1.299,0-2.381,0.994-2.491,2.289
						c-0.043,0.507-0.076,1.017-0.076,1.534c0,9.939,8.087,18.026,18.026,18.026s18.025-8.087,18.025-18.026
						C76.269,211.354,76.235,210.846,76.193,210.34z M58.243,224.896c-6.786,0-12.377-5.217-12.974-11.85h25.946
						C70.619,219.679,65.028,224.896,58.243,224.896z"/>
				</g>
			</g>
		</g>
		<g>
			<g>
				<g>
					<path d="M251.78,173.924c-8.239-6.164-18.033-9.423-28.323-9.423c-9.797,0-19.213,2.989-27.23,8.644
						c-0.114,0.08-0.221,0.17-0.319,0.268c-8.175,8.104-13.181,17.733-14.878,28.619c-0.338,2.167-1.643,4.027-3.579,5.105
						c-0.749,0.417-1.231,1.188-1.28,2.043c-0.055,0.964-0.081,1.844-0.081,2.773c0.011,5.566,4.604,10.095,10.239,10.095h11.966
						c3.925,0,7.803-1.313,10.92-3.696l42.593-32.57c1.875-1.435,2.942-3.613,2.93-5.977
						C254.724,177.464,253.646,175.32,251.78,173.924z M248.769,181.81l-42.592,32.57c-2.25,1.721-5.05,2.668-7.883,2.668h-11.966
						c-2.884,0-5.234-2.29-5.239-5.179c0-0.37,0.006-0.749,0.018-1.142c2.615-1.886,4.36-4.706,4.862-7.926
						c1.52-9.742,5.997-18.385,13.31-25.691c7.133-4.979,15.489-7.609,24.179-7.609c9.202,0,17.96,2.914,25.327,8.427
						c0.602,0.449,0.948,1.144,0.952,1.903C249.741,180.615,249.388,181.336,248.769,181.81z"/>
				</g>
			</g>
		</g>
		<g>
			<g>
				<g>
					<path d="M244.83,187.341c-0.896-0.782-2.219-0.822-3.162-0.103l-35.491,27.142c-2.25,1.721-5.05,2.668-7.883,2.668h-3.884
						c-0.775,0-1.507,0.359-1.98,0.974c-0.473,0.614-0.635,1.414-0.437,2.163c3.759,14.265,16.698,24.227,31.464,24.227
						c17.943,0,32.542-14.599,32.542-32.542C255.999,202.472,251.928,193.531,244.83,187.341z M223.457,239.411
						c-11.384,0-21.483-6.994-25.598-17.363h0.435c3.925,0,7.803-1.313,10.92-3.696l33.809-25.854
						c5.093,5.145,7.977,12.097,7.977,19.372C250.999,227.056,238.644,239.411,223.457,239.411z"/>
				</g>
			</g>
		</g>
		<g>
			<g>
				<g>
					<path d="M232.421,196.243c-0.874-0.504-1.964-0.433-2.765,0.181l-22.725,17.378c-0.8,0.611-1.154,1.643-0.9,2.616
						c2.066,7.936,9.232,13.478,17.426,13.478c9.939,0,18.026-8.087,18.026-18.026C241.483,205.443,238.011,199.456,232.421,196.243
						z M223.457,224.896c-5.372,0-10.133-3.3-12.082-8.196l19.909-15.226c3.241,2.445,5.199,6.298,5.199,10.396
						C236.483,219.052,230.64,224.896,223.457,224.896z"/>
				</g>
			</g>
		</g>
		<g>
			<g>
				<g>
					<path d="M191.014,91.843h-7.784c-2.013,0-3.994-0.565-5.73-1.636c-0.772-0.477-1.74-0.497-2.53-0.055
						c-0.791,0.441-1.281,1.276-1.281,2.183v12.356c0,0.742,0.365,1.44,0.936,1.915c0.57,0.476,1.36,0.668,2.088,0.532h13.002
						c0.214,0,0.461,0.032,0.754,0.098c0.182,0.041,0.364,0.061,0.547,0.061c0.563,0,1.115-0.19,1.563-0.549
						c0.593-0.475,0.938-1.192,0.938-1.951V94.343C193.514,92.962,192.395,91.843,191.014,91.843z M188.514,102.139h-9.826v-5.963
						c1.47,0.44,2.999,0.667,4.542,0.667h5.284V102.139z"/>
				</g>
			</g>
		</g>
		<g>
			<g>
				<path d="M72.398,144.033H43.667c-2.929,0-5.633-1.59-7.058-4.148l-9.685-17.398c-0.441-0.793-1.277-1.284-2.185-1.284H2.5
					c-1.381,0-2.5,1.119-2.5,2.5s1.119,2.5,2.5,2.5h20.771l8.97,16.114c2.307,4.144,6.686,6.717,11.427,6.717h28.731
					c1.381,0,2.5-1.119,2.5-2.5S73.779,144.033,72.398,144.033z"/>
			</g>
		</g>
		<g>
			<g>
				<g>
					<path d="M87.524,63.976c-1.332-0.811-2.956-0.869-4.345-0.152l-5.915,3.059l-7.411-4.231c-1.357-0.775-3.043-0.775-4.4,0
						l-7.344,4.197l-7.348-4.198c-1.357-0.773-3.043-0.772-4.4,0.001l-7.343,4.197l-7.342-4.197
						c-1.357-0.775-3.044-0.776-4.401,0.001l-7.399,4.23l-5.909-3.057c-1.386-0.716-3.01-0.66-4.344,0.151
						c-1.333,0.812-2.129,2.228-2.129,3.788v50.274c0,4.501,3.662,8.163,8.163,8.163h65.832c4.501,0,8.163-3.662,8.163-8.163V67.764
						C89.652,66.203,88.856,64.787,87.524,63.976z M84.652,118.039c0,1.744-1.419,3.163-3.163,3.163H15.657
						c-1.744,0-3.163-1.419-3.163-3.163V68.692l5.356,2.771c1.34,0.692,2.923,0.661,4.24-0.089l7.386-4.223l7.341,4.197
						c1.358,0.776,3.045,0.774,4.401,0l7.344-4.198l7.347,4.198c1.357,0.775,3.043,0.775,4.4,0l7.344-4.197l7.395,4.222
						c1.313,0.752,2.897,0.785,4.239,0.091l5.365-2.774V118.039z"/>
				</g>
			</g>
		</g>
		<g>
			<g>
				<g>
					<path d="M48.5,28c-5.998,0-10.877,4.879-10.877,10.877v30.219c0,0.892,0.475,1.715,1.245,2.162
						c0.388,0.226,0.821,0.338,1.255,0.338c0.428,0,0.856-0.109,1.24-0.329l7.199-4.115l7.074,4.043
						c0.775,0.443,1.726,0.44,2.495-0.009c0.771-0.447,1.245-1.271,1.245-2.162V38.877C59.377,32.879,54.498,28,48.5,28z
						 M54.377,64.716l-3.614-2.065c-1.357-0.775-3.043-0.774-4.4-0.001c0,0.001-0.001,0.001-0.001,0.001l-3.738,2.137v-25.91
						c0-3.24,2.637-5.877,5.877-5.877s5.877,2.637,5.877,5.877V64.716z"/>
				</g>
			</g>
		</g>
		<g>
			<g>
				<g>
					<path d="M37.323,39H18.922c-2.922,0-5.299,2.377-5.299,5.299v23.456c0,0.935,0.521,1.791,1.352,2.221l2.877,1.488
						c0.643,0.332,1.34,0.498,2.038,0.498c0.758,0,1.516-0.196,2.201-0.587l7.386-4.223l7.338,4.194
						c1.356,0.777,3.043,0.779,4.409,0l0.145-0.083c0.776-0.446,1.255-1.272,1.255-2.168V44.299C42.623,41.377,40.245,39,37.323,39z
						 M37.623,66.05l-5.944-3.397c-1.357-0.777-3.047-0.777-4.404,0l-7.398,4.229l-1.253-0.648V44.299
						c0-0.165,0.134-0.299,0.299-0.299h18.401c0.165,0,0.3,0.134,0.3,0.299V66.05z"/>
				</g>
			</g>
		</g>
		<g>
			<g>
				<g>
					<path d="M68,51c-7.168,0-13,5.832-13,13c0,2.271,0.604,4.517,1.748,6.494c0.628,1.089,1.961,1.539,3.118,1.06
						c0.138-0.052,0.325-0.138,0.438-0.202c0.002-0.001,0.004-0.001,0.005-0.002l7.344-4.197l7.391,4.22
						c0.471,0.271,0.985,0.443,1.576,0.528c0.119,0.017,0.238,0.025,0.357,0.025c0.864,0,1.68-0.449,2.137-1.204
						C80.348,68.688,81,66.363,81,64C81,56.832,75.168,51,68,51z M75.739,66.011l-5.886-3.36c-0.678-0.388-1.438-0.581-2.199-0.581
						s-1.522,0.193-2.201,0.581l-5.275,3.015C60.061,65.119,60,64.561,60,64c0-4.411,3.589-8,8-8s8,3.589,8,8
						C76,64.681,75.911,65.355,75.739,66.011z"/>
				</g>
			</g>
		</g>
		<g>
			<g>
				<g>
					<path d="M87.647,50.889c-0.455-2.631-2.112-4.77-4.545-5.867c-0.001-0.001-0.002-0.001-0.002-0.001
						c-0.824-0.371-1.685-0.604-2.565-0.694c-0.098-3.16-2.001-6.054-4.93-7.375c-2.929-1.32-6.359-0.83-8.79,1.188
						c-0.654-0.603-1.398-1.094-2.221-1.465c-3.418-1.542-7.415-0.476-9.718,2.593c-0.324,0.433-0.5,0.959-0.5,1.5v28.257
						c0,0.898,0.481,1.728,1.262,2.172l0.27,0.153c0.669,0.383,1.421,0.575,2.178,0.575c0.635,0,1.273-0.136,1.868-0.408
						c0.64-0.293,1.126-0.843,1.34-1.514s0.135-1.4-0.218-2.01C60.372,66.773,60,65.394,60,64c0-4.411,3.589-8,8-8
						c3.737,0,6.938,2.543,7.783,6.185c0.204,0.877,0.862,1.576,1.726,1.832c0.86,0.255,1.796,0.027,2.444-0.597l5.253-5.06
						C87.211,56.429,88.123,53.636,87.647,50.889z M81.737,54.759l-2.609,2.514C76.833,53.447,72.675,51,68,51
						c-3.306,0-6.327,1.24-8.623,3.279V41.73c0.759-0.661,1.894-1.071,3.162-0.499c0.432,0.195,0.81,0.473,1.122,0.822
						c0.778,0.872,1.884,1.388,3.034,1.415c1.104,0.026,2.255-0.429,3.064-1.254c0.98-1.001,2.503-1.288,3.791-0.705
						c1.285,0.579,2.081,1.909,1.979,3.309c-0.085,1.167,0.302,2.277,1.087,3.126c0.782,0.845,1.901,1.332,3.074,1.338
						c0.465,0.002,0.921,0.102,1.354,0.296c1.228,0.555,1.576,1.594,1.675,2.163C82.91,52.836,82.533,53.992,81.737,54.759z"/>
				</g>
			</g>
		</g>
		<g>
			<g>
				<g>
					<path d="M40.123,53h-24c-1.381,0-2.5,1.119-2.5,2.5v12.255c0,0.935,0.521,1.791,1.352,2.221l2.876,1.488
						c0.643,0.332,1.341,0.498,2.039,0.498c0.758,0,1.516-0.196,2.201-0.587l7.386-4.223l7.338,4.194
						c1.356,0.777,3.043,0.779,4.409,0l0.145-0.083c0.776-0.446,1.255-1.272,1.255-2.168V55.5C42.623,54.119,41.504,53,40.123,53z
						 M37.623,66.05l-5.944-3.397c-1.357-0.777-3.047-0.777-4.404,0l-7.398,4.229l-1.253-0.648V58h19V66.05z"/>
				</g>
			</g>
		</g>
	</g>
</g>
<g id="Layer_61">
</g>
<g id="Layer_62">
</g>
<g id="Layer_63">
</g>
<g id="Layer_64">
</g>
<g id="Layer_65">
</g>
<g id="Layer_66">
</g>
<g id="Layer_67">
</g>
<g id="Layer_68">
</g>
<g id="Layer_69">
</g>
<g id="Layer_70">
</g>
<g id="Layer_71">
</g>
<g id="Layer_72">
</g>
<g id="Layer_73">
</g>
<g id="Layer_74">
</g>
<g id="Layer_75">
</g>
<g id="Layer_76">
</g>
<g id="Layer_77">
</g>
<g id="Layer_78">
</g>
<g id="Layer_79">
</g>
<g id="Layer_80">
</g>
</svg>
