<?xml version="1.0" encoding="utf-8"?>
<!-- Generator: Adobe Illustrator 24.0.0, SVG Export Plug-In . SVG Version: 6.00 Build 0)  -->
<svg version="1.1" xmlns="http://www.w3.org/2000/svg" xmlns:xlink="http://www.w3.org/1999/xlink" x="0px" y="0px"
	 viewBox="0 0 256 256" style="enable-background:new 0 0 256 256;" xml:space="preserve">
<style type="text/css">
	.st0{fill:#6CADEF;}
	.st1{fill:#F9D0B4;}
	.st2{fill:#5B5D60;}
	.st3{fill:#9BE5F9;}
	.st4{fill:#FC657E;}
	.st5{fill:#70D6F9;}
	.st6{fill:#F5C84C;}
	.st7{fill:#F98FA6;}
	.st8{fill:#FED690;}
	.st9{fill:#87D147;}
	.st10{fill:#B2E26D;}
	.st11{fill:#EDF4FC;}
	.st12{fill:#FCDD86;}
	.st13{fill:#754E34;}
	.st14{fill:#B598F9;}
	.st15{fill:#5290DB;}
	.st16{fill:#C7D7E5;}
	.st17{fill:#C18E6B;}
	.st18{fill:#DAE6F1;}
	.st19{fill:#3CAADC;}
	.st20{fill:#818182;}
	.st21{fill:#CBEFF7;}
	.st22{fill:#FCA265;}
	.st23{fill:#A57453;}
	.st24{fill:#8652D8;}
	.st25{fill:#966AEA;}
	.st26{fill:#FEB872;}
	.st27{fill:#EDB311;}
	.st28{fill:#EF4460;}
</style>
<g id="Layer_1">
</g>
<g id="Layer_2">
</g>
<g id="Layer_3">
</g>
<g id="Layer_4">
</g>
<g id="Layer_5">
</g>
<g id="Layer_6">
</g>
<g id="Layer_7">
</g>
<g id="Layer_8">
</g>
<g id="Layer_9">
</g>
<g id="Layer_10">
</g>
<g id="Layer_11">
</g>
<g id="Layer_12">
</g>
<g id="Layer_13">
</g>
<g id="Layer_14">
</g>
<g id="Layer_15">
</g>
<g id="Layer_16">
</g>
<g id="Layer_17">
</g>
<g id="Layer_18">
</g>
<g id="Layer_19">
</g>
<g id="Layer_20">
</g>
<g id="Layer_21">
</g>
<g id="Layer_22">
</g>
<g id="Layer_23">
</g>
<g id="Layer_24">
</g>
<g id="Layer_25">
</g>
<g id="Layer_26">
</g>
<g id="Layer_27">
</g>
<g id="Layer_28">
</g>
<g id="Layer_29">
</g>
<g id="Layer_30">
</g>
<g id="Layer_31">
</g>
<g id="Layer_32">
</g>
<g id="Layer_33">
</g>
<g id="Layer_34">
</g>
<g id="Layer_35">
</g>
<g id="Layer_36">
</g>
<g id="Layer_37">
</g>
<g id="Layer_38">
</g>
<g id="Layer_39">
</g>
<g id="Layer_40">
</g>
<g id="Layer_41">
</g>
<g id="Layer_42">
</g>
<g id="Layer_43">
</g>
<g id="Layer_44">
</g>
<g id="Layer_45">
</g>
<g id="Layer_46">
</g>
<g id="Layer_47">
</g>
<g id="Layer_48">
</g>
<g id="Layer_49">
</g>
<g id="Layer_50">
</g>
<g id="Layer_51">
</g>
<g id="Layer_52">
</g>
<g id="Layer_53">
</g>
<g id="Layer_54">
</g>
<g id="Layer_55">
</g>
<g id="Layer_56">
</g>
<g id="Layer_57">
</g>
<g id="Layer_58">
</g>
<g id="Layer_59">
</g>
<g id="Layer_60">
</g>
<g id="Layer_61">
</g>
<g id="Layer_62">
</g>
<g id="Layer_63">
</g>
<g id="Layer_64">
</g>
<g id="Layer_65">
</g>
<g id="Layer_66">
	<g>
		<g>
			<g>
				<path class="st18" d="M190.783,18.5H49.019c-2.313,0-4.189,1.875-4.189,4.189v226.622c0,2.313,1.875,4.189,4.189,4.189h161.622
					c2.313,0,4.189-1.875,4.189-4.189V42.548L190.783,18.5z"/>
			</g>
		</g>
		<g>
			<g>
				<path class="st11" d="M190.783,18.5v19.859c0,2.313,1.875,4.189,4.189,4.189h19.859L190.783,18.5z"/>
			</g>
		</g>
		<g>
			<g>
				<circle class="st5" cx="129.831" cy="73.893" r="32.36"/>
			</g>
		</g>
		<g>
			<g>
				<path class="st4" d="M78.762,142.035h-6.861c-1.109,0-2.008,0.899-2.008,2.009v6.943c0,1.109,0.899,2.009,2.008,2.009h6.861
					c1.109,0,2.008-0.899,2.008-2.009v-6.943C80.771,142.934,79.871,142.035,78.762,142.035z"/>
			</g>
		</g>
		<g>
			<g>
				<path class="st4" d="M78.762,196.879h-6.861c-1.109,0-2.008,0.899-2.008,2.009v6.943c0,1.109,0.899,2.009,2.008,2.009h6.861
					c1.109,0,2.008-0.899,2.008-2.009v-6.943C80.771,197.778,79.871,196.879,78.762,196.879z"/>
			</g>
		</g>
		<g>
			<g>
				<path class="st4" d="M78.762,169.457h-6.861c-1.109,0-2.008,0.899-2.008,2.009v6.943c0,1.109,0.899,2.009,2.008,2.009h6.861
					c1.109,0,2.008-0.899,2.008-2.009v-6.943C80.771,170.356,79.871,169.457,78.762,169.457z"/>
			</g>
		</g>
		<g>
			<g>
				<path class="st11" d="M146.829,68.765h-9.762c-1.165,0-2.109-0.945-2.109-2.11v-9.761c0-1.165-0.944-2.109-2.109-2.109h-6.036
					c-1.165,0-2.109,0.944-2.109,2.109v9.761c0,1.165-0.944,2.11-2.109,2.11h-9.762c-1.165,0-2.109,0.944-2.109,2.109v6.036
					c0,1.165,0.944,2.109,2.109,2.109h9.762c1.165,0,2.109,0.944,2.109,2.109v9.762c0,1.165,0.944,2.109,2.109,2.109h6.036
					c1.165,0,2.109-0.944,2.109-2.109V81.13c0-1.165,0.944-2.109,2.109-2.109h9.762c1.165,0,2.109-0.944,2.109-2.109v-6.036
					C148.939,69.71,147.994,68.765,146.829,68.765z"/>
			</g>
		</g>
		<g>
			<g>
				<g>
					<path d="M216.598,40.78L192.55,16.732c-0.469-0.469-1.104-0.732-1.768-0.732H49.02c-3.688,0-6.689,3-6.689,6.688v226.622
						c0,3.688,3,6.689,6.689,6.689h161.622c3.688,0,6.689-3.001,6.689-6.689V42.548C217.331,41.885,217.067,41.249,216.598,40.78z
						 M212.331,249.311c0,0.932-0.758,1.689-1.689,1.689H49.02c-0.931,0-1.689-0.758-1.689-1.689V22.688
						c0-0.931,0.758-1.688,1.689-1.688h140.728l22.583,22.583V249.311z"/>
				</g>
			</g>
		</g>
		<g>
			<g>
				<path class="st4" d="M29.037,181.1h-2.4v-2.3c0-1.8-1.4-3.2-3.2-3.2c-1.7,0-3.2,1.4-3.2,3.1v2.4h-2.3c-1.8,0-3.2,1.4-3.2,3.2
					c-0.1,1.7,1.3,3.2,3.2,3.2h2.3v2.3c0,1.8,1.4,3.2,3.2,3.2c1.7,0,3.2-1.4,3.2-3.1v-2.4h2.3c1.8,0,3.2-1.4,3.2-3.2
					C32.137,182.6,30.737,181.1,29.037,181.1z"/>
			</g>
		</g>
		<g>
			<g>
				<path class="st9" d="M207.337,0c-1.878,0-3.4,1.522-3.4,3.4c0,1.878,1.522,3.4,3.4,3.4c1.878,0,3.4-1.522,3.4-3.4
					C210.737,1.522,209.214,0,207.337,0z"/>
			</g>
		</g>
		<g>
			<g>
				<path class="st6" d="M31.337,212c-1.878,0-3.4,1.522-3.4,3.4c0,1.878,1.522,3.4,3.4,3.4c1.878,0,3.4-1.522,3.4-3.4
					C34.737,213.522,33.214,212,31.337,212z"/>
			</g>
		</g>
		<g>
			<g>
				<path class="st5" d="M235.118,155.2c-3.1-0.6-5.6-3-6.2-6.1c0-0.1-0.3-0.1-0.3,0c-0.6,3.1-3.1,5.5-6.2,6.1c-0.1,0-0.1,0.2,0,0.3
					c3.1,0.6,5.6,3,6.2,6.1c0,0.1,0.3,0.1,0.3,0c0.6-3.1,3.1-5.5,6.2-6.1C235.218,155.4,235.218,155.2,235.118,155.2z"/>
			</g>
		</g>
		<g>
			<g>
				<path class="st6" d="M241.118,28.2c-4.5-0.8-8-4.3-8.9-8.7c0-0.2-0.4-0.2-0.4,0c-0.9,4.4-4.4,7.9-8.9,8.7c-0.2,0-0.2,0.3,0,0.4
					c4.5,0.8,8,4.3,8.9,8.7c0,0.2,0.4,0.2,0.4,0c0.9-4.4,4.4-7.9,8.9-8.7C241.318,28.5,241.318,28.2,241.118,28.2z"/>
			</g>
		</g>
		<g>
			<g>
				<path d="M189.316,139.534H94c-1.381,0-2.5,1.119-2.5,2.5s1.119,2.5,2.5,2.5h95.317c1.381,0,2.5-1.119,2.5-2.5
					S190.697,139.534,189.316,139.534z"/>
			</g>
		</g>
		<g>
			<g>
				<path d="M167.496,150.494H94c-1.381,0-2.5,1.119-2.5,2.5s1.119,2.5,2.5,2.5h73.496c1.381,0,2.5-1.119,2.5-2.5
					S168.876,150.494,167.496,150.494z"/>
			</g>
		</g>
		<g>
			<g>
				<path d="M160.68,124.494H98c-1.381,0-2.5,1.119-2.5,2.5s1.119,2.5,2.5,2.5h62.681c1.381,0,2.5-1.119,2.5-2.5
					S162.061,124.494,160.68,124.494z"/>
			</g>
		</g>
		<g>
			<g>
				<path d="M189.316,194.379H94c-1.381,0-2.5,1.119-2.5,2.5s1.119,2.5,2.5,2.5h95.317c1.381,0,2.5-1.119,2.5-2.5
					S190.697,194.379,189.316,194.379z"/>
			</g>
		</g>
		<g>
			<g>
				<path d="M167.496,205.339H94c-1.381,0-2.5,1.119-2.5,2.5s1.119,2.5,2.5,2.5h73.496c1.381,0,2.5-1.119,2.5-2.5
					S168.876,205.339,167.496,205.339z"/>
			</g>
		</g>
		<g>
			<g>
				<path d="M189.316,166.957H94c-1.381,0-2.5,1.119-2.5,2.5s1.119,2.5,2.5,2.5h95.317c1.381,0,2.5-1.119,2.5-2.5
					S190.697,166.957,189.316,166.957z"/>
			</g>
		</g>
		<g>
			<g>
				<path d="M167.496,177.916H94c-1.381,0-2.5,1.119-2.5,2.5s1.119,2.5,2.5,2.5h73.496c1.381,0,2.5-1.119,2.5-2.5
					S168.876,177.916,167.496,177.916z"/>
			</g>
		</g>
		<g>
			<g>
				<g>
					<path d="M216.598,40.78L192.55,16.732c-0.715-0.716-1.792-0.929-2.724-0.542c-0.935,0.387-1.543,1.299-1.543,2.31v19.859
						c0,3.688,3,6.688,6.689,6.688h19.859c1.011,0,1.923-0.609,2.31-1.543C217.527,42.57,217.313,41.495,216.598,40.78z
						 M194.972,40.048c-0.931,0-1.689-0.758-1.689-1.688V24.535l15.512,15.513H194.972z"/>
				</g>
			</g>
		</g>
		<g>
			<g>
				<g>
					<path d="M129.831,39.032c-19.222,0-34.86,15.639-34.86,34.86s15.638,34.86,34.86,34.86s34.86-15.639,34.86-34.86
						S149.053,39.032,129.831,39.032z M129.831,103.753c-16.465,0-29.86-13.396-29.86-29.86s13.396-29.86,29.86-29.86
						s29.86,13.396,29.86,29.86S146.295,103.753,129.831,103.753z"/>
				</g>
			</g>
		</g>
		<g>
			<g>
				<g>
					<path d="M78.762,139.535h-6.861c-2.486,0-4.508,2.022-4.508,4.508v6.943c0,2.485,2.022,4.508,4.508,4.508h6.861
						c2.486,0,4.508-2.022,4.508-4.508v-6.943C83.271,141.558,81.248,139.535,78.762,139.535z M78.271,150.494h-5.877v-5.959h5.877
						V150.494z"/>
				</g>
			</g>
		</g>
		<g>
			<g>
				<g>
					<path d="M78.762,194.379h-6.861c-2.486,0-4.508,2.022-4.508,4.509v6.942c0,2.486,2.022,4.509,4.508,4.509h6.861
						c2.486,0,4.508-2.022,4.508-4.509v-6.942C83.271,196.401,81.248,194.379,78.762,194.379z M78.271,205.339h-5.877v-5.96h5.877
						V205.339z"/>
				</g>
			</g>
		</g>
		<g>
			<g>
				<g>
					<path d="M78.762,166.957h-6.861c-2.486,0-4.508,2.022-4.508,4.508v6.943c0,2.485,2.022,4.508,4.508,4.508h6.861
						c2.486,0,4.508-2.022,4.508-4.508v-6.943C83.271,168.979,81.248,166.957,78.762,166.957z M78.271,177.916h-5.877v-5.959h5.877
						V177.916z"/>
				</g>
			</g>
		</g>
		<g>
			<g>
				<g>
					<path d="M146.829,66.266h-9.371v-9.371c0-2.542-2.068-4.609-4.609-4.609h-6.036c-2.542,0-4.609,2.067-4.609,4.609v9.371h-9.371
						c-2.542,0-4.609,2.067-4.609,4.609v6.036c0,2.542,2.068,4.609,4.609,4.609h9.371v9.371c0,2.542,2.068,4.609,4.609,4.609h6.036
						c2.542,0,4.609-2.067,4.609-4.609v-9.371h9.371c2.542,0,4.609-2.067,4.609-4.609v-6.036
						C151.438,68.333,149.371,66.266,146.829,66.266z M146.438,76.521h-9.371c-2.542,0-4.609,2.067-4.609,4.609v9.371h-5.255V81.13
						c0-2.542-2.068-4.609-4.609-4.609h-9.371v-5.255h9.371c2.542,0,4.609-2.067,4.609-4.609v-9.371h5.255v9.371
						c0,2.542,2.068,4.609,4.609,4.609h9.371V76.521z"/>
				</g>
			</g>
		</g>
		<g>
			<g>
				<path d="M193.338,228.784c-0.989-0.96-2.571-0.94-3.535,0.051l-3.972,4.085c-0.126,0.13-0.269,0.17-0.373,0.149
					c-0.1-0.003-0.245-0.036-0.362-0.175l-3.105-3.66c-1.046-1.233-2.574-1.94-4.191-1.94s-3.145,0.707-4.191,1.94l-2.692,3.174
					c-0.131,0.155-0.286,0.187-0.405,0.174c-0.112-0.006-0.271-0.048-0.385-0.216l-4.241-6.231
					c-0.987-1.451-2.624-2.349-4.378-2.402c-1.753-0.078-3.442,0.743-4.516,2.132l-4.955,6.409
					c-0.844,1.093-0.644,2.663,0.449,3.507c1.092,0.846,2.662,0.643,3.507-0.448l4.954-6.409c0.127-0.164,0.29-0.198,0.408-0.192
					c0.116,0.003,0.278,0.044,0.396,0.217l4.241,6.232c0.974,1.431,2.524,2.304,4.253,2.396c1.729,0.109,3.362-0.613,4.482-1.933
					l2.692-3.174c0.245-0.289,0.513-0.289,0.758,0l3.105,3.66c1,1.18,2.46,1.886,4.006,1.938c0.062,0.002,0.124,0.003,0.185,0.003
					c1.479,0,2.908-0.602,3.942-1.666l3.971-4.085C194.351,231.33,194.328,229.747,193.338,228.784z"/>
			</g>
		</g>
	</g>
</g>
<g id="Layer_67">
</g>
<g id="Layer_68">
</g>
<g id="Layer_69">
</g>
<g id="Layer_70">
</g>
<g id="Layer_71">
</g>
<g id="Layer_72">
</g>
<g id="Layer_73">
</g>
<g id="Layer_74">
</g>
<g id="Layer_75">
</g>
<g id="Layer_76">
</g>
<g id="Layer_77">
</g>
<g id="Layer_78">
</g>
<g id="Layer_79">
</g>
<g id="Layer_80">
</g>
</svg>
