<?xml version="1.0" encoding="utf-8"?>
<!-- Generator: Adobe Illustrator 24.0.0, SVG Export Plug-In . SVG Version: 6.00 Build 0)  -->
<svg version="1.1" xmlns="http://www.w3.org/2000/svg" xmlns:xlink="http://www.w3.org/1999/xlink" x="0px" y="0px"
	 viewBox="0 0 256 256" style="enable-background:new 0 0 256 256;" xml:space="preserve">
<style type="text/css">
	.st0{fill:#6CADEF;}
	.st1{fill:#F9D0B4;}
	.st2{fill:#5B5D60;}
	.st3{fill:#9BE5F9;}
	.st4{fill:#FC657E;}
	.st5{fill:#70D6F9;}
	.st6{fill:#F5C84C;}
	.st7{fill:#F98FA6;}
	.st8{fill:#FED690;}
	.st9{fill:#87D147;}
	.st10{fill:#B2E26D;}
	.st11{fill:#EDF4FC;}
	.st12{fill:#FCDD86;}
	.st13{fill:#754E34;}
	.st14{fill:#B598F9;}
	.st15{fill:#5290DB;}
	.st16{fill:#C7D7E5;}
	.st17{fill:#C18E6B;}
	.st18{fill:#DAE6F1;}
	.st19{fill:#3CAADC;}
	.st20{fill:#818182;}
	.st21{fill:#CBEFF7;}
	.st22{fill:#FCA265;}
	.st23{fill:#A57453;}
	.st24{fill:#8652D8;}
	.st25{fill:#966AEA;}
	.st26{fill:#FEB872;}
	.st27{fill:#EDB311;}
	.st28{fill:#EF4460;}
</style>
<g id="Layer_1">
</g>
<g id="Layer_2">
</g>
<g id="Layer_3">
</g>
<g id="Layer_4">
</g>
<g id="Layer_5">
</g>
<g id="Layer_6">
</g>
<g id="Layer_7">
</g>
<g id="Layer_8">
</g>
<g id="Layer_9">
</g>
<g id="Layer_10">
</g>
<g id="Layer_11">
</g>
<g id="Layer_12">
</g>
<g id="Layer_13">
</g>
<g id="Layer_14">
</g>
<g id="Layer_15">
</g>
<g id="Layer_16">
</g>
<g id="Layer_17">
</g>
<g id="Layer_18">
</g>
<g id="Layer_19">
</g>
<g id="Layer_20">
</g>
<g id="Layer_21">
</g>
<g id="Layer_22">
</g>
<g id="Layer_23">
</g>
<g id="Layer_24">
</g>
<g id="Layer_25">
</g>
<g id="Layer_26">
</g>
<g id="Layer_27">
</g>
<g id="Layer_28">
</g>
<g id="Layer_29">
</g>
<g id="Layer_30">
</g>
<g id="Layer_31">
</g>
<g id="Layer_32">
</g>
<g id="Layer_33">
</g>
<g id="Layer_34">
</g>
<g id="Layer_35">
</g>
<g id="Layer_36">
</g>
<g id="Layer_37">
</g>
<g id="Layer_38">
</g>
<g id="Layer_39">
</g>
<g id="Layer_40">
</g>
<g id="Layer_41">
</g>
<g id="Layer_42">
</g>
<g id="Layer_43">
</g>
<g id="Layer_44">
</g>
<g id="Layer_45">
</g>
<g id="Layer_46">
</g>
<g id="Layer_47">
</g>
<g id="Layer_48">
</g>
<g id="Layer_49">
</g>
<g id="Layer_50">
</g>
<g id="Layer_51">
</g>
<g id="Layer_52">
</g>
<g id="Layer_53">
</g>
<g id="Layer_54">
</g>
<g id="Layer_55">
</g>
<g id="Layer_56">
</g>
<g id="Layer_57">
</g>
<g id="Layer_58">
</g>
<g id="Layer_59">
</g>
<g id="Layer_60">
</g>
<g id="Layer_61">
</g>
<g id="Layer_62">
</g>
<g id="Layer_63">
</g>
<g id="Layer_64">
</g>
<g id="Layer_65">
</g>
<g id="Layer_66">
</g>
<g id="Layer_67">
</g>
<g id="Layer_68">
</g>
<g id="Layer_69">
</g>
<g id="Layer_70">
	<g>
		<g>
			<g>
				<path class="st11" d="M191.044,27.164h-53.305c-1.877,0-3.398,1.521-3.398,3.398v69.425c1.298,1.659,2.19,3.646,2.492,5.806
					c0.007,0.048,0.013,0.096,0.019,0.144c0.346,2.703,2.639,4.609,5.362,4.494c0.68-0.029,1.374-0.002,2.079,0.084
					c5.55,0.68,10.045,5.232,10.664,10.789c0.421,3.781-0.88,7.26-3.211,9.77h1.224c4.909-7.158,13.144-11.855,22.478-11.855
					c5.615,0,10.831,1.7,15.167,4.611c0.982-1.956,2.283-3.734,3.828-5.278v-87.99C194.442,28.685,192.921,27.164,191.044,27.164z"
					/>
			</g>
		</g>
		<g>
			<g>
				<path class="st4" d="M154.957,121.304c-0.619-5.557-5.114-10.109-10.664-10.789c-0.704-0.086-1.399-0.113-2.079-0.084
					c-2.723,0.115-5.015-1.792-5.362-4.494c-0.006-0.048-0.013-0.096-0.019-0.144c-0.761-5.452-5.241-9.844-10.709-10.476
					c-0.686-0.079-1.363-0.102-2.025-0.072c-2.698,0.121-4.989-1.756-5.32-4.436c-0.051-0.413-0.122-0.828-0.216-1.247
					c-1.048-4.683-4.884-8.406-9.6-9.293c-4.106-0.772-7.929,0.501-10.643,2.973c-1.872,1.707-4.754,1.707-6.626,0
					c-2.714-2.473-6.537-3.745-10.643-2.973c-4.716,0.886-8.552,4.61-9.6,9.293c-0.094,0.419-0.166,0.835-0.216,1.247
					c-0.331,2.68-2.622,4.557-5.32,4.436c-0.662-0.03-1.339-0.007-2.025,0.072c-5.468,0.633-9.948,5.025-10.709,10.476
					c-0.007,0.048-0.013,0.096-0.02,0.144c-0.346,2.703-2.639,4.609-5.362,4.494c-0.68-0.029-1.374-0.002-2.079,0.084
					c-0.153,0.019-0.303,0.052-0.454,0.076l13.151,13.151c-0.984-4.788,0.091-9.932,3.335-13.989c0.832-1.04,2.385-1.13,3.326-0.188
					l20.727,20.727c0.231,0.23,0.397,0.498,0.506,0.783h65.436C154.077,128.564,155.378,125.084,154.957,121.304z"/>
			</g>
		</g>
		<g>
			<g>
				<path class="st10" d="M42.866,80.313c-0.522-0.872-1.538-1.355-2.544-1.209c-3.868,0.562-7.392,2.976-9.195,6.771
					c-1.803,3.795-1.449,8.051,0.559,11.405c0.522,0.873,1.538,1.355,2.544,1.209c3.868-0.562,7.392-2.976,9.195-6.771
					S44.874,83.667,42.866,80.313z"/>
			</g>
		</g>
		<g>
			<g>
				<path class="st10" d="M154.957,121.304c-0.619-5.557-5.114-10.109-10.664-10.789c-0.704-0.086-1.399-0.113-2.079-0.084
					c-2.723,0.115-5.015-1.792-5.362-4.494c-0.006-0.048-0.013-0.096-0.019-0.144c-0.761-5.452-5.241-9.844-10.709-10.476
					c-0.686-0.079-1.363-0.102-2.025-0.072c-2.698,0.121-4.989-1.756-5.32-4.436c-0.051-0.413-0.122-0.828-0.216-1.247
					c-1.048-4.683-4.884-8.406-9.6-9.293c-4.106-0.772-7.929,0.501-10.643,2.973c-1.872,1.707-4.754,1.707-6.626,0
					c-2.714-2.473-6.537-3.745-10.643-2.973c-4.716,0.886-8.552,4.61-9.6,9.293c-0.094,0.419-0.166,0.835-0.216,1.247
					c-0.331,2.68-2.622,4.557-5.32,4.436c-0.662-0.03-1.339-0.007-2.025,0.072c-5.468,0.633-9.948,5.025-10.709,10.476
					c-0.007,0.048-0.013,0.096-0.02,0.144c-0.346,2.703-2.639,4.609-5.362,4.494c-0.68-0.029-1.374-0.002-2.079,0.084
					c-0.153,0.019-0.303,0.052-0.454,0.076l13.151,13.151c-0.984-4.788,0.091-9.932,3.335-13.989c0.832-1.04,2.385-1.13,3.326-0.188
					l20.727,20.727c0.231,0.23,0.397,0.498,0.506,0.783h65.436C154.077,128.564,155.378,125.084,154.957,121.304z"/>
			</g>
		</g>
		<g>
			<g>
				<path class="st3" d="M134.341,48.571v51.416c1.298,1.659,2.19,3.646,2.492,5.806c0.007,0.048,0.013,0.096,0.019,0.144
					c0.346,2.703,2.639,4.609,5.362,4.494c0.68-0.029,1.374-0.002,2.079,0.084c5.55,0.68,10.045,5.232,10.664,10.789
					c0.421,3.781-0.88,7.26-3.211,9.77h1.224c4.909-7.158,13.144-11.855,22.478-11.855c5.615,0,10.831,1.7,15.167,4.611
					c0.982-1.956,2.283-3.734,3.828-5.278V48.571H134.341z"/>
			</g>
		</g>
		<g>
			<g>
				<path class="st10" d="M238.385,86.811c-4.053-1.676-8.836-1.368-12.751,1.259c-3.915,2.627-6.014,6.936-6.001,11.321
					c0.004,1.141,0.706,2.189,1.761,2.625c4.053,1.676,8.836,1.368,12.751-1.259s6.014-6.935,6.001-11.321
					C240.143,88.295,239.44,87.247,238.385,86.811z"/>
			</g>
		</g>
		<g>
			<g>
				<path class="st6" d="M175.447,119.219c-15.045,0-27.241,12.196-27.241,27.241s12.196,27.241,27.241,27.241
					c0.923,0,1.836-0.047,2.736-0.137l18.581-15.536c1.277-1.068,2.729-1.752,4.229-2.096c1.094-2.95,1.695-6.141,1.695-9.472
					C202.688,131.415,190.492,119.219,175.447,119.219z"/>
			</g>
		</g>
		<g>
			<g>
				<path class="st4" d="M233.147,112.566c-1.926,0-3.755,0.408-5.407,1.142c-4.254,1.889-9.22,1.889-13.474,0
					c-1.652-0.734-3.482-1.142-5.408-1.142c-8.036,0-14.928,4.658-18.243,11.264c7.282,4.89,12.074,13.199,12.074,22.629
					c0,3.333-0.603,6.522-1.7,9.473c4.174-0.958,8.738,0.792,11.054,4.802l1.543,2.673l3.696-2.134
					c2.194-1.267,2.953-4.098,1.686-6.292l-0.026-0.045c-2.394-4.146-0.731-9.521,3.756-11.53c3.214-1.439,7.102-0.589,9.42,2.063
					c0.34,0.389,0.635,0.797,0.885,1.217c0.93,1.56,2.679,2.466,4.468,2.152c3.262-0.572,6.702,0.89,8.472,3.955
					c0.173,0.3,0.307,0.61,0.438,0.92l5.469-13.044C257.704,126.708,247.157,112.566,233.147,112.566z"/>
			</g>
		</g>
		<g>
			<g>
				<path class="st11" d="M148.207,146.46c0-5.71,1.76-11.007,4.763-15.385H6.092c-2.436,0-4.164,2.374-3.416,4.692l7.36,22.812
					c2.908,9.013,11.298,15.122,20.769,15.122h123.618c3.526,0,6.9-0.849,9.899-2.377
					C154.826,167.068,148.207,157.54,148.207,146.46z"/>
			</g>
		</g>
		<g>
			<g>
				<path class="st6" d="M85.804,130.291l-20.727-20.727c-0.941-0.942-2.495-0.851-3.326,0.188
					c-5.026,6.287-4.879,15.189,0.144,21.321h24.415C86.201,130.79,86.034,130.522,85.804,130.291z"/>
			</g>
		</g>
		<g>
			<g>
				<path class="st6" d="M58.416,123.742l-14.177-14.177c-0.941-0.942-2.495-0.851-3.327,0.188
					c-5.026,6.287-4.879,15.189,0.144,21.321h20.848C60.125,128.897,58.957,126.375,58.416,123.742z"/>
			</g>
		</g>
		<g>
			<g>
				<path class="st6" d="M37.578,123.742l-14.177-14.177c-0.942-0.942-2.495-0.851-3.327,0.188
					c-5.026,6.287-4.879,15.189,0.144,21.321h20.848C39.286,128.897,38.119,126.375,37.578,123.742z"/>
			</g>
		</g>
		<g>
			<g>
				<path class="st7" d="M118.467,113.077c-6.64,0-12.023,5.383-12.023,12.022c0,2.177,0.587,4.213,1.599,5.975h20.847
					c1.012-1.761,1.599-3.798,1.599-5.975C130.489,118.46,125.106,113.077,118.467,113.077z"/>
			</g>
		</g>
		<g>
			<g>
				<path class="st4" d="M108.734,118.061c-2.185-3.015-5.724-4.984-9.733-4.984c-6.64,0-12.023,5.383-12.023,12.022
					c0,2.177,0.587,4.213,1.599,5.975h19.476c-1.016-1.761-1.61-3.795-1.61-5.975C106.444,122.468,107.299,120.041,108.734,118.061z
					"/>
			</g>
		</g>
		<g>
			<g>
				<path class="st22" d="M222.115,178.182l-10.073-17.447c-3.147-5.451-10.449-6.745-15.278-2.708l-51.78,43.295
					c-7.377,6.169-0.578,17.945,8.452,14.64l63.384-23.195C222.732,190.604,225.262,183.633,222.115,178.182z"/>
			</g>
		</g>
		<g>
			<g>
				<path class="st10" d="M244.784,167.095c-0.885-1.605-0.827-3.583,0.349-4.989c2.124-2.539,2.578-6.247,0.809-9.312
					c-1.77-3.065-5.21-4.527-8.472-3.955c-1.789,0.314-3.538-0.593-4.468-2.153c-0.251-0.42-0.545-0.828-0.885-1.217
					c-2.318-2.652-6.206-3.502-9.42-2.063c-4.488,2.009-6.15,7.384-3.756,11.53l0.026,0.045c1.267,2.194,0.508,5.026-1.686,6.292
					l-3.696,2.134l6.987,12.102l3.941-2.275c2.068-1.194,4.712-0.485,5.905,1.582c1.848,3.201,5.565,4.985,9.159,4.124
					c5.32-1.274,7.659-7.343,5.226-11.81L244.784,167.095z"/>
			</g>
		</g>
		<g>
			<g>
				<path d="M211.945,93.382c-1.17-0.731-2.712-0.377-3.445,0.795c-0.731,1.171-0.376,2.714,0.795,3.445
					c0.09,0.056,8.987,5.731,8.987,15.662c0,1.381,1.119,2.5,2.5,2.5s2.5-1.119,2.5-2.5
					C223.282,100.612,212.408,93.671,211.945,93.382z"/>
			</g>
		</g>
		<g>
			<g>
				<g>
					<g>
						<path d="M191.044,24.664h-53.305c-3.252,0-5.898,2.646-5.898,5.897v69.425c0,0.559,0.188,1.102,0.531,1.541
							c1.067,1.363,1.754,2.958,1.985,4.61c0,0.003,0.015,0.114,0.016,0.117c0.509,3.973,3.926,6.855,7.944,6.674
							c0.559-0.022,1.116,0,1.671,0.067c4.423,0.542,7.99,4.152,8.484,8.584c0.322,2.901-0.586,5.668-2.56,7.793
							c-0.677,0.729-0.857,1.789-0.46,2.7c0.397,0.912,1.298,1.501,2.292,1.501h1.224c0.824,0,1.596-0.406,2.062-1.086
							c4.625-6.743,12.258-10.77,20.417-10.77c4.931,0,9.693,1.448,13.773,4.187c0.597,0.4,1.335,0.523,2.029,0.343
							c0.694-0.183,1.276-0.655,1.599-1.296c0.852-1.697,1.981-3.255,3.359-4.631c0.47-0.469,0.733-1.104,0.733-1.769V30.562
							C196.941,27.31,194.296,24.664,191.044,24.664z M191.941,117.55c-0.813,0.888-1.55,1.831-2.206,2.821
							c-4.365-2.396-9.255-3.652-14.288-3.652c-6.55,0-12.817,2.157-17.914,6.004c0.002-0.563-0.028-1.129-0.092-1.695
							c-0.747-6.708-6.149-12.173-12.846-12.994c-0.618-0.075-1.241-0.113-1.86-0.113c-0.209,0-0.418,0.004-0.626,0.013
							c-1.449,0.059-2.598-0.914-2.775-2.3l-0.025-0.187c-0.312-2.234-1.16-4.388-2.468-6.279V30.562
							c0-0.495,0.403-0.897,0.898-0.897h53.305c0.495,0,0.897,0.402,0.897,0.897V117.55z"/>
					</g>
				</g>
			</g>
		</g>
		<g>
			<g>
				<path d="M190.056,177.463l-4.187-7.251c-0.69-1.196-2.222-1.605-3.415-0.915c-1.195,0.69-1.605,2.22-0.915,3.415l4.187,7.251
					c0.463,0.802,1.304,1.25,2.167,1.25c0.425,0,0.854-0.107,1.248-0.335C190.336,180.188,190.746,178.658,190.056,177.463z"/>
			</g>
		</g>
		<g>
			<g>
				<path d="M208.308,177.976l-1.794-3.107c-0.69-1.196-2.221-1.605-3.415-0.915c-1.195,0.69-1.605,2.219-0.915,3.415l1.794,3.107
					c0.463,0.802,1.304,1.25,2.167,1.25c0.425,0,0.854-0.107,1.248-0.335C208.588,180.7,208.998,179.172,208.308,177.976z"/>
			</g>
		</g>
		<g>
			<g>
				<path d="M170.854,196.837l-1.794-3.107c-0.69-1.196-2.222-1.605-3.415-0.915c-1.195,0.69-1.605,2.219-0.915,3.415l1.794,3.107
					c0.463,0.802,1.304,1.25,2.167,1.25c0.425,0,0.854-0.107,1.248-0.335C171.134,199.562,171.544,198.033,170.854,196.837z"/>
			</g>
		</g>
		<g>
			<g>
				<path d="M188.229,200.617l-3.588-6.216c-0.691-1.197-2.222-1.605-3.415-0.915c-1.195,0.69-1.605,2.219-0.915,3.415l3.588,6.216
					c0.463,0.802,1.304,1.25,2.167,1.25c0.425,0,0.854-0.107,1.248-0.335C188.51,203.342,188.92,201.813,188.229,200.617z"/>
			</g>
		</g>
		<g>
			<g>
				<path class="st5" d="M117.206,201.95h-2.4v-2.3c0-1.8-1.4-3.2-3.2-3.2c-1.7,0-3.2,1.4-3.2,3.1v2.4h-2.3c-1.8,0-3.2,1.4-3.2,3.2
					c-0.1,1.7,1.3,3.2,3.2,3.2h2.3v2.3c0,1.8,1.4,3.2,3.2,3.2c1.7,0,3.2-1.4,3.2-3.1v-2.4h2.3c1.8,0,3.2-1.4,3.2-3.2
					C120.306,203.45,118.906,201.95,117.206,201.95z"/>
			</g>
		</g>
		<g>
			<g>
				<circle class="st6" cx="127.506" cy="228.75" r="3.4"/>
			</g>
		</g>
		<g>
			<g>
				<circle class="st4" cx="106.506" cy="27.25" r="3.4"/>
			</g>
		</g>
		<g>
			<g>
				<path class="st9" d="M222.288,66.05c-3.1-0.6-5.6-3-6.2-6.1c0-0.1-0.3-0.1-0.3,0c-0.6,3.1-3.1,5.5-6.2,6.1c-0.1,0-0.1,0.2,0,0.3
					c3.1,0.6,5.6,3,6.2,6.1c0,0.1,0.3,0.1,0.3,0c0.6-3.1,3.1-5.5,6.2-6.1C222.388,66.25,222.388,66.05,222.288,66.05z"/>
			</g>
		</g>
		<g>
			<g>
				<path class="st6" d="M92.288,48.05c-4.5-0.8-8-4.3-8.9-8.7c0-0.2-0.4-0.2-0.4,0c-0.9,4.4-4.4,7.9-8.9,8.7c-0.2,0-0.2,0.3,0,0.4
					c4.5,0.8,8,4.3,8.9,8.7c0,0.2,0.4,0.2,0.4,0c0.9-4.4,4.4-7.9,8.9-8.7C92.488,48.35,92.488,48.05,92.288,48.05z"/>
			</g>
		</g>
		<g>
			<g>
				<g>
					<g>
						<path d="M157.441,121.027c-0.747-6.708-6.149-12.173-12.846-12.994c-0.827-0.101-1.662-0.136-2.486-0.101
							c-1.449,0.059-2.598-0.914-2.775-2.3l-0.025-0.187c-0.915-6.55-6.339-11.854-12.898-12.613
							c-0.813-0.094-1.63-0.124-2.424-0.086c-1.38,0.061-2.559-0.881-2.727-2.245c-0.062-0.498-0.148-0.998-0.258-1.488
							c-1.263-5.636-5.915-10.139-11.578-11.203c-4.664-0.876-9.326,0.429-12.788,3.583c-0.915,0.832-2.346,0.831-3.259,0
							c-3.461-3.154-8.123-4.459-12.789-3.583c-5.663,1.065-10.316,5.567-11.577,11.204c-0.108,0.483-0.195,0.982-0.259,1.487
							c-0.168,1.364-1.328,2.287-2.724,2.245c-0.8-0.039-1.614-0.007-2.427,0.086c-6.559,0.759-11.982,6.063-12.896,12.605
							l-0.024,0.18c-0.18,1.4-1.322,2.368-2.778,2.314c-0.822-0.036-1.659,0-2.483,0.101c-0.146,0.018-0.292,0.042-0.437,0.069
							l-0.115,0.021c-0.927,0.149-1.691,0.806-1.98,1.698c-0.289,0.894-0.053,1.873,0.611,2.537l13.15,13.15
							c0.779,0.781,1.979,0.957,2.953,0.434c0.972-0.523,1.485-1.623,1.264-2.704c-0.85-4.138,0.118-8.381,2.657-11.693
							l20.472,20.472c0.383,0.94,1.297,1.558,2.315,1.558h65.436c0.695,0,1.358-0.289,1.832-0.799
							C156.513,129.615,157.921,125.333,157.441,121.027z M150.583,128.574H87.622c-0.017-0.017-0.034-0.034-0.051-0.051
							l-20.727-20.727c-0.949-0.951-2.253-1.45-3.608-1.378c-1.345,0.075-2.598,0.722-3.438,1.772
							c-2.188,2.735-3.562,5.965-4.043,9.354l-5.073-5.073c2.619-0.951,4.581-3.284,4.957-6.218
							c0.001-0.005,0.016-0.112,0.016-0.117c0.605-4.33,4.188-7.837,8.52-8.338c0.548-0.062,1.097-0.078,1.627-0.059
							c4.016,0.2,7.426-2.669,7.912-6.622c0.042-0.335,0.1-0.673,0.176-1.013c0.831-3.715,3.895-6.681,7.622-7.382
							c3.105-0.584,6.207,0.277,8.498,2.364c2.846,2.596,7.144,2.597,9.993,0c2.291-2.087,5.394-2.947,8.497-2.364
							c3.728,0.7,6.791,3.667,7.623,7.382c0.075,0.338,0.133,0.674,0.174,1.008c0.489,3.959,3.879,6.844,7.916,6.627
							c0.531-0.025,1.076-0.005,1.624,0.059c4.332,0.501,7.915,4.008,8.521,8.338c0,0.003,0.015,0.114,0.016,0.117
							c0.509,3.973,3.926,6.855,7.944,6.674c0.559-0.022,1.116,0,1.671,0.067c4.423,0.542,7.99,4.152,8.484,8.584
							C152.756,124.13,152.088,126.577,150.583,128.574z"/>
					</g>
				</g>
			</g>
		</g>
		<g>
			<g>
				<g>
					<path d="M45.012,79.029c0-0.001-0.001-0.001-0.001-0.002c-1.049-1.749-3.027-2.696-5.048-2.396
						c-4.85,0.703-8.996,3.758-11.094,8.172c-2.097,4.412-1.846,9.557,0.672,13.763c0.921,1.537,2.563,2.45,4.318,2.45
						c0.242,0,0.485-0.017,0.729-0.053c4.85-0.705,8.997-3.76,11.094-8.173C47.778,88.379,47.527,83.234,45.012,79.029z
						 M41.167,90.645c-1.378,2.898-4.105,4.906-7.336,5.352c-1.656-2.767-1.823-6.149-0.446-9.048
						c1.378-2.899,4.105-4.906,7.297-5.37c0.011,0,0.033,0.011,0.04,0.02C42.377,84.365,42.543,87.747,41.167,90.645z"/>
				</g>
			</g>
		</g>
		<g>
			<g>
				<g>
					<g>
						<path d="M157.441,121.027c-0.747-6.708-6.149-12.173-12.846-12.994c-0.827-0.101-1.662-0.136-2.486-0.101
							c-1.449,0.059-2.598-0.914-2.775-2.3l-0.025-0.187c-0.915-6.55-6.339-11.854-12.898-12.613
							c-0.813-0.094-1.63-0.124-2.424-0.086c-1.38,0.061-2.559-0.881-2.727-2.245c-0.062-0.498-0.148-0.998-0.258-1.488
							c-1.263-5.636-5.915-10.139-11.578-11.203c-4.664-0.876-9.326,0.429-12.788,3.583c-0.915,0.832-2.346,0.831-3.259,0
							c-3.461-3.154-8.123-4.459-12.789-3.583c-5.663,1.065-10.316,5.567-11.577,11.204c-0.108,0.483-0.195,0.982-0.259,1.487
							c-0.168,1.364-1.328,2.287-2.724,2.245c-0.8-0.039-1.614-0.007-2.427,0.086c-6.559,0.759-11.982,6.063-12.896,12.605
							l-0.024,0.18c-0.18,1.4-1.322,2.368-2.778,2.314c-0.822-0.036-1.659,0-2.483,0.101c-0.146,0.018-0.292,0.042-0.437,0.069
							l-0.115,0.021c-0.927,0.149-1.691,0.806-1.98,1.698c-0.289,0.894-0.053,1.873,0.611,2.537l13.15,13.15
							c0.779,0.781,1.979,0.957,2.953,0.434c0.972-0.523,1.485-1.623,1.264-2.704c-0.85-4.138,0.118-8.381,2.657-11.693
							l20.472,20.472c0.383,0.94,1.297,1.558,2.315,1.558h65.436c0.695,0,1.358-0.289,1.832-0.799
							C156.513,129.615,157.921,125.333,157.441,121.027z M150.583,128.574H87.622l-20.777-20.777
							c-0.949-0.951-2.253-1.45-3.608-1.378c-1.345,0.075-2.598,0.722-3.438,1.772c-2.188,2.735-3.562,5.965-4.043,9.354
							l-5.073-5.073c2.619-0.951,4.581-3.284,4.957-6.218c0.001-0.005,0.016-0.112,0.016-0.117c0.605-4.33,4.188-7.837,8.52-8.338
							c0.548-0.062,1.097-0.078,1.627-0.059c4.016,0.2,7.426-2.669,7.912-6.622c0.042-0.335,0.1-0.673,0.176-1.013
							c0.831-3.715,3.895-6.681,7.622-7.382c3.105-0.584,6.207,0.277,8.498,2.364c2.846,2.596,7.144,2.597,9.993,0
							c2.291-2.087,5.394-2.947,8.497-2.364c3.728,0.7,6.791,3.667,7.623,7.382c0.075,0.338,0.133,0.674,0.174,1.008
							c0.489,3.959,3.879,6.844,7.916,6.627c0.531-0.025,1.076-0.005,1.624,0.059c4.332,0.501,7.915,4.008,8.521,8.338
							c0,0.003,0.015,0.114,0.016,0.117c0.509,3.973,3.926,6.855,7.944,6.674c0.559-0.022,1.116,0,1.671,0.067
							c4.423,0.542,7.99,4.152,8.484,8.584C152.756,124.13,152.088,126.577,150.583,128.574z"/>
					</g>
				</g>
			</g>
		</g>
		<g>
			<g>
				<g>
					<path d="M194.441,46.07h-60.101c-1.381,0-2.5,1.119-2.5,2.5v51.416c0,0.559,0.188,1.102,0.531,1.541
						c1.067,1.363,1.754,2.958,1.985,4.61c0,0.003,0.015,0.114,0.016,0.117c0.509,3.973,3.926,6.855,7.944,6.674
						c0.555-0.022,1.115-0.001,1.671,0.067c4.423,0.542,7.99,4.152,8.484,8.584c0.322,2.901-0.586,5.668-2.56,7.793
						c-0.677,0.729-0.857,1.789-0.46,2.7c0.397,0.912,1.298,1.501,2.292,1.501h1.224c0.824,0,1.596-0.406,2.062-1.086
						c4.625-6.743,12.258-10.77,20.417-10.77c4.931,0,9.693,1.448,13.773,4.187c0.597,0.4,1.335,0.523,2.029,0.343
						c0.694-0.183,1.276-0.655,1.599-1.296c0.852-1.697,1.981-3.255,3.359-4.631c0.47-0.469,0.733-1.104,0.733-1.769V48.57
						C196.941,47.189,195.822,46.07,194.441,46.07z M191.941,117.55c-0.813,0.888-1.55,1.831-2.206,2.821
						c-4.365-2.396-9.255-3.652-14.288-3.652c-6.55,0-12.817,2.157-17.914,6.004c0.002-0.563-0.028-1.129-0.092-1.695
						c-0.747-6.708-6.149-12.173-12.846-12.994c-0.618-0.075-1.241-0.113-1.86-0.113c-0.209,0-0.418,0.004-0.626,0.013
						c-1.449,0.059-2.598-0.914-2.775-2.3l-0.025-0.187c-0.312-2.234-1.16-4.388-2.468-6.279V51.07h55.101V117.55z"/>
				</g>
			</g>
		</g>
		<g>
			<g>
				<g>
					<path d="M239.341,84.501c-4.987-2.061-10.632-1.503-15.1,1.493c-4.467,2.996-7.124,8.007-7.107,13.403
						c0.006,2.167,1.304,4.102,3.306,4.929c1.99,0.822,4.084,1.229,6.167,1.229c3.138,0,6.248-0.921,8.932-2.722
						c4.467-2.997,7.124-8.008,7.108-13.404c0-0.001,0-0.001,0-0.002C242.639,87.262,241.342,85.328,239.341,84.501z
						 M232.753,98.681c-3.076,2.063-6.965,2.447-10.404,1.024c-0.122-0.051-0.215-0.188-0.215-0.322
						c-0.012-3.721,1.817-7.174,4.893-9.236c1.848-1.239,3.988-1.872,6.148-1.872c1.437,0,2.883,0.279,4.256,0.848
						c0.121,0.05,0.216,0.191,0.216,0.322C237.657,93.165,235.827,96.618,232.753,98.681z"/>
				</g>
			</g>
		</g>
		<g>
			<g>
				<g>
					<path d="M175.447,116.719c-16.398,0-29.74,13.342-29.74,29.741c0,16.398,13.342,29.74,29.74,29.74
						c0.989,0,1.993-0.05,2.984-0.149c0.499-0.05,0.971-0.248,1.355-0.569l18.581-15.536c0.926-0.774,1.997-1.305,3.184-1.577
						c0.821-0.188,1.492-0.777,1.785-1.566c1.229-3.312,1.852-6.791,1.852-10.342C205.188,130.061,191.847,116.719,175.447,116.719z
						 M199.05,153.895c-1.419,0.497-2.723,1.239-3.889,2.215l-17.976,15.03c-0.581,0.04-1.163,0.061-1.738,0.061
						c-13.642,0-24.74-11.099-24.74-24.74c0-13.643,11.099-24.741,24.74-24.741c13.643,0,24.741,11.099,24.741,24.741
						C200.188,149.001,199.806,151.495,199.05,153.895z"/>
				</g>
			</g>
		</g>
		<g>
			<g>
				<g>
					<path d="M252.243,120.313c-4.268-6.416-11.406-10.247-19.097-10.247c-2.232,0-4.394,0.456-6.422,1.356
						c-3.583,1.592-7.86,1.592-11.445,0c-2.028-0.9-4.189-1.356-6.422-1.356c-8.718,0-16.564,4.844-20.479,12.643
						c-0.564,1.125-0.204,2.495,0.841,3.196c6.868,4.612,10.969,12.296,10.969,20.555c0,2.952-0.52,5.847-1.544,8.602
						c-0.32,0.861-0.142,1.829,0.465,2.521c0.606,0.69,1.537,0.997,2.438,0.787c3.289-0.759,6.644,0.696,8.329,3.616l1.543,2.672
						c0.463,0.802,1.304,1.25,2.167,1.25c0.425,0,0.854-0.107,1.248-0.335l3.696-2.134c3.393-1.959,4.56-6.313,2.574-9.752
						c-0.798-1.383-0.974-3.048-0.481-4.568c0.499-1.541,1.599-2.759,3.095-3.43c2.231-0.997,4.91-0.411,6.515,1.425
						c0.236,0.271,0.445,0.558,0.622,0.854c1.499,2.513,4.267,3.821,7.046,3.334c2.333-0.413,4.693,0.692,5.875,2.741
						c0.121,0.209,0.21,0.428,0.302,0.645c0.392,0.925,1.298,1.526,2.303,1.526c0.001,0,0.002,0,0.004,0
						c1.006-0.001,1.913-0.605,2.302-1.533l5.47-13.044C257.171,134.446,256.474,126.674,252.243,120.313z M249.545,139.703
						l-3.788,9.035c-2.371-1.997-5.563-2.915-8.719-2.362c-0.719,0.133-1.462-0.254-1.888-0.969
						c-0.329-0.552-0.716-1.083-1.151-1.583c-3.041-3.478-8.11-4.586-12.323-2.699c-2.765,1.238-4.882,3.59-5.809,6.453
						c-0.928,2.865-0.597,6.002,0.935,8.653c0.58,1.006,0.234,2.297-0.771,2.877l-1.531,0.884l-0.293-0.507
						c-2.106-3.648-5.776-5.914-9.794-6.268c0.516-2.207,0.775-4.468,0.775-6.758c0-9.146-4.182-17.703-11.293-23.328
						c3.291-5.021,8.854-8.065,14.962-8.065c1.529,0,3.008,0.312,4.393,0.927c4.926,2.188,10.578,2.188,15.504,0
						c1.385-0.615,2.863-0.927,4.393-0.927c6.013,0,11.596,2.997,14.934,8.016C251.367,128.025,251.901,134.083,249.545,139.703z"/>
				</g>
			</g>
		</g>
		<g>
			<g>
				<g>
					<path d="M165.345,169.042c-8.893-3.984-14.638-12.849-14.638-22.582c0-5.016,1.495-9.847,4.323-13.972
						c0.525-0.766,0.583-1.759,0.15-2.579c-0.433-0.821-1.284-1.335-2.212-1.335H6.093c-1.97,0-3.765,0.913-4.924,2.506
						c-1.159,1.592-1.478,3.58-0.872,5.453l7.36,22.813C10.908,169.427,20.21,176.2,30.804,176.2h123.619
						c3.817,0,7.633-0.916,11.034-2.649c0.858-0.438,1.389-1.328,1.364-2.29C166.798,170.299,166.223,169.436,165.345,169.042z
						 M154.423,171.2H30.804c-8.415,0-15.806-5.381-18.389-13.39l-7.36-22.813c-0.147-0.459,0.034-0.808,0.156-0.975
						c0.122-0.168,0.399-0.449,0.882-0.449h142.545c-1.927,3.997-2.931,8.38-2.931,12.886c0,9.779,4.824,18.829,12.648,24.333
						C157.063,171.063,155.743,171.2,154.423,171.2z"/>
				</g>
			</g>
		</g>
		<g>
			<g>
				<g>
					<path d="M88.646,130.186c-0.239-0.629-0.601-1.188-1.075-1.662l-20.727-20.727c-0.949-0.951-2.253-1.45-3.608-1.378
						c-1.345,0.075-2.598,0.722-3.438,1.772c-5.689,7.115-5.622,17.405,0.161,24.467c0.476,0.58,1.186,0.916,1.935,0.916H86.31
						c0.822,0,1.592-0.404,2.058-1.081C88.834,131.817,88.938,130.954,88.646,130.186z M63.138,128.574
						c-3.544-5.112-3.424-12.058,0.385-17.029l17.029,17.029H63.138z"/>
				</g>
			</g>
		</g>
		<g>
			<g>
				<g>
					<path d="M63.84,129.492c-1.477-1.808-2.506-3.97-2.975-6.254c-0.099-0.479-0.336-0.919-0.682-1.265l-14.177-14.177
						c-0.949-0.951-2.265-1.45-3.606-1.378c-1.346,0.075-2.6,0.721-3.441,1.772c-5.688,7.116-5.62,17.406,0.164,24.467
						c0.475,0.58,1.185,0.916,1.934,0.916h20.848c0.966,0,1.845-0.557,2.259-1.429C64.577,131.272,64.451,130.24,63.84,129.492z
						 M42.3,128.574c-3.544-5.112-3.425-12.059,0.385-17.029l13.453,13.454c0.305,1.229,0.73,2.429,1.267,3.575H42.3z"/>
				</g>
			</g>
		</g>
		<g>
			<g>
				<g>
					<path d="M43.002,129.491c-1.477-1.805-2.506-3.968-2.975-6.253c-0.099-0.479-0.336-0.919-0.682-1.265l-14.178-14.177
						c-0.949-0.951-2.253-1.45-3.608-1.378c-1.345,0.075-2.598,0.722-3.438,1.772c-5.689,7.115-5.622,17.405,0.161,24.467
						c0.476,0.58,1.186,0.916,1.935,0.916h20.849c0.966,0,1.846-0.557,2.259-1.43C43.739,131.272,43.613,130.239,43.002,129.491z
						 M21.461,128.574c-3.544-5.112-3.424-12.058,0.385-17.029L35.3,124.999c0.305,1.229,0.73,2.429,1.267,3.575H21.461z"/>
				</g>
			</g>
		</g>
		<g>
			<g>
				<g>
					<path d="M118.467,110.577c-8.008,0-14.522,6.515-14.522,14.522c0,2.523,0.668,5.021,1.931,7.22
						c0.446,0.776,1.272,1.255,2.168,1.255h20.847c0.896,0,1.722-0.479,2.168-1.255c1.264-2.2,1.932-4.697,1.932-7.22
						C132.989,117.092,126.475,110.577,118.467,110.577z M127.325,128.574h-17.718c-0.437-1.106-0.663-2.286-0.663-3.475
						c0-5.251,4.271-9.522,9.522-9.522s9.522,4.271,9.522,9.522C127.989,126.287,127.762,127.468,127.325,128.574z"/>
				</g>
			</g>
		</g>
		<g>
			<g>
				<g>
					<path d="M110.759,116.594c-2.73-3.768-7.125-6.017-11.758-6.017c-8.008,0-14.522,6.515-14.522,14.522
						c0,2.522,0.668,5.02,1.932,7.22c0.446,0.776,1.272,1.255,2.168,1.255h19.476c0.894,0,1.719-0.477,2.165-1.25s0.446-1.727,0-2.5
						c-0.834-1.444-1.274-3.078-1.274-4.725c0-2.007,0.628-3.934,1.814-5.572C111.393,118.652,111.393,117.469,110.759,116.594z
						 M104.373,128.574h-14.23c-0.437-1.106-0.664-2.287-0.664-3.475c0-5.251,4.271-9.522,9.522-9.522
						c2.49,0,4.877,0.994,6.645,2.718c-1.118,2.091-1.701,4.409-1.701,6.805C103.944,126.272,104.09,127.439,104.373,128.574z"/>
				</g>
			</g>
		</g>
		<g>
			<g>
				<g>
					<path d="M224.28,176.932l-10.073-17.446c-1.869-3.239-5.054-5.471-8.736-6.124c-3.686-0.654-7.44,0.349-10.31,2.748
						l-51.78,43.295c-4.936,4.127-4.806,10.025-2.488,14.04c1.781,3.085,5.171,5.607,9.387,5.606c1.271,0,2.617-0.229,4.017-0.741
						l63.385-23.195c3.512-1.285,6.258-4.038,7.533-7.554C226.49,184.045,226.15,180.171,224.28,176.932z M220.515,185.854
						c-0.771,2.124-2.431,3.788-4.553,4.564l-63.385,23.195c-3.541,1.298-6.175-0.628-7.354-2.67
						c-1.179-2.042-1.528-5.284,1.365-7.704l51.78-43.295c1.387-1.159,3.115-1.778,4.891-1.778c0.445,0,0.894,0.039,1.339,0.118
						c2.226,0.395,4.149,1.743,5.279,3.7l10.073,17.446C221.08,181.389,221.285,183.73,220.515,185.854z"/>
				</g>
			</g>
		</g>
		<g>
			<g>
				<g>
					<path d="M247.052,163.711c2.859-3.419,3.283-8.308,1.056-12.167c-2.229-3.861-6.67-5.936-11.068-5.168
						c-0.72,0.133-1.463-0.254-1.889-0.969c-0.329-0.552-0.716-1.083-1.15-1.583c-3.04-3.478-8.108-4.586-12.324-2.699
						c-2.765,1.238-4.882,3.59-5.809,6.453c-0.927,2.864-0.596,6.002,0.909,8.608l2.165-1.25l-2.14,1.295
						c0.58,1.006,0.234,2.297-0.771,2.877l-3.696,2.134c-0.574,0.331-0.993,0.878-1.165,1.518c-0.171,0.641-0.082,1.323,0.25,1.897
						l6.987,12.103c0.69,1.196,2.222,1.605,3.415,0.915l3.942-2.275c0.421-0.243,0.91-0.309,1.382-0.183
						c0.471,0.126,0.864,0.428,1.107,0.85c2.015,3.49,5.713,5.586,9.52,5.586c0.796,0,1.597-0.091,2.387-0.28
						c3.202-0.768,5.813-2.948,7.162-5.983c1.358-3.055,1.237-6.589-0.349-9.501C246.553,165.124,246.583,164.27,247.052,163.711z
						 M242.608,168.327c0.821,1.507,0.875,3.388,0.146,5.03c-0.419,0.941-1.464,2.603-3.759,3.151
						c-2.432,0.59-5.074-0.625-6.411-2.943c-1.264-2.186-3.562-3.409-5.921-3.409c-1.156,0-2.328,0.294-3.399,0.913l-1.776,1.025
						L217,164.322l1.531-0.884c3.393-1.959,4.56-6.313,2.612-9.688l-0.025-0.045c-0.004-0.007-0.008-0.013-0.012-0.02
						c-0.799-1.383-0.975-3.048-0.482-4.568c0.499-1.541,1.599-2.759,3.095-3.43c2.195-0.983,4.935-0.383,6.515,1.425
						c0.236,0.271,0.445,0.558,0.622,0.854c1.499,2.512,4.267,3.828,7.047,3.333c2.338-0.405,4.692,0.694,5.875,2.743
						c1.183,2.048,0.957,4.644-0.561,6.457C241.414,162.654,241.17,165.716,242.608,168.327z"/>
				</g>
			</g>
		</g>
	</g>
</g>
<g id="Layer_71">
</g>
<g id="Layer_72">
</g>
<g id="Layer_73">
</g>
<g id="Layer_74">
</g>
<g id="Layer_75">
</g>
<g id="Layer_76">
</g>
<g id="Layer_77">
</g>
<g id="Layer_78">
</g>
<g id="Layer_79">
</g>
<g id="Layer_80">
</g>
</svg>
