<?xml version="1.0" encoding="utf-8"?>
<!-- Generator: Adobe Illustrator 24.0.0, SVG Export Plug-In . SVG Version: 6.00 Build 0)  -->
<svg version="1.1" xmlns="http://www.w3.org/2000/svg" xmlns:xlink="http://www.w3.org/1999/xlink" x="0px" y="0px"
	 viewBox="0 0 256 256" style="enable-background:new 0 0 256 256;" xml:space="preserve">
<style type="text/css">
	.st0{fill:#6CADEF;}
	.st1{fill:#F9D0B4;}
	.st2{fill:#5B5D60;}
	.st3{fill:#9BE5F9;}
	.st4{fill:#FC657E;}
	.st5{fill:#70D6F9;}
	.st6{fill:#F5C84C;}
	.st7{fill:#F98FA6;}
	.st8{fill:#FED690;}
	.st9{fill:#87D147;}
	.st10{fill:#B2E26D;}
	.st11{fill:#EDF4FC;}
	.st12{fill:#FCDD86;}
	.st13{fill:#754E34;}
	.st14{fill:#B598F9;}
	.st15{fill:#5290DB;}
	.st16{fill:#C7D7E5;}
	.st17{fill:#C18E6B;}
	.st18{fill:#DAE6F1;}
	.st19{fill:#3CAADC;}
	.st20{fill:#818182;}
	.st21{fill:#CBEFF7;}
	.st22{fill:#FCA265;}
	.st23{fill:#A57453;}
	.st24{fill:#8652D8;}
	.st25{fill:#966AEA;}
	.st26{fill:#FEB872;}
	.st27{fill:#EDB311;}
	.st28{fill:#EF4460;}
</style>
<g id="Layer_1">
</g>
<g id="Layer_2">
</g>
<g id="Layer_3">
</g>
<g id="Layer_4">
</g>
<g id="Layer_5">
</g>
<g id="Layer_6">
</g>
<g id="Layer_7">
</g>
<g id="Layer_8">
</g>
<g id="Layer_9">
</g>
<g id="Layer_10">
</g>
<g id="Layer_11">
</g>
<g id="Layer_12">
</g>
<g id="Layer_13">
</g>
<g id="Layer_14">
</g>
<g id="Layer_15">
</g>
<g id="Layer_16">
</g>
<g id="Layer_17">
</g>
<g id="Layer_18">
</g>
<g id="Layer_19">
</g>
<g id="Layer_20">
</g>
<g id="Layer_21">
</g>
<g id="Layer_22">
</g>
<g id="Layer_23">
</g>
<g id="Layer_24">
</g>
<g id="Layer_25">
</g>
<g id="Layer_26">
</g>
<g id="Layer_27">
</g>
<g id="Layer_28">
</g>
<g id="Layer_29">
</g>
<g id="Layer_30">
</g>
<g id="Layer_31">
</g>
<g id="Layer_32">
</g>
<g id="Layer_33">
</g>
<g id="Layer_34">
</g>
<g id="Layer_35">
</g>
<g id="Layer_36">
</g>
<g id="Layer_37">
</g>
<g id="Layer_38">
</g>
<g id="Layer_39">
</g>
<g id="Layer_40">
</g>
<g id="Layer_41">
</g>
<g id="Layer_42">
</g>
<g id="Layer_43">
</g>
<g id="Layer_44">
</g>
<g id="Layer_45">
</g>
<g id="Layer_46">
</g>
<g id="Layer_47">
</g>
<g id="Layer_48">
</g>
<g id="Layer_49">
</g>
<g id="Layer_50">
</g>
<g id="Layer_51">
</g>
<g id="Layer_52">
</g>
<g id="Layer_53">
</g>
<g id="Layer_54">
</g>
<g id="Layer_55">
</g>
<g id="Layer_56">
</g>
<g id="Layer_57">
</g>
<g id="Layer_58">
</g>
<g id="Layer_59">
</g>
<g id="Layer_60">
</g>
<g id="Layer_61">
</g>
<g id="Layer_62">
</g>
<g id="Layer_63">
</g>
<g id="Layer_64">
</g>
<g id="Layer_65">
</g>
<g id="Layer_66">
</g>
<g id="Layer_67">
</g>
<g id="Layer_68">
</g>
<g id="Layer_69">
</g>
<g id="Layer_70">
</g>
<g id="Layer_71">
	<g>
		<g>
			<g>
				
					<ellipse transform="matrix(0.7071 -0.7071 0.7071 0.7071 -108.3583 95.1195)" class="st12" cx="60.64" cy="178.36" rx="58.14" ry="58.14"/>
			</g>
		</g>
		<g>
			<g>
				<circle class="st3" cx="128" cy="60.64" r="58.14"/>
			</g>
		</g>
		<g>
			<g>
				<circle class="st14" cx="195.36" cy="178.36" r="58.14"/>
			</g>
		</g>
		<g>
			<g>
				<path class="st4" d="M157.708,40.167c-7.531-6.616-19.07-5.776-26.158,1.313l-2.128,2.128c-0.785,0.785-2.057,0.785-2.842,0
					l-2.128-2.128c-7.088-7.088-18.627-7.929-26.158-1.313c-8.253,7.249-8.558,19.831-0.915,27.474l26.124,26.125
					c2.484,2.484,6.512,2.484,8.996,0l26.124-26.125C166.265,59.998,165.96,47.416,157.708,40.167z"/>
			</g>
		</g>
		<g>
			<g>
				<path class="st4" d="M70.894,162.351c-1.732,0-3.377,0.367-4.864,1.027c-3.826,1.699-8.293,1.699-12.119,0
					c-1.486-0.66-3.131-1.027-4.864-1.027c-12.597,0-22.088,12.716-16.821,25.276l9.335,22.264c1.214,4.334,5.128,7.519,9.629,7.442
					c1.871-0.032,3.616-0.576,5.103-1.497c2.235-1.384,5.12-1.384,7.355,0c1.487,0.921,3.232,1.464,5.103,1.497
					c4.501,0.077,8.415-3.108,9.629-7.442l9.335-22.264C92.981,175.07,83.495,162.351,70.894,162.351z"/>
			</g>
		</g>
		<g>
			<g>
				<path class="st10" d="M75.606,139.187c-3.645-1.507-7.947-1.23-11.468,1.132s-5.409,6.237-5.397,10.182
					c0.003,1.026,0.635,1.969,1.584,2.361c3.645,1.507,7.947,1.23,11.468-1.132s5.409-6.237,5.397-10.182
					C77.186,140.521,76.554,139.579,75.606,139.187z"/>
			</g>
		</g>
		<g>
			<g>
				<path class="st20" d="M170.849,154.571c-3.229,0-5.847,2.618-5.847,5.847v35.885c0,3.229,2.618,5.847,5.847,5.847
					s5.847-2.618,5.847-5.847v-35.885C176.696,157.188,174.078,154.571,170.849,154.571z"/>
			</g>
		</g>
		<g>
			<g>
				<path class="st20" d="M159.155,159.293L159.155,159.293c-3.229,0-5.847,2.618-5.847,5.847v26.44
					c0,3.229,2.618,5.847,5.847,5.847h0c3.229,0,5.847-2.618,5.847-5.847v-26.44C165.002,161.911,162.385,159.293,159.155,159.293z"
					/>
			</g>
		</g>
		<g>
			<g>
				<path class="st20" d="M219.871,154.571c-3.229,0-5.847,2.618-5.847,5.847v35.885c0,3.229,2.618,5.847,5.847,5.847
					s5.847-2.618,5.847-5.847v-35.885C225.717,157.188,223.1,154.571,219.871,154.571z"/>
			</g>
		</g>
		<g>
			<g>
				<path class="st20" d="M231.564,159.293c-3.229,0-5.847,2.618-5.847,5.847v26.44c0,3.229,2.618,5.847,5.847,5.847
					s5.847-2.618,5.847-5.847v-26.44C237.411,161.911,234.793,159.293,231.564,159.293z"/>
			</g>
		</g>
		<g>
			<g>
				<rect x="176.696" y="172.513" class="st11" width="37.328" height="11.693"/>
			</g>
		</g>
		<g>
			<g>
				<path class="st4" d="M215.013,80.2c-3.1-0.6-5.6-3-6.2-6.1c0-0.1-0.3-0.1-0.3,0c-0.6,3.1-3.1,5.5-6.2,6.1c-0.1,0-0.1,0.2,0,0.3
					c3.1,0.6,5.6,3,6.2,6.1c0,0.1,0.3,0.1,0.3,0c0.6-3.1,3.1-5.5,6.2-6.1C215.113,80.4,215.113,80.2,215.013,80.2z"/>
			</g>
		</g>
		<g>
			<g>
				<path class="st5" d="M57.113,18.1h-2.4v-2.3c0-1.8-1.4-3.2-3.2-3.2c-1.7,0-3.2,1.4-3.2,3.1v2.4h-2.3c-1.8,0-3.2,1.4-3.2,3.2
					c-0.1,1.7,1.3,3.2,3.2,3.2h2.3v2.3c0,1.8,1.4,3.2,3.2,3.2c1.7,0,3.2-1.4,3.2-3.1v-2.4h2.3c1.8,0,3.2-1.4,3.2-3.2
					C60.213,19.6,58.813,18.1,57.113,18.1z"/>
			</g>
		</g>
		<g>
			<g>
				<circle class="st9" cx="164.413" cy="252.6" r="3.4"/>
			</g>
		</g>
		<g>
			<g>
				<path class="st6" d="M80.413,0c-1.878,0-3.4,1.522-3.4,3.4c0,1.878,1.522,3.4,3.4,3.4s3.4-1.522,3.4-3.4
					C83.813,1.522,82.291,0,80.413,0z"/>
			</g>
		</g>
		<g>
			<g>
				<path class="st6" d="M146.013,235.2c-4.5-0.8-8-4.3-8.9-8.7c0-0.2-0.4-0.2-0.4,0c-0.9,4.4-4.4,7.9-8.9,8.7c-0.2,0-0.2,0.3,0,0.4
					c4.5,0.8,8,4.3,8.9,8.7c0,0.2,0.4,0.2,0.4,0c0.9-4.4,4.4-7.9,8.9-8.7C146.213,235.5,146.213,235.2,146.013,235.2z"/>
			</g>
		</g>
		<g>
			<g>
				<g>
					<path d="M60.64,117.72C27.203,117.72,0,144.923,0,178.359C0,211.797,27.203,239,60.64,239
						c33.438,0,60.641-27.203,60.641-60.641C121.281,144.923,94.078,117.72,60.64,117.72z M60.64,234C29.96,234,5,209.04,5,178.359
						c0-30.68,24.96-55.64,55.64-55.64s55.641,24.96,55.641,55.64C116.281,209.04,91.32,234,60.64,234z"/>
				</g>
			</g>
		</g>
		<g>
			<g>
				<g>
					<path d="M128,0C94.563,0,67.36,27.203,67.36,60.641c0,33.437,27.203,60.64,60.64,60.64s60.64-27.203,60.64-60.64
						C188.64,27.203,161.437,0,128,0z M128,116.28c-30.68,0-55.64-24.96-55.64-55.64C72.36,29.96,97.32,5,128,5
						s55.64,24.96,55.64,55.641C183.64,91.32,158.68,116.28,128,116.28z"/>
				</g>
			</g>
		</g>
		<g>
			<g>
				<path d="M167.5,63.496h-33c-0.878,0-1.692,0.461-2.144,1.214l-3.382,5.637l-7.146-18.262c-0.346-0.883-1.161-1.494-2.105-1.579
					c-0.944-0.09-1.855,0.372-2.352,1.18l-7.268,11.811H88.5c-1.381,0-2.5,1.119-2.5,2.5s1.119,2.5,2.5,2.5h23
					c0.868,0,1.674-0.45,2.129-1.189L119,58.579l7.172,18.328c0.347,0.888,1.169,1.5,2.119,1.58c0.07,0.006,0.14,0.009,0.209,0.009
					c0.873,0,1.689-0.457,2.143-1.214l5.272-8.786H167.5c1.381,0,2.5-1.119,2.5-2.5S168.881,63.496,167.5,63.496z"/>
			</g>
		</g>
		<g>
			<g>
				<path d="M51.959,144.884c-1.169-0.73-2.704-0.376-3.437,0.79c-0.734,1.166-0.383,2.708,0.78,3.445
					c0.08,0.051,7.971,5.157,7.971,13.878c0,1.381,1.119,2.5,2.5,2.5s2.5-1.119,2.5-2.5
					C62.273,151.463,52.38,145.147,51.959,144.884z"/>
			</g>
		</g>
		<g>
			<g>
				<g>
					<path d="M195.36,117.72c-33.438,0-60.641,27.203-60.641,60.64c0,33.438,27.203,60.641,60.641,60.641
						c33.437,0,60.64-27.203,60.64-60.641C256,144.923,228.797,117.72,195.36,117.72z M195.36,234
						c-30.68,0-55.641-24.96-55.641-55.641c0-30.68,24.96-55.64,55.641-55.64S251,147.68,251,178.359
						C251,209.04,226.04,234,195.36,234z"/>
				</g>
			</g>
		</g>
		<g>
			<g>
				<g>
					<path d="M166.624,53.64c-0.193-5.953-2.773-11.404-7.266-15.351c-8.404-7.383-21.395-6.758-29.576,1.423L128,41.493
						l-1.781-1.781c-8.181-8.181-21.172-8.808-29.576-1.423c-4.493,3.946-7.073,9.397-7.266,15.351
						c-0.189,5.87,2.083,11.618,6.234,15.769l26.124,26.124c1.728,1.728,3.997,2.592,6.266,2.592s4.538-0.864,6.266-2.592
						l26.124-26.124C164.541,65.258,166.813,59.51,166.624,53.64z M156.854,65.873L130.73,91.997c-1.459,1.459-4.002,1.459-5.461,0
						L99.146,65.873c-3.224-3.225-4.919-7.512-4.771-12.072c0.147-4.556,2.125-8.73,5.568-11.756
						c2.983-2.62,6.731-3.911,10.525-3.911c4.383,0,8.827,1.725,12.216,5.113l2.127,2.128c0.852,0.852,1.984,1.321,3.189,1.321
						s2.337-0.47,3.188-1.321l2.128-2.128c6.322-6.323,16.311-6.851,22.741-1.202c3.443,3.025,5.421,7.2,5.568,11.756
						C161.773,58.361,160.079,62.648,156.854,65.873z"/>
				</g>
			</g>
		</g>
		<g>
			<g>
				<g>
					<path d="M88.279,169.181c-3.885-5.842-10.384-9.329-17.385-9.329c-2.045,0-4.023,0.418-5.878,1.241
						c-3.159,1.404-6.931,1.404-10.089,0c-1.855-0.823-3.833-1.241-5.878-1.241c-7.001,0-13.5,3.487-17.385,9.329
						c-3.852,5.791-4.487,12.867-1.742,19.413l9.278,22.128c1.604,5.467,6.53,9.175,12.034,9.111
						c2.258-0.039,4.462-0.687,6.376-1.871c1.435-0.889,3.289-0.888,4.723-0.001c1.912,1.185,4.116,1.832,6.376,1.872
						c0.068,0.001,0.136,0.001,0.204,0.001c5.422,0,10.247-3.713,11.83-9.112l9.279-22.128
						C92.766,182.048,92.131,174.972,88.279,169.181z M85.41,186.66l-9.335,22.264c-0.04,0.096-0.074,0.193-0.102,0.293
						c-0.942,3.363-3.907,5.665-7.177,5.616c-1.359-0.023-2.684-0.412-3.831-1.123c-1.517-0.938-3.254-1.408-4.993-1.408
						c-1.738,0-3.477,0.47-4.994,1.409c-1.148,0.711-2.473,1.099-3.83,1.122c-3.274,0.104-6.237-2.252-7.179-5.616
						c-0.028-0.1-0.062-0.197-0.102-0.293l-9.335-22.264c-2.086-4.976-1.615-10.337,1.294-14.711
						c2.956-4.444,7.898-7.098,13.222-7.098c1.342,0,2.637,0.272,3.849,0.812c4.495,1.996,9.653,1.996,14.148,0
						c1.212-0.539,2.507-0.812,3.849-0.812c5.324,0,10.266,2.653,13.222,7.098C87.025,176.323,87.497,181.685,85.41,186.66z"/>
				</g>
			</g>
		</g>
		<g>
			<g>
				<g>
					<path d="M76.561,136.877c-4.563-1.887-9.728-1.377-13.816,1.366c-4.088,2.742-6.52,7.327-6.505,12.267
						c0.007,2.05,1.235,3.881,3.128,4.662c1.821,0.753,3.737,1.124,5.644,1.124c2.87,0,5.716-0.842,8.173-2.49
						c4.087-2.742,6.519-7.327,6.504-12.266c0,0,0,0,0-0.001C79.683,139.489,78.454,137.658,76.561,136.877z M70.4,149.653
						c-2.696,1.809-6.105,2.146-9.16,0.84c-0.01-3.262,1.594-6.289,4.291-8.098c1.619-1.086,3.495-1.642,5.388-1.642
						c1.26,0,2.528,0.246,3.733,0.744c0.014,0.006,0.038,0.039,0.038,0.059C74.699,144.818,73.095,147.845,70.4,149.653z"/>
				</g>
			</g>
		</g>
		<g>
			<g>
				<g>
					<path d="M170.849,152.07c-4.603,0-8.347,3.744-8.347,8.347v35.885c0,4.603,3.745,8.347,8.347,8.347s8.347-3.744,8.347-8.347
						v-35.885C179.196,155.814,175.452,152.07,170.849,152.07z M174.196,196.302c0,1.846-1.501,3.347-3.347,3.347
						c-1.846,0-3.347-1.501-3.347-3.347v-35.885c0-1.846,1.501-3.347,3.347-3.347c1.845,0,3.347,1.501,3.347,3.347V196.302z"/>
				</g>
			</g>
		</g>
		<g>
			<g>
				<g>
					<path d="M159.155,156.793c-4.603,0-8.347,3.744-8.347,8.347v26.44c0,4.603,3.744,8.347,8.347,8.347s8.347-3.744,8.347-8.347
						v-26.44C167.502,160.537,163.758,156.793,159.155,156.793z M162.502,191.58c0,1.846-1.501,3.347-3.347,3.347
						s-3.347-1.501-3.347-3.347v-26.44c0-1.846,1.501-3.347,3.347-3.347s3.347,1.501,3.347,3.347V191.58z"/>
				</g>
			</g>
		</g>
		<g>
			<g>
				<g>
					<path d="M219.871,152.07c-4.603,0-8.347,3.744-8.347,8.347v35.885c0,4.603,3.744,8.347,8.347,8.347s8.347-3.744,8.347-8.347
						v-35.885C228.217,155.814,224.473,152.07,219.871,152.07z M223.217,196.302c0,1.846-1.501,3.347-3.347,3.347
						s-3.347-1.501-3.347-3.347v-35.885c0-1.846,1.501-3.347,3.347-3.347s3.347,1.501,3.347,3.347V196.302z"/>
				</g>
			</g>
		</g>
		<g>
			<g>
				<g>
					<path d="M231.564,156.793c-4.603,0-8.347,3.744-8.347,8.347v26.44c0,4.603,3.744,8.347,8.347,8.347s8.347-3.744,8.347-8.347
						v-26.44C239.911,160.537,236.167,156.793,231.564,156.793z M234.911,191.58c0,1.846-1.501,3.347-3.347,3.347
						s-3.347-1.501-3.347-3.347v-26.44c0-1.846,1.501-3.347,3.347-3.347s3.347,1.501,3.347,3.347V191.58z"/>
				</g>
			</g>
		</g>
		<g>
			<g>
				<g>
					<path d="M214.024,170.013h-37.328c-1.381,0-2.5,1.119-2.5,2.5v11.693c0,1.381,1.119,2.5,2.5,2.5h37.328
						c1.381,0,2.5-1.119,2.5-2.5v-11.693C216.524,171.132,215.405,170.013,214.024,170.013z M211.524,181.706h-32.328v-6.693h32.328
						V181.706z"/>
				</g>
			</g>
		</g>
	</g>
</g>
<g id="Layer_72">
</g>
<g id="Layer_73">
</g>
<g id="Layer_74">
</g>
<g id="Layer_75">
</g>
<g id="Layer_76">
</g>
<g id="Layer_77">
</g>
<g id="Layer_78">
</g>
<g id="Layer_79">
</g>
<g id="Layer_80">
</g>
</svg>
