<?xml version="1.0" encoding="utf-8"?>
<!-- Generator: Adobe Illustrator 24.0.0, SVG Export Plug-In . SVG Version: 6.00 Build 0)  -->
<svg version="1.1" xmlns="http://www.w3.org/2000/svg" xmlns:xlink="http://www.w3.org/1999/xlink" x="0px" y="0px"
	 viewBox="0 0 256 256" style="enable-background:new 0 0 256 256;" xml:space="preserve">
<style type="text/css">
	.st0{fill:#6CADEF;}
	.st1{fill:#F9D0B4;}
	.st2{fill:#5B5D60;}
	.st3{fill:#9BE5F9;}
	.st4{fill:#FC657E;}
	.st5{fill:#70D6F9;}
	.st6{fill:#F5C84C;}
	.st7{fill:#F98FA6;}
	.st8{fill:#FED690;}
	.st9{fill:#87D147;}
	.st10{fill:#B2E26D;}
	.st11{fill:#EDF4FC;}
	.st12{fill:#FCDD86;}
	.st13{fill:#754E34;}
	.st14{fill:#B598F9;}
	.st15{fill:#5290DB;}
	.st16{fill:#C7D7E5;}
	.st17{fill:#C18E6B;}
	.st18{fill:#DAE6F1;}
	.st19{fill:#3CAADC;}
	.st20{fill:#818182;}
	.st21{fill:#CBEFF7;}
	.st22{fill:#FCA265;}
	.st23{fill:#A57453;}
	.st24{fill:#8652D8;}
	.st25{fill:#966AEA;}
	.st26{fill:#FEB872;}
	.st27{fill:#EDB311;}
	.st28{fill:#EF4460;}
</style>
<g id="Layer_1">
</g>
<g id="Layer_2">
</g>
<g id="Layer_3">
</g>
<g id="Layer_4">
</g>
<g id="Layer_5">
</g>
<g id="Layer_6">
</g>
<g id="Layer_7">
</g>
<g id="Layer_8">
</g>
<g id="Layer_9">
</g>
<g id="Layer_10">
	<g>
		<g>
			<g>
				<path class="st1" d="M179.921,177.689c-0.36-6.464-4.881-11.943-11.159-13.523l-20.296-5.108
					c-10.758-2.708-19.217-7.347-19.107-7.293c-4.423-2.181-7.223-6.684-7.223-11.615v-6.101c-5.177,2.71-11.051,4.254-17.27,4.254
					c-6.219,0-12.093-1.544-17.27-4.254v6.101c0,4.931-2.8,9.434-7.223,11.615c-5.976,2.947-11.192,5.301-19.107,7.293
					l-20.295,5.108c-6.278,1.58-10.799,7.059-11.159,13.523l-4.145,71.47c-0.131,2.357,1.745,4.341,4.106,4.341h150.187
					c2.361,0,4.237-1.984,4.106-4.341L179.921,177.689z"/>
			</g>
		</g>
		<g>
			<g>
				<path class="st1" d="M136.997,55.979c-2.451-2.571-6.437-2.807-9.231-0.614c-4.418,3.468-12.062,7.754-22.859,7.754
					c-10.823,0-18.508-4.307-22.945-7.779c-2.792-2.185-6.769-1.94-9.216,0.626l-0.013,0.013c-3.438,3.605-5.355,8.395-5.355,13.376
					v31.461c0,20.618,16.869,37.487,37.487,37.487c20.618,0,37.487-16.869,37.487-37.487V69.355
					C142.353,64.374,140.435,59.584,136.997,55.979z"/>
			</g>
		</g>
		<g>
			<g>
				<path class="st1" d="M144.758,72.246c-0.819,0-1.621,0.069-2.406,0.191v28.379c0,0.845-0.039,1.682-0.094,2.514
					c0.816,0.131,1.647,0.218,2.5,0.218c8.644,0,15.651-7.007,15.651-15.651C160.409,79.253,153.402,72.246,144.758,72.246z"/>
			</g>
		</g>
		<g>
			<g>
				<path class="st1" d="M67.379,100.816V72.437c-0.785-0.122-1.587-0.191-2.406-0.191c-8.644,0-15.651,7.007-15.651,15.651
					c0,8.644,7.007,15.651,15.651,15.651c0.853,0,1.684-0.087,2.5-0.218v-0.001C67.417,102.497,67.379,101.661,67.379,100.816z"/>
			</g>
		</g>
		<g>
			<g>
				<path class="st2" d="M142.213,40.269c-1.255,0-2.344-0.968-2.361-2.224c-0.287-20.889-24.141-24.813-47.896-20.71
					c-20.14,3.478-34.861,20.943-34.861,41.381v15.672c2.316-1.354,5.002-2.143,7.878-2.143c0.819,0,1.621,0.069,2.406,0.191v-3.082
					c0-4.981,1.918-9.771,5.355-13.376l0.013-0.013c2.446-2.566,6.424-2.811,9.216-0.626c4.437,3.472,12.121,7.779,22.945,7.779
					c10.797,0,18.441-4.286,22.859-7.754c2.794-2.193,6.78-1.957,9.231,0.614c3.438,3.605,5.355,8.395,5.355,13.376v3.082
					c0.785-0.122,1.587-0.191,2.406-0.191c2.911,0,5.626,0.809,7.961,2.193V61.571C152.719,42.867,145.965,40.269,142.213,40.269z"
					/>
			</g>
		</g>
		<g>
			<g>
				<path class="st3" d="M120.878,103.587c-4.106,0-8.08-1.231-11.446-3.476c-1.361-0.908-2.93-1.455-4.566-1.455
					c-1.636,0-3.205,0.547-4.566,1.455c-3.366,2.246-7.34,3.476-11.446,3.476H77.25v22.508c6.866,7.491,16.716,12.208,27.615,12.208
					s20.75-4.717,27.615-12.208v-22.508H120.878z"/>
			</g>
		</g>
		<g>
			<g>
				<path class="st3" d="M130.885,176.486c-9.389-2.443-17.668-5.702-24.353-9.588c-1.036-0.603-2.294-0.603-3.331,0
					c-6.686,3.886-14.964,7.145-24.353,9.588c-1.443,0.376-2.464,1.662-2.464,3.153v19.096c0,18.382,11.263,34.127,27.262,40.728
					c0.778,0.321,1.663,0.321,2.441,0c15.999-6.601,27.262-22.346,27.262-40.728V179.64
					C133.348,178.148,132.328,176.862,130.885,176.486z"/>
			</g>
		</g>
		<g>
			<g>
				<path class="st3" d="M236.923,131.019l-17.803-17.803c-0.704-0.704-1.846-0.704-2.551,0l-3.675,3.675
					c-0.704,0.704-0.704,1.846,0,2.551l17.803,17.803c0.704,0.704,1.846,0.704,2.551,0l3.675-3.675
					C237.627,132.865,237.627,131.723,236.923,131.019z"/>
			</g>
		</g>
		<g>
			<g>
				<path class="st6" d="M214.546,121.094l-25.865,25.866c-2.467,2.467-2.467,6.466,0,8.933l5.566,5.566
					c2.467,2.467,6.466,2.467,8.933,0l25.865-25.866L214.546,121.094z"/>
			</g>
		</g>
		<g>
			<g>
				<path class="st5" d="M241.125,109.013c-1.987,1.987-4.995,2.32-7.331,1.011l-8.932,8.933l6.32,6.32l8.933-8.933
					C238.805,114.009,239.138,111,241.125,109.013z"/>
			</g>
		</g>
		<g>
			<g>
				<path class="st11" d="M115.918,196.684h-6.053v-6.237c0-2.761-2.238-5-5-5s-5,2.239-5,5v6.237h-6.053c-2.762,0-5,2.239-5,5
					s2.238,5,5,5h6.053v5.869c0,2.761,2.238,5,5,5s5-2.239,5-5v-5.869h6.053c2.762,0,5-2.239,5-5S118.68,196.684,115.918,196.684z"
					/>
			</g>
		</g>
		<g>
			<g>
				<path class="st4" d="M208.109,185.2c-3.1-0.6-5.6-3-6.2-6.1c0-0.1-0.3-0.1-0.3,0c-0.6,3.1-3.1,5.5-6.2,6.1c-0.1,0-0.1,0.2,0,0.3
					c3.1,0.6,5.6,3,6.2,6.1c0,0.1,0.3,0.1,0.3,0c0.6-3.1,3.1-5.5,6.2-6.1C208.209,185.4,208.209,185.2,208.109,185.2z"/>
			</g>
		</g>
		<g>
			<g>
				<path class="st5" d="M16.209,168.1h-2.4v-2.3c0-1.8-1.4-3.2-3.2-3.2c-1.7,0-3.2,1.4-3.2,3.1v2.4h-2.3c-1.8,0-3.2,1.4-3.2,3.2
					c-0.1,1.7,1.3,3.2,3.2,3.2h2.3v2.3c0,1.8,1.4,3.2,3.2,3.2c1.7,0,3.2-1.4,3.2-3.1v-2.4h2.3c1.8,0,3.2-1.4,3.2-3.2
					C19.309,169.6,17.909,168.1,16.209,168.1z"/>
			</g>
		</g>
		<g>
			<g>
				<path class="st6" d="M32.509,142.5c-1.878,0-3.4,1.522-3.4,3.4c0,1.878,1.522,3.4,3.4,3.4c1.878,0,3.4-1.522,3.4-3.4
					C35.909,144.022,34.387,142.5,32.509,142.5z"/>
			</g>
		</g>
		<g>
			<g>
				<path class="st9" d="M140.509,0c-1.878,0-3.4,1.522-3.4,3.4c0,1.878,1.522,3.4,3.4,3.4c1.878,0,3.4-1.522,3.4-3.4
					C143.909,1.522,142.387,0,140.509,0z"/>
			</g>
		</g>
		<g>
			<g>
				<path class="st6" d="M176.109,23.2c-4.5-0.8-8-4.3-8.9-8.7c0-0.2-0.4-0.2-0.4,0c-0.9,4.4-4.4,7.9-8.9,8.7c-0.2,0-0.2,0.3,0,0.4
					c4.5,0.8,8,4.3,8.9,8.7c0,0.2,0.4,0.2,0.4,0c0.9-4.4,4.4-7.9,8.9-8.7C176.309,23.5,176.309,23.2,176.109,23.2z"/>
			</g>
		</g>
		<g>
			<g>
				<g>
					<path d="M186.562,249.014l-4.145-71.468c-0.426-7.596-5.667-13.947-13.045-15.804l-20.296-5.108
						c-10.107-2.544-18.09-6.829-18.475-7.038c-0.045-0.025-0.09-0.049-0.137-0.072c-3.596-1.773-5.829-5.365-5.829-9.373v-6.101
						c0-0.875-0.457-1.686-1.205-2.139c-0.75-0.453-1.681-0.482-2.454-0.076c-5.03,2.633-10.451,3.968-16.111,3.968
						c-5.659,0-11.079-1.335-16.11-3.968c-0.773-0.405-1.705-0.376-2.454,0.076c-0.748,0.453-1.205,1.264-1.205,2.139v6.101
						c0,4.008-2.233,7.6-5.829,9.373c-5.5,2.712-10.696,5.119-18.611,7.11l-20.296,5.108c-7.379,1.858-12.621,8.211-13.045,15.803
						L23.17,249.02c-0.101,1.807,0.556,3.597,1.799,4.912S27.963,256,29.772,256h150.187c1.81,0,3.562-0.754,4.805-2.069
						C186.008,252.616,186.662,250.826,186.562,249.014z M181.131,250.495c-0.308,0.326-0.724,0.505-1.172,0.505H29.772
						c-0.447,0-0.863-0.179-1.171-0.504c-0.309-0.325-0.464-0.751-0.439-1.192l4.145-71.475c0.301-5.401,4.028-9.917,9.273-11.238
						l20.296-5.108c8.391-2.111,13.841-4.634,19.602-7.475c5.316-2.622,8.618-7.931,8.618-13.857v-2.202
						c9.381,3.751,20.161,3.751,29.54,0v2.202c0,5.926,3.302,11.236,8.618,13.857l0.005-0.01c0.944,0.589,2.619,1.391,5.655,2.703
						c3.222,1.392,8.256,3.351,13.941,4.782l20.296,5.108c5.246,1.321,8.973,5.837,9.273,11.238c0,0.002,0,0.004,0,0.005
						l4.145,71.465C181.595,249.745,181.438,250.17,181.131,250.495z"/>
				</g>
			</g>
		</g>
		<g>
			<g>
				<g>
					<path d="M138.807,54.254c-3.337-3.5-8.747-3.867-12.584-0.855c-4.196,3.293-11.301,7.22-21.315,7.22
						c-10.036,0-17.179-3.941-21.403-7.248c-3.835-2.999-9.235-2.625-12.579,0.883c-3.898,4.089-6.046,9.452-6.046,15.101v31.461
						c0,22.049,17.938,39.987,39.987,39.987s39.986-17.938,39.986-39.987V69.355C144.853,63.706,142.705,58.343,138.807,54.254z
						 M139.853,100.816c0,19.292-15.694,34.987-34.986,34.987s-34.987-15.695-34.987-34.987V69.355
						c0-4.358,1.656-8.496,4.678-11.664c0.844-0.885,1.977-1.336,3.123-1.336c0.958,0,1.925,0.315,2.742,0.954
						c4.845,3.791,13.024,8.311,24.485,8.311c11.443,0,19.586-4.507,24.403-8.288c1.8-1.413,4.326-1.252,5.877,0.373
						c3.009,3.155,4.665,7.292,4.665,11.651V100.816z"/>
				</g>
			</g>
		</g>
		<g>
			<g>
				<path d="M155.915,187.809c-1.381,0-2.5,1.119-2.5,2.5v62.275c0,1.381,1.119,2.5,2.5,2.5s2.5-1.119,2.5-2.5v-62.275
					C158.415,188.928,157.296,187.809,155.915,187.809z"/>
			</g>
		</g>
		<g>
			<g>
				<path d="M53.816,187.809c-1.381,0-2.5,1.119-2.5,2.5v62.275c0,1.381,1.119,2.5,2.5,2.5s2.5-1.119,2.5-2.5v-62.275
					C56.316,188.928,55.197,187.809,53.816,187.809z"/>
			</g>
		</g>
		<g>
			<g>
				<g>
					<path d="M144.758,69.746c-0.909,0-1.848,0.074-2.789,0.221c-1.218,0.189-2.116,1.238-2.116,2.47v28.379
						c0,0.708-0.028,1.453-0.089,2.344c-0.088,1.289,0.821,2.433,2.097,2.638c1.046,0.168,1.993,0.25,2.897,0.25
						c10.009,0,18.151-8.143,18.151-18.151C162.909,77.889,154.767,69.746,144.758,69.746z M144.852,101.048
						c0.001-0.078,0.001-0.155,0.001-0.232V74.747c7.209,0.051,13.057,5.93,13.057,13.15S152.061,100.997,144.852,101.048z"/>
				</g>
			</g>
		</g>
		<g>
			<g>
				<g>
					<path d="M69.879,100.816V72.437c0-1.232-0.897-2.281-2.115-2.47c-0.94-0.146-1.88-0.221-2.79-0.221
						c-10.009,0-18.151,8.143-18.151,18.151c0,10.009,8.143,18.151,18.151,18.151c0.907,0,1.856-0.082,2.9-0.251
						c1.272-0.207,2.181-1.348,2.094-2.635C69.907,102.253,69.879,101.508,69.879,100.816z M51.822,87.897
						c0-7.22,5.848-13.1,13.057-13.15v26.069c0,0.077,0,0.154,0.001,0.232C57.671,100.997,51.822,95.117,51.822,87.897z"/>
				</g>
			</g>
		</g>
		<g>
			<g>
				<path d="M122.323,84.591c-2.782,0-5.036,2.255-5.036,5.036s2.255,5.036,5.036,5.036s5.037-2.255,5.037-5.036
					S125.105,84.591,122.323,84.591z"/>
			</g>
		</g>
		<g>
			<g>
				<path d="M88.499,84.591c-2.782,0-5.037,2.255-5.037,5.036s2.255,5.036,5.037,5.036c2.781,0,5.036-2.255,5.036-5.036
					S91.28,84.591,88.499,84.591z"/>
			</g>
		</g>
		<g>
			<g>
				<g>
					<path d="M142.347,37.771c-0.153-7.056-2.769-12.74-7.777-16.899c-8.509-7.066-24.193-9.254-43.04-6
						c-21.401,3.695-36.935,22.135-36.935,43.845v15.672c0,0.896,0.479,1.723,1.256,2.168c0.776,0.445,1.731,0.442,2.506-0.01
						c2.016-1.178,4.305-1.801,6.617-1.801c0.654,0,1.334,0.054,2.021,0.161c0.72,0.113,1.456-0.096,2.011-0.571
						s0.874-1.169,0.874-1.899v-3.082c0-4.358,1.656-8.496,4.678-11.664c1.549-1.625,4.069-1.787,5.865-0.382
						c4.845,3.791,13.024,8.311,24.485,8.311c11.443,0,19.586-4.507,24.403-8.288c1.8-1.413,4.326-1.252,5.877,0.373
						c3.009,3.155,4.665,7.292,4.665,11.651v3.082c0,0.73,0.319,1.424,0.874,1.899s1.287,0.684,2.01,0.571
						c0.688-0.107,1.368-0.161,2.021-0.161c2.34,0,4.652,0.638,6.687,1.844c0.394,0.233,0.834,0.35,1.275,0.35
						c0.427,0,0.854-0.109,1.237-0.328c0.78-0.445,1.263-1.274,1.263-2.172V61.571C155.22,41.051,147.219,37.828,142.347,37.771z
						 M150.22,70.596c-1.733-0.551-3.543-0.84-5.367-0.849v-0.392c0-5.649-2.147-11.012-6.046-15.101
						c-3.337-3.5-8.745-3.867-12.584-0.855c-4.196,3.294-11.301,7.221-21.315,7.221c-10.036,0-17.179-3.941-21.403-7.248
						c-3.835-2.999-9.235-2.625-12.579,0.883c-3.898,4.089-6.046,9.452-6.046,15.101v0.392c-1.795,0.009-3.576,0.289-5.284,0.823
						V58.717c0-19.27,13.788-35.638,32.786-38.918c17.396-3.004,31.612-1.211,38.994,4.919c3.889,3.229,5.899,7.725,5.977,13.363
						c0.036,2.585,2.217,4.688,4.861,4.688c5.089,0,8.007,6.853,8.007,18.802V70.596z"/>
				</g>
			</g>
		</g>
		<g>
			<g>
				<path d="M79.444,102.58l-9.777-22.191c-0.558-1.265-2.032-1.836-3.296-1.28s-1.837,2.032-1.28,3.295l9.777,22.191
					c0.412,0.936,1.329,1.493,2.289,1.493c0.337,0,0.679-0.068,1.007-0.213C79.428,105.318,80.001,103.843,79.444,102.58z"/>
			</g>
		</g>
		<g>
			<g>
				<path d="M143.36,79.108c-1.264-0.557-2.739,0.016-3.296,1.28l-9.776,22.191c-0.557,1.264,0.017,2.739,1.28,3.295
					c0.328,0.145,0.67,0.213,1.007,0.213c0.96,0,1.877-0.557,2.289-1.493l9.776-22.191C145.197,81.14,144.624,79.665,143.36,79.108z
					"/>
			</g>
		</g>
		<g>
			<g>
				<path d="M205.462,138.135l-3.656-3.656c-0.977-0.977-2.559-0.977-3.535,0c-0.977,0.976-0.977,2.559,0,3.535l3.656,3.656
					c0.488,0.488,1.128,0.732,1.768,0.732s1.279-0.244,1.768-0.732C206.438,140.694,206.438,139.111,205.462,138.135z"/>
			</g>
		</g>
		<g>
			<g>
				<path d="M212.841,130.757l-3.656-3.656c-0.977-0.977-2.559-0.977-3.535,0c-0.977,0.976-0.977,2.559,0,3.535l3.656,3.656
					c0.488,0.488,1.128,0.732,1.768,0.732s1.279-0.244,1.768-0.732C213.817,133.316,213.817,131.733,212.841,130.757z"/>
			</g>
		</g>
		<g>
			<g>
				<path d="M198.084,145.514l-3.656-3.656c-0.977-0.977-2.559-0.977-3.535,0c-0.977,0.976-0.977,2.559,0,3.535l3.656,3.656
					c0.488,0.488,1.128,0.732,1.768,0.732s1.279-0.244,1.768-0.732C199.061,148.073,199.061,146.49,198.084,145.514z"/>
			</g>
		</g>
		<g>
			<g>
				<path d="M192.562,157.577c-0.977-0.977-2.559-0.977-3.535,0l-12.291,12.291c-0.977,0.976-0.977,2.559,0,3.535
					c0.488,0.488,1.128,0.732,1.768,0.732s1.279-0.244,1.768-0.732l12.291-12.291C193.538,160.136,193.538,158.553,192.562,157.577z
					"/>
			</g>
		</g>
		<g>
			<g>
				<g>
					<path d="M242.893,98.571c-3.367-3.365-8.845-3.366-12.21,0c-3.366,3.366-3.366,8.844,0,12.21
						c1.684,1.683,3.895,2.524,6.104,2.524c2.211,0,4.422-0.841,6.105-2.524c0,0,0,0,0,0
						C246.259,107.415,246.259,101.938,242.893,98.571z M239.357,107.246c-1.416,1.416-3.72,1.418-5.14,0
						c-0.687-0.687-1.064-1.599-1.064-2.57s0.378-1.883,1.064-2.569c0.709-0.708,1.639-1.063,2.57-1.063
						c0.93,0,1.86,0.354,2.569,1.062c0.687,0.687,1.064,1.599,1.064,2.57S240.044,106.56,239.357,107.246z"/>
				</g>
			</g>
		</g>
		<g>
			<g>
				<g>
					<path d="M251.567,107.246c-3.365-3.365-8.843-3.367-12.21,0c-1.631,1.631-2.529,3.799-2.529,6.105s0.898,4.475,2.529,6.105
						c1.683,1.684,3.894,2.525,6.104,2.525c2.212,0,4.423-0.841,6.105-2.525c1.631-1.63,2.529-3.799,2.529-6.105
						S253.198,108.876,251.567,107.246z M248.032,115.92c-1.372,1.372-3.766,1.373-5.14,0c-0.687-0.687-1.064-1.599-1.064-2.57
						s0.378-1.883,1.064-2.569c0.687-0.686,1.6-1.064,2.569-1.064c0.971,0,1.884,0.378,2.57,1.064
						c0.687,0.686,1.064,1.598,1.064,2.569S248.719,115.234,248.032,115.92z"/>
				</g>
			</g>
		</g>
		<g>
			<g>
				<g>
					<path d="M132.481,101.087h-11.604c-3.584,0-7.062-1.057-10.059-3.057c-3.682-2.454-8.231-2.453-11.907,0
						c-2.997,2-6.476,3.056-10.059,3.056H77.25c-1.381,0-2.5,1.119-2.5,2.5v22.508c0,0.625,0.234,1.228,0.657,1.689
						c7.583,8.273,18.321,13.018,29.459,13.018s21.875-4.745,29.458-13.018c0.423-0.461,0.657-1.064,0.657-1.689v-22.508
						C134.981,102.207,133.862,101.087,132.481,101.087z M129.981,125.104c-6.594,6.812-15.692,10.699-25.116,10.699
						c-9.423,0-18.521-3.888-25.115-10.699v-19.016h9.104c4.574,0,9.012-1.348,12.834-3.897c2.028-1.353,4.327-1.354,6.357,0
						c3.82,2.549,8.258,3.897,12.833,3.897h9.104V125.104z"/>
				</g>
			</g>
		</g>
		<g>
			<g>
				<g>
					<path d="M131.515,174.067c-9.223-2.4-17.206-5.539-23.727-9.33c-1.804-1.049-4.043-1.048-5.845,0
						c-6.521,3.791-14.504,6.93-23.727,9.33c-2.552,0.664-4.334,2.956-4.334,5.573v19.096c0,18.924,11.309,35.818,28.809,43.039
						c0.691,0.285,1.433,0.428,2.175,0.428c0.741,0,1.482-0.143,2.173-0.428c17.501-7.221,28.81-24.115,28.81-43.039V179.64
						C135.849,177.022,134.066,174.731,131.515,174.067z M130.849,198.736c0,16.892-10.094,31.971-25.717,38.417
						c-0.167,0.07-0.366,0.069-0.533,0c-15.622-6.446-25.716-21.525-25.716-38.417V179.64c0-0.341,0.244-0.643,0.594-0.734
						c9.662-2.514,18.066-5.827,24.98-9.847c0.13-0.076,0.27-0.113,0.408-0.113c0.14,0,0.279,0.038,0.409,0.113
						c6.914,4.02,15.318,7.333,24.98,9.847c0.35,0.091,0.594,0.393,0.594,0.734V198.736z"/>
				</g>
			</g>
		</g>
		<g>
			<g>
				<g>
					<path d="M238.69,129.251l-17.803-17.803c-0.813-0.813-1.894-1.261-3.044-1.261c-1.148,0-2.229,0.447-3.043,1.261l-3.675,3.675
						c-1.678,1.677-1.678,4.407,0,6.086l17.803,17.803l0.001,0.001c0.839,0.838,1.94,1.257,3.042,1.257
						c1.103,0,2.204-0.419,3.043-1.258l3.677-3.676C240.368,133.659,240.368,130.929,238.69,129.251z M231.972,134.985
						l-16.818-16.818l2.69-2.69l16.819,16.818L231.972,134.985z"/>
				</g>
			</g>
		</g>
		<g>
			<g>
				<g>
					<path d="M230.813,133.825l-14.499-14.499c-0.938-0.938-2.598-0.938-3.535,0l-25.865,25.866
						c-1.665,1.665-2.583,3.879-2.583,6.234s0.918,4.569,2.583,6.234l5.565,5.566v0c1.719,1.718,3.977,2.577,6.233,2.577
						c2.258,0,4.516-0.859,6.234-2.578l25.866-25.866c0.469-0.469,0.732-1.104,0.732-1.768S231.281,134.294,230.813,133.825z
						 M201.411,159.69c-1.488,1.49-3.909,1.488-5.397,0l-5.565-5.566c-1.488-1.488-1.488-3.909,0-5.397l24.098-24.098l10.964,10.963
						L201.411,159.69z"/>
				</g>
			</g>
		</g>
		<g>
			<g>
				<g>
					<g>
						<path d="M243.625,109.013c0-0.64-0.244-1.279-0.732-1.768c-0.977-0.976-2.561-0.976-3.535,0
							c-1.143,1.143-2.928,1.389-4.342,0.598c-0.978-0.547-2.198-0.378-2.989,0.414l-8.933,8.932
							c-0.469,0.469-0.732,1.104-0.732,1.768s0.264,1.299,0.732,1.768l6.32,6.32c0.488,0.488,1.128,0.732,1.768,0.732
							s1.279-0.244,1.768-0.732l8.933-8.933c0.792-0.792,0.961-2.013,0.413-2.99c-0.791-1.412-0.546-3.197,0.598-4.341
							C243.381,110.293,243.625,109.653,243.625,109.013z M231.182,121.742l-2.785-2.785l5.993-5.992
							c0.803,0.231,1.633,0.346,2.448,0.336c-0.005,0.821,0.105,1.647,0.336,2.448L231.182,121.742z"/>
					</g>
				</g>
			</g>
		</g>
		<g>
			<g>
				<g>
					<path d="M115.919,194.184h-3.553v-3.737c0-4.136-3.364-7.5-7.5-7.5s-7.5,3.364-7.5,7.5v3.737h-3.553
						c-4.136,0-7.5,3.364-7.5,7.5s3.364,7.5,7.5,7.5h3.553v3.369c0,4.136,3.364,7.5,7.5,7.5s7.5-3.364,7.5-7.5v-3.369h3.553
						c4.136,0,7.5-3.364,7.5-7.5S120.055,194.184,115.919,194.184z M115.919,204.184h-6.053c-1.381,0-2.5,1.119-2.5,2.5v5.869
						c0,1.378-1.121,2.5-2.5,2.5s-2.5-1.122-2.5-2.5v-5.869c0-1.381-1.119-2.5-2.5-2.5h-6.053c-1.379,0-2.5-1.122-2.5-2.5
						s1.121-2.5,2.5-2.5h6.053c1.381,0,2.5-1.119,2.5-2.5v-6.237c0-1.378,1.121-2.5,2.5-2.5s2.5,1.122,2.5,2.5v6.237
						c0,1.381,1.119,2.5,2.5,2.5h6.053c1.379,0,2.5,1.122,2.5,2.5S117.298,204.184,115.919,204.184z"/>
				</g>
			</g>
		</g>
	</g>
</g>
<g id="Layer_11">
</g>
<g id="Layer_12">
</g>
<g id="Layer_13">
</g>
<g id="Layer_14">
</g>
<g id="Layer_15">
</g>
<g id="Layer_16">
</g>
<g id="Layer_17">
</g>
<g id="Layer_18">
</g>
<g id="Layer_19">
</g>
<g id="Layer_20">
</g>
<g id="Layer_21">
</g>
<g id="Layer_22">
</g>
<g id="Layer_23">
</g>
<g id="Layer_24">
</g>
<g id="Layer_25">
</g>
<g id="Layer_26">
</g>
<g id="Layer_27">
</g>
<g id="Layer_28">
</g>
<g id="Layer_29">
</g>
<g id="Layer_30">
</g>
<g id="Layer_31">
</g>
<g id="Layer_32">
</g>
<g id="Layer_33">
</g>
<g id="Layer_34">
</g>
<g id="Layer_35">
</g>
<g id="Layer_36">
</g>
<g id="Layer_37">
</g>
<g id="Layer_38">
</g>
<g id="Layer_39">
</g>
<g id="Layer_40">
</g>
<g id="Layer_41">
</g>
<g id="Layer_42">
</g>
<g id="Layer_43">
</g>
<g id="Layer_44">
</g>
<g id="Layer_45">
</g>
<g id="Layer_46">
</g>
<g id="Layer_47">
</g>
<g id="Layer_48">
</g>
<g id="Layer_49">
</g>
<g id="Layer_50">
</g>
<g id="Layer_51">
</g>
<g id="Layer_52">
</g>
<g id="Layer_53">
</g>
<g id="Layer_54">
</g>
<g id="Layer_55">
</g>
<g id="Layer_56">
</g>
<g id="Layer_57">
</g>
<g id="Layer_58">
</g>
<g id="Layer_59">
</g>
<g id="Layer_60">
</g>
<g id="Layer_61">
</g>
<g id="Layer_62">
</g>
<g id="Layer_63">
</g>
<g id="Layer_64">
</g>
<g id="Layer_65">
</g>
<g id="Layer_66">
</g>
<g id="Layer_67">
</g>
<g id="Layer_68">
</g>
<g id="Layer_69">
</g>
<g id="Layer_70">
</g>
<g id="Layer_71">
</g>
<g id="Layer_72">
</g>
<g id="Layer_73">
</g>
<g id="Layer_74">
</g>
<g id="Layer_75">
</g>
<g id="Layer_76">
</g>
<g id="Layer_77">
</g>
<g id="Layer_78">
</g>
<g id="Layer_79">
</g>
<g id="Layer_80">
</g>
</svg>
