<?xml version="1.0" encoding="utf-8"?>
<!-- Generator: Adobe Illustrator 24.0.0, SVG Export Plug-In . SVG Version: 6.00 Build 0)  -->
<svg version="1.1" xmlns="http://www.w3.org/2000/svg" xmlns:xlink="http://www.w3.org/1999/xlink" x="0px" y="0px"
	 viewBox="0 0 256 256" style="enable-background:new 0 0 256 256;" xml:space="preserve">
<style type="text/css">
	.st0{fill:#6CADEF;}
	.st1{fill:#F9D0B4;}
	.st2{fill:#5B5D60;}
	.st3{fill:#9BE5F9;}
	.st4{fill:#FC657E;}
	.st5{fill:#70D6F9;}
	.st6{fill:#F5C84C;}
	.st7{fill:#F98FA6;}
	.st8{fill:#FED690;}
	.st9{fill:#87D147;}
	.st10{fill:#B2E26D;}
	.st11{fill:#EDF4FC;}
	.st12{fill:#FCDD86;}
	.st13{fill:#754E34;}
	.st14{fill:#B598F9;}
	.st15{fill:#5290DB;}
	.st16{fill:#C7D7E5;}
	.st17{fill:#C18E6B;}
	.st18{fill:#DAE6F1;}
	.st19{fill:#3CAADC;}
	.st20{fill:#818182;}
	.st21{fill:#CBEFF7;}
	.st22{fill:#FCA265;}
	.st23{fill:#A57453;}
	.st24{fill:#8652D8;}
	.st25{fill:#966AEA;}
	.st26{fill:#FEB872;}
	.st27{fill:#EDB311;}
	.st28{fill:#EF4460;}
</style>
<g id="Layer_1">
</g>
<g id="Layer_2">
</g>
<g id="Layer_3">
</g>
<g id="Layer_4">
</g>
<g id="Layer_5">
</g>
<g id="Layer_6">
</g>
<g id="Layer_7">
</g>
<g id="Layer_8">
</g>
<g id="Layer_9">
</g>
<g id="Layer_10">
</g>
<g id="Layer_11">
</g>
<g id="Layer_12">
</g>
<g id="Layer_13">
</g>
<g id="Layer_14">
</g>
<g id="Layer_15">
</g>
<g id="Layer_16">
</g>
<g id="Layer_17">
</g>
<g id="Layer_18">
</g>
<g id="Layer_19">
</g>
<g id="Layer_20">
</g>
<g id="Layer_21">
</g>
<g id="Layer_22">
</g>
<g id="Layer_23">
</g>
<g id="Layer_24">
</g>
<g id="Layer_25">
</g>
<g id="Layer_26">
</g>
<g id="Layer_27">
</g>
<g id="Layer_28">
</g>
<g id="Layer_29">
</g>
<g id="Layer_30">
</g>
<g id="Layer_31">
</g>
<g id="Layer_32">
</g>
<g id="Layer_33">
</g>
<g id="Layer_34">
</g>
<g id="Layer_35">
</g>
<g id="Layer_36">
</g>
<g id="Layer_37">
</g>
<g id="Layer_38">
</g>
<g id="Layer_39">
</g>
<g id="Layer_40">
</g>
<g id="Layer_41">
	<g>
		<g>
			<g>
				<path class="st18" d="M169.327,17.969c-13.029-3.391-24.247-7.79-33.342-13.077c-4.925-2.863-11.045-2.863-15.969,0
					c-9.095,5.287-20.312,9.687-33.34,13.077c-6.986,1.817-11.865,8.107-11.865,15.297v28.302c0,31.003,18.525,58.68,47.191,70.507
					c3.809,1.573,8.18,1.577,11.994,0.001c28.67-11.829,47.195-39.505,47.195-70.509V33.266
					C181.19,26.076,176.311,19.785,169.327,17.969z"/>
			</g>
		</g>
		<g>
			<g>
				<path class="st5" d="M166.562,28.592c-13.915-3.621-26.185-8.45-36.093-14.21c-1.536-0.893-3.401-0.893-4.937,0
					c-9.908,5.76-22.178,10.589-36.093,14.21c-2.139,0.557-3.651,2.463-3.651,4.674v28.302c0,27.243,16.693,50.578,40.404,60.361
					c1.153,0.476,2.464,0.476,3.617,0c23.711-9.783,40.405-33.118,40.405-60.361V33.266
					C170.213,31.055,168.701,29.149,166.562,28.592z"/>
			</g>
		</g>
		<g>
			<g>
				<circle class="st4" cx="128" cy="65.818" r="15.753"/>
			</g>
		</g>
		<g>
			<g>
				<path class="st5" d="M91.447,155.757c-1.953-1.951-5.118-1.952-7.071,0l-6.828,6.828l-3.373-3.374
					c-1.953-1.952-5.118-1.952-7.071,0c-1.953,1.953-1.953,5.119,0,7.071l6.909,6.909c1.953,1.952,5.118,1.953,7.071,0
					l10.363-10.363C93.4,160.876,93.4,157.71,91.447,155.757z"/>
			</g>
		</g>
		<g>
			<g>
				<path class="st5" d="M91.447,222.602c-1.953-1.951-5.118-1.952-7.071,0l-6.828,6.828l-3.373-3.374
					c-1.953-1.952-5.118-1.952-7.071,0c-1.953,1.953-1.953,5.119,0,7.071l6.909,6.909c1.953,1.952,5.118,1.953,7.071,0
					l10.363-10.363C93.4,227.72,93.4,224.554,91.447,222.602z"/>
			</g>
		</g>
		<g>
			<g>
				<path class="st5" d="M91.447,189.179c-1.953-1.951-5.118-1.952-7.071,0l-6.828,6.828l-3.373-3.374
					c-1.953-1.952-5.118-1.952-7.071,0c-1.953,1.953-1.953,5.119,0,7.071l6.909,6.909c1.953,1.952,5.118,1.953,7.071,0
					l10.363-10.363C93.4,194.298,93.4,191.132,91.447,189.179z"/>
			</g>
		</g>
		<g>
			<g>
				<g>
					<path d="M169.956,15.549c-12.811-3.333-23.817-7.646-32.715-12.819c-5.7-3.314-12.783-3.314-18.482,0
						c-8.897,5.172-19.904,9.485-32.713,12.818c-8.087,2.103-13.736,9.389-13.736,17.717v28.302c0,32.02,19.13,60.603,48.737,72.817
						c2.211,0.913,4.583,1.37,6.956,1.37c2.37,0,4.74-0.456,6.946-1.367c29.609-12.217,48.741-40.8,48.741-72.82V33.266
						C183.69,24.938,178.042,17.652,169.956,15.549z M178.69,61.567c0,29.987-17.918,56.756-45.649,68.198
						c-3.202,1.323-6.878,1.322-10.086-0.002C95.227,118.323,77.31,91.555,77.31,61.567V33.266c0-6.052,4.11-11.348,9.995-12.878
						c13.249-3.448,24.677-7.934,33.967-13.335c2.075-1.207,4.402-1.81,6.729-1.81s4.653,0.604,6.729,1.81
						c9.29,5.401,20.718,9.887,33.969,13.335c5.884,1.53,9.993,6.826,9.993,12.877V61.567z"/>
				</g>
			</g>
		</g>
		<g>
			<g>
				<path d="M128,38.489c-1.381,0-2.5,1.119-2.5,2.5v6.438c0,1.381,1.119,2.5,2.5,2.5s2.5-1.119,2.5-2.5v-6.438
					C130.5,39.608,129.381,38.489,128,38.489z"/>
			</g>
		</g>
		<g>
			<g>
				<path d="M132.024,35.27h-8.048c-1.381,0-2.5,1.119-2.5,2.5s1.119,2.5,2.5,2.5h8.048c1.381,0,2.5-1.119,2.5-2.5
					S133.405,35.27,132.024,35.27z"/>
			</g>
		</g>
		<g>
			<g>
				<path d="M128,81.708c-1.381,0-2.5,1.119-2.5,2.5v6.438c0,1.381,1.119,2.5,2.5,2.5s2.5-1.119,2.5-2.5v-6.438
					C130.5,82.827,129.381,81.708,128,81.708z"/>
			</g>
		</g>
		<g>
			<g>
				<path d="M132.024,91.366h-8.048c-1.381,0-2.5,1.119-2.5,2.5s1.119,2.5,2.5,2.5h8.048c1.381,0,2.5-1.119,2.5-2.5
					S133.405,91.366,132.024,91.366z"/>
			</g>
		</g>
		<g>
			<g>
				<path d="M113.324,54.458l-5.576-3.219c-1.197-0.693-2.725-0.281-3.415,0.915c-0.69,1.196-0.281,2.725,0.915,3.415l5.576,3.219
					c0.394,0.228,0.824,0.335,1.248,0.335c0.864,0,1.705-0.449,2.167-1.25C114.929,56.677,114.52,55.148,113.324,54.458z"/>
			</g>
		</g>
		<g>
			<g>
				<path d="M106.972,46.144c-1.199-0.692-2.725-0.28-3.415,0.915l-4.024,6.97c-0.69,1.196-0.281,2.725,0.915,3.415
					c0.394,0.228,0.824,0.335,1.248,0.335c0.864,0,1.705-0.449,2.167-1.25l4.024-6.97C108.577,48.363,108.167,46.834,106.972,46.144
					z"/>
			</g>
		</g>
		<g>
			<g>
				<path d="M150.752,76.067l-5.576-3.219c-1.197-0.692-2.725-0.281-3.415,0.915c-0.69,1.196-0.281,2.725,0.915,3.415l5.576,3.219
					c0.394,0.228,0.824,0.335,1.248,0.335c0.864,0,1.705-0.449,2.167-1.25C152.358,78.286,151.948,76.757,150.752,76.067z"/>
			</g>
		</g>
		<g>
			<g>
				<path d="M155.552,74.191c-1.199-0.692-2.725-0.28-3.415,0.915l-4.024,6.97c-0.69,1.196-0.281,2.725,0.915,3.415
					c0.394,0.228,0.824,0.335,1.248,0.335c0.864,0,1.705-0.449,2.167-1.25l4.024-6.97C157.158,76.411,156.748,74.882,155.552,74.191
					z"/>
			</g>
		</g>
		<g>
			<g>
				<path d="M114.239,73.763c-0.69-1.196-2.22-1.607-3.415-0.915l-5.576,3.219c-1.196,0.69-1.605,2.219-0.915,3.415
					c0.463,0.802,1.303,1.25,2.167,1.25c0.424,0,0.854-0.108,1.248-0.335l5.576-3.219C114.52,76.487,114.929,74.958,114.239,73.763z
					"/>
			</g>
		</g>
		<g>
			<g>
				<path d="M107.887,82.077l-4.024-6.97c-0.69-1.196-2.22-1.607-3.415-0.915c-1.196,0.69-1.605,2.219-0.915,3.415l4.024,6.97
					c0.463,0.802,1.303,1.25,2.167,1.25c0.424,0,0.854-0.108,1.248-0.335C108.167,84.801,108.577,83.272,107.887,82.077z"/>
			</g>
		</g>
		<g>
			<g>
				<path d="M151.667,52.153c-0.69-1.196-2.22-1.608-3.415-0.915l-5.576,3.219c-1.196,0.69-1.605,2.219-0.915,3.415
					c0.463,0.802,1.303,1.25,2.167,1.25c0.424,0,0.854-0.108,1.248-0.335l5.576-3.219C151.948,54.878,152.358,53.349,151.667,52.153
					z"/>
			</g>
		</g>
		<g>
			<g>
				<path d="M156.467,54.029l-4.024-6.97c-0.69-1.196-2.22-1.607-3.415-0.915c-1.196,0.69-1.605,2.219-0.915,3.415l4.024,6.97
					c0.463,0.802,1.303,1.25,2.167,1.25c0.424,0,0.854-0.108,1.248-0.335C156.748,56.753,157.158,55.225,156.467,54.029z"/>
			</g>
		</g>
		<g>
			<g>
				<g>
					<g>
						<path d="M93.214,153.989c-2.924-2.921-7.682-2.921-10.606,0.001l-5.06,5.06l-1.606-1.606c-2.923-2.922-7.682-2.923-10.606,0
							c-2.924,2.924-2.924,7.682,0,10.606l6.909,6.909c0,0,0,0,0,0c1.462,1.461,3.382,2.191,5.303,2.191s3.841-0.731,5.303-2.192
							l10.363-10.363C96.139,161.672,96.139,156.914,93.214,153.989z M89.679,161.061l-10.363,10.362
							c-0.975,0.975-2.561,0.974-3.537,0l-6.908-6.908c-0.975-0.975-0.975-2.561,0-3.536c0.976-0.975,2.563-0.974,3.536,0
							l3.373,3.374c0.469,0.469,1.105,0.732,1.768,0.732s1.299-0.263,1.768-0.732l6.827-6.827c0.975-0.974,2.562-0.975,3.537-0.001
							C90.654,158.5,90.654,160.086,89.679,161.061z"/>
					</g>
				</g>
			</g>
		</g>
		<g>
			<g>
				<path d="M190.361,155.535H108c-1.381,0-2.5,1.119-2.5,2.5s1.119,2.5,2.5,2.5h82.361c1.381,0,2.5-1.119,2.5-2.5
					S191.742,155.535,190.361,155.535z"/>
			</g>
		</g>
		<g>
			<g>
				<path d="M170.68,166.494H108c-1.381,0-2.5,1.119-2.5,2.5s1.119,2.5,2.5,2.5h62.681c1.381,0,2.5-1.119,2.5-2.5
					S172.061,166.494,170.68,166.494z"/>
			</g>
		</g>
		<g>
			<g>
				<g>
					<g>
						<path d="M93.214,220.833c-2.924-2.922-7.682-2.921-10.606,0.001l-5.06,5.06l-1.606-1.606c-2.923-2.922-7.682-2.923-10.606,0
							c-2.924,2.924-2.924,7.682,0,10.606l6.909,6.909c0,0,0,0.001,0,0.001c1.462,1.461,3.382,2.191,5.303,2.191
							s3.841-0.731,5.303-2.192l10.363-10.363C96.139,228.516,96.139,223.758,93.214,220.833z M89.679,227.905l-10.363,10.362
							c-0.975,0.974-2.561,0.975-3.537,0l-6.908-6.908c-0.975-0.975-0.975-2.561,0-3.536c0.976-0.975,2.563-0.974,3.536,0
							l3.373,3.374c0.469,0.469,1.105,0.732,1.768,0.732s1.299-0.263,1.768-0.732l6.827-6.827c0.975-0.974,2.562-0.975,3.537-0.001
							C90.654,225.344,90.654,226.93,89.679,227.905z"/>
					</g>
				</g>
			</g>
		</g>
		<g>
			<g>
				<path d="M190.361,222.379H108c-1.381,0-2.5,1.119-2.5,2.5s1.119,2.5,2.5,2.5h82.361c1.381,0,2.5-1.119,2.5-2.5
					S191.742,222.379,190.361,222.379z"/>
			</g>
		</g>
		<g>
			<g>
				<path d="M170.68,233.338H108c-1.381,0-2.5,1.119-2.5,2.5s1.119,2.5,2.5,2.5h62.681c1.381,0,2.5-1.119,2.5-2.5
					S172.061,233.338,170.68,233.338z"/>
			</g>
		</g>
		<g>
			<g>
				<g>
					<g>
						<path d="M93.214,187.411c-2.924-2.922-7.682-2.921-10.606,0.001l-5.06,5.06l-1.606-1.606c-2.923-2.922-7.682-2.923-10.606,0
							c-2.924,2.924-2.924,7.682,0,10.606l6.909,6.909c1.462,1.461,3.382,2.192,5.303,2.192s3.841-0.731,5.303-2.193l10.363-10.363
							C96.139,195.094,96.139,190.336,93.214,187.411z M89.679,194.483l-10.363,10.362c-0.974,0.975-2.561,0.975-3.537,0
							l-6.908-6.908c-0.975-0.975-0.975-2.561,0-3.536c0.976-0.975,2.563-0.974,3.536,0l3.373,3.374
							c0.469,0.469,1.105,0.732,1.768,0.732s1.299-0.263,1.768-0.732l6.827-6.827c0.975-0.974,2.562-0.975,3.537-0.001
							C90.654,191.922,90.654,193.508,89.679,194.483z"/>
					</g>
				</g>
			</g>
		</g>
		<g>
			<g>
				<path d="M190.361,188.957H108c-1.381,0-2.5,1.119-2.5,2.5s1.119,2.5,2.5,2.5h82.361c1.381,0,2.5-1.119,2.5-2.5
					S191.742,188.957,190.361,188.957z"/>
			</g>
		</g>
		<g>
			<g>
				<path d="M170.68,199.917H108c-1.381,0-2.5,1.119-2.5,2.5s1.119,2.5,2.5,2.5h62.681c1.381,0,2.5-1.119,2.5-2.5
					S172.061,199.917,170.68,199.917z"/>
			</g>
		</g>
		<g>
			<g>
				<path class="st4" d="M75.506,0c-1.878,0-3.4,1.522-3.4,3.4c0,1.878,1.522,3.4,3.4,3.4c1.878,0,3.4-1.522,3.4-3.4
					C78.906,1.522,77.384,0,75.506,0z"/>
			</g>
		</g>
		<g>
			<g>
				<path class="st4" d="M221.206,221.3h-2.4V219c0-1.8-1.4-3.2-3.2-3.2c-1.7,0-3.2,1.4-3.2,3.1v2.4h-2.3c-1.8,0-3.2,1.4-3.2,3.2
					c-0.1,1.7,1.3,3.2,3.2,3.2h2.3v2.3c0,1.8,1.4,3.2,3.2,3.2c1.7,0,3.2-1.4,3.2-3.1v-2.4h2.3c1.8,0,3.2-1.4,3.2-3.2
					C224.306,222.8,222.906,221.3,221.206,221.3z"/>
			</g>
		</g>
		<g>
			<g>
				<path class="st6" d="M205.506,249.2c-1.878,0-3.4,1.522-3.4,3.4c0,1.878,1.522,3.4,3.4,3.4c1.878,0,3.4-1.522,3.4-3.4
					C208.906,250.722,207.384,249.2,205.506,249.2z"/>
			</g>
		</g>
		<g>
			<g>
				<path class="st5" d="M53.288,143.2c-3.1-0.6-5.6-3-6.2-6.1c0-0.1-0.3-0.1-0.3,0c-0.6,3.1-3.1,5.5-6.2,6.1c-0.1,0-0.1,0.2,0,0.3
					c3.1,0.6,5.6,3,6.2,6.1c0,0.1,0.3,0.1,0.3,0c0.6-3.1,3.1-5.5,6.2-6.1C53.388,143.4,53.388,143.2,53.288,143.2z"/>
			</g>
		</g>
		<g>
			<g>
				<path class="st6" d="M64.288,23.2c-4.5-0.8-8-4.3-8.9-8.7c0-0.2-0.4-0.2-0.4,0c-0.9,4.4-4.4,7.9-8.9,8.7c-0.2,0-0.2,0.3,0,0.4
					c4.5,0.8,8,4.3,8.9,8.7c0,0.2,0.4,0.2,0.4,0c0.9-4.4,4.4-7.9,8.9-8.7C64.488,23.5,64.488,23.2,64.288,23.2z"/>
			</g>
		</g>
		<g>
			<g>
				<g>
					<g>
						<path d="M167.191,26.173c-13.772-3.584-25.705-8.278-35.466-13.952c-2.297-1.336-5.152-1.336-7.449,0
							c-9.761,5.674-21.694,10.368-35.466,13.952c-3.251,0.846-5.522,3.763-5.522,7.093v28.302
							c0,27.558,16.467,52.158,41.951,62.672c0.878,0.362,1.82,0.543,2.762,0.543s1.884-0.181,2.762-0.543
							c25.484-10.515,41.951-35.115,41.951-62.672V33.266C172.713,29.936,170.442,27.019,167.191,26.173z M167.713,61.567
							c0,25.525-15.252,48.311-38.858,58.05c-0.543,0.225-1.167,0.225-1.71,0c-23.605-9.739-38.858-32.525-38.858-58.05V33.266
							c0-1.054,0.732-1.981,1.781-2.254c14.212-3.698,26.566-8.566,36.72-14.469c0.379-0.22,0.796-0.331,1.212-0.331
							s0.833,0.11,1.212,0.331c10.154,5.902,22.508,10.771,36.72,14.469c1.048,0.273,1.781,1.2,1.781,2.254V61.567z"/>
					</g>
				</g>
			</g>
		</g>
		<g>
			<g>
				<g>
					<path d="M128,47.565c-10.065,0-18.253,8.188-18.253,18.252c0,10.065,8.188,18.253,18.253,18.253s18.253-8.188,18.253-18.253
						C146.253,55.753,138.065,47.565,128,47.565z M128,79.07c-7.308,0-13.253-5.945-13.253-13.253S120.692,52.565,128,52.565
						s13.253,5.945,13.253,13.252S135.308,79.07,128,79.07z"/>
				</g>
			</g>
		</g>
	</g>
</g>
<g id="Layer_42">
</g>
<g id="Layer_43">
</g>
<g id="Layer_44">
</g>
<g id="Layer_45">
</g>
<g id="Layer_46">
</g>
<g id="Layer_47">
</g>
<g id="Layer_48">
</g>
<g id="Layer_49">
</g>
<g id="Layer_50">
</g>
<g id="Layer_51">
</g>
<g id="Layer_52">
</g>
<g id="Layer_53">
</g>
<g id="Layer_54">
</g>
<g id="Layer_55">
</g>
<g id="Layer_56">
</g>
<g id="Layer_57">
</g>
<g id="Layer_58">
</g>
<g id="Layer_59">
</g>
<g id="Layer_60">
</g>
<g id="Layer_61">
</g>
<g id="Layer_62">
</g>
<g id="Layer_63">
</g>
<g id="Layer_64">
</g>
<g id="Layer_65">
</g>
<g id="Layer_66">
</g>
<g id="Layer_67">
</g>
<g id="Layer_68">
</g>
<g id="Layer_69">
</g>
<g id="Layer_70">
</g>
<g id="Layer_71">
</g>
<g id="Layer_72">
</g>
<g id="Layer_73">
</g>
<g id="Layer_74">
</g>
<g id="Layer_75">
</g>
<g id="Layer_76">
</g>
<g id="Layer_77">
</g>
<g id="Layer_78">
</g>
<g id="Layer_79">
</g>
<g id="Layer_80">
</g>
</svg>
