<?xml version="1.0" encoding="utf-8"?>
<!-- Generator: Adobe Illustrator 24.0.0, SVG Export Plug-In . SVG Version: 6.00 Build 0)  -->
<svg version="1.1" xmlns="http://www.w3.org/2000/svg" xmlns:xlink="http://www.w3.org/1999/xlink" x="0px" y="0px"
	 viewBox="0 0 256 256" style="enable-background:new 0 0 256 256;" xml:space="preserve">
<style type="text/css">
	.st0{fill:#6CADEF;}
	.st1{fill:#F9D0B4;}
	.st2{fill:#5B5D60;}
	.st3{fill:#9BE5F9;}
	.st4{fill:#FC657E;}
	.st5{fill:#70D6F9;}
	.st6{fill:#F5C84C;}
	.st7{fill:#F98FA6;}
	.st8{fill:#FED690;}
	.st9{fill:#87D147;}
	.st10{fill:#B2E26D;}
	.st11{fill:#EDF4FC;}
	.st12{fill:#FCDD86;}
	.st13{fill:#754E34;}
	.st14{fill:#B598F9;}
	.st15{fill:#5290DB;}
	.st16{fill:#C7D7E5;}
	.st17{fill:#C18E6B;}
	.st18{fill:#DAE6F1;}
	.st19{fill:#3CAADC;}
	.st20{fill:#818182;}
	.st21{fill:#CBEFF7;}
	.st22{fill:#FCA265;}
	.st23{fill:#A57453;}
	.st24{fill:#8652D8;}
	.st25{fill:#966AEA;}
	.st26{fill:#FEB872;}
	.st27{fill:#EDB311;}
	.st28{fill:#EF4460;}
</style>
<g id="Layer_1">
</g>
<g id="Layer_2">
</g>
<g id="Layer_3">
</g>
<g id="Layer_4">
</g>
<g id="Layer_5">
</g>
<g id="Layer_6">
</g>
<g id="Layer_7">
</g>
<g id="Layer_8">
</g>
<g id="Layer_9">
</g>
<g id="Layer_10">
</g>
<g id="Layer_11">
</g>
<g id="Layer_12">
</g>
<g id="Layer_13">
</g>
<g id="Layer_14">
</g>
<g id="Layer_15">
</g>
<g id="Layer_16">
</g>
<g id="Layer_17">
</g>
<g id="Layer_18">
</g>
<g id="Layer_19">
</g>
<g id="Layer_20">
</g>
<g id="Layer_21">
</g>
<g id="Layer_22">
</g>
<g id="Layer_23">
</g>
<g id="Layer_24">
</g>
<g id="Layer_25">
</g>
<g id="Layer_26">
</g>
<g id="Layer_27">
</g>
<g id="Layer_28">
</g>
<g id="Layer_29">
</g>
<g id="Layer_30">
</g>
<g id="Layer_31">
</g>
<g id="Layer_32">
</g>
<g id="Layer_33">
</g>
<g id="Layer_34">
</g>
<g id="Layer_35">
</g>
<g id="Layer_36">
</g>
<g id="Layer_37">
</g>
<g id="Layer_38">
</g>
<g id="Layer_39">
</g>
<g id="Layer_40">
</g>
<g id="Layer_41">
</g>
<g id="Layer_42">
</g>
<g id="Layer_43">
	<g>
		<g>
			<g>
				<path class="st0" d="M79.664,136.727l-43.62-31.628c-1.584-1.148-3.798-0.795-4.947,0.788l-27.922,38.51
					c-1.148,1.584-0.795,3.798,0.788,4.947l43.62,31.627c1.584,1.148,3.798,0.795,4.947-0.788l27.922-38.51
					C81.6,140.09,81.247,137.875,79.664,136.727z"/>
			</g>
		</g>
		<g>
			<g>
				<path class="st5" d="M252.825,144.397l-27.922-38.51c-1.148-1.584-3.363-1.937-4.947-0.788l-43.62,31.628
					c-1.584,1.148-1.937,3.363-0.788,4.947l27.922,38.51c1.148,1.583,3.363,1.937,4.947,0.788l43.62-31.627
					C253.621,148.196,253.974,145.981,252.825,144.397z"/>
			</g>
		</g>
		<g>
			<g>
				<path class="st6" d="M180.024,95.945l-44.155-74.132c-3.551-5.962-12.186-5.962-15.737,0L75.976,95.945
					c-3.636,6.105,0.763,13.845,7.868,13.845h88.31C179.261,109.79,183.66,102.049,180.024,95.945z"/>
			</g>
		</g>
		<g>
			<g>
				<path class="st1" d="M176.948,143.604l-1.362,0.981c-8.758,5.802-14.5,3.929-19.587,4.459
					c-6.172,0.127-12.158,2.138-17.155,5.762l-6.473,4.693c-2.786,2.02-3.751,5.854-2.002,8.818c1.996,3.381,6.453,4.25,9.559,1.998
					L128,178.963l15.832,11.479c-0.037-0.027,0.122,0.088,0.159,0.115c2.71,1.965,3.267,5.812,1.154,8.473
					c-1.988,2.504-5.56,2.959-8.105,1.114l6.013,4.36c2.753,1.996,3.281,5.92,1.076,8.581c-1.358,1.639-3.452,2.313-5.454,2.008
					l-0.594,0.442c-3.021,2.191-3.602,6.877-0.555,9.467c2.112,1.794,5.228,1.772,7.471,0.146l35.696-25.882
					c2.143-1.554,4.03-3.435,5.591-5.573c2.115-2.649,3.973-6.353,8.936-9.951l7.099-5.147L176.948,143.604z"/>
			</g>
		</g>
		<g>
			<g>
				<path class="st1" d="M143.053,204.505l-6.013-4.36c2.545,1.845,6.117,1.391,8.105-1.114c2.113-2.662,1.557-6.508-1.154-8.473
					c-0.037-0.027-0.196-0.143-0.159-0.115l-27.76-20.128c3.106,2.252,7.564,1.384,9.559-1.998c1.749-2.964,0.785-6.798-2.002-8.818
					l-6.473-4.693c-4.998-3.624-10.983-5.634-17.155-5.762c-5.086-0.53-10.829,1.343-19.587-4.459l-1.362-0.981l-25.371,34.991
					l7.099,5.147c4.962,3.598,6.821,7.302,8.936,9.951c1.561,2.138,3.448,4.019,5.591,5.573l35.696,25.883
					c2.243,1.626,5.359,1.648,7.471-0.146c3.048-2.59,2.467-7.276-0.555-9.467l5.053,3.664c2.553,1.851,6.179,1.541,8.192-0.887
					c2.205-2.661,1.677-6.585-1.076-8.581l5.849,4.241c2.553,1.851,6.179,1.541,8.192-0.887
					C146.334,210.425,145.806,206.501,143.053,204.505z"/>
			</g>
		</g>
		<g>
			<g>
				<path class="st20" d="M128,44.232c-3.365,0-6.093,2.728-6.093,6.093v16.773c0,3.365,2.728,6.093,6.093,6.093
					s6.093-2.728,6.093-6.093V50.325C134.093,46.96,131.365,44.232,128,44.232z"/>
			</g>
		</g>
		<g>
			<g>
				<path class="st20" d="M128,83.083c-3.701,0-6.702,3.001-6.702,6.702c0,3.702,3.001,6.702,6.702,6.702s6.702-3,6.702-6.702
					C134.702,86.083,131.701,83.083,128,83.083z"/>
			</g>
		</g>
		<g>
			<g>
				<path class="st5" d="M79.206,224.95h-2.4v-2.3c0-1.8-1.4-3.2-3.2-3.2c-1.7,0-3.2,1.4-3.2,3.1v2.4h-2.3c-1.8,0-3.2,1.4-3.2,3.2
					c-0.1,1.7,1.3,3.2,3.2,3.2h2.3v2.3c0,1.8,1.4,3.2,3.2,3.2c1.7,0,3.2-1.4,3.2-3.1v-2.4h2.3c1.8,0,3.2-1.4,3.2-3.2
					C82.306,226.45,80.906,224.95,79.206,224.95z"/>
			</g>
		</g>
		<g>
			<g>
				<path class="st9" d="M154.506,5.35c-1.878,0-3.4,1.522-3.4,3.4c0,1.878,1.522,3.4,3.4,3.4c1.878,0,3.4-1.522,3.4-3.4
					C157.906,6.872,156.384,5.35,154.506,5.35z"/>
			</g>
		</g>
		<g>
			<g>
				<path class="st6" d="M101.506,243.85c-1.878,0-3.4,1.522-3.4,3.4c0,1.878,1.522,3.4,3.4,3.4c1.878,0,3.4-1.522,3.4-3.4
					C104.906,245.372,103.384,243.85,101.506,243.85z"/>
			</g>
		</g>
		<g>
			<g>
				<path class="st4" d="M66.288,76.05c-3.1-0.6-5.6-3-6.2-6.1c0-0.1-0.3-0.1-0.3,0c-0.6,3.1-3.1,5.5-6.2,6.1c-0.1,0-0.1,0.2,0,0.3
					c3.1,0.6,5.6,3,6.2,6.1c0,0.1,0.3,0.1,0.3,0c0.6-3.1,3.1-5.5,6.2-6.1C66.388,76.25,66.388,76.05,66.288,76.05z"/>
			</g>
		</g>
		<g>
			<g>
				<path class="st6" d="M188.288,31.05c-4.5-0.8-8-4.3-8.9-8.7c0-0.2-0.4-0.2-0.4,0c-0.9,4.4-4.4,7.9-8.9,8.7c-0.2,0-0.2,0.3,0,0.4
					c4.5,0.8,8,4.3,8.9,8.7c0,0.2,0.4,0.2,0.4,0c0.9-4.4,4.4-7.9,8.9-8.7C188.488,31.35,188.488,31.05,188.288,31.05z"/>
			</g>
		</g>
		<g>
			<g>
				<path d="M117.669,168.385l-5.203-3.772c-1.117-0.81-2.681-0.562-3.491,0.557c-0.811,1.118-0.562,2.681,0.557,3.491l5.203,3.772
					c0.443,0.321,0.957,0.476,1.465,0.476c0.774,0,1.537-0.358,2.026-1.033C119.036,170.758,118.787,169.195,117.669,168.385z"/>
			</g>
		</g>
		<g>
			<g>
				<path d="M138.507,198.122l-19.802-14.358c-1.117-0.81-2.681-0.562-3.492,0.556c-0.811,1.118-0.562,2.681,0.556,3.492
					l19.802,14.358c0.443,0.321,0.957,0.476,1.466,0.476c0.773,0,1.537-0.358,2.025-1.032
					C139.873,200.495,139.624,198.932,138.507,198.122z"/>
			</g>
		</g>
		<g>
			<g>
				<path d="M131.556,207.708l-19.802-14.358c-1.117-0.81-2.681-0.561-3.491,0.556c-0.811,1.118-0.562,2.681,0.556,3.492
					l19.802,14.358c0.443,0.321,0.957,0.476,1.465,0.476c0.773,0,1.537-0.358,2.026-1.033
					C132.922,210.082,132.673,208.519,131.556,207.708z"/>
			</g>
		</g>
		<g>
			<g>
				<path d="M124.604,217.296l-19.802-14.358c-1.119-0.81-2.682-0.561-3.492,0.556c-0.811,1.118-0.562,2.681,0.556,3.492
					l19.802,14.358c0.444,0.321,0.957,0.476,1.466,0.476c0.774,0,1.537-0.358,2.026-1.032
					C125.971,219.669,125.722,218.106,124.604,217.296z"/>
			</g>
		</g>
		<g>
			<g>
				<g>
					<path d="M81.131,134.703l-43.62-31.627c-1.306-0.947-2.903-1.33-4.498-1.075c-1.594,0.254-2.993,1.113-3.94,2.42L1.151,142.93
						v0c-1.956,2.697-1.353,6.482,1.345,8.438l43.62,31.627c1.069,0.775,2.309,1.148,3.539,1.148c1.872,0,3.719-0.865,4.899-2.493
						l27.922-38.51C84.432,140.444,83.828,136.659,81.131,134.703z M78.428,140.207l-27.922,38.509
						c-0.338,0.465-0.991,0.568-1.456,0.232L5.431,147.32c-0.465-0.337-0.569-0.99-0.232-1.455v0l27.922-38.51
						c0.22-0.304,0.52-0.392,0.679-0.417c0.044-0.007,0.101-0.013,0.165-0.013c0.167,0,0.392,0.039,0.611,0.198l43.62,31.627
						C78.661,139.088,78.766,139.741,78.428,140.207z"/>
				</g>
			</g>
		</g>
		<g>
			<g>
				<path d="M147.025,165.169c-0.811-1.119-2.375-1.367-3.492-0.557l-5.203,3.772c-1.117,0.811-1.366,2.374-0.557,3.491
					c0.489,0.675,1.253,1.033,2.026,1.033c0.509,0,1.022-0.155,1.466-0.476l5.203-3.772
					C147.586,167.85,147.835,166.287,147.025,165.169z"/>
			</g>
		</g>
		<g>
			<g>
				<path d="M147.178,179.687c-0.811-1.119-2.375-1.366-3.492-0.557l-6.808,4.936c-1.117,0.811-1.366,2.374-0.557,3.491
					c0.489,0.675,1.253,1.033,2.026,1.033c0.509,0,1.022-0.155,1.466-0.476l6.808-4.936
					C147.738,182.367,147.987,180.804,147.178,179.687z"/>
			</g>
		</g>
		<g>
			<g>
				<path d="M152.55,190.417c-0.81-1.118-2.373-1.366-3.491-0.556l-3.718,2.696c-1.117,0.811-1.366,2.374-0.556,3.492
					c0.488,0.674,1.252,1.032,2.025,1.032c0.509,0,1.022-0.155,1.466-0.476l3.718-2.696
					C153.111,193.098,153.36,191.535,152.55,190.417z"/>
			</g>
		</g>
		<g>
			<g>
				<path d="M158.996,200.372c-0.811-1.119-2.375-1.366-3.492-0.557l-11.198,8.119c-1.117,0.811-1.366,2.374-0.557,3.491
					c0.489,0.675,1.253,1.033,2.026,1.033c0.509,0,1.022-0.155,1.466-0.476l11.198-8.119
					C159.557,203.053,159.806,201.49,158.996,200.372z"/>
			</g>
		</g>
		<g>
			<g>
				<g>
					<path d="M254.85,142.93l-27.923-38.51c-1.955-2.697-5.741-3.3-8.438-1.344l-43.62,31.628c-2.696,1.956-3.3,5.741-1.345,8.438
						l27.923,38.509c0.947,1.307,2.347,2.167,3.94,2.42c0.322,0.051,0.644,0.077,0.964,0.077c1.264,0,2.491-0.396,3.534-1.152
						l43.62-31.627c1.307-0.947,2.166-2.347,2.42-3.941S255.797,144.236,254.85,142.93z M250.987,146.641
						c-0.025,0.159-0.113,0.459-0.418,0.68l-43.62,31.627c-0.304,0.221-0.618,0.211-0.775,0.186
						c-0.159-0.025-0.459-0.113-0.679-0.417l-27.923-38.509c-0.338-0.465-0.233-1.118,0.231-1.456l43.62-31.627
						c0.185-0.134,0.398-0.198,0.61-0.198c0.323,0,0.642,0.149,0.845,0.43l27.922,38.51c0.001,0,0.001,0,0.001,0
						C251.021,146.169,251.013,146.481,250.987,146.641z"/>
				</g>
			</g>
		</g>
		<g>
			<g>
				<g>
					<path d="M182.171,94.666l-44.154-74.132c-2.123-3.564-5.867-5.692-10.016-5.692c0,0-0.001,0-0.001,0
						c-4.148,0-7.893,2.128-10.017,5.692L73.829,94.666c-2.174,3.649-2.218,8.033-0.12,11.726c2.099,3.693,5.888,5.898,10.136,5.898
						h88.311c4.248,0,8.037-2.205,10.137-5.898C184.391,102.698,184.345,98.314,182.171,94.666z M177.944,103.921
						c-1.198,2.109-3.363,3.369-5.789,3.369H83.845c-2.426,0-4.59-1.259-5.789-3.369c-1.199-2.109-1.173-4.612,0.068-6.697
						l44.155-74.132c1.213-2.036,3.352-3.251,5.721-3.251c2.37,0,4.507,1.215,5.72,3.251l44.155,74.132
						C179.117,99.308,179.143,101.812,177.944,103.921z"/>
				</g>
			</g>
		</g>
		<g>
			<g>
				<g>
					<path d="M204.343,177.128l-25.371-34.991c-0.809-1.116-2.365-1.368-3.485-0.562l-1.282,0.926
						c-6.041,4.002-10.305,3.973-14.419,3.937c-1.353-0.012-2.631-0.021-3.941,0.109c-6.676,0.158-13.06,2.313-18.469,6.235
						l-6.473,4.693c-3.862,2.8-5.042,8.121-2.687,12.112c0.879,1.49,2.162,2.687,3.676,3.466l-5.359,3.886
						c-0.648,0.47-1.032,1.223-1.032,2.024s0.384,1.554,1.033,2.024l15.832,11.479c0.007,0.005,0.014,0.01,0.021,0.015l0.139,0.101
						c0.761,0.551,1.25,1.369,1.378,2.301c0.127,0.932-0.126,1.853-0.715,2.594c-1.141,1.437-3.196,1.72-4.68,0.644
						c-1.116-0.809-2.682-0.562-3.492,0.557c-0.81,1.118-0.561,2.681,0.557,3.491c0.002,0.001,0.003,0.002,0.005,0.003l6.009,4.357
						c0.774,0.561,1.267,1.393,1.387,2.342c0.119,0.948-0.153,1.878-0.768,2.62c-0.742,0.896-1.926,1.323-3.153,1.132
						c-0.666-0.101-1.333,0.067-1.867,0.465l-0.571,0.425c-2.15,1.56-3.496,4.09-3.599,6.769c-0.099,2.565,0.956,4.981,2.894,6.627
						c1.537,1.305,3.446,1.962,5.382,1.962c1.794,0,3.61-0.564,5.176-1.699l35.696-25.882c2.344-1.7,4.399-3.745,6.11-6.08
						c0.54-0.68,1.045-1.393,1.578-2.146c1.594-2.253,3.4-4.806,6.838-7.298l7.099-5.147c0.536-0.389,0.896-0.976,1.001-1.63
						S204.731,177.665,204.343,177.128z M193.752,181.719c-4.105,2.978-6.256,6.016-7.984,8.458
						c-0.501,0.709-0.975,1.378-1.437,1.957c-0.023,0.028-0.045,0.057-0.066,0.086c-1.408,1.93-3.104,3.62-5.039,5.023
						l-35.696,25.882c-1.359,0.986-3.205,0.977-4.386-0.027c-1.04-0.884-1.157-2.024-1.134-2.624
						c0.042-1.092,0.555-2.122,1.402-2.809c2.575,0.078,5.003-1.006,6.642-2.983c1.506-1.817,2.173-4.104,1.878-6.438
						c-0.279-2.213-1.44-4.241-3.199-5.604c0.887-0.516,1.694-1.203,2.37-2.055c1.444-1.82,2.067-4.086,1.752-6.382
						c-0.31-2.263-1.548-4.33-3.418-5.686l-0.108-0.079c-0.01-0.007-0.02-0.014-0.028-0.021l-13.041-9.456l9.137-6.625
						c1.118-0.811,1.366-2.374,0.556-3.492c-0.81-1.119-2.373-1.366-3.491-0.556c-0.926,0.671-2.105,0.92-3.241,0.686
						c-1.146-0.238-2.103-0.923-2.696-1.93c-1.06-1.794-0.481-4.22,1.315-5.523l6.473-4.693c4.607-3.341,10.05-5.169,15.739-5.286
						c0.069-0.001,0.139-0.006,0.207-0.013c1.07-0.111,2.247-0.102,3.489-0.093c4.271,0.032,9.565,0.075,16.616-4.381l22.465,30.982
						L193.752,181.719z"/>
				</g>
			</g>
		</g>
		<g>
			<g>
				<g>
					<path d="M144.732,202.641c0.887-0.515,1.694-1.203,2.37-2.055c1.444-1.82,2.067-4.086,1.752-6.381
						c-0.31-2.264-1.548-4.33-3.405-5.677l-0.13-0.094c-0.007-0.005-0.013-0.01-0.02-0.015l-0.002-0.001l-21.19-15.364
						c1.514-0.779,2.797-1.976,3.676-3.465c2.356-3.992,1.176-9.312-2.687-12.113l-6.472-4.693
						c-5.408-3.921-11.792-6.076-18.469-6.235c-1.31-0.128-2.586-0.12-3.941-0.109c-4.116,0.027-8.378,0.064-14.339-3.882
						l-1.362-0.981c-1.117-0.804-2.676-0.554-3.485,0.562l-25.371,34.991c-0.389,0.537-0.549,1.206-0.445,1.861
						s0.464,1.241,1.001,1.63l7.098,5.147c3.438,2.493,5.245,5.046,6.839,7.298c0.533,0.754,1.038,1.466,1.578,2.146
						c1.71,2.334,3.766,4.379,6.11,6.08l35.697,25.883c1.565,1.135,3.381,1.699,5.175,1.699c1.936,0,3.845-0.657,5.382-1.963
						c1.487-1.264,2.454-2.98,2.779-4.87c3.49,1.675,7.734,0.868,10.217-2.13c0.895-1.079,1.493-2.323,1.77-3.645
						c3.639,2.356,8.475,1.704,11.195-1.582c1.506-1.817,2.173-4.104,1.878-6.438C147.652,206.031,146.491,204.003,144.732,202.641z
						 M143.187,197.478c-1.141,1.438-3.195,1.719-4.681,0.644c-1.114-0.81-2.681-0.562-3.491,0.557
						c-0.81,1.118-0.561,2.681,0.557,3.491h0.001c0.002,0.002,0.005,0.004,0.008,0.006l6.005,4.354
						c0.774,0.561,1.267,1.393,1.387,2.342c0.119,0.948-0.153,1.878-0.768,2.621c-1.124,1.356-3.277,1.562-4.799,0.458l-5.845-4.238
						c-0.002-0.001-0.004-0.002-0.005-0.003c-1.116-0.811-2.681-0.562-3.492,0.557c-0.811,1.118-0.562,2.681,0.557,3.491
						c0.774,0.561,1.266,1.393,1.386,2.342c0.119,0.948-0.153,1.878-0.768,2.62c-1.125,1.356-3.276,1.561-4.799,0.458l-5.053-3.664
						c-1.117-0.81-2.68-0.562-3.491,0.557c-0.811,1.118-0.562,2.681,0.557,3.491c0.918,0.666,1.493,1.754,1.537,2.913
						c0.023,0.601-0.093,1.741-1.134,2.625c-1.179,1.002-3.023,1.013-4.385,0.027l-35.696-25.883
						c-1.935-1.403-3.631-3.093-5.039-5.023c-0.021-0.029-0.043-0.058-0.066-0.086c-0.462-0.579-0.936-1.248-1.438-1.957
						c-1.728-2.442-3.878-5.48-7.985-8.458l-5.074-3.68l22.462-30.979c7.015,4.453,12.325,4.411,16.618,4.378
						c1.245-0.009,2.419-0.018,3.489,0.093c0.069,0.007,0.138,0.012,0.208,0.013c5.69,0.118,11.133,1.946,15.74,5.286l6.473,4.693
						c1.797,1.303,2.375,3.729,1.315,5.523c-0.593,1.006-1.551,1.691-2.696,1.93c-1.132,0.233-2.308-0.012-3.232-0.678l-0.01-0.007
						c-1.119-0.81-2.681-0.561-3.492,0.556c-0.811,1.118-0.562,2.681,0.556,3.492h0l27.76,20.128l0.002-0.003
						c0.001,0,0.002,0.001,0.002,0.001l-0.002,0.003c0.02,0.014,0.039,0.027,0.059,0.041c0.032,0.025,0.065,0.049,0.099,0.074
						c0.761,0.551,1.25,1.369,1.378,2.301C144.028,195.814,143.775,196.736,143.187,197.478z"/>
				</g>
			</g>
		</g>
		<g>
			<g>
				<g>
					<g>
						<path d="M128,41.732c-4.738,0-8.593,3.854-8.593,8.593v16.773c0,4.738,3.854,8.593,8.593,8.593s8.593-3.854,8.593-8.593
							V50.325C136.593,45.587,132.738,41.732,128,41.732z M131.593,67.098c0,1.981-1.611,3.593-3.593,3.593
							c-1.981,0-3.593-1.612-3.593-3.593V50.325c0-1.981,1.612-3.593,3.593-3.593c1.981,0,3.593,1.612,3.593,3.593V67.098z"/>
					</g>
				</g>
			</g>
		</g>
		<g>
			<g>
				<g>
					<path d="M128,80.583c-5.074,0-9.202,4.128-9.202,9.202s4.128,9.202,9.202,9.202s9.202-4.128,9.202-9.202
						S133.074,80.583,128,80.583z M128,93.987c-2.317,0-4.202-1.885-4.202-4.202s1.885-4.202,4.202-4.202
						c2.317,0,4.202,1.885,4.202,4.202S130.317,93.987,128,93.987z"/>
				</g>
			</g>
		</g>
	</g>
</g>
<g id="Layer_44">
</g>
<g id="Layer_45">
</g>
<g id="Layer_46">
</g>
<g id="Layer_47">
</g>
<g id="Layer_48">
</g>
<g id="Layer_49">
</g>
<g id="Layer_50">
</g>
<g id="Layer_51">
</g>
<g id="Layer_52">
</g>
<g id="Layer_53">
</g>
<g id="Layer_54">
</g>
<g id="Layer_55">
</g>
<g id="Layer_56">
</g>
<g id="Layer_57">
</g>
<g id="Layer_58">
</g>
<g id="Layer_59">
</g>
<g id="Layer_60">
</g>
<g id="Layer_61">
</g>
<g id="Layer_62">
</g>
<g id="Layer_63">
</g>
<g id="Layer_64">
</g>
<g id="Layer_65">
</g>
<g id="Layer_66">
</g>
<g id="Layer_67">
</g>
<g id="Layer_68">
</g>
<g id="Layer_69">
</g>
<g id="Layer_70">
</g>
<g id="Layer_71">
</g>
<g id="Layer_72">
</g>
<g id="Layer_73">
</g>
<g id="Layer_74">
</g>
<g id="Layer_75">
</g>
<g id="Layer_76">
</g>
<g id="Layer_77">
</g>
<g id="Layer_78">
</g>
<g id="Layer_79">
</g>
<g id="Layer_80">
</g>
</svg>
