<?xml version="1.0" encoding="utf-8"?>
<!-- Generator: Adobe Illustrator 24.0.0, SVG Export Plug-In . SVG Version: 6.00 Build 0)  -->
<svg version="1.1" xmlns="http://www.w3.org/2000/svg" xmlns:xlink="http://www.w3.org/1999/xlink" x="0px" y="0px"
	 viewBox="0 0 256 256" style="enable-background:new 0 0 256 256;" xml:space="preserve">
<style type="text/css">
	.st0{fill:#6CADEF;}
	.st1{fill:#F9D0B4;}
	.st2{fill:#5B5D60;}
	.st3{fill:#9BE5F9;}
	.st4{fill:#FC657E;}
	.st5{fill:#70D6F9;}
	.st6{fill:#F5C84C;}
	.st7{fill:#F98FA6;}
	.st8{fill:#FED690;}
	.st9{fill:#87D147;}
	.st10{fill:#B2E26D;}
	.st11{fill:#EDF4FC;}
	.st12{fill:#FCDD86;}
	.st13{fill:#754E34;}
	.st14{fill:#B598F9;}
	.st15{fill:#5290DB;}
	.st16{fill:#C7D7E5;}
	.st17{fill:#C18E6B;}
	.st18{fill:#DAE6F1;}
	.st19{fill:#3CAADC;}
	.st20{fill:#818182;}
	.st21{fill:#CBEFF7;}
	.st22{fill:#FCA265;}
	.st23{fill:#A57453;}
	.st24{fill:#8652D8;}
	.st25{fill:#966AEA;}
	.st26{fill:#FEB872;}
	.st27{fill:#EDB311;}
	.st28{fill:#EF4460;}
</style>
<g id="Layer_1">
</g>
<g id="Layer_2">
</g>
<g id="Layer_3">
</g>
<g id="Layer_4">
</g>
<g id="Layer_5">
</g>
<g id="Layer_6">
</g>
<g id="Layer_7">
</g>
<g id="Layer_8">
</g>
<g id="Layer_9">
</g>
<g id="Layer_10">
</g>
<g id="Layer_11">
</g>
<g id="Layer_12">
</g>
<g id="Layer_13">
</g>
<g id="Layer_14">
</g>
<g id="Layer_15">
</g>
<g id="Layer_16">
</g>
<g id="Layer_17">
</g>
<g id="Layer_18">
</g>
<g id="Layer_19">
</g>
<g id="Layer_20">
</g>
<g id="Layer_21">
</g>
<g id="Layer_22">
</g>
<g id="Layer_23">
</g>
<g id="Layer_24">
</g>
<g id="Layer_25">
</g>
<g id="Layer_26">
</g>
<g id="Layer_27">
</g>
<g id="Layer_28">
</g>
<g id="Layer_29">
</g>
<g id="Layer_30">
</g>
<g id="Layer_31">
</g>
<g id="Layer_32">
</g>
<g id="Layer_33">
</g>
<g id="Layer_34">
</g>
<g id="Layer_35">
</g>
<g id="Layer_36">
</g>
<g id="Layer_37">
</g>
<g id="Layer_38">
</g>
<g id="Layer_39">
</g>
<g id="Layer_40">
</g>
<g id="Layer_41">
</g>
<g id="Layer_42">
</g>
<g id="Layer_43">
</g>
<g id="Layer_44">
</g>
<g id="Layer_45">
</g>
<g id="Layer_46">
</g>
<g id="Layer_47">
</g>
<g id="Layer_48">
</g>
<g id="Layer_49">
</g>
<g id="Layer_50">
</g>
<g id="Layer_51">
</g>
<g id="Layer_52">
</g>
<g id="Layer_53">
</g>
<g id="Layer_54">
</g>
<g id="Layer_55">
</g>
<g id="Layer_56">
</g>
<g id="Layer_57">
</g>
<g id="Layer_58">
</g>
<g id="Layer_59">
</g>
<g id="Layer_60">
</g>
<g id="Layer_61">
</g>
<g id="Layer_62">
</g>
<g id="Layer_63">
</g>
<g id="Layer_64">
</g>
<g id="Layer_65">
</g>
<g id="Layer_66">
</g>
<g id="Layer_67">
</g>
<g id="Layer_68">
</g>
<g id="Layer_69">
</g>
<g id="Layer_70">
</g>
<g id="Layer_71">
</g>
<g id="Layer_72">
</g>
<g id="Layer_73">
</g>
<g id="Layer_74">
</g>
<g id="Layer_75">
	<g>
		<g>
			<g>
				<path class="st15" d="M75.449,171.704H13.218c-5.895,0-10.718,4.823-10.718,10.718v2.143c0,3.436,2.812,6.248,6.248,6.248
					h71.171c3.437,0,6.248-2.812,6.248-6.248v-2.143C86.167,176.527,81.344,171.704,75.449,171.704z"/>
			</g>
		</g>
		<g>
			<g>
				<rect x="37.619" y="156.727" class="st16" width="13.428" height="14.977"/>
			</g>
		</g>
		<g>
			<g>
				<path class="st0" d="M159.115,72.543h-62.23c-5.895,0-10.718,4.823-10.718,10.718v62.747c0,5.895,4.823,10.718,10.718,10.718
					h62.23c5.895,0,10.718-4.823,10.718-10.718V83.261C169.833,77.366,165.01,72.543,159.115,72.543z"/>
			</g>
		</g>
		<g>
			<g>
				<path class="st15" d="M159.115,171.704h-62.23c-5.895,0-10.718,4.823-10.718,10.718v2.143c0,3.436,2.812,6.248,6.248,6.248
					h71.171c3.436,0,6.248-2.812,6.248-6.248v-2.143C169.833,176.527,165.01,171.704,159.115,171.704z"/>
			</g>
		</g>
		<g>
			<g>
				<rect x="121.286" y="156.727" class="st16" width="13.428" height="14.977"/>
			</g>
		</g>
		<g>
			<g>
				<path class="st15" d="M242.782,171.704h-62.231c-5.895,0-10.718,4.823-10.718,10.718v2.143c0,3.436,2.812,6.248,6.248,6.248
					h71.171c3.437,0,6.248-2.812,6.248-6.248v-2.143C253.5,176.527,248.677,171.704,242.782,171.704z"/>
			</g>
		</g>
		<g>
			<g>
				<rect x="204.953" y="156.727" class="st16" width="13.428" height="14.977"/>
			</g>
		</g>
		<g>
			<g>
				<path class="st0" d="M247.252,190.813H8.748c-1.354,0-2.608-0.441-3.634-1.181v5.49c0,3.879,3.174,7.053,7.053,7.053h231.666
					c3.879,0,7.053-3.174,7.053-7.053v-5.49C249.86,190.372,248.606,190.813,247.252,190.813z"/>
			</g>
		</g>
		<g>
			<g>
				<path class="st11" d="M64.037,230.029H24.63c-1.853,0-3.356,1.502-3.356,3.355v6.716c0,1.854,1.502,3.356,3.356,3.356h39.407
					c1.853,0,3.356-1.502,3.356-3.356v-6.716C67.392,231.531,65.89,230.029,64.037,230.029z"/>
			</g>
		</g>
		<g>
			<g>
				<path class="st11" d="M231.37,230.029h-39.407c-1.853,0-3.355,1.502-3.355,3.355v6.716c0,1.854,1.502,3.356,3.355,3.356h39.407
					c1.853,0,3.356-1.502,3.356-3.356v-6.716C234.726,231.531,233.223,230.029,231.37,230.029z"/>
			</g>
		</g>
		<g>
			<g>
				<path class="st11" d="M13.209,202.175v5.871c0,3,2.454,5.454,5.454,5.454h218.674c3,0,5.454-2.455,5.454-5.454v-5.871H13.209z"
					/>
			</g>
		</g>
		<g>
			<g>
				<rect x="204.953" y="213.5" class="st16" width="13.428" height="16.529"/>
			</g>
		</g>
		<g>
			<g>
				<rect x="37.619" y="213.5" class="st16" width="13.428" height="16.529"/>
			</g>
		</g>
		<g>
			<g>
				<path class="st0" d="M75.449,72.543H13.218C7.323,72.543,2.5,77.366,2.5,83.261v62.747c0,5.895,4.823,10.718,10.718,10.718
					h62.231c5.895,0,10.718-4.823,10.718-10.718V83.261C86.167,77.366,81.344,72.543,75.449,72.543z"/>
			</g>
		</g>
		<g>
			<g>
				<path class="st0" d="M242.782,72.543h-62.231c-5.895,0-10.718,4.823-10.718,10.718v62.747c0,5.895,4.823,10.718,10.718,10.718
					h62.231c5.895,0,10.718-4.823,10.718-10.718V83.261C253.5,77.366,248.677,72.543,242.782,72.543z"/>
			</g>
		</g>
		<g>
			<g>
				
					<ellipse transform="matrix(0.9871 -0.1602 0.1602 0.9871 -5.6441 7.5766)" class="st10" cx="44.172" cy="38.796" rx="20.946" ry="20.946"/>
			</g>
		</g>
		<g>
			<g>
				<circle class="st4" cx="128" cy="38.796" r="20.946"/>
			</g>
		</g>
		<g>
			<g>
				
					<ellipse transform="matrix(0.9871 -0.1602 0.1602 0.9871 -3.4834 34.3804)" class="st10" cx="211.506" cy="38.796" rx="20.946" ry="20.946"/>
			</g>
		</g>
		<g>
			<g>
				<g>
					<path d="M75.448,169.204h-62.23C5.93,169.204,0,175.134,0,182.422v2.143c0,4.823,3.925,8.748,8.748,8.748h71.171
						c4.823,0,8.748-3.925,8.748-8.748v-2.143C88.667,175.134,82.737,169.204,75.448,169.204z M83.667,184.564
						c0,2.066-1.682,3.748-3.748,3.748H8.748c-2.066,0-3.748-1.682-3.748-3.748v-2.143c0-4.531,3.687-8.218,8.218-8.218h62.23
						c4.532,0,8.219,3.687,8.219,8.218V184.564z"/>
				</g>
			</g>
		</g>
		<g>
			<g>
				<g>
					<path d="M51.047,154.227H37.619c-1.381,0-2.5,1.119-2.5,2.5v14.978c0,1.381,1.119,2.5,2.5,2.5h13.428
						c1.381,0,2.5-1.119,2.5-2.5v-14.978C53.547,155.346,52.428,154.227,51.047,154.227z M48.547,169.204h-8.428v-9.978h8.428
						V169.204z"/>
				</g>
			</g>
		</g>
		<g>
			<g>
				<g>
					<path d="M159.115,70.043h-62.23c-7.288,0-13.218,5.93-13.218,13.219v62.747c0,7.288,5.93,13.218,13.218,13.218h62.23
						c7.288,0,13.218-5.93,13.218-13.218V83.262C172.333,75.973,166.403,70.043,159.115,70.043z M167.333,146.009
						c0,4.531-3.687,8.218-8.218,8.218h-62.23c-4.531,0-8.218-3.687-8.218-8.218V83.262c0-4.532,3.687-8.219,8.218-8.219h62.23
						c4.531,0,8.218,3.687,8.218,8.219V146.009z"/>
				</g>
			</g>
		</g>
		<g>
			<g>
				<g>
					<path d="M159.115,169.204h-62.23c-7.288,0-13.218,5.93-13.218,13.218v2.143c0,4.823,3.925,8.748,8.748,8.748h71.17
						c4.823,0,8.748-3.925,8.748-8.748v-2.143C172.333,175.134,166.403,169.204,159.115,169.204z M167.333,184.564
						c0,2.066-1.682,3.748-3.748,3.748h-71.17c-2.066,0-3.748-1.682-3.748-3.748v-2.143c0-4.531,3.687-8.218,8.218-8.218h62.23
						c4.531,0,8.218,3.687,8.218,8.218V184.564z"/>
				</g>
			</g>
		</g>
		<g>
			<g>
				<g>
					<path d="M134.714,154.227h-13.428c-1.381,0-2.5,1.119-2.5,2.5v14.978c0,1.381,1.119,2.5,2.5,2.5h13.428
						c1.381,0,2.5-1.119,2.5-2.5v-14.978C137.214,155.346,136.095,154.227,134.714,154.227z M132.214,169.204h-8.428v-9.978h8.428
						V169.204z"/>
				</g>
			</g>
		</g>
		<g>
			<g>
				<g>
					<path d="M242.782,169.204h-62.23c-7.289,0-13.219,5.93-13.219,13.218v2.143c0,4.823,3.925,8.748,8.748,8.748h71.171
						c4.823,0,8.748-3.925,8.748-8.748v-2.143C256,175.134,250.07,169.204,242.782,169.204z M251,184.564
						c0,2.066-1.682,3.748-3.748,3.748h-71.171c-2.066,0-3.748-1.682-3.748-3.748v-2.143c0-4.531,3.687-8.218,8.219-8.218h62.23
						c4.531,0,8.218,3.687,8.218,8.218V184.564z"/>
				</g>
			</g>
		</g>
		<g>
			<g>
				<g>
					<path d="M218.381,154.227h-13.429c-1.381,0-2.5,1.119-2.5,2.5v14.978c0,1.381,1.119,2.5,2.5,2.5h13.429
						c1.381,0,2.5-1.119,2.5-2.5v-14.978C220.881,155.346,219.762,154.227,218.381,154.227z M215.881,169.204h-8.429v-9.978h8.429
						V169.204z"/>
				</g>
			</g>
		</g>
		<g>
			<g>
				<g>
					<path d="M252.025,187.406c-0.833-0.425-1.839-0.352-2.601,0.197c-0.645,0.464-1.396,0.709-2.173,0.709H8.748
						c-0.777,0-1.529-0.245-2.174-0.709c-0.761-0.547-1.764-0.623-2.601-0.195c-0.834,0.428-1.359,1.287-1.359,2.225v5.489
						c0,5.268,4.285,9.553,9.553,9.553h231.666c5.268,0,9.553-4.285,9.553-9.553v-5.49
						C253.386,188.693,252.86,187.834,252.025,187.406z M248.386,195.122c0,2.511-2.042,4.553-4.553,4.553H12.167
						c-2.511,0-4.553-2.042-4.553-4.553v-1.884c0.374,0.05,0.752,0.074,1.134,0.074h238.504c0.382,0,0.76-0.024,1.134-0.074V195.122
						z"/>
				</g>
			</g>
		</g>
		<g>
			<g>
				<g>
					<path d="M64.037,227.528H24.63c-3.229,0-5.855,2.627-5.855,5.855v6.717c0,3.229,2.627,5.856,5.855,5.856h39.407
						c3.229,0,5.855-2.627,5.855-5.856v-6.717C69.893,230.155,67.266,227.528,64.037,227.528z M64.893,240.101
						c0,0.473-0.384,0.856-0.855,0.856H24.63c-0.472,0-0.855-0.384-0.855-0.856v-6.717c0-0.472,0.384-0.855,0.855-0.855h39.407
						c0.472,0,0.855,0.384,0.855,0.855V240.101z"/>
				</g>
			</g>
		</g>
		<g>
			<g>
				<g>
					<path d="M231.37,227.528h-39.407c-3.229,0-5.855,2.627-5.855,5.855v6.717c0,3.229,2.627,5.856,5.855,5.856h39.407
						c3.229,0,5.855-2.627,5.855-5.856v-6.717C237.226,230.155,234.599,227.528,231.37,227.528z M232.226,240.101
						c0,0.473-0.384,0.856-0.855,0.856h-39.407c-0.472,0-0.855-0.384-0.855-0.856v-6.717c0-0.472,0.384-0.855,0.855-0.855h39.407
						c0.472,0,0.855,0.384,0.855,0.855V240.101z"/>
				</g>
			</g>
		</g>
		<g>
			<g>
				<g>
					<g>
						<path d="M242.791,199.675H13.209c-1.381,0-2.5,1.119-2.5,2.5v5.871c0,4.386,3.568,7.954,7.954,7.954h218.674
							c4.386,0,7.954-3.568,7.954-7.954v-5.871C245.291,200.794,244.172,199.675,242.791,199.675z M240.291,208.046
							c0,1.629-1.325,2.954-2.954,2.954H18.663c-1.629,0-2.954-1.325-2.954-2.954v-3.371h224.582V208.046z"/>
					</g>
				</g>
			</g>
		</g>
		<g>
			<g>
				<g>
					<path d="M218.381,211h-13.428c-1.381,0-2.5,1.119-2.5,2.5v16.529c0,1.381,1.119,2.5,2.5,2.5h13.428c1.381,0,2.5-1.119,2.5-2.5
						V213.5C220.881,212.119,219.762,211,218.381,211z M215.881,227.529h-8.428V216h8.428V227.529z"/>
				</g>
			</g>
		</g>
		<g>
			<g>
				<g>
					<path d="M51.047,211H37.619c-1.381,0-2.5,1.119-2.5,2.5v16.529c0,1.381,1.119,2.5,2.5,2.5h13.428c1.381,0,2.5-1.119,2.5-2.5
						V213.5C53.547,212.119,52.428,211,51.047,211z M48.547,227.529h-8.428V216h8.428V227.529z"/>
				</g>
			</g>
		</g>
		<g>
			<g>
				<g>
					<path d="M75.448,70.043h-62.23C5.93,70.043,0,75.973,0,83.262v62.747c0,7.288,5.93,13.218,13.218,13.218h62.23
						c7.289,0,13.219-5.93,13.219-13.218V83.262C88.667,75.973,82.737,70.043,75.448,70.043z M83.667,146.009
						c0,4.531-3.687,8.218-8.219,8.218h-62.23c-4.531,0-8.218-3.687-8.218-8.218V83.262c0-4.532,3.687-8.219,8.218-8.219h62.23
						c4.532,0,8.219,3.687,8.219,8.219V146.009z"/>
				</g>
			</g>
		</g>
		<g>
			<g>
				<g>
					<path d="M44.172,15.351c-12.928,0-23.445,10.518-23.445,23.445c0,12.929,10.518,23.446,23.445,23.446
						c12.929,0,23.446-10.518,23.446-23.446C67.618,25.868,57.101,15.351,44.172,15.351z M44.172,57.242
						c-10.171,0-18.445-8.275-18.445-18.446s8.274-18.445,18.445-18.445s18.446,8.274,18.446,18.445S54.343,57.242,44.172,57.242z"
						/>
				</g>
			</g>
		</g>
		<g>
			<g>
				<path d="M52.775,34.05c-0.977-0.977-2.559-0.977-3.535,0l-6.436,6.436l-3.701-3.701c-0.977-0.977-2.559-0.977-3.535,0
					s-0.977,2.559,0,3.535l5.469,5.469c0.488,0.488,1.128,0.732,1.768,0.732s1.279-0.244,1.768-0.732l8.203-8.203
					C53.752,36.608,53.752,35.026,52.775,34.05z"/>
			</g>
		</g>
		<g>
			<g>
				<g>
					<path d="M128,15.351c-12.929,0-23.446,10.518-23.446,23.445c0,12.929,10.518,23.446,23.446,23.446s23.446-10.518,23.446-23.446
						C151.446,25.868,140.929,15.351,128,15.351z M128,57.242c-10.171,0-18.446-8.275-18.446-18.446S117.829,20.351,128,20.351
						s18.446,8.274,18.446,18.445S138.171,57.242,128,57.242z"/>
				</g>
			</g>
		</g>
		<g>
			<g>
				<g>
					<path d="M135.721,42.659l-11.906-11.905c-0.977-0.977-2.559-0.977-3.535,0s-0.977,2.56,0,3.535l11.906,11.905
						c0.488,0.488,1.128,0.732,1.768,0.732s1.279-0.244,1.768-0.732C136.697,45.218,136.697,43.635,135.721,42.659z"/>
				</g>
			</g>
			<g>
				<g>
					<path d="M135.721,30.754c-0.977-0.977-2.559-0.977-3.535,0l-11.906,11.905c-0.977,0.976-0.977,2.559,0,3.535
						c0.488,0.488,1.128,0.732,1.768,0.732s1.279-0.244,1.768-0.732l11.906-11.905C136.697,33.313,136.697,31.73,135.721,30.754z"/>
				</g>
			</g>
		</g>
		<g>
			<g>
				<g>
					<path d="M242.782,70.043h-62.23c-7.289,0-13.219,5.93-13.219,13.219v62.747c0,7.288,5.93,13.218,13.219,13.218h62.23
						c7.288,0,13.218-5.93,13.218-13.218V83.262C256,75.973,250.07,70.043,242.782,70.043z M251,146.009
						c0,4.531-3.687,8.218-8.218,8.218h-62.23c-4.532,0-8.219-3.687-8.219-8.218V83.262c0-4.532,3.687-8.219,8.219-8.219h62.23
						c4.531,0,8.218,3.687,8.218,8.219V146.009z"/>
				</g>
			</g>
		</g>
		<g>
			<g>
				<g>
					<path d="M211.506,15.351c-12.929,0-23.446,10.518-23.446,23.445c0,12.929,10.518,23.446,23.446,23.446
						c12.928,0,23.445-10.518,23.445-23.446C234.951,25.868,224.434,15.351,211.506,15.351z M211.506,57.242
						c-10.171,0-18.446-8.275-18.446-18.446s8.275-18.445,18.446-18.445s18.445,8.274,18.445,18.445S221.677,57.242,211.506,57.242z
						"/>
				</g>
			</g>
		</g>
		<g>
			<g>
				<path d="M220.109,34.05c-0.977-0.977-2.559-0.977-3.535,0l-6.436,6.436l-3.701-3.701c-0.977-0.977-2.559-0.977-3.535,0
					s-0.977,2.559,0,3.535l5.469,5.469c0.488,0.488,1.128,0.732,1.768,0.732s1.279-0.244,1.768-0.732l8.203-8.203
					C221.086,36.608,221.086,35.026,220.109,34.05z"/>
			</g>
		</g>
		<g>
			<g>
				<path class="st4" d="M148.206,233.1h-2.4v-2.3c0-1.8-1.4-3.2-3.2-3.2c-1.7,0-3.2,1.4-3.2,3.1v2.4h-2.3c-1.8,0-3.2,1.4-3.2,3.2
					c-0.1,1.7,1.3,3.2,3.2,3.2h2.3v2.3c0,1.8,1.4,3.2,3.2,3.2c1.7,0,3.2-1.4,3.2-3.1v-2.4h2.3c1.8,0,3.2-1.4,3.2-3.2
					C151.306,234.6,149.906,233.1,148.206,233.1z"/>
			</g>
		</g>
		<g>
			<g>
				<path class="st9" d="M149.506,0c-1.878,0-3.4,1.522-3.4,3.4c0,1.878,1.522,3.4,3.4,3.4c1.878,0,3.4-1.522,3.4-3.4
					C152.906,1.522,151.384,0,149.506,0z"/>
			</g>
		</g>
		<g>
			<g>
				<path class="st6" d="M169.506,249.2c-1.878,0-3.4,1.522-3.4,3.4c0,1.877,1.522,3.4,3.4,3.4c1.878,0,3.4-1.522,3.4-3.4
					C172.906,250.722,171.384,249.2,169.506,249.2z"/>
			</g>
		</g>
		<g>
			<g>
				<path class="st5" d="M12.775,53.2c-3.1-0.6-5.6-3-6.2-6.1c0-0.1-0.3-0.1-0.3,0c-0.6,3.1-3.1,5.5-6.2,6.1c-0.1,0-0.1,0.2,0,0.3
					c3.1,0.6,5.6,3,6.2,6.1c0,0.1,0.3,0.1,0.3,0c0.6-3.1,3.1-5.5,6.2-6.1C12.875,53.4,12.875,53.2,12.775,53.2z"/>
			</g>
		</g>
		<g>
			<g>
				<path class="st6" d="M179.288,23.2c-4.5-0.8-8-4.3-8.9-8.7c0-0.2-0.4-0.2-0.4,0c-0.9,4.4-4.4,7.9-8.9,8.7c-0.2,0-0.2,0.3,0,0.4
					c4.5,0.8,8,4.3,8.9,8.7c0,0.2,0.4,0.2,0.4,0c0.9-4.4,4.4-7.9,8.9-8.7C179.488,23.5,179.488,23.2,179.288,23.2z"/>
			</g>
		</g>
	</g>
</g>
<g id="Layer_76">
</g>
<g id="Layer_77">
</g>
<g id="Layer_78">
</g>
<g id="Layer_79">
</g>
<g id="Layer_80">
</g>
</svg>
