<?xml version="1.0" encoding="utf-8"?>
<!-- Generator: Adobe Illustrator 24.0.0, SVG Export Plug-In . SVG Version: 6.00 Build 0)  -->
<svg version="1.1" xmlns="http://www.w3.org/2000/svg" xmlns:xlink="http://www.w3.org/1999/xlink" x="0px" y="0px"
	 viewBox="0 0 256 256" style="enable-background:new 0 0 256 256;" xml:space="preserve">
<style type="text/css">
	.st0{fill:#6CADEF;}
	.st1{fill:#F9D0B4;}
	.st2{fill:#5B5D60;}
	.st3{fill:#9BE5F9;}
	.st4{fill:#FC657E;}
	.st5{fill:#70D6F9;}
	.st6{fill:#F5C84C;}
	.st7{fill:#F98FA6;}
	.st8{fill:#FED690;}
	.st9{fill:#87D147;}
	.st10{fill:#B2E26D;}
	.st11{fill:#EDF4FC;}
	.st12{fill:#FCDD86;}
	.st13{fill:#754E34;}
	.st14{fill:#B598F9;}
	.st15{fill:#5290DB;}
	.st16{fill:#C7D7E5;}
	.st17{fill:#C18E6B;}
	.st18{fill:#DAE6F1;}
	.st19{fill:#3CAADC;}
	.st20{fill:#818182;}
	.st21{fill:#CBEFF7;}
	.st22{fill:#FCA265;}
	.st23{fill:#A57453;}
	.st24{fill:#8652D8;}
	.st25{fill:#966AEA;}
	.st26{fill:#FEB872;}
	.st27{fill:#EDB311;}
	.st28{fill:#EF4460;}
</style>
<g id="Layer_1">
</g>
<g id="Layer_2">
</g>
<g id="Layer_3">
</g>
<g id="Layer_4">
</g>
<g id="Layer_5">
</g>
<g id="Layer_6">
</g>
<g id="Layer_7">
</g>
<g id="Layer_8">
</g>
<g id="Layer_9">
</g>
<g id="Layer_10">
</g>
<g id="Layer_11">
</g>
<g id="Layer_12">
</g>
<g id="Layer_13">
</g>
<g id="Layer_14">
</g>
<g id="Layer_15">
</g>
<g id="Layer_16">
</g>
<g id="Layer_17">
</g>
<g id="Layer_18">
</g>
<g id="Layer_19">
</g>
<g id="Layer_20">
</g>
<g id="Layer_21">
</g>
<g id="Layer_22">
</g>
<g id="Layer_23">
</g>
<g id="Layer_24">
	<g>
		<g>
			<g>
				<path class="st0" d="M223.436,248.043l-1.429-24.644c-0.451-8.096-6.114-14.958-13.977-16.938l-25.42-6.398
					c-13.474-3.391-24.069-9.202-23.932-9.134c-5.54-2.731-9.047-8.372-9.047-14.548v-7.641c-6.484,3.394-13.841,5.328-21.631,5.328
					h0c-7.79,0-15.147-1.934-21.631-5.328v7.641c0,6.167-3.495,11.81-9.026,14.538c-7.494,3.695-14.03,6.647-23.952,9.145
					l-25.42,6.398c-7.863,1.979-13.526,8.842-13.977,16.938l-1.429,24.644c-0.172,2.961,2.183,5.457,5.149,5.457h180.573
					C221.253,253.5,223.608,251.004,223.436,248.043z"/>
			</g>
		</g>
		<g>
			<g>
				<path class="st1" d="M81.048,127.116V91.571c-0.983-0.153-1.987-0.239-3.013-0.239c-10.826,0-19.603,8.777-19.603,19.603
					s8.776,19.603,19.603,19.603c1.068,0,2.109-0.109,3.131-0.273v-0.001C81.096,129.222,81.048,128.174,81.048,127.116z"/>
			</g>
		</g>
		<g>
			<g>
				<path class="st1" d="M195.569,102.352c-1.169,0.154-2.358,0.241-3.569,0.241c-6.461,0-12.391-2.265-17.048-6.04v30.563
					c0,1.059-0.048,2.107-0.118,3.149c1.022,0.165,2.063,0.273,3.131,0.273c10.826,0,19.603-8.777,19.603-19.603
					C197.568,107.852,196.837,104.947,195.569,102.352z"/>
			</g>
		</g>
		<g>
			<g>
				<path class="st2" d="M174.777,51.281c-1.572,0-2.935-1.213-2.957-2.785c-0.36-26.163-30.237-31.078-59.99-25.94
					c-25.226,4.356-43.663,26.231-43.663,51.83v19.63c2.901-1.696,6.265-2.684,9.868-2.684c1.026,0,2.03,0.086,3.013,0.239v-3.86
					c0-6.239,2.402-12.238,6.707-16.753l0.016-0.017c3.064-3.213,8.046-3.52,11.543-0.784c5.557,4.349,15.182,9.744,28.738,9.744
					c13.523,0,23.098-5.369,28.631-9.712c2.636-2.069,6.118-2.41,8.988-1.077c1.765-7.299,6.483-13.44,12.821-17.093
					C177.154,51.46,175.865,51.281,174.777,51.281z"/>
			</g>
		</g>
		<g>
			<g>
				<path class="st1" d="M164.907,75.5c0-2.202,0.269-4.339,0.765-6.389c-2.87-1.333-6.352-0.992-8.988,1.077
					c-5.533,4.343-15.108,9.712-28.631,9.712c-13.556,0-23.181-5.395-28.738-9.744c-3.497-2.737-8.478-2.43-11.543,0.784
					l-0.016,0.017c-4.305,4.515-6.707,10.514-6.707,16.753v39.405c0,25.824,21.129,46.952,46.952,46.952h0
					c25.824,0,46.952-21.129,46.952-46.952V96.553C168.826,91.585,164.907,84.002,164.907,75.5z"/>
			</g>
		</g>
		<g>
			<g>
				<path class="st1" d="M158.678,190.929c-5.54-2.731-9.047-8.372-9.047-14.548v-7.641c-6.484,3.394-13.841,5.328-21.631,5.328h0
					c-7.79,0-15.147-1.933-21.631-5.328v7.641c0,6.176-3.508,11.817-9.047,14.548c-0.868,0.428-1.722,0.845-2.57,1.253
					c4.918,13.614,17.993,23.415,33.249,23.415c15.239,0,28.302-9.779,33.233-23.37C159.57,191.42,158.637,190.909,158.678,190.929z
					"/>
			</g>
		</g>
		<g>
			<g>
				<path class="st3" d="M148.055,130.587c-5.143,0-10.12-1.541-14.336-4.354c-1.705-1.137-3.67-1.823-5.719-1.823
					c-2.049,0-4.015,0.685-5.719,1.823c-4.216,2.813-9.193,4.354-14.336,4.354H93.411v28.191c8.599,9.382,20.936,15.29,34.589,15.29
					h0c13.652,0,25.989-5.908,34.589-15.29v-28.191H148.055z"/>
			</g>
		</g>
		<g>
			<g>
				<path class="st11" d="M93.411,130.587v28.191c2.644,2.885,5.645,5.438,8.926,7.595v-35.787H93.411z"/>
			</g>
		</g>
		<g>
			<g>
				<path class="st11" d="M153.663,130.587v35.787c3.281-2.157,6.281-4.71,8.926-7.595v-28.191H153.663z"/>
			</g>
		</g>
		<g>
			<g>
				<circle class="st10" cx="192" cy="75.5" r="27.093"/>
			</g>
		</g>
		<g>
			<g>
				<path class="st11" d="M205.377,66.97c-1.951-1.952-5.119-1.952-7.07,0l-8.65,8.65l-3.963-3.963c-1.951-1.952-5.119-1.952-7.07,0
					c-1.953,1.953-1.953,5.118-0.001,7.071l7.498,7.499c0.938,0.938,2.21,1.464,3.536,1.464s2.598-0.527,3.535-1.464l12.186-12.186
					C207.33,72.088,207.33,68.922,205.377,66.97z"/>
			</g>
		</g>
		<g>
			<g>
				<path class="st4" d="M206.206,165.1h-2.4v-2.3c0-1.8-1.4-3.2-3.2-3.2c-1.7,0-3.2,1.4-3.2,3.1v2.4h-2.3c-1.8,0-3.2,1.4-3.2,3.2
					c-0.1,1.7,1.3,3.2,3.2,3.2h2.3v2.3c0,1.8,1.4,3.2,3.2,3.2c1.7,0,3.2-1.4,3.2-3.1v-2.4h2.3c1.8,0,3.2-1.4,3.2-3.2
					C209.306,166.6,207.906,165.1,206.206,165.1z"/>
			</g>
		</g>
		<g>
			<g>
				<path class="st6" d="M219.506,188.5c-1.878,0-3.4,1.522-3.4,3.4c0,1.878,1.522,3.4,3.4,3.4c1.878,0,3.4-1.522,3.4-3.4
					C222.906,190.022,221.384,188.5,219.506,188.5z"/>
			</g>
		</g>
		<g>
			<g>
				<path class="st5" d="M70.288,172.2c-3.1-0.6-5.6-3-6.2-6.1c0-0.1-0.3-0.1-0.3,0c-0.6,3.1-3.1,5.5-6.2,6.1c-0.1,0-0.1,0.2,0,0.3
					c3.1,0.6,5.6,3,6.2,6.1c0,0.1,0.3,0.1,0.3,0c0.6-3.1,3.1-5.5,6.2-6.1C70.388,172.4,70.388,172.2,70.288,172.2z"/>
			</g>
		</g>
		<g>
			<g>
				<path class="st9" d="M97.688,0c-1.878,0-3.4,1.522-3.4,3.4c0,1.878,1.522,3.4,3.4,3.4s3.4-1.522,3.4-3.4
					C101.088,1.522,99.566,0,97.688,0z"/>
			</g>
		</g>
		<g>
			<g>
				<path class="st6" d="M70.288,20.2c-4.5-0.8-8-4.3-8.9-8.7c0-0.2-0.4-0.2-0.4,0c-0.9,4.4-4.4,7.9-8.9,8.7c-0.2,0-0.2,0.3,0,0.4
					c4.5,0.8,8,4.3,8.9,8.7c0,0.2,0.4,0.2,0.4,0c0.9-4.4,4.4-7.9,8.9-8.7C70.488,20.5,70.488,20.2,70.288,20.2z"/>
			</g>
		</g>
		<g>
			<g>
				<g>
					<path d="M225.932,247.899l-1.429-24.639c-0.515-9.239-6.89-16.964-15.863-19.223l-25.42-6.398
						c-12.797-3.221-22.831-8.624-23.296-8.877c-0.046-0.026-0.093-0.052-0.141-0.075c-4.72-2.327-7.652-7.042-7.652-12.306v-7.641
						c0-0.875-0.457-1.686-1.205-2.139c-0.749-0.453-1.681-0.482-2.454-0.076c-6.393,3.346-13.28,5.042-20.472,5.042
						s-14.079-1.697-20.472-5.042c-0.774-0.406-1.705-0.377-2.454,0.076c-0.748,0.453-1.205,1.264-1.205,2.139v7.641
						c0,5.183-2.996,10.009-7.632,12.295c-6.931,3.418-13.479,6.451-23.457,8.962l-25.42,6.398
						c-8.974,2.259-15.349,9.984-15.863,19.217l-1.429,24.644c-0.121,2.096,0.635,4.173,2.075,5.699
						c1.44,1.527,3.471,2.402,5.57,2.402h180.572c2.1,0,4.13-0.875,5.57-2.402C225.297,252.071,226.053,249.994,225.932,247.899z
						 M220.22,250.167c-0.508,0.538-1.194,0.833-1.934,0.833H37.714c-0.739,0-1.426-0.296-1.934-0.833
						c-0.507-0.538-0.763-1.24-0.72-1.979l1.429-24.649c0.393-7.042,5.252-12.93,12.092-14.652l25.42-6.398
						c10.453-2.631,17.257-5.78,24.447-9.327c6.33-3.122,10.421-9.708,10.421-16.78v-3.7c6.044,2.551,12.582,3.887,19.131,3.887
						s13.087-1.335,19.131-3.887v3.7c0,7.181,4.001,13.615,10.441,16.79l0.006-0.013c1.085,0.692,3.124,1.674,7.055,3.372
						c4.014,1.734,10.285,4.175,17.366,5.957l25.42,6.398c6.84,1.722,11.699,7.61,12.092,14.658l1.429,24.645
						C220.982,248.926,220.727,249.629,220.22,250.167z"/>
				</g>
			</g>
		</g>
		<g>
			<g>
				<path d="M191.939,227.583c-1.381,0-2.5,1.119-2.5,2.5v22.65c0,1.381,1.119,2.5,2.5,2.5s2.5-1.119,2.5-2.5v-22.65
					C194.439,228.702,193.32,227.583,191.939,227.583z"/>
			</g>
		</g>
		<g>
			<g>
				<path d="M64.061,227.583c-1.381,0-2.5,1.119-2.5,2.5v22.65c0,1.381,1.119,2.5,2.5,2.5s2.5-1.119,2.5-2.5v-22.65
					C66.561,228.702,65.441,227.583,64.061,227.583z"/>
			</g>
		</g>
		<g>
			<g>
				<g>
					<path d="M83.548,127.116V91.571c0-1.232-0.898-2.281-2.116-2.47c-1.148-0.179-2.291-0.269-3.396-0.269
						c-12.188,0-22.104,9.916-22.104,22.103s9.916,22.103,22.104,22.103c1.1,0,2.254-0.1,3.529-0.306
						c1.274-0.206,2.183-1.349,2.096-2.637C83.584,128.958,83.548,128.011,83.548,127.116z M78.035,128.038
						c-9.431,0-17.104-7.672-17.104-17.103s7.673-17.103,17.104-17.103c0.17,0,0.341,0.003,0.513,0.008v33.276
						c0,0.299,0.004,0.601,0.011,0.912C78.381,128.034,78.207,128.038,78.035,128.038z"/>
				</g>
			</g>
		</g>
		<g>
			<g>
				<circle cx="149.865" cy="113.102" r="6.308"/>
			</g>
		</g>
		<g>
			<g>
				<circle cx="107.5" cy="113.102" r="6.308"/>
			</g>
		</g>
		<g>
			<g>
				<path d="M95.581,129.579l-12.245-27.794c-0.557-1.265-2.033-1.836-3.296-1.28c-1.264,0.557-1.837,2.032-1.28,3.295
					l12.245,27.794c0.412,0.936,1.329,1.493,2.289,1.493c0.337,0,0.679-0.068,1.007-0.213
					C95.564,132.317,96.138,130.842,95.581,129.579z"/>
			</g>
		</g>
		<g>
			<g>
				<path d="M175.96,100.504c-1.265-0.557-2.739,0.015-3.296,1.28l-12.245,27.794c-0.557,1.263,0.017,2.739,1.28,3.295
					c0.328,0.145,0.67,0.213,1.007,0.213c0.96,0,1.877-0.557,2.289-1.493L177.24,103.8
					C177.797,102.537,177.224,101.061,175.96,100.504z"/>
			</g>
		</g>
		<g>
			<g>
				<g>
					<path d="M197.814,101.254c-0.472-0.966-1.51-1.526-2.572-1.381c-1.107,0.146-2.198,0.22-3.242,0.22
						c-5.699,0-11.05-1.896-15.474-5.482c-0.749-0.607-1.781-0.729-2.649-0.315c-0.87,0.415-1.425,1.293-1.425,2.257v30.563
						c0,0.896-0.036,1.843-0.112,2.98c-0.087,1.289,0.821,2.432,2.097,2.637c1.276,0.206,2.431,0.305,3.528,0.305
						c12.188,0,22.104-9.916,22.104-22.103C200.068,107.57,199.31,104.313,197.814,101.254z M177.965,128.038
						c-0.172,0-0.346-0.003-0.523-0.01c0.007-0.31,0.011-0.613,0.011-0.912v-25.851c4.415,2.49,9.439,3.828,14.548,3.828
						c0.655,0,1.323-0.024,1.999-0.071c0.71,1.901,1.069,3.883,1.069,5.913C195.068,120.365,187.396,128.038,177.965,128.038z"/>
				</g>
			</g>
		</g>
		<g>
			<g>
				<g>
					<path d="M179.455,49.711c-1.479-0.617-3.054-0.93-4.678-0.93c-0.229,0-0.455-0.158-0.457-0.32
						c-0.121-8.784-3.324-15.846-9.52-20.991c-10.517-8.734-29.979-11.422-53.396-7.378c-26.502,4.576-45.737,27.41-45.737,54.294
						v19.629c0,0.896,0.479,1.723,1.256,2.168c0.386,0.221,0.814,0.332,1.244,0.332c0.436,0,0.872-0.114,1.262-0.342
						c2.621-1.532,5.598-2.342,8.606-2.342c0.85,0,1.733,0.07,2.629,0.209c0.721,0.113,1.455-0.096,2.01-0.572
						c0.555-0.475,0.874-1.168,0.874-1.898v-3.86c0-5.623,2.137-10.96,6.033-15.045c2.164-2.27,5.687-2.502,8.191-0.54
						c5.99,4.688,16.105,10.275,30.279,10.275c14.15,0,24.22-5.571,30.176-10.246c1.849-1.451,4.299-1.747,6.392-0.776
						c0.68,0.315,1.465,0.31,2.139-0.016c0.675-0.325,1.168-0.936,1.344-1.664c1.572-6.502,5.814-12.157,11.64-15.515
						c0.823-0.475,1.307-1.376,1.246-2.326S180.332,50.077,179.455,49.711z M163.981,65.979c-3.078-0.545-6.284,0.234-8.841,2.243
						c-5.336,4.188-14.366,9.179-27.089,9.179c-12.749,0-21.827-5.01-27.197-9.212c-4.541-3.555-10.943-3.113-14.909,1.044
						c-4.771,5.002-7.397,11.565-7.397,18.479v1.127c-2.714-0.066-5.358,0.373-7.881,1.27V74.386
						c0-24.444,17.49-45.206,41.589-49.367c6.952-1.201,13.505-1.792,19.513-1.792c12.981,0,23.42,2.759,29.838,8.089
						c5.019,4.167,7.614,9.959,7.714,17.213c0.029,2.095,1.317,3.907,3.152,4.749C168.599,56.692,165.65,61.083,163.981,65.979z"/>
				</g>
			</g>
		</g>
		<g>
			<g>
				<g>
					<path d="M176.526,94.611c-5.795-4.699-9.119-11.665-9.119-19.111c0-1.945,0.233-3.897,0.694-5.8
						c0.28-1.159-0.296-2.354-1.377-2.856c-3.811-1.77-8.251-1.24-11.584,1.378c-5.336,4.188-14.366,9.179-27.089,9.179
						c-12.749,0-21.827-5.01-27.197-9.212c-4.541-3.555-10.943-3.113-14.909,1.044c-4.771,5.002-7.397,11.565-7.397,18.479v39.404
						c0,27.268,22.185,49.453,49.452,49.453s49.452-22.185,49.452-49.453V96.553C177.452,95.799,177.112,95.085,176.526,94.611z
						 M172.452,127.115c0,24.511-19.941,44.453-44.452,44.453s-44.452-19.941-44.452-44.453V87.711
						c0-5.623,2.137-10.96,6.033-15.045c1.181-1.238,2.765-1.87,4.368-1.87c1.336,0,2.685,0.438,3.823,1.33
						c5.99,4.688,16.105,10.275,30.279,10.275c14.15,0,24.22-5.571,30.176-10.246c1.325-1.04,2.958-1.486,4.548-1.299
						c-0.245,1.538-0.368,3.093-0.368,4.645c0,8.556,3.646,16.584,10.045,22.213V127.115z"/>
				</g>
			</g>
		</g>
		<g>
			<g>
				<g>
					<path d="M162.325,189.978c-1.45-0.704-2.282-1.152-2.405-1.218c-0.044-0.025-0.09-0.05-0.137-0.073
						c-4.72-2.327-7.652-7.042-7.652-12.306v-7.641c0-0.875-0.457-1.686-1.205-2.139c-0.749-0.453-1.681-0.482-2.454-0.076
						c-6.393,3.346-13.28,5.042-20.472,5.042s-14.079-1.697-20.472-5.042c-0.774-0.406-1.705-0.377-2.454,0.076
						c-0.748,0.453-1.205,1.264-1.205,2.139v7.641c0,5.263-2.933,9.979-7.652,12.306c-0.86,0.424-1.706,0.837-2.549,1.242
						c-1.156,0.556-1.704,1.896-1.269,3.103c5.417,14.992,19.724,25.065,35.601,25.065c15.855,0,30.155-10.054,35.584-25.018
						C164.021,191.876,163.477,190.537,162.325,189.978z M128,213.097c-13.03,0-24.843-7.823-30.064-19.684
						c0.163-0.08,0.327-0.161,0.491-0.242c0.001,0,0.001,0,0.001,0c6.44-3.175,10.441-9.609,10.441-16.79v-3.7
						c6.044,2.551,12.582,3.887,19.131,3.887s13.087-1.335,19.131-3.887v3.7c0,7.181,4.001,13.615,10.441,16.79l0.003-0.006
						c0.145,0.086,0.305,0.176,0.48,0.271C152.829,205.283,141.018,213.097,128,213.097z"/>
				</g>
			</g>
		</g>
		<g>
			<g>
				<g>
					<path d="M162.589,128.086h-14.533c-4.615,0-9.093-1.36-12.949-3.934c-4.398-2.934-9.813-2.934-14.214,0
						c-3.856,2.573-8.334,3.934-12.948,3.934H93.411c-1.381,0-2.5,1.119-2.5,2.5v28.191c0,0.625,0.234,1.228,0.657,1.689
						c9.379,10.232,22.657,16.101,36.432,16.101s27.053-5.869,36.432-16.101c0.423-0.461,0.657-1.064,0.657-1.689v-28.191
						C165.089,129.206,163.97,128.086,162.589,128.086z M160.089,157.79c-8.391,8.768-20.03,13.778-32.089,13.778
						s-23.698-5.01-32.089-13.778v-24.704h12.033c5.605,0,11.042-1.651,15.723-4.774c2.752-1.835,5.915-1.834,8.665,0
						c4.68,3.124,10.117,4.774,15.724,4.774h12.033V157.79z"/>
				</g>
			</g>
		</g>
		<g>
			<g>
				<g>
					<path d="M102.337,128.086h-8.926c-1.381,0-2.5,1.119-2.5,2.5v28.191c0,0.625,0.234,1.228,0.657,1.689
						c2.78,3.034,5.941,5.724,9.395,7.995c0.416,0.273,0.895,0.411,1.374,0.411c0.407,0,0.815-0.099,1.187-0.299
						c0.81-0.437,1.313-1.282,1.313-2.201v-35.787C104.837,129.206,103.718,128.086,102.337,128.086z M99.837,161.43
						c-1.381-1.135-2.692-2.351-3.926-3.64v-24.704h3.926V161.43z"/>
				</g>
			</g>
		</g>
		<g>
			<g>
				<g>
					<path d="M162.589,128.086h-8.926c-1.381,0-2.5,1.119-2.5,2.5v35.787c0,0.919,0.504,1.764,1.313,2.201
						c0.371,0.2,0.779,0.299,1.187,0.299c0.479,0,0.958-0.138,1.374-0.411c3.453-2.271,6.614-4.961,9.395-7.995
						c0.423-0.461,0.657-1.064,0.657-1.689v-28.191C165.089,129.206,163.97,128.086,162.589,128.086z M160.089,157.79
						c-1.233,1.289-2.545,2.505-3.926,3.64v-28.344h3.926V157.79z"/>
				</g>
			</g>
		</g>
		<g>
			<g>
				<g>
					<path d="M192,45.907c-16.317,0-29.593,13.275-29.593,29.593s13.275,29.593,29.593,29.593s29.593-13.275,29.593-29.593
						S208.317,45.907,192,45.907z M192,100.093c-13.561,0-24.593-11.033-24.593-24.593S178.439,50.907,192,50.907
						s24.593,11.033,24.593,24.593S205.561,100.093,192,100.093z"/>
				</g>
			</g>
		</g>
		<g>
			<g>
				<g>
					<g>
						<path d="M207.146,65.203c-1.416-1.417-3.3-2.197-5.304-2.197s-3.888,0.78-5.303,2.197l-6.883,6.882l-2.194-2.194
							c-1.416-1.417-3.3-2.197-5.304-2.197s-3.888,0.78-5.303,2.196c-2.924,2.924-2.925,7.682-0.001,10.607l7.499,7.5
							c1.417,1.416,3.301,2.196,5.303,2.196c2.003,0,3.887-0.78,5.303-2.197l12.186-12.185c1.417-1.417,2.197-3.3,2.197-5.304
							S208.562,66.618,207.146,65.203z M203.609,72.273l-12.186,12.186c-0.945,0.944-2.591,0.943-3.536,0l-7.497-7.498
							c-0.975-0.976-0.975-2.562,0.001-3.537c0.471-0.472,1.099-0.731,1.767-0.731s1.296,0.26,1.768,0.732l3.963,3.963
							c0.977,0.977,2.559,0.977,3.535,0l8.651-8.65c0.941-0.942,2.591-0.943,3.534,0.001c0.473,0.472,0.732,1.1,0.732,1.768
							S204.082,71.801,203.609,72.273z"/>
					</g>
				</g>
			</g>
		</g>
	</g>
</g>
<g id="Layer_25">
</g>
<g id="Layer_26">
</g>
<g id="Layer_27">
</g>
<g id="Layer_28">
</g>
<g id="Layer_29">
</g>
<g id="Layer_30">
</g>
<g id="Layer_31">
</g>
<g id="Layer_32">
</g>
<g id="Layer_33">
</g>
<g id="Layer_34">
</g>
<g id="Layer_35">
</g>
<g id="Layer_36">
</g>
<g id="Layer_37">
</g>
<g id="Layer_38">
</g>
<g id="Layer_39">
</g>
<g id="Layer_40">
</g>
<g id="Layer_41">
</g>
<g id="Layer_42">
</g>
<g id="Layer_43">
</g>
<g id="Layer_44">
</g>
<g id="Layer_45">
</g>
<g id="Layer_46">
</g>
<g id="Layer_47">
</g>
<g id="Layer_48">
</g>
<g id="Layer_49">
</g>
<g id="Layer_50">
</g>
<g id="Layer_51">
</g>
<g id="Layer_52">
</g>
<g id="Layer_53">
</g>
<g id="Layer_54">
</g>
<g id="Layer_55">
</g>
<g id="Layer_56">
</g>
<g id="Layer_57">
</g>
<g id="Layer_58">
</g>
<g id="Layer_59">
</g>
<g id="Layer_60">
</g>
<g id="Layer_61">
</g>
<g id="Layer_62">
</g>
<g id="Layer_63">
</g>
<g id="Layer_64">
</g>
<g id="Layer_65">
</g>
<g id="Layer_66">
</g>
<g id="Layer_67">
</g>
<g id="Layer_68">
</g>
<g id="Layer_69">
</g>
<g id="Layer_70">
</g>
<g id="Layer_71">
</g>
<g id="Layer_72">
</g>
<g id="Layer_73">
</g>
<g id="Layer_74">
</g>
<g id="Layer_75">
</g>
<g id="Layer_76">
</g>
<g id="Layer_77">
</g>
<g id="Layer_78">
</g>
<g id="Layer_79">
</g>
<g id="Layer_80">
</g>
</svg>
