<?xml version="1.0" encoding="utf-8"?>
<!-- Generator: Adobe Illustrator 24.0.0, SVG Export Plug-In . SVG Version: 6.00 Build 0)  -->
<svg version="1.1" xmlns="http://www.w3.org/2000/svg" xmlns:xlink="http://www.w3.org/1999/xlink" x="0px" y="0px"
	 viewBox="0 0 256 256" style="enable-background:new 0 0 256 256;" xml:space="preserve">
<style type="text/css">
	.st0{fill:#6CADEF;}
	.st1{fill:#F9D0B4;}
	.st2{fill:#5B5D60;}
	.st3{fill:#9BE5F9;}
	.st4{fill:#FC657E;}
	.st5{fill:#70D6F9;}
	.st6{fill:#F5C84C;}
	.st7{fill:#F98FA6;}
	.st8{fill:#FED690;}
	.st9{fill:#87D147;}
	.st10{fill:#B2E26D;}
	.st11{fill:#EDF4FC;}
	.st12{fill:#FCDD86;}
	.st13{fill:#754E34;}
	.st14{fill:#B598F9;}
	.st15{fill:#5290DB;}
	.st16{fill:#C7D7E5;}
	.st17{fill:#C18E6B;}
	.st18{fill:#DAE6F1;}
	.st19{fill:#3CAADC;}
	.st20{fill:#818182;}
	.st21{fill:#CBEFF7;}
	.st22{fill:#FCA265;}
	.st23{fill:#A57453;}
	.st24{fill:#8652D8;}
	.st25{fill:#966AEA;}
	.st26{fill:#FEB872;}
	.st27{fill:#EDB311;}
	.st28{fill:#EF4460;}
</style>
<g id="Layer_1">
</g>
<g id="Layer_2">
</g>
<g id="Layer_3">
</g>
<g id="Layer_4">
</g>
<g id="Layer_5">
</g>
<g id="Layer_6">
</g>
<g id="Layer_7">
</g>
<g id="Layer_8">
</g>
<g id="Layer_9">
</g>
<g id="Layer_10">
</g>
<g id="Layer_11">
</g>
<g id="Layer_12">
</g>
<g id="Layer_13">
</g>
<g id="Layer_14">
</g>
<g id="Layer_15">
</g>
<g id="Layer_16">
</g>
<g id="Layer_17">
</g>
<g id="Layer_18">
</g>
<g id="Layer_19">
</g>
<g id="Layer_20">
</g>
<g id="Layer_21">
</g>
<g id="Layer_22">
</g>
<g id="Layer_23">
</g>
<g id="Layer_24">
</g>
<g id="Layer_25">
</g>
<g id="Layer_26">
</g>
<g id="Layer_27">
</g>
<g id="Layer_28">
	<g>
		<g>
			<g>
				<path class="st18" d="M149.398,189h-42.296c-3.906,0-7.102,3.196-7.102,7.102v50.296c0,3.906,3.196,7.102,7.102,7.102h42.296
					c3.906,0,7.102-3.196,7.102-7.102v-50.296C156.5,192.196,153.304,189,149.398,189z"/>
			</g>
		</g>
		<g>
			<g>
				<path class="st0" d="M120.368,174.5h-5.735c-2.823,0-5.132,2.31-5.132,5.132V189h16v-9.368
					C125.5,176.81,123.19,174.5,120.368,174.5z"/>
			</g>
		</g>
		<g>
			<g>
				
					<ellipse transform="matrix(0.9239 -0.3827 0.3827 0.9239 -34.0926 84.2826)" class="st4" cx="194.813" cy="127.839" rx="11.967" ry="11.967"/>
			</g>
		</g>
		<g>
			<g>
				
					<ellipse transform="matrix(0.3827 -0.9239 0.9239 0.3827 120.7782 197.8602)" class="st4" cx="208.449" cy="8.551" rx="6.051" ry="6.051"/>
			</g>
		</g>
		<g>
			<g>
				
					<ellipse transform="matrix(0.3827 -0.9239 0.9239 0.3827 55.1827 241.6896)" class="st4" cx="208.449" cy="79.551" rx="6.051" ry="6.051"/>
			</g>
		</g>
		<g>
			<g>
				<circle class="st4" cx="208.449" cy="43.974" r="20.338"/>
			</g>
		</g>
		<g>
			<g>
				<path class="st4" d="M187.625,14.67c-2.363-2.363-6.195-2.363-8.558,0c-2.363,2.363-2.363,6.195,0,8.558s6.195,2.363,8.558,0
					C189.989,20.865,189.989,17.033,187.625,14.67z"/>
			</g>
		</g>
		<g>
			<g>
				<path class="st4" d="M237.83,64.875c-2.363-2.363-6.195-2.363-8.558,0c-2.363,2.363-2.363,6.195,0,8.558s6.195,2.363,8.558,0
					C240.193,71.07,240.193,67.238,237.83,64.875z"/>
			</g>
		</g>
		<g>
			<g>
				
					<ellipse transform="matrix(0.3827 -0.9239 0.9239 0.3827 66.0657 186.9772)" class="st4" cx="172.949" cy="44.051" rx="6.051" ry="6.051"/>
			</g>
		</g>
		<g>
			<g>
				
					<ellipse transform="matrix(0.3827 -0.9239 0.9239 0.3827 109.8952 252.5726)" class="st4" cx="243.949" cy="44.051" rx="6.051" ry="6.051"/>
			</g>
		</g>
		<g>
			<g>
				<path class="st4" d="M187.625,64.875c-2.363-2.363-6.195-2.363-8.558,0c-2.363,2.363-2.363,6.195,0,8.558s6.195,2.363,8.558,0
					C189.989,71.07,189.989,67.238,187.625,64.875z"/>
			</g>
		</g>
		<g>
			<g>
				<path class="st4" d="M237.83,14.67c-2.363-2.363-6.195-2.363-8.558,0c-2.363,2.363-2.363,6.195,0,8.558s6.195,2.363,8.558,0
					C240.193,20.865,240.193,17.033,237.83,14.67z"/>
			</g>
		</g>
		<g>
			<g>
				<circle class="st3" cx="151.5" cy="135" r="10.5"/>
			</g>
		</g>
		<g>
			<g>
				<circle class="st3" cx="142.5" cy="38.5" r="7.673"/>
			</g>
		</g>
		<g>
			<g>
				<path class="st3" d="M104.5,36.68c-2.848,0-5.156,2.309-5.156,5.156c0,2.848,2.309,5.156,5.156,5.156s5.156-2.309,5.156-5.156
					C109.656,38.989,107.348,36.68,104.5,36.68z"/>
			</g>
		</g>
		<g>
			<g>
				<path class="st3" d="M157.979,83.527c-1.945-2.296-2.041-5.542-0.484-8.117c1.207-1.995,1.767-4.424,1.387-7.002
					c-0.67-4.553-4.385-8.205-8.946-8.812c-1.935-0.257-3.782,0.015-5.42,0.69c-2.663,1.098-5.788,0.281-7.671-1.9
					C133.733,54.782,129.137,52.5,124,52.5c-8.416,0-15.437,6.138-16.763,14.172c-0.391,2.369-2.592,4.015-4.988,3.852
					C96.553,70.136,91,74.52,91,81c0,1.115,0.174,2.189,0.497,3.196c0.683,2.132-0.416,4.345-2.445,5.292
					C85.457,91.164,83,94.817,83,99c0,2.922,1.194,5.563,3.12,7.466c1.568,1.549,1.815,3.975,0.488,5.734
					c-1.622,2.15-2.436,4.943-1.984,7.933c0.677,4.486,4.308,8.095,8.797,8.751c2.161,0.316,4.218-0.029,6.002-0.861
					c1.182-0.552,2.577-0.422,3.693,0.254c1.279,0.776,2.779,1.223,4.385,1.223c1.423,0,2.764-0.352,3.941-0.971
					c1.059-0.557,2.284-0.626,3.399-0.19c1.909,0.747,3.985,1.161,6.159,1.161c7.534,0,13.929-4.909,16.15-11.681
					c1.186-3.616,4.479-6.217,8.284-6.314C154.203,111.281,162,104.142,162,94.5C162,90.316,160.487,86.487,157.979,83.527z"/>
			</g>
		</g>
		<g>
			<g>
				<path class="st5" d="M148.382,218.75c-5.03,0-5.03-4-10.061-4c-5.032,0-5.032,4-10.064,4c-5.03,0-5.03-4-10.061-4
					c-5.034,0-5.034,4-10.068,4c-4.283,0-4.932-2.888-8.128-3.752v31.4c0,3.906,3.196,7.102,7.102,7.102h42.296
					c3.906,0,7.102-3.196,7.102-7.102v-31.399C153.308,215.863,152.66,218.75,148.382,218.75z"/>
			</g>
		</g>
		<g>
			<g>
				<path class="st0" d="M48.077,155.575l-31.492,31.492c-2.134,2.134-2.134,5.593,0,7.726l3.009,3.009
					c2.134,2.134,5.593,2.134,7.726,0l31.492-31.492L48.077,155.575z"/>
			</g>
		</g>
		<g>
			<g>
				<path class="st15" d="M62.185,155.542l-3.34-3.34c-0.536-0.536-1.365-0.643-2.019-0.261l-8.749,3.635l10.735,10.735l3.635-8.749
					C62.828,156.907,62.721,156.077,62.185,155.542z"/>
			</g>
		</g>
		<g>
			<g>
				<path class="st4" d="M39.081,156.521c-1.256-1.256-3.294-1.257-4.55,0l-1.772,1.772c-1.257,1.256-1.257,3.294,0,4.55
					l4.025,4.024l6.322-6.322L39.081,156.521z"/>
			</g>
		</g>
		<g>
			<g>
				<path class="st18" d="M83.738,136.263c-0.653,0.375-1.475,0.267-2.008-0.265l-3.34-3.34c-0.533-0.533-0.64-1.356-0.265-2.009
					l-21.288,21.288c0.653-0.375,1.476-0.268,2.009,0.265l3.34,3.34c0.533,0.533,0.64,1.355,0.265,2.008L83.738,136.263z"/>
			</g>
		</g>
		<g>
			<g>
				<path class="st0" d="M90,129.616l-5.229-5.23c-0.956-0.956-2.557-0.749-3.238,0.419l-3.404,5.833
					c-0.382,0.654-0.275,1.484,0.261,2.02l3.34,3.34c0.536,0.536,1.365,0.643,2.02,0.261l5.833-3.404
					C90.749,132.173,90.956,130.572,90,129.616z"/>
			</g>
		</g>
		<g>
			<g>
				<path class="st7" d="M213.233,36.17c-3.104,0-5.621,2.517-5.621,5.621s2.517,5.621,5.621,5.621c3.105,0,5.621-2.517,5.621-5.621
					S216.337,36.17,213.233,36.17z"/>
			</g>
		</g>
		<g>
			<g>
				<path class="st9" d="M196.206,203.1h-2.4v-2.3c0-1.8-1.4-3.2-3.2-3.2c-1.7,0-3.2,1.4-3.2,3.1v2.4h-2.3c-1.8,0-3.2,1.4-3.2,3.2
					c-0.1,1.7,1.3,3.2,3.2,3.2h2.3v2.3c0,1.8,1.4,3.2,3.2,3.2c1.7,0,3.2-1.4,3.2-3.1v-2.4h2.3c1.8,0,3.2-1.4,3.2-3.2
					C199.306,204.6,197.906,203.1,196.206,203.1z"/>
			</g>
		</g>
		<g>
			<g>
				<path class="st4" d="M114.506,0c-1.878,0-3.4,1.522-3.4,3.4c0,1.878,1.522,3.4,3.4,3.4c1.878,0,3.4-1.522,3.4-3.4
					C117.906,1.522,116.384,0,114.506,0z"/>
			</g>
		</g>
		<g>
			<g>
				<path class="st5" d="M54.288,109.2c-3.1-0.6-5.6-3-6.2-6.1c0-0.1-0.3-0.1-0.3,0c-0.6,3.1-3.1,5.5-6.2,6.1c-0.1,0-0.1,0.2,0,0.3
					c3.1,0.6,5.6,3,6.2,6.1c0,0.1,0.3,0.1,0.3,0c0.6-3.1,3.1-5.5,6.2-6.1C54.388,109.4,54.388,109.2,54.288,109.2z"/>
			</g>
		</g>
		<g>
			<g>
				<path class="st6" d="M179.4,231c-1.878,0-3.4,1.522-3.4,3.4c0,1.878,1.522,3.4,3.4,3.4c1.878,0,3.4-1.522,3.4-3.4
					C182.8,232.522,181.278,231,179.4,231z"/>
			</g>
		</g>
		<g>
			<g>
				<path class="st6" d="M92.288,16.2c-4.5-0.8-8-4.3-8.9-8.7c0-0.2-0.4-0.2-0.4,0c-0.9,4.4-4.4,7.9-8.9,8.7c-0.2,0-0.2,0.3,0,0.4
					c4.5,0.8,8,4.3,8.9,8.7c0,0.2,0.4,0.2,0.4,0c0.9-4.4,4.4-7.9,8.9-8.7C92.488,16.5,92.488,16.2,92.288,16.2z"/>
			</g>
		</g>
		<g>
			<g>
				<path d="M194.812,106.478c-1.381,0-2.5,1.119-2.5,2.5v4.891c0,1.381,1.119,2.5,2.5,2.5c1.381,0,2.5-1.119,2.5-2.5v-4.891
					C197.312,107.597,196.193,106.478,194.812,106.478z"/>
			</g>
		</g>
		<g>
			<g>
				<path d="M197.87,104.032h-6.114c-1.381,0-2.5,1.119-2.5,2.5s1.119,2.5,2.5,2.5h6.114c1.381,0,2.5-1.119,2.5-2.5
					S199.251,104.032,197.87,104.032z"/>
			</g>
		</g>
		<g>
			<g>
				<path d="M194.812,139.309c-1.381,0-2.5,1.119-2.5,2.5v4.891c0,1.381,1.119,2.5,2.5,2.5c1.381,0,2.5-1.119,2.5-2.5v-4.891
					C197.312,140.428,196.193,139.309,194.812,139.309z"/>
			</g>
		</g>
		<g>
			<g>
				<path d="M197.87,146.646h-6.114c-1.381,0-2.5,1.119-2.5,2.5s1.119,2.5,2.5,2.5h6.114c1.381,0,2.5-1.119,2.5-2.5
					S199.251,146.646,197.87,146.646z"/>
			</g>
		</g>
		<g>
			<g>
				<path d="M183.965,118.689l-4.236-2.446c-1.193-0.689-2.725-0.281-3.415,0.915s-0.28,2.725,0.915,3.415l4.236,2.446
					c0.394,0.228,0.823,0.335,1.248,0.335c0.863,0,1.704-0.449,2.167-1.25C185.57,120.908,185.16,119.379,183.965,118.689z"/>
			</g>
		</g>
		<g>
			<g>
				<path d="M179.14,112.373c-1.194-0.689-2.725-0.282-3.415,0.915l-3.058,5.295c-0.69,1.195-0.281,2.725,0.915,3.415
					c0.394,0.228,0.823,0.335,1.248,0.335c0.863,0,1.704-0.448,2.167-1.25l3.058-5.295
					C180.745,114.593,180.336,113.063,179.14,112.373z"/>
			</g>
		</g>
		<g>
			<g>
				<path d="M212.397,135.104l-4.236-2.445c-1.193-0.69-2.725-0.281-3.415,0.915c-0.69,1.196-0.28,2.725,0.915,3.415l4.236,2.445
					c0.394,0.228,0.823,0.335,1.248,0.335c0.863,0,1.704-0.449,2.167-1.25C214.003,137.324,213.593,135.794,212.397,135.104z"/>
			</g>
		</g>
		<g>
			<g>
				<path d="M216.044,133.68c-1.193-0.688-2.725-0.282-3.415,0.915l-3.058,5.294c-0.69,1.196-0.281,2.725,0.915,3.416
					c0.394,0.227,0.823,0.335,1.248,0.335c0.863,0,1.704-0.448,2.167-1.25l3.058-5.294C217.649,135.9,217.24,134.371,216.044,133.68
					z"/>
			</g>
		</g>
		<g>
			<g>
				<path d="M184.88,133.574c-0.691-1.196-2.222-1.605-3.415-0.915l-4.236,2.445c-1.195,0.69-1.605,2.219-0.915,3.415
					c0.463,0.802,1.304,1.25,2.167,1.25c0.425,0,0.854-0.108,1.248-0.335l4.236-2.445C185.16,136.299,185.57,134.77,184.88,133.574z
					"/>
			</g>
		</g>
		<g>
			<g>
				<path d="M180.055,139.889l-3.058-5.294c-0.69-1.197-2.221-1.603-3.415-0.915c-1.196,0.69-1.605,2.22-0.915,3.416l3.058,5.294
					c0.463,0.802,1.304,1.25,2.167,1.25c0.425,0,0.854-0.108,1.248-0.335C180.336,142.614,180.745,141.085,180.055,139.889z"/>
			</g>
		</g>
		<g>
			<g>
				<path d="M213.312,117.158c-0.691-1.197-2.222-1.604-3.415-0.915l-4.236,2.446c-1.195,0.69-1.605,2.219-0.915,3.415
					c0.463,0.802,1.304,1.25,2.167,1.25c0.425,0,0.854-0.108,1.248-0.335l4.236-2.446
					C213.593,119.883,214.003,118.354,213.312,117.158z"/>
			</g>
		</g>
		<g>
			<g>
				<path d="M216.959,118.583l-3.058-5.295c-0.69-1.197-2.221-1.603-3.415-0.915c-1.196,0.69-1.605,2.22-0.915,3.415l3.058,5.295
					c0.463,0.802,1.304,1.25,2.167,1.25c0.425,0,0.854-0.108,1.248-0.335C217.24,121.308,217.649,119.778,216.959,118.583z"/>
			</g>
		</g>
		<g>
			<g>
				<path d="M200.172,46.204h-0.541c-1.381,0-2.5,1.119-2.5,2.5s1.119,2.5,2.5,2.5h0.541c1.381,0,2.5-1.119,2.5-2.5
					S201.553,46.204,200.172,46.204z"/>
			</g>
		</g>
		<g>
			<g>
				<path d="M208.448,62.088c-1.381,0-2.5,1.119-2.5,2.5v8.375c0,1.381,1.119,2.5,2.5,2.5s2.5-1.119,2.5-2.5v-8.375
					C210.948,63.207,209.829,62.088,208.448,62.088z"/>
			</g>
		</g>
		<g>
			<g>
				<path d="M208.448,12.672c-1.381,0-2.5,1.119-2.5,2.5v8c0,1.381,1.119,2.5,2.5,2.5s2.5-1.119,2.5-2.5v-8
					C210.948,13.792,209.829,12.672,208.448,12.672z"/>
			</g>
		</g>
		<g>
			<g>
				<path d="M230.66,62.727l-5.923-5.922c-0.977-0.976-2.559-0.976-3.535,0c-0.977,0.976-0.977,2.559,0,3.536l5.923,5.922
					c0.488,0.488,1.128,0.732,1.768,0.732s1.279-0.244,1.768-0.732C231.637,65.287,231.637,63.704,230.66,62.727z"/>
			</g>
		</g>
		<g>
			<g>
				<path d="M195.452,27.52l-5.656-5.657c-0.977-0.977-2.559-0.976-3.535,0c-0.977,0.977-0.977,2.56,0,3.536l5.656,5.657
					c0.488,0.488,1.128,0.732,1.768,0.732s1.279-0.244,1.768-0.732C196.429,30.079,196.429,28.496,195.452,27.52z"/>
			</g>
		</g>
		<g>
			<g>
				<path d="M237.36,41.551h-8.376c-1.381,0-2.5,1.119-2.5,2.5s1.119,2.5,2.5,2.5h8.376c1.381,0,2.5-1.119,2.5-2.5
					S238.741,41.551,237.36,41.551z"/>
			</g>
		</g>
		<g>
			<g>
				<path d="M187.569,41.551h-8c-1.381,0-2.5,1.119-2.5,2.5s1.119,2.5,2.5,2.5h8c1.381,0,2.5-1.119,2.5-2.5
					S188.95,41.551,187.569,41.551z"/>
			</g>
		</g>
		<g>
			<g>
				<path d="M230.66,21.84c-0.977-0.977-2.559-0.977-3.535,0l-5.923,5.923c-0.977,0.976-0.977,2.559,0,3.535
					c0.488,0.488,1.128,0.732,1.768,0.732s1.279-0.244,1.768-0.732l5.923-5.923C231.637,24.399,231.637,22.816,230.66,21.84z"/>
			</g>
		</g>
		<g>
			<g>
				<path d="M195.452,57.047c-0.977-0.976-2.561-0.976-3.535,0l-5.656,5.657c-0.977,0.977-0.977,2.559,0,3.536
					c0.488,0.488,1.128,0.732,1.768,0.732s1.28-0.244,1.768-0.732l5.656-5.657C196.429,59.606,196.429,58.023,195.452,57.047z"/>
			</g>
		</g>
		<g>
			<g>
				<g>
					<path d="M149.397,186.5h-42.295c-5.294,0-9.602,4.308-9.602,9.602v50.296c0,5.294,4.308,9.602,9.602,9.602h42.295
						c5.295,0,9.603-4.308,9.603-9.602v-50.296C159,190.808,154.692,186.5,149.397,186.5z M154,246.398
						c0,2.538-2.064,4.602-4.603,4.602h-42.295c-2.538,0-4.602-2.064-4.602-4.602v-50.296c0-2.538,2.064-4.602,4.602-4.602h42.295
						c2.538,0,4.603,2.064,4.603,4.602V246.398z"/>
				</g>
			</g>
		</g>
		<g>
			<g>
				<g>
					<path d="M120.368,172h-5.735c-4.208,0-7.632,3.424-7.632,7.632V189c0,1.381,1.119,2.5,2.5,2.5h16c1.381,0,2.5-1.119,2.5-2.5
						v-9.368C128,175.424,124.576,172,120.368,172z M123,186.5h-11v-6.868c0-1.452,1.181-2.632,2.632-2.632h5.735
						c1.452,0,2.632,1.181,2.632,2.632V186.5z"/>
				</g>
			</g>
		</g>
		<g>
			<g>
				<path d="M117.5,161c-1.381,0-2.5,1.119-2.5,2.5v10c0,1.381,1.119,2.5,2.5,2.5s2.5-1.119,2.5-2.5v-10
					C120,162.119,118.881,161,117.5,161z"/>
			</g>
		</g>
		<g>
			<g>
				<path d="M120,165H93.5c-8.271,0-15,6.729-15,15v61c0,5.514-4.486,10-10,10s-10-4.486-10-10v-22c0-8.271-6.729-15-15-15
					s-15,6.729-15,15v22c0,5.514-4.486,10-10,10s-10-4.486-10-10v-15.529c0-10.276,4.001-19.937,11.268-27.203
					c0.977-0.976,0.977-2.559,0-3.535c-0.976-0.977-2.56-0.977-3.535,0C8.021,202.943,3.5,213.859,3.5,225.471V241
					c0,8.271,6.729,15,15,15s15-6.729,15-15v-22c0-5.514,4.486-10,10-10s10,4.486,10,10v22c0,8.271,6.729,15,15,15s15-6.729,15-15
					v-61c0-5.514,4.486-10,10-10H120c1.381,0,2.5-1.119,2.5-2.5S121.381,165,120,165z"/>
			</g>
		</g>
		<g>
			<g>
				<g>
					<path d="M194.812,113.373c-7.977,0-14.466,6.49-14.466,14.466c0,7.977,6.489,14.467,14.466,14.467
						c7.977,0,14.467-6.49,14.467-14.467C209.279,119.862,202.789,113.373,194.812,113.373z M194.812,137.306
						c-5.22,0-9.466-4.247-9.466-9.467c0-5.22,4.246-9.466,9.466-9.466c5.22,0,9.467,4.247,9.467,9.466
						C204.279,133.059,200.032,137.306,194.812,137.306z"/>
				</g>
			</g>
		</g>
		<g>
			<g>
				<g>
					<path d="M208.448,0c-4.715,0-8.551,3.836-8.551,8.551s3.836,8.552,8.551,8.552c4.716,0,8.552-3.836,8.552-8.552
						S213.164,0,208.448,0z M208.448,12.103c-1.958,0-3.551-1.593-3.551-3.552c0-1.958,1.593-3.551,3.551-3.551S212,6.593,212,8.551
						C212,10.51,210.406,12.103,208.448,12.103z"/>
				</g>
			</g>
		</g>
		<g>
			<g>
				<g>
					<path d="M208.448,71c-4.715,0-8.551,3.836-8.551,8.551s3.836,8.552,8.551,8.552c4.716,0,8.552-3.836,8.552-8.552
						S213.164,71,208.448,71z M208.448,83.103c-1.958,0-3.551-1.593-3.551-3.552c0-1.958,1.593-3.551,3.551-3.551
						S212,77.593,212,79.551C212,81.51,210.406,83.103,208.448,83.103z"/>
				</g>
			</g>
		</g>
		<g>
			<g>
				<g>
					<path d="M208.448,21.136c-12.593,0-22.838,10.245-22.838,22.838s10.245,22.838,22.838,22.838s22.838-10.245,22.838-22.838
						S221.041,21.136,208.448,21.136z M208.448,61.812c-9.836,0-17.838-8.002-17.838-17.838s8.002-17.838,17.838-17.838
						s17.838,8.002,17.838,17.838S218.284,61.812,208.448,61.812z"/>
				</g>
			</g>
		</g>
		<g>
			<g>
				<g>
					<path d="M189.393,12.902L189.393,12.902c-3.335-3.334-8.76-3.333-12.093,0c-3.334,3.334-3.334,8.759,0,12.093
						c1.667,1.667,3.856,2.501,6.047,2.501c2.189,0,4.379-0.833,6.046-2.501C192.727,21.662,192.727,16.236,189.393,12.902z
						 M185.857,21.46c-1.386,1.384-3.639,1.383-5.022,0c-1.385-1.385-1.385-3.638,0-5.022c0.692-0.692,1.602-1.039,2.512-1.039
						c0.909,0,1.818,0.346,2.511,1.038C187.242,17.822,187.242,20.076,185.857,21.46z"/>
				</g>
			</g>
		</g>
		<g>
			<g>
				<g>
					<path d="M239.598,63.107C239.598,63.106,239.598,63.106,239.598,63.107c-3.333-3.333-8.759-3.335-12.094,0
						c-3.334,3.334-3.334,8.759,0,12.093c1.667,1.667,3.857,2.501,6.047,2.501s4.38-0.833,6.047-2.501
						C242.932,71.866,242.932,66.441,239.598,63.107z M236.062,71.665c-1.385,1.385-3.639,1.385-5.023,0s-1.385-3.638,0-5.022
						c0.692-0.692,1.603-1.039,2.512-1.039s1.819,0.346,2.512,1.038C237.447,68.027,237.447,70.28,236.062,71.665z"/>
				</g>
			</g>
		</g>
		<g>
			<g>
				<g>
					<path d="M172.948,35.5c-4.715,0-8.551,3.836-8.551,8.551s3.836,8.552,8.551,8.552c4.716,0,8.552-3.836,8.552-8.552
						S177.664,35.5,172.948,35.5z M172.948,47.603c-1.958,0-3.551-1.593-3.551-3.552c0-1.958,1.593-3.551,3.551-3.551
						s3.552,1.593,3.552,3.551C176.5,46.01,174.906,47.603,172.948,47.603z"/>
				</g>
			</g>
		</g>
		<g>
			<g>
				<g>
					<path d="M243.948,35.5c-4.715,0-8.551,3.836-8.551,8.551s3.836,8.552,8.551,8.552c4.716,0,8.552-3.836,8.552-8.552
						S248.664,35.5,243.948,35.5z M243.948,47.603c-1.958,0-3.551-1.593-3.551-3.552c0-1.958,1.593-3.551,3.551-3.551
						s3.552,1.593,3.552,3.551C247.5,46.01,245.906,47.603,243.948,47.603z"/>
				</g>
			</g>
		</g>
		<g>
			<g>
				<g>
					<path d="M189.393,63.106c-3.335-3.333-8.76-3.333-12.093,0c0,0,0,0,0,0c-3.334,3.334-3.334,8.759,0,12.093
						c1.667,1.667,3.856,2.501,6.047,2.501c2.189,0,4.379-0.833,6.046-2.501C192.727,71.866,192.727,66.441,189.393,63.106z
						 M185.857,71.665c-1.386,1.384-3.639,1.383-5.022,0c-1.385-1.385-1.385-3.638,0-5.023c1.384-1.384,3.637-1.385,5.022,0
						C187.242,68.027,187.242,70.28,185.857,71.665z"/>
				</g>
			</g>
		</g>
		<g>
			<g>
				<g>
					<path d="M239.598,12.902c-3.334-3.333-8.76-3.333-12.094,0v0c-3.334,3.334-3.334,8.759,0,12.093
						c1.667,1.667,3.857,2.501,6.047,2.501s4.38-0.833,6.047-2.501C242.932,21.662,242.932,16.236,239.598,12.902z M236.062,21.46
						c-1.385,1.385-3.639,1.385-5.023,0s-1.385-3.638,0-5.023v0c1.385-1.385,3.639-1.384,5.023,0
						C237.447,17.822,237.447,20.076,236.062,21.46z"/>
				</g>
			</g>
		</g>
		<g>
			<g>
				<g>
					<path d="M151.5,122c-7.168,0-13,5.832-13,13s5.832,13,13,13s13-5.832,13-13S158.668,122,151.5,122z M151.5,143
						c-4.411,0-8-3.589-8-8s3.589-8,8-8s8,3.589,8,8S155.911,143,151.5,143z"/>
				</g>
			</g>
		</g>
		<g>
			<g>
				<g>
					<path d="M142.5,28.327c-5.609,0-10.173,4.563-10.173,10.173s4.563,10.173,10.173,10.173s10.173-4.563,10.173-10.173
						S148.109,28.327,142.5,28.327z M142.5,43.673c-2.853,0-5.173-2.32-5.173-5.173s2.32-5.173,5.173-5.173s5.173,2.32,5.173,5.173
						S145.353,43.673,142.5,43.673z"/>
				</g>
			</g>
		</g>
		<g>
			<g>
				<g>
					<path d="M104.5,34.18c-4.222,0-7.656,3.435-7.656,7.656c0,4.222,3.435,7.657,7.656,7.657s7.656-3.435,7.656-7.657
						C112.156,37.615,108.722,34.18,104.5,34.18z M104.5,44.493c-1.465,0-2.656-1.192-2.656-2.657s1.191-2.656,2.656-2.656
						s2.656,1.191,2.656,2.656S105.965,44.493,104.5,44.493z"/>
				</g>
			</g>
		</g>
		<g>
			<g>
				<g>
					<path d="M159.887,81.91c-1.206-1.422-1.305-3.466-0.253-5.207c1.577-2.605,2.172-5.6,1.723-8.661
						c-0.837-5.676-5.397-10.168-11.091-10.925c-2.29-0.305-4.604-0.008-6.702,0.857c-1.639,0.674-3.623,0.172-4.826-1.222
						C135.032,52.461,129.661,50,124,50c-9.587,0-17.674,6.84-19.229,16.265c-0.176,1.067-1.211,1.834-2.351,1.765
						c-3.605-0.248-7.191,1.039-9.851,3.523C89.945,74.004,88.5,77.359,88.5,81c0,1.351,0.208,2.683,0.616,3.959
						c0.281,0.877-0.19,1.829-1.121,2.263C83.442,89.345,80.5,93.968,80.5,99c0,3.501,1.372,6.784,3.863,9.244
						c0.696,0.688,0.801,1.719,0.249,2.45c-2.119,2.807-2.992,6.292-2.461,9.813c0.842,5.574,5.327,10.036,10.907,10.851
						c2.553,0.374,5.119,0.003,7.421-1.069c0.395-0.184,0.908-0.136,1.34,0.126c3.227,1.956,7.454,2.08,10.786,0.327
						c0.417-0.22,0.888-0.246,1.324-0.074c2.26,0.884,4.639,1.333,7.071,1.333c8.452,0,15.897-5.386,18.526-13.402
						c0.878-2.679,3.277-4.525,5.972-4.594c10.478-0.268,19.002-9.018,19.002-19.504C164.5,89.893,162.861,85.422,159.887,81.91z
						 M145.37,109.006c-4.803,0.123-9.061,3.351-10.596,8.034C132.821,122.998,127.286,127,121,127
						c-1.806,0-3.572-0.333-5.248-0.988c-0.775-0.304-1.59-0.455-2.404-0.455c-1.058,0-2.112,0.255-3.071,0.759
						c-1.822,0.958-4.101,0.892-5.867-0.177c-1.869-1.134-4.129-1.276-6.045-0.382c-1.414,0.659-2.998,0.884-4.584,0.653
						c-3.421-0.5-6.17-3.234-6.686-6.65c-0.329-2.18,0.206-4.33,1.508-6.055c2.079-2.756,1.773-6.548-0.727-9.019
						C86.344,103.173,85.5,101.154,85.5,99c0-3.097,1.809-5.941,4.609-7.247c3.244-1.513,4.829-5.012,3.769-8.32
						C93.627,82.651,93.5,81.832,93.5,81c0-2.241,0.881-4.298,2.482-5.793c1.651-1.542,3.874-2.341,6.097-2.188
						c3.683,0.256,7.034-2.358,7.625-5.939C110.859,60.08,116.871,55,124,55c4.206,0,8.198,1.83,10.952,5.02
						c2.591,3.001,6.913,4.062,10.518,2.577c1.305-0.539,2.695-0.713,4.137-0.523c3.438,0.457,6.299,3.274,6.803,6.697
						c0.279,1.897-0.085,3.745-1.053,5.345c-2.15,3.555-1.862,7.986,0.716,11.027c2.21,2.609,3.428,5.932,3.428,9.357
						C159.5,102.299,153.161,108.807,145.37,109.006z"/>
				</g>
			</g>
		</g>
		<g>
			<g>
				<g>
					<path d="M158.02,213.013c-0.619-0.474-1.424-0.63-2.173-0.428c-1.811,0.49-3.014,1.443-3.979,2.208
						c-1.147,0.908-1.84,1.457-3.485,1.457c-1.643,0-2.332-0.548-3.475-1.457c-1.35-1.074-3.198-2.543-6.586-2.543
						c-3.389,0-5.237,1.47-6.588,2.543c-1.143,0.909-1.833,1.457-3.477,1.457c-1.642,0-2.332-0.548-3.474-1.457
						c-1.35-1.074-3.199-2.543-6.587-2.543c-3.389,0-5.239,1.47-6.589,2.542c-1.144,0.909-1.834,1.458-3.479,1.458
						c-1.648,0-2.342-0.548-3.49-1.457c-0.968-0.766-2.172-1.719-3.986-2.208c-0.751-0.202-1.554-0.045-2.172,0.429
						c-0.618,0.473-0.98,1.207-0.98,1.985v31.4c0,5.294,4.308,9.602,9.602,9.602h42.295c5.295,0,9.603-4.308,9.603-9.602v-31.399
						C159,214.22,158.638,213.486,158.02,213.013z M154,246.398c0,2.538-2.064,4.602-4.603,4.602h-42.295
						c-2.538,0-4.602-2.064-4.602-4.602V219.45c1.267,0.903,2.978,1.8,5.628,1.8c3.39,0,5.239-1.47,6.589-2.543
						c1.144-0.909,1.834-1.457,3.479-1.457c1.643,0,2.333,0.548,3.475,1.457c1.35,1.073,3.199,2.543,6.586,2.543
						c3.389,0,5.237-1.47,6.588-2.543c1.143-0.909,1.833-1.457,3.477-1.457c1.643,0,2.332,0.548,3.475,1.457
						c1.35,1.074,3.198,2.543,6.586,2.543c2.645,0,4.353-0.895,5.618-1.796V246.398z"/>
				</g>
			</g>
		</g>
		<g>
			<g>
				<g>
					<path d="M60.579,164.542l-10.735-10.735c-0.976-0.977-2.56-0.977-3.535,0L14.817,185.3c-3.105,3.105-3.105,8.157,0,11.262
						l3.009,3.008c1.504,1.504,3.503,2.333,5.63,2.333c2.127,0,4.127-0.829,5.631-2.333l31.492-31.492
						C61.556,167.102,61.556,165.519,60.579,164.542z M25.551,196.035c-1.118,1.119-3.07,1.12-4.19,0c0,0,0,0,0,0l-3.009-3.008
						c-0.56-0.56-0.868-1.304-0.868-2.096s0.309-1.536,0.868-2.096l29.725-29.724l7.199,7.199L25.551,196.035z"/>
				</g>
			</g>
		</g>
		<g>
			<g>
				<g>
					<path d="M63.953,153.774l-3.34-3.34c-1.289-1.29-3.263-1.587-4.867-0.752l-8.628,3.585c-0.771,0.32-1.331,1.003-1.493,1.822
						c-0.163,0.818,0.094,1.664,0.685,2.254l10.735,10.735c0.473,0.474,1.111,0.732,1.768,0.732c0.162,0,0.325-0.016,0.486-0.048
						c0.819-0.162,1.502-0.722,1.822-1.493l3.585-8.628C65.538,157.037,65.242,155.063,63.953,153.774z M57.937,161.899
						l-5.449-5.449l4.995-2.076l2.529,2.53L57.937,161.899z"/>
				</g>
			</g>
		</g>
		<g>
			<g>
				<g>
					<g>
						<path d="M44.874,158.778l-4.024-4.024c-1.08-1.08-2.516-1.675-4.043-1.675s-2.963,0.595-4.042,1.675l-1.772,1.772
							c-1.08,1.08-1.675,2.516-1.675,4.043s0.595,2.963,1.675,4.042l4.024,4.025c0.469,0.469,1.105,0.732,1.768,0.732
							s1.299-0.263,1.768-0.732l6.322-6.322C45.85,161.337,45.85,159.754,44.874,158.778z M36.784,163.333l-2.257-2.257
							c-0.174-0.174-0.21-0.372-0.21-0.507c0-0.136,0.037-0.333,0.21-0.507l1.772-1.772c0.173-0.174,0.372-0.21,0.507-0.21
							c0.136,0,0.333,0.037,0.508,0.21l2.256,2.257L36.784,163.333z"/>
					</g>
				</g>
			</g>
		</g>
		<g>
			<g>
				<g>
					<path d="M85.723,134.744c-0.623-0.815-1.662-1.148-2.613-0.901l-2.566-2.565c0.248-0.952-0.086-1.99-0.9-2.613
						c-0.994-0.761-2.401-0.669-3.287,0.217l-21.288,21.288c-0.887,0.886-0.979,2.292-0.217,3.287
						c0.623,0.814,1.661,1.149,2.613,0.9l2.566,2.566c-0.247,0.952,0.087,1.989,0.901,2.612c0.451,0.345,0.986,0.515,1.519,0.515
						c0.643,0,1.284-0.248,1.768-0.732l21.287-21.287C86.392,137.144,86.485,135.739,85.723,134.744z M63.322,153.143l-2.078-2.079
						l16.008-16.009l2.079,2.079L63.322,153.143z"/>
				</g>
			</g>
		</g>
		<g>
			<g>
				<g>
					<path d="M91.768,127.849l-5.229-5.229c-1.007-1.008-2.396-1.483-3.81-1.298c-1.414,0.183-2.636,0.993-3.355,2.224l-3.403,5.831
						c-0.956,1.634-0.688,3.71,0.651,5.049l3.34,3.34c0.802,0.803,1.87,1.22,2.949,1.22c0.72,0,1.445-0.186,2.099-0.567l5.833-3.405
						c1.231-0.719,2.042-1.942,2.224-3.355C93.249,130.245,92.775,128.856,91.768,127.849z M83.043,133.776l-2.432-2.432
						l2.794-4.787l4.425,4.425L83.043,133.776z"/>
				</g>
			</g>
		</g>
		<g>
			<g>
				<g>
					<path d="M213.232,33.67c-4.478,0-8.121,3.643-8.121,8.121s3.644,8.121,8.121,8.121c4.479,0,8.122-3.643,8.122-8.121
						S217.711,33.67,213.232,33.67z M213.232,44.912c-1.721,0-3.121-1.4-3.121-3.121s1.4-3.121,3.121-3.121
						c1.722,0,3.122,1.4,3.122,3.121S214.954,44.912,213.232,44.912z"/>
				</g>
			</g>
		</g>
	</g>
</g>
<g id="Layer_29">
</g>
<g id="Layer_30">
</g>
<g id="Layer_31">
</g>
<g id="Layer_32">
</g>
<g id="Layer_33">
</g>
<g id="Layer_34">
</g>
<g id="Layer_35">
</g>
<g id="Layer_36">
</g>
<g id="Layer_37">
</g>
<g id="Layer_38">
</g>
<g id="Layer_39">
</g>
<g id="Layer_40">
</g>
<g id="Layer_41">
</g>
<g id="Layer_42">
</g>
<g id="Layer_43">
</g>
<g id="Layer_44">
</g>
<g id="Layer_45">
</g>
<g id="Layer_46">
</g>
<g id="Layer_47">
</g>
<g id="Layer_48">
</g>
<g id="Layer_49">
</g>
<g id="Layer_50">
</g>
<g id="Layer_51">
</g>
<g id="Layer_52">
</g>
<g id="Layer_53">
</g>
<g id="Layer_54">
</g>
<g id="Layer_55">
</g>
<g id="Layer_56">
</g>
<g id="Layer_57">
</g>
<g id="Layer_58">
</g>
<g id="Layer_59">
</g>
<g id="Layer_60">
</g>
<g id="Layer_61">
</g>
<g id="Layer_62">
</g>
<g id="Layer_63">
</g>
<g id="Layer_64">
</g>
<g id="Layer_65">
</g>
<g id="Layer_66">
</g>
<g id="Layer_67">
</g>
<g id="Layer_68">
</g>
<g id="Layer_69">
</g>
<g id="Layer_70">
</g>
<g id="Layer_71">
</g>
<g id="Layer_72">
</g>
<g id="Layer_73">
</g>
<g id="Layer_74">
</g>
<g id="Layer_75">
</g>
<g id="Layer_76">
</g>
<g id="Layer_77">
</g>
<g id="Layer_78">
</g>
<g id="Layer_79">
</g>
<g id="Layer_80">
</g>
</svg>
