<?xml version="1.0" encoding="utf-8"?>
<!-- Generator: Adobe Illustrator 24.0.0, SVG Export Plug-In . SVG Version: 6.00 Build 0)  -->
<svg version="1.1" xmlns="http://www.w3.org/2000/svg" xmlns:xlink="http://www.w3.org/1999/xlink" x="0px" y="0px"
	 viewBox="0 0 256 256" style="enable-background:new 0 0 256 256;" xml:space="preserve">
<style type="text/css">
	.st0{fill:#6CADEF;}
	.st1{fill:#F9D0B4;}
	.st2{fill:#5B5D60;}
	.st3{fill:#9BE5F9;}
	.st4{fill:#FC657E;}
	.st5{fill:#70D6F9;}
	.st6{fill:#F5C84C;}
	.st7{fill:#F98FA6;}
	.st8{fill:#FED690;}
	.st9{fill:#87D147;}
	.st10{fill:#B2E26D;}
	.st11{fill:#EDF4FC;}
	.st12{fill:#FCDD86;}
	.st13{fill:#754E34;}
	.st14{fill:#B598F9;}
	.st15{fill:#5290DB;}
	.st16{fill:#C7D7E5;}
	.st17{fill:#C18E6B;}
	.st18{fill:#DAE6F1;}
	.st19{fill:#3CAADC;}
	.st20{fill:#818182;}
	.st21{fill:#CBEFF7;}
	.st22{fill:#FCA265;}
	.st23{fill:#A57453;}
	.st24{fill:#8652D8;}
	.st25{fill:#966AEA;}
	.st26{fill:#FEB872;}
	.st27{fill:#EDB311;}
	.st28{fill:#EF4460;}
</style>
<g id="Layer_1">
</g>
<g id="Layer_2">
</g>
<g id="Layer_3">
</g>
<g id="Layer_4">
</g>
<g id="Layer_5">
</g>
<g id="Layer_6">
</g>
<g id="Layer_7">
</g>
<g id="Layer_8">
</g>
<g id="Layer_9">
</g>
<g id="Layer_10">
</g>
<g id="Layer_11">
</g>
<g id="Layer_12">
</g>
<g id="Layer_13">
</g>
<g id="Layer_14">
</g>
<g id="Layer_15">
</g>
<g id="Layer_16">
</g>
<g id="Layer_17">
</g>
<g id="Layer_18">
</g>
<g id="Layer_19">
</g>
<g id="Layer_20">
</g>
<g id="Layer_21">
</g>
<g id="Layer_22">
</g>
<g id="Layer_23">
</g>
<g id="Layer_24">
</g>
<g id="Layer_25">
</g>
<g id="Layer_26">
</g>
<g id="Layer_27">
</g>
<g id="Layer_28">
</g>
<g id="Layer_29">
</g>
<g id="Layer_30">
</g>
<g id="Layer_31">
</g>
<g id="Layer_32">
</g>
<g id="Layer_33">
</g>
<g id="Layer_34">
</g>
<g id="Layer_35">
</g>
<g id="Layer_36">
</g>
<g id="Layer_37">
</g>
<g id="Layer_38">
</g>
<g id="Layer_39">
</g>
<g id="Layer_40">
</g>
<g id="Layer_41">
</g>
<g id="Layer_42">
</g>
<g id="Layer_43">
</g>
<g id="Layer_44">
</g>
<g id="Layer_45">
</g>
<g id="Layer_46">
</g>
<g id="Layer_47">
</g>
<g id="Layer_48">
</g>
<g id="Layer_49">
</g>
<g id="Layer_50">
</g>
<g id="Layer_51">
</g>
<g id="Layer_52">
</g>
<g id="Layer_53">
</g>
<g id="Layer_54">
</g>
<g id="Layer_55">
</g>
<g id="Layer_56">
</g>
<g id="Layer_57">
</g>
<g id="Layer_58">
</g>
<g id="Layer_59">
</g>
<g id="Layer_60">
</g>
<g id="Layer_61">
	<g>
		<g>
			<g>
				<path class="st1" d="M152.889,52.769c-2.558-4.432-7.448-7.984-7.892-18.486L144.905,6.43c-0.007-2.173-1.77-3.93-3.943-3.93
					h-35.274c-2.178,0-3.943,1.765-3.943,3.943v34.934c0,6.133-1.909,9.814-2.812,13.083c-0.815,2.521-1.231,5.154-1.231,7.803
					v36.788c0,3.094,2.262,5.858,5.342,6.151c3.534,0.337,6.507-2.687,6.507-6.151V99.5c0,3.272,2.652,5.925,5.925,5.925
					c3.272,0,5.924-2.653,5.924-5.925v0.432c0,3.272,2.652,5.925,5.925,5.925c3.272,0,5.925-2.653,5.925-5.925V99.5
					c0,3.145,2.466,5.772,5.663,5.911c3.398,0.148,6.186-2.562,6.186-5.911c0-0.046,0-0.243,0-0.197V80.281
					c0,3.854,3.347,6.963,7.277,6.566c3.424-0.346,5.923-3.435,5.923-6.877V70.05C158.298,63.873,156.411,57.844,152.889,52.769z"/>
			</g>
		</g>
		<g>
			<g>
				<path class="st11" d="M152.889,52.769c-2.558-4.432-7.448-7.984-7.892-18.486l-0.013-3.784h-43.24v10.877
					c0,6.133-1.909,9.814-2.812,13.083c-0.815,2.521-1.231,5.154-1.231,7.803v36.788c0,3.094,2.262,5.858,5.342,6.151
					c3.534,0.337,6.507-2.687,6.507-6.151V99.5c0,3.272,2.652,5.925,5.925,5.925c3.272,0,5.924-2.653,5.924-5.925v0.432
					c0,3.272,2.652,5.925,5.925,5.925c3.272,0,5.925-2.653,5.925-5.925V99.5c0,3.145,2.466,5.772,5.663,5.911
					c3.398,0.148,6.186-2.562,6.186-5.911c0-0.046,0-0.243,0-0.197V80.281c0,3.854,3.347,6.963,7.277,6.566
					c3.424-0.346,5.923-3.435,5.923-6.877V70.05C158.298,63.873,156.411,57.844,152.889,52.769z"/>
			</g>
		</g>
		<g>
			<g>
				<path class="st17" d="M203.916,106.92l-22.833-22.833c-1.656-1.656-3.903-2.587-6.245-2.587h-16.712
					c-0.612,2.783-2.845,5.053-5.75,5.346c-3.505,0.354-6.539-2.083-7.156-5.346h-0.121v13h20.02c3.182,0,5.785,2.603,5.785,5.785
					v9.431c0,3.182-2.603,5.785-5.785,5.785H90.882c-3.182,0-5.785-2.603-5.785-5.785v-9.431c0-3.182,2.603-5.785,5.785-5.785h6.82
					v-13H81.163c-2.342,0-4.589,0.931-6.245,2.587L52.084,106.92c-1.656,1.656-2.587,3.903-2.587,6.245v129.75
					c0,5.821,4.763,10.584,10.585,10.584h135.836c5.822,0,10.585-4.763,10.585-10.585v-129.75
					C206.503,110.823,205.572,108.577,203.916,106.92z"/>
			</g>
		</g>
		<g>
			<g>
				<path class="st6" d="M157.922,175.376L147.8,165.255c-3.045-3.045-3.045-8.027,0-11.071l-7.064,7.064
					c-3.045,3.045-3.045,8.027,0,11.071l10.122,10.122c3.045,3.045,8.027,3.045,11.071,0l7.064-7.064
					C165.949,178.421,160.967,178.421,157.922,175.376z"/>
			</g>
		</g>
		<g>
			<g>
				<path class="st12" d="M114.897,158.609c-7.429-7.428-19.73-10.246-25.579-4.396c-5.85,5.85-3.032,18.151,4.396,25.58
					c7.429,7.428,15.118,5.634,20.968-0.216C120.531,173.728,122.325,166.038,114.897,158.609z"/>
			</g>
		</g>
		<g>
			<g>
				<path class="st6" d="M157.164,212.624l-39.396-36.959c-0.823,1.371-1.858,2.684-3.087,3.912
					c-1.228,1.228-2.541,2.264-3.912,3.087l36.959,39.396c2.581,2.744,6.92,2.811,9.584,0.147S159.909,215.205,157.164,212.624z"/>
			</g>
		</g>
		<g>
			<g>
				<polygon class="st27" points="142.354,173.937 129.141,186.334 137.081,193.783 149.24,180.822 				"/>
			</g>
		</g>
		<g>
			<g>
				<path class="st27" d="M121.2,193.783l-20.083,18.841c-2.745,2.581-2.811,6.92-0.148,9.584s7.003,2.597,9.584-0.147
					l18.588-19.813L121.2,193.783z"/>
			</g>
		</g>
		<g>
			<g>
				<path d="M145.098,71.511c-1.381,0-2.5,1.119-2.5,2.5v6.431c0,1.381,1.119,2.5,2.5,2.5s2.5-1.119,2.5-2.5v-6.431
					C147.598,72.63,146.479,71.511,145.098,71.511z"/>
			</g>
		</g>
		<g>
			<g>
				<g>
					<path d="M155.001,51.429c-0.665-1.138-1.424-2.167-2.226-3.256c-2.446-3.318-4.974-6.75-5.278-13.896l-0.092-27.855
						C147.393,2.881,144.502,0,140.962,0h-35.274c-3.553,0-6.443,2.891-6.443,6.443v34.935c0,4.249-1.007,7.212-1.896,9.827
						c-0.297,0.874-0.578,1.701-0.812,2.537c-0.886,2.757-1.335,5.624-1.335,8.521v36.788c0,4.438,3.34,8.233,7.605,8.64
						c2.324,0.221,4.582-0.543,6.355-2.155c0.078-0.07,0.154-0.143,0.229-0.215c1.535,1.604,3.695,2.604,6.085,2.604
						c2.2,0,4.205-0.848,5.707-2.232c1.538,1.639,3.723,2.664,6.142,2.664c2.417,0,4.6-1.023,6.137-2.659
						c1.412,1.3,3.274,2.122,5.341,2.212c2.318,0.083,4.523-0.727,6.197-2.329c1.651-1.58,2.598-3.796,2.598-6.08l0-0.176
						c0-0.007,0-0.014,0-0.021V88.396c1.54,0.778,3.286,1.113,5.029,0.938c4.582-0.464,8.171-4.577,8.171-9.364v-9.919
						C160.798,63.365,158.794,56.929,155.001,51.429z M155.798,79.97c0,2.253-1.614,4.181-3.674,4.39
						c-1.17,0.121-2.294-0.252-3.166-1.039c-0.864-0.781-1.36-1.89-1.36-3.04c0-1.381-1.119-2.5-2.5-2.5s-2.5,1.119-2.5,2.5v19.023
						c0,0.026,0,0.053,0.001,0.079c-0.001,0.038-0.002,0.078-0.002,0.117c0,0.94-0.375,1.817-1.055,2.469
						c-0.68,0.649-1.577,1.001-2.522,0.944c-1.834-0.079-3.271-1.578-3.271-3.413c0-1.381-1.119-2.5-2.5-2.5s-2.5,1.119-2.5,2.5
						v0.432c0,1.889-1.536,3.425-3.425,3.425c-1.888,0-3.424-1.536-3.424-3.425V99.5c0-1.381-1.119-2.5-2.5-2.5s-2.5,1.119-2.5,2.5
						c0,1.889-1.536,3.425-3.425,3.425c-1.888,0-3.424-1.536-3.424-3.425v-0.448c0-1.381-1.119-2.5-2.5-2.5s-2.5,1.119-2.5,2.5
						c0,1.046-0.457,2.062-1.253,2.785c-0.717,0.652-1.613,0.959-2.517,0.878c-1.727-0.165-3.08-1.774-3.08-3.663V62.264
						c0-2.393,0.373-4.759,1.109-7.033c0.011-0.034,0.021-0.068,0.031-0.104c0.197-0.714,0.461-1.491,0.741-2.313
						c0.963-2.834,2.162-6.361,2.162-11.437V6.443c0-0.796,0.647-1.443,1.443-1.443h35.274c0.793,0,1.44,0.646,1.443,1.438
						L142.5,34.39c0.371,8.77,3.631,13.194,6.25,16.749c0.739,1.003,1.436,1.949,1.974,2.881c0.035,0.06,0.072,0.118,0.111,0.176
						c3.247,4.678,4.963,10.16,4.963,15.855V79.97z"/>
				</g>
			</g>
		</g>
		<g>
			<g>
				<path d="M133.249,87.813c-1.381,0-2.5,1.119-2.5,2.5V99.5c0,1.381,1.119,2.5,2.5,2.5s2.5-1.119,2.5-2.5v-9.188
					C135.749,88.932,134.63,87.813,133.249,87.813z"/>
			</g>
		</g>
		<g>
			<g>
				<path d="M121.4,87.813c-1.381,0-2.5,1.119-2.5,2.5V99.5c0,1.381,1.119,2.5,2.5,2.5s2.5-1.119,2.5-2.5v-9.188
					C123.9,88.932,122.781,87.813,121.4,87.813z"/>
			</g>
		</g>
		<g>
			<g>
				<path d="M109.551,87.813c-1.381,0-2.5,1.119-2.5,2.5V99.5c0,1.381,1.119,2.5,2.5,2.5s2.5-1.119,2.5-2.5v-9.188
					C112.051,88.932,110.932,87.813,109.551,87.813z"/>
			</g>
		</g>
		<g>
			<g>
				<path d="M181.589,162.78c-0.976-0.977-2.56-0.977-3.535,0l-17.893,17.893c-1,1-2.339,1.552-3.768,1.552
					c-1.43,0-2.768-0.552-3.768-1.552l-10.122-10.121c-1-1.001-1.551-2.339-1.551-3.769s0.551-2.768,1.551-3.768l17.893-17.893
					c0.977-0.977,0.977-2.559,0-3.535c-0.976-0.977-2.56-0.977-3.535,0l-17.893,17.893c-1.945,1.944-3.016,4.538-3.016,7.303
					s1.071,5.359,3.016,7.304l10.122,10.121c1.945,1.945,4.539,3.017,7.304,3.017c2.765,0,5.358-1.071,7.303-3.017l17.893-17.893
					C182.566,165.339,182.566,163.757,181.589,162.78z"/>
			</g>
		</g>
		<g>
			<g>
				<path d="M167.345,148.768c-0.976-0.977-2.56-0.977-3.535,0l-15.542,15.542c-0.977,0.977-0.977,2.559,0,3.535
					c0.488,0.488,1.128,0.732,1.768,0.732s1.28-0.244,1.768-0.732l15.542-15.542C168.321,151.326,168.321,149.744,167.345,148.768z"
					/>
			</g>
		</g>
		<g>
			<g>
				<path d="M174.409,155.832c-0.976-0.977-2.56-0.977-3.535,0l-15.542,15.542c-0.977,0.977-0.977,2.559,0,3.535
					c0.488,0.488,1.128,0.732,1.768,0.732s1.28-0.244,1.768-0.732l15.542-15.542C175.386,158.391,175.386,156.809,174.409,155.832z"
					/>
			</g>
		</g>
		<g>
			<g>
				<path class="st5" d="M29.206,199.1h-2.4v-2.3c0-1.8-1.4-3.2-3.2-3.2c-1.7,0-3.2,1.4-3.2,3.1v2.4h-2.3c-1.8,0-3.2,1.4-3.2,3.2
					c-0.1,1.7,1.3,3.2,3.2,3.2h2.3v2.3c0,1.8,1.4,3.2,3.2,3.2c1.7,0,3.2-1.4,3.2-3.1v-2.4h2.3c1.8,0,3.2-1.4,3.2-3.2
					C32.306,200.6,30.906,199.1,29.206,199.1z"/>
			</g>
		</g>
		<g>
			<g>
				<path class="st9" d="M166.506,0c-1.878,0-3.4,1.522-3.4,3.4c0,1.878,1.522,3.4,3.4,3.4c1.878,0,3.4-1.522,3.4-3.4
					C169.906,1.522,168.384,0,166.506,0z"/>
			</g>
		</g>
		<g>
			<g>
				<path class="st6" d="M32.506,229c-1.878,0-3.4,1.522-3.4,3.4c0,1.878,1.522,3.4,3.4,3.4c1.878,0,3.4-1.522,3.4-3.4
					C35.906,230.522,34.384,229,32.506,229z"/>
			</g>
		</g>
		<g>
			<g>
				<path class="st4" d="M231.288,122.2c-3.1-0.6-5.6-3-6.2-6.1c0-0.1-0.3-0.1-0.3,0c-0.6,3.1-3.1,5.5-6.2,6.1c-0.1,0-0.1,0.2,0,0.3
					c3.1,0.6,5.6,3,6.2,6.1c0,0.1,0.3,0.1,0.3,0c0.6-3.1,3.1-5.5,6.2-6.1C231.388,122.4,231.388,122.2,231.288,122.2z"/>
			</g>
		</g>
		<g>
			<g>
				<path class="st6" d="M192.288,30.2c-4.5-0.8-8-4.3-8.9-8.7c0-0.2-0.4-0.2-0.4,0c-0.9,4.4-4.4,7.9-8.9,8.7c-0.2,0-0.2,0.3,0,0.4
					c4.5,0.8,8,4.3,8.9,8.7c0,0.2,0.4,0.2,0.4,0c0.9-4.4,4.4-7.9,8.9-8.7C192.488,30.5,192.488,30.2,192.288,30.2z"/>
			</g>
		</g>
		<g>
			<g>
				<g>
					<path d="M155.001,51.429c-0.665-1.138-1.424-2.168-2.227-3.257c-2.445-3.318-4.974-6.749-5.278-13.896l-0.013-3.784
						c-0.004-1.377-1.123-2.491-2.5-2.491h-43.24c-1.381,0-2.5,1.119-2.5,2.5v10.877c0,4.25-1.007,7.213-1.896,9.828
						c-0.297,0.874-0.578,1.701-0.812,2.537c-0.886,2.757-1.335,5.624-1.335,8.521v36.788c0,4.438,3.34,8.233,7.605,8.64
						c2.324,0.221,4.582-0.543,6.355-2.155c0.078-0.07,0.154-0.143,0.229-0.215c1.535,1.604,3.695,2.604,6.085,2.604
						c2.2,0,4.205-0.848,5.707-2.232c1.538,1.639,3.723,2.664,6.142,2.664c2.417,0,4.6-1.023,6.138-2.659
						c1.412,1.299,3.274,2.122,5.341,2.212c2.328,0.091,4.523-0.726,6.197-2.329c1.651-1.58,2.598-3.796,2.598-6.08l0-0.175
						c0-0.008,0-0.015,0-0.021V88.397c1.539,0.778,3.286,1.114,5.028,0.937c4.583-0.463,8.172-4.576,8.172-9.364v-9.919
						C160.798,63.365,158.794,56.929,155.001,51.429z M155.798,79.97c0,2.254-1.614,4.182-3.674,4.39
						c-1.17,0.121-2.294-0.252-3.166-1.039c-0.864-0.781-1.36-1.89-1.36-3.04c0-1.381-1.119-2.5-2.5-2.5s-2.5,1.119-2.5,2.5v19.023
						c0,0.026,0,0.053,0.001,0.079c-0.001,0.038-0.002,0.078-0.002,0.117c0,0.94-0.375,1.817-1.055,2.469
						c-0.68,0.649-1.577,1.001-2.522,0.944c-1.834-0.079-3.271-1.578-3.271-3.413c0-1.381-1.119-2.5-2.5-2.5s-2.5,1.119-2.5,2.5
						v0.433c0,1.888-1.536,3.424-3.425,3.424c-1.888,0-3.424-1.536-3.424-3.425V99.5c0-1.381-1.119-2.5-2.5-2.5s-2.5,1.119-2.5,2.5
						c0,1.889-1.536,3.425-3.425,3.425c-1.888,0-3.424-1.536-3.424-3.425v-0.448c0-1.381-1.119-2.5-2.5-2.5s-2.5,1.119-2.5,2.5
						c0,1.046-0.457,2.062-1.253,2.785c-0.716,0.652-1.606,0.958-2.517,0.878c-1.727-0.165-3.08-1.774-3.08-3.663V62.264
						c0-2.393,0.373-4.759,1.109-7.033c0.011-0.034,0.021-0.068,0.031-0.104c0.197-0.714,0.461-1.49,0.741-2.313
						c0.963-2.834,2.162-6.361,2.162-11.438V33h38.25l0.005,1.39c0.371,8.771,3.631,13.194,6.25,16.749
						c0.739,1.002,1.437,1.948,1.975,2.881c0.035,0.06,0.072,0.118,0.111,0.176c3.247,4.678,4.963,10.16,4.963,15.855V79.97z"/>
				</g>
			</g>
		</g>
		<g>
			<g>
				<g>
					<path d="M205.683,105.152L182.85,82.319c-2.141-2.141-4.987-3.319-8.013-3.319h-16.712c-1.174,0-2.189,0.816-2.442,1.963
						c-0.408,1.857-1.838,3.223-3.559,3.396c-2.1,0.202-4.056-1.248-4.448-3.324c-0.223-1.181-1.255-2.035-2.457-2.035h-0.121
						c-1.381,0-2.5,1.119-2.5,2.5v13c0,1.381,1.119,2.5,2.5,2.5h20.02c1.811,0,3.284,1.474,3.284,3.285v9.431
						c0,1.811-1.473,3.284-3.284,3.284H90.882c-1.811,0-3.285-1.474-3.285-3.285v-9.431c0-1.811,1.474-3.284,3.285-3.284h6.819
						c1.381,0,2.5-1.119,2.5-2.5v-13c0-1.381-1.119-2.5-2.5-2.5H81.163c-3.026,0-5.872,1.179-8.013,3.319l-22.833,22.833
						c-2.141,2.141-3.319,4.986-3.319,8.013v129.75c0,7.215,5.87,13.085,13.084,13.085h135.836c7.215,0,13.084-5.87,13.084-13.085
						V113.166C209.002,110.14,207.824,107.293,205.683,105.152z M204.002,242.915c0,4.458-3.626,8.085-8.084,8.085H60.082
						c-4.458,0-8.084-3.627-8.084-8.085v-129.75c0-1.667,0.676-3.299,1.854-4.478l22.833-22.833C77.881,84.659,79.472,84,81.163,84
						h14.039v8h-4.319c-4.568,0-8.285,3.716-8.285,8.284v9.431c0,4.568,3.716,8.285,8.285,8.285h74.236
						c4.568,0,8.284-3.716,8.284-8.284v-9.431c0-4.568-3.716-8.285-8.284-8.285h-17.52v-3.622c1.511,0.774,3.248,1.134,5.029,0.956
						c3.205-0.324,5.94-2.385,7.286-5.334h14.924c1.691,0,3.282,0.659,4.478,1.854l22.833,22.833
						c1.196,1.196,1.855,2.787,1.855,4.479V242.915z"/>
				</g>
			</g>
		</g>
		<g>
			<g>
				<g>
					<path d="M170.761,173.609c-0.977-0.977-2.559-0.977-3.536,0c-2.079,2.076-5.458,2.076-7.536,0l-10.122-10.122
						c-2.076-2.076-2.077-5.452-0.006-7.53l0.006-0.006c0.976-0.977,0.976-2.56,0-3.535c-0.977-0.977-2.559-0.977-3.536,0
						l-7.063,7.064c-1.945,1.944-3.016,4.538-3.016,7.303c0,2.766,1.071,5.359,3.016,7.304l10.121,10.121
						c1.945,1.945,4.539,3.017,7.304,3.017c2.765,0,5.358-1.071,7.303-3.017l7.064-7.063
						C171.737,176.169,171.737,174.586,170.761,173.609z M160.162,180.673c-1,1-2.339,1.552-3.768,1.552
						c-1.43,0-2.768-0.552-3.768-1.552l-10.122-10.121c-1-1.001-1.551-2.339-1.551-3.769s0.551-2.768,1.552-3.768l0.81-0.81
						c0.435,1.766,1.341,3.439,2.719,4.816l10.122,10.122c1.377,1.378,3.05,2.283,4.816,2.719L160.162,180.673z"/>
				</g>
			</g>
		</g>
		<g>
			<g>
				<g>
					<path d="M116.665,156.842L116.665,156.842c-9.875-9.875-23.269-10.242-29.115-4.396c-5.846,5.846-5.479,19.24,4.396,29.115
						c3.742,3.742,7.777,5.633,12.011,5.633c0.334,0,0.671-0.012,1.007-0.035c3.99-0.28,7.962-2.29,11.484-5.813
						C124.188,173.606,124.269,164.446,116.665,156.842z M112.913,177.81c-2.658,2.658-5.528,4.167-8.298,4.361
						c-3.103,0.216-6.166-1.178-9.133-4.146c-6.795-6.796-8.932-17.509-4.396-22.045c1.63-1.63,4.058-2.398,6.815-2.398
						c4.915,0,10.876,2.441,15.229,6.795C120.244,167.492,116.939,173.784,112.913,177.81z"/>
				</g>
			</g>
		</g>
		<g>
			<g>
				<g>
					<path d="M158.875,210.801l-39.396-36.959c-0.551-0.517-1.308-0.754-2.055-0.653c-0.749,0.104-1.41,0.542-1.799,1.19
						c-0.717,1.194-1.629,2.348-2.711,3.431c0,0,0,0,0,0c-1.08,1.081-2.234,1.993-3.431,2.711c-0.647,0.39-1.085,1.051-1.189,1.799
						c-0.104,0.749,0.136,1.504,0.653,2.056l36.961,39.398c1.716,1.824,4.04,2.851,6.544,2.889c0.049,0.001,0.097,0.001,0.146,0.001
						c2.45,0,4.747-0.951,6.484-2.688c1.771-1.771,2.725-4.125,2.686-6.63C161.728,214.842,160.702,212.519,158.875,210.801z
						 M155.544,220.44c-0.806,0.806-1.865,1.228-3.017,1.223c-1.14-0.018-2.198-0.484-2.977-1.313l-34.993-37.3
						c0.649-0.526,1.281-1.095,1.89-1.705h0c0.61-0.61,1.179-1.241,1.705-1.89l37.298,34.99c0.831,0.78,1.297,1.838,1.315,2.978
						S156.35,219.635,155.544,220.44z"/>
				</g>
			</g>
		</g>
		<g>
			<g>
				<g>
					<path d="M151.007,179.055l-6.885-6.885c-0.955-0.955-2.495-0.979-3.478-0.056l-13.214,12.396
						c-0.504,0.473-0.79,1.133-0.79,1.823s0.286,1.351,0.79,1.823l7.94,7.449c0.464,0.436,1.076,0.677,1.71,0.677
						c0.026,0,0.053,0,0.08-0.001c0.663-0.021,1.29-0.305,1.744-0.789l12.159-12.961
						C151.986,181.549,151.962,180.009,151.007,179.055z M136.968,190.249l-4.174-3.915l9.504-8.917l3.461,3.461L136.968,190.249z"
						/>
				</g>
			</g>
		</g>
		<g>
			<g>
				<g>
					<path d="M130.964,200.536l-7.94-8.464c-0.946-1.008-2.527-1.057-3.534-0.112l-20.086,18.843
						c-1.824,1.716-2.851,4.04-2.889,6.544c-0.039,2.504,0.916,4.858,2.687,6.629c1.736,1.736,4.034,2.688,6.483,2.688
						c0.048,0,0.097-0.001,0.146-0.001c2.504-0.039,4.828-1.064,6.545-2.891l18.588-19.813
						C131.866,202.996,131.866,201.498,130.964,200.536z M108.731,220.348c-0.78,0.83-1.838,1.297-2.978,1.314
						c-1.155,0.057-2.211-0.416-3.017-1.222s-1.24-1.877-1.222-3.017c0.017-1.14,0.484-2.197,1.313-2.977l18.26-17.13l4.625,4.93
						L108.731,220.348z"/>
				</g>
			</g>
		</g>
	</g>
</g>
<g id="Layer_62">
</g>
<g id="Layer_63">
</g>
<g id="Layer_64">
</g>
<g id="Layer_65">
</g>
<g id="Layer_66">
</g>
<g id="Layer_67">
</g>
<g id="Layer_68">
</g>
<g id="Layer_69">
</g>
<g id="Layer_70">
</g>
<g id="Layer_71">
</g>
<g id="Layer_72">
</g>
<g id="Layer_73">
</g>
<g id="Layer_74">
</g>
<g id="Layer_75">
</g>
<g id="Layer_76">
</g>
<g id="Layer_77">
</g>
<g id="Layer_78">
</g>
<g id="Layer_79">
</g>
<g id="Layer_80">
</g>
</svg>
