<?xml version="1.0" encoding="utf-8"?>
<!-- Generator: Adobe Illustrator 24.0.0, SVG Export Plug-In . SVG Version: 6.00 Build 0)  -->
<svg version="1.1" xmlns="http://www.w3.org/2000/svg" xmlns:xlink="http://www.w3.org/1999/xlink" x="0px" y="0px"
	 viewBox="0 0 256 256" style="enable-background:new 0 0 256 256;" xml:space="preserve">
<style type="text/css">
	.st0{fill:#6CADEF;}
	.st1{fill:#F9D0B4;}
	.st2{fill:#5B5D60;}
	.st3{fill:#9BE5F9;}
	.st4{fill:#FC657E;}
	.st5{fill:#70D6F9;}
	.st6{fill:#F5C84C;}
	.st7{fill:#F98FA6;}
	.st8{fill:#FED690;}
	.st9{fill:#87D147;}
	.st10{fill:#B2E26D;}
	.st11{fill:#EDF4FC;}
	.st12{fill:#FCDD86;}
	.st13{fill:#754E34;}
	.st14{fill:#B598F9;}
	.st15{fill:#5290DB;}
	.st16{fill:#C7D7E5;}
	.st17{fill:#C18E6B;}
	.st18{fill:#DAE6F1;}
	.st19{fill:#3CAADC;}
	.st20{fill:#818182;}
	.st21{fill:#CBEFF7;}
	.st22{fill:#FCA265;}
	.st23{fill:#A57453;}
	.st24{fill:#8652D8;}
	.st25{fill:#966AEA;}
	.st26{fill:#FEB872;}
	.st27{fill:#EDB311;}
	.st28{fill:#EF4460;}
</style>
<g id="Layer_1">
</g>
<g id="Layer_2">
</g>
<g id="Layer_3">
</g>
<g id="Layer_4">
</g>
<g id="Layer_5">
</g>
<g id="Layer_6">
</g>
<g id="Layer_7">
</g>
<g id="Layer_8">
</g>
<g id="Layer_9">
</g>
<g id="Layer_10">
</g>
<g id="Layer_11">
</g>
<g id="Layer_12">
</g>
<g id="Layer_13">
</g>
<g id="Layer_14">
</g>
<g id="Layer_15">
</g>
<g id="Layer_16">
</g>
<g id="Layer_17">
</g>
<g id="Layer_18">
</g>
<g id="Layer_19">
</g>
<g id="Layer_20">
</g>
<g id="Layer_21">
</g>
<g id="Layer_22">
</g>
<g id="Layer_23">
</g>
<g id="Layer_24">
</g>
<g id="Layer_25">
</g>
<g id="Layer_26">
</g>
<g id="Layer_27">
</g>
<g id="Layer_28">
</g>
<g id="Layer_29">
</g>
<g id="Layer_30">
</g>
<g id="Layer_31">
</g>
<g id="Layer_32">
</g>
<g id="Layer_33">
</g>
<g id="Layer_34">
</g>
<g id="Layer_35">
</g>
<g id="Layer_36">
</g>
<g id="Layer_37">
</g>
<g id="Layer_38">
</g>
<g id="Layer_39">
</g>
<g id="Layer_40">
</g>
<g id="Layer_41">
</g>
<g id="Layer_42">
</g>
<g id="Layer_43">
</g>
<g id="Layer_44">
</g>
<g id="Layer_45">
</g>
<g id="Layer_46">
	<g>
		<g>
			<g>
				<path class="st7" d="M149.788,34.047c-5.524-4.852-13.986-4.236-19.185,0.963l-1.561,1.561c-0.576,0.576-1.509,0.576-2.084,0
					l-1.561-1.561c-5.199-5.199-13.661-5.815-19.185-0.963c-6.053,5.317-6.276,14.544-0.671,20.15l19.16,19.16
					c1.822,1.822,4.776,1.822,6.598,0l19.16-19.16C156.064,48.591,155.841,39.364,149.788,34.047z"/>
			</g>
		</g>
		<g>
			<g>
				<path class="st0" d="M202.409,214.718c-0.357-6.408-4.839-11.84-11.063-13.407l-20.121-5.064
					c-10.665-2.684-19.052-7.284-18.943-7.23c-4.385-2.162-7.161-6.626-7.161-11.515v-6.048c-5.133,2.687-10.956,4.217-17.122,4.217
					h0c-6.166,0-11.989-1.531-17.121-4.217v6.048c0,4.892-2.786,9.358-7.174,11.521c-5.919,2.918-11.089,5.25-18.93,7.224
					l-20.121,5.064c-6.224,1.567-10.707,6.999-11.063,13.407l-1.953,33.674c-0.161,2.772,2.044,5.108,4.821,5.108h143.083
					c2.777,0,4.981-2.336,4.821-5.108L202.409,214.718z"/>
			</g>
		</g>
		<g>
			<g>
				<path class="st1" d="M159.855,94.055c-2.43-2.549-6.381-2.783-9.151-0.609c-4.38,3.438-11.958,7.687-22.663,7.687
					c-10.73,0-18.349-4.27-22.747-7.712c-2.768-2.166-6.711-1.923-9.136,0.62l-0.013,0.013c-3.408,3.574-5.309,8.323-5.309,13.261
					v31.19c0,20.44,16.724,37.164,37.164,37.164h0c20.44,0,37.164-16.724,37.164-37.164v-31.19
					C165.164,102.378,163.263,97.629,159.855,94.055z"/>
			</g>
		</g>
		<g>
			<g>
				<path class="st1" d="M167.549,110.182c-0.812,0-1.607,0.068-2.385,0.189v28.135c0,0.838-0.038,1.668-0.094,2.492
					c0.809,0.13,1.633,0.216,2.479,0.216c8.569,0,15.516-6.947,15.516-15.516S176.119,110.182,167.549,110.182z"/>
			</g>
		</g>
		<g>
			<g>
				<path class="st1" d="M90.836,138.506v-28.135c-0.778-0.121-1.573-0.189-2.385-0.189c-8.57,0-15.516,6.947-15.516,15.516
					s6.947,15.516,15.516,15.516c0.846,0,1.669-0.086,2.478-0.216v-0.001C90.874,140.173,90.836,139.344,90.836,138.506z"/>
			</g>
		</g>
		<g>
			<g>
				<path class="st2" d="M174.582,89.604c-0.3-1.482-1.609-2.537-3.121-2.537H84.389c-1.541,0-2.876,1.1-3.139,2.618
					c-0.4,2.308-0.61,4.675-0.61,7.085v15.538c2.296-1.343,4.959-2.125,7.81-2.125c0.812,0,1.607,0.069,2.385,0.189v-2.804
					c0-5.013,1.897-9.84,5.309-13.511l0.013-0.014c2.426-2.544,6.369-2.786,9.136-0.62c4.398,3.442,12.017,7.712,22.747,7.712
					c10.676,0,18.243-4.227,22.628-7.66c2.762-2.162,6.906-1.854,9.304,0.706c3.334,3.559,5.191,8.255,5.191,13.136v3.055
					c0.778-0.121,1.573-0.189,2.385-0.189c2.886,0,5.578,0.802,7.893,2.175V99.6C175.442,95.55,175.121,92.267,174.582,89.604z"/>
			</g>
		</g>
		<g>
			<g>
				<path class="st1" d="M152.283,189.017c-4.385-2.162-7.161-6.626-7.161-11.515v-6.048c-5.133,2.687-10.955,4.217-17.122,4.217h0
					c-6.166,0-11.989-1.531-17.121-4.217v6.048c0,4.889-2.776,9.353-7.161,11.515c-0.687,0.339-1.363,0.668-2.035,0.992
					c3.893,10.776,14.242,18.533,26.317,18.533c12.062,0,22.402-7.74,26.305-18.498C152.989,189.406,152.25,189.001,152.283,189.017
					z"/>
			</g>
		</g>
		<g>
			<g>
				<path class="st5" d="M48.206,27.1h-2.4v-2.3c0-1.8-1.4-3.2-3.2-3.2c-1.7,0-3.2,1.4-3.2,3.1v2.4h-2.3c-1.8,0-3.2,1.4-3.2,3.2
					c-0.1,1.7,1.3,3.2,3.2,3.2h2.3v2.3c0,1.8,1.4,3.2,3.2,3.2c1.7,0,3.2-1.4,3.2-3.1v-2.4h2.3c1.8,0,3.2-1.4,3.2-3.2
					C51.306,28.6,49.906,27.1,48.206,27.1z"/>
			</g>
		</g>
		<g>
			<g>
				<path class="st4" d="M64.506,0c-1.878,0-3.4,1.522-3.4,3.4c0,1.878,1.522,3.4,3.4,3.4c1.878,0,3.4-1.522,3.4-3.4
					C67.906,1.522,66.384,0,64.506,0z"/>
			</g>
		</g>
		<g>
			<g>
				<path class="st6" d="M216.506,200c-1.878,0-3.4,1.522-3.4,3.4c0,1.878,1.522,3.4,3.4,3.4c1.878,0,3.4-1.522,3.4-3.4
					C219.906,201.522,218.384,200,216.506,200z"/>
			</g>
		</g>
		<g>
			<g>
				<path class="st9" d="M64.288,159.2c-3.1-0.6-5.6-3-6.2-6.1c0-0.1-0.3-0.1-0.3,0c-0.6,3.1-3.1,5.5-6.2,6.1c-0.1,0-0.1,0.2,0,0.3
					c3.1,0.6,5.6,3,6.2,6.1c0,0.1,0.3,0.1,0.3,0c0.6-3.1,3.1-5.5,6.2-6.1C64.388,159.4,64.388,159.2,64.288,159.2z"/>
			</g>
		</g>
		<g>
			<g>
				<path class="st4" d="M231.288,175.2c-4.5-0.8-8-4.3-8.9-8.7c0-0.2-0.4-0.2-0.4,0c-0.9,4.4-4.4,7.9-8.9,8.7c-0.2,0-0.2,0.3,0,0.4
					c4.5,0.8,8,4.3,8.9,8.7c0,0.2,0.4,0.2,0.4,0c0.9-4.4,4.4-7.9,8.9-8.7C231.488,175.5,231.488,175.2,231.288,175.2z"/>
			</g>
		</g>
		<g>
			<g>
				<g>
					<path d="M151.438,32.169c-6.427-5.646-16.355-5.173-22.603,1.073L128,34.077l-0.835-0.835
						c-6.247-6.248-16.175-6.719-22.603-1.073c-3.435,3.017-5.408,7.186-5.555,11.737c-0.146,4.489,1.592,8.884,4.767,12.059
						l19.16,19.16c1.354,1.354,3.153,2.099,5.067,2.099s3.713-0.746,5.066-2.099l19.161-19.16c3.174-3.175,4.912-7.57,4.766-12.059
						C156.846,39.354,154.873,35.186,151.438,32.169z M148.691,52.43l-19.161,19.16c-0.817,0.818-2.244,0.818-3.062,0l-19.16-19.16
						c-2.233-2.233-3.407-5.203-3.305-8.362c0.102-3.155,1.472-6.047,3.857-8.142c2.062-1.812,4.654-2.704,7.28-2.704
						c3.043,0,6.131,1.199,8.488,3.555l1.56,1.561c0.75,0.751,1.749,1.165,2.811,1.165s2.06-0.414,2.81-1.164l1.562-1.561
						c4.389-4.389,11.315-4.763,15.767-0.852c2.386,2.095,3.755,4.987,3.857,8.142C152.098,47.227,150.924,50.196,148.691,52.43z"/>
				</g>
			</g>
		</g>
		<g>
			<g>
				<path d="M196.5,46h-30c-1.381,0-2.5,1.119-2.5,2.5s1.119,2.5,2.5,2.5h30c1.381,0,2.5-1.119,2.5-2.5S197.881,46,196.5,46z"/>
			</g>
		</g>
		<g>
			<g>
				<path d="M89.5,46h-30c-1.381,0-2.5,1.119-2.5,2.5s1.119,2.5,2.5,2.5h30c1.381,0,2.5-1.119,2.5-2.5S90.881,46,89.5,46z"/>
			</g>
		</g>
		<g>
			<g>
				<path d="M175.736,0.732c-0.976-0.977-2.56-0.977-3.535,0l-18.745,18.745c-0.977,0.976-0.977,2.559,0,3.535
					c0.488,0.488,1.128,0.732,1.768,0.732s1.28-0.244,1.768-0.732l18.745-18.745C176.713,3.292,176.713,1.708,175.736,0.732z"/>
			</g>
		</g>
		<g>
			<g>
				<path d="M128,0c-1.381,0-2.5,1.119-2.5,2.5v7.469c0,1.381,1.119,2.5,2.5,2.5s2.5-1.119,2.5-2.5V2.5C130.5,1.119,129.381,0,128,0
					z"/>
			</g>
		</g>
		<g>
			<g>
				<path d="M102.544,19.481L83.795,0.732c-0.976-0.977-2.56-0.977-3.535,0c-0.977,0.976-0.977,2.559,0,3.535l18.749,18.749
					c0.488,0.488,1.128,0.732,1.768,0.732s1.28-0.244,1.768-0.732C103.521,22.04,103.521,20.457,102.544,19.481z"/>
			</g>
		</g>
		<g>
			<g>
				<path d="M193.595,21.33c-0.528-1.276-1.993-1.883-3.266-1.353l-27.716,11.48c-1.276,0.528-1.881,1.991-1.353,3.266
					c0.398,0.963,1.33,1.544,2.311,1.544c0.319,0,0.643-0.061,0.956-0.191l27.716-11.48
					C193.518,24.067,194.124,22.605,193.595,21.33z"/>
			</g>
		</g>
		<g>
			<g>
				<path d="M94.74,62.277c-0.528-1.276-1.993-1.883-3.266-1.353l-27.716,11.48c-1.276,0.528-1.881,1.991-1.353,3.266
					c0.398,0.963,1.33,1.544,2.311,1.544c0.319,0,0.643-0.061,0.956-0.191l27.716-11.48C94.663,65.015,95.269,63.552,94.74,62.277z"
					/>
			</g>
		</g>
		<g>
			<g>
				<path d="M147.998,0.19c-1.272-0.528-2.738,0.078-3.266,1.353l-4.308,10.399c-0.528,1.275,0.077,2.738,1.353,3.266
					c0.313,0.13,0.637,0.191,0.956,0.191c0.981,0,1.912-0.581,2.311-1.544l4.308-10.399C149.879,2.181,149.273,0.719,147.998,0.19z"
					/>
			</g>
		</g>
		<g>
			<g>
				<path d="M115.576,11.943l-4.308-10.399c-0.528-1.276-1.992-1.882-3.266-1.353c-1.276,0.528-1.881,1.991-1.353,3.266
					l4.308,10.399c0.398,0.963,1.33,1.544,2.311,1.544c0.319,0,0.643-0.061,0.956-0.191
					C115.499,14.681,116.104,13.218,115.576,11.943z"/>
			</g>
		</g>
		<g>
			<g>
				<path d="M93.387,31.457l-27.716-11.48c-1.273-0.529-2.738,0.078-3.266,1.353c-0.528,1.275,0.077,2.738,1.353,3.266l27.716,11.48
					c0.313,0.13,0.637,0.191,0.956,0.191c0.981,0,1.912-0.581,2.311-1.544C95.269,33.448,94.663,31.985,93.387,31.457z"/>
			</g>
		</g>
		<g>
			<g>
				<path d="M192.242,72.404l-27.716-11.48c-1.273-0.529-2.738,0.078-3.266,1.353s0.077,2.738,1.353,3.266l27.716,11.48
					c0.313,0.13,0.637,0.191,0.956,0.191c0.981,0,1.912-0.581,2.311-1.544C194.124,74.395,193.518,72.933,192.242,72.404z"/>
			</g>
		</g>
		<g>
			<g>
				<g>
					<path d="M206.858,248.247l-1.953-33.668c-0.42-7.542-5.624-13.848-12.949-15.692l-20.121-5.064
						c-10.011-2.52-17.932-6.77-18.312-6.976c-0.044-0.025-0.089-0.049-0.135-0.072c-3.557-1.754-5.767-5.307-5.767-9.273v-6.048
						c0-0.875-0.457-1.686-1.206-2.139c-0.749-0.454-1.679-0.482-2.454-0.076c-4.985,2.609-10.355,3.932-15.962,3.932
						s-10.978-1.323-15.962-3.932c-0.775-0.406-1.706-0.376-2.454,0.076c-0.749,0.453-1.206,1.264-1.206,2.139v6.048
						c0,3.966-2.214,7.521-5.779,9.279c-5.447,2.685-10.593,5.068-18.435,7.042l-20.121,5.064
						c-7.326,1.844-12.529,8.15-12.948,15.687l-1.953,33.673c-0.116,2.005,0.607,3.994,1.986,5.454
						c1.378,1.461,3.321,2.299,5.33,2.299h143.083c2.009,0,3.951-0.838,5.33-2.299S206.974,250.252,206.858,248.247z
						 M201.235,250.27c-0.445,0.471-1.046,0.73-1.694,0.73H56.458c-0.648,0-1.25-0.259-1.694-0.73
						c-0.444-0.471-0.668-1.086-0.631-1.733l1.954-33.679c0.297-5.345,3.985-9.814,9.177-11.121l20.121-5.064
						c8.317-2.093,13.718-4.592,19.425-7.406c5.285-2.606,8.568-7.88,8.568-13.764v-2.152c9.288,3.706,19.955,3.706,29.243,0v2.152
						c0,5.884,3.278,11.155,8.556,13.757l0.005-0.01c0.94,0.586,2.602,1.382,5.607,2.68c3.195,1.38,8.188,3.323,13.826,4.742
						l20.121,5.064c5.191,1.307,8.879,5.776,9.178,11.127l1.953,33.673C201.904,249.183,201.68,249.798,201.235,250.27z"/>
				</g>
			</g>
		</g>
		<g>
			<g>
				<g>
					<path d="M161.665,92.331c-3.316-3.478-8.691-3.844-12.504-0.85c-4.158,3.263-11.197,7.154-21.119,7.154
						c-9.943,0-17.021-3.905-21.207-7.181c-3.808-2.979-9.175-2.607-12.499,0.877c-3.87,4.058-6,9.38-6,14.986v31.19
						c0,21.871,17.793,39.665,39.665,39.665c21.871,0,39.664-17.793,39.664-39.665v-31.19
						C167.664,101.709,165.533,96.387,161.665,92.331z M162.664,138.506c0,19.114-15.55,34.665-34.664,34.665
						c-19.114,0-34.665-15.55-34.665-34.665v-31.19c0-4.315,1.64-8.412,4.631-11.549c0.833-0.873,1.95-1.317,3.081-1.317
						c0.945,0,1.899,0.31,2.705,0.941c4.805,3.761,12.92,8.244,24.288,8.244c11.351,0,19.428-4.471,24.206-8.221
						c1.777-1.394,4.271-1.235,5.798,0.368c0,0,0,0,0,0c2.978,3.123,4.618,7.219,4.618,11.535V138.506z"/>
				</g>
			</g>
		</g>
		<g>
			<g>
				<path d="M178.61,222.977c-1.381,0-2.5,1.119-2.5,2.5v26.13c0,1.381,1.119,2.5,2.5,2.5s2.5-1.119,2.5-2.5v-26.13
					C181.11,224.096,179.991,222.977,178.61,222.977z"/>
			</g>
		</g>
		<g>
			<g>
				<path d="M77.39,222.977c-1.381,0-2.5,1.119-2.5,2.5v26.13c0,1.381,1.119,2.5,2.5,2.5s2.5-1.119,2.5-2.5v-26.13
					C79.89,224.096,78.771,222.977,77.39,222.977z"/>
			</g>
		</g>
		<g>
			<g>
				<g>
					<path d="M167.549,107.682c-0.899,0-1.831,0.074-2.768,0.219c-1.218,0.189-2.117,1.238-2.117,2.471v28.135
						c0,0.688-0.028,1.426-0.088,2.325c-0.086,1.288,0.823,2.43,2.097,2.635c1.039,0.167,1.979,0.249,2.876,0.249
						c9.934,0,18.016-8.082,18.016-18.017S177.483,107.682,167.549,107.682z M167.664,138.715c0-0.07,0-0.139,0-0.208v-25.824
						c7.124,0.063,12.901,5.877,12.901,13.016C180.565,132.838,174.789,138.653,167.664,138.715z"/>
				</g>
			</g>
		</g>
		<g>
			<g>
				<g>
					<path d="M93.335,138.506v-28.135c0-1.233-0.899-2.282-2.117-2.471c-0.937-0.145-1.868-0.219-2.768-0.219
						c-9.934,0-18.016,8.082-18.016,18.017s8.082,18.017,18.016,18.017c0.899,0,1.84-0.082,2.877-0.25
						c1.274-0.206,2.182-1.347,2.096-2.635C93.363,139.932,93.335,139.193,93.335,138.506z M75.435,125.699
						c0-7.139,5.777-12.954,12.901-13.016v25.824c0,0.069,0,0.139,0,0.208C81.211,138.653,75.435,132.838,75.435,125.699z"/>
				</g>
			</g>
		</g>
		<g>
			<g>
				<path d="M140.215,146.406c-1.058-0.888-2.635-0.748-3.522,0.31c-1.795,2.142-4.843,3.421-8.153,3.421
					c-3.31,0-6.358-1.279-8.153-3.421c-0.886-1.057-2.462-1.197-3.522-0.31c-1.058,0.887-1.197,2.464-0.31,3.522
					c2.734,3.262,7.214,5.209,11.985,5.209c4.771,0,9.251-1.947,11.985-5.209C141.412,148.87,141.273,147.292,140.215,146.406z"/>
			</g>
		</g>
		<g>
			<g>
				<ellipse transform="matrix(0.9871 -0.1602 0.1602 0.9871 -18.5331 24.9208)" cx="145.307" cy="127.414" rx="4.993" ry="4.993"/>
			</g>
		</g>
		<g>
			<g>
				<ellipse transform="matrix(0.9871 -0.1602 0.1602 0.9871 -18.9661 19.5494)" cx="111.774" cy="127.414" rx="4.993" ry="4.993"/>
			</g>
		</g>
		<g>
			<g>
				<g>
					<path d="M177.033,89.108c-0.532-2.631-2.875-4.541-5.571-4.541H84.389c-2.775,0-5.131,1.973-5.603,4.691
						c-0.429,2.479-0.646,5.005-0.646,7.511v15.538c0,0.896,0.479,1.723,1.256,2.168c0.776,0.445,1.732,0.441,2.506-0.01
						c1.996-1.167,4.26-1.783,6.549-1.783c0.646,0,1.32,0.054,2.001,0.16c0.72,0.114,1.456-0.096,2.011-0.571
						c0.554-0.475,0.874-1.169,0.874-1.899v-2.805c0-4.396,1.648-8.589,4.63-11.799c1.528-1.603,4.016-1.764,5.787-0.377
						c4.805,3.761,12.92,8.244,24.288,8.244c11.327,0,19.396-4.455,24.169-8.192c1.754-1.375,4.42-1.175,5.938,0.447
						c2.912,3.109,4.516,7.167,4.516,11.427v3.055c0,0.73,0.319,1.424,0.874,1.899c0.555,0.475,1.291,0.686,2.01,0.571
						c0.681-0.106,1.354-0.16,2.001-0.16c2.316,0,4.604,0.631,6.617,1.825c0.393,0.233,0.834,0.35,1.275,0.35
						c0.427,0,0.854-0.109,1.237-0.328c0.781-0.445,1.263-1.274,1.263-2.172V99.6C177.942,95.621,177.636,92.091,177.033,89.108z
						 M94.314,92.354c-3.855,4.148-5.978,9.551-5.978,15.213v0.116c-1.765,0.011-3.516,0.286-5.196,0.808V96.77
						c0-2.221,0.193-4.461,0.573-6.658c0.054-0.311,0.344-0.545,0.676-0.545h15.183C97.632,89.882,95.779,90.817,94.314,92.354z
						 M149.128,91.505c-4.154,3.252-11.185,7.129-21.087,7.129c-9.943,0-17.021-3.905-21.207-7.181
						c-1.296-1.014-2.772-1.64-4.289-1.886h51.457C152.271,89.734,150.573,90.375,149.128,91.505z M172.942,108.517
						c-1.705-0.539-3.484-0.822-5.278-0.834v-0.366c0-5.534-2.083-10.806-5.867-14.846c-1.604-1.711-3.742-2.691-5.955-2.904h15.619
						c0.326,0,0.608,0.224,0.67,0.532c0.537,2.657,0.81,5.854,0.81,9.5V108.517z"/>
				</g>
			</g>
		</g>
		<g>
			<g>
				<g>
					<path d="M155.396,187.794c-1.064-0.516-1.727-0.869-1.874-0.948c-0.044-0.025-0.089-0.049-0.134-0.071
						c-3.557-1.754-5.767-5.307-5.767-9.273v-6.048c0-0.875-0.457-1.686-1.206-2.139c-0.749-0.454-1.679-0.482-2.454-0.076
						c-4.985,2.609-10.355,3.932-15.962,3.932c-5.608,0-10.978-1.323-15.962-3.932c-0.775-0.406-1.706-0.376-2.454,0.076
						c-0.749,0.453-1.206,1.264-1.206,2.139v6.048c0,3.966-2.209,7.519-5.767,9.273c-0.679,0.334-1.348,0.661-2.013,0.981
						c-1.155,0.556-1.703,1.896-1.267,3.103c4.361,12.073,15.882,20.184,28.668,20.184c12.768,0,24.284-8.096,28.655-20.146
						C157.092,189.692,156.548,188.354,155.396,187.794z M128,206.042c-9.939,0-18.966-5.869-23.115-14.814
						c5.241-2.613,8.493-7.866,8.493-13.727v-2.151c9.286,3.704,19.955,3.706,29.243,0v2.152c0,5.861,3.252,11.114,8.493,13.727
						C146.966,200.172,137.936,206.042,128,206.042z"/>
				</g>
			</g>
		</g>
	</g>
</g>
<g id="Layer_47">
</g>
<g id="Layer_48">
</g>
<g id="Layer_49">
</g>
<g id="Layer_50">
</g>
<g id="Layer_51">
</g>
<g id="Layer_52">
</g>
<g id="Layer_53">
</g>
<g id="Layer_54">
</g>
<g id="Layer_55">
</g>
<g id="Layer_56">
</g>
<g id="Layer_57">
</g>
<g id="Layer_58">
</g>
<g id="Layer_59">
</g>
<g id="Layer_60">
</g>
<g id="Layer_61">
</g>
<g id="Layer_62">
</g>
<g id="Layer_63">
</g>
<g id="Layer_64">
</g>
<g id="Layer_65">
</g>
<g id="Layer_66">
</g>
<g id="Layer_67">
</g>
<g id="Layer_68">
</g>
<g id="Layer_69">
</g>
<g id="Layer_70">
</g>
<g id="Layer_71">
</g>
<g id="Layer_72">
</g>
<g id="Layer_73">
</g>
<g id="Layer_74">
</g>
<g id="Layer_75">
</g>
<g id="Layer_76">
</g>
<g id="Layer_77">
</g>
<g id="Layer_78">
</g>
<g id="Layer_79">
</g>
<g id="Layer_80">
</g>
</svg>
