<?xml version="1.0" encoding="utf-8"?>
<!-- Generator: Adobe Illustrator 24.0.0, SVG Export Plug-In . SVG Version: 6.00 Build 0)  -->
<svg version="1.1" xmlns="http://www.w3.org/2000/svg" xmlns:xlink="http://www.w3.org/1999/xlink" x="0px" y="0px"
	 viewBox="0 0 256 256" style="enable-background:new 0 0 256 256;" xml:space="preserve">
<style type="text/css">
	.st0{fill:#6CADEF;}
	.st1{fill:#F9D0B4;}
	.st2{fill:#5B5D60;}
	.st3{fill:#9BE5F9;}
	.st4{fill:#FC657E;}
	.st5{fill:#70D6F9;}
	.st6{fill:#F5C84C;}
	.st7{fill:#F98FA6;}
	.st8{fill:#FED690;}
	.st9{fill:#87D147;}
	.st10{fill:#B2E26D;}
	.st11{fill:#EDF4FC;}
	.st12{fill:#FCDD86;}
	.st13{fill:#754E34;}
	.st14{fill:#B598F9;}
	.st15{fill:#5290DB;}
	.st16{fill:#C7D7E5;}
	.st17{fill:#C18E6B;}
	.st18{fill:#DAE6F1;}
	.st19{fill:#3CAADC;}
	.st20{fill:#818182;}
	.st21{fill:#CBEFF7;}
	.st22{fill:#FCA265;}
	.st23{fill:#A57453;}
	.st24{fill:#8652D8;}
	.st25{fill:#966AEA;}
	.st26{fill:#FEB872;}
	.st27{fill:#EDB311;}
	.st28{fill:#EF4460;}
</style>
<g id="Layer_1">
</g>
<g id="Layer_2">
	<g>
		<g>
			<g>
				<path class="st5" d="M190.925,204.525c-3.1-0.6-5.6-3-6.2-6.1c0-0.1-0.3-0.1-0.3,0c-0.6,3.1-3.1,5.5-6.2,6.1
					c-0.1,0-0.1,0.2,0,0.3c3.1,0.6,5.6,3,6.2,6.1c0,0.1,0.3,0.1,0.3,0c0.6-3.1,3.1-5.5,6.2-6.1
					C191.025,204.725,191.025,204.525,190.925,204.525z"/>
			</g>
		</g>
		<g>
			<g>
				<path class="st4" d="M89.113,218.425h-2.4v-2.3c0-1.8-1.4-3.2-3.2-3.2c-1.7,0-3.2,1.4-3.2,3.1v2.4h-2.3c-1.8,0-3.2,1.4-3.2,3.2
					c-0.1,1.7,1.3,3.2,3.2,3.2h2.3v2.3c0,1.8,1.4,3.2,3.2,3.2c1.7,0,3.2-1.4,3.2-3.1v-2.4h2.3c1.8,0,3.2-1.4,3.2-3.2
					C92.213,219.925,90.813,218.425,89.113,218.425z"/>
			</g>
		</g>
		<g>
			<g>
				<path class="st6" d="M56.413,203.425c-1.878,0-3.4,1.522-3.4,3.4c0,1.878,1.522,3.4,3.4,3.4s3.4-1.522,3.4-3.4
					C59.813,204.947,58.291,203.425,56.413,203.425z"/>
			</g>
		</g>
		<g>
			<g>
				<path class="st9" d="M176.413,46.525c-1.878,0-3.4,1.522-3.4,3.4c0,1.878,1.522,3.4,3.4,3.4s3.4-1.522,3.4-3.4
					C179.813,48.047,178.291,46.525,176.413,46.525z"/>
			</g>
		</g>
		<g>
			<g>
				<path class="st6" d="M164.013,34.525c-4.5-0.8-8-4.3-8.9-8.7c0-0.2-0.4-0.2-0.4,0c-0.9,4.4-4.4,7.9-8.9,8.7
					c-0.2,0-0.2,0.3,0,0.4c4.5,0.8,8,4.3,8.9,8.7c0,0.2,0.4,0.2,0.4,0c0.9-4.4,4.4-7.9,8.9-8.7
					C164.213,34.825,164.213,34.525,164.013,34.525z"/>
			</g>
		</g>
		<g>
			<g>
				<path class="st11" d="M77.666,48.897H38.333c-2.707,0-4.922,2.215-4.922,4.922v30.391c0,2.707,2.215,4.922,4.922,4.922h24.483
					c1.142,0,1.904,1.2,1.397,2.223c-1.384,2.792-3.535,5.136-6.182,6.752c-0.999,0.61-0.678,2.158,0.485,2.294
					c0.631,0.074,1.272,0.112,1.922,0.112c6.804,0,12.64-4.129,15.147-10.017c0.354-0.831,1.177-1.363,2.081-1.363
					c2.707,0,4.922-2.215,4.922-4.922V53.82C82.589,51.112,80.374,48.897,77.666,48.897z"/>
			</g>
		</g>
		<g>
			<g>
				<path class="st0" d="M56.155,168.774c-4.836-1.217-8.639-3.303-8.589-3.278c-1.988-0.98-3.247-3.005-3.247-5.221v-2.742
					c-2.327,1.218-4.968,1.912-7.764,1.912c-2.796,0-5.436-0.694-7.763-1.912v2.742c0,2.214-1.254,4.239-3.24,5.218
					c-2.69,1.326-5.036,2.386-8.597,3.282l-9.123,2.296c-2.822,0.71-4.855,3.173-5.017,6.079l-0.513,8.845
					c-0.062,1.063,0.784,1.958,1.848,1.958h52.922c-1.094,0-1.97-0.908-1.93-2.001l0.327-8.988c0.156-2.792,2.108-5.157,4.819-5.84
					l2.596-0.655L56.155,168.774z"/>
			</g>
		</g>
		<g>
			<g>
				<path class="st1" d="M51,122.437c-1.102-1.156-2.894-1.262-4.15-0.276c-1.986,1.559-5.422,3.486-10.276,3.486
					c-4.865,0-8.32-1.936-10.314-3.497c-1.255-0.982-3.043-0.872-4.143,0.281l-0.006,0.006c-1.545,1.62-2.407,3.774-2.407,6.013
					v14.143c0,9.268,7.583,16.852,16.852,16.852h0c9.268,0,16.852-7.583,16.852-16.852v-14.143
					C53.407,126.21,52.545,124.057,51,122.437z"/>
			</g>
		</g>
		<g>
			<g>
				<path class="st1" d="M54.488,129.749c-0.368,0-0.729,0.031-1.081,0.086v12.757c0,0.38-0.017,0.756-0.042,1.13
					c0.367,0.059,0.74,0.098,1.124,0.098c3.886,0,7.036-3.15,7.036-7.036C61.524,132.899,58.374,129.749,54.488,129.749z"/>
			</g>
		</g>
		<g>
			<g>
				<path class="st1" d="M19.704,142.592v-12.757c-0.353-0.055-0.713-0.086-1.081-0.086c-3.886,0-7.036,3.15-7.036,7.036
					c0,3.886,3.15,7.036,7.036,7.036c0.383,0,0.757-0.039,1.124-0.098v0C19.721,143.348,19.704,142.972,19.704,142.592z"/>
			</g>
		</g>
		<g>
			<g>
				<path class="st2" d="M53.344,115.374c-0.564,0-1.054-0.435-1.061-1c-0.129-9.39-10.852-11.154-21.531-9.31
					c-9.054,1.563-15.671,9.415-15.671,18.602v7.045c1.041-0.609,2.249-0.963,3.542-0.963c0.368,0,0.729,0.031,1.081,0.086v-1.385
					c0-2.239,0.862-4.392,2.407-6.013l0.006-0.006c1.1-1.153,2.888-1.263,4.143-0.281c1.994,1.561,5.449,3.497,10.314,3.497
					c4.854,0,8.29-1.927,10.276-3.486c1.256-0.986,3.048-0.88,4.15,0.276c1.545,1.62,2.407,3.774,2.407,6.013v1.385
					c0.353-0.055,0.713-0.086,1.081-0.086c1.309,0,2.529,0.364,3.579,0.986v-5.785C58.067,116.542,55.031,115.374,53.344,115.374z"
					/>
			</g>
		</g>
		<g>
			<g>
				<path class="st1" d="M47.566,165.496c-1.988-0.98-3.247-3.005-3.247-5.221v-2.743c-2.327,1.218-4.968,1.912-7.763,1.912h0
					c-2.796,0-5.436-0.694-7.763-1.912v2.743c0,2.217-1.259,4.241-3.247,5.221c-0.311,0.154-0.618,0.303-0.923,0.45
					c1.765,4.886,6.458,8.404,11.933,8.404c5.469,0,10.158-3.51,11.928-8.388C47.886,165.672,47.551,165.488,47.566,165.496z"/>
			</g>
		</g>
		<g>
			<g>
				<g>
					<path d="M63.496,168.043l-6.73-1.694c-4.287-1.079-7.776-2.927-7.976-3.034c-0.039-0.022-0.078-0.042-0.119-0.063
						c-1.143-0.563-1.853-1.705-1.853-2.979v-2.743c0-0.875-0.457-1.686-1.206-2.139s-1.679-0.482-2.454-0.076
						c-4.126,2.159-9.083,2.159-13.209,0c-0.775-0.406-1.705-0.377-2.454,0.076s-1.206,1.264-1.206,2.139v2.742
						c0,1.255-0.724,2.423-1.845,2.976c-2.402,1.185-4.67,2.236-8.101,3.1l-9.124,2.296c-3.905,0.983-6.679,4.344-6.902,8.359
						l-0.513,8.844c-0.07,1.191,0.36,2.371,1.178,3.239c0.819,0.868,1.972,1.365,3.165,1.365h52.922c1.381,0,2.5-1.119,2.5-2.5
						c0-1.178-0.815-2.167-1.913-2.431l0.306-8.42c0.095-1.708,1.274-3.136,2.935-3.555l2.597-0.656
						c1.11-0.28,1.888-1.279,1.888-2.425S64.606,168.323,63.496,168.043z M52.972,176.873l-0.312,8.58H4.838l0.473-8.165
						c0.102-1.823,1.359-3.348,3.131-3.793l9.124-2.296c3.907-0.983,6.43-2.151,9.092-3.464c2.581-1.273,4.279-3.728,4.584-6.542
						c3.451,0.992,7.175,0.992,10.626,0c0.298,2.749,1.927,5.155,4.411,6.454c0.6,0.386,1.482,0.768,2.789,1.332
						c1.472,0.636,3.761,1.527,6.356,2.19C53.992,172.665,53.095,174.661,52.972,176.873z"/>
				</g>
			</g>
		</g>
		<g>
			<g>
				<g>
					<path d="M52.809,120.711c-1.991-2.089-5.217-2.311-7.502-0.518c-1.716,1.347-4.625,2.953-8.733,2.953
						c-4.119,0-7.044-1.613-8.774-2.966c-2.282-1.786-5.502-1.561-7.499,0.531c-1.998,2.096-3.098,4.843-3.098,7.738v14.143
						c0,10.67,8.681,19.352,19.352,19.352s19.352-8.681,19.352-19.352v-14.143C55.907,125.554,54.807,122.806,52.809,120.711z
						 M50.907,142.592c0,7.914-6.438,14.352-14.352,14.352s-14.352-6.438-14.352-14.352v-14.143c0-1.604,0.61-3.126,1.723-4.293
						c0.109-0.115,0.257-0.173,0.409-0.173c0.133,0,0.269,0.044,0.383,0.135c2.349,1.838,6.312,4.029,11.855,4.029
						c5.536,0,9.483-2.186,11.82-4.02c0.25-0.195,0.592-0.18,0.797,0.035c1.107,1.161,1.716,2.684,1.716,4.288V142.592z"/>
				</g>
			</g>
		</g>
		<g>
			<g>
				<path d="M13.606,177.048c-1.381,0-2.5,1.119-2.5,2.5v8.129c0,1.381,1.119,2.5,2.5,2.5s2.5-1.119,2.5-2.5v-8.129
					C16.106,178.167,14.987,177.048,13.606,177.048z"/>
			</g>
		</g>
		<g>
			<g>
				<g>
					<path d="M53.024,127.364c-1.218,0.189-2.117,1.238-2.117,2.471v12.757c0,0.323-0.015,0.643-0.037,0.96
						c-0.087,1.289,0.821,2.433,2.097,2.638c0.543,0.087,1.041,0.13,1.521,0.13c5.258,0,9.536-4.278,9.536-9.536
						C64.024,131.05,58.972,126.449,53.024,127.364z M55.907,141.093v-8.617c1.809,0.597,3.117,2.303,3.117,4.309
						S57.715,140.496,55.907,141.093z"/>
				</g>
			</g>
		</g>
		<g>
			<g>
				<g>
					<path d="M22.204,142.592v-12.757c0-1.233-0.898-2.281-2.117-2.47c-5.925-0.92-11,3.684-11,9.42
						c0,5.258,4.278,9.536,9.536,9.536c0.481,0,0.979-0.042,1.521-0.13c1.274-0.206,2.183-1.347,2.097-2.634
						C22.219,143.237,22.204,142.917,22.204,142.592z M17.204,141.093c-1.809-0.597-3.117-2.303-3.117-4.309
						s1.309-3.711,3.117-4.309V141.093z"/>
				</g>
			</g>
		</g>
		<g>
			<g>
				<g>
					<path d="M54.703,113.027c-0.332-3.017-1.67-5.567-3.916-7.432c-5.661-4.701-15.248-3.894-20.461-2.994
						c-10.283,1.775-17.746,10.634-17.746,21.065v7.045c0,0.896,0.479,1.723,1.256,2.168c0.776,0.446,1.732,0.442,2.505-0.01
						c0.9-0.526,1.862-0.738,2.979-0.565c0.723,0.112,1.455-0.097,2.01-0.572c0.555-0.475,0.874-1.168,0.874-1.898v-1.386
						c0-1.604,0.61-3.126,1.723-4.293c0.204-0.215,0.546-0.232,0.792-0.038c2.349,1.838,6.312,4.029,11.855,4.029
						c5.536,0,9.483-2.186,11.82-4.02c0.25-0.195,0.592-0.18,0.797,0.035c1.107,1.161,1.716,2.684,1.716,4.288v1.386
						c0,0.73,0.319,1.423,0.873,1.898c0.555,0.475,1.291,0.682,2.01,0.572c1.123-0.174,2.104,0.047,3.003,0.58
						c0.393,0.232,0.833,0.349,1.274,0.349c0.427,0,0.854-0.109,1.238-0.328c0.78-0.444,1.262-1.273,1.262-2.172v-5.785
						C60.567,115.954,57.125,113.582,54.703,113.027z M55.567,125.7c-0.467-1.857-1.408-3.572-2.759-4.988
						c-1.09-1.144-2.551-1.728-4.024-1.728c-1.217,0-2.444,0.399-3.478,1.21c-1.716,1.347-4.625,2.953-8.733,2.953
						c-4.119,0-7.044-1.613-8.774-2.966c-2.282-1.786-5.502-1.561-7.499,0.531c-1.315,1.38-2.241,3.042-2.721,4.843v-1.888
						c0-7.991,5.718-14.778,13.596-16.139c7.315-1.264,13.452-0.548,16.416,1.914c1.444,1.199,2.161,2.824,2.19,4.968
						c0.026,1.911,1.624,3.465,3.561,3.465c1.106,0,2.223,2.188,2.223,7.076V125.7z"/>
				</g>
			</g>
		</g>
		<g>
			<g>
				<g>
					<path d="M49.574,163.712c-0.433-0.209-0.708-0.355-0.785-0.397c-0.039-0.021-0.078-0.042-0.118-0.062
						c-1.143-0.563-1.853-1.705-1.853-2.979v-2.743c0-0.875-0.457-1.686-1.206-2.139c-0.749-0.453-1.68-0.482-2.454-0.076
						c-4.124,2.159-9.082,2.159-13.208,0c-0.775-0.406-1.705-0.377-2.454,0.076s-1.206,1.264-1.206,2.139v2.742
						c0,1.274-0.71,2.416-1.853,2.979l-0.9,0.439c-1.156,0.556-1.704,1.896-1.268,3.103c2.172,6.014,7.913,10.054,14.284,10.054
						c6.363,0,12.101-4.033,14.278-10.035C51.27,165.61,50.726,164.271,49.574,163.712z M36.555,171.849
						c-3.563,0-6.833-1.888-8.667-4.859c1.885-1.372,3.1-3.461,3.354-5.799c3.452,0.993,7.176,0.993,10.626,0
						c0.253,2.337,1.469,4.427,3.354,5.799C43.389,169.96,40.117,171.849,36.555,171.849z"/>
				</g>
			</g>
		</g>
		<g>
			<g>
				<path class="st8" d="M109.625,152.988c2.976-4.667,1.57-9.211,0.258-11.777c-1.152,1.827-3.182,3.044-5.501,3.044
					c-0.355,0-0.7-0.036-1.039-0.091c-0.366,5.451-3.564,10.159-8.13,12.647v4.725c0,1.513,0.794,2.897,2.065,3.68
					c0.51,0.314-0.137-0.055,4.203,2.104c0.584,0.288,1.355,0.593,1.949,0.779c0.118,0.037,0.237,0.069,0.356,0.103
					c2.293-0.839,4.316-2.171,5.626-4.246c2.402-3.804,1-7.49,0.116-9.139C109.218,154.237,109.272,153.543,109.625,152.988z"/>
			</g>
		</g>
		<g>
			<g>
				<path class="st8" d="M72.262,144.164c-0.339,0.055-0.685,0.091-1.039,0.091c-2.319,0-4.349-1.217-5.501-3.044
					c-1.313,2.566-2.718,7.11,0.258,11.777c0.354,0.555,0.407,1.249,0.097,1.829c-0.884,1.65-2.286,5.335,0.116,9.139
					c1.31,2.075,3.333,3.407,5.626,4.246c0.119-0.034,0.238-0.066,0.356-0.103c0.594-0.186,1.365-0.491,1.949-0.779
					c4.622-2.299,3.731-1.814,4.203-2.104c1.271-0.783,2.065-2.168,2.065-3.68v-4.725C75.826,154.323,72.628,149.615,72.262,144.164
					z"/>
			</g>
		</g>
		<g>
			<g>
				<path class="st1" d="M104.382,131.245c-0.34,0-0.674,0.029-1,0.079v11.795c0,0.351-0.016,0.699-0.039,1.045
					c0.339,0.055,0.685,0.091,1.039,0.091c3.592,0,6.505-2.912,6.505-6.505S107.975,131.245,104.382,131.245z"/>
			</g>
		</g>
		<g>
			<g>
				<path class="st1" d="M102.424,129.346c-1.577-0.365-3.491-1.278-5.685-3.272c-0.434-0.394-1.103-0.362-1.485,0.083
					c-2.373,2.769-10.787,11.172-23.032,7.684v9.278c0,8.569,7.011,15.58,15.58,15.58c8.569,0,15.58-7.011,15.58-15.58v-12.587
					C103.383,129.96,102.982,129.475,102.424,129.346z"/>
			</g>
		</g>
		<g>
			<g>
				<path class="st1" d="M72.223,143.119v-9.278c-1.07-0.305-2.168-0.699-3.295-1.197c-0.726-0.321-1.575-0.173-2.154,0.37
					c-1.264,1.185-2.055,2.866-2.055,4.736c0,3.592,2.912,6.505,6.505,6.505c0.355,0,0.7-0.036,1.039-0.091
					C72.239,143.818,72.223,143.471,72.223,143.119z"/>
			</g>
		</g>
		<g>
			<g>
				<path class="st8" d="M87.803,108.162c-11.652,0-21.186,9.534-21.186,21.186v3.828c0.053-0.053,0.102-0.11,0.156-0.162
					c0.579-0.543,1.428-0.691,2.154-0.37c1.127,0.498,2.225,0.892,3.295,1.197c12.245,3.488,20.659-4.915,23.032-7.684
					c0.382-0.445,1.051-0.478,1.485-0.083c2.194,1.994,4.108,2.907,5.685,3.272c0.558,0.129,0.958,0.614,0.958,1.187v0.792
					c0.326-0.051,0.659-0.079,1-0.079c1.8,0,3.428,0.731,4.606,1.912v-3.81C108.989,117.696,99.455,108.162,87.803,108.162z"/>
			</g>
		</g>
		<g>
			<g>
				<path class="st7" d="M120.135,176.963c-0.156-2.792-2.108-5.157-4.819-5.84l-3.097-0.782c-0.29-0.073-7.663-1.934-8.043-2.03
					c-0.931-0.234-1.834-0.567-2.695-0.991l-3.852-1.899c-1.479-0.729-2.416-2.236-2.416-3.885v-4.725
					c-2.207,1.203-4.733,1.888-7.411,1.888c-2.678,0-5.203-0.685-7.411-1.888v4.725c0,1.649-0.937,3.155-2.416,3.885l-3.852,1.899
					c-0.861,0.424-1.764,0.757-2.695,0.991c-0.055,0.014-7.992,2.017-8.043,2.03l-3.097,0.782c-2.711,0.682-4.664,3.048-4.819,5.84
					l-0.327,8.988c-0.04,1.093,0.836,2.001,1.93,2.001h61.46c1.094,0,1.97-0.908,1.93-2.001L120.135,176.963z"/>
			</g>
		</g>
		<g>
			<g>
				<path class="st1" d="M97.629,165.421c-1.479-0.729-2.416-2.236-2.416-3.885v-4.725c-2.207,1.203-4.733,1.888-7.411,1.888
					c-2.678,0-5.203-0.685-7.411-1.888v4.725c0,1.649-0.937,3.155-2.416,3.885l-2.854,1.407c2.332,5.502,5.908,10.361,10.374,14.216
					c1.321,1.141,3.292,1.141,4.613,0c4.466-3.855,8.041-8.715,10.374-14.216L97.629,165.421z"/>
			</g>
		</g>
		<g>
			<g>
				<g>
					<path d="M112.109,140.073c-0.409-0.8-1.216-1.319-2.113-1.359c-0.885-0.029-1.748,0.404-2.227,1.164
						c-0.741,1.176-2.007,1.877-3.386,1.877c-0.185,0-0.395-0.02-0.641-0.059c-0.696-0.112-1.404,0.074-1.955,0.512
						c-0.55,0.438-0.891,1.087-0.938,1.789c-0.3,4.482-2.854,8.452-6.832,10.62c-0.804,0.438-1.304,1.28-1.304,2.195v4.725
						c0,2.382,1.216,4.554,3.325,5.853c0.256,0.159,0.254,0.164,0.959,0.508c0.491,0.239,1.429,0.696,3.378,1.666
						c0.683,0.337,1.567,0.69,2.313,0.924l0.416,0.12c0.224,0.063,0.454,0.095,0.683,0.095c0.291,0,0.582-0.051,0.859-0.152
						c3.072-1.124,5.387-2.893,6.881-5.259c2.953-4.675,1.419-9.206,0.402-11.273C115.368,148.324,113.532,142.854,112.109,140.073z
						 M107.325,155.998c0.713,1.33,1.657,3.958-0.026,6.623c-0.785,1.244-1.969,2.206-3.605,2.926
						c-0.385-0.142-0.793-0.314-1.099-0.465c-1.962-0.977-2.911-1.438-3.406-1.68c-0.265-0.129-0.369-0.177-0.442-0.218
						l-0.156-0.096c-0.548-0.338-0.876-0.918-0.876-1.552v-3.311c4.075-2.675,6.867-6.815,7.812-11.542
						c1.151-0.146,2.248-0.509,3.24-1.063c0.301,1.831,0.094,3.92-1.248,6.024C106.671,152.971,106.597,154.639,107.325,155.998z"/>
				</g>
			</g>
		</g>
		<g>
			<g>
				<g>
					<path d="M81.588,154.616c-3.977-2.167-6.531-6.138-6.832-10.62c-0.047-0.702-0.388-1.351-0.938-1.789
						c-0.551-0.438-1.257-0.624-1.955-0.512c-0.246,0.04-0.456,0.059-0.641,0.059c-1.379,0-2.645-0.702-3.386-1.877
						c-0.479-0.76-1.325-1.192-2.227-1.164c-0.897,0.041-1.705,0.559-2.113,1.359c-1.423,2.782-3.26,8.251,0.18,13.945
						c-1.017,2.068-2.55,6.598,0.402,11.273c1.494,2.366,3.809,4.135,6.881,5.259c0.257,0.094,0.551,0.138,0.845,0.138
						c0.27,0,0.54-0.037,0.781-0.104l0.337-0.099c0.74-0.232,1.625-0.585,2.315-0.926c2.098-1.043,3.055-1.511,3.52-1.737
						c0.644-0.314,0.639-0.323,0.881-0.477c2.038-1.255,3.254-3.426,3.254-5.809v-4.725
						C82.892,155.896,82.392,155.054,81.588,154.616z M77.892,161.536c0,0.634-0.328,1.214-0.876,1.552l-0.105,0.069
						c-0.057,0.03-0.15,0.074-0.348,0.171c-0.469,0.229-1.435,0.7-3.545,1.75c-0.311,0.154-0.722,0.327-1.106,0.469
						c-1.636-0.72-2.82-1.682-3.605-2.926c-1.683-2.665-0.739-5.293-0.026-6.623v0c0.728-1.358,0.654-3.026-0.192-4.354
						c-1.342-2.104-1.549-4.193-1.248-6.024c0.992,0.554,2.089,0.918,3.24,1.063c0.945,4.727,3.737,8.868,7.812,11.542V161.536z"/>
				</g>
			</g>
		</g>
		<g>
			<g>
				<g>
					<path d="M102.998,128.854c-1.217,0.19-2.115,1.238-2.115,2.47v11.794c0,0.295-0.014,0.586-0.034,0.876
						c-0.087,1.289,0.821,2.432,2.096,2.637c0.512,0.083,0.982,0.123,1.437,0.123c4.965,0,9.005-4.04,9.005-9.005
						C113.388,132.33,108.523,127.997,102.998,128.854z M105.883,141.463v-7.426c1.467,0.595,2.504,2.035,2.504,3.713
						C108.387,139.428,107.35,140.868,105.883,141.463z"/>
				</g>
			</g>
		</g>
		<g>
			<g>
				<g>
					<path d="M102.989,126.91c-1.436-0.333-2.973-1.237-4.57-2.688c-0.707-0.642-1.656-0.977-2.608-0.917
						c-0.958,0.06-1.83,0.495-2.455,1.225c-2.057,2.4-9.61,9.994-20.449,6.906c-0.755-0.215-1.565-0.063-2.191,0.409
						s-0.994,1.211-0.994,1.995v9.278c0,9.969,8.111,18.08,18.08,18.08s18.08-8.111,18.08-18.08v-12.587
						C105.883,128.793,104.692,127.304,102.989,126.91z M100.883,143.119c0,7.212-5.868,13.08-13.08,13.08s-13.08-5.868-13.08-13.08
						v-6.185c10.636,1.563,18.244-4.73,21.445-8.066c1.558,1.238,3.137,2.122,4.715,2.639V143.119z"/>
				</g>
			</g>
		</g>
		<g>
			<g>
				<g>
					<path d="M74.723,143.119v-9.278c0-1.117-0.741-2.099-1.815-2.404c-0.982-0.28-1.981-0.643-2.97-1.079
						c-1.645-0.725-3.557-0.4-4.875,0.833c-1.808,1.695-2.845,4.086-2.845,6.56c0,4.965,4.04,9.005,9.005,9.005
						c0.455,0,0.925-0.04,1.437-0.123c1.275-0.206,2.184-1.349,2.096-2.637C74.737,143.705,74.723,143.414,74.723,143.119z
						 M69.723,141.463c-1.467-0.595-2.504-2.035-2.504-3.713c0-1.002,0.364-1.94,1.031-2.675c0.489,0.209,0.981,0.403,1.474,0.582
						V141.463z"/>
				</g>
			</g>
		</g>
		<g>
			<g>
				<g>
					<g>
						<path d="M87.803,105.662c-13.061,0-23.686,10.625-23.686,23.686v3.829c0,1.011,0.609,1.923,1.543,2.31
							c0.875,0.363,1.874,0.198,2.585-0.413c1.092,0.466,2.198,0.86,3.292,1.172c2.296,0.654,4.469,0.935,6.51,0.935
							c8.898,0,15.264-5.334,18.12-8.312c1.561,1.24,3.141,2.124,4.722,2.642c0.049,0.661,0.359,1.279,0.867,1.714
							c0.555,0.475,1.29,0.684,2.011,0.571c1.351-0.209,2.553,0.227,3.451,1.128c0.714,0.716,1.79,0.932,2.726,0.545
							c0.935-0.387,1.545-1.299,1.545-2.311v-3.81C111.489,116.288,100.863,105.662,87.803,105.662z M105.461,128.809
							c-0.49-0.937-1.375-1.645-2.472-1.899c-1.436-0.333-2.973-1.237-4.569-2.687c-0.707-0.643-1.651-0.973-2.608-0.917
							c-0.958,0.06-1.831,0.495-2.456,1.225c-2.057,2.401-9.61,9.993-20.449,6.906c-0.983-0.28-1.982-0.643-2.971-1.08
							c-0.267-0.118-0.542-0.208-0.819-0.271v-0.738c0-10.303,8.382-18.686,18.686-18.686c10.185,0,18.492,8.189,18.683,18.329
							C106.149,128.911,105.808,128.85,105.461,128.809z"/>
					</g>
				</g>
			</g>
		</g>
		<g>
			<g>
				<g>
					<path d="M122.631,176.825c-0.217-3.905-2.912-7.17-6.703-8.125l-11.142-2.813c-0.759-0.191-1.499-0.463-2.2-0.809l-3.852-1.899
						c-0.63-0.311-1.021-0.94-1.021-1.643v-4.725c0-0.882-0.465-1.699-1.224-2.149c-0.759-0.451-1.699-0.468-2.473-0.045
						c-3.799,2.07-8.629,2.07-12.428,0c-0.774-0.422-1.713-0.405-2.473,0.045c-0.759,0.45-1.224,1.267-1.224,2.149v4.725
						c0,0.703-0.392,1.332-1.021,1.643l-3.853,1.899c-0.701,0.346-1.441,0.618-2.19,0.807c-0.033,0.008-2.816,0.711-5.103,1.288
						l-6.047,1.526c-3.793,0.955-6.487,4.22-6.707,8.173l-0.327,8.988c-0.043,1.196,0.409,2.375,1.239,3.237
						s1.993,1.355,3.189,1.355h61.46c1.197,0,2.359-0.494,3.19-1.356c0.831-0.861,1.282-2.042,1.238-3.236L122.631,176.825z
						 M57.663,185.453l0.304-8.351c0.095-1.708,1.274-3.136,2.935-3.555l11.139-2.812c1.101-0.277,2.174-0.672,3.19-1.173
						l3.853-1.899c2.35-1.159,3.81-3.507,3.81-6.127v-1.022c3.187,0.903,6.635,0.903,9.821,0v1.021c0,2.621,1.46,4.969,3.811,6.127
						l3.851,1.899c1.017,0.501,2.09,0.896,3.191,1.173l11.14,2.812c1.659,0.418,2.838,1.846,2.931,3.506l0.306,8.398H57.663z"/>
				</g>
			</g>
		</g>
		<g>
			<g>
				<path d="M109.123,178.74c-1.381,0-2.5,1.119-2.5,2.5v5.778c0,1.381,1.119,2.5,2.5,2.5s2.5-1.119,2.5-2.5v-5.778
					C111.623,179.859,110.503,178.74,109.123,178.74z"/>
			</g>
		</g>
		<g>
			<g>
				<path d="M66.483,178.74c-1.381,0-2.5,1.119-2.5,2.5v5.778c0,1.381,1.119,2.5,2.5,2.5s2.5-1.119,2.5-2.5v-5.778
					C68.983,179.859,67.864,178.74,66.483,178.74z"/>
			</g>
		</g>
		<g>
			<g>
				<g>
					<path d="M101.588,164.586l-2.854-1.407c-0.63-0.311-1.021-0.94-1.021-1.643v-4.725c0-0.882-0.465-1.699-1.224-2.149
						c-0.759-0.451-1.698-0.467-2.473-0.045c-3.799,2.07-8.629,2.07-12.428,0c-0.774-0.422-1.713-0.405-2.473,0.045
						c-0.759,0.45-1.224,1.267-1.224,2.149v4.725c0,0.703-0.392,1.333-1.021,1.643l-2.854,1.407
						c-1.188,0.586-1.713,1.998-1.196,3.218c2.449,5.778,6.267,11.011,11.042,15.133c1.123,0.97,2.532,1.455,3.94,1.455
						s2.817-0.485,3.94-1.455c4.775-4.123,8.593-9.356,11.042-15.133C103.302,166.583,102.777,165.172,101.588,164.586z
						 M88.476,179.152c-0.383,0.331-0.963,0.331-1.345,0h0c-3.6-3.108-6.581-6.933-8.713-11.161l0.665-0.328
						c2.351-1.159,3.811-3.507,3.811-6.127v-1.021c3.187,0.903,6.635,0.903,9.821,0v1.021c0,2.621,1.46,4.969,3.811,6.127
						l0.665,0.328C95.056,172.219,92.076,176.044,88.476,179.152z"/>
				</g>
			</g>
		</g>
		<g>
			<g>
				<path class="st12" d="M189.128,161.728c-3.389,0-6.162-2.773-6.162-6.162v-51.712h-39.052c-3.389,0-6.162,2.773-6.162,6.162
					v71.774c0,3.389,2.773,6.162,6.162,6.162h58.21c3.389,0,6.162-2.773,6.162-6.162v-20.062H189.128z"/>
			</g>
		</g>
		<g>
			<g>
				<path class="st0" d="M143.914,103.854c-3.389,0-6.162,2.773-6.162,6.162v4.689h45.214v-10.851H143.914z"/>
			</g>
		</g>
		<g>
			<g>
				<path class="st3" d="M201.941,186.672c-0.14-2.513-1.898-4.643-4.339-5.258l-7.891-1.986c-4.183-1.053-7.472-2.857-7.429-2.836
					c-1.72-0.848-2.808-2.599-2.808-4.516v-2.372c-2.013,1.054-4.297,1.654-6.715,1.654c-2.418,0-4.702-0.6-6.715-1.654v2.372
					c0,1.915-1.086,3.667-2.803,4.514c-2.326,1.147-4.355,2.063-7.434,2.838l-7.891,1.986c-2.441,0.614-4.199,2.745-4.339,5.258
					l-0.073,1.26c0.137,0.009,0.273,0.021,0.412,0.021h58.101L201.941,186.672z"/>
			</g>
		</g>
		<g>
			<g>
				<path class="st1" d="M182.966,155.566V138.56c-0.461,0.064-0.913,0.244-1.304,0.551c-1.718,1.348-4.69,3.015-8.888,3.015
					c-4.208,0-7.196-1.675-8.921-3.025c-1.085-0.849-2.632-0.754-3.583,0.243l-0.005,0.005c-1.337,1.402-2.082,3.264-2.082,5.201
					v12.233c0,8.017,6.559,14.576,14.576,14.576c6.479,0,12.001-4.286,13.883-10.161
					C184.483,160.236,182.966,158.071,182.966,155.566z"/>
			</g>
		</g>
		<g>
			<g>
				<path class="st1" d="M158.183,156.782v-11.034c-0.305-0.047-0.617-0.074-0.935-0.074c-3.361,0-6.085,2.725-6.085,6.085
					c0,3.361,2.724,6.085,6.085,6.085c0.332,0,0.655-0.034,0.972-0.085v0C158.198,157.436,158.183,157.111,158.183,156.782z"/>
			</g>
		</g>
		<g>
			<g>
				<path class="st13" d="M167.738,124.323c-7.831,1.352-13.554,8.143-13.554,16.09v6.094c0.901-0.526,1.945-0.833,3.063-0.833
					c0.318,0,0.63,0.027,0.935,0.074v-1.198c0-1.937,0.746-3.799,2.082-5.201l0.005-0.005c0.951-0.998,2.498-1.093,3.583-0.243
					c1.725,1.35,4.713,3.025,8.921,3.025c4.198,0,7.17-1.667,8.888-3.015c0.391-0.307,0.842-0.487,1.304-0.551v-12.644
					C179.42,123.556,173.573,123.316,167.738,124.323z"/>
			</g>
		</g>
		<g>
			<g>
				<path class="st1" d="M182.282,176.592c-1.72-0.848-2.809-2.599-2.809-4.516v-2.372c-2.013,1.054-4.297,1.654-6.715,1.654
					c-2.418,0-4.702-0.6-6.715-1.654v2.372c0,1.917-1.089,3.668-2.809,4.516c-0.269,0.133-0.534,0.262-0.798,0.389
					c1.527,4.226,5.586,7.269,10.321,7.269c4.731,0,8.786-3.036,10.317-7.255C182.558,176.745,182.269,176.586,182.282,176.592z"/>
			</g>
		</g>
		<g>
			<g>
				<g>
					<path d="M208.286,159.229h-19.158c-2.02,0-3.662-1.643-3.662-3.662v-51.712c0-1.381-1.119-2.5-2.5-2.5h-39.052
						c-4.776,0-8.663,3.886-8.663,8.662v71.774c0,4.776,3.886,8.662,8.663,8.662h58.209c4.776,0,8.662-3.886,8.662-8.662v-20.062
						C210.786,160.348,209.667,159.229,208.286,159.229z M205.786,181.791c0,2.02-1.643,3.662-3.662,3.662h-58.209
						c-2.02,0-3.663-1.643-3.663-3.662v-71.774c0-2.02,1.643-3.662,3.663-3.662h36.552v49.212c0,4.776,3.886,8.662,8.662,8.662
						h16.658V181.791z"/>
				</g>
			</g>
		</g>
		<g>
			<g>
				<g>
					<path d="M182.966,101.354h-39.052c-4.776,0-8.663,3.886-8.663,8.662v4.689c0,1.381,1.119,2.5,2.5,2.5h45.214
						c1.381,0,2.5-1.119,2.5-2.5v-10.851C185.466,102.474,184.347,101.354,182.966,101.354z M180.466,112.206h-40.214v-2.189
						c0-2.02,1.643-3.662,3.663-3.662h36.552V112.206z"/>
				</g>
			</g>
		</g>
		<g>
			<g>
				<g>
					<path d="M204.437,186.533c-0.201-3.626-2.703-6.657-6.225-7.543l-7.891-1.986c-3.706-0.933-6.624-2.488-6.814-2.59
						c-0.039-0.022-0.079-0.043-0.119-0.063c-0.873-0.43-1.415-1.302-1.415-2.274v-2.372c0-0.875-0.457-1.686-1.206-2.139
						c-0.748-0.453-1.68-0.482-2.454-0.076c-3.471,1.817-7.641,1.816-11.112,0c-0.775-0.406-1.706-0.377-2.454,0.076
						c-0.749,0.453-1.206,1.264-1.206,2.139v2.372c0,0.958-0.553,1.849-1.409,2.271c-2.136,1.053-4.003,1.917-6.939,2.656
						l-7.891,1.986c-3.521,0.886-6.023,3.917-6.225,7.538l-0.073,1.26c-0.079,1.365,1.023,2.545,2.388,2.643
						c0.172,0.012,0.344,0.022,0.52,0.022h58.101c0.688,0,1.346-0.284,1.818-0.784c0.472-0.5,0.717-1.173,0.677-1.86
						L204.437,186.533z M146.45,185.453c0.421-0.788,1.161-1.384,2.074-1.614l7.891-1.986c3.406-0.857,5.606-1.875,7.93-3.02
						c2.218-1.094,3.716-3.15,4.1-5.534c2.812,0.739,5.812,0.739,8.625,0c0.377,2.338,1.827,4.362,3.977,5.472
						c0.555,0.348,1.329,0.682,2.399,1.144c1.304,0.563,3.344,1.357,5.654,1.938l7.892,1.986c0.913,0.23,1.651,0.825,2.073,1.614
						H146.45z"/>
				</g>
			</g>
		</g>
		<g>
			<g>
				<g>
					<path d="M187.658,158.913c-1.332-0.593-2.192-1.907-2.192-3.347V138.56c0-0.723-0.313-1.411-0.858-1.885
						c-0.545-0.475-1.271-0.692-1.985-0.591c-0.916,0.127-1.782,0.493-2.504,1.06c-1.442,1.132-3.886,2.481-7.344,2.481
						c-3.467,0-5.927-1.356-7.381-2.494c-2.114-1.652-5.094-1.442-6.938,0.493c-1.788,1.875-2.772,4.335-2.772,6.926v12.232
						c0,9.416,7.66,17.076,17.076,17.076c7.448,0,13.984-4.782,16.264-11.898C189.412,160.745,188.824,159.432,187.658,158.913z
						 M172.758,168.858c-6.659,0-12.076-5.417-12.076-12.076V144.55c0-1.3,0.494-2.535,1.396-3.481
						c0.03-0.032,0.069-0.045,0.107-0.045c0.045,0,0.09,0.018,0.125,0.045c2.073,1.622,5.571,3.556,10.462,3.556
						c3.147,0,5.713-0.801,7.691-1.803v12.745c0,2.583,1.161,4.992,3.084,6.614C181.523,166.239,177.389,168.858,172.758,168.858z"
						/>
				</g>
			</g>
		</g>
		<g>
			<g>
				<g>
					<path d="M160.683,156.782v-11.034c0-1.233-0.898-2.281-2.117-2.47c-5.309-0.824-9.904,3.315-9.904,8.481
						c0,4.734,3.852,8.585,8.585,8.585c0.433,0,0.882-0.039,1.371-0.118c1.274-0.206,2.182-1.346,2.096-2.634
						C160.696,157.325,160.683,157.055,160.683,156.782z M155.683,154.985c-1.195-0.582-2.021-1.809-2.021-3.226
						s0.826-2.644,2.021-3.226V154.985z"/>
				</g>
			</g>
		</g>
		<g>
			<g>
				<g>
					<path d="M184.351,123.833c-5.105-3.396-12.867-2.694-17.038-1.974c-9.056,1.564-15.629,9.367-15.629,18.553v6.094
						c0,0.896,0.479,1.723,1.256,2.168c0.385,0.221,0.815,0.332,1.244,0.332c0.436,0,0.872-0.114,1.262-0.342
						c0.711-0.415,1.468-0.582,2.354-0.447c0.718,0.113,1.455-0.097,2.01-0.572s0.874-1.168,0.874-1.898v-1.198
						c0-1.3,0.494-2.535,1.396-3.481c0.066-0.068,0.167-0.051,0.233,0c2.073,1.622,5.571,3.556,10.462,3.556
						c4.886,0,8.37-1.93,10.432-3.549c0.018-0.014,0.047-0.033,0.103-0.04c1.236-0.171,2.157-1.229,2.157-2.477v-12.645
						C185.466,125.078,185.047,124.297,184.351,123.833z M180.466,136.894c-0.119,0.079-0.235,0.162-0.347,0.25
						c-1.442,1.132-3.886,2.481-7.344,2.481c-3.467,0-5.927-1.356-7.381-2.494c-2.114-1.652-5.094-1.442-6.938,0.493
						c-0.726,0.762-1.32,1.62-1.769,2.544c0.116-6.64,4.907-12.246,11.478-13.381c2.066-0.356,4.011-0.532,5.782-0.532
						c2.613,0,4.846,0.383,6.52,1.133V136.894z"/>
				</g>
			</g>
		</g>
		<g>
			<g>
				<g>
					<path d="M184.167,174.746c-0.365-0.177-0.599-0.3-0.666-0.336c-0.037-0.021-0.075-0.041-0.113-0.06
						c-0.873-0.43-1.415-1.302-1.415-2.274v-2.372c0-0.875-0.457-1.686-1.206-2.139c-0.748-0.453-1.68-0.482-2.454-0.076
						c-3.47,1.816-7.639,1.817-11.112,0c-0.774-0.405-1.705-0.376-2.454,0.077c-0.748,0.453-1.205,1.264-1.205,2.139v2.372
						c0,0.972-0.542,1.843-1.413,2.273l-0.774,0.377c-1.157,0.555-1.707,1.896-1.27,3.104c1.927,5.335,7.02,8.919,12.673,8.919
						c5.645,0,10.735-3.578,12.667-8.902C185.861,176.644,185.318,175.305,184.167,174.746z M172.758,181.75
						c-2.859,0-5.492-1.462-7.044-3.785c1.46-1.16,2.433-2.815,2.731-4.668c2.813,0.74,5.813,0.74,8.625,0
						c0.298,1.852,1.271,3.508,2.731,4.667C178.25,180.288,175.617,181.75,172.758,181.75z"/>
				</g>
			</g>
		</g>
		<g>
			<g>
				<path class="st14" d="M247.338,77.63h-58.21c-3.389,0-6.162,2.773-6.162,6.162v71.774c0,3.389,2.773,6.162,6.162,6.162h58.21
					c3.389,0,6.162-2.773,6.162-6.162V83.792C253.5,80.403,250.727,77.63,247.338,77.63z"/>
			</g>
		</g>
		<g>
			<g>
				<path class="st0" d="M247.338,77.63h-58.21c-3.389,0-6.162,2.773-6.162,6.162v4.689H253.5v-4.689
					C253.5,80.403,250.727,77.63,247.338,77.63z"/>
			</g>
		</g>
		<g>
			<g>
				<path class="st8" d="M237.524,134.872c2.65-4.156,1.398-8.203,0.229-10.488c-1.026,1.627-2.834,2.711-4.899,2.711
					c-0.316,0-0.623-0.032-0.925-0.081c-0.326,4.854-3.174,9.047-7.24,11.263v4.208c0,1.347,0.707,2.58,1.839,3.277
					c0.454,0.28-0.122-0.049,3.743,1.874c0.52,0.256,1.207,0.528,1.736,0.694c0.105,0.033,0.211,0.062,0.317,0.092
					c2.042-0.747,3.843-1.934,5.01-3.781c2.14-3.388,0.891-6.67,0.104-8.139C237.161,135.985,237.209,135.366,237.524,134.872z"/>
			</g>
		</g>
		<g>
			<g>
				<path class="st8" d="M204.25,127.014c-0.302,0.049-0.61,0.081-0.925,0.081c-2.065,0-3.873-1.084-4.899-2.711
					c-1.169,2.286-2.421,6.332,0.229,10.488c0.315,0.494,0.363,1.113,0.086,1.629c-0.787,1.469-2.036,4.751,0.104,8.139
					c1.167,1.848,2.968,3.034,5.01,3.781c0.106-0.03,0.212-0.059,0.317-0.092c0.529-0.166,1.216-0.437,1.736-0.694
					c4.116-2.047,3.323-1.615,3.743-1.874c1.132-0.697,1.839-1.93,1.839-3.277v-4.208
					C207.424,136.061,204.576,131.868,204.25,127.014z"/>
			</g>
		</g>
		<g>
			<g>
				<path class="st1" d="M232.855,115.509c-0.303,0-0.6,0.026-0.89,0.071v10.504c0,0.313-0.014,0.622-0.035,0.93
					c0.302,0.049,0.61,0.081,0.925,0.081c3.199,0,5.793-2.594,5.793-5.793S236.054,115.509,232.855,115.509z"/>
			</g>
		</g>
		<g>
			<g>
				<path class="st1" d="M231.111,113.817c-1.404-0.325-3.109-1.138-5.063-2.914c-0.386-0.351-0.982-0.322-1.322,0.074
					c-2.113,2.466-9.606,9.949-20.511,6.843v8.263c0,7.631,6.244,13.875,13.875,13.875c7.631,0,13.875-6.244,13.875-13.875v-11.209
					C231.964,114.364,231.608,113.932,231.111,113.817z"/>
			</g>
		</g>
		<g>
			<g>
				<path class="st1" d="M204.215,126.083v-8.263c-0.953-0.271-1.931-0.623-2.935-1.066c-0.647-0.286-1.403-0.154-1.919,0.33
					c-1.125,1.055-1.83,2.553-1.83,4.217c0,3.199,2.594,5.793,5.793,5.793c0.316,0,0.623-0.032,0.925-0.081
					C204.229,126.706,204.215,126.396,204.215,126.083z"/>
			</g>
		</g>
		<g>
			<g>
				<path class="st8" d="M218.09,94.952c-10.377,0-18.867,8.49-18.867,18.867v3.409c0.047-0.047,0.09-0.098,0.139-0.144
					c0.516-0.484,1.272-0.615,1.919-0.33c1.003,0.443,1.982,0.794,2.935,1.066c10.905,3.106,18.398-4.377,20.511-6.843
					c0.34-0.396,0.936-0.425,1.322-0.074c1.954,1.776,3.659,2.589,5.063,2.914c0.497,0.115,0.853,0.547,0.853,1.057v0.706
					c0.29-0.045,0.587-0.071,0.89-0.071c1.603,0,3.053,0.651,4.102,1.703v-3.393C236.957,103.442,228.467,94.952,218.09,94.952z"/>
			</g>
		</g>
		<g>
			<g>
				<path class="st7" d="M246.884,156.223c-0.139-2.486-1.877-4.593-4.292-5.201l-2.758-0.696c-0.259-0.065-6.824-1.723-7.163-1.808
					c-0.829-0.209-1.634-0.504-2.4-0.883l-3.43-1.691c-1.317-0.65-2.151-1.991-2.151-3.46v-4.208
					c-1.966,1.071-4.215,1.681-6.6,1.681s-4.634-0.61-6.6-1.681v4.208c0,1.469-0.834,2.81-2.151,3.459l-3.43,1.691
					c-0.767,0.378-1.571,0.674-2.4,0.883c-0.049,0.012-7.118,1.797-7.163,1.808l-2.758,0.696c-2.414,0.608-4.153,2.715-4.292,5.201
					l-0.2,5.504c0.011,0,0.021,0.002,0.032,0.002h57.956L246.884,156.223z"/>
			</g>
		</g>
		<g>
			<g>
				<path class="st1" d="M226.841,145.944c-1.317-0.65-2.151-1.991-2.151-3.46v-4.208c-1.966,1.071-4.215,1.681-6.6,1.681
					c-2.385,0-4.634-0.61-6.599-1.681v4.208c0,1.469-0.834,2.81-2.151,3.46l-2.541,1.253c2.077,4.899,5.262,9.227,9.238,12.66
					c1.177,1.016,2.931,1.016,4.108,0c3.977-3.434,7.161-7.761,9.238-12.661L226.841,145.944z"/>
			</g>
		</g>
		<g>
			<g>
				<g>
					<path d="M247.338,75.13h-58.21c-4.776,0-8.662,3.886-8.662,8.663v71.774c0,4.776,3.886,8.662,8.662,8.662h58.21
						c4.776,0,8.662-3.886,8.662-8.662V83.792C256,79.016,252.114,75.13,247.338,75.13z M251,155.566
						c0,2.02-1.643,3.662-3.662,3.662h-58.21c-2.019,0-3.662-1.643-3.662-3.662V83.792c0-2.02,1.643-3.663,3.662-3.663h58.21
						c2.019,0,3.662,1.643,3.662,3.663V155.566z"/>
				</g>
			</g>
		</g>
		<g>
			<g>
				<g>
					<path d="M247.338,75.13h-58.21c-4.776,0-8.662,3.886-8.662,8.663v4.689c0,1.381,1.119,2.5,2.5,2.5H253.5
						c1.381,0,2.5-1.119,2.5-2.5v-4.689C256,79.016,252.114,75.13,247.338,75.13z M251,85.981h-65.534v-2.189
						c0-2.02,1.643-3.663,3.662-3.663h58.21c2.02,0,3.662,1.643,3.662,3.663V85.981z"/>
				</g>
			</g>
		</g>
		<g>
			<g>
				<g>
					<path d="M239.979,123.246c-0.409-0.8-1.216-1.319-2.114-1.359c-0.895-0.031-1.747,0.404-2.227,1.165
						c-0.609,0.967-1.65,1.544-2.784,1.544c-0.15,0-0.322-0.016-0.526-0.049c-0.695-0.111-1.404,0.073-1.955,0.511
						c-0.551,0.438-0.892,1.087-0.938,1.79c-0.262,3.897-2.483,7.35-5.942,9.235c-0.804,0.438-1.304,1.28-1.304,2.195v4.208
						c0,2.218,1.132,4.239,3.09,5.444c0.234,0.146,0.231,0.15,0.886,0.469c0.438,0.214,1.274,0.621,3,1.48
						c0.621,0.306,1.423,0.627,2.101,0.839l0.381,0.11c0.222,0.062,0.449,0.093,0.677,0.093c0.291,0,0.582-0.051,0.859-0.152
						c2.793-1.022,4.901-2.635,6.265-4.794c2.64-4.179,1.364-8.228,0.438-10.172C242.914,130.665,241.262,125.753,239.979,123.246z
						 M235.234,137.682c0.741,1.382,1.34,3.479-0.014,5.623c-0.653,1.034-1.635,1.842-2.989,2.456
						c-0.302-0.115-0.611-0.247-0.848-0.363c-1.739-0.865-2.584-1.277-3.028-1.494c-0.226-0.11-0.323-0.156-0.38-0.187l-0.136-0.084
						c-0.407-0.25-0.65-0.68-0.65-1.148v-2.801c3.569-2.388,6.03-6.027,6.913-10.181c0.855-0.129,1.677-0.389,2.438-0.768
						c0.17,1.481-0.065,3.133-1.124,4.793C234.609,134.792,234.54,136.384,235.234,137.682z"/>
				</g>
			</g>
		</g>
		<g>
			<g>
				<g>
					<path d="M212.687,136.082c-3.459-1.885-5.681-5.338-5.942-9.235c-0.047-0.702-0.388-1.352-0.938-1.789
						c-0.551-0.438-1.261-0.624-1.955-0.511c-0.202,0.032-0.375,0.048-0.526,0.048c-1.134,0-2.174-0.577-2.784-1.544
						c-0.479-0.76-1.333-1.194-2.227-1.164c-0.897,0.041-1.705,0.56-2.113,1.359c-1.283,2.508-2.935,7.419,0.094,12.557
						c-0.926,1.945-2.202,5.993,0.437,10.172c1.364,2.159,3.472,3.772,6.265,4.794c0.263,0.096,0.557,0.142,0.851,0.142
						c0.255,0,0.51-0.035,0.745-0.1c0.108-0.03,0.217-0.061,0.329-0.096c0.67-0.21,1.473-0.531,2.101-0.841
						c1.866-0.928,2.717-1.344,3.131-1.546c0.599-0.292,0.594-0.301,0.809-0.438c1.896-1.168,3.028-3.189,3.028-5.406v-4.208
						C213.99,137.362,213.49,136.52,212.687,136.082z M208.99,142.484c0,0.468-0.243,0.898-0.652,1.15l-0.379,0.201
						c-0.418,0.205-1.279,0.625-3.156,1.559c-0.242,0.119-0.554,0.252-0.855,0.367c-1.354-0.614-2.335-1.422-2.989-2.456
						c-1.353-2.143-0.754-4.241-0.014-5.624c0.695-1.297,0.625-2.888-0.182-4.153c-1.059-1.661-1.294-3.313-1.124-4.794
						c0.761,0.378,1.582,0.639,2.438,0.767c0.882,4.155,3.343,7.794,6.913,10.182V142.484z"/>
				</g>
			</g>
		</g>
		<g>
			<g>
				<g>
					<path d="M231.583,113.109c-1.219,0.188-2.118,1.237-2.118,2.471v10.504c0,0.257-0.012,0.511-0.029,0.764
						c-0.085,1.287,0.822,2.428,2.095,2.634c0.471,0.076,0.904,0.113,1.325,0.113c4.572,0,8.292-3.72,8.292-8.293
						C241.147,116.314,236.752,112.31,231.583,113.109z M234.464,124.174v-5.744c1.003,0.565,1.683,1.641,1.683,2.872
						S235.468,123.609,234.464,124.174z"/>
				</g>
			</g>
		</g>
		<g>
			<g>
				<g>
					<path d="M231.675,111.381c-1.231-0.285-2.559-1.069-3.946-2.33c-0.685-0.622-1.605-0.943-2.523-0.887
						c-0.928,0.058-1.772,0.479-2.377,1.185c0,0,0,0,0,0c-1.805,2.107-8.433,8.771-17.927,6.065
						c-0.754-0.215-1.565-0.063-2.191,0.409c-0.626,0.472-0.994,1.211-0.994,1.995v8.263c0,9.029,7.346,16.375,16.375,16.375
						c9.029,0,16.375-7.346,16.375-16.375v-11.209C234.464,113.199,233.318,111.763,231.675,111.381z M229.464,126.083
						c0,6.272-5.103,11.375-11.375,11.375s-11.375-5.103-11.375-11.375v-5.193c9.251,1.218,15.904-4.119,18.849-7.13
						c1.289,0.995,2.594,1.725,3.9,2.179V126.083z"/>
				</g>
			</g>
		</g>
		<g>
			<g>
				<g>
					<path d="M206.715,126.083v-8.263c0-1.117-0.741-2.098-1.815-2.404c-0.865-0.247-1.743-0.565-2.61-0.948
						c-1.567-0.692-3.388-0.38-4.638,0.793c-1.665,1.561-2.62,3.763-2.62,6.041c0,4.572,3.72,8.292,8.293,8.292
						c0.422,0,0.855-0.037,1.324-0.113c1.275-0.206,2.183-1.349,2.095-2.638C206.727,126.592,206.715,126.339,206.715,126.083z
						 M201.715,124.173c-1.003-0.565-1.683-1.641-1.683-2.872c0-0.758,0.253-1.472,0.723-2.052c0.319,0.133,0.64,0.26,0.96,0.379
						V124.173z"/>
				</g>
			</g>
		</g>
		<g>
			<g>
				<g>
					<g>
						<path d="M218.09,92.452c-11.782,0-21.367,9.585-21.367,21.367v3.41c0,1.014,0.612,1.927,1.549,2.312
							c0.821,0.337,1.748,0.212,2.444-0.307c0.933,0.392,1.878,0.725,2.814,0.991c2.073,0.591,4.034,0.844,5.877,0.844
							c7.847-0.001,13.507-4.599,16.157-7.31c1.298,1.003,2.612,1.735,3.928,2.189c0.088,0.591,0.386,1.135,0.846,1.529
							c0.553,0.475,1.289,0.684,2.009,0.573c0.181-0.028,0.347-0.042,0.509-0.042c0.881,0,1.709,0.344,2.332,0.968
							c0.714,0.716,1.791,0.931,2.725,0.545c0.935-0.387,1.545-1.299,1.545-2.311v-3.393
							C239.457,102.037,229.872,92.452,218.09,92.452z M233.988,113.085c-0.484-0.839-1.305-1.47-2.313-1.704
							c-1.231-0.285-2.559-1.069-3.946-2.33c-0.685-0.622-1.605-0.943-2.523-0.887c-0.928,0.058-1.772,0.479-2.377,1.186
							c-1.805,2.106-8.43,8.771-17.928,6.065c-0.865-0.247-1.743-0.565-2.61-0.948c-0.186-0.082-0.375-0.15-0.567-0.204v-0.445
							c0-9.025,7.342-16.367,16.367-16.367c8.804,0,16.007,6.988,16.354,15.708C234.293,113.131,234.141,113.106,233.988,113.085z"
							/>
					</g>
				</g>
			</g>
		</g>
		<g>
			<g>
				<g>
					<path d="M249.38,156.084c-0.201-3.598-2.683-6.606-6.176-7.485l-2.761-0.697c-0.259-0.065-6.821-1.722-7.162-1.808
						c-0.656-0.165-1.297-0.401-1.905-0.7l-3.43-1.691c-0.467-0.23-0.757-0.697-0.757-1.218v-4.208c0-0.882-0.465-1.699-1.224-2.149
						c-0.759-0.451-1.698-0.468-2.473-0.046c-3.305,1.801-7.503,1.801-10.807,0c-0.773-0.421-1.713-0.405-2.473,0.046
						c-0.759,0.45-1.224,1.267-1.224,2.149v4.208c0,0.521-0.29,0.987-0.757,1.217l-3.431,1.691
						c-0.607,0.299-1.249,0.535-1.915,0.703c-0.155,0.04-7.048,1.779-7.155,1.806l-2.756,0.696c-3.494,0.88-5.977,3.888-6.18,7.534
						l-0.2,5.504c-0.024,0.678,0.228,1.337,0.699,1.826c0.447,0.464,1.055,0.736,1.696,0.763c0.046,0.002,0.095,0.003,0.136,0.003
						h57.956c0.679,0,1.329-0.276,1.8-0.765s0.723-1.148,0.699-1.826L249.38,156.084z M191.688,159.229l0.104-2.866
						c0.078-1.401,1.045-2.573,2.407-2.916l2.752-0.695c0.045-0.011,7.136-1.801,7.166-1.809c0.998-0.251,1.972-0.609,2.896-1.064
						l3.431-1.691c2.187-1.078,3.546-3.263,3.546-5.702v-0.552c2.671,0.694,5.528,0.693,8.199,0v0.552
						c0,2.439,1.359,4.624,3.546,5.702l3.43,1.691c0.924,0.456,1.898,0.813,2.894,1.064c0.339,0.085,6.908,1.744,7.163,1.808
						l2.759,0.697c1.361,0.343,2.328,1.514,2.404,2.867l0.106,2.915H191.688z"/>
				</g>
			</g>
		</g>
		<g>
			<g>
				<g>
					<path d="M230.487,144.955l-2.541-1.253c-0.467-0.23-0.757-0.697-0.757-1.218v-4.208c0-0.882-0.465-1.699-1.224-2.149
						c-0.759-0.451-1.699-0.468-2.473-0.046c-3.304,1.801-7.502,1.801-10.806,0c-0.773-0.421-1.713-0.405-2.473,0.046
						c-0.759,0.45-1.224,1.267-1.224,2.149v4.208c0,0.521-0.29,0.987-0.757,1.218l-2.542,1.253
						c-1.188,0.586-1.713,1.998-1.196,3.218c2.198,5.185,5.624,9.879,9.906,13.577l0,0c1.051,0.907,2.369,1.361,3.688,1.361
						s2.637-0.454,3.688-1.361c4.283-3.698,7.709-8.393,9.906-13.577C232.201,146.953,231.676,145.541,230.487,144.955z
						 M218.51,157.966c-0.24,0.207-0.601,0.206-0.84,0c-3.108-2.684-5.694-5.974-7.569-9.61l0.344-0.169
						c2.187-1.078,3.546-3.263,3.546-5.702v-0.552c2.67,0.694,5.527,0.693,8.199,0v0.552c0,2.439,1.359,4.624,3.546,5.702
						l0.344,0.169C224.205,151.992,221.619,155.282,218.51,157.966z"/>
				</g>
			</g>
		</g>
		<g>
			<g>
				<g>
					<g>
						<path d="M77.667,46.397H38.333c-4.093,0-7.422,3.33-7.422,7.422v30.391c0,4.093,3.33,7.422,7.422,7.422h22.851
							c-1.137,1.758-2.655,3.241-4.456,4.341c-1.362,0.832-2.048,2.441-1.705,4.005c0.346,1.578,1.603,2.718,3.202,2.905
							c0.73,0.085,1.475,0.129,2.213,0.129c7.558,0,14.361-4.461,17.38-11.381c4.022-0.082,7.27-3.379,7.27-7.421V53.82
							C85.089,49.727,81.759,46.397,77.667,46.397z M80.089,84.211c0,1.335-1.086,2.422-2.422,2.422
							c-1.916,0-3.636,1.132-4.381,2.884c-1.932,4.536-6.061,7.661-10.838,8.352c1.639-1.54,2.996-3.366,4.006-5.402
							c0.623-1.256,0.552-2.719-0.189-3.914c-0.746-1.202-2.034-1.92-3.447-1.92H38.333c-1.336,0-2.422-1.087-2.422-2.422V53.82
							c0-1.336,1.086-2.422,2.422-2.422h39.333c1.336,0,2.422,1.086,2.422,2.422V84.211z"/>
					</g>
				</g>
			</g>
		</g>
		<g>
			<g>
				<path class="st5" d="M146.914,71.141l-11.566-11.566c-1.805-1.804-4.73-1.805-6.536,0c-1.804,1.805-1.804,4.73,0.001,6.535
					l3.677,3.677h-28.448c-2.552,0-4.621,2.069-4.621,4.621c0,2.552,2.069,4.621,4.621,4.621h28.448l-3.677,3.677
					c-1.805,1.805-1.805,4.731,0,6.536c1.804,1.805,4.731,1.804,6.535,0l11.566-11.566c0.867-0.866,1.354-2.042,1.354-3.268
					C148.268,73.183,147.781,72.008,146.914,71.141z"/>
			</g>
		</g>
		<g>
			<g>
				<g>
					<path d="M148.681,69.373l-11.566-11.565c-2.776-2.775-7.294-2.775-10.071,0.001c-2.586,2.587-2.763,6.686-0.528,9.479h-22.474
						c-3.927,0-7.122,3.194-7.122,7.121s3.195,7.121,7.122,7.121h22.474c-1.009,1.258-1.557,2.809-1.557,4.445
						c0,1.902,0.741,3.69,2.086,5.035c1.344,1.346,3.133,2.086,5.036,2.086c1.902,0,3.69-0.741,5.035-2.086l11.566-11.565
						c1.346-1.345,2.087-3.133,2.087-5.036C150.768,72.505,150.027,70.717,148.681,69.373z M145.146,75.909L133.58,87.475
						c-0.8,0.801-2.196,0.802-2.999,0c-0.401-0.4-0.622-0.933-0.622-1.5c0-0.567,0.221-1.1,0.622-1.5l3.677-3.677
						c0.715-0.715,0.929-1.79,0.542-2.724c-0.387-0.935-1.298-1.543-2.31-1.543h-28.448c-1.17,0-2.122-0.952-2.122-2.121
						s0.952-2.121,2.122-2.121h28.448c1.011,0,1.923-0.609,2.31-1.543c0.387-0.934,0.173-2.009-0.542-2.724l-3.677-3.677
						c-0.827-0.827-0.827-2.172-0.001-2.999c0.827-0.827,2.173-0.828,3,0l11.566,11.565l0.001,0c0.395,0.394,0.621,0.94,0.621,1.499
						C145.768,74.976,145.547,75.508,145.146,75.909z"/>
				</g>
			</g>
		</g>
		<g>
			<g>
				<path d="M45.413,66.525c-1.878,0-3.4,1.522-3.4,3.4c0,1.878,1.522,3.4,3.4,3.4s3.4-1.522,3.4-3.4
					C48.813,68.047,47.291,66.525,45.413,66.525z"/>
			</g>
		</g>
		<g>
			<g>
				<path d="M57.913,66.525c-1.878,0-3.4,1.522-3.4,3.4c0,1.878,1.522,3.4,3.4,3.4s3.4-1.522,3.4-3.4
					C61.313,68.047,59.791,66.525,57.913,66.525z"/>
			</g>
		</g>
		<g>
			<g>
				<path d="M70.413,66.525c-1.878,0-3.4,1.522-3.4,3.4c0,1.878,1.522,3.4,3.4,3.4s3.4-1.522,3.4-3.4
					C73.813,68.047,72.291,66.525,70.413,66.525z"/>
			</g>
		</g>
	</g>
</g>
<g id="Layer_3">
</g>
<g id="Layer_4">
</g>
<g id="Layer_5">
</g>
<g id="Layer_6">
</g>
<g id="Layer_7">
</g>
<g id="Layer_8">
</g>
<g id="Layer_9">
</g>
<g id="Layer_10">
</g>
<g id="Layer_11">
</g>
<g id="Layer_12">
</g>
<g id="Layer_13">
</g>
<g id="Layer_14">
</g>
<g id="Layer_15">
</g>
<g id="Layer_16">
</g>
<g id="Layer_17">
</g>
<g id="Layer_18">
</g>
<g id="Layer_19">
</g>
<g id="Layer_20">
</g>
<g id="Layer_21">
</g>
<g id="Layer_22">
</g>
<g id="Layer_23">
</g>
<g id="Layer_24">
</g>
<g id="Layer_25">
</g>
<g id="Layer_26">
</g>
<g id="Layer_27">
</g>
<g id="Layer_28">
</g>
<g id="Layer_29">
</g>
<g id="Layer_30">
</g>
<g id="Layer_31">
</g>
<g id="Layer_32">
</g>
<g id="Layer_33">
</g>
<g id="Layer_34">
</g>
<g id="Layer_35">
</g>
<g id="Layer_36">
</g>
<g id="Layer_37">
</g>
<g id="Layer_38">
</g>
<g id="Layer_39">
</g>
<g id="Layer_40">
</g>
<g id="Layer_41">
</g>
<g id="Layer_42">
</g>
<g id="Layer_43">
</g>
<g id="Layer_44">
</g>
<g id="Layer_45">
</g>
<g id="Layer_46">
</g>
<g id="Layer_47">
</g>
<g id="Layer_48">
</g>
<g id="Layer_49">
</g>
<g id="Layer_50">
</g>
<g id="Layer_51">
</g>
<g id="Layer_52">
</g>
<g id="Layer_53">
</g>
<g id="Layer_54">
</g>
<g id="Layer_55">
</g>
<g id="Layer_56">
</g>
<g id="Layer_57">
</g>
<g id="Layer_58">
</g>
<g id="Layer_59">
</g>
<g id="Layer_60">
</g>
<g id="Layer_61">
</g>
<g id="Layer_62">
</g>
<g id="Layer_63">
</g>
<g id="Layer_64">
</g>
<g id="Layer_65">
</g>
<g id="Layer_66">
</g>
<g id="Layer_67">
</g>
<g id="Layer_68">
</g>
<g id="Layer_69">
</g>
<g id="Layer_70">
</g>
<g id="Layer_71">
</g>
<g id="Layer_72">
</g>
<g id="Layer_73">
</g>
<g id="Layer_74">
</g>
<g id="Layer_75">
</g>
<g id="Layer_76">
</g>
<g id="Layer_77">
</g>
<g id="Layer_78">
</g>
<g id="Layer_79">
</g>
<g id="Layer_80">
</g>
</svg>
