<?xml version="1.0" encoding="utf-8"?>
<!-- Generator: Adobe Illustrator 24.0.0, SVG Export Plug-In . SVG Version: 6.00 Build 0)  -->
<svg version="1.1" xmlns="http://www.w3.org/2000/svg" xmlns:xlink="http://www.w3.org/1999/xlink" x="0px" y="0px"
	 viewBox="0 0 256 256" style="enable-background:new 0 0 256 256;" xml:space="preserve">
<style type="text/css">
	.st0{fill:#6CADEF;}
	.st1{fill:#F9D0B4;}
	.st2{fill:#5B5D60;}
	.st3{fill:#9BE5F9;}
	.st4{fill:#FC657E;}
	.st5{fill:#70D6F9;}
	.st6{fill:#F5C84C;}
	.st7{fill:#F98FA6;}
	.st8{fill:#FED690;}
	.st9{fill:#87D147;}
	.st10{fill:#B2E26D;}
	.st11{fill:#EDF4FC;}
	.st12{fill:#FCDD86;}
	.st13{fill:#754E34;}
	.st14{fill:#B598F9;}
	.st15{fill:#5290DB;}
	.st16{fill:#C7D7E5;}
	.st17{fill:#C18E6B;}
	.st18{fill:#DAE6F1;}
	.st19{fill:#3CAADC;}
	.st20{fill:#818182;}
	.st21{fill:#CBEFF7;}
	.st22{fill:#FCA265;}
	.st23{fill:#A57453;}
	.st24{fill:#8652D8;}
	.st25{fill:#966AEA;}
	.st26{fill:#FEB872;}
	.st27{fill:#EDB311;}
	.st28{fill:#EF4460;}
</style>
<g id="Layer_1">
</g>
<g id="Layer_2">
</g>
<g id="Layer_3">
</g>
<g id="Layer_4">
</g>
<g id="Layer_5">
	<g>
		<g>
			<g>
				<path class="st1" d="M227.091,133.546l-17.26-13.904c-4.171-3.36-6.596-8.428-6.596-13.784v-0.083
					c0-46.729-37.733-84.646-84.392-84.943c-46.867-0.299-85.498,38.076-85.497,84.944c0,23.21,9.31,44.243,24.398,59.573
					c8.04,8.169,11.514,19.792,9.575,31.089L58.4,248.404c-0.457,2.663,1.594,5.096,4.296,5.096h75.897
					c2.407,0,4.359-1.952,4.359-4.359v-42.709l5.444,2.257c3.724,1.544,7.715,2.338,11.746,2.338h27.171
					c5.722,0,10.665-4.003,11.853-9.601l1.462-13.428c0.329-3.02,0.028-6.076-0.883-8.975l-1.297-4.125
					c-0.417-1.035-0.108-2.221,0.76-2.921l3.08-2.484c0.597-0.481,0.944-1.207,0.944-1.974v-7.687c0-2.773,1.615-5.292,4.135-6.448
					l18.296-8.398C230.243,142.886,231.012,136.705,227.091,133.546z"/>
			</g>
		</g>
		<g>
			<g>
				
					<ellipse transform="matrix(0.9239 -0.3827 0.3827 0.9239 -24.4343 59.0984)" class="st4" cx="136.337" cy="90.969" rx="20.338" ry="20.338"/>
			</g>
		</g>
		<g>
			<g>
				<path class="st4" d="M74.313,110.359c-5.789,0-10.481,4.693-10.481,10.481s4.693,10.481,10.481,10.481
					c5.788,0,10.481-4.693,10.481-10.481S80.101,110.359,74.313,110.359z"/>
			</g>
		</g>
		<g>
			<g>
				<path class="st4" d="M136.337,49.495c-3.342,0-6.051,2.709-6.051,6.051c0,3.342,2.709,6.051,6.051,6.051
					c3.342,0,6.052-2.709,6.052-6.051C142.388,52.204,139.679,49.495,136.337,49.495z"/>
			</g>
		</g>
		<g>
			<g>
				<path class="st4" d="M136.337,120.495c-3.342,0-6.051,2.709-6.051,6.051c0,3.342,2.709,6.051,6.051,6.051
					c3.342,0,6.052-2.709,6.052-6.051C142.388,123.204,139.679,120.495,136.337,120.495z"/>
			</g>
		</g>
		<g>
			<g>
				<circle class="st7" cx="141.121" cy="88.786" r="5.621"/>
			</g>
		</g>
		<g>
			<g>
				<path class="st4" d="M115.514,61.665c-2.363-2.363-6.195-2.363-8.558,0c-2.363,2.363-2.363,6.195,0,8.558
					c2.363,2.363,6.195,2.363,8.558,0S117.877,64.028,115.514,61.665z"/>
			</g>
		</g>
		<g>
			<g>
				<path class="st4" d="M165.718,111.87c-2.363-2.363-6.195-2.363-8.558,0c-2.363,2.363-2.363,6.195,0,8.558
					c2.363,2.363,6.195,2.363,8.558,0S168.082,114.233,165.718,111.87z"/>
			</g>
		</g>
		<g>
			<g>
				<path class="st4" d="M100.837,84.995c-3.342,0-6.051,2.709-6.051,6.051c0,3.342,2.709,6.051,6.051,6.051
					c3.342,0,6.052-2.709,6.052-6.051C106.888,87.704,104.179,84.995,100.837,84.995z"/>
			</g>
		</g>
		<g>
			<g>
				<path class="st4" d="M171.837,84.995c-3.342,0-6.051,2.709-6.051,6.051c0,3.342,2.709,6.051,6.051,6.051
					c3.342,0,6.052-2.709,6.052-6.051C177.888,87.704,175.179,84.995,171.837,84.995z"/>
			</g>
		</g>
		<g>
			<g>
				<path class="st4" d="M115.514,111.87c-2.363-2.363-6.195-2.363-8.558,0c-2.363,2.363-2.363,6.195,0,8.558
					c2.363,2.363,6.195,2.363,8.558,0S117.877,114.233,115.514,111.87z"/>
			</g>
		</g>
		<g>
			<g>
				<path class="st4" d="M165.718,61.665c-2.363-2.363-6.195-2.363-8.558,0c-2.363,2.363-2.363,6.195,0,8.558
					c2.363,2.363,6.195,2.363,8.558,0S168.082,64.028,165.718,61.665z"/>
			</g>
		</g>
		<g>
			<g>
				<path d="M143.994,204.159l-23.866-10.934c-1.255-0.575-2.739-0.022-3.313,1.232c-0.575,1.255-0.024,2.739,1.231,3.314
					l23.866,10.934c0.337,0.154,0.691,0.228,1.039,0.228c0.948,0,1.854-0.542,2.274-1.459
					C145.801,206.218,145.25,204.734,143.994,204.159z"/>
			</g>
		</g>
		<g>
			<g>
				<g>
					<path d="M228.659,131.599l-17.26-13.904c-3.6-2.9-5.664-7.214-5.664-11.921c0-47.911-38.973-87.138-86.877-87.443
						c-0.189-0.001-0.375-0.002-0.564-0.002c-23.131,0-44.97,9.05-61.543,25.52c-16.706,16.6-25.906,38.592-25.905,61.926
						c0,23.091,8.92,44.871,25.116,61.327c7.387,7.505,10.711,18.313,8.893,28.912l-8.918,51.967
						c-0.343,1.998,0.21,4.032,1.516,5.581c1.307,1.549,3.218,2.438,5.244,2.438h75.897c3.782,0,6.859-3.077,6.859-6.859v-38.966
						l1.986,0.824c4.049,1.678,8.322,2.529,12.704,2.529h27.172c6.86,0,12.873-4.871,14.298-11.582
						c0.018-0.082,0.031-0.165,0.04-0.249l1.463-13.429c0.368-3.387,0.037-6.75-0.984-9.994l-1.297-4.125
						c-0.02-0.062-0.03-0.166-0.055-0.226l3.081-2.484c1.19-0.961,1.874-2.39,1.874-3.919v-7.687c0-1.79,1.051-3.429,2.678-4.176
						l18.296-8.398c2.942-1.351,4.938-4.074,5.337-7.287C232.446,136.759,231.18,133.629,228.659,131.599z M227.084,139.354
						c-0.187,1.504-1.084,2.729-2.461,3.361l-18.296,8.398c-3.396,1.56-5.592,4.982-5.592,8.72l-0.014,7.715l-3.08,2.484
						c-1.706,1.375-2.321,3.651-1.552,5.693l1.272,4.049c0.813,2.582,1.076,5.258,0.783,7.953l-1.448,13.296
						c-0.981,4.355-4.908,7.504-9.382,7.504h-27.172c-3.721,0-7.351-0.723-10.789-2.148l-5.444-2.257
						c-0.769-0.319-1.651-0.233-2.346,0.231c-0.694,0.463-1.111,1.244-1.111,2.079v42.709c0,1.025-0.834,1.859-1.859,1.859H62.696
						c-0.752,0-1.213-0.414-1.421-0.661s-0.538-0.771-0.411-1.513l8.918-51.967c2.091-12.18-1.744-24.616-10.257-33.265
						c-15.271-15.515-23.68-36.049-23.68-57.82c0-21.993,8.676-42.725,24.429-58.379c15.631-15.532,36.217-24.066,58.021-24.066
						c0.177,0,0.354,0.001,0.532,0.002c45.164,0.288,81.908,37.271,81.908,82.526c0,6.144,2.743,11.877,7.527,15.731l17.26,13.904
						C226.702,136.443,227.271,137.851,227.084,139.354z"/>
				</g>
			</g>
		</g>
		<g>
			<g>
				<path class="st6" d="M177.282,8.85c-4.5-0.8-8-4.3-8.9-8.7c0-0.2-0.4-0.2-0.4,0c-0.9,4.4-4.4,7.9-8.9,8.7c-0.2,0-0.2,0.3,0,0.4
					c4.5,0.8,8,4.3,8.9,8.7c0,0.2,0.4,0.2,0.4,0c0.9-4.4,4.4-7.9,8.9-8.7C177.482,9.15,177.482,8.85,177.282,8.85z"/>
			</g>
		</g>
		<g>
			<g>
				<path class="st4" d="M51.227,31.894c-3.505-0.623-6.232-3.35-6.933-6.777c0-0.156-0.312-0.156-0.312,0
					c-0.701,3.428-3.428,6.154-6.933,6.777c-0.156,0-0.156,0.234,0,0.312c3.505,0.623,6.232,3.35,6.933,6.777
					c0,0.156,0.312,0.156,0.312,0c0.701-3.428,3.428-6.154,6.933-6.777C51.382,32.128,51.382,31.894,51.227,31.894z"/>
			</g>
		</g>
		<g>
			<g>
				<path class="st5" d="M45.182,181.5h-2.3v-2.3c0-1.7-1.4-3.2-3.2-3.2c-1.8,0-3.2,1.4-3.2,3.2v2.3h-2.3c-1.7,0-3.2,1.4-3.2,3.2
					c0,1.8,1.4,3.2,3.2,3.2h2.3v2.3c0,1.7,1.4,3.2,3.2,3.2c1.8,0,3.2-1.4,3.2-3.2v-2.3h2.3c1.7,0,3.2-1.4,3.2-3.2
					C48.382,182.9,46.982,181.5,45.182,181.5z"/>
			</g>
		</g>
		<g>
			<g>
				<path class="st9" d="M191.282,25c-1.878,0-3.4,1.522-3.4,3.4c0,1.878,1.522,3.4,3.4,3.4s3.4-1.522,3.4-3.4
					C194.682,26.522,193.16,25,191.282,25z"/>
			</g>
		</g>
		<g>
			<g>
				<path class="st6" d="M27.282,153c-1.878,0-3.4,1.522-3.4,3.4c0,1.878,1.522,3.4,3.4,3.4s3.4-1.522,3.4-3.4
					C30.682,154.522,29.16,153,27.282,153z"/>
			</g>
		</g>
		<g>
			<g>
				<path d="M74.313,101.82c-1.381,0-2.5,1.119-2.5,2.5v4.284c0,1.381,1.119,2.5,2.5,2.5s2.5-1.119,2.5-2.5v-4.284
					C76.813,102.939,75.693,101.82,74.313,101.82z"/>
			</g>
		</g>
		<g>
			<g>
				<path d="M76.99,99.678h-5.354c-1.381,0-2.5,1.119-2.5,2.5s1.119,2.5,2.5,2.5h5.354c1.381,0,2.5-1.119,2.5-2.5
					S78.371,99.678,76.99,99.678z"/>
			</g>
		</g>
		<g>
			<g>
				<path d="M74.313,130.576c-1.381,0-2.5,1.119-2.5,2.5v4.284c0,1.381,1.119,2.5,2.5,2.5s2.5-1.119,2.5-2.5v-4.284
					C76.813,131.695,75.693,130.576,74.313,130.576z"/>
			</g>
		</g>
		<g>
			<g>
				<path d="M76.99,137.001h-5.354c-1.381,0-2.5,1.119-2.5,2.5s1.119,2.5,2.5,2.5h5.354c1.381,0,2.5-1.119,2.5-2.5
					S78.371,137.001,76.99,137.001z"/>
			</g>
		</g>
		<g>
			<g>
				<path d="M64.967,112.557l-3.71-2.142c-1.192-0.69-2.725-0.282-3.415,0.915c-0.69,1.196-0.28,2.725,0.915,3.415l3.71,2.142
					c0.394,0.228,0.823,0.335,1.248,0.335c0.863,0,1.704-0.448,2.167-1.25C66.572,114.776,66.162,113.247,64.967,112.557z"/>
			</g>
		</g>
		<g>
			<g>
				<path d="M60.74,107.025c-1.193-0.69-2.725-0.282-3.415,0.915l-2.678,4.638c-0.69,1.196-0.28,2.725,0.915,3.415
					c0.394,0.228,0.823,0.335,1.248,0.335c0.863,0,1.704-0.448,2.167-1.25l2.678-4.638C62.346,109.244,61.936,107.715,60.74,107.025
					z"/>
			</g>
		</g>
		<g>
			<g>
				<path d="M89.869,126.935l-3.71-2.142c-1.193-0.69-2.725-0.282-3.415,0.915c-0.69,1.196-0.28,2.725,0.915,3.415l3.71,2.142
					c0.394,0.228,0.823,0.335,1.248,0.335c0.863,0,1.704-0.448,2.167-1.25C91.475,129.154,91.064,127.625,89.869,126.935z"/>
			</g>
		</g>
		<g>
			<g>
				<path d="M93.063,125.687c-1.194-0.69-2.725-0.282-3.415,0.915l-2.678,4.638c-0.69,1.196-0.28,2.725,0.915,3.415
					c0.394,0.228,0.823,0.335,1.248,0.335c0.863,0,1.704-0.448,2.167-1.25l2.678-4.638
					C94.669,127.906,94.259,126.377,93.063,125.687z"/>
			</g>
		</g>
		<g>
			<g>
				<path d="M65.882,125.708c-0.69-1.197-2.222-1.604-3.415-0.915l-3.71,2.142c-1.195,0.69-1.605,2.219-0.915,3.415
					c0.463,0.802,1.304,1.25,2.167,1.25c0.425,0,0.854-0.108,1.248-0.335l3.71-2.142C66.162,128.432,66.572,126.903,65.882,125.708z
					"/>
			</g>
		</g>
		<g>
			<g>
				<path d="M61.655,131.239l-2.678-4.638c-0.69-1.197-2.221-1.604-3.415-0.915c-1.195,0.69-1.605,2.219-0.915,3.415l2.678,4.638
					c0.463,0.802,1.304,1.25,2.167,1.25c0.425,0,0.854-0.108,1.248-0.335C61.936,133.964,62.346,132.435,61.655,131.239z"/>
			</g>
		</g>
		<g>
			<g>
				<path d="M90.784,111.33c-0.69-1.197-2.223-1.604-3.415-0.915l-3.71,2.142c-1.195,0.69-1.605,2.219-0.915,3.415
					c0.463,0.802,1.304,1.25,2.167,1.25c0.425,0,0.854-0.108,1.248-0.335l3.71-2.142C91.064,114.054,91.475,112.525,90.784,111.33z"
					/>
			</g>
		</g>
		<g>
			<g>
				<path d="M93.979,112.578l-2.678-4.638c-0.69-1.197-2.223-1.604-3.415-0.915c-1.195,0.69-1.605,2.219-0.915,3.415l2.678,4.638
					c0.463,0.802,1.304,1.25,2.167,1.25c0.425,0,0.854-0.108,1.248-0.335C94.259,115.302,94.669,113.773,93.979,112.578z"/>
			</g>
		</g>
		<g>
			<g>
				<path d="M128.06,93.199h-0.54c-1.381,0-2.5,1.119-2.5,2.5s1.119,2.5,2.5,2.5h0.54c1.381,0,2.5-1.119,2.5-2.5
					S129.44,93.199,128.06,93.199z"/>
			</g>
		</g>
		<g>
			<g>
				<path d="M136.337,109.083c-1.381,0-2.5,1.119-2.5,2.5v8.376c0,1.381,1.119,2.5,2.5,2.5s2.5-1.119,2.5-2.5v-8.376
					C138.837,110.202,137.718,109.083,136.337,109.083z"/>
			</g>
		</g>
		<g>
			<g>
				<path d="M136.337,59.667c-1.381,0-2.5,1.119-2.5,2.5v8c0,1.381,1.119,2.5,2.5,2.5s2.5-1.119,2.5-2.5v-8
					C138.837,60.787,137.718,59.667,136.337,59.667z"/>
			</g>
		</g>
		<g>
			<g>
				<path d="M158.549,109.722l-5.923-5.922c-0.977-0.976-2.559-0.976-3.535,0c-0.977,0.976-0.977,2.559,0,3.536l5.923,5.922
					c0.488,0.488,1.128,0.732,1.768,0.732s1.279-0.244,1.768-0.732C159.525,112.282,159.525,110.699,158.549,109.722z"/>
			</g>
		</g>
		<g>
			<g>
				<path d="M123.341,74.515l-5.657-5.657c-0.977-0.976-2.559-0.976-3.535,0c-0.977,0.976-0.977,2.559,0,3.536l5.657,5.657
					c0.488,0.488,1.128,0.732,1.768,0.732s1.279-0.244,1.768-0.732C124.317,77.074,124.317,75.491,123.341,74.515z"/>
			</g>
		</g>
		<g>
			<g>
				<path d="M165.249,88.546h-8.376c-1.381,0-2.5,1.119-2.5,2.5s1.119,2.5,2.5,2.5h8.376c1.381,0,2.5-1.119,2.5-2.5
					S166.63,88.546,165.249,88.546z"/>
			</g>
		</g>
		<g>
			<g>
				<path d="M115.458,88.546h-8c-1.381,0-2.5,1.119-2.5,2.5s1.119,2.5,2.5,2.5h8c1.381,0,2.5-1.119,2.5-2.5
					S116.839,88.546,115.458,88.546z"/>
			</g>
		</g>
		<g>
			<g>
				<path d="M158.549,68.835c-0.977-0.977-2.559-0.976-3.535,0l-5.923,5.922c-0.977,0.977-0.977,2.56,0,3.536
					c0.488,0.488,1.128,0.732,1.768,0.732s1.279-0.244,1.768-0.732l5.923-5.922C159.525,71.394,159.525,69.811,158.549,68.835z"/>
			</g>
		</g>
		<g>
			<g>
				<path d="M123.341,104.042c-0.977-0.977-2.559-0.977-3.535,0l-5.657,5.657c-0.977,0.976-0.977,2.559,0,3.535
					c0.488,0.488,1.128,0.732,1.768,0.732s1.279-0.244,1.768-0.732l5.657-5.657C124.317,106.602,124.317,105.019,123.341,104.042z"
					/>
			</g>
		</g>
		<g>
			<g>
				<g>
					<path d="M136.337,68.131c-12.593,0-22.838,10.245-22.838,22.838c0,12.593,10.245,22.838,22.838,22.838
						s22.838-10.245,22.838-22.838C159.175,78.376,148.93,68.131,136.337,68.131z M136.337,108.807
						c-9.836,0-17.838-8.002-17.838-17.838s8.002-17.838,17.838-17.838s17.838,8.002,17.838,17.838S146.173,108.807,136.337,108.807
						z"/>
				</g>
			</g>
		</g>
		<g>
			<g>
				<g>
					<path d="M74.313,107.858c-7.157,0-12.98,5.823-12.98,12.981c0,7.158,5.823,12.981,12.98,12.981
						c7.158,0,12.981-5.823,12.981-12.981C87.294,113.682,81.471,107.858,74.313,107.858z M74.313,128.821
						c-4.4,0-7.98-3.58-7.98-7.981s3.58-7.981,7.98-7.981c4.401,0,7.981,3.581,7.981,7.981S78.714,128.821,74.313,128.821z"/>
				</g>
			</g>
		</g>
		<g>
			<g>
				<g>
					<path d="M136.337,46.995c-4.716,0-8.552,3.836-8.552,8.551s3.836,8.551,8.552,8.551s8.552-3.836,8.552-8.551
						S141.053,46.995,136.337,46.995z M136.337,59.098c-1.958,0-3.552-1.593-3.552-3.551s1.594-3.551,3.552-3.551
						s3.552,1.593,3.552,3.551S138.295,59.098,136.337,59.098z"/>
				</g>
			</g>
		</g>
		<g>
			<g>
				<g>
					<path d="M136.337,117.995c-4.716,0-8.552,3.836-8.552,8.551s3.836,8.551,8.552,8.551s8.552-3.836,8.552-8.551
						S141.053,117.995,136.337,117.995z M136.337,130.098c-1.958,0-3.552-1.593-3.552-3.551s1.594-3.551,3.552-3.551
						s3.552,1.593,3.552,3.551S138.295,130.098,136.337,130.098z"/>
				</g>
			</g>
		</g>
		<g>
			<g>
				<g>
					<path d="M141.121,80.665c-4.478,0-8.121,3.643-8.121,8.121s3.644,8.121,8.121,8.121s8.121-3.643,8.121-8.121
						S145.599,80.665,141.121,80.665z M141.121,91.907c-1.721,0-3.121-1.4-3.121-3.121s1.4-3.121,3.121-3.121s3.121,1.4,3.121,3.121
						S142.842,91.907,141.121,91.907z"/>
				</g>
			</g>
		</g>
		<g>
			<g>
				<g>
					<path d="M117.281,59.897c-3.335-3.334-8.76-3.333-12.093,0c-3.334,3.334-3.334,8.759,0,12.093
						c1.667,1.667,3.856,2.501,6.047,2.501c2.189,0,4.379-0.833,6.046-2.501C120.615,68.657,120.615,63.231,117.281,59.897z
						 M113.746,68.456c-1.386,1.385-3.639,1.383-5.022,0c-1.385-1.385-1.385-3.638,0-5.023c0.692-0.692,1.602-1.038,2.512-1.038
						c0.909,0,1.818,0.346,2.511,1.038C115.131,64.817,115.131,67.071,113.746,68.456z"/>
				</g>
			</g>
		</g>
		<g>
			<g>
				<g>
					<path d="M167.487,110.102C167.486,110.102,167.486,110.102,167.487,110.102c-3.335-3.335-8.761-3.335-12.095,0
						c-3.334,3.334-3.334,8.759,0,12.093c1.667,1.667,3.856,2.501,6.047,2.501c2.189,0,4.38-0.834,6.048-2.501
						C170.819,118.861,170.819,113.436,167.487,110.102z M163.951,118.66c-1.385,1.385-3.639,1.385-5.023,0s-1.385-3.638,0-5.023
						c0.692-0.692,1.603-1.039,2.512-1.039s1.819,0.346,2.512,1.039C165.335,115.022,165.335,117.275,163.951,118.66z"/>
				</g>
			</g>
		</g>
		<g>
			<g>
				<g>
					<path d="M100.837,82.495c-4.716,0-8.552,3.836-8.552,8.551s3.836,8.551,8.552,8.551s8.552-3.836,8.552-8.551
						S105.553,82.495,100.837,82.495z M100.837,94.598c-1.958,0-3.552-1.593-3.552-3.551s1.594-3.551,3.552-3.551
						s3.552,1.593,3.552,3.551S102.795,94.598,100.837,94.598z"/>
				</g>
			</g>
		</g>
		<g>
			<g>
				<g>
					<path d="M171.837,82.495c-4.716,0-8.552,3.836-8.552,8.551s3.836,8.551,8.552,8.551s8.552-3.836,8.552-8.551
						S176.553,82.495,171.837,82.495z M171.837,94.598c-1.958,0-3.552-1.593-3.552-3.551s1.594-3.551,3.552-3.551
						s3.552,1.593,3.552,3.551S173.795,94.598,171.837,94.598z"/>
				</g>
			</g>
		</g>
		<g>
			<g>
				<g>
					<path d="M117.281,110.102c-3.335-3.335-8.76-3.334-12.093,0c-3.334,3.334-3.334,8.759,0,12.093
						c1.667,1.667,3.856,2.501,6.047,2.501c2.189,0,4.379-0.834,6.046-2.501C120.615,118.861,120.615,113.436,117.281,110.102z
						 M113.746,118.66c-1.386,1.385-3.639,1.383-5.022,0c-1.385-1.385-1.385-3.638,0-5.023c0.692-0.692,1.602-1.038,2.512-1.038
						c0.909,0,1.818,0.346,2.511,1.038C115.131,115.022,115.131,117.275,113.746,118.66z"/>
				</g>
			</g>
		</g>
		<g>
			<g>
				<g>
					<path d="M167.486,59.897c-3.334-3.335-8.76-3.335-12.094,0c-3.334,3.334-3.334,8.759,0,12.093
						c1.667,1.667,3.856,2.501,6.047,2.501c2.189,0,4.38-0.834,6.048-2.501C170.819,68.657,170.819,63.231,167.486,59.897z
						 M163.951,68.456c-1.385,1.385-3.639,1.385-5.023,0s-1.385-3.638,0-5.023c0.692-0.692,1.603-1.039,2.512-1.039
						s1.819,0.346,2.511,1.039C165.335,64.817,165.335,67.071,163.951,68.456z"/>
				</g>
			</g>
		</g>
	</g>
</g>
<g id="Layer_6">
</g>
<g id="Layer_7">
</g>
<g id="Layer_8">
</g>
<g id="Layer_9">
</g>
<g id="Layer_10">
</g>
<g id="Layer_11">
</g>
<g id="Layer_12">
</g>
<g id="Layer_13">
</g>
<g id="Layer_14">
</g>
<g id="Layer_15">
</g>
<g id="Layer_16">
</g>
<g id="Layer_17">
</g>
<g id="Layer_18">
</g>
<g id="Layer_19">
</g>
<g id="Layer_20">
</g>
<g id="Layer_21">
</g>
<g id="Layer_22">
</g>
<g id="Layer_23">
</g>
<g id="Layer_24">
</g>
<g id="Layer_25">
</g>
<g id="Layer_26">
</g>
<g id="Layer_27">
</g>
<g id="Layer_28">
</g>
<g id="Layer_29">
</g>
<g id="Layer_30">
</g>
<g id="Layer_31">
</g>
<g id="Layer_32">
</g>
<g id="Layer_33">
</g>
<g id="Layer_34">
</g>
<g id="Layer_35">
</g>
<g id="Layer_36">
</g>
<g id="Layer_37">
</g>
<g id="Layer_38">
</g>
<g id="Layer_39">
</g>
<g id="Layer_40">
</g>
<g id="Layer_41">
</g>
<g id="Layer_42">
</g>
<g id="Layer_43">
</g>
<g id="Layer_44">
</g>
<g id="Layer_45">
</g>
<g id="Layer_46">
</g>
<g id="Layer_47">
</g>
<g id="Layer_48">
</g>
<g id="Layer_49">
</g>
<g id="Layer_50">
</g>
<g id="Layer_51">
</g>
<g id="Layer_52">
</g>
<g id="Layer_53">
</g>
<g id="Layer_54">
</g>
<g id="Layer_55">
</g>
<g id="Layer_56">
</g>
<g id="Layer_57">
</g>
<g id="Layer_58">
</g>
<g id="Layer_59">
</g>
<g id="Layer_60">
</g>
<g id="Layer_61">
</g>
<g id="Layer_62">
</g>
<g id="Layer_63">
</g>
<g id="Layer_64">
</g>
<g id="Layer_65">
</g>
<g id="Layer_66">
</g>
<g id="Layer_67">
</g>
<g id="Layer_68">
</g>
<g id="Layer_69">
</g>
<g id="Layer_70">
</g>
<g id="Layer_71">
</g>
<g id="Layer_72">
</g>
<g id="Layer_73">
</g>
<g id="Layer_74">
</g>
<g id="Layer_75">
</g>
<g id="Layer_76">
</g>
<g id="Layer_77">
</g>
<g id="Layer_78">
</g>
<g id="Layer_79">
</g>
<g id="Layer_80">
</g>
</svg>
