<?xml version="1.0" encoding="utf-8"?>
<!-- Generator: Adobe Illustrator 24.0.0, SVG Export Plug-In . SVG Version: 6.00 Build 0)  -->
<svg version="1.1" xmlns="http://www.w3.org/2000/svg" xmlns:xlink="http://www.w3.org/1999/xlink" x="0px" y="0px"
	 viewBox="0 0 256 256" style="enable-background:new 0 0 256 256;" xml:space="preserve">
<style type="text/css">
	.st0{fill:#6CADEF;}
	.st1{fill:#F9D0B4;}
	.st2{fill:#5B5D60;}
	.st3{fill:#9BE5F9;}
	.st4{fill:#FC657E;}
	.st5{fill:#70D6F9;}
	.st6{fill:#F5C84C;}
	.st7{fill:#F98FA6;}
	.st8{fill:#FED690;}
	.st9{fill:#87D147;}
	.st10{fill:#B2E26D;}
	.st11{fill:#EDF4FC;}
	.st12{fill:#FCDD86;}
	.st13{fill:#754E34;}
	.st14{fill:#B598F9;}
	.st15{fill:#5290DB;}
	.st16{fill:#C7D7E5;}
	.st17{fill:#C18E6B;}
	.st18{fill:#DAE6F1;}
	.st19{fill:#3CAADC;}
	.st20{fill:#818182;}
	.st21{fill:#CBEFF7;}
	.st22{fill:#FCA265;}
	.st23{fill:#A57453;}
	.st24{fill:#8652D8;}
	.st25{fill:#966AEA;}
	.st26{fill:#FEB872;}
	.st27{fill:#EDB311;}
	.st28{fill:#EF4460;}
</style>
<g id="Layer_1">
	<g>
		<g>
			<g>
				<path class="st0" d="M127.917,169.887l-0.311-5.363c-0.294-5.271-3.98-9.739-9.1-11.027l-16.55-4.166
					c-8.772-2.208-15.67-5.991-15.581-5.947c-3.606-1.778-5.89-5.45-5.89-9.471v-4.975c-4.222,2.21-9.011,3.469-14.083,3.469h0
					c-5.072,0-9.861-1.259-14.083-3.469v4.975c0,4.024-2.292,7.697-5.901,9.477c-4.869,2.4-9.121,4.319-15.57,5.942l-16.55,4.166
					c-5.119,1.289-8.806,5.757-9.1,11.027L2.507,210.94c-0.135,2.321,1.711,4.277,4.036,4.277h95.396
					c-2.601-4.458-4.099-9.639-4.099-15.173C97.841,183.416,111.299,169.932,127.917,169.887z"/>
			</g>
		</g>
		<g>
			<g>
				<path class="st1" d="M92.604,65.276c-1.999-2.096-5.249-2.289-7.527-0.501c-3.603,2.828-9.836,6.323-18.641,6.323
					c-8.826,0-15.092-3.512-18.71-6.344c-2.276-1.782-5.52-1.582-7.515,0.51l-0.01,0.011c-2.803,2.94-4.367,6.845-4.367,10.907
					v25.655c0,16.813,13.756,30.569,30.569,30.569c16.813,0,30.569-13.756,30.569-30.569V76.183
					C96.971,72.121,95.407,68.215,92.604,65.276z"/>
			</g>
		</g>
		<g>
			<g>
				<path class="st1" d="M98.933,78.541c-0.668,0-1.322,0.056-1.962,0.156v23.142c0,0.689-0.031,1.372-0.077,2.05
					c0.665,0.107,1.343,0.178,2.039,0.178c7.049,0,12.763-5.714,12.763-12.763S105.981,78.541,98.933,78.541z"/>
			</g>
		</g>
		<g>
			<g>
				<path class="st1" d="M35.834,101.838V78.696c-0.64-0.099-1.294-0.156-1.962-0.156c-7.049,0-12.763,5.714-12.763,12.763
					s5.714,12.763,12.763,12.763c0.695,0,1.373-0.071,2.039-0.178v0C35.865,103.209,35.834,102.527,35.834,101.838z"/>
			</g>
		</g>
		<g>
			<g>
				<path class="st2" d="M96.857,52.465c-1.024,0-1.911-0.789-1.925-1.813c-0.234-17.034-19.686-20.233-39.057-16.888
					C39.451,36.6,27.448,50.842,27.448,67.508v12.78c1.889-1.104,4.079-1.748,6.424-1.748c0.668,0,1.322,0.056,1.962,0.156v-2.513
					c0-4.062,1.564-7.968,4.367-10.907l0.01-0.011c1.995-2.092,5.238-2.292,7.515-0.51c3.618,2.831,9.884,6.344,18.71,6.344
					c8.804,0,15.038-3.495,18.641-6.323c2.278-1.788,5.528-1.596,7.527,0.501c2.803,2.94,4.367,6.845,4.367,10.907v2.513
					c0.64-0.099,1.294-0.156,1.962-0.156c2.374,0,4.588,0.66,6.492,1.789V69.836C105.424,54.583,99.917,52.465,96.857,52.465z"/>
			</g>
		</g>
		<g>
			<g>
				<path class="st1" d="M3.647,191.28l-1.14,19.66c-0.135,2.321,1.711,4.277,4.036,4.277h18.231V191.28H3.647z"/>
			</g>
		</g>
		<g>
			<g>
				<path class="st3" d="M79.46,104.098c-3.348,0-6.589-1.003-9.334-2.835c-1.11-0.74-2.389-1.187-3.724-1.187
					c-1.334,0-2.614,0.446-3.724,1.187c-2.745,1.831-5.985,2.835-9.333,2.835h-9.462v18.354c5.599,6.108,13.631,9.955,22.519,9.955
					h0c8.888,0,16.92-3.846,22.519-9.955v-18.354H79.46z"/>
			</g>
		</g>
		<g>
			<g>
				<path class="st1" d="M86.375,143.384c-3.607-1.778-5.89-5.45-5.89-9.471v-4.975c-4.222,2.21-9.011,3.469-14.083,3.469h0
					c-5.072,0-9.861-1.259-14.083-3.469v4.975c0,4.021-2.284,7.693-5.89,9.472c-0.519,0.256-1.03,0.505-1.538,0.75
					c3.529,8.418,11.85,14.379,21.511,14.379c9.65,0,17.964-5.947,21.5-14.351C86.909,143.677,86.35,143.372,86.375,143.384z"/>
			</g>
		</g>
		<g>
			<g>
				<path class="st4" d="M255.925,58.1c-3.1-0.6-5.6-3-6.2-6.1c0-0.1-0.3-0.1-0.3,0c-0.6,3.1-3.1,5.5-6.2,6.1c-0.1,0-0.1,0.2,0,0.3
					c3.1,0.6,5.6,3,6.2,6.1c0,0.1,0.3,0.1,0.3,0c0.6-3.1,3.1-5.5,6.2-6.1C256.025,58.3,256.025,58.1,255.925,58.1z"/>
			</g>
		</g>
		<g>
			<g>
				<path class="st5" d="M151.113,20h-2.4v-2.3c0-1.8-1.4-3.2-3.2-3.2c-1.7,0-3.2,1.4-3.2,3.1V20h-2.3c-1.8,0-3.2,1.4-3.2,3.2
					c-0.1,1.7,1.3,3.2,3.2,3.2h2.3v2.3c0,1.8,1.4,3.2,3.2,3.2c1.7,0,3.2-1.4,3.2-3.1v-2.4h2.3c1.8,0,3.2-1.4,3.2-3.2
					C154.213,21.5,152.813,20,151.113,20z"/>
			</g>
		</g>
		<g>
			<g>
				<path class="st6" d="M177.413,4.1c-1.878,0-3.4,1.522-3.4,3.4s1.522,3.4,3.4,3.4s3.4-1.522,3.4-3.4S179.291,4.1,177.413,4.1z"/>
			</g>
		</g>
		<g>
			<g>
				<g>
					<path d="M130.102,164.385c-0.356-6.398-4.771-11.748-10.985-13.313l-16.55-4.166c-8.144-2.05-14.637-5.523-14.956-5.696
						c-0.042-0.024-0.085-0.047-0.13-0.069c-2.773-1.368-4.496-4.138-4.496-7.229v-4.975c0-0.875-0.457-1.686-1.206-2.139
						c-0.749-0.453-1.68-0.482-2.454-0.076c-4.035,2.112-8.383,3.184-12.923,3.184s-8.888-1.071-12.923-3.184
						c-0.776-0.406-1.706-0.376-2.454,0.076c-0.749,0.453-1.206,1.264-1.206,2.139v4.975c0,3.045-1.769,5.885-4.506,7.234
						c-4.457,2.197-8.668,4.147-15.075,5.76l-16.55,4.166c-6.215,1.564-10.63,6.914-10.985,13.307l-2.692,46.416
						c-0.104,1.791,0.543,3.565,1.774,4.87c1.23,1.304,2.965,2.052,4.758,2.052h95.396c0.895,0,1.722-0.479,2.168-1.255
						s0.442-1.732-0.009-2.505c-2.458-4.212-3.758-9.023-3.758-13.913c0-15.209,12.374-27.616,27.583-27.657
						c0.687-0.002,1.343-0.286,1.813-0.787c0.471-0.5,0.715-1.172,0.675-1.858L130.102,164.385z M95.341,200.044
						c0,4.365,0.877,8.678,2.561,12.673H6.543c-0.579,0-0.952-0.303-1.122-0.484c-0.171-0.181-0.452-0.571-0.419-1.149l2.692-46.421
						c0.234-4.202,3.133-7.715,7.214-8.742l16.55-4.166c6.882-1.732,11.348-3.798,16.065-6.124c4.5-2.218,7.295-6.709,7.295-11.719
						v-1.122c7.394,2.781,15.772,2.782,23.166,0v1.122c0,4.953,2.729,9.397,7.133,11.638c0.805,0.508,2.222,1.173,4.788,2.282
						c2.643,1.142,6.773,2.749,11.439,3.923l16.55,4.166c4.081,1.027,6.98,4.541,7.214,8.748l0.164,2.832
						C108.542,168.891,95.341,182.972,95.341,200.044z"/>
				</g>
			</g>
		</g>
		<g>
			<g>
				<g>
					<path d="M94.413,63.55L94.413,63.55c-2.886-3.026-7.563-3.345-10.88-0.742c-3.364,2.641-9.062,5.79-17.097,5.79
						c-8.053,0-13.781-3.161-17.169-5.813c-3.313-2.593-7.984-2.268-10.875,0.765c-3.262,3.42-5.058,7.907-5.058,12.633v25.655
						c0,18.234,14.834,33.068,33.069,33.068c18.234,0,33.068-14.834,33.068-33.068V76.183C99.471,71.457,97.675,66.97,94.413,63.55z
						 M94.471,101.838c0,15.477-12.591,28.068-28.068,28.068s-28.069-12.591-28.069-28.068V76.183c0-3.435,1.306-6.696,3.687-9.193
						c0.598-0.627,1.4-0.946,2.214-0.946c0.681,0,1.37,0.224,1.951,0.679c4.007,3.136,10.773,6.875,20.251,6.875
						c9.463,0,16.2-3.729,20.184-6.856c1.281-1.006,3.075-0.893,4.175,0.26c2.37,2.485,3.676,5.746,3.676,9.182V101.838z"/>
				</g>
			</g>
		</g>
		<g>
			<g>
				<path d="M24.774,171.586c-1.381,0-2.5,1.119-2.5,2.5v40.612c0,1.381,1.119,2.5,2.5,2.5s2.5-1.119,2.5-2.5v-40.612
					C27.274,172.705,26.155,171.586,24.774,171.586z"/>
			</g>
		</g>
		<g>
			<g>
				<g>
					<path d="M98.933,76.041c-0.766,0-1.555,0.063-2.346,0.186c-1.218,0.189-2.116,1.238-2.116,2.47v23.142
						c0,0.56-0.022,1.159-0.071,1.883c-0.086,1.288,0.822,2.429,2.096,2.635c0.876,0.141,1.673,0.21,2.437,0.21
						c8.416,0,15.263-6.847,15.263-15.263S107.349,76.041,98.933,76.041z M99.471,101.552V81.055
						c5.41,0.281,9.725,4.771,9.725,10.249S104.88,101.271,99.471,101.552z"/>
				</g>
			</g>
		</g>
		<g>
			<g>
				<g>
					<path d="M38.333,101.838V78.696c0-1.232-0.898-2.281-2.115-2.47c-9.471-1.472-17.608,5.895-17.609,15.077
						c0,8.416,6.847,15.263,15.263,15.263c0.766,0,1.563-0.069,2.438-0.211c1.273-0.207,2.181-1.348,2.095-2.635
						C38.356,102.991,38.333,102.393,38.333,101.838z M33.333,101.552c-5.41-0.281-9.724-4.771-9.724-10.249
						s4.314-9.968,9.724-10.249V101.552z"/>
				</g>
			</g>
		</g>
		<g>
			<g>
				<path d="M80.638,88.607c-2.268,0-4.107,1.839-4.107,4.107s1.839,4.107,4.107,4.107s4.107-1.839,4.107-4.107
					S82.906,88.607,80.638,88.607z"/>
			</g>
		</g>
		<g>
			<g>
				<path d="M53.056,88.607c-2.268,0-4.107,1.839-4.107,4.107s1.839,4.107,4.107,4.107s4.107-1.839,4.107-4.107
					S55.324,88.607,53.056,88.607z"/>
			</g>
		</g>
		<g>
			<g>
				<g>
					<path d="M97.415,49.981c-0.225-5.691-2.408-10.294-6.496-13.689c-9.644-8.008-26.362-6.564-35.47-4.992
						C37.775,34.352,24.948,49.58,24.948,67.508v12.78c0,0.896,0.479,1.723,1.256,2.168c0.776,0.446,1.732,0.442,2.506-0.01
						c1.573-0.919,3.358-1.406,5.163-1.406c0.509,0,1.04,0.042,1.577,0.126c0.722,0.113,1.456-0.096,2.011-0.571
						s0.874-1.169,0.874-1.899v-2.513c0-3.435,1.306-6.696,3.687-9.193c1.098-1.152,2.889-1.266,4.165-0.267
						c4.007,3.136,10.773,6.875,20.251,6.875c9.463,0,16.2-3.729,20.184-6.856c1.281-1.006,3.075-0.893,4.175,0.26
						c2.37,2.485,3.676,5.746,3.676,9.182v2.513c0,0.73,0.319,1.424,0.874,1.899s1.292,0.685,2.01,0.571
						c0.538-0.083,1.068-0.126,1.578-0.126c1.825,0,3.629,0.498,5.217,1.439c0.393,0.233,0.833,0.35,1.275,0.35
						c0.427,0,0.854-0.109,1.237-0.328c0.781-0.445,1.263-1.274,1.263-2.172V69.836C107.924,53.303,101.583,50.219,97.415,49.981z
						 M102.924,76.578c-1.125-0.308-2.285-0.486-3.454-0.527c-0.033-4.678-1.826-9.112-5.057-12.5
						c-2.886-3.026-7.563-3.346-10.88-0.742c-3.364,2.641-9.062,5.79-17.097,5.79c-8.053,0-13.781-3.161-17.169-5.813
						c-3.313-2.593-7.984-2.268-10.875,0.765c-3.231,3.388-5.024,7.822-5.058,12.5c-1.146,0.041-2.282,0.212-3.386,0.509v-9.051
						c0-15.488,11.083-28.644,26.352-31.281c14.055-2.427,25.509-1.001,31.425,3.912c3.105,2.579,4.645,6.029,4.708,10.548
						c0.032,2.359,2.018,4.279,4.425,4.279c3.856,0,6.067,5.42,6.067,14.871V76.578z"/>
				</g>
			</g>
		</g>
		<g>
			<g>
				<path d="M46.094,103.09l-7.973-18.096c-0.556-1.264-2.033-1.837-3.295-1.28c-1.264,0.557-1.836,2.032-1.28,3.295l7.973,18.096
					c0.412,0.936,1.328,1.493,2.289,1.493c0.336,0,0.679-0.068,1.006-0.213C46.078,105.829,46.65,104.353,46.094,103.09z"/>
			</g>
		</g>
		<g>
			<g>
				<path d="M97.979,83.714c-1.264-0.558-2.739,0.017-3.295,1.28l-7.972,18.096c-0.557,1.264,0.016,2.739,1.28,3.295
					c0.328,0.145,0.67,0.213,1.006,0.213c0.961,0,1.877-0.557,2.289-1.493l7.972-18.096C99.815,85.746,99.242,84.271,97.979,83.714z
					"/>
			</g>
		</g>
		<g>
			<g>
				<g>
					<path d="M24.774,188.78H3.647c-1.325,0-2.419,1.033-2.496,2.355l-1.14,19.66c-0.104,1.791,0.542,3.565,1.773,4.87
						c1.231,1.305,2.966,2.053,4.759,2.053h18.23c1.381,0,2.5-1.119,2.5-2.5V191.28C27.274,189.899,26.155,188.78,24.774,188.78z
						 M22.274,212.717H6.543c-0.579,0-0.952-0.303-1.123-0.484c-0.171-0.181-0.452-0.57-0.418-1.148l1.004-17.305h16.268V212.717z"
						/>
				</g>
			</g>
		</g>
		<g>
			<g>
				<g>
					<path d="M88.921,101.598h-9.462c-2.831,0-5.579-0.835-7.946-2.414c-3.151-2.104-7.072-2.104-10.222,0
						c-2.368,1.579-5.115,2.414-7.946,2.414h-9.462c-1.381,0-2.5,1.119-2.5,2.5v18.354c0,0.625,0.234,1.228,0.657,1.689
						c6.271,6.842,15.15,10.766,24.362,10.766s18.091-3.924,24.362-10.766c0.423-0.461,0.657-1.063,0.657-1.689v-18.354
						C91.421,102.717,90.302,101.598,88.921,101.598z M86.421,121.456c-5.279,5.382-12.521,8.451-20.019,8.451
						s-14.74-3.069-20.019-8.451v-14.858h6.962c3.822,0,7.529-1.125,10.721-3.255c1.503-1.003,3.168-1.003,4.672,0
						c3.191,2.129,6.899,3.255,10.721,3.255h6.962V121.456z"/>
				</g>
			</g>
		</g>
		<g>
			<g>
				<g>
					<path d="M88.999,141.916c-0.778-0.38-1.271-0.641-1.39-0.706c-0.042-0.023-0.084-0.046-0.128-0.067
						c-2.773-1.368-4.496-4.138-4.496-7.229v-4.975c0-0.875-0.457-1.686-1.206-2.139c-0.749-0.453-1.68-0.482-2.454-0.076
						c-4.035,2.112-8.383,3.184-12.923,3.184s-8.888-1.071-12.923-3.184c-0.776-0.406-1.706-0.376-2.454,0.076
						c-0.749,0.453-1.206,1.264-1.206,2.139v4.975c0,3.092-1.723,5.862-4.496,7.229c-0.513,0.252-1.017,0.499-1.519,0.74
						c-1.198,0.578-1.734,1.992-1.22,3.218c4.052,9.667,13.401,15.912,23.817,15.912c10.401,0,19.745-6.234,23.804-15.881
						C90.721,143.909,90.191,142.498,88.999,141.916z M66.402,156.013c-7.617,0-14.528-4.149-18.188-10.746
						c4.093-2.319,6.604-6.602,6.604-11.354v-1.122c7.394,2.781,15.772,2.781,23.166,0v1.122c0,4.752,2.512,9.035,6.605,11.354
						C80.93,151.862,74.017,156.013,66.402,156.013z"/>
				</g>
			</g>
		</g>
		<g>
			<g>
				<path class="st7" d="M251.671,160.838c-0.284-5.093-3.846-9.41-8.792-10.655l-5.65-1.426c-0.53-0.134-13.981-3.529-14.675-3.704
					c-1.698-0.428-3.347-1.034-4.918-1.808l-7.028-3.465c-2.699-1.331-4.408-4.079-4.408-7.088v-8.62
					c-4.027,2.195-8.635,3.444-13.521,3.444c-4.886,0-9.494-1.249-13.521-3.444v8.62c0,3.009-1.709,5.757-4.408,7.088l-7.028,3.465
					c-1.571,0.774-3.219,1.38-4.918,1.808c-0.1,0.025-14.582,3.681-14.675,3.704l-5.65,1.426c-4.946,1.245-8.509,5.562-8.792,10.655
					l-0.347,9.528c14.106,2.523,24.817,14.846,24.817,29.678c0,5.534-1.497,10.715-4.099,15.173h95.396
					c2.291,0,4.124-1.901,4.041-4.19L251.671,160.838z"/>
			</g>
		</g>
		<g>
			<g>
				<path class="st8" d="M232.496,117.095c5.429-8.515,2.865-16.805,0.47-21.487c-2.101,3.333-5.805,5.553-10.036,5.553
					c-0.647,0-1.277-0.066-1.896-0.165c-0.667,9.946-6.503,18.535-14.833,23.075v8.62c0,2.76,1.448,5.285,3.768,6.714
					c0.93,0.573-0.25-0.099,7.668,3.839c1.065,0.525,2.472,1.081,3.557,1.421c0.215,0.067,0.433,0.126,0.65,0.188
					c4.183-1.531,7.874-3.962,10.265-7.747c4.383-6.94,1.825-13.665,0.212-16.675C231.753,119.375,231.851,118.107,232.496,117.095z
					"/>
			</g>
		</g>
		<g>
			<g>
				<path class="st8" d="M164.326,100.996c-0.619,0.1-1.249,0.165-1.896,0.165c-4.231,0-7.935-2.221-10.036-5.553
					c-2.395,4.682-4.959,12.973,0.47,21.487c0.645,1.012,0.743,2.279,0.176,3.337c-1.613,3.01-4.171,9.734,0.212,16.675
					c2.391,3.785,6.081,6.216,10.265,7.747c0.217-0.062,0.435-0.12,0.65-0.188c1.084-0.34,2.491-0.896,3.557-1.421
					c8.432-4.194,6.808-3.309,7.668-3.839c2.32-1.429,3.768-3.955,3.768-6.714v-8.62
					C170.829,119.531,164.994,110.941,164.326,100.996z"/>
			</g>
		</g>
		<g>
			<g>
				<path class="st1" d="M222.93,77.426c-0.621,0-1.229,0.052-1.824,0.145V99.09c0,0.641-0.029,1.275-0.072,1.906
					c0.619,0.1,1.249,0.165,1.896,0.165c6.554,0,11.868-5.313,11.868-11.868C234.798,82.739,229.484,77.426,222.93,77.426z"/>
			</g>
		</g>
		<g>
			<g>
				<path class="st1" d="M219.357,73.959c-2.876-0.667-6.369-2.332-10.372-5.97c-0.792-0.719-2.013-0.66-2.709,0.152
					c-4.329,5.053-19.681,20.384-42.022,14.02v16.928c0,15.634,12.791,28.426,28.426,28.426c15.634,0,28.426-12.792,28.426-28.426
					V76.125C221.106,75.08,220.375,74.195,219.357,73.959z"/>
			</g>
		</g>
		<g>
			<g>
				<path class="st1" d="M164.255,99.089V82.161c-1.952-0.556-3.956-1.276-6.012-2.183c-1.325-0.585-2.874-0.316-3.931,0.675
					c-2.306,2.162-3.749,5.23-3.749,8.64c0,6.554,5.313,11.868,11.868,11.868c0.647,0,1.277-0.066,1.896-0.165
					C164.284,100.365,164.255,99.731,164.255,99.089z"/>
			</g>
		</g>
		<g>
			<g>
				<path class="st8" d="M192.68,35.31c-21.26,0-38.654,17.394-38.654,38.654v6.985c0.097-0.097,0.185-0.201,0.285-0.295
					c1.057-0.991,2.605-1.26,3.931-0.675c2.056,0.908,4.06,1.627,6.012,2.183c22.341,6.364,37.693-8.967,42.022-14.02
					c0.696-0.812,1.917-0.872,2.709-0.152c4.004,3.638,7.496,5.303,10.372,5.97c1.017,0.236,1.748,1.121,1.748,2.165v1.446
					c0.595-0.092,1.203-0.145,1.824-0.145c3.284,0,6.255,1.334,8.404,3.489v-6.952C231.334,52.704,213.94,35.31,192.68,35.31z"/>
			</g>
		</g>
		<g>
			<g>
				<path class="st1" d="M252.234,176.297l-20.656,6.029v32.891h17.879c2.291,0,4.124-1.901,4.041-4.19L252.234,176.297z"/>
			</g>
		</g>
		<g>
			<g>
				<path class="st1" d="M210.609,139.779c-2.699-1.331-4.408-4.079-4.408-7.088v-8.62c-4.027,2.195-8.635,3.444-13.521,3.444
					c-4.886,0-9.494-1.249-13.521-3.444v8.62c0,3.009-1.709,5.757-4.408,7.088l-5.207,2.567
					c4.255,10.038,10.779,18.903,18.927,25.938c2.411,2.081,6.006,2.081,8.416,0c8.147-7.034,14.672-15.9,18.927-25.938
					L210.609,139.779z"/>
			</g>
		</g>
		<g>
			<g>
				<path class="st3" d="M204.231,101.724c-2.962,0-5.829-0.888-8.256-2.508c-0.982-0.655-2.114-1.05-3.294-1.05
					c-1.18,0-2.312,0.395-3.294,1.05c-2.428,1.62-5.294,2.508-8.257,2.508h-8.37v17.589c5.14,5.064,12.18,8.202,19.921,8.202
					c7.74,0,14.781-3.139,19.92-8.202v-17.589H204.231z"/>
			</g>
		</g>
		<g>
			<g>
				<g>
					<path d="M254.169,160.747c-0.001-0.016-0.001-0.032-0.002-0.048c-0.346-6.219-4.638-11.419-10.677-12.939l-20.326-5.131
						c-1.525-0.384-3.013-0.931-4.423-1.626l-7.027-3.465c-1.859-0.917-3.014-2.773-3.014-4.846v-8.621
						c0-0.882-0.465-1.699-1.224-2.149c-0.759-0.451-1.699-0.468-2.473-0.046c-3.769,2.054-8.03,3.14-12.324,3.14
						s-8.556-1.085-12.324-3.14c-0.774-0.421-1.714-0.404-2.473,0.046c-0.759,0.45-1.224,1.267-1.224,2.149v8.621
						c0,2.072-1.155,3.929-3.013,4.846l-7.028,3.465c-1.41,0.695-2.897,1.242-4.416,1.624c-0.1,0.025-14.594,3.684-14.683,3.707
						l-5.648,1.426c-6.041,1.521-10.332,6.721-10.681,12.988l-0.347,9.528c-0.045,1.245,0.833,2.333,2.058,2.552
						c13.187,2.359,22.757,13.805,22.757,27.217c0,4.89-1.299,9.701-3.758,13.913c-0.451,0.773-0.455,1.729-0.009,2.505
						s1.273,1.255,2.168,1.255h95.396c1.793,0,3.466-0.711,4.71-2.001s1.894-2.988,1.829-4.78L254.169,160.747z M250.568,212.245
						c-0.293,0.305-0.688,0.472-1.111,0.472h-91.358c1.683-3.995,2.561-8.308,2.561-12.673c0-15.104-10.28-28.097-24.742-31.684
						l0.268-7.383c0.224-4.023,3-7.386,6.908-8.37l5.653-1.427c0.145-0.037,14.467-3.652,14.67-3.703
						c1.867-0.47,3.688-1.14,5.413-1.99l7.028-3.465c3.579-1.765,5.802-5.34,5.802-9.33v-4.72c7.014,2.688,15.027,2.688,22.041,0
						v4.72c0,3.99,2.223,7.565,5.802,9.33l7.028,3.465c1.725,0.851,3.546,1.52,5.412,1.99l20.325,5.13
						c3.9,0.981,6.672,4.334,6.905,8.347l1.825,50.164C251.014,211.541,250.861,211.941,250.568,212.245z"/>
				</g>
			</g>
		</g>
		<g>
			<g>
				<path d="M231.578,170.755c-1.381,0-2.5,1.119-2.5,2.5v40.92c0,1.381,1.119,2.5,2.5,2.5s2.5-1.119,2.5-2.5v-40.92
					C234.078,171.875,232.958,170.755,231.578,170.755z"/>
			</g>
		</g>
		<g>
			<g>
				<g>
					<path d="M234.604,118.439c6.204-9.729,3.031-19.194,0.588-23.97c-0.409-0.8-1.216-1.318-2.113-1.359
						c-0.888-0.031-1.748,0.404-2.227,1.164c-1.732,2.747-4.693,4.387-7.921,4.387c-0.448,0-0.939-0.043-1.5-0.134
						c-0.697-0.111-1.403,0.075-1.953,0.513c-0.55,0.438-0.89,1.087-0.938,1.788c-0.596,8.885-5.656,16.753-13.535,21.047
						c-0.804,0.438-1.304,1.28-1.304,2.195v8.621c0,3.625,1.853,6.931,4.957,8.842l0.137,0.084c0.466,0.289,0.55,0.33,1.583,0.833
						c0.902,0.44,2.619,1.277,6.154,3.036c1.146,0.564,2.683,1.179,3.91,1.563c0.188,0.06,0.378,0.113,0.568,0.167l0.15,0.042
						c0.224,0.063,0.453,0.095,0.683,0.095c0.292,0,0.582-0.051,0.859-0.152c5.167-1.89,9.042-4.837,11.52-8.76
						c5.169-8.185,1.933-16.147,0.302-19.189C234.398,119.018,234.428,118.714,234.604,118.439z M230.388,115.751
						c-1.144,1.793-1.248,4.039-0.272,5.862c1.512,2.821,3.507,8.412-0.122,14.158c-1.757,2.781-4.531,4.947-8.254,6.444
						c-0.96-0.314-2.138-0.79-2.99-1.209c-3.547-1.765-5.273-2.606-6.181-3.049c-0.889-0.434-0.889-0.434-1.139-0.588l-0.149-0.093
						c-1.615-0.994-2.579-2.708-2.579-4.585v-7.176c7.924-4.816,13.213-12.78,14.56-21.858c3.341-0.075,6.478-1.293,8.952-3.4
						C233.646,104.629,233.964,110.143,230.388,115.751z"/>
				</g>
			</g>
		</g>
		<g>
			<g>
				<g>
					<path d="M180.356,121.875c-7.879-4.294-12.939-12.162-13.535-21.047c-0.047-0.702-0.388-1.351-0.938-1.789
						c-0.551-0.437-1.261-0.624-1.954-0.512c-0.559,0.09-1.049,0.134-1.498,0.134c-3.228,0-6.189-1.64-7.921-4.387
						c-0.479-0.76-1.325-1.194-2.227-1.164c-0.897,0.041-1.704,0.559-2.113,1.359c-2.443,4.776-5.616,14.242,0.588,23.97
						c0.175,0.275,0.206,0.579,0.081,0.812c-1.631,3.043-4.868,11.006,0.302,19.19c2.477,3.922,6.353,6.87,11.52,8.76
						c0.277,0.102,0.567,0.152,0.859,0.152c0.229,0,0.459-0.032,0.683-0.095l0.15-0.042c0.19-0.053,0.38-0.107,0.563-0.165
						c1.235-0.386,2.772-1,3.923-1.568c3.822-1.901,5.573-2.756,6.426-3.173c0.853-0.416,0.942-0.459,1.26-0.663l0.179-0.113
						c3.104-1.912,4.957-5.217,4.957-8.843v-8.621C181.66,123.156,181.16,122.313,180.356,121.875z M176.66,132.691
						c0,1.876-0.964,3.591-2.581,4.586l-0.298,0.188c-0.102,0.057-0.261,0.131-0.712,0.352c-0.857,0.418-2.617,1.278-6.451,3.185
						c-0.857,0.422-2.033,0.897-2.998,1.213c-3.723-1.498-6.497-3.663-8.254-6.444c-3.629-5.746-1.634-11.337-0.122-14.159
						c0,0,0,0,0,0c0.976-1.822,0.872-4.067-0.272-5.861c-3.576-5.608-3.259-11.122-1.825-15.494c2.475,2.107,5.611,3.325,8.952,3.4
						c1.347,9.078,6.636,17.042,14.56,21.858V132.691z"/>
				</g>
			</g>
		</g>
		<g>
			<g>
				<g>
					<path d="M222.93,74.925c-0.718,0-1.46,0.059-2.207,0.175c-1.218,0.189-2.117,1.237-2.117,2.47v21.519
						c0,0.584-0.027,1.163-0.066,1.739c-0.087,1.289,0.823,2.432,2.099,2.637c0.825,0.132,1.575,0.196,2.291,0.196
						c7.923,0,14.368-6.445,14.368-14.368C237.298,81.371,230.853,74.925,222.93,74.925z M223.606,98.637V79.949
						c4.851,0.348,8.692,4.406,8.692,9.344C232.298,94.231,228.457,98.29,223.606,98.637z"/>
				</g>
			</g>
		</g>
		<g>
			<g>
				<g>
					<path d="M219.922,71.523c-2.965-0.687-6.08-2.499-9.256-5.384c-0.88-0.8-2.055-1.21-3.243-1.143
						c-1.188,0.074-2.27,0.613-3.045,1.518v0c-3.954,4.615-18.482,19.211-39.438,13.242c-0.754-0.215-1.564-0.063-2.191,0.409
						c-0.626,0.472-0.994,1.211-0.994,1.995v16.928c0,17.053,13.873,30.926,30.926,30.926c17.052,0,30.925-13.873,30.925-30.926
						V76.125C223.605,73.918,222.091,72.026,219.922,71.523z M218.605,99.089c0,14.295-11.63,25.926-25.925,25.926
						s-25.926-11.63-25.926-25.926V85.347c21.415,4.407,36.255-9.723,41.004-15.1c3.606,3.178,7.252,5.229,10.847,6.104V99.089z"/>
				</g>
			</g>
		</g>
		<g>
			<g>
				<g>
					<path d="M166.754,99.089V82.161c0-1.117-0.741-2.098-1.815-2.404c-1.887-0.538-3.801-1.233-5.687-2.066
						c-2.244-0.99-4.856-0.544-6.651,1.138c-2.885,2.705-4.539,6.519-4.539,10.464c0,7.922,6.445,14.368,14.368,14.368
						c0.718,0,1.468-0.064,2.293-0.197c1.275-0.205,2.184-1.348,2.097-2.636C166.782,100.252,166.754,99.674,166.754,99.089z
						 M161.754,98.637c-4.851-0.348-8.692-4.406-8.692-9.344c0-2.606,1.051-5.028,2.958-6.816c0.214-0.201,0.489-0.306,0.768-0.306
						c0.15,0,0.302,0.031,0.444,0.094c1.496,0.661,3.011,1.244,4.521,1.742V98.637z"/>
				</g>
			</g>
		</g>
		<g>
			<g>
				<g>
					<g>
						<path d="M192.68,32.81c-22.692,0-41.154,18.461-41.154,41.154v6.985c0,1.012,0.61,1.925,1.546,2.311
							c0.935,0.386,2.011,0.17,2.726-0.548l0.229-0.24c0.329-0.303,0.8-0.386,1.206-0.206c2.096,0.926,4.228,1.7,6.336,2.3
							c3.979,1.133,7.746,1.62,11.287,1.619c17.04,0,28.778-11.27,32.902-15.938c3.605,3.178,7.251,5.229,10.847,6.104v1.22
							c0,0.73,0.319,1.423,0.873,1.898c0.555,0.475,1.291,0.683,2.01,0.572c0.493-0.077,0.978-0.115,1.441-0.115
							c2.507,0,4.863,0.978,6.633,2.754c0.714,0.717,1.79,0.931,2.726,0.545c0.935-0.387,1.545-1.299,1.545-2.311v-6.952
							C233.833,51.271,215.372,32.81,192.68,32.81z M228.833,76.187c-1.676-0.756-3.496-1.184-5.379-1.251
							c-0.434-1.671-1.766-3.002-3.532-3.412c-2.966-0.687-6.08-2.499-9.256-5.384c-0.88-0.8-2.055-1.21-3.243-1.143
							c-1.188,0.074-2.27,0.613-3.045,1.519c-3.954,4.615-18.482,19.211-39.438,13.242c-1.887-0.538-3.801-1.233-5.687-2.066
							c-0.793-0.35-1.633-0.521-2.465-0.521c-0.087,0-0.174,0.002-0.261,0.005v-3.212c0-19.935,16.219-36.154,36.154-36.154
							s36.153,16.219,36.153,36.154V76.187z"/>
					</g>
				</g>
			</g>
		</g>
		<g>
			<g>
				<circle cx="205.047" cy="92.579" r="3.683"/>
			</g>
		</g>
		<g>
			<g>
				<path d="M180.313,88.896c-2.034,0-3.683,1.649-3.683,3.683s1.649,3.683,3.683,3.683c2.034,0,3.683-1.649,3.683-3.683
					S182.347,88.896,180.313,88.896z"/>
			</g>
		</g>
		<g>
			<g>
				<path d="M174.863,100.485l-8.289-14.531c-0.684-1.2-2.21-1.617-3.41-0.933c-1.199,0.684-1.617,2.211-0.933,3.41l8.289,14.531
					c0.461,0.809,1.305,1.262,2.174,1.262c0.42,0,0.845-0.106,1.236-0.329C175.129,103.211,175.547,101.685,174.863,100.485z"/>
			</g>
		</g>
		<g>
			<g>
				<path d="M222.197,85.021c-1.201-0.685-2.727-0.267-3.41,0.933l-8.289,14.531c-0.684,1.199-0.267,2.726,0.933,3.41
					c0.391,0.223,0.816,0.329,1.236,0.329c0.869,0,1.713-0.453,2.174-1.262l8.289-14.531
					C223.813,87.232,223.396,85.706,222.197,85.021z"/>
			</g>
		</g>
		<g>
			<g>
				<g>
					<path d="M253.697,174.271c-0.626-0.452-1.423-0.588-2.164-0.373l-20.656,6.029c-1.066,0.312-1.799,1.289-1.799,2.4v32.891
						c0,1.381,1.119,2.5,2.5,2.5h17.879c1.793,0,3.466-0.711,4.71-2.001c1.245-1.29,1.893-2.988,1.829-4.78l-1.264-34.729
						C254.704,175.436,254.322,174.722,253.697,174.271z M250.999,211.118c0.016,0.422-0.138,0.823-0.431,1.127
						c-0.293,0.305-0.688,0.472-1.111,0.472h-15.379v-28.517l15.774-4.604L250.999,211.118L250.999,211.118z"/>
				</g>
			</g>
		</g>
		<g>
			<g>
				<g>
					<path d="M216.92,140.104l-5.206-2.567c-1.859-0.917-3.014-2.773-3.014-4.846v-8.621c0-0.882-0.465-1.699-1.224-2.149
						c-0.759-0.451-1.699-0.468-2.473-0.046c-3.769,2.054-8.03,3.14-12.324,3.14s-8.556-1.085-12.324-3.14
						c-0.774-0.421-1.714-0.404-2.473,0.046c-0.759,0.45-1.224,1.267-1.224,2.149v8.621c0,2.072-1.155,3.929-3.013,4.846
						l-5.207,2.567c-1.189,0.586-1.713,1.998-1.196,3.218c4.346,10.253,11.122,19.539,19.595,26.854
						c1.666,1.438,3.753,2.157,5.842,2.157c2.088,0,4.177-0.719,5.842-2.157c8.473-7.315,15.249-16.601,19.595-26.854
						C218.634,142.102,218.109,140.69,216.92,140.104z M195.254,166.392c-1.468,1.267-3.681,1.267-5.148,0
						c-7.298-6.301-13.244-14.168-17.3-22.866l3.052-1.505c3.579-1.765,5.802-5.34,5.802-9.33v-4.72
						c7.014,2.688,15.027,2.688,22.041,0v4.72c0,3.99,2.223,7.565,5.802,9.33l3.051,1.505
						C208.499,152.224,202.552,160.091,195.254,166.392z"/>
				</g>
			</g>
		</g>
		<g>
			<g>
				<g>
					<path d="M212.601,99.224h-8.37c-2.447,0-4.822-0.722-6.869-2.087c-2.883-1.924-6.481-1.924-9.363,0
						c-2.047,1.365-4.422,2.087-6.869,2.087h-8.37c-1.381,0-2.5,1.119-2.5,2.5v17.589c0,0.669,0.269,1.311,0.746,1.781
						c5.839,5.753,13.537,8.921,21.675,8.921c8.138,0,15.835-3.168,21.675-8.921c0.477-0.47,0.746-1.111,0.746-1.781v-17.589
						C215.101,100.343,213.981,99.224,212.601,99.224z M210.101,118.239c-4.798,4.378-10.944,6.776-17.42,6.776
						c-6.477,0-12.623-2.398-17.42-6.776v-14.015h5.87c3.438,0,6.773-1.012,9.644-2.928c0.43-0.287,1.11-0.629,1.906-0.629
						s1.476,0.342,1.906,0.629c0,0,0,0,0,0c2.871,1.916,6.206,2.928,9.644,2.928h5.87V118.239z"/>
				</g>
			</g>
		</g>
		<g>
			<g>
				<path class="st9" d="M105.413,243.1c-1.878,0-3.4,1.522-3.4,3.4s1.522,3.4,3.4,3.4c1.878,0,3.4-1.522,3.4-3.4
					S107.291,243.1,105.413,243.1z"/>
			</g>
		</g>
		<g>
			<g>
				<path class="st6" d="M87.013,233.1c-4.5-0.8-8-4.3-8.9-8.7c0-0.2-0.4-0.2-0.4,0c-0.9,4.4-4.4,7.9-8.9,8.7c-0.2,0-0.2,0.3,0,0.4
					c4.5,0.8,8,4.3,8.9,8.7c0,0.2,0.4,0.2,0.4,0c0.9-4.4,4.4-7.9,8.9-8.7C87.213,233.4,87.213,233.1,87.013,233.1z"/>
			</g>
		</g>
		<g>
			<g>
				<circle class="st10" cx="128" cy="200.044" r="30.159"/>
			</g>
		</g>
		<g>
			<g>
				<path class="st11" d="M142.891,190.549c-2.172-2.173-5.698-2.173-7.87,0l-9.629,9.629l-4.411-4.411
					c-2.172-2.173-5.698-2.173-7.87,0c-2.174,2.174-2.174,5.697-0.001,7.872l8.347,8.347c1.045,1.044,2.46,1.63,3.936,1.63
					s2.892-0.586,3.935-1.63l13.565-13.565C145.065,196.246,145.065,192.722,142.891,190.549z"/>
			</g>
		</g>
		<g>
			<g>
				<g>
					<path d="M128,167.385c-18.008,0-32.659,14.651-32.659,32.66c0,18.008,14.651,32.659,32.659,32.659s32.659-14.651,32.659-32.659
						C160.659,182.036,146.008,167.385,128,167.385z M128,227.704c-15.251,0-27.659-12.408-27.659-27.659s12.408-27.66,27.659-27.66
						s27.659,12.408,27.659,27.66S143.251,227.704,128,227.704z"/>
				</g>
			</g>
		</g>
		<g>
			<g>
				<g>
					<g>
						<path d="M144.659,188.781c-1.523-1.523-3.548-2.362-5.704-2.362s-4.181,0.839-5.703,2.362l-7.862,7.861l-2.643-2.643
							c-1.523-1.524-3.548-2.363-5.704-2.363s-4.181,0.839-5.703,2.362c-3.145,3.144-3.146,8.261-0.001,11.407l8.348,8.349
							c1.524,1.522,3.55,2.361,5.703,2.361c2.154,0,4.18-0.839,5.703-2.362l13.565-13.564c1.523-1.523,2.363-3.549,2.363-5.704
							S146.183,190.304,144.659,188.781z M141.124,196.652l-13.565,13.565c-1.158,1.157-3.177,1.156-4.336,0l-8.346-8.347
							c-1.195-1.196-1.195-3.142,0-4.337c0.579-0.579,1.348-0.897,2.167-0.897c0.819,0,1.588,0.318,2.167,0.898l4.412,4.411
							c0.977,0.976,2.56,0.976,3.535,0l9.63-9.629c1.156-1.157,3.178-1.157,4.335,0c0.579,0.58,0.898,1.35,0.898,2.168
							S141.703,196.073,141.124,196.652z"/>
					</g>
				</g>
			</g>
		</g>
	</g>
</g>
<g id="Layer_2">
</g>
<g id="Layer_3">
</g>
<g id="Layer_4">
</g>
<g id="Layer_5">
</g>
<g id="Layer_6">
</g>
<g id="Layer_7">
</g>
<g id="Layer_8">
</g>
<g id="Layer_9">
</g>
<g id="Layer_10">
</g>
<g id="Layer_11">
</g>
<g id="Layer_12">
</g>
<g id="Layer_13">
</g>
<g id="Layer_14">
</g>
<g id="Layer_15">
</g>
<g id="Layer_16">
</g>
<g id="Layer_17">
</g>
<g id="Layer_18">
</g>
<g id="Layer_19">
</g>
<g id="Layer_20">
</g>
<g id="Layer_21">
</g>
<g id="Layer_22">
</g>
<g id="Layer_23">
</g>
<g id="Layer_24">
</g>
<g id="Layer_25">
</g>
<g id="Layer_26">
</g>
<g id="Layer_27">
</g>
<g id="Layer_28">
</g>
<g id="Layer_29">
</g>
<g id="Layer_30">
</g>
<g id="Layer_31">
</g>
<g id="Layer_32">
</g>
<g id="Layer_33">
</g>
<g id="Layer_34">
</g>
<g id="Layer_35">
</g>
<g id="Layer_36">
</g>
<g id="Layer_37">
</g>
<g id="Layer_38">
</g>
<g id="Layer_39">
</g>
<g id="Layer_40">
</g>
<g id="Layer_41">
</g>
<g id="Layer_42">
</g>
<g id="Layer_43">
</g>
<g id="Layer_44">
</g>
<g id="Layer_45">
</g>
<g id="Layer_46">
</g>
<g id="Layer_47">
</g>
<g id="Layer_48">
</g>
<g id="Layer_49">
</g>
<g id="Layer_50">
</g>
<g id="Layer_51">
</g>
<g id="Layer_52">
</g>
<g id="Layer_53">
</g>
<g id="Layer_54">
</g>
<g id="Layer_55">
</g>
<g id="Layer_56">
</g>
<g id="Layer_57">
</g>
<g id="Layer_58">
</g>
<g id="Layer_59">
</g>
<g id="Layer_60">
</g>
<g id="Layer_61">
</g>
<g id="Layer_62">
</g>
<g id="Layer_63">
</g>
<g id="Layer_64">
</g>
<g id="Layer_65">
</g>
<g id="Layer_66">
</g>
<g id="Layer_67">
</g>
<g id="Layer_68">
</g>
<g id="Layer_69">
</g>
<g id="Layer_70">
</g>
<g id="Layer_71">
</g>
<g id="Layer_72">
</g>
<g id="Layer_73">
</g>
<g id="Layer_74">
</g>
<g id="Layer_75">
</g>
<g id="Layer_76">
</g>
<g id="Layer_77">
</g>
<g id="Layer_78">
</g>
<g id="Layer_79">
</g>
<g id="Layer_80">
</g>
</svg>
