<?xml version="1.0" encoding="utf-8"?>
<!-- Generator: Adobe Illustrator 24.0.0, SVG Export Plug-In . SVG Version: 6.00 Build 0)  -->
<svg version="1.1" xmlns="http://www.w3.org/2000/svg" xmlns:xlink="http://www.w3.org/1999/xlink" x="0px" y="0px"
	 viewBox="0 0 256 256" style="enable-background:new 0 0 256 256;" xml:space="preserve">
<style type="text/css">
	.st0{fill:#6CADEF;}
	.st1{fill:#F9D0B4;}
	.st2{fill:#5B5D60;}
	.st3{fill:#9BE5F9;}
	.st4{fill:#FC657E;}
	.st5{fill:#70D6F9;}
	.st6{fill:#F5C84C;}
	.st7{fill:#F98FA6;}
	.st8{fill:#FED690;}
	.st9{fill:#87D147;}
	.st10{fill:#B2E26D;}
	.st11{fill:#EDF4FC;}
	.st12{fill:#FCDD86;}
	.st13{fill:#754E34;}
	.st14{fill:#B598F9;}
	.st15{fill:#5290DB;}
	.st16{fill:#C7D7E5;}
	.st17{fill:#C18E6B;}
	.st18{fill:#DAE6F1;}
	.st19{fill:#3CAADC;}
	.st20{fill:#818182;}
	.st21{fill:#CBEFF7;}
	.st22{fill:#FCA265;}
	.st23{fill:#A57453;}
	.st24{fill:#8652D8;}
	.st25{fill:#966AEA;}
	.st26{fill:#FEB872;}
	.st27{fill:#EDB311;}
	.st28{fill:#EF4460;}
</style>
<g id="Layer_1">
</g>
<g id="Layer_2">
</g>
<g id="Layer_3">
</g>
<g id="Layer_4">
</g>
<g id="Layer_5">
</g>
<g id="Layer_6">
</g>
<g id="Layer_7">
</g>
<g id="Layer_8">
</g>
<g id="Layer_9">
</g>
<g id="Layer_10">
</g>
<g id="Layer_11">
</g>
<g id="Layer_12">
</g>
<g id="Layer_13">
</g>
<g id="Layer_14">
</g>
<g id="Layer_15">
</g>
<g id="Layer_16">
</g>
<g id="Layer_17">
</g>
<g id="Layer_18">
</g>
<g id="Layer_19">
</g>
<g id="Layer_20">
</g>
<g id="Layer_21">
</g>
<g id="Layer_22">
</g>
<g id="Layer_23">
</g>
<g id="Layer_24">
</g>
<g id="Layer_25">
</g>
<g id="Layer_26">
</g>
<g id="Layer_27">
</g>
<g id="Layer_28">
</g>
<g id="Layer_29">
</g>
<g id="Layer_30">
</g>
<g id="Layer_31">
</g>
<g id="Layer_32">
</g>
<g id="Layer_33">
	<g>
		<g>
			<g>
				<path class="st1" d="M135.592,21.824c-1.181-1.239-3.102-1.353-4.449-0.296c-2.129,1.671-5.814,3.737-11.018,3.737
					c-5.217,0-8.921-2.076-11.059-3.749c-1.346-1.053-3.263-0.935-4.442,0.302l-0.006,0.007c-1.657,1.737-2.581,4.046-2.581,6.447
					v15.164c0,9.937,8.131,18.068,18.068,18.068c0.154,0,0.303-0.019,0.456-0.023v-1.166c0-2.203,1.786-3.988,3.989-3.988h8.173
					c3.355-3.285,5.45-7.853,5.45-12.89V28.271C138.173,25.87,137.248,23.561,135.592,21.824z"/>
			</g>
		</g>
		<g>
			<g>
				<path class="st1" d="M139.332,29.664c-0.395,0-0.781,0.033-1.159,0.092v13.678c0,0.407-0.019,0.811-0.046,1.212
					c0.393,0.063,0.794,0.105,1.205,0.105c4.166,0,7.543-3.377,7.543-7.543S143.498,29.664,139.332,29.664z"/>
			</g>
		</g>
		<g>
			<g>
				<path class="st1" d="M102.037,43.434V29.756c-0.378-0.059-0.765-0.092-1.159-0.092c-4.166,0-7.544,3.377-7.544,7.544
					s3.377,7.543,7.544,7.543c0.411,0,0.812-0.042,1.205-0.105v0C102.055,44.245,102.037,43.842,102.037,43.434z"/>
			</g>
		</g>
		<g>
			<g>
				<path class="st2" d="M138.105,14.252c-0.605,0-1.13-0.467-1.138-1.072c-0.139-10.068-11.636-11.959-23.085-9.982
					C104.175,4.874,97.08,13.292,97.08,23.143v7.554c1.116-0.652,2.411-1.033,3.797-1.033c0.395,0,0.781,0.033,1.159,0.092v-1.485
					c0-2.401,0.924-4.709,2.581-6.447l0.006-0.007c1.179-1.237,3.096-1.355,4.442-0.302c2.138,1.673,5.842,3.749,11.059,3.749
					c5.204,0,8.888-2.066,11.018-3.737c1.347-1.057,3.268-0.943,4.449,0.296c1.657,1.737,2.581,4.046,2.581,6.447v1.485
					c0.378-0.059,0.765-0.092,1.159-0.092c1.403,0,2.712,0.39,3.837,1.057v-6.202C143.169,15.504,139.914,14.252,138.105,14.252z"/>
			</g>
		</g>
		<g>
			<g>
				<path class="st17" d="M183.563,111.828H72.437c-1.278,0-2.314,1.036-2.314,2.314v5.687c0,1.278,1.036,2.314,2.314,2.314h111.126
					c1.278,0,2.314-1.036,2.314-2.314v-5.687C185.877,112.864,184.841,111.828,183.563,111.828z"/>
			</g>
		</g>
		<g>
			<g>
				<path class="st0" d="M116.861,104.351c0.003-1.026,0.851-1.855,1.877-1.855h5.811c-2.203,0-3.989-1.786-3.989-3.988V61.488
					c-0.152,0.004-0.303,0.014-0.456,0.014h0c-2.998,0-5.829-0.744-8.324-2.05v2.94c0,2.373-1.346,4.545-3.475,5.595
					c-2.883,1.422-5.398,2.557-9.216,3.518l-9.782,2.462c-3.026,0.762-5.205,3.402-5.379,6.518l-1.456,25.113
					c-0.196,3.38,2.492,6.229,5.878,6.229h35.965C120.192,111.828,116.85,108.478,116.861,104.351z"/>
			</g>
		</g>
		<g>
			<g>
				<path class="st16" d="M176.307,102.495h-57.569c-1.037,0-1.877,0.84-1.877,1.877c0,4.118,3.338,7.456,7.456,7.456h46.411
					c4.118,0,7.456-3.338,7.456-7.456C178.184,103.336,177.343,102.495,176.307,102.495z"/>
			</g>
		</g>
		<g>
			<g>
				<path class="st11" d="M170.495,56.324H124.55c-2.203,0-3.989,1.786-3.989,3.989v38.194c0,2.203,1.786,3.989,3.989,3.989h45.946
					c2.203,0,3.989-1.786,3.989-3.989V60.313C174.484,58.11,172.698,56.324,170.495,56.324z"/>
			</g>
		</g>
		<g>
			<g>
				<path class="st23" d="M73.97,122.143v18.381c0,1.592,1.291,2.883,2.883,2.883h102.295c1.592,0,2.883-1.291,2.883-2.883v-18.381
					H73.97z"/>
			</g>
		</g>
		<g>
			<g>
				<path class="st3" d="M91.447,160.757c-1.953-1.951-5.118-1.952-7.071,0l-6.828,6.828l-3.373-3.374
					c-1.953-1.952-5.118-1.952-7.071,0c-1.953,1.953-1.953,5.119,0,7.071l6.909,6.909c1.953,1.952,5.118,1.953,7.071,0
					l10.363-10.363C93.4,165.876,93.4,162.71,91.447,160.757z"/>
			</g>
		</g>
		<g>
			<g>
				<path class="st3" d="M91.447,227.602c-1.953-1.951-5.118-1.952-7.071,0l-6.828,6.828l-3.373-3.374
					c-1.953-1.952-5.118-1.952-7.071,0c-1.953,1.953-1.953,5.119,0,7.071l6.909,6.909c1.953,1.952,5.118,1.953,7.071,0
					l10.363-10.363C93.4,232.72,93.4,229.554,91.447,227.602z"/>
			</g>
		</g>
		<g>
			<g>
				<path class="st3" d="M91.447,194.179c-1.953-1.951-5.118-1.952-7.071,0l-6.828,6.828l-3.373-3.374
					c-1.953-1.952-5.118-1.952-7.071,0c-1.953,1.953-1.953,5.119,0,7.071l6.909,6.909c1.953,1.952,5.118,1.953,7.071,0
					l10.363-10.363C93.4,199.298,93.4,196.132,91.447,194.179z"/>
			</g>
		</g>
		<g>
			<g>
				<path class="st1" d="M120.105,61.502c-2.998,0-5.829-0.744-8.324-2.05v2.94c0,2.377-1.35,4.547-3.481,5.598
					c-0.334,0.165-0.663,0.325-0.989,0.482c1.893,5.239,6.924,9.01,12.794,9.01c0.154,0,0.304-0.013,0.456-0.018V61.488
					C120.409,61.492,120.258,61.502,120.105,61.502z"/>
			</g>
		</g>
		<g>
			<g>
				<path class="st1" d="M118.738,102.495h5.787v-0.002c-2.191-0.013-3.964-1.792-3.964-3.986v-0.432H98.984v-7.859H83.365
					l-0.892,15.383c-0.196,3.381,2.492,6.229,5.878,6.229h35.965c-4.125,0-7.467-3.349-7.456-7.477
					C116.864,103.325,117.712,102.495,118.738,102.495z"/>
			</g>
		</g>
		<g>
			<g>
				<g>
					<path d="M137.401,20.099c-2.071-2.173-5.426-2.404-7.802-0.538c-1.863,1.462-5.019,3.204-9.475,3.204
						c-4.468,0-7.642-1.75-9.518-3.218c-2.375-1.858-5.724-1.624-7.798,0.552c-2.11,2.212-3.272,5.114-3.272,8.172v15.164
						c0,11.341,9.227,20.568,20.568,20.568c0.146,0,0.289-0.008,0.521-0.024c1.355-0.035,2.435-1.144,2.435-2.499v-1.166
						c0-0.821,0.668-1.488,1.489-1.488h8.173c0.654,0,1.281-0.256,1.749-0.713c3.999-3.916,6.201-9.127,6.201-14.677V28.271
						C140.673,25.214,139.511,22.312,137.401,20.099z M135.673,43.434c0,3.866-1.418,7.519-4.014,10.39h-7.109
						c-3.089,0-5.68,2.169-6.331,5.064c-7.699-0.934-13.682-7.508-13.682-15.454V28.271c0-1.767,0.671-3.443,1.896-4.728
						c0.152-0.16,0.358-0.241,0.569-0.241c0.182,0,0.366,0.061,0.523,0.183c2.495,1.953,6.707,4.281,12.599,4.281
						c5.884,0,10.079-2.322,12.562-4.271c0.339-0.266,0.811-0.244,1.096,0.055c1.219,1.279,1.891,2.956,1.891,4.722V43.434z"/>
				</g>
			</g>
		</g>
		<g>
			<g>
				<g>
					<path d="M137.79,27.285c-1.219,0.189-2.117,1.238-2.117,2.471v13.678c0,0.351-0.017,0.697-0.04,1.042
						c-0.088,1.29,0.822,2.434,2.099,2.639c0.574,0.092,1.098,0.136,1.601,0.136c5.538,0,10.044-4.505,10.044-10.043
						C149.376,31.165,144.004,26.321,137.79,27.285z M140.673,42.07v-9.726c2.133,0.589,3.703,2.546,3.703,4.863
						S142.806,41.481,140.673,42.07z"/>
				</g>
			</g>
		</g>
		<g>
			<g>
				<g>
					<path d="M104.537,43.434V29.756c0-1.233-0.899-2.282-2.117-2.471c-6.225-0.965-11.585,3.88-11.585,9.922
						c0,5.538,4.505,10.043,10.043,10.043c0.506,0,1.03-0.045,1.603-0.137c1.275-0.206,2.184-1.35,2.096-2.638
						C104.553,44.131,104.537,43.784,104.537,43.434z M99.537,42.07c-2.132-0.588-3.703-2.545-3.703-4.862s1.57-4.274,3.703-4.862
						V42.07z"/>
				</g>
			</g>
		</g>
		<g>
			<g>
				<g>
					<path d="M139.396,11.885c-0.326-3.244-1.745-5.984-4.147-7.979c-6.017-4.996-16.237-4.131-21.792-3.171
						C102.519,2.624,94.58,12.047,94.58,23.143v7.554c0,0.896,0.479,1.723,1.256,2.168c0.776,0.445,1.733,0.442,2.505-0.01
						c0.991-0.579,2.096-0.817,3.313-0.628c0.718,0.109,1.455-0.098,2.01-0.572c0.554-0.475,0.873-1.168,0.873-1.898v-1.485
						c0-1.767,0.671-3.443,1.897-4.728c0.284-0.298,0.754-0.322,1.092-0.058c2.495,1.953,6.707,4.281,12.599,4.281
						c5.884,0,10.079-2.322,12.562-4.271c0.339-0.266,0.811-0.244,1.096,0.055c1.219,1.279,1.891,2.956,1.891,4.722v1.485
						c0,0.73,0.319,1.423,0.873,1.898c0.554,0.474,1.29,0.684,2.01,0.572c1.229-0.192,2.341,0.054,3.338,0.645
						c0.394,0.233,0.834,0.35,1.275,0.35c0.427,0,0.854-0.109,1.237-0.328c0.78-0.445,1.263-1.274,1.263-2.172v-6.202
						C145.669,14.842,141.938,12.415,139.396,11.885z M140.669,27.254c-0.013-0.001-0.026-0.003-0.04-0.005
						c-0.229-2.677-1.354-5.186-3.228-7.15c-2.071-2.173-5.426-2.404-7.802-0.538c-1.863,1.462-5.019,3.204-9.475,3.204
						c-4.468,0-7.642-1.75-9.518-3.218c-2.375-1.859-5.725-1.624-7.798,0.552c-1.874,1.964-3,4.473-3.229,7.15v-4.106
						c0-8.656,6.194-16.008,14.728-17.481c7.895-1.362,14.529-0.582,17.747,2.091c1.592,1.322,2.381,3.108,2.413,5.46
						c0.025,1.952,1.657,3.54,3.638,3.54c1.558,0,2.563,3.049,2.563,7.767V27.254z"/>
				</g>
			</g>
		</g>
		<g>
			<g>
				<g>
					<path d="M183.563,109.328H72.437c-2.655,0-4.814,2.16-4.814,4.814v5.687c0,2.655,2.16,4.814,4.814,4.814h111.126
						c2.654,0,4.813-2.16,4.813-4.814v-5.687C188.377,111.488,186.218,109.328,183.563,109.328z M183.377,119.643H72.623v-5.315
						h110.754V119.643z"/>
				</g>
			</g>
		</g>
		<g>
			<g>
				<g>
					<path d="M124.317,109.328c-1.326,0-2.573-0.517-3.509-1.457c-0.785-0.787-1.272-1.791-1.408-2.876h5.15
						c1.381,0,2.5-1.119,2.5-2.5s-1.119-2.5-2.5-2.5c-0.821,0-1.489-0.668-1.489-1.489V61.488c0-0.674-0.272-1.32-0.755-1.79
						c-0.483-0.471-1.138-0.729-1.809-0.709l-0.393,0.013c-2.516,0-4.926-0.594-7.165-1.765c-0.775-0.406-1.706-0.376-2.454,0.076
						c-0.749,0.453-1.206,1.264-1.206,2.139v2.94c0,1.414-0.816,2.729-2.081,3.353c-2.586,1.275-5.027,2.407-8.72,3.336
						l-9.782,2.462c-4.109,1.035-7.029,4.572-7.264,8.798l-1.457,25.113c-0.133,2.295,0.696,4.571,2.274,6.243
						c1.578,1.672,3.801,2.631,6.1,2.631h35.965c1.381,0,2.5-1.119,2.5-2.5S125.698,109.328,124.317,109.328z M115.677,109.328
						H88.352c-0.942,0-1.817-0.377-2.464-1.063c-0.647-0.686-0.973-1.582-0.919-2.522l1.457-25.119
						c0.113-2.034,1.517-3.735,3.493-4.232L99.7,73.93c4.169-1.049,6.865-2.296,9.712-3.7c2.732-1.348,4.572-4.077,4.836-7.089
						c1.244,0.372,2.522,0.626,3.813,0.757v34.609c0,0.522,0.062,1.03,0.179,1.517c-2.174,0.247-3.873,2.09-3.879,4.32
						C114.356,106.121,114.814,107.829,115.677,109.328z"/>
				</g>
			</g>
		</g>
		<g>
			<g>
				<g>
					<path d="M176.307,99.996h-57.568c-2.414,0-4.377,1.963-4.377,4.377c0,5.49,4.466,9.956,9.956,9.956h46.412
						c5.489,0,9.955-4.466,9.955-9.956C180.684,101.959,178.72,99.996,176.307,99.996z M170.729,109.328h-46.412
						c-2.521,0-4.609-1.893-4.917-4.333h56.244C175.337,107.435,173.25,109.328,170.729,109.328z"/>
				</g>
			</g>
		</g>
		<g>
			<g>
				<g>
					<path d="M170.495,53.824H124.55c-3.578,0-6.489,2.911-6.489,6.488v38.194c0,3.578,2.911,6.489,6.489,6.489h45.945
						c3.578,0,6.489-2.911,6.489-6.489V60.313C176.984,56.735,174.073,53.824,170.495,53.824z M171.984,98.507
						c0,0.821-0.668,1.489-1.489,1.489H124.55c-0.821,0-1.489-0.668-1.489-1.489V60.313c0-0.821,0.668-1.488,1.489-1.488h45.945
						c0.821,0,1.489,0.667,1.489,1.488V98.507z"/>
				</g>
			</g>
		</g>
		<g>
			<g>
				<path d="M153.433,76.91h-11.82c-1.381,0-2.5,1.119-2.5,2.5s1.119,2.5,2.5,2.5h11.82c1.381,0,2.5-1.119,2.5-2.5
					S154.813,76.91,153.433,76.91z"/>
			</g>
		</g>
		<g>
			<g>
				<path d="M98.984,82.804c-1.381,0-2.5,1.119-2.5,2.5v7.859c0,1.381,1.119,2.5,2.5,2.5s2.5-1.119,2.5-2.5v-7.859
					C101.484,83.923,100.365,82.804,98.984,82.804z"/>
			</g>
		</g>
		<g>
			<g>
				<g>
					<g>
						<path d="M182.03,119.643H73.97c-1.381,0-2.5,1.119-2.5,2.5v18.38c0,2.968,2.415,5.383,5.383,5.383h102.295
							c2.968,0,5.383-2.415,5.383-5.383v-18.38C184.53,120.762,183.411,119.643,182.03,119.643z M179.53,140.523
							c0,0.211-0.172,0.383-0.383,0.383H76.853c-0.211,0-0.383-0.172-0.383-0.383v-15.88H179.53V140.523z"/>
					</g>
				</g>
			</g>
		</g>
		<g>
			<g>
				<g>
					<g>
						<path d="M93.214,158.989c-2.924-2.922-7.682-2.921-10.606,0.001l-5.06,5.06l-1.606-1.606c-2.923-2.922-7.681-2.923-10.606,0
							c-2.924,2.924-2.924,7.682,0,10.606l6.909,6.909c0,0,0,0,0,0c1.462,1.461,3.382,2.191,5.303,2.191s3.841-0.731,5.303-2.192
							l10.363-10.363C96.139,166.672,96.139,161.914,93.214,158.989z M89.679,166.061l-10.363,10.362
							c-0.975,0.974-2.561,0.975-3.537,0l-6.908-6.908c-0.975-0.975-0.975-2.561,0-3.536c0.976-0.975,2.563-0.974,3.536,0
							l3.373,3.374c0.469,0.469,1.105,0.732,1.768,0.732s1.299-0.263,1.768-0.732l6.827-6.827c0.976-0.974,2.562-0.975,3.537-0.001
							C90.654,163.5,90.654,165.086,89.679,166.061z"/>
					</g>
				</g>
			</g>
		</g>
		<g>
			<g>
				<path d="M190.36,160.535H108c-1.381,0-2.5,1.119-2.5,2.5s1.119,2.5,2.5,2.5h82.361c1.381,0,2.5-1.119,2.5-2.5
					S191.741,160.535,190.36,160.535z"/>
			</g>
		</g>
		<g>
			<g>
				<path d="M170.68,171.494H108c-1.381,0-2.5,1.119-2.5,2.5s1.119,2.5,2.5,2.5h62.68c1.381,0,2.5-1.119,2.5-2.5
					S172.061,171.494,170.68,171.494z"/>
			</g>
		</g>
		<g>
			<g>
				<g>
					<g>
						<path d="M93.214,225.833c-2.924-2.922-7.682-2.921-10.606,0.001l-5.06,5.06l-1.606-1.606c-2.923-2.922-7.681-2.923-10.606,0
							c-2.924,2.924-2.924,7.682,0,10.606l6.909,6.909c0,0,0,0.001,0,0.001c1.462,1.461,3.382,2.191,5.303,2.191
							s3.841-0.731,5.303-2.192l10.363-10.363C96.139,233.516,96.139,228.758,93.214,225.833z M89.679,232.905l-10.363,10.362
							c-0.975,0.974-2.561,0.975-3.537,0l-6.908-6.908c-0.975-0.975-0.975-2.561,0-3.536c0.976-0.975,2.563-0.974,3.536,0
							l3.373,3.374c0.469,0.469,1.105,0.732,1.768,0.732s1.299-0.263,1.768-0.732l6.827-6.827c0.976-0.974,2.562-0.975,3.537-0.001
							C90.654,230.344,90.654,231.93,89.679,232.905z"/>
					</g>
				</g>
			</g>
		</g>
		<g>
			<g>
				<path d="M190.36,227.379H108c-1.381,0-2.5,1.119-2.5,2.5s1.119,2.5,2.5,2.5h82.361c1.381,0,2.5-1.119,2.5-2.5
					S191.741,227.379,190.36,227.379z"/>
			</g>
		</g>
		<g>
			<g>
				<path d="M170.68,238.338H108c-1.381,0-2.5,1.119-2.5,2.5s1.119,2.5,2.5,2.5h62.68c1.381,0,2.5-1.119,2.5-2.5
					S172.061,238.338,170.68,238.338z"/>
			</g>
		</g>
		<g>
			<g>
				<g>
					<g>
						<path d="M93.214,192.411c-2.924-2.921-7.682-2.921-10.606,0.001l-5.06,5.06l-1.606-1.606c-2.923-2.922-7.681-2.923-10.606,0
							c-2.924,2.924-2.924,7.682,0,10.606l6.909,6.909c1.462,1.461,3.382,2.192,5.303,2.192s3.841-0.731,5.303-2.193l10.363-10.363
							C96.139,200.094,96.139,195.336,93.214,192.411z M89.679,199.483l-10.363,10.362c-0.974,0.974-2.561,0.975-3.537,0
							l-6.908-6.908c-0.975-0.975-0.975-2.561,0-3.536c0.976-0.975,2.563-0.974,3.536,0l3.373,3.374
							c0.469,0.469,1.105,0.732,1.768,0.732s1.299-0.263,1.768-0.732l6.827-6.827c0.976-0.974,2.562-0.975,3.537-0.001
							C90.654,196.922,90.654,198.508,89.679,199.483z"/>
					</g>
				</g>
			</g>
		</g>
		<g>
			<g>
				<path d="M190.36,193.957H108c-1.381,0-2.5,1.119-2.5,2.5s1.119,2.5,2.5,2.5h82.361c1.381,0,2.5-1.119,2.5-2.5
					S191.741,193.957,190.36,193.957z"/>
			</g>
		</g>
		<g>
			<g>
				<path d="M170.68,204.917H108c-1.381,0-2.5,1.119-2.5,2.5s1.119,2.5,2.5,2.5h62.68c1.381,0,2.5-1.119,2.5-2.5
					S172.061,204.917,170.68,204.917z"/>
			</g>
		</g>
		<g>
			<g>
				<path class="st5" d="M85.506,0c-1.878,0-3.4,1.522-3.4,3.4c0,1.878,1.522,3.4,3.4,3.4c1.878,0,3.4-1.522,3.4-3.4
					C88.906,1.522,87.384,0,85.506,0z"/>
			</g>
		</g>
		<g>
			<g>
				<path class="st4" d="M221.206,221.3h-2.4V219c0-1.8-1.4-3.2-3.2-3.2c-1.7,0-3.2,1.4-3.2,3.1v2.4h-2.3c-1.8,0-3.2,1.4-3.2,3.2
					c-0.1,1.7,1.3,3.2,3.2,3.2h2.3v2.3c0,1.8,1.4,3.2,3.2,3.2c1.7,0,3.2-1.4,3.2-3.1v-2.4h2.3c1.8,0,3.2-1.4,3.2-3.2
					C224.306,222.8,222.906,221.3,221.206,221.3z"/>
			</g>
		</g>
		<g>
			<g>
				<path class="st6" d="M205.506,249.2c-1.878,0-3.4,1.522-3.4,3.4s1.522,3.4,3.4,3.4c1.878,0,3.4-1.522,3.4-3.4
					S207.384,249.2,205.506,249.2z"/>
			</g>
		</g>
		<g>
			<g>
				<path class="st9" d="M53.288,143.2c-3.1-0.6-5.6-3-6.2-6.1c0-0.1-0.3-0.1-0.3,0c-0.6,3.1-3.1,5.5-6.2,6.1c-0.1,0-0.1,0.2,0,0.3
					c3.1,0.6,5.6,3,6.2,6.1c0,0.1,0.3,0.1,0.3,0c0.6-3.1,3.1-5.5,6.2-6.1C53.388,143.4,53.388,143.2,53.288,143.2z"/>
			</g>
		</g>
		<g>
			<g>
				<path class="st6" d="M74.288,23.2c-4.5-0.8-8-4.3-8.9-8.7c0-0.2-0.4-0.2-0.4,0c-0.9,4.4-4.4,7.9-8.9,8.7c-0.2,0-0.2,0.3,0,0.4
					c4.5,0.8,8,4.3,8.9,8.7c0,0.2,0.4,0.2,0.4,0c0.9-4.4,4.4-7.9,8.9-8.7C74.488,23.5,74.488,23.2,74.288,23.2z"/>
			</g>
		</g>
		<g>
			<g>
				<g>
					<path d="M122.306,59.698c-0.483-0.471-1.138-0.729-1.809-0.709l-0.392,0.013c-2.516,0-4.927-0.594-7.165-1.765
						c-0.775-0.406-1.706-0.376-2.454,0.076c-0.749,0.453-1.206,1.264-1.206,2.139v2.94c0,1.436-0.8,2.722-2.086,3.356l-0.969,0.472
						c-1.155,0.556-1.703,1.896-1.267,3.102c2.303,6.377,8.39,10.661,15.146,10.661c0.139,0,0.276-0.006,0.413-0.014l0.123-0.006
						c1.349-0.043,2.42-1.149,2.42-2.499V61.488C123.061,60.813,122.789,60.168,122.306,59.698z M118.061,74.791
						c-3.119-0.591-5.858-2.511-7.49-5.247c2.115-1.479,3.461-3.805,3.679-6.403c1.244,0.372,2.521,0.626,3.812,0.757V74.791z"/>
				</g>
			</g>
		</g>
		<g>
			<g>
				<g>
					<path d="M124.317,109.328c-1.326,0-2.573-0.517-3.509-1.457c-0.785-0.787-1.272-1.791-1.408-2.876h5.125
						c1.381,0,2.5-1.122,2.5-2.502c0-1.375-1.11-2.491-2.484-2.5c-0.816-0.005-1.48-0.672-1.48-1.486v-0.432
						c0-1.381-1.119-2.5-2.5-2.5h-19.077v-5.359c0-1.381-1.119-2.5-2.5-2.5H83.365c-1.325,0-2.419,1.033-2.496,2.355l-0.892,15.383
						c-0.133,2.295,0.696,4.571,2.274,6.243c1.578,1.672,3.801,2.631,6.1,2.631h35.965c1.381,0,2.5-1.119,2.5-2.5
						S125.698,109.328,124.317,109.328z M115.677,109.328H88.352c-0.942,0-1.817-0.377-2.464-1.063
						c-0.647-0.686-0.973-1.582-0.919-2.522l0.756-13.027h10.759v5.359c0,1.381,1.119,2.5,2.5,2.5h17.578
						c-1.31,0.752-2.196,2.16-2.201,3.769C114.356,106.121,114.814,107.829,115.677,109.328z"/>
				</g>
			</g>
		</g>
	</g>
</g>
<g id="Layer_34">
</g>
<g id="Layer_35">
</g>
<g id="Layer_36">
</g>
<g id="Layer_37">
</g>
<g id="Layer_38">
</g>
<g id="Layer_39">
</g>
<g id="Layer_40">
</g>
<g id="Layer_41">
</g>
<g id="Layer_42">
</g>
<g id="Layer_43">
</g>
<g id="Layer_44">
</g>
<g id="Layer_45">
</g>
<g id="Layer_46">
</g>
<g id="Layer_47">
</g>
<g id="Layer_48">
</g>
<g id="Layer_49">
</g>
<g id="Layer_50">
</g>
<g id="Layer_51">
</g>
<g id="Layer_52">
</g>
<g id="Layer_53">
</g>
<g id="Layer_54">
</g>
<g id="Layer_55">
</g>
<g id="Layer_56">
</g>
<g id="Layer_57">
</g>
<g id="Layer_58">
</g>
<g id="Layer_59">
</g>
<g id="Layer_60">
</g>
<g id="Layer_61">
</g>
<g id="Layer_62">
</g>
<g id="Layer_63">
</g>
<g id="Layer_64">
</g>
<g id="Layer_65">
</g>
<g id="Layer_66">
</g>
<g id="Layer_67">
</g>
<g id="Layer_68">
</g>
<g id="Layer_69">
</g>
<g id="Layer_70">
</g>
<g id="Layer_71">
</g>
<g id="Layer_72">
</g>
<g id="Layer_73">
</g>
<g id="Layer_74">
</g>
<g id="Layer_75">
</g>
<g id="Layer_76">
</g>
<g id="Layer_77">
</g>
<g id="Layer_78">
</g>
<g id="Layer_79">
</g>
<g id="Layer_80">
</g>
</svg>
