<?xml version="1.0" encoding="utf-8"?>
<!-- Generator: Adobe Illustrator 24.0.0, SVG Export Plug-In . SVG Version: 6.00 Build 0)  -->
<svg version="1.1" xmlns="http://www.w3.org/2000/svg" xmlns:xlink="http://www.w3.org/1999/xlink" x="0px" y="0px"
	 viewBox="0 0 256 256" style="enable-background:new 0 0 256 256;" xml:space="preserve">
<style type="text/css">
	.st0{fill:#6CADEF;}
	.st1{fill:#F9D0B4;}
	.st2{fill:#5B5D60;}
	.st3{fill:#9BE5F9;}
	.st4{fill:#FC657E;}
	.st5{fill:#70D6F9;}
	.st6{fill:#F5C84C;}
	.st7{fill:#F98FA6;}
	.st8{fill:#FED690;}
	.st9{fill:#87D147;}
	.st10{fill:#B2E26D;}
	.st11{fill:#EDF4FC;}
	.st12{fill:#FCDD86;}
	.st13{fill:#754E34;}
	.st14{fill:#B598F9;}
	.st15{fill:#5290DB;}
	.st16{fill:#C7D7E5;}
	.st17{fill:#C18E6B;}
	.st18{fill:#DAE6F1;}
	.st19{fill:#3CAADC;}
	.st20{fill:#818182;}
	.st21{fill:#CBEFF7;}
	.st22{fill:#FCA265;}
	.st23{fill:#A57453;}
	.st24{fill:#8652D8;}
	.st25{fill:#966AEA;}
	.st26{fill:#FEB872;}
	.st27{fill:#EDB311;}
	.st28{fill:#EF4460;}
</style>
<g id="Layer_1">
</g>
<g id="Layer_2">
</g>
<g id="Layer_3">
</g>
<g id="Layer_4">
</g>
<g id="Layer_5">
</g>
<g id="Layer_6">
</g>
<g id="Layer_7">
</g>
<g id="Layer_8">
</g>
<g id="Layer_9">
</g>
<g id="Layer_10">
</g>
<g id="Layer_11">
</g>
<g id="Layer_12">
</g>
<g id="Layer_13">
</g>
<g id="Layer_14">
</g>
<g id="Layer_15">
</g>
<g id="Layer_16">
</g>
<g id="Layer_17">
</g>
<g id="Layer_18">
</g>
<g id="Layer_19">
</g>
<g id="Layer_20">
</g>
<g id="Layer_21">
</g>
<g id="Layer_22">
</g>
<g id="Layer_23">
</g>
<g id="Layer_24">
</g>
<g id="Layer_25">
</g>
<g id="Layer_26">
</g>
<g id="Layer_27">
</g>
<g id="Layer_28">
</g>
<g id="Layer_29">
</g>
<g id="Layer_30">
</g>
<g id="Layer_31">
</g>
<g id="Layer_32">
</g>
<g id="Layer_33">
</g>
<g id="Layer_34">
</g>
<g id="Layer_35">
</g>
<g id="Layer_36">
</g>
<g id="Layer_37">
</g>
<g id="Layer_38">
</g>
<g id="Layer_39">
</g>
<g id="Layer_40">
</g>
<g id="Layer_41">
</g>
<g id="Layer_42">
</g>
<g id="Layer_43">
</g>
<g id="Layer_44">
</g>
<g id="Layer_45">
</g>
<g id="Layer_46">
</g>
<g id="Layer_47">
</g>
<g id="Layer_48">
</g>
<g id="Layer_49">
	<g>
		<g>
			<g>
				<circle class="st5" cx="122.313" cy="140.329" r="6.106"/>
			</g>
		</g>
		<g>
			<g>
				<path class="st14" d="M231.107,45.051c-1.446,0.621-3.036,0.971-4.709,0.971c-0.473,0-0.939-0.027-1.398-0.081
					c-0.845-0.099-1.079-1.224-0.352-1.667c1.924-1.175,3.488-2.878,4.494-4.908c0.369-0.744-0.185-1.616-1.016-1.616h-17.798
					c-1.968,0-3.578-1.61-3.578-3.579V13.53c-2.902-0.82-5.96-1.269-9.125-1.269c-18.501,0-33.5,14.999-33.5,33.5
					s14.999,33.5,33.5,33.5s33.5-14.999,33.5-33.5C231.125,45.523,231.112,45.289,231.107,45.051z"/>
			</g>
		</g>
		<g>
			<g>
				<path class="st12" d="M231.107,213.29c-1.446,0.621-3.036,0.971-4.709,0.971c-0.473,0-0.939-0.028-1.398-0.081
					c-0.845-0.099-1.079-1.224-0.352-1.667c1.924-1.175,3.488-2.879,4.494-4.908c0.369-0.744-0.185-1.616-1.016-1.616h-17.798
					c-1.968,0-3.578-1.61-3.578-3.579v-20.642c-2.902-0.82-5.96-1.269-9.125-1.269c-18.501,0-33.5,14.999-33.5,33.5
					s14.999,33.5,33.5,33.5s33.5-14.999,33.5-33.5C231.125,213.762,231.112,213.527,231.107,213.29z"/>
			</g>
		</g>
		<g>
			<g>
				<path class="st5" d="M80.482,45.051c-1.446,0.621-3.036,0.971-4.709,0.971c-0.473,0-0.939-0.027-1.398-0.081
					c-0.845-0.099-1.079-1.224-0.352-1.667c1.924-1.175,3.488-2.878,4.494-4.908c0.369-0.744-0.185-1.616-1.016-1.616H59.703
					c-1.968,0-3.578-1.61-3.578-3.579V13.53c-2.902-0.82-5.96-1.269-9.125-1.269c-18.502,0-33.5,14.999-33.5,33.5
					s14.998,33.5,33.5,33.5c18.501,0,33.5-14.999,33.5-33.5C80.5,45.523,80.487,45.289,80.482,45.051z"/>
			</g>
		</g>
		<g>
			<g>
				<path class="st7" d="M80.482,213.29c-1.446,0.621-3.036,0.971-4.709,0.971c-0.473,0-0.939-0.028-1.398-0.081
					c-0.845-0.099-1.079-1.224-0.352-1.667c1.924-1.175,3.488-2.879,4.494-4.908c0.369-0.744-0.185-1.616-1.016-1.616H59.703
					c-1.968,0-3.578-1.61-3.578-3.579v-20.642c-2.902-0.82-5.96-1.269-9.125-1.269c-18.502,0-33.5,14.999-33.5,33.5
					s14.998,33.5,33.5,33.5c18.501,0,33.5-14.999,33.5-33.5C80.5,213.762,80.487,213.527,80.482,213.29z"/>
			</g>
		</g>
		<g>
			<g>
				<path class="st11" d="M238.922,8.5h-28.593c-1.968,0-3.578,1.61-3.578,3.578v22.093c0,1.968,1.61,3.578,3.578,3.578h17.798
					c0.83,0,1.384,0.872,1.016,1.616c-1.006,2.03-2.57,3.733-4.494,4.908c-0.726,0.444-0.493,1.568,0.352,1.667
					c0.458,0.054,0.925,0.081,1.398,0.081c4.946,0,9.189-3.002,11.011-7.282c0.257-0.604,0.856-0.991,1.512-0.991
					c1.968,0,3.578-1.61,3.578-3.578V12.078C242.5,10.11,240.89,8.5,238.922,8.5z"/>
			</g>
		</g>
		<g>
			<g>
				<path class="st11" d="M238.922,176.739h-28.593c-1.968,0-3.578,1.61-3.578,3.578v22.093c0,1.968,1.61,3.579,3.578,3.579h17.798
					c0.83,0,1.384,0.872,1.016,1.616c-1.006,2.03-2.57,3.733-4.494,4.908c-0.726,0.443-0.493,1.568,0.352,1.667
					c0.458,0.054,0.925,0.081,1.398,0.081c4.946,0,9.189-3.001,11.011-7.282c0.257-0.604,0.856-0.991,1.512-0.991
					c1.968,0,3.578-1.61,3.578-3.579v-22.093C242.5,178.349,240.89,176.739,238.922,176.739z"/>
			</g>
		</g>
		<g>
			<g>
				<path class="st11" d="M88.297,8.5H59.703c-1.968,0-3.578,1.61-3.578,3.578v22.093c0,1.968,1.61,3.578,3.578,3.578h17.798
					c0.83,0,1.384,0.872,1.015,1.616c-1.006,2.03-2.57,3.733-4.494,4.908c-0.726,0.444-0.493,1.568,0.352,1.667
					c0.458,0.054,0.925,0.081,1.398,0.081c4.946,0,9.189-3.002,11.011-7.282c0.257-0.604,0.856-0.991,1.513-0.991
					c1.968,0,3.578-1.61,3.578-3.578V12.078C91.875,10.11,90.265,8.5,88.297,8.5z"/>
			</g>
		</g>
		<g>
			<g>
				<path class="st11" d="M88.297,176.739H59.703c-1.968,0-3.578,1.61-3.578,3.578v22.093c0,1.968,1.61,3.579,3.578,3.579h17.798
					c0.83,0,1.384,0.872,1.015,1.616c-1.006,2.03-2.57,3.733-4.494,4.908c-0.726,0.443-0.493,1.568,0.352,1.667
					c0.458,0.054,0.925,0.081,1.398,0.081c4.946,0,9.189-3.001,11.011-7.282c0.257-0.604,0.856-0.991,1.513-0.991
					c1.968,0,3.578-1.61,3.578-3.579v-22.093C91.875,178.349,90.265,176.739,88.297,176.739z"/>
			</g>
		</g>
		<g>
			<g>
				<circle class="st1" cx="197.625" cy="39.567" r="9.613"/>
			</g>
		</g>
		<g>
			<g>
				<path class="st5" d="M207.315,58.884h-19.38c-6.182,0-11.239,5.058-11.239,11.239v1.787c5.735,4.596,13.008,7.351,20.929,7.351
					s15.194-2.755,20.929-7.351v-1.787C218.554,63.941,213.496,58.884,207.315,58.884z"/>
			</g>
		</g>
		<g>
			<g>
				<path class="st1" d="M197.625,198.192c-5.309,0-9.613,4.304-9.613,9.613s4.304,9.614,9.613,9.614s9.613-4.304,9.613-9.614
					S202.934,198.192,197.625,198.192z"/>
			</g>
		</g>
		<g>
			<g>
				<path class="st14" d="M207.315,227.122h-19.38c-6.182,0-11.239,5.058-11.239,11.239v1.787
					c5.735,4.596,13.008,7.351,20.929,7.351s15.194-2.755,20.929-7.351v-1.787C218.554,232.18,213.496,227.122,207.315,227.122z"/>
			</g>
		</g>
		<g>
			<g>
				<circle class="st1" cx="47" cy="39.567" r="9.613"/>
			</g>
		</g>
		<g>
			<g>
				<path class="st4" d="M56.69,58.884H37.31c-6.182,0-11.239,5.058-11.239,11.239v1.787c5.735,4.596,13.008,7.351,20.929,7.351
					s15.194-2.755,20.929-7.351v-1.787C67.929,63.941,62.871,58.884,56.69,58.884z"/>
			</g>
		</g>
		<g>
			<g>
				<path class="st1" d="M47,198.192c-5.309,0-9.613,4.304-9.613,9.613s4.304,9.614,9.613,9.614s9.613-4.304,9.613-9.614
					S52.309,198.192,47,198.192z"/>
			</g>
		</g>
		<g>
			<g>
				<path class="st6" d="M56.69,227.122H37.31c-6.182,0-11.239,5.058-11.239,11.239v1.787C31.806,244.745,39.079,247.5,47,247.5
					s15.194-2.755,20.929-7.351v-1.787C67.929,232.18,62.871,227.122,56.69,227.122z"/>
			</g>
		</g>
		<g>
			<g>
				<path class="st5" d="M127.603,22.1h-2.4v-2.3c0-1.8-1.4-3.2-3.2-3.2c-1.7,0-3.2,1.4-3.2,3.1v2.4h-2.3c-1.8,0-3.2,1.4-3.2,3.2
					c-0.1,1.7,1.3,3.2,3.2,3.2h2.3v2.3c0,1.8,1.4,3.2,3.2,3.2c1.7,0,3.2-1.4,3.2-3.1v-2.4h2.3c1.8,0,3.2-1.4,3.2-3.2
					C130.703,23.6,129.303,22.1,127.603,22.1z"/>
			</g>
		</g>
		<g>
			<g>
				<path class="st6" d="M142.506,0c-1.878,0-3.4,1.522-3.4,3.4c0,1.878,1.522,3.4,3.4,3.4c1.878,0,3.4-1.522,3.4-3.4
					C145.906,1.522,144.384,0,142.506,0z"/>
			</g>
		</g>
		<g>
			<g>
				<path class="st4" d="M142.506,249.2c-1.878,0-3.4,1.522-3.4,3.4c0,1.878,1.522,3.4,3.4,3.4c1.878,0,3.4-1.522,3.4-3.4
					C145.906,250.722,144.384,249.2,142.506,249.2z"/>
			</g>
		</g>
		<g>
			<g>
				<path class="st9" d="M231.288,106.2c-3.1-0.6-5.6-3-6.2-6.1c0-0.1-0.3-0.1-0.3,0c-0.6,3.1-3.1,5.5-6.2,6.1c-0.1,0-0.1,0.2,0,0.3
					c3.1,0.6,5.6,3,6.2,6.1c0,0.1,0.3,0.1,0.3,0c0.6-3.1,3.1-5.5,6.2-6.1C231.388,106.4,231.388,106.2,231.288,106.2z"/>
			</g>
		</g>
		<g>
			<g>
				<path class="st6" d="M131.1,232.2c-4.5-0.8-8-4.3-8.9-8.7c0-0.2-0.4-0.2-0.4,0c-0.9,4.4-4.4,7.9-8.9,8.7c-0.2,0-0.2,0.3,0,0.4
					c4.5,0.8,8,4.3,8.9,8.7c0,0.2,0.4,0.2,0.4,0c0.9-4.4,4.4-7.9,8.9-8.7C131.3,232.5,131.3,232.2,131.1,232.2z"/>
			</g>
		</g>
		<g>
			<g>
				<g>
					<path d="M128.397,134.244L128.397,134.244c-3.355-3.355-8.814-3.355-12.17,0c-1.626,1.625-2.521,3.787-2.521,6.085
						s0.896,4.46,2.521,6.085c1.678,1.678,3.881,2.517,6.085,2.517c2.203,0,4.407-0.839,6.085-2.516
						c1.626-1.625,2.521-3.787,2.521-6.085S130.023,135.87,128.397,134.244z M124.862,142.879c-1.405,1.404-3.692,1.407-5.1,0
						c-0.681-0.681-1.057-1.586-1.057-2.549c0-0.963,0.376-1.869,1.057-2.55c0.703-0.703,1.626-1.054,2.55-1.054
						s1.847,0.351,2.55,1.054c0.681,0.681,1.057,1.586,1.057,2.55C125.919,141.292,125.543,142.198,124.862,142.879z"/>
				</g>
			</g>
		</g>
		<g>
			<g>
				<path d="M139.309,126.458c-9.371-9.372-24.621-9.372-33.992,0c-0.977,0.976-0.977,2.559,0,3.535
					c0.977,0.977,2.559,0.977,3.535,0c7.422-7.422,19.5-7.422,26.922,0c0.488,0.488,1.128,0.732,1.768,0.732
					s1.279-0.244,1.768-0.732C140.285,129.017,140.285,127.434,139.309,126.458z"/>
			</g>
		</g>
		<g>
			<g>
				<path d="M148.011,117.755c-14.17-14.17-37.227-14.17-51.396,0c-0.977,0.976-0.977,2.559,0,3.535
					c0.488,0.488,1.128,0.732,1.768,0.732s1.279-0.244,1.768-0.732c12.221-12.22,32.105-12.22,44.326,0
					c0.977,0.977,2.559,0.977,3.535,0C148.987,120.314,148.987,118.731,148.011,117.755z"/>
			</g>
		</g>
		<g>
			<g>
				<path d="M156.712,109.054c-9.174-9.175-21.391-14.228-34.399-14.228s-25.226,5.053-34.399,14.228
					c-0.977,0.976-0.977,2.559,0,3.535c0.977,0.977,2.559,0.977,3.535,0c8.23-8.23,19.191-12.763,30.864-12.763
					s22.634,4.533,30.864,12.763c0.488,0.488,1.128,0.732,1.768,0.732s1.279-0.244,1.768-0.732
					C157.688,111.613,157.688,110.03,156.712,109.054z"/>
			</g>
		</g>
		<g>
			<g>
				<g>
					<path d="M233.614,45.239L233.606,45c-0.017-0.832-0.446-1.6-1.145-2.05c-0.699-0.45-1.577-0.524-2.34-0.196
						c-0.07,0.03-0.141,0.059-0.21,0.087c0.562-0.735,1.054-1.526,1.469-2.364c0.559-1.126,0.496-2.438-0.168-3.508
						c-0.667-1.076-1.82-1.719-3.086-1.719h-17.799c-0.584,0-1.078-0.494-1.078-1.079V13.53c0-1.119-0.743-2.102-1.82-2.406
						c-3.199-0.904-6.498-1.363-9.805-1.363c-19.851,0-36,16.149-36,36s16.149,36,36,36s36-16.149,36-36
						C233.625,45.586,233.62,45.413,233.614,45.239z M197.625,76.761c-17.094,0-31-13.907-31-31s13.906-31,31-31
						c2.225,0,4.445,0.241,6.625,0.718v18.692c0,3.352,2.727,6.079,6.078,6.079h15.248c-0.638,0.738-1.39,1.376-2.232,1.891
						c-1.238,0.757-1.861,2.22-1.55,3.641c0.311,1.413,1.481,2.475,2.915,2.643c1.258,0.147,2.557,0.128,3.808-0.058
						C227.188,64.246,213.841,76.761,197.625,76.761z"/>
				</g>
			</g>
		</g>
		<g>
			<g>
				<g>
					<path d="M233.614,213.478l-0.008-0.239c-0.017-0.832-0.446-1.6-1.145-2.05c-0.699-0.45-1.577-0.524-2.34-0.196
						c-0.07,0.03-0.141,0.059-0.21,0.087c0.562-0.735,1.054-1.526,1.469-2.364c0.559-1.126,0.496-2.438-0.168-3.508
						c-0.667-1.076-1.82-1.719-3.086-1.719h-17.799c-0.584,0-1.078-0.494-1.078-1.079v-20.642c0-1.119-0.743-2.102-1.82-2.406
						c-3.199-0.904-6.498-1.363-9.805-1.363c-19.851,0-36,16.149-36,36s16.149,36,36,36s36-16.149,36-36
						C233.625,213.825,233.62,213.651,233.614,213.478z M197.625,245c-17.094,0-31-13.907-31-31s13.906-31,31-31
						c2.225,0,4.445,0.241,6.625,0.718v18.692c0,3.352,2.727,6.079,6.078,6.079h15.248c-0.638,0.738-1.39,1.376-2.232,1.891
						c-1.238,0.757-1.861,2.22-1.55,3.641c0.311,1.413,1.481,2.475,2.915,2.643c1.258,0.146,2.557,0.127,3.808-0.058
						C227.188,232.484,213.841,245,197.625,245z"/>
				</g>
			</g>
		</g>
		<g>
			<g>
				<g>
					<path d="M82.989,45.239L82.981,45c-0.017-0.832-0.446-1.6-1.145-2.05c-0.7-0.45-1.577-0.524-2.34-0.196
						c-0.07,0.03-0.141,0.059-0.21,0.087c0.562-0.735,1.054-1.526,1.469-2.364c0.559-1.126,0.496-2.438-0.168-3.508
						c-0.667-1.076-1.82-1.719-3.086-1.719H59.703c-0.584,0-1.078-0.494-1.078-1.079V13.53c0-1.119-0.743-2.102-1.82-2.406
						C53.605,10.22,50.307,9.761,47,9.761c-19.851,0-36,16.149-36,36s16.149,36,36,36s36-16.149,36-36
						C83,45.586,82.995,45.413,82.989,45.239z M47,76.761c-17.094,0-31-13.907-31-31s13.906-31,31-31
						c2.225,0,4.445,0.241,6.625,0.718v18.692c0,3.352,2.727,6.079,6.078,6.079h15.248c-0.638,0.738-1.39,1.376-2.232,1.891
						c-1.238,0.757-1.861,2.22-1.55,3.641c0.311,1.413,1.481,2.475,2.915,2.643c1.259,0.147,2.557,0.128,3.808-0.058
						C76.563,64.246,63.216,76.761,47,76.761z"/>
				</g>
			</g>
		</g>
		<g>
			<g>
				<g>
					<path d="M82.989,213.478l-0.008-0.239c-0.017-0.832-0.446-1.6-1.145-2.05c-0.7-0.45-1.577-0.524-2.34-0.196
						c-0.07,0.03-0.141,0.059-0.21,0.087c0.562-0.735,1.054-1.526,1.469-2.364c0.559-1.126,0.496-2.438-0.168-3.508
						c-0.667-1.076-1.82-1.719-3.086-1.719H59.703c-0.584,0-1.078-0.494-1.078-1.079v-20.642c0-1.119-0.743-2.102-1.82-2.406
						C53.605,178.458,50.307,178,47,178c-19.851,0-36,16.149-36,36s16.149,36,36,36s36-16.149,36-36
						C83,213.825,82.995,213.651,82.989,213.478z M47,245c-17.094,0-31-13.907-31-31s13.906-31,31-31
						c2.225,0,4.445,0.241,6.625,0.718v18.692c0,3.352,2.727,6.079,6.078,6.079h15.248c-0.638,0.738-1.39,1.376-2.232,1.891
						c-1.238,0.757-1.861,2.22-1.55,3.641c0.311,1.413,1.481,2.475,2.915,2.643c1.259,0.146,2.557,0.127,3.808-0.058
						C76.563,232.484,63.216,245,47,245z"/>
				</g>
			</g>
		</g>
		<g>
			<g>
				<g>
					<path d="M81.762,136H46.5c-1.381,0-2.5,1.119-2.5,2.5v28c0,1.381,1.119,2.5,2.5,2.5s2.5-1.119,2.5-2.5V141h32.762
						c1.381,0,2.5-1.119,2.5-2.5S83.143,136,81.762,136z"/>
				</g>
			</g>
			<g>
				<g>
					<path d="M197.5,136h-35.262c-1.381,0-2.5,1.119-2.5,2.5s1.119,2.5,2.5,2.5H195v25.5c0,1.381,1.119,2.5,2.5,2.5
						s2.5-1.119,2.5-2.5v-28C200,137.119,198.881,136,197.5,136z"/>
				</g>
			</g>
		</g>
		<g>
			<g>
				<g>
					<path d="M81.762,116H49V90.5c0-1.381-1.119-2.5-2.5-2.5S44,89.119,44,90.5v28c0,1.381,1.119,2.5,2.5,2.5h35.262
						c1.381,0,2.5-1.119,2.5-2.5S83.143,116,81.762,116z"/>
				</g>
			</g>
			<g>
				<g>
					<path d="M197.5,88c-1.381,0-2.5,1.119-2.5,2.5V116h-32.762c-1.381,0-2.5,1.119-2.5,2.5s1.119,2.5,2.5,2.5H197.5
						c1.381,0,2.5-1.119,2.5-2.5v-28C200,89.119,198.881,88,197.5,88z"/>
				</g>
			</g>
		</g>
		<g>
			<g>
				<g>
					<g>
						<path d="M238.922,6h-28.594c-3.352,0-6.078,2.727-6.078,6.078v22.094c0,3.352,2.727,6.078,6.078,6.078h15.249
							c-0.639,0.738-1.39,1.376-2.231,1.89c-1.239,0.756-1.862,2.219-1.552,3.64c0.31,1.414,1.48,2.477,2.915,2.645
							c0.559,0.065,1.127,0.099,1.688,0.099c5.624,0,10.7-3.239,13.086-8.299c3.089-0.284,5.517-2.89,5.517-6.052V12.078
							C245,8.727,242.273,6,238.922,6z M240,34.172c0,0.584-0.494,1.078-1.078,1.078c-1.668,0-3.164,0.986-3.813,2.511
							c-1.011,2.372-2.906,4.174-5.206,5.091c0.565-0.738,1.061-1.533,1.478-2.375c0.559-1.125,0.496-2.437-0.168-3.508
							c-0.667-1.077-1.821-1.719-3.086-1.719h-17.799c-0.584,0-1.078-0.494-1.078-1.078V12.078c0-0.584,0.494-1.078,1.078-1.078
							h28.594c0.584,0,1.078,0.494,1.078,1.078V34.172z"/>
					</g>
				</g>
			</g>
		</g>
		<g>
			<g>
				<g>
					<g>
						<path d="M238.922,174.239h-28.594c-3.352,0-6.078,2.727-6.078,6.078v22.093c0,3.352,2.727,6.079,6.078,6.079h15.249
							c-0.639,0.738-1.39,1.376-2.231,1.89c-1.239,0.756-1.862,2.219-1.552,3.64c0.31,1.414,1.48,2.477,2.915,2.645
							c0.556,0.065,1.124,0.098,1.688,0.098c5.624,0,10.7-3.238,13.086-8.298c3.089-0.284,5.517-2.89,5.517-6.053v-22.093
							C245,176.965,242.273,174.239,238.922,174.239z M240,202.41c0,0.584-0.494,1.079-1.078,1.079
							c-1.668,0-3.164,0.986-3.813,2.511c-1.011,2.371-2.905,4.174-5.205,5.09c0.564-0.738,1.06-1.532,1.477-2.374
							c0.559-1.125,0.496-2.437-0.168-3.508c-0.667-1.077-1.821-1.719-3.086-1.719h-17.799c-0.584,0-1.078-0.494-1.078-1.079
							v-22.093c0-0.584,0.494-1.078,1.078-1.078h28.594c0.584,0,1.078,0.494,1.078,1.078V202.41z"/>
					</g>
				</g>
			</g>
		</g>
		<g>
			<g>
				<g>
					<g>
						<path d="M88.297,6H59.703c-3.352,0-6.078,2.727-6.078,6.078v22.094c0,3.352,2.727,6.078,6.078,6.078h15.249
							c-0.639,0.738-1.39,1.376-2.231,1.89c-1.239,0.756-1.862,2.219-1.552,3.64c0.31,1.414,1.48,2.477,2.915,2.645
							c0.559,0.065,1.127,0.099,1.688,0.099c5.624,0,10.7-3.239,13.086-8.299c3.089-0.284,5.517-2.89,5.517-6.052V12.078
							C94.375,8.727,91.648,6,88.297,6z M89.375,34.172c0,0.584-0.494,1.078-1.078,1.078c-1.668,0-3.164,0.986-3.813,2.511
							c-1.011,2.372-2.906,4.174-5.206,5.091c0.565-0.738,1.061-1.533,1.478-2.375c0.559-1.125,0.496-2.437-0.168-3.508
							c-0.667-1.077-1.821-1.719-3.086-1.719H59.703c-0.584,0-1.078-0.494-1.078-1.078V12.078c0-0.584,0.494-1.078,1.078-1.078
							h28.594c0.584,0,1.078,0.494,1.078,1.078V34.172z"/>
					</g>
				</g>
			</g>
		</g>
		<g>
			<g>
				<g>
					<g>
						<path d="M88.297,174.239H59.703c-3.352,0-6.078,2.727-6.078,6.078v22.093c0,3.352,2.727,6.079,6.078,6.079h15.249
							c-0.639,0.738-1.39,1.376-2.231,1.89c-1.239,0.756-1.862,2.219-1.552,3.64c0.31,1.414,1.48,2.477,2.915,2.645
							c0.556,0.065,1.124,0.098,1.688,0.098c5.624,0,10.7-3.238,13.086-8.298c3.089-0.284,5.517-2.89,5.517-6.053v-22.093
							C94.375,176.965,91.648,174.239,88.297,174.239z M89.375,202.41c0,0.584-0.494,1.079-1.078,1.079
							c-1.668,0-3.164,0.986-3.813,2.511c-1.011,2.371-2.905,4.174-5.205,5.09c0.564-0.738,1.06-1.532,1.477-2.374
							c0.559-1.125,0.496-2.437-0.168-3.508c-0.667-1.077-1.821-1.719-3.086-1.719H59.703c-0.584,0-1.078-0.494-1.078-1.079v-22.093
							c0-0.584,0.494-1.078,1.078-1.078h28.594c0.584,0,1.078,0.494,1.078,1.078V202.41z"/>
					</g>
				</g>
			</g>
		</g>
		<g>
			<g>
				<g>
					<path d="M197.625,27.454c-6.68,0-12.113,5.434-12.113,12.113c0,6.68,5.434,12.114,12.113,12.114s12.113-5.434,12.113-12.114
						C209.738,32.888,204.305,27.454,197.625,27.454z M197.625,46.681c-3.922,0-7.113-3.191-7.113-7.114s3.191-7.113,7.113-7.113
						s7.113,3.191,7.113,7.113S201.547,46.681,197.625,46.681z"/>
				</g>
			</g>
		</g>
		<g>
			<g>
				<g>
					<path d="M207.314,56.384h-19.379c-7.576,0-13.739,6.164-13.739,13.739v1.787c0,0.759,0.345,1.476,0.937,1.951
						c6.356,5.095,14.344,7.9,22.492,7.9s16.136-2.806,22.492-7.9c0.592-0.475,0.937-1.192,0.937-1.951v-1.787
						C221.054,62.547,214.891,56.384,207.314,56.384z M216.054,70.682c-5.361,3.981-11.707,6.079-18.429,6.079
						s-13.067-2.098-18.429-6.079v-0.559c0-4.819,3.921-8.739,8.739-8.739h19.379c4.818,0,8.739,3.92,8.739,8.739V70.682z"/>
				</g>
			</g>
		</g>
		<g>
			<g>
				<g>
					<path d="M197.625,195.692c-6.68,0-12.113,5.434-12.113,12.113s5.434,12.113,12.113,12.113s12.113-5.434,12.113-12.113
						S204.305,195.692,197.625,195.692z M197.625,214.919c-3.922,0-7.113-3.191-7.113-7.113s3.191-7.113,7.113-7.113
						s7.113,3.191,7.113,7.113S201.547,214.919,197.625,214.919z"/>
				</g>
			</g>
		</g>
		<g>
			<g>
				<g>
					<path d="M207.314,224.623h-19.379c-7.576,0-13.739,6.164-13.739,13.739v1.787c0,0.759,0.345,1.476,0.937,1.951
						c6.356,5.095,14.344,7.9,22.492,7.9s16.136-2.806,22.492-7.9c0.592-0.475,0.937-1.192,0.937-1.951v-1.787
						C221.054,230.786,214.891,224.623,207.314,224.623z M216.054,238.921c-5.361,3.981-11.707,6.079-18.429,6.079
						s-13.067-2.098-18.429-6.079v-0.559c0-4.819,3.921-8.739,8.739-8.739h19.379c4.818,0,8.739,3.92,8.739,8.739V238.921z"/>
				</g>
			</g>
		</g>
		<g>
			<g>
				<g>
					<path d="M47,27.454c-6.68,0-12.113,5.434-12.113,12.113c0,6.68,5.434,12.114,12.113,12.114s12.113-5.434,12.113-12.114
						C59.113,32.888,53.68,27.454,47,27.454z M47,46.681c-3.922,0-7.113-3.191-7.113-7.114s3.191-7.113,7.113-7.113
						s7.113,3.191,7.113,7.113S50.922,46.681,47,46.681z"/>
				</g>
			</g>
		</g>
		<g>
			<g>
				<g>
					<path d="M56.689,56.384H37.311c-7.576,0-13.739,6.164-13.739,13.739v1.787c0,0.759,0.345,1.476,0.937,1.951
						c6.356,5.095,14.344,7.9,22.492,7.9s16.136-2.806,22.492-7.9c0.592-0.475,0.937-1.192,0.937-1.951v-1.787
						C70.429,62.547,64.266,56.384,56.689,56.384z M65.429,70.682C60.067,74.664,53.722,76.761,47,76.761
						s-13.067-2.098-18.429-6.079v-0.559c0-4.819,3.921-8.739,8.739-8.739h19.379c4.818,0,8.739,3.92,8.739,8.739V70.682z"/>
				</g>
			</g>
		</g>
		<g>
			<g>
				<g>
					<path d="M47,195.692c-6.68,0-12.113,5.434-12.113,12.113S40.32,219.919,47,219.919s12.113-5.434,12.113-12.113
						S53.68,195.692,47,195.692z M47,214.919c-3.922,0-7.113-3.191-7.113-7.113s3.191-7.113,7.113-7.113s7.113,3.191,7.113,7.113
						S50.922,214.919,47,214.919z"/>
				</g>
			</g>
		</g>
		<g>
			<g>
				<g>
					<path d="M56.689,224.623H37.311c-7.576,0-13.739,6.164-13.739,13.739v1.787c0,0.759,0.345,1.476,0.937,1.951
						C30.864,247.194,38.852,250,47,250s16.136-2.806,22.492-7.9c0.592-0.475,0.937-1.192,0.937-1.951v-1.787
						C70.429,230.786,64.266,224.623,56.689,224.623z M65.429,238.921C60.067,242.902,53.722,245,47,245s-13.067-2.098-18.429-6.079
						v-0.559c0-4.819,3.921-8.739,8.739-8.739h19.379c4.818,0,8.739,3.92,8.739,8.739V238.921z"/>
				</g>
			</g>
		</g>
	</g>
</g>
<g id="Layer_50">
</g>
<g id="Layer_51">
</g>
<g id="Layer_52">
</g>
<g id="Layer_53">
</g>
<g id="Layer_54">
</g>
<g id="Layer_55">
</g>
<g id="Layer_56">
</g>
<g id="Layer_57">
</g>
<g id="Layer_58">
</g>
<g id="Layer_59">
</g>
<g id="Layer_60">
</g>
<g id="Layer_61">
</g>
<g id="Layer_62">
</g>
<g id="Layer_63">
</g>
<g id="Layer_64">
</g>
<g id="Layer_65">
</g>
<g id="Layer_66">
</g>
<g id="Layer_67">
</g>
<g id="Layer_68">
</g>
<g id="Layer_69">
</g>
<g id="Layer_70">
</g>
<g id="Layer_71">
</g>
<g id="Layer_72">
</g>
<g id="Layer_73">
</g>
<g id="Layer_74">
</g>
<g id="Layer_75">
</g>
<g id="Layer_76">
</g>
<g id="Layer_77">
</g>
<g id="Layer_78">
</g>
<g id="Layer_79">
</g>
<g id="Layer_80">
</g>
</svg>
