<?xml version="1.0" encoding="utf-8"?>
<!-- Generator: Adobe Illustrator 24.0.0, SVG Export Plug-In . SVG Version: 6.00 Build 0)  -->
<svg version="1.1" xmlns="http://www.w3.org/2000/svg" xmlns:xlink="http://www.w3.org/1999/xlink" x="0px" y="0px"
	 viewBox="0 0 256 256" style="enable-background:new 0 0 256 256;" xml:space="preserve">
<style type="text/css">
	.st0{fill:#6CADEF;}
	.st1{fill:#F9D0B4;}
	.st2{fill:#5B5D60;}
	.st3{fill:#9BE5F9;}
	.st4{fill:#FC657E;}
	.st5{fill:#70D6F9;}
	.st6{fill:#F5C84C;}
	.st7{fill:#F98FA6;}
	.st8{fill:#FED690;}
	.st9{fill:#87D147;}
	.st10{fill:#B2E26D;}
	.st11{fill:#EDF4FC;}
	.st12{fill:#FCDD86;}
	.st13{fill:#754E34;}
	.st14{fill:#B598F9;}
	.st15{fill:#5290DB;}
	.st16{fill:#C7D7E5;}
	.st17{fill:#C18E6B;}
	.st18{fill:#DAE6F1;}
	.st19{fill:#3CAADC;}
	.st20{fill:#818182;}
	.st21{fill:#CBEFF7;}
	.st22{fill:#FCA265;}
	.st23{fill:#A57453;}
	.st24{fill:#8652D8;}
	.st25{fill:#966AEA;}
	.st26{fill:#FEB872;}
	.st27{fill:#EDB311;}
	.st28{fill:#EF4460;}
</style>
<g id="Layer_1">
</g>
<g id="Layer_2">
</g>
<g id="Layer_3">
</g>
<g id="Layer_4">
</g>
<g id="Layer_5">
</g>
<g id="Layer_6">
</g>
<g id="Layer_7">
</g>
<g id="Layer_8">
</g>
<g id="Layer_9">
</g>
<g id="Layer_10">
</g>
<g id="Layer_11">
</g>
<g id="Layer_12">
</g>
<g id="Layer_13">
</g>
<g id="Layer_14">
</g>
<g id="Layer_15">
</g>
<g id="Layer_16">
</g>
<g id="Layer_17">
</g>
<g id="Layer_18">
</g>
<g id="Layer_19">
</g>
<g id="Layer_20">
</g>
<g id="Layer_21">
</g>
<g id="Layer_22">
</g>
<g id="Layer_23">
</g>
<g id="Layer_24">
</g>
<g id="Layer_25">
</g>
<g id="Layer_26">
</g>
<g id="Layer_27">
</g>
<g id="Layer_28">
</g>
<g id="Layer_29">
</g>
<g id="Layer_30">
</g>
<g id="Layer_31">
</g>
<g id="Layer_32">
</g>
<g id="Layer_33">
</g>
<g id="Layer_34">
</g>
<g id="Layer_35">
</g>
<g id="Layer_36">
</g>
<g id="Layer_37">
</g>
<g id="Layer_38">
</g>
<g id="Layer_39">
</g>
<g id="Layer_40">
</g>
<g id="Layer_41">
</g>
<g id="Layer_42">
</g>
<g id="Layer_43">
</g>
<g id="Layer_44">
</g>
<g id="Layer_45">
</g>
<g id="Layer_46">
</g>
<g id="Layer_47">
</g>
<g id="Layer_48">
</g>
<g id="Layer_49">
</g>
<g id="Layer_50">
</g>
<g id="Layer_51">
</g>
<g id="Layer_52">
</g>
<g id="Layer_53">
</g>
<g id="Layer_54">
</g>
<g id="Layer_55">
</g>
<g id="Layer_56">
</g>
<g id="Layer_57">
</g>
<g id="Layer_58">
</g>
<g id="Layer_59">
</g>
<g id="Layer_60">
</g>
<g id="Layer_61">
</g>
<g id="Layer_62">
</g>
<g id="Layer_63">
	<g>
		<g>
			<g>
				<path class="st0" d="M226.925,32.5H29.075c-6.779,0-12.325,5.546-12.325,12.325v141.35c0,6.779,5.546,12.325,12.325,12.325
					h197.849c6.779,0,12.325-5.546,12.325-12.325V44.825C239.25,38.046,233.704,32.5,226.925,32.5z"/>
			</g>
		</g>
		<g>
			<g>
				<path class="st15" d="M226.925,44.5H29.075c-0.152,0-0.325,0.173-0.325,0.325v141.35c0,0.152,0.173,0.325,0.325,0.325h197.85
					c0.152,0,0.325-0.173,0.325-0.325V44.825C227.25,44.673,227.077,44.5,226.925,44.5z"/>
			</g>
		</g>
		<g>
			<g>
				<rect x="28.75" y="55.935" class="st0" width="198.5" height="21.13"/>
			</g>
		</g>
		<g>
			<g>
				<path class="st4" d="M28.75,168.962v17.212c0,0.152,0.173,0.325,0.325,0.325h197.85c0.152,0,0.325-0.173,0.325-0.325v-17.212
					H28.75z"/>
			</g>
		</g>
		<g>
			<g>
				<path class="st18" d="M61.496,106.5H28.75v62.462h36v-59.208C64.75,107.957,63.293,106.5,61.496,106.5z"/>
			</g>
		</g>
		<g>
			<g>
				<path class="st18" d="M194.504,106.5c-1.797,0-3.254,1.457-3.254,3.254v59.208h36V106.5H194.504z"/>
			</g>
		</g>
		<g>
			<g>
				<circle class="st20" cx="46.75" cy="123.5" r="6"/>
			</g>
		</g>
		<g>
			<g>
				<circle class="st20" cx="46.75" cy="148.5" r="10"/>
			</g>
		</g>
		<g>
			<g>
				<circle class="st20" cx="209.25" cy="123.5" r="6"/>
			</g>
		</g>
		<g>
			<g>
				<circle class="st20" cx="209.25" cy="148.5" r="10"/>
			</g>
		</g>
		<g>
			<g>
				<path class="st6" d="M100.859,133.167c-0.992-3.393-5.922-4.936-11.01-3.448c-5.089,1.488-8.41,5.445-7.417,8.837
					c0.992,3.393,5.922,4.936,11.01,3.448C98.531,140.516,101.851,136.559,100.859,133.167z"/>
			</g>
		</g>
		<g>
			<g>
				<path class="st6" d="M130.608,124.53c-0.992-3.393-5.922-4.936-11.01-3.448c-5.089,1.488-8.41,5.445-7.417,8.837
					c0.992,3.393,5.922,4.936,11.01,3.448C128.279,131.879,131.6,127.923,130.608,124.53z"/>
			</g>
		</g>
		<g>
			<g>
				<path class="st4" d="M153.532,140.119c-0.992-3.393-5.922-4.936-11.01-3.448c-5.089,1.488-8.41,5.445-7.417,8.837
					c0.992,3.393,5.922,4.936,11.01,3.448C151.203,147.468,154.524,143.511,153.532,140.119z"/>
			</g>
		</g>
		<g>
			<g>
				<polygon class="st6" points="101.035,101.462 101.035,112.052 130.783,103.416 130.783,92.825 				"/>
			</g>
		</g>
		<g>
			<g>
				<path class="st11" d="M191.943,242.208c-19.561-10.457-41.672-15.983-63.943-15.983s-44.383,5.526-63.943,15.983
					c-2.922,1.562-4.025,5.197-2.463,8.119c1.563,2.923,5.195,4.024,8.12,2.463c17.826-9.528,37.981-14.565,58.286-14.565
					c20.306,0,40.46,5.037,58.287,14.565c2.919,1.561,6.556,0.464,8.119-2.463C195.969,247.405,194.866,243.77,191.943,242.208z"/>
			</g>
		</g>
		<g>
			<g>
				<path class="st16" d="M134,198.5v11c0,3.313-2.687,6-6,6s-6-2.687-6-6v-11h-12.719v29.042
					c6.192-0.863,12.448-1.317,18.719-1.317c6.271,0,12.527,0.454,18.719,1.317V198.5H134z"/>
			</g>
		</g>
		<g>
			<g>
				<g>
					<g>
						<path d="M197.249,245.032c-0.659-2.174-2.125-3.959-4.127-5.029c-19.921-10.649-42.439-16.278-65.122-16.278
							s-45.201,5.629-65.122,16.278c-2.002,1.07-3.468,2.856-4.127,5.029c-0.659,2.172-0.432,4.472,0.638,6.474
							c2.208,4.13,7.367,5.695,11.503,3.489c17.465-9.336,37.213-14.271,57.107-14.271s39.642,4.935,57.108,14.271
							c1.251,0.668,2.617,1.008,3.997,1.008c0.827,0,1.66-0.122,2.474-0.369c2.175-0.658,3.962-2.124,5.031-4.128
							C197.682,249.504,197.908,247.205,197.249,245.032z M192.201,249.149c-0.44,0.825-1.176,1.429-2.07,1.699
							c-0.896,0.271-1.841,0.178-2.665-0.264c-18.189-9.722-38.752-14.86-59.466-14.86s-41.276,5.139-59.463,14.86
							c-1.705,0.907-3.829,0.265-4.738-1.437c-0.44-0.824-0.534-1.771-0.262-2.665c0.271-0.895,0.875-1.63,1.699-2.07
							c19.198-10.264,40.902-15.688,62.765-15.688c21.863,0,43.566,5.425,62.766,15.688c0.824,0.44,1.428,1.176,1.699,2.07
							C192.735,247.378,192.643,248.324,192.201,249.149z"/>
					</g>
				</g>
			</g>
		</g>
		<g>
			<g>
				<g>
					<path d="M226.925,30H29.075C20.9,30,14.25,36.65,14.25,44.825v141.35C14.25,194.35,20.9,201,29.075,201h197.85
						c8.175,0,14.825-6.65,14.825-14.825V44.825C241.75,36.65,235.1,30,226.925,30z M236.75,186.175
						c0,5.418-4.407,9.825-9.825,9.825H29.075c-5.417,0-9.825-4.407-9.825-9.825V44.825c0-5.418,4.408-9.825,9.825-9.825h197.85
						c5.418,0,9.825,4.407,9.825,9.825V186.175z"/>
				</g>
			</g>
		</g>
		<g>
			<g>
				<g>
					<path d="M226.925,42H29.075c-1.531,0-2.825,1.294-2.825,2.825v141.35c0,1.531,1.294,2.825,2.825,2.825h197.85
						c1.531,0,2.825-1.294,2.825-2.825V44.825C229.75,43.294,228.456,42,226.925,42z M224.75,184H31.25V47h193.5V184z"/>
				</g>
			</g>
		</g>
		<g>
			<g>
				<g>
					<path d="M146.719,196H134c-1.381,0-2.5,1.119-2.5,2.5v11c0,1.93-1.57,3.5-3.5,3.5s-3.5-1.57-3.5-3.5v-11
						c0-1.381-1.119-2.5-2.5-2.5h-12.719c-1.381,0-2.5,1.119-2.5,2.5v29.041c0,0.724,0.313,1.411,0.859,1.886
						c0.458,0.398,1.042,0.614,1.641,0.614c0.115,0,0.23-0.008,0.345-0.023c6.159-0.858,12.34-1.293,18.374-1.293
						c6.033,0,12.215,0.435,18.374,1.293c0.721,0.098,1.441-0.116,1.986-0.591s0.858-1.162,0.858-1.886V198.5
						C149.219,197.119,148.1,196,146.719,196z M144.219,224.698c-5.442-0.646-10.886-0.974-16.219-0.974
						c-5.334,0-10.777,0.327-16.219,0.974V201h7.719v8.5c0,4.687,3.813,8.5,8.5,8.5c4.687,0,8.5-3.813,8.5-8.5V201h7.719V224.698z"
						/>
				</g>
			</g>
		</g>
		<g>
			<g>
				<path class="st6" d="M30.206,225.1h-2.4v-2.3c0-1.8-1.4-3.2-3.2-3.2c-1.7,0-3.2,1.4-3.2,3.1v2.4h-2.3c-1.8,0-3.2,1.4-3.2,3.2
					c-0.1,1.7,1.3,3.2,3.2,3.2h2.3v2.3c0,1.8,1.4,3.2,3.2,3.2c1.7,0,3.2-1.4,3.2-3.1v-2.4h2.3c1.8,0,3.2-1.4,3.2-3.2
					C33.306,226.6,31.906,225.1,30.206,225.1z"/>
			</g>
		</g>
		<g>
			<g>
				<path class="st9" d="M137.506,0c-1.878,0-3.4,1.522-3.4,3.4c0,1.878,1.522,3.4,3.4,3.4c1.878,0,3.4-1.522,3.4-3.4
					C140.906,1.522,139.384,0,137.506,0z"/>
			</g>
		</g>
		<g>
			<g>
				<path class="st4" d="M38.506,249.2c-1.878,0-3.4,1.522-3.4,3.4c0,1.878,1.522,3.4,3.4,3.4c1.878,0,3.4-1.522,3.4-3.4
					C41.906,250.722,40.384,249.2,38.506,249.2z"/>
			</g>
		</g>
		<g>
			<g>
				<path class="st5" d="M227.288,213.2c-3.1-0.6-5.6-3-6.2-6.1c0-0.1-0.3-0.1-0.3,0c-0.6,3.1-3.1,5.5-6.2,6.1c-0.1,0-0.1,0.2,0,0.3
					c3.1,0.6,5.6,3,6.2,6.1c0,0.1,0.3,0.1,0.3,0c0.6-3.1,3.1-5.5,6.2-6.1C227.388,213.4,227.388,213.2,227.288,213.2z"/>
			</g>
		</g>
		<g>
			<g>
				<path class="st6" d="M186.288,13.2c-4.5-0.8-8-4.3-8.9-8.7c0-0.2-0.4-0.2-0.4,0c-0.9,4.4-4.4,7.9-8.9,8.7c-0.2,0-0.2,0.3,0,0.4
					c4.5,0.8,8,4.3,8.9,8.7c0,0.2,0.4,0.2,0.4,0c0.9-4.4,4.4-7.9,8.9-8.7C186.488,13.5,186.488,13.2,186.288,13.2z"/>
			</g>
		</g>
		<g>
			<g>
				<g>
					<path d="M227.25,53.435H28.75c-1.381,0-2.5,1.119-2.5,2.5v21.131c0,1.381,1.119,2.5,2.5,2.5h198.5c1.381,0,2.5-1.119,2.5-2.5
						V55.935C229.75,54.554,228.631,53.435,227.25,53.435z M224.75,74.565H31.25V58.435h193.5V74.565z"/>
				</g>
			</g>
		</g>
		<g>
			<g>
				<path d="M57.127,75.184L32.954,54.053c-1.04-0.911-2.62-0.804-3.528,0.236c-0.909,1.04-0.803,2.619,0.237,3.527l24.173,21.131
					c0.474,0.415,1.061,0.618,1.645,0.618c0.696,0,1.389-0.289,1.883-0.854C58.272,77.671,58.167,76.092,57.127,75.184z"/>
			</g>
		</g>
		<g>
			<g>
				<path d="M57.364,54.289c-0.908-1.039-2.488-1.146-3.528-0.236L29.663,75.184c-1.04,0.908-1.146,2.487-0.237,3.527
					c0.494,0.565,1.187,0.854,1.883,0.854c0.584,0,1.17-0.203,1.645-0.618l24.173-21.131C58.167,56.908,58.272,55.329,57.364,54.289
					z"/>
			</g>
		</g>
		<g>
			<g>
				<path d="M81.3,75.184L57.127,54.053c-1.04-0.911-2.62-0.804-3.528,0.236c-0.909,1.04-0.803,2.619,0.237,3.527l24.173,21.131
					c0.474,0.415,1.061,0.618,1.645,0.618c0.696,0,1.389-0.289,1.883-0.854C82.445,77.671,82.339,76.092,81.3,75.184z"/>
			</g>
		</g>
		<g>
			<g>
				<path d="M81.537,54.289c-0.909-1.039-2.489-1.146-3.528-0.236L53.836,75.184c-1.04,0.908-1.146,2.487-0.237,3.527
					c0.494,0.565,1.187,0.854,1.883,0.854c0.584,0,1.17-0.203,1.645-0.618L81.3,57.816C82.339,56.908,82.445,55.329,81.537,54.289z"
					/>
			</g>
		</g>
		<g>
			<g>
				<path d="M105.473,75.184L81.3,54.053c-1.04-0.911-2.619-0.804-3.528,0.236s-0.803,2.619,0.237,3.527l24.173,21.131
					c0.474,0.415,1.061,0.618,1.645,0.618c0.696,0,1.389-0.289,1.883-0.854C106.618,77.671,106.512,76.092,105.473,75.184z"/>
			</g>
		</g>
		<g>
			<g>
				<path d="M105.709,54.289c-0.908-1.039-2.488-1.146-3.528-0.236L78.009,75.184c-1.04,0.908-1.146,2.487-0.237,3.527
					c0.494,0.565,1.187,0.854,1.883,0.854c0.584,0,1.17-0.203,1.645-0.618l24.173-21.131
					C106.512,56.908,106.618,55.329,105.709,54.289z"/>
			</g>
		</g>
		<g>
			<g>
				<path d="M129.646,75.184l-24.173-21.131c-1.041-0.911-2.62-0.804-3.528,0.236c-0.909,1.04-0.803,2.619,0.237,3.527
					l24.173,21.131c0.474,0.415,1.061,0.618,1.645,0.618c0.696,0,1.389-0.289,1.883-0.854
					C130.791,77.671,130.685,76.092,129.646,75.184z"/>
			</g>
		</g>
		<g>
			<g>
				<path d="M129.882,54.289c-0.909-1.039-2.487-1.146-3.527-0.236l-24.173,21.131c-1.04,0.908-1.146,2.487-0.237,3.527
					c0.494,0.565,1.187,0.854,1.883,0.854c0.584,0,1.17-0.203,1.645-0.618l24.173-21.131
					C130.685,56.908,130.791,55.329,129.882,54.289z"/>
			</g>
		</g>
		<g>
			<g>
				<path d="M153.818,75.184l-24.173-21.131c-1.041-0.911-2.62-0.804-3.528,0.236c-0.909,1.04-0.803,2.619,0.237,3.527
					l24.173,21.131c0.475,0.415,1.061,0.618,1.645,0.618c0.696,0,1.389-0.289,1.883-0.854
					C154.964,77.671,154.857,76.092,153.818,75.184z"/>
			</g>
		</g>
		<g>
			<g>
				<path d="M154.055,54.289c-0.908-1.039-2.487-1.146-3.527-0.236l-24.173,21.131c-1.04,0.908-1.146,2.487-0.237,3.527
					c0.494,0.565,1.187,0.854,1.883,0.854c0.584,0,1.17-0.203,1.645-0.618l24.173-21.131
					C154.857,56.908,154.964,55.329,154.055,54.289z"/>
			</g>
		</g>
		<g>
			<g>
				<path d="M177.991,75.184l-24.173-21.131c-1.041-0.911-2.619-0.804-3.527,0.236c-0.909,1.04-0.803,2.619,0.236,3.527
					L174.7,78.947c0.475,0.415,1.061,0.618,1.645,0.618c0.696,0,1.389-0.289,1.883-0.854
					C179.137,77.671,179.03,76.092,177.991,75.184z"/>
			</g>
		</g>
		<g>
			<g>
				<path d="M178.228,54.289c-0.908-1.039-2.487-1.146-3.527-0.236l-24.173,21.131c-1.039,0.908-1.146,2.487-0.236,3.527
					c0.494,0.565,1.187,0.854,1.883,0.854c0.584,0,1.17-0.203,1.645-0.618l24.173-21.131
					C179.03,56.908,179.137,55.329,178.228,54.289z"/>
			</g>
		</g>
		<g>
			<g>
				<path d="M202.164,75.184l-24.173-21.131c-1.041-0.911-2.618-0.804-3.527,0.236s-0.803,2.619,0.236,3.527l24.173,21.131
					c0.475,0.415,1.061,0.618,1.645,0.618c0.696,0,1.389-0.289,1.883-0.854C203.31,77.671,203.203,76.092,202.164,75.184z"/>
			</g>
		</g>
		<g>
			<g>
				<path d="M202.4,54.289c-0.909-1.039-2.486-1.146-3.527-0.236L174.7,75.184c-1.039,0.908-1.146,2.487-0.236,3.527
					c0.494,0.565,1.187,0.854,1.883,0.854c0.584,0,1.17-0.203,1.645-0.618l24.173-21.131C203.203,56.908,203.31,55.329,202.4,54.289
					z"/>
			</g>
		</g>
		<g>
			<g>
				<path d="M226.337,75.184l-24.173-21.131c-1.041-0.911-2.619-0.804-3.527,0.236c-0.909,1.04-0.803,2.619,0.236,3.527
					l24.173,21.131c0.475,0.415,1.061,0.618,1.645,0.618c0.696,0,1.389-0.289,1.883-0.854
					C227.482,77.671,227.376,76.092,226.337,75.184z"/>
			</g>
		</g>
		<g>
			<g>
				<path d="M226.573,54.289c-0.909-1.039-2.487-1.146-3.527-0.236l-24.173,21.131c-1.039,0.908-1.146,2.487-0.236,3.527
					c0.494,0.565,1.187,0.854,1.883,0.854c0.584,0,1.17-0.203,1.645-0.618l24.173-21.131
					C227.376,56.908,227.482,55.329,226.573,54.289z"/>
			</g>
		</g>
		<g>
			<g>
				<path d="M47.25,146h-1c-1.381,0-2.5,1.119-2.5,2.5s1.119,2.5,2.5,2.5h1c1.381,0,2.5-1.119,2.5-2.5S48.631,146,47.25,146z"/>
			</g>
		</g>
		<g>
			<g>
				<path d="M209.75,146h-1c-1.381,0-2.5,1.119-2.5,2.5s1.119,2.5,2.5,2.5h1c1.381,0,2.5-1.119,2.5-2.5S211.131,146,209.75,146z"/>
			</g>
		</g>
		<g>
			<g>
				<path d="M101.035,98.962c-1.381,0-2.5,1.119-2.5,2.5v32.8c0,1.381,1.119,2.5,2.5,2.5s2.5-1.119,2.5-2.5v-32.8
					C103.535,100.081,102.416,98.962,101.035,98.962z"/>
			</g>
		</g>
		<g>
			<g>
				<path d="M130.783,90.325c-1.381,0-2.5,1.119-2.5,2.5v32.8c0,1.381,1.119,2.5,2.5,2.5s2.5-1.119,2.5-2.5v-32.8
					C133.283,91.444,132.164,90.325,130.783,90.325z"/>
			</g>
		</g>
		<g>
			<g>
				<path d="M153.708,105.914c-1.381,0-2.5,1.119-2.5,2.5v32.8c0,1.381,1.119,2.5,2.5,2.5s2.5-1.119,2.5-2.5v-32.8
					C156.208,107.033,155.089,105.914,153.708,105.914z"/>
			</g>
		</g>
		<g>
			<g>
				<path d="M172.978,111.43c-1.316,0-2.56-0.64-3.325-1.711c-1.702-2.383-4.466-3.805-7.394-3.805h-8.551
					c-1.381,0-2.5,1.119-2.5,2.5s1.119,2.5,2.5,2.5h8.551c1.316,0,2.56,0.64,3.325,1.711c1.702,2.383,4.466,3.805,7.394,3.805
					c1.381,0,2.5-1.119,2.5-2.5S174.358,111.43,172.978,111.43z"/>
			</g>
		</g>
		<g>
			<g>
				<g>
					<path d="M227.25,166.463H28.75c-1.381,0-2.5,1.119-2.5,2.5v17.212c0,1.531,1.294,2.825,2.825,2.825h197.85
						c1.531,0,2.825-1.294,2.825-2.825v-17.212C229.75,167.582,228.631,166.463,227.25,166.463z M224.75,184H31.25v-12.537h193.5
						V184z"/>
				</g>
			</g>
		</g>
		<g>
			<g>
				<g>
					<path d="M61.496,104H28.75c-1.381,0-2.5,1.119-2.5,2.5v62.463c0,1.381,1.119,2.5,2.5,2.5h36c1.381,0,2.5-1.119,2.5-2.5v-59.209
						C67.25,106.581,64.669,104,61.496,104z M62.25,166.463h-31V109h30.246c0.416,0,0.754,0.338,0.754,0.754V166.463z"/>
				</g>
			</g>
		</g>
		<g>
			<g>
				<g>
					<path d="M227.25,104h-32.746c-3.173,0-5.754,2.581-5.754,5.754v59.209c0,1.381,1.119,2.5,2.5,2.5h36c1.381,0,2.5-1.119,2.5-2.5
						V106.5C229.75,105.119,228.631,104,227.25,104z M224.75,166.463h-31v-56.709c0-0.416,0.338-0.754,0.754-0.754h30.246V166.463z"
						/>
				</g>
			</g>
		</g>
		<g>
			<g>
				<g>
					<path d="M46.75,115c-4.687,0-8.5,3.813-8.5,8.5s3.813,8.5,8.5,8.5s8.5-3.813,8.5-8.5S51.437,115,46.75,115z M46.75,127
						c-1.93,0-3.5-1.57-3.5-3.5s1.57-3.5,3.5-3.5s3.5,1.57,3.5,3.5S48.68,127,46.75,127z"/>
				</g>
			</g>
		</g>
		<g>
			<g>
				<g>
					<path d="M46.75,136c-6.893,0-12.5,5.607-12.5,12.5s5.607,12.5,12.5,12.5s12.5-5.607,12.5-12.5S53.643,136,46.75,136z
						 M46.75,156c-4.136,0-7.5-3.364-7.5-7.5s3.364-7.5,7.5-7.5s7.5,3.364,7.5,7.5S50.886,156,46.75,156z"/>
				</g>
			</g>
		</g>
		<g>
			<g>
				<g>
					<path d="M209.25,115c-4.687,0-8.5,3.813-8.5,8.5s3.813,8.5,8.5,8.5s8.5-3.813,8.5-8.5S213.937,115,209.25,115z M209.25,127
						c-1.93,0-3.5-1.57-3.5-3.5s1.57-3.5,3.5-3.5s3.5,1.57,3.5,3.5S211.18,127,209.25,127z"/>
				</g>
			</g>
		</g>
		<g>
			<g>
				<g>
					<path d="M209.25,136c-6.893,0-12.5,5.607-12.5,12.5s5.607,12.5,12.5,12.5s12.5-5.607,12.5-12.5S216.143,136,209.25,136z
						 M209.25,156c-4.136,0-7.5-3.364-7.5-7.5s3.364-7.5,7.5-7.5s7.5,3.364,7.5,7.5S213.386,156,209.25,156z"/>
				</g>
			</g>
		</g>
		<g>
			<g>
				<g>
					<path d="M103.259,132.465c-0.711-2.433-2.76-4.342-5.621-5.238c-2.545-0.796-5.561-0.763-8.49,0.093
						c-6.512,1.904-10.516,7.148-9.115,11.939c1.065,3.64,4.901,5.818,9.54,5.818c1.464,0,3.01-0.217,4.572-0.674
						C100.656,142.499,104.66,137.255,103.259,132.465z M92.74,139.604c-3.898,1.142-7.392,0.018-7.909-1.75
						c-0.517-1.767,1.819-4.596,5.72-5.736c1.057-0.309,2.135-0.465,3.154-0.465c0.874,0,1.704,0.115,2.438,0.345
						c0.728,0.229,1.996,0.774,2.317,1.871C98.977,135.636,96.64,138.464,92.74,139.604z"/>
				</g>
			</g>
		</g>
		<g>
			<g>
				<g>
					<path d="M133.007,123.828c-0.712-2.433-2.761-4.342-5.621-5.238c-2.546-0.797-5.561-0.764-8.49,0.093
						c-6.512,1.904-10.516,7.149-9.115,11.939c1.064,3.64,4.9,5.819,9.54,5.819c1.464,0,3.01-0.218,4.572-0.675
						C130.404,133.862,134.407,128.618,133.007,123.828z M122.489,130.968c-1.963,0.575-4.001,0.62-5.593,0.12
						c-0.728-0.228-1.996-0.773-2.316-1.87c-0.517-1.767,1.82-4.596,5.72-5.736c1.057-0.309,2.135-0.465,3.154-0.465
						c0.874,0,1.704,0.115,2.438,0.345c0.728,0.229,1.996,0.774,2.317,1.871C128.725,126.999,126.389,129.827,122.489,130.968z"/>
				</g>
			</g>
		</g>
		<g>
			<g>
				<g>
					<path d="M155.932,139.417c-1.4-4.79-7.602-7.049-14.112-5.146c-2.929,0.856-5.486,2.454-7.201,4.497
						c-1.928,2.296-2.625,5.009-1.913,7.441c1.064,3.641,4.901,5.819,9.54,5.819c1.465,0,3.01-0.217,4.572-0.674
						C153.329,149.451,157.332,144.207,155.932,139.417z M145.413,146.557c-1.964,0.573-4,0.617-5.593,0.12
						c-0.728-0.229-1.996-0.774-2.316-1.871c-0.32-1.096,0.454-2.239,0.944-2.823c1.071-1.276,2.812-2.338,4.775-2.912
						c1.057-0.309,2.135-0.465,3.153-0.465c0.874,0,1.704,0.115,2.439,0.345c0.728,0.229,1.996,0.774,2.316,1.871
						C151.649,142.588,149.313,145.416,145.413,146.557z"/>
				</g>
			</g>
		</g>
		<g>
			<g>
				<g>
					<path d="M132.284,90.826c-0.629-0.473-1.443-0.624-2.198-0.401l-29.749,8.637c-1.068,0.31-1.803,1.288-1.803,2.4v10.59
						c0,0.786,0.37,1.526,0.999,1.999c0.438,0.329,0.966,0.501,1.501,0.501c0.233,0,0.468-0.032,0.697-0.099l29.749-8.636
						c1.068-0.311,1.803-1.289,1.803-2.401V92.825C133.283,92.039,132.913,91.298,132.284,90.826z M128.283,101.538l-24.749,7.185
						v-5.384l24.749-7.185V101.538z"/>
				</g>
			</g>
		</g>
	</g>
</g>
<g id="Layer_64">
</g>
<g id="Layer_65">
</g>
<g id="Layer_66">
</g>
<g id="Layer_67">
</g>
<g id="Layer_68">
</g>
<g id="Layer_69">
</g>
<g id="Layer_70">
</g>
<g id="Layer_71">
</g>
<g id="Layer_72">
</g>
<g id="Layer_73">
</g>
<g id="Layer_74">
</g>
<g id="Layer_75">
</g>
<g id="Layer_76">
</g>
<g id="Layer_77">
</g>
<g id="Layer_78">
</g>
<g id="Layer_79">
</g>
<g id="Layer_80">
</g>
</svg>
