<?xml version="1.0" encoding="utf-8"?>
<!-- Generator: Adobe Illustrator 24.0.0, SVG Export Plug-In . SVG Version: 6.00 Build 0)  -->
<svg version="1.1" xmlns="http://www.w3.org/2000/svg" xmlns:xlink="http://www.w3.org/1999/xlink" x="0px" y="0px"
	 viewBox="0 0 256 256" style="enable-background:new 0 0 256 256;" xml:space="preserve">
<style type="text/css">
	.st0{fill:#6CADEF;}
	.st1{fill:#F9D0B4;}
	.st2{fill:#5B5D60;}
	.st3{fill:#9BE5F9;}
	.st4{fill:#FC657E;}
	.st5{fill:#70D6F9;}
	.st6{fill:#F5C84C;}
	.st7{fill:#F98FA6;}
	.st8{fill:#FED690;}
	.st9{fill:#87D147;}
	.st10{fill:#B2E26D;}
	.st11{fill:#EDF4FC;}
	.st12{fill:#FCDD86;}
	.st13{fill:#754E34;}
	.st14{fill:#B598F9;}
	.st15{fill:#5290DB;}
	.st16{fill:#C7D7E5;}
	.st17{fill:#C18E6B;}
	.st18{fill:#DAE6F1;}
	.st19{fill:#3CAADC;}
	.st20{fill:#818182;}
	.st21{fill:#CBEFF7;}
	.st22{fill:#FCA265;}
	.st23{fill:#A57453;}
	.st24{fill:#8652D8;}
	.st25{fill:#966AEA;}
	.st26{fill:#FEB872;}
	.st27{fill:#EDB311;}
	.st28{fill:#EF4460;}
</style>
<g id="Layer_1">
</g>
<g id="Layer_2">
</g>
<g id="Layer_3">
</g>
<g id="Layer_4">
</g>
<g id="Layer_5">
</g>
<g id="Layer_6">
</g>
<g id="Layer_7">
</g>
<g id="Layer_8">
</g>
<g id="Layer_9">
</g>
<g id="Layer_10">
</g>
<g id="Layer_11">
</g>
<g id="Layer_12">
</g>
<g id="Layer_13">
</g>
<g id="Layer_14">
</g>
<g id="Layer_15">
</g>
<g id="Layer_16">
</g>
<g id="Layer_17">
</g>
<g id="Layer_18">
</g>
<g id="Layer_19">
</g>
<g id="Layer_20">
</g>
<g id="Layer_21">
</g>
<g id="Layer_22">
</g>
<g id="Layer_23">
</g>
<g id="Layer_24">
</g>
<g id="Layer_25">
</g>
<g id="Layer_26">
</g>
<g id="Layer_27">
</g>
<g id="Layer_28">
</g>
<g id="Layer_29">
</g>
<g id="Layer_30">
</g>
<g id="Layer_31">
</g>
<g id="Layer_32">
</g>
<g id="Layer_33">
</g>
<g id="Layer_34">
</g>
<g id="Layer_35">
</g>
<g id="Layer_36">
</g>
<g id="Layer_37">
</g>
<g id="Layer_38">
</g>
<g id="Layer_39">
</g>
<g id="Layer_40">
</g>
<g id="Layer_41">
</g>
<g id="Layer_42">
</g>
<g id="Layer_43">
</g>
<g id="Layer_44">
</g>
<g id="Layer_45">
	<g>
		<g>
			<g>
				<path class="st14" d="M245.459,47.1H143.541c-4.423,0-8.041,3.618-8.041,8.041v147.918c0,4.422,3.618,8.041,8.041,8.041h101.918
					c4.423,0,8.041-3.619,8.041-8.041V55.141C253.5,50.719,249.882,47.1,245.459,47.1z"/>
			</g>
		</g>
		<g>
			<g>
				<path class="st5" d="M112.459,47.1H10.541c-4.423,0-8.041,3.618-8.041,8.041v147.918c0,4.422,3.618,8.041,8.041,8.041h101.918
					c4.423,0,8.041-3.619,8.041-8.041V55.141C120.5,50.719,116.882,47.1,112.459,47.1z"/>
			</g>
		</g>
		<g>
			<g>
				<path class="st0" d="M112.459,47.1H10.541c-4.423,0-8.041,3.618-8.041,8.041V61.1h118v-5.959
					C120.5,50.718,116.882,47.1,112.459,47.1z"/>
			</g>
		</g>
		<g>
			<g>
				<path class="st0" d="M245.459,47.1H143.541c-4.423,0-8.041,3.618-8.041,8.041V61.1h118v-5.959
					C253.5,50.718,249.882,47.1,245.459,47.1z"/>
			</g>
		</g>
		<g>
			<g>
				<path class="st3" d="M249.527,193.538c-0.265-4.751-3.588-8.777-8.202-9.939l-5.27-1.33c-0.494-0.125-13.042-3.292-13.689-3.455
					c-1.584-0.399-3.122-0.964-4.587-1.687l-6.556-3.232c-2.518-1.241-4.112-3.805-4.112-6.612v-8.041
					c-3.756,2.047-8.055,3.213-12.612,3.213s-8.856-1.165-12.612-3.213v8.041c0,2.807-1.594,5.371-4.112,6.612l-6.555,3.232
					c-1.465,0.722-3.003,1.288-4.587,1.687c-0.094,0.023-13.602,3.434-13.688,3.455l-5.27,1.33
					c-4.614,1.162-7.937,5.188-8.202,9.939l-0.584,16.061c1.316,0.941,2.92,1.501,4.652,1.501h101.918
					c1.732,0,3.336-0.561,4.652-1.501L249.527,193.538z"/>
			</g>
		</g>
		<g>
			<g>
				<path class="st18" d="M73.721,195.572c-0.701,0.701-1.837,0.701-2.538,0l-5.514-5.514c-0.701-0.701-0.701-1.837,0-2.538
					l10.882-10.882c-1.234-1.664-1.939-3.706-1.939-5.857v-4.631c-3.93,2.057-8.389,3.229-13.111,3.229s-9.181-1.172-13.111-3.229
					v4.631c0,2.151-0.705,4.193-1.94,5.857l10.882,10.882c0.701,0.701,0.701,1.837,0,2.538l-5.514,5.514
					c-0.701,0.701-1.837,0.701-2.538,0l-8.802-8.802l2.41,24.33h37.226l2.41-24.33L73.721,195.572z"/>
			</g>
		</g>
		<g>
			<g>
				<path class="st15" d="M118.424,200.392c-0.327-5.757-3.98-10.796-9.35-12.897l-22.567-8.831
					c-1.537-0.602-3.224,0.431-3.386,2.074L80.113,211.1h32.346c2.603,0,4.92-1.259,6.392-3.191L118.424,200.392z"/>
			</g>
		</g>
		<g>
			<g>
				<path class="st15" d="M39.879,180.738c-0.163-1.643-1.849-2.676-3.386-2.074l-22.567,8.831c-5.37,2.101-9.023,7.14-9.35,12.897
					l-0.427,7.517c1.472,1.933,3.789,3.191,6.392,3.191h32.346L39.879,180.738z"/>
			</g>
		</g>
		<g>
			<g>
				<path class="st1" d="M74.611,170.781v-4.631c-3.93,2.057-8.389,3.229-13.111,3.229s-9.181-1.172-13.111-3.229v4.631
					c0,2.151-0.705,4.193-1.94,5.857l10.882,10.882c0.327,0.327,0.495,0.749,0.517,1.177h7.304c0.022-0.428,0.19-0.85,0.517-1.177
					l10.882-10.882C75.316,174.974,74.611,172.932,74.611,170.781z"/>
			</g>
		</g>
		<g>
			<g>
				<path class="st11" d="M57.331,187.52l-12.062-12.062c-0.701-0.701-1.837-0.701-2.538,0l-3.676,3.677
					c0.445,0.396,0.76,0.948,0.825,1.604l0.597,6.032l8.802,8.802c0.701,0.701,1.837,0.701,2.538,0l5.514-5.514
					C58.032,189.357,58.032,188.22,57.331,187.52z"/>
			</g>
		</g>
		<g>
			<g>
				<path class="st11" d="M80.269,175.457c-0.701-0.701-1.837-0.701-2.538,0L65.669,187.52c-0.701,0.701-0.701,1.837,0,2.538
					l5.514,5.514c0.701,0.701,1.837,0.701,2.538,0l8.802-8.802l0.597-6.032c0.065-0.657,0.38-1.208,0.825-1.604L80.269,175.457z"/>
			</g>
		</g>
		<g>
			<g>
				<polygon class="st4" points="65.634,200.942 57.366,200.942 56.284,211.1 66.716,211.1 				"/>
			</g>
		</g>
		<g>
			<g>
				<path class="st4" d="M65.669,190.058c-0.374-0.374-0.542-0.871-0.517-1.361h-7.304c0.025,0.49-0.143,0.987-0.517,1.361
					l-3.727,3.727l3.762,7.158h8.267l3.762-7.158L65.669,190.058z"/>
			</g>
		</g>
		<g>
			<g>
				<path class="st11" d="M190.321,180.846l-10.589-8.376c-0.564,0.567-1.214,1.059-1.955,1.424l-6.555,3.232
					c-1.465,0.722-3.003,1.288-4.587,1.687c-0.034,0.009-1.874,0.473-4.192,1.058l9.77,9.994c5.332,5.454,14.471,3.896,17.695-3.016
					l1.218-2.611C191.675,183.058,191.342,181.655,190.321,180.846z"/>
			</g>
		</g>
		<g>
			<g>
				<path class="st11" d="M222.366,178.813c-1.584-0.399-3.122-0.964-4.587-1.687l-6.556-3.232
					c-0.742-0.366-1.391-0.857-1.955-1.424l-10.589,8.376c-1.021,0.808-1.354,2.212-0.803,3.393l1.218,2.611
					c3.224,6.912,12.364,8.47,17.695,3.016l9.769-9.994C224.367,179.318,222.599,178.872,222.366,178.813z"/>
			</g>
		</g>
		<g>
			<g>
				<path class="st1" d="M207.112,167.283v-8.041c-3.756,2.047-8.055,3.213-12.612,3.213s-8.856-1.165-12.612-3.213v8.041
					c0,1.98-0.805,3.828-2.156,5.187h0l10.589,8.376c0.933,0.738,1.282,1.971,0.919,3.078h6.521
					c-0.364-1.107-0.014-2.34,0.919-3.078l10.589-8.376C207.917,171.111,207.112,169.263,207.112,167.283z"/>
			</g>
		</g>
		<g>
			<g>
				<path class="st16" d="M199.094,186.85l-1.218-2.611c-0.048-0.103-0.081-0.209-0.115-0.315v0h-6.521v0
					c-0.035,0.106-0.067,0.212-0.115,0.315l-1.218,2.611c-2.397,5.139-8.061,7.311-13.002,5.85v18.4h35.191v-18.4
					C207.155,194.16,201.491,191.988,199.094,186.85z"/>
			</g>
		</g>
		<g>
			<g>
				<path class="st1" d="M222.717,115.731c-0.579,0-1.147,0.049-1.702,0.135v20.073c0,0.598-0.027,1.19-0.067,1.778
					c0.577,0.093,1.165,0.154,1.768,0.154c6.114,0,11.07-4.956,11.07-11.07S228.831,115.731,222.717,115.731z"/>
			</g>
		</g>
		<g>
			<g>
				<path class="st1" d="M219.385,112.498c-2.683-0.622-5.941-2.176-9.675-5.569c-0.739-0.671-1.877-0.616-2.527,0.142
					c-4.038,4.714-18.358,19.014-39.198,13.078v15.791c0,14.583,11.932,26.515,26.515,26.515s26.515-11.932,26.515-26.515v-21.422
					C221.015,113.543,220.333,112.717,219.385,112.498z"/>
			</g>
		</g>
		<g>
			<g>
				<path class="st1" d="M167.985,135.939v-15.791c-1.821-0.519-3.691-1.19-5.608-2.037c-1.236-0.546-2.681-0.295-3.667,0.63
					c-2.151,2.017-3.497,4.878-3.497,8.06c0,6.114,4.957,11.07,11.07,11.07c0.604,0,1.191-0.062,1.768-0.154
					C168.012,137.129,167.985,136.537,167.985,135.939z"/>
			</g>
		</g>
		<g>
			<g>
				<path class="st8" d="M231.64,152.735c5.064-7.943,2.673-15.676,0.438-20.043c-1.96,3.109-5.415,5.18-9.362,5.18
					c-0.603,0-1.191-0.062-1.768-0.154c-0.623,9.277-6.066,17.289-13.837,21.524v8.041c0,2.574,1.351,4.93,3.515,6.263
					c0.867,0.534-0.233-0.093,7.152,3.581c0.994,0.49,2.306,1.009,3.318,1.326c0.201,0.063,0.404,0.118,0.606,0.175
					c3.902-1.428,7.345-3.695,9.575-7.226c4.089-6.474,1.703-12.746,0.198-15.554C230.947,154.861,231.038,153.678,231.64,152.735z"
					/>
			</g>
		</g>
		<g>
			<g>
				<path class="st8" d="M168.051,137.717c-0.577,0.093-1.165,0.154-1.768,0.154c-3.947,0-7.401-2.072-9.362-5.18
					c-2.234,4.368-4.626,12.101,0.439,20.044c0.602,0.943,0.693,2.126,0.164,3.113c-1.505,2.808-3.891,9.08,0.198,15.554
					c2.23,3.531,5.673,5.798,9.575,7.226c0.202-0.057,0.406-0.112,0.606-0.175c1.011-0.317,2.324-0.836,3.318-1.326
					c7.865-3.913,6.35-3.087,7.152-3.581c2.164-1.333,3.515-3.689,3.515-6.263v-8.041
					C174.117,155.007,168.674,146.995,168.051,137.717z"/>
			</g>
		</g>
		<g>
			<g>
				<path class="st1" d="M85.893,106.882c-1.861-1.952-4.886-2.131-7.008-0.466c-3.354,2.632-9.157,5.886-17.354,5.886
					c-8.217,0-14.051-3.27-17.419-5.906c-2.119-1.659-5.139-1.473-6.996,0.475l-0.01,0.01c-2.61,2.737-4.066,6.373-4.066,10.155
					v23.884c0,15.652,12.806,28.458,28.459,28.458c15.652,0,28.459-12.806,28.459-28.458v-23.884
					C89.959,113.254,88.503,109.618,85.893,106.882z"/>
			</g>
		</g>
		<g>
			<g>
				<path class="st1" d="M91.785,119.231c-0.622,0-1.231,0.052-1.826,0.145v21.544c0,0.642-0.029,1.277-0.072,1.908
					c0.62,0.1,1.25,0.166,1.898,0.166c6.562,0,11.882-5.32,11.882-11.882C103.667,124.55,98.347,119.231,91.785,119.231z"/>
			</g>
		</g>
		<g>
			<g>
				<path class="st1" d="M33.041,140.92v-21.544c-0.596-0.092-1.204-0.145-1.826-0.145c-6.562,0-11.882,5.32-11.882,11.882
					c0,6.562,5.32,11.882,11.882,11.882c0.648,0,1.278-0.066,1.898-0.166v0C33.071,142.196,33.041,141.562,33.041,140.92z"/>
			</g>
		</g>
		<g>
			<g>
				<path class="st8" d="M228.687,101.1H215.5V83.25c-5.925-4.273-13.179-6.805-21-6.805c-19.831,0-36.056,16.226-36.056,36.056
					v6.516c0.09-0.09,0.173-0.188,0.266-0.275c0.986-0.925,2.43-1.176,3.667-0.63c1.917,0.847,3.787,1.518,5.608,2.037
					c20.84,5.936,35.16-8.365,39.198-13.078c0.649-0.758,1.788-0.813,2.527-0.142c3.734,3.393,6.992,4.947,9.675,5.569
					c0.949,0.22,1.631,1.045,1.631,2.02v1.349c0.555-0.086,1.122-0.135,1.702-0.135c3.063,0,5.835,1.245,7.839,3.255v-6.485
					C230.556,108.52,229.892,104.688,228.687,101.1z"/>
			</g>
		</g>
		<g>
			<g>
				<path class="st2" d="M96.557,101.1H82.5V81.429c-6.773-5.324-18.8-5.957-30.801-3.884c-15.29,2.64-26.465,15.899-26.465,31.416
					v11.897c1.758-1.028,3.797-1.626,5.981-1.626c0.622,0,1.231,0.052,1.826,0.145v-2.339c0-3.782,1.456-7.418,4.066-10.155
					l0.01-0.01c1.857-1.947,4.877-2.133,6.996-0.475c3.368,2.636,9.202,5.906,17.419,5.906c8.197,0,14-3.254,17.354-5.887
					c2.121-1.665,5.147-1.485,7.008,0.466c2.61,2.737,4.066,6.373,4.066,10.155v2.339c0.596-0.092,1.205-0.145,1.826-0.145
					c2.21,0,4.271,0.614,6.044,1.665v-9.769C97.829,106.699,97.33,103.461,96.557,101.1z"/>
			</g>
		</g>
		<g>
			<g>
				<rect x="82.5" y="61.1" class="st14" width="38" height="40"/>
			</g>
		</g>
		<g>
			<g>
				<rect x="215.5" y="61.1" class="st5" width="38" height="40"/>
			</g>
		</g>
		<g>
			<g>
				<circle class="st1" cx="101.5" cy="77.388" r="7.643"/>
			</g>
		</g>
		<g>
			<g>
				<path class="st18" d="M108.033,89.402H94.967c-4.167,0-7.577,3.41-7.577,7.577v4.121h28.221v-4.121
					C115.61,92.812,112.201,89.402,108.033,89.402z"/>
			</g>
		</g>
		<g>
			<g>
				<circle class="st1" cx="234.5" cy="77.388" r="7.643"/>
			</g>
		</g>
		<g>
			<g>
				<path class="st15" d="M241.033,89.402h-13.066c-4.167,0-7.577,3.41-7.577,7.577v4.121h28.221v-4.121
					C248.61,92.812,245.201,89.402,241.033,89.402z"/>
			</g>
		</g>
		<g>
			<g>
				<path class="st5" d="M187.206,229.2h-2.4v-2.3c0-1.8-1.4-3.2-3.2-3.2c-1.7,0-3.2,1.4-3.2,3.1v2.4h-2.3c-1.8,0-3.2,1.4-3.2,3.2
					c-0.1,1.7,1.3,3.2,3.2,3.2h2.3v2.3c0,1.8,1.4,3.2,3.2,3.2c1.7,0,3.2-1.4,3.2-3.1v-2.4h2.3c1.8,0,3.2-1.4,3.2-3.2
					C190.306,230.7,188.906,229.2,187.206,229.2z"/>
			</g>
		</g>
		<g>
			<g>
				<path class="st6" d="M146.506,241.6c-1.878,0-3.4,1.522-3.4,3.4c0,1.878,1.522,3.4,3.4,3.4c1.878,0,3.4-1.522,3.4-3.4
					C149.906,243.122,148.384,241.6,146.506,241.6z"/>
			</g>
		</g>
		<g>
			<g>
				<path class="st9" d="M141.506,7.6c-1.878,0-3.4,1.522-3.4,3.4c0,1.878,1.522,3.4,3.4,3.4c1.878,0,3.4-1.522,3.4-3.4
					C144.906,9.122,143.384,7.6,141.506,7.6z"/>
			</g>
		</g>
		<g>
			<g>
				<path class="st4" d="M55.288,230.3c-3.1-0.6-5.6-3-6.2-6.1c0-0.1-0.3-0.1-0.3,0c-0.6,3.1-3.1,5.5-6.2,6.1c-0.1,0-0.1,0.2,0,0.3
					c3.1,0.6,5.6,3,6.2,6.1c0,0.1,0.3,0.1,0.3,0c0.6-3.1,3.1-5.5,6.2-6.1C55.388,230.5,55.388,230.3,55.288,230.3z"/>
			</g>
		</g>
		<g>
			<g>
				<path class="st6" d="M118.288,23.3c-4.5-0.8-8-4.3-8.9-8.7c0-0.2-0.4-0.2-0.4,0c-0.9,4.4-4.4,7.9-8.9,8.7c-0.2,0-0.2,0.3,0,0.4
					c4.5,0.8,8,4.3,8.9,8.7c0,0.2,0.4,0.2,0.4,0c0.9-4.4,4.4-7.9,8.9-8.7C118.488,23.6,118.488,23.3,118.288,23.3z"/>
			</g>
		</g>
		<g>
			<g>
				<g>
					<path d="M245.459,44.6H143.541C137.729,44.6,133,49.329,133,55.141v147.918c0,5.813,4.729,10.541,10.541,10.541h101.918
						c5.813,0,10.541-4.729,10.541-10.541V55.141C256,49.329,251.271,44.6,245.459,44.6z M251,203.059
						c0,3.055-2.485,5.541-5.541,5.541H143.541c-3.056,0-5.541-2.486-5.541-5.541V55.141c0-3.055,2.485-5.541,5.541-5.541h101.918
						c3.056,0,5.541,2.486,5.541,5.541V203.059z"/>
				</g>
			</g>
		</g>
		<g>
			<g>
				<path d="M194.5,195.281c-1.381,0-2.5,1.119-2.5,2.5v12.886c0,1.381,1.119,2.5,2.5,2.5s2.5-1.119,2.5-2.5v-12.886
					C197,196.4,195.881,195.281,194.5,195.281z"/>
			</g>
		</g>
		<g>
			<g>
				<path d="M203.804,143.552c-1.059-0.886-2.635-0.748-3.522,0.31c-1.262,1.505-3.423,2.404-5.781,2.404s-4.52-0.899-5.781-2.405
					c-0.886-1.057-2.464-1.197-3.521-0.31c-1.059,0.887-1.197,2.463-0.311,3.522c2.2,2.625,5.794,4.193,9.613,4.193
					s7.412-1.567,9.613-4.192C205,146.016,204.861,144.439,203.804,143.552z"/>
			</g>
		</g>
		<g>
			<g>
				<path d="M206.036,126.43c-1.897,0-3.435,1.538-3.435,3.436c0,1.897,1.538,3.435,3.435,3.435c1.897,0,3.436-1.538,3.436-3.435
					C209.471,127.968,207.933,126.43,206.036,126.43z"/>
			</g>
		</g>
		<g>
			<g>
				<path d="M182.964,126.43c-1.897,0-3.436,1.538-3.436,3.436c0,1.897,1.538,3.435,3.436,3.435s3.435-1.538,3.435-3.435
					C186.4,127.968,184.861,126.43,182.964,126.43z"/>
			</g>
		</g>
		<g>
			<g>
				<g>
					<path d="M112.459,44.6H10.541C4.729,44.6,0,49.329,0,55.141v147.918c0,5.813,4.729,10.541,10.541,10.541h101.918
						c5.813,0,10.541-4.729,10.541-10.541V55.141C123,49.329,118.271,44.6,112.459,44.6z M118,203.059
						c0,3.055-2.485,5.541-5.541,5.541H10.541C7.485,208.6,5,206.114,5,203.059V55.141c0-3.055,2.485-5.541,5.541-5.541h101.918
						c3.056,0,5.541,2.486,5.541,5.541V203.059z"/>
				</g>
			</g>
		</g>
		<g>
			<g>
				<path d="M71.229,146.52c-1.056-0.886-2.634-0.748-3.521,0.31c-1.265,1.509-3.431,2.41-5.794,2.41
					c-2.364,0-4.53-0.901-5.795-2.41c-0.886-1.057-2.464-1.196-3.521-0.31c-1.059,0.887-1.197,2.464-0.311,3.522
					c2.203,2.629,5.802,4.198,9.627,4.198c3.824,0,7.423-1.569,9.626-4.198C72.427,148.984,72.288,147.407,71.229,146.52z"/>
			</g>
		</g>
		<g>
			<g>
				<path d="M74.753,128.603c-2.112,0-3.824,1.712-3.824,3.823c0,2.112,1.712,3.823,3.824,3.823c2.112,0,3.823-1.712,3.823-3.823
					C78.576,130.314,76.865,128.603,74.753,128.603z"/>
			</g>
		</g>
		<g>
			<g>
				<path d="M49.075,128.603c-2.112,0-3.823,1.712-3.823,3.823c0,2.112,1.712,3.823,3.823,3.823c2.112,0,3.824-1.712,3.824-3.823
					C52.898,130.314,51.187,128.603,49.075,128.603z"/>
			</g>
		</g>
		<g>
			<g>
				<g>
					<path d="M112.459,44.6H10.541C4.729,44.6,0,49.329,0,55.141V61.1c0,1.381,1.119,2.5,2.5,2.5h118c1.381,0,2.5-1.119,2.5-2.5
						v-5.959C123,49.329,118.271,44.6,112.459,44.6z M118,58.6H5v-3.459c0-3.055,2.485-5.541,5.541-5.541h101.918
						c3.056,0,5.541,2.486,5.541,5.541V58.6z"/>
				</g>
			</g>
		</g>
		<g>
			<g>
				<g>
					<path d="M245.459,44.6H143.541C137.729,44.6,133,49.329,133,55.141V61.1c0,1.381,1.119,2.5,2.5,2.5h118
						c1.381,0,2.5-1.119,2.5-2.5v-5.959C256,49.329,251.271,44.6,245.459,44.6z M251,58.6H138v-3.459
						c0-3.055,2.485-5.541,5.541-5.541h101.918c3.056,0,5.541,2.486,5.541,5.541V58.6z"/>
				</g>
			</g>
		</g>
		<g>
			<g>
				<g>
					<path d="M252.024,193.447c0-0.016-0.001-0.032-0.002-0.048c-0.327-5.875-4.381-10.788-10.086-12.224l-18.96-4.786
						c-1.413-0.356-2.789-0.862-4.092-1.504l-6.556-3.232c-1.676-0.826-2.717-2.5-2.717-4.37v-8.041
						c0-0.882-0.465-1.699-1.224-2.149c-0.757-0.45-1.697-0.467-2.473-0.046c-3.491,1.903-7.438,2.908-11.416,2.908
						s-7.925-1.005-11.416-2.908c-0.773-0.421-1.715-0.404-2.473,0.046c-0.759,0.45-1.224,1.267-1.224,2.149v8.041
						c0,1.869-1.041,3.543-2.717,4.37l-6.557,3.232c-1.302,0.643-2.678,1.148-4.087,1.503c-0.094,0.023-13.615,3.437-13.693,3.457
						l-5.27,1.33c-5.706,1.437-9.76,6.349-10.089,12.272l-0.585,16.061c-0.031,0.838,0.361,1.637,1.044,2.125
						c1.801,1.288,3.913,1.968,6.106,1.968h101.918c2.193,0,4.306-0.68,6.106-1.968c0.683-0.488,1.075-1.286,1.044-2.125
						L252.024,193.447z M245.459,208.6H143.541c-0.726,0-1.436-0.144-2.099-0.421l0.527-14.501c0.205-3.679,2.743-6.754,6.316-7.654
						l5.276-1.331c0.177-0.045,13.513-3.412,13.682-3.454c1.755-0.442,3.465-1.071,5.082-1.869l6.556-3.232
						c3.396-1.674,5.506-5.067,5.506-8.854v-4.159c6.449,2.409,13.775,2.409,20.225,0v4.159c0,3.787,2.109,7.18,5.506,8.854
						l6.555,3.232c1.618,0.798,3.328,1.427,5.082,1.868l18.96,4.786c3.565,0.897,6.1,3.962,6.314,7.631l0.528,14.524
						C246.895,208.457,246.185,208.6,245.459,208.6z"/>
				</g>
			</g>
		</g>
		<g>
			<g>
				<g>
					<path d="M83.593,184.51c-0.956-0.452-2.091-0.254-2.837,0.492l-8.304,8.304l-4.517-4.518l10.383-10.383
						c0.877-0.876,0.979-2.262,0.24-3.257c-0.947-1.276-1.447-2.786-1.447-4.367v-4.631c0-0.875-0.457-1.686-1.205-2.139
						c-0.75-0.453-1.681-0.483-2.454-0.076c-3.732,1.953-7.754,2.944-11.952,2.944s-8.22-0.99-11.951-2.944
						c-0.773-0.406-1.705-0.376-2.454,0.076c-0.748,0.453-1.205,1.264-1.205,2.139v4.631c0,1.582-0.501,3.091-1.447,4.367
						c-0.739,0.995-0.638,2.381,0.239,3.258l10.383,10.383l-4.517,4.517l-8.304-8.303c-0.746-0.747-1.881-0.944-2.837-0.492
						c-0.955,0.452-1.522,1.455-1.419,2.506l2.41,24.33c0.127,1.279,1.203,2.253,2.488,2.253h37.227
						c1.285,0,2.361-0.975,2.488-2.253l2.41-24.33C85.115,185.965,84.548,184.962,83.593,184.51z M77.849,208.6H45.151
						l-1.498-15.118l3.857,3.857c0.812,0.812,1.89,1.258,3.037,1.258s2.226-0.446,3.037-1.258l5.514-5.514
						c0.812-0.812,1.258-1.89,1.258-3.038s-0.446-2.226-1.258-3.037l-9.493-9.493c0.845-1.693,1.284-3.554,1.284-5.478v-0.796
						c6.787,2.49,14.435,2.491,21.222,0v0.796c0,1.924,0.439,3.784,1.283,5.478l-9.493,9.493c-0.812,0.812-1.258,1.89-1.258,3.038
						s0.446,2.226,1.258,3.037l5.514,5.515c0,0,0,0,0,0c1.676,1.673,4.4,1.673,6.074-0.001l3.857-3.857L77.849,208.6z"/>
				</g>
			</g>
		</g>
		<g>
			<g>
				<g>
					<path d="M120.92,200.25c-0.382-6.713-4.674-12.634-10.935-15.083l-22.567-8.831c-1.468-0.575-3.081-0.432-4.426,0.392
						c-1.345,0.824-2.204,2.196-2.359,3.764l-3.008,30.362c-0.069,0.703,0.161,1.402,0.636,1.925
						c0.474,0.523,1.146,0.822,1.853,0.822h32.346c3.305,0,6.359-1.522,8.381-4.177c0.36-0.474,0.54-1.062,0.507-1.656
						L120.92,200.25z M112.459,208.6H82.872l2.724-27.608l22.567,8.831c4.446,1.739,7.494,5.944,7.765,10.71l0.369,6.5
						C115.266,208.038,113.906,208.6,112.459,208.6z"/>
				</g>
			</g>
		</g>
		<g>
			<g>
				<g>
					<path d="M42.367,180.491c-0.155-1.569-1.016-2.94-2.36-3.764c-1.344-0.824-2.958-0.966-4.425-0.392l-22.567,8.831
						c-6.261,2.45-10.553,8.371-10.935,15.083l-0.427,7.517c-0.033,0.595,0.146,1.182,0.507,1.656
						c2.021,2.654,5.076,4.177,8.381,4.177h32.346c0.706,0,1.379-0.298,1.853-0.822c0.475-0.523,0.705-1.222,0.636-1.925
						L42.367,180.491z M10.541,208.6c-1.447,0-2.807-0.563-3.838-1.567l0.369-6.5c0.271-4.767,3.318-8.971,7.765-10.71l22.557-8.826
						l2.733,27.604H10.541z"/>
				</g>
			</g>
		</g>
		<g>
			<g>
				<g>
					<path d="M78.559,175.148c-0.947-1.276-1.447-2.786-1.447-4.367v-4.631c0-0.875-0.457-1.686-1.205-2.139
						c-0.75-0.453-1.681-0.483-2.454-0.076c-3.732,1.953-7.754,2.944-11.952,2.944s-8.22-0.991-11.952-2.944
						c-0.773-0.406-1.705-0.376-2.454,0.076c-0.748,0.453-1.205,1.264-1.205,2.139v4.631c0,1.581-0.5,3.091-1.447,4.367
						c-0.738,0.995-0.637,2.381,0.24,3.257l10.7,10.701c0.197,1.192,1.231,2.091,2.467,2.091h7.303c1.235,0,2.27-0.898,2.467-2.091
						l10.7-10.701C79.195,177.529,79.297,176.143,78.559,175.148z M63.901,185.752c-0.14,0.14-0.27,0.289-0.388,0.445h-4.027
						c-0.118-0.156-0.248-0.305-0.388-0.445l-9.493-9.494c0.844-1.693,1.283-3.554,1.283-5.478v-0.796
						c6.787,2.491,14.436,2.491,21.223,0v0.796c0,1.924,0.439,3.784,1.283,5.478L63.901,185.752z"/>
				</g>
			</g>
		</g>
		<g>
			<g>
				<g>
					<path d="M59.099,185.752L47.037,173.69c-1.674-1.675-4.4-1.675-6.074,0l-3.676,3.676c-0.487,0.486-0.752,1.144-0.732,1.832
						c0.021,0.688,0.322,1.329,0.836,1.787l0.598,6.032c0.058,0.575,0.312,1.112,0.721,1.521l8.802,8.803
						c0.838,0.836,1.937,1.255,3.037,1.255c1.1,0,2.2-0.419,3.037-1.256l5.514-5.514c0.812-0.812,1.258-1.89,1.258-3.038
						C60.356,187.642,59.91,186.563,59.099,185.752z M50.548,193.306l-7.672-7.672l-0.509-5.14
						c-0.032-0.324-0.096-0.642-0.188-0.949L44,177.724l11.064,11.065L50.548,193.306z"/>
				</g>
			</g>
		</g>
		<g>
			<g>
				<g>
					<path d="M86.444,179.206c0.02-0.688-0.244-1.354-0.731-1.84l-3.676-3.676c-1.674-1.675-4.4-1.675-6.074,0l-12.062,12.062
						c-0.812,0.811-1.258,1.89-1.258,3.037c0,1.147,0.446,2.226,1.258,3.037l5.514,5.516c0.838,0.836,1.938,1.255,3.037,1.255
						c1.1,0,2.2-0.419,3.037-1.256l8.802-8.802c0.409-0.409,0.663-0.946,0.721-1.521L85.608,181
						C86.122,180.543,86.424,179.894,86.444,179.206z M80.633,180.494l-0.509,5.14l-7.672,7.672l-4.517-4.518L79,177.724
						l1.821,1.821C80.729,179.853,80.665,180.17,80.633,180.494z"/>
				</g>
			</g>
		</g>
		<g>
			<g>
				<g>
					<path d="M69.202,210.835l-1.082-10.158c-0.136-1.271-1.208-2.235-2.486-2.235h-8.268c-1.278,0-2.351,0.964-2.486,2.235
						l-1.082,10.158c-0.075,0.705,0.153,1.409,0.627,1.936c0.475,0.527,1.15,0.829,1.859,0.829h10.432
						c0.709,0,1.385-0.301,1.859-0.829C69.049,212.244,69.277,211.541,69.202,210.835z M59.064,208.6l0.55-5.158h3.771l0.55,5.158
						H59.064z"/>
				</g>
			</g>
		</g>
		<g>
			<g>
				<g>
					<path d="M71.163,192.017l-3.52-3.521c-0.046-0.567-0.284-1.106-0.681-1.523c-0.473-0.496-1.127-0.777-1.812-0.777h-7.303
						c-0.685,0-1.339,0.281-1.812,0.777c-0.396,0.417-0.635,0.956-0.681,1.523l-3.52,3.521c-0.774,0.774-0.955,1.961-0.445,2.931
						l3.762,7.158c0.432,0.822,1.284,1.337,2.213,1.337h8.268c0.929,0,1.781-0.515,2.213-1.337l3.762-7.158
						C72.118,193.979,71.938,192.791,71.163,192.017z M64.123,198.442h-5.246l-2.203-4.191l2.424-2.424
						c0.194-0.194,0.367-0.405,0.52-0.63h3.766c0.151,0.224,0.324,0.435,0.519,0.628l2.425,2.426L64.123,198.442z"/>
				</g>
			</g>
		</g>
		<g>
			<g>
				<g>
					<path d="M191.871,178.885l-10.589-8.376c-0.998-0.789-2.428-0.704-3.323,0.198c-0.401,0.403-0.835,0.722-1.288,0.945
						l-6.556,3.232c-1.304,0.643-2.681,1.149-4.1,1.506l-4.186,1.057c-0.868,0.219-1.552,0.884-1.795,1.746
						c-0.243,0.861-0.007,1.786,0.618,2.426l9.77,9.994c2.546,2.604,6.014,4.038,9.593,4.037c0.748,0,1.502-0.063,2.253-0.19
						c4.34-0.74,8.042-3.563,9.903-7.553l1.218-2.61C194.436,183.055,193.811,180.418,191.871,178.885z M188.858,183.182
						l-1.218,2.61c-1.185,2.54-3.449,4.267-6.212,4.738c-2.76,0.472-5.471-0.408-7.43-2.413l-6.731-6.886
						c1.744-0.441,3.446-1.068,5.059-1.863l6.557-3.233c0.29-0.143,0.573-0.302,0.851-0.477l9.037,7.148
						C188.883,182.897,188.92,183.051,188.858,183.182z"/>
				</g>
			</g>
		</g>
		<g>
			<g>
				<g>
					<path d="M228.965,179.193c-0.243-0.861-0.927-1.527-1.794-1.746l-4.194-1.059c-1.411-0.355-2.788-0.861-4.092-1.504
						l-6.555-3.232c-0.454-0.224-0.888-0.542-1.289-0.946c-0.895-0.9-2.324-0.986-3.323-0.198l-10.588,8.375
						c-1.94,1.534-2.565,4.17-1.52,6.411l1.218,2.611c0,0,0,0,0,0c1.861,3.99,5.563,6.813,9.903,7.553
						c0.751,0.128,1.504,0.19,2.253,0.19c3.578,0,7.047-1.434,9.593-4.037l9.77-9.994
						C228.972,180.979,229.208,180.054,228.965,179.193z M215.001,188.118c-1.959,2.004-4.663,2.885-7.43,2.413
						c-2.763-0.471-5.027-2.198-6.212-4.738v0l-1.218-2.611c-0.062-0.131-0.024-0.285,0.089-0.375l9.036-7.148
						c0.277,0.175,0.562,0.334,0.852,0.478l6.556,3.232c1.613,0.795,3.314,1.422,5.059,1.863L215.001,188.118z"/>
				</g>
			</g>
		</g>
		<g>
			<g>
				<g>
					<g>
						<path d="M211.041,170.708c-0.921-0.927-1.429-2.143-1.429-3.425v-8.041c0-0.882-0.465-1.699-1.224-2.149
							c-0.757-0.45-1.697-0.467-2.473-0.046c-3.491,1.903-7.438,2.908-11.416,2.908s-7.925-1.005-11.416-2.908
							c-0.773-0.421-1.715-0.404-2.473,0.046c-0.759,0.45-1.224,1.267-1.224,2.149v8.041c0,1.282-0.508,2.498-1.429,3.424
							c-0.502,0.505-0.766,1.201-0.723,1.912c0.042,0.711,0.386,1.371,0.944,1.813l10.589,8.375c0.12,0.096,0.126,0.241,0.095,0.336
							c-0.25,0.762-0.12,1.598,0.35,2.247c0.471,0.649,1.224,1.034,2.025,1.034h6.521c0.802,0,1.555-0.385,2.025-1.034
							c0.47-0.649,0.6-1.485,0.35-2.247c-0.031-0.095-0.025-0.241,0.095-0.336l10.589-8.376c0.559-0.442,0.902-1.101,0.944-1.812
							C211.807,171.908,211.544,171.212,211.041,170.708z M197.129,178.886c-0.841,0.665-1.438,1.557-1.753,2.539h-1.752
							c-0.314-0.982-0.912-1.874-1.753-2.539l-8.695-6.878c0.791-1.436,1.212-3.051,1.212-4.725v-4.159
							c6.449,2.409,13.775,2.409,20.225,0v4.159c0,1.674,0.421,3.289,1.212,4.725L197.129,178.886z"/>
					</g>
				</g>
			</g>
		</g>
		<g>
			<g>
				<g>
					<path d="M213.592,190.697c-0.631-0.473-1.447-0.619-2.205-0.395c-4.037,1.193-8.252-0.704-10.027-4.509l-1.188-2.542
						l-0.032-0.097c-0.334-1.031-1.294-1.729-2.378-1.729h-6.521c-1.084,0-2.047,0.727-2.381,1.758l-1.218,2.611
						c-1.775,3.806-5.989,5.703-10.027,4.509c-0.759-0.225-1.575-0.077-2.205,0.395c-0.632,0.472-1.004,1.214-1.004,2.003v18.4
						c0,1.381,1.119,2.5,2.5,2.5h35.191c1.381,0,2.5-1.119,2.5-2.5v-18.4C214.596,191.911,214.224,191.169,213.592,190.697z
						 M209.596,208.6h-30.191v-12.955c5.329,0.262,10.408-2.68,12.768-7.739l0.691-1.482h3.273l0.691,1.482
						c2.358,5.059,7.425,8,12.768,7.739V208.6z"/>
				</g>
			</g>
		</g>
		<g>
			<g>
				<g>
					<path d="M222.717,113.231c-0.68,0-1.381,0.055-2.084,0.164c-1.219,0.189-2.117,1.238-2.117,2.471v20.073
						c0,0.541-0.025,1.076-0.062,1.608c-0.088,1.29,0.821,2.433,2.098,2.638c0.778,0.125,1.486,0.186,2.165,0.186
						c7.482,0,13.57-6.087,13.57-13.57S230.199,113.231,222.717,113.231z M223.516,135.334v-17.066
						c4.353,0.404,7.771,4.077,7.771,8.533S227.868,134.93,223.516,135.334z"/>
				</g>
			</g>
		</g>
		<g>
			<g>
				<g>
					<path d="M219.949,110.062c-2.738-0.635-5.618-2.312-8.559-4.983c-0.854-0.776-1.995-1.178-3.149-1.109
						c-1.153,0.072-2.204,0.596-2.957,1.474v0c-3.065,3.577-12.969,13.611-27.471,13.61c-2.873,0-5.929-0.394-9.145-1.31
						c-0.75-0.215-1.564-0.064-2.19,0.409c-0.626,0.472-0.994,1.211-0.994,1.995v15.791c0,15.999,13.017,29.016,29.016,29.016
						s29.016-13.017,29.016-29.016v-21.422C223.516,112.381,222.049,110.549,219.949,110.062z M209.081,108.697L209.081,108.697
						c0,0-0.001,0.001-0.001,0.001C209.08,108.698,209.081,108.698,209.081,108.697z M218.516,135.939
						c0,13.242-10.773,24.016-24.016,24.016s-24.016-10.773-24.016-24.016v-12.613c19.788,3.965,33.546-8.947,38.096-14.055
						c3.3,2.882,6.638,4.76,9.936,5.588V135.939z"/>
				</g>
			</g>
		</g>
		<g>
			<g>
				<g>
					<path d="M170.484,135.939v-15.791c0-1.117-0.74-2.098-1.814-2.404c-1.755-0.5-3.532-1.146-5.283-1.919
						c-2.157-0.952-4.664-0.522-6.387,1.093c-2.725,2.555-4.287,6.157-4.287,9.883c0,7.483,6.088,13.57,13.57,13.57
						c0.679,0,1.387-0.061,2.165-0.186c1.276-0.205,2.186-1.349,2.098-2.638C170.51,137.015,170.484,136.48,170.484,135.939z
						 M165.484,135.334c-4.353-0.404-7.771-4.077-7.771-8.533c0-2.384,0.962-4.599,2.708-6.237c0.167-0.157,0.382-0.239,0.6-0.239
						c0.117,0,0.235,0.024,0.347,0.073c1.361,0.601,2.74,1.134,4.117,1.593V135.334z"/>
				</g>
			</g>
		</g>
		<g>
			<g>
				<g>
					<path d="M233.747,154.079c5.832-9.144,2.853-18.038,0.558-22.526c-0.409-0.8-1.216-1.319-2.113-1.359
						c-0.89-0.031-1.747,0.404-2.227,1.164c-1.586,2.514-4.295,4.014-7.248,4.014c-0.41,0-0.858-0.04-1.372-0.123
						c-0.693-0.111-1.403,0.075-1.953,0.512c-0.551,0.438-0.891,1.087-0.938,1.789c-0.552,8.23-5.239,15.519-12.538,19.497
						c-0.804,0.438-1.304,1.28-1.304,2.195v8.041c0,3.441,1.759,6.578,4.703,8.392l0.127,0.078c0.441,0.274,0.521,0.313,1.485,0.783
						c0.839,0.409,2.439,1.189,5.746,2.834c1.073,0.529,2.516,1.106,3.676,1.469c0.172,0.054,0.344,0.103,0.517,0.151l0.151,0.043
						c0.225,0.064,0.455,0.096,0.686,0.096c0.291,0,0.582-0.051,0.859-0.152c4.854-1.777,8.498-4.549,10.83-8.239
						c4.868-7.71,1.822-15.206,0.287-18.07C233.576,154.474,233.646,154.237,233.747,154.079z M229.532,151.391
						c-1.1,1.724-1.199,3.884-0.26,5.638c1.393,2.599,3.231,7.75-0.107,13.038c-1.611,2.55-4.153,4.54-7.564,5.923
						c-0.879-0.292-1.938-0.721-2.708-1.1c-3.318-1.651-4.93-2.436-5.774-2.848c-0.815-0.397-0.815-0.397-1.042-0.538l-0.139-0.086
						c-1.456-0.896-2.325-2.442-2.325-4.134v-6.6c7.349-4.499,12.266-11.891,13.558-20.319c3.017-0.099,5.851-1.185,8.122-3.047
						C232.55,141.319,232.769,146.315,229.532,151.391z"/>
				</g>
			</g>
		</g>
		<g>
			<g>
				<g>
					<path d="M183.084,157.046c-7.299-3.978-11.986-11.267-12.538-19.497c-0.047-0.701-0.387-1.351-0.938-1.789
						c-0.55-0.438-1.26-0.624-1.953-0.512c-0.514,0.083-0.962,0.123-1.372,0.123c-2.953,0-5.662-1.5-7.247-4.014
						c-0.479-0.759-1.31-1.19-2.227-1.164c-0.897,0.041-1.704,0.559-2.113,1.359c-2.296,4.487-5.276,13.381,0.557,22.526
						c0.101,0.158,0.171,0.395,0.067,0.587c-1.535,2.865-4.58,10.36,0.288,18.07c2.331,3.69,5.975,6.462,10.829,8.239
						c0.277,0.102,0.568,0.152,0.859,0.152c0.23,0,0.461-0.032,0.686-0.096l0.151-0.043c0.173-0.048,0.345-0.097,0.517-0.151
						c1.16-0.363,2.603-0.94,3.684-1.473c3.578-1.78,5.21-2.577,6.002-2.963c0.795-0.388,0.879-0.429,1.183-0.624l0.165-0.104
						c2.945-1.814,4.704-4.951,4.704-8.392v-8.041C184.388,158.327,183.888,157.484,183.084,157.046z M179.388,167.283
						c0,1.692-0.869,3.238-2.326,4.135l-0.271,0.171c-0.095,0.052-0.245,0.123-0.648,0.32c-0.797,0.389-2.438,1.19-6.027,2.976
						c-0.776,0.383-1.837,0.813-2.716,1.104c-3.411-1.383-5.953-3.373-7.563-5.922c-3.34-5.289-1.501-10.439-0.108-13.038l0.001,0
						c0.938-1.753,0.839-3.913-0.261-5.637c-3.237-5.076-3.019-10.072-1.76-14.073c2.271,1.862,5.105,2.948,8.122,3.047
						c1.292,8.428,6.209,15.82,13.558,20.319V167.283z"/>
				</g>
			</g>
		</g>
		<g>
			<g>
				<g>
					<path d="M87.703,105.156L87.703,105.156c-2.75-2.882-7.203-3.187-10.36-0.708c-3.112,2.442-8.382,5.354-15.812,5.354
						c-7.447,0-12.745-2.923-15.878-5.375c-3.155-2.468-7.602-2.159-10.356,0.729c-3.066,3.217-4.756,7.436-4.756,11.88v23.884
						c0,17.071,13.888,30.958,30.959,30.958s30.959-13.888,30.959-30.958v-23.884C92.459,112.592,90.77,108.373,87.703,105.156z
						 M87.459,140.92c0,14.313-11.646,25.958-25.959,25.958s-25.959-11.645-25.959-25.958v-23.884c0-3.153,1.198-6.147,3.384-8.439
						c0.522-0.548,1.225-0.827,1.937-0.827c0.597,0,1.2,0.197,1.71,0.596c3.753,2.937,10.088,6.437,18.96,6.437
						c8.857,0,15.166-3.491,18.898-6.42c1.121-0.881,2.694-0.783,3.654,0.225c2.177,2.283,3.375,5.276,3.375,8.43V140.92z"/>
				</g>
			</g>
		</g>
		<g>
			<g>
				<g>
					<path d="M89.576,116.905c-1.219,0.189-2.117,1.238-2.117,2.471v21.544c0,0.585-0.027,1.164-0.066,1.739
						c-0.088,1.289,0.821,2.433,2.098,2.638c0.826,0.133,1.576,0.197,2.295,0.197c7.93,0,14.382-6.452,14.382-14.382
						C106.167,122.462,98.52,115.525,89.576,116.905z M92.459,140.47v-18.715c4.859,0.347,8.708,4.411,8.708,9.357
						S97.318,140.124,92.459,140.47z"/>
				</g>
			</g>
		</g>
		<g>
			<g>
				<g>
					<path d="M35.541,140.92v-21.544c0-1.233-0.898-2.282-2.117-2.471c-8.946-1.383-16.591,5.557-16.591,14.208
						c0,7.93,6.452,14.382,14.382,14.382c0.721,0,1.472-0.065,2.297-0.198c1.275-0.206,2.184-1.349,2.096-2.638
						C35.568,142.083,35.541,141.504,35.541,140.92z M30.541,140.47c-4.859-0.347-8.708-4.412-8.708-9.358s3.849-9.011,8.708-9.357
						V140.47z"/>
				</g>
			</g>
		</g>
		<g>
			<g>
				<g>
					<path d="M231.057,100.304c-0.343-1.018-1.296-1.704-2.37-1.704H218V83.25c0-0.803-0.386-1.558-1.038-2.028
						c-6.601-4.761-14.368-7.277-22.462-7.277c-21.26,0-38.557,17.296-38.557,38.556v6.516c0,1.01,0.607,1.921,1.54,2.309
						c0.932,0.387,2.007,0.175,2.723-0.536l0.215-0.225c0.257-0.241,0.628-0.306,0.946-0.166c1.96,0.866,3.956,1.59,5.933,2.154
						c3.728,1.062,7.258,1.518,10.575,1.518c15.811-0.001,26.746-10.355,30.705-14.799c3.3,2.882,6.637,4.76,9.936,5.588v1.006
						c0,0.73,0.319,1.423,0.873,1.898c0.554,0.474,1.285,0.684,2.01,0.572c0.451-0.07,0.895-0.105,1.318-0.105
						c2.293,0,4.449,0.895,6.069,2.521c0.714,0.716,1.79,0.932,2.726,0.545s1.545-1.299,1.545-2.311v-6.485
						C233.057,108.357,232.384,104.253,231.057,100.304z M228.057,114.318c-1.48-0.633-3.074-1-4.721-1.073
						c-0.451-1.562-1.72-2.796-3.387-3.183c-2.738-0.635-5.618-2.312-8.559-4.983c-0.854-0.776-2.008-1.178-3.149-1.109
						c-1.153,0.072-2.204,0.596-2.957,1.475c-3.673,4.286-17.169,17.838-36.614,12.3c-1.755-0.5-3.532-1.146-5.283-1.919
						c-0.762-0.336-1.567-0.5-2.367-0.5c-0.025,0-0.051,0-0.076,0v-2.824c0-18.503,15.054-33.556,33.557-33.556
						c6.618,0,12.987,1.936,18.5,5.613V101.1c0,1.381,1.119,2.5,2.5,2.5h11.34c0.808,2.905,1.217,5.891,1.217,8.901V114.318z"/>
				</g>
			</g>
		</g>
		<g>
			<g>
				<g>
					<path d="M98.934,100.323c-0.336-1.028-1.295-1.723-2.376-1.723H85V81.429c0-0.767-0.353-1.492-0.955-1.965
						c-9.113-7.163-24.442-5.82-32.771-4.382c-16.536,2.855-28.539,17.104-28.539,33.879v11.897c0,0.896,0.479,1.723,1.256,2.168
						c0.777,0.446,1.732,0.441,2.506-0.01c1.438-0.84,3.069-1.285,4.719-1.285c0.465,0,0.95,0.039,1.443,0.115
						c0.726,0.111,1.456-0.098,2.01-0.572c0.554-0.475,0.873-1.168,0.873-1.898v-2.339c0-3.153,1.199-6.147,3.375-8.429
						c0.01-0.01,0.021-0.021,0.031-0.033c0.964-0.987,2.517-1.075,3.625-0.208c3.752,2.937,10.086,6.437,18.959,6.437
						c8.857,0,15.166-3.491,18.898-6.42c1.121-0.88,2.691-0.783,3.654,0.225c2.176,2.282,3.375,5.276,3.375,8.429v2.339
						c0,0.73,0.319,1.423,0.873,1.898c0.554,0.474,1.285,0.684,2.01,0.572c0.493-0.077,0.979-0.115,1.443-0.115
						c1.668,0,3.317,0.455,4.77,1.315c0.393,0.233,0.833,0.35,1.274,0.35c0.427,0,0.854-0.109,1.237-0.328
						c0.78-0.445,1.263-1.274,1.263-2.172v-9.769C100.329,106.788,99.859,103.153,98.934,100.323z M77.343,104.449
						c-3.112,2.442-8.382,5.354-15.812,5.354c-7.448,0-12.745-2.923-15.878-5.375c-3.152-2.466-7.602-2.16-10.346,0.718
						c-0.013,0.013-0.025,0.027-0.039,0.041c-2.982,3.143-4.653,7.236-4.726,11.561c-0.948,0.045-1.89,0.185-2.809,0.416v-8.203
						c0-14.335,10.258-26.512,24.391-28.952c4.159-0.718,8.077-1.072,11.663-1.072c6.825,0,12.444,1.282,16.212,3.771V101.1
						c0,0.707,0.293,1.345,0.765,1.8C79.556,103.121,78.379,103.635,77.343,104.449z M95.329,117.179
						c-0.939-0.241-1.901-0.386-2.872-0.432c-0.072-4.338-1.754-8.445-4.755-11.591c-0.621-0.651-1.328-1.17-2.089-1.556h9.032
						c0.454,2.067,0.684,4.59,0.684,7.527V117.179z"/>
				</g>
			</g>
		</g>
		<g>
			<g>
				<g>
					<path d="M120.5,58.6h-38c-1.381,0-2.5,1.119-2.5,2.5v40c0,1.381,1.119,2.5,2.5,2.5h38c1.381,0,2.5-1.119,2.5-2.5v-40
						C123,59.719,121.881,58.6,120.5,58.6z M118,98.6H85v-35h33V98.6z"/>
				</g>
			</g>
		</g>
		<g>
			<g>
				<g>
					<path d="M253.5,58.6h-38c-1.381,0-2.5,1.119-2.5,2.5v40c0,1.381,1.119,2.5,2.5,2.5h38c1.381,0,2.5-1.119,2.5-2.5v-40
						C256,59.719,254.881,58.6,253.5,58.6z M251,98.6h-33v-35h33V98.6z"/>
				</g>
			</g>
		</g>
		<g>
			<g>
				<g>
					<path d="M101.5,67.245c-5.593,0-10.144,4.55-10.144,10.143s4.551,10.143,10.144,10.143s10.144-4.55,10.144-10.143
						S107.093,67.245,101.5,67.245z M101.5,82.531c-2.836,0-5.144-2.307-5.144-5.143s2.308-5.143,5.144-5.143
						s5.144,2.307,5.144,5.143S104.336,82.531,101.5,82.531z"/>
				</g>
			</g>
		</g>
		<g>
			<g>
				<g>
					<path d="M108.033,86.902H94.967c-5.557,0-10.077,4.521-10.077,10.077v4.121c0,1.381,1.119,2.5,2.5,2.5h28.221
						c1.381,0,2.5-1.119,2.5-2.5v-4.121C118.11,91.422,113.59,86.902,108.033,86.902z M113.11,98.6H89.89v-1.621
						c0-2.799,2.277-5.077,5.077-5.077h13.066c2.8,0,5.077,2.278,5.077,5.077V98.6z"/>
				</g>
			</g>
		</g>
		<g>
			<g>
				<g>
					<path d="M234.5,67.245c-5.593,0-10.144,4.55-10.144,10.143s4.551,10.143,10.144,10.143s10.144-4.55,10.144-10.143
						S240.093,67.245,234.5,67.245z M234.5,82.531c-2.836,0-5.144-2.307-5.144-5.143s2.308-5.143,5.144-5.143
						s5.144,2.307,5.144,5.143S237.336,82.531,234.5,82.531z"/>
				</g>
			</g>
		</g>
		<g>
			<g>
				<g>
					<path d="M241.033,86.902h-13.066c-5.557,0-10.077,4.521-10.077,10.077v4.121c0,1.381,1.119,2.5,2.5,2.5h28.221
						c1.381,0,2.5-1.119,2.5-2.5v-4.121C251.11,91.422,246.59,86.902,241.033,86.902z M246.11,98.6H222.89v-1.621
						c0-2.799,2.277-5.077,5.077-5.077h13.066c2.8,0,5.077,2.278,5.077,5.077V98.6z"/>
				</g>
			</g>
		</g>
	</g>
</g>
<g id="Layer_46">
</g>
<g id="Layer_47">
</g>
<g id="Layer_48">
</g>
<g id="Layer_49">
</g>
<g id="Layer_50">
</g>
<g id="Layer_51">
</g>
<g id="Layer_52">
</g>
<g id="Layer_53">
</g>
<g id="Layer_54">
</g>
<g id="Layer_55">
</g>
<g id="Layer_56">
</g>
<g id="Layer_57">
</g>
<g id="Layer_58">
</g>
<g id="Layer_59">
</g>
<g id="Layer_60">
</g>
<g id="Layer_61">
</g>
<g id="Layer_62">
</g>
<g id="Layer_63">
</g>
<g id="Layer_64">
</g>
<g id="Layer_65">
</g>
<g id="Layer_66">
</g>
<g id="Layer_67">
</g>
<g id="Layer_68">
</g>
<g id="Layer_69">
</g>
<g id="Layer_70">
</g>
<g id="Layer_71">
</g>
<g id="Layer_72">
</g>
<g id="Layer_73">
</g>
<g id="Layer_74">
</g>
<g id="Layer_75">
</g>
<g id="Layer_76">
</g>
<g id="Layer_77">
</g>
<g id="Layer_78">
</g>
<g id="Layer_79">
</g>
<g id="Layer_80">
</g>
</svg>
