<?xml version="1.0" encoding="utf-8"?>
<!-- Generator: Adobe Illustrator 24.0.0, SVG Export Plug-In . SVG Version: 6.00 Build 0)  -->
<svg version="1.1" xmlns="http://www.w3.org/2000/svg" xmlns:xlink="http://www.w3.org/1999/xlink" x="0px" y="0px"
	 viewBox="0 0 256 256" style="enable-background:new 0 0 256 256;" xml:space="preserve">
<style type="text/css">
	.st0{fill:#6CADEF;}
	.st1{fill:#F9D0B4;}
	.st2{fill:#5B5D60;}
	.st3{fill:#9BE5F9;}
	.st4{fill:#FC657E;}
	.st5{fill:#70D6F9;}
	.st6{fill:#F5C84C;}
	.st7{fill:#F98FA6;}
	.st8{fill:#FED690;}
	.st9{fill:#87D147;}
	.st10{fill:#B2E26D;}
	.st11{fill:#EDF4FC;}
	.st12{fill:#FCDD86;}
	.st13{fill:#754E34;}
	.st14{fill:#B598F9;}
	.st15{fill:#5290DB;}
	.st16{fill:#C7D7E5;}
	.st17{fill:#C18E6B;}
	.st18{fill:#DAE6F1;}
	.st19{fill:#3CAADC;}
	.st20{fill:#818182;}
	.st21{fill:#CBEFF7;}
	.st22{fill:#FCA265;}
	.st23{fill:#A57453;}
	.st24{fill:#8652D8;}
	.st25{fill:#966AEA;}
	.st26{fill:#FEB872;}
	.st27{fill:#EDB311;}
	.st28{fill:#EF4460;}
</style>
<g id="Layer_1">
</g>
<g id="Layer_2">
</g>
<g id="Layer_3">
</g>
<g id="Layer_4">
</g>
<g id="Layer_5">
</g>
<g id="Layer_6">
</g>
<g id="Layer_7">
</g>
<g id="Layer_8">
</g>
<g id="Layer_9">
</g>
<g id="Layer_10">
</g>
<g id="Layer_11">
</g>
<g id="Layer_12">
</g>
<g id="Layer_13">
</g>
<g id="Layer_14">
</g>
<g id="Layer_15">
</g>
<g id="Layer_16">
</g>
<g id="Layer_17">
</g>
<g id="Layer_18">
</g>
<g id="Layer_19">
</g>
<g id="Layer_20">
</g>
<g id="Layer_21">
</g>
<g id="Layer_22">
</g>
<g id="Layer_23">
</g>
<g id="Layer_24">
</g>
<g id="Layer_25">
</g>
<g id="Layer_26">
</g>
<g id="Layer_27">
</g>
<g id="Layer_28">
</g>
<g id="Layer_29">
</g>
<g id="Layer_30">
</g>
<g id="Layer_31">
</g>
<g id="Layer_32">
</g>
<g id="Layer_33">
</g>
<g id="Layer_34">
</g>
<g id="Layer_35">
</g>
<g id="Layer_36">
</g>
<g id="Layer_37">
</g>
<g id="Layer_38">
</g>
<g id="Layer_39">
</g>
<g id="Layer_40">
</g>
<g id="Layer_41">
</g>
<g id="Layer_42">
</g>
<g id="Layer_43">
</g>
<g id="Layer_44">
</g>
<g id="Layer_45">
</g>
<g id="Layer_46">
</g>
<g id="Layer_47">
</g>
<g id="Layer_48">
</g>
<g id="Layer_49">
</g>
<g id="Layer_50">
	<g>
		<g>
			<g>
				<path class="st11" d="M244.867,2.5H132.133c-4.748,0-8.633,3.885-8.633,8.633v96.734c0,4.748,3.885,8.633,8.633,8.633h112.734
					c4.748,0,8.633-3.885,8.633-8.633V11.133C253.5,6.385,249.615,2.5,244.867,2.5z"/>
			</g>
		</g>
		<g>
			<g>
				<path class="st0" d="M244.867,2.5H132.133c-4.748,0-8.633,3.885-8.633,8.633V15h130v-3.867C253.5,6.385,249.615,2.5,244.867,2.5
					z"/>
			</g>
		</g>
		<g>
			<g>
				<circle class="st1" cx="145.167" cy="24.679" r="6.597"/>
			</g>
		</g>
		<g>
			<g>
				<path class="st7" d="M150.806,35.049h-11.278c-3.597,0-6.541,2.943-6.541,6.541v7.243h24.36V41.59
					C157.346,37.993,154.403,35.049,150.806,35.049z"/>
			</g>
		</g>
		<g>
			<g>
				<circle class="st1" cx="145.167" cy="58.513" r="6.597"/>
			</g>
		</g>
		<g>
			<g>
				<path class="st0" d="M150.806,68.883h-11.278c-3.597,0-6.541,2.943-6.541,6.541v7.243h24.36v-7.243
					C157.346,71.826,154.403,68.883,150.806,68.883z"/>
			</g>
		</g>
		<g>
			<g>
				<circle class="st1" cx="145.167" cy="92.346" r="6.597"/>
			</g>
		</g>
		<g>
			<g>
				<path class="st10" d="M150.806,102.716h-11.278c-3.597,0-6.541,2.943-6.541,6.541v7.243h24.36v-7.243
					C157.346,105.659,154.403,102.716,150.806,102.716z"/>
			</g>
		</g>
		<g>
			<g>
				<circle class="st1" cx="188.5" cy="24.679" r="6.597"/>
			</g>
		</g>
		<g>
			<g>
				<path class="st22" d="M194.139,35.049h-11.278c-3.597,0-6.541,2.943-6.541,6.541v7.243h24.36V41.59
					C200.68,37.993,197.737,35.049,194.139,35.049z"/>
			</g>
		</g>
		<g>
			<g>
				<circle class="st1" cx="188.5" cy="58.513" r="6.597"/>
			</g>
		</g>
		<g>
			<g>
				<path class="st14" d="M194.139,68.883h-11.278c-3.597,0-6.541,2.943-6.541,6.541v7.243h24.36v-7.243
					C200.68,71.826,197.737,68.883,194.139,68.883z"/>
			</g>
		</g>
		<g>
			<g>
				<circle class="st1" cx="188.5" cy="92.346" r="6.597"/>
			</g>
		</g>
		<g>
			<g>
				<path class="st20" d="M194.139,102.716h-11.278c-3.597,0-6.541,2.943-6.541,6.541v7.243h24.36v-7.243
					C200.68,105.659,197.737,102.716,194.139,102.716z"/>
			</g>
		</g>
		<g>
			<g>
				<path class="st1" d="M231.833,18.082c-3.644,0-6.597,2.954-6.597,6.597c0,3.644,2.954,6.597,6.597,6.597
					s6.597-2.954,6.597-6.597C238.431,21.036,235.477,18.082,231.833,18.082z"/>
			</g>
		</g>
		<g>
			<g>
				<path class="st6" d="M237.472,35.049h-11.278c-3.597,0-6.541,2.943-6.541,6.541v7.243h24.36V41.59
					C244.013,37.993,241.07,35.049,237.472,35.049z"/>
			</g>
		</g>
		<g>
			<g>
				<path class="st1" d="M231.833,51.916c-3.644,0-6.597,2.954-6.597,6.597c0,3.644,2.954,6.597,6.597,6.597
					s6.597-2.954,6.597-6.597C238.431,54.869,235.477,51.916,231.833,51.916z"/>
			</g>
		</g>
		<g>
			<g>
				<path class="st3" d="M237.472,68.883h-11.278c-3.597,0-6.541,2.943-6.541,6.541v7.243h24.36v-7.243
					C244.013,71.826,241.07,68.883,237.472,68.883z"/>
			</g>
		</g>
		<g>
			<g>
				<path class="st1" d="M231.833,85.749c-3.644,0-6.597,2.954-6.597,6.597s2.954,6.597,6.597,6.597s6.597-2.954,6.597-6.597
					S235.477,85.749,231.833,85.749z"/>
			</g>
		</g>
		<g>
			<g>
				<path class="st17" d="M237.472,102.716h-11.278c-3.597,0-6.541,2.943-6.541,6.541v7.243h24.36v-7.243
					C244.013,105.659,241.07,102.716,237.472,102.716z"/>
			</g>
		</g>
		<g>
			<g>
				<circle class="st5" cx="161" cy="158.5" r="6"/>
			</g>
		</g>
		<g>
			<g>
				<path class="st1" d="M94.315,86.07c-1.494-1.567-3.924-1.711-5.627-0.374c-2.693,2.114-7.352,4.727-13.934,4.727
					c-6.597,0-11.281-2.625-13.986-4.742c-1.702-1.332-4.126-1.183-5.617,0.381l-0.008,0.008c-2.095,2.198-3.264,5.117-3.264,8.153
					V113.4c0,12.567,10.282,22.85,22.85,22.85c0.195,0,0.384-0.025,0.577-0.03v-1.475c0-2.786,2.258-5.044,5.044-5.044h10.336
					c4.243-4.155,6.893-9.931,6.893-16.302V94.223C97.579,91.187,96.41,88.268,94.315,86.07z"/>
			</g>
		</g>
		<g>
			<g>
				<path class="st1" d="M99.046,95.986c-0.499,0-0.988,0.042-1.466,0.116V113.4c0,0.515-0.024,1.025-0.058,1.532
					c0.497,0.08,1.004,0.133,1.524,0.133c5.269,0,9.54-4.271,9.54-9.54S104.314,95.986,99.046,95.986z"/>
			</g>
		</g>
		<g>
			<g>
				<path class="st1" d="M51.879,113.4V96.102c-0.478-0.074-0.967-0.116-1.466-0.116c-5.269,0-9.54,4.271-9.54,9.54
					s4.271,9.54,9.54,9.54c0.52,0,1.026-0.053,1.524-0.133v0C51.903,114.425,51.879,113.916,51.879,113.4z"/>
			</g>
		</g>
		<g>
			<g>
				<path class="st13" d="M97.494,76.494c-0.765,0-1.428-0.59-1.439-1.355C95.88,62.406,81.34,60.014,66.86,62.515
					C54.583,64.635,45.61,75.281,45.61,87.739v9.553c1.412-0.825,3.049-1.306,4.802-1.306c0.499,0,0.988,0.042,1.466,0.116v-1.878
					c0-3.036,1.169-5.956,3.264-8.153l0.008-0.008c1.491-1.564,3.916-1.713,5.617-0.382c2.704,2.116,7.389,4.742,13.986,4.742
					c6.581,0,11.241-2.613,13.934-4.727c1.703-1.337,4.133-1.193,5.627,0.374c2.095,2.198,3.264,5.117,3.264,8.153v1.878
					c0.478-0.074,0.967-0.116,1.466-0.116c1.774,0,3.43,0.493,4.853,1.337v-7.844C103.898,78.078,99.781,76.494,97.494,76.494z"/>
			</g>
		</g>
		<g>
			<g>
				<path class="st1" d="M74.729,136.25L74.729,136.25c-3.791,0-7.371-0.941-10.527-2.593v3.719c0,1.438-0.4,2.813-1.104,4.006
					l11.682,8.895c0.208,0.158,0.376,0.348,0.525,0.548v-14.593C75.114,136.237,74.923,136.25,74.729,136.25z"/>
			</g>
		</g>
		<g>
			<g>
				<path class="st5" d="M70.627,190.44c0.004-1.298,1.076-2.347,2.374-2.347h7.35c-2.786,0-5.044-2.258-5.044-5.044v-28.923
					c-0.001,0.002-0.002,0.004-0.003,0.005l-3.944,5.18c-0.916,1.204-2.651,1.438-3.854,0.522l-13.6-10.356
					c-0.65-0.495-1.007-1.23-1.063-1.99c-1.416,0.504-2.943,0.974-4.689,1.414l-12.371,3.114c-3.827,0.963-6.583,4.303-6.802,8.243
					l-1.842,31.76c-0.248,4.275,3.152,7.878,7.434,7.878h45.484C74.84,199.896,70.613,195.66,70.627,190.44z"/>
			</g>
		</g>
		<g>
			<g>
				<path class="st3" d="M74.781,150.278l-13.6-10.355c-1.204-0.916-2.938-0.681-3.854,0.522l-3.944,5.18
					c-0.916,1.204-0.681,2.938,0.522,3.854l13.6,10.356c1.204,0.916,2.938,0.681,3.854-0.522l3.944-5.18
					c0.001-0.002,0.002-0.004,0.003-0.005v-3.301C75.157,150.625,74.989,150.436,74.781,150.278z"/>
			</g>
		</g>
		<g>
			<g>
				<path class="st1" d="M73.001,188.094h7.319v-0.003c-2.771-0.017-5.013-2.266-5.013-5.041v-0.547H48.018v-9.939H28.266
					l-1.128,19.454c-0.248,4.275,3.152,7.878,7.434,7.878h45.484c-5.216,0-9.443-4.236-9.429-9.456
					C70.631,189.143,71.703,188.094,73.001,188.094z"/>
			</g>
		</g>
		<g>
			<g>
				<path class="st16" d="M145.807,188.094H73.001c-1.311,0-2.374,1.063-2.374,2.374c0,5.207,4.222,9.429,9.429,9.429h58.695
					c5.208,0,9.429-4.222,9.429-9.429C148.18,189.156,147.117,188.094,145.807,188.094z"/>
			</g>
		</g>
		<g>
			<g>
				<path class="st11" d="M138.457,129.702H80.351c-2.786,0-5.044,2.258-5.044,5.044v48.303c0,2.786,2.258,5.044,5.044,5.044h58.106
					c2.786,0,5.044-2.258,5.044-5.044v-48.303C143.501,131.96,141.243,129.702,138.457,129.702z"/>
			</g>
		</g>
		<g>
			<g>
				<path class="st0" d="M161.425,199.896H5.427c-1.616,0-2.927,1.31-2.927,2.926v7.192c0,1.616,1.31,2.927,2.927,2.927h155.999
					c1.616,0,2.927-1.31,2.927-2.927v-7.192C164.352,201.207,163.041,199.896,161.425,199.896z"/>
			</g>
		</g>
		<g>
			<g>
				<path class="st15" d="M7.365,212.941v37.933c0,1.45,1.176,2.626,2.626,2.626h146.87c1.45,0,2.626-1.176,2.626-2.626v-37.933
					H7.365z"/>
			</g>
		</g>
		<g>
			<g>
				<path class="st5" d="M216.206,173.1h-2.4v-2.3c0-1.8-1.4-3.2-3.2-3.2c-1.7,0-3.2,1.4-3.2,3.1v2.4h-2.3c-1.8,0-3.2,1.4-3.2,3.2
					c-0.1,1.7,1.3,3.2,3.2,3.2h2.3v2.3c0,1.8,1.4,3.2,3.2,3.2c1.7,0,3.2-1.4,3.2-3.1v-2.4h2.3c1.8,0,3.2-1.4,3.2-3.2
					C219.306,174.6,217.906,173.1,216.206,173.1z"/>
			</g>
		</g>
		<g>
			<g>
				<path class="st6" d="M104.506,0c-1.878,0-3.4,1.522-3.4,3.4c0,1.878,1.522,3.4,3.4,3.4c1.878,0,3.4-1.522,3.4-3.4
					C107.906,1.522,106.384,0,104.506,0z"/>
			</g>
		</g>
		<g>
			<g>
				<path class="st4" d="M195.506,203c-1.878,0-3.4,1.522-3.4,3.4c0,1.878,1.522,3.4,3.4,3.4c1.878,0,3.4-1.522,3.4-3.4
					C198.906,204.522,197.384,203,195.506,203z"/>
			</g>
		</g>
		<g>
			<g>
				<path class="st9" d="M27.288,129.2c-3.1-0.6-5.6-3-6.2-6.1c0-0.1-0.3-0.1-0.3,0c-0.6,3.1-3.1,5.5-6.2,6.1c-0.1,0-0.1,0.2,0,0.3
					c3.1,0.6,5.6,3,6.2,6.1c0,0.1,0.3,0.1,0.3,0c0.6-3.1,3.1-5.5,6.2-6.1C27.388,129.4,27.388,129.2,27.288,129.2z"/>
			</g>
		</g>
		<g>
			<g>
				<path class="st4" d="M96.288,25.2c-4.5-0.8-8-4.3-8.9-8.7c0-0.2-0.4-0.2-0.4,0c-0.9,4.4-4.4,7.9-8.9,8.7c-0.2,0-0.2,0.3,0,0.4
					c4.5,0.8,8,4.3,8.9,8.7c0,0.2,0.4,0.2,0.4,0c0.9-4.4,4.4-7.9,8.9-8.7C96.488,25.5,96.488,25.2,96.288,25.2z"/>
			</g>
		</g>
		<g>
			<g>
				<g>
					<path d="M96.124,84.345c-2.383-2.499-6.243-2.764-8.979-0.616c-2.438,1.913-6.566,4.193-12.392,4.193
						c-5.839,0-9.99-2.29-12.444-4.21c-2.732-2.138-6.587-1.869-8.975,0.633c-2.552,2.674-3.956,6.183-3.956,9.879V113.4
						c0,13.978,11.372,25.35,25.351,25.35c0.166,0,0.33-0.01,0.494-0.021l0.14-0.008c1.358-0.031,2.443-1.141,2.443-2.5v-1.475
						c0-1.403,1.142-2.544,2.544-2.544h10.336c0.654,0,1.282-0.256,1.749-0.714c4.929-4.826,7.644-11.25,7.644-18.088V94.224
						C100.079,90.528,98.674,87.019,96.124,84.345z M95.079,113.4c0,5.152-1.927,10.016-5.446,13.802h-9.282
						c-3.794,0-6.942,2.814-7.467,6.465C62.523,132.732,54.379,124,54.379,113.4V94.224c0-2.405,0.914-4.688,2.582-6.437
						c0.322-0.338,0.757-0.511,1.197-0.511c0.373,0,0.75,0.123,1.069,0.373c3.074,2.405,8.263,5.273,15.526,5.273
						c7.253,0,12.421-2.86,15.479-5.26c0.698-0.549,1.677-0.493,2.272,0.134c1.66,1.74,2.574,4.023,2.574,6.428V113.4z"/>
				</g>
			</g>
		</g>
		<g>
			<g>
				<g>
					<path d="M99.046,93.485c-0.602,0-1.225,0.049-1.85,0.146c-1.219,0.189-2.117,1.238-2.117,2.471V113.4
						c0,0.458-0.021,0.913-0.052,1.364c-0.087,1.289,0.822,2.431,2.098,2.636c0.69,0.111,1.318,0.165,1.921,0.165
						c6.639,0,12.04-5.401,12.04-12.04C111.086,98.887,105.685,93.485,99.046,93.485z M100.079,112.49V98.561
						c3.394,0.501,6.007,3.434,6.007,6.965C106.086,109.057,103.473,111.989,100.079,112.49z"/>
				</g>
			</g>
		</g>
		<g>
			<g>
				<g>
					<path d="M54.379,113.4V96.102c0-1.233-0.898-2.282-2.117-2.471c-0.625-0.097-1.247-0.146-1.849-0.146
						c-6.639,0-12.04,5.401-12.04,12.041c0,6.639,5.401,12.04,12.04,12.04c0.603,0,1.231-0.054,1.921-0.165
						c1.275-0.206,2.184-1.348,2.097-2.636C54.4,114.313,54.379,113.859,54.379,113.4z M49.379,112.49
						c-3.394-0.502-6.006-3.434-6.006-6.964s2.612-6.463,6.006-6.965V112.49z"/>
				</g>
			</g>
		</g>
		<g>
			<g>
				<g>
					<path d="M98.512,74.059c-0.29-4.186-1.987-7.594-5.053-10.14c-7.403-6.147-20.11-5.063-27.025-3.868
						C52.919,62.385,43.11,74.029,43.11,87.739v9.553c0,0.896,0.479,1.723,1.256,2.168c0.774,0.445,1.731,0.442,2.506-0.01
						c1.08-0.632,2.305-0.965,3.541-0.965c0.351,0,0.704,0.028,1.083,0.087c0.72,0.109,1.456-0.098,2.01-0.572
						c0.554-0.475,0.873-1.168,0.873-1.898v-1.878c0-2.405,0.914-4.688,2.582-6.437c0.595-0.625,1.57-0.683,2.267-0.138
						c3.074,2.405,8.263,5.273,15.527,5.273c7.253,0,12.42-2.86,15.478-5.26c0.699-0.55,1.678-0.492,2.273,0.133
						c1.659,1.741,2.573,4.023,2.573,6.428v1.878c0,0.73,0.319,1.423,0.873,1.898c0.554,0.474,1.289,0.682,2.01,0.572
						c0.373-0.058,0.738-0.087,1.084-0.087c1.251,0,2.487,0.342,3.577,0.988c0.394,0.233,0.834,0.35,1.275,0.35
						c0.427,0,0.854-0.109,1.237-0.328c0.78-0.445,1.263-1.274,1.263-2.172v-7.844C106.398,77.304,101.843,74.488,98.512,74.059z
						 M101.398,93.72c-0.441-0.089-0.887-0.153-1.336-0.191c-0.164-3.438-1.548-6.677-3.938-9.184
						c-2.383-2.499-6.243-2.764-8.979-0.616c-2.438,1.913-6.566,4.193-12.391,4.193c-5.84,0-9.991-2.29-12.445-4.21
						c-2.732-2.138-6.587-1.869-8.976,0.633c-2.39,2.506-3.773,5.745-3.938,9.184c-0.432,0.037-0.86,0.098-1.285,0.181v-5.971
						c0-11.27,8.064-20.842,19.175-22.761c10.322-1.781,18.699-0.766,22.979,2.788c2.17,1.803,3.247,4.226,3.29,7.408
						c0.03,2.106,1.797,3.82,3.939,3.82c2.444,0,3.904,3.919,3.904,10.485V93.72z"/>
				</g>
			</g>
		</g>
		<g>
			<g>
				<g>
					<path d="M161.425,197.396H5.427c-2.992,0-5.427,2.434-5.427,5.426v7.192c0,2.992,2.435,5.427,5.427,5.427h155.998
						c2.992,0,5.427-2.435,5.427-5.427v-7.192C166.852,199.831,164.417,197.396,161.425,197.396z M161.852,210.015
						c0,0.235-0.191,0.427-0.427,0.427H5.427c-0.235,0-0.427-0.191-0.427-0.427v-7.192c0-0.235,0.191-0.426,0.427-0.426h155.998
						c0.235,0,0.427,0.191,0.427,0.426V210.015z"/>
				</g>
			</g>
		</g>
		<g>
			<g>
				<g>
					<path d="M145.807,185.594H73.001c-2.688,0-4.874,2.186-4.874,4.874c0,6.578,5.352,11.929,11.93,11.929h58.694
						c6.578,0,11.93-5.352,11.93-11.929C150.681,187.78,148.494,185.594,145.807,185.594z M138.751,197.396H80.057
						c-3.779,0-6.861-3.04-6.929-6.803h72.552C145.612,194.356,142.53,197.396,138.751,197.396z"/>
				</g>
			</g>
		</g>
		<g>
			<g>
				<g>
					<path d="M138.457,127.202H80.351c-4.16,0-7.544,3.384-7.544,7.544v48.304c0,4.16,3.384,7.544,7.544,7.544h58.106
						c4.16,0,7.544-3.384,7.544-7.544v-48.304C146.001,130.586,142.617,127.202,138.457,127.202z M141.001,183.05
						c0,1.403-1.142,2.544-2.544,2.544H80.351c-1.402,0-2.544-1.141-2.544-2.544v-48.304c0-1.403,1.142-2.544,2.544-2.544h58.106
						c1.402,0,2.544,1.141,2.544,2.544V183.05z"/>
				</g>
			</g>
		</g>
		<g>
			<g>
				<path d="M116.878,156.398H101.93c-1.381,0-2.5,1.119-2.5,2.5s1.119,2.5,2.5,2.5h14.948c1.381,0,2.5-1.119,2.5-2.5
					S118.259,156.398,116.878,156.398z"/>
			</g>
		</g>
		<g>
			<g>
				<g>
					<path d="M80.057,197.396c-1.854,0-3.598-0.723-4.907-2.037c-1.275-1.279-1.989-2.966-2.021-4.766h7.192
						c1.381,0,2.5-1.122,2.5-2.503c0-1.375-1.11-2.492-2.484-2.5c-1.395-0.009-2.529-1.148-2.529-2.541v-0.547
						c0-1.381-1.119-2.5-2.5-2.5H50.518v-7.439c0-1.381-1.119-2.5-2.5-2.5H28.266c-1.324,0-2.419,1.033-2.496,2.355l-1.128,19.454
						c-0.157,2.722,0.825,5.42,2.696,7.403s4.508,3.12,7.234,3.12h45.484c1.381,0,2.5-1.119,2.5-2.5S81.438,197.396,80.057,197.396z
						 M70.343,197.396H34.572c-1.376,0-2.653-0.551-3.598-1.552c-0.944-1.001-1.421-2.308-1.341-3.682l0.991-17.099h14.893v7.439
						c0,1.381,1.119,2.5,2.5,2.5h25.047c0.054,0.2,0.116,0.397,0.186,0.591h-0.249c-2.68,0-4.866,2.171-4.874,4.84
						C68.12,192.966,68.896,195.378,70.343,197.396z"/>
				</g>
			</g>
		</g>
		<g>
			<g>
				<path d="M48.018,163.852c-1.381,0-2.5,1.119-2.5,2.5v9.939c0,1.381,1.119,2.5,2.5,2.5s2.5-1.119,2.5-2.5v-9.939
					C50.518,164.971,49.398,163.852,48.018,163.852z"/>
			</g>
		</g>
		<g>
			<g>
				<g>
					<g>
						<path d="M159.486,210.441H7.365c-1.381,0-2.5,1.119-2.5,2.5v37.933c0,2.827,2.3,5.126,5.126,5.126H156.86
							c2.826,0,5.126-2.299,5.126-5.126v-37.933C161.986,211.561,160.867,210.441,159.486,210.441z M156.986,250.874
							c0,0.069-0.057,0.126-0.126,0.126H9.991c-0.069,0-0.126-0.057-0.126-0.126v-35.433h147.121V250.874z"/>
					</g>
				</g>
			</g>
		</g>
		<g>
			<g>
				<g>
					<path d="M77.052,134.442c-0.481-0.47-1.115-0.728-1.809-0.709l-0.266,0.009c-0.082,0.003-0.165,0.008-0.249,0.008
						c-3.291,0-6.442-0.776-9.367-2.308c-0.774-0.406-1.705-0.376-2.454,0.076c-0.748,0.453-1.205,1.264-1.205,2.139v3.719
						c0,0.95-0.262,1.896-0.758,2.737c-0.643,1.091-0.368,2.491,0.64,3.258l11.683,8.895c0.001,0,0.036,0.054,0.036,0.054
						c0.481,0.645,1.23,1.005,2.004,1.005c0.263,0,0.528-0.042,0.788-0.127c1.022-0.339,1.712-1.295,1.712-2.373v-14.593
						C77.807,135.559,77.534,134.913,77.052,134.442z M72.807,145.632l-6.621-5.042c0.335-1.02,0.511-2.086,0.517-3.159
						c1.975,0.664,4.029,1.083,6.104,1.244V145.632z"/>
				</g>
			</g>
		</g>
		<g>
			<g>
				<g>
					<path d="M80.057,197.396c-1.854,0-3.597-0.723-4.906-2.036c-1.275-1.278-1.99-2.966-2.022-4.767h7.223
						c1.381,0,2.5-1.119,2.5-2.5s-1.119-2.5-2.5-2.5c-1.402,0-2.544-1.141-2.544-2.544v-28.923c0-1.011-0.609-1.923-1.543-2.31
						c-0.936-0.388-2.01-0.172-2.725,0.542c-0.084,0.084-0.162,0.174-0.233,0.27l-3.936,5.169c-0.079,0.104-0.247,0.127-0.351,0.047
						l-13.601-10.356c-0.062-0.046-0.08-0.125-0.084-0.183c-0.057-0.778-0.474-1.485-1.128-1.912
						c-0.654-0.427-1.469-0.522-2.203-0.261c-1.43,0.509-2.889,0.949-4.462,1.345l-12.371,3.114
						c-4.914,1.237-8.405,5.468-8.688,10.523l-1.842,31.759c-0.157,2.722,0.825,5.42,2.696,7.403s4.508,3.12,7.234,3.12h45.484
						c1.381,0,2.5-1.119,2.5-2.5S81.438,197.396,80.057,197.396z M70.343,197.396H34.572c-1.376,0-2.654-0.551-3.599-1.552
						c-0.943-1-1.42-2.308-1.34-3.682l1.842-31.765c0.16-2.863,2.136-5.258,4.916-5.958l12.371-3.114
						c0.935-0.235,1.835-0.485,2.714-0.754c0.265,0.333,0.57,0.634,0.913,0.896l13.602,10.356c2.083,1.585,4.983,1.37,6.815-0.39
						v21.616c0,0.892,0.155,1.749,0.441,2.544h-0.247c-2.68,0-4.866,2.171-4.874,4.839v0.001
						C68.12,192.966,68.896,195.379,70.343,197.396z"/>
				</g>
			</g>
		</g>
		<g>
			<g>
				<g>
					<path d="M77.311,149.331c-0.314-0.42-0.646-0.762-1.015-1.042l-13.601-10.355c-1.114-0.848-2.495-1.212-3.886-1.022
						c-1.392,0.188-2.625,0.905-3.473,2.019l-3.942,5.179c-0.849,1.113-1.212,2.493-1.023,3.886
						c0.188,1.392,0.905,2.625,2.019,3.473l13.602,10.356c0.948,0.722,2.065,1.07,3.174,1.07c1.585,0,3.152-0.713,4.184-2.068
						l3.942-5.179c0.02-0.025,0.037-0.049,0.055-0.075c0.298-0.42,0.461-0.924,0.461-1.446v-3.301
						C77.807,150.287,77.633,149.762,77.311,149.331z M72.807,153.283l-3.437,4.514c-0.079,0.104-0.247,0.127-0.351,0.047
						l-13.601-10.356c-0.065-0.049-0.087-0.117-0.093-0.166c-0.01-0.07,0.006-0.132,0.046-0.185l3.943-5.18
						c0.05-0.065,0.117-0.086,0.165-0.093c0.012-0.001,0.025-0.002,0.039-0.002c0.044,0,0.097,0.01,0.146,0.048l13.141,10.003
						V153.283z"/>
				</g>
			</g>
		</g>
		<g>
			<g>
				<g>
					<path d="M244.867,0H132.133C125.994,0,121,4.994,121,11.133v96.734c0,6.139,4.994,11.133,11.133,11.133h112.734
						c6.139,0,11.133-4.994,11.133-11.133V11.133C256,4.994,251.006,0,244.867,0z M251,107.867c0,3.382-2.751,6.133-6.133,6.133
						H132.133c-3.382,0-6.133-2.751-6.133-6.133V11.133C126,7.751,128.751,5,132.133,5h112.734C248.249,5,251,7.751,251,11.133
						V107.867z"/>
				</g>
			</g>
		</g>
		<g>
			<g>
				<path d="M193.5,125c-1.381,0-2.5,1.119-2.5,2.5V156h-23.5c-1.381,0-2.5,1.119-2.5,2.5s1.119,2.5,2.5,2.5h26
					c1.381,0,2.5-1.119,2.5-2.5v-31C196,126.119,194.881,125,193.5,125z"/>
			</g>
		</g>
		<g>
			<g>
				<g>
					<path d="M161,150c-4.687,0-8.5,3.813-8.5,8.5s3.813,8.5,8.5,8.5s8.5-3.813,8.5-8.5S165.687,150,161,150z M161,162
						c-1.93,0-3.5-1.57-3.5-3.5s1.57-3.5,3.5-3.5s3.5,1.57,3.5,3.5S162.93,162,161,162z"/>
				</g>
			</g>
		</g>
		<g>
			<g>
				<path d="M251.705,80.167H125.064c-1.381,0-2.5,1.119-2.5,2.5s1.119,2.5,2.5,2.5h126.641c1.381,0,2.5-1.119,2.5-2.5
					S253.086,80.167,251.705,80.167z"/>
			</g>
		</g>
		<g>
			<g>
				<path d="M251.705,46.333H125.064c-1.381,0-2.5,1.119-2.5,2.5s1.119,2.5,2.5,2.5h126.641c1.381,0,2.5-1.119,2.5-2.5
					S253.086,46.333,251.705,46.333z"/>
			</g>
		</g>
		<g>
			<g>
				<path d="M166.833,12.5c-1.381,0-2.5,1.119-2.5,2.5v100.066c0,1.381,1.119,2.5,2.5,2.5s2.5-1.119,2.5-2.5V15
					C169.333,13.619,168.214,12.5,166.833,12.5z"/>
			</g>
		</g>
		<g>
			<g>
				<path d="M210.167,12.5c-1.381,0-2.5,1.119-2.5,2.5v100.066c0,1.381,1.119,2.5,2.5,2.5s2.5-1.119,2.5-2.5V15
					C212.667,13.619,211.548,12.5,210.167,12.5z"/>
			</g>
		</g>
		<g>
			<g>
				<g>
					<path d="M244.867,0H132.133C125.994,0,121,4.994,121,11.133V15c0,1.381,1.119,2.5,2.5,2.5h130c1.381,0,2.5-1.119,2.5-2.5
						v-3.867C256,4.994,251.006,0,244.867,0z M251,12.5H126v-1.367C126,7.751,128.751,5,132.133,5h112.734
						C248.249,5,251,7.751,251,11.133V12.5z"/>
				</g>
			</g>
		</g>
		<g>
			<g>
				<g>
					<path d="M145.167,15.582c-5.017,0-9.098,4.081-9.098,9.098c0,5.016,4.081,9.097,9.098,9.097c5.016,0,9.097-4.081,9.097-9.097
						C154.264,19.663,150.183,15.582,145.167,15.582z M145.167,28.777c-2.26,0-4.098-1.838-4.098-4.097s1.838-4.098,4.098-4.098
						c2.259,0,4.097,1.838,4.097,4.098S147.426,28.777,145.167,28.777z"/>
				</g>
			</g>
		</g>
		<g>
			<g>
				<g>
					<path d="M150.806,32.549h-11.278c-4.984,0-9.04,4.056-9.04,9.041v7.243c0,1.381,1.119,2.5,2.5,2.5h24.359
						c1.381,0,2.5-1.119,2.5-2.5V41.59C159.847,36.605,155.791,32.549,150.806,32.549z M154.847,46.333h-19.359V41.59
						c0-2.228,1.813-4.041,4.04-4.041h11.278c2.229,0,4.041,1.813,4.041,4.041V46.333z"/>
				</g>
			</g>
		</g>
		<g>
			<g>
				<g>
					<path d="M145.167,49.416c-5.017,0-9.098,4.081-9.098,9.098c0,5.016,4.081,9.097,9.098,9.097c5.016,0,9.097-4.081,9.097-9.097
						C154.264,53.497,150.183,49.416,145.167,49.416z M145.167,62.61c-2.26,0-4.098-1.838-4.098-4.097s1.838-4.098,4.098-4.098
						c2.259,0,4.097,1.838,4.097,4.098S147.426,62.61,145.167,62.61z"/>
				</g>
			</g>
		</g>
		<g>
			<g>
				<g>
					<path d="M150.806,66.383h-11.278c-4.984,0-9.04,4.056-9.04,9.041v7.243c0,1.381,1.119,2.5,2.5,2.5h24.359
						c1.381,0,2.5-1.119,2.5-2.5v-7.243C159.847,70.438,155.791,66.383,150.806,66.383z M154.847,80.167h-19.359v-4.743
						c0-2.228,1.813-4.041,4.04-4.041h11.278c2.229,0,4.041,1.813,4.041,4.041V80.167z"/>
				</g>
			</g>
		</g>
		<g>
			<g>
				<g>
					<path d="M145.167,83.249c-5.017,0-9.098,4.081-9.098,9.097c0,5.017,4.081,9.098,9.098,9.098c5.016,0,9.097-4.081,9.097-9.098
						C154.264,87.33,150.183,83.249,145.167,83.249z M145.167,96.444c-2.26,0-4.098-1.838-4.098-4.098s1.838-4.097,4.098-4.097
						c2.259,0,4.097,1.838,4.097,4.097S147.426,96.444,145.167,96.444z"/>
				</g>
			</g>
		</g>
		<g>
			<g>
				<g>
					<path d="M150.806,100.216h-11.278c-4.984,0-9.04,4.056-9.04,9.041v7.243c0,1.381,1.119,2.5,2.5,2.5h24.359
						c1.381,0,2.5-1.119,2.5-2.5v-7.243C159.847,104.272,155.791,100.216,150.806,100.216z M154.847,114h-19.359v-4.743
						c0-2.228,1.813-4.041,4.04-4.041h11.278c2.229,0,4.041,1.813,4.041,4.041V114z"/>
				</g>
			</g>
		</g>
		<g>
			<g>
				<g>
					<path d="M188.5,15.582c-5.017,0-9.098,4.081-9.098,9.098c0,5.016,4.081,9.097,9.098,9.097s9.098-4.081,9.098-9.097
						C197.598,19.663,193.517,15.582,188.5,15.582z M188.5,28.777c-2.26,0-4.098-1.838-4.098-4.097s1.838-4.098,4.098-4.098
						s4.098,1.838,4.098,4.098S190.76,28.777,188.5,28.777z"/>
				</g>
			</g>
		</g>
		<g>
			<g>
				<g>
					<path d="M194.139,32.549h-11.277c-4.985,0-9.041,4.056-9.041,9.041v7.243c0,1.381,1.119,2.5,2.5,2.5h24.359
						c1.381,0,2.5-1.119,2.5-2.5V41.59C203.18,36.605,199.124,32.549,194.139,32.549z M198.18,46.333H178.82V41.59
						c0-2.228,1.813-4.041,4.041-4.041h11.277c2.229,0,4.041,1.813,4.041,4.041V46.333z"/>
				</g>
			</g>
		</g>
		<g>
			<g>
				<g>
					<path d="M188.5,49.416c-5.017,0-9.098,4.081-9.098,9.098c0,5.016,4.081,9.097,9.098,9.097s9.098-4.081,9.098-9.097
						C197.598,53.497,193.517,49.416,188.5,49.416z M188.5,62.61c-2.26,0-4.098-1.838-4.098-4.097s1.838-4.098,4.098-4.098
						s4.098,1.838,4.098,4.098S190.76,62.61,188.5,62.61z"/>
				</g>
			</g>
		</g>
		<g>
			<g>
				<g>
					<path d="M194.139,66.383h-11.277c-4.985,0-9.041,4.056-9.041,9.041v7.243c0,1.381,1.119,2.5,2.5,2.5h24.359
						c1.381,0,2.5-1.119,2.5-2.5v-7.243C203.18,70.438,199.124,66.383,194.139,66.383z M198.18,80.167H178.82v-4.743
						c0-2.228,1.813-4.041,4.041-4.041h11.277c2.229,0,4.041,1.813,4.041,4.041V80.167z"/>
				</g>
			</g>
		</g>
		<g>
			<g>
				<g>
					<path d="M188.5,83.249c-5.017,0-9.098,4.081-9.098,9.097c0,5.017,4.081,9.098,9.098,9.098s9.098-4.081,9.098-9.098
						C197.598,87.33,193.517,83.249,188.5,83.249z M188.5,96.444c-2.26,0-4.098-1.838-4.098-4.098s1.838-4.097,4.098-4.097
						s4.098,1.838,4.098,4.097S190.76,96.444,188.5,96.444z"/>
				</g>
			</g>
		</g>
		<g>
			<g>
				<g>
					<path d="M194.139,100.216h-11.277c-4.985,0-9.041,4.056-9.041,9.041v7.243c0,1.381,1.119,2.5,2.5,2.5h24.359
						c1.381,0,2.5-1.119,2.5-2.5v-7.243C203.18,104.272,199.124,100.216,194.139,100.216z M198.18,114H178.82v-4.743
						c0-2.228,1.813-4.041,4.041-4.041h11.277c2.229,0,4.041,1.813,4.041,4.041V114z"/>
				</g>
			</g>
		</g>
		<g>
			<g>
				<g>
					<path d="M231.833,15.582c-5.016,0-9.097,4.081-9.097,9.098c0,5.016,4.081,9.097,9.097,9.097c5.017,0,9.098-4.081,9.098-9.097
						C240.931,19.663,236.85,15.582,231.833,15.582z M231.833,28.777c-2.259,0-4.097-1.838-4.097-4.097s1.838-4.098,4.097-4.098
						c2.26,0,4.098,1.838,4.098,4.098S234.093,28.777,231.833,28.777z"/>
				</g>
			</g>
		</g>
		<g>
			<g>
				<g>
					<path d="M237.473,32.549h-11.278c-4.985,0-9.041,4.056-9.041,9.041v7.243c0,1.381,1.119,2.5,2.5,2.5h24.359
						c1.381,0,2.5-1.119,2.5-2.5V41.59C246.513,36.605,242.457,32.549,237.473,32.549z M241.513,46.333h-19.359V41.59
						c0-2.228,1.813-4.041,4.041-4.041h11.278c2.228,0,4.04,1.813,4.04,4.041V46.333z"/>
				</g>
			</g>
		</g>
		<g>
			<g>
				<g>
					<path d="M231.833,49.416c-5.016,0-9.097,4.081-9.097,9.098c0,5.016,4.081,9.097,9.097,9.097c5.017,0,9.098-4.081,9.098-9.097
						C240.931,53.497,236.85,49.416,231.833,49.416z M231.833,62.61c-2.259,0-4.097-1.838-4.097-4.097s1.838-4.098,4.097-4.098
						c2.26,0,4.098,1.838,4.098,4.098S234.093,62.61,231.833,62.61z"/>
				</g>
			</g>
		</g>
		<g>
			<g>
				<g>
					<path d="M237.473,66.383h-11.278c-4.985,0-9.041,4.056-9.041,9.041v7.243c0,1.381,1.119,2.5,2.5,2.5h24.359
						c1.381,0,2.5-1.119,2.5-2.5v-7.243C246.513,70.438,242.457,66.383,237.473,66.383z M241.513,80.167h-19.359v-4.743
						c0-2.228,1.813-4.041,4.041-4.041h11.278c2.228,0,4.04,1.813,4.04,4.041V80.167z"/>
				</g>
			</g>
		</g>
		<g>
			<g>
				<g>
					<path d="M231.833,83.249c-5.016,0-9.097,4.081-9.097,9.097c0,5.017,4.081,9.098,9.097,9.098c5.017,0,9.098-4.081,9.098-9.098
						C240.931,87.33,236.85,83.249,231.833,83.249z M231.833,96.444c-2.259,0-4.097-1.838-4.097-4.098s1.838-4.097,4.097-4.097
						c2.26,0,4.098,1.838,4.098,4.097S234.093,96.444,231.833,96.444z"/>
				</g>
			</g>
		</g>
		<g>
			<g>
				<g>
					<path d="M237.473,100.216h-11.278c-4.985,0-9.041,4.056-9.041,9.041v7.243c0,1.381,1.119,2.5,2.5,2.5h24.359
						c1.381,0,2.5-1.119,2.5-2.5v-7.243C246.513,104.272,242.457,100.216,237.473,100.216z M241.513,114h-19.359v-4.743
						c0-2.228,1.813-4.041,4.041-4.041h11.278c2.228,0,4.04,1.813,4.04,4.041V114z"/>
				</g>
			</g>
		</g>
	</g>
</g>
<g id="Layer_51">
</g>
<g id="Layer_52">
</g>
<g id="Layer_53">
</g>
<g id="Layer_54">
</g>
<g id="Layer_55">
</g>
<g id="Layer_56">
</g>
<g id="Layer_57">
</g>
<g id="Layer_58">
</g>
<g id="Layer_59">
</g>
<g id="Layer_60">
</g>
<g id="Layer_61">
</g>
<g id="Layer_62">
</g>
<g id="Layer_63">
</g>
<g id="Layer_64">
</g>
<g id="Layer_65">
</g>
<g id="Layer_66">
</g>
<g id="Layer_67">
</g>
<g id="Layer_68">
</g>
<g id="Layer_69">
</g>
<g id="Layer_70">
</g>
<g id="Layer_71">
</g>
<g id="Layer_72">
</g>
<g id="Layer_73">
</g>
<g id="Layer_74">
</g>
<g id="Layer_75">
</g>
<g id="Layer_76">
</g>
<g id="Layer_77">
</g>
<g id="Layer_78">
</g>
<g id="Layer_79">
</g>
<g id="Layer_80">
</g>
</svg>
