<?xml version="1.0" encoding="utf-8"?>
<!-- Generator: Adobe Illustrator 24.0.0, SVG Export Plug-In . SVG Version: 6.00 Build 0)  -->
<svg version="1.1" xmlns="http://www.w3.org/2000/svg" xmlns:xlink="http://www.w3.org/1999/xlink" x="0px" y="0px"
	 viewBox="0 0 256 256" style="enable-background:new 0 0 256 256;" xml:space="preserve">
<style type="text/css">
	.st0{fill:#6CADEF;}
	.st1{fill:#F9D0B4;}
	.st2{fill:#5B5D60;}
	.st3{fill:#9BE5F9;}
	.st4{fill:#FC657E;}
	.st5{fill:#70D6F9;}
	.st6{fill:#F5C84C;}
	.st7{fill:#F98FA6;}
	.st8{fill:#FED690;}
	.st9{fill:#87D147;}
	.st10{fill:#B2E26D;}
	.st11{fill:#EDF4FC;}
	.st12{fill:#FCDD86;}
	.st13{fill:#754E34;}
	.st14{fill:#B598F9;}
	.st15{fill:#5290DB;}
	.st16{fill:#C7D7E5;}
	.st17{fill:#C18E6B;}
	.st18{fill:#DAE6F1;}
	.st19{fill:#3CAADC;}
	.st20{fill:#818182;}
	.st21{fill:#CBEFF7;}
	.st22{fill:#FCA265;}
	.st23{fill:#A57453;}
	.st24{fill:#8652D8;}
	.st25{fill:#966AEA;}
	.st26{fill:#FEB872;}
	.st27{fill:#EDB311;}
	.st28{fill:#EF4460;}
</style>
<g id="Layer_1">
</g>
<g id="Layer_2">
</g>
<g id="Layer_3">
</g>
<g id="Layer_4">
</g>
<g id="Layer_5">
</g>
<g id="Layer_6">
</g>
<g id="Layer_7">
</g>
<g id="Layer_8">
</g>
<g id="Layer_9">
</g>
<g id="Layer_10">
</g>
<g id="Layer_11">
</g>
<g id="Layer_12">
</g>
<g id="Layer_13">
</g>
<g id="Layer_14">
</g>
<g id="Layer_15">
</g>
<g id="Layer_16">
</g>
<g id="Layer_17">
</g>
<g id="Layer_18">
</g>
<g id="Layer_19">
</g>
<g id="Layer_20">
</g>
<g id="Layer_21">
</g>
<g id="Layer_22">
</g>
<g id="Layer_23">
</g>
<g id="Layer_24">
</g>
<g id="Layer_25">
</g>
<g id="Layer_26">
</g>
<g id="Layer_27">
</g>
<g id="Layer_28">
</g>
<g id="Layer_29">
</g>
<g id="Layer_30">
</g>
<g id="Layer_31">
</g>
<g id="Layer_32">
</g>
<g id="Layer_33">
</g>
<g id="Layer_34">
</g>
<g id="Layer_35">
</g>
<g id="Layer_36">
	<g>
		<g>
			<g>
				<path class="st11" d="M191.943,242.208c-19.561-10.457-41.672-15.983-63.943-15.983c-22.271,0-44.383,5.526-63.943,15.983
					c-2.922,1.562-4.025,5.197-2.463,8.119c1.563,2.923,5.195,4.024,8.12,2.463c17.826-9.528,37.981-14.565,58.286-14.565
					c20.306,0,40.46,5.037,58.287,14.565c2.919,1.561,6.556,0.464,8.119-2.463C195.969,247.405,194.866,243.77,191.943,242.208z"/>
			</g>
		</g>
		<g>
			<g>
				<path class="st0" d="M226.925,32.5H29.075c-6.779,0-12.325,5.546-12.325,12.325v141.349c0,6.779,5.546,12.325,12.325,12.325
					h197.849c6.779,0,12.325-5.546,12.325-12.325V44.825C239.25,38.046,233.704,32.5,226.925,32.5z"/>
			</g>
		</g>
		<g>
			<g>
				<path class="st16" d="M134,198.5v11c0,3.313-2.687,6-6,6s-6-2.687-6-6v-11h-12.719v29.042
					c6.192-0.863,12.448-1.317,18.719-1.317c6.271,0,12.527,0.454,18.719,1.317V198.5H134z"/>
			</g>
		</g>
		<g>
			<g>
				<path class="st7" d="M226.925,44.5H29.075c-0.152,0-0.325,0.173-0.325,0.325v141.35c0,0.152,0.173,0.325,0.325,0.325h197.85
					c0.152,0,0.325-0.173,0.325-0.325V44.825C227.25,44.673,227.077,44.5,226.925,44.5z"/>
			</g>
		</g>
		<g>
			<g>
				<path class="st20" d="M86.066,87.669L86.066,87.669c-3.909,0-7.078,3.169-7.078,7.078v48.456c0,3.909,3.169,7.078,7.078,7.078h0
					c3.909,0,7.078-3.169,7.078-7.078V94.747C93.144,90.838,89.975,87.669,86.066,87.669z"/>
			</g>
		</g>
		<g>
			<g>
				<path class="st20" d="M71.911,93.386c-3.909,0-7.078,3.169-7.078,7.078v37.023c0,3.909,3.169,7.078,7.078,7.078
					c3.909,0,7.078-3.169,7.078-7.078v-37.023C78.988,96.554,75.82,93.386,71.911,93.386z"/>
			</g>
		</g>
		<g>
			<g>
				<path class="st2" d="M61.021,111.897c-3.909,0-7.078,3.169-7.078,7.078s3.169,7.078,7.078,7.078h3.811v-14.156H61.021z"/>
			</g>
		</g>
		<g>
			<g>
				<path class="st20" d="M169.934,87.669c-3.909,0-7.078,3.169-7.078,7.078v48.456c0,3.909,3.169,7.078,7.078,7.078
					c3.909,0,7.078-3.169,7.078-7.078V94.747C177.012,90.838,173.843,87.669,169.934,87.669z"/>
			</g>
		</g>
		<g>
			<g>
				<path class="st20" d="M184.089,93.386L184.089,93.386c-3.909,0-7.078,3.169-7.078,7.078v37.023c0,3.909,3.169,7.078,7.078,7.078
					h0c3.909,0,7.078-3.169,7.078-7.078v-37.023C191.167,96.554,187.998,93.386,184.089,93.386z"/>
			</g>
		</g>
		<g>
			<g>
				<path class="st2" d="M194.979,111.897h-3.811v14.156h3.811c3.909,0,7.078-3.169,7.078-7.078S198.888,111.897,194.979,111.897z"
					/>
			</g>
		</g>
		<g>
			<g>
				<rect x="93.144" y="111.897" class="st11" width="69.711" height="14.156"/>
			</g>
		</g>
		<g>
			<g>
				<rect x="137.562" y="111.897" class="st16" width="12.494" height="14.156"/>
			</g>
		</g>
		<g>
			<g>
				<rect x="105.944" y="111.897" class="st16" width="11.319" height="14.156"/>
			</g>
		</g>
		<g>
			<g>
				<path class="st5" d="M30.206,225.1h-2.4v-2.3c0-1.8-1.4-3.2-3.2-3.2c-1.7,0-3.2,1.4-3.2,3.1v2.4h-2.3c-1.8,0-3.2,1.4-3.2,3.2
					c-0.1,1.7,1.3,3.2,3.2,3.2h2.3v2.3c0,1.8,1.4,3.2,3.2,3.2c1.7,0,3.2-1.4,3.2-3.1v-2.4h2.3c1.8,0,3.2-1.4,3.2-3.2
					C33.306,226.6,31.906,225.1,30.206,225.1z"/>
			</g>
		</g>
		<g>
			<g>
				<path class="st9" d="M137.506,0c-1.878,0-3.4,1.522-3.4,3.4c0,1.878,1.522,3.4,3.4,3.4c1.878,0,3.4-1.522,3.4-3.4
					C140.906,1.522,139.384,0,137.506,0z"/>
			</g>
		</g>
		<g>
			<g>
				<path class="st6" d="M38.506,249.2c-1.878,0-3.4,1.522-3.4,3.4s1.522,3.4,3.4,3.4c1.878,0,3.4-1.522,3.4-3.4
					S40.384,249.2,38.506,249.2z"/>
			</g>
		</g>
		<g>
			<g>
				<path class="st4" d="M227.288,213.2c-3.1-0.6-5.6-3-6.2-6.1c0-0.1-0.3-0.1-0.3,0c-0.6,3.1-3.1,5.5-6.2,6.1c-0.1,0-0.1,0.2,0,0.3
					c3.1,0.6,5.6,3,6.2,6.1c0,0.1,0.3,0.1,0.3,0c0.6-3.1,3.1-5.5,6.2-6.1C227.388,213.4,227.388,213.2,227.288,213.2z"/>
			</g>
		</g>
		<g>
			<g>
				<path class="st6" d="M186.288,13.2c-4.5-0.8-8-4.3-8.9-8.7c0-0.2-0.4-0.2-0.4,0c-0.9,4.4-4.4,7.9-8.9,8.7c-0.2,0-0.2,0.3,0,0.4
					c4.5,0.8,8,4.3,8.9,8.7c0,0.2,0.4,0.2,0.4,0c0.9-4.4,4.4-7.9,8.9-8.7C186.488,13.5,186.488,13.2,186.288,13.2z"/>
			</g>
		</g>
		<g>
			<g>
				<g>
					<g>
						<path d="M197.249,245.032c-0.659-2.173-2.125-3.959-4.127-5.028c-19.921-10.65-42.439-16.279-65.122-16.279
							s-45.201,5.629-65.122,16.278c-2.002,1.07-3.468,2.856-4.127,5.029c-0.659,2.173-0.432,4.472,0.638,6.474
							c2.208,4.131,7.367,5.696,11.503,3.489c17.465-9.335,37.213-14.27,57.107-14.27c19.894,0,39.642,4.935,57.108,14.27
							c1.25,0.669,2.617,1.008,3.997,1.008c0.828,0,1.66-0.122,2.475-0.369c2.174-0.659,3.961-2.125,5.031-4.128
							C197.682,249.504,197.908,247.205,197.249,245.032z M192.201,249.149c-0.44,0.825-1.176,1.428-2.071,1.699
							c-0.895,0.271-1.841,0.177-2.665-0.263c0,0,0,0,0,0c-18.189-9.722-38.752-14.86-59.465-14.86
							c-20.714,0-41.276,5.139-59.463,14.86c-1.705,0.908-3.829,0.266-4.738-1.436c-0.44-0.824-0.534-1.771-0.262-2.666
							c0.271-0.895,0.875-1.629,1.699-2.07c19.198-10.263,40.902-15.688,62.765-15.688s43.566,5.425,62.765,15.688
							c0.825,0.44,1.428,1.176,1.699,2.07C192.736,247.377,192.643,248.324,192.201,249.149z"/>
					</g>
				</g>
			</g>
		</g>
		<g>
			<g>
				<g>
					<path d="M226.925,30H29.075C20.9,30,14.25,36.65,14.25,44.825v141.35C14.25,194.35,20.9,201,29.075,201h197.85
						c8.175,0,14.825-6.65,14.825-14.825V44.825C241.75,36.65,235.1,30,226.925,30z M236.75,186.175
						c0,5.417-4.408,9.825-9.825,9.825H29.075c-5.417,0-9.825-4.408-9.825-9.825V44.825c0-5.417,4.408-9.825,9.825-9.825h197.85
						c5.417,0,9.825,4.408,9.825,9.825V186.175z"/>
				</g>
			</g>
		</g>
		<g>
			<g>
				<g>
					<path d="M146.719,196H134c-1.381,0-2.5,1.119-2.5,2.5v11c0,1.93-1.57,3.5-3.5,3.5s-3.5-1.57-3.5-3.5v-11
						c0-1.381-1.119-2.5-2.5-2.5h-12.719c-1.381,0-2.5,1.119-2.5,2.5v29.042c0,0.723,0.313,1.411,0.859,1.886
						c0.458,0.398,1.042,0.614,1.641,0.614c0.115,0,0.23-0.008,0.345-0.024c6.157-0.858,12.339-1.293,18.374-1.293
						c6.034,0,12.216,0.435,18.374,1.293c0.718,0.103,1.441-0.115,1.986-0.59c0.546-0.475,0.859-1.163,0.859-1.886V198.5
						C149.219,197.119,148.1,196,146.719,196z M144.219,224.698c-5.441-0.646-10.884-0.974-16.219-0.974
						c-5.335,0-10.777,0.327-16.219,0.974V201h7.719v8.5c0,4.687,3.813,8.5,8.5,8.5s8.5-3.813,8.5-8.5V201h7.719V224.698z"/>
				</g>
			</g>
		</g>
		<g>
			<g>
				<g>
					<path d="M226.925,42H29.075c-1.531,0-2.825,1.294-2.825,2.825v141.35c0,1.531,1.294,2.825,2.825,2.825h197.85
						c1.531,0,2.825-1.294,2.825-2.825V44.825C229.75,43.294,228.456,42,226.925,42z M224.75,184H31.25V47h193.5V184z"/>
				</g>
			</g>
		</g>
		<g>
			<g>
				<g>
					<path d="M86.066,85.169c-5.281,0-9.578,4.296-9.578,9.578v48.457c0,5.281,4.297,9.578,9.578,9.578s9.578-4.297,9.578-9.578
						V94.747C95.644,89.465,91.348,85.169,86.066,85.169z M90.644,143.203c0,2.524-2.054,4.578-4.578,4.578
						c-2.524,0-4.578-2.054-4.578-4.578V94.747c0-2.524,2.054-4.578,4.578-4.578c2.524,0,4.578,2.054,4.578,4.578V143.203z"/>
				</g>
			</g>
		</g>
		<g>
			<g>
				<g>
					<path d="M71.911,90.886c-5.281,0-9.578,4.296-9.578,9.578v37.023c0,5.281,4.297,9.578,9.578,9.578s9.578-4.297,9.578-9.578
						v-37.023C81.488,95.182,77.192,90.886,71.911,90.886z M76.488,137.486c0,2.524-2.054,4.578-4.578,4.578
						c-2.524,0-4.578-2.054-4.578-4.578v-37.023c0-2.524,2.054-4.578,4.578-4.578c2.524,0,4.578,2.054,4.578,4.578V137.486z"/>
				</g>
			</g>
		</g>
		<g>
			<g>
				<g>
					<g>
						<path d="M64.833,109.397h-3.811c-5.281,0-9.578,4.297-9.578,9.578s4.297,9.578,9.578,9.578h3.811c1.381,0,2.5-1.119,2.5-2.5
							v-14.156C67.333,110.516,66.213,109.397,64.833,109.397z M62.333,123.553h-1.311c-2.524,0-4.578-2.054-4.578-4.578
							c0-2.524,2.054-4.578,4.578-4.578h1.311V123.553z"/>
					</g>
				</g>
			</g>
		</g>
		<g>
			<g>
				<g>
					<path d="M169.934,85.169c-5.281,0-9.578,4.296-9.578,9.578v48.457c0,5.281,4.296,9.578,9.578,9.578s9.578-4.297,9.578-9.578
						V94.747C179.512,89.465,175.215,85.169,169.934,85.169z M174.512,143.203c0,2.524-2.054,4.578-4.578,4.578
						c-2.524,0-4.578-2.054-4.578-4.578V94.747c0-2.524,2.054-4.578,4.578-4.578c2.524,0,4.578,2.054,4.578,4.578V143.203z"/>
				</g>
			</g>
		</g>
		<g>
			<g>
				<g>
					<path d="M184.089,90.886c-5.281,0-9.578,4.296-9.578,9.578v37.023c0,5.281,4.296,9.578,9.578,9.578s9.578-4.297,9.578-9.578
						v-37.023C193.667,95.182,189.371,90.886,184.089,90.886z M188.667,137.486c0,2.524-2.054,4.578-4.578,4.578
						c-2.524,0-4.578-2.054-4.578-4.578v-37.023c0-2.524,2.054-4.578,4.578-4.578c2.524,0,4.578,2.054,4.578,4.578V137.486z"/>
				</g>
			</g>
		</g>
		<g>
			<g>
				<g>
					<g>
						<path d="M194.979,109.397h-3.811c-1.381,0-2.5,1.119-2.5,2.5v14.156c0,1.381,1.119,2.5,2.5,2.5h3.811
							c5.281,0,9.578-4.296,9.578-9.578S200.26,109.397,194.979,109.397z M194.979,123.553h-1.311v-9.156h1.311
							c2.524,0,4.578,2.054,4.578,4.578C199.557,121.499,197.503,123.553,194.979,123.553z"/>
					</g>
				</g>
			</g>
		</g>
		<g>
			<g>
				<g>
					<path d="M162.856,109.397H93.144c-1.381,0-2.5,1.119-2.5,2.5v14.156c0,1.381,1.119,2.5,2.5,2.5h69.712
						c1.381,0,2.5-1.119,2.5-2.5v-14.156C165.356,110.516,164.237,109.397,162.856,109.397z M160.356,123.553H95.644v-9.156h64.712
						V123.553z"/>
				</g>
			</g>
		</g>
		<g>
			<g>
				<g>
					<path d="M150.056,109.397h-12.494c-1.381,0-2.5,1.119-2.5,2.5v14.156c0,1.381,1.119,2.5,2.5,2.5h12.494
						c1.381,0,2.5-1.119,2.5-2.5v-14.156C152.556,110.516,151.437,109.397,150.056,109.397z M147.556,123.553h-7.494v-9.156h7.494
						V123.553z"/>
				</g>
			</g>
		</g>
		<g>
			<g>
				<g>
					<path d="M117.263,109.397h-11.319c-1.381,0-2.5,1.119-2.5,2.5v14.156c0,1.381,1.119,2.5,2.5,2.5h11.319
						c1.381,0,2.5-1.119,2.5-2.5v-14.156C119.763,110.516,118.644,109.397,117.263,109.397z M114.763,123.553h-6.319v-9.156h6.319
						V123.553z"/>
				</g>
			</g>
		</g>
	</g>
</g>
<g id="Layer_37">
</g>
<g id="Layer_38">
</g>
<g id="Layer_39">
</g>
<g id="Layer_40">
</g>
<g id="Layer_41">
</g>
<g id="Layer_42">
</g>
<g id="Layer_43">
</g>
<g id="Layer_44">
</g>
<g id="Layer_45">
</g>
<g id="Layer_46">
</g>
<g id="Layer_47">
</g>
<g id="Layer_48">
</g>
<g id="Layer_49">
</g>
<g id="Layer_50">
</g>
<g id="Layer_51">
</g>
<g id="Layer_52">
</g>
<g id="Layer_53">
</g>
<g id="Layer_54">
</g>
<g id="Layer_55">
</g>
<g id="Layer_56">
</g>
<g id="Layer_57">
</g>
<g id="Layer_58">
</g>
<g id="Layer_59">
</g>
<g id="Layer_60">
</g>
<g id="Layer_61">
</g>
<g id="Layer_62">
</g>
<g id="Layer_63">
</g>
<g id="Layer_64">
</g>
<g id="Layer_65">
</g>
<g id="Layer_66">
</g>
<g id="Layer_67">
</g>
<g id="Layer_68">
</g>
<g id="Layer_69">
</g>
<g id="Layer_70">
</g>
<g id="Layer_71">
</g>
<g id="Layer_72">
</g>
<g id="Layer_73">
</g>
<g id="Layer_74">
</g>
<g id="Layer_75">
</g>
<g id="Layer_76">
</g>
<g id="Layer_77">
</g>
<g id="Layer_78">
</g>
<g id="Layer_79">
</g>
<g id="Layer_80">
</g>
</svg>
