<?xml version="1.0" encoding="utf-8"?>
<!-- Generator: Adobe Illustrator 24.0.0, SVG Export Plug-In . SVG Version: 6.00 Build 0)  -->
<svg version="1.1" xmlns="http://www.w3.org/2000/svg" xmlns:xlink="http://www.w3.org/1999/xlink" x="0px" y="0px"
	 viewBox="0 0 256 256" style="enable-background:new 0 0 256 256;" xml:space="preserve">
<style type="text/css">
	.st0{fill:#6CADEF;}
	.st1{fill:#F9D0B4;}
	.st2{fill:#5B5D60;}
	.st3{fill:#9BE5F9;}
	.st4{fill:#FC657E;}
	.st5{fill:#70D6F9;}
	.st6{fill:#F5C84C;}
	.st7{fill:#F98FA6;}
	.st8{fill:#FED690;}
	.st9{fill:#87D147;}
	.st10{fill:#B2E26D;}
	.st11{fill:#EDF4FC;}
	.st12{fill:#FCDD86;}
	.st13{fill:#754E34;}
	.st14{fill:#B598F9;}
	.st15{fill:#5290DB;}
	.st16{fill:#C7D7E5;}
	.st17{fill:#C18E6B;}
	.st18{fill:#DAE6F1;}
	.st19{fill:#3CAADC;}
	.st20{fill:#818182;}
	.st21{fill:#CBEFF7;}
	.st22{fill:#FCA265;}
	.st23{fill:#A57453;}
	.st24{fill:#8652D8;}
	.st25{fill:#966AEA;}
	.st26{fill:#FEB872;}
	.st27{fill:#EDB311;}
	.st28{fill:#EF4460;}
</style>
<g id="Layer_1">
</g>
<g id="Layer_2">
</g>
<g id="Layer_3">
</g>
<g id="Layer_4">
</g>
<g id="Layer_5">
</g>
<g id="Layer_6">
</g>
<g id="Layer_7">
</g>
<g id="Layer_8">
</g>
<g id="Layer_9">
</g>
<g id="Layer_10">
</g>
<g id="Layer_11">
</g>
<g id="Layer_12">
</g>
<g id="Layer_13">
</g>
<g id="Layer_14">
</g>
<g id="Layer_15">
</g>
<g id="Layer_16">
</g>
<g id="Layer_17">
</g>
<g id="Layer_18">
</g>
<g id="Layer_19">
</g>
<g id="Layer_20">
</g>
<g id="Layer_21">
</g>
<g id="Layer_22">
</g>
<g id="Layer_23">
</g>
<g id="Layer_24">
</g>
<g id="Layer_25">
</g>
<g id="Layer_26">
</g>
<g id="Layer_27">
</g>
<g id="Layer_28">
</g>
<g id="Layer_29">
</g>
<g id="Layer_30">
</g>
<g id="Layer_31">
	<g>
		<g>
			<g>
				<circle class="st5" cx="128" cy="128" r="80.5"/>
			</g>
		</g>
		<g>
			<g>
				<circle class="st4" cx="188" cy="24.791" r="12.519"/>
			</g>
		</g>
		<g>
			<g>
				
					<ellipse transform="matrix(0.9871 -0.1602 0.1602 0.9871 -36.1576 13.8779)" class="st4" cx="68" cy="231.209" rx="12.519" ry="12.519"/>
			</g>
		</g>
		<g>
			<g>
				
					<ellipse transform="matrix(0.9871 -0.1602 0.1602 0.9871 -10.5723 4.8491)" class="st4" cx="24.791" cy="68" rx="12.519" ry="12.519"/>
			</g>
		</g>
		<g>
			<g>
				<circle class="st4" cx="231.209" cy="188" r="12.519"/>
			</g>
		</g>
		<g>
			<g>
				<circle class="st7" cx="227" cy="75" r="8.227"/>
			</g>
		</g>
		<g>
			<g>
				
					<ellipse transform="matrix(0.9871 -0.1602 0.1602 0.9871 -28.6186 6.9825)" class="st7" cx="29" cy="181" rx="8.227" ry="8.227"/>
			</g>
		</g>
		<g>
			<g>
				<path class="st10" d="M169.55,59.043c-4.138,1.051-11.55,4.058-15.05,12.457c-4.757,11.418,16,3,21,16s5,16,13,19s9,24-3,29
					s-22,18-18,27s5,18-2,25c-3.759,3.759-3.48,8.958-2.416,12.968C189.964,187.43,208.5,159.881,208.5,128
					C208.5,98.744,192.891,73.138,169.55,59.043z"/>
			</g>
		</g>
		<g>
			<g>
				<path class="st10" d="M128.5,84.5c8.147-3.395,8.919-7.711,8.575-10.133c-0.16-1.124-0.891-2.1-1.93-2.559
					c-11.974-5.299-29.274,7.507-45.646,2.692c-7.485-2.202-13.806-3.045-18.538-3.301c-11.754,11.803-19.87,27.23-22.521,44.462
					c5.43,3.29,11.058,7.697,11.058,11.839c0,4.205-5.802,8.132-11.307,10.914c3.243,25.089,18.022,46.551,38.86,58.889
					c1.612-8.762,6.434-18.778,9.447-24.803c5-10-6-11-14-19s-3-18,3-23s16,3,24,3s14-1,19-6s0-13-7-20S116.5,89.5,128.5,84.5z"/>
			</g>
		</g>
		<g>
			<g>
				<path class="st10" d="M142.012,143.285c-5.568-5.568-8.946,0.913-14.443,3.928c-3.149,1.727-5.017,5.123-5.017,8.714v0
					c0,4.526,3.003,8.519,7.367,9.716c5.344,1.466,12.471,2.03,17.4-2.899C156.165,153.9,149.089,150.362,142.012,143.285z"/>
			</g>
		</g>
		<g>
			<g>
				<path class="st10" d="M108.733,195.969c-2.738-2.739-6.698-2.425-9.667-1.611c-2.425,0.665-4.093,2.884-4.093,5.398
					c0,0.616,0.11,1.217,0.298,1.787c3.741,1.667,7.63,3.061,11.646,4.148C110.393,202.444,113.171,200.406,108.733,195.969z"/>
			</g>
		</g>
		<g>
			<g>
				<path class="st5" d="M193.206,215.1h-2.4v-2.3c0-1.8-1.4-3.2-3.2-3.2c-1.7,0-3.2,1.4-3.2,3.1v2.4h-2.3c-1.8,0-3.2,1.4-3.2,3.2
					c-0.1,1.7,1.3,3.2,3.2,3.2h2.3v2.3c0,1.8,1.4,3.2,3.2,3.2c1.7,0,3.2-1.4,3.2-3.1v-2.4h2.3c1.8,0,3.2-1.4,3.2-3.2
					C196.306,216.6,194.906,215.1,193.206,215.1z"/>
			</g>
		</g>
		<g>
			<g>
				<path class="st6" d="M157.506,227.5c-1.878,0-3.4,1.522-3.4,3.4c0,1.878,1.522,3.4,3.4,3.4c1.878,0,3.4-1.522,3.4-3.4
					C160.906,229.022,159.384,227.5,157.506,227.5z"/>
			</g>
		</g>
		<g>
			<g>
				<path class="st9" d="M111.506,16c-1.878,0-3.4,1.522-3.4,3.4c0,1.878,1.522,3.4,3.4,3.4c1.878,0,3.4-1.522,3.4-3.4
					C114.906,17.522,113.384,16,111.506,16z"/>
			</g>
		</g>
		<g>
			<g>
				<path class="st4" d="M29.288,142.2c-3.1-0.6-5.6-3-6.2-6.1c0-0.1-0.3-0.1-0.3,0c-0.6,3.1-3.1,5.5-6.2,6.1c-0.1,0-0.1,0.2,0,0.3
					c3.1,0.6,5.6,3,6.2,6.1c0,0.1,0.3,0.1,0.3,0c0.6-3.1,3.1-5.5,6.2-6.1C29.388,142.4,29.388,142.2,29.288,142.2z"/>
			</g>
		</g>
		<g>
			<g>
				<path class="st6" d="M89.288,33.2c-4.5-0.8-8-4.3-8.9-8.7c0-0.2-0.4-0.2-0.4,0c-0.9,4.4-4.4,7.9-8.9,8.7c-0.2,0-0.2,0.3,0,0.4
					c4.5,0.8,8,4.3,8.9,8.7c0,0.2,0.4,0.2,0.4,0c0.9-4.4,4.4-7.9,8.9-8.7C89.488,33.5,89.488,33.2,89.288,33.2z"/>
			</g>
		</g>
		<g>
			<g>
				<path d="M188,2.559c-1.381,0-2.5,1.119-2.5,2.5v5.117c0,1.381,1.119,2.5,2.5,2.5s2.5-1.119,2.5-2.5V5.059
					C190.5,3.678,189.381,2.559,188,2.559z"/>
			</g>
		</g>
		<g>
			<g>
				<path d="M191.198,0h-6.396c-1.381,0-2.5,1.119-2.5,2.5s1.119,2.5,2.5,2.5h6.396c1.381,0,2.5-1.119,2.5-2.5S192.579,0,191.198,0z
					"/>
			</g>
		</g>
		<g>
			<g>
				<path d="M188,36.906c-1.381,0-2.5,1.119-2.5,2.5v5.117c0,1.381,1.119,2.5,2.5,2.5s2.5-1.119,2.5-2.5v-5.117
					C190.5,38.025,189.381,36.906,188,36.906z"/>
			</g>
		</g>
		<g>
			<g>
				<path d="M191.198,44.582h-6.396c-1.381,0-2.5,1.119-2.5,2.5s1.119,2.5,2.5,2.5h6.396c1.381,0,2.5-1.119,2.5-2.5
					S192.579,44.582,191.198,44.582z"/>
			</g>
		</g>
		<g>
			<g>
				<path d="M176.593,15.318l-4.432-2.558c-1.198-0.691-2.726-0.28-3.415,0.915c-0.69,1.196-0.281,2.725,0.915,3.415l4.432,2.558
					c0.394,0.228,0.824,0.335,1.248,0.335c0.864,0,1.705-0.449,2.167-1.25C178.198,17.537,177.789,16.008,176.593,15.318z"/>
			</g>
		</g>
		<g>
			<g>
				<path d="M171.545,8.711c-1.197-0.692-2.725-0.281-3.415,0.915l-3.198,5.539c-0.69,1.196-0.281,2.725,0.915,3.415
					c0.394,0.228,0.824,0.335,1.248,0.335c0.864,0,1.705-0.448,2.167-1.25l3.198-5.539C173.15,10.93,172.741,9.401,171.545,8.711z"
					/>
			</g>
		</g>
		<g>
			<g>
				<path d="M206.339,32.492l-4.432-2.559c-1.196-0.692-2.725-0.28-3.415,0.915c-0.69,1.196-0.281,2.725,0.915,3.415l4.432,2.559
					c0.394,0.228,0.824,0.335,1.248,0.335c0.864,0,1.705-0.449,2.167-1.25C207.944,34.711,207.535,33.182,206.339,32.492z"/>
			</g>
		</g>
		<g>
			<g>
				<path d="M210.153,31.001c-1.197-0.692-2.726-0.281-3.415,0.915l-3.198,5.539c-0.69,1.196-0.281,2.725,0.915,3.415
					c0.394,0.228,0.824,0.335,1.248,0.335c0.864,0,1.705-0.448,2.167-1.25l3.198-5.539
					C211.759,33.221,211.349,31.692,210.153,31.001z"/>
			</g>
		</g>
		<g>
			<g>
				<path d="M177.508,30.848c-0.69-1.196-2.22-1.607-3.415-0.915l-4.432,2.559c-1.196,0.69-1.605,2.219-0.915,3.415
					c0.463,0.802,1.303,1.25,2.167,1.25c0.424,0,0.854-0.108,1.248-0.335l4.432-2.559C177.789,33.573,178.198,32.044,177.508,30.848
					z"/>
			</g>
		</g>
		<g>
			<g>
				<path d="M172.46,37.456l-3.198-5.539c-0.69-1.196-2.22-1.606-3.415-0.915c-1.196,0.69-1.605,2.219-0.915,3.415l3.198,5.539
					c0.463,0.802,1.303,1.25,2.167,1.25c0.424,0,0.854-0.108,1.248-0.335C172.741,40.18,173.15,38.651,172.46,37.456z"/>
			</g>
		</g>
		<g>
			<g>
				<path d="M207.254,13.675c-0.69-1.195-2.22-1.606-3.415-0.915l-4.432,2.558c-1.196,0.69-1.605,2.219-0.915,3.415
					c0.463,0.802,1.303,1.25,2.167,1.25c0.424,0,0.854-0.108,1.248-0.335l4.432-2.558C207.535,16.4,207.944,14.871,207.254,13.675z"
					/>
			</g>
		</g>
		<g>
			<g>
				<path d="M211.068,15.165l-3.198-5.539c-0.69-1.196-2.22-1.606-3.415-0.915c-1.196,0.69-1.605,2.219-0.915,3.415l3.198,5.539
					c0.463,0.802,1.303,1.25,2.167,1.25c0.424,0,0.854-0.108,1.248-0.335C211.349,17.89,211.759,16.361,211.068,15.165z"/>
			</g>
		</g>
		<g>
			<g>
				<path d="M68,208.977c-1.381,0-2.5,1.119-2.5,2.5v5.117c0,1.381,1.119,2.5,2.5,2.5s2.5-1.119,2.5-2.5v-5.117
					C70.5,210.096,69.381,208.977,68,208.977z"/>
			</g>
		</g>
		<g>
			<g>
				<path d="M71.198,206.418h-6.396c-1.381,0-2.5,1.119-2.5,2.5s1.119,2.5,2.5,2.5h6.396c1.381,0,2.5-1.119,2.5-2.5
					S72.579,206.418,71.198,206.418z"/>
			</g>
		</g>
		<g>
			<g>
				<path d="M68,243.325c-1.381,0-2.5,1.119-2.5,2.5v5.117c0,1.381,1.119,2.5,2.5,2.5s2.5-1.119,2.5-2.5v-5.117
					C70.5,244.444,69.381,243.325,68,243.325z"/>
			</g>
		</g>
		<g>
			<g>
				<path d="M71.198,251h-6.396c-1.381,0-2.5,1.119-2.5,2.5s1.119,2.5,2.5,2.5h6.396c1.381,0,2.5-1.119,2.5-2.5
					S72.579,251,71.198,251z"/>
			</g>
		</g>
		<g>
			<g>
				<path d="M56.593,221.737l-4.432-2.559c-1.197-0.693-2.726-0.28-3.415,0.915c-0.69,1.196-0.281,2.725,0.915,3.415l4.432,2.559
					c0.394,0.228,0.824,0.335,1.248,0.335c0.864,0,1.705-0.449,2.167-1.25C58.198,223.956,57.789,222.427,56.593,221.737z"/>
			</g>
		</g>
		<g>
			<g>
				<path d="M51.545,215.129c-1.197-0.692-2.725-0.281-3.415,0.915l-3.198,5.539c-0.69,1.196-0.281,2.725,0.915,3.415
					c0.394,0.228,0.824,0.335,1.248,0.335c0.864,0,1.705-0.448,2.167-1.25l3.198-5.539C53.15,217.349,52.741,215.82,51.545,215.129z
					"/>
			</g>
		</g>
		<g>
			<g>
				<path d="M86.339,238.91l-4.432-2.558c-1.199-0.692-2.725-0.281-3.415,0.915c-0.69,1.196-0.281,2.725,0.915,3.415l4.432,2.558
					c0.394,0.228,0.824,0.335,1.248,0.335c0.864,0,1.705-0.449,2.167-1.25C87.944,241.129,87.535,239.6,86.339,238.91z"/>
			</g>
		</g>
		<g>
			<g>
				<path d="M90.153,237.42c-1.197-0.692-2.726-0.281-3.415,0.915l-3.198,5.539c-0.69,1.196-0.281,2.725,0.915,3.415
					c0.394,0.228,0.824,0.335,1.248,0.335c0.864,0,1.705-0.448,2.167-1.25l3.198-5.539C91.759,239.639,91.349,238.11,90.153,237.42z
					"/>
			</g>
		</g>
		<g>
			<g>
				<path d="M57.508,237.267c-0.69-1.196-2.22-1.607-3.415-0.915l-4.432,2.558c-1.196,0.69-1.605,2.219-0.915,3.415
					c0.463,0.802,1.303,1.25,2.167,1.25c0.424,0,0.854-0.108,1.248-0.335l4.432-2.558C57.789,239.992,58.198,238.463,57.508,237.267
					z"/>
			</g>
		</g>
		<g>
			<g>
				<path d="M52.46,243.874l-3.198-5.539c-0.69-1.196-2.22-1.605-3.415-0.915c-1.196,0.69-1.605,2.219-0.915,3.415l3.198,5.539
					c0.463,0.802,1.303,1.25,2.167,1.25c0.424,0,0.854-0.108,1.248-0.335C52.741,246.599,53.15,245.07,52.46,243.874z"/>
			</g>
		</g>
		<g>
			<g>
				<path d="M87.254,220.093c-0.69-1.196-2.22-1.608-3.415-0.915l-4.432,2.559c-1.196,0.69-1.605,2.219-0.915,3.415
					c0.463,0.802,1.303,1.25,2.167,1.25c0.424,0,0.854-0.108,1.248-0.335l4.432-2.559C87.535,222.818,87.944,221.289,87.254,220.093
					z"/>
			</g>
		</g>
		<g>
			<g>
				<path d="M91.068,221.583l-3.198-5.539c-0.69-1.196-2.22-1.606-3.415-0.915c-1.196,0.69-1.605,2.219-0.915,3.415l3.198,5.539
					c0.463,0.802,1.303,1.25,2.167,1.25c0.424,0,0.854-0.108,1.248-0.335C91.349,224.308,91.759,222.779,91.068,221.583z"/>
			</g>
		</g>
		<g>
			<g>
				<path d="M10.175,65.5H5.059c-1.381,0-2.5,1.119-2.5,2.5s1.119,2.5,2.5,2.5h5.117c1.381,0,2.5-1.119,2.5-2.5
					S11.556,65.5,10.175,65.5z"/>
			</g>
		</g>
		<g>
			<g>
				<path d="M2.5,62.302c-1.381,0-2.5,1.119-2.5,2.5v6.396c0,1.381,1.119,2.5,2.5,2.5s2.5-1.119,2.5-2.5v-6.396
					C5,63.421,3.881,62.302,2.5,62.302z"/>
			</g>
		</g>
		<g>
			<g>
				<path d="M44.523,65.5h-5.117c-1.381,0-2.5,1.119-2.5,2.5s1.119,2.5,2.5,2.5h5.117c1.381,0,2.5-1.119,2.5-2.5
					S45.904,65.5,44.523,65.5z"/>
			</g>
		</g>
		<g>
			<g>
				<path d="M47.082,62.302c-1.381,0-2.5,1.119-2.5,2.5v6.396c0,1.381,1.119,2.5,2.5,2.5s2.5-1.119,2.5-2.5v-6.396
					C49.582,63.421,48.462,62.302,47.082,62.302z"/>
			</g>
		</g>
		<g>
			<g>
				<path d="M18.733,78.492c-1.199-0.691-2.725-0.28-3.415,0.915l-2.558,4.432c-0.69,1.196-0.281,2.725,0.915,3.415
					c0.394,0.228,0.824,0.335,1.248,0.335c0.864,0,1.705-0.449,2.167-1.25l2.558-4.432C20.338,80.711,19.929,79.182,18.733,78.492z"
					/>
			</g>
		</g>
		<g>
			<g>
				<path d="M17.665,86.738l-5.539-3.198c-1.197-0.692-2.726-0.281-3.415,0.915c-0.69,1.196-0.281,2.725,0.915,3.415l5.539,3.198
					c0.394,0.228,0.824,0.335,1.248,0.335c0.864,0,1.705-0.448,2.167-1.25C19.271,88.958,18.861,87.429,17.665,86.738z"/>
			</g>
		</g>
		<g>
			<g>
				<path d="M35.907,48.746c-1.197-0.691-2.726-0.28-3.415,0.915l-2.559,4.432c-0.69,1.196-0.281,2.725,0.915,3.415
					c0.394,0.228,0.824,0.335,1.248,0.335c0.864,0,1.705-0.449,2.167-1.25l2.559-4.432C37.512,50.965,37.103,49.437,35.907,48.746z"
					/>
			</g>
		</g>
		<g>
			<g>
				<path d="M39.956,48.13l-5.539-3.198c-1.197-0.692-2.726-0.281-3.415,0.915c-0.69,1.196-0.281,2.725,0.915,3.415l5.539,3.198
					c0.394,0.228,0.824,0.335,1.248,0.335c0.864,0,1.705-0.448,2.167-1.25C41.561,50.349,41.151,48.82,39.956,48.13z"/>
			</g>
		</g>
		<g>
			<g>
				<path d="M36.822,83.839l-2.559-4.432c-0.69-1.195-2.22-1.606-3.415-0.915c-1.196,0.69-1.605,2.219-0.915,3.415l2.559,4.432
					c0.463,0.802,1.303,1.25,2.167,1.25c0.424,0,0.854-0.108,1.248-0.335C37.103,86.563,37.512,85.035,36.822,83.839z"/>
			</g>
		</g>
		<g>
			<g>
				<path d="M40.871,84.455c-0.69-1.196-2.219-1.606-3.415-0.915l-5.539,3.198c-1.196,0.69-1.605,2.219-0.915,3.415
					c0.463,0.802,1.303,1.25,2.167,1.25c0.424,0,0.854-0.108,1.248-0.335l5.539-3.198C41.151,87.18,41.561,85.651,40.871,84.455z"/>
			</g>
		</g>
		<g>
			<g>
				<path d="M19.648,54.093l-2.558-4.432c-0.69-1.195-2.219-1.606-3.415-0.915c-1.196,0.69-1.605,2.219-0.915,3.415l2.558,4.432
					c0.463,0.802,1.303,1.25,2.167,1.25c0.424,0,0.854-0.108,1.248-0.335C19.929,56.818,20.338,55.289,19.648,54.093z"/>
			</g>
		</g>
		<g>
			<g>
				<path d="M18.58,45.847c-0.69-1.196-2.22-1.606-3.415-0.915L9.626,48.13c-1.196,0.69-1.605,2.219-0.915,3.415
					c0.463,0.802,1.303,1.25,2.167,1.25c0.424,0,0.854-0.108,1.248-0.335l5.539-3.198C18.861,48.571,19.271,47.042,18.58,45.847z"/>
			</g>
		</g>
		<g>
			<g>
				<path d="M216.594,185.5h-5.117c-1.381,0-2.5,1.119-2.5,2.5s1.119,2.5,2.5,2.5h5.117c1.381,0,2.5-1.119,2.5-2.5
					S217.975,185.5,216.594,185.5z"/>
			</g>
		</g>
		<g>
			<g>
				<path d="M208.918,182.302c-1.381,0-2.5,1.119-2.5,2.5v6.396c0,1.381,1.119,2.5,2.5,2.5s2.5-1.119,2.5-2.5v-6.396
					C211.418,183.421,210.299,182.302,208.918,182.302z"/>
			</g>
		</g>
		<g>
			<g>
				<path d="M250.941,185.5h-5.117c-1.381,0-2.5,1.119-2.5,2.5s1.119,2.5,2.5,2.5h5.117c1.381,0,2.5-1.119,2.5-2.5
					S252.322,185.5,250.941,185.5z"/>
			</g>
		</g>
		<g>
			<g>
				<path d="M253.5,182.302c-1.381,0-2.5,1.119-2.5,2.5v6.396c0,1.381,1.119,2.5,2.5,2.5s2.5-1.119,2.5-2.5v-6.396
					C256,183.421,254.881,182.302,253.5,182.302z"/>
			</g>
		</g>
		<g>
			<g>
				<path d="M225.152,198.492c-1.197-0.692-2.726-0.28-3.415,0.915l-2.559,4.432c-0.69,1.196-0.281,2.725,0.915,3.415
					c0.394,0.228,0.824,0.335,1.248,0.335c0.864,0,1.705-0.449,2.167-1.25l2.559-4.432
					C226.757,200.711,226.348,199.183,225.152,198.492z"/>
			</g>
		</g>
		<g>
			<g>
				<path d="M224.083,206.738l-5.539-3.198c-1.196-0.693-2.726-0.281-3.415,0.915c-0.69,1.196-0.281,2.725,0.915,3.415l5.539,3.198
					c0.394,0.228,0.824,0.335,1.248,0.335c0.864,0,1.705-0.448,2.167-1.25C225.689,208.958,225.279,207.429,224.083,206.738z"/>
			</g>
		</g>
		<g>
			<g>
				<path d="M242.325,168.746c-1.198-0.692-2.726-0.28-3.415,0.915l-2.558,4.432c-0.69,1.196-0.281,2.725,0.915,3.415
					c0.394,0.228,0.824,0.335,1.248,0.335c0.864,0,1.705-0.449,2.167-1.25l2.558-4.432
					C243.931,170.965,243.521,169.436,242.325,168.746z"/>
			</g>
		</g>
		<g>
			<g>
				<path d="M246.374,168.13l-5.539-3.198c-1.196-0.693-2.726-0.281-3.415,0.915c-0.69,1.196-0.281,2.725,0.915,3.415l5.539,3.198
					c0.394,0.228,0.824,0.335,1.248,0.335c0.864,0,1.705-0.448,2.167-1.25C247.979,170.349,247.57,168.82,246.374,168.13z"/>
			</g>
		</g>
		<g>
			<g>
				<path d="M243.24,203.839l-2.558-4.432c-0.69-1.195-2.22-1.607-3.415-0.915c-1.196,0.69-1.605,2.219-0.915,3.415l2.558,4.432
					c0.463,0.802,1.303,1.25,2.167,1.25c0.424,0,0.854-0.108,1.248-0.335C243.521,206.564,243.931,205.035,243.24,203.839z"/>
			</g>
		</g>
		<g>
			<g>
				<path d="M247.289,204.455c-0.691-1.196-2.219-1.606-3.415-0.915l-5.539,3.198c-1.196,0.69-1.605,2.219-0.915,3.415
					c0.463,0.802,1.303,1.25,2.167,1.25c0.424,0,0.854-0.108,1.248-0.335l5.539-3.198
					C247.57,207.18,247.979,205.651,247.289,204.455z"/>
			</g>
		</g>
		<g>
			<g>
				<path d="M226.067,174.093l-2.559-4.432c-0.691-1.196-2.219-1.607-3.415-0.915c-1.196,0.69-1.605,2.219-0.915,3.415l2.559,4.432
					c0.463,0.802,1.303,1.25,2.167,1.25c0.424,0,0.854-0.108,1.248-0.335C226.348,176.817,226.757,175.289,226.067,174.093z"/>
			</g>
		</g>
		<g>
			<g>
				<path d="M224.999,165.847c-0.69-1.196-2.219-1.606-3.415-0.915l-5.539,3.198c-1.196,0.69-1.605,2.219-0.915,3.415
					c0.463,0.802,1.303,1.25,2.167,1.25c0.424,0,0.854-0.108,1.248-0.335l5.539-3.198
					C225.279,168.571,225.689,167.042,224.999,165.847z"/>
			</g>
		</g>
		<g>
			<g>
				<path d="M217.396,72.5h-3.363c-1.381,0-2.5,1.119-2.5,2.5s1.119,2.5,2.5,2.5h3.363c1.381,0,2.5-1.119,2.5-2.5
					S218.777,72.5,217.396,72.5z"/>
			</g>
		</g>
		<g>
			<g>
				<path d="M212.352,70.398c-1.381,0-2.5,1.119-2.5,2.5v4.203c0,1.381,1.119,2.5,2.5,2.5s2.5-1.119,2.5-2.5v-4.203
					C214.852,71.518,213.733,70.398,212.352,70.398z"/>
			</g>
		</g>
		<g>
			<g>
				<path d="M239.967,72.5h-3.363c-1.381,0-2.5,1.119-2.5,2.5s1.119,2.5,2.5,2.5h3.363c1.381,0,2.5-1.119,2.5-2.5
					S241.348,72.5,239.967,72.5z"/>
			</g>
		</g>
		<g>
			<g>
				<path d="M241.648,70.398c-1.381,0-2.5,1.119-2.5,2.5v4.203c0,1.381,1.119,2.5,2.5,2.5s2.5-1.119,2.5-2.5v-4.203
					C244.148,71.518,243.029,70.398,241.648,70.398z"/>
			</g>
		</g>
		<g>
			<g>
				<path d="M223.448,81.152c-1.198-0.692-2.726-0.28-3.415,0.915l-1.681,2.912c-0.69,1.196-0.281,2.725,0.915,3.415
					c0.394,0.228,0.824,0.335,1.248,0.335c0.864,0,1.705-0.449,2.167-1.25l1.681-2.912
					C225.053,83.372,224.644,81.843,223.448,81.152z"/>
			</g>
		</g>
		<g>
			<g>
				<path d="M222.746,86.571l-3.64-2.102c-1.197-0.691-2.726-0.28-3.415,0.915c-0.69,1.196-0.281,2.725,0.915,3.415l3.64,2.102
					c0.394,0.228,0.824,0.335,1.248,0.335c0.864,0,1.705-0.449,2.167-1.25C224.352,88.791,223.942,87.262,222.746,86.571z"/>
			</g>
		</g>
		<g>
			<g>
				<path d="M234.733,61.605c-1.198-0.692-2.725-0.28-3.415,0.915l-1.681,2.912c-0.69,1.196-0.281,2.725,0.915,3.415
					c0.394,0.228,0.824,0.335,1.248,0.335c0.864,0,1.705-0.449,2.167-1.25l1.681-2.912
					C236.339,63.825,235.929,62.296,234.733,61.605z"/>
			</g>
		</g>
		<g>
			<g>
				<path d="M237.394,61.2l-3.64-2.102c-1.197-0.692-2.726-0.28-3.415,0.915c-0.69,1.196-0.281,2.725,0.915,3.415l3.64,2.102
					c0.394,0.228,0.824,0.335,1.248,0.335c0.864,0,1.705-0.449,2.167-1.25C239,63.419,238.59,61.891,237.394,61.2z"/>
			</g>
		</g>
		<g>
			<g>
				<path d="M235.648,84.979l-1.681-2.912c-0.69-1.196-2.22-1.607-3.415-0.915c-1.196,0.69-1.605,2.219-0.915,3.415l1.681,2.912
					c0.463,0.802,1.303,1.25,2.167,1.25c0.424,0,0.854-0.108,1.248-0.335C235.929,87.704,236.339,86.175,235.648,84.979z"/>
			</g>
		</g>
		<g>
			<g>
				<path d="M238.309,85.385c-0.69-1.195-2.22-1.606-3.415-0.915l-3.64,2.102c-1.196,0.69-1.605,2.219-0.915,3.415
					c0.463,0.802,1.303,1.25,2.167,1.25c0.424,0,0.854-0.108,1.248-0.335l3.64-2.102C238.59,88.109,239,86.581,238.309,85.385z"/>
			</g>
		</g>
		<g>
			<g>
				<path d="M224.363,65.433l-1.681-2.912c-0.69-1.196-2.22-1.607-3.415-0.915c-1.196,0.69-1.605,2.219-0.915,3.415l1.681,2.912
					c0.463,0.802,1.303,1.25,2.167,1.25c0.424,0,0.854-0.108,1.248-0.335C224.644,68.157,225.053,66.628,224.363,65.433z"/>
			</g>
		</g>
		<g>
			<g>
				<path d="M223.661,60.014c-0.691-1.196-2.219-1.607-3.415-0.915l-3.64,2.102c-1.196,0.69-1.605,2.219-0.915,3.415
					c0.463,0.802,1.303,1.25,2.167,1.25c0.424,0,0.854-0.108,1.248-0.335l3.64-2.102C223.942,62.738,224.352,61.209,223.661,60.014z
					"/>
			</g>
		</g>
		<g>
			<g>
				<path d="M19.396,178.5h-3.363c-1.381,0-2.5,1.119-2.5,2.5s1.119,2.5,2.5,2.5h3.363c1.381,0,2.5-1.119,2.5-2.5
					S20.777,178.5,19.396,178.5z"/>
			</g>
		</g>
		<g>
			<g>
				<path d="M14.352,176.398c-1.381,0-2.5,1.119-2.5,2.5v4.203c0,1.381,1.119,2.5,2.5,2.5s2.5-1.119,2.5-2.5v-4.203
					C16.852,177.518,15.733,176.398,14.352,176.398z"/>
			</g>
		</g>
		<g>
			<g>
				<path d="M41.967,178.5h-3.363c-1.381,0-2.5,1.119-2.5,2.5s1.119,2.5,2.5,2.5h3.363c1.381,0,2.5-1.119,2.5-2.5
					S43.348,178.5,41.967,178.5z"/>
			</g>
		</g>
		<g>
			<g>
				<path d="M43.648,176.398c-1.381,0-2.5,1.119-2.5,2.5v4.203c0,1.381,1.119,2.5,2.5,2.5s2.5-1.119,2.5-2.5v-4.203
					C46.148,177.518,45.029,176.398,43.648,176.398z"/>
			</g>
		</g>
		<g>
			<g>
				<path d="M25.448,187.152c-1.198-0.692-2.726-0.28-3.415,0.915l-1.681,2.912c-0.69,1.196-0.281,2.725,0.915,3.415
					c0.394,0.228,0.824,0.335,1.248,0.335c0.864,0,1.705-0.449,2.167-1.25l1.681-2.912
					C27.053,189.372,26.644,187.843,25.448,187.152z"/>
			</g>
		</g>
		<g>
			<g>
				<path d="M24.746,192.571l-3.64-2.102c-1.197-0.692-2.726-0.28-3.415,0.915c-0.69,1.196-0.281,2.725,0.915,3.415l3.64,2.102
					c0.394,0.228,0.824,0.335,1.248,0.335c0.864,0,1.705-0.449,2.167-1.25C26.352,194.791,25.942,193.262,24.746,192.571z"/>
			</g>
		</g>
		<g>
			<g>
				<path d="M36.733,167.605c-1.198-0.692-2.726-0.28-3.415,0.915l-1.681,2.912c-0.69,1.196-0.281,2.725,0.915,3.415
					c0.394,0.228,0.824,0.335,1.248,0.335c0.864,0,1.705-0.449,2.167-1.25l1.681-2.912
					C38.339,169.825,37.929,168.296,36.733,167.605z"/>
			</g>
		</g>
		<g>
			<g>
				<path d="M39.394,167.2l-3.64-2.102c-1.197-0.692-2.726-0.28-3.415,0.915c-0.69,1.196-0.281,2.725,0.915,3.415l3.64,2.102
					c0.394,0.228,0.824,0.335,1.248,0.335c0.864,0,1.705-0.449,2.167-1.25C41,169.419,40.59,167.891,39.394,167.2z"/>
			</g>
		</g>
		<g>
			<g>
				<path d="M37.648,190.979l-1.681-2.912c-0.691-1.196-2.219-1.607-3.415-0.915c-1.196,0.69-1.605,2.219-0.915,3.415l1.681,2.912
					c0.463,0.802,1.303,1.25,2.167,1.25c0.424,0,0.854-0.108,1.248-0.335C37.929,193.704,38.339,192.175,37.648,190.979z"/>
			</g>
		</g>
		<g>
			<g>
				<path d="M40.309,191.385c-0.69-1.195-2.22-1.607-3.415-0.915l-3.64,2.102c-1.196,0.69-1.605,2.219-0.915,3.415
					c0.463,0.802,1.303,1.25,2.167,1.25c0.424,0,0.854-0.108,1.248-0.335l3.64-2.102C40.59,194.109,41,192.581,40.309,191.385z"/>
			</g>
		</g>
		<g>
			<g>
				<path d="M26.363,171.433l-1.681-2.912c-0.691-1.196-2.219-1.607-3.415-0.915c-1.196,0.69-1.605,2.219-0.915,3.415l1.681,2.912
					c0.463,0.802,1.303,1.25,2.167,1.25c0.424,0,0.854-0.108,1.248-0.335C26.644,174.157,27.053,172.628,26.363,171.433z"/>
			</g>
		</g>
		<g>
			<g>
				<path d="M25.661,166.014c-0.691-1.196-2.219-1.607-3.415-0.915l-3.64,2.102c-1.196,0.69-1.605,2.219-0.915,3.415
					c0.463,0.802,1.303,1.25,2.167,1.25c0.424,0,0.854-0.108,1.248-0.335l3.64-2.102C25.942,168.738,26.352,167.209,25.661,166.014z
					"/>
			</g>
		</g>
		<g>
			<g>
				<g>
					<path d="M128,45c-45.766,0-83,37.234-83,83s37.234,83,83,83s83-37.234,83-83S173.766,45,128,45z M128,206
						c-43.009,0-78-34.991-78-78s34.991-78,78-78s78,34.991,78,78S171.009,206,128,206z"/>
				</g>
			</g>
		</g>
		<g>
			<g>
				<g>
					<path d="M188,9.771c-8.282,0-15.019,6.737-15.019,15.019S179.718,39.81,188,39.81s15.019-6.738,15.019-15.02
						S196.282,9.771,188,9.771z M188,34.81c-5.524,0-10.019-4.495-10.019-10.02c0-5.524,4.495-10.019,10.019-10.019
						s10.019,4.495,10.019,10.019C198.019,30.315,193.524,34.81,188,34.81z"/>
				</g>
			</g>
		</g>
		<g>
			<g>
				<g>
					<path d="M68,216.19c-8.282,0-15.019,6.738-15.019,15.02S59.718,246.229,68,246.229s15.019-6.737,15.019-15.019
						S76.282,216.19,68,216.19z M68,241.229c-5.524,0-10.019-4.495-10.019-10.019c0-5.525,4.495-10.02,10.019-10.02
						s10.019,4.495,10.019,10.02C78.019,236.734,73.524,241.229,68,241.229z"/>
				</g>
			</g>
		</g>
		<g>
			<g>
				<g>
					<path d="M24.791,52.981c-8.282,0-15.019,6.737-15.019,15.019s6.737,15.019,15.019,15.019S39.81,76.282,39.81,68
						S33.072,52.981,24.791,52.981z M24.791,78.019c-5.524,0-10.019-4.495-10.019-10.019s4.495-10.019,10.019-10.019
						c5.525,0,10.02,4.495,10.02,10.019S30.315,78.019,24.791,78.019z"/>
				</g>
			</g>
		</g>
		<g>
			<g>
				<g>
					<path d="M231.209,172.981c-8.282,0-15.02,6.737-15.02,15.019s6.738,15.019,15.02,15.019s15.019-6.737,15.019-15.019
						S239.491,172.981,231.209,172.981z M231.209,198.019c-5.525,0-10.02-4.495-10.02-10.019s4.495-10.019,10.02-10.019
						c5.524,0,10.019,4.495,10.019,10.019S236.734,198.019,231.209,198.019z"/>
				</g>
			</g>
		</g>
		<g>
			<g>
				<g>
					<path d="M227,64.273c-5.915,0-10.727,4.812-10.727,10.727S221.085,85.727,227,85.727S237.727,80.915,237.727,75
						S232.915,64.273,227,64.273z M227,80.727c-3.158,0-5.727-2.569-5.727-5.727s2.569-5.727,5.727-5.727s5.727,2.569,5.727,5.727
						S230.158,80.727,227,80.727z"/>
				</g>
			</g>
		</g>
		<g>
			<g>
				<g>
					<path d="M29,170.273c-5.915,0-10.727,4.812-10.727,10.727S23.085,191.727,29,191.727S39.727,186.915,39.727,181
						S34.915,170.273,29,170.273z M29,186.727c-3.158,0-5.727-2.569-5.727-5.727s2.569-5.727,5.727-5.727s5.727,2.569,5.727,5.727
						S32.158,186.727,29,186.727z"/>
				</g>
			</g>
		</g>
		<g>
			<g>
				<g>
					<path d="M170.842,56.903c-0.572-0.345-1.261-0.448-1.908-0.283c-4.571,1.161-12.823,4.512-16.742,13.918
						c-1.117,2.681-1.19,4.847-0.225,6.622c1.561,2.869,5.168,3.524,8.988,4.217c5.027,0.913,10.225,1.856,12.211,7.02
						c0.691,1.797,1.286,3.402,1.82,4.841c3.405,9.183,4.679,12.618,12.635,15.602c2.457,0.921,4.305,5.165,4.394,10.089
						c0.092,5.104-1.812,11.901-7.477,14.262c-8.577,3.574-16.063,10.764-19.069,18.317c-1.728,4.34-1.816,8.492-0.254,12.006
						c4.353,9.793,3.881,16.853-1.483,22.217c-3.693,3.693-4.753,9.01-3.065,15.376c0.191,0.722,0.695,1.32,1.374,1.632
						c0.332,0.152,0.687,0.228,1.042,0.228c0.374,0,0.747-0.083,1.091-0.25C192.62,188.921,211,159.592,211,128
						C211,98.666,195.988,72.087,170.842,56.903z M164.936,196.716c-0.273-3.125,0.507-5.623,2.332-7.448
						c6.829-6.829,7.676-16.176,2.517-27.783c-1.267-2.85-0.52-5.992,0.33-8.126c2.495-6.267,9.064-12.517,16.347-15.551
						c7.981-3.326,10.673-12.296,10.553-18.968c-0.13-7.227-3.128-12.99-7.637-14.681c-5.818-2.182-6.412-3.781-9.703-12.659
						c-0.54-1.456-1.142-3.08-1.841-4.898c-2.995-7.786-10.503-9.149-15.985-10.145c-2.141-0.389-5.072-0.921-5.489-1.687
						c-0.108-0.199-0.135-0.909,0.448-2.31c2.82-6.769,8.594-9.577,12.363-10.718C192.254,76.102,206,100.79,206,128
						C206,157.041,190.35,183.076,164.936,196.716z"/>
				</g>
			</g>
		</g>
		<g>
			<g>
				<g>
					<path d="M129.461,86.808c9.78-4.075,10.519-9.763,10.089-12.792c-0.28-1.969-1.58-3.691-3.393-4.494
						c-6.663-2.949-14.292-1.069-22.37,0.921c-7.817,1.926-15.9,3.917-23.582,1.658c-6.542-1.924-12.97-3.067-19.108-3.399
						c-0.71-0.041-1.405,0.228-1.906,0.732c-12.509,12.561-20.538,28.414-23.22,45.846c-0.154,1,0.31,1.994,1.175,2.519
						C56.29,123.34,57,126.625,57,127.5c0,0.859-0.716,4.025-9.935,8.682c-0.946,0.478-1.488,1.5-1.352,2.552
						c3.292,25.46,17.895,47.592,40.066,60.721c0.392,0.231,0.832,0.349,1.274,0.349c0.353,0,0.706-0.074,1.036-0.225
						c0.744-0.338,1.275-1.02,1.423-1.823c1.468-7.979,5.701-17.091,9.224-24.137c4.421-8.841-1.644-12.764-6.994-16.225
						c-2.406-1.556-5.133-3.32-7.474-5.661c-2.395-2.395-3.541-5.115-3.406-8.084c0.209-4.62,3.36-8.829,6.239-11.228
						c2.591-2.158,7.04-0.592,11.749,1.067c3.507,1.235,7.133,2.513,10.651,2.513c8.425,0,15.18-1.145,20.768-6.732
						c7.194-7.193-1.298-17.833-7-23.535c-2.661-2.661-3.767-5.944-3.114-9.244C120.948,92.47,124.341,88.941,129.461,86.808z
						 M115.249,95.518c-0.973,4.916,0.662,9.928,4.484,13.75c10.589,10.589,8.423,15.042,7,16.465
						c-4.406,4.406-9.655,5.268-17.232,5.268c-2.663,0-5.879-1.133-8.99-2.229c-5.549-1.955-11.837-4.169-16.611-0.192
						c-4.789,3.991-7.792,9.539-8.032,14.842c-0.198,4.369,1.484,8.465,4.865,11.846c2.715,2.716,5.679,4.633,8.294,6.324
						c5.943,3.844,7.554,5.158,5.238,9.79c-3.175,6.35-6.908,14.335-8.882,21.94c-18.698-12.191-31.126-31.45-34.469-53.509
						C58.369,135.78,62,131.743,62,127.5c0-4.14-3.543-8.428-10.82-13.08c2.692-15.372,9.844-29.375,20.767-40.655
						c5.415,0.383,11.077,1.436,16.848,3.133c8.976,2.64,18.122,0.387,26.189-1.6c7.225-1.781,14.048-3.463,19.15-1.204
						c0.245,0.108,0.428,0.354,0.466,0.624c0.392,2.759-2.116,5.414-7.062,7.474C120.852,84.978,116.373,89.835,115.249,95.518z"/>
				</g>
			</g>
		</g>
		<g>
			<g>
				<g>
					<path d="M146.842,144.427c-1-0.925-2.035-1.882-3.063-2.91c-5.638-5.64-10.28-1.901-13.67,0.826
						c-1.199,0.965-2.438,1.963-3.742,2.678c-3.896,2.136-6.315,6.315-6.315,10.906c0,5.653,3.786,10.64,9.207,12.127
						c2.743,0.752,5.322,1.125,7.715,1.125c4.902,0,9.016-1.569,12.113-4.668c3.374-3.373,4.917-6.337,4.859-9.329
						C153.863,150.921,150.609,147.912,146.842,144.427z M145.552,160.978C145.552,160.978,145.552,160.978,145.552,160.978
						c-4.125,4.125-10.419,3.504-14.971,2.255c-3.255-0.893-5.529-3.896-5.529-7.305c0-2.765,1.425-5.264,3.72-6.522
						c1.691-0.928,3.169-2.117,4.473-3.167c2.179-1.753,3.416-2.632,4.504-2.632c0.806,0,1.531,0.481,2.495,1.446
						c1.097,1.097,2.167,2.087,3.203,3.045c3.049,2.821,5.458,5.048,5.5,7.184C148.976,156.779,147.833,158.695,145.552,160.978z"/>
				</g>
			</g>
		</g>
		<g>
			<g>
				<g>
					<path d="M110.5,194.201c-2.86-2.86-7.042-3.64-12.095-2.254c-3.493,0.958-5.932,4.169-5.932,7.809
						c0,0.853,0.142,1.718,0.423,2.57c0.22,0.669,0.713,1.214,1.357,1.501c3.894,1.735,7.935,3.174,12.011,4.278
						c0.216,0.059,0.435,0.087,0.653,0.087c0.626,0,1.238-0.235,1.707-0.673l0.594-0.552c2.186-2.022,4.25-3.932,4.306-6.775
						C113.563,198.206,112.602,196.303,110.5,194.201z M106.244,202.907c-2.966-0.861-5.906-1.911-8.77-3.13v-0.021
						c0-1.395,0.927-2.623,2.254-2.986c3.265-0.896,5.7-0.57,7.238,0.967c1.462,1.462,1.563,2.174,1.56,2.358
						C108.513,200.731,107.381,201.847,106.244,202.907z"/>
				</g>
			</g>
		</g>
	</g>
</g>
<g id="Layer_32">
</g>
<g id="Layer_33">
</g>
<g id="Layer_34">
</g>
<g id="Layer_35">
</g>
<g id="Layer_36">
</g>
<g id="Layer_37">
</g>
<g id="Layer_38">
</g>
<g id="Layer_39">
</g>
<g id="Layer_40">
</g>
<g id="Layer_41">
</g>
<g id="Layer_42">
</g>
<g id="Layer_43">
</g>
<g id="Layer_44">
</g>
<g id="Layer_45">
</g>
<g id="Layer_46">
</g>
<g id="Layer_47">
</g>
<g id="Layer_48">
</g>
<g id="Layer_49">
</g>
<g id="Layer_50">
</g>
<g id="Layer_51">
</g>
<g id="Layer_52">
</g>
<g id="Layer_53">
</g>
<g id="Layer_54">
</g>
<g id="Layer_55">
</g>
<g id="Layer_56">
</g>
<g id="Layer_57">
</g>
<g id="Layer_58">
</g>
<g id="Layer_59">
</g>
<g id="Layer_60">
</g>
<g id="Layer_61">
</g>
<g id="Layer_62">
</g>
<g id="Layer_63">
</g>
<g id="Layer_64">
</g>
<g id="Layer_65">
</g>
<g id="Layer_66">
</g>
<g id="Layer_67">
</g>
<g id="Layer_68">
</g>
<g id="Layer_69">
</g>
<g id="Layer_70">
</g>
<g id="Layer_71">
</g>
<g id="Layer_72">
</g>
<g id="Layer_73">
</g>
<g id="Layer_74">
</g>
<g id="Layer_75">
</g>
<g id="Layer_76">
</g>
<g id="Layer_77">
</g>
<g id="Layer_78">
</g>
<g id="Layer_79">
</g>
<g id="Layer_80">
</g>
</svg>
