<?xml version="1.0" encoding="utf-8"?>
<!-- Generator: Adobe Illustrator 24.0.0, SVG Export Plug-In . SVG Version: 6.00 Build 0)  -->
<svg version="1.1" xmlns="http://www.w3.org/2000/svg" xmlns:xlink="http://www.w3.org/1999/xlink" x="0px" y="0px"
	 viewBox="0 0 256 256" style="enable-background:new 0 0 256 256;" xml:space="preserve">
<style type="text/css">
	.st0{fill:#6CADEF;}
	.st1{fill:#F9D0B4;}
	.st2{fill:#5B5D60;}
	.st3{fill:#9BE5F9;}
	.st4{fill:#FC657E;}
	.st5{fill:#70D6F9;}
	.st6{fill:#F5C84C;}
	.st7{fill:#F98FA6;}
	.st8{fill:#FED690;}
	.st9{fill:#87D147;}
	.st10{fill:#B2E26D;}
	.st11{fill:#EDF4FC;}
	.st12{fill:#FCDD86;}
	.st13{fill:#754E34;}
	.st14{fill:#B598F9;}
	.st15{fill:#5290DB;}
	.st16{fill:#C7D7E5;}
	.st17{fill:#C18E6B;}
	.st18{fill:#DAE6F1;}
	.st19{fill:#3CAADC;}
	.st20{fill:#818182;}
	.st21{fill:#CBEFF7;}
	.st22{fill:#FCA265;}
	.st23{fill:#A57453;}
	.st24{fill:#8652D8;}
	.st25{fill:#966AEA;}
	.st26{fill:#FEB872;}
	.st27{fill:#EDB311;}
	.st28{fill:#EF4460;}
</style>
<g id="Layer_1">
</g>
<g id="Layer_2">
</g>
<g id="Layer_3">
</g>
<g id="Layer_4">
</g>
<g id="Layer_5">
</g>
<g id="Layer_6">
	<g>
		<g>
			<g>
				<g>
					<path class="st7" d="M175.331,2.5c-29.687,0-53.838,24.151-53.838,53.838s24.151,53.838,53.838,53.838
						s53.838-24.152,53.838-53.838S205.018,2.5,175.331,2.5z M200.119,92.464c-7.92,5.454-17.707,8.382-28.197,7.582
						c-21.389-1.63-38.668-18.909-40.299-40.298c-0.8-10.49,2.128-20.277,7.582-28.198c0.891-1.294,2.754-1.435,3.865-0.324
						l57.373,57.373C201.554,89.71,201.413,91.573,200.119,92.464z M211.391,81.223c-0.893,1.289-2.753,1.428-3.862,0.319
						L150.127,24.14c-1.109-1.109-0.97-2.969,0.319-3.862c7.924-5.488,17.729-8.441,28.242-7.652
						c21.429,1.608,38.746,18.925,40.355,40.354C219.832,63.493,216.879,73.299,211.391,81.223z"/>
				</g>
			</g>
		</g>
		<g>
			<g>
				<path class="st0" d="M169,183.632c-0.332-5.957-4.499-11.006-10.284-12.463l-18.705-4.708
					c-9.914-2.495-17.71-6.771-17.609-6.721c-4.076-2.01-6.657-6.16-6.657-10.705v-5.623c-4.771,2.498-10.184,3.92-15.916,3.92h0
					c-5.732,0-11.145-1.423-15.916-3.92v5.623c0,4.545-2.581,8.695-6.657,10.705c-5.508,2.716-10.315,4.885-17.609,6.721
					l-18.704,4.708c-5.786,1.456-9.953,6.506-10.285,12.463l-3.82,65.867c-0.121,2.173,1.608,4.001,3.784,4.001h138.414
					c2.176,0,3.905-1.828,3.784-4.001L169,183.632z"/>
			</g>
		</g>
		<g>
			<g>
				<circle class="st4" cx="175.331" cy="20.916" r="6.051"/>
			</g>
		</g>
		<g>
			<g>
				<circle class="st4" cx="175.331" cy="91.916" r="6.051"/>
			</g>
		</g>
		<g>
			<g>
				<circle class="st4" cx="139.831" cy="56.416" r="6.051"/>
			</g>
		</g>
		<g>
			<g>
				<circle class="st4" cx="210.831" cy="56.416" r="6.051"/>
			</g>
		</g>
		<g>
			<g>
				<circle class="st4" cx="150.229" cy="81.518" r="6.051"/>
			</g>
		</g>
		<g>
			<g>
				<path class="st4" d="M204.712,27.034c-2.363-2.363-6.195-2.363-8.558,0c-2.363,2.363-2.363,6.195,0,8.558
					c2.363,2.363,6.195,2.363,8.558,0S207.076,29.398,204.712,27.034z"/>
			</g>
		</g>
		<g>
			<g>
				<path class="st4" d="M157.841,45.997c-1.797,3.033-2.848,6.56-2.848,10.341c0,11.232,9.106,20.338,20.338,20.338
					c3.781,0,7.309-1.05,10.341-2.848L157.841,45.997z"/>
			</g>
		</g>
		<g>
			<g>
				<path class="st4" d="M175.331,36c-3.821,0-7.384,1.073-10.438,2.906l27.869,27.869c1.833-3.054,2.906-6.616,2.906-10.438
					C195.669,45.106,186.563,36,175.331,36z"/>
			</g>
		</g>
		<g>
			<g>
				<path class="st1" d="M123.189,69.767c-0.797,0.222-1.566,0.59-2.255,1.13c-4.072,3.196-11.117,7.146-21.067,7.146
					c-9.975,0-17.057-3.969-21.146-7.169c-2.573-2.014-6.238-1.788-8.493,0.577l-0.012,0.012C67.047,74.785,65.28,79.2,65.28,83.79
					v28.995c0,19.002,15.547,34.548,34.548,34.548h0c19.002,0,34.548-15.547,34.548-34.548V91.227
					C129.148,85.099,125.258,77.797,123.189,69.767z"/>
			</g>
		</g>
		<g>
			<g>
				<path class="st1" d="M134.377,91.227v21.558c0,0.779-0.036,1.55-0.087,2.317c0.752,0.121,1.518,0.201,2.304,0.201
					c6.839,0,12.553-4.764,14.037-11.152C144.406,100.922,138.89,96.518,134.377,91.227z"/>
			</g>
		</g>
		<g>
			<g>
				<path class="st1" d="M65.28,112.785V86.63c-0.723-0.112-1.462-0.176-2.217-0.176c-7.966,0-14.424,6.458-14.424,14.424
					c0,7.966,6.458,14.424,14.424,14.424c0.786,0,1.552-0.08,2.304-0.201v-0.001C65.316,114.334,65.28,113.564,65.28,112.785z"/>
			</g>
		</g>
		<g>
			<g>
				<path class="st2" d="M124.137,39.7c-8.393-5.663-22.314-6.251-36.206-3.852c-18.562,3.205-32.128,19.301-32.128,38.138V88.43
					c2.134-1.248,4.61-1.975,7.261-1.975c0.755,0,1.494,0.064,2.217,0.176v-2.84c0-4.591,1.767-9.005,4.935-12.327l0.012-0.012
					c2.255-2.365,5.92-2.59,8.493-0.577c4.089,3.2,11.171,7.169,21.146,7.169c9.951,0,16.996-3.95,21.067-7.146
					c0.688-0.54,1.457-0.908,2.255-1.13c-1.107-4.294-1.695-8.794-1.695-13.429C121.493,50.532,122.428,44.943,124.137,39.7z"/>
			</g>
		</g>
		<g>
			<g>
				<path class="st4" d="M111.838,117.769h-24.02c-1.61,0-2.815,1.672-2.354,3.34c1.848,6.688,7.6,11.599,14.364,11.599
					c6.764,0,12.515-4.911,14.364-11.599C114.653,119.441,113.448,117.769,111.838,117.769z"/>
			</g>
		</g>
		<g>
			<g>
				<path class="st1" d="M122.402,159.74c-4.076-2.01-6.657-6.16-6.657-10.705v-5.623c-4.771,2.498-10.184,3.92-15.916,3.92h0
					c-5.732,0-11.145-1.423-15.916-3.92v5.623c0,4.545-2.581,8.695-6.657,10.705c-0.638,0.315-1.267,0.621-1.891,0.922
					c3.619,10.018,13.239,17.229,24.465,17.229c11.213,0,20.825-7.195,24.454-17.196
					C123.058,160.101,122.371,159.725,122.402,159.74z"/>
			</g>
		</g>
		<g>
			<g>
				<path class="st1" d="M28.872,214.415l-2.035,35.084c-0.121,2.173,1.608,4.001,3.784,4.001h22.159v-39.085H28.872z"/>
			</g>
		</g>
		<g>
			<g>
				<path class="st1" d="M170.785,214.415h-23.909V253.5h22.159c2.176,0,3.905-1.828,3.784-4.001L170.785,214.415z"/>
			</g>
		</g>
		<g>
			<g>
				<path d="M146.876,192.762c-1.381,0-2.5,1.119-2.5,2.5v57.394c0,1.381,1.119,2.5,2.5,2.5s2.5-1.119,2.5-2.5v-57.394
					C149.376,193.881,148.257,192.762,146.876,192.762z"/>
			</g>
		</g>
		<g>
			<g>
				<path d="M52.78,192.762c-1.381,0-2.5,1.119-2.5,2.5v57.394c0,1.381,1.119,2.5,2.5,2.5s2.5-1.119,2.5-2.5v-57.394
					C55.28,193.881,54.161,192.762,52.78,192.762z"/>
			</g>
		</g>
		<g>
			<g>
				<path d="M125.39,98.907c-1.876-3.631-5.448-5.887-9.322-5.887s-7.445,2.256-9.321,5.887c-0.634,1.227-0.153,2.735,1.074,3.369
					c1.228,0.634,2.734,0.154,3.369-1.074c1.014-1.962,2.883-3.182,4.879-3.182c1.996,0,3.866,1.219,4.879,3.182
					c0.444,0.86,1.318,1.353,2.223,1.353c0.386,0,0.778-0.09,1.146-0.279C125.542,101.642,126.023,100.134,125.39,98.907z"/>
			</g>
		</g>
		<g>
			<g>
				<path d="M92.91,98.907c-1.876-3.631-5.447-5.887-9.321-5.887s-7.446,2.256-9.322,5.887c-0.634,1.227-0.153,2.735,1.074,3.369
					c1.228,0.634,2.734,0.154,3.369-1.074c1.014-1.962,2.883-3.182,4.879-3.182c1.996,0,3.865,1.219,4.879,3.182
					c0.444,0.86,1.318,1.353,2.223,1.353c0.386,0,0.778-0.09,1.146-0.279C93.063,101.642,93.544,100.134,92.91,98.907z"/>
			</g>
		</g>
		<g>
			<g>
				<path d="M175.331,74.452c-1.381,0-2.5,1.119-2.5,2.5v8.376c0,1.381,1.119,2.5,2.5,2.5s2.5-1.119,2.5-2.5v-8.376
					C177.831,75.571,176.712,74.452,175.331,74.452z"/>
			</g>
		</g>
		<g>
			<g>
				<path d="M175.331,25.037c-1.381,0-2.5,1.119-2.5,2.5v8c0,1.381,1.119,2.5,2.5,2.5s2.5-1.119,2.5-2.5v-8
					C177.831,26.156,176.712,25.037,175.331,25.037z"/>
			</g>
		</g>
		<g>
			<g>
				<g>
					<path d="M144.838,29.458c-1.064-1.064-2.533-1.595-4.035-1.459c-1.483,0.136-2.816,0.913-3.657,2.133
						c-6.06,8.799-8.831,19.106-8.015,29.806c1.72,22.567,20.035,40.881,42.601,42.601c1.223,0.093,2.439,0.14,3.65,0.14
						c9.385,0,18.361-2.788,26.155-8.155c1.22-0.84,1.998-2.173,2.134-3.656c0.137-1.5-0.395-2.971-1.459-4.035L144.838,29.458z
						 M172.112,97.553c-20.127-1.534-36.461-17.868-37.996-37.995c-0.728-9.547,1.744-18.742,7.187-26.564l57.398,57.411
						C190.854,95.81,181.659,98.281,172.112,97.553z M175.331,0c-31.065,0-56.338,25.273-56.338,56.338s25.273,56.338,56.338,56.338
						s56.338-25.273,56.338-56.338S206.396,0,175.331,0z M175.331,107.676c-28.308,0-51.338-23.03-51.338-51.338
						C123.993,28.03,147.023,5,175.331,5s51.338,23.03,51.338,51.338C226.669,84.646,203.639,107.676,175.331,107.676z
						 M221.536,52.793c-1.698-22.622-20.038-40.962-42.661-42.66c-10.725-0.807-21.048,1.993-29.852,8.09
						c-1.216,0.842-1.99,2.174-2.124,3.655c-0.135,1.498,0.397,2.967,1.46,4.029l57.402,57.402c0.954,0.955,2.235,1.481,3.571,1.481
						c0.152,0,0.305-0.007,0.458-0.021c1.48-0.133,2.813-0.907,3.655-2.124C219.543,73.842,222.34,63.519,221.536,52.793z
						 M209.351,79.788c0,0-0.029,0.011-0.054-0.014L151.87,22.333c6.97-4.827,15.01-7.335,23.423-7.335
						c1.064,0,2.134,0.041,3.208,0.121c20.177,1.514,36.534,17.872,38.048,38.048C217.268,62.738,214.773,71.948,209.351,79.788z"/>
				</g>
			</g>
		</g>
		<g>
			<g>
				<path d="M204.243,53.916h-8.376c-1.381,0-2.5,1.119-2.5,2.5s1.119,2.5,2.5,2.5h8.376c1.381,0,2.5-1.119,2.5-2.5
					S205.624,53.916,204.243,53.916z"/>
			</g>
		</g>
		<g>
			<g>
				<path d="M154.452,53.916h-8c-1.381,0-2.5,1.119-2.5,2.5s1.119,2.5,2.5,2.5h8c1.381,0,2.5-1.119,2.5-2.5
					S155.833,53.916,154.452,53.916z"/>
			</g>
		</g>
		<g>
			<g>
				<path d="M197.542,34.204c-0.976-0.977-2.56-0.977-3.535,0l-5.922,5.922c-0.977,0.976-0.977,2.559,0,3.535
					c0.488,0.488,1.128,0.732,1.768,0.732s1.28-0.244,1.768-0.732l5.922-5.922C198.519,36.763,198.519,35.18,197.542,34.204z"/>
			</g>
		</g>
		<g>
			<g>
				<path d="M162.335,69.411c-0.977-0.976-2.559-0.976-3.536,0l-5.657,5.657c-0.976,0.976-0.976,2.559,0,3.536
					c0.488,0.488,1.128,0.732,1.768,0.732s1.28-0.244,1.768-0.732l5.657-5.657C163.312,71.971,163.312,70.388,162.335,69.411z"/>
			</g>
		</g>
		<g>
			<g>
				<path class="st4" d="M40.013,139.2c-3.1-0.6-5.6-3-6.2-6.1c0-0.1-0.3-0.1-0.3,0c-0.6,3.1-3.1,5.5-6.2,6.1c-0.1,0-0.1,0.2,0,0.3
					c3.1,0.6,5.6,3,6.2,6.1c0,0.1,0.3,0.1,0.3,0c0.6-3.1,3.1-5.5,6.2-6.1C40.113,139.4,40.113,139.2,40.013,139.2z"/>
			</g>
		</g>
		<g>
			<g>
				<path class="st5" d="M204.113,151.1h-2.4v-2.3c0-1.8-1.4-3.2-3.2-3.2c-1.7,0-3.2,1.4-3.2,3.1v2.4h-2.3c-1.8,0-3.2,1.4-3.2,3.2
					c-0.1,1.7,1.3,3.2,3.2,3.2h2.3v2.3c0,1.8,1.4,3.2,3.2,3.2c1.7,0,3.2-1.4,3.2-3.1v-2.4h2.3c1.8,0,3.2-1.4,3.2-3.2
					C207.213,152.6,205.813,151.1,204.113,151.1z"/>
			</g>
		</g>
		<g>
			<g>
				<path class="st6" d="M186.413,181.5c-1.878,0-3.4,1.522-3.4,3.4c0,1.878,1.522,3.4,3.4,3.4s3.4-1.522,3.4-3.4
					C189.813,183.022,188.291,181.5,186.413,181.5z"/>
			</g>
		</g>
		<g>
			<g>
				<path class="st6" d="M80.013,21.2c-4.5-0.8-8-4.3-8.9-8.7c0-0.2-0.4-0.2-0.4,0c-0.9,4.4-4.4,7.9-8.9,8.7c-0.2,0-0.2,0.3,0,0.4
					c4.5,0.8,8,4.3,8.9,8.7c0,0.2,0.4,0.2,0.4,0c0.9-4.4,4.4-7.9,8.9-8.7C80.213,21.5,80.213,21.2,80.013,21.2z"/>
			</g>
		</g>
		<g>
			<g>
				<g>
					<path d="M175.315,249.354l-3.82-65.867c-0.397-7.086-5.287-13.01-12.17-14.743l-18.705-4.708
						c-9.273-2.334-16.615-6.27-16.979-6.467c-0.044-0.025-0.089-0.049-0.135-0.072c-3.246-1.601-5.263-4.843-5.263-8.462v-5.623
						c0-0.875-0.457-1.686-1.206-2.139c-0.749-0.453-1.679-0.482-2.454-0.076c-4.609,2.412-9.574,3.635-14.757,3.635
						s-10.148-1.223-14.756-3.635c-0.776-0.406-1.706-0.377-2.454,0.076c-0.749,0.453-1.206,1.264-1.206,2.139v5.623
						c0,3.619-2.017,6.862-5.263,8.462c-5.057,2.494-9.835,4.707-17.114,6.539l-18.705,4.708c-6.884,1.733-11.775,7.66-12.17,14.743
						l-3.82,65.873c-0.096,1.719,0.528,3.422,1.71,4.672c1.183,1.25,2.849,1.968,4.57,1.968h138.414c1.722,0,3.387-0.717,4.57-1.968
						C174.788,252.781,175.412,251.079,175.315,249.354z M169.973,250.596c-0.143,0.151-0.454,0.404-0.938,0.404H30.621
						c-0.483,0-0.794-0.253-0.937-0.404c-0.143-0.15-0.378-0.476-0.352-0.953l3.82-65.873c0.272-4.892,3.648-8.982,8.399-10.178
						l18.705-4.708c7.754-1.952,12.787-4.281,18.104-6.903c4.966-2.449,8.052-7.41,8.052-12.947v-1.741
						c8.538,3.337,18.295,3.336,26.833,0v1.742c0,5.499,3.043,10.43,7.95,12.896c0.876,0.552,2.443,1.291,5.327,2.537
						c2.976,1.285,7.626,3.095,12.879,4.417l18.705,4.708c4.751,1.196,8.126,5.286,8.399,10.178c0,0.002,0,0.004,0,0.005
						l3.819,65.862C170.351,250.121,170.115,250.445,169.973,250.596z"/>
				</g>
			</g>
		</g>
		<g>
			<g>
				<g>
					<path d="M175.331,12.364c-4.715,0-8.551,3.836-8.551,8.551s3.836,8.551,8.551,8.551s8.551-3.836,8.551-8.551
						S180.046,12.364,175.331,12.364z M175.331,24.467c-1.958,0-3.551-1.593-3.551-3.551s1.593-3.551,3.551-3.551
						s3.551,1.593,3.551,3.551S177.289,24.467,175.331,24.467z"/>
				</g>
			</g>
		</g>
		<g>
			<g>
				<g>
					<path d="M175.331,83.364c-4.715,0-8.551,3.836-8.551,8.551s3.836,8.551,8.551,8.551s8.551-3.836,8.551-8.551
						S180.046,83.364,175.331,83.364z M175.331,95.467c-1.958,0-3.551-1.593-3.551-3.551s1.593-3.551,3.551-3.551
						s3.551,1.593,3.551,3.551S177.289,95.467,175.331,95.467z"/>
				</g>
			</g>
		</g>
		<g>
			<g>
				<g>
					<path d="M139.831,47.864c-4.715,0-8.551,3.836-8.551,8.551s3.836,8.551,8.551,8.551s8.551-3.836,8.551-8.551
						S144.546,47.864,139.831,47.864z M139.831,59.967c-1.958,0-3.551-1.593-3.551-3.551s1.593-3.551,3.551-3.551
						s3.551,1.593,3.551,3.551S141.789,59.967,139.831,59.967z"/>
				</g>
			</g>
		</g>
		<g>
			<g>
				<g>
					<path d="M210.831,47.864c-4.715,0-8.551,3.836-8.551,8.551s3.836,8.551,8.551,8.551s8.551-3.836,8.551-8.551
						S215.546,47.864,210.831,47.864z M210.831,59.967c-1.958,0-3.551-1.593-3.551-3.551s1.593-3.551,3.551-3.551
						s3.551,1.593,3.551,3.551S212.789,59.967,210.831,59.967z"/>
				</g>
			</g>
		</g>
		<g>
			<g>
				<g>
					<path d="M156.275,75.471c-3.333-3.334-8.758-3.335-12.093,0c-3.334,3.334-3.334,8.759,0,12.093
						c1.667,1.667,3.857,2.501,6.046,2.501c2.19,0,4.38-0.833,6.047-2.501C159.61,84.23,159.61,78.805,156.275,75.471z
						 M152.74,84.029c-1.385,1.385-3.639,1.384-5.023,0c-1.385-1.385-1.385-3.638,0-5.023c0.692-0.692,1.602-1.039,2.512-1.039
						c0.909,0,1.819,0.346,2.511,1.039C154.125,80.391,154.125,82.645,152.74,84.029z"/>
				</g>
			</g>
		</g>
		<g>
			<g>
				<g>
					<path d="M206.48,25.267c-3.334-3.335-8.759-3.335-12.093,0c-3.334,3.334-3.334,8.759,0,12.093
						c1.667,1.667,3.857,2.501,6.047,2.501c2.189,0,4.379-0.833,6.046-2.501C209.814,34.026,209.814,28.601,206.48,25.267z
						 M202.945,33.825c-1.384,1.384-3.638,1.385-5.023,0c-1.385-1.385-1.385-3.638,0-5.023c0.692-0.692,1.602-1.039,2.511-1.039
						c0.91,0,1.819,0.346,2.512,1.039C204.33,30.187,204.33,32.44,202.945,33.825z"/>
				</g>
			</g>
		</g>
		<g>
			<g>
				<g>
					<path d="M187.44,72.061l-27.832-27.832c-0.546-0.546-1.314-0.809-2.08-0.713c-0.766,0.097-1.445,0.542-1.839,1.206
						c-2.091,3.529-3.197,7.545-3.197,11.616c0,12.593,10.245,22.838,22.838,22.838c4.07,0,8.087-1.105,11.616-3.197
						c0.665-0.394,1.109-1.073,1.206-1.839C188.249,73.374,187.986,72.606,187.44,72.061z M175.331,74.176
						c-9.836,0-17.838-8.002-17.838-17.838c0-2.073,0.368-4.129,1.079-6.074l22.833,22.833
						C179.46,73.808,177.404,74.176,175.331,74.176z"/>
				</g>
			</g>
		</g>
		<g>
			<g>
				<g>
					<path d="M175.331,33.5c-4.113,0-8.167,1.128-11.724,3.263c-0.66,0.396-1.101,1.074-1.195,1.838
						c-0.094,0.764,0.169,1.529,0.714,2.073l27.869,27.87c0.472,0.472,1.108,0.732,1.768,0.732c0.101,0,0.203-0.006,0.305-0.019
						c0.764-0.094,1.442-0.535,1.838-1.195c2.134-3.557,3.263-7.611,3.263-11.725C198.169,43.745,187.924,33.5,175.331,33.5z
						 M192.047,62.525l-22.903-22.903c1.979-0.739,4.073-1.122,6.187-1.122c9.836,0,17.838,8.002,17.838,17.838
						C193.169,58.452,192.786,60.546,192.047,62.525z"/>
				</g>
			</g>
		</g>
		<g>
			<g>
				<g>
					<path d="M136.278,89.604c-5.058-5.929-8.747-13.004-10.669-20.462c-0.167-0.65-0.59-1.206-1.171-1.541
						c-0.582-0.337-1.275-0.423-1.92-0.243c-1.158,0.323-2.21,0.852-3.127,1.572c-3.844,3.017-10.351,6.613-19.524,6.613
						c-9.194,0-15.736-3.61-19.605-6.639c-3.611-2.825-8.702-2.474-11.855,0.833c-3.628,3.804-5.626,8.795-5.626,14.052v28.995
						c0,20.429,16.62,37.048,37.048,37.048c20.429,0,37.048-16.62,37.048-37.048V91.227
						C136.876,90.632,136.665,90.057,136.278,89.604z M131.876,112.785c0,17.671-14.377,32.048-32.048,32.048
						S67.78,130.456,67.78,112.785V83.79c0-3.966,1.507-7.731,4.256-10.615c0.739-0.775,1.732-1.17,2.737-1.17
						c0.84,0,1.689,0.276,2.406,0.837c4.489,3.513,12.068,7.701,22.687,7.701c9.981,0,17.253-3.702,21.796-7.059
						c2.171,6.752,5.662,13.134,10.213,18.653V112.785z"/>
				</g>
			</g>
		</g>
		<g>
			<g>
				<g>
					<path d="M151.782,101.932c-5.936-3.079-11.152-7.227-15.504-12.328c-0.679-0.797-1.785-1.084-2.767-0.723
						c-0.982,0.362-1.635,1.298-1.635,2.346v21.558c0,0.637-0.026,1.32-0.082,2.15c-0.086,1.288,0.823,2.43,2.097,2.635
						c0.974,0.157,1.857,0.233,2.702,0.233c7.908,0,14.682-5.381,16.472-13.085C153.325,103.604,152.796,102.458,151.782,101.932z
						 M136.876,112.799c0-0.005,0-0.01,0-0.015V97.463c3.258,3.053,6.856,5.698,10.757,7.907
						C145.874,109.74,141.694,112.688,136.876,112.799z"/>
				</g>
			</g>
		</g>
		<g>
			<g>
				<g>
					<path d="M67.78,112.785V86.63c0-1.232-0.898-2.281-2.116-2.47c-0.878-0.136-1.753-0.206-2.601-0.206
						c-9.332,0-16.924,7.592-16.924,16.924s7.592,16.924,16.924,16.924c0.846,0,1.73-0.077,2.703-0.234
						c1.274-0.206,2.182-1.347,2.096-2.635C67.806,114.104,67.78,113.421,67.78,112.785z M62.78,112.799
						c-6.445-0.15-11.641-5.44-11.641-11.92c0-6.481,5.196-11.771,11.641-11.921V112.799z"/>
				</g>
			</g>
		</g>
		<g>
			<g>
				<g>
					<g>
						<path d="M125.535,37.628c-11.1-7.489-28.593-5.875-38.03-4.243c-19.818,3.422-34.203,20.497-34.203,40.601V88.43
							c0,0.896,0.479,1.723,1.256,2.168c0.386,0.221,0.815,0.332,1.244,0.332c0.436,0,0.873-0.114,1.262-0.342
							c1.827-1.068,3.901-1.633,5.999-1.633c0.592,0,1.209,0.049,1.833,0.146c0.722,0.113,1.456-0.096,2.01-0.572
							c0.554-0.475,0.874-1.168,0.874-1.898v-2.84c0-3.966,1.507-7.731,4.256-10.615c1.356-1.423,3.567-1.566,5.143-0.333
							c4.489,3.513,12.068,7.701,22.687,7.701c10.601,0,18.147-4.176,22.612-7.68c0.397-0.312,0.861-0.543,1.381-0.688
							c1.312-0.365,2.09-1.713,1.75-3.032c-1.072-4.162-1.616-8.47-1.616-12.805c0-5.393,0.848-10.73,2.521-15.863
							C126.859,39.414,126.46,38.252,125.535,37.628z M120.276,68.319c-0.307,0.185-0.603,0.389-0.885,0.611
							c-3.844,3.017-10.351,6.613-19.524,6.613c-9.194,0-15.736-3.61-19.605-6.639c-3.611-2.825-8.702-2.474-11.855,0.833
							c-3.628,3.804-5.626,8.795-5.626,14.052v0.167c-1.519,0.026-3.025,0.259-4.478,0.688V73.986
							c0-17.664,12.639-32.667,30.053-35.674c5.029-0.868,9.794-1.296,14.173-1.296c7.607,0,14.045,1.292,18.649,3.809
							c-1.45,5.046-2.185,10.255-2.185,15.513C118.993,60.378,119.424,64.399,120.276,68.319z"/>
					</g>
				</g>
			</g>
		</g>
		<g>
			<g>
				<g>
					<path d="M115.729,117.229c-0.948-1.245-2.366-1.959-3.891-1.959h-24.02c-1.525,0-2.943,0.714-3.891,1.959
						c-0.979,1.286-1.304,2.985-0.873,4.547c2.186,7.909,9.083,13.433,16.773,13.433c7.69,0,14.588-5.524,16.773-13.433
						C117.033,120.214,116.708,118.514,115.729,117.229z M111.782,120.443c-1.589,5.75-6.504,9.765-11.954,9.765
						c-5.449,0-10.365-4.016-11.954-9.766c-0.022-0.081,0.003-0.141,0.024-0.174h23.86
						C111.779,120.302,111.805,120.362,111.782,120.443z"/>
				</g>
			</g>
		</g>
		<g>
			<g>
				<g>
					<path d="M125.373,158.446c-0.975-0.474-1.586-0.798-1.729-0.876c-0.044-0.025-0.09-0.049-0.136-0.072
						c-3.246-1.601-5.263-4.843-5.263-8.462v-5.623c0-0.875-0.457-1.686-1.206-2.139c-0.749-0.453-1.679-0.482-2.454-0.076
						c-4.609,2.412-9.574,3.635-14.757,3.635s-10.148-1.223-14.756-3.635c-0.776-0.406-1.706-0.377-2.454,0.076
						c-0.749,0.453-1.206,1.264-1.206,2.139v5.623c0,3.619-2.017,6.862-5.263,8.462c0,0,0,0,0,0
						c-0.63,0.311-1.251,0.614-1.868,0.911c-1.156,0.556-1.704,1.896-1.268,3.102c4.079,11.293,14.855,18.88,26.815,18.88
						c11.943,0,22.715-7.572,26.804-18.843C127.068,160.344,126.525,159.004,125.373,158.446z M99.828,175.391
						c-9.114,0-17.396-5.348-21.255-13.516c4.842-2.484,7.839-7.382,7.839-12.84v-1.741c8.538,3.337,18.295,3.336,26.833,0v1.742
						c0,5.458,2.998,10.356,7.84,12.84C117.224,170.042,108.939,175.391,99.828,175.391z"/>
				</g>
			</g>
		</g>
		<g>
			<g>
				<g>
					<path d="M52.78,211.915H28.872c-1.325,0-2.419,1.033-2.496,2.355l-2.035,35.089c-0.096,1.719,0.528,3.422,1.71,4.672
						c1.183,1.25,2.849,1.968,4.57,1.968H52.78c1.381,0,2.5-1.119,2.5-2.5v-39.085C55.28,213.034,54.161,211.915,52.78,211.915z
						 M50.28,251H30.621c-0.483,0-0.794-0.253-0.937-0.404c-0.143-0.15-0.378-0.476-0.352-0.953l1.898-32.729H50.28V251z"/>
				</g>
			</g>
		</g>
		<g>
			<g>
				<g>
					<path d="M175.315,249.354l-2.035-35.084c-0.077-1.322-1.171-2.355-2.496-2.355h-23.909c-1.381,0-2.5,1.119-2.5,2.5V253.5
						c0,1.381,1.119,2.5,2.5,2.5h22.159c1.722,0,3.387-0.717,4.57-1.968C174.788,252.781,175.412,251.079,175.315,249.354z
						 M169.973,250.596c-0.143,0.151-0.454,0.404-0.938,0.404h-19.659v-34.085h19.049l1.898,32.723
						C170.351,250.121,170.115,250.445,169.973,250.596z"/>
				</g>
			</g>
		</g>
		<g>
			<g>
				<path class="st9" d="M103.413,0c-1.878,0-3.4,1.522-3.4,3.4c0,1.878,1.522,3.4,3.4,3.4s3.4-1.522,3.4-3.4
					C106.813,1.522,105.291,0,103.413,0z"/>
			</g>
		</g>
	</g>
</g>
<g id="Layer_7">
</g>
<g id="Layer_8">
</g>
<g id="Layer_9">
</g>
<g id="Layer_10">
</g>
<g id="Layer_11">
</g>
<g id="Layer_12">
</g>
<g id="Layer_13">
</g>
<g id="Layer_14">
</g>
<g id="Layer_15">
</g>
<g id="Layer_16">
</g>
<g id="Layer_17">
</g>
<g id="Layer_18">
</g>
<g id="Layer_19">
</g>
<g id="Layer_20">
</g>
<g id="Layer_21">
</g>
<g id="Layer_22">
</g>
<g id="Layer_23">
</g>
<g id="Layer_24">
</g>
<g id="Layer_25">
</g>
<g id="Layer_26">
</g>
<g id="Layer_27">
</g>
<g id="Layer_28">
</g>
<g id="Layer_29">
</g>
<g id="Layer_30">
</g>
<g id="Layer_31">
</g>
<g id="Layer_32">
</g>
<g id="Layer_33">
</g>
<g id="Layer_34">
</g>
<g id="Layer_35">
</g>
<g id="Layer_36">
</g>
<g id="Layer_37">
</g>
<g id="Layer_38">
</g>
<g id="Layer_39">
</g>
<g id="Layer_40">
</g>
<g id="Layer_41">
</g>
<g id="Layer_42">
</g>
<g id="Layer_43">
</g>
<g id="Layer_44">
</g>
<g id="Layer_45">
</g>
<g id="Layer_46">
</g>
<g id="Layer_47">
</g>
<g id="Layer_48">
</g>
<g id="Layer_49">
</g>
<g id="Layer_50">
</g>
<g id="Layer_51">
</g>
<g id="Layer_52">
</g>
<g id="Layer_53">
</g>
<g id="Layer_54">
</g>
<g id="Layer_55">
</g>
<g id="Layer_56">
</g>
<g id="Layer_57">
</g>
<g id="Layer_58">
</g>
<g id="Layer_59">
</g>
<g id="Layer_60">
</g>
<g id="Layer_61">
</g>
<g id="Layer_62">
</g>
<g id="Layer_63">
</g>
<g id="Layer_64">
</g>
<g id="Layer_65">
</g>
<g id="Layer_66">
</g>
<g id="Layer_67">
</g>
<g id="Layer_68">
</g>
<g id="Layer_69">
</g>
<g id="Layer_70">
</g>
<g id="Layer_71">
</g>
<g id="Layer_72">
</g>
<g id="Layer_73">
</g>
<g id="Layer_74">
</g>
<g id="Layer_75">
</g>
<g id="Layer_76">
</g>
<g id="Layer_77">
</g>
<g id="Layer_78">
</g>
<g id="Layer_79">
</g>
<g id="Layer_80">
</g>
</svg>
