<?xml version="1.0" encoding="utf-8"?>
<!-- Generator: Adobe Illustrator 24.0.0, SVG Export Plug-In . SVG Version: 6.00 Build 0)  -->
<svg version="1.1" xmlns="http://www.w3.org/2000/svg" xmlns:xlink="http://www.w3.org/1999/xlink" x="0px" y="0px"
	 viewBox="0 0 256 256" style="enable-background:new 0 0 256 256;" xml:space="preserve">
<style type="text/css">
	.st0{fill:#6CADEF;}
	.st1{fill:#F9D0B4;}
	.st2{fill:#5B5D60;}
	.st3{fill:#9BE5F9;}
	.st4{fill:#FC657E;}
	.st5{fill:#70D6F9;}
	.st6{fill:#F5C84C;}
	.st7{fill:#F98FA6;}
	.st8{fill:#FED690;}
	.st9{fill:#87D147;}
	.st10{fill:#B2E26D;}
	.st11{fill:#EDF4FC;}
	.st12{fill:#FCDD86;}
	.st13{fill:#754E34;}
	.st14{fill:#B598F9;}
	.st15{fill:#5290DB;}
	.st16{fill:#C7D7E5;}
	.st17{fill:#C18E6B;}
	.st18{fill:#DAE6F1;}
	.st19{fill:#3CAADC;}
	.st20{fill:#818182;}
	.st21{fill:#CBEFF7;}
	.st22{fill:#FCA265;}
	.st23{fill:#A57453;}
	.st24{fill:#8652D8;}
	.st25{fill:#966AEA;}
	.st26{fill:#FEB872;}
	.st27{fill:#EDB311;}
	.st28{fill:#EF4460;}
</style>
<g id="Layer_1">
</g>
<g id="Layer_2">
</g>
<g id="Layer_3">
</g>
<g id="Layer_4">
</g>
<g id="Layer_5">
</g>
<g id="Layer_6">
</g>
<g id="Layer_7">
</g>
<g id="Layer_8">
</g>
<g id="Layer_9">
</g>
<g id="Layer_10">
</g>
<g id="Layer_11">
</g>
<g id="Layer_12">
</g>
<g id="Layer_13">
</g>
<g id="Layer_14">
</g>
<g id="Layer_15">
</g>
<g id="Layer_16">
</g>
<g id="Layer_17">
</g>
<g id="Layer_18">
</g>
<g id="Layer_19">
</g>
<g id="Layer_20">
	<g>
		<g>
			<g>
				<path class="st11" d="M87.219,67.701c0,0-22.347,23.992-28.916,61.323l-2.737,20.76c-0.229,1.741,0.917,3.366,2.634,3.733
					l11.417,2.441c1.456,0.311,2.944-0.371,3.658-1.677l22.946-41.964C95.73,99.925,93.224,85.083,87.219,67.701z"/>
			</g>
		</g>
		<g>
			<g>
				<path class="st11" d="M200.434,149.783l-2.737-20.76c-6.569-37.33-28.916-61.323-28.916-61.323
					c-6.005,17.382-8.51,32.224-9.001,44.614l22.946,41.964c0.714,1.307,2.202,1.989,3.658,1.677l11.417-2.441
					C199.517,153.149,200.664,151.524,200.434,149.783z"/>
			</g>
		</g>
		<g>
			<g>
				<path class="st18" d="M164.064,146.041c-4.863-14.572-8.378-40.436,4.717-78.34l-20.342-9.687
					c-1.781-0.848-4.633-2.371-6.166-3.614c-1.084-0.879-2.6-1.043-3.81-0.362c-1.757,0.988-5.659,2.224-10.463,2.224
					s-8.706-1.235-10.463-2.224c-1.21-0.681-2.726-0.516-3.81,0.362c-1.532,1.242-4.385,2.766-6.166,3.614l-20.342,9.687
					c13.131,38.01,9.56,63.912,4.676,78.462c-4.473,13.325-6.054,27.451-5.092,41.474l4.52,65.863h26.36l1.372-44.574
					c0.123-4.013,1.772-7.827,4.611-10.666c2.514-2.082,6.152-2.082,8.666,0l0,0c2.839,2.839,4.488,6.653,4.611,10.666l1.371,44.574
					h26.36l4.498-65.537C170.146,173.792,168.561,159.516,164.064,146.041z"/>
			</g>
		</g>
		<g>
			<g>
				<path class="st16" d="M128,2.5c-12.225,0-22.135,12.803-22.135,28.597c0,9.297,3.436,17.555,8.755,22.777
					c0.938-0.38,2.013-0.344,2.917,0.164c1.757,0.988,5.659,2.224,10.463,2.224s8.706-1.235,10.463-2.224
					c0.904-0.509,1.979-0.545,2.917-0.164c5.319-5.223,8.755-13.48,8.755-22.777C150.135,15.303,140.225,2.5,128,2.5z"/>
			</g>
		</g>
		<g>
			<g>
				<path class="st5" d="M76.879,169.307l-4.397-5.588c-0.889-1.13-1.293-2.567-1.123-3.995l0.473-3.966
					c0.004-0.032-0.001-0.062,0.002-0.094c-0.67,0.338-1.447,0.459-2.219,0.294L58.2,153.516c-1.004-0.215-1.803-0.866-2.256-1.712
					c-0.169,0.241-0.323,0.495-0.437,0.777l-7.946,19.608c-1.3,3.208,0.404,6.845,3.701,7.899l6.718,2.148
					c3.158,1.009,6.531-0.758,7.499-3.928l1.62-5.305c0.253-0.828,1.23-1.181,1.953-0.704l3.162,2.083
					c1.61,1.06,3.775,0.615,4.836-0.995C77.877,172.13,77.808,170.487,76.879,169.307z"/>
			</g>
		</g>
		<g>
			<g>
				<path class="st5" d="M208.439,172.189l-7.946-19.608c-0.114-0.282-0.268-0.536-0.437-0.777
					c-0.453,0.847-1.251,1.498-2.256,1.712l-11.417,2.441c-0.772,0.165-1.549,0.044-2.219-0.294
					c0.003,0.032-0.002,0.062,0.002,0.094l0.473,3.966c0.17,1.428-0.234,2.865-1.123,3.995l-4.397,5.588
					c-0.929,1.181-0.998,2.824-0.172,4.079c1.06,1.61,3.225,2.056,4.836,0.995l3.162-2.083c0.723-0.476,1.701-0.124,1.953,0.704
					l1.62,5.305c0.968,3.171,4.342,4.938,7.499,3.928l6.718-2.148C208.035,179.034,209.739,175.397,208.439,172.189z"/>
			</g>
		</g>
		<g>
			<g>
				<path class="st11" d="M128,2.5c-12.225,0-22.135,12.803-22.135,28.597c0,2.009,0.162,3.969,0.467,5.861
					c2.091-8.571,10.996-15.012,21.668-15.012s19.578,6.441,21.668,15.012c0.305-1.892,0.467-3.852,0.467-5.861
					C150.135,15.303,140.225,2.5,128,2.5z"/>
			</g>
		</g>
		<g>
			<g>
				<path class="st11" d="M128,56.262c-3.054,0-5.737-0.5-7.743-1.118v117.523c0,1.609,1.694,2.654,3.132,1.934l10.595-5.309
					c1.078-0.54,1.758-1.642,1.758-2.848V55.145C133.737,55.762,131.054,56.262,128,56.262z"/>
			</g>
		</g>
		<g>
			<g>
				<path class="st5" d="M123.389,174.601c-0.27,0.135-0.548,0.19-0.823,0.209v24.682c0.345-0.427,0.709-0.84,1.101-1.232
					c2.513-2.082,6.152-2.082,8.666,0l0,0c0.391,0.392,0.755,0.805,1.1,1.232v-29.924L123.389,174.601z"/>
			</g>
		</g>
		<g>
			<g>
				<path class="st5" d="M164.064,146.041c-0.686-2.055-1.342-4.342-1.931-6.848h-26.39v10.867h29.561
					C164.916,148.714,164.509,147.373,164.064,146.041z"/>
			</g>
		</g>
		<g>
			<g>
				<path class="st5" d="M93.867,139.194c-0.601,2.555-1.272,4.883-1.972,6.969c-0.433,1.291-0.832,2.592-1.211,3.898h29.573
					v-10.867H93.867z"/>
			</g>
		</g>
		<g>
			<g>
				<path class="st5" d="M148.439,58.014c-1.781-0.848-4.633-2.371-6.166-3.614c-1.084-0.879-2.6-1.043-3.81-0.362
					c-0.64,0.36-1.571,0.752-2.721,1.106v11.487c6.925-1.375,12.523-4.373,15.846-7.117L148.439,58.014z"/>
			</g>
		</g>
		<g>
			<g>
				<path class="st5" d="M117.537,54.039c-1.21-0.681-2.726-0.516-3.81,0.362c-1.532,1.242-4.385,2.766-6.166,3.614l-3.142,1.496
					c3.321,2.744,8.916,5.742,15.839,7.119V55.145C119.108,54.791,118.177,54.399,117.537,54.039z"/>
			</g>
		</g>
		<g>
			<g>
				<path class="st9" d="M206.442,73.3c-3.1-0.6-5.6-3-6.2-6.1c0-0.1-0.3-0.1-0.3,0c-0.6,3.1-3.1,5.5-6.2,6.1c-0.1,0-0.1,0.2,0,0.3
					c3.1,0.6,5.6,3,6.2,6.1c0,0.1,0.3,0.1,0.3,0c0.6-3.1,3.1-5.5,6.2-6.1C206.542,73.5,206.542,73.3,206.442,73.3z"/>
			</g>
		</g>
		<g>
			<g>
				<path class="st4" d="M92.842,0c-1.878,0-3.4,1.522-3.4,3.4c0,1.878,1.522,3.4,3.4,3.4s3.4-1.522,3.4-3.4
					C96.242,1.522,94.72,0,92.842,0z"/>
			</g>
		</g>
		<g>
			<g>
				<path class="st6" d="M81.442,26.3c-4.5-0.8-8-4.3-8.9-8.7c0-0.2-0.4-0.2-0.4,0c-0.9,4.4-4.4,7.9-8.9,8.7c-0.2,0-0.2,0.3,0,0.4
					c4.5,0.8,8,4.3,8.9,8.7c0,0.2,0.4,0.2,0.4,0c0.9-4.4,4.4-7.9,8.9-8.7C81.642,26.6,81.642,26.3,81.442,26.3z"/>
			</g>
		</g>
		<g>
			<g>
				<path class="st5" d="M209.206,212.2h-2.4v-2.3c0-1.8-1.4-3.2-3.2-3.2c-1.7,0-3.2,1.4-3.2,3.1v2.4h-2.3c-1.8,0-3.2,1.4-3.2,3.2
					c-0.1,1.7,1.3,3.2,3.2,3.2h2.3v2.3c0,1.8,1.4,3.2,3.2,3.2c1.7,0,3.2-1.4,3.2-3.1v-2.4h2.3c1.8,0,3.2-1.4,3.2-3.2
					C212.306,213.7,210.906,212.2,209.206,212.2z"/>
			</g>
		</g>
		<g>
			<g>
				<path class="st6" d="M187.506,234.6c-1.878,0-3.4,1.522-3.4,3.4c0,1.878,1.522,3.4,3.4,3.4c1.878,0,3.4-1.522,3.4-3.4
					C190.906,236.122,189.384,234.6,187.506,234.6z"/>
			</g>
		</g>
		<g>
			<g>
				<g>
					<path d="M89.583,66.885c-0.287-0.829-0.987-1.448-1.846-1.629c-0.857-0.183-1.749,0.1-2.347,0.742
						c-0.934,1.002-22.929,24.967-29.55,62.594c-0.007,0.035-0.012,0.071-0.017,0.106l-2.737,20.759
						c-0.397,3.013,1.619,5.87,4.591,6.504l11.415,2.441c0.403,0.086,0.808,0.127,1.21,0.127c2.111,0,4.128-1.152,5.165-3.05
						l22.946-41.964c0.218-0.397,0.322-0.846,0.305-1.298C98.157,98.061,95.084,82.809,89.583,66.885z M71.08,153.081
						c-0.181,0.334-0.57,0.51-0.941,0.431l-11.417-2.441c-0.438-0.094-0.736-0.516-0.678-0.961l2.73-20.706
						c4.988-28.27,19.384-48.93,25.488-56.663c4.378,13.672,6.874,26.765,7.431,38.985L71.08,153.081z"/>
				</g>
			</g>
		</g>
		<g>
			<g>
				<g>
					<path d="M202.913,149.457l-2.737-20.759c-0.005-0.036-0.01-0.071-0.017-0.106c-6.621-37.626-28.616-61.592-29.55-62.594
						c-0.597-0.642-1.486-0.924-2.347-0.742c-0.858,0.182-1.559,0.8-1.846,1.629c-5.501,15.924-8.574,31.176-9.136,45.332
						c-0.018,0.453,0.087,0.901,0.305,1.298l22.945,41.964c1.038,1.899,3.055,3.051,5.166,3.051c0.401,0,0.807-0.042,1.209-0.127
						l11.415-2.441C201.294,155.327,203.311,152.47,202.913,149.457z M197.277,151.071l-11.417,2.441
						c-0.371,0.08-0.76-0.098-0.941-0.432l-22.612-41.354c0.557-12.222,3.054-25.317,7.432-38.99
						c6.103,7.717,20.489,28.343,25.487,56.667l2.73,20.706C198.015,150.555,197.717,150.978,197.277,151.071z"/>
				</g>
			</g>
		</g>
		<g>
			<g>
				<path d="M139.443,208.849c-0.145-4.667-2.042-9.056-5.343-12.356c-0.055-0.056-0.113-0.108-0.173-0.158
					c-3.436-2.845-8.42-2.845-11.855,0c-0.06,0.05-0.118,0.102-0.173,0.158c-3.301,3.301-5.198,7.689-5.343,12.357l-1.371,44.574
					c-0.042,1.38,1.042,2.533,2.422,2.576c0.026,0,0.053,0.001,0.078,0.001c1.346,0,2.456-1.069,2.498-2.423l1.371-44.574
					c0.104-3.348,1.449-6.499,3.792-8.886c1.555-1.223,3.752-1.223,5.307,0c2.343,2.387,3.688,5.538,3.792,8.886l1.371,44.574
					c0.042,1.354,1.152,2.423,2.498,2.423c0.025,0,0.052,0,0.078-0.001c1.38-0.042,2.464-1.196,2.422-2.576L139.443,208.849z"/>
			</g>
		</g>
		<g>
			<g>
				<path d="M166.436,145.25c-4.887-14.642-8.036-39.84,4.709-76.732c0.415-1.203-0.14-2.526-1.288-3.074l-20.343-9.686
					c-1.865-0.889-4.434-2.3-5.666-3.299c-1.881-1.524-4.539-1.765-6.61-0.599c-1.17,0.658-4.605,1.902-9.237,1.902
					s-8.067-1.245-9.237-1.902c-2.073-1.168-4.73-0.925-6.61,0.599c-1.233,1-3.802,2.411-5.667,3.298l-20.342,9.687
					c-1.148,0.547-1.703,1.871-1.288,3.074c12.771,36.966,9.589,62.195,4.67,76.85c-4.478,13.338-6.232,27.617-5.216,42.441
					l4.521,65.863c0.095,1.377,1.301,2.422,2.665,2.323c1.378-0.095,2.418-1.288,2.323-2.666l-4.521-65.862
					c-0.972-14.167,0.699-27.795,4.968-40.508c5.07-15.105,8.42-40.803-3.965-77.956l18.335-8.73
					c0.735-0.351,4.517-2.188,6.665-3.929c0.302-0.245,0.71-0.295,1.011-0.126c2.087,1.174,6.4,2.545,11.688,2.545
					s9.602-1.371,11.688-2.545c0.302-0.17,0.709-0.119,1.011,0.125c2.146,1.74,5.928,3.578,6.664,3.929l18.336,8.73
					c-12.36,37.078-9.043,62.739-4.006,77.831c4.291,12.861,5.969,26.642,4.986,40.959l-4.498,65.537
					c-0.095,1.377,0.945,2.571,2.323,2.666c0.058,0.004,0.116,0.006,0.174,0.006c1.303,0,2.4-1.01,2.491-2.329l4.498-65.537
					C172.695,173.163,170.936,158.734,166.436,145.25z"/>
			</g>
		</g>
		<g>
			<g>
				<g>
					<path d="M128,0c-13.584,0-24.636,13.95-24.636,31.097c0,9.678,3.464,18.63,9.504,24.561c0.709,0.697,1.768,0.908,2.691,0.533
						c0.26-0.105,0.533-0.096,0.752,0.026c2.087,1.174,6.4,2.545,11.688,2.545s9.602-1.371,11.688-2.544
						c0.219-0.123,0.492-0.132,0.753-0.027c0.922,0.375,1.98,0.165,2.691-0.533c6.04-5.931,9.504-14.883,9.504-24.561
						C152.636,13.95,141.584,0,128,0z M140.544,51.135c-1.139-0.092-2.288,0.153-3.307,0.725c-1.17,0.658-4.605,1.902-9.237,1.902
						s-8.067-1.245-9.237-1.902c0,0,0,0-0.001,0c-0.878-0.494-1.853-0.743-2.838-0.743c-0.155,0-0.312,0.006-0.468,0.019
						c-4.461-4.949-7.092-12.329-7.092-20.038C108.364,16.707,117.173,5,128,5s19.636,11.707,19.636,26.097
						C147.636,38.806,145.005,46.186,140.544,51.135z"/>
				</g>
			</g>
		</g>
		<g>
			<g>
				<g>
					<path d="M78.844,167.761l-4.396-5.588c0,0,0,0-0.001,0c-0.482-0.613-0.696-1.377-0.604-2.152l0.473-3.957
						c0.012-0.093,0.019-0.219,0.02-0.327c0.024-0.849-0.385-1.657-1.093-2.139c-0.752-0.511-1.722-0.575-2.533-0.165
						c-0.129,0.065-0.335,0.131-0.569,0.081l-11.417-2.441c-0.328-0.07-0.5-0.31-0.573-0.447c-0.409-0.764-1.185-1.262-2.05-1.315
						c-0.872-0.058-1.697,0.346-2.196,1.053c-0.307,0.434-0.539,0.853-0.713,1.28l-7.944,19.607
						c-0.881,2.172-0.815,4.635,0.179,6.757c0.994,2.123,2.844,3.749,5.077,4.463l6.718,2.147c0.849,0.271,1.719,0.406,2.583,0.406
						c1.347,0,2.682-0.326,3.91-0.969c2.017-1.057,3.494-2.838,4.158-5.016l1.15-3.767l1.819,1.198
						c1.337,0.88,2.934,1.186,4.503,0.865c1.567-0.322,2.916-1.236,3.795-2.572C80.561,172.604,80.441,169.79,78.844,167.761z
						 M74.963,172.01c-0.196,0.298-0.478,0.395-0.628,0.425c-0.148,0.032-0.445,0.054-0.744-0.143l-3.163-2.083
						c-1.009-0.665-2.24-0.811-3.375-0.401c-1.137,0.409-1.991,1.307-2.344,2.463l-1.621,5.305
						c-0.271,0.889-0.873,1.616-1.696,2.047c-0.824,0.432-1.765,0.513-2.65,0.23l-6.718-2.147c-0.925-0.295-1.66-0.942-2.072-1.821
						c-0.411-0.878-0.438-1.858-0.072-2.757l7.043-17.382c0.245,0.088,0.497,0.16,0.756,0.215l11.324,2.421l-0.125,1.045
						c-0.25,2.102,0.333,4.175,1.642,5.837l4.396,5.589C75.179,171.188,75.198,171.653,74.963,172.01z"/>
				</g>
			</g>
		</g>
		<g>
			<g>
				<g>
					<path d="M210.755,171.25L210.755,171.25l-7.944-19.606c-0.174-0.429-0.406-0.848-0.713-1.281
						c-0.499-0.708-1.32-1.11-2.196-1.053c-0.865,0.053-1.641,0.551-2.05,1.315c-0.073,0.137-0.245,0.377-0.574,0.447l-11.416,2.441
						c-0.234,0.05-0.44-0.016-0.569-0.081c-0.812-0.41-1.781-0.346-2.533,0.165c-0.707,0.481-1.116,1.287-1.093,2.134
						c0.001,0.107,0.008,0.231,0.019,0.324l0.474,3.965c0.092,0.776-0.122,1.541-0.605,2.154l-4.396,5.587
						c-1.599,2.03-1.718,4.844-0.296,7c0.88,1.336,2.229,2.25,3.796,2.573c1.568,0.321,3.167,0.016,4.502-0.865l1.82-1.198
						l1.149,3.767c0.665,2.178,2.143,3.959,4.159,5.016c1.229,0.644,2.563,0.969,3.91,0.969c0.864,0,1.734-0.135,2.582-0.406
						l6.72-2.147c2.232-0.714,4.082-2.34,5.076-4.463C211.57,175.884,211.636,173.421,210.755,171.25z M206.049,175.885
						c-0.412,0.879-1.147,1.526-2.071,1.821l-6.719,2.147c-0.886,0.283-1.827,0.202-2.65-0.23c-0.823-0.431-1.426-1.158-1.697-2.047
						l-1.62-5.306c-0.353-1.155-1.207-2.053-2.344-2.462c-0.424-0.153-0.861-0.229-1.295-0.229c-0.729,0-1.448,0.213-2.08,0.629
						l-3.164,2.083c-0.296,0.196-0.592,0.174-0.743,0.143c-0.15-0.031-0.432-0.127-0.629-0.426c-0.234-0.356-0.215-0.821,0.05-1.157
						l4.396-5.588c1.309-1.662,1.892-3.735,1.642-5.838l-0.125-1.044l11.323-2.421c0.259-0.055,0.511-0.127,0.757-0.216
						l7.043,17.383l0.001,0C206.486,174.027,206.46,175.007,206.049,175.885z"/>
				</g>
			</g>
		</g>
		<g>
			<g>
				<g>
					<g>
						<path d="M128,0c-13.584,0-24.636,13.95-24.636,31.097c0,2.101,0.168,4.207,0.5,6.26c0.189,1.174,1.181,2.052,2.369,2.099
							c1.177,0.057,2.246-0.75,2.527-1.906c1.853-7.593,9.943-13.104,19.239-13.104s17.387,5.511,19.239,13.104
							c0.274,1.124,1.28,1.908,2.428,1.908c0.033,0,0.066,0,0.1-0.002c1.188-0.047,2.18-0.925,2.369-2.099
							c0.332-2.053,0.5-4.159,0.5-6.26C152.636,13.95,141.584,0,128,0z M128,19.446c-7.78,0-14.911,3.217-19.476,8.306
							C109.764,14.935,118.025,5,128,5s18.236,9.935,19.476,22.751C142.911,22.663,135.78,19.446,128,19.446z"/>
					</g>
				</g>
			</g>
		</g>
		<g>
			<g>
				<g>
					<path d="M137.228,53.133c-0.64-0.471-1.464-0.61-2.222-0.378c-2.107,0.649-4.596,1.007-7.006,1.007s-4.898-0.357-7.006-1.007
						c-0.756-0.232-1.582-0.093-2.222,0.378c-0.638,0.471-1.015,1.218-1.015,2.011v117.523c0,1.629,0.827,3.112,2.213,3.967
						c0.753,0.465,1.599,0.7,2.447,0.7c0.712,0,1.427-0.165,2.092-0.499l10.595-5.309c1.936-0.97,3.138-2.918,3.138-5.083V55.145
						C138.242,54.351,137.865,53.604,137.228,53.133z M133.242,166.444c0,0.261-0.145,0.496-0.378,0.613l-10.106,5.064V58.308
						c1.492,0.263,3.258,0.454,5.242,0.454s3.75-0.191,5.242-0.454V166.444z"/>
				</g>
			</g>
		</g>
		<g>
			<g>
				<g>
					<path d="M134.747,167.44c-0.737-0.455-1.658-0.496-2.434-0.107l-9.948,4.985c-1.297,0.104-2.299,1.188-2.299,2.492v24.682
						c0,1.059,0.667,2.003,1.665,2.356c0.273,0.097,0.556,0.144,0.835,0.144c0.739,0,1.459-0.329,1.942-0.926
						c0.292-0.36,0.567-0.672,0.839-0.95c1.553-1.222,3.752-1.222,5.305,0c0.271,0.277,0.547,0.589,0.84,0.95
						c0.666,0.822,1.78,1.134,2.776,0.782c0.998-0.354,1.665-1.298,1.665-2.356v-29.924
						C135.934,168.701,135.484,167.896,134.747,167.44z M130.934,194.674c-0.951-0.315-1.942-0.473-2.934-0.473
						s-1.982,0.158-2.934,0.473v-18.117l5.867-2.94V194.674z"/>
				</g>
			</g>
		</g>
		<g>
			<g>
				<g>
					<path d="M167.706,149.369c-0.441-1.534-0.857-2.881-1.271-4.118c-0.696-2.087-1.325-4.317-1.869-6.629
						c-0.266-1.129-1.273-1.927-2.434-1.927h-26.391c-1.381,0-2.5,1.119-2.5,2.5v10.867c0,1.381,1.119,2.5,2.5,2.5h29.562
						c0.785,0,1.525-0.369,1.997-0.997C167.773,150.937,167.924,150.124,167.706,149.369z M138.242,147.561v-5.867h21.934
						c0.461,1.775,0.97,3.497,1.518,5.139c0.079,0.238,0.158,0.48,0.238,0.728H138.242z"/>
				</g>
			</g>
		</g>
		<g>
			<g>
				<g>
					<path d="M120.258,136.694H93.867c-1.16,0-2.168,0.798-2.434,1.928c-0.552,2.348-1.194,4.618-1.908,6.746
						c-0.406,1.21-0.813,2.518-1.242,3.997c-0.219,0.755-0.069,1.569,0.402,2.198c0.473,0.628,1.213,0.999,1.999,0.999h29.573
						c1.381,0,2.5-1.119,2.5-2.5v-10.867C122.758,137.813,121.639,136.694,120.258,136.694z M117.758,147.561H94.066
						c0.066-0.204,0.133-0.404,0.199-0.602c0.565-1.684,1.087-3.448,1.559-5.265h21.934V147.561z"/>
				</g>
			</g>
		</g>
		<g>
			<g>
				<g>
					<path d="M152.663,57.257l-3.149-1.499c-1.865-0.889-4.434-2.3-5.666-3.299c-1.882-1.524-4.538-1.765-6.61-0.599
						c-0.521,0.292-1.334,0.619-2.231,0.896c-1.048,0.323-1.764,1.292-1.764,2.389v11.487c0,0.749,0.335,1.458,0.914,1.932
						c0.45,0.371,1.013,0.568,1.586,0.568c0.162,0,0.325-0.016,0.487-0.048c9.148-1.816,14.901-5.95,16.95-7.643
						c0.659-0.544,0.994-1.386,0.89-2.234C153.964,58.359,153.434,57.624,152.663,57.257z M138.242,63.457v-6.55
						c0.539-0.221,1.026-0.453,1.445-0.689c0.305-0.169,0.71-0.119,1.012,0.125c1.732,1.405,4.531,2.874,5.934,3.572
						C144.147,61.372,141.252,62.597,138.242,63.457z"/>
				</g>
			</g>
		</g>
		<g>
			<g>
				<g>
					<path d="M120.994,52.755c-0.897-0.276-1.711-0.603-2.231-0.896c-2.073-1.168-4.73-0.925-6.61,0.599
						c-1.233,1-3.802,2.411-5.667,3.298l-3.142,1.496c-0.771,0.367-1.301,1.103-1.406,1.95c-0.104,0.848,0.23,1.69,0.889,2.234
						c2.049,1.692,7.8,5.826,16.944,7.644c0.162,0.032,0.325,0.048,0.487,0.048c0.573,0,1.135-0.197,1.586-0.567
						c0.579-0.475,0.914-1.184,0.914-1.933V55.145C122.758,54.047,122.042,53.078,120.994,52.755z M117.758,63.453
						c-3.008-0.86-5.901-2.084-8.385-3.542c1.404-0.7,4.196-2.165,5.928-3.568c0.302-0.245,0.71-0.295,1.011-0.126
						c0.42,0.236,0.907,0.468,1.446,0.689V63.453z"/>
				</g>
			</g>
		</g>
	</g>
</g>
<g id="Layer_21">
</g>
<g id="Layer_22">
</g>
<g id="Layer_23">
</g>
<g id="Layer_24">
</g>
<g id="Layer_25">
</g>
<g id="Layer_26">
</g>
<g id="Layer_27">
</g>
<g id="Layer_28">
</g>
<g id="Layer_29">
</g>
<g id="Layer_30">
</g>
<g id="Layer_31">
</g>
<g id="Layer_32">
</g>
<g id="Layer_33">
</g>
<g id="Layer_34">
</g>
<g id="Layer_35">
</g>
<g id="Layer_36">
</g>
<g id="Layer_37">
</g>
<g id="Layer_38">
</g>
<g id="Layer_39">
</g>
<g id="Layer_40">
</g>
<g id="Layer_41">
</g>
<g id="Layer_42">
</g>
<g id="Layer_43">
</g>
<g id="Layer_44">
</g>
<g id="Layer_45">
</g>
<g id="Layer_46">
</g>
<g id="Layer_47">
</g>
<g id="Layer_48">
</g>
<g id="Layer_49">
</g>
<g id="Layer_50">
</g>
<g id="Layer_51">
</g>
<g id="Layer_52">
</g>
<g id="Layer_53">
</g>
<g id="Layer_54">
</g>
<g id="Layer_55">
</g>
<g id="Layer_56">
</g>
<g id="Layer_57">
</g>
<g id="Layer_58">
</g>
<g id="Layer_59">
</g>
<g id="Layer_60">
</g>
<g id="Layer_61">
</g>
<g id="Layer_62">
</g>
<g id="Layer_63">
</g>
<g id="Layer_64">
</g>
<g id="Layer_65">
</g>
<g id="Layer_66">
</g>
<g id="Layer_67">
</g>
<g id="Layer_68">
</g>
<g id="Layer_69">
</g>
<g id="Layer_70">
</g>
<g id="Layer_71">
</g>
<g id="Layer_72">
</g>
<g id="Layer_73">
</g>
<g id="Layer_74">
</g>
<g id="Layer_75">
</g>
<g id="Layer_76">
</g>
<g id="Layer_77">
</g>
<g id="Layer_78">
</g>
<g id="Layer_79">
</g>
<g id="Layer_80">
</g>
</svg>
