<?xml version="1.0" encoding="utf-8"?>
<!-- Generator: Adobe Illustrator 24.0.0, SVG Export Plug-In . SVG Version: 6.00 Build 0)  -->
<svg version="1.1" xmlns="http://www.w3.org/2000/svg" xmlns:xlink="http://www.w3.org/1999/xlink" x="0px" y="0px"
	 viewBox="0 0 256 256" style="enable-background:new 0 0 256 256;" xml:space="preserve">
<style type="text/css">
	.st0{fill:#6CADEF;}
	.st1{fill:#F9D0B4;}
	.st2{fill:#5B5D60;}
	.st3{fill:#9BE5F9;}
	.st4{fill:#FC657E;}
	.st5{fill:#70D6F9;}
	.st6{fill:#F5C84C;}
	.st7{fill:#F98FA6;}
	.st8{fill:#FED690;}
	.st9{fill:#87D147;}
	.st10{fill:#B2E26D;}
	.st11{fill:#EDF4FC;}
	.st12{fill:#FCDD86;}
	.st13{fill:#754E34;}
	.st14{fill:#B598F9;}
	.st15{fill:#5290DB;}
	.st16{fill:#C7D7E5;}
	.st17{fill:#C18E6B;}
	.st18{fill:#DAE6F1;}
	.st19{fill:#3CAADC;}
	.st20{fill:#818182;}
	.st21{fill:#CBEFF7;}
	.st22{fill:#FCA265;}
	.st23{fill:#A57453;}
	.st24{fill:#8652D8;}
	.st25{fill:#966AEA;}
	.st26{fill:#FEB872;}
	.st27{fill:#EDB311;}
	.st28{fill:#EF4460;}
</style>
<g id="Layer_1">
</g>
<g id="Layer_2">
</g>
<g id="Layer_3">
</g>
<g id="Layer_4">
</g>
<g id="Layer_5">
</g>
<g id="Layer_6">
</g>
<g id="Layer_7">
</g>
<g id="Layer_8">
</g>
<g id="Layer_9">
</g>
<g id="Layer_10">
</g>
<g id="Layer_11">
</g>
<g id="Layer_12">
</g>
<g id="Layer_13">
</g>
<g id="Layer_14">
</g>
<g id="Layer_15">
</g>
<g id="Layer_16">
</g>
<g id="Layer_17">
</g>
<g id="Layer_18">
</g>
<g id="Layer_19">
</g>
<g id="Layer_20">
</g>
<g id="Layer_21">
</g>
<g id="Layer_22">
</g>
<g id="Layer_23">
</g>
<g id="Layer_24">
</g>
<g id="Layer_25">
</g>
<g id="Layer_26">
</g>
<g id="Layer_27">
</g>
<g id="Layer_28">
</g>
<g id="Layer_29">
</g>
<g id="Layer_30">
</g>
<g id="Layer_31">
</g>
<g id="Layer_32">
</g>
<g id="Layer_33">
</g>
<g id="Layer_34">
</g>
<g id="Layer_35">
</g>
<g id="Layer_36">
</g>
<g id="Layer_37">
</g>
<g id="Layer_38">
</g>
<g id="Layer_39">
</g>
<g id="Layer_40">
</g>
<g id="Layer_41">
</g>
<g id="Layer_42">
</g>
<g id="Layer_43">
</g>
<g id="Layer_44">
</g>
<g id="Layer_45">
</g>
<g id="Layer_46">
</g>
<g id="Layer_47">
</g>
<g id="Layer_48">
</g>
<g id="Layer_49">
</g>
<g id="Layer_50">
</g>
<g id="Layer_51">
</g>
<g id="Layer_52">
</g>
<g id="Layer_53">
</g>
<g id="Layer_54">
</g>
<g id="Layer_55">
</g>
<g id="Layer_56">
</g>
<g id="Layer_57">
</g>
<g id="Layer_58">
</g>
<g id="Layer_59">
</g>
<g id="Layer_60">
</g>
<g id="Layer_61">
</g>
<g id="Layer_62">
</g>
<g id="Layer_63">
</g>
<g id="Layer_64">
</g>
<g id="Layer_65">
</g>
<g id="Layer_66">
</g>
<g id="Layer_67">
</g>
<g id="Layer_68">
</g>
<g id="Layer_69">
</g>
<g id="Layer_70">
</g>
<g id="Layer_71">
</g>
<g id="Layer_72">
</g>
<g id="Layer_73">
	<g>
		<g>
			<g>
				<path class="st14" d="M131.08,4.036c-2.017-2.082-5.353-2.043-7.309,0.095c-10.947,11.968-17.844,29.41-17.844,48.834
					c0,2.359,0.111,4.685,0.309,6.979c5.12-6.398,12.982-10.518,21.764-10.518c8.824,0,16.719,4.16,21.837,10.61
					c0.145-1.966,0.236-3.951,0.236-5.964C150.073,33.981,142.689,16.019,131.08,4.036z"/>
			</g>
		</g>
		<g>
			<g>
				<path class="st24" d="M212.732,72.816c-8.269-4.82-18.224-7.452-28.734-7.329c-1.31,3.025-2.836,6.019-4.599,8.95
					c-5.603,9.321-12.834,16.883-20.849,22.415c0.732,2.897,0.813,6.461-1.044,10.154c6.691,0.653,13.718,0.187,20.771-1.583
					c16.136-4.046,28.974-13.995,36.103-26.36C215.619,76.915,214.87,74.063,212.732,72.816z"/>
			</g>
		</g>
		<g>
			<g>
				<path class="st24" d="M97.45,96.852c-8.015-5.531-15.246-13.093-20.849-22.415c-1.762-2.931-3.288-5.925-4.599-8.95
					c-10.51-0.123-20.465,2.508-28.734,7.329c-2.139,1.247-2.887,4.099-1.648,6.248c7.128,12.366,19.967,22.314,36.103,26.36
					c7.053,1.769,14.079,2.236,20.771,1.583C96.637,103.313,96.719,99.749,97.45,96.852z"/>
			</g>
		</g>
		<g>
			<g>
				<path class="st25" d="M188.374,24.683c-0.62-2.667-3.339-4.259-5.964-3.48c-12.166,3.613-23.885,11.655-32.931,23.237
					c0.379,3.146,0.594,6.357,0.594,9.632c0,2.015-0.085,4.004-0.23,5.972c3.771,4.756,6.035,10.755,6.035,17.259v5.014
					c1.544,1.548,2.498,3.684,2.498,6.043c0,1.676-0.489,3.234-1.321,4.554c0.55,1.075,1.11,2.415,1.495,3.938
					c8.014-5.535,15.246-13.096,20.849-22.416C189.177,58.171,191.94,40.035,188.374,24.683z"/>
			</g>
		</g>
		<g>
			<g>
				<path class="st25" d="M106.234,59.947c-0.199-2.294-0.307-4.622-0.307-6.981c0-2.939,0.176-5.825,0.482-8.661
					C97.377,32.798,85.708,24.802,73.59,21.203c-2.625-0.779-5.345,0.813-5.964,3.48c-3.566,15.352-0.803,33.488,8.975,49.754
					c5.603,9.32,12.835,16.881,20.849,22.416c0.385-1.523,0.945-2.864,1.495-3.938c-0.832-1.32-1.321-2.878-1.321-4.554
					c0-2.46,1.041-4.672,2.704-6.231c-0.072,0.067-0.136,0.143-0.206,0.213v-5.038C100.122,70.755,102.416,64.719,106.234,59.947z"
					/>
			</g>
		</g>
		<g>
			<g>
				<g>
					<g>
						<path d="M132.876,2.296C131.459,0.833,129.492,0,127.465,0c-0.035,0-0.07,0-0.105,0.001c-2.06,0.029-4.04,0.919-5.434,2.442
							c-11.756,12.854-18.499,31.268-18.499,50.521c0,2.336,0.107,4.757,0.318,7.195c0.088,1.019,0.788,1.88,1.766,2.177
							c0.978,0.296,2.039-0.032,2.677-0.83c4.872-6.089,12.094-9.581,19.812-9.581c7.76,0,15.005,3.522,19.879,9.665
							c0.482,0.608,1.208,0.946,1.958,0.946c0.245,0,0.493-0.036,0.735-0.11c0.984-0.304,1.683-1.18,1.758-2.206
							c0.164-2.226,0.243-4.237,0.243-6.148C152.573,34.091,145.394,15.219,132.876,2.296z M147.573,54.113
							c-5.44-4.62-12.317-7.188-19.573-7.188c-7.247,0-14.124,2.565-19.564,7.181c-0.006-0.383-0.009-0.764-0.009-1.142
							c0-18.021,6.265-35.204,17.188-47.146c0.474-0.518,1.119-0.809,1.816-0.818c0.7,0.025,1.361,0.266,1.854,0.774
							c11.623,11.999,18.289,29.604,18.289,48.298C147.573,54.086,147.573,54.1,147.573,54.113z"/>
					</g>
				</g>
			</g>
		</g>
		<g>
			<g>
				<g>
					<g>
						<path d="M213.99,70.656c-8.824-5.144-19.197-7.813-30.021-7.669c-0.985,0.012-1.873,0.602-2.265,1.506
							c-1.293,2.984-2.789,5.896-4.447,8.656c-5.213,8.671-12.172,16.155-20.127,21.645c-0.859,0.593-1.26,1.657-1.004,2.67
							c0.75,2.97,0.463,5.803-0.854,8.419c-0.37,0.736-0.354,1.607,0.044,2.329c0.397,0.723,1.126,1.202,1.946,1.282
							c2.017,0.197,4.038,0.295,6.063,0.295c5.198,0,10.41-0.648,15.56-1.94c16.186-4.059,29.912-14.095,37.66-27.537
							C218.488,76.94,217.342,72.609,213.99,70.656z M212.214,77.815c-7.074,12.273-19.666,21.453-34.545,25.184
							c-5.515,1.383-11.104,1.967-16.659,1.744c0.561-2.191,0.667-4.482,0.312-6.791c7.973-5.789,14.94-13.443,20.221-22.227
							c1.491-2.481,2.859-5.077,4.077-7.735c9.334,0.147,18.242,2.55,25.854,6.986C212.421,75.528,212.767,76.855,212.214,77.815z"
							/>
					</g>
				</g>
			</g>
		</g>
		<g>
			<g>
				<g>
					<g>
						<path d="M100.727,105.883c-1.315-2.617-1.603-5.449-0.853-8.419c0.256-1.013-0.145-2.077-1.004-2.67
							c-7.955-5.489-14.915-12.974-20.126-21.645c-1.657-2.757-3.153-5.669-4.447-8.656c-0.392-0.904-1.279-1.494-2.265-1.506
							c-10.831-0.134-21.198,2.525-30.022,7.669c-3.352,1.953-4.499,6.284-2.556,9.655c7.749,13.442,21.476,23.479,37.661,27.537
							c5.15,1.292,10.361,1.941,15.56,1.94c2.024,0,4.047-0.098,6.063-0.295c0.82-0.08,1.548-0.56,1.946-1.281
							S101.098,106.619,100.727,105.883z M78.332,102.999L78.332,102.999c-14.879-3.73-27.47-12.91-34.545-25.184
							c-0.553-0.96-0.207-2.286,0.742-2.839c7.611-4.438,16.518-6.84,25.853-6.986c1.219,2.661,2.587,5.256,4.078,7.735
							c5.279,8.783,12.248,16.438,20.22,22.227c-0.355,2.309-0.249,4.599,0.312,6.791C89.441,104.962,83.848,104.383,78.332,102.999
							z"/>
					</g>
				</g>
			</g>
		</g>
		<g>
			<g>
				<g>
					<g>
						<path d="M190.81,24.118c-0.451-1.943-1.695-3.632-3.414-4.632c-1.714-0.997-3.789-1.244-5.697-0.68
							c-12.904,3.832-25.047,12.39-34.189,24.095c-0.406,0.521-0.59,1.182-0.512,1.837c0.383,3.181,0.576,6.321,0.576,9.334
							c0,1.868-0.073,3.762-0.223,5.788c-0.046,0.626,0.145,1.246,0.534,1.737c3.594,4.533,5.493,9.965,5.493,15.707v5.014
							c0,0.662,0.263,1.297,0.73,1.766c1.141,1.144,1.769,2.663,1.769,4.277c0,1.136-0.323,2.249-0.936,3.22
							c-0.471,0.747-0.514,1.687-0.111,2.473c0.569,1.113,1.005,2.261,1.296,3.412c0.2,0.794,0.777,1.439,1.544,1.728
							c0.285,0.107,0.583,0.16,0.88,0.16c0.501,0,0.997-0.15,1.421-0.443c8.538-5.896,15.997-13.914,21.571-23.185
							C191.285,59.518,194.663,40.708,190.81,24.118z M177.257,73.149c-4.578,7.614-10.507,14.317-17.276,19.56
							c0.59-1.37,0.896-2.848,0.896-4.348c0-2.583-0.881-5.031-2.499-7.003v-4.054c0-6.555-2.063-12.768-5.976-18.031
							c0.115-1.797,0.171-3.507,0.171-5.201c0-2.881-0.166-5.866-0.493-8.889c8.43-10.484,19.418-18.132,31.042-21.584
							c0.596-0.179,1.223-0.104,1.758,0.208c0.54,0.314,0.916,0.826,1.059,1.441C189.502,40.586,186.337,58.045,177.257,73.149z"/>
					</g>
				</g>
			</g>
		</g>
		<g>
			<g>
				<g>
					<g>
						<path d="M108.375,42.761C99.244,31.127,87.143,22.62,74.301,18.807c-1.906-0.564-3.982-0.318-5.696,0.679
							c-1.719,1.001-2.963,2.688-3.415,4.633c-3.854,16.589-0.476,35.399,9.268,51.607c5.572,9.27,13.031,17.287,21.57,23.185
							c0.424,0.293,0.92,0.443,1.421,0.443c0.296,0,0.594-0.053,0.879-0.16c0.767-0.288,1.344-0.934,1.544-1.728
							c0.29-1.148,0.727-2.297,1.297-3.412c0.402-0.786,0.359-1.727-0.112-2.473c-0.612-0.97-0.936-2.083-0.936-3.22
							c0-1.553,0.577-3.003,1.632-4.127c0.05-0.044,0.099-0.089,0.146-0.138l0.143-0.151c0.785-0.743,0.983-1.873,0.577-2.811v-3.83
							c0-5.784,1.924-11.246,5.563-15.796c0.401-0.501,0.594-1.138,0.539-1.777c-0.197-2.278-0.297-4.555-0.297-6.766
							c0-2.729,0.153-5.475,0.468-8.394C108.964,43.924,108.778,43.274,108.375,42.761z M103.664,59.185
							c-3.903,5.228-6.042,11.622-6.042,18.12v4.067c-1.602,1.962-2.499,4.439-2.499,6.989c0,1.501,0.307,2.979,0.896,4.349
							c-6.771-5.243-12.699-11.946-17.276-19.561c-9.081-15.105-12.245-32.564-8.683-47.9c0.143-0.615,0.519-1.127,1.059-1.441
							c0.345-0.2,0.726-0.303,1.113-0.303c0.215,0,0.431,0.031,0.645,0.095c11.569,3.436,22.521,11.041,30.94,21.465
							c-0.26,2.701-0.392,5.354-0.392,7.901C103.427,55.003,103.506,57.091,103.664,59.185z"/>
					</g>
				</g>
			</g>
		</g>
		<g>
			<g>
				<path class="st8" d="M156.716,108.412c3.916-6.141,2.067-12.12,0.339-15.497c-1.516,2.404-4.187,4.005-7.238,4.005
					c-0.466,0-0.921-0.047-1.367-0.119c-0.481,7.173-4.69,13.368-10.698,16.642v6.217c0,1.99,1.044,3.812,2.717,4.843
					c0.67,0.413-0.18-0.072,5.53,2.769c0.768,0.379,1.783,0.78,2.565,1.025c0.155,0.048,0.312,0.091,0.469,0.135
					c3.017-1.104,5.679-2.857,7.403-5.587c3.161-5.005,1.316-9.855,0.153-12.026C156.18,110.056,156.251,109.142,156.716,108.412z"
					/>
			</g>
		</g>
		<g>
			<g>
				<path class="st8" d="M107.55,96.801c-0.446,0.072-0.901,0.119-1.367,0.119c-3.052,0-5.723-1.602-7.238-4.005
					c-1.727,3.377-3.577,9.356,0.339,15.497c0.465,0.73,0.536,1.644,0.127,2.407c-1.163,2.171-3.008,7.021,0.153,12.026
					c1.724,2.73,4.386,4.483,7.403,5.587c0.157-0.044,0.314-0.087,0.469-0.135c0.782-0.245,1.797-0.646,2.565-1.025
					c6.081-3.025,4.91-2.387,5.53-2.769c1.673-1.031,2.717-2.852,2.717-4.843v-6.217C112.24,110.169,108.032,103.974,107.55,96.801z
					"/>
			</g>
		</g>
		<g>
			<g>
				<path class="st7" d="M183.412,159.638l-13.178-19.744c-0.931-1.274-1.999-2.443-3.185-3.483
					c-2.57-2.255-5.639-3.867-8.954-4.701l-8.548-3.133c-1.225-0.309-2.414-0.746-3.547-1.304l-5.069-2.5
					c-1.946-0.96-3.179-2.942-3.179-5.112v-6.217c-2.904,1.583-6.228,2.484-9.751,2.484c-3.524,0-6.847-0.901-9.751-2.484v6.217
					c0,2.17-1.232,4.152-3.179,5.112l-5.069,2.5c-1.133,0.558-2.322,0.995-3.547,1.304l-8.548,3.133
					c-3.315,0.834-6.385,2.446-8.954,4.701c-1.186,1.041-2.254,2.209-3.185,3.483l-13.178,19.744
					c-0.62,0.848-0.447,2.036,0.389,2.672l17.253,11.27c0.843,0.642,2.047,0.484,2.695-0.355l6.504-9.967v40.828h57.143v-40.828
					l6.504,9.967c0.648,0.839,1.852,0.997,2.695,0.355l17.253-11.27C183.859,161.673,184.032,160.485,183.412,159.638z"/>
			</g>
		</g>
		<g>
			<g>
				<path class="st14" d="M85.329,227.369c-0.27,0.323-0.527,0.659-0.766,1.009l-7.405,10.877
					c-2.922,4.293-1.673,10.156,2.746,12.885c3.996,2.468,9.213,1.495,12.051-2.247l4.901-6.46c1.147-1.512,2.816-2.542,4.681-2.889
					l27.284-5.079L85.329,227.369z"/>
			</g>
		</g>
		<g>
			<g>
				<path class="st14" d="M196.891,207.323l-0.544-0.578l-9.689-9.74l-6.406,1.709l-51.431,14.239l36.556,10.121
					c2.726,0.647,5.155,2.162,6.936,4.295l14.647-2.727c1.759-0.327,3.376-0.985,4.797-1.899
					C196.842,219.473,198.808,213.022,196.891,207.323z"/>
			</g>
		</g>
		<g>
			<g>
				<path class="st14" d="M180.483,239.255l-7.405-10.877c-1.816-2.667-4.563-4.559-7.702-5.304l-88.062-24.38l-7.358-2.306
					l-8.917,8.964l-0.365,1.161c-0.389,0.984-0.678,2.027-0.829,3.129c-0.968,7.09,3.801,13.691,10.836,15l85.423,15.902
					c1.865,0.348,3.534,1.377,4.681,2.889l4.901,6.46c2.838,3.742,8.055,4.714,12.051,2.247
					C182.156,249.412,183.405,243.548,180.483,239.255z"/>
			</g>
		</g>
		<g>
			<g>
				<path class="st1" d="M74.463,163.281l-5.917,11.046c-0.382,0.713-0.827,1.392-1.333,2.022
					c-7.298,9.097-14.606,16.929-15.74,17.954c-1.728,1.562-3.601,2.8-5.634,1.661l-3.625-1.967
					c-2.065-1.121-4.618-0.781-6.318,0.842c-1.292,1.234-1.088,3.352,0.416,4.315c1.558,1.501,1.152,4.095-0.792,5.046l-1.376,0.674
					c-3.611,1.768-4.589,6.792-1.333,9.506l6.698,5.583c2.383,1.986,5.892,1.812,8.065-0.401l12.079-12.818l20.092-20.199
					c1.526-1.534,2.908-3.205,4.128-4.992l5.726-8.387L74.463,163.281z"/>
			</g>
		</g>
		<g>
			<g>
				<path class="st1" d="M221.856,204.876l-1.376-0.674c-1.944-0.951-2.35-3.545-0.792-5.046c1.504-0.964,1.708-3.082,0.416-4.315
					c-1.699-1.623-4.253-1.963-6.318-0.842l-3.625,1.967c-2.032,1.139-3.905-0.099-5.634-1.661
					c-1.134-1.025-8.442-8.857-15.74-17.954c-0.506-0.63-0.952-1.31-1.333-2.022l-5.917-11.046l-15.136,9.887l5.726,8.387
					c1.22,1.787,2.602,3.458,4.128,4.992l20.092,20.199l12.079,12.818c2.174,2.213,5.682,2.388,8.065,0.401l6.698-5.583
					C226.445,211.668,225.467,206.644,221.856,204.876z"/>
			</g>
		</g>
		<g>
			<g>
				<polygon class="st14" points="96.79,204.085 128.821,212.953 160.851,204.085 				"/>
			</g>
		</g>
		<g>
			<g>
				<path class="st1" d="M149.817,79.801c-0.448,0-0.886,0.038-1.316,0.104v15.521c0,0.462-0.021,0.92-0.052,1.375
					c0.446,0.072,0.901,0.119,1.367,0.119c4.727,0,8.56-3.832,8.56-8.56C158.376,83.634,154.544,79.801,149.817,79.801z"/>
			</g>
		</g>
		<g>
			<g>
				<path class="st1" d="M147.24,77.301c-2.075-0.48-4.593-1.682-7.481-4.306c-0.571-0.519-1.452-0.476-1.954,0.11
					c-3.122,3.645-14.194,14.701-30.307,10.111v12.209c0,11.275,9.226,20.501,20.501,20.501c11.276,0,20.501-9.226,20.501-20.501
					V78.863C148.501,78.11,147.974,77.472,147.24,77.301z"/>
			</g>
		</g>
		<g>
			<g>
				<path class="st1" d="M107.499,95.426V83.217c-1.408-0.401-2.854-0.92-4.336-1.575c-0.956-0.422-2.073-0.228-2.835,0.487
					c-1.663,1.559-2.704,3.771-2.704,6.231c0,4.727,3.832,8.56,8.559,8.56c0.467,0,0.921-0.047,1.367-0.119
					C107.52,96.346,107.499,95.889,107.499,95.426z"/>
			</g>
		</g>
		<g>
			<g>
				<path class="st8" d="M128,49.426c-15.333,0-27.878,12.545-27.878,27.878v5.038c0.07-0.07,0.134-0.146,0.206-0.213
					c0.762-0.715,1.879-0.909,2.835-0.487c1.483,0.655,2.928,1.174,4.336,1.575c16.113,4.59,27.185-6.467,30.307-10.111
					c0.502-0.586,1.383-0.628,1.953-0.11c2.887,2.624,5.406,3.825,7.481,4.306c0.734,0.17,1.261,0.809,1.261,1.562v1.042
					c0.429-0.066,0.868-0.104,1.316-0.104c2.368,0,4.512,0.962,6.061,2.517v-5.014C155.878,61.972,143.333,49.426,128,49.426z"/>
			</g>
		</g>
		<g>
			<g>
				<path class="st1" d="M180.483,239.255l-7.405-10.877c-1.816-2.667-4.563-4.559-7.702-5.304l-8.922-2.471l-6.95,18.712l6.6,1.229
					c1.865,0.348,3.534,1.377,4.681,2.889l4.901,6.46c2.838,3.742,8.055,4.714,12.051,2.247
					C182.156,249.412,183.405,243.548,180.483,239.255z"/>
			</g>
		</g>
		<g>
			<g>
				<path class="st1" d="M103.301,230.714l-17.973-3.346c-0.27,0.323-0.527,0.659-0.766,1.009l-7.405,10.877
					c-2.922,4.292-1.673,10.156,2.746,12.884c3.996,2.468,9.213,1.495,12.051-2.247l4.901-6.46c1.147-1.511,2.816-2.542,4.681-2.889
					l5.065-0.943L103.301,230.714z"/>
			</g>
		</g>
		<g>
			<g>
				<path class="st1" d="M145.999,127.272l-5.069-2.5c-1.946-0.96-3.179-2.942-3.179-5.112v-6.217
					c-2.904,1.583-6.228,2.484-9.751,2.484c-3.524,0-6.847-0.901-9.751-2.484v6.217c0,2.17-1.232,4.152-3.179,5.112l-5.069,2.5
					c-0.719,0.354-1.464,0.654-2.223,0.909c3.352,12.89,11.17,21.986,20.222,21.986c9.052,0,16.87-9.096,20.222-21.986
					C147.463,127.926,146.719,127.627,145.999,127.272z"/>
			</g>
		</g>
		<g>
			<g>
				<g>
					<path d="M159.281,91.777c-0.408-0.801-1.216-1.319-2.113-1.359c-0.896-0.04-1.748,0.404-2.227,1.163
						c-1.122,1.778-3.037,2.84-5.124,2.84c-0.286,0-0.603-0.028-0.967-0.088c-0.694-0.113-1.405,0.072-1.956,0.511
						c-0.551,0.438-0.892,1.088-0.938,1.79c-0.414,6.169-3.929,11.632-9.4,14.614c-0.804,0.438-1.304,1.28-1.304,2.195v6.218
						c0,2.858,1.46,5.464,3.906,6.971l0.098,0.061c0.365,0.227,0.444,0.265,1.206,0.637c0.651,0.317,1.889,0.921,4.434,2.187
						c0.869,0.428,1.988,0.875,2.919,1.166c0.133,0.042,0.267,0.08,0.399,0.117l0.129,0.036c0.226,0.065,0.458,0.098,0.69,0.098
						c0.291,0,0.582-0.051,0.859-0.152c3.874-1.419,6.787-3.64,8.657-6.601c3.875-6.134,1.538-12.086,0.291-14.45
						C163.479,102.431,161.108,95.351,159.281,91.777z M154.386,112.001c1.019,1.9,2.366,5.663-0.063,9.509
						c-1.15,1.82-2.961,3.257-5.389,4.276c-0.611-0.213-1.306-0.498-1.822-0.752c-2.556-1.271-3.802-1.879-4.458-2.199
						c-0.563-0.274-0.565-0.27-0.765-0.393l-0.11-0.068c-0.956-0.589-1.527-1.604-1.527-2.713v-4.788
						c5.544-3.497,9.291-9.095,10.402-15.483c1.993-0.149,3.874-0.828,5.473-1.944c0.717,2.821,0.663,6.201-1.52,9.623
						C153.648,108.574,153.562,110.463,154.386,112.001z"/>
				</g>
			</g>
		</g>
		<g>
			<g>
				<g>
					<path d="M119.445,111.248c-5.472-2.982-8.986-8.445-9.4-14.614c-0.047-0.702-0.388-1.353-0.939-1.79s-1.261-0.625-1.955-0.511
						c-0.362,0.059-0.678,0.087-0.968,0.087c-2.087,0-4.003-1.062-5.124-2.839c-0.479-0.759-1.329-1.214-2.227-1.163
						c-0.897,0.04-1.704,0.559-2.113,1.358c-1.827,3.571-4.196,10.646,0.439,17.955c-1.248,2.368-3.581,8.318,0.292,14.448
						c1.87,2.961,4.783,5.183,8.657,6.601c0.277,0.102,0.568,0.152,0.859,0.152c0.231,0,0.463-0.032,0.689-0.097l0.124-0.035
						c0.137-0.038,0.273-0.077,0.404-0.118c0.939-0.294,2.059-0.742,2.931-1.172c2.753-1.369,4.014-1.985,4.629-2.286
						c0.792-0.387,0.788-0.395,0.98-0.518l0.119-0.075c2.446-1.507,3.906-4.112,3.906-6.971v-6.218
						C120.749,112.528,120.249,111.687,119.445,111.248z M115.749,119.661c0,1.109-0.571,2.124-1.53,2.714l-0.183,0.117
						c-0.075,0.04-0.198,0.099-0.487,0.24c-0.62,0.303-1.89,0.923-4.654,2.298c-0.52,0.256-1.214,0.542-1.831,0.756
						c-2.428-1.02-4.238-2.456-5.387-4.276c-2.429-3.845-1.082-7.608-0.063-9.51c0.823-1.536,0.737-3.426-0.223-4.932
						c-2.182-3.423-2.236-6.804-1.519-9.624c1.599,1.116,3.48,1.795,5.474,1.944c1.11,6.39,4.858,11.987,10.402,15.484V119.661z"/>
				</g>
			</g>
		</g>
		<g>
			<g>
				<g>
					<path d="M185.468,158.214l-13.154-19.708c-0.02-0.029-0.04-0.059-0.061-0.088c-1.04-1.422-2.235-2.729-3.556-3.887
						c-2.822-2.477-6.23-4.277-9.863-5.214l-8.428-3.089c-0.082-0.029-0.165-0.056-0.249-0.076
						c-1.056-0.267-2.082-0.644-3.053-1.122l-5.069-2.5c-1.084-0.534-1.784-1.66-1.784-2.869v-6.218
						c0-0.882-0.465-1.699-1.224-2.149c-0.758-0.449-1.697-0.467-2.473-0.046c-5.233,2.853-11.878,2.851-17.11,0
						c-0.774-0.42-1.714-0.404-2.473,0.046c-0.759,0.45-1.224,1.268-1.224,2.149v6.218c0,1.228-0.684,2.326-1.785,2.869l-5.068,2.5
						c-0.971,0.479-1.998,0.856-3.052,1.122c-0.084,0.021-0.167,0.047-0.25,0.076l-8.429,3.089
						c-3.633,0.937-7.041,2.737-9.862,5.213c-1.32,1.158-2.517,2.466-3.556,3.889c-0.021,0.028-0.041,0.058-0.061,0.087
						l-13.154,19.709c-1.368,1.93-0.958,4.646,0.928,6.084c0.048,0.037,0.098,0.071,0.148,0.104l17.193,11.23
						c1.924,1.392,4.64,1.011,6.102-0.881c0.04-0.053,0.079-0.106,0.115-0.162l1.91-2.928v32.422c0,1.381,1.119,2.5,2.5,2.5h57.143
						c1.381,0,2.5-1.119,2.5-2.5v-32.422l1.91,2.928c0.036,0.056,0.074,0.109,0.115,0.162c1.461,1.89,4.174,2.276,6.102,0.881
						l17.192-11.23c0.051-0.032,0.1-0.067,0.147-0.104C186.427,162.861,186.837,160.145,185.468,158.214z M164.771,171.247
						l-6.105-9.355c-0.604-0.926-1.744-1.345-2.807-1.03c-1.061,0.315-1.787,1.29-1.787,2.396v38.327h-52.143v-38.327
						c0-1.106-0.727-2.081-1.787-2.396c-1.059-0.315-2.202,0.103-2.807,1.03l-6.105,9.355L74.944,160.61l12.871-19.283
						c0.816-1.11,1.753-2.132,2.786-3.038c2.262-1.985,4.999-3.422,7.915-4.155c0.085-0.021,0.168-0.048,0.25-0.077l8.43-3.09
						c1.35-0.35,2.665-0.838,3.911-1.452l5.067-2.5c2.821-1.39,4.574-4.207,4.574-7.354v-2.415c4.663,1.557,9.84,1.557,14.502,0
						v2.415c0,3.146,1.753,5.964,4.574,7.354l5.068,2.5c1.245,0.614,2.561,1.103,3.911,1.452l8.429,3.09
						c0.082,0.029,0.166,0.056,0.25,0.077c2.916,0.733,5.653,2.17,7.917,4.155c1.032,0.905,1.969,1.928,2.785,3.038l12.87,19.283
						L164.771,171.247z"/>
				</g>
			</g>
		</g>
		<g>
			<g>
				<g>
					<path d="M129.278,233.007l-43.492-8.097c-0.887-0.165-1.799,0.162-2.377,0.857c-0.331,0.396-0.637,0.801-0.912,1.203
						l-7.404,10.877c-1.801,2.646-2.426,5.827-1.759,8.957c0.667,3.131,2.534,5.78,5.258,7.462c1.909,1.18,4.025,1.747,6.116,1.747
						c3.515,0,6.96-1.604,9.24-4.609l4.9-6.461c0.772-1.018,1.89-1.707,3.147-1.941l27.284-5.079
						c1.184-0.221,2.042-1.254,2.042-2.458S130.462,233.228,129.278,233.007z M101.079,238.086
						c-2.482,0.463-4.689,1.825-6.215,3.836l-4.9,6.461c-2.071,2.729-5.83,3.429-8.746,1.63c-1.551-0.958-2.615-2.467-2.994-4.25
						c-0.38-1.782-0.024-3.594,1.001-5.101l7.182-10.55l28.754,5.353L101.079,238.086z"/>
				</g>
			</g>
		</g>
		<g>
			<g>
				<g>
					<path d="M199.26,206.526c-0.114-0.342-0.303-0.655-0.55-0.918l-0.544-0.577c-0.016-0.017-0.031-0.032-0.047-0.048l-9.689-9.741
						c-0.632-0.636-1.554-0.886-2.417-0.652l-6.429,1.716l-51.43,14.238c-1.083,0.3-1.833,1.285-1.833,2.409s0.75,2.109,1.833,2.409
						l36.645,10.145c2.173,0.515,4.159,1.745,5.595,3.464c0.479,0.574,1.186,0.897,1.919,0.897c0.151,0,0.305-0.014,0.458-0.042
						l14.646-2.727c2.042-0.38,3.957-1.139,5.691-2.255C199.069,221.013,201.599,213.479,199.26,206.526z M190.403,220.64
						c-1.188,0.764-2.5,1.283-3.902,1.544l-13.292,2.475c-1.998-1.963-4.516-3.366-7.166-3.993l-27.853-7.712l42.705-11.823
						l5.009-1.337l8.646,8.692l0.126,0.134C196.008,213.254,194.296,218.138,190.403,220.64z"/>
				</g>
			</g>
		</g>
		<g>
			<g>
				<g>
					<path d="M182.549,237.848l-7.404-10.877c-2.171-3.189-5.436-5.438-9.102-6.306l-87.981-24.357l-7.358-2.306
						c-0.892-0.279-1.862-0.039-2.52,0.623l-8.917,8.964c-0.282,0.283-0.492,0.631-0.612,1.013l-0.339,1.078
						c-0.462,1.188-0.781,2.407-0.947,3.624c-1.15,8.423,4.497,16.239,12.855,17.796l85.422,15.902
						c1.257,0.234,2.374,0.924,3.146,1.942l4.901,6.46c2.28,3.005,5.725,4.61,9.24,4.609c2.091,0,4.207-0.568,6.116-1.747
						c2.724-1.682,4.59-4.332,5.257-7.462C184.975,243.674,184.35,240.493,182.549,237.848z M179.418,245.763
						c-0.38,1.782-1.443,3.292-2.994,4.25c-2.918,1.802-6.677,1.098-8.746-1.63l-4.9-6.46c-1.525-2.012-3.732-3.374-6.215-3.837
						l-85.423-15.902c-5.732-1.066-9.604-6.428-8.816-12.204c0.116-0.849,0.343-1.706,0.676-2.549
						c0.022-0.056,0.042-0.112,0.06-0.169l0.182-0.579l7.416-7.455l5.989,1.875l88.152,24.404c2.538,0.603,4.745,2.122,6.213,4.278
						l7.404,10.877C179.441,242.168,179.798,243.979,179.418,245.763z"/>
				</g>
			</g>
		</g>
		<g>
			<g>
				<g>
					<path d="M92.051,172.681c-0.131-0.659-0.522-1.237-1.084-1.604l-15.136-9.888c-0.586-0.384-1.308-0.505-1.986-0.329
						c-0.679,0.173-1.254,0.624-1.584,1.241l-5.917,11.046c-0.315,0.587-0.678,1.139-1.08,1.64
						c-7.293,9.091-14.533,16.819-15.465,17.662c-1.961,1.771-2.466,1.486-2.766,1.319l-3.625-1.967
						c-3.031-1.646-6.743-1.15-9.236,1.231c-1.174,1.121-1.759,2.691-1.603,4.308c0.144,1.493,0.901,2.827,2.093,3.712
						c0.112,0.159,0.118,0.325,0.099,0.446c-0.022,0.145-0.1,0.342-0.338,0.459l-1.376,0.674c-2.571,1.259-4.312,3.712-4.655,6.563
						c-0.331,2.747,0.697,5.338,2.82,7.107l6.698,5.583c1.558,1.299,3.476,1.941,5.394,1.941c2.215,0,4.431-0.856,6.091-2.548
						l12.033-12.77l20.092-20.199c1.629-1.638,3.116-3.436,4.42-5.345l5.726-8.387C92.042,174.023,92.182,173.34,92.051,172.681z
						 M81.809,180.146c-1.131,1.656-2.422,3.217-3.836,4.639l-20.139,20.247l-12.044,12.78c-1.252,1.275-3.307,1.376-4.681,0.233
						l-6.697-5.583c-1.091-0.909-1.131-2.063-1.058-2.67c0.138-1.145,0.862-2.168,1.889-2.671l1.376-0.674
						c1.645-0.805,2.796-2.365,3.08-4.174c0.284-1.81-0.334-3.647-1.653-4.918c-0.118-0.113-0.248-0.216-0.385-0.304
						c-0.026-0.017-0.105-0.067-0.117-0.192c-0.012-0.124,0.056-0.188,0.079-0.211c0.557-0.531,1.278-0.808,2.008-0.808
						c0.474,0,0.952,0.116,1.391,0.354l3.594,1.95c3.91,2.191,7.269-0.844,8.533-1.987c1.167-1.055,8.442-8.805,16.014-18.244
						c0.593-0.739,1.127-1.548,1.586-2.405l4.63-8.643l10.716,7L81.809,180.146z"/>
				</g>
			</g>
		</g>
		<g>
			<g>
				<g>
					<path d="M227.61,209.193c-0.344-2.851-2.084-5.304-4.655-6.563l-1.377-0.674c-0.238-0.117-0.315-0.314-0.338-0.459
						c-0.02-0.121-0.014-0.287,0.1-0.446c1.192-0.885,1.948-2.219,2.093-3.712c0.155-1.616-0.429-3.187-1.603-4.307
						c-2.495-2.384-6.207-2.878-9.236-1.232l-3.655,1.983c-0.271,0.155-0.775,0.435-2.735-1.335
						c-0.933-0.843-8.17-8.569-15.466-17.662c-0.401-0.502-0.766-1.054-1.079-1.64l-5.917-11.047
						c-0.331-0.617-0.906-1.068-1.585-1.241c-0.679-0.174-1.399-0.055-1.986,0.329l-15.137,9.888
						c-0.563,0.367-0.953,0.945-1.085,1.604c-0.131,0.659,0.009,1.343,0.388,1.898l5.727,8.387c1.304,1.908,2.791,3.706,4.42,5.344
						l20.045,20.151l12.115,12.854c1.638,1.667,3.837,2.515,6.042,2.515c1.92-0.001,3.845-0.643,5.407-1.945l6.698-5.583
						C226.913,214.532,227.941,211.941,227.61,209.193z M221.589,212.462l-6.698,5.583c-1.373,1.143-3.429,1.041-4.646-0.196
						l-12.126-12.865l-20.092-20.199c-1.414-1.422-2.704-2.983-3.836-4.639l-4.287-6.279l10.717-7l4.63,8.644
						c0.459,0.856,0.993,1.665,1.586,2.405c7.575,9.441,14.848,17.189,16.015,18.244c1.266,1.143,4.63,4.176,8.502,2.003
						l3.626-1.967c1.113-0.606,2.479-0.424,3.397,0.454c0.022,0.021,0.091,0.086,0.078,0.21c-0.012,0.125-0.091,0.176-0.116,0.192
						c-0.139,0.088-0.268,0.19-0.386,0.304c-1.318,1.271-1.937,3.108-1.652,4.918c0.283,1.809,1.436,3.369,3.079,4.174l1.376,0.674
						c0,0,0,0,0.001,0c1.027,0.503,1.751,1.526,1.889,2.671C222.719,210.398,222.679,211.553,221.589,212.462z"/>
				</g>
			</g>
		</g>
		<g>
			<g>
				<g>
					<path d="M163.329,203.748c-0.169-1.239-1.227-2.163-2.478-2.163H96.79c-1.25,0-2.309,0.924-2.477,2.163
						c-0.168,1.239,0.605,2.412,1.81,2.746l32.031,8.868c0.218,0.061,0.442,0.091,0.667,0.091c0.224,0,0.449-0.03,0.667-0.091
						l32.03-8.868C162.724,206.16,163.497,204.987,163.329,203.748z M128.821,210.359l-13.632-3.774h27.263L128.821,210.359z"/>
				</g>
			</g>
		</g>
		<g>
			<g>
				<g>
					<path d="M148.119,77.435c-1.219,0.188-2.118,1.237-2.118,2.471v15.521c0,0.407-0.019,0.809-0.045,1.209
						c-0.086,1.286,0.821,2.427,2.094,2.634c0.632,0.103,1.21,0.152,1.768,0.152c6.098,0,11.059-4.961,11.059-11.06
						C160.876,81.706,154.935,76.381,148.119,77.435z M151.001,94.305V82.418c2.776,0.552,4.875,3.007,4.875,5.943
						S153.777,93.753,151.001,94.305z"/>
				</g>
			</g>
		</g>
		<g>
			<g>
				<g>
					<path d="M147.806,74.866c-2.022-0.469-4.163-1.721-6.364-3.72c-0.773-0.703-1.817-1.069-2.852-1.005
						c-1.047,0.065-2,0.54-2.683,1.338c-2.784,3.248-13.011,13.527-27.724,9.333c-0.754-0.214-1.565-0.063-2.191,0.409
						c-0.626,0.473-0.994,1.211-0.994,1.995v12.209c0,12.684,10.318,23.002,23.001,23.002c12.683,0,23.001-10.318,23.001-23.002
						V78.863C151.001,76.946,149.687,75.303,147.806,74.866z M146.001,95.426c0,9.927-8.075,18.002-18.001,18.002
						c-9.926,0-18.001-8.075-18.001-18.002v-9.067c14.715,2.609,25.08-6.572,28.938-10.763c2.34,1.964,4.71,3.295,7.064,3.967
						V95.426z"/>
				</g>
			</g>
		</g>
		<g>
			<g>
				<g>
					<path d="M109.999,95.426V83.217c0-1.117-0.741-2.098-1.814-2.404c-1.332-0.38-2.682-0.87-4.01-1.456
						c-1.876-0.831-4.057-0.458-5.556,0.949c-2.221,2.082-3.494,5.019-3.494,8.056c0,6.098,4.961,11.059,11.06,11.059
						c0.56,0,1.138-0.05,1.767-0.151c1.274-0.206,2.182-1.349,2.095-2.637C110.018,96.232,109.999,95.832,109.999,95.426z
						 M104.999,94.304c-2.776-0.552-4.875-3.007-4.875-5.942c0-1.686,0.68-3.251,1.915-4.409c0.021-0.02,0.049-0.03,0.076-0.03
						c0.014,0,0.027,0.002,0.04,0.008c0.941,0.415,1.893,0.79,2.845,1.119V94.304z"/>
				</g>
			</g>
		</g>
		<g>
			<g>
				<g>
					<g>
						<path d="M128,46.926c-16.75,0-30.378,13.628-30.378,30.379v5.037c0,1.011,0.609,1.923,1.543,2.31
							c0.933,0.386,2.009,0.174,2.724-0.542l0.159-0.166c0.031-0.023,0.072-0.028,0.104-0.014c1.54,0.68,3.107,1.249,4.66,1.691
							c2.94,0.838,5.726,1.197,8.341,1.197c11.979,0,20.392-7.54,23.782-11.223c2.34,1.964,4.71,3.295,7.064,3.967v0.344
							c0,0.73,0.319,1.425,0.875,1.899c0.556,0.476,1.286,0.685,2.013,0.57c2.002-0.313,3.859,0.345,5.219,1.707
							c0.714,0.717,1.79,0.934,2.726,0.546c0.935-0.387,1.545-1.299,1.545-2.311v-5.014C158.378,60.554,144.75,46.926,128,46.926z
							 M153.378,77.885c-0.856-0.29-1.752-0.476-2.67-0.548c-0.488-1.217-1.549-2.156-2.902-2.471
							c-2.022-0.469-4.163-1.721-6.364-3.72c-0.773-0.703-1.817-1.069-2.852-1.005c-1.047,0.065-2,0.54-2.683,1.338
							c-2.783,3.248-13.007,13.527-27.723,9.333c-1.332-0.38-2.682-0.87-4.01-1.456c-0.502-0.223-1.025-0.358-1.552-0.411v-1.641
							c0-13.994,11.384-25.379,25.378-25.379c13.993,0,25.378,11.385,25.378,25.379V77.885z"/>
					</g>
				</g>
			</g>
		</g>
		<g>
			<g>
				<g>
					<path d="M182.549,237.848l-7.404-10.877c-2.171-3.189-5.436-5.438-9.102-6.306l-8.922-2.471
						c-1.249-0.346-2.559,0.32-3.011,1.539l-6.95,18.712c-0.257,0.691-0.195,1.461,0.169,2.103c0.363,0.642,0.992,1.091,1.718,1.226
						l6.6,1.229c1.257,0.234,2.374,0.924,3.146,1.942l4.901,6.46c2.28,3.005,5.725,4.61,9.24,4.609c2.091,0,4.207-0.568,6.116-1.747
						c2.724-1.682,4.59-4.332,5.257-7.462C184.975,243.674,184.35,240.493,182.549,237.848z M179.418,245.763
						c-0.38,1.782-1.443,3.292-2.994,4.25c-2.918,1.802-6.677,1.098-8.746-1.63l-4.9-6.46c-1.525-2.012-3.732-3.374-6.216-3.837
						l-3.68-0.685l5.117-13.776l6.8,1.882c2.538,0.603,4.745,2.122,6.213,4.278l7.404,10.877
						C179.441,242.168,179.798,243.979,179.418,245.763z"/>
				</g>
			</g>
		</g>
		<g>
			<g>
				<g>
					<path d="M149.018,125.812c-0.681-0.229-1.325-0.491-1.913-0.781l-5.069-2.5c-1.084-0.534-1.784-1.66-1.784-2.869v-6.218
						c0-0.882-0.465-1.699-1.224-2.149c-0.758-0.449-1.697-0.467-2.473-0.046c-5.233,2.853-11.878,2.851-17.11,0
						c-0.774-0.42-1.714-0.404-2.473,0.046c-0.759,0.45-1.224,1.268-1.224,2.149v6.218c0,1.228-0.684,2.326-1.785,2.869
						l-5.067,2.499c-0.59,0.291-1.234,0.555-1.914,0.782c-1.246,0.418-1.955,1.729-1.625,2.999
						c3.769,14.492,12.657,23.856,22.642,23.856c9.985,0,18.873-9.364,22.642-23.856
						C150.972,127.54,150.263,126.229,149.018,125.812z M128,147.667c-7.071,0-13.819-7.147-17.201-18.005
						c0.104-0.048,0.206-0.098,0.308-0.147l5.067-2.5c2.821-1.39,4.574-4.207,4.574-7.354v-2.415c4.663,1.557,9.84,1.557,14.502,0
						v2.415c0,3.146,1.753,5.964,4.574,7.354l5.069,2.501c0.101,0.049,0.203,0.099,0.306,0.146
						C141.819,140.52,135.071,147.667,128,147.667z"/>
				</g>
			</g>
		</g>
		<g>
			<g>
				<path class="st9" d="M220.282,24.85c-4.5-0.8-8-4.3-8.9-8.7c0-0.2-0.4-0.2-0.4,0c-0.9,4.4-4.4,7.9-8.9,8.7c-0.2,0-0.2,0.3,0,0.4
					c4.5,0.8,8,4.3,8.9,8.7c0,0.2,0.4,0.2,0.4,0c0.9-4.4,4.4-7.9,8.9-8.7C220.482,25.15,220.482,24.85,220.282,24.85z"/>
			</g>
		</g>
		<g>
			<g>
				<path class="st4" d="M207.227,144.894c-3.506-0.623-6.232-3.35-6.933-6.777c0-0.156-0.312-0.156-0.312,0
					c-0.701,3.428-3.428,6.154-6.933,6.777c-0.156,0-0.156,0.234,0,0.312c3.506,0.623,6.232,3.35,6.933,6.777
					c0,0.155,0.312,0.155,0.312,0c0.701-3.428,3.428-6.154,6.933-6.777C207.382,145.128,207.382,144.894,207.227,144.894z"/>
			</g>
		</g>
		<g>
			<g>
				<path class="st5" d="M33.182,234.5h-2.3v-2.3c0-1.7-1.4-3.2-3.2-3.2s-3.2,1.4-3.2,3.2v2.3h-2.3c-1.7,0-3.2,1.4-3.2,3.2
					c0,1.8,1.4,3.2,3.2,3.2h2.3v2.3c0,1.7,1.4,3.2,3.2,3.2s3.2-1.4,3.2-3.2v-2.3h2.3c1.7,0,3.2-1.4,3.2-3.2
					C36.382,235.9,34.982,234.5,33.182,234.5z"/>
			</g>
		</g>
		<g>
			<g>
				<path class="st6" d="M182.282,0c-1.878,0-3.4,1.522-3.4,3.4c0,1.878,1.522,3.4,3.4,3.4c1.878,0,3.4-1.522,3.4-3.4
					C185.682,1.522,184.16,0,182.282,0z"/>
			</g>
		</g>
		<g>
			<g>
				<path class="st9" d="M54.282,249.2c-1.878,0-3.4,1.522-3.4,3.4c0,1.877,1.522,3.4,3.4,3.4c1.878,0,3.4-1.522,3.4-3.4
					C57.682,250.722,56.16,249.2,54.282,249.2z"/>
			</g>
		</g>
	</g>
</g>
<g id="Layer_74">
</g>
<g id="Layer_75">
</g>
<g id="Layer_76">
</g>
<g id="Layer_77">
</g>
<g id="Layer_78">
</g>
<g id="Layer_79">
</g>
<g id="Layer_80">
</g>
</svg>
