<?xml version="1.0" encoding="utf-8"?>
<!-- Generator: Adobe Illustrator 24.0.0, SVG Export Plug-In . SVG Version: 6.00 Build 0)  -->
<svg version="1.1" xmlns="http://www.w3.org/2000/svg" xmlns:xlink="http://www.w3.org/1999/xlink" x="0px" y="0px"
	 viewBox="0 0 256 256" style="enable-background:new 0 0 256 256;" xml:space="preserve">
<style type="text/css">
	.st0{fill:#6CADEF;}
	.st1{fill:#F9D0B4;}
	.st2{fill:#5B5D60;}
	.st3{fill:#9BE5F9;}
	.st4{fill:#FC657E;}
	.st5{fill:#70D6F9;}
	.st6{fill:#F5C84C;}
	.st7{fill:#F98FA6;}
	.st8{fill:#FED690;}
	.st9{fill:#87D147;}
	.st10{fill:#B2E26D;}
	.st11{fill:#EDF4FC;}
	.st12{fill:#FCDD86;}
	.st13{fill:#754E34;}
	.st14{fill:#B598F9;}
	.st15{fill:#5290DB;}
	.st16{fill:#C7D7E5;}
	.st17{fill:#C18E6B;}
	.st18{fill:#DAE6F1;}
	.st19{fill:#3CAADC;}
	.st20{fill:#818182;}
	.st21{fill:#CBEFF7;}
	.st22{fill:#FCA265;}
	.st23{fill:#A57453;}
	.st24{fill:#8652D8;}
	.st25{fill:#966AEA;}
	.st26{fill:#FEB872;}
	.st27{fill:#EDB311;}
	.st28{fill:#EF4460;}
</style>
<g id="Layer_1">
</g>
<g id="Layer_2">
</g>
<g id="Layer_3">
</g>
<g id="Layer_4">
</g>
<g id="Layer_5">
</g>
<g id="Layer_6">
</g>
<g id="Layer_7">
</g>
<g id="Layer_8">
</g>
<g id="Layer_9">
</g>
<g id="Layer_10">
</g>
<g id="Layer_11">
</g>
<g id="Layer_12">
</g>
<g id="Layer_13">
</g>
<g id="Layer_14">
</g>
<g id="Layer_15">
</g>
<g id="Layer_16">
</g>
<g id="Layer_17">
</g>
<g id="Layer_18">
</g>
<g id="Layer_19">
</g>
<g id="Layer_20">
</g>
<g id="Layer_21">
	<g>
		<g>
			<g>
				<path class="st16" d="M173.689,85.095c-11.717,0-23.056-3.511-32.659-9.919c-3.884-2.591-8.361-4.152-13.03-4.152
					c-4.669,0-9.146,1.561-13.029,4.152c-9.604,6.408-20.943,9.919-32.659,9.919H49.203v71.223
					c19.591,21.374,47.696,34.833,78.797,34.833h0c31.101,0,59.206-13.459,78.797-34.833V85.095H173.689z"/>
			</g>
		</g>
		<g>
			<g>
				<path class="st11" d="M49.203,85.095v71.223c3.124,3.408,6.466,6.612,10,9.595V85.095H49.203z"/>
			</g>
		</g>
		<g>
			<g>
				<path class="st11" d="M196.797,85.095v80.819c3.534-2.983,6.876-6.188,10-9.596V85.095H196.797z"/>
			</g>
		</g>
		<g>
			<g>
				<path class="st5" d="M173.689,95.095c-13.623,0-26.835-4.011-38.209-11.601c-4.923-3.284-10.03-3.289-14.959,0
					c-11.374,7.589-24.587,11.601-38.209,11.601H59.203v57.224c18.207,18.37,43.066,28.832,68.797,28.832
					c25.731,0,50.59-10.462,68.797-28.832V95.095H173.689z"/>
			</g>
		</g>
		<g>
			<g>
				<path class="st4" d="M205.206,192.7h-2.4v-2.3c0-1.8-1.4-3.2-3.2-3.2c-1.7,0-3.2,1.4-3.2,3.1v2.4h-2.3c-1.8,0-3.2,1.4-3.2,3.2
					c-0.1,1.7,1.3,3.2,3.2,3.2h2.3v2.3c0,1.8,1.4,3.2,3.2,3.2c1.7,0,3.2-1.4,3.2-3.1v-2.4h2.3c1.8,0,3.2-1.4,3.2-3.2
					C208.306,194.2,206.906,192.7,205.206,192.7z"/>
			</g>
		</g>
		<g>
			<g>
				<path class="st6" d="M172.506,208.1c-1.878,0-3.4,1.522-3.4,3.4c0,1.878,1.522,3.4,3.4,3.4c1.878,0,3.4-1.522,3.4-3.4
					C175.906,209.622,174.384,208.1,172.506,208.1z"/>
			</g>
		</g>
		<g>
			<g>
				<path class="st5" d="M114.506,41.1c-1.878,0-3.4,1.522-3.4,3.4c0,1.878,1.522,3.4,3.4,3.4c1.878,0,3.4-1.522,3.4-3.4
					C117.906,42.622,116.384,41.1,114.506,41.1z"/>
			</g>
		</g>
		<g>
			<g>
				<path class="st9" d="M203.288,65.8c-3.1-0.6-5.6-3-6.2-6.1c0-0.1-0.3-0.1-0.3,0c-0.6,3.1-3.1,5.5-6.2,6.1c-0.1,0-0.1,0.2,0,0.3
					c3.1,0.6,5.6,3,6.2,6.1c0,0.1,0.3,0.1,0.3,0c0.6-3.1,3.1-5.5,6.2-6.1C203.388,66,203.388,65.8,203.288,65.8z"/>
			</g>
		</g>
		<g>
			<g>
				<path class="st6" d="M90.288,56.8c-4.5-0.8-8-4.3-8.9-8.7c0-0.2-0.4-0.2-0.4,0c-0.9,4.4-4.4,7.9-8.9,8.7c-0.2,0-0.2,0.3,0,0.4
					c4.5,0.8,8,4.3,8.9,8.7c0,0.2,0.4,0.2,0.4,0c0.9-4.4,4.4-7.9,8.9-8.7C90.488,57.1,90.488,56.8,90.288,56.8z"/>
			</g>
		</g>
		<g>
			<g>
				<g>
					<path d="M206.797,82.595h-33.108c-11.145,0-21.959-3.284-31.272-9.498c-4.483-2.992-9.468-4.573-14.417-4.573
						c-4.948,0-9.934,1.581-14.417,4.573c-9.313,6.214-20.126,9.498-31.271,9.498H49.203c-1.381,0-2.5,1.119-2.5,2.5v71.224
						c0,0.625,0.234,1.228,0.657,1.689c20.762,22.651,50.155,35.643,80.64,35.643c30.486,0,59.878-12.992,80.64-35.643
						c0.423-0.461,0.657-1.064,0.657-1.689V85.095C209.297,83.714,208.178,82.595,206.797,82.595z M204.297,155.339
						c-19.778,21.183-47.529,33.312-76.297,33.312c-28.768,0-56.519-12.128-76.297-33.312V87.595h30.608
						c12.136,0,23.91-3.575,34.047-10.339c3.659-2.441,7.685-3.732,11.642-3.732c3.958,0,7.983,1.291,11.642,3.732
						c10.138,6.764,21.911,10.339,34.047,10.339h30.608V155.339z"/>
				</g>
			</g>
		</g>
		<g>
			<g>
				<path d="M51.367,155.749c-0.315-1.344-1.661-2.182-3.004-1.864l-24.923,5.834c-4.49,1.051-9.139,0.01-12.753-2.855
					C7.073,153.998,5,149.708,5,145.096V83.6c0-5.912,3.331-11.131,8.693-13.621c5.361-2.49,11.499-1.666,16.015,2.148L47.32,87.004
					c1.054,0.891,2.633,0.758,3.523-0.296c0.891-1.055,0.758-2.632-0.296-3.523L32.934,68.308
					c-6.019-5.085-14.199-6.182-21.347-2.864C4.44,68.763,0,75.72,0,83.6v61.497c0,6.148,2.763,11.865,7.58,15.685
					c3.587,2.844,7.938,4.34,12.398,4.34c1.529,0,3.073-0.176,4.602-0.534l24.923-5.834
					C50.847,158.438,51.682,157.093,51.367,155.749z"/>
			</g>
		</g>
		<g>
			<g>
				<path d="M244.413,65.444c-7.147-3.32-15.327-2.222-21.347,2.864l-17.612,14.877c-1.055,0.891-1.188,2.468-0.296,3.523
					c0.89,1.054,2.468,1.188,3.523,0.296l17.612-14.877c4.516-3.814,10.653-4.638,16.015-2.148S251,77.688,251,83.6v61.497
					c0,4.612-2.073,8.901-5.687,11.767c-3.614,2.866-8.26,3.907-12.753,2.855l-24.923-5.834c-1.349-0.317-2.69,0.52-3.004,1.864
					c-0.315,1.344,0.52,2.689,1.864,3.004l24.923,5.834c1.529,0.358,3.072,0.534,4.602,0.534c4.46,0,8.811-1.496,12.398-4.34
					c4.817-3.82,7.58-9.537,7.58-15.685V83.6C256,75.72,251.56,68.763,244.413,65.444z"/>
			</g>
		</g>
		<g>
			<g>
				<path d="M184.934,110.23l-56.978-1l-56.891,1c-1.38,0.024-2.48,1.163-2.456,2.543c0.024,1.381,1.172,2.489,2.543,2.456l56.803-1
					l56.89,1c0.015,0,0.03,0,0.045,0c1.36,0,2.475-1.09,2.499-2.456C187.414,111.394,186.315,110.255,184.934,110.23z"/>
			</g>
		</g>
		<g>
			<g>
				<path d="M184.715,127.856c-37.633,2.646-75.797,2.646-113.43,0c-1.377-0.103-2.572,0.941-2.669,2.318
					c-0.097,1.377,0.941,2.572,2.318,2.669c18.933,1.331,37.999,1.997,57.065,1.997s38.132-0.666,57.065-1.997
					c1.377-0.097,2.416-1.292,2.318-2.669C187.287,128.797,186.09,127.754,184.715,127.856z"/>
			</g>
		</g>
		<g>
			<g>
				<path d="M187.271,145.554c-0.421-1.314-1.824-2.039-3.144-1.618c-36.719,11.76-75.537,11.76-112.255,0
					c-1.317-0.42-2.722,0.304-3.144,1.618c-0.421,1.315,0.304,2.723,1.619,3.144c18.858,6.04,38.256,9.059,57.653,9.059
					s38.794-3.02,57.653-9.059C186.968,148.277,187.692,146.869,187.271,145.554z"/>
			</g>
		</g>
		<g>
			<g>
				<g>
					<path d="M59.203,82.595h-10c-1.381,0-2.5,1.119-2.5,2.5v71.224c0,0.625,0.234,1.228,0.657,1.689
						c3.173,3.461,6.615,6.764,10.23,9.816c0.46,0.389,1.034,0.59,1.613,0.59c0.357,0,0.716-0.077,1.053-0.233
						c0.882-0.41,1.447-1.294,1.447-2.267V85.095C61.703,83.714,60.583,82.595,59.203,82.595z M56.703,160.345
						c-1.727-1.617-3.397-3.29-5-5.006V87.595h5V160.345z"/>
				</g>
			</g>
		</g>
		<g>
			<g>
				<g>
					<path d="M206.797,82.595h-10c-1.381,0-2.5,1.119-2.5,2.5v80.819c0,0.973,0.564,1.857,1.447,2.267
						c0.336,0.157,0.696,0.233,1.053,0.233c0.58,0,1.153-0.201,1.613-0.589c3.613-3.05,7.056-6.353,10.23-9.816
						c0.423-0.461,0.657-1.064,0.657-1.689V85.095C209.297,83.714,208.178,82.595,206.797,82.595z M204.297,155.339
						c-1.603,1.716-3.274,3.389-5,5.006v-72.75h5V155.339z"/>
				</g>
			</g>
		</g>
		<g>
			<g>
				<g>
					<path d="M196.797,92.595h-23.108c-13.127,0-25.86-3.866-36.822-11.18c-5.801-3.87-11.933-3.871-17.734,0
						c-10.962,7.314-23.695,11.18-36.822,11.18H59.203c-1.381,0-2.5,1.119-2.5,2.5v57.224c0,0.659,0.26,1.292,0.725,1.76
						c18.627,18.793,44.35,29.572,70.573,29.572s51.946-10.779,70.572-29.572c0.464-0.468,0.725-1.101,0.725-1.76V95.095
						C199.297,93.714,198.178,92.595,196.797,92.595z M194.297,151.282c-17.633,17.407-41.736,27.369-66.297,27.369
						s-48.664-9.962-66.297-27.369V97.595h20.608c14.118,0,27.811-4.157,39.597-12.021c4.1-2.735,8.085-2.735,12.184,0
						c11.787,7.864,25.479,12.021,39.597,12.021h20.608V151.282z"/>
				</g>
			</g>
		</g>
	</g>
</g>
<g id="Layer_22">
</g>
<g id="Layer_23">
</g>
<g id="Layer_24">
</g>
<g id="Layer_25">
</g>
<g id="Layer_26">
</g>
<g id="Layer_27">
</g>
<g id="Layer_28">
</g>
<g id="Layer_29">
</g>
<g id="Layer_30">
</g>
<g id="Layer_31">
</g>
<g id="Layer_32">
</g>
<g id="Layer_33">
</g>
<g id="Layer_34">
</g>
<g id="Layer_35">
</g>
<g id="Layer_36">
</g>
<g id="Layer_37">
</g>
<g id="Layer_38">
</g>
<g id="Layer_39">
</g>
<g id="Layer_40">
</g>
<g id="Layer_41">
</g>
<g id="Layer_42">
</g>
<g id="Layer_43">
</g>
<g id="Layer_44">
</g>
<g id="Layer_45">
</g>
<g id="Layer_46">
</g>
<g id="Layer_47">
</g>
<g id="Layer_48">
</g>
<g id="Layer_49">
</g>
<g id="Layer_50">
</g>
<g id="Layer_51">
</g>
<g id="Layer_52">
</g>
<g id="Layer_53">
</g>
<g id="Layer_54">
</g>
<g id="Layer_55">
</g>
<g id="Layer_56">
</g>
<g id="Layer_57">
</g>
<g id="Layer_58">
</g>
<g id="Layer_59">
</g>
<g id="Layer_60">
</g>
<g id="Layer_61">
</g>
<g id="Layer_62">
</g>
<g id="Layer_63">
</g>
<g id="Layer_64">
</g>
<g id="Layer_65">
</g>
<g id="Layer_66">
</g>
<g id="Layer_67">
</g>
<g id="Layer_68">
</g>
<g id="Layer_69">
</g>
<g id="Layer_70">
</g>
<g id="Layer_71">
</g>
<g id="Layer_72">
</g>
<g id="Layer_73">
</g>
<g id="Layer_74">
</g>
<g id="Layer_75">
</g>
<g id="Layer_76">
</g>
<g id="Layer_77">
</g>
<g id="Layer_78">
</g>
<g id="Layer_79">
</g>
<g id="Layer_80">
</g>
</svg>
