<?xml version="1.0" encoding="utf-8"?>
<!-- Generator: Adobe Illustrator 24.0.0, SVG Export Plug-In . SVG Version: 6.00 Build 0)  -->
<svg version="1.1" xmlns="http://www.w3.org/2000/svg" xmlns:xlink="http://www.w3.org/1999/xlink" x="0px" y="0px"
	 viewBox="0 0 256 256" style="enable-background:new 0 0 256 256;" xml:space="preserve">
<style type="text/css">
	.st0{fill:#6CADEF;}
	.st1{fill:#F9D0B4;}
	.st2{fill:#5B5D60;}
	.st3{fill:#9BE5F9;}
	.st4{fill:#FC657E;}
	.st5{fill:#70D6F9;}
	.st6{fill:#F5C84C;}
	.st7{fill:#F98FA6;}
	.st8{fill:#FED690;}
	.st9{fill:#87D147;}
	.st10{fill:#B2E26D;}
	.st11{fill:#EDF4FC;}
	.st12{fill:#FCDD86;}
	.st13{fill:#754E34;}
	.st14{fill:#B598F9;}
	.st15{fill:#5290DB;}
	.st16{fill:#C7D7E5;}
	.st17{fill:#C18E6B;}
	.st18{fill:#DAE6F1;}
	.st19{fill:#3CAADC;}
	.st20{fill:#818182;}
	.st21{fill:#CBEFF7;}
	.st22{fill:#FCA265;}
	.st23{fill:#A57453;}
	.st24{fill:#8652D8;}
	.st25{fill:#966AEA;}
	.st26{fill:#FEB872;}
	.st27{fill:#EDB311;}
	.st28{fill:#EF4460;}
</style>
<g id="Layer_1">
</g>
<g id="Layer_2">
</g>
<g id="Layer_3">
</g>
<g id="Layer_4">
</g>
<g id="Layer_5">
</g>
<g id="Layer_6">
</g>
<g id="Layer_7">
</g>
<g id="Layer_8">
</g>
<g id="Layer_9">
</g>
<g id="Layer_10">
</g>
<g id="Layer_11">
</g>
<g id="Layer_12">
</g>
<g id="Layer_13">
</g>
<g id="Layer_14">
</g>
<g id="Layer_15">
</g>
<g id="Layer_16">
</g>
<g id="Layer_17">
</g>
<g id="Layer_18">
</g>
<g id="Layer_19">
</g>
<g id="Layer_20">
</g>
<g id="Layer_21">
</g>
<g id="Layer_22">
</g>
<g id="Layer_23">
</g>
<g id="Layer_24">
</g>
<g id="Layer_25">
</g>
<g id="Layer_26">
</g>
<g id="Layer_27">
</g>
<g id="Layer_28">
</g>
<g id="Layer_29">
</g>
<g id="Layer_30">
</g>
<g id="Layer_31">
</g>
<g id="Layer_32">
</g>
<g id="Layer_33">
</g>
<g id="Layer_34">
	<g>
		<g>
			<g>
				<path class="st6" d="M168.062,13H87.938C82.472,13,78,17.472,78,22.938v76.124c0,5.466,4.472,9.938,9.938,9.938h80.124
					c5.466,0,9.938-4.472,9.938-9.938V22.938C178,17.472,173.528,13,168.062,13z"/>
			</g>
		</g>
		<g>
			<g>
				<path class="st16" d="M158.21,2.5H97.79c-5.247,0-9.54,4.293-9.54,9.54V13h79.5v-0.96C167.75,6.793,163.457,2.5,158.21,2.5z"/>
			</g>
		</g>
		<g>
			<g>
				<path class="st16" d="M185.5,37c-4.125,0-7.5,3.375-7.5,7.5v5c0,4.125,3.375,7.5,7.5,7.5s7.5-3.375,7.5-7.5v-5
					C193,40.375,189.625,37,185.5,37z"/>
			</g>
		</g>
		<g>
			<g>
				<path class="st16" d="M70.5,37c-4.125,0-7.5,3.375-7.5,7.5v5c0,4.125,3.375,7.5,7.5,7.5s7.5-3.375,7.5-7.5v-5
					C78,40.375,74.625,37,70.5,37z"/>
			</g>
		</g>
		<g>
			<g>
				<rect x="78" y="34.5" class="st3" width="100" height="39"/>
			</g>
		</g>
		<g>
			<g>
				<rect x="122.524" y="34.5" class="st16" width="10.952" height="39"/>
			</g>
		</g>
		<g>
			<g>
				<circle class="st5" cx="99.5" cy="91.25" r="8"/>
			</g>
		</g>
		<g>
			<g>
				<circle class="st5" cx="156.5" cy="91.25" r="8"/>
			</g>
		</g>
		<g>
			<g>
				<path class="st20" d="M107.25,109v5.876c0,2.268,1.856,4.124,4.124,4.124h33.251c2.268,0,4.124-1.856,4.124-4.124V109H107.25z"
					/>
			</g>
		</g>
		<g>
			<g>
				<polygon class="st20" points="162.758,109 151.758,109 170.5,148.328 181.5,148.328 				"/>
			</g>
		</g>
		<g>
			<g>
				<polygon class="st20" points="93.242,109 74.5,148.328 85.5,148.328 104.242,109 				"/>
			</g>
		</g>
		<g>
			<g>
				<polygon class="st2" points="161.289,129 94.711,129 89.945,139 166.055,139 				"/>
			</g>
		</g>
		<g>
			<g>
				<path class="st3" d="M91.447,160.757c-1.953-1.951-5.118-1.952-7.071,0l-6.828,6.828l-3.373-3.374
					c-1.953-1.952-5.118-1.952-7.071,0c-1.953,1.953-1.953,5.119,0,7.071l6.909,6.909c1.953,1.952,5.118,1.953,7.071,0
					l10.363-10.363C93.4,165.876,93.4,162.71,91.447,160.757z"/>
			</g>
		</g>
		<g>
			<g>
				<path class="st3" d="M91.447,227.602c-1.953-1.951-5.118-1.952-7.071,0l-6.828,6.828l-3.373-3.374
					c-1.953-1.952-5.118-1.952-7.071,0c-1.953,1.953-1.953,5.119,0,7.071l6.909,6.909c1.953,1.952,5.118,1.953,7.071,0
					l10.363-10.363C93.4,232.72,93.4,229.554,91.447,227.602z"/>
			</g>
		</g>
		<g>
			<g>
				<path class="st3" d="M91.447,194.179c-1.953-1.951-5.118-1.952-7.071,0l-6.828,6.828l-3.373-3.374
					c-1.953-1.952-5.118-1.952-7.071,0c-1.953,1.953-1.953,5.119,0,7.071l6.909,6.909c1.953,1.952,5.118,1.953,7.071,0
					l10.363-10.363C93.4,199.298,93.4,196.132,91.447,194.179z"/>
			</g>
		</g>
		<g>
			<g>
				<g>
					<g>
						<path d="M93.214,158.989c-2.923-2.921-7.681-2.922-10.605,0l-5.061,5.06l-1.605-1.606c-2.926-2.924-7.685-2.922-10.606,0
							c-2.924,2.924-2.924,7.682,0,10.607l6.909,6.909c1.462,1.461,3.382,2.192,5.303,2.192s3.842-0.731,5.304-2.192l10.363-10.363
							C96.139,166.672,96.139,161.914,93.214,158.989z M89.68,166.061l-10.363,10.362c-0.975,0.974-2.562,0.975-3.536,0
							l-6.909-6.908c-0.975-0.975-0.975-2.561,0-3.536c0.974-0.974,2.561-0.976,3.536,0l3.373,3.374
							c0.469,0.469,1.104,0.732,1.768,0.732s1.299-0.263,1.768-0.732l6.828-6.828c0.973-0.975,2.56-0.975,3.536,0
							C90.654,163.5,90.654,165.086,89.68,166.061z"/>
					</g>
				</g>
			</g>
		</g>
		<g>
			<g>
				<path d="M190.36,160.535h-82.361c-1.381,0-2.5,1.119-2.5,2.5s1.119,2.5,2.5,2.5h82.361c1.381,0,2.5-1.119,2.5-2.5
					S191.741,160.535,190.36,160.535z"/>
			</g>
		</g>
		<g>
			<g>
				<path d="M170.68,171.494h-62.681c-1.381,0-2.5,1.119-2.5,2.5s1.119,2.5,2.5,2.5h62.681c1.381,0,2.5-1.119,2.5-2.5
					S172.061,171.494,170.68,171.494z"/>
			</g>
		</g>
		<g>
			<g>
				<g>
					<g>
						<path d="M93.214,225.833c-2.923-2.921-7.681-2.922-10.605,0l-5.061,5.06l-1.605-1.606c-2.926-2.924-7.685-2.922-10.606,0
							c-2.924,2.924-2.924,7.682,0,10.607l6.909,6.909c1.462,1.461,3.382,2.192,5.303,2.192s3.842-0.731,5.304-2.192l10.363-10.363
							C96.139,233.516,96.139,228.758,93.214,225.833z M89.68,232.905l-10.363,10.362c-0.975,0.973-2.562,0.975-3.536,0
							l-6.909-6.908c-0.975-0.975-0.975-2.561,0-3.536c0.974-0.974,2.561-0.975,3.536,0l3.373,3.374
							c0.469,0.469,1.104,0.732,1.768,0.732s1.299-0.263,1.768-0.732l6.828-6.828c0.973-0.974,2.56-0.976,3.536,0
							C90.654,230.344,90.654,231.93,89.68,232.905z"/>
					</g>
				</g>
			</g>
		</g>
		<g>
			<g>
				<path d="M190.36,227.379h-82.361c-1.381,0-2.5,1.119-2.5,2.5s1.119,2.5,2.5,2.5h82.361c1.381,0,2.5-1.119,2.5-2.5
					S191.741,227.379,190.36,227.379z"/>
			</g>
		</g>
		<g>
			<g>
				<path d="M170.68,238.338h-62.681c-1.381,0-2.5,1.119-2.5,2.5s1.119,2.5,2.5,2.5h62.681c1.381,0,2.5-1.119,2.5-2.5
					S172.061,238.338,170.68,238.338z"/>
			</g>
		</g>
		<g>
			<g>
				<g>
					<g>
						<path d="M93.214,192.411c-2.923-2.921-7.681-2.922-10.605,0l-5.061,5.06l-1.605-1.606c-2.926-2.924-7.685-2.922-10.606,0
							c-2.924,2.924-2.924,7.682,0,10.607l6.909,6.909c1.462,1.461,3.383,2.192,5.303,2.192c1.921,0,3.842-0.731,5.304-2.193
							l10.363-10.363C96.139,200.094,96.139,195.336,93.214,192.411z M89.68,199.483l-10.363,10.362
							c-0.975,0.973-2.562,0.975-3.536,0l-6.909-6.908c-0.975-0.975-0.975-2.561,0-3.536c0.974-0.974,2.561-0.976,3.536,0
							l3.373,3.374c0.469,0.469,1.104,0.732,1.768,0.732s1.299-0.263,1.768-0.732l6.828-6.828c0.973-0.974,2.56-0.975,3.536,0
							C90.654,196.922,90.654,198.508,89.68,199.483z"/>
					</g>
				</g>
			</g>
		</g>
		<g>
			<g>
				<path d="M190.36,193.957h-82.361c-1.381,0-2.5,1.119-2.5,2.5s1.119,2.5,2.5,2.5h82.361c1.381,0,2.5-1.119,2.5-2.5
					S191.741,193.957,190.36,193.957z"/>
			</g>
		</g>
		<g>
			<g>
				<path d="M170.68,204.917h-62.681c-1.381,0-2.5,1.119-2.5,2.5s1.119,2.5,2.5,2.5h62.681c1.381,0,2.5-1.119,2.5-2.5
					S172.061,204.917,170.68,204.917z"/>
			</g>
		</g>
		<g>
			<g>
				<g>
					<path d="M168.062,10.5H87.938C81.08,10.5,75.5,16.08,75.5,22.938v76.124c0,6.858,5.58,12.438,12.438,12.438h80.123
						c6.858,0,12.438-5.58,12.438-12.438V22.938C180.5,16.08,174.92,10.5,168.062,10.5z M175.5,99.062
						c0,4.101-3.337,7.438-7.438,7.438H87.938c-4.102,0-7.438-3.337-7.438-7.438V22.938c0-4.101,3.337-7.438,7.438-7.438h80.123
						c4.102,0,7.438,3.337,7.438,7.438V99.062z"/>
				</g>
			</g>
		</g>
		<g>
			<g>
				<g>
					<path d="M158.21,0H97.79c-6.639,0-12.04,5.401-12.04,12.04V13c0,1.381,1.119,2.5,2.5,2.5h79.5c1.381,0,2.5-1.119,2.5-2.5v-0.96
						C170.25,5.401,164.849,0,158.21,0z M90.92,10.5C91.624,7.356,94.437,5,97.79,5h60.42c3.354,0,6.166,2.356,6.87,5.5H90.92z"/>
				</g>
			</g>
		</g>
		<g>
			<g>
				<path d="M150.913,21.25h-45.826c-1.381,0-2.5,1.119-2.5,2.5s1.119,2.5,2.5,2.5h45.826c1.381,0,2.5-1.119,2.5-2.5
					S152.294,21.25,150.913,21.25z"/>
			</g>
		</g>
		<g>
			<g>
				<g>
					<path d="M185.5,34.5c-5.514,0-10,4.486-10,10v5c0,5.514,4.486,10,10,10s10-4.486,10-10v-5
						C195.5,38.986,191.014,34.5,185.5,34.5z M190.5,49.5c0,2.757-2.243,5-5,5s-5-2.243-5-5v-5c0-2.757,2.243-5,5-5s5,2.243,5,5
						V49.5z"/>
				</g>
			</g>
		</g>
		<g>
			<g>
				<g>
					<path d="M70.5,34.5c-5.514,0-10,4.486-10,10v5c0,5.514,4.486,10,10,10s10-4.486,10-10v-5C80.5,38.986,76.014,34.5,70.5,34.5z
						 M75.5,49.5c0,2.757-2.243,5-5,5s-5-2.243-5-5v-5c0-2.757,2.243-5,5-5s5,2.243,5,5V49.5z"/>
				</g>
			</g>
		</g>
		<g>
			<g>
				<path class="st9" d="M63.506,0c-1.878,0-3.4,1.522-3.4,3.4c0,1.878,1.522,3.4,3.4,3.4c1.878,0,3.4-1.522,3.4-3.4
					C66.906,1.522,65.384,0,63.506,0z"/>
			</g>
		</g>
		<g>
			<g>
				<path class="st4" d="M221.206,221.3h-2.4V219c0-1.8-1.4-3.2-3.2-3.2c-1.7,0-3.2,1.4-3.2,3.1v2.4h-2.3c-1.8,0-3.2,1.4-3.2,3.2
					c-0.1,1.7,1.3,3.2,3.2,3.2h2.3v2.3c0,1.8,1.4,3.2,3.2,3.2c1.7,0,3.2-1.4,3.2-3.1v-2.4h2.3c1.8,0,3.2-1.4,3.2-3.2
					C224.306,222.8,222.906,221.3,221.206,221.3z"/>
			</g>
		</g>
		<g>
			<g>
				<path class="st6" d="M205.506,249.2c-1.878,0-3.4,1.522-3.4,3.4s1.522,3.4,3.4,3.4c1.878,0,3.4-1.522,3.4-3.4
					S207.384,249.2,205.506,249.2z"/>
			</g>
		</g>
		<g>
			<g>
				<path class="st5" d="M53.288,143.2c-3.1-0.6-5.6-3-6.2-6.1c0-0.1-0.3-0.1-0.3,0c-0.6,3.1-3.1,5.5-6.2,6.1c-0.1,0-0.1,0.2,0,0.3
					c3.1,0.6,5.6,3,6.2,6.1c0,0.1,0.3,0.1,0.3,0c0.6-3.1,3.1-5.5,6.2-6.1C53.388,143.4,53.388,143.2,53.288,143.2z"/>
			</g>
		</g>
		<g>
			<g>
				<path class="st6" d="M57.288,23.2c-4.5-0.8-8-4.3-8.9-8.7c0-0.2-0.4-0.2-0.4,0c-0.9,4.4-4.4,7.9-8.9,8.7c-0.2,0-0.2,0.3,0,0.4
					c4.5,0.8,8,4.3,8.9,8.7c0,0.2,0.4,0.2,0.4,0c0.9-4.4,4.4-7.9,8.9-8.7C57.488,23.5,57.488,23.2,57.288,23.2z"/>
			</g>
		</g>
		<g>
			<g>
				<g>
					<path d="M178,32H78c-1.381,0-2.5,1.119-2.5,2.5v39c0,1.381,1.119,2.5,2.5,2.5h100c1.381,0,2.5-1.119,2.5-2.5v-39
						C180.5,33.119,179.381,32,178,32z M175.5,71h-95V37h95V71z"/>
				</g>
			</g>
		</g>
		<g>
			<g>
				<g>
					<path d="M133.477,32h-10.953c-1.381,0-2.5,1.119-2.5,2.5v39c0,1.381,1.119,2.5,2.5,2.5h10.953c1.381,0,2.5-1.119,2.5-2.5v-39
						C135.977,33.119,134.857,32,133.477,32z M130.977,71h-5.953V37h5.953V71z"/>
				</g>
			</g>
		</g>
		<g>
			<g>
				<g>
					<path d="M99.5,80.75c-5.79,0-10.5,4.71-10.5,10.5s4.71,10.5,10.5,10.5s10.5-4.71,10.5-10.5S105.29,80.75,99.5,80.75z
						 M99.5,96.75c-3.032,0-5.5-2.467-5.5-5.5s2.468-5.5,5.5-5.5s5.5,2.467,5.5,5.5S102.532,96.75,99.5,96.75z"/>
				</g>
			</g>
		</g>
		<g>
			<g>
				<g>
					<path d="M156.5,80.75c-5.79,0-10.5,4.71-10.5,10.5s4.71,10.5,10.5,10.5s10.5-4.71,10.5-10.5S162.29,80.75,156.5,80.75z
						 M156.5,96.75c-3.032,0-5.5-2.467-5.5-5.5s2.468-5.5,5.5-5.5s5.5,2.467,5.5,5.5S159.532,96.75,156.5,96.75z"/>
				</g>
			</g>
		</g>
		<g>
			<g>
				<g>
					<path d="M148.75,106.5h-41.5c-1.381,0-2.5,1.119-2.5,2.5v5.876c0,3.652,2.972,6.624,6.624,6.624h33.252
						c3.652,0,6.624-2.972,6.624-6.624V109C151.25,107.619,150.131,106.5,148.75,106.5z M146.25,114.876
						c0,0.88-0.744,1.624-1.624,1.624h-33.252c-0.88,0-1.624-0.744-1.624-1.624V111.5h36.5V114.876z"/>
				</g>
			</g>
		</g>
		<g>
			<g>
				<path d="M183.757,147.252l-18.742-39.328c-0.415-0.87-1.293-1.424-2.257-1.424h-11c-0.858,0-1.656,0.44-2.114,1.166
					s-0.512,1.635-0.143,2.41l18.742,39.328c0.594,1.246,2.086,1.776,3.332,1.181c1.247-0.594,1.775-2.086,1.182-3.333
					L155.719,111.5h5.461l18.063,37.903c0.429,0.899,1.324,1.425,2.259,1.425c0.36,0,0.727-0.078,1.073-0.244
					C183.822,149.99,184.351,148.499,183.757,147.252z"/>
			</g>
		</g>
		<g>
			<g>
				<path d="M106.356,107.666c-0.458-0.726-1.256-1.166-2.114-1.166h-11c-0.964,0-1.842,0.554-2.257,1.424l-18.742,39.328
					c-0.594,1.247-0.065,2.738,1.182,3.333c1.245,0.595,2.737,0.064,3.332-1.181L94.82,111.5h5.461l-17.038,35.752
					c-0.594,1.247-0.065,2.738,1.182,3.333c0.347,0.166,0.713,0.244,1.073,0.244c0.935,0,1.83-0.526,2.259-1.425l18.742-39.328
					C106.868,109.301,106.814,108.391,106.356,107.666z"/>
			</g>
		</g>
		<g>
			<g>
				<g>
					<g>
						<path d="M168.312,137.924l-4.766-10c-0.415-0.87-1.293-1.424-2.257-1.424H94.711c-0.964,0-1.842,0.554-2.257,1.424l-4.766,10
							c-0.369,0.775-0.315,1.685,0.143,2.41s1.256,1.166,2.114,1.166h76.109c0.858,0,1.656-0.44,2.114-1.166
							S168.681,138.699,168.312,137.924z M93.906,136.5l2.383-5h63.422l2.383,5H93.906z"/>
					</g>
				</g>
			</g>
		</g>
	</g>
</g>
<g id="Layer_35">
</g>
<g id="Layer_36">
</g>
<g id="Layer_37">
</g>
<g id="Layer_38">
</g>
<g id="Layer_39">
</g>
<g id="Layer_40">
</g>
<g id="Layer_41">
</g>
<g id="Layer_42">
</g>
<g id="Layer_43">
</g>
<g id="Layer_44">
</g>
<g id="Layer_45">
</g>
<g id="Layer_46">
</g>
<g id="Layer_47">
</g>
<g id="Layer_48">
</g>
<g id="Layer_49">
</g>
<g id="Layer_50">
</g>
<g id="Layer_51">
</g>
<g id="Layer_52">
</g>
<g id="Layer_53">
</g>
<g id="Layer_54">
</g>
<g id="Layer_55">
</g>
<g id="Layer_56">
</g>
<g id="Layer_57">
</g>
<g id="Layer_58">
</g>
<g id="Layer_59">
</g>
<g id="Layer_60">
</g>
<g id="Layer_61">
</g>
<g id="Layer_62">
</g>
<g id="Layer_63">
</g>
<g id="Layer_64">
</g>
<g id="Layer_65">
</g>
<g id="Layer_66">
</g>
<g id="Layer_67">
</g>
<g id="Layer_68">
</g>
<g id="Layer_69">
</g>
<g id="Layer_70">
</g>
<g id="Layer_71">
</g>
<g id="Layer_72">
</g>
<g id="Layer_73">
</g>
<g id="Layer_74">
</g>
<g id="Layer_75">
</g>
<g id="Layer_76">
</g>
<g id="Layer_77">
</g>
<g id="Layer_78">
</g>
<g id="Layer_79">
</g>
<g id="Layer_80">
</g>
</svg>
