<?xml version="1.0" encoding="utf-8"?>
<!-- Generator: Adobe Illustrator 24.0.0, SVG Export Plug-In . SVG Version: 6.00 Build 0)  -->
<svg version="1.1" xmlns="http://www.w3.org/2000/svg" xmlns:xlink="http://www.w3.org/1999/xlink" x="0px" y="0px"
	 viewBox="0 0 256 256" style="enable-background:new 0 0 256 256;" xml:space="preserve">
<style type="text/css">
	.st0{fill:#6CADEF;}
	.st1{fill:#F9D0B4;}
	.st2{fill:#5B5D60;}
	.st3{fill:#9BE5F9;}
	.st4{fill:#FC657E;}
	.st5{fill:#70D6F9;}
	.st6{fill:#F5C84C;}
	.st7{fill:#F98FA6;}
	.st8{fill:#FED690;}
	.st9{fill:#87D147;}
	.st10{fill:#B2E26D;}
	.st11{fill:#EDF4FC;}
	.st12{fill:#FCDD86;}
	.st13{fill:#754E34;}
	.st14{fill:#B598F9;}
	.st15{fill:#5290DB;}
	.st16{fill:#C7D7E5;}
	.st17{fill:#C18E6B;}
	.st18{fill:#DAE6F1;}
	.st19{fill:#3CAADC;}
	.st20{fill:#818182;}
	.st21{fill:#CBEFF7;}
	.st22{fill:#FCA265;}
	.st23{fill:#A57453;}
	.st24{fill:#8652D8;}
	.st25{fill:#966AEA;}
	.st26{fill:#FEB872;}
	.st27{fill:#EDB311;}
	.st28{fill:#EF4460;}
</style>
<g id="Layer_1">
</g>
<g id="Layer_2">
</g>
<g id="Layer_3">
</g>
<g id="Layer_4">
</g>
<g id="Layer_5">
</g>
<g id="Layer_6">
</g>
<g id="Layer_7">
</g>
<g id="Layer_8">
</g>
<g id="Layer_9">
</g>
<g id="Layer_10">
</g>
<g id="Layer_11">
</g>
<g id="Layer_12">
</g>
<g id="Layer_13">
</g>
<g id="Layer_14">
</g>
<g id="Layer_15">
</g>
<g id="Layer_16">
</g>
<g id="Layer_17">
</g>
<g id="Layer_18">
</g>
<g id="Layer_19">
</g>
<g id="Layer_20">
</g>
<g id="Layer_21">
</g>
<g id="Layer_22">
</g>
<g id="Layer_23">
</g>
<g id="Layer_24">
</g>
<g id="Layer_25">
</g>
<g id="Layer_26">
</g>
<g id="Layer_27">
</g>
<g id="Layer_28">
</g>
<g id="Layer_29">
</g>
<g id="Layer_30">
</g>
<g id="Layer_31">
</g>
<g id="Layer_32">
</g>
<g id="Layer_33">
</g>
<g id="Layer_34">
</g>
<g id="Layer_35">
</g>
<g id="Layer_36">
</g>
<g id="Layer_37">
</g>
<g id="Layer_38">
</g>
<g id="Layer_39">
</g>
<g id="Layer_40">
</g>
<g id="Layer_41">
</g>
<g id="Layer_42">
</g>
<g id="Layer_43">
</g>
<g id="Layer_44">
</g>
<g id="Layer_45">
</g>
<g id="Layer_46">
</g>
<g id="Layer_47">
</g>
<g id="Layer_48">
</g>
<g id="Layer_49">
</g>
<g id="Layer_50">
</g>
<g id="Layer_51">
</g>
<g id="Layer_52">
</g>
<g id="Layer_53">
</g>
<g id="Layer_54">
</g>
<g id="Layer_55">
</g>
<g id="Layer_56">
</g>
<g id="Layer_57">
</g>
<g id="Layer_58">
</g>
<g id="Layer_59">
</g>
<g id="Layer_60">
</g>
<g id="Layer_61">
</g>
<g id="Layer_62">
</g>
<g id="Layer_63">
</g>
<g id="Layer_64">
</g>
<g id="Layer_65">
</g>
<g id="Layer_66">
</g>
<g id="Layer_67">
</g>
<g id="Layer_68">
</g>
<g id="Layer_69">
</g>
<g id="Layer_70">
</g>
<g id="Layer_71">
</g>
<g id="Layer_72">
</g>
<g id="Layer_73">
</g>
<g id="Layer_74">
</g>
<g id="Layer_75">
</g>
<g id="Layer_76">
</g>
<g id="Layer_77">
</g>
<g id="Layer_78">
	<g>
		<g>
			<g>
				<path class="st1" d="M227.091,133.546l-17.26-13.904c-4.171-3.36-6.596-8.428-6.596-13.784v-0.083
					c0-46.729-37.733-84.646-84.392-84.943c-46.867-0.299-85.498,38.076-85.497,84.944c0,23.209,9.31,44.243,24.398,59.573
					c8.04,8.168,11.514,19.792,9.575,31.088L58.4,248.404c-0.457,2.663,1.594,5.096,4.296,5.096h75.897
					c2.408,0,4.359-1.952,4.359-4.359v-42.708l5.444,2.257c3.724,1.543,7.715,2.338,11.746,2.338h27.171
					c5.722,0,10.665-4.003,11.853-9.601l1.462-13.428c0.329-3.021,0.028-6.076-0.883-8.975l-1.297-4.125
					c-0.417-1.035-0.108-2.221,0.76-2.921l3.08-2.484c0.597-0.481,0.944-1.207,0.944-1.974v-7.687c0-2.773,1.615-5.292,4.135-6.448
					l18.296-8.398C230.243,142.886,231.012,136.705,227.091,133.546z"/>
			</g>
		</g>
		<g>
			<g>
				<circle class="st21" cx="119" cy="106" r="69"/>
			</g>
		</g>
		<g>
			<g>
				<circle class="st3" cx="119" cy="106" r="51.122"/>
			</g>
		</g>
		<g>
			<g>
				<path class="st5" d="M140.56,83.968c-7.78-2.024-14.64-4.725-20.18-7.945c-0.859-0.5-1.901-0.5-2.76,0
					c-5.54,3.22-12.4,5.92-20.18,7.945c-1.196,0.311-2.042,1.377-2.042,2.613v15.824c0,15.232,9.333,28.278,22.59,33.748
					c0.644,0.266,1.378,0.266,2.022,0c13.257-5.47,22.59-18.516,22.59-33.748V86.581C142.601,85.345,141.756,84.279,140.56,83.968z"
					/>
			</g>
		</g>
		<g>
			<g>
				<path d="M143.994,204.16l-23.866-10.934c-1.254-0.577-2.739-0.024-3.314,1.231c-0.575,1.255-0.023,2.739,1.232,3.313
					l23.866,10.934c0.337,0.155,0.691,0.229,1.039,0.229c0.948,0,1.854-0.542,2.274-1.46
					C145.801,206.219,145.25,204.734,143.994,204.16z"/>
			</g>
		</g>
		<g>
			<g>
				<g>
					<path d="M228.659,131.599l-17.26-13.903c-3.6-2.9-5.664-7.215-5.664-11.921c0-47.911-38.973-87.139-86.876-87.443
						c-23.351-0.143-45.398,8.913-62.107,25.517c-16.706,16.6-25.906,38.593-25.906,61.927c0,23.092,8.92,44.871,25.116,61.327
						c7.387,7.506,10.711,18.314,8.893,28.912l-8.918,51.967c-0.343,1.997,0.21,4.031,1.516,5.581S60.67,256,62.697,256h75.897
						c3.782,0,6.859-3.077,6.859-6.859v-38.966l1.986,0.824c4.047,1.678,8.321,2.528,12.704,2.528h27.172
						c6.86,0,12.873-4.871,14.298-11.581c0.018-0.082,0.031-0.165,0.04-0.249l1.463-13.429c0.368-3.387,0.037-6.75-0.984-9.995
						l-1.297-4.125c-0.02-0.062-0.03-0.165-0.055-0.225l3.081-2.485c1.19-0.961,1.874-2.39,1.874-3.919v-7.687
						c0-1.79,1.051-3.43,2.678-4.176l18.296-8.398c2.942-1.351,4.938-4.075,5.337-7.287
						C232.446,136.76,231.18,133.63,228.659,131.599z M227.084,139.354c-0.187,1.504-1.084,2.729-2.461,3.36l-18.296,8.398
						c-3.396,1.56-5.592,4.982-5.592,8.721l-0.014,7.714l-3.08,2.484c-1.706,1.376-2.322,3.651-1.552,5.694l1.272,4.048
						c0.813,2.583,1.076,5.259,0.783,7.955l-1.448,13.295c-0.981,4.355-4.908,7.504-9.382,7.504h-27.172
						c-3.723,0-7.353-0.723-10.789-2.147l-5.444-2.257c-0.769-0.319-1.651-0.232-2.346,0.23c-0.694,0.464-1.111,1.244-1.111,2.079
						v42.708c0,1.025-0.834,1.859-1.859,1.859H62.697c-0.752,0-1.213-0.414-1.421-0.661s-0.538-0.771-0.411-1.513l8.918-51.967
						c2.09-12.18-1.744-24.615-10.257-33.266c-15.27-15.515-23.68-36.049-23.68-57.819c0-21.993,8.676-42.726,24.43-58.38
						c15.63-15.532,36.215-24.065,58.018-24.065c0.177,0,0.355,0.001,0.533,0.002c45.165,0.287,81.909,37.271,81.909,82.526
						c0,6.144,2.743,11.877,7.527,15.731l17.26,13.904C226.702,136.443,227.271,137.851,227.084,139.354z"/>
				</g>
			</g>
		</g>
		<g>
			<g>
				<path class="st6" d="M177.282,8.85c-4.5-0.8-8-4.3-8.9-8.7c0-0.2-0.4-0.2-0.4,0c-0.9,4.4-4.4,7.9-8.9,8.7c-0.2,0-0.2,0.3,0,0.4
					c4.5,0.8,8,4.3,8.9,8.7c0,0.2,0.4,0.2,0.4,0c0.9-4.4,4.4-7.9,8.9-8.7C177.482,9.15,177.482,8.85,177.282,8.85z"/>
			</g>
		</g>
		<g>
			<g>
				<path class="st4" d="M51.227,31.894c-3.506-0.623-6.232-3.35-6.933-6.777c0-0.156-0.312-0.156-0.312,0
					c-0.701,3.428-3.428,6.154-6.933,6.777c-0.156,0-0.156,0.234,0,0.312c3.506,0.623,6.232,3.35,6.933,6.777
					c0,0.155,0.312,0.155,0.312,0c0.701-3.428,3.428-6.154,6.933-6.777C51.382,32.128,51.382,31.894,51.227,31.894z"/>
			</g>
		</g>
		<g>
			<g>
				<path class="st9" d="M45.182,181.5h-2.3v-2.3c0-1.7-1.4-3.2-3.2-3.2s-3.2,1.4-3.2,3.2v2.3h-2.3c-1.7,0-3.2,1.4-3.2,3.2
					c0,1.8,1.4,3.2,3.2,3.2h2.3v2.3c0,1.7,1.4,3.2,3.2,3.2s3.2-1.4,3.2-3.2v-2.3h2.3c1.7,0,3.2-1.4,3.2-3.2
					C48.382,182.9,46.982,181.5,45.182,181.5z"/>
			</g>
		</g>
		<g>
			<g>
				<path class="st5" d="M191.282,25c-1.878,0-3.4,1.522-3.4,3.4c0,1.878,1.522,3.4,3.4,3.4c1.878,0,3.4-1.522,3.4-3.4
					C194.682,26.522,193.16,25,191.282,25z"/>
			</g>
		</g>
		<g>
			<g>
				<path class="st6" d="M27.282,153c-1.878,0-3.4,1.522-3.4,3.4c0,1.878,1.522,3.4,3.4,3.4c1.878,0,3.4-1.522,3.4-3.4
					C30.682,154.522,29.16,153,27.282,153z"/>
			</g>
		</g>
		<g>
			<g>
				<g>
					<path d="M119,52.379c-29.567,0-53.622,24.055-53.622,53.621S89.433,159.621,119,159.621c29.566,0,53.621-24.055,53.621-53.621
						S148.566,52.379,119,52.379z M119,154.621c-26.81,0-48.622-21.812-48.622-48.621S92.19,57.379,119,57.379
						c26.81,0,48.621,21.812,48.621,48.621S145.81,154.621,119,154.621z"/>
				</g>
			</g>
		</g>
		<g>
			<g>
				<g>
					<path d="M141.189,81.548c-7.604-1.978-14.182-4.564-19.554-7.688c-1.626-0.943-3.646-0.943-5.271,0c0,0.001,0,0.001,0,0.001
						c-5.371,3.122-11.95,5.709-19.554,7.688c-2.302,0.6-3.911,2.669-3.911,5.032v15.823c0,15.855,9.474,30.01,24.137,36.06
						c0.624,0.257,1.293,0.386,1.963,0.386c0.67,0,1.341-0.129,1.965-0.387c14.662-6.049,24.137-20.203,24.137-36.059V86.581
						C145.102,84.218,143.493,82.148,141.189,81.548z M140.102,102.404c0,13.823-8.26,26.163-21.043,31.437
						c-0.034,0.013-0.083,0.015-0.116,0.001c-12.783-5.274-21.043-17.614-21.043-31.438V86.581c0-0.104,0.086-0.172,0.17-0.193
						c8.043-2.094,15.044-4.854,20.807-8.204c0.082-0.048,0.165-0.047,0.247,0c5.764,3.351,12.764,6.111,20.806,8.203
						c0.086,0.022,0.172,0.091,0.172,0.194V102.404z"/>
				</g>
			</g>
		</g>
		<g>
			<g>
				<path class="st18" d="M131.172,97.602c-1.953-1.951-5.118-1.952-7.071,0l-6.828,6.828l-3.373-3.374
					c-1.953-1.952-5.118-1.952-7.071,0c-1.953,1.953-1.953,5.119,0,7.071l6.909,6.909c1.953,1.952,5.118,1.953,7.071,0
					l10.363-10.363C133.124,102.72,133.124,99.554,131.172,97.602z"/>
			</g>
		</g>
		<g>
			<g>
				<g>
					<g>
						<path d="M132.938,95.833c-2.924-2.922-7.682-2.92-10.605,0.001l-5.061,5.06l-1.606-1.606
							c-2.923-2.921-7.681-2.923-10.606,0.001c-2.924,2.924-2.924,7.682,0,10.606l6.909,6.908c1.462,1.462,3.382,2.193,5.303,2.193
							c1.92-0.001,3.841-0.731,5.304-2.193l10.364-10.362C135.863,103.516,135.863,98.758,132.938,95.833z M129.404,102.905
							l-10.363,10.361c-0.975,0.976-2.562,0.977-3.537,0.001l-6.909-6.908c-0.975-0.975-0.975-2.562-0.001-3.535
							c0.488-0.487,1.128-0.731,1.769-0.731c0.641,0,1.281,0.244,1.768,0.73l3.373,3.373c0.976,0.977,2.559,0.977,3.535,0
							l6.828-6.826c0.975-0.974,2.562-0.975,3.537-0.001C130.379,100.344,130.379,101.931,129.404,102.905z"/>
					</g>
				</g>
			</g>
		</g>
	</g>
</g>
<g id="Layer_79">
</g>
<g id="Layer_80">
</g>
</svg>
