<?xml version="1.0" encoding="utf-8"?>
<!-- Generator: Adobe Illustrator 24.0.0, SVG Export Plug-In . SVG Version: 6.00 Build 0)  -->
<svg version="1.1" xmlns="http://www.w3.org/2000/svg" xmlns:xlink="http://www.w3.org/1999/xlink" x="0px" y="0px"
	 viewBox="0 0 256 256" style="enable-background:new 0 0 256 256;" xml:space="preserve">
<style type="text/css">
	.st0{fill:#6CADEF;}
	.st1{fill:#F9D0B4;}
	.st2{fill:#5B5D60;}
	.st3{fill:#9BE5F9;}
	.st4{fill:#FC657E;}
	.st5{fill:#70D6F9;}
	.st6{fill:#F5C84C;}
	.st7{fill:#F98FA6;}
	.st8{fill:#FED690;}
	.st9{fill:#87D147;}
	.st10{fill:#B2E26D;}
	.st11{fill:#EDF4FC;}
	.st12{fill:#FCDD86;}
	.st13{fill:#754E34;}
	.st14{fill:#B598F9;}
	.st15{fill:#5290DB;}
	.st16{fill:#C7D7E5;}
	.st17{fill:#C18E6B;}
	.st18{fill:#DAE6F1;}
	.st19{fill:#3CAADC;}
	.st20{fill:#818182;}
	.st21{fill:#CBEFF7;}
	.st22{fill:#FCA265;}
	.st23{fill:#A57453;}
	.st24{fill:#8652D8;}
	.st25{fill:#966AEA;}
	.st26{fill:#FEB872;}
	.st27{fill:#EDB311;}
	.st28{fill:#EF4460;}
</style>
<g id="Layer_1">
</g>
<g id="Layer_2">
</g>
<g id="Layer_3">
</g>
<g id="Layer_4">
</g>
<g id="Layer_5">
</g>
<g id="Layer_6">
</g>
<g id="Layer_7">
</g>
<g id="Layer_8">
</g>
<g id="Layer_9">
</g>
<g id="Layer_10">
</g>
<g id="Layer_11">
</g>
<g id="Layer_12">
</g>
<g id="Layer_13">
</g>
<g id="Layer_14">
</g>
<g id="Layer_15">
</g>
<g id="Layer_16">
</g>
<g id="Layer_17">
</g>
<g id="Layer_18">
</g>
<g id="Layer_19">
</g>
<g id="Layer_20">
</g>
<g id="Layer_21">
</g>
<g id="Layer_22">
</g>
<g id="Layer_23">
</g>
<g id="Layer_24">
</g>
<g id="Layer_25">
</g>
<g id="Layer_26">
</g>
<g id="Layer_27">
</g>
<g id="Layer_28">
</g>
<g id="Layer_29">
</g>
<g id="Layer_30">
</g>
<g id="Layer_31">
</g>
<g id="Layer_32">
</g>
<g id="Layer_33">
</g>
<g id="Layer_34">
</g>
<g id="Layer_35">
</g>
<g id="Layer_36">
</g>
<g id="Layer_37">
</g>
<g id="Layer_38">
</g>
<g id="Layer_39">
</g>
<g id="Layer_40">
</g>
<g id="Layer_41">
</g>
<g id="Layer_42">
</g>
<g id="Layer_43">
</g>
<g id="Layer_44">
</g>
<g id="Layer_45">
</g>
<g id="Layer_46">
</g>
<g id="Layer_47">
</g>
<g id="Layer_48">
</g>
<g id="Layer_49">
</g>
<g id="Layer_50">
</g>
<g id="Layer_51">
</g>
<g id="Layer_52">
</g>
<g id="Layer_53">
</g>
<g id="Layer_54">
</g>
<g id="Layer_55">
</g>
<g id="Layer_56">
</g>
<g id="Layer_57">
</g>
<g id="Layer_58">
</g>
<g id="Layer_59">
</g>
<g id="Layer_60">
</g>
<g id="Layer_61">
</g>
<g id="Layer_62">
</g>
<g id="Layer_63">
</g>
<g id="Layer_64">
</g>
<g id="Layer_65">
</g>
<g id="Layer_66">
</g>
<g id="Layer_67">
</g>
<g id="Layer_68">
</g>
<g id="Layer_69">
</g>
<g id="Layer_70">
</g>
<g id="Layer_71">
</g>
<g id="Layer_72">
</g>
<g id="Layer_73">
</g>
<g id="Layer_74">
</g>
<g id="Layer_75">
</g>
<g id="Layer_76">
</g>
<g id="Layer_77">
</g>
<g id="Layer_78">
</g>
<g id="Layer_79">
	<g>
		<g>
			<g>
				<circle class="st14" cx="209.17" cy="46.83" r="44.33"/>
			</g>
		</g>
		<g>
			<g>
				
					<ellipse transform="matrix(0.9871 -0.1602 0.1602 0.9871 -6.8966 8.106)" class="st12" cx="46.83" cy="46.83" rx="44.33" ry="44.33"/>
			</g>
		</g>
		<g>
			<g>
				<path class="st8" d="M232.127,59.435c3.13-4.91,1.652-9.689,0.271-12.389c-1.212,1.921-3.347,3.202-5.787,3.202
					c-0.373,0-0.736-0.038-1.093-0.096c-0.385,5.734-3.749,10.687-8.552,13.305v4.97c0,1.591,0.835,3.047,2.172,3.871
					c0.536,0.331-0.144-0.057,4.421,2.214c0.614,0.303,1.425,0.624,2.051,0.819c0.124,0.039,0.25,0.073,0.375,0.108
					c2.412-0.882,4.54-2.284,5.918-4.466c2.527-4.001,1.052-7.879,0.122-9.614C231.699,60.749,231.755,60.018,232.127,59.435z"/>
			</g>
		</g>
		<g>
			<g>
				<path class="st8" d="M192.822,50.152c-0.357,0.058-0.72,0.096-1.093,0.096c-2.439,0-4.575-1.281-5.786-3.202
					c-1.381,2.7-2.859,7.479,0.271,12.389c0.372,0.583,0.428,1.314,0.102,1.924c-0.93,1.735-2.405,5.613,0.122,9.614
					c1.378,2.182,3.506,3.584,5.918,4.466c0.125-0.035,0.251-0.069,0.375-0.108c0.625-0.196,1.436-0.517,2.051-0.819
					c4.862-2.418,3.925-1.908,4.421-2.214c1.338-0.824,2.172-2.28,2.172-3.871v-4.97C196.572,60.839,193.207,55.887,192.822,50.152z
					"/>
			</g>
		</g>
		<g>
			<g>
				<path class="st1" d="M226.612,36.563c-0.358,0-0.709,0.03-1.052,0.083v12.408c0,0.37-0.017,0.735-0.041,1.099
					c0.357,0.058,0.72,0.096,1.093,0.096c3.779,0,6.843-3.064,6.843-6.843C233.454,39.626,230.391,36.563,226.612,36.563z"/>
			</g>
		</g>
		<g>
			<g>
				<path class="st1" d="M224.552,34.563c-1.658-0.384-3.672-1.345-5.98-3.442c-0.456-0.415-1.16-0.38-1.562,0.088
					c-2.496,2.914-11.347,11.752-24.229,8.083v9.76c0,9.014,7.375,16.39,16.39,16.39c9.014,0,16.389-7.375,16.389-16.39V35.813
					C225.56,35.21,225.138,34.7,224.552,34.563z"/>
			</g>
		</g>
		<g>
			<g>
				<path class="st1" d="M192.781,49.053v-9.76c-1.125-0.321-2.281-0.736-3.466-1.259c-0.764-0.338-1.657-0.182-2.266,0.389
					c-1.329,1.247-2.162,3.015-2.162,4.982c0,3.779,3.063,6.843,6.843,6.843c0.373,0,0.736-0.038,1.093-0.096
					C192.798,49.789,192.781,49.423,192.781,49.053z"/>
			</g>
		</g>
		<g>
			<g>
				<path class="st8" d="M209.17,12.279c-12.258,0-22.287,10.029-22.287,22.287v4.027c0.056-0.056,0.107-0.116,0.165-0.17
					c0.609-0.572,1.502-0.727,2.266-0.389c1.185,0.523,2.341,0.938,3.466,1.259c12.881,3.669,21.733-5.17,24.229-8.083
					c0.401-0.468,1.105-0.502,1.562-0.088c2.308,2.097,4.322,3.058,5.98,3.442c0.587,0.136,1.008,0.646,1.008,1.249v0.833
					c0.343-0.053,0.694-0.083,1.052-0.083c1.893,0,3.607,0.769,4.846,2.012v-4.008C231.457,22.309,221.428,12.279,209.17,12.279z"/>
			</g>
		</g>
		<g>
			<g>
				<path class="st7" d="M238.114,78.513l-3.258-0.822c-0.305-0.077-8.061-2.035-8.461-2.136c-0.979-0.247-1.93-0.596-2.835-1.042
					l-4.052-1.998c-1.556-0.768-2.542-2.352-2.542-4.087v-4.97c-2.322,1.266-4.979,1.986-7.796,1.986
					c-2.817,0-5.474-0.72-7.796-1.986v4.971c0,1.735-0.985,3.319-2.541,4.086l-4.052,1.998c-0.906,0.446-1.856,0.796-2.835,1.042
					c-0.058,0.014-8.408,2.122-8.461,2.136l-3.257,0.822c-0.515,0.129-0.992,0.334-1.449,0.572
					c7.937,7.481,18.625,12.075,30.392,12.075s22.456-4.594,30.392-12.075C239.106,78.847,238.629,78.642,238.114,78.513z"/>
			</g>
		</g>
		<g>
			<g>
				<path class="st0" d="M66.854,81.089c-4.941-1.244-8.826-3.375-8.776-3.35c-2.031-1.001-3.317-3.07-3.317-5.334v-2.802
					c-2.378,1.245-5.075,1.954-7.932,1.954s-5.554-0.708-7.932-1.954v2.802c0,2.262-1.283,4.332-3.311,5.332
					c-2.747,1.355-5.144,2.437-8.782,3.353l-6.111,1.538c7.329,5.361,16.361,8.532,26.137,8.532c9.776,0,18.807-3.171,26.136-8.532
					L66.854,81.089z"/>
			</g>
		</g>
		<g>
			<g>
				<path class="st1" d="M65.151,41.217c-0.376,0-0.745,0.032-1.105,0.087v13.034c0,0.389-0.018,0.773-0.043,1.155
					c0.375,0.061,0.756,0.1,1.148,0.1c3.97,0,7.188-3.218,7.188-7.188C72.339,44.436,69.121,41.217,65.151,41.217z"/>
			</g>
		</g>
		<g>
			<g>
				<path class="st1" d="M29.611,54.339V41.305c-0.36-0.056-0.729-0.087-1.105-0.087c-3.97,0-7.188,3.218-7.188,7.188
					c0,3.97,3.218,7.188,7.188,7.188c0.392,0,0.773-0.04,1.148-0.1v0C29.629,55.111,29.611,54.727,29.611,54.339z"/>
			</g>
		</g>
		<g>
			<g>
				<path class="st2" d="M63.982,26.53c-0.577,0-1.076-0.444-1.084-1.021c-0.132-9.594-11.088-11.396-21.998-9.512
					c-9.25,1.598-16.011,9.619-16.011,19.006v7.198c1.064-0.622,2.297-0.984,3.618-0.984c0.376,0,0.744,0.032,1.105,0.087v-1.416
					c0-2.288,0.881-4.488,2.46-6.143l0.006-0.006c1.124-1.178,2.95-1.291,4.233-0.288c2.038,1.595,5.567,3.573,10.538,3.573
					c4.959,0,8.47-1.969,10.499-3.562c1.283-1.007,3.114-0.898,4.24,0.282c1.579,1.655,2.46,3.855,2.46,6.143v1.416
					c0.36-0.056,0.729-0.087,1.105-0.087c1.337,0,2.584,0.372,3.657,1.007v-5.91C68.808,27.724,65.705,26.53,63.982,26.53z"/>
			</g>
		</g>
		<g>
			<g>
				<path class="st1" d="M219.508,72.514c-1.556-0.768-2.542-2.352-2.542-4.087v-4.97c-2.322,1.266-4.979,1.986-7.796,1.986
					s-5.474-0.72-7.796-1.986v4.97c0,1.735-0.985,3.319-2.542,4.087l-3.002,1.48c2.453,5.788,6.215,10.899,10.913,14.955
					c1.39,1.2,3.463,1.2,4.853,0c4.698-4.056,8.459-9.167,10.913-14.955L219.508,72.514z"/>
			</g>
		</g>
		<g>
			<g>
				<path class="st1" d="M58.078,77.739c-2.031-1.001-3.318-3.07-3.318-5.334v-2.802c-2.378,1.245-5.075,1.954-7.932,1.954
					c-2.857,0-5.554-0.709-7.932-1.954v2.802c0,2.265-1.286,4.333-3.318,5.334c-0.318,0.157-0.631,0.31-0.943,0.459
					c1.804,4.993,6.598,8.586,12.192,8.586c5.588,0,10.379-3.586,12.187-8.57C58.405,77.919,58.063,77.732,58.078,77.739z"/>
			</g>
		</g>
		<g>
			<g>
				<path class="st1" d="M61.587,33.746c-1.126-1.181-2.956-1.29-4.24-0.282c-2.029,1.593-5.54,3.562-10.499,3.562
					c-4.971,0-8.501-1.979-10.538-3.573c-1.282-1.003-3.109-0.891-4.233,0.288l-0.006,0.006c-1.579,1.655-2.46,3.855-2.46,6.143
					v14.45c0,9.47,7.748,17.218,17.217,17.218h0c9.47,0,17.217-7.748,17.217-17.218v-14.45
					C64.046,37.602,63.165,35.401,61.587,33.746z"/>
			</g>
		</g>
		<g>
			<g>
				<g>
					<path d="M209.171,0c-25.822,0-46.83,21.008-46.83,46.829c0,25.822,21.008,46.83,46.83,46.83
						c25.821,0,46.829-21.008,46.829-46.83C256,21.008,234.992,0,209.171,0z M209.171,88.659c-23.065,0-41.83-18.765-41.83-41.83
						C167.341,23.765,186.105,5,209.171,5C232.235,5,251,23.765,251,46.829C251,69.895,232.235,88.659,209.171,88.659z"/>
				</g>
			</g>
		</g>
		<g>
			<g>
				<g>
					<path d="M46.829,0C21.008,0,0,21.008,0,46.829c0,25.822,21.008,46.83,46.829,46.83c25.822,0,46.83-21.008,46.83-46.83
						C93.659,21.008,72.651,0,46.829,0z M46.829,88.659C23.765,88.659,5,69.895,5,46.829C5,23.765,23.765,5,46.829,5
						c23.065,0,41.83,18.765,41.83,41.829C88.659,69.895,69.895,88.659,46.829,88.659z"/>
				</g>
			</g>
		</g>
		<g>
			<g>
				<path class="st5" d="M120.206,16.511h-2.4v-2.3c0-1.8-1.4-3.2-3.2-3.2c-1.7,0-3.2,1.4-3.2,3.1v2.4h-2.3c-1.8,0-3.2,1.4-3.2,3.2
					c-0.1,1.7,1.3,3.2,3.2,3.2h2.3v2.3c0,1.8,1.4,3.2,3.2,3.2c1.7,0,3.2-1.4,3.2-3.1v-2.4h2.3c1.8,0,3.2-1.4,3.2-3.2
					C123.306,18.011,121.906,16.511,120.206,16.511z"/>
			</g>
		</g>
		<g>
			<g>
				<path class="st9" d="M178.506,249.2c-1.878,0-3.4,1.522-3.4,3.4c0,1.877,1.522,3.4,3.4,3.4c1.878,0,3.4-1.522,3.4-3.4
					C181.906,250.722,180.384,249.2,178.506,249.2z"/>
			</g>
		</g>
		<g>
			<g>
				<path class="st4" d="M35.775,138.61c-3.1-0.6-5.6-3-6.2-6.1c0-0.1-0.3-0.1-0.3,0c-0.6,3.1-3.1,5.5-6.2,6.1c-0.1,0-0.1,0.2,0,0.3
					c3.1,0.6,5.6,3,6.2,6.1c0,0.1,0.3,0.1,0.3,0c0.6-3.1,3.1-5.5,6.2-6.1C35.875,138.811,35.875,138.61,35.775,138.61z"/>
			</g>
		</g>
		<g>
			<g>
				<path class="st6" d="M146.506,0c-1.878,0-3.4,1.522-3.4,3.4c0,1.878,1.522,3.4,3.4,3.4c1.878,0,3.4-1.522,3.4-3.4
					C149.906,1.522,148.384,0,146.506,0z"/>
			</g>
		</g>
		<g>
			<g>
				<path class="st6" d="M218.288,231.61c-4.5-0.8-8-4.3-8.9-8.7c0-0.2-0.4-0.2-0.4,0c-0.9,4.4-4.4,7.9-8.9,8.7
					c-0.2,0-0.2,0.3,0,0.4c4.5,0.8,8,4.3,8.9,8.7c0,0.2,0.4,0.2,0.4,0c0.9-4.4,4.4-7.9,8.9-8.7
					C218.488,231.911,218.488,231.61,218.288,231.61z"/>
			</g>
		</g>
		<g>
			<g>
				<circle class="st5" cx="128" cy="162.566" r="81.961"/>
			</g>
		</g>
		<g>
			<g>
				<circle class="st14" cx="128" cy="162.566" r="69.071"/>
			</g>
		</g>
		<g>
			<g>
				<path class="st12" d="M128,154.54V93.495c-38.147,0-69.071,30.924-69.071,69.071S89.853,231.637,128,231.637v-22.482
					c-2.687,0-4.864-2.177-4.864-4.864v-35.351c-1.919-1.467-3.162-3.772-3.162-6.374C119.974,158.134,123.567,154.54,128,154.54z"
					/>
			</g>
		</g>
		<g>
			<g>
				
					<ellipse transform="matrix(0.9871 -0.1602 0.1602 0.9871 -24.3874 22.6025)" class="st7" cx="128" cy="162.566" rx="8.026" ry="8.026"/>
			</g>
		</g>
		<g>
			<g>
				<path class="st4" d="M128,170.592c-1.831,0-3.514-0.62-4.864-1.652v35.351c0,2.687,2.177,4.864,4.864,4.864
					s4.864-2.177,4.864-4.864v-35.351C131.514,169.972,129.831,170.592,128,170.592z"/>
			</g>
		</g>
		<g>
			<g>
				<g>
					<path d="M128,78.105c-46.572,0-84.461,37.889-84.461,84.461c0,46.571,37.889,84.46,84.461,84.46s84.461-37.889,84.461-84.46
						C212.461,115.994,174.572,78.105,128,78.105z M128,242.026c-43.814,0-79.461-35.646-79.461-79.46S84.186,83.105,128,83.105
						s79.461,35.646,79.461,79.461S171.814,242.026,128,242.026z"/>
				</g>
			</g>
		</g>
		<g>
			<g>
				<g>
					<path d="M128,91.968c-1.381,0-2.5,1.119-2.5,2.5v4.864c0,1.381,1.119,2.5,2.5,2.5s2.5-1.119,2.5-2.5v-4.864
						C130.5,93.087,129.381,91.968,128,91.968z"/>
				</g>
			</g>
			<g>
				<g>
					<path d="M128,223.3c-1.381,0-2.5,1.119-2.5,2.5v4.864c0,1.381,1.119,2.5,2.5,2.5s2.5-1.119,2.5-2.5V225.8
						C130.5,224.419,129.381,223.3,128,223.3z"/>
				</g>
			</g>
		</g>
		<g>
			<g>
				<g>
					<path d="M98.548,106.554l-2.432-4.212c-0.69-1.196-2.223-1.605-3.415-0.915c-1.195,0.69-1.605,2.22-0.915,3.415l2.432,4.212
						c0.463,0.802,1.304,1.25,2.167,1.25c0.425,0,0.854-0.107,1.248-0.335C98.828,109.278,99.238,107.749,98.548,106.554z"/>
				</g>
			</g>
			<g>
				<g>
					<path d="M164.214,220.291l-2.432-4.213c-0.69-1.196-2.221-1.604-3.415-0.915c-1.195,0.69-1.605,2.219-0.915,3.415l2.432,4.213
						c0.463,0.802,1.304,1.25,2.167,1.25c0.425,0,0.854-0.107,1.248-0.335C164.494,223.016,164.904,221.487,164.214,220.291z"/>
				</g>
			</g>
		</g>
		<g>
			<g>
				<g>
					<path d="M74.488,128.784l-4.213-2.433c-1.192-0.689-2.725-0.281-3.415,0.915c-0.69,1.195-0.281,2.725,0.915,3.415l4.213,2.433
						c0.394,0.228,0.823,0.335,1.248,0.335c0.863,0,1.704-0.448,2.167-1.25C76.094,131.004,75.685,129.475,74.488,128.784z"/>
				</g>
			</g>
			<g>
				<g>
					<path d="M188.225,194.45l-4.213-2.433c-1.194-0.689-2.725-0.281-3.415,0.915c-0.69,1.195-0.281,2.725,0.915,3.415l4.213,2.433
						c0.394,0.228,0.823,0.335,1.248,0.335c0.863,0,1.704-0.448,2.167-1.25C189.83,196.67,189.421,195.141,188.225,194.45z"/>
				</g>
			</g>
		</g>
		<g>
			<g>
				<g>
					<path d="M64.767,160.066h-4.864c-1.381,0-2.5,1.119-2.5,2.5s1.119,2.5,2.5,2.5h4.864c1.381,0,2.5-1.119,2.5-2.5
						S66.147,160.066,64.767,160.066z"/>
				</g>
			</g>
			<g>
				<g>
					<path d="M196.098,160.066h-4.864c-1.381,0-2.5,1.119-2.5,2.5s1.119,2.5,2.5,2.5h4.864c1.381,0,2.5-1.119,2.5-2.5
						S197.479,160.066,196.098,160.066z"/>
				</g>
			</g>
		</g>
		<g>
			<g>
				<g>
					<path d="M75.403,192.933c-0.69-1.196-2.223-1.604-3.415-0.915l-4.213,2.433c-1.196,0.69-1.605,2.22-0.915,3.415
						c0.463,0.802,1.304,1.25,2.167,1.25c0.425,0,0.854-0.107,1.248-0.335l4.213-2.433
						C75.685,195.657,76.094,194.128,75.403,192.933z"/>
				</g>
			</g>
			<g>
				<g>
					<path d="M189.14,127.267c-0.69-1.196-2.223-1.604-3.415-0.915l-4.213,2.433c-1.196,0.69-1.605,2.22-0.915,3.415
						c0.463,0.802,1.304,1.25,2.167,1.25c0.425,0,0.854-0.107,1.248-0.335l4.213-2.433
						C189.421,129.991,189.83,128.462,189.14,127.267z"/>
				</g>
			</g>
		</g>
		<g>
			<g>
				<g>
					<path d="M97.633,215.163c-1.193-0.689-2.725-0.281-3.415,0.915l-2.432,4.213c-0.69,1.196-0.28,2.725,0.915,3.415
						c0.394,0.228,0.823,0.335,1.248,0.335c0.863,0,1.704-0.448,2.167-1.25l2.432-4.213
						C99.238,217.382,98.828,215.854,97.633,215.163z"/>
				</g>
			</g>
			<g>
				<g>
					<path d="M163.299,101.427c-1.192-0.69-2.725-0.281-3.415,0.915l-2.432,4.212c-0.69,1.195-0.28,2.725,0.915,3.415
						c0.394,0.228,0.823,0.335,1.248,0.335c0.863,0,1.704-0.448,2.167-1.25l2.432-4.212
						C164.904,103.646,164.494,102.117,163.299,101.427z"/>
				</g>
			</g>
		</g>
		<g>
			<g>
				<path d="M128,112.154c-1.381,0-2.5,1.119-2.5,2.5v39.886c0,1.381,1.119,2.5,2.5,2.5s2.5-1.119,2.5-2.5v-39.886
					C130.5,113.273,129.381,112.154,128,112.154z"/>
			</g>
		</g>
		<g>
			<g>
				<g>
					<path d="M128,90.995c-39.465,0-71.571,32.106-71.571,71.571c0,39.464,32.106,71.57,71.571,71.57s71.571-32.106,71.571-71.57
						C199.571,123.102,167.465,90.995,128,90.995z M128,229.137c-36.708,0-66.571-29.863-66.571-66.57
						c0-36.708,29.863-66.571,66.571-66.571s66.571,29.863,66.571,66.571C194.571,199.273,164.708,229.137,128,229.137z"/>
				</g>
			</g>
		</g>
		<g>
			<g>
				<g>
					<path d="M128,152.04c-5.804,0-10.525,4.722-10.525,10.526c0,5.804,4.722,10.525,10.525,10.525s10.525-4.722,10.525-10.525
						C138.525,156.762,133.804,152.04,128,152.04z M128,168.092c-3.047,0-5.525-2.479-5.525-5.525s2.479-5.526,5.525-5.526
						s5.525,2.479,5.525,5.526S131.047,168.092,128,168.092z"/>
				</g>
			</g>
		</g>
		<g>
			<g>
				<g>
					<path d="M133.972,166.698c-0.85-0.421-1.868-0.323-2.626,0.255c-1.949,1.49-4.742,1.49-6.691,0
						c-0.758-0.578-1.776-0.676-2.626-0.255c-0.853,0.422-1.393,1.29-1.393,2.241v35.351c0,4.061,3.304,7.364,7.364,7.364
						s7.364-3.304,7.364-7.364v-35.351C135.364,167.988,134.824,167.12,133.972,166.698z M130.364,204.29
						c0,1.304-1.061,2.364-2.364,2.364s-2.364-1.061-2.364-2.364v-31.465c1.535,0.354,3.193,0.354,4.729,0V204.29z"/>
				</g>
			</g>
		</g>
		<g>
			<g>
				<g>
					<path d="M234.624,45.907c-0.409-0.8-1.216-1.318-2.113-1.358c-0.913-0.036-1.747,0.404-2.227,1.164
						c-0.804,1.274-2.177,2.035-3.673,2.035c-0.202,0-0.429-0.021-0.693-0.063c-0.698-0.112-1.404,0.074-1.955,0.511
						c-0.551,0.438-0.892,1.088-0.938,1.79c-0.319,4.759-3.031,8.975-7.255,11.276c-0.804,0.438-1.304,1.28-1.304,2.195v4.971
						c0,2.46,1.257,4.703,3.438,6.047c0.266,0.164,0.264,0.17,1.001,0.528c0.517,0.253,1.504,0.733,3.55,1.751
						c0.72,0.355,1.645,0.725,2.405,0.962c0.127,0.04,0.255,0.076,0.449,0.13c0.222,0.063,0.449,0.094,0.677,0.094
						c0.291,0,0.583-0.051,0.859-0.152c3.203-1.173,5.616-3.017,7.172-5.479c3.104-4.912,1.442-9.676,0.385-11.796
						C238.038,54.554,236.113,48.82,234.624,45.907z M229.822,62.539c0.763,1.424,1.773,4.239-0.032,7.099
						c-0.836,1.322-2.146,2.379-3.9,3.148c-0.421-0.154-0.876-0.345-1.217-0.513c-2.059-1.024-3.056-1.51-3.578-1.765
						c-0.291-0.142-0.397-0.19-0.558-0.285c-0.002-0.001-0.085-0.052-0.087-0.054c-0.616-0.379-0.984-1.03-0.984-1.742v-3.554
						c4.316-2.811,7.266-7.189,8.239-12.189c1.29-0.15,2.517-0.564,3.614-1.206c0.366,1.996,0.178,4.295-1.301,6.612
						C229.154,59.447,229.079,61.151,229.822,62.539z"/>
				</g>
			</g>
		</g>
		<g>
			<g>
				<g>
					<path d="M202.571,61.262c-4.224-2.302-6.936-6.518-7.255-11.276c-0.047-0.702-0.388-1.352-0.938-1.79
						c-0.551-0.437-1.262-0.623-1.955-0.511c-0.265,0.043-0.491,0.063-0.693,0.063c-1.496,0-2.869-0.761-3.673-2.035
						c-0.479-0.76-1.301-1.201-2.227-1.164c-0.897,0.04-1.704,0.559-2.113,1.358c-1.489,2.913-3.414,8.646,0.223,14.604
						c-1.059,2.122-2.718,6.885,0.385,11.796c1.556,2.463,3.969,4.307,7.172,5.479c0.268,0.098,0.562,0.145,0.854,0.145
						c0.246,0,0.491-0.032,0.721-0.097c0.138-0.038,0.274-0.076,0.405-0.118c0.769-0.24,1.692-0.608,2.418-0.967
						c2.216-1.102,3.222-1.593,3.708-1.83c0.662-0.323,0.657-0.332,0.821-0.437l0.09-0.056c2.104-1.297,3.361-3.54,3.361-6v-4.971
						C203.875,62.542,203.375,61.7,202.571,61.262z M198.875,68.428c0,0.712-0.368,1.363-0.984,1.742l-0.117,0.077
						c-0.06,0.031-0.156,0.078-0.363,0.179c-0.491,0.24-1.507,0.735-3.734,1.844c-0.345,0.17-0.802,0.361-1.225,0.516
						c-1.755-0.769-3.064-1.825-3.9-3.147c-1.806-2.859-0.795-5.675-0.032-7.099c0.001,0,0.001,0,0.001-0.001
						c0.742-1.387,0.667-3.091-0.198-4.448c-1.478-2.317-1.666-4.615-1.3-6.611c1.098,0.642,2.324,1.056,3.614,1.206
						c0.974,5,3.923,9.379,8.239,12.189V68.428z"/>
				</g>
			</g>
		</g>
		<g>
			<g>
				<g>
					<path d="M226.611,34.063c-0.466,0-0.946,0.038-1.431,0.112c-1.221,0.187-2.121,1.236-2.121,2.471v12.408
						c0,0.313-0.015,0.623-0.035,0.931c-0.087,1.288,0.821,2.43,2.095,2.636c0.532,0.086,1.021,0.128,1.492,0.128
						c5.151,0,9.343-4.191,9.343-9.343S231.763,34.063,226.611,34.063z M228.06,47.5v-8.189c1.685,0.598,2.895,2.208,2.895,4.095
						S229.744,46.902,228.06,47.5z"/>
				</g>
			</g>
		</g>
		<g>
			<g>
				<g>
					<path d="M225.115,32.128c-1.53-0.354-3.166-1.315-4.861-2.854c-0.717-0.653-1.682-1.005-2.646-0.934
						c-0.974,0.06-1.859,0.501-2.495,1.241c0,0.001-0.001,0.001-0.001,0.002c-2.176,2.54-10.169,10.571-21.646,7.306
						c-0.75-0.215-1.564-0.063-2.19,0.409s-0.994,1.211-0.994,1.995v9.761c0,10.415,8.474,18.889,18.889,18.889
						c10.416,0,18.89-8.474,18.89-18.889V35.813C228.06,34.044,226.849,32.528,225.115,32.128z M223.06,49.054
						c0,7.658-6.23,13.889-13.89,13.889c-7.658,0-13.889-6.23-13.889-13.889v-6.658c11.301,1.733,19.36-5.025,22.677-8.51
						c1.688,1.356,3.396,2.313,5.102,2.857V49.054z"/>
				</g>
			</g>
		</g>
		<g>
			<g>
				<g>
					<path d="M195.281,49.054v-9.761c0-1.117-0.741-2.099-1.816-2.404c-1.037-0.296-2.095-0.68-3.14-1.142
						c-1.683-0.741-3.642-0.409-4.988,0.853c-1.875,1.76-2.95,4.24-2.95,6.806c0,5.151,4.191,9.343,9.343,9.343
						c0.472,0,0.96-0.042,1.492-0.128c1.273-0.206,2.182-1.348,2.095-2.636C195.296,49.677,195.281,49.366,195.281,49.054z
						 M190.281,47.5c-1.685-0.598-2.895-2.208-2.895-4.095c0-1.118,0.418-2.162,1.181-2.97c0.569,0.245,1.142,0.471,1.714,0.677
						V47.5z"/>
				</g>
			</g>
		</g>
		<g>
			<g>
				<g>
					<g>
						<path d="M209.17,9.779c-13.667,0-24.786,11.119-24.786,24.787v4.027c0,1.015,0.614,1.93,1.554,2.313
							c0.898,0.371,1.925,0.182,2.635-0.47c1.17,0.504,2.354,0.927,3.524,1.26c2.401,0.685,4.676,0.978,6.812,0.978
							c9.401,0,16.103-5.69,19.05-8.789c1.688,1.356,3.397,2.313,5.104,2.858c0.027,0.692,0.342,1.345,0.87,1.799
							c0.553,0.475,1.288,0.688,2.007,0.573c0.237-0.036,0.457-0.054,0.673-0.054c1.162,0,2.255,0.453,3.075,1.276
							c0.715,0.718,1.79,0.933,2.726,0.546c0.935-0.387,1.545-1.299,1.545-2.311v-4.008C233.957,20.898,222.838,9.779,209.17,9.779z
							 M227.662,34.12c-0.492-0.982-1.406-1.729-2.547-1.992c-1.53-0.354-3.166-1.315-4.861-2.854
							c-0.717-0.653-1.682-1.005-2.646-0.934c-0.974,0.06-1.859,0.501-2.496,1.243c-2.175,2.54-10.156,10.573-21.646,7.306
							c-1.037-0.296-2.095-0.68-3.14-1.142c-0.307-0.135-0.622-0.234-0.941-0.3v-0.881c0-10.911,8.876-19.787,19.786-19.787
							c10.841,0,19.673,8.764,19.786,19.578C228.533,34.249,228.101,34.169,227.662,34.12z"/>
					</g>
				</g>
			</g>
		</g>
		<g>
			<g>
				<g>
					<path d="M242.039,78.74c-0.112-0.803-0.605-1.501-1.324-1.874c-0.695-0.361-1.346-0.615-1.989-0.777l-11.719-2.958
						c-0.813-0.205-1.6-0.494-2.342-0.861l-4.053-1.999c-0.696-0.343-1.146-1.066-1.146-1.843v-4.971
						c0-0.882-0.465-1.699-1.224-2.149c-0.757-0.449-1.697-0.467-2.473-0.046c-4.033,2.199-9.165,2.199-13.198,0
						c-0.774-0.421-1.715-0.403-2.473,0.046c-0.759,0.45-1.224,1.268-1.224,2.149v4.971c0,0.776-0.45,1.5-1.147,1.844l-4.054,1.999
						c-0.74,0.366-1.528,0.655-2.334,0.858c-0.059,0.015-8.418,2.125-8.468,2.138l-3.255,0.822
						c-0.645,0.162-1.295,0.416-1.991,0.777c-0.719,0.373-1.212,1.071-1.323,1.874c-0.112,0.802,0.172,1.608,0.761,2.164
						c8.727,8.225,20.129,12.755,32.107,12.755c11.978,0,23.38-4.53,32.106-12.755C241.866,80.349,242.15,79.542,242.039,78.74z
						 M209.171,88.659c-9.197,0-18.015-2.99-25.261-8.498l0.189-0.048c0.112-0.028,8.335-2.104,8.459-2.135
						c1.153-0.291,2.273-0.703,3.328-1.225l4.051-1.997c2.429-1.196,3.938-3.621,3.938-6.329V67.18c3.43,1.005,7.161,1.005,10.591,0
						v1.248c0,2.708,1.509,5.133,3.937,6.328l4.05,1.997c1.057,0.522,2.177,0.935,3.333,1.227l8.646,2.182
						C227.185,85.669,218.367,88.659,209.171,88.659z"/>
				</g>
			</g>
		</g>
		<g>
			<g>
				<g>
					<path d="M75.42,82.148c-0.186-0.951-0.904-1.709-1.844-1.946l-6.111-1.538c-4.394-1.104-7.958-2.995-8.161-3.104
						c-0.039-0.022-0.079-0.044-0.12-0.063c-1.187-0.585-1.923-1.77-1.923-3.092v-2.803c0-0.875-0.457-1.686-1.206-2.139
						c-0.748-0.453-1.679-0.482-2.454-0.076c-2.114,1.107-4.393,1.669-6.771,1.669s-4.658-0.562-6.772-1.669
						c-0.775-0.405-1.707-0.377-2.454,0.076c-0.749,0.453-1.206,1.264-1.206,2.139v2.802c0,1.303-0.753,2.516-1.917,3.09
						c-2.548,1.256-4.776,2.287-8.286,3.17l-6.111,1.538c-0.939,0.237-1.658,0.995-1.844,1.946
						c-0.186,0.952,0.196,1.925,0.979,2.496c8.064,5.897,17.612,9.015,27.612,9.015c10.001,0,19.55-3.117,27.612-9.015
						C75.224,84.072,75.605,83.1,75.42,82.148z M46.829,88.659c-7.029,0-13.81-1.725-19.89-5.026l0.475-0.119
						c3.979-1.001,6.556-2.193,9.276-3.535c2.598-1.28,4.36-3.853,4.66-6.707c3.555,1.034,7.398,1.034,10.953,0.001
						c0.285,2.82,1.947,5.293,4.492,6.619c0.608,0.393,1.506,0.78,2.838,1.355c1.525,0.659,3.911,1.587,6.61,2.267l0.475,0.119
						C60.64,86.935,53.859,88.659,46.829,88.659z"/>
				</g>
			</g>
		</g>
		<g>
			<g>
				<g>
					<path d="M65.151,38.717c-0.483,0-0.983,0.039-1.487,0.117c-1.219,0.188-2.118,1.237-2.118,2.471v13.034
						c0,0.333-0.016,0.662-0.037,0.99c-0.086,1.289,0.825,2.432,2.102,2.634c0.554,0.088,1.058,0.131,1.541,0.131
						c5.342,0,9.688-4.347,9.688-9.688S70.493,38.717,65.151,38.717z M66.546,52.882v-8.953c1.906,0.595,3.294,2.377,3.294,4.477
						S68.452,52.287,66.546,52.882z"/>
				</g>
			</g>
		</g>
		<g>
			<g>
				<g>
					<path d="M32.111,54.339V41.305c0-1.233-0.899-2.282-2.118-2.471c-0.504-0.078-1.004-0.117-1.486-0.117
						c-5.342,0-9.688,4.347-9.688,9.688s4.347,9.688,9.688,9.688c0.488,0,0.994-0.043,1.547-0.133
						c1.276-0.206,2.185-1.351,2.096-2.64C32.127,54.996,32.111,54.67,32.111,54.339z M27.111,52.882
						c-1.906-0.596-3.293-2.377-3.293-4.477s1.387-3.881,3.293-4.477V52.882z"/>
				</g>
			</g>
		</g>
		<g>
			<g>
				<g>
					<path d="M65.32,24.177c-0.33-3.085-1.693-5.691-3.985-7.596c-5.769-4.789-15.546-3.965-20.861-3.048
						c-10.479,1.811-18.086,10.84-18.086,21.47v7.198c0,0.896,0.479,1.722,1.255,2.168s1.732,0.443,2.505-0.009
						c0.937-0.545,1.91-0.766,3.082-0.585c0.721,0.111,1.454-0.098,2.009-0.573c0.555-0.475,0.873-1.168,0.873-1.897V39.89
						c0-1.653,0.628-3.223,1.775-4.425c0.228-0.237,0.607-0.259,0.882-0.044c2.394,1.872,6.432,4.104,12.079,4.104
						c5.642,0,9.662-2.227,12.042-4.095c0.277-0.218,0.657-0.2,0.888,0.041c1.141,1.195,1.769,2.765,1.769,4.418v1.415
						c0,0.729,0.318,1.423,0.873,1.897c0.554,0.476,1.29,0.686,2.009,0.573c1.169-0.18,2.18,0.051,3.104,0.6
						c0.394,0.233,0.834,0.35,1.275,0.35c0.427,0,0.854-0.109,1.237-0.328c0.78-0.444,1.263-1.273,1.263-2.172v-5.91
						C71.308,27.112,67.779,24.724,65.32,24.177z M66.308,37.559c-0.429-2.066-1.426-3.979-2.911-5.538
						c-1.104-1.157-2.582-1.748-4.073-1.748c-1.232,0-2.474,0.403-3.521,1.225c-1.76,1.382-4.742,3.028-8.955,3.028
						c-4.223,0-7.224-1.654-8.998-3.042c-2.312-1.809-5.57-1.58-7.587,0.537c-1.444,1.514-2.427,3.362-2.875,5.362v-2.38
						c0-8.19,5.861-15.147,13.938-16.542c7.486-1.295,13.775-0.558,16.815,1.967c1.488,1.236,2.227,2.91,2.257,5.116
						c0.026,1.922,1.635,3.486,3.585,3.486c1.157,0,2.325,2.252,2.325,7.284V37.559z"/>
				</g>
			</g>
		</g>
		<g>
			<g>
				<g>
					<path d="M223.615,71.752l-3.003-1.481c-0.696-0.343-1.146-1.066-1.146-1.843v-4.971c0-0.882-0.465-1.699-1.224-2.149
						c-0.757-0.449-1.697-0.467-2.473-0.046c-4.033,2.199-9.165,2.199-13.198,0c-0.774-0.421-1.715-0.403-2.473,0.046
						c-0.759,0.45-1.224,1.268-1.224,2.149v4.971c0,0.776-0.45,1.5-1.147,1.844l-3.002,1.48c-1.188,0.586-1.714,1.998-1.196,3.218
						c2.569,6.061,6.574,11.549,11.581,15.871c1.157,1,2.608,1.5,4.061,1.5c1.451,0,2.902-0.5,4.06-1.499
						c5.006-4.322,9.011-9.811,11.581-15.872C225.329,73.75,224.804,72.338,223.615,71.752z M209.963,87.058
						c-0.453,0.388-1.132,0.39-1.585,0c0-0.001,0-0.001,0-0.001c-3.832-3.309-7.001-7.388-9.257-11.897l0.816-0.402
						c2.429-1.196,3.938-3.621,3.938-6.329V67.18c3.43,1.005,7.161,1.005,10.591,0v1.248c0,2.708,1.509,5.133,3.937,6.328
						l0.817,0.403C216.963,79.669,213.795,83.748,209.963,87.058z"/>
				</g>
			</g>
		</g>
		<g>
			<g>
				<g>
					<path d="M60.109,75.968c-0.437-0.212-0.718-0.359-0.803-0.406c-0.04-0.022-0.082-0.044-0.123-0.064
						c-1.187-0.585-1.923-1.77-1.923-3.092v-2.803c0-0.875-0.457-1.686-1.206-2.139c-0.748-0.453-1.679-0.482-2.454-0.076
						c-2.114,1.107-4.393,1.669-6.771,1.669s-4.658-0.562-6.772-1.669c-0.775-0.405-1.707-0.377-2.454,0.076
						c-0.749,0.453-1.206,1.264-1.206,2.139v2.803c0,1.322-0.736,2.507-1.923,3.092c0,0-0.001,0-0.002,0.001l-0.922,0.45
						c-1.153,0.557-1.699,1.896-1.265,3.101c2.213,6.123,8.058,10.236,14.544,10.236c6.477,0,12.318-4.105,14.536-10.217
						C61.802,77.866,61.26,76.527,60.109,75.968z M46.829,84.285c-3.677,0-7.05-1.957-8.928-5.033
						c1.953-1.404,3.208-3.564,3.452-5.979c3.552,1.032,7.396,1.034,10.95,0c0.244,2.416,1.499,4.576,3.453,5.98
						C53.878,82.327,50.504,84.285,46.829,84.285z"/>
				</g>
			</g>
		</g>
		<g>
			<g>
				<g>
					<path d="M63.396,32.021L63.396,32.021c-2.017-2.115-5.28-2.339-7.594-0.524c-1.76,1.382-4.742,3.028-8.955,3.028
						c-4.223,0-7.224-1.654-8.998-3.042c-2.312-1.809-5.57-1.58-7.587,0.537c-2.032,2.13-3.151,4.925-3.151,7.869v14.449
						c0,10.872,8.846,19.718,19.718,19.718s19.717-8.846,19.717-19.718V39.89C66.546,36.945,65.428,34.151,63.396,32.021z
						 M61.546,54.339c0,8.115-6.602,14.718-14.717,14.718s-14.718-6.603-14.718-14.718V39.89c0-1.653,0.628-3.223,1.775-4.425
						c0.122-0.128,0.287-0.193,0.457-0.193c0.147,0,0.298,0.05,0.425,0.149c2.394,1.872,6.432,4.104,12.079,4.104
						c5.642,0,9.662-2.227,12.042-4.095c0.276-0.217,0.657-0.2,0.888,0.041c1.141,1.195,1.769,2.765,1.769,4.418V54.339z"/>
				</g>
			</g>
		</g>
	</g>
</g>
<g id="Layer_80">
</g>
</svg>
