<?xml version="1.0" encoding="utf-8"?>
<!-- Generator: Adobe Illustrator 24.0.0, SVG Export Plug-In . SVG Version: 6.00 Build 0)  -->
<svg version="1.1" xmlns="http://www.w3.org/2000/svg" xmlns:xlink="http://www.w3.org/1999/xlink" x="0px" y="0px"
	 viewBox="0 0 256 256" style="enable-background:new 0 0 256 256;" xml:space="preserve">
<style type="text/css">
	.st0{fill:#6CADEF;}
	.st1{fill:#F9D0B4;}
	.st2{fill:#5B5D60;}
	.st3{fill:#9BE5F9;}
	.st4{fill:#FC657E;}
	.st5{fill:#70D6F9;}
	.st6{fill:#F5C84C;}
	.st7{fill:#F98FA6;}
	.st8{fill:#FED690;}
	.st9{fill:#87D147;}
	.st10{fill:#B2E26D;}
	.st11{fill:#EDF4FC;}
	.st12{fill:#FCDD86;}
	.st13{fill:#754E34;}
	.st14{fill:#B598F9;}
	.st15{fill:#5290DB;}
	.st16{fill:#C7D7E5;}
	.st17{fill:#C18E6B;}
	.st18{fill:#DAE6F1;}
	.st19{fill:#3CAADC;}
	.st20{fill:#818182;}
	.st21{fill:#CBEFF7;}
	.st22{fill:#FCA265;}
	.st23{fill:#A57453;}
	.st24{fill:#8652D8;}
	.st25{fill:#966AEA;}
	.st26{fill:#FEB872;}
	.st27{fill:#EDB311;}
	.st28{fill:#EF4460;}
</style>
<g id="Layer_1">
</g>
<g id="Layer_2">
</g>
<g id="Layer_3">
</g>
<g id="Layer_4">
</g>
<g id="Layer_5">
</g>
<g id="Layer_6">
</g>
<g id="Layer_7">
</g>
<g id="Layer_8">
</g>
<g id="Layer_9">
</g>
<g id="Layer_10">
</g>
<g id="Layer_11">
</g>
<g id="Layer_12">
</g>
<g id="Layer_13">
</g>
<g id="Layer_14">
</g>
<g id="Layer_15">
</g>
<g id="Layer_16">
</g>
<g id="Layer_17">
</g>
<g id="Layer_18">
</g>
<g id="Layer_19">
</g>
<g id="Layer_20">
</g>
<g id="Layer_21">
</g>
<g id="Layer_22">
</g>
<g id="Layer_23">
</g>
<g id="Layer_24">
</g>
<g id="Layer_25">
</g>
<g id="Layer_26">
</g>
<g id="Layer_27">
</g>
<g id="Layer_28">
</g>
<g id="Layer_29">
</g>
<g id="Layer_30">
</g>
<g id="Layer_31">
</g>
<g id="Layer_32">
</g>
<g id="Layer_33">
</g>
<g id="Layer_34">
</g>
<g id="Layer_35">
</g>
<g id="Layer_36">
</g>
<g id="Layer_37">
</g>
<g id="Layer_38">
</g>
<g id="Layer_39">
</g>
<g id="Layer_40">
</g>
<g id="Layer_41">
</g>
<g id="Layer_42">
</g>
<g id="Layer_43">
</g>
<g id="Layer_44">
	<g>
		<g>
			<g>
				<circle class="st7" cx="223" cy="50" r="8.227"/>
			</g>
		</g>
		<g>
			<g>
				<path class="st4" d="M40.271,17.096c-7.618,0-13.794,6.176-13.794,13.794c0,7.619,6.176,13.794,13.794,13.794
					c7.618,0,13.794-6.176,13.794-13.794C54.065,23.272,47.889,17.096,40.271,17.096z"/>
			</g>
		</g>
		<g>
			<g>
				<path class="st5" d="M231.017,102.667l-98.15-98.151C131.576,3.225,129.826,2.5,128,2.5s-3.576,0.725-4.866,2.016l-98.15,98.151
					c-2.689,2.688-2.689,7.046,0,9.734c2.686,2.688,7.047,2.688,9.733,0L128,19.117l93.284,93.284c2.687,2.689,7.047,2.687,9.733,0
					C233.706,109.713,233.706,105.355,231.017,102.667z"/>
			</g>
		</g>
		<g>
			<g>
				<polygon class="st21" points="128,19.117 40.242,106.875 40.242,253.5 215.758,253.5 215.758,106.875 				"/>
			</g>
		</g>
		<g>
			<g>
				<path class="st0" d="M190.474,207.678c-0.3-5.381-4.063-9.941-9.289-11.256l-16.893-4.252
					c-8.954-2.254-15.995-6.115-15.904-6.071c-3.681-1.815-6.012-5.563-6.012-9.668v-5.078c-4.309,2.256-9.198,3.541-14.375,3.541h0
					c-5.177,0-10.066-1.285-14.375-3.541v5.078c0,4.105-2.331,7.853-6.012,9.668c-4.974,2.453-9.316,4.412-15.904,6.071
					l-16.893,4.252c-5.226,1.316-8.989,5.876-9.289,11.256L62.869,253.5h130.262L190.474,207.678z"/>
			</g>
		</g>
		<g>
			<g>
				<path class="st1" d="M154.745,106.37c-2.04-2.14-5.358-2.337-7.684-0.511c-3.677,2.887-10.04,6.454-19.027,6.454
					c-9.009,0-15.405-3.585-19.098-6.475c-2.324-1.818-5.634-1.615-7.671,0.521l-0.011,0.011c-2.861,3-4.457,6.988-4.457,11.134
					v26.187c0,17.162,14.041,31.203,31.203,31.203h0c17.162,0,31.203-14.041,31.203-31.203v-26.187
					C159.203,113.358,157.607,109.371,154.745,106.37z"/>
			</g>
		</g>
		<g>
			<g>
				<path class="st1" d="M161.205,119.91c-0.682,0-1.349,0.057-2.002,0.159v23.622c0,0.704-0.032,1.4-0.079,2.092
					c0.679,0.109,1.371,0.182,2.081,0.182c7.195,0,13.027-5.833,13.027-13.028S168.4,119.91,161.205,119.91z"/>
			</g>
		</g>
		<g>
			<g>
				<path class="st1" d="M96.797,143.691v-23.622c-0.653-0.101-1.321-0.159-2.002-0.159c-7.195,0-13.027,5.833-13.027,13.027
					s5.833,13.028,13.027,13.028c0.71,0,1.402-0.073,2.081-0.182v0C96.829,145.09,96.797,144.394,96.797,143.691z"/>
			</g>
		</g>
		<g>
			<g>
				<path class="st2" d="M159.086,93.294c-1.045,0-1.951-0.806-1.965-1.851c-0.239-17.387-20.094-20.653-39.867-17.239
					c-16.764,2.895-29.017,17.432-29.017,34.445v13.045c1.928-1.127,4.164-1.784,6.558-1.784c0.682,0,1.349,0.057,2.002,0.159
					v-2.565c0-4.146,1.596-8.133,4.457-11.134l0.011-0.011c2.036-2.135,5.347-2.339,7.671-0.521
					c3.693,2.89,10.09,6.475,19.098,6.475c8.987,0,15.35-3.568,19.027-6.454c2.326-1.825,5.643-1.628,7.684,0.511
					c2.861,3,4.458,6.988,4.458,11.134v2.565c0.653-0.101,1.321-0.159,2.002-0.159c2.423,0,4.683,0.673,6.626,1.826v-10.711
					C167.832,95.456,162.21,93.294,159.086,93.294z"/>
			</g>
		</g>
		<g>
			<g>
				<path class="st3" d="M141.328,145.998c-3.418,0-6.726-1.024-9.527-2.894c-1.133-0.756-2.439-1.211-3.801-1.211
					s-2.668,0.455-3.801,1.211c-2.802,1.869-6.109,2.894-9.527,2.894h-9.658v18.735c5.715,6.235,13.914,10.161,22.986,10.161h0
					c9.073,0,17.271-3.926,22.986-10.161v-18.735H141.328z"/>
			</g>
		</g>
		<g>
			<g>
				<path class="st1" d="M148.387,186.099c-3.681-1.815-6.012-5.563-6.012-9.668v-5.078c-4.309,2.256-9.198,3.541-14.375,3.541h0
					c-5.177,0-10.066-1.285-14.375-3.541v5.078c0,4.104-2.331,7.853-6.012,9.668c-0.53,0.261-1.051,0.515-1.57,0.766
					c3.602,8.593,12.096,14.677,21.957,14.677c9.85,0,18.337-6.071,21.946-14.648C148.932,186.398,148.361,186.086,148.387,186.099z
					"/>
			</g>
		</g>
		<g>
			<g>
				<polygon class="st1" points="63.943,234.988 62.869,253.5 85.508,253.5 85.508,234.988 				"/>
			</g>
		</g>
		<g>
			<g>
				<polygon class="st1" points="192.057,234.988 170.492,234.988 170.492,253.5 193.131,253.5 				"/>
			</g>
		</g>
		<g>
			<g>
				<path d="M222.984,251H33.016c-1.381,0-2.5,1.119-2.5,2.5s1.119,2.5,2.5,2.5h189.969c1.381,0,2.5-1.119,2.5-2.5
					S224.365,251,222.984,251z"/>
			</g>
		</g>
		<g>
			<g>
				<path class="st5" d="M22.206,198.1h-2.4v-2.3c0-1.8-1.4-3.2-3.2-3.2c-1.7,0-3.2,1.4-3.2,3.1v2.4h-2.3c-1.8,0-3.2,1.4-3.2,3.2
					c-0.1,1.7,1.3,3.2,3.2,3.2h2.3v2.3c0,1.8,1.4,3.2,3.2,3.2c1.7,0,3.2-1.4,3.2-3.1v-2.4h2.3c1.8,0,3.2-1.4,3.2-3.2
					C25.306,199.6,23.906,198.1,22.206,198.1z"/>
			</g>
		</g>
		<g>
			<g>
				<path class="st6" d="M22.506,228.5c-1.878,0-3.4,1.522-3.4,3.4c0,1.878,1.522,3.4,3.4,3.4c1.878,0,3.4-1.522,3.4-3.4
					C25.906,230.022,24.384,228.5,22.506,228.5z"/>
			</g>
		</g>
		<g>
			<g>
				<path class="st4" d="M170.506,0c-1.878,0-3.4,1.522-3.4,3.4c0,1.878,1.522,3.4,3.4,3.4c1.878,0,3.4-1.522,3.4-3.4
					C173.906,1.522,172.384,0,170.506,0z"/>
			</g>
		</g>
		<g>
			<g>
				<path class="st9" d="M241.288,201.2c-3.1-0.6-5.6-3-6.2-6.1c0-0.1-0.3-0.1-0.3,0c-0.6,3.1-3.1,5.5-6.2,6.1c-0.1,0-0.1,0.2,0,0.3
					c3.1,0.6,5.6,3,6.2,6.1c0,0.1,0.3,0.1,0.3,0c0.6-3.1,3.1-5.5,6.2-6.1C241.388,201.4,241.388,201.2,241.288,201.2z"/>
			</g>
		</g>
		<g>
			<g>
				<path class="st6" d="M200.288,24.2c-4.5-0.8-8-4.3-8.9-8.7c0-0.2-0.4-0.2-0.4,0c-0.9,4.4-4.4,7.9-8.9,8.7c-0.2,0-0.2,0.3,0,0.4
					c4.5,0.8,8,4.3,8.9,8.7c0,0.2,0.4,0.2,0.4,0c0.9-4.4,4.4-7.9,8.9-8.7C200.488,24.5,200.488,24.2,200.288,24.2z"/>
			</g>
		</g>
		<g>
			<g>
				<path d="M170.492,214.749c-1.381,0-2.5,1.119-2.5,2.5v34.647c0,1.381,1.119,2.5,2.5,2.5s2.5-1.119,2.5-2.5v-34.647
					C172.992,215.868,171.873,214.749,170.492,214.749z"/>
			</g>
		</g>
		<g>
			<g>
				<path d="M85.508,214.749c-1.381,0-2.5,1.119-2.5,2.5v34.647c0,1.381,1.119,2.5,2.5,2.5s2.5-1.119,2.5-2.5v-34.647
					C88.008,215.868,86.889,214.749,85.508,214.749z"/>
			</g>
		</g>
		<g>
			<g>
				<path d="M142.531,130.186c-2.315,0-4.192,1.877-4.192,4.192c0,2.315,1.877,4.192,4.192,4.192c2.315,0,4.192-1.877,4.192-4.192
					C146.723,132.063,144.846,130.186,142.531,130.186z"/>
			</g>
		</g>
		<g>
			<g>
				<path d="M114.377,130.186c-2.315,0-4.192,1.877-4.192,4.192c0,2.315,1.877,4.192,4.192,4.192c2.315,0,4.192-1.877,4.192-4.192
					C118.569,132.063,116.692,130.186,114.377,130.186z"/>
			</g>
		</g>
		<g>
			<g>
				<path d="M107.224,144.99l-8.139-18.471c-0.557-1.265-2.037-1.835-3.296-1.28c-1.264,0.557-1.837,2.032-1.28,3.295l8.139,18.471
					c0.412,0.936,1.329,1.493,2.289,1.493c0.337,0,0.68-0.068,1.007-0.213C107.207,147.729,107.78,146.253,107.224,144.99z"/>
			</g>
		</g>
		<g>
			<g>
				<path d="M160.211,125.239c-1.264-0.557-2.739,0.015-3.296,1.28l-8.139,18.471c-0.557,1.263,0.017,2.739,1.28,3.295
					c0.328,0.145,0.67,0.213,1.007,0.213c0.96,0,1.877-0.557,2.289-1.493l8.139-18.471
					C162.048,127.271,161.475,125.795,160.211,125.239z"/>
			</g>
		</g>
		<g>
			<g>
				<g>
					<path d="M223,39.273c-5.915,0-10.727,4.812-10.727,10.727S217.085,60.727,223,60.727S233.727,55.915,233.727,50
						S228.915,39.273,223,39.273z M223,55.727c-3.157,0-5.727-2.569-5.727-5.727s2.569-5.727,5.727-5.727s5.727,2.569,5.727,5.727
						S226.157,55.727,223,55.727z"/>
				</g>
			</g>
		</g>
		<g>
			<g>
				<path d="M213.396,47.5h-3.362c-1.381,0-2.5,1.119-2.5,2.5s1.119,2.5,2.5,2.5h3.362c1.381,0,2.5-1.119,2.5-2.5
					S214.776,47.5,213.396,47.5z"/>
			</g>
		</g>
		<g>
			<g>
				<path d="M208.353,45.398c-1.381,0-2.5,1.119-2.5,2.5v4.203c0,1.381,1.119,2.5,2.5,2.5s2.5-1.119,2.5-2.5v-4.203
					C210.853,46.518,209.733,45.398,208.353,45.398z"/>
			</g>
		</g>
		<g>
			<g>
				<path d="M235.967,47.5h-3.362c-1.381,0-2.5,1.119-2.5,2.5s1.119,2.5,2.5,2.5h3.362c1.381,0,2.5-1.119,2.5-2.5
					S237.348,47.5,235.967,47.5z"/>
			</g>
		</g>
		<g>
			<g>
				<path d="M237.647,45.398c-1.381,0-2.5,1.119-2.5,2.5v4.203c0,1.381,1.119,2.5,2.5,2.5s2.5-1.119,2.5-2.5v-4.203
					C240.147,46.518,239.028,45.398,237.647,45.398z"/>
			</g>
		</g>
		<g>
			<g>
				<path d="M219.448,56.152c-1.193-0.69-2.724-0.282-3.415,0.915l-1.682,2.912c-0.69,1.195-0.281,2.725,0.915,3.415
					c0.394,0.228,0.823,0.335,1.248,0.335c0.863,0,1.704-0.448,2.167-1.25l1.682-2.912
					C221.054,58.372,220.645,56.843,219.448,56.152z"/>
			</g>
		</g>
		<g>
			<g>
				<path d="M218.746,61.571l-3.64-2.102c-1.194-0.689-2.725-0.281-3.415,0.915c-0.69,1.196-0.28,2.725,0.915,3.415l3.64,2.102
					c0.394,0.228,0.823,0.335,1.248,0.335c0.863,0,1.704-0.449,2.167-1.25C220.352,63.791,219.941,62.262,218.746,61.571z"/>
			</g>
		</g>
		<g>
			<g>
				<path d="M230.733,36.605c-1.193-0.689-2.724-0.282-3.415,0.915l-1.682,2.912c-0.69,1.195-0.281,2.725,0.915,3.415
					c0.394,0.228,0.823,0.335,1.248,0.335c0.863,0,1.704-0.448,2.167-1.25l1.682-2.912C232.339,38.825,231.93,37.296,230.733,36.605
					z"/>
			</g>
		</g>
		<g>
			<g>
				<path d="M233.394,36.2l-3.64-2.102c-1.192-0.689-2.725-0.281-3.415,0.915s-0.28,2.725,0.915,3.415l3.64,2.102
					c0.394,0.228,0.823,0.335,1.248,0.335c0.863,0,1.704-0.449,2.167-1.25C234.999,38.419,234.589,36.891,233.394,36.2z"/>
			</g>
		</g>
		<g>
			<g>
				<path d="M231.648,59.979l-1.682-2.912c-0.691-1.197-2.222-1.604-3.415-0.915c-1.196,0.69-1.605,2.22-0.915,3.415l1.682,2.912
					c0.463,0.802,1.304,1.25,2.167,1.25c0.425,0,0.854-0.108,1.248-0.335C231.93,62.704,232.339,61.175,231.648,59.979z"/>
			</g>
		</g>
		<g>
			<g>
				<path d="M234.309,60.385c-0.69-1.197-2.223-1.604-3.415-0.915l-3.64,2.102c-1.195,0.69-1.605,2.219-0.915,3.415
					c0.463,0.802,1.304,1.25,2.167,1.25c0.425,0,0.854-0.108,1.248-0.335l3.64-2.102C234.589,63.109,234.999,61.581,234.309,60.385z
					"/>
			</g>
		</g>
		<g>
			<g>
				<path d="M220.363,40.433l-1.682-2.912c-0.69-1.197-2.221-1.603-3.415-0.915c-1.196,0.69-1.605,2.22-0.915,3.415l1.682,2.912
					c0.463,0.802,1.304,1.25,2.167,1.25c0.425,0,0.854-0.108,1.248-0.335C220.645,43.157,221.054,41.628,220.363,40.433z"/>
			</g>
		</g>
		<g>
			<g>
				<path d="M219.661,35.014c-0.69-1.197-2.222-1.604-3.415-0.915l-3.64,2.102c-1.195,0.69-1.605,2.219-0.915,3.415
					c0.463,0.802,1.304,1.25,2.167,1.25c0.425,0,0.854-0.108,1.248-0.335l3.64-2.102C219.941,37.738,220.352,36.209,219.661,35.014z
					"/>
			</g>
		</g>
		<g>
			<g>
				<g>
					<path d="M40.271,14.596c-8.984,0-16.294,7.31-16.294,16.294s7.31,16.294,16.294,16.294c8.985,0,16.295-7.31,16.295-16.294
						S49.256,14.596,40.271,14.596z M40.271,42.185c-6.228,0-11.294-5.067-11.294-11.294s5.066-11.294,11.294-11.294
						c6.229,0,11.295,5.067,11.295,11.294S46.499,42.185,40.271,42.185z"/>
				</g>
			</g>
		</g>
		<g>
			<g>
				<path d="M24.167,28.39h-5.639c-1.381,0-2.5,1.119-2.5,2.5s1.119,2.5,2.5,2.5h5.639c1.381,0,2.5-1.119,2.5-2.5
					S25.548,28.39,24.167,28.39z"/>
			</g>
		</g>
		<g>
			<g>
				<path d="M15.71,24.867c-1.381,0-2.5,1.119-2.5,2.5v7.047c0,1.381,1.119,2.5,2.5,2.5s2.5-1.119,2.5-2.5v-7.047
					C18.21,25.986,17.091,24.867,15.71,24.867z"/>
			</g>
		</g>
		<g>
			<g>
				<path d="M62.013,28.39h-5.638c-1.381,0-2.5,1.119-2.5,2.5s1.119,2.5,2.5,2.5h5.638c1.381,0,2.5-1.119,2.5-2.5
					S63.394,28.39,62.013,28.39z"/>
			</g>
		</g>
		<g>
			<g>
				<path d="M64.832,24.867c-1.381,0-2.5,1.119-2.5,2.5v7.047c0,1.381,1.119,2.5,2.5,2.5s2.5-1.119,2.5-2.5v-7.047
					C67.332,25.986,66.213,24.867,64.832,24.867z"/>
			</g>
		</g>
		<g>
			<g>
				<path d="M33.469,42.672c-1.192-0.69-2.725-0.282-3.415,0.915l-2.819,4.883c-0.69,1.196-0.28,2.725,0.915,3.415
					c0.394,0.228,0.823,0.335,1.248,0.335c0.863,0,1.704-0.448,2.167-1.25l2.819-4.883C35.074,44.891,34.664,43.362,33.469,42.672z"
					/>
			</g>
		</g>
		<g>
			<g>
				<path d="M32.292,51.758l-6.104-3.524c-1.193-0.689-2.725-0.282-3.415,0.915c-0.69,1.196-0.28,2.725,0.915,3.415l6.104,3.524
					c0.394,0.228,0.823,0.335,1.248,0.335c0.863,0,1.704-0.448,2.167-1.25C33.897,53.977,33.487,52.448,32.292,51.758z"/>
			</g>
		</g>
		<g>
			<g>
				<path d="M52.392,9.896c-1.194-0.689-2.725-0.282-3.415,0.915l-2.819,4.883c-0.69,1.196-0.28,2.725,0.915,3.415
					c0.394,0.228,0.823,0.335,1.248,0.335c0.863,0,1.704-0.448,2.167-1.25l2.819-4.883C53.997,12.115,53.587,10.586,52.392,9.896z"
					/>
			</g>
		</g>
		<g>
			<g>
				<path d="M56.853,9.217L50.75,5.693c-1.193-0.689-2.725-0.282-3.415,0.915c-0.69,1.195-0.281,2.725,0.915,3.415l6.103,3.524
					c0.394,0.228,0.823,0.335,1.248,0.335c0.863,0,1.704-0.448,2.167-1.25C58.458,11.437,58.049,9.907,56.853,9.217z"/>
			</g>
		</g>
		<g>
			<g>
				<path d="M53.307,48.47l-2.819-4.883c-0.691-1.197-2.222-1.604-3.415-0.915c-1.195,0.69-1.605,2.219-0.915,3.415l2.819,4.883
					c0.463,0.802,1.304,1.25,2.167,1.25c0.425,0,0.854-0.108,1.248-0.335C53.587,51.194,53.997,49.666,53.307,48.47z"/>
			</g>
		</g>
		<g>
			<g>
				<path d="M57.768,49.149c-0.69-1.197-2.222-1.603-3.415-0.915l-6.103,3.524c-1.196,0.69-1.605,2.22-0.915,3.415
					c0.463,0.802,1.304,1.25,2.167,1.25c0.425,0,0.854-0.108,1.248-0.335l6.103-3.524C58.049,51.874,58.458,50.344,57.768,49.149z"
					/>
			</g>
		</g>
		<g>
			<g>
				<path d="M34.384,15.694l-2.819-4.883c-0.69-1.197-2.222-1.603-3.415-0.915c-1.195,0.69-1.605,2.219-0.915,3.415l2.819,4.883
					c0.463,0.802,1.304,1.25,2.167,1.25c0.425,0,0.854-0.108,1.248-0.335C34.664,18.418,35.074,16.89,34.384,15.694z"/>
			</g>
		</g>
		<g>
			<g>
				<path d="M33.207,6.608c-0.69-1.197-2.222-1.604-3.415-0.915l-6.104,3.524c-1.195,0.69-1.605,2.219-0.915,3.415
					c0.463,0.802,1.304,1.25,2.167,1.25c0.425,0,0.854-0.108,1.248-0.335l6.104-3.524C33.487,9.333,33.897,7.804,33.207,6.608z"/>
			</g>
		</g>
		<g>
			<g>
				<g>
					<g>
						<path d="M232.784,100.899L134.635,2.749C132.862,0.976,130.507,0,128,0s-4.862,0.976-6.634,2.749l-98.15,98.15
							c-1.772,1.772-2.749,4.129-2.749,6.635c0,2.506,0.977,4.863,2.748,6.635c1.772,1.772,4.128,2.748,6.635,2.748
							s4.862-0.976,6.634-2.748L128,22.653l91.516,91.515c1.771,1.773,4.128,2.749,6.636,2.749c2.507,0,4.862-0.977,6.633-2.748
							c1.772-1.772,2.749-4.129,2.749-6.635C235.533,105.028,234.557,102.671,232.784,100.899z M229.248,110.634
							c-0.826,0.827-1.927,1.283-3.098,1.283c-1.171,0-2.271-0.456-3.098-1.283l-0.001,0L129.768,17.35
							c-0.488-0.488-1.128-0.732-1.768-0.732s-1.279,0.244-1.768,0.732l-93.285,93.284c-0.826,0.828-1.927,1.283-3.098,1.283
							s-2.271-0.456-3.099-1.284c-0.828-0.828-1.284-1.928-1.284-3.099c0-1.17,0.456-2.271,1.284-3.099l98.151-98.151
							C125.729,5.456,126.829,5,128,5s2.271,0.456,3.099,1.284l98.15,98.151c0.828,0.828,1.284,1.928,1.284,3.099
							C230.533,108.705,230.077,109.805,229.248,110.634z"/>
					</g>
				</g>
			</g>
		</g>
		<g>
			<g>
				<g>
					<path d="M217.525,105.107L129.768,17.35c-0.977-0.977-2.559-0.977-3.535,0l-87.758,87.757
						c-0.469,0.469-0.732,1.104-0.732,1.768V253.5c0,1.381,1.119,2.5,2.5,2.5h175.516c1.381,0,2.5-1.119,2.5-2.5V106.875
						C218.258,106.211,217.994,105.576,217.525,105.107z M213.258,251H42.742V107.91L128,22.653l85.258,85.257V251z"/>
				</g>
			</g>
		</g>
		<g>
			<g>
				<g>
					<path d="M192.97,207.539c-0.362-6.508-4.854-11.95-11.175-13.542l-16.894-4.252c-8.326-2.096-14.939-5.636-15.275-5.817
						c-0.043-0.025-0.088-0.049-0.133-0.071c-2.849-1.404-4.618-4.25-4.618-7.426v-5.078c0-0.875-0.457-1.686-1.205-2.139
						c-0.749-0.454-1.681-0.482-2.454-0.076c-4.127,2.16-8.573,3.255-13.216,3.255c-4.642,0-9.088-1.095-13.216-3.255
						c-0.774-0.406-1.705-0.376-2.454,0.076c-0.748,0.453-1.205,1.264-1.205,2.139v5.078c0,3.176-1.77,6.021-4.618,7.426
						c-4.555,2.246-8.857,4.239-15.409,5.888l-16.893,4.252c-6.321,1.592-10.813,7.034-11.175,13.536l-2.657,45.822
						c-0.039,0.687,0.206,1.36,0.678,1.86c0.473,0.5,1.13,0.784,1.818,0.784h130.262c0.688,0,1.346-0.284,1.818-0.784
						c0.472-0.5,0.717-1.173,0.678-1.86L192.97,207.539z M65.519,251l2.504-43.183c0.24-4.312,3.216-7.917,7.403-8.971l16.893-4.252
						c7.027-1.769,11.585-3.878,16.399-6.252c4.569-2.252,7.407-6.816,7.407-11.91v-1.221c7.578,2.87,16.174,2.871,23.75,0v1.22
						c0,5.036,2.773,9.553,7.25,11.832c0.814,0.515,2.256,1.192,4.888,2.329c2.696,1.164,6.908,2.804,11.668,4.002l16.894,4.252
						c4.188,1.055,7.163,4.66,7.403,8.977L190.481,251H65.519z"/>
				</g>
			</g>
		</g>
		<g>
			<g>
				<g>
					<path d="M156.555,104.645c-2.928-3.069-7.671-3.394-11.037-0.752c-3.44,2.701-9.267,5.921-17.483,5.921
						c-8.234,0-14.093-3.232-17.558-5.945c-3.359-2.629-8.098-2.3-11.031,0.776c-3.32,3.481-5.148,8.048-5.148,12.859v26.187
						c0,18.583,15.119,33.703,33.703,33.703s33.703-15.119,33.703-33.703v-26.187C161.703,112.693,159.875,108.126,156.555,104.645z
						 M156.703,143.691c0,15.827-12.876,28.703-28.703,28.703s-28.703-12.876-28.703-28.703v-26.187c0-3.52,1.338-6.861,3.778-9.42
						c0.62-0.65,1.452-0.982,2.297-0.982c0.706,0,1.42,0.232,2.023,0.705c4.084,3.196,10.979,7.007,20.639,7.007
						c9.646,0,16.511-3.8,20.57-6.988c1.33-1.042,3.191-0.926,4.331,0.27c2.43,2.548,3.768,5.889,3.768,9.409V143.691z"/>
				</g>
			</g>
		</g>
		<g>
			<g>
				<g>
					<path d="M161.205,117.41c-0.775,0-1.577,0.063-2.384,0.188c-1.219,0.188-2.118,1.238-2.118,2.471v23.622
						c0,0.573-0.023,1.184-0.073,1.923c-0.088,1.289,0.821,2.432,2.097,2.637c0.893,0.144,1.703,0.213,2.479,0.213
						c8.562,0,15.527-6.965,15.527-15.527S169.767,117.41,161.205,117.41z M161.703,143.453v-21.031
						c5.574,0.261,10.029,4.878,10.029,10.516S167.277,143.192,161.703,143.453z"/>
				</g>
			</g>
		</g>
		<g>
			<g>
				<g>
					<path d="M99.297,143.691v-23.622c0-1.233-0.899-2.282-2.118-2.471c-0.807-0.125-1.608-0.188-2.384-0.188
						c-8.562,0-15.527,6.965-15.527,15.527s6.966,15.527,15.527,15.527c0.777,0,1.589-0.07,2.479-0.214
						c1.275-0.206,2.183-1.349,2.096-2.637C99.32,144.874,99.297,144.263,99.297,143.691z M94.297,143.453
						c-5.574-0.261-10.029-4.878-10.029-10.516s4.455-10.255,10.029-10.516V143.453z"/>
				</g>
			</g>
		</g>
		<g>
			<g>
				<g>
					<path d="M159.605,90.808c-0.219-5.816-2.441-10.519-6.613-13.983c-9.828-8.161-26.877-6.688-36.164-5.084
						c-18.015,3.111-31.091,18.633-31.091,36.908v13.045c0,0.896,0.479,1.723,1.256,2.168c0.777,0.446,1.732,0.442,2.506-0.01
						c1.613-0.943,3.445-1.442,5.296-1.442c0.527,0,1.058,0.042,1.62,0.129c0.719,0.11,1.455-0.098,2.009-0.573
						c0.554-0.475,0.873-1.168,0.873-1.898v-2.565c0-3.52,1.338-6.861,3.778-9.42c1.138-1.194,2.995-1.314,4.32-0.277
						c4.084,3.196,10.979,7.007,20.639,7.007c9.646,0,16.511-3.8,20.57-6.988c1.33-1.042,3.191-0.926,4.331,0.27
						c2.43,2.548,3.768,5.889,3.768,9.409v2.565c0,0.73,0.319,1.423,0.873,1.898c0.554,0.475,1.286,0.683,2.01,0.572
						c0.554-0.086,1.098-0.129,1.619-0.129c1.873,0,3.724,0.51,5.352,1.476c0.394,0.233,0.834,0.35,1.275,0.35
						c0.427,0,0.854-0.109,1.237-0.328c0.78-0.445,1.263-1.274,1.263-2.172v-10.711C170.332,94.129,163.841,91.029,159.605,90.808z
						 M165.332,117.975c-1.182-0.329-2.4-0.516-3.629-0.556c-0.021-4.779-1.849-9.313-5.148-12.773
						c-2.928-3.069-7.671-3.394-11.037-0.752c-3.44,2.701-9.267,5.921-17.483,5.921c-8.234,0-14.093-3.232-17.558-5.945
						c-3.359-2.629-8.098-2.3-11.031,0.776c-3.3,3.461-5.127,7.994-5.148,12.773c-1.205,0.039-2.399,0.22-3.56,0.537v-9.306
						c0-15.835,11.331-29.286,26.942-31.981c14.359-2.479,26.068-1.021,32.118,4.004c3.182,2.643,4.76,6.177,4.823,10.807
						c0.033,2.38,2.036,4.316,4.465,4.316c3.97,0,6.246,5.551,6.246,15.231V117.975z"/>
				</g>
			</g>
		</g>
		<g>
			<g>
				<g>
					<path d="M150.986,143.498h-9.658c-2.899,0-5.715-0.855-8.14-2.473c-3.199-2.135-7.178-2.135-10.377,0
						c-2.425,1.618-5.24,2.473-8.14,2.473h-9.658c-1.381,0-2.5,1.119-2.5,2.5v18.735c0,0.625,0.234,1.228,0.657,1.689
						c6.391,6.973,15.441,10.972,24.829,10.972s18.438-3.999,24.829-10.972c0.423-0.461,0.657-1.064,0.657-1.689v-18.735
						C153.486,144.617,152.367,143.498,150.986,143.498z M148.486,163.737c-5.4,5.513-12.813,8.657-20.486,8.657
						s-15.086-3.144-20.486-8.657v-15.239h7.158c3.891,0,7.665-1.146,10.915-3.314c1.551-1.035,3.275-1.035,4.826,0
						c3.25,2.168,7.024,3.314,10.915,3.314h7.158V163.737z"/>
				</g>
			</g>
		</g>
		<g>
			<g>
				<g>
					<path d="M151.044,184.646c-0.793-0.387-1.295-0.652-1.42-0.72c-0.043-0.024-0.087-0.048-0.131-0.069
						c-2.849-1.404-4.618-4.25-4.618-7.426v-5.078c0-0.875-0.457-1.686-1.205-2.139c-0.749-0.454-1.681-0.482-2.454-0.076
						c-4.127,2.16-8.573,3.255-13.216,3.255c-4.642,0-9.088-1.095-13.216-3.255c-0.774-0.406-1.705-0.376-2.454,0.076
						c-0.748,0.453-1.205,1.264-1.205,2.139v5.078c0,3.176-1.77,6.021-4.618,7.426l-0.001,0c-0.522,0.258-1.037,0.509-1.549,0.755
						c-1.197,0.578-1.733,1.992-1.22,3.218c4.127,9.848,13.651,16.21,24.263,16.21c10.597,0,20.115-6.351,24.251-16.179
						C152.765,186.64,152.235,185.229,151.044,184.646z M128,199.042c-7.812,0-14.897-4.265-18.635-11.041
						c4.188-2.352,6.76-6.72,6.76-11.569v-1.221c7.578,2.87,16.174,2.871,23.75,0v1.22c0,4.849,2.572,9.218,6.761,11.57
						C142.896,194.775,135.809,199.042,128,199.042z"/>
				</g>
			</g>
		</g>
		<g>
			<g>
				<g>
					<path d="M85.508,232.488H63.942c-1.324,0-2.419,1.033-2.496,2.355l-1.073,18.512c-0.039,0.687,0.206,1.36,0.678,1.86
						c0.473,0.5,1.13,0.784,1.818,0.784h22.639c1.381,0,2.5-1.119,2.5-2.5v-18.512C88.008,233.607,86.889,232.488,85.508,232.488z
						 M83.008,251H65.519l0.783-13.512h16.706V251z"/>
				</g>
			</g>
		</g>
		<g>
			<g>
				<g>
					<path d="M194.554,234.844c-0.077-1.322-1.172-2.355-2.496-2.355h-21.565c-1.381,0-2.5,1.119-2.5,2.5V253.5
						c0,1.381,1.119,2.5,2.5,2.5h22.639c0.688,0,1.346-0.284,1.818-0.784c0.472-0.5,0.717-1.173,0.678-1.86L194.554,234.844z
						 M172.992,251v-13.512h16.706L190.481,251H172.992z"/>
				</g>
			</g>
		</g>
	</g>
</g>
<g id="Layer_45">
</g>
<g id="Layer_46">
</g>
<g id="Layer_47">
</g>
<g id="Layer_48">
</g>
<g id="Layer_49">
</g>
<g id="Layer_50">
</g>
<g id="Layer_51">
</g>
<g id="Layer_52">
</g>
<g id="Layer_53">
</g>
<g id="Layer_54">
</g>
<g id="Layer_55">
</g>
<g id="Layer_56">
</g>
<g id="Layer_57">
</g>
<g id="Layer_58">
</g>
<g id="Layer_59">
</g>
<g id="Layer_60">
</g>
<g id="Layer_61">
</g>
<g id="Layer_62">
</g>
<g id="Layer_63">
</g>
<g id="Layer_64">
</g>
<g id="Layer_65">
</g>
<g id="Layer_66">
</g>
<g id="Layer_67">
</g>
<g id="Layer_68">
</g>
<g id="Layer_69">
</g>
<g id="Layer_70">
</g>
<g id="Layer_71">
</g>
<g id="Layer_72">
</g>
<g id="Layer_73">
</g>
<g id="Layer_74">
</g>
<g id="Layer_75">
</g>
<g id="Layer_76">
</g>
<g id="Layer_77">
</g>
<g id="Layer_78">
</g>
<g id="Layer_79">
</g>
<g id="Layer_80">
</g>
</svg>
