<?xml version="1.0" encoding="utf-8"?>
<!-- Generator: Adobe Illustrator 24.0.0, SVG Export Plug-In . SVG Version: 6.00 Build 0)  -->
<svg version="1.1" xmlns="http://www.w3.org/2000/svg" xmlns:xlink="http://www.w3.org/1999/xlink" x="0px" y="0px"
	 viewBox="0 0 256 256" style="enable-background:new 0 0 256 256;" xml:space="preserve">
<style type="text/css">
	.st0{fill:#6CADEF;}
	.st1{fill:#F9D0B4;}
	.st2{fill:#5B5D60;}
	.st3{fill:#9BE5F9;}
	.st4{fill:#FC657E;}
	.st5{fill:#70D6F9;}
	.st6{fill:#F5C84C;}
	.st7{fill:#F98FA6;}
	.st8{fill:#FED690;}
	.st9{fill:#87D147;}
	.st10{fill:#B2E26D;}
	.st11{fill:#EDF4FC;}
	.st12{fill:#FCDD86;}
	.st13{fill:#754E34;}
	.st14{fill:#B598F9;}
	.st15{fill:#5290DB;}
	.st16{fill:#C7D7E5;}
	.st17{fill:#C18E6B;}
	.st18{fill:#DAE6F1;}
	.st19{fill:#3CAADC;}
	.st20{fill:#818182;}
	.st21{fill:#CBEFF7;}
	.st22{fill:#FCA265;}
	.st23{fill:#A57453;}
	.st24{fill:#8652D8;}
	.st25{fill:#966AEA;}
	.st26{fill:#FEB872;}
	.st27{fill:#EDB311;}
	.st28{fill:#EF4460;}
</style>
<g id="Layer_1">
</g>
<g id="Layer_2">
</g>
<g id="Layer_3">
</g>
<g id="Layer_4">
</g>
<g id="Layer_5">
</g>
<g id="Layer_6">
</g>
<g id="Layer_7">
</g>
<g id="Layer_8">
</g>
<g id="Layer_9">
</g>
<g id="Layer_10">
</g>
<g id="Layer_11">
</g>
<g id="Layer_12">
</g>
<g id="Layer_13">
</g>
<g id="Layer_14">
</g>
<g id="Layer_15">
</g>
<g id="Layer_16">
</g>
<g id="Layer_17">
</g>
<g id="Layer_18">
</g>
<g id="Layer_19">
</g>
<g id="Layer_20">
</g>
<g id="Layer_21">
</g>
<g id="Layer_22">
</g>
<g id="Layer_23">
</g>
<g id="Layer_24">
</g>
<g id="Layer_25">
</g>
<g id="Layer_26">
</g>
<g id="Layer_27">
</g>
<g id="Layer_28">
</g>
<g id="Layer_29">
</g>
<g id="Layer_30">
</g>
<g id="Layer_31">
</g>
<g id="Layer_32">
</g>
<g id="Layer_33">
</g>
<g id="Layer_34">
</g>
<g id="Layer_35">
</g>
<g id="Layer_36">
</g>
<g id="Layer_37">
</g>
<g id="Layer_38">
</g>
<g id="Layer_39">
</g>
<g id="Layer_40">
</g>
<g id="Layer_41">
</g>
<g id="Layer_42">
</g>
<g id="Layer_43">
</g>
<g id="Layer_44">
</g>
<g id="Layer_45">
</g>
<g id="Layer_46">
</g>
<g id="Layer_47">
</g>
<g id="Layer_48">
</g>
<g id="Layer_49">
</g>
<g id="Layer_50">
</g>
<g id="Layer_51">
</g>
<g id="Layer_52">
</g>
<g id="Layer_53">
</g>
<g id="Layer_54">
</g>
<g id="Layer_55">
</g>
<g id="Layer_56">
</g>
<g id="Layer_57">
</g>
<g id="Layer_58">
</g>
<g id="Layer_59">
</g>
<g id="Layer_60">
</g>
<g id="Layer_61">
</g>
<g id="Layer_62">
</g>
<g id="Layer_63">
</g>
<g id="Layer_64">
</g>
<g id="Layer_65">
</g>
<g id="Layer_66">
</g>
<g id="Layer_67">
</g>
<g id="Layer_68">
</g>
<g id="Layer_69">
</g>
<g id="Layer_70">
</g>
<g id="Layer_71">
</g>
<g id="Layer_72">
</g>
<g id="Layer_73">
</g>
<g id="Layer_74">
</g>
<g id="Layer_75">
</g>
<g id="Layer_76">
	<g>
		<g>
			<g>
				<path class="st3" d="M220.657,33H35.343C32.944,33,31,34.944,31,37.343v100.525h66V128.5c0-6.6,5.4-12,12-12h38
					c6.6,0,12,5.4,12,12v9.368h66V37.343C225,34.944,223.056,33,220.657,33z"/>
			</g>
		</g>
		<g>
			<g>
				<path class="st11" d="M51.883,121.913h-6.104c-1.641,0-2.97,1.33-2.97,2.971v12.984h12.045v-12.984
					C54.854,123.243,53.524,121.913,51.883,121.913z"/>
			</g>
		</g>
		<g>
			<g>
				<path class="st11" d="M210.221,121.913h-6.104c-1.641,0-2.971,1.33-2.971,2.971v12.984h12.045v-12.984
					C213.191,123.243,211.861,121.913,210.221,121.913z"/>
			</g>
		</g>
		<g>
			<g>
				<path class="st20" d="M233.602,137.868H22.398c-1.641,0-2.971,1.33-2.971,2.971v6.104c0,1.641,1.33,2.97,2.971,2.97h211.205
					c1.641,0,2.97-1.33,2.97-2.97v-6.104C236.573,139.198,235.243,137.868,233.602,137.868z"/>
			</g>
		</g>
		<g>
			<g>
				<rect x="37.354" y="149.913" class="st2" width="181.293" height="90.097"/>
			</g>
		</g>
		<g>
			<g>
				<path class="st20" d="M218.646,149.913V250.53c0,1.64,1.33,2.97,2.971,2.97h6.104c1.641,0,2.97-1.33,2.97-2.97V149.913H218.646z
					"/>
			</g>
		</g>
		<g>
			<g>
				<polygon class="st21" points="196.479,33 179.445,33 225,78.555 225,61.521 				"/>
			</g>
		</g>
		<g>
			<g>
				<polygon class="st21" points="162.479,33 133,33 225,125 225,95.521 				"/>
			</g>
		</g>
		<g>
			<g>
				<path class="st20" d="M25.309,149.913V250.53c0,1.64,1.33,2.97,2.97,2.97h6.104c1.641,0,2.971-1.33,2.971-2.97V149.913H25.309z"
					/>
			</g>
		</g>
		<g>
			<g>
				<g>
					<path d="M233.603,135.368H22.397c-3.016,0-5.47,2.454-5.47,5.471v6.104c0,3.017,2.454,5.471,5.47,5.471h211.205
						c3.016,0,5.47-2.454,5.47-5.471v-6.104C239.073,137.822,236.619,135.368,233.603,135.368z M234.073,146.942
						c0,0.26-0.211,0.471-0.47,0.471H22.397c-0.259,0-0.47-0.211-0.47-0.471v-6.104c0-0.26,0.211-0.471,0.47-0.471h211.205
						c0.259,0,0.47,0.211,0.47,0.471V146.942z"/>
				</g>
			</g>
		</g>
		<g>
			<g>
				<g>
					<path d="M218.646,147.413H37.354c-1.381,0-2.5,1.119-2.5,2.5v90.097c0,1.381,1.119,2.5,2.5,2.5h181.293
						c1.381,0,2.5-1.119,2.5-2.5v-90.097C221.146,148.532,220.027,147.413,218.646,147.413z M216.146,237.51H39.854v-85.097h176.293
						V237.51z"/>
				</g>
			</g>
		</g>
		<g>
			<g>
				<g>
					<g>
						<path d="M230.691,147.413h-12.045c-1.381,0-2.5,1.119-2.5,2.5v100.616c0,3.017,2.454,5.471,5.47,5.471h6.104
							c3.017,0,5.471-2.454,5.471-5.471V149.913C233.191,148.532,232.072,147.413,230.691,147.413z M228.191,250.529
							c0,0.26-0.211,0.471-0.471,0.471h-6.104c-0.259,0-0.47-0.211-0.47-0.471v-98.116h7.045V250.529z"/>
					</g>
				</g>
			</g>
		</g>
		<g>
			<g>
				<g>
					<g>
						<path d="M37.354,147.413H25.309c-1.381,0-2.5,1.119-2.5,2.5v100.616c0,3.017,2.454,5.471,5.471,5.471h6.104
							c3.016,0,5.47-2.454,5.47-5.471V149.913C39.854,148.532,38.734,147.413,37.354,147.413z M34.854,250.529
							c0,0.26-0.211,0.471-0.47,0.471h-6.104c-0.26,0-0.471-0.211-0.471-0.471v-98.116h7.045V250.529z"/>
					</g>
				</g>
			</g>
		</g>
		<g>
			<g>
				<g>
					<path d="M220.657,30.5H35.343c-3.773,0-6.843,3.07-6.843,6.844v100.524c0,1.381,1.119,2.5,2.5,2.5h66
						c1.381,0,2.5-1.119,2.5-2.5V128.5c0-5.238,4.262-9.5,9.5-9.5h38c5.238,0,9.5,4.262,9.5,9.5v9.368c0,1.381,1.119,2.5,2.5,2.5h66
						c1.381,0,2.5-1.119,2.5-2.5V37.344C227.5,33.57,224.43,30.5,220.657,30.5z M222.5,135.368h-61V128.5
						c0-7.995-6.505-14.5-14.5-14.5h-38c-7.995,0-14.5,6.505-14.5,14.5v6.868h-61V37.344c0-1.017,0.827-1.844,1.843-1.844h185.313
						c1.017,0,1.843,0.827,1.843,1.844V135.368z"/>
				</g>
			</g>
		</g>
		<g>
			<g>
				<path class="st5" d="M122.532,8.85c-4.5-0.8-8-4.3-8.9-8.7c0-0.2-0.4-0.2-0.4,0c-0.9,4.4-4.4,7.9-8.9,8.7c-0.2,0-0.2,0.3,0,0.4
					c4.5,0.8,8,4.3,8.9,8.7c0,0.2,0.4,0.2,0.4,0c0.9-4.4,4.4-7.9,8.9-8.7C122.732,9.15,122.732,8.85,122.532,8.85z"/>
			</g>
		</g>
		<g>
			<g>
				<path class="st6" d="M14.295,121.894c-3.505-0.623-6.232-3.35-6.933-6.777c0-0.156-0.312-0.156-0.312,0
					c-0.701,3.428-3.428,6.154-6.933,6.777c-0.156,0-0.156,0.234,0,0.312c3.505,0.623,6.232,3.35,6.933,6.777
					c0,0.155,0.312,0.155,0.312,0c0.701-3.428,3.428-6.154,6.933-6.777C14.451,122.128,14.451,121.894,14.295,121.894z"/>
			</g>
		</g>
		<g>
			<g>
				<path class="st4" d="M252.8,213.5h-2.3v-2.3c0-1.7-1.4-3.2-3.2-3.2s-3.2,1.4-3.2,3.2v2.3h-2.3c-1.7,0-3.2,1.4-3.2,3.2
					c0,1.8,1.4,3.2,3.2,3.2h2.3v2.3c0,1.7,1.4,3.2,3.2,3.2s3.2-1.4,3.2-3.2v-2.3h2.3c1.7,0,3.2-1.4,3.2-3.2
					C256,214.9,254.6,213.5,252.8,213.5z"/>
			</g>
		</g>
		<g>
			<g>
				<path class="st9" d="M86.332,17c-1.878,0-3.4,1.522-3.4,3.4c0,1.878,1.522,3.4,3.4,3.4c1.878,0,3.4-1.522,3.4-3.4
					C89.732,18.522,88.21,17,86.332,17z"/>
			</g>
		</g>
		<g>
			<g>
				<path class="st6" d="M247.282,181c-1.878,0-3.4,1.522-3.4,3.4c0,1.878,1.522,3.4,3.4,3.4c1.878,0,3.4-1.522,3.4-3.4
					C250.682,182.522,249.16,181,247.282,181z"/>
			</g>
		</g>
		<g>
			<g>
				<g>
					<path d="M51.883,119.413h-6.104c-3.017,0-5.471,2.454-5.471,5.471v12.984c0,1.381,1.119,2.5,2.5,2.5h12.045
						c1.381,0,2.5-1.119,2.5-2.5v-12.984C57.354,121.867,54.899,119.413,51.883,119.413z M52.354,135.368h-7.045v-10.484
						c0-0.26,0.211-0.471,0.471-0.471h6.104c0.259,0,0.47,0.211,0.47,0.471V135.368z"/>
				</g>
			</g>
		</g>
		<g>
			<g>
				<g>
					<path d="M210.221,119.413h-6.104c-3.016,0-5.47,2.454-5.47,5.471v12.984c0,1.381,1.119,2.5,2.5,2.5h12.045
						c1.381,0,2.5-1.119,2.5-2.5v-12.984C215.691,121.867,213.237,119.413,210.221,119.413z M210.691,135.368h-7.045v-10.484
						c0-0.26,0.211-0.471,0.47-0.471h6.104c0.26,0,0.471,0.211,0.471,0.471V135.368z"/>
				</g>
			</g>
		</g>
	</g>
</g>
<g id="Layer_77">
</g>
<g id="Layer_78">
</g>
<g id="Layer_79">
</g>
<g id="Layer_80">
</g>
</svg>
