<?xml version="1.0" encoding="utf-8"?>
<!-- Generator: Adobe Illustrator 24.0.0, SVG Export Plug-In . SVG Version: 6.00 Build 0)  -->
<svg version="1.1" xmlns="http://www.w3.org/2000/svg" xmlns:xlink="http://www.w3.org/1999/xlink" x="0px" y="0px"
	 viewBox="0 0 256 256" style="enable-background:new 0 0 256 256;" xml:space="preserve">
<style type="text/css">
	.st0{fill:#6CADEF;}
	.st1{fill:#F9D0B4;}
	.st2{fill:#5B5D60;}
	.st3{fill:#9BE5F9;}
	.st4{fill:#FC657E;}
	.st5{fill:#70D6F9;}
	.st6{fill:#F5C84C;}
	.st7{fill:#F98FA6;}
	.st8{fill:#FED690;}
	.st9{fill:#87D147;}
	.st10{fill:#B2E26D;}
	.st11{fill:#EDF4FC;}
	.st12{fill:#FCDD86;}
	.st13{fill:#754E34;}
	.st14{fill:#B598F9;}
	.st15{fill:#5290DB;}
	.st16{fill:#C7D7E5;}
	.st17{fill:#C18E6B;}
	.st18{fill:#DAE6F1;}
	.st19{fill:#3CAADC;}
	.st20{fill:#818182;}
	.st21{fill:#CBEFF7;}
	.st22{fill:#FCA265;}
	.st23{fill:#A57453;}
	.st24{fill:#8652D8;}
	.st25{fill:#966AEA;}
	.st26{fill:#FEB872;}
	.st27{fill:#EDB311;}
	.st28{fill:#EF4460;}
</style>
<g id="Layer_1">
</g>
<g id="Layer_2">
</g>
<g id="Layer_3">
</g>
<g id="Layer_4">
</g>
<g id="Layer_5">
</g>
<g id="Layer_6">
</g>
<g id="Layer_7">
</g>
<g id="Layer_8">
	<g>
		<g>
			<g>
				<path class="st1" d="M108.128,66.109c-2.326-2.439-6.107-2.663-8.757-0.583c-4.191,3.29-11.444,7.356-21.687,7.356
					c-10.268,0-17.559-4.086-21.768-7.38c-2.649-2.073-6.422-1.84-8.743,0.594l-0.012,0.013c-3.261,3.42-5.081,7.964-5.081,12.69
					v29.847c0,19.56,16.004,35.564,35.564,35.564h0c19.56,0,35.564-16.004,35.564-35.564V78.799
					C113.208,74.074,111.389,69.529,108.128,66.109z"/>
			</g>
		</g>
		<g>
			<g>
				<path class="st1" d="M42.08,108.647V81.723c-0.744-0.116-1.505-0.181-2.282-0.181c-8.201,0-14.848,6.648-14.848,14.848
					c0,8.201,6.648,14.848,14.848,14.848c0.809,0,1.598-0.082,2.372-0.207v-0.001C42.116,110.242,42.08,109.448,42.08,108.647z"/>
			</g>
		</g>
		<g>
			<g>
				<path class="st0" d="M148.85,181.577c-0.341-6.132-4.631-11.33-10.587-12.83l-19.255-4.846
					c-10.206-2.569-18.231-6.97-18.127-6.919c-4.196-2.069-6.853-6.341-6.853-11.019v-5.788c-4.912,2.571-10.484,4.035-16.384,4.035
					h0c-5.901,0-11.473-1.465-16.384-4.035v5.788c0,4.678-2.657,8.95-6.853,11.019c-5.669,2.795-10.618,5.029-18.127,6.919
					l-19.255,4.846c-5.956,1.499-10.245,6.697-10.587,12.83l-3.932,67.804c-0.125,2.236,1.656,4.119,3.896,4.119h119.674v-40.795
					h24.579L148.85,181.577z"/>
			</g>
		</g>
		<g>
			<g>
				<path class="st2" d="M113.076,51.205c-1.191,0-2.224-0.918-2.24-2.109c-0.273-19.817-22.903-23.54-45.44-19.648
					c-19.107,3.299-33.073,19.869-33.073,39.259v14.869c2.197-1.284,4.746-2.033,7.474-2.033c0.777,0,1.538,0.065,2.282,0.181
					v-2.924c0-4.726,1.819-9.27,5.081-12.69l0.012-0.013c2.321-2.434,6.094-2.667,8.743-0.594c4.209,3.294,11.5,7.38,21.768,7.38
					c10.243,0,17.496-4.067,21.687-7.356c2.651-2.081,6.432-1.856,8.758,0.583c3.261,3.42,5.081,7.964,5.081,12.69v2.924
					c0.744-0.116,1.505-0.181,2.282-0.181c2.622,0,5.073,0.698,7.21,1.892V64.939C121.332,53.048,116.146,51.205,113.076,51.205z"/>
			</g>
		</g>
		<g>
			<g>
				<path class="st1" d="M115.49,81.542c-0.777,0-1.538,0.065-2.282,0.181v26.924c0,0.802-0.037,1.596-0.09,2.385
					c0.774,0.125,1.563,0.207,2.372,0.207c2.618,0,5.074-0.683,7.21-1.873V83.415C120.565,82.225,118.109,81.542,115.49,81.542z"/>
			</g>
		</g>
		<g>
			<g>
				<path class="st3" d="M92.835,111.276c-3.896,0-7.666-1.167-10.859-3.298c-1.291-0.861-2.78-1.38-4.332-1.38
					c-1.552,0-3.041,0.519-4.332,1.38c-3.193,2.13-6.963,3.298-10.859,3.298H51.445v21.354c6.514,7.107,15.858,11.581,26.199,11.581
					c10.341,0,19.686-4.475,26.199-11.581v-21.354H92.835z"/>
			</g>
		</g>
		<g>
			<g>
				<path class="st1" d="M100.881,156.983c-4.196-2.069-6.853-6.341-6.853-11.019v-5.788c-4.912,2.571-10.484,4.035-16.384,4.035
					c-5.901,0-11.473-1.465-16.384-4.035v5.788c0,4.678-2.657,8.951-6.853,11.019c-0.604,0.298-1.198,0.587-1.789,0.873
					c4.105,9.794,13.787,16.728,25.026,16.728c11.227,0,20.9-6.919,25.014-16.696C101.502,157.323,100.851,156.968,100.881,156.983z
					"/>
			</g>
		</g>
		<g>
			<g>
				<path class="st1" d="M4.633,212.705l-2.127,36.676c-0.125,2.236,1.656,4.118,3.896,4.118h22.811v-40.795H4.633z"/>
			</g>
		</g>
		<g>
			<g>
				<path class="st7" d="M246.287,42.153H129.913c-3.967,0-7.213,3.246-7.213,7.213v89.571c0,3.967,3.246,7.213,7.213,7.213h116.374
					c3.967,0,7.213-3.246,7.213-7.213V49.366C253.5,45.399,250.254,42.153,246.287,42.153z"/>
			</g>
		</g>
		<g>
			<g>
				<path class="st18" d="M192.182,29.579h-8.163c-2.589,0-4.688,2.099-4.688,4.688v7.886h17.54v-7.886
					C196.87,31.678,194.771,29.579,192.182,29.579z"/>
			</g>
		</g>
		<g>
			<g>
				<path class="st1" d="M194.767,180.595h-13.763c-4.235,0-7.699,3.465-7.699,7.699v16.888c0,4.235,3.465,7.699,7.699,7.699h13.763
					c4.235,0,7.699-3.465,7.699-7.699v-16.888C202.467,184.06,199.002,180.595,194.767,180.595z"/>
			</g>
		</g>
		<g>
			<g>
				<path class="st1" d="M170.767,173.305c-4.332,0-7.877,3.544-7.877,7.877v5.077c0,4.332,3.544,7.877,7.877,7.877h2.538v-5.84
					c0-3.66,2.59-6.739,6.025-7.509v-7.481H170.767z"/>
			</g>
		</g>
		<g>
			<g>
				<path class="st18" d="M194.767,212.882h-13.763c-0.575,0-1.134-0.069-1.674-0.19v29.871c0,2.589,2.099,4.688,4.688,4.688h8.163
					c2.589,0,4.688-2.099,4.688-4.688v-29.982C196.2,212.772,195.497,212.882,194.767,212.882z"/>
			</g>
		</g>
		<g>
			<g>
				<path class="st18" d="M179.33,146.15v34.636c0.54-0.121,1.099-0.19,1.674-0.19h13.763c0.729,0,1.433,0.109,2.103,0.301V146.15
					H179.33z"/>
			</g>
		</g>
		<g>
			<g>
				<path class="st1" d="M181.004,212.882c-4.235,0-7.699-3.465-7.699-7.699v-11.048h-2.538c-0.924,0-2.015-0.197-2.971-0.589
					l-17.073,20.122l-0.068-0.963h-24.579l0,25.75c0,8.309,6.745,15.045,15.054,15.045h0.317c6.435,0.001,12.461-3.104,16.215-8.331
					c1.276-1.777,2.685-3.866,4.208-6.308l19.27-25.979H181.004z"/>
			</g>
		</g>
		<g>
			<g>
				<path class="st5" d="M31.013,128.2c-3.1-0.6-5.6-3-6.2-6.1c0-0.1-0.3-0.1-0.3,0c-0.6,3.1-3.1,5.5-6.2,6.1c-0.1,0-0.1,0.2,0,0.3
					c3.1,0.6,5.6,3,6.2,6.1c0,0.1,0.3,0.1,0.3,0c0.6-3.1,3.1-5.5,6.2-6.1C31.113,128.4,31.113,128.2,31.013,128.2z"/>
			</g>
		</g>
		<g>
			<g>
				<path class="st4" d="M234.113,193.1h-2.4v-2.3c0-1.8-1.4-3.2-3.2-3.2c-1.7,0-3.2,1.4-3.2,3.1v2.4h-2.3c-1.8,0-3.2,1.4-3.2,3.2
					c-0.1,1.7,1.3,3.2,3.2,3.2h2.3v2.3c0,1.8,1.4,3.2,3.2,3.2c1.7,0,3.2-1.4,3.2-3.1v-2.4h2.3c1.8,0,3.2-1.4,3.2-3.2
					C237.213,194.6,235.813,193.1,234.113,193.1z"/>
			</g>
		</g>
		<g>
			<g>
				<path class="st6" d="M218.413,220.5c-1.878,0-3.4,1.522-3.4,3.4c0,1.878,1.522,3.4,3.4,3.4s3.4-1.522,3.4-3.4
					C221.813,222.022,220.291,220.5,218.413,220.5z"/>
			</g>
		</g>
		<g>
			<g>
				<path class="st9" d="M98.413,0c-1.878,0-3.4,1.522-3.4,3.4c0,1.878,1.522,3.4,3.4,3.4s3.4-1.522,3.4-3.4
					C101.813,1.522,100.291,0,98.413,0z"/>
			</g>
		</g>
		<g>
			<g>
				<path class="st6" d="M137.013,18.175c-4.502-0.788-8.012-4.278-8.924-8.675c-0.001-0.2-0.401-0.199-0.4,0.001
					c-0.888,4.402-4.378,7.912-8.876,8.725c-0.2,0.001-0.199,0.301,0.001,0.4c4.502,0.788,8.012,4.278,8.924,8.675
					c0.001,0.2,0.401,0.199,0.4-0.001c0.888-4.402,4.378-7.912,8.876-8.725C137.213,18.474,137.213,18.174,137.013,18.175z"/>
			</g>
		</g>
		<g>
			<g>
				<path d="M126.076,191.049c-1.381,0-2.5,1.119-2.5,2.5v59.082c0,1.381,1.119,2.5,2.5,2.5s2.5-1.119,2.5-2.5v-59.082
					C128.576,192.168,127.457,191.049,126.076,191.049z"/>
			</g>
		</g>
		<g>
			<g>
				<path d="M29.212,191.049c-1.381,0-2.5,1.119-2.5,2.5v59.082c0,1.381,1.119,2.5,2.5,2.5s2.5-1.119,2.5-2.5v-59.082
					C31.712,192.168,30.593,191.049,29.212,191.049z"/>
			</g>
		</g>
		<g>
			<g>
				<ellipse transform="matrix(0.9871 -0.1602 0.1602 0.9871 -14.4865 16.3559)" cx="94.206" cy="98.032" rx="4.778" ry="4.778"/>
			</g>
		</g>
		<g>
			<g>
				<ellipse transform="matrix(0.3827 -0.9239 0.9239 0.3827 -52.2242 117.9047)" cx="62.116" cy="98.032" rx="4.778" ry="4.778"/>
			</g>
		</g>
		<g>
			<g>
				<path d="M53.643,110.268l-9.276-21.053c-0.557-1.264-2.033-1.837-3.295-1.28c-1.264,0.557-1.836,2.032-1.28,3.295l9.276,21.053
					c0.412,0.936,1.328,1.493,2.289,1.493c0.336,0,0.679-0.068,1.006-0.213C53.627,113.007,54.2,111.531,53.643,110.268z"/>
			</g>
		</g>
		<g>
			<g>
				<path d="M114.216,87.935c-1.263-0.558-2.739,0.017-3.295,1.28l-9.276,21.053c-0.557,1.263,0.016,2.739,1.28,3.295
					c0.328,0.145,0.67,0.213,1.006,0.213c0.961,0,1.877-0.557,2.289-1.493l9.276-21.053
					C116.053,89.967,115.48,88.492,114.216,87.935z"/>
			</g>
		</g>
		<g>
			<g>
				<path d="M153.964,208.417c-1.178-0.725-2.717-0.361-3.44,0.814l-4.851,7.859c-0.726,1.175-0.361,2.715,0.813,3.44
					c0.41,0.252,0.863,0.373,1.312,0.373c0.838,0,1.657-0.422,2.129-1.188l4.851-7.859
					C155.503,210.683,155.139,209.143,153.964,208.417z"/>
			</g>
		</g>
		<g>
			<g>
				<g>
					<path d="M186.225,127.68l-7.818-29.039c-0.294-1.092-1.284-1.85-2.414-1.85c-1.131,0-2.12,0.759-2.414,1.85l-7.817,29.039
						c-0.359,1.333,0.431,2.705,1.765,3.064c0.217,0.059,0.436,0.086,0.651,0.086c1.103,0,2.111-0.735,2.412-1.851l5.403-20.072
						l5.404,20.072c0.359,1.334,1.733,2.123,3.064,1.764C185.794,130.385,186.584,129.013,186.225,127.68z"/>
				</g>
			</g>
			<g>
				<g>
					<path d="M180.46,117.629h-8.935c-1.381,0-2.5,1.119-2.5,2.5s1.119,2.5,2.5,2.5h8.935c1.381,0,2.5-1.119,2.5-2.5
						S181.841,117.629,180.46,117.629z"/>
				</g>
			</g>
			<g>
				<g>
					<g>
						<path d="M234.272,125.83h-13.137v-24.039h13.137c1.381,0,2.5-1.119,2.5-2.5s-1.119-2.5-2.5-2.5h-15.637
							c-1.381,0-2.5,1.119-2.5,2.5v29.039c0,1.381,1.119,2.5,2.5,2.5h15.637c1.381,0,2.5-1.119,2.5-2.5
							S235.653,125.83,234.272,125.83z"/>
					</g>
				</g>
				<g>
					<g>
						<path d="M228.687,107.96h-10.052c-1.381,0-2.5,1.119-2.5,2.5s1.119,2.5,2.5,2.5h10.052c1.381,0,2.5-1.119,2.5-2.5
							S230.068,107.96,228.687,107.96z"/>
					</g>
				</g>
			</g>
			<g>
				<g>
					<g>
						<path d="M210.057,96.792h-15.636c-1.381,0-2.5,1.119-2.5,2.5v29.039c0,1.381,1.119,2.5,2.5,2.5s2.5-1.119,2.5-2.5v-26.539
							h13.136c1.381,0,2.5-1.119,2.5-2.5S211.437,96.792,210.057,96.792z"/>
					</g>
				</g>
				<g>
					<g>
						<path d="M204.473,107.96h-10.052c-1.381,0-2.5,1.119-2.5,2.5s1.119,2.5,2.5,2.5h10.052c1.381,0,2.5-1.119,2.5-2.5
							S205.854,107.96,204.473,107.96z"/>
					</g>
				</g>
			</g>
			<g>
				<g>
					<path d="M151.98,107.96h-4.468c-1.7,0-3.084-1.383-3.084-3.084s1.384-3.084,3.084-3.084h4.468c1.7,0,3.084,1.384,3.084,3.084
						c0,1.381,1.119,2.5,2.5,2.5s2.5-1.119,2.5-2.5c0-4.458-3.626-8.084-8.084-8.084h-4.468c-4.458,0-8.084,3.626-8.084,8.084
						c0,4.458,3.626,8.084,8.084,8.084h4.468c1.7,0,3.084,1.384,3.084,3.084v6.701c0,1.701-1.384,3.084-3.084,3.084h-4.468
						c-1.7,0-3.084-1.384-3.084-3.084c0-1.381-1.119-2.5-2.5-2.5s-2.5,1.119-2.5,2.5c0,4.458,3.626,8.084,8.084,8.084h4.468
						c4.458,0,8.084-3.626,8.084-8.084v-6.701C160.064,111.586,156.438,107.96,151.98,107.96z"/>
				</g>
			</g>
			<g>
				<g>
					<path d="M210.771,88.361l-7.818-29.038c-0.294-1.092-1.283-1.85-2.414-1.85s-2.12,0.758-2.414,1.85l-7.818,29.038
						c-0.359,1.333,0.431,2.705,1.764,3.064c1.332,0.359,2.705-0.43,3.064-1.764l5.404-20.072l5.404,20.072
						c0.301,1.116,1.31,1.851,2.412,1.851c0.216,0,0.435-0.028,0.652-0.086C210.34,91.066,211.13,89.694,210.771,88.361z"/>
				</g>
			</g>
			<g>
				<g>
					<path d="M205.006,78.311h-8.936c-1.381,0-2.5,1.119-2.5,2.5s1.119,2.5,2.5,2.5h8.936c1.381,0,2.5-1.119,2.5-2.5
						S206.387,78.311,205.006,78.311z"/>
				</g>
			</g>
			<g>
				<g>
					<path d="M152.006,68.642h-4.468c-1.7,0-3.084-1.384-3.084-3.084s1.384-3.084,3.084-3.084h4.468c1.7,0,3.084,1.383,3.084,3.084
						c0,1.381,1.119,2.5,2.5,2.5s2.5-1.119,2.5-2.5c0-4.458-3.626-8.084-8.084-8.084h-4.468c-4.458,0-8.084,3.626-8.084,8.084
						c0,4.458,3.626,8.084,8.084,8.084h4.468c1.7,0,3.084,1.384,3.084,3.084v6.701c0,1.701-1.384,3.084-3.084,3.084h-4.468
						c-1.7,0-3.084-1.383-3.084-3.084c0-1.381-1.119-2.5-2.5-2.5s-2.5,1.119-2.5,2.5c0,4.458,3.626,8.084,8.084,8.084h4.468
						c4.458,0,8.084-3.626,8.084-8.084v-6.701C160.09,72.268,156.464,68.642,152.006,68.642z"/>
				</g>
			</g>
			<g>
				<g>
					<g>
						<path d="M183.48,57.473h-15.636c-1.381,0-2.5,1.119-2.5,2.5s1.119,2.5,2.5,2.5h15.636c1.381,0,2.5-1.119,2.5-2.5
							S184.861,57.473,183.48,57.473z"/>
					</g>
				</g>
				<g>
					<g>
						<path d="M175.662,57.473c-1.381,0-2.5,1.119-2.5,2.5v29.038c0,1.381,1.119,2.5,2.5,2.5s2.5-1.119,2.5-2.5V59.973
							C178.162,58.592,177.043,57.473,175.662,57.473z"/>
					</g>
				</g>
			</g>
			<g>
				<g>
					<g>
						<path d="M234.247,57.473c-1.381,0-2.5,1.119-2.5,2.5v12.285c0,1.701-1.384,3.084-3.085,3.084h-4.467
							c-1.7,0-3.084-1.384-3.084-3.084V59.973c0-1.381-1.119-2.5-2.5-2.5s-2.5,1.119-2.5,2.5v12.285
							c0,4.458,3.626,8.084,8.084,8.084h4.467c4.458,0,8.085-3.626,8.085-8.084V59.973
							C236.747,58.592,235.628,57.473,234.247,57.473z"/>
					</g>
				</g>
				<g>
					<g>
						<path d="M226.429,75.343c-1.381,0-2.5,1.119-2.5,2.5v11.168c0,1.381,1.119,2.5,2.5,2.5s2.5-1.119,2.5-2.5V77.843
							C228.929,76.462,227.81,75.343,226.429,75.343z"/>
					</g>
				</g>
			</g>
		</g>
		<g>
			<g>
				<g>
					<path d="M109.937,64.384L109.937,64.384c-3.21-3.368-8.417-3.723-12.11-0.824c-3.965,3.112-10.679,6.823-20.144,6.823
						c-9.485,0-16.235-3.725-20.227-6.849c-3.688-2.886-8.887-2.526-12.105,0.85c-3.722,3.903-5.771,9.022-5.771,14.415v29.847
						c0,20.989,17.076,38.064,38.064,38.064s38.064-17.076,38.064-38.064V78.799C115.708,73.407,113.659,68.287,109.937,64.384z
						 M110.708,108.646c0,18.232-14.833,33.064-33.064,33.064S44.58,126.878,44.58,108.646V78.799c0-4.102,1.559-7.996,4.402-10.977
						c0.775-0.813,1.817-1.228,2.871-1.228c0.881,0,1.771,0.289,2.522,0.877c4.611,3.609,12.398,7.912,23.309,7.912
						c10.893,0,18.645-4.291,23.23-7.89c1.657-1.3,3.979-1.153,5.404,0.341h0c2.831,2.969,4.39,6.863,4.39,10.965V108.646z"/>
				</g>
			</g>
		</g>
		<g>
			<g>
				<g>
					<path d="M44.58,108.646V81.723c0-1.232-0.898-2.281-2.116-2.47c-0.9-0.14-1.797-0.211-2.666-0.211
						c-9.566,0-17.349,7.783-17.349,17.349s7.783,17.348,17.349,17.348c0.866,0,1.771-0.078,2.77-0.239
						c1.274-0.206,2.183-1.348,2.096-2.636C44.606,110.011,44.58,109.307,44.58,108.646z M39.58,108.646c0,0.03,0,0.06,0,0.09
						c-6.709-0.117-12.13-5.61-12.13-12.346c0-6.736,5.421-12.23,12.13-12.347V108.646z"/>
				</g>
			</g>
		</g>
		<g>
			<g>
				<g>
					<path d="M151.346,181.438c-0.405-7.264-5.417-13.338-12.473-15.115l-19.254-4.846c-9.559-2.406-17.12-6.46-17.496-6.665
						c-0.044-0.025-0.09-0.05-0.136-0.072c-3.367-1.66-5.458-5.023-5.458-8.777v-5.788c0-0.875-0.457-1.686-1.206-2.139
						c-0.749-0.453-1.68-0.482-2.454-0.076c-4.753,2.489-9.876,3.75-15.225,3.75c-5.348,0-10.47-1.262-15.225-3.75
						c-0.775-0.405-1.706-0.376-2.454,0.076c-0.749,0.453-1.206,1.264-1.206,2.139v5.788c0,3.753-2.092,7.117-5.459,8.777
						c-5.21,2.569-10.132,4.85-17.631,6.737l-19.254,4.846c-7.056,1.776-12.068,7.851-12.472,15.109L0.01,249.242
						c-0.098,1.749,0.537,3.482,1.74,4.755S4.649,256,6.402,256h119.674c1.381,0,2.5-1.119,2.5-2.5v-38.294h22.08
						c0.688,0,1.346-0.284,1.818-0.784s0.718-1.173,0.678-1.861L151.346,181.438z M126.076,210.206c-1.381,0-2.5,1.119-2.5,2.5
						l0,38.294H6.402c-0.525,0-0.864-0.275-1.019-0.438s-0.41-0.517-0.381-1.036l3.933-67.81c0.282-5.068,3.779-9.305,8.701-10.544
						l19.254-4.846c7.975-2.007,13.152-4.403,18.622-7.101c5.087-2.508,8.248-7.59,8.248-13.261v-1.901
						c8.831,3.481,18.942,3.48,27.769,0v1.9c0,5.672,3.16,10.753,8.248,13.261l0.001-0.003c0.914,0.564,2.511,1.325,5.374,2.561
						c3.061,1.322,7.844,3.184,13.247,4.543l19.254,4.846c4.922,1.239,8.419,5.477,8.701,10.55l1.652,28.484H126.076z"/>
				</g>
			</g>
		</g>
		<g>
			<g>
				<g>
					<path d="M125.184,64.654c-0.547-4.751-2.795-15.745-11.855-15.946c-0.174-6.675-2.67-12.059-7.422-16.005
						c-4.358-3.619-10.482-5.889-18.204-6.748c-6.675-0.742-14.534-0.387-22.732,1.029c-20.366,3.517-35.147,21.063-35.147,41.722
						v14.869c0,0.896,0.479,1.723,1.256,2.168c0.385,0.221,0.815,0.332,1.244,0.332c0.436,0,0.872-0.114,1.262-0.342
						c1.893-1.106,4.041-1.691,6.212-1.691c0.613,0,1.252,0.051,1.898,0.151c0.72,0.112,1.457-0.096,2.011-0.571
						c0.554-0.475,0.874-1.169,0.874-1.899v-2.924c0-4.102,1.559-7.996,4.402-10.977c1.422-1.493,3.742-1.644,5.393-0.351
						c4.611,3.609,12.398,7.912,23.309,7.912c10.893,0,18.645-4.291,23.23-7.89c1.657-1.3,3.98-1.153,5.405,0.341
						c2.831,2.969,4.39,6.863,4.39,10.965v2.924c0,0.73,0.319,1.424,0.874,1.899c0.555,0.475,1.288,0.684,2.011,0.571
						c2.863-0.445,5.473,0.074,7.889,1.423c0.775,0.433,1.719,0.422,2.484-0.026s1.235-1.27,1.235-2.156V64.939
						C125.201,64.844,125.195,64.749,125.184,64.654z M120.201,79.706c-1.463-0.418-2.975-0.643-4.492-0.662v-0.244
						c0-5.393-2.05-10.512-5.771-14.415c-3.211-3.368-8.418-3.723-12.11-0.824c-3.965,3.112-10.679,6.823-20.144,6.823
						c-9.485,0-16.235-3.725-20.227-6.849c-3.688-2.886-8.887-2.526-12.105,0.85c-3.722,3.903-5.771,9.022-5.771,14.415v0.244
						c-1.614,0.021-3.215,0.27-4.756,0.734V68.707c0-18.219,13.037-33.694,30.998-36.795c5.245-0.906,10.182-1.352,14.703-1.352
						c9.673,0,17.434,2.043,22.188,5.99c3.659,3.039,5.551,7.271,5.624,12.58c0.034,2.523,2.161,4.576,4.74,4.576
						c3.727,0,6.254,4.04,7.125,11.38V79.706z"/>
				</g>
			</g>
		</g>
		<g>
			<g>
				<g>
					<path d="M123.917,81.23c-2.571-1.432-5.484-2.188-8.427-2.188c-0.869,0-1.766,0.071-2.666,0.211
						c-1.218,0.189-2.116,1.238-2.116,2.47v26.923c0,0.661-0.027,1.366-0.084,2.217c-0.087,1.289,0.822,2.432,2.097,2.637
						c0.999,0.161,1.905,0.239,2.769,0.239c2.942,0,5.856-0.757,8.427-2.188c0.792-0.441,1.284-1.277,1.284-2.184V83.415
						C125.201,82.508,124.709,81.672,123.917,81.23z M120.201,107.802c-1.422,0.588-2.95,0.907-4.492,0.935c0-0.03,0-0.06,0-0.09
						V84.044c1.542,0.027,3.07,0.347,4.492,0.935V107.802z"/>
				</g>
			</g>
		</g>
		<g>
			<g>
				<g>
					<path d="M103.843,108.776H92.835c-3.375,0-6.65-0.995-9.471-2.877c-3.531-2.357-7.91-2.357-11.439,0
						c-2.822,1.882-6.097,2.877-9.472,2.877H51.445c-1.381,0-2.5,1.119-2.5,2.5v21.354c0,0.625,0.234,1.228,0.657,1.689
						c7.218,7.875,17.439,12.392,28.042,12.392s20.824-4.517,28.042-12.392c0.423-0.461,0.657-1.064,0.657-1.689v-21.354
						C106.343,109.895,105.224,108.776,103.843,108.776z M101.343,131.637c-6.229,6.414-14.812,10.074-23.699,10.074
						s-17.471-3.66-23.699-10.074v-17.861h8.508c4.365,0,8.6-1.286,12.247-3.719c1.882-1.256,4.005-1.256,5.889,0
						c3.646,2.433,7.881,3.718,12.246,3.718h8.508V131.637z"/>
				</g>
			</g>
		</g>
		<g>
			<g>
				<g>
					<path d="M103.755,155.641c-0.924-0.451-1.503-0.759-1.637-0.832c-0.043-0.024-0.086-0.047-0.131-0.069
						c-3.367-1.66-5.458-5.023-5.458-8.777v-5.788c0-0.875-0.457-1.686-1.206-2.139c-0.749-0.453-1.68-0.482-2.454-0.076
						c-4.753,2.489-9.876,3.75-15.225,3.75c-5.348,0-10.47-1.262-15.225-3.75c-0.775-0.405-1.706-0.376-2.454,0.076
						c-0.749,0.453-1.206,1.264-1.206,2.139v5.788c0,3.753-2.092,7.117-5.459,8.777c0,0,0,0,0,0
						c-0.597,0.294-1.184,0.581-1.769,0.863c-1.198,0.578-1.734,1.992-1.22,3.218c4.65,11.094,15.379,18.262,27.332,18.262
						c11.937,0,22.659-7.154,27.318-18.226C105.477,157.635,104.947,156.223,103.755,155.641z M77.644,172.083
						c-9.149,0-17.438-5.061-21.713-13.073c4.842-2.576,7.829-7.533,7.829-13.047v-1.901c8.831,3.481,18.942,3.48,27.769,0v1.9
						c0,5.515,2.988,10.471,7.83,13.047C95.082,167.022,86.791,172.083,77.644,172.083z"/>
				</g>
			</g>
		</g>
		<g>
			<g>
				<g>
					<path d="M29.212,210.206H4.633c-1.325,0-2.419,1.033-2.496,2.355L0.01,249.242c-0.098,1.749,0.537,3.482,1.74,4.755
						S4.649,256,6.402,256h22.811c1.381,0,2.5-1.119,2.5-2.5v-40.794C31.712,211.325,30.593,210.206,29.212,210.206z M26.712,251
						H6.402c-0.525,0-0.864-0.275-1.019-0.438s-0.41-0.517-0.381-1.036l1.991-34.32h19.72V251z"/>
				</g>
			</g>
		</g>
		<g>
			<g>
				<g>
					<path d="M246.287,39.653H129.913c-5.355,0-9.712,4.357-9.712,9.713v89.571c0,5.355,4.357,9.712,9.712,9.712h116.374
						c5.355,0,9.713-4.357,9.713-9.712V49.366C256,44.011,251.643,39.653,246.287,39.653z M251,138.937
						c0,2.599-2.114,4.712-4.713,4.712H129.913c-2.599,0-4.712-2.114-4.712-4.712V49.366c0-2.599,2.114-4.713,4.712-4.713h116.374
						c2.599,0,4.713,2.114,4.713,4.713V138.937z"/>
				</g>
			</g>
		</g>
		<g>
			<g>
				<g>
					<path d="M192.182,27.079h-8.163c-3.964,0-7.188,3.225-7.188,7.188v7.886c0,1.381,1.119,2.5,2.5,2.5h17.54
						c1.381,0,2.5-1.119,2.5-2.5v-7.886C199.37,30.304,196.146,27.079,192.182,27.079z M194.37,39.653h-12.54v-5.386
						c0-1.207,0.981-2.188,2.188-2.188h8.163c1.207,0,2.188,0.982,2.188,2.188V39.653z"/>
				</g>
			</g>
		</g>
		<g>
			<g>
				<g>
					<path d="M194.768,178.095h-13.764c-5.624,0-10.199,4.576-10.199,10.2v16.888c0,5.624,4.575,10.199,10.199,10.199h13.764
						c5.624,0,10.199-4.575,10.199-10.199v-16.888C204.967,182.671,200.392,178.095,194.768,178.095z M199.967,205.183
						c0,2.867-2.332,5.199-5.199,5.199h-13.764c-2.867,0-5.199-2.333-5.199-5.199v-16.888c0-2.867,2.332-5.2,5.199-5.2h13.764
						c2.867,0,5.199,2.333,5.199,5.2V205.183z"/>
				</g>
			</g>
		</g>
		<g>
			<g>
				<g>
					<path d="M179.33,170.805h-8.563c-5.722,0-10.377,4.655-10.377,10.376v5.077c0,5.722,4.655,10.376,10.377,10.376h2.538
						c1.381,0,2.5-1.119,2.5-2.5v-5.84c0-2.409,1.713-4.541,4.072-5.07c1.142-0.256,1.953-1.27,1.953-2.439v-7.48
						C181.83,171.924,180.711,170.805,179.33,170.805z M176.83,179c-3.585,1.626-6.025,5.262-6.025,9.294v3.34h-0.038
						c-2.965,0-5.377-2.412-5.377-5.376v-5.077c0-2.964,2.412-5.376,5.377-5.376h6.063V179z"/>
				</g>
			</g>
		</g>
		<g>
			<g>
				<g>
					<path d="M198.375,210.584c-0.627-0.472-1.438-0.622-2.193-0.407c-0.474,0.136-0.95,0.205-1.414,0.205h-13.764
						c-0.363,0-0.743-0.043-1.129-0.13c-0.739-0.167-1.516,0.014-2.108,0.489c-0.592,0.474-0.937,1.192-0.937,1.951v29.871
						c0,3.964,3.225,7.188,7.188,7.188h8.163c3.964,0,7.188-3.225,7.188-7.188v-29.982
						C199.37,211.796,199.002,211.057,198.375,210.584z M194.37,242.563c0,1.207-0.981,2.188-2.188,2.188h-8.163
						c-1.207,0-2.188-0.982-2.188-2.188v-27.181h12.54V242.563z"/>
				</g>
			</g>
		</g>
		<g>
			<g>
				<g>
					<path d="M196.87,143.649h-17.54c-1.381,0-2.5,1.119-2.5,2.5v34.636c0,0.759,0.345,1.477,0.938,1.952
						c0.592,0.475,1.372,0.652,2.109,0.488c0.385-0.086,0.764-0.13,1.127-0.13h13.764c0.464,0,0.94,0.069,1.414,0.205
						c0.227,0.065,0.458,0.097,0.688,0.097c0.537,0,1.066-0.173,1.505-0.503c0.627-0.473,0.995-1.212,0.995-1.997v-34.747
						C199.37,144.769,198.251,143.649,196.87,143.649z M194.37,178.095h-12.54v-29.446h12.54V178.095z"/>
				</g>
			</g>
		</g>
		<g>
			<g>
				<g>
					<path d="M183.373,211.758c-0.425-0.844-1.289-1.376-2.233-1.376h-0.136c-2.867,0-5.199-2.333-5.199-5.199v-11.048
						c0-1.381-1.119-2.5-2.5-2.5h-2.538c-0.653,0-1.408-0.15-2.021-0.402c-1-0.411-2.155-0.131-2.856,0.695l-15.508,18.277h-24.306
						c-1.381,0-2.5,1.119-2.5,2.5v25.75c0,9.674,7.875,17.545,17.554,17.545h0.316c0.001,0,0.002,0,0.003,0
						c7.209,0,14.029-3.504,18.242-9.373c1.392-1.937,2.819-4.075,4.245-6.358l19.211-25.898
						C183.71,213.613,183.798,212.602,183.373,211.758z M159.861,237.371c-0.04,0.054-0.078,0.109-0.113,0.167
						c-1.387,2.223-2.771,4.3-4.118,6.173c-3.276,4.565-8.577,7.29-14.181,7.29c-0.001,0-0.002,0-0.003,0h-0.316
						c-6.923,0-12.554-5.627-12.554-12.545v-23.25h20.175c0.3,0.383,0.71,0.68,1.192,0.838c0.962,0.316,2.026,0.018,2.686-0.758
						l16.017-18.877c0.705,0.148,1.425,0.227,2.121,0.227l0.038,8.548c0,4.139,2.479,7.71,6.029,9.308L159.861,237.371z"/>
				</g>
			</g>
		</g>
	</g>
</g>
<g id="Layer_9">
</g>
<g id="Layer_10">
</g>
<g id="Layer_11">
</g>
<g id="Layer_12">
</g>
<g id="Layer_13">
</g>
<g id="Layer_14">
</g>
<g id="Layer_15">
</g>
<g id="Layer_16">
</g>
<g id="Layer_17">
</g>
<g id="Layer_18">
</g>
<g id="Layer_19">
</g>
<g id="Layer_20">
</g>
<g id="Layer_21">
</g>
<g id="Layer_22">
</g>
<g id="Layer_23">
</g>
<g id="Layer_24">
</g>
<g id="Layer_25">
</g>
<g id="Layer_26">
</g>
<g id="Layer_27">
</g>
<g id="Layer_28">
</g>
<g id="Layer_29">
</g>
<g id="Layer_30">
</g>
<g id="Layer_31">
</g>
<g id="Layer_32">
</g>
<g id="Layer_33">
</g>
<g id="Layer_34">
</g>
<g id="Layer_35">
</g>
<g id="Layer_36">
</g>
<g id="Layer_37">
</g>
<g id="Layer_38">
</g>
<g id="Layer_39">
</g>
<g id="Layer_40">
</g>
<g id="Layer_41">
</g>
<g id="Layer_42">
</g>
<g id="Layer_43">
</g>
<g id="Layer_44">
</g>
<g id="Layer_45">
</g>
<g id="Layer_46">
</g>
<g id="Layer_47">
</g>
<g id="Layer_48">
</g>
<g id="Layer_49">
</g>
<g id="Layer_50">
</g>
<g id="Layer_51">
</g>
<g id="Layer_52">
</g>
<g id="Layer_53">
</g>
<g id="Layer_54">
</g>
<g id="Layer_55">
</g>
<g id="Layer_56">
</g>
<g id="Layer_57">
</g>
<g id="Layer_58">
</g>
<g id="Layer_59">
</g>
<g id="Layer_60">
</g>
<g id="Layer_61">
</g>
<g id="Layer_62">
</g>
<g id="Layer_63">
</g>
<g id="Layer_64">
</g>
<g id="Layer_65">
</g>
<g id="Layer_66">
</g>
<g id="Layer_67">
</g>
<g id="Layer_68">
</g>
<g id="Layer_69">
</g>
<g id="Layer_70">
</g>
<g id="Layer_71">
</g>
<g id="Layer_72">
</g>
<g id="Layer_73">
</g>
<g id="Layer_74">
</g>
<g id="Layer_75">
</g>
<g id="Layer_76">
</g>
<g id="Layer_77">
</g>
<g id="Layer_78">
</g>
<g id="Layer_79">
</g>
<g id="Layer_80">
</g>
</svg>
