<?xml version="1.0" encoding="utf-8"?>
<!-- Generator: Adobe Illustrator 24.0.0, SVG Export Plug-In . SVG Version: 6.00 Build 0)  -->
<svg version="1.1" xmlns="http://www.w3.org/2000/svg" xmlns:xlink="http://www.w3.org/1999/xlink" x="0px" y="0px"
	 viewBox="0 0 256 256" style="enable-background:new 0 0 256 256;" xml:space="preserve">
<style type="text/css">
	.st0{fill:#6CADEF;}
	.st1{fill:#F9D0B4;}
	.st2{fill:#5B5D60;}
	.st3{fill:#9BE5F9;}
	.st4{fill:#FC657E;}
	.st5{fill:#70D6F9;}
	.st6{fill:#F5C84C;}
	.st7{fill:#F98FA6;}
	.st8{fill:#FED690;}
	.st9{fill:#87D147;}
	.st10{fill:#B2E26D;}
	.st11{fill:#EDF4FC;}
	.st12{fill:#FCDD86;}
	.st13{fill:#754E34;}
	.st14{fill:#B598F9;}
	.st15{fill:#5290DB;}
	.st16{fill:#C7D7E5;}
	.st17{fill:#C18E6B;}
	.st18{fill:#DAE6F1;}
	.st19{fill:#3CAADC;}
	.st20{fill:#818182;}
	.st21{fill:#CBEFF7;}
	.st22{fill:#FCA265;}
	.st23{fill:#A57453;}
	.st24{fill:#8652D8;}
	.st25{fill:#966AEA;}
	.st26{fill:#FEB872;}
	.st27{fill:#EDB311;}
	.st28{fill:#EF4460;}
</style>
<g id="Layer_1">
</g>
<g id="Layer_2">
</g>
<g id="Layer_3">
</g>
<g id="Layer_4">
</g>
<g id="Layer_5">
</g>
<g id="Layer_6">
</g>
<g id="Layer_7">
</g>
<g id="Layer_8">
</g>
<g id="Layer_9">
</g>
<g id="Layer_10">
</g>
<g id="Layer_11">
</g>
<g id="Layer_12">
</g>
<g id="Layer_13">
</g>
<g id="Layer_14">
</g>
<g id="Layer_15">
</g>
<g id="Layer_16">
</g>
<g id="Layer_17">
</g>
<g id="Layer_18">
</g>
<g id="Layer_19">
</g>
<g id="Layer_20">
</g>
<g id="Layer_21">
</g>
<g id="Layer_22">
</g>
<g id="Layer_23">
</g>
<g id="Layer_24">
</g>
<g id="Layer_25">
</g>
<g id="Layer_26">
</g>
<g id="Layer_27">
</g>
<g id="Layer_28">
</g>
<g id="Layer_29">
</g>
<g id="Layer_30">
</g>
<g id="Layer_31">
</g>
<g id="Layer_32">
</g>
<g id="Layer_33">
</g>
<g id="Layer_34">
</g>
<g id="Layer_35">
</g>
<g id="Layer_36">
</g>
<g id="Layer_37">
</g>
<g id="Layer_38">
</g>
<g id="Layer_39">
</g>
<g id="Layer_40">
</g>
<g id="Layer_41">
</g>
<g id="Layer_42">
</g>
<g id="Layer_43">
</g>
<g id="Layer_44">
</g>
<g id="Layer_45">
</g>
<g id="Layer_46">
</g>
<g id="Layer_47">
</g>
<g id="Layer_48">
</g>
<g id="Layer_49">
</g>
<g id="Layer_50">
</g>
<g id="Layer_51">
</g>
<g id="Layer_52">
</g>
<g id="Layer_53">
</g>
<g id="Layer_54">
</g>
<g id="Layer_55">
</g>
<g id="Layer_56">
</g>
<g id="Layer_57">
</g>
<g id="Layer_58">
</g>
<g id="Layer_59">
</g>
<g id="Layer_60">
</g>
<g id="Layer_61">
</g>
<g id="Layer_62">
</g>
<g id="Layer_63">
</g>
<g id="Layer_64">
</g>
<g id="Layer_65">
</g>
<g id="Layer_66">
</g>
<g id="Layer_67">
</g>
<g id="Layer_68">
</g>
<g id="Layer_69">
	<g>
		<g>
			<g>
				<path class="st8" d="M163.319,75.05c4.816-7.553,2.542-14.907,0.417-19.061c-1.864,2.956-5.15,4.926-8.903,4.926
					c-0.574,0-1.133-0.058-1.682-0.147c-0.592,8.823-5.769,16.442-13.158,20.469v7.647c0,2.448,1.284,4.689,3.342,5.956
					c0.825,0.508-0.222-0.088,6.802,3.406c0.945,0.466,2.193,0.959,3.155,1.261c0.191,0.06,0.384,0.112,0.577,0.167
					c3.711-1.358,6.985-3.514,9.105-6.872c3.888-6.156,1.619-12.122,0.188-14.792C162.66,77.072,162.747,75.947,163.319,75.05z"/>
			</g>
		</g>
		<g>
			<g>
				<path class="st8" d="M102.848,60.769c-0.549,0.088-1.108,0.147-1.682,0.147c-3.753,0-7.039-1.97-8.903-4.927
					c-2.125,4.154-4.399,11.508,0.417,19.061c0.572,0.897,0.659,2.022,0.156,2.96c-1.431,2.67-3.7,8.635,0.188,14.792
					c2.121,3.358,5.395,5.514,9.105,6.872c0.193-0.055,0.386-0.107,0.577-0.167c0.962-0.301,2.21-0.795,3.155-1.261
					c7.48-3.721,6.039-2.936,6.802-3.406c2.058-1.267,3.342-3.508,3.342-5.956v-7.647C108.616,77.21,103.44,69.591,102.848,60.769z"
					/>
			</g>
		</g>
		<g>
			<g>
				<path class="st7" d="M196.154,138.054l-16.209-24.284c-1.145-1.568-2.459-3.005-3.918-4.284
					c-3.161-2.774-6.936-4.756-11.013-5.782L154.5,99.85c-1.507-0.379-2.969-0.917-4.362-1.604l-6.234-3.074
					c-2.394-1.18-3.91-3.618-3.91-6.288v-7.647c-3.572,1.947-7.66,3.055-11.994,3.055c-4.334,0-8.422-1.108-11.994-3.055v7.647
					c0,2.669-1.516,5.107-3.91,6.288l-6.234,3.074c-1.393,0.687-2.856,1.224-4.362,1.604l-10.514,3.853
					c-4.078,1.027-7.853,3.009-11.013,5.782c-1.459,1.28-2.773,2.717-3.918,4.284l-16.209,24.284
					c-0.762,1.043-0.55,2.504,0.478,3.287l21.22,13.861c1.037,0.79,2.518,0.595,3.315-0.437l7.999-12.259v50.216h70.282v-50.216
					l8,12.259c0.797,1.032,2.278,1.227,3.315,0.437l21.22-13.861C196.704,140.558,196.916,139.097,196.154,138.054z"/>
			</g>
		</g>
		<g>
			<g>
				<path class="st1" d="M143.904,95.172c-2.394-1.18-3.91-3.618-3.91-6.288v-7.647c-3.572,1.947-7.66,3.055-11.994,3.055
					c-4.334,0-8.422-1.108-11.994-3.055v7.647c0,2.669-1.516,5.107-3.91,6.288l-5.667,2.794c4.049,9.16,10.078,17.269,17.571,23.738
					c2.291,1.979,5.709,1.979,8,0c7.493-6.469,13.522-14.578,17.57-23.738L143.904,95.172z"/>
			</g>
		</g>
		<g>
			<g>
				<path class="st14" d="M75.517,221.36c-0.332,0.397-0.648,0.81-0.942,1.241l-9.107,13.378c-3.594,5.28-2.058,12.492,3.377,15.848
					c4.915,3.035,11.331,1.839,14.822-2.763l6.027-7.946c1.41-1.859,3.463-3.126,5.758-3.553l33.558-6.247L75.517,221.36z"/>
			</g>
		</g>
		<g>
			<g>
				<path class="st14" d="M212.732,196.705l-0.669-0.71l-11.917-11.98l-7.88,2.102l-63.257,17.513l44.962,12.448
					c3.353,0.796,6.34,2.658,8.531,5.282l18.015-3.354c2.163-0.403,4.152-1.212,5.9-2.336
					C212.672,211.648,215.09,203.715,212.732,196.705z"/>
			</g>
		</g>
		<g>
			<g>
				<path class="st14" d="M192.551,235.979l-9.107-13.378c-2.233-3.28-5.612-5.607-9.473-6.523L65.659,186.091l-9.05-2.836
					L45.642,194.28l-0.449,1.427c-0.479,1.211-0.834,2.494-1.019,3.849c-1.19,8.72,4.675,16.839,13.327,18.45l105.065,19.559
					c2.294,0.427,4.347,1.694,5.758,3.553l6.027,7.945c3.491,4.602,9.907,5.798,14.822,2.764
					C194.609,248.471,196.145,241.259,192.551,235.979z"/>
			</g>
		</g>
		<g>
			<g>
				<path class="st1" d="M62.153,142.536l-7.278,13.586c-0.47,0.877-1.018,1.712-1.64,2.488
					c-8.976,11.188-17.965,20.822-19.359,22.082c-2.126,1.921-4.43,3.445-6.929,2.044l-4.458-2.419
					c-2.54-1.379-5.68-0.96-7.771,1.036c-1.589,1.517-1.338,4.122,0.512,5.308c1.917,1.846,1.416,5.036-0.974,6.207l-1.693,0.829
					c-4.441,2.174-5.644,8.353-1.64,11.691l8.238,6.867c2.931,2.443,7.246,2.229,9.92-0.494l14.857-15.765l24.712-24.843
					c1.877-1.887,3.576-3.942,5.077-6.14l7.043-10.315L62.153,142.536z"/>
			</g>
		</g>
		<g>
			<g>
				<path class="st1" d="M243.438,193.695l-1.693-0.829c-2.391-1.17-2.891-4.36-0.974-6.207c1.85-1.186,2.101-3.791,0.512-5.308
					c-2.09-1.996-5.23-2.415-7.771-1.036l-4.458,2.419c-2.5,1.401-4.804-0.122-6.929-2.044c-1.394-1.26-10.383-10.893-19.359-22.082
					c-0.622-0.776-1.17-1.611-1.64-2.488l-7.278-13.586l-18.616,12.161l7.043,10.315c1.501,2.198,3.2,4.253,5.077,6.14
					l24.712,24.843l14.857,15.765c2.674,2.722,6.989,2.937,9.92,0.494l8.238-6.867C249.082,202.049,247.879,195.869,243.438,193.695
					z"/>
			</g>
		</g>
		<g>
			<g>
				<polygon class="st14" points="89.613,192.722 129.009,203.629 168.405,192.722 				"/>
			</g>
		</g>
		<g>
			<g>
				<path class="st1" d="M154.834,39.86c-0.551,0-1.09,0.047-1.618,0.128v19.089c0,0.569-0.026,1.131-0.063,1.691
					c0.549,0.088,1.108,0.147,1.682,0.147c5.814,0,10.528-4.713,10.528-10.528C165.361,44.573,160.648,39.86,154.834,39.86z"/>
			</g>
		</g>
		<g>
			<g>
				<path class="st1" d="M151.665,36.785c-2.552-0.591-5.649-2.069-9.201-5.296c-0.702-0.638-1.785-0.586-2.403,0.135
					c-3.84,4.482-17.458,18.082-37.277,12.437v15.017c0,13.869,11.347,25.216,25.216,25.216c13.869,0,25.216-11.347,25.216-25.216
					V38.706C153.216,37.78,152.567,36.994,151.665,36.785z"/>
			</g>
		</g>
		<g>
			<g>
				<path class="st1" d="M102.784,59.077V44.061c-1.731-0.493-3.51-1.132-5.333-1.937c-1.176-0.519-2.549-0.28-3.487,0.599
					c-2.045,1.918-3.326,4.639-3.326,7.665c0,5.814,4.713,10.528,10.528,10.528c0.574,0,1.133-0.058,1.682-0.147
					C102.81,60.209,102.784,59.646,102.784,59.077z"/>
			</g>
		</g>
		<g>
			<g>
				<path class="st8" d="M128,2.5c-18.859,0-34.289,15.43-34.289,34.289v6.196c0.086-0.086,0.164-0.179,0.253-0.262
					c0.938-0.879,2.311-1.118,3.487-0.599c1.823,0.805,3.602,1.444,5.333,1.937c19.818,5.645,33.436-7.954,37.277-12.437
					c0.617-0.72,1.7-0.773,2.403-0.135c3.551,3.227,6.649,4.705,9.201,5.296c0.902,0.209,1.551,0.994,1.551,1.921v1.282
					c0.528-0.082,1.067-0.128,1.618-0.128c2.913,0,5.549,1.183,7.455,3.095v-6.167C162.289,17.93,146.859,2.5,128,2.5z"/>
			</g>
		</g>
		<g>
			<g>
				<path class="st1" d="M192.551,235.979l-9.107-13.378c-2.233-3.28-5.612-5.607-9.473-6.523l-10.974-3.038l-8.548,23.014
					l8.118,1.511c2.294,0.427,4.347,1.694,5.758,3.553l6.027,7.945c3.491,4.602,9.907,5.798,14.822,2.764
					C194.609,248.471,196.145,241.259,192.551,235.979z"/>
			</g>
		</g>
		<g>
			<g>
				<path class="st1" d="M97.622,225.475l-22.105-4.115c-0.332,0.397-0.648,0.81-0.942,1.241l-9.107,13.378
					c-3.595,5.28-2.058,12.491,3.377,15.848c4.915,3.035,11.331,1.839,14.822-2.763l6.028-7.946c1.41-1.859,3.463-3.126,5.758-3.553
					l6.23-1.16L97.622,225.475z"/>
			</g>
		</g>
		<g>
			<g>
				<path class="st6" d="M76.35,29.85c-4.5-0.8-8-4.3-8.9-8.7c0-0.2-0.4-0.2-0.4,0c-0.9,4.4-4.4,7.9-8.9,8.7c-0.2,0-0.2,0.3,0,0.4
					c4.5,0.8,8,4.3,8.9,8.7c0,0.2,0.4,0.2,0.4,0c0.9-4.4,4.4-7.9,8.9-8.7C76.55,30.15,76.55,29.85,76.35,29.85z"/>
			</g>
		</g>
		<g>
			<g>
				<path class="st4" d="M45.283,228.867c-2.983-0.531-5.304-2.851-5.901-5.768c0-0.133-0.265-0.133-0.265,0
					c-0.597,2.917-2.917,5.238-5.901,5.768c-0.133,0-0.133,0.199,0,0.265c2.983,0.531,5.304,2.851,5.901,5.768
					c0,0.133,0.265,0.133,0.265,0c0.597-2.917,2.917-5.237,5.901-5.768C45.416,229.066,45.416,228.867,45.283,228.867z"/>
			</g>
		</g>
		<g>
			<g>
				<path class="st6" d="M222.846,159c-1.878,0-3.4,1.522-3.4,3.4c0,1.878,1.522,3.4,3.4,3.4c1.878,0,3.4-1.522,3.4-3.4
					C226.246,160.522,224.724,159,222.846,159z"/>
			</g>
		</g>
		<g>
			<g>
				<path class="st9" d="M84.846,0c-1.878,0-3.4,1.522-3.4,3.4c0,1.878,1.522,3.4,3.4,3.4s3.4-1.522,3.4-3.4
					C88.246,1.522,86.724,0,84.846,0z"/>
			</g>
		</g>
		<g>
			<g>
				<path class="st5" d="M224.8,129.5h-2.3v-2.3c0-1.7-1.4-3.2-3.2-3.2c-1.8,0-3.2,1.4-3.2,3.2v2.3h-2.3c-1.7,0-3.2,1.4-3.2,3.2
					s1.4,3.2,3.2,3.2h2.3v2.3c0,1.7,1.4,3.2,3.2,3.2c1.8,0,3.2-1.4,3.2-3.2v-2.3h2.3c1.7,0,3.2-1.4,3.2-3.2S226.6,129.5,224.8,129.5
					z"/>
			</g>
		</g>
		<g>
			<g>
				<g>
					<path d="M165.427,76.394c5.58-8.749,2.73-17.253,0.535-21.543c-0.409-0.8-1.216-1.318-2.113-1.358
						c-0.908-0.048-1.748,0.403-2.227,1.163c-1.485,2.354-4.022,3.76-6.788,3.76c-0.388,0-0.807-0.037-1.282-0.114
						c-0.693-0.111-1.404,0.073-1.955,0.511s-0.892,1.087-0.938,1.789c-0.523,7.785-4.957,14.68-11.86,18.442
						c-0.804,0.438-1.304,1.28-1.304,2.195v7.646c0,3.314,1.693,6.337,4.531,8.085l0.121,0.074c0.425,0.264,0.5,0.301,1.426,0.752
						c0.8,0.39,2.322,1.132,5.46,2.692c1.031,0.508,2.41,1.06,3.503,1.401c0.171,0.054,0.343,0.103,0.516,0.15l0.135,0.038
						c0.224,0.064,0.454,0.096,0.684,0.096c0.291,0,0.582-0.051,0.859-0.152c4.644-1.7,8.13-4.353,10.359-7.885
						c4.665-7.385,1.749-14.563,0.278-17.309C165.294,76.692,165.35,76.515,165.427,76.394z M161.211,73.706
						c-1.069,1.678-1.166,3.78-0.251,5.484c1.312,2.449,3.044,7.301-0.1,12.276c-1.51,2.392-3.894,4.262-7.093,5.566
						c-0.819-0.273-1.8-0.672-2.517-1.025c-3.15-1.567-4.683-2.313-5.487-2.706c-0.774-0.378-0.774-0.378-0.985-0.508l-0.131-0.082
						c-1.349-0.83-2.153-2.261-2.153-3.827v-6.207c6.958-4.283,11.622-11.286,12.877-19.273c2.795-0.113,5.423-1.11,7.554-2.808
						C164.064,64.345,164.219,68.989,161.211,73.706z"/>
				</g>
			</g>
		</g>
		<g>
			<g>
				<g>
					<path d="M117.202,79.043c-6.903-3.763-11.337-10.657-11.86-18.442c-0.047-0.702-0.388-1.352-0.938-1.789
						c-0.551-0.438-1.26-0.623-1.955-0.511c-0.476,0.077-0.895,0.114-1.282,0.114c-2.766,0-5.303-1.405-6.788-3.76
						c-0.479-0.76-1.308-1.212-2.227-1.163c-0.897,0.04-1.704,0.559-2.113,1.358c-2.195,4.29-5.045,12.794,0.534,21.543
						c0.078,0.121,0.134,0.299,0.062,0.435v0.001c-1.471,2.744-4.387,9.923,0.277,17.308c2.23,3.532,5.717,6.185,10.36,7.885
						c0.277,0.102,0.568,0.152,0.859,0.152c0.229,0,0.46-0.031,0.684-0.096l0.135-0.038c0.173-0.048,0.345-0.097,0.504-0.147
						c1.104-0.345,2.483-0.896,3.522-1.408c3.407-1.694,4.958-2.452,5.71-2.819c0.759-0.37,0.838-0.409,1.134-0.598l0.156-0.098
						c2.837-1.748,4.53-4.771,4.53-8.085v-7.646C118.506,80.323,118.006,79.481,117.202,79.043z M113.506,88.885
						c0,1.566-0.805,2.997-2.152,3.827l-0.253,0.16c-0.09,0.049-0.234,0.117-0.608,0.3c-0.757,0.37-2.316,1.131-5.735,2.832
						c-0.722,0.355-1.698,0.753-2.525,1.029c-3.198-1.305-5.582-3.175-7.093-5.566c-3.143-4.976-1.411-9.826-0.099-12.275
						c0.915-1.705,0.818-3.808-0.252-5.485c-3.007-4.717-2.853-9.361-1.713-13.109c2.131,1.697,4.759,2.694,7.554,2.808
						c1.255,7.987,5.919,14.99,12.877,19.273V88.885z"/>
				</g>
			</g>
		</g>
		<g>
			<g>
				<g>
					<path d="M198.21,136.631l-16.186-24.249c-0.02-0.029-0.04-0.059-0.061-0.088c-1.252-1.712-2.694-3.29-4.287-4.688
						c-3.409-2.992-7.529-5.167-11.922-6.295l-10.395-3.809c-0.082-0.029-0.165-0.055-0.249-0.076
						c-1.337-0.338-2.638-0.816-3.868-1.423l-6.233-3.073c-1.552-0.766-2.516-2.315-2.516-4.046v-7.646
						c0-0.882-0.465-1.699-1.224-2.149c-0.757-0.449-1.698-0.468-2.473-0.046c-3.302,1.799-7.036,2.75-10.798,2.75
						s-7.496-0.951-10.798-2.75c-0.774-0.422-1.715-0.403-2.473,0.046c-0.759,0.45-1.224,1.268-1.224,2.149v7.646
						c0,1.73-0.964,3.281-2.515,4.046l-6.235,3.073c-1.229,0.606-2.53,1.085-3.867,1.423c-0.084,0.021-0.167,0.047-0.249,0.076
						l-10.395,3.809c-4.393,1.128-8.513,3.303-11.922,6.295c-1.596,1.4-3.038,2.978-4.287,4.688
						c-0.021,0.028-0.041,0.058-0.061,0.087L57.79,136.631c-1.509,2.123-1.06,5.115,1.018,6.699
						c0.048,0.036,0.098,0.071,0.148,0.104l21.159,13.821c2.117,1.542,5.114,1.12,6.722-0.961c0.041-0.053,0.08-0.107,0.116-0.163
						l3.405-5.219v41.81c0,1.381,1.119,2.5,2.5,2.5h70.283c1.381,0,2.5-1.119,2.5-2.5v-41.81l3.405,5.219
						c0.036,0.056,0.075,0.11,0.116,0.163c1.608,2.081,4.604,2.5,6.722,0.961l21.158-13.821c0.051-0.032,0.1-0.067,0.147-0.104
						C199.27,141.747,199.72,138.754,198.21,136.631z M173.089,153.11c-0.01,0.007-0.021,0.013-0.03,0.02l-7.823-11.989
						c-0.604-0.927-1.744-1.346-2.807-1.03c-1.061,0.315-1.787,1.29-1.787,2.396v47.716H95.358v-47.716
						c0-1.106-0.727-2.081-1.787-2.396c-1.062-0.315-2.202,0.104-2.807,1.03l-7.823,11.989c-0.01-0.007-0.021-0.013-0.03-0.02
						l-20.967-13.696l16.159-24.212c1.026-1.398,2.21-2.689,3.519-3.838c2.849-2.501,6.298-4.312,9.974-5.236
						c0.085-0.021,0.168-0.048,0.25-0.077l10.396-3.81c1.632-0.421,3.222-1.011,4.727-1.753l6.234-3.073
						c3.271-1.613,5.304-4.882,5.304-8.53v-3.779c6.064,2.221,12.924,2.221,18.988,0v3.779c0,3.648,2.032,6.917,5.305,8.53
						l6.232,3.073c1.506,0.742,3.096,1.332,4.728,1.753l10.396,3.81c0.082,0.029,0.165,0.056,0.25,0.077
						c3.676,0.925,7.125,2.735,9.974,5.236c1.306,1.146,2.489,2.437,3.519,3.839l16.159,24.211L173.089,153.11z"/>
				</g>
			</g>
		</g>
		<g>
			<g>
				<g>
					<path d="M129.467,228.859l-53.492-9.958c-0.897-0.165-1.798,0.163-2.377,0.855c-0.395,0.473-0.761,0.956-1.089,1.438
						l-9.107,13.378c-2.126,3.123-2.863,6.878-2.076,10.572c0.787,3.695,2.991,6.824,6.206,8.81c2.254,1.393,4.751,2.063,7.22,2.063
						c4.149,0,8.217-1.895,10.908-5.442l6.027-7.945c1.036-1.366,2.536-2.292,4.224-2.606l33.557-6.247
						c1.184-0.221,2.042-1.254,2.042-2.458S130.65,229.08,129.467,228.859z M94.994,235.106c-2.913,0.543-5.502,2.142-7.292,4.501
						l-6.027,7.945c-2.725,3.595-7.679,4.518-11.517,2.147c-2.042-1.262-3.442-3.249-3.943-5.597
						c-0.5-2.348-0.031-4.733,1.319-6.717l9.045-13.286l38.77,7.217L94.994,235.106z"/>
				</g>
			</g>
		</g>
		<g>
			<g>
				<g>
					<path d="M215.102,195.908c-0.114-0.342-0.302-0.655-0.55-0.918l-0.669-0.71c-0.016-0.016-0.031-0.032-0.047-0.048
						l-11.918-11.98c-0.632-0.635-1.554-0.884-2.417-0.653l-7.901,2.108l-63.258,17.514c-1.083,0.3-1.833,1.285-1.833,2.409
						s0.75,2.109,1.833,2.409l45.052,12.471c2.792,0.662,5.345,2.243,7.189,4.452c0.479,0.574,1.186,0.897,1.919,0.897
						c0.151,0,0.305-0.014,0.458-0.042l18.014-3.354c2.438-0.453,4.724-1.358,6.795-2.691
						C214.879,213.202,217.895,204.211,215.102,195.908z M205.064,213.567c-1.523,0.979-3.208,1.646-5.006,1.98l-16.646,3.099
						c-2.416-2.45-5.505-4.204-8.775-4.979l-36.259-10.038l54.532-15.098l6.481-1.729l10.874,10.932l0.256,0.271
						C212.303,203.988,210.104,210.327,205.064,213.567z"/>
				</g>
			</g>
		</g>
		<g>
			<g>
				<g>
					<path d="M194.617,234.572l-9.107-13.378c-2.591-3.805-6.483-6.486-10.872-7.526l-108.23-29.963l-9.05-2.836
						c-0.891-0.279-1.862-0.039-2.521,0.623L43.87,192.518c-0.282,0.283-0.492,0.63-0.612,1.012l-0.423,1.345
						c-0.557,1.426-0.938,2.887-1.137,4.344c-1.373,10.057,5.368,19.389,15.346,21.246l105.064,19.559
						c1.688,0.314,3.188,1.24,4.224,2.606l6.028,7.945c2.691,3.548,6.759,5.442,10.908,5.442c2.468,0,4.965-0.671,7.219-2.063
						c3.215-1.984,5.419-5.112,6.206-8.808S196.743,237.696,194.617,234.572z M191.803,244.104c-0.5,2.348-1.9,4.335-3.942,5.596
						c-3.84,2.371-8.79,1.446-11.517-2.147l-6.027-7.945c-1.79-2.359-4.379-3.958-7.292-4.501L57.959,215.548
						c-7.352-1.368-12.318-8.244-11.307-15.654c0.147-1.089,0.439-2.188,0.866-3.268c0.021-0.056,0.042-0.111,0.06-0.168
						l0.267-0.847l9.467-9.517l7.681,2.405l108.401,30.01c3.261,0.774,6.097,2.728,7.983,5.499l9.107,13.378
						C191.835,239.371,192.304,241.757,191.803,244.104z"/>
				</g>
			</g>
		</g>
		<g>
			<g>
				<g>
					<path d="M83.222,154.208c-0.132-0.659-0.522-1.237-1.085-1.604l-18.617-12.16c-0.587-0.384-1.307-0.504-1.986-0.329
						c-0.679,0.173-1.254,0.624-1.585,1.241l-7.277,13.586c-0.402,0.751-0.868,1.458-1.387,2.104
						c-8.989,11.206-17.931,20.748-19.085,21.792c-2.505,2.265-3.365,2.091-4.061,1.701l-4.458-2.42
						c-3.509-1.903-7.805-1.33-10.689,1.426c-1.315,1.257-1.97,3.016-1.795,4.826c0.163,1.698,1.034,3.213,2.405,4.204
						c0.328,0.392,0.322,0.821,0.286,1.055c-0.041,0.257-0.189,0.727-0.732,0.992l-1.691,0.829c-2.988,1.462-5.01,4.313-5.408,7.625
						c-0.383,3.182,0.808,6.183,3.267,8.231l8.237,6.868c1.812,1.509,4.04,2.255,6.269,2.255c2.573,0,5.146-0.994,7.071-2.955
						l14.81-15.717l24.712-24.844c1.983-1.993,3.79-4.178,5.369-6.492l7.044-10.315C83.213,155.551,83.353,154.867,83.222,154.208z
						 M71.66,163.603c-1.407,2.063-3.017,4.009-4.784,5.786L42.117,194.28l-14.82,15.728c-1.749,1.778-4.62,1.924-6.536,0.326
						l-8.237-6.868c-1.55-1.292-1.607-2.931-1.504-3.793c0.192-1.599,1.205-3.028,2.643-3.732l1.691-0.829
						c1.854-0.907,3.152-2.666,3.474-4.705c0.32-2.041-0.376-4.114-1.862-5.547c-0.119-0.114-0.248-0.216-0.387-0.305
						c-0.316-0.203-0.39-0.504-0.405-0.665c-0.016-0.16-0.001-0.47,0.271-0.73c0.794-0.758,1.824-1.152,2.866-1.152
						c0.677,0,1.358,0.166,1.985,0.506l4.429,2.403c4.445,2.495,8.356-1.04,9.828-2.37c1.575-1.424,10.772-11.328,19.631-22.37
						c0.71-0.884,1.348-1.851,1.896-2.873l5.989-11.183l14.197,9.273L71.66,163.603z"/>
				</g>
			</g>
		</g>
		<g>
			<g>
				<g>
					<path d="M249.944,199.075c-0.398-3.313-2.42-6.163-5.408-7.625l-1.692-0.829c-0.542-0.266-0.69-0.735-0.731-0.992
						c-0.036-0.233-0.042-0.663,0.286-1.055c1.371-0.991,2.242-2.506,2.405-4.204c0.175-1.811-0.479-3.569-1.795-4.826
						c-2.885-2.756-7.182-3.33-10.689-1.426l-4.487,2.437c-0.664,0.372-1.528,0.546-4.031-1.718
						c-1.154-1.044-10.096-10.586-19.086-21.793c-0.518-0.645-0.983-1.352-1.386-2.103l-7.277-13.586
						c-0.331-0.617-0.906-1.068-1.585-1.241c-0.679-0.175-1.399-0.055-1.986,0.329l-18.617,12.16
						c-0.563,0.367-0.953,0.945-1.085,1.604c-0.131,0.659,0.009,1.343,0.388,1.898l7.043,10.314c1.58,2.315,3.387,4.5,5.37,6.493
						l24.665,24.796l14.893,15.802c1.902,1.937,4.458,2.922,7.021,2.922c2.23-0.001,4.467-0.746,6.282-2.26l8.237-6.866
						C249.137,205.258,250.327,202.257,249.944,199.075z M243.477,203.467l-8.237,6.866c-1.917,1.597-4.788,1.454-6.5-0.288
						l-14.903-15.813l-24.712-24.844c-1.768-1.777-3.377-3.724-4.785-5.787l-5.604-8.208l14.197-9.273l5.989,11.183
						c0.548,1.022,1.186,1.989,1.895,2.871c8.859,11.044,18.057,20.948,19.632,22.372c1.472,1.33,5.383,4.864,9.799,2.387
						l4.458-2.42c1.592-0.863,3.542-0.604,4.852,0.646c0.272,0.261,0.287,0.57,0.271,0.73c-0.016,0.161-0.089,0.462-0.405,0.665
						c-0.139,0.089-0.268,0.19-0.387,0.305c-1.486,1.433-2.183,3.506-1.862,5.547c0.321,2.039,1.619,3.798,3.473,4.705l1.692,0.829
						c0,0,0,0,0.001,0c1.437,0.704,2.449,2.134,2.642,3.732C245.084,200.535,245.026,202.174,243.477,203.467z"/>
				</g>
			</g>
		</g>
		<g>
			<g>
				<g>
					<path d="M170.883,192.386c-0.169-1.239-1.227-2.163-2.478-2.163H89.612c-1.251,0-2.309,0.924-2.478,2.163
						c-0.168,1.239,0.605,2.412,1.811,2.746l39.396,10.907c0.218,0.061,0.442,0.091,0.667,0.091s0.449-0.03,0.667-0.091
						l39.396-10.907C170.277,194.798,171.051,193.625,170.883,192.386z M129.009,201.036l-20.997-5.813h41.994L129.009,201.036z"/>
				</g>
			</g>
		</g>
		<g>
			<g>
				<g>
					<path d="M152.832,37.518c-1.218,0.189-2.116,1.238-2.116,2.471v19.089c0,0.514-0.024,1.021-0.058,1.526
						c-0.086,1.286,0.821,2.427,2.095,2.633c0.742,0.12,1.423,0.179,2.081,0.179c7.184,0,13.027-5.844,13.027-13.027
						C167.861,42.548,160.861,36.27,152.832,37.518z M155.716,58.367V42.408c4.013,0.44,7.146,3.852,7.146,7.979
						S159.729,57.927,155.716,58.367z"/>
				</g>
			</g>
		</g>
		<g>
			<g>
				<g>
					<path d="M152.229,34.35c-2.584-0.6-5.304-2.184-8.085-4.711c-0.837-0.759-1.958-1.15-3.084-1.086
						c-1.131,0.07-2.159,0.583-2.897,1.443c0,0.001-0.001,0.001-0.001,0.002c-3.479,4.062-16.265,16.911-34.693,11.658
						c-0.75-0.216-1.564-0.063-2.19,0.409s-0.994,1.211-0.994,1.995v15.017c0,15.282,12.434,27.716,27.716,27.716
						s27.716-12.434,27.716-27.716V38.706C155.716,36.616,154.282,34.825,152.229,34.35z M150.716,59.077
						c0,12.525-10.19,22.716-22.716,22.716s-22.716-10.19-22.716-22.716V47.231c18.681,3.665,31.709-8.424,36.116-13.344
						c3.092,2.682,6.22,4.441,9.315,5.238V59.077z"/>
				</g>
			</g>
		</g>
		<g>
			<g>
				<g>
					<path d="M105.284,59.077V44.061c0-1.117-0.741-2.099-1.815-2.404c-1.664-0.474-3.349-1.086-5.007-1.819
						c-2.096-0.924-4.531-0.508-6.208,1.063c-2.615,2.452-4.115,5.911-4.115,9.488c0,7.184,5.844,13.027,13.027,13.027
						c0.658,0,1.339-0.059,2.081-0.179c1.273-0.206,2.181-1.347,2.095-2.633C105.309,60.099,105.284,59.591,105.284,59.077z
						 M100.284,58.367c-4.013-0.44-7.146-3.852-7.146-7.979c0-2.233,0.9-4.308,2.534-5.84c0.137-0.129,0.313-0.196,0.489-0.196
						c0.095,0,0.189,0.02,0.278,0.06c1.271,0.562,2.558,1.061,3.844,1.491V58.367z"/>
				</g>
			</g>
		</g>
		<g>
			<g>
				<g>
					<g>
						<path d="M128,0c-20.285,0-36.789,16.504-36.789,36.789v6.195c0,1.011,0.609,1.923,1.543,2.31
							c0.938,0.389,2.01,0.173,2.725-0.542l0.208-0.217c0.209-0.188,0.505-0.237,0.754-0.124c1.87,0.825,3.773,1.517,5.659,2.054
							c3.559,1.014,6.928,1.449,10.094,1.448c14.978-0.001,25.367-9.738,29.207-14.025c3.091,2.682,6.221,4.441,9.315,5.238v0.862
							c0,0.73,0.319,1.424,0.874,1.898s1.287,0.681,2.01,0.572c0.42-0.065,0.835-0.099,1.234-0.099c2.148,0,4.168,0.838,5.685,2.359
							c0.714,0.718,1.79,0.933,2.726,0.546c0.935-0.387,1.545-1.299,1.545-2.311v-6.166C164.789,16.504,148.285,0,128,0z
							 M159.789,38.332c-1.347-0.554-2.787-0.878-4.273-0.954c-0.463-1.487-1.687-2.657-3.286-3.028
							c-2.584-0.6-5.304-2.184-8.085-4.711c-0.837-0.759-1.958-1.15-3.084-1.086c-1.131,0.07-2.159,0.583-2.898,1.445
							c-3.479,4.062-16.265,16.911-34.693,11.658c-1.664-0.474-3.349-1.086-5.007-1.819c-0.725-0.319-1.49-0.479-2.251-0.486v-2.562
							C96.211,19.261,110.472,5,128,5s31.789,14.261,31.789,31.789V38.332z"/>
					</g>
				</g>
			</g>
		</g>
		<g>
			<g>
				<path d="M136.622,64.514c-1.058-0.888-2.635-0.747-3.521,0.311c-1.108,1.322-3.016,2.112-5.101,2.112s-3.992-0.79-5.101-2.112
					c-0.886-1.06-2.464-1.197-3.521-0.311c-1.059,0.887-1.197,2.464-0.311,3.521c2.047,2.443,5.386,3.901,8.933,3.901
					s6.886-1.458,8.933-3.901C137.819,66.978,137.681,65.4,136.622,64.514z"/>
			</g>
		</g>
		<g>
			<g>
				<path d="M138.515,49.077c-1.729,0-3.132,1.402-3.132,3.131s1.402,3.132,3.132,3.132s3.132-1.402,3.132-3.132
					S140.245,49.077,138.515,49.077z"/>
			</g>
		</g>
		<g>
			<g>
				<path d="M117.485,49.077c-1.729,0-3.132,1.402-3.132,3.131s1.402,3.132,3.132,3.132c1.73,0,3.132-1.402,3.132-3.132
					S119.214,49.077,117.485,49.077z"/>
			</g>
		</g>
		<g>
			<g>
				<g>
					<path d="M194.617,234.572l-9.107-13.378c-2.591-3.805-6.483-6.486-10.872-7.526l-10.974-3.038
						c-1.254-0.347-2.559,0.322-3.011,1.539l-8.549,23.015c-0.257,0.691-0.195,1.461,0.169,2.103
						c0.363,0.642,0.992,1.091,1.718,1.226l8.117,1.511c1.688,0.314,3.188,1.24,4.224,2.606l6.028,7.945
						c2.691,3.548,6.759,5.442,10.908,5.442c2.468,0,4.965-0.671,7.219-2.063c3.215-1.984,5.419-5.112,6.206-8.808
						S196.743,237.696,194.617,234.572z M191.803,244.104c-0.5,2.348-1.9,4.335-3.942,5.596c-3.84,2.371-8.79,1.446-11.517-2.147
						l-6.027-7.945c-1.79-2.359-4.379-3.958-7.293-4.501l-5.197-0.967l6.716-18.079l8.851,2.449
						c3.262,0.774,6.098,2.728,7.984,5.499l9.107,13.378C191.835,239.371,192.304,241.757,191.803,244.104z"/>
				</g>
			</g>
		</g>
		<g>
			<g>
				<g>
					<path d="M104.025,235.535l-4.06-10.931c-0.306-0.824-1.022-1.427-1.887-1.588l-22.105-4.114
						c-0.888-0.165-1.794,0.162-2.374,0.853c-0.395,0.472-0.761,0.956-1.091,1.439l-9.107,13.378
						c-2.126,3.123-2.863,6.878-2.076,10.572c0.787,3.695,2.991,6.824,6.206,8.81c2.254,1.392,4.751,2.062,7.22,2.062
						c4.149,0,8.217-1.894,10.908-5.441l6.027-7.945c1.037-1.367,2.536-2.293,4.222-2.606l6.23-1.159
						c0.726-0.135,1.354-0.584,1.718-1.226C104.221,236.996,104.282,236.227,104.025,235.535z M94.994,235.106
						c-2.912,0.542-5.501,2.141-7.292,4.501l-6.027,7.945c-2.726,3.595-7.678,4.517-11.517,2.147
						c-2.042-1.262-3.442-3.249-3.943-5.597c-0.5-2.348-0.031-4.733,1.319-6.717l9.045-13.286l19.192,3.572l2.532,6.818
						L94.994,235.106z"/>
				</g>
			</g>
		</g>
		<g>
			<g>
				<g>
					<path d="M150.677,95.725l-5.668-2.795c-1.551-0.765-2.515-2.314-2.515-4.045v-7.646c0-0.882-0.465-1.699-1.224-2.149
						c-0.757-0.449-1.698-0.468-2.473-0.046c-3.302,1.799-7.036,2.75-10.798,2.75c-3.764,0-7.497-0.951-10.798-2.75
						c-0.774-0.422-1.715-0.403-2.473,0.046c-0.759,0.45-1.224,1.268-1.224,2.149v7.646c0,1.73-0.964,3.28-2.515,4.045l-5.667,2.795
						c-1.202,0.593-1.723,2.027-1.182,3.253c4.154,9.4,10.456,17.914,18.224,24.62c1.605,1.387,3.62,2.08,5.634,2.08
						s4.028-0.693,5.634-2.08c7.768-6.706,14.069-15.22,18.224-24.62C152.398,97.752,151.878,96.317,150.677,95.725z
						 M130.366,119.813c-1.35,1.166-3.383,1.166-4.732,0c-6.607-5.704-12.072-12.817-15.908-20.684l3.477-1.715
						c3.271-1.612,5.304-4.881,5.304-8.529v-3.779c6.062,2.221,12.923,2.221,18.988,0v3.779c0,3.649,2.033,6.918,5.305,8.529
						l3.476,1.715C142.438,106.995,136.974,114.108,130.366,119.813z"/>
				</g>
			</g>
		</g>
	</g>
</g>
<g id="Layer_70">
</g>
<g id="Layer_71">
</g>
<g id="Layer_72">
</g>
<g id="Layer_73">
</g>
<g id="Layer_74">
</g>
<g id="Layer_75">
</g>
<g id="Layer_76">
</g>
<g id="Layer_77">
</g>
<g id="Layer_78">
</g>
<g id="Layer_79">
</g>
<g id="Layer_80">
</g>
</svg>
