<?xml version="1.0" encoding="utf-8"?>
<!-- Generator: Adobe Illustrator 24.0.0, SVG Export Plug-In . SVG Version: 6.00 Build 0)  -->
<svg version="1.1" xmlns="http://www.w3.org/2000/svg" xmlns:xlink="http://www.w3.org/1999/xlink" x="0px" y="0px"
	 viewBox="0 0 256 256" style="enable-background:new 0 0 256 256;" xml:space="preserve">
<style type="text/css">
	.st0{fill:#6CADEF;}
	.st1{fill:#F9D0B4;}
	.st2{fill:#5B5D60;}
	.st3{fill:#9BE5F9;}
	.st4{fill:#FC657E;}
	.st5{fill:#70D6F9;}
	.st6{fill:#F5C84C;}
	.st7{fill:#F98FA6;}
	.st8{fill:#FED690;}
	.st9{fill:#87D147;}
	.st10{fill:#B2E26D;}
	.st11{fill:#EDF4FC;}
	.st12{fill:#FCDD86;}
	.st13{fill:#754E34;}
	.st14{fill:#B598F9;}
	.st15{fill:#5290DB;}
	.st16{fill:#C7D7E5;}
	.st17{fill:#C18E6B;}
	.st18{fill:#DAE6F1;}
	.st19{fill:#3CAADC;}
	.st20{fill:#818182;}
	.st21{fill:#CBEFF7;}
	.st22{fill:#FCA265;}
	.st23{fill:#A57453;}
	.st24{fill:#8652D8;}
	.st25{fill:#966AEA;}
	.st26{fill:#FEB872;}
	.st27{fill:#EDB311;}
	.st28{fill:#EF4460;}
</style>
<g id="Layer_1">
</g>
<g id="Layer_2">
</g>
<g id="Layer_3">
</g>
<g id="Layer_4">
</g>
<g id="Layer_5">
</g>
<g id="Layer_6">
</g>
<g id="Layer_7">
</g>
<g id="Layer_8">
</g>
<g id="Layer_9">
</g>
<g id="Layer_10">
</g>
<g id="Layer_11">
</g>
<g id="Layer_12">
</g>
<g id="Layer_13">
</g>
<g id="Layer_14">
</g>
<g id="Layer_15">
</g>
<g id="Layer_16">
</g>
<g id="Layer_17">
</g>
<g id="Layer_18">
</g>
<g id="Layer_19">
</g>
<g id="Layer_20">
</g>
<g id="Layer_21">
</g>
<g id="Layer_22">
</g>
<g id="Layer_23">
</g>
<g id="Layer_24">
</g>
<g id="Layer_25">
</g>
<g id="Layer_26">
</g>
<g id="Layer_27">
</g>
<g id="Layer_28">
</g>
<g id="Layer_29">
</g>
<g id="Layer_30">
</g>
<g id="Layer_31">
</g>
<g id="Layer_32">
</g>
<g id="Layer_33">
</g>
<g id="Layer_34">
</g>
<g id="Layer_35">
</g>
<g id="Layer_36">
</g>
<g id="Layer_37">
</g>
<g id="Layer_38">
</g>
<g id="Layer_39">
</g>
<g id="Layer_40">
</g>
<g id="Layer_41">
</g>
<g id="Layer_42">
</g>
<g id="Layer_43">
</g>
<g id="Layer_44">
</g>
<g id="Layer_45">
</g>
<g id="Layer_46">
</g>
<g id="Layer_47">
</g>
<g id="Layer_48">
</g>
<g id="Layer_49">
</g>
<g id="Layer_50">
</g>
<g id="Layer_51">
</g>
<g id="Layer_52">
	<g>
		<g>
			<g>
				<path class="st4" d="M138.194,187.287l-8.288,8.288c-3.23,3.23-8.467,3.23-11.698,0c-19.52-19.52-41.447-41.447-59.088-59.088
					c-3.23-3.23-3.23-8.468,0-11.698l8.288-8.288L34.793,72.672c-3.423,3.847-6.116,7.697-8.216,11.38
					c-6.802,11.93-7.918,26.328-3.223,39.235c5.737,15.772,13.286,29.413,18.962,38.552c4.345,6.996,9.504,13.45,15.327,19.273
					c5.629,5.629,10.261,10.262,15.941,15.942c5.824,5.823,12.277,10.982,19.273,15.327c9.139,5.676,22.78,13.225,38.552,18.962
					c12.906,4.694,27.304,3.579,39.235-3.223c3.683-2.1,7.533-4.793,11.38-8.216L138.194,187.287z"/>
			</g>
		</g>
		<g>
			<g>
				<path class="st5" d="M223.389,19.5h-96.777c-6.661,0-12.111,5.45-12.111,12.111v74.777c0,6.661,5.45,12.111,12.111,12.111h60.24
					c2.809,0,4.685,2.952,3.437,5.469c-3.406,6.87-8.699,12.636-15.211,16.612c-2.459,1.501-1.668,5.309,1.193,5.644
					c1.551,0.182,3.13,0.275,4.73,0.275c16.74,0,31.1-10.159,37.269-24.646c0.871-2.044,2.897-3.354,5.119-3.354
					c6.661,0,12.111-5.45,12.111-12.111V31.611C235.5,24.95,230.05,19.5,223.389,19.5z"/>
			</g>
		</g>
		<g>
			<g>
				<path class="st11" d="M196.748,62.355h-12.489c-1.49,0-2.699-1.208-2.699-2.699V47.167c0-1.49-1.208-2.698-2.699-2.698h-7.723
					c-1.49,0-2.699,1.208-2.699,2.698v12.489c0,1.491-1.208,2.699-2.699,2.699h-12.489c-1.49,0-2.699,1.208-2.699,2.699v7.723
					c0,1.49,1.208,2.699,2.699,2.699h12.489c1.491,0,2.699,1.208,2.699,2.699v12.489c0,1.49,1.208,2.698,2.699,2.698h7.723
					c1.49,0,2.699-1.208,2.699-2.698V78.174c0-1.49,1.208-2.699,2.699-2.699h12.489c1.49,0,2.699-1.208,2.699-2.699v-7.723
					C199.447,63.563,198.239,62.355,196.748,62.355z"/>
			</g>
		</g>
		<g>
			<g>
				<path class="st7" d="M83.912,104.754L49.256,58.183c-1.353-1.819-3.925-2.196-5.743-0.843l-9.662,7.19
					c-1.819,1.353-2.196,3.925-0.842,5.743l34.656,46.571c1.353,1.819,3.925,2.196,5.743,0.843l9.662-7.19
					C84.889,109.144,85.266,106.573,83.912,104.754z"/>
			</g>
		</g>
		<g>
			<g>
				<path class="st7" d="M196.513,205.44l-46.571-34.656c-1.819-1.353-4.39-0.976-5.743,0.843l-7.19,9.662
					c-1.353,1.819-0.976,4.39,0.843,5.743l46.571,34.656c1.819,1.353,4.39,0.976,5.743-0.843l7.19-9.662
					C198.709,209.365,198.332,206.793,196.513,205.44z"/>
			</g>
		</g>
		<g>
			<g>
				<g>
					<path d="M183.516,217.897l-43.829-32.616c-0.996-0.739-2.382-0.639-3.26,0.238l-8.289,8.288c-1.09,1.09-2.539,1.69-4.081,1.69
						s-2.991-0.601-4.082-1.69L60.889,134.72c-2.25-2.251-2.25-5.912,0-8.163l8.288-8.287c0.877-0.877,0.979-2.265,0.238-3.26
						L36.798,71.18c-0.449-0.604-1.146-0.973-1.896-1.006c-0.751-0.015-1.477,0.275-1.977,0.836
						c-3.305,3.714-6.172,7.686-8.521,11.804c-7.152,12.544-8.391,27.607-3.401,41.328c5.892,16.198,13.687,30.157,19.188,39.017
						c4.392,7.071,9.668,13.706,15.684,19.722l15.941,15.941c6.015,6.016,12.651,11.292,19.722,15.684
						c8.859,5.502,22.82,13.297,39.016,19.188c5.553,2.02,11.325,3.019,17.062,3.019c8.438,0,16.799-2.162,24.266-6.42
						c4.114-2.346,8.085-5.212,11.803-8.521c0.562-0.499,0.868-1.226,0.835-1.977S184.119,218.347,183.516,217.897z
						 M169.406,225.947c-11.266,6.423-24.804,7.534-37.142,3.046c-15.793-5.744-29.429-13.359-38.087-18.736
						c-6.746-4.189-13.08-9.226-18.824-14.971l-15.941-15.941c-5.745-5.745-10.782-12.079-14.972-18.825
						c-5.376-8.657-12.991-22.292-18.736-38.087c-4.488-12.339-3.378-25.877,3.045-37.143c1.689-2.963,3.672-5.848,5.914-8.606
						l29.452,39.578l-6.761,6.76c-4.199,4.2-4.199,11.034,0.001,15.233l59.087,59.088c2.034,2.035,4.739,3.155,7.617,3.155
						s5.582-1.12,7.616-3.155l6.761-6.761l39.577,29.452C175.251,222.277,172.367,224.26,169.406,225.947z"/>
				</g>
			</g>
		</g>
		<g>
			<g>
				<g>
					<path d="M223.389,17h-96.777C118.555,17,112,23.555,112,31.611v74.777c0,8.057,6.555,14.611,14.611,14.611h60.24
						c0.666,0,1.013,0.443,1.131,0.634c0.14,0.226,0.334,0.684,0.066,1.225c-3.197,6.448-8.133,11.839-14.274,15.589
						c-2.056,1.255-3.05,3.593-2.532,5.956c0.513,2.338,2.372,4.027,4.737,4.305c1.657,0.193,3.346,0.292,5.021,0.292
						c17.269,0,32.8-10.271,39.57-26.167c0.474-1.113,1.581-1.833,2.819-1.833c8.057,0,14.611-6.555,14.611-14.611V31.611
						C238,23.555,231.445,17,223.389,17z M233,106.389c0,5.3-4.312,9.611-9.611,9.611c-3.246,0-6.158,1.913-7.419,4.874
						C209.987,134.923,196.261,144,181,144c-1.481,0-2.975-0.087-4.44-0.259c-0.096-0.011-0.353-0.041-0.434-0.408
						c-0.06-0.271,0.026-0.479,0.253-0.618c6.948-4.243,12.532-10.341,16.148-17.636c0.967-1.949,0.856-4.223-0.296-6.081
						c-1.165-1.877-3.176-2.998-5.38-2.998h-60.24c-5.3,0-9.611-4.312-9.611-9.611V31.611c0-5.3,4.312-9.611,9.611-9.611h96.777
						c5.3,0,9.611,4.312,9.611,9.611V106.389z"/>
				</g>
			</g>
		</g>
		<g>
			<g>
				<g>
					<path d="M196.748,59.855h-12.489c-0.109,0-0.199-0.09-0.199-0.199V47.167c0-2.866-2.332-5.198-5.199-5.198h-7.723
						c-2.867,0-5.199,2.332-5.199,5.198v12.489c0,0.109-0.089,0.199-0.199,0.199h-12.489c-2.867,0-5.199,2.332-5.199,5.198v7.724
						c0,2.866,2.332,5.198,5.199,5.198h12.489c0.109,0,0.199,0.09,0.199,0.199v12.488c0,2.867,2.332,5.199,5.199,5.199h7.723
						c2.867,0,5.199-2.332,5.199-5.199V78.175c0-0.109,0.089-0.199,0.199-0.199h12.489c2.867,0,5.199-2.332,5.199-5.198v-7.724
						C201.947,62.188,199.615,59.855,196.748,59.855z M196.947,72.777c0,0.109-0.089,0.198-0.199,0.198h-12.489
						c-2.867,0-5.199,2.332-5.199,5.199v12.488c0,0.109-0.089,0.199-0.199,0.199h-7.723c-0.109,0-0.199-0.09-0.199-0.199V78.175
						c0-2.867-2.332-5.199-5.199-5.199h-12.489c-0.109,0-0.199-0.089-0.199-0.198v-7.724c0-0.109,0.089-0.198,0.199-0.198h12.489
						c2.867,0,5.199-2.332,5.199-5.199V47.167c0-0.109,0.089-0.198,0.199-0.198h7.723c0.109,0,0.199,0.089,0.199,0.198v12.489
						c0,2.867,2.332,5.199,5.199,5.199h12.489c0.109,0,0.199,0.089,0.199,0.198V72.777z"/>
				</g>
			</g>
		</g>
		<g>
			<g>
				<g>
					<path d="M85.917,103.262L51.262,56.69c-1.053-1.415-2.595-2.336-4.34-2.592c-1.745-0.257-3.486,0.183-4.901,1.236l-9.663,7.189
						c-2.921,2.174-3.529,6.319-1.356,9.242h0l34.656,46.57c1.053,1.416,2.594,2.337,4.34,2.593
						c0.325,0.048,0.649,0.071,0.972,0.071c1.41,0,2.777-0.451,3.929-1.308l9.661-7.19c1.416-1.053,2.336-2.594,2.593-4.34
						C87.41,106.417,86.971,104.677,85.917,103.262z M82.207,107.438c-0.062,0.424-0.286,0.798-0.63,1.054l-9.662,7.19
						c-0.344,0.256-0.769,0.363-1.19,0.301c-0.424-0.063-0.798-0.286-1.055-0.63l-34.657-46.57h0
						c-0.528-0.71-0.38-1.718,0.329-2.246l9.663-7.189c0.344-0.257,0.769-0.361,1.191-0.301c0.424,0.063,0.798,0.285,1.054,0.629
						l34.656,46.572C82.163,106.591,82.269,107.014,82.207,107.438z"/>
				</g>
			</g>
		</g>
		<g>
			<g>
				<g>
					<path d="M198.006,203.434l-46.571-34.656c-2.92-2.171-7.066-1.565-9.242,1.356l-7.189,9.661
						c-2.174,2.922-1.566,7.067,1.355,9.242l46.571,34.656c1.152,0.857,2.52,1.308,3.93,1.308c0.322,0,0.647-0.023,0.972-0.071
						c1.746-0.256,3.287-1.177,4.34-2.592l7.191-9.662C201.535,209.754,200.926,205.607,198.006,203.434z M195.35,209.691
						l-7.191,9.662c-0.255,0.344-0.63,0.566-1.054,0.629s-0.848-0.044-1.191-0.301l-46.571-34.656
						c-0.344-0.256-0.567-0.63-0.63-1.055c-0.062-0.424,0.044-0.847,0.301-1.19l7.189-9.661c0.315-0.424,0.8-0.646,1.29-0.646
						c0.333,0,0.669,0.103,0.956,0.316l46.571,34.656C195.73,207.974,195.878,208.981,195.35,209.691z"/>
				</g>
			</g>
		</g>
		<g>
			<g>
				<path class="st5" d="M73.206,225.1h-2.4v-2.3c0-1.8-1.4-3.2-3.2-3.2c-1.7,0-3.2,1.4-3.2,3.1v2.4h-2.3c-1.8,0-3.2,1.4-3.2,3.2
					c-0.1,1.7,1.3,3.2,3.2,3.2h2.3v2.3c0,1.8,1.4,3.2,3.2,3.2c1.7,0,3.2-1.4,3.2-3.1v-2.4h2.3c1.8,0,3.2-1.4,3.2-3.2
					C76.306,226.6,74.906,225.1,73.206,225.1z"/>
			</g>
		</g>
		<g>
			<g>
				<path class="st4" d="M112.506,0c-1.878,0-3.4,1.522-3.4,3.4c0,1.878,1.522,3.4,3.4,3.4c1.878,0,3.4-1.522,3.4-3.4
					C115.906,1.522,114.384,0,112.506,0z"/>
			</g>
		</g>
		<g>
			<g>
				<path class="st6" d="M101.506,249.2c-1.878,0-3.4,1.522-3.4,3.4c0,1.878,1.522,3.4,3.4,3.4c1.878,0,3.4-1.522,3.4-3.4
					C104.906,250.722,103.384,249.2,101.506,249.2z"/>
			</g>
		</g>
		<g>
			<g>
				<path class="st9" d="M212.288,166.2c-3.1-0.6-5.6-3-6.2-6.1c0-0.1-0.3-0.1-0.3,0c-0.6,3.1-3.1,5.5-6.2,6.1c-0.1,0-0.1,0.2,0,0.3
					c3.1,0.6,5.6,3,6.2,6.1c0,0.1,0.3,0.1,0.3,0c0.6-3.1,3.1-5.5,6.2-6.1C212.388,166.4,212.388,166.2,212.288,166.2z"/>
			</g>
		</g>
		<g>
			<g>
				<path class="st6" d="M94.288,24.2c-4.5-0.8-8-4.3-8.9-8.7c0-0.2-0.4-0.2-0.4,0c-0.9,4.4-4.4,7.9-8.9,8.7c-0.2,0-0.2,0.3,0,0.4
					c4.5,0.8,8,4.3,8.9,8.7c0,0.2,0.4,0.2,0.4,0c0.9-4.4,4.4-7.9,8.9-8.7C94.488,24.5,94.488,24.2,94.288,24.2z"/>
			</g>
		</g>
	</g>
</g>
<g id="Layer_53">
</g>
<g id="Layer_54">
</g>
<g id="Layer_55">
</g>
<g id="Layer_56">
</g>
<g id="Layer_57">
</g>
<g id="Layer_58">
</g>
<g id="Layer_59">
</g>
<g id="Layer_60">
</g>
<g id="Layer_61">
</g>
<g id="Layer_62">
</g>
<g id="Layer_63">
</g>
<g id="Layer_64">
</g>
<g id="Layer_65">
</g>
<g id="Layer_66">
</g>
<g id="Layer_67">
</g>
<g id="Layer_68">
</g>
<g id="Layer_69">
</g>
<g id="Layer_70">
</g>
<g id="Layer_71">
</g>
<g id="Layer_72">
</g>
<g id="Layer_73">
</g>
<g id="Layer_74">
</g>
<g id="Layer_75">
</g>
<g id="Layer_76">
</g>
<g id="Layer_77">
</g>
<g id="Layer_78">
</g>
<g id="Layer_79">
</g>
<g id="Layer_80">
</g>
</svg>
