<?xml version="1.0" encoding="utf-8"?>
<!-- Generator: Adobe Illustrator 24.0.0, SVG Export Plug-In . SVG Version: 6.00 Build 0)  -->
<svg version="1.1" xmlns="http://www.w3.org/2000/svg" xmlns:xlink="http://www.w3.org/1999/xlink" x="0px" y="0px"
	 viewBox="0 0 256 256" style="enable-background:new 0 0 256 256;" xml:space="preserve">
<style type="text/css">
	.st0{fill:#6CADEF;}
	.st1{fill:#F9D0B4;}
	.st2{fill:#5B5D60;}
	.st3{fill:#9BE5F9;}
	.st4{fill:#FC657E;}
	.st5{fill:#70D6F9;}
	.st6{fill:#F5C84C;}
	.st7{fill:#F98FA6;}
	.st8{fill:#FED690;}
	.st9{fill:#87D147;}
	.st10{fill:#B2E26D;}
	.st11{fill:#EDF4FC;}
	.st12{fill:#FCDD86;}
	.st13{fill:#754E34;}
	.st14{fill:#B598F9;}
	.st15{fill:#5290DB;}
	.st16{fill:#C7D7E5;}
	.st17{fill:#C18E6B;}
	.st18{fill:#DAE6F1;}
	.st19{fill:#3CAADC;}
	.st20{fill:#818182;}
	.st21{fill:#CBEFF7;}
	.st22{fill:#FCA265;}
	.st23{fill:#A57453;}
	.st24{fill:#8652D8;}
	.st25{fill:#966AEA;}
	.st26{fill:#FEB872;}
	.st27{fill:#EDB311;}
	.st28{fill:#EF4460;}
</style>
<g id="Layer_1">
</g>
<g id="Layer_2">
</g>
<g id="Layer_3">
</g>
<g id="Layer_4">
</g>
<g id="Layer_5">
</g>
<g id="Layer_6">
</g>
<g id="Layer_7">
</g>
<g id="Layer_8">
</g>
<g id="Layer_9">
</g>
<g id="Layer_10">
</g>
<g id="Layer_11">
</g>
<g id="Layer_12">
</g>
<g id="Layer_13">
</g>
<g id="Layer_14">
</g>
<g id="Layer_15">
</g>
<g id="Layer_16">
</g>
<g id="Layer_17">
</g>
<g id="Layer_18">
</g>
<g id="Layer_19">
</g>
<g id="Layer_20">
</g>
<g id="Layer_21">
</g>
<g id="Layer_22">
</g>
<g id="Layer_23">
</g>
<g id="Layer_24">
</g>
<g id="Layer_25">
</g>
<g id="Layer_26">
</g>
<g id="Layer_27">
</g>
<g id="Layer_28">
</g>
<g id="Layer_29">
</g>
<g id="Layer_30">
</g>
<g id="Layer_31">
</g>
<g id="Layer_32">
</g>
<g id="Layer_33">
</g>
<g id="Layer_34">
</g>
<g id="Layer_35">
</g>
<g id="Layer_36">
</g>
<g id="Layer_37">
</g>
<g id="Layer_38">
</g>
<g id="Layer_39">
</g>
<g id="Layer_40">
</g>
<g id="Layer_41">
</g>
<g id="Layer_42">
</g>
<g id="Layer_43">
</g>
<g id="Layer_44">
</g>
<g id="Layer_45">
</g>
<g id="Layer_46">
</g>
<g id="Layer_47">
</g>
<g id="Layer_48">
</g>
<g id="Layer_49">
</g>
<g id="Layer_50">
</g>
<g id="Layer_51">
</g>
<g id="Layer_52">
</g>
<g id="Layer_53">
</g>
<g id="Layer_54">
</g>
<g id="Layer_55">
</g>
<g id="Layer_56">
</g>
<g id="Layer_57">
	<g>
		<g>
			<g>
				<path class="st11" d="M176.103,19.8c-12.197,0-23.844,5.073-32.152,14.003L31.305,154.897
					c-4.208,4.524-4.081,11.567,0.288,15.936l7.654,7.654c4.369,4.369,11.412,4.496,15.936,0.288L176.277,66.129
					c8.93-8.307,14.003-19.955,14.003-32.152C190.281,26.147,183.933,19.8,176.103,19.8z"/>
			</g>
		</g>
		<g>
			<g>
				<path class="st5" d="M36.508,19.222L25.464,30.266c-2.178,2.177-2.178,5.708,0,7.885L87.963,93.99l28.191-30.306L36.508,19.222z
					"/>
			</g>
		</g>
		<g>
			<g>
				<path class="st5" d="M90.341,188.06l-5.525-36.85l-26.023,24.208l11.34,28.725c1.435,3.636,6.127,4.611,8.891,1.846l8.068-8.068
					C89.678,195.334,90.883,191.676,90.341,188.06z"/>
			</g>
		</g>
		<g>
			<g>
				<path class="st5" d="M22.02,119.739c-3.616-0.542-7.275,0.663-9.86,3.249l-8.068,8.068c-2.764,2.764-1.79,7.456,1.846,8.891
					l28.725,11.34l24.208-26.023L22.02,119.739z"/>
			</g>
		</g>
		<g>
			<g>
				<path class="st12" d="M251.662,211.992l-62.229-104.477c-5.005-8.403-17.173-8.403-22.178,0l-62.229,104.477
					c-5.125,8.604,1.075,19.512,11.089,19.512h124.458C250.587,231.504,256.787,220.595,251.662,211.992z"/>
			</g>
		</g>
		<g>
			<g>
				<polygon class="st5" points="146.396,93.926 116.091,122.117 141.57,150.636 160.403,119.017 				"/>
			</g>
		</g>
		<g>
			<g>
				<path class="st6" d="M243.071,217.109l-62.229-104.477c-0.736-1.235-1.881-1.42-2.499-1.42c-0.617,0-1.762,0.185-2.497,1.42h0
					l-62.229,104.477c-0.715,1.201-0.411,2.253-0.03,2.924s1.129,1.471,2.528,1.471h124.458c1.472,0,2.216-0.922,2.528-1.471
					C243.482,219.362,243.786,218.31,243.071,217.109z"/>
			</g>
		</g>
		<g>
			<g>
				<path class="st2" d="M178.344,143.92c-3.673,0-6.652,2.979-6.652,6.652v28.055c0,3.674,2.978,6.652,6.652,6.652
					c3.674,0,6.652-2.978,6.652-6.652v-28.055C184.996,146.899,182.017,143.92,178.344,143.92z"/>
			</g>
		</g>
		<g>
			<g>
				
					<ellipse transform="matrix(0.9871 -0.1602 0.1602 0.9871 -29.9803 31.17)" class="st2" cx="178.344" cy="201.54" rx="7.317" ry="7.317"/>
			</g>
		</g>
		<g>
			<g>
				<path class="st20" d="M168.478,41.602c-4.543-4.542-12.287-4.163-14.654-1.795s0.111,7.254,4.653,11.797
					c4.543,4.542,9.43,7.021,11.797,4.653C172.641,53.889,173.021,46.144,168.478,41.602z"/>
			</g>
		</g>
		<g>
			<g>
				<polygon class="st3" points="36.508,19.222 28.212,27.518 108.24,72.192 116.155,63.684 				"/>
			</g>
		</g>
		<g>
			<g>
				<path class="st16" d="M176.103,19.799L176.103,19.799c-3.537,0-7.024,0.439-10.401,1.263l23.315,23.315
					c0.823-3.376,1.263-6.864,1.263-10.4C190.281,26.147,183.933,19.8,176.103,19.799z"/>
			</g>
		</g>
		<g>
			<g>
				<polygon class="st3" points="146.396,93.925 137.888,101.84 153.731,130.22 160.404,119.017 				"/>
			</g>
		</g>
		<g>
			<g>
				<path class="st4" d="M219.288,101.2c-3.1-0.6-5.6-3-6.2-6.1c0-0.1-0.3-0.1-0.3,0c-0.6,3.1-3.1,5.5-6.2,6.1c-0.1,0-0.1,0.2,0,0.3
					c3.1,0.6,5.6,3,6.2,6.1c0,0.1,0.3,0.1,0.3,0c0.6-3.1,3.1-5.5,6.2-6.1C219.388,101.4,219.388,101.2,219.288,101.2z"/>
			</g>
		</g>
		<g>
			<g>
				<path class="st5" d="M84.206,234.3h-2.4V232c0-1.8-1.4-3.2-3.2-3.2c-1.7,0-3.2,1.4-3.2,3.1v2.4h-2.3c-1.8,0-3.2,1.4-3.2,3.2
					c-0.1,1.7,1.3,3.2,3.2,3.2h2.3v2.3c0,1.8,1.4,3.2,3.2,3.2c1.7,0,3.2-1.4,3.2-3.1v-2.4h2.3c1.8,0,3.2-1.4,3.2-3.2
					C87.306,235.8,85.906,234.3,84.206,234.3z"/>
			</g>
		</g>
		<g>
			<g>
				<path class="st9" d="M138.506,0c-1.878,0-3.4,1.522-3.4,3.4c0,1.878,1.522,3.4,3.4,3.4c1.878,0,3.4-1.522,3.4-3.4
					C141.906,1.522,140.384,0,138.506,0z"/>
			</g>
		</g>
		<g>
			<g>
				<path class="st6" d="M109.506,249.2c-1.878,0-3.4,1.522-3.4,3.4c0,1.878,1.522,3.4,3.4,3.4c1.878,0,3.4-1.522,3.4-3.4
					C112.906,250.722,111.384,249.2,109.506,249.2z"/>
			</g>
		</g>
		<g>
			<g>
				<path class="st6" d="M116.288,19.4c-4.5-0.8-8-4.3-8.9-8.7c0-0.2-0.4-0.2-0.4,0c-0.9,4.4-4.4,7.9-8.9,8.7c-0.2,0-0.2,0.3,0,0.4
					c4.5,0.8,8,4.3,8.9,8.7c0,0.2,0.4,0.2,0.4,0c0.9-4.4,4.4-7.9,8.9-8.7C116.488,19.7,116.488,19.4,116.288,19.4z"/>
			</g>
		</g>
		<g>
			<g>
				<g>
					<path d="M176.103,17.3c-12.847,0-25.233,5.395-33.982,14.8L29.475,153.193c-5.149,5.536-4.996,14.061,0.35,19.407l7.654,7.654
						c2.738,2.737,6.308,4.113,9.884,4.113c3.408,0,6.822-1.25,9.522-3.764L177.98,67.959c9.406-8.749,14.801-21.135,14.801-33.981
						C192.781,24.781,185.299,17.3,176.103,17.3z M174.575,64.299L53.48,176.944c-3.555,3.307-9.031,3.209-12.465-0.225
						l-7.653-7.654c-3.434-3.435-3.533-8.91-0.225-12.466L145.782,35.506c7.806-8.393,18.858-13.206,30.321-13.206
						c6.439,0,11.678,5.238,11.678,11.678C187.781,45.44,182.967,56.492,174.575,64.299z"/>
				</g>
			</g>
		</g>
		<g>
			<g>
				<path d="M46.601,9.129c-0.976-0.977-2.56-0.977-3.535,0L28.08,24.115c-0.977,0.977-0.977,2.559,0,3.535
					c0.488,0.488,1.128,0.732,1.768,0.732s1.28-0.244,1.768-0.732l14.986-14.986C47.578,11.688,47.578,10.105,46.601,9.129z"/>
			</g>
		</g>
		<g>
			<g>
				<g>
					<path d="M118.625,63.295c-0.12-0.759-0.581-1.42-1.251-1.794L37.727,17.039c-0.977-0.546-2.196-0.376-2.986,0.415
						L23.696,28.498c-3.148,3.148-3.148,8.272,0,11.421c0.033,0.033,0.067,0.065,0.103,0.097l62.5,55.838
						c0.477,0.426,1.071,0.636,1.665,0.636c0.67,0,1.339-0.269,1.831-0.797l28.191-30.306
						C118.508,64.824,118.744,64.053,118.625,63.295z M87.802,90.492L27.189,36.341c-1.157-1.203-1.143-3.122,0.042-4.308
						l9.708-9.707l75.215,41.987L87.802,90.492z"/>
				</g>
			</g>
		</g>
		<g>
			<g>
				<g>
					<path d="M92.813,187.688l-5.525-36.85c-0.137-0.917-0.771-1.683-1.647-1.989c-0.876-0.306-1.849-0.103-2.528,0.53
						L57.09,173.587c-0.753,0.7-1,1.791-0.623,2.748l11.34,28.725c0.984,2.494,3.139,4.308,5.764,4.854
						c0.541,0.112,1.084,0.167,1.623,0.167c2.079,0,4.092-0.818,5.598-2.324l8.067-8.067
						C91.992,196.557,93.47,192.071,92.813,187.688z M85.324,196.152l-8.067,8.067c-0.711,0.712-1.685,1.004-2.668,0.798
						c-0.984-0.205-1.761-0.858-2.13-1.794l-10.714-27.138l21.302-19.815l4.822,32.159C88.292,191.25,87.34,194.137,85.324,196.152z
						"/>
				</g>
			</g>
		</g>
		<g>
			<g>
				<g>
					<path d="M61.23,124.438c-0.306-0.876-1.072-1.51-1.989-1.647l-36.85-5.524c-4.38-0.654-8.867,0.82-11.999,3.953l-8.068,8.068
						c-1.896,1.896-2.702,4.595-2.157,7.22s2.359,4.78,4.853,5.765l28.725,11.34c0.298,0.118,0.609,0.175,0.917,0.175
						c0.681,0,1.349-0.278,1.831-0.797l24.208-26.023C61.333,126.287,61.537,125.314,61.23,124.438z M33.995,148.335L6.856,137.622
						c-0.935-0.369-1.589-1.146-1.793-2.131c-0.205-0.984,0.086-1.957,0.797-2.668l8.068-8.068c1.7-1.699,4.02-2.642,6.396-2.642
						c0.441,0,0.885,0.032,1.326,0.099l32.161,4.821L33.995,148.335z"/>
				</g>
			</g>
		</g>
		<g>
			<g>
				<path d="M66.157,143.923c-0.976-0.977-2.56-0.977-3.535,0l-33.868,33.868c-0.977,0.977-0.977,2.559,0,3.535
					c0.488,0.488,1.128,0.732,1.768,0.732s1.28-0.244,1.768-0.732l33.868-33.868C67.133,146.481,67.133,144.899,66.157,143.923z"/>
			</g>
		</g>
		<g>
			<g>
				<g>
					<path d="M253.81,210.712l-62.229-104.477c-2.806-4.711-7.755-7.522-13.238-7.522s-10.431,2.813-13.237,7.522l-62.229,104.477
						c-2.873,4.823-2.932,10.617-0.158,15.498c2.773,4.88,7.781,7.794,13.395,7.794h124.458c5.614,0,10.621-2.914,13.395-7.794
						C256.742,221.329,256.683,215.535,253.81,210.712z M249.621,223.739c-1.874,3.297-5.256,5.265-9.048,5.265H116.115
						c-3.792,0-7.175-1.968-9.048-5.265s-1.833-7.21,0.107-10.469l62.229-104.477c1.895-3.182,5.237-5.081,8.941-5.081
						s7.047,1.899,8.942,5.081l62.229,104.477C251.455,216.528,251.495,220.442,249.621,223.739z"/>
				</g>
			</g>
		</g>
		<g>
			<g>
				<g>
					<path d="M162.586,117.799L148.58,92.707c-0.375-0.67-1.036-1.132-1.794-1.251c-0.757-0.122-1.529,0.116-2.091,0.64
						l-30.306,28.191c-0.997,0.927-1.068,2.48-0.162,3.496l25.48,28.519c0.477,0.533,1.156,0.834,1.864,0.834
						c0.08,0,0.16-0.004,0.24-0.012c0.792-0.076,1.501-0.525,1.908-1.209l18.833-31.618
						C163.008,119.53,163.021,118.578,162.586,117.799z M141.166,146.431l-21.578-24.152l26.179-24.353l11.751,21.052
						L141.166,146.431z"/>
				</g>
			</g>
		</g>
		<g>
			<g>
				<g>
					<path d="M245.219,215.83L182.99,111.354c-1-1.678-2.693-2.641-4.646-2.641c-1.953,0-3.646,0.963-4.646,2.641L111.469,215.83
						c-1.023,1.718-1.043,3.7-0.055,5.438c0.988,1.738,2.702,2.735,4.701,2.735h124.458c2,0,3.713-0.997,4.701-2.735
						S246.242,217.548,245.219,215.83z M240.927,218.798c-0.117,0.206-0.217,0.206-0.354,0.206H116.115
						c-0.198,0-0.247-0.017-0.354-0.206c-0.107-0.189-0.097-0.239,0.004-0.409l62.23-104.478c0.066-0.11,0.118-0.198,0.349-0.198
						c0.232,0,0.284,0.088,0.351,0.199l62.229,104.477C241.024,218.559,241.035,218.608,240.927,218.798z"/>
				</g>
			</g>
		</g>
		<g>
			<g>
				<g>
					<g>
						<path d="M178.344,141.421c-5.046,0-9.152,4.105-9.152,9.151v28.056c0,5.046,4.105,9.151,9.152,9.151s9.152-4.105,9.152-9.151
							v-28.056C187.496,145.526,183.39,141.421,178.344,141.421z M182.496,178.628c0,2.289-1.862,4.151-4.152,4.151
							s-4.152-1.862-4.152-4.151v-28.056c0-2.289,1.862-4.151,4.152-4.151s4.152,1.862,4.152,4.151V178.628z"/>
					</g>
				</g>
			</g>
		</g>
		<g>
			<g>
				<g>
					<path d="M178.344,191.723c-5.413,0-9.817,4.404-9.817,9.817s4.404,9.817,9.817,9.817s9.817-4.404,9.817-9.817
						S183.757,191.723,178.344,191.723z M178.344,206.357c-2.656,0-4.817-2.161-4.817-4.817s2.161-4.817,4.817-4.817
						c2.656,0,4.817,2.161,4.817,4.817S181,206.357,178.344,206.357z"/>
				</g>
			</g>
		</g>
		<g>
			<g>
				<g>
					<path d="M170.246,39.834c-5.288-5.289-14.577-5.409-18.19-1.796c-3.343,3.344-1.604,9.076,4.653,15.333
						c4.16,4.16,8.088,6.322,11.236,6.322c1.587,0,2.976-0.549,4.096-1.67C175.655,54.41,175.534,45.122,170.246,39.834z
						 M168.506,54.488c-0.648,0.644-3.961-0.353-8.261-4.652s-5.301-7.615-4.653-8.263c0.565-0.564,2.035-0.977,3.813-0.977
						c2.357,0,5.257,0.724,7.306,2.772C170.304,46.963,169.82,53.174,168.506,54.488z"/>
				</g>
			</g>
		</g>
		<g>
			<g>
				<g>
					<path d="M118.625,63.295c-0.12-0.759-0.581-1.42-1.251-1.794L37.727,17.039c-0.977-0.546-2.196-0.376-2.986,0.415l-8.296,8.296
						c-0.554,0.554-0.816,1.336-0.708,2.111c0.108,0.776,0.573,1.457,1.257,1.839l80.028,44.675
						c0.383,0.214,0.802,0.317,1.218,0.317c0.677,0,1.345-0.274,1.832-0.797l7.915-8.509
						C118.508,64.824,118.744,64.053,118.625,63.295z M107.746,69.054L32.318,26.946l4.621-4.62l75.215,41.987L107.746,69.054z"/>
				</g>
			</g>
		</g>
		<g>
			<g>
				<g>
					<path d="M176.103,17.3c-3.664,0-7.362,0.449-10.993,1.334c-0.877,0.214-1.571,0.885-1.815,1.754
						c-0.244,0.87,0.001,1.804,0.64,2.442l23.315,23.315c0.475,0.476,1.114,0.732,1.768,0.732c0.225,0,0.452-0.03,0.674-0.093
						c0.87-0.243,1.541-0.938,1.754-1.814c0.886-3.629,1.334-7.328,1.334-10.993C192.781,24.781,185.299,17.3,176.103,17.3z
						 M187.435,39.26l-16.614-16.614c1.761-0.229,3.526-0.346,5.282-0.346c6.439,0,11.678,5.238,11.678,11.678
						C187.781,35.733,187.665,37.499,187.435,39.26z"/>
				</g>
			</g>
		</g>
		<g>
			<g>
				<g>
					<path d="M162.586,117.799L148.58,92.707c-0.375-0.67-1.036-1.132-1.794-1.251c-0.757-0.122-1.529,0.116-2.091,0.64
						l-8.509,7.915c-0.843,0.784-1.042,2.043-0.48,3.049l15.843,28.38c0.436,0.78,1.254,1.269,2.148,1.281c0.012,0,0.023,0,0.035,0
						c0.88,0,1.697-0.463,2.148-1.221l6.673-11.203C163.008,119.53,163.021,118.578,162.586,117.799z M153.801,125.218
						l-12.774-22.883l4.74-4.409l11.751,21.052L153.801,125.218z"/>
				</g>
			</g>
		</g>
	</g>
</g>
<g id="Layer_58">
</g>
<g id="Layer_59">
</g>
<g id="Layer_60">
</g>
<g id="Layer_61">
</g>
<g id="Layer_62">
</g>
<g id="Layer_63">
</g>
<g id="Layer_64">
</g>
<g id="Layer_65">
</g>
<g id="Layer_66">
</g>
<g id="Layer_67">
</g>
<g id="Layer_68">
</g>
<g id="Layer_69">
</g>
<g id="Layer_70">
</g>
<g id="Layer_71">
</g>
<g id="Layer_72">
</g>
<g id="Layer_73">
</g>
<g id="Layer_74">
</g>
<g id="Layer_75">
</g>
<g id="Layer_76">
</g>
<g id="Layer_77">
</g>
<g id="Layer_78">
</g>
<g id="Layer_79">
</g>
<g id="Layer_80">
</g>
</svg>
