<?xml version="1.0" encoding="utf-8"?>
<!-- Generator: Adobe Illustrator 24.0.0, SVG Export Plug-In . SVG Version: 6.00 Build 0)  -->
<svg version="1.1" xmlns="http://www.w3.org/2000/svg" xmlns:xlink="http://www.w3.org/1999/xlink" x="0px" y="0px"
	 viewBox="0 0 256 256" style="enable-background:new 0 0 256 256;" xml:space="preserve">
<style type="text/css">
	.st0{fill:#6CADEF;}
	.st1{fill:#F9D0B4;}
	.st2{fill:#5B5D60;}
	.st3{fill:#9BE5F9;}
	.st4{fill:#FC657E;}
	.st5{fill:#70D6F9;}
	.st6{fill:#F5C84C;}
	.st7{fill:#F98FA6;}
	.st8{fill:#FED690;}
	.st9{fill:#87D147;}
	.st10{fill:#B2E26D;}
	.st11{fill:#EDF4FC;}
	.st12{fill:#FCDD86;}
	.st13{fill:#754E34;}
	.st14{fill:#B598F9;}
	.st15{fill:#5290DB;}
	.st16{fill:#C7D7E5;}
	.st17{fill:#C18E6B;}
	.st18{fill:#DAE6F1;}
	.st19{fill:#3CAADC;}
	.st20{fill:#818182;}
	.st21{fill:#CBEFF7;}
	.st22{fill:#FCA265;}
	.st23{fill:#A57453;}
	.st24{fill:#8652D8;}
	.st25{fill:#966AEA;}
	.st26{fill:#FEB872;}
	.st27{fill:#EDB311;}
	.st28{fill:#EF4460;}
</style>
<g id="Layer_1">
</g>
<g id="Layer_2">
</g>
<g id="Layer_3">
</g>
<g id="Layer_4">
</g>
<g id="Layer_5">
</g>
<g id="Layer_6">
</g>
<g id="Layer_7">
</g>
<g id="Layer_8">
</g>
<g id="Layer_9">
</g>
<g id="Layer_10">
</g>
<g id="Layer_11">
</g>
<g id="Layer_12">
</g>
<g id="Layer_13">
</g>
<g id="Layer_14">
</g>
<g id="Layer_15">
</g>
<g id="Layer_16">
</g>
<g id="Layer_17">
</g>
<g id="Layer_18">
</g>
<g id="Layer_19">
</g>
<g id="Layer_20">
</g>
<g id="Layer_21">
</g>
<g id="Layer_22">
</g>
<g id="Layer_23">
</g>
<g id="Layer_24">
</g>
<g id="Layer_25">
</g>
<g id="Layer_26">
</g>
<g id="Layer_27">
</g>
<g id="Layer_28">
</g>
<g id="Layer_29">
</g>
<g id="Layer_30">
	<g>
		<g>
			<g>
				<path class="st11" d="M109,242.5H34c-3.025,0-5.5,2.475-5.5,5.5c0,3.025,2.475,5.5,5.5,5.5h75c3.025,0,5.5-2.475,5.5-5.5
					C114.5,244.975,112.025,242.5,109,242.5z"/>
			</g>
		</g>
		<g>
			<g>
				<path class="st16" d="M100.697,221.5H42.303c-3.192,0-5.803,2.611-5.803,5.803V242.5h70v-15.197
					C106.5,224.111,103.889,221.5,100.697,221.5z"/>
			</g>
		</g>
		<g>
			<g>
				<path class="st18" d="M78.088,16.226H64.499c-6.899,0-12.543,5.644-12.543,12.543V221.5h38.675V28.769
					C90.631,21.871,84.986,16.226,78.088,16.226z"/>
			</g>
		</g>
		<g>
			<g>
				<path class="st0" d="M89.457,23.518C79.17,25.363,71.293,34.39,71.293,45.187v97.822c0,11.204,8.481,20.507,19.337,21.849
					V28.769C90.631,26.895,90.202,25.119,89.457,23.518z"/>
			</g>
		</g>
		<g>
			<g>
				<path class="st21" d="M78.044,36.609c-3.713,0-6.75,3.037-6.75,6.75v101.478c0,3.713,3.038,6.75,6.75,6.75h12.587V36.609H78.044
					z"/>
			</g>
		</g>
		<g>
			<g>
				<path class="st5" d="M83.042,46.75c-1.019,0-1.852,0.833-1.852,1.852v90.992c0,1.019,0.833,1.852,1.852,1.852h7.589V46.75
					H83.042z"/>
			</g>
		</g>
		<g>
			<g>
				<path class="st9" d="M171.187,197.1h-2.4v-2.3c0-1.8-1.4-3.2-3.2-3.2c-1.7,0-3.2,1.4-3.2,3.1v2.4h-2.3c-1.8,0-3.2,1.4-3.2,3.2
					c-0.1,1.7,1.3,3.2,3.2,3.2h2.3v2.3c0,1.8,1.4,3.2,3.2,3.2c1.7,0,3.2-1.4,3.2-3.1v-2.4h2.3c1.8,0,3.2-1.4,3.2-3.2
					C174.287,198.6,172.887,197.1,171.187,197.1z"/>
			</g>
		</g>
		<g>
			<g>
				<path class="st6" d="M193.487,185c-1.878,0-3.4,1.522-3.4,3.4c0,1.878,1.522,3.4,3.4,3.4c1.878,0,3.4-1.522,3.4-3.4
					C196.887,186.522,195.365,185,193.487,185z"/>
			</g>
		</g>
		<g>
			<g>
				<path class="st6" d="M40.269,148.2c-3.1-0.6-5.6-3-6.2-6.1c0-0.1-0.3-0.1-0.3,0c-0.6,3.1-3.1,5.5-6.2,6.1c-0.1,0-0.1,0.2,0,0.3
					c3.1,0.6,5.6,3,6.2,6.1c0,0.1,0.3,0.1,0.3,0c0.6-3.1,3.1-5.5,6.2-6.1C40.369,148.4,40.369,148.2,40.269,148.2z"/>
			</g>
		</g>
		<g>
			<g>
				<path class="st4" d="M108.381,0c-1.878,0-3.4,1.522-3.4,3.4c0,1.878,1.522,3.4,3.4,3.4c1.878,0,3.4-1.522,3.4-3.4
					C111.781,1.522,110.259,0,108.381,0z"/>
			</g>
		</g>
		<g>
			<g>
				<path class="st5" d="M143.269,20.2c-4.5-0.8-8-4.3-8.9-8.7c0-0.2-0.4-0.2-0.4,0c-0.9,4.4-4.4,7.9-8.9,8.7c-0.2,0-0.2,0.3,0,0.4
					c4.5,0.8,8,4.3,8.9,8.7c0,0.2,0.4,0.2,0.4,0c0.9-4.4,4.4-7.9,8.9-8.7C143.469,20.5,143.469,20.2,143.269,20.2z"/>
			</g>
		</g>
		<g>
			<g>
				<circle class="st4" cx="176.752" cy="143.654" r="10.264"/>
			</g>
		</g>
		<g>
			<g>
				<g>
					<path d="M176.752,130.89c-7.038,0-12.765,5.726-12.765,12.764s5.727,12.764,12.765,12.764s12.764-5.726,12.764-12.764
						S183.79,130.89,176.752,130.89z M176.752,151.418c-4.281,0-7.765-3.483-7.765-7.764s3.483-7.764,7.765-7.764
						s7.764,3.483,7.764,7.764S181.033,151.418,176.752,151.418z"/>
				</g>
			</g>
		</g>
		<g>
			<g>
				<path d="M176.752,124.977c-1.381,0-2.5,1.119-2.5,2.5v4.195c0,1.381,1.119,2.5,2.5,2.5s2.5-1.119,2.5-2.5v-4.195
					C179.252,126.096,178.133,124.977,176.752,124.977z"/>
			</g>
		</g>
		<g>
			<g>
				<path d="M179.374,122.879h-5.244c-1.381,0-2.5,1.119-2.5,2.5s1.119,2.5,2.5,2.5h5.244c1.381,0,2.5-1.119,2.5-2.5
					S180.755,122.879,179.374,122.879z"/>
			</g>
		</g>
		<g>
			<g>
				<path d="M176.752,153.137c-1.381,0-2.5,1.119-2.5,2.5v4.195c0,1.381,1.119,2.5,2.5,2.5s2.5-1.119,2.5-2.5v-4.195
					C179.252,154.256,178.133,153.137,176.752,153.137z"/>
			</g>
		</g>
		<g>
			<g>
				<path d="M179.374,159.43h-5.244c-1.381,0-2.5,1.119-2.5,2.5s1.119,2.5,2.5,2.5h5.244c1.381,0,2.5-1.119,2.5-2.5
					S180.755,159.43,179.374,159.43z"/>
			</g>
		</g>
		<g>
			<g>
				<path d="M167.625,135.498l-3.634-2.098c-1.192-0.69-2.725-0.281-3.415,0.915c-0.69,1.196-0.28,2.725,0.915,3.415l3.634,2.098
					c0.394,0.228,0.823,0.335,1.248,0.335c0.863,0,1.704-0.449,2.167-1.25C169.23,137.717,168.82,136.188,167.625,135.498z"/>
			</g>
		</g>
		<g>
			<g>
				<path d="M163.486,130.081c-1.192-0.689-2.725-0.282-3.415,0.915l-2.622,4.542c-0.69,1.196-0.28,2.725,0.915,3.415
					c0.394,0.228,0.823,0.335,1.248,0.335c0.863,0,1.704-0.448,2.167-1.25l2.622-4.542
					C165.092,132.3,164.682,130.771,163.486,130.081z"/>
			</g>
		</g>
		<g>
			<g>
				<path d="M192.013,149.578l-3.634-2.098c-1.192-0.69-2.725-0.281-3.415,0.915c-0.69,1.196-0.28,2.725,0.915,3.415l3.634,2.098
					c0.394,0.228,0.823,0.335,1.248,0.335c0.863,0,1.704-0.449,2.167-1.25C193.618,151.797,193.208,150.268,192.013,149.578z"/>
			</g>
		</g>
		<g>
			<g>
				<path d="M195.14,148.356c-1.193-0.69-2.725-0.282-3.415,0.915l-2.622,4.542c-0.69,1.196-0.28,2.725,0.915,3.415
					c0.394,0.228,0.823,0.335,1.248,0.335c0.863,0,1.704-0.448,2.167-1.25l2.622-4.542
					C196.745,150.575,196.335,149.046,195.14,148.356z"/>
			</g>
		</g>
		<g>
			<g>
				<path d="M168.54,148.396c-0.69-1.197-2.223-1.605-3.415-0.915l-3.634,2.098c-1.195,0.69-1.605,2.219-0.915,3.415
					c0.463,0.802,1.304,1.25,2.167,1.25c0.425,0,0.854-0.108,1.248-0.335l3.634-2.098C168.82,151.121,169.23,149.591,168.54,148.396
					z"/>
			</g>
		</g>
		<g>
			<g>
				<path d="M164.401,153.813l-2.622-4.542c-0.691-1.197-2.222-1.605-3.415-0.915c-1.195,0.69-1.605,2.219-0.915,3.415l2.622,4.542
					c0.463,0.802,1.304,1.25,2.167,1.25c0.425,0,0.854-0.108,1.248-0.335C164.682,156.537,165.092,155.008,164.401,153.813z"/>
			</g>
		</g>
		<g>
			<g>
				<path d="M192.928,134.315c-0.69-1.197-2.222-1.605-3.415-0.915l-3.634,2.098c-1.195,0.69-1.605,2.219-0.915,3.415
					c0.463,0.802,1.304,1.25,2.167,1.25c0.425,0,0.854-0.108,1.248-0.335l3.634-2.098
					C193.208,137.041,193.618,135.511,192.928,134.315z"/>
			</g>
		</g>
		<g>
			<g>
				<path d="M196.055,135.537l-2.622-4.542c-0.69-1.197-2.222-1.604-3.415-0.915c-1.195,0.69-1.605,2.219-0.915,3.415l2.622,4.542
					c0.463,0.802,1.304,1.25,2.167,1.25c0.425,0,0.854-0.108,1.248-0.335C196.335,138.262,196.745,136.733,196.055,135.537z"/>
			</g>
		</g>
		<g>
			<g>
				<circle class="st4" cx="199.901" cy="70.279" r="15.635"/>
			</g>
		</g>
		<g>
			<g>
				<g>
					<path d="M199.901,52.145c-10,0-18.135,8.135-18.135,18.134s8.135,18.135,18.135,18.135s18.135-8.135,18.135-18.135
						S209.901,52.145,199.901,52.145z M199.901,83.414c-7.242,0-13.135-5.892-13.135-13.135c0-7.242,5.893-13.134,13.135-13.134
						s13.135,5.892,13.135,13.134C213.036,77.522,207.144,83.414,199.901,83.414z"/>
				</g>
			</g>
		</g>
		<g>
			<g>
				<path d="M199.901,43.137c-1.381,0-2.5,1.119-2.5,2.5v6.39c0,1.381,1.119,2.5,2.5,2.5s2.5-1.119,2.5-2.5v-6.39
					C202.401,44.256,201.282,43.137,199.901,43.137z"/>
			</g>
		</g>
		<g>
			<g>
				<path d="M203.896,39.942h-7.988c-1.381,0-2.5,1.119-2.5,2.5s1.119,2.5,2.5,2.5h7.988c1.381,0,2.5-1.119,2.5-2.5
					S205.276,39.942,203.896,39.942z"/>
			</g>
		</g>
		<g>
			<g>
				<path d="M199.901,86.032c-1.381,0-2.5,1.119-2.5,2.5v6.39c0,1.381,1.119,2.5,2.5,2.5s2.5-1.119,2.5-2.5v-6.39
					C202.401,87.151,201.282,86.032,199.901,86.032z"/>
			</g>
		</g>
		<g>
			<g>
				<path d="M203.896,95.617h-7.988c-1.381,0-2.5,1.119-2.5,2.5s1.119,2.5,2.5,2.5h7.988c1.381,0,2.5-1.119,2.5-2.5
					S205.276,95.617,203.896,95.617z"/>
			</g>
		</g>
		<g>
			<g>
				<path d="M185.345,58.988l-5.534-3.195c-1.193-0.69-2.725-0.282-3.415,0.915c-0.69,1.196-0.28,2.725,0.915,3.415l5.534,3.195
					c0.394,0.228,0.823,0.335,1.248,0.335c0.863,0,1.704-0.448,2.167-1.25C186.95,61.208,186.54,59.679,185.345,58.988z"/>
			</g>
		</g>
		<g>
			<g>
				<path d="M179.04,50.737c-1.193-0.69-2.725-0.282-3.415,0.915l-3.994,6.917c-0.69,1.196-0.28,2.725,0.915,3.415
					c0.394,0.228,0.823,0.335,1.248,0.335c0.863,0,1.704-0.448,2.167-1.25l3.994-6.917C180.646,52.956,180.235,51.427,179.04,50.737
					z"/>
			</g>
		</g>
		<g>
			<g>
				<path d="M222.492,80.436l-5.534-3.195c-1.194-0.69-2.725-0.282-3.415,0.915c-0.69,1.196-0.28,2.725,0.915,3.415l5.534,3.195
					c0.394,0.228,0.823,0.335,1.248,0.335c0.863,0,1.704-0.448,2.167-1.25C224.098,82.655,223.688,81.126,222.492,80.436z"/>
			</g>
		</g>
		<g>
			<g>
				<path d="M227.256,78.574c-1.193-0.69-2.725-0.281-3.415,0.915l-3.993,6.917c-0.69,1.196-0.28,2.725,0.915,3.415
					c0.394,0.228,0.823,0.335,1.248,0.335c0.863,0,1.704-0.449,2.167-1.25l3.993-6.917
					C228.861,80.793,228.451,79.264,227.256,78.574z"/>
			</g>
		</g>
		<g>
			<g>
				<path d="M186.26,78.155c-0.69-1.197-2.221-1.604-3.415-0.915l-5.534,3.195c-1.195,0.69-1.605,2.219-0.915,3.415
					c0.463,0.802,1.304,1.25,2.167,1.25c0.425,0,0.854-0.108,1.248-0.335l5.534-3.195C186.54,80.88,186.95,79.351,186.26,78.155z"/>
			</g>
		</g>
		<g>
			<g>
				<path d="M179.955,86.407l-3.994-6.917c-0.69-1.197-2.221-1.604-3.415-0.915c-1.195,0.69-1.605,2.219-0.915,3.415l3.994,6.917
					c0.463,0.802,1.304,1.25,2.167,1.25c0.425,0,0.854-0.108,1.248-0.335C180.235,89.131,180.646,87.603,179.955,86.407z"/>
			</g>
		</g>
		<g>
			<g>
				<path d="M223.407,56.708c-0.69-1.197-2.222-1.604-3.415-0.915l-5.534,3.195c-1.195,0.69-1.605,2.219-0.915,3.415
					c0.463,0.802,1.304,1.25,2.167,1.25c0.425,0,0.854-0.108,1.248-0.335l5.534-3.195C223.688,59.433,224.098,57.904,223.407,56.708
					z"/>
			</g>
		</g>
		<g>
			<g>
				<path d="M228.171,58.569l-3.993-6.917c-0.69-1.197-2.222-1.605-3.415-0.915c-1.195,0.69-1.605,2.219-0.915,3.415l3.993,6.917
					c0.463,0.802,1.304,1.25,2.167,1.25c0.425,0,0.854-0.108,1.248-0.335C228.451,61.294,228.861,59.765,228.171,58.569z"/>
			</g>
		</g>
		<g>
			<g>
				<path d="M126.595,59.716c-0.715-1.182-2.254-1.559-3.433-0.845c-1.182,0.715-1.56,2.252-0.845,3.433
					c5.501,9.093,8.409,19.545,8.409,30.226s-2.908,21.133-8.409,30.226c-0.715,1.181-0.337,2.718,0.845,3.433
					c0.404,0.245,0.851,0.361,1.292,0.361c0.846,0,1.671-0.43,2.141-1.207c5.975-9.873,9.132-21.22,9.132-32.813
					S132.569,69.589,126.595,59.716z"/>
			</g>
		</g>
		<g>
			<g>
				<path d="M113.743,68.55c-0.715-1.182-2.252-1.559-3.434-0.844c-1.181,0.715-1.559,2.252-0.844,3.433
					c3.894,6.434,5.952,13.831,5.952,21.392c0,7.561-2.059,14.958-5.952,21.391c-0.715,1.181-0.337,2.718,0.844,3.433
					c0.405,0.245,0.852,0.362,1.293,0.362c0.846,0,1.671-0.43,2.141-1.206c4.367-7.214,6.675-15.507,6.675-23.98
					C120.418,84.057,118.11,75.764,113.743,68.55z"/>
			</g>
		</g>
		<g>
			<g>
				<path d="M140.05,50.968c-0.722-1.177-2.262-1.543-3.438-0.822c-1.177,0.723-1.544,2.263-0.821,3.439
					c7.185,11.696,10.982,25.163,10.982,38.945c0,13.782-3.798,27.249-10.982,38.945c-0.723,1.176-0.355,2.716,0.821,3.439
					c0.408,0.25,0.86,0.37,1.307,0.37c0.84,0,1.66-0.424,2.132-1.192c7.669-12.484,11.723-26.856,11.723-41.562
					C151.772,77.824,147.719,63.452,140.05,50.968z"/>
			</g>
		</g>
		<g>
			<g>
				<path d="M89.063,175.219H53.524c-1.381,0-2.5,1.119-2.5,2.5s1.119,2.5,2.5,2.5h35.538c1.381,0,2.5-1.119,2.5-2.5
					S90.443,175.219,89.063,175.219z"/>
			</g>
		</g>
		<g>
			<g>
				<path d="M89.063,185.671H53.524c-1.381,0-2.5,1.119-2.5,2.5s1.119,2.5,2.5,2.5h35.538c1.381,0,2.5-1.119,2.5-2.5
					S90.443,185.671,89.063,185.671z"/>
			</g>
		</g>
		<g>
			<g>
				<g>
					<path d="M109,240H34c-4.411,0-8,3.589-8,8s3.589,8,8,8h75c4.411,0,8-3.589,8-8S113.411,240,109,240z M109,251H34
						c-1.654,0-3-1.346-3-3s1.346-3,3-3h75c1.654,0,3,1.346,3,3S110.654,251,109,251z"/>
				</g>
			</g>
		</g>
		<g>
			<g>
				<g>
					<path d="M100.697,219H42.303c-4.578,0-8.303,3.725-8.303,8.303V242.5c0,1.381,1.119,2.5,2.5,2.5h70c1.381,0,2.5-1.119,2.5-2.5
						v-15.197C109,222.725,105.275,219,100.697,219z M104,240H39v-12.697c0-1.821,1.481-3.303,3.303-3.303h58.395
						c1.821,0,3.303,1.482,3.303,3.303V240z"/>
				</g>
			</g>
		</g>
		<g>
			<g>
				<g>
					<path d="M78.088,13.727H64.499c-8.295,0-15.043,6.748-15.043,15.043V221.5c0,1.381,1.119,2.5,2.5,2.5h38.675
						c1.381,0,2.5-1.119,2.5-2.5V28.77C93.131,20.475,86.383,13.727,78.088,13.727z M88.131,219H54.456V28.77
						c0-5.538,4.505-10.043,10.043-10.043h13.589c5.538,0,10.043,4.505,10.043,10.043V219z"/>
				</g>
			</g>
		</g>
		<g>
			<g>
				<g>
					<path d="M91.724,22.463c-0.479-1.029-1.59-1.606-2.708-1.406c-11.718,2.102-20.223,12.25-20.223,24.13v97.822
						c0,12.353,9.257,22.813,21.531,24.33c0.103,0.013,0.205,0.019,0.307,0.019c0.606,0,1.196-0.221,1.656-0.627
						c0.536-0.475,0.844-1.157,0.844-1.873V28.77C93.131,26.592,92.657,24.47,91.724,22.463z M88.131,161.82
						c-8.345-2.302-14.338-9.944-14.338-18.811V45.187c0-8.75,5.801-16.321,14.061-18.729c0.185,0.757,0.277,1.529,0.277,2.311
						V161.82z"/>
				</g>
			</g>
		</g>
		<g>
			<g>
				<g>
					<path d="M90.631,34.109H78.044c-5.101,0-9.251,4.149-9.251,9.25v101.478c0,5.101,4.15,9.25,9.251,9.25h12.587
						c1.381,0,2.5-1.119,2.5-2.5V36.609C93.131,35.228,92.012,34.109,90.631,34.109z M88.131,149.087H78.044
						c-2.344,0-4.251-1.907-4.251-4.25V43.359c0-2.343,1.907-4.25,4.251-4.25h10.087V149.087z"/>
				</g>
			</g>
		</g>
	</g>
</g>
<g id="Layer_31">
</g>
<g id="Layer_32">
</g>
<g id="Layer_33">
</g>
<g id="Layer_34">
</g>
<g id="Layer_35">
</g>
<g id="Layer_36">
</g>
<g id="Layer_37">
</g>
<g id="Layer_38">
</g>
<g id="Layer_39">
</g>
<g id="Layer_40">
</g>
<g id="Layer_41">
</g>
<g id="Layer_42">
</g>
<g id="Layer_43">
</g>
<g id="Layer_44">
</g>
<g id="Layer_45">
</g>
<g id="Layer_46">
</g>
<g id="Layer_47">
</g>
<g id="Layer_48">
</g>
<g id="Layer_49">
</g>
<g id="Layer_50">
</g>
<g id="Layer_51">
</g>
<g id="Layer_52">
</g>
<g id="Layer_53">
</g>
<g id="Layer_54">
</g>
<g id="Layer_55">
</g>
<g id="Layer_56">
</g>
<g id="Layer_57">
</g>
<g id="Layer_58">
</g>
<g id="Layer_59">
</g>
<g id="Layer_60">
</g>
<g id="Layer_61">
</g>
<g id="Layer_62">
</g>
<g id="Layer_63">
</g>
<g id="Layer_64">
</g>
<g id="Layer_65">
</g>
<g id="Layer_66">
</g>
<g id="Layer_67">
</g>
<g id="Layer_68">
</g>
<g id="Layer_69">
</g>
<g id="Layer_70">
</g>
<g id="Layer_71">
</g>
<g id="Layer_72">
</g>
<g id="Layer_73">
</g>
<g id="Layer_74">
</g>
<g id="Layer_75">
</g>
<g id="Layer_76">
</g>
<g id="Layer_77">
</g>
<g id="Layer_78">
</g>
<g id="Layer_79">
</g>
<g id="Layer_80">
</g>
</svg>
