<?xml version="1.0" encoding="utf-8"?>
<!-- Generator: Adobe Illustrator 24.0.0, SVG Export Plug-In . SVG Version: 6.00 Build 0)  -->
<svg version="1.1" xmlns="http://www.w3.org/2000/svg" xmlns:xlink="http://www.w3.org/1999/xlink" x="0px" y="0px"
	 viewBox="0 0 256 256" style="enable-background:new 0 0 256 256;" xml:space="preserve">
<style type="text/css">
	.st0{fill:#6CADEF;}
	.st1{fill:#F9D0B4;}
	.st2{fill:#5B5D60;}
	.st3{fill:#9BE5F9;}
	.st4{fill:#FC657E;}
	.st5{fill:#70D6F9;}
	.st6{fill:#F5C84C;}
	.st7{fill:#F98FA6;}
	.st8{fill:#FED690;}
	.st9{fill:#87D147;}
	.st10{fill:#B2E26D;}
	.st11{fill:#EDF4FC;}
	.st12{fill:#FCDD86;}
	.st13{fill:#754E34;}
	.st14{fill:#B598F9;}
	.st15{fill:#5290DB;}
	.st16{fill:#C7D7E5;}
	.st17{fill:#C18E6B;}
	.st18{fill:#DAE6F1;}
	.st19{fill:#3CAADC;}
	.st20{fill:#818182;}
	.st21{fill:#CBEFF7;}
	.st22{fill:#FCA265;}
	.st23{fill:#A57453;}
	.st24{fill:#8652D8;}
	.st25{fill:#966AEA;}
	.st26{fill:#FEB872;}
	.st27{fill:#EDB311;}
	.st28{fill:#EF4460;}
</style>
<g id="Layer_1">
</g>
<g id="Layer_2">
</g>
<g id="Layer_3">
</g>
<g id="Layer_4">
</g>
<g id="Layer_5">
</g>
<g id="Layer_6">
</g>
<g id="Layer_7">
</g>
<g id="Layer_8">
</g>
<g id="Layer_9">
	<g>
		<g>
			<g>
				<path class="st3" d="M169.173,182.353l-2.466-4.271c-1.129-1.955-3.629-2.625-5.584-1.496l-49.418,28.532
					c-1.955,1.129-2.625,3.629-1.496,5.584l2.466,4.271c1.129,1.955,3.629,2.625,5.584,1.496l49.418-28.532
					C169.632,186.808,170.302,184.308,169.173,182.353z"/>
			</g>
		</g>
		<g>
			<g>
				<path class="st6" d="M83.818,81.826c-1.544-2.674-4.963-3.59-7.637-2.046l-5.841,3.372c-2.674,1.544-3.59,4.963-2.046,7.637
					l3.759,6.512c0.012-0.007,0.023-0.016,0.036-0.023l15.45-8.92c0.012-0.007,0.025-0.012,0.038-0.019L83.818,81.826z"/>
			</g>
		</g>
		<g>
			<g>
				<path class="st5" d="M162.631,216.002l-10.891-18.864l-17.543,10.128l10.891,18.864c5.882-1.495,12.272,0.999,15.456,6.514
					C157.36,227.13,158.395,220.349,162.631,216.002z"/>
			</g>
		</g>
		<g>
			<g>
				<path class="st12" d="M107.095,93.596c-3.953-6.847-12.708-9.193-19.556-5.24l-15.45,8.92
					c-6.847,3.953-9.193,12.709-5.24,19.556l33.356,57.774l40.246-23.236L107.095,93.596z"/>
			</g>
		</g>
		<g>
			<g>
				
					<rect x="108.412" y="173.063" transform="matrix(0.866 -0.5 0.5 0.866 -73.6604 90.2873)" class="st19" width="46.472" height="19.065"/>
			</g>
		</g>
		<g>
			<g>
				
					<rect x="100.369" y="162.111" transform="matrix(0.866 -0.5 0.5 0.866 -67.7724 84.3993)" class="st3" width="46.472" height="13.107"/>
			</g>
		</g>
		<g>
			<g>
				
					<rect x="121.519" y="173.063" transform="matrix(0.866 -0.5 0.5 0.866 -73.6601 90.2867)" class="st5" width="20.257" height="19.065"/>
			</g>
		</g>
		<g>
			<g>
				<g>
					<path class="st7" d="M165.467,2.5c-29.687,0-53.838,24.151-53.838,53.838s24.151,53.838,53.838,53.838
						c29.687,0,53.838-24.152,53.838-53.838S195.154,2.5,165.467,2.5z M190.255,92.464c-7.92,5.454-17.707,8.382-28.197,7.582
						c-21.389-1.63-38.668-18.909-40.299-40.298c-0.8-10.49,2.128-20.277,7.582-28.198c0.891-1.294,2.754-1.435,3.865-0.324
						l57.373,57.373C191.69,89.71,191.549,91.573,190.255,92.464z M201.527,81.223c-0.893,1.289-2.753,1.428-3.862,0.319
						L140.263,24.14c-1.109-1.109-0.97-2.969,0.319-3.862c7.924-5.488,17.729-8.441,28.242-7.652
						c21.429,1.608,38.746,18.925,40.355,40.354C209.968,63.493,207.015,73.299,201.527,81.223z"/>
				</g>
			</g>
		</g>
		<g>
			<g>
				<circle class="st4" cx="165.467" cy="20.916" r="6.051"/>
			</g>
		</g>
		<g>
			<g>
				<circle class="st4" cx="165.467" cy="91.916" r="6.051"/>
			</g>
		</g>
		<g>
			<g>
				
					<ellipse transform="matrix(0.1222 -0.9925 0.9925 0.1222 58.0947 178.5161)" class="st4" cx="129.967" cy="56.416" rx="6.051" ry="6.051"/>
			</g>
		</g>
		<g>
			<g>
				<circle class="st4" cx="200.967" cy="56.416" r="6.051"/>
			</g>
		</g>
		<g>
			<g>
				<path class="st4" d="M144.644,77.239c-2.363-2.363-6.195-2.363-8.558,0c-2.363,2.363-2.363,6.195,0,8.558
					c2.363,2.363,6.195,2.363,8.558,0S147.007,79.602,144.644,77.239z"/>
			</g>
		</g>
		<g>
			<g>
				<path class="st4" d="M194.849,27.034c-2.363-2.363-6.195-2.363-8.558,0c-2.363,2.363-2.363,6.195,0,8.558s6.195,2.363,8.558,0
					C197.212,33.229,197.212,29.398,194.849,27.034z"/>
			</g>
		</g>
		<g>
			<g>
				<path class="st4" d="M147.977,45.997c-1.797,3.033-2.848,6.56-2.848,10.341c0,11.232,9.105,20.338,20.338,20.338
					c3.781,0,7.309-1.05,10.341-2.848L147.977,45.997z"/>
			</g>
		</g>
		<g>
			<g>
				<path class="st4" d="M165.467,36c-3.821,0-7.384,1.073-10.438,2.906l27.869,27.869c1.833-3.054,2.906-6.616,2.906-10.438
					C185.805,45.106,176.7,36,165.467,36z"/>
			</g>
		</g>
		<g>
			<g>
				<path d="M165.468,74.452c-1.381,0-2.5,1.119-2.5,2.5v8.376c0,1.381,1.119,2.5,2.5,2.5s2.5-1.119,2.5-2.5v-8.376
					C167.968,75.571,166.849,74.452,165.468,74.452z"/>
			</g>
		</g>
		<g>
			<g>
				<path d="M165.468,25.037c-1.381,0-2.5,1.119-2.5,2.5v8c0,1.381,1.119,2.5,2.5,2.5s2.5-1.119,2.5-2.5v-8
					C167.968,26.156,166.849,25.037,165.468,25.037z"/>
			</g>
		</g>
		<g>
			<g>
				<path d="M194.379,53.916h-8.375c-1.381,0-2.5,1.119-2.5,2.5s1.119,2.5,2.5,2.5h8.375c1.381,0,2.5-1.119,2.5-2.5
					S195.76,53.916,194.379,53.916z"/>
			</g>
		</g>
		<g>
			<g>
				<path d="M144.588,53.916h-8c-1.381,0-2.5,1.119-2.5,2.5s1.119,2.5,2.5,2.5h8c1.381,0,2.5-1.119,2.5-2.5
					S145.969,53.916,144.588,53.916z"/>
			</g>
		</g>
		<g>
			<g>
				<path d="M187.679,34.204c-0.977-0.977-2.559-0.976-3.535,0l-5.923,5.922c-0.977,0.977-0.977,2.56,0,3.536
					c0.488,0.488,1.128,0.732,1.768,0.732s1.279-0.244,1.768-0.732l5.923-5.922C188.655,36.763,188.655,35.18,187.679,34.204z"/>
			</g>
		</g>
		<g>
			<g>
				<path d="M152.471,69.411c-0.977-0.976-2.561-0.976-3.535,0l-5.656,5.657c-0.977,0.977-0.977,2.559,0,3.536
					c0.488,0.488,1.128,0.732,1.768,0.732s1.28-0.244,1.768-0.732l5.656-5.657C153.447,71.97,153.447,70.388,152.471,69.411z"/>
			</g>
		</g>
		<g>
			<g>
				<g>
					<path d="M171.339,181.103l-2.466-4.271c-1.816-3.146-5.853-4.227-9-2.411l-49.418,28.532c-1.524,0.88-2.614,2.301-3.069,4
						c-0.455,1.7-0.222,3.475,0.658,4.999l2.466,4.271c0.88,1.524,2.301,2.614,4,3.069c0.567,0.152,1.144,0.228,1.716,0.228
						c1.142,0,2.269-0.3,3.283-0.886l49.417-28.531c1.524-0.879,2.615-2.3,3.071-4C172.452,184.402,172.219,182.626,171.339,181.103
						z M167.167,184.807c-0.109,0.41-0.372,0.752-0.74,0.964l-49.418,28.532c-0.761,0.439-1.73,0.177-2.169-0.581l-2.466-4.271
						c-0.212-0.367-0.269-0.795-0.158-1.205c0.109-0.41,0.372-0.752,0.739-0.964l49.418-28.532c0.759-0.438,1.731-0.178,2.17,0.581
						l2.466,4.271C167.221,183.97,167.277,184.397,167.167,184.807z"/>
				</g>
			</g>
		</g>
		<g>
			<g>
				<g>
					<path d="M89.742,87.087l-3.76-6.511c-1.08-1.872-2.825-3.21-4.913-3.77c-2.085-0.558-4.268-0.272-6.139,0.809l-5.841,3.372
						c-1.872,1.081-3.21,2.825-3.77,4.913s-0.272,4.268,0.809,6.139l3.759,6.512c0.463,0.802,1.304,1.25,2.167,1.25
						c0.424,0,0.854-0.108,1.247-0.335c0.024-0.014,0.052-0.031,0.079-0.048l15.358-8.867c0.031-0.016,0.062-0.033,0.087-0.048
						c0.575-0.332,0.994-0.877,1.166-1.518S90.074,87.661,89.742,87.087z M72.967,93.883l-2.508-4.345
						c-0.413-0.715-0.522-1.548-0.309-2.345c0.213-0.797,0.725-1.464,1.439-1.876l5.841-3.372c0.477-0.275,1.005-0.416,1.54-0.416
						c0.269,0,0.539,0.035,0.805,0.106c0.798,0.214,1.464,0.725,1.877,1.44l2.509,4.344L72.967,93.883z"/>
				</g>
			</g>
		</g>
		<g>
			<g>
				<path d="M75.199,79.824L51.224,38.296c-0.69-1.197-2.222-1.605-3.415-0.915c-1.195,0.69-1.605,2.219-0.915,3.415l23.976,41.528
					c0.463,0.802,1.304,1.25,2.167,1.25c0.425,0,0.854-0.108,1.248-0.335C75.479,82.549,75.89,81.02,75.199,79.824z"/>
			</g>
		</g>
		<g>
			<g>
				<g>
					<path d="M162.709,231.395c-2.19-3.794-5.728-6.508-9.959-7.642c-4.231-1.133-8.652-0.552-12.446,1.639
						s-6.509,5.728-7.643,9.959c-1.134,4.232-0.552,8.652,1.639,12.446c2.19,3.794,5.728,6.508,9.96,7.642
						c1.413,0.378,2.847,0.566,4.271,0.566c2.842,0,5.646-0.746,8.174-2.205c3.794-2.19,6.509-5.728,7.643-9.959
						C165.481,239.609,164.899,235.189,162.709,231.395z M159.518,242.547c-0.788,2.942-2.675,5.4-5.313,6.923
						c-2.638,1.522-5.71,1.927-8.651,1.139c-2.942-0.789-5.401-2.675-6.924-5.313c-1.522-2.638-1.927-5.71-1.139-8.652
						c0.788-2.942,2.675-5.4,5.313-6.923c1.757-1.014,3.707-1.533,5.683-1.533c0.99,0,1.987,0.13,2.97,0.394
						c2.941,0.788,5.4,2.675,6.923,5.313C159.901,236.532,160.306,239.605,159.518,242.547z"/>
				</g>
			</g>
		</g>
		<g>
			<g>
				<g>
					<path d="M186.788,217.493c-4.522-7.831-14.571-10.525-22.406-6.003c-7.832,4.522-10.524,14.573-6.003,22.405
						c3.034,5.256,8.559,8.198,14.232,8.198c2.78,0,5.597-0.707,8.173-2.194c3.794-2.19,6.509-5.728,7.643-9.959
						C189.561,225.708,188.979,221.287,186.788,217.493z M183.597,228.645c-0.788,2.942-2.675,5.4-5.313,6.923
						c-5.442,3.144-12.431,1.271-15.575-4.173c-3.144-5.445-1.271-12.432,4.173-15.575c1.791-1.034,3.748-1.525,5.682-1.525
						c3.943,0,7.785,2.045,9.895,5.699C183.98,222.63,184.385,225.703,183.597,228.645z"/>
				</g>
			</g>
		</g>
		<g>
			<g>
				<g>
					<g>
						<path d="M164.796,214.752l-10.892-18.864c-0.331-0.574-0.878-0.993-1.518-1.165c-0.639-0.17-1.323-0.082-1.897,0.25
							l-17.543,10.129c-0.574,0.332-0.993,0.877-1.165,1.518s-0.081,1.323,0.25,1.897l10.892,18.864
							c0.56,0.969,1.692,1.449,2.781,1.173c4.917-1.252,10.135,0.944,12.675,5.341c0.463,0.802,1.304,1.25,2.167,1.25
							c0.425,0,0.854-0.108,1.248-0.335c0.802-0.463,1.251-1.304,1.25-2.168c0-0.424-0.107-0.854-0.335-1.247
							c-2.538-4.397-1.834-10.009,1.712-13.647C165.202,216.946,165.355,215.722,164.796,214.752z M156.209,225.135
							c-2.361-1.252-5.016-1.929-7.729-1.929c-0.702,0-1.409,0.045-2.114,0.138l-8.755-15.162l13.213-7.629l8.754,15.163
							C157.474,218.462,156.329,221.772,156.209,225.135z"/>
					</g>
				</g>
			</g>
		</g>
		<g>
			<g>
				<path d="M109.442,95.046c-0.69-1.197-2.222-1.604-3.415-0.915l-6.191,3.575c-1.195,0.69-1.605,2.219-0.915,3.415
					c0.463,0.802,1.304,1.25,2.167,1.25c0.425,0,0.854-0.108,1.248-0.335l6.191-3.575C109.723,97.771,110.133,96.242,109.442,95.046
					z"/>
			</g>
		</g>
		<g>
			<g>
				<path d="M115.525,106.29c-0.691-1.197-2.222-1.605-3.415-0.915l-6.191,3.575c-1.195,0.69-1.605,2.219-0.915,3.415
					c0.463,0.802,1.304,1.25,2.167,1.25c0.425,0,0.854-0.108,1.248-0.335l6.191-3.575
					C115.806,109.014,116.216,107.485,115.525,106.29z"/>
			</g>
		</g>
		<g>
			<g>
				<path d="M122.221,117.178c-0.691-1.197-2.222-1.604-3.415-0.915l-6.191,3.575c-1.196,0.69-1.605,2.22-0.915,3.415
					c0.463,0.802,1.304,1.25,2.167,1.25c0.425,0,0.854-0.108,1.248-0.335l6.191-3.575
					C122.502,119.903,122.911,118.374,122.221,117.178z"/>
			</g>
		</g>
		<g>
			<g>
				<path d="M128.303,128.421c-0.691-1.197-2.222-1.605-3.415-0.915l-6.191,3.575c-1.195,0.69-1.605,2.219-0.915,3.415
					c0.463,0.802,1.304,1.25,2.167,1.25c0.425,0,0.854-0.108,1.248-0.335l6.191-3.575
					C128.583,131.146,128.993,129.617,128.303,128.421z"/>
			</g>
		</g>
		<g>
			<g>
				<path d="M134.692,139.487c-0.69-1.197-2.221-1.605-3.415-0.915l-6.192,3.575c-1.195,0.69-1.605,2.219-0.915,3.415
					c0.463,0.802,1.304,1.25,2.167,1.25c0.425,0,0.854-0.108,1.248-0.335l6.192-3.575
					C134.973,142.212,135.383,140.683,134.692,139.487z"/>
			</g>
		</g>
		<g>
			<g>
				<path class="st5" d="M100.195,27.2c-3.1-0.6-5.6-3-6.2-6.1c0-0.1-0.3-0.1-0.3,0c-0.6,3.1-3.1,5.5-6.2,6.1c-0.1,0-0.1,0.2,0,0.3
					c3.1,0.6,5.6,3,6.2,6.1c0,0.1,0.3,0.1,0.3,0c0.6-3.1,3.1-5.5,6.2-6.1C100.295,27.4,100.295,27.2,100.195,27.2z"/>
			</g>
		</g>
		<g>
			<g>
				<path class="st4" d="M205.295,129.1h-2.4v-2.3c0-1.8-1.4-3.2-3.2-3.2c-1.7,0-3.2,1.4-3.2,3.1v2.4h-2.3c-1.8,0-3.2,1.4-3.2,3.2
					c-0.1,1.7,1.3,3.2,3.2,3.2h2.3v2.3c0,1.8,1.4,3.2,3.2,3.2c1.7,0,3.2-1.4,3.2-3.1v-2.4h2.3c1.8,0,3.2-1.4,3.2-3.2
					C208.395,130.6,206.995,129.1,205.295,129.1z"/>
			</g>
		</g>
		<g>
			<g>
				<path class="st6" d="M189.595,159.5c-1.878,0-3.4,1.522-3.4,3.4c0,1.878,1.522,3.4,3.4,3.4s3.4-1.522,3.4-3.4
					C192.995,161.022,191.473,159.5,189.595,159.5z"/>
			</g>
		</g>
		<g>
			<g>
				<path class="st9" d="M37.595,96c-1.878,0-3.4,1.522-3.4,3.4c0,1.878,1.522,3.4,3.4,3.4c1.878,0,3.4-1.522,3.4-3.4
					C40.995,97.522,39.473,96,37.595,96z"/>
			</g>
		</g>
		<g>
			<g>
				<path class="st6" d="M56.195,129.2c-4.5-0.8-8-4.3-8.9-8.7c0-0.2-0.4-0.2-0.4,0c-0.9,4.4-4.4,7.9-8.9,8.7c-0.2,0-0.2,0.3,0,0.4
					c4.5,0.8,8,4.3,8.9,8.7c0,0.2,0.4,0.2,0.4,0c0.9-4.4,4.4-7.9,8.9-8.7C56.395,129.5,56.395,129.2,56.195,129.2z"/>
			</g>
		</g>
		<g>
			<g>
				<g>
					<path d="M158.702,177.983L109.26,92.346c-4.637-8.03-14.941-10.791-22.971-6.155l-15.45,8.92
						c-8.03,4.636-10.791,14.941-6.155,22.971l49.442,85.637c0.463,0.802,1.304,1.25,2.167,1.25c0.425,0,0.854-0.108,1.248-0.335
						l40.246-23.236c0.574-0.332,0.993-0.877,1.165-1.518C159.123,179.24,159.034,178.558,158.702,177.983z M117.206,199.054
						l-48.192-83.472c-3.258-5.642-1.317-12.883,4.325-16.141l15.45-8.92c1.856-1.072,3.885-1.581,5.888-1.581
						c4.087,0,8.066,2.119,10.253,5.905l48.192,83.472L117.206,199.054z"/>
				</g>
			</g>
		</g>
		<g>
			<g>
				<g>
					<path d="M149.17,161.472l-6.554-11.352c-0.331-0.574-0.878-0.993-1.518-1.165c-0.64-0.17-1.321-0.082-1.897,0.25
						l-40.246,23.236c-0.574,0.332-0.993,0.877-1.165,1.518c-0.171,0.641-0.081,1.323,0.25,1.897l6.554,11.351
						c0.463,0.802,1.304,1.25,2.167,1.25c0.425,0,0.854-0.108,1.248-0.335l40.246-23.236
						C149.45,164.197,149.86,162.668,149.17,161.472z M107.674,182.543l-4.054-7.021l35.916-20.736l4.054,7.021L107.674,182.543z"/>
				</g>
			</g>
		</g>
		<g>
			<g>
				<g>
					<g>
						<path d="M147.351,184.537l-9.532-16.511c-0.331-0.574-0.878-0.993-1.518-1.165c-0.639-0.17-1.322-0.082-1.897,0.25
							l-17.543,10.128c-1.195,0.69-1.605,2.219-0.915,3.415l9.532,16.511c0.331,0.574,0.878,0.993,1.518,1.165
							c0.213,0.057,0.431,0.085,0.647,0.085c0.435,0,0.866-0.114,1.25-0.335l17.543-10.128
							C147.631,187.262,148.041,185.733,147.351,184.537z M128.558,192.5l-7.032-12.181l13.213-7.628l7.032,12.181L128.558,192.5z"
							/>
					</g>
				</g>
			</g>
		</g>
		<g>
			<g>
				<g>
					<path d="M134.975,29.458c-1.063-1.064-2.533-1.595-4.036-1.459c-1.483,0.136-2.815,0.913-3.655,2.133
						c-6.061,8.798-8.832,19.105-8.017,29.806c1.72,22.567,20.035,40.881,42.602,42.601c1.223,0.093,2.439,0.14,3.65,0.14
						c9.385,0,18.361-2.788,26.154-8.155c1.221-0.841,1.998-2.173,2.134-3.657c0.137-1.5-0.396-2.971-1.46-4.035L134.975,29.458z
						 M162.249,97.553c-20.128-1.534-36.463-17.868-37.996-37.995c-0.729-9.548,1.743-18.743,7.186-26.564l57.398,57.411
						C180.99,95.81,171.797,98.281,162.249,97.553z M165.467,0c-31.064,0-56.338,25.273-56.338,56.338s25.273,56.338,56.338,56.338
						s56.338-25.273,56.338-56.338S196.531,0,165.467,0z M165.467,107.676c-28.308,0-51.338-23.03-51.338-51.338
						C114.129,28.03,137.159,5,165.467,5s51.338,23.03,51.338,51.338C216.805,84.646,193.774,107.676,165.467,107.676z
						 M211.672,52.793c-1.698-22.622-20.038-40.962-42.661-42.66c-10.72-0.806-21.048,1.993-29.853,8.09
						c-1.216,0.842-1.989,2.175-2.123,3.655c-0.135,1.498,0.397,2.966,1.46,4.029l57.402,57.402
						c0.954,0.955,2.235,1.481,3.571,1.481c0.152,0,0.306-0.007,0.458-0.021c1.481-0.133,2.813-0.908,3.655-2.124
						C209.68,73.842,212.477,63.519,211.672,52.793z M199.487,79.788c-0.002,0-0.03,0.01-0.055-0.014l-57.427-57.441
						c6.97-4.827,15.01-7.335,23.423-7.335c1.063,0,2.134,0.041,3.208,0.121c20.178,1.514,36.534,17.872,38.049,38.048
						C207.404,62.738,204.909,71.947,199.487,79.788z"/>
				</g>
			</g>
		</g>
		<g>
			<g>
				<g>
					<path d="M165.468,12.364c-4.716,0-8.552,3.836-8.552,8.551s3.836,8.551,8.552,8.551c4.715,0,8.551-3.836,8.551-8.551
						S170.183,12.364,165.468,12.364z M165.468,24.467c-1.958,0-3.552-1.593-3.552-3.551s1.594-3.551,3.552-3.551
						s3.551,1.593,3.551,3.551S167.426,24.467,165.468,24.467z"/>
				</g>
			</g>
		</g>
		<g>
			<g>
				<g>
					<path d="M165.468,83.364c-4.716,0-8.552,3.836-8.552,8.551s3.836,8.551,8.552,8.551c4.715,0,8.551-3.836,8.551-8.551
						S170.183,83.364,165.468,83.364z M165.468,95.467c-1.958,0-3.552-1.593-3.552-3.551s1.594-3.551,3.552-3.551
						s3.551,1.593,3.551,3.551S167.426,95.467,165.468,95.467z"/>
				</g>
			</g>
		</g>
		<g>
			<g>
				<g>
					<path d="M129.968,47.864c-4.716,0-8.552,3.836-8.552,8.551s3.836,8.551,8.552,8.551c4.715,0,8.551-3.836,8.551-8.551
						S134.683,47.864,129.968,47.864z M129.968,59.967c-1.958,0-3.552-1.593-3.552-3.551s1.594-3.551,3.552-3.551
						s3.551,1.593,3.551,3.551S131.926,59.967,129.968,59.967z"/>
				</g>
			</g>
		</g>
		<g>
			<g>
				<g>
					<path d="M200.968,47.864c-4.716,0-8.552,3.836-8.552,8.551s3.836,8.551,8.552,8.551c4.715,0,8.551-3.836,8.551-8.551
						S205.683,47.864,200.968,47.864z M200.968,59.967c-1.958,0-3.552-1.593-3.552-3.551s1.594-3.551,3.552-3.551
						s3.551,1.593,3.551,3.551S202.926,59.967,200.968,59.967z"/>
				</g>
			</g>
		</g>
		<g>
			<g>
				<g>
					<path d="M146.412,75.471c-1.615-1.615-3.763-2.505-6.047-2.505s-4.432,0.89-6.047,2.505c-3.334,3.334-3.334,8.759,0,12.093
						c1.615,1.615,3.763,2.505,6.047,2.505s4.432-0.89,6.046-2.505C149.745,84.23,149.745,78.805,146.412,75.471z M142.875,84.029
						c-1.34,1.343-3.68,1.34-5.021,0c-1.385-1.385-1.385-3.638,0-5.023c0.671-0.67,1.563-1.04,2.512-1.04
						c0.948,0,1.84,0.369,2.511,1.04C144.261,80.391,144.261,82.645,142.875,84.029z"/>
				</g>
			</g>
		</g>
		<g>
			<g>
				<g>
					<path d="M196.616,25.267c-1.615-1.615-3.763-2.505-6.047-2.505s-4.432,0.89-6.047,2.505c-3.333,3.334-3.333,8.759,0,12.093
						c1.615,1.615,3.763,2.505,6.047,2.505s4.432-0.89,6.047-2.505C199.95,34.026,199.95,28.601,196.616,25.267z M193.081,33.825
						c-1.341,1.34-3.68,1.343-5.022,0c-1.385-1.385-1.385-3.638,0-5.023c0,0,0,0,0.001,0c0.67-0.671,1.562-1.04,2.51-1.04
						c0.949,0,1.841,0.37,2.512,1.04C194.466,30.187,194.466,32.44,193.081,33.825z"/>
				</g>
			</g>
		</g>
		<g>
			<g>
				<g>
					<path d="M177.576,72.061l-27.831-27.832c-0.546-0.546-1.312-0.809-2.08-0.713c-0.766,0.096-1.444,0.542-1.838,1.206
						c-2.093,3.529-3.198,7.546-3.198,11.616c0,12.593,10.245,22.838,22.839,22.838c4.069,0,8.086-1.105,11.615-3.197
						c0.664-0.394,1.109-1.072,1.206-1.838C178.386,73.374,178.122,72.606,177.576,72.061z M165.468,74.176
						c-9.836,0-17.839-8.002-17.839-17.838c0-2.073,0.368-4.129,1.08-6.075l22.832,22.833
						C169.596,73.807,167.54,74.176,165.468,74.176z"/>
				</g>
			</g>
		</g>
		<g>
			<g>
				<g>
					<path d="M165.468,33.5c-4.113,0-8.168,1.128-11.725,3.263c-0.66,0.396-1.102,1.074-1.195,1.838
						c-0.094,0.764,0.169,1.529,0.714,2.073l27.869,27.87c0.472,0.472,1.108,0.732,1.768,0.732c0.102,0,0.203-0.006,0.305-0.019
						c0.765-0.094,1.442-0.535,1.839-1.194c2.135-3.556,3.264-7.61,3.264-11.725C188.306,43.745,178.061,33.5,165.468,33.5z
						 M182.184,62.526L159.28,39.622c1.979-0.739,4.074-1.122,6.188-1.122c9.836,0,17.838,8.002,17.838,17.838
						C183.306,58.452,182.923,60.547,182.184,62.526z"/>
				</g>
			</g>
		</g>
	</g>
</g>
<g id="Layer_10">
</g>
<g id="Layer_11">
</g>
<g id="Layer_12">
</g>
<g id="Layer_13">
</g>
<g id="Layer_14">
</g>
<g id="Layer_15">
</g>
<g id="Layer_16">
</g>
<g id="Layer_17">
</g>
<g id="Layer_18">
</g>
<g id="Layer_19">
</g>
<g id="Layer_20">
</g>
<g id="Layer_21">
</g>
<g id="Layer_22">
</g>
<g id="Layer_23">
</g>
<g id="Layer_24">
</g>
<g id="Layer_25">
</g>
<g id="Layer_26">
</g>
<g id="Layer_27">
</g>
<g id="Layer_28">
</g>
<g id="Layer_29">
</g>
<g id="Layer_30">
</g>
<g id="Layer_31">
</g>
<g id="Layer_32">
</g>
<g id="Layer_33">
</g>
<g id="Layer_34">
</g>
<g id="Layer_35">
</g>
<g id="Layer_36">
</g>
<g id="Layer_37">
</g>
<g id="Layer_38">
</g>
<g id="Layer_39">
</g>
<g id="Layer_40">
</g>
<g id="Layer_41">
</g>
<g id="Layer_42">
</g>
<g id="Layer_43">
</g>
<g id="Layer_44">
</g>
<g id="Layer_45">
</g>
<g id="Layer_46">
</g>
<g id="Layer_47">
</g>
<g id="Layer_48">
</g>
<g id="Layer_49">
</g>
<g id="Layer_50">
</g>
<g id="Layer_51">
</g>
<g id="Layer_52">
</g>
<g id="Layer_53">
</g>
<g id="Layer_54">
</g>
<g id="Layer_55">
</g>
<g id="Layer_56">
</g>
<g id="Layer_57">
</g>
<g id="Layer_58">
</g>
<g id="Layer_59">
</g>
<g id="Layer_60">
</g>
<g id="Layer_61">
</g>
<g id="Layer_62">
</g>
<g id="Layer_63">
</g>
<g id="Layer_64">
</g>
<g id="Layer_65">
</g>
<g id="Layer_66">
</g>
<g id="Layer_67">
</g>
<g id="Layer_68">
</g>
<g id="Layer_69">
</g>
<g id="Layer_70">
</g>
<g id="Layer_71">
</g>
<g id="Layer_72">
</g>
<g id="Layer_73">
</g>
<g id="Layer_74">
</g>
<g id="Layer_75">
</g>
<g id="Layer_76">
</g>
<g id="Layer_77">
</g>
<g id="Layer_78">
</g>
<g id="Layer_79">
</g>
<g id="Layer_80">
</g>
</svg>
