<?xml version="1.0" encoding="utf-8"?>
<!-- Generator: Adobe Illustrator 24.0.0, SVG Export Plug-In . SVG Version: 6.00 Build 0)  -->
<svg version="1.1" xmlns="http://www.w3.org/2000/svg" xmlns:xlink="http://www.w3.org/1999/xlink" x="0px" y="0px"
	 viewBox="0 0 256 256" style="enable-background:new 0 0 256 256;" xml:space="preserve">
<style type="text/css">
	.st0{fill:#6CADEF;}
	.st1{fill:#F9D0B4;}
	.st2{fill:#5B5D60;}
	.st3{fill:#9BE5F9;}
	.st4{fill:#FC657E;}
	.st5{fill:#70D6F9;}
	.st6{fill:#F5C84C;}
	.st7{fill:#F98FA6;}
	.st8{fill:#FED690;}
	.st9{fill:#87D147;}
	.st10{fill:#B2E26D;}
	.st11{fill:#EDF4FC;}
	.st12{fill:#FCDD86;}
	.st13{fill:#754E34;}
	.st14{fill:#B598F9;}
	.st15{fill:#5290DB;}
	.st16{fill:#C7D7E5;}
	.st17{fill:#C18E6B;}
	.st18{fill:#DAE6F1;}
	.st19{fill:#3CAADC;}
	.st20{fill:#818182;}
	.st21{fill:#CBEFF7;}
	.st22{fill:#FCA265;}
	.st23{fill:#A57453;}
	.st24{fill:#8652D8;}
	.st25{fill:#966AEA;}
	.st26{fill:#FEB872;}
	.st27{fill:#EDB311;}
	.st28{fill:#EF4460;}
</style>
<g id="Layer_1">
</g>
<g id="Layer_2">
</g>
<g id="Layer_3">
</g>
<g id="Layer_4">
</g>
<g id="Layer_5">
</g>
<g id="Layer_6">
</g>
<g id="Layer_7">
</g>
<g id="Layer_8">
</g>
<g id="Layer_9">
</g>
<g id="Layer_10">
</g>
<g id="Layer_11">
</g>
<g id="Layer_12">
</g>
<g id="Layer_13">
</g>
<g id="Layer_14">
</g>
<g id="Layer_15">
</g>
<g id="Layer_16">
</g>
<g id="Layer_17">
</g>
<g id="Layer_18">
</g>
<g id="Layer_19">
</g>
<g id="Layer_20">
</g>
<g id="Layer_21">
</g>
<g id="Layer_22">
</g>
<g id="Layer_23">
</g>
<g id="Layer_24">
</g>
<g id="Layer_25">
</g>
<g id="Layer_26">
</g>
<g id="Layer_27">
</g>
<g id="Layer_28">
</g>
<g id="Layer_29">
</g>
<g id="Layer_30">
</g>
<g id="Layer_31">
</g>
<g id="Layer_32">
</g>
<g id="Layer_33">
</g>
<g id="Layer_34">
</g>
<g id="Layer_35">
</g>
<g id="Layer_36">
</g>
<g id="Layer_37">
</g>
<g id="Layer_38">
</g>
<g id="Layer_39">
</g>
<g id="Layer_40">
</g>
<g id="Layer_41">
</g>
<g id="Layer_42">
</g>
<g id="Layer_43">
</g>
<g id="Layer_44">
</g>
<g id="Layer_45">
</g>
<g id="Layer_46">
</g>
<g id="Layer_47">
</g>
<g id="Layer_48">
</g>
<g id="Layer_49">
</g>
<g id="Layer_50">
</g>
<g id="Layer_51">
</g>
<g id="Layer_52">
</g>
<g id="Layer_53">
</g>
<g id="Layer_54">
</g>
<g id="Layer_55">
</g>
<g id="Layer_56">
</g>
<g id="Layer_57">
</g>
<g id="Layer_58">
</g>
<g id="Layer_59">
</g>
<g id="Layer_60">
</g>
<g id="Layer_61">
</g>
<g id="Layer_62">
</g>
<g id="Layer_63">
</g>
<g id="Layer_64">
</g>
<g id="Layer_65">
</g>
<g id="Layer_66">
</g>
<g id="Layer_67">
</g>
<g id="Layer_68">
</g>
<g id="Layer_69">
</g>
<g id="Layer_70">
</g>
<g id="Layer_71">
</g>
<g id="Layer_72">
</g>
<g id="Layer_73">
</g>
<g id="Layer_74">
	<g>
		<g>
			<g>
				<path class="st4" d="M231.017,102.667l-98.15-98.151C131.576,3.226,129.826,2.5,128,2.5s-3.576,0.726-4.866,2.016l-98.15,98.151
					c-2.689,2.688-2.689,7.046,0,9.734c2.686,2.688,7.047,2.688,9.733,0L128,19.117l93.284,93.284c2.687,2.689,7.047,2.687,9.733,0
					C233.706,109.713,233.706,105.355,231.017,102.667z"/>
			</g>
		</g>
		<g>
			<g>
				<polygon class="st18" points="128,19.117 40.242,106.875 40.242,253.5 215.758,253.5 215.758,106.875 				"/>
			</g>
		</g>
		<g>
			<g>
				<path class="st3" d="M128,92.946L128,92.946c-35.719,0-64.674,28.956-64.674,64.674S92.281,222.295,128,222.295h0
					c35.718,0,64.674-28.956,64.674-64.674S163.719,92.946,128,92.946z"/>
			</g>
		</g>
		<g>
			<g>
				<path class="st5" d="M128,104.598L128,104.598c-29.284,0-53.023,23.739-53.023,53.023S98.716,210.644,128,210.644h0
					c29.284,0,53.023-23.739,53.023-53.023S157.284,104.598,128,104.598z"/>
			</g>
		</g>
		<g>
			<g>
				<path class="st11" d="M128,148.281c-5.136,0-9.3,4.164-9.3,9.299v0c0,5.136,4.164,9.299,9.3,9.299c5.136,0,9.3-4.164,9.3-9.299
					v0C137.3,152.444,133.136,148.281,128,148.281z"/>
			</g>
		</g>
		<g>
			<g>
				<path class="st16" d="M164.873,139.047l-0.239-4.492c-0.079-1.488-1.756-2.279-3.14-1.48l-28.682,16.559
					c2.468,1.499,4.183,4.105,4.446,7.134c3.996-0.044,12.719-0.57,19.477-4.019C162.01,150.058,165.167,144.565,164.873,139.047z"
					/>
			</g>
		</g>
		<g>
			<g>
				<path class="st16" d="M166.005,174.355l-28.715-16.579c-0.064,3.062-1.604,5.756-3.942,7.404
					c2.026,3.425,6.853,10.749,13.239,14.89c4.968,3.222,11.303,3.21,15.935,0.196l3.77-2.454
					C167.542,177.001,167.388,175.154,166.005,174.355z"/>
			</g>
		</g>
		<g>
			<g>
				<path class="st16" d="M128,166.88L128,166.88c-1.383,0-2.691-0.31-3.871-0.852c-1.953,3.465-5.884,11.311-6.278,18.914
					c-0.306,5.914,2.872,11.394,7.798,13.898l4.01,2.039c1.329,0.675,2.852-0.382,2.852-1.979v-33.189
					C131.174,166.454,129.637,166.88,128,166.88z"/>
			</g>
		</g>
		<g>
			<g>
				<path class="st16" d="M118.745,158.472c-3.994,0.044-12.72,0.57-19.481,4.02c-5.274,2.691-8.431,8.184-8.138,13.702l0.239,4.492
					c0.079,1.488,1.756,2.279,3.139,1.48l28.75-16.599C120.772,164.09,119.033,161.496,118.745,158.472z"/>
			</g>
		</g>
		<g>
			<g>
				<path class="st16" d="M109.413,135.17c-4.968-3.222-11.303-3.21-15.935-0.196l-3.77,2.453c-1.249,0.813-1.096,2.66,0.288,3.459
					l28.711,16.576c0.039-3.08,1.574-5.793,3.912-7.458C120.574,146.557,115.765,139.29,109.413,135.17z"/>
			</g>
		</g>
		<g>
			<g>
				<path class="st16" d="M130.351,116.4l-4.01-2.039c-1.329-0.676-2.852,0.381-2.852,1.979v33.11
					c1.336-0.743,2.873-1.169,4.51-1.169h0c1.397,0,2.717,0.317,3.906,0.869c1.964-3.496,5.851-11.292,6.243-18.851
					C138.455,124.385,135.277,118.905,130.351,116.4z"/>
			</g>
		</g>
		<g>
			<g>
				<path d="M222.984,251H33.016c-1.381,0-2.5,1.119-2.5,2.5s1.119,2.5,2.5,2.5h189.969c1.381,0,2.5-1.119,2.5-2.5
					S224.365,251,222.984,251z"/>
			</g>
		</g>
		<g>
			<g>
				<path class="st5" d="M22.206,198.1h-2.4v-2.3c0-1.8-1.4-3.2-3.2-3.2c-1.7,0-3.2,1.4-3.2,3.1v2.4h-2.3c-1.8,0-3.2,1.4-3.2,3.2
					c-0.1,1.7,1.3,3.2,3.2,3.2h2.3v2.3c0,1.8,1.4,3.2,3.2,3.2c1.7,0,3.2-1.4,3.2-3.1v-2.4h2.3c1.8,0,3.2-1.4,3.2-3.2
					C25.306,199.6,23.906,198.1,22.206,198.1z"/>
			</g>
		</g>
		<g>
			<g>
				<path class="st6" d="M22.506,228.5c-1.878,0-3.4,1.522-3.4,3.4c0,1.878,1.522,3.4,3.4,3.4c1.878,0,3.4-1.522,3.4-3.4
					C25.906,230.022,24.384,228.5,22.506,228.5z"/>
			</g>
		</g>
		<g>
			<g>
				<path class="st9" d="M170.506,0c-1.878,0-3.4,1.522-3.4,3.4c0,1.878,1.522,3.4,3.4,3.4c1.878,0,3.4-1.522,3.4-3.4
					C173.906,1.522,172.384,0,170.506,0z"/>
			</g>
		</g>
		<g>
			<g>
				<path class="st4" d="M241.288,201.2c-3.1-0.6-5.6-3-6.2-6.1c0-0.1-0.3-0.1-0.3,0c-0.6,3.1-3.1,5.5-6.2,6.1c-0.1,0-0.1,0.2,0,0.3
					c3.1,0.6,5.6,3,6.2,6.1c0,0.1,0.3,0.1,0.3,0c0.6-3.1,3.1-5.5,6.2-6.1C241.388,201.4,241.388,201.2,241.288,201.2z"/>
			</g>
		</g>
		<g>
			<g>
				<path class="st6" d="M200.288,24.2c-4.5-0.8-8-4.3-8.9-8.7c0-0.2-0.4-0.2-0.4,0c-0.9,4.4-4.4,7.9-8.9,8.7c-0.2,0-0.2,0.3,0,0.4
					c4.5,0.8,8,4.3,8.9,8.7c0,0.2,0.4,0.2,0.4,0c0.9-4.4,4.4-7.9,8.9-8.7C200.488,24.5,200.488,24.2,200.288,24.2z"/>
			</g>
		</g>
		<g>
			<g>
				<path d="M243.264,137.052c-5.196,0-7.979,2.149-10.214,3.876c-2.049,1.583-3.667,2.833-7.156,2.833s-5.107-1.25-7.156-2.833
					c-2.235-1.727-5.018-3.876-10.214-3.876c-5.195,0-7.977,2.149-10.212,3.876c-2.049,1.583-3.667,2.833-7.155,2.833
					s-5.105-1.25-7.154-2.833c-2.235-1.727-5.017-3.876-10.212-3.876c-1.381,0-2.5,1.119-2.5,2.5s1.119,2.5,2.5,2.5
					c3.488,0,5.106,1.25,7.155,2.833c2.235,1.727,5.017,3.876,10.211,3.876c5.195,0,7.977-2.149,10.212-3.876
					c2.049-1.583,3.667-2.833,7.155-2.833c3.49,0,5.108,1.25,7.157,2.833c2.235,1.727,5.018,3.876,10.213,3.876
					s7.978-2.149,10.213-3.876c2.049-1.583,3.667-2.833,7.157-2.833c1.381,0,2.5-1.119,2.5-2.5S244.645,137.052,243.264,137.052z"/>
			</g>
		</g>
		<g>
			<g>
				<path d="M243.264,152.146c-5.196,0-7.979,2.149-10.214,3.876c-2.049,1.583-3.667,2.833-7.156,2.833s-5.107-1.25-7.156-2.833
					c-2.235-1.727-5.018-3.876-10.214-3.876c-5.195,0-7.977,2.149-10.212,3.876c-2.049,1.583-3.667,2.833-7.155,2.833
					s-5.105-1.25-7.154-2.833c-2.235-1.727-5.017-3.876-10.212-3.876c-1.381,0-2.5,1.119-2.5,2.5s1.119,2.5,2.5,2.5
					c3.488,0,5.106,1.25,7.155,2.833c2.235,1.727,5.017,3.876,10.211,3.876c5.195,0,7.977-2.149,10.212-3.876
					c2.049-1.583,3.667-2.833,7.155-2.833c3.49,0,5.108,1.25,7.157,2.833c2.235,1.727,5.018,3.876,10.213,3.876
					s7.978-2.149,10.213-3.876c2.049-1.583,3.667-2.833,7.157-2.833c1.381,0,2.5-1.119,2.5-2.5S244.645,152.146,243.264,152.146z"/>
			</g>
		</g>
		<g>
			<g>
				<path d="M243.264,167.239c-5.196,0-7.979,2.149-10.214,3.876c-2.049,1.583-3.667,2.833-7.156,2.833s-5.107-1.25-7.156-2.833
					c-2.235-1.727-5.018-3.876-10.214-3.876c-5.195,0-7.977,2.149-10.212,3.876c-2.049,1.583-3.667,2.833-7.155,2.833
					s-5.105-1.25-7.154-2.833c-2.235-1.727-5.017-3.876-10.212-3.876c-1.381,0-2.5,1.119-2.5,2.5s1.119,2.5,2.5,2.5
					c3.488,0,5.106,1.25,7.155,2.833c2.235,1.727,5.017,3.876,10.211,3.876c5.195,0,7.977-2.149,10.212-3.876
					c2.049-1.583,3.667-2.833,7.155-2.833c3.49,0,5.108,1.25,7.157,2.833c2.235,1.727,5.018,3.876,10.213,3.876
					s7.978-2.149,10.213-3.876c2.049-1.583,3.667-2.833,7.157-2.833c1.381,0,2.5-1.119,2.5-2.5S244.645,167.239,243.264,167.239z"/>
			</g>
		</g>
		<g>
			<g>
				<g>
					<g>
						<path d="M232.784,100.899l-98.15-98.151C132.862,0.976,130.506,0,128,0s-4.862,0.976-6.634,2.748l-98.15,98.151
							c-1.772,1.772-2.749,4.129-2.749,6.635s0.977,4.862,2.748,6.635c1.772,1.772,4.128,2.748,6.635,2.748s4.862-0.976,6.634-2.748
							L128,22.652l91.516,91.517c0,0,0,0,0.001,0c1.771,1.772,4.127,2.748,6.635,2.748c2.506,0,4.862-0.977,6.633-2.748
							c1.772-1.772,2.749-4.129,2.749-6.635S234.557,102.672,232.784,100.899z M229.248,110.634
							c-0.826,0.827-1.927,1.283-3.098,1.283s-2.271-0.455-3.098-1.283h-0.001L129.768,17.35c-0.488-0.488-1.128-0.732-1.768-0.732
							s-1.279,0.244-1.768,0.732l-93.285,93.284c-0.826,0.827-1.927,1.283-3.098,1.283s-2.271-0.456-3.099-1.283
							c-1.709-1.709-1.709-4.49,0-6.199l98.15-98.151C125.729,5.456,126.829,5,128,5s2.271,0.456,3.099,1.283l98.15,98.151
							C230.958,106.144,230.958,108.925,229.248,110.634z"/>
					</g>
				</g>
			</g>
		</g>
		<g>
			<g>
				<g>
					<path d="M217.525,105.107L129.768,17.35c-0.977-0.977-2.559-0.977-3.535,0l-87.758,87.758
						c-0.469,0.469-0.732,1.104-0.732,1.768V253.5c0,1.381,1.119,2.5,2.5,2.5h175.516c1.381,0,2.5-1.119,2.5-2.5V106.875
						C218.258,106.212,217.994,105.576,217.525,105.107z M213.258,251H42.742V107.91L128,22.652l85.258,85.258V251z"/>
				</g>
			</g>
		</g>
		<g>
			<g>
				<g>
					<path d="M128,90.446c-37.04,0-67.174,30.135-67.174,67.175S90.96,224.795,128,224.795s67.174-30.135,67.174-67.175
						S165.04,90.446,128,90.446z M128,219.795c-34.283,0-62.174-27.892-62.174-62.175S93.717,95.446,128,95.446
						s62.174,27.892,62.174,62.175S162.283,219.795,128,219.795z"/>
				</g>
			</g>
		</g>
		<g>
			<g>
				<g>
					<path d="M128,102.098c-30.615,0-55.523,24.908-55.523,55.523S97.385,213.144,128,213.144s55.523-24.907,55.523-55.523
						C183.523,127.005,158.615,102.098,128,102.098z M128,208.144c-27.858,0-50.523-22.665-50.523-50.523
						s22.665-50.522,50.523-50.522s50.523,22.665,50.523,50.523S155.858,208.144,128,208.144z"/>
				</g>
			</g>
		</g>
		<g>
			<g>
				<g>
					<path d="M128,145.78c-6.507,0-11.8,5.293-11.8,11.8s5.293,11.8,11.8,11.8s11.8-5.293,11.8-11.8S134.507,145.78,128,145.78z
						 M128,164.38c-3.749,0-6.8-3.051-6.8-6.8s3.051-6.8,6.8-6.8s6.8,3.051,6.8,6.8S131.749,164.38,128,164.38z"/>
				</g>
			</g>
		</g>
		<g>
			<g>
				<g>
					<path d="M167.369,138.914l-0.239-4.492c-0.081-1.53-0.935-2.88-2.284-3.611c-1.428-0.776-3.149-0.739-4.601,0.099
						l-28.683,16.56c-0.765,0.441-1.24,1.254-1.25,2.138c-0.01,0.883,0.447,1.706,1.202,2.164c1.852,1.124,3.068,3.073,3.254,5.214
						c0.111,1.294,1.194,2.284,2.49,2.284c0.009,0,0.019,0,0.028,0c4.649-0.053,13.506-0.68,20.586-4.293
						C163.995,151.852,167.723,145.547,167.369,138.914z M155.6,150.522c-5.346,2.728-12.207,3.485-16.3,3.684
						c-0.456-1.518-1.216-2.929-2.225-4.146l25.108-14.496l0.193,3.616C162.621,143.771,159.897,148.329,155.6,150.522z"/>
				</g>
			</g>
		</g>
		<g>
			<g>
				<g>
					<path d="M167.256,172.189C167.255,172.189,167.255,172.189,167.256,172.189l-28.716-16.578
						c-0.766-0.443-1.706-0.447-2.478-0.013c-0.77,0.434-1.253,1.241-1.271,2.125c-0.046,2.182-1.097,4.154-2.883,5.414
						c-1.065,0.751-1.375,2.193-0.712,3.315c2.37,4.008,7.344,11.379,14.03,15.715c2.937,1.905,6.276,2.859,9.583,2.859
						c3.188,0,6.344-0.887,9.076-2.665l3.771-2.453c1.283-0.835,2.025-2.249,1.985-3.782
						C169.599,174.5,168.706,173.028,167.256,172.189z M161.159,178.171c-3.854,2.51-9.162,2.429-13.212-0.198
						c-5.054-3.276-9.146-8.858-11.363-12.31c1.081-1.152,1.919-2.51,2.468-3.983l25.143,14.517L161.159,178.171z"/>
				</g>
			</g>
		</g>
		<g>
			<g>
				<g>
					<path d="M133.777,163.556c-0.765-0.447-1.706-0.461-2.483-0.029c-1.868,1.039-4.144,1.138-6.121,0.23
						c-1.183-0.542-2.583-0.089-3.222,1.044c-2.287,4.059-6.185,12.055-6.598,20.013c-0.354,6.864,3.241,13.245,9.162,16.256
						l4.011,2.04c0.628,0.318,1.306,0.478,1.98,0.478c0.793,0,1.583-0.219,2.289-0.652c1.386-0.851,2.214-2.359,2.214-4.034v-33.189
						C135.01,164.825,134.541,164.005,133.777,163.556z M130.01,198.254l-3.229-1.642c-4.098-2.084-6.684-6.722-6.434-11.54
						c0.312-6.014,3.1-12.353,4.98-16c1.523,0.355,3.13,0.402,4.682,0.135V198.254z"/>
				</g>
			</g>
		</g>
		<g>
			<g>
				<g>
					<path d="M124.533,163.419c-1.862-1.108-3.096-3.046-3.3-5.184c-0.122-1.284-1.201-2.263-2.488-2.263c-0.009,0-0.019,0-0.027,0
						c-4.648,0.052-13.504,0.677-20.591,4.293c-6.122,3.124-9.85,9.429-9.496,16.062l0.239,4.491c0.081,1.53,0.935,2.88,2.283,3.612
						c0.686,0.371,1.437,0.557,2.193,0.557c0.823,0,1.652-0.22,2.408-0.656l28.75-16.599c0.769-0.443,1.244-1.261,1.25-2.148
						C125.761,164.697,125.296,163.873,124.533,163.419z M93.816,179.677l-0.193-3.615c-0.244-4.591,2.479-9.149,6.777-11.343
						c5.357-2.733,12.23-3.489,16.32-3.685c0.466,1.511,1.233,2.913,2.247,4.121L93.816,179.677z"/>
				</g>
			</g>
		</g>
		<g>
			<g>
				<g>
					<path d="M124.769,148.729c-2.367-3.993-7.334-11.337-13.995-15.657c-5.767-3.74-13.091-3.817-18.66-0.193l-3.768,2.453
						c-1.285,0.835-2.027,2.249-1.987,3.782c0.043,1.627,0.936,3.099,2.387,3.937l28.711,16.577c0.387,0.224,0.818,0.335,1.25,0.335
						c0.427,0,0.853-0.109,1.236-0.327c0.771-0.438,1.252-1.254,1.264-2.142c0.027-2.158,1.097-4.196,2.862-5.452
						C125.127,151.288,125.432,149.848,124.769,148.729z M116.922,153.546l-25.115-14.501l3.034-1.976
						c3.854-2.507,9.163-2.428,13.212,0.198c5.033,3.264,9.118,8.825,11.333,12.264
						C118.302,150.693,117.465,152.063,116.922,153.546z"/>
				</g>
			</g>
		</g>
		<g>
			<g>
				<g>
					<path d="M131.484,114.172l-4.011-2.04c-1.366-0.692-2.963-0.629-4.27,0.175c-1.386,0.851-2.214,2.359-2.214,4.034v33.109
						c0,0.886,0.469,1.706,1.232,2.155c0.392,0.229,0.829,0.345,1.268,0.345c0.419,0,0.837-0.104,1.216-0.315
						c1.864-1.036,4.173-1.136,6.147-0.218c1.184,0.551,2.593,0.096,3.232-1.043c2.273-4.047,6.149-12.019,6.561-19.946
						C141.001,123.563,137.405,117.183,131.484,114.172z M135.652,130.17c-0.31,5.98-3.074,12.288-4.944,15.928
						c-0.884-0.211-1.789-0.317-2.708-0.317c-0.675,0-1.348,0.059-2.01,0.174v-28.967l3.229,1.642
						C133.316,120.713,135.901,125.351,135.652,130.17z"/>
				</g>
			</g>
		</g>
	</g>
</g>
<g id="Layer_75">
</g>
<g id="Layer_76">
</g>
<g id="Layer_77">
</g>
<g id="Layer_78">
</g>
<g id="Layer_79">
</g>
<g id="Layer_80">
</g>
</svg>
