<?xml version="1.0" encoding="utf-8"?>
<!-- Generator: Adobe Illustrator 24.0.0, SVG Export Plug-In . SVG Version: 6.00 Build 0)  -->
<svg version="1.1" xmlns="http://www.w3.org/2000/svg" xmlns:xlink="http://www.w3.org/1999/xlink" x="0px" y="0px"
	 viewBox="0 0 256 256" style="enable-background:new 0 0 256 256;" xml:space="preserve">
<style type="text/css">
	.st0{fill:#6CADEF;}
	.st1{fill:#F9D0B4;}
	.st2{fill:#5B5D60;}
	.st3{fill:#9BE5F9;}
	.st4{fill:#FC657E;}
	.st5{fill:#70D6F9;}
	.st6{fill:#F5C84C;}
	.st7{fill:#F98FA6;}
	.st8{fill:#FED690;}
	.st9{fill:#87D147;}
	.st10{fill:#B2E26D;}
	.st11{fill:#EDF4FC;}
	.st12{fill:#FCDD86;}
	.st13{fill:#754E34;}
	.st14{fill:#B598F9;}
	.st15{fill:#5290DB;}
	.st16{fill:#C7D7E5;}
	.st17{fill:#C18E6B;}
	.st18{fill:#DAE6F1;}
	.st19{fill:#3CAADC;}
	.st20{fill:#818182;}
	.st21{fill:#CBEFF7;}
	.st22{fill:#FCA265;}
	.st23{fill:#A57453;}
	.st24{fill:#8652D8;}
	.st25{fill:#966AEA;}
	.st26{fill:#FEB872;}
	.st27{fill:#EDB311;}
	.st28{fill:#EF4460;}
</style>
<g id="Layer_1">
</g>
<g id="Layer_2">
</g>
<g id="Layer_3">
</g>
<g id="Layer_4">
</g>
<g id="Layer_5">
</g>
<g id="Layer_6">
</g>
<g id="Layer_7">
</g>
<g id="Layer_8">
</g>
<g id="Layer_9">
</g>
<g id="Layer_10">
</g>
<g id="Layer_11">
</g>
<g id="Layer_12">
</g>
<g id="Layer_13">
</g>
<g id="Layer_14">
</g>
<g id="Layer_15">
</g>
<g id="Layer_16">
</g>
<g id="Layer_17">
</g>
<g id="Layer_18">
</g>
<g id="Layer_19">
</g>
<g id="Layer_20">
</g>
<g id="Layer_21">
</g>
<g id="Layer_22">
</g>
<g id="Layer_23">
</g>
<g id="Layer_24">
</g>
<g id="Layer_25">
</g>
<g id="Layer_26">
</g>
<g id="Layer_27">
</g>
<g id="Layer_28">
</g>
<g id="Layer_29">
</g>
<g id="Layer_30">
</g>
<g id="Layer_31">
</g>
<g id="Layer_32">
</g>
<g id="Layer_33">
</g>
<g id="Layer_34">
</g>
<g id="Layer_35">
</g>
<g id="Layer_36">
</g>
<g id="Layer_37">
</g>
<g id="Layer_38">
</g>
<g id="Layer_39">
</g>
<g id="Layer_40">
</g>
<g id="Layer_41">
</g>
<g id="Layer_42">
</g>
<g id="Layer_43">
</g>
<g id="Layer_44">
</g>
<g id="Layer_45">
</g>
<g id="Layer_46">
</g>
<g id="Layer_47">
</g>
<g id="Layer_48">
</g>
<g id="Layer_49">
</g>
<g id="Layer_50">
</g>
<g id="Layer_51">
</g>
<g id="Layer_52">
</g>
<g id="Layer_53">
</g>
<g id="Layer_54">
</g>
<g id="Layer_55">
	<g>
		<g>
			<g>
				<path class="st0" d="M226.925,32.5H29.075c-6.779,0-12.325,5.546-12.325,12.325v141.35c0,6.779,5.546,12.325,12.325,12.325
					h197.849c6.779,0,12.325-5.546,12.325-12.325V44.825C239.25,38.046,233.704,32.5,226.925,32.5z"/>
			</g>
		</g>
		<g>
			<g>
				<path class="st12" d="M226.925,44.5H29.075c-0.152,0-0.325,0.173-0.325,0.325v141.35c0,0.152,0.173,0.325,0.325,0.325h197.85
					c0.152,0,0.325-0.173,0.325-0.325V44.825C227.25,44.673,227.077,44.5,226.925,44.5z"/>
			</g>
		</g>
		<g>
			<g>
				<path class="st11" d="M167.845,142.5h-27.776c-1.712,0-3.112,1.4-3.112,3.112v7.888h34v-7.888
					C170.957,143.9,169.557,142.5,167.845,142.5z"/>
			</g>
		</g>
		<g>
			<g>
				<path class="st1" d="M211.765,87.882c-2.185-1.298-5.007-0.602-6.34,1.562l-10.55,17.142l-0.009,0.009
					c0.554-1.322,0.635-2.624-0.11-3.771c-3.213-4.946-9.149,0.188-14.32,3.547c-3.193,2.074-9.341,3.63-13.578,4.518
					c-3.076,0.644-5.953,2.005-8.395,3.982c-2.445,1.979-4.45,3.603-7.223,5.849c-6.466,4.484-9.759,11.72-9.759,19.045v2.732
					h24.733c0.036-1.055,0.255-2.093,0.679-3.063c1.073-2.455,3.602-6.829,9.374-8.757l0.077-0.026l12.436-4.118
					c7.059-2.338,12.912-7.363,16.292-13.986l8.552-18.734C214.609,91.654,213.808,89.096,211.765,87.882z"/>
			</g>
		</g>
		<g>
			<g>
				<path class="st5" d="M172.308,153.5h-36.703c-1.463,0-2.648,1.186-2.648,2.648v12.235c0,1.721,1.396,3.117,3.117,3.117h35.766
					c1.721,0,3.117-1.396,3.117-3.117v-12.234C174.957,154.686,173.771,153.5,172.308,153.5z"/>
			</g>
		</g>
		<g>
			<g>
				<path class="st11" d="M115.931,142.5H88.155c-1.712,0-3.112,1.4-3.112,3.112v7.888h34v-7.888
					C119.043,143.9,117.642,142.5,115.931,142.5z"/>
			</g>
		</g>
		<g>
			<g>
				<path class="st1" d="M104.761,120.722c-2.774-2.246-4.779-3.87-7.223-5.849c-2.442-1.978-5.32-3.338-8.395-3.982
					c-4.237-0.888-10.386-2.444-13.578-4.518c-5.171-3.359-11.107-8.494-14.32-3.547c-0.745,1.147-0.664,2.448-0.11,3.771
					l-0.009-0.009l-10.55-17.142c-1.332-2.164-4.154-2.86-6.34-1.562c-2.044,1.214-2.844,3.772-1.857,5.934l8.552,18.734
					c3.379,6.624,9.233,11.649,16.292,13.986l12.436,4.118l0.077,0.026c5.773,1.928,8.301,6.302,9.374,8.757
					c0.424,0.969,0.643,2.008,0.679,3.063h24.733v-2.732C114.52,132.443,111.227,125.207,104.761,120.722z"/>
			</g>
		</g>
		<g>
			<g>
				<path class="st5" d="M120.394,153.5H83.692c-1.463,0-2.649,1.186-2.649,2.649v12.234c0,1.721,1.396,3.117,3.117,3.117h35.766
					c1.721,0,3.117-1.396,3.117-3.117v-12.234C123.043,154.686,121.857,153.5,120.394,153.5z"/>
			</g>
		</g>
		<g>
			<g>
				<path class="st4" d="M152.587,64.267c-6.233-5.476-15.783-4.78-21.649,1.087l-1.761,1.761c-0.649,0.65-1.703,0.65-2.352,0
					l-1.761-1.761c-5.866-5.866-15.416-6.562-21.649-1.086c-6.83,6-7.083,16.413-0.757,22.738l21.621,21.621
					c2.056,2.056,5.389,2.056,7.445,0l21.621-21.621C159.669,80.679,159.417,70.267,152.587,64.267z"/>
			</g>
		</g>
		<g>
			<g>
				<path class="st11" d="M191.943,242.208c-19.561-10.457-41.672-15.983-63.943-15.983s-44.383,5.526-63.943,15.983
					c-2.922,1.562-4.025,5.197-2.463,8.119c1.563,2.923,5.195,4.024,8.12,2.463c17.826-9.528,37.981-14.565,58.286-14.565
					c20.306,0,40.46,5.037,58.287,14.565c2.919,1.561,6.556,0.464,8.119-2.463C195.969,247.405,194.866,243.77,191.943,242.208z"/>
			</g>
		</g>
		<g>
			<g>
				<path class="st16" d="M134,198.5v11c0,3.313-2.687,6-6,6s-6-2.687-6-6v-11h-12.719v29.042
					c6.192-0.863,12.448-1.317,18.719-1.317c6.271,0,12.527,0.454,18.719,1.317V198.5H134z"/>
			</g>
		</g>
		<g>
			<g>
				<g>
					<g>
						<path d="M197.249,245.032c-0.659-2.174-2.125-3.959-4.127-5.029c-19.921-10.649-42.439-16.278-65.122-16.278
							s-45.201,5.629-65.121,16.278c-2.003,1.07-3.469,2.855-4.128,5.029c-0.659,2.173-0.433,4.472,0.638,6.474
							c2.209,4.132,7.367,5.694,11.504,3.489c17.466-9.336,37.213-14.271,57.107-14.271s39.642,4.935,57.108,14.271
							c1.251,0.668,2.617,1.008,3.997,1.008c0.827,0,1.66-0.122,2.474-0.369c2.175-0.658,3.962-2.124,5.031-4.128
							C197.682,249.504,197.908,247.205,197.249,245.032z M192.201,249.149c-0.44,0.825-1.176,1.429-2.07,1.699
							c-0.896,0.271-1.842,0.178-2.665-0.264c-18.189-9.722-38.752-14.86-59.466-14.86s-41.276,5.139-59.463,14.86
							c-1.702,0.908-3.829,0.266-4.739-1.437c-0.44-0.824-0.533-1.771-0.263-2.665c0.271-0.895,0.875-1.63,1.7-2.07
							c19.198-10.264,40.901-15.688,62.765-15.688s43.566,5.425,62.766,15.688c0.824,0.44,1.428,1.176,1.699,2.07
							C192.735,247.378,192.643,248.324,192.201,249.149z"/>
					</g>
				</g>
			</g>
		</g>
		<g>
			<g>
				<g>
					<path d="M226.925,30H29.075C20.9,30,14.25,36.65,14.25,44.825v141.35C14.25,194.35,20.9,201,29.075,201h197.85
						c8.175,0,14.825-6.65,14.825-14.825V44.825C241.75,36.65,235.1,30,226.925,30z M236.75,186.175
						c0,5.418-4.407,9.825-9.825,9.825H29.075c-5.418,0-9.825-4.407-9.825-9.825V44.825c0-5.418,4.407-9.825,9.825-9.825h197.85
						c5.418,0,9.825,4.407,9.825,9.825V186.175z"/>
				</g>
			</g>
		</g>
		<g>
			<g>
				<g>
					<path d="M226.925,42H29.075c-1.531,0-2.825,1.294-2.825,2.825v141.35c0,1.531,1.294,2.825,2.825,2.825h197.85
						c1.531,0,2.825-1.294,2.825-2.825V44.825C229.75,43.294,228.456,42,226.925,42z M224.75,184H31.25V47h193.5V184z"/>
				</g>
			</g>
		</g>
		<g>
			<g>
				<g>
					<path d="M146.719,196H134c-1.381,0-2.5,1.119-2.5,2.5v11c0,1.93-1.57,3.5-3.5,3.5s-3.5-1.57-3.5-3.5v-11
						c0-1.381-1.119-2.5-2.5-2.5h-12.719c-1.381,0-2.5,1.119-2.5,2.5v29.041c0,0.724,0.313,1.411,0.858,1.886
						c0.546,0.475,1.269,0.689,1.986,0.591c6.159-0.858,12.341-1.293,18.374-1.293s12.215,0.435,18.374,1.293
						c0.115,0.016,0.23,0.023,0.345,0.023c0.6,0,1.184-0.216,1.642-0.614c0.545-0.475,0.858-1.162,0.858-1.886V198.5
						C149.219,197.119,148.1,196,146.719,196z M144.219,224.698c-5.442-0.646-10.886-0.974-16.219-0.974s-10.776,0.327-16.219,0.974
						V201h7.719v8.5c0,4.687,3.813,8.5,8.5,8.5s8.5-3.813,8.5-8.5V201h7.719V224.698z"/>
				</g>
			</g>
		</g>
		<g>
			<g>
				<path class="st4" d="M30.206,225.1h-2.4v-2.3c0-1.8-1.4-3.2-3.2-3.2c-1.7,0-3.2,1.4-3.2,3.1v2.4h-2.3c-1.8,0-3.2,1.4-3.2,3.2
					c-0.1,1.7,1.3,3.2,3.2,3.2h2.3v2.3c0,1.8,1.4,3.2,3.2,3.2c1.7,0,3.2-1.4,3.2-3.1v-2.4h2.3c1.8,0,3.2-1.4,3.2-3.2
					C33.306,226.6,31.906,225.1,30.206,225.1z"/>
			</g>
		</g>
		<g>
			<g>
				<path class="st5" d="M143.038,0c-1.878,0-3.4,1.522-3.4,3.4c0,1.878,1.522,3.4,3.4,3.4c1.878,0,3.4-1.522,3.4-3.4
					C146.438,1.522,144.916,0,143.038,0z"/>
			</g>
		</g>
		<g>
			<g>
				<path class="st6" d="M38.506,249.2c-1.878,0-3.4,1.522-3.4,3.4c0,1.878,1.522,3.4,3.4,3.4c1.878,0,3.4-1.522,3.4-3.4
					C41.906,250.722,40.384,249.2,38.506,249.2z"/>
			</g>
		</g>
		<g>
			<g>
				<path class="st9" d="M227.288,213.2c-3.1-0.6-5.6-3-6.2-6.1c0-0.1-0.3-0.1-0.3,0c-0.6,3.1-3.1,5.5-6.2,6.1c-0.1,0-0.1,0.2,0,0.3
					c3.1,0.6,5.6,3,6.2,6.1c0,0.1,0.3,0.1,0.3,0c0.6-3.1,3.1-5.5,6.2-6.1C227.388,213.4,227.388,213.2,227.288,213.2z"/>
			</g>
		</g>
		<g>
			<g>
				<path class="st6" d="M112.456,13.2c-4.5-0.8-8-4.3-8.9-8.7c0-0.2-0.4-0.2-0.4,0c-0.9,4.4-4.4,7.9-8.9,8.7c-0.2,0-0.2,0.3,0,0.4
					c4.5,0.8,8,4.3,8.9,8.7c0,0.2,0.4,0.2,0.4,0c0.9-4.4,4.4-7.9,8.9-8.7C112.656,13.5,112.656,13.2,112.456,13.2z"/>
			</g>
		</g>
		<g>
			<g>
				<path d="M195.834,104.338c-1.269-0.542-2.738,0.049-3.28,1.319c-1.276,2.994-6.19,6.669-7.977,7.832
					c-1.156,0.753-1.484,2.302-0.731,3.458c0.479,0.737,1.28,1.138,2.098,1.138c0.467,0,0.938-0.131,1.359-0.403
					c0.787-0.512,7.75-5.138,9.851-10.063C197.694,106.349,197.104,104.88,195.834,104.338z"/>
			</g>
		</g>
		<g>
			<g>
				<g>
					<path d="M167.845,140h-27.775c-3.095,0-5.612,2.518-5.612,5.612v7.888c0,1.381,1.119,2.5,2.5,2.5h34c1.381,0,2.5-1.119,2.5-2.5
						v-7.888C173.457,142.518,170.939,140,167.845,140z M168.457,151h-29v-5.388c0-0.332,0.28-0.612,0.612-0.612h27.775
						c0.332,0,0.612,0.28,0.612,0.612V151z"/>
				</g>
			</g>
		</g>
		<g>
			<g>
				<g>
					<path d="M213.042,85.732C213.041,85.732,213.041,85.732,213.042,85.732c-3.342-1.986-7.713-0.904-9.746,2.401l-7.434,12.079
						c-0.925-0.949-2.025-1.557-3.285-1.81c-3.756-0.756-7.674,1.92-11.466,4.506c-0.688,0.468-1.369,0.933-2.037,1.367
						c-2.2,1.429-6.721,2.908-12.729,4.167c-3.456,0.725-6.727,2.276-9.455,4.486l-7.153,5.793
						c-6.737,4.712-10.756,12.571-10.756,21.045v2.732c0,1.381,1.119,2.5,2.5,2.5h24.732c1.348,0,2.452-1.067,2.499-2.414
						c0.026-0.771,0.185-1.493,0.471-2.147c1.11-2.541,3.379-5.885,7.946-7.41l12.436-4.118c7.732-2.561,14.029-7.967,17.732-15.223
						c0.017-0.033,0.032-0.065,0.048-0.099l8.552-18.734C217.417,91.524,216.189,87.604,213.042,85.732z M211.348,92.778
						l-8.528,18.684c-3.104,6.053-8.368,10.563-14.827,12.702l-12.519,4.146c-4.938,1.648-8.697,5.15-10.872,10.126
						c-0.222,0.505-0.401,1.027-0.541,1.564h-20.08v-0.232c0-6.868,3.246-13.22,8.684-16.99c0.051-0.036,0.101-0.073,0.148-0.112
						l7.224-5.85c2.115-1.713,4.651-2.916,7.334-3.478c6.79-1.423,11.644-3.061,14.428-4.868c0.698-0.454,1.411-0.94,2.13-1.43
						c2.662-1.814,5.987-4.08,7.665-3.734c0.17,0.034,0.568,0.114,1.066,0.881c0.084,0.13,0.307,0.474-0.1,1.442
						c-0.452,1.079-0.091,2.323,0.863,3.001c0.952,0.677,2.254,0.6,3.125-0.185c0.177-0.16,0.331-0.345,0.456-0.548l10.55-17.143
						c0.614-0.996,1.93-1.318,2.934-0.724C211.436,90.595,211.806,91.775,211.348,92.778z"/>
				</g>
			</g>
		</g>
		<g>
			<g>
				<g>
					<path d="M172.309,151h-36.703c-2.839,0-5.148,2.31-5.148,5.148v12.234c0,3.098,2.52,5.617,5.617,5.617h35.766
						c3.098,0,5.617-2.52,5.617-5.617v-12.234C177.457,153.31,175.147,151,172.309,151z M172.457,168.383
						c0,0.34-0.277,0.617-0.617,0.617h-35.766c-0.34,0-0.617-0.277-0.617-0.617v-12.234c0-0.082,0.066-0.148,0.148-0.148h36.703
						c0.082,0,0.148,0.066,0.148,0.148V168.383z"/>
				</g>
			</g>
		</g>
		<g>
			<g>
				<path d="M71.422,113.488c-1.664-1.08-6.699-4.839-7.976-7.831c-0.542-1.271-2.013-1.857-3.28-1.319
					c-1.271,0.542-1.86,2.011-1.319,3.28c2.101,4.926,9.063,9.552,9.851,10.063c0.421,0.273,0.894,0.403,1.36,0.403
					c0.817,0,1.619-0.401,2.099-1.138C72.908,115.789,72.579,114.24,71.422,113.488z"/>
			</g>
		</g>
		<g>
			<g>
				<g>
					<path d="M115.931,140H88.155c-3.095,0-5.612,2.518-5.612,5.612v7.888c0,1.381,1.119,2.5,2.5,2.5h34c1.381,0,2.5-1.119,2.5-2.5
						v-7.888C121.543,142.518,119.025,140,115.931,140z M116.543,151h-29v-5.388c0-0.332,0.28-0.612,0.612-0.612h27.775
						c0.332,0,0.612,0.28,0.612,0.612V151z"/>
				</g>
			</g>
		</g>
		<g>
			<g>
				<g>
					<path d="M106.264,118.723l-7.153-5.792c-2.729-2.211-5.999-3.763-9.455-4.487c-6.009-1.259-10.529-2.738-12.729-4.168
						c-0.669-0.435-1.351-0.899-2.038-1.368c-3.792-2.584-7.705-5.26-11.466-4.504c-1.26,0.253-2.359,0.86-3.284,1.81l-7.434-12.079
						c-2.034-3.307-6.405-4.381-9.745-2.401c0,0,0,0-0.001,0c-3.147,1.871-4.375,5.792-2.854,9.122l8.552,18.734
						c0.016,0.033,0.031,0.065,0.048,0.099c3.703,7.256,10,12.662,17.732,15.223l12.507,4.142c4.496,1.502,6.765,4.846,7.875,7.387
						c0.286,0.655,0.444,1.377,0.471,2.147c0.047,1.347,1.151,2.414,2.499,2.414h24.732c1.381,0,2.5-1.119,2.5-2.5v-2.732
						C117.02,131.294,113.001,123.435,106.264,118.723z M112.02,140h-20.08c-0.14-0.537-0.319-1.059-0.54-1.563
						c-2.176-4.977-5.936-8.479-10.956-10.154l-12.436-4.118c-6.459-2.139-11.723-6.649-14.827-12.702l-8.528-18.684
						c-0.458-1.003-0.088-2.184,0.86-2.747c1.005-0.598,2.32-0.272,2.934,0.724l10.55,17.143c0.125,0.203,0.289,0.396,0.466,0.557
						c0.873,0.785,2.17,0.857,3.12,0.18c0.954-0.678,1.311-1.926,0.858-3.005c-0.407-0.97-0.184-1.313-0.1-1.442
						c0.498-0.767,0.896-0.847,1.066-0.881c1.685-0.347,5.002,1.919,7.664,3.733c0.719,0.489,1.432,0.976,2.131,1.43
						c2.783,1.808,7.638,3.446,14.428,4.869c2.683,0.562,5.219,1.765,7.334,3.479l7.224,5.849c0.048,0.039,0.098,0.076,0.148,0.112
						c5.438,3.771,8.684,10.122,8.684,16.99V140z"/>
				</g>
			</g>
		</g>
		<g>
			<g>
				<g>
					<path d="M120.395,151H83.691c-2.839,0-5.148,2.31-5.148,5.148v12.234c0,3.098,2.52,5.617,5.617,5.617h35.766
						c3.098,0,5.617-2.52,5.617-5.617v-12.234C125.543,153.31,123.233,151,120.395,151z M120.543,168.383
						c0,0.34-0.277,0.617-0.617,0.617H84.16c-0.34,0-0.617-0.277-0.617-0.617v-12.234c0-0.082,0.066-0.148,0.148-0.148h36.703
						c0.082,0,0.148,0.066,0.148,0.148V168.383z"/>
				</g>
			</g>
		</g>
		<g>
			<g>
				<g>
					<path d="M154.237,62.389C154.237,62.389,154.237,62.389,154.237,62.389c-7.126-6.261-18.137-5.735-25.067,1.196l-1.17,1.17
						l-1.17-1.169c-6.931-6.933-17.94-7.459-25.067-1.197c-3.809,3.346-5.996,7.968-6.159,13.015
						c-0.161,4.978,1.766,9.85,5.285,13.369l21.62,21.621c1.467,1.467,3.417,2.274,5.491,2.274s4.024-0.808,5.49-2.274
						l21.621-21.621c3.52-3.52,5.446-8.392,5.285-13.369C160.233,70.356,158.046,65.734,154.237,62.389z M151.576,85.237
						l-21.622,21.621c-1.043,1.045-2.864,1.045-3.909,0l-21.621-21.621c-2.583-2.584-3.94-6.019-3.823-9.672
						c0.118-3.651,1.703-6.997,4.462-9.421c2.388-2.097,5.389-3.13,8.427-3.13c3.518,0,7.084,1.385,9.806,4.107l1.76,1.759
						c0.787,0.787,1.833,1.222,2.945,1.222s2.158-0.435,2.943-1.22l1.762-1.762c5.072-5.072,13.08-5.501,18.232-0.977h-0.001
						c2.76,2.424,4.345,5.77,4.463,9.421C155.517,79.219,154.159,82.653,151.576,85.237z"/>
				</g>
			</g>
		</g>
	</g>
</g>
<g id="Layer_56">
</g>
<g id="Layer_57">
</g>
<g id="Layer_58">
</g>
<g id="Layer_59">
</g>
<g id="Layer_60">
</g>
<g id="Layer_61">
</g>
<g id="Layer_62">
</g>
<g id="Layer_63">
</g>
<g id="Layer_64">
</g>
<g id="Layer_65">
</g>
<g id="Layer_66">
</g>
<g id="Layer_67">
</g>
<g id="Layer_68">
</g>
<g id="Layer_69">
</g>
<g id="Layer_70">
</g>
<g id="Layer_71">
</g>
<g id="Layer_72">
</g>
<g id="Layer_73">
</g>
<g id="Layer_74">
</g>
<g id="Layer_75">
</g>
<g id="Layer_76">
</g>
<g id="Layer_77">
</g>
<g id="Layer_78">
</g>
<g id="Layer_79">
</g>
<g id="Layer_80">
</g>
</svg>
