<?xml version="1.0" encoding="utf-8"?>
<!-- Generator: Adobe Illustrator 24.0.0, SVG Export Plug-In . SVG Version: 6.00 Build 0)  -->
<svg version="1.1" xmlns="http://www.w3.org/2000/svg" xmlns:xlink="http://www.w3.org/1999/xlink" x="0px" y="0px"
	 viewBox="0 0 256 256" style="enable-background:new 0 0 256 256;" xml:space="preserve">
<style type="text/css">
	.st0{fill:#6CADEF;}
	.st1{fill:#F9D0B4;}
	.st2{fill:#5B5D60;}
	.st3{fill:#9BE5F9;}
	.st4{fill:#FC657E;}
	.st5{fill:#70D6F9;}
	.st6{fill:#F5C84C;}
	.st7{fill:#F98FA6;}
	.st8{fill:#FED690;}
	.st9{fill:#87D147;}
	.st10{fill:#B2E26D;}
	.st11{fill:#EDF4FC;}
	.st12{fill:#FCDD86;}
	.st13{fill:#754E34;}
	.st14{fill:#B598F9;}
	.st15{fill:#5290DB;}
	.st16{fill:#C7D7E5;}
	.st17{fill:#C18E6B;}
	.st18{fill:#DAE6F1;}
	.st19{fill:#3CAADC;}
	.st20{fill:#818182;}
	.st21{fill:#CBEFF7;}
	.st22{fill:#FCA265;}
	.st23{fill:#A57453;}
	.st24{fill:#8652D8;}
	.st25{fill:#966AEA;}
	.st26{fill:#FEB872;}
	.st27{fill:#EDB311;}
	.st28{fill:#EF4460;}
</style>
<g id="Layer_1">
</g>
<g id="Layer_2">
</g>
<g id="Layer_3">
</g>
<g id="Layer_4">
</g>
<g id="Layer_5">
</g>
<g id="Layer_6">
</g>
<g id="Layer_7">
</g>
<g id="Layer_8">
</g>
<g id="Layer_9">
</g>
<g id="Layer_10">
</g>
<g id="Layer_11">
</g>
<g id="Layer_12">
</g>
<g id="Layer_13">
</g>
<g id="Layer_14">
</g>
<g id="Layer_15">
</g>
<g id="Layer_16">
</g>
<g id="Layer_17">
</g>
<g id="Layer_18">
</g>
<g id="Layer_19">
</g>
<g id="Layer_20">
</g>
<g id="Layer_21">
</g>
<g id="Layer_22">
</g>
<g id="Layer_23">
</g>
<g id="Layer_24">
</g>
<g id="Layer_25">
</g>
<g id="Layer_26">
</g>
<g id="Layer_27">
</g>
<g id="Layer_28">
</g>
<g id="Layer_29">
</g>
<g id="Layer_30">
</g>
<g id="Layer_31">
</g>
<g id="Layer_32">
</g>
<g id="Layer_33">
</g>
<g id="Layer_34">
</g>
<g id="Layer_35">
</g>
<g id="Layer_36">
</g>
<g id="Layer_37">
</g>
<g id="Layer_38">
</g>
<g id="Layer_39">
</g>
<g id="Layer_40">
</g>
<g id="Layer_41">
</g>
<g id="Layer_42">
</g>
<g id="Layer_43">
</g>
<g id="Layer_44">
</g>
<g id="Layer_45">
</g>
<g id="Layer_46">
</g>
<g id="Layer_47">
</g>
<g id="Layer_48">
</g>
<g id="Layer_49">
</g>
<g id="Layer_50">
</g>
<g id="Layer_51">
</g>
<g id="Layer_52">
</g>
<g id="Layer_53">
</g>
<g id="Layer_54">
</g>
<g id="Layer_55">
</g>
<g id="Layer_56">
	<g>
		<g>
			<g>
				<path class="st0" d="M226.925,32.5H29.075c-6.779,0-12.325,5.546-12.325,12.325v141.35c0,6.779,5.546,12.325,12.325,12.325
					h197.849c6.779,0,12.325-5.546,12.325-12.325V44.825C239.25,38.046,233.704,32.5,226.925,32.5z"/>
			</g>
		</g>
		<g>
			<g>
				<path class="st3" d="M226.925,44.5H29.075c-0.152,0-0.325,0.173-0.325,0.325v141.35c0,0.152,0.173,0.325,0.325,0.325h197.85
					c0.152,0,0.325-0.173,0.325-0.325V44.825C227.25,44.673,227.077,44.5,226.925,44.5z"/>
			</g>
		</g>
		<g>
			<g>
				<path class="st1" d="M123.17,92.285c-0.523,0-1.036,0.044-1.537,0.122v18.13c0,0.54-0.025,1.075-0.06,1.606
					c0.521,0.084,1.052,0.139,1.597,0.139c5.522,0,9.999-4.477,9.999-9.999C133.168,96.762,128.692,92.285,123.17,92.285z"/>
			</g>
		</g>
		<g>
			<g>
				<path class="st1" d="M120.16,89.365c-2.423-0.562-5.366-1.965-8.739-5.03c-0.667-0.606-1.696-0.556-2.282,0.128
					c-3.647,4.257-16.581,17.173-35.403,11.812v14.262c0,13.172,10.777,23.948,23.948,23.948c13.172,0,23.948-10.777,23.948-23.948
					V91.189C121.633,90.31,121.017,89.563,120.16,89.365z"/>
			</g>
		</g>
		<g>
			<g>
				<path class="st1" d="M73.736,110.537V96.275c-1.644-0.469-3.333-1.075-5.065-1.84c-1.117-0.493-2.421-0.266-3.312,0.569
					c-1.942,1.822-3.159,4.406-3.159,7.28c0,5.522,4.477,9.999,9.999,9.999c0.545,0,1.076-0.056,1.597-0.139
					C73.761,111.612,73.736,111.077,73.736,110.537z"/>
			</g>
		</g>
		<g>
			<g>
				<path class="st8" d="M97.685,56.803c-17.911,0-32.566,14.655-32.566,32.565v5.885c0.081-0.082,0.156-0.17,0.24-0.249
					c0.89-0.835,2.195-1.062,3.312-0.569c1.732,0.765,3.421,1.371,5.065,1.84c18.822,5.362,31.756-7.554,35.403-11.812
					c0.586-0.684,1.615-0.734,2.282-0.128c3.373,3.065,6.315,4.468,8.739,5.03c0.857,0.199,1.473,0.945,1.473,1.824v1.218
					c0.501-0.078,1.014-0.122,1.537-0.122c2.767,0,5.27,1.124,7.08,2.94v-5.857C130.25,71.458,115.596,56.803,97.685,56.803z"/>
			</g>
		</g>
		<g>
			<g>
				<path class="st7" d="M147.384,162.56c-0.239-4.291-3.24-7.928-7.408-8.977l-4.76-1.201c-0.446-0.113-11.779-2.974-12.363-3.121
					c-1.431-0.36-2.82-0.871-4.143-1.523l-5.921-2.919c-2.274-1.121-3.714-3.436-3.714-5.971v-7.263
					c-3.393,1.849-7.275,2.902-11.391,2.902c-4.116,0-7.998-1.052-11.391-2.902v7.263c0,2.535-1.44,4.85-3.714,5.971l-5.921,2.919
					c-1.323,0.653-2.712,1.163-4.143,1.523c-0.084,0.021-12.285,3.101-12.363,3.121l-4.76,1.201
					c-4.167,1.049-7.169,4.686-7.408,8.977l-0.871,23.94h101.141L147.384,162.56z"/>
			</g>
		</g>
		<g>
			<g>
				<path class="st8" d="M131.229,125.707c4.574-7.174,2.414-14.158,0.396-18.103c-1.77,2.808-4.891,4.679-8.455,4.679
					c-0.545,0-1.076-0.056-1.597-0.139c-0.562,8.379-5.479,15.615-12.497,19.441v7.263c0,2.325,1.22,4.453,3.174,5.656
					c0.783,0.483-0.211-0.084,6.46,3.234c0.897,0.443,2.083,0.911,2.996,1.198c0.181,0.057,0.365,0.106,0.548,0.158
					c3.524-1.29,6.634-3.338,8.648-6.527c3.693-5.847,1.538-11.512,0.179-14.048C130.603,127.627,130.686,126.559,131.229,125.707z"
					/>
			</g>
		</g>
		<g>
			<g>
				<path class="st8" d="M73.797,112.143c-0.521,0.084-1.052,0.139-1.597,0.139c-3.565,0-6.685-1.871-8.455-4.679
					c-2.018,3.945-4.178,10.929,0.396,18.103c0.543,0.852,0.626,1.92,0.148,2.811c-1.359,2.536-3.514,8.201,0.179,14.048
					c2.014,3.189,5.123,5.237,8.648,6.527c0.183-0.052,0.366-0.102,0.548-0.158c0.914-0.286,2.099-0.755,2.996-1.198
					c7.104-3.534,5.735-2.788,6.46-3.234c1.954-1.204,3.174-3.332,3.174-5.656v-7.263C79.275,127.759,74.359,120.522,73.797,112.143
					z"/>
			</g>
		</g>
		<g>
			<g>
				<path class="st14" d="M180.119,60.254c-0.888-0.917-2.358-0.9-3.219,0.042c-4.822,5.271-7.86,12.954-7.86,21.51
					c0,8.85,3.253,16.761,8.366,22.04c0.888,0.917,2.358,0.9,3.219-0.042c4.822-5.271,7.86-12.954,7.86-21.51
					C188.485,73.444,185.232,65.532,180.119,60.254z"/>
			</g>
		</g>
		<g>
			<g>
				<path class="st24" d="M216.083,90.549c-3.642-2.123-8.027-3.282-12.656-3.228c-0.577,1.333-1.249,2.651-2.026,3.942
					c-3.851,6.407-9.444,10.939-15.381,13.104c4.498,1.556,9.678,1.85,14.887,0.544c7.107-1.782,12.762-6.164,15.902-11.611
					C217.355,92.354,217.025,91.098,216.083,90.549z"/>
			</g>
		</g>
		<g>
			<g>
				<path class="st24" d="M156.123,91.263c-0.776-1.291-1.448-2.61-2.026-3.942c-4.629-0.054-9.014,1.105-12.656,3.228
					c-0.942,0.549-1.271,1.805-0.726,2.752c3.14,5.447,8.795,9.829,15.902,11.611c5.209,1.306,10.389,1.012,14.887-0.544
					C165.567,102.202,159.974,97.67,156.123,91.263z"/>
			</g>
		</g>
		<g>
			<g>
				<path class="st25" d="M205.355,69.349c-0.273-1.175-1.471-1.876-2.627-1.533c-5.359,1.592-10.52,5.134-14.505,10.235
					c0.167,1.386,0.262,2.8,0.262,4.243c0,7.857-2.567,14.972-6.72,20.166c0.054,0.289,0.112,0.577,0.178,0.861
					c0.273,1.175,1.471,1.876,2.627,1.533c6.469-1.921,12.668-6.663,16.831-13.589C205.708,84.099,206.925,76.11,205.355,69.349z"/>
			</g>
		</g>
		<g>
			<g>
				<path class="st25" d="M169.04,81.806c0-1.294,0.078-2.565,0.212-3.815c-3.978-5.068-9.118-8.59-14.455-10.175
					c-1.156-0.343-2.354,0.358-2.627,1.533c-1.571,6.762-0.354,14.75,3.953,21.915c4.164,6.927,10.362,11.668,16.832,13.589
					c1.156,0.344,2.354-0.358,2.627-1.533c0.097-0.417,0.176-0.841,0.249-1.268C171.637,96.853,169.04,89.706,169.04,81.806z"/>
			</g>
		</g>
		<g>
			<g>
				<path class="st1" d="M112.789,144.818c-2.274-1.121-3.714-3.436-3.714-5.971v-7.263c-3.393,1.849-7.275,2.901-11.391,2.901
					c-4.116,0-7.998-1.052-11.391-2.901v7.263c0,2.535-1.44,4.85-3.714,5.971l-4.386,2.163c3.585,8.457,9.082,15.926,15.946,21.853
					c2.031,1.753,5.06,1.753,7.091,0c6.864-5.926,12.361-13.396,15.946-21.853L112.789,144.818z"/>
			</g>
		</g>
		<g>
			<g>
				<path class="st11" d="M191.943,242.208c-19.561-10.457-41.672-15.983-63.943-15.983c-22.271,0-44.383,5.526-63.943,15.983
					c-2.922,1.562-4.025,5.197-2.463,8.119c1.563,2.923,5.195,4.024,8.12,2.463c17.826-9.528,37.981-14.565,58.286-14.565
					c20.306,0,40.46,5.037,58.287,14.565c2.919,1.561,6.556,0.464,8.119-2.463C195.969,247.405,194.866,243.77,191.943,242.208z"/>
			</g>
		</g>
		<g>
			<g>
				<path class="st16" d="M134,198.5v11c0,3.313-2.687,6-6,6s-6-2.687-6-6v-11h-12.719v29.042
					c6.192-0.863,12.448-1.317,18.719-1.317c6.271,0,12.527,0.454,18.719,1.317V198.5H134z"/>
			</g>
		</g>
		<g>
			<g>
				<g>
					<path d="M146.719,196H134c-1.381,0-2.5,1.119-2.5,2.5v11c0,1.93-1.57,3.5-3.5,3.5s-3.5-1.57-3.5-3.5v-11
						c0-1.381-1.119-2.5-2.5-2.5h-12.719c-1.381,0-2.5,1.119-2.5,2.5v29.041c0,0.724,0.313,1.411,0.859,1.886
						c0.458,0.398,1.042,0.614,1.641,0.614c0.115,0,0.23-0.008,0.345-0.023c6.159-0.858,12.34-1.293,18.374-1.293
						c6.033,0,12.215,0.435,18.374,1.293c0.715,0.097,1.441-0.116,1.986-0.591c0.546-0.475,0.859-1.162,0.859-1.886V198.5
						C149.219,197.119,148.1,196,146.719,196z M144.219,224.698c-5.442-0.646-10.885-0.974-16.219-0.974
						c-5.334,0-10.777,0.327-16.219,0.974V201h7.719v8.5c0,4.687,3.813,8.5,8.5,8.5s8.5-3.813,8.5-8.5V201h7.719V224.698z"/>
				</g>
			</g>
		</g>
		<g>
			<g>
				<g>
					<path d="M226.925,30H29.075C20.9,30,14.25,36.65,14.25,44.825v141.35C14.25,194.35,20.9,201,29.075,201h197.85
						c8.175,0,14.825-6.65,14.825-14.825V44.825C241.75,36.65,235.1,30,226.925,30z M236.75,186.175
						c0,5.418-4.408,9.825-9.825,9.825H29.075c-5.417,0-9.825-4.407-9.825-9.825V44.825c0-5.418,4.408-9.825,9.825-9.825h197.85
						c5.417,0,9.825,4.407,9.825,9.825V186.175z"/>
				</g>
			</g>
		</g>
		<g>
			<g>
				<g>
					<path d="M226.925,42H29.075c-1.531,0-2.825,1.294-2.825,2.825v141.35c0,1.531,1.294,2.825,2.825,2.825h197.85
						c1.531,0,2.825-1.294,2.825-2.825V44.825C229.75,43.294,228.456,42,226.925,42z M224.75,184H31.25V47h193.5V184z"/>
				</g>
			</g>
		</g>
		<g>
			<g>
				<g>
					<g>
						<path d="M197.249,245.032c-0.659-2.174-2.125-3.959-4.127-5.029c-19.921-10.649-42.439-16.278-65.122-16.278
							s-45.201,5.629-65.122,16.278c-2.002,1.07-3.468,2.856-4.127,5.029c-0.659,2.172-0.432,4.472,0.638,6.474
							c2.208,4.129,7.367,5.695,11.503,3.489c17.465-9.336,37.213-14.271,57.107-14.271c19.894,0,39.642,4.935,57.108,14.271
							c1.25,0.668,2.617,1.008,3.997,1.008c0.828,0,1.66-0.122,2.475-0.369c2.174-0.658,3.961-2.125,5.031-4.128
							C197.682,249.504,197.908,247.205,197.249,245.032z M192.201,249.149c-0.44,0.825-1.176,1.429-2.071,1.699
							c-0.894,0.271-1.84,0.177-2.665-0.264c0,0,0,0,0,0c-18.189-9.722-38.752-14.86-59.465-14.86
							c-20.714,0-41.276,5.139-59.463,14.86c-1.705,0.907-3.829,0.265-4.738-1.437c-0.44-0.824-0.534-1.771-0.262-2.665
							c0.271-0.895,0.875-1.63,1.699-2.07c19.198-10.264,40.902-15.688,62.765-15.688s43.566,5.425,62.765,15.688
							c0.825,0.44,1.428,1.176,1.699,2.07C192.736,247.378,192.643,248.324,192.201,249.149z"/>
					</g>
				</g>
			</g>
		</g>
		<g>
			<g>
				<path class="st5" d="M30.206,225.1h-2.4v-2.3c0-1.8-1.4-3.2-3.2-3.2c-1.7,0-3.2,1.4-3.2,3.1v2.4h-2.3c-1.8,0-3.2,1.4-3.2,3.2
					c-0.1,1.7,1.3,3.2,3.2,3.2h2.3v2.3c0,1.8,1.4,3.2,3.2,3.2c1.7,0,3.2-1.4,3.2-3.1v-2.4h2.3c1.8,0,3.2-1.4,3.2-3.2
					C33.306,226.6,31.906,225.1,30.206,225.1z"/>
			</g>
		</g>
		<g>
			<g>
				<path class="st9" d="M137.506,0c-1.878,0-3.4,1.522-3.4,3.4c0,1.878,1.522,3.4,3.4,3.4c1.878,0,3.4-1.522,3.4-3.4
					C140.906,1.522,139.384,0,137.506,0z"/>
			</g>
		</g>
		<g>
			<g>
				<path class="st6" d="M38.506,249.2c-1.878,0-3.4,1.522-3.4,3.4c0,1.878,1.522,3.4,3.4,3.4c1.878,0,3.4-1.522,3.4-3.4
					C41.906,250.722,40.384,249.2,38.506,249.2z"/>
			</g>
		</g>
		<g>
			<g>
				<path class="st4" d="M227.288,213.2c-3.1-0.6-5.6-3-6.2-6.1c0-0.1-0.3-0.1-0.3,0c-0.6,3.1-3.1,5.5-6.2,6.1c-0.1,0-0.1,0.2,0,0.3
					c3.1,0.6,5.6,3,6.2,6.1c0,0.1,0.3,0.1,0.3,0c0.6-3.1,3.1-5.5,6.2-6.1C227.388,213.4,227.388,213.2,227.288,213.2z"/>
			</g>
		</g>
		<g>
			<g>
				<path class="st6" d="M186.288,13.2c-4.5-0.8-8-4.3-8.9-8.7c0-0.2-0.4-0.2-0.4,0c-0.9,4.4-4.4,7.9-8.9,8.7c-0.2,0-0.2,0.3,0,0.4
					c4.5,0.8,8,4.3,8.9,8.7c0,0.2,0.4,0.2,0.4,0c0.9-4.4,4.4-7.9,8.9-8.7C186.488,13.5,186.488,13.2,186.288,13.2z"/>
			</g>
		</g>
		<g>
			<g>
				<g>
					<path d="M121.248,89.938c-1.217,0.189-2.115,1.237-2.115,2.47v18.13c0,0.483-0.022,0.963-0.055,1.439
						c-0.086,1.288,0.822,2.43,2.097,2.635c0.712,0.115,1.365,0.171,1.995,0.171c6.892,0,12.499-5.606,12.499-12.498
						C135.668,94.764,128.99,88.724,121.248,89.938z M124.133,109.721V94.847c3.682,0.475,6.536,3.629,6.536,7.438
						S127.814,109.246,124.133,109.721z"/>
				</g>
			</g>
		</g>
		<g>
			<g>
				<g>
					<path d="M120.725,86.93c-2.432-0.563-4.997-2.059-7.623-4.446c-0.82-0.744-1.923-1.126-3.022-1.063
						c-1.107,0.07-2.116,0.573-2.838,1.416c-3.293,3.844-15.392,15.998-32.82,11.034c-0.754-0.215-1.565-0.063-2.191,0.409
						c-0.626,0.473-0.994,1.211-0.994,1.995v14.262c0,14.584,11.865,26.448,26.448,26.448s26.448-11.864,26.448-26.448V91.189
						C124.133,89.146,122.731,87.394,120.725,86.93z M119.133,110.537c0,11.826-9.622,21.448-21.448,21.448
						s-21.448-9.622-21.448-21.448V99.439c17.614,3.38,29.919-7.92,34.187-12.649c2.89,2.487,5.813,4.132,8.709,4.896V110.537z"/>
				</g>
			</g>
		</g>
		<g>
			<g>
				<g>
					<path d="M76.236,110.537V96.275c0-1.117-0.741-2.098-1.815-2.404c-1.571-0.448-3.166-1.027-4.741-1.723
						c-2.034-0.896-4.402-0.493-6.031,1.033c-2.509,2.353-3.949,5.671-3.949,9.103c0,6.892,5.607,12.498,12.499,12.498
						c0.63,0,1.283-0.056,1.995-0.171c1.274-0.205,2.183-1.347,2.097-2.635C76.259,111.5,76.236,111.021,76.236,110.537z
						 M71.236,109.721c-3.682-0.475-6.536-3.628-6.536-7.437c0-2.086,0.841-4.023,2.369-5.455c0.105-0.1,0.241-0.151,0.378-0.151
						c0.072,0,0.145,0.015,0.214,0.045c1.184,0.522,2.38,0.988,3.575,1.392V109.721z"/>
				</g>
			</g>
		</g>
		<g>
			<g>
				<g>
					<g>
						<path d="M97.685,54.303c-19.335,0-35.065,15.73-35.065,35.065v5.885c0,1.01,0.607,1.921,1.54,2.309
							c0.932,0.387,2.007,0.177,2.722-0.535l0.2-0.209c0.161-0.142,0.386-0.18,0.58-0.095c1.785,0.788,3.598,1.446,5.39,1.957
							c3.392,0.966,6.604,1.381,9.622,1.381c14.166-0.001,24.023-9.14,27.75-13.271c2.89,2.488,5.813,4.133,8.709,4.896v0.722
							c0,0.729,0.318,1.423,0.872,1.897s1.287,0.686,2.008,0.573c0.407-0.063,0.785-0.093,1.157-0.093
							c2.007,0,3.892,0.783,5.309,2.205c0.714,0.718,1.791,0.933,2.726,0.546c0.936-0.387,1.545-1.299,1.545-2.311v-5.857
							C132.75,70.033,117.02,54.303,97.685,54.303z M127.75,90.647c-1.215-0.479-2.508-0.764-3.84-0.841
							c-0.471-1.415-1.651-2.522-3.185-2.877c-2.432-0.563-4.997-2.059-7.623-4.446c-0.82-0.744-1.917-1.139-3.023-1.062
							c-1.108,0.069-2.116,0.572-2.837,1.415c-3.293,3.844-15.393,15.998-32.82,11.034c-1.571-0.448-3.166-1.027-4.741-1.723
							c-0.664-0.293-1.364-0.447-2.062-0.47v-2.311c0-16.578,13.487-30.065,30.065-30.065S127.75,72.79,127.75,89.368V90.647z"/>
					</g>
				</g>
			</g>
		</g>
		<g>
			<g>
				<g>
					<path d="M149.88,162.421c-0.302-5.412-4.037-9.938-9.292-11.262l-4.762-1.202c-0.446-0.112-11.777-2.973-12.363-3.121
						c-1.261-0.317-2.488-0.769-3.648-1.341l-5.921-2.919c-1.43-0.705-2.319-2.135-2.319-3.729v-7.263
						c0-0.882-0.465-1.699-1.224-2.149s-1.698-0.467-2.473-0.046c-6.23,3.398-14.158,3.398-20.389,0
						c-0.774-0.421-1.714-0.404-2.473,0.046c-0.759,0.45-1.224,1.268-1.224,2.149v7.263c0,1.595-0.889,3.024-2.319,3.729
						l-5.922,2.92c-1.158,0.571-2.385,1.022-3.651,1.342c-0.143,0.036-12.206,3.081-12.36,3.12l-4.759,1.201
						c-5.257,1.324-8.991,5.851-9.295,11.311l-0.872,23.939c-0.024,0.679,0.228,1.338,0.699,1.826s1.121,0.765,1.8,0.765h101.142
						c0.679,0,1.329-0.276,1.8-0.765s0.723-1.147,0.699-1.826L149.88,162.421z M49.707,184l0.775-21.301
						c0.179-3.216,2.398-5.905,5.523-6.692l4.754-1.199c0.078-0.02,12.289-3.103,12.368-3.123c1.604-0.403,3.164-0.978,4.638-1.705
						l5.921-2.919c3.151-1.554,5.108-4.7,5.108-8.214v-3.41c5.687,2.039,12.096,2.039,17.782,0v3.41c0,3.513,1.957,6.66,5.108,8.214
						l5.92,2.919c1.476,0.729,3.037,1.302,4.638,1.705c0.584,0.147,11.919,3.01,12.364,3.121l4.761,1.201
						c3.124,0.787,5.343,3.477,5.52,6.645L145.663,184H49.707z"/>
				</g>
			</g>
		</g>
		<g>
			<g>
				<path d="M130.456,169.241c-1.381,0-2.5,1.119-2.5,2.5v13.478c0,1.381,1.119,2.5,2.5,2.5s2.5-1.119,2.5-2.5v-13.478
					C132.956,170.36,131.836,169.241,130.456,169.241z"/>
			</g>
		</g>
		<g>
			<g>
				<path d="M64.914,169.241c-1.381,0-2.5,1.119-2.5,2.5v13.478c0,1.381,1.119,2.5,2.5,2.5s2.5-1.119,2.5-2.5v-13.478
					C67.414,170.36,66.294,169.241,64.914,169.241z"/>
			</g>
		</g>
		<g>
			<g>
				<path d="M106.244,117.228c-1.058-0.887-2.635-0.749-3.522,0.31c-1.095,1.306-2.978,2.085-5.037,2.085s-3.942-0.779-5.036-2.085
					c-0.887-1.058-2.463-1.196-3.522-0.31c-1.058,0.887-1.197,2.464-0.31,3.522c2.033,2.425,5.348,3.872,8.868,3.872
					c3.52,0,6.835-1.447,8.868-3.872C107.44,119.692,107.302,118.115,106.244,117.228z"/>
			</g>
		</g>
		<g>
			<g>
				<path d="M108.104,101.949c-1.714,0-3.103,1.389-3.103,3.103s1.389,3.103,3.103,3.103s3.103-1.389,3.103-3.103
					S109.817,101.949,108.104,101.949z"/>
			</g>
		</g>
		<g>
			<g>
				<path d="M87.266,101.949c-1.714,0-3.103,1.389-3.103,3.103s1.389,3.103,3.103,3.103c1.714,0,3.103-1.389,3.103-3.103
					S88.979,101.949,87.266,101.949z"/>
			</g>
		</g>
		<g>
			<g>
				<g>
					<path d="M133.337,127.051c5.332-8.361,2.61-16.486,0.514-20.586c-0.409-0.8-1.216-1.318-2.113-1.358
						c-0.893-0.039-1.748,0.403-2.227,1.164c-1.386,2.199-3.757,3.512-6.34,3.512c-0.361,0-0.753-0.035-1.199-0.106
						c-0.692-0.111-1.404,0.074-1.954,0.512c-0.551,0.438-0.891,1.087-0.938,1.789c-0.493,7.35-4.68,13.859-11.199,17.412
						c-0.804,0.438-1.304,1.28-1.304,2.195v7.263c0,3.193,1.631,6.104,4.363,7.785l0.113,0.069c0.409,0.254,0.499,0.298,1.358,0.716
						c0.757,0.369,2.202,1.073,5.195,2.563c0.981,0.483,2.298,1.01,3.344,1.338c0.166,0.053,0.333,0.1,0.5,0.146l0.125,0.034
						c0.223,0.063,0.452,0.095,0.68,0.095c0.291,0,0.582-0.051,0.859-0.152c4.436-1.623,7.768-4.159,9.902-7.539
						c4.467-7.071,1.675-13.939,0.269-16.563C133.249,127.271,133.27,127.156,133.337,127.051z M129.121,124.363
						c-1.04,1.631-1.133,3.676-0.244,5.337c1.233,2.301,2.862,6.858-0.089,11.531c-1.414,2.239-3.644,3.992-6.635,5.22
						c-0.766-0.259-1.668-0.626-2.33-0.952c-3.006-1.495-4.461-2.205-5.223-2.576c-0.67-0.326-0.673-0.321-0.915-0.472l-0.125-0.077
						c-1.243-0.765-1.985-2.084-1.985-3.527v-5.825c6.578-4.072,10.996-10.697,12.212-18.254c2.581-0.126,5.008-1.036,6.999-2.574
						C131.811,115.693,131.905,119.997,129.121,124.363z"/>
				</g>
			</g>
		</g>
		<g>
			<g>
				<g>
					<path d="M87.49,129.389c-6.519-3.553-10.706-10.063-11.199-17.412c-0.047-0.702-0.388-1.352-0.938-1.789
						c-0.55-0.438-1.258-0.623-1.954-0.512c-0.446,0.071-0.838,0.106-1.199,0.106c-2.583,0-4.954-1.313-6.34-3.513
						c-0.479-0.76-1.332-1.201-2.227-1.163c-0.897,0.04-1.704,0.559-2.113,1.358c-2.097,4.1-4.818,12.225,0.514,20.586
						c0.067,0.105,0.088,0.221,0.053,0.287c-1.407,2.626-4.197,9.494,0.269,16.563c2.134,3.38,5.466,5.917,9.903,7.539
						c0.277,0.102,0.568,0.152,0.859,0.152c0.229,0,0.458-0.031,0.682-0.095l0.129-0.036c0.166-0.046,0.331-0.093,0.484-0.142
						c1.064-0.333,2.381-0.859,3.363-1.345c3.212-1.598,4.687-2.317,5.407-2.669c0.74-0.361,0.817-0.399,1.104-0.583l0.146-0.092
						c2.732-1.682,4.364-4.592,4.364-7.785v-7.263C88.793,130.669,88.293,129.827,87.49,129.389z M83.793,138.847
						c0,1.443-0.742,2.763-1.985,3.527l-0.235,0.149c-0.087,0.048-0.228,0.114-0.588,0.29c-0.724,0.354-2.208,1.078-5.433,2.683
						c-0.661,0.326-1.56,0.693-2.336,0.955c-2.991-1.228-5.221-2.981-6.635-5.22c-2.951-4.673-1.323-9.23-0.089-11.532
						c0.889-1.66,0.796-3.705-0.244-5.336c-2.784-4.366-2.69-8.67-1.665-12.17c1.991,1.538,4.417,2.448,6.999,2.574
						c1.216,7.557,5.634,14.182,12.212,18.254V138.847z"/>
				</g>
			</g>
		</g>
		<g>
			<g>
				<g>
					<path d="M181.915,58.514c-0.902-0.931-2.147-1.425-3.454-1.436c-1.291,0.019-2.532,0.576-3.406,1.53
						c-5.411,5.916-8.515,14.371-8.515,23.197c0,9.162,3.306,17.829,9.07,23.778c0.887,0.916,2.119,1.438,3.389,1.438
						c0.022,0,0.044,0,0.066-0.001c1.291-0.019,2.532-0.576,3.405-1.53c5.412-5.915,8.515-14.37,8.515-23.196
						C190.985,73.133,187.679,64.465,181.915,58.514z M178.989,101.884c-4.738-5.02-7.449-12.317-7.449-20.078
						c0-7.477,2.546-14.597,6.995-19.591c4.738,5.021,7.45,12.319,7.45,20.079C185.985,89.77,183.439,96.889,178.989,101.884z"/>
				</g>
			</g>
		</g>
		<g>
			<g>
				<g>
					<path d="M217.343,88.39L217.343,88.39c-4.106-2.394-8.934-3.637-13.945-3.568c-0.986,0.012-1.872,0.602-2.264,1.505
						c-0.548,1.265-1.179,2.492-1.875,3.649c-3.427,5.701-8.433,9.979-14.095,12.043c-0.994,0.362-1.652,1.312-1.644,2.369
						c0.009,1.059,0.683,1.996,1.683,2.342c2.907,1.006,5.97,1.511,9.079,1.511c2.4,0,4.828-0.301,7.232-0.904
						c7.494-1.878,13.858-6.539,17.459-12.786C220.214,92.401,219.482,89.638,217.343,88.39z M200.299,102.486
						c-2.233,0.561-4.483,0.809-6.696,0.743c3.918-2.693,7.332-6.337,9.941-10.678c0.523-0.869,1.014-1.772,1.468-2.699
						c3.372,0.18,6.582,1.071,9.386,2.614C211.427,97.339,206.317,100.979,200.299,102.486z"/>
				</g>
			</g>
		</g>
		<g>
			<g>
				<g>
					<path d="M172.361,102.019c-5.662-2.064-10.667-6.342-14.095-12.043c-0.698-1.161-1.328-2.389-1.874-3.648
						c-0.392-0.904-1.279-1.494-2.265-1.506c-5.008-0.055-9.838,1.175-13.944,3.567c0,0.001-0.001,0.001-0.001,0.001
						c-2.138,1.248-2.87,4.011-1.632,6.16c3.603,6.248,9.966,10.908,17.459,12.786c2.405,0.604,4.833,0.904,7.233,0.904
						c3.109,0,6.173-0.505,9.08-1.511c1-0.346,1.674-1.283,1.683-2.342C174.013,103.33,173.355,102.381,172.361,102.019z
						 M157.225,102.486c-6.017-1.508-11.127-5.147-14.098-10.02c2.804-1.543,6.014-2.436,9.386-2.614
						c0.453,0.925,0.943,1.827,1.467,2.699c2.609,4.341,6.023,7.984,9.941,10.678C161.709,103.293,159.458,103.047,157.225,102.486z
						"/>
				</g>
			</g>
		</g>
		<g>
			<g>
				<g>
					<path d="M207.79,68.783c-0.286-1.23-1.074-2.299-2.163-2.933c-1.086-0.634-2.404-0.79-3.611-0.432
						c-5.96,1.771-11.559,5.71-15.763,11.093c-0.407,0.521-0.591,1.182-0.512,1.837c0.162,1.347,0.244,2.674,0.244,3.944
						c0,7.02-2.192,13.627-6.172,18.604c-0.455,0.568-0.639,1.307-0.504,2.022c0.061,0.324,0.125,0.646,0.2,0.966
						c0.286,1.23,1.074,2.3,2.164,2.933c0.704,0.41,1.503,0.62,2.307,0.62c0.438,0,0.877-0.063,1.303-0.189
						c7.293-2.166,13.95-7.522,18.263-14.697C208.021,85.104,209.568,76.44,207.79,68.783z M199.259,89.976
						c-3.408,5.669-8.478,9.991-14.067,12.038c3.75-5.563,5.793-12.47,5.793-19.721c0-1.131-0.056-2.297-0.166-3.478
						c3.379-4.046,7.666-7.026,12.195-8.473C204.347,76.644,202.988,83.771,199.259,89.976z"/>
				</g>
			</g>
		</g>
		<g>
			<g>
				<g>
					<path d="M177.777,100.482c-4.022-4.986-6.237-11.619-6.237-18.677c0-1.151,0.065-2.312,0.198-3.546
						c0.07-0.648-0.116-1.299-0.519-1.813c-4.2-5.351-9.779-9.267-15.712-11.028c-1.208-0.358-2.523-0.201-3.61,0.432
						c-1.089,0.634-1.877,1.702-2.163,2.933c-1.779,7.657-0.231,16.32,4.246,23.769c4.313,7.175,10.97,12.532,18.262,14.697
						c0.426,0.127,0.866,0.189,1.304,0.189c0.804,0,1.603-0.211,2.307-0.62c1.089-0.633,1.878-1.702,2.163-2.931
						c0.108-0.465,0.197-0.938,0.279-1.413C178.417,101.767,178.228,101.041,177.777,100.482z M158.266,89.976
						c-3.729-6.204-5.088-13.333-3.755-19.633c4.509,1.439,8.782,4.405,12.157,8.43c-0.085,1.034-0.127,2.05-0.127,3.033
						c0,7.54,2.208,14.7,6.249,20.37C167.021,100.201,161.766,95.799,158.266,89.976z"/>
				</g>
			</g>
		</g>
		<g>
			<g>
				<g>
					<path d="M118.281,144.739l-4.387-2.163c-1.43-0.705-2.319-2.135-2.319-3.729v-7.263c0-0.882-0.465-1.699-1.223-2.149
						c-0.759-0.451-1.699-0.468-2.473-0.046c-6.234,3.398-14.155,3.398-20.39,0c-0.774-0.421-1.714-0.404-2.473,0.046
						c-0.758,0.45-1.223,1.268-1.223,2.149v7.263c0,1.595-0.889,3.024-2.319,3.729l-4.387,2.163
						c-1.189,0.586-1.713,1.998-1.196,3.218c3.686,8.693,9.43,16.566,16.614,22.77h0c1.477,1.274,3.328,1.911,5.179,1.911
						c1.852,0,3.703-0.638,5.179-1.911c7.183-6.202,12.928-14.076,16.614-22.77C119.995,146.737,119.47,145.325,118.281,144.739z
						 M99.596,166.941c-1.088,0.94-2.733,0.942-3.823,0c-6.009-5.188-10.922-11.646-14.312-18.784l2.224-1.097
						c3.151-1.554,5.108-4.7,5.108-8.214v-3.411c5.688,2.041,12.094,2.041,17.782,0v3.411c0,3.513,1.957,6.66,5.108,8.214
						l2.224,1.097C110.518,155.296,105.605,161.754,99.596,166.941z"/>
				</g>
			</g>
		</g>
	</g>
</g>
<g id="Layer_57">
</g>
<g id="Layer_58">
</g>
<g id="Layer_59">
</g>
<g id="Layer_60">
</g>
<g id="Layer_61">
</g>
<g id="Layer_62">
</g>
<g id="Layer_63">
</g>
<g id="Layer_64">
</g>
<g id="Layer_65">
</g>
<g id="Layer_66">
</g>
<g id="Layer_67">
</g>
<g id="Layer_68">
</g>
<g id="Layer_69">
</g>
<g id="Layer_70">
</g>
<g id="Layer_71">
</g>
<g id="Layer_72">
</g>
<g id="Layer_73">
</g>
<g id="Layer_74">
</g>
<g id="Layer_75">
</g>
<g id="Layer_76">
</g>
<g id="Layer_77">
</g>
<g id="Layer_78">
</g>
<g id="Layer_79">
</g>
<g id="Layer_80">
</g>
</svg>
