<?xml version="1.0" encoding="utf-8"?>
<!-- Generator: Adobe Illustrator 24.0.0, SVG Export Plug-In . SVG Version: 6.00 Build 0)  -->
<svg version="1.1" xmlns="http://www.w3.org/2000/svg" xmlns:xlink="http://www.w3.org/1999/xlink" x="0px" y="0px"
	 viewBox="0 0 256 256" style="enable-background:new 0 0 256 256;" xml:space="preserve">
<style type="text/css">
	.st0{fill:#6CADEF;}
	.st1{fill:#F9D0B4;}
	.st2{fill:#5B5D60;}
	.st3{fill:#9BE5F9;}
	.st4{fill:#FC657E;}
	.st5{fill:#70D6F9;}
	.st6{fill:#F5C84C;}
	.st7{fill:#F98FA6;}
	.st8{fill:#FED690;}
	.st9{fill:#87D147;}
	.st10{fill:#B2E26D;}
	.st11{fill:#EDF4FC;}
	.st12{fill:#FCDD86;}
	.st13{fill:#754E34;}
	.st14{fill:#B598F9;}
	.st15{fill:#5290DB;}
	.st16{fill:#C7D7E5;}
	.st17{fill:#C18E6B;}
	.st18{fill:#DAE6F1;}
	.st19{fill:#3CAADC;}
	.st20{fill:#818182;}
	.st21{fill:#CBEFF7;}
	.st22{fill:#FCA265;}
	.st23{fill:#A57453;}
	.st24{fill:#8652D8;}
	.st25{fill:#966AEA;}
	.st26{fill:#FEB872;}
	.st27{fill:#EDB311;}
	.st28{fill:#EF4460;}
</style>
<g id="Layer_1">
</g>
<g id="Layer_2">
</g>
<g id="Layer_3">
</g>
<g id="Layer_4">
</g>
<g id="Layer_5">
</g>
<g id="Layer_6">
</g>
<g id="Layer_7">
</g>
<g id="Layer_8">
</g>
<g id="Layer_9">
</g>
<g id="Layer_10">
</g>
<g id="Layer_11">
</g>
<g id="Layer_12">
</g>
<g id="Layer_13">
</g>
<g id="Layer_14">
</g>
<g id="Layer_15">
</g>
<g id="Layer_16">
</g>
<g id="Layer_17">
</g>
<g id="Layer_18">
</g>
<g id="Layer_19">
</g>
<g id="Layer_20">
</g>
<g id="Layer_21">
</g>
<g id="Layer_22">
</g>
<g id="Layer_23">
</g>
<g id="Layer_24">
</g>
<g id="Layer_25">
</g>
<g id="Layer_26">
</g>
<g id="Layer_27">
</g>
<g id="Layer_28">
</g>
<g id="Layer_29">
</g>
<g id="Layer_30">
</g>
<g id="Layer_31">
</g>
<g id="Layer_32">
</g>
<g id="Layer_33">
</g>
<g id="Layer_34">
</g>
<g id="Layer_35">
</g>
<g id="Layer_36">
</g>
<g id="Layer_37">
</g>
<g id="Layer_38">
</g>
<g id="Layer_39">
</g>
<g id="Layer_40">
</g>
<g id="Layer_41">
</g>
<g id="Layer_42">
</g>
<g id="Layer_43">
</g>
<g id="Layer_44">
</g>
<g id="Layer_45">
</g>
<g id="Layer_46">
</g>
<g id="Layer_47">
</g>
<g id="Layer_48">
</g>
<g id="Layer_49">
</g>
<g id="Layer_50">
</g>
<g id="Layer_51">
</g>
<g id="Layer_52">
</g>
<g id="Layer_53">
</g>
<g id="Layer_54">
</g>
<g id="Layer_55">
</g>
<g id="Layer_56">
</g>
<g id="Layer_57">
</g>
<g id="Layer_58">
</g>
<g id="Layer_59">
</g>
<g id="Layer_60">
</g>
<g id="Layer_61">
</g>
<g id="Layer_62">
</g>
<g id="Layer_63">
</g>
<g id="Layer_64">
</g>
<g id="Layer_65">
</g>
<g id="Layer_66">
</g>
<g id="Layer_67">
</g>
<g id="Layer_68">
	<g>
		<g>
			<g>
				<path class="st5" d="M167.533,8.508c-10.023-8.804-25.378-7.686-34.81,1.747l-2.832,2.832c-1.044,1.045-2.738,1.045-3.782,0
					l-2.832-2.832c-9.433-9.433-24.788-10.551-34.81-1.747c-10.983,9.647-11.388,26.39-1.217,36.561l34.765,34.765
					c3.306,3.306,8.666,3.306,11.971,0l34.765-34.765C178.922,34.898,178.516,18.155,167.533,8.508z"/>
			</g>
		</g>
		<g>
			<g>
				<path class="st0" d="M128.158,208.363c-0.296-5.307-4.007-9.804-9.161-11.102l-16.662-4.194
					c-8.831-2.223-15.776-6.031-15.686-5.987c-3.631-1.79-5.93-5.487-5.93-9.535v-5.009c-4.25,2.225-9.072,3.492-14.178,3.492h0
					c-5.106,0-9.928-1.267-14.178-3.492v5.009c0,4.051-2.307,7.749-5.94,9.541c-4.902,2.417-9.183,4.348-15.676,5.982l-16.662,4.194
					c-5.154,1.298-8.866,5.796-9.161,11.102l-2.418,41.694c-0.108,1.868,1.378,3.443,3.249,3.443h125.021L128.158,208.363z"/>
			</g>
		</g>
		<g>
			<g>
				<path class="st1" d="M92.92,108.444c-2.012-2.11-5.284-2.304-7.578-0.504c-3.627,2.847-9.903,6.366-18.767,6.366
					c-8.885,0-15.194-3.536-18.837-6.386c-2.292-1.794-5.557-1.593-7.566,0.514l-0.01,0.011c-2.822,2.959-4.396,6.892-4.396,10.981
					v25.828c0,16.927,13.849,30.775,30.775,30.775h0c16.926,0,30.775-13.849,30.775-30.775v-25.828
					C97.316,115.336,95.742,111.403,92.92,108.444z"/>
			</g>
		</g>
		<g>
			<g>
				<path class="st1" d="M99.291,121.798c-0.672,0-1.331,0.057-1.975,0.157v23.298c0,0.694-0.032,1.381-0.078,2.064
					c0.67,0.108,1.352,0.179,2.052,0.179c7.096,0,12.849-5.753,12.849-12.849S106.387,121.798,99.291,121.798z"/>
			</g>
		</g>
		<g>
			<g>
				<path class="st1" d="M35.766,145.253v-23.298c-0.644-0.1-1.303-0.157-1.975-0.157c-7.096,0-12.849,5.753-12.849,12.849
					s5.753,12.849,12.849,12.849c0.7,0,1.383-0.071,2.052-0.179v0C35.797,146.634,35.766,145.947,35.766,145.253z"/>
			</g>
		</g>
		<g>
			<g>
				<path class="st2" d="M97.201,95.547c-1.031,0-1.924-0.795-1.938-1.825c-0.236-17.149-19.819-20.37-39.321-17.002
					c-16.534,2.855-28.619,17.193-28.619,33.973v12.866c1.901-1.112,4.107-1.76,6.468-1.76c0.672,0,1.331,0.057,1.975,0.157v-2.53
					c0-4.089,1.574-8.022,4.396-10.981l0.01-0.011c2.008-2.106,5.274-2.307,7.566-0.514c3.642,2.851,9.951,6.386,18.837,6.386
					c8.864,0,15.14-3.519,18.767-6.366c2.294-1.801,5.566-1.606,7.578,0.504c2.822,2.959,4.396,6.892,4.396,10.981v2.53
					c0.644-0.1,1.303-0.157,1.975-0.157c2.39,0,4.619,0.664,6.536,1.801v-10.564C105.827,97.679,100.282,95.547,97.201,95.547z"/>
			</g>
		</g>
		<g>
			<g>
				<path class="st1" d="M223.555,124.068c-0.613,0-1.212,0.052-1.799,0.143v21.226c0,0.632-0.029,1.258-0.071,1.88
					c0.61,0.098,1.232,0.163,1.87,0.163c6.465,0,11.706-5.241,11.706-11.706C235.261,129.309,230.02,124.068,223.555,124.068z"/>
			</g>
		</g>
		<g>
			<g>
				<path class="st1" d="M220.031,120.649c-2.837-0.657-6.282-2.301-10.231-5.888c-0.781-0.71-1.985-0.651-2.672,0.15
					c-4.27,4.984-19.412,20.106-41.449,13.829v16.698c0,15.421,12.617,28.038,28.038,28.038c15.421,0,28.038-12.617,28.038-28.038
					v-22.652C221.756,121.755,221.035,120.882,220.031,120.649z"/>
			</g>
		</g>
		<g>
			<g>
				<path class="st1" d="M165.679,145.437v-16.698c-1.925-0.549-3.903-1.258-5.93-2.154c-1.307-0.577-2.835-0.312-3.877,0.666
					c-2.274,2.132-3.698,5.158-3.698,8.523c0,6.465,5.241,11.706,11.706,11.706c0.638,0,1.26-0.065,1.87-0.163
					C165.708,146.695,165.679,146.069,165.679,145.437z"/>
			</g>
		</g>
		<g>
			<g>
				<path class="st8" d="M193.718,82.526c-20.97,0-38.127,17.157-38.127,38.127v6.89c0.095-0.096,0.183-0.198,0.281-0.291
					c1.042-0.978,2.57-1.243,3.877-0.666c2.028,0.895,4.005,1.605,5.93,2.154c22.037,6.277,37.179-8.845,41.449-13.829
					c0.687-0.801,1.891-0.86,2.672-0.15c3.949,3.588,7.394,5.231,10.231,5.889c1.003,0.233,1.725,1.106,1.725,2.136v1.426
					c0.587-0.091,1.187-0.143,1.799-0.143c3.239,0,6.17,1.316,8.289,3.442v-6.857C231.844,99.684,214.687,82.526,193.718,82.526z"/>
			</g>
		</g>
		<g>
			<g>
				<path class="st7" d="M251.905,206.344c-0.28-5.024-3.794-9.281-8.673-10.51l-5.573-1.407
					c-0.522-0.132-13.791-3.481-14.475-3.654c-1.675-0.422-3.301-1.02-4.851-1.783l-6.932-3.418
					c-2.662-1.313-4.348-4.023-4.348-6.991v-8.503c-3.972,2.165-8.517,3.397-13.336,3.397c-4.819,0-9.364-1.232-13.336-3.397v8.503
					c0,2.968-1.686,5.679-4.348,6.991l-6.932,3.418c-1.549,0.764-3.175,1.362-4.851,1.783c-0.099,0.025-14.383,3.631-14.475,3.654
					l-5.573,1.407c-4.879,1.229-8.393,5.486-8.673,10.51l-1.716,47.156h116.431c1.844,0,3.32-1.53,3.252-3.373L251.905,206.344z"/>
			</g>
		</g>
		<g>
			<g>
				<path class="st8" d="M232.991,163.197c5.355-8.399,2.826-16.576,0.464-21.195c-2.073,3.287-5.726,5.478-9.899,5.478
					c-0.638,0-1.26-0.065-1.87-0.163c-0.658,9.81-6.414,18.282-14.631,22.76v8.503c0,2.722,1.428,5.213,3.716,6.623
					c0.917,0.565-0.247-0.098,7.563,3.787c1.051,0.518,2.438,1.067,3.508,1.402c0.212,0.066,0.427,0.125,0.641,0.185
					c4.126-1.51,7.767-3.908,10.125-7.641c4.324-6.845,1.8-13.479,0.209-16.447C232.258,165.446,232.354,164.195,232.991,163.197z"
					/>
			</g>
		</g>
		<g>
			<g>
				<path class="st8" d="M165.75,147.317c-0.61,0.098-1.232,0.163-1.87,0.163c-4.173,0-7.826-2.191-9.899-5.478
					c-2.362,4.619-4.892,12.796,0.464,21.195c0.636,0.998,0.733,2.248,0.174,3.291c-1.591,2.969-4.114,9.602,0.209,16.447
					c2.358,3.734,5.998,6.131,10.125,7.641c0.214-0.061,0.429-0.119,0.641-0.185c1.07-0.335,2.457-0.884,3.508-1.402
					c8.317-4.137,6.715-3.264,7.563-3.787c2.288-1.409,3.716-3.901,3.716-6.623v-8.503
					C172.164,165.599,166.409,157.127,165.75,147.317z"/>
			</g>
		</g>
		<g>
			<g>
				<path class="st11" d="M144.33,37.642h-9.378c-1.119,0-2.026-0.907-2.026-2.026v-9.378c0-1.119-0.907-2.026-2.026-2.026h-5.799
					c-1.119,0-2.026,0.907-2.026,2.026v9.378c0,1.119-0.907,2.026-2.026,2.026h-9.378c-1.119,0-2.026,0.907-2.026,2.026v5.799
					c0,1.119,0.907,2.026,2.026,2.026h9.378c1.119,0,2.026,0.907,2.026,2.026v9.378c0,1.119,0.907,2.026,2.026,2.026h5.799
					c1.119,0,2.026-0.907,2.026-2.026v-9.378c0-1.119,0.907-2.026,2.026-2.026h9.378c1.119,0,2.026-0.907,2.026-2.026v-5.799
					C146.356,38.55,145.449,37.642,144.33,37.642z"/>
			</g>
		</g>
		<g>
			<g>
				<path class="st4" d="M75.852,149.919H57.23c-1.248,0-2.182,1.296-1.825,2.59c1.433,5.185,5.892,8.992,11.135,8.992h0
					c5.244,0,9.703-3.808,11.136-8.992C78.034,151.215,77.1,149.919,75.852,149.919z"/>
			</g>
		</g>
		<g>
			<g>
				<path class="st4" d="M203.029,150.942h-18.622c-1.248,0-2.182,1.297-1.825,2.59c1.433,5.185,5.892,8.992,11.136,8.992
					c5.244,0,9.703-3.807,11.136-8.992C205.211,152.238,204.277,150.942,203.029,150.942z"/>
			</g>
		</g>
		<g>
			<g>
				<path class="st1" d="M86.649,187.081c-3.631-1.79-5.93-5.487-5.93-9.536v-5.009c-4.25,2.225-9.072,3.492-14.178,3.492h0
					c-5.106,0-9.928-1.267-14.178-3.492v5.009c0,4.048-2.299,7.745-5.93,9.536c-0.569,0.28-1.128,0.553-1.685,0.821
					c3.224,8.923,11.793,15.347,21.793,15.347c9.989,0,18.551-6.409,21.783-15.318C87.234,187.402,86.622,187.067,86.649,187.081z"
					/>
			</g>
		</g>
		<g>
			<g>
				<path class="st1" d="M3.333,235.784l-0.828,14.272c-0.108,1.868,1.378,3.443,3.249,3.443h18.876v-17.716H3.333z"/>
			</g>
		</g>
		<g>
			<g>
				<polygon class="st1" points="129.749,235.784 108.451,235.784 108.451,253.5 130.776,253.5 				"/>
			</g>
		</g>
		<g>
			<g>
				<path class="st1" d="M211.402,185.572c-2.662-1.313-4.348-4.023-4.348-6.991v-8.503c-3.972,2.165-8.517,3.397-13.336,3.397
					c-4.819,0-9.364-1.232-13.336-3.397v8.503c0,2.968-1.686,5.679-4.348,6.991l-5.136,2.532
					c4.197,9.901,10.633,18.646,18.669,25.584c2.378,2.053,5.924,2.053,8.301,0c8.036-6.938,14.472-15.684,18.669-25.584
					L211.402,185.572z"/>
			</g>
		</g>
		<g>
			<g>
				<path class="st1" d="M252.459,221.593l-20.374,5.947v25.96h18.16c1.844,0,3.32-1.53,3.252-3.373L252.459,221.593z"/>
			</g>
		</g>
		<g>
			<g>
				<polygon class="st1" points="134.976,221.593 133.815,253.5 155.35,253.5 155.35,227.54 				"/>
			</g>
		</g>
		<g>
			<g>
				<path class="st5" d="M119.206,164.1h-2.4v-2.3c0-1.8-1.4-3.2-3.2-3.2c-1.7,0-3.2,1.4-3.2,3.1v2.4h-2.3c-1.8,0-3.2,1.4-3.2,3.2
					c-0.1,1.7,1.3,3.2,3.2,3.2h2.3v2.3c0,1.8,1.4,3.2,3.2,3.2c1.7,0,3.2-1.4,3.2-3.1v-2.4h2.3c1.8,0,3.2-1.4,3.2-3.2
					C122.306,165.6,120.906,164.1,119.206,164.1z"/>
			</g>
		</g>
		<g>
			<g>
				<path class="st6" d="M136.506,180.2c-1.878,0-3.4,1.522-3.4,3.4c0,1.878,1.522,3.4,3.4,3.4c1.878,0,3.4-1.522,3.4-3.4
					C139.906,181.722,138.384,180.2,136.506,180.2z"/>
			</g>
		</g>
		<g>
			<g>
				<path class="st4" d="M223.288,67.2c-3.1-0.6-5.6-3-6.2-6.1c0-0.1-0.3-0.1-0.3,0c-0.6,3.1-3.1,5.5-6.2,6.1c-0.1,0-0.1,0.2,0,0.3
					c3.1,0.6,5.6,3,6.2,6.1c0,0.1,0.3,0.1,0.3,0c0.6-3.1,3.1-5.5,6.2-6.1C223.388,67.4,223.388,67.2,223.288,67.2z"/>
			</g>
		</g>
		<g>
			<g>
				<path class="st9" d="M69.506,0c-1.878,0-3.4,1.522-3.4,3.4c0,1.878,1.522,3.4,3.4,3.4c1.878,0,3.4-1.522,3.4-3.4
					C72.906,1.522,71.384,0,69.506,0z"/>
			</g>
		</g>
		<g>
			<g>
				<path class="st6" d="M63.288,24.2c-4.5-0.8-8-4.3-8.9-8.7c0-0.2-0.4-0.2-0.4,0c-0.9,4.4-4.4,7.9-8.9,8.7c-0.2,0-0.2,0.3,0,0.4
					c4.5,0.8,8,4.3,8.9,8.7c0,0.2,0.4,0.2,0.4,0c0.9-4.4,4.4-7.9,8.9-8.7C63.488,24.5,63.488,24.2,63.288,24.2z"/>
			</g>
		</g>
		<g>
			<g>
				<path d="M108.451,215.355c-1.381,0-2.5,1.119-2.5,2.5v33.494c0,1.381,1.119,2.5,2.5,2.5s2.5-1.119,2.5-2.5v-33.494
					C110.951,216.475,109.832,215.355,108.451,215.355z"/>
			</g>
		</g>
		<g>
			<g>
				<path d="M24.631,215.355c-1.381,0-2.5,1.119-2.5,2.5v33.494c0,1.381,1.119,2.5,2.5,2.5s2.5-1.119,2.5-2.5v-33.494
					C27.131,216.475,26.012,215.355,24.631,215.355z"/>
			</g>
		</g>
		<g>
			<g>
				<path d="M86.857,135.04c-1.55-3.004-4.511-4.869-7.726-4.869s-6.176,1.865-7.726,4.869c-0.634,1.227-0.153,2.734,1.074,3.368
					c1.226,0.634,2.735,0.151,3.368-1.074c0.689-1.334,1.947-2.163,3.284-2.163s2.595,0.828,3.283,2.162
					c0.444,0.86,1.318,1.354,2.224,1.354c0.386,0,0.778-0.09,1.145-0.279C87.009,137.774,87.49,136.267,86.857,135.04z"/>
			</g>
		</g>
		<g>
			<g>
				<path d="M61.677,135.04c-1.55-3.004-4.511-4.869-7.726-4.869s-6.176,1.865-7.726,4.869c-0.634,1.227-0.153,2.734,1.074,3.368
					c1.226,0.634,2.735,0.151,3.368-1.074c0.689-1.334,1.947-2.163,3.284-2.163s2.595,0.828,3.283,2.162
					c0.444,0.86,1.318,1.354,2.224,1.354c0.386,0,0.778-0.09,1.145-0.279C61.829,137.774,62.311,136.267,61.677,135.04z"/>
			</g>
		</g>
		<g>
			<g>
				<path d="M232.085,215.606c-1.381,0-2.5,1.119-2.5,2.5v33.063c0,1.381,1.119,2.5,2.5,2.5s2.5-1.119,2.5-2.5v-33.063
					C234.585,216.726,233.466,215.606,232.085,215.606z"/>
			</g>
		</g>
		<g>
			<g>
				<path d="M155.35,215.606c-1.381,0-2.5,1.119-2.5,2.5v33.063c0,1.381,1.119,2.5,2.5,2.5s2.5-1.119,2.5-2.5v-33.063
					C157.85,216.726,156.73,215.606,155.35,215.606z"/>
			</g>
		</g>
		<g>
			<g>
				<path d="M214.033,136.062c-1.551-3.003-4.511-4.868-7.726-4.868s-6.175,1.865-7.726,4.868c-0.634,1.227-0.153,2.735,1.073,3.368
					c1.227,0.637,2.735,0.153,3.368-1.073c0.689-1.334,1.948-2.163,3.284-2.163s2.595,0.829,3.284,2.163
					c0.443,0.859,1.317,1.354,2.223,1.354c0.387,0,0.778-0.09,1.146-0.28C214.187,138.797,214.667,137.288,214.033,136.062z"/>
			</g>
		</g>
		<g>
			<g>
				<path d="M188.854,136.062c-1.551-3.003-4.511-4.868-7.726-4.868s-6.175,1.865-7.726,4.868c-0.634,1.227-0.153,2.735,1.073,3.368
					c1.227,0.637,2.735,0.153,3.368-1.073c0.689-1.334,1.948-2.163,3.284-2.163s2.595,0.829,3.284,2.163
					c0.443,0.859,1.317,1.354,2.223,1.354c0.387,0,0.778-0.09,1.146-0.28C189.007,138.797,189.487,137.288,188.854,136.062z"/>
			</g>
		</g>
		<g>
			<g>
				<g>
					<path d="M178.572,26.465c-0.249-7.691-3.583-14.735-9.389-19.835c-10.86-9.54-27.651-8.722-38.229,1.857l-2.833,2.833
						c-0.058,0.057-0.188,0.058-0.245-0.001l-2.833-2.833C114.466-2.092,97.673-2.908,86.817,6.63
						c-5.806,5.1-9.14,12.144-9.389,19.834c-0.245,7.584,2.69,15.009,8.054,20.372l34.765,34.766
						c2.071,2.071,4.824,3.212,7.753,3.212s5.683-1.141,7.753-3.212l34.766-34.766C175.882,41.474,178.817,34.048,178.572,26.465z
						 M166.983,43.301l-34.766,34.766c-1.127,1.126-2.625,1.747-4.218,1.747c-1.593,0-3.091-0.621-4.218-1.747L89.017,43.301
						c-4.454-4.454-6.795-10.376-6.592-16.675c0.204-6.295,2.935-12.062,7.691-16.24c4.125-3.624,9.308-5.41,14.551-5.41
						c6.045,0,12.171,2.376,16.841,7.046l2.832,2.833c0.977,0.978,2.277,1.517,3.659,1.517c1.383,0,2.682-0.539,3.658-1.517
						l2.832-2.832c8.723-8.721,22.513-9.438,31.393-1.637c4.757,4.179,7.488,9.946,7.691,16.24
						C173.778,32.925,171.437,38.847,166.983,43.301z"/>
				</g>
			</g>
		</g>
		<g>
			<g>
				<g>
					<path d="M130.654,208.225c-0.358-6.435-4.798-11.814-11.047-13.388l-16.662-4.194c-8.208-2.065-14.728-5.556-15.058-5.734
						c-0.043-0.024-0.088-0.048-0.133-0.07c-2.797-1.379-4.535-4.174-4.535-7.293v-5.009c0-0.875-0.457-1.686-1.206-2.139
						c-0.749-0.453-1.68-0.482-2.454-0.076c-4.066,2.128-8.446,3.207-13.019,3.207c-4.573,0-8.953-1.079-13.019-3.207
						c-0.775-0.405-1.706-0.377-2.454,0.076c-0.749,0.453-1.206,1.264-1.206,2.139v5.009c0,3.072-1.784,5.937-4.545,7.298
						c-4.488,2.213-8.728,4.177-15.181,5.8l-16.661,4.194c-6.25,1.573-10.689,6.953-11.047,13.382L0.01,249.912
						c-0.091,1.575,0.478,3.137,1.56,4.283C2.652,255.343,4.178,256,5.755,256h125.021c0.688,0,1.346-0.283,1.818-0.784
						s0.718-1.174,0.678-1.86L130.654,208.225z M5.755,251c-0.283,0-0.465-0.148-0.549-0.236c-0.083-0.089-0.221-0.279-0.205-0.563
						l2.418-41.699c0.236-4.237,3.16-7.78,7.276-8.815l16.661-4.194c6.93-1.744,11.424-3.824,16.172-6.165
						c4.524-2.23,7.334-6.745,7.334-11.782v-1.154c7.454,2.811,15.902,2.811,23.356,0v1.154c0,4.979,2.742,9.445,7.168,11.699
						c0.807,0.51,2.231,1.179,4.823,2.299c2.66,1.148,6.817,2.767,11.514,3.949l16.663,4.194c4.115,1.035,7.039,4.578,7.275,8.821
						L128.127,251H5.755z"/>
				</g>
			</g>
		</g>
		<g>
			<g>
				<g>
					<path d="M94.729,106.719c-2.899-3.04-7.599-3.359-10.931-0.746c-3.389,2.661-9.128,5.833-17.223,5.833
						c-8.112,0-13.883-3.185-17.296-5.855c-3.329-2.604-8.021-2.278-10.916,0.757c-0.011,0.012-0.023,0.025-0.036,0.039
						c-3.264,3.437-5.062,7.938-5.062,12.679v25.828c0,18.348,14.927,33.275,33.275,33.275s33.275-14.928,33.275-33.275v-25.828
						C99.816,114.672,98.01,110.159,94.729,106.719z M94.816,145.253c0,15.591-12.684,28.275-28.275,28.275
						s-28.275-12.685-28.275-28.275v-25.828c0-3.463,1.316-6.75,3.706-9.255c0.009-0.01,0.02-0.021,0.031-0.033
						c1.113-1.146,2.912-1.254,4.195-0.249c4.032,3.156,10.841,6.918,20.378,6.918c9.523,0,16.301-3.752,20.31-6.899
						c1.297-1.017,3.112-0.903,4.226,0.264c2.39,2.506,3.706,5.792,3.706,9.255V145.253z"/>
				</g>
			</g>
		</g>
		<g>
			<g>
				<g>
					<path d="M99.291,119.299c-0.768,0-1.561,0.063-2.357,0.186c-1.218,0.188-2.118,1.237-2.118,2.471v23.298
						c0,0.563-0.023,1.165-0.072,1.896c-0.086,1.289,0.823,2.432,2.099,2.637c0.882,0.142,1.683,0.21,2.448,0.21
						c8.463,0,15.349-6.886,15.349-15.349S107.754,119.299,99.291,119.299z M99.816,144.983v-20.672
						c5.463,0.275,9.824,4.806,9.824,10.336S105.28,144.708,99.816,144.983z"/>
				</g>
			</g>
		</g>
		<g>
			<g>
				<g>
					<path d="M38.266,145.253v-23.298c0-1.233-0.899-2.282-2.118-2.471c-0.796-0.123-1.59-0.186-2.357-0.186
						c-8.463,0-15.349,6.886-15.349,15.349s6.885,15.349,15.349,15.349c0.769,0,1.571-0.069,2.452-0.212
						c1.274-0.206,2.182-1.348,2.095-2.636C38.289,146.418,38.266,145.815,38.266,145.253z M33.266,144.983
						c-5.463-0.274-9.824-4.806-9.824-10.336s4.36-10.062,9.824-10.336V144.983z"/>
				</g>
			</g>
		</g>
		<g>
			<g>
				<g>
					<path d="M97.747,93.062c-0.223-5.731-2.419-10.366-6.534-13.784c-9.702-8.057-26.529-6.604-35.696-5.022
						c-17.785,3.072-30.694,18.396-30.694,36.437v12.866c0,0.896,0.479,1.723,1.256,2.168c0.776,0.446,1.732,0.441,2.506-0.01
						c1.586-0.927,3.386-1.417,5.206-1.417c0.513,0,1.049,0.043,1.593,0.127c0.722,0.111,1.456-0.098,2.009-0.572
						c0.554-0.476,0.873-1.169,0.873-1.898v-2.53c0-3.463,1.316-6.75,3.706-9.255c0.009-0.01,0.02-0.021,0.031-0.033
						c1.112-1.145,2.911-1.255,4.195-0.249c4.032,3.156,10.841,6.918,20.378,6.918c9.523,0,16.301-3.752,20.31-6.899
						c1.297-1.017,3.112-0.903,4.226,0.264c2.39,2.506,3.706,5.792,3.706,9.255v2.53c0,0.729,0.319,1.423,0.873,1.898
						c0.554,0.475,1.286,0.685,2.009,0.572c0.544-0.084,1.08-0.127,1.592-0.127c1.841,0,3.66,0.502,5.261,1.451
						c0.393,0.233,0.833,0.35,1.275,0.35c0.427,0,0.854-0.109,1.237-0.328c0.781-0.444,1.263-1.273,1.263-2.172v-10.564
						C108.327,96.385,101.937,93.295,97.747,93.062z M103.327,119.845c-1.144-0.314-2.322-0.495-3.511-0.537
						c-0.029-4.71-1.833-9.177-5.087-12.589c-2.899-3.04-7.599-3.359-10.931-0.746c-3.389,2.661-9.128,5.833-17.223,5.833
						c-8.112,0-13.883-3.185-17.296-5.855c-3.329-2.604-8.021-2.278-10.916,0.757c-0.011,0.012-0.023,0.025-0.036,0.039
						c-3.238,3.408-5.032,7.863-5.061,12.562c-1.165,0.041-2.321,0.216-3.443,0.518v-9.134c0-15.602,11.164-28.853,26.544-31.509
						c14.157-2.445,25.692-1.006,31.651,3.941c3.13,2.6,4.682,6.077,4.745,10.632c0.033,2.366,2.023,4.291,4.438,4.291
						c3.893,0,6.126,5.463,6.126,14.988V119.845z"/>
				</g>
			</g>
		</g>
		<g>
			<g>
				<g>
					<path d="M223.555,121.568c-0.71,0-1.443,0.058-2.181,0.172c-1.219,0.188-2.118,1.237-2.118,2.471v21.226
						c0,0.577-0.027,1.148-0.064,1.717c-0.085,1.288,0.824,2.429,2.1,2.633c0.817,0.131,1.558,0.194,2.264,0.194
						c7.834,0,14.207-6.373,14.207-14.206S231.389,121.568,223.555,121.568z M224.256,144.954v-18.359
						c4.751,0.359,8.506,4.339,8.506,9.18S229.007,144.595,224.256,144.954z"/>
				</g>
			</g>
		</g>
		<g>
			<g>
				<g>
					<path d="M220.597,118.214c-2.921-0.678-5.987-2.462-9.114-5.304c-0.875-0.794-2.051-1.203-3.225-1.136
						c-1.181,0.074-2.256,0.609-3.027,1.509c-3.897,4.549-18.211,18.933-38.866,13.052c-0.75-0.216-1.564-0.063-2.19,0.409
						s-0.994,1.211-0.994,1.995v16.697c0,16.839,13.699,30.538,30.538,30.538s30.538-13.699,30.538-30.538v-22.651
						C224.256,120.593,222.751,118.713,220.597,118.214z M219.256,145.437c0,14.082-11.456,25.538-25.538,25.538
						s-25.538-11.456-25.538-25.538v-13.513c21.073,4.304,35.702-9.566,40.414-14.889c3.542,3.116,7.125,5.133,10.662,5.999V145.437
						z"/>
				</g>
			</g>
		</g>
		<g>
			<g>
				<g>
					<path d="M168.18,145.437v-16.697c0-1.117-0.741-2.099-1.814-2.404c-1.861-0.53-3.748-1.216-5.606-2.036
						c-2.226-0.983-4.815-0.541-6.597,1.129c-2.853,2.674-4.488,6.445-4.488,10.347c0,7.833,6.373,14.206,14.206,14.206
						c0.706,0,1.447-0.063,2.265-0.194c1.276-0.204,2.187-1.348,2.1-2.637C168.206,146.583,168.18,146.013,168.18,145.437z
						 M163.18,144.954c-4.751-0.358-8.506-4.339-8.506-9.18c0-2.562,1.033-4.94,2.908-6.698c0.204-0.191,0.468-0.293,0.733-0.293
						c0.144,0,0.288,0.029,0.424,0.09c1.469,0.648,2.956,1.222,4.44,1.712V144.954z"/>
				</g>
			</g>
		</g>
		<g>
			<g>
				<g>
					<g>
						<path d="M193.718,80.026c-22.401,0-40.627,18.226-40.627,40.627v6.89c0,1.011,0.609,1.923,1.543,2.31
							c0.938,0.388,2.011,0.173,2.725-0.542l0.229-0.239c0.314-0.291,0.766-0.37,1.152-0.198c2.068,0.913,4.173,1.677,6.256,2.271
							c3.927,1.119,7.646,1.599,11.143,1.599c16.79,0,28.365-11.084,32.456-15.707c3.542,3.117,7.125,5.134,10.662,5.999v1.177
							c0,0.729,0.319,1.423,0.873,1.898c0.554,0.475,1.289,0.682,2.009,0.572c0.485-0.075,0.962-0.113,1.417-0.113
							c2.465,0,4.78,0.961,6.52,2.706c0.714,0.717,1.791,0.934,2.726,0.546c0.935-0.387,1.545-1.299,1.545-2.311v-6.856
							C234.345,98.252,216.119,80.026,193.718,80.026z M229.345,122.793c-1.637-0.73-3.41-1.146-5.245-1.215
							c-0.438-1.648-1.758-2.959-3.503-3.364c-2.921-0.678-5.987-2.462-9.114-5.304c-0.875-0.794-2.051-1.203-3.225-1.136
							c-1.181,0.074-2.256,0.609-3.027,1.509c-3.897,4.549-18.214,18.933-38.865,13.052c-1.861-0.53-3.748-1.216-5.606-2.036
							c-0.787-0.348-1.619-0.517-2.445-0.517c-0.074,0-0.148,0.001-0.223,0.004v-3.133c0-19.645,15.982-35.627,35.627-35.627
							s35.627,15.982,35.627,35.627V122.793z"/>
					</g>
				</g>
			</g>
		</g>
		<g>
			<g>
				<g>
					<path d="M254.4,206.205c-0.342-6.149-4.585-11.291-10.557-12.795l-20.049-5.062c-1.502-0.378-2.968-0.916-4.355-1.601
						l-6.933-3.418c-1.821-0.898-2.953-2.718-2.953-4.749v-8.503c0-0.882-0.465-1.699-1.224-2.149
						c-0.758-0.449-1.698-0.467-2.473-0.046c-3.712,2.022-7.91,3.092-12.14,3.092c-4.231,0-8.429-1.069-12.14-3.092
						c-0.773-0.421-1.715-0.403-2.473,0.046c-0.759,0.45-1.224,1.268-1.224,2.149v8.503c0,2.031-1.132,3.851-2.954,4.749
						l-6.932,3.418c-1.389,0.684-2.854,1.223-4.364,1.604c-0.107,0.027-3.604,0.91-7.131,1.8c-3.636,0.918-7.304,1.844-7.336,1.853
						l-5.572,1.405c-5.973,1.505-10.216,6.646-10.56,12.844l-1.717,47.156c-0.025,0.679,0.228,1.338,0.698,1.826
						c0.472,0.488,1.121,0.765,1.8,0.765h116.431c1.576,0,3.047-0.625,4.142-1.76s1.666-2.628,1.609-4.204L254.4,206.205z
						 M250.788,250.77c-0.083,0.086-0.264,0.23-0.543,0.23H136.407l1.62-44.518c0.22-3.952,2.947-7.258,6.787-8.225l5.581-1.408
						c0.111-0.028,3.736-0.943,7.329-1.85c3.566-0.9,7.101-1.793,7.137-1.803c1.843-0.464,3.641-1.125,5.346-1.965l6.932-3.418
						c3.543-1.746,5.743-5.284,5.743-9.233v-4.605c6.897,2.629,14.771,2.63,21.672-0.001v4.606c0,3.949,2.2,7.487,5.742,9.233
						l6.933,3.418c1.703,0.84,3.502,1.501,5.343,1.965l20.051,5.062c3.839,0.966,6.566,4.271,6.784,8.176L251,250.217
						C251.01,250.496,250.871,250.683,250.788,250.77z"/>
				</g>
			</g>
		</g>
		<g>
			<g>
				<g>
					<path d="M235.098,164.541c6.129-9.609,2.995-18.959,0.582-23.677c-0.409-0.8-1.216-1.318-2.113-1.358
						c-0.91-0.038-1.747,0.404-2.228,1.164c-1.701,2.699-4.611,4.311-7.784,4.311c-0.444,0-0.913-0.042-1.475-0.132
						c-0.688-0.106-1.402,0.075-1.952,0.513c-0.55,0.438-0.89,1.087-0.937,1.788c-0.589,8.753-5.573,16.504-13.334,20.733
						c-0.804,0.438-1.304,1.28-1.304,2.195v8.503c0,3.588,1.834,6.858,4.904,8.75l0.135,0.083c0.462,0.286,0.545,0.327,1.565,0.825
						c0.89,0.434,2.583,1.259,6.071,2.994c1.13,0.557,2.647,1.162,3.854,1.541c0.194,0.062,0.392,0.117,0.588,0.172l0.134,0.037
						c0.222,0.063,0.45,0.094,0.678,0.094c0.291,0,0.582-0.051,0.859-0.152c5.104-1.867,8.933-4.779,11.378-8.654
						c5.11-8.089,1.911-15.956,0.3-18.963C234.882,165.05,234.97,164.742,235.098,164.541z M230.882,161.854
						c-1.134,1.779-1.237,4.008-0.269,5.815c1.488,2.775,3.452,8.276-0.12,13.931c-1.726,2.734-4.453,4.864-8.112,6.339
						c-0.945-0.311-2.099-0.776-2.934-1.188c-3.5-1.741-5.203-2.571-6.098-3.008c-0.875-0.426-0.875-0.426-1.12-0.578l-0.148-0.092
						c-1.582-0.975-2.527-2.654-2.527-4.493v-7.06c7.808-4.751,13.021-12.599,14.357-21.545c3.274-0.081,6.35-1.271,8.783-3.329
						C234.093,150.944,234.39,156.354,230.882,161.854z"/>
				</g>
			</g>
		</g>
		<g>
			<g>
				<g>
					<path d="M181.577,167.883c-7.762-4.23-12.745-11.98-13.333-20.732c-0.047-0.701-0.387-1.351-0.937-1.788
						c-0.55-0.438-1.265-0.621-1.952-0.514c-0.562,0.09-1.03,0.132-1.476,0.132c-3.172,0-6.082-1.611-7.783-4.311
						c-0.479-0.76-1.31-1.202-2.228-1.164c-0.897,0.04-1.704,0.559-2.113,1.358c-2.414,4.717-5.549,14.065,0.581,23.678
						c0.166,0.261,0.195,0.546,0.078,0.765c0,0,0,0,0,0.001c-1.612,3.008-4.809,10.876,0.299,18.963
						c2.447,3.875,6.275,6.787,11.379,8.654c0.277,0.102,0.568,0.152,0.859,0.152c0.229,0,0.458-0.031,0.681-0.095l0.145-0.04
						c0.19-0.054,0.381-0.107,0.563-0.165c1.224-0.384,2.742-0.99,3.874-1.549c3.763-1.871,5.49-2.715,6.333-3.126
						c0.847-0.414,0.936-0.457,1.252-0.659l0.176-0.111c3.071-1.892,4.905-5.163,4.905-8.751v-8.503
						C182.881,169.163,182.381,168.321,181.577,167.883z M177.881,178.581c0,1.839-0.944,3.519-2.528,4.494l-0.293,0.186
						c-0.102,0.056-0.26,0.131-0.706,0.349c-0.848,0.414-2.583,1.262-6.358,3.139c-0.836,0.413-1.987,0.878-2.94,1.19
						c-3.659-1.474-6.387-3.604-8.113-6.338c-3.57-5.653-1.607-11.155-0.12-13.932c0.97-1.808,0.866-4.036-0.27-5.815
						c-3.507-5.501-3.21-10.91-1.812-15.206c2.434,2.058,5.509,3.248,8.784,3.329c1.336,8.945,6.55,16.793,14.356,21.545V178.581z"
						/>
				</g>
			</g>
		</g>
		<g>
			<g>
				<g>
					<path d="M144.33,35.143h-8.904v-8.904c0-2.496-2.03-4.526-4.526-4.526h-5.799c-2.496,0-4.526,2.03-4.526,4.526v8.904h-8.904
						c-2.496,0-4.526,2.03-4.526,4.526v5.799c0,2.496,2.031,4.526,4.526,4.526h8.904v8.904c0,2.496,2.03,4.526,4.526,4.526h5.799
						c2.496,0,4.526-2.03,4.526-4.526v-8.904h8.904c2.496,0,4.526-2.03,4.526-4.526v-5.799
						C148.856,37.173,146.826,35.143,144.33,35.143z M143.856,44.994h-8.904c-2.496,0-4.526,2.03-4.526,4.526v8.904h-4.852v-8.904
						c0-2.496-2.031-4.526-4.526-4.526h-8.904v-4.852h8.904c2.496,0,4.526-2.03,4.526-4.526v-8.904h4.852v8.904
						c0,2.496,2.03,4.526,4.526,4.526h8.904V44.994z"/>
				</g>
			</g>
		</g>
		<g>
			<g>
				<g>
					<path d="M79.315,149.16c-0.842-1.106-2.104-1.741-3.463-1.741H57.23c-1.359,0-2.621,0.635-3.463,1.74
						c-0.864,1.136-1.153,2.637-0.771,4.016c1.762,6.374,7.332,10.826,13.545,10.826s11.783-4.452,13.545-10.826
						C80.467,151.796,80.179,150.295,79.315,149.16z M66.541,159.001c-3.789,0-7.229-2.678-8.549-6.582H75.09
						C73.77,156.323,70.33,159.001,66.541,159.001z"/>
				</g>
			</g>
		</g>
		<g>
			<g>
				<g>
					<path d="M206.492,150.183c-0.843-1.106-2.104-1.741-3.464-1.741h-18.621c-1.359,0-2.621,0.635-3.464,1.741
						c-0.863,1.135-1.152,2.636-0.771,4.015c1.762,6.374,7.332,10.826,13.546,10.826c6.213,0,11.783-4.452,13.545-10.826
						C207.645,152.818,207.355,151.317,206.492,150.183z M193.718,160.023c-3.79,0-7.229-2.678-8.549-6.582h17.098
						C200.945,157.346,197.507,160.023,193.718,160.023z"/>
				</g>
			</g>
		</g>
		<g>
			<g>
				<g>
					<path d="M89.414,185.681c-0.849-0.411-1.385-0.695-1.521-0.769c-0.045-0.026-0.091-0.051-0.139-0.074
						c-2.797-1.379-4.535-4.174-4.535-7.293v-5.009c0-0.875-0.457-1.686-1.206-2.139c-0.749-0.453-1.68-0.482-2.454-0.076
						c-4.064,2.128-8.444,3.207-13.019,3.207c-4.573,0-8.953-1.079-13.019-3.207c-0.775-0.405-1.706-0.377-2.454,0.076
						c-0.749,0.453-1.206,1.264-1.206,2.139v5.009c0,3.119-1.738,5.913-4.536,7.293c-0.001,0-0.002,0.001-0.003,0.002
						c-0.56,0.276-1.112,0.545-1.66,0.809c-1.155,0.556-1.703,1.896-1.267,3.103c3.672,10.167,13.375,16.998,24.144,16.998
						c10.753,0,20.452-6.818,24.133-16.966C91.111,187.579,90.567,186.239,89.414,185.681z M66.541,200.749
						c-7.925,0-15.134-4.6-18.574-11.647c4.267-2.296,6.896-6.681,6.896-11.557v-1.154c7.455,2.812,15.904,2.811,23.356,0v1.154
						c0,4.877,2.63,9.262,6.896,11.557C81.674,196.148,74.462,200.749,66.541,200.749z"/>
				</g>
			</g>
		</g>
		<g>
			<g>
				<g>
					<path d="M24.631,233.284H3.333c-1.324,0-2.419,1.033-2.496,2.355L0.01,249.912c-0.091,1.575,0.478,3.137,1.56,4.283
						C2.652,255.343,4.178,256,5.755,256h18.876c1.381,0,2.5-1.119,2.5-2.5v-17.716C27.131,234.403,26.012,233.284,24.631,233.284z
						 M22.131,251H5.755c-0.283,0-0.465-0.148-0.549-0.236c-0.083-0.089-0.221-0.279-0.205-0.563l0.692-11.917h16.438V251z"/>
				</g>
			</g>
		</g>
		<g>
			<g>
				<g>
					<path d="M132.245,235.64c-0.077-1.322-1.172-2.355-2.496-2.355h-21.298c-1.381,0-2.5,1.119-2.5,2.5V253.5
						c0,1.381,1.119,2.5,2.5,2.5h22.326c0.688,0,1.346-0.283,1.818-0.784c0.473-0.5,0.717-1.174,0.678-1.86L132.245,235.64z
						 M110.951,251v-12.716h16.439L128.127,251H110.951z"/>
				</g>
			</g>
		</g>
		<g>
			<g>
				<g>
					<path d="M217.643,185.862l-5.136-2.532c-1.821-0.898-2.953-2.718-2.953-4.749v-8.503c0-0.882-0.465-1.699-1.224-2.149
						c-0.758-0.449-1.698-0.467-2.473-0.046c-3.711,2.022-7.908,3.092-12.14,3.092s-8.43-1.069-12.141-3.092
						c-0.773-0.421-1.715-0.403-2.473,0.046c-0.759,0.45-1.224,1.268-1.224,2.149v8.503c0,2.031-1.132,3.851-2.953,4.749
						l-5.135,2.532c-1.188,0.586-1.714,1.998-1.196,3.218c4.288,10.118,10.976,19.282,19.337,26.501
						c1.648,1.423,3.716,2.135,5.784,2.135c2.067,0,4.136-0.712,5.784-2.135c8.36-7.219,15.047-16.383,19.337-26.501
						C219.356,187.86,218.831,186.448,217.643,185.862z M196.234,211.796c-1.436,1.24-3.6,1.24-5.033,0
						c-7.187-6.204-13.044-13.95-17.042-22.513l2.979-1.469c3.542-1.746,5.742-5.284,5.742-9.233v-4.606
						c6.9,2.631,14.774,2.63,21.673,0.001v4.605c0,3.949,2.2,7.487,5.742,9.233l2.979,1.47
						C209.277,197.846,203.42,205.592,196.234,211.796z"/>
				</g>
			</g>
		</g>
		<g>
			<g>
				<g>
					<path d="M254.958,221.502c-0.027-0.771-0.41-1.485-1.035-1.937s-1.425-0.589-2.163-0.372l-20.375,5.946
						c-1.066,0.311-1.8,1.288-1.8,2.399V253.5c0,1.381,1.119,2.5,2.5,2.5h18.16c1.576,0,3.047-0.625,4.142-1.76
						s1.666-2.628,1.609-4.203v-0.001L254.958,221.502z M250.788,250.77c-0.083,0.086-0.264,0.23-0.543,0.23h-15.66v-21.586
						l15.493-4.521L251,250.218C251.01,250.497,250.871,250.683,250.788,250.77z"/>
				</g>
			</g>
		</g>
		<g>
			<g>
				<g>
					<path d="M156.05,225.14l-20.374-5.946c-0.739-0.217-1.538-0.079-2.163,0.372s-1.008,1.166-1.035,1.937l-1.161,31.907
						c-0.025,0.679,0.228,1.338,0.698,1.826c0.472,0.488,1.121,0.765,1.8,0.765h21.535c1.381,0,2.5-1.119,2.5-2.5v-25.961
						C157.85,226.428,157.116,225.45,156.05,225.14z M152.85,251h-16.442l0.95-26.107l15.492,4.521V251z"/>
				</g>
			</g>
		</g>
	</g>
</g>
<g id="Layer_69">
</g>
<g id="Layer_70">
</g>
<g id="Layer_71">
</g>
<g id="Layer_72">
</g>
<g id="Layer_73">
</g>
<g id="Layer_74">
</g>
<g id="Layer_75">
</g>
<g id="Layer_76">
</g>
<g id="Layer_77">
</g>
<g id="Layer_78">
</g>
<g id="Layer_79">
</g>
<g id="Layer_80">
</g>
</svg>
