<?xml version="1.0" encoding="utf-8"?>
<!-- Generator: Adobe Illustrator 24.0.0, SVG Export Plug-In . SVG Version: 6.00 Build 0)  -->
<svg version="1.1" xmlns="http://www.w3.org/2000/svg" xmlns:xlink="http://www.w3.org/1999/xlink" x="0px" y="0px"
	 viewBox="0 0 256 256" style="enable-background:new 0 0 256 256;" xml:space="preserve">
<style type="text/css">
	.st0{fill:#6CADEF;}
	.st1{fill:#F9D0B4;}
	.st2{fill:#5B5D60;}
	.st3{fill:#9BE5F9;}
	.st4{fill:#FC657E;}
	.st5{fill:#70D6F9;}
	.st6{fill:#F5C84C;}
	.st7{fill:#F98FA6;}
	.st8{fill:#FED690;}
	.st9{fill:#87D147;}
	.st10{fill:#B2E26D;}
	.st11{fill:#EDF4FC;}
	.st12{fill:#FCDD86;}
	.st13{fill:#754E34;}
	.st14{fill:#B598F9;}
	.st15{fill:#5290DB;}
	.st16{fill:#C7D7E5;}
	.st17{fill:#C18E6B;}
	.st18{fill:#DAE6F1;}
	.st19{fill:#3CAADC;}
	.st20{fill:#818182;}
	.st21{fill:#CBEFF7;}
	.st22{fill:#FCA265;}
	.st23{fill:#A57453;}
	.st24{fill:#8652D8;}
	.st25{fill:#966AEA;}
	.st26{fill:#FEB872;}
	.st27{fill:#EDB311;}
	.st28{fill:#EF4460;}
</style>
<g id="Layer_1">
</g>
<g id="Layer_2">
</g>
<g id="Layer_3">
</g>
<g id="Layer_4">
</g>
<g id="Layer_5">
</g>
<g id="Layer_6">
</g>
<g id="Layer_7">
</g>
<g id="Layer_8">
</g>
<g id="Layer_9">
</g>
<g id="Layer_10">
</g>
<g id="Layer_11">
</g>
<g id="Layer_12">
</g>
<g id="Layer_13">
</g>
<g id="Layer_14">
</g>
<g id="Layer_15">
</g>
<g id="Layer_16">
</g>
<g id="Layer_17">
</g>
<g id="Layer_18">
</g>
<g id="Layer_19">
</g>
<g id="Layer_20">
</g>
<g id="Layer_21">
</g>
<g id="Layer_22">
</g>
<g id="Layer_23">
</g>
<g id="Layer_24">
</g>
<g id="Layer_25">
</g>
<g id="Layer_26">
</g>
<g id="Layer_27">
</g>
<g id="Layer_28">
</g>
<g id="Layer_29">
</g>
<g id="Layer_30">
</g>
<g id="Layer_31">
</g>
<g id="Layer_32">
	<g>
		<g>
			<g>
				<path class="st4" d="M231.017,102.667l-98.15-98.151C131.576,3.225,129.826,2.5,128,2.5s-3.576,0.725-4.866,2.016l-98.15,98.151
					c-2.689,2.688-2.689,7.046,0,9.734c2.686,2.688,7.047,2.688,9.733,0L128,19.117l93.284,93.284c2.687,2.689,7.047,2.687,9.733,0
					C233.706,109.713,233.706,105.355,231.017,102.667z"/>
			</g>
		</g>
		<g>
			<g>
				<polygon class="st12" points="128,19.117 40.242,106.875 40.242,253.5 215.758,253.5 215.758,106.875 				"/>
			</g>
		</g>
		<g>
			<g>
				<path class="st1" d="M136.765,109.88c-1.203-1.261-3.158-1.377-4.529-0.301c-2.168,1.701-5.918,3.804-11.216,3.804
					c-5.31,0-9.081-2.113-11.257-3.817c-1.37-1.072-3.321-0.952-4.521,0.307l-0.006,0.007c-1.687,1.769-2.627,4.119-2.627,6.563
					v15.436c0,10.116,8.276,18.392,18.392,18.392c0.157,0,0.309-0.02,0.465-0.024v-1.187c0-2.242,1.818-4.06,4.06-4.06h8.32
					c3.415-3.344,5.548-7.993,5.548-13.121v-15.436C139.392,113.999,138.451,111.649,136.765,109.88z"/>
			</g>
		</g>
		<g>
			<g>
				<path class="st1" d="M140.573,117.861c-0.402,0-0.795,0.034-1.18,0.094v13.924c0,0.415-0.019,0.825-0.046,1.233
					c0.4,0.064,0.808,0.107,1.227,0.107c4.241,0,7.679-3.438,7.679-7.679C148.251,121.299,144.813,117.861,140.573,117.861z"/>
			</g>
		</g>
		<g>
			<g>
				<path class="st1" d="M102.608,131.879v-13.924c-0.385-0.06-0.779-0.094-1.18-0.094c-4.241,0-7.679,3.438-7.679,7.679
					c0,4.241,3.438,7.679,7.679,7.679c0.418,0,0.826-0.042,1.227-0.107v0C102.627,132.704,102.608,132.293,102.608,131.879z"/>
			</g>
		</g>
		<g>
			<g>
				<path class="st2" d="M139.324,102.172c-0.616,0-1.15-0.475-1.158-1.091c-0.141-10.249-11.844-12.174-23.499-10.161
					c-9.882,1.706-17.104,10.275-17.104,20.303v7.689c1.136-0.664,2.454-1.051,3.865-1.051c0.402,0,0.795,0.034,1.18,0.094v-1.512
					c0-2.444,0.941-4.794,2.627-6.563l0.006-0.007c1.2-1.259,3.152-1.379,4.521-0.307c2.177,1.704,5.947,3.817,11.257,3.817
					c5.297,0,9.048-2.103,11.216-3.804c1.371-1.076,3.326-0.96,4.529,0.301c1.687,1.769,2.628,4.119,2.628,6.563v1.512
					c0.385-0.06,0.778-0.094,1.18-0.094c1.428,0,2.761,0.397,3.906,1.076v-6.313C144.479,103.447,141.165,102.172,139.324,102.172z"
					/>
			</g>
		</g>
		<g>
			<g>
				<path class="st0" d="M117.698,193.889c0.003-1.044,0.866-1.889,1.91-1.889h5.916c-2.242,0-4.06-1.818-4.06-4.06v-37.684
					c-0.155,0.004-0.309,0.014-0.465,0.014h0c-3.051,0-5.933-0.757-8.473-2.087v2.993c0,2.416-1.37,4.627-3.537,5.695
					c-2.935,1.447-5.495,2.604-9.381,3.582l-9.958,2.506c-3.08,0.775-5.299,3.464-5.475,6.635l-1.482,25.564
					c-0.2,3.441,2.537,6.341,5.984,6.341h36.611C121.089,201.5,117.687,198.09,117.698,193.889z"/>
			</g>
		</g>
		<g>
			<g>
				<path class="st1" d="M121,150.271c-3.052,0-5.933-0.757-8.473-2.087v2.993c0,2.419-1.374,4.629-3.544,5.699
					c-0.34,0.168-0.674,0.331-1.007,0.491c1.927,5.333,7.048,9.172,13.024,9.172c0.156,0,0.309-0.013,0.465-0.019v-16.264
					C121.31,150.26,121.156,150.271,121,150.271z"/>
			</g>
		</g>
		<g>
			<g>
				<path class="st1" d="M119.609,192h5.891v-0.002c-2.231-0.014-4.035-1.824-4.035-4.058v-0.44H99.5v-8H83.601l-0.908,15.659
					c-0.2,3.441,2.537,6.341,5.984,6.341h36.611c-4.199,0-7.601-3.41-7.589-7.611C117.701,192.844,118.564,192,119.609,192z"/>
			</g>
		</g>
		<g>
			<g>
				<path class="st17" d="M190.782,201.5H65.218c-1.301,0-2.356,1.055-2.356,2.355v5.789c0,1.301,1.055,2.356,2.356,2.356h125.565
					c1.301,0,2.356-1.055,2.356-2.356v-5.789C193.138,202.555,192.083,201.5,190.782,201.5z"/>
			</g>
		</g>
		<g>
			<g>
				<path class="st16" d="M178.211,192h-58.602c-1.055,0-1.911,0.855-1.911,1.911c0,4.192,3.398,7.589,7.589,7.589h47.244
					c4.192,0,7.589-3.398,7.589-7.589C180.121,192.855,179.266,192,178.211,192z"/>
			</g>
		</g>
		<g>
			<g>
				<path class="st11" d="M172.295,145h-46.77c-2.242,0-4.06,1.818-4.06,4.06v38.88c0,2.242,1.818,4.06,4.06,4.06h46.77
					c2.242,0,4.06-1.818,4.06-4.06v-38.88C176.355,146.818,174.537,145,172.295,145z"/>
			</g>
		</g>
		<g>
			<g>
				<rect x="66.778" y="212" class="st23" width="122.444" height="41.5"/>
			</g>
		</g>
		<g>
			<g>
				<g>
					<g>
						<path d="M232.785,100.899l-98.15-98.151C132.861,0.976,130.505,0,128,0s-4.861,0.976-6.634,2.749l-98.15,98.15
							c-1.772,1.772-2.749,4.129-2.749,6.635c0,2.506,0.976,4.863,2.748,6.635c1.771,1.772,4.128,2.748,6.635,2.748
							s4.863-0.976,6.634-2.748L128,22.653l91.516,91.515c1.771,1.773,4.127,2.75,6.635,2.75c2.507,0,4.863-0.977,6.634-2.748
							c1.772-1.772,2.749-4.129,2.749-6.635C235.533,105.028,234.557,102.671,232.785,100.899z M229.249,110.633
							c-0.827,0.828-1.928,1.283-3.099,1.284c-1.171,0-2.271-0.456-3.098-1.283l-0.001-0.001L129.768,17.35
							c-0.488-0.488-1.128-0.732-1.768-0.732s-1.28,0.244-1.768,0.732l-93.285,93.284c-0.827,0.827-1.927,1.283-3.098,1.283
							s-2.271-0.456-3.099-1.284c-0.828-0.828-1.284-1.928-1.284-3.099c0-1.17,0.456-2.271,1.284-3.099l98.15-98.15
							C125.729,5.456,126.83,5,128,5s2.271,0.456,3.099,1.284l98.15,98.151c0.828,0.828,1.284,1.928,1.284,3.099
							C230.533,108.705,230.078,109.805,229.249,110.633z"/>
					</g>
				</g>
			</g>
		</g>
		<g>
			<g>
				<path d="M222.985,251H33.015c-1.381,0-2.5,1.119-2.5,2.5s1.119,2.5,2.5,2.5h189.97c1.381,0,2.5-1.119,2.5-2.5
					S224.366,251,222.985,251z"/>
			</g>
		</g>
		<g>
			<g>
				<g>
					<path d="M217.525,105.107L129.768,17.35c-0.976-0.977-2.56-0.977-3.535,0l-87.758,87.757c-0.469,0.469-0.732,1.104-0.732,1.768
						V253.5c0,1.381,1.119,2.5,2.5,2.5h175.516c1.381,0,2.5-1.119,2.5-2.5V106.875C218.258,106.211,217.995,105.576,217.525,105.107
						z M213.258,251H42.742V107.91L128,22.653l85.258,85.257V251z"/>
				</g>
			</g>
		</g>
		<g>
			<g>
				<path class="st4" d="M22.206,198.1h-2.4v-2.3c0-1.8-1.4-3.2-3.2-3.2c-1.7,0-3.2,1.4-3.2,3.1v2.4h-2.3c-1.8,0-3.2,1.4-3.2,3.2
					c-0.1,1.7,1.3,3.2,3.2,3.2h2.3v2.3c0,1.8,1.4,3.2,3.2,3.2c1.7,0,3.2-1.4,3.2-3.1v-2.4h2.3c1.8,0,3.2-1.4,3.2-3.2
					C25.306,199.6,23.906,198.1,22.206,198.1z"/>
			</g>
		</g>
		<g>
			<g>
				<path class="st12" d="M22.506,228.5c-1.878,0-3.4,1.522-3.4,3.4c0,1.878,1.522,3.4,3.4,3.4c1.878,0,3.4-1.522,3.4-3.4
					C25.906,230.022,24.384,228.5,22.506,228.5z"/>
			</g>
		</g>
		<g>
			<g>
				<path class="st9" d="M170.506,0c-1.878,0-3.4,1.522-3.4,3.4c0,1.878,1.522,3.4,3.4,3.4c1.878,0,3.4-1.522,3.4-3.4
					C173.906,1.522,172.384,0,170.506,0z"/>
			</g>
		</g>
		<g>
			<g>
				<path class="st5" d="M241.288,201.2c-3.1-0.6-5.6-3-6.2-6.1c0-0.1-0.3-0.1-0.3,0c-0.6,3.1-3.1,5.5-6.2,6.1c-0.1,0-0.1,0.2,0,0.3
					c3.1,0.6,5.6,3,6.2,6.1c0,0.1,0.3,0.1,0.3,0c0.6-3.1,3.1-5.5,6.2-6.1C241.388,201.4,241.388,201.2,241.288,201.2z"/>
			</g>
		</g>
		<g>
			<g>
				<path class="st12" d="M200.288,24.2c-4.5-0.8-8-4.3-8.9-8.7c0-0.2-0.4-0.2-0.4,0c-0.9,4.4-4.4,7.9-8.9,8.7c-0.2,0-0.2,0.3,0,0.4
					c4.5,0.8,8,4.3,8.9,8.7c0,0.2,0.4,0.2,0.4,0c0.9-4.4,4.4-7.9,8.9-8.7C200.488,24.5,200.488,24.2,200.288,24.2z"/>
			</g>
		</g>
		<g>
			<g>
				<path d="M154.926,166h-12.033c-1.381,0-2.5,1.119-2.5,2.5s1.119,2.5,2.5,2.5h12.033c1.381,0,2.5-1.119,2.5-2.5
					S156.307,166,154.926,166z"/>
			</g>
		</g>
		<g>
			<g>
				<path d="M99.5,172c-1.381,0-2.5,1.119-2.5,2.5v8c0,1.381,1.119,2.5,2.5,2.5s2.5-1.119,2.5-2.5v-8
					C102,173.119,100.881,172,99.5,172z"/>
			</g>
		</g>
		<g>
			<g>
				<g>
					<path d="M138.574,108.155c-2.093-2.195-5.481-2.427-7.881-0.543c-1.901,1.492-5.123,3.271-9.672,3.271
						c-4.562,0-7.802-1.787-9.717-3.285c-2.397-1.878-5.782-1.641-7.872,0.549c-0.01,0.011-0.021,0.023-0.033,0.035
						c-2.123,2.24-3.292,5.172-3.292,8.26v15.436c0,11.52,9.372,20.893,20.892,20.893c0.147,0,0.292-0.008,0.528-0.025
						c1.355-0.034,2.437-1.143,2.437-2.499v-1.187c0-0.86,0.7-1.56,1.56-1.56h8.32c0.654,0,1.282-0.256,1.749-0.714
						c4.062-3.977,6.298-9.271,6.298-14.908v-15.436C141.892,113.342,140.714,110.399,138.574,108.155z M136.892,131.878
						c0,3.953-1.452,7.688-4.11,10.622h-7.257c-3.137,0-5.767,2.213-6.41,5.16c-7.878-0.935-14.007-7.656-14.007-15.781v-15.436
						c0-1.81,0.688-3.527,1.937-4.837c0.007-0.007,0.014-0.014,0.021-0.021c0.306-0.306,0.8-0.328,1.157-0.048
						c2.535,1.983,6.812,4.348,12.799,4.348c5.978,0,10.238-2.359,12.759-4.338c0.366-0.286,0.87-0.259,1.176,0.06
						c1.249,1.31,1.937,3.028,1.937,4.837V131.878z"/>
				</g>
			</g>
		</g>
		<g>
			<g>
				<g>
					<path d="M139.007,115.485c-1.217,0.19-2.115,1.238-2.115,2.47v13.923c0,0.358-0.017,0.712-0.041,1.063
						c-0.088,1.29,0.821,2.433,2.097,2.639c0.582,0.094,1.113,0.139,1.625,0.139c5.613,0,10.179-4.566,10.179-10.179
						C150.751,119.415,145.297,114.503,139.007,115.485z M141.892,130.549v-10.017c2.219,0.585,3.859,2.608,3.859,5.008
						S144.111,129.964,141.892,130.549z"/>
				</g>
			</g>
		</g>
		<g>
			<g>
				<g>
					<path d="M105.108,131.878v-13.923c0-1.232-0.897-2.28-2.115-2.47c-6.288-0.983-11.745,3.93-11.745,10.055
						c0,5.613,4.566,10.179,10.179,10.179c0.511,0,1.042-0.045,1.624-0.139c1.274-0.205,2.183-1.347,2.097-2.635
						C105.125,132.592,105.108,132.237,105.108,131.878z M100.108,130.549c-2.219-0.585-3.859-2.609-3.859-5.009
						c0-2.399,1.641-4.423,3.859-5.008V130.549z"/>
				</g>
			</g>
		</g>
		<g>
			<g>
				<g>
					<path d="M140.596,99.8c-0.324-3.305-1.765-6.095-4.208-8.125c-6.109-5.073-16.5-4.195-22.146-3.219
						c-11.113,1.918-19.179,11.493-19.179,22.766v7.689c0,0.896,0.479,1.723,1.256,2.168c0.776,0.446,1.732,0.441,2.505-0.01
						c1.018-0.594,2.16-0.84,3.399-0.646c0.725,0.113,1.457-0.096,2.011-0.571c0.555-0.475,0.874-1.168,0.874-1.899v-1.512
						c0-1.81,0.688-3.527,1.943-4.844c0.304-0.319,0.809-0.347,1.171-0.063c2.535,1.983,6.813,4.348,12.798,4.348
						c5.978,0,10.238-2.359,12.759-4.338c0.366-0.286,0.87-0.259,1.176,0.06c1.249,1.31,1.937,3.028,1.937,4.837v1.512
						c0,0.73,0.319,1.424,0.874,1.899c0.555,0.475,1.289,0.686,2.011,0.571c1.25-0.194,2.401,0.055,3.426,0.663
						c0.393,0.233,0.833,0.35,1.275,0.35c0.427,0,0.854-0.109,1.237-0.328c0.781-0.445,1.263-1.274,1.263-2.172v-6.313
						C146.979,102.763,143.169,100.322,140.596,99.8z M141.979,115.46c-0.042-0.006-0.085-0.012-0.127-0.017
						c-0.225-2.729-1.369-5.287-3.277-7.288c-2.093-2.195-5.481-2.427-7.881-0.543c-1.901,1.492-5.123,3.271-9.672,3.271
						c-4.561,0-7.801-1.787-9.717-3.286c-2.399-1.875-5.783-1.64-7.877,0.558c-1.909,2.001-3.052,4.559-3.277,7.288
						c-0.029,0.004-0.058,0.008-0.087,0.012v-4.231c0-8.833,6.321-16.335,15.029-17.839c8.046-1.389,14.816-0.59,18.102,2.138
						c1.63,1.354,2.439,3.184,2.473,5.595c0.028,1.96,1.669,3.555,3.658,3.555c1.613,0,2.655,3.121,2.655,7.952V115.46z"/>
				</g>
			</g>
		</g>
		<g>
			<g>
				<g>
					<path d="M125.288,199c-1.362,0-2.643-0.531-3.604-1.496c-0.818-0.821-1.322-1.871-1.452-3.004h5.293c1.381,0,2.5-1.119,2.5-2.5
						s-1.119-2.5-2.5-2.5c-0.86,0-1.56-0.7-1.56-1.56v-37.684c0-0.674-0.272-1.319-0.754-1.79c-0.483-0.47-1.135-0.732-1.809-0.709
						L121,147.771c-2.569,0-5.03-0.606-7.314-1.802c-0.775-0.405-1.706-0.376-2.454,0.076c-0.749,0.453-1.206,1.264-1.206,2.139
						v2.993c0,1.456-0.841,2.811-2.143,3.453c-2.635,1.299-5.122,2.452-8.886,3.399l-9.958,2.506
						c-4.165,1.048-7.123,4.633-7.36,8.914l-1.483,25.564c-0.135,2.324,0.705,4.628,2.302,6.321c1.598,1.693,3.85,2.664,6.178,2.664
						h36.611c1.381,0,2.5-1.119,2.5-2.5S126.669,199,125.288,199z M116.571,199H88.677c-0.972,0-1.875-0.389-2.542-1.096
						c-0.667-0.707-1.003-1.63-0.947-2.6l1.483-25.57c0.116-2.09,1.559-3.838,3.589-4.349l9.958-2.506
						c4.24-1.068,6.981-2.336,9.877-3.764c2.785-1.374,4.653-4.163,4.903-7.234c1.293,0.391,2.623,0.656,3.966,0.79v35.27
						c0,0.545,0.067,1.076,0.193,1.583c-2.213,0.226-3.952,2.094-3.959,4.357c0,0,0,0.001,0,0.001
						C115.193,195.709,115.671,197.464,116.571,199z"/>
				</g>
			</g>
		</g>
		<g>
			<g>
				<g>
					<path d="M123.21,148.466c-0.483-0.47-1.135-0.732-1.809-0.709L121,147.771c-2.569,0-5.03-0.606-7.314-1.802
						c-0.775-0.405-1.706-0.376-2.454,0.076c-0.749,0.453-1.206,1.264-1.206,2.139v2.993c0,1.479-0.824,2.803-2.149,3.456
						c-0.333,0.164-0.66,0.324-0.986,0.48c-1.156,0.556-1.704,1.896-1.268,3.103c2.338,6.473,8.518,10.822,15.375,10.822
						c0.143,0,0.284-0.006,0.426-0.014l0.125-0.006c1.346-0.046,2.414-1.151,2.414-2.499v-16.264
						C123.965,149.583,123.693,148.937,123.21,148.466z M118.965,163.853c-3.223-0.595-6.055-2.578-7.73-5.408
						c2.178-1.508,3.558-3.896,3.765-6.563c1.293,0.39,2.623,0.655,3.965,0.789V163.853z"/>
				</g>
			</g>
		</g>
		<g>
			<g>
				<g>
					<path d="M125.288,199c-1.362,0-2.643-0.531-3.604-1.496c-0.818-0.821-1.322-1.871-1.452-3.004h5.268
						c1.381,0,2.5-1.122,2.5-2.502c0-1.375-1.11-2.492-2.485-2.5c-0.855-0.005-1.55-0.704-1.55-1.558v-0.44
						c0-1.381-1.119-2.5-2.5-2.5H102v-5.5c0-1.381-1.119-2.5-2.5-2.5H83.601c-1.325,0-2.419,1.033-2.496,2.355l-0.908,15.659
						c-0.135,2.324,0.704,4.628,2.302,6.321c1.598,1.693,3.849,2.665,6.177,2.665h36.611c1.381,0,2.5-1.119,2.5-2.5
						S126.669,199,125.288,199z M115.198,193.882c-0.005,1.828,0.473,3.582,1.373,5.118H88.677c-0.972,0-1.874-0.389-2.541-1.096
						c-0.667-0.707-1.003-1.63-0.947-2.601L85.96,182H97v5.5c0,1.381,1.119,2.5,2.5,2.5h18.068
						C116.165,190.733,115.203,192.198,115.198,193.882z"/>
				</g>
			</g>
		</g>
		<g>
			<g>
				<g>
					<path d="M190.782,199H65.218c-2.677,0-4.855,2.178-4.855,4.855v5.789c0,2.677,2.178,4.855,4.855,4.855h125.564
						c2.677,0,4.855-2.178,4.855-4.855v-5.789C195.638,201.178,193.459,199,190.782,199z M190.638,209.5H65.362V204h125.275V209.5z"
						/>
				</g>
			</g>
		</g>
		<g>
			<g>
				<g>
					<path d="M178.211,189.5h-58.602c-2.432,0-4.411,1.979-4.411,4.411c0,5.563,4.526,10.089,10.09,10.089h47.244
						c5.563,0,10.089-4.526,10.089-10.089C182.622,191.479,180.643,189.5,178.211,189.5z M172.532,199h-47.244
						c-2.607,0-4.763-1.97-5.056-4.5h57.356C177.294,197.03,175.139,199,172.532,199z"/>
				</g>
			</g>
		</g>
		<g>
			<g>
				<g>
					<path d="M172.295,142.5h-46.77c-3.617,0-6.56,2.943-6.56,6.56v38.88c0,3.617,2.943,6.56,6.56,6.56h46.77
						c3.618,0,6.561-2.943,6.561-6.56v-38.88C178.855,145.443,175.913,142.5,172.295,142.5z M173.855,187.94
						c0,0.86-0.7,1.56-1.561,1.56h-46.77c-0.86,0-1.56-0.7-1.56-1.56v-38.88c0-0.86,0.7-1.56,1.56-1.56h46.77
						c0.86,0,1.561,0.7,1.561,1.56V187.94z"/>
				</g>
			</g>
		</g>
		<g>
			<g>
				<g>
					<g>
						<path d="M189.222,209.5H66.778c-1.381,0-2.5,1.119-2.5,2.5v41.5c0,1.381,1.119,2.5,2.5,2.5h122.444c1.381,0,2.5-1.119,2.5-2.5
							V212C191.722,210.619,190.603,209.5,189.222,209.5z M186.722,251H69.278v-36.5h117.444V251z"/>
					</g>
				</g>
			</g>
		</g>
	</g>
</g>
<g id="Layer_33">
</g>
<g id="Layer_34">
</g>
<g id="Layer_35">
</g>
<g id="Layer_36">
</g>
<g id="Layer_37">
</g>
<g id="Layer_38">
</g>
<g id="Layer_39">
</g>
<g id="Layer_40">
</g>
<g id="Layer_41">
</g>
<g id="Layer_42">
</g>
<g id="Layer_43">
</g>
<g id="Layer_44">
</g>
<g id="Layer_45">
</g>
<g id="Layer_46">
</g>
<g id="Layer_47">
</g>
<g id="Layer_48">
</g>
<g id="Layer_49">
</g>
<g id="Layer_50">
</g>
<g id="Layer_51">
</g>
<g id="Layer_52">
</g>
<g id="Layer_53">
</g>
<g id="Layer_54">
</g>
<g id="Layer_55">
</g>
<g id="Layer_56">
</g>
<g id="Layer_57">
</g>
<g id="Layer_58">
</g>
<g id="Layer_59">
</g>
<g id="Layer_60">
</g>
<g id="Layer_61">
</g>
<g id="Layer_62">
</g>
<g id="Layer_63">
</g>
<g id="Layer_64">
</g>
<g id="Layer_65">
</g>
<g id="Layer_66">
</g>
<g id="Layer_67">
</g>
<g id="Layer_68">
</g>
<g id="Layer_69">
</g>
<g id="Layer_70">
</g>
<g id="Layer_71">
</g>
<g id="Layer_72">
</g>
<g id="Layer_73">
</g>
<g id="Layer_74">
</g>
<g id="Layer_75">
</g>
<g id="Layer_76">
</g>
<g id="Layer_77">
</g>
<g id="Layer_78">
</g>
<g id="Layer_79">
</g>
<g id="Layer_80">
</g>
</svg>
