<?xml version="1.0" encoding="utf-8"?>
<!-- Generator: Adobe Illustrator 21.1.0, SVG Export Plug-In . SVG Version: 6.00 Build 0)  -->
<svg version="1.1" id="Icon_Set" xmlns="http://www.w3.org/2000/svg" xmlns:xlink="http://www.w3.org/1999/xlink" x="0px" y="0px"
	 viewBox="0 0 64 64" style="enable-background:new 0 0 64 64;" xml:space="preserve">
<style type="text/css">
	.st0{fill:#263238;}
	.st1{fill:#40C4FF;}
	.st2{fill:#FFD740;}
	.st3{fill:#FF5252;}
	.st4{fill:#4DB6AC;}
	.st5{fill:#FFFFFF;}
	.st6{fill:#4FC3F7;}
</style>
<g id="Anti_Money_Laundering">
	<g>
		<path class="st0" d="M56,12.5H17c-0.276,0-0.5-0.224-0.5-0.5s0.224-0.5,0.5-0.5h39c0.276,0,0.5,0.224,0.5,0.5S56.276,12.5,56,12.5
			z"/>
	</g>
	<g>
		<path class="st0" d="M47,10h-6c-0.276,0-0.5-0.224-0.5-0.5v-3C40.5,6.224,40.724,6,41,6h6c0.276,0,0.5,0.224,0.5,0.5v3
			C47.5,9.776,47.276,10,47,10z M41.5,9h5V7h-5V9z"/>
	</g>
	<g>
		<path class="st0" d="M51.5,10c-1.103,0-2-0.897-2-2s0.897-2,2-2s2,0.897,2,2S52.603,10,51.5,10z M51.5,7c-0.551,0-1,0.448-1,1
			s0.449,1,1,1s1-0.448,1-1S52.051,7,51.5,7z"/>
	</g>
	<g>
		<path class="st0" d="M53.5,51.5h-31c-0.276,0-0.5-0.224-0.5-0.5s0.224-0.5,0.5-0.5h31c1.103,0,2-0.897,2-2v-42
			c0-1.103-0.897-2-2-2h-34c-1.103,0-2,0.897-2,2v21.489c0,0.276-0.224,0.5-0.5,0.5s-0.5-0.224-0.5-0.5V6.5c0-1.654,1.346-3,3-3h34
			c1.654,0,3,1.346,3,3v42C56.5,50.154,55.154,51.5,53.5,51.5z"/>
	</g>
	<g>
		<path class="st0" d="M20.5,53.5c-0.276,0-0.5-0.224-0.5-0.5v-2.136c0-1.469,0.572-2.85,1.611-3.89l3.23-3.229
			c0.26-0.26,0.392-0.619,0.362-0.985c-0.03-0.372-0.217-0.699-0.525-0.922c-0.485-0.35-1.204-0.261-1.671,0.205l-2.153,2.153
			c-0.143,0.144-0.357,0.186-0.545,0.108C20.122,44.228,20,44.045,20,43.843V32.895c0-0.66-0.445-1.23-1.036-1.327
			c-0.375-0.06-0.739,0.038-1.023,0.28c-0.28,0.238-0.441,0.586-0.441,0.953c0,0.276-0.224,0.5-0.5,0.5s-0.5-0.224-0.5-0.5v-1.406
			c0-0.66-0.445-1.23-1.036-1.327c-0.375-0.06-0.739,0.039-1.023,0.28C14.161,30.586,14,30.934,14,31.301v1.5
			c0,0.276-0.224,0.5-0.5,0.5s-0.5-0.224-0.5-0.5c0-0.367-0.161-0.715-0.44-0.953c-0.284-0.242-0.648-0.343-1.023-0.28
			c-0.591,0.097-1.036,0.667-1.036,1.327v0.906c0,0.276-0.224,0.5-0.5,0.5s-0.5-0.224-0.5-0.5c0-0.367-0.161-0.715-0.44-0.953
			c-0.284-0.242-0.647-0.341-1.023-0.28C7.445,32.664,7,33.234,7,33.895v11.078c0,1.882,0.552,3.704,1.596,5.27l0.32,0.48
			C8.971,50.805,9,50.901,9,51v2c0,0.276-0.224,0.5-0.5,0.5S8,53.276,8,53v-1.849l-0.236-0.354C6.61,49.066,6,47.053,6,44.973
			V33.895c0-1.146,0.807-2.141,1.876-2.313c0.638-0.104,1.282,0.064,1.778,0.461c0.283-0.755,0.931-1.333,1.722-1.461
			c0.583-0.099,1.175,0.038,1.652,0.367c0.083-0.527,0.352-1.012,0.766-1.363c0.504-0.428,1.174-0.611,1.832-0.504
			c0.93,0.151,1.661,0.924,1.835,1.876c0.48-0.336,1.076-0.472,1.665-0.376C20.194,30.756,21,31.75,21,32.895v9.741l1.3-1.3
			c0.809-0.811,2.083-0.943,2.962-0.309c0.542,0.391,0.884,0.992,0.938,1.651c0.053,0.659-0.184,1.306-0.652,1.773l-3.23,3.229
			C21.468,48.532,21,49.663,21,50.864V53C21,53.276,20.776,53.5,20.5,53.5z"/>
	</g>
	<g>
		<path class="st0" d="M17,38.301c-0.276,0-0.5-0.224-0.5-0.5v-5c0-0.276,0.224-0.5,0.5-0.5s0.5,0.224,0.5,0.5v5
			C17.5,38.077,17.276,38.301,17,38.301z"/>
	</g>
	<g>
		<path class="st0" d="M13.5,38.301c-0.276,0-0.5-0.224-0.5-0.5v-5c0-0.276,0.224-0.5,0.5-0.5s0.5,0.224,0.5,0.5v5
			C14,38.077,13.776,38.301,13.5,38.301z"/>
	</g>
	<g>
		<path class="st0" d="M10,38.301c-0.276,0-0.5-0.224-0.5-0.5v-4c0-0.276,0.224-0.5,0.5-0.5s0.5,0.224,0.5,0.5v4
			C10.5,38.077,10.276,38.301,10,38.301z"/>
	</g>
	<g>
		<path class="st1" d="M21,60H8c-0.552,0-1-0.448-1-1v-3c0-0.552,0.448-1,1-1h13c0.552,0,1,0.448,1,1v3C22,59.552,21.552,60,21,60z"
			/>
		<path class="st0" d="M21,60.5H8c-0.827,0-1.5-0.673-1.5-1.5v-3c0-0.827,0.673-1.5,1.5-1.5h13c0.827,0,1.5,0.673,1.5,1.5v3
			C22.5,59.827,21.827,60.5,21,60.5z M8,55.5c-0.276,0-0.5,0.225-0.5,0.5v3c0,0.275,0.224,0.5,0.5,0.5h13c0.276,0,0.5-0.225,0.5-0.5
			v-3c0-0.275-0.224-0.5-0.5-0.5H8z"/>
	</g>
	<g>
		<path class="st0" d="M36.5,41C30.159,41,25,35.841,25,29.5S30.159,18,36.5,18S48,23.159,48,29.5S42.841,41,36.5,41z M36.5,19
			C30.71,19,26,23.71,26,29.5S30.71,40,36.5,40S47,35.29,47,29.5S42.29,19,36.5,19z"/>
	</g>
	<g>
		<path class="st4" d="M46.342,34.392c-1.067,2.142-2.808,3.883-4.95,4.95L45.55,43.5l4.95-4.95L46.342,34.392z"/>
		<path class="st0" d="M45.55,44c-0.128,0-0.256-0.049-0.354-0.146l-4.159-4.158c-0.114-0.113-0.166-0.275-0.14-0.434
			c0.026-0.159,0.127-0.296,0.271-0.367c2.034-1.014,3.712-2.691,4.726-4.726c0.072-0.145,0.208-0.245,0.367-0.271
			c0.158-0.03,0.32,0.025,0.434,0.14l4.158,4.159c0.195,0.195,0.195,0.512,0,0.707l-4.95,4.949C45.806,43.951,45.678,44,45.55,44z
			 M42.221,39.464l3.33,3.329l4.243-4.242l-3.329-3.33C45.452,36.977,43.976,38.452,42.221,39.464z"/>
	</g>
	<g>
		<path class="st4" d="M47.254,31.804c-0.525,2.459-1.868,4.615-3.735,6.164L45.55,40l4.95-4.95L47.254,31.804z"/>
		<path class="st0" d="M45.55,40.5c-0.128,0-0.256-0.049-0.354-0.146l-2.032-2.031c-0.1-0.1-0.152-0.236-0.146-0.377
			s0.072-0.271,0.18-0.361c1.811-1.503,3.077-3.593,3.566-5.884c0.038-0.179,0.171-0.323,0.347-0.375
			c0.178-0.05,0.366-0.002,0.496,0.126l3.246,3.246C50.947,34.791,51,34.918,51,35.051s-0.053,0.26-0.146,0.354l-4.95,4.949
			C45.806,40.451,45.678,40.5,45.55,40.5z M44.25,37.994l1.3,1.299l4.243-4.242l-2.272-2.272
			C46.927,34.771,45.792,36.585,44.25,37.994z"/>
	</g>
	<g>
		<circle class="st4" cx="36.5" cy="29.5" r="8"/>
		<path class="st0" d="M36.5,38c-4.687,0-8.5-3.813-8.5-8.5s3.813-8.5,8.5-8.5s8.5,3.813,8.5,8.5S41.187,38,36.5,38z M36.5,22
			c-4.136,0-7.5,3.364-7.5,7.5s3.364,7.5,7.5,7.5s7.5-3.364,7.5-7.5S40.636,22,36.5,22z"/>
	</g>
	<g>
		<path class="st0" d="M37.25,33.5H34c-0.276,0-0.5-0.224-0.5-0.5s0.224-0.5,0.5-0.5h3.25c0.689,0,1.25-0.561,1.25-1.25
			S37.939,30,37.25,30h-1.5c-1.241,0-2.25-1.01-2.25-2.25s1.009-2.25,2.25-2.25h2.75c0.276,0,0.5,0.224,0.5,0.5s-0.224,0.5-0.5,0.5
			h-2.75c-0.689,0-1.25,0.561-1.25,1.25S35.061,29,35.75,29h1.5c1.241,0,2.25,1.01,2.25,2.25S38.491,33.5,37.25,33.5z"/>
	</g>
	<g>
		<path class="st0" d="M36.5,26.5c-0.276,0-0.5-0.224-0.5-0.5v-1.5c0-0.276,0.224-0.5,0.5-0.5s0.5,0.224,0.5,0.5V26
			C37,26.276,36.776,26.5,36.5,26.5z"/>
	</g>
	<g>
		<path class="st0" d="M36.5,35c-0.276,0-0.5-0.224-0.5-0.5V33c0-0.276,0.224-0.5,0.5-0.5S37,32.724,37,33v1.5
			C37,34.776,36.776,35,36.5,35z"/>
	</g>
	<g>
		<circle class="st3" cx="14" cy="18.13" r="7.5"/>
	</g>
	<g>
		<path class="st0" d="M11,21.63c-0.128,0-0.256-0.049-0.354-0.146c-0.195-0.195-0.195-0.512,0-0.707l6-6
			c0.195-0.195,0.512-0.195,0.707,0s0.195,0.512,0,0.707l-6,6C11.256,21.581,11.128,21.63,11,21.63z"/>
	</g>
	<g>
		<path class="st0" d="M17,21.63c-0.128,0-0.256-0.049-0.354-0.146l-6-6c-0.195-0.195-0.195-0.512,0-0.707s0.512-0.195,0.707,0l6,6
			c0.195,0.195,0.195,0.512,0,0.707C17.256,21.581,17.128,21.63,17,21.63z"/>
	</g>
	<g>
		<path class="st0" d="M49.5,58.5h-1c-0.276,0-0.5-0.224-0.5-0.5s0.224-0.5,0.5-0.5h1c0.276,0,0.5,0.224,0.5,0.5
			S49.776,58.5,49.5,58.5z"/>
	</g>
	<g>
		<path class="st0" d="M46.5,58.5h-15c-0.276,0-0.5-0.224-0.5-0.5s0.224-0.5,0.5-0.5h15c0.276,0,0.5,0.224,0.5,0.5
			S46.776,58.5,46.5,58.5z"/>
	</g>
	<g>
		<path class="st0" d="M40.5,55.5h-1c-0.276,0-0.5-0.224-0.5-0.5s0.224-0.5,0.5-0.5h1c0.276,0,0.5,0.224,0.5,0.5
			S40.776,55.5,40.5,55.5z"/>
	</g>
	<g>
		<path class="st0" d="M57.5,55.5h-15c-0.276,0-0.5-0.224-0.5-0.5s0.224-0.5,0.5-0.5h15c0.276,0,0.5,0.224,0.5,0.5
			S57.776,55.5,57.5,55.5z"/>
	</g>
</g>
</svg>
