<?xml version="1.0" encoding="utf-8"?>
<!-- Generator: Adobe Illustrator 21.1.0, SVG Export Plug-In . SVG Version: 6.00 Build 0)  -->
<svg version="1.1" id="Icon_Set" xmlns="http://www.w3.org/2000/svg" xmlns:xlink="http://www.w3.org/1999/xlink" x="0px" y="0px"
	 viewBox="0 0 64 64" style="enable-background:new 0 0 64 64;" xml:space="preserve">
<style type="text/css">
	.st0{fill:#263238;}
	.st1{fill:#40C4FF;}
	.st2{fill:#FFD740;}
	.st3{fill:#FF5252;}
	.st4{fill:#4DB6AC;}
	.st5{fill:#FFFFFF;}
	.st6{fill:#4FC3F7;}
</style>
<g id="Assets">
	<g>
		<path class="st0" d="M18.5,61.5h-4c-1.654,0-3-1.346-3-3V57c0-0.276,0.224-0.5,0.5-0.5s0.5,0.224,0.5,0.5v1.5c0,1.103,0.897,2,2,2
			h4c1.103,0,2-0.897,2-2V57c0-0.276,0.224-0.5,0.5-0.5s0.5,0.224,0.5,0.5v1.5C21.5,60.154,20.154,61.5,18.5,61.5z"/>
	</g>
	<g>
		<path class="st0" d="M47.5,61.5h-4c-1.654,0-3-1.346-3-3V57c0-0.276,0.224-0.5,0.5-0.5s0.5,0.224,0.5,0.5v1.5c0,1.103,0.897,2,2,2
			h4c1.103,0,2-0.897,2-2V57c0-0.276,0.224-0.5,0.5-0.5s0.5,0.224,0.5,0.5v1.5C50.5,60.154,49.154,61.5,47.5,61.5z"/>
	</g>
	<g>
		<path class="st2" d="M47.763,55H14.237c-3.033,0-5.368-2.679-4.953-5.683l0.621-4.5c0.341-2.474,2.456-4.317,4.953-4.317h32.285
			c2.497,0,4.612,1.843,4.953,4.317l0.621,4.5C53.131,52.321,50.796,55,47.763,55z"/>
		<path class="st0" d="M47.763,55.5H14.237c-1.59,0-3.101-0.688-4.146-1.886s-1.52-2.79-1.302-4.365l0.621-4.5
			C9.782,42.042,12.125,40,14.858,40h32.285c2.732,0,5.074,2.042,5.448,4.749l0.62,4.5c0.218,1.575-0.257,3.166-1.301,4.365
			C50.865,54.812,49.354,55.5,47.763,55.5z M14.858,41c-2.236,0-4.153,1.67-4.458,3.885l-0.621,4.5
			c-0.177,1.289,0.211,2.591,1.066,3.571c0.855,0.981,2.091,1.543,3.392,1.543h33.526c1.302,0,2.538-0.562,3.394-1.544
			c0.854-0.981,1.242-2.282,1.064-3.571l-0.62-4.5C51.294,42.67,49.378,41,47.143,41H14.858z"/>
	</g>
	<g>
		<path class="st0" d="M48.5,41h-35c-0.178,0-0.343-0.095-0.433-0.249c-0.089-0.154-0.09-0.344-0.001-0.499l4.561-7.98
			c0.977-1.709,2.807-2.771,4.775-2.771h17.197c1.969,0,3.799,1.062,4.775,2.771l4.561,7.98c0.088,0.155,0.087,0.345-0.002,0.499
			C48.843,40.905,48.679,41,48.5,41z M14.362,40h33.277l-4.134-7.232c-0.798-1.399-2.295-2.268-3.906-2.268H22.402
			c-1.611,0-3.108,0.869-3.907,2.268L14.362,40z"/>
	</g>
	<g>
		<path class="st0" d="M10.5,41H8c-0.827,0-1.5-0.673-1.5-1.5V37c0-0.827,0.673-1.5,1.5-1.5h2.495c1.417,0,2.621,0.966,2.929,2.349
			c0.06,0.27-0.11,0.537-0.38,0.597c-0.268,0.059-0.536-0.11-0.597-0.38c-0.205-0.922-1.008-1.566-1.952-1.566H8
			c-0.276,0-0.5,0.224-0.5,0.5v2.5C7.5,39.776,7.724,40,8,40h2.5c0.276,0,0.5,0.224,0.5,0.5S10.777,41,10.5,41z"/>
	</g>
	<g>
		<path class="st0" d="M54,41h-2.5c-0.276,0-0.5-0.224-0.5-0.5s0.224-0.5,0.5-0.5H54c0.275,0,0.5-0.224,0.5-0.5V37
			c0-0.276-0.225-0.5-0.5-0.5h-2.494c-0.944,0-1.748,0.644-1.952,1.566c-0.06,0.269-0.324,0.441-0.597,0.38
			c-0.27-0.06-0.439-0.327-0.38-0.597c0.308-1.383,1.512-2.349,2.929-2.349H54c0.827,0,1.5,0.673,1.5,1.5v2.5
			C55.5,40.327,54.827,41,54,41z"/>
	</g>
	<g>
		<path class="st0" d="M47.5,48.25h-33c-0.276,0-0.5-0.224-0.5-0.5v-2.148c0-1.961,0.718-3.849,2.021-5.315l0.105-0.119
			C16.221,40.061,16.357,40,16.5,40h29c0.143,0,0.279,0.061,0.374,0.168l0.105,0.119C47.282,41.752,48,43.64,48,45.602v2.148
			C48,48.026,47.776,48.25,47.5,48.25z M15,47.25h32v-1.648c0-1.695-0.612-3.326-1.725-4.602h-28.55
			C15.612,42.276,15,43.907,15,45.602V47.25z"/>
	</g>
	<g>
		<circle class="st5" cx="45.5" cy="47.75" r="3"/>
		<path class="st0" d="M45.5,51.25c-1.93,0-3.5-1.57-3.5-3.5s1.57-3.5,3.5-3.5s3.5,1.57,3.5,3.5S47.43,51.25,45.5,51.25z
			 M45.5,45.25c-1.379,0-2.5,1.122-2.5,2.5s1.121,2.5,2.5,2.5s2.5-1.122,2.5-2.5S46.879,45.25,45.5,45.25z"/>
	</g>
	<g>
		<circle class="st5" cx="16.5" cy="47.75" r="3"/>
		<path class="st0" d="M16.5,51.25c-1.93,0-3.5-1.57-3.5-3.5s1.57-3.5,3.5-3.5s3.5,1.57,3.5,3.5S18.43,51.25,16.5,51.25z
			 M16.5,45.25c-1.378,0-2.5,1.122-2.5,2.5s1.122,2.5,2.5,2.5s2.5-1.122,2.5-2.5S17.878,45.25,16.5,45.25z"/>
	</g>
	<g>
		<path class="st5" d="M37,55H25v-3c0-0.552,0.448-1,1-1h10c0.552,0,1,0.448,1,1V55z"/>
		<path class="st0" d="M37,55.5H25c-0.276,0-0.5-0.224-0.5-0.5v-3c0-0.827,0.673-1.5,1.5-1.5h10c0.827,0,1.5,0.673,1.5,1.5v3
			C37.5,55.276,37.276,55.5,37,55.5z M25.5,54.5h11V52c0-0.276-0.225-0.5-0.5-0.5H26c-0.276,0-0.5,0.224-0.5,0.5V54.5z"/>
	</g>
	<g>
		<path class="st0" d="M59,61.5h-7c-0.276,0-0.5-0.224-0.5-0.5s0.224-0.5,0.5-0.5h6.5v-53h-32V28c0,0.276-0.224,0.5-0.5,0.5
			s-0.5-0.224-0.5-0.5V7c0-0.276,0.224-0.5,0.5-0.5h33c0.276,0,0.5,0.224,0.5,0.5v54C59.5,61.276,59.276,61.5,59,61.5z"/>
	</g>
	<g>
		<path class="st0" d="M61,7.5H24c-0.276,0-0.5-0.224-0.5-0.5V3c0-0.276,0.224-0.5,0.5-0.5h37c0.276,0,0.5,0.224,0.5,0.5v4
			C61.5,7.276,61.276,7.5,61,7.5z M24.5,6.5h36v-3h-36V6.5z"/>
	</g>
	<g>
		<rect x="30" y="11" class="st1" width="6" height="6"/>
		<path class="st0" d="M36,17.5h-6c-0.276,0-0.5-0.224-0.5-0.5v-6c0-0.276,0.224-0.5,0.5-0.5h6c0.276,0,0.5,0.224,0.5,0.5v6
			C36.5,17.276,36.276,17.5,36,17.5z M30.5,16.5h5v-5h-5V16.5z"/>
	</g>
	<g>
		<path class="st0" d="M45.5,17.5h-6c-0.276,0-0.5-0.224-0.5-0.5v-6c0-0.276,0.224-0.5,0.5-0.5h6c0.276,0,0.5,0.224,0.5,0.5v6
			C46,17.276,45.776,17.5,45.5,17.5z M40,16.5h5v-5h-5V16.5z"/>
	</g>
	<g>
		<rect x="49" y="11" class="st1" width="6" height="6"/>
		<path class="st0" d="M55,17.5h-6c-0.276,0-0.5-0.224-0.5-0.5v-6c0-0.276,0.224-0.5,0.5-0.5h6c0.276,0,0.5,0.224,0.5,0.5v6
			C55.5,17.276,55.276,17.5,55,17.5z M49.5,16.5h5v-5h-5V16.5z"/>
	</g>
	<g>
		<path class="st0" d="M36,27.5h-6c-0.276,0-0.5-0.224-0.5-0.5v-6c0-0.276,0.224-0.5,0.5-0.5h6c0.276,0,0.5,0.224,0.5,0.5v6
			C36.5,27.276,36.276,27.5,36,27.5z M30.5,26.5h5v-5h-5V26.5z"/>
	</g>
	<g>
		<rect x="39.5" y="21" class="st1" width="6" height="6"/>
		<path class="st0" d="M45.5,27.5h-6c-0.276,0-0.5-0.224-0.5-0.5v-6c0-0.276,0.224-0.5,0.5-0.5h6c0.276,0,0.5,0.224,0.5,0.5v6
			C46,27.276,45.776,27.5,45.5,27.5z M40,26.5h5v-5h-5V26.5z"/>
	</g>
	<g>
		<path class="st0" d="M55,27.5h-6c-0.276,0-0.5-0.224-0.5-0.5v-6c0-0.276,0.224-0.5,0.5-0.5h6c0.276,0,0.5,0.224,0.5,0.5v6
			C55.5,27.276,55.276,27.5,55,27.5z M49.5,26.5h5v-5h-5V26.5z"/>
	</g>
	<g>
		<path class="st6" d="M5,14.752c0-1.105,0.895-2,2-2s2,0.895,2,2c1.105,0,2,0.895,2,2s-0.895,2-2,2H5c-1.105,0-2-0.895-2-2
			S3.895,14.752,5,14.752z"/>
	</g>
	<g>
		<path class="st6" d="M14.5,23c0-1.105,0.895-2,2-2s2,0.895,2,2c1.105,0,2,0.895,2,2s-0.895,2-2,2h-4c-1.105,0-2-0.895-2-2
			S13.395,23,14.5,23z"/>
	</g>
</g>
</svg>
