<?xml version="1.0" encoding="utf-8"?>
<!-- Generator: Adobe Illustrator 21.1.0, SVG Export Plug-In . SVG Version: 6.00 Build 0)  -->
<svg version="1.1" id="Icon_Set" xmlns="http://www.w3.org/2000/svg" xmlns:xlink="http://www.w3.org/1999/xlink" x="0px" y="0px"
	 viewBox="0 0 64 64" style="enable-background:new 0 0 64 64;" xml:space="preserve">
<style type="text/css">
	.st0{fill:#263238;}
	.st1{fill:#40C4FF;}
	.st2{fill:#FFD740;}
	.st3{fill:#FF5252;}
	.st4{fill:#4DB6AC;}
	.st5{fill:#FFFFFF;}
	.st6{fill:#4FC3F7;}
</style>
<g id="Asymmetric_Key">
	<g>
		<path class="st0" d="M36.5,56.5h-31c-1.654,0-3-1.346-3-3v-43c0-1.654,1.346-3,3-3h31c1.654,0,3,1.346,3,3V39
			c0,0.276-0.224,0.5-0.5,0.5s-0.5-0.224-0.5-0.5V10.5c0-1.103-0.897-2-2-2h-31c-1.103,0-2,0.897-2,2v43c0,1.103,0.897,2,2,2h31
			c1.103,0,2-0.897,2-2V51c0-0.276,0.224-0.5,0.5-0.5s0.5,0.224,0.5,0.5v2.5C39.5,55.154,38.155,56.5,36.5,56.5z"/>
	</g>
	<g>
		<path class="st0" d="M35.5,45h-15c-0.276,0-0.5-0.224-0.5-0.5s0.224-0.5,0.5-0.5h15c0.276,0,0.5,0.224,0.5,0.5S35.777,45,35.5,45z
			"/>
	</g>
	<g>
		<path class="st2" d="M47,37c-4.418,0-8,3.582-8,8s3.582,8,8,8s8-3.582,8-8S51.419,37,47,37z M50,47c-1.105,0-2-0.896-2-2
			s0.895-2,2-2s2,0.896,2,2S51.105,47,50,47z"/>
		<path class="st0" d="M47,53.5c-4.687,0-8.5-3.813-8.5-8.5s3.813-8.5,8.5-8.5s8.5,3.813,8.5,8.5S51.688,53.5,47,53.5z M47,37.5
			c-4.136,0-7.5,3.364-7.5,7.5s3.364,7.5,7.5,7.5s7.5-3.364,7.5-7.5S51.136,37.5,47,37.5z M50,47.5c-1.378,0-2.5-1.121-2.5-2.5
			s1.122-2.5,2.5-2.5s2.5,1.121,2.5,2.5S51.379,47.5,50,47.5z M50,43.5c-0.827,0-1.5,0.673-1.5,1.5s0.673,1.5,1.5,1.5
			s1.5-0.673,1.5-1.5S50.828,43.5,50,43.5z"/>
	</g>
	<g>
		<path class="st0" d="M30.5,49.5c-0.112,0-0.222-0.037-0.312-0.109L28,47.641l-2.188,1.75c-0.089,0.07-0.199,0.109-0.312,0.109H23
			c-0.182,0-0.349-0.099-0.437-0.257l-2.5-4.5c-0.085-0.153-0.084-0.34,0.003-0.491l2-3.5c0.089-0.156,0.255-0.252,0.434-0.252
			H40.08c0.179,0,0.344,0.096,0.433,0.25c0.089,0.155,0.089,0.346,0,0.501C39.851,42.394,39.5,43.689,39.5,45
			s0.35,2.606,1.012,3.749c0.09,0.155,0.09,0.346,0,0.501c-0.089,0.154-0.254,0.25-0.433,0.25H35.5
			c-0.063,0-0.126-0.012-0.186-0.036L33,48.538l-2.314,0.926C30.626,49.488,30.563,49.5,30.5,49.5z M35.597,48.5h3.664
			c-0.499-1.1-0.76-2.295-0.76-3.5s0.261-2.4,0.76-3.5h-16.47l-1.716,3.004l2.221,3.996h2.03l2.363-1.891
			c0.183-0.146,0.442-0.146,0.625,0l2.272,1.818l2.229-0.892c0.119-0.049,0.252-0.049,0.371,0L35.597,48.5z"/>
	</g>
	<g>
		<path class="st0" d="M47,34.5c-0.276,0-0.5-0.224-0.5-0.5v-3c0-0.276,0.224-0.5,0.5-0.5s0.5,0.224,0.5,0.5v3
			C47.5,34.276,47.277,34.5,47,34.5z"/>
	</g>
	<g>
		<path class="st0" d="M47,59.5c-0.276,0-0.5-0.224-0.5-0.5v-3c0-0.276,0.224-0.5,0.5-0.5s0.5,0.224,0.5,0.5v3
			C47.5,59.276,47.277,59.5,47,59.5z"/>
	</g>
	<g>
		<path class="st0" d="M54.779,37.722c-0.128,0-0.256-0.049-0.354-0.146c-0.195-0.195-0.195-0.512,0-0.707l2.121-2.121
			c0.195-0.195,0.512-0.195,0.707,0s0.195,0.512,0,0.707l-2.121,2.121C55.035,37.673,54.907,37.722,54.779,37.722z"/>
	</g>
	<g>
		<path class="st0" d="M56.9,55.399c-0.128,0-0.256-0.049-0.354-0.146l-2.121-2.121c-0.195-0.195-0.195-0.512,0-0.707
			s0.512-0.195,0.707,0l2.121,2.121c0.195,0.195,0.195,0.512,0,0.707C57.156,55.351,57.028,55.399,56.9,55.399z"/>
	</g>
	<g>
		<path class="st0" d="M61,45.5h-3c-0.276,0-0.5-0.224-0.5-0.5s0.224-0.5,0.5-0.5h3c0.276,0,0.5,0.224,0.5,0.5S61.277,45.5,61,45.5z
			"/>
	</g>
	<g>
		<path class="st0" d="M33,16.5H9c-0.276,0-0.5-0.224-0.5-0.5s0.224-0.5,0.5-0.5h24c0.276,0,0.5,0.224,0.5,0.5S33.277,16.5,33,16.5z
			"/>
	</g>
	<g>
		<path class="st0" d="M33,21.5H9c-0.276,0-0.5-0.224-0.5-0.5s0.224-0.5,0.5-0.5h24c0.276,0,0.5,0.224,0.5,0.5S33.277,21.5,33,21.5z
			"/>
	</g>
	<g>
		<path class="st0" d="M33,26.5H9c-0.276,0-0.5-0.224-0.5-0.5s0.224-0.5,0.5-0.5h24c0.276,0,0.5,0.224,0.5,0.5S33.277,26.5,33,26.5z
			"/>
	</g>
	<g>
		<path class="st0" d="M33,31.5H9c-0.276,0-0.5-0.224-0.5-0.5s0.224-0.5,0.5-0.5h24c0.276,0,0.5,0.224,0.5,0.5S33.277,31.5,33,31.5z
			"/>
	</g>
	<g>
		<path class="st0" d="M33,36.5H9c-0.276,0-0.5-0.224-0.5-0.5s0.224-0.5,0.5-0.5h24c0.276,0,0.5,0.224,0.5,0.5S33.277,36.5,33,36.5z
			"/>
	</g>
	<g>
		<path class="st0" d="M18,41.5H9c-0.276,0-0.5-0.224-0.5-0.5s0.224-0.5,0.5-0.5h9c0.276,0,0.5,0.224,0.5,0.5S18.277,41.5,18,41.5z"
			/>
	</g>
	<g>
		<path class="st0" d="M58.75,7.5h-4c-0.276,0-0.5-0.224-0.5-0.5s0.224-0.5,0.5-0.5h4c0.276,0,0.5,0.224,0.5,0.5
			S59.027,7.5,58.75,7.5z"/>
	</g>
	<g>
		<path class="st0" d="M56.75,9.5c-0.276,0-0.5-0.224-0.5-0.5V5c0-0.276,0.224-0.5,0.5-0.5s0.5,0.224,0.5,0.5v4
			C57.25,9.276,57.027,9.5,56.75,9.5z"/>
	</g>
	<g>
		<path class="st0" d="M50.75,14h-4c-0.276,0-0.5-0.224-0.5-0.5s0.224-0.5,0.5-0.5h4c0.276,0,0.5,0.224,0.5,0.5S51.027,14,50.75,14z
			"/>
	</g>
	<g>
		<path class="st0" d="M48.75,16c-0.276,0-0.5-0.224-0.5-0.5v-4c0-0.276,0.224-0.5,0.5-0.5s0.5,0.224,0.5,0.5v4
			C49.25,15.776,49.027,16,48.75,16z"/>
	</g>
</g>
</svg>
