<?xml version="1.0" encoding="utf-8"?>
<!-- Generator: Adobe Illustrator 21.1.0, SVG Export Plug-In . SVG Version: 6.00 Build 0)  -->
<svg version="1.1" id="Icon_Set" xmlns="http://www.w3.org/2000/svg" xmlns:xlink="http://www.w3.org/1999/xlink" x="0px" y="0px"
	 viewBox="0 0 64 64" style="enable-background:new 0 0 64 64;" xml:space="preserve">
<style type="text/css">
	.st0{fill:#263238;}
	.st1{fill:#40C4FF;}
	.st2{fill:#FFD740;}
	.st3{fill:#FF5252;}
	.st4{fill:#4DB6AC;}
	.st5{fill:#FFFFFF;}
	.st6{fill:#4FC3F7;}
</style>
<g id="ATM">
	<g>
		<path class="st4" d="M41,43.25v16c0,0.552-0.448,1-1,1H24c-0.552,0-1-0.448-1-1v-16"/>
		<path class="st0" d="M40,60.75H24c-0.827,0-1.5-0.673-1.5-1.5v-16c0-0.276,0.224-0.5,0.5-0.5s0.5,0.224,0.5,0.5v16
			c0,0.276,0.224,0.5,0.5,0.5h16c0.275,0,0.5-0.224,0.5-0.5v-16c0-0.276,0.224-0.5,0.5-0.5s0.5,0.224,0.5,0.5v16
			C41.5,60.077,40.827,60.75,40,60.75z"/>
	</g>
	<g>
		<path class="st5" d="M26.809,43.25c-0.512,0.883-0.809,1.906-0.809,3c0,3.314,2.686,6,6,6c3.314,0,6-2.686,6-6
			c0-1.094-0.298-2.117-0.809-3"/>
		<path class="st0" d="M32,52.75c-3.584,0-6.5-2.916-6.5-6.5c0-1.136,0.303-2.26,0.877-3.25c0.139-0.239,0.444-0.322,0.683-0.182
			c0.239,0.138,0.321,0.444,0.182,0.683c-0.485,0.838-0.742,1.789-0.742,2.75c0,3.033,2.467,5.5,5.5,5.5s5.5-2.467,5.5-5.5
			c0-0.96-0.257-1.911-0.742-2.75c-0.139-0.239-0.057-0.545,0.182-0.683c0.236-0.138,0.544-0.059,0.684,0.182
			c0.573,0.99,0.877,2.114,0.877,3.25C38.5,49.834,35.584,52.75,32,52.75z"/>
	</g>
	<g>
		<path class="st1" d="M44,31.333H20c-0.552,0-1-0.448-1-1v-18c0-0.552,0.448-1,1-1h24c0.552,0,1,0.448,1,1v18
			C45,30.886,44.552,31.333,44,31.333z"/>
		<path class="st0" d="M44,31.833H20c-0.827,0-1.5-0.673-1.5-1.5v-18c0-0.827,0.673-1.5,1.5-1.5h24c0.827,0,1.5,0.673,1.5,1.5v18
			C45.5,31.161,44.827,31.833,44,31.833z M20,11.833c-0.276,0-0.5,0.224-0.5,0.5v18c0,0.276,0.224,0.5,0.5,0.5h24
			c0.275,0,0.5-0.224,0.5-0.5v-18c0-0.276-0.225-0.5-0.5-0.5H20z"/>
	</g>
	<g>
		<path class="st0" d="M15,15.833h-5c-0.276,0-0.5-0.224-0.5-0.5v-3c0-0.276,0.224-0.5,0.5-0.5h5c0.276,0,0.5,0.224,0.5,0.5v3
			C15.5,15.61,15.276,15.833,15,15.833z M10.5,14.833h4v-2h-4V14.833z"/>
	</g>
	<g>
		<path class="st0" d="M15,23.333h-5c-0.276,0-0.5-0.224-0.5-0.5v-3c0-0.276,0.224-0.5,0.5-0.5h5c0.276,0,0.5,0.224,0.5,0.5v3
			C15.5,23.11,15.276,23.333,15,23.333z M10.5,22.333h4v-2h-4V22.333z"/>
	</g>
	<g>
		<path class="st0" d="M15,30.833h-5c-0.276,0-0.5-0.224-0.5-0.5v-3c0-0.276,0.224-0.5,0.5-0.5h5c0.276,0,0.5,0.224,0.5,0.5v3
			C15.5,30.61,15.276,30.833,15,30.833z M10.5,29.833h4v-2h-4V29.833z"/>
	</g>
	<g>
		<path class="st0" d="M54,15.833h-5c-0.276,0-0.5-0.224-0.5-0.5v-3c0-0.276,0.224-0.5,0.5-0.5h5c0.276,0,0.5,0.224,0.5,0.5v3
			C54.5,15.61,54.276,15.833,54,15.833z M49.5,14.833h4v-2h-4V14.833z"/>
	</g>
	<g>
		<path class="st0" d="M54,23.333h-5c-0.276,0-0.5-0.224-0.5-0.5v-3c0-0.276,0.224-0.5,0.5-0.5h5c0.276,0,0.5,0.224,0.5,0.5v3
			C54.5,23.11,54.276,23.333,54,23.333z M49.5,22.333h4v-2h-4V22.333z"/>
	</g>
	<g>
		<path class="st0" d="M54,30.833h-5c-0.276,0-0.5-0.224-0.5-0.5v-3c0-0.276,0.224-0.5,0.5-0.5h5c0.276,0,0.5,0.224,0.5,0.5v3
			C54.5,30.61,54.276,30.833,54,30.833z M49.5,29.833h4v-2h-4V29.833z"/>
	</g>
	<g>
		<path class="st0" d="M51.5,54.25H43c-0.276,0-0.5-0.224-0.5-0.5s0.224-0.5,0.5-0.5h8.5c1.103,0,2-0.897,2-2v-45
			c0-1.103-0.897-2-2-2h-39c-1.103,0-2,0.897-2,2v45c0,1.103,0.897,2,2,2H21c0.276,0,0.5,0.224,0.5,0.5s-0.224,0.5-0.5,0.5h-8.5
			c-1.654,0-3-1.346-3-3v-45c0-1.654,1.346-3,3-3h39c1.654,0,3,1.346,3,3v45C54.5,52.904,53.154,54.25,51.5,54.25z"/>
	</g>
	<g>
		<path class="st0" d="M44,46.75h-1c-0.276,0-0.5-0.224-0.5-0.5s0.224-0.5,0.5-0.5h1c0.275,0,0.5-0.224,0.5-0.5v-3
			c0-0.276-0.225-0.5-0.5-0.5H20c-0.276,0-0.5,0.224-0.5,0.5v3c0,0.276,0.224,0.5,0.5,0.5h1c0.276,0,0.5,0.224,0.5,0.5
			s-0.224,0.5-0.5,0.5h-1c-0.827,0-1.5-0.673-1.5-1.5v-3c0-0.827,0.673-1.5,1.5-1.5h24c0.827,0,1.5,0.673,1.5,1.5v3
			C45.5,46.077,44.827,46.75,44,46.75z"/>
	</g>
	<g>
		<path class="st0" d="M30.75,48.75C29.785,48.75,29,47.965,29,47v-2.75c0-0.276,0.224-0.5,0.5-0.5s0.5,0.224,0.5,0.5V47
			c0,0.414,0.336,0.75,0.75,0.75S31.5,47.414,31.5,47v-1.5c0-0.965,0.785-1.75,1.75-1.75c0.965,0,1.75,0.785,1.75,1.75v2.25
			c0,0.276-0.224,0.5-0.5,0.5s-0.5-0.224-0.5-0.5V45.5c0-0.414-0.337-0.75-0.75-0.75c-0.414,0-0.75,0.336-0.75,0.75V47
			C32.5,47.965,31.714,48.75,30.75,48.75z"/>
	</g>
	<g>
		<path class="st0" d="M36,46.75h-1.5c-0.276,0-0.5-0.224-0.5-0.5s0.224-0.5,0.5-0.5H36c0.276,0,0.5,0.224,0.5,0.5
			S36.276,46.75,36,46.75z"/>
	</g>
	<g>
		<path class="st0" d="M29.5,46.75H28c-0.276,0-0.5-0.224-0.5-0.5s0.224-0.5,0.5-0.5h1.5c0.276,0,0.5,0.224,0.5,0.5
			S29.776,46.75,29.5,46.75z"/>
	</g>
	<g>
		<path class="st0" d="M42,20.333c-0.276,0-0.5-0.224-0.5-0.5v-5h-5c-0.276,0-0.5-0.224-0.5-0.5s0.224-0.5,0.5-0.5H42
			c0.276,0,0.5,0.224,0.5,0.5v5.5C42.5,20.11,42.276,20.333,42,20.333z"/>
	</g>
	<g>
		<path class="st0" d="M36.5,38.333h-9c-0.276,0-0.5-0.224-0.5-0.5v-3c0-0.276,0.224-0.5,0.5-0.5h9c0.276,0,0.5,0.224,0.5,0.5v3
			C37,38.11,36.776,38.333,36.5,38.333z M28,37.333h8v-2h-8V37.333z"/>
	</g>
	<g>
		<path class="st0" d="M60,58.75h-1c-0.276,0-0.5-0.224-0.5-0.5s0.224-0.5,0.5-0.5h1c0.276,0,0.5,0.224,0.5,0.5
			S60.276,58.75,60,58.75z"/>
	</g>
	<g>
		<path class="st0" d="M57,58.75H46c-0.276,0-0.5-0.224-0.5-0.5s0.224-0.5,0.5-0.5h11c0.276,0,0.5,0.224,0.5,0.5
			S57.276,58.75,57,58.75z"/>
	</g>
	<g>
		<path class="st0" d="M5,58.75H4c-0.276,0-0.5-0.224-0.5-0.5s0.224-0.5,0.5-0.5h1c0.276,0,0.5,0.224,0.5,0.5S5.276,58.75,5,58.75z"
			/>
	</g>
	<g>
		<path class="st0" d="M18,58.75H7c-0.276,0-0.5-0.224-0.5-0.5s0.224-0.5,0.5-0.5h11c0.276,0,0.5,0.224,0.5,0.5
			S18.276,58.75,18,58.75z"/>
	</g>
</g>
</svg>
