<?xml version="1.0" encoding="utf-8"?>
<!-- Generator: Adobe Illustrator 21.1.0, SVG Export Plug-In . SVG Version: 6.00 Build 0)  -->
<svg version="1.1" id="Icon_Set" xmlns="http://www.w3.org/2000/svg" xmlns:xlink="http://www.w3.org/1999/xlink" x="0px" y="0px"
	 viewBox="0 0 64 64" style="enable-background:new 0 0 64 64;" xml:space="preserve">
<style type="text/css">
	.st0{fill:#263238;}
	.st1{fill:#40C4FF;}
	.st2{fill:#FFD740;}
	.st3{fill:#FF5252;}
	.st4{fill:#4DB6AC;}
	.st5{fill:#FFFFFF;}
	.st6{fill:#4FC3F7;}
</style>
<g id="Attorney">
	<g>
		<path class="st2" d="M41,33H8.5C7.119,33,6,31.881,6,30.5v-3C6,26.119,7.119,25,8.5,25H41V33z"/>
		<path class="st0" d="M41,33.5H8.5c-1.654,0-3-1.346-3-3v-3c0-1.654,1.346-3,3-3H41c0.276,0,0.5,0.224,0.5,0.5v8
			C41.5,33.276,41.276,33.5,41,33.5z M8.5,25.5c-1.103,0-2,0.897-2,2v3c0,1.103,0.897,2,2,2h32v-7H8.5z"/>
	</g>
	<g>
		<path class="st0" d="M53,38.5H41c-0.276,0-0.5-0.224-0.5-0.5V20c0-0.276,0.224-0.5,0.5-0.5h12c0.276,0,0.5,0.224,0.5,0.5v18
			C53.5,38.276,53.276,38.5,53,38.5z M41.5,37.5h11v-17h-11V37.5z"/>
	</g>
	<g>
		<path class="st2" d="M53.5,20h-13c-0.552,0-1-0.448-1-1v-3c0-0.552,0.448-1,1-1h13c0.552,0,1,0.448,1,1v3
			C54.5,19.552,54.052,20,53.5,20z"/>
		<path class="st0" d="M53.5,20.5h-13c-0.827,0-1.5-0.673-1.5-1.5v-3c0-0.827,0.673-1.5,1.5-1.5h13c0.827,0,1.5,0.673,1.5,1.5v3
			C55,19.827,54.327,20.5,53.5,20.5z M40.5,15.5c-0.275,0-0.5,0.224-0.5,0.5v3c0,0.276,0.225,0.5,0.5,0.5h13
			c0.275,0,0.5-0.224,0.5-0.5v-3c0-0.276-0.225-0.5-0.5-0.5H40.5z"/>
	</g>
	<g>
		<path class="st2" d="M53.5,43h-13c-0.552,0-1-0.448-1-1v-3c0-0.552,0.448-1,1-1h13c0.552,0,1,0.448,1,1v3
			C54.5,42.552,54.052,43,53.5,43z"/>
		<path class="st0" d="M53.5,43.5h-13c-0.827,0-1.5-0.673-1.5-1.5v-3c0-0.827,0.673-1.5,1.5-1.5h13c0.827,0,1.5,0.673,1.5,1.5v3
			C55,42.827,54.327,43.5,53.5,43.5z M40.5,38.5c-0.275,0-0.5,0.224-0.5,0.5v3c0,0.276,0.225,0.5,0.5,0.5h13
			c0.275,0,0.5-0.224,0.5-0.5v-3c0-0.276-0.225-0.5-0.5-0.5H40.5z"/>
	</g>
	<g>
		<path class="st0" d="M54.5,18h-15c-0.276,0-0.5-0.224-0.5-0.5s0.224-0.5,0.5-0.5h15c0.276,0,0.5,0.224,0.5,0.5S54.776,18,54.5,18z
			"/>
	</g>
	<g>
		<path class="st0" d="M54.5,41h-15c-0.276,0-0.5-0.224-0.5-0.5s0.224-0.5,0.5-0.5h15c0.276,0,0.5,0.224,0.5,0.5S54.776,41,54.5,41z
			"/>
	</g>
	<g>
		<path class="st0" d="M36,33.5c-0.276,0-0.5-0.224-0.5-0.5v-8c0-0.276,0.224-0.5,0.5-0.5s0.5,0.224,0.5,0.5v8
			C36.5,33.276,36.276,33.5,36,33.5z"/>
	</g>
	<g>
		<path class="st0" d="M34,33.5c-0.276,0-0.5-0.224-0.5-0.5v-8c0-0.276,0.224-0.5,0.5-0.5s0.5,0.224,0.5,0.5v8
			C34.5,33.276,34.276,33.5,34,33.5z"/>
	</g>
	<g>
		<path class="st0" d="M58,57.5H36c-0.276,0-0.5-0.224-0.5-0.5v-2.5c0-1.654,1.346-3,3-3h17c1.654,0,3,1.346,3,3V57
			C58.5,57.276,58.276,57.5,58,57.5z M36.5,56.5h21v-2c0-1.103-0.897-2-2-2h-17c-1.103,0-2,0.897-2,2V56.5z"/>
	</g>
	<g>
		<path class="st0" d="M36,57.5H7.5C7.224,57.5,7,57.276,7,57s0.224-0.5,0.5-0.5H36c0.276,0,0.5,0.224,0.5,0.5S36.276,57.5,36,57.5z
			"/>
	</g>
	<g>
		<path class="st0" d="M47,49.5c-0.276,0-0.5-0.224-0.5-0.5v-3c0-0.276,0.224-0.5,0.5-0.5s0.5,0.224,0.5,0.5v3
			C47.5,49.276,47.276,49.5,47,49.5z"/>
	</g>
	<g>
		<path class="st0" d="M41,50.167c-0.128,0-0.256-0.049-0.354-0.146l-2-2c-0.195-0.195-0.195-0.512,0-0.707s0.512-0.195,0.707,0l2,2
			c0.195,0.195,0.195,0.512,0,0.707C41.256,50.118,41.128,50.167,41,50.167z"/>
	</g>
	<g>
		<path class="st0" d="M53,50.167c-0.128,0-0.256-0.049-0.354-0.146c-0.195-0.195-0.195-0.512,0-0.707l2-2
			c0.195-0.195,0.512-0.195,0.707,0s0.195,0.512,0,0.707l-2,2C53.256,50.118,53.128,50.167,53,50.167z"/>
	</g>
	<g>
		<path class="st0" d="M19.5,9.5h-4C15.224,9.5,15,9.276,15,9s0.224-0.5,0.5-0.5h4C19.776,8.5,20,8.724,20,9S19.776,9.5,19.5,9.5z"
			/>
	</g>
	<g>
		<path class="st0" d="M17.5,11.5c-0.276,0-0.5-0.224-0.5-0.5V7c0-0.276,0.224-0.5,0.5-0.5S18,6.724,18,7v4
			C18,11.276,17.776,11.5,17.5,11.5z"/>
	</g>
	<g>
		<path class="st0" d="M10,15.5H6c-0.276,0-0.5-0.224-0.5-0.5s0.224-0.5,0.5-0.5h4c0.276,0,0.5,0.224,0.5,0.5S10.276,15.5,10,15.5z"
			/>
	</g>
	<g>
		<path class="st0" d="M8,17.5c-0.276,0-0.5-0.224-0.5-0.5v-4c0-0.276,0.224-0.5,0.5-0.5s0.5,0.224,0.5,0.5v4
			C8.5,17.276,8.276,17.5,8,17.5z"/>
	</g>
	<g>
		<path class="st0" d="M13.5,36.5h-1c-0.276,0-0.5-0.224-0.5-0.5s0.224-0.5,0.5-0.5h1c0.276,0,0.5,0.224,0.5,0.5
			S13.776,36.5,13.5,36.5z"/>
	</g>
	<g>
		<path class="st0" d="M30.5,36.5h-15c-0.276,0-0.5-0.224-0.5-0.5s0.224-0.5,0.5-0.5h15c0.276,0,0.5,0.224,0.5,0.5
			S30.776,36.5,30.5,36.5z"/>
	</g>
	<g>
		<path class="st0" d="M30.5,22.5h-1c-0.276,0-0.5-0.224-0.5-0.5s0.224-0.5,0.5-0.5h1c0.276,0,0.5,0.224,0.5,0.5
			S30.776,22.5,30.5,22.5z"/>
	</g>
	<g>
		<path class="st0" d="M27.5,22.5h-15c-0.276,0-0.5-0.224-0.5-0.5s0.224-0.5,0.5-0.5h15c0.276,0,0.5,0.224,0.5,0.5
			S27.776,22.5,27.5,22.5z"/>
	</g>
</g>
</svg>
