<?xml version="1.0" encoding="utf-8"?>
<!-- Generator: Adobe Illustrator 21.1.0, SVG Export Plug-In . SVG Version: 6.00 Build 0)  -->
<svg version="1.1" id="Icon_Set" xmlns="http://www.w3.org/2000/svg" xmlns:xlink="http://www.w3.org/1999/xlink" x="0px" y="0px"
	 viewBox="0 0 64 64" style="enable-background:new 0 0 64 64;" xml:space="preserve">
<style type="text/css">
	.st0{fill:#263238;}
	.st1{fill:#40C4FF;}
	.st2{fill:#FFD740;}
	.st3{fill:#FF5252;}
	.st4{fill:#4DB6AC;}
	.st5{fill:#FFFFFF;}
	.st6{fill:#4FC3F7;}
</style>
<g id="B2B">
	<g>
		<path class="st0" d="M50,43.999c-4.687,0-8.5-3.813-8.5-8.5s3.813-8.5,8.5-8.5s8.5,3.813,8.5,8.5S54.687,43.999,50,43.999z
			 M50,27.999c-4.136,0-7.5,3.364-7.5,7.5s3.364,7.5,7.5,7.5s7.5-3.364,7.5-7.5S54.136,27.999,50,27.999z"/>
	</g>
	<g>
		<path class="st0" d="M42.755,35.999H42c-0.276,0-0.5-0.224-0.5-0.5c0-4.687,3.813-8.5,8.5-8.5c2.525,0,4.905,1.114,6.527,3.058
			c0.085,0.102,0.126,0.233,0.114,0.365c-0.012,0.133-0.076,0.255-0.179,0.34l-0.597,0.496
			C52.191,34.315,47.535,35.999,42.755,35.999z M42.517,34.999h0.238c4.547,0,8.977-1.602,12.473-4.511l0,0l0.198-0.165
			c-1.414-1.483-3.364-2.324-5.426-2.324C46.032,27.999,42.774,31.096,42.517,34.999z"/>
	</g>
	<g>
		<path class="st0" d="M43,62.004c-0.276,0-0.5-0.224-0.5-0.5v-7c0-0.276,0.224-0.5,0.5-0.5s0.5,0.224,0.5,0.5v7
			C43.5,61.78,43.276,62.004,43,62.004z"/>
	</g>
	<g>
		<path class="st0" d="M57,62.004c-0.276,0-0.5-0.224-0.5-0.5v-7c0-0.276,0.224-0.5,0.5-0.5s0.5,0.224,0.5,0.5v7
			C57.5,61.78,57.276,62.004,57,62.004z"/>
	</g>
	<g>
		<polygon class="st1" points="47.5,61 49.99,63.5 52.5,61 51,48.967 49,48.967 		"/>
		<path class="st0" d="M49.99,64L49.99,64c-0.134,0-0.261-0.053-0.354-0.147l-2.49-2.5c-0.108-0.108-0.161-0.262-0.142-0.414
			l1.5-12.033c0.031-0.251,0.244-0.438,0.496-0.438h2c0.252,0,0.465,0.188,0.496,0.438l1.5,12.033
			c0.02,0.153-0.034,0.307-0.144,0.416l-2.51,2.5C50.249,63.947,50.122,64,49.99,64z M48.026,60.82l1.965,1.973l1.982-1.975
			l-1.415-11.352h-1.117L48.026,60.82z"/>
	</g>
	<g>
		<path class="st0" d="M49.996,49.467C49.996,49.467,49.996,49.467,49.996,49.467H46.5c-0.143,0-0.277-0.061-0.373-0.167
			c-0.095-0.105-0.14-0.247-0.124-0.389l0.5-4.472c0.023-0.208,0.175-0.38,0.379-0.43c0.203-0.05,0.417,0.033,0.533,0.207
			l2.582,3.854l2.588-3.845c0.117-0.173,0.328-0.255,0.534-0.206c0.203,0.05,0.354,0.222,0.378,0.43l0.5,4.462
			c0.016,0.142-0.029,0.283-0.124,0.389c-0.095,0.106-0.23,0.167-0.373,0.167H49.996L49.996,49.467z M50.936,48.467h2.005
			l-0.286-2.554L50.936,48.467z M47.059,48.467h2.001l-1.715-2.559L47.059,48.467z"/>
	</g>
	<g>
		<path class="st0" d="M62,62.004c-0.276,0-0.5-0.224-0.5-0.5v-9.75c0-1.777-1.049-3.392-2.673-4.112l-6.03-2.68
			c-0.181-0.08-0.297-0.26-0.297-0.457v-0.886c-1.618,0.501-3.377,0.505-4.999,0.005l-0.001,0.87c0,0.197-0.116,0.376-0.297,0.457
			l-6.035,2.688c-1.62,0.723-2.668,2.336-2.668,4.11v9.754c0,0.276-0.224,0.5-0.5,0.5s-0.5-0.224-0.5-0.5V51.75
			c0-2.169,1.28-4.141,3.262-5.024l5.738-2.557l0.001-1.253c0-0.166,0.083-0.321,0.221-0.415c0.138-0.091,0.312-0.111,0.467-0.049
			c1.804,0.729,3.826,0.723,5.623-0.006c0.153-0.065,0.328-0.044,0.468,0.048c0.138,0.093,0.221,0.249,0.221,0.415v1.271
			l5.733,2.548c1.984,0.881,3.267,2.854,3.267,5.026v9.75C62.5,61.78,62.276,62.004,62,62.004z"/>
	</g>
	<g>
		<path class="st0" d="M14,17c-4.687,0-8.5-3.813-8.5-8.5S9.313,0,14,0s8.5,3.813,8.5,8.5S18.687,17,14,17z M14,1
			C9.864,1,6.5,4.364,6.5,8.5S9.864,16,14,16s7.5-3.364,7.5-7.5S18.136,1,14,1z"/>
	</g>
	<g>
		<path class="st0" d="M6.755,9H6C5.724,9,5.5,8.776,5.5,8.5C5.5,3.813,9.313,0,14,0c2.527,0,4.906,1.114,6.527,3.058
			c0.085,0.102,0.126,0.233,0.114,0.365c-0.012,0.133-0.076,0.255-0.178,0.34l-0.596,0.496C16.192,7.316,11.536,9,6.755,9z M6.517,8
			h0.239c4.547,0,8.977-1.602,12.472-4.511l0,0l0.199-0.165C18.013,1.841,16.062,1,14,1C10.033,1,6.775,4.097,6.517,8z"/>
	</g>
	<g>
		<path class="st0" d="M7,35.004c-0.276,0-0.5-0.224-0.5-0.5v-7c0-0.276,0.224-0.5,0.5-0.5s0.5,0.224,0.5,0.5v7
			C7.5,34.78,7.276,35.004,7,35.004z"/>
	</g>
	<g>
		<path class="st0" d="M21,35.004c-0.276,0-0.5-0.224-0.5-0.5v-7c0-0.276,0.224-0.5,0.5-0.5s0.5,0.224,0.5,0.5v7
			C21.5,34.78,21.276,35.004,21,35.004z"/>
	</g>
	<g>
		<polygon class="st1" points="11.5,34 13.99,36.5 16.5,34 15,21.968 13,21.968 		"/>
		<path class="st0" d="M13.99,37C13.99,37,13.99,37,13.99,37c-0.134,0-0.261-0.053-0.354-0.147l-2.49-2.5
			c-0.109-0.108-0.161-0.262-0.142-0.414l1.5-12.032c0.031-0.251,0.244-0.438,0.496-0.438h2c0.252,0,0.465,0.188,0.496,0.438
			l1.5,12.032c0.019,0.153-0.034,0.307-0.143,0.416l-2.51,2.5C14.25,36.947,14.123,37,13.99,37z M12.026,33.82l1.965,1.973
			l1.982-1.975l-1.415-11.351h-1.117L12.026,33.82z"/>
	</g>
	<g>
		<path class="st0" d="M13.996,22.468L13.996,22.468H10.5c-0.142,0-0.278-0.061-0.373-0.167c-0.095-0.105-0.14-0.247-0.125-0.389
			l0.5-4.473c0.023-0.209,0.175-0.38,0.378-0.43c0.204-0.05,0.417,0.033,0.534,0.207l2.581,3.854l2.588-3.846
			c0.117-0.173,0.33-0.256,0.534-0.206c0.204,0.05,0.354,0.222,0.378,0.43l0.5,4.463c0.016,0.142-0.029,0.283-0.125,0.389
			c-0.095,0.106-0.23,0.167-0.373,0.167H13.996L13.996,22.468z M14.936,21.468h2.005l-0.286-2.555L14.936,21.468z M11.059,21.468h2
			l-1.714-2.56L11.059,21.468z"/>
	</g>
	<g>
		<path class="st0" d="M26,35.004c-0.276,0-0.5-0.224-0.5-0.5v-9.75c0-1.776-1.049-3.391-2.673-4.112l-6.031-2.68
			c-0.181-0.08-0.297-0.26-0.297-0.457l0-0.886c-1.622,0.503-3.375,0.507-5,0.005l0,0.871c0,0.197-0.116,0.376-0.296,0.457
			l-6.034,2.688C3.547,21.362,2.5,22.976,2.5,24.751v9.753c0,0.276-0.224,0.5-0.5,0.5s-0.5-0.224-0.5-0.5v-9.753
			c0-2.17,1.28-4.143,3.262-5.024l5.737-2.556l0.001-1.255c0-0.166,0.083-0.321,0.22-0.415c0.139-0.091,0.314-0.11,0.467-0.049
			c1.809,0.73,3.824,0.727,5.625-0.006c0.155-0.064,0.329-0.044,0.468,0.048c0.138,0.094,0.221,0.249,0.221,0.415L17.5,17.18
			l5.734,2.548c1.984,0.883,3.267,2.855,3.267,5.026v9.75C26.5,34.78,26.276,35.004,26,35.004z"/>
	</g>
	<g>
		<path class="st2" d="M9,43.5l-6,6h3.5v2.5c0,5.523,4.477,10,10,10h9c0.552,0,1-0.448,1-1v-3c0-0.552-0.448-1-1-1h-9
			c-2.761,0-5-2.239-5-5v-2.5H15L9,43.5z"/>
		<path class="st0" d="M25.5,62.499h-9c-5.79,0-10.5-4.71-10.5-10.5V50H3c-0.202,0-0.385-0.122-0.462-0.309
			c-0.078-0.187-0.035-0.402,0.108-0.545l6-6c0.195-0.195,0.512-0.195,0.707,0l6,6c0.143,0.143,0.186,0.358,0.108,0.545
			C15.385,49.878,15.202,50,15,50h-3v1.999c0,2.481,2.019,4.5,4.5,4.5h9c0.827,0,1.5,0.673,1.5,1.5v3
			C27,61.826,26.327,62.499,25.5,62.499z M4.207,49H6.5C6.776,49,7,49.224,7,49.5v2.499c0,5.238,4.262,9.5,9.5,9.5h9
			c0.276,0,0.5-0.225,0.5-0.5v-3c0-0.275-0.224-0.5-0.5-0.5h-9c-3.033,0-5.5-2.468-5.5-5.5V49.5c0-0.276,0.224-0.5,0.5-0.5h2.293
			L9,44.207L4.207,49z"/>
	</g>
	<g>
		<path class="st2" d="M55,20.499l6-6h-3.5V12c0-5.523-4.477-10-10-10h-9c-0.552,0-1,0.448-1,1v3c0,0.552,0.448,1,1,1h9
			c2.761,0,5,2.239,5,5v2.5H49L55,20.499z"/>
		<path class="st0" d="M55,20.999c-0.128,0-0.256-0.049-0.354-0.146l-6-6c-0.143-0.143-0.186-0.358-0.108-0.545
			s0.26-0.309,0.462-0.309h3V12c0-2.481-2.019-4.5-4.5-4.5h-9C37.673,7.5,37,6.827,37,6V3c0-0.827,0.673-1.5,1.5-1.5h9
			C53.29,1.5,58,6.21,58,12v1.999h3c0.202,0,0.385,0.122,0.462,0.309s0.034,0.402-0.108,0.545l-6,6
			C55.256,20.95,55.128,20.999,55,20.999z M50.207,14.999L55,19.792l4.793-4.793H57.5c-0.276,0-0.5-0.224-0.5-0.5V12
			c0-5.238-4.262-9.5-9.5-9.5h-9C38.225,2.5,38,2.725,38,3v3c0,0.275,0.225,0.5,0.5,0.5h9c3.032,0,5.5,2.468,5.5,5.5v2.499
			c0,0.276-0.224,0.5-0.5,0.5H50.207z"/>
	</g>
</g>
</svg>
