<?xml version="1.0" encoding="utf-8"?>
<!-- Generator: Adobe Illustrator 21.1.0, SVG Export Plug-In . SVG Version: 6.00 Build 0)  -->
<svg version="1.1" id="Icon_Set" xmlns="http://www.w3.org/2000/svg" xmlns:xlink="http://www.w3.org/1999/xlink" x="0px" y="0px"
	 viewBox="0 0 64 64" style="enable-background:new 0 0 64 64;" xml:space="preserve">
<style type="text/css">
	.st0{fill:#263238;}
	.st1{fill:#40C4FF;}
	.st2{fill:#FFD740;}
	.st3{fill:#FF5252;}
	.st4{fill:#4DB6AC;}
	.st5{fill:#FFFFFF;}
	.st6{fill:#4FC3F7;}
</style>
<g id="B2C">
	<g>
		<path class="st0" d="M50,43.999c-4.687,0-8.5-3.813-8.5-8.5s3.813-8.5,8.5-8.5s8.5,3.813,8.5,8.5S54.687,43.999,50,43.999z
			 M50,27.999c-4.136,0-7.5,3.364-7.5,7.5s3.364,7.5,7.5,7.5s7.5-3.364,7.5-7.5S54.136,27.999,50,27.999z"/>
	</g>
	<g>
		<path class="st0" d="M42.755,35.999H42c-0.276,0-0.5-0.224-0.5-0.5c0-4.687,3.813-8.5,8.5-8.5c2.525,0,4.905,1.114,6.527,3.058
			c0.085,0.102,0.126,0.233,0.114,0.365c-0.012,0.133-0.076,0.255-0.179,0.34l-0.597,0.496
			C52.191,34.315,47.535,35.999,42.755,35.999z M42.517,34.999h0.238c4.547,0,8.977-1.602,12.473-4.511l0,0l0.198-0.165
			c-1.414-1.483-3.364-2.324-5.426-2.324C46.032,27.999,42.774,31.096,42.517,34.999z"/>
	</g>
	<g>
		<path class="st0" d="M43,62.004c-0.276,0-0.5-0.224-0.5-0.5v-7c0-0.276,0.224-0.5,0.5-0.5s0.5,0.224,0.5,0.5v7
			C43.5,61.78,43.276,62.004,43,62.004z"/>
	</g>
	<g>
		<path class="st0" d="M57,62.004c-0.276,0-0.5-0.224-0.5-0.5v-7c0-0.276,0.224-0.5,0.5-0.5s0.5,0.224,0.5,0.5v7
			C57.5,61.78,57.276,62.004,57,62.004z"/>
	</g>
	<g>
		<path class="st0" d="M50.003,46.6c-0.002,0-0.003,0-0.005,0c-1.372-0.002-2.647-0.684-3.411-1.823l0.829-0.559l0.002,0.003
			c0.586,0.875,1.527,1.378,2.581,1.379c0.001,0,0.003,0,0.004,0c1.053,0,1.994-0.501,2.582-1.375
			c0.156-0.23,0.467-0.288,0.694-0.136c0.229,0.154,0.29,0.465,0.136,0.694C52.649,45.921,51.374,46.6,50.003,46.6z"/>
	</g>
	<g>
		<path class="st0" d="M62,62.004c-0.276,0-0.5-0.224-0.5-0.5v-9.751c0-1.776-1.049-3.391-2.673-4.112l-6.03-2.68
			c-0.181-0.08-0.297-0.26-0.297-0.457v-0.886c-1.621,0.504-3.38,0.507-4.999,0.005L47.5,44.494c0,0.197-0.116,0.376-0.297,0.457
			l-6.035,2.688c-1.62,0.723-2.668,2.336-2.668,4.11v9.754c0,0.276-0.224,0.5-0.5,0.5s-0.5-0.224-0.5-0.5V51.75
			c0-2.169,1.28-4.141,3.262-5.024l5.738-2.557l0.001-1.254c0-0.167,0.083-0.322,0.221-0.415c0.139-0.093,0.313-0.111,0.467-0.049
			c1.799,0.729,3.82,0.727,5.623-0.006c0.153-0.065,0.329-0.044,0.468,0.048c0.138,0.093,0.221,0.249,0.221,0.415v1.271l5.733,2.548
			c1.984,0.883,3.267,2.855,3.267,5.026v9.751C62.5,61.78,62.276,62.004,62,62.004z"/>
	</g>
	<g>
		<path class="st0" d="M14,16.999c-4.687,0-8.5-3.813-8.5-8.5s3.813-8.5,8.5-8.5s8.5,3.813,8.5,8.5S18.687,16.999,14,16.999z
			 M14,0.999c-4.136,0-7.5,3.364-7.5,7.5s3.364,7.5,7.5,7.5s7.5-3.364,7.5-7.5S18.136,0.999,14,0.999z"/>
	</g>
	<g>
		<path class="st0" d="M6.755,8.999H6c-0.276,0-0.5-0.224-0.5-0.5c0-4.687,3.813-8.5,8.5-8.5c2.526,0,4.905,1.115,6.527,3.059
			c0.085,0.102,0.126,0.233,0.114,0.365c-0.012,0.133-0.076,0.255-0.179,0.34l-0.597,0.496C16.191,7.315,11.535,8.999,6.755,8.999z
			 M6.517,7.999h0.238c4.547,0,8.977-1.602,12.473-4.51l0,0l0.198-0.165C18.012,1.841,16.062,0.999,14,0.999
			C10.032,0.999,6.774,4.096,6.517,7.999z"/>
	</g>
	<g>
		<path class="st0" d="M7,35.004c-0.276,0-0.5-0.224-0.5-0.5v-7c0-0.276,0.224-0.5,0.5-0.5s0.5,0.224,0.5,0.5v7
			C7.5,34.78,7.276,35.004,7,35.004z"/>
	</g>
	<g>
		<path class="st0" d="M21,35.004c-0.276,0-0.5-0.224-0.5-0.5v-7c0-0.276,0.224-0.5,0.5-0.5s0.5,0.224,0.5,0.5v7
			C21.5,34.78,21.276,35.004,21,35.004z"/>
	</g>
	<g>
		<polygon class="st1" points="11.5,34 13.99,36.5 16.5,34 15,21.967 13,21.967 		"/>
		<path class="st0" d="M13.99,37L13.99,37c-0.134,0-0.261-0.053-0.354-0.147l-2.49-2.5c-0.108-0.108-0.161-0.262-0.142-0.414
			l1.5-12.032c0.031-0.251,0.244-0.438,0.496-0.438h2c0.252,0,0.465,0.188,0.496,0.438l1.5,12.032
			c0.02,0.153-0.034,0.307-0.144,0.416l-2.51,2.5C14.249,36.947,14.122,37,13.99,37z M12.026,33.82l1.965,1.973l1.982-1.975
			l-1.415-11.351h-1.117L12.026,33.82z"/>
	</g>
	<g>
		<path class="st0" d="M13.996,22.468C13.996,22.468,13.996,22.468,13.996,22.468H10.5c-0.143,0-0.277-0.061-0.373-0.167
			c-0.095-0.105-0.14-0.247-0.124-0.389l0.5-4.473c0.023-0.208,0.175-0.38,0.379-0.43s0.418,0.033,0.533,0.207l2.582,3.854
			l2.588-3.846c0.118-0.172,0.327-0.255,0.534-0.206c0.203,0.05,0.354,0.222,0.378,0.43l0.5,4.463
			c0.016,0.142-0.029,0.283-0.124,0.389c-0.095,0.106-0.23,0.167-0.373,0.167H13.996L13.996,22.468z M14.936,21.468h2.005
			l-0.286-2.555L14.936,21.468z M11.059,21.468h2.001l-1.715-2.56L11.059,21.468z"/>
	</g>
	<g>
		<path class="st0" d="M26,35.004c-0.276,0-0.5-0.224-0.5-0.5v-9.75c0-1.776-1.049-3.391-2.673-4.112l-6.03-2.68
			c-0.181-0.08-0.297-0.26-0.297-0.457v-0.886c-1.618,0.501-3.376,0.505-4.999,0.005L11.5,17.495c0,0.197-0.116,0.377-0.297,0.457
			L5.168,20.64C3.548,21.362,2.5,22.976,2.5,24.75v9.754c0,0.276-0.224,0.5-0.5,0.5s-0.5-0.224-0.5-0.5V24.75
			c0-2.169,1.28-4.141,3.262-5.024L10.5,17.17l0.001-1.254c0-0.166,0.083-0.321,0.221-0.415c0.138-0.091,0.312-0.111,0.467-0.049
			c1.804,0.729,3.827,0.724,5.623-0.006c0.153-0.064,0.329-0.045,0.468,0.048c0.138,0.093,0.221,0.249,0.221,0.415v1.271
			l5.733,2.548c1.984,0.883,3.267,2.855,3.267,5.026v9.75C26.5,34.78,26.276,35.004,26,35.004z"/>
	</g>
	<g>
		<path class="st2" d="M9,43.499l-6,6h3.5v2.5c0,5.523,4.477,10,10,10h9c0.552,0,1-0.448,1-1v-3c0-0.552-0.448-1-1-1h-9
			c-2.761,0-5-2.239-5-5v-2.5H15L9,43.499z"/>
		<path class="st0" d="M25.5,62.499h-9c-5.79,0-10.5-4.71-10.5-10.5v-2H3c-0.202,0-0.385-0.122-0.462-0.309
			s-0.034-0.402,0.108-0.545l6-6c0.195-0.195,0.512-0.195,0.707,0l6,6c0.143,0.143,0.186,0.358,0.108,0.545s-0.26,0.309-0.462,0.309
			h-3v2c0,2.481,2.019,4.5,4.5,4.5h9c0.827,0,1.5,0.673,1.5,1.5v3C27,61.826,26.327,62.499,25.5,62.499z M4.207,48.999H6.5
			c0.276,0,0.5,0.224,0.5,0.5v2.5c0,5.238,4.262,9.5,9.5,9.5h9c0.275,0,0.5-0.225,0.5-0.5v-3c0-0.275-0.225-0.5-0.5-0.5h-9
			c-3.032,0-5.5-2.468-5.5-5.5v-2.5c0-0.276,0.224-0.5,0.5-0.5h2.293L9,44.206L4.207,48.999z"/>
	</g>
	<g>
		<path class="st2" d="M55,20.499l6-6h-3.5v-2.5c0-5.523-4.477-10-10-10h-9c-0.552,0-1,0.448-1,1v3c0,0.552,0.448,1,1,1h9
			c2.761,0,5,2.239,5,5v2.5H49L55,20.499z"/>
		<path class="st0" d="M55,20.999c-0.128,0-0.256-0.049-0.354-0.146l-6-6c-0.143-0.143-0.186-0.358-0.108-0.545
			s0.26-0.309,0.462-0.309h3v-2c0-2.481-2.019-4.5-4.5-4.5h-9c-0.827,0-1.5-0.673-1.5-1.5v-3c0-0.827,0.673-1.5,1.5-1.5h9
			c5.79,0,10.5,4.71,10.5,10.5v2h3c0.202,0,0.385,0.122,0.462,0.309s0.034,0.402-0.108,0.545l-6,6
			C55.256,20.95,55.128,20.999,55,20.999z M50.207,14.999L55,19.792l4.793-4.793H57.5c-0.276,0-0.5-0.224-0.5-0.5v-2.5
			c0-5.238-4.262-9.5-9.5-9.5h-9c-0.275,0-0.5,0.225-0.5,0.5v3c0,0.275,0.225,0.5,0.5,0.5h9c3.032,0,5.5,2.468,5.5,5.5v2.5
			c0,0.276-0.224,0.5-0.5,0.5H50.207z"/>
	</g>
</g>
</svg>
