<?xml version="1.0" encoding="utf-8"?>
<!-- Generator: Adobe Illustrator 21.1.0, SVG Export Plug-In . SVG Version: 6.00 Build 0)  -->
<svg version="1.1" id="Icon_Set" xmlns="http://www.w3.org/2000/svg" xmlns:xlink="http://www.w3.org/1999/xlink" x="0px" y="0px"
	 viewBox="0 0 64 64" style="enable-background:new 0 0 64 64;" xml:space="preserve">
<style type="text/css">
	.st0{fill:#263238;}
	.st1{fill:#40C4FF;}
	.st2{fill:#FFD740;}
	.st3{fill:#FF5252;}
	.st4{fill:#4DB6AC;}
	.st5{fill:#FFFFFF;}
	.st6{fill:#4FC3F7;}
</style>
<g id="Balance">
	<g>
		<path class="st0" d="M11,8.583h-1c-0.276,0-0.5-0.224-0.5-0.5s0.224-0.5,0.5-0.5h1c0.276,0,0.5,0.224,0.5,0.5
			S11.276,8.583,11,8.583z"/>
	</g>
	<g>
		<path class="st0" d="M24,8.583H13c-0.276,0-0.5-0.224-0.5-0.5s0.224-0.5,0.5-0.5h11c0.276,0,0.5,0.224,0.5,0.5
			S24.276,8.583,24,8.583z"/>
	</g>
	<g>
		<path class="st0" d="M54,8.583h-1c-0.276,0-0.5-0.224-0.5-0.5s0.224-0.5,0.5-0.5h1c0.276,0,0.5,0.224,0.5,0.5
			S54.276,8.583,54,8.583z"/>
	</g>
	<g>
		<path class="st0" d="M51,8.583H40c-0.276,0-0.5-0.224-0.5-0.5s0.224-0.5,0.5-0.5h11c0.276,0,0.5,0.224,0.5,0.5
			S51.276,8.583,51,8.583z"/>
	</g>
	<g>
		<path class="st0" d="M34.5,52.083c-0.276,0-0.5-0.224-0.5-0.5v-44c0-0.323-0.161-0.5-0.214-0.5h-3.571
			c-0.053,0-0.214,0.177-0.214,0.5v44c0,0.276-0.224,0.5-0.5,0.5s-0.5-0.224-0.5-0.5v-44c0-0.841,0.533-1.5,1.214-1.5h3.571
			c0.681,0,1.214,0.659,1.214,1.5v44C35,51.86,34.776,52.083,34.5,52.083z"/>
	</g>
	<g>
		<path class="st2" d="M16,44.083c4.142,0,7.5-3.358,7.5-7.5h-15C8.5,40.725,11.858,44.083,16,44.083z"/>
		<path class="st0" d="M16,44.583c-4.411,0-8-3.589-8-8c0-0.276,0.224-0.5,0.5-0.5h15c0.276,0,0.5,0.224,0.5,0.5
			C24,40.995,20.411,44.583,16,44.583z M9.018,37.083c0.257,3.627,3.291,6.5,6.982,6.5s6.725-2.873,6.982-6.5H9.018z"/>
	</g>
	<g>
		<path class="st0" d="M23.5,37.083c-0.184,0-0.36-0.101-0.448-0.276L16,22.702L8.947,36.807c-0.124,0.247-0.423,0.347-0.671,0.224
			c-0.247-0.124-0.347-0.424-0.224-0.671l7.5-15c0.17-0.339,0.725-0.339,0.895,0l7.5,15c0.124,0.247,0.023,0.547-0.224,0.671
			C23.652,37.066,23.576,37.083,23.5,37.083z"/>
	</g>
	<g>
		<path class="st2" d="M48,44.083c4.142,0,7.5-3.358,7.5-7.5h-15C40.5,40.725,43.858,44.083,48,44.083z"/>
		<path class="st0" d="M48,44.583c-4.411,0-8-3.589-8-8c0-0.276,0.224-0.5,0.5-0.5h15c0.276,0,0.5,0.224,0.5,0.5
			C56,40.995,52.411,44.583,48,44.583z M41.018,37.083c0.257,3.627,3.291,6.5,6.982,6.5s6.725-2.873,6.982-6.5H41.018z"/>
	</g>
	<g>
		<path class="st0" d="M55.5,37.083c-0.184,0-0.36-0.101-0.448-0.276L48,22.702l-7.053,14.105c-0.125,0.247-0.424,0.347-0.671,0.224
			c-0.247-0.124-0.347-0.424-0.224-0.671l7.5-15c0.17-0.339,0.725-0.339,0.895,0l7.5,15c0.124,0.247,0.023,0.547-0.224,0.671
			C55.652,37.066,55.576,37.083,55.5,37.083z"/>
	</g>
	<g>
		<path class="st1" d="M54,57.417H10c-0.552,0-1-0.448-1-1v-1.833c0-0.552,0.448-1,1-1h44c0.552,0,1,0.448,1,1v1.833
			C55,56.969,54.552,57.417,54,57.417z"/>
		<path class="st0" d="M54,57.917H10c-0.827,0-1.5-0.673-1.5-1.5v-1.833c0-0.827,0.673-1.5,1.5-1.5h44c0.827,0,1.5,0.673,1.5,1.5
			v1.833C55.5,57.244,54.827,57.917,54,57.917z M10,54.083c-0.276,0-0.5,0.224-0.5,0.5v1.833c0,0.276,0.224,0.5,0.5,0.5h44
			c0.276,0,0.5-0.224,0.5-0.5v-1.833c0-0.276-0.224-0.5-0.5-0.5H10z"/>
	</g>
	<g>
		<path class="st0" d="M48,20.584c-0.201,0-0.401-0.031-0.597-0.091l-11.053-3.455c-0.264-0.082-0.411-0.363-0.328-0.626
			c0.082-0.264,0.362-0.413,0.626-0.328l11.053,3.454c0.527,0.162,1.091-0.141,1.253-0.656c0.08-0.255,0.055-0.526-0.069-0.762
			c-0.124-0.237-0.333-0.411-0.587-0.491l-11.947-3.734c-0.264-0.082-0.411-0.363-0.328-0.626c0.082-0.264,0.362-0.413,0.626-0.328
			l11.947,3.734c0.51,0.159,0.928,0.507,1.175,0.98c0.248,0.474,0.297,1.015,0.137,1.524C49.646,20.02,48.879,20.584,48,20.584z"/>
	</g>
	<g>
		<path class="st0" d="M16.003,20.583c-0.854,0-1.646-0.549-1.912-1.403c-0.159-0.51-0.11-1.051,0.138-1.524
			c0.248-0.473,0.665-0.821,1.175-0.98l11.947-3.734c0.262-0.084,0.543,0.064,0.626,0.328c0.083,0.263-0.064,0.544-0.328,0.626
			l-11.947,3.734c-0.255,0.08-0.463,0.254-0.587,0.491c-0.124,0.236-0.148,0.507-0.069,0.762c0.164,0.525,0.729,0.819,1.254,0.656
			l11.052-3.454c0.262-0.083,0.543,0.064,0.626,0.328c0.083,0.263-0.064,0.544-0.328,0.626l-11.053,3.454
			C16.399,20.553,16.2,20.583,16.003,20.583z"/>
	</g>
	<g>
		<path class="st0" d="M32,17.583c-1.654,0-3-1.346-3-3s1.346-3,3-3s3,1.346,3,3S33.654,17.583,32,17.583z M32,12.583
			c-1.103,0-2,0.897-2,2s0.897,2,2,2s2-0.897,2-2S33.103,12.583,32,12.583z"/>
	</g>
</g>
</svg>
