<?xml version="1.0" encoding="utf-8"?>
<!-- Generator: Adobe Illustrator 21.1.0, SVG Export Plug-In . SVG Version: 6.00 Build 0)  -->
<svg version="1.1" id="Icon_Set" xmlns="http://www.w3.org/2000/svg" xmlns:xlink="http://www.w3.org/1999/xlink" x="0px" y="0px"
	 viewBox="0 0 64 64" style="enable-background:new 0 0 64 64;" xml:space="preserve">
<style type="text/css">
	.st0{fill:#263238;}
	.st1{fill:#40C4FF;}
	.st2{fill:#FFD740;}
	.st3{fill:#FF5252;}
	.st4{fill:#4DB6AC;}
	.st5{fill:#FFFFFF;}
	.st6{fill:#4FC3F7;}
</style>
<g id="Big_Data">
	<g>
		<path class="st0" d="M59,62.75H33c-1.654,0-3-1.346-3-3v-49c0-1.654,1.346-3,3-3h26c1.654,0,3,1.346,3,3v49
			C62,61.404,60.654,62.75,59,62.75z M33,8.75c-1.103,0-2,0.897-2,2v49c0,1.103,0.897,2,2,2h26c1.103,0,2-0.897,2-2v-49
			c0-1.103-0.897-2-2-2H33z"/>
	</g>
	<g>
		<path class="st0" d="M54.5,18.75h-17c-0.827,0-1.5-0.673-1.5-1.5v-1c0-0.827,0.673-1.5,1.5-1.5h17c0.827,0,1.5,0.673,1.5,1.5v1
			C56,18.077,55.327,18.75,54.5,18.75z M37.5,15.75c-0.275,0-0.5,0.224-0.5,0.5v1c0,0.276,0.225,0.5,0.5,0.5h17
			c0.275,0,0.5-0.224,0.5-0.5v-1c0-0.276-0.225-0.5-0.5-0.5H37.5z"/>
	</g>
	<g>
		<path class="st0" d="M54.5,27.75h-17c-0.827,0-1.5-0.673-1.5-1.5v-1c0-0.827,0.673-1.5,1.5-1.5h17c0.827,0,1.5,0.673,1.5,1.5v1
			C56,27.077,55.327,27.75,54.5,27.75z M37.5,24.75c-0.275,0-0.5,0.224-0.5,0.5v1c0,0.276,0.225,0.5,0.5,0.5h17
			c0.275,0,0.5-0.224,0.5-0.5v-1c0-0.276-0.225-0.5-0.5-0.5H37.5z"/>
	</g>
	<g>
		<path class="st0" d="M54.5,36.75h-17c-0.827,0-1.5-0.673-1.5-1.5v-1c0-0.827,0.673-1.5,1.5-1.5h17c0.827,0,1.5,0.673,1.5,1.5v1
			C56,36.077,55.327,36.75,54.5,36.75z M37.5,33.75c-0.275,0-0.5,0.224-0.5,0.5v1c0,0.276,0.225,0.5,0.5,0.5h17
			c0.275,0,0.5-0.224,0.5-0.5v-1c0-0.276-0.225-0.5-0.5-0.5H37.5z"/>
	</g>
	<g>
		<path class="st0" d="M54.5,45.75h-17c-0.827,0-1.5-0.673-1.5-1.5v-1c0-0.827,0.673-1.5,1.5-1.5h17c0.827,0,1.5,0.673,1.5,1.5v1
			C56,45.077,55.327,45.75,54.5,45.75z M37.5,42.75c-0.275,0-0.5,0.224-0.5,0.5v1c0,0.276,0.225,0.5,0.5,0.5h17
			c0.275,0,0.5-0.224,0.5-0.5v-1c0-0.276-0.225-0.5-0.5-0.5H37.5z"/>
	</g>
	<g>
		<circle class="st3" cx="46" cy="54.625" r="3.125"/>
		<path class="st0" d="M46,58.25c-1.999,0-3.625-1.626-3.625-3.625S44.001,51,46,51s3.625,1.626,3.625,3.625S47.999,58.25,46,58.25z
			 M46,52c-1.447,0-2.625,1.178-2.625,2.625S44.553,57.25,46,57.25s2.625-1.178,2.625-2.625S47.447,52,46,52z"/>
	</g>
	<g>
		<path class="st1" d="M28.5,48.25H5c-1.381,0-2.5,1.119-2.5,2.5v9c0,1.381,1.119,2.5,2.5,2.5h23.5"/>
		<path class="st0" d="M28.5,62.75H5c-1.654,0-3-1.346-3-3v-9c0-1.654,1.346-3,3-3h23.5c0.276,0,0.5,0.224,0.5,0.5
			s-0.224,0.5-0.5,0.5H5c-1.103,0-2,0.897-2,2v9c0,1.103,0.897,2,2,2h23.5c0.276,0,0.5,0.224,0.5,0.5S28.776,62.75,28.5,62.75z"/>
	</g>
	<g>
		<circle class="st5" cx="9.5" cy="55.25" r="2"/>
		<path class="st0" d="M9.5,57.75c-1.378,0-2.5-1.122-2.5-2.5s1.122-2.5,2.5-2.5s2.5,1.122,2.5,2.5S10.878,57.75,9.5,57.75z
			 M9.5,53.75c-0.827,0-1.5,0.673-1.5,1.5s0.673,1.5,1.5,1.5s1.5-0.673,1.5-1.5S10.327,53.75,9.5,53.75z"/>
	</g>
	<g>
		<path class="st5" d="M28.5,57.25h-11c-0.552,0-1-0.448-1-1v-2c0-0.552,0.448-1,1-1h11"/>
		<path class="st0" d="M28.5,57.75h-11c-0.827,0-1.5-0.673-1.5-1.5v-2c0-0.827,0.673-1.5,1.5-1.5h11c0.276,0,0.5,0.224,0.5,0.5
			s-0.224,0.5-0.5,0.5h-11c-0.276,0-0.5,0.224-0.5,0.5v2c0,0.276,0.224,0.5,0.5,0.5h11c0.276,0,0.5,0.224,0.5,0.5
			S28.776,57.75,28.5,57.75z"/>
	</g>
	<g>
		<path class="st1" d="M28.5,34.25H5c-1.381,0-2.5,1.119-2.5,2.5v9c0,1.381,1.119,2.5,2.5,2.5h23.5"/>
		<path class="st0" d="M28.5,48.75H5c-1.654,0-3-1.346-3-3v-9c0-1.654,1.346-3,3-3h23.5c0.276,0,0.5,0.224,0.5,0.5
			s-0.224,0.5-0.5,0.5H5c-1.103,0-2,0.897-2,2v9c0,1.103,0.897,2,2,2h23.5c0.276,0,0.5,0.224,0.5,0.5S28.776,48.75,28.5,48.75z"/>
	</g>
	<g>
		<circle class="st5" cx="9.5" cy="41.25" r="2"/>
		<path class="st0" d="M9.5,43.75c-1.378,0-2.5-1.122-2.5-2.5s1.122-2.5,2.5-2.5s2.5,1.122,2.5,2.5S10.878,43.75,9.5,43.75z
			 M9.5,39.75c-0.827,0-1.5,0.673-1.5,1.5s0.673,1.5,1.5,1.5s1.5-0.673,1.5-1.5S10.327,39.75,9.5,39.75z"/>
	</g>
	<g>
		<path class="st5" d="M28.5,43.25h-11c-0.552,0-1-0.448-1-1v-2c0-0.552,0.448-1,1-1h11"/>
		<path class="st0" d="M28.5,43.75h-11c-0.827,0-1.5-0.673-1.5-1.5v-2c0-0.827,0.673-1.5,1.5-1.5h11c0.276,0,0.5,0.224,0.5,0.5
			s-0.224,0.5-0.5,0.5h-11c-0.276,0-0.5,0.224-0.5,0.5v2c0,0.276,0.224,0.5,0.5,0.5h11c0.276,0,0.5,0.224,0.5,0.5
			S28.776,43.75,28.5,43.75z"/>
	</g>
	<g>
		<path class="st0" d="M25.5,6.25c-0.276,0-0.5-0.224-0.5-0.5v-4c0-0.276,0.224-0.5,0.5-0.5S26,1.474,26,1.75v4
			C26,6.026,25.776,6.25,25.5,6.25z"/>
	</g>
	<g>
		<path class="st0" d="M27.5,4.25h-4c-0.276,0-0.5-0.224-0.5-0.5s0.224-0.5,0.5-0.5h4c0.276,0,0.5,0.224,0.5,0.5
			S27.776,4.25,27.5,4.25z"/>
	</g>
	<g>
		<path class="st0" d="M17.5,15.25c-0.276,0-0.5-0.224-0.5-0.5v-4c0-0.276,0.224-0.5,0.5-0.5s0.5,0.224,0.5,0.5v4
			C18,15.026,17.776,15.25,17.5,15.25z"/>
	</g>
	<g>
		<path class="st0" d="M19.5,13.25h-4c-0.276,0-0.5-0.224-0.5-0.5s0.224-0.5,0.5-0.5h4c0.276,0,0.5,0.224,0.5,0.5
			S19.776,13.25,19.5,13.25z"/>
	</g>
	<g>
		<path class="st0" d="M25,23.75h-1c-0.276,0-0.5-0.224-0.5-0.5s0.224-0.5,0.5-0.5h1c0.276,0,0.5,0.224,0.5,0.5
			S25.276,23.75,25,23.75z"/>
	</g>
	<g>
		<path class="st0" d="M22,23.75H11c-0.276,0-0.5-0.224-0.5-0.5s0.224-0.5,0.5-0.5h11c0.276,0,0.5,0.224,0.5,0.5
			S22.276,23.75,22,23.75z"/>
	</g>
	<g>
		<path class="st0" d="M7,26.75H6c-0.276,0-0.5-0.224-0.5-0.5s0.224-0.5,0.5-0.5h1c0.276,0,0.5,0.224,0.5,0.5S7.276,26.75,7,26.75z"
			/>
	</g>
	<g>
		<path class="st0" d="M20,26.75H9c-0.276,0-0.5-0.224-0.5-0.5s0.224-0.5,0.5-0.5h11c0.276,0,0.5,0.224,0.5,0.5
			S20.276,26.75,20,26.75z"/>
	</g>
	<g>
		<path class="st0" d="M58.5,15.75c-0.276,0-0.5-0.224-0.5-0.5v-3c0-0.276-0.225-0.5-0.5-0.5h-3c-0.276,0-0.5-0.224-0.5-0.5
			s0.224-0.5,0.5-0.5h3c0.827,0,1.5,0.673,1.5,1.5v3C59,15.526,58.776,15.75,58.5,15.75z"/>
	</g>
</g>
</svg>
