<?xml version="1.0" encoding="utf-8"?>
<!-- Generator: Adobe Illustrator 21.1.0, SVG Export Plug-In . SVG Version: 6.00 Build 0)  -->
<svg version="1.1" id="Icon_Set" xmlns="http://www.w3.org/2000/svg" xmlns:xlink="http://www.w3.org/1999/xlink" x="0px" y="0px"
	 viewBox="0 0 64 64" style="enable-background:new 0 0 64 64;" xml:space="preserve">
<style type="text/css">
	.st0{fill:#263238;}
	.st1{fill:#40C4FF;}
	.st2{fill:#FFD740;}
	.st3{fill:#FF5252;}
	.st4{fill:#4DB6AC;}
	.st5{fill:#FFFFFF;}
	.st6{fill:#4FC3F7;}
</style>
<g id="Bitcoin">
	<g>
		<path class="st0" d="M62.5,55.25h-61c-0.827,0-1.5-0.673-1.5-1.5v-34c0-0.827,0.673-1.5,1.5-1.5h61c0.827,0,1.5,0.673,1.5,1.5v34
			C64,54.578,63.327,55.25,62.5,55.25z M1.5,19.25c-0.276,0-0.5,0.224-0.5,0.5v34c0,0.276,0.224,0.5,0.5,0.5h61
			c0.276,0,0.5-0.224,0.5-0.5v-34c0-0.276-0.224-0.5-0.5-0.5H1.5z"/>
	</g>
	<g>
		<path class="st0" d="M58,49.75H6c-0.276,0-0.5-0.224-0.5-0.5v-25c0-0.276,0.224-0.5,0.5-0.5h52c0.276,0,0.5,0.224,0.5,0.5v25
			C58.5,49.527,58.276,49.75,58,49.75z M6.5,48.75h51v-24h-51V48.75z"/>
	</g>
	<g>
		<path class="st0" d="M3.5,30.25c-0.276,0-0.5-0.224-0.5-0.5v-8c0-0.276,0.224-0.5,0.5-0.5h8c0.276,0,0.5,0.224,0.5,0.5
			C12,26.438,8.187,30.25,3.5,30.25z M4,22.25v6.983c3.738-0.247,6.736-3.246,6.983-6.983H4z"/>
	</g>
	<g>
		<path class="st0" d="M60.5,30.25c-4.687,0-8.5-3.813-8.5-8.5c0-0.276,0.224-0.5,0.5-0.5h8c0.276,0,0.5,0.224,0.5,0.5v8
			C61,30.027,60.776,30.25,60.5,30.25z M53.017,22.25c0.247,3.738,3.246,6.736,6.983,6.983V22.25H53.017z"/>
	</g>
	<g>
		<path class="st0" d="M60.5,52.25h-8c-0.276,0-0.5-0.224-0.5-0.5c0-4.687,3.813-8.5,8.5-8.5c0.276,0,0.5,0.224,0.5,0.5v8
			C61,52.027,60.776,52.25,60.5,52.25z M53.017,51.25H60v-6.983C56.262,44.514,53.264,47.513,53.017,51.25z"/>
	</g>
	<g>
		<path class="st0" d="M11.5,52.25h-8c-0.276,0-0.5-0.224-0.5-0.5v-8c0-0.276,0.224-0.5,0.5-0.5c4.687,0,8.5,3.813,8.5,8.5
			C12,52.027,11.776,52.25,11.5,52.25z M4,51.25h6.983C10.736,47.513,7.738,44.514,4,44.267V51.25z"/>
	</g>
	<g>
		<circle class="st2" cx="32" cy="36.75" r="15"/>
		<path class="st0" d="M32,52.25c-8.547,0-15.5-6.953-15.5-15.5s6.953-15.5,15.5-15.5s15.5,6.953,15.5,15.5S40.546,52.25,32,52.25z
			 M32,22.25c-7.995,0-14.5,6.505-14.5,14.5s6.505,14.5,14.5,14.5s14.5-6.505,14.5-14.5S39.995,22.25,32,22.25z"/>
	</g>
	<g>
		<path class="st5" d="M38.505,35.969c0.468-0.71,0.745-1.557,0.745-2.469c0-2.481-2.019-4.5-4.5-4.5v-2.5h-2V29h-2v-2.5h-2V29h-3.5
			v3h1.5v9h-1.5v3h3.5v2.5h2V44h2v2.5h2V44h1c2.481,0,4.5-2.019,4.5-4.5C40.25,38.062,39.559,36.793,38.505,35.969z M29.75,32h5
			c0.827,0,1.5,0.673,1.5,1.5s-0.673,1.5-1.5,1.5h-5V32z M35.75,41h-6v-3h5h1c0.827,0,1.5,0.673,1.5,1.5S36.577,41,35.75,41z"/>
		<path class="st0" d="M34.75,47h-2c-0.276,0-0.5-0.224-0.5-0.5v-2h-1v2c0,0.276-0.224,0.5-0.5,0.5h-2c-0.276,0-0.5-0.224-0.5-0.5
			v-2h-3c-0.276,0-0.5-0.224-0.5-0.5v-3c0-0.276,0.224-0.5,0.5-0.5h1v-8h-1c-0.276,0-0.5-0.224-0.5-0.5v-3
			c0-0.276,0.224-0.5,0.5-0.5h3v-2c0-0.276,0.224-0.5,0.5-0.5h2c0.276,0,0.5,0.224,0.5,0.5v2h1v-2c0-0.276,0.224-0.5,0.5-0.5h2
			c0.276,0,0.5,0.224,0.5,0.5v2.025c2.523,0.251,4.5,2.387,4.5,4.975c0,0.827-0.206,1.635-0.599,2.362
			c1.021,0.948,1.599,2.251,1.599,3.638c0,2.757-2.243,5-5,5h-0.5v2C35.25,46.777,35.026,47,34.75,47z M33.25,46h1v-2
			c0-0.276,0.224-0.5,0.5-0.5h1c2.206,0,4-1.794,4-4c0-1.223-0.566-2.366-1.553-3.138c-0.205-0.161-0.253-0.452-0.109-0.669
			c0.433-0.656,0.662-1.415,0.662-2.193c0-2.206-1.794-4-4-4c-0.276,0-0.5-0.224-0.5-0.5v-2h-1v2c0,0.276-0.224,0.5-0.5,0.5h-2
			c-0.276,0-0.5-0.224-0.5-0.5v-2h-1v2c0,0.276-0.224,0.5-0.5,0.5h-3v2h1c0.276,0,0.5,0.224,0.5,0.5v9c0,0.276-0.224,0.5-0.5,0.5h-1
			v2h3c0.276,0,0.5,0.224,0.5,0.5v2h1v-2c0-0.276,0.224-0.5,0.5-0.5h2c0.276,0,0.5,0.224,0.5,0.5V46z M35.75,41.5h-6
			c-0.276,0-0.5-0.224-0.5-0.5v-3c0-0.276,0.224-0.5,0.5-0.5h6c1.103,0,2,0.897,2,2S36.853,41.5,35.75,41.5z M30.25,40.5h5.5
			c0.551,0,1-0.449,1-1s-0.449-1-1-1h-5.5V40.5z M34.75,35.5h-5c-0.276,0-0.5-0.224-0.5-0.5v-3c0-0.276,0.224-0.5,0.5-0.5h5
			c1.103,0,2,0.897,2,2S35.853,35.5,34.75,35.5z M30.25,34.5h4.5c0.551,0,1-0.449,1-1s-0.449-1-1-1h-4.5V34.5z"/>
	</g>
	<g>
		<path class="st0" d="M44,15.25h-2c-0.276,0-0.5-0.224-0.5-0.5s0.224-0.5,0.5-0.5h2c0.276,0,0.5,0.224,0.5,0.5
			S44.276,15.25,44,15.25z"/>
	</g>
	<g>
		<path class="st0" d="M40,15.25H20c-0.276,0-0.5-0.224-0.5-0.5s0.224-0.5,0.5-0.5h20c0.276,0,0.5,0.224,0.5,0.5
			S40.276,15.25,40,15.25z"/>
	</g>
	<g>
		<path class="st0" d="M22,59.25h-2c-0.276,0-0.5-0.224-0.5-0.5s0.224-0.5,0.5-0.5h2c0.276,0,0.5,0.224,0.5,0.5
			S22.276,59.25,22,59.25z"/>
	</g>
	<g>
		<path class="st0" d="M44,59.25H24c-0.276,0-0.5-0.224-0.5-0.5s0.224-0.5,0.5-0.5h20c0.276,0,0.5,0.224,0.5,0.5
			S44.276,59.25,44,59.25z"/>
	</g>
	<g>
		<path class="st0" d="M17,7.75h-4c-0.276,0-0.5-0.224-0.5-0.5s0.224-0.5,0.5-0.5h4c0.276,0,0.5,0.224,0.5,0.5S17.276,7.75,17,7.75z
			"/>
	</g>
	<g>
		<path class="st0" d="M15,9.75c-0.276,0-0.5-0.224-0.5-0.5v-4c0-0.276,0.224-0.5,0.5-0.5s0.5,0.224,0.5,0.5v4
			C15.5,9.527,15.276,9.75,15,9.75z"/>
	</g>
	<g>
		<path class="st0" d="M9,13.25H5c-0.276,0-0.5-0.224-0.5-0.5s0.224-0.5,0.5-0.5h4c0.276,0,0.5,0.224,0.5,0.5S9.276,13.25,9,13.25z"
			/>
	</g>
	<g>
		<path class="st0" d="M7,15.25c-0.276,0-0.5-0.224-0.5-0.5v-4c0-0.276,0.224-0.5,0.5-0.5s0.5,0.224,0.5,0.5v4
			C7.5,15.027,7.276,15.25,7,15.25z"/>
	</g>
</g>
</svg>
