<?xml version="1.0" encoding="utf-8"?>
<!-- Generator: Adobe Illustrator 21.1.0, SVG Export Plug-In . SVG Version: 6.00 Build 0)  -->
<svg version="1.1" id="Icon_Set" xmlns="http://www.w3.org/2000/svg" xmlns:xlink="http://www.w3.org/1999/xlink" x="0px" y="0px"
	 viewBox="0 0 64 64" style="enable-background:new 0 0 64 64;" xml:space="preserve">
<style type="text/css">
	.st0{fill:#263238;}
	.st1{fill:#40C4FF;}
	.st2{fill:#FFD740;}
	.st3{fill:#FF5252;}
	.st4{fill:#4DB6AC;}
	.st5{fill:#FFFFFF;}
	.st6{fill:#4FC3F7;}
</style>
<g id="British_Pound">
	<g>
		<path class="st0" d="M62.5,55.25h-61c-0.827,0-1.5-0.673-1.5-1.5v-34c0-0.827,0.673-1.5,1.5-1.5h61c0.827,0,1.5,0.673,1.5,1.5v34
			C64,54.577,63.327,55.25,62.5,55.25z M1.5,19.25c-0.275,0-0.5,0.224-0.5,0.5v34c0,0.276,0.225,0.5,0.5,0.5h61
			c0.275,0,0.5-0.224,0.5-0.5v-34c0-0.276-0.225-0.5-0.5-0.5H1.5z"/>
	</g>
	<g>
		<path class="st0" d="M58,49.75H6c-0.276,0-0.5-0.224-0.5-0.5v-25c0-0.276,0.224-0.5,0.5-0.5h52c0.276,0,0.5,0.224,0.5,0.5v25
			C58.5,49.526,58.276,49.75,58,49.75z M6.5,48.75h51v-24h-51V48.75z"/>
	</g>
	<g>
		<path class="st0" d="M3.5,30.25c-0.276,0-0.5-0.224-0.5-0.5v-8c0-0.276,0.224-0.5,0.5-0.5h8c0.276,0,0.5,0.224,0.5,0.5
			C12,26.437,8.187,30.25,3.5,30.25z M4,22.25v6.983c3.737-0.247,6.736-3.246,6.983-6.983H4z"/>
	</g>
	<g>
		<path class="st0" d="M60.5,30.25c-4.687,0-8.5-3.813-8.5-8.5c0-0.276,0.224-0.5,0.5-0.5h8c0.276,0,0.5,0.224,0.5,0.5v8
			C61,30.026,60.776,30.25,60.5,30.25z M53.017,22.25c0.247,3.738,3.246,6.736,6.983,6.983V22.25H53.017z"/>
	</g>
	<g>
		<path class="st0" d="M60.5,52.25h-8c-0.276,0-0.5-0.224-0.5-0.5c0-4.687,3.813-8.5,8.5-8.5c0.276,0,0.5,0.224,0.5,0.5v8
			C61,52.026,60.776,52.25,60.5,52.25z M53.017,51.25H60v-6.983C56.263,44.514,53.264,47.512,53.017,51.25z"/>
	</g>
	<g>
		<path class="st0" d="M11.5,52.25h-8c-0.276,0-0.5-0.224-0.5-0.5v-8c0-0.276,0.224-0.5,0.5-0.5c4.687,0,8.5,3.813,8.5,8.5
			C12,52.026,11.776,52.25,11.5,52.25z M4,51.25h6.983C10.736,47.512,7.737,44.514,4,44.267V51.25z"/>
	</g>
	<g>
		<circle class="st1" cx="32" cy="36.75" r="15"/>
		<path class="st0" d="M32,52.25c-8.547,0-15.5-6.953-15.5-15.5s6.953-15.5,15.5-15.5s15.5,6.953,15.5,15.5S40.547,52.25,32,52.25z
			 M32,22.25c-7.995,0-14.5,6.505-14.5,14.5s6.505,14.5,14.5,14.5s14.5-6.505,14.5-14.5S39.995,22.25,32,22.25z"/>
	</g>
	<g>
		<path class="st0" d="M44,15.25h-2c-0.276,0-0.5-0.224-0.5-0.5s0.224-0.5,0.5-0.5h2c0.276,0,0.5,0.224,0.5,0.5
			S44.276,15.25,44,15.25z"/>
	</g>
	<g>
		<path class="st0" d="M40,15.25H20c-0.276,0-0.5-0.224-0.5-0.5s0.224-0.5,0.5-0.5h20c0.276,0,0.5,0.224,0.5,0.5
			S40.276,15.25,40,15.25z"/>
	</g>
	<g>
		<path class="st0" d="M22,59.25h-2c-0.276,0-0.5-0.224-0.5-0.5s0.224-0.5,0.5-0.5h2c0.276,0,0.5,0.224,0.5,0.5
			S22.276,59.25,22,59.25z"/>
	</g>
	<g>
		<path class="st0" d="M44,59.25H24c-0.276,0-0.5-0.224-0.5-0.5s0.224-0.5,0.5-0.5h20c0.276,0,0.5,0.224,0.5,0.5
			S44.276,59.25,44,59.25z"/>
	</g>
	<g>
		<path class="st5" d="M31.676,40.305c0.378-0.472,0.619-1.005,0.753-1.555h2.07v-3h-2.533c-0.209-0.346-0.458-0.673-0.778-0.954
			l-0.229-0.201c-0.685-0.599-0.703-1.428-0.491-2.004c0.118-0.323,0.5-1.076,1.532-1.092c1.379,0,2.5,1.122,2.5,2.5h3
			c0-3.032-2.467-5.5-5.59-5.5c0,0,0,0-0.001,0c-1.947,0.032-3.579,1.204-4.259,3.06c-0.523,1.429-0.355,2.959,0.401,4.19H27v3h2.08
			l-2.251,2.813c-0.36,0.45-0.431,1.067-0.181,1.587C26.897,43.669,27.423,44,28,44h8.5v-3h-5.379L31.676,40.305z"/>
		<path class="st0" d="M36.5,44.5H28c-0.765,0-1.473-0.445-1.803-1.134c-0.331-0.688-0.236-1.519,0.241-2.116l1.601-2H27
			c-0.276,0-0.5-0.224-0.5-0.5v-3c0-0.276,0.224-0.5,0.5-0.5h0.238c-0.499-1.216-0.525-2.584-0.058-3.862
			c0.753-2.054,2.562-3.353,4.721-3.388C35.268,28,38,30.692,38,34c0,0.276-0.224,0.5-0.5,0.5h-3c-0.276,0-0.5-0.224-0.5-0.5
			c0-1.103-0.897-2-2-2c-0.649,0.01-0.938,0.421-1.062,0.764c-0.075,0.205-0.271,0.912,0.351,1.456l0.229,0.201
			c0.264,0.231,0.502,0.504,0.722,0.83H34.5c0.276,0,0.5,0.224,0.5,0.5v3c0,0.276-0.224,0.5-0.5,0.5h-1.694
			c-0.152,0.457-0.369,0.875-0.647,1.25H36.5c0.276,0,0.5,0.224,0.5,0.5v3C37,44.276,36.776,44.5,36.5,44.5z M27.5,38.25h1.579
			c0.192,0,0.367,0.11,0.45,0.283c0.084,0.173,0.061,0.379-0.06,0.529l-2.25,2.813c-0.239,0.298-0.286,0.713-0.121,1.058
			C27.265,43.278,27.618,43.5,28,43.5h8v-2h-4.879c-0.192,0-0.367-0.11-0.45-0.283c-0.084-0.173-0.061-0.379,0.06-0.529l0.556-0.694
			c0.311-0.389,0.532-0.847,0.658-1.362c0.055-0.224,0.255-0.381,0.485-0.381H34v-2h-2.034c-0.175,0-0.337-0.091-0.428-0.241
			c-0.209-0.346-0.432-0.62-0.679-0.836l-0.229-0.201c-0.876-0.766-0.9-1.821-0.632-2.553c0.32-0.874,1.065-1.405,1.994-1.419
			c1.491,0,2.728,1.083,2.966,2.5h2.017c-0.256-2.523-2.43-4.5-5.064-4.5c-1.728,0.028-3.184,1.075-3.79,2.731
			c-0.463,1.264-0.333,2.633,0.356,3.756c0.095,0.154,0.099,0.348,0.011,0.506c-0.089,0.158-0.256,0.256-0.437,0.256H27.5V38.25z
			 M31.677,40.305h0.01H31.677z"/>
	</g>
	<g>
		<path class="st0" d="M17,7.75h-4c-0.276,0-0.5-0.224-0.5-0.5s0.224-0.5,0.5-0.5h4c0.276,0,0.5,0.224,0.5,0.5S17.276,7.75,17,7.75z
			"/>
	</g>
	<g>
		<path class="st0" d="M15,9.75c-0.276,0-0.5-0.224-0.5-0.5v-4c0-0.276,0.224-0.5,0.5-0.5s0.5,0.224,0.5,0.5v4
			C15.5,9.526,15.276,9.75,15,9.75z"/>
	</g>
	<g>
		<path class="st0" d="M9,13.25H5c-0.276,0-0.5-0.224-0.5-0.5s0.224-0.5,0.5-0.5h4c0.276,0,0.5,0.224,0.5,0.5S9.276,13.25,9,13.25z"
			/>
	</g>
	<g>
		<path class="st0" d="M7,15.25c-0.276,0-0.5-0.224-0.5-0.5v-4c0-0.276,0.224-0.5,0.5-0.5s0.5,0.224,0.5,0.5v4
			C7.5,15.026,7.276,15.25,7,15.25z"/>
	</g>
</g>
</svg>
