<?xml version="1.0" encoding="utf-8"?>
<!-- Generator: Adobe Illustrator 21.1.0, SVG Export Plug-In . SVG Version: 6.00 Build 0)  -->
<svg version="1.1" id="Icon_Set" xmlns="http://www.w3.org/2000/svg" xmlns:xlink="http://www.w3.org/1999/xlink" x="0px" y="0px"
	 viewBox="0 0 64 64" style="enable-background:new 0 0 64 64;" xml:space="preserve">
<style type="text/css">
	.st0{fill:#263238;}
	.st1{fill:#40C4FF;}
	.st2{fill:#FFD740;}
	.st3{fill:#FF5252;}
	.st4{fill:#4DB6AC;}
	.st5{fill:#FFFFFF;}
	.st6{fill:#4FC3F7;}
</style>
<g id="Budgeting">
	<g>
		<rect x="20" y="13.5" class="st2" width="24" height="12"/>
		<path class="st0" d="M44,26H20c-0.276,0-0.5-0.224-0.5-0.5v-12c0-0.276,0.224-0.5,0.5-0.5h24c0.276,0,0.5,0.224,0.5,0.5v12
			C44.5,25.776,44.276,26,44,26z M20.5,25h23V14h-23V25z"/>
	</g>
	<g>
		<path class="st0" d="M56.258,41.321c-0.128,0-0.256-0.049-0.354-0.146l-4.243-4.242c-0.094-0.094-0.146-0.221-0.146-0.354
			s0.053-0.26,0.146-0.354l2.011-2.01c1.133-1.132,3.109-1.134,4.242,0l0.707,0.707c0.566,0.566,0.879,1.319,0.879,2.121
			c0,0.801-0.312,1.555-0.879,2.121l-2.01,2.01C56.514,41.272,56.386,41.321,56.258,41.321z M52.722,36.579l3.536,3.535l1.656-1.656
			c0.378-0.378,0.586-0.88,0.586-1.414s-0.208-1.036-0.586-1.414l-0.707-0.707c-0.756-0.756-2.072-0.756-2.828,0L52.722,36.579z"/>
	</g>
	<g>
		<path class="st0" d="M30.337,63c-0.131,0-0.258-0.051-0.354-0.146c-0.134-0.134-0.181-0.332-0.121-0.512l2.121-6.364
			c0.024-0.073,0.066-0.141,0.121-0.195l2.122-2.121c0.195-0.195,0.512-0.195,0.707,0l4.242,4.242c0.195,0.195,0.195,0.512,0,0.707
			l-2.121,2.121c-0.055,0.055-0.122,0.097-0.195,0.121l-6.364,2.122C30.443,62.991,30.39,63,30.337,63z M32.895,56.406l-1.767,5.303
			l5.303-1.768l1.685-1.685l-3.535-3.535L32.895,56.406z"/>
	</g>
	<g>
		<path class="st0" d="M30.337,63c-0.131,0-0.258-0.051-0.354-0.146c-0.134-0.134-0.181-0.332-0.121-0.512l1.414-4.243
			c0.055-0.164,0.191-0.289,0.359-0.328c0.168-0.044,0.347,0.011,0.469,0.133l2.829,2.828c0.122,0.122,0.173,0.3,0.133,0.469
			c-0.039,0.168-0.164,0.305-0.328,0.359l-4.243,1.415C30.443,62.991,30.39,63,30.337,63z M31.97,59.183l-0.842,2.526l2.526-0.843
			L31.97,59.183z"/>
	</g>
	<g>
		
			<rect x="33.09" y="44.418" transform="matrix(0.7071 -0.7071 0.7071 0.7071 -20.2267 46.0043)" class="st1" width="24.657" height="6"/>
		<path class="st0" d="M38.822,58.757c-0.128,0-0.256-0.049-0.354-0.146l-4.242-4.242c-0.195-0.195-0.195-0.512,0-0.707
			l17.435-17.436c0.195-0.195,0.512-0.195,0.707,0l4.243,4.242c0.094,0.094,0.146,0.221,0.146,0.354s-0.053,0.26-0.146,0.354
			L39.176,58.61C39.078,58.708,38.95,58.757,38.822,58.757z M35.287,54.015l3.535,3.535l16.729-16.729l-3.536-3.535L35.287,54.015z"
			/>
	</g>
	<g>
		<path class="st0" d="M29.895,58H16.5c-1.654,0-3-1.346-3-3V12c0-1.654,1.346-3,3-3h31c1.654,0,3,1.346,3,3v23.766
			c0,0.276-0.224,0.5-0.5,0.5s-0.5-0.224-0.5-0.5V12c0-1.103-0.897-2-2-2h-31c-1.103,0-2,0.897-2,2v43c0,1.103,0.897,2,2,2h13.395
			c0.276,0,0.5,0.224,0.5,0.5S30.171,58,29.895,58z"/>
	</g>
	<g>
		<path class="st0" d="M47.5,58h-5.092c-0.276,0-0.5-0.224-0.5-0.5s0.224-0.5,0.5-0.5H47.5c1.103,0,2-0.897,2-2v-5.092
			c0-0.276,0.224-0.5,0.5-0.5s0.5,0.224,0.5,0.5V55C50.5,56.654,49.154,58,47.5,58z"/>
	</g>
	<g>
		<path class="st0" d="M32,32.5H20c-0.276,0-0.5-0.224-0.5-0.5s0.224-0.5,0.5-0.5h12c0.276,0,0.5,0.224,0.5,0.5S32.276,32.5,32,32.5
			z"/>
	</g>
	<g>
		<path class="st0" d="M32.001,38H20c-0.276,0-0.5-0.224-0.5-0.5S19.724,37,20,37h12.001c0.276,0,0.5,0.224,0.5,0.5
			S32.277,38,32.001,38z"/>
	</g>
	<g>
		<path class="st0" d="M32.001,43.5H20c-0.276,0-0.5-0.224-0.5-0.5s0.224-0.5,0.5-0.5h12.001c0.276,0,0.5,0.224,0.5,0.5
			S32.277,43.5,32.001,43.5z"/>
	</g>
	<g>
		<path class="st0" d="M40.5,18.5H33c-0.276,0-0.5-0.224-0.5-0.5s0.224-0.5,0.5-0.5h7.5c0.276,0,0.5,0.224,0.5,0.5
			S40.776,18.5,40.5,18.5z"/>
	</g>
	<g>
		<path class="st0" d="M40.5,21.5H33c-0.276,0-0.5-0.224-0.5-0.5s0.224-0.5,0.5-0.5h7.5c0.276,0,0.5,0.224,0.5,0.5
			S40.776,21.5,40.5,21.5z"/>
	</g>
	<g>
		<path class="st0" d="M11,39c-0.276,0-0.5-0.224-0.5-0.5v-1c0-0.276,0.224-0.5,0.5-0.5s0.5,0.224,0.5,0.5v1
			C11.5,38.776,11.276,39,11,39z"/>
	</g>
	<g>
		<path class="st0" d="M11,56c-0.276,0-0.5-0.224-0.5-0.5v-15c0-0.276,0.224-0.5,0.5-0.5s0.5,0.224,0.5,0.5v15
			C11.5,55.776,11.276,56,11,56z"/>
	</g>
	<g>
		<path class="st0" d="M53,30c-0.276,0-0.5-0.224-0.5-0.5v-1c0-0.276,0.224-0.5,0.5-0.5s0.5,0.224,0.5,0.5v1
			C53.5,29.776,53.276,30,53,30z"/>
	</g>
	<g>
		<path class="st0" d="M53,27c-0.276,0-0.5-0.224-0.5-0.5v-15c0-0.276,0.224-0.5,0.5-0.5s0.5,0.224,0.5,0.5v15
			C53.5,26.776,53.276,27,53,27z"/>
	</g>
	<g>
		<path class="st0" d="M14,4h-4C9.724,4,9.5,3.776,9.5,3.5S9.724,3,10,3h4c0.276,0,0.5,0.224,0.5,0.5S14.276,4,14,4z"/>
	</g>
	<g>
		<path class="st0" d="M12,6c-0.276,0-0.5-0.224-0.5-0.5v-4C11.5,1.224,11.724,1,12,1s0.5,0.224,0.5,0.5v4C12.5,5.776,12.276,6,12,6
			z"/>
	</g>
	<g>
		<path class="st0" d="M9,10H5c-0.276,0-0.5-0.224-0.5-0.5S4.724,9,5,9h4c0.276,0,0.5,0.224,0.5,0.5S9.276,10,9,10z"/>
	</g>
	<g>
		<path class="st0" d="M7,12c-0.276,0-0.5-0.224-0.5-0.5v-4C6.5,7.224,6.724,7,7,7s0.5,0.224,0.5,0.5v4C7.5,11.776,7.276,12,7,12z"
			/>
	</g>
	<g>
		<path class="st0" d="M25.5,17.5c-0.276,0-0.5-0.224-0.5-0.5v-1.5c0-0.276,0.224-0.5,0.5-0.5s0.5,0.224,0.5,0.5V17
			C26,17.276,25.776,17.5,25.5,17.5z"/>
	</g>
	<g>
		<path class="st0" d="M25.5,24c-0.276,0-0.5-0.224-0.5-0.5V22c0-0.276,0.224-0.5,0.5-0.5S26,21.724,26,22v1.5
			C26,23.776,25.776,24,25.5,24z"/>
	</g>
	<g>
		<path class="st0" d="M26.25,22.5H23.5c-0.276,0-0.5-0.224-0.5-0.5s0.224-0.5,0.5-0.5h2.75c0.413,0,0.75-0.337,0.75-0.75
			S26.663,20,26.25,20h-1.5C23.785,20,23,19.215,23,18.25s0.785-1.75,1.75-1.75H27c0.276,0,0.5,0.224,0.5,0.5s-0.224,0.5-0.5,0.5
			h-2.25c-0.413,0-0.75,0.337-0.75,0.75S24.337,19,24.75,19h1.5c0.965,0,1.75,0.785,1.75,1.75S27.215,22.5,26.25,22.5z"/>
	</g>
	<g>
		<path class="st0" d="M44,34h-7c-0.276,0-0.5-0.224-0.5-0.5v-3c0-0.276,0.224-0.5,0.5-0.5h7c0.276,0,0.5,0.224,0.5,0.5v3
			C44.5,33.776,44.276,34,44,34z M37.5,33h6v-2h-6V33z"/>
	</g>
	<g>
		<path class="st0" d="M44,39.5h-7c-0.276,0-0.5-0.224-0.5-0.5v-3c0-0.276,0.224-0.5,0.5-0.5h7c0.276,0,0.5,0.224,0.5,0.5v3
			C44.5,39.276,44.276,39.5,44,39.5z M37.5,38.5h6v-2h-6V38.5z"/>
	</g>
</g>
</svg>
