<?xml version="1.0" encoding="utf-8"?>
<!-- Generator: Adobe Illustrator 21.1.0, SVG Export Plug-In . SVG Version: 6.00 Build 0)  -->
<svg version="1.1" id="Icon_Set" xmlns="http://www.w3.org/2000/svg" xmlns:xlink="http://www.w3.org/1999/xlink" x="0px" y="0px"
	 viewBox="0 0 64 64" style="enable-background:new 0 0 64 64;" xml:space="preserve">
<style type="text/css">
	.st0{fill:#263238;}
	.st1{fill:#40C4FF;}
	.st2{fill:#FFD740;}
	.st3{fill:#FF5252;}
	.st4{fill:#4DB6AC;}
	.st5{fill:#FFFFFF;}
	.st6{fill:#4FC3F7;}
</style>
<g id="Chargeback">
	<g>
		<ellipse transform="matrix(0.7071 -0.7071 0.7071 0.7071 -13.2547 32.0003)" class="st2" cx="32" cy="32" rx="20" ry="20"/>
		<path class="st0" d="M32,52.49c-5.25,0-10.499-1.998-14.496-5.995c-7.993-7.993-7.993-20.999,0-28.991
			c7.993-7.993,20.998-7.993,28.991,0c7.993,7.993,7.993,20.999,0,28.991C42.5,50.492,37.25,52.49,32,52.49z M32,12.509
			c-4.994,0-9.987,1.901-13.789,5.702c-7.603,7.603-7.603,19.974,0,27.577c7.604,7.603,19.974,7.603,27.577,0
			c7.603-7.603,7.603-19.974,0-27.577C41.987,14.41,36.994,12.509,32,12.509z"/>
	</g>
	<g>
		<path class="st0" d="M32,47.5c-8.547,0-15.5-6.953-15.5-15.5S23.454,16.5,32,16.5S47.5,23.453,47.5,32S40.547,47.5,32,47.5z
			 M32,17.5c-7.995,0-14.5,6.505-14.5,14.5S24.005,46.5,32,46.5S46.5,39.995,46.5,32S39.996,17.5,32,17.5z"/>
	</g>
	<g>
		<path class="st0" d="M35,7.5c-0.128,0-0.256-0.049-0.354-0.146l-3-3c-0.195-0.195-0.195-0.512,0-0.707l3-3
			c0.195-0.195,0.512-0.195,0.707,0s0.195,0.512,0,0.707L32.707,4l2.646,2.646c0.195,0.195,0.195,0.512,0,0.707
			C35.256,7.451,35.128,7.5,35,7.5z"/>
	</g>
	<g>
		<path class="st0" d="M32,60.5C16.286,60.5,3.5,47.715,3.5,32c0-0.276,0.224-0.5,0.5-0.5s0.5,0.224,0.5,0.5
			c0,15.164,12.336,27.5,27.5,27.5c0.276,0,0.5,0.224,0.5,0.5S32.277,60.5,32,60.5z"/>
	</g>
	<g>
		<path class="st0" d="M29,63.5c-0.128,0-0.256-0.049-0.354-0.146c-0.195-0.195-0.195-0.512,0-0.707L31.293,60l-2.646-2.646
			c-0.195-0.195-0.195-0.512,0-0.707s0.512-0.195,0.707,0l3,3c0.195,0.195,0.195,0.512,0,0.707l-3,3
			C29.256,63.451,29.128,63.5,29,63.5z"/>
	</g>
	<g>
		<path class="st0" d="M60,32.5c-0.276,0-0.5-0.224-0.5-0.5C59.5,16.836,47.164,4.5,32,4.5c-0.276,0-0.5-0.224-0.5-0.5
			s0.224-0.5,0.5-0.5c15.715,0,28.5,12.785,28.5,28.5C60.5,32.276,60.276,32.5,60,32.5z"/>
	</g>
	<g>
		<path class="st0" d="M35,7.5c-0.128,0-0.256-0.049-0.354-0.146l-3-3c-0.195-0.195-0.195-0.512,0-0.707l3-3
			c0.195-0.195,0.512-0.195,0.707,0s0.195,0.512,0,0.707L32.707,4l2.646,2.646c0.195,0.195,0.195,0.512,0,0.707
			C35.256,7.451,35.128,7.5,35,7.5z"/>
	</g>
	<g>
		<path class="st5" d="M34,30.5h-4c-0.827,0-1.5-0.673-1.5-1.5s0.673-1.5,1.5-1.5h7v-3h-3.5V22h-3v2.5H30
			c-2.481,0-4.5,2.019-4.5,4.5s2.019,4.5,4.5,4.5h4c0.827,0,1.5,0.673,1.5,1.5s-0.673,1.5-1.5,1.5h-7.5v3h4V42h3v-2.5H34
			c2.481,0,4.5-2.019,4.5-4.5S36.482,30.5,34,30.5z"/>
		<path class="st0" d="M33.5,42.5h-3c-0.276,0-0.5-0.224-0.5-0.5v-2h-3.5c-0.276,0-0.5-0.224-0.5-0.5v-3c0-0.276,0.224-0.5,0.5-0.5
			H34c0.551,0,1-0.449,1-1s-0.449-1-1-1h-4c-2.757,0-5-2.243-5-5s2.243-5,5-5v-2c0-0.276,0.224-0.5,0.5-0.5h3
			c0.276,0,0.5,0.224,0.5,0.5v2h3c0.276,0,0.5,0.224,0.5,0.5v3c0,0.276-0.224,0.5-0.5,0.5h-7c-0.551,0-1,0.449-1,1s0.449,1,1,1h4
			c2.757,0,5,2.243,5,5s-2.243,5-5,5v2C34,42.276,33.777,42.5,33.5,42.5z M31,41.5h2v-2c0-0.276,0.224-0.5,0.5-0.5H34
			c2.206,0,4-1.794,4-4s-1.794-4-4-4h-4c-1.103,0-2-0.897-2-2s0.897-2,2-2h6.5v-2h-3c-0.276,0-0.5-0.224-0.5-0.5v-2h-2v2
			c0,0.276-0.224,0.5-0.5,0.5H30c-2.206,0-4,1.794-4,4s1.794,4,4,4h4c1.103,0,2,0.897,2,2s-0.897,2-2,2h-7v2h3.5
			c0.276,0,0.5,0.224,0.5,0.5V41.5z"/>
	</g>
	<g>
		<path class="st0" d="M16,9.5c-0.276,0-0.5-0.224-0.5-0.5V5c0-0.276,0.224-0.5,0.5-0.5s0.5,0.224,0.5,0.5v4
			C16.5,9.276,16.277,9.5,16,9.5z"/>
	</g>
	<g>
		<path class="st0" d="M18,7.5h-4c-0.276,0-0.5-0.224-0.5-0.5s0.224-0.5,0.5-0.5h4c0.276,0,0.5,0.224,0.5,0.5S18.277,7.5,18,7.5z"/>
	</g>
	<g>
		<path class="st0" d="M8,18.5c-0.276,0-0.5-0.224-0.5-0.5v-4c0-0.276,0.224-0.5,0.5-0.5s0.5,0.224,0.5,0.5v4
			C8.5,18.276,8.277,18.5,8,18.5z"/>
	</g>
	<g>
		<path class="st0" d="M10,16.5H6c-0.276,0-0.5-0.224-0.5-0.5s0.224-0.5,0.5-0.5h4c0.276,0,0.5,0.224,0.5,0.5S10.277,16.5,10,16.5z"
			/>
	</g>
</g>
</svg>
