<?xml version="1.0" encoding="utf-8"?>
<!-- Generator: Adobe Illustrator 21.1.0, SVG Export Plug-In . SVG Version: 6.00 Build 0)  -->
<svg version="1.1" id="Icon_Set" xmlns="http://www.w3.org/2000/svg" xmlns:xlink="http://www.w3.org/1999/xlink" x="0px" y="0px"
	 viewBox="0 0 64 64" style="enable-background:new 0 0 64 64;" xml:space="preserve">
<style type="text/css">
	.st0{fill:#263238;}
	.st1{fill:#40C4FF;}
	.st2{fill:#FFD740;}
	.st3{fill:#FF5252;}
	.st4{fill:#4DB6AC;}
	.st5{fill:#FFFFFF;}
	.st6{fill:#4FC3F7;}
</style>
<g id="Check">
	<g>
		<path class="st0" d="M54,13.843h-6c-0.276,0-0.5-0.224-0.5-0.5V10.5c0-1.654,1.346-3,3-3h1c1.654,0,3,1.346,3,3v2.843
			C54.5,13.619,54.276,13.843,54,13.843z M48.5,12.843h5V10.5c0-1.103-0.897-2-2-2h-1c-1.103,0-2,0.897-2,2V12.843z"/>
	</g>
	<g>
		<path class="st0" d="M51,47.5c-0.189,0-0.362-0.107-0.447-0.276l-2.736-5.473c-0.207-0.415-0.316-0.879-0.316-1.341V38
			c0-0.276,0.224-0.5,0.5-0.5h6c0.276,0,0.5,0.224,0.5,0.5v2.41c0,0.462-0.109,0.926-0.316,1.34l-2.736,5.474
			C51.362,47.393,51.189,47.5,51,47.5z M48.5,38.5v1.91c0,0.308,0.073,0.617,0.211,0.895L51,45.882l2.289-4.578
			c0.138-0.276,0.211-0.586,0.211-0.894V38.5H48.5z"/>
	</g>
	<g>
		<path class="st0" d="M53,43.5h-4c-0.276,0-0.5-0.224-0.5-0.5s0.224-0.5,0.5-0.5h4c0.276,0,0.5,0.224,0.5,0.5S53.276,43.5,53,43.5z
			"/>
	</g>
	<g>
		
			<rect x="38.671" y="22.671" transform="matrix(1.474988e-13 -1 1 1.474988e-13 25.3287 76.6713)" class="st1" width="24.657" height="6"/>
		<path class="st0" d="M54,38.5h-6c-0.276,0-0.5-0.224-0.5-0.5V13.343c0-0.276,0.224-0.5,0.5-0.5h6c0.276,0,0.5,0.224,0.5,0.5V38
			C54.5,38.276,54.276,38.5,54,38.5z M48.5,37.5h5V13.843h-5V37.5z"/>
	</g>
	<g>
		<path class="st0" d="M56.5,55.5h-49c-1.654,0-3-1.346-3-3v-30c0-1.654,1.346-3,3-3H46c0.276,0,0.5,0.224,0.5,0.5
			s-0.224,0.5-0.5,0.5H7.5c-1.103,0-2,0.897-2,2v30c0,1.103,0.897,2,2,2h49c1.103,0,2-0.897,2-2v-30c0-1.103-0.897-2-2-2H56
			c-0.276,0-0.5-0.224-0.5-0.5s0.224-0.5,0.5-0.5h0.5c1.654,0,3,1.346,3,3v30C59.5,54.154,58.154,55.5,56.5,55.5z"/>
	</g>
	<g>
		<path class="st0" d="M44.37,6.5h-4c-0.276,0-0.5-0.224-0.5-0.5s0.224-0.5,0.5-0.5h4c0.276,0,0.5,0.224,0.5,0.5
			S44.646,6.5,44.37,6.5z"/>
	</g>
	<g>
		<path class="st0" d="M42.37,8.5c-0.276,0-0.5-0.224-0.5-0.5V4c0-0.276,0.224-0.5,0.5-0.5s0.5,0.224,0.5,0.5v4
			C42.87,8.276,42.646,8.5,42.37,8.5z"/>
	</g>
	<g>
		<path class="st0" d="M38.37,12.5h-4c-0.276,0-0.5-0.224-0.5-0.5s0.224-0.5,0.5-0.5h4c0.276,0,0.5,0.224,0.5,0.5
			S38.646,12.5,38.37,12.5z"/>
	</g>
	<g>
		<path class="st0" d="M36.37,14.5c-0.276,0-0.5-0.224-0.5-0.5v-4c0-0.276,0.224-0.5,0.5-0.5s0.5,0.224,0.5,0.5v4
			C36.87,14.276,36.646,14.5,36.37,14.5z"/>
	</g>
	<g>
		<path class="st0" d="M17,41c-0.276,0-0.5-0.224-0.5-0.5V39c0-0.276,0.224-0.5,0.5-0.5s0.5,0.224,0.5,0.5v1.5
			C17.5,40.776,17.276,41,17,41z"/>
	</g>
	<g>
		<path class="st0" d="M17,47.5c-0.276,0-0.5-0.224-0.5-0.5v-1.5c0-0.276,0.224-0.5,0.5-0.5s0.5,0.224,0.5,0.5V47
			C17.5,47.276,17.276,47.5,17,47.5z"/>
	</g>
	<g>
		<path class="st0" d="M17.75,46H15c-0.276,0-0.5-0.224-0.5-0.5S14.724,45,15,45h2.75c0.414,0,0.75-0.337,0.75-0.75
			s-0.336-0.75-0.75-0.75h-1.5c-0.965,0-1.75-0.785-1.75-1.75S15.285,40,16.25,40h2.25c0.276,0,0.5,0.224,0.5,0.5S18.776,41,18.5,41
			h-2.25c-0.414,0-0.75,0.337-0.75,0.75s0.336,0.75,0.75,0.75h1.5c0.965,0,1.75,0.785,1.75,1.75S18.715,46,17.75,46z"/>
	</g>
	<g>
		<rect x="10" y="25" class="st2" width="32" height="6"/>
		<path class="st0" d="M42,31.5H10c-0.276,0-0.5-0.224-0.5-0.5v-6c0-0.276,0.224-0.5,0.5-0.5h32c0.276,0,0.5,0.224,0.5,0.5v6
			C42.5,31.276,42.276,31.5,42,31.5z M10.5,30.5h31v-5h-31V30.5z"/>
	</g>
	<g>
		<path class="st0" d="M42,39.5H28c-0.276,0-0.5-0.224-0.5-0.5s0.224-0.5,0.5-0.5h14c0.276,0,0.5,0.224,0.5,0.5S42.276,39.5,42,39.5
			z"/>
	</g>
	<g>
		<path class="st0" d="M42,43.5H28c-0.276,0-0.5-0.224-0.5-0.5s0.224-0.5,0.5-0.5h14c0.276,0,0.5,0.224,0.5,0.5S42.276,43.5,42,43.5
			z"/>
	</g>
	<g>
		<path class="st0" d="M42,47.5H28c-0.276,0-0.5-0.224-0.5-0.5s0.224-0.5,0.5-0.5h14c0.276,0,0.5,0.224,0.5,0.5S42.276,47.5,42,47.5
			z"/>
	</g>
	<g>
		<path class="st0" d="M11,15.5h-1c-0.276,0-0.5-0.224-0.5-0.5s0.224-0.5,0.5-0.5h1c0.276,0,0.5,0.224,0.5,0.5S11.276,15.5,11,15.5z
			"/>
	</g>
	<g>
		<path class="st0" d="M28,15.5H13c-0.276,0-0.5-0.224-0.5-0.5s0.224-0.5,0.5-0.5h15c0.276,0,0.5,0.224,0.5,0.5S28.276,15.5,28,15.5
			z"/>
	</g>
	<g>
		<path class="st0" d="M58,60.5h-1c-0.276,0-0.5-0.224-0.5-0.5s0.224-0.5,0.5-0.5h1c0.276,0,0.5,0.224,0.5,0.5S58.276,60.5,58,60.5z
			"/>
	</g>
	<g>
		<path class="st0" d="M55,60.5H40c-0.276,0-0.5-0.224-0.5-0.5s0.224-0.5,0.5-0.5h15c0.276,0,0.5,0.224,0.5,0.5S55.276,60.5,55,60.5
			z"/>
	</g>
	<g>
		<path class="st0" d="M23,50.5H11c-0.827,0-1.5-0.673-1.5-1.5V37c0-0.827,0.673-1.5,1.5-1.5h12c0.827,0,1.5,0.673,1.5,1.5v12
			C24.5,49.827,23.827,50.5,23,50.5z M11,36.5c-0.276,0-0.5,0.225-0.5,0.5v12c0,0.275,0.224,0.5,0.5,0.5h12
			c0.276,0,0.5-0.225,0.5-0.5V37c0-0.275-0.224-0.5-0.5-0.5H11z"/>
	</g>
</g>
</svg>
