<?xml version="1.0" encoding="utf-8"?>
<!-- Generator: Adobe Illustrator 21.1.0, SVG Export Plug-In . SVG Version: 6.00 Build 0)  -->
<svg version="1.1" id="Icon_Set" xmlns="http://www.w3.org/2000/svg" xmlns:xlink="http://www.w3.org/1999/xlink" x="0px" y="0px"
	 viewBox="0 0 64 64" style="enable-background:new 0 0 64 64;" xml:space="preserve">
<style type="text/css">
	.st0{fill:#263238;}
	.st1{fill:#40C4FF;}
	.st2{fill:#FFD740;}
	.st3{fill:#FF5252;}
	.st4{fill:#4DB6AC;}
	.st5{fill:#FFFFFF;}
	.st6{fill:#4FC3F7;}
</style>
<g id="Chinese_Yuan">
	<g>
		<path class="st0" d="M62.501,55.25h-61c-0.827,0-1.5-0.673-1.5-1.5v-34c0-0.827,0.673-1.5,1.5-1.5h61c0.827,0,1.5,0.673,1.5,1.5
			v34C64.001,54.577,63.328,55.25,62.501,55.25z M1.501,19.25c-0.276,0-0.5,0.224-0.5,0.5v34c0,0.276,0.224,0.5,0.5,0.5h61
			c0.275,0,0.5-0.224,0.5-0.5v-34c0-0.276-0.225-0.5-0.5-0.5H1.501z"/>
	</g>
	<g>
		<path class="st0" d="M58.001,49.75h-52c-0.276,0-0.5-0.224-0.5-0.5v-25c0-0.276,0.224-0.5,0.5-0.5h52c0.276,0,0.5,0.224,0.5,0.5
			v25C58.501,49.526,58.277,49.75,58.001,49.75z M6.501,48.75h51v-24h-51V48.75z"/>
	</g>
	<g>
		<path class="st0" d="M3.501,30.25c-0.276,0-0.5-0.224-0.5-0.5v-8c0-0.276,0.224-0.5,0.5-0.5h8c0.276,0,0.5,0.224,0.5,0.5
			C12.001,26.437,8.188,30.25,3.501,30.25z M4.001,22.25v6.983c3.738-0.247,6.736-3.246,6.983-6.983H4.001z"/>
	</g>
	<g>
		<path class="st0" d="M60.501,30.25c-4.687,0-8.5-3.813-8.5-8.5c0-0.276,0.224-0.5,0.5-0.5h8c0.276,0,0.5,0.224,0.5,0.5v8
			C61.001,30.026,60.777,30.25,60.501,30.25z M53.018,22.25c0.247,3.738,3.246,6.736,6.983,6.983V22.25H53.018z"/>
	</g>
	<g>
		<path class="st0" d="M60.501,52.25h-8c-0.276,0-0.5-0.224-0.5-0.5c0-4.687,3.813-8.5,8.5-8.5c0.276,0,0.5,0.224,0.5,0.5v8
			C61.001,52.026,60.777,52.25,60.501,52.25z M53.018,51.25h6.983v-6.983C56.264,44.514,53.265,47.512,53.018,51.25z"/>
	</g>
	<g>
		<path class="st0" d="M11.501,52.25h-8c-0.276,0-0.5-0.224-0.5-0.5v-8c0-0.276,0.224-0.5,0.5-0.5c4.687,0,8.5,3.813,8.5,8.5
			C12.001,52.026,11.777,52.25,11.501,52.25z M4.001,51.25h6.983c-0.247-3.738-3.246-6.736-6.983-6.983V51.25z"/>
	</g>
	<g>
		<circle class="st3" cx="32" cy="36.75" r="15"/>
		<path class="st0" d="M32,52.25c-8.547,0-15.5-6.953-15.5-15.5s6.953-15.5,15.5-15.5c8.546,0,15.5,6.953,15.5,15.5
			S40.547,52.25,32,52.25z M32,22.25c-7.995,0-14.5,6.505-14.5,14.5s6.505,14.5,14.5,14.5c7.995,0,14.5-6.505,14.5-14.5
			S39.995,22.25,32,22.25z"/>
	</g>
	<g>
		<path class="st0" d="M44.001,15.25h-2c-0.276,0-0.5-0.224-0.5-0.5s0.224-0.5,0.5-0.5h2c0.276,0,0.5,0.224,0.5,0.5
			S44.277,15.25,44.001,15.25z"/>
	</g>
	<g>
		<path class="st0" d="M40.001,15.25h-20c-0.276,0-0.5-0.224-0.5-0.5s0.224-0.5,0.5-0.5h20c0.276,0,0.5,0.224,0.5,0.5
			S40.277,15.25,40.001,15.25z"/>
	</g>
	<g>
		<path class="st0" d="M22.001,59.25h-2c-0.276,0-0.5-0.224-0.5-0.5s0.224-0.5,0.5-0.5h2c0.276,0,0.5,0.224,0.5,0.5
			S22.277,59.25,22.001,59.25z"/>
	</g>
	<g>
		<path class="st0" d="M44.001,59.25h-20c-0.276,0-0.5-0.224-0.5-0.5s0.224-0.5,0.5-0.5h20c0.276,0,0.5,0.224,0.5,0.5
			S44.277,59.25,44.001,59.25z"/>
	</g>
	<g>
		<polygon class="st5" points="38.249,30.582 35.753,28.918 32.001,34.546 28.249,28.918 25.753,30.582 29.198,35.75 26.001,35.75 
			26.001,38.75 30.501,38.75 30.501,44.75 33.501,44.75 33.501,38.75 38.001,38.75 38.001,35.75 34.803,35.75 		"/>
		<path class="st0" d="M33.501,45.25h-3c-0.276,0-0.5-0.224-0.5-0.5v-5.5h-4c-0.276,0-0.5-0.224-0.5-0.5v-3
			c0-0.276,0.224-0.5,0.5-0.5h2.263l-2.927-4.391c-0.153-0.23-0.091-0.54,0.139-0.693l2.496-1.664
			c0.229-0.154,0.541-0.091,0.693,0.139l3.336,5.004l3.336-5.004c0.153-0.23,0.466-0.291,0.693-0.139l2.496,1.664
			c0.229,0.153,0.292,0.463,0.139,0.693l-2.927,4.391h2.263c0.276,0,0.5,0.224,0.5,0.5v3c0,0.276-0.224,0.5-0.5,0.5h-4v5.5
			C34.001,45.026,33.777,45.25,33.501,45.25z M31.001,44.25h2v-5.5c0-0.276,0.224-0.5,0.5-0.5h4v-2h-2.697
			c-0.185,0-0.354-0.102-0.44-0.264c-0.088-0.163-0.078-0.36,0.024-0.513l3.168-4.752l-1.664-1.109l-3.475,5.212
			c-0.186,0.278-0.646,0.278-0.832,0l-3.475-5.212l-1.664,1.109l3.168,4.752c0.103,0.153,0.112,0.351,0.025,0.513
			s-0.256,0.264-0.441,0.264h-2.697v2h4c0.276,0,0.5,0.224,0.5,0.5V44.25z"/>
	</g>
	<g>
		<path class="st0" d="M17.001,7.75h-4c-0.276,0-0.5-0.224-0.5-0.5s0.224-0.5,0.5-0.5h4c0.276,0,0.5,0.224,0.5,0.5
			S17.277,7.75,17.001,7.75z"/>
	</g>
	<g>
		<path class="st0" d="M15.001,9.75c-0.276,0-0.5-0.224-0.5-0.5v-4c0-0.276,0.224-0.5,0.5-0.5s0.5,0.224,0.5,0.5v4
			C15.501,9.526,15.277,9.75,15.001,9.75z"/>
	</g>
	<g>
		<path class="st0" d="M9.001,13.25h-4c-0.276,0-0.5-0.224-0.5-0.5s0.224-0.5,0.5-0.5h4c0.276,0,0.5,0.224,0.5,0.5
			S9.277,13.25,9.001,13.25z"/>
	</g>
	<g>
		<path class="st0" d="M7,15.25L7,15.25c-0.276,0-0.5-0.224-0.5-0.5l0-4c0-0.276,0.224-0.5,0.5-0.5l0,0c0.276,0,0.5,0.224,0.5,0.5
			l0,4C7.5,15.026,7.276,15.25,7,15.25z"/>
	</g>
</g>
</svg>
