<?xml version="1.0" encoding="utf-8"?>
<!-- Generator: Adobe Illustrator 21.1.0, SVG Export Plug-In . SVG Version: 6.00 Build 0)  -->
<svg version="1.1" id="Icon_Set" xmlns="http://www.w3.org/2000/svg" xmlns:xlink="http://www.w3.org/1999/xlink" x="0px" y="0px"
	 viewBox="0 0 64 64" style="enable-background:new 0 0 64 64;" xml:space="preserve">
<style type="text/css">
	.st0{fill:#263238;}
	.st1{fill:#40C4FF;}
	.st2{fill:#FFD740;}
	.st3{fill:#FF5252;}
	.st4{fill:#4DB6AC;}
	.st5{fill:#FFFFFF;}
	.st6{fill:#4FC3F7;}
</style>
<g id="Data_Mining">
	<g>
		<path class="st0" d="M32.5,34h-21c-0.276,0-0.5-0.224-0.5-0.5s0.224-0.5,0.5-0.5h21c0.276,0,0.5,0.224,0.5,0.5S32.776,34,32.5,34z
			"/>
	</g>
	<g>
		<path class="st0" d="M32.5,39h-21c-0.276,0-0.5-0.224-0.5-0.5s0.224-0.5,0.5-0.5h21c0.276,0,0.5,0.224,0.5,0.5S32.776,39,32.5,39z
			"/>
	</g>
	<g>
		<path class="st0" d="M32.5,44h-21c-0.276,0-0.5-0.224-0.5-0.5s0.224-0.5,0.5-0.5h21c0.276,0,0.5,0.224,0.5,0.5S32.776,44,32.5,44z
			"/>
	</g>
	<g>
		<path class="st0" d="M60,15h-4c-0.276,0-0.5-0.224-0.5-0.5S55.724,14,56,14h4c0.276,0,0.5,0.224,0.5,0.5S60.276,15,60,15z"/>
	</g>
	<g>
		<path class="st0" d="M58,17c-0.276,0-0.5-0.224-0.5-0.5v-4c0-0.276,0.224-0.5,0.5-0.5s0.5,0.224,0.5,0.5v4
			C58.5,16.776,58.276,17,58,17z"/>
	</g>
	<g>
		<path class="st0" d="M52,21.5h-4c-0.276,0-0.5-0.224-0.5-0.5s0.224-0.5,0.5-0.5h4c0.276,0,0.5,0.224,0.5,0.5S52.276,21.5,52,21.5z
			"/>
	</g>
	<g>
		<path class="st0" d="M50,23.5c-0.276,0-0.5-0.224-0.5-0.5v-4c0-0.276,0.224-0.5,0.5-0.5s0.5,0.224,0.5,0.5v4
			C50.5,23.276,50.276,23.5,50,23.5z"/>
	</g>
	<g>
		<path class="st0" d="M33.02,59c-0.401,0-0.778-0.156-1.061-0.439l-1.414-1.414c-0.283-0.283-0.439-0.66-0.439-1.061
			s0.156-0.777,0.439-1.061l19.798-19.799c0.585-0.585,1.535-0.587,2.122,0l1.414,1.414c0.283,0.283,0.439,0.66,0.439,1.061
			s-0.156,0.777-0.439,1.061L34.08,58.561C33.797,58.844,33.42,59,33.02,59z M51.404,35.787c-0.129,0-0.257,0.049-0.354,0.146
			L31.251,55.732c-0.195,0.195-0.195,0.512,0,0.707l1.414,1.414c0.196,0.195,0.512,0.196,0.708,0l19.799-19.799
			c0.195-0.195,0.195-0.512,0-0.707l-1.414-1.414C51.66,35.836,51.532,35.787,51.404,35.787z"/>
	</g>
	<g>
		<path class="st3" d="M44.333,40.529l4.243,4.243c0.391,0.391,1.024,0.391,1.414,0l2.828-2.828c0.391-0.391,0.391-1.024,0-1.414
			l-4.243-4.243c-0.391-0.391-1.024-0.391-1.414,0l-2.828,2.828C43.942,39.506,43.942,40.139,44.333,40.529z"/>
		<path class="st0" d="M49.282,45.564c-0.384,0-0.769-0.146-1.061-0.438l-4.242-4.243c-0.585-0.585-0.585-1.536,0-2.121l2.828-2.828
			c0.584-0.584,1.537-0.584,2.121,0l4.243,4.242c0.585,0.585,0.585,1.536,0,2.121l-2.829,2.829
			C50.051,45.418,49.666,45.564,49.282,45.564z M47.868,36.494c-0.128,0-0.256,0.049-0.354,0.146l-2.828,2.828
			c-0.195,0.195-0.195,0.512,0,0.707l0,0l4.242,4.243c0.195,0.195,0.512,0.195,0.707,0l2.829-2.829c0.195-0.195,0.195-0.512,0-0.707
			l-4.243-4.242C48.124,36.543,47.996,36.494,47.868,36.494z"/>
	</g>
	<g>
		<path class="st0" d="M42.919,38.201c-0.128,0-0.256-0.049-0.354-0.146l-6.364-6.364c-0.146-0.146-0.188-0.369-0.103-0.559
			c0.085-0.188,0.281-0.318,0.485-0.294l3.164,0.187c1.957,0.114,3.799,0.941,5.187,2.329l1.166,1.166
			c0.195,0.195,0.195,0.512,0,0.707s-0.512,0.195-0.707,0l-1.166-1.166c-1.214-1.214-2.825-1.938-4.538-2.038l-1.852-0.109
			l5.435,5.435c0.195,0.195,0.195,0.512,0,0.707C43.175,38.152,43.047,38.201,42.919,38.201z"/>
	</g>
	<g>
		<path class="st0" d="M54.586,49.453c-0.384,0-0.769-0.146-1.061-0.438L51.05,46.54c-0.195-0.195-0.195-0.512,0-0.707
			s0.512-0.195,0.707,0l2.476,2.475c0.195,0.195,0.512,0.195,0.707,0l1.414-1.414c0.195-0.195,0.195-0.512,0-0.707l-2.475-2.476
			c-0.195-0.195-0.195-0.512,0-0.707s0.512-0.195,0.707,0l2.475,2.476c0.585,0.585,0.585,1.536,0,2.121l-1.414,1.414
			C55.354,49.307,54.97,49.453,54.586,49.453z"/>
	</g>
	<g>
		<path class="st0" d="M29.948,54H6.5c-1.654,0-3-1.346-3-3V8c0-1.654,1.346-3,3-3h31c1.654,0,3,1.346,3,3v21.545
			c0,0.276-0.224,0.5-0.5,0.5s-0.5-0.224-0.5-0.5V8c0-1.103-0.897-2-2-2h-31c-1.103,0-2,0.897-2,2v43c0,1.103,0.897,2,2,2h23.448
			c0.276,0,0.5,0.224,0.5,0.5S30.225,54,29.948,54z"/>
	</g>
	<g>
		<path class="st0" d="M40,43.948c-0.276,0-0.5-0.224-0.5-0.5V37.61c0-0.276,0.224-0.5,0.5-0.5s0.5,0.224,0.5,0.5v5.838
			C40.5,43.725,40.276,43.948,40,43.948z"/>
	</g>
	<g>
		<rect x="11.5" y="22.5" class="st4" width="4.5" height="6"/>
		<path class="st0" d="M16,29h-4.5c-0.276,0-0.5-0.224-0.5-0.5v-6c0-0.276,0.224-0.5,0.5-0.5H16c0.276,0,0.5,0.224,0.5,0.5v6
			C16.5,28.776,16.276,29,16,29z M12,28h3.5v-5H12V28z"/>
	</g>
	<g>
		<rect x="19.75" y="14.5" class="st2" width="4.5" height="14"/>
		<path class="st0" d="M24.25,29h-4.5c-0.276,0-0.5-0.224-0.5-0.5v-14c0-0.276,0.224-0.5,0.5-0.5h4.5c0.276,0,0.5,0.224,0.5,0.5v14
			C24.75,28.776,24.526,29,24.25,29z M20.25,28h3.5V15h-3.5V28z"/>
	</g>
	<g>
		<rect x="28" y="19" class="st1" width="4.5" height="9.5"/>
		<path class="st0" d="M32.5,29H28c-0.276,0-0.5-0.224-0.5-0.5V19c0-0.276,0.224-0.5,0.5-0.5h4.5c0.276,0,0.5,0.224,0.5,0.5v9.5
			C33,28.776,32.777,29,32.5,29z M28.5,28H32v-8.5h-3.5V28z"/>
	</g>
	<g>
		<path class="st0" d="M59.062,56h-1c-0.276,0-0.5-0.224-0.5-0.5s0.224-0.5,0.5-0.5h1c0.276,0,0.5,0.224,0.5,0.5
			S59.339,56,59.062,56z"/>
	</g>
	<g>
		<path class="st0" d="M56.062,56h-11c-0.276,0-0.5-0.224-0.5-0.5s0.224-0.5,0.5-0.5h11c0.276,0,0.5,0.224,0.5,0.5
			S56.339,56,56.062,56z"/>
	</g>
	<g>
		<path class="st0" d="M51.062,59h-11c-0.276,0-0.5-0.224-0.5-0.5s0.224-0.5,0.5-0.5h11c0.276,0,0.5,0.224,0.5,0.5
			S51.339,59,51.062,59z"/>
	</g>
</g>
</svg>
