<?xml version="1.0" encoding="utf-8"?>
<!-- Generator: Adobe Illustrator 21.1.0, SVG Export Plug-In . SVG Version: 6.00 Build 0)  -->
<svg version="1.1" id="Icon_Set" xmlns="http://www.w3.org/2000/svg" xmlns:xlink="http://www.w3.org/1999/xlink" x="0px" y="0px"
	 viewBox="0 0 64 64" style="enable-background:new 0 0 64 64;" xml:space="preserve">
<style type="text/css">
	.st0{fill:#263238;}
	.st1{fill:#40C4FF;}
	.st2{fill:#FFD740;}
	.st3{fill:#FF5252;}
	.st4{fill:#4DB6AC;}
	.st5{fill:#FFFFFF;}
	.st6{fill:#4FC3F7;}
</style>
<g id="Deposit">
	<g>
		<path class="st2" d="M34.75,27.233c0-2.054,1.247-3.82,3.023-4.588c-1.447-2.055-3.818-3.411-6.523-3.411c-4.418,0-8,3.582-8,8
			s3.582,8,8,8c2.705,0,5.076-1.356,6.523-3.412C35.997,31.053,34.75,29.287,34.75,27.233z"/>
	</g>
	<g>
		<path class="st0" d="M31.25,35.733c-4.687,0-8.5-3.813-8.5-8.5s3.813-8.5,8.5-8.5c2.743,0,5.334,1.354,6.932,3.623
			c0.158,0.227,0.104,0.538-0.121,0.697c-0.226,0.158-0.538,0.104-0.697-0.121c-1.409-2.003-3.695-3.199-6.113-3.199
			c-4.136,0-7.5,3.364-7.5,7.5s3.364,7.5,7.5,7.5c2.418,0,4.704-1.196,6.113-3.2c0.159-0.225,0.472-0.28,0.697-0.121
			s0.279,0.471,0.121,0.697C36.585,34.379,33.993,35.733,31.25,35.733z"/>
	</g>
	<g>
		<path class="st0" d="M31.25,25.233c-0.276,0-0.5-0.224-0.5-0.5v-1.5c0-0.276,0.224-0.5,0.5-0.5s0.5,0.224,0.5,0.5v1.5
			C31.75,25.01,31.526,25.233,31.25,25.233z"/>
	</g>
	<g>
		<path class="st0" d="M31.25,31.733c-0.276,0-0.5-0.224-0.5-0.5v-1.5c0-0.276,0.224-0.5,0.5-0.5s0.5,0.224,0.5,0.5v1.5
			C31.75,31.51,31.526,31.733,31.25,31.733z"/>
	</g>
	<g>
		<path class="st0" d="M32,30.233h-2.75c-0.276,0-0.5-0.224-0.5-0.5s0.224-0.5,0.5-0.5H32c0.413,0,0.75-0.337,0.75-0.75
			s-0.337-0.75-0.75-0.75h-1.5c-0.965,0-1.75-0.785-1.75-1.75s0.785-1.75,1.75-1.75h2.25c0.276,0,0.5,0.224,0.5,0.5
			s-0.224,0.5-0.5,0.5H30.5c-0.413,0-0.75,0.337-0.75,0.75s0.337,0.75,0.75,0.75H32c0.965,0,1.75,0.785,1.75,1.75
			S32.965,30.233,32,30.233z"/>
	</g>
	<g>
		<path class="st0" d="M27.455,18.142c-0.167,0-0.331-0.084-0.426-0.237c-0.145-0.235-0.072-0.543,0.163-0.688l13.01-8.029
			c4.033-2.487,9.1-2.584,13.225-0.254l3.352,1.895c1.05,0.593,2.241,0.906,3.444,0.906h1.527c0.276,0,0.5,0.224,0.5,0.5
			s-0.224,0.5-0.5,0.5h-1.527c-1.376,0-2.736-0.358-3.937-1.035l-3.352-1.895c-3.807-2.152-8.484-2.063-12.207,0.234l-13.01,8.029
			C27.636,18.117,27.545,18.142,27.455,18.142z"/>
	</g>
	<g>
		<path class="st0" d="M46.047,30.733H39.75c-1.93,0-3.5-1.57-3.5-3.5s1.57-3.5,3.5-3.5h2.981c2.216,0,4.019-1.803,4.019-4.02
			c0-1.467-0.763-2.774-2.039-3.497c-1.278-0.724-2.79-0.703-4.048,0.052l-3.156,1.894c-0.234,0.145-0.543,0.065-0.686-0.172
			c-0.143-0.236-0.065-0.544,0.172-0.686l3.156-1.894c1.57-0.942,3.46-0.967,5.055-0.064c1.594,0.902,2.546,2.535,2.546,4.367
			c0,2.768-2.251,5.02-5.019,5.02H39.75c-1.379,0-2.5,1.121-2.5,2.5s1.121,2.5,2.5,2.5h6.297c1.345,0,2.654-0.385,3.785-1.112
			l2.677-1.721c1.697-1.091,3.66-1.667,5.679-1.667h3.562c0.276,0,0.5,0.224,0.5,0.5s-0.224,0.5-0.5,0.5h-3.562
			c-1.826,0-3.603,0.521-5.138,1.509l-2.677,1.721C49.08,30.294,47.584,30.733,46.047,30.733z"/>
	</g>
	<g>
		<path class="st0" d="M51.25,64.25h-41c-1.654,0-3-1.346-3-3v-19c0-1.654,1.346-3,3-3h41c1.654,0,3,1.346,3,3v19
			C54.25,62.904,52.904,64.25,51.25,64.25z M10.25,40.25c-1.103,0-2,0.897-2,2v19c0,1.103,0.897,2,2,2h41c1.103,0,2-0.897,2-2v-19
			c0-1.103-0.897-2-2-2H10.25z"/>
	</g>
	<g>
		<path class="st0" d="M38.75,46.25h-16c-0.827,0-1.5-0.673-1.5-1.5v-1c0-0.827,0.673-1.5,1.5-1.5h16c0.827,0,1.5,0.673,1.5,1.5v1
			C40.25,45.577,39.577,46.25,38.75,46.25z M22.75,43.25c-0.275,0-0.5,0.225-0.5,0.5v1c0,0.275,0.225,0.5,0.5,0.5h16
			c0.275,0,0.5-0.225,0.5-0.5v-1c0-0.275-0.225-0.5-0.5-0.5H22.75z"/>
	</g>
	<g>
		<path class="st1" d="M17.25,23.75h-14c-0.552,0-1-0.448-1-1v-14c0-0.552,0.448-1,1-1h14c0.552,0,1,0.448,1,1v14
			C18.25,23.302,17.802,23.75,17.25,23.75z"/>
		<path class="st0" d="M17.25,24.25h-14c-0.827,0-1.5-0.673-1.5-1.5v-14c0-0.827,0.673-1.5,1.5-1.5h14c0.827,0,1.5,0.673,1.5,1.5v14
			C18.75,23.577,18.077,24.25,17.25,24.25z M3.25,8.25c-0.275,0-0.5,0.225-0.5,0.5v14c0,0.275,0.225,0.5,0.5,0.5h14
			c0.275,0,0.5-0.225,0.5-0.5v-14c0-0.275-0.225-0.5-0.5-0.5H3.25z"/>
	</g>
	<g>
		<path class="st0" d="M7.75,15.25c-1.103,0-2-0.897-2-2s0.897-2,2-2s2,0.897,2,2S8.853,15.25,7.75,15.25z M7.75,12.25
			c-0.552,0-1,0.448-1,1s0.448,1,1,1s1-0.448,1-1S8.302,12.25,7.75,12.25z"/>
	</g>
	<g>
		<path class="st0" d="M12.75,20.25c-1.103,0-2-0.897-2-2s0.897-2,2-2s2,0.897,2,2S13.853,20.25,12.75,20.25z M12.75,17.25
			c-0.552,0-1,0.448-1,1s0.448,1,1,1s1-0.448,1-1S13.302,17.25,12.75,17.25z"/>
	</g>
	<g>
		<path class="st0" d="M6.25,20.25c-0.128,0-0.256-0.049-0.354-0.146c-0.195-0.195-0.195-0.512,0-0.707l8-8
			c0.195-0.195,0.512-0.195,0.707,0s0.195,0.512,0,0.707l-8,8C6.506,20.201,6.378,20.25,6.25,20.25z"/>
	</g>
	<g>
		<path class="st0" d="M3.75,46.25c-0.276,0-0.5-0.224-0.5-0.5v-1c0-0.276,0.224-0.5,0.5-0.5s0.5,0.224,0.5,0.5v1
			C4.25,46.026,4.026,46.25,3.75,46.25z"/>
	</g>
	<g>
		<path class="st0" d="M3.75,59.25c-0.276,0-0.5-0.224-0.5-0.5v-11c0-0.276,0.224-0.5,0.5-0.5s0.5,0.224,0.5,0.5v11
			C4.25,59.026,4.026,59.25,3.75,59.25z"/>
	</g>
	<g>
		<path class="st0" d="M57.75,59.25c-0.276,0-0.5-0.224-0.5-0.5v-1c0-0.276,0.224-0.5,0.5-0.5s0.5,0.224,0.5,0.5v1
			C58.25,59.026,58.026,59.25,57.75,59.25z"/>
	</g>
	<g>
		<path class="st0" d="M57.75,56.25c-0.276,0-0.5-0.224-0.5-0.5v-11c0-0.276,0.224-0.5,0.5-0.5s0.5,0.224,0.5,0.5v11
			C58.25,56.026,58.026,56.25,57.75,56.25z"/>
	</g>
	<g>
		<path class="st0" d="M36.75,2.75h-4c-0.276,0-0.5-0.224-0.5-0.5s0.224-0.5,0.5-0.5h4c0.276,0,0.5,0.224,0.5,0.5
			S37.026,2.75,36.75,2.75z"/>
	</g>
	<g>
		<path class="st0" d="M34.75,4.75c-0.276,0-0.5-0.224-0.5-0.5v-4c0-0.276,0.224-0.5,0.5-0.5s0.5,0.224,0.5,0.5v4
			C35.25,4.526,35.026,4.75,34.75,4.75z"/>
	</g>
	<g>
		<path class="st0" d="M28.75,8.25h-4c-0.276,0-0.5-0.224-0.5-0.5s0.224-0.5,0.5-0.5h4c0.276,0,0.5,0.224,0.5,0.5
			S29.026,8.25,28.75,8.25z"/>
	</g>
	<g>
		<path class="st0" d="M26.75,10.25c-0.276,0-0.5-0.224-0.5-0.5v-4c0-0.276,0.224-0.5,0.5-0.5s0.5,0.224,0.5,0.5v4
			C27.25,10.026,27.026,10.25,26.75,10.25z"/>
	</g>
</g>
</svg>
