<?xml version="1.0" encoding="utf-8"?>
<!-- Generator: Adobe Illustrator 21.1.0, SVG Export Plug-In . SVG Version: 6.00 Build 0)  -->
<svg version="1.1" id="Icon_Set" xmlns="http://www.w3.org/2000/svg" xmlns:xlink="http://www.w3.org/1999/xlink" x="0px" y="0px"
	 viewBox="0 0 64 64" style="enable-background:new 0 0 64 64;" xml:space="preserve">
<style type="text/css">
	.st0{fill:#263238;}
	.st1{fill:#40C4FF;}
	.st2{fill:#FFD740;}
	.st3{fill:#FF5252;}
	.st4{fill:#4DB6AC;}
	.st5{fill:#FFFFFF;}
	.st6{fill:#4FC3F7;}
</style>
<g id="Email_Transfer">
	<g>
		<rect x="14.25" y="20.863" class="st2" width="28" height="12"/>
	</g>
	<g>
		<path class="st0" d="M49.5,58.5h-42C7.224,58.5,7,58.276,7,58V29c0-0.276,0.224-0.5,0.5-0.5S8,28.724,8,29v28.5h41V29
			c0-0.276,0.224-0.5,0.5-0.5S50,28.724,50,29v29C50,58.276,49.776,58.5,49.5,58.5z"/>
	</g>
	<g>
		<path class="st0" d="M49.5,58.5h-42c-0.193,0-0.37-0.112-0.452-0.287c-0.083-0.176-0.057-0.383,0.067-0.532l13.735-16.572
			c0.087-0.105,0.213-0.17,0.349-0.18c0.15-0.009,0.271,0.037,0.371,0.128l6.93,6.269l6.93-6.269
			c0.101-0.091,0.226-0.135,0.371-0.128c0.136,0.01,0.262,0.075,0.349,0.18l13.735,16.572c0.124,0.149,0.15,0.356,0.067,0.532
			C49.87,58.388,49.693,58.5,49.5,58.5z M8.563,57.5h39.873L35.713,42.149l-6.878,6.222c-0.189,0.173-0.48,0.173-0.67,0
			l-6.878-6.222L8.563,57.5z"/>
	</g>
	<g>
		<path class="st0" d="M28.5,48.5c-0.136,0-0.272-0.056-0.371-0.165c-0.185-0.205-0.169-0.521,0.035-0.706L48.755,29l-4.841-4.38
			c-0.204-0.185-0.22-0.501-0.035-0.706c0.187-0.205,0.504-0.22,0.707-0.035l5.25,4.75C49.94,28.724,50,28.859,50,29
			s-0.06,0.276-0.164,0.371l-21,19C28.74,48.458,28.62,48.5,28.5,48.5z"/>
	</g>
	<g>
		<path class="st0" d="M34.397,15.836c-0.12,0-0.24-0.042-0.336-0.129L28.5,10.674l-5.562,5.032
			c-0.204,0.186-0.521,0.17-0.707-0.035c-0.185-0.205-0.169-0.521,0.035-0.706l5.897-5.336c0.191-0.173,0.48-0.173,0.672,0
			l5.897,5.336c0.204,0.185,0.22,0.501,0.035,0.706C34.67,15.78,34.533,15.836,34.397,15.836z"/>
	</g>
	<g>
		<path class="st0" d="M28.5,48.5c-0.12,0-0.24-0.042-0.336-0.129l-21-19C7.06,29.276,7,29.141,7,29s0.06-0.276,0.165-0.371
			l4.75-4.297c0.202-0.187,0.521-0.17,0.706,0.035c0.185,0.205,0.169,0.521-0.036,0.706L8.245,29l20.591,18.629
			c0.204,0.185,0.22,0.501,0.035,0.706C28.772,48.444,28.636,48.5,28.5,48.5z"/>
	</g>
	<g>
		<path class="st0" d="M42.25,33.363c-0.276,0-0.5-0.224-0.5-0.5V17.836h-27V32.41c0,0.276-0.224,0.5-0.5,0.5s-0.5-0.224-0.5-0.5
			V17.336c0-0.276,0.224-0.5,0.5-0.5h28c0.276,0,0.5,0.224,0.5,0.5v15.527C42.75,33.14,42.526,33.363,42.25,33.363z"/>
	</g>
	<g>
		<path class="st0" d="M21.001,24.75c-0.276,0-0.5-0.224-0.5-0.5v-1.5c0-0.276,0.224-0.5,0.5-0.5s0.5,0.224,0.5,0.5v1.5
			C21.501,24.526,21.277,24.75,21.001,24.75z"/>
	</g>
	<g>
		<path class="st0" d="M21.001,31.25c-0.276,0-0.5-0.224-0.5-0.5v-1.5c0-0.276,0.224-0.5,0.5-0.5s0.5,0.224,0.5,0.5v1.5
			C21.501,31.026,21.277,31.25,21.001,31.25z"/>
	</g>
	<g>
		<path class="st0" d="M21.751,29.75h-2.75c-0.276,0-0.5-0.224-0.5-0.5s0.224-0.5,0.5-0.5h2.75c0.413,0,0.75-0.336,0.75-0.75
			s-0.337-0.75-0.75-0.75h-1.5c-0.965,0-1.75-0.785-1.75-1.75s0.785-1.75,1.75-1.75h2.25c0.276,0,0.5,0.224,0.5,0.5
			s-0.224,0.5-0.5,0.5h-2.25c-0.413,0-0.75,0.336-0.75,0.75s0.337,0.75,0.75,0.75h1.5c0.965,0,1.75,0.785,1.75,1.75
			S22.716,29.75,21.751,29.75z"/>
	</g>
	<g>
		<path class="st0" d="M28.5,24.75c-0.276,0-0.5-0.224-0.5-0.5v-1.5c0-0.276,0.224-0.5,0.5-0.5s0.5,0.224,0.5,0.5v1.5
			C29,24.526,28.776,24.75,28.5,24.75z"/>
	</g>
	<g>
		<path class="st0" d="M28.5,31.25c-0.276,0-0.5-0.224-0.5-0.5v-1.5c0-0.276,0.224-0.5,0.5-0.5s0.5,0.224,0.5,0.5v1.5
			C29,31.026,28.776,31.25,28.5,31.25z"/>
	</g>
	<g>
		<path class="st0" d="M29.25,29.75H26.5c-0.276,0-0.5-0.224-0.5-0.5s0.224-0.5,0.5-0.5h2.75c0.413,0,0.75-0.336,0.75-0.75
			s-0.337-0.75-0.75-0.75h-1.5c-0.965,0-1.75-0.785-1.75-1.75s0.785-1.75,1.75-1.75H30c0.276,0,0.5,0.224,0.5,0.5
			s-0.224,0.5-0.5,0.5h-2.25c-0.413,0-0.75,0.336-0.75,0.75s0.337,0.75,0.75,0.75h1.5c0.965,0,1.75,0.785,1.75,1.75
			S30.215,29.75,29.25,29.75z"/>
	</g>
	<g>
		<path class="st0" d="M36.001,24.75c-0.276,0-0.5-0.224-0.5-0.5v-1.5c0-0.276,0.224-0.5,0.5-0.5s0.5,0.224,0.5,0.5v1.5
			C36.501,24.526,36.277,24.75,36.001,24.75z"/>
	</g>
	<g>
		<path class="st0" d="M36.001,31.25c-0.276,0-0.5-0.224-0.5-0.5v-1.5c0-0.276,0.224-0.5,0.5-0.5s0.5,0.224,0.5,0.5v1.5
			C36.501,31.026,36.277,31.25,36.001,31.25z"/>
	</g>
	<g>
		<path class="st0" d="M36.751,29.75h-2.75c-0.276,0-0.5-0.224-0.5-0.5s0.224-0.5,0.5-0.5h2.75c0.413,0,0.75-0.336,0.75-0.75
			s-0.337-0.75-0.75-0.75h-1.5c-0.965,0-1.75-0.785-1.75-1.75s0.785-1.75,1.75-1.75h2.25c0.276,0,0.5,0.224,0.5,0.5
			s-0.224,0.5-0.5,0.5h-2.25c-0.413,0-0.75,0.336-0.75,0.75s0.337,0.75,0.75,0.75h1.5c0.965,0,1.75,0.785,1.75,1.75
			S37.716,29.75,36.751,29.75z"/>
	</g>
	<g>
		<path class="st0" d="M40.5,62.5h-1c-0.276,0-0.5-0.224-0.5-0.5s0.224-0.5,0.5-0.5h1c0.276,0,0.5,0.224,0.5,0.5
			S40.776,62.5,40.5,62.5z"/>
	</g>
	<g>
		<path class="st0" d="M37.5,62.5h-21c-0.276,0-0.5-0.224-0.5-0.5s0.224-0.5,0.5-0.5h21c0.276,0,0.5,0.224,0.5,0.5
			S37.776,62.5,37.5,62.5z"/>
	</g>
	<g>
		<circle class="st4" cx="49" cy="9.5" r="7.5"/>
	</g>
	<g>
		<path class="st0" d="M47.586,12.329c-0.133,0-0.26-0.053-0.354-0.146l-2.828-2.829c-0.195-0.195-0.195-0.512,0-0.707
			s0.512-0.195,0.707,0l2.475,2.475l4.95-4.95c0.195-0.195,0.512-0.195,0.707,0s0.195,0.512,0,0.707l-5.304,5.303
			C47.846,12.276,47.719,12.329,47.586,12.329z"/>
	</g>
</g>
</svg>
