<?xml version="1.0" encoding="utf-8"?>
<!-- Generator: Adobe Illustrator 21.1.0, SVG Export Plug-In . SVG Version: 6.00 Build 0)  -->
<svg version="1.1" id="Icon_Set" xmlns="http://www.w3.org/2000/svg" xmlns:xlink="http://www.w3.org/1999/xlink" x="0px" y="0px"
	 viewBox="0 0 64 64" style="enable-background:new 0 0 64 64;" xml:space="preserve">
<style type="text/css">
	.st0{fill:#263238;}
	.st1{fill:#40C4FF;}
	.st2{fill:#FFD740;}
	.st3{fill:#FF5252;}
	.st4{fill:#4DB6AC;}
	.st5{fill:#FFFFFF;}
	.st6{fill:#4FC3F7;}
</style>
<g id="Emergency_Fund">
	<g>
		<circle class="st2" cx="53.5" cy="13" r="10"/>
	</g>
	<g>
		<path class="st5" d="M49.5,11h2V9c0-0.552,0.448-1,1-1h2c0.552,0,1,0.448,1,1v2h2c0.552,0,1,0.448,1,1v2c0,0.552-0.448,1-1,1h-2v2
			c0,0.552-0.448,1-1,1h-2c-0.552,0-1-0.448-1-1v-2h-2c-0.552,0-1-0.448-1-1v-2C48.5,11.448,48.948,11,49.5,11z"/>
		<path class="st0" d="M54.5,18.5h-2c-0.827,0-1.5-0.673-1.5-1.5v-1.5h-1.5c-0.827,0-1.5-0.673-1.5-1.5l0.001-2
			c0-0.827,0.673-1.5,1.5-1.5h1.5V9c0-0.827,0.673-1.5,1.5-1.5h2c0.827,0,1.5,0.673,1.5,1.5v1.5h1.5c0.827,0,1.5,0.673,1.5,1.5
			L59,14c0,0.827-0.673,1.5-1.5,1.5H56V17C56,17.827,55.327,18.5,54.5,18.5z M49.501,11.5c-0.275,0-0.5,0.224-0.5,0.5L49,14
			c0,0.276,0.225,0.5,0.5,0.5h2c0.276,0,0.5,0.224,0.5,0.5v2c0,0.276,0.225,0.5,0.5,0.5h2c0.275,0,0.5-0.224,0.5-0.5v-2
			c0-0.276,0.224-0.5,0.5-0.5h2c0.275,0,0.5-0.224,0.5-0.5l0.001-2c0-0.276-0.225-0.5-0.5-0.5h-2c-0.276,0-0.5-0.224-0.5-0.5V9
			c0-0.276-0.225-0.5-0.5-0.5h-2c-0.275,0-0.5,0.224-0.5,0.5v2c0,0.276-0.224,0.5-0.5,0.5H49.501z"/>
	</g>
	<g>
		<path class="st0" d="M47,50.5h-3.999c-0.276,0-0.5-0.224-0.5-0.5s0.224-0.5,0.5-0.5H47c1.103,0,2-0.897,2-2v-27
			c0-1.103-0.897-2-2-2H3c-1.103,0-2,0.897-2,2v27c0,1.103,0.897,2,2,2h4.001c0.276,0,0.5,0.224,0.5,0.5s-0.224,0.5-0.5,0.5H3
			c-1.654,0-3-1.346-3-3v-27c0-1.654,1.346-3,3-3h44c1.654,0,3,1.346,3,3v27C50,49.154,48.654,50.5,47,50.5z"/>
	</g>
	<g>
		<path class="st0" d="M33.5,18.5c-0.276,0-0.5-0.224-0.5-0.5v-3.5c0-1.103-0.896-2-1.999-2c-0.276,0-0.5-0.224-0.5-0.5
			s0.224-0.5,0.5-0.5c1.653,0,2.999,1.346,2.999,3V18C34,18.276,33.776,18.5,33.5,18.5z"/>
	</g>
	<g>
		<path class="st0" d="M16.5,18.5c-0.276,0-0.5-0.224-0.5-0.5v-3.5c0-1.654,1.346-3,3-3c0.276,0,0.5,0.224,0.5,0.5
			s-0.224,0.5-0.5,0.5c-1.103,0-2,0.897-2,2V18C17,18.276,16.776,18.5,16.5,18.5z"/>
	</g>
	<g>
		<path class="st0" d="M30,14H20c-0.827,0-1.5-0.673-1.5-1.5v-1c0-0.827,0.673-1.5,1.5-1.5h10c0.827,0,1.5,0.673,1.5,1.5v1
			C31.5,13.327,30.827,14,30,14z M20,11c-0.275,0-0.5,0.224-0.5,0.5v1c0,0.276,0.225,0.5,0.5,0.5h10c0.275,0,0.5-0.224,0.5-0.5v-1
			c0-0.276-0.225-0.5-0.5-0.5H20z"/>
	</g>
	<g>
		<path class="st0" d="M33.251,61.5h-1c-0.276,0-0.5-0.224-0.5-0.5s0.224-0.5,0.5-0.5h1c0.276,0,0.5,0.224,0.5,0.5
			S33.527,61.5,33.251,61.5z"/>
	</g>
	<g>
		<path class="st0" d="M30.251,61.5h-13.5c-0.276,0-0.5-0.224-0.5-0.5s0.224-0.5,0.5-0.5h13.5c0.276,0,0.5,0.224,0.5,0.5
			S30.527,61.5,30.251,61.5z"/>
	</g>
	<g>
		<path class="st4" d="M41,40c0-0.552-0.448-1-1-1H10c-0.552,0-1,0.448-1,1v16c0,0.552,0.448,1,1,1h30c0.552,0,1-0.448,1-1V40z"/>
		<path class="st0" d="M40.001,57.5h-30c-0.827,0-1.5-0.673-1.5-1.5V40c0-0.827,0.673-1.5,1.5-1.5h30c0.827,0,1.5,0.673,1.5,1.5v16
			C41.501,56.827,40.828,57.5,40.001,57.5z M10.001,39.5c-0.275,0-0.5,0.224-0.5,0.5v16c0,0.276,0.225,0.5,0.5,0.5h30
			c0.275,0,0.5-0.224,0.5-0.5V40c0-0.276-0.225-0.5-0.5-0.5H10.001z"/>
	</g>
	<g>
		<circle class="st5" cx="25" cy="48" r="6"/>
		<path class="st0" d="M25,54.5c-3.584,0-6.5-2.916-6.5-6.5s2.916-6.5,6.5-6.5s6.5,2.916,6.5,6.5S28.584,54.5,25,54.5z M25,42.5
			c-3.032,0-5.5,2.467-5.5,5.5s2.468,5.5,5.5,5.5s5.5-2.467,5.5-5.5S28.032,42.5,25,42.5z"/>
	</g>
	<g>
		<path class="st0" d="M25.75,51H23c-0.276,0-0.5-0.224-0.5-0.5S22.724,50,23,50h2.75c0.413,0,0.75-0.336,0.75-0.75
			s-0.337-0.75-0.75-0.75h-1.5c-0.965,0-1.75-0.785-1.75-1.75S23.285,45,24.25,45h2.25c0.276,0,0.5,0.224,0.5,0.5S26.776,46,26.5,46
			h-2.25c-0.413,0-0.75,0.336-0.75,0.75s0.337,0.75,0.75,0.75h1.5c0.965,0,1.75,0.785,1.75,1.75S26.715,51,25.75,51z"/>
	</g>
	<g>
		<path class="st0" d="M25,46c-0.276,0-0.5-0.224-0.5-0.5V44c0-0.276,0.224-0.5,0.5-0.5s0.5,0.224,0.5,0.5v1.5
			C25.5,45.777,25.276,46,25,46z"/>
	</g>
	<g>
		<path class="st0" d="M25,52.5c-0.276,0-0.5-0.224-0.5-0.5v-1.5c0-0.276,0.224-0.5,0.5-0.5s0.5,0.224,0.5,0.5V52
			C25.5,52.277,25.276,52.5,25,52.5z"/>
	</g>
	<g>
		<path class="st0" d="M34.686,54.5h-19.37c-0.192,0-0.368-0.111-0.451-0.285c-0.723-1.514-1.981-2.678-3.544-3.278
			C11.128,50.863,11,50.677,11,50.47v-4.939c0-0.207,0.128-0.393,0.32-0.467c1.563-0.601,2.822-1.765,3.544-3.279
			c0.083-0.174,0.259-0.285,0.451-0.285h19.37c0.192,0,0.368,0.111,0.451,0.285c0.722,1.514,1.98,2.679,3.543,3.279
			c0.193,0.074,0.32,0.26,0.32,0.467v4.939c0,0.207-0.127,0.393-0.32,0.467c-1.562,0.601-2.82,1.765-3.543,3.278
			C35.054,54.389,34.878,54.5,34.686,54.5z M15.623,53.5h18.755c0.797-1.505,2.066-2.684,3.622-3.365v-4.27
			c-1.557-0.682-2.826-1.861-3.623-3.366H15.624c-0.797,1.505-2.066,2.684-3.624,3.366v4.27
			C13.557,50.816,14.826,51.995,15.623,53.5z"/>
	</g>
	<g>
		<path class="st0" d="M29,33.5h-8c-0.827,0-1.5-0.673-1.5-1.5v-2c0-0.827,0.673-1.5,1.5-1.5h8c0.827,0,1.5,0.673,1.5,1.5v2
			C30.5,32.827,29.827,33.5,29,33.5z M21,29.5c-0.275,0-0.5,0.224-0.5,0.5v2c0,0.276,0.225,0.5,0.5,0.5h8c0.275,0,0.5-0.224,0.5-0.5
			v-2c0-0.276-0.225-0.5-0.5-0.5H21z"/>
	</g>
	<g>
		<path class="st0" d="M47,31.5H32c-0.276,0-0.5-0.224-0.5-0.5s0.224-0.5,0.5-0.5h15c1.103,0,2-0.897,2-2v-8c0-1.103-0.897-2-2-2H3
			c-1.103,0-2,0.897-2,2v8c0,1.103,0.897,2,2,2h15c0.276,0,0.5,0.224,0.5,0.5s-0.224,0.5-0.5,0.5H3c-1.654,0-3-1.346-3-3v-8
			c0-1.654,1.346-3,3-3h44c1.654,0,3,1.346,3,3v8C50,30.154,48.654,31.5,47,31.5z"/>
	</g>
</g>
</svg>
