<?xml version="1.0" encoding="utf-8"?>
<!-- Generator: Adobe Illustrator 21.1.0, SVG Export Plug-In . SVG Version: 6.00 Build 0)  -->
<svg version="1.1" id="Icon_Set" xmlns="http://www.w3.org/2000/svg" xmlns:xlink="http://www.w3.org/1999/xlink" x="0px" y="0px"
	 viewBox="0 0 64 64" style="enable-background:new 0 0 64 64;" xml:space="preserve">
<style type="text/css">
	.st0{fill:#263238;}
	.st1{fill:#40C4FF;}
	.st2{fill:#FFD740;}
	.st3{fill:#FF5252;}
	.st4{fill:#4DB6AC;}
	.st5{fill:#FFFFFF;}
	.st6{fill:#4FC3F7;}
</style>
<g id="Euro">
	<g>
		<path class="st0" d="M62.5,55.25h-61c-0.827,0-1.5-0.673-1.5-1.5v-34c0-0.827,0.673-1.5,1.5-1.5h61c0.827,0,1.5,0.673,1.5,1.5v34
			C64,54.577,63.327,55.25,62.5,55.25z M1.5,19.25c-0.276,0-0.5,0.224-0.5,0.5v34c0,0.275,0.224,0.5,0.5,0.5h61
			c0.276,0,0.5-0.225,0.5-0.5v-34c0-0.276-0.224-0.5-0.5-0.5H1.5z"/>
	</g>
	<g>
		<path class="st0" d="M58,49.75H6c-0.276,0-0.5-0.224-0.5-0.5v-25c0-0.276,0.224-0.5,0.5-0.5h52c0.276,0,0.5,0.224,0.5,0.5v25
			C58.5,49.526,58.276,49.75,58,49.75z M6.5,48.75h51v-24h-51V48.75z"/>
	</g>
	<g>
		<path class="st0" d="M3.5,30.25c-0.276,0-0.5-0.224-0.5-0.5v-8c0-0.276,0.224-0.5,0.5-0.5h8c0.276,0,0.5,0.224,0.5,0.5
			C12,26.437,8.187,30.25,3.5,30.25z M4,22.25v6.983c3.738-0.247,6.736-3.246,6.983-6.983H4z"/>
	</g>
	<g>
		<path class="st0" d="M60.5,30.25c-4.687,0-8.5-3.813-8.5-8.5c0-0.276,0.224-0.5,0.5-0.5h8c0.276,0,0.5,0.224,0.5,0.5v8
			C61,30.026,60.776,30.25,60.5,30.25z M53.017,22.25c0.247,3.738,3.246,6.736,6.983,6.983V22.25H53.017z"/>
	</g>
	<g>
		<path class="st0" d="M60.5,52.25h-8c-0.276,0-0.5-0.224-0.5-0.5c0-4.687,3.813-8.5,8.5-8.5c0.276,0,0.5,0.224,0.5,0.5v8
			C61,52.026,60.776,52.25,60.5,52.25z M53.017,51.25H60v-6.983C56.262,44.514,53.264,47.513,53.017,51.25z"/>
	</g>
	<g>
		<path class="st0" d="M11.5,52.25h-8c-0.276,0-0.5-0.224-0.5-0.5v-8c0-0.276,0.224-0.5,0.5-0.5c4.687,0,8.5,3.813,8.5,8.5
			C12,52.026,11.776,52.25,11.5,52.25z M4,51.25h6.983C10.736,47.513,7.738,44.514,4,44.267V51.25z"/>
	</g>
	<g>
		<circle class="st1" cx="32" cy="36.75" r="15"/>
		<path class="st0" d="M32,52.25c-8.547,0-15.5-6.953-15.5-15.5s6.953-15.5,15.5-15.5s15.5,6.953,15.5,15.5S40.546,52.25,32,52.25z
			 M32,22.25c-7.995,0-14.5,6.505-14.5,14.5s6.505,14.5,14.5,14.5s14.5-6.505,14.5-14.5S39.995,22.25,32,22.25z"/>
	</g>
	<g>
		<path class="st0" d="M44,15.25h-2c-0.276,0-0.5-0.224-0.5-0.5s0.224-0.5,0.5-0.5h2c0.276,0,0.5,0.224,0.5,0.5
			S44.276,15.25,44,15.25z"/>
	</g>
	<g>
		<path class="st0" d="M40,15.25H20c-0.276,0-0.5-0.224-0.5-0.5s0.224-0.5,0.5-0.5h20c0.276,0,0.5,0.224,0.5,0.5
			S40.276,15.25,40,15.25z"/>
	</g>
	<g>
		<path class="st0" d="M22,59.25h-2c-0.276,0-0.5-0.224-0.5-0.5s0.224-0.5,0.5-0.5h2c0.276,0,0.5,0.224,0.5,0.5
			S22.276,59.25,22,59.25z"/>
	</g>
	<g>
		<path class="st0" d="M44,59.25H24c-0.276,0-0.5-0.224-0.5-0.5s0.224-0.5,0.5-0.5h20c0.276,0,0.5,0.224,0.5,0.5
			S44.276,59.25,44,59.25z"/>
	</g>
	<g>
		<path class="st5" d="M32.635,42.75c-1.355,0-2.566-1.223-3.225-3h3.969v-2h-4.434c-0.036-0.327-0.059-0.66-0.059-1
			s0.023-0.673,0.059-1h4.434v-2H29.41c0.66-1.777,1.871-3,3.225-3c1.226,0,2.097,1.002,2.507,1.599l2.473-1.698
			c-1.266-1.844-3.081-2.901-4.979-2.901c-2.991,0-5.464,2.473-6.372,6h-1.878v2h1.541c-0.026,0.328-0.042,0.661-0.042,1
			s0.016,0.672,0.042,1h-1.541v2h1.878c0.908,3.527,3.38,6,6.372,6c1.898,0,3.714-1.057,4.979-2.901l-2.473-1.698
			C34.732,41.748,33.861,42.75,32.635,42.75z"/>
		<path class="st0" d="M32.635,46.25c-3.064,0-5.682-2.342-6.752-6h-1.497c-0.276,0-0.5-0.224-0.5-0.5v-2c0-0.276,0.224-0.5,0.5-0.5
			h1.01c-0.007-0.165-0.011-0.332-0.011-0.5s0.004-0.335,0.011-0.5h-1.01c-0.276,0-0.5-0.224-0.5-0.5v-2c0-0.276,0.224-0.5,0.5-0.5
			h1.497c1.07-3.659,3.688-6,6.752-6c2.066,0,4.032,1.136,5.392,3.118c0.156,0.228,0.099,0.539-0.129,0.695l-2.473,1.698
			c-0.227,0.157-0.539,0.099-0.695-0.129c-0.354-0.516-1.098-1.382-2.095-1.382c-0.931,0-1.838,0.75-2.465,2h3.208
			c0.276,0,0.5,0.224,0.5,0.5v2c0,0.276-0.224,0.5-0.5,0.5h-3.977c-0.011,0.165-0.017,0.332-0.017,0.5
			c0,0.169,0.006,0.335,0.017,0.5h3.977c0.276,0,0.5,0.224,0.5,0.5v2c0,0.276-0.224,0.5-0.5,0.5H30.17c0.626,1.25,1.534,2,2.465,2
			c0.996,0,1.74-0.866,2.095-1.382c0.157-0.227,0.469-0.284,0.695-0.129l2.473,1.698c0.228,0.156,0.285,0.468,0.129,0.695
			C36.667,45.113,34.702,46.25,32.635,46.25z M24.886,39.25h1.378c0.228,0,0.427,0.154,0.484,0.375
			c0.88,3.417,3.191,5.625,5.887,5.625c1.591,0,3.125-0.825,4.271-2.28l-1.653-1.136c-0.537,0.649-1.424,1.416-2.618,1.416
			c-1.517,0-2.932-1.274-3.694-3.326c-0.057-0.153-0.035-0.325,0.058-0.459c0.094-0.135,0.247-0.215,0.411-0.215h3.468v-1h-3.934
			c-0.255,0-0.469-0.191-0.497-0.445c-0.038-0.344-0.062-0.695-0.062-1.055c0-0.358,0.024-0.71,0.062-1.055
			c0.028-0.254,0.242-0.445,0.497-0.445h3.934v-1H29.41c-0.164,0-0.317-0.08-0.411-0.215c-0.093-0.134-0.115-0.306-0.058-0.459
			c0.762-2.052,2.177-3.326,3.694-3.326c1.194,0,2.081,0.767,2.618,1.417l1.653-1.136c-1.146-1.456-2.681-2.281-4.271-2.281
			c-2.696,0-5.007,2.208-5.887,5.625c-0.057,0.221-0.256,0.375-0.484,0.375h-1.378v1h1.042c0.14,0,0.272,0.059,0.367,0.16
			c0.095,0.103,0.142,0.24,0.131,0.379c-0.025,0.315-0.041,0.636-0.041,0.961s0.016,0.646,0.041,0.961
			c0.011,0.139-0.037,0.276-0.131,0.379c-0.095,0.102-0.228,0.16-0.367,0.16h-1.042V39.25z"/>
	</g>
	<g>
		<path class="st0" d="M17,7.75h-4c-0.276,0-0.5-0.224-0.5-0.5s0.224-0.5,0.5-0.5h4c0.276,0,0.5,0.224,0.5,0.5S17.276,7.75,17,7.75z
			"/>
	</g>
	<g>
		<path class="st0" d="M15,9.75c-0.276,0-0.5-0.224-0.5-0.5v-4c0-0.276,0.224-0.5,0.5-0.5s0.5,0.224,0.5,0.5v4
			C15.5,9.526,15.276,9.75,15,9.75z"/>
	</g>
	<g>
		<path class="st0" d="M9,13.25H5c-0.276,0-0.5-0.224-0.5-0.5s0.224-0.5,0.5-0.5h4c0.276,0,0.5,0.224,0.5,0.5S9.276,13.25,9,13.25z"
			/>
	</g>
	<g>
		<path class="st0" d="M7,15.25c-0.276,0-0.5-0.224-0.5-0.5v-4c0-0.276,0.224-0.5,0.5-0.5s0.5,0.224,0.5,0.5v4
			C7.5,15.026,7.276,15.25,7,15.25z"/>
	</g>
</g>
</svg>
