<?xml version="1.0" encoding="utf-8"?>
<!-- Generator: Adobe Illustrator 21.1.0, SVG Export Plug-In . SVG Version: 6.00 Build 0)  -->
<svg version="1.1" id="Icon_Set" xmlns="http://www.w3.org/2000/svg" xmlns:xlink="http://www.w3.org/1999/xlink" x="0px" y="0px"
	 viewBox="0 0 64 64" style="enable-background:new 0 0 64 64;" xml:space="preserve">
<style type="text/css">
	.st0{fill:#263238;}
	.st1{fill:#40C4FF;}
	.st2{fill:#FFD740;}
	.st3{fill:#FF5252;}
	.st4{fill:#4DB6AC;}
	.st5{fill:#FFFFFF;}
	.st6{fill:#4FC3F7;}
</style>
<g id="Funds_Transfer">
	<g>
		<path class="st0" d="M32.001,44.5c-6.893,0-12.5-5.607-12.5-12.5s5.607-12.5,12.5-12.5s12.5,5.607,12.5,12.5
			S38.894,44.5,32.001,44.5z M32.001,20.5c-6.341,0-11.5,5.159-11.5,11.5s5.159,11.5,11.5,11.5s11.5-5.159,11.5-11.5
			S38.342,20.5,32.001,20.5z"/>
	</g>
	<g>
		<path class="st0" d="M32.001,41.5c-5.238,0-9.5-4.262-9.5-9.5s4.262-9.5,9.5-9.5s9.5,4.262,9.5,9.5S37.239,41.5,32.001,41.5z
			 M32.001,23.5c-4.687,0-8.5,3.813-8.5,8.5s3.813,8.5,8.5,8.5s8.5-3.813,8.5-8.5S36.688,23.5,32.001,23.5z"/>
	</g>
	<g>
		<path class="st0" d="M32.713,36h-3.25c-0.276,0-0.5-0.224-0.5-0.5s0.224-0.5,0.5-0.5h3.25c0.689,0,1.25-0.561,1.25-1.25
			s-0.561-1.25-1.25-1.25h-1.5c-1.241,0-2.25-1.009-2.25-2.25S29.973,28,31.213,28h2.75c0.276,0,0.5,0.224,0.5,0.5
			s-0.224,0.5-0.5,0.5h-2.75c-0.689,0-1.25,0.561-1.25,1.25s0.561,1.25,1.25,1.25h1.5c1.241,0,2.25,1.009,2.25,2.25
			S33.954,36,32.713,36z"/>
	</g>
	<g>
		<path class="st0" d="M31.963,29c-0.276,0-0.5-0.224-0.5-0.5V27c0-0.276,0.224-0.5,0.5-0.5s0.5,0.224,0.5,0.5v1.5
			C32.463,28.776,32.24,29,31.963,29z"/>
	</g>
	<g>
		<path class="st0" d="M31.963,37.5c-0.276,0-0.5-0.224-0.5-0.5v-1.5c0-0.276,0.224-0.5,0.5-0.5s0.5,0.224,0.5,0.5V37
			C32.463,37.276,32.24,37.5,31.963,37.5z"/>
	</g>
	<g>
		<path class="st3" d="M48.501,11l-6-6v3.5h-15c-9.665,0-17.5,7.835-17.5,17.5v7.5c0,0.552,0.448,1,1,1h3c0.552,0,1-0.448,1-1V26
			c0-6.904,5.596-12.5,12.5-12.5h15V17L48.501,11z"/>
		<path class="st0" d="M14.001,35h-3c-0.827,0-1.5-0.673-1.5-1.5V26c0-9.925,8.075-18,18-18h14.5V5c0-0.202,0.122-0.385,0.309-0.462
			c0.187-0.077,0.402-0.035,0.545,0.108l6,6c0.195,0.195,0.195,0.512,0,0.707l-6,6c-0.143,0.143-0.358,0.187-0.545,0.108
			c-0.187-0.077-0.309-0.26-0.309-0.462v-3h-14.5c-6.617,0-12,5.383-12,12v7.5C15.501,34.327,14.828,35,14.001,35z M27.501,9
			c-9.374,0-17,7.626-17,17v7.5c0,0.276,0.224,0.5,0.5,0.5h3c0.276,0,0.5-0.224,0.5-0.5V26c0-7.168,5.832-13,13-13h15
			c0.276,0,0.5,0.224,0.5,0.5v2.293L47.794,11l-4.793-4.793V8.5c0,0.276-0.224,0.5-0.5,0.5H27.501z"/>
	</g>
	<g>
		<path class="st1" d="M15.501,53l6,6v-3.5h15c9.665,0,17.5-7.835,17.5-17.5v-7.5c0-0.552-0.448-1-1-1h-3c-0.552,0-1,0.448-1,1V38
			c0,6.904-5.596,12.5-12.5,12.5h-15V47L15.501,53z"/>
		<path class="st0" d="M21.501,59.5c-0.13,0-0.258-0.051-0.354-0.146l-6-6c-0.195-0.195-0.195-0.512,0-0.707l6-6
			c0.144-0.143,0.357-0.187,0.545-0.108c0.187,0.077,0.309,0.26,0.309,0.462v3h14.5c6.617,0,12-5.383,12-12v-7.5
			c0-0.827,0.673-1.5,1.5-1.5h3c0.827,0,1.5,0.673,1.5,1.5V38c0,9.925-8.075,18-18,18h-14.5v3c0,0.202-0.122,0.385-0.309,0.462
			C21.63,59.488,21.565,59.5,21.501,59.5z M16.208,53l4.793,4.793V55.5c0-0.276,0.224-0.5,0.5-0.5h15c9.374,0,17-7.626,17-17v-7.5
			c0-0.276-0.224-0.5-0.5-0.5h-3c-0.276,0-0.5,0.224-0.5,0.5V38c0,7.168-5.832,13-13,13h-15c-0.276,0-0.5-0.224-0.5-0.5v-2.293
			L16.208,53z"/>
	</g>
	<g>
		<path class="st0" d="M24.001,5.5h-1c-0.276,0-0.5-0.224-0.5-0.5s0.224-0.5,0.5-0.5h1c0.276,0,0.5,0.224,0.5,0.5
			S24.277,5.5,24.001,5.5z"/>
	</g>
	<g>
		<path class="st0" d="M21.001,5.5h-11c-0.276,0-0.5-0.224-0.5-0.5s0.224-0.5,0.5-0.5h11c0.276,0,0.5,0.224,0.5,0.5
			S21.277,5.5,21.001,5.5z"/>
	</g>
	<g>
		<path class="st0" d="M41.001,59.5h-1c-0.276,0-0.5-0.224-0.5-0.5s0.224-0.5,0.5-0.5h1c0.276,0,0.5,0.224,0.5,0.5
			S41.277,59.5,41.001,59.5z"/>
	</g>
	<g>
		<path class="st0" d="M54.001,59.5h-11c-0.276,0-0.5-0.224-0.5-0.5s0.224-0.5,0.5-0.5h11c0.276,0,0.5,0.224,0.5,0.5
			S54.277,59.5,54.001,59.5z"/>
	</g>
</g>
</svg>
