<?xml version="1.0" encoding="utf-8"?>
<!-- Generator: Adobe Illustrator 21.1.0, SVG Export Plug-In . SVG Version: 6.00 Build 0)  -->
<svg version="1.1" id="Icon_Set" xmlns="http://www.w3.org/2000/svg" xmlns:xlink="http://www.w3.org/1999/xlink" x="0px" y="0px"
	 viewBox="0 0 64 64" style="enable-background:new 0 0 64 64;" xml:space="preserve">
<style type="text/css">
	.st0{fill:#263238;}
	.st1{fill:#40C4FF;}
	.st2{fill:#FFD740;}
	.st3{fill:#FF5252;}
	.st4{fill:#4DB6AC;}
	.st5{fill:#FFFFFF;}
	.st6{fill:#4FC3F7;}
</style>
<g id="Gazelle">
	<g>
		<path class="st0" d="M46.136,60c-0.128,0-0.256-0.049-0.354-0.146c-0.195-0.195-0.195-0.512,0-0.707l5.304-5.304
			c0.195-0.195,0.512-0.195,0.707,0l3.182,3.182l6.672-6.671c0.195-0.195,0.512-0.195,0.707,0s0.195,0.512,0,0.707l-7.025,7.024
			c-0.195,0.195-0.512,0.195-0.707,0l-3.182-3.182l-4.95,4.95C46.392,59.951,46.264,60,46.136,60z"/>
	</g>
	<g>
		<path class="st0" d="M62,55.207c-0.276,0-0.5-0.224-0.5-0.5v-3.5H58c-0.276,0-0.5-0.224-0.5-0.5s0.224-0.5,0.5-0.5h4
			c0.276,0,0.5,0.224,0.5,0.5v4C62.5,54.983,62.276,55.207,62,55.207z"/>
	</g>
	<g>
		<path class="st0" d="M27.269,28.5c-0.113,0-0.227-0.038-0.32-0.116l-2.286-1.905c-2.291-1.909-2.651-5.249-0.82-7.602l0.532-0.685
			c0.165-0.21,0.464-0.255,0.683-0.102l8.246,5.802c0.226,0.159,0.279,0.471,0.121,0.697c-0.159,0.226-0.471,0.28-0.697,0.121
			l-7.856-5.528l-0.239,0.309c-1.498,1.925-1.203,4.657,0.672,6.22l2.286,1.905c0.212,0.177,0.24,0.492,0.063,0.704
			C27.554,28.438,27.411,28.5,27.269,28.5z"/>
	</g>
	<g>
		<path class="st2" d="M22.658,17.956l0.532-0.684c0.656-0.843,1.858-1.022,2.729-0.408l2.529,1.779l7.8-0.14L23.5,11.5h-12L2,7.5
			l5,8h10.5l4.627,3.256C22.286,18.482,22.458,18.213,22.658,17.956z"/>
	</g>
	<g>
		<path class="st0" d="M22.129,19.257c-0.1,0-0.2-0.029-0.288-0.091L17.342,16H7c-0.173,0-0.333-0.089-0.424-0.235l-5-8
			C1.461,7.58,1.478,7.342,1.619,7.176C1.762,7.01,1.991,6.955,2.194,7.039L11.601,11H23.5c0.084,0,0.167,0.021,0.241,0.062
			l12.748,7.004c0.241,0.133,0.33,0.438,0.197,0.68s-0.437,0.328-0.68,0.197L23.372,12H11.5c-0.066,0-0.133-0.014-0.194-0.039
			L3.261,8.573L7.277,15H17.5c0.103,0,0.203,0.032,0.288,0.091l4.629,3.257c0.226,0.159,0.279,0.471,0.121,0.697
			C22.44,19.183,22.286,19.257,22.129,19.257z"/>
	</g>
	<g>
		<path class="st0" d="M43,57H5.5c-0.218,0-0.41-0.141-0.477-0.348c-0.065-0.207,0.009-0.433,0.186-0.56l1.355-0.969
			c7.922-5.657,13.104-14.448,14.22-24.119l0.651-5.649c0.031-0.275,0.285-0.464,0.555-0.439c0.274,0.032,0.471,0.28,0.439,0.555
			l-0.651,5.649c-1.148,9.95-6.481,18.996-14.632,24.818L7.06,56h35.029l-3.05-4.794c-2.272-3.57-2.987-7.974-1.961-12.081
			l0.937-3.746c0.044-0.174,0.176-0.311,0.348-0.359l19.187-5.482C58.403,29.293,59,28.502,59,27.614V23c0-1.103-0.897-2-2-2H31.086
			c-0.276,0-0.5-0.224-0.5-0.5s0.224-0.5,0.5-0.5H57c1.654,0,3,1.346,3,3v4.614c0,1.332-0.895,2.518-2.176,2.884l-18.909,5.403
			l-0.866,3.466c-0.961,3.843-0.292,7.962,1.834,11.302l3.539,5.562c0.098,0.154,0.104,0.35,0.017,0.509
			C43.351,56.9,43.183,57,43,57z"/>
	</g>
	<g>
		<path class="st0" d="M34.221,36.922c-2.385,0-4.685-1.069-6.229-2.993l-0.282-0.352c-0.173-0.216-0.139-0.53,0.076-0.703
			c0.217-0.172,0.53-0.14,0.703,0.076l0.282,0.352c1.77,2.203,4.669,3.125,7.382,2.349l2.21-0.631
			c0.268-0.082,0.543,0.078,0.618,0.343c0.076,0.266-0.078,0.543-0.343,0.618l-2.21,0.631C35.697,36.82,34.955,36.922,34.221,36.922
			z"/>
	</g>
	<g>
		<path class="st0" d="M7,16c-0.138,0-0.275-0.057-0.374-0.168c-0.184-0.206-0.164-0.522,0.042-0.706l4.5-4
			c0.204-0.183,0.522-0.165,0.706,0.042c0.184,0.206,0.164,0.522-0.042,0.706l-4.5,4C7.237,15.958,7.118,16,7,16z"/>
	</g>
	<g>
		<path class="st0" d="M17.5,16c-0.161,0-0.319-0.078-0.416-0.223c-0.153-0.229-0.091-0.54,0.139-0.693l6-4
			c0.228-0.152,0.539-0.092,0.693,0.139c0.153,0.229,0.091,0.54-0.139,0.693l-6,4C17.692,15.973,17.596,16,17.5,16z"/>
	</g>
	<g>
		<path class="st0" d="M54.5,14h-4c-0.276,0-0.5-0.224-0.5-0.5s0.224-0.5,0.5-0.5h4c0.276,0,0.5,0.224,0.5,0.5S54.776,14,54.5,14z"
			/>
	</g>
	<g>
		<path class="st0" d="M52.5,16c-0.276,0-0.5-0.224-0.5-0.5v-4c0-0.276,0.224-0.5,0.5-0.5s0.5,0.224,0.5,0.5v4
			C53,15.776,52.776,16,52.5,16z"/>
	</g>
	<g>
		<path class="st0" d="M47.5,7h-4C43.224,7,43,6.776,43,6.5S43.224,6,43.5,6h4C47.776,6,48,6.224,48,6.5S47.776,7,47.5,7z"/>
	</g>
	<g>
		<path class="st0" d="M45.5,9C45.224,9,45,8.776,45,8.5v-4C45,4.224,45.224,4,45.5,4S46,4.224,46,4.5v4C46,8.776,45.776,9,45.5,9z"
			/>
	</g>
</g>
</svg>
