<?xml version="1.0" encoding="utf-8"?>
<!-- Generator: Adobe Illustrator 21.1.0, SVG Export Plug-In . SVG Version: 6.00 Build 0)  -->
<svg version="1.1" id="Icon_Set" xmlns="http://www.w3.org/2000/svg" xmlns:xlink="http://www.w3.org/1999/xlink" x="0px" y="0px"
	 viewBox="0 0 64 64" style="enable-background:new 0 0 64 64;" xml:space="preserve">
<style type="text/css">
	.st0{fill:#263238;}
	.st1{fill:#40C4FF;}
	.st2{fill:#FFD740;}
	.st3{fill:#FF5252;}
	.st4{fill:#4DB6AC;}
	.st5{fill:#FFFFFF;}
	.st6{fill:#4FC3F7;}
</style>
<g id="Growth">
	<g>
		<path class="st0" d="M33.37,37.908c-0.222,0-0.36-0.007-0.391-0.009c-0.255-0.014-0.458-0.217-0.472-0.472
			c-0.012-0.202-0.24-4.988,2.643-7.871c2.881-2.881,7.672-2.655,7.87-2.642c0.255,0.014,0.458,0.217,0.472,0.471
			c0.012,0.203,0.241,4.988-2.642,7.871C38.409,37.699,34.601,37.908,33.37,37.908z M42.498,27.91
			c-1.224,0.021-4.566,0.28-6.641,2.354c-2.073,2.074-2.333,5.416-2.354,6.64c1.225-0.022,4.567-0.28,6.641-2.354
			C42.223,32.471,42.478,29.133,42.498,27.91z"/>
	</g>
	<g>
		<path class="st0" d="M30.63,37.908c-1.23,0-5.038-0.209-7.48-2.651c-2.882-2.883-2.653-7.668-2.642-7.871
			c0.014-0.255,0.217-0.458,0.472-0.472c0.198-0.013,4.988-0.239,7.87,2.642l0,0c2.883,2.883,2.654,7.668,2.643,7.871
			c-0.014,0.255-0.217,0.458-0.472,0.472C30.99,37.901,30.852,37.908,30.63,37.908z M30.993,37.4h0.01H30.993z M21.503,27.91
			c0.021,1.225,0.281,4.566,2.354,6.64c2.079,2.079,5.417,2.334,6.641,2.355c-0.021-1.224-0.28-4.567-2.354-6.641l0,0
			C26.069,28.191,22.728,27.932,21.503,27.91z"/>
	</g>
	<g>
		<path class="st0" d="M31,42.5c-0.276,0-0.5-0.224-0.5-0.5V26c0-0.276,0.224-0.5,0.5-0.5s0.5,0.224,0.5,0.5v16
			C31.5,42.276,31.276,42.5,31,42.5z"/>
	</g>
	<g>
		<path class="st0" d="M33,42.5c-0.276,0-0.5-0.224-0.5-0.5V26c0-0.276,0.224-0.5,0.5-0.5s0.5,0.224,0.5,0.5v16
			C33.5,42.276,33.276,42.5,33,42.5z"/>
	</g>
	<g>
		<circle class="st2" cx="32" cy="14" r="12"/>
		<path class="st0" d="M32,26.5c-6.893,0-12.5-5.607-12.5-12.5S25.107,1.5,32,1.5S44.5,7.107,44.5,14S38.893,26.5,32,26.5z M32,2.5
			c-6.341,0-11.5,5.159-11.5,11.5S25.659,25.5,32,25.5S43.5,20.341,43.5,14S38.341,2.5,32,2.5z"/>
	</g>
	<g>
		<path class="st0" d="M32,23.5c-5.238,0-9.5-4.262-9.5-9.5s4.262-9.5,9.5-9.5s9.5,4.262,9.5,9.5S37.238,23.5,32,23.5z M32,5.5
			c-4.687,0-8.5,3.813-8.5,8.5s3.813,8.5,8.5,8.5s8.5-3.813,8.5-8.5S36.687,5.5,32,5.5z"/>
	</g>
	<g>
		<path class="st0" d="M32.713,18h-3.25c-0.276,0-0.5-0.224-0.5-0.5s0.224-0.5,0.5-0.5h3.25c0.689,0,1.25-0.561,1.25-1.25
			s-0.561-1.25-1.25-1.25h-1.5c-1.24,0-2.25-1.009-2.25-2.25s1.01-2.25,2.25-2.25h2.75c0.276,0,0.5,0.224,0.5,0.5
			s-0.224,0.5-0.5,0.5h-2.75c-0.689,0-1.25,0.561-1.25,1.25s0.561,1.25,1.25,1.25h1.5c1.24,0,2.25,1.009,2.25,2.25
			S33.953,18,32.713,18z"/>
	</g>
	<g>
		<path class="st0" d="M31.963,11c-0.276,0-0.5-0.224-0.5-0.5V9c0-0.276,0.224-0.5,0.5-0.5s0.5,0.224,0.5,0.5v1.5
			C32.463,10.776,32.239,11,31.963,11z"/>
	</g>
	<g>
		<path class="st0" d="M31.963,19.5c-0.276,0-0.5-0.224-0.5-0.5v-1.5c0-0.276,0.224-0.5,0.5-0.5s0.5,0.224,0.5,0.5V19
			C32.463,19.276,32.239,19.5,31.963,19.5z"/>
	</g>
	<g>
		<path class="st4" d="M38.935,62h-13.87c-1.199,0-2.229-0.851-2.455-2.028L20.5,49h23l-2.11,10.972
			C41.164,61.149,40.134,62,38.935,62z"/>
		<path class="st0" d="M38.935,62.5H25.065c-1.437,0-2.676-1.023-2.946-2.434l-2.11-10.972c-0.028-0.146,0.011-0.298,0.105-0.413
			C20.21,48.566,20.351,48.5,20.5,48.5h23c0.149,0,0.29,0.066,0.386,0.182c0.095,0.115,0.134,0.266,0.105,0.413l-2.11,10.972
			C41.61,61.477,40.371,62.5,38.935,62.5z M21.105,49.5l1.996,10.378c0.18,0.94,1.006,1.622,1.964,1.622h13.869
			c0.958,0,1.784-0.682,1.964-1.622L42.895,49.5H21.105z"/>
	</g>
	<g>
		<path class="st4" d="M44,49H20c-0.552,0-1-0.448-1-1v-3c0-0.552,0.448-1,1-1h24c0.552,0,1,0.448,1,1v3C45,48.552,44.552,49,44,49z
			"/>
		<path class="st0" d="M44,49.5H20c-0.827,0-1.5-0.673-1.5-1.5v-3c0-0.827,0.673-1.5,1.5-1.5h24c0.827,0,1.5,0.673,1.5,1.5v3
			C45.5,48.827,44.827,49.5,44,49.5z M20,44.5c-0.275,0-0.5,0.224-0.5,0.5v3c0,0.276,0.225,0.5,0.5,0.5h24
			c0.275,0,0.5-0.224,0.5-0.5v-3c0-0.276-0.225-0.5-0.5-0.5H20z"/>
	</g>
	<g>
		<path class="st0" d="M4,35.5H3c-0.276,0-0.5-0.224-0.5-0.5s0.224-0.5,0.5-0.5h1c0.276,0,0.5,0.224,0.5,0.5S4.276,35.5,4,35.5z"/>
	</g>
	<g>
		<path class="st0" d="M17,35.5H6c-0.276,0-0.5-0.224-0.5-0.5s0.224-0.5,0.5-0.5h11c0.276,0,0.5,0.224,0.5,0.5S17.276,35.5,17,35.5z
			"/>
	</g>
	<g>
		<path class="st0" d="M21,38.5H8c-0.276,0-0.5-0.224-0.5-0.5s0.224-0.5,0.5-0.5h13c0.276,0,0.5,0.224,0.5,0.5S21.276,38.5,21,38.5z
			"/>
	</g>
	<g>
		<path class="st0" d="M61,35.5h-1c-0.276,0-0.5-0.224-0.5-0.5s0.224-0.5,0.5-0.5h1c0.276,0,0.5,0.224,0.5,0.5S61.276,35.5,61,35.5z
			"/>
	</g>
	<g>
		<path class="st0" d="M58,35.5H47c-0.276,0-0.5-0.224-0.5-0.5s0.224-0.5,0.5-0.5h11c0.276,0,0.5,0.224,0.5,0.5S58.276,35.5,58,35.5
			z"/>
	</g>
	<g>
		<path class="st0" d="M56,38.5H43c-0.276,0-0.5-0.224-0.5-0.5s0.224-0.5,0.5-0.5h13c0.276,0,0.5,0.224,0.5,0.5S56.276,38.5,56,38.5
			z"/>
	</g>
	<g>
		<path class="st0" d="M52,20c-0.276,0-0.5-0.224-0.5-0.5v-4c0-0.276,0.224-0.5,0.5-0.5s0.5,0.224,0.5,0.5v4
			C52.5,19.776,52.276,20,52,20z"/>
	</g>
	<g>
		<path class="st0" d="M54,18h-4c-0.276,0-0.5-0.224-0.5-0.5S49.724,17,50,17h4c0.276,0,0.5,0.224,0.5,0.5S54.276,18,54,18z"/>
	</g>
	<g>
		<path class="st0" d="M57,13c-0.276,0-0.5-0.224-0.5-0.5v-4C56.5,8.224,56.724,8,57,8s0.5,0.224,0.5,0.5v4
			C57.5,12.776,57.276,13,57,13z"/>
	</g>
	<g>
		<path class="st0" d="M59,11h-4c-0.276,0-0.5-0.224-0.5-0.5S54.724,10,55,10h4c0.276,0,0.5,0.224,0.5,0.5S59.276,11,59,11z"/>
	</g>
</g>
</svg>
