<?xml version="1.0" encoding="utf-8"?>
<!-- Generator: Adobe Illustrator 21.1.0, SVG Export Plug-In . SVG Version: 6.00 Build 0)  -->
<svg version="1.1" id="Icon_Set" xmlns="http://www.w3.org/2000/svg" xmlns:xlink="http://www.w3.org/1999/xlink" x="0px" y="0px"
	 viewBox="0 0 64 64" style="enable-background:new 0 0 64 64;" xml:space="preserve">
<style type="text/css">
	.st0{fill:#263238;}
	.st1{fill:#40C4FF;}
	.st2{fill:#FFD740;}
	.st3{fill:#FF5252;}
	.st4{fill:#4DB6AC;}
	.st5{fill:#FFFFFF;}
	.st6{fill:#4FC3F7;}
</style>
<g id="Growth_1_">
	<g>
		<path class="st0" d="M21,7.5h-4c-0.276,0-0.5-0.224-0.5-0.5s0.224-0.5,0.5-0.5h4c0.276,0,0.5,0.224,0.5,0.5S21.276,7.5,21,7.5z"/>
	</g>
	<g>
		<path class="st0" d="M19,9.5c-0.276,0-0.5-0.224-0.5-0.5V5c0-0.276,0.224-0.5,0.5-0.5s0.5,0.224,0.5,0.5v4
			C19.5,9.276,19.276,9.5,19,9.5z"/>
	</g>
	<g>
		<path class="st0" d="M14,14h-4c-0.276,0-0.5-0.224-0.5-0.5S9.724,13,10,13h4c0.276,0,0.5,0.224,0.5,0.5S14.276,14,14,14z"/>
	</g>
	<g>
		<path class="st0" d="M12,16c-0.276,0-0.5-0.224-0.5-0.5v-4c0-0.276,0.224-0.5,0.5-0.5s0.5,0.224,0.5,0.5v4
			C12.5,15.776,12.276,16,12,16z"/>
	</g>
	<g>
		<rect x="4" y="24.5" class="st1" width="56" height="18"/>
	</g>
	<g>
		<path class="st0" d="M60,55.5H4c-0.276,0-0.5-0.224-0.5-0.5s0.224-0.5,0.5-0.5h56c0.276,0,0.5,0.224,0.5,0.5S60.276,55.5,60,55.5z
			"/>
	</g>
	<g>
		<path class="st5" d="M26.5,55h10V21c0-0.552-0.448-1-1-1h-8c-0.552,0-1,0.448-1,1V55z"/>
		<path class="st0" d="M36.5,55.5h-10c-0.276,0-0.5-0.224-0.5-0.5V21c0-0.827,0.673-1.5,1.5-1.5h8c0.827,0,1.5,0.673,1.5,1.5v34
			C37,55.276,36.776,55.5,36.5,55.5z M27,54.5h9V21c0-0.276-0.225-0.5-0.5-0.5h-8c-0.275,0-0.5,0.224-0.5,0.5V54.5z"/>
	</g>
	<g>
		<path class="st5" d="M10,55h10V31c0-0.552-0.448-1-1-1h-8c-0.552,0-1,0.448-1,1V55z"/>
		<path class="st0" d="M20,55.5H10c-0.276,0-0.5-0.224-0.5-0.5V31c0-0.827,0.673-1.5,1.5-1.5h8c0.827,0,1.5,0.673,1.5,1.5v24
			C20.5,55.276,20.276,55.5,20,55.5z M10.5,54.5h9V31c0-0.276-0.225-0.5-0.5-0.5h-8c-0.275,0-0.5,0.224-0.5,0.5V54.5z"/>
	</g>
	<g>
		<path class="st5" d="M43,55h10V11c0-0.552-0.448-1-1-1h-8c-0.552,0-1,0.448-1,1V55z"/>
		<path class="st0" d="M53,55.5H43c-0.276,0-0.5-0.224-0.5-0.5V11c0-0.827,0.673-1.5,1.5-1.5h8c0.827,0,1.5,0.673,1.5,1.5v44
			C53.5,55.276,53.276,55.5,53,55.5z M43.5,54.5h9V11c0-0.276-0.225-0.5-0.5-0.5h-8c-0.275,0-0.5,0.224-0.5,0.5V54.5z"/>
	</g>
	<g>
		<path class="st0" d="M6,44.875c-0.161,0-0.319-0.078-0.416-0.223c-0.153-0.23-0.091-0.54,0.139-0.693l9-6
			c0.082-0.055,0.179-0.084,0.277-0.084h16.332l26.367-19.899c0.219-0.167,0.533-0.124,0.7,0.098c0.166,0.221,0.122,0.534-0.099,0.7
			l-26.5,20c-0.086,0.065-0.192,0.101-0.301,0.101H15.151l-8.874,5.916C6.192,44.848,6.096,44.875,6,44.875z"/>
	</g>
	<g>
		<circle class="st3" cx="48" cy="25.922" r="2.5"/>
		<path class="st0" d="M48,28.922c-1.654,0-3-1.346-3-3s1.346-3,3-3s3,1.346,3,3S49.654,28.922,48,28.922z M48,23.922
			c-1.103,0-2,0.897-2,2s0.897,2,2,2s2-0.897,2-2S49.103,23.922,48,23.922z"/>
	</g>
	<g>
		<circle class="st2" cx="31.5" cy="38.375" r="2.5"/>
		<path class="st0" d="M31.5,41.375c-1.654,0-3-1.346-3-3s1.346-3,3-3s3,1.346,3,3S33.154,41.375,31.5,41.375z M31.5,36.375
			c-1.103,0-2,0.897-2,2s0.897,2,2,2s2-0.897,2-2S32.603,36.375,31.5,36.375z"/>
	</g>
	<g>
		<circle class="st2" cx="15" cy="38.375" r="2.5"/>
		<path class="st0" d="M15,41.375c-1.654,0-3-1.346-3-3s1.346-3,3-3s3,1.346,3,3S16.654,41.375,15,41.375z M15,36.375
			c-1.103,0-2,0.897-2,2s0.897,2,2,2s2-0.897,2-2S16.103,36.375,15,36.375z"/>
	</g>
	<g>
		<path class="st0" d="M23.5,59.5h-1c-0.276,0-0.5-0.224-0.5-0.5s0.224-0.5,0.5-0.5h1c0.276,0,0.5,0.224,0.5,0.5
			S23.776,59.5,23.5,59.5z"/>
	</g>
	<g>
		<path class="st0" d="M40.5,59.5h-15c-0.276,0-0.5-0.224-0.5-0.5s0.224-0.5,0.5-0.5h15c0.276,0,0.5,0.224,0.5,0.5
			S40.776,59.5,40.5,59.5z"/>
	</g>
</g>
</svg>
