<?xml version="1.0" encoding="utf-8"?>
<!-- Generator: Adobe Illustrator 21.1.0, SVG Export Plug-In . SVG Version: 6.00 Build 0)  -->
<svg version="1.1" id="Icon_Set" xmlns="http://www.w3.org/2000/svg" xmlns:xlink="http://www.w3.org/1999/xlink" x="0px" y="0px"
	 viewBox="0 0 64 64" style="enable-background:new 0 0 64 64;" xml:space="preserve">
<style type="text/css">
	.st0{fill:#263238;}
	.st1{fill:#40C4FF;}
	.st2{fill:#FFD740;}
	.st3{fill:#FF5252;}
	.st4{fill:#4DB6AC;}
	.st5{fill:#FFFFFF;}
	.st6{fill:#4FC3F7;}
</style>
<g id="Home_Loan">
	<g>
		<path class="st0" d="M52.499,32.5c-0.596,0-1.174-0.214-1.626-0.602L31.5,15.293L12.127,31.898
			c-1.048,0.898-2.629,0.776-3.525-0.271s-0.775-2.628,0.271-3.525l21-18c0.943-0.809,2.311-0.808,3.254,0l21,18
			c1.046,0.897,1.168,2.479,0.271,3.525C53.923,32.182,53.23,32.5,52.499,32.5z M31.5,14.134c0.116,0,0.231,0.04,0.325,0.121
			l19.698,16.884c0.605,0.519,1.599,0.44,2.115-0.163c0.538-0.628,0.465-1.577-0.162-2.116l-21-18c-0.566-0.484-1.387-0.485-1.953,0
			l-21,18c-0.304,0.261-0.488,0.625-0.52,1.024c-0.03,0.399,0.097,0.787,0.357,1.092c0.537,0.627,1.487,0.7,2.115,0.162
			l19.698-16.884C31.269,14.174,31.384,14.134,31.5,14.134z"/>
	</g>
	<g>
		<path class="st0" d="M36.5,34.5h-10c-0.827,0-1.5-0.673-1.5-1.5v-6c0-0.827,0.673-1.5,1.5-1.5h10c0.827,0,1.5,0.673,1.5,1.5v6
			C38,33.827,37.327,34.5,36.5,34.5z M26.5,26.5c-0.275,0-0.5,0.224-0.5,0.5v6c0,0.276,0.225,0.5,0.5,0.5h10
			c0.275,0,0.5-0.224,0.5-0.5v-6c0-0.276-0.225-0.5-0.5-0.5H26.5z"/>
	</g>
	<g>
		<path class="st0" d="M29.5,50.5c-0.06,0-0.119-0.01-0.178-0.033l-7.921-3.018c-1.654-0.63-3.392-0.95-5.162-0.95H13.5
			c-0.276,0-0.5-0.224-0.5-0.5s0.224-0.5,0.5-0.5h2.739c1.893,0,3.749,0.341,5.518,1.015l7.921,3.018
			c0.259,0.098,0.388,0.387,0.289,0.646C29.892,50.377,29.701,50.5,29.5,50.5z"/>
	</g>
	<g>
		<path class="st0" d="M49.5,62.5H34.99c-2.374,0-4.71-0.408-6.943-1.212l-7.574-2.727C19.438,58.189,18.354,58,17.255,58H13.5
			c-0.276,0-0.5-0.224-0.5-0.5s0.224-0.5,0.5-0.5h3.755c1.216,0,2.412,0.209,3.556,0.621l7.574,2.727
			c2.125,0.765,4.347,1.152,6.605,1.152H49.5c1.103,0,2-0.897,2-2s-0.897-2-2-2H38c-0.276,0-0.5-0.224-0.5-0.5s0.224-0.5,0.5-0.5
			h11.5c1.654,0,3,1.346,3,3S51.154,62.5,49.5,62.5z"/>
	</g>
	<g>
		<path class="st1" d="M4,44.5V59c0,0.552,0.448,1,1,1h5.5c0.552,0,1-0.448,1-1V44.5c0-0.552-0.448-1-1-1H5
			C4.447,43.5,4,43.948,4,44.5z"/>
		<path class="st0" d="M10.5,60.5H5c-0.827,0-1.5-0.673-1.5-1.5V44.5C3.5,43.673,4.173,43,5,43h5.5c0.827,0,1.5,0.673,1.5,1.5V59
			C12,59.827,11.327,60.5,10.5,60.5z M5,44c-0.275,0-0.5,0.224-0.5,0.5V59c0,0.276,0.225,0.5,0.5,0.5h5.5c0.275,0,0.5-0.224,0.5-0.5
			V44.5c0-0.276-0.225-0.5-0.5-0.5H5z"/>
	</g>
	<g>
		<path class="st0" d="M36.5,55.5H30c-0.276,0-0.5-0.224-0.5-0.5s0.224-0.5,0.5-0.5h6.5c1.103,0,2-0.897,2-2s-0.897-2-2-2h-7
			c-0.276,0-0.5-0.224-0.5-0.5s0.224-0.5,0.5-0.5h7c1.654,0,3,1.346,3,3S38.154,55.5,36.5,55.5z"/>
	</g>
	<g>
		<path class="st0" d="M37.5,48.621c-0.276,0-0.5-0.224-0.5-0.5v-4.757c0-2.13-1.929-3.864-4.3-3.864h-2.4
			c-2.371,0-4.3,1.733-4.3,3.864v2.972c0,0.276-0.224,0.5-0.5,0.5s-0.5-0.224-0.5-0.5v-2.972c0-2.682,2.378-4.864,5.3-4.864h2.4
			c2.922,0,5.3,2.182,5.3,4.864v4.757C38,48.397,37.776,48.621,37.5,48.621z"/>
	</g>
	<g>
		<path class="st0" d="M48.5,52.5h-7.551c-0.276,0-0.5-0.224-0.5-0.5s0.224-0.5,0.5-0.5H48.5c0.275,0,0.5-0.224,0.5-0.5V30.293
			l-17.5-15l-17.5,15V44c0,0.276-0.224,0.5-0.5,0.5S13,44.276,13,44V30.063c0-0.146,0.063-0.285,0.175-0.379l18-15.429
			c0.188-0.161,0.463-0.161,0.65,0l18,15.429C49.937,29.778,50,29.917,50,30.063V51C50,51.827,49.327,52.5,48.5,52.5z"/>
	</g>
	<g>
		<circle class="st2" cx="52" cy="10" r="8"/>
		<path class="st0" d="M52,18.5c-4.687,0-8.5-3.813-8.5-8.5s3.813-8.5,8.5-8.5s8.5,3.813,8.5,8.5S56.687,18.5,52,18.5z M52,2.5
			c-4.136,0-7.5,3.364-7.5,7.5s3.364,7.5,7.5,7.5s7.5-3.364,7.5-7.5S56.136,2.5,52,2.5z"/>
	</g>
	<g>
		<path class="st0" d="M52,8c-0.276,0-0.5-0.224-0.5-0.5V6c0-0.276,0.224-0.5,0.5-0.5s0.5,0.224,0.5,0.5v1.5
			C52.5,7.776,52.276,8,52,8z"/>
	</g>
	<g>
		<path class="st0" d="M52,14.5c-0.276,0-0.5-0.224-0.5-0.5v-1.5c0-0.276,0.224-0.5,0.5-0.5s0.5,0.224,0.5,0.5V14
			C52.5,14.276,52.276,14.5,52,14.5z"/>
	</g>
	<g>
		<path class="st0" d="M52.75,13H50c-0.276,0-0.5-0.224-0.5-0.5S49.724,12,50,12h2.75c0.413,0,0.75-0.336,0.75-0.75
			s-0.337-0.75-0.75-0.75h-1.5c-0.965,0-1.75-0.785-1.75-1.75S50.285,7,51.25,7h2.25C53.776,7,54,7.224,54,7.5S53.776,8,53.5,8
			h-2.25c-0.413,0-0.75,0.336-0.75,0.75s0.337,0.75,0.75,0.75h1.5c0.965,0,1.75,0.785,1.75,1.75S53.715,13,52.75,13z"/>
	</g>
	<g>
		<path class="st0" d="M20.5,6h-4C16.224,6,16,5.776,16,5.5S16.224,5,16.5,5h4C20.776,5,21,5.224,21,5.5S20.776,6,20.5,6z"/>
	</g>
	<g>
		<path class="st0" d="M18.5,8C18.224,8,18,7.776,18,7.5v-4C18,3.224,18.224,3,18.5,3S19,3.224,19,3.5v4C19,7.776,18.776,8,18.5,8z"
			/>
	</g>
	<g>
		<path class="st0" d="M13.5,12h-4C9.224,12,9,11.776,9,11.5S9.224,11,9.5,11h4c0.276,0,0.5,0.224,0.5,0.5S13.776,12,13.5,12z"/>
	</g>
	<g>
		<path class="st0" d="M11.5,14c-0.276,0-0.5-0.224-0.5-0.5v-4C11,9.224,11.224,9,11.5,9S12,9.224,12,9.5v4
			C12,13.776,11.776,14,11.5,14z"/>
	</g>
</g>
</svg>
