<?xml version="1.0" encoding="utf-8"?>
<!-- Generator: Adobe Illustrator 21.1.0, SVG Export Plug-In . SVG Version: 6.00 Build 0)  -->
<svg version="1.1" id="Icon_Set" xmlns="http://www.w3.org/2000/svg" xmlns:xlink="http://www.w3.org/1999/xlink" x="0px" y="0px"
	 viewBox="0 0 64 64" style="enable-background:new 0 0 64 64;" xml:space="preserve">
<style type="text/css">
	.st0{fill:#263238;}
	.st1{fill:#40C4FF;}
	.st2{fill:#FFD740;}
	.st3{fill:#FF5252;}
	.st4{fill:#4DB6AC;}
	.st5{fill:#FFFFFF;}
	.st6{fill:#4FC3F7;}
</style>
<g id="ICO">
	<g>
		<path class="st4" d="M27.526,13.375H16.001c-0.552,0-1,0.448-1,1v10.408c1.834-2.084,4.512-3.408,7.5-3.408
			c1.542,0,3.032,0.351,4.428,1.042l0.873,0.432c1.517-0.929,3.293-1.474,5.199-1.474v-2.499
			C30.515,17.856,28.535,15.866,27.526,13.375z"/>
	</g>
	<g>
		<path class="st2" d="M41.501,19.875c-2.042,0-3.899,0.771-5.312,2.03c3.954,1.335,6.812,5.072,6.812,9.47h5.685
			c0.517-1.058,0.815-2.243,0.815-3.5C49.501,23.457,45.919,19.875,41.501,19.875z"/>
	</g>
	<g>
		<path class="st0" d="M48.686,31.875c-0.074,0-0.148-0.017-0.219-0.051c-0.248-0.121-0.351-0.42-0.23-0.669
			C48.744,30.117,49,29.014,49,27.875c0-4.136-3.364-7.5-7.5-7.5c-1.833,0-3.601,0.676-4.979,1.903
			c-0.207,0.183-0.521,0.166-0.706-0.041c-0.184-0.206-0.165-0.521,0.041-0.705c1.562-1.392,3.566-2.157,5.645-2.157
			c4.687,0,8.5,3.813,8.5,8.5c0,1.292-0.291,2.543-0.865,3.72C49.049,31.771,48.871,31.875,48.686,31.875z"/>
	</g>
	<g>
		<path class="st0" d="M18,22.947c-0.276,0-0.5-0.224-0.5-0.5v-2.758c0-0.192,0.111-0.368,0.285-0.451
			c1.514-0.723,2.678-1.98,3.278-3.543c0.074-0.192,0.26-0.32,0.467-0.32h4.94c0.207,0,0.393,0.128,0.467,0.32
			c0.6,1.562,1.764,2.82,3.279,3.544c0.174,0.083,0.285,0.259,0.285,0.451v2.146c0,0.276-0.224,0.5-0.5,0.5s-0.5-0.224-0.5-0.5
			v-1.839c-1.506-0.797-2.685-2.066-3.365-3.623h-4.27c-0.681,1.557-1.86,2.826-3.365,3.623v2.449
			C18.5,22.724,18.277,22.947,18,22.947z"/>
	</g>
	<g>
		<path class="st2" d="M26.041,24.209c-1.068-0.529-2.268-0.834-3.54-0.834c-4.418,0-8,3.582-8,8h8.5
			C23.001,28.566,24.169,26.027,26.041,24.209z"/>
	</g>
	<g>
		<path class="st0" d="M14.5,31.875c-0.276,0-0.5-0.224-0.5-0.5c0-4.687,3.813-8.5,8.5-8.5c1.308,0,2.574,0.298,3.762,0.886
			c0.248,0.122,0.349,0.422,0.227,0.67c-0.123,0.246-0.421,0.35-0.67,0.227c-1.049-0.52-2.166-0.782-3.319-0.782
			c-4.136,0-7.5,3.364-7.5,7.5C15,31.651,14.777,31.875,14.5,31.875z"/>
	</g>
	<g>
		<path class="st0" d="M32,62.875H11.5c-1.654,0-3-1.346-3-3v-15.5c0-0.276,0.224-0.5,0.5-0.5s0.5,0.224,0.5,0.5v15.5
			c0,1.103,0.897,2,2,2h20v-28.5c0-0.276,0.224-0.5,0.5-0.5s0.5,0.224,0.5,0.5v29C32.5,62.651,32.276,62.875,32,62.875z"/>
	</g>
	<g>
		<path class="st0" d="M23,44.875H4c-0.193,0-0.369-0.111-0.452-0.286c-0.083-0.175-0.058-0.381,0.064-0.53l9-11
			c0.095-0.116,0.237-0.184,0.387-0.184h19c0.193,0,0.369,0.111,0.452,0.286c0.083,0.175,0.058,0.381-0.064,0.53l-9,11
			C23.292,44.808,23.15,44.875,23,44.875z M5.055,43.875h17.708l8.182-10H13.237L5.055,43.875z"/>
	</g>
	<g>
		<path class="st0" d="M52.5,62.875H32c-0.276,0-0.5-0.224-0.5-0.5v-29c0-0.276,0.224-0.5,0.5-0.5s0.5,0.224,0.5,0.5v28.5h20
			c1.103,0,2-0.897,2-2v-15.5c0-0.276,0.224-0.5,0.5-0.5s0.5,0.224,0.5,0.5v15.5C55.5,61.529,54.154,62.875,52.5,62.875z"/>
	</g>
	<g>
		<path class="st0" d="M60,44.875H41c-0.15,0-0.292-0.067-0.387-0.184l-9-11c-0.122-0.149-0.147-0.355-0.064-0.53
			c0.083-0.175,0.258-0.286,0.452-0.286h19c0.15,0,0.292,0.067,0.387,0.184l9,11c0.122,0.149,0.147,0.355,0.064,0.53
			C60.369,44.764,60.193,44.875,60,44.875z M41.237,43.875h17.708l-8.182-10H33.055L41.237,43.875z"/>
	</g>
	<g>
		<path class="st0" d="M54,14.625h-4c-0.276,0-0.5-0.224-0.5-0.5s0.224-0.5,0.5-0.5h4c0.276,0,0.5,0.224,0.5,0.5
			S54.276,14.625,54,14.625z"/>
	</g>
	<g>
		<path class="st0" d="M52,16.625c-0.276,0-0.5-0.224-0.5-0.5v-4c0-0.276,0.224-0.5,0.5-0.5s0.5,0.224,0.5,0.5v4
			C52.5,16.401,52.276,16.625,52,16.625z"/>
	</g>
	<g>
		<path class="st0" d="M60,21.125h-4c-0.276,0-0.5-0.224-0.5-0.5s0.224-0.5,0.5-0.5h4c0.276,0,0.5,0.224,0.5,0.5
			S60.276,21.125,60,21.125z"/>
	</g>
	<g>
		<path class="st0" d="M58,23.125c-0.276,0-0.5-0.224-0.5-0.5v-4c0-0.276,0.224-0.5,0.5-0.5s0.5,0.224,0.5,0.5v4
			C58.5,22.901,58.276,23.125,58,23.125z"/>
	</g>
	<g>
		<circle class="st2" cx="36.792" cy="9.625" r="8"/>
		<path class="st0" d="M36.792,18.125c-4.687,0-8.5-3.813-8.5-8.5s3.813-8.5,8.5-8.5s8.5,3.813,8.5,8.5S41.479,18.125,36.792,18.125
			z M36.792,2.125c-4.136,0-7.5,3.364-7.5,7.5s3.364,7.5,7.5,7.5s7.5-3.364,7.5-7.5S40.928,2.125,36.792,2.125z"/>
	</g>
	<g>
		<path class="st0" d="M15,25.283c-0.276,0-0.5-0.224-0.5-0.5V14.375c0-0.827,0.673-1.5,1.5-1.5h11.525c0.276,0,0.5,0.224,0.5,0.5
			s-0.224,0.5-0.5,0.5H16c-0.276,0-0.5,0.225-0.5,0.5v10.408C15.5,25.06,15.277,25.283,15,25.283z"/>
	</g>
	<g>
		<path class="st0" d="M33,21.875c-0.276,0-0.5-0.224-0.5-0.5v-2.499c0-0.276,0.224-0.5,0.5-0.5s0.5,0.224,0.5,0.5v2.499
			C33.5,21.651,33.277,21.875,33,21.875z"/>
	</g>
	<g>
		<path class="st0" d="M37.792,10.125h-3.25c-0.276,0-0.5-0.224-0.5-0.5v-3.5c0-0.276,0.224-0.5,0.5-0.5h3.25
			c1.241,0,2.25,1.01,2.25,2.25S39.033,10.125,37.792,10.125z M35.042,9.125h2.75c0.689,0,1.25-0.561,1.25-1.25
			s-0.561-1.25-1.25-1.25h-2.75V9.125z"/>
	</g>
	<g>
		<path class="st0" d="M38.292,13.625h-3.75c-0.276,0-0.5-0.224-0.5-0.5v-3.5c0-0.276,0.224-0.5,0.5-0.5h3.75
			c1.241,0,2.25,1.01,2.25,2.25S39.533,13.625,38.292,13.625z M35.042,12.625h3.25c0.689,0,1.25-0.561,1.25-1.25
			s-0.561-1.25-1.25-1.25h-3.25V12.625z"/>
	</g>
	<g>
		<path class="st0" d="M34.542,6.625h-1c-0.276,0-0.5-0.224-0.5-0.5s0.224-0.5,0.5-0.5h1c0.276,0,0.5,0.224,0.5,0.5
			S34.819,6.625,34.542,6.625z"/>
	</g>
	<g>
		<path class="st0" d="M34.542,13.625h-1c-0.276,0-0.5-0.224-0.5-0.5s0.224-0.5,0.5-0.5h1c0.276,0,0.5,0.224,0.5,0.5
			S34.819,13.625,34.542,13.625z"/>
	</g>
	<g>
		<path class="st0" d="M35.542,6.125c-0.276,0-0.5-0.224-0.5-0.5v-1c0-0.276,0.224-0.5,0.5-0.5s0.5,0.224,0.5,0.5v1
			C36.042,5.901,35.819,6.125,35.542,6.125z"/>
	</g>
	<g>
		<path class="st0" d="M37.542,6.125c-0.276,0-0.5-0.224-0.5-0.5v-1c0-0.276,0.224-0.5,0.5-0.5s0.5,0.224,0.5,0.5v1
			C38.042,5.901,37.819,6.125,37.542,6.125z"/>
	</g>
	<g>
		<path class="st0" d="M35.542,15.125c-0.276,0-0.5-0.224-0.5-0.5v-1c0-0.276,0.224-0.5,0.5-0.5s0.5,0.224,0.5,0.5v1
			C36.042,14.901,35.819,15.125,35.542,15.125z"/>
	</g>
	<g>
		<path class="st0" d="M37.542,15.125c-0.276,0-0.5-0.224-0.5-0.5v-1c0-0.276,0.224-0.5,0.5-0.5s0.5,0.224,0.5,0.5v1
			C38.042,14.901,37.819,15.125,37.542,15.125z"/>
	</g>
	<g>
		<path class="st0" d="M42.5,28.375h-0.141c-0.276,0-0.5-0.224-0.5-0.5s0.224-0.5,0.5-0.5H42.5c0.689,0,1.25-0.561,1.25-1.25
			s-0.561-1.25-1.25-1.25h-2.376c-0.276,0-0.5-0.224-0.5-0.5s0.224-0.5,0.5-0.5H42.5c1.241,0,2.25,1.01,2.25,2.25
			S43.741,28.375,42.5,28.375z"/>
	</g>
	<g>
		<path class="st0" d="M43.001,31.875c-0.276,0-0.5-0.224-0.5-0.5s0.224-0.5,0.5-0.5c0.689,0,1.25-0.561,1.25-1.25
			s-0.561-1.25-1.25-1.25h-0.641c-0.276,0-0.5-0.224-0.5-0.5s0.224-0.5,0.5-0.5H43c1.241,0,2.25,1.01,2.25,2.25
			S44.241,31.875,43.001,31.875z"/>
	</g>
	<g>
		<path class="st0" d="M40.25,24.375c-0.276,0-0.5-0.224-0.5-0.5v-1c0-0.276,0.224-0.5,0.5-0.5s0.5,0.224,0.5,0.5v1
			C40.75,24.151,40.527,24.375,40.25,24.375z"/>
	</g>
	<g>
		<path class="st0" d="M42.25,24.375c-0.276,0-0.5-0.224-0.5-0.5v-1c0-0.276,0.224-0.5,0.5-0.5s0.5,0.224,0.5,0.5v1
			C42.75,24.151,42.527,24.375,42.25,24.375z"/>
	</g>
	<g>
		<path class="st1" d="M41.001,31.375c0-4.418-3.582-8-8-8s-8,3.582-8,8"/>
		<path class="st0" d="M41,31.875c-0.276,0-0.5-0.224-0.5-0.5c0-4.136-3.364-7.5-7.5-7.5s-7.5,3.364-7.5,7.5
			c0,0.276-0.224,0.5-0.5,0.5s-0.5-0.224-0.5-0.5c0-4.687,3.813-8.5,8.5-8.5s8.5,3.813,8.5,8.5C41.5,31.651,41.277,31.875,41,31.875
			z"/>
	</g>
	<g>
		<polyline class="st5" points="36.501,31.375 33.001,25.875 29.501,31.375 		"/>
		<path class="st0" d="M36.501,31.875c-0.166,0-0.327-0.082-0.422-0.231L33,26.807l-3.078,4.837
			c-0.148,0.232-0.457,0.302-0.69,0.153c-0.233-0.148-0.302-0.457-0.153-0.69l3.5-5.5c0.184-0.289,0.66-0.289,0.844,0l3.5,5.5
			c0.148,0.233,0.08,0.542-0.153,0.69C36.686,31.85,36.593,31.875,36.501,31.875z"/>
	</g>
	<g>
		<path class="st0" d="M33,31.875c-0.276,0-0.5-0.224-0.5-0.5v-5.5c0-0.276,0.224-0.5,0.5-0.5s0.5,0.224,0.5,0.5v5.5
			C33.5,31.651,33.277,31.875,33,31.875z"/>
	</g>
</g>
</svg>
