<?xml version="1.0" encoding="utf-8"?>
<!-- Generator: Adobe Illustrator 21.1.0, SVG Export Plug-In . SVG Version: 6.00 Build 0)  -->
<svg version="1.1" id="Icon_Set" xmlns="http://www.w3.org/2000/svg" xmlns:xlink="http://www.w3.org/1999/xlink" x="0px" y="0px"
	 viewBox="0 0 64 64" style="enable-background:new 0 0 64 64;" xml:space="preserve">
<style type="text/css">
	.st0{fill:#263238;}
	.st1{fill:#40C4FF;}
	.st2{fill:#FFD740;}
	.st3{fill:#FF5252;}
	.st4{fill:#4DB6AC;}
	.st5{fill:#FFFFFF;}
	.st6{fill:#4FC3F7;}
</style>
<g id="Identity_Theft">
	<g>
		<path class="st0" d="M41,7.5h-4c-0.276,0-0.5-0.224-0.5-0.5s0.224-0.5,0.5-0.5h4c0.276,0,0.5,0.224,0.5,0.5S41.277,7.5,41,7.5z"/>
	</g>
	<g>
		<path class="st0" d="M39,9.5c-0.276,0-0.5-0.224-0.5-0.5V5c0-0.276,0.224-0.5,0.5-0.5s0.5,0.224,0.5,0.5v4
			C39.5,9.276,39.277,9.5,39,9.5z"/>
	</g>
	<g>
		<path class="st0" d="M33,13h-4c-0.276,0-0.5-0.224-0.5-0.5S28.724,12,29,12h4c0.276,0,0.5,0.224,0.5,0.5S33.277,13,33,13z"/>
	</g>
	<g>
		<path class="st0" d="M31,15c-0.276,0-0.5-0.224-0.5-0.5v-4c0-0.276,0.224-0.5,0.5-0.5s0.5,0.224,0.5,0.5v4
			C31.5,14.776,31.277,15,31,15z"/>
	</g>
	<g>
		<path class="st0" d="M33.272,22.391c-0.167,0-0.332-0.084-0.426-0.237c-0.145-0.235-0.072-0.543,0.163-0.688l8.943-5.52
			c4.033-2.487,9.1-2.587,13.225-0.255l3.352,1.895c1.048,0.593,2.239,0.906,3.444,0.906H63.5c0.276,0,0.5,0.224,0.5,0.5
			s-0.224,0.5-0.5,0.5h-1.527c-1.377,0-2.739-0.358-3.937-1.035l-3.352-1.895c-3.807-2.152-8.485-2.062-12.207,0.235l-8.943,5.52
			C33.453,22.366,33.362,22.391,33.272,22.391z"/>
	</g>
	<g>
		<path class="st0" d="M47.798,37.491h-6.297c-1.93,0-3.5-1.57-3.5-3.5s1.57-3.5,3.5-3.5h2.981c2.216,0,4.019-1.803,4.019-4.019
			c0-1.467-0.762-2.774-2.038-3.497c-1.277-0.723-2.791-0.703-4.048,0.051l-3.156,1.894c-0.238,0.144-0.544,0.064-0.686-0.172
			s-0.065-0.544,0.171-0.686l3.156-1.894c1.572-0.942,3.462-0.966,5.056-0.063s2.545,2.535,2.545,4.367
			c0,2.768-2.251,5.019-5.019,5.019h-2.981c-1.379,0-2.5,1.121-2.5,2.5s1.122,2.5,2.5,2.5h6.297c1.346,0,2.654-0.384,3.785-1.111
			l2.677-1.721c1.697-1.091,3.661-1.668,5.678-1.668H63.5c0.276,0,0.5,0.224,0.5,0.5s-0.224,0.5-0.5,0.5h-3.562
			c-1.825,0-3.602,0.521-5.137,1.51l-2.677,1.721C50.832,37.052,49.335,37.491,47.798,37.491z"/>
	</g>
	<g>
		<path class="st0" d="M19.501,16.491h-1c-0.276,0-0.5-0.224-0.5-0.5s0.224-0.5,0.5-0.5h1c0.276,0,0.5,0.224,0.5,0.5
			S19.777,16.491,19.501,16.491z"/>
	</g>
	<g>
		<path class="st0" d="M16.501,16.491h-11c-0.276,0-0.5-0.224-0.5-0.5s0.224-0.5,0.5-0.5h11c0.276,0,0.5,0.224,0.5,0.5
			S16.777,16.491,16.501,16.491z"/>
	</g>
	<g>
		<path class="st0" d="M11.501,19.491h-11c-0.276,0-0.5-0.224-0.5-0.5s0.224-0.5,0.5-0.5h11c0.276,0,0.5,0.224,0.5,0.5
			S11.777,19.491,11.501,19.491z"/>
	</g>
	<g>
		<path class="st0" d="M27.3,47.696c-2.433,0-4.866-0.927-6.718-2.778c-3.704-3.704-3.704-9.73,0-13.435
			c3.705-3.703,9.731-3.705,13.435,0c3.704,3.704,3.704,9.73,0,13.435C32.165,46.77,29.732,47.696,27.3,47.696z M27.3,29.705
			c-2.177,0-4.354,0.828-6.011,2.485c-3.314,3.314-3.314,8.706,0,12.021c3.314,3.314,8.707,3.314,12.021,0
			c3.314-3.314,3.314-8.706,0-12.021C31.653,30.534,29.476,29.705,27.3,29.705z"/>
	</g>
	<g>
		<ellipse transform="matrix(0.7071 -0.7071 0.7071 0.7071 -19.0162 30.4926)" class="st1" cx="27.3" cy="38.201" rx="7" ry="7"/>
	</g>
	<g>
		<path class="st0" d="M17.754,50.368c-0.128,0-0.256-0.049-0.354-0.146c-0.195-0.195-0.195-0.512,0-0.707l3.889-3.889l-1.415-1.415
			l-3.889,3.89c-0.195,0.195-0.512,0.195-0.707,0s-0.195-0.512,0-0.707l4.243-4.243c0.188-0.188,0.52-0.188,0.707,0l2.122,2.122
			c0.195,0.195,0.195,0.512,0,0.707l-4.243,4.242C18.01,50.319,17.882,50.368,17.754,50.368z"/>
	</g>
	<g>
		<path class="st0" d="M10.329,59.499c-0.384,0-0.768-0.146-1.061-0.438L6.44,56.232c0,0,0,0,0,0
			c-0.283-0.283-0.438-0.66-0.438-1.061c0-0.401,0.156-0.778,0.439-1.061l5.657-5.657c0.565-0.566,1.554-0.566,2.121,0l2.829,2.828
			c0.584,0.585,0.584,1.536,0,2.121l-5.658,5.657C11.097,59.353,10.713,59.499,10.329,59.499z M7.147,55.525l2.828,2.828
			c0.195,0.195,0.512,0.195,0.707,0l5.657-5.657c0.194-0.195,0.194-0.512,0-0.707l-2.828-2.828c-0.19-0.189-0.519-0.189-0.707,0
			l-5.658,5.657c-0.094,0.095-0.146,0.22-0.146,0.354S7.053,55.431,7.147,55.525z"/>
	</g>
	<g>
		<path class="st0" d="M17.754,50.368c-0.128,0-0.256-0.049-0.354-0.146c-0.195-0.195-0.195-0.512,0-0.707l3.889-3.889l-1.415-1.415
			l-3.889,3.89c-0.195,0.195-0.512,0.195-0.707,0s-0.195-0.512,0-0.707l4.243-4.243c0.188-0.188,0.52-0.188,0.707,0l2.122,2.122
			c0.195,0.195,0.195,0.512,0,0.707l-4.243,4.242C18.01,50.319,17.882,50.368,17.754,50.368z"/>
	</g>
	<g>
		<path class="st2" d="M6.794,55.879l2.828,2.828c0.391,0.391,1.024,0.391,1.414,0l5.657-5.657c0.391-0.391,0.391-1.024,0-1.414
			l-2.828-2.828c-0.391-0.391-1.024-0.391-1.414,0l-5.657,5.657C6.403,54.855,6.403,55.488,6.794,55.879z"/>
		<path class="st0" d="M10.329,59.499c-0.384,0-0.768-0.146-1.061-0.438L6.44,56.232c0,0,0,0,0,0
			c-0.283-0.283-0.438-0.66-0.438-1.061c0-0.401,0.156-0.778,0.439-1.061l5.657-5.657c0.565-0.566,1.554-0.566,2.121,0l2.829,2.828
			c0.584,0.585,0.584,1.536,0,2.121l-5.658,5.657C11.097,59.353,10.713,59.499,10.329,59.499z M7.147,55.525l2.828,2.828
			c0.195,0.195,0.512,0.195,0.707,0l5.657-5.657c0.194-0.195,0.194-0.512,0-0.707l-2.828-2.828c-0.19-0.189-0.519-0.189-0.707,0
			l-5.658,5.657c-0.094,0.095-0.146,0.22-0.146,0.354S7.053,55.431,7.147,55.525z"/>
	</g>
	<g>
		<path class="st0" d="M36.8,58.991l-19.001-0.007c-1.158-0.001-2.223-0.685-2.714-1.74c-0.117-0.25-0.008-0.548,0.242-0.664
			c0.252-0.118,0.548-0.007,0.664,0.242c0.328,0.705,1.038,1.161,1.809,1.162l19,0.007c1.103,0,2-0.897,2-2V38.459
			c0-0.276,0.224-0.5,0.5-0.5s0.5,0.224,0.5,0.5v17.532C39.8,57.646,38.454,58.991,36.8,58.991z"/>
	</g>
	<g>
		<path class="st0" d="M15.3,45.752c-0.276,0-0.5-0.224-0.5-0.5V28.991c0-1.654,1.346-3,3-3h19c1.654,0,3,1.346,3,3v0.533
			c0,0.276-0.224,0.5-0.5,0.5s-0.5-0.224-0.5-0.5v-0.533c0-1.103-0.897-2-2-2h-19c-1.103,0-2,0.897-2,2v16.261
			C15.8,45.528,15.576,45.752,15.3,45.752z"/>
	</g>
	<g>
		<circle class="st5" cx="27.3" cy="37.201" r="3"/>
		<path class="st0" d="M27.3,40.701c-1.93,0-3.5-1.57-3.5-3.5s1.57-3.5,3.5-3.5s3.5,1.57,3.5,3.5S29.229,40.701,27.3,40.701z
			 M27.3,34.701c-1.378,0-2.5,1.121-2.5,2.5s1.122,2.5,2.5,2.5s2.5-1.121,2.5-2.5S28.678,34.701,27.3,34.701z"/>
	</g>
	<g>
		<path class="st5" d="M27.317,40.201c-2.13,0-3.937,1.338-4.657,3.215c2.651,2.37,6.663,2.37,9.314,0
			C31.253,41.539,29.447,40.201,27.317,40.201z"/>
		<path class="st0" d="M27.316,45.695c-1.784,0-3.567-0.636-4.99-1.907c-0.155-0.139-0.208-0.358-0.133-0.553
			c0.824-2.146,2.835-3.534,5.124-3.534c2.288,0,4.299,1.388,5.124,3.534c0.074,0.194,0.021,0.414-0.133,0.553
			C30.884,45.06,29.1,45.695,27.316,45.695z M23.264,43.272c2.367,1.896,5.736,1.896,8.105,0c-0.744-1.573-2.299-2.571-4.053-2.571
			C25.562,40.701,24.008,41.699,23.264,43.272z"/>
	</g>
	<g>
		<path class="st0" d="M31.8,24.991c-0.276,0-0.5-0.224-0.5-0.5v-0.5c0-1.103-0.897-2-2-2h-4c-1.103,0-2,0.897-2,2v0.5
			c0,0.276-0.224,0.5-0.5,0.5s-0.5-0.224-0.5-0.5v-0.5c0-1.654,1.346-3,3-3h4c1.654,0,3,1.346,3,3v0.5
			C32.3,24.768,32.076,24.991,31.8,24.991z"/>
	</g>
	<g>
		<path class="st0" d="M28.8,23.991h-3c-0.276,0-0.5-0.224-0.5-0.5s0.224-0.5,0.5-0.5h3c0.276,0,0.5,0.224,0.5,0.5
			S29.076,23.991,28.8,23.991z"/>
	</g>
	<g>
		<path class="st0" d="M32.3,51.701h-10c-0.276,0-0.5-0.224-0.5-0.5s0.224-0.5,0.5-0.5h10c0.276,0,0.5,0.224,0.5,0.5
			S32.576,51.701,32.3,51.701z"/>
	</g>
	<g>
		<path class="st0" d="M31.3,54.701h-8c-0.276,0-0.5-0.224-0.5-0.5s0.224-0.5,0.5-0.5h8c0.276,0,0.5,0.224,0.5,0.5
			S31.576,54.701,31.3,54.701z"/>
	</g>
</g>
</svg>
