<?xml version="1.0" encoding="utf-8"?>
<!-- Generator: Adobe Illustrator 21.1.0, SVG Export Plug-In . SVG Version: 6.00 Build 0)  -->
<svg version="1.1" id="Icon_Set" xmlns="http://www.w3.org/2000/svg" xmlns:xlink="http://www.w3.org/1999/xlink" x="0px" y="0px"
	 viewBox="0 0 64 64" style="enable-background:new 0 0 64 64;" xml:space="preserve">
<style type="text/css">
	.st0{fill:#263238;}
	.st1{fill:#40C4FF;}
	.st2{fill:#FFD740;}
	.st3{fill:#FF5252;}
	.st4{fill:#4DB6AC;}
	.st5{fill:#FFFFFF;}
	.st6{fill:#4FC3F7;}
</style>
<g id="Income">
	<g>
		<path class="st0" d="M47.797,34.25H41.5c-1.93,0-3.5-1.57-3.5-3.5s1.57-3.5,3.5-3.5h2.981c2.216,0,4.019-1.803,4.019-4.019
			c0-1.467-0.762-2.774-2.039-3.497c-1.277-0.723-2.79-0.704-4.048,0.051l-3.156,1.894c-0.238,0.143-0.544,0.065-0.686-0.171
			c-0.142-0.237-0.065-0.544,0.171-0.686l3.156-1.894c1.57-0.942,3.46-0.966,5.055-0.064c1.594,0.903,2.546,2.535,2.546,4.367
			c0,2.768-2.251,5.019-5.019,5.019H41.5c-1.378,0-2.5,1.122-2.5,2.5s1.122,2.5,2.5,2.5h6.297c1.345,0,2.653-0.384,3.786-1.112
			l2.676-1.72c1.697-1.091,3.66-1.668,5.678-1.668H62.5c0.276,0,0.5-0.224,0.5-0.5v-11.5c0-0.276-0.224-0.5-0.5-0.5h-0.527
			c-1.376,0-2.738-0.358-3.937-1.035l-3.352-1.895c-3.808-2.152-8.487-2.062-12.208,0.235l-13.009,8.029
			c-0.235,0.146-0.543,0.072-0.688-0.163s-0.072-0.543,0.163-0.688l13.009-8.029c4.032-2.489,9.1-2.586,13.225-0.254l3.352,1.895
			c1.049,0.592,2.24,0.906,3.444,0.906H62.5c0.827,0,1.5,0.673,1.5,1.5v11.5c0,0.827-0.673,1.5-1.5,1.5h-2.563
			c-1.825,0-3.602,0.522-5.137,1.509l-2.677,1.721C50.83,33.811,49.334,34.25,47.797,34.25z"/>
	</g>
	<g>
		<path class="st4" d="M41.5,35.75c-2.757,0-5-2.243-5-5s2.243-5,5-5h2v-1.5c0-0.552-0.448-1-1-1h-30c-0.552,0-1,0.448-1,1v16
			c0,0.552,0.448,1,1,1h30c0.552,0,1-0.448,1-1v-4.5H41.5z"/>
	</g>
	<g>
		<path class="st0" d="M42.5,41.75h-30c-0.827,0-1.5-0.673-1.5-1.5v-16c0-0.827,0.673-1.5,1.5-1.5h30c0.827,0,1.5,0.673,1.5,1.5v1.5
			c0,0.276-0.224,0.5-0.5,0.5s-0.5-0.224-0.5-0.5v-1.5c0-0.276-0.224-0.5-0.5-0.5h-30c-0.276,0-0.5,0.224-0.5,0.5v16
			c0,0.276,0.224,0.5,0.5,0.5h30c0.276,0,0.5-0.224,0.5-0.5v-4.5c0-0.276,0.224-0.5,0.5-0.5s0.5,0.224,0.5,0.5v4.5
			C44,41.077,43.327,41.75,42.5,41.75z"/>
	</g>
	<g>
		<path class="st0" d="M29.5,4.5h-4C25.224,4.5,25,4.276,25,4s0.224-0.5,0.5-0.5h4C29.776,3.5,30,3.724,30,4S29.776,4.5,29.5,4.5z"
			/>
	</g>
	<g>
		<path class="st0" d="M27.5,6.5C27.224,6.5,27,6.276,27,6V2c0-0.276,0.224-0.5,0.5-0.5S28,1.724,28,2v4
			C28,6.276,27.776,6.5,27.5,6.5z"/>
	</g>
	<g>
		<path class="st0" d="M21.5,10h-4C17.224,10,17,9.776,17,9.5S17.224,9,17.5,9h4C21.776,9,22,9.224,22,9.5S21.776,10,21.5,10z"/>
	</g>
	<g>
		<path class="st0" d="M19.5,12c-0.276,0-0.5-0.224-0.5-0.5v-4C19,7.224,19.224,7,19.5,7S20,7.224,20,7.5v4
			C20,11.776,19.776,12,19.5,12z"/>
	</g>
	<g>
		<path class="st0" d="M26,50.5c-0.059,0-0.12-0.01-0.178-0.033l-7.92-3.017c-1.654-0.63-3.391-0.95-5.162-0.95H10
			c-0.276,0-0.5-0.224-0.5-0.5s0.224-0.5,0.5-0.5h2.739c1.893,0,3.75,0.342,5.519,1.016l7.92,3.017
			c0.258,0.098,0.387,0.387,0.289,0.646C26.391,50.377,26.201,50.5,26,50.5z"/>
	</g>
	<g>
		<path class="st0" d="M46,62.5H31.49c-2.374,0-4.71-0.408-6.944-1.212l-7.574-2.727C15.937,58.189,14.854,58,13.755,58H10
			c-0.276,0-0.5-0.224-0.5-0.5S9.724,57,10,57h3.755c1.216,0,2.412,0.209,3.557,0.621l7.574,2.727
			c2.125,0.765,4.347,1.152,6.605,1.152H46c1.103,0,2-0.897,2-2s-0.897-2-2-2H34.5c-0.276,0-0.5-0.224-0.5-0.5s0.224-0.5,0.5-0.5H46
			c1.654,0,3,1.346,3,3S47.654,62.5,46,62.5z"/>
	</g>
	<g>
		<path class="st1" d="M0.5,44.5V59c0,0.552,0.448,1,1,1H7c0.552,0,1-0.448,1-1V44.5c0-0.552-0.448-1-1-1H1.5
			C0.948,43.5,0.5,43.948,0.5,44.5z"/>
		<path class="st0" d="M7,60.5H1.5C0.673,60.5,0,59.827,0,59V44.5C0,43.673,0.673,43,1.5,43H7c0.827,0,1.5,0.673,1.5,1.5V59
			C8.5,59.827,7.827,60.5,7,60.5z M1.5,44C1.224,44,1,44.224,1,44.5V59c0,0.276,0.224,0.5,0.5,0.5H7c0.276,0,0.5-0.224,0.5-0.5V44.5
			C7.5,44.224,7.276,44,7,44H1.5z"/>
	</g>
	<g>
		<path class="st0" d="M33,55.5h-6.5c-0.276,0-0.5-0.224-0.5-0.5s0.224-0.5,0.5-0.5H33c1.103,0,2-0.897,2-2s-0.897-2-2-2h-7
			c-0.276,0-0.5-0.224-0.5-0.5s0.224-0.5,0.5-0.5h7c1.654,0,3,1.346,3,3S34.654,55.5,33,55.5z"/>
	</g>
	<g>
		<path class="st0" d="M12.5,20.75h-1c-0.276,0-0.5-0.224-0.5-0.5s0.224-0.5,0.5-0.5h1c0.276,0,0.5,0.224,0.5,0.5
			S12.776,20.75,12.5,20.75z"/>
	</g>
	<g>
		<path class="st0" d="M25.5,20.75h-11c-0.276,0-0.5-0.224-0.5-0.5s0.224-0.5,0.5-0.5h11c0.276,0,0.5,0.224,0.5,0.5
			S25.776,20.75,25.5,20.75z"/>
	</g>
	<g>
		<path class="st0" d="M43.5,45h-1c-0.276,0-0.5-0.224-0.5-0.5s0.224-0.5,0.5-0.5h1c0.276,0,0.5,0.224,0.5,0.5S43.776,45,43.5,45z"
			/>
	</g>
	<g>
		<path class="st0" d="M40.5,45h-11c-0.276,0-0.5-0.224-0.5-0.5s0.224-0.5,0.5-0.5h11c0.276,0,0.5,0.224,0.5,0.5S40.776,45,40.5,45z
			"/>
	</g>
	<g>
		<circle class="st5" cx="27.5" cy="32.25" r="6"/>
		<path class="st0" d="M27.5,38.75c-3.584,0-6.5-2.916-6.5-6.5s2.916-6.5,6.5-6.5s6.5,2.916,6.5,6.5S31.084,38.75,27.5,38.75z
			 M27.5,26.75c-3.033,0-5.5,2.467-5.5,5.5s2.467,5.5,5.5,5.5s5.5-2.467,5.5-5.5S30.533,26.75,27.5,26.75z"/>
	</g>
	<g>
		<path class="st0" d="M28.25,35.25H25.5c-0.276,0-0.5-0.224-0.5-0.5s0.224-0.5,0.5-0.5h2.75c0.414,0,0.75-0.336,0.75-0.75
			s-0.336-0.75-0.75-0.75h-1.5C25.785,32.75,25,31.965,25,31s0.785-1.75,1.75-1.75H29c0.276,0,0.5,0.224,0.5,0.5s-0.224,0.5-0.5,0.5
			h-2.25C26.336,30.25,26,30.587,26,31s0.336,0.75,0.75,0.75h1.5c0.965,0,1.75,0.785,1.75,1.75S29.215,35.25,28.25,35.25z"/>
	</g>
	<g>
		<path class="st0" d="M27.5,30.25c-0.276,0-0.5-0.224-0.5-0.5v-1.5c0-0.276,0.224-0.5,0.5-0.5s0.5,0.224,0.5,0.5v1.5
			C28,30.027,27.776,30.25,27.5,30.25z"/>
	</g>
	<g>
		<path class="st0" d="M27.5,36.75c-0.276,0-0.5-0.224-0.5-0.5v-1.5c0-0.276,0.224-0.5,0.5-0.5s0.5,0.224,0.5,0.5v1.5
			C28,36.527,27.776,36.75,27.5,36.75z"/>
	</g>
	<g>
		<path class="st0" d="M37.186,38.75H17.815c-0.193,0-0.368-0.111-0.451-0.285c-0.723-1.514-1.981-2.678-3.543-3.278
			c-0.193-0.074-0.321-0.26-0.321-0.467v-4.939c0-0.207,0.127-0.393,0.321-0.467c1.562-0.601,2.821-1.765,3.543-3.279
			c0.083-0.174,0.258-0.285,0.451-0.285h19.37c0.193,0,0.369,0.111,0.451,0.285c0.169,0.354,0.376,0.7,0.616,1.03
			c0.163,0.223,0.113,0.536-0.11,0.699c-0.223,0.163-0.536,0.113-0.699-0.11c-0.211-0.291-0.401-0.594-0.566-0.904H18.123
			c-0.796,1.505-2.066,2.685-3.623,3.366v4.27c1.557,0.681,2.826,1.859,3.623,3.365h18.754c0.593-1.117,1.465-2.07,2.537-2.771
			c0.229-0.151,0.541-0.086,0.692,0.145c0.151,0.231,0.086,0.541-0.145,0.692c-1.008,0.659-1.812,1.575-2.324,2.649
			C37.554,38.639,37.378,38.75,37.186,38.75z"/>
	</g>
</g>
</svg>
