<?xml version="1.0" encoding="utf-8"?>
<!-- Generator: Adobe Illustrator 21.1.0, SVG Export Plug-In . SVG Version: 6.00 Build 0)  -->
<svg version="1.1" id="Icon_Set" xmlns="http://www.w3.org/2000/svg" xmlns:xlink="http://www.w3.org/1999/xlink" x="0px" y="0px"
	 viewBox="0 0 64 64" style="enable-background:new 0 0 64 64;" xml:space="preserve">
<style type="text/css">
	.st0{fill:#263238;}
	.st1{fill:#40C4FF;}
	.st2{fill:#FFD740;}
	.st3{fill:#FF5252;}
	.st4{fill:#4DB6AC;}
	.st5{fill:#FFFFFF;}
	.st6{fill:#4FC3F7;}
</style>
<g id="Insurtech">
	<g>
		<path class="st0" d="M58,12.5h-4c-0.276,0-0.5-0.224-0.5-0.5s0.224-0.5,0.5-0.5h4c0.276,0,0.5,0.224,0.5,0.5S58.276,12.5,58,12.5z
			"/>
	</g>
	<g>
		<path class="st0" d="M56,14.5c-0.276,0-0.5-0.224-0.5-0.5v-4c0-0.276,0.224-0.5,0.5-0.5s0.5,0.224,0.5,0.5v4
			C56.5,14.276,56.276,14.5,56,14.5z"/>
	</g>
	<g>
		<path class="st0" d="M50,18h-4c-0.276,0-0.5-0.224-0.5-0.5S45.724,17,46,17h4c0.276,0,0.5,0.224,0.5,0.5S50.276,18,50,18z"/>
	</g>
	<g>
		<path class="st0" d="M48,20c-0.276,0-0.5-0.224-0.5-0.5v-4c0-0.276,0.224-0.5,0.5-0.5s0.5,0.224,0.5,0.5v4
			C48.5,19.776,48.276,20,48,20z"/>
	</g>
	<g>
		<path class="st4" d="M54,31.5c0-0.552-0.448-1-1-1H23c-0.552,0-1,0.448-1,1v16c0,0.552,0.448,1,1,1h30c0.552,0,1-0.448,1-1V31.5z"
			/>
		<path class="st0" d="M53,49H23c-0.827,0-1.5-0.673-1.5-1.5v-16c0-0.827,0.673-1.5,1.5-1.5h30c0.827,0,1.5,0.673,1.5,1.5v16
			C54.5,48.327,53.827,49,53,49z M23,31c-0.275,0-0.5,0.225-0.5,0.5v16c0,0.275,0.225,0.5,0.5,0.5h30c0.275,0,0.5-0.225,0.5-0.5v-16
			c0-0.275-0.225-0.5-0.5-0.5H23z"/>
	</g>
	<g>
		<path class="st0" d="M35.5,56h-23c-1.654,0-3-1.346-3-3V28.234c0-0.276,0.224-0.5,0.5-0.5s0.5,0.224,0.5,0.5V53
			c0,1.103,0.897,2,2,2h23c1.103,0,2-0.897,2-2v-2.5c0-0.276,0.224-0.5,0.5-0.5s0.5,0.224,0.5,0.5V53C38.5,54.654,37.154,56,35.5,56
			z"/>
	</g>
	<g>
		<path class="st0" d="M38,29c-0.276,0-0.5-0.224-0.5-0.5V11c0-1.103-0.897-2-2-2h-3.793l-2.354,2.354
			C29.26,11.447,29.133,11.5,29,11.5H19c-0.133,0-0.26-0.053-0.354-0.146L16.293,9H12.5c-1.103,0-2,0.897-2,2v3.87
			c0,0.276-0.224,0.5-0.5,0.5s-0.5-0.224-0.5-0.5V11c0-1.654,1.346-3,3-3h4c0.133,0,0.26,0.053,0.354,0.146l2.354,2.354h9.586
			l2.354-2.354C31.24,8.053,31.367,8,31.5,8h4c1.654,0,3,1.346,3,3v17.5C38.5,28.776,38.276,29,38,29z"/>
	</g>
	<g>
		<path class="st0" d="M36,59H12c-3.032,0-5.5-2.468-5.5-5.5V27.568c0-0.276,0.224-0.5,0.5-0.5s0.5,0.224,0.5,0.5V53.5
			c0,2.481,2.019,4.5,4.5,4.5h24c2.481,0,4.5-2.019,4.5-4.5v-3c0-0.276,0.224-0.5,0.5-0.5s0.5,0.224,0.5,0.5v3
			C41.5,56.532,39.032,59,36,59z"/>
	</g>
	<g>
		<path class="st0" d="M41,29c-0.276,0-0.5-0.224-0.5-0.5v-18C40.5,8.019,38.481,6,36,6H12c-2.481,0-4.5,2.019-4.5,4.5v6.291
			c0,0.276-0.224,0.5-0.5,0.5s-0.5-0.224-0.5-0.5V10.5C6.5,7.468,8.968,5,12,5h24c3.032,0,5.5,2.468,5.5,5.5v18
			C41.5,28.776,41.276,29,41,29z"/>
	</g>
	<g>
		<circle class="st5" cx="38" cy="39.5" r="6"/>
		<path class="st0" d="M38,46c-3.584,0-6.5-2.916-6.5-6.5S34.416,33,38,33s6.5,2.916,6.5,6.5S41.584,46,38,46z M38,34
			c-3.032,0-5.5,2.468-5.5,5.5S34.968,45,38,45s5.5-2.468,5.5-5.5S41.032,34,38,34z"/>
	</g>
	<g>
		<path class="st0" d="M38.75,42.5H36c-0.276,0-0.5-0.224-0.5-0.5s0.224-0.5,0.5-0.5h2.75c0.413,0,0.75-0.337,0.75-0.75
			S39.163,40,38.75,40h-1.5c-0.965,0-1.75-0.785-1.75-1.75s0.785-1.75,1.75-1.75h2.25c0.276,0,0.5,0.224,0.5,0.5s-0.224,0.5-0.5,0.5
			h-2.25c-0.413,0-0.75,0.337-0.75,0.75S36.837,39,37.25,39h1.5c0.965,0,1.75,0.785,1.75,1.75S39.715,42.5,38.75,42.5z"/>
	</g>
	<g>
		<path class="st0" d="M38,37.5c-0.276,0-0.5-0.224-0.5-0.5v-1.5c0-0.276,0.224-0.5,0.5-0.5s0.5,0.224,0.5,0.5V37
			C38.5,37.276,38.276,37.5,38,37.5z"/>
	</g>
	<g>
		<path class="st0" d="M38,44c-0.276,0-0.5-0.224-0.5-0.5V42c0-0.276,0.224-0.5,0.5-0.5s0.5,0.224,0.5,0.5v1.5
			C38.5,43.776,38.276,44,38,44z"/>
	</g>
	<g>
		<path class="st0" d="M47.686,46H28.314c-0.192,0-0.368-0.11-0.451-0.285c-0.723-1.514-1.98-2.678-3.543-3.277
			c-0.192-0.074-0.32-0.26-0.32-0.467v-4.94c0-0.207,0.128-0.393,0.32-0.467c1.562-0.601,2.82-1.765,3.543-3.278
			C27.946,33.11,28.122,33,28.314,33h19.371c0.192,0,0.368,0.11,0.451,0.285c0.723,1.514,1.98,2.678,3.543,3.278
			c0.192,0.074,0.32,0.26,0.32,0.467v4.94c0,0.207-0.128,0.393-0.32,0.467c-1.562,0.6-2.82,1.764-3.543,3.277
			C48.054,45.89,47.878,46,47.686,46z M28.623,45h18.754c0.797-1.505,2.066-2.684,3.623-3.364v-4.271
			c-1.557-0.681-2.826-1.86-3.623-3.365H28.623c-0.797,1.505-2.066,2.685-3.623,3.365v4.271C26.557,42.316,27.826,43.495,28.623,45z
			"/>
	</g>
	<g>
		<path class="st3" d="M16,15.5l1.009,1.297c2.345,3.016,3.422,6.827,3,10.624L20,27.5l0.16-0.213c1.92-2.56,5.76-2.56,7.68,0
			L28,27.5C28,20.873,22.627,15.5,16,15.5z"/>
		<path class="st0" d="M20,28c-0.062,0-0.124-0.012-0.185-0.035c-0.209-0.083-0.337-0.296-0.312-0.521
			c0.419-3.767-0.61-7.411-2.889-10.341l-1.009-1.297c-0.117-0.15-0.139-0.354-0.055-0.526S15.809,15,16,15
			c6.893,0,12.5,5.607,12.5,12.5c0,0.215-0.138,0.406-0.342,0.475c-0.204,0.065-0.429-0.002-0.558-0.174l-0.16-0.213
			c-0.82-1.094-2.074-1.721-3.44-1.721s-2.62,0.627-3.439,1.72l-0.161,0.214C20.303,27.929,20.153,28,20,28z M24,24.867
			c1.276,0,2.473,0.443,3.417,1.244c-0.646-5.343-4.97-9.568-10.356-10.062l0.343,0.441c2.155,2.771,3.267,6.139,3.193,9.61
			C21.539,25.307,22.729,24.867,24,24.867z"/>
	</g>
	<g>
		<path class="st3" d="M4,27.5l0.16-0.213c1.92-2.56,5.76-2.56,7.68,0L12,27.5l-0.009-0.079c-0.422-3.797,0.654-7.609,3-10.624
			L16,15.5C9.373,15.5,4,20.873,4,27.5z"/>
		<path class="st0" d="M4,28c-0.053,0-0.106-0.009-0.158-0.025C3.638,27.906,3.5,27.715,3.5,27.5C3.5,20.607,9.107,15,16,15
			c0.191,0,0.365,0.108,0.449,0.28s0.062,0.376-0.055,0.526l-1.009,1.297c-2.278,2.93-3.308,6.574-2.897,10.262
			c0.024,0.225-0.099,0.477-0.309,0.56s-0.444,0.055-0.579-0.124l-0.16-0.213c-0.82-1.094-2.074-1.721-3.44-1.721
			s-2.62,0.627-3.439,1.72l-0.161,0.214C4.304,27.929,4.154,28,4,28z M14.939,16.049c-5.387,0.494-9.71,4.72-10.356,10.062
			C5.527,25.311,6.724,24.867,8,24.867c1.272,0,2.465,0.44,3.408,1.237c-0.067-3.507,1.043-6.856,3.188-9.614L14.939,16.049z"/>
	</g>
	<g>
		<path class="st5" d="M17.009,16.797L16,15.5l-1.009,1.297c-2.345,3.016-3.422,6.827-3,10.624L12,27.5l0.16-0.213
			c1.92-2.56,5.76-2.56,7.68,0L20,27.5l0.009-0.079C20.431,23.624,19.354,19.813,17.009,16.797z"/>
		<path class="st0" d="M12,28c-0.044,0-0.088-0.006-0.132-0.018c-0.198-0.055-0.343-0.224-0.365-0.427
			c-0.447-4.028,0.654-7.93,3.094-11.065l1.009-1.297c0.189-0.244,0.6-0.244,0.789,0l1.009,1.297l0,0
			c2.439,3.136,3.541,7.037,3.103,10.986c-0.022,0.203-0.172,0.412-0.369,0.466c-0.197,0.056-0.413,0.022-0.536-0.142l-0.16-0.213
			c-0.82-1.094-2.074-1.721-3.44-1.721s-2.62,0.627-3.439,1.72l-0.161,0.214C12.304,27.928,12.154,28,12,28z M16,16.314
			l-0.614,0.789c-2.052,2.638-3.09,5.855-2.978,9.163c0.97-0.898,2.235-1.399,3.592-1.399c1.354,0,2.618,0.499,3.587,1.396
			c0.104-3.343-0.934-6.537-2.973-9.159L16,16.314z"/>
	</g>
	<g>
		<path class="st0" d="M14.5,42.866c-1.103,0-2-0.897-2-2v-0.5c0-0.276,0.224-0.5,0.5-0.5s0.5,0.224,0.5,0.5v0.5
			c0,0.552,0.448,1,1,1s1-0.448,1-1v-13.5c0-0.276,0.224-0.5,0.5-0.5s0.5,0.224,0.5,0.5v13.5C16.5,41.969,15.603,42.866,14.5,42.866
			z"/>
	</g>
	<g>
		<path class="st0" d="M60,27h-1c-0.276,0-0.5-0.224-0.5-0.5S58.724,26,59,26h1c0.276,0,0.5,0.224,0.5,0.5S60.276,27,60,27z"/>
	</g>
	<g>
		<path class="st0" d="M57,27H46c-0.276,0-0.5-0.224-0.5-0.5S45.724,26,46,26h11c0.276,0,0.5,0.224,0.5,0.5S57.276,27,57,27z"/>
	</g>
</g>
</svg>
