<?xml version="1.0" encoding="utf-8"?>
<!-- Generator: Adobe Illustrator 21.1.0, SVG Export Plug-In . SVG Version: 6.00 Build 0)  -->
<svg version="1.1" id="Icon_Set" xmlns="http://www.w3.org/2000/svg" xmlns:xlink="http://www.w3.org/1999/xlink" x="0px" y="0px"
	 viewBox="0 0 64 64" style="enable-background:new 0 0 64 64;" xml:space="preserve">
<style type="text/css">
	.st0{fill:#263238;}
	.st1{fill:#40C4FF;}
	.st2{fill:#FFD740;}
	.st3{fill:#FF5252;}
	.st4{fill:#4DB6AC;}
	.st5{fill:#FFFFFF;}
	.st6{fill:#4FC3F7;}
</style>
<g id="Internet_Banking">
	<g>
		<path class="st0" d="M38.75,14.5h-1c-0.276,0-0.5-0.224-0.5-0.5s0.224-0.5,0.5-0.5h1c0.276,0,0.5,0.224,0.5,0.5
			S39.026,14.5,38.75,14.5z"/>
	</g>
	<g>
		<path class="st0" d="M35.75,14.5h-15.5c-0.276,0-0.5-0.224-0.5-0.5s0.224-0.5,0.5-0.5h15.5c0.276,0,0.5,0.224,0.5,0.5
			S36.026,14.5,35.75,14.5z"/>
	</g>
	<g>
		<path class="st0" d="M26.25,11.5h-1c-0.276,0-0.5-0.224-0.5-0.5s0.224-0.5,0.5-0.5h1c0.276,0,0.5,0.224,0.5,0.5
			S26.526,11.5,26.25,11.5z"/>
	</g>
	<g>
		<path class="st0" d="M43.75,11.5h-15.5c-0.276,0-0.5-0.224-0.5-0.5s0.224-0.5,0.5-0.5h15.5c0.276,0,0.5,0.224,0.5,0.5
			S44.026,11.5,43.75,11.5z"/>
	</g>
	<g>
		<path class="st0" d="M59.5,60.5h-56c-1.654,0-3-1.346-3-3s1.346-3,3-3h56c1.654,0,3,1.346,3,3S61.154,60.5,59.5,60.5z M3.5,55.5
			c-1.103,0-2,0.897-2,2s0.897,2,2,2h56c1.103,0,2-0.897,2-2s-0.897-2-2-2H3.5z"/>
	</g>
	<g>
		<path class="st0" d="M34,58h-5c-0.827,0-1.5-0.673-1.5-1.5V55c0-0.276,0.224-0.5,0.5-0.5s0.5,0.224,0.5,0.5v1.5
			c0,0.276,0.224,0.5,0.5,0.5h5c0.275,0,0.5-0.224,0.5-0.5V55c0-0.276,0.224-0.5,0.5-0.5s0.5,0.224,0.5,0.5v1.5
			C35.5,57.327,34.827,58,34,58z"/>
	</g>
	<g>
		<path class="st0" d="M56.5,53.5c-0.276,0-0.5-0.224-0.5-0.5v-8c0-0.276,0.224-0.5,0.5-0.5S57,44.724,57,45v8
			C57,53.276,56.776,53.5,56.5,53.5z"/>
	</g>
	<g>
		<path class="st0" d="M6.5,53.5C6.224,53.5,6,53.276,6,53V21.5c0-1.654,1.346-3,3-3h45c1.654,0,3,1.346,3,3V27
			c0,0.276-0.224,0.5-0.5,0.5S56,27.276,56,27v-5.5c0-1.103-0.897-2-2-2H9c-1.103,0-2,0.897-2,2V53C7,53.276,6.776,53.5,6.5,53.5z"
			/>
	</g>
	<g>
		<path class="st2" d="M62.5,43h-12c-0.552,0-1-0.448-1-1V30c0-0.552,0.448-1,1-1h12c0.552,0,1,0.448,1,1v12
			C63.5,42.552,63.052,43,62.5,43z"/>
		<path class="st0" d="M62.5,43.5h-12c-0.827,0-1.5-0.673-1.5-1.5V30c0-0.827,0.673-1.5,1.5-1.5h12c0.827,0,1.5,0.673,1.5,1.5v12
			C64,42.827,63.327,43.5,62.5,43.5z M50.5,29.5c-0.275,0-0.5,0.224-0.5,0.5v12c0,0.276,0.225,0.5,0.5,0.5h12
			c0.275,0,0.5-0.224,0.5-0.5V30c0-0.276-0.225-0.5-0.5-0.5H50.5z"/>
	</g>
	<g>
		<path class="st0" d="M52.5,50.5h-42C9.673,50.5,9,49.827,9,49V23c0-0.827,0.673-1.5,1.5-1.5h42c0.827,0,1.5,0.673,1.5,1.5v4
			c0,0.276-0.224,0.5-0.5,0.5S53,27.276,53,27v-4c0-0.276-0.225-0.5-0.5-0.5h-42c-0.276,0-0.5,0.224-0.5,0.5v26
			c0,0.276,0.224,0.5,0.5,0.5h42c0.275,0,0.5-0.224,0.5-0.5v-4c0-0.276,0.224-0.5,0.5-0.5S54,44.724,54,45v4
			C54,49.827,53.327,50.5,52.5,50.5z"/>
	</g>
	<g>
		<path class="st0" d="M56.5,34c-0.276,0-0.5-0.224-0.5-0.5V32c0-0.276,0.224-0.5,0.5-0.5S57,31.724,57,32v1.5
			C57,33.776,56.776,34,56.5,34z"/>
	</g>
	<g>
		<path class="st0" d="M56.5,40.5c-0.276,0-0.5-0.224-0.5-0.5v-1.5c0-0.276,0.224-0.5,0.5-0.5s0.5,0.224,0.5,0.5V40
			C57,40.276,56.776,40.5,56.5,40.5z"/>
	</g>
	<g>
		<path class="st0" d="M57.25,39H54.5c-0.276,0-0.5-0.224-0.5-0.5s0.224-0.5,0.5-0.5h2.75c0.413,0,0.75-0.336,0.75-0.75
			s-0.337-0.75-0.75-0.75h-1.5c-0.965,0-1.75-0.785-1.75-1.75S54.785,33,55.75,33H58c0.276,0,0.5,0.224,0.5,0.5S58.276,34,58,34
			h-2.25C55.337,34,55,34.336,55,34.75s0.337,0.75,0.75,0.75h1.5c0.965,0,1.75,0.785,1.75,1.75S58.215,39,57.25,39z"/>
	</g>
	<g>
		<path class="st0" d="M11.5,6.5h-4C7.224,6.5,7,6.276,7,6s0.224-0.5,0.5-0.5h4C11.776,5.5,12,5.724,12,6S11.776,6.5,11.5,6.5z"/>
	</g>
	<g>
		<path class="st0" d="M9.5,8.5C9.224,8.5,9,8.276,9,8V4c0-0.276,0.224-0.5,0.5-0.5S10,3.724,10,4v4C10,8.276,9.776,8.5,9.5,8.5z"/>
	</g>
	<g>
		<path class="st0" d="M4.5,13h-4C0.224,13,0,12.776,0,12.5S0.224,12,0.5,12h4C4.776,12,5,12.224,5,12.5S4.776,13,4.5,13z"/>
	</g>
	<g>
		<path class="st0" d="M2.5,15C2.224,15,2,14.776,2,14.5v-4C2,10.224,2.224,10,2.5,10S3,10.224,3,10.5v4C3,14.776,2.776,15,2.5,15z"
			/>
	</g>
	<g>
		<circle class="st1" cx="31.501" cy="36" r="10"/>
		<path class="st0" d="M31.5,46.5C25.711,46.5,21,41.79,21,36s4.71-10.5,10.5-10.5s10.5,4.71,10.5,10.5S37.29,46.5,31.5,46.5z
			 M31.5,26.5c-5.238,0-9.5,4.262-9.5,9.5s4.262,9.5,9.5,9.5c5.239,0,9.5-4.262,9.5-9.5S36.739,26.5,31.5,26.5z"/>
	</g>
	<g>
		<path class="st0" d="M31.5,46.5c-3.435,0-6.125-4.612-6.125-10.5s2.69-10.5,6.125-10.5c3.435,0,6.125,4.612,6.125,10.5
			S34.936,46.5,31.5,46.5z M31.5,26.5c-2.778,0-5.125,4.351-5.125,9.5s2.347,9.5,5.125,9.5s5.125-4.351,5.125-9.5
			S34.278,26.5,31.5,26.5z"/>
	</g>
	<g>
		<path class="st0" d="M31.5,32.75c-3.201,0-6.183-0.916-8.183-2.513c-0.216-0.172-0.251-0.487-0.079-0.703
			c0.172-0.214,0.486-0.251,0.703-0.079c1.826,1.458,4.581,2.294,7.559,2.294s5.734-0.836,7.56-2.294
			c0.216-0.172,0.53-0.137,0.702,0.079c0.173,0.216,0.137,0.53-0.079,0.703C37.685,31.834,34.701,32.75,31.5,32.75z"/>
	</g>
	<g>
		<path class="st0" d="M39.372,42.654c-0.109,0-0.22-0.036-0.312-0.109c-1.826-1.458-4.582-2.294-7.56-2.294
			s-5.733,0.836-7.559,2.294c-0.217,0.173-0.531,0.137-0.703-0.079c-0.172-0.216-0.137-0.53,0.079-0.703
			c2-1.597,4.982-2.513,8.183-2.513s6.184,0.916,8.183,2.513c0.216,0.172,0.252,0.487,0.079,0.703
			C39.664,42.589,39.519,42.654,39.372,42.654z"/>
	</g>
	<g>
		<path class="st0" d="M31.5,46.5c-0.276,0-0.5-0.224-0.5-0.5V26c0-0.276,0.224-0.5,0.5-0.5S32,25.724,32,26v20
			C32,46.276,31.777,46.5,31.5,46.5z"/>
	</g>
	<g>
		<path class="st0" d="M41.501,36.5h-20c-0.276,0-0.5-0.224-0.5-0.5s0.224-0.5,0.5-0.5h20c0.276,0,0.5,0.224,0.5,0.5
			S41.777,36.5,41.501,36.5z"/>
	</g>
</g>
</svg>
