<?xml version="1.0" encoding="utf-8"?>
<!-- Generator: Adobe Illustrator 21.1.0, SVG Export Plug-In . SVG Version: 6.00 Build 0)  -->
<svg version="1.1" id="Icon_Set" xmlns="http://www.w3.org/2000/svg" xmlns:xlink="http://www.w3.org/1999/xlink" x="0px" y="0px"
	 viewBox="0 0 64 64" style="enable-background:new 0 0 64 64;" xml:space="preserve">
<style type="text/css">
	.st0{fill:#263238;}
	.st1{fill:#40C4FF;}
	.st2{fill:#FFD740;}
	.st3{fill:#FF5252;}
	.st4{fill:#4DB6AC;}
	.st5{fill:#FFFFFF;}
	.st6{fill:#4FC3F7;}
</style>
<g id="Internet_Rates">
	<g>
		<circle class="st3" cx="13.5" cy="51" r="8"/>
		<path class="st0" d="M13.5,59.5C8.813,59.5,5,55.687,5,51s3.813-8.5,8.5-8.5S22,46.313,22,51S18.188,59.5,13.5,59.5z M13.5,43.5
			C9.365,43.5,6,46.864,6,51s3.364,7.5,7.5,7.5S21,55.136,21,51S17.636,43.5,13.5,43.5z"/>
	</g>
	<g>
		<path class="st0" d="M16.5,51.5h-6c-0.276,0-0.5-0.224-0.5-0.5s0.224-0.5,0.5-0.5h6c0.276,0,0.5,0.224,0.5,0.5
			S16.777,51.5,16.5,51.5z"/>
	</g>
	<g>
		<circle class="st1" cx="50.5" cy="14" r="8"/>
		<path class="st0" d="M50.5,22.5c-4.687,0-8.5-3.813-8.5-8.5s3.813-8.5,8.5-8.5S59,9.313,59,14S55.187,22.5,50.5,22.5z M50.5,6.5
			C46.364,6.5,43,9.864,43,14s3.364,7.5,7.5,7.5S58,18.136,58,14S54.636,6.5,50.5,6.5z"/>
	</g>
	<g>
		<path class="st0" d="M16,41.828c-0.276,0-0.5-0.224-0.5-0.5V21.5c0-3.032,2.467-5.5,5.5-5.5h19.828c0.276,0,0.5,0.224,0.5,0.5
			s-0.224,0.5-0.5,0.5H21c-2.481,0-4.5,2.019-4.5,4.5v19.828C16.5,41.604,16.277,41.828,16,41.828z"/>
	</g>
	<g>
		<path class="st0" d="M43,49H23.173c-0.276,0-0.5-0.224-0.5-0.5s0.224-0.5,0.5-0.5H43c2.481,0,4.5-2.019,4.5-4.5V23.672
			c0-0.276,0.224-0.5,0.5-0.5s0.5,0.224,0.5,0.5V43.5C48.5,46.532,46.032,49,43,49z"/>
	</g>
	<g>
		<path class="st0" d="M53.5,14.5h-6c-0.276,0-0.5-0.224-0.5-0.5s0.224-0.5,0.5-0.5h6c0.276,0,0.5,0.224,0.5,0.5
			S53.776,14.5,53.5,14.5z"/>
	</g>
	<g>
		<path class="st0" d="M50.5,17.5c-0.276,0-0.5-0.224-0.5-0.5v-6c0-0.276,0.224-0.5,0.5-0.5S51,10.724,51,11v6
			C51,17.276,50.776,17.5,50.5,17.5z"/>
	</g>
	<g>
		<path class="st2" d="M26.713,22.055c-3.041-0.466-5.623,2.116-5.157,5.157c0.29,1.894,1.838,3.443,3.733,3.733
			c3.042,0.467,5.625-2.116,5.158-5.158C30.155,23.893,28.607,22.345,26.713,22.055z M26,28c-0.828,0-1.5-0.672-1.5-1.5
			S25.172,25,26,25s1.5,0.672,1.5,1.5S26.829,28,26,28z"/>
		<path class="st0" d="M26.004,31.5c-0.262,0-0.526-0.02-0.792-0.061c-2.12-0.325-3.827-2.033-4.151-4.152
			c-0.247-1.607,0.265-3.184,1.403-4.322c1.139-1.139,2.716-1.651,4.324-1.404c2.12,0.324,3.827,2.031,4.152,4.15
			c0.247,1.609-0.265,3.186-1.404,4.325C28.585,30.986,27.33,31.5,26.004,31.5z M26.001,22.5c-1.063,0-2.068,0.411-2.829,1.172
			c-0.911,0.911-1.32,2.174-1.123,3.464c0.255,1.665,1.649,3.06,3.314,3.315c1.294,0.194,2.554-0.212,3.465-1.123
			s1.321-2.174,1.123-3.465c-0.255-1.666-1.649-3.06-3.315-3.314l0,0C26.423,22.517,26.211,22.5,26.001,22.5z M26,28.5
			c-1.103,0-2-0.897-2-2s0.897-2,2-2s2,0.897,2,2S27.104,28.5,26,28.5z M26,25.5c-0.551,0-1,0.448-1,1s0.449,1,1,1s1-0.448,1-1
			S26.552,25.5,26,25.5z"/>
	</g>
	<g>
		<path class="st2" d="M38,34c-2.485,0-4.5,2.015-4.5,4.5c0,2.485,2.015,4.5,4.5,4.5s4.5-2.015,4.5-4.5C42.5,36.015,40.486,34,38,34
			z M38,40c-0.828,0-1.5-0.672-1.5-1.5S37.172,37,38,37s1.5,0.672,1.5,1.5S38.829,40,38,40z"/>
		<path class="st0" d="M38.001,43.5c-2.757,0-5-2.243-5-5s2.243-5,5-5s5,2.243,5,5S40.758,43.5,38.001,43.5z M38.001,34.5
			c-2.206,0-4,1.794-4,4s1.794,4,4,4s4-1.794,4-4S40.207,34.5,38.001,34.5z M38.001,40.5c-1.103,0-2-0.897-2-2s0.897-2,2-2
			s2,0.897,2,2S39.104,40.5,38.001,40.5z M38.001,37.5c-0.552,0-1,0.448-1,1s0.448,1,1,1s1-0.448,1-1S38.553,37.5,38.001,37.5z"/>
	</g>
	<g>
		<path class="st2" d="M24,42c-0.384,0-0.768-0.146-1.061-0.439c-0.586-0.586-0.586-1.535,0-2.121l16-16
			c0.586-0.586,1.535-0.586,2.121,0s0.586,1.535,0,2.121l-16,16C24.768,41.854,24.384,42,24,42z"/>
		<path class="st0" d="M24,42.5c-0.534,0-1.036-0.208-1.414-0.586c-0.78-0.779-0.78-2.049,0-2.828l16-16
			c0.779-0.779,2.049-0.779,2.828,0s0.779,2.049,0,2.828l-16,16C25.037,42.292,24.535,42.5,24,42.5z M40,23.501
			c-0.256,0-0.512,0.097-0.707,0.292l-16,16c-0.39,0.39-0.39,1.024,0,1.414c0.378,0.377,1.036,0.377,1.414,0l16-16
			c0.39-0.39,0.39-1.024,0-1.414C40.512,23.598,40.256,23.501,40,23.501z"/>
	</g>
	<g>
		<path class="st0" d="M12.072,15c-0.128,0-0.256-0.049-0.354-0.146l-3.182-3.182l-3.182,3.182c-0.195,0.195-0.512,0.195-0.707,0
			s-0.195-0.512,0-0.707l3.536-3.535c0.195-0.195,0.512-0.195,0.707,0l3.182,3.182l9.146-9.146c0.195-0.195,0.512-0.195,0.707,0
			s0.195,0.512,0,0.707l-9.5,9.5C12.328,14.951,12.2,15,12.072,15z"/>
	</g>
	<g>
		<path class="st0" d="M21.572,9.5c-0.276,0-0.5-0.224-0.5-0.5V5.5h-3.5c-0.276,0-0.5-0.224-0.5-0.5s0.224-0.5,0.5-0.5h4
			c0.276,0,0.5,0.224,0.5,0.5v4C22.072,9.276,21.848,9.5,21.572,9.5z"/>
	</g>
	<g>
		<path class="st0" d="M59,54.5h-1c-0.276,0-0.5-0.224-0.5-0.5s0.224-0.5,0.5-0.5h1c0.276,0,0.5,0.224,0.5,0.5S59.276,54.5,59,54.5z
			"/>
	</g>
	<g>
		<path class="st0" d="M56,54.5H40c-0.276,0-0.5-0.224-0.5-0.5s0.224-0.5,0.5-0.5h16c0.276,0,0.5,0.224,0.5,0.5S56.276,54.5,56,54.5
			z"/>
	</g>
	<g>
		<path class="st0" d="M49,57.5H31c-0.276,0-0.5-0.224-0.5-0.5s0.224-0.5,0.5-0.5h18c0.276,0,0.5,0.224,0.5,0.5S49.276,57.5,49,57.5
			z"/>
	</g>
</g>
</svg>
