<?xml version="1.0" encoding="utf-8"?>
<!-- Generator: Adobe Illustrator 21.1.0, SVG Export Plug-In . SVG Version: 6.00 Build 0)  -->
<svg version="1.1" id="Icon_Set" xmlns="http://www.w3.org/2000/svg" xmlns:xlink="http://www.w3.org/1999/xlink" x="0px" y="0px"
	 viewBox="0 0 64 64" style="enable-background:new 0 0 64 64;" xml:space="preserve">
<style type="text/css">
	.st0{fill:#263238;}
	.st1{fill:#40C4FF;}
	.st2{fill:#FFD740;}
	.st3{fill:#FF5252;}
	.st4{fill:#4DB6AC;}
	.st5{fill:#FFFFFF;}
	.st6{fill:#4FC3F7;}
</style>
<g id="Investment">
	<g>
		<path class="st1" d="M33.25,10.779V29.25c0,0.552,0.448,1,1,1h18.471c0.564,0,1.032-0.467,1.003-1.03
			C53.206,18.994,44.506,10.295,34.28,9.776C33.717,9.748,33.25,10.216,33.25,10.779z"/>
		<path class="st0" d="M52.721,30.75H34.25c-0.827,0-1.5-0.673-1.5-1.5V10.779c0-0.413,0.172-0.812,0.472-1.098
			c0.296-0.282,0.683-0.42,1.084-0.405c10.453,0.531,19.389,9.466,19.918,19.918c0.021,0.403-0.123,0.788-0.404,1.084
			C53.534,30.578,53.134,30.75,52.721,30.75z M34.232,10.275c-0.118,0-0.231,0.046-0.322,0.132c-0.102,0.097-0.16,0.233-0.16,0.373
			V29.25c0,0.276,0.225,0.5,0.5,0.5h18.471c0.141,0,0.276-0.059,0.374-0.161c0.091-0.095,0.137-0.217,0.131-0.344
			c-0.505-9.955-9.016-18.464-18.971-18.97C34.247,10.275,34.239,10.275,34.232,10.275z"/>
	</g>
	<g>
		<path class="st0" d="M24.5,60h-17c-1.654,0-3-1.346-3-3V44c0-1.654,1.346-3,3-3h17c1.654,0,3,1.346,3,3v13
			C27.5,58.654,26.154,60,24.5,60z M7.5,42c-1.103,0-2,0.897-2,2v13c0,1.103,0.897,2,2,2h17c1.103,0,2-0.897,2-2V44
			c0-1.103-0.897-2-2-2H7.5z"/>
	</g>
	<g>
		<path class="st0" d="M16.907,53.982L16.907,53.982c-0.133,0-0.26-0.053-0.354-0.146l-3.889-3.889l-3.183,3.182
			c-0.195,0.195-0.512,0.195-0.707,0s-0.195-0.512,0-0.707l3.536-3.535c0.195-0.195,0.512-0.195,0.707,0l3.889,3.889l5.611-5.611
			c0.195-0.195,0.512-0.195,0.707,0s0.195,0.512,0,0.707l-5.965,5.965C17.167,53.93,17.04,53.982,16.907,53.982z"/>
	</g>
	<g>
		<path class="st0" d="M22.872,51.018c-0.276,0-0.5-0.224-0.5-0.5v-2.5h-2.5c-0.276,0-0.5-0.224-0.5-0.5s0.224-0.5,0.5-0.5h3
			c0.276,0,0.5,0.224,0.5,0.5v3C23.372,50.794,23.148,51.018,22.872,51.018z"/>
	</g>
	<g>
		<path class="st3" d="M11,4.625l-6,6h3.5v5c0,0.552,0.448,1,1,1h3c0.552,0,1-0.448,1-1v-5H17L11,4.625z"/>
		<path class="st0" d="M12.5,17.125h-3c-0.827,0-1.5-0.673-1.5-1.5v-4.5H5c-0.202,0-0.385-0.122-0.462-0.309
			s-0.034-0.402,0.108-0.545l6-6c0.195-0.195,0.512-0.195,0.707,0l6,6c0.143,0.143,0.186,0.358,0.108,0.545s-0.26,0.309-0.462,0.309
			h-3v4.5C14,16.452,13.327,17.125,12.5,17.125z M6.207,10.125H8.5c0.276,0,0.5,0.224,0.5,0.5v5c0,0.276,0.225,0.5,0.5,0.5h3
			c0.275,0,0.5-0.224,0.5-0.5v-5c0-0.276,0.224-0.5,0.5-0.5h2.293L11,5.332L6.207,10.125z"/>
	</g>
	<g>
		<circle class="st2" cx="48.25" cy="51.5" r="8"/>
		<path class="st0" d="M48.25,60c-4.687,0-8.5-3.813-8.5-8.5s3.813-8.5,8.5-8.5s8.5,3.813,8.5,8.5S52.937,60,48.25,60z M48.25,44
			c-4.136,0-7.5,3.364-7.5,7.5s3.364,7.5,7.5,7.5s7.5-3.364,7.5-7.5S52.386,44,48.25,44z"/>
	</g>
	<g>
		<path class="st0" d="M48.688,42.022c-0.074,0-0.148-0.016-0.22-0.051c-0.248-0.121-0.351-0.421-0.229-0.669
			c1.092-2.234,1.743-4.602,1.935-7.038c0.01-0.127-0.034-0.251-0.125-0.349c-0.097-0.105-0.234-0.165-0.377-0.165H33.25
			c-1.93,0-3.5-1.57-3.5-3.5V13.83c0-0.143-0.061-0.281-0.165-0.378c-0.098-0.09-0.226-0.137-0.351-0.125
			C19.149,14.104,11.25,22.635,11.25,32.75c0,2.215,0.392,4.429,1.164,6.581c0.093,0.26-0.042,0.546-0.302,0.64
			c-0.261,0.093-0.546-0.042-0.64-0.302c-0.812-2.261-1.223-4.588-1.223-6.919c0-10.634,8.306-19.604,18.908-20.42
			c0.406-0.034,0.802,0.106,1.106,0.389c0.309,0.286,0.485,0.691,0.485,1.111v16.42c0,1.378,1.121,2.5,2.5,2.5h16.421
			c0.421,0,0.826,0.177,1.111,0.486c0.282,0.305,0.419,0.697,0.387,1.106c-0.201,2.562-0.885,5.052-2.032,7.399
			C49.05,41.919,48.872,42.022,48.688,42.022z"/>
	</g>
	<g>
		<path class="st0" d="M30.75,53.25c-0.67,0-1.311-0.048-1.793-0.09c-0.275-0.024-0.479-0.266-0.455-0.542
			c0.023-0.275,0.271-0.484,0.541-0.455c0.463,0.04,1.075,0.086,1.707,0.086c2.521,0,4.985-0.481,7.323-1.432
			c0.254-0.105,0.548,0.02,0.651,0.275c0.104,0.255-0.019,0.547-0.274,0.651C35.992,52.744,33.401,53.25,30.75,53.25z"/>
	</g>
	<g>
		<path class="st0" d="M48.25,49.5c-0.276,0-0.5-0.224-0.5-0.5v-1.5c0-0.276,0.224-0.5,0.5-0.5s0.5,0.224,0.5,0.5V49
			C48.75,49.276,48.526,49.5,48.25,49.5z"/>
	</g>
	<g>
		<path class="st0" d="M48.25,56c-0.276,0-0.5-0.224-0.5-0.5V54c0-0.276,0.224-0.5,0.5-0.5s0.5,0.224,0.5,0.5v1.5
			C48.75,55.776,48.526,56,48.25,56z"/>
	</g>
	<g>
		<path class="st0" d="M49,54.5h-2.75c-0.276,0-0.5-0.224-0.5-0.5s0.224-0.5,0.5-0.5H49c0.413,0,0.75-0.336,0.75-0.75
			S49.413,52,49,52h-1.5c-0.965,0-1.75-0.785-1.75-1.75s0.785-1.75,1.75-1.75h2.25c0.276,0,0.5,0.224,0.5,0.5s-0.224,0.5-0.5,0.5
			H47.5c-0.413,0-0.75,0.336-0.75,0.75S47.087,51,47.5,51H49c0.965,0,1.75,0.785,1.75,1.75S49.965,54.5,49,54.5z"/>
	</g>
	<g>
		<path class="st0" d="M57,16L57,16c-0.276,0-0.5-0.224-0.5-0.5l0.001-4c0-0.276,0.224-0.5,0.5-0.5l0,0c0.276,0,0.5,0.224,0.5,0.5
			l-0.001,4C57.5,15.776,57.276,16,57,16z"/>
	</g>
	<g>
		<path class="st0" d="M59,14h-4c-0.276,0-0.5-0.224-0.5-0.5S54.724,13,55,13h4c0.276,0,0.5,0.224,0.5,0.5S59.276,14,59,14z"/>
	</g>
	<g>
		<path class="st0" d="M48.001,9c-0.276,0-0.5-0.224-0.5-0.5v-4c0-0.276,0.224-0.5,0.5-0.5s0.5,0.224,0.5,0.5v4
			C48.501,8.776,48.277,9,48.001,9z"/>
	</g>
	<g>
		<path class="st0" d="M50.001,7h-4c-0.276,0-0.5-0.224-0.5-0.5s0.224-0.5,0.5-0.5h4c0.276,0,0.5,0.224,0.5,0.5S50.277,7,50.001,7z"
			/>
	</g>
</g>
</svg>
