<?xml version="1.0" encoding="utf-8"?>
<!-- Generator: Adobe Illustrator 21.1.0, SVG Export Plug-In . SVG Version: 6.00 Build 0)  -->
<svg version="1.1" id="Icon_Set" xmlns="http://www.w3.org/2000/svg" xmlns:xlink="http://www.w3.org/1999/xlink" x="0px" y="0px"
	 viewBox="0 0 64 64" style="enable-background:new 0 0 64 64;" xml:space="preserve">
<style type="text/css">
	.st0{fill:#263238;}
	.st1{fill:#40C4FF;}
	.st2{fill:#FFD740;}
	.st3{fill:#FF5252;}
	.st4{fill:#4DB6AC;}
	.st5{fill:#FFFFFF;}
	.st6{fill:#4FC3F7;}
</style>
<g id="Know_Your_Client">
	<g>
		<path class="st0" d="M54.375,11.5h-1c-0.276,0-0.5-0.224-0.5-0.5s0.224-0.5,0.5-0.5h1c0.276,0,0.5,0.224,0.5,0.5
			S54.651,11.5,54.375,11.5z"/>
	</g>
	<g>
		<path class="st0" d="M51.375,11.5h-15c-0.276,0-0.5-0.224-0.5-0.5s0.224-0.5,0.5-0.5h15c0.276,0,0.5,0.224,0.5,0.5
			S51.651,11.5,51.375,11.5z"/>
	</g>
	<g>
		<path class="st0" d="M45.375,8.5h-1c-0.276,0-0.5-0.224-0.5-0.5s0.224-0.5,0.5-0.5h1c0.276,0,0.5,0.224,0.5,0.5
			S45.651,8.5,45.375,8.5z"/>
	</g>
	<g>
		<path class="st0" d="M62.375,8.5h-15c-0.276,0-0.5-0.224-0.5-0.5s0.224-0.5,0.5-0.5h15c0.276,0,0.5,0.224,0.5,0.5
			S62.651,8.5,62.375,8.5z"/>
	</g>
	<g>
		<path class="st0" d="M48.872,49.575c-0.128,0-0.256-0.049-0.354-0.146l-3.663-3.662c-0.104-0.104-0.157-0.248-0.145-0.395
			c0.012-0.147,0.088-0.281,0.208-0.366c0.571-0.407,1.055-0.811,1.478-1.233c0.425-0.426,0.829-0.909,1.233-1.479
			c0.085-0.12,0.219-0.196,0.366-0.208c0.152-0.01,0.292,0.041,0.396,0.145l3.663,3.663c0.195,0.195,0.195,0.512,0,0.707
			l-2.828,2.828C49.128,49.526,49,49.575,48.872,49.575z M45.972,45.47l2.9,2.898l2.121-2.121l-2.899-2.899
			c-0.322,0.417-0.649,0.79-0.99,1.132l0,0C46.764,44.819,46.391,45.146,45.972,45.47z M46.75,44.126h0.01H46.75z"/>
	</g>
	<g>
		<path class="st1" d="M46.751,27.155c-4.686-4.686-12.284-4.686-16.971,0s-4.686,12.284,0,16.971
			c4.686,4.686,12.284,4.686,16.971,0C51.437,39.439,51.437,31.841,46.751,27.155z M44.629,42.004
			c-3.515,3.515-9.213,3.515-12.728,0s-3.515-9.213,0-12.728c3.515-3.515,9.213-3.515,12.728,0
			C48.144,32.791,48.144,38.49,44.629,42.004z"/>
		<path class="st0" d="M38.265,48.135c-3.201,0-6.401-1.219-8.838-3.655c-4.874-4.874-4.874-12.804,0-17.678
			c2.361-2.361,5.5-3.661,8.839-3.661c3.339,0,6.478,1.3,8.838,3.661c4.874,4.874,4.874,12.804,0,17.678
			C44.667,46.916,41.466,48.135,38.265,48.135z M38.266,24.141c-3.072,0-5.96,1.196-8.132,3.368c-4.484,4.484-4.484,11.779,0,16.264
			c4.484,4.483,11.78,4.483,16.263,0c4.484-4.484,4.484-11.779,0-16.264l0,0C44.225,25.337,41.337,24.141,38.266,24.141z
			 M38.266,45.141c-2.538,0-4.923-0.988-6.718-2.783c-3.704-3.704-3.704-9.73,0-13.435c3.705-3.706,9.731-3.704,13.435,0
			c3.704,3.704,3.704,9.73,0,13.435l0,0C43.188,44.152,40.803,45.141,38.266,45.141z M38.266,27.145
			c-2.177,0-4.354,0.828-6.011,2.485c-3.314,3.314-3.314,8.706,0,12.021c1.605,1.605,3.74,2.49,6.011,2.49
			c2.27,0,4.405-0.885,6.01-2.49l0,0c3.314-3.314,3.314-8.706,0-12.021C42.619,27.973,40.442,27.145,38.266,27.145z"/>
	</g>
	<g>
		<path class="st0" d="M57.003,58c-0.4,0-0.777-0.156-1.061-0.439l-7.071-7.071c-0.585-0.585-0.585-1.536,0-2.121l2.121-2.121
			c0.585-0.586,1.537-0.586,2.122,0l7.071,7.071c0.585,0.585,0.585,1.536,0,2.121l-2.121,2.121C57.781,57.844,57.404,58,57.003,58z
			 M52.054,46.808c-0.128,0-0.256,0.049-0.354,0.146l-2.121,2.121c-0.195,0.195-0.195,0.512,0,0.707l7.071,7.071
			c0.196,0.196,0.513,0.194,0.708,0l2.121-2.121c0.195-0.195,0.195-0.512,0-0.707l-7.071-7.071
			C52.31,46.856,52.182,46.808,52.054,46.808z"/>
	</g>
	<g>
		<path class="st0" d="M38.265,38.141c-0.276,0-0.5-0.224-0.5-0.5v-1.5c0-0.276,0.224-0.5,0.5-0.5c1.378,0,2.5-1.121,2.5-2.5
			s-1.122-2.5-2.5-2.5s-2.5,1.121-2.5,2.5c0,0.276-0.224,0.5-0.5,0.5s-0.5-0.224-0.5-0.5c0-1.93,1.57-3.5,3.5-3.5s3.5,1.57,3.5,3.5
			c0,1.76-1.306,3.221-3,3.465v1.035C38.765,37.917,38.542,38.141,38.265,38.141z"/>
	</g>
	<g>
		<circle class="st0" cx="38.265" cy="40.39" r="0.75"/>
	</g>
	<g>
		<path class="st0" d="M17.625,33c-4.659,0-8.734-3.062-10.053-7.5c-1.63-0.028-2.947-1.363-2.947-3s1.317-2.972,2.947-3
			c1.319-4.438,5.394-7.5,10.053-7.5s8.734,3.062,10.053,7.5c1.63,0.028,2.947,1.363,2.947,3s-1.317,2.972-2.947,3
			C26.359,29.938,22.284,33,17.625,33z M7.884,24.477c0.234,0,0.488,0.145,0.544,0.368C9.5,29.058,13.282,32,17.625,32
			s8.125-2.942,9.196-7.155c0.062-0.246,0.292-0.408,0.549-0.373c0.131,0.019,0.192,0.028,0.255,0.028c1.103,0,2-0.897,2-2
			s-0.897-2-2-2c-0.063,0-0.124,0.01-0.185,0.019c-0.252,0.031-0.556-0.115-0.619-0.363C25.75,15.942,21.968,13,17.625,13
			S9.5,15.942,8.429,20.155c-0.062,0.245-0.3,0.406-0.549,0.373C7.749,20.51,7.688,20.5,7.625,20.5c-1.103,0-2,0.897-2,2
			s0.897,2,2,2c0.063,0,0.124-0.01,0.185-0.019C7.834,24.479,7.859,24.477,7.884,24.477z"/>
	</g>
	<g>
		<path class="st0" d="M7.625,58c-0.276,0-0.5-0.224-0.5-0.5v-11c0-0.276,0.224-0.5,0.5-0.5s0.5,0.224,0.5,0.5v11
			C8.125,57.776,7.901,58,7.625,58z"/>
	</g>
	<g>
		<path class="st0" d="M27.625,58c-0.276,0-0.5-0.224-0.5-0.5v-11c0-0.276,0.224-0.5,0.5-0.5s0.5,0.224,0.5,0.5v11
			C28.125,57.776,27.901,58,27.625,58z"/>
	</g>
	<g>
		<path class="st0" d="M1.625,58c-0.276,0-0.5-0.224-0.5-0.5V42.59c0-2.097,1.165-3.981,3.041-4.919l9.236-4.618
			c0.246-0.124,0.547-0.022,0.671,0.224c0.124,0.247,0.023,0.547-0.224,0.671l-9.236,4.618c-1.535,0.767-2.488,2.309-2.488,4.024
			V57.5C2.125,57.776,1.901,58,1.625,58z"/>
	</g>
	<g>
		<path class="st0" d="M24.091,35.233c-0.075,0-0.151-0.017-0.223-0.053l-2.467-1.233c-0.247-0.124-0.347-0.424-0.224-0.671
			c0.124-0.246,0.423-0.348,0.671-0.224l2.467,1.233c0.247,0.124,0.347,0.424,0.224,0.671
			C24.451,35.132,24.275,35.233,24.091,35.233z"/>
	</g>
	<g>
		<path class="st0" d="M33.625,58c-0.276,0-0.5-0.224-0.5-0.5v-8.665c0-0.276,0.224-0.5,0.5-0.5s0.5,0.224,0.5,0.5V57.5
			C34.125,57.776,33.901,58,33.625,58z"/>
	</g>
	<g>
		<path class="st0" d="M18.625,40h-2c-0.827,0-1.5-0.673-1.5-1.5v-1c0-0.827,0.673-1.5,1.5-1.5h2c0.827,0,1.5,0.673,1.5,1.5v1
			C20.125,39.327,19.452,40,18.625,40z M16.625,37c-0.276,0-0.5,0.225-0.5,0.5v1c0,0.275,0.224,0.5,0.5,0.5h2
			c0.276,0,0.5-0.225,0.5-0.5v-1c0-0.275-0.224-0.5-0.5-0.5H16.625z"/>
	</g>
	<g>
		<path class="st0" d="M17.625,28c-1.469,0-2.851-0.572-3.889-1.611c-0.195-0.195-0.195-0.512,0-0.707s0.512-0.195,0.707,0
			c0.85,0.851,1.98,1.318,3.182,1.318s2.332-0.468,3.182-1.318c0.195-0.195,0.512-0.195,0.707,0s0.195,0.512,0,0.707
			C20.476,27.428,19.094,28,17.625,28z"/>
	</g>
	<g>
		<path class="st0" d="M19.381,37.366c-0.147,0-0.288-0.065-0.383-0.179C18.939,37.117,18.813,37,18.625,37h-2
			c-0.188,0-0.314,0.117-0.374,0.188c-0.101,0.12-0.266,0.194-0.41,0.178c-0.157-0.009-0.301-0.091-0.389-0.222l-2.244-3.366
			c-0.055-0.082-0.084-0.179-0.084-0.277v-1.838c0-0.169,0.085-0.326,0.227-0.418c0.142-0.094,0.319-0.108,0.474-0.04
			c2.415,1.057,5.185,1.057,7.6,0c0.155-0.067,0.333-0.053,0.474,0.04c0.142,0.092,0.227,0.249,0.227,0.418V33.5
			c0,0.099-0.029,0.195-0.084,0.277l-2.244,3.366c-0.087,0.131-0.231,0.213-0.389,0.222C19.4,37.366,19.391,37.366,19.381,37.366z
			 M16.625,36h2c0.221,0,0.437,0.052,0.634,0.147l1.866-2.799v-0.951c-2.25,0.801-4.75,0.801-7,0v0.951l1.866,2.799
			C16.188,36.052,16.404,36,16.625,36z"/>
	</g>
	<g>
		<path class="st2" d="M8.125,22.5h-0.5v-5h3V20C10.625,21.381,9.506,22.5,8.125,22.5z"/>
		<path class="st0" d="M8.125,23h-0.5c-0.276,0-0.5-0.224-0.5-0.5v-5c0-0.276,0.224-0.5,0.5-0.5h3c0.276,0,0.5,0.224,0.5,0.5V20
			C11.125,21.654,9.779,23,8.125,23z M8.125,22h0.01H8.125z M8.125,18v4c1.103,0,2-0.897,2-2v-2H8.125z"/>
	</g>
	<g>
		<path class="st2" d="M24.625,17.5h-17l0-0.5c0-4.142,3.358-7.5,7.5-7.5h5.345c2.719,0,5.386-0.739,7.717-2.138L29.625,6.5v6
			C29.625,15.261,27.386,17.5,24.625,17.5z"/>
		<path class="st0" d="M24.625,18h-17c-0.276,0-0.5-0.224-0.5-0.5V17c0-4.411,3.589-8,8-8h5.345c2.627,0,5.207-0.715,7.46-2.066
			l1.438-0.862c0.155-0.094,0.347-0.095,0.504-0.007c0.157,0.089,0.253,0.256,0.253,0.436v6C30.125,15.532,27.658,18,24.625,18z
			 M8.125,17h16.5c2.481,0,4.5-2.019,4.5-4.5V7.383l-0.68,0.408C26.036,9.236,23.278,10,20.47,10h-5.345
			C11.265,10,8.125,13.141,8.125,17z"/>
	</g>
	<g>
		<path class="st2" d="M24.625,17.5V20c0,1.381,1.119,2.5,2.5,2.5h0.5v-6.023C26.787,17.11,25.756,17.5,24.625,17.5z"/>
		<path class="st0" d="M27.625,23h-0.5c-1.654,0-3-1.346-3-3v-2.5c0-0.276,0.224-0.5,0.5-0.5c0.968,0,1.901-0.318,2.699-0.921
			c0.151-0.115,0.355-0.133,0.524-0.049c0.17,0.084,0.277,0.258,0.277,0.447V22.5C28.125,22.776,27.901,23,27.625,23z
			 M25.125,17.977V20c0,1.103,0.897,2,2,2v-4.615C26.498,17.712,25.823,17.912,25.125,17.977z"/>
	</g>
	<g>
		<path class="st0" d="M12.347,39.419c-0.054,0-0.109-0.009-0.162-0.026c-0.155-0.054-0.274-0.18-0.319-0.337l-1.189-4.186
			c-0.066-0.231,0.042-0.477,0.257-0.584l2.467-1.233c0.227-0.113,0.5-0.04,0.64,0.17l2,3c0.148,0.222,0.096,0.521-0.119,0.68
			l-3.278,2.419C12.557,39.386,12.452,39.419,12.347,39.419z M11.752,34.995l0.878,3.093l2.314-1.707l-1.491-2.236L11.752,34.995z"
			/>
	</g>
	<g>
		<path class="st0" d="M22.902,39.424c-0.105,0-0.21-0.033-0.297-0.098l-3.277-2.424c-0.214-0.159-0.267-0.458-0.119-0.68l2-3
			c0.14-0.21,0.415-0.283,0.64-0.17l2.467,1.233c0.215,0.107,0.323,0.353,0.257,0.584l-1.19,4.19
			c-0.045,0.158-0.164,0.283-0.32,0.337C23.011,39.415,22.956,39.424,22.902,39.424z M20.305,36.381l2.313,1.711l0.879-3.097
			l-1.701-0.851L20.305,36.381z"/>
	</g>
	<g>
		<polygon class="st3" points="20.625,54.563 17.625,57.5 14.625,54.563 16.625,39.5 18.625,39.5 		"/>
		<path class="st0" d="M17.625,58c-0.126,0-0.252-0.048-0.35-0.143l-3-2.938c-0.113-0.11-0.167-0.268-0.146-0.423l2-15.062
			C16.162,39.186,16.375,39,16.625,39h2c0.25,0,0.463,0.186,0.496,0.435l2,15.062c0.021,0.155-0.033,0.312-0.146,0.423l-3,2.938
			C17.877,57.952,17.751,58,17.625,58z M15.154,54.38l2.471,2.42l2.471-2.42L18.187,40h-1.124L15.154,54.38z"/>
	</g>
	<g>
		<path class="st0" d="M52.375,22.5h-4c-0.276,0-0.5-0.224-0.5-0.5s0.224-0.5,0.5-0.5h4c0.276,0,0.5,0.224,0.5,0.5
			S52.651,22.5,52.375,22.5z"/>
	</g>
	<g>
		<path class="st0" d="M50.375,24.5c-0.276,0-0.5-0.224-0.5-0.5v-4c0-0.276,0.224-0.5,0.5-0.5s0.5,0.224,0.5,0.5v4
			C50.875,24.276,50.651,24.5,50.375,24.5z"/>
	</g>
	<g>
		<path class="st0" d="M57.875,27.5h-4c-0.276,0-0.5-0.224-0.5-0.5s0.224-0.5,0.5-0.5h4c0.276,0,0.5,0.224,0.5,0.5
			S58.151,27.5,57.875,27.5z"/>
	</g>
	<g>
		<path class="st0" d="M55.875,29.5c-0.276,0-0.5-0.224-0.5-0.5v-4c0-0.276,0.224-0.5,0.5-0.5s0.5,0.224,0.5,0.5v4
			C56.375,29.276,56.151,29.5,55.875,29.5z"/>
	</g>
</g>
</svg>
