<?xml version="1.0" encoding="utf-8"?>
<!-- Generator: Adobe Illustrator 21.1.0, SVG Export Plug-In . SVG Version: 6.00 Build 0)  -->
<svg version="1.1" id="Icon_Set" xmlns="http://www.w3.org/2000/svg" xmlns:xlink="http://www.w3.org/1999/xlink" x="0px" y="0px"
	 viewBox="0 0 64 64" style="enable-background:new 0 0 64 64;" xml:space="preserve">
<style type="text/css">
	.st0{fill:#263238;}
	.st1{fill:#40C4FF;}
	.st2{fill:#FFD740;}
	.st3{fill:#FF5252;}
	.st4{fill:#4DB6AC;}
	.st5{fill:#FFFFFF;}
	.st6{fill:#4FC3F7;}
</style>
<g id="Leasing">
	<g>
		<path class="st0" d="M27,34.159H12c-0.167,0-0.323-0.083-0.416-0.223l-2-3C9.529,30.854,9.5,30.758,9.5,30.659v-3
			c0-0.276,0.224-0.5,0.5-0.5h17c0.276,0,0.5,0.224,0.5,0.5s-0.224,0.5-0.5,0.5H10.5v2.349l1.768,2.651H27
			c0.276,0,0.5,0.224,0.5,0.5S27.276,34.159,27,34.159z"/>
	</g>
	<g>
		<path class="st0" d="M22.5,31.159H10c-0.276,0-0.5-0.224-0.5-0.5s0.224-0.5,0.5-0.5h12.5c0.276,0,0.5,0.224,0.5,0.5
			S22.776,31.159,22.5,31.159z"/>
	</g>
	<g>
		<path class="st2" d="M36.5,30.75c0-2.532,1.899-4.609,4.344-4.934c-0.347-0.964-1.26-1.657-2.344-1.657h-5.712
			c-0.513,0-1.013,0.158-1.434,0.452L27,27.659v6l4.354,3.048c0.42,0.294,0.921,0.452,1.434,0.452H38.5
			c1.017,0,1.889-0.61,2.279-1.482C38.366,35.324,36.5,33.26,36.5,30.75z"/>
	</g>
	<g>
		<path class="st0" d="M47.798,34.25H41.5c-1.047,0-2.031-0.464-2.699-1.272c-0.667-0.808-0.935-1.871-0.734-2.917
			c0.312-1.629,1.804-2.812,3.545-2.812h2.87c1.13,0,2.213-0.479,2.974-1.316c0.771-0.848,1.136-1.948,1.026-3.098
			c-0.128-1.347-0.913-2.482-2.154-3.114c-1.313-0.668-2.85-0.625-4.105,0.119l-4.645,2.748c-0.239,0.14-0.544,0.062-0.686-0.176
			c-0.141-0.237-0.062-0.544,0.176-0.685l4.645-2.748c1.553-0.917,3.446-0.975,5.069-0.149c1.529,0.778,2.537,2.24,2.696,3.911
			c0.136,1.434-0.319,2.807-1.282,3.866c-0.95,1.044-2.304,1.643-3.714,1.643h-2.87c-1.263,0-2.34,0.841-2.562,2
			c-0.146,0.763,0.039,1.505,0.523,2.091c0.478,0.578,1.18,0.909,1.928,0.909h6.298c1.345,0,2.653-0.385,3.785-1.112l2.676-1.72
			c1.697-1.091,3.661-1.668,5.679-1.668H62.5c0.275,0,0.5-0.224,0.5-0.5v-11.5c0-0.276-0.225-0.5-0.5-0.5h-0.527
			c-1.377,0-2.737-0.358-3.936-1.036l-3.433-1.94c-3.76-2.125-8.396-2.062-12.096,0.167l-13.833,8.331
			c-0.916,0.551-1.235,1.72-0.729,2.661l0.075,0.14c0.131,0.243,0.04,0.546-0.203,0.677c-0.243,0.13-0.547,0.04-0.678-0.204
			l-0.075-0.14c-0.761-1.411-0.28-3.165,1.094-3.992l13.833-8.331c4.011-2.415,9.03-2.483,13.104-0.181l3.433,1.94
			c1.048,0.592,2.238,0.906,3.443,0.906H62.5c0.827,0,1.5,0.673,1.5,1.5v11.5c0,0.827-0.673,1.5-1.5,1.5h-2.562
			c-1.825,0-3.603,0.522-5.138,1.509l-2.676,1.72C50.831,33.811,49.335,34.25,47.798,34.25z"/>
	</g>
	<g>
		<path class="st0" d="M38.5,37.659h-5.712c-0.619,0-1.214-0.188-1.721-0.543l-4.354-3.047c-0.133-0.094-0.213-0.247-0.213-0.41v-6
			c0-0.163,0.08-0.316,0.213-0.41l4.354-3.048c0.507-0.354,1.102-0.542,1.721-0.542H38.5c1.256,0,2.387,0.799,2.814,1.988
			c0.093,0.26-0.042,0.546-0.302,0.64c-0.257,0.093-0.546-0.041-0.64-0.302c-0.285-0.793-1.038-1.326-1.873-1.326h-5.712
			c-0.413,0-0.81,0.125-1.146,0.361L27.5,27.919v5.479l4.142,2.898c0.337,0.237,0.733,0.362,1.146,0.362H38.5
			c0.784,0,1.5-0.466,1.823-1.187c0.113-0.252,0.408-0.364,0.66-0.252c0.252,0.113,0.365,0.409,0.252,0.661
			C40.752,36.961,39.678,37.659,38.5,37.659z"/>
	</g>
	<g>
		<path class="st0" d="M29.5,4.5h-4C25.224,4.5,25,4.276,25,4s0.224-0.5,0.5-0.5h4C29.776,3.5,30,3.724,30,4S29.776,4.5,29.5,4.5z"
			/>
	</g>
	<g>
		<path class="st0" d="M27.5,6.5C27.224,6.5,27,6.276,27,6V2c0-0.276,0.224-0.5,0.5-0.5S28,1.724,28,2v4
			C28,6.276,27.776,6.5,27.5,6.5z"/>
	</g>
	<g>
		<path class="st0" d="M21.5,10h-4C17.224,10,17,9.776,17,9.5S17.224,9,17.5,9h4C21.776,9,22,9.224,22,9.5S21.776,10,21.5,10z"/>
	</g>
	<g>
		<path class="st0" d="M19.5,12c-0.276,0-0.5-0.224-0.5-0.5v-4C19,7.224,19.224,7,19.5,7S20,7.224,20,7.5v4
			C20,11.776,19.776,12,19.5,12z"/>
	</g>
	<g>
		<path class="st0" d="M26,50.5c-0.06,0-0.119-0.01-0.178-0.033l-7.921-3.017c-1.655-0.63-3.393-0.95-5.162-0.95H10
			c-0.276,0-0.5-0.224-0.5-0.5s0.224-0.5,0.5-0.5h2.739c1.892,0,3.748,0.342,5.518,1.016l7.921,3.017
			c0.258,0.098,0.388,0.387,0.289,0.646C26.392,50.377,26.201,50.5,26,50.5z"/>
	</g>
	<g>
		<path class="st0" d="M46,62.5H31.49c-2.373,0-4.71-0.408-6.943-1.212l-7.574-2.727C15.938,58.189,14.855,58,13.755,58H10
			c-0.276,0-0.5-0.224-0.5-0.5S9.724,57,10,57h3.755c1.217,0,2.413,0.208,3.556,0.621l7.574,2.727
			c2.126,0.765,4.348,1.153,6.605,1.153H46c1.103,0,2-0.897,2-2s-0.897-2-2-2H34.5c-0.276,0-0.5-0.224-0.5-0.5s0.224-0.5,0.5-0.5H46
			c1.654,0,3,1.346,3,3S47.654,62.5,46,62.5z"/>
	</g>
	<g>
		<path class="st1" d="M0.5,44.5V59c0,0.552,0.448,1,1,1H7c0.552,0,1-0.448,1-1V44.5c0-0.552-0.448-1-1-1H1.5
			C0.948,43.5,0.5,43.948,0.5,44.5z"/>
		<path class="st0" d="M7,60.5H1.5C0.673,60.5,0,59.827,0,59V44.5C0,43.673,0.673,43,1.5,43H7c0.827,0,1.5,0.673,1.5,1.5V59
			C8.5,59.827,7.827,60.5,7,60.5z M1.5,44C1.225,44,1,44.224,1,44.5V59c0,0.276,0.225,0.5,0.5,0.5H7c0.275,0,0.5-0.224,0.5-0.5V44.5
			C7.5,44.224,7.275,44,7,44H1.5z"/>
	</g>
	<g>
		<path class="st0" d="M33,55.5h-6.5c-0.276,0-0.5-0.224-0.5-0.5s0.224-0.5,0.5-0.5H33c1.103,0,2-0.897,2-2s-0.897-2-2-2h-7
			c-0.276,0-0.5-0.224-0.5-0.5s0.224-0.5,0.5-0.5h7c1.654,0,3,1.346,3,3S34.654,55.5,33,55.5z"/>
	</g>
	<g>
		<path class="st0" d="M12.5,20.75h-1c-0.276,0-0.5-0.224-0.5-0.5s0.224-0.5,0.5-0.5h1c0.276,0,0.5,0.224,0.5,0.5
			S12.776,20.75,12.5,20.75z"/>
	</g>
	<g>
		<path class="st0" d="M25.5,20.75h-11c-0.276,0-0.5-0.224-0.5-0.5s0.224-0.5,0.5-0.5h11c0.276,0,0.5,0.224,0.5,0.5
			S25.776,20.75,25.5,20.75z"/>
	</g>
	<g>
		<path class="st0" d="M43.5,45h-1c-0.276,0-0.5-0.224-0.5-0.5s0.224-0.5,0.5-0.5h1c0.276,0,0.5,0.224,0.5,0.5S43.776,45,43.5,45z"
			/>
	</g>
	<g>
		<path class="st0" d="M40.5,45h-11c-0.276,0-0.5-0.224-0.5-0.5s0.224-0.5,0.5-0.5h11c0.276,0,0.5,0.224,0.5,0.5S40.776,45,40.5,45z
			"/>
	</g>
	<g>
		<path class="st0" d="M35,34.159h-3c-0.276,0-0.5-0.224-0.5-0.5v-6c0-0.276,0.224-0.5,0.5-0.5h3c0.276,0,0.5,0.224,0.5,0.5v6
			C35.5,33.936,35.276,34.159,35,34.159z M32.5,33.159h2v-5h-2V33.159z"/>
	</g>
</g>
</svg>
