<?xml version="1.0" encoding="utf-8"?>
<!-- Generator: Adobe Illustrator 21.1.0, SVG Export Plug-In . SVG Version: 6.00 Build 0)  -->
<svg version="1.1" id="Icon_Set" xmlns="http://www.w3.org/2000/svg" xmlns:xlink="http://www.w3.org/1999/xlink" x="0px" y="0px"
	 viewBox="0 0 64 64" style="enable-background:new 0 0 64 64;" xml:space="preserve">
<style type="text/css">
	.st0{fill:#263238;}
	.st1{fill:#40C4FF;}
	.st2{fill:#FFD740;}
	.st3{fill:#FF5252;}
	.st4{fill:#4DB6AC;}
	.st5{fill:#FFFFFF;}
	.st6{fill:#4FC3F7;}
</style>
<g id="Management">
	<g>
		<path class="st1" d="M34.25,48.25c0-7.732,6.268-14,14-14c2.699,0,5.211,0.777,7.349,2.1C55.858,34.939,56,33.486,56,32
			C56,18.745,45.255,8,32,8S8,18.745,8,32s10.745,24,24,24c1.486,0,2.939-0.142,4.35-0.401C35.027,53.461,34.25,50.949,34.25,48.25z
			"/>
	</g>
	<g>
		<path class="st0" d="M32,56.5C18.491,56.5,7.5,45.509,7.5,32S18.491,7.5,32,7.5S56.5,18.491,56.5,32
			c0,1.465-0.138,2.959-0.409,4.44c-0.049,0.271-0.311,0.456-0.582,0.402c-0.272-0.05-0.452-0.31-0.402-0.582
			C55.368,34.838,55.5,33.405,55.5,32C55.5,19.042,44.958,8.5,32,8.5S8.5,19.042,8.5,32S19.042,55.5,32,55.5
			c1.406,0,2.839-0.132,4.26-0.393c0.277-0.051,0.533,0.13,0.582,0.401c0.05,0.272-0.13,0.532-0.401,0.582
			C34.96,56.362,33.466,56.5,32,56.5z"/>
	</g>
	<g>
		<path class="st5" d="M34.25,48.25c0-7.732,6.268-14,14-14c1.227,0,2.41,0.174,3.544,0.47C51.916,33.828,52,32.925,52,32
			c0-11.046-8.954-20-20-20s-20,8.954-20,20c0,11.046,8.954,20,20,20c0.925,0,1.828-0.085,2.72-0.206
			C34.424,50.66,34.25,49.477,34.25,48.25z"/>
	</g>
	<g>
		<path class="st0" d="M32,52.5c-11.304,0-20.5-9.196-20.5-20.5S20.696,11.5,32,11.5S52.5,20.696,52.5,32
			c0,0.848-0.067,1.734-0.21,2.788c-0.038,0.274-0.291,0.462-0.563,0.428c-0.274-0.038-0.465-0.29-0.428-0.563
			C51.436,33.645,51.5,32.802,51.5,32c0-10.752-8.748-19.5-19.5-19.5S12.5,21.248,12.5,32S21.248,51.5,32,51.5
			c0.802,0,1.645-0.064,2.653-0.202c0.274-0.036,0.525,0.154,0.563,0.428c0.037,0.273-0.154,0.525-0.428,0.563
			C33.734,52.433,32.848,52.5,32,52.5z"/>
	</g>
	<g>
		<path class="st0" d="M15.75,6.75h-4c-0.276,0-0.5-0.224-0.5-0.5s0.224-0.5,0.5-0.5h4c0.276,0,0.5,0.224,0.5,0.5
			S16.027,6.75,15.75,6.75z"/>
	</g>
	<g>
		<path class="st0" d="M13.75,8.75c-0.276,0-0.5-0.224-0.5-0.5v-4c0-0.276,0.224-0.5,0.5-0.5s0.5,0.224,0.5,0.5v4
			C14.25,8.526,14.027,8.75,13.75,8.75z"/>
	</g>
	<g>
		<path class="st0" d="M7.75,14.75h-4c-0.276,0-0.5-0.224-0.5-0.5s0.224-0.5,0.5-0.5h4c0.276,0,0.5,0.224,0.5,0.5
			S8.026,14.75,7.75,14.75z"/>
	</g>
	<g>
		<path class="st0" d="M5.75,16.75L5.75,16.75c-0.276,0-0.5-0.224-0.5-0.5l0-4c0-0.276,0.224-0.5,0.5-0.5l0,0
			c0.276,0,0.5,0.224,0.5,0.5l0,4C6.25,16.526,6.026,16.75,5.75,16.75z"/>
	</g>
	<g>
		<g>
			<path class="st3" d="M41.5,33.5H32c-0.829,0-1.5-0.671-1.5-1.5V20c0-0.829,0.671-1.5,1.5-1.5s1.5,0.671,1.5,1.5v10.5h8
				c0.829,0,1.5,0.671,1.5,1.5S42.329,33.5,41.5,33.5z"/>
			<path class="st0" d="M41.5,34H32c-1.103,0-2-0.897-2-2V20c0-1.103,0.897-2,2-2s2,0.897,2,2v10h7.5c1.103,0,2,0.897,2,2
				S42.603,34,41.5,34z M32,19c-0.551,0-1,0.449-1,1v12c0,0.551,0.449,1,1,1h9.5c0.551,0,1-0.449,1-1s-0.449-1-1-1h-8
				c-0.276,0-0.5-0.224-0.5-0.5V20C33,19.449,32.551,19,32,19z"/>
		</g>
	</g>
	<g>
		<path class="st0" d="M28.375,59.25h-2c-0.276,0-0.5-0.224-0.5-0.5s0.224-0.5,0.5-0.5h2c0.276,0,0.5,0.224,0.5,0.5
			S28.652,59.25,28.375,59.25z"/>
	</g>
	<g>
		<path class="st0" d="M24.375,59.25h-20c-0.276,0-0.5-0.224-0.5-0.5s0.224-0.5,0.5-0.5h20c0.276,0,0.5,0.224,0.5,0.5
			S24.652,59.25,24.375,59.25z"/>
	</g>
	<g>
		<path class="st0" d="M36.375,4.25h-2c-0.276,0-0.5-0.224-0.5-0.5s0.224-0.5,0.5-0.5h2c0.276,0,0.5,0.224,0.5,0.5
			S36.652,4.25,36.375,4.25z"/>
	</g>
	<g>
		<path class="st0" d="M58.375,4.25h-20c-0.276,0-0.5-0.224-0.5-0.5s0.224-0.5,0.5-0.5h20c0.276,0,0.5,0.224,0.5,0.5
			S58.652,4.25,58.375,4.25z"/>
	</g>
	<g>
		<circle class="st2" cx="48.25" cy="48.25" r="12"/>
		<path class="st0" d="M48.25,60.75c-6.893,0-12.5-5.607-12.5-12.5s5.607-12.5,12.5-12.5s12.5,5.607,12.5,12.5
			S55.143,60.75,48.25,60.75z M48.25,36.75c-6.341,0-11.5,5.159-11.5,11.5s5.159,11.5,11.5,11.5s11.5-5.159,11.5-11.5
			S54.591,36.75,48.25,36.75z"/>
	</g>
	<g>
		<path class="st0" d="M48.25,57.75c-5.238,0-9.5-4.262-9.5-9.5s4.262-9.5,9.5-9.5s9.5,4.262,9.5,9.5S53.488,57.75,48.25,57.75z
			 M48.25,39.75c-4.687,0-8.5,3.813-8.5,8.5s3.813,8.5,8.5,8.5s8.5-3.813,8.5-8.5S52.937,39.75,48.25,39.75z"/>
	</g>
	<g>
		<path class="st0" d="M48.963,52.25h-3.25c-0.276,0-0.5-0.224-0.5-0.5s0.224-0.5,0.5-0.5h3.25c0.689,0,1.25-0.561,1.25-1.25
			s-0.561-1.25-1.25-1.25h-1.5c-1.241,0-2.25-1.009-2.25-2.25s1.009-2.25,2.25-2.25h2.75c0.276,0,0.5,0.224,0.5,0.5
			s-0.224,0.5-0.5,0.5h-2.75c-0.689,0-1.25,0.561-1.25,1.25s0.561,1.25,1.25,1.25h1.5c1.241,0,2.25,1.009,2.25,2.25
			S50.204,52.25,48.963,52.25z"/>
	</g>
	<g>
		<path class="st0" d="M48.213,45.25c-0.276,0-0.5-0.224-0.5-0.5v-1.5c0-0.276,0.224-0.5,0.5-0.5s0.5,0.224,0.5,0.5v1.5
			C48.713,45.026,48.489,45.25,48.213,45.25z"/>
	</g>
	<g>
		<path class="st0" d="M48.213,53.75c-0.276,0-0.5-0.224-0.5-0.5v-1.5c0-0.276,0.224-0.5,0.5-0.5s0.5,0.224,0.5,0.5v1.5
			C48.713,53.526,48.489,53.75,48.213,53.75z"/>
	</g>
	<g>
		<circle class="st1" cx="32" cy="32" r="4"/>
		<path class="st0" d="M32,36.5c-2.481,0-4.5-2.019-4.5-4.5s2.019-4.5,4.5-4.5s4.5,2.019,4.5,4.5S34.481,36.5,32,36.5z M32,28.5
			c-1.93,0-3.5,1.57-3.5,3.5s1.57,3.5,3.5,3.5s3.5-1.57,3.5-3.5S33.93,28.5,32,28.5z"/>
	</g>
</g>
</svg>
