<?xml version="1.0" encoding="utf-8"?>
<!-- Generator: Adobe Illustrator 21.1.0, SVG Export Plug-In . SVG Version: 6.00 Build 0)  -->
<svg version="1.1" id="Icon_Set" xmlns="http://www.w3.org/2000/svg" xmlns:xlink="http://www.w3.org/1999/xlink" x="0px" y="0px"
	 viewBox="0 0 64 64" style="enable-background:new 0 0 64 64;" xml:space="preserve">
<style type="text/css">
	.st0{fill:#263238;}
	.st1{fill:#40C4FF;}
	.st2{fill:#FFD740;}
	.st3{fill:#FF5252;}
	.st4{fill:#4DB6AC;}
	.st5{fill:#FFFFFF;}
	.st6{fill:#4FC3F7;}
</style>
<g id="Mobile_Banking">
	<g>
		<circle class="st1" cx="48.5" cy="29.5" r="15"/>
	</g>
	<g>
		<circle class="st2" cx="25.5" cy="29.5" r="8"/>
		<path class="st0" d="M25.5,38c-4.687,0-8.5-3.813-8.5-8.5s3.813-8.5,8.5-8.5s8.5,3.813,8.5,8.5S30.187,38,25.5,38z M25.5,22
			c-4.136,0-7.5,3.364-7.5,7.5s3.364,7.5,7.5,7.5s7.5-3.364,7.5-7.5S29.636,22,25.5,22z"/>
	</g>
	<g>
		<path class="st0" d="M25.5,27.5c-0.276,0-0.5-0.224-0.5-0.5v-1.5c0-0.276,0.224-0.5,0.5-0.5s0.5,0.224,0.5,0.5V27
			C26,27.277,25.776,27.5,25.5,27.5z"/>
	</g>
	<g>
		<path class="st0" d="M25.5,34c-0.276,0-0.5-0.224-0.5-0.5V32c0-0.276,0.224-0.5,0.5-0.5S26,31.724,26,32v1.5
			C26,33.777,25.776,34,25.5,34z"/>
	</g>
	<g>
		<path class="st0" d="M26.25,32.5H23.5c-0.276,0-0.5-0.224-0.5-0.5s0.224-0.5,0.5-0.5h2.75c0.413,0,0.75-0.336,0.75-0.75
			S26.663,30,26.25,30h-1.5C23.785,30,23,29.215,23,28.25s0.785-1.75,1.75-1.75H27c0.276,0,0.5,0.224,0.5,0.5s-0.224,0.5-0.5,0.5
			h-2.25c-0.413,0-0.75,0.336-0.75,0.75S24.337,29,24.75,29h1.5c0.965,0,1.75,0.785,1.75,1.75S27.215,32.5,26.25,32.5z"/>
	</g>
	<g>
		<path class="st0" d="M14.215,61.5H2.786C1.25,61.5,0,60.193,0,58.586v-9.172C0,47.808,1.25,46.5,2.786,46.5h11.429
			c1.536,0,2.785,1.307,2.785,2.914v9.172C17,60.193,15.751,61.5,14.215,61.5z M2.786,47.5C1.801,47.5,1,48.359,1,49.414v9.172
			C1,59.642,1.801,60.5,2.786,60.5h11.429c0.984,0,1.785-0.858,1.785-1.914v-9.172c0-1.055-0.801-1.914-1.785-1.914H2.786z"/>
	</g>
	<g>
		<path class="st0" d="M15,47.5h-3c-0.276,0-0.5-0.224-0.5-0.5v-3c0-1.654-1.346-3-3-3s-3,1.346-3,3v3c0,0.276-0.224,0.5-0.5,0.5H2
			c-0.276,0-0.5-0.224-0.5-0.5v-3c0-3.86,3.141-7,7-7s7,3.14,7,7v3C15.5,47.277,15.276,47.5,15,47.5z M12.5,46.5h2V44
			c0-3.309-2.691-6-6-6s-6,2.691-6,6v2.5h2V44c0-2.206,1.794-4,4-4s4,1.794,4,4V46.5z"/>
	</g>
	<g>
		<path class="st0" d="M37.5,56.5H17.795c-0.276,0-0.5-0.224-0.5-0.5s0.224-0.5,0.5-0.5H37.5c2.481,0,4.5-2.019,4.5-4.5V8
			c0-2.481-2.019-4.5-4.5-4.5h-24C11.019,3.5,9,5.519,9,8v27.5C9,35.777,8.776,36,8.5,36S8,35.777,8,35.5V8
			c0-3.033,2.468-5.5,5.5-5.5h24C40.532,2.5,43,4.968,43,8v43C43,54.033,40.532,56.5,37.5,56.5z"/>
	</g>
	<g>
		<path class="st0" d="M37,53.5H18.5c-0.276,0-0.5-0.224-0.5-0.5s0.224-0.5,0.5-0.5H37c1.103,0,2-0.897,2-2v-42c0-1.103-0.897-2-2-2
			h-3.793l-2.354,2.354C30.76,8.948,30.633,9,30.5,9h-10c-0.133,0-0.26-0.053-0.354-0.146L17.793,6.5H14c-1.103,0-2,0.897-2,2
			v27.557c0,0.276-0.224,0.5-0.5,0.5s-0.5-0.224-0.5-0.5V8.5c0-1.654,1.346-3,3-3h4c0.133,0,0.26,0.053,0.354,0.146L20.707,8h9.586
			l2.354-2.354C32.74,5.553,32.867,5.5,33,5.5h4c1.654,0,3,1.346,3,3v42C40,52.155,38.654,53.5,37,53.5z"/>
	</g>
	<g>
		<path class="st0" d="M51.278,37.778c-0.128,0-0.256-0.049-0.354-0.146c-0.195-0.195-0.195-0.512,0-0.707
			c4.094-4.094,4.094-10.755,0-14.849c-0.195-0.195-0.195-0.512,0-0.707s0.512-0.195,0.707,0c4.483,4.484,4.483,11.779,0,16.263
			C51.534,37.729,51.406,37.778,51.278,37.778z"/>
	</g>
	<g>
		<path class="st0" d="M48.45,34.95c-0.128,0-0.256-0.049-0.354-0.146c-0.195-0.195-0.195-0.512,0-0.707
			c2.534-2.535,2.534-6.658,0-9.193c-0.195-0.195-0.195-0.512,0-0.707s0.512-0.195,0.707,0c2.924,2.924,2.924,7.683,0,10.607
			C48.706,34.901,48.578,34.95,48.45,34.95z"/>
	</g>
	<g>
		<path class="st0" d="M45.621,32.122c-0.128,0-0.256-0.049-0.354-0.146c-0.195-0.195-0.195-0.512,0-0.707
			C45.74,30.796,46,30.168,46,29.5c0-0.667-0.26-1.295-0.732-1.768c-0.195-0.195-0.195-0.512,0-0.707s0.512-0.195,0.707,0
			C46.636,27.686,47,28.565,47,29.5c0,0.935-0.364,1.814-1.025,2.475C45.877,32.073,45.749,32.122,45.621,32.122z"/>
	</g>
	<g>
		<path class="st0" d="M40.188,61.5h-1c-0.276,0-0.5-0.224-0.5-0.5s0.224-0.5,0.5-0.5h1c0.276,0,0.5,0.224,0.5,0.5
			S40.464,61.5,40.188,61.5z"/>
	</g>
	<g>
		<path class="st0" d="M37.188,61.5h-16c-0.276,0-0.5-0.224-0.5-0.5s0.224-0.5,0.5-0.5h16c0.276,0,0.5,0.224,0.5,0.5
			S37.464,61.5,37.188,61.5z"/>
	</g>
</g>
</svg>
