<?xml version="1.0" encoding="utf-8"?>
<!-- Generator: Adobe Illustrator 21.1.0, SVG Export Plug-In . SVG Version: 6.00 Build 0)  -->
<svg version="1.1" id="Icon_Set" xmlns="http://www.w3.org/2000/svg" xmlns:xlink="http://www.w3.org/1999/xlink" x="0px" y="0px"
	 viewBox="0 0 64 64" style="enable-background:new 0 0 64 64;" xml:space="preserve">
<style type="text/css">
	.st0{fill:#263238;}
	.st1{fill:#40C4FF;}
	.st2{fill:#FFD740;}
	.st3{fill:#FF5252;}
	.st4{fill:#4DB6AC;}
	.st5{fill:#FFFFFF;}
	.st6{fill:#4FC3F7;}
</style>
<g id="P2P_Lending">
	<g>
		<path class="st0" d="M15,19.499h-5c-0.276,0-0.5-0.224-0.5-0.5s0.224-0.5,0.5-0.5h5c0.276,0,0.5,0.224,0.5,0.5
			S15.276,19.499,15,19.499z"/>
	</g>
	<g>
		<path class="st0" d="M8,19.499H7c-0.276,0-0.5-0.224-0.5-0.5s0.224-0.5,0.5-0.5h1c0.276,0,0.5,0.224,0.5,0.5
			S8.276,19.499,8,19.499z"/>
	</g>
	<g>
		<path class="st0" d="M54,19.499h-5c-0.276,0-0.5-0.224-0.5-0.5s0.224-0.5,0.5-0.5h5c0.276,0,0.5,0.224,0.5,0.5
			S54.276,19.499,54,19.499z"/>
	</g>
	<g>
		<path class="st0" d="M57,19.499h-1c-0.276,0-0.5-0.224-0.5-0.5s0.224-0.5,0.5-0.5h1c0.276,0,0.5,0.224,0.5,0.5
			S57.276,19.499,57,19.499z"/>
	</g>
	<g>
		<path class="st0" d="M10.508,46.749c-3.584,0-6.5-2.916-6.5-6.5s2.916-6.5,6.5-6.5s6.5,2.916,6.5,6.5S14.092,46.749,10.508,46.749
			z M10.508,34.749c-3.032,0-5.5,2.468-5.5,5.5s2.468,5.5,5.5,5.5s5.5-2.468,5.5-5.5S13.54,34.749,10.508,34.749z"/>
	</g>
	<g>
		<path class="st0" d="M5.074,40.749H4.508c-0.276,0-0.5-0.224-0.5-0.5c0-3.584,2.916-6.5,6.5-6.5c1.93,0,3.749,0.853,4.991,2.339
			c0.085,0.102,0.126,0.233,0.114,0.365c-0.012,0.133-0.076,0.255-0.179,0.34l-0.447,0.372l0,0
			C12.209,39.476,8.688,40.749,5.074,40.749z M5.03,39.749h0.044c3.381,0,6.675-1.19,9.274-3.354l0.044-0.037
			c-1.029-1.028-2.419-1.609-3.885-1.609C7.644,34.749,5.283,36.949,5.03,39.749z M14.668,36.78h0.01H14.668z"/>
	</g>
	<g>
		<path class="st0" d="M7.496,47.755c-0.276,0-0.5-0.224-0.5-0.5l-0.001-1.82c0-0.179,0.096-0.344,0.25-0.434
			c0.158-0.088,0.349-0.088,0.501,0.001c1.676,0.976,3.824,0.977,5.499,0.011c0.154-0.088,0.346-0.089,0.5,0.001
			c0.154,0.089,0.25,0.254,0.25,0.433l0.001,1.798c0,0.275-0.224,0.5-0.5,0.5l0,0c-0.276,0-0.5-0.224-0.5-0.5l-0.001-0.994
			c-1.582,0.659-3.416,0.656-5-0.009l0.001,1.014C7.996,47.53,7.772,47.755,7.496,47.755L7.496,47.755z"/>
	</g>
	<g>
		<path class="st1" d="M0.5,55.749v-1.909c0-1.895,1.071-3.626,2.766-4.473l4.231-2.113l3.004,4.463l2.996-4.472l4.245,2.122
			c1.694,0.847,2.764,2.578,2.764,4.472v1.91"/>
		<path class="st0" d="M20.505,56.249c-0.276,0-0.5-0.224-0.5-0.5V53.84c0-1.715-0.953-3.258-2.487-4.025l-3.852-1.925l-2.751,4.105
			c-0.093,0.139-0.248,0.222-0.414,0.222c-0.001,0-0.001,0-0.001,0c-0.166,0-0.322-0.083-0.415-0.221l-2.759-4.098l-3.837,1.917
			C1.954,50.583,1,52.125,1,53.841v1.908c0,0.276-0.224,0.5-0.5,0.5S0,56.025,0,55.749v-1.908c0-2.097,1.166-3.982,3.042-4.92
			l4.23-2.113c0.224-0.113,0.498-0.042,0.639,0.168l2.588,3.845l2.582-3.854c0.141-0.209,0.415-0.282,0.639-0.169l4.245,2.122
			c1.875,0.938,3.04,2.824,3.04,4.92v1.909C21.005,56.025,20.781,56.249,20.505,56.249z"/>
	</g>
	<g>
		<path class="st0" d="M10.5,55.217c-0.276,0-0.5-0.224-0.5-0.5v-3c0-0.276,0.224-0.5,0.5-0.5s0.5,0.224,0.5,0.5v3
			C11,54.993,10.776,55.217,10.5,55.217z"/>
	</g>
	<g>
		<path class="st0" d="M53.502,46.749c-3.584,0-6.5-2.916-6.5-6.5s2.916-6.5,6.5-6.5s6.5,2.916,6.5,6.5S57.086,46.749,53.502,46.749
			z M53.502,34.749c-3.032,0-5.5,2.468-5.5,5.5s2.468,5.5,5.5,5.5s5.5-2.468,5.5-5.5S56.534,34.749,53.502,34.749z"/>
	</g>
	<g>
		<path class="st0" d="M48.068,40.749h-0.566c-0.276,0-0.5-0.224-0.5-0.5c0-3.584,2.916-6.5,6.5-6.5c1.932,0,3.75,0.853,4.991,2.339
			c0.085,0.102,0.126,0.233,0.114,0.365c-0.012,0.133-0.076,0.255-0.179,0.34l-0.447,0.372l0,0
			C55.203,39.476,51.683,40.749,48.068,40.749z M48.024,39.749h0.044c3.381,0,6.675-1.19,9.274-3.354l0.045-0.037
			c-1.029-1.028-2.42-1.609-3.886-1.609C50.638,34.749,48.277,36.949,48.024,39.749z M57.662,36.78h0.01H57.662z"/>
	</g>
	<g>
		<path class="st0" d="M50.491,47.755c-0.276,0-0.5-0.224-0.5-0.5l-0.001-1.82c0-0.179,0.096-0.344,0.251-0.434
			c0.155-0.088,0.347-0.088,0.5,0.001c1.675,0.976,3.823,0.978,5.499,0.011c0.154-0.088,0.346-0.089,0.5,0.001
			c0.154,0.089,0.25,0.254,0.25,0.433l0.001,1.798c0,0.275-0.224,0.5-0.5,0.5l0,0c-0.276,0-0.5-0.224-0.5-0.5L55.99,46.25
			c-1.583,0.659-3.419,0.656-5-0.009l0.001,1.014C50.991,47.53,50.768,47.755,50.491,47.755L50.491,47.755z"/>
	</g>
	<g>
		<path class="st1" d="M43.495,55.749v-1.909c0-1.895,1.071-3.626,2.766-4.473l4.231-2.113l3.004,4.463l2.996-4.472l4.245,2.122
			c1.694,0.847,2.764,2.578,2.764,4.472v1.91"/>
		<path class="st0" d="M63.5,56.249c-0.276,0-0.5-0.224-0.5-0.5V53.84c0-1.715-0.953-3.258-2.488-4.025l-3.851-1.925l-2.751,4.105
			c-0.093,0.139-0.248,0.222-0.414,0.222c-0.001,0-0.001,0-0.001,0c-0.166,0-0.322-0.083-0.415-0.221l-2.759-4.098l-3.837,1.917
			c-1.535,0.767-2.489,2.31-2.489,4.025v1.908c0,0.276-0.224,0.5-0.5,0.5s-0.5-0.224-0.5-0.5v-1.908c0-2.098,1.166-3.982,3.042-4.92
			l4.23-2.113c0.224-0.113,0.499-0.042,0.639,0.168l2.588,3.845l2.582-3.854c0.141-0.209,0.415-0.282,0.639-0.169l4.244,2.122
			C62.835,49.858,64,51.743,64,53.84v1.909C64,56.025,63.776,56.249,63.5,56.249z"/>
	</g>
	<g>
		<path class="st0" d="M53.495,55.217c-0.276,0-0.5-0.224-0.5-0.5v-3c0-0.276,0.224-0.5,0.5-0.5s0.5,0.224,0.5,0.5v3
			C53.995,54.993,53.771,55.217,53.495,55.217z"/>
	</g>
	<g>
		<path class="st0" d="M32.005,20.749c-3.584,0-6.5-2.916-6.5-6.5s2.916-6.5,6.5-6.5s6.5,2.916,6.5,6.5S35.589,20.749,32.005,20.749
			z M32.005,8.749c-3.032,0-5.5,2.468-5.5,5.5s2.468,5.5,5.5,5.5s5.5-2.468,5.5-5.5S35.037,8.749,32.005,8.749z"/>
	</g>
	<g>
		<path class="st0" d="M26.571,14.749h-0.566c-0.276,0-0.5-0.224-0.5-0.5c0-3.584,2.916-6.5,6.5-6.5c1.932,0,3.75,0.853,4.991,2.339
			c0.085,0.102,0.126,0.233,0.114,0.365c-0.012,0.133-0.076,0.255-0.179,0.34l-0.447,0.372l0,0
			C33.706,13.476,30.186,14.749,26.571,14.749z M26.527,13.749h0.044c3.381,0,6.675-1.19,9.274-3.354l0.045-0.037
			c-1.029-1.028-2.42-1.609-3.886-1.609C29.141,8.749,26.78,10.949,26.527,13.749z M36.165,10.78h0.01H36.165z"/>
	</g>
	<g>
		<path class="st0" d="M28.994,21.755c-0.276,0-0.5-0.224-0.5-0.499l-0.002-1.82c0-0.18,0.096-0.345,0.25-0.435
			c0.155-0.088,0.348-0.088,0.501,0.001c1.676,0.976,3.823,0.977,5.499,0.011c0.154-0.088,0.346-0.089,0.5,0.001
			c0.154,0.089,0.25,0.254,0.25,0.432l0.002,1.798c0,0.276-0.224,0.501-0.499,0.501c-0.001,0-0.001,0-0.001,0
			c-0.276,0-0.5-0.224-0.5-0.499l-0.001-0.996c-1.584,0.661-3.418,0.657-5-0.008l0.001,1.013
			C29.494,21.53,29.271,21.755,28.994,21.755C28.994,21.755,28.994,21.755,28.994,21.755z"/>
	</g>
	<g>
		<path class="st1" d="M21.998,29.749v-1.909c0-1.895,1.071-3.626,2.766-4.473l4.231-2.113l3.004,4.463l2.996-4.472l4.245,2.122
			c1.694,0.847,2.764,2.578,2.764,4.472v1.91"/>
		<path class="st0" d="M42.002,30.249c-0.276,0-0.5-0.224-0.5-0.5V27.84c0-1.716-0.953-3.258-2.487-4.025l-3.852-1.925l-2.75,4.105
			c-0.093,0.139-0.248,0.222-0.414,0.222c-0.001,0-0.001,0-0.001,0c-0.166,0-0.322-0.083-0.415-0.221l-2.759-4.098l-3.838,1.917
			c-1.535,0.767-2.488,2.31-2.488,4.025v1.908c0,0.276-0.224,0.5-0.5,0.5s-0.5-0.224-0.5-0.5v-1.908c0-2.098,1.165-3.982,3.041-4.92
			l4.231-2.113c0.224-0.114,0.499-0.041,0.639,0.168l2.588,3.845l2.581-3.854c0.141-0.21,0.415-0.282,0.639-0.169l4.245,2.122
			c1.875,0.938,3.04,2.823,3.04,4.92v1.909C42.502,30.025,42.278,30.249,42.002,30.249z"/>
	</g>
	<g>
		<path class="st0" d="M31.998,29.217c-0.276,0-0.5-0.224-0.5-0.5v-3c0-0.276,0.224-0.5,0.5-0.5s0.5,0.224,0.5,0.5v3
			C32.498,28.993,32.274,29.217,31.998,29.217z"/>
	</g>
	<g>
		<path class="st0" d="M31.993,41.749c-0.276,0-0.5-0.224-0.5-0.5v-8c0-0.276,0.224-0.5,0.5-0.5s0.5,0.224,0.5,0.5v8
			C32.493,41.525,32.27,41.749,31.993,41.749z"/>
	</g>
	<g>
		<path class="st0" d="M40.493,49.249c-0.118,0-0.235-0.041-0.331-0.125l-8.169-7.208l-8.169,7.208
			c-0.208,0.183-0.523,0.162-0.706-0.044c-0.183-0.207-0.163-0.523,0.044-0.706l8.5-7.5c0.189-0.166,0.473-0.166,0.662,0l8.5,7.5
			c0.207,0.183,0.227,0.499,0.044,0.706C40.77,49.191,40.632,49.249,40.493,49.249z"/>
	</g>
	<g>
		<path class="st0" d="M28.493,49.249h-5c-0.276,0-0.5-0.224-0.5-0.5v-5c0-0.276,0.224-0.5,0.5-0.5s0.5,0.224,0.5,0.5v4.5h4.5
			c0.276,0,0.5,0.224,0.5,0.5S28.77,49.249,28.493,49.249z"/>
	</g>
	<g>
		<path class="st0" d="M40.493,49.249h-5c-0.276,0-0.5-0.224-0.5-0.5s0.224-0.5,0.5-0.5h4.5v-4.5c0-0.276,0.224-0.5,0.5-0.5
			s0.5,0.224,0.5,0.5v5C40.993,49.025,40.77,49.249,40.493,49.249z"/>
	</g>
	<g>
		<path class="st0" d="M35.535,37.285c-0.128,0-0.256-0.049-0.354-0.146L32,33.956l-3.182,3.183c-0.195,0.195-0.512,0.195-0.707,0
			s-0.195-0.512,0-0.707l3.535-3.536c0.188-0.188,0.52-0.188,0.707,0l3.535,3.536c0.195,0.195,0.195,0.512,0,0.707
			C35.791,37.236,35.663,37.285,35.535,37.285z"/>
	</g>
</g>
</svg>
