<?xml version="1.0" encoding="utf-8"?>
<!-- Generator: Adobe Illustrator 21.1.0, SVG Export Plug-In . SVG Version: 6.00 Build 0)  -->
<svg version="1.1" id="Icon_Set" xmlns="http://www.w3.org/2000/svg" xmlns:xlink="http://www.w3.org/1999/xlink" x="0px" y="0px"
	 viewBox="0 0 64 64" style="enable-background:new 0 0 64 64;" xml:space="preserve">
<style type="text/css">
	.st0{fill:#263238;}
	.st1{fill:#40C4FF;}
	.st2{fill:#FFD740;}
	.st3{fill:#FF5252;}
	.st4{fill:#4DB6AC;}
	.st5{fill:#FFFFFF;}
	.st6{fill:#4FC3F7;}
</style>
<g id="Payment">
	<g>
		<path class="st0" d="M45.5,41h-1c-0.276,0-0.5-0.224-0.5-0.5s0.224-0.5,0.5-0.5h1c0.276,0,0.5-0.225,0.5-0.5v-3
			c0-0.275-0.224-0.5-0.5-0.5h-27c-0.276,0-0.5,0.225-0.5,0.5v3c0,0.275,0.224,0.5,0.5,0.5H19.5c0.276,0,0.5,0.224,0.5,0.5
			S19.777,41,19.5,41H18.5c-0.827,0-1.5-0.673-1.5-1.5v-3c0-0.827,0.673-1.5,1.5-1.5h27c0.827,0,1.5,0.673,1.5,1.5v3
			C47,40.327,46.327,41,45.5,41z"/>
	</g>
	<g>
		<path class="st0" d="M29.5,58.5h-3c-0.827,0-1.5-0.673-1.5-1.5v-6c0-0.827,0.673-1.5,1.5-1.5h3c0.827,0,1.5,0.673,1.5,1.5v6
			C31,57.827,30.327,58.5,29.5,58.5z M26.5,50.5c-0.276,0-0.5,0.225-0.5,0.5v6c0,0.275,0.224,0.5,0.5,0.5h3
			c0.276,0,0.5-0.225,0.5-0.5v-6c0-0.275-0.224-0.5-0.5-0.5H26.5z"/>
	</g>
	<g>
		<path class="st0" d="M43.5,23H21c-0.827,0-1.5-0.673-1.5-1.5v-11C19.5,9.673,20.173,9,21,9h22.5c0.827,0,1.5,0.673,1.5,1.5v11
			C45,22.327,44.327,23,43.5,23z M21,10c-0.276,0-0.5,0.225-0.5,0.5v11c0,0.275,0.224,0.5,0.5,0.5h22.5c0.276,0,0.5-0.225,0.5-0.5
			v-11c0-0.275-0.224-0.5-0.5-0.5H21z"/>
	</g>
	<g>
		<rect x="34.5" y="38" class="st3" width="4" height="24"/>
		<path class="st0" d="M38.5,62.5h-4c-0.276,0-0.5-0.224-0.5-0.5V38c0-0.276,0.224-0.5,0.5-0.5h4c0.276,0,0.5,0.224,0.5,0.5v24
			C39,62.276,38.776,62.5,38.5,62.5z M35,61.5h3v-23h-3V61.5z"/>
	</g>
	<g>
		<path class="st0" d="M40,62.5H24c-1.654,0-3-1.346-3-3V38c0-0.276,0.224-0.5,0.5-0.5h21c0.276,0,0.5,0.224,0.5,0.5v21.5
			C43,61.154,41.654,62.5,40,62.5z M22,38.5v21c0,1.103,0.897,2,2,2h16c1.103,0,2-0.897,2-2v-21H22z"/>
	</g>
	<g>
		<path class="st0" d="M37,30.5H27c-0.276,0-0.5-0.224-0.5-0.5v-3c0-0.276,0.224-0.5,0.5-0.5h10c0.276,0,0.5,0.224,0.5,0.5v3
			C37.5,30.276,37.276,30.5,37,30.5z M27.5,29.5h9v-2h-9V29.5z"/>
	</g>
	<g>
		<path class="st0" d="M3,57.5H2c-0.276,0-0.5-0.224-0.5-0.5s0.224-0.5,0.5-0.5h1c0.276,0,0.5,0.224,0.5,0.5S3.276,57.5,3,57.5z"/>
	</g>
	<g>
		<path class="st0" d="M16,57.5H5c-0.276,0-0.5-0.224-0.5-0.5s0.224-0.5,0.5-0.5h11c0.276,0,0.5,0.224,0.5,0.5S16.276,57.5,16,57.5z
			"/>
	</g>
	<g>
		<path class="st0" d="M62,57.5h-1c-0.276,0-0.5-0.224-0.5-0.5s0.224-0.5,0.5-0.5h1c0.276,0,0.5,0.224,0.5,0.5S62.276,57.5,62,57.5z
			"/>
	</g>
	<g>
		<path class="st0" d="M59,57.5H48c-0.276,0-0.5-0.224-0.5-0.5s0.224-0.5,0.5-0.5h11c0.276,0,0.5,0.224,0.5,0.5S59.276,57.5,59,57.5
			z"/>
	</g>
	<g>
		<path class="st0" d="M41.5,18c-0.276,0-0.5-0.224-0.5-0.5V13h-4.5c-0.276,0-0.5-0.224-0.5-0.5s0.224-0.5,0.5-0.5h5
			c0.276,0,0.5,0.224,0.5,0.5v5C42,17.776,41.777,18,41.5,18z"/>
	</g>
	<g>
		<path class="st0" d="M50.558,51.5H44.5c-0.276,0-0.5-0.224-0.5-0.5s0.224-0.5,0.5-0.5h6.058c1.071,0,1.942-0.897,1.942-2v-43
			c0-1.103-0.871-2-1.942-2H13.442c-1.071,0-1.942,0.897-1.942,2v43c0,1.103,0.871,2,1.942,2H19.5c0.276,0,0.5,0.224,0.5,0.5
			s-0.224,0.5-0.5,0.5h-6.058c-1.622,0-2.942-1.346-2.942-3v-43c0-1.654,1.32-3,2.942-3h37.116c1.622,0,2.942,1.346,2.942,3v43
			C53.5,50.154,52.18,51.5,50.558,51.5z"/>
	</g>
	<g>
		<circle class="st4" cx="10.5" cy="16" r="7.5"/>
	</g>
	<g>
		<path class="st0" d="M9.086,18.828c-0.128,0-0.256-0.049-0.354-0.146l-2.829-2.828c-0.195-0.195-0.195-0.512,0-0.707
			s0.512-0.195,0.707,0l2.475,2.475l4.95-4.949c0.195-0.195,0.512-0.195,0.707,0s0.195,0.512,0,0.707l-5.303,5.303
			C9.342,18.779,9.214,18.828,9.086,18.828z"/>
	</g>
</g>
</svg>
