<?xml version="1.0" encoding="utf-8"?>
<!-- Generator: Adobe Illustrator 21.1.0, SVG Export Plug-In . SVG Version: 6.00 Build 0)  -->
<svg version="1.1" id="Icon_Set" xmlns="http://www.w3.org/2000/svg" xmlns:xlink="http://www.w3.org/1999/xlink" x="0px" y="0px"
	 viewBox="0 0 64 64" style="enable-background:new 0 0 64 64;" xml:space="preserve">
<style type="text/css">
	.st0{fill:#263238;}
	.st1{fill:#40C4FF;}
	.st2{fill:#FFD740;}
	.st3{fill:#FF5252;}
	.st4{fill:#4DB6AC;}
	.st5{fill:#FFFFFF;}
	.st6{fill:#4FC3F7;}
</style>
<g id="Piggy_Bank">
	<g>
		<path class="st2" d="M42,3.5c-4.418,0-8,3.582-8,8c0,0.068,0.009,0.134,0.01,0.202C37.92,12.5,41,15.58,41.798,19.49
			c0.068,0.002,0.134,0.01,0.202,0.01c4.418,0,8-3.582,8-8S46.418,3.5,42,3.5z"/>
	</g>
	<g>
		<path class="st0" d="M42,20c-0.051,0-0.101-0.003-0.15-0.006c-0.271-0.019-0.521-0.254-0.508-0.526
			c0.014-0.271,0.195-0.482,0.471-0.478c0.009,0.001,0.105,0.005,0.115,0.006c4.212,0,7.572-3.363,7.572-7.496
			C49.5,7.364,46.136,4,42,4s-7.5,3.364-7.5,7.5c0.001,0.009,0.01,0.187,0.01,0.195c0.004,0.276-0.217,0.503-0.493,0.507
			c-0.283-0.017-0.503-0.217-0.507-0.493L33.5,11.5C33.5,6.813,37.313,3,42,3s8.5,3.813,8.5,8.5S46.687,20,42,20z"/>
	</g>
	<g>
		<path class="st0" d="M42,9.5c-0.276,0-0.5-0.224-0.5-0.5V7.5C41.5,7.224,41.724,7,42,7s0.5,0.224,0.5,0.5V9
			C42.5,9.276,42.276,9.5,42,9.5z"/>
	</g>
	<g>
		<path class="st0" d="M42,16c-0.276,0-0.5-0.224-0.5-0.5V14c0-0.276,0.224-0.5,0.5-0.5s0.5,0.224,0.5,0.5v1.5
			C42.5,15.776,42.276,16,42,16z"/>
	</g>
	<g>
		<path class="st0" d="M42.75,14.5H40c-0.276,0-0.5-0.224-0.5-0.5s0.224-0.5,0.5-0.5h2.75c0.413,0,0.75-0.336,0.75-0.75
			S43.163,12,42.75,12h-1.5c-0.965,0-1.75-0.785-1.75-1.75s0.785-1.75,1.75-1.75h2.25C43.776,8.5,44,8.724,44,9s-0.224,0.5-0.5,0.5
			h-2.25c-0.413,0-0.75,0.336-0.75,0.75S40.837,11,41.25,11h1.5c0.965,0,1.75,0.785,1.75,1.75S43.715,14.5,42.75,14.5z"/>
	</g>
	<g>
		<path class="st0" d="M43.25,61.5h-3c-1.654,0-3-1.346-3-3v-1h-10.5v1c0,1.654-1.346,3-3,3h-3c-1.654,0-3-1.346-3-3v-2.768
			C12.982,53.449,9.404,49.104,8.085,44H6.5c-1.654,0-3-1.346-3-3v-3c0-1.654,1.346-3,3-3h1.585
			c1.421-5.517,5.372-10.026,10.665-12.171V17c0-0.276,0.224-0.5,0.5-0.5h0.987c0.964,0,1.895,0.258,2.767,0.768
			c0.238,0.139,0.318,0.446,0.179,0.684c-0.139,0.238-0.443,0.32-0.684,0.179c-0.716-0.419-1.478-0.631-2.262-0.631H19.75v5.669
			c0,0.207-0.128,0.393-0.321,0.467c-5.269,2.019-9.181,6.497-10.465,11.978C8.911,35.84,8.709,36,8.477,36H6.5
			c-1.103,0-2,0.897-2,2v3c0,1.103,0.897,2,2,2h1.977c0.232,0,0.434,0.16,0.487,0.386c1.189,5.076,4.738,9.402,9.494,11.573
			c0.178,0.082,0.292,0.259,0.292,0.455V58.5c0,1.103,0.897,2,2,2h3c1.103,0,2-0.897,2-2V57c0-0.276,0.224-0.5,0.5-0.5h11.5
			c0.276,0,0.5,0.224,0.5,0.5v1.5c0,1.103,0.897,2,2,2h3c1.103,0,2-0.897,2-2v-3.086c0-0.196,0.114-0.374,0.292-0.455
			c5.584-2.548,9.374-7.916,9.892-14.008c0.022-0.267,0.262-0.48,0.52-0.457L57.5,40.5c1.93,0,3.5-1.57,3.5-3.5v-1.5
			c0-0.551-0.448-1-1-1s-1,0.449-1,1V37c0,0.827-0.673,1.5-1.5,1.5H56c-0.26,0.016-0.551-0.18-0.573-0.45
			c-0.634-7.481-6.213-13.737-13.568-15.213c-0.271-0.054-0.446-0.318-0.392-0.588c0.055-0.272,0.322-0.448,0.589-0.392
			C49.69,23.389,55.52,29.785,56.377,37.5H57.5c0.275,0,0.5-0.224,0.5-0.5v-1.5c0-1.103,0.897-2,2-2s2,0.897,2,2V37
			c0,2.481-2.019,4.5-4.5,4.5h-1.115C55.7,47.652,51.86,53.049,46.25,55.732V58.5C46.25,60.154,44.904,61.5,43.25,61.5z"/>
	</g>
	<g>
		<path class="st0" d="M52.911,38.507c-0.253,0-0.47-0.191-0.496-0.449c-0.603-5.866-4.854-10.75-10.577-12.153
			c-0.269-0.066-0.433-0.337-0.366-0.605c0.065-0.267,0.335-0.434,0.604-0.367c6.133,1.504,10.688,6.737,11.333,13.022
			c0.028,0.275-0.171,0.521-0.446,0.549C52.946,38.506,52.929,38.507,52.911,38.507z"/>
	</g>
	<g>
		<path class="st1" d="M26.018,29.5H25c-0.552,0-1,0.448-1,1v2c0,0.552,0.448,1,1,1h14c0.552,0,1-0.448,1-1v-2c0-0.552-0.448-1-1-1
			h-1.018"/>
		<path class="st0" d="M39,34H25c-0.827,0-1.5-0.673-1.5-1.5v-2c0-0.827,0.673-1.5,1.5-1.5h1.018c0.276,0,0.5,0.224,0.5,0.5
			s-0.224,0.5-0.5,0.5H25c-0.276,0-0.5,0.224-0.5,0.5v2c0,0.276,0.224,0.5,0.5,0.5h14c0.275,0,0.5-0.224,0.5-0.5v-2
			c0-0.276-0.225-0.5-0.5-0.5h-1.019c-0.276,0-0.5-0.224-0.5-0.5s0.224-0.5,0.5-0.5H39c0.827,0,1.5,0.673,1.5,1.5v2
			C40.5,33.327,39.827,34,39,34z"/>
	</g>
	<g>
		<circle class="st2" cx="32" cy="21.5" r="8"/>
		<path class="st0" d="M32,30c-4.687,0-8.5-3.813-8.5-8.5S27.313,13,32,13c4.687,0,8.5,3.813,8.5,8.5S36.687,30,32,30z M32,14
			c-4.136,0-7.5,3.364-7.5,7.5S27.864,29,32,29s7.5-3.364,7.5-7.5S36.136,14,32,14z"/>
	</g>
	<g>
		<path class="st0" d="M32,19.5c-0.276,0-0.5-0.224-0.5-0.5v-1.5c0-0.276,0.224-0.5,0.5-0.5s0.5,0.224,0.5,0.5V19
			C32.5,19.276,32.276,19.5,32,19.5z"/>
	</g>
	<g>
		<path class="st0" d="M32,26c-0.276,0-0.5-0.224-0.5-0.5V24c0-0.276,0.224-0.5,0.5-0.5s0.5,0.224,0.5,0.5v1.5
			C32.5,25.776,32.276,26,32,26z"/>
	</g>
	<g>
		<path class="st0" d="M32.75,24.5H30c-0.276,0-0.5-0.224-0.5-0.5s0.224-0.5,0.5-0.5h2.75c0.413,0,0.75-0.336,0.75-0.75
			S33.163,22,32.75,22h-1.5c-0.965,0-1.75-0.785-1.75-1.75s0.785-1.75,1.75-1.75h2.25c0.276,0,0.5,0.224,0.5,0.5s-0.224,0.5-0.5,0.5
			h-2.25c-0.413,0-0.75,0.336-0.75,0.75S30.836,21,31.25,21h1.5c0.965,0,1.75,0.785,1.75,1.75S33.715,24.5,32.75,24.5z"/>
	</g>
	<g>
		<path class="st0" d="M8,15.5c-0.276,0-0.5-0.224-0.5-0.5v-4c0-0.276,0.224-0.5,0.5-0.5s0.5,0.224,0.5,0.5v4
			C8.5,15.276,8.276,15.5,8,15.5z"/>
	</g>
	<g>
		<path class="st0" d="M10,13.5H6c-0.276,0-0.5-0.224-0.5-0.5s0.224-0.5,0.5-0.5h4c0.276,0,0.5,0.224,0.5,0.5S10.276,13.5,10,13.5z"
			/>
	</g>
	<g>
		<path class="st0" d="M16,7.5c-0.276,0-0.5-0.224-0.5-0.5V3c0-0.276,0.224-0.5,0.5-0.5s0.5,0.224,0.5,0.5v4
			C16.5,7.276,16.276,7.5,16,7.5z"/>
	</g>
	<g>
		<path class="st0" d="M18,5.5h-4c-0.276,0-0.5-0.224-0.5-0.5s0.224-0.5,0.5-0.5h4c0.276,0,0.5,0.224,0.5,0.5S18.276,5.5,18,5.5z"/>
	</g>
	<g>
		<path class="st0" d="M62,59.75h-1c-0.276,0-0.5-0.224-0.5-0.5s0.224-0.5,0.5-0.5h1c0.276,0,0.5,0.224,0.5,0.5
			S62.276,59.75,62,59.75z"/>
	</g>
	<g>
		<path class="st0" d="M59,59.75h-8.5c-0.276,0-0.5-0.224-0.5-0.5s0.224-0.5,0.5-0.5H59c0.276,0,0.5,0.224,0.5,0.5
			S59.276,59.75,59,59.75z"/>
	</g>
	<g>
		<path class="st0" d="M3,59.75H2c-0.276,0-0.5-0.224-0.5-0.5s0.224-0.5,0.5-0.5h1c0.276,0,0.5,0.224,0.5,0.5S3.276,59.75,3,59.75z"
			/>
	</g>
	<g>
		<path class="st0" d="M13.5,59.75H5c-0.276,0-0.5-0.224-0.5-0.5s0.224-0.5,0.5-0.5h8.5c0.276,0,0.5,0.224,0.5,0.5
			S13.776,59.75,13.5,59.75z"/>
	</g>
</g>
</svg>
