<?xml version="1.0" encoding="utf-8"?>
<!-- Generator: Adobe Illustrator 21.1.0, SVG Export Plug-In . SVG Version: 6.00 Build 0)  -->
<svg version="1.1" id="Icon_Set" xmlns="http://www.w3.org/2000/svg" xmlns:xlink="http://www.w3.org/1999/xlink" x="0px" y="0px"
	 viewBox="0 0 64 64" style="enable-background:new 0 0 64 64;" xml:space="preserve">
<style type="text/css">
	.st0{fill:#263238;}
	.st1{fill:#40C4FF;}
	.st2{fill:#FFD740;}
	.st3{fill:#FF5252;}
	.st4{fill:#4DB6AC;}
	.st5{fill:#FFFFFF;}
	.st6{fill:#4FC3F7;}
</style>
<g id="Planning">
	<g>
		<ellipse transform="matrix(0.7071 -0.7071 0.7071 0.7071 -3.9097 11.5606)" class="st2" cx="12" cy="10.5" rx="10" ry="10"/>
	</g>
	<g>
		<path class="st0" d="M45.147,64h-9c-3.033,0-5.5-2.468-5.5-5.5v-3c0-0.276,0.224-0.5,0.5-0.5s0.5,0.224,0.5,0.5v3
			c0,2.481,2.019,4.5,4.5,4.5h9c2.481,0,4.5-2.019,4.5-4.5V41.937c0-0.276,0.224-0.5,0.5-0.5s0.5,0.224,0.5,0.5V58.5
			C50.647,61.532,48.18,64,45.147,64z"/>
	</g>
	<g>
		<path class="st0" d="M36.147,54h-11.5c-4.411,0-8-3.589-8-8v-3h-2.142c-1.128,0-2.15-0.623-2.667-1.627s-0.43-2.198,0.226-3.117
			l4.583-6.416V28c0-7.168,5.832-13,13-13h8c5.338,0,10.214,3.346,12.134,8.325c0.1,0.258-0.029,0.547-0.287,0.646
			c-0.257,0.098-0.547-0.029-0.646-0.287C47.076,19.088,42.575,16,37.647,16h-8c-6.617,0-12,5.383-12,12v4
			c0,0.104-0.033,0.206-0.093,0.291l-4.676,6.547c-0.444,0.621-0.5,1.397-0.15,2.077S13.741,42,14.504,42h2.642
			c0.276,0,0.5,0.224,0.5,0.5V46c0,3.859,3.14,7,7,7h11.5c0.276,0,0.5,0.224,0.5,0.5S36.423,54,36.147,54z"/>
	</g>
	<g>
		<path class="st0" d="M28.146,32.5h-6c-0.276,0-0.5-0.224-0.5-0.5s0.224-0.5,0.5-0.5h6c0.276,0,0.5,0.224,0.5,0.5
			S28.423,32.5,28.146,32.5z"/>
	</g>
	<g>
		<g>
			<path class="st0" d="M27,59h-1c-0.276,0-0.5-0.224-0.5-0.5S25.724,58,26,58h1c0.276,0,0.5,0.224,0.5,0.5S27.276,59,27,59z"/>
		</g>
		<g>
			<path class="st0" d="M24,59h-9.5c-0.276,0-0.5-0.224-0.5-0.5s0.224-0.5,0.5-0.5H24c0.276,0,0.5,0.224,0.5,0.5S24.276,59,24,59z"
				/>
		</g>
	</g>
	<g>
		<g>
			<path class="st0" d="M28.897,11h-1c-0.276,0-0.5-0.224-0.5-0.5s0.224-0.5,0.5-0.5h1c0.276,0,0.5,0.224,0.5,0.5
				S29.173,11,28.897,11z"/>
		</g>
		<g>
			<path class="st0" d="M40.397,11h-9.5c-0.276,0-0.5-0.224-0.5-0.5s0.224-0.5,0.5-0.5h9.5c0.276,0,0.5,0.224,0.5,0.5
				S40.673,11,40.397,11z"/>
		</g>
	</g>
	<g>
		<g>
			<path class="st0" d="M53,19c-0.276,0-0.5-0.224-0.5-0.5v-4c0-0.276,0.224-0.5,0.5-0.5s0.5,0.224,0.5,0.5v4
				C53.5,18.776,53.276,19,53,19z"/>
		</g>
		<g>
			<path class="st0" d="M55,17h-4c-0.276,0-0.5-0.224-0.5-0.5S50.724,16,51,16h4c0.276,0,0.5,0.224,0.5,0.5S55.276,17,55,17z"/>
		</g>
	</g>
	<g>
		<g>
			<path class="st0" d="M60,12c-0.276,0-0.5-0.224-0.5-0.5v-4C59.5,7.224,59.724,7,60,7s0.5,0.224,0.5,0.5v4
				C60.5,11.776,60.276,12,60,12z"/>
		</g>
		<g>
			<path class="st0" d="M62,10h-4c-0.276,0-0.5-0.224-0.5-0.5S57.724,9,58,9h4c0.276,0,0.5,0.224,0.5,0.5S62.276,10,62,10z"/>
		</g>
	</g>
	<g>
		<path class="st1" d="M57.647,25.5h-15c-1.381,0-2.5,1.119-2.5,2.5v8c0,1.381,1.119,2.5,2.5,2.5h2.5v2.865
			c0,0.848,0.989,1.311,1.64,0.768l4.36-3.633h6.5c1.381,0,2.5-1.119,2.5-2.5v-8C60.147,26.619,59.028,25.5,57.647,25.5z"/>
		<path class="st0" d="M46.15,42.867c-0.216,0-0.434-0.048-0.64-0.144c-0.533-0.25-0.864-0.771-0.864-1.359V39h-2
			c-1.654,0-3-1.346-3-3v-8c0-1.654,1.346-3,3-3h15c1.654,0,3,1.346,3,3v8c0,1.654-1.346,3-3,3h-6.319l-4.221,3.517
			C46.83,42.748,46.493,42.867,46.15,42.867z M42.647,26c-1.103,0-2,0.897-2,2v8c0,1.103,0.897,2,2,2h2.5c0.276,0,0.5,0.224,0.5,0.5
			v2.864c0,0.296,0.22,0.422,0.288,0.453c0.068,0.032,0.306,0.119,0.532-0.068l4.36-3.633C50.917,38.041,51.03,38,51.147,38h6.5
			c1.103,0,2-0.897,2-2v-8c0-1.103-0.897-2-2-2H42.647z"/>
	</g>
	<g>
		<circle class="st0" cx="50.147" cy="32" r="1"/>
	</g>
	<g>
		<circle class="st0" cx="45.147" cy="32" r="1"/>
	</g>
	<g>
		<circle class="st0" cx="55.147" cy="32" r="1"/>
	</g>
	<g>
		<path class="st0" d="M12,17c-1.736,0-3.369-0.677-4.596-1.904c-0.195-0.195-0.195-0.512,0-0.707s0.512-0.195,0.707,0
			C9.15,15.428,10.531,16,12,16s2.85-0.572,3.889-1.611c1.039-1.039,1.611-2.42,1.611-3.89c0-0.276,0.224-0.5,0.5-0.5
			s0.5,0.224,0.5,0.5c0,1.736-0.676,3.369-1.904,4.597S13.736,17,12,17z"/>
	</g>
	<g>
		<path class="st0" d="M6,11c-0.276,0-0.5-0.224-0.5-0.5c0-1.736,0.676-3.368,1.904-4.597c2.534-2.533,6.658-2.533,9.192,0
			c0.195,0.195,0.195,0.512,0,0.707s-0.512,0.195-0.707,0c-2.145-2.145-5.634-2.145-7.778,0C7.072,7.649,6.5,9.031,6.5,10.5
			C6.5,10.776,6.276,11,6,11z"/>
	</g>
	<g>
		<path class="st0" d="M6,11.749c-0.128,0-0.256-0.049-0.354-0.146l-1.5-1.5c-0.195-0.195-0.195-0.512,0-0.707s0.512-0.195,0.707,0
			L6,10.542l1.146-1.146c0.195-0.195,0.512-0.195,0.707,0s0.195,0.512,0,0.707l-1.5,1.5C6.256,11.7,6.128,11.749,6,11.749z"/>
	</g>
	<g>
		<path class="st0" d="M19.5,11.749c-0.128,0-0.256-0.049-0.354-0.146L18,10.456l-1.146,1.146c-0.195,0.195-0.512,0.195-0.707,0
			s-0.195-0.512,0-0.707l1.5-1.5c0.195-0.195,0.512-0.195,0.707,0l1.5,1.5c0.195,0.195,0.195,0.512,0,0.707
			C19.756,11.7,19.628,11.749,19.5,11.749z"/>
	</g>
</g>
</svg>
