<?xml version="1.0" encoding="utf-8"?>
<!-- Generator: Adobe Illustrator 21.1.0, SVG Export Plug-In . SVG Version: 6.00 Build 0)  -->
<svg version="1.1" id="Icon_Set" xmlns="http://www.w3.org/2000/svg" xmlns:xlink="http://www.w3.org/1999/xlink" x="0px" y="0px"
	 viewBox="0 0 64 64" style="enable-background:new 0 0 64 64;" xml:space="preserve">
<style type="text/css">
	.st0{fill:#263238;}
	.st1{fill:#40C4FF;}
	.st2{fill:#FFD740;}
	.st3{fill:#FF5252;}
	.st4{fill:#4DB6AC;}
	.st5{fill:#FFFFFF;}
	.st6{fill:#4FC3F7;}
</style>
<g id="Profit">
	<g>
		<path class="st0" d="M33.5,45c-0.06,0-0.119-0.01-0.178-0.033l-7.921-3.018C23.747,41.319,22.01,41,20.24,41H17.5
			c-0.276,0-0.5-0.224-0.5-0.5s0.224-0.5,0.5-0.5h2.74c1.892,0,3.749,0.341,5.518,1.015l7.92,3.018
			c0.259,0.098,0.388,0.387,0.289,0.646C33.892,44.877,33.701,45,33.5,45z"/>
	</g>
	<g>
		<path class="st0" d="M53.5,57H38.99c-2.374,0-4.71-0.408-6.944-1.212l-7.574-2.727c-1.035-0.373-2.118-0.562-3.218-0.562H17.5
			c-0.276,0-0.5-0.224-0.5-0.5s0.224-0.5,0.5-0.5h3.755c1.216,0,2.412,0.209,3.557,0.621l7.574,2.727
			C34.51,55.612,36.731,56,38.99,56H53.5c1.103,0,2-0.897,2-2s-0.897-2-2-2H42c-0.276,0-0.5-0.224-0.5-0.5S41.724,51,42,51h11.5
			c1.654,0,3,1.346,3,3S55.154,57,53.5,57z"/>
	</g>
	<g>
		<path class="st1" d="M8,39v14.5c0,0.552,0.448,1,1,1h5.5c0.552,0,1-0.448,1-1V39c0-0.552-0.448-1-1-1H9C8.448,38,8,38.448,8,39z"
			/>
		<path class="st0" d="M14.5,55H9c-0.827,0-1.5-0.673-1.5-1.5V39c0-0.827,0.673-1.5,1.5-1.5h5.5c0.827,0,1.5,0.673,1.5,1.5v14.5
			C16,54.327,15.327,55,14.5,55z M9,38.5c-0.276,0-0.5,0.224-0.5,0.5v14.5C8.5,53.776,8.724,54,9,54h5.5c0.276,0,0.5-0.224,0.5-0.5
			V39c0-0.276-0.224-0.5-0.5-0.5H9z"/>
	</g>
	<g>
		<path class="st0" d="M40.5,50H34c-0.276,0-0.5-0.224-0.5-0.5S33.724,49,34,49h6.5c1.103,0,2-0.897,2-2s-0.897-2-2-2h-7
			c-0.276,0-0.5-0.224-0.5-0.5s0.224-0.5,0.5-0.5h7c1.654,0,3,1.346,3,3S42.154,50,40.5,50z"/>
	</g>
	<g>
		<rect x="26.035" y="32.5" class="st2" width="3" height="6"/>
		<path class="st0" d="M29.035,39h-3c-0.276,0-0.5-0.224-0.5-0.5v-6c0-0.276,0.224-0.5,0.5-0.5h3c0.276,0,0.5,0.224,0.5,0.5v6
			C29.535,38.776,29.312,39,29.035,39z M26.535,38h2v-5h-2V38z"/>
	</g>
	<g>
		<rect x="34.288" y="29.5" class="st3" width="3" height="9"/>
		<path class="st0" d="M37.288,39h-3c-0.276,0-0.5-0.224-0.5-0.5v-9c0-0.276,0.224-0.5,0.5-0.5h3c0.276,0,0.5,0.224,0.5,0.5v9
			C37.788,38.776,37.564,39,37.288,39z M34.788,38h2v-8h-2V38z"/>
	</g>
	<g>
		<rect x="42.288" y="24" class="st1" width="3" height="14.5"/>
		<path class="st0" d="M45.288,39h-3c-0.276,0-0.5-0.224-0.5-0.5V24c0-0.276,0.224-0.5,0.5-0.5h3c0.276,0,0.5,0.224,0.5,0.5v14.5
			C45.788,38.776,45.564,39,45.288,39z M42.788,38h2V24.5h-2V38z"/>
	</g>
	<g>
		<path class="st0" d="M35.788,27c-0.128,0-0.256-0.049-0.354-0.146l-3.183-3.182l-3.182,3.182c-0.195,0.195-0.512,0.195-0.707,0
			s-0.195-0.512,0-0.707l3.535-3.536c0.188-0.188,0.52-0.188,0.707,0l3.183,3.182l9.146-9.146c0.195-0.195,0.512-0.195,0.707,0
			s0.195,0.512,0,0.707l-9.5,9.5C36.044,26.951,35.916,27,35.788,27z"/>
	</g>
	<g>
		<path class="st0" d="M45.288,21.5c-0.276,0-0.5-0.224-0.5-0.5v-3.5h-3.5c-0.276,0-0.5-0.224-0.5-0.5s0.224-0.5,0.5-0.5h4
			c0.276,0,0.5,0.224,0.5,0.5v4C45.788,21.276,45.564,21.5,45.288,21.5z"/>
	</g>
	<g>
		<circle class="st2" cx="17.5" cy="13.5" r="8"/>
		<path class="st0" d="M17.5,22C12.813,22,9,18.187,9,13.5S12.813,5,17.5,5S26,8.813,26,13.5S22.187,22,17.5,22z M17.5,6
			C13.364,6,10,9.364,10,13.5s3.364,7.5,7.5,7.5s7.5-3.364,7.5-7.5S21.636,6,17.5,6z"/>
	</g>
	<g>
		<path class="st0" d="M17.5,36.5c-0.276,0-0.5-0.224-0.5-0.5V23.5c0-0.276,0.224-0.5,0.5-0.5s0.5,0.224,0.5,0.5V36
			C18,36.276,17.776,36.5,17.5,36.5z"/>
	</g>
	<g>
		<path class="st0" d="M51,45h-6.5c-0.276,0-0.5-0.224-0.5-0.5s0.224-0.5,0.5-0.5H51c1.103,0,2-0.897,2-2V13.5c0-1.103-0.897-2-2-2
			H27.172c-0.276,0-0.5-0.224-0.5-0.5s0.224-0.5,0.5-0.5H51c1.654,0,3,1.346,3,3V42C54,43.654,52.654,45,51,45z"/>
	</g>
	<g>
		<path class="st0" d="M17.5,11.5c-0.276,0-0.5-0.224-0.5-0.5V9.5C17,9.224,17.224,9,17.5,9S18,9.224,18,9.5V11
			C18,11.276,17.776,11.5,17.5,11.5z"/>
	</g>
	<g>
		<path class="st0" d="M17.5,18c-0.276,0-0.5-0.224-0.5-0.5V16c0-0.276,0.224-0.5,0.5-0.5S18,15.724,18,16v1.5
			C18,17.776,17.776,18,17.5,18z"/>
	</g>
	<g>
		<path class="st0" d="M18.25,16.5H15.5c-0.276,0-0.5-0.224-0.5-0.5s0.224-0.5,0.5-0.5h2.75c0.414,0,0.75-0.336,0.75-0.75
			S18.664,14,18.25,14h-1.5C15.785,14,15,13.215,15,12.25s0.785-1.75,1.75-1.75H19c0.276,0,0.5,0.224,0.5,0.5s-0.224,0.5-0.5,0.5
			h-2.25c-0.414,0-0.75,0.336-0.75,0.75S16.336,13,16.75,13h1.5c0.965,0,1.75,0.785,1.75,1.75S19.215,16.5,18.25,16.5z"/>
	</g>
	<g>
		<path class="st0" d="M12.25,59h-1c-0.276,0-0.5-0.224-0.5-0.5s0.224-0.5,0.5-0.5h1c0.276,0,0.5,0.224,0.5,0.5S12.526,59,12.25,59z
			"/>
	</g>
	<g>
		<path class="st0" d="M25.25,59h-11c-0.276,0-0.5-0.224-0.5-0.5s0.224-0.5,0.5-0.5h11c0.276,0,0.5,0.224,0.5,0.5
			S25.526,59,25.25,59z"/>
	</g>
	<g>
		<path class="st0" d="M50.288,7h-1c-0.276,0-0.5-0.224-0.5-0.5s0.224-0.5,0.5-0.5h1c0.276,0,0.5,0.224,0.5,0.5S50.564,7,50.288,7z"
			/>
	</g>
	<g>
		<path class="st0" d="M47.288,7h-16c-0.276,0-0.5-0.224-0.5-0.5s0.224-0.5,0.5-0.5h16c0.276,0,0.5,0.224,0.5,0.5S47.564,7,47.288,7
			z"/>
	</g>
</g>
</svg>
