<?xml version="1.0" encoding="utf-8"?>
<!-- Generator: Adobe Illustrator 21.1.0, SVG Export Plug-In . SVG Version: 6.00 Build 0)  -->
<svg version="1.1" id="Icon_Set" xmlns="http://www.w3.org/2000/svg" xmlns:xlink="http://www.w3.org/1999/xlink" x="0px" y="0px"
	 viewBox="0 0 64 64" style="enable-background:new 0 0 64 64;" xml:space="preserve">
<style type="text/css">
	.st0{fill:#263238;}
	.st1{fill:#40C4FF;}
	.st2{fill:#FFD740;}
	.st3{fill:#FF5252;}
	.st4{fill:#4DB6AC;}
	.st5{fill:#FFFFFF;}
	.st6{fill:#4FC3F7;}
</style>
<g id="Regtech">
	<g>
		<path class="st0" d="M62,12.5h-4c-0.276,0-0.5-0.224-0.5-0.5s0.224-0.5,0.5-0.5h4c0.276,0,0.5,0.224,0.5,0.5S62.276,12.5,62,12.5z
			"/>
	</g>
	<g>
		<path class="st0" d="M60,14.5c-0.276,0-0.5-0.224-0.5-0.5v-4c0-0.276,0.224-0.5,0.5-0.5s0.5,0.224,0.5,0.5v4
			C60.5,14.276,60.276,14.5,60,14.5z"/>
	</g>
	<g>
		<path class="st0" d="M54,18h-4c-0.276,0-0.5-0.224-0.5-0.5S49.724,17,50,17h4c0.276,0,0.5,0.224,0.5,0.5S54.276,18,54,18z"/>
	</g>
	<g>
		<path class="st0" d="M52,20c-0.276,0-0.5-0.224-0.5-0.5v-4c0-0.276,0.224-0.5,0.5-0.5s0.5,0.224,0.5,0.5v4
			C52.5,19.776,52.276,20,52,20z"/>
	</g>
	<g>
		<path class="st2" d="M30.5,28.5H54c1.381,0,2.5,1.119,2.5,2.5v0c0,1.381-1.119,2.5-2.5,2.5H30.5V28.5z"/>
		<path class="st0" d="M54,34H30.5c-0.276,0-0.5-0.224-0.5-0.5v-5c0-0.276,0.224-0.5,0.5-0.5H54c1.654,0,3,1.346,3,3
			S55.654,34,54,34z M31,33h23c1.103,0,2-0.897,2-2s-0.897-2-2-2H31V33z"/>
	</g>
	<g>
		<path class="st0" d="M37.5,56h-23c-1.654,0-3-1.346-3-3V11c0-1.654,1.346-3,3-3h4c0.133,0,0.26,0.053,0.354,0.146l2.354,2.354
			h9.586l2.354-2.354C33.24,8.053,33.367,8,33.5,8h4c1.654,0,3,1.346,3,3v15.5c0,0.276-0.224,0.5-0.5,0.5s-0.5-0.224-0.5-0.5V11
			c0-1.103-0.897-2-2-2h-3.793l-2.354,2.354C31.26,11.447,31.133,11.5,31,11.5H21c-0.133,0-0.26-0.053-0.354-0.146L18.293,9H14.5
			c-1.103,0-2,0.897-2,2v42c0,1.103,0.897,2,2,2h23c1.103,0,2-0.897,2-2V35.5c0-0.276,0.224-0.5,0.5-0.5s0.5,0.224,0.5,0.5V53
			C40.5,54.654,39.154,56,37.5,56z"/>
	</g>
	<g>
		<path class="st0" d="M37.5,56h-23c-1.654,0-3-1.346-3-3V11c0-1.654,1.346-3,3-3h4c0.133,0,0.26,0.053,0.354,0.146l2.354,2.354
			h9.586l2.354-2.354C33.24,8.053,33.367,8,33.5,8h4c1.654,0,3,1.346,3,3v15.5c0,0.276-0.224,0.5-0.5,0.5s-0.5-0.224-0.5-0.5V11
			c0-1.103-0.897-2-2-2h-3.793l-2.354,2.354C31.26,11.447,31.133,11.5,31,11.5H21c-0.133,0-0.26-0.053-0.354-0.146L18.293,9H14.5
			c-1.103,0-2,0.897-2,2v42c0,1.103,0.897,2,2,2h23c1.103,0,2-0.897,2-2V35.5c0-0.276,0.224-0.5,0.5-0.5s0.5,0.224,0.5,0.5V53
			C40.5,54.654,39.154,56,37.5,56z"/>
	</g>
	<g>
		<path class="st0" d="M38,59H14c-3.032,0-5.5-2.468-5.5-5.5v-43C8.5,7.468,10.968,5,14,5h24c3.032,0,5.5,2.468,5.5,5.5v16
			c0,0.276-0.224,0.5-0.5,0.5s-0.5-0.224-0.5-0.5v-16C42.5,8.019,40.481,6,38,6H14c-2.481,0-4.5,2.019-4.5,4.5v43
			c0,2.481,2.019,4.5,4.5,4.5h24c2.481,0,4.5-2.019,4.5-4.5v-18c0-0.276,0.224-0.5,0.5-0.5s0.5,0.224,0.5,0.5v18
			C43.5,56.532,41.032,59,38,59z"/>
	</g>
	<g>
		<path class="st0" d="M30.5,37h-9c-0.276,0-0.5-0.224-0.5-0.5v-11c0-0.276,0.224-0.5,0.5-0.5h9c0.276,0,0.5,0.224,0.5,0.5v11
			C31,36.776,30.776,37,30.5,37z M22,36h8V26h-8V36z"/>
	</g>
	<g>
		<path class="st2" d="M21,36.5h10c0.552,0,1,0.448,1,1v3c0,0.552-0.448,1-1,1H21c-0.552,0-1-0.448-1-1v-3
			C20,36.948,20.448,36.5,21,36.5z"/>
		<path class="st0" d="M31,42H21c-0.827,0-1.5-0.673-1.5-1.5v-3c0-0.827,0.673-1.5,1.5-1.5h10c0.827,0,1.5,0.673,1.5,1.5v3
			C32.5,41.327,31.827,42,31,42z M21,37c-0.275,0-0.5,0.225-0.5,0.5v3c0,0.275,0.225,0.5,0.5,0.5h10c0.275,0,0.5-0.225,0.5-0.5v-3
			c0-0.275-0.225-0.5-0.5-0.5H21z"/>
	</g>
	<g>
		<path class="st2" d="M21,20.5h10c0.552,0,1,0.448,1,1v3c0,0.552-0.448,1-1,1H21c-0.552,0-1-0.448-1-1v-3
			C20,20.948,20.448,20.5,21,20.5z"/>
		<path class="st0" d="M31,26H21c-0.827,0-1.5-0.673-1.5-1.5v-3c0-0.827,0.673-1.5,1.5-1.5h10c0.827,0,1.5,0.673,1.5,1.5v3
			C32.5,25.327,31.827,26,31,26z M21,21c-0.275,0-0.5,0.225-0.5,0.5v3c0,0.275,0.225,0.5,0.5,0.5h10c0.275,0,0.5-0.225,0.5-0.5v-3
			c0-0.275-0.225-0.5-0.5-0.5H21z"/>
	</g>
	<g>
		<path class="st0" d="M32,39.5H20c-0.276,0-0.5-0.224-0.5-0.5s0.224-0.5,0.5-0.5h12c0.276,0,0.5,0.224,0.5,0.5S32.276,39.5,32,39.5
			z"/>
	</g>
	<g>
		<path class="st0" d="M32,23.5H20c-0.276,0-0.5-0.224-0.5-0.5s0.224-0.5,0.5-0.5h12c0.276,0,0.5,0.224,0.5,0.5S32.276,23.5,32,23.5
			z"/>
	</g>
	<g>
		<path class="st0" d="M35.5,34c-0.276,0-0.5-0.224-0.5-0.5v-5c0-0.276,0.224-0.5,0.5-0.5s0.5,0.224,0.5,0.5v5
			C36,33.776,35.776,34,35.5,34z"/>
	</g>
	<g>
		<path class="st0" d="M37.5,34c-0.276,0-0.5-0.224-0.5-0.5v-5c0-0.276,0.224-0.5,0.5-0.5s0.5,0.224,0.5,0.5v5
			C38,33.776,37.776,34,37.5,34z"/>
	</g>
	<g>
		<path class="st0" d="M34,46H18c-0.276,0-0.5-0.224-0.5-0.5v-4c0-0.276,0.224-0.5,0.5-0.5h16c0.276,0,0.5,0.224,0.5,0.5v4
			C34.5,45.776,34.276,46,34,46z M18.5,45h15v-3h-15V45z"/>
	</g>
	<g>
		<path class="st0" d="M37,46H15c-0.276,0-0.5-0.224-0.5-0.5S14.724,45,15,45h22c0.276,0,0.5,0.224,0.5,0.5S37.276,46,37,46z"/>
	</g>
	<g>
		<path class="st0" d="M62.5,39h-1c-0.276,0-0.5-0.224-0.5-0.5s0.224-0.5,0.5-0.5h1c0.276,0,0.5,0.224,0.5,0.5S62.776,39,62.5,39z"
			/>
	</g>
	<g>
		<path class="st0" d="M59.5,39h-11c-0.276,0-0.5-0.224-0.5-0.5s0.224-0.5,0.5-0.5h11c0.276,0,0.5,0.224,0.5,0.5S59.776,39,59.5,39z
			"/>
	</g>
	<g>
		<path class="st0" d="M57,42H46c-0.276,0-0.5-0.224-0.5-0.5S45.724,41,46,41h11c0.276,0,0.5,0.224,0.5,0.5S57.276,42,57,42z"/>
	</g>
	<g>
		<circle class="st4" cx="9" cy="18.5" r="7.5"/>
	</g>
	<g>
		<path class="st0" d="M7.586,21.328c-0.128,0-0.256-0.049-0.354-0.146l-2.828-2.828c-0.195-0.195-0.195-0.512,0-0.707
			s0.512-0.195,0.707,0l2.475,2.475l4.949-4.949c0.195-0.195,0.512-0.195,0.707,0s0.195,0.512,0,0.707l-5.303,5.303
			C7.842,21.279,7.714,21.328,7.586,21.328z"/>
	</g>
</g>
</svg>
