<?xml version="1.0" encoding="utf-8"?>
<!-- Generator: Adobe Illustrator 21.1.0, SVG Export Plug-In . SVG Version: 6.00 Build 0)  -->
<svg version="1.1" id="Icon_Set" xmlns="http://www.w3.org/2000/svg" xmlns:xlink="http://www.w3.org/1999/xlink" x="0px" y="0px"
	 viewBox="0 0 64 64" style="enable-background:new 0 0 64 64;" xml:space="preserve">
<style type="text/css">
	.st0{fill:#263238;}
	.st1{fill:#40C4FF;}
	.st2{fill:#FFD740;}
	.st3{fill:#FF5252;}
	.st4{fill:#4DB6AC;}
	.st5{fill:#FFFFFF;}
	.st6{fill:#4FC3F7;}
</style>
<g id="Retirement_Savings">
	<g>
		<path class="st4" d="M59.501,16.5h-30c-0.552,0-1,0.448-1,1v4.952c2.026,1.291,3.648,3.162,4.604,5.412l2.824,6.636h23.571
			c0.552,0,1-0.448,1-1v-16C60.501,16.948,60.053,16.5,59.501,16.5z"/>
	</g>
	<g>
		<path class="st4" d="M62.501,13.5h-30c-0.552,0-1,0.448-1,1v2h28c0.552,0,1,0.448,1,1v14h2c0.552,0,1-0.448,1-1v-16
			C63.501,13.948,63.053,13.5,62.501,13.5z"/>
	</g>
	<g>
		<path class="st0" d="M59.501,35H35.929c-0.276,0-0.5-0.224-0.5-0.5s0.224-0.5,0.5-0.5h23.572c0.276,0,0.5-0.224,0.5-0.5v-16
			c0-0.276-0.224-0.5-0.5-0.5h-30c-0.276,0-0.5,0.224-0.5,0.5v4.952c0,0.276-0.224,0.5-0.5,0.5s-0.5-0.224-0.5-0.5V17.5
			c0-0.827,0.673-1.5,1.5-1.5h30c0.827,0,1.5,0.673,1.5,1.5v16C61.001,34.327,60.328,35,59.501,35z"/>
	</g>
	<g>
		<circle class="st5" cx="44.501" cy="25.5" r="6"/>
		<path class="st0" d="M44.5,32c-3.584,0-6.5-2.916-6.5-6.5s2.916-6.5,6.5-6.5s6.5,2.916,6.5,6.5S48.084,32,44.5,32z M44.5,20
			c-3.033,0-5.5,2.467-5.5,5.5s2.467,5.5,5.5,5.5s5.5-2.467,5.5-5.5S47.533,20,44.5,20z"/>
	</g>
	<g>
		<path class="st0" d="M45.25,28.5H42.5c-0.276,0-0.5-0.224-0.5-0.5s0.224-0.5,0.5-0.5h2.75c0.414,0,0.75-0.336,0.75-0.75
			S45.664,26,45.25,26h-1.5C42.786,26,42,25.215,42,24.25s0.785-1.75,1.75-1.75H46c0.276,0,0.5,0.224,0.5,0.5s-0.224,0.5-0.5,0.5
			h-2.25c-0.414,0-0.75,0.336-0.75,0.75S43.337,25,43.75,25h1.5c0.965,0,1.75,0.785,1.75,1.75S46.215,28.5,45.25,28.5z"/>
	</g>
	<g>
		<path class="st0" d="M44.5,23.5c-0.276,0-0.5-0.224-0.5-0.5v-1.5c0-0.276,0.224-0.5,0.5-0.5s0.5,0.224,0.5,0.5V23
			C45,23.277,44.777,23.5,44.5,23.5z"/>
	</g>
	<g>
		<path class="st0" d="M44.5,30c-0.276,0-0.5-0.224-0.5-0.5V28c0-0.276,0.224-0.5,0.5-0.5S45,27.724,45,28v1.5
			C45,29.777,44.777,30,44.5,30z"/>
	</g>
	<g>
		<path class="st0" d="M16.501,24.141C16.5,24.141,16.5,24.141,16.501,24.141c-1.779,0-3.43-0.883-4.416-2.363
			c-0.055-0.082-0.084-0.179-0.084-0.277v-1.76c0-0.165,0.082-0.32,0.218-0.413c0.136-0.094,0.312-0.114,0.464-0.052
			c2.459,0.963,5.176,0.964,7.636,0c0.154-0.06,0.328-0.041,0.464,0.053c0.137,0.093,0.218,0.248,0.218,0.413v1.76
			c0,0.099-0.029,0.195-0.084,0.277C19.93,23.257,18.279,24.141,16.501,24.141z M13.001,21.344c0.809,1.128,2.106,1.796,3.5,1.796
			c1.394,0,2.691-0.669,3.5-1.796l0-0.896c-2.274,0.732-4.728,0.732-7,0V21.344z"/>
	</g>
	<g>
		<path class="st0" d="M26.5,49h-15c-0.276,0-0.5-0.224-0.5-0.5s0.224-0.5,0.5-0.5H26V34.5c0-0.276,0.224-0.5,0.5-0.5h7
			c0.276,0,0.5,0.224,0.5,0.5S33.777,35,33.5,35H27v13.5C27,48.776,26.777,49,26.5,49z"/>
	</g>
	<g>
		<path class="st0" d="M6.501,47c-0.276,0-0.5-0.224-0.5-0.5V35h-5.5c-0.276,0-0.5-0.224-0.5-0.5s0.224-0.5,0.5-0.5h6
			c0.276,0,0.5,0.224,0.5,0.5v12C7.001,46.776,6.777,47,6.501,47z"/>
	</g>
	<g>
		<path class="st0" d="M16.5,15.998c-1.408,0-2.816-0.536-3.889-1.608c-0.195-0.195-0.195-0.512,0-0.707s0.512-0.195,0.707,0
			c1.754,1.755,4.608,1.755,6.364,0c0.195-0.195,0.512-0.195,0.707,0s0.195,0.512,0,0.707C19.317,15.461,17.909,15.998,16.5,15.998z
			"/>
	</g>
	<g>
		<path class="st3" d="M40.339,63.5v-9c0-1.93-1.57-3.5-3.5-3.5s-3.5,1.57-3.5,3.5h-3c0-3.584,2.916-6.5,6.5-6.5s6.5,2.916,6.5,6.5
			v9"/>
		<path class="st0" d="M43.339,64c-0.276,0-0.5-0.224-0.5-0.5v-9c0-3.309-2.691-6-6-6c-3.14,0-5.725,2.425-5.979,5.5h2.011
			c0.247-1.97,1.933-3.5,3.969-3.5c2.206,0,4,1.794,4,4v9c0,0.276-0.224,0.5-0.5,0.5s-0.5-0.224-0.5-0.5v-9c0-1.654-1.346-3-3-3
			s-3,1.346-3,3c0,0.276-0.224,0.5-0.5,0.5h-3c-0.276,0-0.5-0.224-0.5-0.5c0-3.86,3.14-7,7-7s7,3.14,7,7v9
			C43.839,63.776,43.616,64,43.339,64z"/>
	</g>
	<g>
		<path class="st0" d="M6.501,56.5h-5c-0.827,0-1.5-0.673-1.5-1.5V32.308c0-4.827,3.271-9.016,7.953-10.186l4.426-1.106
			c0.204-0.052,0.419,0.032,0.537,0.208c0.801,1.201,2.14,1.918,3.583,1.918c1.443,0,2.784-0.717,3.584-1.918
			c0.125-0.188,0.359-0.269,0.574-0.197l4.725,1.575c2.853,0.95,5.164,3.083,6.341,5.85l7.479,17.576
			c0.108,0.254-0.01,0.548-0.264,0.656c-0.254,0.107-0.547-0.009-0.656-0.264l-7.479-17.576c-1.065-2.504-3.157-4.433-5.738-5.293
			l-4.376-1.459c-1.002,1.291-2.542,2.051-4.19,2.051c0,0,0,0,0,0c-1.659,0-3.207-0.769-4.208-2.074l-4.096,1.024
			C3.96,24.15,1.001,27.94,1.001,32.308V55c0,0.276,0.224,0.5,0.5,0.5h5c0.276,0,0.5-0.224,0.5-0.5v-4c0-0.276,0.224-0.5,0.5-0.5h1
			c0.276,0,0.5-0.224,0.5-0.5v-0.5c0-0.276-0.224-0.5-0.5-0.5h-1c-0.276,0-0.5-0.224-0.5-0.5s0.224-0.5,0.5-0.5h1
			c0.827,0,1.5,0.673,1.5,1.5V50c0,0.827-0.673,1.5-1.5,1.5h-0.5V55C8.001,55.827,7.328,56.5,6.501,56.5z"/>
	</g>
	<g>
		<path class="st0" d="M32.223,47.874c-0.192,0-0.375-0.11-0.458-0.297l-5.721-12.874c-0.112-0.252,0.001-0.548,0.254-0.66
			c0.253-0.113,0.547,0.001,0.66,0.254l5.721,12.874c0.112,0.252-0.001,0.548-0.254,0.66C32.359,47.86,32.29,47.874,32.223,47.874z"
			/>
	</g>
	<g>
		<path class="st0" d="M26.501,64c-0.276,0-0.5-0.224-0.5-0.5v-15c0-0.276,0.224-0.5,0.5-0.5s0.5,0.224,0.5,0.5v15
			C27.001,63.776,26.777,64,26.501,64z"/>
	</g>
	<g>
		<path class="st0" d="M62.501,32c-0.276,0-0.5-0.224-0.5-0.5s0.224-0.5,0.5-0.5c0.276,0,0.5-0.224,0.5-0.5v-16
			c0-0.276-0.224-0.5-0.5-0.5h-30c-0.276,0-0.5,0.224-0.5,0.5c0,0.276-0.224,0.5-0.5,0.5s-0.5-0.224-0.5-0.5
			c0-0.827,0.673-1.5,1.5-1.5h30c0.827,0,1.5,0.673,1.5,1.5v16C64.001,31.327,63.328,32,62.501,32z"/>
	</g>
	<g>
		<path class="st0" d="M54.186,32H35.653c-0.276,0-0.5-0.224-0.5-0.5s0.224-0.5,0.5-0.5h18.225c0.797-1.505,2.066-2.685,3.623-3.366
			v-4.27c-1.557-0.682-2.826-1.86-3.623-3.365H35.124c-0.851,1.607-2.24,2.843-3.943,3.497c-0.258,0.098-0.547-0.03-0.646-0.288
			s0.03-0.547,0.288-0.646c1.562-0.6,2.82-1.765,3.542-3.279C34.447,19.111,34.623,19,34.815,19h19.371
			c0.193,0,0.368,0.111,0.451,0.285c0.723,1.514,1.98,2.678,3.543,3.278c0.193,0.074,0.32,0.26,0.32,0.467v4.939
			c0,0.207-0.127,0.393-0.321,0.467c-1.562,0.601-2.82,1.765-3.543,3.279C54.554,31.889,54.378,32,54.186,32z"/>
	</g>
	<g>
		<path class="st0" d="M16.501,31.141c-0.276,0-0.5-0.224-0.5-0.5v-7c0-0.276,0.224-0.5,0.5-0.5s0.5,0.224,0.5,0.5v7
			C17.001,30.917,16.777,31.141,16.501,31.141z"/>
	</g>
	<g>
		<path class="st0" d="M6.501,64c-0.276,0-0.5-0.224-0.5-0.5V58c0-0.276,0.224-0.5,0.5-0.5s0.5,0.224,0.5,0.5v5.5
			C7.001,63.776,6.777,64,6.501,64z"/>
	</g>
	<g>
		<path class="st0" d="M16.501,64c-0.276,0-0.5-0.224-0.5-0.5V57c0-0.276,0.224-0.5,0.5-0.5s0.5,0.224,0.5,0.5v6.5
			C17.001,63.776,16.777,64,16.501,64z"/>
	</g>
	<g>
		<path class="st0" d="M16.501,21c-4.659,0-8.733-3.063-10.053-7.5c-1.63-0.028-2.947-1.363-2.947-3s1.317-2.971,2.947-3
			C7.767,3.063,11.842,0,16.501,0c4.659,0,8.733,3.063,10.052,7.5c1.63,0.028,2.948,1.363,2.948,3s-1.317,2.972-2.948,3
			C25.234,17.937,21.16,21,16.501,21z M6.759,12.477c0.235,0,0.489,0.145,0.546,0.368C8.376,17.058,12.158,20,16.501,20
			s8.124-2.942,9.196-7.155c0.062-0.246,0.302-0.404,0.548-0.373c0.132,0.019,0.193,0.028,0.256,0.028c1.103,0,2-0.897,2-2
			s-0.897-2-2-2c-0.063,0-0.124,0.01-0.184,0.019c-0.252,0.032-0.557-0.116-0.62-0.363C24.625,3.942,20.844,1,16.501,1
			S8.376,3.942,7.305,8.155C7.242,8.4,7.002,8.555,6.756,8.528C6.624,8.51,6.564,8.5,6.501,8.5c-1.103,0-2,0.897-2,2s0.897,2,2,2
			c0.063,0,0.123-0.01,0.184-0.019C6.709,12.478,6.734,12.477,6.759,12.477z"/>
	</g>
	<g>
		<path class="st0" d="M16.5,15.998c-1.408,0-2.816-0.536-3.889-1.608c-0.195-0.195-0.195-0.512,0-0.707s0.512-0.195,0.707,0
			c1.754,1.755,4.608,1.755,6.364,0c0.195-0.195,0.512-0.195,0.707,0s0.195,0.512,0,0.707C19.317,15.461,17.909,15.998,16.5,15.998z
			"/>
	</g>
	<g>
		<path class="st2" d="M9.001,3.032h-0.5c-1.381,0-2.5,1.119-2.5,2.5v3.5h0.5c1.381,0,2.5-1.119,2.5-2.5V3.032z"/>
		<path class="st0" d="M6.5,9.532h-0.5c-0.276,0-0.5-0.224-0.5-0.5v-3.5c0-1.654,1.346-3,3-3h0.5c0.133,0,0.26,0.053,0.354,0.146
			S9.501,2.9,9.501,3.032l0,3.5C9.5,8.187,8.155,9.532,6.5,9.532z M8.501,3.532c-1.103,0-2,0.897-2,2v3c1.103,0,2-0.897,2-2
			L8.501,3.532z"/>
	</g>
	<g>
		<path class="st2" d="M24.501,3.032h-0.5v3.5c0,1.381,1.119,2.5,2.5,2.5h0.5v-3.5C27.001,4.151,25.881,3.032,24.501,3.032z"/>
		<path class="st0" d="M27,9.532h-0.5c-1.654,0-3-1.346-3-3v-3.5c0-0.276,0.224-0.5,0.5-0.5h0.5c1.654,0,3,1.346,3,3v3.5
			C27.5,9.309,27.277,9.532,27,9.532z M24.501,3.532v3c0,1.103,0.897,2,2,2v-3C26.5,4.43,25.604,3.532,24.501,3.532z"/>
	</g>
	<g>
		<path class="st0" d="M14,11.5c-1.103,0-2-0.897-2-2s0.897-2,2-2s2,0.897,2,2S15.104,11.5,14,11.5z M14,8.5c-0.551,0-1,0.449-1,1
			s0.449,1,1,1s1-0.449,1-1S14.552,8.5,14,8.5z"/>
	</g>
	<g>
		<path class="st0" d="M19,11.5c-1.103,0-2-0.897-2-2s0.897-2,2-2s2,0.897,2,2S20.104,11.5,19,11.5z M19,8.5c-0.551,0-1,0.449-1,1
			s0.449,1,1,1s1-0.449,1-1S19.552,8.5,19,8.5z"/>
	</g>
	<g>
		<path class="st0" d="M17.5,10h-2C15.224,10,15,9.776,15,9.5S15.224,9,15.5,9h2C17.777,9,18,9.224,18,9.5S17.777,10,17.5,10z"/>
	</g>
	<g>
		<path class="st0" d="M45.501,38h-1c-0.276,0-0.5-0.224-0.5-0.5s0.224-0.5,0.5-0.5h1c0.276,0,0.5,0.224,0.5,0.5
			S45.777,38,45.501,38z"/>
	</g>
	<g>
		<path class="st0" d="M58.501,38h-11c-0.276,0-0.5-0.224-0.5-0.5s0.224-0.5,0.5-0.5h11c0.276,0,0.5,0.224,0.5,0.5
			S58.777,38,58.501,38z"/>
	</g>
	<g>
		<path class="st0" d="M47.501,11h-1c-0.276,0-0.5-0.224-0.5-0.5s0.224-0.5,0.5-0.5h1c0.276,0,0.5,0.224,0.5,0.5
			S47.777,11,47.501,11z"/>
	</g>
	<g>
		<path class="st0" d="M44.501,11h-11c-0.276,0-0.5-0.224-0.5-0.5s0.224-0.5,0.5-0.5h11c0.276,0,0.5,0.224,0.5,0.5
			S44.777,11,44.501,11z"/>
	</g>
</g>
</svg>
