<?xml version="1.0" encoding="utf-8"?>
<!-- Generator: Adobe Illustrator 21.1.0, SVG Export Plug-In . SVG Version: 6.00 Build 0)  -->
<svg version="1.1" id="Icon_Set" xmlns="http://www.w3.org/2000/svg" xmlns:xlink="http://www.w3.org/1999/xlink" x="0px" y="0px"
	 viewBox="0 0 64 64" style="enable-background:new 0 0 64 64;" xml:space="preserve">
<style type="text/css">
	.st0{fill:#263238;}
	.st1{fill:#40C4FF;}
	.st2{fill:#FFD740;}
	.st3{fill:#FF5252;}
	.st4{fill:#4DB6AC;}
	.st5{fill:#FFFFFF;}
	.st6{fill:#4FC3F7;}
</style>
<g id="Revenue">
	<g>
		<path class="st0" d="M61.75,56.5h-1c-0.276,0-0.5-0.224-0.5-0.5s0.224-0.5,0.5-0.5h1c0.276,0,0.5,0.224,0.5,0.5
			S62.026,56.5,61.75,56.5z"/>
	</g>
	<g>
		<path class="st0" d="M58.75,56.5h-11c-0.276,0-0.5-0.224-0.5-0.5s0.224-0.5,0.5-0.5h11c0.276,0,0.5,0.224,0.5,0.5
			S59.026,56.5,58.75,56.5z"/>
	</g>
	<g>
		<path class="st0" d="M56.75,59.5h-13c-0.276,0-0.5-0.224-0.5-0.5s0.224-0.5,0.5-0.5h13c0.276,0,0.5,0.224,0.5,0.5
			S57.026,59.5,56.75,59.5z"/>
	</g>
	<g>
		<path class="st1" d="M21.75,59.5h-17c-1.381,0-2.5-1.119-2.5-2.5V44c0-1.381,1.119-2.5,2.5-2.5h17c1.381,0,2.5,1.119,2.5,2.5v13
			C24.25,58.381,23.13,59.5,21.75,59.5z"/>
		<path class="st0" d="M21.75,60h-17c-1.654,0-3-1.346-3-3V44c0-1.654,1.346-3,3-3h17c1.654,0,3,1.346,3,3v13
			C24.75,58.654,23.404,60,21.75,60z M4.75,42c-1.103,0-2,0.897-2,2v13c0,1.103,0.897,2,2,2h17c1.103,0,2-0.897,2-2V44
			c0-1.103-0.897-2-2-2H4.75z"/>
	</g>
	<g>
		<circle class="st2" cx="13.25" cy="14.5" r="8"/>
		<path class="st0" d="M13.25,23c-4.687,0-8.5-3.813-8.5-8.5S8.563,6,13.25,6s8.5,3.813,8.5,8.5S17.937,23,13.25,23z M13.25,7
			c-4.136,0-7.5,3.364-7.5,7.5s3.364,7.5,7.5,7.5s7.5-3.364,7.5-7.5S17.386,7,13.25,7z"/>
	</g>
	<g>
		<path class="st0" d="M13.25,12.5c-0.276,0-0.5-0.224-0.5-0.5v-1.5c0-0.276,0.224-0.5,0.5-0.5s0.5,0.224,0.5,0.5V12
			C13.75,12.276,13.526,12.5,13.25,12.5z"/>
	</g>
	<g>
		<path class="st0" d="M13.25,19c-0.276,0-0.5-0.224-0.5-0.5V17c0-0.276,0.224-0.5,0.5-0.5s0.5,0.224,0.5,0.5v1.5
			C13.75,18.776,13.526,19,13.25,19z"/>
	</g>
	<g>
		<path class="st0" d="M14,17.5h-2.75c-0.276,0-0.5-0.224-0.5-0.5s0.224-0.5,0.5-0.5H14c0.414,0,0.75-0.337,0.75-0.75
			S14.414,15,14,15h-1.5c-0.965,0-1.75-0.785-1.75-1.75s0.785-1.75,1.75-1.75h2.25c0.276,0,0.5,0.224,0.5,0.5s-0.224,0.5-0.5,0.5
			H12.5c-0.413,0-0.75,0.337-0.75,0.75S12.086,14,12.5,14H14c0.965,0,1.75,0.785,1.75,1.75S14.965,17.5,14,17.5z"/>
	</g>
	<g>
		<path class="st0" d="M57,16L57,16c-0.276,0-0.5-0.224-0.5-0.5l0-4c0-0.276,0.224-0.5,0.5-0.5l0,0c0.276,0,0.5,0.224,0.5,0.5l0,4
			C57.5,15.776,57.276,16,57,16z"/>
	</g>
	<g>
		<path class="st0" d="M59,14h-4c-0.276,0-0.5-0.224-0.5-0.5S54.724,13,55,13h4c0.276,0,0.5,0.224,0.5,0.5S59.276,14,59,14z"/>
	</g>
	<g>
		<path class="st0" d="M48,9c-0.276,0-0.5-0.224-0.5-0.5v-4C47.5,4.224,47.724,4,48,4s0.5,0.224,0.5,0.5v4C48.5,8.776,48.277,9,48,9
			z"/>
	</g>
	<g>
		<path class="st0" d="M50,7h-4c-0.276,0-0.5-0.224-0.5-0.5S45.724,6,46,6h4c0.276,0,0.5,0.224,0.5,0.5S50.277,7,50,7z"/>
	</g>
	<g>
		<path class="st3" d="M48.416,43.915c0.398,0.398,1.057,0.4,1.435-0.018C53.051,40.351,55,35.653,55,30.5
			c0-10.7-8.403-19.438-18.97-19.974c-0.563-0.029-1.03,0.44-1.03,1.003V30.5L48.416,43.915z"/>
		<path class="st0" d="M49.134,44.713c-0.4,0-0.789-0.161-1.072-0.444L34.646,30.854C34.553,30.76,34.5,30.633,34.5,30.5V11.529
			c0-0.413,0.172-0.813,0.472-1.099c0.297-0.28,0.685-0.426,1.084-0.403C46.959,10.58,55.5,19.573,55.5,30.5
			c0,5.085-1.875,9.962-5.279,13.732c-0.269,0.299-0.642,0.469-1.049,0.479C49.159,44.712,49.146,44.713,49.134,44.713z
			 M35.5,30.293l13.269,13.269l0,0c0.1,0.1,0.246,0.163,0.377,0.15c0.13-0.003,0.249-0.057,0.333-0.149
			C52.717,39.976,54.5,35.337,54.5,30.5c0-10.394-8.124-18.948-18.495-19.475c-0.123-0.008-0.248,0.04-0.344,0.131
			c-0.102,0.097-0.161,0.232-0.161,0.373V30.293z"/>
	</g>
	<g>
		<path class="st0" d="M32,52.5c-1.988,0-3.971-0.293-5.894-0.87c-0.265-0.079-0.415-0.357-0.335-0.622s0.357-0.417,0.623-0.335
			C28.224,51.222,30.11,51.5,32,51.5c4.836,0,9.476-1.783,13.062-5.021c0.093-0.084,0.146-0.202,0.15-0.333
			c0.004-0.141-0.051-0.277-0.15-0.377L31.939,32.646C31.66,32.367,31.5,31.98,31.5,31.586V13.03c0-0.141-0.059-0.277-0.161-0.374
			c-0.096-0.091-0.217-0.138-0.343-0.131c-2.617,0.137-5.157,0.8-7.549,1.972c-0.248,0.119-0.547,0.02-0.669-0.229
			c-0.121-0.248-0.019-0.547,0.229-0.669c2.513-1.23,5.184-1.928,7.937-2.071c0.393-0.027,0.787,0.122,1.083,0.403
			c0.3,0.285,0.473,0.686,0.473,1.1v18.556c0,0.132,0.053,0.261,0.146,0.354l13.123,13.122c0.292,0.292,0.454,0.696,0.443,1.109
			c-0.011,0.407-0.181,0.78-0.48,1.05C41.961,50.625,37.084,52.5,32,52.5z"/>
	</g>
	<g>
		<path class="st0" d="M13.468,40c-0.197,0-0.385-0.118-0.463-0.312C12.006,37.224,11.5,34.638,11.5,32
			c0-2.642,0.507-5.231,1.508-7.698c0.104-0.257,0.397-0.382,0.651-0.275c0.256,0.104,0.379,0.395,0.275,0.65
			C12.983,27.024,12.5,29.488,12.5,32c0,2.508,0.481,4.969,1.431,7.312c0.104,0.256-0.02,0.547-0.275,0.651
			C13.594,39.988,13.53,40,13.468,40z"/>
	</g>
	<g>
		<path class="st0" d="M9.75,49.5c-1.378,0-2.5-1.121-2.5-2.5s1.122-2.5,2.5-2.5s2.5,1.121,2.5,2.5S11.128,49.5,9.75,49.5z
			 M9.75,45.5c-0.827,0-1.5,0.673-1.5,1.5s0.673,1.5,1.5,1.5s1.5-0.673,1.5-1.5S10.577,45.5,9.75,45.5z"/>
	</g>
	<g>
		<path class="st0" d="M16.75,56.5c-1.378,0-2.5-1.121-2.5-2.5s1.122-2.5,2.5-2.5s2.5,1.121,2.5,2.5S18.128,56.5,16.75,56.5z
			 M16.75,52.5c-0.827,0-1.5,0.673-1.5,1.5s0.673,1.5,1.5,1.5s1.5-0.673,1.5-1.5S17.577,52.5,16.75,52.5z"/>
	</g>
	<g>
		<line class="st5" x1="18.25" y1="45.5" x2="8.25" y2="55.5"/>
		<path class="st0" d="M8.25,56c-0.128,0-0.256-0.049-0.354-0.146c-0.195-0.195-0.195-0.512,0-0.707l10-10
			c0.195-0.195,0.512-0.195,0.707,0s0.195,0.512,0,0.707l-10,10C8.506,55.951,8.378,56,8.25,56z"/>
	</g>
</g>
</svg>
