<?xml version="1.0" encoding="utf-8"?>
<!-- Generator: Adobe Illustrator 21.1.0, SVG Export Plug-In . SVG Version: 6.00 Build 0)  -->
<svg version="1.1" id="Icon_Set" xmlns="http://www.w3.org/2000/svg" xmlns:xlink="http://www.w3.org/1999/xlink" x="0px" y="0px"
	 viewBox="0 0 64 64" style="enable-background:new 0 0 64 64;" xml:space="preserve">
<style type="text/css">
	.st0{fill:#263238;}
	.st1{fill:#40C4FF;}
	.st2{fill:#FFD740;}
	.st3{fill:#FF5252;}
	.st4{fill:#4DB6AC;}
	.st5{fill:#FFFFFF;}
	.st6{fill:#4FC3F7;}
</style>
<g id="Robo_Advisor">
	<g>
		<path class="st1" d="M48.251,52.5h-7.5c-1.381,0-2.5-1.119-2.5-2.5V39c0-1.381,1.119-2.5,2.5-2.5h7.5V52.5z"/>
		<path class="st0" d="M48.251,53h-7.5c-1.654,0-3-1.346-3-3V39c0-1.654,1.346-3,3-3h7.5c0.276,0,0.5,0.224,0.5,0.5v16
			C48.751,52.776,48.527,53,48.251,53z M40.751,37c-1.103,0-2,0.897-2,2v11c0,1.103,0.897,2,2,2h7V37H40.751z"/>
	</g>
	<g>
		<path class="st0" d="M42.751,26h-21c-1.654,0-3-1.346-3-3V8c0-1.654,1.346-3,3-3h21c1.654,0,3,1.346,3,3v15
			C45.751,24.654,44.405,26,42.751,26z M21.751,6c-1.103,0-2,0.897-2,2v15c0,1.103,0.897,2,2,2h21c1.103,0,2-0.897,2-2V8
			c0-1.103-0.897-2-2-2H21.751z"/>
	</g>
	<g>
		<path class="st0" d="M19.251,20c-2.481,0-4.5-2.019-4.5-4.5s2.019-4.5,4.5-4.5c0.276,0,0.5,0.224,0.5,0.5v8
			C19.751,19.776,19.527,20,19.251,20z M18.751,12.035c-1.694,0.244-3,1.705-3,3.465s1.306,3.221,3,3.465V12.035z"/>
	</g>
	<g>
		<path class="st0" d="M45.251,20c-0.276,0-0.5-0.224-0.5-0.5v-8c0-0.276,0.224-0.5,0.5-0.5c2.481,0,4.5,2.019,4.5,4.5
			S47.732,20,45.251,20z M45.751,12.035v6.93c1.694-0.244,3-1.705,3-3.465S47.445,12.279,45.751,12.035z"/>
	</g>
	<g>
		<path class="st0" d="M45.751,59h-27c-1.654,0-3-1.346-3-3V33c0-1.654,1.346-3,3-3h27c1.654,0,3,1.346,3,3v23
			C48.751,57.654,47.405,59,45.751,59z M18.751,31c-1.103,0-2,0.897-2,2v23c0,1.103,0.897,2,2,2h27c1.103,0,2-0.897,2-2V33
			c0-1.103-0.897-2-2-2H18.751z"/>
	</g>
	<g>
		<path class="st0" d="M24.751,29c-0.276,0-0.5-0.224-0.5-0.5v-3c0-0.276,0.224-0.5,0.5-0.5s0.5,0.224,0.5,0.5v3
			C25.251,28.776,25.027,29,24.751,29z"/>
	</g>
	<g>
		<path class="st0" d="M39.751,29c-0.276,0-0.5-0.224-0.5-0.5v-3c0-0.276,0.224-0.5,0.5-0.5s0.5,0.224,0.5,0.5v3
			C40.251,28.776,40.027,29,39.751,29z"/>
	</g>
	<g>
		<path class="st0" d="M13.251,55h-6c-0.276,0-0.5-0.224-0.5-0.5V34.625c0-1.93,1.57-3.5,3.5-3.5s3.5,1.57,3.5,3.5V54.5
			C13.751,54.776,13.527,55,13.251,55z M7.751,54h5V34.625c0-1.379-1.122-2.5-2.5-2.5s-2.5,1.121-2.5,2.5V54z"/>
	</g>
	<g>
		<circle class="st2" cx="27.251" cy="44.5" r="6"/>
		<path class="st0" d="M27.251,51c-3.584,0-6.5-2.916-6.5-6.5s2.916-6.5,6.5-6.5s6.5,2.916,6.5,6.5S30.835,51,27.251,51z M27.251,39
			c-3.033,0-5.5,2.468-5.5,5.5s2.467,5.5,5.5,5.5s5.5-2.468,5.5-5.5S30.284,39,27.251,39z"/>
	</g>
	<g>
		<path class="st0" d="M28.001,47.5h-2.75c-0.276,0-0.5-0.224-0.5-0.5s0.224-0.5,0.5-0.5h2.75c0.414,0,0.75-0.337,0.75-0.75
			S28.415,45,28.001,45h-1.5c-0.965,0-1.75-0.785-1.75-1.75s0.785-1.75,1.75-1.75h2.25c0.276,0,0.5,0.224,0.5,0.5
			s-0.224,0.5-0.5,0.5h-2.25c-0.414,0-0.75,0.337-0.75,0.75S26.087,44,26.501,44h1.5c0.965,0,1.75,0.785,1.75,1.75
			S28.966,47.5,28.001,47.5z"/>
	</g>
	<g>
		<path class="st0" d="M27.251,42.5c-0.276,0-0.5-0.224-0.5-0.5v-1.5c0-0.276,0.224-0.5,0.5-0.5s0.5,0.224,0.5,0.5V42
			C27.751,42.276,27.527,42.5,27.251,42.5z"/>
	</g>
	<g>
		<path class="st0" d="M27.251,49c-0.276,0-0.5-0.224-0.5-0.5V47c0-0.276,0.224-0.5,0.5-0.5s0.5,0.224,0.5,0.5v1.5
			C27.751,48.776,27.527,49,27.251,49z"/>
	</g>
	<g>
		<path class="st0" d="M26.752,18c-1.378,0-2.5-1.121-2.5-2.5s1.122-2.5,2.5-2.5s2.5,1.121,2.5,2.5S28.13,18,26.752,18z M26.752,14
			c-0.827,0-1.5,0.673-1.5,1.5s0.673,1.5,1.5,1.5s1.5-0.673,1.5-1.5S27.579,14,26.752,14z"/>
	</g>
	<g>
		<path class="st0" d="M37.752,18c-1.379,0-2.5-1.121-2.5-2.5s1.121-2.5,2.5-2.5s2.5,1.121,2.5,2.5S39.131,18,37.752,18z M37.752,14
			c-0.827,0-1.5,0.673-1.5,1.5s0.673,1.5,1.5,1.5s1.5-0.673,1.5-1.5S38.579,14,37.752,14z"/>
	</g>
	<g>
		<path class="st0" d="M16.251,39.625h-3c-0.276,0-0.5-0.224-0.5-0.5v-5c0-0.276,0.224-0.5,0.5-0.5h3c0.276,0,0.5,0.224,0.5,0.5v5
			C16.751,39.401,16.527,39.625,16.251,39.625z M13.751,38.625h2v-4h-2V38.625z"/>
	</g>
	<g>
		<path class="st0" d="M57.251,55h-6c-0.276,0-0.5-0.224-0.5-0.5V34.625c0-1.93,1.57-3.5,3.5-3.5s3.5,1.57,3.5,3.5V54.5
			C57.751,54.776,57.527,55,57.251,55z M51.751,54h5V34.625c0-1.379-1.121-2.5-2.5-2.5s-2.5,1.121-2.5,2.5V54z"/>
	</g>
	<g>
		<path class="st0" d="M51.251,39.625h-3c-0.276,0-0.5-0.224-0.5-0.5v-5c0-0.276,0.224-0.5,0.5-0.5h3c0.276,0,0.5,0.224,0.5,0.5v5
			C51.751,39.401,51.527,39.625,51.251,39.625z M48.751,38.625h2v-4h-2V38.625z"/>
	</g>
	<g>
		<path class="st0" d="M45.251,42.5h-4c-0.276,0-0.5-0.224-0.5-0.5s0.224-0.5,0.5-0.5h4c0.276,0,0.5,0.224,0.5,0.5
			S45.527,42.5,45.251,42.5z"/>
	</g>
	<g>
		<path class="st0" d="M43.251,44.5c-0.276,0-0.5-0.224-0.5-0.5v-4c0-0.276,0.224-0.5,0.5-0.5s0.5,0.224,0.5,0.5v4
			C43.751,44.276,43.527,44.5,43.251,44.5z"/>
	</g>
	<g>
		<path class="st0" d="M45.251,49h-4c-0.276,0-0.5-0.224-0.5-0.5s0.224-0.5,0.5-0.5h4c0.276,0,0.5,0.224,0.5,0.5
			S45.527,49,45.251,49z"/>
	</g>
	<g>
		<path class="st0" d="M15.251,16h-2.5c-0.276,0-0.5-0.224-0.5-0.5v-10c0-0.276,0.224-0.5,0.5-0.5s0.5,0.224,0.5,0.5V15h2
			c0.276,0,0.5,0.224,0.5,0.5S15.527,16,15.251,16z"/>
	</g>
	<g>
		<path class="st0" d="M45.251,20c-0.276,0-0.5-0.224-0.5-0.5v-8c0-0.276,0.224-0.5,0.5-0.5c2.481,0,4.5,2.019,4.5,4.5
			S47.732,20,45.251,20z M45.751,12.035v6.93c1.694-0.244,3-1.705,3-3.465S47.445,12.279,45.751,12.035z"/>
	</g>
	<g>
		<path class="st0" d="M51.751,16h-2.5c-0.276,0-0.5-0.224-0.5-0.5s0.224-0.5,0.5-0.5h2V5.5c0-0.276,0.224-0.5,0.5-0.5
			s0.5,0.224,0.5,0.5v10C52.251,15.776,52.027,16,51.751,16z"/>
	</g>
	<g>
		<path class="st0" d="M61.751,25h-1c-0.276,0-0.5-0.224-0.5-0.5s0.224-0.5,0.5-0.5h1c0.276,0,0.5,0.224,0.5,0.5
			S62.027,25,61.751,25z"/>
	</g>
	<g>
		<path class="st0" d="M58.751,25h-8.5c-0.276,0-0.5-0.224-0.5-0.5s0.224-0.5,0.5-0.5h8.5c0.276,0,0.5,0.224,0.5,0.5
			S59.027,25,58.751,25z"/>
	</g>
	<g>
		<path class="st0" d="M3.251,25h-1c-0.276,0-0.5-0.224-0.5-0.5s0.224-0.5,0.5-0.5h1c0.276,0,0.5,0.224,0.5,0.5S3.527,25,3.251,25z"
			/>
	</g>
	<g>
		<path class="st0" d="M13.751,25h-8.5c-0.276,0-0.5-0.224-0.5-0.5s0.224-0.5,0.5-0.5h8.5c0.276,0,0.5,0.224,0.5,0.5
			S14.027,25,13.751,25z"/>
	</g>
</g>
</svg>
