<?xml version="1.0" encoding="utf-8"?>
<!-- Generator: Adobe Illustrator 21.1.0, SVG Export Plug-In . SVG Version: 6.00 Build 0)  -->
<svg version="1.1" id="Icon_Set" xmlns="http://www.w3.org/2000/svg" xmlns:xlink="http://www.w3.org/1999/xlink" x="0px" y="0px"
	 viewBox="0 0 64 64" style="enable-background:new 0 0 64 64;" xml:space="preserve">
<style type="text/css">
	.st0{fill:#263238;}
	.st1{fill:#40C4FF;}
	.st2{fill:#FFD740;}
	.st3{fill:#FF5252;}
	.st4{fill:#4DB6AC;}
	.st5{fill:#FFFFFF;}
	.st6{fill:#4FC3F7;}
</style>
<g id="SAAS">
	<g>
		<path class="st0" d="M51,46h-1c-0.276,0-0.5-0.224-0.5-0.5S49.724,45,50,45h1c6.617,0,12-5.383,12-12s-5.383-12-12-12h-4
			c-0.133,0-0.26-0.053-0.354-0.146S46.5,20.633,46.5,20.5c0-3.873-1.508-7.514-4.247-10.253S35.874,6,32,6
			c-3.874,0-7.515,1.508-10.254,4.247S17.5,16.627,17.5,20.5c0,0.133-0.053,0.26-0.146,0.354S17.133,21,17,21h-4
			C6.383,21,1,26.383,1,33s5.383,12,12,12h1c0.276,0,0.5,0.224,0.5,0.5S14.276,46,14,46h-1C5.832,46,0,40.168,0,33s5.832-13,13-13
			h3.508c0.124-3.953,1.722-7.65,4.532-10.46C23.967,6.612,27.859,5,32,5c4.141,0,8.033,1.612,10.961,4.54
			c2.81,2.809,4.408,6.507,4.532,10.46H51c7.168,0,13,5.832,13,13S58.168,46,51,46z"/>
	</g>
	<g>
		<path class="st0" d="M44,21c-0.276,0-0.5-0.224-0.5-0.5c0-3.072-1.196-5.959-3.368-8.132C37.96,10.196,35.072,9,32,9
			c-0.276,0-0.5-0.224-0.5-0.5S31.724,8,32,8c3.339,0,6.478,1.3,8.839,3.661s3.661,5.5,3.661,8.839C44.5,20.776,44.276,21,44,21z"/>
	</g>
	<g>
		<path class="st2" d="M22.557,28.057l-7.734,7.734c-0.63,0.63-0.184,1.707,0.707,1.707h2.428c0.552,0,1,0.448,1,1V50.5
			c0,0.552,0.448,1,1,1h6.611c0.552,0,1-0.448,1-1V38.497c0-0.552,0.448-1,1-1h2.428c0.891,0,1.337-1.077,0.707-1.707l-7.734-7.734
			C23.581,27.666,22.948,27.666,22.557,28.057z"/>
		<path class="st0" d="M26.57,52h-6.611c-0.827,0-1.5-0.673-1.5-1.5V38.498c0-0.276-0.224-0.5-0.5-0.5h-2.428
			c-0.618,0-1.149-0.355-1.386-0.926c-0.237-0.571-0.112-1.198,0.325-1.635l7.733-7.734l0,0c0.585-0.585,1.537-0.584,2.122,0
			l7.733,7.734c0.437,0.437,0.562,1.063,0.325,1.635c-0.237,0.571-0.768,0.926-1.386,0.926H28.57c-0.276,0-0.5,0.224-0.5,0.5V50.5
			C28.07,51.327,27.397,52,26.57,52z M22.911,28.41l-7.733,7.734c-0.219,0.219-0.138,0.473-0.108,0.545s0.152,0.309,0.462,0.309
			h2.428c0.827,0,1.5,0.673,1.5,1.5V50.5c0,0.276,0.224,0.5,0.5,0.5h6.611c0.276,0,0.5-0.224,0.5-0.5V38.498
			c0-0.827,0.673-1.5,1.5-1.5h2.428c0.31,0,0.432-0.236,0.462-0.309c0.03-0.072,0.111-0.326-0.108-0.545l-7.733-7.734
			C23.422,28.214,23.105,28.215,22.911,28.41L22.911,28.41z"/>
	</g>
	<g>
		<path class="st1" d="M41.443,58.207l7.734-7.734c0.63-0.63,0.184-1.707-0.707-1.707h-2.428c-0.552,0-1-0.448-1-1V35.764
			c0-0.552-0.448-1-1-1H37.43c-0.552,0-1,0.448-1,1v12.003c0,0.552-0.448,1-1,1h-2.428c-0.891,0-1.337,1.077-0.707,1.707
			l7.734,7.734C40.419,58.598,41.052,58.598,41.443,58.207z"/>
		<path class="st0" d="M40.736,59c-0.384,0-0.769-0.146-1.061-0.439l-7.733-7.733c-0.437-0.437-0.562-1.063-0.325-1.635
			c0.237-0.571,0.768-0.926,1.386-0.926h2.428c0.276,0,0.5-0.224,0.5-0.5V35.764c0-0.827,0.673-1.5,1.5-1.5h6.611
			c0.827,0,1.5,0.673,1.5,1.5v12.003c0,0.276,0.224,0.5,0.5,0.5h2.428c0.618,0,1.149,0.355,1.386,0.926
			c0.237,0.571,0.112,1.198-0.325,1.635l-7.733,7.733C41.504,58.853,41.12,59,40.736,59z M33.002,49.267
			c-0.31,0-0.432,0.236-0.462,0.309c-0.03,0.072-0.111,0.326,0.108,0.545l7.733,7.733c0.195,0.195,0.512,0.196,0.708,0l7.733-7.733
			c0.219-0.219,0.138-0.473,0.108-0.545s-0.152-0.309-0.462-0.309h-2.428c-0.827,0-1.5-0.673-1.5-1.5V35.764
			c0-0.276-0.224-0.5-0.5-0.5H37.43c-0.276,0-0.5,0.224-0.5,0.5v12.003c0,0.827-0.673,1.5-1.5,1.5H33.002z"/>
	</g>
	<g>
		<path class="st0" d="M6,58.798H5c-0.276,0-0.5-0.224-0.5-0.5s0.224-0.5,0.5-0.5h1c0.276,0,0.5,0.224,0.5,0.5
			S6.276,58.798,6,58.798z"/>
	</g>
	<g>
		<path class="st0" d="M19,58.798H8c-0.276,0-0.5-0.224-0.5-0.5s0.224-0.5,0.5-0.5h11c0.276,0,0.5,0.224,0.5,0.5
			S19.276,58.798,19,58.798z"/>
	</g>
	<g>
		<path class="st0" d="M63.5,6.798h-1c-0.276,0-0.5-0.224-0.5-0.5s0.224-0.5,0.5-0.5h1c0.276,0,0.5,0.224,0.5,0.5
			S63.776,6.798,63.5,6.798z"/>
	</g>
	<g>
		<path class="st0" d="M60.5,6.798h-11c-0.276,0-0.5-0.224-0.5-0.5s0.224-0.5,0.5-0.5h11c0.276,0,0.5,0.224,0.5,0.5
			S60.776,6.798,60.5,6.798z"/>
	</g>
</g>
</svg>
