<?xml version="1.0" encoding="utf-8"?>
<!-- Generator: Adobe Illustrator 21.1.0, SVG Export Plug-In . SVG Version: 6.00 Build 0)  -->
<svg version="1.1" id="Icon_Set" xmlns="http://www.w3.org/2000/svg" xmlns:xlink="http://www.w3.org/1999/xlink" x="0px" y="0px"
	 viewBox="0 0 64 64" style="enable-background:new 0 0 64 64;" xml:space="preserve">
<style type="text/css">
	.st0{fill:#263238;}
	.st1{fill:#40C4FF;}
	.st2{fill:#FFD740;}
	.st3{fill:#FF5252;}
	.st4{fill:#4DB6AC;}
	.st5{fill:#FFFFFF;}
	.st6{fill:#4FC3F7;}
</style>
<g id="Safe_Box">
	<g>
		<path class="st0" d="M9,37c-0.276,0-0.5-0.224-0.5-0.5v-6C8.5,30.224,8.724,30,9,30s0.5,0.224,0.5,0.5v6C9.5,36.776,9.276,37,9,37
			z"/>
	</g>
	<g>
		<path class="st0" d="M42.5,52h-31c-1.654,0-3-1.346-3-3v-0.5C8.5,48.224,8.724,48,9,48s0.5,0.224,0.5,0.5V49c0,1.103,0.897,2,2,2
			h31c1.103,0,2-0.897,2-2V18c0-1.103-0.897-2-2-2h-31c-1.103,0-2,0.897-2,2v0.5C9.5,18.776,9.276,19,9,19s-0.5-0.224-0.5-0.5V18
			c0-1.654,1.346-3,3-3h31c1.654,0,3,1.346,3,3v31C45.5,50.654,44.154,52,42.5,52z"/>
	</g>
	<g>
		<path class="st0" d="M9,37c-0.276,0-0.5-0.224-0.5-0.5v-6C8.5,30.224,8.724,30,9,30s0.5,0.224,0.5,0.5v6C9.5,36.776,9.276,37,9,37
			z"/>
	</g>
	<g>
		<path class="st0" d="M46,58H8c-3.032,0-5.5-2.468-5.5-5.5v-38C2.5,11.468,4.968,9,8,9h38c3.032,0,5.5,2.468,5.5,5.5v38
			C51.5,55.532,49.032,58,46,58z M8,10c-2.481,0-4.5,2.019-4.5,4.5v38C3.5,54.981,5.519,57,8,57h38c2.481,0,4.5-2.019,4.5-4.5v-38
			c0-2.481-2.019-4.5-4.5-4.5H8z"/>
	</g>
	<g>
		<circle class="st2" cx="27" cy="33.5" r="8"/>
		<path class="st0" d="M27,42c-4.687,0-8.5-3.813-8.5-8.5S22.313,25,27,25s8.5,3.813,8.5,8.5S31.687,42,27,42z M27,26
			c-4.136,0-7.5,3.364-7.5,7.5S22.864,41,27,41s7.5-3.364,7.5-7.5S31.136,26,27,26z"/>
	</g>
	<g>
		<path class="st0" d="M27,39c-3.032,0-5.5-2.468-5.5-5.5S23.968,28,27,28s5.5,2.468,5.5,5.5S30.032,39,27,39z M27,29
			c-2.481,0-4.5,2.019-4.5,4.5S24.519,38,27,38s4.5-2.019,4.5-4.5S29.481,29,27,29z"/>
	</g>
	<g>
		<path class="st0" d="M54,5h-4c-0.276,0-0.5-0.224-0.5-0.5S49.724,4,50,4h4c0.276,0,0.5,0.224,0.5,0.5S54.276,5,54,5z"/>
	</g>
	<g>
		<path class="st0" d="M52,7c-0.276,0-0.5-0.224-0.5-0.5v-4C51.5,2.224,51.724,2,52,2s0.5,0.224,0.5,0.5v4C52.5,6.776,52.276,7,52,7
			z"/>
	</g>
	<g>
		<path class="st0" d="M61,14h-4c-0.276,0-0.5-0.224-0.5-0.5S56.724,13,57,13h4c0.276,0,0.5,0.224,0.5,0.5S61.276,14,61,14z"/>
	</g>
	<g>
		<path class="st0" d="M59,16c-0.276,0-0.5-0.224-0.5-0.5v-4c0-0.276,0.224-0.5,0.5-0.5s0.5,0.224,0.5,0.5v4
			C59.5,15.776,59.276,16,59,16z"/>
	</g>
	<g>
		<path class="st0" d="M19,62h-1c-0.276,0-0.5-0.224-0.5-0.5S17.724,61,18,61h1c0.276,0,0.5,0.224,0.5,0.5S19.276,62,19,62z"/>
	</g>
	<g>
		<path class="st0" d="M36,62H21c-0.276,0-0.5-0.224-0.5-0.5S20.724,61,21,61h15c0.276,0,0.5,0.224,0.5,0.5S36.276,62,36,62z"/>
	</g>
	<g>
		<path class="st0" d="M36,6h-1c-0.276,0-0.5-0.224-0.5-0.5S34.724,5,35,5h1c0.276,0,0.5,0.224,0.5,0.5S36.276,6,36,6z"/>
	</g>
	<g>
		<path class="st0" d="M33,6H18c-0.276,0-0.5-0.224-0.5-0.5S17.724,5,18,5h15c0.276,0,0.5,0.224,0.5,0.5S33.276,6,33,6z"/>
	</g>
	<g>
		<path class="st0" d="M10,29H8c-0.827,0-1.5-0.673-1.5-1.5v-6C6.5,20.673,7.173,20,8,20h2c0.827,0,1.5,0.673,1.5,1.5v6
			C11.5,28.327,10.827,29,10,29z M8,21c-0.275,0-0.5,0.225-0.5,0.5v6C7.5,27.775,7.725,28,8,28h2c0.275,0,0.5-0.225,0.5-0.5v-6
			c0-0.275-0.225-0.5-0.5-0.5H8z"/>
	</g>
	<g>
		<path class="st0" d="M10,47H8c-0.827,0-1.5-0.673-1.5-1.5v-6C6.5,38.673,7.173,38,8,38h2c0.827,0,1.5,0.673,1.5,1.5v6
			C11.5,46.327,10.827,47,10,47z M8,39c-0.275,0-0.5,0.225-0.5,0.5v6C7.5,45.775,7.725,46,8,46h2c0.275,0,0.5-0.225,0.5-0.5v-6
			c0-0.275-0.225-0.5-0.5-0.5H8z"/>
	</g>
	<g>
		<path class="st0" d="M42,24c-0.276,0-0.5-0.224-0.5-0.5v-4c0-0.275-0.225-0.5-0.5-0.5h-4c-0.276,0-0.5-0.224-0.5-0.5
			S36.724,18,37,18h4c0.827,0,1.5,0.673,1.5,1.5v4C42.5,23.776,42.276,24,42,24z"/>
	</g>
</g>
</svg>
