<?xml version="1.0" encoding="utf-8"?>
<!-- Generator: Adobe Illustrator 21.1.0, SVG Export Plug-In . SVG Version: 6.00 Build 0)  -->
<svg version="1.1" id="Icon_Set" xmlns="http://www.w3.org/2000/svg" xmlns:xlink="http://www.w3.org/1999/xlink" x="0px" y="0px"
	 viewBox="0 0 64 64" style="enable-background:new 0 0 64 64;" xml:space="preserve">
<style type="text/css">
	.st0{fill:#263238;}
	.st1{fill:#40C4FF;}
	.st2{fill:#FFD740;}
	.st3{fill:#FF5252;}
	.st4{fill:#4DB6AC;}
	.st5{fill:#FFFFFF;}
	.st6{fill:#4FC3F7;}
</style>
<g id="Secure">
	<g>
		<path class="st0" d="M5,32.667c-0.276,0-0.5-0.224-0.5-0.5v-1c0-0.276,0.224-0.5,0.5-0.5s0.5,0.224,0.5,0.5v1
			C5.5,32.443,5.276,32.667,5,32.667z"/>
	</g>
	<g>
		<path class="st0" d="M5,29.667c-0.276,0-0.5-0.224-0.5-0.5v-12.5c0-0.276,0.224-0.5,0.5-0.5s0.5,0.224,0.5,0.5v12.5
			C5.5,29.443,5.276,29.667,5,29.667z"/>
	</g>
	<g>
		<path class="st0" d="M59,18.167c-0.276,0-0.5-0.224-0.5-0.5v-1c0-0.276,0.224-0.5,0.5-0.5s0.5,0.224,0.5,0.5v1
			C59.5,17.943,59.276,18.167,59,18.167z"/>
	</g>
	<g>
		<path class="st0" d="M59,32.667c-0.276,0-0.5-0.224-0.5-0.5v-12.5c0-0.276,0.224-0.5,0.5-0.5s0.5,0.224,0.5,0.5v12.5
			C59.5,32.443,59.276,32.667,59,32.667z"/>
	</g>
	<g>
		<path class="st2" d="M29.702,38.303c-0.384,0-0.768-0.146-1.061-0.439l-6.011-6.01c-0.586-0.585-0.586-1.535,0-2.121
			s1.535-0.586,2.121,0l4.95,4.95l9.546-9.546c0.586-0.586,1.535-0.586,2.121,0c0.586,0.585,0.586,1.536,0,2.121L30.763,37.864
			C30.47,38.157,30.086,38.303,29.702,38.303z"/>
		<path class="st0" d="M29.702,38.804c-0.534,0-1.036-0.208-1.414-0.586l-6.011-6.011c-0.78-0.779-0.78-2.049,0-2.828
			c0.779-0.779,2.049-0.779,2.828,0l4.597,4.597l9.192-9.192c0.756-0.756,2.072-0.756,2.828,0c0.378,0.377,0.586,0.879,0.586,1.414
			c0,0.534-0.208,1.036-0.586,1.414L31.116,38.218C30.738,38.596,30.236,38.804,29.702,38.804z M23.691,29.794
			c-0.256,0-0.512,0.097-0.707,0.292c-0.39,0.39-0.39,1.024,0,1.414l6.011,6.011c0.378,0.377,1.036,0.377,1.414,0l10.606-10.606
			c0.189-0.189,0.293-0.44,0.293-0.707c0-0.268-0.104-0.519-0.292-0.707c-0.379-0.377-1.037-0.377-1.415,0l-9.546,9.546
			c-0.195,0.195-0.512,0.195-0.707,0l-4.95-4.95C24.204,29.891,23.947,29.794,23.691,29.794z"/>
	</g>
	<g>
		<path class="st1" d="M32,12.352c3.825,3.328,8.702,5.156,13.786,5.156c0.744,0,1.482-0.039,2.214-0.115v14.144
			c0,6.288-3.102,12.156-8.297,15.698L32,52.488l-7.703-5.252C19.102,43.694,16,37.825,16,31.537V17.393
			c0.731,0.077,1.47,0.115,2.214,0.115C23.298,17.508,28.175,15.68,32,12.352 M32,4.25l-3.693,3.357
			c-2.818,2.561-6.433,3.901-10.093,3.901c-2.1,0-4.215-0.441-6.204-1.345L10,9.25v22.287c0,8.267,4.086,15.999,10.917,20.656
			L32,59.75l11.083-7.557C49.914,47.536,54,39.804,54,31.537V9.25l-2.01,0.914c-1.988,0.904-4.104,1.345-6.204,1.345
			c-3.661,0-7.275-1.34-10.093-3.901L32,4.25L32,4.25z"/>
		<path class="st0" d="M32,60.25c-0.098,0-0.197-0.029-0.282-0.087l-11.083-7.557C13.663,47.853,9.5,39.976,9.5,31.537V9.25
			c0-0.17,0.086-0.328,0.229-0.421c0.143-0.092,0.323-0.104,0.478-0.034l2.01,0.914c1.899,0.862,3.917,1.3,5.997,1.3
			c3.617,0,7.082-1.34,9.757-3.771l3.693-3.357c0.19-0.174,0.482-0.174,0.673,0l3.693,3.357c2.675,2.432,6.14,3.771,9.757,3.771
			c2.081,0,4.098-0.438,5.998-1.3l2.009-0.914c0.155-0.07,0.335-0.058,0.478,0.034C54.414,8.922,54.5,9.08,54.5,9.25v22.287
			c0,8.438-4.163,16.315-11.135,21.069l-11.083,7.557C32.197,60.221,32.098,60.25,32,60.25z M10.5,10.026v21.511
			c0,8.107,4,15.676,10.698,20.243L32,59.145l10.802-7.364C49.5,47.213,53.5,39.645,53.5,31.537V10.026l-1.303,0.593
			c-2.03,0.922-4.187,1.39-6.411,1.39c-3.866,0-7.57-1.432-10.43-4.031L32,4.926l-3.356,3.052c-2.86,2.6-6.564,4.031-10.43,4.031
			c-2.224,0-4.381-0.468-6.411-1.39L10.5,10.026z M32,52.988c-0.098,0-0.197-0.029-0.282-0.087l-7.704-5.252
			C18.683,44.013,15.5,37.99,15.5,31.537V17.393c0-0.142,0.06-0.276,0.166-0.372c0.105-0.095,0.249-0.142,0.387-0.125
			c0.714,0.075,1.441,0.113,2.162,0.113c4.948,0,9.728-1.787,13.458-5.033c0.188-0.164,0.468-0.164,0.656,0
			c3.73,3.246,8.51,5.033,13.458,5.033c0.721,0,1.448-0.038,2.162-0.113c0.138-0.017,0.281,0.03,0.387,0.125
			c0.105,0.096,0.166,0.23,0.166,0.372v14.145c0,6.453-3.183,12.476-8.515,16.111l-7.704,5.253
			C32.197,52.959,32.098,52.988,32,52.988z M16.5,17.94v13.597c0,6.122,3.02,11.836,8.078,15.286L32,51.883l7.422-5.061
			c5.058-3.449,8.078-9.163,8.078-15.285V17.94c-5.61,0.448-11.201-1.34-15.5-4.931C27.702,16.602,22.109,18.394,16.5,17.94z"/>
	</g>
</g>
</svg>
