<?xml version="1.0" encoding="utf-8"?>
<!-- Generator: Adobe Illustrator 21.1.0, SVG Export Plug-In . SVG Version: 6.00 Build 0)  -->
<svg version="1.1" id="Icon_Set" xmlns="http://www.w3.org/2000/svg" xmlns:xlink="http://www.w3.org/1999/xlink" x="0px" y="0px"
	 viewBox="0 0 64 64" style="enable-background:new 0 0 64 64;" xml:space="preserve">
<style type="text/css">
	.st0{fill:#263238;}
	.st1{fill:#40C4FF;}
	.st2{fill:#FFD740;}
	.st3{fill:#FF5252;}
	.st4{fill:#4DB6AC;}
	.st5{fill:#FFFFFF;}
	.st6{fill:#4FC3F7;}
</style>
<g id="Statistics">
	<g>
		<rect x="5" y="38.5" class="st1" width="54" height="16.5"/>
	</g>
	<g>
		<path class="st0" d="M59,61.5H5c-0.276,0-0.5-0.224-0.5-0.5v-6c0-0.276,0.224-0.5,0.5-0.5h54c0.276,0,0.5,0.224,0.5,0.5v6
			C59.5,61.276,59.276,61.5,59,61.5z M5.5,60.5h53v-5h-53V60.5z"/>
	</g>
	<g>
		<polyline class="st5" points="17.5,53 17.5,35 10.5,35 10.5,53 		"/>
		<path class="st0" d="M17.5,53.5c-0.276,0-0.5-0.224-0.5-0.5V35.5h-6V53c0,0.276-0.224,0.5-0.5,0.5S10,53.276,10,53V35
			c0-0.276,0.224-0.5,0.5-0.5h7c0.276,0,0.5,0.224,0.5,0.5v18C18,53.276,17.776,53.5,17.5,53.5z"/>
	</g>
	<g>
		<polyline class="st5" points="29.5,53 29.5,42.5 22.5,42.5 22.5,53 		"/>
		<path class="st0" d="M29.5,53.5c-0.276,0-0.5-0.224-0.5-0.5V43h-6v10c0,0.276-0.224,0.5-0.5,0.5S22,53.276,22,53V42.5
			c0-0.276,0.224-0.5,0.5-0.5h7c0.276,0,0.5,0.224,0.5,0.5V53C30,53.276,29.776,53.5,29.5,53.5z"/>
	</g>
	<g>
		<polyline class="st5" points="41.5,53 41.5,32.5 34.5,32.5 34.5,53 		"/>
		<path class="st0" d="M41.5,53.5c-0.276,0-0.5-0.224-0.5-0.5V33h-6v20c0,0.276-0.224,0.5-0.5,0.5S34,53.276,34,53V32.5
			c0-0.276,0.224-0.5,0.5-0.5h7c0.276,0,0.5,0.224,0.5,0.5V53C42,53.276,41.776,53.5,41.5,53.5z"/>
	</g>
	<g>
		<polyline class="st5" points="53.5,53 53.5,27.5 46.5,27.5 46.5,53 		"/>
		<path class="st0" d="M53.5,53.5c-0.276,0-0.5-0.224-0.5-0.5V28h-6v25c0,0.276-0.224,0.5-0.5,0.5S46,53.276,46,53V27.5
			c0-0.276,0.224-0.5,0.5-0.5h7c0.276,0,0.5,0.224,0.5,0.5V53C54,53.276,53.776,53.5,53.5,53.5z"/>
	</g>
	<g>
		<path class="st0" d="M26,32.5c-0.113,0-0.228-0.039-0.32-0.116l-11.713-9.761l-8.689,5.793c-0.229,0.15-0.539,0.092-0.693-0.139
			c-0.153-0.229-0.091-0.54,0.139-0.693l9-6c0.183-0.124,0.426-0.11,0.598,0.032L26,31.35l11.68-9.733l12.068-7.048
			c0.164-0.098,0.369-0.091,0.529,0.016l7.5,5c0.229,0.153,0.292,0.464,0.139,0.693c-0.154,0.23-0.466,0.29-0.693,0.139l-7.24-4.827
			l-11.73,6.843L26.32,32.384C26.228,32.461,26.113,32.5,26,32.5z"/>
	</g>
	<g>
		<circle class="st2" cx="38" cy="21.905" r="2.5"/>
		<path class="st0" d="M38,24.905c-1.654,0-3-1.346-3-3s1.346-3,3-3s3,1.346,3,3S39.654,24.905,38,24.905z M38,19.905
			c-1.103,0-2,0.897-2,2s0.897,2,2,2s2-0.897,2-2S39.103,19.905,38,19.905z"/>
	</g>
	<g>
		<circle class="st2" cx="26" cy="32" r="2.5"/>
		<path class="st0" d="M26,35c-1.654,0-3-1.346-3-3s1.346-3,3-3s3,1.346,3,3S27.654,35,26,35z M26,30c-1.103,0-2,0.897-2,2
			s0.897,2,2,2s2-0.897,2-2S27.103,30,26,30z"/>
	</g>
	<g>
		<circle class="st2" cx="14" cy="22" r="2.5"/>
		<path class="st0" d="M14,25c-1.654,0-3-1.346-3-3s1.346-3,3-3s3,1.346,3,3S15.654,25,14,25z M14,20c-1.103,0-2,0.897-2,2
			s0.897,2,2,2s2-0.897,2-2S15.103,20,14,20z"/>
	</g>
	<g>
		<circle class="st3" cx="50" cy="15" r="2.5"/>
		<path class="st0" d="M50,18c-1.654,0-3-1.346-3-3s1.346-3,3-3s3,1.346,3,3S51.654,18,50,18z M50,13c-1.103,0-2,0.897-2,2
			s0.897,2,2,2s2-0.897,2-2S51.103,13,50,13z"/>
	</g>
	<g>
		<path class="st0" d="M24,5.5h-4c-0.276,0-0.5-0.224-0.5-0.5s0.224-0.5,0.5-0.5h4c0.276,0,0.5,0.224,0.5,0.5S24.276,5.5,24,5.5z"/>
	</g>
	<g>
		<path class="st0" d="M22,7.5c-0.276,0-0.5-0.224-0.5-0.5V3c0-0.276,0.224-0.5,0.5-0.5s0.5,0.224,0.5,0.5v4
			C22.5,7.276,22.276,7.5,22,7.5z"/>
	</g>
	<g>
		<path class="st0" d="M32,13h-4c-0.276,0-0.5-0.224-0.5-0.5S27.724,12,28,12h4c0.276,0,0.5,0.224,0.5,0.5S32.276,13,32,13z"/>
	</g>
	<g>
		<path class="st0" d="M30,15c-0.276,0-0.5-0.224-0.5-0.5v-4c0-0.276,0.224-0.5,0.5-0.5s0.5,0.224,0.5,0.5v4
			C30.5,14.776,30.276,15,30,15z"/>
	</g>
</g>
</svg>
