<?xml version="1.0" encoding="utf-8"?>
<!-- Generator: Adobe Illustrator 21.1.0, SVG Export Plug-In . SVG Version: 6.00 Build 0)  -->
<svg version="1.1" id="Icon_Set" xmlns="http://www.w3.org/2000/svg" xmlns:xlink="http://www.w3.org/1999/xlink" x="0px" y="0px"
	 viewBox="0 0 64 64" style="enable-background:new 0 0 64 64;" xml:space="preserve">
<style type="text/css">
	.st0{fill:#263238;}
	.st1{fill:#40C4FF;}
	.st2{fill:#FFD740;}
	.st3{fill:#FF5252;}
	.st4{fill:#4DB6AC;}
	.st5{fill:#FFFFFF;}
	.st6{fill:#4FC3F7;}
</style>
<g id="Stocks">
	<g>
		<path class="st0" d="M60,61H4c-0.276,0-0.5-0.224-0.5-0.5v-41C3.5,19.224,3.724,19,4,19s0.5,0.224,0.5,0.5V60H60
			c0.276,0,0.5,0.224,0.5,0.5S60.276,61,60,61z"/>
	</g>
	<g>
		<path class="st2" d="M20,60.5H10v-29c0-0.552,0.448-1,1-1h8c0.552,0,1,0.448,1,1V60.5z"/>
		<path class="st0" d="M20,61H10c-0.276,0-0.5-0.224-0.5-0.5v-29c0-0.827,0.673-1.5,1.5-1.5h8c0.827,0,1.5,0.673,1.5,1.5v29
			C20.5,60.776,20.276,61,20,61z M10.5,60h9V31.5c0-0.275-0.224-0.5-0.5-0.5h-8c-0.276,0-0.5,0.225-0.5,0.5V60z"/>
	</g>
	<g>
		<path class="st1" d="M36.5,60.5h-10v-20c0-0.552,0.448-1,1-1h8c0.552,0,1,0.448,1,1V60.5z"/>
		<path class="st0" d="M36.5,61h-10c-0.276,0-0.5-0.224-0.5-0.5v-20c0-0.827,0.673-1.5,1.5-1.5h8c0.827,0,1.5,0.673,1.5,1.5v20
			C37,60.776,36.776,61,36.5,61z M27,60h9V40.5c0-0.275-0.224-0.5-0.5-0.5h-8c-0.276,0-0.5,0.225-0.5,0.5V60z"/>
	</g>
	<g>
		<path class="st3" d="M53,60.5H43V24c0-0.552,0.448-1,1-1h8c0.552,0,1,0.448,1,1V60.5z"/>
		<path class="st0" d="M53,61H43c-0.276,0-0.5-0.224-0.5-0.5V24c0-0.827,0.673-1.5,1.5-1.5h8c0.827,0,1.5,0.673,1.5,1.5v36.5
			C53.5,60.776,53.276,61,53,61z M43.5,60h9V24c0-0.275-0.224-0.5-0.5-0.5h-8c-0.276,0-0.5,0.225-0.5,0.5V60z"/>
	</g>
	<g>
		<path class="st0" d="M21.032,6h-4c-0.276,0-0.5-0.224-0.5-0.5s0.224-0.5,0.5-0.5h4c0.276,0,0.5,0.224,0.5,0.5S21.308,6,21.032,6z"
			/>
	</g>
	<g>
		<path class="st0" d="M19.032,8c-0.276,0-0.5-0.224-0.5-0.5v-4c0-0.276,0.224-0.5,0.5-0.5s0.5,0.224,0.5,0.5v4
			C19.532,7.776,19.308,8,19.032,8z"/>
	</g>
	<g>
		<path class="st0" d="M14.032,12.5h-4c-0.276,0-0.5-0.224-0.5-0.5s0.224-0.5,0.5-0.5h4c0.276,0,0.5,0.224,0.5,0.5
			S14.308,12.5,14.032,12.5z"/>
	</g>
	<g>
		<path class="st0" d="M12.032,14.5c-0.276,0-0.5-0.224-0.5-0.5v-4c0-0.276,0.224-0.5,0.5-0.5s0.5,0.224,0.5,0.5v4
			C12.532,14.276,12.308,14.5,12.032,14.5z"/>
	</g>
	<g>
		<path class="st0" d="M31.5,26c-0.069,0-0.138-0.014-0.203-0.043l-8.777-3.901l-7.285,3.886C15.163,25.979,15.082,26,15,26h-5
			c-0.276,0-0.5-0.224-0.5-0.5S9.724,25,10,25h4.875l7.39-3.941c0.136-0.072,0.298-0.077,0.438-0.016l8.702,3.867l16.259-14.78
			c0.204-0.185,0.521-0.172,0.707,0.034c0.186,0.204,0.17,0.521-0.034,0.706l-16.5,15C31.743,25.955,31.622,26,31.5,26z"/>
	</g>
	<g>
		<circle class="st5" cx="31.5" cy="25.5" r="2.5"/>
		<path class="st0" d="M31.5,28.5c-1.654,0-3-1.346-3-3s1.346-3,3-3s3,1.346,3,3S33.154,28.5,31.5,28.5z M31.5,23.5
			c-1.103,0-2,0.897-2,2s0.897,2,2,2s2-0.897,2-2S32.603,23.5,31.5,23.5z"/>
	</g>
	<g>
		<circle class="st5" cx="15" cy="25.5" r="2.5"/>
		<path class="st0" d="M15,28.5c-1.654,0-3-1.346-3-3s1.346-3,3-3s3,1.346,3,3S16.654,28.5,15,28.5z M15,23.5c-1.103,0-2,0.897-2,2
			s0.897,2,2,2s2-0.897,2-2S16.103,23.5,15,23.5z"/>
	</g>
	<g>
		<circle class="st5" cx="48" cy="10.5" r="2.5"/>
		<path class="st0" d="M48,13.5c-1.654,0-3-1.346-3-3s1.346-3,3-3s3,1.346,3,3S49.654,13.5,48,13.5z M48,8.5c-1.103,0-2,0.897-2,2
			s0.897,2,2,2s2-0.897,2-2S49.103,8.5,48,8.5z"/>
	</g>
</g>
</svg>
