<?xml version="1.0" encoding="utf-8"?>
<!-- Generator: Adobe Illustrator 21.1.0, SVG Export Plug-In . SVG Version: 6.00 Build 0)  -->
<svg version="1.1" id="Icon_Set" xmlns="http://www.w3.org/2000/svg" xmlns:xlink="http://www.w3.org/1999/xlink" x="0px" y="0px"
	 viewBox="0 0 64 64" style="enable-background:new 0 0 64 64;" xml:space="preserve">
<style type="text/css">
	.st0{fill:#263238;}
	.st1{fill:#40C4FF;}
	.st2{fill:#FFD740;}
	.st3{fill:#FF5252;}
	.st4{fill:#4DB6AC;}
	.st5{fill:#FFFFFF;}
	.st6{fill:#4FC3F7;}
</style>
<g id="Strategy">
	<g>
		<path class="st2" d="M53.25,41h-12c-0.552,0-1-0.448-1-1V28c0-0.552,0.448-1,1-1h12c0.552,0,1,0.448,1,1v12
			C54.25,40.552,53.802,41,53.25,41z"/>
		<path class="st0" d="M53.25,41.5h-12c-0.827,0-1.5-0.673-1.5-1.5V28c0-0.827,0.673-1.5,1.5-1.5h12c0.827,0,1.5,0.673,1.5,1.5v12
			C54.75,40.827,54.077,41.5,53.25,41.5z M41.25,27.5c-0.276,0-0.5,0.225-0.5,0.5v12c0,0.275,0.224,0.5,0.5,0.5h12
			c0.276,0,0.5-0.225,0.5-0.5V28c0-0.275-0.224-0.5-0.5-0.5H41.25z"/>
	</g>
	<g>
		<path class="st0" d="M60,45.5H4c-0.276,0-0.5-0.224-0.5-0.5V9c0-0.276,0.224-0.5,0.5-0.5h56c0.276,0,0.5,0.224,0.5,0.5v36
			C60.5,45.276,60.276,45.5,60,45.5z M4.5,44.5h55v-35h-55V44.5z"/>
	</g>
	<g>
		<path class="st0" d="M60.938,9.5H3.062C2.201,9.5,1.5,8.827,1.5,8V5c0-0.827,0.701-1.5,1.562-1.5h57.876
			C61.799,3.5,62.5,4.173,62.5,5v3C62.5,8.827,61.799,9.5,60.938,9.5z M3.062,4.5C2.752,4.5,2.5,4.725,2.5,5v3
			c0,0.275,0.252,0.5,0.562,0.5h57.876c0.31,0,0.562-0.225,0.562-0.5V5c0-0.275-0.252-0.5-0.562-0.5H3.062z"/>
	</g>
	<g>
		<path class="st0" d="M60.938,50.5H3.062C2.201,50.5,1.5,49.827,1.5,49v-3c0-0.827,0.701-1.5,1.562-1.5h57.876
			c0.861,0,1.562,0.673,1.562,1.5v3C62.5,49.827,61.799,50.5,60.938,50.5z M3.062,45.5C2.752,45.5,2.5,45.725,2.5,46v3
			c0,0.275,0.252,0.5,0.562,0.5h57.876c0.31,0,0.562-0.225,0.562-0.5v-3c0-0.275-0.252-0.5-0.562-0.5H3.062z"/>
	</g>
	<g>
		<path class="st0" d="M29,60.5c-0.276,0-0.5-0.224-0.5-0.5v-8c0-0.276,0.224-0.5,0.5-0.5s0.5,0.224,0.5,0.5v8
			C29.5,60.276,29.277,60.5,29,60.5z"/>
	</g>
	<g>
		<path class="st0" d="M35,60.5c-0.276,0-0.5-0.224-0.5-0.5v-8c0-0.276,0.224-0.5,0.5-0.5s0.5,0.224,0.5,0.5v8
			C35.5,60.276,35.277,60.5,35,60.5z"/>
	</g>
	<g>
		<circle class="st1" cx="15.75" cy="34" r="5"/>
		<path class="st0" d="M15.75,39.5c-3.033,0-5.5-2.468-5.5-5.5s2.467-5.5,5.5-5.5s5.5,2.468,5.5,5.5S18.783,39.5,15.75,39.5z
			 M15.75,29.5c-2.481,0-4.5,2.019-4.5,4.5s2.019,4.5,4.5,4.5s4.5-2.019,4.5-4.5S18.231,29.5,15.75,29.5z"/>
	</g>
	<g>
		<path class="st0" d="M47.25,32c-0.276,0-0.5-0.224-0.5-0.5V30c0-0.276,0.224-0.5,0.5-0.5s0.5,0.224,0.5,0.5v1.5
			C47.75,31.776,47.527,32,47.25,32z"/>
	</g>
	<g>
		<path class="st0" d="M47.25,38.5c-0.276,0-0.5-0.224-0.5-0.5v-1.5c0-0.276,0.224-0.5,0.5-0.5s0.5,0.224,0.5,0.5V38
			C47.75,38.276,47.527,38.5,47.25,38.5z"/>
	</g>
	<g>
		<path class="st0" d="M48,37h-2.75c-0.276,0-0.5-0.224-0.5-0.5s0.224-0.5,0.5-0.5H48c0.414,0,0.75-0.337,0.75-0.75
			S48.414,34.5,48,34.5h-1.5c-0.965,0-1.75-0.785-1.75-1.75S45.535,31,46.5,31h2.25c0.276,0,0.5,0.224,0.5,0.5s-0.224,0.5-0.5,0.5
			H46.5c-0.414,0-0.75,0.337-0.75,0.75s0.336,0.75,0.75,0.75H48c0.965,0,1.75,0.785,1.75,1.75S48.965,37,48,37z"/>
	</g>
	<g>
		<path class="st0" d="M6,54.5H5c-0.276,0-0.5-0.224-0.5-0.5s0.224-0.5,0.5-0.5h1c0.276,0,0.5,0.224,0.5,0.5S6.276,54.5,6,54.5z"/>
	</g>
	<g>
		<path class="st0" d="M24,54.5H8c-0.276,0-0.5-0.224-0.5-0.5s0.224-0.5,0.5-0.5h16c0.276,0,0.5,0.224,0.5,0.5S24.276,54.5,24,54.5z
			"/>
	</g>
	<g>
		<path class="st0" d="M59,54.5h-1c-0.276,0-0.5-0.224-0.5-0.5s0.224-0.5,0.5-0.5h1c0.276,0,0.5,0.224,0.5,0.5S59.276,54.5,59,54.5z
			"/>
	</g>
	<g>
		<path class="st0" d="M56,54.5H40c-0.276,0-0.5-0.224-0.5-0.5s0.224-0.5,0.5-0.5h16c0.276,0,0.5,0.224,0.5,0.5S56.276,54.5,56,54.5
			z"/>
	</g>
	<g>
		<path class="st0" d="M15.75,25.5c-0.276,0-0.5-0.224-0.5-0.5v-5c0-1.654,1.346-3,3-3h6.5c0.276,0,0.5,0.224,0.5,0.5
			s-0.224,0.5-0.5,0.5h-6.5c-1.103,0-2,0.897-2,2v5C16.25,25.276,16.026,25.5,15.75,25.5z"/>
	</g>
	<g>
		<path class="st0" d="M21.921,20.828c-0.128,0-0.256-0.049-0.354-0.146c-0.195-0.195-0.195-0.512,0-0.707l2.475-2.475l-2.475-2.475
			c-0.195-0.195-0.195-0.512,0-0.707s0.512-0.195,0.707,0l2.829,2.828c0.094,0.094,0.146,0.221,0.146,0.354s-0.053,0.26-0.146,0.354
			l-2.829,2.828C22.177,20.779,22.049,20.828,21.921,20.828z"/>
	</g>
	<g>
		<path class="st0" d="M47.25,25c-0.276,0-0.5-0.224-0.5-0.5V20c0-1.103-0.897-2-2-2h-7c-0.276,0-0.5-0.224-0.5-0.5
			s0.224-0.5,0.5-0.5h7c1.654,0,3,1.346,3,3v4.5C47.75,24.776,47.527,25,47.25,25z"/>
	</g>
	<g>
		<path class="st0" d="M47.25,25c-0.128,0-0.256-0.049-0.354-0.146l-2.829-2.828c-0.195-0.195-0.195-0.512,0-0.707
			s0.512-0.195,0.707,0l2.475,2.475l2.475-2.475c0.195-0.195,0.512-0.195,0.707,0s0.195,0.512,0,0.707l-2.828,2.828
			C47.506,24.951,47.378,25,47.25,25z"/>
	</g>
	<g>
		<path class="st3" d="M34.121,17.5l2.439-2.439c0.586-0.586,0.586-1.535,0-2.121s-1.535-0.586-2.121,0L32,15.379l-2.439-2.439
			c-0.586-0.586-1.535-0.586-2.121,0s-0.586,1.535,0,2.121l2.439,2.439l-2.439,2.439c-0.586,0.586-0.586,1.535,0,2.121
			c0.293,0.293,0.677,0.439,1.061,0.439s0.768-0.146,1.061-0.439L32,19.621l2.439,2.439c0.293,0.293,0.677,0.439,1.061,0.439
			s0.768-0.146,1.061-0.439c0.586-0.586,0.586-1.535,0-2.121L34.121,17.5z"/>
		<path class="st0" d="M35.5,23c-0.534,0-1.036-0.208-1.414-0.586L32,20.328l-2.086,2.086c-0.756,0.756-2.072,0.756-2.828,0
			c-0.78-0.779-0.78-2.049,0-2.828l2.086-2.086l-2.086-2.086c-0.78-0.779-0.78-2.049,0-2.828c0.779-0.779,2.049-0.779,2.828,0
			L32,14.672l2.086-2.086c0.779-0.779,2.049-0.779,2.828,0c0.78,0.779,0.78,2.049,0,2.828L34.828,17.5l2.086,2.086
			c0.78,0.779,0.78,2.049,0,2.828C36.536,22.792,36.034,23,35.5,23z M32,19.121c0.128,0,0.256,0.049,0.354,0.146l2.439,2.439
			c0.378,0.377,1.036,0.377,1.414,0C36.396,21.518,36.5,21.267,36.5,21s-0.104-0.518-0.293-0.707l-2.439-2.439
			c-0.195-0.195-0.195-0.512,0-0.707l2.439-2.439C36.396,14.518,36.5,14.267,36.5,14s-0.104-0.518-0.293-0.707
			c-0.378-0.377-1.036-0.377-1.414,0l-2.439,2.439c-0.195,0.195-0.512,0.195-0.707,0l-2.439-2.439c-0.378-0.377-1.036-0.377-1.414,0
			C27.604,13.482,27.5,13.733,27.5,14s0.104,0.518,0.293,0.707l2.439,2.439c0.195,0.195,0.195,0.512,0,0.707l-2.439,2.439
			C27.604,20.482,27.5,20.733,27.5,21s0.104,0.518,0.293,0.707c0.378,0.377,1.036,0.377,1.414,0l2.439-2.439
			C31.744,19.17,31.872,19.121,32,19.121z"/>
	</g>
</g>
</svg>
