<?xml version="1.0" encoding="utf-8"?>
<!-- Generator: Adobe Illustrator 21.1.0, SVG Export Plug-In . SVG Version: 6.00 Build 0)  -->
<svg version="1.1" id="Icon_Set" xmlns="http://www.w3.org/2000/svg" xmlns:xlink="http://www.w3.org/1999/xlink" x="0px" y="0px"
	 viewBox="0 0 64 64" style="enable-background:new 0 0 64 64;" xml:space="preserve">
<style type="text/css">
	.st0{fill:#263238;}
	.st1{fill:#40C4FF;}
	.st2{fill:#FFD740;}
	.st3{fill:#FF5252;}
	.st4{fill:#4DB6AC;}
	.st5{fill:#FFFFFF;}
	.st6{fill:#4FC3F7;}
</style>
<g id="Success">
	<g>
		<path class="st0" d="M44,60.499h-1c-0.276,0-0.5-0.224-0.5-0.5s0.224-0.5,0.5-0.5h1c0.276,0,0.5,0.224,0.5,0.5
			S44.276,60.499,44,60.499z"/>
	</g>
	<g>
		<path class="st0" d="M41,60.499H20c-0.276,0-0.5-0.224-0.5-0.5s0.224-0.5,0.5-0.5h21c0.276,0,0.5,0.224,0.5,0.5
			S41.276,60.499,41,60.499z"/>
	</g>
	<g>
		<path class="st0" d="M21.5,19.999H19c-3.86,0-7-3.141-7-7v-3c0-1.654,1.346-3,3-3h6.5c1.103,0,2,0.897,2,2v9
			C23.5,19.102,22.603,19.999,21.5,19.999z M15,7.999c-1.103,0-2,0.897-2,2v3c0,3.309,2.691,6,6,6h2.5c0.551,0,1-0.448,1-1v-9
			c0-0.552-0.449-1-1-1H15z M20,16.999h-1c-2.206,0-4-1.794-4-4v-2.5c0-0.276,0.224-0.5,0.5-0.5H20c0.276,0,0.5,0.224,0.5,0.5v6
			C20.5,16.775,20.276,16.999,20,16.999z M16,10.999v2c0,1.654,1.346,3,3,3h0.5v-5H16z"/>
	</g>
	<g>
		<path class="st0" d="M45,19.999h-2.5c-1.103,0-2-0.897-2-2v-9c0-1.103,0.897-2,2-2H49c1.654,0,3,1.346,3,3v3
			C52,16.858,48.859,19.999,45,19.999z M42.5,7.999c-0.552,0-1,0.448-1,1v9c0,0.552,0.448,1,1,1H45c3.309,0,6-2.691,6-6v-3
			c0-1.103-0.897-2-2-2H42.5z M45,16.999h-1c-0.276,0-0.5-0.224-0.5-0.5v-6c0-0.276,0.224-0.5,0.5-0.5h4.5
			c0.276,0,0.5,0.224,0.5,0.5v2.5C49,15.205,47.206,16.999,45,16.999z M44.5,15.999H45c1.654,0,3-1.346,3-3v-2h-3.5V15.999z"/>
	</g>
	<g>
		<path class="st2" d="M44,6.499v8.5c0,6.627-5.373,12-12,12h0c-6.627,0-12-5.373-12-12v-8.5c0-1.381,1.119-2.5,2.5-2.5h19
			C42.88,3.999,44,5.119,44,6.499z"/>
		<path class="st0" d="M32,27.499c-6.893,0-12.5-5.607-12.5-12.5v-8.5c0-1.654,1.346-3,3-3h19c1.654,0,3,1.346,3,3v8.5
			C44.5,21.892,38.893,27.499,32,27.499z M22.5,4.499c-1.103,0-2,0.897-2,2v8.5c0,6.341,5.159,11.5,11.5,11.5s11.5-5.159,11.5-11.5
			v-8.5c0-1.103-0.897-2-2-2H22.5z"/>
	</g>
	<g>
		<path class="st2" d="M39,42.999H25v-1.5c0-1.381,1.119-2.5,2.5-2.5h9c1.381,0,2.5,1.119,2.5,2.5V42.999z"/>
		<path class="st0" d="M39,43.499H25c-0.276,0-0.5-0.224-0.5-0.5v-1.5c0-1.654,1.346-3,3-3h9c1.654,0,3,1.346,3,3v1.5
			C39.5,43.275,39.276,43.499,39,43.499z M25.5,42.499h13v-1c0-1.103-0.897-2-2-2h-9c-1.103,0-2,0.897-2,2V42.499z"/>
	</g>
	<g>
		<path class="st2" d="M41.5,55.999h-19c-1.381,0-2.5-1.119-2.5-2.5v-8c0-1.381,1.119-2.5,2.5-2.5h19c1.381,0,2.5,1.119,2.5,2.5v8
			C44,54.88,42.88,55.999,41.5,55.999z"/>
		<path class="st0" d="M41.5,56.499h-19c-1.654,0-3-1.346-3-3v-8c0-1.654,1.346-3,3-3h19c1.654,0,3,1.346,3,3v8
			C44.5,55.153,43.154,56.499,41.5,56.499z M22.5,43.499c-1.103,0-2,0.897-2,2v8c0,1.103,0.897,2,2,2h19c1.103,0,2-0.897,2-2v-8
			c0-1.103-0.897-2-2-2H22.5z"/>
	</g>
	<g>
		<path class="st0" d="M35.732,37.499c-0.252,0-0.469-0.19-0.496-0.446l-1.05-9.752c-1.466,0.265-2.907,0.265-4.374,0l-1.049,9.752
			c-0.03,0.273-0.267,0.475-0.551,0.443c-0.274-0.029-0.473-0.276-0.443-0.551l1.108-10.297c0.015-0.142,0.09-0.27,0.206-0.353
			s0.263-0.111,0.4-0.082c1.686,0.378,3.344,0.378,5.032,0c0.14-0.029,0.284-0.001,0.4,0.082s0.19,0.211,0.206,0.353l1.108,10.297
			c0.029,0.274-0.169,0.521-0.443,0.551C35.769,37.498,35.751,37.499,35.732,37.499z"/>
	</g>
	<g>
		<path class="st0" d="M11,35.999c-0.215,0-0.406-0.138-0.474-0.342l-0.553-1.658c-0.231-0.691-0.781-1.242-1.473-1.473
			l-1.658-0.553C6.638,31.905,6.5,31.714,6.5,31.499s0.138-0.406,0.342-0.475L8.5,30.472c0.691-0.229,1.242-0.78,1.473-1.472
			l0.552-1.659c0.137-0.408,0.812-0.408,0.949,0L12.027,29c0.23,0.691,0.781,1.242,1.472,1.472l1.659,0.553
			c0.204,0.068,0.342,0.26,0.342,0.475s-0.138,0.406-0.342,0.475L13.5,32.526c-0.692,0.23-1.242,0.781-1.473,1.473l-0.553,1.658
			C11.406,35.861,11.215,35.999,11,35.999z M8.581,31.499l0.235,0.078c0.989,0.331,1.776,1.117,2.105,2.105L11,33.918l0.079-0.235
			c0.329-0.988,1.116-1.774,2.105-2.105l0.235-0.078l-0.235-0.078c-0.988-0.329-1.775-1.116-2.105-2.104L11,29.081l-0.078,0.235
			c-0.331,0.988-1.118,1.775-2.106,2.104L8.581,31.499z"/>
	</g>
	<g>
		<path class="st0" d="M53,35.999c-0.215,0-0.406-0.138-0.475-0.342l-0.553-1.658c-0.229-0.691-0.78-1.242-1.473-1.473l-1.658-0.553
			c-0.204-0.068-0.342-0.26-0.342-0.475s0.138-0.406,0.342-0.475l1.658-0.553c0.692-0.23,1.242-0.78,1.473-1.472l0.553-1.659
			c0.137-0.408,0.812-0.408,0.949,0L54.027,29c0.23,0.691,0.78,1.241,1.473,1.472l1.658,0.553c0.204,0.068,0.342,0.26,0.342,0.475
			s-0.138,0.406-0.342,0.475L55.5,32.526c-0.692,0.23-1.243,0.781-1.473,1.473l-0.553,1.658C53.406,35.861,53.215,35.999,53,35.999z
			 M50.581,31.499l0.235,0.078c0.989,0.331,1.776,1.118,2.105,2.105L53,33.918l0.078-0.235c0.329-0.987,1.116-1.774,2.105-2.105
			l0.235-0.078l-0.235-0.078c-0.988-0.329-1.775-1.116-2.105-2.104L53,29.081l-0.078,0.235c-0.33,0.988-1.117,1.775-2.105,2.104
			L50.581,31.499z"/>
	</g>
	<g>
		<polygon class="st5" points="32,8.999 33.545,12.291 37,12.819 34.5,15.381 35.09,18.999 32,17.291 28.91,18.999 29.5,15.381 
			27,12.819 30.455,12.291 		"/>
		<path class="st0" d="M35.09,19.499c-0.083,0-0.166-0.021-0.242-0.062L32,17.862l-2.848,1.574c-0.167,0.093-0.373,0.082-0.53-0.028
			c-0.156-0.11-0.236-0.301-0.206-0.489l0.549-3.368l-2.324-2.382c-0.131-0.135-0.176-0.331-0.116-0.509
			c0.06-0.177,0.213-0.307,0.398-0.335l3.191-0.488l1.432-3.051c0.165-0.35,0.74-0.35,0.905,0l1.432,3.051l3.191,0.488
			c0.186,0.028,0.34,0.158,0.399,0.335c0.059,0.178,0.014,0.374-0.117,0.509l-2.323,2.382l0.549,3.368
			c0.031,0.188-0.049,0.379-0.205,0.489C35.292,19.469,35.191,19.499,35.09,19.499z M32,16.791c0.083,0,0.167,0.021,0.242,0.062
			l2.189,1.21l-0.424-2.602c-0.025-0.156,0.024-0.315,0.136-0.43l1.82-1.865l-2.493-0.382c-0.165-0.025-0.307-0.131-0.377-0.281
			L32,10.176l-1.092,2.328c-0.071,0.15-0.212,0.256-0.377,0.281l-2.494,0.382l1.821,1.865c0.111,0.114,0.161,0.273,0.136,0.43
			l-0.424,2.602l2.189-1.21C31.833,16.812,31.916,16.791,32,16.791z"/>
	</g>
</g>
</svg>
