<?xml version="1.0" encoding="utf-8"?>
<!-- Generator: Adobe Illustrator 21.1.0, SVG Export Plug-In . SVG Version: 6.00 Build 0)  -->
<svg version="1.1" id="Icon_Set" xmlns="http://www.w3.org/2000/svg" xmlns:xlink="http://www.w3.org/1999/xlink" x="0px" y="0px"
	 viewBox="0 0 64 64" style="enable-background:new 0 0 64 64;" xml:space="preserve">
<style type="text/css">
	.st0{fill:#263238;}
	.st1{fill:#40C4FF;}
	.st2{fill:#FFD740;}
	.st3{fill:#FF5252;}
	.st4{fill:#4DB6AC;}
	.st5{fill:#FFFFFF;}
	.st6{fill:#4FC3F7;}
</style>
<g id="Taxes">
	<g>
		<path class="st0" d="M9,13.5c-0.276,0-0.5-0.224-0.5-0.5V9c0-0.276,0.224-0.5,0.5-0.5S9.5,8.724,9.5,9v4
			C9.5,13.276,9.276,13.5,9,13.5z"/>
	</g>
	<g>
		<path class="st0" d="M11,11.5H7c-0.276,0-0.5-0.224-0.5-0.5s0.224-0.5,0.5-0.5h4c0.276,0,0.5,0.224,0.5,0.5S11.276,11.5,11,11.5z"
			/>
	</g>
	<g>
		<path class="st0" d="M14,6.5c-0.276,0-0.5-0.224-0.5-0.5V2c0-0.276,0.224-0.5,0.5-0.5s0.5,0.224,0.5,0.5v4
			C14.5,6.276,14.276,6.5,14,6.5z"/>
	</g>
	<g>
		<path class="st0" d="M16,4.5h-4c-0.276,0-0.5-0.224-0.5-0.5s0.224-0.5,0.5-0.5h4c0.276,0,0.5,0.224,0.5,0.5S16.276,4.5,16,4.5z"/>
	</g>
	<g>
		<path class="st0" d="M12,44.25c-0.276,0-0.5-0.224-0.5-0.5v-1c0-0.276,0.224-0.5,0.5-0.5s0.5,0.224,0.5,0.5v1
			C12.5,44.026,12.276,44.25,12,44.25z"/>
	</g>
	<g>
		<path class="st0" d="M12,41.25c-0.276,0-0.5-0.224-0.5-0.5v-16c0-0.276,0.224-0.5,0.5-0.5s0.5,0.224,0.5,0.5v16
			C12.5,41.026,12.276,41.25,12,41.25z"/>
	</g>
	<g>
		<path class="st0" d="M49,20.75c-0.276,0-0.5-0.224-0.5-0.5v-1c0-0.276,0.224-0.5,0.5-0.5s0.5,0.224,0.5,0.5v1
			C49.5,20.526,49.276,20.75,49,20.75z"/>
	</g>
	<g>
		<path class="st0" d="M49,38.75c-0.276,0-0.5-0.224-0.5-0.5v-16c0-0.276,0.224-0.5,0.5-0.5s0.5,0.224,0.5,0.5v16
			C49.5,38.526,49.276,38.75,49,38.75z"/>
	</g>
	<g>
		<path class="st0" d="M51,17h-4.5c-0.276,0-0.5-0.224-0.5-0.5s0.224-0.5,0.5-0.5h4v-2.5c0-1.378-1.121-2.5-2.5-2.5
			c-0.276,0-0.5-0.224-0.5-0.5c0-0.276,0.224-0.5,0.5-0.5l0,0c1.93,0,3.5,1.571,3.5,3.5v3C51.5,16.776,51.276,17,51,17z"/>
	</g>
	<g>
		<path class="st0" d="M16,49.5c-0.276,0-0.5-0.224-0.5-0.5V13.5c0-1.93,1.57-3.5,3.5-3.5h29c0.276,0,0.5,0.224,0.5,0.5
			S48.276,11,48,11c-1.379,0-2.5,1.122-2.5,2.5v31.333c0,0.276-0.224,0.5-0.5,0.5s-0.5-0.224-0.5-0.5V13.5
			c0-0.979,0.403-1.864,1.053-2.5H19c-1.379,0-2.5,1.122-2.5,2.5V49C16.5,49.276,16.276,49.5,16,49.5z"/>
	</g>
	<g>
		<path class="st0" d="M39,37.5H22c-0.276,0-0.5-0.224-0.5-0.5s0.224-0.5,0.5-0.5h17c0.276,0,0.5,0.224,0.5,0.5S39.276,37.5,39,37.5
			z"/>
	</g>
	<g>
		<path class="st0" d="M39,41H22c-0.276,0-0.5-0.224-0.5-0.5S21.724,40,22,40h17c0.276,0,0.5,0.224,0.5,0.5S39.276,41,39,41z"/>
	</g>
	<g>
		<path class="st0" d="M39,45H22c-0.276,0-0.5-0.224-0.5-0.5S21.724,44,22,44h17c0.276,0,0.5,0.224,0.5,0.5S39.276,45,39,45z"/>
	</g>
	<g>
		<path class="st3" d="M37.5,32h-14c-0.552,0-1-0.448-1-1V17c0-0.552,0.448-1,1-1h14c0.552,0,1,0.448,1,1v14
			C38.5,31.552,38.052,32,37.5,32z"/>
		<path class="st0" d="M37.5,32.5h-14c-0.827,0-1.5-0.673-1.5-1.5V17c0-0.827,0.673-1.5,1.5-1.5h14c0.827,0,1.5,0.673,1.5,1.5v14
			C39,31.827,38.327,32.5,37.5,32.5z M23.5,16.5c-0.275,0-0.5,0.224-0.5,0.5v14c0,0.276,0.225,0.5,0.5,0.5h14
			c0.275,0,0.5-0.224,0.5-0.5V17c0-0.276-0.225-0.5-0.5-0.5H23.5z"/>
	</g>
	<g>
		<circle class="st2" cx="49" cy="54" r="8"/>
		<path class="st0" d="M49,62.5c-4.687,0-8.5-3.813-8.5-8.5s3.813-8.5,8.5-8.5s8.5,3.813,8.5,8.5S53.687,62.5,49,62.5z M49,46.5
			c-4.136,0-7.5,3.364-7.5,7.5s3.364,7.5,7.5,7.5s7.5-3.364,7.5-7.5S53.136,46.5,49,46.5z"/>
	</g>
	<g>
		<path class="st0" d="M39,57.5H14c-1.93,0-3.5-1.57-3.5-3.5v-3c0-0.276,0.224-0.5,0.5-0.5h28c0.276,0,0.5,0.224,0.5,0.5
			s-0.224,0.5-0.5,0.5H11.5V54c0,1.378,1.121,2.5,2.5,2.5h25c0.276,0,0.5,0.224,0.5,0.5S39.276,57.5,39,57.5z"/>
	</g>
	<g>
		<path class="st0" d="M49,52c-0.276,0-0.5-0.224-0.5-0.5V50c0-0.276,0.224-0.5,0.5-0.5s0.5,0.224,0.5,0.5v1.5
			C49.5,51.776,49.276,52,49,52z"/>
	</g>
	<g>
		<path class="st0" d="M49,58.5c-0.276,0-0.5-0.224-0.5-0.5v-1.5c0-0.276,0.224-0.5,0.5-0.5s0.5,0.224,0.5,0.5V58
			C49.5,58.276,49.276,58.5,49,58.5z"/>
	</g>
	<g>
		<path class="st0" d="M49.75,57H47c-0.276,0-0.5-0.224-0.5-0.5S46.724,56,47,56h2.75c0.413,0,0.75-0.336,0.75-0.75
			s-0.337-0.75-0.75-0.75h-1.5c-0.965,0-1.75-0.785-1.75-1.75S47.285,51,48.25,51h2.25c0.276,0,0.5,0.224,0.5,0.5S50.776,52,50.5,52
			h-2.25c-0.413,0-0.75,0.336-0.75,0.75s0.337,0.75,0.75,0.75h1.5c0.965,0,1.75,0.785,1.75,1.75S50.715,57,49.75,57z"/>
	</g>
	<g>
		<path class="st0" d="M28,23.5c-1.103,0-2-0.897-2-2s0.897-2,2-2s2,0.897,2,2S29.103,23.5,28,23.5z M28,20.5c-0.552,0-1,0.449-1,1
			s0.448,1,1,1s1-0.449,1-1S28.552,20.5,28,20.5z"/>
	</g>
	<g>
		<path class="st0" d="M33,28.5c-1.103,0-2-0.897-2-2s0.897-2,2-2s2,0.897,2,2S34.103,28.5,33,28.5z M33,25.5c-0.552,0-1,0.449-1,1
			s0.448,1,1,1s1-0.449,1-1S33.552,25.5,33,25.5z"/>
	</g>
	<g>
		<path class="st0" d="M26.5,28.5c-0.128,0-0.256-0.049-0.354-0.146c-0.195-0.195-0.195-0.512,0-0.707l8-8
			c0.195-0.195,0.512-0.195,0.707,0s0.195,0.512,0,0.707l-8,8C26.756,28.451,26.628,28.5,26.5,28.5z"/>
	</g>
</g>
</svg>
