<?xml version="1.0" encoding="utf-8"?>
<!-- Generator: Adobe Illustrator 21.1.0, SVG Export Plug-In . SVG Version: 6.00 Build 0)  -->
<svg version="1.1" id="Icon_Set" xmlns="http://www.w3.org/2000/svg" xmlns:xlink="http://www.w3.org/1999/xlink" x="0px" y="0px"
	 viewBox="0 0 64 64" style="enable-background:new 0 0 64 64;" xml:space="preserve">
<style type="text/css">
	.st0{fill:#263238;}
	.st1{fill:#40C4FF;}
	.st2{fill:#FFD740;}
	.st3{fill:#FF5252;}
	.st4{fill:#4DB6AC;}
	.st5{fill:#FFFFFF;}
	.st6{fill:#4FC3F7;}
</style>
<g id="Transfer">
	<g>
		<path class="st0" d="M21.75,52h-5.5c-1.654,0-3-1.346-3-3V7c0-1.654,1.346-3,3-3h4c0.133,0,0.26,0.053,0.354,0.146L22.957,6.5
			h9.586l2.354-2.354C34.99,4.053,35.117,4,35.25,4h4c1.654,0,3,1.346,3,3v35.5c0,0.276-0.224,0.5-0.5,0.5s-0.5-0.224-0.5-0.5V7
			c0-1.103-0.897-2-2-2h-3.793l-2.354,2.354C33.01,7.447,32.883,7.5,32.75,7.5h-10c-0.133,0-0.26-0.053-0.354-0.146L20.043,5H16.25
			c-1.103,0-2,0.897-2,2v42c0,1.103,0.897,2,2,2h5.5c0.276,0,0.5,0.224,0.5,0.5S22.026,52,21.75,52z"/>
	</g>
	<g>
		<path class="st0" d="M21.75,55h-6c-3.032,0-5.5-2.468-5.5-5.5v-43c0-3.033,2.468-5.5,5.5-5.5h24c3.032,0,5.5,2.467,5.5,5.5v36
			c0,0.276-0.224,0.5-0.5,0.5s-0.5-0.224-0.5-0.5v-36c0-2.481-2.019-4.5-4.5-4.5h-24c-2.481,0-4.5,2.019-4.5,4.5v43
			c0,2.481,2.019,4.5,4.5,4.5h6c0.276,0,0.5,0.224,0.5,0.5S22.026,55,21.75,55z"/>
	</g>
	<g>
		<polygon class="st3" points="38.75,25.5 32.75,19.5 32.75,23 22.75,23 22.75,28 32.75,28 32.75,31.5 		"/>
		<path class="st0" d="M32.75,32c-0.064,0-0.13-0.012-0.191-0.038c-0.187-0.077-0.309-0.26-0.309-0.462v-3h-9.5
			c-0.276,0-0.5-0.224-0.5-0.5v-5c0-0.276,0.224-0.5,0.5-0.5h9.5v-3c0-0.202,0.122-0.385,0.309-0.462
			c0.186-0.077,0.402-0.034,0.545,0.108l6,6c0.195,0.195,0.195,0.512,0,0.707l-6,6C33.008,31.949,32.88,32,32.75,32z M23.25,27.5
			h9.5c0.276,0,0.5,0.224,0.5,0.5v2.293l4.793-4.793l-4.793-4.793V23c0,0.276-0.224,0.5-0.5,0.5h-9.5V27.5z"/>
	</g>
	<g>
		<polygon class="st1" points="16.75,30.5 22.75,36.5 22.75,33 32.75,33 32.75,28 22.75,28 22.75,24.5 		"/>
		<path class="st0" d="M22.75,37c-0.13,0-0.258-0.051-0.354-0.146l-6-6c-0.195-0.195-0.195-0.512,0-0.707l6-6
			c0.144-0.144,0.359-0.186,0.545-0.108c0.187,0.077,0.309,0.26,0.309,0.462v3h9.5c0.276,0,0.5,0.224,0.5,0.5v5
			c0,0.276-0.224,0.5-0.5,0.5h-9.5v3c0,0.202-0.122,0.385-0.309,0.462C22.88,36.987,22.814,37,22.75,37z M17.457,30.5l4.793,4.793
			V33c0-0.276,0.224-0.5,0.5-0.5h9.5v-4h-9.5c-0.276,0-0.5-0.224-0.5-0.5v-2.293L17.457,30.5z"/>
	</g>
	<g>
		<path class="st0" d="M3.75,60h-1c-0.276,0-0.5-0.224-0.5-0.5S2.474,59,2.75,59h1c0.276,0,0.5,0.224,0.5,0.5S4.026,60,3.75,60z"/>
	</g>
	<g>
		<path class="st0" d="M16.75,60h-11c-0.276,0-0.5-0.224-0.5-0.5S5.474,59,5.75,59h11c0.276,0,0.5,0.224,0.5,0.5S17.026,60,16.75,60
			z"/>
	</g>
	<g>
		<path class="st0" d="M20.75,63h-13c-0.276,0-0.5-0.224-0.5-0.5S7.474,62,7.75,62h13c0.276,0,0.5,0.224,0.5,0.5S21.026,63,20.75,63
			z"/>
	</g>
	<g>
		<path class="st0" d="M61.25,21.5h-4c-0.276,0-0.5-0.224-0.5-0.5s0.224-0.5,0.5-0.5h4c0.276,0,0.5,0.224,0.5,0.5
			S61.526,21.5,61.25,21.5z"/>
	</g>
	<g>
		<path class="st0" d="M59.25,23.5c-0.276,0-0.5-0.224-0.5-0.5v-4c0-0.276,0.224-0.5,0.5-0.5s0.5,0.224,0.5,0.5v4
			C59.75,23.276,59.526,23.5,59.25,23.5z"/>
	</g>
	<g>
		<path class="st0" d="M53.25,27h-4c-0.276,0-0.5-0.224-0.5-0.5s0.224-0.5,0.5-0.5h4c0.276,0,0.5,0.224,0.5,0.5S53.526,27,53.25,27z
			"/>
	</g>
	<g>
		<path class="st0" d="M51.25,29c-0.276,0-0.5-0.224-0.5-0.5v-4c0-0.276,0.224-0.5,0.5-0.5s0.5,0.224,0.5,0.5v4
			C51.75,28.776,51.526,29,51.25,29z"/>
	</g>
	<g>
		<path class="st4" d="M57.75,45.5c0-0.552-0.448-1-1-1h-30c-0.552,0-1,0.448-1,1v16c0,0.552,0.448,1,1,1h30c0.552,0,1-0.448,1-1
			V45.5z"/>
		<path class="st0" d="M56.75,63h-30c-0.827,0-1.5-0.673-1.5-1.5v-16c0-0.827,0.673-1.5,1.5-1.5h30c0.827,0,1.5,0.673,1.5,1.5v16
			C58.25,62.327,57.577,63,56.75,63z M26.75,45c-0.275,0-0.5,0.225-0.5,0.5v16c0,0.275,0.225,0.5,0.5,0.5h30
			c0.275,0,0.5-0.225,0.5-0.5v-16c0-0.275-0.225-0.5-0.5-0.5H26.75z"/>
	</g>
	<g>
		<circle class="st5" cx="41.75" cy="53.501" r="6"/>
		<path class="st0" d="M41.75,60.001c-3.584,0-6.5-2.916-6.5-6.5s2.916-6.5,6.5-6.5s6.5,2.916,6.5,6.5S45.334,60.001,41.75,60.001z
			 M41.75,48.001c-3.032,0-5.5,2.468-5.5,5.5s2.468,5.5,5.5,5.5s5.5-2.468,5.5-5.5S44.782,48.001,41.75,48.001z"/>
	</g>
	<g>
		<path class="st0" d="M42.5,56.501h-2.75c-0.276,0-0.5-0.224-0.5-0.5s0.224-0.5,0.5-0.5h2.75c0.413,0,0.75-0.337,0.75-0.75
			s-0.337-0.75-0.75-0.75H41c-0.965,0-1.75-0.785-1.75-1.75s0.785-1.75,1.75-1.75h2.25c0.276,0,0.5,0.224,0.5,0.5
			s-0.224,0.5-0.5,0.5H41c-0.413,0-0.75,0.337-0.75,0.75s0.337,0.75,0.75,0.75h1.5c0.965,0,1.75,0.785,1.75,1.75
			S43.465,56.501,42.5,56.501z"/>
	</g>
	<g>
		<path class="st0" d="M41.75,51.501c-0.276,0-0.5-0.224-0.5-0.5v-1.5c0-0.276,0.224-0.5,0.5-0.5s0.5,0.224,0.5,0.5v1.5
			C42.25,51.277,42.026,51.501,41.75,51.501z"/>
	</g>
	<g>
		<path class="st0" d="M41.75,58.001c-0.276,0-0.5-0.224-0.5-0.5v-1.5c0-0.276,0.224-0.5,0.5-0.5s0.5,0.224,0.5,0.5v1.5
			C42.25,57.777,42.026,58.001,41.75,58.001z"/>
	</g>
	<g>
		<path class="st0" d="M51.436,60H32.064c-0.192,0-0.368-0.11-0.451-0.285c-0.723-1.514-1.98-2.678-3.543-3.277
			c-0.192-0.074-0.32-0.26-0.32-0.467v-4.94c0-0.207,0.128-0.393,0.321-0.467c1.562-0.6,2.819-1.764,3.542-3.278
			C31.696,47.11,31.872,47,32.064,47h19.371c0.192,0,0.368,0.11,0.451,0.285c0.723,1.515,1.98,2.679,3.542,3.278
			c0.193,0.074,0.321,0.26,0.321,0.467v4.94c0,0.207-0.128,0.393-0.32,0.467c-1.562,0.6-2.82,1.764-3.543,3.277
			C51.804,59.89,51.628,60,51.436,60z M32.373,59h18.754c0.797-1.505,2.066-2.684,3.623-3.364v-4.271
			c-1.557-0.681-2.826-1.859-3.623-3.365H32.373c-0.797,1.506-2.066,2.685-3.623,3.365v4.271C30.307,56.316,31.576,57.495,32.373,59
			z"/>
	</g>
</g>
</svg>
