<?xml version="1.0" encoding="utf-8"?>
<!-- Generator: Adobe Illustrator 21.1.0, SVG Export Plug-In . SVG Version: 6.00 Build 0)  -->
<svg version="1.1" id="Icon_Set" xmlns="http://www.w3.org/2000/svg" xmlns:xlink="http://www.w3.org/1999/xlink" x="0px" y="0px"
	 viewBox="0 0 64 64" style="enable-background:new 0 0 64 64;" xml:space="preserve">
<style type="text/css">
	.st0{fill:#263238;}
	.st1{fill:#40C4FF;}
	.st2{fill:#FFD740;}
	.st3{fill:#FF5252;}
	.st4{fill:#4DB6AC;}
	.st5{fill:#FFFFFF;}
	.st6{fill:#4FC3F7;}
</style>
<g id="Unicorn">
	<g>
		<path class="st2" d="M22.38,14.679c-0.204,0.154-0.417,0.289-0.615,0.453l-0.743,0.619C14.628,21.08,10.066,28.478,8.177,36.58
			L4.5,52.335h4.108l3.465-14.846c1.535-6.581,5.051-12.626,9.958-17.258C21.429,18.401,21.553,16.416,22.38,14.679z"/>
	</g>
	<g>
		<path class="st2" d="M24.864,13.114l2.527,3.249c1.553-0.645,3.215-0.96,4.876-0.925l3.318-3.594
			C31.996,11.025,28.196,11.456,24.864,13.114z"/>
	</g>
	<g>
		<path class="st0" d="M9.57,13h-4c-0.276,0-0.5-0.224-0.5-0.5S5.294,12,5.57,12h4c0.276,0,0.5,0.224,0.5,0.5S9.847,13,9.57,13z"/>
	</g>
	<g>
		<path class="st0" d="M7.57,15c-0.276,0-0.5-0.224-0.5-0.5v-4c0-0.276,0.224-0.5,0.5-0.5s0.5,0.224,0.5,0.5v4
			C8.07,14.776,7.847,15,7.57,15z"/>
	</g>
	<g>
		<path class="st0" d="M16.57,6h-4c-0.276,0-0.5-0.224-0.5-0.5S12.294,5,12.57,5h4c0.276,0,0.5,0.224,0.5,0.5S16.847,6,16.57,6z"/>
	</g>
	<g>
		<path class="st0" d="M14.57,8c-0.276,0-0.5-0.224-0.5-0.5v-4c0-0.276,0.224-0.5,0.5-0.5s0.5,0.224,0.5,0.5v4
			C15.07,7.776,14.847,8,14.57,8z"/>
	</g>
	<g>
		<path class="st0" d="M43.637,61c-0.128,0-0.256-0.049-0.354-0.146c-0.195-0.195-0.195-0.512,0-0.707l5.303-5.304
			c0.188-0.188,0.52-0.188,0.707,0l3.182,3.183l6.672-6.672c0.195-0.195,0.512-0.195,0.707,0s0.195,0.512,0,0.707l-7.025,7.025
			c-0.094,0.094-0.221,0.146-0.354,0.146l0,0c-0.133,0-0.26-0.053-0.354-0.146l-3.182-3.183l-4.949,4.95
			C43.893,60.951,43.765,61,43.637,61z"/>
	</g>
	<g>
		<path class="st0" d="M59.5,56.207c-0.276,0-0.5-0.224-0.5-0.5v-3.5h-3.5c-0.276,0-0.5-0.224-0.5-0.5s0.224-0.5,0.5-0.5h4
			c0.276,0,0.5,0.224,0.5,0.5v4C60,55.983,59.776,56.207,59.5,56.207z"/>
	</g>
	<g>
		<path class="st0" d="M32.215,39.606c-3.138,0-6.212-1.406-8.262-4.014l-0.353-0.449c-0.17-0.217-0.133-0.531,0.085-0.702
			c0.216-0.168,0.53-0.134,0.702,0.085l0.353,0.449c2.834,3.605,7.835,4.671,11.895,2.537l2.126-1.12
			c0.246-0.129,0.547-0.036,0.676,0.209s0.035,0.547-0.209,0.676l-2.127,1.12C35.549,39.214,33.873,39.606,32.215,39.606z"/>
	</g>
	<g>
		<path class="st0" d="M23.661,23.71c-0.161,0-0.319-0.078-0.416-0.223l-0.769-1.152c-2.029-3.044-1.737-7.069,0.709-9.789
			l0.604-0.671c0.099-0.109,0.252-0.155,0.389-0.165c0.148,0.006,0.286,0.076,0.377,0.193l7,9c0.17,0.218,0.131,0.532-0.088,0.701
			c-0.217,0.17-0.531,0.13-0.701-0.088l-6.634-8.528l-0.204,0.227c-2.141,2.379-2.396,5.901-0.62,8.565l0.769,1.152
			c0.153,0.229,0.091,0.54-0.139,0.693C23.854,23.683,23.757,23.71,23.661,23.71z"/>
	</g>
	<g>
		<path class="st0" d="M8.607,52.835H4.5c-0.152,0-0.297-0.069-0.392-0.189c-0.095-0.119-0.13-0.275-0.096-0.424l3.677-15.755
			c1.915-8.209,6.536-15.702,13.013-21.099l0.743-0.619c0.132-0.11,0.271-0.209,0.409-0.307l0.225-0.162
			c0.219-0.164,0.533-0.123,0.7,0.099c0.166,0.22,0.122,0.533-0.099,0.7l-0.25,0.181c-0.116,0.082-0.233,0.164-0.344,0.257
			l-0.744,0.619c-6.311,5.259-10.813,12.56-12.679,20.558L5.13,51.835h3.478c0.276,0,0.5,0.224,0.5,0.5S8.884,52.835,8.607,52.835z"
			/>
	</g>
	<g>
		<path class="st0" d="M24.863,13.614c-0.184,0-0.36-0.102-0.447-0.277c-0.123-0.247-0.022-0.547,0.225-0.67
			c3.404-1.695,7.329-2.161,11.055-1.311c0.27,0.062,0.438,0.329,0.376,0.599c-0.062,0.268-0.327,0.441-0.599,0.376
			c-3.496-0.797-7.187-0.36-10.387,1.23C25.015,13.598,24.938,13.614,24.863,13.614z"/>
	</g>
	<g>
		<path class="st0" d="M39.494,57.835h-30c-0.152,0-0.297-0.069-0.392-0.189c-0.095-0.119-0.13-0.275-0.096-0.424l4.524-19.392
			c1.257-5.382,3.891-10.416,7.617-14.559c0.186-0.206,0.504-0.223,0.706-0.038c0.206,0.185,0.223,0.501,0.038,0.706
			c-3.614,4.018-6.169,8.899-7.387,14.117l-4.382,18.778h28.695l-0.542-1.779c-1.837-6.035-1.753-12.391,0.242-18.379
			c0.083-0.249,0.342-0.392,0.6-0.326l13.651,3.523c0.877,0.228,1.791-0.165,2.237-0.944l1.923-3.367
			c0.516-0.9,0.264-2.03-0.585-2.627l-18.871-13.28c-1.923-1.354-4.262-1.941-6.608-1.662c-0.261,0.034-0.523-0.162-0.556-0.437
			c-0.033-0.273,0.162-0.522,0.437-0.556c2.579-0.31,5.177,0.341,7.304,1.836l18.871,13.28c1.272,0.896,1.649,2.59,0.878,3.941
			l-1.924,3.367c-0.67,1.171-2.045,1.753-3.355,1.417l-13.196-3.406c-1.788,5.66-1.821,11.642-0.09,17.328l0.738,2.425
			c0.046,0.151,0.018,0.315-0.077,0.443C39.802,57.76,39.652,57.835,39.494,57.835z"/>
	</g>
	<g>
		<path class="st1" d="M39.661,22.5L39.661,22.5h-0.283c-2.934,0-5.662-1.512-7.217-4v0l12-13L39.661,22.5z"/>
		<path class="st0" d="M39.661,23h-0.283c-3.128,0-5.984-1.583-7.641-4.235c-0.119-0.19-0.097-0.438,0.057-0.604l12-13
			c0.155-0.169,0.407-0.208,0.607-0.1c0.202,0.11,0.302,0.345,0.243,0.566l-4.5,17C40.087,22.848,39.888,23,39.661,23z
			 M32.794,18.552c1.478,2.139,3.868,3.415,6.482,3.447l3.886-14.68L32.794,18.552z"/>
	</g>
	<g>
		<path class="st0" d="M32.161,19c-0.229,0-0.437-0.158-0.488-0.392c-0.06-0.27,0.11-0.536,0.38-0.597l9-2
			c0.271-0.057,0.537,0.11,0.597,0.38s-0.11,0.536-0.38,0.597l-9,2C32.233,18.996,32.196,19,32.161,19z"/>
	</g>
	<g>
		<path class="st0" d="M36.314,14.5c-0.209,0-0.404-0.133-0.475-0.342c-0.087-0.262,0.055-0.545,0.316-0.633l6-2
			c0.263-0.087,0.545,0.055,0.633,0.316c0.087,0.262-0.055,0.545-0.316,0.633l-6,2C36.42,14.492,36.367,14.5,36.314,14.5z"/>
	</g>
</g>
</svg>
