<?xml version="1.0" encoding="utf-8"?>
<!-- Generator: Adobe Illustrator 21.1.0, SVG Export Plug-In . SVG Version: 6.00 Build 0)  -->
<svg version="1.1" id="Icon_Set" xmlns="http://www.w3.org/2000/svg" xmlns:xlink="http://www.w3.org/1999/xlink" x="0px" y="0px"
	 viewBox="0 0 64 64" style="enable-background:new 0 0 64 64;" xml:space="preserve">
<style type="text/css">
	.st0{fill:#263238;}
	.st1{fill:#40C4FF;}
	.st2{fill:#FFD740;}
	.st3{fill:#FF5252;}
	.st4{fill:#4DB6AC;}
	.st5{fill:#FFFFFF;}
	.st6{fill:#4FC3F7;}
</style>
<g id="Value">
	<g>
		<polygon class="st1" points="32,55 13.5,32 18.5,23 45.5,23 50.5,32 		"/>
		<path class="st0" d="M32,55.5c-0.151,0-0.295-0.069-0.39-0.187l-18.5-23c-0.127-0.159-0.146-0.378-0.047-0.556l5-9
			c0.088-0.159,0.255-0.257,0.437-0.257h27c0.182,0,0.349,0.099,0.437,0.257l5,9c0.099,0.178,0.08,0.397-0.047,0.556l-18.5,23
			C32.295,55.431,32.151,55.5,32,55.5z M14.101,31.949L32,54.202l17.899-22.253L45.206,23.5H18.794L14.101,31.949z"/>
	</g>
	<g>
		<path class="st0" d="M32,55.5c-0.213,0-0.402-0.135-0.472-0.336l-8-23c-0.043-0.123-0.036-0.258,0.019-0.375l4.203-9
			c0.082-0.176,0.259-0.289,0.453-0.289h8.094c0.203,0,0.385,0.123,0.462,0.31l3.703,9c0.046,0.113,0.05,0.239,0.01,0.354l-8,23
			C32.402,55.365,32.213,55.5,32,55.5z M24.539,32.027L32,53.478l7.465-21.463L35.962,23.5h-7.441L24.539,32.027z"/>
	</g>
	<g>
		<path class="st0" d="M50.5,32.5h-37c-0.276,0-0.5-0.224-0.5-0.5s0.224-0.5,0.5-0.5h37c0.276,0,0.5,0.224,0.5,0.5
			S50.776,32.5,50.5,32.5z"/>
	</g>
	<g>
		<path class="st0" d="M54,20.5c-0.215,0-0.406-0.138-0.474-0.342L52.973,18.5c-0.231-0.691-0.782-1.242-1.473-1.473l-1.658-0.553
			C49.638,16.406,49.5,16.215,49.5,16s0.138-0.406,0.342-0.474l1.658-0.553c0.691-0.231,1.242-0.782,1.473-1.473l0.553-1.658
			c0.136-0.408,0.812-0.408,0.948,0l0.553,1.658c0.231,0.691,0.782,1.242,1.473,1.473l1.658,0.553
			C58.362,15.594,58.5,15.785,58.5,16s-0.138,0.406-0.342,0.474L56.5,17.027c-0.691,0.231-1.242,0.782-1.473,1.473l-0.553,1.658
			C54.406,20.362,54.215,20.5,54,20.5z M51.581,16l0.235,0.079c0.988,0.33,1.775,1.117,2.105,2.105L54,18.419l0.079-0.235
			c0.33-0.988,1.117-1.775,2.105-2.105L56.419,16l-0.235-0.079c-0.988-0.33-1.775-1.117-2.105-2.105L54,13.581l-0.079,0.235
			c-0.33,0.988-1.117,1.775-2.105,2.105L51.581,16z"/>
	</g>
	<g>
		<path class="st0" d="M10,50.5c-0.215,0-0.406-0.138-0.474-0.342L8.973,48.5c-0.231-0.691-0.782-1.242-1.473-1.473l-1.658-0.553
			C5.638,46.406,5.5,46.215,5.5,46s0.138-0.406,0.342-0.474L7.5,44.973c0.691-0.231,1.242-0.782,1.473-1.473l0.553-1.658
			c0.136-0.408,0.812-0.408,0.948,0l0.553,1.658c0.231,0.691,0.782,1.242,1.473,1.473l1.658,0.553
			C14.362,45.594,14.5,45.785,14.5,46s-0.138,0.406-0.342,0.474L12.5,47.027c-0.691,0.231-1.242,0.782-1.473,1.473l-0.553,1.658
			C10.406,50.362,10.215,50.5,10,50.5z M7.581,46l0.235,0.079c0.988,0.33,1.775,1.117,2.105,2.105L10,48.419l0.079-0.235
			c0.33-0.988,1.117-1.775,2.105-2.105L12.419,46l-0.235-0.079c-0.988-0.33-1.775-1.117-2.105-2.105L10,43.581l-0.079,0.235
			c-0.33,0.988-1.117,1.775-2.105,2.105L7.581,46z"/>
	</g>
	<g>
		<path class="st0" d="M11,59.5h-1c-0.276,0-0.5-0.224-0.5-0.5s0.224-0.5,0.5-0.5h1c0.276,0,0.5,0.224,0.5,0.5S11.276,59.5,11,59.5z
			"/>
	</g>
	<g>
		<path class="st0" d="M24,59.5H13c-0.276,0-0.5-0.224-0.5-0.5s0.224-0.5,0.5-0.5h11c0.276,0,0.5,0.224,0.5,0.5S24.276,59.5,24,59.5
			z"/>
	</g>
	<g>
		<path class="st0" d="M28,62.5H15c-0.276,0-0.5-0.224-0.5-0.5s0.224-0.5,0.5-0.5h13c0.276,0,0.5,0.224,0.5,0.5S28.276,62.5,28,62.5
			z"/>
	</g>
	<g>
		<path class="st0" d="M54,59.5h-1c-0.276,0-0.5-0.224-0.5-0.5s0.224-0.5,0.5-0.5h1c0.276,0,0.5,0.224,0.5,0.5S54.276,59.5,54,59.5z
			"/>
	</g>
	<g>
		<path class="st0" d="M51,59.5H40c-0.276,0-0.5-0.224-0.5-0.5s0.224-0.5,0.5-0.5h11c0.276,0,0.5,0.224,0.5,0.5S51.276,59.5,51,59.5
			z"/>
	</g>
	<g>
		<path class="st0" d="M49,62.5H36c-0.276,0-0.5-0.224-0.5-0.5s0.224-0.5,0.5-0.5h13c0.276,0,0.5,0.224,0.5,0.5S49.276,62.5,49,62.5
			z"/>
	</g>
	<g>
		<circle class="st4" cx="32.5" cy="9.5" r="7.5"/>
	</g>
	<g>
		<path class="st0" d="M31.086,12.329c-0.133,0-0.26-0.053-0.354-0.146l-2.829-2.829c-0.195-0.195-0.195-0.512,0-0.707
			s0.512-0.195,0.707,0l2.475,2.475l4.95-4.95c0.195-0.195,0.512-0.195,0.707,0s0.195,0.512,0,0.707l-5.303,5.304
			C31.346,12.276,31.219,12.329,31.086,12.329z"/>
	</g>
</g>
</svg>
