<?xml version="1.0" encoding="utf-8"?>
<!-- Generator: Adobe Illustrator 21.1.0, SVG Export Plug-In . SVG Version: 6.00 Build 0)  -->
<svg version="1.1" id="Icon_Set" xmlns="http://www.w3.org/2000/svg" xmlns:xlink="http://www.w3.org/1999/xlink" x="0px" y="0px"
	 viewBox="0 0 64 64" style="enable-background:new 0 0 64 64;" xml:space="preserve">
<style type="text/css">
	.st0{fill:#263238;}
	.st1{fill:#40C4FF;}
	.st2{fill:#FFD740;}
	.st3{fill:#FF5252;}
	.st4{fill:#4DB6AC;}
	.st5{fill:#FFFFFF;}
	.st6{fill:#4FC3F7;}
</style>
<g id="Wallet">
	<g>
		<path class="st0" d="M13,16.5c-0.276,0-0.5-0.224-0.5-0.5v-4c0-0.276,0.224-0.5,0.5-0.5s0.5,0.224,0.5,0.5v4
			C13.5,16.276,13.276,16.5,13,16.5z"/>
	</g>
	<g>
		<path class="st0" d="M15,14.5h-4c-0.276,0-0.5-0.224-0.5-0.5s0.224-0.5,0.5-0.5h4c0.276,0,0.5,0.224,0.5,0.5S15.276,14.5,15,14.5z
			"/>
	</g>
	<g>
		<path class="st0" d="M6,9.5C5.724,9.5,5.5,9.276,5.5,9V5c0-0.276,0.224-0.5,0.5-0.5S6.5,4.724,6.5,5v4C6.5,9.276,6.276,9.5,6,9.5z
			"/>
	</g>
	<g>
		<path class="st0" d="M8,7.5H4C3.724,7.5,3.5,7.276,3.5,7S3.724,6.5,4,6.5h4c0.276,0,0.5,0.224,0.5,0.5S8.276,7.5,8,7.5z"/>
	</g>
	<g>
		<path class="st4" d="M43.835,22.5l2.001-2.001c0.439-0.439,0.479-1.112,0.088-1.503L33.196,6.269
			c-0.391-0.391-1.063-0.351-1.503,0.088L15.551,22.5"/>
		<path class="st0" d="M43.835,23c-0.128,0-0.256-0.049-0.354-0.146c-0.195-0.195-0.195-0.512,0-0.707l2-2.001
			c0.126-0.126,0.2-0.284,0.21-0.445c0.004-0.08-0.005-0.232-0.122-0.35L32.843,6.622c-0.196-0.194-0.553-0.154-0.796,0.089
			L15.904,22.854c-0.195,0.195-0.512,0.195-0.707,0s-0.195-0.512,0-0.707L31.34,6.004c0.299-0.299,0.688-0.478,1.094-0.501
			c0.433-0.022,0.826,0.121,1.116,0.412l12.728,12.729c0.584,0.585,0.545,1.575-0.088,2.209l-2,2.001
			C44.091,22.951,43.963,23,43.835,23z"/>
	</g>
	<g>
		<path class="st0" d="M14,55.5h-2.5c-0.276,0-0.5-0.224-0.5-0.5s0.224-0.5,0.5-0.5H14c0.276,0,0.5,0.224,0.5,0.5
			S14.276,55.5,14,55.5z"/>
	</g>
	<g>
		<path class="st0" d="M19,55.5h-2.5c-0.276,0-0.5-0.224-0.5-0.5s0.224-0.5,0.5-0.5H19c0.276,0,0.5,0.224,0.5,0.5
			S19.276,55.5,19,55.5z"/>
	</g>
	<g>
		<path class="st0" d="M24,55.5h-2.5c-0.276,0-0.5-0.224-0.5-0.5s0.224-0.5,0.5-0.5H24c0.276,0,0.5,0.224,0.5,0.5
			S24.276,55.5,24,55.5z"/>
	</g>
	<g>
		<path class="st0" d="M29,55.5h-2.5c-0.276,0-0.5-0.224-0.5-0.5s0.224-0.5,0.5-0.5H29c0.276,0,0.5,0.224,0.5,0.5
			S29.276,55.5,29,55.5z"/>
	</g>
	<g>
		<path class="st0" d="M34,55.5h-2.5c-0.276,0-0.5-0.224-0.5-0.5s0.224-0.5,0.5-0.5H34c0.276,0,0.5,0.224,0.5,0.5
			S34.276,55.5,34,55.5z"/>
	</g>
	<g>
		<path class="st0" d="M39,55.5h-2.5c-0.276,0-0.5-0.224-0.5-0.5s0.224-0.5,0.5-0.5H39c0.276,0,0.5,0.224,0.5,0.5
			S39.276,55.5,39,55.5z"/>
	</g>
	<g>
		<path class="st0" d="M44,55.5h-2.5c-0.276,0-0.5-0.224-0.5-0.5s0.224-0.5,0.5-0.5H44c0.276,0,0.5,0.224,0.5,0.5
			S44.276,55.5,44,55.5z"/>
	</g>
	<g>
		<path class="st0" d="M49,55.5h-2.5c-0.276,0-0.5-0.224-0.5-0.5s0.224-0.5,0.5-0.5H49c0.276,0,0.5,0.224,0.5,0.5
			S49.276,55.5,49,55.5z"/>
	</g>
	<g>
		<path class="st0" d="M49.5,59.5H11c-1.654,0-3-1.346-3-3V27c0-1.654,1.346-3,3-3h38.5c1.654,0,3,1.346,3,3v8
			c0,0.276-0.224,0.5-0.5,0.5s-0.5-0.224-0.5-0.5v-8c0-1.103-0.897-2-2-2H11c-1.103,0-2,0.897-2,2v29.5c0,1.103,0.897,2,2,2h38.5
			c1.103,0,2-0.897,2-2V49c0-0.276,0.224-0.5,0.5-0.5s0.5,0.224,0.5,0.5v7.5C52.5,58.154,51.154,59.5,49.5,59.5z"/>
	</g>
	<g>
		<path class="st2" d="M53.5,46h-13c-0.552,0-1-0.448-1-1v-6c0-0.552,0.448-1,1-1h13c0.552,0,1,0.448,1,1v6
			C54.5,45.552,54.052,46,53.5,46z"/>
		<path class="st0" d="M53.5,46.5h-13c-0.827,0-1.5-0.673-1.5-1.5v-6c0-0.827,0.673-1.5,1.5-1.5h13c0.827,0,1.5,0.673,1.5,1.5v6
			C55,45.827,54.327,46.5,53.5,46.5z M40.5,38.5c-0.276,0-0.5,0.225-0.5,0.5v6c0,0.275,0.224,0.5,0.5,0.5h13
			c0.276,0,0.5-0.225,0.5-0.5v-6c0-0.275-0.224-0.5-0.5-0.5H40.5z"/>
	</g>
	<g>
		<circle class="st5" cx="43.5" cy="42" r="2"/>
		<path class="st0" d="M43.5,44.5c-1.378,0-2.5-1.121-2.5-2.5s1.122-2.5,2.5-2.5S46,40.621,46,42S44.878,44.5,43.5,44.5z M43.5,40.5
			c-0.827,0-1.5,0.673-1.5,1.5s0.673,1.5,1.5,1.5S45,42.827,45,42S44.327,40.5,43.5,40.5z"/>
	</g>
	<g>
		<path class="st0" d="M49,33c-0.276,0-0.5-0.224-0.5-0.5v-4c0-0.275-0.224-0.5-0.5-0.5h-4c-0.276,0-0.5-0.224-0.5-0.5
			S43.724,27,44,27h4c0.827,0,1.5,0.673,1.5,1.5v4C49.5,32.776,49.276,33,49,33z"/>
	</g>
	<g>
		<path class="st5" d="M33.215,22.5c-0.339-0.757-0.811-1.468-1.432-2.089c-2.734-2.734-7.166-2.734-9.9,0
			c-0.621,0.621-1.094,1.332-1.432,2.089"/>
		<path class="st0" d="M33.215,23c-0.191,0-0.374-0.11-0.457-0.296c-0.328-0.732-0.775-1.385-1.33-1.939
			c-2.534-2.533-6.658-2.533-9.192,0c-0.554,0.555-1.002,1.207-1.33,1.939c-0.113,0.251-0.409,0.368-0.661,0.252
			c-0.252-0.112-0.365-0.408-0.252-0.66c0.378-0.845,0.895-1.598,1.536-2.238c2.924-2.923,7.682-2.924,10.606,0
			c0.641,0.641,1.157,1.394,1.536,2.238c0.113,0.252,0,0.548-0.252,0.66C33.353,22.986,33.283,23,33.215,23z"/>
	</g>
	<g>
		<path class="st0" d="M39.261,23c-0.213,0-0.411-0.137-0.478-0.352c-0.511-1.64-0.451-3.392,0.166-4.97l-4.434-4.434
			c-1.581,0.62-3.313,0.685-4.941,0.182l-7.337,7.338c-0.195,0.195-0.512,0.195-0.707,0s-0.195-0.512,0-0.707l7.555-7.556
			c0.136-0.138,0.338-0.18,0.521-0.118c1.581,0.561,3.294,0.495,4.824-0.187c0.188-0.084,0.41-0.043,0.557,0.104l4.907,4.907
			c0.146,0.146,0.188,0.368,0.104,0.557c-0.64,1.438-0.731,3.066-0.258,4.587c0.082,0.264-0.065,0.544-0.329,0.626
			C39.36,22.993,39.31,23,39.261,23z"/>
	</g>
	<g>
		<path class="st0" d="M60,6h-1c-0.276,0-0.5-0.224-0.5-0.5S58.724,5,59,5h1c0.276,0,0.5,0.224,0.5,0.5S60.276,6,60,6z"/>
	</g>
	<g>
		<path class="st0" d="M57,6H46c-0.276,0-0.5-0.224-0.5-0.5S45.724,5,46,5h11c0.276,0,0.5,0.224,0.5,0.5S57.276,6,57,6z"/>
	</g>
	<g>
		<path class="st0" d="M55,9H42c-0.276,0-0.5-0.224-0.5-0.5S41.724,8,42,8h13c0.276,0,0.5,0.224,0.5,0.5S55.276,9,55,9z"/>
	</g>
</g>
</svg>
