<?xml version="1.0" encoding="utf-8"?>
<!-- Generator: Adobe Illustrator 22.0.0, SVG Export Plug-In . SVG Version: 6.00 Build 0)  -->
<svg version="1.1" id="Icon_Set" xmlns="http://www.w3.org/2000/svg" xmlns:xlink="http://www.w3.org/1999/xlink" x="0px" y="0px"
	 viewBox="0 0 64 64" style="enable-background:new 0 0 64 64;" xml:space="preserve">
<style type="text/css">
	.st0{fill:#40C4FF;}
	.st1{fill:#263238;}
	.st2{fill:#FFD740;}
	.st3{fill:#FF5252;}
	.st4{fill:#4DB6AC;}
	.st5{fill:#FFFFFF;}
	.st6{fill:#4FC3F7;}
	.st7{fill:#37474F;}
</style>
<g>
	<g>
		<g>
			<path class="st1" d="M32.002,13c-3.584,0-6.5-2.916-6.5-6.5s2.916-6.5,6.5-6.5s6.5,2.916,6.5,6.5S35.586,13,32.002,13z M32.002,1
				c-3.032,0-5.5,2.467-5.5,5.5s2.468,5.5,5.5,5.5s5.5-2.467,5.5-5.5S35.034,1,32.002,1z"/>
		</g>
		<g>
			<path class="st2" d="M36.162,3.031l0.447-0.372C35.508,1.34,33.854,0.5,32.002,0.5c-3.314,0-6,2.686-6,6h0.566
				C30.073,6.5,33.468,5.273,36.162,3.031z"/>
			<path class="st1" d="M26.568,7h-0.566c-0.276,0-0.5-0.224-0.5-0.5c0-3.584,2.916-6.5,6.5-6.5c1.932,0,3.751,0.852,4.991,2.338
				c0.085,0.102,0.126,0.233,0.114,0.366s-0.076,0.254-0.179,0.339l-0.447,0.372C33.703,5.727,30.183,7,26.568,7z M26.524,6h0.044
				c3.381,0,6.675-1.191,9.274-3.354l0,0l0.045-0.038C34.859,1.581,33.469,1,32.002,1C29.138,1,26.777,3.201,26.524,6z"/>
		</g>
	</g>
	<g>
		<g>
			<path class="st1" d="M31.997,17.468c-0.145,0-0.283-0.063-0.378-0.172l-3.004-3.463c-0.078-0.091-0.122-0.207-0.122-0.327
				l-0.001-1.82c0-0.179,0.096-0.345,0.251-0.434c0.155-0.089,0.346-0.088,0.501,0.001c1.672,0.975,3.822,0.979,5.498,0.011
				c0.154-0.089,0.346-0.089,0.5,0c0.154,0.089,0.25,0.254,0.25,0.433l0.001,1.798c0,0.12-0.043,0.236-0.121,0.327l-2.996,3.473
				C32.281,17.404,32.143,17.468,31.997,17.468C31.997,17.468,31.997,17.468,31.997,17.468z M29.493,13.318l2.503,2.885l2.497-2.894
				L34.492,12.5c-1.583,0.66-3.419,0.657-5-0.008L29.493,13.318z"/>
		</g>
		<g>
			<path class="st1" d="M38.002,31h-12c-0.276,0-0.5-0.224-0.5-0.5v-11h-2.646c-2.097,0-3.981-1.165-4.919-3.04l-4.171-8.342
				c-0.123-0.247-0.023-0.547,0.224-0.671l3.578-1.789c0.119-0.06,0.256-0.069,0.382-0.027c0.126,0.042,0.229,0.132,0.289,0.25
				l3.756,7.513c0.341,0.682,1.026,1.105,1.789,1.105h2.101l2.886-1.442c0.204-0.101,0.452-0.053,0.601,0.119l2.628,3.023
				l2.616-3.032c0.15-0.173,0.398-0.222,0.603-0.121l1.518,0.759c1.057,0.528,1.931,1.402,2.46,2.46l3.009,6.021
				c0.341,0.682,1.026,1.106,1.789,1.106h5.219c0.276,0,0.5,0.224,0.5,0.5v4c0,0.276-0.224,0.5-0.5,0.5h-6.146
				c-1.857,0-3.549-0.915-4.562-2.428V30.5C38.502,30.776,38.278,31,38.002,31z M26.502,30h11v-6.051
				c0-0.232,0.159-0.433,0.385-0.487c0.23-0.052,0.459,0.056,0.562,0.263l0.591,1.181c0.767,1.535,2.309,2.488,4.024,2.488h5.646v-3
				h-4.719c-1.144,0-2.172-0.636-2.684-1.659L38.3,16.715c-0.433-0.866-1.147-1.581-2.013-2.013l-1.17-0.585l-2.739,3.174
				c-0.095,0.11-0.233,0.173-0.378,0.173h-0.001c-0.145,0-0.282-0.062-0.377-0.172l-2.752-3.167l-2.645,1.322
				c-0.069,0.035-0.146,0.053-0.224,0.053h-2.219c-1.144,0-2.172-0.635-2.684-1.658l-3.532-7.065l-2.684,1.342l3.947,7.895
				c0.767,1.534,2.309,2.487,4.024,2.487h3.146c0.276,0,0.5,0.224,0.5,0.5V30z"/>
		</g>
		<g>
			<path class="st1" d="M37.002,55h-2.1c-0.771,0-1.411-0.577-1.492-1.343l-1.408-13.38l-1.409,13.38
				C30.512,54.423,29.871,55,29.102,55h-2.1c-0.827,0-1.5-0.673-1.5-1.5v-23c0-0.276,0.224-0.5,0.5-0.5h12
				c0.276,0,0.5,0.224,0.5,0.5v23C38.502,54.327,37.829,55,37.002,55z M32.002,35L32.002,35c0.256,0,0.471,0.193,0.497,0.448
				l1.905,18.104C34.432,53.808,34.646,54,34.902,54h2.1c0.275,0,0.5-0.224,0.5-0.5V31h-11v22.5c0,0.276,0.225,0.5,0.5,0.5h2.1
				c0.256,0,0.47-0.192,0.497-0.448l1.906-18.104C31.531,35.193,31.746,35,32.002,35z"/>
		</g>
		<g>
			<polygon class="st0" points="33.492,24.468 32.001,26.468 30.492,24.468 30.992,15.468 32.992,15.468 			"/>
			<path class="st1" d="M32.001,26.968c-0.157,0-0.305-0.074-0.399-0.199l-1.509-2c-0.071-0.095-0.106-0.211-0.1-0.329l0.5-9
				c0.015-0.265,0.233-0.472,0.499-0.472h2c0.266,0,0.484,0.208,0.499,0.472l0.5,9c0.007,0.117-0.028,0.233-0.099,0.327l-1.491,2
				C32.308,26.893,32.16,26.967,32.001,26.968L32.001,26.968z M31.002,24.313l0.997,1.321l0.983-1.32l-0.463-8.347h-1.055
				L31.002,24.313z"/>
		</g>
		<g>
			<path class="st1" d="M51.211,28.394c-0.276,0-0.5-0.224-0.5-0.5s0.224-0.5,0.5-0.5c0.827,0,1.5-0.673,1.5-1.5s-0.673-1.5-1.5-1.5
				c-0.276,0-0.5-0.224-0.5-0.5s0.224-0.5,0.5-0.5c1.379,0,2.5,1.122,2.5,2.5S52.59,28.394,51.211,28.394z"/>
		</g>
		<g>
			<path class="st1" d="M13.318,6.601c-0.184,0-0.359-0.102-0.447-0.277c-0.298-0.597-0.346-1.275-0.134-1.909
				s0.658-1.146,1.256-1.444c0.598-0.298,1.275-0.346,1.908-0.133c0.634,0.212,1.146,0.658,1.443,1.255
				c0.123,0.247,0.022,0.547-0.225,0.67c-0.245,0.123-0.548,0.023-0.67-0.225c-0.179-0.358-0.486-0.625-0.866-0.752
				c-0.378-0.126-0.787-0.099-1.146,0.08c-0.358,0.179-0.626,0.487-0.753,0.867s-0.099,0.787,0.08,1.145
				c0.123,0.247,0.023,0.547-0.224,0.67C13.47,6.584,13.394,6.601,13.318,6.601z"/>
		</g>
	</g>
	<g>
		<path class="st1" d="M51.211,22.394c-0.276,0-0.5-0.224-0.5-0.5v-17c0-0.276,0.224-0.5,0.5-0.5s0.5,0.224,0.5,0.5v17
			C51.711,22.17,51.487,22.394,51.211,22.394z"/>
	</g>
	<g>
		<polygon class="st3" points="51.211,12.894 51.211,5.894 60.211,9.394 		"/>
		<path class="st1" d="M51.211,13.394c-0.1,0-0.198-0.03-0.282-0.087c-0.137-0.093-0.218-0.248-0.218-0.413v-7
			c0-0.165,0.081-0.319,0.218-0.413c0.136-0.094,0.311-0.113,0.464-0.053l9,3.5c0.191,0.075,0.318,0.26,0.318,0.466
			s-0.127,0.391-0.318,0.466l-9,3.5C51.334,13.383,51.272,13.394,51.211,13.394z M51.711,6.625v5.538l7.12-2.769L51.711,6.625z"/>
	</g>
	<g>
		<path class="st1" d="M53,64H11c-0.198,0-0.378-0.118-0.458-0.299c-0.08-0.182-0.044-0.394,0.091-0.54l15.002-16.252
			c0.14-0.151,0.359-0.2,0.549-0.126c0.192,0.075,0.318,0.26,0.318,0.466V53.5c0,0.276,0.225,0.5,0.5,0.5h2.1
			c0.256,0,0.47-0.192,0.497-0.448l1.594-15.141c0.021-0.196,0.155-0.362,0.343-0.423c0.306-0.1,0.628-0.099,0.934,0.001
			c0.188,0.061,0.321,0.227,0.342,0.423l1.594,15.14C34.432,53.808,34.646,54,34.902,54h2.1c0.275,0,0.5-0.224,0.5-0.5v-6.248
			c0-0.206,0.126-0.391,0.318-0.466c0.189-0.073,0.408-0.025,0.549,0.126l14.998,16.248c0.135,0.146,0.171,0.358,0.091,0.54
			C53.378,63.882,53.198,64,53,64z M12.142,63h39.717L38.502,48.531V53.5c0,0.827-0.673,1.5-1.5,1.5h-2.1
			c-0.771,0-1.411-0.577-1.492-1.343l-1.409-13.381l-1.408,13.381C30.512,54.423,29.871,55,29.102,55h-2.1
			c-0.827,0-1.5-0.673-1.5-1.5v-4.974L12.142,63z"/>
	</g>
	<g>
		<path class="st1" d="M14,37.5H4c-0.276,0-0.5-0.224-0.5-0.5s0.224-0.5,0.5-0.5h10c0.276,0,0.5,0.224,0.5,0.5S14.276,37.5,14,37.5z
			"/>
	</g>
	<g>
		<path class="st1" d="M2,37.5H1c-0.276,0-0.5-0.224-0.5-0.5s0.224-0.5,0.5-0.5h1c0.276,0,0.5,0.224,0.5,0.5S2.276,37.5,2,37.5z"/>
	</g>
	<g>
		<path class="st1" d="M60,37.5H50c-0.276,0-0.5-0.224-0.5-0.5s0.224-0.5,0.5-0.5h10c0.276,0,0.5,0.224,0.5,0.5S60.276,37.5,60,37.5
			z"/>
	</g>
	<g>
		<path class="st1" d="M63,37.5h-1c-0.276,0-0.5-0.224-0.5-0.5s0.224-0.5,0.5-0.5h1c0.276,0,0.5,0.224,0.5,0.5S63.276,37.5,63,37.5z
			"/>
	</g>
	<g>
		<path class="st1" d="M13.5,21.5h-4C9.224,21.5,9,21.276,9,21s0.224-0.5,0.5-0.5h4c0.276,0,0.5,0.224,0.5,0.5
			S13.776,21.5,13.5,21.5z"/>
	</g>
	<g>
		<path class="st1" d="M10,15H6c-0.276,0-0.5-0.224-0.5-0.5S5.724,14,6,14h4c0.276,0,0.5,0.224,0.5,0.5S10.276,15,10,15z"/>
	</g>
	<g>
		<path class="st1" d="M8,17c-0.276,0-0.5-0.224-0.5-0.5v-4C7.5,12.224,7.724,12,8,12s0.5,0.224,0.5,0.5v4C8.5,16.776,8.276,17,8,17
			z"/>
	</g>
	<g>
		<path class="st1" d="M11.5,23.5c-0.276,0-0.5-0.224-0.5-0.5v-4c0-0.276,0.224-0.5,0.5-0.5S12,18.724,12,19v4
			C12,23.276,11.776,23.5,11.5,23.5z"/>
	</g>
</g>
</svg>
