<?xml version="1.0" encoding="utf-8"?>
<!-- Generator: Adobe Illustrator 22.0.0, SVG Export Plug-In . SVG Version: 6.00 Build 0)  -->
<svg version="1.1" id="Icon_Set" xmlns="http://www.w3.org/2000/svg" xmlns:xlink="http://www.w3.org/1999/xlink" x="0px" y="0px"
	 viewBox="0 0 64 64" style="enable-background:new 0 0 64 64;" xml:space="preserve">
<style type="text/css">
	.st0{fill:#40C4FF;}
	.st1{fill:#263238;}
	.st2{fill:#FFD740;}
	.st3{fill:#FF5252;}
	.st4{fill:#4DB6AC;}
	.st5{fill:#FFFFFF;}
	.st6{fill:#4FC3F7;}
	.st7{fill:#37474F;}
</style>
<g>
	<g>
		<path class="st1" d="M5.825,25.439c-0.057,0-0.115-0.01-0.171-0.03c-0.259-0.095-0.393-0.381-0.298-0.641
			c2.543-6.979,7.85-12.811,14.559-16c0.25-0.119,0.547-0.012,0.667,0.237c0.119,0.25,0.012,0.548-0.237,0.667
			c-6.474,3.078-11.595,8.706-14.049,15.44C6.221,25.313,6.029,25.439,5.825,25.439z"/>
	</g>
	<g>
		<path class="st1" d="M10.508,41.5c-3.584,0-6.5-2.916-6.5-6.5s2.916-6.5,6.5-6.5s6.5,2.916,6.5,6.5S14.092,41.5,10.508,41.5z
			 M10.508,29.5c-3.033,0-5.5,2.467-5.5,5.5s2.467,5.5,5.5,5.5s5.5-2.467,5.5-5.5S13.541,29.5,10.508,29.5z"/>
	</g>
	<g>
		<path class="st2" d="M14.668,31.531l0.447-0.372C14.015,29.84,12.36,29,10.508,29c-3.314,0-6,2.686-6,6h0.566
			C8.58,35,11.974,33.772,14.668,31.531z"/>
		<path class="st1" d="M5.075,35.5H4.508c-0.276,0-0.5-0.224-0.5-0.5c0-3.584,2.916-6.5,6.5-6.5c1.931,0,3.75,0.852,4.991,2.338
			c0.085,0.102,0.126,0.233,0.114,0.366c-0.012,0.132-0.076,0.254-0.178,0.339l-0.447,0.372C12.21,34.227,8.689,35.5,5.075,35.5z
			 M5.031,34.5h0.044c3.381,0,6.675-1.191,9.274-3.354l0,0l0.045-0.038c-1.029-1.028-2.419-1.609-3.885-1.609
			C7.644,29.5,5.284,31.701,5.031,34.5z"/>
	</g>
	<g>
		<path class="st1" d="M7.497,42.505c-0.276,0-0.5-0.224-0.5-0.5l-0.001-1.82c0-0.179,0.095-0.344,0.25-0.434
			c0.155-0.089,0.347-0.089,0.501,0.001c1.675,0.975,3.82,0.978,5.5,0.011c0.154-0.089,0.345-0.089,0.5,0
			c0.155,0.089,0.25,0.254,0.25,0.433l0.001,1.798c0,0.276-0.224,0.5-0.5,0.5c0,0,0,0,0,0c-0.276,0-0.5-0.224-0.5-0.5l0-0.996
			c-1.585,0.66-3.418,0.657-5-0.008l0.001,1.013C7.997,42.281,7.773,42.505,7.497,42.505L7.497,42.505z"/>
	</g>
	<g>
		<path class="st1" d="M20.506,51c-0.276,0-0.5-0.224-0.5-0.5v-1.91c0-1.715-0.953-3.257-2.488-4.025l-3.851-1.925l-2.751,4.106
			c-0.093,0.138-0.249,0.222-0.415,0.222h0c-0.167,0-0.322-0.083-0.415-0.221l-2.759-4.099L3.49,44.565
			c-1.536,0.767-2.489,2.31-2.489,4.026V50.5c0,0.276-0.224,0.5-0.5,0.5s-0.5-0.224-0.5-0.5v-1.909c0-2.098,1.166-3.983,3.042-4.92
			l4.23-2.113c0.227-0.112,0.498-0.04,0.638,0.168l2.588,3.845l2.582-3.854c0.14-0.208,0.414-0.281,0.639-0.169l4.245,2.122
			c1.875,0.938,3.041,2.823,3.041,4.919v1.91C21.006,50.776,20.782,51,20.506,51z"/>
	</g>
	<g>
		<path class="st1" d="M10.501,49.968c-0.276,0-0.5-0.224-0.5-0.5v-3c0-0.276,0.224-0.5,0.5-0.5s0.5,0.224,0.5,0.5v3
			C11.001,49.744,10.777,49.968,10.501,49.968z"/>
	</g>
	<g>
		<path class="st1" d="M53.503,41.5c-3.584,0-6.5-2.916-6.5-6.5s2.916-6.5,6.5-6.5s6.5,2.916,6.5,6.5S57.087,41.5,53.503,41.5z
			 M53.503,29.5c-3.033,0-5.5,2.467-5.5,5.5s2.467,5.5,5.5,5.5s5.5-2.467,5.5-5.5S56.536,29.5,53.503,29.5z"/>
	</g>
	<g>
		<path class="st2" d="M57.663,31.531l0.447-0.372C57.01,29.84,55.355,29,53.503,29c-3.314,0-6,2.686-6,6h0.566
			C51.574,35,54.969,33.772,57.663,31.531z"/>
		<path class="st1" d="M48.069,35.5h-0.566c-0.276,0-0.5-0.224-0.5-0.5c0-3.584,2.916-6.5,6.5-6.5c1.932,0,3.751,0.852,4.991,2.338
			c0.085,0.102,0.126,0.233,0.114,0.366c-0.012,0.132-0.076,0.254-0.178,0.339l-0.447,0.372C55.205,34.227,51.684,35.5,48.069,35.5z
			 M48.025,34.5h0.044c3.381,0,6.675-1.191,9.274-3.354l0,0l0.045-0.038C56.36,30.081,54.97,29.5,53.503,29.5
			C50.639,29.5,48.279,31.701,48.025,34.5z"/>
	</g>
	<g>
		<path class="st1" d="M50.492,42.505c-0.276,0-0.5-0.224-0.5-0.5l-0.001-1.82c0-0.179,0.095-0.345,0.25-0.434
			c0.156-0.089,0.347-0.089,0.501,0.001c1.675,0.975,3.821,0.978,5.499,0.011c0.154-0.089,0.345-0.089,0.5,0
			c0.155,0.089,0.25,0.254,0.25,0.433l0.001,1.798c0,0.276-0.224,0.5-0.5,0.5h0c-0.276,0-0.5-0.224-0.5-0.5L55.991,41
			c-1.583,0.66-3.417,0.657-5-0.008l0.001,1.013C50.992,42.281,50.769,42.505,50.492,42.505L50.492,42.505z"/>
	</g>
	<g>
		<path class="st1" d="M63.5,51c-0.276,0-0.5-0.224-0.5-0.5v-1.91c0-1.715-0.953-3.258-2.488-4.025l-3.851-1.925l-2.751,4.106
			c-0.093,0.138-0.249,0.222-0.415,0.222h0c-0.167,0-0.322-0.083-0.415-0.221l-2.758-4.099l-3.838,1.917
			c-1.536,0.767-2.489,2.31-2.489,4.026V50.5c0,0.276-0.224,0.5-0.5,0.5s-0.5-0.224-0.5-0.5v-1.909c0-2.098,1.166-3.983,3.042-4.92
			l4.231-2.113c0.227-0.112,0.499-0.04,0.639,0.168l2.587,3.845l2.582-3.854c0.14-0.208,0.413-0.281,0.639-0.169l4.245,2.122
			C62.835,44.608,64,46.493,64,48.59v1.91C64,50.776,63.777,51,63.5,51z"/>
	</g>
	<g>
		<path class="st1" d="M53.496,49.968c-0.276,0-0.5-0.224-0.5-0.5v-3c0-0.276,0.224-0.5,0.5-0.5s0.5,0.224,0.5,0.5v3
			C53.996,49.744,53.772,49.968,53.496,49.968z"/>
	</g>
	<g>
		<path class="st1" d="M32.005,15.5c-3.584,0-6.5-2.916-6.5-6.5s2.916-6.5,6.5-6.5s6.5,2.916,6.5,6.5S35.589,15.5,32.005,15.5z
			 M32.005,3.5c-3.033,0-5.5,2.467-5.5,5.5s2.467,5.5,5.5,5.5s5.5-2.467,5.5-5.5S35.038,3.5,32.005,3.5z"/>
	</g>
	<g>
		<path class="st2" d="M36.166,5.531l0.447-0.372C35.512,3.84,33.857,3,32.005,3c-3.314,0-6,2.686-6,6h0.566
			C30.077,9,33.471,7.772,36.166,5.531z"/>
		<path class="st1" d="M26.572,9.5h-0.566c-0.276,0-0.5-0.224-0.5-0.5c0-3.584,2.916-6.5,6.5-6.5c1.932,0,3.751,0.852,4.991,2.338
			c0.085,0.102,0.126,0.233,0.114,0.366c-0.012,0.132-0.076,0.254-0.178,0.339l-0.447,0.372l0,0C33.708,8.227,30.187,9.5,26.572,9.5
			z M26.528,8.5h0.044c3.381,0,6.675-1.191,9.274-3.354l0.045-0.037C34.862,4.081,33.472,3.5,32.005,3.5
			C29.141,3.5,26.781,5.701,26.528,8.5z M36.166,5.531h0.01H36.166z"/>
	</g>
	<g>
		<path class="st1" d="M28.995,16.505c-0.276,0-0.5-0.224-0.5-0.5l-0.001-1.82c0-0.179,0.095-0.344,0.25-0.434
			c0.156-0.089,0.347-0.089,0.501,0.001c1.676,0.975,3.822,0.978,5.499,0.011c0.154-0.089,0.345-0.089,0.5,0
			c0.155,0.089,0.25,0.254,0.25,0.433l0.001,1.798c0,0.276-0.224,0.5-0.5,0.5h0c-0.276,0-0.5-0.224-0.5-0.5L34.494,15
			c-1.583,0.66-3.417,0.658-5-0.008l0.001,1.013C29.495,16.281,29.271,16.505,28.995,16.505L28.995,16.505z"/>
	</g>
	<g>
		<path class="st1" d="M42.003,25c-0.276,0-0.5-0.224-0.5-0.5v-1.91c0-1.716-0.953-3.258-2.487-4.025l-3.851-1.926l-2.75,4.106
			c-0.093,0.138-0.249,0.222-0.415,0.222h0c-0.167,0-0.322-0.083-0.415-0.221l-2.759-4.099l-3.838,1.917
			c-1.535,0.767-2.489,2.31-2.489,4.026V24.5c0,0.276-0.224,0.5-0.5,0.5s-0.5-0.224-0.5-0.5v-1.909c0-2.098,1.166-3.983,3.042-4.92
			l4.231-2.113c0.227-0.113,0.498-0.04,0.638,0.168l2.588,3.845l2.581-3.854c0.14-0.208,0.414-0.282,0.639-0.169l4.245,2.123
			c1.875,0.938,3.04,2.822,3.04,4.919v1.91C42.503,24.776,42.279,25,42.003,25z"/>
	</g>
	<g>
		<path class="st1" d="M31.999,23.968c-0.276,0-0.5-0.224-0.5-0.5v-3c0-0.276,0.224-0.5,0.5-0.5s0.5,0.224,0.5,0.5v3
			C32.499,23.744,32.275,23.968,31.999,23.968z"/>
	</g>
	<g>
		<path class="st1" d="M19.694,14.7c-0.015,0-0.029,0-0.044-0.002c-0.275-0.024-0.479-0.267-0.455-0.542l0.392-4.483l-4.483-0.392
			C14.83,9.258,14.626,9.015,14.65,8.74c0.024-0.275,0.271-0.478,0.542-0.455l4.981,0.436c0.275,0.024,0.479,0.267,0.455,0.542
			l-0.436,4.981C20.169,14.504,19.951,14.7,19.694,14.7z"/>
	</g>
	<g>
		<path class="st1" d="M56.879,24.552c-0.211,0-0.407-0.134-0.476-0.346c-2.207-6.82-7.118-12.632-13.474-15.944
			c-0.245-0.127-0.34-0.43-0.212-0.674c0.126-0.246,0.428-0.341,0.674-0.212c6.587,3.433,11.676,9.455,13.963,16.523
			c0.085,0.263-0.059,0.544-0.322,0.629C56.982,24.544,56.93,24.552,56.879,24.552z"/>
	</g>
	<g>
		<path class="st1" d="M56.879,24.552c-0.036,0-0.072-0.004-0.108-0.012l-4.881-1.083c-0.27-0.06-0.439-0.327-0.38-0.597
			c0.06-0.269,0.325-0.44,0.597-0.38l4.393,0.975l0.974-4.394c0.06-0.269,0.325-0.44,0.597-0.38c0.27,0.06,0.439,0.327,0.38,0.597
			l-1.082,4.881c-0.029,0.129-0.108,0.242-0.22,0.313C57.067,24.525,56.974,24.552,56.879,24.552z"/>
	</g>
	<g>
		<path class="st1" d="M24.722,61.5c-0.156,0-0.31-0.073-0.408-0.209l-2.903-4.07c-0.16-0.225-0.108-0.537,0.117-0.698l4.07-2.904
			c0.226-0.159,0.538-0.108,0.698,0.117c0.16,0.225,0.108,0.537-0.117,0.698l-3.664,2.613l2.613,3.663
			c0.16,0.225,0.108,0.537-0.117,0.698C24.923,61.47,24.822,61.5,24.722,61.5z"/>
	</g>
	<g>
		<path class="st1" d="M40.157,61.5c-0.101,0-0.202-0.03-0.29-0.093c-0.225-0.161-0.277-0.473-0.117-0.698l2.613-3.663L38.7,54.433
			c-0.225-0.161-0.277-0.473-0.117-0.698c0.161-0.225,0.472-0.275,0.698-0.117l4.07,2.904c0.225,0.161,0.277,0.473,0.117,0.698
			l-2.903,4.07C40.467,61.427,40.313,61.5,40.157,61.5z"/>
	</g>
	<g>
		<path class="st1" d="M32.439,60.069c-3.342,0-6.683-0.732-9.796-2.198l-1.039-0.488c-0.25-0.118-0.357-0.416-0.24-0.666
			c0.118-0.25,0.415-0.357,0.666-0.24l1.039,0.489c5.955,2.804,12.785,2.803,18.74,0l1.039-0.489c0.25-0.119,0.547-0.011,0.666,0.24
			c0.117,0.25,0.01,0.548-0.24,0.666l-1.039,0.489C39.123,59.336,35.781,60.069,32.439,60.069z"/>
	</g>
	<g>
		<path class="st3" d="M38.89,38.629l-0.274-0.158c0.105-0.474,0.165-0.965,0.165-1.471s-0.06-0.997-0.165-1.471l0.273-0.158
			l0.683-0.6c0.358-0.315,0.444-0.838,0.206-1.251l-0.875-1.516c-0.238-0.413-0.735-0.6-1.186-0.447l-0.861,0.291l-0.277,0.16
			c-0.723-0.663-1.585-1.176-2.543-1.477V30.22l-0.178-0.891c-0.093-0.467-0.504-0.804-0.981-0.804h-1.75
			c-0.477,0-0.887,0.336-0.981,0.804l-0.178,0.891v0.311c-0.959,0.301-1.821,0.814-2.543,1.477l-0.277-0.16l-0.861-0.291
			c-0.452-0.153-0.948,0.034-1.186,0.447l-0.875,1.516c-0.238,0.413-0.152,0.936,0.206,1.251l0.683,0.6l0.273,0.158
			c-0.105,0.474-0.165,0.965-0.165,1.471s0.06,0.997,0.165,1.471l-0.274,0.158l-0.682,0.6c-0.358,0.315-0.444,0.838-0.206,1.251
			l0.875,1.516c0.238,0.413,0.735,0.6,1.186,0.447l0.861-0.291l0.278-0.16c0.723,0.663,1.585,1.176,2.543,1.477v0.312l0.178,0.891
			c0.093,0.467,0.504,0.804,0.981,0.804h1.75c0.477,0,0.887-0.336,0.981-0.804l0.178-0.891v-0.312
			c0.959-0.301,1.821-0.814,2.543-1.477l0.278,0.16l0.861,0.291c0.452,0.153,0.948-0.034,1.186-0.447l0.875-1.516
			c0.238-0.413,0.152-0.936-0.206-1.251L38.89,38.629z M32.001,41.068c-2.247,0-4.068-1.821-4.068-4.068s1.821-4.068,4.068-4.068
			s4.068,1.821,4.068,4.068S34.247,41.068,32.001,41.068z"/>
		<path class="st1" d="M32.876,45.975h-1.75c-0.713,0-1.332-0.507-1.471-1.207l-0.179-0.939c-0.768-0.285-1.478-0.697-2.118-1.231
			l-0.913,0.318c-0.675,0.228-1.423-0.055-1.78-0.671l-0.875-1.516c-0.356-0.617-0.227-1.407,0.31-1.877l0.728-0.627
			c-0.071-0.411-0.107-0.822-0.107-1.226s0.036-0.814,0.107-1.226L24.1,35.147c-0.536-0.47-0.666-1.259-0.309-1.876l0.875-1.516
			c0.356-0.617,1.105-0.9,1.779-0.671l0.912,0.319c0.641-0.535,1.351-0.948,2.119-1.232l0.179-0.94
			c0.139-0.699,0.758-1.206,1.471-1.206h1.75c0.713,0,1.332,0.507,1.471,1.207l0.179,0.939c0.768,0.285,1.478,0.697,2.118,1.231
			l0.912-0.319c0.674-0.227,1.423,0.054,1.78,0.671l0.875,1.516c0.356,0.617,0.227,1.407-0.31,1.877l-0.728,0.627
			c0.071,0.411,0.107,0.822,0.107,1.225c0,0.401-0.036,0.81-0.105,1.218c0.015,0.011,0.03,0.022,0.044,0.035l0.683,0.6
			c0.535,0.47,0.665,1.259,0.309,1.876l-0.875,1.516c-0.356,0.616-1.104,0.898-1.78,0.671l-0.912-0.319
			c-0.641,0.534-1.351,0.947-2.119,1.231l-0.179,0.94C34.208,45.468,33.589,45.975,32.876,45.975z M27.423,41.491
			c0.122,0,0.244,0.045,0.338,0.131c0.691,0.635,1.484,1.095,2.355,1.369c0.208,0.065,0.35,0.259,0.35,0.477v0.312l0.168,0.792
			c0.046,0.233,0.252,0.402,0.49,0.402h1.75c0.238,0,0.444-0.169,0.49-0.401l0.178-0.892l-0.01-0.213
			c0-0.218,0.142-0.412,0.35-0.477c0.872-0.274,1.664-0.734,2.355-1.369c0.16-0.147,0.399-0.174,0.588-0.064l0.277,0.161l0.771,0.25
			c0.227,0.076,0.475-0.019,0.593-0.224l0.875-1.516c0.119-0.206,0.076-0.469-0.103-0.625l-0.646-0.567l-0.231-0.134
			c-0.188-0.109-0.285-0.328-0.238-0.541c0.102-0.458,0.153-0.917,0.153-1.363s-0.051-0.905-0.153-1.363
			c-0.047-0.213,0.049-0.432,0.238-0.541l0.273-0.158l0.603-0.542c0.179-0.157,0.222-0.42,0.103-0.625l-0.875-1.516
			c-0.119-0.206-0.368-0.299-0.594-0.224l-0.86,0.292l-0.188,0.12c-0.188,0.109-0.428,0.083-0.588-0.064
			c-0.691-0.635-1.484-1.095-2.355-1.369c-0.208-0.065-0.35-0.259-0.35-0.477V30.22l-0.168-0.793
			c-0.046-0.233-0.252-0.402-0.49-0.402h-1.75c-0.238,0-0.444,0.169-0.49,0.402l-0.178,0.892l0.01,0.213
			c0,0.218-0.142,0.412-0.35,0.477c-0.872,0.274-1.664,0.734-2.355,1.369c-0.161,0.147-0.398,0.173-0.588,0.064l-0.277-0.16
			l-0.771-0.251c-0.224-0.076-0.475,0.018-0.593,0.224l-0.875,1.516c-0.119,0.206-0.076,0.469,0.103,0.625l0.683,0.601l0.193,0.1
			c0.189,0.109,0.285,0.328,0.238,0.541c-0.102,0.458-0.153,0.917-0.153,1.363s0.051,0.905,0.153,1.363
			c0.047,0.213-0.049,0.432-0.238,0.541l-0.273,0.158l-0.603,0.542c-0.179,0.157-0.222,0.42-0.103,0.625l0.875,1.516
			c0.118,0.205,0.365,0.299,0.593,0.224l0.861-0.291l0.187-0.12C27.251,41.513,27.337,41.491,27.423,41.491z M32.001,41.568
			c-2.519,0-4.568-2.049-4.568-4.568s2.049-4.568,4.568-4.568c2.519,0,4.568,2.049,4.568,4.568S34.52,41.568,32.001,41.568z
			 M32.001,33.432c-1.968,0-3.568,1.601-3.568,3.568s1.601,3.568,3.568,3.568c1.967,0,3.568-1.601,3.568-3.568
			S33.968,33.432,32.001,33.432z"/>
	</g>
</g>
</svg>
