<?xml version="1.0" encoding="utf-8"?>
<!-- Generator: Adobe Illustrator 22.0.0, SVG Export Plug-In . SVG Version: 6.00 Build 0)  -->
<svg version="1.1" id="Icon_Set" xmlns="http://www.w3.org/2000/svg" xmlns:xlink="http://www.w3.org/1999/xlink" x="0px" y="0px"
	 viewBox="0 0 64 64" style="enable-background:new 0 0 64 64;" xml:space="preserve">
<style type="text/css">
	.st0{fill:#40C4FF;}
	.st1{fill:#263238;}
	.st2{fill:#FFD740;}
	.st3{fill:#FF5252;}
	.st4{fill:#4DB6AC;}
	.st5{fill:#FFFFFF;}
	.st6{fill:#4FC3F7;}
	.st7{fill:#37474F;}
</style>
<g>
	<g>
		<path class="st1" d="M48.5,11h-4c-0.276,0-0.5-0.224-0.5-0.5s0.224-0.5,0.5-0.5h4c0.276,0,0.5,0.224,0.5,0.5S48.776,11,48.5,11z"
			/>
	</g>
	<g>
		<path class="st1" d="M46.5,13c-0.276,0-0.5-0.224-0.5-0.5v-4C46,8.224,46.224,8,46.5,8S47,8.224,47,8.5v4
			C47,12.776,46.776,13,46.5,13z"/>
	</g>
	<g>
		<path class="st1" d="M54.5,16h-4c-0.276,0-0.5-0.224-0.5-0.5s0.224-0.5,0.5-0.5h4c0.276,0,0.5,0.224,0.5,0.5S54.776,16,54.5,16z"
			/>
	</g>
	<g>
		<path class="st1" d="M52.5,18c-0.276,0-0.5-0.224-0.5-0.5v-4c0-0.276,0.224-0.5,0.5-0.5s0.5,0.224,0.5,0.5v4
			C53,17.776,52.776,18,52.5,18z"/>
	</g>
	<g>
		<path class="st2" d="M26,60H4c-1.381,0-2.5-1.119-2.5-2.5V24h27v33.5C28.5,58.881,27.381,60,26,60z"/>
		<path class="st1" d="M26,60.5H4c-1.654,0-3-1.346-3-3V24c0-0.276,0.224-0.5,0.5-0.5h27c0.276,0,0.5,0.224,0.5,0.5v33.5
			C29,59.154,27.654,60.5,26,60.5z M2,24.5v33c0,1.103,0.897,2,2,2h22c1.103,0,2-0.897,2-2v-33H2z"/>
	</g>
	<g>
		<path class="st1" d="M55.5,33.5c-0.048,0-0.098-0.007-0.147-0.022l-6.5-2C48.643,31.413,48.5,31.22,48.5,31v-6
			c0-1.103-0.897-2-2-2s-2,0.897-2,2v6c0,0.276-0.224,0.5-0.5,0.5s-0.5-0.224-0.5-0.5v-6c0-1.654,1.346-3,3-3s3,1.346,3,3v5.631
			l6.147,1.892c0.264,0.081,0.412,0.36,0.331,0.625C55.912,33.362,55.714,33.5,55.5,33.5z"/>
	</g>
	<g>
		<path class="st1" d="M41.5,52.5H36c-1.654,0-3-1.346-3-3s1.346-3,3-3h5.5c1.654,0,3,1.346,3,3S43.154,52.5,41.5,52.5z M36,47.5
			c-1.103,0-2,0.897-2,2s0.897,2,2,2h5.5c1.103,0,2-0.897,2-2s-0.897-2-2-2H36z"/>
	</g>
	<g>
		<path class="st1" d="M41.5,47.5H35c-1.654,0-3-1.346-3-3s1.346-3,3-3h6.5c1.654,0,3,1.346,3,3S43.154,47.5,41.5,47.5z M35,42.5
			c-1.103,0-2,0.897-2,2s0.897,2,2,2h6.5c1.103,0,2-0.897,2-2s-0.897-2-2-2H35z"/>
	</g>
	<g>
		<path class="st1" d="M41.5,42.5H34c-1.654,0-3-1.346-3-3s1.346-3,3-3h7.5c1.654,0,3,1.346,3,3S43.154,42.5,41.5,42.5z M34,37.5
			c-1.103,0-2,0.897-2,2s0.897,2,2,2h7.5c1.103,0,2-0.897,2-2s-0.897-2-2-2H34z"/>
	</g>
	<g>
		<path class="st1" d="M41.5,37.5H35c-1.654,0-3-1.346-3-3s1.346-3,3-3h6.5c1.654,0,3,1.346,3,3S43.154,37.5,41.5,37.5z M35,32.5
			c-1.103,0-2,0.897-2,2s0.897,2,2,2h6.5c1.103,0,2-0.897,2-2s-0.897-2-2-2H35z"/>
	</g>
	<g>
		<path class="st1" d="M55.5,52.5h-14c-0.276,0-0.5-0.224-0.5-0.5s0.224-0.5,0.5-0.5h14c0.276,0,0.5,0.224,0.5,0.5
			S55.776,52.5,55.5,52.5z"/>
	</g>
	<g>
		<path class="st1" d="M32.706,31.5H28.5c-0.276,0-0.5-0.224-0.5-0.5v-3.5c0-0.276,0.224-0.5,0.5-0.5H34
			c2.143,0,4.142,0.981,5.483,2.691c0.17,0.218,0.132,0.531-0.085,0.702c-0.217,0.169-0.532,0.133-0.702-0.085
			C37.546,28.842,35.834,28,34,28h-5v2.5h3.706c0.276,0,0.5,0.224,0.5,0.5S32.982,31.5,32.706,31.5z"/>
	</g>
	<g>
		<path class="st1" d="M34,57h-5.5c-0.276,0-0.5-0.224-0.5-0.5V53c0-0.276,0.224-0.5,0.5-0.5h4.707c0.276,0,0.5,0.224,0.5,0.5
			s-0.224,0.5-0.5,0.5H29V56h5c1.834,0,3.546-0.842,4.697-2.309c0.17-0.218,0.484-0.254,0.702-0.085
			c0.217,0.171,0.255,0.484,0.085,0.702C38.142,56.019,36.144,57,34,57z"/>
	</g>
	<g>
		<path class="st0" d="M61.5,52.5h-3c-0.552,0-1-0.448-1-1v-18c0-0.552,0.448-1,1-1h3c0.552,0,1,0.448,1,1v18
			C62.5,52.052,62.052,52.5,61.5,52.5z"/>
		<path class="st1" d="M61.5,53h-3c-0.827,0-1.5-0.673-1.5-1.5v-18c0-0.827,0.673-1.5,1.5-1.5h3c0.827,0,1.5,0.673,1.5,1.5v18
			C63,52.327,62.327,53,61.5,53z M58.5,33c-0.276,0-0.5,0.225-0.5,0.5v18c0,0.275,0.224,0.5,0.5,0.5h3c0.276,0,0.5-0.225,0.5-0.5
			v-18c0-0.275-0.224-0.5-0.5-0.5H58.5z"/>
	</g>
	<g>
		<path class="st1" d="M9,15.5c-1.654,0-3-1.346-3-3s1.346-3,3-3s3,1.346,3,3S10.654,15.5,9,15.5z M9,10.5c-1.103,0-2,0.897-2,2
			s0.897,2,2,2s2-0.897,2-2S10.103,10.5,9,10.5z"/>
	</g>
	<g>
		<path class="st1" d="M17,9.5c-1.654,0-3-1.346-3-3s1.346-3,3-3s3,1.346,3,3S18.654,9.5,17,9.5z M17,4.5c-1.103,0-2,0.897-2,2
			s0.897,2,2,2s2-0.897,2-2S18.103,4.5,17,4.5z"/>
	</g>
	<g>
		<path class="st1" d="M52.308,58h-10c-0.276,0-0.5-0.224-0.5-0.5s0.224-0.5,0.5-0.5h10c0.276,0,0.5,0.224,0.5,0.5
			S52.584,58,52.308,58z"/>
	</g>
	<g>
		<path class="st1" d="M55.5,58h-1c-0.276,0-0.5-0.224-0.5-0.5s0.224-0.5,0.5-0.5h1c0.276,0,0.5,0.224,0.5,0.5S55.776,58,55.5,58z"
			/>
	</g>
	<g>
		<path class="st1" d="M23,55.5c-1.654,0-3-1.346-3-3v-15c0-1.654,1.346-3,3-3s3,1.346,3,3v15C26,54.154,24.654,55.5,23,55.5z
			 M23,35.5c-1.103,0-2,0.897-2,2v15c0,1.103,0.897,2,2,2s2-0.897,2-2v-15C25,36.397,24.103,35.5,23,35.5z"/>
	</g>
	<g>
		<path class="st1" d="M15,55.5c-1.654,0-3-1.346-3-3v-15c0-1.654,1.346-3,3-3s3,1.346,3,3v15C18,54.154,16.654,55.5,15,55.5z
			 M15,35.5c-1.103,0-2,0.897-2,2v15c0,1.103,0.897,2,2,2s2-0.897,2-2v-15C17,36.397,16.103,35.5,15,35.5z"/>
	</g>
	<g>
		<path class="st1" d="M7,55.5c-1.654,0-3-1.346-3-3v-15c0-1.654,1.346-3,3-3s3,1.346,3,3v15C10,54.154,8.654,55.5,7,55.5z M7,35.5
			c-1.103,0-2,0.897-2,2v15c0,1.103,0.897,2,2,2s2-0.897,2-2v-15C9,36.397,8.103,35.5,7,35.5z"/>
	</g>
	<g>
		<path class="st5" d="M28.5,24c0-2.485-2.015-4.5-4.5-4.5c-1.269,0-2.411,0.53-3.229,1.375C20.062,18.352,17.75,16.5,15,16.5
			s-5.062,1.852-5.771,4.375C8.411,20.03,7.269,19.5,6,19.5c-2.485,0-4.5,2.015-4.5,4.5v4.5H5V30c0,1.381,1.119,2.5,2.5,2.5
			c1.381,0,2.5-1.119,2.5-2.5v5c0,1.381,1.119,2.5,2.5,2.5c1.381,0,2.5-1.119,2.5-2.5v-6.5h13.5V24z"/>
		<path class="st1" d="M12.5,38c-1.654,0-3-1.346-3-3v-2.766C8.969,32.71,8.268,33,7.5,33c-1.654,0-3-1.346-3-3v-1h-3
			C1.224,29,1,28.776,1,28.5V24c0-2.757,2.243-5,5-5c1.098,0,2.14,0.354,3.002,1.007C9.998,17.614,12.364,16,15,16
			s5.002,1.614,5.998,4.007C21.86,19.354,22.902,19,24,19c2.757,0,5,2.243,5,5v4.5c0,0.276-0.224,0.5-0.5,0.5h-13v6
			C15.5,36.654,14.154,38,12.5,38z M10.5,30v5c0,1.103,0.897,2,2,2s2-0.897,2-2v-6.5c0-0.276,0.224-0.5,0.5-0.5h13v-4
			c0-2.206-1.794-4-4-4c-1.087,0-2.107,0.435-2.87,1.223c-0.125,0.129-0.31,0.182-0.482,0.137c-0.173-0.044-0.311-0.177-0.359-0.35
			C19.626,18.649,17.451,17,15,17s-4.626,1.649-5.29,4.01c-0.048,0.173-0.186,0.306-0.359,0.35
			c-0.173,0.045-0.358-0.009-0.482-0.137C8.107,20.435,7.087,20,6,20c-2.206,0-4,1.794-4,4v4h3c0.276,0,0.5,0.224,0.5,0.5V30
			c0,1.103,0.897,2,2,2s2-0.897,2-2c0-0.276,0.224-0.5,0.5-0.5S10.5,29.724,10.5,30z"/>
	</g>
</g>
</svg>
