<?xml version="1.0" encoding="utf-8"?>
<!-- Generator: Adobe Illustrator 22.0.0, SVG Export Plug-In . SVG Version: 6.00 Build 0)  -->
<svg version="1.1" id="Icon_Set" xmlns="http://www.w3.org/2000/svg" xmlns:xlink="http://www.w3.org/1999/xlink" x="0px" y="0px"
	 viewBox="0 0 64 64" style="enable-background:new 0 0 64 64;" xml:space="preserve">
<style type="text/css">
	.st0{fill:#40C4FF;}
	.st1{fill:#263238;}
	.st2{fill:#FFD740;}
	.st3{fill:#FF5252;}
	.st4{fill:#4DB6AC;}
	.st5{fill:#FFFFFF;}
	.st6{fill:#4FC3F7;}
	.st7{fill:#37474F;}
</style>
<g>
	<g>
		<path class="st1" d="M53.5,4.5h-2C51.224,4.5,51,4.276,51,4s0.224-0.5,0.5-0.5h2C53.776,3.5,54,3.724,54,4S53.776,4.5,53.5,4.5z"
			/>
	</g>
	<g>
		<path class="st1" d="M49.5,4.5h-15C34.224,4.5,34,4.276,34,4s0.224-0.5,0.5-0.5h15C49.776,3.5,50,3.724,50,4S49.776,4.5,49.5,4.5z
			"/>
	</g>
	<g>
		<path class="st1" d="M12.5,60.5h-2c-0.276,0-0.5-0.224-0.5-0.5s0.224-0.5,0.5-0.5h2c0.276,0,0.5,0.224,0.5,0.5
			S12.776,60.5,12.5,60.5z"/>
	</g>
	<g>
		<path class="st1" d="M29.5,60.5h-15c-0.276,0-0.5-0.224-0.5-0.5s0.224-0.5,0.5-0.5h15c0.276,0,0.5,0.224,0.5,0.5
			S29.776,60.5,29.5,60.5z"/>
	</g>
	<g>
		<path class="st2" d="M51,8H13c-2.761,0-5,2.239-5,5v38c0,2.761,2.239,5,5,5h38c2.761,0,5-2.239,5-5V13C56,10.239,53.761,8,51,8z
			 M48,45.5c0,1.381-1.119,2.5-2.5,2.5h-27c-1.381,0-2.5-1.119-2.5-2.5v-27c0-1.381,1.119-2.5,2.5-2.5h27c1.381,0,2.5,1.119,2.5,2.5
			V45.5z"/>
	</g>
	<g>
		<path class="st1" d="M51,56.5H13c-3.033,0-5.5-2.467-5.5-5.5V13c0-3.033,2.467-5.5,5.5-5.5h38c3.033,0,5.5,2.467,5.5,5.5v38
			C56.5,54.033,54.033,56.5,51,56.5z M13,8.5c-2.481,0-4.5,2.019-4.5,4.5v38c0,2.481,2.019,4.5,4.5,4.5h38
			c2.481,0,4.5-2.019,4.5-4.5V13c0-2.481-2.019-4.5-4.5-4.5H13z M45.5,48.5h-27c-1.654,0-3-1.346-3-3v-27c0-1.654,1.346-3,3-3H30
			c0.276,0,0.5,0.224,0.5,0.5s-0.224,0.5-0.5,0.5H18.5c-1.103,0-2,0.897-2,2v27c0,1.103,0.897,2,2,2h27c1.103,0,2-0.897,2-2v-27
			c0-1.103-0.897-2-2-2H43c-0.276,0-0.5-0.224-0.5-0.5s0.224-0.5,0.5-0.5h2.5c1.654,0,3,1.346,3,3v27
			C48.5,47.154,47.154,48.5,45.5,48.5z"/>
	</g>
	<g>
		<path class="st1" d="M39,40.5H25c-0.827,0-1.5-0.673-1.5-1.5v-4c0-0.276,0.224-0.5,0.5-0.5s0.5,0.224,0.5,0.5v4
			c0,0.276,0.224,0.5,0.5,0.5h14c0.276,0,0.5-0.224,0.5-0.5V25c0-0.276-0.224-0.5-0.5-0.5H25c-0.276,0-0.5,0.224-0.5,0.5v4
			c0,0.276-0.224,0.5-0.5,0.5s-0.5-0.224-0.5-0.5v-4c0-0.827,0.673-1.5,1.5-1.5h14c0.827,0,1.5,0.673,1.5,1.5v14
			C40.5,39.827,39.827,40.5,39,40.5z"/>
	</g>
	<g>
		<path class="st1" d="M32.028,56.5c-0.276,0-0.5-0.224-0.5-0.5v-8c0-0.276,0.224-0.5,0.5-0.5s0.5,0.224,0.5,0.5v8
			C32.528,56.276,32.304,56.5,32.028,56.5z"/>
	</g>
	<g>
		<path class="st1" d="M48,32.5h-8c-0.276,0-0.5-0.224-0.5-0.5s0.224-0.5,0.5-0.5h8c0.276,0,0.5,0.224,0.5,0.5S48.276,32.5,48,32.5z
			"/>
	</g>
	<g>
		<path class="st1" d="M32,32.5c-0.276,0-0.5-0.224-0.5-0.5V20c0-0.276,0.224-0.5,0.5-0.5s0.5,0.224,0.5,0.5v12
			C32.5,32.276,32.276,32.5,32,32.5z"/>
	</g>
	<g>
		<polygon class="st3" points="32,20 32,12 41,16 		"/>
		<path class="st1" d="M32,20.5c-0.095,0-0.19-0.027-0.272-0.081C31.585,20.327,31.5,20.169,31.5,20v-8
			c0-0.169,0.085-0.327,0.228-0.419c0.142-0.091,0.321-0.106,0.476-0.038l9,4C41.383,15.624,41.5,15.802,41.5,16
			s-0.116,0.376-0.297,0.457l-9,4C32.138,20.486,32.068,20.5,32,20.5z M32.5,12.77v6.461L39.769,16L32.5,12.77z"/>
	</g>
</g>
</svg>
