<?xml version="1.0" encoding="utf-8"?>
<!-- Generator: Adobe Illustrator 22.0.0, SVG Export Plug-In . SVG Version: 6.00 Build 0)  -->
<svg version="1.1" id="Icon_Set" xmlns="http://www.w3.org/2000/svg" xmlns:xlink="http://www.w3.org/1999/xlink" x="0px" y="0px"
	 viewBox="0 0 64 64" style="enable-background:new 0 0 64 64;" xml:space="preserve">
<style type="text/css">
	.st0{fill:#40C4FF;}
	.st1{fill:#263238;}
	.st2{fill:#FFD740;}
	.st3{fill:#FF5252;}
	.st4{fill:#4DB6AC;}
	.st5{fill:#FFFFFF;}
	.st6{fill:#4FC3F7;}
	.st7{fill:#37474F;}
</style>
<g>
	<g>
		<path class="st1" d="M15.5,49.5h-2C9.364,49.5,6,46.136,6,42V32c0-4.136,3.364-7.5,7.5-7.5h2c0.276,0,0.5,0.224,0.5,0.5
			s-0.224,0.5-0.5,0.5h-2C9.916,25.5,7,28.416,7,32v10c0,3.584,2.916,6.5,6.5,6.5h2c0.276,0,0.5,0.224,0.5,0.5
			S15.776,49.5,15.5,49.5z"/>
	</g>
	<g>
		<path class="st1" d="M15.5,45.5h-2c-1.93,0-3.5-1.57-3.5-3.5V32c0-1.93,1.57-3.5,3.5-3.5h2c0.276,0,0.5,0.224,0.5,0.5
			s-0.224,0.5-0.5,0.5h-2c-1.378,0-2.5,1.121-2.5,2.5v10c0,1.379,1.122,2.5,2.5,2.5h2c0.276,0,0.5,0.224,0.5,0.5
			S15.776,45.5,15.5,45.5z"/>
	</g>
	<g>
		<path class="st1" d="M39.605,55.5H20c-1.654,0-3-1.346-3-3v-31c0-1.654,1.346-3,3-3h25c1.654,0,3,1.346,3,3v17.681
			c0,0.276-0.224,0.5-0.5,0.5s-0.5-0.224-0.5-0.5V21.5c0-1.103-0.897-2-2-2H20c-1.103,0-2,0.897-2,2v31c0,1.103,0.897,2,2,2h19.605
			c0.276,0,0.5,0.224,0.5,0.5S39.882,55.5,39.605,55.5z"/>
	</g>
	<g>
		<circle class="st0" cx="49.5" cy="50" r="8"/>
		<path class="st1" d="M49.5,58.5c-4.687,0-8.5-3.813-8.5-8.5s3.813-8.5,8.5-8.5S58,45.313,58,50S54.187,58.5,49.5,58.5z M49.5,42.5
			c-4.136,0-7.5,3.364-7.5,7.5s3.364,7.5,7.5,7.5S57,54.136,57,50S53.636,42.5,49.5,42.5z"/>
	</g>
	<g>
		<path class="st1" d="M53.5,50.833h-4c-0.276,0-0.5-0.224-0.5-0.5v-5c0-0.276,0.224-0.5,0.5-0.5s0.5,0.224,0.5,0.5v4.5h3.5
			c0.276,0,0.5,0.224,0.5,0.5S53.776,50.833,53.5,50.833z"/>
	</g>
	<g>
		<path class="st1" d="M25.958,17.5c-0.276,0-0.5-0.224-0.5-0.5v-3.5c0-1.103-0.897-2-2-2h-5.001c-1.654,0-3-1.346-3-3s1.346-3,3-3
			h11.5c0.276,0,0.5,0.224,0.5,0.5s-0.224,0.5-0.5,0.5h-11.5c-1.103,0-2,0.897-2,2s0.897,2,2,2h5.001c1.654,0,3,1.346,3,3V17
			C26.458,17.276,26.235,17.5,25.958,17.5z"/>
	</g>
	<g>
		<path class="st1" d="M32.958,6.5h-1c-0.276,0-0.5-0.224-0.5-0.5s0.224-0.5,0.5-0.5h1c0.276,0,0.5,0.224,0.5,0.5
			S33.233,6.5,32.958,6.5z"/>
	</g>
	<g>
		<path class="st1" d="M40.043,10.5h-1c-0.276,0-0.5-0.224-0.5-0.5s0.224-0.5,0.5-0.5h1c0.276,0,0.5,0.224,0.5,0.5
			S40.319,10.5,40.043,10.5z"/>
	</g>
	<g>
		<path class="st1" d="M37.043,10.5h-8c-0.276,0-0.5-0.224-0.5-0.5s0.224-0.5,0.5-0.5h8c0.276,0,0.5,0.224,0.5,0.5
			S37.319,10.5,37.043,10.5z"/>
	</g>
	<g>
		<path class="st1" d="M32.5,45.5c-4.687,0-8.5-3.813-8.5-8.5s3.813-8.5,8.5-8.5c4.687,0,8.5,3.813,8.5,8.5S37.187,45.5,32.5,45.5z
			 M32.5,29.5c-4.136,0-7.5,3.364-7.5,7.5s3.364,7.5,7.5,7.5S40,41.136,40,37S36.636,29.5,32.5,29.5z"/>
	</g>
	<g>
		<ellipse transform="matrix(0.7071 -0.7071 0.7071 0.7071 -16.6439 33.818)" class="st2" cx="32.5" cy="37" rx="5" ry="4"/>
		<path class="st1" d="M31.495,42.028c-1.131,0-2.14-0.396-2.884-1.14c-0.865-0.864-1.259-2.088-1.108-3.444
			c0.146-1.314,0.791-2.602,1.815-3.626s2.312-1.669,3.627-1.815c1.353-0.147,2.579,0.244,3.444,1.108s1.259,2.088,1.108,3.444
			c-0.146,1.314-0.791,2.602-1.815,3.626l0,0l0,0l0,0c-1.024,1.024-2.312,1.669-3.626,1.815
			C31.866,42.018,31.679,42.028,31.495,42.028z M33.5,32.972c-0.146,0-0.294,0.009-0.445,0.025c-1.089,0.121-2.166,0.664-3.03,1.528
			s-1.407,1.94-1.528,3.03c-0.116,1.048,0.175,1.98,0.821,2.626c0.646,0.646,1.583,0.938,2.627,0.821
			c1.089-0.121,2.166-0.664,3.03-1.528l0,0c0.864-0.864,1.407-1.94,1.528-3.03c0.116-1.048-0.175-1.98-0.821-2.626
			C35.129,33.266,34.366,32.972,33.5,32.972z"/>
	</g>
	<g>
		<path class="st1" d="M28.964,41.035c-0.128,0-0.256-0.049-0.354-0.146c-0.195-0.195-0.195-0.512,0-0.707l7.071-7.07
			c0.195-0.195,0.512-0.195,0.707,0s0.195,0.512,0,0.707l-7.071,7.07C29.22,40.986,29.092,41.035,28.964,41.035z"/>
	</g>
	<g>
		<path class="st1" d="M49.5,9.5h-4C45.224,9.5,45,9.276,45,9s0.224-0.5,0.5-0.5h4C49.776,8.5,50,8.724,50,9S49.776,9.5,49.5,9.5z"
			/>
	</g>
	<g>
		<path class="st1" d="M47.5,11.5c-0.276,0-0.5-0.224-0.5-0.5V7c0-0.276,0.224-0.5,0.5-0.5S48,6.724,48,7v4
			C48,11.276,47.776,11.5,47.5,11.5z"/>
	</g>
	<g>
		<path class="st1" d="M55.5,15h-4c-0.276,0-0.5-0.224-0.5-0.5s0.224-0.5,0.5-0.5h4c0.276,0,0.5,0.224,0.5,0.5S55.776,15,55.5,15z"
			/>
	</g>
	<g>
		<path class="st1" d="M53.5,17c-0.276,0-0.5-0.224-0.5-0.5v-4c0-0.276,0.224-0.5,0.5-0.5s0.5,0.224,0.5,0.5v4
			C54,16.776,53.776,17,53.5,17z"/>
	</g>
	<g>
		<path class="st1" d="M44.5,27.5c-0.276,0-0.5-0.224-0.5-0.5v-4c0-0.275-0.225-0.5-0.5-0.5h-4c-0.276,0-0.5-0.224-0.5-0.5
			s0.224-0.5,0.5-0.5h4c0.827,0,1.5,0.673,1.5,1.5v4C45,27.276,44.776,27.5,44.5,27.5z"/>
	</g>
</g>
</svg>
