<?xml version="1.0" encoding="utf-8"?>
<!-- Generator: Adobe Illustrator 22.0.0, SVG Export Plug-In . SVG Version: 6.00 Build 0)  -->
<svg version="1.1" id="Icon_Set" xmlns="http://www.w3.org/2000/svg" xmlns:xlink="http://www.w3.org/1999/xlink" x="0px" y="0px"
	 viewBox="0 0 64 64" style="enable-background:new 0 0 64 64;" xml:space="preserve">
<style type="text/css">
	.st0{fill:#40C4FF;}
	.st1{fill:#263238;}
	.st2{fill:#FFD740;}
	.st3{fill:#FF5252;}
	.st4{fill:#4DB6AC;}
	.st5{fill:#FFFFFF;}
	.st6{fill:#4FC3F7;}
	.st7{fill:#37474F;}
</style>
<g>
	<g>
		<path class="st2" d="M32.75,35.469c-7.456,0-13.5-6.044-13.5-13.5c0-7.456,6.044-13.5,13.5-13.5s13.5,6.044,13.5,13.5
			C46.25,29.424,40.206,35.469,32.75,35.469z"/>
		<path class="st1" d="M32.75,35.969c-7.72,0-14-6.28-14-14s6.28-14,14-14s14,6.28,14,14S40.47,35.969,32.75,35.969z M32.75,8.969
			c-7.168,0-13,5.832-13,13s5.832,13,13,13s13-5.832,13-13S39.918,8.969,32.75,8.969z"/>
	</g>
	<g>
		<path class="st1" d="M57,11h-4c-0.276,0-0.5-0.224-0.5-0.5S52.724,10,53,10h4c0.276,0,0.5,0.224,0.5,0.5S57.276,11,57,11z"/>
	</g>
	<g>
		<path class="st1" d="M51.5,5.5h-4C47.224,5.5,47,5.276,47,5s0.224-0.5,0.5-0.5h4C51.776,4.5,52,4.724,52,5S51.776,5.5,51.5,5.5z"
			/>
	</g>
	<g>
		<path class="st1" d="M49.5,7.5C49.224,7.5,49,7.276,49,7V3c0-0.276,0.224-0.5,0.5-0.5S50,2.724,50,3v4
			C50,7.276,49.776,7.5,49.5,7.5z"/>
	</g>
	<g>
		<path class="st1" d="M55,13c-0.276,0-0.5-0.224-0.5-0.5v-4C54.5,8.224,54.724,8,55,8s0.5,0.224,0.5,0.5v4
			C55.5,12.776,55.276,13,55,13z"/>
	</g>
	<g>
		<path class="st1" d="M36.816,61.5c-1.82,0-3.652-0.473-5.306-1.441l-5.492-3.22c-1.455-0.854-3.117-1.305-4.805-1.305h-2.785
			c-0.276,0-0.5-0.224-0.5-0.5s0.224-0.5,0.5-0.5h2.785c1.865,0,3.702,0.499,5.311,1.441l5.492,3.22
			c3.728,2.188,8.466,1.578,11.521-1.478l10.447-10.447c0.779-0.779,0.779-2.049,0-2.828c-0.756-0.756-2.072-0.756-2.828,0
			l-4.243,4.242c-0.195,0.195-0.512,0.195-0.707,0s-0.195-0.512,0-0.707l4.243-4.242c1.133-1.133,3.109-1.133,4.242,0
			c1.17,1.17,1.17,3.072,0,4.242L44.245,58.425C42.223,60.447,39.533,61.5,36.816,61.5z"/>
	</g>
	<g>
		<path class="st0" d="M8.929,42.034v14.5c0,0.552,0.448,1,1,1h5.5c0.552,0,1-0.448,1-1v-14.5c0-0.552-0.448-1-1-1h-5.5
			C9.377,41.034,8.929,41.482,8.929,42.034z"/>
		<path class="st1" d="M15.429,58.034h-5.5c-0.827,0-1.5-0.673-1.5-1.5v-14.5c0-0.827,0.673-1.5,1.5-1.5h5.5
			c0.827,0,1.5,0.673,1.5,1.5v14.5C16.929,57.361,16.256,58.034,15.429,58.034z M9.929,41.534c-0.275,0-0.5,0.225-0.5,0.5v14.5
			c0,0.275,0.225,0.5,0.5,0.5h5.5c0.275,0,0.5-0.225,0.5-0.5v-14.5c0-0.275-0.225-0.5-0.5-0.5H9.929z"/>
	</g>
	<g>
		<path class="st1" d="M41.429,53.034h-6.5c-0.276,0-0.5-0.224-0.5-0.5s0.224-0.5,0.5-0.5h6.5c1.103,0,2-0.897,2-2s-0.897-2-2-2h-7
			c-0.061,0-0.121-0.011-0.178-0.033l-7.92-3.018c-1.655-0.63-3.393-0.949-5.162-0.949h-2.74c-0.276,0-0.5-0.224-0.5-0.5
			s0.224-0.5,0.5-0.5h2.74c1.892,0,3.748,0.342,5.518,1.015l7.834,2.985h6.908c1.654,0,3,1.346,3,3S43.083,53.034,41.429,53.034z"/>
	</g>
	<g>
		<path class="st1" d="M19,33.875H9c-0.276,0-0.5-0.224-0.5-0.5s0.224-0.5,0.5-0.5h10c0.276,0,0.5,0.224,0.5,0.5
			S19.276,33.875,19,33.875z"/>
	</g>
	<g>
		<path class="st1" d="M7,33.875H6c-0.276,0-0.5-0.224-0.5-0.5s0.224-0.5,0.5-0.5h1c0.276,0,0.5,0.224,0.5,0.5
			S7.276,33.875,7,33.875z"/>
	</g>
	<g>
		<path class="st1" d="M55,33.875H45c-0.276,0-0.5-0.224-0.5-0.5s0.224-0.5,0.5-0.5h10c0.276,0,0.5,0.224,0.5,0.5
			S55.276,33.875,55,33.875z"/>
	</g>
	<g>
		<path class="st1" d="M58,33.875h-1c-0.276,0-0.5-0.224-0.5-0.5s0.224-0.5,0.5-0.5h1c0.276,0,0.5,0.224,0.5,0.5
			S58.276,33.875,58,33.875z"/>
	</g>
	<g>
		<path class="st1" d="M29.25,21.469c-1.654,0-3-1.346-3-3s1.346-3,3-3s3,1.346,3,3S30.904,21.469,29.25,21.469z M29.25,16.469
			c-1.103,0-2,0.897-2,2s0.897,2,2,2s2-0.897,2-2S30.353,16.469,29.25,16.469z"/>
	</g>
	<g>
		<path class="st1" d="M36.25,28.469c-1.654,0-3-1.346-3-3s1.346-3,3-3s3,1.346,3,3S37.904,28.469,36.25,28.469z M36.25,23.469
			c-1.103,0-2,0.897-2,2s0.897,2,2,2s2-0.897,2-2S37.353,23.469,36.25,23.469z"/>
	</g>
	<g>
		<path class="st1" d="M26.75,28.469c-0.128,0-0.256-0.049-0.354-0.146c-0.195-0.195-0.195-0.512,0-0.707l12-12
			c0.195-0.195,0.512-0.195,0.707,0s0.195,0.512,0,0.707l-12,12C27.006,28.42,26.878,28.469,26.75,28.469z"/>
	</g>
</g>
</svg>
