<?xml version="1.0" encoding="utf-8"?>
<!-- Generator: Adobe Illustrator 22.0.0, SVG Export Plug-In . SVG Version: 6.00 Build 0)  -->
<svg version="1.1" id="Icon_Set" xmlns="http://www.w3.org/2000/svg" xmlns:xlink="http://www.w3.org/1999/xlink" x="0px" y="0px"
	 viewBox="0 0 64 64" style="enable-background:new 0 0 64 64;" xml:space="preserve">
<style type="text/css">
	.st0{fill:#40C4FF;}
	.st1{fill:#263238;}
	.st2{fill:#FFD740;}
	.st3{fill:#FF5252;}
	.st4{fill:#4DB6AC;}
	.st5{fill:#FFFFFF;}
	.st6{fill:#4FC3F7;}
	.st7{fill:#37474F;}
</style>
<g>
	<g>
		<polygon class="st0" points="37.801,21 18.801,21 18.801,15 6.801,27 18.801,39 18.801,33 37.801,33 		"/>
		<path class="st1" d="M18.801,39.5c-0.13,0-0.258-0.051-0.354-0.146l-12-12c-0.195-0.195-0.195-0.512,0-0.707l12-12
			c0.143-0.144,0.358-0.187,0.545-0.108c0.187,0.077,0.309,0.26,0.309,0.462v5.5h18.5c0.276,0,0.5,0.224,0.5,0.5v12
			c0,0.276-0.224,0.5-0.5,0.5h-18.5V39c0,0.202-0.122,0.385-0.309,0.462C18.931,39.488,18.866,39.5,18.801,39.5z M7.508,27
			l10.793,10.793V33c0-0.276,0.224-0.5,0.5-0.5h18.5v-11h-18.5c-0.276,0-0.5-0.224-0.5-0.5v-4.793L7.508,27z"/>
	</g>
	<g>
		<polygon class="st3" points="54.801,44 42.801,32 42.801,38 23.801,38 23.801,50 42.801,50 42.801,56 		"/>
		<path class="st1" d="M42.801,56.5c-0.064,0-0.129-0.012-0.191-0.038c-0.187-0.077-0.309-0.26-0.309-0.462v-5.5h-18.5
			c-0.276,0-0.5-0.224-0.5-0.5V38c0-0.276,0.224-0.5,0.5-0.5h18.5V32c0-0.202,0.122-0.385,0.309-0.462s0.402-0.034,0.545,0.108
			l12,12c0.195,0.195,0.195,0.512,0,0.707l-12,12C43.059,56.449,42.931,56.5,42.801,56.5z M24.301,49.5h18.5
			c0.276,0,0.5,0.224,0.5,0.5v4.793L54.094,44L43.301,33.207V38c0,0.276-0.224,0.5-0.5,0.5h-18.5V49.5z"/>
	</g>
	<g>
		<path class="st1" d="M56,27.5H46c-0.276,0-0.5-0.224-0.5-0.5s0.224-0.5,0.5-0.5h10c0.276,0,0.5,0.224,0.5,0.5S56.276,27.5,56,27.5
			z"/>
	</g>
	<g>
		<path class="st1" d="M59,27.5h-1c-0.276,0-0.5-0.224-0.5-0.5s0.224-0.5,0.5-0.5h1c0.276,0,0.5,0.224,0.5,0.5S59.276,27.5,59,27.5z
			"/>
	</g>
	<g>
		<path class="st1" d="M18,45.698H8c-0.276,0-0.5-0.224-0.5-0.5s0.224-0.5,0.5-0.5h10c0.276,0,0.5,0.224,0.5,0.5
			S18.276,45.698,18,45.698z"/>
	</g>
	<g>
		<path class="st1" d="M6,45.699H5c-0.276,0-0.5-0.224-0.5-0.5s0.224-0.5,0.5-0.5h1c0.276,0,0.5,0.224,0.5,0.5
			S6.276,45.699,6,45.699z"/>
	</g>
	<g>
		<path class="st1" d="M41.801,10.5h-4c-0.276,0-0.5-0.224-0.5-0.5s0.224-0.5,0.5-0.5h4c0.276,0,0.5,0.224,0.5,0.5
			S42.078,10.5,41.801,10.5z"/>
	</g>
	<g>
		<path class="st1" d="M39.801,12.5c-0.276,0-0.5-0.224-0.5-0.5V8c0-0.276,0.224-0.5,0.5-0.5s0.5,0.224,0.5,0.5v4
			C40.301,12.276,40.078,12.5,39.801,12.5z"/>
	</g>
	<g>
		<path class="st1" d="M47.801,16h-4c-0.276,0-0.5-0.224-0.5-0.5s0.224-0.5,0.5-0.5h4c0.276,0,0.5,0.224,0.5,0.5
			S48.078,16,47.801,16z"/>
	</g>
	<g>
		<path class="st1" d="M45.801,18c-0.276,0-0.5-0.224-0.5-0.5v-4c0-0.276,0.224-0.5,0.5-0.5s0.5,0.224,0.5,0.5v4
			C46.301,17.776,46.078,18,45.801,18z"/>
	</g>
</g>
</svg>
