<?xml version="1.0" encoding="utf-8"?>
<!-- Generator: Adobe Illustrator 22.0.0, SVG Export Plug-In . SVG Version: 6.00 Build 0)  -->
<svg version="1.1" id="Icon_Set" xmlns="http://www.w3.org/2000/svg" xmlns:xlink="http://www.w3.org/1999/xlink" x="0px" y="0px"
	 viewBox="0 0 64 64" style="enable-background:new 0 0 64 64;" xml:space="preserve">
<style type="text/css">
	.st0{fill:#40C4FF;}
	.st1{fill:#263238;}
	.st2{fill:#FFD740;}
	.st3{fill:#FF5252;}
	.st4{fill:#4DB6AC;}
	.st5{fill:#FFFFFF;}
	.st6{fill:#4FC3F7;}
	.st7{fill:#37474F;}
</style>
<g>
	<g>
		<path class="st1" d="M56.5,39.791h-5c-0.276,0-0.5-0.224-0.5-0.5s0.224-0.5,0.5-0.5h5c0.276,0,0.5,0.224,0.5,0.5
			S56.776,39.791,56.5,39.791z"/>
	</g>
	<g>
		<path class="st1" d="M59.5,39.791h-1c-0.276,0-0.5-0.224-0.5-0.5s0.224-0.5,0.5-0.5h1c0.276,0,0.5,0.224,0.5,0.5
			S59.776,39.791,59.5,39.791z"/>
	</g>
	<g>
		<path class="st1" d="M12.5,31.291h-5c-0.276,0-0.5-0.224-0.5-0.5s0.224-0.5,0.5-0.5h5c0.276,0,0.5,0.224,0.5,0.5
			S12.776,31.291,12.5,31.291z"/>
	</g>
	<g>
		<path class="st1" d="M5.5,31.291h-1c-0.276,0-0.5-0.224-0.5-0.5s0.224-0.5,0.5-0.5h1c0.276,0,0.5,0.224,0.5,0.5
			S5.776,31.291,5.5,31.291z"/>
	</g>
	<g>
		<path class="st1" d="M62,62.5c-0.276,0-0.5-0.224-0.5-0.5v-3.5c0-1.103-0.897-2-2-2h-55c-1.103,0-2,0.897-2,2V62
			c0,0.276-0.224,0.5-0.5,0.5S1.5,62.276,1.5,62v-3.5c0-1.654,1.346-3,3-3h55c1.654,0,3,1.346,3,3V62
			C62.5,62.276,62.276,62.5,62,62.5z"/>
	</g>
	<g>
		<path class="st3" d="M59.5,13.323h-15c-1.381,0-2.5,1.119-2.5,2.5v11c0,1.381,1.119,2.5,2.5,2.5H47v2.865
			c0,0.848,0.989,1.311,1.64,0.768L53,29.323h6.5c1.381,0,2.5-1.119,2.5-2.5v-11C62,14.442,60.881,13.323,59.5,13.323z"/>
		<path class="st1" d="M48.004,33.69c-0.216,0-0.434-0.047-0.64-0.144c-0.533-0.25-0.864-0.77-0.864-1.358v-2.365h-2
			c-1.654,0-3-1.346-3-3v-11c0-1.654,1.346-3,3-3h15c1.654,0,3,1.346,3,3v11c0,1.654-1.346,3-3,3h-6.319l-4.22,3.517
			C48.684,33.571,48.347,33.69,48.004,33.69z M44.5,13.823c-1.103,0-2,0.897-2,2v11c0,1.103,0.897,2,2,2H47
			c0.276,0,0.5,0.224,0.5,0.5v2.865c0,0.295,0.221,0.421,0.288,0.453c0.067,0.032,0.306,0.12,0.532-0.069l4.359-3.633
			c0.09-0.075,0.203-0.116,0.32-0.116h6.5c1.103,0,2-0.897,2-2v-11c0-1.103-0.897-2-2-2H44.5z"/>
	</g>
	<g>
		<path class="st1" d="M25.5,31.5c-5.244,0-9.746-3.474-11.095-8.501C12.795,22.948,11.5,21.623,11.5,20s1.295-2.948,2.905-2.999
			C15.754,11.974,20.256,8.5,25.5,8.5s9.746,3.474,11.095,8.501c1.61,0.05,2.905,1.376,2.905,2.999s-1.295,2.948-2.905,2.999
			C35.246,28.026,30.744,31.5,25.5,31.5z M14.717,21.98c0.24,0,0.507,0.15,0.56,0.378C16.378,27.152,20.582,30.5,25.5,30.5
			s9.122-3.348,10.224-8.141c0.057-0.248,0.271-0.417,0.546-0.385C36.404,21.992,36.451,22,36.5,22c1.103,0,2-0.897,2-2
			s-0.897-2-2-2c-0.049,0-0.096,0.008-0.143,0.015c-0.26,0.027-0.576-0.122-0.634-0.374C34.622,12.848,30.418,9.5,25.5,9.5
			s-9.122,3.348-10.224,8.141c-0.057,0.248-0.271,0.414-0.546,0.385C14.596,18.008,14.549,18,14.5,18c-1.103,0-2,0.897-2,2
			s0.897,2,2,2c0.049,0,0.096-0.008,0.143-0.015C14.667,21.982,14.691,21.98,14.717,21.98z"/>
	</g>
	<g>
		<path class="st2" d="M15.5,19H15v-6.5h3v4C18,17.881,16.881,19,15.5,19z"/>
		<path class="st1" d="M15.5,19.5H15c-0.276,0-0.5-0.224-0.5-0.5v-6.5c0-0.276,0.224-0.5,0.5-0.5h3c0.276,0,0.5,0.224,0.5,0.5v4
			C18.5,18.154,17.154,19.5,15.5,19.5z M15.5,18.5h0.01H15.5z M15.5,13v5.5c1.103,0,2-0.897,2-2V13H15.5z"/>
	</g>
	<g>
		<path class="st2" d="M33,12.45v4.05c0,1.381,1.119,2.5,2.5,2.5H36v-7.935C35.211,11.839,34.162,12.332,33,12.45z"/>
		<path class="st1" d="M36,19.5h-0.5c-1.654,0-3-1.346-3-3v-4.05c0-0.257,0.194-0.472,0.45-0.498
			c1.029-0.104,1.988-0.545,2.699-1.244c0.146-0.141,0.358-0.182,0.544-0.104s0.307,0.26,0.307,0.461V19
			C36.5,19.276,36.276,19.5,36,19.5z M33.5,12.883V16.5c0,1.103,0.897,2,2,2v-6.401C34.898,12.484,34.218,12.752,33.5,12.883z"/>
	</g>
	<g>
		<path class="st1" d="M25.5,25.5c-1.469,0-2.851-0.572-3.889-1.611c-0.195-0.195-0.195-0.512,0-0.707s0.512-0.195,0.707,0
			c0.85,0.85,1.979,1.318,3.182,1.318s2.332-0.468,3.182-1.318c0.195-0.195,0.512-0.195,0.707,0s0.195,0.512,0,0.707
			C28.351,24.928,26.969,25.5,25.5,25.5z"/>
	</g>
	<g>
		<path class="st2" d="M32.5,12.5H15v0C15,8.358,18.358,5,22.5,5h5.205c2.171,0,4.315-0.471,6.286-1.381L37.5,2v5.5
			C37.5,10.261,35.261,12.5,32.5,12.5z"/>
		<path class="st1" d="M32.5,13H15c-0.276,0-0.5-0.224-0.5-0.5c0-4.411,3.589-8,8-8h5.205c2.084,0,4.185-0.461,6.076-1.335
			l3.509-1.619c0.156-0.072,0.335-0.059,0.479,0.033C37.913,1.671,38,1.83,38,2v5.5C38,10.533,35.532,13,32.5,13z M15.518,12H32.5
			c2.481,0,4.5-2.019,4.5-4.5V2.781l-2.799,1.292C32.179,5.006,29.933,5.5,27.705,5.5H22.5C18.809,5.5,15.775,8.373,15.518,12z"/>
	</g>
	<g>
		<path class="st1" d="M59,17.823H45c-0.276,0-0.5-0.224-0.5-0.5s0.224-0.5,0.5-0.5h14c0.276,0,0.5,0.224,0.5,0.5
			S59.276,17.823,59,17.823z"/>
	</g>
	<g>
		<path class="st1" d="M59,21.823H45c-0.276,0-0.5-0.224-0.5-0.5s0.224-0.5,0.5-0.5h14c0.276,0,0.5,0.224,0.5,0.5
			S59.276,21.823,59,21.823z"/>
	</g>
	<g>
		<path class="st1" d="M52,25.823h-7c-0.276,0-0.5-0.224-0.5-0.5s0.224-0.5,0.5-0.5h7c0.276,0,0.5,0.224,0.5,0.5
			S52.276,25.823,52,25.823z"/>
	</g>
	<g>
		<polygon class="st0" points="28,53.063 25.5,56 23,53.063 24.5,38 26.5,38 		"/>
		<path class="st1" d="M25.5,56.5c-0.146,0-0.286-0.064-0.381-0.176l-2.5-2.938c-0.088-0.104-0.13-0.239-0.116-0.374l1.5-15.062
			c0.025-0.256,0.24-0.451,0.497-0.451h2c0.257,0,0.472,0.195,0.497,0.451l1.5,15.062c0.014,0.135-0.028,0.27-0.116,0.374
			l-2.5,2.938C25.786,56.436,25.646,56.5,25.5,56.5z M23.519,52.9l1.981,2.328l1.981-2.328l-1.435-14.4h-1.094L23.519,52.9z"/>
	</g>
	<g>
		<path class="st1" d="M15.5,56.5c-0.276,0-0.5-0.224-0.5-0.5V46c0-0.276,0.224-0.5,0.5-0.5S16,45.724,16,46v10
			C16,56.276,15.776,56.5,15.5,56.5z"/>
	</g>
	<g>
		<path class="st1" d="M35.5,56.5c-0.276,0-0.5-0.224-0.5-0.5V46c0-0.276,0.224-0.5,0.5-0.5S36,45.724,36,46v10
			C36,56.276,35.776,56.5,35.5,56.5z"/>
	</g>
	<g>
		<path class="st1" d="M7.5,56.5C7.224,56.5,7,56.276,7,56V42.945c0-3.204,1.903-6.09,4.849-7.353l6.973-2.988
			c0.253-0.109,0.547,0.007,0.657,0.263c0.108,0.253-0.009,0.547-0.263,0.656l-6.973,2.988C9.665,37.616,8,40.142,8,42.945V56
			C8,56.276,7.776,56.5,7.5,56.5z"/>
	</g>
	<g>
		<path class="st1" d="M43.5,56.5c-0.276,0-0.5-0.224-0.5-0.5V42.945c0-2.804-1.665-5.329-4.243-6.434l-6.973-2.988
			c-0.254-0.109-0.371-0.403-0.263-0.656c0.109-0.255,0.404-0.373,0.657-0.263l6.973,2.988C42.097,36.855,44,39.741,44,42.945V56
			C44,56.276,43.776,56.5,43.5,56.5z"/>
	</g>
	<g>
		<path class="st1" d="M19.435,38.5c-0.07,0-0.141-0.015-0.206-0.044c-0.165-0.075-0.277-0.233-0.292-0.414l-0.416-4.937
			c-0.019-0.215,0.104-0.417,0.301-0.501l2.481-1.063c0.223-0.095,0.48-0.018,0.613,0.182l2,3c0.148,0.222,0.096,0.521-0.119,0.68
			l-4.065,3C19.644,38.467,19.54,38.5,19.435,38.5z M19.547,33.381l0.311,3.686l2.962-2.186l-1.505-2.257L19.547,33.381z"/>
	</g>
	<g>
		<path class="st1" d="M31.557,38.5c-0.105,0-0.21-0.033-0.297-0.098l-4.057-3c-0.215-0.158-0.267-0.458-0.119-0.679l2-3
			c0.133-0.2,0.391-0.277,0.613-0.182l2.481,1.063c0.198,0.085,0.319,0.288,0.301,0.502l-0.425,4.937
			c-0.016,0.18-0.127,0.338-0.292,0.413C31.696,38.485,31.627,38.5,31.557,38.5z M28.18,34.881l2.955,2.185l0.317-3.686
			l-1.767-0.757L28.18,34.881z"/>
	</g>
	<g>
		<path class="st0" d="M26.5,38h-2c-0.552,0-1-0.448-1-1v-1c0-0.552,0.448-1,1-1h2c0.552,0,1,0.448,1,1v1
			C27.5,37.552,27.052,38,26.5,38z"/>
		<path class="st1" d="M26.5,38.5h-2c-0.827,0-1.5-0.673-1.5-1.5v-1c0-0.827,0.673-1.5,1.5-1.5h2c0.827,0,1.5,0.673,1.5,1.5v1
			C28,37.827,27.327,38.5,26.5,38.5z M24.5,35.5c-0.275,0-0.5,0.224-0.5,0.5v1c0,0.276,0.225,0.5,0.5,0.5h2
			c0.275,0,0.5-0.224,0.5-0.5v-1c0-0.276-0.225-0.5-0.5-0.5H24.5z"/>
	</g>
	<g>
		<path class="st1" d="M27.256,35.866c-0.147,0-0.288-0.065-0.383-0.179c-0.059-0.07-0.186-0.187-0.373-0.187h-2
			c-0.188,0-0.314,0.117-0.373,0.187c-0.1,0.121-0.253,0.19-0.41,0.178c-0.157-0.008-0.302-0.091-0.389-0.222l-2.244-3.366
			C21.029,32.195,21,32.099,21,32v-1.76c0-0.165,0.082-0.32,0.218-0.413c0.137-0.093,0.309-0.113,0.465-0.052
			c2.459,0.963,5.176,0.963,7.635,0c0.156-0.061,0.328-0.041,0.465,0.052C29.918,29.92,30,30.075,30,30.24V32
			c0,0.099-0.029,0.195-0.084,0.277l-2.244,3.366c-0.087,0.131-0.231,0.213-0.389,0.222C27.274,35.865,27.265,35.866,27.256,35.866z
			 M24.5,34.5h2c0.221,0,0.437,0.051,0.634,0.147L29,31.849v-0.9c-2.273,0.732-4.727,0.732-7,0v0.9l1.866,2.799
			C24.063,34.551,24.279,34.5,24.5,34.5z"/>
	</g>
</g>
</svg>
