<?xml version="1.0" encoding="utf-8"?>
<!-- Generator: Adobe Illustrator 22.0.0, SVG Export Plug-In . SVG Version: 6.00 Build 0)  -->
<svg version="1.1" id="Icon_Set" xmlns="http://www.w3.org/2000/svg" xmlns:xlink="http://www.w3.org/1999/xlink" x="0px" y="0px"
	 viewBox="0 0 64 64" style="enable-background:new 0 0 64 64;" xml:space="preserve">
<style type="text/css">
	.st0{fill:#40C4FF;}
	.st1{fill:#263238;}
	.st2{fill:#FFD740;}
	.st3{fill:#FF5252;}
	.st4{fill:#4DB6AC;}
	.st5{fill:#FFFFFF;}
	.st6{fill:#4FC3F7;}
	.st7{fill:#37474F;}
</style>
<g>
	<g>
		<path class="st3" d="M32,14.559L32,14.559L32,14.559c-2.745-2.745-7.196-2.745-9.941,0l0,0c-2.745,2.745-2.745,7.196,0,9.941
			L32,34.442l9.941-9.941c2.745-2.745,2.745-7.196,0-9.941l0,0C39.196,11.814,34.745,11.814,32,14.559z"/>
		<path class="st1" d="M32,34.941c-0.128,0-0.256-0.049-0.354-0.146l-9.941-9.941c-2.936-2.936-2.936-7.712,0-10.647
			c2.821-2.821,7.341-2.932,10.295-0.332c2.953-2.6,7.474-2.489,10.295,0.332c2.936,2.936,2.936,7.712,0,10.647l-9.941,9.941
			C32.256,34.893,32.128,34.941,32,34.941z M27.029,13.004c-1.672,0-3.344,0.637-4.617,1.909c-2.546,2.546-2.546,6.688,0,9.233
			L32,33.734l9.588-9.588c2.546-2.546,2.546-6.688,0-9.233c-2.547-2.545-6.688-2.545-9.234,0c-0.195,0.195-0.512,0.195-0.707,0
			C30.373,13.641,28.701,13.004,27.029,13.004z"/>
	</g>
	<g>
		<path class="st1" d="M46.5,8h-4C42.224,8,42,7.776,42,7.5S42.224,7,42.5,7h4C46.776,7,47,7.224,47,7.5S46.776,8,46.5,8z"/>
	</g>
	<g>
		<path class="st1" d="M44.5,10C44.224,10,44,9.776,44,9.5v-4C44,5.224,44.224,5,44.5,5S45,5.224,45,5.5v4
			C45,9.776,44.776,10,44.5,10z"/>
	</g>
	<g>
		<path class="st1" d="M51,13h-4c-0.276,0-0.5-0.224-0.5-0.5S46.724,12,47,12h4c0.276,0,0.5,0.224,0.5,0.5S51.276,13,51,13z"/>
	</g>
	<g>
		<path class="st1" d="M49,15c-0.276,0-0.5-0.224-0.5-0.5v-4c0-0.276,0.224-0.5,0.5-0.5s0.5,0.224,0.5,0.5v4
			C49.5,14.776,49.276,15,49,15z"/>
	</g>
	<g>
		<path class="st1" d="M55.5,49.5c-0.276,0-0.5-0.224-0.5-0.5v-1.447c0-1.429,0.285-2.821,0.849-4.137l2.074-4.84
			c1.047-2.44,1.577-5.025,1.577-7.682V17c0-1.103-0.897-2-2-2s-2,0.897-2,2v11.5c0,0.276-0.224,0.5-0.5,0.5s-0.5-0.224-0.5-0.5V17
			c0-1.654,1.346-3,3-3s3,1.346,3,3v13.895c0,2.793-0.558,5.51-1.657,8.076l-2.074,4.84C56.259,45,56,46.26,56,47.553V49
			C56,49.276,55.776,49.5,55.5,49.5z"/>
	</g>
	<g>
		<path class="st0" d="M58,57.5V52c0-0.552-0.448-1-1-1H42.5c-0.552,0-1,0.448-1,1v5.5c0,0.552,0.448,1,1,1H57
			C57.552,58.5,58,58.052,58,57.5z"/>
		<path class="st1" d="M57,59H42.5c-0.827,0-1.5-0.673-1.5-1.5V52c0-0.827,0.673-1.5,1.5-1.5H57c0.827,0,1.5,0.673,1.5,1.5v5.5
			C58.5,58.327,57.827,59,57,59z M42.5,51.5c-0.275,0-0.5,0.225-0.5,0.5v5.5c0,0.275,0.225,0.5,0.5,0.5H57
			c0.275,0,0.5-0.225,0.5-0.5V52c0-0.275-0.225-0.5-0.5-0.5H42.5z"/>
	</g>
	<g>
		<path class="st1" d="M44,49.5c-0.276,0-0.5-0.224-0.5-0.5v-1.265c0-1.535,0.346-3.081,1-4.471l3-6.376V30c0-1.654,1.346-3,3-3
			s3,1.346,3,3v6.5c0,0.276-0.224,0.5-0.5,0.5s-0.5-0.224-0.5-0.5V30c0-1.103-0.897-2-2-2s-2,0.897-2,2v7
			c0,0.073-0.017,0.146-0.048,0.213l-3.048,6.478c-0.592,1.257-0.904,2.656-0.904,4.045V49C44.5,49.276,44.276,49.5,44,49.5z"/>
	</g>
	<g>
		<path class="st1" d="M8.5,49.5C8.224,49.5,8,49.276,8,49v-1.447C8,46.26,7.741,45,7.231,43.811l-2.074-4.84
			c-1.1-2.566-1.657-5.283-1.657-8.076V17c0-1.654,1.346-3,3-3s3,1.346,3,3v11.5C9.5,28.776,9.276,29,9,29s-0.5-0.224-0.5-0.5V17
			c0-1.103-0.897-2-2-2s-2,0.897-2,2v13.895c0,2.656,0.53,5.241,1.577,7.682l2.074,4.84C8.715,44.731,9,46.124,9,47.553V49
			C9,49.276,8.776,49.5,8.5,49.5z"/>
	</g>
	<g>
		<path class="st0" d="M6,57.5V52c0-0.552,0.448-1,1-1h14.5c0.552,0,1,0.448,1,1v5.5c0,0.552-0.448,1-1,1H7
			C6.448,58.5,6,58.052,6,57.5z"/>
		<path class="st1" d="M21.5,59H7c-0.827,0-1.5-0.673-1.5-1.5V52c0-0.827,0.673-1.5,1.5-1.5h14.5c0.827,0,1.5,0.673,1.5,1.5v5.5
			C23,58.327,22.327,59,21.5,59z M7,51.5c-0.275,0-0.5,0.225-0.5,0.5v5.5C6.5,57.775,6.725,58,7,58h14.5c0.275,0,0.5-0.225,0.5-0.5
			V52c0-0.275-0.225-0.5-0.5-0.5H7z"/>
	</g>
	<g>
		<path class="st1" d="M20,49.5c-0.276,0-0.5-0.224-0.5-0.5v-1.265c0-1.389-0.312-2.788-0.904-4.045l-3.048-6.478
			C15.517,37.146,15.5,37.073,15.5,37v-7c0-1.103-0.897-2-2-2s-2,0.897-2,2v6.5c0,0.276-0.224,0.5-0.5,0.5s-0.5-0.224-0.5-0.5V30
			c0-1.654,1.346-3,3-3s3,1.346,3,3v6.889l3,6.376c0.654,1.39,1,2.936,1,4.471V49C20.5,49.276,20.276,49.5,20,49.5z"/>
	</g>
</g>
</svg>
