<?xml version="1.0" encoding="utf-8"?>
<!-- Generator: Adobe Illustrator 22.0.0, SVG Export Plug-In . SVG Version: 6.00 Build 0)  -->
<svg version="1.1" id="Icon_Set" xmlns="http://www.w3.org/2000/svg" xmlns:xlink="http://www.w3.org/1999/xlink" x="0px" y="0px"
	 viewBox="0 0 64 64" style="enable-background:new 0 0 64 64;" xml:space="preserve">
<style type="text/css">
	.st0{fill:#40C4FF;}
	.st1{fill:#263238;}
	.st2{fill:#FFD740;}
	.st3{fill:#FF5252;}
	.st4{fill:#4DB6AC;}
	.st5{fill:#FFFFFF;}
	.st6{fill:#4FC3F7;}
	.st7{fill:#37474F;}
</style>
<g>
	<g>
		<path class="st1" d="M15.5,40H8c-0.276,0-0.5-0.224-0.5-0.5S7.724,39,8,39h7.5c0.276,0,0.5,0.224,0.5,0.5S15.776,40,15.5,40z"/>
	</g>
	<g>
		<path class="st1" d="M6,40H5c-0.276,0-0.5-0.224-0.5-0.5S4.724,39,5,39h1c0.276,0,0.5,0.224,0.5,0.5S6.276,40,6,40z"/>
	</g>
	<g>
		<path class="st1" d="M56,40h-7.5c-0.276,0-0.5-0.224-0.5-0.5s0.224-0.5,0.5-0.5H56c0.276,0,0.5,0.224,0.5,0.5S56.276,40,56,40z"/>
	</g>
	<g>
		<path class="st1" d="M59,40h-1c-0.276,0-0.5-0.224-0.5-0.5S57.724,39,58,39h1c0.276,0,0.5,0.224,0.5,0.5S59.276,40,59,40z"/>
	</g>
	<g>
		<path class="st1" d="M32,39c-5.387,0-9.991-3.667-11.198-8.917c-0.062-0.269,0.106-0.537,0.375-0.599
			c0.27-0.061,0.537,0.106,0.599,0.375C22.878,34.652,27.082,38,32,38s9.122-3.348,10.224-8.141
			c0.062-0.269,0.332-0.436,0.599-0.375c0.27,0.062,0.438,0.33,0.375,0.599C41.991,35.333,37.387,39,32,39z"/>
	</g>
	<g>
		<path class="st2" d="M22,26.5h-0.5V20h3v4C24.5,25.381,23.381,26.5,22,26.5z"/>
		<path class="st1" d="M22,27h-0.5c-0.276,0-0.5-0.224-0.5-0.5V20c0-0.276,0.224-0.5,0.5-0.5h3c0.276,0,0.5,0.224,0.5,0.5v4
			C25,25.654,23.654,27,22,27z M22,26h0.01H22z M22,20.5V26c1.103,0,2-0.897,2-2v-3.5H22z"/>
	</g>
	<g>
		<path class="st2" d="M39,20H21.5v0c0-4.142,3.358-7.5,7.5-7.5h5.205c2.171,0,4.315-0.471,6.286-1.381L44,9.5V15
			C44,17.761,41.761,20,39,20z"/>
		<path class="st1" d="M39,20.5H21.5c-0.276,0-0.5-0.224-0.5-0.5c0-4.411,3.589-8,8-8h5.206c2.083,0,4.184-0.461,6.076-1.335
			l3.509-1.619c0.155-0.072,0.336-0.059,0.479,0.033C44.413,9.171,44.5,9.33,44.5,9.5V15C44.5,18.033,42.033,20.5,39,20.5z
			 M22.018,19.5H39c2.481,0,4.5-2.019,4.5-4.5v-4.719l-2.799,1.292C38.679,12.506,36.433,13,34.206,13H29
			C25.309,13,22.275,15.873,22.018,19.5z"/>
	</g>
	<g>
		<path class="st2" d="M39.5,19.949V24c0,1.381,1.119,2.5,2.5,2.5h0.5v-7.935C41.711,19.339,40.662,19.832,39.5,19.949z"/>
		<path class="st1" d="M42.5,27H42c-1.654,0-3-1.346-3-3v-4.05c0-0.257,0.194-0.472,0.45-0.498c1.029-0.104,1.988-0.545,2.7-1.244
			c0.144-0.14,0.358-0.181,0.543-0.104C42.879,18.182,43,18.364,43,18.565V26.5C43,26.776,42.776,27,42.5,27z M40,20.383V24
			c0,1.103,0.897,2,2,2v-6.401C41.399,19.984,40.718,20.252,40,20.383z"/>
	</g>
	<g>
		<path class="st1" d="M32,32.998c-1.409,0-2.817-0.536-3.889-1.608c-0.195-0.195-0.195-0.512,0-0.707s0.512-0.195,0.707,0
			c1.755,1.755,4.609,1.755,6.364,0c0.195-0.195,0.512-0.195,0.707,0s0.195,0.512,0,0.707C34.817,32.461,33.409,32.998,32,32.998z"
			/>
	</g>
	<g>
		<path class="st1" d="M44.5,24c-0.276,0-0.5-0.224-0.5-0.5v-3.073c0-0.339-0.014-0.675-0.042-1.007
			c-0.023-0.275,0.181-0.517,0.457-0.54c0.284-0.03,0.517,0.182,0.54,0.457C44.985,19.696,45,20.06,45,20.427V23.5
			C45,23.776,44.776,24,44.5,24z"/>
	</g>
	<g>
		<path class="st1" d="M19.5,24c-0.276,0-0.5-0.224-0.5-0.5v-3.073c0-7.168,5.832-13,13-13c2.4,0,4.746,0.66,6.783,1.908
			c0.235,0.144,0.31,0.452,0.165,0.688c-0.144,0.235-0.452,0.309-0.688,0.165c-1.88-1.151-4.045-1.76-6.261-1.76
			c-6.617,0-12,5.383-12,12V23.5C20,23.776,19.776,24,19.5,24z"/>
	</g>
	<g>
		<path class="st0" d="M19.5,31.5H18c-1.381,0-2.5-1.119-2.5-2.5v-3c0-1.381,1.119-2.5,2.5-2.5h1.5V31.5z"/>
		<path class="st1" d="M19.5,32H18c-1.654,0-3-1.346-3-3v-3c0-1.654,1.346-3,3-3h1.5c0.276,0,0.5,0.224,0.5,0.5v8
			C20,31.776,19.776,32,19.5,32z M18,24c-1.103,0-2,0.897-2,2v3c0,1.103,0.897,2,2,2h1v-7H18z"/>
	</g>
	<g>
		<path class="st0" d="M44.5,23.5H46c1.381,0,2.5,1.119,2.5,2.5v3c0,1.381-1.119,2.5-2.5,2.5h-1.5V23.5z"/>
		<path class="st1" d="M46,32h-1.5c-0.276,0-0.5-0.224-0.5-0.5v-8c0-0.276,0.224-0.5,0.5-0.5H46c1.654,0,3,1.346,3,3v3
			C49,30.654,47.654,32,46,32z M45,31h1c1.103,0,2-0.897,2-2v-3c0-1.103-0.897-2-2-2h-1V31z"/>
	</g>
	<g>
		<path class="st1" d="M34.5,42H32c-0.276,0-0.5-0.224-0.5-0.5S31.724,41,32,41h2.5c5.238,0,9.5-4.262,9.5-9.5
			c0-0.276,0.224-0.5,0.5-0.5s0.5,0.224,0.5,0.5C45,37.29,40.29,42,34.5,42z"/>
	</g>
	<g>
		<path class="st1" d="M42,64c-0.276,0-0.5-0.224-0.5-0.5v-10c0-0.276,0.224-0.5,0.5-0.5s0.5,0.224,0.5,0.5v10
			C42.5,63.776,42.276,64,42,64z"/>
	</g>
	<g>
		<path class="st1" d="M22,64c-0.276,0-0.5-0.224-0.5-0.5v-10c0-0.276,0.224-0.5,0.5-0.5s0.5,0.224,0.5,0.5v10
			C22.5,63.776,22.276,64,22,64z"/>
	</g>
	<g>
		<path class="st1" d="M14,64c-0.276,0-0.5-0.224-0.5-0.5V50.445c0-3.204,1.903-6.09,4.849-7.353l9.455-4.052
			c0.251-0.11,0.547,0.008,0.656,0.263c0.109,0.253-0.009,0.547-0.263,0.656l-9.455,4.052c-2.577,1.105-4.242,3.63-4.242,6.434V63.5
			C14.5,63.776,14.276,64,14,64z"/>
	</g>
	<g>
		<path class="st1" d="M50,64c-0.276,0-0.5-0.224-0.5-0.5V50.445c0-2.804-1.665-5.33-4.242-6.434l-4.506-1.931
			c-0.254-0.109-0.372-0.403-0.263-0.656c0.108-0.254,0.404-0.372,0.656-0.263l4.506,1.931c2.945,1.262,4.849,4.148,4.849,7.353
			V63.5C50.5,63.776,50.276,64,50,64z"/>
	</g>
	<g>
		<path class="st1" d="M32,46L32,46c-0.167,0-0.323-0.083-0.416-0.223l-4-6C27.529,39.695,27.5,39.599,27.5,39.5v-1.76
			c0-0.165,0.082-0.32,0.218-0.413c0.136-0.093,0.311-0.113,0.464-0.052c2.459,0.963,5.177,0.963,7.636,0
			c0.153-0.061,0.328-0.041,0.464,0.052c0.137,0.093,0.218,0.248,0.218,0.413v1.76c0,0.276-0.224,0.5-0.5,0.5s-0.5-0.224-0.5-0.5
			v-1.051c-2.272,0.732-4.728,0.732-7,0v0.9l3.5,5.25l0.917-1.376c0.152-0.23,0.462-0.292,0.693-0.139
			c0.23,0.153,0.292,0.464,0.139,0.693l-1.333,2C32.323,45.917,32.167,46,32,46z"/>
	</g>
	<g>
		<rect x="34" y="53.5" class="st3" width="6" height="2.5"/>
		<path class="st1" d="M40,56.5h-6c-0.276,0-0.5-0.224-0.5-0.5v-2.5c0-0.276,0.224-0.5,0.5-0.5h6c0.276,0,0.5,0.224,0.5,0.5V56
			C40.5,56.276,40.276,56.5,40,56.5z M34.5,55.5h5V54h-5V55.5z"/>
	</g>
	<g>
		<path class="st1" d="M47,3h-4c-0.276,0-0.5-0.224-0.5-0.5S42.724,2,43,2h4c0.276,0,0.5,0.224,0.5,0.5S47.276,3,47,3z"/>
	</g>
	<g>
		<path class="st1" d="M45,5c-0.276,0-0.5-0.224-0.5-0.5v-4C44.5,0.224,44.724,0,45,0s0.5,0.224,0.5,0.5v4C45.5,4.776,45.276,5,45,5
			z"/>
	</g>
	<g>
		<path class="st1" d="M54,9.5h-4c-0.276,0-0.5-0.224-0.5-0.5s0.224-0.5,0.5-0.5h4c0.276,0,0.5,0.224,0.5,0.5S54.276,9.5,54,9.5z"/>
	</g>
	<g>
		<path class="st1" d="M52,11.5c-0.276,0-0.5-0.224-0.5-0.5V7c0-0.276,0.224-0.5,0.5-0.5s0.5,0.224,0.5,0.5v4
			C52.5,11.276,52.276,11.5,52,11.5z"/>
	</g>
	<g>
		<path class="st1" d="M32,64c-0.276,0-0.5-0.224-0.5-0.5v-18c0-0.276,0.224-0.5,0.5-0.5s0.5,0.224,0.5,0.5v18
			C32.5,63.776,32.276,64,32,64z"/>
	</g>
</g>
</svg>
