<?xml version="1.0" encoding="utf-8"?>
<!-- Generator: Adobe Illustrator 22.0.0, SVG Export Plug-In . SVG Version: 6.00 Build 0)  -->
<svg version="1.1" id="Icon_Set" xmlns="http://www.w3.org/2000/svg" xmlns:xlink="http://www.w3.org/1999/xlink" x="0px" y="0px"
	 viewBox="0 0 64 64" style="enable-background:new 0 0 64 64;" xml:space="preserve">
<style type="text/css">
	.st0{fill:#40C4FF;}
	.st1{fill:#263238;}
	.st2{fill:#FFD740;}
	.st3{fill:#FF5252;}
	.st4{fill:#4DB6AC;}
	.st5{fill:#FFFFFF;}
	.st6{fill:#4FC3F7;}
	.st7{fill:#37474F;}
</style>
<g>
	<g>
		<path class="st1" d="M42,48.572c-0.276,0-0.5-0.224-0.5-0.5V44.5c0-0.276,0.224-0.5,0.5-0.5s0.5,0.224,0.5,0.5v3.572
			C42.5,48.349,42.276,48.572,42,48.572z"/>
	</g>
	<g>
		<path class="st1" d="M32,33.141c-1.778,0-3.43-0.883-4.416-2.363C27.529,30.695,27.5,30.599,27.5,30.5v-1.761
			c0-0.165,0.082-0.32,0.219-0.413c0.136-0.093,0.312-0.111,0.464-0.053c2.457,0.965,5.178,0.965,7.635,0
			c0.152-0.059,0.328-0.04,0.464,0.053c0.137,0.093,0.219,0.248,0.219,0.413V30.5c0,0.099-0.029,0.195-0.084,0.277
			C35.43,32.258,33.778,33.141,32,33.141z M28.5,30.344c0.809,1.128,2.106,1.797,3.5,1.797s2.691-0.669,3.5-1.797v-0.896
			c-2.271,0.732-4.729,0.732-7,0V30.344z"/>
	</g>
	<g>
		<path class="st1" d="M36.816,63.999c-1.82,0-3.652-0.472-5.306-1.44l-5.492-3.22c-1.455-0.854-3.117-1.305-4.805-1.305h-2.785
			c-0.276,0-0.5-0.224-0.5-0.5s0.224-0.5,0.5-0.5h2.785c1.865,0,3.702,0.498,5.311,1.441l5.492,3.22
			c3.727,2.187,8.466,1.579,11.521-1.478l10.447-10.447c0.378-0.378,0.586-0.88,0.586-1.414s-0.208-1.036-0.586-1.414
			c-0.756-0.756-2.072-0.756-2.828,0l-4.243,4.242c-0.195,0.195-0.512,0.195-0.707,0s-0.195-0.512,0-0.707l4.243-4.242
			c1.133-1.133,3.109-1.133,4.242,0c0.566,0.566,0.879,1.319,0.879,2.121c0,0.801-0.312,1.555-0.879,2.121L44.245,60.925
			C42.223,62.947,39.533,63.999,36.816,63.999z"/>
	</g>
	<g>
		<path class="st0" d="M8.929,44.534v14.5c0,0.552,0.448,1,1,1h5.5c0.552,0,1-0.448,1-1v-14.5c0-0.552-0.448-1-1-1h-5.5
			C9.377,43.534,8.929,43.982,8.929,44.534z"/>
		<path class="st1" d="M15.429,60.534h-5.5c-0.827,0-1.5-0.673-1.5-1.5v-14.5c0-0.827,0.673-1.5,1.5-1.5h5.5
			c0.827,0,1.5,0.673,1.5,1.5v14.5C16.929,59.861,16.256,60.534,15.429,60.534z M9.929,44.034c-0.275,0-0.5,0.225-0.5,0.5v14.5
			c0,0.275,0.225,0.5,0.5,0.5h5.5c0.275,0,0.5-0.225,0.5-0.5v-14.5c0-0.275-0.225-0.5-0.5-0.5H9.929z"/>
	</g>
	<g>
		<path class="st1" d="M41.429,55.534h-6.5c-0.276,0-0.5-0.224-0.5-0.5s0.224-0.5,0.5-0.5h6.5c1.103,0,2-0.897,2-2s-0.897-2-2-2h-7
			c-0.061,0-0.121-0.011-0.178-0.033l-7.92-3.018c-1.655-0.63-3.393-0.949-5.162-0.949h-2.74c-0.276,0-0.5-0.224-0.5-0.5
			s0.224-0.5,0.5-0.5h2.74c1.892,0,3.748,0.342,5.518,1.015l7.834,2.985h6.908c1.654,0,3,1.346,3,3S43.083,55.534,41.429,55.534z"/>
	</g>
	<g>
		<path class="st1" d="M50,45.173c-0.276,0-0.5-0.224-0.5-0.5v-3.228c0-2.804-1.665-5.33-4.243-6.434l-9.087-3.895
			c-1.002,1.274-2.532,2.023-4.17,2.023c-0.001,0-0.001,0-0.001,0c-1.638,0-3.167-0.749-4.169-2.023l-9.087,3.895
			c-2.578,1.104-4.243,3.63-4.243,6.434c0,0.276-0.224,0.545-0.5,0.545s-0.5-0.18-0.5-0.456c0-3.294,1.903-6.18,4.849-7.442
			l9.454-4.052c0.225-0.094,0.479-0.018,0.613,0.183c0.801,1.201,2.14,1.918,3.583,1.918H32c1.443,0,2.783-0.717,3.584-1.918
			c0.133-0.201,0.391-0.277,0.613-0.183l9.454,4.052c2.945,1.263,4.849,4.148,4.849,7.354v3.228
			C50.5,44.949,50.276,45.173,50,45.173z"/>
	</g>
	<g>
		<path class="st1" d="M56.5,30h-10c-0.276,0-0.5-0.224-0.5-0.5s0.224-0.5,0.5-0.5h10c0.276,0,0.5,0.224,0.5,0.5S56.776,30,56.5,30z
			"/>
	</g>
	<g>
		<path class="st1" d="M59.5,30h-1c-0.276,0-0.5-0.224-0.5-0.5s0.224-0.5,0.5-0.5h1c0.276,0,0.5,0.224,0.5,0.5S59.776,30,59.5,30z"
			/>
	</g>
	<g>
		<path class="st1" d="M17.5,30h-10C7.224,30,7,29.776,7,29.5S7.224,29,7.5,29h10c0.276,0,0.5,0.224,0.5,0.5S17.776,30,17.5,30z"/>
	</g>
	<g>
		<path class="st1" d="M5.5,30h-1C4.224,30,4,29.776,4,29.5S4.224,29,4.5,29h1C5.776,29,6,29.224,6,29.5S5.776,30,5.5,30z"/>
	</g>
	<g>
		<path class="st1" d="M31.985,30c-5.243,0-9.745-3.475-11.095-8.502c-1.61-0.05-2.905-1.376-2.905-2.998s1.295-2.948,2.905-2.998
			C22.24,10.475,26.742,7,31.985,7s9.746,3.475,11.096,8.502c1.61,0.05,2.904,1.376,2.904,2.998s-1.294,2.948-2.904,2.998
			C41.731,26.525,37.229,30,31.985,30z M21.208,20.479c0.24,0,0.501,0.15,0.554,0.379C22.864,25.652,27.068,29,31.985,29
			c4.918,0,9.122-3.348,10.225-8.142c0.057-0.249,0.284-0.421,0.548-0.384c0.129,0.018,0.177,0.025,0.228,0.025c1.103,0,2-0.897,2-2
			s-0.897-2-2-2c-0.051,0-0.099,0.008-0.147,0.015c-0.257,0.041-0.569-0.121-0.628-0.373C41.107,11.348,36.903,8,31.985,8
			c-4.917,0-9.121,3.348-10.224,8.142c-0.058,0.249-0.287,0.421-0.548,0.384c-0.129-0.018-0.178-0.025-0.229-0.025
			c-1.103,0-2,0.897-2,2s0.897,2,2,2c0.051,0,0.1-0.008,0.149-0.015C21.158,20.481,21.184,20.479,21.208,20.479z"/>
	</g>
	<g>
		<path class="st2" d="M21.986,17.5h-0.5V11h3v4C24.486,16.381,23.366,17.5,21.986,17.5z"/>
		<path class="st1" d="M21.985,18h-0.5c-0.276,0-0.5-0.224-0.5-0.5V11c0-0.276,0.224-0.5,0.5-0.5h3c0.276,0,0.5,0.224,0.5,0.5v4
			C24.985,16.654,23.64,18,21.985,18z M21.985,17h0.01H21.985z M21.985,11.5V17c1.103,0,2-0.897,2-2v-3.5H21.985z"/>
	</g>
	<g>
		<path class="st2" d="M39.486,10.95V15c0,1.381,1.119,2.5,2.5,2.5h0.5V9.565C41.697,10.339,40.648,10.832,39.486,10.95z"/>
		<path class="st1" d="M42.485,18h-0.5c-1.654,0-3-1.346-3-3v-4.051c0-0.257,0.194-0.472,0.45-0.497
			c1.03-0.104,1.989-0.546,2.699-1.244c0.145-0.141,0.359-0.182,0.544-0.104c0.186,0.078,0.307,0.26,0.307,0.461V17.5
			C42.985,17.776,42.762,18,42.485,18z M39.985,11.383V15c0,1.103,0.897,2,2,2v-6.401C41.385,10.983,40.703,11.252,39.985,11.383z"
			/>
	</g>
	<g>
		<path class="st1" d="M31.985,23.997c-1.408,0-2.816-0.536-3.889-1.608c-0.195-0.195-0.195-0.512,0-0.707s0.512-0.195,0.707,0
			c1.755,1.754,4.611,1.754,6.364,0c0.195-0.195,0.512-0.195,0.707,0s0.195,0.512,0,0.707
			C34.803,23.461,33.395,23.997,31.985,23.997z"/>
	</g>
	<g>
		<path class="st2" d="M38.986,11h-17.5v0c0-4.142,3.358-7.5,7.5-7.5h5.205c2.171,0,4.315-0.471,6.286-1.381L43.986,0.5V6
			C43.986,8.761,41.747,11,38.986,11z"/>
		<path class="st1" d="M38.985,11.5h-17.5c-0.276,0-0.5-0.224-0.5-0.5c0-4.411,3.589-8,8-8h5.206c2.085,0,4.186-0.462,6.076-1.335
			l3.508-1.619c0.155-0.069,0.335-0.06,0.479,0.033c0.144,0.092,0.23,0.25,0.23,0.421V6C44.485,9.032,42.018,11.5,38.985,11.5z
			 M22.003,10.5h16.982c2.481,0,4.5-2.019,4.5-4.5V1.281l-2.798,1.292C38.666,3.507,36.42,4,34.191,4h-5.206
			C25.294,4,22.261,6.873,22.003,10.5z"/>
	</g>
	<g>
		<path class="st1" d="M12.929,15h-4c-0.276,0-0.5-0.224-0.5-0.5s0.224-0.5,0.5-0.5h4c0.276,0,0.5,0.224,0.5,0.5
			S13.205,15,12.929,15z"/>
	</g>
	<g>
		<path class="st1" d="M17.429,8h-4c-0.276,0-0.5-0.224-0.5-0.5s0.224-0.5,0.5-0.5h4c0.276,0,0.5,0.224,0.5,0.5S17.705,8,17.429,8z"
			/>
	</g>
	<g>
		<path class="st1" d="M15.429,10c-0.276,0-0.5-0.224-0.5-0.5v-4c0-0.276,0.224-0.5,0.5-0.5s0.5,0.224,0.5,0.5v4
			C15.929,9.776,15.705,10,15.429,10z"/>
	</g>
	<g>
		<path class="st1" d="M10.929,17c-0.276,0-0.5-0.224-0.5-0.5v-4c0-0.276,0.224-0.5,0.5-0.5s0.5,0.224,0.5,0.5v4
			C11.429,16.776,11.205,17,10.929,17z"/>
	</g>
</g>
</svg>
