<?xml version="1.0" encoding="utf-8"?>
<!-- Generator: Adobe Illustrator 22.0.0, SVG Export Plug-In . SVG Version: 6.00 Build 0)  -->
<svg version="1.1" id="Icon_Set" xmlns="http://www.w3.org/2000/svg" xmlns:xlink="http://www.w3.org/1999/xlink" x="0px" y="0px"
	 viewBox="0 0 64 64" style="enable-background:new 0 0 64 64;" xml:space="preserve">
<style type="text/css">
	.st0{fill:#40C4FF;}
	.st1{fill:#263238;}
	.st2{fill:#FFD740;}
	.st3{fill:#FF5252;}
	.st4{fill:#4DB6AC;}
	.st5{fill:#FFFFFF;}
	.st6{fill:#4FC3F7;}
	.st7{fill:#37474F;}
</style>
<g>
	<g>
		<path class="st1" d="M50.5,18.5H43c-1.654,0-3-1.346-3-3V8c0-0.202,0.122-0.385,0.309-0.462c0.186-0.076,0.402-0.034,0.545,0.108
			l10,10c0.143,0.143,0.186,0.358,0.108,0.545S50.702,18.5,50.5,18.5z M41,9.207V15.5c0,1.103,0.897,2,2,2h6.293L41,9.207z"/>
	</g>
	<g>
		<path class="st1" d="M48.5,7h-4C44.224,7,44,6.776,44,6.5S44.224,6,44.5,6h4C48.776,6,49,6.224,49,6.5S48.776,7,48.5,7z"/>
	</g>
	<g>
		<path class="st1" d="M46.5,9C46.224,9,46,8.776,46,8.5v-4C46,4.224,46.224,4,46.5,4S47,4.224,47,4.5v4C47,8.776,46.776,9,46.5,9z"
			/>
	</g>
	<g>
		<path class="st1" d="M54.5,12.5h-4c-0.276,0-0.5-0.224-0.5-0.5s0.224-0.5,0.5-0.5h4c0.276,0,0.5,0.224,0.5,0.5
			S54.776,12.5,54.5,12.5z"/>
	</g>
	<g>
		<path class="st1" d="M52.5,14.5c-0.276,0-0.5-0.224-0.5-0.5v-4c0-0.276,0.224-0.5,0.5-0.5S53,9.724,53,10v4
			C53,14.276,52.776,14.5,52.5,14.5z"/>
	</g>
	<g>
		<path class="st1" d="M5.5,4.5h-1C4.224,4.5,4,4.276,4,4s0.224-0.5,0.5-0.5h1C5.776,3.5,6,3.724,6,4S5.776,4.5,5.5,4.5z"/>
	</g>
	<g>
		<path class="st1" d="M23.5,4.5h-16C7.224,4.5,7,4.276,7,4s0.224-0.5,0.5-0.5h16C23.776,3.5,24,3.724,24,4S23.776,4.5,23.5,4.5z"/>
	</g>
	<g>
		<path class="st1" d="M58.5,60.5h-1c-0.276,0-0.5-0.224-0.5-0.5s0.224-0.5,0.5-0.5h1c0.276,0,0.5,0.224,0.5,0.5
			S58.776,60.5,58.5,60.5z"/>
	</g>
	<g>
		<path class="st1" d="M55.5,60.5h-16c-0.276,0-0.5-0.224-0.5-0.5s0.224-0.5,0.5-0.5h16c0.276,0,0.5,0.224,0.5,0.5
			S55.776,60.5,55.5,60.5z"/>
	</g>
	<g>
		<path class="st1" d="M48,56.5H13c-1.654,0-3-1.346-3-3v-43c0-1.654,1.346-3,3-3h27.5c0.133,0,0.26,0.053,0.354,0.146l10,10
			C50.947,17.74,51,17.867,51,18v35.5C51,55.154,49.654,56.5,48,56.5z M13,8.5c-1.103,0-2,0.897-2,2v43c0,1.103,0.897,2,2,2h35
			c1.103,0,2-0.897,2-2V18.207L40.293,8.5H13z"/>
	</g>
	<g>
		<path class="st3" d="M24.136,30.864c1.629,1.629,3.879,2.636,6.364,2.636c4.971,0,9-4.03,9-9h-9L24.136,30.864z"/>
		<path class="st1" d="M30.5,34c-2.538,0-4.924-0.988-6.718-2.782c-0.195-0.195-0.195-0.512,0-0.707l6.364-6.364
			C30.24,24.053,30.367,24,30.5,24h9c0.276,0,0.5,0.224,0.5,0.5C40,29.738,35.738,34,30.5,34z M24.853,30.854
			C26.41,32.241,28.396,33,30.5,33c4.519,0,8.226-3.545,8.485-8h-8.278L24.853,30.854z"/>
	</g>
	<g>
		<path class="st1" d="M41.5,43h-22c-0.276,0-0.5-0.224-0.5-0.5v-4c0-0.276,0.224-0.5,0.5-0.5h22c0.276,0,0.5,0.224,0.5,0.5v4
			C42,42.776,41.776,43,41.5,43z M20,42h21v-3H20V42z"/>
	</g>
	<g>
		<rect x="19.5" y="38.5" class="st0" width="6" height="4"/>
		<path class="st1" d="M25.5,43h-6c-0.276,0-0.5-0.224-0.5-0.5v-4c0-0.276,0.224-0.5,0.5-0.5h6c0.276,0,0.5,0.224,0.5,0.5v4
			C26,42.776,25.776,43,25.5,43z M20,42h5v-3h-5V42z"/>
	</g>
	<g>
		<path class="st1" d="M41.5,50h-22c-0.276,0-0.5-0.224-0.5-0.5v-4c0-0.276,0.224-0.5,0.5-0.5h22c0.276,0,0.5,0.224,0.5,0.5v4
			C42,49.776,41.776,50,41.5,50z M20,49h21v-3H20V49z"/>
	</g>
	<g>
		<rect x="19.5" y="45.5" class="st0" width="6" height="4"/>
		<path class="st1" d="M25.5,50h-6c-0.276,0-0.5-0.224-0.5-0.5v-4c0-0.276,0.224-0.5,0.5-0.5h6c0.276,0,0.5,0.224,0.5,0.5v4
			C26,49.776,25.776,50,25.5,50z M20,49h5v-3h-5V49z"/>
	</g>
	<g>
		<path class="st4" d="M30.5,15.5v9h9C39.5,19.529,35.47,15.5,30.5,15.5z"/>
		<path class="st1" d="M39.5,25h-9c-0.276,0-0.5-0.224-0.5-0.5v-9c0-0.276,0.224-0.5,0.5-0.5c5.238,0,9.5,4.262,9.5,9.5
			C40,24.776,39.776,25,39.5,25z M31,24h7.985c-0.25-4.289-3.696-7.735-7.985-7.985V24z"/>
	</g>
	<g>
		<path class="st2" d="M30.5,24.5v-9c-4.971,0-9,4.029-9,9c0,2.485,1.007,4.735,2.636,6.364L30.5,24.5z"/>
		<path class="st1" d="M24.136,31.364L24.136,31.364c-0.133,0-0.26-0.053-0.354-0.146C21.988,29.423,21,27.037,21,24.5
			c0-5.238,4.262-9.5,9.5-9.5c0.276,0,0.5,0.224,0.5,0.5v9c0,0.133-0.053,0.26-0.146,0.354l-6.364,6.364
			C24.396,31.312,24.269,31.364,24.136,31.364z M30,16.015c-4.455,0.26-8,3.967-8,8.485c0,2.103,0.759,4.089,2.146,5.646L30,24.293
			V16.015z M30.5,24.5h0.01H30.5z"/>
	</g>
</g>
</svg>
