<?xml version="1.0" encoding="utf-8"?>
<!-- Generator: Adobe Illustrator 22.0.0, SVG Export Plug-In . SVG Version: 6.00 Build 0)  -->
<svg version="1.1" id="Icon_Set" xmlns="http://www.w3.org/2000/svg" xmlns:xlink="http://www.w3.org/1999/xlink" x="0px" y="0px"
	 viewBox="0 0 64 64" style="enable-background:new 0 0 64 64;" xml:space="preserve">
<style type="text/css">
	.st0{fill:#40C4FF;}
	.st1{fill:#263238;}
	.st2{fill:#FFD740;}
	.st3{fill:#FF5252;}
	.st4{fill:#4DB6AC;}
	.st5{fill:#FFFFFF;}
	.st6{fill:#4FC3F7;}
	.st7{fill:#37474F;}
</style>
<g>
	<g>
		<path class="st1" d="M18,53.5c-0.276,0-0.5-0.224-0.5-0.5v-8.511c0-3.609,1.818-6.921,4.863-8.858L28.069,32l-5.706-3.631
			c-3.045-1.938-4.863-5.249-4.863-8.858V11c0-0.276,0.224-0.5,0.5-0.5s0.5,0.224,0.5,0.5v8.511c0,3.266,1.645,6.262,4.4,8.015
			l6.369,4.053C29.413,31.67,29.5,31.829,29.5,32s-0.087,0.33-0.231,0.422L22.9,36.475c-2.755,1.753-4.4,4.749-4.4,8.015V53
			C18.5,53.276,18.276,53.5,18,53.5z"/>
	</g>
	<g>
		<path class="st1" d="M46,53.5c-0.276,0-0.5-0.224-0.5-0.5v-8.511c0-3.265-1.645-6.261-4.399-8.015l-6.369-4.053
			C34.587,32.33,34.5,32.171,34.5,32s0.087-0.33,0.231-0.422l6.369-4.053c2.755-1.753,4.399-4.75,4.399-8.015V11
			c0-0.276,0.224-0.5,0.5-0.5s0.5,0.224,0.5,0.5v8.511c0,3.609-1.817,6.92-4.862,8.858L35.932,32l5.706,3.631
			c3.045,1.938,4.862,5.25,4.862,8.858V53C46.5,53.276,46.276,53.5,46,53.5z"/>
	</g>
	<g>
		<path class="st0" d="M47,5H17c-1.105,0-2,0.895-2,2c0,1.105,0.895,2,2,2h30c1.105,0,2-0.895,2-2C49,5.895,48.105,5,47,5z"/>
		<path class="st1" d="M47,9.5H17c-1.378,0-2.5-1.122-2.5-2.5s1.122-2.5,2.5-2.5h30c1.379,0,2.5,1.122,2.5,2.5S48.379,9.5,47,9.5z
			 M17,5.5c-0.827,0-1.5,0.673-1.5,1.5s0.673,1.5,1.5,1.5h30c0.827,0,1.5-0.673,1.5-1.5S47.827,5.5,47,5.5H17z"/>
	</g>
	<g>
		<path class="st0" d="M17,59h30c1.105,0,2-0.895,2-2v0c0-1.105-0.895-2-2-2H17c-1.105,0-2,0.895-2,2v0C15,58.105,15.895,59,17,59z"
			/>
		<path class="st1" d="M47,59.5H17c-1.378,0-2.5-1.122-2.5-2.5s1.122-2.5,2.5-2.5h30c1.379,0,2.5,1.122,2.5,2.5S48.379,59.5,47,59.5
			z M17,55.5c-0.827,0-1.5,0.673-1.5,1.5s0.673,1.5,1.5,1.5h30c0.827,0,1.5-0.673,1.5-1.5s-0.673-1.5-1.5-1.5H17z"/>
	</g>
	<g>
		<path class="st2" d="M21,53l6.968-9.502c1.998-2.724,6.066-2.724,8.064,0L43,53"/>
		<path class="st1" d="M43,53.5c-0.153,0-0.306-0.071-0.403-0.204l-6.968-9.502c-0.857-1.169-2.18-1.839-3.629-1.839
			s-2.771,0.67-3.628,1.839l-6.968,9.502c-0.164,0.223-0.476,0.271-0.699,0.107c-0.223-0.164-0.271-0.477-0.107-0.699l6.968-9.502
			c1.047-1.428,2.664-2.247,4.435-2.247c1.772,0,3.388,0.819,4.436,2.247l6.968,9.502c0.163,0.223,0.115,0.536-0.107,0.699
			C43.207,53.469,43.103,53.5,43,53.5z"/>
	</g>
	<g>
		<path class="st1" d="M32,30.388c-0.561,0-1.121-0.156-1.61-0.467l-7.342-4.672c-1.595-1.016-2.547-2.75-2.547-4.64v-1.275
			c0-0.276,0.224-0.5,0.5-0.5h22c0.276,0,0.5,0.224,0.5,0.5v1.275c0,1.891-0.952,3.625-2.547,4.64l-7.343,4.672l-0.269-0.422
			l0.269,0.422C33.121,30.232,32.561,30.388,32,30.388z M21.5,19.833v0.775c0,1.546,0.779,2.966,2.084,3.796l7.342,4.672
			c0.653,0.416,1.495,0.415,2.147,0l7.343-4.672c1.305-0.831,2.084-2.25,2.084-3.796v-0.775H21.5z"/>
	</g>
	<g>
		<path class="st1" d="M56,32.5H46c-0.276,0-0.5-0.224-0.5-0.5s0.224-0.5,0.5-0.5h10c0.276,0,0.5,0.224,0.5,0.5S56.276,32.5,56,32.5
			z"/>
	</g>
	<g>
		<path class="st1" d="M59,32.5h-1c-0.276,0-0.5-0.224-0.5-0.5s0.224-0.5,0.5-0.5h1c0.276,0,0.5,0.224,0.5,0.5S59.276,32.5,59,32.5z
			"/>
	</g>
	<g>
		<path class="st1" d="M18,32.5H8c-0.276,0-0.5-0.224-0.5-0.5s0.224-0.5,0.5-0.5h10c0.276,0,0.5,0.224,0.5,0.5S18.276,32.5,18,32.5z
			"/>
	</g>
	<g>
		<path class="st1" d="M6,32.5H5c-0.276,0-0.5-0.224-0.5-0.5s0.224-0.5,0.5-0.5h1c0.276,0,0.5,0.224,0.5,0.5S6.276,32.5,6,32.5z"/>
	</g>
	<g>
		<path class="st1" d="M59,17.5h-4c-0.276,0-0.5-0.224-0.5-0.5s0.224-0.5,0.5-0.5h4c0.276,0,0.5,0.224,0.5,0.5S59.276,17.5,59,17.5z
			"/>
	</g>
	<g>
		<path class="st1" d="M57,19.5c-0.276,0-0.5-0.224-0.5-0.5v-4c0-0.276,0.224-0.5,0.5-0.5s0.5,0.224,0.5,0.5v4
			C57.5,19.276,57.276,19.5,57,19.5z"/>
	</g>
	<g>
		<path class="st1" d="M54,24h-4c-0.276,0-0.5-0.224-0.5-0.5S49.724,23,50,23h4c0.276,0,0.5,0.224,0.5,0.5S54.276,24,54,24z"/>
	</g>
	<g>
		<path class="st1" d="M52,26c-0.276,0-0.5-0.224-0.5-0.5v-4c0-0.276,0.224-0.5,0.5-0.5s0.5,0.224,0.5,0.5v4
			C52.5,25.776,52.276,26,52,26z"/>
	</g>
</g>
</svg>
