<?xml version="1.0" encoding="utf-8"?>
<!-- Generator: Adobe Illustrator 22.0.0, SVG Export Plug-In . SVG Version: 6.00 Build 0)  -->
<svg version="1.1" id="Icon_Set" xmlns="http://www.w3.org/2000/svg" xmlns:xlink="http://www.w3.org/1999/xlink" x="0px" y="0px"
	 viewBox="0 0 64 64" style="enable-background:new 0 0 64 64;" xml:space="preserve">
<style type="text/css">
	.st0{fill:#40C4FF;}
	.st1{fill:#263238;}
	.st2{fill:#FFD740;}
	.st3{fill:#FF5252;}
	.st4{fill:#4DB6AC;}
	.st5{fill:#FFFFFF;}
	.st6{fill:#4FC3F7;}
	.st7{fill:#37474F;}
</style>
<g>
	<g>
		<path class="st4" d="M48.5,29.142V17.5c0-0.552-0.448-1-1-1h-30c-0.552,0-1,0.448-1,1v16c0,0.552,0.448,1,1,1h25.338
			C43.917,32.032,45.965,30.091,48.5,29.142z"/>
	</g>
	<g>
		<path class="st1" d="M42.838,35H17.5c-0.827,0-1.5-0.673-1.5-1.5v-16c0-0.827,0.673-1.5,1.5-1.5h30c0.827,0,1.5,0.673,1.5,1.5
			v11.643c0,0.276-0.224,0.5-0.5,0.5s-0.5-0.224-0.5-0.5V17.5c0-0.275-0.225-0.5-0.5-0.5h-30c-0.275,0-0.5,0.225-0.5,0.5v16
			c0,0.275,0.225,0.5,0.5,0.5h25.338c0.276,0,0.5,0.224,0.5,0.5S43.114,35,42.838,35z"/>
	</g>
	<g>
		<path class="st1" d="M29.5,48.5c-0.06,0-0.119-0.011-0.178-0.033l-7.921-3.018c-1.654-0.63-3.392-0.949-5.162-0.949H13.5
			c-0.276,0-0.5-0.224-0.5-0.5s0.224-0.5,0.5-0.5h2.739c1.893,0,3.749,0.342,5.518,1.016l7.921,3.018
			c0.259,0.098,0.388,0.387,0.289,0.645C29.892,48.378,29.701,48.5,29.5,48.5z"/>
	</g>
	<g>
		<path class="st1" d="M49.5,60.5H34.99c-2.373,0-4.71-0.408-6.943-1.212l-7.574-2.727C19.437,56.188,18.354,56,17.255,56H13.5
			c-0.276,0-0.5-0.224-0.5-0.5s0.224-0.5,0.5-0.5h3.755c1.215,0,2.412,0.209,3.556,0.62l7.574,2.727
			c2.126,0.766,4.348,1.153,6.605,1.153H49.5c1.103,0,2-0.897,2-2s-0.897-2-2-2H38c-0.276,0-0.5-0.224-0.5-0.5s0.224-0.5,0.5-0.5
			h11.5c1.654,0,3,1.346,3,3S51.154,60.5,49.5,60.5z"/>
	</g>
	<g>
		<path class="st0" d="M4,42.5V57c0,0.552,0.448,1,1,1h5.5c0.552,0,1-0.448,1-1V42.5c0-0.552-0.448-1-1-1H5
			C4.448,41.5,4,41.948,4,42.5z"/>
		<path class="st1" d="M10.5,58.5H5c-0.827,0-1.5-0.673-1.5-1.5V42.5C3.5,41.673,4.173,41,5,41h5.5c0.827,0,1.5,0.673,1.5,1.5V57
			C12,57.827,11.327,58.5,10.5,58.5z M5,42c-0.275,0-0.5,0.225-0.5,0.5V57c0,0.275,0.225,0.5,0.5,0.5h5.5c0.275,0,0.5-0.225,0.5-0.5
			V42.5c0-0.275-0.225-0.5-0.5-0.5H5z"/>
	</g>
	<g>
		<path class="st1" d="M36.5,53.5H30c-0.276,0-0.5-0.224-0.5-0.5s0.224-0.5,0.5-0.5h6.5c1.103,0,2-0.897,2-2s-0.897-2-2-2h-7
			c-0.276,0-0.5-0.224-0.5-0.5s0.224-0.5,0.5-0.5h7c1.654,0,3,1.346,3,3S38.154,53.5,36.5,53.5z"/>
	</g>
	<g>
		<circle class="st5" cx="32.5" cy="25.5" r="6"/>
		<path class="st1" d="M32.5,32c-3.584,0-6.5-2.916-6.5-6.5s2.916-6.5,6.5-6.5s6.5,2.916,6.5,6.5S36.084,32,32.5,32z M32.5,20
			c-3.032,0-5.5,2.468-5.5,5.5s2.468,5.5,5.5,5.5s5.5-2.468,5.5-5.5S35.532,20,32.5,20z"/>
	</g>
	<g>
		<path class="st1" d="M33.25,28.5H30.5c-0.276,0-0.5-0.224-0.5-0.5s0.224-0.5,0.5-0.5h2.75c0.413,0,0.75-0.337,0.75-0.75
			S33.663,26,33.25,26h-1.5C30.785,26,30,25.215,30,24.25s0.785-1.75,1.75-1.75H34c0.276,0,0.5,0.224,0.5,0.5s-0.224,0.5-0.5,0.5
			h-2.25c-0.413,0-0.75,0.337-0.75,0.75S31.337,25,31.75,25h1.5c0.965,0,1.75,0.785,1.75,1.75S34.215,28.5,33.25,28.5z"/>
	</g>
	<g>
		<path class="st1" d="M32.5,23.5c-0.276,0-0.5-0.224-0.5-0.5v-1.5c0-0.276,0.224-0.5,0.5-0.5s0.5,0.224,0.5,0.5V23
			C33,23.276,32.776,23.5,32.5,23.5z"/>
	</g>
	<g>
		<path class="st1" d="M32.5,30c-0.276,0-0.5-0.224-0.5-0.5V28c0-0.276,0.224-0.5,0.5-0.5S33,27.724,33,28v1.5
			C33,29.776,32.776,30,32.5,30z"/>
	</g>
	<g>
		<path class="st1" d="M42.186,32H22.814c-0.192,0-0.368-0.11-0.451-0.285c-0.722-1.513-1.98-2.678-3.543-3.278
			c-0.193-0.074-0.32-0.26-0.32-0.467V23.03c0-0.207,0.128-0.393,0.32-0.467c1.562-0.601,2.82-1.765,3.543-3.278
			C22.446,19.11,22.622,19,22.814,19h19.371c0.192,0,0.368,0.11,0.451,0.285c0.723,1.514,1.98,2.678,3.543,3.278
			c0.192,0.074,0.32,0.26,0.32,0.467v4.939c0,0.207-0.127,0.393-0.32,0.467c-1.562,0.601-2.821,1.766-3.543,3.278
			C42.554,31.89,42.378,32,42.186,32z M23.123,31h18.754c0.797-1.505,2.066-2.684,3.623-3.365v-4.27
			c-1.557-0.681-2.826-1.86-3.623-3.365H23.123c-0.797,1.505-2.066,2.685-3.623,3.365v4.27C21.057,28.316,22.326,29.495,23.123,31z"
			/>
	</g>
	<g>
		<circle class="st2" cx="52" cy="38.5" r="8"/>
		<path class="st1" d="M52,47c-4.687,0-8.5-3.813-8.5-8.5S47.313,30,52,30s8.5,3.813,8.5,8.5S56.687,47,52,47z M52,31
			c-4.136,0-7.5,3.364-7.5,7.5S47.864,46,52,46s7.5-3.364,7.5-7.5S56.136,31,52,31z"/>
	</g>
	<g>
		<path class="st1" d="M52,36.5c-0.276,0-0.5-0.224-0.5-0.5v-1.5c0-0.276,0.224-0.5,0.5-0.5s0.5,0.224,0.5,0.5V36
			C52.5,36.276,52.276,36.5,52,36.5z"/>
	</g>
	<g>
		<path class="st1" d="M52,43c-0.276,0-0.5-0.224-0.5-0.5V41c0-0.276,0.224-0.5,0.5-0.5s0.5,0.224,0.5,0.5v1.5
			C52.5,42.776,52.276,43,52,43z"/>
	</g>
	<g>
		<path class="st1" d="M52.75,41.5H50c-0.276,0-0.5-0.224-0.5-0.5s0.224-0.5,0.5-0.5h2.75c0.413,0,0.75-0.337,0.75-0.75
			S53.163,39,52.75,39h-1.5c-0.965,0-1.75-0.785-1.75-1.75s0.785-1.75,1.75-1.75h2.25c0.276,0,0.5,0.224,0.5,0.5s-0.224,0.5-0.5,0.5
			h-2.25c-0.413,0-0.75,0.337-0.75,0.75S50.837,38,51.25,38h1.5c0.965,0,1.75,0.785,1.75,1.75S53.715,41.5,52.75,41.5z"/>
	</g>
	<g>
		<path class="st1" d="M60,9h-1c-0.276,0-0.5-0.224-0.5-0.5S58.724,8,59,8h1c0.276,0,0.5,0.224,0.5,0.5S60.276,9,60,9z"/>
	</g>
	<g>
		<path class="st1" d="M57,9H46c-0.276,0-0.5-0.224-0.5-0.5S45.724,8,46,8h11c0.276,0,0.5,0.224,0.5,0.5S57.276,9,57,9z"/>
	</g>
	<g>
		<path class="st1" d="M55,12H42c-0.276,0-0.5-0.224-0.5-0.5S41.724,11,42,11h13c0.276,0,0.5,0.224,0.5,0.5S55.276,12,55,12z"/>
	</g>
	<g>
		<path class="st1" d="M21,6.5h-4c-0.276,0-0.5-0.224-0.5-0.5s0.224-0.5,0.5-0.5h4c0.276,0,0.5,0.224,0.5,0.5S21.276,6.5,21,6.5z"/>
	</g>
	<g>
		<path class="st1" d="M19,8.5c-0.276,0-0.5-0.224-0.5-0.5V4c0-0.276,0.224-0.5,0.5-0.5s0.5,0.224,0.5,0.5v4
			C19.5,8.276,19.276,8.5,19,8.5z"/>
	</g>
	<g>
		<path class="st1" d="M13,12H9c-0.276,0-0.5-0.224-0.5-0.5S8.724,11,9,11h4c0.276,0,0.5,0.224,0.5,0.5S13.276,12,13,12z"/>
	</g>
	<g>
		<path class="st1" d="M11,14c-0.276,0-0.5-0.224-0.5-0.5v-4C10.5,9.224,10.724,9,11,9s0.5,0.224,0.5,0.5v4
			C11.5,13.776,11.276,14,11,14z"/>
	</g>
</g>
</svg>
