<?xml version="1.0" encoding="utf-8"?>
<!-- Generator: Adobe Illustrator 22.0.0, SVG Export Plug-In . SVG Version: 6.00 Build 0)  -->
<svg version="1.1" id="Icon_Set" xmlns="http://www.w3.org/2000/svg" xmlns:xlink="http://www.w3.org/1999/xlink" x="0px" y="0px"
	 viewBox="0 0 64 64" style="enable-background:new 0 0 64 64;" xml:space="preserve">
<style type="text/css">
	.st0{fill:#40C4FF;}
	.st1{fill:#263238;}
	.st2{fill:#FFD740;}
	.st3{fill:#FF5252;}
	.st4{fill:#4DB6AC;}
	.st5{fill:#FFFFFF;}
	.st6{fill:#4FC3F7;}
	.st7{fill:#37474F;}
</style>
<g>
	<g>
		<path class="st0" d="M32,8C18.746,8,8,18.745,8,32c0,1.031,0.072,2.044,0.199,3.041l1.133,0.384
			c0.833-0.626,1.725-1.145,2.67-1.552l0.273-1.364C12.565,31.055,13.852,30,15.334,30h3.764c1.482,0,2.769,1.055,3.06,2.509
			l0.272,1.364c0.945,0.408,1.837,0.926,2.67,1.552l1.33-0.45c1.408-0.474,2.961,0.113,3.702,1.395l1.882,3.261
			c0.742,1.284,0.471,2.926-0.644,3.904l-1.047,0.921c0.062,0.518,0.094,1.034,0.094,1.545s-0.031,1.027-0.094,1.545l1.049,0.922
			c1.113,0.976,1.384,2.619,0.642,3.903l-1.881,3.259c-0.057,0.099-0.128,0.186-0.194,0.276C30.618,55.964,31.305,56,32,56
			c13.255,0,24-10.745,24-24S45.255,8,32,8z"/>
	</g>
	<g>
		<path class="st0" d="M17.216,41c-2.632,0-4.772,2.051-4.963,4.635c1.408,2.036,3.123,3.842,5.078,5.354
			c2.703-0.063,4.885-2.271,4.885-4.988C22.216,43.243,19.973,41,17.216,41z"/>
	</g>
	<g>
		<path class="st0" d="M17.216,41c-2.632,0-4.772,2.051-4.963,4.635c1.408,2.036,3.123,3.842,5.078,5.354
			c2.703-0.063,4.885-2.271,4.885-4.988C22.216,43.243,19.973,41,17.216,41z"/>
	</g>
	<g>
		<path class="st1" d="M32,56.5c-0.66,0-1.349-0.031-2.105-0.096c-0.275-0.023-0.479-0.266-0.456-0.541
			c0.023-0.275,0.256-0.491,0.541-0.456C30.708,55.47,31.369,55.5,32,55.5c12.958,0,23.5-10.542,23.5-23.5S44.958,8.5,32,8.5
			S8.5,19.042,8.5,32c0,0.957,0.065,1.958,0.194,2.979c0.035,0.274-0.16,0.524-0.434,0.559c-0.268,0.035-0.523-0.159-0.559-0.434
			C7.568,34.042,7.5,32.998,7.5,32C7.5,18.491,18.491,7.5,32,7.5S56.5,18.491,56.5,32S45.51,56.5,32,56.5z"/>
	</g>
	<g>
		<path class="st1" d="M17.33,51.488c-0.107,0-0.214-0.034-0.306-0.104c-2.002-1.549-3.746-3.388-5.183-5.465
			c-0.157-0.227-0.101-0.539,0.127-0.695c0.225-0.157,0.538-0.102,0.695,0.127c1.378,1.992,3.051,3.756,4.973,5.243
			c0.218,0.169,0.258,0.483,0.089,0.702C17.627,51.421,17.479,51.488,17.33,51.488z"/>
	</g>
	<g>
		<path class="st1" d="M4,32.5c-0.276,0-0.5-0.224-0.5-0.5C3.5,16.285,16.285,3.5,32,3.5c0.276,0,0.5,0.224,0.5,0.5
			S32.276,4.5,32,4.5C16.836,4.5,4.5,16.836,4.5,32C4.5,32.276,4.276,32.5,4,32.5z"/>
	</g>
	<g>
		<path class="st1" d="M35,4.5h-1c-0.276,0-0.5-0.224-0.5-0.5s0.224-0.5,0.5-0.5h1c0.276,0,0.5,0.224,0.5,0.5S35.276,4.5,35,4.5z"/>
	</g>
	<g>
		<path class="st1" d="M32,60.5c-0.276,0-0.5-0.224-0.5-0.5s0.224-0.5,0.5-0.5c15.164,0,27.5-12.336,27.5-27.5
			c0-0.276,0.224-0.5,0.5-0.5s0.5,0.224,0.5,0.5C60.5,47.715,47.715,60.5,32,60.5z"/>
	</g>
	<g>
		<path class="st1" d="M53,6.5h-4c-0.276,0-0.5-0.224-0.5-0.5s0.224-0.5,0.5-0.5h4c0.276,0,0.5,0.224,0.5,0.5S53.276,6.5,53,6.5z"/>
	</g>
	<g>
		<path class="st1" d="M51,8.5c-0.276,0-0.5-0.224-0.5-0.5V4c0-0.276,0.224-0.5,0.5-0.5s0.5,0.224,0.5,0.5v4
			C51.5,8.276,51.276,8.5,51,8.5z"/>
	</g>
	<g>
		<path class="st1" d="M60,13h-4c-0.276,0-0.5-0.224-0.5-0.5S55.724,12,56,12h4c0.276,0,0.5,0.224,0.5,0.5S60.276,13,60,13z"/>
	</g>
	<g>
		<path class="st1" d="M58,15c-0.276,0-0.5-0.224-0.5-0.5v-4c0-0.276,0.224-0.5,0.5-0.5s0.5,0.224,0.5,0.5v4
			C58.5,14.776,58.276,15,58,15z"/>
	</g>
	<g>
		<path class="st1" d="M32,20.5c-6.869,0-13.465-1.481-18.097-4.063c-0.241-0.134-0.328-0.439-0.193-0.68
			c0.134-0.241,0.438-0.327,0.68-0.193C18.878,18.065,25.297,19.5,32,19.5c6.703,0,13.122-1.435,17.609-3.937
			c0.242-0.134,0.545-0.048,0.68,0.193s0.048,0.546-0.193,0.68C45.465,19.019,38.869,20.5,32,20.5z"/>
	</g>
	<g>
		<path class="st1" d="M32,56.5c-0.276,0-0.5-0.224-0.5-0.5V8c0-0.276,0.224-0.5,0.5-0.5s0.5,0.224,0.5,0.5v48
			C32.5,56.276,32.277,56.5,32,56.5z"/>
	</g>
	<g>
		<path class="st1" d="M12.423,32.5H8c-0.276,0-0.5-0.224-0.5-0.5s0.224-0.5,0.5-0.5h4.422c0.276,0,0.5,0.224,0.5,0.5
			S12.699,32.5,12.423,32.5z"/>
	</g>
	<g>
		<path class="st1" d="M56,32.5H22.009c-0.276,0-0.5-0.224-0.5-0.5s0.224-0.5,0.5-0.5H56c0.276,0,0.5,0.224,0.5,0.5
			S56.277,32.5,56,32.5z"/>
	</g>
	<g>
		<path class="st2" d="M28.596,48.69l-0.452-0.261c0.173-0.783,0.272-1.594,0.272-2.43s-0.098-1.646-0.272-2.43l0.451-0.261
			l1.455-1.279c0.401-0.352,0.498-0.939,0.231-1.401l-1.882-3.259c-0.267-0.462-0.823-0.672-1.329-0.501l-1.835,0.621l-0.458,0.265
			c-1.194-1.095-2.618-1.943-4.201-2.44V34.8l-0.38-1.9c-0.105-0.524-0.564-0.9-1.098-0.9h-3.764c-0.534,0-0.994,0.377-1.098,0.9
			l-0.38,1.9v0.514c-1.584,0.498-3.007,1.345-4.201,2.44L9.196,37.49l-1.835-0.621c-0.506-0.171-1.062,0.039-1.329,0.501L4.15,40.63
			c-0.267,0.462-0.17,1.049,0.231,1.401l1.455,1.279l0.451,0.261C6.114,44.354,6.016,45.165,6.016,46s0.098,1.647,0.272,2.43
			L5.836,48.69l-1.455,1.279C3.98,50.321,3.884,50.908,4.15,51.37l1.882,3.26c0.267,0.462,0.823,0.672,1.329,0.501l1.835-0.621
			l0.459-0.265c1.194,1.095,2.618,1.943,4.201,2.44v0.515l0.38,1.899C14.34,59.623,14.8,60,15.334,60h3.764
			c0.534,0,0.994-0.377,1.098-0.9l0.38-1.899v-0.515c1.584-0.498,3.008-1.345,4.201-2.44l0.459,0.265l1.835,0.621
			c0.506,0.171,1.062-0.039,1.329-0.501l1.882-3.26c0.267-0.462,0.17-1.049-0.231-1.401L28.596,48.69z M17.216,53
			c-3.866,0-7-3.134-7-7c0-3.866,3.134-7,7-7c3.866,0,7,3.134,7,7C24.216,49.866,21.082,53,17.216,53z"/>
		<path class="st1" d="M19.098,60.5h-3.764c-0.77,0-1.438-0.548-1.588-1.303l-0.384-2.149c-1.377-0.48-2.643-1.215-3.77-2.189
			l-0.146,0.084l-1.925,0.662c-0.729,0.245-1.538-0.059-1.922-0.725l-1.882-3.26c-0.384-0.667-0.244-1.519,0.333-2.026l1.675-1.411
			c-0.14-0.733-0.21-1.466-0.21-2.183c0-0.715,0.07-1.446,0.209-2.177l-0.139-0.08l-1.536-1.337
			c-0.578-0.507-0.718-1.359-0.333-2.026l1.882-3.26c0.385-0.667,1.191-0.974,1.922-0.725l2.066,0.75
			c1.127-0.975,2.392-1.71,3.769-2.191V34.8l0.39-1.998c0.15-0.754,0.819-1.302,1.588-1.302h3.764c0.77,0,1.438,0.548,1.588,1.303
			l0.384,2.149c1.377,0.481,2.643,1.216,3.77,2.189l0.146-0.084l1.925-0.662c0.727-0.248,1.538,0.058,1.922,0.725l1.881,3.26
			c0.385,0.667,0.245,1.519-0.334,2.027l-1.674,1.411c0.139,0.731,0.21,1.464,0.21,2.183c0,0.716-0.07,1.447-0.209,2.177l0.139,0.08
			c0.028,0.017,0.055,0.036,0.08,0.058l1.455,1.279c0.578,0.507,0.719,1.359,0.333,2.026l-1.881,3.26
			c-0.385,0.666-1.193,0.972-1.922,0.725l-2.066-0.75c-1.126,0.975-2.392,1.71-3.769,2.191v0.154l-0.39,1.997
			C20.536,59.952,19.867,60.5,19.098,60.5z M9.654,53.745c0.122,0,0.244,0.045,0.338,0.131c1.178,1.081,2.529,1.866,4.014,2.332
			c0.208,0.065,0.35,0.259,0.35,0.477v0.515l0.37,1.801c0.058,0.289,0.313,0.499,0.608,0.499h3.764c0.294,0,0.55-0.209,0.608-0.498
			l0.38-1.899l-0.01-0.417c0-0.218,0.142-0.412,0.35-0.477c1.485-0.467,2.835-1.251,4.013-2.332c0.161-0.147,0.4-0.173,0.588-0.065
			l0.459,0.265l1.745,0.58c0.281,0.096,0.589-0.022,0.736-0.277l1.881-3.26c0.147-0.255,0.094-0.581-0.127-0.775l-1.418-1.247
			l-0.409-0.236c-0.189-0.109-0.285-0.328-0.238-0.541c0.172-0.779,0.26-1.56,0.26-2.322s-0.087-1.543-0.26-2.322
			c-0.047-0.213,0.049-0.432,0.238-0.541l0.451-0.26l1.375-1.222c0.221-0.194,0.275-0.52,0.127-0.775l-1.881-3.26
			c-0.147-0.254-0.457-0.371-0.736-0.277l-1.835,0.621l-0.369,0.224c-0.189,0.109-0.427,0.083-0.588-0.065
			c-1.178-1.08-2.528-1.865-4.013-2.332c-0.208-0.065-0.35-0.259-0.35-0.477V34.8l-0.37-1.801c-0.058-0.289-0.313-0.499-0.608-0.499
			h-3.764c-0.294,0-0.55,0.209-0.608,0.498l-0.38,1.9l0.01,0.417c0,0.218-0.142,0.412-0.35,0.477
			c-1.485,0.466-2.835,1.251-4.014,2.332c-0.161,0.147-0.399,0.173-0.588,0.064l-0.458-0.265l-1.745-0.581
			c-0.282-0.095-0.589,0.022-0.736,0.277l-1.882,3.26c-0.147,0.255-0.094,0.581,0.127,0.775l1.456,1.279l0.371,0.203
			c0.189,0.109,0.285,0.328,0.238,0.541c-0.173,0.78-0.26,1.561-0.26,2.322s0.087,1.542,0.26,2.322
			c0.047,0.213-0.049,0.432-0.238,0.541l-0.452,0.261l-1.375,1.221c-0.221,0.194-0.274,0.521-0.127,0.776l1.882,3.259
			c0.147,0.255,0.458,0.372,0.736,0.277l1.834-0.621l0.368-0.224C9.482,53.767,9.568,53.745,9.654,53.745z M17.216,53.5
			c-4.136,0-7.5-3.364-7.5-7.5s3.364-7.5,7.5-7.5s7.5,3.364,7.5,7.5S21.352,53.5,17.216,53.5z M17.216,39.5
			c-3.584,0-6.5,2.916-6.5,6.5s2.916,6.5,6.5,6.5s6.5-2.916,6.5-6.5S20.8,39.5,17.216,39.5z"/>
	</g>
	<g>
		<path class="st1" d="M49.853,48.5c-0.083,0-0.166-0.021-0.243-0.063C45.122,45.935,38.704,44.5,32,44.5
			c-0.256,0-0.508,0.009-0.759,0.019l-0.426,0.014c-0.303,0.01-0.505-0.211-0.513-0.487c-0.007-0.276,0.211-0.505,0.487-0.513
			l0.416-0.014C31.468,43.51,31.732,43.5,32,43.5c6.869,0,13.464,1.481,18.096,4.063c0.241,0.134,0.328,0.439,0.193,0.68
			C50.198,48.408,50.028,48.5,49.853,48.5z"/>
	</g>
	<g>
		<path class="st1" d="M14.148,48.5c-0.175,0-0.346-0.092-0.437-0.256c-0.135-0.241-0.048-0.546,0.193-0.68
			c2.288-1.275,5.016-2.279,8.107-2.982c0.267-0.065,0.537,0.107,0.598,0.376c0.062,0.269-0.107,0.537-0.376,0.598
			c-2.999,0.683-5.637,1.652-7.841,2.88C14.314,48.479,14.23,48.5,14.148,48.5z"/>
	</g>
	<g>
		<path class="st1" d="M21.375,49.268c-0.169,0-0.334-0.086-0.428-0.241c-1.37-2.265-2.438-4.886-3.177-7.792
			c-0.068-0.268,0.094-0.54,0.361-0.607c0.265-0.071,0.54,0.093,0.607,0.361c0.715,2.81,1.746,5.34,3.064,7.52
			c0.143,0.236,0.067,0.544-0.169,0.687C21.553,49.244,21.463,49.268,21.375,49.268z"/>
	</g>
	<g>
		<path class="st1" d="M32,56.5c-0.276,0-0.5-0.224-0.5-0.5s0.224-0.5,0.5-0.5c7.917,0,14.357-10.542,14.357-23.5S39.917,8.5,32,8.5
			c-7.403,0-13.686,9.455-14.302,21.525c-0.014,0.276-0.257,0.478-0.525,0.474c-0.276-0.014-0.488-0.249-0.474-0.525
			C17.354,17.162,23.932,7.5,32,7.5c8.468,0,15.357,10.991,15.357,24.5S40.468,56.5,32,56.5z"/>
	</g>
	<g>
		<path class="st1" d="M30,60.5h-1c-0.276,0-0.5-0.224-0.5-0.5s0.224-0.5,0.5-0.5h1c0.276,0,0.5,0.224,0.5,0.5S30.276,60.5,30,60.5z
			"/>
	</g>
</g>
</svg>
