<?xml version="1.0" encoding="utf-8"?>
<!-- Generator: Adobe Illustrator 22.0.0, SVG Export Plug-In . SVG Version: 6.00 Build 0)  -->
<svg version="1.1" id="Icon_Set" xmlns="http://www.w3.org/2000/svg" xmlns:xlink="http://www.w3.org/1999/xlink" x="0px" y="0px"
	 viewBox="0 0 64 64" style="enable-background:new 0 0 64 64;" xml:space="preserve">
<style type="text/css">
	.st0{fill:#40C4FF;}
	.st1{fill:#263238;}
	.st2{fill:#FFD740;}
	.st3{fill:#FF5252;}
	.st4{fill:#4DB6AC;}
	.st5{fill:#FFFFFF;}
	.st6{fill:#4FC3F7;}
	.st7{fill:#37474F;}
</style>
<g>
	<g>
		<path class="st1" d="M18.5,6h-10C8.224,6,8,5.776,8,5.5S8.224,5,8.5,5h10C18.776,5,19,5.224,19,5.5S18.776,6,18.5,6z"/>
	</g>
	<g>
		<path class="st1" d="M6.5,6h-1C5.224,6,5,5.776,5,5.5S5.224,5,5.5,5h1C6.776,5,7,5.224,7,5.5S6.776,6,6.5,6z"/>
	</g>
	<g>
		<path class="st1" d="M54,58H44c-0.276,0-0.5-0.224-0.5-0.5S43.724,57,44,57h10c0.276,0,0.5,0.224,0.5,0.5S54.276,58,54,58z"/>
	</g>
	<g>
		<path class="st1" d="M57,58h-1c-0.276,0-0.5-0.224-0.5-0.5S55.724,57,56,57h1c0.276,0,0.5,0.224,0.5,0.5S57.276,58,57,58z"/>
	</g>
	<g>
		<path class="st1" d="M2,64c-0.276,0-0.5-0.224-0.5-0.5v-3C1.5,60.224,1.724,60,2,60h14.5v-5c0-0.276,0.224-0.5,0.5-0.5h14.5v-5
			c0-0.276,0.224-0.5,0.5-0.5h14.5v-5c0-0.276,0.224-0.5,0.5-0.5h15c0.276,0,0.5,0.224,0.5,0.5s-0.224,0.5-0.5,0.5H47.5v5
			c0,0.276-0.224,0.5-0.5,0.5H32.5v5c0,0.276-0.224,0.5-0.5,0.5H17.5v5c0,0.276-0.224,0.5-0.5,0.5H2.5v2.5C2.5,63.776,2.276,64,2,64
			z"/>
	</g>
	<g>
		<path class="st1" d="M40.791,13c-3.584,0-6.5-2.916-6.5-6.5s2.916-6.5,6.5-6.5s6.5,2.916,6.5,6.5S44.375,13,40.791,13z M40.791,1
			c-3.033,0-5.5,2.468-5.5,5.5s2.467,5.5,5.5,5.5s5.5-2.468,5.5-5.5S43.824,1,40.791,1z"/>
	</g>
	<g>
		<path class="st2" d="M44.951,3.031l0.447-0.372C44.298,1.34,42.643,0.5,40.791,0.5c-3.314,0-6,2.686-6,6h0.566
			C38.863,6.5,42.257,5.272,44.951,3.031z"/>
		<path class="st1" d="M35.357,7h-0.566c-0.276,0-0.5-0.224-0.5-0.5c0-3.584,2.916-6.5,6.5-6.5c1.932,0,3.751,0.853,4.991,2.338
			c0.085,0.102,0.126,0.233,0.114,0.365c-0.012,0.133-0.076,0.255-0.178,0.34l-0.447,0.372C42.493,5.727,38.972,7,35.357,7z
			 M35.313,6h0.044c3.381,0,6.675-1.191,9.274-3.354l0,0l0.045-0.037C43.648,1.581,42.258,1,40.791,1C37.927,1,35.567,3.2,35.313,6z
			"/>
	</g>
	<g>
		<path class="st1" d="M40.786,17.468c-0.145,0-0.283-0.062-0.378-0.173l-3.003-3.463c-0.079-0.091-0.122-0.206-0.122-0.327
			l-0.001-1.82c0-0.179,0.095-0.344,0.25-0.434c0.156-0.088,0.347-0.089,0.501,0.002c1.674,0.974,3.824,0.978,5.499,0.011
			c0.154-0.09,0.345-0.089,0.5-0.001c0.154,0.09,0.25,0.255,0.25,0.434l0.001,1.799c0,0.12-0.043,0.235-0.122,0.326l-2.997,3.473
			C41.07,17.404,40.932,17.468,40.786,17.468L40.786,17.468z M38.283,13.318l2.502,2.885l2.498-2.894l-0.001-0.81
			c-1.583,0.66-3.418,0.657-5-0.008L38.283,13.318z"/>
	</g>
	<g>
		<path class="st1" d="M38.791,50h-4c-0.276,0-0.5-0.224-0.5-0.5v-19c0-0.276,0.224-0.5,0.5-0.5h15.5c1.654,0,3,1.346,3,3v11
			c0,0.276-0.224,0.5-0.5,0.5h-4c-0.232,0-0.433-0.159-0.486-0.385l-1.818-7.682c-0.054-0.227-0.254-0.385-0.487-0.385h-4.342
			c-0.247,0-0.459,0.185-0.495,0.43l-1.877,13.093C39.25,49.817,39.04,50,38.791,50z M35.291,49h3.066l1.815-12.664
			c0.105-0.733,0.744-1.287,1.485-1.287H46c0.698,0,1.299,0.475,1.459,1.154l1.727,7.297h3.104V33c0-1.103-0.897-2-2-2h-15V49z"/>
	</g>
	<g>
		<path class="st1" d="M29.687,33.395c-0.276,0-0.5-0.224-0.5-0.5V23.57c0-1.145,0.635-2.173,1.658-2.684l3.723-1.861
			c0.154-0.078,0.339-0.069,0.486,0.021c0.147,0.092,0.237,0.253,0.237,0.426V30h11v-6.052c0-0.231,0.16-0.434,0.385-0.486
			c0.223-0.06,0.458,0.056,0.562,0.263l0.591,1.182c0.767,1.534,2.309,2.487,4.025,2.487H55.5v-3h-2.718
			c-1.144,0-2.172-0.636-2.684-1.658l-3.009-6.021c-0.432-0.865-1.147-1.58-2.013-2.014l-1.169-0.585l-2.74,3.175
			c-0.095,0.109-0.232,0.173-0.377,0.173c-0.104-0.025-0.283-0.062-0.378-0.172l-2.751-3.167l-8.985,4.492
			c-1.535,0.768-2.488,2.311-2.488,4.025v6.752c0,0.276-0.224,0.5-0.5,0.5s-0.5-0.224-0.5-0.5v-6.752
			c0-2.096,1.165-3.981,3.041-4.92l9.332-4.665c0.205-0.101,0.451-0.054,0.601,0.119l2.627,3.023l2.617-3.032
			c0.15-0.173,0.398-0.221,0.602-0.12l1.518,0.759c1.058,0.529,1.932,1.403,2.46,2.461l3.009,6.021
			c0.341,0.682,1.026,1.105,1.789,1.105H56c0.276,0,0.5,0.224,0.5,0.5v4c0,0.276-0.224,0.5-0.5,0.5h-4.146
			c-1.858,0-3.55-0.914-4.563-2.427V30.5c0,0.276-0.224,0.5-0.5,0.5h-12c-0.276,0-0.5-0.224-0.5-0.5V20.281l-2.999,1.5
			c-0.682,0.341-1.105,1.026-1.105,1.789v9.324C30.187,33.171,29.963,33.395,29.687,33.395z"/>
	</g>
	<g>
		<polygon class="st0" points="42.282,24.468 40.791,26.468 39.282,24.468 39.782,15.468 41.782,15.468 		"/>
		<path class="st1" d="M40.791,26.968c-0.157,0-0.305-0.073-0.399-0.199l-1.509-2c-0.071-0.094-0.107-0.211-0.1-0.328l0.5-9
			c0.015-0.266,0.234-0.473,0.499-0.473h2c0.265,0,0.484,0.207,0.499,0.473l0.5,9c0.007,0.116-0.028,0.232-0.098,0.326l-1.491,2
			c-0.094,0.126-0.242,0.201-0.399,0.201C40.792,26.968,40.791,26.968,40.791,26.968z M39.791,24.312l0.997,1.322l0.984-1.32
			l-0.464-8.347h-1.054L39.791,24.312z"/>
	</g>
	<g>
		<path class="st1" d="M58,28.394c-0.276,0-0.5-0.224-0.5-0.5s0.224-0.5,0.5-0.5c0.827,0,1.5-0.673,1.5-1.5s-0.673-1.5-1.5-1.5
			c-0.276,0-0.5-0.224-0.5-0.5s0.224-0.5,0.5-0.5c1.378,0,2.5,1.121,2.5,2.5S59.378,28.394,58,28.394z"/>
	</g>
	<g>
		<path class="st1" d="M15.604,24c-3.584,0-6.5-2.916-6.5-6.5s2.916-6.5,6.5-6.5s6.5,2.916,6.5,6.5S19.188,24,15.604,24z M15.604,12
			c-3.033,0-5.5,2.468-5.5,5.5s2.467,5.5,5.5,5.5s5.5-2.468,5.5-5.5S18.637,12,15.604,12z"/>
	</g>
	<g>
		<path class="st2" d="M19.765,14.031l0.447-0.372c-1.101-1.319-2.755-2.159-4.607-2.159c-3.314,0-6,2.686-6,6h0.566
			C13.676,17.5,17.07,16.273,19.765,14.031z"/>
		<path class="st1" d="M10.171,18H9.604c-0.276,0-0.5-0.224-0.5-0.5c0-3.584,2.916-6.5,6.5-6.5c1.932,0,3.751,0.853,4.991,2.339
			c0.085,0.102,0.126,0.233,0.114,0.365c-0.012,0.133-0.076,0.255-0.178,0.34l-0.447,0.372l0,0C17.306,16.727,13.785,18,10.171,18z
			 M10.127,17h0.044c3.381,0,6.674-1.19,9.274-3.354l0.045-0.037C18.462,12.581,17.071,12,15.604,12C12.74,12,10.38,14.2,10.127,17z
			 M19.765,14.031h0.01H19.765z"/>
	</g>
	<g>
		<path class="st1" d="M15.6,29.468c-0.167,0-0.322-0.083-0.415-0.221l-3.003-4.463c-0.055-0.083-0.085-0.18-0.085-0.279
			l-0.001-1.82c0-0.179,0.095-0.344,0.25-0.434c0.155-0.088,0.347-0.089,0.501,0.002c1.673,0.973,3.821,0.978,5.499,0.011
			c0.154-0.088,0.345-0.089,0.5,0.001c0.155,0.089,0.25,0.254,0.25,0.433l0.001,1.798c0,0.099-0.029,0.196-0.084,0.278l-2.997,4.473
			C15.922,29.385,15.767,29.468,15.6,29.468L15.6,29.468z M13.096,24.353l2.502,3.719l2.498-3.728L18.095,23.5
			c-1.584,0.661-3.419,0.657-5-0.008L13.096,24.353z"/>
	</g>
	<g>
		<path class="st1" d="M15.6,33.468c-0.276,0-0.5-0.224-0.5-0.5v-4c0-0.276,0.224-0.5,0.5-0.5s0.5,0.224,0.5,0.5v4
			C16.1,33.244,15.876,33.468,15.6,33.468z"/>
	</g>
	<g>
		<path class="st1" d="M13.604,61h-4c-0.276,0-0.5-0.224-0.5-0.5v-19c0-0.276,0.224-0.5,0.5-0.5h15.5c1.654,0,3,1.346,3,3v11
			c0,0.276-0.224,0.5-0.5,0.5h-4c-0.232,0-0.433-0.159-0.486-0.385L21.3,47.434c-0.054-0.227-0.254-0.385-0.487-0.385h-4.342
			c-0.247,0-0.459,0.185-0.495,0.43L14.1,60.571C14.064,60.817,13.853,61,13.604,61z M10.104,60h3.066l1.815-12.664
			c0.106-0.733,0.744-1.287,1.485-1.287h4.342c0.698,0,1.299,0.475,1.459,1.154L24,54.5h3.104V44c0-1.103-0.897-2-2-2h-15V60z"/>
	</g>
	<g>
		<path class="st1" d="M4.5,42.289h-4c-0.276,0-0.5-0.224-0.5-0.5v-8.146c0-2.097,1.165-3.981,3.041-4.919l9.332-4.666
			c0.247-0.124,0.547-0.022,0.671,0.224c0.124,0.247,0.023,0.547-0.224,0.671l-9.332,4.666C1.953,30.385,1,31.927,1,33.643v7.646h3
			V34.57c0-1.144,0.635-2.172,1.658-2.684l3.723-1.861c0.154-0.077,0.339-0.069,0.486,0.021c0.147,0.092,0.237,0.253,0.237,0.426V41
			h11v-6.052c0-0.231,0.16-0.434,0.385-0.486c0.225-0.058,0.458,0.055,0.562,0.263l0.591,1.182c0.767,1.535,2.309,2.488,4.025,2.488
			h5.019v-3h-4.091c-1.144,0-2.172-0.636-2.684-1.659l-3.009-6.021c-0.432-0.865-1.147-1.58-2.013-2.013l-1.518-0.759
			c-0.247-0.124-0.347-0.424-0.224-0.671c0.124-0.246,0.425-0.348,0.671-0.224l1.518,0.759c1.058,0.528,1.932,1.402,2.46,2.46
			l3.009,6.021c0.341,0.683,1.026,1.106,1.789,1.106h4.591c0.276,0,0.5,0.224,0.5,0.5v4c0,0.276-0.224,0.5-0.5,0.5h-5.519
			c-1.858,0-3.549-0.915-4.563-2.428V41.5c0,0.276-0.224,0.5-0.5,0.5h-12c-0.276,0-0.5-0.224-0.5-0.5V31.281l-2.999,1.5
			C5.424,33.122,5,33.808,5,34.57v7.219C5,42.065,4.776,42.289,4.5,42.289z"/>
	</g>
	<g>
		<path class="st1" d="M2.5,46.289c-1.378,0-2.5-1.121-2.5-2.5c0-0.276,0.224-0.5,0.5-0.5s0.5,0.224,0.5,0.5
			c0,0.827,0.673,1.5,1.5,1.5s1.5-0.673,1.5-1.5c0-0.276,0.224-0.5,0.5-0.5s0.5,0.224,0.5,0.5C5,45.168,3.878,46.289,2.5,46.289z"/>
	</g>
	<g>
		<polygon class="st2" points="57,6 59.009,9.95 63.5,10.584 60.25,13.658 61.017,18 57,15.95 52.983,18 53.75,13.658 50.5,10.584 
			54.991,9.95 		"/>
		<path class="st1" d="M61.017,18.5c-0.078,0-0.156-0.018-0.227-0.055L57,16.512l-3.79,1.934c-0.168,0.087-0.372,0.069-0.524-0.043
			c-0.152-0.113-0.228-0.303-0.195-0.489l0.72-4.077l-3.055-2.889c-0.139-0.132-0.191-0.332-0.133-0.516
			c0.059-0.183,0.216-0.316,0.407-0.343l4.233-0.598l1.891-3.718c0.171-0.336,0.721-0.336,0.892,0l1.891,3.718l4.233,0.598
			c0.19,0.026,0.348,0.16,0.407,0.343c0.058,0.184,0.006,0.384-0.133,0.516l-3.055,2.889l0.72,4.077
			c0.033,0.187-0.042,0.376-0.195,0.489C61.227,18.467,61.122,18.5,61.017,18.5z M57,15.45c0.078,0,0.156,0.019,0.227,0.055
			l3.123,1.594l-0.592-3.354c-0.029-0.165,0.026-0.335,0.148-0.45l2.496-2.361l-3.463-0.488c-0.162-0.022-0.302-0.123-0.376-0.269
			L57,7.104l-1.563,3.073c-0.074,0.146-0.214,0.246-0.376,0.269l-3.463,0.488l2.496,2.361c0.122,0.115,0.178,0.285,0.148,0.45
			l-0.592,3.354l3.123-1.594C56.844,15.469,56.922,15.45,57,15.45z"/>
	</g>
</g>
</svg>
