<?xml version="1.0" encoding="utf-8"?>
<!-- Generator: Adobe Illustrator 22.0.0, SVG Export Plug-In . SVG Version: 6.00 Build 0)  -->
<svg version="1.1" id="Icon_Set" xmlns="http://www.w3.org/2000/svg" xmlns:xlink="http://www.w3.org/1999/xlink" x="0px" y="0px"
	 viewBox="0 0 64 64" style="enable-background:new 0 0 64 64;" xml:space="preserve">
<style type="text/css">
	.st0{fill:#40C4FF;}
	.st1{fill:#263238;}
	.st2{fill:#FFD740;}
	.st3{fill:#FF5252;}
	.st4{fill:#4DB6AC;}
	.st5{fill:#FFFFFF;}
	.st6{fill:#4FC3F7;}
	.st7{fill:#37474F;}
</style>
<g>
	<g>
		<path class="st4" d="M51.25,12.5c0-0.552-0.448-1-1-1h-37c-0.552,0-1,0.448-1,1v20c0,0.552,0.448,1,1,1h37c0.552,0,1-0.448,1-1
			V12.5z"/>
		<path class="st1" d="M50.25,34h-37c-0.827,0-1.5-0.673-1.5-1.5v-20c0-0.827,0.673-1.5,1.5-1.5h37c0.827,0,1.5,0.673,1.5,1.5v20
			C51.75,33.327,51.077,34,50.25,34z M13.25,12c-0.276,0-0.5,0.224-0.5,0.5v20c0,0.276,0.224,0.5,0.5,0.5h37
			c0.276,0,0.5-0.224,0.5-0.5v-20c0-0.276-0.224-0.5-0.5-0.5H13.25z"/>
	</g>
	<g>
		<circle class="st5" cx="31.75" cy="22.5" r="7"/>
		<path class="st1" d="M31.75,30c-4.136,0-7.5-3.364-7.5-7.5s3.364-7.5,7.5-7.5s7.5,3.364,7.5,7.5S35.886,30,31.75,30z M31.75,16
			c-3.584,0-6.5,2.916-6.5,6.5s2.916,6.5,6.5,6.5s6.5-2.916,6.5-6.5S35.334,16,31.75,16z"/>
	</g>
	<g>
		<path class="st1" d="M32.5,25.5h-2.75c-0.276,0-0.5-0.224-0.5-0.5s0.224-0.5,0.5-0.5h2.75c0.414,0,0.75-0.336,0.75-0.75
			S32.914,23,32.5,23H31c-0.965,0-1.75-0.785-1.75-1.75S30.035,19.5,31,19.5h2.25c0.276,0,0.5,0.224,0.5,0.5s-0.224,0.5-0.5,0.5H31
			c-0.414,0-0.75,0.336-0.75,0.75S30.586,22,31,22h1.5c0.965,0,1.75,0.785,1.75,1.75S33.465,25.5,32.5,25.5z"/>
	</g>
	<g>
		<path class="st1" d="M31.75,20.5c-0.276,0-0.5-0.224-0.5-0.5v-1.5c0-0.276,0.224-0.5,0.5-0.5s0.5,0.224,0.5,0.5V20
			C32.25,20.277,32.026,20.5,31.75,20.5z"/>
	</g>
	<g>
		<path class="st1" d="M31.75,27c-0.276,0-0.5-0.224-0.5-0.5V25c0-0.276,0.224-0.5,0.5-0.5s0.5,0.224,0.5,0.5v1.5
			C32.25,26.777,32.026,27,31.75,27z"/>
	</g>
	<g>
		<path class="st1" d="M44.936,30.5H18.564c-0.193,0-0.368-0.111-0.451-0.285c-0.723-1.514-1.98-2.678-3.542-3.278
			c-0.193-0.074-0.321-0.26-0.321-0.467v-7.939c0-0.207,0.127-0.393,0.321-0.467c1.562-0.601,2.82-1.765,3.543-3.279
			c0.083-0.174,0.258-0.285,0.451-0.285h26.37c0.193,0,0.368,0.111,0.451,0.285c0.722,1.514,1.98,2.679,3.543,3.279
			c0.193,0.074,0.321,0.26,0.321,0.467v7.939c0,0.207-0.127,0.393-0.321,0.467c-1.562,0.601-2.82,1.765-3.542,3.278
			C45.304,30.389,45.128,30.5,44.936,30.5z M18.873,29.5h25.755c0.796-1.504,2.065-2.684,3.623-3.365v-7.27
			c-1.557-0.682-2.827-1.86-3.623-3.366H18.873c-0.797,1.505-2.066,2.685-3.623,3.366v7.27C16.807,26.816,18.076,27.995,18.873,29.5
			z"/>
	</g>
	<g>
		<path class="st1" d="M33.043,50.001c-0.179,0-0.291-0.006-0.315-0.007c-0.255-0.014-0.458-0.217-0.472-0.472
			c-0.009-0.164-0.194-4.036,2.143-6.373l0,0c2.337-2.337,6.208-2.152,6.373-2.143c0.255,0.014,0.458,0.217,0.472,0.472
			c0.009,0.164,0.194,4.036-2.143,6.373C37.12,49.832,34.038,50.001,33.043,50.001z M35.106,43.856
			c-1.578,1.579-1.822,4.1-1.852,5.14c1.041-0.03,3.562-0.273,5.14-1.852c1.578-1.579,1.822-4.1,1.852-5.14
			C39.205,42.035,36.684,42.278,35.106,43.856L35.106,43.856z"/>
	</g>
	<g>
		<path class="st1" d="M30.457,50.001c-0.994,0-4.077-0.169-6.058-2.15c-2.337-2.337-2.152-6.209-2.143-6.373
			c0.014-0.254,0.217-0.458,0.472-0.472c0.162-0.008,4.035-0.195,6.373,2.143l0,0c2.337,2.337,2.152,6.209,2.143,6.373
			c-0.014,0.254-0.217,0.458-0.472,0.472C30.747,49.995,30.636,50.001,30.457,50.001z M23.254,42.004
			c0.03,1.04,0.273,3.561,1.852,5.14c1.583,1.583,4.101,1.824,5.14,1.852c-0.03-1.04-0.273-3.561-1.852-5.14
			C26.81,42.272,24.293,42.032,23.254,42.004z"/>
	</g>
	<g>
		<path class="st1" d="M30.75,63.5c-0.276,0-0.5-0.224-0.5-0.5V35.5c0-0.276,0.224-0.5,0.5-0.5s0.5,0.224,0.5,0.5V63
			C31.25,63.276,31.026,63.5,30.75,63.5z"/>
	</g>
	<g>
		<path class="st1" d="M32.75,63.5c-0.276,0-0.5-0.224-0.5-0.5V35.5c0-0.276,0.224-0.5,0.5-0.5s0.5,0.224,0.5,0.5V63
			C33.25,63.276,33.026,63.5,32.75,63.5z"/>
	</g>
	<g>
		<path class="st1" d="M58.75,8.5h-4c-0.276,0-0.5-0.224-0.5-0.5s0.224-0.5,0.5-0.5h4c0.276,0,0.5,0.224,0.5,0.5
			S59.026,8.5,58.75,8.5z"/>
	</g>
	<g>
		<path class="st1" d="M53.25,3.5h-4c-0.276,0-0.5-0.224-0.5-0.5s0.224-0.5,0.5-0.5h4c0.276,0,0.5,0.224,0.5,0.5
			S53.526,3.5,53.25,3.5z"/>
	</g>
	<g>
		<path class="st1" d="M51.25,5.5c-0.276,0-0.5-0.224-0.5-0.5V1c0-0.276,0.224-0.5,0.5-0.5s0.5,0.224,0.5,0.5v4
			C51.75,5.276,51.526,5.5,51.25,5.5z"/>
	</g>
	<g>
		<path class="st1" d="M56.75,10.5c-0.276,0-0.5-0.224-0.5-0.5V6c0-0.276,0.224-0.5,0.5-0.5s0.5,0.224,0.5,0.5v4
			C57.25,10.276,57.026,10.5,56.75,10.5z"/>
	</g>
	<g>
		<circle class="st2" cx="50.25" cy="55" r="8"/>
		<path class="st1" d="M50.25,63.5c-4.687,0-8.5-3.813-8.5-8.5s3.813-8.5,8.5-8.5s8.5,3.813,8.5,8.5S54.937,63.5,50.25,63.5z
			 M50.25,47.5c-4.136,0-7.5,3.364-7.5,7.5s3.364,7.5,7.5,7.5s7.5-3.364,7.5-7.5S54.386,47.5,50.25,47.5z"/>
	</g>
	<g>
		<path class="st1" d="M50.25,53c-0.276,0-0.5-0.224-0.5-0.5V51c0-0.276,0.224-0.5,0.5-0.5s0.5,0.224,0.5,0.5v1.5
			C50.75,52.776,50.526,53,50.25,53z"/>
	</g>
	<g>
		<path class="st1" d="M50.25,59.5c-0.276,0-0.5-0.224-0.5-0.5v-1.5c0-0.276,0.224-0.5,0.5-0.5s0.5,0.224,0.5,0.5V59
			C50.75,59.276,50.526,59.5,50.25,59.5z"/>
	</g>
	<g>
		<path class="st1" d="M51,58h-2.75c-0.276,0-0.5-0.224-0.5-0.5s0.224-0.5,0.5-0.5H51c0.414,0,0.75-0.336,0.75-0.75
			S51.414,55.5,51,55.5h-1.5c-0.965,0-1.75-0.785-1.75-1.75S48.535,52,49.5,52h2.25c0.276,0,0.5,0.224,0.5,0.5s-0.224,0.5-0.5,0.5
			H49.5c-0.413,0-0.75,0.336-0.75,0.75s0.336,0.75,0.75,0.75H51c0.965,0,1.75,0.785,1.75,1.75S51.965,58,51,58z"/>
	</g>
	<g>
		<circle class="st2" cx="13.25" cy="55" r="8"/>
		<path class="st1" d="M13.25,63.5c-4.687,0-8.5-3.813-8.5-8.5s3.813-8.5,8.5-8.5s8.5,3.813,8.5,8.5S17.937,63.5,13.25,63.5z
			 M13.25,47.5c-4.136,0-7.5,3.364-7.5,7.5s3.364,7.5,7.5,7.5s7.5-3.364,7.5-7.5S17.386,47.5,13.25,47.5z"/>
	</g>
	<g>
		<path class="st1" d="M13.25,53c-0.276,0-0.5-0.224-0.5-0.5V51c0-0.276,0.224-0.5,0.5-0.5s0.5,0.224,0.5,0.5v1.5
			C13.75,52.776,13.526,53,13.25,53z"/>
	</g>
	<g>
		<path class="st1" d="M13.25,59.5c-0.276,0-0.5-0.224-0.5-0.5v-1.5c0-0.276,0.224-0.5,0.5-0.5s0.5,0.224,0.5,0.5V59
			C13.75,59.276,13.526,59.5,13.25,59.5z"/>
	</g>
	<g>
		<path class="st1" d="M14,58h-2.75c-0.276,0-0.5-0.224-0.5-0.5s0.224-0.5,0.5-0.5H14c0.414,0,0.75-0.336,0.75-0.75
			S14.414,55.5,14,55.5h-1.5c-0.965,0-1.75-0.785-1.75-1.75S11.535,52,12.5,52h2.25c0.276,0,0.5,0.224,0.5,0.5s-0.224,0.5-0.5,0.5
			H12.5c-0.413,0-0.75,0.336-0.75,0.75s0.336,0.75,0.75,0.75H14c0.965,0,1.75,0.785,1.75,1.75S14.965,58,14,58z"/>
	</g>
</g>
</svg>
