<?xml version="1.0" encoding="utf-8"?>
<!-- Generator: Adobe Illustrator 22.0.0, SVG Export Plug-In . SVG Version: 6.00 Build 0)  -->
<svg version="1.1" id="Icon_Set" xmlns="http://www.w3.org/2000/svg" xmlns:xlink="http://www.w3.org/1999/xlink" x="0px" y="0px"
	 viewBox="0 0 64 64" style="enable-background:new 0 0 64 64;" xml:space="preserve">
<style type="text/css">
	.st0{fill:#40C4FF;}
	.st1{fill:#263238;}
	.st2{fill:#FFD740;}
	.st3{fill:#FF5252;}
	.st4{fill:#4DB6AC;}
	.st5{fill:#FFFFFF;}
	.st6{fill:#4FC3F7;}
	.st7{fill:#37474F;}
</style>
<g>
	<g>
		<path class="st1" d="M50,36.5c-0.276,0-0.5-0.224-0.5-0.5V7c0-0.276,0.224-0.5,0.5-0.5s0.5,0.224,0.5,0.5v29
			C50.5,36.276,50.276,36.5,50,36.5z"/>
	</g>
	<g>
		<polygon class="st3" points="50,17 50,7 59,12 		"/>
		<path class="st1" d="M50,17.5c-0.088,0-0.176-0.023-0.254-0.069C49.594,17.341,49.5,17.177,49.5,17V7
			c0-0.177,0.094-0.341,0.246-0.431s0.341-0.093,0.497-0.007l9,5C59.401,11.651,59.5,11.818,59.5,12s-0.099,0.349-0.257,0.438l-9,5
			C50.167,17.479,50.084,17.5,50,17.5z M50.5,7.85v8.301L57.971,12L50.5,7.85z"/>
	</g>
	<g>
		<path class="st1" d="M55,62.5H37.5c-0.276,0-0.5-0.224-0.5-0.5s0.224-0.5,0.5-0.5H55c0.276,0,0.5,0.224,0.5,0.5
			S55.276,62.5,55,62.5z"/>
	</g>
	<g>
		<path class="st1" d="M59,62.5h-2c-0.276,0-0.5-0.224-0.5-0.5s0.224-0.5,0.5-0.5h2c0.276,0,0.5,0.224,0.5,0.5S59.276,62.5,59,62.5z
			"/>
	</g>
	<g>
		<path class="st1" d="M24.5,62.5h-15C9.224,62.5,9,62.276,9,62s0.224-0.5,0.5-0.5H24V52c0-0.276,0.224-0.5,0.5-0.5h16V42
			c0-0.276,0.224-0.5,0.5-0.5h18c0.276,0,0.5,0.224,0.5,0.5s-0.224,0.5-0.5,0.5H41.5V52c0,0.276-0.224,0.5-0.5,0.5H25V62
			C25,62.276,24.776,62.5,24.5,62.5z"/>
	</g>
	<g>
		<path class="st1" d="M21.99,19c-3.584,0-6.5-2.916-6.5-6.5S18.406,6,21.99,6s6.5,2.916,6.5,6.5S25.574,19,21.99,19z M21.99,7
			c-3.032,0-5.5,2.468-5.5,5.5s2.468,5.5,5.5,5.5s5.5-2.468,5.5-5.5S25.022,7,21.99,7z"/>
	</g>
	<g>
		<path class="st2" d="M26.15,9.031l0.447-0.372C25.497,7.34,23.842,6.5,21.99,6.5c-3.314,0-6,2.686-6,6h0.566
			C20.061,12.5,23.456,11.273,26.15,9.031z"/>
		<path class="st1" d="M16.557,13H15.99c-0.276,0-0.5-0.224-0.5-0.5c0-3.584,2.916-6.5,6.5-6.5c1.933,0,3.751,0.853,4.991,2.339
			c0.085,0.102,0.126,0.233,0.114,0.365c-0.012,0.133-0.076,0.255-0.179,0.34L26.47,9.416l0,0C23.691,11.727,20.171,13,16.557,13z
			 M16.513,12h0.044c3.381,0,6.675-1.19,9.274-3.354l0.045-0.037C24.848,7.581,23.457,7,21.99,7C19.126,7,16.766,9.2,16.513,12z
			 M26.15,9.031h0.01H26.15z"/>
	</g>
	<g>
		<path class="st1" d="M20.01,60.5h-4c-0.276,0-0.5-0.224-0.5-0.5V36.5c0-0.276,0.224-0.5,0.5-0.5h15.5c1.654,0,3,1.346,3,3v11
			c0,0.276-0.224,0.5-0.5,0.5h-4c-0.231,0-0.434-0.159-0.486-0.385l-1.818-7.682c-0.054-0.227-0.254-0.385-0.486-0.385h-4.76
			l-1.952,18.005C20.479,60.308,20.265,60.5,20.01,60.5z M16.51,59.5h3.051l1.952-18.005c0.027-0.254,0.242-0.446,0.497-0.446h5.209
			c0.699,0,1.299,0.475,1.459,1.154l1.728,7.297h3.104V39c0-1.103-0.897-2-2-2h-15V59.5z"/>
	</g>
	<g>
		<path class="st1" d="M18.99,19.996c-0.276,0-0.5-0.224-0.5-0.5l-0.001-1.799c0-0.275,0.224-0.5,0.5-0.5l0,0
			c0.276,0,0.5,0.224,0.5,0.5l0.001,1.799C19.49,19.771,19.267,19.996,18.99,19.996L18.99,19.996z"/>
	</g>
	<g>
		<path class="st1" d="M24.99,19.995c-0.275,0-0.498-0.222-0.5-0.497l-0.01-1.79c-0.002-0.276,0.221-0.501,0.497-0.503
			c0.001,0,0.002,0,0.003,0c0.275,0,0.498,0.222,0.5,0.497l0.01,1.79c0.002,0.276-0.221,0.501-0.497,0.503
			C24.992,19.995,24.991,19.995,24.99,19.995z"/>
	</g>
	<g>
		<path class="st1" d="M41.69,12.602c-0.075,0-0.151-0.017-0.224-0.053c-0.247-0.123-0.347-0.424-0.224-0.671
			c0.179-0.358,0.207-0.765,0.08-1.145s-0.395-0.688-0.753-0.867c-0.745-0.369-1.643-0.066-2.012,0.674
			c-0.122,0.246-0.422,0.348-0.671,0.224c-0.247-0.123-0.347-0.424-0.224-0.671c0.614-1.232,2.119-1.734,3.352-1.121
			c0.599,0.298,1.044,0.811,1.256,1.444s0.164,1.312-0.134,1.909C42.051,12.5,41.874,12.602,41.69,12.602z"/>
	</g>
	<g>
		<path class="st1" d="M28.008,37H13.007c-0.827,0-1.5-0.673-1.5-1.5v-9.414c0-2.094,1.162-3.978,3.033-4.917l4.226-2.12
			c0.203-0.102,0.454-0.054,0.604,0.122l2.62,3.057l2.62-3.058c0.149-0.175,0.398-0.223,0.604-0.122l2.912,1.453h2.1
			c0.763,0,1.448-0.424,1.789-1.105l3.757-7.513c0.124-0.246,0.424-0.348,0.671-0.224l3.578,1.789
			c0.118,0.06,0.209,0.163,0.251,0.289s0.032,0.264-0.027,0.382l-4.172,8.342c-0.938,1.875-2.822,3.04-4.919,3.04h-2.646V36.5
			C28.508,36.776,28.284,37,28.008,37z M18.865,20.118l-3.876,1.945c-1.531,0.769-2.482,2.31-2.482,4.022V35.5
			c0,0.275,0.225,0.5,0.5,0.5h14.501V25.001c0-0.276,0.224-0.5,0.5-0.5h3.146c1.715,0,3.258-0.953,4.024-2.487l3.948-7.895
			l-2.684-1.342l-3.533,7.065c-0.511,1.022-1.539,1.658-2.684,1.658h-2.218c-0.077,0-0.154-0.018-0.224-0.053l-2.668-1.331
			l-2.746,3.204c-0.189,0.221-0.568,0.223-0.76,0L18.865,20.118z"/>
	</g>
	<g>
		<polygon class="st0" points="23.5,30.468 22.009,32.468 20.5,30.468 21,21.468 23,21.468 		"/>
		<path class="st1" d="M22.009,32.968c-0.157,0-0.305-0.073-0.399-0.199l-1.509-2c-0.071-0.094-0.106-0.211-0.1-0.328l0.5-9
			c0.015-0.266,0.233-0.473,0.499-0.473h2c0.266,0,0.484,0.207,0.499,0.473l0.5,9c0.007,0.116-0.028,0.232-0.099,0.326l-1.491,2
			C22.315,32.893,22.168,32.968,22.009,32.968L22.009,32.968z M21.01,30.312l0.997,1.322l0.983-1.32l-0.463-8.347h-1.055
			L21.01,30.312z"/>
	</g>
	<g>
		<path class="st1" d="M16.009,37c-0.276,0-0.5-0.224-0.5-0.5v-10c0-0.276,0.224-0.5,0.5-0.5s0.5,0.224,0.5,0.5v10
			C16.509,36.776,16.285,37,16.009,37z"/>
	</g>
	<g>
		<path class="st1" d="M14.012,41c-1.379,0-2.5-1.121-2.5-2.5c0-0.276,0.224-0.5,0.5-0.5s0.5,0.224,0.5,0.5
			c0,0.827,0.673,1.5,1.5,1.5s1.5-0.673,1.5-1.5c0-0.276,0.224-0.5,0.5-0.5s0.5,0.224,0.5,0.5C16.512,39.879,15.391,41,14.012,41z"
			/>
	</g>
	<g>
		<path class="st1" d="M14,4.5h-4C9.724,4.5,9.5,4.276,9.5,4S9.724,3.5,10,3.5h4c0.276,0,0.5,0.224,0.5,0.5S14.276,4.5,14,4.5z"/>
	</g>
	<g>
		<path class="st1" d="M12,6.5c-0.276,0-0.5-0.224-0.5-0.5V2c0-0.276,0.224-0.5,0.5-0.5s0.5,0.224,0.5,0.5v4
			C12.5,6.276,12.276,6.5,12,6.5z"/>
	</g>
	<g>
		<path class="st1" d="M9,10H5c-0.276,0-0.5-0.224-0.5-0.5S4.724,9,5,9h4c0.276,0,0.5,0.224,0.5,0.5S9.276,10,9,10z"/>
	</g>
	<g>
		<path class="st1" d="M7,12c-0.276,0-0.5-0.224-0.5-0.5v-4C6.5,7.224,6.724,7,7,7s0.5,0.224,0.5,0.5v4C7.5,11.776,7.276,12,7,12z"
			/>
	</g>
	<g>
		<path class="st1" d="M54,42.5h-8c-0.276,0-0.5-0.224-0.5-0.5v-4c0-0.276,0.224-0.5,0.5-0.5h8c0.276,0,0.5,0.224,0.5,0.5v4
			C54.5,42.276,54.276,42.5,54,42.5z M46.5,41.5h7v-3h-7V41.5z"/>
	</g>
</g>
</svg>
