<?xml version="1.0" encoding="utf-8"?>
<!-- Generator: Adobe Illustrator 22.0.0, SVG Export Plug-In . SVG Version: 6.00 Build 0)  -->
<svg version="1.1" id="Icon_Set" xmlns="http://www.w3.org/2000/svg" xmlns:xlink="http://www.w3.org/1999/xlink" x="0px" y="0px"
	 viewBox="0 0 64 64" style="enable-background:new 0 0 64 64;" xml:space="preserve">
<style type="text/css">
	.st0{fill:#40C4FF;}
	.st1{fill:#263238;}
	.st2{fill:#FFD740;}
	.st3{fill:#FF5252;}
	.st4{fill:#4DB6AC;}
	.st5{fill:#FFFFFF;}
	.st6{fill:#4FC3F7;}
	.st7{fill:#37474F;}
</style>
<g>
	<g>
		<path class="st1" d="M62.5,13.5h-14c-0.827,0-1.5-0.673-1.5-1.5V2c0-0.827,0.673-1.5,1.5-1.5h14C63.327,0.5,64,1.173,64,2v10
			C64,12.827,63.327,13.5,62.5,13.5z M48.5,1.5C48.225,1.5,48,1.725,48,2v10c0,0.275,0.225,0.5,0.5,0.5h14
			c0.275,0,0.5-0.225,0.5-0.5V2c0-0.275-0.225-0.5-0.5-0.5H48.5z"/>
	</g>
	<g>
		<rect x="0.5" y="49.5" class="st2" width="63" height="5"/>
		<path class="st1" d="M63.5,55h-63C0.224,55,0,54.776,0,54.5v-5C0,49.224,0.224,49,0.5,49h63c0.276,0,0.5,0.224,0.5,0.5v5
			C64,54.776,63.776,55,63.5,55z M1,54h62v-4H1V54z"/>
	</g>
	<g>
		<path class="st1" d="M8.5,63.5C8.224,63.5,8,63.276,8,63v-6.5C8,56.224,8.224,56,8.5,56S9,56.224,9,56.5V63
			C9,63.276,8.776,63.5,8.5,63.5z"/>
	</g>
	<g>
		<path class="st1" d="M4.5,63.5C4.224,63.5,4,63.276,4,63v-6.5C4,56.224,4.224,56,4.5,56S5,56.224,5,56.5V63
			C5,63.276,4.776,63.5,4.5,63.5z"/>
	</g>
	<g>
		<path class="st1" d="M59.5,63.5c-0.276,0-0.5-0.224-0.5-0.5v-6.5c0-0.276,0.224-0.5,0.5-0.5s0.5,0.224,0.5,0.5V63
			C60,63.276,59.776,63.5,59.5,63.5z"/>
	</g>
	<g>
		<path class="st1" d="M55.5,63.5c-0.276,0-0.5-0.224-0.5-0.5v-6.5c0-0.276,0.224-0.5,0.5-0.5s0.5,0.224,0.5,0.5V63
			C56,63.276,55.776,63.5,55.5,63.5z"/>
	</g>
	<g>
		<polyline class="st3" points="53.5,47.5 53.5,40.5 61,40.5 61,47.5 		"/>
		<path class="st1" d="M61,48c-0.276,0-0.5-0.224-0.5-0.5V41H54v6.5c0,0.276-0.224,0.5-0.5,0.5S53,47.776,53,47.5v-7
			c0-0.276,0.224-0.5,0.5-0.5H61c0.276,0,0.5,0.224,0.5,0.5v7C61.5,47.776,61.276,48,61,48z"/>
	</g>
	<g>
		<path class="st1" d="M57,39c-0.276,0-0.5-0.224-0.5-0.5V34h-1v4.5c0,0.276-0.224,0.5-0.5,0.5s-0.5-0.224-0.5-0.5v-5
			c0-0.276,0.224-0.5,0.5-0.5h2c0.276,0,0.5,0.224,0.5,0.5v5C57.5,38.776,57.276,39,57,39z"/>
	</g>
	<g>
		<path class="st1" d="M59,39c-0.053,0-0.105-0.008-0.158-0.025c-0.262-0.088-0.403-0.371-0.316-0.633L59.307,36H58.36l-0.886,2.658
			c-0.088,0.262-0.371,0.404-0.633,0.316s-0.403-0.371-0.316-0.633l1-3C57.594,35.138,57.785,35,58,35h2
			c0.161,0,0.312,0.077,0.405,0.208c0.095,0.13,0.12,0.298,0.069,0.45l-1,3C59.404,38.867,59.209,39,59,39z"/>
	</g>
	<g>
		<path class="st1" d="M40,48c-0.276,0-0.5-0.224-0.5-0.5V39h-5v8.5c0,0.276-0.224,0.5-0.5,0.5s-0.5-0.224-0.5-0.5v-9
			c0-0.276,0.224-0.5,0.5-0.5h6c0.276,0,0.5,0.224,0.5,0.5v9C40.5,47.776,40.276,48,40,48z"/>
	</g>
	<g>
		<path class="st1" d="M48.5,43H42c-0.276,0-0.5-0.224-0.5-0.5S41.724,42,42,42h6.5c1.103,0,2-0.897,2-2V25c0-1.103-0.897-2-2-2h-23
			c-1.103,0-2,0.897-2,2v15c0,1.103,0.897,2,2,2H32c0.276,0,0.5,0.224,0.5,0.5S32.276,43,32,43h-6.5c-1.654,0-3-1.346-3-3V25
			c0-1.654,1.346-3,3-3h23c1.654,0,3,1.346,3,3v15C51.5,41.654,50.154,43,48.5,43z"/>
	</g>
	<g>
		<path class="st1" d="M37.047,35c-1.379,0-2.5-1.121-2.5-2.5s1.121-2.5,2.5-2.5s2.5,1.121,2.5,2.5S38.426,35,37.047,35z M37.047,31
			c-0.827,0-1.5,0.673-1.5,1.5s0.673,1.5,1.5,1.5s1.5-0.673,1.5-1.5S37.874,31,37.047,31z"/>
	</g>
	<g>
		<path class="st1" d="M9,50c-0.196,0-0.381-0.115-0.461-0.308l-5-12c-0.062-0.149-0.048-0.32,0.038-0.457l5-8
			C8.667,29.089,8.828,29,9,29h3.5c0.276,0,0.5,0.224,0.5,0.5S12.776,30,12.5,30H9.277l-4.716,7.546l4.9,11.762
			c0.106,0.255-0.014,0.548-0.269,0.654C9.129,49.987,9.064,50,9,50z"/>
	</g>
	<g>
		<path class="st0" d="M9,45.5c-2.209,0-4,1.791-4,4h8C13,47.291,11.209,45.5,9,45.5z"/>
		<path class="st1" d="M13,50H5c-0.276,0-0.5-0.224-0.5-0.5C4.5,47.019,6.519,45,9,45s4.5,2.019,4.5,4.5
			C13.5,49.776,13.276,50,13,50z M5.536,49h6.929C12.221,47.306,10.76,46,9,46S5.779,47.306,5.536,49z"/>
	</g>
	<g>
		<polygon class="st0" points="19,34 11,34 12.5,29.5 17.5,29.5 		"/>
		<path class="st1" d="M19,34.5h-8c-0.161,0-0.312-0.077-0.406-0.208c-0.094-0.13-0.12-0.298-0.068-0.45l1.5-4.5
			C12.094,29.138,12.285,29,12.5,29h5c0.215,0,0.406,0.138,0.474,0.342l1.5,4.5c0.051,0.152,0.025,0.32-0.068,0.45
			C19.312,34.423,19.161,34.5,19,34.5z M11.694,33.5h6.612L17.14,30H12.86L11.694,33.5z"/>
	</g>
	<g>
		<path class="st0" d="M15,26.5L15,26.5c-1.381,0-2.5,1.119-2.5,2.5v0.5h5V29C17.5,27.619,16.381,26.5,15,26.5z"/>
		<path class="st1" d="M17.5,30h-5c-0.276,0-0.5-0.224-0.5-0.5V29c0-1.654,1.346-3,3-3s3,1.346,3,3v0.5C18,29.776,17.776,30,17.5,30
			z M13,29h4c0-1.103-0.897-2-2-2S13,27.897,13,29z"/>
	</g>
	<g>
		<circle class="st0" cx="4" cy="37.5" r="2"/>
		<path class="st1" d="M4,40c-1.378,0-2.5-1.121-2.5-2.5S2.622,35,4,35s2.5,1.121,2.5,2.5S5.378,40,4,40z M4,36
			c-0.827,0-1.5,0.673-1.5,1.5S3.173,39,4,39s1.5-0.673,1.5-1.5S4.827,36,4,36z"/>
	</g>
	<g>
		<path class="st4" d="M63.5,9l-4-5l-4,5l-4-2l-4,4v1c0,0.552,0.448,1,1,1h14c0.552,0,1-0.448,1-1V9z"/>
		<path class="st1" d="M62.5,13.5h-14c-0.827,0-1.5-0.673-1.5-1.5v-1c0-0.133,0.053-0.26,0.146-0.354l4-4
			c0.152-0.152,0.384-0.188,0.577-0.094l3.639,1.819l3.747-4.685c0.189-0.236,0.592-0.236,0.781,0l4,5C63.961,8.776,64,8.887,64,9v3
			C64,12.827,63.327,13.5,62.5,13.5z M48,11.207V12c0,0.275,0.225,0.5,0.5,0.5h14c0.275,0,0.5-0.225,0.5-0.5V9.176l-3.5-4.375
			l-3.609,4.512c-0.148,0.185-0.406,0.237-0.614,0.135l-3.678-1.839L48,11.207z"/>
	</g>
	<g>
		<path class="st1" d="M53.5,4.5h-3C50.224,4.5,50,4.276,50,4s0.224-0.5,0.5-0.5h3C53.776,3.5,54,3.724,54,4S53.776,4.5,53.5,4.5z"
			/>
	</g>
	<g>
		<path class="st1" d="M32.5,16.5h-32C0.224,16.5,0,16.276,0,16s0.224-0.5,0.5-0.5H32v-2H0.5C0.224,13.5,0,13.276,0,13
			s0.224-0.5,0.5-0.5h32c0.276,0,0.5,0.224,0.5,0.5v3C33,16.276,32.776,16.5,32.5,16.5z"/>
	</g>
	<g>
		<path class="st1" d="M18.5,13.5h-5c-0.276,0-0.5-0.224-0.5-0.5V1c0-0.276,0.224-0.5,0.5-0.5h5C18.776,0.5,19,0.724,19,1v12
			C19,13.276,18.776,13.5,18.5,13.5z M14,12.5h4v-11h-4V12.5z"/>
	</g>
	<g>
		<path class="st1" d="M13.5,13.5H8c-0.276,0-0.5-0.224-0.5-0.5V1c0-0.276,0.224-0.5,0.5-0.5h5.5C13.776,0.5,14,0.724,14,1v12
			C14,13.276,13.776,13.5,13.5,13.5z M8.5,12.5H13v-11H8.5V12.5z"/>
	</g>
	<g>
		<path class="st1" d="M8,13.5H3c-0.276,0-0.5-0.224-0.5-0.5V1c0-0.276,0.224-0.5,0.5-0.5h5c0.276,0,0.5,0.224,0.5,0.5v12
			C8.5,13.276,8.276,13.5,8,13.5z M3.5,12.5h4v-11h-4V12.5z"/>
	</g>
	<g>
		<path class="st1" d="M62,16.5H52c-0.276,0-0.5-0.224-0.5-0.5s0.224-0.5,0.5-0.5h10c0.276,0,0.5,0.224,0.5,0.5S62.276,16.5,62,16.5
			z"/>
	</g>
	<g>
		<path class="st1" d="M50,16.5h-1c-0.276,0-0.5-0.224-0.5-0.5s0.224-0.5,0.5-0.5h1c0.276,0,0.5,0.224,0.5,0.5S50.276,16.5,50,16.5z
			"/>
	</g>
	<g>
		<path class="st1" d="M48,31c-0.276,0-0.5-0.224-0.5-0.5v-4c0-0.275-0.225-0.5-0.5-0.5h-4c-0.276,0-0.5-0.224-0.5-0.5
			S42.724,25,43,25h4c0.827,0,1.5,0.673,1.5,1.5v4C48.5,30.776,48.276,31,48,31z"/>
	</g>
</g>
</svg>
