<?xml version="1.0" encoding="utf-8"?>
<!-- Generator: Adobe Illustrator 22.0.0, SVG Export Plug-In . SVG Version: 6.00 Build 0)  -->
<svg version="1.1" id="Icon_Set" xmlns="http://www.w3.org/2000/svg" xmlns:xlink="http://www.w3.org/1999/xlink" x="0px" y="0px"
	 viewBox="0 0 64 64" style="enable-background:new 0 0 64 64;" xml:space="preserve">
<style type="text/css">
	.st0{fill:#40C4FF;}
	.st1{fill:#263238;}
	.st2{fill:#FFD740;}
	.st3{fill:#FF5252;}
	.st4{fill:#4DB6AC;}
	.st5{fill:#FFFFFF;}
	.st6{fill:#4FC3F7;}
	.st7{fill:#37474F;}
</style>
<g>
	<g>
		<path class="st1" d="M17.192,21.5h-10c-0.276,0-0.5-0.224-0.5-0.5s0.224-0.5,0.5-0.5h10c0.276,0,0.5,0.224,0.5,0.5
			S17.468,21.5,17.192,21.5z"/>
	</g>
	<g>
		<path class="st1" d="M5,21.5H4c-0.276,0-0.5-0.224-0.5-0.5s0.224-0.5,0.5-0.5h1c0.276,0,0.5,0.224,0.5,0.5S5.276,21.5,5,21.5z"/>
	</g>
	<g>
		<path class="st1" d="M54.642,44.667h-10c-0.276,0-0.5-0.224-0.5-0.5s0.224-0.5,0.5-0.5h10c0.276,0,0.5,0.224,0.5,0.5
			S54.918,44.667,54.642,44.667z"/>
	</g>
	<g>
		<path class="st1" d="M57.833,44.667h-1c-0.276,0-0.5-0.224-0.5-0.5s0.224-0.5,0.5-0.5h1c0.276,0,0.5,0.224,0.5,0.5
			S58.109,44.667,57.833,44.667z"/>
	</g>
	<g>
		<polygon class="st3" points="32,21 35.061,25.609 40.485,24.515 39.391,29.939 44,33 39.391,36.061 40.485,41.485 35.061,40.391 
			32,45 28.939,40.391 23.515,41.485 24.609,36.061 20,33 24.609,29.939 23.515,24.515 28.939,25.609 		"/>
		<path class="st1" d="M32,45.5c-0.167,0-0.324-0.084-0.417-0.224l-2.875-4.329l-5.094,1.028c-0.166,0.034-0.334-0.019-0.453-0.137
			c-0.119-0.118-0.17-0.288-0.137-0.452l1.028-5.095l-4.329-2.876C19.584,33.324,19.5,33.167,19.5,33s0.084-0.324,0.223-0.416
			l4.329-2.876l-1.028-5.095c-0.033-0.164,0.018-0.334,0.137-0.452c0.118-0.118,0.287-0.172,0.453-0.137l5.094,1.028l2.875-4.329
			c0.186-0.279,0.647-0.279,0.833,0l2.875,4.329l5.095-1.028c0.16-0.035,0.333,0.018,0.452,0.137
			c0.118,0.118,0.17,0.288,0.137,0.452l-1.028,5.095l4.329,2.876C44.416,32.676,44.5,32.833,44.5,33s-0.084,0.324-0.224,0.416
			l-4.329,2.876l1.028,5.095c0.033,0.164-0.019,0.334-0.137,0.452c-0.119,0.119-0.292,0.171-0.452,0.137l-5.095-1.028l-2.875,4.329
			C32.324,45.416,32.167,45.5,32,45.5z M28.938,39.891c0.166,0,0.323,0.082,0.417,0.224L32,44.097l2.646-3.982
			c0.112-0.17,0.315-0.254,0.515-0.214l4.687,0.946L38.9,36.16c-0.04-0.199,0.044-0.402,0.214-0.515L43.097,33l-3.982-2.646
			c-0.17-0.112-0.254-0.315-0.214-0.515l0.946-4.687L35.16,26.1c-0.198,0.042-0.402-0.044-0.515-0.214L32,21.903l-2.645,3.982
			c-0.112,0.17-0.314,0.256-0.516,0.214l-4.686-0.946l0.945,4.687c0.04,0.199-0.044,0.402-0.213,0.515L20.904,33l3.982,2.646
			c0.169,0.112,0.253,0.315,0.213,0.515l-0.945,4.687l4.686-0.946C28.873,39.894,28.906,39.891,28.938,39.891z"/>
	</g>
	<g>
		<polygon class="st3" points="32,27 33.531,29.304 36.243,28.757 35.696,31.469 38,33 35.696,34.531 36.243,37.243 33.531,36.696 
			32,39 30.469,36.696 27.757,37.243 28.304,34.531 26,33 28.304,31.469 27.757,28.757 30.469,29.304 		"/>
		<path class="st1" d="M32,39.5c-0.167,0-0.324-0.084-0.417-0.224l-1.345-2.024l-2.383,0.48c-0.164,0.036-0.333-0.018-0.452-0.137
			c-0.119-0.118-0.17-0.288-0.137-0.452l0.481-2.383l-2.024-1.344C25.584,33.324,25.5,33.168,25.5,33s0.084-0.324,0.224-0.417
			l2.024-1.344l-0.481-2.383c-0.033-0.164,0.018-0.334,0.137-0.452s0.288-0.172,0.452-0.137l2.383,0.48l1.345-2.024
			C31.676,26.584,31.833,26.5,32,26.5l0,0c0.167,0,0.324,0.084,0.417,0.224l1.344,2.024l2.383-0.48
			c0.159-0.034,0.334,0.018,0.452,0.137c0.118,0.118,0.17,0.288,0.137,0.452l-0.48,2.383l2.024,1.344
			C38.416,32.676,38.5,32.832,38.5,33s-0.084,0.324-0.224,0.417l-2.024,1.344l0.48,2.383c0.033,0.164-0.019,0.334-0.137,0.452
			c-0.118,0.119-0.293,0.17-0.452,0.137l-2.383-0.48l-1.344,2.024C32.324,39.416,32.167,39.5,32,39.5z M30.469,36.195
			c0.166,0,0.323,0.082,0.417,0.224L32,38.096l1.113-1.677c0.113-0.171,0.317-0.255,0.516-0.214l1.975,0.398l-0.398-1.975
			c-0.04-0.199,0.044-0.402,0.214-0.516L37.096,33l-1.677-1.113c-0.17-0.113-0.254-0.316-0.214-0.516l0.398-1.975l-1.975,0.398
			c-0.197,0.04-0.402-0.044-0.516-0.214L32,27.904l-1.114,1.677c-0.113,0.17-0.318,0.257-0.515,0.214l-1.974-0.398l0.398,1.975
			c0.04,0.199-0.044,0.402-0.214,0.516L26.904,33l1.677,1.113c0.169,0.113,0.254,0.316,0.214,0.516l-0.398,1.975l1.974-0.398
			C30.403,36.198,30.437,36.195,30.469,36.195z"/>
	</g>
	<g>
		<path class="st1" d="M10,57.5c-3.584,0-6.5-2.916-6.5-6.5s2.916-6.5,6.5-6.5s6.5,2.916,6.5,6.5S13.584,57.5,10,57.5z M10,45.5
			c-3.033,0-5.5,2.468-5.5,5.5s2.467,5.5,5.5,5.5s5.5-2.468,5.5-5.5S13.033,45.5,10,45.5z"/>
	</g>
	<g>
		<circle class="st2" cx="10" cy="51" r="3"/>
		<path class="st1" d="M10,54.5c-1.93,0-3.5-1.57-3.5-3.5s1.57-3.5,3.5-3.5s3.5,1.57,3.5,3.5S11.93,54.5,10,54.5z M10,48.5
			c-1.378,0-2.5,1.121-2.5,2.5s1.122,2.5,2.5,2.5s2.5-1.121,2.5-2.5S11.378,48.5,10,48.5z"/>
	</g>
	<g>
		<path class="st1" d="M10,45.5c-0.276,0-0.5-0.224-0.5-0.5V32c0-0.276,0.224-0.5,0.5-0.5s0.5,0.224,0.5,0.5v13
			C10.5,45.276,10.276,45.5,10,45.5z"/>
	</g>
	<g>
		<path class="st1" d="M15,37.5c-0.128,0-0.256-0.049-0.354-0.146L10,32.707l-4.646,4.646c-0.195,0.195-0.512,0.195-0.707,0
			s-0.195-0.512,0-0.707l5-5c0.195-0.195,0.512-0.195,0.707,0l5,5c0.195,0.195,0.195,0.512,0,0.707
			C15.256,37.451,15.128,37.5,15,37.5z"/>
	</g>
	<g>
		<path class="st1" d="M54,19.5c-3.584,0-6.5-2.916-6.5-6.5s2.916-6.5,6.5-6.5s6.5,2.916,6.5,6.5S57.584,19.5,54,19.5z M54,7.5
			c-3.032,0-5.5,2.468-5.5,5.5s2.468,5.5,5.5,5.5s5.5-2.468,5.5-5.5S57.032,7.5,54,7.5z"/>
	</g>
	<g>
		<circle class="st0" cx="54" cy="13" r="3"/>
		<path class="st1" d="M54,16.5c-1.93,0-3.5-1.57-3.5-3.5s1.57-3.5,3.5-3.5s3.5,1.57,3.5,3.5S55.93,16.5,54,16.5z M54,10.5
			c-1.379,0-2.5,1.121-2.5,2.5s1.121,2.5,2.5,2.5s2.5-1.121,2.5-2.5S55.379,10.5,54,10.5z"/>
	</g>
	<g>
		<path class="st1" d="M54,32.5c-0.276,0-0.5-0.224-0.5-0.5V19c0-0.276,0.224-0.5,0.5-0.5s0.5,0.224,0.5,0.5v13
			C54.5,32.276,54.276,32.5,54,32.5z"/>
	</g>
	<g>
		<path class="st1" d="M59,27.5H49c-0.276,0-0.5-0.224-0.5-0.5s0.224-0.5,0.5-0.5h10c0.276,0,0.5,0.224,0.5,0.5S59.276,27.5,59,27.5
			z"/>
	</g>
</g>
</svg>
