<?xml version="1.0" encoding="utf-8"?>
<!-- Generator: Adobe Illustrator 22.0.0, SVG Export Plug-In . SVG Version: 6.00 Build 0)  -->
<svg version="1.1" id="Icon_Set" xmlns="http://www.w3.org/2000/svg" xmlns:xlink="http://www.w3.org/1999/xlink" x="0px" y="0px"
	 viewBox="0 0 64 64" style="enable-background:new 0 0 64 64;" xml:space="preserve">
<style type="text/css">
	.st0{fill:#40C4FF;}
	.st1{fill:#263238;}
	.st2{fill:#FFD740;}
	.st3{fill:#FF5252;}
	.st4{fill:#4DB6AC;}
	.st5{fill:#FFFFFF;}
	.st6{fill:#4FC3F7;}
	.st7{fill:#37474F;}
</style>
<g>
	<g>
		<path class="st1" d="M26,57c-0.276,0-0.5-0.224-0.5-0.5V53c0-0.276,0.224-0.5,0.5-0.5s0.5,0.224,0.5,0.5v3.5
			C26.5,56.776,26.276,57,26,57z"/>
	</g>
	<g>
		<path class="st1" d="M38,57c-0.276,0-0.5-0.224-0.5-0.5V53c0-0.276,0.224-0.5,0.5-0.5s0.5,0.224,0.5,0.5v3.5
			C38.5,56.776,38.276,57,38,57z"/>
	</g>
	<g>
		<path class="st1" d="M42,63H22c-0.827,0-1.5-0.673-1.5-1.5v-2c0-0.827,0.673-1.5,1.5-1.5h20c0.827,0,1.5,0.673,1.5,1.5v2
			C43.5,62.327,42.827,63,42,63z M22,59c-0.276,0-0.5,0.224-0.5,0.5v2c0,0.276,0.224,0.5,0.5,0.5h20c0.276,0,0.5-0.224,0.5-0.5v-2
			c0-0.276-0.224-0.5-0.5-0.5H22z"/>
	</g>
	<g>
		<path class="st1" d="M62,46.5H2c-0.276,0-0.5-0.224-0.5-0.5s0.224-0.5,0.5-0.5h60c0.276,0,0.5,0.224,0.5,0.5S62.276,46.5,62,46.5z
			"/>
	</g>
	<g>
		<path class="st1" d="M57,51.5H7c-3.033,0-5.5-2.467-5.5-5.5V14c0-3.033,2.467-5.5,5.5-5.5h13c0.276,0,0.5,0.224,0.5,0.5
			S20.276,9.5,20,9.5H7c-2.481,0-4.5,2.019-4.5,4.5v32c0,2.481,2.019,4.5,4.5,4.5h50c2.481,0,4.5-2.019,4.5-4.5V14
			c0-2.481-2.019-4.5-4.5-4.5H44c-0.276,0-0.5-0.224-0.5-0.5s0.224-0.5,0.5-0.5h13c3.033,0,5.5,2.467,5.5,5.5v32
			C62.5,49.033,60.033,51.5,57,51.5z"/>
	</g>
	<g>
		<path class="st1" d="M62,14.5H43.24c-0.276,0-0.5-0.224-0.5-0.5s0.224-0.5,0.5-0.5H62c0.276,0,0.5,0.224,0.5,0.5
			S62.276,14.5,62,14.5z"/>
	</g>
	<g>
		<path class="st1" d="M20.76,14.5H2c-0.276,0-0.5-0.224-0.5-0.5s0.224-0.5,0.5-0.5h18.76c0.276,0,0.5,0.224,0.5,0.5
			S21.037,14.5,20.76,14.5z"/>
	</g>
	<g>
		<path class="st3" d="M39.5,1.5h-15C23.119,1.5,22,2.619,22,4v7.5c0,1.381,1.119,2.5,2.5,2.5H27v2.865
			c0,0.848,0.989,1.311,1.64,0.768L33,14h6.5c1.381,0,2.5-1.119,2.5-2.5V4C42,2.619,40.881,1.5,39.5,1.5z"/>
		<path class="st1" d="M28.003,18.367c-0.216,0-0.434-0.047-0.64-0.144c-0.533-0.25-0.864-0.77-0.864-1.358V14.5h-2
			c-1.654,0-3-1.346-3-3V4c0-1.654,1.346-3,3-3h15c1.654,0,3,1.346,3,3v7.5c0,1.654-1.346,3-3,3h-6.319l-4.221,3.517
			C28.683,18.248,28.346,18.367,28.003,18.367z M24.5,2c-1.103,0-2,0.897-2,2v7.5c0,1.103,0.897,2,2,2H27c0.276,0,0.5,0.224,0.5,0.5
			v2.865c0,0.295,0.22,0.421,0.288,0.453c0.067,0.032,0.305,0.12,0.532-0.069l4.36-3.633C32.77,13.541,32.883,13.5,33,13.5h6.5
			c1.103,0,2-0.897,2-2V4c0-1.103-0.897-2-2-2H24.5z"/>
	</g>
	<g>
		<path class="st1" d="M26.902,9.25c-0.827,0-1.5-0.673-1.5-1.5s0.673-1.5,1.5-1.5s1.5,0.673,1.5,1.5S27.729,9.25,26.902,9.25z
			 M26.902,7.25c-0.276,0-0.5,0.224-0.5,0.5s0.224,0.5,0.5,0.5s0.5-0.224,0.5-0.5S27.178,7.25,26.902,7.25z"/>
	</g>
	<g>
		<path class="st1" d="M31.902,9.25c-0.827,0-1.5-0.673-1.5-1.5s0.673-1.5,1.5-1.5s1.5,0.673,1.5,1.5S32.729,9.25,31.902,9.25z
			 M31.902,7.25c-0.276,0-0.5,0.224-0.5,0.5s0.224,0.5,0.5,0.5s0.5-0.224,0.5-0.5S32.178,7.25,31.902,7.25z"/>
	</g>
	<g>
		<path class="st1" d="M36.902,9.25c-0.827,0-1.5-0.673-1.5-1.5s0.673-1.5,1.5-1.5s1.5,0.673,1.5,1.5S37.729,9.25,36.902,9.25z
			 M36.902,7.25c-0.276,0-0.5,0.224-0.5,0.5s0.224,0.5,0.5,0.5s0.5-0.224,0.5-0.5S37.178,7.25,36.902,7.25z"/>
	</g>
	<g>
		<path class="st0" d="M33,36.965c0,0.552,0.448,1,1,1h20c0.552,0,1-0.448,1-1v-14c0-0.552-0.448-1-1-1l-20,0c-0.552,0-1,0.448-1,1
			V36.965z"/>
		<path class="st1" d="M54,38.465H34c-0.827,0-1.5-0.673-1.5-1.5v-14c0-0.827,0.673-1.5,1.5-1.5h20c0.827,0,1.5,0.673,1.5,1.5v14
			C55.5,37.792,54.827,38.465,54,38.465z M34,22.465c-0.276,0-0.5,0.224-0.5,0.5v14c0,0.276,0.224,0.5,0.5,0.5h20
			c0.276,0,0.5-0.224,0.5-0.5v-14c0-0.276-0.224-0.5-0.5-0.5H34z"/>
	</g>
	<g>
		<path class="st1" d="M51,26.965H37c-0.276,0-0.5-0.224-0.5-0.5s0.224-0.5,0.5-0.5h14c0.276,0,0.5,0.224,0.5,0.5
			S51.276,26.965,51,26.965z"/>
	</g>
	<g>
		<path class="st1" d="M51,30.465H37c-0.276,0-0.5-0.224-0.5-0.5s0.224-0.5,0.5-0.5h14c0.276,0,0.5,0.224,0.5,0.5
			S51.276,30.465,51,30.465z"/>
	</g>
	<g>
		<path class="st1" d="M44,33.965h-7c-0.276,0-0.5-0.224-0.5-0.5s0.224-0.5,0.5-0.5h7c0.276,0,0.5,0.224,0.5,0.5
			S44.276,33.965,44,33.965z"/>
	</g>
	<g>
		<path class="st1" d="M19.004,30c-3.584,0-6.5-2.916-6.5-6.5s2.916-6.5,6.5-6.5s6.5,2.916,6.5,6.5S22.588,30,19.004,30z M19.004,18
			c-3.033,0-5.5,2.467-5.5,5.5s2.467,5.5,5.5,5.5s5.5-2.467,5.5-5.5S22.037,18,19.004,18z"/>
	</g>
	<g>
		<path class="st2" d="M23.165,20.03l0.447-0.372c-1.101-1.319-2.755-2.159-4.607-2.159c-3.314,0-6,2.686-6,6h0.566
			C17.076,23.5,20.471,22.272,23.165,20.03z"/>
		<path class="st1" d="M13.571,24h-0.566c-0.276,0-0.5-0.224-0.5-0.5c0-3.584,2.916-6.5,6.5-6.5c1.932,0,3.751,0.852,4.991,2.338
			c0.085,0.102,0.126,0.233,0.114,0.366c-0.012,0.132-0.076,0.254-0.178,0.339l-0.447,0.372C20.707,22.727,17.186,24,13.571,24z
			 M13.527,23h0.044c3.382,0,6.675-1.191,9.274-3.354l0,0l0.044-0.037C21.861,18.581,20.471,18,19.004,18
			C16.14,18,13.78,20.201,13.527,23z"/>
	</g>
	<g>
		<path class="st1" d="M29.004,46.5H9c-0.276,0-0.5-0.224-0.5-0.5v-8.909c0-2.098,1.166-3.983,3.042-4.92l4.231-2.113
			c0.246-0.124,0.548-0.023,0.671,0.224c0.124,0.247,0.023,0.547-0.224,0.671l-4.231,2.113c-1.535,0.767-2.489,2.31-2.489,4.026
			V45.5h19.004v-8.41c0-1.715-0.953-3.258-2.487-4.025l-4.245-2.122c-0.247-0.124-0.347-0.424-0.224-0.671
			c0.123-0.247,0.424-0.346,0.671-0.224l4.245,2.122c1.875,0.938,3.04,2.823,3.04,4.919V46C29.504,46.276,29.281,46.5,29.004,46.5z"
			/>
	</g>
	<g>
		<path class="st1" d="M25.004,46.5h-12c-0.276,0-0.5-0.224-0.5-0.5v-6.5c0-0.276,0.224-0.5,0.5-0.5s0.5,0.224,0.5,0.5v6h11v-6
			c0-0.276,0.224-0.5,0.5-0.5s0.5,0.224,0.5,0.5V46C25.504,46.276,25.281,46.5,25.004,46.5z"/>
	</g>
	<g>
		<path class="st1" d="M19,35.467c-0.167,0-0.322-0.083-0.415-0.221l-3.004-4.462c-0.056-0.083-0.085-0.18-0.085-0.279l-0.001-1.82
			c0-0.179,0.095-0.345,0.25-0.434c0.156-0.089,0.347-0.089,0.501,0.001c1.676,0.976,3.823,0.978,5.499,0.011
			c0.155-0.089,0.345-0.089,0.5,0c0.154,0.089,0.25,0.254,0.25,0.433l0.001,1.798c0,0.099-0.029,0.196-0.084,0.279l-2.996,4.473
			C19.323,35.384,19.167,35.467,19,35.467L19,35.467z M16.496,30.352l2.503,3.718l2.497-3.728L21.495,29.5
			c-1.583,0.66-3.417,0.657-5-0.008L16.496,30.352z"/>
	</g>
	<g>
		<path class="st1" d="M19,39.467c-0.276,0-0.5-0.224-0.5-0.5v-4c0-0.276,0.224-0.5,0.5-0.5s0.5,0.224,0.5,0.5v4
			C19.5,39.244,19.276,39.467,19,39.467z"/>
	</g>
	<g>
		<path class="st1" d="M56.5,57H49c-0.276,0-0.5-0.224-0.5-0.5S48.724,56,49,56h7.5c0.276,0,0.5,0.224,0.5,0.5S56.776,57,56.5,57z"
			/>
	</g>
	<g>
		<path class="st1" d="M59.5,57h-1c-0.276,0-0.5-0.224-0.5-0.5s0.224-0.5,0.5-0.5h1c0.276,0,0.5,0.224,0.5,0.5S59.776,57,59.5,57z"
			/>
	</g>
	<g>
		<path class="st1" d="M15,57H7.5C7.224,57,7,56.776,7,56.5S7.224,56,7.5,56H15c0.276,0,0.5,0.224,0.5,0.5S15.276,57,15,57z"/>
	</g>
	<g>
		<path class="st1" d="M5.5,57h-1C4.224,57,4,56.776,4,56.5S4.224,56,4.5,56h1C5.776,56,6,56.223,6,56.5S5.776,57,5.5,57z"/>
	</g>
</g>
</svg>
