<?xml version="1.0" encoding="utf-8"?>
<!-- Generator: Adobe Illustrator 22.0.0, SVG Export Plug-In . SVG Version: 6.00 Build 0)  -->
<svg version="1.1" id="Icon_Set" xmlns="http://www.w3.org/2000/svg" xmlns:xlink="http://www.w3.org/1999/xlink" x="0px" y="0px"
	 viewBox="0 0 64 64" style="enable-background:new 0 0 64 64;" xml:space="preserve">
<style type="text/css">
	.st0{fill:#40C4FF;}
	.st1{fill:#263238;}
	.st2{fill:#FFD740;}
	.st3{fill:#FF5252;}
	.st4{fill:#4DB6AC;}
	.st5{fill:#FFFFFF;}
	.st6{fill:#4FC3F7;}
	.st7{fill:#37474F;}
</style>
<g>
	<g>
		<path class="st1" d="M60,58.25h-1c-0.276,0-0.5-0.224-0.5-0.5s0.224-0.5,0.5-0.5h1c0.276,0,0.5,0.224,0.5,0.5
			S60.276,58.25,60,58.25z"/>
	</g>
	<g>
		<path class="st1" d="M57,58.25H40c-0.276,0-0.5-0.224-0.5-0.5s0.224-0.5,0.5-0.5h17c0.276,0,0.5,0.224,0.5,0.5
			S57.276,58.25,57,58.25z"/>
	</g>
	<g>
		<path class="st1" d="M49.147,13.75h-4c-0.276,0-0.5-0.224-0.5-0.5s0.224-0.5,0.5-0.5h4c0.276,0,0.5,0.224,0.5,0.5
			S49.423,13.75,49.147,13.75z"/>
	</g>
	<g>
		<path class="st1" d="M54.147,8.25h-4c-0.276,0-0.5-0.224-0.5-0.5s0.224-0.5,0.5-0.5h4c0.276,0,0.5,0.224,0.5,0.5
			S54.423,8.25,54.147,8.25z"/>
	</g>
	<g>
		<path class="st1" d="M52.147,10.25c-0.276,0-0.5-0.224-0.5-0.5v-4c0-0.276,0.224-0.5,0.5-0.5s0.5,0.224,0.5,0.5v4
			C52.647,10.026,52.423,10.25,52.147,10.25z"/>
	</g>
	<g>
		<path class="st1" d="M47.147,15.75c-0.276,0-0.5-0.224-0.5-0.5v-4c0-0.276,0.224-0.5,0.5-0.5s0.5,0.224,0.5,0.5v4
			C47.647,15.526,47.423,15.75,47.147,15.75z"/>
	</g>
	<g>
		<path class="st1" d="M26.5,62.25c-0.276,0-0.5-0.224-0.5-0.5v-9c0-0.276,0.224-0.5,0.5-0.5s0.5,0.224,0.5,0.5v9
			C27,62.026,26.776,62.25,26.5,62.25z"/>
	</g>
	<g>
		<path class="st1" d="M44.573,30.25h-13.5c-2.757,0-5-2.243-5-5s2.243-5,5-5h13.5c0.276,0,0.5,0.224,0.5,0.5v9
			C45.073,30.026,44.85,30.25,44.573,30.25z M31.073,21.25c-2.206,0-4,1.794-4,4s1.794,4,4,4h13v-8H31.073z"/>
	</g>
	<g>
		<path class="st2" d="M57.5,31.25h-14c-3.314,0-6-2.686-6-6v0c0-3.314,2.686-6,6-6h14V31.25z"/>
		<path class="st1" d="M57.5,31.75h-14c-3.584,0-6.5-2.916-6.5-6.5s2.916-6.5,6.5-6.5h14c0.276,0,0.5,0.224,0.5,0.5v12
			C58,31.526,57.776,31.75,57.5,31.75z M43.5,19.75c-3.033,0-5.5,2.468-5.5,5.5s2.467,5.5,5.5,5.5H57v-11H43.5z"/>
	</g>
	<g>
		<circle class="st2" cx="57.5" cy="25.25" r="6"/>
		<path class="st1" d="M57.5,31.75c-3.584,0-6.5-2.916-6.5-6.5s2.916-6.5,6.5-6.5s6.5,2.916,6.5,6.5S61.084,31.75,57.5,31.75z
			 M57.5,19.75c-3.033,0-5.5,2.468-5.5,5.5s2.467,5.5,5.5,5.5s5.5-2.468,5.5-5.5S60.533,19.75,57.5,19.75z"/>
	</g>
	<g>
		<circle class="st5" cx="57.5" cy="25.25" r="3"/>
		<path class="st1" d="M57.5,28.75c-1.93,0-3.5-1.57-3.5-3.5s1.57-3.5,3.5-3.5s3.5,1.57,3.5,3.5S59.43,28.75,57.5,28.75z
			 M57.5,22.75c-1.378,0-2.5,1.121-2.5,2.5s1.122,2.5,2.5,2.5s2.5-1.121,2.5-2.5S58.878,22.75,57.5,22.75z"/>
	</g>
	<g>
		<path class="st0" d="M27,18.25H13c-1.381,0-2.5-1.119-2.5-2.5v-11c0-1.381,1.119-2.5,2.5-2.5h14c1.381,0,2.5,1.119,2.5,2.5v11
			C29.5,17.131,28.381,18.25,27,18.25z"/>
		<path class="st1" d="M27,18.75H13c-1.654,0-3-1.346-3-3v-11c0-1.654,1.346-3,3-3h14c1.654,0,3,1.346,3,3v11
			C30,17.404,28.654,18.75,27,18.75z M13,2.75c-1.103,0-2,0.897-2,2v11c0,1.103,0.897,2,2,2h14c1.103,0,2-0.897,2-2v-11
			c0-1.103-0.897-2-2-2H13z"/>
	</g>
	<g>
		<path class="st1" d="M38.826,19.25c-0.193,0-0.376-0.112-0.458-0.3c-1.426-3.261-3.727-6.074-6.655-8.138
			c-0.226-0.159-0.28-0.472-0.121-0.697c0.158-0.226,0.471-0.28,0.697-0.121c3.077,2.169,5.496,5.128,6.995,8.556
			c0.111,0.253-0.005,0.548-0.258,0.658C38.96,19.236,38.892,19.25,38.826,19.25z"/>
	</g>
	<g>
		<path class="st1" d="M33,53.25H21.5c-0.276,0-0.5-0.224-0.5-0.5s0.224-0.5,0.5-0.5H33c3.86,0,7-3.141,7-7v-6.5
			c0-0.276,0.224-0.5,0.5-0.5h2.642c0.764,0,1.428-0.405,1.778-1.084c0.35-0.68,0.293-1.457-0.15-2.079l-1.105-1.546
			c-0.161-0.225-0.108-0.537,0.116-0.698c0.224-0.159,0.537-0.108,0.697,0.116l1.105,1.547c0.656,0.92,0.743,2.114,0.226,3.117
			c-0.517,1.004-1.539,1.627-2.667,1.627H41v6C41,49.661,37.412,53.25,33,53.25z"/>
	</g>
	<g>
		<path class="st1" d="M10.5,62.25c-0.276,0-0.5-0.224-0.5-0.5L9.999,46.798l-3.062-2.701C2.528,40.206,0,34.604,0,28.725V26.75
			c0-6.242,2.802-12.069,7.687-15.988c0.217-0.173,0.53-0.138,0.703,0.077s0.138,0.529-0.077,0.702C3.666,15.27,1,20.813,1,26.75
			v1.975c0,5.592,2.405,10.922,6.599,14.622l3.231,2.851c0.108,0.095,0.169,0.231,0.169,0.375L11,61.75
			C11,62.026,10.776,62.25,10.5,62.25z"/>
	</g>
	<g>
		<path class="st1" d="M12.752,14.462c-0.128,0-0.256-0.049-0.354-0.146c-0.195-0.195-0.195-0.512,0-0.707l4.95-4.949
			c0.195-0.195,0.512-0.195,0.707,0l3.182,3.182l5.657-5.656c0.195-0.195,0.512-0.195,0.707,0s0.195,0.512,0,0.707l-6.011,6.01
			c-0.195,0.195-0.512,0.195-0.707,0L17.702,9.72l-4.596,4.596C13.008,14.413,12.88,14.462,12.752,14.462z"/>
	</g>
	<g>
		<path class="st1" d="M27.248,11.038c-0.276,0-0.5-0.224-0.5-0.5v-3.5h-3.5c-0.276,0-0.5-0.224-0.5-0.5s0.224-0.5,0.5-0.5h4
			c0.276,0,0.5,0.224,0.5,0.5v4C27.748,10.814,27.524,11.038,27.248,11.038z"/>
	</g>
</g>
</svg>
