<?xml version="1.0" encoding="utf-8"?>
<!-- Generator: Adobe Illustrator 22.0.0, SVG Export Plug-In . SVG Version: 6.00 Build 0)  -->
<svg version="1.1" id="Icon_Set" xmlns="http://www.w3.org/2000/svg" xmlns:xlink="http://www.w3.org/1999/xlink" x="0px" y="0px"
	 viewBox="0 0 64 64" style="enable-background:new 0 0 64 64;" xml:space="preserve">
<style type="text/css">
	.st0{fill:#40C4FF;}
	.st1{fill:#263238;}
	.st2{fill:#FFD740;}
	.st3{fill:#FF5252;}
	.st4{fill:#4DB6AC;}
	.st5{fill:#FFFFFF;}
	.st6{fill:#4FC3F7;}
	.st7{fill:#37474F;}
</style>
<g>
	<g>
		<polygon class="st3" points="13,12.5 8,11 8,8 13,9.5 		"/>
		<path class="st1" d="M13,13c-0.048,0-0.097-0.007-0.144-0.021l-5-1.5C7.645,11.415,7.5,11.221,7.5,11V8
			c0-0.158,0.075-0.307,0.202-0.401c0.126-0.094,0.292-0.124,0.442-0.077l5,1.5C13.355,9.085,13.5,9.279,13.5,9.5v3
			c0,0.158-0.075,0.307-0.202,0.401C13.211,12.966,13.106,13,13,13z M8.5,10.628l4,1.2V9.872l-4-1.2V10.628z"/>
	</g>
	<g>
		<polygon class="st3" points="7,16.5 12,15 12,12 7,13.5 		"/>
		<path class="st1" d="M7,17c-0.106,0-0.211-0.034-0.298-0.099C6.575,16.807,6.5,16.658,6.5,16.5v-3
			c0-0.221,0.145-0.415,0.356-0.479l5-1.5c0.15-0.047,0.314-0.017,0.442,0.077C12.425,11.693,12.5,11.842,12.5,12v3
			c0,0.221-0.145,0.415-0.356,0.479l-5,1.5C7.097,16.993,7.048,17,7,17z M7.5,13.872v1.956l4-1.2v-1.956L7.5,13.872z"/>
	</g>
	<g>
		<path class="st1" d="M11,29.5H6c-0.276,0-0.5-0.224-0.5-0.5s0.224-0.5,0.5-0.5h5c0.276,0,0.5,0.224,0.5,0.5S11.276,29.5,11,29.5z"
			/>
	</g>
	<g>
		<path class="st1" d="M4,29.5H3c-0.276,0-0.5-0.224-0.5-0.5s0.224-0.5,0.5-0.5h1c0.276,0,0.5,0.224,0.5,0.5S4.276,29.5,4,29.5z"/>
	</g>
	<g>
		<path class="st1" d="M40.5,25.5h-5c-0.276,0-0.5-0.224-0.5-0.5s0.224-0.5,0.5-0.5h5c0.276,0,0.5,0.224,0.5,0.5
			S40.776,25.5,40.5,25.5z"/>
	</g>
	<g>
		<path class="st1" d="M43.5,25.5h-1c-0.276,0-0.5-0.224-0.5-0.5s0.224-0.5,0.5-0.5h1c0.276,0,0.5,0.224,0.5,0.5
			S43.776,25.5,43.5,25.5z"/>
	</g>
	<g>
		<path class="st1" d="M62,62.5c-0.276,0-0.5-0.224-0.5-0.5v-3.5c0-1.103-0.897-2-2-2h-55c-1.103,0-2,0.897-2,2V62
			c0,0.276-0.224,0.5-0.5,0.5S1.5,62.276,1.5,62v-3.5c0-1.654,1.346-3,3-3h55c1.654,0,3,1.346,3,3V62
			C62.5,62.276,62.276,62.5,62,62.5z"/>
	</g>
	<g>
		<path class="st1" d="M22,29.5c-4.659,0-8.734-3.062-10.053-7.5C10.317,21.972,9,20.637,9,19s1.317-2.972,2.947-3
			C13.266,11.562,17.341,8.5,22,8.5s8.734,3.062,10.053,7.5C33.683,16.028,35,17.363,35,19s-1.317,2.972-2.947,3
			C30.734,26.438,26.659,29.5,22,29.5z M12.259,20.977c0.234,0,0.488,0.145,0.544,0.368C13.875,25.558,17.657,28.5,22,28.5
			s8.125-2.942,9.196-7.155c0.062-0.246,0.294-0.407,0.549-0.373C31.876,20.99,31.937,21,32,21c1.103,0,2-0.897,2-2s-0.897-2-2-2
			c-0.063,0-0.124,0.01-0.185,0.019c-0.254,0.031-0.556-0.116-0.619-0.363C30.125,12.442,26.343,9.5,22,9.5
			s-8.125,2.942-9.196,7.155c-0.062,0.246-0.298,0.402-0.549,0.373C12.124,17.01,12.063,17,12,17c-1.103,0-2,0.897-2,2s0.897,2,2,2
			c0.063,0,0.124-0.01,0.185-0.019C12.209,20.979,12.234,20.977,12.259,20.977z"/>
	</g>
	<g>
		<path class="st1" d="M32,54.5c-0.276,0-0.5-0.224-0.5-0.5v-3.5c0-0.276,0.224-0.5,0.5-0.5s0.5,0.224,0.5,0.5V54
			C32.5,54.276,32.276,54.5,32,54.5z"/>
	</g>
	<g>
		<path class="st1" d="M15.934,36.5c-0.07,0-0.141-0.015-0.207-0.045c-0.165-0.074-0.276-0.232-0.292-0.413l-0.401-4.767
			c-0.018-0.204,0.091-0.397,0.274-0.489l2.467-1.233c0.227-0.114,0.5-0.04,0.64,0.17l2,3c0.148,0.222,0.096,0.521-0.119,0.68
			l-4.066,3C16.144,36.467,16.039,36.5,15.934,36.5z M16.06,31.529l0.298,3.537l2.962-2.186l-1.491-2.236L16.06,31.529z"/>
	</g>
	<g>
		<path class="st1" d="M28.056,36.5c-0.105,0-0.21-0.033-0.297-0.098l-4.056-3c-0.214-0.159-0.267-0.458-0.119-0.68l2-3
			c0.141-0.21,0.415-0.284,0.64-0.17l2.467,1.233c0.183,0.092,0.292,0.286,0.274,0.49l-0.411,4.767
			c-0.016,0.181-0.127,0.338-0.292,0.413C28.196,36.485,28.126,36.5,28.056,36.5z M24.68,32.881l2.955,2.186l0.305-3.538
			l-1.768-0.884L24.68,32.881z"/>
	</g>
	<g>
		<path class="st1" d="M23,36.5h-2c-0.827,0-1.5-0.673-1.5-1.5v-1c0-0.827,0.673-1.5,1.5-1.5h2c0.827,0,1.5,0.673,1.5,1.5v1
			C24.5,35.827,23.827,36.5,23,36.5z M21,33.5c-0.276,0-0.5,0.225-0.5,0.5v1c0,0.275,0.224,0.5,0.5,0.5h2c0.276,0,0.5-0.225,0.5-0.5
			v-1c0-0.275-0.224-0.5-0.5-0.5H21z"/>
	</g>
	<g>
		<path class="st1" d="M22,24.5c-1.469,0-2.851-0.572-3.889-1.611c-0.195-0.195-0.195-0.512,0-0.707s0.512-0.195,0.707,0
			c0.85,0.851,1.98,1.318,3.182,1.318s2.332-0.468,3.182-1.318c0.195-0.195,0.512-0.195,0.707,0s0.195,0.512,0,0.707
			C24.851,23.928,23.469,24.5,22,24.5z"/>
	</g>
	<g>
		<path class="st1" d="M23.756,33.865c-0.147,0-0.288-0.065-0.383-0.179C23.315,33.617,23.188,33.5,23,33.5h-2
			c-0.188,0-0.315,0.117-0.374,0.187c-0.101,0.12-0.267,0.196-0.41,0.178c-0.157-0.009-0.301-0.091-0.389-0.222l-2.244-3.365
			C17.529,30.195,17.5,30.099,17.5,30v-1.838c0-0.169,0.085-0.326,0.227-0.418c0.142-0.093,0.319-0.108,0.474-0.04
			c2.415,1.057,5.185,1.057,7.6,0c0.155-0.068,0.333-0.053,0.474,0.04c0.142,0.092,0.227,0.249,0.227,0.418V30
			c0,0.099-0.029,0.195-0.084,0.277l-2.244,3.365c-0.087,0.131-0.231,0.213-0.389,0.222C23.775,33.865,23.766,33.865,23.756,33.865z
			 M21,32.5h2c0.221,0,0.437,0.052,0.634,0.147l1.866-2.799v-0.951c-2.25,0.801-4.75,0.801-7,0v0.951l1.866,2.799
			C20.563,32.552,20.779,32.5,21,32.5z"/>
	</g>
	<g>
		<path class="st2" d="M12.5,19H12v-5h3v2.5C15,17.881,13.881,19,12.5,19z"/>
		<path class="st1" d="M12.5,19.5H12c-0.276,0-0.5-0.224-0.5-0.5v-5c0-0.276,0.224-0.5,0.5-0.5h3c0.276,0,0.5,0.224,0.5,0.5v2.5
			C15.5,18.154,14.154,19.5,12.5,19.5z M12.5,18.5h0.01H12.5z M12.5,14.5v4c1.103,0,2-0.897,2-2v-2H12.5z"/>
	</g>
	<g>
		<path class="st2" d="M29,14H12v-0.5C12,9.358,15.358,6,19.5,6h5.345c2.719,0,5.386-0.739,7.717-2.138L34,3v6
			C34,11.761,31.761,14,29,14z"/>
		<path class="st1" d="M29,14.5H12c-0.276,0-0.5-0.224-0.5-0.5v-0.5c0-4.411,3.589-8,8-8h5.345c2.627,0,5.207-0.715,7.46-2.066
			l1.438-0.862c0.155-0.094,0.347-0.095,0.504-0.007C34.403,2.653,34.5,2.82,34.5,3v6C34.5,12.032,32.033,14.5,29,14.5z M12.5,13.5
			H29c2.481,0,4.5-2.019,4.5-4.5V3.883l-0.68,0.408C30.411,5.736,27.653,6.5,24.845,6.5H19.5C15.64,6.5,12.5,9.641,12.5,13.5z"/>
	</g>
	<g>
		<path class="st2" d="M29,14v2.5c0,1.381,1.119,2.5,2.5,2.5H32v-6.023C31.162,13.61,30.131,14,29,14z"/>
		<path class="st1" d="M32,19.5h-0.5c-1.654,0-3-1.346-3-3V14c0-0.276,0.224-0.5,0.5-0.5c0.967,0,1.9-0.318,2.699-0.922
			c0.151-0.113,0.354-0.132,0.524-0.048c0.17,0.084,0.277,0.258,0.277,0.447V19C32.5,19.276,32.276,19.5,32,19.5z M29.5,14.477V16.5
			c0,1.103,0.897,2,2,2v-4.616C30.873,14.212,30.198,14.412,29.5,14.477z"/>
	</g>
	<g>
		<path class="st1" d="M49,54.5c-0.276,0-0.5-0.224-0.5-0.5v-8.5h-5V54c0,0.276-0.224,0.5-0.5,0.5s-0.5-0.224-0.5-0.5v-9
			c0-0.276,0.224-0.5,0.5-0.5h6c0.276,0,0.5,0.224,0.5,0.5v9C49.5,54.276,49.276,54.5,49,54.5z"/>
	</g>
	<g>
		<path class="st1" d="M57.5,49.5H51c-0.276,0-0.5-0.224-0.5-0.5s0.224-0.5,0.5-0.5h6.5c1.103,0,2-0.897,2-2v-15
			c0-1.103-0.897-2-2-2h-23c-1.103,0-2,0.897-2,2v15c0,1.103,0.897,2,2,2H41c0.276,0,0.5,0.224,0.5,0.5s-0.224,0.5-0.5,0.5h-6.5
			c-1.654,0-3-1.346-3-3v-15c0-1.654,1.346-3,3-3h23c1.654,0,3,1.346,3,3v15C60.5,48.154,59.154,49.5,57.5,49.5z"/>
	</g>
	<g>
		<path class="st1" d="M30,32.5c-0.075,0-0.151-0.017-0.223-0.053l-4-2c-0.247-0.124-0.347-0.424-0.224-0.671
			c0.124-0.246,0.424-0.348,0.671-0.224l4,2c0.247,0.124,0.347,0.424,0.224,0.671C30.359,32.398,30.183,32.5,30,32.5z"/>
	</g>
	<g>
		<path class="st1" d="M38,54.5c-0.276,0-0.5-0.224-0.5-0.5v-3.571c0-0.276,0.224-0.5,0.5-0.5s0.5,0.224,0.5,0.5V54
			C38.5,54.276,38.276,54.5,38,54.5z"/>
	</g>
	<g>
		<path class="st1" d="M46.047,41.5c-1.378,0-2.5-1.121-2.5-2.5s1.122-2.5,2.5-2.5s2.5,1.121,2.5,2.5S47.425,41.5,46.047,41.5z
			 M46.047,37.5c-0.827,0-1.5,0.673-1.5,1.5s0.673,1.5,1.5,1.5s1.5-0.673,1.5-1.5S46.874,37.5,46.047,37.5z"/>
	</g>
	<g>
		<circle class="st0" cx="52" cy="10" r="8"/>
		<path class="st1" d="M52,18.5c-4.687,0-8.5-3.813-8.5-8.5s3.813-8.5,8.5-8.5s8.5,3.813,8.5,8.5S56.688,18.5,52,18.5z M52,2.5
			c-4.136,0-7.5,3.364-7.5,7.5s3.364,7.5,7.5,7.5s7.5-3.364,7.5-7.5S56.136,2.5,52,2.5z"/>
	</g>
	<g>
		<path class="st1" d="M52,11c-0.085,0-0.171-0.021-0.248-0.065l-3.5-2c-0.24-0.138-0.323-0.443-0.186-0.683
			c0.137-0.239,0.442-0.321,0.682-0.187L51.5,9.639V5.5C51.5,5.224,51.724,5,52,5s0.5,0.224,0.5,0.5v5
			c0,0.179-0.095,0.343-0.249,0.433C52.174,10.978,52.087,11,52,11z"/>
	</g>
	<g>
		<rect x="11" y="11" class="st3" width="22" height="4"/>
		<path class="st1" d="M33,15.5H11c-0.276,0-0.5-0.224-0.5-0.5v-4c0-0.276,0.224-0.5,0.5-0.5h22c0.276,0,0.5,0.224,0.5,0.5v4
			C33.5,15.276,33.276,15.5,33,15.5z M11.5,14.5h21v-3h-21V14.5z"/>
	</g>
	<g>
		<path class="st1" d="M23,54.5c-0.276,0-0.5-0.224-0.5-0.5v-3.5H12c-0.276,0-0.5-0.224-0.5-0.5v-7c0-0.276,0.224-0.5,0.5-0.5
			s0.5,0.224,0.5,0.5v6.5H23c0.276,0,0.5,0.224,0.5,0.5v4C23.5,54.276,23.276,54.5,23,54.5z"/>
	</g>
	<g>
		<polyline class="st0" points="24.593,48 23,36 21,36 19.407,48 		"/>
		<path class="st1" d="M24.593,48.5c-0.247,0-0.462-0.183-0.495-0.435L22.562,36.5h-1.124l-1.536,11.565
			c-0.036,0.274-0.287,0.467-0.562,0.431c-0.273-0.037-0.466-0.288-0.43-0.562l1.593-12C20.537,35.686,20.75,35.5,21,35.5h2
			c0.25,0,0.463,0.186,0.496,0.435l1.593,12c0.037,0.273-0.156,0.524-0.43,0.562C24.637,48.499,24.615,48.5,24.593,48.5z"/>
	</g>
	<g>
		<path class="st1" d="M7.023,54.5c-0.151,0-0.301-0.068-0.399-0.198C5.889,53.328,5.5,52.187,5.5,51V39.09
			c0-2.097,1.165-3.981,3.041-4.919l9.236-4.618c0.247-0.124,0.547-0.022,0.671,0.224c0.124,0.247,0.023,0.547-0.224,0.671
			l-9.236,4.618C7.453,35.832,6.5,37.374,6.5,39.09V51c0,0.968,0.319,1.9,0.921,2.698c0.167,0.221,0.123,0.534-0.098,0.701
			C7.233,54.467,7.128,54.5,7.023,54.5z"/>
	</g>
	<g>
		<path class="st1" d="M29,54.5c-0.276,0-0.5-0.224-0.5-0.5v-1.5c0-1.103-0.897-2-2-2H25c-0.276,0-0.5-0.224-0.5-0.5
			s0.224-0.5,0.5-0.5h1.5c1.654,0,3,1.346,3,3V54C29.5,54.276,29.276,54.5,29,54.5z"/>
	</g>
	<g>
		<path class="st1" d="M57,37.5c-0.276,0-0.5-0.224-0.5-0.5v-4c0-0.275-0.224-0.5-0.5-0.5h-4c-0.276,0-0.5-0.224-0.5-0.5
			s0.224-0.5,0.5-0.5h4c0.827,0,1.5,0.673,1.5,1.5v4C57.5,37.276,57.276,37.5,57,37.5z"/>
	</g>
</g>
</svg>
