<?xml version="1.0" encoding="utf-8"?>
<!-- Generator: Adobe Illustrator 22.0.0, SVG Export Plug-In . SVG Version: 6.00 Build 0)  -->
<svg version="1.1" id="Icon_Set" xmlns="http://www.w3.org/2000/svg" xmlns:xlink="http://www.w3.org/1999/xlink" x="0px" y="0px"
	 viewBox="0 0 64 64" style="enable-background:new 0 0 64 64;" xml:space="preserve">
<style type="text/css">
	.st0{fill:#40C4FF;}
	.st1{fill:#263238;}
	.st2{fill:#FFD740;}
	.st3{fill:#FF5252;}
	.st4{fill:#4DB6AC;}
	.st5{fill:#FFFFFF;}
	.st6{fill:#4FC3F7;}
	.st7{fill:#37474F;}
</style>
<g>
	<g>
		<path class="st1" d="M40,28c-0.128,0-0.256-0.049-0.354-0.146c-0.195-0.195-0.195-0.512,0-0.707l4-4
			c0.195-0.195,0.512-0.195,0.707,0s0.195,0.512,0,0.707l-4,4C40.256,27.951,40.128,28,40,28z"/>
	</g>
	<g>
		<path class="st1" d="M20,48c-0.128,0-0.256-0.049-0.354-0.146c-0.195-0.195-0.195-0.512,0-0.707l4-4
			c0.195-0.195,0.512-0.195,0.707,0s0.195,0.512,0,0.707l-4,4C20.256,47.951,20.128,48,20,48z"/>
	</g>
	<g>
		<path class="st1" d="M44,28h-4c-0.276,0-0.5-0.224-0.5-0.5v-4c0-0.276,0.224-0.5,0.5-0.5s0.5,0.224,0.5,0.5V27H44
			c0.276,0,0.5,0.224,0.5,0.5S44.276,28,44,28z"/>
	</g>
	<g>
		<path class="st1" d="M24,48c-0.276,0-0.5-0.224-0.5-0.5V44H20c-0.276,0-0.5-0.224-0.5-0.5S19.724,43,20,43h4
			c0.276,0,0.5,0.224,0.5,0.5v4C24.5,47.776,24.276,48,24,48z"/>
	</g>
	<g>
		<path class="st1" d="M44,48c-0.128,0-0.256-0.049-0.354-0.146l-4-4c-0.195-0.195-0.195-0.512,0-0.707s0.512-0.195,0.707,0l4,4
			c0.195,0.195,0.195,0.512,0,0.707C44.256,47.951,44.128,48,44,48z"/>
	</g>
	<g>
		<path class="st1" d="M24,28c-0.128,0-0.256-0.049-0.354-0.146l-4-4c-0.195-0.195-0.195-0.512,0-0.707s0.512-0.195,0.707,0l4,4
			c0.195,0.195,0.195,0.512,0,0.707C24.256,27.951,24.128,28,24,28z"/>
	</g>
	<g>
		<path class="st1" d="M40,48c-0.276,0-0.5-0.224-0.5-0.5v-4c0-0.276,0.224-0.5,0.5-0.5h4c0.276,0,0.5,0.224,0.5,0.5
			S44.276,44,44,44h-3.5v3.5C40.5,47.776,40.276,48,40,48z"/>
	</g>
	<g>
		<path class="st1" d="M24,28h-4c-0.276,0-0.5-0.224-0.5-0.5S19.724,27,20,27h3.5v-3.5c0-0.276,0.224-0.5,0.5-0.5s0.5,0.224,0.5,0.5
			v4C24.5,27.776,24.276,28,24,28z"/>
	</g>
	<g>
		<circle class="st2" cx="32" cy="35.5" r="8"/>
		<path class="st1" d="M32,44c-4.687,0-8.5-3.813-8.5-8.5S27.313,27,32,27s8.5,3.813,8.5,8.5S36.687,44,32,44z M32,28
			c-4.136,0-7.5,3.364-7.5,7.5S27.864,43,32,43s7.5-3.364,7.5-7.5S36.136,28,32,28z"/>
	</g>
	<g>
		<path class="st1" d="M32.812,38.375h-2.438c-0.276,0-0.5-0.224-0.5-0.5s0.224-0.5,0.5-0.5h2.438c0.379,0,0.688-0.309,0.688-0.688
			S33.191,36,32.812,36h-1.625c-0.931,0-1.688-0.757-1.688-1.688s0.757-1.688,1.688-1.688h2.438c0.276,0,0.5,0.224,0.5,0.5
			s-0.224,0.5-0.5,0.5h-2.438c-0.379,0-0.688,0.309-0.688,0.688S30.809,35,31.188,35h1.625c0.931,0,1.688,0.757,1.688,1.688
			S33.743,38.375,32.812,38.375z"/>
	</g>
	<g>
		<path class="st1" d="M32,33.625c-0.276,0-0.5-0.224-0.5-0.5v-1.5c0-0.276,0.224-0.5,0.5-0.5s0.5,0.224,0.5,0.5v1.5
			C32.5,33.401,32.276,33.625,32,33.625z"/>
	</g>
	<g>
		<path class="st1" d="M32,39.875c-0.276,0-0.5-0.224-0.5-0.5v-1.5c0-0.276,0.224-0.5,0.5-0.5s0.5,0.224,0.5,0.5v1.5
			C32.5,39.651,32.276,39.875,32,39.875z"/>
	</g>
	<g>
		<path class="st1" d="M10.005,55c-3.032,0-5.5-2.467-5.5-5.5s2.468-5.5,5.5-5.5s5.5,2.467,5.5,5.5S13.037,55,10.005,55z M10.005,45
			c-2.481,0-4.5,2.019-4.5,4.5s2.019,4.5,4.5,4.5s4.5-2.019,4.5-4.5S12.486,45,10.005,45z"/>
	</g>
	<g>
		<path class="st2" d="M13.472,46.609l0.373-0.31c-0.917-1.099-2.296-1.799-3.84-1.799c-2.761,0-5,2.239-5,5h0.472
			C8.398,49.5,11.226,48.477,13.472,46.609z"/>
		<path class="st1" d="M5.477,50H5.005c-0.276,0-0.5-0.224-0.5-0.5c0-3.033,2.468-5.5,5.5-5.5c1.634,0,3.173,0.721,4.224,1.978
			c0.085,0.102,0.126,0.234,0.114,0.366s-0.076,0.254-0.179,0.339l-0.373,0.31C11.461,48.932,8.509,50,5.477,50z M10.005,45
			c-2.312,0-4.223,1.753-4.473,4c2.765-0.013,5.455-0.987,7.586-2.748C12.283,45.451,11.174,45,10.005,45z"/>
	</g>
	<g>
		<path class="st1" d="M10,59.968c-0.181,0-0.348-0.098-0.437-0.255L7.06,55.25c-0.041-0.075-0.063-0.159-0.063-0.244l-0.001-1.204
			c0-0.179,0.096-0.345,0.251-0.434c0.156-0.089,0.348-0.088,0.502,0.002c1.423,0.833,3.066,0.838,4.496,0.009
			c0.155-0.089,0.345-0.091,0.5,0c0.155,0.089,0.251,0.254,0.251,0.433l0.001,1.184c0,0.085-0.021,0.169-0.063,0.244l-2.496,4.473
			C10.349,59.87,10.182,59.968,10,59.968C10,59.968,10,59.968,10,59.968z M7.996,54.874l2.003,3.57l1.997-3.579v-0.254
			c-1.29,0.52-2.716,0.516-4-0.006V54.874z"/>
	</g>
	<g>
		<path class="st1" d="M18.005,63.5c-0.276,0-0.5-0.224-0.5-0.5v-3.89c0-0.782-0.46-1.497-1.173-1.821l-4.043-1.838
			c-0.251-0.114-0.362-0.411-0.248-0.662c0.114-0.251,0.411-0.363,0.662-0.248l4.043,1.838c1.068,0.486,1.759,1.558,1.759,2.731V63
			C18.505,63.276,18.281,63.5,18.005,63.5z"/>
	</g>
	<g>
		<path class="st1" d="M2,63.5c-0.276,0-0.5-0.224-0.5-0.5v-3.889c0-1.174,0.691-2.247,1.761-2.732l4.028-1.829
			c0.252-0.115,0.547-0.003,0.662,0.249c0.114,0.251,0.003,0.548-0.248,0.662l-4.029,1.83C2.961,57.613,2.5,58.328,2.5,59.111V63
			C2.5,63.276,2.276,63.5,2,63.5z"/>
	</g>
	<g>
		<path class="st1" d="M10,63.468c-0.276,0-0.5-0.224-0.5-0.5v-3.5c0-0.276,0.224-0.5,0.5-0.5s0.5,0.224,0.5,0.5v3.5
			C10.5,63.244,10.276,63.468,10,63.468z"/>
	</g>
	<g>
		<path class="st1" d="M54,55c-3.032,0-5.5-2.467-5.5-5.5S50.968,44,54,44s5.5,2.467,5.5,5.5S57.032,55,54,55z M54,45
			c-2.481,0-4.5,2.019-4.5,4.5S51.519,54,54,54s4.5-2.019,4.5-4.5S56.481,45,54,45z"/>
	</g>
	<g>
		<path class="st2" d="M57.467,46.609l0.373-0.31C56.922,45.2,55.543,44.5,54,44.5c-2.761,0-5,2.239-5,5h0.472
			C52.393,49.5,55.222,48.477,57.467,46.609z"/>
		<path class="st1" d="M49.472,50H49c-0.276,0-0.5-0.224-0.5-0.5c0-3.033,2.468-5.5,5.5-5.5c1.634,0,3.173,0.721,4.224,1.978
			c0.085,0.102,0.126,0.234,0.114,0.366s-0.076,0.254-0.179,0.339l-0.373,0.31C55.456,48.932,52.504,50,49.472,50z M54,45
			c-2.312,0-4.223,1.753-4.473,4c2.765-0.013,5.455-0.987,7.586-2.748C56.278,45.451,55.169,45,54,45z"/>
	</g>
	<g>
		<path class="st1" d="M53.995,59.968c-0.181,0-0.348-0.098-0.437-0.255l-2.504-4.463c-0.041-0.075-0.063-0.159-0.063-0.244
			l-0.001-1.204c0-0.179,0.096-0.345,0.251-0.434c0.155-0.089,0.347-0.088,0.502,0.002c1.422,0.833,3.066,0.838,4.496,0.009
			c0.155-0.089,0.346-0.091,0.5,0c0.155,0.089,0.251,0.254,0.251,0.433l0.001,1.184c0,0.085-0.021,0.169-0.063,0.244l-2.496,4.473
			C54.344,59.87,54.177,59.968,53.995,59.968C53.995,59.968,53.995,59.968,53.995,59.968z M51.991,54.874l2.003,3.57l1.997-3.579
			v-0.254c-1.29,0.52-2.716,0.516-4-0.006V54.874z"/>
	</g>
	<g>
		<path class="st1" d="M62,63.5c-0.276,0-0.5-0.224-0.5-0.5v-3.89c0-0.782-0.46-1.497-1.173-1.821l-4.043-1.838
			c-0.251-0.114-0.362-0.411-0.248-0.662c0.115-0.251,0.412-0.363,0.662-0.248l4.043,1.838c1.068,0.486,1.759,1.558,1.759,2.731V63
			C62.5,63.276,62.276,63.5,62,63.5z"/>
	</g>
	<g>
		<path class="st1" d="M45.995,63.5c-0.276,0-0.5-0.224-0.5-0.5v-3.889c0-1.174,0.691-2.247,1.761-2.732l4.028-1.829
			c0.252-0.115,0.548-0.003,0.662,0.249s0.003,0.548-0.248,0.662l-4.029,1.83c-0.713,0.324-1.174,1.039-1.174,1.821V63
			C46.495,63.276,46.271,63.5,45.995,63.5z"/>
	</g>
	<g>
		<path class="st1" d="M53.995,63.468c-0.276,0-0.5-0.224-0.5-0.5v-3.5c0-0.276,0.224-0.5,0.5-0.5s0.5,0.224,0.5,0.5v3.5
			C54.495,63.244,54.271,63.468,53.995,63.468z"/>
	</g>
	<g>
		<path class="st1" d="M10.005,11.5c-3.032,0-5.5-2.467-5.5-5.5s2.468-5.5,5.5-5.5s5.5,2.467,5.5,5.5S13.037,11.5,10.005,11.5z
			 M10.005,1.5c-2.481,0-4.5,2.019-4.5,4.5s2.019,4.5,4.5,4.5s4.5-2.019,4.5-4.5S12.486,1.5,10.005,1.5z"/>
	</g>
	<g>
		<path class="st2" d="M13.472,3.109l0.373-0.31C12.927,1.7,11.548,1,10.005,1c-2.761,0-5,2.239-5,5h0.472
			C8.398,6,11.226,4.977,13.472,3.109z"/>
		<path class="st1" d="M5.477,6.5H5.005c-0.276,0-0.5-0.224-0.5-0.5c0-3.033,2.468-5.5,5.5-5.5c1.634,0,3.173,0.721,4.224,1.978
			c0.085,0.102,0.126,0.234,0.114,0.366s-0.076,0.254-0.179,0.339l-0.373,0.31C11.461,5.432,8.509,6.5,5.477,6.5z M10.005,1.5
			c-2.312,0-4.223,1.753-4.473,4c2.765-0.013,5.455-0.987,7.586-2.748C12.283,1.951,11.174,1.5,10.005,1.5z"/>
	</g>
	<g>
		<path class="st1" d="M10,16.468c-0.181,0-0.348-0.098-0.437-0.255L7.06,11.75c-0.041-0.075-0.063-0.159-0.063-0.244l-0.001-1.204
			c0-0.179,0.096-0.345,0.251-0.434C7.402,9.779,7.594,9.78,7.748,9.87c1.423,0.833,3.066,0.837,4.496,0.009
			c0.155-0.089,0.345-0.091,0.5,0c0.155,0.089,0.251,0.254,0.251,0.433l0.001,1.184c0,0.085-0.021,0.169-0.063,0.244l-2.496,4.473
			C10.349,16.37,10.182,16.468,10,16.468C10,16.468,10,16.468,10,16.468z M7.996,11.374l2.003,3.57l1.997-3.579v-0.254
			c-1.29,0.52-2.716,0.516-4-0.006V11.374z"/>
	</g>
	<g>
		<path class="st1" d="M18.005,20c-0.276,0-0.5-0.224-0.5-0.5v-3.89c0-0.782-0.46-1.497-1.173-1.821l-4.043-1.838
			c-0.251-0.114-0.362-0.411-0.248-0.662c0.114-0.251,0.411-0.361,0.662-0.248l4.043,1.838c1.068,0.486,1.759,1.558,1.759,2.731
			v3.89C18.505,19.776,18.281,20,18.005,20z"/>
	</g>
	<g>
		<path class="st1" d="M2,20c-0.276,0-0.5-0.224-0.5-0.5v-3.889c0-1.174,0.691-2.247,1.761-2.732l4.028-1.829
			c0.252-0.113,0.547-0.003,0.662,0.249c0.114,0.251,0.003,0.548-0.248,0.662l-4.029,1.83C2.961,14.113,2.5,14.828,2.5,15.611V19.5
			C2.5,19.776,2.276,20,2,20z"/>
	</g>
	<g>
		<path class="st1" d="M10,19.968c-0.276,0-0.5-0.224-0.5-0.5v-3.5c0-0.276,0.224-0.5,0.5-0.5s0.5,0.224,0.5,0.5v3.5
			C10.5,19.744,10.276,19.968,10,19.968z"/>
	</g>
	<g>
		<path class="st1" d="M54,11.5c-3.032,0-5.5-2.467-5.5-5.5s2.468-5.5,5.5-5.5s5.5,2.467,5.5,5.5S57.032,11.5,54,11.5z M54,1.5
			c-2.481,0-4.5,2.019-4.5,4.5s2.019,4.5,4.5,4.5s4.5-2.019,4.5-4.5S56.481,1.5,54,1.5z"/>
	</g>
	<g>
		<path class="st2" d="M57.467,3.109l0.373-0.31C56.922,1.7,55.543,1,54,1c-2.761,0-5,2.239-5,5h0.472
			C52.393,6,55.222,4.977,57.467,3.109z"/>
		<path class="st1" d="M49.472,6.5H49c-0.276,0-0.5-0.224-0.5-0.5c0-3.033,2.468-5.5,5.5-5.5c1.634,0,3.173,0.721,4.224,1.978
			c0.085,0.102,0.126,0.234,0.114,0.366s-0.076,0.254-0.179,0.339l-0.373,0.31C55.456,5.432,52.504,6.5,49.472,6.5z M54,1.5
			c-2.312,0-4.223,1.753-4.473,4c2.765-0.013,5.455-0.987,7.586-2.748C56.278,1.951,55.169,1.5,54,1.5z"/>
	</g>
	<g>
		<path class="st1" d="M53.995,16.468c-0.181,0-0.348-0.098-0.437-0.255l-2.504-4.463c-0.041-0.075-0.063-0.159-0.063-0.244
			l-0.001-1.204c0-0.179,0.096-0.345,0.251-0.434c0.155-0.089,0.347-0.088,0.502,0.002c1.422,0.833,3.066,0.837,4.496,0.009
			c0.155-0.089,0.346-0.091,0.5,0c0.155,0.089,0.251,0.254,0.251,0.433l0.001,1.184c0,0.085-0.021,0.169-0.063,0.244l-2.496,4.473
			C54.344,16.37,54.177,16.468,53.995,16.468C53.995,16.468,53.995,16.468,53.995,16.468z M51.991,11.374l2.003,3.57l1.997-3.579
			v-0.254c-1.29,0.52-2.716,0.516-4-0.006V11.374z"/>
	</g>
	<g>
		<path class="st1" d="M62,20c-0.276,0-0.5-0.224-0.5-0.5v-3.89c0-0.782-0.46-1.497-1.173-1.821l-4.043-1.838
			c-0.251-0.114-0.362-0.411-0.248-0.662c0.115-0.251,0.412-0.361,0.662-0.248l4.043,1.838c1.068,0.486,1.759,1.558,1.759,2.731
			v3.89C62.5,19.776,62.276,20,62,20z"/>
	</g>
	<g>
		<path class="st1" d="M45.995,20c-0.276,0-0.5-0.224-0.5-0.5v-3.889c0-1.174,0.691-2.247,1.761-2.732l4.028-1.829
			c0.252-0.113,0.548-0.003,0.662,0.249c0.114,0.251,0.003,0.548-0.248,0.662l-4.029,1.83c-0.713,0.324-1.174,1.039-1.174,1.821
			V19.5C46.495,19.776,46.271,20,45.995,20z"/>
	</g>
	<g>
		<path class="st1" d="M53.995,19.968c-0.276,0-0.5-0.224-0.5-0.5v-3.5c0-0.276,0.224-0.5,0.5-0.5s0.5,0.224,0.5,0.5v3.5
			C54.495,19.744,54.271,19.968,53.995,19.968z"/>
	</g>
	<g>
		<path class="st1" d="M58.5,36h-10c-0.276,0-0.5-0.224-0.5-0.5s0.224-0.5,0.5-0.5h10c0.276,0,0.5,0.224,0.5,0.5S58.776,36,58.5,36z
			"/>
	</g>
	<g>
		<path class="st1" d="M61.5,36h-1c-0.276,0-0.5-0.224-0.5-0.5s0.224-0.5,0.5-0.5h1c0.276,0,0.5,0.224,0.5,0.5S61.776,36,61.5,36z"
			/>
	</g>
	<g>
		<path class="st1" d="M15.5,36h-10C5.224,36,5,35.776,5,35.5S5.224,35,5.5,35h10c0.276,0,0.5,0.224,0.5,0.5S15.776,36,15.5,36z"/>
	</g>
	<g>
		<path class="st1" d="M3.5,36h-1C2.224,36,2,35.776,2,35.5S2.224,35,2.5,35h1C3.776,35,4,35.224,4,35.5S3.776,36,3.5,36z"/>
	</g>
</g>
</svg>
