<?xml version="1.0" encoding="utf-8"?>
<!-- Generator: Adobe Illustrator 22.0.0, SVG Export Plug-In . SVG Version: 6.00 Build 0)  -->
<svg version="1.1" id="Icon_Set" xmlns="http://www.w3.org/2000/svg" xmlns:xlink="http://www.w3.org/1999/xlink" x="0px" y="0px"
	 viewBox="0 0 64 64" style="enable-background:new 0 0 64 64;" xml:space="preserve">
<style type="text/css">
	.st0{fill:#40C4FF;}
	.st1{fill:#263238;}
	.st2{fill:#FFD740;}
	.st3{fill:#FF5252;}
	.st4{fill:#4DB6AC;}
	.st5{fill:#FFFFFF;}
	.st6{fill:#4FC3F7;}
	.st7{fill:#37474F;}
</style>
<g>
	<g>
		<path class="st1" d="M23.132,55.429c-0.128,0-0.256-0.049-0.354-0.146c-0.195-0.195-0.195-0.512,0-0.707l3.217-3.217
			c0.49-0.49,1.061-0.878,1.697-1.155l6.275-2.727c1.626-0.707,3.02-1.852,4.028-3.311l9.093-13.152
			c0.156-0.228,0.468-0.284,0.695-0.127c0.228,0.157,0.284,0.468,0.127,0.695l-9.093,13.152c-1.115,1.612-2.654,2.877-4.452,3.659
			l-6.275,2.727c-0.521,0.227-0.988,0.545-1.389,0.945l-3.217,3.217C23.388,55.38,23.26,55.429,23.132,55.429z"/>
	</g>
	<g>
		<path class="st1" d="M31.475,40.603c-0.696,0-1.387-0.132-2.041-0.394l-1.697-0.679c-1.364-0.546-2.434-1.59-3.013-2.94
			l-2.184-5.096c-0.109-0.253,0.009-0.547,0.263-0.656c0.25-0.111,0.547,0.008,0.656,0.263l2.184,5.096
			c0.474,1.104,1.349,1.959,2.465,2.405l1.697,0.679c0.812,0.326,1.696,0.407,2.554,0.235l1.777-0.356
			c1.024-0.205,1.952-0.764,2.61-1.575l5.365-6.603c0.175-0.213,0.49-0.247,0.704-0.073c0.214,0.174,0.247,0.489,0.073,0.704
			l-5.365,6.603c-0.806,0.991-1.938,1.674-3.19,1.924l-1.777,0.356C32.197,40.568,31.835,40.603,31.475,40.603z"/>
	</g>
	<g>
		<path class="st1" d="M15,47.297c-0.128,0-0.256-0.049-0.354-0.146c-0.195-0.195-0.195-0.512,0-0.707l2.502-2.502
			c1.481-1.481,2.217-3.527,2.019-5.613l-0.665-6.983c-0.026-0.275,0.175-0.519,0.45-0.545c0.278-0.038,0.519,0.175,0.545,0.45
			l0.665,6.983c0.227,2.384-0.614,4.722-2.307,6.415l-2.502,2.502C15.256,47.249,15.128,47.297,15,47.297z"/>
	</g>
	<g>
		<path class="st0" d="M7.222,52.454l10.253,10.253c0.391,0.391,1.024,0.391,1.414,0l3.889-3.889c0.391-0.391,0.391-1.024,0-1.414
			L12.525,47.151c-0.391-0.391-1.024-0.391-1.414,0L7.222,51.04C6.831,51.43,6.831,52.063,7.222,52.454z"/>
		<path class="st1" d="M18.182,63.5c-0.401,0-0.778-0.156-1.061-0.439L6.868,52.808c0,0,0,0,0,0c-0.584-0.585-0.584-1.537,0-2.122
			l3.89-3.889c0.567-0.566,1.555-0.566,2.122,0L23.132,57.05c0.584,0.585,0.584,1.536,0,2.121l-3.89,3.889
			C18.959,63.344,18.583,63.5,18.182,63.5z M7.575,52.101l10.253,10.253c0.189,0.189,0.518,0.189,0.707,0l3.889-3.889
			c0.194-0.195,0.194-0.512,0-0.707L12.171,47.504c-0.188-0.188-0.517-0.188-0.707,0l-3.889,3.889
			C7.38,51.588,7.38,51.906,7.575,52.101L7.575,52.101z"/>
	</g>
	<g>
		<path class="st1" d="M56.5,29.797h-49c-0.827,0-1.5-0.673-1.5-1.5v-2c0-0.827,0.673-1.5,1.5-1.5h49c0.827,0,1.5,0.673,1.5,1.5v2
			C58,29.125,57.327,29.797,56.5,29.797z M7.5,25.797c-0.276,0-0.5,0.224-0.5,0.5v2c0,0.276,0.224,0.5,0.5,0.5h49
			c0.276,0,0.5-0.224,0.5-0.5v-2c0-0.276-0.224-0.5-0.5-0.5H7.5z"/>
	</g>
	<g>
		<path class="st1" d="M32.135,38.4c-0.111,0-0.222-0.037-0.315-0.112c-0.214-0.174-0.247-0.489-0.073-0.704l5.365-6.603
			c0.175-0.213,0.489-0.247,0.704-0.073c0.214,0.174,0.247,0.489,0.073,0.704l-5.365,6.603C32.424,38.337,32.28,38.4,32.135,38.4z"
			/>
	</g>
	<g>
		<polyline class="st2" points="45.5,23.297 45.5,9.412 39.5,13.912 32,4.912 24.5,13.912 18.5,9.412 18.5,23.297 		"/>
		<path class="st1" d="M45.5,23.797c-0.276,0-0.5-0.224-0.5-0.5V10.412l-5.2,3.9c-0.212,0.161-0.514,0.125-0.684-0.08L32,5.693
			l-7.116,8.539c-0.171,0.204-0.473,0.239-0.684,0.08l-5.2-3.9v12.885c0,0.276-0.224,0.5-0.5,0.5s-0.5-0.224-0.5-0.5V9.412
			c0-0.189,0.107-0.362,0.276-0.447c0.168-0.085,0.372-0.067,0.523,0.047l5.62,4.215l7.196-8.635c0.19-0.228,0.578-0.228,0.769,0
			l7.196,8.635l5.62-4.215c0.151-0.113,0.355-0.131,0.523-0.047C45.893,9.05,46,9.223,46,9.412v13.885
			C46,23.574,45.776,23.797,45.5,23.797z"/>
	</g>
	<g>
		<path class="st1" d="M45.5,20.797h-27c-0.276,0-0.5-0.224-0.5-0.5s0.224-0.5,0.5-0.5h27c0.276,0,0.5,0.224,0.5,0.5
			S45.776,20.797,45.5,20.797z"/>
	</g>
	<g>
		<circle class="st3" cx="32" cy="13.412" r="2.5"/>
		<path class="st1" d="M32,16.412c-1.654,0-3-1.346-3-3s1.346-3,3-3s3,1.346,3,3S33.654,16.412,32,16.412z M32,11.412
			c-1.103,0-2,0.897-2,2s0.897,2,2,2s2-0.897,2-2S33.103,11.412,32,11.412z"/>
	</g>
	<g>
		<path class="st1" d="M50.5,9.5c-0.215,0-0.406-0.138-0.474-0.342L49.473,7.5C49.242,6.809,48.691,6.258,48,6.027l-1.658-0.553
			C46.138,5.406,46,5.215,46,5s0.138-0.406,0.342-0.474L48,3.973c0.691-0.231,1.242-0.782,1.473-1.473l0.553-1.658
			c0.136-0.408,0.812-0.408,0.948,0L51.527,2.5C51.758,3.191,52.309,3.742,53,3.973l1.658,0.553C54.862,4.594,55,4.785,55,5
			s-0.138,0.406-0.342,0.474L53,6.027c-0.691,0.231-1.242,0.782-1.473,1.473l-0.553,1.658C50.906,9.362,50.715,9.5,50.5,9.5z
			 M48.081,5l0.235,0.079c0.988,0.33,1.775,1.117,2.105,2.105L50.5,7.419l0.079-0.235c0.33-0.988,1.117-1.775,2.105-2.105L52.919,5
			l-0.235-0.079c-0.988-0.33-1.775-1.117-2.105-2.105L50.5,2.581l-0.079,0.235c-0.33,0.988-1.117,1.775-2.105,2.105L48.081,5z"/>
	</g>
	<g>
		<path class="st1" d="M52.5,52.5h-1c-0.276,0-0.5-0.224-0.5-0.5s0.224-0.5,0.5-0.5h1c0.276,0,0.5,0.224,0.5,0.5
			S52.776,52.5,52.5,52.5z"/>
	</g>
	<g>
		<path class="st1" d="M49.5,52.5h-11c-0.276,0-0.5-0.224-0.5-0.5s0.224-0.5,0.5-0.5h11c0.276,0,0.5,0.224,0.5,0.5
			S49.776,52.5,49.5,52.5z"/>
	</g>
	<g>
		<path class="st1" d="M47.5,55.5h-13c-0.276,0-0.5-0.224-0.5-0.5s0.224-0.5,0.5-0.5h13c0.276,0,0.5,0.224,0.5,0.5
			S47.776,55.5,47.5,55.5z"/>
	</g>
</g>
</svg>
