<?xml version="1.0" encoding="utf-8"?>
<!-- Generator: Adobe Illustrator 22.0.0, SVG Export Plug-In . SVG Version: 6.00 Build 0)  -->
<svg version="1.1" id="Icon_Set" xmlns="http://www.w3.org/2000/svg" xmlns:xlink="http://www.w3.org/1999/xlink" x="0px" y="0px"
	 viewBox="0 0 64 64" style="enable-background:new 0 0 64 64;" xml:space="preserve">
<style type="text/css">
	.st0{fill:#40C4FF;}
	.st1{fill:#263238;}
	.st2{fill:#FFD740;}
	.st3{fill:#FF5252;}
	.st4{fill:#4DB6AC;}
	.st5{fill:#FFFFFF;}
	.st6{fill:#4FC3F7;}
	.st7{fill:#37474F;}
</style>
<g>
	<g>
		<path class="st1" d="M17.003,55.5c-3.033,0-5.5-2.468-5.5-5.5s2.467-5.5,5.5-5.5s5.5,2.468,5.5,5.5S20.036,55.5,17.003,55.5z
			 M17.003,45.5c-2.481,0-4.5,2.019-4.5,4.5s2.019,4.5,4.5,4.5s4.5-2.019,4.5-4.5S19.484,45.5,17.003,45.5z"/>
	</g>
	<g>
		<path class="st1" d="M9,63.5c-0.276,0-0.5-0.224-0.5-0.5v-3.39c0-1.175,0.691-2.247,1.76-2.731l3.733-1.696l0-0.857
			c0-0.275,0.224-0.5,0.5-0.5h0c0.276,0,0.5,0.224,0.5,0.5l0.001,1.18c0,0.196-0.115,0.374-0.293,0.455l-4.027,1.829
			C9.961,58.112,9.5,58.827,9.5,59.61V63C9.5,63.276,9.277,63.5,9,63.5z"/>
	</g>
	<g>
		<path class="st1" d="M25,63.5c-0.276,0-0.5-0.224-0.5-0.5v-3.392c0-0.781-0.46-1.496-1.172-1.82l-4.042-1.838
			c-0.178-0.081-0.293-0.259-0.293-0.455v-1.159c0-0.276,0.224-0.5,0.5-0.5c0.276,0,0.5,0.224,0.5,0.5l0,0.837l3.748,1.705
			c1.068,0.486,1.758,1.558,1.758,2.73V63C25.5,63.276,25.276,63.5,25,63.5z"/>
	</g>
	<g>
		<path class="st1" d="M33.002,55.5c-3.033,0-5.5-2.468-5.5-5.5s2.467-5.5,5.5-5.5s5.5,2.468,5.5,5.5S36.035,55.5,33.002,55.5z
			 M33.002,45.5c-2.481,0-4.5,2.019-4.5,4.5s2.019,4.5,4.5,4.5s4.5-2.019,4.5-4.5S35.484,45.5,33.002,45.5z"/>
	</g>
	<g>
		<path class="st1" d="M25,63.5c-0.276,0-0.5-0.224-0.5-0.5v-3.39c0-1.174,0.691-2.246,1.76-2.731l3.734-1.696l0-0.857
			c0-0.275,0.224-0.5,0.5-0.5h0c0.276,0,0.5,0.224,0.5,0.5l0.001,1.18c0,0.196-0.115,0.374-0.293,0.455l-4.028,1.829
			C25.96,58.113,25.5,58.827,25.5,59.61V63C25.5,63.276,25.276,63.5,25,63.5z"/>
	</g>
	<g>
		<path class="st1" d="M41,63.5c-0.276,0-0.5-0.224-0.5-0.5v-3.392c0-0.781-0.46-1.496-1.172-1.82l-4.041-1.838
			c-0.178-0.081-0.293-0.259-0.293-0.455l0-1.159c0-0.276,0.224-0.5,0.5-0.5c0,0,0,0,0,0c0.276,0,0.5,0.224,0.5,0.5l0,0.837
			l3.748,1.705c1.068,0.486,1.758,1.558,1.758,2.73V63C41.5,63.276,41.276,63.5,41,63.5z"/>
	</g>
	<g>
		<path class="st1" d="M49.002,55.5c-3.033,0-5.5-2.468-5.5-5.5s2.467-5.5,5.5-5.5s5.5,2.468,5.5,5.5S52.035,55.5,49.002,55.5z
			 M49.002,45.5c-2.481,0-4.5,2.019-4.5,4.5s2.019,4.5,4.5,4.5s4.5-2.019,4.5-4.5S51.484,45.5,49.002,45.5z"/>
	</g>
	<g>
		<path class="st1" d="M41,63.5c-0.276,0-0.5-0.224-0.5-0.5v-3.39c0-1.175,0.691-2.247,1.76-2.731l3.734-1.696l0-0.857
			c0-0.276,0.224-0.5,0.5-0.5l0,0c0.276,0,0.5,0.224,0.5,0.5l0,1.18c0,0.196-0.115,0.374-0.293,0.455l-4.027,1.829
			C41.96,58.112,41.5,58.827,41.5,59.61V63C41.5,63.276,41.276,63.5,41,63.5z"/>
	</g>
	<g>
		<path class="st1" d="M57,63.5c-0.276,0-0.5-0.224-0.5-0.5v-3.392c0-0.781-0.46-1.496-1.172-1.82l-4.041-1.838
			c-0.178-0.081-0.293-0.259-0.293-0.455l0-1.159c0-0.276,0.224-0.5,0.5-0.5l0,0c0.276,0,0.5,0.224,0.5,0.5l0,0.837l3.748,1.705
			c1.068,0.486,1.758,1.559,1.758,2.73V63C57.5,63.276,57.276,63.5,57,63.5z"/>
	</g>
	<g>
		<path class="st3" d="M39.005,1h-15c-1.381,0-2.5,1.119-2.5,2.5V11c0,1.381,1.119,2.5,2.5,2.5h2.5v2.865
			c0,0.848,0.989,1.311,1.64,0.768l4.36-3.633h6.5c1.381,0,2.5-1.119,2.5-2.5V3.5C41.505,2.119,40.386,1,39.005,1z"/>
		<path class="st1" d="M27.509,17.867c-0.216,0-0.434-0.048-0.64-0.144c-0.533-0.25-0.864-0.771-0.864-1.358V14h-2
			c-1.654,0-3-1.346-3-3V3.5c0-1.654,1.346-3,3-3h15c1.654,0,3,1.346,3,3V11c0,1.654-1.346,3-3,3h-6.319l-4.22,3.517
			C28.188,17.748,27.851,17.867,27.509,17.867z M24.005,1.5c-1.103,0-2,0.897-2,2V11c0,1.103,0.897,2,2,2h2.5
			c0.276,0,0.5,0.224,0.5,0.5v2.865c0,0.295,0.22,0.421,0.288,0.452c0.069,0.032,0.306,0.12,0.533-0.068l4.359-3.633
			c0.09-0.075,0.203-0.116,0.32-0.116h6.5c1.103,0,2-0.897,2-2V3.5c0-1.103-0.897-2-2-2H24.005z"/>
	</g>
	<g>
		<path class="st1" d="M26.407,8.75c-0.827,0-1.5-0.673-1.5-1.5s0.673-1.5,1.5-1.5s1.5,0.673,1.5,1.5S27.234,8.75,26.407,8.75z
			 M26.407,6.75c-0.276,0-0.5,0.225-0.5,0.5s0.224,0.5,0.5,0.5s0.5-0.225,0.5-0.5S26.683,6.75,26.407,6.75z"/>
	</g>
	<g>
		<path class="st1" d="M31.407,8.75c-0.827,0-1.5-0.673-1.5-1.5s0.673-1.5,1.5-1.5s1.5,0.673,1.5,1.5S32.234,8.75,31.407,8.75z
			 M31.407,6.75c-0.276,0-0.5,0.225-0.5,0.5s0.224,0.5,0.5,0.5s0.5-0.225,0.5-0.5S31.683,6.75,31.407,6.75z"/>
	</g>
	<g>
		<path class="st1" d="M36.407,8.75c-0.827,0-1.5-0.673-1.5-1.5s0.673-1.5,1.5-1.5s1.5,0.673,1.5,1.5S37.234,8.75,36.407,8.75z
			 M36.407,6.75c-0.276,0-0.5,0.225-0.5,0.5s0.224,0.5,0.5,0.5s0.5-0.225,0.5-0.5S36.683,6.75,36.407,6.75z"/>
	</g>
	<g>
		<path class="st1" d="M59.5,41.966h-18c-0.827,0-1.5-0.673-1.5-1.5v-22c0-0.827,0.673-1.5,1.5-1.5h18c0.827,0,1.5,0.673,1.5,1.5v22
			C61,41.293,60.327,41.966,59.5,41.966z M41.5,17.966c-0.276,0-0.5,0.225-0.5,0.5v22c0,0.275,0.224,0.5,0.5,0.5h18
			c0.276,0,0.5-0.225,0.5-0.5v-22c0-0.275-0.224-0.5-0.5-0.5H41.5z"/>
	</g>
	<g>
		<path class="st1" d="M52.5,35.966h-9c-0.276,0-0.5-0.224-0.5-0.5s0.224-0.5,0.5-0.5h9c0.276,0,0.5,0.224,0.5,0.5
			S52.776,35.966,52.5,35.966z"/>
	</g>
	<g>
		<path class="st1" d="M50.5,38.466h-7c-0.276,0-0.5-0.224-0.5-0.5s0.224-0.5,0.5-0.5h7c0.276,0,0.5,0.224,0.5,0.5
			S50.776,38.466,50.5,38.466z"/>
	</g>
	<g>
		<path class="st1" d="M50.5,33.466h-7c-0.276,0-0.5-0.224-0.5-0.5s0.224-0.5,0.5-0.5h7c0.276,0,0.5,0.224,0.5,0.5
			S50.776,33.466,50.5,33.466z"/>
	</g>
	<g>
		<path class="st1" d="M15.505,25.5c-3.584,0-6.5-2.916-6.5-6.5s2.916-6.5,6.5-6.5s6.5,2.916,6.5,6.5S19.089,25.5,15.505,25.5z
			 M15.505,13.5c-3.033,0-5.5,2.468-5.5,5.5s2.467,5.5,5.5,5.5s5.5-2.468,5.5-5.5S18.538,13.5,15.505,13.5z"/>
	</g>
	<g>
		<path class="st2" d="M19.665,15.531l0.447-0.372C19.012,13.84,17.357,13,15.505,13c-3.314,0-6,2.686-6,6h0.566
			C13.577,19,16.971,17.772,19.665,15.531z"/>
		<path class="st1" d="M10.071,19.5H9.505c-0.276,0-0.5-0.224-0.5-0.5c0-3.584,2.916-6.5,6.5-6.5c1.932,0,3.751,0.853,4.991,2.338
			c0.085,0.102,0.126,0.233,0.114,0.365c-0.012,0.133-0.076,0.254-0.178,0.339l-0.447,0.372v0.001
			C17.207,18.227,13.686,19.5,10.071,19.5z M10.027,18.5h0.044c3.382,0,6.675-1.191,9.274-3.354l0.044-0.037
			c-1.028-1.027-2.418-1.608-3.885-1.608C12.641,13.5,10.281,15.7,10.027,18.5z M19.666,15.53h0.01H19.666z"/>
	</g>
	<g>
		<path class="st1" d="M5.5,42C5.224,42,5,41.776,5,41.5v-8.908c0-2.098,1.166-3.983,3.042-4.921l4.23-2.113
			c0.247-0.124,0.548-0.022,0.671,0.224c0.124,0.247,0.023,0.548-0.224,0.671l-4.23,2.113C6.954,29.332,6,30.875,6,32.592V41.5
			C6,41.776,5.777,42,5.5,42z"/>
	</g>
	<g>
		<path class="st1" d="M9.505,42c-0.276,0-0.5-0.224-0.5-0.5V35c0-0.276,0.224-0.5,0.5-0.5s0.5,0.224,0.5,0.5v6.5
			C10.005,41.776,9.781,42,9.505,42z"/>
	</g>
	<g>
		<path class="st1" d="M15.5,30.968c-0.167,0-0.322-0.083-0.415-0.221l-3.004-4.463c-0.056-0.082-0.085-0.18-0.085-0.279
			l-0.001-1.82c0-0.179,0.095-0.344,0.25-0.434c0.155-0.088,0.347-0.089,0.501,0.002c1.675,0.975,3.824,0.978,5.499,0.011
			c0.154-0.09,0.345-0.089,0.5-0.001c0.154,0.09,0.25,0.255,0.25,0.434l0.001,1.799c0,0.099-0.029,0.196-0.084,0.278l-2.996,4.473
			C15.823,30.885,15.667,30.968,15.5,30.968L15.5,30.968z M12.997,25.853l2.503,3.719l2.497-3.728L17.996,25
			c-1.583,0.66-3.418,0.657-5-0.008L12.997,25.853z"/>
	</g>
	<g>
		<path class="st1" d="M15.5,34.968c-0.276,0-0.5-0.224-0.5-0.5v-4c0-0.276,0.224-0.5,0.5-0.5s0.5,0.224,0.5,0.5v4
			C16,34.744,15.777,34.968,15.5,34.968z"/>
	</g>
	<g>
		<path class="st1" d="M21.505,42L21.505,42c-0.276,0-0.5-0.224-0.5-0.5l0.002-9.331c0-0.202,0.122-0.385,0.309-0.462
			c0.188-0.075,0.402-0.034,0.545,0.108l5.816,5.815c0.566,0.566,1.554,0.566,2.121,0l5.303-5.303l-2.121-2.121l-3.889,3.889
			c-0.195,0.195-0.512,0.195-0.707,0L24.5,30.212c-0.671-0.671-1.437-1.236-2.276-1.68l-3.961-2.095
			c-0.244-0.13-0.337-0.432-0.208-0.676c0.129-0.244,0.43-0.338,0.676-0.209l3.961,2.095c0.927,0.491,1.774,1.116,2.515,1.857
			l3.531,3.53l3.889-3.889c0.195-0.195,0.512-0.195,0.707,0l2.828,2.828c0.094,0.094,0.146,0.221,0.146,0.354
			s-0.053,0.26-0.146,0.354l-5.657,5.656c-0.944,0.945-2.591,0.945-3.535,0l-4.963-4.962L22.005,41.5
			C22.005,41.776,21.781,42,21.505,42z"/>
	</g>
	<g>
		<path class="st1" d="M37.222,31.414c-0.128,0-0.256-0.049-0.354-0.146c-0.195-0.195-0.195-0.512,0-0.707
			c0.584-0.585,0.584-1.537,0-2.122c-0.585-0.584-1.537-0.584-2.122,0c-0.195,0.195-0.512,0.195-0.708,0
			c-0.195-0.195-0.195-0.512,0-0.707c0.974-0.975,2.561-0.975,3.536,0c0.975,0.975,0.975,2.562,0,3.536
			C37.478,31.365,37.35,31.414,37.222,31.414z"/>
	</g>
	<g>
		<circle class="st0" cx="48" cy="24.965" r="4"/>
		<path class="st1" d="M48,29.466c-2.481,0-4.5-2.019-4.5-4.5s2.019-4.5,4.5-4.5s4.5,2.019,4.5,4.5S50.481,29.466,48,29.466z
			 M48,21.466c-1.93,0-3.5,1.57-3.5,3.5s1.57,3.5,3.5,3.5s3.5-1.57,3.5-3.5S49.93,21.466,48,21.466z"/>
	</g>
	<g>
		<circle class="st0" cx="53" cy="24.965" r="4"/>
		<path class="st1" d="M53,29.466c-2.481,0-4.5-2.019-4.5-4.5s2.019-4.5,4.5-4.5s4.5,2.019,4.5,4.5S55.481,29.466,53,29.466z
			 M53,21.466c-1.93,0-3.5,1.57-3.5,3.5s1.57,3.5,3.5,3.5s3.5-1.57,3.5-3.5S54.93,21.466,53,21.466z"/>
	</g>
	<g>
		<ellipse class="st0" cx="50.5" cy="24.965" rx="1.5" ry="3.099"/>
		<path class="st1" d="M50.5,28.564c-0.111,0-0.223-0.037-0.314-0.111c-1.071-0.865-1.686-2.137-1.686-3.487
			c0-1.352,0.614-2.623,1.686-3.488c0.184-0.148,0.445-0.148,0.629,0c1.071,0.865,1.686,2.137,1.686,3.488
			c0,1.351-0.614,2.622-1.686,3.487C50.723,28.527,50.611,28.564,50.5,28.564z M50.5,22.541c-0.64,0.653-1,1.517-1,2.425
			s0.36,1.771,1,2.424c0.64-0.653,1-1.516,1-2.424S51.14,23.194,50.5,22.541z"/>
	</g>
	<g>
		<path class="st1" d="M12.5,6.934h-4c-0.276,0-0.5-0.224-0.5-0.5s0.224-0.5,0.5-0.5h4c0.276,0,0.5,0.224,0.5,0.5
			S12.776,6.934,12.5,6.934z"/>
	</g>
	<g>
		<path class="st1" d="M10.5,8.934c-0.276,0-0.5-0.224-0.5-0.5v-4c0-0.276,0.224-0.5,0.5-0.5s0.5,0.224,0.5,0.5v4
			C11,8.71,10.776,8.934,10.5,8.934z"/>
	</g>
	<g>
		<path class="st1" d="M7.5,12.434h-4c-0.276,0-0.5-0.224-0.5-0.5s0.224-0.5,0.5-0.5h4c0.276,0,0.5,0.224,0.5,0.5
			S7.776,12.434,7.5,12.434z"/>
	</g>
	<g>
		<path class="st1" d="M5.5,14.434c-0.276,0-0.5-0.224-0.5-0.5v-4c0-0.276,0.224-0.5,0.5-0.5S6,9.657,6,9.934v4
			C6,14.21,5.776,14.434,5.5,14.434z"/>
	</g>
	<g>
		<path class="st1" d="M54.5,13.966h-10c-0.276,0-0.5-0.224-0.5-0.5s0.224-0.5,0.5-0.5h10c0.276,0,0.5,0.224,0.5,0.5
			S54.776,13.966,54.5,13.966z"/>
	</g>
	<g>
		<path class="st1" d="M57.5,13.965h-1c-0.276,0-0.5-0.224-0.5-0.5s0.224-0.5,0.5-0.5h1c0.276,0,0.5,0.224,0.5,0.5
			S57.776,13.965,57.5,13.965z"/>
	</g>
</g>
</svg>
