<?xml version="1.0" encoding="utf-8"?>
<!-- Generator: Adobe Illustrator 22.0.0, SVG Export Plug-In . SVG Version: 6.00 Build 0)  -->
<svg version="1.1" id="Icon_Set" xmlns="http://www.w3.org/2000/svg" xmlns:xlink="http://www.w3.org/1999/xlink" x="0px" y="0px"
	 viewBox="0 0 64 64" style="enable-background:new 0 0 64 64;" xml:space="preserve">
<style type="text/css">
	.st0{fill:#40C4FF;}
	.st1{fill:#263238;}
	.st2{fill:#FFD740;}
	.st3{fill:#FF5252;}
	.st4{fill:#4DB6AC;}
	.st5{fill:#FFFFFF;}
	.st6{fill:#4FC3F7;}
	.st7{fill:#37474F;}
</style>
<g>
	<g>
		<path class="st1" d="M30,32.5h-8.101c-0.229,0-0.428-0.155-0.484-0.377c-0.057-0.221,0.044-0.453,0.246-0.562
			c1.135-0.618,1.84-1.791,1.84-3.061c0-1.93-1.57-3.5-3.5-3.5s-3.5,1.57-3.5,3.5c0,1.271,0.705,2.443,1.84,3.061
			c0.201,0.109,0.302,0.341,0.246,0.562c-0.056,0.222-0.256,0.377-0.484,0.377H8c-0.276,0-0.5-0.224-0.5-0.5V10.5
			c0-1.654,1.346-3,3-3H30c0.276,0,0.5,0.224,0.5,0.5S30.276,8.5,30,8.5H10.5c-1.103,0-2,0.897-2,2v21h8.165
			c-0.739-0.813-1.165-1.876-1.165-3c0-2.481,2.019-4.5,4.5-4.5s4.5,2.019,4.5,4.5c0,1.124-0.426,2.187-1.165,3H30
			c0.276,0,0.5,0.224,0.5,0.5S30.276,32.5,30,32.5z"/>
	</g>
	<g>
		<path class="st0" d="M8,34v19.5c0,1.381,1.119,2.5,2.5,2.5H32V45.899C31.322,47.145,30.018,48,28.5,48c-2.209,0-4-1.791-4-4
			s1.791-4,4-4c1.518,0,2.822,0.855,3.5,2.101V34"/>
	</g>
	<g>
		<path class="st3" d="M34,56h19.5c1.381,0,2.5-1.119,2.5-2.5V32H45.899C47.145,32.678,48,33.982,48,35.5c0,2.209-1.791,4-4,4
			s-4-1.791-4-4c0-1.518,0.855-2.822,2.101-3.5H34"/>
	</g>
	<g>
		<path class="st2" d="M56,30V10.5C56,9.119,54.881,8,53.5,8H32v10.101C32.678,16.855,33.982,16,35.5,16c2.209,0,4,1.791,4,4
			s-1.791,4-4,4c-1.518,0-2.822-0.855-3.5-2.101V30"/>
	</g>
	<g>
		<path class="st1" d="M32,56.5H10.5c-1.654,0-3-1.346-3-3V34c0-0.276,0.224-0.5,0.5-0.5s0.5,0.224,0.5,0.5v19.5
			c0,1.103,0.897,2,2,2h21v-8.165c-0.813,0.739-1.876,1.165-3,1.165c-2.481,0-4.5-2.019-4.5-4.5s2.019-4.5,4.5-4.5
			c1.124,0,2.187,0.426,3,1.165V34c0-0.276,0.224-0.5,0.5-0.5s0.5,0.224,0.5,0.5v8.101c0,0.229-0.155,0.428-0.377,0.484
			c-0.22,0.057-0.453-0.044-0.562-0.246c-0.618-1.135-1.791-1.84-3.061-1.84c-1.93,0-3.5,1.57-3.5,3.5s1.57,3.5,3.5,3.5
			c1.271,0,2.443-0.705,3.061-1.84c0.109-0.201,0.341-0.303,0.562-0.246c0.222,0.056,0.377,0.256,0.377,0.484V56
			C32.5,56.276,32.276,56.5,32,56.5z"/>
	</g>
	<g>
		<path class="st1" d="M53.5,56.5H34c-0.276,0-0.5-0.224-0.5-0.5s0.224-0.5,0.5-0.5h19.5c1.103,0,2-0.897,2-2v-21h-8.165
			c0.739,0.813,1.165,1.876,1.165,3c0,2.481-2.019,4.5-4.5,4.5s-4.5-2.019-4.5-4.5c0-1.124,0.426-2.187,1.165-3H34
			c-0.276,0-0.5-0.224-0.5-0.5s0.224-0.5,0.5-0.5h8.101c0.229,0,0.428,0.155,0.484,0.377c0.057,0.221-0.044,0.453-0.246,0.562
			c-1.135,0.618-1.84,1.791-1.84,3.061c0,1.93,1.57,3.5,3.5,3.5s3.5-1.57,3.5-3.5c0-1.271-0.705-2.443-1.84-3.061
			c-0.201-0.109-0.302-0.341-0.246-0.562c0.056-0.222,0.256-0.377,0.484-0.377H56c0.276,0,0.5,0.224,0.5,0.5v21.5
			C56.5,55.154,55.154,56.5,53.5,56.5z"/>
	</g>
	<g>
		<path class="st1" d="M56,30.5c-0.276,0-0.5-0.224-0.5-0.5V10.5c0-1.103-0.897-2-2-2h-21v8.165c0.813-0.739,1.876-1.165,3-1.165
			c2.481,0,4.5,2.019,4.5,4.5s-2.019,4.5-4.5,4.5c-1.124,0-2.187-0.426-3-1.165V30c0,0.276-0.224,0.5-0.5,0.5s-0.5-0.224-0.5-0.5
			v-8.101c0-0.229,0.155-0.428,0.377-0.484c0.221-0.059,0.453,0.044,0.562,0.246c0.618,1.135,1.791,1.84,3.061,1.84
			c1.93,0,3.5-1.57,3.5-3.5s-1.57-3.5-3.5-3.5c-1.271,0-2.443,0.705-3.061,1.84c-0.109,0.202-0.342,0.302-0.562,0.246
			c-0.222-0.056-0.377-0.256-0.377-0.484V8c0-0.276,0.224-0.5,0.5-0.5h21.5c1.654,0,3,1.346,3,3V30C56.5,30.276,56.276,30.5,56,30.5
			z"/>
	</g>
	<g>
		<path class="st1" d="M53.5,4.5h-2C51.224,4.5,51,4.276,51,4s0.224-0.5,0.5-0.5h2C53.776,3.5,54,3.724,54,4S53.776,4.5,53.5,4.5z"
			/>
	</g>
	<g>
		<path class="st1" d="M49.5,4.5h-15C34.224,4.5,34,4.276,34,4s0.224-0.5,0.5-0.5h15C49.776,3.5,50,3.724,50,4S49.776,4.5,49.5,4.5z
			"/>
	</g>
	<g>
		<path class="st1" d="M12.5,60.5h-2c-0.276,0-0.5-0.224-0.5-0.5s0.224-0.5,0.5-0.5h2c0.276,0,0.5,0.224,0.5,0.5
			S12.776,60.5,12.5,60.5z"/>
	</g>
	<g>
		<path class="st1" d="M29.5,60.5h-15c-0.276,0-0.5-0.224-0.5-0.5s0.224-0.5,0.5-0.5h15c0.276,0,0.5,0.224,0.5,0.5
			S29.776,60.5,29.5,60.5z"/>
	</g>
	<g>
		<path class="st1" d="M53,16.5c-0.276,0-0.5-0.224-0.5-0.5v-4c0-0.276-0.224-0.5-0.5-0.5h-4c-0.276,0-0.5-0.224-0.5-0.5
			s0.224-0.5,0.5-0.5h4c0.827,0,1.5,0.673,1.5,1.5v4C53.5,16.276,53.276,16.5,53,16.5z"/>
	</g>
</g>
</svg>
