<?xml version="1.0" encoding="utf-8"?>
<!-- Generator: Adobe Illustrator 22.0.0, SVG Export Plug-In . SVG Version: 6.00 Build 0)  -->
<svg version="1.1" id="Icon_Set" xmlns="http://www.w3.org/2000/svg" xmlns:xlink="http://www.w3.org/1999/xlink" x="0px" y="0px"
	 viewBox="0 0 64 64" style="enable-background:new 0 0 64 64;" xml:space="preserve">
<style type="text/css">
	.st0{fill:#40C4FF;}
	.st1{fill:#263238;}
	.st2{fill:#FFD740;}
	.st3{fill:#FF5252;}
	.st4{fill:#4DB6AC;}
	.st5{fill:#FFFFFF;}
	.st6{fill:#4FC3F7;}
	.st7{fill:#37474F;}
</style>
<g>
	<g>
		<path class="st1" d="M58.25,32H50c-0.276,0-0.5-0.224-0.5-0.5S49.724,31,50,31h8.25c0.276,0,0.5,0.224,0.5,0.5S58.526,32,58.25,32
			z"/>
	</g>
	<g>
		<path class="st1" d="M58.25,35h-8c-0.276,0-0.5-0.224-0.5-0.5s0.224-0.5,0.5-0.5h8c0.276,0,0.5,0.224,0.5,0.5S58.526,35,58.25,35z
			"/>
	</g>
	<g>
		<path class="st1" d="M58.25,38h-8c-0.276,0-0.5-0.224-0.5-0.5s0.224-0.5,0.5-0.5h8c0.276,0,0.5,0.224,0.5,0.5S58.526,38,58.25,38z
			"/>
	</g>
	<g>
		<path class="st1" d="M59,55h-5c-0.276,0-0.5-0.224-0.5-0.5S53.724,54,54,54h5c0.276,0,0.5,0.224,0.5,0.5S59.276,55,59,55z"/>
	</g>
	<g>
		<path class="st1" d="M62,55h-1c-0.276,0-0.5-0.224-0.5-0.5S60.724,54,61,54h1c0.276,0,0.5,0.224,0.5,0.5S62.276,55,62,55z"/>
	</g>
	<g>
		<path class="st1" d="M10,55H5c-0.276,0-0.5-0.224-0.5-0.5S4.724,54,5,54h5c0.276,0,0.5,0.224,0.5,0.5S10.276,55,10,55z"/>
	</g>
	<g>
		<path class="st1" d="M3,55H2c-0.276,0-0.5-0.224-0.5-0.5S1.724,54,2,54h1c0.276,0,0.5,0.224,0.5,0.5S3.276,55,3,55z"/>
	</g>
	<g>
		<path class="st1" d="M32,35c-5.243,0-9.746-3.474-11.095-8.501C19.295,26.448,18,25.123,18,23.5s1.295-2.948,2.905-2.999
			C22.254,15.474,26.757,12,32,12c5.244,0,9.746,3.474,11.095,8.501C44.705,20.552,46,21.877,46,23.5s-1.295,2.948-2.905,2.999
			C41.746,31.526,37.244,35,32,35z M21.216,25.481c0.24,0,0.508,0.149,0.561,0.378C22.878,30.652,27.082,34,32,34
			s9.122-3.348,10.224-8.141c0.057-0.248,0.284-0.419,0.545-0.385C42.905,25.492,42.952,25.5,43,25.5c1.103,0,2-0.897,2-2
			s-0.897-2-2-2c-0.048,0-0.095,0.008-0.141,0.014c-0.259,0.031-0.577-0.121-0.636-0.373C41.122,16.348,36.918,13,32,13
			s-9.122,3.348-10.224,8.141c-0.057,0.249-0.298,0.414-0.545,0.385C21.095,21.508,21.048,21.5,21,21.5c-1.103,0-2,0.897-2,2
			s0.897,2,2,2c0.048,0,0.095-0.008,0.142-0.014C21.166,25.482,21.191,25.481,21.216,25.481z"/>
	</g>
	<g>
		<path class="st2" d="M22,22.5h-0.5V16h3v4C24.5,21.381,23.381,22.5,22,22.5z"/>
		<path class="st1" d="M22,23h-0.5c-0.276,0-0.5-0.224-0.5-0.5V16c0-0.276,0.224-0.5,0.5-0.5h3c0.276,0,0.5,0.224,0.5,0.5v4
			C25,21.654,23.654,23,22,23z M22,22h0.01H22z M22,16.5V22c1.103,0,2-0.897,2-2v-3.5H22z"/>
	</g>
	<g>
		<path class="st2" d="M39.5,15.95V20c0,1.381,1.119,2.5,2.5,2.5h0.5v-7.935C41.711,15.339,40.662,15.832,39.5,15.95z"/>
		<path class="st1" d="M42.5,23H42c-1.654,0-3-1.346-3-3v-4.05c0-0.257,0.194-0.472,0.45-0.498c1.029-0.104,1.988-0.545,2.699-1.244
			c0.145-0.141,0.359-0.182,0.544-0.104C42.879,14.182,43,14.364,43,14.565V22.5C43,22.776,42.776,23,42.5,23z M40,16.383V20
			c0,1.103,0.897,2,2,2v-6.401C41.398,15.984,40.718,16.252,40,16.383z"/>
	</g>
	<g>
		<path class="st1" d="M32,29c-1.469,0-2.851-0.572-3.889-1.611c-0.195-0.195-0.195-0.512,0-0.707s0.512-0.195,0.707,0
			C29.668,27.532,30.798,28,32,28s2.332-0.468,3.182-1.318c0.195-0.195,0.512-0.195,0.707,0s0.195,0.512,0,0.707
			C34.851,28.428,33.469,29,32,29z"/>
	</g>
	<g>
		<path class="st2" d="M39,16H21.5v0c0-4.142,3.358-7.5,7.5-7.5h5.205c2.171,0,4.315-0.471,6.286-1.381L44,5.5V11
			C44,13.761,41.761,16,39,16z"/>
		<path class="st1" d="M39,16.5H21.5c-0.276,0-0.5-0.224-0.5-0.5c0-4.411,3.589-8,8-8h5.205c2.084,0,4.185-0.461,6.076-1.335
			l3.509-1.619c0.155-0.071,0.336-0.059,0.479,0.033C44.413,5.171,44.5,5.33,44.5,5.5V11C44.5,14.033,42.032,16.5,39,16.5z
			 M22.018,15.5H39c2.481,0,4.5-2.019,4.5-4.5V6.281l-2.799,1.292C38.679,8.506,36.433,9,34.205,9H29
			C25.309,9,22.275,11.873,22.018,15.5z"/>
	</g>
	<g>
		<path class="st1" d="M18.588,37h-3.305c-1.134,0-2.119-0.807-2.341-1.919l-0.336-1.682l-0.004-0.324
			c-1.599-0.551-3.066-1.403-4.37-2.538L8.02,30.659l-1.714,0.59c-1.076,0.362-2.267-0.086-2.833-1.068L1.82,27.319
			c-0.567-0.982-0.36-2.238,0.492-2.987L3.6,23.199l0.284-0.169c-0.165-0.848-0.249-1.697-0.249-2.53
			c0-0.831,0.083-1.678,0.248-2.525l-0.203-0.117l-1.369-1.19c-0.852-0.749-1.059-2.005-0.492-2.987l1.652-2.862
			C4.04,9.836,5.231,9.385,6.306,9.751l1.625,0.55l0.296,0.166c1.304-1.135,2.77-1.988,4.369-2.54V7.7l0.346-1.781
			C13.164,4.807,14.149,4,15.283,4h3.305c1.134,0,2.119,0.807,2.341,1.919l0.337,1.683l0.004,0.324
			c0.474,0.167,0.965,0.38,1.52,0.655c0.248,0.123,0.349,0.423,0.226,0.67c-0.124,0.247-0.423,0.349-0.67,0.226
			c-0.644-0.319-1.19-0.545-1.72-0.712c-0.208-0.065-0.35-0.259-0.35-0.477V7.7l-0.327-1.584C19.819,5.469,19.247,5,18.588,5h-3.305
			c-0.659,0-1.231,0.469-1.361,1.116l-0.336,1.683l0.01,0.489c0,0.218-0.142,0.412-0.35,0.477c-1.707,0.536-3.259,1.438-4.613,2.681
			c-0.161,0.147-0.398,0.173-0.588,0.064l-0.524-0.302l-1.535-0.509c-0.623-0.21-1.317,0.05-1.647,0.621l-1.652,2.862
			c-0.33,0.571-0.209,1.301,0.286,1.736l1.289,1.132l0.436,0.24c0.189,0.109,0.285,0.328,0.238,0.541
			c-0.198,0.895-0.299,1.793-0.299,2.669s0.101,1.774,0.299,2.669c0.047,0.213-0.049,0.432-0.238,0.541L4.18,24.008l-1.208,1.075
			c-0.495,0.435-0.615,1.166-0.286,1.736l1.652,2.862c0.33,0.571,1.024,0.834,1.647,0.621l1.625-0.55l0.435-0.262
			c0.188-0.108,0.427-0.083,0.587,0.064c1.354,1.243,2.907,2.145,4.613,2.68c0.208,0.065,0.35,0.259,0.35,0.477v0.589l0.327,1.583
			C14.052,35.531,14.624,36,15.283,36h3.305c0.659,0,1.231-0.469,1.361-1.116l0.337-1.682l-0.01-0.491
			c0-0.218,0.142-0.412,0.35-0.477c0.447-0.14,0.914-0.324,1.425-0.56c0.251-0.116,0.548-0.006,0.664,0.245
			c0.116,0.25,0.006,0.547-0.245,0.664c-0.42,0.194-0.814,0.355-1.194,0.489v0.229l-0.347,1.78C20.707,36.193,19.722,37,18.588,37z"
			/>
	</g>
	<g>
		<path class="st1" d="M16.936,28.68c-4.51,0-8.18-3.669-8.18-8.18s3.669-8.18,8.18-8.18c1.078,0,2.129,0.209,3.125,0.622
			c0.255,0.105,0.376,0.398,0.271,0.653s-0.399,0.376-0.653,0.271c-0.874-0.362-1.797-0.545-2.743-0.545
			c-3.959,0-7.18,3.221-7.18,7.18s3.221,7.18,7.18,7.18c0.807,0,1.615-0.142,2.401-0.421c0.26-0.091,0.546,0.043,0.639,0.304
			c0.092,0.26-0.043,0.546-0.304,0.639C18.778,28.519,17.857,28.68,16.936,28.68z"/>
	</g>
	<g>
		<path class="st1" d="M22,60c-0.276,0-0.5-0.224-0.5-0.5v-10c0-0.276,0.224-0.5,0.5-0.5s0.5,0.224,0.5,0.5v10
			C22.5,59.776,22.276,60,22,60z"/>
	</g>
	<g>
		<path class="st1" d="M42,60c-0.276,0-0.5-0.224-0.5-0.5v-10c0-0.276,0.224-0.5,0.5-0.5s0.5,0.224,0.5,0.5v10
			C42.5,59.776,42.276,60,42,60z"/>
	</g>
	<g>
		<path class="st1" d="M27.934,43.5c-0.042,0-0.083-0.005-0.124-0.016c-0.158-0.041-0.287-0.156-0.344-0.309l-2.416-6.437
			c-0.094-0.25,0.026-0.53,0.271-0.635l2.481-1.063c0.187-0.081,0.406-0.038,0.55,0.106l4,4c0.099,0.098,0.151,0.233,0.146,0.372
			c-0.005,0.139-0.068,0.27-0.173,0.36l-4.066,3.5C28.168,43.458,28.052,43.5,27.934,43.5z M26.154,36.835l1.996,5.319l3.115-2.681
			l-3.38-3.38L26.154,36.835z"/>
	</g>
	<g>
		<path class="st1" d="M36.057,43.5c-0.118,0-0.234-0.042-0.326-0.122l-4.057-3.5c-0.105-0.091-0.168-0.221-0.173-0.36
			c-0.005-0.139,0.048-0.274,0.146-0.372l4-4c0.145-0.144,0.363-0.187,0.551-0.106l2.481,1.063c0.245,0.105,0.365,0.385,0.271,0.636
			l-2.425,6.437c-0.058,0.153-0.187,0.268-0.345,0.308C36.14,43.495,36.098,43.5,36.057,43.5z M32.734,39.473l3.107,2.681
			l2.004-5.319l-1.73-0.742L32.734,39.473z"/>
	</g>
	<g>
		<path class="st1" d="M50,60c-0.276,0-0.5-0.224-0.5-0.5V46.445c0-2.804-1.665-5.33-4.243-6.434l-9.454-4.052
			C35.619,35.881,35.5,35.7,35.5,35.5v-1.052c-2.271,0.732-4.728,0.732-7,0V35.5c0,0.2-0.119,0.381-0.303,0.459l-9.454,4.052
			c-2.577,1.105-4.243,3.63-4.243,6.434V59.5c0,0.276-0.224,0.5-0.5,0.5s-0.5-0.224-0.5-0.5V46.445c0-3.204,1.903-6.09,4.849-7.353
			L27.5,35.17v-1.431c0-0.166,0.082-0.32,0.218-0.413c0.137-0.093,0.311-0.114,0.464-0.052c2.458,0.963,5.177,0.964,7.635,0
			c0.153-0.061,0.327-0.042,0.464,0.052c0.137,0.093,0.219,0.248,0.219,0.413v1.431l9.151,3.922
			c2.945,1.262,4.849,4.148,4.849,7.353V59.5C50.5,59.776,50.276,60,50,60z"/>
	</g>
	<g>
		<path class="st1" d="M61.75,48H52c-0.276,0-0.5-0.224-0.5-0.5S51.724,47,52,47h9.25V28h-14v9.977c0,0.276-0.224,0.5-0.5,0.5
			s-0.5-0.224-0.5-0.5V27.5c0-0.276,0.224-0.5,0.5-0.5h15c0.276,0,0.5,0.224,0.5,0.5v20C62.25,47.776,62.026,48,61.75,48z"/>
	</g>
	<g>
		<path class="st1" d="M55.5,18h-4c-0.276,0-0.5-0.224-0.5-0.5s0.224-0.5,0.5-0.5h4c0.276,0,0.5,0.224,0.5,0.5S55.776,18,55.5,18z"
			/>
	</g>
	<g>
		<path class="st1" d="M62,13h-4c-0.276,0-0.5-0.224-0.5-0.5S57.724,12,58,12h4c0.276,0,0.5,0.224,0.5,0.5S62.276,13,62,13z"/>
	</g>
	<g>
		<path class="st1" d="M60,15c-0.276,0-0.5-0.224-0.5-0.5v-4c0-0.276,0.224-0.5,0.5-0.5s0.5,0.224,0.5,0.5v4
			C60.5,14.776,60.276,15,60,15z"/>
	</g>
	<g>
		<path class="st1" d="M53.5,20c-0.276,0-0.5-0.224-0.5-0.5v-4c0-0.276,0.224-0.5,0.5-0.5s0.5,0.224,0.5,0.5v4
			C54,19.776,53.776,20,53.5,20z"/>
	</g>
</g>
</svg>
