<?xml version="1.0" encoding="utf-8"?>
<!-- Generator: Adobe Illustrator 22.0.0, SVG Export Plug-In . SVG Version: 6.00 Build 0)  -->
<svg version="1.1" id="Icon_Set" xmlns="http://www.w3.org/2000/svg" xmlns:xlink="http://www.w3.org/1999/xlink" x="0px" y="0px"
	 viewBox="0 0 64 64" style="enable-background:new 0 0 64 64;" xml:space="preserve">
<style type="text/css">
	.st0{fill:#40C4FF;}
	.st1{fill:#263238;}
	.st2{fill:#FFD740;}
	.st3{fill:#FF5252;}
	.st4{fill:#4DB6AC;}
	.st5{fill:#FFFFFF;}
	.st6{fill:#4FC3F7;}
	.st7{fill:#37474F;}
</style>
<g>
	<g>
		<path class="st1" d="M27.5,58.125h-16c-0.276,0-0.5-0.224-0.5-0.5s0.224-0.5,0.5-0.5h16c0.276,0,0.5,0.224,0.5,0.5
			S27.776,58.125,27.5,58.125z"/>
	</g>
	<g>
		<path class="st1" d="M34,31H15.799c-2.37,0-4.299-1.929-4.299-4.299V16.299c0-2.37,1.929-4.299,4.299-4.299H34
			c0.276,0,0.5,0.224,0.5,0.5v18C34.5,30.776,34.276,31,34,31z M15.799,13c-1.819,0-3.299,1.479-3.299,3.299v10.402
			c0,1.819,1.479,3.299,3.299,3.299H33.5V13H15.799z"/>
	</g>
	<g>
		<path class="st1" d="M48,35c-0.046,0-0.092-0.006-0.138-0.02l-14-4c-0.214-0.062-0.362-0.257-0.362-0.48v-18
			c0-0.224,0.148-0.419,0.362-0.48l14-4c0.153-0.046,0.312-0.014,0.438,0.081S48.5,8.343,48.5,8.5v26
			c0,0.157-0.073,0.305-0.199,0.399C48.213,34.966,48.107,35,48,35z M34.5,30.123l13,3.714V9.163l-13,3.714V30.123z"/>
	</g>
	<g>
		<path class="st1" d="M14.833,7.5h-4c-0.276,0-0.5-0.224-0.5-0.5s0.224-0.5,0.5-0.5h4c0.276,0,0.5,0.224,0.5,0.5
			S15.109,7.5,14.833,7.5z"/>
	</g>
	<g>
		<path class="st1" d="M12.833,9.5c-0.276,0-0.5-0.224-0.5-0.5V5c0-0.276,0.224-0.5,0.5-0.5s0.5,0.224,0.5,0.5v4
			C13.333,9.276,13.109,9.5,12.833,9.5z"/>
	</g>
	<g>
		<path class="st1" d="M8.833,13h-4c-0.276,0-0.5-0.224-0.5-0.5s0.224-0.5,0.5-0.5h4c0.276,0,0.5,0.224,0.5,0.5S9.109,13,8.833,13z"
			/>
	</g>
	<g>
		<path class="st1" d="M6.833,15c-0.276,0-0.5-0.224-0.5-0.5v-4c0-0.276,0.224-0.5,0.5-0.5s0.5,0.224,0.5,0.5v4
			C7.333,14.776,7.109,15,6.833,15z"/>
	</g>
	<g>
		<path class="st0" d="M3,59h5.5c0.552,0,1-0.448,1-1V40c0-0.552-0.448-1-1-1H3c-0.552,0-1,0.448-1,1v18C2,58.552,2.448,59,3,59z"/>
		<path class="st1" d="M8.5,59.5H3c-0.827,0-1.5-0.673-1.5-1.5V40c0-0.827,0.673-1.5,1.5-1.5h5.5c0.827,0,1.5,0.673,1.5,1.5v18
			C10,58.827,9.327,59.5,8.5,59.5z M3,39.5c-0.275,0-0.5,0.225-0.5,0.5v18c0,0.275,0.225,0.5,0.5,0.5h5.5C8.775,58.5,9,58.275,9,58
			V40c0-0.275-0.225-0.5-0.5-0.5H3z"/>
	</g>
	<g>
		<path class="st1" d="M21.5,48c-1.654,0-3-1.346-3-3v-2.75c0-0.276,0.224-0.5,0.5-0.5s0.5,0.224,0.5,0.5V45c0,1.103,0.897,2,2,2
			s2-0.897,2-2v-5c0-1.103-0.897-2-2-2h-0.574c-1.212,0-2.399,0.229-3.528,0.68l-5.712,2.284c-0.256,0.102-0.547-0.022-0.649-0.278
			s0.021-0.547,0.278-0.649l5.712-2.285C18.274,37.253,19.586,37,20.926,37H21.5c1.654,0,3,1.346,3,3v5
			C24.5,46.654,23.154,48,21.5,48z"/>
	</g>
	<g>
		<path class="st1" d="M27,36c-0.276,0-0.5-0.224-0.5-0.5V31h-7v4.5c0,0.276-0.224,0.5-0.5,0.5s-0.5-0.224-0.5-0.5v-5
			c0-0.276,0.224-0.5,0.5-0.5h8c0.276,0,0.5,0.224,0.5,0.5v5C27.5,35.776,27.276,36,27,36z"/>
	</g>
	<g>
		<path class="st3" d="M52,36.5h-3c-0.552,0-1-0.448-1-1v-28c0-0.552,0.448-1,1-1h3c0.552,0,1,0.448,1,1v28
			C53,36.052,52.552,36.5,52,36.5z"/>
		<path class="st1" d="M52,37h-3c-0.827,0-1.5-0.673-1.5-1.5v-28C47.5,6.673,48.173,6,49,6h3c0.827,0,1.5,0.673,1.5,1.5v28
			C53.5,36.327,52.827,37,52,37z M49,7c-0.275,0-0.5,0.225-0.5,0.5v28c0,0.275,0.225,0.5,0.5,0.5h3c0.275,0,0.5-0.225,0.5-0.5v-28
			C52.5,7.225,52.275,7,52,7H49z"/>
	</g>
	<g>
		<path class="st1" d="M62,22h-6c-0.276,0-0.5-0.224-0.5-0.5S55.724,21,56,21h6c0.276,0,0.5,0.224,0.5,0.5S62.276,22,62,22z"/>
	</g>
	<g>
		<path class="st1" d="M56,17c-0.151,0-0.302-0.069-0.4-0.2c-0.165-0.221-0.12-0.534,0.101-0.7l4-3c0.22-0.165,0.533-0.12,0.7,0.101
			c0.165,0.221,0.12,0.534-0.101,0.7l-4,3C56.21,16.968,56.104,17,56,17z"/>
	</g>
	<g>
		<path class="st1" d="M60,30c-0.104,0-0.21-0.032-0.3-0.1l-4-3c-0.221-0.166-0.266-0.479-0.101-0.7
			c0.167-0.221,0.48-0.266,0.7-0.101l4,3c0.221,0.166,0.266,0.479,0.101,0.7C60.302,29.931,60.151,30,60,30z"/>
	</g>
	<g>
		<circle class="st4" cx="50.5" cy="50" r="7.5"/>
	</g>
	<g>
		<path class="st1" d="M49.263,52.828c-0.128,0-0.256-0.049-0.354-0.146l-2.828-2.828c-0.195-0.195-0.195-0.512,0-0.707
			s0.512-0.195,0.707,0l2.475,2.475l4.949-4.949c0.195-0.195,0.512-0.195,0.707,0s0.195,0.512,0,0.707l-5.303,5.303
			C49.519,52.779,49.391,52.828,49.263,52.828z"/>
	</g>
	<g>
		<path class="st1" d="M29,58h-3.5c-1.654,0-3-1.346-3-3s1.346-3,3-3H29c1.654,0,3,1.346,3,3S30.654,58,29,58z M25.5,53
			c-1.103,0-2,0.897-2,2s0.897,2,2,2H29c1.103,0,2-0.897,2-2s-0.897-2-2-2H25.5z"/>
	</g>
	<g>
		<path class="st1" d="M31,53h-5.5c-1.654,0-3-1.346-3-3s1.346-3,3-3H31c1.654,0,3,1.346,3,3S32.654,53,31,53z M25.5,48
			c-1.103,0-2,0.897-2,2s0.897,2,2,2H31c1.103,0,2-0.897,2-2s-0.897-2-2-2H25.5z"/>
	</g>
	<g>
		<path class="st1" d="M31,43h-5.5c-0.647,0-1.271-0.212-1.802-0.612c-0.125-0.095-0.198-0.242-0.198-0.399V40
			c0-0.426-0.139-0.836-0.4-1.188c-0.133-0.177-0.133-0.42-0.001-0.598C23.674,37.442,24.549,37,25.5,37H31c1.654,0,3,1.346,3,3
			S32.654,43,31,43z M24.5,41.723c0.308,0.182,0.649,0.277,1,0.277H31c1.103,0,2-0.897,2-2s-0.897-2-2-2h-5.5
			c-0.52,0-1.006,0.2-1.376,0.559C24.371,39.001,24.5,39.493,24.5,40V41.723z"/>
	</g>
	<g>
		<path class="st1" d="M32,48h-6.5c-0.951,0-1.826-0.442-2.401-1.215c-0.132-0.178-0.132-0.421,0.001-0.598
			c0.262-0.352,0.4-0.762,0.4-1.188v-1.988c0-0.157,0.073-0.305,0.198-0.399C24.229,42.212,24.853,42,25.5,42H32
			c1.654,0,3,1.346,3,3S33.654,48,32,48z M24.124,46.441C24.494,46.8,24.98,47,25.5,47H32c1.103,0,2-0.897,2-2s-0.897-2-2-2h-6.5
			c-0.351,0-0.692,0.096-1,0.277V45C24.5,45.507,24.371,45.999,24.124,46.441z"/>
	</g>
</g>
</svg>
