<?xml version="1.0" encoding="utf-8"?>
<!-- Generator: Adobe Illustrator 22.0.0, SVG Export Plug-In . SVG Version: 6.00 Build 0)  -->
<svg version="1.1" id="Icon_Set" xmlns="http://www.w3.org/2000/svg" xmlns:xlink="http://www.w3.org/1999/xlink" x="0px" y="0px"
	 viewBox="0 0 64 64" style="enable-background:new 0 0 64 64;" xml:space="preserve">
<style type="text/css">
	.st0{fill:#40C4FF;}
	.st1{fill:#263238;}
	.st2{fill:#FFD740;}
	.st3{fill:#FF5252;}
	.st4{fill:#4DB6AC;}
	.st5{fill:#FFFFFF;}
	.st6{fill:#4FC3F7;}
	.st7{fill:#37474F;}
</style>
<g>
	<g>
		<path class="st1" d="M44,59H8c-1.654,0-3-1.346-3-3V9c0-1.654,1.346-3,3-3h36c1.654,0,3,1.346,3,3v47C47,57.654,45.654,59,44,59z
			 M8,7C6.897,7,6,7.897,6,9v47c0,1.103,0.897,2,2,2h36c1.103,0,2-0.897,2-2V9c0-1.103-0.897-2-2-2H8z"/>
	</g>
	<g>
		<path class="st1" d="M49,64H12c-1.654,0-3-1.346-3-3v-0.5C9,60.224,9.224,60,9.5,60s0.5,0.224,0.5,0.5V61c0,1.103,0.897,2,2,2h37
			c1.103,0,2-0.897,2-2V14c0-1.103-0.897-2-2-2h-0.5c-0.276,0-0.5-0.224-0.5-0.5s0.224-0.5,0.5-0.5H49c1.654,0,3,1.346,3,3v47
			C52,62.654,50.654,64,49,64z"/>
	</g>
	<g>
		<path class="st1" d="M53,3h-4c-0.276,0-0.5-0.224-0.5-0.5S48.724,2,49,2h4c0.276,0,0.5,0.224,0.5,0.5S53.276,3,53,3z"/>
	</g>
	<g>
		<path class="st1" d="M51,5c-0.276,0-0.5-0.224-0.5-0.5v-4C50.5,0.224,50.724,0,51,0s0.5,0.224,0.5,0.5v4C51.5,4.776,51.276,5,51,5
			z"/>
	</g>
	<g>
		<path class="st1" d="M58.5,8.5h-4C54.224,8.5,54,8.276,54,8s0.224-0.5,0.5-0.5h4C58.776,7.5,59,7.724,59,8S58.776,8.5,58.5,8.5z"
			/>
	</g>
	<g>
		<path class="st1" d="M56.5,10.5c-0.276,0-0.5-0.224-0.5-0.5V6c0-0.276,0.224-0.5,0.5-0.5S57,5.724,57,6v4
			C57,10.276,56.776,10.5,56.5,10.5z"/>
	</g>
	<g>
		<path class="st1" d="M41.436,16h-16.5c-0.276,0-0.5-0.224-0.5-0.5s0.224-0.5,0.5-0.5h16.5c0.276,0,0.5,0.224,0.5,0.5
			S41.712,16,41.436,16z"/>
	</g>
	<g>
		<path class="st1" d="M36.436,21h-11.5c-0.276,0-0.5-0.224-0.5-0.5s0.224-0.5,0.5-0.5h11.5c0.276,0,0.5,0.224,0.5,0.5
			S36.712,21,36.436,21z"/>
	</g>
	<g>
		<path class="st1" d="M41.436,30h-16.5c-0.276,0-0.5-0.224-0.5-0.5s0.224-0.5,0.5-0.5h16.5c0.276,0,0.5,0.224,0.5,0.5
			S41.712,30,41.436,30z"/>
	</g>
	<g>
		<path class="st1" d="M36.436,35h-11.5c-0.276,0-0.5-0.224-0.5-0.5s0.224-0.5,0.5-0.5h11.5c0.276,0,0.5,0.224,0.5,0.5
			S36.712,35,36.436,35z"/>
	</g>
	<g>
		<path class="st1" d="M56.5,59c-0.276,0-0.5-0.224-0.5-0.5v-2c0-0.276,0.224-0.5,0.5-0.5s0.5,0.224,0.5,0.5v2
			C57,58.776,56.776,59,56.5,59z"/>
	</g>
	<g>
		<path class="st1" d="M56.5,55c-0.276,0-0.5-0.224-0.5-0.5v-18c0-0.276,0.224-0.5,0.5-0.5s0.5,0.224,0.5,0.5v18
			C57,54.776,56.776,55,56.5,55z"/>
	</g>
	<g>
		<path class="st4" d="M18.936,22.5h-7c-0.552,0-1-0.448-1-1v-7c0-0.552,0.448-1,1-1h7c0.552,0,1,0.448,1,1v7
			C19.936,22.052,19.488,22.5,18.936,22.5z"/>
		<path class="st1" d="M18.936,23h-7c-0.827,0-1.5-0.673-1.5-1.5v-7c0-0.827,0.673-1.5,1.5-1.5h7c0.827,0,1.5,0.673,1.5,1.5v7
			C20.436,22.327,19.763,23,18.936,23z M11.936,14c-0.276,0-0.5,0.225-0.5,0.5v7c0,0.275,0.224,0.5,0.5,0.5h7
			c0.276,0,0.5-0.225,0.5-0.5v-7c0-0.275-0.224-0.5-0.5-0.5H11.936z"/>
	</g>
	<g>
		<path class="st1" d="M15.5,19.5c-0.128,0-0.256-0.049-0.354-0.146l-2.121-2.121c-0.195-0.195-0.195-0.512,0-0.707
			s0.512-0.195,0.707,0l1.768,1.768l5.146-5.146c0.195-0.195,0.512-0.195,0.707,0s0.195,0.512,0,0.707l-5.5,5.5
			C15.756,19.451,15.628,19.5,15.5,19.5z"/>
	</g>
	<g>
		<path class="st4" d="M18.936,36.5h-7c-0.552,0-1-0.448-1-1v-7c0-0.552,0.448-1,1-1h7c0.552,0,1,0.448,1,1v7
			C19.936,36.052,19.488,36.5,18.936,36.5z"/>
		<path class="st1" d="M18.936,37h-7c-0.827,0-1.5-0.673-1.5-1.5v-7c0-0.827,0.673-1.5,1.5-1.5h7c0.827,0,1.5,0.673,1.5,1.5v7
			C20.436,36.327,19.763,37,18.936,37z M11.936,28c-0.276,0-0.5,0.225-0.5,0.5v7c0,0.275,0.224,0.5,0.5,0.5h7
			c0.276,0,0.5-0.225,0.5-0.5v-7c0-0.275-0.224-0.5-0.5-0.5H11.936z"/>
	</g>
	<g>
		<path class="st1" d="M15.5,33.5c-0.128,0-0.256-0.049-0.354-0.146l-2.121-2.121c-0.195-0.195-0.195-0.512,0-0.707
			s0.512-0.195,0.707,0l1.768,1.768l5.146-5.146c0.195-0.195,0.512-0.195,0.707,0s0.195,0.512,0,0.707l-5.5,5.5
			C15.756,33.451,15.628,33.5,15.5,33.5z"/>
	</g>
	<g>
		<path class="st1" d="M41.436,45h-16.5c-0.276,0-0.5-0.224-0.5-0.5s0.224-0.5,0.5-0.5h16.5c0.276,0,0.5,0.224,0.5,0.5
			S41.712,45,41.436,45z"/>
	</g>
	<g>
		<path class="st1" d="M36.436,50h-11.5c-0.276,0-0.5-0.224-0.5-0.5s0.224-0.5,0.5-0.5h11.5c0.276,0,0.5,0.224,0.5,0.5
			S36.712,50,36.436,50z"/>
	</g>
	<g>
		<path class="st4" d="M18.936,51.5h-7c-0.552,0-1-0.448-1-1v-7c0-0.552,0.448-1,1-1h7c0.552,0,1,0.448,1,1v7
			C19.936,51.052,19.488,51.5,18.936,51.5z"/>
		<path class="st1" d="M18.936,52h-7c-0.827,0-1.5-0.673-1.5-1.5v-7c0-0.827,0.673-1.5,1.5-1.5h7c0.827,0,1.5,0.673,1.5,1.5v7
			C20.436,51.327,19.763,52,18.936,52z M11.936,43c-0.276,0-0.5,0.225-0.5,0.5v7c0,0.275,0.224,0.5,0.5,0.5h7
			c0.276,0,0.5-0.225,0.5-0.5v-7c0-0.275-0.224-0.5-0.5-0.5H11.936z"/>
	</g>
	<g>
		<path class="st1" d="M15.5,48.5c-0.128,0-0.256-0.049-0.354-0.146l-2.121-2.121c-0.195-0.195-0.195-0.512,0-0.707
			s0.512-0.195,0.707,0l1.768,1.768l5.146-5.146c0.195-0.195,0.512-0.195,0.707,0s0.195,0.512,0,0.707l-5.5,5.5
			C15.756,48.451,15.628,48.5,15.5,48.5z"/>
	</g>
</g>
</svg>
