<?xml version="1.0" encoding="utf-8"?>
<!-- Generator: Adobe Illustrator 22.0.0, SVG Export Plug-In . SVG Version: 6.00 Build 0)  -->
<svg version="1.1" id="Icon_Set" xmlns="http://www.w3.org/2000/svg" xmlns:xlink="http://www.w3.org/1999/xlink" x="0px" y="0px"
	 viewBox="0 0 64 64" style="enable-background:new 0 0 64 64;" xml:space="preserve">
<style type="text/css">
	.st0{fill:#40C4FF;}
	.st1{fill:#263238;}
	.st2{fill:#FFD740;}
	.st3{fill:#FF5252;}
	.st4{fill:#4DB6AC;}
	.st5{fill:#FFFFFF;}
	.st6{fill:#4FC3F7;}
	.st7{fill:#37474F;}
</style>
<g>
	<g>
		<path class="st1" d="M21.005,42.5c-0.276,0-0.5-0.224-0.5-0.5v-1.955c0-0.762-0.424-1.448-1.106-1.789l-5.626-2.813
			c-0.247-0.124-0.347-0.424-0.224-0.671c0.124-0.247,0.423-0.346,0.671-0.224l5.626,2.813c1.023,0.511,1.659,1.54,1.659,2.683V42
			C21.505,42.276,21.281,42.5,21.005,42.5z"/>
	</g>
	<g>
		<path class="st1" d="M11.005,34.5c-3.584,0-6.5-2.916-6.5-6.5s2.916-6.5,6.5-6.5s6.5,2.916,6.5,6.5S14.589,34.5,11.005,34.5z
			 M11.005,22.5c-3.033,0-5.5,2.467-5.5,5.5s2.467,5.5,5.5,5.5s5.5-2.467,5.5-5.5S14.038,22.5,11.005,22.5z"/>
	</g>
	<g>
		<path class="st2" d="M15.165,24.531l0.447-0.372C14.512,22.84,12.857,22,11.005,22c-3.314,0-6,2.686-6,6h0.566
			C9.076,28,12.471,26.773,15.165,24.531z"/>
		<path class="st1" d="M5.571,28.5H5.005c-0.276,0-0.5-0.224-0.5-0.5c0-3.584,2.916-6.5,6.5-6.5c1.932,0,3.751,0.852,4.991,2.338
			c0.085,0.102,0.126,0.233,0.114,0.366c-0.012,0.132-0.076,0.254-0.178,0.339l-0.447,0.372C12.707,27.227,9.186,28.5,5.571,28.5z
			 M5.527,27.5h0.044c3.381,0,6.675-1.191,9.274-3.354l0,0l0.045-0.038c-1.028-1.028-2.418-1.609-3.885-1.609
			C8.141,22.5,5.781,24.701,5.527,27.5z"/>
	</g>
	<g>
		<path class="st1" d="M11,39.996c-0.167,0-0.323-0.083-0.416-0.222l-3.004-4.491c-0.055-0.082-0.084-0.179-0.084-0.277l-0.001-1.82
			c0-0.179,0.096-0.345,0.25-0.434c0.157-0.089,0.347-0.088,0.501,0.001c1.674,0.976,3.824,0.979,5.499,0.011
			c0.155-0.089,0.345-0.089,0.5,0c0.155,0.089,0.25,0.254,0.25,0.433l0.001,1.798c0,0.099-0.029,0.195-0.084,0.277l-2.996,4.5
			C11.324,39.912,11.167,39.996,11,39.996L11,39.996z M8.496,34.853l2.503,3.742l2.497-3.75l0-0.844
			c-1.583,0.659-3.42,0.656-5-0.009L8.496,34.853z"/>
	</g>
	<g>
		<path class="st1" d="M1,42.5c-0.276,0-0.5-0.224-0.5-0.5v-1.954c0-1.145,0.636-2.173,1.659-2.684l5.613-2.804
			c0.248-0.124,0.547-0.024,0.671,0.224c0.124,0.247,0.023,0.547-0.224,0.671l-5.613,2.804C1.924,38.597,1.5,39.283,1.5,40.046V42
			C1.5,42.276,1.276,42.5,1,42.5z"/>
	</g>
	<g>
		<path class="st1" d="M11,42.5c-0.276,0-0.5-0.224-0.5-0.5v-2.504c0-0.276,0.224-0.5,0.5-0.5s0.5,0.224,0.5,0.5V42
			C11.5,42.276,11.276,42.5,11,42.5z"/>
	</g>
	<g>
		<path class="st1" d="M63,42.5c-0.276,0-0.5-0.224-0.5-0.5v-1.955c0-0.762-0.424-1.448-1.105-1.789l-5.627-2.813
			c-0.247-0.124-0.347-0.424-0.224-0.671c0.125-0.247,0.424-0.345,0.671-0.224l5.627,2.813c1.022,0.511,1.658,1.54,1.658,2.683V42
			C63.5,42.276,63.276,42.5,63,42.5z"/>
	</g>
	<g>
		<path class="st1" d="M53,34.5c-3.584,0-6.5-2.916-6.5-6.5s2.916-6.5,6.5-6.5s6.5,2.916,6.5,6.5S56.584,34.5,53,34.5z M53,22.5
			c-3.032,0-5.5,2.467-5.5,5.5s2.468,5.5,5.5,5.5s5.5-2.467,5.5-5.5S56.032,22.5,53,22.5z"/>
	</g>
	<g>
		<path class="st2" d="M57.16,24.531l0.447-0.372C56.507,22.84,54.852,22,53,22c-3.314,0-6,2.686-6,6h0.566
			C51.072,28,54.466,26.773,57.16,24.531z"/>
		<path class="st1" d="M47.566,28.5H47c-0.276,0-0.5-0.224-0.5-0.5c0-3.584,2.916-6.5,6.5-6.5c1.932,0,3.751,0.852,4.991,2.338
			c0.085,0.102,0.126,0.233,0.114,0.366s-0.076,0.254-0.179,0.339l-0.447,0.372C54.701,27.227,51.181,28.5,47.566,28.5z
			 M47.522,27.5h0.044c3.381,0,6.675-1.191,9.274-3.354l0,0l0.045-0.038C55.857,23.081,54.467,22.5,53,22.5
			C50.136,22.5,47.775,24.701,47.522,27.5z"/>
	</g>
	<g>
		<path class="st1" d="M52.995,39.996c-0.167,0-0.323-0.083-0.416-0.222l-3.004-4.491c-0.055-0.082-0.084-0.179-0.084-0.277
			l-0.001-1.82c0-0.179,0.096-0.345,0.251-0.434c0.155-0.089,0.347-0.088,0.501,0.001c1.675,0.976,3.822,0.979,5.498,0.011
			c0.154-0.089,0.346-0.089,0.5,0c0.154,0.089,0.25,0.254,0.25,0.433l0.001,1.798c0,0.099-0.029,0.195-0.084,0.277l-2.996,4.5
			C53.318,39.912,53.163,39.996,52.995,39.996C52.995,39.996,52.995,39.996,52.995,39.996z M50.491,34.853l2.503,3.742l2.497-3.75
			L55.49,34c-1.583,0.659-3.419,0.657-5-0.009L50.491,34.853z"/>
	</g>
	<g>
		<path class="st1" d="M42.995,42.5c-0.276,0-0.5-0.224-0.5-0.5v-1.954c0-1.145,0.636-2.173,1.659-2.684l5.613-2.804
			c0.248-0.123,0.547-0.024,0.671,0.224c0.123,0.247,0.023,0.547-0.224,0.671l-5.613,2.804c-0.683,0.341-1.106,1.026-1.106,1.79V42
			C43.495,42.276,43.271,42.5,42.995,42.5z"/>
	</g>
	<g>
		<path class="st1" d="M52.995,42.5c-0.276,0-0.5-0.224-0.5-0.5v-2.504c0-0.276,0.224-0.5,0.5-0.5s0.5,0.224,0.5,0.5V42
			C53.495,42.276,53.271,42.5,52.995,42.5z"/>
	</g>
	<g>
		<path class="st1" d="M10.998,17.502c-0.276,0-0.5-0.224-0.5-0.5v-5.5c0-1.654,1.346-3,3-3h7.5c0.276,0,0.5,0.224,0.5,0.5
			s-0.224,0.5-0.5,0.5h-7.5c-1.103,0-2,0.897-2,2v5.5C11.498,17.279,11.274,17.502,10.998,17.502z"/>
	</g>
	<g>
		<path class="st1" d="M52.997,17.502c-0.276,0-0.5-0.224-0.5-0.5v-5.5c0-1.103-0.897-2-2-2h-7.5c-0.276,0-0.5-0.224-0.5-0.5
			s0.224-0.5,0.5-0.5h7.5c1.654,0,3,1.346,3,3v5.5C53.497,17.279,53.273,17.502,52.997,17.502z"/>
	</g>
	<g>
		<path class="st1" d="M50.497,55.502h-7.5c-0.276,0-0.5-0.224-0.5-0.5s0.224-0.5,0.5-0.5h7.5c1.103,0,2-0.897,2-2v-5.5
			c0-0.276,0.224-0.5,0.5-0.5s0.5,0.224,0.5,0.5v5.5C53.497,54.157,52.151,55.502,50.497,55.502z"/>
	</g>
	<g>
		<path class="st1" d="M20.998,55.502h-7.5c-1.654,0-3-1.346-3-3v-5.5c0-0.276,0.224-0.5,0.5-0.5s0.5,0.224,0.5,0.5v5.5
			c0,1.103,0.897,2,2,2h7.5c0.276,0,0.5,0.224,0.5,0.5S21.274,55.502,20.998,55.502z"/>
	</g>
	<g>
		<path class="st1" d="M42,21.5c-0.276,0-0.5-0.224-0.5-0.5v-1.955c0-0.762-0.424-1.448-1.105-1.789l-5.627-2.813
			c-0.247-0.124-0.347-0.424-0.224-0.671c0.125-0.247,0.424-0.345,0.671-0.224l5.627,2.813c1.022,0.511,1.658,1.54,1.658,2.683V21
			C42.5,21.276,42.276,21.5,42,21.5z"/>
	</g>
	<g>
		<path class="st1" d="M32,13.5c-3.584,0-6.5-2.916-6.5-6.5s2.916-6.5,6.5-6.5s6.5,2.916,6.5,6.5S35.584,13.5,32,13.5z M32,1.5
			c-3.033,0-5.5,2.467-5.5,5.5s2.467,5.5,5.5,5.5c3.032,0,5.5-2.467,5.5-5.5S35.032,1.5,32,1.5z"/>
	</g>
	<g>
		<path class="st2" d="M36.16,3.531l0.447-0.372C35.507,1.84,33.852,1,32,1c-3.314,0-6,2.686-6,6h0.566
			C30.071,7,33.466,5.773,36.16,3.531z"/>
		<path class="st1" d="M26.566,7.5H26c-0.276,0-0.5-0.224-0.5-0.5c0-3.584,2.916-6.5,6.5-6.5c1.932,0,3.751,0.852,4.991,2.338
			c0.085,0.102,0.126,0.233,0.114,0.366s-0.076,0.254-0.179,0.339l-0.447,0.372C33.701,6.227,30.181,7.5,26.566,7.5z M26.522,6.5
			h0.044c3.381,0,6.675-1.191,9.274-3.354l0,0l0.045-0.038C34.857,2.081,33.467,1.5,32,1.5C29.136,1.5,26.776,3.701,26.522,6.5z"/>
	</g>
	<g>
		<path class="st1" d="M31.995,18.996c-0.167,0-0.323-0.083-0.416-0.222l-3.004-4.491c-0.055-0.082-0.084-0.179-0.084-0.277
			l-0.001-1.82c0-0.179,0.096-0.345,0.25-0.434c0.157-0.089,0.347-0.088,0.501,0.001c1.674,0.976,3.824,0.979,5.499,0.011
			c0.154-0.089,0.346-0.089,0.5,0c0.154,0.089,0.25,0.254,0.25,0.433l0.001,1.798c0,0.099-0.029,0.195-0.084,0.277l-2.996,4.5
			C32.319,18.912,32.163,18.996,31.995,18.996L31.995,18.996z M29.491,13.853l2.503,3.742l2.497-3.75L34.49,13
			c-1.583,0.659-3.42,0.656-5-0.009L29.491,13.853z"/>
	</g>
	<g>
		<path class="st1" d="M21.995,21.5c-0.276,0-0.5-0.224-0.5-0.5v-1.954c0-1.145,0.636-2.173,1.659-2.684l5.613-2.804
			c0.247-0.122,0.548-0.023,0.671,0.224c0.124,0.247,0.023,0.547-0.224,0.671l-5.613,2.804c-0.683,0.341-1.106,1.026-1.106,1.79V21
			C22.495,21.276,22.271,21.5,21.995,21.5z"/>
	</g>
	<g>
		<path class="st1" d="M31.995,21.5c-0.276,0-0.5-0.224-0.5-0.5v-2.504c0-0.276,0.224-0.5,0.5-0.5s0.5,0.224,0.5,0.5V21
			C32.495,21.276,32.271,21.5,31.995,21.5z"/>
	</g>
	<g>
		<path class="st1" d="M42,63.5c-0.276,0-0.5-0.224-0.5-0.5v-1.955c0-0.762-0.424-1.448-1.105-1.789l-5.627-2.813
			c-0.247-0.124-0.347-0.424-0.224-0.671c0.125-0.247,0.424-0.345,0.671-0.224l5.627,2.813c1.022,0.511,1.658,1.54,1.658,2.683V63
			C42.5,63.276,42.276,63.5,42,63.5z"/>
	</g>
	<g>
		<path class="st1" d="M32,55.5c-3.584,0-6.5-2.916-6.5-6.5s2.916-6.5,6.5-6.5s6.5,2.916,6.5,6.5S35.584,55.5,32,55.5z M32,43.5
			c-3.033,0-5.5,2.467-5.5,5.5s2.467,5.5,5.5,5.5c3.032,0,5.5-2.467,5.5-5.5S35.032,43.5,32,43.5z"/>
	</g>
	<g>
		<path class="st2" d="M36.16,45.531l0.447-0.372C35.507,43.84,33.852,43,32,43c-3.314,0-6,2.686-6,6h0.566
			C30.071,49,33.466,47.773,36.16,45.531z"/>
		<path class="st1" d="M26.566,49.5H26c-0.276,0-0.5-0.224-0.5-0.5c0-3.584,2.916-6.5,6.5-6.5c1.932,0,3.751,0.852,4.991,2.338
			c0.085,0.102,0.126,0.233,0.114,0.366s-0.076,0.254-0.179,0.339l-0.447,0.372C33.701,48.227,30.181,49.5,26.566,49.5z
			 M26.522,48.5h0.044c3.381,0,6.675-1.191,9.274-3.354l0,0l0.045-0.038C34.857,44.081,33.467,43.5,32,43.5
			C29.136,43.5,26.776,45.701,26.522,48.5z"/>
	</g>
	<g>
		<path class="st1" d="M31.995,60.996c-0.167,0-0.323-0.083-0.416-0.222l-3.004-4.491c-0.055-0.082-0.084-0.179-0.084-0.277
			l-0.001-1.82c0-0.179,0.096-0.345,0.25-0.434c0.157-0.089,0.347-0.088,0.501,0.001c1.674,0.976,3.824,0.979,5.499,0.011
			c0.154-0.089,0.346-0.089,0.5,0c0.154,0.089,0.25,0.254,0.25,0.433l0.001,1.798c0,0.099-0.029,0.195-0.084,0.277l-2.996,4.5
			C32.319,60.912,32.163,60.996,31.995,60.996L31.995,60.996z M29.491,55.853l2.503,3.742l2.497-3.75L34.49,55
			c-1.583,0.658-3.42,0.656-5-0.009L29.491,55.853z"/>
	</g>
	<g>
		<path class="st1" d="M21.995,63.5c-0.276,0-0.5-0.224-0.5-0.5v-1.954c0-1.145,0.636-2.173,1.659-2.684l5.613-2.804
			c0.247-0.123,0.548-0.023,0.671,0.224c0.124,0.247,0.023,0.547-0.224,0.671l-5.613,2.804c-0.683,0.341-1.106,1.026-1.106,1.79V63
			C22.495,63.276,22.271,63.5,21.995,63.5z"/>
	</g>
	<g>
		<path class="st1" d="M31.995,63.5c-0.276,0-0.5-0.224-0.5-0.5v-2.504c0-0.276,0.224-0.5,0.5-0.5s0.5,0.224,0.5,0.5V63
			C32.495,63.276,32.271,63.5,31.995,63.5z"/>
	</g>
	<g>
		<path class="st1" d="M56,3.5h-4c-0.276,0-0.5-0.224-0.5-0.5s0.224-0.5,0.5-0.5h4c0.276,0,0.5,0.224,0.5,0.5S56.276,3.5,56,3.5z"/>
	</g>
	<g>
		<path class="st1" d="M54,5.5c-0.276,0-0.5-0.224-0.5-0.5V1c0-0.276,0.224-0.5,0.5-0.5s0.5,0.224,0.5,0.5v4
			C54.5,5.276,54.276,5.5,54,5.5z"/>
	</g>
	<g>
		<path class="st1" d="M63,10h-4c-0.276,0-0.5-0.224-0.5-0.5S58.724,9,59,9h4c0.276,0,0.5,0.224,0.5,0.5S63.276,10,63,10z"/>
	</g>
	<g>
		<path class="st1" d="M61,12c-0.276,0-0.5-0.224-0.5-0.5v-4C60.5,7.224,60.724,7,61,7s0.5,0.224,0.5,0.5v4
			C61.5,11.776,61.276,12,61,12z"/>
	</g>
</g>
</svg>
