<?xml version="1.0" encoding="utf-8"?>
<!-- Generator: Adobe Illustrator 22.0.0, SVG Export Plug-In . SVG Version: 6.00 Build 0)  -->
<svg version="1.1" id="Icon_Set" xmlns="http://www.w3.org/2000/svg" xmlns:xlink="http://www.w3.org/1999/xlink" x="0px" y="0px"
	 viewBox="0 0 64 64" style="enable-background:new 0 0 64 64;" xml:space="preserve">
<style type="text/css">
	.st0{fill:#40C4FF;}
	.st1{fill:#263238;}
	.st2{fill:#FFD740;}
	.st3{fill:#FF5252;}
	.st4{fill:#4DB6AC;}
	.st5{fill:#FFFFFF;}
	.st6{fill:#4FC3F7;}
	.st7{fill:#37474F;}
</style>
<g>
	<g>
		<path class="st1" d="M53,3h-4c-0.276,0-0.5-0.224-0.5-0.5S48.724,2,49,2h4c0.276,0,0.5,0.224,0.5,0.5S53.276,3,53,3z"/>
	</g>
	<g>
		<path class="st1" d="M51,5c-0.276,0-0.5-0.224-0.5-0.5v-4C50.5,0.224,50.724,0,51,0s0.5,0.224,0.5,0.5v4C51.5,4.776,51.276,5,51,5
			z"/>
	</g>
	<g>
		<path class="st1" d="M58.5,8.5h-4C54.224,8.5,54,8.276,54,8s0.224-0.5,0.5-0.5h4C58.776,7.5,59,7.724,59,8S58.776,8.5,58.5,8.5z"
			/>
	</g>
	<g>
		<path class="st1" d="M56.5,10.5c-0.276,0-0.5-0.224-0.5-0.5V6c0-0.276,0.224-0.5,0.5-0.5S57,5.724,57,6v4
			C57,10.276,56.776,10.5,56.5,10.5z"/>
	</g>
	<g>
		<path class="st1" d="M56.5,59c-0.276,0-0.5-0.224-0.5-0.5v-2c0-0.276,0.224-0.5,0.5-0.5s0.5,0.224,0.5,0.5v2
			C57,58.776,56.776,59,56.5,59z"/>
	</g>
	<g>
		<path class="st1" d="M56.5,55c-0.276,0-0.5-0.224-0.5-0.5v-18c0-0.276,0.224-0.5,0.5-0.5s0.5,0.224,0.5,0.5v18
			C57,54.776,56.776,55,56.5,55z"/>
	</g>
	<g>
		<path class="st1" d="M38,28.5H14c-0.276,0-0.5-0.224-0.5-0.5s0.224-0.5,0.5-0.5h24c0.276,0,0.5,0.224,0.5,0.5S38.276,28.5,38,28.5
			z"/>
	</g>
	<g>
		<path class="st1" d="M38,32.5H14c-0.276,0-0.5-0.224-0.5-0.5s0.224-0.5,0.5-0.5h24c0.276,0,0.5,0.224,0.5,0.5S38.276,32.5,38,32.5
			z"/>
	</g>
	<g>
		<path class="st1" d="M33,36.5H18c-0.276,0-0.5-0.224-0.5-0.5s0.224-0.5,0.5-0.5h15c0.276,0,0.5,0.224,0.5,0.5S33.276,36.5,33,36.5
			z"/>
	</g>
	<g>
		<path class="st1" d="M29,40.5H18c-0.276,0-0.5-0.224-0.5-0.5s0.224-0.5,0.5-0.5h11c0.276,0,0.5,0.224,0.5,0.5S29.276,40.5,29,40.5
			z"/>
	</g>
	<g>
		<path class="st1" d="M20,50h-6c-0.276,0-0.5-0.224-0.5-0.5S13.724,49,14,49h6c0.276,0,0.5,0.224,0.5,0.5S20.276,50,20,50z"/>
	</g>
	<g>
		<path class="st1" d="M51.5,28.241c-0.276,0-0.5-0.224-0.5-0.5V14c0-1.103-0.897-2-2-2h-0.5c-0.276,0-0.5-0.224-0.5-0.5
			s0.224-0.5,0.5-0.5H49c1.654,0,3,1.346,3,3v13.741C52,28.018,51.776,28.241,51.5,28.241z"/>
	</g>
	<g>
		<path class="st1" d="M49,64H12c-1.654,0-3-1.346-3-3v-0.5C9,60.224,9.224,60,9.5,60s0.5,0.224,0.5,0.5V61c0,1.103,0.897,2,2,2h37
			c1.103,0,2-0.897,2-2V38.322c0-0.276,0.224-0.5,0.5-0.5s0.5,0.224,0.5,0.5V61C52,62.654,50.654,64,49,64z"/>
	</g>
	<g>
		<circle class="st2" cx="26" cy="17.5" r="5"/>
		<path class="st1" d="M26,23c-3.033,0-5.5-2.468-5.5-5.5S22.967,12,26,12s5.5,2.468,5.5,5.5S29.033,23,26,23z M26,13
			c-2.481,0-4.5,2.019-4.5,4.5S23.519,22,26,22s4.5-2.019,4.5-4.5S28.481,13,26,13z"/>
	</g>
	<g>
		<path class="st1" d="M16,36.5h-2c-0.276,0-0.5-0.224-0.5-0.5s0.224-0.5,0.5-0.5h2c0.276,0,0.5,0.224,0.5,0.5S16.276,36.5,16,36.5z
			"/>
	</g>
	<g>
		<path class="st1" d="M16,40.5h-2c-0.276,0-0.5-0.224-0.5-0.5s0.224-0.5,0.5-0.5h2c0.276,0,0.5,0.224,0.5,0.5S16.276,40.5,16,40.5z
			"/>
	</g>
	<g>
		<path class="st1" d="M25.5,44.5H18c-0.276,0-0.5-0.224-0.5-0.5s0.224-0.5,0.5-0.5h7.5c0.276,0,0.5,0.224,0.5,0.5
			S25.776,44.5,25.5,44.5z"/>
	</g>
	<g>
		<path class="st1" d="M16,44.5h-2c-0.276,0-0.5-0.224-0.5-0.5s0.224-0.5,0.5-0.5h2c0.276,0,0.5,0.224,0.5,0.5S16.276,44.5,16,44.5z
			"/>
	</g>
	<g>
		<path class="st1" d="M43.5,15c-0.276,0-0.5-0.224-0.5-0.5v-4c0-0.275-0.224-0.5-0.5-0.5h-4C38.224,10,38,9.776,38,9.5
			S38.224,9,38.5,9h4c0.827,0,1.5,0.673,1.5,1.5v4C44,14.776,43.776,15,43.5,15z"/>
	</g>
	<g>
		<path class="st0" d="M50.768,29.862l-0.707-0.707c-0.976-0.976-2.559-0.976-3.536,0L27.08,48.601l4.243,4.243l19.445-19.445
			C51.744,32.421,51.744,30.838,50.768,29.862z"/>
		<path class="st1" d="M31.322,53.343c-0.128,0-0.256-0.049-0.354-0.146l-4.243-4.242c-0.094-0.094-0.146-0.221-0.146-0.354
			s0.053-0.26,0.146-0.354l19.445-19.445c1.134-1.133,3.11-1.133,4.243,0l0.707,0.707C51.688,30.075,52,30.829,52,31.63
			c0,0.802-0.312,1.555-0.879,2.121L31.676,53.196C31.578,53.294,31.45,53.343,31.322,53.343z M27.787,48.601l3.536,3.535
			l19.092-19.092C50.792,32.666,51,32.164,51,31.63s-0.208-1.036-0.586-1.414l-0.707-0.707c-0.756-0.756-2.073-0.756-2.829,0
			L27.787,48.601z"/>
	</g>
	<g>
		<path class="st1" d="M21.423,59c-0.13,0-0.258-0.051-0.354-0.146c-0.134-0.134-0.181-0.332-0.121-0.512l2.121-6.364
			c0.024-0.073,0.066-0.141,0.121-0.195l3.536-3.535c0.195-0.195,0.512-0.195,0.707,0l4.243,4.242c0.195,0.195,0.195,0.512,0,0.707
			l-3.536,3.536c-0.055,0.055-0.122,0.097-0.195,0.121l-6.364,2.121C21.529,58.991,21.476,59,21.423,59z M23.981,52.406
			l-1.768,5.304l5.303-1.769l3.099-3.099l-3.536-3.535L23.981,52.406z"/>
	</g>
	<g>
		<path class="st1" d="M21.423,59c-0.13,0-0.258-0.051-0.354-0.146c-0.134-0.134-0.181-0.332-0.121-0.512l1.414-4.242
			c0.055-0.164,0.19-0.289,0.359-0.328c0.169-0.042,0.346,0.011,0.468,0.133l2.829,2.828c0.123,0.122,0.173,0.3,0.133,0.469
			c-0.04,0.168-0.165,0.305-0.329,0.359l-4.243,1.414C21.529,58.991,21.476,59,21.423,59z M23.056,55.184l-0.842,2.525l2.526-0.842
			L23.056,55.184z"/>
	</g>
	<g>
		<path class="st1" d="M43.343,44.15c-0.128,0-0.256-0.049-0.354-0.146c-0.195-0.195-0.195-0.512,0-0.707l7.071-7.07
			c0.195-0.195,0.512-0.195,0.707,0s0.195,0.512,0,0.707l-7.071,7.07C43.599,44.102,43.471,44.15,43.343,44.15z"/>
	</g>
	<g>
		<path class="st1" d="M19.433,59H8c-1.654,0-3-1.346-3-3V9c0-1.654,1.346-3,3-3h36c1.654,0,3,1.346,3,3v17.801
			c0,0.276-0.224,0.5-0.5,0.5s-0.5-0.224-0.5-0.5V9c0-1.103-0.897-2-2-2H8C6.897,7,6,7.897,6,9v47c0,1.103,0.897,2,2,2h11.433
			c0.276,0,0.5,0.224,0.5,0.5S19.709,59,19.433,59z"/>
	</g>
	<g>
		<path class="st1" d="M44,59H27.748c-0.276,0-0.5-0.224-0.5-0.5s0.224-0.5,0.5-0.5H44c1.103,0,2-0.897,2-2V43.322
			c0-0.276,0.224-0.5,0.5-0.5s0.5,0.224,0.5,0.5V56C47,57.654,45.654,59,44,59z"/>
	</g>
</g>
</svg>
