<?xml version="1.0" encoding="utf-8"?>
<!-- Generator: Adobe Illustrator 22.0.0, SVG Export Plug-In . SVG Version: 6.00 Build 0)  -->
<svg version="1.1" id="Icon_Set" xmlns="http://www.w3.org/2000/svg" xmlns:xlink="http://www.w3.org/1999/xlink" x="0px" y="0px"
	 viewBox="0 0 64 64" style="enable-background:new 0 0 64 64;" xml:space="preserve">
<style type="text/css">
	.st0{fill:#40C4FF;}
	.st1{fill:#263238;}
	.st2{fill:#FFD740;}
	.st3{fill:#FF5252;}
	.st4{fill:#4DB6AC;}
	.st5{fill:#FFFFFF;}
	.st6{fill:#4FC3F7;}
	.st7{fill:#37474F;}
</style>
<g>
	<g>
		<path class="st0" d="M26,25H10c-0.552,0-1-0.448-1-1v-9c0-0.552,0.448-1,1-1h16c0.552,0,1,0.448,1,1v9C27,24.552,26.552,25,26,25z
			"/>
		<path class="st1" d="M26,25.5H10c-0.827,0-1.5-0.673-1.5-1.5v-9c0-0.827,0.673-1.5,1.5-1.5h16c0.827,0,1.5,0.673,1.5,1.5v9
			C27.5,24.827,26.827,25.5,26,25.5z M10,14.5c-0.276,0-0.5,0.224-0.5,0.5v9c0,0.276,0.224,0.5,0.5,0.5h16
			c0.276,0,0.5-0.224,0.5-0.5v-9c0-0.276-0.224-0.5-0.5-0.5H10z"/>
	</g>
	<g>
		<polygon class="st2" points="9.5,38.5 14.5,34 19.5,35 24.5,30 29.5,31.5 34.5,25.5 39.5,39 44.5,33.5 49.5,35.5 54.5,20.5 
			54.5,50.5 9.5,50.5 		"/>
	</g>
	<g>
		<path class="st1" d="M57.5,55h-51c-1.654,0-3-1.398-3-3.116V12.116C3.5,10.398,4.846,9,6.5,9h51c1.654,0,3,1.398,3,3.116v39.768
			C60.5,53.602,59.154,55,57.5,55z M6.5,10c-1.103,0-2,0.949-2,2.116v39.768C4.5,53.051,5.397,54,6.5,54h51c1.103,0,2-0.949,2-2.116
			V12.116c0-1.167-0.897-2.116-2-2.116H6.5z"/>
	</g>
	<g>
		<path class="st1" d="M21,17.5H11c-0.276,0-0.5-0.224-0.5-0.5s0.224-0.5,0.5-0.5h10c0.276,0,0.5,0.224,0.5,0.5S21.276,17.5,21,17.5
			z"/>
	</g>
	<g>
		<path class="st1" d="M21,20H11c-0.276,0-0.5-0.224-0.5-0.5S10.724,19,11,19h10c0.276,0,0.5,0.224,0.5,0.5S21.276,20,21,20z"/>
	</g>
	<g>
		<path class="st1" d="M16,22.5h-5c-0.276,0-0.5-0.224-0.5-0.5s0.224-0.5,0.5-0.5h5c0.276,0,0.5,0.224,0.5,0.5S16.276,22.5,16,22.5z
			"/>
	</g>
	<g>
		<path class="st1" d="M39.5,39.5c-0.032,0-0.063-0.003-0.095-0.009c-0.171-0.033-0.313-0.153-0.374-0.317l-4.7-12.69l-4.447,5.336
			c-0.128,0.154-0.336,0.217-0.528,0.159l-4.714-1.414l-4.789,4.789c-0.118,0.118-0.288,0.167-0.452,0.137l-4.754-0.951
			l-4.813,4.332c-0.207,0.184-0.521,0.168-0.706-0.037c-0.185-0.205-0.168-0.521,0.037-0.706l5-4.5
			c0.118-0.105,0.278-0.148,0.433-0.119l4.737,0.947l4.811-4.811c0.131-0.13,0.322-0.178,0.497-0.125l4.684,1.405l4.789-5.747
			c0.114-0.137,0.289-0.203,0.469-0.172c0.176,0.03,0.322,0.152,0.384,0.319l4.714,12.729l4.447-4.892
			c0.14-0.155,0.363-0.205,0.556-0.128l4.508,1.803l4.833-14.497c0.087-0.261,0.368-0.405,0.632-0.316
			c0.262,0.087,0.403,0.37,0.316,0.632l-5,15c-0.043,0.13-0.139,0.237-0.264,0.295c-0.125,0.058-0.268,0.062-0.396,0.011
			l-4.678-1.871l-4.767,5.243C39.774,39.441,39.64,39.5,39.5,39.5z"/>
	</g>
	<g>
		<path class="st1" d="M14.5,51c-0.276,0-0.5-0.224-0.5-0.5V34c0-0.276,0.224-0.5,0.5-0.5S15,33.724,15,34v16.5
			C15,50.776,14.776,51,14.5,51z"/>
	</g>
	<g>
		<path class="st1" d="M19.5,51c-0.276,0-0.5-0.224-0.5-0.5V35c0-0.276,0.224-0.5,0.5-0.5S20,34.724,20,35v15.5
			C20,50.776,19.776,51,19.5,51z"/>
	</g>
	<g>
		<path class="st1" d="M24.5,51c-0.276,0-0.5-0.224-0.5-0.5V30c0-0.276,0.224-0.5,0.5-0.5S25,29.724,25,30v20.5
			C25,50.776,24.776,51,24.5,51z"/>
	</g>
	<g>
		<path class="st1" d="M29.5,51c-0.276,0-0.5-0.224-0.5-0.5v-19c0-0.276,0.224-0.5,0.5-0.5s0.5,0.224,0.5,0.5v19
			C30,50.776,29.776,51,29.5,51z"/>
	</g>
	<g>
		<path class="st1" d="M34.5,51c-0.276,0-0.5-0.224-0.5-0.5v-25c0-0.276,0.224-0.5,0.5-0.5s0.5,0.224,0.5,0.5v25
			C35,50.776,34.776,51,34.5,51z"/>
	</g>
	<g>
		<path class="st1" d="M39.5,51c-0.276,0-0.5-0.224-0.5-0.5V39c0-0.276,0.224-0.5,0.5-0.5S40,38.724,40,39v11.5
			C40,50.776,39.776,51,39.5,51z"/>
	</g>
	<g>
		<path class="st1" d="M44.5,51c-0.276,0-0.5-0.224-0.5-0.5v-17c0-0.276,0.224-0.5,0.5-0.5s0.5,0.224,0.5,0.5v17
			C45,50.776,44.776,51,44.5,51z"/>
	</g>
	<g>
		<path class="st1" d="M49.5,51c-0.276,0-0.5-0.224-0.5-0.5v-15c0-0.276,0.224-0.5,0.5-0.5s0.5,0.224,0.5,0.5v15
			C50,50.776,49.776,51,49.5,51z"/>
	</g>
	<g>
		<path class="st1" d="M39,59h-2c-0.276,0-0.5-0.224-0.5-0.5S36.724,58,37,58h2c0.276,0,0.5,0.224,0.5,0.5S39.276,59,39,59z"/>
	</g>
	<g>
		<path class="st1" d="M35,59H15c-0.276,0-0.5-0.224-0.5-0.5S14.724,58,15,58h20c0.276,0,0.5,0.224,0.5,0.5S35.276,59,35,59z"/>
	</g>
	<g>
		<path class="st1" d="M32,6h-2c-0.276,0-0.5-0.224-0.5-0.5S29.724,5,30,5h2c0.276,0,0.5,0.224,0.5,0.5S32.276,6,32,6z"/>
	</g>
	<g>
		<path class="st1" d="M54,6H34c-0.276,0-0.5-0.224-0.5-0.5S33.724,5,34,5h20c0.276,0,0.5,0.224,0.5,0.5S54.276,6,54,6z"/>
	</g>
</g>
</svg>
