<?xml version="1.0" encoding="utf-8"?>
<!-- Generator: Adobe Illustrator 22.0.0, SVG Export Plug-In . SVG Version: 6.00 Build 0)  -->
<svg version="1.1" id="Icon_Set" xmlns="http://www.w3.org/2000/svg" xmlns:xlink="http://www.w3.org/1999/xlink" x="0px" y="0px"
	 viewBox="0 0 64 64" style="enable-background:new 0 0 64 64;" xml:space="preserve">
<style type="text/css">
	.st0{fill:#40C4FF;}
	.st1{fill:#263238;}
	.st2{fill:#FFD740;}
	.st3{fill:#FF5252;}
	.st4{fill:#4DB6AC;}
	.st5{fill:#FFFFFF;}
	.st6{fill:#4FC3F7;}
	.st7{fill:#37474F;}
</style>
<g>
	<g>
		<path class="st1" d="M4,32.5c-0.276,0-0.5-0.224-0.5-0.5C3.5,16.285,16.285,3.5,32,3.5c0.276,0,0.5,0.224,0.5,0.5
			S32.276,4.5,32,4.5C16.836,4.5,4.5,16.837,4.5,32C4.5,32.276,4.276,32.5,4,32.5z"/>
	</g>
	<g>
		<path class="st1" d="M35,4.5h-1c-0.276,0-0.5-0.224-0.5-0.5s0.224-0.5,0.5-0.5h1c0.276,0,0.5,0.224,0.5,0.5S35.276,4.5,35,4.5z"/>
	</g>
	<g>
		<path class="st1" d="M32,60.5c-0.276,0-0.5-0.224-0.5-0.5s0.224-0.5,0.5-0.5c15.164,0,27.5-12.337,27.5-27.5
			c0-0.276,0.224-0.5,0.5-0.5s0.5,0.224,0.5,0.5C60.5,47.715,47.715,60.5,32,60.5z"/>
	</g>
	<g>
		<path class="st1" d="M30,60.5h-1c-0.276,0-0.5-0.224-0.5-0.5s0.224-0.5,0.5-0.5h1c0.276,0,0.5,0.224,0.5,0.5S30.276,60.5,30,60.5z
			"/>
	</g>
	<g>
		<path class="st3" d="M32,8C18.745,8,8,18.745,8,32s10.745,24,24,24s24-10.745,24-24S45.255,8,32,8z M32,47
			c-8.284,0-15-6.716-15-15s6.716-15,15-15s15,6.716,15,15S40.284,47,32,47z"/>
		<path class="st1" d="M32,56.5C18.491,56.5,7.5,45.51,7.5,32S18.491,7.5,32,7.5S56.5,18.49,56.5,32S45.509,56.5,32,56.5z M32,8.5
			C19.042,8.5,8.5,19.042,8.5,32S19.042,55.5,32,55.5S55.5,44.958,55.5,32S44.958,8.5,32,8.5z M32,47.5
			c-8.547,0-15.5-6.953-15.5-15.5S23.453,16.5,32,16.5S47.5,23.453,47.5,32S40.547,47.5,32,47.5z M32,17.5
			c-7.995,0-14.5,6.505-14.5,14.5S24.005,46.5,32,46.5S46.5,39.995,46.5,32S39.995,17.5,32,17.5z"/>
	</g>
	<g>
		<path class="st1" d="M53,6.5h-4c-0.276,0-0.5-0.224-0.5-0.5s0.224-0.5,0.5-0.5h4c0.276,0,0.5,0.224,0.5,0.5S53.276,6.5,53,6.5z"/>
	</g>
	<g>
		<path class="st1" d="M51,8.5c-0.276,0-0.5-0.224-0.5-0.5V4c0-0.276,0.224-0.5,0.5-0.5s0.5,0.224,0.5,0.5v4
			C51.5,8.276,51.276,8.5,51,8.5z"/>
	</g>
	<g>
		<path class="st1" d="M60,13h-4c-0.276,0-0.5-0.224-0.5-0.5S55.724,12,56,12h4c0.276,0,0.5,0.224,0.5,0.5S60.276,13,60,13z"/>
	</g>
	<g>
		<path class="st1" d="M58,15c-0.276,0-0.5-0.224-0.5-0.5v-4c0-0.276,0.224-0.5,0.5-0.5s0.5,0.224,0.5,0.5v4
			C58.5,14.776,58.276,15,58,15z"/>
	</g>
	<g>
		<path class="st5" d="M32,47c-1.638,0-3.211-0.272-4.687-0.757l-0.761,9.129C28.303,55.778,30.125,56,32,56
			s3.697-0.222,5.448-0.628l-0.761-9.129C35.211,46.728,33.638,47,32,47z"/>
		<path class="st1" d="M32,56.5c-1.858,0-3.729-0.216-5.561-0.642c-0.242-0.057-0.406-0.281-0.385-0.529l0.761-9.129
			c0.013-0.152,0.094-0.29,0.222-0.375c0.128-0.084,0.288-0.106,0.432-0.058c2.952,0.973,6.109,0.973,9.062,0
			c0.144-0.05,0.304-0.027,0.432,0.058s0.209,0.223,0.222,0.375l0.761,9.129c0.021,0.248-0.143,0.473-0.385,0.529
			C35.729,56.284,33.858,56.5,32,56.5z M27.087,54.979c3.244,0.691,6.582,0.691,9.826,0l-0.673-8.076
			c-2.775,0.793-5.705,0.793-8.48,0L27.087,54.979z"/>
	</g>
	<g>
		<path class="st5" d="M32,17c1.638,0,3.211,0.272,4.687,0.757l0.761-9.129C35.697,8.222,33.875,8,32,8s-3.697,0.222-5.448,0.628
			l0.761,9.129C28.789,17.272,30.362,17,32,17z"/>
		<path class="st1" d="M36.687,18.258c-0.053,0-0.105-0.008-0.156-0.025c-2.952-0.973-6.109-0.973-9.062,0
			c-0.146,0.049-0.305,0.026-0.432-0.058c-0.128-0.085-0.209-0.223-0.222-0.375l-0.761-9.129c-0.021-0.248,0.143-0.473,0.385-0.529
			c3.663-0.852,7.459-0.852,11.122,0c0.242,0.057,0.406,0.281,0.385,0.529L37.185,17.8c-0.013,0.152-0.094,0.29-0.222,0.375
			C36.88,18.229,36.784,18.258,36.687,18.258z M32,16.5c1.429,0,2.853,0.201,4.24,0.598l0.673-8.076
			c-3.244-0.691-6.582-0.691-9.826,0l0.673,8.076C29.147,16.701,30.571,16.5,32,16.5z"/>
	</g>
	<g>
		<path class="st5" d="M17,32c0-1.638,0.272-3.211,0.757-4.687l-9.129-0.761C8.222,28.303,8,30.125,8,32s0.222,3.697,0.628,5.448
			l9.129-0.761C17.272,35.211,17,33.638,17,32z"/>
		<path class="st1" d="M8.628,37.947c-0.23,0-0.434-0.159-0.486-0.387C7.716,35.729,7.5,33.857,7.5,32s0.216-3.729,0.642-5.561
			c0.056-0.241,0.28-0.408,0.528-0.385l9.129,0.761c0.152,0.013,0.291,0.095,0.375,0.222c0.084,0.128,0.106,0.287,0.058,0.433
			c-0.486,1.476-0.732,3-0.732,4.53s0.247,3.055,0.732,4.53c0.048,0.146,0.026,0.305-0.058,0.433
			c-0.084,0.127-0.223,0.209-0.375,0.222L8.67,37.945C8.656,37.946,8.642,37.947,8.628,37.947z M9.021,27.087
			C8.675,28.71,8.5,30.36,8.5,32s0.175,3.29,0.521,4.913l8.076-0.673C16.701,34.853,16.5,33.429,16.5,32s0.201-2.853,0.597-4.24
			L9.021,27.087z"/>
	</g>
	<g>
		<path class="st5" d="M47,32c0,1.638-0.272,3.211-0.757,4.687l9.129,0.761C55.778,35.697,56,33.875,56,32s-0.222-3.697-0.628-5.448
			l-9.129,0.761C46.728,28.789,47,30.362,47,32z"/>
		<path class="st1" d="M55.372,37.947c-0.014,0-0.028-0.001-0.042-0.002l-9.129-0.761c-0.152-0.013-0.291-0.095-0.375-0.222
			c-0.084-0.128-0.106-0.287-0.058-0.433c0.486-1.476,0.732-3,0.732-4.53s-0.247-3.055-0.732-4.53
			c-0.048-0.146-0.026-0.305,0.058-0.433c0.084-0.127,0.223-0.209,0.375-0.222l9.129-0.761c0.246-0.023,0.472,0.144,0.528,0.385
			C56.284,28.271,56.5,30.143,56.5,32s-0.216,3.729-0.642,5.561C55.806,37.788,55.603,37.947,55.372,37.947z M46.903,36.24
			l8.076,0.673C55.325,35.29,55.5,33.64,55.5,32s-0.175-3.29-0.521-4.913l-8.076,0.673C47.299,29.147,47.5,30.571,47.5,32
			S47.299,34.853,46.903,36.24z"/>
	</g>
	<g>
		<path class="st0" d="M30.5,38.75h-6c-0.631,0-1.195-0.396-1.411-0.989c-0.215-0.594-0.035-1.259,0.45-1.663l5.101-4.25
			c0.229-0.19,0.36-0.471,0.36-0.769V29.25c0-0.552-0.449-1-1-1h-1c-0.551,0-1,0.448-1,1v2c0,0.828-0.671,1.5-1.5,1.5
			s-1.5-0.672-1.5-1.5v-2c0-2.206,1.794-4,4-4h1c2.206,0,4,1.794,4,4v1.829c0,1.189-0.524,2.31-1.438,3.072l-1.918,1.599H30.5
			c0.829,0,1.5,0.672,1.5,1.5S31.329,38.75,30.5,38.75z"/>
		<path class="st1" d="M30.5,39.25h-6c-0.839,0-1.595-0.53-1.881-1.318c-0.285-0.79-0.044-1.681,0.6-2.218l5.101-4.25
			c0.114-0.096,0.18-0.235,0.18-0.385V29.25c0-0.275-0.224-0.5-0.5-0.5h-1c-0.276,0-0.5,0.225-0.5,0.5v2c0,1.103-0.897,2-2,2
			s-2-0.897-2-2v-2c0-2.481,2.019-4.5,4.5-4.5h1c2.481,0,4.5,2.019,4.5,4.5v1.829c0,1.339-0.59,2.598-1.618,3.456l-0.857,0.715H30.5
			c1.103,0,2,0.897,2,2S31.603,39.25,30.5,39.25z M27,27.75h1c0.827,0,1.5,0.673,1.5,1.5v1.829c0,0.446-0.197,0.867-0.54,1.152
			l-5.101,4.25c-0.322,0.269-0.443,0.715-0.3,1.109c0.143,0.395,0.521,0.659,0.94,0.659h6c0.551,0,1-0.448,1-1s-0.449-1-1-1h-1.856
			c-0.21,0-0.398-0.132-0.47-0.33c-0.072-0.197-0.012-0.419,0.15-0.554l1.918-1.599c0.8-0.668,1.259-1.647,1.259-2.688V29.25
			c0-1.93-1.57-3.5-3.5-3.5h-1c-1.93,0-3.5,1.57-3.5,3.5v2c0,0.552,0.449,1,1,1s1-0.448,1-1v-2C25.5,28.423,26.173,27.75,27,27.75z"
			/>
	</g>
	<g>
		<path class="st0" d="M39.5,25.25c-0.829,0-1.5,0.672-1.5,1.5v4h-3v-4c0-0.828-0.671-1.5-1.5-1.5s-1.5,0.672-1.5,1.5v5.5
			c0,0.828,0.671,1.5,1.5,1.5H38v3.5c0,0.828,0.671,1.5,1.5,1.5s1.5-0.672,1.5-1.5v-10.5C41,25.922,40.329,25.25,39.5,25.25z"/>
		<path class="st1" d="M39.5,39.25c-1.103,0-2-0.897-2-2v-3h-4c-1.103,0-2-0.897-2-2v-5.5c0-1.103,0.897-2,2-2s2,0.897,2,2v3.5h2
			v-3.5c0-1.103,0.897-2,2-2s2,0.897,2,2v10.5C41.5,38.353,40.603,39.25,39.5,39.25z M33.5,25.75c-0.551,0-1,0.448-1,1v5.5
			c0,0.552,0.449,1,1,1H38c0.276,0,0.5,0.224,0.5,0.5v3.5c0,0.552,0.449,1,1,1s1-0.448,1-1v-10.5c0-0.552-0.449-1-1-1s-1,0.448-1,1
			v4c0,0.276-0.224,0.5-0.5,0.5h-3c-0.276,0-0.5-0.224-0.5-0.5v-4C34.5,26.198,34.051,25.75,33.5,25.75z"/>
	</g>
</g>
</svg>
