<?xml version="1.0" encoding="utf-8"?>
<!-- Generator: Adobe Illustrator 22.0.0, SVG Export Plug-In . SVG Version: 6.00 Build 0)  -->
<svg version="1.1" id="Icon_Set" xmlns="http://www.w3.org/2000/svg" xmlns:xlink="http://www.w3.org/1999/xlink" x="0px" y="0px"
	 viewBox="0 0 64 64" style="enable-background:new 0 0 64 64;" xml:space="preserve">
<style type="text/css">
	.st0{fill:#40C4FF;}
	.st1{fill:#263238;}
	.st2{fill:#FFD740;}
	.st3{fill:#FF5252;}
	.st4{fill:#4DB6AC;}
	.st5{fill:#FFFFFF;}
	.st6{fill:#4FC3F7;}
	.st7{fill:#37474F;}
</style>
<g>
	<g>
		<path class="st1" d="M63,41.75c-0.276,0-0.5-0.224-0.5-0.5V5.75c0-1.103-0.897-2-2-2h-52c-1.103,0-2,0.897-2,2v35.5
			c0,0.276-0.224,0.5-0.5,0.5s-0.5-0.224-0.5-0.5V5.75c0-1.654,1.346-3,3-3h52c1.654,0,3,1.346,3,3v35.5
			C63.5,41.526,63.276,41.75,63,41.75z"/>
	</g>
	<g>
		<path class="st1" d="M34.507,48.25c-3.584,0-6.5-2.916-6.5-6.5s2.916-6.5,6.5-6.5s6.5,2.916,6.5,6.5S38.091,48.25,34.507,48.25z
			 M34.507,36.25c-3.032,0-5.5,2.467-5.5,5.5s2.467,5.5,5.5,5.5s5.5-2.467,5.5-5.5S37.539,36.25,34.507,36.25z"/>
	</g>
	<g>
		<path class="st2" d="M38.668,38.28l0.447-0.372c-1.101-1.319-2.755-2.159-4.607-2.159c-3.314,0-6,2.686-6,6h0.566
			C32.579,41.75,35.973,40.522,38.668,38.28z"/>
		<path class="st1" d="M29.074,42.25h-0.566c-0.276,0-0.5-0.224-0.5-0.5c0-3.584,2.916-6.5,6.5-6.5c1.932,0,3.751,0.852,4.991,2.338
			c0.085,0.102,0.126,0.233,0.114,0.365c-0.012,0.132-0.076,0.254-0.178,0.339l-0.446,0.372c0,0,0,0-0.001,0
			C36.209,40.977,32.688,42.25,29.074,42.25z M29.03,41.25h0.044c3.381,0,6.675-1.191,9.275-3.354l0.044-0.037
			c-1.028-1.028-2.419-1.609-3.886-1.609C31.643,36.25,29.283,38.45,29.03,41.25z M38.668,38.28h0.01H38.668z"/>
	</g>
	<g>
		<path class="st1" d="M34.503,53.717c-0.166,0-0.322-0.083-0.415-0.221l-3.004-4.462c-0.056-0.083-0.085-0.18-0.085-0.279
			l-0.001-1.82c0-0.179,0.096-0.345,0.25-0.434c0.156-0.089,0.347-0.088,0.501,0.001c1.675,0.975,3.823,0.978,5.498,0.011
			c0.154-0.089,0.346-0.089,0.5,0c0.154,0.089,0.25,0.254,0.25,0.433l0.002,1.798c0,0.099-0.029,0.196-0.085,0.279l-2.996,4.473
			C34.825,53.634,34.67,53.717,34.503,53.717C34.503,53.717,34.503,53.717,34.503,53.717z M31.999,48.602l2.503,3.718l2.497-3.728
			l-0.001-0.843c-1.582,0.66-3.418,0.657-5-0.008L31.999,48.602z"/>
	</g>
	<g>
		<path class="st1" d="M44.507,61.25c-0.276,0-0.5-0.224-0.5-0.5v-5.41c0-1.715-0.953-3.258-2.487-4.025l-4.245-2.123
			c-0.247-0.124-0.347-0.424-0.224-0.671c0.125-0.247,0.423-0.345,0.671-0.224l4.245,2.123c1.875,0.938,3.04,2.823,3.04,4.919v5.41
			C45.007,61.026,44.783,61.25,44.507,61.25z"/>
	</g>
	<g>
		<path class="st1" d="M24.502,61.25c-0.276,0-0.5-0.224-0.5-0.5v-5.408c0-2.098,1.166-3.983,3.042-4.92l4.23-2.113
			c0.246-0.123,0.547-0.023,0.671,0.224s0.023,0.547-0.224,0.671l-4.23,2.113c-1.536,0.767-2.489,2.31-2.489,4.026v5.408
			C25.002,61.026,24.779,61.25,24.502,61.25z"/>
	</g>
	<g>
		<path class="st1" d="M34.503,57.717c-0.276,0-0.5-0.224-0.5-0.5v-4c0-0.276,0.224-0.5,0.5-0.5s0.5,0.224,0.5,0.5v4
			C35.003,57.494,34.779,57.717,34.503,57.717z"/>
	</g>
	<g>
		<path class="st1" d="M14.505,48.25c-3.584,0-6.5-2.916-6.5-6.5s2.916-6.5,6.5-6.5s6.5,2.916,6.5,6.5S18.089,48.25,14.505,48.25z
			 M14.505,36.25c-3.033,0-5.5,2.467-5.5,5.5s2.467,5.5,5.5,5.5s5.5-2.467,5.5-5.5S17.538,36.25,14.505,36.25z"/>
	</g>
	<g>
		<path class="st2" d="M18.665,38.28l0.447-0.372c-1.101-1.319-2.755-2.159-4.607-2.159c-3.314,0-6,2.686-6,6h0.566
			C12.576,41.75,15.971,40.522,18.665,38.28z"/>
		<path class="st1" d="M9.071,42.25H8.505c-0.276,0-0.5-0.224-0.5-0.5c0-3.584,2.916-6.5,6.5-6.5c1.932,0,3.75,0.852,4.991,2.338
			c0.085,0.102,0.126,0.233,0.114,0.366c-0.012,0.132-0.076,0.254-0.178,0.339l-0.447,0.372C16.207,40.977,12.686,42.25,9.071,42.25
			z M9.027,41.25h0.044c3.381,0,6.675-1.191,9.274-3.354l0,0l0.045-0.038c-1.029-1.028-2.419-1.609-3.885-1.609
			C11.641,36.25,9.281,38.45,9.027,41.25z"/>
	</g>
	<g>
		<path class="st1" d="M14.5,53.717c-0.167,0-0.322-0.083-0.415-0.221l-3.003-4.462c-0.055-0.083-0.085-0.18-0.085-0.279
			l-0.001-1.82c0-0.179,0.095-0.345,0.25-0.434s0.347-0.089,0.501,0.001c1.674,0.975,3.824,0.979,5.499,0.011
			c0.155-0.089,0.345-0.089,0.5,0c0.154,0.089,0.25,0.254,0.25,0.433l0.001,1.798c0,0.099-0.029,0.196-0.084,0.279l-2.997,4.473
			C14.823,53.634,14.667,53.717,14.5,53.717L14.5,53.717z M11.997,48.602l2.502,3.718l2.498-3.728l-0.001-0.843
			c-1.583,0.659-3.419,0.657-5-0.008L11.997,48.602z"/>
	</g>
	<g>
		<path class="st1" d="M24.505,61.25c-0.276,0-0.5-0.224-0.5-0.5v-5.41c0-1.715-0.953-3.258-2.488-4.025l-4.245-2.123
			c-0.247-0.124-0.347-0.424-0.224-0.671c0.124-0.248,0.424-0.347,0.671-0.224l4.245,2.123c1.875,0.938,3.041,2.823,3.041,4.919
			v5.41C25.005,61.026,24.781,61.25,24.505,61.25z"/>
	</g>
	<g>
		<path class="st1" d="M4.5,61.25c-0.276,0-0.5-0.224-0.5-0.5v-5.408c0-2.098,1.166-3.983,3.042-4.92l4.231-2.113
			c0.248-0.123,0.548-0.023,0.671,0.224c0.124,0.247,0.023,0.547-0.224,0.671l-4.231,2.113C5.954,52.083,5,53.625,5,55.341v5.408
			C5,61.026,4.776,61.25,4.5,61.25z"/>
	</g>
	<g>
		<path class="st1" d="M14.5,57.717c-0.276,0-0.5-0.224-0.5-0.5v-4c0-0.276,0.224-0.5,0.5-0.5s0.5,0.224,0.5,0.5v4
			C15,57.494,14.776,57.717,14.5,57.717z"/>
	</g>
	<g>
		<path class="st1" d="M54.5,48.25c-3.584,0-6.5-2.916-6.5-6.5s2.916-6.5,6.5-6.5s6.5,2.916,6.5,6.5S58.084,48.25,54.5,48.25z
			 M54.5,36.25c-3.032,0-5.5,2.467-5.5,5.5s2.468,5.5,5.5,5.5s5.5-2.467,5.5-5.5S57.532,36.25,54.5,36.25z"/>
	</g>
	<g>
		<path class="st2" d="M58.66,38.28l0.447-0.372c-1.101-1.319-2.755-2.159-4.607-2.159c-3.314,0-6,2.686-6,6h0.566
			C52.571,41.75,55.966,40.522,58.66,38.28z"/>
		<path class="st1" d="M49.066,42.25H48.5c-0.276,0-0.5-0.224-0.5-0.5c0-3.584,2.916-6.5,6.5-6.5c1.932,0,3.751,0.852,4.991,2.338
			c0.085,0.102,0.126,0.233,0.114,0.366c-0.012,0.132-0.076,0.254-0.179,0.339l-0.447,0.372
			C56.201,40.977,52.681,42.25,49.066,42.25z M49.022,41.25h0.044c3.381,0,6.675-1.191,9.274-3.354l0,0l0.045-0.038
			c-1.029-1.028-2.419-1.609-3.886-1.609C51.636,36.25,49.275,38.45,49.022,41.25z"/>
	</g>
	<g>
		<path class="st1" d="M54.495,53.717c-0.166,0-0.322-0.083-0.415-0.221l-3.004-4.462c-0.056-0.083-0.085-0.18-0.085-0.279
			l-0.001-1.82c0-0.179,0.096-0.345,0.251-0.434s0.347-0.089,0.5,0.001c1.676,0.975,3.823,0.978,5.499,0.011
			c0.154-0.089,0.346-0.089,0.5,0c0.154,0.089,0.25,0.254,0.25,0.433l0.001,1.798c0,0.1-0.029,0.196-0.085,0.279l-2.996,4.473
			C54.817,53.634,54.662,53.717,54.495,53.717C54.495,53.717,54.495,53.717,54.495,53.717z M51.991,48.602l2.503,3.718l2.497-3.728
			L56.99,47.75c-1.583,0.659-3.417,0.656-5-0.008L51.991,48.602z"/>
	</g>
	<g>
		<path class="st1" d="M64.5,61.25c-0.276,0-0.5-0.224-0.5-0.5v-5.41c0-1.715-0.953-3.257-2.487-4.025l-4.245-2.123
			c-0.247-0.124-0.347-0.424-0.224-0.671c0.125-0.247,0.424-0.345,0.671-0.224l4.245,2.123C63.835,51.358,65,53.244,65,55.34v5.41
			C65,61.026,64.776,61.25,64.5,61.25z"/>
	</g>
	<g>
		<path class="st1" d="M44.495,61.25c-0.276,0-0.5-0.224-0.5-0.5v-5.408c0-2.098,1.166-3.983,3.042-4.92l4.23-2.113
			c0.248-0.122,0.547-0.023,0.671,0.224c0.123,0.247,0.023,0.547-0.224,0.671l-4.23,2.113c-1.535,0.767-2.489,2.31-2.489,4.026
			v5.408C44.995,61.026,44.771,61.25,44.495,61.25z"/>
	</g>
	<g>
		<path class="st1" d="M54.495,57.717c-0.276,0-0.5-0.224-0.5-0.5v-4c0-0.276,0.224-0.5,0.5-0.5s0.5,0.224,0.5,0.5v4
			C54.995,57.494,54.771,57.717,54.495,57.717z"/>
	</g>
	<g>
		<polygon class="st3" points="40.25,32.75 40.25,11.25 28.25,23.25 28.25,32.75 		"/>
	</g>
	<g>
		<polygon class="st0" points="20.25,15.25 9.75,25.75 9.75,32.75 28.25,32.75 28.25,23.25 		"/>
	</g>
	<g>
		<path class="st1" d="M9.75,26.25c-0.128,0-0.256-0.049-0.354-0.146c-0.195-0.195-0.195-0.512,0-0.707l10.5-10.5
			c0.195-0.195,0.512-0.195,0.707,0l7.646,7.646l11.646-11.646c0.195-0.195,0.512-0.195,0.707,0s0.195,0.512,0,0.707l-12,12
			c-0.195,0.195-0.512,0.195-0.707,0l-7.646-7.646L10.104,26.103C10.006,26.201,9.878,26.25,9.75,26.25z"/>
	</g>
	<g>
		<path class="st1" d="M40.25,15.75c-0.276,0-0.5-0.224-0.5-0.5v-3.5h-3.5c-0.276,0-0.5-0.224-0.5-0.5s0.224-0.5,0.5-0.5h4
			c0.276,0,0.5,0.224,0.5,0.5v4C40.75,15.526,40.526,15.75,40.25,15.75z"/>
	</g>
	<g>
		<path class="st1" d="M57.75,15.75h-12c-0.276,0-0.5-0.224-0.5-0.5v-4c0-0.276,0.224-0.5,0.5-0.5h12c0.276,0,0.5,0.224,0.5,0.5v4
			C58.25,15.526,58.026,15.75,57.75,15.75z M46.25,14.75h11v-3h-11V14.75z"/>
	</g>
	<g>
		<path class="st1" d="M57.75,20.75h-12c-0.276,0-0.5-0.224-0.5-0.5s0.224-0.5,0.5-0.5h12c0.276,0,0.5,0.224,0.5,0.5
			S58.026,20.75,57.75,20.75z"/>
	</g>
	<g>
		<path class="st1" d="M57.75,24.75h-12c-0.276,0-0.5-0.224-0.5-0.5s0.224-0.5,0.5-0.5h12c0.276,0,0.5,0.224,0.5,0.5
			S58.026,24.75,57.75,24.75z"/>
	</g>
	<g>
		<path class="st1" d="M57.75,28.75h-12c-0.276,0-0.5-0.224-0.5-0.5s0.224-0.5,0.5-0.5h12c0.276,0,0.5,0.224,0.5,0.5
			S58.026,28.75,57.75,28.75z"/>
	</g>
</g>
</svg>
