<?xml version="1.0" encoding="utf-8"?>
<!-- Generator: Adobe Illustrator 22.0.0, SVG Export Plug-In . SVG Version: 6.00 Build 0)  -->
<svg version="1.1" id="Icon_Set" xmlns="http://www.w3.org/2000/svg" xmlns:xlink="http://www.w3.org/1999/xlink" x="0px" y="0px"
	 viewBox="0 0 64 64" style="enable-background:new 0 0 64 64;" xml:space="preserve">
<style type="text/css">
	.st0{fill:#40C4FF;}
	.st1{fill:#263238;}
	.st2{fill:#FFD740;}
	.st3{fill:#FF5252;}
	.st4{fill:#4DB6AC;}
	.st5{fill:#FFFFFF;}
	.st6{fill:#4FC3F7;}
	.st7{fill:#37474F;}
</style>
<g>
	<g>
		<path class="st1" d="M39,8.5h-4c-0.276,0-0.5-0.224-0.5-0.5s0.224-0.5,0.5-0.5h4c0.276,0,0.5,0.224,0.5,0.5S39.276,8.5,39,8.5z"/>
	</g>
	<g>
		<path class="st1" d="M37,10.5c-0.276,0-0.5-0.224-0.5-0.5V6c0-0.276,0.224-0.5,0.5-0.5s0.5,0.224,0.5,0.5v4
			C37.5,10.276,37.276,10.5,37,10.5z"/>
	</g>
	<g>
		<path class="st1" d="M46,15h-4c-0.276,0-0.5-0.224-0.5-0.5S41.724,14,42,14h4c0.276,0,0.5,0.224,0.5,0.5S46.276,15,46,15z"/>
	</g>
	<g>
		<path class="st1" d="M44,17c-0.276,0-0.5-0.224-0.5-0.5v-4c0-0.276,0.224-0.5,0.5-0.5s0.5,0.224,0.5,0.5v4
			C44.5,16.776,44.276,17,44,17z"/>
	</g>
	<g>
		<path class="st1" d="M16.5,53.499h-10c-0.276,0-0.5-0.224-0.5-0.5s0.224-0.5,0.5-0.5h10c0.276,0,0.5,0.224,0.5,0.5
			S16.776,53.499,16.5,53.499z"/>
	</g>
	<g>
		<path class="st1" d="M4.5,53.499h-1c-0.276,0-0.5-0.224-0.5-0.5s0.224-0.5,0.5-0.5h1c0.276,0,0.5,0.224,0.5,0.5
			S4.776,53.499,4.5,53.499z"/>
	</g>
	<g>
		<path class="st1" d="M57.5,53.499h-10c-0.276,0-0.5-0.224-0.5-0.5s0.224-0.5,0.5-0.5h10c0.276,0,0.5,0.224,0.5,0.5
			S57.776,53.499,57.5,53.499z"/>
	</g>
	<g>
		<path class="st1" d="M60.5,53.499h-1c-0.276,0-0.5-0.224-0.5-0.5s0.224-0.5,0.5-0.5h1c0.276,0,0.5,0.224,0.5,0.5
			S60.776,53.499,60.5,53.499z"/>
	</g>
	<g>
		<path class="st1" d="M32,33.5c-4.687,0-8.5-3.813-8.5-8.5s3.813-8.5,8.5-8.5s8.5,3.813,8.5,8.5S36.687,33.5,32,33.5z M32,17.5
			c-4.136,0-7.5,3.364-7.5,7.5s3.364,7.5,7.5,7.5s7.5-3.364,7.5-7.5S36.136,17.5,32,17.5z"/>
	</g>
	<g>
		<path class="st2" d="M37.547,20.374l0.596-0.496C36.676,18.12,34.469,17,32,17c-4.418,0-8,3.582-8,8h0.755
			C29.429,25,33.955,23.363,37.547,20.374z"/>
		<path class="st1" d="M24.755,25.5H24c-0.276,0-0.5-0.224-0.5-0.5c0-4.687,3.813-8.5,8.5-8.5c2.526,0,4.905,1.115,6.527,3.058
			c0.085,0.102,0.126,0.233,0.114,0.366c-0.012,0.132-0.076,0.254-0.178,0.339l-0.596,0.496l0,0
			C34.192,23.816,29.536,25.5,24.755,25.5z M24.517,24.5h0.239c4.547,0,8.976-1.602,12.472-4.51l0.198-0.165
			C36.012,18.342,34.062,17.5,32,17.5C28.033,17.5,24.775,20.597,24.517,24.5z M37.547,20.375h0.01H37.547z"/>
	</g>
	<g>
		<path class="st1" d="M32.004,38.968c-0.167,0-0.322-0.083-0.415-0.221l-3.004-4.463c-0.056-0.083-0.085-0.18-0.085-0.279
			L28.5,32.41c0-0.167,0.083-0.322,0.221-0.415c0.139-0.092,0.313-0.11,0.468-0.049c1.801,0.733,3.822,0.735,5.624,0.007
			c0.155-0.062,0.329-0.044,0.467,0.049c0.138,0.093,0.221,0.248,0.221,0.414l0.001,1.579c0,0.1-0.029,0.196-0.084,0.279
			l-2.996,4.473C32.327,38.885,32.171,38.968,32.004,38.968L32.004,38.968z M29.5,33.853l2.503,3.719l2.497-3.728l0-0.719
			c-1.622,0.501-3.379,0.498-5-0.005L29.5,33.853z"/>
	</g>
	<g>
		<path class="st1" d="M39,58.5c-0.276,0-0.5-0.224-0.5-0.5V44.005c0-0.276,0.224-0.5,0.5-0.5s0.5,0.224,0.5,0.5V58
			C39.5,58.276,39.276,58.5,39,58.5z"/>
	</g>
	<g>
		<path class="st1" d="M25,58.5c-0.276,0-0.5-0.224-0.5-0.5V44.005c0-0.276,0.224-0.5,0.5-0.5s0.5,0.224,0.5,0.5V58
			C25.5,58.276,25.276,58.5,25,58.5z"/>
	</g>
	<g>
		<polygon class="st0" points="34.5,50.505 32.01,53 29.5,50.505 31,38.468 33,38.468 		"/>
		<path class="st1" d="M32.01,53.5c-0.127,0-0.255-0.048-0.353-0.146l-2.51-2.495c-0.11-0.109-0.163-0.263-0.144-0.417l1.5-12.037
			c0.031-0.25,0.244-0.438,0.496-0.438h2c0.252,0,0.465,0.188,0.496,0.438l1.5,12.037c0.019,0.153-0.033,0.306-0.142,0.415
			l-2.49,2.495C32.266,53.451,32.138,53.5,32.01,53.5z M30.026,50.323l1.982,1.97l1.965-1.969l-1.415-11.356h-1.117L30.026,50.323z"
			/>
	</g>
	<g>
		<path class="st1" d="M32.004,38.968L32.004,38.968H28.5c-0.142,0-0.278-0.061-0.373-0.167c-0.095-0.106-0.14-0.248-0.125-0.389
			l0.5-4.463c0.023-0.208,0.174-0.38,0.378-0.43c0.204-0.047,0.417,0.033,0.534,0.207l2.588,3.845l2.581-3.854
			c0.117-0.175,0.33-0.258,0.534-0.208c0.204,0.05,0.355,0.222,0.378,0.43l0.5,4.472c0.016,0.142-0.029,0.283-0.125,0.389
			c-0.095,0.106-0.23,0.167-0.373,0.167H32.004L32.004,38.968z M32.94,37.968h2l-0.286-2.559L32.94,37.968z M29.059,37.968h2.005
			l-1.719-2.554L29.059,37.968z"/>
	</g>
	<g>
		<path class="st1" d="M44,58.5c-0.276,0-0.5-0.224-0.5-0.5V41.251c0-1.775-1.047-3.388-2.669-4.111l-5.649-2.517l-2.762,4.123
			c-0.093,0.138-0.249,0.222-0.415,0.222h0c-0.167,0-0.322-0.083-0.415-0.221l-2.77-4.115l-5.647,2.509
			c-1.624,0.722-2.673,2.336-2.673,4.112V58c0,0.276-0.224,0.5-0.5,0.5s-0.5-0.224-0.5-0.5V41.254c0-2.171,1.282-4.144,3.267-5.026
			l6.031-2.68c0.222-0.098,0.482-0.023,0.618,0.178l2.588,3.845l2.582-3.854c0.136-0.202,0.397-0.275,0.619-0.178l6.034,2.688
			c1.981,0.883,3.262,2.855,3.262,5.024V58C44.5,58.276,44.276,58.5,44,58.5z"/>
	</g>
	<g>
		<path class="st1" d="M62.5,46.003c-0.276,0-0.5-0.224-0.5-0.5v-1.955c0-0.762-0.424-1.448-1.106-1.789l-5.626-2.813
			c-0.247-0.124-0.347-0.424-0.224-0.671c0.124-0.247,0.423-0.347,0.671-0.224l5.626,2.813C62.364,41.377,63,42.405,63,43.549v1.955
			C63,45.78,62.776,46.003,62.5,46.003z"/>
	</g>
	<g>
		<path class="st1" d="M52.5,38.004c-3.584,0-6.5-2.916-6.5-6.5s2.916-6.5,6.5-6.5s6.5,2.916,6.5,6.5S56.084,38.004,52.5,38.004z
			 M52.5,26.004c-3.033,0-5.5,2.467-5.5,5.5s2.467,5.5,5.5,5.5s5.5-2.467,5.5-5.5S55.533,26.004,52.5,26.004z"/>
	</g>
	<g>
		<path class="st2" d="M56.66,28.034l0.447-0.372c-1.101-1.319-2.755-2.159-4.607-2.159c-3.314,0-6,2.686-6,6h0.566
			C50.571,31.504,53.966,30.276,56.66,28.034z"/>
		<path class="st1" d="M47.066,32.003H46.5c-0.276,0-0.5-0.224-0.5-0.5c0-3.584,2.916-6.5,6.5-6.5c1.932,0,3.75,0.852,4.991,2.338
			c0.085,0.102,0.126,0.233,0.114,0.366c-0.012,0.132-0.076,0.254-0.178,0.339l-0.447,0.372
			C54.202,30.73,50.681,32.003,47.066,32.003z M47.022,31.003h0.044c3.382,0,6.675-1.191,9.274-3.354l0,0l0.045-0.038
			c-1.029-1.028-2.419-1.609-3.885-1.609C49.636,26.003,47.276,28.204,47.022,31.003z"/>
	</g>
	<g>
		<path class="st1" d="M52.495,43.499c-0.167,0-0.323-0.083-0.416-0.222l-3.004-4.49c-0.055-0.082-0.084-0.179-0.084-0.277
			l-0.001-1.82c0-0.179,0.096-0.345,0.25-0.434c0.155-0.089,0.347-0.088,0.501,0.001c1.675,0.975,3.824,0.979,5.499,0.011
			c0.155-0.089,0.345-0.089,0.5,0c0.155,0.089,0.25,0.254,0.25,0.433l0.001,1.798c0,0.099-0.029,0.195-0.084,0.277l-2.996,4.5
			C52.819,43.415,52.663,43.499,52.495,43.499L52.495,43.499z M49.991,38.357l2.503,3.741l2.497-3.75l0-0.844
			c-1.583,0.659-3.419,0.656-5-0.008L49.991,38.357z"/>
	</g>
	<g>
		<path class="st1" d="M45.93,40.788c-0.184,0-0.36-0.101-0.448-0.276c-0.124-0.247-0.023-0.547,0.224-0.671l3.562-1.779
			c0.248-0.123,0.548-0.023,0.671,0.224c0.124,0.247,0.023,0.547-0.224,0.671l-3.562,1.779
			C46.081,40.771,46.005,40.788,45.93,40.788z"/>
	</g>
	<g>
		<path class="st1" d="M18.071,40.787c-0.075,0-0.151-0.017-0.223-0.053l-3.575-1.787c-0.247-0.124-0.347-0.424-0.224-0.671
			c0.123-0.248,0.424-0.347,0.671-0.224l3.575,1.787c0.247,0.124,0.347,0.424,0.224,0.671
			C18.431,40.686,18.254,40.787,18.071,40.787z"/>
	</g>
	<g>
		<path class="st1" d="M11.505,38.004c-3.584,0-6.5-2.916-6.5-6.5s2.916-6.5,6.5-6.5s6.5,2.916,6.5,6.5S15.089,38.004,11.505,38.004
			z M11.505,26.004c-3.033,0-5.5,2.467-5.5,5.5s2.467,5.5,5.5,5.5s5.5-2.467,5.5-5.5S14.538,26.004,11.505,26.004z"/>
	</g>
	<g>
		<path class="st2" d="M15.665,28.034l0.447-0.372c-1.101-1.319-2.755-2.159-4.607-2.159c-3.314,0-6,2.686-6,6h0.566
			C9.576,31.504,12.971,30.276,15.665,28.034z"/>
		<path class="st1" d="M6.071,32.003H5.505c-0.276,0-0.5-0.224-0.5-0.5c0-3.584,2.916-6.5,6.5-6.5c1.932,0,3.75,0.852,4.991,2.338
			c0.085,0.102,0.126,0.233,0.114,0.366c-0.012,0.132-0.076,0.254-0.178,0.339l-0.447,0.372C13.207,30.73,9.686,32.003,6.071,32.003
			z M6.027,31.003h0.044c3.382,0,6.675-1.191,9.274-3.354l0,0l0.045-0.038c-1.029-1.028-2.419-1.609-3.885-1.609
			C8.641,26.003,6.281,28.204,6.027,31.003z"/>
	</g>
	<g>
		<path class="st1" d="M11.5,43.499c-0.167,0-0.323-0.083-0.416-0.222l-3.003-4.49c-0.055-0.082-0.084-0.179-0.084-0.277
			l-0.001-1.82c0-0.179,0.095-0.345,0.25-0.434c0.156-0.089,0.347-0.089,0.501,0.001c1.674,0.975,3.824,0.979,5.499,0.011
			c0.155-0.089,0.345-0.089,0.5,0c0.154,0.089,0.25,0.254,0.25,0.433l0.001,1.798c0,0.099-0.029,0.195-0.084,0.278l-2.997,4.5
			C11.824,43.415,11.667,43.499,11.5,43.499L11.5,43.499z M8.997,38.357l2.502,3.741l2.498-3.75l-0.001-0.844
			c-1.583,0.659-3.418,0.657-5-0.008L8.997,38.357z"/>
	</g>
	<g>
		<path class="st1" d="M1.5,46.003c-0.276,0-0.5-0.224-0.5-0.5v-1.954c0-1.144,0.636-2.172,1.659-2.684l5.614-2.804
			c0.248-0.123,0.547-0.023,0.671,0.224s0.023,0.547-0.224,0.671L3.106,41.76C2.424,42.101,2,42.787,2,43.549v1.954
			C2,45.78,1.776,46.003,1.5,46.003z"/>
	</g>
	<g>
		<path class="st1" d="M11.5,46.003c-0.276,0-0.5-0.224-0.5-0.5v-2.504c0-0.276,0.224-0.5,0.5-0.5s0.5,0.224,0.5,0.5v2.504
			C12,45.78,11.776,46.003,11.5,46.003z"/>
	</g>
	<g>
		<path class="st1" d="M52.491,46.003c-0.276,0-0.5-0.224-0.5-0.5v-2.504c0-0.276,0.224-0.5,0.5-0.5s0.5,0.224,0.5,0.5v2.504
			C52.991,45.78,52.767,46.003,52.491,46.003z"/>
	</g>
</g>
</svg>
