<?xml version="1.0" encoding="utf-8"?>
<!-- Generator: Adobe Illustrator 22.0.0, SVG Export Plug-In . SVG Version: 6.00 Build 0)  -->
<svg version="1.1" id="Icon_Set" xmlns="http://www.w3.org/2000/svg" xmlns:xlink="http://www.w3.org/1999/xlink" x="0px" y="0px"
	 viewBox="0 0 64 64" style="enable-background:new 0 0 64 64;" xml:space="preserve">
<style type="text/css">
	.st0{fill:#40C4FF;}
	.st1{fill:#263238;}
	.st2{fill:#FFD740;}
	.st3{fill:#FF5252;}
	.st4{fill:#4DB6AC;}
	.st5{fill:#FFFFFF;}
	.st6{fill:#4FC3F7;}
	.st7{fill:#37474F;}
</style>
<g>
	<g>
		<path class="st1" d="M33.5,46.25c-0.059,0-0.12-0.01-0.178-0.033l-7.92-3.018c-1.655-0.63-3.392-0.95-5.162-0.95H17.5
			c-0.276,0-0.5-0.224-0.5-0.5s0.224-0.5,0.5-0.5h2.74c1.892,0,3.749,0.341,5.518,1.015l7.921,3.018
			c0.258,0.098,0.387,0.387,0.289,0.646C33.891,46.127,33.701,46.25,33.5,46.25z"/>
	</g>
	<g>
		<path class="st1" d="M53.5,58.25H38.99c-2.374,0-4.71-0.408-6.944-1.212l-7.574-2.727c-1.035-0.373-2.118-0.562-3.218-0.562H17.5
			c-0.276,0-0.5-0.224-0.5-0.5s0.224-0.5,0.5-0.5h3.755c1.216,0,2.412,0.209,3.557,0.621l7.574,2.727
			c2.125,0.765,4.347,1.152,6.605,1.152H53.5c1.103,0,2-0.897,2-2s-0.897-2-2-2H42c-0.276,0-0.5-0.224-0.5-0.5s0.224-0.5,0.5-0.5
			h11.5c1.654,0,3,1.346,3,3S55.154,58.25,53.5,58.25z"/>
	</g>
	<g>
		<path class="st0" d="M8,40.25v14.5c0,0.552,0.448,1,1,1h5.5c0.552,0,1-0.448,1-1v-14.5c0-0.552-0.448-1-1-1H9
			C8.448,39.25,8,39.698,8,40.25z"/>
		<path class="st1" d="M14.5,56.25H9c-0.827,0-1.5-0.673-1.5-1.5v-14.5c0-0.827,0.673-1.5,1.5-1.5h5.5c0.827,0,1.5,0.673,1.5,1.5
			v14.5C16,55.577,15.327,56.25,14.5,56.25z M9,39.75c-0.276,0-0.5,0.224-0.5,0.5v14.5c0,0.276,0.224,0.5,0.5,0.5h5.5
			c0.276,0,0.5-0.224,0.5-0.5v-14.5c0-0.276-0.224-0.5-0.5-0.5H9z"/>
	</g>
	<g>
		<path class="st1" d="M40.5,51.25H34c-0.276,0-0.5-0.224-0.5-0.5s0.224-0.5,0.5-0.5h6.5c1.103,0,2-0.897,2-2s-0.897-2-2-2h-7
			c-0.276,0-0.5-0.224-0.5-0.5s0.224-0.5,0.5-0.5h7c1.654,0,3,1.346,3,3S42.154,51.25,40.5,51.25z"/>
	</g>
	<g>
		<path class="st1" d="M51,46.25h-6.5c-0.276,0-0.5-0.224-0.5-0.5s0.224-0.5,0.5-0.5H51c1.103,0,2-0.897,2-2v-28.5
			c0-1.103-0.897-2-2-2H20c-1.103,0-2,0.897-2,2v22.5c0,0.276-0.224,0.5-0.5,0.5s-0.5-0.224-0.5-0.5v-22.5c0-1.654,1.346-3,3-3h31
			c1.654,0,3,1.346,3,3v28.5C54,44.904,52.654,46.25,51,46.25z"/>
	</g>
	<g>
		<path class="st1" d="M12.25,60.25h-1c-0.276,0-0.5-0.224-0.5-0.5s0.224-0.5,0.5-0.5h1c0.276,0,0.5,0.224,0.5,0.5
			S12.526,60.25,12.25,60.25z"/>
	</g>
	<g>
		<path class="st1" d="M25.25,60.25h-11c-0.276,0-0.5-0.224-0.5-0.5s0.224-0.5,0.5-0.5h11c0.276,0,0.5,0.224,0.5,0.5
			S25.526,60.25,25.25,60.25z"/>
	</g>
	<g>
		<path class="st1" d="M50.288,8.25h-1c-0.276,0-0.5-0.224-0.5-0.5s0.224-0.5,0.5-0.5h1c0.276,0,0.5,0.224,0.5,0.5
			S50.564,8.25,50.288,8.25z"/>
	</g>
	<g>
		<path class="st1" d="M47.288,8.25h-16c-0.276,0-0.5-0.224-0.5-0.5s0.224-0.5,0.5-0.5h16c0.276,0,0.5,0.224,0.5,0.5
			S47.564,8.25,47.288,8.25z"/>
	</g>
	<g>
		<path class="st2" d="M44.683,31.38l-0.342-0.197c0.131-0.593,0.206-1.206,0.206-1.838c0-0.632-0.074-1.246-0.206-1.838
			l0.342-0.197l1.101-0.968c0.303-0.267,0.376-0.71,0.174-1.06l-1.424-2.466c-0.202-0.35-0.623-0.509-1.006-0.379l-1.389,0.47
			l-0.347,0.2c-0.903-0.829-1.981-1.47-3.179-1.847v-0.389l-0.287-1.437c-0.079-0.396-0.427-0.681-0.831-0.681h-2.848
			c-0.404,0-0.752,0.285-0.831,0.681l-0.287,1.437v0.389c-1.198,0.376-2.276,1.018-3.179,1.847l-0.347-0.2l-1.389-0.47
			c-0.383-0.129-0.804,0.029-1.006,0.379l-1.424,2.466c-0.202,0.35-0.129,0.794,0.174,1.06l1.101,0.968l0.342,0.197
			c-0.131,0.593-0.206,1.206-0.206,1.838c0,0.632,0.074,1.246,0.206,1.838l-0.342,0.197l-1.101,0.967
			c-0.303,0.267-0.376,0.71-0.174,1.06l1.424,2.466c0.202,0.35,0.623,0.508,1.006,0.379l1.388-0.47l0.347-0.2
			c0.903,0.829,1.981,1.47,3.179,1.847v0.39l0.287,1.437c0.079,0.396,0.427,0.681,0.831,0.681h2.848
			c0.404,0,0.752-0.285,0.831-0.681l0.287-1.437v-0.39c1.198-0.376,2.276-1.018,3.179-1.847l0.347,0.2l1.388,0.47
			c0.383,0.129,0.804-0.029,1.006-0.379l1.424-2.466c0.202-0.35,0.129-0.794-0.174-1.06L44.683,31.38z M36.072,34.641
			c-2.925,0-5.297-2.372-5.297-5.297c0-2.925,2.371-5.297,5.297-5.297c2.925,0,5.297,2.371,5.297,5.297
			C41.369,32.269,38.998,34.641,36.072,34.641z"/>
		<path class="st1" d="M37.496,40.438h-2.848c-0.64,0-1.196-0.456-1.321-1.083l-0.29-1.563c-1-0.359-1.921-0.895-2.748-1.596
			l-0.036,0.021l-1.478,0.51c-0.607,0.205-1.278-0.049-1.599-0.603l-1.424-2.466c-0.32-0.554-0.204-1.263,0.277-1.686l1.213-1.035
			c-0.097-0.535-0.146-1.069-0.146-1.592c0-0.521,0.049-1.053,0.145-1.585l-0.031-0.018l-1.181-1.025
			c-0.481-0.423-0.598-1.132-0.277-1.686l1.423-2.466c0.32-0.554,0.993-0.808,1.599-0.603l1.508,0.536
			c0.826-0.702,1.747-1.237,2.746-1.598v-0.03l0.297-1.536c0.125-0.627,0.681-1.083,1.321-1.083h2.848
			c0.64,0,1.196,0.456,1.321,1.083l0.29,1.563c1,0.359,1.921,0.895,2.748,1.595l0.036-0.021l1.479-0.51
			c0.605-0.205,1.278,0.048,1.598,0.602l1.424,2.467c0.32,0.554,0.204,1.263-0.277,1.686l-1.213,1.036
			c0.097,0.534,0.146,1.068,0.146,1.592c0,0.521-0.049,1.052-0.145,1.584l0.031,0.018c0.029,0.017,0.056,0.036,0.081,0.058
			l1.101,0.968c0.481,0.423,0.598,1.132,0.277,1.686l-1.423,2.466c-0.32,0.555-0.993,0.809-1.599,0.603l-1.508-0.536
			c-0.826,0.702-1.747,1.237-2.746,1.598v0.031l-0.297,1.535C38.692,39.982,38.136,40.438,37.496,40.438z M30.351,35.083
			c0.122,0,0.243,0.045,0.338,0.131c0.878,0.806,1.885,1.391,2.991,1.738c0.208,0.065,0.35,0.259,0.35,0.477v0.39l0.278,1.339
			c0.032,0.162,0.176,0.279,0.341,0.279h2.848c0.165,0,0.309-0.117,0.341-0.279l0.288-1.437l-0.01-0.292
			c0-0.218,0.142-0.412,0.35-0.477c1.106-0.348,2.113-0.932,2.991-1.738c0.161-0.147,0.399-0.173,0.588-0.064l0.347,0.2l1.298,0.429
			c0.159,0.054,0.33-0.012,0.412-0.156l1.424-2.466c0.083-0.143,0.053-0.326-0.071-0.435l-1.063-0.935l-0.299-0.172
			c-0.189-0.109-0.286-0.328-0.239-0.542c0.129-0.582,0.194-1.164,0.194-1.73c0-0.567-0.065-1.149-0.194-1.73
			c-0.047-0.213,0.049-0.432,0.238-0.542l0.342-0.197l1.021-0.91c0.124-0.109,0.154-0.292,0.072-0.434l-1.424-2.467
			c-0.082-0.142-0.256-0.208-0.412-0.155l-1.389,0.47l-0.257,0.16c-0.189,0.108-0.427,0.083-0.588-0.064
			c-0.878-0.806-1.885-1.391-2.991-1.738c-0.208-0.065-0.35-0.259-0.35-0.477v-0.389l-0.278-1.339
			c-0.032-0.162-0.176-0.279-0.341-0.279h-2.848c-0.165,0-0.309,0.117-0.341,0.279l-0.288,1.438l0.01,0.291
			c0,0.218-0.142,0.412-0.35,0.477c-1.106,0.348-2.113,0.932-2.991,1.738c-0.161,0.147-0.399,0.173-0.588,0.064l-0.347-0.2
			l-1.299-0.429c-0.157-0.052-0.33,0.013-0.413,0.156l-1.423,2.466c-0.083,0.143-0.053,0.326,0.071,0.435l1.101,0.968l0.262,0.14
			c0.189,0.109,0.285,0.328,0.238,0.542c-0.129,0.581-0.194,1.163-0.194,1.73c0,0.566,0.065,1.148,0.194,1.73
			c0.047,0.213-0.049,0.433-0.239,0.542l-0.342,0.197l-1.02,0.91c-0.124,0.109-0.154,0.292-0.072,0.434l1.424,2.467
			c0.083,0.143,0.257,0.209,0.412,0.156l1.388-0.47l0.257-0.16C30.179,35.105,30.265,35.083,30.351,35.083z M36.072,35.141
			c-3.196,0-5.797-2.601-5.797-5.797s2.601-5.797,5.797-5.797s5.797,2.601,5.797,5.797S39.269,35.141,36.072,35.141z M36.072,24.547
			c-2.645,0-4.797,2.152-4.797,4.797s2.152,4.797,4.797,4.797s4.797-2.152,4.797-4.797S38.717,24.547,36.072,24.547z"/>
	</g>
	<g>
		<path class="st1" d="M19.5,6.75h-4c-0.276,0-0.5-0.224-0.5-0.5s0.224-0.5,0.5-0.5h4c0.276,0,0.5,0.224,0.5,0.5
			S19.776,6.75,19.5,6.75z"/>
	</g>
	<g>
		<path class="st1" d="M17.5,8.75c-0.276,0-0.5-0.224-0.5-0.5v-4c0-0.276,0.224-0.5,0.5-0.5S18,3.974,18,4.25v4
			C18,8.526,17.776,8.75,17.5,8.75z"/>
	</g>
	<g>
		<path class="st1" d="M13.5,12.75h-4c-0.276,0-0.5-0.224-0.5-0.5s0.224-0.5,0.5-0.5h4c0.276,0,0.5,0.224,0.5,0.5
			S13.776,12.75,13.5,12.75z"/>
	</g>
	<g>
		<path class="st1" d="M11.5,14.75c-0.276,0-0.5-0.224-0.5-0.5v-4c0-0.276,0.224-0.5,0.5-0.5s0.5,0.224,0.5,0.5v4
			C12,14.526,11.776,14.75,11.5,14.75z"/>
	</g>
</g>
</svg>
