<?xml version="1.0" encoding="utf-8"?>
<!-- Generator: Adobe Illustrator 22.0.0, SVG Export Plug-In . SVG Version: 6.00 Build 0)  -->
<svg version="1.1" id="Icon_Set" xmlns="http://www.w3.org/2000/svg" xmlns:xlink="http://www.w3.org/1999/xlink" x="0px" y="0px"
	 viewBox="0 0 64 64" style="enable-background:new 0 0 64 64;" xml:space="preserve">
<style type="text/css">
	.st0{fill:#40C4FF;}
	.st1{fill:#263238;}
	.st2{fill:#FFD740;}
	.st3{fill:#FF5252;}
	.st4{fill:#4DB6AC;}
	.st5{fill:#FFFFFF;}
	.st6{fill:#4FC3F7;}
	.st7{fill:#37474F;}
</style>
<g>
	<g>
		<path class="st1" d="M15.503,53.499c-3.033,0-5.5-2.468-5.5-5.5s2.467-5.5,5.5-5.5s5.5,2.468,5.5,5.5S18.536,53.499,15.503,53.499
			z M15.503,43.499c-2.481,0-4.5,2.019-4.5,4.5s2.019,4.5,4.5,4.5s4.5-2.019,4.5-4.5S17.984,43.499,15.503,43.499z"/>
	</g>
	<g>
		<path class="st1" d="M7.5,61.5C7.224,61.5,7,61.276,7,61v-3.391c0-1.173,0.69-2.245,1.759-2.731l3.734-1.695l0-0.858
			c0-0.275,0.224-0.5,0.5-0.5h0c0.276,0,0.5,0.224,0.5,0.5l0.001,1.181c0,0.196-0.115,0.374-0.293,0.455l-4.027,1.828
			C8.461,56.112,8,56.827,8,57.609V61C8,61.276,7.777,61.5,7.5,61.5z"/>
	</g>
	<g>
		<path class="st1" d="M23.5,61.5c-0.276,0-0.5-0.224-0.5-0.5v-3.392c0-0.782-0.46-1.497-1.172-1.82l-4.042-1.838
			c-0.178-0.081-0.293-0.259-0.293-0.455v-1.159c0-0.276,0.224-0.5,0.5-0.5c0.276,0,0.5,0.224,0.5,0.5l0,0.836l3.748,1.706
			C23.31,55.363,24,56.435,24,57.608V61C24,61.276,23.776,61.5,23.5,61.5z"/>
	</g>
	<g>
		<path class="st1" d="M31.502,53.499c-3.033,0-5.5-2.468-5.5-5.5s2.467-5.5,5.5-5.5s5.5,2.468,5.5,5.5S34.535,53.499,31.502,53.499
			z M31.502,43.499c-2.481,0-4.5,2.019-4.5,4.5s2.019,4.5,4.5,4.5s4.5-2.019,4.5-4.5S33.984,43.499,31.502,43.499z"/>
	</g>
	<g>
		<path class="st1" d="M23.5,61.5c-0.276,0-0.5-0.224-0.5-0.5v-3.391c0-1.173,0.69-2.245,1.759-2.731l3.734-1.695l0-0.858
			c0-0.275,0.224-0.5,0.5-0.5h0c0.276,0,0.5,0.224,0.5,0.5l0.001,1.181c0,0.196-0.115,0.374-0.293,0.455l-4.028,1.828
			C24.46,56.112,24,56.827,24,57.609V61C24,61.276,23.776,61.5,23.5,61.5z"/>
	</g>
	<g>
		<path class="st1" d="M39.5,61.5c-0.276,0-0.5-0.224-0.5-0.5v-3.392c0-0.782-0.46-1.497-1.172-1.82l-4.042-1.838
			c-0.178-0.081-0.293-0.259-0.293-0.455l0-1.159c0-0.276,0.224-0.5,0.5-0.5c0,0,0,0,0,0c0.276,0,0.5,0.224,0.5,0.5l0,0.836
			l3.748,1.706C39.31,55.363,40,56.435,40,57.608V61C40,61.276,39.776,61.5,39.5,61.5z"/>
	</g>
	<g>
		<path class="st1" d="M47.502,53.499c-3.033,0-5.5-2.468-5.5-5.5s2.467-5.5,5.5-5.5s5.5,2.468,5.5,5.5S50.535,53.499,47.502,53.499
			z M47.502,43.499c-2.481,0-4.5,2.019-4.5,4.5s2.019,4.5,4.5,4.5s4.5-2.019,4.5-4.5S49.984,43.499,47.502,43.499z"/>
	</g>
	<g>
		<path class="st1" d="M39.5,61.5c-0.276,0-0.5-0.224-0.5-0.5v-3.391c0-1.173,0.69-2.245,1.759-2.731l3.734-1.695l0-0.858
			c0-0.276,0.224-0.5,0.5-0.5l0,0c0.276,0,0.5,0.224,0.5,0.5l0,1.181c0,0.196-0.115,0.374-0.293,0.455l-4.027,1.828
			C40.46,56.112,40,56.827,40,57.609V61C40,61.276,39.776,61.5,39.5,61.5z"/>
	</g>
	<g>
		<path class="st1" d="M55.5,61.5c-0.276,0-0.5-0.224-0.5-0.5v-3.392c0-0.782-0.46-1.497-1.172-1.82l-4.041-1.838
			c-0.178-0.081-0.293-0.259-0.293-0.455l0-1.159c0-0.276,0.224-0.5,0.5-0.5l0,0c0.276,0,0.5,0.224,0.5,0.5l0,0.836l3.748,1.706
			C55.31,55.363,56,56.435,56,57.608V61C56,61.276,55.776,61.5,55.5,61.5z"/>
	</g>
	<g>
		<path class="st1" d="M56,24.815H46c-0.276,0-0.5-0.224-0.5-0.5s0.224-0.5,0.5-0.5h10c0.276,0,0.5,0.224,0.5,0.5
			S56.276,24.815,56,24.815z"/>
	</g>
	<g>
		<path class="st1" d="M52,27.315h-6c-0.276,0-0.5-0.224-0.5-0.5s0.224-0.5,0.5-0.5h6c0.276,0,0.5,0.224,0.5,0.5
			S52.276,27.315,52,27.315z"/>
	</g>
	<g>
		<path class="st1" d="M14.005,23.5c-3.584,0-6.5-2.916-6.5-6.5s2.916-6.5,6.5-6.5s6.5,2.916,6.5,6.5S17.589,23.5,14.005,23.5z
			 M14.005,11.5c-3.033,0-5.5,2.468-5.5,5.5s2.467,5.5,5.5,5.5s5.5-2.468,5.5-5.5S17.038,11.5,14.005,11.5z"/>
	</g>
	<g>
		<path class="st2" d="M18.165,13.53l0.447-0.372C17.512,11.84,15.857,11,14.005,11c-3.314,0-6,2.686-6,6h0.566
			C12.077,17,15.471,15.772,18.165,13.53z"/>
		<path class="st1" d="M8.571,17.5H8.005c-0.276,0-0.5-0.224-0.5-0.5c0-3.584,2.916-6.5,6.5-6.5c1.932,0,3.751,0.853,4.991,2.338
			c0.085,0.102,0.126,0.233,0.114,0.365c-0.012,0.133-0.076,0.254-0.178,0.339l-0.447,0.372v0.001
			C15.707,16.227,12.186,17.5,8.571,17.5z M8.527,16.5h0.044c3.382,0,6.675-1.191,9.274-3.354l0.044-0.037
			c-1.028-1.027-2.418-1.608-3.885-1.608C11.141,11.5,8.781,13.7,8.527,16.5z M18.166,13.53h0.01H18.166z"/>
	</g>
	<g>
		<path class="st1" d="M4,40c-0.276,0-0.5-0.224-0.5-0.5v-8.909c0-2.098,1.166-3.982,3.042-4.92l4.23-2.113
			c0.248-0.125,0.548-0.022,0.671,0.224c0.124,0.247,0.023,0.548-0.224,0.671l-4.23,2.113C5.454,27.332,4.5,28.875,4.5,30.591V39.5
			C4.5,39.776,4.277,40,4,40z"/>
	</g>
	<g>
		<path class="st1" d="M8.005,40c-0.276,0-0.5-0.224-0.5-0.5V33c0-0.276,0.224-0.5,0.5-0.5s0.5,0.224,0.5,0.5v6.5
			C8.505,39.776,8.281,40,8.005,40z"/>
	</g>
	<g>
		<path class="st1" d="M14,28.968c-0.167,0-0.322-0.083-0.415-0.221l-3.004-4.463c-0.056-0.082-0.085-0.18-0.085-0.279l-0.001-1.82
			c0-0.179,0.095-0.344,0.25-0.434c0.156-0.088,0.347-0.088,0.5,0.001c1.678,0.975,3.82,0.979,5.5,0.011
			c0.154-0.088,0.345-0.089,0.5,0.001c0.155,0.089,0.25,0.254,0.25,0.433l0.001,1.799c0,0.099-0.029,0.196-0.084,0.278l-2.996,4.473
			C14.323,28.885,14.167,28.968,14,28.968L14,28.968z M11.497,23.853L14,27.571l2.497-3.728L16.496,23
			c-1.584,0.658-3.416,0.659-5-0.009L11.497,23.853z"/>
	</g>
	<g>
		<path class="st1" d="M14,32.968c-0.276,0-0.5-0.224-0.5-0.5v-4c0-0.276,0.224-0.5,0.5-0.5s0.5,0.224,0.5,0.5v4
			C14.5,32.744,14.277,32.968,14,32.968z"/>
	</g>
	<g>
		<path class="st1" d="M20.005,40L20.005,40c-0.276,0-0.5-0.224-0.5-0.5l0.002-9.331c0-0.202,0.122-0.385,0.309-0.462
			c0.188-0.076,0.402-0.034,0.545,0.108l5.816,5.815c0.566,0.566,1.554,0.566,2.121,0l5.303-5.303l-2.121-2.121l-3.889,3.889
			c-0.195,0.195-0.512,0.195-0.707,0L23,28.212c-0.671-0.671-1.437-1.236-2.276-1.68l-3.961-2.095
			c-0.244-0.13-0.337-0.432-0.208-0.676c0.128-0.244,0.43-0.336,0.676-0.209l3.961,2.095c0.927,0.491,1.774,1.116,2.515,1.857
			l3.531,3.53l3.889-3.889c0.195-0.195,0.512-0.195,0.707,0l2.828,2.828c0.094,0.094,0.146,0.221,0.146,0.354
			s-0.053,0.26-0.146,0.354l-5.657,5.656c-0.944,0.945-2.591,0.945-3.535,0l-4.963-4.962L20.505,39.5
			C20.505,39.776,20.281,40,20.005,40z"/>
	</g>
	<g>
		<path class="st1" d="M60,32.315H35.722c-0.276,0-0.5-0.224-0.5-0.5s0.224-0.5,0.5-0.5H59.5v-23h-30v18.836
			c0,0.276-0.224,0.5-0.5,0.5s-0.5-0.224-0.5-0.5V7.815c0-0.276,0.224-0.5,0.5-0.5h31c0.276,0,0.5,0.224,0.5,0.5v24
			C60.5,32.092,60.276,32.315,60,32.315z"/>
	</g>
	<g>
		<path class="st1" d="M35.722,29.414c-0.128,0-0.256-0.049-0.354-0.146c-0.195-0.195-0.195-0.512,0-0.707
			c0.584-0.585,0.584-1.537,0-2.122c-0.585-0.585-1.537-0.583-2.122,0c-0.195,0.195-0.512,0.195-0.707,0s-0.195-0.512,0-0.707
			c0.974-0.975,2.561-0.975,3.536,0c0.975,0.975,0.975,2.562,0,3.536C35.978,29.365,35.85,29.414,35.722,29.414z"/>
	</g>
	<g>
		<path class="st1" d="M11,5.5H7C6.724,5.5,6.5,5.276,6.5,5S6.724,4.5,7,4.5h4c0.276,0,0.5,0.224,0.5,0.5S11.276,5.5,11,5.5z"/>
	</g>
	<g>
		<path class="st1" d="M9,7.5C8.724,7.5,8.5,7.276,8.5,7V3c0-0.276,0.224-0.5,0.5-0.5S9.5,2.724,9.5,3v4C9.5,7.276,9.276,7.5,9,7.5z
			"/>
	</g>
	<g>
		<path class="st1" d="M6,11H2c-0.276,0-0.5-0.224-0.5-0.5S1.724,10,2,10h4c0.276,0,0.5,0.224,0.5,0.5S6.276,11,6,11z"/>
	</g>
	<g>
		<path class="st1" d="M4,13c-0.276,0-0.5-0.224-0.5-0.5v-4C3.5,8.224,3.724,8,4,8s0.5,0.224,0.5,0.5v4C4.5,12.776,4.276,13,4,13z"
			/>
	</g>
	<g>
		<path class="st1" d="M53,36.315H43c-0.276,0-0.5-0.224-0.5-0.5s0.224-0.5,0.5-0.5h10c0.276,0,0.5,0.224,0.5,0.5
			S53.276,36.315,53,36.315z"/>
	</g>
	<g>
		<path class="st1" d="M56,36.315h-1c-0.276,0-0.5-0.224-0.5-0.5s0.224-0.5,0.5-0.5h1c0.276,0,0.5,0.224,0.5,0.5
			S56.276,36.315,56,36.315z"/>
	</g>
	<g>
		<path class="st1" d="M36,20.815h-3c-0.276,0-0.5-0.224-0.5-0.5v-5c0-0.276,0.224-0.5,0.5-0.5h3c0.276,0,0.5,0.224,0.5,0.5v5
			C36.5,20.592,36.277,20.815,36,20.815z M33.5,19.815h2v-4h-2V19.815z"/>
	</g>
	<g>
		<path class="st1" d="M42,20.815h-3c-0.276,0-0.5-0.224-0.5-0.5v-6.5c0-0.276,0.224-0.5,0.5-0.5h3c0.276,0,0.5,0.224,0.5,0.5v6.5
			C42.5,20.592,42.277,20.815,42,20.815z M39.5,19.815h2v-5.5h-2V19.815z"/>
	</g>
	<g>
		<rect x="36" y="11.315" class="st3" width="3" height="9"/>
		<path class="st1" d="M39,20.815h-3c-0.276,0-0.5-0.224-0.5-0.5v-9c0-0.276,0.224-0.5,0.5-0.5h3c0.276,0,0.5,0.224,0.5,0.5v9
			C39.5,20.592,39.277,20.815,39,20.815z M36.5,19.815h2v-8h-2V19.815z"/>
	</g>
	<g>
		<rect x="46" y="12.315" class="st4" width="10" height="8"/>
		<path class="st1" d="M56,20.815H46c-0.276,0-0.5-0.224-0.5-0.5v-8c0-0.276,0.224-0.5,0.5-0.5h10c0.276,0,0.5,0.224,0.5,0.5v8
			C56.5,20.592,56.276,20.815,56,20.815z M46.5,19.815h9v-7h-9V19.815z"/>
	</g>
	<g>
		<rect x="27" y="4.815" class="st0" width="35" height="3"/>
		<path class="st1" d="M62,8.315H27c-0.276,0-0.5-0.224-0.5-0.5v-3c0-0.276,0.224-0.5,0.5-0.5h35c0.276,0,0.5,0.224,0.5,0.5v3
			C62.5,8.092,62.276,8.315,62,8.315z M27.5,7.315h34v-2h-34V7.315z"/>
	</g>
	<g>
		<path class="st1" d="M47.75,17.815c-0.147,0-0.292-0.064-0.391-0.188c-0.172-0.216-0.137-0.53,0.078-0.703l2.5-2
			c0.106-0.085,0.244-0.123,0.375-0.105c0.134,0.018,0.256,0.088,0.337,0.196l1.19,1.587l2.097-1.678
			c0.216-0.171,0.531-0.137,0.703,0.078c0.172,0.216,0.137,0.53-0.078,0.703l-2.5,2c-0.106,0.084-0.242,0.126-0.375,0.105
			c-0.134-0.018-0.256-0.088-0.337-0.196l-1.19-1.587l-2.097,1.678C47.97,17.779,47.86,17.815,47.75,17.815z"/>
	</g>
</g>
</svg>
