<?xml version="1.0" encoding="utf-8"?>
<!-- Generator: Adobe Illustrator 22.0.0, SVG Export Plug-In . SVG Version: 6.00 Build 0)  -->
<svg version="1.1" id="Icon_Set" xmlns="http://www.w3.org/2000/svg" xmlns:xlink="http://www.w3.org/1999/xlink" x="0px" y="0px"
	 viewBox="0 0 64 64" style="enable-background:new 0 0 64 64;" xml:space="preserve">
<style type="text/css">
	.st0{fill:#40C4FF;}
	.st1{fill:#263238;}
	.st2{fill:#FFD740;}
	.st3{fill:#FF5252;}
	.st4{fill:#4DB6AC;}
	.st5{fill:#FFFFFF;}
	.st6{fill:#4FC3F7;}
	.st7{fill:#37474F;}
</style>
<g>
	<g>
		<g>
			<g>
				<path class="st1" d="M16.003,52.5c-3.032,0-5.5-2.468-5.5-5.5s2.468-5.5,5.5-5.5s5.5,2.468,5.5,5.5S19.035,52.5,16.003,52.5z
					 M16.003,42.5c-2.481,0-4.5,2.019-4.5,4.5s2.019,4.5,4.5,4.5s4.5-2.019,4.5-4.5S18.484,42.5,16.003,42.5z"/>
			</g>
			<g>
				<path class="st1" d="M8,60.5c-0.276,0-0.5-0.224-0.5-0.5v-3.39c0-1.174,0.69-2.246,1.76-2.731l3.734-1.696l-0.001-0.857
					c0-0.275,0.224-0.5,0.5-0.5l0,0c0.276,0,0.5,0.224,0.5,0.5l0.001,1.18c0,0.196-0.114,0.374-0.293,0.455l-4.027,1.829
					C8.961,55.113,8.5,55.828,8.5,56.61V60C8.5,60.276,8.276,60.5,8,60.5z"/>
			</g>
			<g>
				<path class="st1" d="M24,60.5c-0.276,0-0.5-0.224-0.5-0.5v-3.391c0-0.782-0.46-1.497-1.172-1.821l-4.041-1.838
					c-0.179-0.081-0.293-0.259-0.293-0.455l-0.001-1.159c0-0.275,0.224-0.5,0.5-0.5l0,0c0.276,0,0.5,0.224,0.5,0.5l0.001,0.837
					l3.748,1.705c1.067,0.486,1.758,1.559,1.758,2.731V60C24.5,60.276,24.276,60.5,24,60.5z"/>
			</g>
		</g>
		<g>
			<g>
				<path class="st1" d="M32.002,52.5c-3.032,0-5.5-2.468-5.5-5.5s2.468-5.5,5.5-5.5s5.5,2.468,5.5,5.5S35.034,52.5,32.002,52.5z
					 M32.002,42.5c-2.481,0-4.5,2.019-4.5,4.5s2.019,4.5,4.5,4.5s4.5-2.019,4.5-4.5S34.483,42.5,32.002,42.5z"/>
			</g>
			<g>
				<path class="st1" d="M24,60.5c-0.276,0-0.5-0.224-0.5-0.5v-3.39c0-1.175,0.691-2.247,1.761-2.731l3.733-1.696l-0.001-0.857
					c0-0.275,0.224-0.5,0.5-0.5l0,0c0.276,0,0.5,0.224,0.5,0.5l0.001,1.18c0,0.196-0.114,0.374-0.293,0.455l-4.027,1.829
					c-0.713,0.323-1.174,1.038-1.174,1.821V60C24.5,60.276,24.276,60.5,24,60.5z"/>
			</g>
			<g>
				<path class="st1" d="M40,60.5c-0.276,0-0.5-0.224-0.5-0.5v-3.391c0-0.782-0.46-1.497-1.172-1.821l-4.042-1.838
					c-0.179-0.081-0.293-0.259-0.293-0.455v-1.159c0-0.276,0.224-0.5,0.5-0.5l0,0c0.276,0,0.5,0.224,0.5,0.5l0.001,0.837
					l3.748,1.705c1.068,0.486,1.758,1.559,1.758,2.731V60C40.5,60.276,40.276,60.5,40,60.5z"/>
			</g>
		</g>
		<g>
			<g>
				<path class="st1" d="M48.002,52.5c-3.032,0-5.5-2.468-5.5-5.5s2.468-5.5,5.5-5.5s5.5,2.468,5.5,5.5S51.034,52.5,48.002,52.5z
					 M48.002,42.5c-2.481,0-4.5,2.019-4.5,4.5s2.019,4.5,4.5,4.5s4.5-2.019,4.5-4.5S50.483,42.5,48.002,42.5z"/>
			</g>
			<g>
				<path class="st1" d="M40,60.5c-0.276,0-0.5-0.224-0.5-0.5v-3.39c0-1.174,0.69-2.246,1.759-2.731l3.735-1.696l-0.001-0.857
					c0-0.275,0.224-0.5,0.5-0.5l0,0c0.276,0,0.5,0.224,0.5,0.5l0.001,1.18c0,0.196-0.114,0.374-0.293,0.455l-4.028,1.829
					C40.96,55.112,40.5,55.827,40.5,56.61V60C40.5,60.276,40.276,60.5,40,60.5z"/>
			</g>
			<g>
				<path class="st1" d="M56,60.5c-0.276,0-0.5-0.224-0.5-0.5v-3.391c0-0.782-0.46-1.497-1.173-1.821l-4.041-1.838
					c-0.179-0.081-0.293-0.259-0.293-0.455v-1.159c0-0.276,0.224-0.5,0.5-0.5l0,0c0.276,0,0.5,0.224,0.5,0.5l0.001,0.837
					l3.747,1.705c1.068,0.486,1.759,1.559,1.759,2.731V60C56.5,60.276,56.276,60.5,56,60.5z"/>
			</g>
		</g>
	</g>
	<g>
		<g>
			<path class="st1" d="M53,39.5H11c-1.654,0-3-1.346-3-3V9c0-1.654,1.346-3,3-3h17.5C28.776,6,29,6.224,29,6.5S28.776,7,28.5,7H11
				C9.897,7,9,7.897,9,9v27.5c0,1.103,0.897,2,2,2h42c1.103,0,2-0.897,2-2V9c0-1.103-0.897-2-2-2h-0.5C52.224,7,52,6.776,52,6.5
				S52.224,6,52.5,6H53c1.654,0,3,1.346,3,3v27.5C56,38.154,54.654,39.5,53,39.5z"/>
		</g>
	</g>
	<g>
		<path class="st1" d="M55.5,35.5h-47C8.224,35.5,8,35.276,8,35s0.224-0.5,0.5-0.5h47c0.276,0,0.5,0.224,0.5,0.5
			S55.776,35.5,55.5,35.5z"/>
	</g>
	<g>
		<path class="st3" d="M48,1.5H33c-1.381,0-2.5,1.119-2.5,2.5v7.5c0,1.381,1.119,2.5,2.5,2.5h2.5v2.865
			c0,0.848,0.989,1.311,1.64,0.768L41.5,14H48c1.381,0,2.5-1.119,2.5-2.5V4C50.5,2.619,49.381,1.5,48,1.5z"/>
		<path class="st1" d="M36.504,18.367c-0.216,0-0.434-0.048-0.641-0.144C35.331,17.974,35,17.453,35,16.865V14.5h-2
			c-1.654,0-3-1.346-3-3V4c0-1.654,1.346-3,3-3h15c1.654,0,3,1.346,3,3v7.5c0,1.654-1.346,3-3,3h-6.319l-4.22,3.517
			C37.184,18.248,36.846,18.367,36.504,18.367z M33,2c-1.103,0-2,0.897-2,2v7.5c0,1.103,0.897,2,2,2h2.5c0.276,0,0.5,0.224,0.5,0.5
			v2.865c0,0.295,0.221,0.421,0.288,0.452c0.067,0.032,0.307,0.119,0.532-0.068l4.359-3.633c0.09-0.075,0.203-0.116,0.32-0.116H48
			c1.103,0,2-0.897,2-2V4c0-1.103-0.897-2-2-2H33z"/>
	</g>
	<g>
		<path class="st1" d="M35.402,9.25c-0.827,0-1.5-0.673-1.5-1.5s0.673-1.5,1.5-1.5s1.5,0.673,1.5,1.5S36.229,9.25,35.402,9.25z
			 M35.402,7.25c-0.275,0-0.5,0.225-0.5,0.5s0.225,0.5,0.5,0.5s0.5-0.225,0.5-0.5S35.678,7.25,35.402,7.25z"/>
	</g>
	<g>
		<path class="st1" d="M40.402,9.25c-0.827,0-1.5-0.673-1.5-1.5s0.673-1.5,1.5-1.5s1.5,0.673,1.5,1.5S41.229,9.25,40.402,9.25z
			 M40.402,7.25c-0.275,0-0.5,0.225-0.5,0.5s0.225,0.5,0.5,0.5s0.5-0.225,0.5-0.5S40.678,7.25,40.402,7.25z"/>
	</g>
	<g>
		<path class="st1" d="M45.402,9.25c-0.827,0-1.5-0.673-1.5-1.5s0.673-1.5,1.5-1.5s1.5,0.673,1.5,1.5S46.229,9.25,45.402,9.25z
			 M45.402,7.25c-0.275,0-0.5,0.225-0.5,0.5s0.225,0.5,0.5,0.5s0.5-0.225,0.5-0.5S45.678,7.25,45.402,7.25z"/>
	</g>
	<g>
		<path class="st1" d="M42.954,35.5h-14.5c-0.276,0-0.5-0.224-0.5-0.5V25c0-0.276,0.224-0.5,0.5-0.5h14.5c0.276,0,0.5,0.224,0.5,0.5
			v10C43.454,35.276,43.23,35.5,42.954,35.5z M28.954,34.5h13.5v-9h-13.5V34.5z"/>
	</g>
	<g>
		<path class="st1" d="M23.464,23c-3.584,0-6.5-2.916-6.5-6.5s2.916-6.5,6.5-6.5s6.5,2.916,6.5,6.5S27.048,23,23.464,23z M23.464,11
			c-3.032,0-5.5,2.468-5.5,5.5s2.468,5.5,5.5,5.5s5.5-2.468,5.5-5.5S26.496,11,23.464,11z"/>
	</g>
	<g>
		<path class="st2" d="M27.624,13.03l0.447-0.372C26.97,11.34,25.315,10.5,23.464,10.5c-3.314,0-6,2.686-6,6h0.566
			C21.535,16.5,24.929,15.272,27.624,13.03z"/>
		<path class="st1" d="M18.03,17h-0.566c-0.276,0-0.5-0.224-0.5-0.5c0-3.584,2.916-6.5,6.5-6.5c1.932,0,3.751,0.853,4.991,2.338
			c0.085,0.102,0.126,0.233,0.114,0.365c-0.012,0.133-0.076,0.255-0.179,0.34l-0.447,0.372C25.166,15.727,21.645,17,18.03,17z
			 M17.986,16h0.044c3.381,0,6.675-1.191,9.273-3.354c0.001,0,0.001,0,0.001,0l0.045-0.037C26.32,11.581,24.931,11,23.464,11
			C20.6,11,18.239,13.2,17.986,16z"/>
	</g>
	<g>
		<path class="st1" d="M13.459,35.5c-0.276,0-0.5-0.224-0.5-0.5v-4.909c0-2.098,1.166-3.982,3.042-4.92l4.23-2.113
			c0.248-0.124,0.547-0.023,0.671,0.224c0.123,0.247,0.023,0.548-0.224,0.671l-4.23,2.113c-1.535,0.767-2.489,2.31-2.489,4.025V35
			C13.959,35.276,13.735,35.5,13.459,35.5z"/>
	</g>
	<g>
		<path class="st1" d="M17.464,35.5c-0.276,0-0.5-0.224-0.5-0.5v-2.5c0-0.276,0.224-0.5,0.5-0.5s0.5,0.224,0.5,0.5V35
			C17.964,35.276,17.74,35.5,17.464,35.5z"/>
	</g>
	<g>
		<path class="st1" d="M23.459,28.468c-0.166,0-0.322-0.083-0.415-0.221l-3.004-4.463c-0.056-0.083-0.085-0.18-0.085-0.279
			l-0.001-1.82c0-0.179,0.096-0.344,0.251-0.434c0.156-0.088,0.348-0.088,0.5,0.001c1.676,0.976,3.821,0.979,5.499,0.011
			c0.154-0.088,0.346-0.089,0.5,0.001c0.154,0.089,0.25,0.254,0.25,0.433l0.001,1.799c0,0.099-0.029,0.196-0.085,0.278l-2.996,4.473
			C23.781,28.385,23.626,28.468,23.459,28.468C23.459,28.468,23.459,28.468,23.459,28.468z M20.955,23.353l2.503,3.719l2.497-3.729
			L25.954,22.5c-1.584,0.659-3.416,0.658-5-0.009L20.955,23.353z"/>
	</g>
	<g>
		<path class="st1" d="M23.459,32.468c-0.276,0-0.5-0.224-0.5-0.5v-4c0-0.276,0.224-0.5,0.5-0.5s0.5,0.224,0.5,0.5v4
			C23.959,32.244,23.735,32.468,23.459,32.468z"/>
	</g>
	<g>
		<path class="st1" d="M35.704,32c-1.103,0-2-0.897-2-2s0.897-2,2-2s2,0.897,2,2S36.807,32,35.704,32z M35.704,29
			c-0.552,0-1,0.448-1,1s0.448,1,1,1s1-0.448,1-1S36.256,29,35.704,29z"/>
	</g>
</g>
</svg>
