<?xml version="1.0" encoding="utf-8"?>
<!-- Generator: Adobe Illustrator 22.0.0, SVG Export Plug-In . SVG Version: 6.00 Build 0)  -->
<svg version="1.1" id="Icon_Set" xmlns="http://www.w3.org/2000/svg" xmlns:xlink="http://www.w3.org/1999/xlink" x="0px" y="0px"
	 viewBox="0 0 64 64" style="enable-background:new 0 0 64 64;" xml:space="preserve">
<style type="text/css">
	.st0{fill:#263238;}
	.st1{fill:#FFD740;}
	.st2{fill:#FF5252;}
	.st3{fill:#40C4FF;}
	.st4{fill:#FFFFFF;}
	.st5{fill:#4DB6AC;}
	.st6{fill:#4FC3F7;}
</style>
<g>
	<g>
		<path class="st0" d="M48.5,31H9c-0.144,0-0.281-0.062-0.376-0.171l-3.5-4c-0.129-0.147-0.16-0.357-0.079-0.536
			C5.126,26.115,5.304,26,5.5,26h45c0.173,0,0.334,0.09,0.426,0.237c0.091,0.147,0.099,0.332,0.021,0.486l-2,4
			C48.862,30.893,48.689,31,48.5,31z M9.227,30h38.964l1.5-3H6.602L9.227,30z"/>
	</g>
	<g>
		<path class="st0" d="M15.399,51H8.476c-0.888,0-1.726-0.39-2.297-1.07c-0.572-0.68-0.812-1.572-0.658-2.447l2.987-17.068
			C8.549,30.174,8.757,30,9,30h12c0.147,0,0.288,0.065,0.383,0.178c0.095,0.113,0.135,0.263,0.11,0.408l-3.138,17.932
			C18.103,49.956,16.86,51,15.399,51z M9.42,31L6.506,47.655c-0.103,0.583,0.058,1.178,0.438,1.631C7.325,49.74,7.883,50,8.476,50
			h6.924c0.974,0,1.802-0.696,1.97-1.655L20.405,31H9.42z"/>
	</g>
	<g>
		<path class="st1" d="M51.5,26.5h-46v-6h5l5-5h36c0.552,0,1,0.448,1,1v9C52.5,26.052,52.052,26.5,51.5,26.5z"/>
		<path class="st0" d="M51.5,27h-46C5.224,27,5,26.776,5,26.5v-6C5,20.224,5.224,20,5.5,20h4.793l4.854-4.854
			C15.24,15.053,15.367,15,15.5,15h36c0.827,0,1.5,0.673,1.5,1.5v9C53,26.327,52.327,27,51.5,27z M6,26h45.5
			c0.275,0,0.5-0.224,0.5-0.5v-9c0-0.276-0.225-0.5-0.5-0.5H15.707l-4.854,4.854C10.76,20.947,10.633,21,10.5,21H6V26z"/>
	</g>
	<g>
		<path class="st0" d="M6.9,19c-0.215,0-0.414-0.14-0.479-0.356l-0.9-3c-0.045-0.151-0.017-0.315,0.078-0.442
			C5.693,15.075,5.842,15,6,15h2.283c0.562,0,1.112,0.158,1.59,0.456l1.652,1.032c0.234,0.146,0.305,0.455,0.159,0.689
			c-0.146,0.233-0.455,0.307-0.689,0.159l-1.652-1.032C9.025,16.105,8.658,16,8.283,16H6.672l0.708,2.356
			c0.079,0.264-0.071,0.543-0.335,0.623C6.996,18.993,6.948,19,6.9,19z"/>
	</g>
	<g>
		<path class="st0" d="M27.838,39H22.6c-0.276,0-0.5-0.224-0.5-0.5s0.224-0.5,0.5-0.5h5.238c0.986,0,1.836-0.736,1.979-1.711
			l0.563-3.861c0.04-0.273,0.293-0.47,0.567-0.422c0.273,0.04,0.462,0.293,0.422,0.567l-0.563,3.861
			C30.593,37.896,29.317,39,27.838,39z"/>
	</g>
	<g>
		<path class="st0" d="M26,36c-0.032,0-0.065-0.003-0.099-0.01l-0.996-0.199c-1.113-0.223-1.995-1.04-2.301-2.133l-0.286-1.023
			c-0.074-0.266,0.081-0.542,0.347-0.616c0.263-0.072,0.542,0.081,0.616,0.347l0.286,1.023c0.204,0.729,0.792,1.273,1.534,1.422
			l0.996,0.199c0.271,0.054,0.446,0.317,0.392,0.588C26.443,35.836,26.234,36,26,36z"/>
	</g>
	<g>
		<path class="st0" d="M63.5,61h-2c-0.276,0-0.5-0.224-0.5-0.5s0.224-0.5,0.5-0.5h2c0.276,0,0.5,0.224,0.5,0.5S63.776,61,63.5,61z"
			/>
	</g>
	<g>
		<path class="st0" d="M59.5,61h-16c-0.276,0-0.5-0.224-0.5-0.5s0.224-0.5,0.5-0.5h16c0.276,0,0.5,0.224,0.5,0.5S59.776,61,59.5,61z
			"/>
	</g>
	<g>
		<path class="st0" d="M2.5,6h-2C0.224,6,0,5.776,0,5.5S0.224,5,0.5,5h2C2.776,5,3,5.224,3,5.5S2.776,6,2.5,6z"/>
	</g>
	<g>
		<path class="st0" d="M20.5,6h-16C4.224,6,4,5.776,4,5.5S4.224,5,4.5,5h16C20.776,5,21,5.224,21,5.5S20.776,6,20.5,6z"/>
	</g>
	<g>
		<path class="st0" d="M55.5,6h-4C51.224,6,51,5.776,51,5.5S51.224,5,51.5,5h4C55.776,5,56,5.224,56,5.5S55.776,6,55.5,6z"/>
	</g>
	<g>
		<path class="st0" d="M53.5,8C53.224,8,53,7.776,53,7.5v-4C53,3.224,53.224,3,53.5,3S54,3.224,54,3.5v4C54,7.776,53.776,8,53.5,8z"
			/>
	</g>
	<g>
		<path class="st0" d="M60.5,11h-4c-0.276,0-0.5-0.224-0.5-0.5s0.224-0.5,0.5-0.5h4c0.276,0,0.5,0.224,0.5,0.5S60.776,11,60.5,11z"
			/>
	</g>
	<g>
		<path class="st0" d="M58.5,13c-0.276,0-0.5-0.224-0.5-0.5v-4C58,8.224,58.224,8,58.5,8S59,8.224,59,8.5v4
			C59,12.776,58.776,13,58.5,13z"/>
	</g>
	<g>
		<path class="st0" d="M59.5,24h-7c-0.276,0-0.5-0.224-0.5-0.5v-5c0-0.276,0.224-0.5,0.5-0.5h7c0.827,0,1.5,0.673,1.5,1.5v3
			C61,23.327,60.327,24,59.5,24z M53,23h6.5c0.275,0,0.5-0.224,0.5-0.5v-3c0-0.276-0.225-0.5-0.5-0.5H53V23z"/>
	</g>
	<g>
		<path class="st0" d="M49.5,21h-15c-0.276,0-0.5-0.224-0.5-0.5s0.224-0.5,0.5-0.5h15c0.276,0,0.5,0.224,0.5,0.5S49.776,21,49.5,21z
			"/>
	</g>
	<g>
		<path class="st0" d="M15.399,51H10.5c-0.147,0-0.288-0.065-0.383-0.178c-0.095-0.113-0.135-0.263-0.11-0.408l2.975-17
			C13.024,33.174,13.232,33,13.475,33h7c0.147,0,0.288,0.065,0.383,0.178c0.095,0.113,0.135,0.263,0.11,0.408l-2.613,14.931
			C18.103,49.956,16.86,51,15.399,51z M11.095,50h4.304c0.974,0,1.802-0.696,1.97-1.655L19.88,34h-5.985L11.095,50z"/>
	</g>
	<g>
		<path class="st0" d="M44.5,51h-5c-0.276,0-0.5-0.224-0.5-0.5V43c0-1.654,1.346-3,3-3s3,1.346,3,3v7.5C45,50.776,44.776,51,44.5,51
			z M40,50h4v-7c0-1.103-0.897-2-2-2s-2,0.897-2,2V50z"/>
	</g>
	<g>
		<rect x="39.5" y="43.5" class="st2" width="5" height="7"/>
		<path class="st0" d="M44.5,51h-5c-0.276,0-0.5-0.224-0.5-0.5v-7c0-0.276,0.224-0.5,0.5-0.5h5c0.276,0,0.5,0.224,0.5,0.5v7
			C45,50.776,44.776,51,44.5,51z M40,50h4v-6h-4V50z"/>
	</g>
	<g>
		<path class="st0" d="M52.5,51h-5c-0.276,0-0.5-0.224-0.5-0.5V43c0-1.654,1.346-3,3-3s3,1.346,3,3v7.5C53,50.776,52.776,51,52.5,51
			z M48,50h4v-7c0-1.103-0.897-2-2-2s-2,0.897-2,2V50z"/>
	</g>
	<g>
		<rect x="47.5" y="43.5" class="st2" width="5" height="7"/>
		<path class="st0" d="M52.5,51h-5c-0.276,0-0.5-0.224-0.5-0.5v-7c0-0.276,0.224-0.5,0.5-0.5h5c0.276,0,0.5,0.224,0.5,0.5v7
			C53,50.776,52.776,51,52.5,51z M48,50h4v-6h-4V50z"/>
	</g>
	<g>
		<path class="st0" d="M60.5,51h-5c-0.276,0-0.5-0.224-0.5-0.5V43c0-1.654,1.346-3,3-3s3,1.346,3,3v7.5C61,50.776,60.776,51,60.5,51
			z M56,50h4v-7c0-1.103-0.897-2-2-2s-2,0.897-2,2V50z"/>
	</g>
	<g>
		<path class="st0" d="M60.5,51h-5c-0.276,0-0.5-0.224-0.5-0.5v-7c0-0.276,0.224-0.5,0.5-0.5h5c0.276,0,0.5,0.224,0.5,0.5v7
			C61,50.776,60.776,51,60.5,51z M56,50h4v-6h-4V50z"/>
	</g>
</g>
</svg>
