<?xml version="1.0" encoding="utf-8"?>
<!-- Generator: Adobe Illustrator 22.0.0, SVG Export Plug-In . SVG Version: 6.00 Build 0)  -->
<svg version="1.1" id="Icon_Set" xmlns="http://www.w3.org/2000/svg" xmlns:xlink="http://www.w3.org/1999/xlink" x="0px" y="0px"
	 viewBox="0 0 64 64" style="enable-background:new 0 0 64 64;" xml:space="preserve">
<style type="text/css">
	.st0{fill:#263238;}
	.st1{fill:#FFD740;}
	.st2{fill:#FF5252;}
	.st3{fill:#40C4FF;}
	.st4{fill:#FFFFFF;}
	.st5{fill:#4DB6AC;}
	.st6{fill:#4FC3F7;}
</style>
<g>
	<g>
		<path class="st0" d="M59,61c-0.276,0-0.5-0.224-0.5-0.5V45h-53v15.5C5.5,60.776,5.276,61,5,61s-0.5-0.224-0.5-0.5v-16
			C4.5,44.224,4.724,44,5,44h54c0.276,0,0.5,0.224,0.5,0.5v16C59.5,60.776,59.276,61,59,61z"/>
	</g>
	<g>
		<rect x="7" y="3.5" class="st3" width="50" height="10"/>
		<path class="st0" d="M57,14H7c-0.276,0-0.5-0.224-0.5-0.5v-10C6.5,3.224,6.724,3,7,3h50c0.276,0,0.5,0.224,0.5,0.5v10
			C57.5,13.776,57.276,14,57,14z M7.5,13h49V4h-49V13z"/>
	</g>
	<g>
		<path class="st0" d="M54,39H24c-0.276,0-0.5-0.224-0.5-0.5S23.724,38,24,38h29.447l-1.9-19H12.453l-1.9,19H17
			c0.276,0,0.5,0.224,0.5,0.5S17.276,39,17,39h-7c-0.141,0-0.276-0.06-0.371-0.165c-0.095-0.104-0.141-0.245-0.127-0.385l2-20
			C11.528,18.195,11.743,18,12,18h40c0.257,0,0.472,0.195,0.498,0.45l2,20c0.014,0.141-0.032,0.281-0.127,0.385
			C54.276,38.94,54.141,39,54,39z"/>
	</g>
	<g>
		<path class="st0" d="M52,19H12c-0.133,0-0.26-0.053-0.354-0.146l-5-5c-0.143-0.143-0.186-0.358-0.108-0.545
			C6.615,13.122,6.798,13,7,13h50c0.202,0,0.385,0.122,0.462,0.309c0.078,0.187,0.035,0.402-0.108,0.545l-5,5
			C52.26,18.947,52.133,19,52,19z M12.207,18h39.586l4-4H8.207L12.207,18z"/>
	</g>
	<g>
		<rect x="42" y="38.5" class="st2" width="5" height="3"/>
		<path class="st0" d="M47,42h-5c-0.276,0-0.5-0.224-0.5-0.5v-3c0-0.276,0.224-0.5,0.5-0.5h5c0.276,0,0.5,0.224,0.5,0.5v3
			C47.5,41.776,47.276,42,47,42z M42.5,41h4v-2h-4V41z"/>
	</g>
	<g>
		<rect x="32" y="38.5" class="st2" width="5" height="3"/>
		<path class="st0" d="M37,42h-5c-0.276,0-0.5-0.224-0.5-0.5v-3c0-0.276,0.224-0.5,0.5-0.5h5c0.276,0,0.5,0.224,0.5,0.5v3
			C37.5,41.776,37.276,42,37,42z M32.5,41h4v-2h-4V41z"/>
	</g>
	<g>
		<circle class="st2" cx="20.5" cy="30.875" r="3.5"/>
		<path class="st0" d="M20.5,34.875c-2.206,0-4-1.794-4-4s1.794-4,4-4s4,1.794,4,4S22.706,34.875,20.5,34.875z M20.5,27.875
			c-1.654,0-3,1.346-3,3s1.346,3,3,3s3-1.346,3-3S22.154,27.875,20.5,27.875z"/>
	</g>
	<g>
		<path class="st0" d="M22,42h-3c-0.276,0-0.5-0.224-0.5-0.5v-7.475c0-0.172,0.088-0.332,0.233-0.423
			c0.145-0.092,0.327-0.102,0.482-0.028c0.836,0.399,1.733,0.399,2.569,0c0.155-0.074,0.337-0.063,0.482,0.028
			c0.146,0.091,0.233,0.251,0.233,0.423V41.5C22.5,41.776,22.276,42,22,42z M19.5,41h2v-6.258c-0.657,0.177-1.343,0.177-2,0V41z"/>
	</g>
	<g>
		<rect x="44" y="47.5" class="st1" width="8" height="10"/>
		<path class="st0" d="M52,58h-8c-0.276,0-0.5-0.224-0.5-0.5v-10c0-0.276,0.224-0.5,0.5-0.5h8c0.276,0,0.5,0.224,0.5,0.5v10
			C52.5,57.776,52.276,58,52,58z M44.5,57h7v-9h-7V57z"/>
	</g>
	<g>
		<path class="st0" d="M48,53c-0.276,0-0.5-0.224-0.5-0.5v-2c0-0.276,0.224-0.5,0.5-0.5s0.5,0.224,0.5,0.5v2
			C48.5,52.776,48.276,53,48,53z"/>
	</g>
	<g>
		<path class="st0" d="M14,58h-2c-0.276,0-0.5-0.224-0.5-0.5S11.724,57,12,57h2c0.276,0,0.5,0.224,0.5,0.5S14.276,58,14,58z"/>
	</g>
	<g>
		<path class="st0" d="M32,58H16c-0.276,0-0.5-0.224-0.5-0.5S15.724,57,16,57h16c0.276,0,0.5,0.224,0.5,0.5S32.276,58,32,58z"/>
	</g>
	<g>
		<polygon class="st1" points="38,21.5 38.927,23.475 41,23.792 39.5,25.329 39.854,27.5 38,26.475 36.146,27.5 36.5,25.329 
			35,23.792 37.073,23.475 		"/>
		<path class="st0" d="M39.854,28c-0.083,0-0.167-0.021-0.242-0.062L38,27.046l-1.612,0.891c-0.167,0.093-0.374,0.082-0.53-0.029
			s-0.236-0.3-0.206-0.489l0.313-1.922l-1.324-1.357c-0.131-0.134-0.176-0.33-0.116-0.508s0.213-0.307,0.398-0.335l1.809-0.276
			l0.814-1.733c0.165-0.352,0.74-0.352,0.905,0l0.814,1.733l1.809,0.276c0.185,0.028,0.339,0.158,0.398,0.335
			s0.015,0.374-0.116,0.508l-1.324,1.357l0.313,1.922c0.031,0.189-0.049,0.379-0.206,0.489C40.056,27.969,39.955,28,39.854,28z
			 M38,25.975c0.083,0,0.167,0.021,0.242,0.062l0.953,0.527l-0.188-1.155c-0.025-0.157,0.025-0.316,0.136-0.43l0.82-0.841
			l-1.111-0.17c-0.165-0.025-0.306-0.131-0.377-0.282L38,22.677l-0.475,1.011c-0.071,0.151-0.212,0.257-0.377,0.282l-1.111,0.17
			l0.82,0.841c0.111,0.114,0.161,0.273,0.136,0.43l-0.188,1.155l0.953-0.527C37.833,25.996,37.917,25.975,38,25.975z"/>
	</g>
	<g>
		<polygon class="st1" points="47,21.5 47.927,23.475 50,23.792 48.5,25.329 48.854,27.5 47,26.475 45.146,27.5 45.5,25.329 
			44,23.792 46.073,23.475 		"/>
		<path class="st0" d="M48.854,28c-0.083,0-0.167-0.021-0.242-0.062L47,27.046l-1.612,0.891c-0.167,0.093-0.373,0.082-0.53-0.029
			c-0.156-0.11-0.236-0.3-0.206-0.489l0.313-1.922l-1.324-1.357c-0.131-0.134-0.176-0.33-0.116-0.508s0.213-0.307,0.398-0.335
			l1.809-0.276l0.814-1.733c0.165-0.352,0.74-0.352,0.905,0l0.814,1.733l1.809,0.276c0.185,0.028,0.339,0.158,0.398,0.335
			s0.015,0.374-0.116,0.508l-1.324,1.357l0.313,1.922c0.031,0.189-0.049,0.379-0.206,0.489C49.056,27.969,48.955,28,48.854,28z
			 M47,25.975c0.083,0,0.167,0.021,0.242,0.062l0.953,0.527l-0.188-1.155c-0.025-0.157,0.025-0.316,0.136-0.43l0.82-0.841
			l-1.111-0.17c-0.165-0.025-0.306-0.131-0.377-0.282L47,22.677l-0.475,1.011c-0.071,0.151-0.212,0.257-0.377,0.282l-1.111,0.17
			l0.82,0.841c0.111,0.114,0.161,0.273,0.136,0.43l-0.188,1.155l0.953-0.527C46.833,25.996,46.917,25.975,47,25.975z"/>
	</g>
	<g>
		<path class="st0" d="M5,45c-0.113,0-0.226-0.038-0.32-0.116c-0.212-0.177-0.241-0.492-0.064-0.705l5-6
			c0.177-0.212,0.491-0.24,0.705-0.064c0.212,0.177,0.241,0.492,0.064,0.705l-5,6C5.285,44.939,5.143,45,5,45z"/>
	</g>
	<g>
		<path class="st0" d="M59,45c-0.144,0-0.286-0.061-0.385-0.18l-5-6c-0.177-0.212-0.148-0.528,0.064-0.705
			c0.213-0.176,0.528-0.148,0.705,0.064l5,6c0.177,0.212,0.148,0.528-0.064,0.705C59.227,44.962,59.113,45,59,45z"/>
	</g>
	<g>
		<path class="st1" d="M38.469,7h-3.916c-0.52-0.893-1.476-1.5-2.584-1.5S29.905,6.107,29.385,7h-3.916l1,3h2.916
			c0.52,0.893,1.476,1.5,2.584,1.5s2.064-0.607,2.584-1.5h2.916L38.469,7z"/>
		<path class="st0" d="M31.969,11.98c-1.132,0-2.199-0.568-2.847-1.5h-2.653c-0.207,0-0.39-0.132-0.456-0.328l-1-3
			c-0.049-0.146-0.024-0.307,0.066-0.433c0.09-0.125,0.235-0.199,0.389-0.199h3.653c0.648-0.932,1.714-1.5,2.847-1.5
			c1.132,0,2.198,0.568,2.847,1.5h3.653c0.154,0,0.299,0.074,0.389,0.199c0.09,0.125,0.115,0.286,0.066,0.433l-1,3
			c-0.065,0.196-0.249,0.328-0.456,0.328h-2.653C34.167,11.412,33.101,11.98,31.969,11.98z M26.815,9.52h2.57
			c0.171,0,0.329,0.091,0.415,0.239c0.459,0.79,1.27,1.261,2.169,1.261c0.898,0,1.709-0.472,2.169-1.262
			c0.086-0.147,0.244-0.238,0.415-0.238h2.57l0.68-2.04h-3.25c-0.171,0-0.329-0.091-0.415-0.238c-0.46-0.79-1.271-1.262-2.169-1.262
			c-0.899,0-1.709,0.472-2.169,1.261c-0.086,0.148-0.244,0.239-0.415,0.239h-3.25L26.815,9.52z"/>
	</g>
</g>
</svg>
