<?xml version="1.0" encoding="utf-8"?>
<!-- Generator: Adobe Illustrator 22.0.0, SVG Export Plug-In . SVG Version: 6.00 Build 0)  -->
<svg version="1.1" id="Icon_Set" xmlns="http://www.w3.org/2000/svg" xmlns:xlink="http://www.w3.org/1999/xlink" x="0px" y="0px"
	 viewBox="0 0 64 64" style="enable-background:new 0 0 64 64;" xml:space="preserve">
<style type="text/css">
	.st0{fill:#263238;}
	.st1{fill:#FFD740;}
	.st2{fill:#FF5252;}
	.st3{fill:#40C4FF;}
	.st4{fill:#FFFFFF;}
	.st5{fill:#4DB6AC;}
	.st6{fill:#4FC3F7;}
</style>
<g>
	<g>
		<path class="st0" d="M29,37c-0.276,0-0.5-0.224-0.5-0.5V10c0-0.276-0.224-0.5-0.5-0.5h-2c-0.276,0-0.5,0.224-0.5,0.5v26.5
			c0,0.276-0.224,0.5-0.5,0.5s-0.5-0.224-0.5-0.5V10c0-0.827,0.673-1.5,1.5-1.5h2c0.827,0,1.5,0.673,1.5,1.5v26.5
			C29.5,36.776,29.276,37,29,37z"/>
	</g>
	<g>
		<path class="st5" d="M56,15h-8.229c-1.481,0-2.928-0.438-4.16-1.26L41.39,12.26c-1.232-0.821-2.68-1.26-4.16-1.26H29v20h8.229
			c1.481,0,2.928,0.438,4.16,1.26l2.221,1.481c1.232,0.821,2.68,1.26,4.16,1.26H56V15z"/>
		<path class="st0" d="M56.5,35.5h-8.729c-1.585,0-3.119-0.465-4.438-1.344l-2.221-1.48c-1.154-0.769-2.497-1.176-3.883-1.176H28.5
			v-21h8.729c1.585,0,3.119,0.465,4.438,1.344l2.221,1.48c1.154,0.769,2.497,1.176,3.883,1.176H56.5V35.5z M29.5,30.5h7.729
			c1.585,0,3.119,0.465,4.438,1.344l2.221,1.48c1.154,0.769,2.497,1.176,3.883,1.176H55.5v-19h-7.729
			c-1.585,0-3.119-0.465-4.438-1.344l-2.221-1.48c-1.154-0.769-2.497-1.176-3.883-1.176H29.5V30.5z"/>
	</g>
	<g>
		<path class="st0" d="M53,23.5c-0.276,0-0.5-0.224-0.5-0.5v-4.5H48c-0.276,0-0.5-0.224-0.5-0.5s0.224-0.5,0.5-0.5h5
			c0.276,0,0.5,0.224,0.5,0.5v5C53.5,23.276,53.276,23.5,53,23.5z"/>
	</g>
	<g>
		<path class="st2" d="M3,60h5.5c0.552,0,1-0.448,1-1V41c0-0.552-0.448-1-1-1H3c-0.552,0-1,0.448-1,1v18C2,59.552,2.448,60,3,60z"/>
		<path class="st0" d="M8.5,60.5H3c-0.827,0-1.5-0.673-1.5-1.5V41c0-0.827,0.673-1.5,1.5-1.5h5.5c0.827,0,1.5,0.673,1.5,1.5v18
			C10,59.827,9.327,60.5,8.5,60.5z M3,40.5c-0.276,0-0.5,0.224-0.5,0.5v18c0,0.276,0.224,0.5,0.5,0.5h5.5C8.776,59.5,9,59.276,9,59
			V41c0-0.276-0.224-0.5-0.5-0.5H3z"/>
	</g>
	<g>
		<path class="st0" d="M29,59h-3.5c-1.654,0-3-1.346-3-3s1.346-3,3-3h3.357c1.602,0,2.976,1.183,3.127,2.692
			c0.085,0.847-0.191,1.692-0.759,2.319C30.657,58.64,29.846,59,29,59z M25.5,54c-1.103,0-2,0.897-2,2s0.897,2,2,2H29
			c0.564,0,1.105-0.24,1.484-0.659c0.384-0.424,0.563-0.974,0.505-1.549C30.889,54.787,29.952,54,28.857,54H25.5z"/>
	</g>
	<g>
		<path class="st0" d="M31,54h-5.5c-1.654,0-3-1.346-3-3s1.346-3,3-3h5.357c1.602,0,2.976,1.183,3.127,2.692
			c0.085,0.847-0.191,1.692-0.759,2.319C32.657,53.64,31.846,54,31,54z M25.5,49c-1.103,0-2,0.897-2,2s0.897,2,2,2H31
			c0.564,0,1.105-0.24,1.484-0.659c0.384-0.424,0.563-0.974,0.505-1.549C32.889,49.787,31.952,49,30.857,49H25.5z"/>
	</g>
	<g>
		<path class="st0" d="M27.5,59h-16c-0.276,0-0.5-0.224-0.5-0.5s0.224-0.5,0.5-0.5h16c0.276,0,0.5,0.224,0.5,0.5S27.776,59,27.5,59z
			"/>
	</g>
	<g>
		<path class="st0" d="M31,44h-5.5c-0.276,0-0.5-0.224-0.5-0.5s0.224-0.5,0.5-0.5H31c0.564,0,1.105-0.24,1.484-0.659
			c0.384-0.424,0.563-0.975,0.505-1.55C32.889,39.787,31.952,39,30.857,39h-9.931c-1.214,0-2.401,0.229-3.528,0.68l-5.712,2.285
			c-0.254,0.103-0.547-0.022-0.65-0.279c-0.103-0.256,0.022-0.547,0.279-0.65l5.712-2.285C18.272,38.253,19.584,38,20.926,38h9.931
			c1.603,0,2.976,1.183,3.127,2.692c0.085,0.847-0.191,1.693-0.759,2.32C32.657,43.64,31.846,44,31,44z"/>
	</g>
	<g>
		<path class="st0" d="M21.506,49c-0.743,0-1.465-0.274-2.018-0.774C18.86,47.657,18.5,46.846,18.5,46v-1.75
			c0-0.276,0.224-0.5,0.5-0.5s0.5,0.224,0.5,0.5V46c0,0.564,0.24,1.105,0.659,1.484c0.423,0.383,0.967,0.563,1.549,0.505
			c1.005-0.101,1.792-1.037,1.792-2.132V41c0-1.103-0.897-2-2-2c-0.276,0-0.5-0.224-0.5-0.5s0.224-0.5,0.5-0.5c1.654,0,3,1.346,3,3
			v4.857c0,1.602-1.183,2.976-2.692,3.127C21.707,48.995,21.606,49,21.506,49z"/>
	</g>
	<g>
		<path class="st0" d="M32,49h-6.5c-0.957,0-1.865-0.467-2.43-1.25c-0.126-0.174-0.126-0.41,0-0.584
			c0.277-0.386,0.43-0.85,0.43-1.308v-1.846c0-0.157,0.074-0.305,0.199-0.399C24.229,43.212,24.852,43,25.5,43h6.357
			c1.602,0,2.976,1.183,3.127,2.692c0.085,0.847-0.191,1.692-0.759,2.319C33.657,48.64,32.846,49,32,49z M24.093,47.415
			C24.466,47.79,24.964,48,25.5,48H32c0.564,0,1.105-0.24,1.484-0.659c0.384-0.424,0.563-0.974,0.505-1.549
			C33.889,44.787,32.952,44,31.857,44H25.5c-0.351,0-0.693,0.095-1,0.277v1.581C24.5,46.394,24.357,46.935,24.093,47.415z"/>
	</g>
	<g>
		<path class="st0" d="M60.75,53.5h-2c-0.276,0-0.5-0.224-0.5-0.5s0.224-0.5,0.5-0.5h2c0.276,0,0.5,0.224,0.5,0.5
			S61.026,53.5,60.75,53.5z"/>
	</g>
	<g>
		<path class="st0" d="M56.75,53.5h-16c-0.276,0-0.5-0.224-0.5-0.5s0.224-0.5,0.5-0.5h16c0.276,0,0.5,0.224,0.5,0.5
			S57.026,53.5,56.75,53.5z"/>
	</g>
	<g>
		<path class="st0" d="M3,21H1c-0.276,0-0.5-0.224-0.5-0.5S0.724,20,1,20h2c0.276,0,0.5,0.224,0.5,0.5S3.276,21,3,21z"/>
	</g>
	<g>
		<path class="st0" d="M21,21H5c-0.276,0-0.5-0.224-0.5-0.5S4.724,20,5,20h16c0.276,0,0.5,0.224,0.5,0.5S21.276,21,21,21z"/>
	</g>
	<g>
		<path class="st0" d="M58,6.5h-4c-0.276,0-0.5-0.224-0.5-0.5s0.224-0.5,0.5-0.5h4c0.276,0,0.5,0.224,0.5,0.5S58.276,6.5,58,6.5z"/>
	</g>
	<g>
		<path class="st0" d="M56,8.5c-0.276,0-0.5-0.224-0.5-0.5V4c0-0.276,0.224-0.5,0.5-0.5s0.5,0.224,0.5,0.5v4
			C56.5,8.276,56.276,8.5,56,8.5z"/>
	</g>
	<g>
		<path class="st0" d="M63,11.5h-4c-0.276,0-0.5-0.224-0.5-0.5s0.224-0.5,0.5-0.5h4c0.276,0,0.5,0.224,0.5,0.5S63.276,11.5,63,11.5z
			"/>
	</g>
	<g>
		<path class="st0" d="M61,13.5c-0.276,0-0.5-0.224-0.5-0.5V9c0-0.276,0.224-0.5,0.5-0.5s0.5,0.224,0.5,0.5v4
			C61.5,13.276,61.276,13.5,61,13.5z"/>
	</g>
</g>
</svg>
