<?xml version="1.0" encoding="utf-8"?>
<!-- Generator: Adobe Illustrator 22.0.0, SVG Export Plug-In . SVG Version: 6.00 Build 0)  -->
<svg version="1.1" id="Icon_Set" xmlns="http://www.w3.org/2000/svg" xmlns:xlink="http://www.w3.org/1999/xlink" x="0px" y="0px"
	 viewBox="0 0 64 64" style="enable-background:new 0 0 64 64;" xml:space="preserve">
<style type="text/css">
	.st0{fill:#263238;}
	.st1{fill:#FFD740;}
	.st2{fill:#FF5252;}
	.st3{fill:#40C4FF;}
	.st4{fill:#FFFFFF;}
	.st5{fill:#4DB6AC;}
	.st6{fill:#4FC3F7;}
</style>
<g>
	<g>
		<path class="st0" d="M32,36.498c-1.152,0-2.305-0.438-3.182-1.316c-1.754-1.754-1.754-4.609,0-6.364
			c1.755-1.755,4.609-1.755,6.364,0c1.754,1.754,1.754,4.609,0,6.364C34.305,36.059,33.152,36.498,32,36.498z M32,28.501
			c-0.896,0-1.793,0.341-2.475,1.023c-1.365,1.365-1.365,3.585,0,4.95c1.364,1.364,3.585,1.365,4.95,0
			c1.365-1.365,1.365-3.585,0-4.95C33.793,28.843,32.896,28.501,32,28.501z"/>
	</g>
	<g>
		<path class="st2" d="M32,18l-3.487,12.077c0.178-0.322,0.386-0.632,0.659-0.906c1.562-1.562,4.095-1.562,5.657,0
			c0.273,0.273,0.481,0.582,0.658,0.904L32,18z"/>
		<path class="st0" d="M28.513,30.577c-0.064,0-0.129-0.012-0.191-0.038c-0.235-0.097-0.359-0.356-0.289-0.601l3.487-12.077
			c0.124-0.428,0.837-0.428,0.961,0l3.487,12.075c0.07,0.245-0.054,0.503-0.289,0.601c-0.232,0.098-0.505,0.004-0.629-0.22
			c-0.184-0.333-0.367-0.585-0.574-0.792c-1.364-1.365-3.585-1.364-4.95,0c-0.208,0.208-0.391,0.461-0.575,0.794
			C28.86,30.482,28.69,30.577,28.513,30.577z M32,19.802l-2.428,8.408c1.473-0.944,3.381-0.944,4.855,0L32,19.802z"/>
	</g>
	<g>
		<path class="st3" d="M34.829,34.828c-1.562,1.562-4.095,1.562-5.657,0c-0.274-0.274-0.482-0.584-0.659-0.906L32,46l3.487-12.076
			C35.31,34.246,35.102,34.555,34.829,34.828z"/>
		<path class="st0" d="M32,46.5c-0.223,0-0.418-0.147-0.48-0.361l-3.487-12.078c-0.071-0.245,0.054-0.503,0.29-0.601
			c0.237-0.096,0.507-0.002,0.629,0.221c0.182,0.332,0.364,0.583,0.574,0.793c1.364,1.364,3.585,1.365,4.95,0
			c0.209-0.209,0.391-0.46,0.574-0.792c0.123-0.224,0.396-0.318,0.629-0.221c0.235,0.097,0.36,0.356,0.29,0.601L32.48,46.139
			C32.418,46.353,32.223,46.5,32,46.5z M29.572,35.789L32,44.198l2.428-8.408C32.954,36.734,31.046,36.734,29.572,35.789z"/>
	</g>
	<g>
		<path class="st1" d="M32,10c-12.15,0-22,9.85-22,22s9.85,22,22,22s22-9.85,22-22S44.15,10,32,10z M32,50c-9.941,0-18-8.059-18-18
			s8.059-18,18-18s18,8.059,18,18S41.941,50,32,50z"/>
		<path class="st0" d="M32,54.5C19.593,54.5,9.5,44.407,9.5,32S19.593,9.5,32,9.5S54.5,19.593,54.5,32S44.407,54.5,32,54.5z
			 M32,10.5c-11.855,0-21.5,9.645-21.5,21.5S20.145,53.5,32,53.5S53.5,43.855,53.5,32S43.855,10.5,32,10.5z M32,50.5
			c-10.201,0-18.5-8.299-18.5-18.5S21.799,13.5,32,13.5S50.5,21.799,50.5,32S42.201,50.5,32,50.5z M32,14.5
			c-9.649,0-17.5,7.851-17.5,17.5S22.351,49.5,32,49.5S49.5,41.649,49.5,32S41.649,14.5,32,14.5z"/>
	</g>
	<g>
		<path class="st0" d="M38,9.256c-0.276,0-0.5-0.224-0.5-0.5V6.5c0-1.103-0.897-2-2-2h-7c-1.103,0-2,0.897-2,2v2.256
			c0,0.276-0.224,0.5-0.5,0.5s-0.5-0.224-0.5-0.5V6.5c0-1.654,1.346-3,3-3h7c1.654,0,3,1.346,3,3v2.256
			C38.5,9.033,38.276,9.256,38,9.256z"/>
	</g>
	<g>
		<path class="st0" d="M8.756,38.5H6.5c-1.654,0-3-1.346-3-3v-7c0-1.654,1.346-3,3-3h2.256c0.276,0,0.5,0.224,0.5,0.5
			s-0.224,0.5-0.5,0.5H6.5c-1.103,0-2,0.897-2,2v7c0,1.103,0.897,2,2,2h2.256c0.276,0,0.5,0.224,0.5,0.5S9.033,38.5,8.756,38.5z"/>
	</g>
	<g>
		<path class="st0" d="M57.5,38.5h-2.256c-0.276,0-0.5-0.224-0.5-0.5s0.224-0.5,0.5-0.5H57.5c1.103,0,2-0.897,2-2v-7
			c0-1.103-0.897-2-2-2h-2.256c-0.276,0-0.5-0.224-0.5-0.5s0.224-0.5,0.5-0.5H57.5c1.654,0,3,1.346,3,3v7
			C60.5,37.154,59.154,38.5,57.5,38.5z"/>
	</g>
	<g>
		<path class="st0" d="M35.5,60.5h-7c-1.654,0-3-1.346-3-3v-2.256c0-0.276,0.224-0.5,0.5-0.5s0.5,0.224,0.5,0.5V57.5
			c0,1.103,0.897,2,2,2h7c1.103,0,2-0.897,2-2v-2.256c0-0.276,0.224-0.5,0.5-0.5s0.5,0.224,0.5,0.5V57.5
			C38.5,59.154,37.154,60.5,35.5,60.5z"/>
	</g>
	<g>
		<path class="st0" d="M55,7h-4c-0.276,0-0.5-0.224-0.5-0.5S50.724,6,51,6h4c0.276,0,0.5,0.224,0.5,0.5S55.276,7,55,7z"/>
	</g>
	<g>
		<path class="st0" d="M53,9c-0.276,0-0.5-0.224-0.5-0.5v-4C52.5,4.224,52.724,4,53,4s0.5,0.224,0.5,0.5v4C53.5,8.776,53.276,9,53,9
			z"/>
	</g>
	<g>
		<path class="st0" d="M60,12h-4c-0.276,0-0.5-0.224-0.5-0.5S55.724,11,56,11h4c0.276,0,0.5,0.224,0.5,0.5S60.276,12,60,12z"/>
	</g>
	<g>
		<path class="st0" d="M58,14c-0.276,0-0.5-0.224-0.5-0.5v-4C57.5,9.224,57.724,9,58,9s0.5,0.224,0.5,0.5v4
			C58.5,13.776,58.276,14,58,14z"/>
	</g>
	<g>
		<path class="st0" d="M4,9.5H2C1.724,9.5,1.5,9.276,1.5,9S1.724,8.5,2,8.5h2c0.276,0,0.5,0.224,0.5,0.5S4.276,9.5,4,9.5z"/>
	</g>
	<g>
		<path class="st0" d="M17,9.5H6C5.724,9.5,5.5,9.276,5.5,9S5.724,8.5,6,8.5h11c0.276,0,0.5,0.224,0.5,0.5S17.276,9.5,17,9.5z"/>
	</g>
	<g>
		<path class="st0" d="M62,55.5h-2c-0.276,0-0.5-0.224-0.5-0.5s0.224-0.5,0.5-0.5h2c0.276,0,0.5,0.224,0.5,0.5S62.276,55.5,62,55.5z
			"/>
	</g>
	<g>
		<path class="st0" d="M58,55.5H47c-0.276,0-0.5-0.224-0.5-0.5s0.224-0.5,0.5-0.5h11c0.276,0,0.5,0.224,0.5,0.5S58.276,55.5,58,55.5
			z"/>
	</g>
</g>
</svg>
