<?xml version="1.0" encoding="utf-8"?>
<!-- Generator: Adobe Illustrator 22.0.0, SVG Export Plug-In . SVG Version: 6.00 Build 0)  -->
<svg version="1.1" id="Icon_Set" xmlns="http://www.w3.org/2000/svg" xmlns:xlink="http://www.w3.org/1999/xlink" x="0px" y="0px"
	 viewBox="0 0 64 64" style="enable-background:new 0 0 64 64;" xml:space="preserve">
<style type="text/css">
	.st0{fill:#263238;}
	.st1{fill:#FFD740;}
	.st2{fill:#FF5252;}
	.st3{fill:#40C4FF;}
	.st4{fill:#FFFFFF;}
	.st5{fill:#4DB6AC;}
	.st6{fill:#4FC3F7;}
</style>
<g>
	<g>
		<path class="st0" d="M53.5,40.5h-43c-1.654,0-3-1.346-3-3v-31c0-1.654,1.346-3,3-3h43c1.654,0,3,1.346,3,3v31
			C56.5,39.154,55.154,40.5,53.5,40.5z M10.5,4.5c-1.103,0-2,0.897-2,2v31c0,1.103,0.897,2,2,2h43c1.103,0,2-0.897,2-2v-31
			c0-1.103-0.897-2-2-2H10.5z"/>
	</g>
	<g>
		<path class="st0" d="M32,36.5c-7.995,0-14.5-6.505-14.5-14.5c0-4.642,2.238-9.009,6-11.738V4c0-0.276,0.224-0.5,0.5-0.5h16
			c0.276,0,0.5,0.224,0.5,0.5v6.262c3.762,2.729,6,7.096,6,11.738C46.5,29.995,39.995,36.5,32,36.5z M24.5,4.5v6.02
			c0,0.164-0.08,0.316-0.214,0.41C20.663,13.459,18.5,17.598,18.5,22c0,7.444,6.056,13.5,13.5,13.5S45.5,29.444,45.5,22
			c0-4.402-2.163-8.541-5.786-11.07c-0.134-0.094-0.214-0.247-0.214-0.41V4.5H24.5z"/>
	</g>
	<g>
		<circle class="st1" cx="50.5" cy="34.5" r="2.5"/>
		<path class="st0" d="M50.5,37.5c-1.654,0-3-1.346-3-3s1.346-3,3-3s3,1.346,3,3S52.154,37.5,50.5,37.5z M50.5,32.5
			c-1.103,0-2,0.897-2,2s0.897,2,2,2s2-0.897,2-2S51.603,32.5,50.5,32.5z"/>
	</g>
	<g>
		<circle class="st2" cx="13.5" cy="34.5" r="2.5"/>
		<path class="st0" d="M13.5,37.5c-1.654,0-3-1.346-3-3s1.346-3,3-3s3,1.346,3,3S15.154,37.5,13.5,37.5z M13.5,32.5
			c-1.103,0-2,0.897-2,2s0.897,2,2,2s2-0.897,2-2S14.603,32.5,13.5,32.5z"/>
	</g>
	<g>
		<path class="st0" d="M36,22.5h-8c-0.276,0-0.5-0.224-0.5-0.5s0.224-0.5,0.5-0.5h8c0.276,0,0.5,0.224,0.5,0.5S36.276,22.5,36,22.5z
			"/>
	</g>
	<g>
		<path class="st0" d="M16,51H7c-0.276,0-0.5-0.224-0.5-0.5S6.724,50,7,50h9c0.276,0,0.5,0.224,0.5,0.5S16.276,51,16,51z"/>
	</g>
	<g>
		<path class="st0" d="M5,51H3c-0.276,0-0.5-0.224-0.5-0.5S2.724,50,3,50h2c0.276,0,0.5,0.224,0.5,0.5S5.276,51,5,51z"/>
	</g>
	<g>
		<path class="st0" d="M57,51h-9c-0.276,0-0.5-0.224-0.5-0.5S47.724,50,48,50h9c0.276,0,0.5,0.224,0.5,0.5S57.276,51,57,51z"/>
	</g>
	<g>
		<path class="st0" d="M61,51h-2c-0.276,0-0.5-0.224-0.5-0.5S58.724,50,59,50h2c0.276,0,0.5,0.224,0.5,0.5S61.276,51,61,51z"/>
	</g>
	<g>
		<path class="st0" d="M43.453,60.5h-3.037c-1.048,0-2.033-0.558-2.572-1.457L36.3,56.471c-0.359-0.599-1.017-0.971-1.715-0.971
			h-5.169c-0.698,0-1.355,0.372-1.715,0.971l-1.543,2.572c-0.539,0.898-1.524,1.457-2.572,1.457h-3.037
			c-0.989,0-1.883-0.464-2.453-1.272c-0.569-0.808-0.706-1.806-0.373-2.737l2.622-7.341c0,0,0,0,0,0
			c0.78-2.183,2.861-3.65,5.18-3.65h12.953c2.318,0,4.4,1.467,5.18,3.65l2.622,7.341c0.333,0.931,0.197,1.929-0.373,2.737
			C45.336,60.036,44.442,60.5,43.453,60.5z M29.416,54.5h5.169c1.048,0,2.033,0.558,2.572,1.457l1.543,2.572
			c0.359,0.599,1.017,0.971,1.715,0.971h3.037c0.659,0,1.255-0.309,1.635-0.848c0.379-0.539,0.47-1.204,0.249-1.825l-2.622-7.341
			C42.077,47.7,40.374,46.5,38.477,46.5H25.524c-1.896,0-3.6,1.2-4.238,2.987v0l-2.622,7.341c-0.222,0.621-0.131,1.286,0.249,1.825
			c0.38,0.539,0.976,0.848,1.635,0.848h3.037c0.698,0,1.355-0.372,1.715-0.971l1.543-2.572C27.383,55.058,28.368,54.5,29.416,54.5z"
			/>
	</g>
	<g>
		<circle class="st3" cx="25.501" cy="51" r="2.5"/>
		<path class="st0" d="M25.5,54c-1.654,0-3-1.346-3-3s1.346-3,3-3s3,1.346,3,3S27.155,54,25.5,54z M25.5,49c-1.103,0-2,0.897-2,2
			s0.897,2,2,2s2-0.897,2-2S26.604,49,25.5,49z"/>
	</g>
	<g>
		<circle class="st3" cx="38.501" cy="51" r="2.5"/>
		<path class="st0" d="M38.5,54c-1.654,0-3-1.346-3-3s1.346-3,3-3s3,1.346,3,3S40.155,54,38.5,54z M38.5,49c-1.103,0-2,0.897-2,2
			s0.897,2,2,2s2-0.897,2-2S39.604,49,38.5,49z"/>
	</g>
	<g>
		<path class="st0" d="M33.5,51.5h-3c-0.276,0-0.5-0.224-0.5-0.5s0.224-0.5,0.5-0.5h3c0.276,0,0.5,0.224,0.5,0.5
			S33.777,51.5,33.5,51.5z"/>
	</g>
</g>
</svg>
