<?xml version="1.0" encoding="utf-8"?>
<!-- Generator: Adobe Illustrator 22.0.0, SVG Export Plug-In . SVG Version: 6.00 Build 0)  -->
<svg version="1.1" id="Icon_Set" xmlns="http://www.w3.org/2000/svg" xmlns:xlink="http://www.w3.org/1999/xlink" x="0px" y="0px"
	 viewBox="0 0 64 64" style="enable-background:new 0 0 64 64;" xml:space="preserve">
<style type="text/css">
	.st0{fill:#263238;}
	.st1{fill:#FFD740;}
	.st2{fill:#FF5252;}
	.st3{fill:#40C4FF;}
	.st4{fill:#FFFFFF;}
	.st5{fill:#4DB6AC;}
	.st6{fill:#4FC3F7;}
</style>
<g>
	<g>
		<path class="st1" d="M17,57H9.5C8.119,57,7,55.881,7,54.5V47h10V57z"/>
	</g>
	<g>
		<path class="st3" d="M54.5,57H47V47h10v7.5C57,55.881,55.881,57,54.5,57z"/>
	</g>
	<g>
		<path class="st3" d="M17,17H7V9.5C7,8.119,8.119,7,9.5,7H17V17z"/>
	</g>
	<g>
		<path class="st1" d="M57,17H47V7h7.5C55.881,7,57,8.119,57,9.5V17z"/>
	</g>
	<g>
		<path class="st0" d="M54.5,57.5h-45c-1.654,0-3-1.346-3-3v-45c0-1.654,1.346-3,3-3h45c1.654,0,3,1.346,3,3v45
			C57.5,56.154,56.154,57.5,54.5,57.5z M9.5,7.5c-1.103,0-2,0.897-2,2v45c0,1.103,0.897,2,2,2h45c1.103,0,2-0.897,2-2v-45
			c0-1.103-0.897-2-2-2H9.5z"/>
	</g>
	<g>
		<path class="st0" d="M47,47.5H17c-0.276,0-0.5-0.224-0.5-0.5V17c0-0.276,0.224-0.5,0.5-0.5h30c0.276,0,0.5,0.224,0.5,0.5v30
			C47.5,47.276,47.276,47.5,47,47.5z M17.5,46.5h29v-29h-29V46.5z"/>
	</g>
	<g>
		<path class="st0" d="M17,57.5c-0.276,0-0.5-0.224-0.5-0.5V47c0-0.276,0.224-0.5,0.5-0.5s0.5,0.224,0.5,0.5v10
			C17.5,57.276,17.276,57.5,17,57.5z"/>
	</g>
	<g>
		<path class="st0" d="M27,57.5c-0.276,0-0.5-0.224-0.5-0.5V47c0-0.276,0.224-0.5,0.5-0.5s0.5,0.224,0.5,0.5v10
			C27.5,57.276,27.276,57.5,27,57.5z"/>
	</g>
	<g>
		<path class="st0" d="M47,57.5c-0.276,0-0.5-0.224-0.5-0.5V47c0-0.276,0.224-0.5,0.5-0.5s0.5,0.224,0.5,0.5v10
			C47.5,57.276,47.276,57.5,47,57.5z"/>
	</g>
	<g>
		<path class="st0" d="M37,57.5c-0.276,0-0.5-0.224-0.5-0.5V47c0-0.276,0.224-0.5,0.5-0.5s0.5,0.224,0.5,0.5v10
			C37.5,57.276,37.276,57.5,37,57.5z"/>
	</g>
	<g>
		<path class="st0" d="M17,17.5c-0.276,0-0.5-0.224-0.5-0.5V7c0-0.276,0.224-0.5,0.5-0.5s0.5,0.224,0.5,0.5v10
			C17.5,17.276,17.276,17.5,17,17.5z"/>
	</g>
	<g>
		<path class="st0" d="M27,17.5c-0.276,0-0.5-0.224-0.5-0.5V7c0-0.276,0.224-0.5,0.5-0.5s0.5,0.224,0.5,0.5v10
			C27.5,17.276,27.276,17.5,27,17.5z"/>
	</g>
	<g>
		<path class="st0" d="M47,17.5c-0.276,0-0.5-0.224-0.5-0.5V7c0-0.276,0.224-0.5,0.5-0.5s0.5,0.224,0.5,0.5v10
			C47.5,17.276,47.276,17.5,47,17.5z"/>
	</g>
	<g>
		<path class="st0" d="M37,17.5c-0.276,0-0.5-0.224-0.5-0.5V7c0-0.276,0.224-0.5,0.5-0.5s0.5,0.224,0.5,0.5v10
			C37.5,17.276,37.276,17.5,37,17.5z"/>
	</g>
	<g>
		<path class="st0" d="M17,17.5H7c-0.276,0-0.5-0.224-0.5-0.5s0.224-0.5,0.5-0.5h10c0.276,0,0.5,0.224,0.5,0.5S17.276,17.5,17,17.5z
			"/>
	</g>
	<g>
		<path class="st0" d="M17,27.5H7c-0.276,0-0.5-0.224-0.5-0.5s0.224-0.5,0.5-0.5h10c0.276,0,0.5,0.224,0.5,0.5S17.276,27.5,17,27.5z
			"/>
	</g>
	<g>
		<path class="st0" d="M17,47.5H7c-0.276,0-0.5-0.224-0.5-0.5s0.224-0.5,0.5-0.5h10c0.276,0,0.5,0.224,0.5,0.5S17.276,47.5,17,47.5z
			"/>
	</g>
	<g>
		<path class="st0" d="M17,37.5H7c-0.276,0-0.5-0.224-0.5-0.5s0.224-0.5,0.5-0.5h10c0.276,0,0.5,0.224,0.5,0.5S17.276,37.5,17,37.5z
			"/>
	</g>
	<g>
		<path class="st0" d="M57,17.5H47c-0.276,0-0.5-0.224-0.5-0.5s0.224-0.5,0.5-0.5h10c0.276,0,0.5,0.224,0.5,0.5S57.276,17.5,57,17.5
			z"/>
	</g>
	<g>
		<path class="st0" d="M57,27.5H47c-0.276,0-0.5-0.224-0.5-0.5s0.224-0.5,0.5-0.5h10c0.276,0,0.5,0.224,0.5,0.5S57.276,27.5,57,27.5
			z"/>
	</g>
	<g>
		<path class="st0" d="M57,47.5H47c-0.276,0-0.5-0.224-0.5-0.5s0.224-0.5,0.5-0.5h10c0.276,0,0.5,0.224,0.5,0.5S57.276,47.5,57,47.5
			z"/>
	</g>
	<g>
		<path class="st0" d="M57,37.5H47c-0.276,0-0.5-0.224-0.5-0.5s0.224-0.5,0.5-0.5h10c0.276,0,0.5,0.224,0.5,0.5S57.276,37.5,57,37.5
			z"/>
	</g>
	<g>
		<path class="st0" d="M14,3.5h-2c-0.276,0-0.5-0.224-0.5-0.5s0.224-0.5,0.5-0.5h2c0.276,0,0.5,0.224,0.5,0.5S14.276,3.5,14,3.5z"/>
	</g>
	<g>
		<path class="st0" d="M32.5,3.5H16c-0.276,0-0.5-0.224-0.5-0.5s0.224-0.5,0.5-0.5h16.5C32.776,2.5,33,2.724,33,3
			S32.776,3.5,32.5,3.5z"/>
	</g>
	<g>
		<path class="st0" d="M52,61.5h-2c-0.276,0-0.5-0.224-0.5-0.5s0.224-0.5,0.5-0.5h2c0.276,0,0.5,0.224,0.5,0.5S52.276,61.5,52,61.5z
			"/>
	</g>
	<g>
		<path class="st0" d="M48,61.5H31.5c-0.276,0-0.5-0.224-0.5-0.5s0.224-0.5,0.5-0.5H48c0.276,0,0.5,0.224,0.5,0.5
			S48.276,61.5,48,61.5z"/>
	</g>
	<g>
		<path class="st0" d="M39,40.5H25c-0.827,0-1.5-0.673-1.5-1.5V25c0-0.827,0.673-1.5,1.5-1.5h14c0.827,0,1.5,0.673,1.5,1.5v14
			C40.5,39.827,39.827,40.5,39,40.5z M25,24.5c-0.275,0-0.5,0.224-0.5,0.5v14c0,0.276,0.225,0.5,0.5,0.5h14
			c0.275,0,0.5-0.224,0.5-0.5V25c0-0.276-0.225-0.5-0.5-0.5H25z"/>
	</g>
	<g>
		<circle class="st2" cx="28.5" cy="35.5" r="2"/>
		<path class="st0" d="M28.5,38c-1.379,0-2.5-1.122-2.5-2.5s1.121-2.5,2.5-2.5s2.5,1.122,2.5,2.5S29.879,38,28.5,38z M28.5,34
			c-0.827,0-1.5,0.673-1.5,1.5s0.673,1.5,1.5,1.5s1.5-0.673,1.5-1.5S29.327,34,28.5,34z"/>
	</g>
	<g>
		<circle class="st2" cx="35.5" cy="28.5" r="2"/>
		<path class="st0" d="M35.5,31c-1.379,0-2.5-1.122-2.5-2.5s1.121-2.5,2.5-2.5s2.5,1.122,2.5,2.5S36.879,31,35.5,31z M35.5,27
			c-0.827,0-1.5,0.673-1.5,1.5s0.673,1.5,1.5,1.5s1.5-0.673,1.5-1.5S36.327,27,35.5,27z"/>
	</g>
</g>
</svg>
