<?xml version="1.0" encoding="utf-8"?>
<!-- Generator: Adobe Illustrator 22.0.0, SVG Export Plug-In . SVG Version: 6.00 Build 0)  -->
<svg version="1.1" id="Icon_Set" xmlns="http://www.w3.org/2000/svg" xmlns:xlink="http://www.w3.org/1999/xlink" x="0px" y="0px"
	 viewBox="0 0 64 64" style="enable-background:new 0 0 64 64;" xml:space="preserve">
<style type="text/css">
	.st0{fill:#263238;}
	.st1{fill:#FFD740;}
	.st2{fill:#FF5252;}
	.st3{fill:#40C4FF;}
	.st4{fill:#FFFFFF;}
	.st5{fill:#4DB6AC;}
	.st6{fill:#4FC3F7;}
</style>
<g>
	<g>
		<path class="st0" d="M2.5,51.5h-2C0.224,51.5,0,51.276,0,51s0.224-0.5,0.5-0.5h2C2.776,50.5,3,50.724,3,51S2.776,51.5,2.5,51.5z"
			/>
	</g>
	<g>
		<path class="st0" d="M20,51.5H4.5C4.224,51.5,4,51.276,4,51s0.224-0.5,0.5-0.5H20c0.276,0,0.5,0.224,0.5,0.5S20.276,51.5,20,51.5z
			"/>
	</g>
	<g>
		<path class="st0" d="M63.5,23.5h-2c-0.276,0-0.5-0.224-0.5-0.5s0.224-0.5,0.5-0.5h2c0.276,0,0.5,0.224,0.5,0.5
			S63.776,23.5,63.5,23.5z"/>
	</g>
	<g>
		<path class="st0" d="M59.5,23.5H44c-0.276,0-0.5-0.224-0.5-0.5s0.224-0.5,0.5-0.5h15.5c0.276,0,0.5,0.224,0.5,0.5
			S59.776,23.5,59.5,23.5z"/>
	</g>
	<g>
		<path class="st0" d="M53.5,10.5h-4c-0.276,0-0.5-0.224-0.5-0.5s0.224-0.5,0.5-0.5h4c0.276,0,0.5,0.224,0.5,0.5
			S53.776,10.5,53.5,10.5z"/>
	</g>
	<g>
		<path class="st0" d="M51.5,12.5c-0.276,0-0.5-0.224-0.5-0.5V8c0-0.276,0.224-0.5,0.5-0.5S52,7.724,52,8v4
			C52,12.276,51.776,12.5,51.5,12.5z"/>
	</g>
	<g>
		<path class="st0" d="M48,15.5h-4c-0.276,0-0.5-0.224-0.5-0.5s0.224-0.5,0.5-0.5h4c0.276,0,0.5,0.224,0.5,0.5S48.276,15.5,48,15.5z
			"/>
	</g>
	<g>
		<path class="st0" d="M46,17.5c-0.276,0-0.5-0.224-0.5-0.5v-4c0-0.276,0.224-0.5,0.5-0.5s0.5,0.224,0.5,0.5v4
			C46.5,17.276,46.276,17.5,46,17.5z"/>
	</g>
	<g>
		<circle class="st2" cx="22" cy="22" r="3.5"/>
		<path class="st0" d="M22,26c-2.206,0-4-1.794-4-4s1.794-4,4-4s4,1.794,4,4S24.206,26,22,26z M22,19c-1.654,0-3,1.346-3,3
			s1.346,3,3,3s3-1.346,3-3S23.654,19,22,19z"/>
	</g>
	<g>
		<path class="st0" d="M53.5,56.5h-23c-1.654,0-3-1.346-3-3v-23c0-1.654,1.346-3,3-3h23c1.654,0,3,1.346,3,3v23
			C56.5,55.154,55.154,56.5,53.5,56.5z M30.5,28.5c-1.103,0-2,0.897-2,2v23c0,1.103,0.897,2,2,2h23c1.103,0,2-0.897,2-2v-23
			c0-1.103-0.897-2-2-2H30.5z"/>
	</g>
	<g>
		<path class="st0" d="M26,36.5H10.5c-1.654,0-3-1.346-3-3v-23c0-1.654,1.346-3,3-3h23c1.654,0,3,1.346,3,3V26
			c0,0.276-0.224,0.5-0.5,0.5s-0.5-0.224-0.5-0.5V10.5c0-1.103-0.897-2-2-2h-23c-1.103,0-2,0.897-2,2v23c0,1.103,0.897,2,2,2H26
			c0.276,0,0.5,0.224,0.5,0.5S26.276,36.5,26,36.5z"/>
	</g>
	<g>
		<circle class="st2" cx="42" cy="42" r="2.5"/>
		<path class="st0" d="M42,45c-1.654,0-3-1.346-3-3s1.346-3,3-3s3,1.346,3,3S43.654,45,42,45z M42,40c-1.103,0-2,0.897-2,2
			s0.897,2,2,2s2-0.897,2-2S43.103,40,42,40z"/>
	</g>
	<g>
		<circle class="st2" cx="48" cy="36" r="2.5"/>
		<path class="st0" d="M48,39c-1.654,0-3-1.346-3-3s1.346-3,3-3s3,1.346,3,3S49.654,39,48,39z M48,34c-1.103,0-2,0.897-2,2
			s0.897,2,2,2s2-0.897,2-2S49.103,34,48,34z"/>
	</g>
	<g>
		<circle class="st2" cx="36" cy="48" r="2.5"/>
		<path class="st0" d="M36,51c-1.654,0-3-1.346-3-3s1.346-3,3-3s3,1.346,3,3S37.654,51,36,51z M36,46c-1.103,0-2,0.897-2,2
			s0.897,2,2,2s2-0.897,2-2S37.103,46,36,46z"/>
	</g>
</g>
</svg>
