<?xml version="1.0" encoding="utf-8"?>
<!-- Generator: Adobe Illustrator 22.0.0, SVG Export Plug-In . SVG Version: 6.00 Build 0)  -->
<svg version="1.1" id="Icon_Set" xmlns="http://www.w3.org/2000/svg" xmlns:xlink="http://www.w3.org/1999/xlink" x="0px" y="0px"
	 viewBox="0 0 64 64" style="enable-background:new 0 0 64 64;" xml:space="preserve">
<style type="text/css">
	.st0{fill:#263238;}
	.st1{fill:#FFD740;}
	.st2{fill:#FF5252;}
	.st3{fill:#40C4FF;}
	.st4{fill:#FFFFFF;}
	.st5{fill:#4DB6AC;}
	.st6{fill:#4FC3F7;}
</style>
<g>
	<g>
		<path class="st2" d="M48,44H16c-0.552,0-1-0.448-1-1v-6c0-0.552,0.448-1,1-1h32c0.552,0,1,0.448,1,1v6C49,43.552,48.552,44,48,44z
			"/>
		<path class="st0" d="M48,44.5H16c-0.827,0-1.5-0.673-1.5-1.5v-6c0-0.827,0.673-1.5,1.5-1.5h32c0.827,0,1.5,0.673,1.5,1.5v6
			C49.5,43.827,48.827,44.5,48,44.5z M16,36.5c-0.275,0-0.5,0.225-0.5,0.5v6c0,0.275,0.225,0.5,0.5,0.5h32
			c0.275,0,0.5-0.225,0.5-0.5v-6c0-0.275-0.225-0.5-0.5-0.5H16z"/>
	</g>
	<g>
		<path class="st0" d="M47,34.551c-0.276,0-0.5-0.224-0.5-0.5V24.5c0-1.103-0.897-2-2-2h-5c-1.103,0-2,0.897-2,2V34
			c0,0.276-0.224,0.5-0.5,0.5s-0.5-0.224-0.5-0.5v-9.5c0-1.654,1.346-3,3-3h5c1.654,0,3,1.346,3,3v9.551
			C47.5,34.327,47.276,34.551,47,34.551z"/>
	</g>
	<g>
		<path class="st0" d="M44.5,58.5h-5c-1.654,0-3-1.346-3-3V46c0-0.276,0.224-0.5,0.5-0.5s0.5,0.224,0.5,0.5v9.5c0,1.103,0.897,2,2,2
			h5c1.103,0,2-0.897,2-2v-9.551c0-0.276,0.224-0.5,0.5-0.5s0.5,0.224,0.5,0.5V55.5C47.5,57.154,46.154,58.5,44.5,58.5z"/>
	</g>
	<g>
		<path class="st0" d="M37,34.5c-0.276,0-0.5-0.224-0.5-0.5V21.5c0-1.103-0.897-2-2-2h-5c-1.103,0-2,0.897-2,2V34
			c0,0.276-0.224,0.5-0.5,0.5s-0.5-0.224-0.5-0.5V21.5c0-1.654,1.346-3,3-3h5c1.654,0,3,1.346,3,3V34
			C37.5,34.276,37.276,34.5,37,34.5z"/>
	</g>
	<g>
		<path class="st0" d="M34.5,61.5h-5c-1.654,0-3-1.346-3-3V46c0-0.276,0.224-0.5,0.5-0.5s0.5,0.224,0.5,0.5v12.5
			c0,1.103,0.897,2,2,2h5c1.103,0,2-0.897,2-2V46c0-0.276,0.224-0.5,0.5-0.5s0.5,0.224,0.5,0.5v12.5
			C37.5,60.154,36.154,61.5,34.5,61.5z"/>
	</g>
	<g>
		<path class="st0" d="M17,34.551c-0.276,0-0.5-0.224-0.5-0.5V24.5c0-1.654,1.346-3,3-3h5c1.654,0,3,1.346,3,3V34
			c0,0.276-0.224,0.5-0.5,0.5s-0.5-0.224-0.5-0.5v-9.5c0-1.103-0.897-2-2-2h-5c-1.103,0-2,0.897-2,2v9.551
			C17.5,34.327,17.276,34.551,17,34.551z"/>
	</g>
	<g>
		<path class="st0" d="M24.5,58.5h-5c-1.654,0-3-1.346-3-3v-9.551c0-0.276,0.224-0.5,0.5-0.5s0.5,0.224,0.5,0.5V55.5
			c0,1.103,0.897,2,2,2h5c1.103,0,2-0.897,2-2V46c0-0.276,0.224-0.5,0.5-0.5s0.5,0.224,0.5,0.5v9.5
			C27.5,57.154,26.154,58.5,24.5,58.5z"/>
	</g>
	<g>
		<path class="st0" d="M32,19.5c-0.276,0-0.5-0.224-0.5-0.5v-6c0-3.032,2.468-5.5,5.5-5.5h10c0.276,0,0.5,0.224,0.5,0.5
			S47.276,8.5,47,8.5H37c-2.481,0-4.5,2.019-4.5,4.5v6C32.5,19.276,32.276,19.5,32,19.5z"/>
	</g>
	<g>
		<path class="st0" d="M49,6.5c-0.096,0-0.192-0.027-0.277-0.084c-0.229-0.153-0.292-0.464-0.139-0.693l2-3
			c0.154-0.23,0.465-0.29,0.693-0.139c0.229,0.153,0.292,0.464,0.139,0.693l-2,3C49.319,6.422,49.161,6.5,49,6.5z"/>
	</g>
	<g>
		<path class="st0" d="M51,13.5c-0.161,0-0.319-0.078-0.416-0.223l-2-3c-0.153-0.229-0.091-0.54,0.139-0.693
			c0.228-0.152,0.538-0.092,0.693,0.139l2,3c0.153,0.229,0.091,0.54-0.139,0.693C51.192,13.473,51.096,13.5,51,13.5z"/>
	</g>
	<g>
		<path class="st0" d="M43.5,13.5c-0.096,0-0.192-0.027-0.277-0.084c-0.229-0.153-0.292-0.464-0.139-0.693l2-3
			c0.154-0.23,0.466-0.29,0.693-0.139c0.229,0.153,0.292,0.464,0.139,0.693l-2,3C43.819,13.422,43.661,13.5,43.5,13.5z"/>
	</g>
	<g>
		<path class="st0" d="M45.5,6.5c-0.161,0-0.319-0.078-0.416-0.223l-2-3c-0.153-0.229-0.091-0.54,0.139-0.693
			c0.227-0.152,0.539-0.092,0.693,0.139l2,3c0.153,0.229,0.091,0.54-0.139,0.693C45.692,6.473,45.596,6.5,45.5,6.5z"/>
	</g>
	<g>
		<path class="st0" d="M59.5,52.5h-9c-0.276,0-0.5-0.224-0.5-0.5s0.224-0.5,0.5-0.5h9c0.276,0,0.5,0.224,0.5,0.5
			S59.776,52.5,59.5,52.5z"/>
	</g>
	<g>
		<path class="st0" d="M63.5,52.5h-2c-0.276,0-0.5-0.224-0.5-0.5s0.224-0.5,0.5-0.5h2c0.276,0,0.5,0.224,0.5,0.5
			S63.776,52.5,63.5,52.5z"/>
	</g>
	<g>
		<path class="st0" d="M13.5,32.5h-9C4.224,32.5,4,32.276,4,32s0.224-0.5,0.5-0.5h9c0.276,0,0.5,0.224,0.5,0.5
			S13.776,32.5,13.5,32.5z"/>
	</g>
	<g>
		<path class="st0" d="M2.5,32.5h-2C0.224,32.5,0,32.276,0,32s0.224-0.5,0.5-0.5h2C2.776,31.5,3,31.724,3,32S2.776,32.5,2.5,32.5z"
			/>
	</g>
	<g>
		<path class="st0" d="M44,28.5c-0.276,0-0.5-0.224-0.5-0.5v-2c0-0.275-0.225-0.5-0.5-0.5h-2c-0.276,0-0.5-0.224-0.5-0.5
			s0.224-0.5,0.5-0.5h2c0.827,0,1.5,0.673,1.5,1.5v2C44.5,28.276,44.276,28.5,44,28.5z"/>
	</g>
	<g>
		<path class="st0" d="M34,25.5c-0.276,0-0.5-0.224-0.5-0.5v-2c0-0.275-0.225-0.5-0.5-0.5h-2c-0.276,0-0.5-0.224-0.5-0.5
			s0.224-0.5,0.5-0.5h2c0.827,0,1.5,0.673,1.5,1.5v2C34.5,25.276,34.276,25.5,34,25.5z"/>
	</g>
	<g>
		<path class="st0" d="M24,28.5c-0.276,0-0.5-0.224-0.5-0.5v-2c0-0.275-0.225-0.5-0.5-0.5h-2c-0.276,0-0.5-0.224-0.5-0.5
			s0.224-0.5,0.5-0.5h2c0.827,0,1.5,0.673,1.5,1.5v2C24.5,28.276,24.276,28.5,24,28.5z"/>
	</g>
</g>
</svg>
