<?xml version="1.0" encoding="utf-8"?>
<!-- Generator: Adobe Illustrator 22.0.0, SVG Export Plug-In . SVG Version: 6.00 Build 0)  -->
<svg version="1.1" id="Icon_Set" xmlns="http://www.w3.org/2000/svg" xmlns:xlink="http://www.w3.org/1999/xlink" x="0px" y="0px"
	 viewBox="0 0 64 64" style="enable-background:new 0 0 64 64;" xml:space="preserve">
<style type="text/css">
	.st0{fill:#263238;}
	.st1{fill:#FFD740;}
	.st2{fill:#FF5252;}
	.st3{fill:#40C4FF;}
	.st4{fill:#FFFFFF;}
	.st5{fill:#4DB6AC;}
	.st6{fill:#4FC3F7;}
</style>
<g>
	<g>
		<path class="st0" d="M9.5,58.5c-0.149,0-0.294-0.067-0.391-0.188l-4-5C5.039,53.224,5,53.114,5,53V15
			c0-0.114,0.039-0.224,0.109-0.312l4-5c0.133-0.166,0.358-0.228,0.556-0.159C9.866,9.599,10,9.788,10,10v48
			c0,0.212-0.134,0.401-0.335,0.472C9.611,58.491,9.556,58.5,9.5,58.5z M6,52.825l3,3.75V11.425l-3,3.75V52.825z"/>
	</g>
	<g>
		<path class="st0" d="M54.5,58.5c-0.056,0-0.111-0.009-0.165-0.028C54.134,58.401,54,58.212,54,58V10
			c0-0.212,0.134-0.401,0.335-0.472c0.198-0.07,0.423-0.007,0.556,0.159l4,5C58.961,14.776,59,14.886,59,15v38
			c0,0.114-0.039,0.224-0.109,0.312l-4,5C54.794,58.433,54.648,58.5,54.5,58.5z M55,11.425v45.149l3-3.75V15.175L55,11.425z
			 M58.5,53h0.01H58.5z"/>
	</g>
	<g>
		<path class="st3" d="M42.5,33.5h-21l0.862-2.873c1.269-4.23,5.162-7.127,9.578-7.127h0.119c4.416,0,8.309,2.897,9.578,7.127
			L42.5,33.5z"/>
		<path class="st0" d="M42.5,34h-21c-0.158,0-0.307-0.075-0.401-0.202c-0.094-0.126-0.123-0.291-0.077-0.442l0.862-2.874
			C23.226,26.007,27.268,23,31.94,23h0.119c4.673,0,8.715,3.007,10.057,7.483l0.862,2.874c0.046,0.151,0.017,0.315-0.077,0.442
			C42.807,33.925,42.658,34,42.5,34z M22.172,33h19.656l-0.669-2.23c-1.215-4.049-4.872-6.77-9.1-6.77H31.94
			c-4.228,0-7.885,2.721-9.1,6.77L22.172,33z"/>
	</g>
	<g>
		<path class="st0" d="M15.5,41h-4c-0.276,0-0.5-0.224-0.5-0.5s0.224-0.5,0.5-0.5h4c0.276,0,0.5,0.224,0.5,0.5S15.776,41,15.5,41z"
			/>
	</g>
	<g>
		<path class="st0" d="M52.5,41h-4c-0.276,0-0.5-0.224-0.5-0.5s0.224-0.5,0.5-0.5h4c0.276,0,0.5,0.224,0.5,0.5S52.776,41,52.5,41z"
			/>
	</g>
	<g>
		<path class="st0" d="M43.5,34h-23c-0.063,0-0.127-0.012-0.186-0.036L15.403,32H11.5c-0.276,0-0.5-0.224-0.5-0.5s0.224-0.5,0.5-0.5
			h4c0.063,0,0.127,0.012,0.186,0.036L20.597,33h22.807l4.911-1.964C48.373,31.012,48.437,31,48.5,31h4c0.276,0,0.5,0.224,0.5,0.5
			S52.776,32,52.5,32h-3.903l-4.911,1.964C43.627,33.988,43.563,34,43.5,34z"/>
	</g>
	<g>
		<circle class="st1" cx="19.5" cy="40.5" r="4"/>
		<path class="st0" d="M19.5,45c-2.481,0-4.5-2.019-4.5-4.5s2.019-4.5,4.5-4.5s4.5,2.019,4.5,4.5S21.981,45,19.5,45z M19.5,37
			c-1.93,0-3.5,1.57-3.5,3.5s1.57,3.5,3.5,3.5s3.5-1.57,3.5-3.5S21.43,37,19.5,37z"/>
	</g>
	<g>
		<circle class="st1" cx="44.5" cy="40.5" r="4"/>
		<path class="st0" d="M44.5,45c-2.481,0-4.5-2.019-4.5-4.5s2.019-4.5,4.5-4.5s4.5,2.019,4.5,4.5S46.981,45,44.5,45z M44.5,37
			c-1.93,0-3.5,1.57-3.5,3.5s1.57,3.5,3.5,3.5s3.5-1.57,3.5-3.5S46.43,37,44.5,37z"/>
	</g>
	<g>
		<path class="st0" d="M44.5,45h-25c-0.276,0-0.5-0.224-0.5-0.5s0.224-0.5,0.5-0.5c1.93,0,3.5-1.57,3.5-3.5S21.43,37,19.5,37
			c-0.276,0-0.5-0.224-0.5-0.5s0.224-0.5,0.5-0.5h25c0.276,0,0.5,0.224,0.5,0.5S44.776,37,44.5,37c-1.93,0-3.5,1.57-3.5,3.5
			s1.57,3.5,3.5,3.5c0.276,0,0.5,0.224,0.5,0.5S44.776,45,44.5,45z M22.325,44h19.35C40.653,43.174,40,41.912,40,40.5
			s0.653-2.674,1.675-3.5h-19.35C23.347,37.826,24,39.088,24,40.5S23.347,43.174,22.325,44z"/>
	</g>
	<g>
		<path class="st0" d="M28.5,58.5c-0.276,0-0.5-0.224-0.5-0.5v-9.5c0-0.276,0.224-0.5,0.5-0.5s0.5,0.224,0.5,0.5V58
			C29,58.276,28.776,58.5,28.5,58.5z"/>
	</g>
	<g>
		<path class="st0" d="M28.5,62.5c-0.276,0-0.5-0.224-0.5-0.5v-2c0-0.276,0.224-0.5,0.5-0.5S29,59.724,29,60v2
			C29,62.276,28.776,62.5,28.5,62.5z"/>
	</g>
	<g>
		<path class="st0" d="M35.5,58.5c-0.276,0-0.5-0.224-0.5-0.5v-9.5c0-0.276,0.224-0.5,0.5-0.5s0.5,0.224,0.5,0.5V58
			C36,58.276,35.776,58.5,35.5,58.5z"/>
	</g>
	<g>
		<path class="st0" d="M35.5,62.5c-0.276,0-0.5-0.224-0.5-0.5v-2c0-0.276,0.224-0.5,0.5-0.5S36,59.724,36,60v2
			C36,62.276,35.776,62.5,35.5,62.5z"/>
	</g>
	<g>
		<path class="st0" d="M56.5,4.5h-4C52.224,4.5,52,4.276,52,4s0.224-0.5,0.5-0.5h4C56.776,3.5,57,3.724,57,4S56.776,4.5,56.5,4.5z"
			/>
	</g>
	<g>
		<path class="st0" d="M54.5,6.5C54.224,6.5,54,6.276,54,6V2c0-0.276,0.224-0.5,0.5-0.5S55,1.724,55,2v4
			C55,6.276,54.776,6.5,54.5,6.5z"/>
	</g>
	<g>
		<path class="st0" d="M50.5,10.5h-4c-0.276,0-0.5-0.224-0.5-0.5s0.224-0.5,0.5-0.5h4c0.276,0,0.5,0.224,0.5,0.5
			S50.776,10.5,50.5,10.5z"/>
	</g>
	<g>
		<path class="st0" d="M48.5,12.5c-0.276,0-0.5-0.224-0.5-0.5V8c0-0.276,0.224-0.5,0.5-0.5S49,7.724,49,8v4
			C49,12.276,48.776,12.5,48.5,12.5z"/>
	</g>
</g>
</svg>
