<?xml version="1.0" encoding="utf-8"?>
<!-- Generator: Adobe Illustrator 22.0.0, SVG Export Plug-In . SVG Version: 6.00 Build 0)  -->
<svg version="1.1" id="Icon_Set" xmlns="http://www.w3.org/2000/svg" xmlns:xlink="http://www.w3.org/1999/xlink" x="0px" y="0px"
	 viewBox="0 0 64 64" style="enable-background:new 0 0 64 64;" xml:space="preserve">
<style type="text/css">
	.st0{fill:#263238;}
	.st1{fill:#FFD740;}
	.st2{fill:#FF5252;}
	.st3{fill:#40C4FF;}
	.st4{fill:#FFFFFF;}
	.st5{fill:#4DB6AC;}
	.st6{fill:#4FC3F7;}
</style>
<g>
	<g>
		<path class="st0" d="M26,53.25c-0.276,0-0.5-0.224-0.5-0.5v-3.5c0-0.276,0.224-0.5,0.5-0.5s0.5,0.224,0.5,0.5v3.5
			C26.5,53.026,26.276,53.25,26,53.25z"/>
	</g>
	<g>
		<path class="st0" d="M38,53.25c-0.276,0-0.5-0.224-0.5-0.5v-3.5c0-0.276,0.224-0.5,0.5-0.5s0.5,0.224,0.5,0.5v3.5
			C38.5,53.026,38.276,53.25,38,53.25z"/>
	</g>
	<g>
		<path class="st0" d="M42,59.25H22c-0.827,0-1.5-0.673-1.5-1.5v-2c0-0.827,0.673-1.5,1.5-1.5h20c0.827,0,1.5,0.673,1.5,1.5v2
			C43.5,58.577,42.827,59.25,42,59.25z M22,55.25c-0.276,0-0.5,0.225-0.5,0.5v2c0,0.275,0.224,0.5,0.5,0.5h20
			c0.276,0,0.5-0.225,0.5-0.5v-2c0-0.275-0.224-0.5-0.5-0.5H22z"/>
	</g>
	<g>
		<path class="st0" d="M62,42.75H2c-0.276,0-0.5-0.224-0.5-0.5s0.224-0.5,0.5-0.5h60c0.276,0,0.5,0.224,0.5,0.5
			S62.276,42.75,62,42.75z"/>
	</g>
	<g>
		<path class="st0" d="M57,47.75H7c-3.033,0-5.5-2.468-5.5-5.5v-32c0-3.032,2.467-5.5,5.5-5.5h50c3.033,0,5.5,2.468,5.5,5.5v32
			C62.5,45.282,60.033,47.75,57,47.75z M7,5.75c-2.481,0-4.5,2.019-4.5,4.5v32c0,2.481,2.019,4.5,4.5,4.5h50
			c2.481,0,4.5-2.019,4.5-4.5v-32c0-2.481-2.019-4.5-4.5-4.5H7z"/>
	</g>
	<g>
		<path class="st0" d="M62,10.75H2c-0.276,0-0.5-0.224-0.5-0.5s0.224-0.5,0.5-0.5h60c0.276,0,0.5,0.224,0.5,0.5
			S62.276,10.75,62,10.75z"/>
	</g>
	<g>
		<path class="st0" d="M56.5,53.25H49c-0.276,0-0.5-0.224-0.5-0.5s0.224-0.5,0.5-0.5h7.5c0.276,0,0.5,0.224,0.5,0.5
			S56.776,53.25,56.5,53.25z"/>
	</g>
	<g>
		<path class="st0" d="M59.5,53.25h-1c-0.276,0-0.5-0.224-0.5-0.5s0.224-0.5,0.5-0.5h1c0.276,0,0.5,0.224,0.5,0.5
			S59.776,53.25,59.5,53.25z"/>
	</g>
	<g>
		<path class="st0" d="M15,53.25H7.5c-0.276,0-0.5-0.224-0.5-0.5s0.224-0.5,0.5-0.5H15c0.276,0,0.5,0.224,0.5,0.5
			S15.276,53.25,15,53.25z"/>
	</g>
	<g>
		<path class="st0" d="M5.5,53.25h-1c-0.276,0-0.5-0.224-0.5-0.5s0.224-0.5,0.5-0.5h1c0.276,0,0.5,0.224,0.5,0.5
			S5.776,53.25,5.5,53.25z"/>
	</g>
	<g>
		<path class="st2" d="M57,20.75H33v-3c0-0.552,0.448-1,1-1h22c0.552,0,1,0.448,1,1V20.75z"/>
		<path class="st0" d="M57,21.25H33c-0.276,0-0.5-0.224-0.5-0.5v-3c0-0.827,0.673-1.5,1.5-1.5h22c0.827,0,1.5,0.673,1.5,1.5v3
			C57.5,21.026,57.276,21.25,57,21.25z M33.5,20.25h23v-2.5c0-0.275-0.224-0.5-0.5-0.5H34c-0.276,0-0.5,0.225-0.5,0.5V20.25z"/>
	</g>
	<g>
		<path class="st0" d="M56,36.25H34c-0.827,0-1.5-0.673-1.5-1.5v-14c0-0.276,0.224-0.5,0.5-0.5h24c0.276,0,0.5,0.224,0.5,0.5v14
			C57.5,35.577,56.827,36.25,56,36.25z M33.5,21.25v13.5c0,0.275,0.224,0.5,0.5,0.5h22c0.276,0,0.5-0.225,0.5-0.5v-13.5H33.5z"/>
	</g>
	<g>
		<path class="st0" d="M42.5,31c-0.104,0-0.209-0.032-0.299-0.1l-3-2.25c-0.126-0.095-0.2-0.243-0.2-0.4s0.074-0.306,0.2-0.4l3-2.25
			c0.221-0.166,0.534-0.12,0.7,0.101s0.121,0.534-0.1,0.7l-2.466,1.85L42.8,30.1c0.221,0.166,0.266,0.479,0.1,0.7
			C42.802,30.931,42.652,31,42.5,31z"/>
	</g>
	<g>
		<path class="st0" d="M47.5,31c-0.152,0-0.302-0.069-0.4-0.2c-0.166-0.221-0.121-0.534,0.1-0.7l2.466-1.85L47.2,26.4
			c-0.221-0.166-0.266-0.479-0.1-0.7c0.167-0.22,0.479-0.266,0.7-0.101l3,2.25c0.126,0.095,0.2,0.243,0.2,0.4s-0.074,0.306-0.2,0.4
			l-3,2.25C47.71,30.968,47.605,31,47.5,31z"/>
	</g>
	<g>
		<path class="st0" d="M44.5,30.75c-0.04,0-0.081-0.005-0.122-0.015c-0.268-0.067-0.431-0.339-0.364-0.606l1-4
			c0.066-0.269,0.338-0.431,0.606-0.364c0.268,0.067,0.431,0.339,0.364,0.606l-1,4C44.928,30.599,44.725,30.75,44.5,30.75z"/>
	</g>
	<g>
		<rect x="10.5" y="18.25" transform="matrix(6.123234e-17 -1 1 6.123234e-17 -7.75 33.75)" class="st3" width="5" height="5"/>
		<path class="st0" d="M15.5,23.75h-5c-0.276,0-0.5-0.224-0.5-0.5v-5c0-0.276,0.224-0.5,0.5-0.5h5c0.276,0,0.5,0.224,0.5,0.5v5
			C16,23.526,15.776,23.75,15.5,23.75z M11,22.75h4v-4h-4V22.75z"/>
	</g>
	<g>
		<rect x="10.5" y="23.25" transform="matrix(6.123234e-17 -1 1 6.123234e-17 -12.75 38.75)" class="st3" width="5" height="5"/>
		<path class="st0" d="M15.5,28.75h-5c-0.276,0-0.5-0.224-0.5-0.5v-5c0-0.276,0.224-0.5,0.5-0.5h5c0.276,0,0.5,0.224,0.5,0.5v5
			C16,28.526,15.776,28.75,15.5,28.75z M11,27.75h4v-4h-4V27.75z"/>
	</g>
	<g>
		<rect x="10.5" y="28.25" transform="matrix(6.123234e-17 -1 1 6.123234e-17 -17.75 43.75)" class="st3" width="5" height="5"/>
		<path class="st0" d="M15.5,33.75h-5c-0.276,0-0.5-0.224-0.5-0.5v-5c0-0.276,0.224-0.5,0.5-0.5h5c0.276,0,0.5,0.224,0.5,0.5v5
			C16,33.526,15.776,33.75,15.5,33.75z M11,32.75h4v-4h-4V32.75z"/>
	</g>
	<g>
		<rect x="15.5" y="28.25" transform="matrix(6.123234e-17 -1 1 6.123234e-17 -12.75 48.75)" class="st3" width="5" height="5"/>
		<path class="st0" d="M20.5,33.75h-5c-0.276,0-0.5-0.224-0.5-0.5v-5c0-0.276,0.224-0.5,0.5-0.5h5c0.276,0,0.5,0.224,0.5,0.5v5
			C21,33.526,20.776,33.75,20.5,33.75z M16,32.75h4v-4h-4V32.75z"/>
	</g>
	<g>
		<path class="st0" d="M28,42.75c-0.276,0-0.5-0.224-0.5-0.5v-32c0-0.276,0.224-0.5,0.5-0.5s0.5,0.224,0.5,0.5v32
			C28.5,42.526,28.276,42.75,28,42.75z"/>
	</g>
</g>
</svg>
