<?xml version="1.0" encoding="utf-8"?>
<!-- Generator: Adobe Illustrator 22.0.0, SVG Export Plug-In . SVG Version: 6.00 Build 0)  -->
<svg version="1.1" id="Icon_Set" xmlns="http://www.w3.org/2000/svg" xmlns:xlink="http://www.w3.org/1999/xlink" x="0px" y="0px"
	 viewBox="0 0 64 64" style="enable-background:new 0 0 64 64;" xml:space="preserve">
<style type="text/css">
	.st0{fill:#263238;}
	.st1{fill:#FFD740;}
	.st2{fill:#FF5252;}
	.st3{fill:#40C4FF;}
	.st4{fill:#FFFFFF;}
	.st5{fill:#4DB6AC;}
	.st6{fill:#4FC3F7;}
</style>
<g>
	<g>
		<path class="st0" d="M43.5,62H37c-0.276,0-0.5-0.224-0.5-0.5S36.724,61,37,61h6.5c1.103,0,2-0.897,2-2V44c0-1.103-0.897-2-2-2h-23
			c-1.103,0-2,0.897-2,2v15c0,1.103,0.897,2,2,2H27c0.276,0,0.5,0.224,0.5,0.5S27.276,62,27,62h-6.5c-1.654,0-3-1.346-3-3V44
			c0-1.654,1.346-3,3-3h23c1.654,0,3,1.346,3,3v15C46.5,60.654,45.154,62,43.5,62z"/>
	</g>
	<g>
		<path class="st0" d="M32,32c-5.243,0-9.746-3.475-11.095-8.501c-0.614-0.02-1.203-0.23-1.707-0.611
			C19.073,22.792,19,22.645,19,22.488v-3.977c0-0.157,0.073-0.304,0.198-0.399c0.504-0.381,1.093-0.592,1.707-0.611
			C22.255,12.475,26.757,9,32,9c5.243,0,9.746,3.475,11.095,8.501c0.614,0.02,1.202,0.23,1.706,0.61
			C44.927,18.206,45,18.354,45,18.511v3.979c0,0.157-0.073,0.305-0.199,0.399c-0.504,0.38-1.092,0.59-1.705,0.61
			C41.746,28.525,37.243,32,32,32z M21.216,22.48c0.241,0,0.507,0.15,0.56,0.378C22.878,27.652,27.083,31,32,31
			s9.122-3.348,10.224-8.141c0.057-0.248,0.271-0.419,0.546-0.385C42.905,22.492,42.952,22.5,43,22.5c0.351,0,0.692-0.095,1-0.277
			v-3.447c-0.349-0.206-0.748-0.312-1.142-0.262c-0.247,0.032-0.575-0.121-0.634-0.373C41.122,13.348,36.918,10,32,10
			s-9.122,3.348-10.224,8.141c-0.057,0.249-0.298,0.413-0.545,0.385C21.096,18.508,21.049,18.5,21,18.5
			c-0.352,0-0.693,0.095-1,0.277v3.445c0.35,0.208,0.762,0.318,1.143,0.263C21.167,22.482,21.191,22.48,21.216,22.48z"/>
	</g>
	<g>
		<path class="st0" d="M14,57c-0.276,0-0.5-0.224-0.5-0.5V43.445c0-3.204,1.903-6.09,4.849-7.353l9.455-4.052
			c0.25-0.109,0.547,0.008,0.656,0.263c0.109,0.253-0.009,0.547-0.263,0.656l-9.455,4.052c-2.577,1.105-4.242,3.63-4.242,6.434V56.5
			C14.5,56.776,14.276,57,14,57z"/>
	</g>
	<g>
		<path class="st0" d="M50,57c-0.276,0-0.5-0.224-0.5-0.5V43.445c0-2.804-1.665-5.33-4.243-6.434l-9.454-4.052
			c-0.254-0.109-0.371-0.403-0.263-0.656c0.11-0.255,0.404-0.372,0.657-0.263l9.454,4.052c2.945,1.262,4.849,4.148,4.849,7.353V56.5
			C50.5,56.776,50.276,57,50,57z"/>
	</g>
	<g>
		<path class="st0" d="M32,39c-0.167,0-0.323-0.083-0.416-0.223l-4-6C27.529,32.695,27.5,32.599,27.5,32.5v-1.761
			c0-0.166,0.082-0.32,0.218-0.413c0.137-0.093,0.311-0.114,0.464-0.052c2.458,0.963,5.177,0.964,7.635,0
			c0.153-0.061,0.327-0.042,0.464,0.052c0.137,0.093,0.219,0.248,0.219,0.413V32.5c0,0.099-0.029,0.195-0.084,0.277l-4,6
			C32.323,38.917,32.167,39,32,39z M28.5,32.349l3.5,5.25l3.5-5.25v-0.9c-2.271,0.732-4.728,0.732-7,0V32.349z M36,32.5h0.01H36z"/>
	</g>
	<g>
		<path class="st0" d="M18.25,31.714h-9c-0.276,0-0.5-0.224-0.5-0.5s0.224-0.5,0.5-0.5h9c0.276,0,0.5,0.224,0.5,0.5
			S18.526,31.714,18.25,31.714z"/>
	</g>
	<g>
		<path class="st0" d="M7.25,31.714h-2c-0.276,0-0.5-0.224-0.5-0.5s0.224-0.5,0.5-0.5h2c0.276,0,0.5,0.224,0.5,0.5
			S7.526,31.714,7.25,31.714z"/>
	</g>
	<g>
		<path class="st0" d="M54.75,31.714h-9c-0.276,0-0.5-0.224-0.5-0.5s0.224-0.5,0.5-0.5h9c0.276,0,0.5,0.224,0.5,0.5
			S55.026,31.714,54.75,31.714z"/>
	</g>
	<g>
		<path class="st0" d="M58.75,31.714h-2c-0.276,0-0.5-0.224-0.5-0.5s0.224-0.5,0.5-0.5h2c0.276,0,0.5,0.224,0.5,0.5
			S59.026,31.714,58.75,31.714z"/>
	</g>
	<g>
		<path class="st0" d="M35,64c-0.276,0-0.5-0.224-0.5-0.5V59h-5v4.5c0,0.276-0.224,0.5-0.5,0.5s-0.5-0.224-0.5-0.5v-5
			c0-0.276,0.224-0.5,0.5-0.5h6c0.276,0,0.5,0.224,0.5,0.5v5C35.5,63.776,35.276,64,35,64z"/>
	</g>
	<g>
		<path class="st0" d="M15.5,7.5h-4C11.224,7.5,11,7.276,11,7s0.224-0.5,0.5-0.5h4C15.776,6.5,16,6.724,16,7S15.776,7.5,15.5,7.5z"
			/>
	</g>
	<g>
		<path class="st0" d="M13.5,9.5C13.224,9.5,13,9.276,13,9V5c0-0.276,0.224-0.5,0.5-0.5S14,4.724,14,5v4
			C14,9.276,13.776,9.5,13.5,9.5z"/>
	</g>
	<g>
		<path class="st0" d="M11.5,12.5h-4C7.224,12.5,7,12.276,7,12s0.224-0.5,0.5-0.5h4c0.276,0,0.5,0.224,0.5,0.5
			S11.776,12.5,11.5,12.5z"/>
	</g>
	<g>
		<path class="st0" d="M9.5,14.5C9.224,14.5,9,14.276,9,14v-4c0-0.276,0.224-0.5,0.5-0.5S10,9.724,10,10v4
			C10,14.276,9.776,14.5,9.5,14.5z"/>
	</g>
	<g>
		<path class="st1" d="M22,19.5h-0.5V13h3v4C24.5,18.381,23.381,19.5,22,19.5z"/>
		<path class="st0" d="M22,20h-0.5c-0.276,0-0.5-0.224-0.5-0.5V13c0-0.276,0.224-0.5,0.5-0.5h3c0.276,0,0.5,0.224,0.5,0.5v4
			C25,18.654,23.655,20,22,20z M22,19h0.01H22z M22,13.5V19c1.103,0,2-0.897,2-2v-3.5H22z"/>
	</g>
	<g>
		<path class="st1" d="M39.5,12.949V17c0,1.381,1.119,2.5,2.5,2.5h0.5v-7.935C41.712,12.339,40.662,12.832,39.5,12.949z"/>
		<path class="st0" d="M42.5,20H42c-1.654,0-3-1.346-3-3v-4.05c0-0.257,0.194-0.472,0.45-0.498c1.03-0.104,1.989-0.545,2.699-1.244
			c0.145-0.141,0.359-0.183,0.544-0.104C42.879,11.182,43,11.363,43,11.565V19.5C43,19.776,42.776,20,42.5,20z M40,13.383V17
			c0,1.103,0.897,2,2,2v-6.401C41.399,12.984,40.718,13.252,40,13.383z"/>
	</g>
	<g>
		<path class="st0" d="M32,25.998c-1.409,0-2.817-0.536-3.889-1.608c-0.195-0.195-0.195-0.512,0-0.707s0.512-0.195,0.707,0
			c1.754,1.754,4.608,1.754,6.364,0c0.195-0.195,0.512-0.195,0.707,0s0.195,0.512,0,0.707C34.817,25.461,33.408,25.998,32,25.998z"
			/>
	</g>
	<g>
		<path class="st1" d="M39,13H21.5v0c0-4.142,3.358-7.5,7.5-7.5h5.205c2.171,0,4.315-0.471,6.286-1.381L44,2.5V8
			C44,10.761,41.762,13,39,13z"/>
		<path class="st0" d="M39,13.5H21.5c-0.276,0-0.5-0.224-0.5-0.5c0-4.411,3.589-8,8-8h5.206c2.084,0,4.185-0.461,6.076-1.335
			l3.508-1.619c0.155-0.071,0.336-0.059,0.479,0.033C44.413,2.171,44.5,2.33,44.5,2.5V8C44.5,11.033,42.032,13.5,39,13.5z
			 M22.018,12.5H39c2.481,0,4.5-2.019,4.5-4.5V3.281l-2.798,1.292C38.68,5.506,36.434,6,34.206,6H29
			C25.309,6,22.275,8.873,22.018,12.5z"/>
	</g>
	<g>
		<path class="st0" d="M44.5,17c-0.276,0-0.5-0.224-0.5-0.5v-3.073c0-0.339-0.014-0.676-0.041-1.008
			c-0.022-0.275,0.182-0.517,0.457-0.54c0.274-0.017,0.517,0.183,0.539,0.458C44.984,12.696,45,13.06,45,13.427V16.5
			C45,16.776,44.776,17,44.5,17z"/>
	</g>
	<g>
		<path class="st3" d="M44.5,16.5H46c1.381,0,2.5,1.119,2.5,2.5v3c0,1.381-1.119,2.5-2.5,2.5h-1.5V16.5z"/>
		<path class="st0" d="M46,25h-1.5c-0.276,0-0.5-0.224-0.5-0.5v-8c0-0.276,0.224-0.5,0.5-0.5H46c1.654,0,3,1.346,3,3v3
			C49,23.654,47.654,25,46,25z M45,24h1c1.103,0,2-0.897,2-2v-3c0-1.103-0.897-2-2-2h-1V24z"/>
	</g>
	<g>
		<path class="st3" d="M19.5,24.5H18c-1.381,0-2.5-1.119-2.5-2.5v-3c0-1.381,1.119-2.5,2.5-2.5h1.5V24.5z"/>
		<path class="st0" d="M19.5,25H18c-1.654,0-3-1.346-3-3v-3c0-1.654,1.346-3,3-3h1.5c0.276,0,0.5,0.224,0.5,0.5v8
			C20,24.776,19.776,25,19.5,25z M18,17c-1.103,0-2,0.897-2,2v3c0,1.103,0.897,2,2,2h1v-7H18z"/>
	</g>
	<g>
		<path class="st0" d="M44.5,17c-0.276,0-0.5-0.224-0.5-0.5V13c0-0.133-0.009-0.264-0.018-0.394l-0.014-0.222
			c-0.015-0.275,0.198-0.51,0.474-0.524c0.306-0.025,0.511,0.199,0.524,0.475l0.013,0.205C44.99,12.692,45,12.845,45,13v3.5
			C45,16.776,44.776,17,44.5,17z"/>
	</g>
	<g>
		<path class="st0" d="M19.5,17c-0.276,0-0.5-0.224-0.5-0.5V13c0-7.168,5.832-13,13-13c2.571,0,5.062,0.753,7.199,2.178
			c0.229,0.153,0.292,0.463,0.139,0.693c-0.153,0.23-0.465,0.291-0.693,0.139C36.671,1.695,34.374,1,32,1c-6.617,0-12,5.383-12,12
			v3.5C20,16.776,19.776,17,19.5,17z"/>
	</g>
	<g>
		<path class="st0" d="M28,54.5c-0.104,0-0.209-0.033-0.299-0.1l-4-3c-0.126-0.094-0.2-0.243-0.2-0.4s0.074-0.306,0.2-0.4l4-3
			c0.22-0.166,0.534-0.122,0.7,0.1c0.166,0.221,0.121,0.534-0.1,0.7L24.833,51l3.466,2.6c0.221,0.166,0.266,0.479,0.1,0.7
			C28.302,54.431,28.152,54.5,28,54.5z"/>
	</g>
	<g>
		<path class="st0" d="M36,54.5c-0.151,0-0.302-0.069-0.4-0.2c-0.165-0.221-0.12-0.534,0.101-0.7l3.467-2.6L35.7,48.4
			c-0.221-0.166-0.266-0.479-0.101-0.7c0.167-0.222,0.48-0.264,0.7-0.1l4,3c0.126,0.094,0.2,0.243,0.2,0.4s-0.074,0.306-0.2,0.4
			l-4,3C36.21,54.467,36.104,54.5,36,54.5z"/>
	</g>
	<g>
		<path class="st0" d="M30,54.5c-0.095,0-0.191-0.027-0.277-0.084c-0.23-0.153-0.292-0.463-0.139-0.693l4-6
			c0.154-0.23,0.466-0.29,0.693-0.139c0.229,0.153,0.292,0.463,0.139,0.693l-4,6C30.32,54.422,30.161,54.5,30,54.5z"/>
	</g>
</g>
</svg>
