<?xml version="1.0" encoding="utf-8"?>
<!-- Generator: Adobe Illustrator 22.0.0, SVG Export Plug-In . SVG Version: 6.00 Build 0)  -->
<svg version="1.1" id="Icon_Set" xmlns="http://www.w3.org/2000/svg" xmlns:xlink="http://www.w3.org/1999/xlink" x="0px" y="0px"
	 viewBox="0 0 64 64" style="enable-background:new 0 0 64 64;" xml:space="preserve">
<style type="text/css">
	.st0{fill:#263238;}
	.st1{fill:#FFD740;}
	.st2{fill:#FF5252;}
	.st3{fill:#40C4FF;}
	.st4{fill:#FFFFFF;}
	.st5{fill:#4DB6AC;}
	.st6{fill:#4FC3F7;}
</style>
<g>
	<g>
		<path class="st0" d="M49.5,52.5h-35c-1.654,0-3-1.346-3-3v-35c0-1.654,1.346-3,3-3h35c1.654,0,3,1.346,3,3v35
			C52.5,51.154,51.154,52.5,49.5,52.5z M14.5,12.5c-1.103,0-2,0.897-2,2v35c0,1.103,0.897,2,2,2h35c1.103,0,2-0.897,2-2v-35
			c0-1.103-0.897-2-2-2H14.5z"/>
	</g>
	<g>
		<path class="st0" d="M23,59.5H9c-0.276,0-0.5-0.224-0.5-0.5s0.224-0.5,0.5-0.5h14c0.276,0,0.5,0.224,0.5,0.5S23.276,59.5,23,59.5z
			"/>
	</g>
	<g>
		<path class="st0" d="M7,59.5H5c-0.276,0-0.5-0.224-0.5-0.5s0.224-0.5,0.5-0.5h2c0.276,0,0.5,0.224,0.5,0.5S7.276,59.5,7,59.5z"/>
	</g>
	<g>
		<path class="st0" d="M55,5.5H41c-0.276,0-0.5-0.224-0.5-0.5s0.224-0.5,0.5-0.5h14c0.276,0,0.5,0.224,0.5,0.5S55.276,5.5,55,5.5z"
			/>
	</g>
	<g>
		<path class="st0" d="M59,5.5h-2c-0.276,0-0.5-0.224-0.5-0.5s0.224-0.5,0.5-0.5h2c0.276,0,0.5,0.224,0.5,0.5S59.276,5.5,59,5.5z"/>
	</g>
	<g>
		<path class="st0" d="M14,7.5h-4C9.724,7.5,9.5,7.276,9.5,7S9.724,6.5,10,6.5h4c0.276,0,0.5,0.224,0.5,0.5S14.276,7.5,14,7.5z"/>
	</g>
	<g>
		<path class="st0" d="M12,9.5c-0.276,0-0.5-0.224-0.5-0.5V5c0-0.276,0.224-0.5,0.5-0.5s0.5,0.224,0.5,0.5v4
			C12.5,9.276,12.276,9.5,12,9.5z"/>
	</g>
	<g>
		<path class="st0" d="M9,12.5H5c-0.276,0-0.5-0.224-0.5-0.5s0.224-0.5,0.5-0.5h4c0.276,0,0.5,0.224,0.5,0.5S9.276,12.5,9,12.5z"/>
	</g>
	<g>
		<path class="st0" d="M7,14.5c-0.276,0-0.5-0.224-0.5-0.5v-4c0-0.276,0.224-0.5,0.5-0.5S7.5,9.724,7.5,10v4
			C7.5,14.276,7.276,14.5,7,14.5z"/>
	</g>
	<g>
		<path class="st0" d="M43.452,42.5h-3.037c-1.048,0-2.033-0.559-2.572-1.457l-1.543-2.572c-0.36-0.599-1.017-0.971-1.715-0.971
			h-5.169c-0.698,0-1.355,0.372-1.715,0.971l-1.543,2.572c-0.54,0.899-1.525,1.457-2.573,1.457h-3.037
			c-0.989,0-1.883-0.464-2.453-1.272c-0.569-0.808-0.706-1.806-0.373-2.736l2.622-7.341l0,0c0.78-2.184,2.861-3.65,5.18-3.65h12.953
			c2.318,0,4.4,1.467,5.179,3.65l2.622,7.341c0.333,0.931,0.197,1.929-0.373,2.736C45.335,42.036,44.441,42.5,43.452,42.5z
			 M29.415,36.5h5.169c1.047,0,2.033,0.558,2.573,1.456l1.543,2.573c0.359,0.599,1.017,0.971,1.715,0.971h3.037
			c0.659,0,1.255-0.31,1.635-0.848c0.379-0.539,0.47-1.204,0.249-1.825l-2.622-7.341C42.076,29.7,40.373,28.5,38.476,28.5H25.523
			c-1.897,0-3.6,1.2-4.238,2.986l-2.622,7.341c-0.222,0.621-0.131,1.286,0.249,1.825c0.38,0.538,0.976,0.848,1.635,0.848h3.037
			c0.698,0,1.355-0.372,1.715-0.972l1.543-2.571C27.382,37.059,28.367,36.5,29.415,36.5z"/>
	</g>
	<g>
		<circle class="st3" cx="25.5" cy="33" r="2.5"/>
		<path class="st0" d="M25.5,36c-1.654,0-3-1.346-3-3s1.346-3,3-3s3,1.346,3,3S27.154,36,25.5,36z M25.5,31c-1.103,0-2,0.897-2,2
			s0.897,2,2,2s2-0.897,2-2S26.603,31,25.5,31z"/>
	</g>
	<g>
		<circle class="st3" cx="38.5" cy="33" r="2.5"/>
		<path class="st0" d="M38.5,36c-1.654,0-3-1.346-3-3s1.346-3,3-3s3,1.346,3,3S40.154,36,38.5,36z M38.5,31c-1.103,0-2,0.897-2,2
			s0.897,2,2,2s2-0.897,2-2S39.603,31,38.5,31z"/>
	</g>
	<g>
		<path class="st0" d="M33.5,33.5h-3c-0.276,0-0.5-0.224-0.5-0.5s0.224-0.5,0.5-0.5h3c0.276,0,0.5,0.224,0.5,0.5
			S33.776,33.5,33.5,33.5z"/>
	</g>
	<g>
		<polygon class="st1" points="37,22 32,19 27,22 27,12 37,12 		"/>
		<path class="st0" d="M37,22.5c-0.089,0-0.178-0.023-0.257-0.071L32,19.583l-4.743,2.846c-0.155,0.094-0.348,0.095-0.504,0.007
			C26.596,22.347,26.5,22.18,26.5,22V12c0-0.276,0.224-0.5,0.5-0.5h10c0.276,0,0.5,0.224,0.5,0.5v10c0,0.18-0.097,0.347-0.253,0.436
			C37.169,22.479,37.084,22.5,37,22.5z M32,18.5c0.089,0,0.178,0.023,0.257,0.071l4.243,2.546V12.5h-9v8.617l4.243-2.546
			C31.821,18.523,31.911,18.5,32,18.5z"/>
	</g>
</g>
</svg>
