<?xml version="1.0" encoding="utf-8"?>
<!-- Generator: Adobe Illustrator 22.0.0, SVG Export Plug-In . SVG Version: 6.00 Build 0)  -->
<svg version="1.1" id="Icon_Set" xmlns="http://www.w3.org/2000/svg" xmlns:xlink="http://www.w3.org/1999/xlink" x="0px" y="0px"
	 viewBox="0 0 64 64" style="enable-background:new 0 0 64 64;" xml:space="preserve">
<style type="text/css">
	.st0{fill:#263238;}
	.st1{fill:#FFD740;}
	.st2{fill:#FF5252;}
	.st3{fill:#40C4FF;}
	.st4{fill:#FFFFFF;}
	.st5{fill:#4DB6AC;}
	.st6{fill:#4FC3F7;}
</style>
<g>
	<g>
		<path class="st5" d="M49,63.5H15c-8.284,0-15-6.716-15-15v0h64v0C64,56.784,57.284,63.5,49,63.5z"/>
	</g>
	<g>
		<path class="st0" d="M52,49H12c-0.276,0-0.5-0.224-0.5-0.5v-2c0-1.654,1.346-3,3-3h35c1.654,0,3,1.346,3,3v2
			C52.5,48.776,52.276,49,52,49z M12.5,48h39v-1.5c0-1.103-0.897-2-2-2h-35c-1.103,0-2,0.897-2,2V48z"/>
	</g>
	<g>
		<path class="st0" d="M47,44.5H17c-0.276,0-0.5-0.224-0.5-0.5V13.414c0-0.395,0.16-0.781,0.439-1.061l5.414-5.414
			C22.633,6.66,23.02,6.5,23.414,6.5h17.172c0.395,0,0.781,0.16,1.061,0.439l5.414,5.414c0.279,0.279,0.439,0.666,0.439,1.061V44
			C47.5,44.276,47.276,44.5,47,44.5z M17.5,43.5h29V13.414c0-0.132-0.054-0.261-0.146-0.354l-5.414-5.414
			C40.847,7.554,40.718,7.5,40.586,7.5H23.414c-0.132,0-0.261,0.054-0.354,0.146l-5.414,5.414c-0.093,0.093-0.146,0.222-0.146,0.354
			V43.5z"/>
	</g>
	<g>
		<circle class="st1" cx="32" cy="21.5" r="9"/>
		<path class="st0" d="M32,31c-5.238,0-9.5-4.262-9.5-9.5S26.762,12,32,12s9.5,4.262,9.5,9.5S37.238,31,32,31z M32,13
			c-4.687,0-8.5,3.813-8.5,8.5S27.313,30,32,30s8.5-3.813,8.5-8.5S36.687,13,32,13z"/>
	</g>
	<g>
		<path class="st0" d="M34,22c-0.128,0-0.256-0.049-0.354-0.146c-0.195-0.195-0.195-0.512,0-0.707l3-3
			c0.195-0.195,0.512-0.195,0.707,0s0.195,0.512,0,0.707l-3,3C34.256,21.951,34.128,22,34,22z"/>
	</g>
	<g>
		<path class="st0" d="M37,22c-0.128,0-0.256-0.049-0.354-0.146l-3-3c-0.195-0.195-0.195-0.512,0-0.707s0.512-0.195,0.707,0l3,3
			c0.195,0.195,0.195,0.512,0,0.707C37.256,21.951,37.128,22,37,22z"/>
	</g>
	<g>
		<path class="st0" d="M27,22c-0.128,0-0.256-0.049-0.354-0.146c-0.195-0.195-0.195-0.512,0-0.707l3-3
			c0.195-0.195,0.512-0.195,0.707,0s0.195,0.512,0,0.707l-3,3C27.256,21.951,27.128,22,27,22z"/>
	</g>
	<g>
		<path class="st0" d="M30,22c-0.128,0-0.256-0.049-0.354-0.146l-3-3c-0.195-0.195-0.195-0.512,0-0.707s0.512-0.195,0.707,0l3,3
			c0.195,0.195,0.195,0.512,0,0.707C30.256,21.951,30.128,22,30,22z"/>
	</g>
	<g>
		<path class="st0" d="M36,25.5h-8c-0.276,0-0.5-0.224-0.5-0.5s0.224-0.5,0.5-0.5h8c0.276,0,0.5,0.224,0.5,0.5S36.276,25.5,36,25.5z
			"/>
	</g>
	<g>
		<path class="st0" d="M37,42H27c-0.276,0-0.5-0.224-0.5-0.5S26.724,41,27,41h10c0.276,0,0.5,0.224,0.5,0.5S37.276,42,37,42z"/>
	</g>
	<g>
		<path class="st0" d="M59.5,30.5h-9c-0.276,0-0.5-0.224-0.5-0.5s0.224-0.5,0.5-0.5h9c0.276,0,0.5,0.224,0.5,0.5
			S59.776,30.5,59.5,30.5z"/>
	</g>
	<g>
		<path class="st0" d="M63.5,30.5h-2c-0.276,0-0.5-0.224-0.5-0.5s0.224-0.5,0.5-0.5h2c0.276,0,0.5,0.224,0.5,0.5
			S63.776,30.5,63.5,30.5z"/>
	</g>
	<g>
		<path class="st0" d="M13.5,30.5h-9C4.224,30.5,4,30.276,4,30s0.224-0.5,0.5-0.5h9c0.276,0,0.5,0.224,0.5,0.5
			S13.776,30.5,13.5,30.5z"/>
	</g>
	<g>
		<path class="st0" d="M2.5,30.5h-2C0.224,30.5,0,30.276,0,30s0.224-0.5,0.5-0.5h2C2.776,29.5,3,29.724,3,30S2.776,30.5,2.5,30.5z"
			/>
	</g>
	<g>
		<path class="st0" d="M39.001,39h-14c-0.276,0-0.5-0.224-0.5-0.5v-4c0-0.276,0.224-0.5,0.5-0.5h14c0.276,0,0.5,0.224,0.5,0.5v4
			C39.501,38.776,39.277,39,39.001,39z M25.501,38h13v-3h-13V38z"/>
	</g>
	<g>
		<path class="st0" d="M21,3h-4c-0.276,0-0.5-0.224-0.5-0.5S16.724,2,17,2h4c0.276,0,0.5,0.224,0.5,0.5S21.276,3,21,3z"/>
	</g>
	<g>
		<path class="st0" d="M19,5c-0.276,0-0.5-0.224-0.5-0.5v-4C18.5,0.224,18.724,0,19,0s0.5,0.224,0.5,0.5v4C19.5,4.776,19.276,5,19,5
			z"/>
	</g>
	<g>
		<path class="st0" d="M15,9h-4c-0.276,0-0.5-0.224-0.5-0.5S10.724,8,11,8h4c0.276,0,0.5,0.224,0.5,0.5S15.276,9,15,9z"/>
	</g>
	<g>
		<path class="st0" d="M13,11c-0.276,0-0.5-0.224-0.5-0.5v-4C12.5,6.224,12.724,6,13,6s0.5,0.224,0.5,0.5v4
			C13.5,10.776,13.276,11,13,11z"/>
	</g>
</g>
</svg>
