<?xml version="1.0" encoding="utf-8"?>
<!-- Generator: Adobe Illustrator 22.0.0, SVG Export Plug-In . SVG Version: 6.00 Build 0)  -->
<svg version="1.1" id="Icon_Set" xmlns="http://www.w3.org/2000/svg" xmlns:xlink="http://www.w3.org/1999/xlink" x="0px" y="0px"
	 viewBox="0 0 64 64" style="enable-background:new 0 0 64 64;" xml:space="preserve">
<style type="text/css">
	.st0{fill:#263238;}
	.st1{fill:#FFD740;}
	.st2{fill:#FF5252;}
	.st3{fill:#40C4FF;}
	.st4{fill:#FFFFFF;}
	.st5{fill:#4DB6AC;}
	.st6{fill:#4FC3F7;}
</style>
<g>
	<g>
		<path class="st0" d="M32,11c-5.737,0-11.248-1.238-15.121-3.396c-0.241-0.134-0.328-0.438-0.193-0.68
			c0.134-0.241,0.438-0.329,0.68-0.193C21.094,8.809,26.428,10,32,10s10.906-1.191,14.634-3.27c0.241-0.135,0.546-0.048,0.68,0.193
			c0.135,0.241,0.048,0.546-0.193,0.68C43.248,9.762,37.737,11,32,11z"/>
	</g>
	<g>
		<path class="st0" d="M17.123,34.333c-0.175,0-0.346-0.093-0.437-0.257c-0.135-0.241-0.048-0.546,0.193-0.68
			c2.471-1.378,5.616-2.394,9.096-2.938c0.274-0.039,0.529,0.145,0.571,0.417s-0.144,0.528-0.417,0.571
			c-3.364,0.526-6.395,1.503-8.763,2.823C17.289,34.312,17.206,34.333,17.123,34.333z"/>
	</g>
	<g>
		<path class="st0" d="M46.877,34.333c-0.083,0-0.166-0.021-0.243-0.063c-2.369-1.32-5.4-2.297-8.765-2.823
			c-0.273-0.043-0.459-0.299-0.417-0.571c0.043-0.273,0.302-0.456,0.571-0.417c3.48,0.545,6.626,1.561,9.098,2.938
			c0.241,0.134,0.328,0.438,0.193,0.68C47.223,34.24,47.052,34.333,46.877,34.333z"/>
	</g>
	<g>
		<path class="st0" d="M32,12c-0.276,0-0.5-0.224-0.5-0.5v-11C31.5,0.224,31.724,0,32,0s0.5,0.224,0.5,0.5v11
			C32.5,11.776,32.276,12,32,12z"/>
	</g>
	<g>
		<path class="st0" d="M52,21H39.07c-0.276,0-0.5-0.224-0.5-0.5s0.224-0.5,0.5-0.5H52c0.276,0,0.5,0.224,0.5,0.5S52.276,21,52,21z"
			/>
	</g>
	<g>
		<path class="st0" d="M24.93,21H12c-0.276,0-0.5-0.224-0.5-0.5S11.724,20,12,20h12.93c0.276,0,0.5,0.224,0.5,0.5
			S25.206,21,24.93,21z"/>
	</g>
	<g>
		<path class="st0" d="M47.947,64H47.09c-2.097,0-3.982-1.165-4.919-3.04L39.691,56H24.309l-2.48,4.96
			C20.892,62.835,19.006,64,16.91,64h-0.856c-1.646,0-3.192-0.728-4.24-1.997c-1.049-1.27-1.472-2.925-1.161-4.542l2.297-11.944l0,0
			C13.898,40.582,18.235,37,23.26,37H40.74c5.025,0,9.362,3.582,10.312,8.517l2.297,11.944c0.311,1.617-0.112,3.272-1.161,4.542
			C51.139,63.272,49.593,64,47.947,64z M24,55h16c0.189,0,0.362,0.107,0.447,0.276l2.618,5.236C43.833,62.047,45.375,63,47.09,63
			h0.856c1.347,0,2.611-0.596,3.469-1.634c0.858-1.039,1.204-2.394,0.95-3.716l-2.297-11.944C49.21,41.241,45.287,38,40.74,38H23.26
			c-4.547,0-8.47,3.241-9.329,7.706L11.634,57.65c-0.254,1.322,0.092,2.677,0.95,3.716C13.442,62.404,14.706,63,16.053,63h0.856
			c1.716,0,3.258-0.953,4.025-2.487l2.618-5.236C23.638,55.107,23.811,55,24,55z"/>
	</g>
	<g>
		<path class="st0" d="M44.484,36.611c-0.147,0-0.292-0.064-0.391-0.188c-0.173-0.216-0.138-0.53,0.078-0.703
			C48.829,31.99,51.5,26.442,51.5,20.5C51.5,9.748,42.752,1,32,1S12.5,9.748,12.5,20.5c0,5.942,2.671,11.49,7.329,15.221
			c0.216,0.173,0.25,0.487,0.078,0.703c-0.172,0.216-0.486,0.25-0.703,0.078C14.308,32.58,11.5,26.748,11.5,20.5
			C11.5,9.196,20.696,0,32,0s20.5,9.196,20.5,20.5c0,6.248-2.808,12.08-7.704,16.002C44.704,36.575,44.594,36.611,44.484,36.611z"/>
	</g>
	<g>
		<path class="st0" d="M40.17,36c-0.099,0-0.2-0.029-0.287-0.091c-0.226-0.159-0.28-0.471-0.122-0.696
			c2.618-3.725,4.12-9.087,4.12-14.713C43.881,9.748,38.551,1,32,1S20.119,9.748,20.119,20.5c0,5.626,1.501,10.988,4.12,14.713
			c0.159,0.226,0.104,0.537-0.122,0.696c-0.227,0.158-0.538,0.104-0.697-0.122c-2.733-3.888-4.301-9.46-4.301-15.287
			C19.119,9.196,24.897,0,32,0s12.881,9.196,12.881,20.5c0,5.827-1.568,11.399-4.301,15.287C40.482,35.926,40.327,36,40.17,36z"/>
	</g>
	<g>
		<circle class="st1" cx="42" cy="46.5" r="4.5"/>
		<path class="st0" d="M42,51.5c-2.757,0-5-2.243-5-5s2.243-5,5-5s5,2.243,5,5S44.757,51.5,42,51.5z M42,42.5c-2.206,0-4,1.794-4,4
			s1.794,4,4,4s4-1.794,4-4S44.206,42.5,42,42.5z"/>
	</g>
	<g>
		<path class="st1" d="M25.5,44.958h-2v-2c0-0.552-0.448-1-1-1h-1c-0.552,0-1,0.448-1,1v2h-2c-0.552,0-1,0.448-1,1v1
			c0,0.552,0.448,1,1,1h2v2c0,0.552,0.448,1,1,1h1c0.552,0,1-0.448,1-1v-2h2c0.552,0,1-0.448,1-1v-1
			C26.5,45.406,26.052,44.958,25.5,44.958z"/>
		<path class="st0" d="M22.5,51.458h-1c-0.827,0-1.5-0.673-1.5-1.5v-1.5h-1.5c-0.827,0-1.5-0.673-1.5-1.5v-1
			c0-0.827,0.673-1.5,1.5-1.5H20v-1.5c0-0.827,0.673-1.5,1.5-1.5h1c0.827,0,1.5,0.673,1.5,1.5v1.5h1.5c0.827,0,1.5,0.673,1.5,1.5v1
			c0,0.827-0.673,1.5-1.5,1.5H24v1.5C24,50.785,23.327,51.458,22.5,51.458z M18.5,45.458c-0.276,0-0.5,0.225-0.5,0.5v1
			c0,0.275,0.224,0.5,0.5,0.5h2c0.276,0,0.5,0.224,0.5,0.5v2c0,0.275,0.224,0.5,0.5,0.5h1c0.276,0,0.5-0.225,0.5-0.5v-2
			c0-0.276,0.224-0.5,0.5-0.5h2c0.276,0,0.5-0.225,0.5-0.5v-1c0-0.275-0.224-0.5-0.5-0.5h-2c-0.276,0-0.5-0.224-0.5-0.5v-2
			c0-0.275-0.224-0.5-0.5-0.5h-1c-0.276,0-0.5,0.225-0.5,0.5v2c0,0.276-0.224,0.5-0.5,0.5H18.5z"/>
	</g>
	<g>
		<path class="st0" d="M42,45c-0.276,0-0.5-0.224-0.5-0.5V42c0-0.276,0.224-0.5,0.5-0.5s0.5,0.224,0.5,0.5v2.5
			C42.5,44.776,42.276,45,42,45z"/>
	</g>
	<g>
		<path class="st0" d="M42,51.5c-0.276,0-0.5-0.224-0.5-0.5v-2.5c0-0.276,0.224-0.5,0.5-0.5s0.5,0.224,0.5,0.5V51
			C42.5,51.276,42.276,51.5,42,51.5z"/>
	</g>
	<g>
		<path class="st0" d="M46.5,47H44c-0.276,0-0.5-0.224-0.5-0.5S43.724,46,44,46h2.5c0.276,0,0.5,0.224,0.5,0.5S46.776,47,46.5,47z"
			/>
	</g>
	<g>
		<path class="st0" d="M40,47h-2.5c-0.276,0-0.5-0.224-0.5-0.5s0.224-0.5,0.5-0.5H40c0.276,0,0.5,0.224,0.5,0.5S40.276,47,40,47z"/>
	</g>
	<g>
		<path class="st0" d="M33.5,53h-3c-0.827,0-1.5-0.673-1.5-1.5v-1c0-0.827,0.673-1.5,1.5-1.5h3c0.827,0,1.5,0.673,1.5,1.5v1
			C35,52.327,34.327,53,33.5,53z M30.5,50c-0.276,0-0.5,0.225-0.5,0.5v1c0,0.275,0.224,0.5,0.5,0.5h3c0.276,0,0.5-0.225,0.5-0.5v-1
			c0-0.275-0.224-0.5-0.5-0.5H30.5z"/>
	</g>
	<g>
		<polygon class="st3" points="32,13.5 24,25.5 28,25.5 28,30.5 36,30.5 36,25.5 40,25.5 		"/>
		<path class="st0" d="M36,31h-8c-0.276,0-0.5-0.224-0.5-0.5V26H24c-0.185,0-0.354-0.102-0.441-0.264
			c-0.087-0.163-0.077-0.36,0.025-0.514l8-12c0.186-0.277,0.646-0.277,0.832,0l8,12c0.102,0.153,0.112,0.351,0.025,0.514
			C40.354,25.898,40.185,26,40,26h-3.5v4.5C36.5,30.776,36.276,31,36,31z M28.5,30h7v-4.5c0-0.276,0.224-0.5,0.5-0.5h3.066
			L32,14.401L24.934,25H28c0.276,0,0.5,0.224,0.5,0.5V30z"/>
	</g>
	<g>
		<rect x="28.001" y="32.5" class="st3" width="8" height="3"/>
		<path class="st0" d="M36.001,36h-8c-0.276,0-0.5-0.224-0.5-0.5v-3c0-0.276,0.224-0.5,0.5-0.5h8c0.276,0,0.5,0.224,0.5,0.5v3
			C36.501,35.776,36.277,36,36.001,36z M28.501,35h7v-2h-7V35z"/>
	</g>
	<g>
		<path class="st0" d="M2.5,38h-2C0.224,38,0,37.776,0,37.5S0.224,37,0.5,37h2C2.776,37,3,37.224,3,37.5S2.776,38,2.5,38z"/>
	</g>
	<g>
		<path class="st0" d="M13.5,38h-9C4.224,38,4,37.776,4,37.5S4.224,37,4.5,37h9c0.276,0,0.5,0.224,0.5,0.5S13.776,38,13.5,38z"/>
	</g>
	<g>
		<path class="st0" d="M63.5,38h-2c-0.276,0-0.5-0.224-0.5-0.5s0.224-0.5,0.5-0.5h2c0.276,0,0.5,0.224,0.5,0.5S63.776,38,63.5,38z"
			/>
	</g>
	<g>
		<path class="st0" d="M59.5,38h-9c-0.276,0-0.5-0.224-0.5-0.5s0.224-0.5,0.5-0.5h9c0.276,0,0.5,0.224,0.5,0.5S59.776,38,59.5,38z"
			/>
	</g>
	<g>
		<path class="st0" d="M55,5.5h-4c-0.276,0-0.5-0.224-0.5-0.5s0.224-0.5,0.5-0.5h4c0.276,0,0.5,0.224,0.5,0.5S55.276,5.5,55,5.5z"/>
	</g>
	<g>
		<path class="st0" d="M53,7.5c-0.276,0-0.5-0.224-0.5-0.5V3c0-0.276,0.224-0.5,0.5-0.5s0.5,0.224,0.5,0.5v4
			C53.5,7.276,53.276,7.5,53,7.5z"/>
	</g>
	<g>
		<path class="st0" d="M59,11.5h-4c-0.276,0-0.5-0.224-0.5-0.5s0.224-0.5,0.5-0.5h4c0.276,0,0.5,0.224,0.5,0.5S59.276,11.5,59,11.5z
			"/>
	</g>
	<g>
		<path class="st0" d="M57,13.5c-0.276,0-0.5-0.224-0.5-0.5V9c0-0.276,0.224-0.5,0.5-0.5s0.5,0.224,0.5,0.5v4
			C57.5,13.276,57.276,13.5,57,13.5z"/>
	</g>
</g>
</svg>
