<?xml version="1.0" encoding="utf-8"?>
<!-- Generator: Adobe Illustrator 22.0.0, SVG Export Plug-In . SVG Version: 6.00 Build 0)  -->
<svg version="1.1" id="Icon_Set" xmlns="http://www.w3.org/2000/svg" xmlns:xlink="http://www.w3.org/1999/xlink" x="0px" y="0px"
	 viewBox="0 0 64 64" style="enable-background:new 0 0 64 64;" xml:space="preserve">
<style type="text/css">
	.st0{fill:#263238;}
	.st1{fill:#FFD740;}
	.st2{fill:#FF5252;}
	.st3{fill:#40C4FF;}
	.st4{fill:#FFFFFF;}
	.st5{fill:#4DB6AC;}
	.st6{fill:#4FC3F7;}
</style>
<g>
	<g>
		<rect x="9" y="20" class="st3" width="24" height="5"/>
	</g>
	<g>
		<path class="st0" d="M39,5.5h-4c-0.276,0-0.5-0.224-0.5-0.5s0.224-0.5,0.5-0.5h4c0.276,0,0.5,0.224,0.5,0.5S39.276,5.5,39,5.5z"/>
	</g>
	<g>
		<path class="st0" d="M37,7.5c-0.276,0-0.5-0.224-0.5-0.5V3c0-0.276,0.224-0.5,0.5-0.5s0.5,0.224,0.5,0.5v4
			C37.5,7.276,37.276,7.5,37,7.5z"/>
	</g>
	<g>
		<path class="st0" d="M44,10h-4c-0.276,0-0.5-0.224-0.5-0.5S39.724,9,40,9h4c0.276,0,0.5,0.224,0.5,0.5S44.276,10,44,10z"/>
	</g>
	<g>
		<path class="st0" d="M42,12c-0.276,0-0.5-0.224-0.5-0.5v-4C41.5,7.224,41.724,7,42,7s0.5,0.224,0.5,0.5v4
			C42.5,11.776,42.276,12,42,12z"/>
	</g>
	<g>
		<path class="st0" d="M39,16h-9.5c-0.276,0-0.5-0.224-0.5-0.5V6c0-0.202,0.122-0.385,0.309-0.462s0.401-0.035,0.545,0.108l9.5,9.5
			c0.143,0.143,0.186,0.358,0.108,0.545S39.202,16,39,16z M30,15h7.793L30,7.207V15z"/>
	</g>
	<g>
		<path class="st0" d="M33,30.5H9c-0.276,0-0.5-0.224-0.5-0.5s0.224-0.5,0.5-0.5h24c0.276,0,0.5,0.224,0.5,0.5S33.276,30.5,33,30.5z
			"/>
	</g>
	<g>
		<path class="st0" d="M24.5,35.5H9c-0.276,0-0.5-0.224-0.5-0.5s0.224-0.5,0.5-0.5h15.5c0.276,0,0.5,0.224,0.5,0.5
			S24.776,35.5,24.5,35.5z"/>
	</g>
	<g>
		<path class="st0" d="M20.5,40.5H9c-0.276,0-0.5-0.224-0.5-0.5s0.224-0.5,0.5-0.5h11.5c0.276,0,0.5,0.224,0.5,0.5
			S20.776,40.5,20.5,40.5z"/>
	</g>
	<g>
		<path class="st0" d="M33,20.5H9c-0.276,0-0.5-0.224-0.5-0.5s0.224-0.5,0.5-0.5h24c0.276,0,0.5,0.224,0.5,0.5S33.276,20.5,33,20.5z
			"/>
	</g>
	<g>
		<path class="st0" d="M33,25.5H9c-0.276,0-0.5-0.224-0.5-0.5s0.224-0.5,0.5-0.5h24c0.276,0,0.5,0.224,0.5,0.5S33.276,25.5,33,25.5z
			"/>
	</g>
	<g>
		<path class="st0" d="M5,54.5H3c-0.276,0-0.5-0.224-0.5-0.5s0.224-0.5,0.5-0.5h2c0.276,0,0.5,0.224,0.5,0.5S5.276,54.5,5,54.5z"/>
	</g>
	<g>
		<path class="st0" d="M16,54.5H7c-0.276,0-0.5-0.224-0.5-0.5s0.224-0.5,0.5-0.5h9c0.276,0,0.5,0.224,0.5,0.5S16.276,54.5,16,54.5z"
			/>
	</g>
	<g>
		<path class="st0" d="M57,31.5h-2c-0.276,0-0.5-0.224-0.5-0.5s0.224-0.5,0.5-0.5h2c0.276,0,0.5,0.224,0.5,0.5S57.276,31.5,57,31.5z
			"/>
	</g>
	<g>
		<path class="st0" d="M53,31.5h-9c-0.276,0-0.5-0.224-0.5-0.5s0.224-0.5,0.5-0.5h9c0.276,0,0.5,0.224,0.5,0.5S53.276,31.5,53,31.5z
			"/>
	</g>
	<g>
		<path class="st0" d="M55.998,61.5h-0.856c-2.097,0-3.981-1.165-4.919-3.041L47.743,53.5H32.36l-2.479,4.959
			c-0.938,1.875-2.822,3.041-4.92,3.041h-0.856c-1.646,0-3.191-0.728-4.24-1.998c-1.049-1.269-1.472-2.924-1.161-4.541L21,43.017
			c0,0,0,0,0,0c0.95-4.935,5.287-8.517,10.312-8.517h17.479c5.025,0,9.362,3.582,10.312,8.517l2.297,11.944
			c0.311,1.617-0.112,3.272-1.161,4.542C59.189,60.772,57.645,61.5,55.998,61.5z M32.052,52.5h16c0.189,0,0.362,0.107,0.447,0.276
			l2.618,5.236c0.767,1.535,2.309,2.488,4.024,2.488h0.856c1.347,0,2.611-0.596,3.47-1.634c0.857-1.039,1.204-2.393,0.949-3.716
			L58.12,43.206c-0.858-4.465-4.782-7.706-9.329-7.706H31.312c-4.546,0-8.47,3.241-9.329,7.706L19.686,55.15
			c-0.255,1.323,0.092,2.677,0.95,3.716c0.857,1.039,2.122,1.634,3.469,1.634h0.856c1.716,0,3.259-0.953,4.025-2.488l2.618-5.236
			C31.689,52.607,31.862,52.5,32.052,52.5z"/>
	</g>
	<g>
		<path class="st0" d="M18.13,50.5H5.5c-1.654,0-3-1.346-3-3v-39c0-1.654,1.346-3,3-3h24c0.133,0,0.26,0.053,0.354,0.146l9.5,9.5
			C39.447,15.24,39.5,15.367,39.5,15.5V33c0,0.276-0.224,0.5-0.5,0.5s-0.5-0.224-0.5-0.5V15.707L29.293,6.5H5.5
			c-1.103,0-2,0.897-2,2v39c0,1.103,0.897,2,2,2h12.63c0.276,0,0.5,0.224,0.5,0.5S18.406,50.5,18.13,50.5z"/>
	</g>
	<g>
		<circle class="st1" cx="50.052" cy="44" r="4.5"/>
		<path class="st0" d="M50.052,49c-2.757,0-5-2.243-5-5s2.243-5,5-5s5,2.243,5,5S52.809,49,50.052,49z M50.052,40
			c-2.206,0-4,1.794-4,4s1.794,4,4,4s4-1.794,4-4S52.258,40,50.052,40z"/>
	</g>
	<g>
		<path class="st1" d="M33.552,42.458h-2v-2c0-0.552-0.448-1-1-1h-1c-0.552,0-1,0.448-1,1v2h-2c-0.552,0-1,0.448-1,1v1
			c0,0.552,0.448,1,1,1h2v2c0,0.552,0.448,1,1,1h1c0.552,0,1-0.448,1-1v-2h2c0.552,0,1-0.448,1-1v-1
			C34.552,42.906,34.104,42.458,33.552,42.458z"/>
		<path class="st0" d="M30.552,48.958h-1c-0.827,0-1.5-0.673-1.5-1.5v-1.5h-1.5c-0.827,0-1.5-0.673-1.5-1.5v-1
			c0-0.827,0.673-1.5,1.5-1.5h1.5v-1.5c0-0.827,0.673-1.5,1.5-1.5h1c0.827,0,1.5,0.673,1.5,1.5v1.5h1.5c0.827,0,1.5,0.673,1.5,1.5v1
			c0,0.827-0.673,1.5-1.5,1.5h-1.5v1.5C32.052,48.285,31.379,48.958,30.552,48.958z M26.552,42.958c-0.275,0-0.5,0.224-0.5,0.5v1
			c0,0.276,0.225,0.5,0.5,0.5h2c0.276,0,0.5,0.224,0.5,0.5v2c0,0.276,0.225,0.5,0.5,0.5h1c0.275,0,0.5-0.224,0.5-0.5v-2
			c0-0.276,0.224-0.5,0.5-0.5h2c0.275,0,0.5-0.224,0.5-0.5v-1c0-0.276-0.225-0.5-0.5-0.5h-2c-0.276,0-0.5-0.224-0.5-0.5v-2
			c0-0.276-0.225-0.5-0.5-0.5h-1c-0.275,0-0.5,0.224-0.5,0.5v2c0,0.276-0.224,0.5-0.5,0.5H26.552z"/>
	</g>
	<g>
		<path class="st0" d="M50.052,42.5c-0.276,0-0.5-0.224-0.5-0.5v-2.5c0-0.276,0.224-0.5,0.5-0.5s0.5,0.224,0.5,0.5V42
			C50.552,42.276,50.328,42.5,50.052,42.5z"/>
	</g>
	<g>
		<path class="st0" d="M50.052,49c-0.276,0-0.5-0.224-0.5-0.5V46c0-0.276,0.224-0.5,0.5-0.5s0.5,0.224,0.5,0.5v2.5
			C50.552,48.776,50.328,49,50.052,49z"/>
	</g>
	<g>
		<path class="st0" d="M54.552,44.5h-2.5c-0.276,0-0.5-0.224-0.5-0.5s0.224-0.5,0.5-0.5h2.5c0.276,0,0.5,0.224,0.5,0.5
			S54.828,44.5,54.552,44.5z"/>
	</g>
	<g>
		<path class="st0" d="M48.052,44.5h-2.5c-0.276,0-0.5-0.224-0.5-0.5s0.224-0.5,0.5-0.5h2.5c0.276,0,0.5,0.224,0.5,0.5
			S48.328,44.5,48.052,44.5z"/>
	</g>
	<g>
		<path class="st0" d="M41.552,50.5h-3c-0.827,0-1.5-0.673-1.5-1.5v-1c0-0.827,0.673-1.5,1.5-1.5h3c0.827,0,1.5,0.673,1.5,1.5v1
			C43.052,49.827,42.379,50.5,41.552,50.5z M38.552,47.5c-0.275,0-0.5,0.224-0.5,0.5v1c0,0.276,0.225,0.5,0.5,0.5h3
			c0.275,0,0.5-0.224,0.5-0.5v-1c0-0.276-0.225-0.5-0.5-0.5H38.552z"/>
	</g>
</g>
</svg>
