<?xml version="1.0" encoding="utf-8"?>
<!-- Generator: Adobe Illustrator 22.0.0, SVG Export Plug-In . SVG Version: 6.00 Build 0)  -->
<svg version="1.1" id="Icon_Set" xmlns="http://www.w3.org/2000/svg" xmlns:xlink="http://www.w3.org/1999/xlink" x="0px" y="0px"
	 viewBox="0 0 64 64" style="enable-background:new 0 0 64 64;" xml:space="preserve">
<style type="text/css">
	.st0{fill:#263238;}
	.st1{fill:#FFD740;}
	.st2{fill:#FF5252;}
	.st3{fill:#40C4FF;}
	.st4{fill:#FFFFFF;}
	.st5{fill:#4DB6AC;}
	.st6{fill:#4FC3F7;}
</style>
<g>
	<g>
		<path class="st0" d="M52,53.5H12c-5.79,0-10.5-4.71-10.5-10.5V25c0-5.79,4.71-10.5,10.5-10.5h40c5.79,0,10.5,4.71,10.5,10.5v18
			C62.5,48.79,57.79,53.5,52,53.5z M12,15.5c-5.238,0-9.5,4.262-9.5,9.5v18c0,5.238,4.262,9.5,9.5,9.5h40c5.238,0,9.5-4.262,9.5-9.5
			V25c0-5.238-4.262-9.5-9.5-9.5H12z"/>
	</g>
	<g>
		<circle class="st1" cx="54.501" cy="34" r="4.5"/>
		<path class="st0" d="M54.501,39c-2.757,0-5-2.243-5-5s2.243-5,5-5s5,2.243,5,5S57.258,39,54.501,39z M54.501,30
			c-2.206,0-4,1.794-4,4s1.794,4,4,4s4-1.794,4-4S56.707,30,54.501,30z"/>
	</g>
	<g>
		<path class="st1" d="M13,32.5h-2v-2c0-0.552-0.448-1-1-1H9c-0.552,0-1,0.448-1,1v2H6c-0.552,0-1,0.448-1,1v1c0,0.552,0.448,1,1,1
			h2v2c0,0.552,0.448,1,1,1h1c0.552,0,1-0.448,1-1v-2h2c0.552,0,1-0.448,1-1v-1C14,32.948,13.553,32.5,13,32.5z"/>
		<path class="st0" d="M10,39H9c-0.827,0-1.5-0.673-1.5-1.5V36H6c-0.827,0-1.5-0.673-1.5-1.5v-1C4.5,32.673,5.173,32,6,32h1.5v-1.5
			C7.5,29.673,8.173,29,9,29h1c0.827,0,1.5,0.673,1.5,1.5V32H13c0.827,0,1.5,0.673,1.5,1.5v1c0,0.827-0.673,1.5-1.5,1.5h-1.5v1.5
			C11.5,38.327,10.828,39,10,39z M6,33c-0.276,0-0.5,0.224-0.5,0.5v1C5.5,34.776,5.725,35,6,35h2.5v2.5C8.5,37.776,8.725,38,9,38h1
			c0.276,0,0.5-0.224,0.5-0.5V35H13c0.276,0,0.5-0.224,0.5-0.5v-1c0-0.276-0.224-0.5-0.5-0.5h-2.5v-2.5c0-0.276-0.224-0.5-0.5-0.5H9
			c-0.276,0-0.5,0.224-0.5,0.5V33H6z"/>
	</g>
	<g>
		<path class="st0" d="M54.501,32.5c-0.276,0-0.5-0.224-0.5-0.5v-2.5c0-0.276,0.224-0.5,0.5-0.5s0.5,0.224,0.5,0.5V32
			C55.001,32.276,54.777,32.5,54.501,32.5z"/>
	</g>
	<g>
		<path class="st0" d="M54.501,39c-0.276,0-0.5-0.224-0.5-0.5V36c0-0.276,0.224-0.5,0.5-0.5s0.5,0.224,0.5,0.5v2.5
			C55.001,38.776,54.777,39,54.501,39z"/>
	</g>
	<g>
		<path class="st0" d="M59.001,34.5h-2.5c-0.276,0-0.5-0.224-0.5-0.5s0.224-0.5,0.5-0.5h2.5c0.276,0,0.5,0.224,0.5,0.5
			S59.277,34.5,59.001,34.5z"/>
	</g>
	<g>
		<path class="st0" d="M52.501,34.5h-2.5c-0.276,0-0.5-0.224-0.5-0.5s0.224-0.5,0.5-0.5h2.5c0.276,0,0.5,0.224,0.5,0.5
			S52.777,34.5,52.501,34.5z"/>
	</g>
	<g>
		<path class="st3" d="M46,48H18c-0.552,0-1-0.448-1-1V21c0-0.552,0.448-1,1-1h28c0.552,0,1,0.448,1,1v26C47,47.552,46.553,48,46,48
			z"/>
		<path class="st0" d="M46,48.5H18c-0.827,0-1.5-0.673-1.5-1.5V21c0-0.827,0.673-1.5,1.5-1.5h28c0.827,0,1.5,0.673,1.5,1.5v26
			C47.5,47.827,46.827,48.5,46,48.5z M18,20.5c-0.276,0-0.5,0.224-0.5,0.5v26c0,0.276,0.224,0.5,0.5,0.5h28
			c0.275,0,0.5-0.224,0.5-0.5V21c0-0.276-0.225-0.5-0.5-0.5H18z"/>
	</g>
	<g>
		<path class="st0" d="M12,45H7c-0.276,0-0.5-0.224-0.5-0.5S6.724,44,7,44h5c0.276,0,0.5,0.224,0.5,0.5S12.277,45,12,45z"/>
	</g>
	<g>
		<path class="st0" d="M57,45h-5c-0.276,0-0.5-0.224-0.5-0.5S51.724,44,52,44h5c0.276,0,0.5,0.224,0.5,0.5S57.276,45,57,45z"/>
	</g>
	<g>
		<path class="st0" d="M44,28.5c-0.276,0-0.5-0.224-0.5-0.5v-4.5H39c-0.276,0-0.5-0.224-0.5-0.5s0.224-0.5,0.5-0.5h5
			c0.276,0,0.5,0.224,0.5,0.5v5C44.5,28.276,44.276,28.5,44,28.5z"/>
	</g>
	<g>
		<path class="st0" d="M7,58.5H5c-0.276,0-0.5-0.224-0.5-0.5s0.224-0.5,0.5-0.5h2c0.276,0,0.5,0.224,0.5,0.5S7.277,58.5,7,58.5z"/>
	</g>
	<g>
		<path class="st0" d="M25,58.5H9c-0.276,0-0.5-0.224-0.5-0.5s0.224-0.5,0.5-0.5h16c0.276,0,0.5,0.224,0.5,0.5S25.277,58.5,25,58.5z
			"/>
	</g>
	<g>
		<path class="st0" d="M59,10.5h-2c-0.276,0-0.5-0.224-0.5-0.5s0.224-0.5,0.5-0.5h2c0.276,0,0.5,0.224,0.5,0.5S59.276,10.5,59,10.5z
			"/>
	</g>
	<g>
		<path class="st0" d="M55,10.5H39c-0.276,0-0.5-0.224-0.5-0.5s0.224-0.5,0.5-0.5h16c0.276,0,0.5,0.224,0.5,0.5S55.276,10.5,55,10.5
			z"/>
	</g>
	<g>
		<path class="st0" d="M11,8.5H7C6.724,8.5,6.5,8.276,6.5,8S6.724,7.5,7,7.5h4c0.276,0,0.5,0.224,0.5,0.5S11.277,8.5,11,8.5z"/>
	</g>
	<g>
		<path class="st0" d="M9,10.5c-0.276,0-0.5-0.224-0.5-0.5V6c0-0.276,0.224-0.5,0.5-0.5S9.5,5.724,9.5,6v4
			C9.5,10.276,9.277,10.5,9,10.5z"/>
	</g>
	<g>
		<path class="st0" d="M6,12.5H2c-0.276,0-0.5-0.224-0.5-0.5s0.224-0.5,0.5-0.5h4c0.276,0,0.5,0.224,0.5,0.5S6.277,12.5,6,12.5z"/>
	</g>
	<g>
		<path class="st0" d="M4,14.5c-0.276,0-0.5-0.224-0.5-0.5v-4c0-0.276,0.224-0.5,0.5-0.5S4.5,9.724,4.5,10v4
			C4.5,14.276,4.277,14.5,4,14.5z"/>
	</g>
</g>
</svg>
