<?xml version="1.0" encoding="utf-8"?>
<!-- Generator: Adobe Illustrator 22.0.0, SVG Export Plug-In . SVG Version: 6.00 Build 0)  -->
<svg version="1.1" id="Icon_Set" xmlns="http://www.w3.org/2000/svg" xmlns:xlink="http://www.w3.org/1999/xlink" x="0px" y="0px"
	 viewBox="0 0 64 64" style="enable-background:new 0 0 64 64;" xml:space="preserve">
<style type="text/css">
	.st0{fill:#263238;}
	.st1{fill:#FFD740;}
	.st2{fill:#FF5252;}
	.st3{fill:#40C4FF;}
	.st4{fill:#FFFFFF;}
	.st5{fill:#4DB6AC;}
	.st6{fill:#4FC3F7;}
</style>
<g>
	<g>
		<rect x="6" y="26.25" class="st1" width="52" height="18"/>
	</g>
	<g>
		<path class="st0" d="M37,49c-0.02,0-0.04-0.001-0.06-0.003c-0.184-0.022-0.341-0.144-0.407-0.317l-9.66-25.118l-8.462,12.223
			C18.318,35.919,18.164,36,18,36H8c-0.276,0-0.5-0.224-0.5-0.5S7.724,35,8,35h9.738l8.851-12.785
			c0.105-0.152,0.283-0.232,0.471-0.212c0.184,0.022,0.341,0.144,0.407,0.317l9.66,25.118l8.462-12.223
			C45.682,35.081,45.836,35,46,35h10c0.276,0,0.5,0.224,0.5,0.5S56.276,36,56,36h-9.738l-8.851,12.785C37.317,48.92,37.163,49,37,49
			z"/>
	</g>
	<g>
		<path class="st2" d="M43.94,8.055L43.414,8.58l-0.525-0.525c-2.073-2.073-5.433-2.073-7.506,0l0,0
			c-2.073,2.073-2.073,5.433,0,7.506l8.031,8.031l8.031-8.031c2.073-2.073,2.073-5.433,0-7.506l0,0
			C49.373,5.982,46.012,5.982,43.94,8.055z"/>
		<path class="st0" d="M43.414,24.092c-0.128,0-0.256-0.049-0.354-0.146l-8.031-8.031c-2.264-2.264-2.264-5.949,0-8.213
			c2.265-2.265,5.948-2.265,8.213,0l0.172,0.172l0.172-0.172c2.265-2.265,5.948-2.265,8.213,0c2.264,2.264,2.264,5.949,0,8.213
			l-8.031,8.031C43.67,24.043,43.542,24.092,43.414,24.092z M39.136,7.002c-1.231,0-2.462,0.469-3.399,1.406
			c-1.875,1.875-1.875,4.924,0,6.799l7.678,7.678l7.678-7.678c1.875-1.875,1.875-4.924,0-6.799c-1.874-1.874-4.925-1.874-6.799,0
			l-0.525,0.525c-0.195,0.195-0.512,0.195-0.707,0l-0.525-0.525C41.598,7.471,40.367,7.002,39.136,7.002z"/>
	</g>
	<g>
		<path class="st0" d="M55.5,56h-47c-1.654,0-3-1.346-3-3V18c0-1.654,1.346-3,3-3h24.339c0.276,0,0.5,0.224,0.5,0.5
			s-0.224,0.5-0.5,0.5H8.5c-1.103,0-2,0.897-2,2v35c0,1.103,0.897,2,2,2h47c1.103,0,2-0.897,2-2V18c0-1.103-0.897-2-2-2h-1.511
			c-0.276,0-0.5-0.224-0.5-0.5s0.224-0.5,0.5-0.5H55.5c1.654,0,3,1.346,3,3v35C58.5,54.654,57.154,56,55.5,56z"/>
	</g>
	<g>
		<path class="st0" d="M63,63.5h-2c-0.276,0-0.5-0.224-0.5-0.5s0.224-0.5,0.5-0.5h2c0.276,0,0.5,0.224,0.5,0.5S63.276,63.5,63,63.5z
			"/>
	</g>
	<g>
		<path class="st0" d="M59,63.5H43c-0.276,0-0.5-0.224-0.5-0.5s0.224-0.5,0.5-0.5h16c0.276,0,0.5,0.224,0.5,0.5S59.276,63.5,59,63.5
			z"/>
	</g>
	<g>
		<path class="st0" d="M2.5,8.5h-2C0.224,8.5,0,8.276,0,8s0.224-0.5,0.5-0.5h2C2.776,7.5,3,7.724,3,8S2.776,8.5,2.5,8.5z"/>
	</g>
	<g>
		<path class="st0" d="M20.5,8.5h-16C4.224,8.5,4,8.276,4,8s0.224-0.5,0.5-0.5h16C20.776,7.5,21,7.724,21,8S20.776,8.5,20.5,8.5z"/>
	</g>
	<g>
		<path class="st0" d="M58.5,3.5h-4C54.224,3.5,54,3.276,54,3s0.224-0.5,0.5-0.5h4C58.776,2.5,59,2.724,59,3S58.776,3.5,58.5,3.5z"
			/>
	</g>
	<g>
		<path class="st0" d="M56.5,5.5C56.224,5.5,56,5.276,56,5V1c0-0.276,0.224-0.5,0.5-0.5S57,0.724,57,1v4
			C57,5.276,56.776,5.5,56.5,5.5z"/>
	</g>
	<g>
		<path class="st0" d="M63.5,8.5h-4C59.224,8.5,59,8.276,59,8s0.224-0.5,0.5-0.5h4C63.776,7.5,64,7.724,64,8S63.776,8.5,63.5,8.5z"
			/>
	</g>
	<g>
		<path class="st0" d="M61.5,10.5c-0.276,0-0.5-0.224-0.5-0.5V6c0-0.276,0.224-0.5,0.5-0.5S62,5.724,62,6v4
			C62,10.276,61.776,10.5,61.5,10.5z"/>
	</g>
</g>
</svg>
