<?xml version="1.0" encoding="utf-8"?>
<!-- Generator: Adobe Illustrator 22.0.0, SVG Export Plug-In . SVG Version: 6.00 Build 0)  -->
<svg version="1.1" id="Icon_Set" xmlns="http://www.w3.org/2000/svg" xmlns:xlink="http://www.w3.org/1999/xlink" x="0px" y="0px"
	 viewBox="0 0 64 64" style="enable-background:new 0 0 64 64;" xml:space="preserve">
<style type="text/css">
	.st0{fill:#263238;}
	.st1{fill:#FFD740;}
	.st2{fill:#FF5252;}
	.st3{fill:#40C4FF;}
	.st4{fill:#FFFFFF;}
	.st5{fill:#4DB6AC;}
	.st6{fill:#4FC3F7;}
</style>
<g>
	<g>
		<path class="st2" d="M25,51H9c-0.552,0-1-0.448-1-1v-4c0-0.552,0.448-1,1-1h16c0.552,0,1,0.448,1,1v4C26,50.552,25.552,51,25,51z"
			/>
	</g>
	<g>
		<path class="st0" d="M55,51.5H9c-0.827,0-1.5-0.673-1.5-1.5v-4c0-0.827,0.673-1.5,1.5-1.5h46c0.827,0,1.5,0.673,1.5,1.5v4
			C56.5,50.827,55.827,51.5,55,51.5z M9,45.5c-0.276,0-0.5,0.224-0.5,0.5v4c0,0.276,0.224,0.5,0.5,0.5h46c0.276,0,0.5-0.224,0.5-0.5
			v-4c0-0.276-0.224-0.5-0.5-0.5H9z"/>
	</g>
	<g>
		<path class="st2" d="M17.525,18.509L17,19.034l-0.525-0.525c-2.073-2.073-5.433-2.073-7.506,0l0,0
			c-2.073,2.073-2.073,5.433,0,7.506L17,34.046l8.031-8.031c2.073-2.073,2.073-5.433,0-7.506l0,0
			C22.959,16.436,19.598,16.436,17.525,18.509z"/>
		<path class="st0" d="M17,34.546c-0.128,0-0.256-0.049-0.354-0.146l-8.031-8.031c-2.264-2.264-2.264-5.949,0-8.213
			c2.265-2.265,5.948-2.265,8.213,0L17,18.327l0.172-0.172c2.265-2.265,5.948-2.265,8.213,0c2.264,2.264,2.264,5.949,0,8.213
			l-8.031,8.031C17.256,34.497,17.128,34.546,17,34.546z M12.722,17.457c-1.231,0-2.462,0.469-3.399,1.406
			c-1.875,1.875-1.875,4.924,0,6.799L17,33.339l7.678-7.678c1.875-1.875,1.875-4.924,0-6.799c-1.874-1.874-4.925-1.874-6.799,0
			l-0.525,0.525c-0.195,0.195-0.512,0.195-0.707,0l-0.525-0.525C15.184,17.925,13.953,17.457,12.722,17.457z"/>
	</g>
	<g>
		<path class="st0" d="M47,34.546c-0.128,0-0.256-0.049-0.354-0.146l-6.086-6.086c-0.195-0.195-0.195-0.512,0-0.707
			s0.512-0.195,0.707,0L47,33.339l7.678-7.678c1.875-1.875,1.875-4.924,0-6.799c-1.874-1.874-4.925-1.874-6.799,0l-0.525,0.525
			c-0.195,0.195-0.512,0.195-0.707,0l-0.525-0.525c-1.186-1.186-2.878-1.654-4.534-1.254c-0.268,0.065-0.538-0.1-0.604-0.368
			c-0.065-0.268,0.1-0.539,0.368-0.604c1.994-0.486,4.041,0.084,5.476,1.519L47,18.327l0.172-0.172c2.265-2.265,5.948-2.265,8.213,0
			c2.264,2.264,2.264,5.949,0,8.213l-8.031,8.031C47.256,34.497,47.128,34.546,47,34.546z"/>
	</g>
	<g>
		<path class="st0" d="M32,34.546c-0.128,0-0.256-0.049-0.354-0.146l-6.086-6.086c-0.195-0.195-0.195-0.512,0-0.707
			s0.512-0.195,0.707,0L32,33.339l7.678-7.678c1.875-1.875,1.875-4.924,0-6.799c-1.874-1.874-4.925-1.874-6.799,0l-0.525,0.525
			c-0.195,0.195-0.512,0.195-0.707,0l-0.525-0.525c-1.186-1.186-2.879-1.654-4.534-1.254c-0.269,0.065-0.539-0.1-0.604-0.368
			c-0.065-0.268,0.1-0.539,0.368-0.604c1.994-0.486,4.041,0.084,5.476,1.519L32,18.327l0.172-0.172c2.265-2.265,5.948-2.265,8.213,0
			c2.264,2.264,2.264,5.949,0,8.213l-8.031,8.031C32.256,34.497,32.128,34.546,32,34.546z"/>
	</g>
	<g>
		<path class="st0" d="M12,10.5H8c-0.276,0-0.5-0.224-0.5-0.5S7.724,9.5,8,9.5h4c0.276,0,0.5,0.224,0.5,0.5S12.276,10.5,12,10.5z"/>
	</g>
	<g>
		<path class="st0" d="M10,12.5c-0.276,0-0.5-0.224-0.5-0.5V8c0-0.276,0.224-0.5,0.5-0.5s0.5,0.224,0.5,0.5v4
			C10.5,12.276,10.276,12.5,10,12.5z"/>
	</g>
	<g>
		<path class="st0" d="M7,15.5H3c-0.276,0-0.5-0.224-0.5-0.5s0.224-0.5,0.5-0.5h4c0.276,0,0.5,0.224,0.5,0.5S7.276,15.5,7,15.5z"/>
	</g>
	<g>
		<path class="st0" d="M5,17.5c-0.276,0-0.5-0.224-0.5-0.5v-4c0-0.276,0.224-0.5,0.5-0.5s0.5,0.224,0.5,0.5v4
			C5.5,17.276,5.276,17.5,5,17.5z"/>
	</g>
	<g>
		<path class="st0" d="M57,56.5H35.5c-0.276,0-0.5-0.224-0.5-0.5s0.224-0.5,0.5-0.5H57c0.276,0,0.5,0.224,0.5,0.5
			S57.276,56.5,57,56.5z"/>
	</g>
	<g>
		<path class="st0" d="M61,56.5h-2c-0.276,0-0.5-0.224-0.5-0.5s0.224-0.5,0.5-0.5h2c0.276,0,0.5,0.224,0.5,0.5S61.276,56.5,61,56.5z
			"/>
	</g>
</g>
</svg>
