<?xml version="1.0" encoding="utf-8"?>
<!-- Generator: Adobe Illustrator 22.0.0, SVG Export Plug-In . SVG Version: 6.00 Build 0)  -->
<svg version="1.1" id="Icon_Set" xmlns="http://www.w3.org/2000/svg" xmlns:xlink="http://www.w3.org/1999/xlink" x="0px" y="0px"
	 viewBox="0 0 64 64" style="enable-background:new 0 0 64 64;" xml:space="preserve">
<style type="text/css">
	.st0{fill:#263238;}
	.st1{fill:#FFD740;}
	.st2{fill:#FF5252;}
	.st3{fill:#40C4FF;}
	.st4{fill:#FFFFFF;}
	.st5{fill:#4DB6AC;}
	.st6{fill:#4FC3F7;}
</style>
<g>
	<g>
		<path class="st0" d="M27.501,56.5h-2c-0.276,0-0.5-0.224-0.5-0.5s0.224-0.5,0.5-0.5h2c0.276,0,0.5,0.224,0.5,0.5
			S27.777,56.5,27.501,56.5z"/>
	</g>
	<g>
		<path class="st0" d="M38.501,56.5h-9c-0.276,0-0.5-0.224-0.5-0.5s0.224-0.5,0.5-0.5h9c0.276,0,0.5,0.224,0.5,0.5
			S38.777,56.5,38.501,56.5z"/>
	</g>
	<g>
		<path class="st2" d="M23.001,27c0,1.851,0.56,3.57,1.518,5h14.965c0.958-1.43,1.518-3.149,1.518-5c0-4.971-4.029-9-9-9
			S23.001,22.029,23.001,27z"/>
	</g>
	<g>
		<path class="st0" d="M8.501,10c-1.103,0-2-0.897-2-2s0.897-2,2-2s2,0.897,2,2S9.604,10,8.501,10z M8.501,7c-0.552,0-1,0.449-1,1
			s0.448,1,1,1s1-0.449,1-1S9.053,7,8.501,7z"/>
	</g>
	<g>
		<path class="st0" d="M13.501,10c-1.103,0-2-0.897-2-2s0.897-2,2-2s2,0.897,2,2S14.604,10,13.501,10z M13.501,7
			c-0.552,0-1,0.449-1,1s0.448,1,1,1s1-0.449,1-1S14.053,7,13.501,7z"/>
	</g>
	<g>
		<path class="st4" d="M35.771,26.138l-5.528-3.252c-0.667-0.392-1.507,0.089-1.507,0.862v6.503c0,0.773,0.84,1.254,1.507,0.862
			l5.528-3.252C36.429,27.475,36.429,26.525,35.771,26.138z"/>
		<path class="st0" d="M29.737,31.754c-0.256,0-0.512-0.066-0.745-0.2c-0.474-0.271-0.756-0.757-0.756-1.302v-6.503
			c0-0.545,0.282-1.032,0.756-1.302c0.473-0.27,1.035-0.267,1.506,0.01l5.527,3.251l0,0c0.463,0.272,0.739,0.756,0.739,1.293
			s-0.276,1.021-0.739,1.293l-5.527,3.251C30.26,31.684,29.999,31.754,29.737,31.754z M29.739,23.247
			c-0.114,0-0.205,0.042-0.251,0.068c-0.076,0.043-0.252,0.172-0.252,0.434v6.503c0,0.262,0.176,0.391,0.252,0.434
			c0.076,0.043,0.277,0.129,0.502-0.003l5.527-3.252C35.74,27.3,35.765,27.086,35.765,27s-0.024-0.3-0.247-0.431l-5.527-3.251
			C29.9,23.265,29.814,23.247,29.739,23.247z"/>
	</g>
	<g>
		<path class="st0" d="M56.001,20.5c-0.276,0-0.5-0.224-0.5-0.5v-4.5h-4.5c-0.276,0-0.5-0.224-0.5-0.5s0.224-0.5,0.5-0.5h5
			c0.276,0,0.5,0.224,0.5,0.5v5C56.501,20.276,56.277,20.5,56.001,20.5z"/>
	</g>
	<g>
		<path class="st0" d="M47.947,60.5h-0.856c-2.097,0-3.981-1.165-4.92-3.041L39.692,52.5H24.31l-2.479,4.959
			c-0.938,1.875-2.823,3.041-4.92,3.041h-0.856c-1.646,0-3.191-0.728-4.24-1.998c-1.049-1.269-1.472-2.924-1.161-4.541l2.297-11.944
			c0.949-4.935,5.286-8.517,10.312-8.517H40.74c5.025,0,9.362,3.582,10.312,8.517l2.297,11.944c0.311,1.617-0.112,3.272-1.161,4.542
			C51.139,59.772,49.594,60.5,47.947,60.5z M24.001,51.5h16c0.189,0,0.362,0.107,0.447,0.276l2.617,5.236
			c0.768,1.535,2.311,2.488,4.025,2.488h0.856c1.347,0,2.611-0.596,3.47-1.634c0.857-1.039,1.204-2.393,0.949-3.716l-2.297-11.944
			c-0.858-4.465-4.782-7.706-9.329-7.706H23.261c-4.547,0-8.471,3.241-9.329,7.706l0,0L11.635,54.15
			c-0.255,1.323,0.092,2.677,0.95,3.716c0.857,1.039,2.122,1.634,3.469,1.634h0.856c1.715,0,3.258-0.953,4.025-2.488l2.618-5.236
			C23.639,51.607,23.812,51.5,24.001,51.5z M13.44,42.111h0.01H13.44z"/>
	</g>
	<g>
		<path class="st0" d="M56.501,48.5h-2.772c-0.276,0-0.5-0.224-0.5-0.5s0.224-0.5,0.5-0.5h2.772c1.103,0,2-0.897,2-2v-39
			c0-1.103-0.897-2-2-2h-49c-1.103,0-2,0.897-2,2v39c0,1.103,0.897,2,2,2h2.771c0.276,0,0.5,0.224,0.5,0.5s-0.224,0.5-0.5,0.5H7.501
			c-1.654,0-3-1.346-3-3v-39c0-1.654,1.346-3,3-3h49c1.654,0,3,1.346,3,3v39C59.501,47.154,58.155,48.5,56.501,48.5z"/>
	</g>
	<g>
		<path class="st0" d="M24.519,32.5c-0.161,0-0.319-0.078-0.415-0.222c-1.049-1.565-1.603-3.39-1.603-5.278
			c0-5.238,4.262-9.5,9.5-9.5s9.5,4.262,9.5,9.5c0,1.887-0.554,3.712-1.602,5.278c-0.154,0.23-0.463,0.291-0.694,0.138
			c-0.229-0.153-0.291-0.464-0.138-0.693c0.938-1.401,1.434-3.034,1.434-4.722c0-4.687-3.813-8.5-8.5-8.5
			c-4.687,0-8.5,3.813-8.5,8.5c0,1.689,0.495,3.322,1.433,4.722c0.154,0.229,0.093,0.54-0.137,0.694
			C24.711,32.473,24.614,32.5,24.519,32.5z"/>
	</g>
	<g>
		<circle class="st1" cx="42.001" cy="43" r="4.5"/>
		<path class="st0" d="M42.001,48c-2.757,0-5-2.243-5-5s2.243-5,5-5s5,2.243,5,5S44.758,48,42.001,48z M42.001,39
			c-2.206,0-4,1.794-4,4s1.794,4,4,4s4-1.794,4-4S44.207,39,42.001,39z"/>
	</g>
	<g>
		<path class="st1" d="M25.501,41.458h-2v-2c0-0.552-0.448-1-1-1h-1c-0.552,0-1,0.448-1,1v2h-2c-0.552,0-1,0.448-1,1v1
			c0,0.552,0.448,1,1,1h2v2c0,0.552,0.448,1,1,1h1c0.552,0,1-0.448,1-1v-2h2c0.552,0,1-0.448,1-1v-1
			C26.501,41.906,26.053,41.458,25.501,41.458z"/>
		<path class="st0" d="M22.501,47.958h-1c-0.827,0-1.5-0.673-1.5-1.5v-1.5h-1.5c-0.827,0-1.5-0.673-1.5-1.5v-1
			c0-0.827,0.673-1.5,1.5-1.5h1.5v-1.5c0-0.827,0.673-1.5,1.5-1.5h1c0.827,0,1.5,0.673,1.5,1.5v1.5h1.5c0.827,0,1.5,0.673,1.5,1.5v1
			c0,0.827-0.673,1.5-1.5,1.5h-1.5v1.5C24.001,47.285,23.328,47.958,22.501,47.958z M18.501,41.958c-0.275,0-0.5,0.224-0.5,0.5v1
			c0,0.276,0.225,0.5,0.5,0.5h2.5v2.5c0,0.276,0.225,0.5,0.5,0.5h1c0.275,0,0.5-0.224,0.5-0.5v-2.5h2.5c0.275,0,0.5-0.224,0.5-0.5
			v-1c0-0.276-0.225-0.5-0.5-0.5h-2.5v-2.5c0-0.276-0.225-0.5-0.5-0.5h-1c-0.275,0-0.5,0.224-0.5,0.5v2.5H18.501z"/>
	</g>
	<g>
		<path class="st0" d="M42.001,41.5c-0.276,0-0.5-0.224-0.5-0.5v-2.5c0-0.276,0.224-0.5,0.5-0.5s0.5,0.224,0.5,0.5V41
			C42.501,41.276,42.277,41.5,42.001,41.5z"/>
	</g>
	<g>
		<path class="st0" d="M42.001,48c-0.276,0-0.5-0.224-0.5-0.5V45c0-0.276,0.224-0.5,0.5-0.5s0.5,0.224,0.5,0.5v2.5
			C42.501,47.776,42.277,48,42.001,48z"/>
	</g>
	<g>
		<path class="st0" d="M46.501,43.5h-2.5c-0.276,0-0.5-0.224-0.5-0.5s0.224-0.5,0.5-0.5h2.5c0.276,0,0.5,0.224,0.5,0.5
			S46.777,43.5,46.501,43.5z"/>
	</g>
	<g>
		<path class="st0" d="M40.001,43.5h-2.5c-0.276,0-0.5-0.224-0.5-0.5s0.224-0.5,0.5-0.5h2.5c0.276,0,0.5,0.224,0.5,0.5
			S40.277,43.5,40.001,43.5z"/>
	</g>
	<g>
		<path class="st0" d="M33.501,49.5h-3c-0.827,0-1.5-0.673-1.5-1.5v-1c0-0.827,0.673-1.5,1.5-1.5h3c0.827,0,1.5,0.673,1.5,1.5v1
			C35.001,48.827,34.328,49.5,33.501,49.5z M30.501,46.5c-0.275,0-0.5,0.224-0.5,0.5v1c0,0.276,0.225,0.5,0.5,0.5h3
			c0.275,0,0.5-0.224,0.5-0.5v-1c0-0.276-0.225-0.5-0.5-0.5H30.501z"/>
	</g>
	<g>
		<path class="st0" d="M59.001,12.5h-54c-0.276,0-0.5-0.224-0.5-0.5s0.224-0.5,0.5-0.5h54c0.276,0,0.5,0.224,0.5,0.5
			S59.277,12.5,59.001,12.5z"/>
	</g>
</g>
</svg>
