<?xml version="1.0" encoding="utf-8"?>
<!-- Generator: Adobe Illustrator 22.0.0, SVG Export Plug-In . SVG Version: 6.00 Build 0)  -->
<svg version="1.1" id="Icon_Set" xmlns="http://www.w3.org/2000/svg" xmlns:xlink="http://www.w3.org/1999/xlink" x="0px" y="0px"
	 viewBox="0 0 64 64" style="enable-background:new 0 0 64 64;" xml:space="preserve">
<style type="text/css">
	.st0{fill:#263238;}
	.st1{fill:#FFD740;}
	.st2{fill:#FF5252;}
	.st3{fill:#40C4FF;}
	.st4{fill:#FFFFFF;}
	.st5{fill:#4DB6AC;}
	.st6{fill:#4FC3F7;}
</style>
<g>
	<g>
		<path class="st0" d="M59.5,59.75h-55c-1.654,0-3-1.346-3-3v-27c0-1.654,1.346-3,3-3h55c1.654,0,3,1.346,3,3v27
			C62.5,58.404,61.154,59.75,59.5,59.75z M4.5,27.75c-1.103,0-2,0.897-2,2v27c0,1.103,0.897,2,2,2h55c1.103,0,2-0.897,2-2v-27
			c0-1.103-0.897-2-2-2H4.5z"/>
	</g>
	<g>
		<path class="st0" d="M10.5,38.25h-5c-0.276,0-0.5-0.224-0.5-0.5v-5c0-0.276,0.224-0.5,0.5-0.5h5c0.276,0,0.5,0.224,0.5,0.5v5
			C11,38.026,10.776,38.25,10.5,38.25z M6,37.25h4v-4H6V37.25z"/>
	</g>
	<g>
		<path class="st0" d="M18.5,38.25h-5c-0.276,0-0.5-0.224-0.5-0.5v-5c0-0.276,0.224-0.5,0.5-0.5h5c0.276,0,0.5,0.224,0.5,0.5v5
			C19,38.026,18.776,38.25,18.5,38.25z M14,37.25h4v-4h-4V37.25z"/>
	</g>
	<g>
		<path class="st0" d="M26.5,38.25h-5c-0.276,0-0.5-0.224-0.5-0.5v-5c0-0.276,0.224-0.5,0.5-0.5h5c0.276,0,0.5,0.224,0.5,0.5v5
			C27,38.026,26.776,38.25,26.5,38.25z M22,37.25h4v-4h-4V37.25z"/>
	</g>
	<g>
		<path class="st0" d="M34.5,38.25h-5c-0.276,0-0.5-0.224-0.5-0.5v-5c0-0.276,0.224-0.5,0.5-0.5h5c0.276,0,0.5,0.224,0.5,0.5v5
			C35,38.026,34.776,38.25,34.5,38.25z M30,37.25h4v-4h-4V37.25z"/>
	</g>
	<g>
		<path class="st0" d="M42.5,38.25h-5c-0.276,0-0.5-0.224-0.5-0.5v-5c0-0.276,0.224-0.5,0.5-0.5h5c0.276,0,0.5,0.224,0.5,0.5v5
			C43,38.026,42.776,38.25,42.5,38.25z M38,37.25h4v-4h-4V37.25z"/>
	</g>
	<g>
		<path class="st0" d="M50.5,38.25h-5c-0.276,0-0.5-0.224-0.5-0.5v-5c0-0.276,0.224-0.5,0.5-0.5h5c0.276,0,0.5,0.224,0.5,0.5v5
			C51,38.026,50.776,38.25,50.5,38.25z M46,37.25h4v-4h-4V37.25z"/>
	</g>
	<g>
		<path class="st0" d="M58.5,38.25h-5c-0.276,0-0.5-0.224-0.5-0.5v-5c0-0.276,0.224-0.5,0.5-0.5h5c0.276,0,0.5,0.224,0.5,0.5v5
			C59,38.026,58.776,38.25,58.5,38.25z M54,37.25h4v-4h-4V37.25z"/>
	</g>
	<g>
		<path class="st0" d="M10.5,46.25h-5c-0.276,0-0.5-0.224-0.5-0.5v-5c0-0.276,0.224-0.5,0.5-0.5h5c0.276,0,0.5,0.224,0.5,0.5v5
			C11,46.026,10.776,46.25,10.5,46.25z M6,45.25h4v-4H6V45.25z"/>
	</g>
	<g>
		<path class="st0" d="M18.5,46.25h-5c-0.276,0-0.5-0.224-0.5-0.5v-5c0-0.276,0.224-0.5,0.5-0.5h5c0.276,0,0.5,0.224,0.5,0.5v5
			C19,46.026,18.776,46.25,18.5,46.25z M14,45.25h4v-4h-4V45.25z"/>
	</g>
	<g>
		<path class="st0" d="M26.5,46.25h-5c-0.276,0-0.5-0.224-0.5-0.5v-5c0-0.276,0.224-0.5,0.5-0.5h5c0.276,0,0.5,0.224,0.5,0.5v5
			C27,46.026,26.776,46.25,26.5,46.25z M22,45.25h4v-4h-4V45.25z"/>
	</g>
	<g>
		<path class="st0" d="M34.5,46.25h-5c-0.276,0-0.5-0.224-0.5-0.5v-5c0-0.276,0.224-0.5,0.5-0.5h5c0.276,0,0.5,0.224,0.5,0.5v5
			C35,46.026,34.776,46.25,34.5,46.25z M30,45.25h4v-4h-4V45.25z"/>
	</g>
	<g>
		<path class="st0" d="M42.5,46.25h-5c-0.276,0-0.5-0.224-0.5-0.5v-5c0-0.276,0.224-0.5,0.5-0.5h5c0.276,0,0.5,0.224,0.5,0.5v5
			C43,46.026,42.776,46.25,42.5,46.25z M38,45.25h4v-4h-4V45.25z"/>
	</g>
	<g>
		<path class="st0" d="M50.5,46.25h-5c-0.276,0-0.5-0.224-0.5-0.5v-5c0-0.276,0.224-0.5,0.5-0.5h5c0.276,0,0.5,0.224,0.5,0.5v5
			C51,46.026,50.776,46.25,50.5,46.25z M46,45.25h4v-4h-4V45.25z"/>
	</g>
	<g>
		<path class="st0" d="M58.5,46.25h-5c-0.276,0-0.5-0.224-0.5-0.5v-5c0-0.276,0.224-0.5,0.5-0.5h5c0.276,0,0.5,0.224,0.5,0.5v5
			C59,46.026,58.776,46.25,58.5,46.25z M54,45.25h4v-4h-4V45.25z"/>
	</g>
	<g>
		<path class="st0" d="M10.5,54.25h-5c-0.276,0-0.5-0.224-0.5-0.5v-5c0-0.276,0.224-0.5,0.5-0.5h5c0.276,0,0.5,0.224,0.5,0.5v5
			C11,54.026,10.776,54.25,10.5,54.25z M6,53.25h4v-4H6V53.25z"/>
	</g>
	<g>
		<path class="st0" d="M18.5,54.25h-5c-0.276,0-0.5-0.224-0.5-0.5v-5c0-0.276,0.224-0.5,0.5-0.5h5c0.276,0,0.5,0.224,0.5,0.5v5
			C19,54.026,18.776,54.25,18.5,54.25z M14,53.25h4v-4h-4V53.25z"/>
	</g>
	<g>
		<path class="st0" d="M42.5,54.25h-21c-0.276,0-0.5-0.224-0.5-0.5v-5c0-0.276,0.224-0.5,0.5-0.5h21c0.276,0,0.5,0.224,0.5,0.5v5
			C43,54.026,42.776,54.25,42.5,54.25z M22,53.25h20v-4H22V53.25z"/>
	</g>
	<g>
		<path class="st0" d="M50.5,54.25h-5c-0.276,0-0.5-0.224-0.5-0.5v-5c0-0.276,0.224-0.5,0.5-0.5h5c0.276,0,0.5,0.224,0.5,0.5v5
			C51,54.026,50.776,54.25,50.5,54.25z M46,53.25h4v-4h-4V53.25z"/>
	</g>
	<g>
		<path class="st0" d="M58.5,54.25h-5c-0.276,0-0.5-0.224-0.5-0.5v-5c0-0.276,0.224-0.5,0.5-0.5h5c0.276,0,0.5,0.224,0.5,0.5v5
			C59,54.026,58.776,54.25,58.5,54.25z M54,53.25h4v-4h-4V53.25z"/>
	</g>
	<g>
		<path class="st0" d="M24,35.75c-0.276,0-0.5-0.224-0.5-0.5v-14.5h-15v14.5c0,0.276-0.224,0.5-0.5,0.5s-0.5-0.224-0.5-0.5v-15
			c0-0.276,0.224-0.5,0.5-0.5h16c0.276,0,0.5,0.224,0.5,0.5v15C24.5,35.526,24.276,35.75,24,35.75z"/>
	</g>
	<g>
		<path class="st0" d="M16,20.75c-0.276,0-0.5-0.224-0.5-0.5v-5.5c0-0.276,0.224-0.5,0.5-0.5s0.5,0.224,0.5,0.5v5.5
			C16.5,20.526,16.276,20.75,16,20.75z"/>
	</g>
	<g>
		<rect x="8" y="4.75" class="st2" width="16" height="8"/>
		<path class="st0" d="M24,13.25H8c-0.276,0-0.5-0.224-0.5-0.5v-8c0-0.276,0.224-0.5,0.5-0.5h16c0.276,0,0.5,0.224,0.5,0.5v8
			C24.5,13.026,24.276,13.25,24,13.25z M8.5,12.25h15v-7h-15V12.25z"/>
	</g>
	<g>
		<path class="st0" d="M56,35.75c-0.276,0-0.5-0.224-0.5-0.5v-14.5h-15v14.5c0,0.276-0.224,0.5-0.5,0.5s-0.5-0.224-0.5-0.5v-15
			c0-0.276,0.224-0.5,0.5-0.5h16c0.276,0,0.5,0.224,0.5,0.5v15C56.5,35.526,56.276,35.75,56,35.75z"/>
	</g>
	<g>
		<path class="st0" d="M48,20.75c-0.276,0-0.5-0.224-0.5-0.5v-5.5c0-0.276,0.224-0.5,0.5-0.5s0.5,0.224,0.5,0.5v5.5
			C48.5,20.526,48.276,20.75,48,20.75z"/>
	</g>
	<g>
		<rect x="40" y="4.75" class="st5" width="16" height="8"/>
		<path class="st0" d="M56,13.25H40c-0.276,0-0.5-0.224-0.5-0.5v-8c0-0.276,0.224-0.5,0.5-0.5h16c0.276,0,0.5,0.224,0.5,0.5v8
			C56.5,13.026,56.276,13.25,56,13.25z M40.5,12.25h15v-7h-15V12.25z"/>
	</g>
</g>
</svg>
