<?xml version="1.0" encoding="utf-8"?>
<!-- Generator: Adobe Illustrator 22.0.0, SVG Export Plug-In . SVG Version: 6.00 Build 0)  -->
<svg version="1.1" id="Icon_Set" xmlns="http://www.w3.org/2000/svg" xmlns:xlink="http://www.w3.org/1999/xlink" x="0px" y="0px"
	 viewBox="0 0 64 64" style="enable-background:new 0 0 64 64;" xml:space="preserve">
<style type="text/css">
	.st0{fill:#263238;}
	.st1{fill:#FFD740;}
	.st2{fill:#FF5252;}
	.st3{fill:#40C4FF;}
	.st4{fill:#FFFFFF;}
	.st5{fill:#4DB6AC;}
	.st6{fill:#4FC3F7;}
</style>
<g>
	<g>
		<polygon class="st1" points="52,21 52,45 32,57 32,33 		"/>
		<path class="st0" d="M32,57.5c-0.085,0-0.17-0.021-0.246-0.065C31.597,57.346,31.5,57.18,31.5,57V33
			c0-0.176,0.092-0.338,0.243-0.429l20-12c0.155-0.093,0.348-0.095,0.503-0.006C52.403,20.654,52.5,20.82,52.5,21v24
			c0,0.176-0.092,0.338-0.243,0.429l-20,12C32.178,57.476,32.089,57.5,32,57.5z M32.5,33.283v22.833l19-11.4V21.883L32.5,33.283z"/>
	</g>
	<g>
		<path class="st0" d="M32,33.5c-0.089,0-0.178-0.024-0.257-0.071l-20-12C11.592,21.338,11.5,21.176,11.5,21
			s0.092-0.338,0.243-0.429l20-12c0.158-0.095,0.355-0.095,0.514,0l20,12C52.408,20.662,52.5,20.824,52.5,21
			s-0.092,0.338-0.243,0.429l-20,12C32.178,33.476,32.089,33.5,32,33.5z M12.972,21L32,32.417L51.028,21L32,9.583L12.972,21z"/>
	</g>
	<g>
		<path class="st0" d="M32,26.674c-1.156,0-2.313-0.31-3.344-0.928l-2.907-1.744c-1.064-0.639-1.7-1.761-1.7-3.001
			s0.636-2.363,1.7-3.001l5.994-3.596c0.234-0.141,0.543-0.065,0.686,0.171s0.065,0.544-0.172,0.686l-5.994,3.596
			c-0.76,0.456-1.214,1.258-1.214,2.144s0.454,1.688,1.214,2.144l2.907,1.744c1.746,1.047,3.914,1.047,5.66,0l7.195-4.317
			c0.234-0.141,0.544-0.066,0.686,0.171c0.143,0.237,0.065,0.544-0.172,0.686l-7.195,4.317C34.312,26.364,33.156,26.674,32,26.674z"
			/>
	</g>
	<g>
		<polygon class="st3" points="12,21 12,45 32,57 32,33 		"/>
		<path class="st0" d="M32,57.5c-0.089,0-0.178-0.024-0.257-0.071l-20-12C11.592,45.338,11.5,45.176,11.5,45V21
			c0-0.18,0.097-0.346,0.254-0.435c0.156-0.089,0.349-0.086,0.503,0.006l20,12C32.408,32.662,32.5,32.824,32.5,33v24
			c0,0.18-0.097,0.346-0.254,0.435C32.17,57.479,32.085,57.5,32,57.5z M12.5,44.717l19,11.4V33.283l-19-11.4V44.717z"/>
	</g>
	<g>
		<path class="st0" d="M38,48c-0.054,0-0.109-0.009-0.163-0.027c-0.261-0.09-0.399-0.375-0.31-0.636l5-14.5
			c0.065-0.19,0.239-0.323,0.439-0.336c0.22-0.008,0.391,0.096,0.48,0.275l4.5,9c0.123,0.247,0.023,0.547-0.224,0.671
			c-0.248,0.122-0.547,0.023-0.671-0.224l-3.968-7.936l-4.612,13.375C38.401,47.87,38.207,48,38,48z"/>
	</g>
	<g>
		<path class="st0" d="M40,42.5c-0.165,0-0.326-0.082-0.422-0.231c-0.148-0.233-0.079-0.542,0.153-0.69l5.5-3.5
			c0.23-0.146,0.541-0.08,0.69,0.153c0.148,0.233,0.079,0.542-0.153,0.69l-5.5,3.5C40.186,42.475,40.093,42.5,40,42.5z"/>
	</g>
	<g>
		<path class="st0" d="M24.499,40.532c-0.274,0-0.548-0.078-0.794-0.231l-6.47-4.043C17.089,36.166,17,36.006,17,35.833v-6
			c0-0.182,0.099-0.349,0.258-0.438c0.159-0.087,0.353-0.083,0.507,0.014l7.06,4.412c0.736,0.46,1.176,1.252,1.176,2.12v3.087
			c0,0.553-0.289,1.043-0.773,1.312C24.997,40.469,24.747,40.532,24.499,40.532z M18,35.556l6.234,3.897
			c0.229,0.141,0.432,0.057,0.508,0.013C24.819,39.423,25,39.295,25,39.029v-3.087c0-0.521-0.264-0.996-0.705-1.272L18,30.736
			V35.556z"/>
	</g>
	<g>
		<path class="st0" d="M24.499,46.532c-0.274,0-0.548-0.078-0.794-0.231l-6.47-4.043C17.089,42.166,17,42.006,17,41.833v-6
			c0-0.182,0.099-0.349,0.258-0.438c0.159-0.087,0.353-0.083,0.507,0.014l7.06,4.412c0.736,0.46,1.176,1.252,1.176,2.12v3.087
			c0,0.553-0.289,1.043-0.773,1.312C24.997,46.469,24.747,46.532,24.499,46.532z M18,41.556l6.234,3.897
			c0.229,0.141,0.432,0.057,0.508,0.013C24.819,45.423,25,45.295,25,45.029v-3.087c0-0.521-0.264-0.996-0.705-1.272L18,36.736
			V41.556z"/>
	</g>
	<g>
		<path class="st0" d="M63.5,60.5h-2c-0.276,0-0.5-0.224-0.5-0.5s0.224-0.5,0.5-0.5h2c0.276,0,0.5,0.224,0.5,0.5
			S63.776,60.5,63.5,60.5z"/>
	</g>
	<g>
		<path class="st0" d="M59.5,60.5h-16c-0.276,0-0.5-0.224-0.5-0.5s0.224-0.5,0.5-0.5h16c0.276,0,0.5,0.224,0.5,0.5
			S59.776,60.5,59.5,60.5z"/>
	</g>
	<g>
		<path class="st0" d="M2.5,6.5h-2C0.224,6.5,0,6.276,0,6s0.224-0.5,0.5-0.5h2C2.776,5.5,3,5.724,3,6S2.776,6.5,2.5,6.5z"/>
	</g>
	<g>
		<path class="st0" d="M20.5,6.5h-16C4.224,6.5,4,6.276,4,6s0.224-0.5,0.5-0.5h16C20.776,5.5,21,5.724,21,6S20.776,6.5,20.5,6.5z"/>
	</g>
	<g>
		<path class="st0" d="M45.5,6.5h-4C41.224,6.5,41,6.276,41,6s0.224-0.5,0.5-0.5h4C45.776,5.5,46,5.724,46,6S45.776,6.5,45.5,6.5z"
			/>
	</g>
	<g>
		<path class="st0" d="M43.5,8.5C43.224,8.5,43,8.276,43,8V4c0-0.276,0.224-0.5,0.5-0.5S44,3.724,44,4v4
			C44,8.276,43.776,8.5,43.5,8.5z"/>
	</g>
	<g>
		<path class="st0" d="M52,10.5h-4c-0.276,0-0.5-0.224-0.5-0.5s0.224-0.5,0.5-0.5h4c0.276,0,0.5,0.224,0.5,0.5S52.276,10.5,52,10.5z
			"/>
	</g>
	<g>
		<path class="st0" d="M50,12.5c-0.276,0-0.5-0.224-0.5-0.5V8c0-0.276,0.224-0.5,0.5-0.5s0.5,0.224,0.5,0.5v4
			C50.5,12.276,50.276,12.5,50,12.5z"/>
	</g>
</g>
</svg>
