<?xml version="1.0" encoding="utf-8"?>
<!-- Generator: Adobe Illustrator 22.0.0, SVG Export Plug-In . SVG Version: 6.00 Build 0)  -->
<svg version="1.1" id="Icon_Set" xmlns="http://www.w3.org/2000/svg" xmlns:xlink="http://www.w3.org/1999/xlink" x="0px" y="0px"
	 viewBox="0 0 64 64" style="enable-background:new 0 0 64 64;" xml:space="preserve">
<style type="text/css">
	.st0{fill:#263238;}
	.st1{fill:#FFD740;}
	.st2{fill:#FF5252;}
	.st3{fill:#40C4FF;}
	.st4{fill:#FFFFFF;}
	.st5{fill:#4DB6AC;}
	.st6{fill:#4FC3F7;}
</style>
<g>
	<g>
		<path class="st0" d="M49.985,43h-36c-0.16,0-0.31-0.077-0.404-0.206l-4-5.5C9.519,37.208,9.485,37.105,9.485,37V17.5
			c0-0.212,0.134-0.401,0.334-0.472c0.199-0.071,0.422-0.007,0.556,0.159l7.583,9.479l6.617-9.453c0.188-0.268,0.632-0.268,0.819,0
			l6.59,9.415l6.591-9.415c0.186-0.268,0.633-0.268,0.818,0l6.617,9.453l7.583-9.479c0.133-0.166,0.358-0.228,0.556-0.159
			c0.201,0.07,0.335,0.259,0.335,0.472V37c0,0.105-0.033,0.208-0.096,0.294l-4,5.5C50.296,42.923,50.146,43,49.985,43z M14.239,42
			H49.73l3.755-5.163V18.925l-7.109,8.887c-0.099,0.123-0.251,0.203-0.406,0.187c-0.158-0.005-0.304-0.084-0.394-0.213l-6.591-9.415
			l-6.591,9.415c-0.188,0.268-0.632,0.268-0.819,0l-6.59-9.415l-6.59,9.415c-0.09,0.129-0.236,0.208-0.394,0.213
			c-0.147,0.015-0.308-0.064-0.407-0.187l-7.109-8.887v17.912L14.239,42z"/>
	</g>
	<g>
		<path class="st0" d="M47.485,56h-31c-1.654,0-3-1.346-3-3v-8.5c0-0.276,0.224-0.5,0.5-0.5s0.5,0.224,0.5,0.5V53
			c0,1.103,0.897,2,2,2h31c1.103,0,2-0.897,2-2v-8.5c0-0.276,0.224-0.5,0.5-0.5s0.5,0.224,0.5,0.5V53
			C50.485,54.654,49.14,56,47.485,56z"/>
	</g>
	<g>
		<polygon class="st2" points="31.985,37.5 27.985,32.5 31.985,27.5 35.985,32.5 		"/>
		<path class="st0" d="M31.985,38c-0.152,0-0.295-0.069-0.391-0.188l-4-5c-0.146-0.183-0.146-0.442,0-0.625l4-5
			c0.19-0.237,0.591-0.237,0.781,0l4,5c0.146,0.183,0.146,0.442,0,0.625l-4,5C32.28,37.931,32.137,38,31.985,38z M28.625,32.5
			l3.36,4.2l3.359-4.2l-3.359-4.2L28.625,32.5z"/>
	</g>
	<g>
		<polygon class="st3" points="17.985,37.5 13.985,32.5 17.985,27.5 21.985,32.5 		"/>
		<path class="st0" d="M17.985,38c-0.152,0-0.295-0.069-0.391-0.188l-4-5c-0.146-0.183-0.146-0.442,0-0.625l4-5
			c0.19-0.237,0.591-0.237,0.781,0l4,5c0.146,0.183,0.146,0.442,0,0.625l-4,5C18.281,37.931,18.137,38,17.985,38z M14.625,32.5
			l3.36,4.2l3.36-4.2l-3.36-4.2L14.625,32.5z"/>
	</g>
	<g>
		<polygon class="st1" points="45.985,37.5 41.985,32.5 45.985,27.5 49.985,32.5 		"/>
		<path class="st0" d="M45.985,38c-0.152,0-0.296-0.069-0.391-0.188l-4-5c-0.146-0.183-0.146-0.442,0-0.625l4-5
			c0.189-0.237,0.592-0.237,0.781,0l4,5c0.146,0.183,0.146,0.442,0,0.625l-4,5C46.281,37.931,46.138,38,45.985,38z M42.626,32.5
			l3.359,4.2l3.359-4.2l-3.359-4.2L42.626,32.5z"/>
	</g>
	<g>
		<path class="st0" d="M49.985,50h-36c-0.276,0-0.5-0.224-0.5-0.5s0.224-0.5,0.5-0.5h36c0.276,0,0.5,0.224,0.5,0.5
			S50.262,50,49.985,50z"/>
	</g>
	<g>
		<path class="st0" d="M25,18c-1.378,0-2.5-1.122-2.5-2.5S23.622,13,25,13s2.5,1.122,2.5,2.5S26.378,18,25,18z M25,14
			c-0.827,0-1.5,0.673-1.5,1.5S24.173,17,25,17s1.5-0.673,1.5-1.5S25.827,14,25,14z"/>
	</g>
	<g>
		<path class="st0" d="M39,18c-1.379,0-2.5-1.122-2.5-2.5S37.621,13,39,13s2.5,1.122,2.5,2.5S40.379,18,39,18z M39,14
			c-0.827,0-1.5,0.673-1.5,1.5S38.173,17,39,17s1.5-0.673,1.5-1.5S39.827,14,39,14z"/>
	</g>
	<g>
		<path class="st0" d="M54,18c-1.379,0-2.5-1.122-2.5-2.5S52.621,13,54,13s2.5,1.122,2.5,2.5S55.379,18,54,18z M54,14
			c-0.827,0-1.5,0.673-1.5,1.5S53.173,17,54,17s1.5-0.673,1.5-1.5S54.827,14,54,14z"/>
	</g>
	<g>
		<path class="st0" d="M10,18c-1.378,0-2.5-1.122-2.5-2.5S8.622,13,10,13s2.5,1.122,2.5,2.5S11.378,18,10,18z M10,14
			c-0.827,0-1.5,0.673-1.5,1.5S9.173,17,10,17s1.5-0.673,1.5-1.5S10.827,14,10,14z"/>
	</g>
	<g>
		<path class="st0" d="M53.985,6h-4c-0.276,0-0.5-0.224-0.5-0.5s0.224-0.5,0.5-0.5h4c0.276,0,0.5,0.224,0.5,0.5S54.262,6,53.985,6z"
			/>
	</g>
	<g>
		<path class="st0" d="M51.985,8c-0.276,0-0.5-0.224-0.5-0.5v-4c0-0.276,0.224-0.5,0.5-0.5s0.5,0.224,0.5,0.5v4
			C52.485,7.776,52.262,8,51.985,8z"/>
	</g>
	<g>
		<path class="st0" d="M48.985,12h-4c-0.276,0-0.5-0.224-0.5-0.5s0.224-0.5,0.5-0.5h4c0.276,0,0.5,0.224,0.5,0.5
			S49.262,12,48.985,12z"/>
	</g>
	<g>
		<path class="st0" d="M46.985,14c-0.276,0-0.5-0.224-0.5-0.5v-4c0-0.276,0.224-0.5,0.5-0.5s0.5,0.224,0.5,0.5v4
			C47.485,13.776,47.262,14,46.985,14z"/>
	</g>
	<g>
		<path class="st0" d="M2.5,61h-2C0.224,61,0,60.776,0,60.5S0.224,60,0.5,60h2C2.776,60,3,60.224,3,60.5S2.776,61,2.5,61z"/>
	</g>
	<g>
		<path class="st0" d="M15.5,61h-11C4.224,61,4,60.776,4,60.5S4.224,60,4.5,60h11c0.276,0,0.5,0.224,0.5,0.5S15.776,61,15.5,61z"/>
	</g>
	<g>
		<path class="st0" d="M63.5,61h-2c-0.276,0-0.5-0.224-0.5-0.5s0.224-0.5,0.5-0.5h2c0.276,0,0.5,0.224,0.5,0.5S63.776,61,63.5,61z"
			/>
	</g>
	<g>
		<path class="st0" d="M59.5,61h-11c-0.276,0-0.5-0.224-0.5-0.5s0.224-0.5,0.5-0.5h11c0.276,0,0.5,0.224,0.5,0.5S59.776,61,59.5,61z
			"/>
	</g>
</g>
</svg>
