<?xml version="1.0" encoding="utf-8"?>
<!-- Generator: Adobe Illustrator 22.0.0, SVG Export Plug-In . SVG Version: 6.00 Build 0)  -->
<svg version="1.1" id="Icon_Set" xmlns="http://www.w3.org/2000/svg" xmlns:xlink="http://www.w3.org/1999/xlink" x="0px" y="0px"
	 viewBox="0 0 64 64" style="enable-background:new 0 0 64 64;" xml:space="preserve">
<style type="text/css">
	.st0{fill:#263238;}
	.st1{fill:#FFD740;}
	.st2{fill:#FF5252;}
	.st3{fill:#40C4FF;}
	.st4{fill:#FFFFFF;}
	.st5{fill:#4DB6AC;}
	.st6{fill:#4FC3F7;}
</style>
<g>
	<g>
		<rect x="24" y="26.385" class="st2" width="16" height="33"/>
		<path class="st0" d="M40,59.885H24c-0.276,0-0.5-0.224-0.5-0.5v-33c0-0.276,0.224-0.5,0.5-0.5h16c0.276,0,0.5,0.224,0.5,0.5v33
			C40.5,59.662,40.276,59.885,40,59.885z M24.5,58.885h15v-32h-15V58.885z"/>
	</g>
	<g>
		<path class="st0" d="M58,59.885H43c-0.276,0-0.5-0.224-0.5-0.5v-20.5c0-0.276,0.224-0.5,0.5-0.5h15c0.276,0,0.5,0.224,0.5,0.5
			v20.5C58.5,59.662,58.276,59.885,58,59.885z M43.5,58.885h14v-19.5h-14V58.885z"/>
	</g>
	<g>
		<path class="st0" d="M21,59.885H6c-0.276,0-0.5-0.224-0.5-0.5v-20.5c0-0.276,0.224-0.5,0.5-0.5h15c0.276,0,0.5,0.224,0.5,0.5v20.5
			C21.5,59.662,21.276,59.885,21,59.885z M6.5,58.885h14v-19.5h-14V58.885z"/>
	</g>
	<g>
		<polygon class="st1" points="40,23.385 40,11.385 37,13.385 32,9.385 27,13.385 24,11.385 24,23.385 		"/>
		<path class="st0" d="M40,23.885H24c-0.276,0-0.5-0.224-0.5-0.5v-12c0-0.185,0.102-0.354,0.264-0.441s0.359-0.078,0.514,0.025
			l2.696,1.797l4.714-3.772c0.184-0.146,0.441-0.146,0.625,0l4.714,3.772l2.696-1.797c0.155-0.103,0.351-0.112,0.514-0.025
			c0.162,0.087,0.264,0.256,0.264,0.441v12C40.5,23.662,40.276,23.885,40,23.885z M24.5,22.885h15V12.319l-2.223,1.482
			c-0.181,0.121-0.42,0.111-0.59-0.025L32,10.025l-4.688,3.75c-0.171,0.137-0.411,0.145-0.59,0.025L24.5,12.319V22.885z"/>
	</g>
	<g>
		<path class="st0" d="M40,20.885H24c-0.276,0-0.5-0.224-0.5-0.5s0.224-0.5,0.5-0.5h16c0.276,0,0.5,0.224,0.5,0.5
			S40.276,20.885,40,20.885z"/>
	</g>
	<g>
		<circle class="st3" cx="32" cy="17.885" r="2.5"/>
		<path class="st0" d="M32,20.885c-1.654,0-3-1.346-3-3s1.346-3,3-3s3,1.346,3,3S33.654,20.885,32,20.885z M32,15.885
			c-1.103,0-2,0.897-2,2s0.897,2,2,2s2-0.897,2-2S33.103,15.885,32,15.885z"/>
	</g>
	<g>
		<path class="st0" d="M57.5,35.385h-2c-0.276,0-0.5-0.224-0.5-0.5s0.224-0.5,0.5-0.5h2c0.276,0,0.5,0.224,0.5,0.5
			S57.776,35.385,57.5,35.385z"/>
	</g>
	<g>
		<path class="st0" d="M53.5,35.385h-10c-0.276,0-0.5-0.224-0.5-0.5s0.224-0.5,0.5-0.5h10c0.276,0,0.5,0.224,0.5,0.5
			S53.776,35.385,53.5,35.385z"/>
	</g>
	<g>
		<path class="st0" d="M8.5,35.385h-2c-0.276,0-0.5-0.224-0.5-0.5s0.224-0.5,0.5-0.5h2c0.276,0,0.5,0.224,0.5,0.5
			S8.776,35.385,8.5,35.385z"/>
	</g>
	<g>
		<path class="st0" d="M20.5,35.385h-10c-0.276,0-0.5-0.224-0.5-0.5s0.224-0.5,0.5-0.5h10c0.276,0,0.5,0.224,0.5,0.5
			S20.776,35.385,20.5,35.385z"/>
	</g>
	<g>
		<path class="st0" d="M13,16.385H9c-0.276,0-0.5-0.224-0.5-0.5s0.224-0.5,0.5-0.5h4c0.276,0,0.5,0.224,0.5,0.5
			S13.276,16.385,13,16.385z"/>
	</g>
	<g>
		<path class="st0" d="M11,18.385c-0.276,0-0.5-0.224-0.5-0.5v-4c0-0.276,0.224-0.5,0.5-0.5s0.5,0.224,0.5,0.5v4
			C11.5,18.162,11.276,18.385,11,18.385z"/>
	</g>
	<g>
		<path class="st0" d="M18,21.385h-4c-0.276,0-0.5-0.224-0.5-0.5s0.224-0.5,0.5-0.5h4c0.276,0,0.5,0.224,0.5,0.5
			S18.276,21.385,18,21.385z"/>
	</g>
	<g>
		<path class="st0" d="M16,23.385c-0.276,0-0.5-0.224-0.5-0.5v-4c0-0.276,0.224-0.5,0.5-0.5s0.5,0.224,0.5,0.5v4
			C16.5,23.162,16.276,23.385,16,23.385z"/>
	</g>
</g>
</svg>
