<?xml version="1.0" encoding="utf-8"?>
<!-- Generator: Adobe Illustrator 22.0.0, SVG Export Plug-In . SVG Version: 6.00 Build 0)  -->
<svg version="1.1" id="Icon_Set" xmlns="http://www.w3.org/2000/svg" xmlns:xlink="http://www.w3.org/1999/xlink" x="0px" y="0px"
	 viewBox="0 0 64 64" style="enable-background:new 0 0 64 64;" xml:space="preserve">
<style type="text/css">
	.st0{fill:#263238;}
	.st1{fill:#FFD740;}
	.st2{fill:#FF5252;}
	.st3{fill:#40C4FF;}
	.st4{fill:#FFFFFF;}
	.st5{fill:#4DB6AC;}
	.st6{fill:#4FC3F7;}
</style>
<g>
	<g>
		<rect x="24" y="5" class="st2" width="13.5" height="13.5"/>
	</g>
	<g>
		<path class="st0" d="M17.5,27.5H5c-0.276,0-0.5-0.224-0.5-0.5V5c0-0.276,0.224-0.5,0.5-0.5h33c0.276,0,0.5,0.224,0.5,0.5v10H59
			c0.276,0,0.5,0.224,0.5,0.5S59.276,16,59,16H38c-0.276,0-0.5-0.224-0.5-0.5v-10h-32v21h12c0.276,0,0.5,0.224,0.5,0.5
			S17.776,27.5,17.5,27.5z"/>
	</g>
	<g>
		<path class="st0" d="M58,56.5H30c-0.276,0-0.5-0.224-0.5-0.5v-1.5H5c-0.276,0-0.5-0.224-0.5-0.5s0.224-0.5,0.5-0.5h25
			c0.276,0,0.5,0.224,0.5,0.5v1.5h27v-13h-27V51c0,0.276-0.224,0.5-0.5,0.5H5c-0.276,0-0.5-0.224-0.5-0.5s0.224-0.5,0.5-0.5h24.5V42
			c0-0.276,0.224-0.5,0.5-0.5h28c0.276,0,0.5,0.224,0.5,0.5v14C58.5,56.276,58.276,56.5,58,56.5z"/>
	</g>
	<g>
		<path class="st0" d="M38,27.5H20.5c-0.276,0-0.5-0.224-0.5-0.5s0.224-0.5,0.5-0.5h17v-8c0-0.276,0.224-0.5,0.5-0.5h21
			c0.276,0,0.5,0.224,0.5,0.5S59.276,19,59,19H38.5v8C38.5,27.276,38.276,27.5,38,27.5z"/>
	</g>
	<g>
		<path class="st0" d="M40.5,42.5h-3c-0.276,0-0.5-0.224-0.5-0.5v-5.5H17.5c-0.276,0-0.5-0.224-0.5-0.5v-9
			c0-0.276,0.224-0.5,0.5-0.5S18,26.724,18,27v8.5h19.5c0.276,0,0.5,0.224,0.5,0.5v5.5h2v-8H20.5c-0.276,0-0.5-0.224-0.5-0.5v-6
			c0-0.276,0.224-0.5,0.5-0.5S21,26.724,21,27v5.5h19.5c0.276,0,0.5,0.224,0.5,0.5v9C41,42.276,40.776,42.5,40.5,42.5z"/>
	</g>
	<g>
		<path class="st0" d="M39,56.5c-0.276,0-0.5-0.224-0.5-0.5v-5c0-0.276,0.224-0.5,0.5-0.5s0.5,0.224,0.5,0.5v5
			C39.5,56.276,39.276,56.5,39,56.5z"/>
	</g>
	<g>
		<path class="st0" d="M17.5,27.5c-0.115,0-0.231-0.04-0.325-0.121c-0.21-0.18-0.234-0.495-0.054-0.705l3-3.5
			c0.18-0.21,0.496-0.233,0.705-0.054c0.21,0.18,0.234,0.495,0.054,0.705l-3,3.5C17.781,27.441,17.641,27.5,17.5,27.5z"/>
	</g>
	<g>
		<circle class="st1" cx="34.5" cy="46" r="1.5"/>
		<path class="st0" d="M34.5,48c-1.103,0-2-0.897-2-2s0.897-2,2-2s2,0.897,2,2S35.603,48,34.5,48z M34.5,45c-0.551,0-1,0.449-1,1
			s0.449,1,1,1s1-0.449,1-1S35.051,45,34.5,45z"/>
	</g>
	<g>
		<path class="st0" d="M55.176,46.5h-5c-0.276,0-0.5-0.224-0.5-0.5v-4c0-0.276,0.224-0.5,0.5-0.5s0.5,0.224,0.5,0.5v3.5h4V42
			c0-0.276,0.224-0.5,0.5-0.5s0.5,0.224,0.5,0.5v4C55.676,46.276,55.453,46.5,55.176,46.5z"/>
	</g>
	<g>
		<circle class="st1" cx="46.5" cy="51" r="1.5"/>
		<path class="st0" d="M46.5,53c-1.103,0-2-0.897-2-2s0.897-2,2-2s2,0.897,2,2S47.603,53,46.5,53z M46.5,50c-0.551,0-1,0.449-1,1
			s0.449,1,1,1s1-0.449,1-1S47.051,50,46.5,50z"/>
	</g>
	<g>
		<path class="st0" d="M31,14.5c-0.182,0-0.349-0.099-0.437-0.257l-2.5-4.5c-0.086-0.155-0.084-0.344,0.006-0.496
			C28.158,9.094,28.322,9,28.5,9h5c0.177,0,0.341,0.094,0.431,0.247c0.09,0.152,0.092,0.341,0.006,0.496l-2.5,4.5
			C31.349,14.401,31.181,14.5,31,14.5z M29.349,10L31,12.97L32.65,10H29.349z"/>
	</g>
	<g>
		<rect x="10.5" y="20" class="st5" width="3.5" height="3.5"/>
		<path class="st0" d="M14,24h-3.5c-0.276,0-0.5-0.224-0.5-0.5V20c0-0.276,0.224-0.5,0.5-0.5H14c0.276,0,0.5,0.224,0.5,0.5v3.5
			C14.5,23.776,14.276,24,14,24z M11,23h2.5v-2.5H11V23z"/>
	</g>
	<g>
		<path class="st0" d="M38,19H24c-0.276,0-0.5-0.224-0.5-0.5V11c0-0.276,0.224-0.5,0.5-0.5s0.5,0.224,0.5,0.5v7H38
			c0.276,0,0.5,0.224,0.5,0.5S38.276,19,38,19z"/>
	</g>
	<g>
		<circle class="st1" cx="10.75" cy="12.25" r="1.5"/>
		<path class="st0" d="M10.75,14.25c-1.103,0-2-0.897-2-2s0.897-2,2-2s2,0.897,2,2S11.853,14.25,10.75,14.25z M10.75,11.25
			c-0.551,0-1,0.449-1,1s0.449,1,1,1s1-0.449,1-1S11.301,11.25,10.75,11.25z"/>
	</g>
	<g>
		<circle class="st1" cx="13.75" cy="12.25" r="1.5"/>
		<path class="st0" d="M13.75,14.25c-1.103,0-2-0.897-2-2s0.897-2,2-2s2,0.897,2,2S14.853,14.25,13.75,14.25z M13.75,11.25
			c-0.551,0-1,0.449-1,1s0.449,1,1,1s1-0.449,1-1S14.301,11.25,13.75,11.25z"/>
	</g>
	<g>
		<path class="st0" d="M8,59.5H6c-0.276,0-0.5-0.224-0.5-0.5s0.224-0.5,0.5-0.5h2c0.276,0,0.5,0.224,0.5,0.5S8.276,59.5,8,59.5z"/>
	</g>
	<g>
		<path class="st0" d="M21,59.5H10c-0.276,0-0.5-0.224-0.5-0.5s0.224-0.5,0.5-0.5h11c0.276,0,0.5,0.224,0.5,0.5S21.276,59.5,21,59.5
			z"/>
	</g>
	<g>
		<path class="st0" d="M57.5,10.897h-2c-0.276,0-0.5-0.224-0.5-0.5s0.224-0.5,0.5-0.5h2c0.276,0,0.5,0.224,0.5,0.5
			S57.776,10.897,57.5,10.897z"/>
	</g>
	<g>
		<path class="st0" d="M53.5,10.897h-11c-0.276,0-0.5-0.224-0.5-0.5s0.224-0.5,0.5-0.5h11c0.276,0,0.5,0.224,0.5,0.5
			S53.776,10.897,53.5,10.897z"/>
	</g>
	<g>
		<path class="st0" d="M27,48.5c-0.128,0-0.256-0.049-0.354-0.146l-2-2c-0.195-0.195-0.195-0.512,0-0.707s0.512-0.195,0.707,0l2,2
			c0.195,0.195,0.195,0.512,0,0.707C27.256,48.451,27.128,48.5,27,48.5z"/>
	</g>
	<g>
		<path class="st0" d="M25,48.5c-0.128,0-0.256-0.049-0.354-0.146c-0.195-0.195-0.195-0.512,0-0.707l2-2
			c0.195-0.195,0.512-0.195,0.707,0s0.195,0.512,0,0.707l-2,2C25.256,48.451,25.128,48.5,25,48.5z"/>
	</g>
	<g>
		<path class="st0" d="M45.5,40c-0.128,0-0.256-0.049-0.354-0.146l-2-2c-0.195-0.195-0.195-0.512,0-0.707s0.512-0.195,0.707,0l2,2
			c0.195,0.195,0.195,0.512,0,0.707C45.756,39.951,45.628,40,45.5,40z"/>
	</g>
	<g>
		<path class="st0" d="M43.5,40c-0.128,0-0.256-0.049-0.354-0.146c-0.195-0.195-0.195-0.512,0-0.707l2-2
			c0.195-0.195,0.512-0.195,0.707,0s0.195,0.512,0,0.707l-2,2C43.756,39.951,43.628,40,43.5,40z"/>
	</g>
</g>
</svg>
