<?xml version="1.0" encoding="utf-8"?>
<!-- Generator: Adobe Illustrator 22.0.0, SVG Export Plug-In . SVG Version: 6.00 Build 0)  -->
<svg version="1.1" id="Icon_Set" xmlns="http://www.w3.org/2000/svg" xmlns:xlink="http://www.w3.org/1999/xlink" x="0px" y="0px"
	 viewBox="0 0 64 64" style="enable-background:new 0 0 64 64;" xml:space="preserve">
<style type="text/css">
	.st0{fill:#263238;}
	.st1{fill:#FFD740;}
	.st2{fill:#FF5252;}
	.st3{fill:#40C4FF;}
	.st4{fill:#FFFFFF;}
	.st5{fill:#4DB6AC;}
	.st6{fill:#4FC3F7;}
</style>
<g>
	<g>
		<path class="st1" d="M32,16c-8.836,0-16,7.163-16,16c0,6.713,4.139,12.451,10,14.826V38h-2c-0.737,0-1.415-0.406-1.764-1.056
			c-0.348-0.65-0.31-1.439,0.1-2.053l8-12C30.707,22.334,31.331,22,32,22s1.293,0.334,1.664,0.891l8,12
			c0.409,0.614,0.447,1.403,0.1,2.053C41.415,37.594,40.737,38,40,38h-2v8.826C43.861,44.451,48,38.713,48,32
			C48,23.163,40.836,16,32,16z"/>
	</g>
	<g>
		<path class="st0" d="M32,56.5C18.49,56.5,7.5,45.509,7.5,32S18.49,7.5,32,7.5S56.5,18.491,56.5,32S45.51,56.5,32,56.5z M32,8.5
			C19.042,8.5,8.5,19.042,8.5,32S19.042,55.5,32,55.5S55.5,44.958,55.5,32S44.958,8.5,32,8.5z"/>
	</g>
	<g>
		<path class="st0" d="M4,32.5c-0.276,0-0.5-0.224-0.5-0.5C3.5,16.285,16.285,3.5,32,3.5c0.276,0,0.5,0.224,0.5,0.5
			S32.276,4.5,32,4.5C16.837,4.5,4.5,16.836,4.5,32C4.5,32.276,4.276,32.5,4,32.5z"/>
	</g>
	<g>
		<path class="st0" d="M35,4.5h-1c-0.276,0-0.5-0.224-0.5-0.5s0.224-0.5,0.5-0.5h1c0.276,0,0.5,0.224,0.5,0.5S35.276,4.5,35,4.5z"/>
	</g>
	<g>
		<path class="st0" d="M32,60.5c-0.276,0-0.5-0.224-0.5-0.5s0.224-0.5,0.5-0.5c15.163,0,27.5-12.336,27.5-27.5
			c0-0.276,0.224-0.5,0.5-0.5s0.5,0.224,0.5,0.5C60.5,47.715,47.715,60.5,32,60.5z"/>
	</g>
	<g>
		<path class="st0" d="M30,60.5h-1c-0.276,0-0.5-0.224-0.5-0.5s0.224-0.5,0.5-0.5h1c0.276,0,0.5,0.224,0.5,0.5S30.276,60.5,30,60.5z
			"/>
	</g>
	<g>
		<path class="st0" d="M53,6.5h-4c-0.276,0-0.5-0.224-0.5-0.5s0.224-0.5,0.5-0.5h4c0.276,0,0.5,0.224,0.5,0.5S53.276,6.5,53,6.5z"/>
	</g>
	<g>
		<path class="st0" d="M51,8.5c-0.276,0-0.5-0.224-0.5-0.5V4c0-0.276,0.224-0.5,0.5-0.5s0.5,0.224,0.5,0.5v4
			C51.5,8.276,51.276,8.5,51,8.5z"/>
	</g>
	<g>
		<path class="st0" d="M60,13h-4c-0.276,0-0.5-0.224-0.5-0.5S55.724,12,56,12h4c0.276,0,0.5,0.224,0.5,0.5S60.276,13,60,13z"/>
	</g>
	<g>
		<path class="st0" d="M58,15c-0.276,0-0.5-0.224-0.5-0.5v-4c0-0.276,0.224-0.5,0.5-0.5s0.5,0.224,0.5,0.5v4
			C58.5,14.776,58.276,15,58,15z"/>
	</g>
	<g>
		<path class="st2" d="M32,24l-8,12h4v11c0,0.552,0.448,1,1,1h6c0.552,0,1-0.448,1-1V36h4L32,24z"/>
		<path class="st0" d="M35,48.5h-6c-0.827,0-1.5-0.673-1.5-1.5V36.5H24c-0.185,0-0.354-0.102-0.44-0.264
			c-0.088-0.163-0.078-0.36,0.024-0.513l8-12c0.186-0.278,0.646-0.278,0.832,0l8,12c0.103,0.153,0.112,0.351,0.024,0.513
			C40.354,36.398,40.185,36.5,40,36.5h-3.5V47C36.5,47.827,35.827,48.5,35,48.5z M24.935,35.5H28c0.276,0,0.5,0.224,0.5,0.5v11
			c0,0.276,0.225,0.5,0.5,0.5h6c0.275,0,0.5-0.224,0.5-0.5V36c0-0.276,0.224-0.5,0.5-0.5h3.065L32,24.901L24.935,35.5z"/>
	</g>
	<g>
		<path class="st0" d="M38,47.326c-0.197,0-0.385-0.118-0.464-0.312c-0.104-0.256,0.021-0.548,0.276-0.651
			C43.697,43.978,47.5,38.34,47.5,32c0-8.547-6.953-15.5-15.5-15.5S16.5,23.453,16.5,32c0,6.34,3.803,11.978,9.687,14.363
			c0.256,0.104,0.38,0.395,0.276,0.651c-0.104,0.255-0.396,0.378-0.651,0.275C19.548,44.751,15.5,38.75,15.5,32
			c0-9.098,7.402-16.5,16.5-16.5S48.5,22.902,48.5,32c0,6.75-4.048,12.751-10.313,15.29C38.126,47.314,38.062,47.326,38,47.326z"/>
	</g>
</g>
</svg>
