<?xml version="1.0" encoding="utf-8"?>
<!-- Generator: Adobe Illustrator 22.0.0, SVG Export Plug-In . SVG Version: 6.00 Build 0)  -->
<svg version="1.1" id="Icon_Set" xmlns="http://www.w3.org/2000/svg" xmlns:xlink="http://www.w3.org/1999/xlink" x="0px" y="0px"
	 viewBox="0 0 64 64" style="enable-background:new 0 0 64 64;" xml:space="preserve">
<style type="text/css">
	.st0{fill:#263238;}
	.st1{fill:#FFD740;}
	.st2{fill:#FF5252;}
	.st3{fill:#40C4FF;}
	.st4{fill:#FFFFFF;}
	.st5{fill:#4DB6AC;}
	.st6{fill:#4FC3F7;}
</style>
<g>
	<g>
		<rect x="1.5" y="28.5" class="st5" width="12" height="7"/>
		<path class="st0" d="M13.5,36h-12C1.224,36,1,35.776,1,35.5v-7C1,28.224,1.224,28,1.5,28h12c0.276,0,0.5,0.224,0.5,0.5v7
			C14,35.776,13.776,36,13.5,36z M2,35h11v-6H2V35z"/>
	</g>
	<g>
		<path class="st0" d="M25.5,56.5h-12c-0.276,0-0.5-0.224-0.5-0.5v-7c0-0.276,0.224-0.5,0.5-0.5h12c0.276,0,0.5,0.224,0.5,0.5v7
			C26,56.276,25.776,56.5,25.5,56.5z M14,55.5h11v-6H14V55.5z"/>
	</g>
	<g>
		<path class="st0" d="M11.5,53h-4C7.224,53,7,52.776,7,52.5v-15C7,37.224,7.224,37,7.5,37S8,37.224,8,37.5V52h3.5
			c0.276,0,0.5,0.224,0.5,0.5S11.776,53,11.5,53z"/>
	</g>
	<g>
		<path class="st0" d="M25.5,15.5h-12c-0.276,0-0.5-0.224-0.5-0.5V8c0-0.276,0.224-0.5,0.5-0.5h12C25.776,7.5,26,7.724,26,8v7
			C26,15.276,25.776,15.5,25.5,15.5z M14,14.5h11v-6H14V14.5z"/>
	</g>
	<g>
		<path class="st0" d="M50.5,56.5h-12c-0.276,0-0.5-0.224-0.5-0.5v-7c0-0.276,0.224-0.5,0.5-0.5h12c0.276,0,0.5,0.224,0.5,0.5v7
			C51,56.276,50.776,56.5,50.5,56.5z M39,55.5h11v-6H39V55.5z"/>
	</g>
	<g>
		<path class="st0" d="M50.5,15.5h-12c-0.276,0-0.5-0.224-0.5-0.5V8c0-0.276,0.224-0.5,0.5-0.5h12C50.776,7.5,51,7.724,51,8v7
			C51,15.276,50.776,15.5,50.5,15.5z M39,14.5h11v-6H39V14.5z"/>
	</g>
	<g>
		<rect x="26.5" y="28.5" class="st1" width="12" height="7"/>
		<path class="st0" d="M38.5,36h-12c-0.276,0-0.5-0.224-0.5-0.5v-7c0-0.276,0.224-0.5,0.5-0.5h12c0.276,0,0.5,0.224,0.5,0.5v7
			C39,35.776,38.776,36,38.5,36z M27,35h11v-6H27V35z"/>
	</g>
	<g>
		<path class="st0" d="M7.5,29C7.224,29,7,28.776,7,28.5v-17C7,11.224,7.224,11,7.5,11h4c0.276,0,0.5,0.224,0.5,0.5
			S11.776,12,11.5,12H8v16.5C8,28.776,7.776,29,7.5,29z"/>
	</g>
	<g>
		<rect x="50.5" y="28.5" transform="matrix(-1 -1.224647e-16 1.224647e-16 -1 113 64)" class="st2" width="12" height="7"/>
		<path class="st0" d="M62.5,36h-12c-0.276,0-0.5-0.224-0.5-0.5v-7c0-0.276,0.224-0.5,0.5-0.5h12c0.276,0,0.5,0.224,0.5,0.5v7
			C63,35.776,62.776,36,62.5,36z M51,35h11v-6H51V35z"/>
	</g>
	<g>
		<path class="st0" d="M56.5,29c-0.276,0-0.5-0.224-0.5-0.5V12h-3.5c-0.276,0-0.5-0.224-0.5-0.5s0.224-0.5,0.5-0.5h4
			c0.276,0,0.5,0.224,0.5,0.5v17C57,28.776,56.776,29,56.5,29z"/>
	</g>
	<g>
		<path class="st0" d="M56.5,53h-4c-0.276,0-0.5-0.224-0.5-0.5s0.224-0.5,0.5-0.5H56V37.5c0-0.276,0.224-0.5,0.5-0.5
			s0.5,0.224,0.5,0.5v15C57,52.776,56.776,53,56.5,53z"/>
	</g>
	<g>
		<path class="st0" d="M24.5,32.5h-5c-0.276,0-0.5-0.224-0.5-0.5V15c0-0.276,0.224-0.5,0.5-0.5S20,14.724,20,15v16.5h4.5
			c0.276,0,0.5,0.224,0.5,0.5S24.776,32.5,24.5,32.5z"/>
	</g>
	<g>
		<path class="st0" d="M36.5,12h-9c-0.276,0-0.5-0.224-0.5-0.5s0.224-0.5,0.5-0.5h9c0.276,0,0.5,0.224,0.5,0.5S36.776,12,36.5,12z"
			/>
	</g>
	<g>
		<path class="st0" d="M36.5,53h-9c-0.276,0-0.5-0.224-0.5-0.5s0.224-0.5,0.5-0.5h9c0.276,0,0.5,0.224,0.5,0.5S36.776,53,36.5,53z"
			/>
	</g>
	<g>
		<path class="st0" d="M44.5,49.5c-0.276,0-0.5-0.224-0.5-0.5V32.5h-3.5c-0.276,0-0.5-0.224-0.5-0.5s0.224-0.5,0.5-0.5h4
			c0.276,0,0.5,0.224,0.5,0.5v17C45,49.276,44.776,49.5,44.5,49.5z"/>
	</g>
	<g>
		<path class="st0" d="M20.5,42.5h-2c-0.276,0-0.5-0.224-0.5-0.5s0.224-0.5,0.5-0.5h2c0.276,0,0.5,0.224,0.5,0.5
			S20.776,42.5,20.5,42.5z"/>
	</g>
	<g>
		<path class="st0" d="M33.5,42.5h-11c-0.276,0-0.5-0.224-0.5-0.5s0.224-0.5,0.5-0.5h11c0.276,0,0.5,0.224,0.5,0.5
			S33.776,42.5,33.5,42.5z"/>
	</g>
	<g>
		<path class="st0" d="M45.5,22.5h-2c-0.276,0-0.5-0.224-0.5-0.5s0.224-0.5,0.5-0.5h2c0.276,0,0.5,0.224,0.5,0.5
			S45.776,22.5,45.5,22.5z"/>
	</g>
	<g>
		<path class="st0" d="M41.5,22.5h-11c-0.276,0-0.5-0.224-0.5-0.5s0.224-0.5,0.5-0.5h11c0.276,0,0.5,0.224,0.5,0.5
			S41.776,22.5,41.5,22.5z"/>
	</g>
</g>
</svg>
