<?xml version="1.0" encoding="utf-8"?>
<!-- Generator: Adobe Illustrator 22.0.0, SVG Export Plug-In . SVG Version: 6.00 Build 0)  -->
<svg version="1.1" id="Icon_Set" xmlns="http://www.w3.org/2000/svg" xmlns:xlink="http://www.w3.org/1999/xlink" x="0px" y="0px"
	 viewBox="0 0 64 64" style="enable-background:new 0 0 64 64;" xml:space="preserve">
<style type="text/css">
	.st0{fill:#263238;}
	.st1{fill:#FFD740;}
	.st2{fill:#FF5252;}
	.st3{fill:#40C4FF;}
	.st4{fill:#FFFFFF;}
	.st5{fill:#4DB6AC;}
	.st6{fill:#4FC3F7;}
</style>
<g>
	<g>
		<path class="st0" d="M9.5,5.75h-4C5.224,5.75,5,5.526,5,5.25s0.224-0.5,0.5-0.5h4c0.276,0,0.5,0.224,0.5,0.5S9.776,5.75,9.5,5.75z
			"/>
	</g>
	<g>
		<path class="st0" d="M7.5,7.75C7.224,7.75,7,7.526,7,7.25v-4c0-0.276,0.224-0.5,0.5-0.5S8,2.974,8,3.25v4
			C8,7.526,7.776,7.75,7.5,7.75z"/>
	</g>
	<g>
		<path class="st0" d="M4.5,10.75h-4c-0.276,0-0.5-0.224-0.5-0.5s0.224-0.5,0.5-0.5h4c0.276,0,0.5,0.224,0.5,0.5
			S4.776,10.75,4.5,10.75z"/>
	</g>
	<g>
		<path class="st0" d="M2.5,12.75c-0.276,0-0.5-0.224-0.5-0.5v-4c0-0.276,0.224-0.5,0.5-0.5S3,7.974,3,8.25v4
			C3,12.526,2.776,12.75,2.5,12.75z"/>
	</g>
	<g>
		<path class="st0" d="M58.5,18.75h-51c-0.276,0-0.5-0.224-0.5-0.5v-5.5c0-1.654,1.346-3,3-3h46c1.654,0,3,1.346,3,3v5.5
			C59,18.526,58.776,18.75,58.5,18.75z M8,17.75h50v-5c0-1.103-0.897-2-2-2H10c-1.103,0-2,0.897-2,2V17.75z"/>
	</g>
	<g>
		<path class="st0" d="M11,16.25c-1.103,0-2-0.897-2-2s0.897-2,2-2s2,0.897,2,2S12.103,16.25,11,16.25z M11,13.25
			c-0.551,0-1,0.448-1,1s0.449,1,1,1s1-0.448,1-1S11.551,13.25,11,13.25z"/>
	</g>
	<g>
		<path class="st0" d="M16,16.25c-1.103,0-2-0.897-2-2s0.897-2,2-2s2,0.897,2,2S17.103,16.25,16,16.25z M16,13.25
			c-0.551,0-1,0.448-1,1s0.449,1,1,1s1-0.448,1-1S16.551,13.25,16,13.25z"/>
	</g>
	<g>
		<path class="st0" d="M13.5,58.75h-2c-0.276,0-0.5-0.224-0.5-0.5s0.224-0.5,0.5-0.5h2c0.276,0,0.5,0.224,0.5,0.5
			S13.776,58.75,13.5,58.75z"/>
	</g>
	<g>
		<path class="st0" d="M35.5,58.75h-20c-0.276,0-0.5-0.224-0.5-0.5s0.224-0.5,0.5-0.5h20c0.276,0,0.5,0.224,0.5,0.5
			S35.776,58.75,35.5,58.75z"/>
	</g>
	<g>
		<path class="st0" d="M54.5,6.75h-2c-0.276,0-0.5-0.224-0.5-0.5s0.224-0.5,0.5-0.5h2c0.276,0,0.5,0.224,0.5,0.5
			S54.776,6.75,54.5,6.75z"/>
	</g>
	<g>
		<path class="st0" d="M50.5,6.75h-20c-0.276,0-0.5-0.224-0.5-0.5s0.224-0.5,0.5-0.5h20c0.276,0,0.5,0.224,0.5,0.5
			S50.776,6.75,50.5,6.75z"/>
	</g>
	<g>
		<polygon class="st1" points="52.186,49.436 52.186,57.922 54.661,55.447 59.964,60.75 63.5,57.214 58.197,51.911 60.672,49.436 		
			"/>
		<path class="st0" d="M59.965,61.25c-0.128,0-0.256-0.049-0.354-0.146l-4.95-4.95l-2.121,2.122
			c-0.144,0.144-0.359,0.186-0.545,0.108c-0.187-0.077-0.309-0.26-0.309-0.462v-8.485c0-0.276,0.224-0.5,0.5-0.5h8.485
			c0.202,0,0.385,0.122,0.462,0.309s0.034,0.402-0.108,0.545l-2.122,2.121l4.95,4.95c0.195,0.195,0.195,0.512,0,0.707l-3.535,3.535
			C60.221,61.201,60.093,61.25,59.965,61.25z M54.661,54.946c0.133,0,0.26,0.053,0.354,0.146l4.95,4.95l2.828-2.828l-4.95-4.95
			c-0.094-0.094-0.146-0.221-0.146-0.354s0.053-0.26,0.146-0.354l1.622-1.621h-6.778v6.778l1.621-1.622
			C54.401,54.999,54.528,54.946,54.661,54.946z"/>
	</g>
	<g>
		<path class="st0" d="M51.187,54.75H10c-1.654,0-3-1.346-3-3v-33.5c0-0.276,0.224-0.5,0.5-0.5h51c0.276,0,0.5,0.224,0.5,0.5v29.187
			c0,0.276-0.224,0.5-0.5,0.5s-0.5-0.224-0.5-0.5V18.75H8v33c0,1.103,0.897,2,2,2h41.187c0.276,0,0.5,0.224,0.5,0.5
			S51.463,54.75,51.187,54.75z"/>
	</g>
	<g>
		<path class="st0" d="M44.452,37.75h-3.037c-1.047,0-2.032-0.558-2.572-1.456L37.3,33.721c-0.359-0.599-1.017-0.971-1.715-0.971
			h-5.169c-0.698,0-1.355,0.372-1.715,0.971l-1.544,2.572c-0.539,0.898-1.524,1.457-2.572,1.457h-3.037
			c-0.989,0-1.882-0.464-2.452-1.271c-0.569-0.809-0.706-1.807-0.373-2.737l2.622-7.341c0.779-2.184,2.861-3.65,5.179-3.65h12.953
			c2.318,0,4.4,1.467,5.18,3.65l2.621,7.341c0.333,0.931,0.197,1.928-0.372,2.736S45.441,37.75,44.452,37.75z M30.416,31.75h5.169
			c1.047,0,2.032,0.558,2.572,1.456l1.543,2.573c0.359,0.599,1.017,0.971,1.715,0.971h3.037c0.659,0,1.256-0.31,1.636-0.849
			c0.379-0.538,0.47-1.203,0.248-1.824l-2.621-7.341c-0.639-1.786-2.342-2.986-4.238-2.986H26.523c-1.897,0-3.6,1.2-4.238,2.986l0,0
			l-2.622,7.341c-0.222,0.621-0.131,1.286,0.249,1.825c0.38,0.539,0.976,0.848,1.635,0.848h3.037c0.698,0,1.355-0.372,1.715-0.971
			l1.544-2.572C28.382,32.309,29.368,31.75,30.416,31.75z M21.815,26.568h0.01H21.815z"/>
	</g>
	<g>
		<circle class="st3" cx="26.5" cy="28.25" r="2.5"/>
		<path class="st0" d="M26.5,31.25c-1.654,0-3-1.346-3-3s1.346-3,3-3s3,1.346,3,3S28.154,31.25,26.5,31.25z M26.5,26.25
			c-1.103,0-2,0.897-2,2s0.897,2,2,2s2-0.897,2-2S27.603,26.25,26.5,26.25z"/>
	</g>
	<g>
		<circle class="st3" cx="39.5" cy="28.25" r="2.5"/>
		<path class="st0" d="M39.5,31.25c-1.654,0-3-1.346-3-3s1.346-3,3-3s3,1.346,3,3S41.154,31.25,39.5,31.25z M39.5,26.25
			c-1.103,0-2,0.897-2,2s0.897,2,2,2s2-0.897,2-2S40.603,26.25,39.5,26.25z"/>
	</g>
	<g>
		<path class="st0" d="M34.5,28.75h-3c-0.276,0-0.5-0.224-0.5-0.5s0.224-0.5,0.5-0.5h3c0.276,0,0.5,0.224,0.5,0.5
			S34.776,28.75,34.5,28.75z"/>
	</g>
	<g>
		<path class="st2" d="M42.5,49.25h-19c-1.381,0-2.5-1.119-2.5-2.5v-1c0-1.381,1.119-2.5,2.5-2.5h19c1.381,0,2.5,1.119,2.5,2.5v1
			C45,48.131,43.881,49.25,42.5,49.25z"/>
		<path class="st0" d="M42.5,49.75h-19c-1.654,0-3-1.346-3-3v-1c0-1.654,1.346-3,3-3h19c1.654,0,3,1.346,3,3v1
			C45.5,48.404,44.154,49.75,42.5,49.75z M23.5,43.75c-1.103,0-2,0.897-2,2v1c0,1.103,0.897,2,2,2h19c1.103,0,2-0.897,2-2v-1
			c0-1.103-0.897-2-2-2H23.5z"/>
	</g>
</g>
</svg>
