<?xml version="1.0" encoding="utf-8"?>
<!-- Generator: Adobe Illustrator 22.0.0, SVG Export Plug-In . SVG Version: 6.00 Build 0)  -->
<svg version="1.1" id="Icon_Set" xmlns="http://www.w3.org/2000/svg" xmlns:xlink="http://www.w3.org/1999/xlink" x="0px" y="0px"
	 viewBox="0 0 64 64" style="enable-background:new 0 0 64 64;" xml:space="preserve">
<style type="text/css">
	.st0{fill:#263238;}
	.st1{fill:#FFD740;}
	.st2{fill:#FF5252;}
	.st3{fill:#40C4FF;}
	.st4{fill:#FFFFFF;}
	.st5{fill:#4DB6AC;}
	.st6{fill:#4FC3F7;}
</style>
<g>
	<g>
		<path class="st1" d="M36,4.5h-8c-0.552,0-1,0.448-1,1v4h10v-4C37,4.948,36.552,4.5,36,4.5z"/>
	</g>
	<g>
		<path class="st2" d="M14,41.5c0,9.941,8.059,18,18,18s18-8.059,18-18c0-2.485-0.508-4.849-1.42-7H15.42
			C14.508,36.651,14,39.015,14,41.5z"/>
	</g>
	<g>
		<path class="st0" d="M40,17H24c-0.827,0-1.5-0.673-1.5-1.5v-3c0-0.827,0.673-1.5,1.5-1.5h16c0.827,0,1.5,0.673,1.5,1.5v3
			C41.5,16.327,40.827,17,40,17z M24,12c-0.276,0-0.5,0.224-0.5,0.5v3c0,0.276,0.224,0.5,0.5,0.5h16c0.275,0,0.5-0.224,0.5-0.5v-3
			c0-0.276-0.225-0.5-0.5-0.5H24z"/>
	</g>
	<g>
		<path class="st0" d="M32,60c-10.201,0-18.5-8.299-18.5-18.5c0-7.693,4.808-14.602,12-17.303V16.5c0-0.276,0.224-0.5,0.5-0.5h12
			c0.276,0,0.5,0.224,0.5,0.5v7.697c7.192,2.702,12,9.61,12,17.303C50.5,51.701,42.201,60,32,60z M26.5,17v7.546
			c0,0.212-0.133,0.401-0.333,0.471C19.188,27.488,14.5,34.112,14.5,41.5C14.5,51.149,22.351,59,32,59s17.5-7.851,17.5-17.5
			c0-7.388-4.688-14.012-11.667-16.482c-0.199-0.07-0.333-0.259-0.333-0.471V17H26.5z"/>
	</g>
	<g>
		<path class="st0" d="M37,10c-0.276,0-0.5-0.224-0.5-0.5v-4C36.5,5.224,36.275,5,36,5h-8c-0.276,0-0.5,0.224-0.5,0.5v4
			c0,0.276-0.224,0.5-0.5,0.5s-0.5-0.224-0.5-0.5v-4C26.5,4.673,27.173,4,28,4h8c0.827,0,1.5,0.673,1.5,1.5v4
			C37.5,9.776,37.276,10,37,10z"/>
	</g>
	<g>
		<path class="st0" d="M32,57c-0.276,0-0.5-0.224-0.5-0.5S31.724,56,32,56c7.995,0,14.5-6.505,14.5-14.5c0-0.276,0.224-0.5,0.5-0.5
			s0.5,0.224,0.5,0.5C47.5,50.047,40.547,57,32,57z"/>
	</g>
	<g>
		<path class="st0" d="M2.5,22h-2C0.224,22,0,21.776,0,21.5S0.224,21,0.5,21h2C2.776,21,3,21.224,3,21.5S2.776,22,2.5,22z"/>
	</g>
	<g>
		<path class="st0" d="M15.5,22h-11C4.224,22,4,21.776,4,21.5S4.224,21,4.5,21h11c0.276,0,0.5,0.224,0.5,0.5S15.776,22,15.5,22z"/>
	</g>
	<g>
		<path class="st0" d="M63.5,22h-2c-0.276,0-0.5-0.224-0.5-0.5s0.224-0.5,0.5-0.5h2c0.276,0,0.5,0.224,0.5,0.5S63.776,22,63.5,22z"
			/>
	</g>
	<g>
		<path class="st0" d="M59.5,22h-11c-0.276,0-0.5-0.224-0.5-0.5s0.224-0.5,0.5-0.5h11c0.276,0,0.5,0.224,0.5,0.5S59.776,22,59.5,22z
			"/>
	</g>
	<g>
		<path class="st0" d="M58,8h-4c-0.276,0-0.5-0.224-0.5-0.5S53.724,7,54,7h4c0.276,0,0.5,0.224,0.5,0.5S58.276,8,58,8z"/>
	</g>
	<g>
		<path class="st0" d="M56,10c-0.276,0-0.5-0.224-0.5-0.5v-4C55.5,5.224,55.724,5,56,5s0.5,0.224,0.5,0.5v4
			C56.5,9.776,56.276,10,56,10z"/>
	</g>
	<g>
		<path class="st0" d="M52.5,13h-4c-0.276,0-0.5-0.224-0.5-0.5s0.224-0.5,0.5-0.5h4c0.276,0,0.5,0.224,0.5,0.5S52.776,13,52.5,13z"
			/>
	</g>
	<g>
		<path class="st0" d="M50.5,15c-0.276,0-0.5-0.224-0.5-0.5v-4c0-0.276,0.224-0.5,0.5-0.5s0.5,0.224,0.5,0.5v4
			C51,14.776,50.776,15,50.5,15z"/>
	</g>
</g>
</svg>
