<?xml version="1.0" encoding="utf-8"?>
<!-- Generator: Adobe Illustrator 22.0.0, SVG Export Plug-In . SVG Version: 6.00 Build 0)  -->
<svg version="1.1" id="Icon_Set" xmlns="http://www.w3.org/2000/svg" xmlns:xlink="http://www.w3.org/1999/xlink" x="0px" y="0px"
	 viewBox="0 0 64 64" style="enable-background:new 0 0 64 64;" xml:space="preserve">
<style type="text/css">
	.st0{fill:#263238;}
	.st1{fill:#FFD740;}
	.st2{fill:#FF5252;}
	.st3{fill:#40C4FF;}
	.st4{fill:#FFFFFF;}
	.st5{fill:#4DB6AC;}
	.st6{fill:#4FC3F7;}
</style>
<g>
	<g>
		<path class="st0" d="M2.5,25.5h-2C0.223,25.5,0,25.276,0,25s0.224-0.5,0.5-0.5h2C2.776,24.5,3,24.724,3,25S2.776,25.5,2.5,25.5z"
			/>
	</g>
	<g>
		<path class="st0" d="M10.5,25.5h-6C4.223,25.5,4,25.276,4,25s0.224-0.5,0.5-0.5h6c0.276,0,0.5,0.224,0.5,0.5
			S10.776,25.5,10.5,25.5z"/>
	</g>
	<g>
		<path class="st0" d="M63.5,25.5h-2c-0.276,0-0.5-0.224-0.5-0.5s0.224-0.5,0.5-0.5h2c0.276,0,0.5,0.224,0.5,0.5
			S63.776,25.5,63.5,25.5z"/>
	</g>
	<g>
		<path class="st0" d="M59.5,25.5h-6c-0.276,0-0.5-0.224-0.5-0.5s0.224-0.5,0.5-0.5h6c0.276,0,0.5,0.224,0.5,0.5
			S59.776,25.5,59.5,25.5z"/>
	</g>
	<g>
		<path class="st0" d="M52.5,62.5h-41c-1.654,0-3-1.346-3-3V34.23c0-1.346,0.492-2.642,1.384-3.648L15,24.81V16
			c0-0.276,0.224-0.5,0.5-0.5h7c0.276,0,0.5,0.224,0.5,0.5c0,4.962,4.038,9,9,9s9-4.038,9-9c0-0.276,0.224-0.5,0.5-0.5h7
			c0.276,0,0.5,0.224,0.5,0.5v8.81l5.116,5.772c0.893,1.007,1.384,2.302,1.384,3.648V59.5C55.5,61.154,54.154,62.5,52.5,62.5z
			 M16,16.5V25c0,0.122-0.045,0.24-0.126,0.332l-5.242,5.914C9.902,32.069,9.5,33.129,9.5,34.23V59.5c0,1.103,0.897,2,2,2h41
			c1.103,0,2-0.897,2-2V34.23c0-1.102-0.402-2.162-1.132-2.985l-5.242-5.914C48.044,25.24,48,25.122,48,25v-8.5h-6.012
			C41.726,21.783,37.346,26,32,26s-9.727-4.217-9.988-9.5H16z"/>
	</g>
	<g>
		<path class="st1" d="M16.5,25h5c0.552,0,1-0.448,1-1V10c0-0.552-0.448-1-1-1h-5c-0.552,0-1,0.448-1,1v14
			C15.5,24.552,15.947,25,16.5,25z"/>
		<path class="st0" d="M21.5,25.5h-5c-0.827,0-1.5-0.673-1.5-1.5V10c0-0.827,0.673-1.5,1.5-1.5h5c0.827,0,1.5,0.673,1.5,1.5v14
			C23,24.827,22.327,25.5,21.5,25.5z M16.5,9.5C16.224,9.5,16,9.724,16,10v14c0,0.276,0.224,0.5,0.5,0.5h5
			c0.276,0,0.5-0.224,0.5-0.5V10c0-0.276-0.224-0.5-0.5-0.5H16.5z"/>
	</g>
	<g>
		<path class="st1" d="M42.5,25h5c0.552,0,1-0.448,1-1V10c0-0.552-0.448-1-1-1h-5c-0.552,0-1,0.448-1,1v14
			C41.5,24.552,41.947,25,42.5,25z"/>
		<path class="st0" d="M47.5,25.5h-5c-0.827,0-1.5-0.673-1.5-1.5V10c0-0.827,0.673-1.5,1.5-1.5h5c0.827,0,1.5,0.673,1.5,1.5v14
			C49,24.827,48.327,25.5,47.5,25.5z M42.5,9.5C42.224,9.5,42,9.724,42,10v14c0,0.276,0.224,0.5,0.5,0.5h5
			c0.276,0,0.5-0.224,0.5-0.5V10c0-0.276-0.224-0.5-0.5-0.5H42.5z"/>
	</g>
	<g>
		<path class="st2" d="M19,56H8c-0.552,0-1-0.448-1-1V41c0-0.552,0.448-1,1-1h11c0.552,0,1,0.448,1,1v14C20,55.552,19.552,56,19,56z
			"/>
		<path class="st0" d="M19,56.5H8c-0.827,0-1.5-0.673-1.5-1.5V41c0-0.827,0.673-1.5,1.5-1.5h11c0.827,0,1.5,0.673,1.5,1.5v14
			C20.5,55.827,19.827,56.5,19,56.5z M8,40.5c-0.276,0-0.5,0.224-0.5,0.5v14c0,0.276,0.224,0.5,0.5,0.5h11
			c0.276,0,0.5-0.224,0.5-0.5V41c0-0.276-0.224-0.5-0.5-0.5H8z"/>
	</g>
	<g>
		<path class="st0" d="M22.5,16.5h-7c-0.276,0-0.5-0.224-0.5-0.5v-3c0-0.276,0.224-0.5,0.5-0.5h7c0.276,0,0.5,0.224,0.5,0.5v3
			C23,16.276,22.776,16.5,22.5,16.5z M16,15.5h6v-2h-6V15.5z"/>
	</g>
	<g>
		<path class="st0" d="M48.5,16.5h-7c-0.276,0-0.5-0.224-0.5-0.5v-3c0-0.276,0.224-0.5,0.5-0.5h7c0.276,0,0.5,0.224,0.5,0.5v3
			C49,16.276,48.776,16.5,48.5,16.5z M42,15.5h6v-2h-6V15.5z"/>
	</g>
	<g>
		<path class="st0" d="M16.5,4.5h-4C12.223,4.5,12,4.276,12,4s0.224-0.5,0.5-0.5h4C16.776,3.5,17,3.724,17,4S16.776,4.5,16.5,4.5z"
			/>
	</g>
	<g>
		<path class="st0" d="M14.5,6.5L14.5,6.5C14.223,6.5,14,6.276,14,6l0-4c0-0.276,0.224-0.5,0.5-0.5l0,0C14.776,1.5,15,1.724,15,2
			l0,4C15,6.276,14.775,6.5,14.5,6.5z"/>
	</g>
	<g>
		<path class="st0" d="M11.5,9.5h-4C7.223,9.5,7,9.276,7,9s0.224-0.5,0.5-0.5h4C11.776,8.5,12,8.724,12,9S11.776,9.5,11.5,9.5z"/>
	</g>
	<g>
		<path class="st0" d="M9.5,11.5C9.223,11.5,9,11.276,9,11V7c0-0.276,0.224-0.5,0.5-0.5S10,6.724,10,7v4
			C10,11.276,9.776,11.5,9.5,11.5z"/>
	</g>
	<g>
		<path class="st0" d="M20,44.5H7c-0.276,0-0.5-0.224-0.5-0.5s0.224-0.5,0.5-0.5h13c0.276,0,0.5,0.224,0.5,0.5S20.276,44.5,20,44.5z
			"/>
	</g>
	<g>
		<path class="st2" d="M56,56H45c-0.552,0-1-0.448-1-1V41c0-0.552,0.448-1,1-1h11c0.552,0,1,0.448,1,1v14C57,55.552,56.552,56,56,56
			z"/>
		<path class="st0" d="M56,56.5H45c-0.827,0-1.5-0.673-1.5-1.5V41c0-0.827,0.673-1.5,1.5-1.5h11c0.827,0,1.5,0.673,1.5,1.5v14
			C57.5,55.827,56.827,56.5,56,56.5z M45,40.5c-0.276,0-0.5,0.224-0.5,0.5v14c0,0.276,0.224,0.5,0.5,0.5h11
			c0.276,0,0.5-0.224,0.5-0.5V41c0-0.276-0.224-0.5-0.5-0.5H45z"/>
	</g>
	<g>
		<path class="st0" d="M57,44.5H44c-0.276,0-0.5-0.224-0.5-0.5s0.224-0.5,0.5-0.5h13c0.276,0,0.5,0.224,0.5,0.5S57.276,44.5,57,44.5
			z"/>
	</g>
	<g>
		<path class="st0" d="M32,62.5c-0.276,0-0.5-0.224-0.5-0.5V25.5c0-0.276,0.224-0.5,0.5-0.5s0.5,0.224,0.5,0.5V62
			C32.5,62.276,32.276,62.5,32,62.5z"/>
	</g>
</g>
</svg>
