<?xml version="1.0" encoding="utf-8"?>
<!-- Generator: Adobe Illustrator 22.0.0, SVG Export Plug-In . SVG Version: 6.00 Build 0)  -->
<svg version="1.1" id="Icon_Set" xmlns="http://www.w3.org/2000/svg" xmlns:xlink="http://www.w3.org/1999/xlink" x="0px" y="0px"
	 viewBox="0 0 64 64" style="enable-background:new 0 0 64 64;" xml:space="preserve">
<style type="text/css">
	.st0{fill:#263238;}
	.st1{fill:#FFD740;}
	.st2{fill:#FF5252;}
	.st3{fill:#40C4FF;}
	.st4{fill:#FFFFFF;}
	.st5{fill:#4DB6AC;}
	.st6{fill:#4FC3F7;}
</style>
<g>
	<g>
		<path class="st1" d="M51,30.938h-1.5V30c0-0.552-0.448-1-1-1H47c-0.552,0-1,0.448-1,1v1.5H34v3h12V36c0,0.552,0.448,1,1,1h1.5
			c0.552,0,1-0.448,1-1v-1.062H51c0.552,0,1-0.448,1-1v-2C52,31.385,51.552,30.938,51,30.938z"/>
	</g>
	<g>
		<path class="st0" d="M7.5,56.5h-2C5.224,56.5,5,56.276,5,56s0.224-0.5,0.5-0.5h2C7.776,55.5,8,55.724,8,56S7.776,56.5,7.5,56.5z"
			/>
	</g>
	<g>
		<path class="st0" d="M24.5,56.5h-15C9.224,56.5,9,56.276,9,56s0.224-0.5,0.5-0.5h15c0.276,0,0.5,0.224,0.5,0.5
			S24.776,56.5,24.5,56.5z"/>
	</g>
	<g>
		<path class="st0" d="M53.5,61.5h-1c-0.276,0-0.5-0.224-0.5-0.5v-8c0-0.276,0.224-0.5,0.5-0.5S53,52.724,53,53v7.5h0.5
			c2.481,0,4.5-2.019,4.5-4.5v-3.5c0-0.276,0.224-0.5,0.5-0.5s0.5,0.224,0.5,0.5V56C59,59.033,56.532,61.5,53.5,61.5z"/>
	</g>
	<g>
		<path class="st0" d="M30,5.5h-4c-0.276,0-0.5-0.224-0.5-0.5s0.224-0.5,0.5-0.5h4c0.276,0,0.5,0.224,0.5,0.5S30.276,5.5,30,5.5z"/>
	</g>
	<g>
		<path class="st0" d="M28,7.5c-0.276,0-0.5-0.224-0.5-0.5V3c0-0.276,0.224-0.5,0.5-0.5s0.5,0.224,0.5,0.5v4
			C28.5,7.276,28.276,7.5,28,7.5z"/>
	</g>
	<g>
		<path class="st0" d="M25,10.5h-4c-0.276,0-0.5-0.224-0.5-0.5s0.224-0.5,0.5-0.5h4c0.276,0,0.5,0.224,0.5,0.5S25.276,10.5,25,10.5z
			"/>
	</g>
	<g>
		<path class="st0" d="M23,12.5c-0.276,0-0.5-0.224-0.5-0.5V8c0-0.276,0.224-0.5,0.5-0.5s0.5,0.224,0.5,0.5v4
			C23.5,12.276,23.276,12.5,23,12.5z"/>
	</g>
	<g>
		<path class="st0" d="M58.5,12.5h-2c-0.276,0-0.5-0.224-0.5-0.5s0.224-0.5,0.5-0.5h2c0.276,0,0.5,0.224,0.5,0.5
			S58.776,12.5,58.5,12.5z"/>
	</g>
	<g>
		<path class="st0" d="M54.5,12.5h-15c-0.276,0-0.5-0.224-0.5-0.5s0.224-0.5,0.5-0.5h15c0.276,0,0.5,0.224,0.5,0.5
			S54.776,12.5,54.5,12.5z"/>
	</g>
	<g>
		<path class="st0" d="M58.5,56.5c-0.276,0-0.5-0.224-0.5-0.5c0-2.481-2.019-4.5-4.5-4.5L10.5,51.498
			c-3.031,0-5.498-2.465-5.5-5.497C5,46,5,45.999,5,45.999c0,0,0-0.001,0-0.001V12c0-3.033,2.467-5.5,5.5-5.5H14
			c0.276,0,0.5,0.224,0.5,0.5v34c0,0.276-0.224,0.5-0.5,0.5h-3.5c-2.481,0-4.499,2.018-4.5,4.499c0.001,2.48,2.019,4.499,4.5,4.499
			L53.5,50.5c1.858,0,3.503,0.926,4.5,2.341V20c0-1.378-1.122-2.5-2.5-2.5H16c-0.276,0-0.5-0.224-0.5-0.5s0.224-0.5,0.5-0.5h39.5
			c1.93,0,3.5,1.57,3.5,3.5v36C59,56.276,58.776,56.5,58.5,56.5z M10.5,7.5C8.019,7.5,6,9.519,6,12v30.841
			c0.996-1.415,2.642-2.341,4.5-2.341h3v-33H10.5z"/>
	</g>
	<g>
		<path class="st0" d="M48.5,37.5H47c-0.827,0-1.5-0.673-1.5-1.5v-1H34c-0.276,0-0.5-0.224-0.5-0.5S33.724,34,34,34h12
			c0.276,0,0.5,0.224,0.5,0.5V36c0,0.276,0.224,0.5,0.5,0.5h1.5c0.276,0,0.5-0.224,0.5-0.5v-1.062c0-0.276,0.224-0.5,0.5-0.5H51
			c0.276,0,0.5-0.224,0.5-0.5v-2c0-0.276-0.224-0.5-0.5-0.5h-1.5c-0.276,0-0.5-0.224-0.5-0.5V30c0-0.276-0.224-0.5-0.5-0.5H47
			c-0.276,0-0.5,0.224-0.5,0.5v1.5c0,0.276-0.224,0.5-0.5,0.5H34c-0.276,0-0.5-0.224-0.5-0.5S33.724,31,34,31h11.5v-1
			c0-0.827,0.673-1.5,1.5-1.5h1.5c0.827,0,1.5,0.673,1.5,1.5v0.438h1c0.827,0,1.5,0.673,1.5,1.5v2c0,0.827-0.673,1.5-1.5,1.5h-1V36
			C50,36.827,49.327,37.5,48.5,37.5z"/>
	</g>
	<g>
		<path class="st0" d="M35.5,39.5h-5c-0.147,0-0.287-0.064-0.381-0.177c-0.095-0.112-0.136-0.26-0.112-0.405l0.712-4.272
			C29.951,33.983,29.5,33.016,29.5,32c0-1.93,1.57-3.5,3.5-3.5c0.688,0,1.356,0.202,1.931,0.583c0.23,0.152,0.293,0.463,0.14,0.693
			c-0.152,0.229-0.462,0.293-0.693,0.14C33.968,29.644,33.491,29.5,33,29.5c-1.378,0-2.5,1.122-2.5,2.5
			c0,0.8,0.393,1.559,1.052,2.03c0.155,0.111,0.233,0.301,0.202,0.489L31.09,38.5h3.819l-0.319-1.918
			c-0.045-0.272,0.139-0.53,0.411-0.575c0.273-0.047,0.53,0.139,0.575,0.411l0.417,2.5c0.024,0.145-0.017,0.293-0.112,0.405
			C35.787,39.436,35.647,39.5,35.5,39.5z"/>
	</g>
	<g>
		<path class="st2" d="M37.473,38.671c0.097,0.58-0.066,1.173-0.447,1.622C36.646,40.741,36.088,41,35.5,41h-5
			c-0.588,0-1.146-0.259-1.526-0.708c-0.38-0.448-0.543-1.042-0.447-1.622l0.589-3.532C28.403,34.258,28,33.151,28,32
			c0-2.757,2.243-5,5-5c0.983,0,1.937,0.288,2.759,0.833c0.58,0.385,0.894,1.02,0.894,1.667H42v-4c0-1.381-1.119-2.5-2.5-2.5h-13
			c-1.381,0-2.5,1.119-2.5,2.5v17c0,1.381,1.119,2.5,2.5,2.5h13c1.381,0,2.5-1.119,2.5-2.5v-6h-4.889L37.473,38.671z"/>
	</g>
	<g>
		<path class="st0" d="M39.5,45.5h-13c-1.654,0-3-1.346-3-3v-17c0-1.654,1.346-3,3-3h13c1.654,0,3,1.346,3,3v4
			c0,0.276-0.224,0.5-0.5,0.5s-0.5-0.224-0.5-0.5v-4c0-1.103-0.897-2-2-2h-13c-1.103,0-2,0.897-2,2v17c0,1.103,0.897,2,2,2h13
			c1.103,0,2-0.897,2-2v-6c0-0.276,0.224-0.5,0.5-0.5s0.5,0.224,0.5,0.5v6C42.5,44.154,41.154,45.5,39.5,45.5z"/>
	</g>
</g>
</svg>
