<?xml version="1.0" encoding="utf-8"?>
<!-- Generator: Adobe Illustrator 22.0.0, SVG Export Plug-In . SVG Version: 6.00 Build 0)  -->
<svg version="1.1" id="Icon_Set" xmlns="http://www.w3.org/2000/svg" xmlns:xlink="http://www.w3.org/1999/xlink" x="0px" y="0px"
	 viewBox="0 0 64 64" style="enable-background:new 0 0 64 64;" xml:space="preserve">
<style type="text/css">
	.st0{fill:#263238;}
	.st1{fill:#FFD740;}
	.st2{fill:#FF5252;}
	.st3{fill:#40C4FF;}
	.st4{fill:#FFFFFF;}
	.st5{fill:#4DB6AC;}
	.st6{fill:#4FC3F7;}
</style>
<g>
	<g>
		<polygon class="st3" points="46,18.5 38,11.5 26,11.5 18,18.5 18,45.5 26,52.5 38,52.5 46,45.5 		"/>
		<path class="st0" d="M38,53H26c-0.121,0-0.238-0.044-0.329-0.124l-8-7C17.562,45.781,17.5,45.645,17.5,45.5v-27
			c0-0.145,0.062-0.281,0.171-0.376l8-7C25.762,11.044,25.879,11,26,11h12c0.121,0,0.238,0.044,0.329,0.124l8,7
			c0.109,0.095,0.171,0.231,0.171,0.376v27c0,0.145-0.062,0.281-0.171,0.376l-8,7C38.238,52.956,38.121,53,38,53z M26.188,52h11.624
			l7.688-6.727V18.727L37.812,12H26.188L18.5,18.727v26.547L26.188,52z"/>
	</g>
	<g>
		<path class="st0" d="M26,53c-0.276,0-0.5-0.224-0.5-0.5v-41c0-0.276,0.224-0.5,0.5-0.5s0.5,0.224,0.5,0.5v41
			C26.5,52.776,26.276,53,26,53z"/>
	</g>
	<g>
		<path class="st0" d="M38,53c-0.276,0-0.5-0.224-0.5-0.5v-41c0-0.276,0.224-0.5,0.5-0.5s0.5,0.224,0.5,0.5v41
			C38.5,52.776,38.276,53,38,53z"/>
	</g>
	<g>
		<path class="st0" d="M46,19H18c-0.276,0-0.5-0.224-0.5-0.5S17.724,18,18,18h28c0.276,0,0.5,0.224,0.5,0.5S46.276,19,46,19z"/>
	</g>
	<g>
		<path class="st0" d="M46,46H18c-0.276,0-0.5-0.224-0.5-0.5S17.724,45,18,45h28c0.276,0,0.5,0.224,0.5,0.5S46.276,46,46,46z"/>
	</g>
	<g>
		<path class="st0" d="M17,60.5c-0.215,0-0.406-0.138-0.474-0.342L15.973,58.5c-0.231-0.692-0.782-1.243-1.473-1.473l-1.659-0.553
			C12.638,56.406,12.5,56.215,12.5,56s0.138-0.406,0.342-0.475l1.658-0.553c0.691-0.229,1.242-0.78,1.473-1.473l0.553-1.658
			c0.136-0.408,0.812-0.408,0.948,0l0.553,1.658c0.231,0.692,0.782,1.243,1.473,1.473l1.659,0.553
			C21.362,55.594,21.5,55.785,21.5,56s-0.138,0.406-0.342,0.475L19.5,57.027c-0.691,0.229-1.242,0.78-1.473,1.473l-0.553,1.658
			C17.406,60.362,17.215,60.5,17,60.5z M14.581,56l0.235,0.078c0.988,0.329,1.775,1.116,2.105,2.105L17,58.419l0.079-0.235
			c0.33-0.989,1.117-1.776,2.105-2.105L19.419,56l-0.235-0.078c-0.988-0.329-1.775-1.116-2.105-2.105L17,53.581l-0.079,0.235
			c-0.33,0.989-1.117,1.776-2.105,2.105L14.581,56z"/>
	</g>
	<g>
		<path class="st0" d="M47,12.5c-0.215,0-0.406-0.138-0.474-0.342L45.973,10.5c-0.231-0.692-0.782-1.243-1.473-1.473l-1.659-0.553
			C42.638,8.406,42.5,8.215,42.5,8s0.138-0.406,0.342-0.475L44.5,6.973c0.691-0.229,1.242-0.78,1.473-1.473l0.553-1.658
			c0.136-0.408,0.812-0.408,0.948,0L48.027,5.5c0.231,0.692,0.782,1.243,1.473,1.473l1.659,0.553C51.362,7.594,51.5,7.785,51.5,8
			s-0.138,0.406-0.342,0.475L49.5,9.027c-0.691,0.229-1.242,0.78-1.473,1.473l-0.553,1.658C47.406,12.362,47.215,12.5,47,12.5z
			 M44.581,8l0.235,0.078c0.988,0.329,1.775,1.116,2.105,2.105L47,10.419l0.079-0.235c0.33-0.989,1.117-1.776,2.105-2.105L49.419,8
			l-0.235-0.078c-0.988-0.329-1.775-1.116-2.105-2.105L47,5.581l-0.079,0.235c-0.33,0.989-1.117,1.776-2.105,2.105L44.581,8z"/>
	</g>
	<g>
		<path class="st0" d="M59.5,35h-9c-0.276,0-0.5-0.224-0.5-0.5s0.224-0.5,0.5-0.5h9c0.276,0,0.5,0.224,0.5,0.5S59.776,35,59.5,35z"
			/>
	</g>
	<g>
		<path class="st0" d="M63.5,35h-2c-0.276,0-0.5-0.224-0.5-0.5s0.224-0.5,0.5-0.5h2c0.276,0,0.5,0.224,0.5,0.5S63.776,35,63.5,35z"
			/>
	</g>
	<g>
		<path class="st0" d="M13.5,35h-9C4.224,35,4,34.776,4,34.5S4.224,34,4.5,34h9c0.276,0,0.5,0.224,0.5,0.5S13.776,35,13.5,35z"/>
	</g>
	<g>
		<path class="st0" d="M2.5,35h-2C0.224,35,0,34.776,0,34.5S0.224,34,0.5,34h2C2.776,34,3,34.224,3,34.5S2.776,35,2.5,35z"/>
	</g>
</g>
</svg>
