<?xml version="1.0" encoding="utf-8"?>
<!-- Generator: Adobe Illustrator 22.0.0, SVG Export Plug-In . SVG Version: 6.00 Build 0)  -->
<svg version="1.1" id="Icon_Set" xmlns="http://www.w3.org/2000/svg" xmlns:xlink="http://www.w3.org/1999/xlink" x="0px" y="0px"
	 viewBox="0 0 64 64" style="enable-background:new 0 0 64 64;" xml:space="preserve">
<style type="text/css">
	.st0{fill:#263238;}
	.st1{fill:#FFD740;}
	.st2{fill:#FF5252;}
	.st3{fill:#40C4FF;}
	.st4{fill:#FFFFFF;}
	.st5{fill:#4DB6AC;}
	.st6{fill:#4FC3F7;}
</style>
<g>
	<g>
		<path class="st0" d="M2.5,54.5h-2C0.224,54.5,0,54.276,0,54s0.224-0.5,0.5-0.5h2C2.776,53.5,3,53.724,3,54S2.776,54.5,2.5,54.5z"
			/>
	</g>
	<g>
		<path class="st0" d="M15.5,54.5h-11C4.224,54.5,4,54.276,4,54s0.224-0.5,0.5-0.5h11c0.276,0,0.5,0.224,0.5,0.5
			S15.776,54.5,15.5,54.5z"/>
	</g>
	<g>
		<path class="st0" d="M63.5,54.5h-2c-0.276,0-0.5-0.224-0.5-0.5s0.224-0.5,0.5-0.5h2c0.276,0,0.5,0.224,0.5,0.5
			S63.776,54.5,63.5,54.5z"/>
	</g>
	<g>
		<path class="st0" d="M59.5,54.5h-11c-0.276,0-0.5-0.224-0.5-0.5s0.224-0.5,0.5-0.5h11c0.276,0,0.5,0.224,0.5,0.5
			S59.776,54.5,59.5,54.5z"/>
	</g>
	<g>
		<polygon class="st1" points="36,38 28,38 28,9 32,4 36,9 		"/>
		<path class="st0" d="M36,38.5h-8c-0.276,0-0.5-0.224-0.5-0.5V9c0-0.114,0.039-0.224,0.109-0.312l4-5
			c0.19-0.237,0.591-0.237,0.781,0l4,5C36.461,8.776,36.5,8.886,36.5,9v29C36.5,38.276,36.276,38.5,36,38.5z M28.5,37.5h7V9.175
			L32,4.8l-3.5,4.375V37.5z"/>
	</g>
	<g>
		<path class="st3" d="M43.5,13.968H38v3h2.937c1.01,3.381,3.682,6.054,7.063,7.063v13.244c0,5.937-3.163,11.523-8.253,14.578v0
			L32,56.501l-7.747-4.647C19.163,48.799,16,43.213,16,37.276V24.032c3.381-1.01,6.054-3.682,7.063-7.063H26v-3h-5.5
			c0,4.142-3.358,7.5-7.5,7.5v15.808c0,7.025,3.686,13.535,9.71,17.15L32,60l9.29-5.574C47.314,50.812,51,44.301,51,37.276V21.468
			C46.858,21.468,43.5,18.11,43.5,13.968z"/>
	</g>
	<g>
		<path class="st2" d="M38.845,41H25.155C24.517,41,24,40.483,24,39.845v-0.691C24,38.517,24.517,38,25.155,38h13.691
			C39.483,38,40,38.517,40,39.155v0.691C40,40.483,39.483,41,38.845,41z"/>
		<path class="st0" d="M38.845,41.5h-13.69c-0.913,0-1.655-0.742-1.655-1.655v-0.69c0-0.913,0.742-1.655,1.655-1.655h13.69
			c0.913,0,1.655,0.742,1.655,1.655v0.69C40.5,40.758,39.758,41.5,38.845,41.5z M25.155,38.5c-0.361,0-0.655,0.294-0.655,0.655v0.69
			c0,0.361,0.294,0.655,0.655,0.655h13.69c0.361,0,0.655-0.294,0.655-0.655v-0.69c0-0.361-0.294-0.655-0.655-0.655H25.155z"/>
	</g>
	<g>
		<path class="st0" d="M32,52c-1.654,0-3-1.346-3-3v-8c0-0.276,0.224-0.5,0.5-0.5h5c0.276,0,0.5,0.224,0.5,0.5v8
			C35,50.654,33.654,52,32,52z M30,41.5V49c0,1.103,0.897,2,2,2s2-0.897,2-2v-7.5H30z"/>
	</g>
	<g>
		<path class="st0" d="M32,57.001c-0.089,0-0.178-0.024-0.257-0.071l-7.747-4.647c-5.241-3.145-8.496-8.895-8.496-15.006V24.032
			c0-0.221,0.145-0.416,0.357-0.479c3.244-0.969,5.759-3.484,6.728-6.728c0.063-0.212,0.258-0.357,0.479-0.357H26
			c0.276,0,0.5,0.224,0.5,0.5s-0.224,0.5-0.5,0.5h-2.571c-1.099,3.277-3.652,5.83-6.929,6.929v12.879
			c0,5.763,3.069,11.184,8.011,14.149L32,55.918l7.489-4.494c4.941-2.964,8.011-8.386,8.011-14.148V24.397
			c-3.277-1.099-5.83-3.652-6.929-6.929H38c-0.276,0-0.5-0.224-0.5-0.5s0.224-0.5,0.5-0.5h2.937c0.221,0,0.416,0.145,0.479,0.357
			c0.969,3.244,3.484,5.759,6.728,6.728c0.212,0.063,0.357,0.258,0.357,0.479v13.245c0,6.112-3.255,11.862-8.496,15.006
			l-7.747,4.647C32.178,56.978,32.089,57.001,32,57.001z"/>
	</g>
	<g>
		<path class="st0" d="M32,60.5c-0.089,0-0.178-0.024-0.257-0.071l-9.29-5.574C16.313,51.171,12.5,44.436,12.5,37.276V21.468
			c0-0.276,0.224-0.5,0.5-0.5c3.86,0,7-3.14,7-7c0-0.276,0.224-0.5,0.5-0.5H26c0.276,0,0.5,0.224,0.5,0.5s-0.224,0.5-0.5,0.5h-5.016
			c-0.249,4.014-3.471,7.236-7.484,7.484v15.324c0,6.81,3.627,13.217,9.467,16.721L32,59.417l9.033-5.419
			c5.84-3.504,9.467-9.911,9.467-16.721V21.953c-4.014-0.249-7.236-3.471-7.484-7.484H38c-0.276,0-0.5-0.224-0.5-0.5
			s0.224-0.5,0.5-0.5h5.5c0.276,0,0.5,0.224,0.5,0.5c0,3.86,3.14,7,7,7c0.276,0,0.5,0.224,0.5,0.5v15.808
			c0,7.159-3.813,13.895-9.953,17.579l-9.29,5.574C32.178,60.476,32.089,60.5,32,60.5z"/>
	</g>
	<g>
		<path class="st0" d="M34.5,49h-5c-0.276,0-0.5-0.224-0.5-0.5s0.224-0.5,0.5-0.5h5c0.276,0,0.5,0.224,0.5,0.5S34.776,49,34.5,49z"
			/>
	</g>
	<g>
		<path class="st0" d="M45.5,6.5h-4C41.224,6.5,41,6.276,41,6s0.224-0.5,0.5-0.5h4C45.776,5.5,46,5.724,46,6S45.776,6.5,45.5,6.5z"
			/>
	</g>
	<g>
		<path class="st0" d="M43.5,8.5C43.224,8.5,43,8.276,43,8V4c0-0.276,0.224-0.5,0.5-0.5S44,3.724,44,4v4
			C44,8.276,43.776,8.5,43.5,8.5z"/>
	</g>
	<g>
		<path class="st0" d="M51,11.5h-4c-0.276,0-0.5-0.224-0.5-0.5s0.224-0.5,0.5-0.5h4c0.276,0,0.5,0.224,0.5,0.5S51.276,11.5,51,11.5z
			"/>
	</g>
	<g>
		<path class="st0" d="M49,13.5c-0.276,0-0.5-0.224-0.5-0.5V9c0-0.276,0.224-0.5,0.5-0.5s0.5,0.224,0.5,0.5v4
			C49.5,13.276,49.276,13.5,49,13.5z"/>
	</g>
	<g>
		<path class="st0" d="M32,36.5c-0.276,0-0.5-0.224-0.5-0.5V7c0-0.276,0.224-0.5,0.5-0.5s0.5,0.224,0.5,0.5v29
			C32.5,36.276,32.276,36.5,32,36.5z"/>
	</g>
</g>
</svg>
