<?xml version="1.0" encoding="utf-8"?>
<!-- Generator: Adobe Illustrator 22.0.0, SVG Export Plug-In . SVG Version: 6.00 Build 0)  -->
<svg version="1.1" id="Icon_Set" xmlns="http://www.w3.org/2000/svg" xmlns:xlink="http://www.w3.org/1999/xlink" x="0px" y="0px"
	 viewBox="0 0 64 64" style="enable-background:new 0 0 64 64;" xml:space="preserve">
<style type="text/css">
	.st0{fill:#263238;}
	.st1{fill:#FFD740;}
	.st2{fill:#FF5252;}
	.st3{fill:#40C4FF;}
	.st4{fill:#FFFFFF;}
	.st5{fill:#4DB6AC;}
	.st6{fill:#4FC3F7;}
</style>
<g>
	<g>
		<path class="st0" d="M54,7.5h-4c-0.276,0-0.5-0.224-0.5-0.5s0.224-0.5,0.5-0.5h4c0.276,0,0.5,0.224,0.5,0.5S54.276,7.5,54,7.5z"/>
	</g>
	<g>
		<path class="st0" d="M52,9.5c-0.276,0-0.5-0.224-0.5-0.5V5c0-0.276,0.224-0.5,0.5-0.5s0.5,0.224,0.5,0.5v4
			C52.5,9.276,52.276,9.5,52,9.5z"/>
	</g>
	<g>
		<path class="st0" d="M59,12.5h-4c-0.276,0-0.5-0.224-0.5-0.5s0.224-0.5,0.5-0.5h4c0.276,0,0.5,0.224,0.5,0.5S59.276,12.5,59,12.5z
			"/>
	</g>
	<g>
		<path class="st0" d="M57,14.5c-0.276,0-0.5-0.224-0.5-0.5v-4c0-0.276,0.224-0.5,0.5-0.5s0.5,0.224,0.5,0.5v4
			C57.5,14.276,57.276,14.5,57,14.5z"/>
	</g>
	<g>
		<path class="st0" d="M32,21c-0.276,0-0.5-0.224-0.5-0.5v-3c0-0.276,0.224-0.5,0.5-0.5s0.5,0.224,0.5,0.5v3
			C32.5,20.776,32.276,21,32,21z"/>
	</g>
	<g>
		<path class="st0" d="M32,47c-0.276,0-0.5-0.224-0.5-0.5v-3c0-0.276,0.224-0.5,0.5-0.5s0.5,0.224,0.5,0.5v3
			C32.5,46.776,32.276,47,32,47z"/>
	</g>
	<g>
		<path class="st0" d="M46.5,32.5h-3c-0.276,0-0.5-0.224-0.5-0.5s0.224-0.5,0.5-0.5h3c0.276,0,0.5,0.224,0.5,0.5
			S46.776,32.5,46.5,32.5z"/>
	</g>
	<g>
		<path class="st0" d="M20.5,32.5h-3c-0.276,0-0.5-0.224-0.5-0.5s0.224-0.5,0.5-0.5h3c0.276,0,0.5,0.224,0.5,0.5
			S20.776,32.5,20.5,32.5z"/>
	</g>
	<g>
		<circle class="st2" cx="32" cy="32" r="4"/>
		<path class="st0" d="M32,36.5c-2.481,0-4.5-2.019-4.5-4.5s2.019-4.5,4.5-4.5s4.5,2.019,4.5,4.5S34.481,36.5,32,36.5z M32,28.5
			c-1.93,0-3.5,1.57-3.5,3.5s1.57,3.5,3.5,3.5s3.5-1.57,3.5-3.5S33.93,28.5,32,28.5z"/>
	</g>
	<g>
		<path class="st1" d="M32,14.5c-0.828,0-1.5-0.671-1.5-1.5V5.5C30.5,4.671,31.172,4,32,4s1.5,0.671,1.5,1.5V13
			C33.5,13.829,32.828,14.5,32,14.5z"/>
		<path class="st0" d="M32,15c-1.103,0-2-0.897-2-2V5.5c0-1.103,0.897-2,2-2s2,0.897,2,2V13C34,14.103,33.103,15,32,15z M32,4.5
			c-0.552,0-1,0.449-1,1V13c0,0.551,0.448,1,1,1s1-0.449,1-1V5.5C33,4.949,32.552,4.5,32,4.5z"/>
	</g>
	<g>
		<path class="st1" d="M32,60c-0.828,0-1.5-0.671-1.5-1.5V51c0-0.829,0.672-1.5,1.5-1.5s1.5,0.671,1.5,1.5v7.5
			C33.5,59.329,32.828,60,32,60z"/>
		<path class="st0" d="M32,60.5c-1.103,0-2-0.897-2-2V51c0-1.103,0.897-2,2-2s2,0.897,2,2v7.5C34,59.603,33.103,60.5,32,60.5z
			 M32,50c-0.552,0-1,0.449-1,1v7.5c0,0.551,0.448,1,1,1s1-0.449,1-1V51C33,50.449,32.552,50,32,50z"/>
	</g>
	<g>
		<path class="st1" d="M49.5,32c0-0.828,0.671-1.5,1.5-1.5h7.5c0.829,0,1.5,0.672,1.5,1.5s-0.671,1.5-1.5,1.5H51
			C50.171,33.5,49.5,32.828,49.5,32z"/>
		<path class="st0" d="M58.5,34H51c-1.103,0-2-0.897-2-2s0.897-2,2-2h7.5c1.103,0,2,0.897,2,2S59.603,34,58.5,34z M51,31
			c-0.552,0-1,0.449-1,1s0.448,1,1,1h7.5c0.552,0,1-0.449,1-1s-0.448-1-1-1H51z"/>
	</g>
	<g>
		<path class="st1" d="M4,32c0-0.828,0.671-1.5,1.5-1.5H13c0.829,0,1.5,0.672,1.5,1.5s-0.671,1.5-1.5,1.5H5.5
			C4.671,33.5,4,32.828,4,32z"/>
		<path class="st0" d="M13,34H5.5c-1.103,0-2-0.897-2-2s0.897-2,2-2H13c1.103,0,2,0.897,2,2S14.103,34,13,34z M5.5,31
			c-0.552,0-1,0.449-1,1s0.448,1,1,1H13c0.552,0,1-0.449,1-1s-0.448-1-1-1H5.5z"/>
	</g>
	<g>
		<path class="st0" d="M35.499,55.235c-0.242,0-0.455-0.177-0.493-0.424c-0.042-0.273,0.146-0.528,0.419-0.57
			c9.611-1.468,17.349-9.206,18.816-18.817c0.042-0.273,0.304-0.459,0.569-0.418c0.273,0.042,0.461,0.297,0.419,0.57
			c-1.533,10.039-9.615,18.121-19.654,19.654C35.55,55.233,35.524,55.235,35.499,55.235z"/>
	</g>
	<g>
		<path class="st0" d="M28.501,55.235c-0.025,0-0.051-0.002-0.076-0.006c-10.039-1.533-18.121-9.615-19.654-19.654
			c-0.042-0.273,0.146-0.528,0.419-0.57c0.269-0.04,0.527,0.146,0.569,0.418c1.468,9.611,9.205,17.349,18.816,18.817
			c0.273,0.042,0.461,0.297,0.419,0.57C28.956,55.058,28.743,55.235,28.501,55.235z"/>
	</g>
	<g>
		<path class="st0" d="M9.266,29c-0.025,0-0.051-0.002-0.076-0.006c-0.273-0.042-0.461-0.297-0.419-0.57
			c1.533-10.04,9.615-18.122,19.654-19.654c0.269-0.038,0.527,0.146,0.569,0.418c0.042,0.273-0.146,0.528-0.419,0.57
			c-9.611,1.467-17.349,9.205-18.816,18.817C9.721,28.823,9.508,29,9.266,29z"/>
	</g>
	<g>
		<path class="st0" d="M54.734,29c-0.242,0-0.455-0.177-0.493-0.424c-1.468-9.612-9.205-17.35-18.816-18.817
			c-0.273-0.042-0.461-0.296-0.419-0.57c0.042-0.273,0.304-0.457,0.569-0.418c10.039,1.532,18.121,9.614,19.654,19.654
			c0.042,0.273-0.146,0.528-0.419,0.57C54.785,28.998,54.76,29,54.734,29z"/>
	</g>
</g>
</svg>
