<?xml version="1.0" encoding="utf-8"?>
<!-- Generator: Adobe Illustrator 22.0.0, SVG Export Plug-In . SVG Version: 6.00 Build 0)  -->
<svg version="1.1" id="Icon_Set" xmlns="http://www.w3.org/2000/svg" xmlns:xlink="http://www.w3.org/1999/xlink" x="0px" y="0px"
	 viewBox="0 0 64 64" style="enable-background:new 0 0 64 64;" xml:space="preserve">
<style type="text/css">
	.st0{fill:#263238;}
	.st1{fill:#FFD740;}
	.st2{fill:#FF5252;}
	.st3{fill:#40C4FF;}
	.st4{fill:#FFFFFF;}
	.st5{fill:#4DB6AC;}
	.st6{fill:#4FC3F7;}
</style>
<g>
	<g>
		<path class="st0" d="M48,55.5h-4.639c-1.622,0-3.246-0.383-4.696-1.108l-1.777-0.889c-1.312-0.656-2.781-1.003-4.249-1.003h-1.278
			c-1.468,0-2.937,0.347-4.249,1.003l-1.777,0.889c-1.45,0.725-3.074,1.108-4.696,1.108H16c-3.033,0-5.5-2.467-5.5-5.5V32
			c0-3.033,2.467-5.5,5.5-5.5h32c3.033,0,5.5,2.467,5.5,5.5v18C53.5,53.033,51.033,55.5,48,55.5z M31.361,51.5h1.278
			c1.622,0,3.246,0.383,4.696,1.108l1.777,0.889c1.312,0.656,2.781,1.003,4.249,1.003H48c2.481,0,4.5-2.019,4.5-4.5V32
			c0-2.481-2.019-4.5-4.5-4.5H16c-2.481,0-4.5,2.019-4.5,4.5v18c0,2.481,2.019,4.5,4.5,4.5h4.639c1.468,0,2.937-0.347,4.249-1.003
			l1.777-0.889C28.115,51.883,29.739,51.5,31.361,51.5z"/>
	</g>
	<g>
		<path class="st0" d="M9,47H7c-0.827,0-1.5-0.673-1.5-1.5v-10C5.5,34.673,6.173,34,7,34h2c0.276,0,0.5,0.224,0.5,0.5S9.276,35,9,35
			H7c-0.276,0-0.5,0.224-0.5,0.5v10C6.5,45.776,6.724,46,7,46h2c0.276,0,0.5,0.224,0.5,0.5S9.276,47,9,47z"/>
	</g>
	<g>
		<path class="st0" d="M57,47h-2c-0.276,0-0.5-0.224-0.5-0.5S54.724,46,55,46h2c0.276,0,0.5-0.224,0.5-0.5v-10
			c0-0.276-0.224-0.5-0.5-0.5h-2c-0.276,0-0.5-0.224-0.5-0.5S54.724,34,55,34h2c0.827,0,1.5,0.673,1.5,1.5v10
			C58.5,46.327,57.827,47,57,47z"/>
	</g>
	<g>
		<rect x="11" y="32" class="st3" width="42" height="17"/>
		<path class="st0" d="M53,49.5H11c-0.276,0-0.5-0.224-0.5-0.5V32c0-0.276,0.224-0.5,0.5-0.5h42c0.276,0,0.5,0.224,0.5,0.5v17
			C53.5,49.276,53.276,49.5,53,49.5z M11.5,48.5h41v-16h-41V48.5z"/>
	</g>
	<g>
		<path class="st0" d="M49.962,40.5c-0.276,0-0.5-0.224-0.5-0.5v-4.5h-4.5c-0.276,0-0.5-0.224-0.5-0.5s0.224-0.5,0.5-0.5h5
			c0.276,0,0.5,0.224,0.5,0.5v5C50.462,40.276,50.239,40.5,49.962,40.5z"/>
	</g>
	<g>
		<path class="st0" d="M12.5,60.5h-2c-0.276,0-0.5-0.224-0.5-0.5s0.224-0.5,0.5-0.5h2c0.276,0,0.5,0.224,0.5,0.5
			S12.776,60.5,12.5,60.5z"/>
	</g>
	<g>
		<path class="st0" d="M25.5,60.5h-11c-0.276,0-0.5-0.224-0.5-0.5s0.224-0.5,0.5-0.5h11c0.276,0,0.5,0.224,0.5,0.5
			S25.776,60.5,25.5,60.5z"/>
	</g>
	<g>
		<path class="st0" d="M53.5,60.5h-2c-0.276,0-0.5-0.224-0.5-0.5s0.224-0.5,0.5-0.5h2c0.276,0,0.5,0.224,0.5,0.5
			S53.776,60.5,53.5,60.5z"/>
	</g>
	<g>
		<path class="st0" d="M49.5,60.5h-11c-0.276,0-0.5-0.224-0.5-0.5s0.224-0.5,0.5-0.5h11c0.276,0,0.5,0.224,0.5,0.5
			S49.776,60.5,49.5,60.5z"/>
	</g>
	<g>
		<path class="st0" d="M10,12.5H6c-0.276,0-0.5-0.224-0.5-0.5s0.224-0.5,0.5-0.5h4c0.276,0,0.5,0.224,0.5,0.5S10.276,12.5,10,12.5z"
			/>
	</g>
	<g>
		<path class="st0" d="M8,14.5c-0.276,0-0.5-0.224-0.5-0.5v-4c0-0.276,0.224-0.5,0.5-0.5S8.5,9.724,8.5,10v4
			C8.5,14.276,8.276,14.5,8,14.5z"/>
	</g>
	<g>
		<path class="st0" d="M15.5,17.5h-4c-0.276,0-0.5-0.224-0.5-0.5s0.224-0.5,0.5-0.5h4c0.276,0,0.5,0.224,0.5,0.5
			S15.776,17.5,15.5,17.5z"/>
	</g>
	<g>
		<path class="st0" d="M13.5,19.5c-0.276,0-0.5-0.224-0.5-0.5v-4c0-0.276,0.224-0.5,0.5-0.5S14,14.724,14,15v4
			C14,19.276,13.776,19.5,13.5,19.5z"/>
	</g>
	<g>
		<circle class="st1" cx="32" cy="13" r="9"/>
		<path class="st0" d="M32,22.5c-5.238,0-9.5-4.262-9.5-9.5s4.262-9.5,9.5-9.5s9.5,4.262,9.5,9.5S37.239,22.5,32,22.5z M32,4.5
			c-4.687,0-8.5,3.813-8.5,8.5s3.813,8.5,8.5,8.5s8.5-3.813,8.5-8.5S36.687,4.5,32,4.5z"/>
	</g>
	<g>
		<path class="st4" d="M35.771,12.138l-5.528-3.252c-0.667-0.392-1.507,0.089-1.507,0.862v6.503c0,0.773,0.84,1.254,1.507,0.862
			l5.528-3.252C36.428,13.475,36.428,12.525,35.771,12.138z"/>
		<path class="st0" d="M29.736,17.754c-0.255,0-0.511-0.066-0.745-0.2c-0.473-0.271-0.755-0.757-0.755-1.302V9.749
			c0-0.545,0.282-1.032,0.755-1.302c0.474-0.271,1.037-0.267,1.505,0.01l5.527,3.251c0.463,0.272,0.74,0.756,0.74,1.293
			s-0.276,1.021-0.74,1.293l-5.527,3.251C30.259,17.684,29.998,17.754,29.736,17.754z M29.738,9.247
			c-0.114,0-0.205,0.042-0.25,0.068c-0.076,0.043-0.252,0.172-0.252,0.434v6.503c0,0.262,0.176,0.391,0.252,0.434
			c0.076,0.044,0.277,0.129,0.502-0.003l5.527-3.252C35.74,13.3,35.764,13.086,35.764,13s-0.024-0.3-0.247-0.431l0,0L29.99,9.318
			C29.9,9.265,29.814,9.247,29.738,9.247z"/>
	</g>
</g>
</svg>
