<?xml version="1.0" encoding="utf-8"?>
<!-- Generator: Adobe Illustrator 22.0.0, SVG Export Plug-In . SVG Version: 6.00 Build 0)  -->
<svg version="1.1" id="Icon_Set" xmlns="http://www.w3.org/2000/svg" xmlns:xlink="http://www.w3.org/1999/xlink" x="0px" y="0px"
	 viewBox="0 0 64 64" style="enable-background:new 0 0 64 64;" xml:space="preserve">
<style type="text/css">
	.st0{fill:#263238;}
	.st1{fill:#FFD740;}
	.st2{fill:#FF5252;}
	.st3{fill:#40C4FF;}
	.st4{fill:#FFFFFF;}
	.st5{fill:#4DB6AC;}
	.st6{fill:#4FC3F7;}
</style>
<g>
	<g>
		<path class="st0" d="M12,57.5h-2c-0.276,0-0.5-0.224-0.5-0.5s0.224-0.5,0.5-0.5h2c0.276,0,0.5,0.224,0.5,0.5S12.276,57.5,12,57.5z
			"/>
	</g>
	<g>
		<path class="st0" d="M29,57.5H14c-0.276,0-0.5-0.224-0.5-0.5s0.224-0.5,0.5-0.5h15c0.276,0,0.5,0.224,0.5,0.5S29.276,57.5,29,57.5
			z"/>
	</g>
	<g>
		<path class="st0" d="M54,9.5h-2c-0.276,0-0.5-0.224-0.5-0.5s0.224-0.5,0.5-0.5h2c0.276,0,0.5,0.224,0.5,0.5S54.276,9.5,54,9.5z"/>
	</g>
	<g>
		<path class="st0" d="M50,9.5H35c-0.276,0-0.5-0.224-0.5-0.5s0.224-0.5,0.5-0.5h15c0.276,0,0.5,0.224,0.5,0.5S50.276,9.5,50,9.5z"
			/>
	</g>
	<g>
		<path class="st1" d="M24,13l-2.488-0.829c-1.267-0.422-2.261-1.416-2.683-2.683L18,7l-0.829,2.488
			c-0.422,1.267-1.416,2.261-2.683,2.683L12,13l2.488,0.829c1.267,0.422,2.261,1.416,2.683,2.683L18,19l0.829-2.488
			c0.422-1.267,1.416-2.261,2.683-2.683L24,13z"/>
		<path class="st0" d="M18,19.5c-0.215,0-0.406-0.138-0.474-0.342l-0.829-2.487c-0.371-1.111-1.256-1.996-2.368-2.367l-2.487-0.829
			C11.638,13.406,11.5,13.215,11.5,13s0.138-0.406,0.342-0.475l2.487-0.829c1.112-0.37,1.997-1.255,2.368-2.367l0.829-2.487
			c0.136-0.408,0.812-0.408,0.948,0l0.829,2.487c0.371,1.112,1.256,1.997,2.367,2.367l2.488,0.829
			C24.362,12.594,24.5,12.785,24.5,13s-0.138,0.406-0.342,0.475l-2.487,0.829c-1.112,0.371-1.997,1.256-2.368,2.367l-0.829,2.487
			C18.406,19.362,18.215,19.5,18,19.5z M13.581,13l1.064,0.354c1.409,0.471,2.53,1.592,3,3L18,17.419l0.355-1.064
			c0.469-1.408,1.591-2.529,3-3L22.419,13l-1.064-0.354c-1.409-0.47-2.53-1.591-3-3L18,8.581l-0.355,1.064
			c-0.469,1.409-1.591,2.53-3,3L13.581,13z"/>
	</g>
	<g>
		<path class="st0" d="M56.5,53.5h-49c-1.654,0-3-1.346-3-3v-35c0-1.654,1.346-3,3-3H10c0.276,0,0.5,0.224,0.5,0.5
			s-0.224,0.5-0.5,0.5H7.5c-1.103,0-2,0.897-2,2v35c0,1.103,0.897,2,2,2h49c1.103,0,2-0.897,2-2v-35c0-1.103-0.897-2-2-2H26
			c-0.276,0-0.5-0.224-0.5-0.5s0.224-0.5,0.5-0.5h30.5c1.654,0,3,1.346,3,3v35C59.5,52.154,58.154,53.5,56.5,53.5z"/>
	</g>
	<g>
		<path class="st0" d="M56,21.5c-0.276,0-0.5-0.224-0.5-0.5v-4.5H51c-0.276,0-0.5-0.224-0.5-0.5s0.224-0.5,0.5-0.5h5
			c0.276,0,0.5,0.224,0.5,0.5v5C56.5,21.276,56.276,21.5,56,21.5z"/>
	</g>
	<g>
		<path class="st3" d="M40.348,21.582c-0.354-0.284-0.816-0.395-1.26-0.298l-13.813,3c-0.689,0.15-1.182,0.76-1.182,1.466v13.253
			c-0.613-0.161-1.288-0.253-2-0.253c-2.761,0-5,1.343-5,3s2.239,3,5,3c2.508,0,4.565-1.111,4.925-2.555
			c0.044-0.141,0.074-0.288,0.075-0.444c0,0,0-0.001,0-0.001c0,0,0,0,0,0v-8.79l10.813-2.349v5.393
			c-0.613-0.161-1.288-0.253-2-0.253c-2.761,0-5,1.343-5,3s2.239,3,5,3c2.507,0,4.564-1.111,4.925-2.554
			c0.044-0.142,0.075-0.289,0.075-0.446v-16C40.907,22.297,40.701,21.867,40.348,21.582z M27.093,29.889v-2.93l10.813-2.348v2.93
			L27.093,29.889z"/>
		<path class="st0" d="M22.093,45.25c-3.084,0-5.5-1.537-5.5-3.5s2.416-3.5,5.5-3.5c0.509,0,1.011,0.044,1.5,0.132V25.75
			c0-0.934,0.663-1.755,1.575-1.954l13.813-3c0.597-0.13,1.205,0.016,1.68,0.396l0,0c0.474,0.382,0.745,0.95,0.745,1.558v16
			c0,0.189-0.031,0.384-0.097,0.594c-0.418,1.673-2.693,2.906-5.403,2.906c-3.084,0-5.5-1.537-5.5-3.5s2.416-3.5,5.5-3.5
			c0.509,0,1.012,0.044,1.5,0.132v-4.15l-9.813,2.131v8.388c0,0.188-0.032,0.383-0.097,0.594
			C27.079,44.017,24.804,45.25,22.093,45.25z M22.093,39.25c-2.439,0-4.5,1.145-4.5,2.5s2.061,2.5,4.5,2.5
			c2.222,0,4.13-0.936,4.44-2.176c0.043-0.142,0.06-0.236,0.06-0.323v-8.792c0-0.235,0.164-0.438,0.394-0.488L37.8,30.123
			c0.147-0.034,0.302,0.003,0.42,0.099s0.187,0.238,0.187,0.39v5.393c0,0.155-0.072,0.302-0.194,0.396
			c-0.124,0.095-0.284,0.126-0.433,0.088c-0.599-0.157-1.229-0.237-1.873-0.237c-2.439,0-4.5,1.145-4.5,2.5s2.06,2.5,4.5,2.5
			c2.222,0,4.131-0.936,4.44-2.176c0.043-0.141,0.06-0.235,0.06-0.324v-16c0-0.304-0.136-0.587-0.372-0.778l0,0
			c-0.237-0.19-0.541-0.266-0.84-0.199l-13.813,3c-0.456,0.1-0.788,0.511-0.788,0.978v13.254c0,0.155-0.072,0.301-0.195,0.396
			c-0.123,0.095-0.283,0.126-0.432,0.088C23.366,39.33,22.736,39.25,22.093,39.25z M27.093,30.39c-0.113,0-0.224-0.038-0.314-0.11
			c-0.118-0.096-0.186-0.238-0.186-0.39v-2.931c0-0.235,0.164-0.438,0.394-0.488L37.8,24.123c0.147-0.033,0.302,0.004,0.42,0.099
			c0.118,0.096,0.187,0.238,0.187,0.39v2.93c0,0.235-0.164,0.438-0.394,0.488l-10.813,2.349
			C27.164,30.386,27.128,30.39,27.093,30.39z M27.593,27.362v1.907l9.813-2.132v-1.906L27.593,27.362z"/>
	</g>
	<g>
		<path class="st0" d="M20,30H10c-0.276,0-0.5-0.224-0.5-0.5S9.724,29,10,29h10c0.276,0,0.5,0.224,0.5,0.5S20.276,30,20,30z"/>
	</g>
	<g>
		<path class="st0" d="M20,35H10c-0.276,0-0.5-0.224-0.5-0.5S9.724,34,10,34h10c0.276,0,0.5,0.224,0.5,0.5S20.276,35,20,35z"/>
	</g>
	<g>
		<path class="st0" d="M54,30H44c-0.276,0-0.5-0.224-0.5-0.5S43.724,29,44,29h10c0.276,0,0.5,0.224,0.5,0.5S54.276,30,54,30z"/>
	</g>
	<g>
		<path class="st0" d="M54,35H44c-0.276,0-0.5-0.224-0.5-0.5S43.724,34,44,34h10c0.276,0,0.5,0.224,0.5,0.5S54.276,35,54,35z"/>
	</g>
	<g>
		<path class="st0" d="M15,40h-5c-0.276,0-0.5-0.224-0.5-0.5S9.724,39,10,39h5c0.276,0,0.5,0.224,0.5,0.5S15.276,40,15,40z"/>
	</g>
	<g>
		<path class="st0" d="M54,40H44c-0.276,0-0.5-0.224-0.5-0.5S43.724,39,44,39h10c0.276,0,0.5,0.224,0.5,0.5S54.276,40,54,40z"/>
	</g>
</g>
</svg>
