<?xml version="1.0" encoding="utf-8"?>
<!-- Generator: Adobe Illustrator 22.0.0, SVG Export Plug-In . SVG Version: 6.00 Build 0)  -->
<svg version="1.1" id="Icon_Set" xmlns="http://www.w3.org/2000/svg" xmlns:xlink="http://www.w3.org/1999/xlink" x="0px" y="0px"
	 viewBox="0 0 64 64" style="enable-background:new 0 0 64 64;" xml:space="preserve">
<style type="text/css">
	.st0{fill:#263238;}
	.st1{fill:#FFD740;}
	.st2{fill:#FF5252;}
	.st3{fill:#40C4FF;}
	.st4{fill:#FFFFFF;}
	.st5{fill:#4DB6AC;}
	.st6{fill:#4FC3F7;}
</style>
<g>
	<g>
		<path class="st0" d="M43,52.5H21c-5.79,0-10.5-4.71-10.5-10.5V27.5c0-9.925,8.075-18,18-18h7c9.925,0,18,8.075,18,18V42
			C53.5,47.79,48.79,52.5,43,52.5z M28.5,10.5c-9.374,0-17,7.626-17,17V42c0,5.238,4.262,9.5,9.5,9.5h22c5.238,0,9.5-4.262,9.5-9.5
			V27.5c0-9.374-7.626-17-17-17H28.5z"/>
	</g>
	<g>
		<path class="st3" d="M40,42H24c-4.142,0-7.5-3.358-7.5-7.5v-7c0-4.142,3.358-7.5,7.5-7.5h16c4.142,0,7.5,3.358,7.5,7.5v7
			C47.5,38.642,44.143,42,40,42z"/>
		<path class="st0" d="M40,42.5H24c-4.411,0-8-3.589-8-8v-7c0-4.411,3.589-8,8-8h16c4.411,0,8,3.589,8,8v7
			C48,38.911,44.411,42.5,40,42.5z M24,20.5c-3.86,0-7,3.14-7,7v7c0,3.86,3.14,7,7,7h16c3.859,0,7-3.14,7-7v-7c0-3.86-3.141-7-7-7
			H24z"/>
	</g>
	<g>
		<path class="st0" d="M44.5,31.5c-0.276,0-0.5-0.224-0.5-0.5v-3.5c0-2.206-1.794-4-4-4h-3.5c-0.276,0-0.5-0.224-0.5-0.5
			s0.224-0.5,0.5-0.5H40c2.757,0,5,2.243,5,5V31C45,31.276,44.776,31.5,44.5,31.5z"/>
	</g>
	<g>
		<path class="st1" d="M11,26.5c0-0.482,0.034-0.956,0.072-1.428C10.888,25.029,10.698,25,10.5,25h-2C7.12,25,6,26.119,6,27.5v7
			C6,35.881,7.12,37,8.5,37h2c0.171,0,0.338-0.018,0.5-0.05V26.5z"/>
		<path class="st0" d="M10.5,37.5h-2c-1.654,0-3-1.346-3-3v-7c0-1.654,1.346-3,3-3h2c0.219,0,0.444,0.028,0.687,0.085
			c0.241,0.057,0.404,0.281,0.384,0.527C11.534,25.572,11.5,26.032,11.5,26.5v10.45c0,0.238-0.167,0.443-0.401,0.49
			C10.906,37.479,10.706,37.5,10.5,37.5z M11,36.95h0.01H11z M8.5,25.5c-1.103,0-2,0.897-2,2v7c0,1.103,0.897,2,2,2h2v-10
			c0-0.336,0.016-0.669,0.038-1c-0.013,0-0.025,0-0.038,0H8.5z"/>
	</g>
	<g>
		<path class="st1" d="M55.5,25h-2c-0.198,0-0.388,0.029-0.572,0.072C52.967,25.544,53,26.018,53,26.5v10.45
			c0.162,0.033,0.329,0.05,0.5,0.05h2c1.381,0,2.5-1.119,2.5-2.5v-7C58,26.119,56.881,25,55.5,25z"/>
		<path class="st0" d="M55.5,37.5h-2c-0.205,0-0.404-0.021-0.599-0.06c-0.233-0.047-0.401-0.252-0.401-0.49V26.5
			c0-0.468-0.032-0.929-0.069-1.388c-0.021-0.246,0.143-0.47,0.384-0.527c0.243-0.057,0.467-0.085,0.686-0.085h2
			c1.654,0,3,1.346,3,3v7C58.5,36.154,57.154,37.5,55.5,37.5z M53.5,36.5h2c1.103,0,2-0.897,2-2v-7c0-1.103-0.897-2-2-2h-2
			c-0.013,0-0.025,0-0.038,0c0.022,0.331,0.038,0.663,0.038,1V36.5z"/>
	</g>
	<g>
		<path class="st0" d="M41.5,59.5h-19c-1.654,0-3-1.346-3-3V54c0-0.276,0.224-0.5,0.5-0.5s0.5,0.224,0.5,0.5v2.5
			c0,1.103,0.897,2,2,2h19c1.103,0,2-0.897,2-2V54c0-0.276,0.224-0.5,0.5-0.5s0.5,0.224,0.5,0.5v2.5
			C44.5,58.154,43.154,59.5,41.5,59.5z"/>
	</g>
	<g>
		<path class="st0" d="M14.5,7.5h-4C10.224,7.5,10,7.276,10,7s0.224-0.5,0.5-0.5h4C14.777,6.5,15,6.724,15,7S14.777,7.5,14.5,7.5z"
			/>
	</g>
	<g>
		<path class="st0" d="M12.5,9.5C12.224,9.5,12,9.276,12,9V5c0-0.276,0.224-0.5,0.5-0.5S13,4.724,13,5v4
			C13,9.276,12.777,9.5,12.5,9.5z"/>
	</g>
	<g>
		<path class="st0" d="M9.5,12.5h-4C5.224,12.5,5,12.276,5,12s0.224-0.5,0.5-0.5h4c0.276,0,0.5,0.224,0.5,0.5S9.777,12.5,9.5,12.5z"
			/>
	</g>
	<g>
		<path class="st0" d="M7.5,14.5C7.224,14.5,7,14.276,7,14v-4c0-0.276,0.224-0.5,0.5-0.5S8,9.724,8,10v4
			C8,14.276,7.777,14.5,7.5,14.5z"/>
	</g>
	<g>
		<path class="st0" d="M2.5,56.5h-2C0.224,56.5,0,56.276,0,56s0.224-0.5,0.5-0.5h2C2.777,55.5,3,55.724,3,56S2.777,56.5,2.5,56.5z"
			/>
	</g>
	<g>
		<path class="st0" d="M15.5,56.5h-11C4.224,56.5,4,56.276,4,56s0.224-0.5,0.5-0.5h11c0.276,0,0.5,0.224,0.5,0.5
			S15.777,56.5,15.5,56.5z"/>
	</g>
	<g>
		<path class="st0" d="M63.5,56.5h-2c-0.276,0-0.5-0.224-0.5-0.5s0.224-0.5,0.5-0.5h2c0.276,0,0.5,0.224,0.5,0.5
			S63.776,56.5,63.5,56.5z"/>
	</g>
	<g>
		<path class="st0" d="M59.5,56.5h-11c-0.276,0-0.5-0.224-0.5-0.5s0.224-0.5,0.5-0.5h11c0.276,0,0.5,0.224,0.5,0.5
			S59.776,56.5,59.5,56.5z"/>
	</g>
	<g>
		<path class="st0" d="M51,47.5h-8.999c-0.276,0-0.5-0.224-0.5-0.5s0.224-0.5,0.5-0.5H51c2.481,0,4.5-2.019,4.5-4.5v-5
			c0-0.276,0.224-0.5,0.5-0.5s0.5,0.224,0.5,0.5v5C56.5,45.033,54.032,47.5,51,47.5z"/>
	</g>
	<g>
		<path class="st0" d="M41.001,49.5h-2c-0.827,0-1.5-0.673-1.5-1.5v-2c0-0.827,0.673-1.5,1.5-1.5h2c0.827,0,1.5,0.673,1.5,1.5v2
			C42.501,48.827,41.828,49.5,41.001,49.5z M39.001,45.5c-0.275,0-0.5,0.224-0.5,0.5v2c0,0.276,0.225,0.5,0.5,0.5h2
			c0.275,0,0.5-0.224,0.5-0.5v-2c0-0.276-0.225-0.5-0.5-0.5H39.001z"/>
	</g>
	<g>
		<path class="st0" d="M44,56.5H20c-0.276,0-0.5-0.224-0.5-0.5s0.224-0.5,0.5-0.5h24c0.276,0,0.5,0.224,0.5,0.5S44.276,56.5,44,56.5
			z"/>
	</g>
</g>
</svg>
