<?xml version="1.0" encoding="utf-8"?>
<!-- Generator: Adobe Illustrator 22.0.0, SVG Export Plug-In . SVG Version: 6.00 Build 0)  -->
<svg version="1.1" id="Icon_Set" xmlns="http://www.w3.org/2000/svg" xmlns:xlink="http://www.w3.org/1999/xlink" x="0px" y="0px"
	 viewBox="0 0 64 64" style="enable-background:new 0 0 64 64;" xml:space="preserve">
<style type="text/css">
	.st0{fill:#263238;}
	.st1{fill:#FFD740;}
	.st2{fill:#FF5252;}
	.st3{fill:#40C4FF;}
	.st4{fill:#FFFFFF;}
	.st5{fill:#4DB6AC;}
	.st6{fill:#4FC3F7;}
</style>
<g>
	<g>
		<circle class="st5" cx="32" cy="32" r="6"/>
	</g>
	<g>
		<path class="st0" d="M29.478,4.5h-2c-0.276,0-0.5-0.224-0.5-0.5s0.224-0.5,0.5-0.5h2c0.276,0,0.5,0.224,0.5,0.5
			S29.754,4.5,29.478,4.5z"/>
	</g>
	<g>
		<path class="st0" d="M25.478,4.5h-15c-0.276,0-0.5-0.224-0.5-0.5s0.224-0.5,0.5-0.5h15c0.276,0,0.5,0.224,0.5,0.5
			S25.754,4.5,25.478,4.5z"/>
	</g>
	<g>
		<path class="st0" d="M36.5,60.5h-2c-0.276,0-0.5-0.224-0.5-0.5s0.224-0.5,0.5-0.5h2c0.276,0,0.5,0.224,0.5,0.5
			S36.776,60.5,36.5,60.5z"/>
	</g>
	<g>
		<path class="st0" d="M53.5,60.5h-15c-0.276,0-0.5-0.224-0.5-0.5s0.224-0.5,0.5-0.5h15c0.276,0,0.5,0.224,0.5,0.5
			S53.776,60.5,53.5,60.5z"/>
	</g>
	<g>
		<path class="st1" d="M46,8H18C8.335,8,0.5,15.835,0.5,25.5v13C0.5,48.165,8.335,56,18,56h28c9.665,0,17.5-7.835,17.5-17.5v-13
			C63.5,15.835,55.665,8,46,8z M56,38.5c0,5.523-4.477,10-10,10H18c-5.523,0-10-4.477-10-10v-13c0-5.523,4.477-10,10-10h28
			c5.523,0,10,4.477,10,10V38.5z"/>
		<path class="st0" d="M46,56.5H18c-9.925,0-18-8.075-18-18v-13c0-9.925,8.075-18,18-18h28c9.925,0,18,8.075,18,18v13
			C64,48.425,55.925,56.5,46,56.5z M18,8.5c-9.374,0-17,7.626-17,17v13c0,9.374,7.626,17,17,17h28c9.374,0,17-7.626,17-17v-13
			c0-9.374-7.626-17-17-17H18z M46,49H18c-5.79,0-10.5-4.71-10.5-10.5v-13C7.5,19.71,12.21,15,18,15h28c5.79,0,10.5,4.71,10.5,10.5
			v13C56.5,44.29,51.79,49,46,49z M18,16c-5.238,0-9.5,4.262-9.5,9.5v13c0,5.238,4.262,9.5,9.5,9.5h28c5.238,0,9.5-4.262,9.5-9.5
			v-13c0-5.238-4.262-9.5-9.5-9.5H18z"/>
	</g>
	<g>
		<path class="st0" d="M46,52.75H18c-7.857,0-14.25-6.393-14.25-14.25v-13c0-7.857,6.393-14.25,14.25-14.25h28
			c7.857,0,14.25,6.393,14.25,14.25v13C60.25,46.358,53.857,52.75,46,52.75z M18,12.25c-7.306,0-13.25,5.944-13.25,13.25v13
			c0,7.306,5.944,13.25,13.25,13.25h28c7.306,0,13.25-5.944,13.25-13.25v-13c0-7.306-5.944-13.25-13.25-13.25H18z"/>
	</g>
	<g>
		<path class="st0" d="M32,47c-0.276,0-0.5-0.224-0.5-0.5v-29c0-0.276,0.224-0.5,0.5-0.5s0.5,0.224,0.5,0.5v29
			C32.5,46.776,32.276,47,32,47z"/>
	</g>
	<g>
		<path class="st0" d="M54,38.5h-3.5c-1.654,0-3-1.346-3-3v-7c0-1.654,1.346-3,3-3H54c0.276,0,0.5,0.224,0.5,0.5s-0.224,0.5-0.5,0.5
			h-3.5c-1.103,0-2,0.897-2,2v7c0,1.103,0.897,2,2,2H54c0.276,0,0.5,0.224,0.5,0.5S54.276,38.5,54,38.5z"/>
	</g>
	<g>
		<path class="st0" d="M13.5,38.5H10c-0.276,0-0.5-0.224-0.5-0.5s0.224-0.5,0.5-0.5h3.5c1.103,0,2-0.897,2-2v-7c0-1.103-0.897-2-2-2
			H10c-0.276,0-0.5-0.224-0.5-0.5s0.224-0.5,0.5-0.5h3.5c1.654,0,3,1.346,3,3v7C16.5,37.155,15.154,38.5,13.5,38.5z"/>
	</g>
</g>
</svg>
