<?xml version="1.0" encoding="utf-8"?>
<!-- Generator: Adobe Illustrator 22.0.0, SVG Export Plug-In . SVG Version: 6.00 Build 0)  -->
<svg version="1.1" id="Icon_Set" xmlns="http://www.w3.org/2000/svg" xmlns:xlink="http://www.w3.org/1999/xlink" x="0px" y="0px"
	 viewBox="0 0 64 64" style="enable-background:new 0 0 64 64;" xml:space="preserve">
<style type="text/css">
	.st0{fill:#263238;}
	.st1{fill:#FFD740;}
	.st2{fill:#FF5252;}
	.st3{fill:#40C4FF;}
	.st4{fill:#FFFFFF;}
	.st5{fill:#4DB6AC;}
	.st6{fill:#4FC3F7;}
</style>
<g>
	<g>
		<path class="st0" d="M32,20.5c-5.238,0-9.5-4.262-9.5-9.5s4.262-9.5,9.5-9.5s9.5,4.262,9.5,9.5S37.238,20.5,32,20.5z M32,2.5
			c-4.687,0-8.5,3.813-8.5,8.5s3.813,8.5,8.5,8.5s8.5-3.813,8.5-8.5S36.687,2.5,32,2.5z"/>
	</g>
	<g>
		<path class="st0" d="M50.5,63.5H36.795c-1.569,0-2.854-1.18-2.989-2.744l-0.832-9.714c-0.012-0.139,0.035-0.277,0.13-0.38
			c0.095-0.104,0.229-0.162,0.368-0.162h10.764c0.245,0,0.455,0.178,0.494,0.421l0.734,4.579H46.5c3.032,0,5.5,2.467,5.5,5.5v1
			C52,62.827,51.327,63.5,50.5,63.5z M34.017,51.5l0.785,9.171c0.09,1.042,0.946,1.829,1.993,1.829H50.5c0.275,0,0.5-0.224,0.5-0.5
			v-1c0-2.481-2.019-4.5-4.5-4.5h-1.462c-0.245,0-0.455-0.178-0.494-0.421L43.81,51.5H34.017z"/>
	</g>
	<g>
		<path class="st0" d="M27.205,63.5H13.5c-0.827,0-1.5-0.673-1.5-1.5v-1c0-3.033,2.468-5.5,5.5-5.5h1.036l0.734-4.579
			c0.039-0.243,0.249-0.421,0.494-0.421h10.764c0.14,0,0.273,0.059,0.368,0.162c0.095,0.103,0.142,0.241,0.13,0.38l-0.832,9.713
			c0,0,0,0,0,0C30.06,62.32,28.774,63.5,27.205,63.5z M17.5,56.5c-2.481,0-4.5,2.019-4.5,4.5v1c0,0.276,0.225,0.5,0.5,0.5h13.705
			c1.047,0,1.903-0.787,1.993-1.829l0.785-9.171H20.19l-0.734,4.579c-0.039,0.243-0.249,0.421-0.494,0.421H17.5z M29.696,60.713
			h0.01H29.696z"/>
	</g>
	<g>
		<path class="st0" d="M48.5,31h-5.529c-0.276,0-0.5-0.224-0.5-0.5s0.224-0.5,0.5-0.5H48.5c0.721,0,1.407-0.311,1.882-0.854l7-8
			c0.907-1.038,0.802-2.62-0.235-3.528c-0.502-0.44-1.143-0.661-1.812-0.614c-0.667,0.044-1.275,0.346-1.715,0.849l-6.104,6.976
			C47.42,24.938,47.283,25,47.139,25h-5.132c-0.276,0-0.5-0.224-0.5-0.5s0.224-0.5,0.5-0.5h4.905l5.954-6.805
			c0.615-0.704,1.468-1.126,2.4-1.188c0.937-0.067,1.834,0.243,2.538,0.859c1.452,1.271,1.6,3.486,0.329,4.938l-7,8
			C50.47,30.565,49.51,31,48.5,31z"/>
	</g>
	<g>
		<path class="st0" d="M8.495,39.001c-0.847,0-1.656-0.303-2.3-0.867c-1.452-1.271-1.6-3.486-0.329-4.938l7-8
			C13.53,24.436,14.49,24,15.5,24h6.493c0.276,0,0.5,0.224,0.5,0.5s-0.224,0.5-0.5,0.5H15.5c-0.721,0-1.407,0.311-1.882,0.854l-7,8
			c-0.907,1.038-0.802,2.62,0.235,3.528c0.502,0.439,1.138,0.658,1.812,0.614c0.667-0.044,1.275-0.346,1.715-0.849l6.104-6.976
			C16.58,30.062,16.717,30,16.861,30h4.169c0.276,0,0.5,0.224,0.5,0.5s-0.224,0.5-0.5,0.5h-3.942l-5.954,6.805
			c-0.615,0.704-1.468,1.126-2.4,1.188C8.653,38.999,8.574,39.001,8.495,39.001z"/>
	</g>
	<g>
		<path class="st2" d="M39.838,23.604c-0.195-1.212-1.241-2.104-2.468-2.104H36V26c0,1.381-1.119,2.5-2.5,2.5h-3
			c-1.381,0-2.5-1.119-2.5-2.5v-4.5h-1.369c-1.228,0-2.274,0.891-2.468,2.104L19.764,51h10.764l0.393-4.585
			c0.044-0.517,0.477-0.915,0.996-0.915h0.164c0.519,0,0.952,0.397,0.996,0.915L33.471,51h10.764L39.838,23.604z"/>
		<path class="st0" d="M44.235,51.5H33.472c-0.26,0-0.476-0.199-0.498-0.457l-0.394-4.585C32.558,46.196,32.344,46,32.082,46h-0.164
			c-0.262,0-0.476,0.196-0.498,0.457l-0.394,4.586c-0.022,0.258-0.238,0.457-0.498,0.457H19.765c-0.146,0-0.285-0.064-0.381-0.176
			c-0.095-0.111-0.136-0.259-0.113-0.403l4.397-27.396C23.903,22.062,25.148,21,26.631,21H28c0.276,0,0.5,0.224,0.5,0.5V26
			c0,1.103,0.897,2,2,2h3c1.103,0,2-0.897,2-2v-4.5c0-0.276,0.224-0.5,0.5-0.5h1.369c1.482,0,2.728,1.062,2.963,2.524l4.397,27.396
			c0.022,0.145-0.019,0.292-0.113,0.403C44.521,51.436,44.382,51.5,44.235,51.5z M33.931,50.5h9.718l-4.305-26.817l0,0
			C39.187,22.708,38.357,22,37.369,22H36.5v4c0,1.654-1.346,3-3,3h-3c-1.654,0-3-1.346-3-3v-4h-0.869
			c-0.988,0-1.818,0.708-1.975,1.683L20.352,50.5h9.718l0.354-4.128C30.49,45.59,31.133,45,31.918,45h0.164
			c0.785,0,1.428,0.59,1.494,1.372L33.931,50.5z"/>
	</g>
	<g>
		<path class="st1" d="M34.634,39.5h-5.268c-0.478,0-0.866-0.388-0.866-0.866v-6.268c0-0.478,0.388-0.866,0.866-0.866h5.268
			c0.478,0,0.866,0.388,0.866,0.866v6.268C35.5,39.112,35.112,39.5,34.634,39.5z"/>
		<path class="st0" d="M34.634,40h-5.268C28.613,40,28,39.387,28,38.634v-6.268C28,31.613,28.613,31,29.366,31h5.268
			C35.387,31,36,31.613,36,32.366v6.268C36,39.387,35.387,40,34.634,40z M29.366,32C29.164,32,29,32.164,29,32.366v6.268
			C29,38.836,29.164,39,29.366,39h5.268C34.836,39,35,38.836,35,38.634v-6.268C35,32.164,34.836,32,34.634,32H29.366z"/>
	</g>
	<g>
		<path class="st0" d="M35.5,35h-7c-0.276,0-0.5-0.224-0.5-0.5s0.224-0.5,0.5-0.5h7c0.276,0,0.5,0.224,0.5,0.5S35.776,35,35.5,35z"
			/>
	</g>
	<g>
		<path class="st0" d="M56,3.5h-4c-0.276,0-0.5-0.224-0.5-0.5s0.224-0.5,0.5-0.5h4c0.276,0,0.5,0.224,0.5,0.5S56.276,3.5,56,3.5z"/>
	</g>
	<g>
		<path class="st0" d="M54,5.5c-0.276,0-0.5-0.224-0.5-0.5V1c0-0.276,0.224-0.5,0.5-0.5s0.5,0.224,0.5,0.5v4
			C54.5,5.276,54.276,5.5,54,5.5z"/>
	</g>
	<g>
		<path class="st0" d="M51,8.5h-4c-0.276,0-0.5-0.224-0.5-0.5s0.224-0.5,0.5-0.5h4c0.276,0,0.5,0.224,0.5,0.5S51.276,8.5,51,8.5z"/>
	</g>
	<g>
		<path class="st0" d="M49,10.5c-0.276,0-0.5-0.224-0.5-0.5V6c0-0.276,0.224-0.5,0.5-0.5s0.5,0.224,0.5,0.5v4
			C49.5,10.276,49.276,10.5,49,10.5z"/>
	</g>
	<g>
		<path class="st0" d="M3,46H1c-0.276,0-0.5-0.224-0.5-0.5S0.724,45,1,45h2c0.276,0,0.5,0.224,0.5,0.5S3.276,46,3,46z"/>
	</g>
	<g>
		<path class="st0" d="M14,46H5c-0.276,0-0.5-0.224-0.5-0.5S4.724,45,5,45h9c0.276,0,0.5,0.224,0.5,0.5S14.276,46,14,46z"/>
	</g>
	<g>
		<path class="st0" d="M63,46h-2c-0.276,0-0.5-0.224-0.5-0.5S60.724,45,61,45h2c0.276,0,0.5,0.224,0.5,0.5S63.276,46,63,46z"/>
	</g>
	<g>
		<path class="st0" d="M59,46h-9c-0.276,0-0.5-0.224-0.5-0.5S49.724,45,50,45h9c0.276,0,0.5,0.224,0.5,0.5S59.276,46,59,46z"/>
	</g>
</g>
</svg>
