<?xml version="1.0" encoding="utf-8"?>
<!-- Generator: Adobe Illustrator 22.0.0, SVG Export Plug-In . SVG Version: 6.00 Build 0)  -->
<svg version="1.1" id="Icon_Set" xmlns="http://www.w3.org/2000/svg" xmlns:xlink="http://www.w3.org/1999/xlink" x="0px" y="0px"
	 viewBox="0 0 64 64" style="enable-background:new 0 0 64 64;" xml:space="preserve">
<style type="text/css">
	.st0{fill:#263238;}
	.st1{fill:#FFD740;}
	.st2{fill:#FF5252;}
	.st3{fill:#40C4FF;}
	.st4{fill:#FFFFFF;}
	.st5{fill:#4DB6AC;}
	.st6{fill:#4FC3F7;}
</style>
<g>
	<g>
		<path class="st0" d="M22.5,23H13c-0.276,0-0.5-0.224-0.5-0.5V13c0-0.276,0.224-0.5,0.5-0.5h9.5c0.276,0,0.5,0.224,0.5,0.5v9.5
			C23,22.776,22.776,23,22.5,23z M13.5,22H22v-8.5h-8.5V22z"/>
	</g>
	<g>
		<rect x="22.5" y="13" class="st5" width="9.5" height="9.5"/>
		<path class="st0" d="M32,23h-9.5c-0.276,0-0.5-0.224-0.5-0.5V13c0-0.276,0.224-0.5,0.5-0.5H32c0.276,0,0.5,0.224,0.5,0.5v9.5
			C32.5,22.776,32.276,23,32,23z M23,22h8.5v-8.5H23V22z"/>
	</g>
	<g>
		<path class="st0" d="M41.5,23H32c-0.276,0-0.5-0.224-0.5-0.5V13c0-0.276,0.224-0.5,0.5-0.5h9.5c0.276,0,0.5,0.224,0.5,0.5v9.5
			C42,22.776,41.776,23,41.5,23z M32.5,22H41v-8.5h-8.5V22z"/>
	</g>
	<g>
		<rect x="41.5" y="13" class="st5" width="9.5" height="9.5"/>
		<path class="st0" d="M51,23h-9.5c-0.276,0-0.5-0.224-0.5-0.5V13c0-0.276,0.224-0.5,0.5-0.5H51c0.276,0,0.5,0.224,0.5,0.5v9.5
			C51.5,22.776,51.276,23,51,23z M42,22h8.5v-8.5H42V22z"/>
	</g>
	<g>
		<rect x="13" y="22.5" class="st5" width="9.5" height="9.5"/>
		<path class="st0" d="M22.5,32.5H13c-0.276,0-0.5-0.224-0.5-0.5v-9.5c0-0.276,0.224-0.5,0.5-0.5h9.5c0.276,0,0.5,0.224,0.5,0.5V32
			C23,32.276,22.776,32.5,22.5,32.5z M13.5,31.5H22V23h-8.5V31.5z"/>
	</g>
	<g>
		<path class="st0" d="M32,32.5h-9.5c-0.276,0-0.5-0.224-0.5-0.5v-9.5c0-0.276,0.224-0.5,0.5-0.5H32c0.276,0,0.5,0.224,0.5,0.5V32
			C32.5,32.276,32.276,32.5,32,32.5z M23,31.5h8.5V23H23V31.5z"/>
	</g>
	<g>
		<rect x="32" y="22.5" class="st5" width="9.5" height="9.5"/>
		<path class="st0" d="M41.5,32.5H32c-0.276,0-0.5-0.224-0.5-0.5v-9.5c0-0.276,0.224-0.5,0.5-0.5h9.5c0.276,0,0.5,0.224,0.5,0.5V32
			C42,32.276,41.776,32.5,41.5,32.5z M32.5,31.5H41V23h-8.5V31.5z"/>
	</g>
	<g>
		<path class="st0" d="M51,32.5h-9.5c-0.276,0-0.5-0.224-0.5-0.5v-9.5c0-0.276,0.224-0.5,0.5-0.5H51c0.276,0,0.5,0.224,0.5,0.5V32
			C51.5,32.276,51.276,32.5,51,32.5z M42,31.5h8.5V23H42V31.5z"/>
	</g>
	<g>
		<path class="st0" d="M22.5,42H13c-0.276,0-0.5-0.224-0.5-0.5V32c0-0.276,0.224-0.5,0.5-0.5h9.5c0.276,0,0.5,0.224,0.5,0.5v9.5
			C23,41.776,22.776,42,22.5,42z M13.5,41H22v-8.5h-8.5V41z"/>
	</g>
	<g>
		<rect x="22.5" y="32" class="st5" width="9.5" height="9.5"/>
		<path class="st0" d="M32,42h-9.5c-0.276,0-0.5-0.224-0.5-0.5V32c0-0.276,0.224-0.5,0.5-0.5H32c0.276,0,0.5,0.224,0.5,0.5v9.5
			C32.5,41.776,32.276,42,32,42z M23,41h8.5v-8.5H23V41z"/>
	</g>
	<g>
		<path class="st0" d="M41.5,42H32c-0.276,0-0.5-0.224-0.5-0.5V32c0-0.276,0.224-0.5,0.5-0.5h9.5c0.276,0,0.5,0.224,0.5,0.5v9.5
			C42,41.776,41.776,42,41.5,42z M32.5,41H41v-8.5h-8.5V41z"/>
	</g>
	<g>
		<rect x="41.5" y="32" class="st5" width="9.5" height="9.5"/>
		<path class="st0" d="M51,42h-9.5c-0.276,0-0.5-0.224-0.5-0.5V32c0-0.276,0.224-0.5,0.5-0.5H51c0.276,0,0.5,0.224,0.5,0.5v9.5
			C51.5,41.776,51.276,42,51,42z M42,41h8.5v-8.5H42V41z"/>
	</g>
	<g>
		<rect x="32" y="41.5" class="st5" width="9.5" height="9.5"/>
		<path class="st0" d="M41.5,51.5H32c-0.276,0-0.5-0.224-0.5-0.5v-9.5c0-0.276,0.224-0.5,0.5-0.5h9.5c0.276,0,0.5,0.224,0.5,0.5V51
			C42,51.276,41.776,51.5,41.5,51.5z M32.5,50.5H41V42h-8.5V50.5z"/>
	</g>
	<g>
		<path class="st0" d="M51,51.5h-9.5c-0.276,0-0.5-0.224-0.5-0.5v-9.5c0-0.276,0.224-0.5,0.5-0.5H51c0.276,0,0.5,0.224,0.5,0.5V51
			C51.5,51.276,51.276,51.5,51,51.5z M42,50.5h8.5V42H42V50.5z"/>
	</g>
	<g>
		<rect x="13" y="41.5" class="st5" width="9.5" height="9.5"/>
		<path class="st0" d="M22.5,51.5H13c-0.276,0-0.5-0.224-0.5-0.5v-9.5c0-0.276,0.224-0.5,0.5-0.5h9.5c0.276,0,0.5,0.224,0.5,0.5V51
			C23,51.276,22.776,51.5,22.5,51.5z M13.5,50.5H22V42h-8.5V50.5z"/>
	</g>
	<g>
		<path class="st0" d="M32,51.5h-9.5c-0.276,0-0.5-0.224-0.5-0.5v-9.5c0-0.276,0.224-0.5,0.5-0.5H32c0.276,0,0.5,0.224,0.5,0.5V51
			C32.5,51.276,32.276,51.5,32,51.5z M23,50.5h8.5V42H23V50.5z"/>
	</g>
	<g>
		<circle class="st1" cx="27.25" cy="27.25" r="2.292"/>
		<path class="st0" d="M27.25,30.042c-1.539,0-2.792-1.252-2.792-2.792s1.252-2.792,2.792-2.792s2.792,1.252,2.792,2.792
			S28.789,30.042,27.25,30.042z M27.25,25.458c-0.988,0-1.792,0.804-1.792,1.792s0.804,1.792,1.792,1.792s1.792-0.804,1.792-1.792
			S28.238,25.458,27.25,25.458z"/>
	</g>
	<g>
		<circle class="st1" cx="36.75" cy="36.75" r="2.292"/>
		<path class="st0" d="M36.75,39.542c-1.539,0-2.792-1.252-2.792-2.792s1.253-2.792,2.792-2.792s2.792,1.252,2.792,2.792
			S38.289,39.542,36.75,39.542z M36.75,34.958c-0.988,0-1.792,0.804-1.792,1.792s0.804,1.792,1.792,1.792s1.792-0.804,1.792-1.792
			S37.738,34.958,36.75,34.958z"/>
	</g>
	<g>
		<circle class="st4" cx="36.75" cy="27.25" r="2.292"/>
		<path class="st0" d="M36.75,30.042c-1.539,0-2.792-1.252-2.792-2.792s1.253-2.792,2.792-2.792s2.792,1.252,2.792,2.792
			S38.289,30.042,36.75,30.042z M36.75,25.458c-0.988,0-1.792,0.804-1.792,1.792s0.804,1.792,1.792,1.792s1.792-0.804,1.792-1.792
			S37.738,25.458,36.75,25.458z"/>
	</g>
	<g>
		<circle class="st4" cx="27.25" cy="36.75" r="2.292"/>
		<path class="st0" d="M27.25,39.542c-1.539,0-2.792-1.252-2.792-2.792s1.252-2.792,2.792-2.792s2.792,1.252,2.792,2.792
			S28.789,39.542,27.25,39.542z M27.25,34.958c-0.988,0-1.792,0.804-1.792,1.792s0.804,1.792,1.792,1.792s1.792-0.804,1.792-1.792
			S28.238,34.958,27.25,34.958z"/>
	</g>
	<g>
		<path class="st0" d="M54.5,57.5h-45c-1.654,0-3-1.346-3-3v-45c0-1.654,1.346-3,3-3h45c1.654,0,3,1.346,3,3v45
			C57.5,56.154,56.154,57.5,54.5,57.5z M9.5,7.5c-1.103,0-2,0.897-2,2v45c0,1.103,0.897,2,2,2h45c1.103,0,2-0.897,2-2v-45
			c0-1.103-0.897-2-2-2H9.5z"/>
	</g>
	<g>
		<path class="st0" d="M14,3.5h-2c-0.276,0-0.5-0.224-0.5-0.5s0.224-0.5,0.5-0.5h2c0.276,0,0.5,0.224,0.5,0.5S14.276,3.5,14,3.5z"/>
	</g>
	<g>
		<path class="st0" d="M32.5,3.5H16c-0.276,0-0.5-0.224-0.5-0.5s0.224-0.5,0.5-0.5h16.5C32.776,2.5,33,2.724,33,3
			S32.776,3.5,32.5,3.5z"/>
	</g>
	<g>
		<path class="st0" d="M52,61.5h-2c-0.276,0-0.5-0.224-0.5-0.5s0.224-0.5,0.5-0.5h2c0.276,0,0.5,0.224,0.5,0.5S52.276,61.5,52,61.5z
			"/>
	</g>
	<g>
		<path class="st0" d="M48,61.5H31.5c-0.276,0-0.5-0.224-0.5-0.5s0.224-0.5,0.5-0.5H48c0.276,0,0.5,0.224,0.5,0.5
			S48.276,61.5,48,61.5z"/>
	</g>
</g>
</svg>
