<?xml version="1.0" encoding="utf-8"?>
<!-- Generator: Adobe Illustrator 22.0.0, SVG Export Plug-In . SVG Version: 6.00 Build 0)  -->
<svg version="1.1" id="Icon_Set" xmlns="http://www.w3.org/2000/svg" xmlns:xlink="http://www.w3.org/1999/xlink" x="0px" y="0px"
	 viewBox="0 0 64 64" style="enable-background:new 0 0 64 64;" xml:space="preserve">
<style type="text/css">
	.st0{fill:#263238;}
	.st1{fill:#FFD740;}
	.st2{fill:#FF5252;}
	.st3{fill:#40C4FF;}
	.st4{fill:#FFFFFF;}
	.st5{fill:#4DB6AC;}
	.st6{fill:#4FC3F7;}
</style>
<g>
	<g>
		<path class="st0" d="M51,37.5H14c-0.276,0-0.5-0.224-0.5-0.5s0.224-0.5,0.5-0.5h37c0.276,0,0.5,0.224,0.5,0.5S51.276,37.5,51,37.5
			z"/>
	</g>
	<g>
		<path class="st0" d="M4,60H2c-0.276,0-0.5-0.224-0.5-0.5S1.724,59,2,59h2c0.276,0,0.5,0.224,0.5,0.5S4.276,60,4,60z"/>
	</g>
	<g>
		<path class="st0" d="M22,60H6c-0.276,0-0.5-0.224-0.5-0.5S5.724,59,6,59h16c0.276,0,0.5,0.224,0.5,0.5S22.276,60,22,60z"/>
	</g>
	<g>
		<path class="st0" d="M63,8h-2c-0.276,0-0.5-0.224-0.5-0.5S60.724,7,61,7h2c0.276,0,0.5,0.224,0.5,0.5S63.276,8,63,8z"/>
	</g>
	<g>
		<path class="st0" d="M59,8H43c-0.276,0-0.5-0.224-0.5-0.5S42.724,7,43,7h16c0.276,0,0.5,0.224,0.5,0.5S59.276,8,59,8z"/>
	</g>
	<g>
		<path class="st0" d="M10,7H6C5.724,7,5.5,6.776,5.5,6.5S5.724,6,6,6h4c0.276,0,0.5,0.224,0.5,0.5S10.276,7,10,7z"/>
	</g>
	<g>
		<path class="st0" d="M8,9C7.724,9,7.5,8.776,7.5,8.5v-4C7.5,4.224,7.724,4,8,4s0.5,0.224,0.5,0.5v4C8.5,8.776,8.276,9,8,9z"/>
	</g>
	<g>
		<path class="st0" d="M5,12H1c-0.276,0-0.5-0.224-0.5-0.5S0.724,11,1,11h4c0.276,0,0.5,0.224,0.5,0.5S5.276,12,5,12z"/>
	</g>
	<g>
		<path class="st0" d="M3,14c-0.276,0-0.5-0.224-0.5-0.5v-4C2.5,9.224,2.724,9,3,9s0.5,0.224,0.5,0.5v4C3.5,13.776,3.276,14,3,14z"
			/>
	</g>
	<g>
		<path class="st1" d="M35,42h-5c-1.381,0-2.5-1.119-2.5-2.5V30h10v9.5C37.5,40.881,36.381,42,35,42z"/>
		<path class="st0" d="M35,42.5h-5c-1.654,0-3-1.346-3-3V30c0-0.276,0.224-0.5,0.5-0.5h10c0.276,0,0.5,0.224,0.5,0.5v9.5
			C38,41.154,36.654,42.5,35,42.5z M28,30.5v9c0,1.103,0.897,2,2,2h5c1.103,0,2-0.897,2-2v-9H28z"/>
	</g>
	<g>
		<circle class="st3" cx="32.5" cy="34.5" r="2.5"/>
		<path class="st0" d="M32.5,37.5c-1.654,0-3-1.346-3-3s1.346-3,3-3s3,1.346,3,3S34.154,37.5,32.5,37.5z M32.5,32.5
			c-1.103,0-2,0.897-2,2s0.897,2,2,2s2-0.897,2-2S33.603,32.5,32.5,32.5z"/>
	</g>
	<g>
		<path class="st0" d="M32.5,40c-0.276,0-0.5-0.224-0.5-0.5V37c0-0.276,0.224-0.5,0.5-0.5S33,36.724,33,37v2.5
			C33,39.776,32.776,40,32.5,40z"/>
	</g>
	<g>
		<path class="st0" d="M51,42.5H14c-0.276,0-0.5-0.224-0.5-0.5s0.224-0.5,0.5-0.5h37c0.276,0,0.5,0.224,0.5,0.5S51.276,42.5,51,42.5
			z"/>
	</g>
	<g>
		<path class="st1" d="M56,30H9V16c0-0.552,0.448-1,1-1h45c0.552,0,1,0.448,1,1V30z"/>
		<path class="st0" d="M56,30.5H9c-0.276,0-0.5-0.224-0.5-0.5V16c0-0.827,0.673-1.5,1.5-1.5h45c0.827,0,1.5,0.673,1.5,1.5v14
			C56.5,30.276,56.276,30.5,56,30.5z M9.5,29.5h46V16c0-0.276-0.225-0.5-0.5-0.5H10c-0.275,0-0.5,0.224-0.5,0.5V29.5z"/>
	</g>
	<g>
		<path class="st1" d="M51,47H14V32H9v19c0,0.552,0.448,1,1,1h45c0.552,0,1-0.448,1-1V32h-5V47z"/>
	</g>
	<g>
		<path class="st0" d="M51,47.5H14c-0.276,0-0.5-0.224-0.5-0.5V32c0-0.276,0.224-0.5,0.5-0.5s0.5,0.224,0.5,0.5v14.5h36V32
			c0-0.276,0.224-0.5,0.5-0.5s0.5,0.224,0.5,0.5v15C51.5,47.276,51.276,47.5,51,47.5z"/>
	</g>
	<g>
		<path class="st0" d="M55,52.5H10c-0.827,0-1.5-0.673-1.5-1.5V32c0-0.276,0.224-0.5,0.5-0.5s0.5,0.224,0.5,0.5v19
			c0,0.276,0.225,0.5,0.5,0.5h45c0.275,0,0.5-0.224,0.5-0.5V32c0-0.276,0.224-0.5,0.5-0.5s0.5,0.224,0.5,0.5v19
			C56.5,51.827,55.827,52.5,55,52.5z"/>
	</g>
	<g>
		<path class="st0" d="M51,25.5H14c-0.276,0-0.5-0.224-0.5-0.5V15c0-0.276,0.224-0.5,0.5-0.5h37c0.276,0,0.5,0.224,0.5,0.5v10
			C51.5,25.276,51.276,25.5,51,25.5z M14.5,24.5h36v-9h-36V24.5z"/>
	</g>
</g>
</svg>
