<?xml version="1.0" encoding="utf-8"?>
<!-- Generator: Adobe Illustrator 22.0.0, SVG Export Plug-In . SVG Version: 6.00 Build 0)  -->
<svg version="1.1" id="Icon_Set" xmlns="http://www.w3.org/2000/svg" xmlns:xlink="http://www.w3.org/1999/xlink" x="0px" y="0px"
	 viewBox="0 0 64 64" style="enable-background:new 0 0 64 64;" xml:space="preserve">
<style type="text/css">
	.st0{fill:#263238;}
	.st1{fill:#FFD740;}
	.st2{fill:#FF5252;}
	.st3{fill:#40C4FF;}
	.st4{fill:#FFFFFF;}
	.st5{fill:#4DB6AC;}
	.st6{fill:#4FC3F7;}
</style>
<g>
	<g>
		<circle class="st2" cx="46.477" cy="29" r="8"/>
	</g>
	<g>
		<path class="st0" d="M58.5,5.5h-4C54.224,5.5,54,5.276,54,5s0.224-0.5,0.5-0.5h4C58.776,4.5,59,4.724,59,5S58.776,5.5,58.5,5.5z"
			/>
	</g>
	<g>
		<path class="st0" d="M56.5,7.5C56.224,7.5,56,7.276,56,7V3c0-0.276,0.224-0.5,0.5-0.5S57,2.724,57,3v4
			C57,7.276,56.776,7.5,56.5,7.5z"/>
	</g>
	<g>
		<path class="st0" d="M53.5,10.5h-4c-0.276,0-0.5-0.224-0.5-0.5s0.224-0.5,0.5-0.5h4c0.276,0,0.5,0.224,0.5,0.5
			S53.776,10.5,53.5,10.5z"/>
	</g>
	<g>
		<path class="st0" d="M51.5,12.5c-0.276,0-0.5-0.224-0.5-0.5V8c0-0.276,0.224-0.5,0.5-0.5S52,7.724,52,8v4
			C52,12.276,51.776,12.5,51.5,12.5z"/>
	</g>
	<g>
		<path class="st0" d="M42.478,12.5h-2c-0.276,0-0.5-0.224-0.5-0.5s0.224-0.5,0.5-0.5h2c0.276,0,0.5,0.224,0.5,0.5
			S42.754,12.5,42.478,12.5z"/>
	</g>
	<g>
		<path class="st0" d="M38.478,12.5h-15c-0.276,0-0.5-0.224-0.5-0.5s0.224-0.5,0.5-0.5h15c0.276,0,0.5,0.224,0.5,0.5
			S38.754,12.5,38.478,12.5z"/>
	</g>
	<g>
		<path class="st0" d="M25.5,56.5h-2c-0.276,0-0.5-0.224-0.5-0.5s0.224-0.5,0.5-0.5h2c0.276,0,0.5,0.224,0.5,0.5
			S25.776,56.5,25.5,56.5z"/>
	</g>
	<g>
		<path class="st0" d="M42.5,56.5h-15c-0.276,0-0.5-0.224-0.5-0.5s0.224-0.5,0.5-0.5h15c0.276,0,0.5,0.224,0.5,0.5
			S42.776,56.5,42.5,56.5z"/>
	</g>
	<g>
		<path class="st0" d="M53.5,61.5h-1c-0.276,0-0.5-0.224-0.5-0.5v-8c0-0.276,0.224-0.5,0.5-0.5S53,52.724,53,53v7.5h0.5
			c2.481,0,4.5-2.019,4.5-4.5v-3.5c0-0.276,0.224-0.5,0.5-0.5s0.5,0.224,0.5,0.5V56C59,59.033,56.532,61.5,53.5,61.5z"/>
	</g>
	<g>
		<path class="st0" d="M58.5,56.5c-0.276,0-0.5-0.224-0.5-0.5c0-2.481-2.019-4.5-4.499-4.5L10.5,51.498
			c-3.031,0-5.498-2.465-5.5-5.497C5,46,5,45.999,5,45.999c0,0,0-0.001,0-0.001V12c0-3.033,2.468-5.5,5.5-5.5H14
			c0.276,0,0.5,0.224,0.5,0.5v34c0,0.276-0.224,0.5-0.5,0.5h-3.5c-2.48,0-4.499,2.018-4.5,4.499c0.001,2.48,2.02,4.499,4.5,4.499
			L53.501,50.5c1.857,0,3.503,0.926,4.499,2.341V20c0-1.378-1.121-2.5-2.5-2.5H16c-0.276,0-0.5-0.224-0.5-0.5s0.224-0.5,0.5-0.5
			h39.5c1.93,0,3.5,1.57,3.5,3.5v36C59,56.276,58.776,56.5,58.5,56.5z M10.5,7.5C8.019,7.5,6,9.519,6,12v30.841
			c0.996-1.415,2.642-2.341,4.5-2.341h3v-33H10.5z"/>
	</g>
	<g>
		<path class="st0" d="M50.478,33.5c-0.128,0-0.256-0.049-0.354-0.146l-8-8c-0.195-0.195-0.195-0.512,0-0.707s0.512-0.195,0.707,0
			l8,8c0.195,0.195,0.195,0.512,0,0.707C50.733,33.451,50.605,33.5,50.478,33.5z"/>
	</g>
	<g>
		<path class="st0" d="M42.478,33.5c-0.128,0-0.256-0.049-0.354-0.146c-0.195-0.195-0.195-0.512,0-0.707l8-8
			c0.195-0.195,0.512-0.195,0.707,0s0.195,0.512,0,0.707l-8,8C42.733,33.451,42.605,33.5,42.478,33.5z"/>
	</g>
	<g>
		<path class="st0" d="M21.876,44.5h-1.5c-0.276,0-0.5-0.224-0.5-0.5s0.224-0.5,0.5-0.5h1.5c0.276,0,0.5,0.224,0.5,0.5
			S22.152,44.5,21.876,44.5z"/>
	</g>
	<g>
		<path class="st0" d="M26.542,44.5h-2.333c-0.276,0-0.5-0.224-0.5-0.5s0.224-0.5,0.5-0.5h2.333c0.276,0,0.5,0.224,0.5,0.5
			S26.818,44.5,26.542,44.5z"/>
	</g>
	<g>
		<path class="st0" d="M30.376,44.5h-1.5c-0.276,0-0.5-0.224-0.5-0.5s0.224-0.5,0.5-0.5h1v-1c0-0.276,0.224-0.5,0.5-0.5
			s0.5,0.224,0.5,0.5V44C30.876,44.276,30.652,44.5,30.376,44.5z"/>
	</g>
	<g>
		<path class="st0" d="M30.376,40.6c-0.276,0-0.5-0.224-0.5-0.5v-2.4c0-0.276,0.224-0.5,0.5-0.5s0.5,0.224,0.5,0.5v2.4
			C30.876,40.376,30.652,40.6,30.376,40.6z M30.376,35.8c-0.276,0-0.5-0.224-0.5-0.5v-2.4c0-0.276,0.224-0.5,0.5-0.5
			s0.5,0.224,0.5,0.5v2.4C30.876,35.577,30.652,35.8,30.376,35.8z"/>
	</g>
	<g>
		<path class="st0" d="M30.376,31c-0.276,0-0.5-0.224-0.5-0.5V29c0-0.276,0.224-0.5,0.5-0.5h1.5c0.276,0,0.5,0.224,0.5,0.5
			s-0.224,0.5-0.5,0.5h-1v1C30.876,30.776,30.652,31,30.376,31z"/>
	</g>
	<g>
		<path class="st0" d="M35.376,29.5h-1.5c-0.276,0-0.5-0.224-0.5-0.5s0.224-0.5,0.5-0.5h1.5c0.276,0,0.5,0.224,0.5,0.5
			S35.652,29.5,35.376,29.5z"/>
	</g>
	<g>
		<polygon class="st1" points="24.477,25 18.477,25 21.477,21 		"/>
		<path class="st0" d="M24.478,25.5h-6c-0.189,0-0.362-0.107-0.447-0.276s-0.066-0.372,0.047-0.523l3-4
			c0.189-0.252,0.611-0.252,0.801,0l3,4c0.113,0.151,0.132,0.354,0.047,0.523S24.667,25.5,24.478,25.5z M19.478,24.5h4l-2-2.667
			L19.478,24.5z"/>
	</g>
	<g>
		<polygon class="st1" points="30.477,25 24.477,25 27.477,21 		"/>
		<path class="st0" d="M30.478,25.5h-6c-0.189,0-0.362-0.107-0.447-0.276s-0.066-0.372,0.047-0.523l3-4
			c0.189-0.252,0.611-0.252,0.801,0l3,4c0.113,0.151,0.132,0.354,0.047,0.523S30.667,25.5,30.478,25.5z M25.478,24.5h4l-2-2.667
			L25.478,24.5z"/>
	</g>
	<g>
		<rect x="38.477" y="41" class="st3" width="16" height="3"/>
		<path class="st0" d="M54.478,44.5h-16c-0.276,0-0.5-0.224-0.5-0.5v-3c0-0.276,0.224-0.5,0.5-0.5h16c0.276,0,0.5,0.224,0.5,0.5v3
			C54.978,44.276,54.754,44.5,54.478,44.5z M38.978,43.5h15v-2h-15V43.5z"/>
	</g>
</g>
</svg>
