<?xml version="1.0" encoding="utf-8"?>
<!-- Generator: Adobe Illustrator 22.0.0, SVG Export Plug-In . SVG Version: 6.00 Build 0)  -->
<svg version="1.1" id="Icon_Set" xmlns="http://www.w3.org/2000/svg" xmlns:xlink="http://www.w3.org/1999/xlink" x="0px" y="0px"
	 viewBox="0 0 64 64" style="enable-background:new 0 0 64 64;" xml:space="preserve">
<style type="text/css">
	.st0{fill:#263238;}
	.st1{fill:#FFD740;}
	.st2{fill:#FF5252;}
	.st3{fill:#40C4FF;}
	.st4{fill:#FFFFFF;}
	.st5{fill:#4DB6AC;}
	.st6{fill:#4FC3F7;}
</style>
<g>
	<g>
		<rect x="48.844" y="35.5" class="st1" width="6" height="12.5"/>
		<path class="st0" d="M54.845,48.5h-6c-0.276,0-0.5-0.224-0.5-0.5V35.5c0-0.276,0.224-0.5,0.5-0.5h6c0.276,0,0.5,0.224,0.5,0.5V48
			C55.345,48.276,55.121,48.5,54.845,48.5z M49.345,47.5h5V36h-5V47.5z"/>
	</g>
	<g>
		<rect x="54.844" y="41.5" class="st1" width="6" height="6.5"/>
		<path class="st0" d="M60.845,48.5h-6c-0.276,0-0.5-0.224-0.5-0.5v-6.5c0-0.276,0.224-0.5,0.5-0.5h6c0.276,0,0.5,0.224,0.5,0.5V48
			C61.345,48.276,61.121,48.5,60.845,48.5z M55.345,47.5h5V42h-5V47.5z"/>
	</g>
	<g>
		<rect x="42.844" y="41.5" class="st1" width="6" height="6.5"/>
		<path class="st0" d="M48.845,48.5h-6c-0.276,0-0.5-0.224-0.5-0.5v-6.5c0-0.276,0.224-0.5,0.5-0.5h6c0.276,0,0.5,0.224,0.5,0.5V48
			C49.345,48.276,49.121,48.5,48.845,48.5z M43.345,47.5h5V42h-5V47.5z"/>
	</g>
	<g>
		<polygon class="st1" points="48.844,35.5 51.844,30.5 54.844,35.5 		"/>
		<path class="st0" d="M54.845,36h-6c-0.18,0-0.347-0.097-0.436-0.253c-0.088-0.157-0.086-0.349,0.007-0.504l3-5
			c0.18-0.301,0.678-0.301,0.857,0l3,5c0.093,0.155,0.095,0.347,0.007,0.504C55.191,35.904,55.024,36,54.845,36z M49.728,35h4.234
			l-2.117-3.528L49.728,35z"/>
	</g>
	<g>
		<path class="st0" d="M46.844,36h-5.66c-0.276,0-0.5-0.224-0.5-0.5s0.224-0.5,0.5-0.5h5.66c0.276,0,0.5,0.224,0.5,0.5
			S47.12,36,46.844,36z"/>
	</g>
	<g>
		<path class="st0" d="M63.345,36h-6.501c-0.276,0-0.5-0.224-0.5-0.5s0.224-0.5,0.5-0.5h5.996c-0.267-12.729-10.704-23-23.495-23
			c-6.335,0-12.276,2.486-16.729,7c-0.194,0.197-0.511,0.199-0.707,0.005s-0.198-0.511-0.004-0.707
			C26.546,13.592,32.74,11,39.345,11c13.51,0,24.5,10.991,24.5,24.5C63.845,35.776,63.621,36,63.345,36z"/>
	</g>
	<g>
		<path class="st0" d="M56.567,23.997c-0.157,0-0.312-0.074-0.41-0.213C52.313,18.284,46.028,15,39.345,15
			c-0.276,0-0.5-0.224-0.5-0.5s0.224-0.5,0.5-0.5c7.01,0,13.602,3.443,17.633,9.21c0.158,0.227,0.103,0.538-0.124,0.696
			C56.767,23.968,56.667,23.997,56.567,23.997z"/>
	</g>
	<g>
		<path class="st6" d="M61,6.5C61,5.119,59.881,4,58.5,4S56,5.119,56,6.5c-1.381,0-2.5,1.119-2.5,2.5s1.119,2.5,2.5,2.5h5
			c1.381,0,2.5-1.119,2.5-2.5S62.381,6.5,61,6.5z"/>
	</g>
	<g>
		<path class="st0" d="M63.345,52.5H44.008c-2.375,0-4.705-0.817-6.56-2.3l-4.521-3.618c-1.679-1.343-3.786-2.082-5.935-2.082H0.5
			C0.224,44.5,0,44.276,0,44s0.224-0.5,0.5-0.5h26.492c2.375,0,4.704,0.817,6.56,2.301l4.521,3.618
			c1.678,1.342,3.785,2.082,5.935,2.082h19.337c0.276,0,0.5,0.224,0.5,0.5S63.621,52.5,63.345,52.5z"/>
	</g>
	<g>
		<path class="st0" d="M42.845,45.25h-5c-0.276,0-0.5-0.224-0.5-0.5s0.224-0.5,0.5-0.5h5c0.276,0,0.5,0.224,0.5,0.5
			S43.121,45.25,42.845,45.25z"/>
	</g>
	<g>
		<polygon class="st5" points="16.569,44 9.569,44 13.069,26 		"/>
		<path class="st0" d="M16.569,44.5h-7c-0.149,0-0.291-0.067-0.386-0.182s-0.134-0.267-0.105-0.413l3.5-18
			c0.046-0.235,0.252-0.405,0.491-0.405s0.445,0.169,0.491,0.405l3.5,18c0.028,0.146-0.011,0.298-0.105,0.413
			S16.719,44.5,16.569,44.5z M10.176,43.5h5.787l-2.894-14.88L10.176,43.5z"/>
	</g>
	<g>
		<path class="st0" d="M13.069,49c-0.276,0-0.5-0.224-0.5-0.5V36c0-0.276,0.224-0.5,0.5-0.5s0.5,0.224,0.5,0.5v12.5
			C13.569,48.776,13.346,49,13.069,49z"/>
	</g>
	<g>
		<polygon class="st5" points="9.569,44 2.569,44 6.069,26 		"/>
		<path class="st0" d="M9.569,44.5h-7c-0.149,0-0.291-0.067-0.386-0.182s-0.134-0.267-0.105-0.413l3.5-18
			C5.624,25.669,5.83,25.5,6.069,25.5s0.445,0.169,0.491,0.405l3.5,18c0.028,0.146-0.011,0.298-0.105,0.413S9.719,44.5,9.569,44.5z
			 M3.176,43.5h5.787L6.069,28.62L3.176,43.5z"/>
	</g>
	<g>
		<path class="st0" d="M6.069,49c-0.276,0-0.5-0.224-0.5-0.5V36c0-0.276,0.224-0.5,0.5-0.5s0.5,0.224,0.5,0.5v12.5
			C6.569,48.776,6.346,49,6.069,49z"/>
	</g>
	<g>
		<polygon class="st5" points="23.569,44 16.569,44 20.069,26 		"/>
		<path class="st0" d="M23.569,44.5h-7c-0.149,0-0.291-0.067-0.386-0.182s-0.134-0.267-0.105-0.413l3.5-18
			c0.046-0.235,0.252-0.405,0.491-0.405s0.445,0.169,0.491,0.405l3.5,18c0.028,0.146-0.011,0.298-0.105,0.413
			S23.719,44.5,23.569,44.5z M17.176,43.5h5.787l-2.894-14.88L17.176,43.5z"/>
	</g>
	<g>
		<path class="st0" d="M39.188,36H23.954c-0.276,0-0.5-0.224-0.5-0.5s0.224-0.5,0.5-0.5h14.578c-2.427-8.276-10.02-14-18.688-14
			c-4.369,0-8.499,1.418-11.943,4.103c-0.22,0.168-0.533,0.131-0.702-0.087c-0.17-0.218-0.131-0.532,0.087-0.702
			C10.908,21.492,15.25,20,19.845,20c9.341,0,17.494,6.322,19.828,15.375c0.038,0.15,0.006,0.309-0.089,0.431
			C39.489,35.929,39.343,36,39.188,36z"/>
	</g>
	<g>
		<path class="st0" d="M2.186,36H0.5c-0.154,0-0.301-0.071-0.396-0.194c-0.095-0.122-0.127-0.281-0.089-0.431
			c0.597-2.315,1.604-4.508,2.995-6.519c0.157-0.229,0.469-0.284,0.695-0.127c0.228,0.157,0.284,0.468,0.127,0.695
			C2.636,31.156,1.737,33.029,1.156,35h1.029c0.276,0,0.5,0.224,0.5,0.5S2.462,36,2.186,36z"/>
	</g>
	<g>
		<path class="st0" d="M20.069,49c-0.276,0-0.5-0.224-0.5-0.5V36c0-0.276,0.224-0.5,0.5-0.5s0.5,0.224,0.5,0.5v12.5
			C20.569,48.776,20.346,49,20.069,49z"/>
	</g>
	<g>
		<path class="st3" d="M30.5,52h-26C3.119,52,2,53.119,2,54.5v0C2,55.881,3.119,57,4.5,57h26c1.381,0,2.5-1.119,2.5-2.5v0
			C33,53.119,31.881,52,30.5,52z"/>
	</g>
	<g>
		<path class="st3" d="M58,57H15c-1.381,0-2.5,1.119-2.5,2.5v0c0,1.381,1.119,2.5,2.5,2.5h43c1.381,0,2.5-1.119,2.5-2.5v0
			C60.5,58.119,59.381,57,58,57z"/>
	</g>
	<g>
		<path class="st0" d="M51.845,31c-0.276,0-0.5-0.224-0.5-0.5v-4c0-0.276,0.224-0.5,0.5-0.5s0.5,0.224,0.5,0.5v4
			C52.345,30.777,52.121,31,51.845,31z"/>
	</g>
	<g>
		<path class="st0" d="M8.5,14.5C6.019,14.5,4,12.481,4,10s2.019-4.5,4.5-4.5S13,7.519,13,10S10.981,14.5,8.5,14.5z M8.5,6.5
			C6.57,6.5,5,8.07,5,10s1.57,3.5,3.5,3.5S12,11.93,12,10S10.43,6.5,8.5,6.5z"/>
	</g>
	<g>
		<path class="st0" d="M8.5,4.5C8.224,4.5,8,4.276,8,4V2c0-0.276,0.224-0.5,0.5-0.5S9,1.724,9,2v2C9,4.276,8.776,4.5,8.5,4.5z"/>
	</g>
	<g>
		<path class="st0" d="M8.5,18.5C8.224,18.5,8,18.276,8,18v-2c0-0.276,0.224-0.5,0.5-0.5S9,15.724,9,16v2
			C9,18.276,8.776,18.5,8.5,18.5z"/>
	</g>
	<g>
		<path class="st0" d="M16.5,10.5h-2c-0.276,0-0.5-0.224-0.5-0.5s0.224-0.5,0.5-0.5h2c0.276,0,0.5,0.224,0.5,0.5
			S16.776,10.5,16.5,10.5z"/>
	</g>
	<g>
		<path class="st0" d="M2.5,10.5h-2C0.224,10.5,0,10.276,0,10s0.224-0.5,0.5-0.5h2C2.776,9.5,3,9.724,3,10S2.776,10.5,2.5,10.5z"/>
	</g>
	<g>
		<path class="st0" d="M12.742,6.257c-0.128,0-0.256-0.049-0.354-0.146c-0.195-0.195-0.195-0.512,0-0.707l1.415-1.414
			c0.195-0.195,0.512-0.195,0.707,0s0.195,0.512,0,0.707l-1.415,1.414C12.998,6.208,12.87,6.257,12.742,6.257z"/>
	</g>
	<g>
		<path class="st0" d="M2.843,16.157c-0.128,0-0.256-0.049-0.354-0.146c-0.195-0.195-0.195-0.512,0-0.707l1.415-1.414
			c0.195-0.195,0.512-0.195,0.707,0s0.195,0.512,0,0.707L3.196,16.01C3.099,16.108,2.971,16.157,2.843,16.157z"/>
	</g>
	<g>
		<path class="st0" d="M14.157,16.157c-0.128,0-0.256-0.049-0.354-0.146l-1.415-1.414c-0.195-0.195-0.195-0.512,0-0.707
			s0.512-0.195,0.707,0l1.415,1.414c0.195,0.195,0.195,0.512,0,0.707C14.413,16.108,14.285,16.157,14.157,16.157z"/>
	</g>
	<g>
		<path class="st0" d="M4.258,6.257c-0.128,0-0.256-0.049-0.354-0.146L2.489,4.697c-0.195-0.195-0.195-0.512,0-0.707
			s0.512-0.195,0.707,0l1.415,1.414c0.195,0.195,0.195,0.512,0,0.707C4.514,6.208,4.386,6.257,4.258,6.257z"/>
	</g>
</g>
</svg>
