<?xml version="1.0" encoding="utf-8"?>
<!-- Generator: Adobe Illustrator 21.1.0, SVG Export Plug-In . SVG Version: 6.00 Build 0)  -->
<svg version="1.1" id="Icon_Set" xmlns="http://www.w3.org/2000/svg" xmlns:xlink="http://www.w3.org/1999/xlink" x="0px" y="0px"
	 viewBox="0 0 64 64" style="enable-background:new 0 0 64 64;" xml:space="preserve">
<style type="text/css">
	.st0{fill:#263238;}
	.st1{fill:#FFD740;}
	.st2{fill:#FF5252;}
	.st3{fill:#40C4FF;}
	.st4{fill:#4DB6AC;}
	.st5{fill:#FFFFFF;}
	.st6{fill:#FFD345;}
</style>
<g>
	<g>
		<path class="st1" d="M39,13H25c-0.552,0-1-0.448-1-1V6c0-0.552,0.448-1,1-1h14c0.552,0,1,0.448,1,1v6C40,12.552,39.552,13,39,13z"
			/>
		<path class="st0" d="M39,13.5H25c-0.827,0-1.5-0.673-1.5-1.5V6c0-0.827,0.673-1.5,1.5-1.5h14c0.827,0,1.5,0.673,1.5,1.5v6
			C40.5,12.827,39.827,13.5,39,13.5z M25,5.5c-0.275,0-0.5,0.224-0.5,0.5v6c0,0.276,0.225,0.5,0.5,0.5h14c0.275,0,0.5-0.224,0.5-0.5
			V6c0-0.276-0.225-0.5-0.5-0.5H25z"/>
	</g>
	<g>
		<path class="st3" d="M59,13H45c-0.552,0-1-0.448-1-1V6c0-0.552,0.448-1,1-1h14c0.552,0,1,0.448,1,1v6C60,12.552,59.552,13,59,13z"
			/>
		<path class="st0" d="M59,13.5H45c-0.827,0-1.5-0.673-1.5-1.5V6c0-0.827,0.673-1.5,1.5-1.5h14c0.827,0,1.5,0.673,1.5,1.5v6
			C60.5,12.827,59.827,13.5,59,13.5z M45,5.5c-0.275,0-0.5,0.224-0.5,0.5v6c0,0.276,0.225,0.5,0.5,0.5h14c0.275,0,0.5-0.224,0.5-0.5
			V6c0-0.276-0.225-0.5-0.5-0.5H45z"/>
	</g>
	<g>
		<path class="st2" d="M19,13H5c-0.552,0-1-0.448-1-1V6c0-0.552,0.448-1,1-1h14c0.552,0,1,0.448,1,1v6C20,12.552,19.552,13,19,13z"
			/>
		<path class="st0" d="M19,13.5H5c-0.827,0-1.5-0.673-1.5-1.5V6c0-0.827,0.673-1.5,1.5-1.5h14c0.827,0,1.5,0.673,1.5,1.5v6
			C20.5,12.827,19.827,13.5,19,13.5z M5,5.5C4.725,5.5,4.5,5.724,4.5,6v6c0,0.276,0.225,0.5,0.5,0.5h14c0.275,0,0.5-0.224,0.5-0.5V6
			c0-0.276-0.225-0.5-0.5-0.5H5z"/>
	</g>
	<g>
		<path class="st0" d="M22,20.858c-2.752,0-5.504-0.861-7.8-2.583L13.7,17.9c-0.221-0.166-0.266-0.479-0.101-0.7
			c0.167-0.222,0.481-0.265,0.7-0.1l0.5,0.375c4.24,3.18,10.16,3.18,14.4,0l0.5-0.375c0.22-0.166,0.533-0.122,0.7,0.1
			c0.165,0.221,0.12,0.534-0.101,0.7l-0.5,0.375C27.504,19.997,24.752,20.858,22,20.858z"/>
	</g>
	<g>
		<path class="st0" d="M42,20.858c-2.752,0-5.504-0.861-7.8-2.583L33.7,17.9c-0.221-0.166-0.266-0.479-0.101-0.7
			c0.167-0.222,0.48-0.265,0.7-0.1l0.5,0.375c4.24,3.18,10.16,3.18,14.4,0l0.5-0.375c0.22-0.166,0.533-0.122,0.7,0.1
			c0.165,0.221,0.12,0.534-0.101,0.7l-0.5,0.375C47.504,19.997,44.752,20.858,42,20.858z"/>
	</g>
	<g>
		<path class="st4" d="M14,43.5c-0.552,0-1-0.448-1-1v-13h-1c-0.552,0-1,0.448-1,1v14c0,0.552,0.448,1,1,1h11c0.552,0,1-0.448,1-1
			v-1H14z"/>
	</g>
	<g>
		<path class="st0" d="M25,44H14c-0.827,0-1.5-0.673-1.5-1.5v-14c0-0.827,0.673-1.5,1.5-1.5h11c0.827,0,1.5,0.673,1.5,1.5v14
			C26.5,43.327,25.827,44,25,44z M14,28c-0.275,0-0.5,0.224-0.5,0.5v14c0,0.276,0.225,0.5,0.5,0.5h11c0.275,0,0.5-0.224,0.5-0.5v-14
			c0-0.276-0.225-0.5-0.5-0.5H14z"/>
	</g>
	<g>
		<path class="st0" d="M22.75,33h-6.5c-0.276,0-0.5-0.224-0.5-0.5s0.224-0.5,0.5-0.5h6.5c0.276,0,0.5,0.224,0.5,0.5
			S23.026,33,22.75,33z"/>
	</g>
	<g>
		<path class="st0" d="M22.75,36h-6.5c-0.276,0-0.5-0.224-0.5-0.5s0.224-0.5,0.5-0.5h6.5c0.276,0,0.5,0.224,0.5,0.5
			S23.026,36,22.75,36z"/>
	</g>
	<g>
		<path class="st0" d="M22.75,39h-6.5c-0.276,0-0.5-0.224-0.5-0.5s0.224-0.5,0.5-0.5h6.5c0.276,0,0.5,0.224,0.5,0.5
			S23.026,39,22.75,39z"/>
	</g>
	<g>
		<path class="st0" d="M9,36H7c-0.827,0-1.5-0.673-1.5-1.5v-17C5.5,17.224,5.724,17,6,17s0.5,0.224,0.5,0.5v17
			C6.5,34.776,6.725,35,7,35h2c0.276,0,0.5,0.224,0.5,0.5S9.276,36,9,36z"/>
	</g>
	<g>
		<path class="st0" d="M57,36h-2c-0.276,0-0.5-0.224-0.5-0.5S54.724,35,55,35h2c0.275,0,0.5-0.224,0.5-0.5v-17
			c0-0.276,0.224-0.5,0.5-0.5s0.5,0.224,0.5,0.5v17C58.5,35.327,57.827,36,57,36z"/>
	</g>
	<g>
		<path class="st0" d="M27.5,57c-0.128,0-0.256-0.049-0.354-0.146L19.5,49.207l-7.646,7.646c-0.195,0.195-0.512,0.195-0.707,0
			s-0.195-0.512,0-0.707l8-8c0.195-0.195,0.512-0.195,0.707,0l8,8c0.195,0.195,0.195,0.512,0,0.707C27.756,56.951,27.628,57,27.5,57
			z"/>
	</g>
	<g>
		<circle class="st5" cx="11.5" cy="56.5" r="2.5"/>
		<path class="st0" d="M11.5,59.5c-1.654,0-3-1.346-3-3s1.346-3,3-3s3,1.346,3,3S13.154,59.5,11.5,59.5z M11.5,54.5
			c-1.103,0-2,0.897-2,2s0.897,2,2,2s2-0.897,2-2S12.603,54.5,11.5,54.5z"/>
	</g>
	<g>
		<circle class="st5" cx="27.5" cy="56.5" r="2.5"/>
		<path class="st0" d="M27.5,59.5c-1.654,0-3-1.346-3-3s1.346-3,3-3s3,1.346,3,3S29.154,59.5,27.5,59.5z M27.5,54.5
			c-1.103,0-2,0.897-2,2s0.897,2,2,2s2-0.897,2-2S28.603,54.5,27.5,54.5z"/>
	</g>
	<g>
		<path class="st4" d="M41,43.5c-0.552,0-1-0.448-1-1v-13h-1c-0.552,0-1,0.448-1,1v14c0,0.552,0.448,1,1,1h11c0.552,0,1-0.448,1-1
			v-1H41z"/>
	</g>
	<g>
		<path class="st0" d="M52,44H41c-0.827,0-1.5-0.673-1.5-1.5v-14c0-0.827,0.673-1.5,1.5-1.5h11c0.827,0,1.5,0.673,1.5,1.5v14
			C53.5,43.327,52.827,44,52,44z M41,28c-0.275,0-0.5,0.224-0.5,0.5v14c0,0.276,0.225,0.5,0.5,0.5h11c0.275,0,0.5-0.224,0.5-0.5v-14
			c0-0.276-0.225-0.5-0.5-0.5H41z"/>
	</g>
	<g>
		<path class="st0" d="M49.75,33h-6.5c-0.276,0-0.5-0.224-0.5-0.5s0.224-0.5,0.5-0.5h6.5c0.276,0,0.5,0.224,0.5,0.5
			S50.026,33,49.75,33z"/>
	</g>
	<g>
		<path class="st0" d="M49.75,36h-6.5c-0.276,0-0.5-0.224-0.5-0.5s0.224-0.5,0.5-0.5h6.5c0.276,0,0.5,0.224,0.5,0.5
			S50.026,36,49.75,36z"/>
	</g>
	<g>
		<path class="st0" d="M49.75,39h-6.5c-0.276,0-0.5-0.224-0.5-0.5s0.224-0.5,0.5-0.5h6.5c0.276,0,0.5,0.224,0.5,0.5
			S50.026,39,49.75,39z"/>
	</g>
	<g>
		<path class="st0" d="M54.5,57c-0.128,0-0.256-0.049-0.354-0.146L46.5,49.207l-7.646,7.646c-0.195,0.195-0.512,0.195-0.707,0
			s-0.195-0.512,0-0.707l8-8c0.195-0.195,0.512-0.195,0.707,0l8,8c0.195,0.195,0.195,0.512,0,0.707C54.756,56.951,54.628,57,54.5,57
			z"/>
	</g>
	<g>
		<circle class="st5" cx="38.5" cy="56.5" r="2.5"/>
		<path class="st0" d="M38.5,59.5c-1.654,0-3-1.346-3-3s1.346-3,3-3s3,1.346,3,3S40.154,59.5,38.5,59.5z M38.5,54.5
			c-1.103,0-2,0.897-2,2s0.897,2,2,2s2-0.897,2-2S39.603,54.5,38.5,54.5z"/>
	</g>
	<g>
		<circle class="st5" cx="54.5" cy="56.5" r="2.5"/>
		<path class="st0" d="M54.5,59.5c-1.654,0-3-1.346-3-3s1.346-3,3-3s3,1.346,3,3S56.154,59.5,54.5,59.5z M54.5,54.5
			c-1.103,0-2,0.897-2,2s0.897,2,2,2s2-0.897,2-2S55.603,54.5,54.5,54.5z"/>
	</g>
</g>
</svg>
