<?xml version="1.0" encoding="utf-8"?>
<!-- Generator: Adobe Illustrator 21.1.0, SVG Export Plug-In . SVG Version: 6.00 Build 0)  -->
<svg version="1.1" id="Icon_Set" xmlns="http://www.w3.org/2000/svg" xmlns:xlink="http://www.w3.org/1999/xlink" x="0px" y="0px"
	 viewBox="0 0 64 64" style="enable-background:new 0 0 64 64;" xml:space="preserve">
<style type="text/css">
	.st0{fill:#263238;}
	.st1{fill:#FFD740;}
	.st2{fill:#FF5252;}
	.st3{fill:#40C4FF;}
	.st4{fill:#4DB6AC;}
	.st5{fill:#FFFFFF;}
	.st6{fill:#FFD345;}
</style>
<g>
	<g>
		<path class="st0" d="M50.5,22h-48C2.224,22,2,21.776,2,21.5V16c0-1.654,1.346-3,3-3h43c1.654,0,3,1.346,3,3v5.5
			C51,21.776,50.776,22,50.5,22z M3,21h47v-5c0-1.103-0.897-2-2-2H5c-1.103,0-2,0.897-2,2V21z"/>
	</g>
	<g>
		<path class="st0" d="M7,19.5c-1.103,0-2-0.897-2-2s0.897-2,2-2s2,0.897,2,2S8.103,19.5,7,19.5z M7,16.5c-0.551,0-1,0.449-1,1
			s0.449,1,1,1s1-0.449,1-1S7.551,16.5,7,16.5z"/>
	</g>
	<g>
		<path class="st0" d="M12,19.5c-1.103,0-2-0.897-2-2s0.897-2,2-2s2,0.897,2,2S13.103,19.5,12,19.5z M12,16.5c-0.551,0-1,0.449-1,1
			s0.449,1,1,1s1-0.449,1-1S12.551,16.5,12,16.5z"/>
	</g>
	<g>
		<path class="st0" d="M51.5,7h-4C47.224,7,47,6.776,47,6.5S47.224,6,47.5,6h4C51.776,6,52,6.224,52,6.5S51.776,7,51.5,7z"/>
	</g>
	<g>
		<path class="st0" d="M49.5,9C49.224,9,49,8.776,49,8.5v-4C49,4.224,49.224,4,49.5,4S50,4.224,50,4.5v4C50,8.776,49.776,9,49.5,9z"
			/>
	</g>
	<g>
		<path class="st0" d="M58.5,13.5h-4c-0.276,0-0.5-0.224-0.5-0.5s0.224-0.5,0.5-0.5h4c0.276,0,0.5,0.224,0.5,0.5
			S58.776,13.5,58.5,13.5z"/>
	</g>
	<g>
		<path class="st0" d="M56.5,15.5c-0.276,0-0.5-0.224-0.5-0.5v-4c0-0.276,0.224-0.5,0.5-0.5S57,10.724,57,11v4
			C57,15.276,56.776,15.5,56.5,15.5z"/>
	</g>
	<g>
		<path class="st0" d="M38.5,58h-2c-0.276,0-0.5-0.224-0.5-0.5s0.224-0.5,0.5-0.5h2c0.276,0,0.5,0.224,0.5,0.5S38.776,58,38.5,58z"
			/>
	</g>
	<g>
		<path class="st0" d="M34.5,58h-20c-0.276,0-0.5-0.224-0.5-0.5s0.224-0.5,0.5-0.5h20c0.276,0,0.5,0.224,0.5,0.5S34.776,58,34.5,58z
			"/>
	</g>
	<g>
		<path class="st0" d="M11.5,10h-2C9.224,10,9,9.776,9,9.5S9.224,9,9.5,9h2C11.776,9,12,9.224,12,9.5S11.776,10,11.5,10z"/>
	</g>
	<g>
		<path class="st0" d="M33.5,10h-20C13.224,10,13,9.776,13,9.5S13.224,9,13.5,9h20C33.776,9,34,9.224,34,9.5S33.776,10,33.5,10z"/>
	</g>
	<g>
		<path class="st1" d="M54.553,56.921L50.5,59.5l-4.053-2.579C42.12,54.167,39.5,49.394,39.5,44.266V34.5l0.424,0.27
			c2.966,1.887,6.844,1.461,9.33-1.024L50.5,32.5l1.246,1.246c2.486,2.486,6.364,2.911,9.33,1.024L61.5,34.5v9.766
			C61.5,49.394,58.88,54.167,54.553,56.921z"/>
		<path class="st0" d="M50.5,60c-0.094,0-0.187-0.026-0.269-0.078l-4.053-2.579C41.684,54.482,39,49.594,39,44.266V34.5
			c0-0.183,0.1-0.351,0.26-0.438c0.159-0.087,0.354-0.081,0.509,0.017l0.424,0.27c2.79,1.775,6.371,1.381,8.708-0.956l1.246-1.246
			c0.195-0.195,0.512-0.195,0.707,0l1.246,1.246c2.337,2.339,5.92,2.731,8.708,0.956l0.424-0.27
			c0.154-0.098,0.348-0.104,0.509-0.017C61.9,34.149,62,34.317,62,34.5v9.766c0,5.328-2.684,10.217-7.179,13.077l-4.053,2.579
			C50.687,59.974,50.594,60,50.5,60z M40,35.399v8.866c0,4.984,2.511,9.558,6.716,12.233l3.784,2.408l3.784-2.408l0,0
			C58.489,53.823,61,49.25,61,44.266v-8.866c-3.135,1.787-7.032,1.275-9.607-1.3L50.5,33.207l-0.893,0.892
			C47.032,36.676,43.133,37.187,40,35.399z"/>
	</g>
	<g>
		<path class="st0" d="M40.219,54H5c-1.654,0-3-1.346-3-3V21.5C2,21.224,2.224,21,2.5,21h48c0.276,0,0.5,0.224,0.5,0.5v9
			c0,0.276-0.224,0.5-0.5,0.5S50,30.777,50,30.5V22H3v29c0,1.103,0.897,2,2,2h35.219c0.276,0,0.5,0.224,0.5,0.5S40.495,54,40.219,54
			z"/>
	</g>
	<g>
		<path class="st5" d="M50.5,51L50.5,51c-1.105,0-2-0.895-2-2v-6c0-1.105,0.895-2,2-2h0c1.105,0,2,0.895,2,2v6
			C52.5,50.105,51.605,51,50.5,51z"/>
		<path class="st0" d="M50.5,51.5c-1.379,0-2.5-1.122-2.5-2.5v-6c0-1.378,1.121-2.5,2.5-2.5S53,41.622,53,43v6
			C53,50.378,51.879,51.5,50.5,51.5z M50.5,41.5c-0.827,0-1.5,0.673-1.5,1.5v6c0,0.827,0.673,1.5,1.5,1.5S52,49.827,52,49v-6
			C52,42.173,51.327,41.5,50.5,41.5z"/>
	</g>
	<g>
		<path class="st0" d="M45.5,50.25c-0.276,0-0.5-0.224-0.5-0.5v-2.5c0-0.276,0.224-0.5,0.5-0.5H48c0.276,0,0.5,0.224,0.5,0.5
			s-0.224,0.5-0.5,0.5h-2v2C46,50.026,45.776,50.25,45.5,50.25z"/>
	</g>
	<g>
		<path class="st0" d="M48,45.25h-2.5c-0.276,0-0.5-0.224-0.5-0.5v-2.5c0-0.276,0.224-0.5,0.5-0.5s0.5,0.224,0.5,0.5v2h2
			c0.276,0,0.5,0.224,0.5,0.5S48.276,45.25,48,45.25z"/>
	</g>
	<g>
		<path class="st0" d="M55.5,50.25c-0.276,0-0.5-0.224-0.5-0.5v-2h-2c-0.276,0-0.5-0.224-0.5-0.5s0.224-0.5,0.5-0.5h2.5
			c0.276,0,0.5,0.224,0.5,0.5v2.5C56,50.026,55.776,50.25,55.5,50.25z"/>
	</g>
	<g>
		<path class="st0" d="M55.5,45.25H53c-0.276,0-0.5-0.224-0.5-0.5s0.224-0.5,0.5-0.5h2v-2c0-0.276,0.224-0.5,0.5-0.5
			s0.5,0.224,0.5,0.5v2.5C56,45.026,55.776,45.25,55.5,45.25z"/>
	</g>
	<g>
		<path class="st0" d="M52.5,43.5h-4c-0.276,0-0.5-0.224-0.5-0.5s0.224-0.5,0.5-0.5h4c0.276,0,0.5,0.224,0.5,0.5
			S52.776,43.5,52.5,43.5z"/>
	</g>
	<g>
		<path class="st0" d="M30.5,39.5h-23C7.224,39.5,7,39.276,7,39s0.224-0.5,0.5-0.5h23c0.276,0,0.5,0.224,0.5,0.5
			S30.776,39.5,30.5,39.5z"/>
	</g>
	<g>
		<path class="st0" d="M30.5,43.5h-23C7.224,43.5,7,43.276,7,43s0.224-0.5,0.5-0.5h23c0.276,0,0.5,0.224,0.5,0.5
			S30.776,43.5,30.5,43.5z"/>
	</g>
	<g>
		<path class="st0" d="M20.5,47.5h-13C7.224,47.5,7,47.276,7,47s0.224-0.5,0.5-0.5h13c0.276,0,0.5,0.224,0.5,0.5
			S20.776,47.5,20.5,47.5z"/>
	</g>
	<g>
		<rect x="7.5" y="28" class="st2" width="27" height="5"/>
		<path class="st0" d="M34.5,33.5h-27C7.224,33.5,7,33.276,7,33v-5c0-0.276,0.224-0.5,0.5-0.5h27c0.276,0,0.5,0.224,0.5,0.5v5
			C35,33.276,34.776,33.5,34.5,33.5z M8,32.5h26v-4H8V32.5z"/>
	</g>
</g>
</svg>
