<?xml version="1.0" encoding="utf-8"?>
<!-- Generator: Adobe Illustrator 21.1.0, SVG Export Plug-In . SVG Version: 6.00 Build 0)  -->
<svg version="1.1" id="Icon_Set" xmlns="http://www.w3.org/2000/svg" xmlns:xlink="http://www.w3.org/1999/xlink" x="0px" y="0px"
	 viewBox="0 0 64 64" style="enable-background:new 0 0 64 64;" xml:space="preserve">
<style type="text/css">
	.st0{fill:#263238;}
	.st1{fill:#FFD740;}
	.st2{fill:#FF5252;}
	.st3{fill:#40C4FF;}
	.st4{fill:#4DB6AC;}
	.st5{fill:#FFFFFF;}
	.st6{fill:#FFD345;}
</style>
<g>
	<g>
		<path class="st0" d="M26,9.5h-1c-0.276,0-0.5-0.224-0.5-0.5s0.224-0.5,0.5-0.5h1c0.276,0,0.5,0.224,0.5,0.5S26.276,9.5,26,9.5z"/>
	</g>
	<g>
		<path class="st0" d="M39,9.5H28c-0.276,0-0.5-0.224-0.5-0.5s0.224-0.5,0.5-0.5h11c0.276,0,0.5,0.224,0.5,0.5S39.276,9.5,39,9.5z"
			/>
	</g>
	<g>
		<path class="st0" d="M39,56.5h-1c-0.276,0-0.5-0.224-0.5-0.5s0.224-0.5,0.5-0.5h1c0.276,0,0.5,0.224,0.5,0.5S39.276,56.5,39,56.5z
			"/>
	</g>
	<g>
		<path class="st0" d="M36,56.5H25c-0.276,0-0.5-0.224-0.5-0.5s0.224-0.5,0.5-0.5h11c0.276,0,0.5,0.224,0.5,0.5S36.276,56.5,36,56.5
			z"/>
	</g>
	<g>
		<path class="st0" d="M50.25,45.5c-0.276,0-0.5-0.224-0.5-0.5V21c0-0.276,0.224-0.5,0.5-0.5s0.5,0.224,0.5,0.5v24
			C50.75,45.276,50.526,45.5,50.25,45.5z"/>
	</g>
	<g>
		<circle class="st2" cx="11.75" cy="12.525" r="6"/>
		<path class="st0" d="M11.75,19.025c-3.584,0-6.5-2.916-6.5-6.5s2.916-6.5,6.5-6.5s6.5,2.916,6.5,6.5S15.334,19.025,11.75,19.025z
			 M11.75,7.025c-3.032,0-5.5,2.468-5.5,5.5s2.468,5.5,5.5,5.5s5.5-2.468,5.5-5.5S14.782,7.025,11.75,7.025z"/>
	</g>
	<g>
		<circle class="st1" cx="11.75" cy="32.525" r="6"/>
		<path class="st0" d="M11.75,39.025c-3.584,0-6.5-2.916-6.5-6.5s2.916-6.5,6.5-6.5s6.5,2.916,6.5,6.5S15.334,39.025,11.75,39.025z
			 M11.75,27.025c-3.032,0-5.5,2.468-5.5,5.5s2.468,5.5,5.5,5.5s5.5-2.468,5.5-5.5S14.782,27.025,11.75,27.025z"/>
	</g>
	<g>
		<path class="st0" d="M11.75,59.025c-3.584,0-6.5-2.916-6.5-6.5s2.916-6.5,6.5-6.5s6.5,2.916,6.5,6.5S15.334,59.025,11.75,59.025z
			 M11.75,47.025c-3.032,0-5.5,2.468-5.5,5.5s2.468,5.5,5.5,5.5s5.5-2.468,5.5-5.5S14.782,47.025,11.75,47.025z"/>
	</g>
	<g>
		<path class="st0" d="M40.75,13.025h-20c-0.276,0-0.5-0.224-0.5-0.5s0.224-0.5,0.5-0.5h20c0.276,0,0.5,0.224,0.5,0.5
			S41.026,13.025,40.75,13.025z"/>
	</g>
	<g>
		<path class="st0" d="M30.75,53.025h-10c-0.276,0-0.5-0.224-0.5-0.5s0.224-0.5,0.5-0.5h9.5v-39.5c0-0.276,0.224-0.5,0.5-0.5
			s0.5,0.224,0.5,0.5v40C31.25,52.802,31.026,53.025,30.75,53.025z"/>
	</g>
	<g>
		<path class="st0" d="M30.75,33.025h-10c-0.276,0-0.5-0.224-0.5-0.5s0.224-0.5,0.5-0.5h10c0.276,0,0.5,0.224,0.5,0.5
			S31.026,33.025,30.75,33.025z"/>
	</g>
	<g>
		<circle class="st4" cx="50.25" cy="52.5" r="7.5"/>
	</g>
	<g>
		<circle class="st5" cx="50.25" cy="32.5" r="7.5"/>
		<path class="st0" d="M50.25,40.5c-4.411,0-8-3.589-8-8s3.589-8,8-8s8,3.589,8,8S54.661,40.5,50.25,40.5z M50.25,25.5
			c-3.859,0-7,3.141-7,7s3.141,7,7,7s7-3.141,7-7S54.109,25.5,50.25,25.5z"/>
	</g>
	<g>
		<path class="st0" d="M48.836,55.328c-0.128,0-0.256-0.049-0.354-0.146l-2.828-2.828c-0.195-0.195-0.195-0.512,0-0.707
			s0.512-0.195,0.707,0l2.475,2.475l4.949-4.949c0.195-0.195,0.512-0.195,0.707,0s0.195,0.512,0,0.707l-5.303,5.303
			C49.092,55.279,48.964,55.328,48.836,55.328z"/>
	</g>
	<g>
		<path class="st0" d="M50.25,33h-5c-0.276,0-0.5-0.224-0.5-0.5s0.224-0.5,0.5-0.5h4.5v-4.5c0-0.276,0.224-0.5,0.5-0.5
			s0.5,0.224,0.5,0.5v5C50.75,32.776,50.526,33,50.25,33z"/>
	</g>
	<g>
		<path class="st0" d="M51.143,21.5h-1.785c-0.714,0-1.333-0.507-1.474-1.204l-0.182-0.947c-0.777-0.285-1.496-0.699-2.146-1.236
			l-0.936,0.323c-0.676,0.229-1.424-0.056-1.78-0.668l-0.888-1.525c-0.36-0.619-0.229-1.411,0.311-1.884l0.738-0.63
			c-0.072-0.412-0.108-0.824-0.108-1.229s0.036-0.816,0.108-1.228l-0.737-0.631c-0.541-0.473-0.672-1.265-0.311-1.884l0.887-1.525
			c0.357-0.612,1.101-0.892,1.78-0.669l0.935,0.326c0.649-0.538,1.369-0.953,2.147-1.238l0.181-0.947
			c0.141-0.697,0.76-1.204,1.474-1.204h1.784c0.714,0,1.334,0.507,1.475,1.204l0.182,0.947c0.778,0.285,1.497,0.699,2.146,1.236
			l0.936-0.323c0.675-0.229,1.423,0.056,1.78,0.668l0.888,1.525c0.36,0.619,0.229,1.411-0.311,1.884l-0.738,0.63
			c0.072,0.412,0.108,0.824,0.108,1.229s-0.036,0.816-0.108,1.228l0.737,0.631c0.541,0.473,0.672,1.265,0.311,1.884l-0.887,1.525
			c-0.357,0.612-1.101,0.893-1.78,0.669l-0.935-0.325c-0.648,0.537-1.368,0.952-2.146,1.237l-0.182,0.947
			C52.476,20.993,51.856,21.5,51.143,21.5z M45.621,17.006c0.121,0,0.242,0.044,0.336,0.13c0.701,0.638,1.504,1.1,2.385,1.374
			c0.209,0.065,0.352,0.259,0.352,0.478v0.313l0.171,0.798c0.047,0.232,0.254,0.401,0.493,0.401h1.785
			c0.239,0,0.446-0.169,0.493-0.401l0.181-0.896l-0.01-0.215c0-0.219,0.143-0.412,0.352-0.478c0.882-0.274,1.685-0.736,2.384-1.374
			c0.162-0.147,0.399-0.173,0.586-0.063l0.28,0.161l0.789,0.255c0.225,0.074,0.477-0.019,0.597-0.225l0.888-1.525
			c0.12-0.206,0.077-0.469-0.104-0.626l-0.689-0.602l-0.198-0.103c-0.189-0.109-0.287-0.329-0.239-0.543
			c0.104-0.458,0.155-0.918,0.155-1.365s-0.052-0.907-0.155-1.365c-0.048-0.214,0.05-0.435,0.24-0.543l0.276-0.158l0.611-0.546
			c0.18-0.157,0.223-0.42,0.104-0.626l-0.889-1.525c-0.119-0.206-0.37-0.303-0.597-0.224l-0.879,0.294l-0.19,0.121
			c-0.187,0.107-0.424,0.083-0.586-0.063c-0.699-0.638-1.502-1.1-2.384-1.374c-0.209-0.065-0.352-0.259-0.352-0.478V5.7
			l-0.171-0.799C51.589,4.669,51.381,4.5,51.142,4.5h-1.784c-0.239,0-0.446,0.169-0.493,0.401l-0.181,0.897l0.01,0.214
			c0,0.219-0.143,0.412-0.352,0.478c-0.881,0.274-1.684,0.736-2.385,1.374c-0.161,0.146-0.4,0.171-0.585,0.063l-0.28-0.161
			l-0.789-0.255c-0.226-0.076-0.478,0.018-0.597,0.225l-0.888,1.525c-0.12,0.206-0.077,0.469,0.104,0.626l0.69,0.603l0.196,0.102
			c0.19,0.108,0.288,0.329,0.24,0.543c-0.104,0.458-0.155,0.918-0.155,1.365s0.052,0.907,0.155,1.365
			c0.048,0.214-0.05,0.434-0.239,0.543l-0.277,0.159l-0.611,0.545c-0.18,0.157-0.223,0.42-0.104,0.626l0.889,1.525
			c0.119,0.207,0.373,0.303,0.597,0.224l0.879-0.294l0.19-0.121C45.449,17.027,45.535,17.006,45.621,17.006z M50.277,16.5
			c-2.206,0-4-1.794-4-4s1.794-4,4-4s4,1.794,4,4S52.483,16.5,50.277,16.5z M50.277,9.5c-1.654,0-3,1.346-3,3s1.346,3,3,3
			s3-1.346,3-3S51.932,9.5,50.277,9.5z"/>
	</g>
</g>
</svg>
