<?xml version="1.0" encoding="utf-8"?>
<!-- Generator: Adobe Illustrator 21.1.0, SVG Export Plug-In . SVG Version: 6.00 Build 0)  -->
<svg version="1.1" id="Icon_Set" xmlns="http://www.w3.org/2000/svg" xmlns:xlink="http://www.w3.org/1999/xlink" x="0px" y="0px"
	 viewBox="0 0 64 64" style="enable-background:new 0 0 64 64;" xml:space="preserve">
<style type="text/css">
	.st0{fill:#263238;}
	.st1{fill:#FFD740;}
	.st2{fill:#FF5252;}
	.st3{fill:#40C4FF;}
	.st4{fill:#4DB6AC;}
	.st5{fill:#FFFFFF;}
	.st6{fill:#FFD345;}
</style>
<g>
	<g>
		<path class="st0" d="M60,59.75H4c-0.276,0-0.5-0.224-0.5-0.5v-51c0-0.276,0.224-0.5,0.5-0.5s0.5,0.224,0.5,0.5v50.5H60
			c0.276,0,0.5,0.224,0.5,0.5S60.276,59.75,60,59.75z"/>
	</g>
	<g>
		<path class="st0" d="M28.031,4.75h-4c-0.276,0-0.5-0.224-0.5-0.5s0.224-0.5,0.5-0.5h4c0.276,0,0.5,0.224,0.5,0.5
			S28.308,4.75,28.031,4.75z"/>
	</g>
	<g>
		<path class="st0" d="M26.031,6.75c-0.276,0-0.5-0.224-0.5-0.5v-4c0-0.276,0.224-0.5,0.5-0.5s0.5,0.224,0.5,0.5v4
			C26.531,6.526,26.308,6.75,26.031,6.75z"/>
	</g>
	<g>
		<path class="st0" d="M19.031,12.75h-4c-0.276,0-0.5-0.224-0.5-0.5s0.224-0.5,0.5-0.5h4c0.276,0,0.5,0.224,0.5,0.5
			S19.308,12.75,19.031,12.75z"/>
	</g>
	<g>
		<path class="st0" d="M17.031,14.75c-0.276,0-0.5-0.224-0.5-0.5v-4c0-0.276,0.224-0.5,0.5-0.5s0.5,0.224,0.5,0.5v4
			C17.531,14.526,17.308,14.75,17.031,14.75z"/>
	</g>
	<g>
		<path class="st0" d="M53,14.25h-1c-0.276,0-0.5-0.224-0.5-0.5s0.224-0.5,0.5-0.5h1c0.276,0,0.5,0.224,0.5,0.5
			S53.276,14.25,53,14.25z"/>
	</g>
	<g>
		<path class="st0" d="M50,14.25H39c-0.276,0-0.5-0.224-0.5-0.5s0.224-0.5,0.5-0.5h11c0.276,0,0.5,0.224,0.5,0.5
			S50.276,14.25,50,14.25z"/>
	</g>
	<g>
		<path class="st0" d="M46,11.25h-1c-0.276,0-0.5-0.224-0.5-0.5s0.224-0.5,0.5-0.5h1c0.276,0,0.5,0.224,0.5,0.5
			S46.276,11.25,46,11.25z"/>
	</g>
	<g>
		<path class="st0" d="M59,11.25H48c-0.276,0-0.5-0.224-0.5-0.5s0.224-0.5,0.5-0.5h11c0.276,0,0.5,0.224,0.5,0.5
			S59.276,11.25,59,11.25z"/>
	</g>
	<g>
		<path class="st0" d="M12,62.25c-0.276,0-0.5-0.224-0.5-0.5v-2.5c0-0.276,0.224-0.5,0.5-0.5s0.5,0.224,0.5,0.5v2.5
			C12.5,62.026,12.276,62.25,12,62.25z"/>
	</g>
	<g>
		<path class="st0" d="M22,62.25c-0.276,0-0.5-0.224-0.5-0.5v-2.5c0-0.276,0.224-0.5,0.5-0.5s0.5,0.224,0.5,0.5v2.5
			C22.5,62.026,22.276,62.25,22,62.25z"/>
	</g>
	<g>
		<path class="st0" d="M32,62.25c-0.276,0-0.5-0.224-0.5-0.5v-2.5c0-0.276,0.224-0.5,0.5-0.5s0.5,0.224,0.5,0.5v2.5
			C32.5,62.026,32.276,62.25,32,62.25z"/>
	</g>
	<g>
		<path class="st0" d="M42,62.25c-0.276,0-0.5-0.224-0.5-0.5v-2.5c0-0.276,0.224-0.5,0.5-0.5s0.5,0.224,0.5,0.5v2.5
			C42.5,62.026,42.276,62.25,42,62.25z"/>
	</g>
	<g>
		<path class="st0" d="M52,62.25c-0.276,0-0.5-0.224-0.5-0.5v-2.5c0-0.276,0.224-0.5,0.5-0.5s0.5,0.224,0.5,0.5v2.5
			C52.5,62.026,52.276,62.25,52,62.25z"/>
	</g>
	<g>
		<path class="st0" d="M20.5,59.75h-7c-0.276,0-0.5-0.224-0.5-0.5v-14.5c0-0.827,0.673-1.5,1.5-1.5h5c0.827,0,1.5,0.673,1.5,1.5
			v14.5C21,59.526,20.776,59.75,20.5,59.75z M14,58.75h6v-14c0-0.276-0.225-0.5-0.5-0.5h-5c-0.275,0-0.5,0.224-0.5,0.5V58.75z"/>
	</g>
	<g>
		<path class="st0" d="M50.5,59.75h-7c-0.276,0-0.5-0.224-0.5-0.5v-14.5c0-0.827,0.673-1.5,1.5-1.5h5c0.827,0,1.5,0.673,1.5,1.5
			v14.5C51,59.526,50.776,59.75,50.5,59.75z M44,58.75h6v-14c0-0.276-0.225-0.5-0.5-0.5h-5c-0.275,0-0.5,0.224-0.5,0.5V58.75z"/>
	</g>
	<g>
		<path class="st4" d="M30.5,59.25h-7v-24c0-0.552,0.448-1,1-1h5c0.552,0,1,0.448,1,1V59.25z"/>
		<path class="st0" d="M30.5,59.75h-7c-0.276,0-0.5-0.224-0.5-0.5v-24c0-0.827,0.673-1.5,1.5-1.5h5c0.827,0,1.5,0.673,1.5,1.5v24
			C31,59.526,30.776,59.75,30.5,59.75z M24,58.75h6v-23.5c0-0.276-0.225-0.5-0.5-0.5h-5c-0.275,0-0.5,0.224-0.5,0.5V58.75z"/>
	</g>
	<g>
		<path class="st3" d="M40.5,59.25h-7v-24c0-0.552,0.448-1,1-1h5c0.552,0,1,0.448,1,1V59.25z"/>
		<path class="st0" d="M40.5,59.75h-7c-0.276,0-0.5-0.224-0.5-0.5v-24c0-0.827,0.673-1.5,1.5-1.5h5c0.827,0,1.5,0.673,1.5,1.5v24
			C41,59.526,40.776,59.75,40.5,59.75z M34,58.75h6v-23.5c0-0.276-0.225-0.5-0.5-0.5h-5c-0.275,0-0.5,0.224-0.5,0.5V58.75z"/>
	</g>
	<g>
		<path class="st0" d="M16.725,33.542c-2.031,0-4.063-0.583-5.822-1.756l-0.181-0.121c-0.229-0.153-0.291-0.464-0.138-0.693
			c0.154-0.23,0.464-0.291,0.694-0.138l0.18,0.12c3.306,2.204,7.68,2.107,10.887-0.244l3.445-2.527c3.715-2.724,8.705-2.724,12.42,0
			l3.445,2.527c3.205,2.351,7.582,2.448,10.888,0.244l0.179-0.12c0.229-0.153,0.54-0.092,0.694,0.138
			c0.153,0.229,0.092,0.54-0.138,0.693l-0.18,0.12c-3.657,2.437-8.493,2.328-12.035-0.269l-3.445-2.527
			c-3.36-2.465-7.876-2.464-11.236,0l-3.445,2.527C21.099,32.864,18.912,33.542,16.725,33.542z"/>
	</g>
	<g>
		<circle class="st1" cx="32" cy="26.651" r="2.5"/>
		<path class="st0" d="M32,29.651c-1.654,0-3-1.346-3-3s1.346-3,3-3s3,1.346,3,3S33.654,29.651,32,29.651z M32,24.651
			c-1.103,0-2,0.897-2,2s0.897,2,2,2s2-0.897,2-2S33.103,24.651,32,24.651z"/>
	</g>
</g>
</svg>
