<?xml version="1.0" encoding="utf-8"?>
<!-- Generator: Adobe Illustrator 21.1.0, SVG Export Plug-In . SVG Version: 6.00 Build 0)  -->
<svg version="1.1" id="Icon_Set" xmlns="http://www.w3.org/2000/svg" xmlns:xlink="http://www.w3.org/1999/xlink" x="0px" y="0px"
	 viewBox="0 0 64 64" style="enable-background:new 0 0 64 64;" xml:space="preserve">
<style type="text/css">
	.st0{fill:#263238;}
	.st1{fill:#FFD740;}
	.st2{fill:#FF5252;}
	.st3{fill:#40C4FF;}
	.st4{fill:#4DB6AC;}
	.st5{fill:#FFFFFF;}
	.st6{fill:#FFD345;}
</style>
<g>
	<g>
		<path class="st0" d="M60,59.25H4c-0.276,0-0.5-0.224-0.5-0.5v-51c0-0.276,0.224-0.5,0.5-0.5s0.5,0.224,0.5,0.5v50.5H60
			c0.276,0,0.5,0.224,0.5,0.5S60.276,59.25,60,59.25z"/>
	</g>
	<g>
		<path class="st1" d="M4,29.75v-8h39c0.552,0,1,0.448,1,1v6c0,0.552-0.448,1-1,1H4z"/>
		<path class="st0" d="M43,30.25H4c-0.276,0-0.5-0.224-0.5-0.5v-8c0-0.276,0.224-0.5,0.5-0.5h39c0.827,0,1.5,0.673,1.5,1.5v6
			C44.5,29.577,43.827,30.25,43,30.25z M4.5,29.25H43c0.276,0,0.5-0.224,0.5-0.5v-6c0-0.276-0.224-0.5-0.5-0.5H4.5V29.25z"/>
	</g>
	<g>
		<path class="st3" d="M4,53.75v-8h32.5c0.552,0,1,0.448,1,1v6c0,0.552-0.448,1-1,1H4z"/>
		<path class="st0" d="M36.5,54.25H4c-0.276,0-0.5-0.224-0.5-0.5v-8c0-0.276,0.224-0.5,0.5-0.5h32.5c0.827,0,1.5,0.673,1.5,1.5v6
			C38,53.577,37.327,54.25,36.5,54.25z M4.5,53.25h32c0.276,0,0.5-0.224,0.5-0.5v-6c0-0.276-0.224-0.5-0.5-0.5h-32V53.25z"/>
	</g>
	<g>
		<path class="st4" d="M4,41.75v-8h46.5c0.552,0,1,0.448,1,1v6c0,0.552-0.448,1-1,1H4z"/>
		<path class="st0" d="M50.5,42.25H4c-0.276,0-0.5-0.224-0.5-0.5v-8c0-0.276,0.224-0.5,0.5-0.5h46.5c0.827,0,1.5,0.673,1.5,1.5v6
			C52,41.577,51.327,42.25,50.5,42.25z M4.5,41.25h46c0.276,0,0.5-0.224,0.5-0.5v-6c0-0.276-0.224-0.5-0.5-0.5h-46V41.25z"/>
	</g>
	<g>
		<path class="st0" d="M28.032,4.25h-4c-0.276,0-0.5-0.224-0.5-0.5s0.224-0.5,0.5-0.5h4c0.276,0,0.5,0.224,0.5,0.5
			S28.308,4.25,28.032,4.25z"/>
	</g>
	<g>
		<path class="st0" d="M26.032,6.25c-0.276,0-0.5-0.224-0.5-0.5v-4c0-0.276,0.224-0.5,0.5-0.5s0.5,0.224,0.5,0.5v4
			C26.532,6.026,26.308,6.25,26.032,6.25z"/>
	</g>
	<g>
		<path class="st0" d="M19.032,12.25h-4c-0.276,0-0.5-0.224-0.5-0.5s0.224-0.5,0.5-0.5h4c0.276,0,0.5,0.224,0.5,0.5
			S19.308,12.25,19.032,12.25z"/>
	</g>
	<g>
		<path class="st0" d="M17.032,14.25c-0.276,0-0.5-0.224-0.5-0.5v-4c0-0.276,0.224-0.5,0.5-0.5s0.5,0.224,0.5,0.5v4
			C17.532,14.026,17.308,14.25,17.032,14.25z"/>
	</g>
	<g>
		<path class="st0" d="M53,13.75h-1c-0.276,0-0.5-0.224-0.5-0.5s0.224-0.5,0.5-0.5h1c0.276,0,0.5,0.224,0.5,0.5
			S53.276,13.75,53,13.75z"/>
	</g>
	<g>
		<path class="st0" d="M50,13.75H39c-0.276,0-0.5-0.224-0.5-0.5s0.224-0.5,0.5-0.5h11c0.276,0,0.5,0.224,0.5,0.5
			S50.276,13.75,50,13.75z"/>
	</g>
	<g>
		<path class="st0" d="M46,10.75h-1c-0.276,0-0.5-0.224-0.5-0.5s0.224-0.5,0.5-0.5h1c0.276,0,0.5,0.224,0.5,0.5
			S46.276,10.75,46,10.75z"/>
	</g>
	<g>
		<path class="st0" d="M59,10.75H48c-0.276,0-0.5-0.224-0.5-0.5s0.224-0.5,0.5-0.5h11c0.276,0,0.5,0.224,0.5,0.5
			S59.276,10.75,59,10.75z"/>
	</g>
	<g>
		<path class="st0" d="M12,61.75c-0.276,0-0.5-0.224-0.5-0.5v-2.5c0-0.276,0.224-0.5,0.5-0.5s0.5,0.224,0.5,0.5v2.5
			C12.5,61.526,12.276,61.75,12,61.75z"/>
	</g>
	<g>
		<path class="st0" d="M22,61.75c-0.276,0-0.5-0.224-0.5-0.5v-2.5c0-0.276,0.224-0.5,0.5-0.5s0.5,0.224,0.5,0.5v2.5
			C22.5,61.526,22.276,61.75,22,61.75z"/>
	</g>
	<g>
		<path class="st0" d="M32,61.75c-0.276,0-0.5-0.224-0.5-0.5v-2.5c0-0.276,0.224-0.5,0.5-0.5s0.5,0.224,0.5,0.5v2.5
			C32.5,61.526,32.276,61.75,32,61.75z"/>
	</g>
	<g>
		<path class="st0" d="M42,61.75c-0.276,0-0.5-0.224-0.5-0.5v-2.5c0-0.276,0.224-0.5,0.5-0.5s0.5,0.224,0.5,0.5v2.5
			C42.5,61.526,42.276,61.75,42,61.75z"/>
	</g>
	<g>
		<path class="st0" d="M52,61.75c-0.276,0-0.5-0.224-0.5-0.5v-2.5c0-0.276,0.224-0.5,0.5-0.5s0.5,0.224,0.5,0.5v2.5
			C52.5,61.526,52.276,61.75,52,61.75z"/>
	</g>
</g>
</svg>
