<?xml version="1.0" encoding="utf-8"?>
<!-- Generator: Adobe Illustrator 21.1.0, SVG Export Plug-In . SVG Version: 6.00 Build 0)  -->
<svg version="1.1" id="Icon_Set" xmlns="http://www.w3.org/2000/svg" xmlns:xlink="http://www.w3.org/1999/xlink" x="0px" y="0px"
	 viewBox="0 0 64 64" style="enable-background:new 0 0 64 64;" xml:space="preserve">
<style type="text/css">
	.st0{fill:#263238;}
	.st1{fill:#FFD740;}
	.st2{fill:#FF5252;}
	.st3{fill:#40C4FF;}
	.st4{fill:#4DB6AC;}
	.st5{fill:#FFFFFF;}
	.st6{fill:#FFD345;}
</style>
<g>
	<g>
		<path class="st0" d="M60,59.75H4c-0.276,0-0.5-0.224-0.5-0.5v-51c0-0.276,0.224-0.5,0.5-0.5s0.5,0.224,0.5,0.5v50.5H60
			c0.276,0,0.5,0.224,0.5,0.5S60.276,59.75,60,59.75z"/>
	</g>
	<g>
		<path class="st0" d="M28.032,4.75h-4c-0.276,0-0.5-0.224-0.5-0.5s0.224-0.5,0.5-0.5h4c0.276,0,0.5,0.224,0.5,0.5
			S28.308,4.75,28.032,4.75z"/>
	</g>
	<g>
		<path class="st0" d="M26.032,6.75c-0.276,0-0.5-0.224-0.5-0.5v-4c0-0.276,0.224-0.5,0.5-0.5s0.5,0.224,0.5,0.5v4
			C26.532,6.526,26.308,6.75,26.032,6.75z"/>
	</g>
	<g>
		<path class="st0" d="M19.032,12.75h-4c-0.276,0-0.5-0.224-0.5-0.5s0.224-0.5,0.5-0.5h4c0.276,0,0.5,0.224,0.5,0.5
			S19.308,12.75,19.032,12.75z"/>
	</g>
	<g>
		<path class="st0" d="M17.032,14.75c-0.276,0-0.5-0.224-0.5-0.5v-4c0-0.276,0.224-0.5,0.5-0.5s0.5,0.224,0.5,0.5v4
			C17.532,14.526,17.308,14.75,17.032,14.75z"/>
	</g>
	<g>
		<path class="st0" d="M53,14.25h-1c-0.276,0-0.5-0.224-0.5-0.5s0.224-0.5,0.5-0.5h1c0.276,0,0.5,0.224,0.5,0.5
			S53.276,14.25,53,14.25z"/>
	</g>
	<g>
		<path class="st0" d="M50,14.25H39c-0.276,0-0.5-0.224-0.5-0.5s0.224-0.5,0.5-0.5h11c0.276,0,0.5,0.224,0.5,0.5
			S50.276,14.25,50,14.25z"/>
	</g>
	<g>
		<path class="st0" d="M46,11.25h-1c-0.276,0-0.5-0.224-0.5-0.5s0.224-0.5,0.5-0.5h1c0.276,0,0.5,0.224,0.5,0.5
			S46.276,11.25,46,11.25z"/>
	</g>
	<g>
		<path class="st0" d="M59,11.25H48c-0.276,0-0.5-0.224-0.5-0.5s0.224-0.5,0.5-0.5h11c0.276,0,0.5,0.224,0.5,0.5
			S59.276,11.25,59,11.25z"/>
	</g>
	<g>
		<path class="st0" d="M12,62.25c-0.276,0-0.5-0.224-0.5-0.5v-2.5c0-0.276,0.224-0.5,0.5-0.5s0.5,0.224,0.5,0.5v2.5
			C12.5,62.026,12.276,62.25,12,62.25z"/>
	</g>
	<g>
		<path class="st0" d="M22,62.25c-0.276,0-0.5-0.224-0.5-0.5v-2.5c0-0.276,0.224-0.5,0.5-0.5s0.5,0.224,0.5,0.5v2.5
			C22.5,62.026,22.276,62.25,22,62.25z"/>
	</g>
	<g>
		<path class="st0" d="M32,62.25c-0.276,0-0.5-0.224-0.5-0.5v-2.5c0-0.276,0.224-0.5,0.5-0.5s0.5,0.224,0.5,0.5v2.5
			C32.5,62.026,32.276,62.25,32,62.25z"/>
	</g>
	<g>
		<path class="st0" d="M42,62.25c-0.276,0-0.5-0.224-0.5-0.5v-2.5c0-0.276,0.224-0.5,0.5-0.5s0.5,0.224,0.5,0.5v2.5
			C42.5,62.026,42.276,62.25,42,62.25z"/>
	</g>
	<g>
		<path class="st0" d="M52,62.25c-0.276,0-0.5-0.224-0.5-0.5v-2.5c0-0.276,0.224-0.5,0.5-0.5s0.5,0.224,0.5,0.5v2.5
			C52.5,62.026,52.276,62.25,52,62.25z"/>
	</g>
	<g>
		<path class="st0" d="M17.032,52.917c-0.276,0-0.5-0.224-0.5-0.5v-25c0-0.276,0.224-0.5,0.5-0.5s0.5,0.224,0.5,0.5v25
			C17.532,52.693,17.308,52.917,17.032,52.917z"/>
	</g>
	<g>
		<path class="st1" d="M18.532,49.417h-3c-0.552,0-1-0.448-1-1v-10.5c0-0.552,0.448-1,1-1h3c0.552,0,1,0.448,1,1v10.5
			C19.532,48.969,19.084,49.417,18.532,49.417z"/>
		<path class="st0" d="M18.532,49.917h-3c-0.827,0-1.5-0.673-1.5-1.5v-10.5c0-0.827,0.673-1.5,1.5-1.5h3c0.827,0,1.5,0.673,1.5,1.5
			v10.5C20.032,49.244,19.359,49.917,18.532,49.917z M15.532,37.417c-0.276,0-0.5,0.224-0.5,0.5v10.5c0,0.276,0.224,0.5,0.5,0.5h3
			c0.276,0,0.5-0.224,0.5-0.5v-10.5c0-0.276-0.224-0.5-0.5-0.5H15.532z"/>
	</g>
	<g>
		<path class="st0" d="M19.032,27.917h-4c-0.276,0-0.5-0.224-0.5-0.5s0.224-0.5,0.5-0.5h4c0.276,0,0.5,0.224,0.5,0.5
			S19.308,27.917,19.032,27.917z"/>
	</g>
	<g>
		<path class="st0" d="M19.032,52.917h-4c-0.276,0-0.5-0.224-0.5-0.5s0.224-0.5,0.5-0.5h4c0.276,0,0.5,0.224,0.5,0.5
			S19.308,52.917,19.032,52.917z"/>
	</g>
	<g>
		<path class="st0" d="M19.532,43.667h-5c-0.276,0-0.5-0.224-0.5-0.5s0.224-0.5,0.5-0.5h5c0.276,0,0.5,0.224,0.5,0.5
			S19.808,43.667,19.532,43.667z"/>
	</g>
	<g>
		<path class="st0" d="M27.032,48.917c-0.276,0-0.5-0.224-0.5-0.5v-16c0-0.276,0.224-0.5,0.5-0.5s0.5,0.224,0.5,0.5v16
			C27.532,48.693,27.308,48.917,27.032,48.917z"/>
	</g>
	<g>
		<path class="st2" d="M28.532,44.917h-3c-0.552,0-1-0.448-1-1v-6c0-0.552,0.448-1,1-1h3c0.552,0,1,0.448,1,1v6
			C29.532,44.469,29.084,44.917,28.532,44.917z"/>
		<path class="st0" d="M28.532,45.417h-3c-0.827,0-1.5-0.673-1.5-1.5v-6c0-0.827,0.673-1.5,1.5-1.5h3c0.827,0,1.5,0.673,1.5,1.5v6
			C30.032,44.744,29.359,45.417,28.532,45.417z M25.532,37.417c-0.276,0-0.5,0.224-0.5,0.5v6c0,0.276,0.224,0.5,0.5,0.5h3
			c0.276,0,0.5-0.224,0.5-0.5v-6c0-0.276-0.224-0.5-0.5-0.5H25.532z"/>
	</g>
	<g>
		<path class="st0" d="M29.032,32.917h-4c-0.276,0-0.5-0.224-0.5-0.5s0.224-0.5,0.5-0.5h4c0.276,0,0.5,0.224,0.5,0.5
			S29.308,32.917,29.032,32.917z"/>
	</g>
	<g>
		<path class="st0" d="M29.032,48.917h-4c-0.276,0-0.5-0.224-0.5-0.5s0.224-0.5,0.5-0.5h4c0.276,0,0.5,0.224,0.5,0.5
			S29.308,48.917,29.032,48.917z"/>
	</g>
	<g>
		<path class="st0" d="M29.532,41.417h-5c-0.276,0-0.5-0.224-0.5-0.5s0.224-0.5,0.5-0.5h5c0.276,0,0.5,0.224,0.5,0.5
			S29.808,41.417,29.532,41.417z"/>
	</g>
	<g>
		<path class="st0" d="M37.032,52.917c-0.276,0-0.5-0.224-0.5-0.5v-25c0-0.276,0.224-0.5,0.5-0.5s0.5,0.224,0.5,0.5v25
			C37.532,52.693,37.308,52.917,37.032,52.917z"/>
	</g>
	<g>
		<path class="st4" d="M38.532,46.417h-3c-0.552,0-1-0.448-1-1v-13.5c0-0.552,0.448-1,1-1h3c0.552,0,1,0.448,1,1v13.5
			C39.532,45.969,39.084,46.417,38.532,46.417z"/>
		<path class="st0" d="M38.532,46.917h-3c-0.827,0-1.5-0.673-1.5-1.5v-13.5c0-0.827,0.673-1.5,1.5-1.5h3c0.827,0,1.5,0.673,1.5,1.5
			v13.5C40.032,46.244,39.359,46.917,38.532,46.917z M35.532,31.417c-0.276,0-0.5,0.224-0.5,0.5v13.5c0,0.276,0.224,0.5,0.5,0.5h3
			c0.276,0,0.5-0.224,0.5-0.5v-13.5c0-0.276-0.224-0.5-0.5-0.5H35.532z"/>
	</g>
	<g>
		<path class="st0" d="M39.032,27.917h-4c-0.276,0-0.5-0.224-0.5-0.5s0.224-0.5,0.5-0.5h4c0.276,0,0.5,0.224,0.5,0.5
			S39.308,27.917,39.032,27.917z"/>
	</g>
	<g>
		<path class="st0" d="M39.032,52.917h-4c-0.276,0-0.5-0.224-0.5-0.5s0.224-0.5,0.5-0.5h4c0.276,0,0.5,0.224,0.5,0.5
			S39.308,52.917,39.032,52.917z"/>
	</g>
	<g>
		<path class="st0" d="M39.532,39.667h-5c-0.276,0-0.5-0.224-0.5-0.5s0.224-0.5,0.5-0.5h5c0.276,0,0.5,0.224,0.5,0.5
			S39.808,39.667,39.532,39.667z"/>
	</g>
	<g>
		<path class="st0" d="M47.032,50.917c-0.276,0-0.5-0.224-0.5-0.5v-20c0-0.276,0.224-0.5,0.5-0.5s0.5,0.224,0.5,0.5v20
			C47.532,50.693,47.308,50.917,47.032,50.917z"/>
	</g>
	<g>
		<path class="st5" d="M48.532,47.417h-3c-0.552,0-1-0.448-1-1v-10.5c0-0.552,0.448-1,1-1h3c0.552,0,1,0.448,1,1v10.5
			C49.532,46.969,49.084,47.417,48.532,47.417z"/>
		<path class="st0" d="M48.532,47.917h-3c-0.827,0-1.5-0.673-1.5-1.5v-10.5c0-0.827,0.673-1.5,1.5-1.5h3c0.827,0,1.5,0.673,1.5,1.5
			v10.5C50.032,47.244,49.359,47.917,48.532,47.917z M45.532,35.417c-0.276,0-0.5,0.224-0.5,0.5v10.5c0,0.276,0.224,0.5,0.5,0.5h3
			c0.276,0,0.5-0.224,0.5-0.5v-10.5c0-0.276-0.224-0.5-0.5-0.5H45.532z"/>
	</g>
	<g>
		<path class="st0" d="M49.032,30.917h-4c-0.276,0-0.5-0.224-0.5-0.5s0.224-0.5,0.5-0.5h4c0.276,0,0.5,0.224,0.5,0.5
			S49.308,30.917,49.032,30.917z"/>
	</g>
	<g>
		<path class="st0" d="M49.032,50.917h-4c-0.276,0-0.5-0.224-0.5-0.5s0.224-0.5,0.5-0.5h4c0.276,0,0.5,0.224,0.5,0.5
			S49.308,50.917,49.032,50.917z"/>
	</g>
	<g>
		<path class="st0" d="M49.532,41.667h-5c-0.276,0-0.5-0.224-0.5-0.5s0.224-0.5,0.5-0.5h5c0.276,0,0.5,0.224,0.5,0.5
			S49.808,41.667,49.532,41.667z"/>
	</g>
</g>
</svg>
