<?xml version="1.0" encoding="utf-8"?>
<!-- Generator: Adobe Illustrator 21.1.0, SVG Export Plug-In . SVG Version: 6.00 Build 0)  -->
<svg version="1.1" id="Icon_Set" xmlns="http://www.w3.org/2000/svg" xmlns:xlink="http://www.w3.org/1999/xlink" x="0px" y="0px"
	 viewBox="0 0 64 64" style="enable-background:new 0 0 64 64;" xml:space="preserve">
<style type="text/css">
	.st0{fill:#263238;}
	.st1{fill:#FFD740;}
	.st2{fill:#FF5252;}
	.st3{fill:#40C4FF;}
	.st4{fill:#4DB6AC;}
	.st5{fill:#FFFFFF;}
	.st6{fill:#FFD345;}
</style>
<g>
	<g>
		<path class="st0" d="M60.25,57.25h-56c-1.654,0-3-1.346-3-3s1.346-3,3-3h56c1.654,0,3,1.346,3,3S61.904,57.25,60.25,57.25z
			 M4.25,52.25c-1.103,0-2,0.897-2,2s0.897,2,2,2h56c1.103,0,2-0.897,2-2s-0.897-2-2-2H4.25z"/>
	</g>
	<g>
		<path class="st0" d="M34.75,54.75h-5c-0.827,0-1.5-0.673-1.5-1.5v-1.5c0-0.276,0.224-0.5,0.5-0.5s0.5,0.224,0.5,0.5v1.5
			c0,0.276,0.225,0.5,0.5,0.5h5c0.275,0,0.5-0.224,0.5-0.5v-1.5c0-0.276,0.224-0.5,0.5-0.5s0.5,0.224,0.5,0.5v1.5
			C36.25,54.077,35.577,54.75,34.75,54.75z"/>
	</g>
	<g>
		<path class="st0" d="M12.25,8.25h-4c-0.276,0-0.5-0.224-0.5-0.5s0.224-0.5,0.5-0.5h4c0.276,0,0.5,0.224,0.5,0.5
			S12.526,8.25,12.25,8.25z"/>
	</g>
	<g>
		<path class="st0" d="M10.25,10.25c-0.276,0-0.5-0.224-0.5-0.5v-4c0-0.276,0.224-0.5,0.5-0.5s0.5,0.224,0.5,0.5v4
			C10.75,10.026,10.526,10.25,10.25,10.25z"/>
	</g>
	<g>
		<path class="st0" d="M5.25,14.75h-4c-0.276,0-0.5-0.224-0.5-0.5s0.224-0.5,0.5-0.5h4c0.276,0,0.5,0.224,0.5,0.5
			S5.526,14.75,5.25,14.75z"/>
	</g>
	<g>
		<path class="st0" d="M3.25,16.75c-0.276,0-0.5-0.224-0.5-0.5v-4c0-0.276,0.224-0.5,0.5-0.5s0.5,0.224,0.5,0.5v4
			C3.75,16.526,3.526,16.75,3.25,16.75z"/>
	</g>
	<g>
		<path class="st1" d="M48.002,13.25c0-3.115-2.848-5.565-6.083-4.886c-1.908,0.4-3.437,1.958-3.816,3.87
			c-0.336,1.696,0.191,3.263,1.214,4.372c0.725,0.786,1.185,1.778,1.185,2.848v0.297h5v-0.295c0-1.075,0.47-2.068,1.196-2.861
			C47.507,15.711,48.002,14.542,48.002,13.25z"/>
		<path class="st0" d="M45.502,20.25h-5c-0.276,0-0.5-0.224-0.5-0.5v-0.297c0-0.882-0.374-1.772-1.052-2.509
			c-1.198-1.299-1.686-3.051-1.337-4.808c0.418-2.11,2.107-3.822,4.204-4.262c1.66-0.351,3.356,0.054,4.649,1.104
			c1.293,1.05,2.035,2.607,2.035,4.271c0,1.364-0.51,2.671-1.436,3.681c-0.485,0.531-1.064,1.399-1.064,2.523v0.295
			C46.002,20.026,45.778,20.25,45.502,20.25z M40.997,19.25h4.01c0.052-1.071,0.506-2.102,1.322-2.994
			c0.757-0.825,1.173-1.893,1.173-3.006c0-1.362-0.607-2.636-1.665-3.496c-1.058-0.859-2.449-1.188-3.814-0.901
			c-1.71,0.358-3.087,1.756-3.429,3.478c-0.285,1.44,0.112,2.874,1.091,3.936C40.483,17.132,40.945,18.185,40.997,19.25z"/>
	</g>
	<g>
		<path class="st0" d="M43.002,25.25c-1.654,0-3-1.346-3-3v-2.5c0-0.276,0.224-0.5,0.5-0.5h5c0.276,0,0.5,0.224,0.5,0.5v2.5
			C46.002,23.904,44.656,25.25,43.002,25.25z M41.002,20.25v2c0,1.103,0.897,2,2,2s2-0.897,2-2v-2H41.002z"/>
	</g>
	<g>
		<path class="st0" d="M45.502,22.75h-5c-0.276,0-0.5-0.224-0.5-0.5s0.224-0.5,0.5-0.5h5c0.276,0,0.5,0.224,0.5,0.5
			S45.778,22.75,45.502,22.75z"/>
	</g>
	<g>
		<path class="st0" d="M43.002,5.75c-0.276,0-0.5-0.224-0.5-0.5v-2c0-0.276,0.224-0.5,0.5-0.5s0.5,0.224,0.5,0.5v2
			C43.502,5.526,43.278,5.75,43.002,5.75z"/>
	</g>
	<g>
		<path class="st0" d="M38.002,7.457c-0.128,0-0.256-0.049-0.354-0.146l-1.414-1.414c-0.195-0.195-0.195-0.512,0-0.707
			s0.512-0.195,0.707,0l1.414,1.414c0.195,0.195,0.195,0.512,0,0.707C38.258,7.408,38.13,7.457,38.002,7.457z"/>
	</g>
	<g>
		<path class="st0" d="M48.002,7.457c-0.128,0-0.256-0.049-0.354-0.146c-0.195-0.195-0.195-0.512,0-0.707l1.415-1.414
			c0.195-0.195,0.512-0.195,0.707,0s0.195,0.512,0,0.707l-1.415,1.414C48.258,7.408,48.13,7.457,48.002,7.457z"/>
	</g>
	<g>
		<path class="st0" d="M43.002,20.25c-0.276,0-0.5-0.224-0.5-0.5v-5c0-0.276,0.224-0.5,0.5-0.5s0.5,0.224,0.5,0.5v5
			C43.502,20.026,43.278,20.25,43.002,20.25z"/>
	</g>
	<g>
		<path class="st0" d="M53.25,47.25h-42c-0.827,0-1.5-0.673-1.5-1.5v-26c0-0.827,0.673-1.5,1.5-1.5h27.103
			c0.276,0,0.5,0.224,0.5,0.5s-0.224,0.5-0.5,0.5H11.25c-0.275,0-0.5,0.224-0.5,0.5v26c0,0.276,0.225,0.5,0.5,0.5h42
			c0.275,0,0.5-0.224,0.5-0.5v-26c0-0.276-0.225-0.5-0.5-0.5h-5.592c-0.276,0-0.5-0.224-0.5-0.5s0.224-0.5,0.5-0.5h5.592
			c0.827,0,1.5,0.673,1.5,1.5v26C54.75,46.577,54.077,47.25,53.25,47.25z"/>
	</g>
	<g>
		<path class="st0" d="M7.25,50.25c-0.276,0-0.5-0.224-0.5-0.5v-31.5c0-1.654,1.346-3,3-3h26.724c0.276,0,0.5,0.224,0.5,0.5
			s-0.224,0.5-0.5,0.5H9.75c-1.103,0-2,0.897-2,2v31.5C7.75,50.026,7.526,50.25,7.25,50.25z"/>
	</g>
	<g>
		<path class="st0" d="M57.25,50.25c-0.276,0-0.5-0.224-0.5-0.5v-31.5c0-1.103-0.897-2-2-2h-5.215c-0.276,0-0.5-0.224-0.5-0.5
			s0.224-0.5,0.5-0.5h5.215c1.654,0,3,1.346,3,3v31.5C57.75,50.026,57.526,50.25,57.25,50.25z"/>
	</g>
	<g>
		<rect x="13.75" y="38" class="st1" width="4" height="5"/>
		<path class="st0" d="M17.75,43.5h-4c-0.276,0-0.5-0.224-0.5-0.5v-5c0-0.276,0.224-0.5,0.5-0.5h4c0.276,0,0.5,0.224,0.5,0.5v5
			C18.25,43.276,18.026,43.5,17.75,43.5z M14.25,42.5h3v-4h-3V42.5z"/>
	</g>
	<g>
		<rect x="21.502" y="35" class="st2" width="4" height="8"/>
		<path class="st0" d="M25.502,43.5h-4c-0.276,0-0.5-0.224-0.5-0.5v-8c0-0.276,0.224-0.5,0.5-0.5h4c0.276,0,0.5,0.224,0.5,0.5v8
			C26.002,43.276,25.778,43.5,25.502,43.5z M22.002,42.5h3v-7h-3V42.5z"/>
	</g>
	<g>
		<rect x="29.002" y="29.5" class="st3" width="4" height="13.5"/>
		<path class="st0" d="M33.002,43.5h-4c-0.276,0-0.5-0.224-0.5-0.5V29.5c0-0.276,0.224-0.5,0.5-0.5h4c0.276,0,0.5,0.224,0.5,0.5V43
			C33.502,43.276,33.278,43.5,33.002,43.5z M29.502,42.5h3V30h-3V42.5z"/>
	</g>
	<g>
		<path class="st0" d="M23.502,32.5c-0.133,0-0.26-0.053-0.354-0.146l-3.182-3.182l-3.182,3.182c-0.195,0.195-0.512,0.195-0.707,0
			s-0.195-0.512,0-0.707l3.535-3.536c0.188-0.188,0.52-0.188,0.707,0l3.182,3.182l9.146-9.146c0.195-0.195,0.512-0.195,0.707,0
			s0.195,0.512,0,0.707l-9.5,9.5C23.762,32.447,23.635,32.5,23.502,32.5z"/>
	</g>
	<g>
		<path class="st0" d="M33.002,27c-0.276,0-0.5-0.224-0.5-0.5V23h-3.5c-0.276,0-0.5-0.224-0.5-0.5s0.224-0.5,0.5-0.5h4
			c0.276,0,0.5,0.224,0.5,0.5v4C33.502,26.776,33.278,27,33.002,27z"/>
	</g>
	<g>
		<path class="st0" d="M48.002,39.5h-10c-0.276,0-0.5-0.224-0.5-0.5s0.224-0.5,0.5-0.5h10c0.276,0,0.5,0.224,0.5,0.5
			S48.278,39.5,48.002,39.5z"/>
	</g>
	<g>
		<path class="st0" d="M48.002,35.5h-10c-0.276,0-0.5-0.224-0.5-0.5s0.224-0.5,0.5-0.5h10c0.276,0,0.5,0.224,0.5,0.5
			S48.278,35.5,48.002,35.5z"/>
	</g>
	<g>
		<path class="st0" d="M48.002,31.5h-10c-0.276,0-0.5-0.224-0.5-0.5s0.224-0.5,0.5-0.5h10c0.276,0,0.5,0.224,0.5,0.5
			S48.278,31.5,48.002,31.5z"/>
	</g>
	<g>
		<path class="st0" d="M44,61.25h-1c-0.276,0-0.5-0.224-0.5-0.5s0.224-0.5,0.5-0.5h1c0.276,0,0.5,0.224,0.5,0.5
			S44.276,61.25,44,61.25z"/>
	</g>
	<g>
		<path class="st0" d="M41,61.25H20c-0.276,0-0.5-0.224-0.5-0.5s0.224-0.5,0.5-0.5h21c0.276,0,0.5,0.224,0.5,0.5
			S41.276,61.25,41,61.25z"/>
	</g>
</g>
</svg>
