<?xml version="1.0" encoding="utf-8"?>
<!-- Generator: Adobe Illustrator 21.1.0, SVG Export Plug-In . SVG Version: 6.00 Build 0)  -->
<svg version="1.1" id="Icon_Set" xmlns="http://www.w3.org/2000/svg" xmlns:xlink="http://www.w3.org/1999/xlink" x="0px" y="0px"
	 viewBox="0 0 64 64" style="enable-background:new 0 0 64 64;" xml:space="preserve">
<style type="text/css">
	.st0{fill:#263238;}
	.st1{fill:#FFD740;}
	.st2{fill:#FF5252;}
	.st3{fill:#40C4FF;}
	.st4{fill:#4DB6AC;}
	.st5{fill:#FFFFFF;}
	.st6{fill:#FFD345;}
</style>
<g>
	<g>
		<path class="st0" d="M59,56H3c-1.654,0-3-1.346-3-3s1.346-3,3-3h56c1.654,0,3,1.346,3,3S60.654,56,59,56z M3,51
			c-1.103,0-2,0.897-2,2s0.897,2,2,2h56c1.103,0,2-0.897,2-2s-0.897-2-2-2H3z"/>
	</g>
	<g>
		<path class="st0" d="M33.5,53.5h-5c-0.827,0-1.5-0.673-1.5-1.5v-1.5c0-0.276,0.224-0.5,0.5-0.5s0.5,0.224,0.5,0.5V52
			c0,0.275,0.224,0.5,0.5,0.5h5c0.276,0,0.5-0.225,0.5-0.5v-1.5c0-0.276,0.224-0.5,0.5-0.5s0.5,0.224,0.5,0.5V52
			C35,52.827,34.327,53.5,33.5,53.5z"/>
	</g>
	<g>
		<path class="st0" d="M13,7H9C8.724,7,8.5,6.776,8.5,6.5S8.724,6,9,6h4c0.276,0,0.5,0.224,0.5,0.5S13.276,7,13,7z"/>
	</g>
	<g>
		<path class="st0" d="M11,9c-0.276,0-0.5-0.224-0.5-0.5v-4C10.5,4.224,10.724,4,11,4s0.5,0.224,0.5,0.5v4C11.5,8.776,11.276,9,11,9
			z"/>
	</g>
	<g>
		<path class="st0" d="M4.5,11.5h-4C0.224,11.5,0,11.276,0,11s0.224-0.5,0.5-0.5h4C4.776,10.5,5,10.724,5,11S4.776,11.5,4.5,11.5z"
			/>
	</g>
	<g>
		<path class="st0" d="M2.5,13.5C2.224,13.5,2,13.276,2,13V9c0-0.276,0.224-0.5,0.5-0.5S3,8.724,3,9v4C3,13.276,2.776,13.5,2.5,13.5
			z"/>
	</g>
	<g>
		<path class="st0" d="M52,46H10c-0.827,0-1.5-0.673-1.5-1.5v-26c0-0.827,0.673-1.5,1.5-1.5h28c0.276,0,0.5,0.224,0.5,0.5
			S38.276,18,38,18H10c-0.276,0-0.5,0.225-0.5,0.5v26c0,0.275,0.224,0.5,0.5,0.5h42c0.276,0,0.5-0.225,0.5-0.5V31.328
			c0-0.276,0.224-0.5,0.5-0.5s0.5,0.224,0.5,0.5V44.5C53.5,45.327,52.827,46,52,46z"/>
	</g>
	<g>
		<path class="st0" d="M6,49c-0.276,0-0.5-0.224-0.5-0.5V17c0-1.654,1.346-3,3-3H38c0.276,0,0.5,0.224,0.5,0.5S38.276,15,38,15H8.5
			c-1.103,0-2,0.897-2,2v31.5C6.5,48.776,6.276,49,6,49z"/>
	</g>
	<g>
		<path class="st0" d="M42.75,60h-2c-0.276,0-0.5-0.224-0.5-0.5s0.224-0.5,0.5-0.5h2c0.276,0,0.5,0.224,0.5,0.5S43.026,60,42.75,60z
			"/>
	</g>
	<g>
		<path class="st0" d="M38.75,60h-20c-0.276,0-0.5-0.224-0.5-0.5s0.224-0.5,0.5-0.5h20c0.276,0,0.5,0.224,0.5,0.5
			S39.026,60,38.75,60z"/>
	</g>
	<g>
		<path class="st0" d="M59,22.5h-2.4c-0.276,0-0.5-0.224-0.5-0.5s0.224-0.5,0.5-0.5H59c2.206,0,4-1.794,4-4s-1.794-4-4-4h-1.5
			c-0.276,0-0.5-0.224-0.5-0.5c0-3.032-2.467-5.5-5.5-5.5S46,9.968,46,13c0,0.276-0.224,0.5-0.5,0.5H44c-2.206,0-4,1.794-4,4
			s1.794,4,4,4h2.4c0.276,0,0.5,0.224,0.5,0.5s-0.224,0.5-0.5,0.5H44c-2.757,0-5-2.243-5-5s2.243-5,5-5h1.019
			c0.256-3.352,3.065-6,6.481-6s6.225,2.648,6.481,6H59c2.757,0,5,2.243,5,5S61.757,22.5,59,22.5z"/>
	</g>
	<g>
		<polygon class="st6" points="53.5,19.5 57,19.5 51.5,14 46,19.5 49.5,19.5 49.5,24.5 46,24.5 51.5,30 57,24.5 53.5,24.5 		"/>
		<path class="st0" d="M51.5,30.5c-0.128,0-0.256-0.049-0.354-0.146l-5.5-5.5c-0.143-0.143-0.186-0.358-0.108-0.545
			C45.615,24.122,45.798,24,46,24h3v-4h-3c-0.202,0-0.385-0.122-0.462-0.309c-0.078-0.187-0.035-0.402,0.108-0.545l5.5-5.5
			c0.195-0.195,0.512-0.195,0.707,0l5.5,5.5c0.143,0.143,0.186,0.358,0.108,0.545C57.385,19.878,57.202,20,57,20h-3v4h3
			c0.202,0,0.385,0.122,0.462,0.309c0.078,0.187,0.035,0.402-0.108,0.545l-5.5,5.5C51.756,30.451,51.628,30.5,51.5,30.5z M47.207,25
			l4.293,4.293L55.793,25H53.5c-0.276,0-0.5-0.224-0.5-0.5v-5c0-0.276,0.224-0.5,0.5-0.5h2.293L51.5,14.707L47.207,19H49.5
			c0.276,0,0.5,0.224,0.5,0.5v5c0,0.276-0.224,0.5-0.5,0.5H47.207z"/>
	</g>
	<g>
		<path class="st0" d="M56,49c-0.276,0-0.5-0.224-0.5-0.5V28.328c0-0.276,0.224-0.5,0.5-0.5s0.5,0.224,0.5,0.5V48.5
			C56.5,48.776,56.276,49,56,49z"/>
	</g>
	<g>
		<path class="st3" d="M37.69,32.975c0.106-0.475,0.166-0.968,0.166-1.475s-0.06-1-0.166-1.475l0.276-0.158l0.691-0.602
			c0.361-0.315,0.448-0.841,0.207-1.254l-0.888-1.526c-0.239-0.411-0.736-0.598-1.188-0.446l-0.879,0.295l-0.28,0.161
			c-0.731-0.665-1.602-1.18-2.572-1.482V24.7l-0.181-0.897C32.782,23.336,32.37,23,31.892,23h-1.784
			c-0.478,0-0.89,0.336-0.984,0.803L28.943,24.7v0.312c-0.969,0.302-1.841,0.817-2.572,1.482l-0.281-0.161l-0.879-0.295
			c-0.452-0.152-0.949,0.035-1.188,0.446l-0.888,1.526c-0.241,0.414-0.154,0.94,0.207,1.254l0.691,0.602l0.276,0.158
			c-0.106,0.475-0.166,0.968-0.166,1.475s0.06,1,0.166,1.475l-0.277,0.158l-0.691,0.602c-0.361,0.315-0.448,0.841-0.207,1.254
			l0.888,1.526c0.239,0.411,0.736,0.598,1.188,0.446l0.879-0.295l0.281-0.161c0.731,0.665,1.602,1.18,2.572,1.482V38.3l0.181,0.897
			C29.218,39.664,29.63,40,30.108,40h1.784c0.478,0,0.89-0.336,0.984-0.803l0.181-0.897v-0.313c0.969-0.302,1.841-0.817,2.572-1.482
			l0.281,0.161l0.879,0.295c0.452,0.152,0.949-0.035,1.188-0.446l0.888-1.526c0.241-0.414,0.154-0.94-0.207-1.254l-0.691-0.602
			L37.69,32.975z M31.027,35c-1.933,0-3.5-1.567-3.5-3.5s1.567-3.5,3.5-3.5s3.5,1.567,3.5,3.5S32.96,35,31.027,35z"/>
		<path class="st0" d="M31.892,40.5h-1.784c-0.713,0-1.333-0.506-1.474-1.204l-0.182-0.947c-0.777-0.285-1.497-0.699-2.146-1.236
			l-0.936,0.323c-0.672,0.228-1.421-0.055-1.78-0.668l-0.888-1.525c-0.361-0.619-0.23-1.411,0.311-1.884l0.737-0.63
			c-0.071-0.411-0.107-0.823-0.107-1.229s0.036-0.816,0.107-1.229l-0.737-0.63c-0.541-0.473-0.672-1.265-0.311-1.884l0.888-1.525
			c0.358-0.612,1.106-0.891,1.779-0.669l0.935,0.326c0.649-0.538,1.37-0.953,2.147-1.238l0.181-0.947
			c0.141-0.698,0.761-1.204,1.474-1.204h1.784c0.713,0,1.333,0.506,1.474,1.204l0.182,0.947c0.777,0.285,1.497,0.699,2.146,1.236
			l0.936-0.323c0.676-0.228,1.423,0.055,1.78,0.668l0.888,1.525c0.36,0.62,0.229,1.412-0.311,1.884l-0.737,0.63
			c0.072,0.413,0.108,0.824,0.108,1.229s-0.036,0.816-0.108,1.229l0.737,0.63c0.541,0.472,0.672,1.264,0.312,1.883l-0.888,1.526
			c-0.356,0.613-1.105,0.894-1.779,0.669l-0.935-0.326c-0.649,0.538-1.369,0.953-2.147,1.238l-0.181,0.947
			C33.225,39.994,32.605,40.5,31.892,40.5z M26.371,36.006c0.122,0,0.242,0.044,0.336,0.13c0.701,0.638,1.503,1.1,2.384,1.374
			c0.209,0.065,0.352,0.259,0.352,0.478v0.313l0.171,0.798c0.047,0.232,0.254,0.401,0.494,0.401h1.784
			c0.239,0,0.447-0.169,0.494-0.401l0.181-0.896l-0.01-0.215c0-0.219,0.143-0.412,0.352-0.478c0.881-0.274,1.684-0.736,2.384-1.374
			c0.161-0.146,0.398-0.172,0.585-0.063l0.281,0.161l0.789,0.255c0.227,0.075,0.478-0.019,0.597-0.225l0.888-1.525
			c0.12-0.205,0.076-0.469-0.104-0.626l-0.69-0.602l-0.198-0.103c-0.189-0.109-0.286-0.329-0.238-0.543
			c0.103-0.459,0.154-0.918,0.154-1.365c0-0.446-0.052-0.906-0.154-1.367c-0.048-0.214,0.049-0.434,0.239-0.542l0.276-0.158
			l0.611-0.545c0.179-0.157,0.223-0.421,0.104-0.627l-0.888-1.524c-0.12-0.206-0.37-0.304-0.598-0.224l-0.878,0.294l-0.19,0.121
			c-0.189,0.108-0.426,0.082-0.585-0.063c-0.701-0.638-1.503-1.1-2.384-1.374c-0.209-0.065-0.352-0.259-0.352-0.478V24.7
			l-0.171-0.799c-0.047-0.232-0.254-0.401-0.494-0.401h-1.784c-0.239,0-0.447,0.169-0.494,0.401l-0.181,0.897l0.01,0.214
			c0,0.219-0.143,0.412-0.352,0.478c-0.881,0.274-1.684,0.736-2.384,1.374c-0.16,0.146-0.396,0.173-0.585,0.063l-0.28-0.161
			l-0.789-0.255c-0.225-0.076-0.478,0.019-0.597,0.225l-0.888,1.525c-0.12,0.206-0.076,0.469,0.104,0.626l0.691,0.602l0.196,0.102
			c0.19,0.108,0.287,0.328,0.239,0.542c-0.102,0.459-0.154,0.919-0.154,1.367s0.052,0.908,0.154,1.365
			c0.048,0.214-0.049,0.434-0.238,0.543l-0.276,0.159l-0.612,0.545c-0.179,0.157-0.223,0.42-0.103,0.626l0.888,1.525
			c0.12,0.207,0.373,0.305,0.598,0.224l0.878-0.294l0.191-0.121C26.2,36.027,26.286,36.006,26.371,36.006z M31.027,35.5
			c-2.206,0-4-1.794-4-4s1.794-4,4-4s4,1.794,4,4S33.233,35.5,31.027,35.5z M31.027,28.5c-1.654,0-3,1.346-3,3s1.346,3,3,3
			s3-1.346,3-3S32.682,28.5,31.027,28.5z"/>
	</g>
</g>
</svg>
