<?xml version="1.0" encoding="utf-8"?>
<!-- Generator: Adobe Illustrator 21.1.0, SVG Export Plug-In . SVG Version: 6.00 Build 0)  -->
<svg version="1.1" id="Icon_Set" xmlns="http://www.w3.org/2000/svg" xmlns:xlink="http://www.w3.org/1999/xlink" x="0px" y="0px"
	 viewBox="0 0 64 64" style="enable-background:new 0 0 64 64;" xml:space="preserve">
<style type="text/css">
	.st0{fill:#263238;}
	.st1{fill:#FFD740;}
	.st2{fill:#FF5252;}
	.st3{fill:#40C4FF;}
	.st4{fill:#4DB6AC;}
	.st5{fill:#FFFFFF;}
	.st6{fill:#FFD345;}
</style>
<g>
	<g>
		<path class="st0" d="M49.5,54.5h-43c-1.654,0-3-1.346-3-3V22c0-0.276,0.224-0.5,0.5-0.5h48c0.276,0,0.5,0.224,0.5,0.5v29.5
			C52.5,53.154,51.154,54.5,49.5,54.5z M4.5,22.5v29c0,1.103,0.897,2,2,2h43c1.103,0,2-0.897,2-2v-29H4.5z"/>
	</g>
	<g>
		<path class="st0" d="M52,22.5H4c-0.276,0-0.5-0.224-0.5-0.5v-5.5c0-1.654,1.346-3,3-3h43c1.654,0,3,1.346,3,3V22
			C52.5,22.276,52.276,22.5,52,22.5z M4.5,21.5h47v-5c0-1.103-0.897-2-2-2h-43c-1.103,0-2,0.897-2,2V21.5z"/>
	</g>
	<g>
		<path class="st0" d="M8.5,20c-1.103,0-2-0.897-2-2s0.897-2,2-2s2,0.897,2,2S9.603,20,8.5,20z M8.5,17c-0.551,0-1,0.449-1,1
			s0.449,1,1,1s1-0.449,1-1S9.051,17,8.5,17z"/>
	</g>
	<g>
		<path class="st0" d="M13.5,20c-1.103,0-2-0.897-2-2s0.897-2,2-2s2,0.897,2,2S14.603,20,13.5,20z M13.5,17c-0.551,0-1,0.449-1,1
			s0.449,1,1,1s1-0.449,1-1S14.051,17,13.5,17z"/>
	</g>
	<g>
		<path class="st0" d="M53,7.5h-4c-0.276,0-0.5-0.224-0.5-0.5s0.224-0.5,0.5-0.5h4c0.276,0,0.5,0.224,0.5,0.5S53.276,7.5,53,7.5z"/>
	</g>
	<g>
		<path class="st0" d="M51,9.5c-0.276,0-0.5-0.224-0.5-0.5V5c0-0.276,0.224-0.5,0.5-0.5s0.5,0.224,0.5,0.5v4
			C51.5,9.276,51.276,9.5,51,9.5z"/>
	</g>
	<g>
		<path class="st0" d="M60,14h-4c-0.276,0-0.5-0.224-0.5-0.5S55.724,13,56,13h4c0.276,0,0.5,0.224,0.5,0.5S60.276,14,60,14z"/>
	</g>
	<g>
		<path class="st0" d="M58,16c-0.276,0-0.5-0.224-0.5-0.5v-4c0-0.276,0.224-0.5,0.5-0.5s0.5,0.224,0.5,0.5v4
			C58.5,15.776,58.276,16,58,16z"/>
	</g>
	<g>
		<path class="st0" d="M23.5,39.5h-3c-0.276,0-0.5-0.224-0.5-0.5v-5c0-0.276,0.224-0.5,0.5-0.5h3c0.276,0,0.5,0.224,0.5,0.5v5
			C24,39.276,23.776,39.5,23.5,39.5z M21,38.5h2v-4h-2V38.5z"/>
	</g>
	<g>
		<path class="st0" d="M35.5,39.5h-3c-0.276,0-0.5-0.224-0.5-0.5v-8c0-0.276,0.224-0.5,0.5-0.5h3c0.276,0,0.5,0.224,0.5,0.5v8
			C36,39.276,35.776,39.5,35.5,39.5z M33,38.5h2v-7h-2V38.5z"/>
	</g>
	<g>
		<path class="st0" d="M29.5,39.5h-3c-0.276,0-0.5-0.224-0.5-0.5V27.5c0-0.276,0.224-0.5,0.5-0.5h3c0.276,0,0.5,0.224,0.5,0.5V39
			C30,39.276,29.776,39.5,29.5,39.5z M27,38.5h2V28h-2V38.5z"/>
	</g>
	<g>
		<path class="st0" d="M35.5,47.5h-15c-0.276,0-0.5-0.224-0.5-0.5s0.224-0.5,0.5-0.5h15c0.276,0,0.5,0.224,0.5,0.5
			S35.776,47.5,35.5,47.5z"/>
	</g>
	<g>
		<path class="st0" d="M35.5,44.5h-15c-0.276,0-0.5-0.224-0.5-0.5s0.224-0.5,0.5-0.5h15c0.276,0,0.5,0.224,0.5,0.5
			S35.776,44.5,35.5,44.5z"/>
	</g>
	<g>
		<path class="st0" d="M45,58.5h-2c-0.276,0-0.5-0.224-0.5-0.5s0.224-0.5,0.5-0.5h2c0.276,0,0.5,0.224,0.5,0.5S45.276,58.5,45,58.5z
			"/>
	</g>
	<g>
		<path class="st0" d="M41,58.5H21c-0.276,0-0.5-0.224-0.5-0.5s0.224-0.5,0.5-0.5h20c0.276,0,0.5,0.224,0.5,0.5S41.276,58.5,41,58.5
			z"/>
	</g>
	<g>
		<path class="st0" d="M13,10.5h-2c-0.276,0-0.5-0.224-0.5-0.5s0.224-0.5,0.5-0.5h2c0.276,0,0.5,0.224,0.5,0.5S13.276,10.5,13,10.5z
			"/>
	</g>
	<g>
		<path class="st0" d="M35,10.5H15c-0.276,0-0.5-0.224-0.5-0.5s0.224-0.5,0.5-0.5h20c0.276,0,0.5,0.224,0.5,0.5S35.276,10.5,35,10.5
			z"/>
	</g>
	<g>
		<path class="st3" d="M15.5,33h-6c-0.552,0-1-0.448-1-1v-2c0-0.552,0.448-1,1-1h6c0.552,0,1,0.448,1,1v2
			C16.5,32.552,16.052,33,15.5,33z"/>
		<path class="st0" d="M15.5,33.5h-6C8.673,33.5,8,32.827,8,32v-2c0-0.827,0.673-1.5,1.5-1.5h6c0.827,0,1.5,0.673,1.5,1.5v2
			C17,32.827,16.327,33.5,15.5,33.5z M9.5,29.5C9.224,29.5,9,29.724,9,30v2c0,0.276,0.224,0.5,0.5,0.5h6c0.276,0,0.5-0.224,0.5-0.5
			v-2c0-0.276-0.224-0.5-0.5-0.5H9.5z"/>
	</g>
	<g>
		<path class="st1" d="M15.5,40h-6c-0.552,0-1-0.448-1-1v-2c0-0.552,0.448-1,1-1h6c0.552,0,1,0.448,1,1v2
			C16.5,39.552,16.052,40,15.5,40z"/>
		<path class="st0" d="M15.5,40.5h-6C8.673,40.5,8,39.827,8,39v-2c0-0.827,0.673-1.5,1.5-1.5h6c0.827,0,1.5,0.673,1.5,1.5v2
			C17,39.827,16.327,40.5,15.5,40.5z M9.5,36.5C9.224,36.5,9,36.724,9,37v2c0,0.276,0.224,0.5,0.5,0.5h6c0.276,0,0.5-0.224,0.5-0.5
			v-2c0-0.276-0.224-0.5-0.5-0.5H9.5z"/>
	</g>
	<g>
		<path class="st4" d="M15.5,47h-6c-0.552,0-1-0.448-1-1v-2c0-0.552,0.448-1,1-1h6c0.552,0,1,0.448,1,1v2
			C16.5,46.552,16.052,47,15.5,47z"/>
		<path class="st0" d="M15.5,47.5h-6C8.673,47.5,8,46.827,8,46v-2c0-0.827,0.673-1.5,1.5-1.5h6c0.827,0,1.5,0.673,1.5,1.5v2
			C17,46.827,16.327,47.5,15.5,47.5z M9.5,43.5C9.224,43.5,9,43.724,9,44v2c0,0.276,0.224,0.5,0.5,0.5h6c0.276,0,0.5-0.224,0.5-0.5
			v-2c0-0.276-0.224-0.5-0.5-0.5H9.5z"/>
	</g>
	<g>
		<circle class="st2" cx="43.5" cy="31" r="4"/>
		<path class="st0" d="M43.5,35.5c-2.481,0-4.5-2.019-4.5-4.5s2.019-4.5,4.5-4.5S48,28.519,48,31S45.981,35.5,43.5,35.5z M43.5,27.5
			c-1.93,0-3.5,1.57-3.5,3.5s1.57,3.5,3.5,3.5S47,32.93,47,31S45.43,27.5,43.5,27.5z"/>
	</g>
	<g>
		<path class="st0" d="M47.5,31.5h-4c-0.276,0-0.5-0.224-0.5-0.5v-4c0-0.276,0.224-0.5,0.5-0.5S44,26.724,44,27v3.5h3.5
			c0.276,0,0.5,0.224,0.5,0.5S47.776,31.5,47.5,31.5z"/>
	</g>
	<g>
		<path class="st0" d="M47.5,47.5h-8c-0.276,0-0.5-0.224-0.5-0.5v-8c0-0.276,0.224-0.5,0.5-0.5S40,38.724,40,39v7.5h7.5
			c0.276,0,0.5,0.224,0.5,0.5S47.776,47.5,47.5,47.5z"/>
	</g>
	<g>
		<path class="st0" d="M39.5,47.5c-0.128,0-0.256-0.049-0.354-0.146c-0.195-0.195-0.195-0.512,0-0.707l8-8
			c0.195-0.195,0.512-0.195,0.707,0s0.195,0.512,0,0.707l-8,8C39.756,47.451,39.628,47.5,39.5,47.5z"/>
	</g>
</g>
</svg>
