<?xml version="1.0" encoding="utf-8"?>
<!-- Generator: Adobe Illustrator 21.1.0, SVG Export Plug-In . SVG Version: 6.00 Build 0)  -->
<svg version="1.1" id="Icon_Set" xmlns="http://www.w3.org/2000/svg" xmlns:xlink="http://www.w3.org/1999/xlink" x="0px" y="0px"
	 viewBox="0 0 64 64" style="enable-background:new 0 0 64 64;" xml:space="preserve">
<style type="text/css">
	.st0{fill:#263238;}
	.st1{fill:#FFD740;}
	.st2{fill:#FF5252;}
	.st3{fill:#40C4FF;}
	.st4{fill:#4DB6AC;}
	.st5{fill:#FFFFFF;}
	.st6{fill:#FFD345;}
</style>
<g>
	<g>
		<path class="st4" d="M6,18c-0.552,0-1-0.448-1-1V4H4C3.448,4,3,4.448,3,5v14c0,0.552,0.448,1,1,1h11c0.552,0,1-0.448,1-1v-1H6z"/>
	</g>
	<g>
		<path class="st3" d="M17,59H5c-0.552,0-1-0.448-1-1v-7.5c0-0.552,0.448-1,1-1h12c0.552,0,1,0.448,1,1V58
			C18,58.552,17.552,59,17,59z"/>
		<path class="st0" d="M17,59.5H5c-0.827,0-1.5-0.673-1.5-1.5v-7.5C3.5,49.673,4.173,49,5,49h12c0.827,0,1.5,0.673,1.5,1.5V58
			C18.5,58.827,17.827,59.5,17,59.5z M5,50c-0.276,0-0.5,0.224-0.5,0.5V58c0,0.276,0.224,0.5,0.5,0.5h12c0.276,0,0.5-0.224,0.5-0.5
			v-7.5c0-0.276-0.224-0.5-0.5-0.5H5z"/>
	</g>
	<g>
		<path class="st0" d="M19,62.5H3c-0.827,0-1.5-0.673-1.5-1.5v-1c0-0.827,0.673-1.5,1.5-1.5h16c0.827,0,1.5,0.673,1.5,1.5v1
			C20.5,61.827,19.827,62.5,19,62.5z M3,59.5c-0.276,0-0.5,0.224-0.5,0.5v1c0,0.276,0.224,0.5,0.5,0.5h16c0.276,0,0.5-0.224,0.5-0.5
			v-1c0-0.276-0.224-0.5-0.5-0.5H3z"/>
	</g>
	<g>
		<path class="st0" d="M17,18.5H6c-0.827,0-1.5-0.673-1.5-1.5V3c0-0.827,0.673-1.5,1.5-1.5h11c0.827,0,1.5,0.673,1.5,1.5v14
			C18.5,17.827,17.827,18.5,17,18.5z M6,2.5C5.724,2.5,5.5,2.724,5.5,3v14c0,0.276,0.224,0.5,0.5,0.5h11c0.276,0,0.5-0.224,0.5-0.5
			V3c0-0.276-0.224-0.5-0.5-0.5H6z"/>
	</g>
	<g>
		<path class="st0" d="M14.75,7.5h-6.5c-0.276,0-0.5-0.224-0.5-0.5s0.224-0.5,0.5-0.5h6.5c0.276,0,0.5,0.224,0.5,0.5
			S15.026,7.5,14.75,7.5z"/>
	</g>
	<g>
		<path class="st0" d="M14.75,10.5h-6.5c-0.276,0-0.5-0.224-0.5-0.5s0.224-0.5,0.5-0.5h6.5c0.276,0,0.5,0.224,0.5,0.5
			S15.026,10.5,14.75,10.5z"/>
	</g>
	<g>
		<path class="st0" d="M14.75,13.5h-6.5c-0.276,0-0.5-0.224-0.5-0.5s0.224-0.5,0.5-0.5h6.5c0.276,0,0.5,0.224,0.5,0.5
			S15.026,13.5,14.75,13.5z"/>
	</g>
	<g>
		<path class="st1" d="M61,62H48c-0.552,0-1-0.448-1-1v-4c0-0.552,0.448-1,1-1h13c0.552,0,1,0.448,1,1v4C62,61.552,61.552,62,61,62z
			"/>
		<path class="st0" d="M61,62.5H48c-0.827,0-1.5-0.673-1.5-1.5v-4c0-0.827,0.673-1.5,1.5-1.5h13c0.827,0,1.5,0.673,1.5,1.5v4
			C62.5,61.827,61.827,62.5,61,62.5z M48,56.5c-0.276,0-0.5,0.224-0.5,0.5v4c0,0.276,0.224,0.5,0.5,0.5h13
			c0.276,0,0.5-0.224,0.5-0.5v-4c0-0.276-0.224-0.5-0.5-0.5H48z"/>
	</g>
	<g>
		<path class="st0" d="M59,59.5h-4.5c-0.276,0-0.5-0.224-0.5-0.5s0.224-0.5,0.5-0.5H59c0.276,0,0.5,0.224,0.5,0.5
			S59.276,59.5,59,59.5z"/>
	</g>
	<g>
		<path class="st1" d="M61,56H48c-0.552,0-1-0.448-1-1v-4c0-0.552,0.448-1,1-1h13c0.552,0,1,0.448,1,1v4C62,55.552,61.552,56,61,56z
			"/>
		<path class="st0" d="M61,56.5H48c-0.827,0-1.5-0.673-1.5-1.5v-4c0-0.827,0.673-1.5,1.5-1.5h13c0.827,0,1.5,0.673,1.5,1.5v4
			C62.5,55.827,61.827,56.5,61,56.5z M48,50.5c-0.276,0-0.5,0.224-0.5,0.5v4c0,0.276,0.224,0.5,0.5,0.5h13
			c0.276,0,0.5-0.224,0.5-0.5v-4c0-0.276-0.224-0.5-0.5-0.5H48z"/>
	</g>
	<g>
		<path class="st0" d="M59,53.5h-4.5c-0.276,0-0.5-0.224-0.5-0.5s0.224-0.5,0.5-0.5H59c0.276,0,0.5,0.224,0.5,0.5
			S59.276,53.5,59,53.5z"/>
	</g>
	<g>
		<path class="st0" d="M39.5,10.5h-1c-0.276,0-0.5-0.224-0.5-0.5s0.224-0.5,0.5-0.5h1c0.276,0,0.5,0.224,0.5,0.5
			S39.776,10.5,39.5,10.5z"/>
	</g>
	<g>
		<path class="st0" d="M36.5,10.5h-12c-0.276,0-0.5-0.224-0.5-0.5s0.224-0.5,0.5-0.5h12c0.276,0,0.5,0.224,0.5,0.5
			S36.776,10.5,36.5,10.5z"/>
	</g>
	<g>
		<path class="st0" d="M27.5,13.5c-0.128,0-0.256-0.049-0.354-0.146l-3-3c-0.195-0.195-0.195-0.512,0-0.707l3-3
			c0.195-0.195,0.512-0.195,0.707,0s0.195,0.512,0,0.707L25.207,10l2.646,2.646c0.195,0.195,0.195,0.512,0,0.707
			C27.755,13.451,27.627,13.5,27.5,13.5z"/>
	</g>
	<g>
		<path class="st0" d="M25.5,54.5h-1c-0.276,0-0.5-0.224-0.5-0.5s0.224-0.5,0.5-0.5h1c0.276,0,0.5,0.224,0.5,0.5
			S25.776,54.5,25.5,54.5z"/>
	</g>
	<g>
		<path class="st0" d="M39.5,54.5h-12c-0.276,0-0.5-0.224-0.5-0.5s0.224-0.5,0.5-0.5h12c0.276,0,0.5,0.224,0.5,0.5
			S39.776,54.5,39.5,54.5z"/>
	</g>
	<g>
		<path class="st0" d="M36.5,57.5c-0.128,0-0.256-0.049-0.354-0.146c-0.195-0.195-0.195-0.512,0-0.707L38.793,54l-2.646-2.646
			c-0.195-0.195-0.195-0.512,0-0.707s0.512-0.195,0.707,0l3,3c0.195,0.195,0.195,0.512,0,0.707l-3,3
			C36.756,57.451,36.628,57.5,36.5,57.5z"/>
	</g>
	<g>
		<path class="st0" d="M10,28c-0.276,0-0.5-0.224-0.5-0.5v-1c0-0.276,0.224-0.5,0.5-0.5s0.5,0.224,0.5,0.5v1
			C10.5,27.776,10.276,28,10,28z"/>
	</g>
	<g>
		<path class="st0" d="M10,42c-0.276,0-0.5-0.224-0.5-0.5v-12c0-0.276,0.224-0.5,0.5-0.5s0.5,0.224,0.5,0.5v12
			C10.5,41.776,10.276,42,10,42z"/>
	</g>
	<g>
		<path class="st0" d="M10,42c-0.128,0-0.256-0.049-0.354-0.146l-3-3c-0.195-0.195-0.195-0.512,0-0.707s0.512-0.195,0.707,0
			L10,40.793l2.646-2.646c0.195-0.195,0.512-0.195,0.707,0s0.195,0.512,0,0.707l-3,3C10.256,41.951,10.128,42,10,42z"/>
	</g>
	<g>
		<path class="st0" d="M54,42c-0.276,0-0.5-0.224-0.5-0.5v-1c0-0.276,0.224-0.5,0.5-0.5s0.5,0.224,0.5,0.5v1
			C54.5,41.776,54.276,42,54,42z"/>
	</g>
	<g>
		<path class="st0" d="M54,39c-0.276,0-0.5-0.224-0.5-0.5v-12c0-0.276,0.224-0.5,0.5-0.5s0.5,0.224,0.5,0.5v12
			C54.5,38.776,54.276,39,54,39z"/>
	</g>
	<g>
		<path class="st0" d="M57,30c-0.128,0-0.256-0.049-0.354-0.146L54,27.207l-2.646,2.646c-0.195,0.195-0.512,0.195-0.707,0
			s-0.195-0.512,0-0.707l3-3c0.195-0.195,0.512-0.195,0.707,0l3,3c0.195,0.195,0.195,0.512,0,0.707C57.256,29.951,57.128,30,57,30z"
			/>
	</g>
	<g>
		<path class="st0" d="M60.469,20.5H48.781c-0.53,0-1.01-0.271-1.284-0.725c-0.274-0.454-0.29-1.005-0.043-1.474l4.171-7.925V2
			c0-0.276,0.224-0.5,0.5-0.5h5c0.276,0,0.5,0.224,0.5,0.5v8.376l4.171,7.925c0.247,0.469,0.231,1.02-0.043,1.474
			C61.479,20.229,60.999,20.5,60.469,20.5z M52.625,2.5v8c0,0.081-0.02,0.161-0.058,0.233l-4.229,8.034
			c-0.119,0.226-0.029,0.419,0.015,0.491c0.043,0.073,0.173,0.242,0.428,0.242h11.688c0.255,0,0.384-0.169,0.428-0.242
			c0.044-0.072,0.133-0.266,0.015-0.491l-4.229-8.034c-0.038-0.072-0.058-0.152-0.058-0.233v-8H52.625z"/>
	</g>
	<g>
		<path class="st0" d="M58.125,2.5h-7c-0.276,0-0.5-0.224-0.5-0.5s0.224-0.5,0.5-0.5h7c0.276,0,0.5,0.224,0.5,0.5
			S58.401,2.5,58.125,2.5z"/>
	</g>
	<g>
		<path class="st2" d="M52.125,10.5l-4.229,8.034C47.546,19.2,48.029,20,48.781,20h11.687c0.753,0,1.235-0.8,0.885-1.466
			L57.125,10.5"/>
		<path class="st0" d="M60.469,20.5H48.781c-0.53,0-1.01-0.271-1.284-0.725c-0.274-0.454-0.29-1.005-0.043-1.474l4.229-8.034
			c0.128-0.244,0.431-0.337,0.675-0.209c0.244,0.128,0.338,0.431,0.209,0.675l-4.229,8.034c-0.119,0.226-0.029,0.419,0.015,0.491
			c0.043,0.073,0.173,0.242,0.428,0.242h11.688c0.255,0,0.384-0.169,0.428-0.242c0.044-0.072,0.133-0.266,0.015-0.491l-4.229-8.034
			c-0.129-0.245-0.035-0.547,0.209-0.675c0.244-0.127,0.547-0.035,0.675,0.209l4.229,8.034c0.247,0.469,0.231,1.02-0.043,1.474
			C61.479,20.229,60.999,20.5,60.469,20.5z"/>
	</g>
</g>
</svg>
