<?xml version="1.0" encoding="utf-8"?>
<!-- Generator: Adobe Illustrator 21.1.0, SVG Export Plug-In . SVG Version: 6.00 Build 0)  -->
<svg version="1.1" id="Icon_Set" xmlns="http://www.w3.org/2000/svg" xmlns:xlink="http://www.w3.org/1999/xlink" x="0px" y="0px"
	 viewBox="0 0 64 64" style="enable-background:new 0 0 64 64;" xml:space="preserve">
<style type="text/css">
	.st0{fill:#263238;}
	.st1{fill:#FFD740;}
	.st2{fill:#FF5252;}
	.st3{fill:#40C4FF;}
	.st4{fill:#4DB6AC;}
	.st5{fill:#FFFFFF;}
	.st6{fill:#FFD345;}
</style>
<g>
	<g>
		<path class="st0" d="M36,27c-0.276,0-0.5-0.224-0.5-0.5V11c0-0.276-0.224-0.5-0.5-0.5H13c-0.276,0-0.5,0.224-0.5,0.5v10
			c0,0.276-0.224,0.5-0.5,0.5s-0.5-0.224-0.5-0.5V11c0-0.827,0.673-1.5,1.5-1.5h22c0.827,0,1.5,0.673,1.5,1.5v15.5
			C36.5,26.776,36.277,27,36,27z"/>
	</g>
	<g>
		<path class="st0" d="M39,27c-0.276,0-0.5-0.224-0.5-0.5V14c0-0.276-0.224-0.5-0.5-0.5c-0.276,0-0.5-0.224-0.5-0.5
			s0.224-0.5,0.5-0.5c0.827,0,1.5,0.673,1.5,1.5v12.5C39.5,26.776,39.277,27,39,27z"/>
	</g>
	<g>
		<path class="st0" d="M49,44.5h-4c-0.276,0-0.5-0.224-0.5-0.5V25c0-0.827,0.673-1.5,1.5-1.5h2c0.827,0,1.5,0.673,1.5,1.5v19
			C49.5,44.276,49.276,44.5,49,44.5z M45.5,43.5h3V25c0-0.276-0.224-0.5-0.5-0.5h-2c-0.276,0-0.5,0.224-0.5,0.5V43.5z"/>
	</g>
	<g>
		<path class="st0" d="M52.5,48.5h-11c-0.827,0-1.5-0.673-1.5-1.5v-2c0-0.827,0.673-1.5,1.5-1.5h11c0.827,0,1.5,0.673,1.5,1.5v2
			C54,47.827,53.327,48.5,52.5,48.5z M41.5,44.5c-0.276,0-0.5,0.224-0.5,0.5v2c0,0.276,0.224,0.5,0.5,0.5h11
			c0.276,0,0.5-0.224,0.5-0.5v-2c0-0.276-0.224-0.5-0.5-0.5H41.5z"/>
	</g>
	<g>
		<path class="st4" d="M54.219,58H39.781c-0.651,0-1.128-0.611-0.97-1.243L41,48h12l2.189,8.757C55.347,57.389,54.87,58,54.219,58z"
			/>
		<path class="st0" d="M54.219,58.5H39.781c-0.465,0-0.896-0.21-1.182-0.577c-0.286-0.367-0.386-0.836-0.273-1.287l2.189-8.757
			C40.571,47.656,40.771,47.5,41,47.5h12c0.229,0,0.429,0.156,0.485,0.379l2.189,8.757c0.113,0.451,0.013,0.92-0.273,1.287
			C55.115,58.29,54.684,58.5,54.219,58.5z M41.391,48.5l-2.095,8.378c-0.038,0.15-0.004,0.307,0.091,0.429
			c0.095,0.122,0.239,0.192,0.394,0.192h14.438c0.155,0,0.299-0.07,0.394-0.192c0.096-0.122,0.129-0.279,0.091-0.429L52.609,48.5
			H41.391z"/>
	</g>
	<g>
		<path class="st1" d="M38.846,48.369C38.632,47.957,38.5,47.496,38.5,47v-2c0-1.657,1.343-3,3-3H43V31c0-1.381-1.119-2.5-2.5-2.5
			h-8.723c-0.506,0-1-0.153-1.416-0.44l-6.72-4.62C23.223,23.153,22.729,23,22.224,23H8.5C7.119,23,6,24.119,6,25.5v24
			C6,50.881,7.119,52,8.5,52h29.438L38.846,48.369z"/>
	</g>
	<g>
		<path class="st0" d="M58,8.5h-4c-0.276,0-0.5-0.224-0.5-0.5s0.224-0.5,0.5-0.5h4c0.276,0,0.5,0.224,0.5,0.5S58.276,8.5,58,8.5z"/>
	</g>
	<g>
		<path class="st0" d="M56,10.5c-0.276,0-0.5-0.224-0.5-0.5V6c0-0.276,0.224-0.5,0.5-0.5s0.5,0.224,0.5,0.5v4
			C56.5,10.276,56.276,10.5,56,10.5z"/>
	</g>
	<g>
		<path class="st0" d="M51,15h-4c-0.276,0-0.5-0.224-0.5-0.5S46.724,14,47,14h4c0.276,0,0.5,0.224,0.5,0.5S51.276,15,51,15z"/>
	</g>
	<g>
		<path class="st0" d="M49,17c-0.276,0-0.5-0.224-0.5-0.5v-4c0-0.276,0.224-0.5,0.5-0.5s0.5,0.224,0.5,0.5v4
			C49.5,16.776,49.276,17,49,17z"/>
	</g>
	<g>
		<path class="st0" d="M11,58H9c-0.276,0-0.5-0.224-0.5-0.5S8.724,57,9,57h2c0.276,0,0.5,0.224,0.5,0.5S11.276,58,11,58z"/>
	</g>
	<g>
		<path class="st0" d="M33,58H13c-0.276,0-0.5-0.224-0.5-0.5S12.724,57,13,57h20c0.276,0,0.5,0.224,0.5,0.5S33.276,58,33,58z"/>
	</g>
	<g>
		<path class="st0" d="M44,58.5c-0.276,0-0.5-0.224-0.5-0.5v-5c0-0.276,0.224-0.5,0.5-0.5s0.5,0.224,0.5,0.5v5
			C44.5,58.276,44.276,58.5,44,58.5z"/>
	</g>
	<g>
		<path class="st0" d="M50,58.5c-0.276,0-0.5-0.224-0.5-0.5v-5c0-0.276,0.224-0.5,0.5-0.5s0.5,0.224,0.5,0.5v5
			C50.5,58.276,50.276,58.5,50,58.5z"/>
	</g>
	<g>
		<path class="st0" d="M37.938,52.5H8.5c-1.654,0-3-1.346-3-3v-24c0-1.654,1.346-3,3-3h13.724c0.61,0,1.197,0.183,1.7,0.528
			l6.72,4.62C30.979,27.878,31.37,28,31.777,28H40.5c1.654,0,3,1.346,3,3c0,0.276-0.224,0.5-0.5,0.5s-0.5-0.224-0.5-0.5
			c0-1.103-0.897-2-2-2h-8.723c-0.61,0-1.198-0.183-1.7-0.528l-6.72-4.62c-0.335-0.23-0.727-0.352-1.133-0.352H8.5
			c-1.103,0-2,0.897-2,2v24c0,1.103,0.897,2,2,2h29.438c0.276,0,0.5,0.224,0.5,0.5S38.215,52.5,37.938,52.5z"/>
	</g>
	<g>
		<path class="st0" d="M31.5,15.5h-15c-0.276,0-0.5-0.224-0.5-0.5s0.224-0.5,0.5-0.5h15c0.276,0,0.5,0.224,0.5,0.5
			S31.777,15.5,31.5,15.5z"/>
	</g>
	<g>
		<path class="st0" d="M31.5,19.5h-15c-0.276,0-0.5-0.224-0.5-0.5s0.224-0.5,0.5-0.5h15c0.276,0,0.5,0.224,0.5,0.5
			S31.777,19.5,31.5,19.5z"/>
	</g>
	<g>
		<path class="st0" d="M40,37c-0.276,0-0.5-0.224-0.5-0.5v-4c0-0.276-0.224-0.5-0.5-0.5h-4c-0.276,0-0.5-0.224-0.5-0.5
			S34.724,31,35,31h4c0.827,0,1.5,0.673,1.5,1.5v4C40.5,36.776,40.276,37,40,37z"/>
	</g>
</g>
</svg>
