<?xml version="1.0" encoding="utf-8"?>
<!-- Generator: Adobe Illustrator 21.1.0, SVG Export Plug-In . SVG Version: 6.00 Build 0)  -->
<svg version="1.1" id="Icon_Set" xmlns="http://www.w3.org/2000/svg" xmlns:xlink="http://www.w3.org/1999/xlink" x="0px" y="0px"
	 viewBox="0 0 64 64" style="enable-background:new 0 0 64 64;" xml:space="preserve">
<style type="text/css">
	.st0{fill:#263238;}
	.st1{fill:#FFD740;}
	.st2{fill:#FF5252;}
	.st3{fill:#40C4FF;}
	.st4{fill:#4DB6AC;}
	.st5{fill:#FFFFFF;}
	.st6{fill:#FFD345;}
</style>
<g>
	<g>
		<path class="st0" d="M19,21.25h-7.5c-0.202,0-0.385-0.122-0.462-0.309s-0.034-0.402,0.108-0.545l10-10
			c0.143-0.144,0.359-0.186,0.545-0.108C21.878,10.365,22,10.548,22,10.75v7.5C22,19.904,20.654,21.25,19,21.25z M12.707,20.25H19
			c1.103,0,2-0.897,2-2v-6.293L12.707,20.25z"/>
	</g>
	<g>
		<path class="st0" d="M14.5,7.75h-4c-0.276,0-0.5-0.224-0.5-0.5s0.224-0.5,0.5-0.5h4c0.276,0,0.5,0.224,0.5,0.5
			S14.776,7.75,14.5,7.75z"/>
	</g>
	<g>
		<path class="st0" d="M12.5,9.75c-0.276,0-0.5-0.224-0.5-0.5v-4c0-0.276,0.224-0.5,0.5-0.5S13,4.974,13,5.25v4
			C13,9.526,12.776,9.75,12.5,9.75z"/>
	</g>
	<g>
		<path class="st0" d="M7.5,14.25h-4c-0.276,0-0.5-0.224-0.5-0.5s0.224-0.5,0.5-0.5h4c0.276,0,0.5,0.224,0.5,0.5
			S7.776,14.25,7.5,14.25z"/>
	</g>
	<g>
		<path class="st0" d="M5.5,16.25c-0.276,0-0.5-0.224-0.5-0.5v-4c0-0.276,0.224-0.5,0.5-0.5S6,11.474,6,11.75v4
			C6,16.026,5.776,16.25,5.5,16.25z"/>
	</g>
	<g>
		<path class="st0" d="M44.5,7.25h-1c-0.276,0-0.5-0.224-0.5-0.5s0.224-0.5,0.5-0.5h1c0.276,0,0.5,0.224,0.5,0.5
			S44.776,7.25,44.5,7.25z"/>
	</g>
	<g>
		<path class="st0" d="M41.5,7.25h-16c-0.276,0-0.5-0.224-0.5-0.5s0.224-0.5,0.5-0.5h16c0.276,0,0.5,0.224,0.5,0.5
			S41.776,7.25,41.5,7.25z"/>
	</g>
	<g>
		<path class="st1" d="M54.934,47.461L51.5,49.75l-3.434-2.289C44.589,45.143,42.5,41.24,42.5,37.06v-7.31l1.016,0.79
			c1.99,1.548,4.822,1.372,6.605-0.411L51.5,28.75l1.379,1.379c1.783,1.783,4.615,1.959,6.605,0.411l1.016-0.79v7.31
			C60.5,41.24,58.411,45.143,54.934,47.461z"/>
		<path class="st0" d="M51.5,50.25c-0.097,0-0.193-0.028-0.277-0.084l-3.434-2.289C44.164,45.46,42,41.417,42,37.061V29.75
			c0-0.191,0.108-0.365,0.28-0.449c0.171-0.084,0.376-0.062,0.526,0.055l1.016,0.79c1.789,1.391,4.344,1.229,5.945-0.37l1.379-1.379
			c0.195-0.195,0.512-0.195,0.707,0l1.379,1.379c1.601,1.601,4.156,1.762,5.945,0.37l1.016-0.79c0.15-0.117,0.356-0.139,0.526-0.055
			C60.892,29.385,61,29.559,61,29.75v7.311c0,4.356-2.164,8.399-5.789,10.816l-3.434,2.289C51.693,50.222,51.597,50.25,51.5,50.25z
			 M43,30.772v6.288c0,4.021,1.998,7.754,5.344,9.984l3.156,2.104l3.156-2.104C58.002,44.814,60,41.082,60,37.061v-6.288
			l-0.209,0.162c-2.187,1.698-5.311,1.503-7.266-0.452L51.5,29.457l-1.025,1.025c-1.956,1.959-5.081,2.15-7.266,0.452L43,30.772z"/>
	</g>
	<g>
		<path class="st0" d="M49,59.25H14c-1.654,0-3-1.346-3-3v-35.5c0-0.133,0.053-0.26,0.146-0.354l10-10
			c0.094-0.094,0.221-0.146,0.354-0.146H49c1.654,0,3,1.346,3,3v13.5c0,0.276-0.224,0.5-0.5,0.5s-0.5-0.224-0.5-0.5v-13.5
			c0-1.103-0.897-2-2-2H21.707L12,20.957V56.25c0,1.103,0.897,2,2,2h35c1.103,0,2-0.897,2-2v-4.5c0-0.276,0.224-0.5,0.5-0.5
			s0.5,0.224,0.5,0.5v4.5C52,57.904,50.654,59.25,49,59.25z"/>
	</g>
	<g>
		<path class="st0" d="M50.263,42.401c-0.128,0-0.256-0.049-0.354-0.146l-2.828-2.828c-0.195-0.195-0.195-0.512,0-0.707
			s0.512-0.195,0.707,0l2.475,2.475l4.949-4.949c0.195-0.195,0.512-0.195,0.707,0s0.195,0.512,0,0.707l-5.303,5.303
			C50.519,42.353,50.391,42.401,50.263,42.401z"/>
	</g>
	<g>
		<path class="st0" d="M43.5,27.75h-24c-0.276,0-0.5-0.224-0.5-0.5s0.224-0.5,0.5-0.5h24c0.276,0,0.5,0.224,0.5,0.5
			S43.776,27.75,43.5,27.75z"/>
	</g>
	<g>
		<path class="st0" d="M40.5,32.75h-21c-0.276,0-0.5-0.224-0.5-0.5s0.224-0.5,0.5-0.5h21c0.276,0,0.5,0.224,0.5,0.5
			S40.776,32.75,40.5,32.75z"/>
	</g>
	<g>
		<path class="st0" d="M40.5,37.75h-21c-0.276,0-0.5-0.224-0.5-0.5s0.224-0.5,0.5-0.5h21c0.276,0,0.5,0.224,0.5,0.5
			S40.776,37.75,40.5,37.75z"/>
	</g>
	<g>
		<path class="st0" d="M40.5,42.75h-21c-0.276,0-0.5-0.224-0.5-0.5s0.224-0.5,0.5-0.5h21c0.276,0,0.5,0.224,0.5,0.5
			S40.776,42.75,40.5,42.75z"/>
	</g>
	<g>
		<path class="st0" d="M28.5,47.75h-9c-0.276,0-0.5-0.224-0.5-0.5s0.224-0.5,0.5-0.5h9c0.276,0,0.5,0.224,0.5,0.5
			S28.776,47.75,28.5,47.75z"/>
	</g>
	<g>
		<rect x="27.499" y="18.25" class="st2" width="16" height="4"/>
		<path class="st0" d="M43.5,22.75H27.499c-0.276,0-0.5-0.224-0.5-0.5v-4c0-0.276,0.224-0.5,0.5-0.5H43.5c0.276,0,0.5,0.224,0.5,0.5
			v4C44,22.526,43.776,22.75,43.5,22.75z M27.999,21.75H43v-3H27.999V21.75z"/>
	</g>
</g>
</svg>
