<?xml version="1.0" encoding="utf-8"?>
<!-- Generator: Adobe Illustrator 21.1.0, SVG Export Plug-In . SVG Version: 6.00 Build 0)  -->
<svg version="1.1" id="Icon_Set" xmlns="http://www.w3.org/2000/svg" xmlns:xlink="http://www.w3.org/1999/xlink" x="0px" y="0px"
	 viewBox="0 0 64 64" style="enable-background:new 0 0 64 64;" xml:space="preserve">
<style type="text/css">
	.st0{fill:#263238;}
	.st1{fill:#FFD740;}
	.st2{fill:#FF5252;}
	.st3{fill:#40C4FF;}
	.st4{fill:#4DB6AC;}
	.st5{fill:#FFFFFF;}
	.st6{fill:#FFD345;}
</style>
<g>
	<g>
		<path class="st0" d="M41.521,26.75H22.479c-0.83,0-1.479-0.549-1.479-1.25V21c0-0.701,0.649-1.25,1.479-1.25h19.041
			C42.351,19.75,43,20.299,43,21v4.5C43,26.201,42.351,26.75,41.521,26.75z M22.479,20.75C22.182,20.75,22,20.912,22,21v4.5
			c0,0.088,0.182,0.25,0.479,0.25h19.041c0.298,0,0.479-0.162,0.479-0.25V21c0-0.088-0.182-0.25-0.479-0.25H22.479z"/>
	</g>
	<g>
		<path class="st0" d="M38.75,23.75h-5.5c-0.276,0-0.5-0.224-0.5-0.5s0.224-0.5,0.5-0.5h5.5c0.276,0,0.5,0.224,0.5,0.5
			S39.026,23.75,38.75,23.75z"/>
	</g>
	<g>
		<path class="st0" d="M29.25,24.75h-4c-0.276,0-0.5-0.224-0.5-0.5v-2c0-0.276,0.224-0.5,0.5-0.5h4c0.276,0,0.5,0.224,0.5,0.5v2
			C29.75,24.526,29.526,24.75,29.25,24.75z M25.75,23.75h3v-1h-3V23.75z"/>
	</g>
	<g>
		<path class="st0" d="M41.521,32.75H22.479c-0.83,0-1.479-0.549-1.479-1.25V27c0-0.701,0.649-1.25,1.479-1.25h19.041
			C42.351,25.75,43,26.299,43,27v4.5C43,32.201,42.351,32.75,41.521,32.75z M22.479,26.75C22.182,26.75,22,26.912,22,27v4.5
			c0,0.088,0.182,0.25,0.479,0.25h19.041c0.298,0,0.479-0.162,0.479-0.25V27c0-0.088-0.182-0.25-0.479-0.25H22.479z"/>
	</g>
	<g>
		<path class="st0" d="M38.75,29.75h-5.5c-0.276,0-0.5-0.224-0.5-0.5s0.224-0.5,0.5-0.5h5.5c0.276,0,0.5,0.224,0.5,0.5
			S39.026,29.75,38.75,29.75z"/>
	</g>
	<g>
		<path class="st0" d="M29.25,30.75h-4c-0.276,0-0.5-0.224-0.5-0.5v-2c0-0.276,0.224-0.5,0.5-0.5h4c0.276,0,0.5,0.224,0.5,0.5v2
			C29.75,30.526,29.526,30.75,29.25,30.75z M25.75,29.75h3v-1h-3V29.75z"/>
	</g>
	<g>
		<path class="st0" d="M41.521,38.75H22.479c-0.83,0-1.479-0.549-1.479-1.25V33c0-0.701,0.649-1.25,1.479-1.25h19.041
			C42.351,31.75,43,32.299,43,33v4.5C43,38.201,42.351,38.75,41.521,38.75z M22.479,32.75C22.182,32.75,22,32.912,22,33v4.5
			c0,0.088,0.182,0.25,0.479,0.25h19.041c0.298,0,0.479-0.162,0.479-0.25V33c0-0.088-0.182-0.25-0.479-0.25H22.479z"/>
	</g>
	<g>
		<path class="st0" d="M38.75,35.75h-5.5c-0.276,0-0.5-0.224-0.5-0.5s0.224-0.5,0.5-0.5h5.5c0.276,0,0.5,0.224,0.5,0.5
			S39.026,35.75,38.75,35.75z"/>
	</g>
	<g>
		<path class="st0" d="M29.25,36.75h-4c-0.276,0-0.5-0.224-0.5-0.5v-2c0-0.276,0.224-0.5,0.5-0.5h4c0.276,0,0.5,0.224,0.5,0.5v2
			C29.75,36.526,29.526,36.75,29.25,36.75z M25.75,35.75h3v-1h-3V35.75z"/>
	</g>
	<g>
		<path class="st0" d="M41,43.75H23c-0.276,0-0.5-0.224-0.5-0.5s0.224-0.5,0.5-0.5h18c0.276,0,0.5,0.224,0.5,0.5
			S41.276,43.75,41,43.75z"/>
	</g>
	<g>
		<path class="st0" d="M27,41.75c-0.276,0-0.5-0.224-0.5-0.5v-3c0-0.276,0.224-0.5,0.5-0.5s0.5,0.224,0.5,0.5v3
			C27.5,41.526,27.276,41.75,27,41.75z"/>
	</g>
	<g>
		<path class="st0" d="M37,41.75c-0.276,0-0.5-0.224-0.5-0.5v-3c0-0.276,0.224-0.5,0.5-0.5s0.5,0.224,0.5,0.5v3
			C37.5,41.526,37.276,41.75,37,41.75z"/>
	</g>
	<g>
		<path class="st4" d="M7,18.75c-0.552,0-1-0.448-1-1v-13H5c-0.552,0-1,0.448-1,1v14c0,0.552,0.448,1,1,1h11c0.552,0,1-0.448,1-1v-1
			H7z"/>
	</g>
	<g>
		<path class="st0" d="M18,19.25H7c-0.827,0-1.5-0.673-1.5-1.5v-14c0-0.827,0.673-1.5,1.5-1.5h11c0.827,0,1.5,0.673,1.5,1.5v14
			C19.5,18.577,18.827,19.25,18,19.25z M7,3.25c-0.275,0-0.5,0.224-0.5,0.5v14c0,0.276,0.225,0.5,0.5,0.5h11
			c0.275,0,0.5-0.224,0.5-0.5v-14c0-0.276-0.225-0.5-0.5-0.5H7z"/>
	</g>
	<g>
		<path class="st0" d="M15.75,8.25h-6.5c-0.276,0-0.5-0.224-0.5-0.5s0.224-0.5,0.5-0.5h6.5c0.276,0,0.5,0.224,0.5,0.5
			S16.026,8.25,15.75,8.25z"/>
	</g>
	<g>
		<path class="st0" d="M15.75,11.25h-6.5c-0.276,0-0.5-0.224-0.5-0.5s0.224-0.5,0.5-0.5h6.5c0.276,0,0.5,0.224,0.5,0.5
			S16.026,11.25,15.75,11.25z"/>
	</g>
	<g>
		<path class="st0" d="M15.75,14.25h-6.5c-0.276,0-0.5-0.224-0.5-0.5s0.224-0.5,0.5-0.5h6.5c0.276,0,0.5,0.224,0.5,0.5
			S16.026,14.25,15.75,14.25z"/>
	</g>
	<g>
		<path class="st4" d="M48,59.25c-0.552,0-1-0.448-1-1v-13h-1c-0.552,0-1,0.448-1,1v14c0,0.552,0.448,1,1,1h11c0.552,0,1-0.448,1-1
			v-1H48z"/>
	</g>
	<g>
		<path class="st0" d="M59,59.75H48c-0.827,0-1.5-0.673-1.5-1.5v-14c0-0.827,0.673-1.5,1.5-1.5h11c0.827,0,1.5,0.673,1.5,1.5v14
			C60.5,59.077,59.827,59.75,59,59.75z M48,43.75c-0.275,0-0.5,0.224-0.5,0.5v14c0,0.276,0.225,0.5,0.5,0.5h11
			c0.275,0,0.5-0.224,0.5-0.5v-14c0-0.276-0.225-0.5-0.5-0.5H48z"/>
	</g>
	<g>
		<path class="st0" d="M56.75,48.75h-6.5c-0.276,0-0.5-0.224-0.5-0.5s0.224-0.5,0.5-0.5h6.5c0.276,0,0.5,0.224,0.5,0.5
			S57.026,48.75,56.75,48.75z"/>
	</g>
	<g>
		<path class="st0" d="M56.75,51.75h-6.5c-0.276,0-0.5-0.224-0.5-0.5s0.224-0.5,0.5-0.5h6.5c0.276,0,0.5,0.224,0.5,0.5
			S57.026,51.75,56.75,51.75z"/>
	</g>
	<g>
		<path class="st0" d="M56.75,54.75h-6.5c-0.276,0-0.5-0.224-0.5-0.5s0.224-0.5,0.5-0.5h6.5c0.276,0,0.5,0.224,0.5,0.5
			S57.026,54.75,56.75,54.75z"/>
	</g>
	<g>
		<path class="st0" d="M23,7.75h-1c-0.276,0-0.5-0.224-0.5-0.5s0.224-0.5,0.5-0.5h1c0.276,0,0.5,0.224,0.5,0.5S23.276,7.75,23,7.75z
			"/>
	</g>
	<g>
		<path class="st0" d="M32,17.75c-0.276,0-0.5-0.224-0.5-0.5v-9c0-0.276-0.225-0.5-0.5-0.5h-6c-0.276,0-0.5-0.224-0.5-0.5
			s0.224-0.5,0.5-0.5h6c0.827,0,1.5,0.673,1.5,1.5v9C32.5,17.526,32.276,17.75,32,17.75z"/>
	</g>
	<g>
		<path class="st0" d="M32,17.75c-0.128,0-0.256-0.049-0.354-0.146l-3-3c-0.195-0.195-0.195-0.512,0-0.707s0.512-0.195,0.707,0
			L32,16.543l2.646-2.646c0.195-0.195,0.512-0.195,0.707,0s0.195,0.512,0,0.707l-3,3C32.256,17.701,32.128,17.75,32,17.75z"/>
	</g>
	<g>
		<path class="st0" d="M11.5,26.3c-0.276,0-0.5-0.224-0.5-0.5v-1c0-0.276,0.224-0.5,0.5-0.5s0.5,0.224,0.5,0.5v1
			C12,26.076,11.776,26.3,11.5,26.3z"/>
	</g>
	<g>
		<path class="st0" d="M11.5,40.8c-0.276,0-0.5-0.224-0.5-0.5V27.8c0-0.276,0.224-0.5,0.5-0.5s0.5,0.224,0.5,0.5v12.5
			C12,40.576,11.776,40.8,11.5,40.8z"/>
	</g>
	<g>
		<path class="st0" d="M11.5,40.8c-0.128,0-0.256-0.049-0.354-0.146l-3-3c-0.195-0.195-0.195-0.512,0-0.707s0.512-0.195,0.707,0
			l2.646,2.646l2.646-2.646c0.195-0.195,0.512-0.195,0.707,0s0.195,0.512,0,0.707l-3,3C11.756,40.751,11.628,40.8,11.5,40.8z"/>
	</g>
	<g>
		<path class="st0" d="M52.5,39.75c-0.276,0-0.5-0.224-0.5-0.5v-1c0-0.276,0.224-0.5,0.5-0.5s0.5,0.224,0.5,0.5v1
			C53,39.526,52.776,39.75,52.5,39.75z"/>
	</g>
	<g>
		<path class="st0" d="M52.5,36.75c-0.276,0-0.5-0.224-0.5-0.5v-12.5c0-0.276,0.224-0.5,0.5-0.5s0.5,0.224,0.5,0.5v12.5
			C53,36.526,52.776,36.75,52.5,36.75z"/>
	</g>
	<g>
		<path class="st0" d="M55.5,27.25c-0.128,0-0.256-0.049-0.354-0.146L52.5,24.457l-2.646,2.646c-0.195,0.195-0.512,0.195-0.707,0
			s-0.195-0.512,0-0.707l3-3c0.195-0.195,0.512-0.195,0.707,0l3,3c0.195,0.195,0.195,0.512,0,0.707
			C55.756,27.201,55.628,27.25,55.5,27.25z"/>
	</g>
	<g>
		<path class="st0" d="M42,56.75h-1c-0.276,0-0.5-0.224-0.5-0.5s0.224-0.5,0.5-0.5h1c0.276,0,0.5,0.224,0.5,0.5
			S42.276,56.75,42,56.75z"/>
	</g>
	<g>
		<path class="st0" d="M39,56.75h-6c-0.827,0-1.5-0.673-1.5-1.5v-9c0-0.276,0.224-0.5,0.5-0.5s0.5,0.224,0.5,0.5v9
			c0,0.276,0.225,0.5,0.5,0.5h6c0.276,0,0.5,0.224,0.5,0.5S39.276,56.75,39,56.75z"/>
	</g>
	<g>
		<path class="st0" d="M35,49.75c-0.128,0-0.256-0.049-0.354-0.146L32,46.957l-2.646,2.646c-0.195,0.195-0.512,0.195-0.707,0
			s-0.195-0.512,0-0.707l3-3c0.195-0.195,0.512-0.195,0.707,0l3,3c0.195,0.195,0.195,0.512,0,0.707
			C35.256,49.701,35.128,49.75,35,49.75z"/>
	</g>
	<g>
		<path class="st1" d="M59.19,12.775c0.106-0.475,0.166-0.968,0.166-1.475s-0.06-1-0.166-1.475l0.276-0.158l0.691-0.602
			c0.361-0.315,0.448-0.841,0.207-1.254l-0.888-1.526c-0.239-0.411-0.736-0.598-1.188-0.446l-0.879,0.295l-0.28,0.161
			c-0.731-0.665-1.602-1.18-2.572-1.482V4.5l-0.181-0.897C54.282,3.136,53.87,2.8,53.392,2.8h-1.784
			c-0.478,0-0.89,0.336-0.984,0.803L50.443,4.5v0.312c-0.969,0.302-1.841,0.817-2.572,1.482l-0.281-0.161l-0.879-0.295
			c-0.452-0.152-0.949,0.035-1.188,0.446L44.636,7.81c-0.241,0.414-0.154,0.94,0.207,1.254l0.691,0.602l0.276,0.158
			c-0.106,0.475-0.166,0.968-0.166,1.475s0.06,1,0.166,1.475l-0.277,0.158l-0.691,0.602c-0.361,0.315-0.448,0.841-0.207,1.254
			l0.888,1.526c0.239,0.411,0.736,0.598,1.188,0.446l0.879-0.295l0.281-0.161c0.731,0.665,1.602,1.18,2.572,1.482V18.1l0.181,0.897
			c0.094,0.467,0.506,0.803,0.984,0.803h1.784c0.478,0,0.89-0.336,0.984-0.803l0.181-0.897v-0.313
			c0.969-0.302,1.841-0.817,2.572-1.482l0.281,0.161l0.879,0.295c0.452,0.152,0.949-0.035,1.188-0.446l0.888-1.526
			c0.241-0.414,0.154-0.94-0.207-1.254l-0.691-0.602L59.19,12.775z M52.527,14.8c-1.933,0-3.5-1.567-3.5-3.5s1.567-3.5,3.5-3.5
			s3.5,1.567,3.5,3.5S54.46,14.8,52.527,14.8z"/>
		<path class="st0" d="M53.393,20.3h-1.785c-0.714,0-1.334-0.507-1.474-1.205l-0.182-0.946c-0.777-0.285-1.496-0.7-2.146-1.237
			l-0.936,0.324c-0.674,0.228-1.422-0.054-1.78-0.668l-0.888-1.526c-0.36-0.619-0.23-1.411,0.312-1.883l0.737-0.63
			c-0.072-0.412-0.108-0.824-0.108-1.228s0.036-0.816,0.108-1.229l-0.737-0.63c-0.541-0.472-0.672-1.263-0.311-1.883l0.887-1.525
			c0.357-0.615,1.109-0.893,1.78-0.668l0.934,0.325c0.65-0.538,1.37-0.954,2.148-1.239l0.181-0.947
			c0.141-0.698,0.76-1.204,1.474-1.204h1.785c0.714,0,1.333,0.506,1.474,1.204l0.182,0.947c0.778,0.286,1.497,0.7,2.146,1.237
			l0.936-0.324c0.673-0.225,1.423,0.055,1.78,0.668l0.888,1.525c0.36,0.62,0.229,1.411-0.312,1.883l-0.737,0.63
			c0.072,0.413,0.108,0.824,0.108,1.229c0,0.404-0.036,0.815-0.108,1.228l0.738,0.631c0.54,0.471,0.671,1.263,0.31,1.883
			l-0.887,1.525c-0.358,0.614-1.11,0.893-1.78,0.668l-0.935-0.325c-0.648,0.538-1.368,0.953-2.147,1.238l-0.181,0.947
			C54.726,19.793,54.106,20.3,53.393,20.3z M47.871,15.806c0.121,0,0.242,0.044,0.336,0.13c0.701,0.638,1.504,1.1,2.385,1.375
			c0.209,0.065,0.352,0.259,0.352,0.478V18.1l0.171,0.798c0.047,0.233,0.254,0.402,0.493,0.402h1.785
			c0.239,0,0.446-0.169,0.493-0.401l0.181-0.897l-0.01-0.214c0-0.219,0.143-0.412,0.352-0.478c0.883-0.275,1.685-0.737,2.384-1.374
			c0.161-0.147,0.4-0.172,0.586-0.064l0.28,0.161l0.789,0.254c0.226,0.074,0.478-0.018,0.597-0.223l0.888-1.525
			c0.12-0.206,0.077-0.469-0.103-0.626l-0.691-0.603l-0.196-0.101c-0.19-0.108-0.288-0.329-0.24-0.543
			c0.104-0.459,0.155-0.918,0.155-1.366s-0.052-0.907-0.155-1.366c-0.048-0.214,0.05-0.435,0.24-0.543l0.276-0.158l0.611-0.545
			c0.18-0.157,0.223-0.42,0.104-0.626l-0.889-1.525c-0.118-0.206-0.371-0.3-0.597-0.223l-0.879,0.295l-0.191,0.12
			c-0.188,0.107-0.424,0.082-0.585-0.064c-0.699-0.636-1.502-1.099-2.384-1.374c-0.209-0.065-0.352-0.259-0.352-0.478V4.5
			l-0.171-0.799C53.839,3.469,53.632,3.3,53.393,3.3h-1.785c-0.239,0-0.446,0.169-0.493,0.401l-0.181,0.897l0.01,0.213
			c0,0.219-0.143,0.412-0.352,0.478c-0.881,0.274-1.684,0.737-2.385,1.375c-0.159,0.146-0.396,0.171-0.585,0.063l-0.28-0.161
			l-0.789-0.254c-0.227-0.079-0.479,0.017-0.597,0.223l-0.888,1.525c-0.12,0.206-0.077,0.469,0.103,0.626l0.691,0.603l0.196,0.101
			c0.19,0.109,0.288,0.329,0.24,0.543c-0.104,0.459-0.155,0.918-0.155,1.366s0.052,0.907,0.155,1.366
			c0.048,0.214-0.05,0.435-0.24,0.543l-0.277,0.158l-0.61,0.545c-0.18,0.157-0.224,0.42-0.104,0.625l0.889,1.526
			c0.118,0.206,0.372,0.3,0.597,0.223l0.879-0.294l0.19-0.121C47.699,15.828,47.785,15.806,47.871,15.806z M52.527,15.3
			c-2.206,0-4-1.794-4-4s1.794-4,4-4s4,1.794,4,4S54.733,15.3,52.527,15.3z M52.527,8.3c-1.654,0-3,1.346-3,3s1.346,3,3,3
			s3-1.346,3-3S54.182,8.3,52.527,8.3z"/>
	</g>
	<g>
		<path class="st1" d="M18.19,54.225c0.106-0.475,0.166-0.968,0.166-1.475s-0.06-1-0.166-1.475l0.276-0.158l0.691-0.602
			c0.361-0.315,0.448-0.841,0.207-1.254l-0.888-1.526c-0.239-0.411-0.736-0.598-1.188-0.446l-0.879,0.295l-0.28,0.161
			c-0.731-0.665-1.602-1.18-2.572-1.482V45.95l-0.181-0.897c-0.094-0.467-0.506-0.803-0.984-0.803h-1.784
			c-0.478,0-0.89,0.336-0.984,0.803L9.443,45.95v0.312c-0.969,0.302-1.841,0.817-2.572,1.482l-0.281-0.161l-0.879-0.295
			c-0.452-0.152-0.949,0.035-1.188,0.446L3.636,49.26c-0.241,0.414-0.154,0.94,0.207,1.254l0.691,0.602l0.276,0.158
			c-0.106,0.475-0.166,0.968-0.166,1.475s0.06,1,0.166,1.475l-0.277,0.158l-0.691,0.602C3.482,55.3,3.395,55.826,3.636,56.24
			l0.888,1.526c0.239,0.411,0.736,0.598,1.188,0.446l0.879-0.295l0.281-0.161c0.731,0.665,1.602,1.18,2.572,1.482v0.313l0.181,0.897
			c0.094,0.467,0.506,0.803,0.984,0.803h1.784c0.478,0,0.89-0.336,0.984-0.803l0.181-0.897v-0.313
			c0.969-0.302,1.841-0.817,2.572-1.482l0.281,0.161l0.879,0.295c0.452,0.152,0.949-0.035,1.188-0.446l0.888-1.526
			c0.241-0.414,0.154-0.94-0.207-1.254l-0.691-0.602L18.19,54.225z M11.527,56.25c-1.933,0-3.5-1.567-3.5-3.5s1.567-3.5,3.5-3.5
			s3.5,1.567,3.5,3.5S13.46,56.25,11.527,56.25z"/>
		<path class="st0" d="M12.393,61.75h-1.785c-0.714,0-1.333-0.506-1.474-1.204l-0.182-0.947c-0.777-0.285-1.496-0.7-2.146-1.237
			l-0.936,0.324c-0.676,0.226-1.424-0.056-1.78-0.669l-0.888-1.525c-0.36-0.62-0.229-1.411,0.312-1.883l0.737-0.63
			c-0.072-0.413-0.108-0.824-0.108-1.229s0.036-0.816,0.108-1.229l-0.737-0.63c-0.542-0.472-0.672-1.264-0.311-1.883l0.887-1.525
			c0.357-0.615,1.108-0.893,1.78-0.668l0.934,0.325c0.65-0.538,1.37-0.954,2.148-1.239l0.181-0.946
			c0.14-0.698,0.76-1.205,1.474-1.205h1.785c0.714,0,1.334,0.507,1.474,1.205l0.182,0.946c0.778,0.286,1.497,0.7,2.146,1.237
			l0.936-0.324c0.672-0.225,1.423,0.055,1.78,0.668l0.888,1.526c0.36,0.619,0.23,1.411-0.312,1.883l-0.737,0.63
			c0.072,0.413,0.108,0.824,0.108,1.229s-0.036,0.816-0.108,1.228l0.738,0.631c0.54,0.472,0.671,1.263,0.31,1.883l-0.887,1.525
			c-0.356,0.613-1.101,0.896-1.78,0.669l-0.934-0.325c-0.649,0.538-1.369,0.953-2.148,1.238l-0.181,0.947
			C13.726,61.243,13.106,61.75,12.393,61.75z M6.871,57.256c0.121,0,0.242,0.044,0.336,0.13c0.701,0.637,1.504,1.1,2.385,1.374
			c0.209,0.065,0.352,0.259,0.352,0.478v0.312l0.171,0.798c0.047,0.232,0.254,0.401,0.493,0.401h1.785
			c0.239,0,0.446-0.169,0.493-0.401l0.181-0.897l-0.01-0.214c0-0.219,0.143-0.412,0.352-0.478c0.882-0.275,1.685-0.737,2.384-1.374
			c0.161-0.146,0.396-0.172,0.586-0.064l0.28,0.161l0.789,0.254c0.224,0.074,0.477-0.018,0.597-0.224l0.888-1.525
			c0.12-0.206,0.077-0.469-0.103-0.626l-0.69-0.602l-0.197-0.102c-0.19-0.109-0.288-0.329-0.24-0.543
			c0.104-0.459,0.155-0.918,0.155-1.366s-0.052-0.907-0.155-1.366c-0.048-0.214,0.05-0.435,0.24-0.543l0.276-0.158l0.611-0.545
			c0.18-0.157,0.224-0.42,0.104-0.625l-0.889-1.526c-0.118-0.206-0.371-0.299-0.597-0.223l-0.879,0.295l-0.19,0.12
			c-0.189,0.108-0.425,0.082-0.586-0.064c-0.699-0.637-1.501-1.099-2.384-1.374c-0.209-0.065-0.352-0.259-0.352-0.478V45.95
			l-0.171-0.798c-0.047-0.233-0.254-0.402-0.493-0.402h-1.785c-0.239,0-0.446,0.169-0.493,0.401l-0.181,0.897l0.01,0.213
			c0,0.219-0.143,0.412-0.352,0.478c-0.881,0.274-1.684,0.737-2.385,1.375c-0.159,0.146-0.396,0.171-0.585,0.063l-0.28-0.161
			l-0.789-0.254c-0.227-0.078-0.479,0.017-0.597,0.223l-0.888,1.526c-0.121,0.206-0.077,0.469,0.103,0.626l0.691,0.602l0.196,0.101
			c0.19,0.109,0.288,0.329,0.24,0.543c-0.104,0.459-0.155,0.918-0.155,1.366s0.052,0.907,0.155,1.366
			c0.048,0.214-0.05,0.435-0.24,0.543l-0.277,0.159l-0.61,0.545c-0.18,0.157-0.223,0.42-0.104,0.626l0.889,1.525
			c0.118,0.206,0.372,0.299,0.597,0.224l0.879-0.295l0.19-0.12C6.7,57.278,6.786,57.256,6.871,57.256z M11.527,56.75
			c-2.206,0-4-1.794-4-4s1.794-4,4-4s4,1.794,4,4S13.733,56.75,11.527,56.75z M11.527,49.75c-1.654,0-3,1.346-3,3s1.346,3,3,3
			s3-1.346,3-3S13.182,49.75,11.527,49.75z"/>
	</g>
</g>
</svg>
