<?xml version="1.0" encoding="utf-8"?>
<!-- Generator: Adobe Illustrator 21.1.0, SVG Export Plug-In . SVG Version: 6.00 Build 0)  -->
<svg version="1.1" id="Icon_Set" xmlns="http://www.w3.org/2000/svg" xmlns:xlink="http://www.w3.org/1999/xlink" x="0px" y="0px"
	 viewBox="0 0 64 64" style="enable-background:new 0 0 64 64;" xml:space="preserve">
<style type="text/css">
	.st0{fill:#263238;}
	.st1{fill:#FFD740;}
	.st2{fill:#FF5252;}
	.st3{fill:#40C4FF;}
	.st4{fill:#4DB6AC;}
	.st5{fill:#FFFFFF;}
	.st6{fill:#FFD345;}
</style>
<g>
	<g>
		<path class="st0" d="M12,55c-0.276,0-0.5-0.224-0.5-0.5v-4c0-0.276,0.224-0.5,0.5-0.5s0.5,0.224,0.5,0.5v4
			C12.5,54.776,12.276,55,12,55z"/>
	</g>
	<g>
		<path class="st0" d="M14,53h-4c-0.276,0-0.5-0.224-0.5-0.5S9.724,52,10,52h4c0.276,0,0.5,0.224,0.5,0.5S14.276,53,14,53z"/>
	</g>
	<g>
		<path class="st0" d="M20,64c-0.276,0-0.5-0.224-0.5-0.5v-4c0-0.276,0.224-0.5,0.5-0.5s0.5,0.224,0.5,0.5v4
			C20.5,63.776,20.276,64,20,64z"/>
	</g>
	<g>
		<path class="st0" d="M22,62h-4c-0.276,0-0.5-0.224-0.5-0.5S17.724,61,18,61h4c0.276,0,0.5,0.224,0.5,0.5S22.276,62,22,62z"/>
	</g>
	<g>
		<path class="st0" d="M21.819,43.761c-0.128,0-0.256-0.049-0.354-0.146c-0.283-0.283-0.439-0.66-0.439-1.061
			c0-0.4,0.156-0.777,0.439-1.061l2.121-2.121c0.584-0.584,1.536-0.585,2.122,0c0.195,0.195,0.195,0.512,0,0.707
			s-0.512,0.195-0.707,0c-0.195-0.194-0.512-0.195-0.708,0l-2.121,2.122c-0.095,0.095-0.146,0.22-0.146,0.354
			c0,0.133,0.052,0.259,0.146,0.354c0.195,0.195,0.195,0.512,0,0.707C22.075,43.712,21.947,43.761,21.819,43.761z"/>
	</g>
	<g>
		<path class="st0" d="M41.265,63.499c-0.384,0-0.768-0.146-1.061-0.438l-5.657-5.657l-6.398-7.815
			c-0.175-0.213-0.143-0.528,0.071-0.704c0.213-0.175,0.527-0.144,0.704,0.071l6.364,7.778l5.624,5.62
			c0.195,0.195,0.512,0.195,0.707,0l2.829-2.828c0.195-0.195,0.195-0.512,0-0.708l-5.657-5.657l-7.741-6.331
			c-0.214-0.175-0.246-0.49-0.071-0.704c0.175-0.214,0.49-0.245,0.704-0.071l7.778,6.364l5.694,5.691
			c0.585,0.585,0.585,1.537,0,2.122l-2.829,2.828C42.033,63.353,41.649,63.499,41.265,63.499z"/>
	</g>
	<g>
		<path class="st1" d="M35.254,39.726L21.819,53.161c-0.391,0.391-1.024,0.391-1.414,0L19.2,51.956
			c-0.329-0.329-0.388-0.842-0.141-1.237l3.053-4.886c0.04-0.064,0.087-0.124,0.141-0.177l9.466-9.466
			c0.391-0.391,1.024-0.391,1.414,0l2.121,2.121C35.645,38.702,35.645,39.336,35.254,39.726z"/>
		<path class="st0" d="M21.112,53.954c-0.401,0-0.778-0.156-1.061-0.439l-1.205-1.205c-0.497-0.498-0.583-1.261-0.211-1.856
			l3.053-4.885c0.06-0.096,0.132-0.187,0.213-0.267l9.464-9.464c0.584-0.584,1.537-0.585,2.121,0l2.122,2.122
			c0.585,0.585,0.585,1.536,0,2.121L22.173,53.515C21.89,53.798,21.513,53.954,21.112,53.954z M32.426,36.398
			c-0.128,0-0.256,0.049-0.354,0.146l-9.465,9.465c-0.027,0.027-0.05,0.056-0.07,0.087l-3.054,4.887
			c-0.124,0.198-0.095,0.453,0.071,0.619l1.205,1.205c0.189,0.189,0.518,0.189,0.707,0l13.435-13.435
			c0.195-0.195,0.195-0.512,0-0.707l-2.122-2.122C32.682,36.447,32.554,36.398,32.426,36.398z"/>
	</g>
	<g>
		<path class="st0" d="M14.5,44.5h-13C0.673,44.5,0,43.827,0,43V27c0-0.827,0.673-1.5,1.5-1.5h13c0.827,0,1.5,0.673,1.5,1.5v16
			C16,43.827,15.327,44.5,14.5,44.5z M1.5,26.5C1.224,26.5,1,26.724,1,27v16c0,0.276,0.224,0.5,0.5,0.5h13
			c0.276,0,0.5-0.224,0.5-0.5V27c0-0.276-0.224-0.5-0.5-0.5H1.5z"/>
	</g>
	<g>
		<circle class="st2" cx="8" cy="33.5" r="4"/>
		<path class="st0" d="M8,38c-2.481,0-4.5-2.019-4.5-4.5S5.519,29,8,29s4.5,2.019,4.5,4.5S10.481,38,8,38z M8,30
			c-1.93,0-3.5,1.57-3.5,3.5S6.07,37,8,37s3.5-1.57,3.5-3.5S9.93,30,8,30z"/>
	</g>
	<g>
		<path class="st0" d="M10.822,36.822c-0.128,0-0.256-0.049-0.354-0.146l-2.822-2.822C7.553,33.76,7.5,33.633,7.5,33.5v-4
			C7.5,29.224,7.724,29,8,29s0.5,0.224,0.5,0.5v3.793l2.676,2.676c0.195,0.195,0.195,0.512,0,0.707
			C11.078,36.773,10.95,36.822,10.822,36.822z"/>
	</g>
	<g>
		<path class="st0" d="M8,34H4c-0.276,0-0.5-0.224-0.5-0.5S3.724,33,4,33h4c0.276,0,0.5,0.224,0.5,0.5S8.276,34,8,34z"/>
	</g>
	<g>
		<path class="st0" d="M12,40.5H4c-0.276,0-0.5-0.224-0.5-0.5s0.224-0.5,0.5-0.5h8c0.276,0,0.5,0.224,0.5,0.5S12.276,40.5,12,40.5z"
			/>
	</g>
	<g>
		<path class="st0" d="M62.5,44.5h-13c-0.827,0-1.5-0.673-1.5-1.5v-4c0-0.827,0.673-1.5,1.5-1.5h13c0.827,0,1.5,0.673,1.5,1.5v4
			C64,43.827,63.327,44.5,62.5,44.5z M49.5,38.5c-0.276,0-0.5,0.224-0.5,0.5v4c0,0.276,0.224,0.5,0.5,0.5h13
			c0.276,0,0.5-0.224,0.5-0.5v-4c0-0.276-0.224-0.5-0.5-0.5H49.5z"/>
	</g>
	<g>
		<path class="st0" d="M60.5,41.5H56c-0.276,0-0.5-0.224-0.5-0.5s0.224-0.5,0.5-0.5h4.5c0.276,0,0.5,0.224,0.5,0.5
			S60.776,41.5,60.5,41.5z"/>
	</g>
	<g>
		<path class="st0" d="M62.5,38.5h-13c-0.827,0-1.5-0.673-1.5-1.5v-4c0-0.827,0.673-1.5,1.5-1.5h13c0.827,0,1.5,0.673,1.5,1.5v4
			C64,37.827,63.327,38.5,62.5,38.5z M49.5,32.5c-0.276,0-0.5,0.224-0.5,0.5v4c0,0.276,0.224,0.5,0.5,0.5h13
			c0.276,0,0.5-0.224,0.5-0.5v-4c0-0.276-0.224-0.5-0.5-0.5H49.5z"/>
	</g>
	<g>
		<path class="st0" d="M60.5,35.5H56c-0.276,0-0.5-0.224-0.5-0.5s0.224-0.5,0.5-0.5h4.5c0.276,0,0.5,0.224,0.5,0.5
			S60.776,35.5,60.5,35.5z"/>
	</g>
	<g>
		<path class="st0" d="M62.5,32.5h-13c-0.827,0-1.5-0.673-1.5-1.5v-4c0-0.827,0.673-1.5,1.5-1.5h13c0.827,0,1.5,0.673,1.5,1.5v4
			C64,31.827,63.327,32.5,62.5,32.5z M49.5,26.5c-0.276,0-0.5,0.224-0.5,0.5v4c0,0.276,0.224,0.5,0.5,0.5h13
			c0.276,0,0.5-0.224,0.5-0.5v-4c0-0.276-0.224-0.5-0.5-0.5H49.5z"/>
	</g>
	<g>
		<path class="st0" d="M60.5,29.5H56c-0.276,0-0.5-0.224-0.5-0.5s0.224-0.5,0.5-0.5h4.5c0.276,0,0.5,0.224,0.5,0.5
			S60.776,29.5,60.5,29.5z"/>
	</g>
	<g>
		<path class="st3" d="M43,19.5H21c-1.381,0-2.5-1.119-2.5-2.5V3c0-1.381,1.119-2.5,2.5-2.5h22c1.381,0,2.5,1.119,2.5,2.5v14
			C45.5,18.381,44.381,19.5,43,19.5z"/>
		<path class="st0" d="M43,20H21c-1.654,0-3-1.346-3-3V3c0-1.654,1.346-3,3-3h22c1.654,0,3,1.346,3,3v14C46,18.654,44.654,20,43,20z
			 M21,1c-1.103,0-2,0.897-2,2v14c0,1.103,0.897,2,2,2h22c1.103,0,2-0.897,2-2V3c0-1.103-0.897-2-2-2H21z"/>
	</g>
	<g>
		<path class="st0" d="M35,24h-6c-0.276,0-0.5-0.224-0.5-0.5v-4c0-0.276,0.224-0.5,0.5-0.5h6c0.276,0,0.5,0.224,0.5,0.5v4
			C35.5,23.776,35.276,24,35,24z M29.5,23h5v-3h-5V23z"/>
	</g>
	<g>
		<path class="st0" d="M38,24H26c-0.276,0-0.5-0.224-0.5-0.5S25.724,23,26,23h12c0.276,0,0.5,0.224,0.5,0.5S38.276,24,38,24z"/>
	</g>
	<g>
		<path class="st0" d="M31.646,13.889c-0.128,0-0.256-0.049-0.354-0.146l-3.182-3.182l-3.182,3.182
			c-0.195,0.195-0.512,0.195-0.707,0s-0.195-0.512,0-0.707L27.757,9.5c0.195-0.195,0.512-0.195,0.707,0l3.182,3.182l7.425-7.425
			c0.195-0.195,0.512-0.195,0.707,0s0.195,0.512,0,0.707L32,13.743C31.902,13.84,31.774,13.889,31.646,13.889z"/>
	</g>
	<g>
		<path class="st0" d="M39.425,10.111c-0.276,0-0.5-0.224-0.5-0.5v-3.5h-3.5c-0.276,0-0.5-0.224-0.5-0.5s0.224-0.5,0.5-0.5h4
			c0.276,0,0.5,0.224,0.5,0.5v4C39.925,9.887,39.701,10.111,39.425,10.111z"/>
	</g>
	<g>
		<path class="st0" d="M8,21.75c-0.276,0-0.5-0.224-0.5-0.5v-4.5c0-3.033,2.467-5.5,5.5-5.5h2.5c0.276,0,0.5,0.224,0.5,0.5
			s-0.224,0.5-0.5,0.5H13c-2.481,0-4.5,2.019-4.5,4.5v4.5C8.5,21.526,8.276,21.75,8,21.75z"/>
	</g>
	<g>
		<path class="st0" d="M12.5,15.25c-0.128,0-0.256-0.049-0.354-0.146c-0.195-0.195-0.195-0.512,0-0.707l2.646-2.646l-2.646-2.646
			c-0.195-0.195-0.195-0.512,0-0.707s0.512-0.195,0.707,0l3,3c0.195,0.195,0.195,0.512,0,0.707l-3,3
			C12.756,15.201,12.628,15.25,12.5,15.25z"/>
	</g>
	<g>
		<path class="st0" d="M56,21.75c-0.276,0-0.5-0.224-0.5-0.5v-4.5c0-2.481-2.019-4.5-4.5-4.5h-2.5c-0.276,0-0.5-0.224-0.5-0.5
			s0.224-0.5,0.5-0.5H51c3.033,0,5.5,2.467,5.5,5.5v4.5C56.5,21.526,56.276,21.75,56,21.75z"/>
	</g>
	<g>
		<path class="st0" d="M56,21.75c-0.128,0-0.256-0.049-0.354-0.146l-3-3c-0.195-0.195-0.195-0.512,0-0.707s0.512-0.195,0.707,0
			L56,20.543l2.646-2.646c0.195-0.195,0.512-0.195,0.707,0s0.195,0.512,0,0.707l-3,3C56.256,21.701,56.128,21.75,56,21.75z"/>
	</g>
	<g>
		<path class="st0" d="M60.5,54.167h-1c-0.276,0-0.5-0.224-0.5-0.5s0.224-0.5,0.5-0.5h1c0.276,0,0.5,0.224,0.5,0.5
			S60.776,54.167,60.5,54.167z"/>
	</g>
	<g>
		<path class="st0" d="M57.5,54.167h-11c-0.276,0-0.5-0.224-0.5-0.5s0.224-0.5,0.5-0.5h11c0.276,0,0.5,0.224,0.5,0.5
			S57.776,54.167,57.5,54.167z"/>
	</g>
	<g>
		<path class="st0" d="M54.5,51.167h-11c-0.276,0-0.5-0.224-0.5-0.5s0.224-0.5,0.5-0.5h11c0.276,0,0.5,0.224,0.5,0.5
			S54.776,51.167,54.5,51.167z"/>
	</g>
</g>
</svg>
