<?xml version="1.0" encoding="utf-8"?>
<!-- Generator: Adobe Illustrator 21.1.0, SVG Export Plug-In . SVG Version: 6.00 Build 0)  -->
<svg version="1.1" id="Icon_Set" xmlns="http://www.w3.org/2000/svg" xmlns:xlink="http://www.w3.org/1999/xlink" x="0px" y="0px"
	 viewBox="0 0 64 64" style="enable-background:new 0 0 64 64;" xml:space="preserve">
<style type="text/css">
	.st0{fill:#263238;}
	.st1{fill:#FFD740;}
	.st2{fill:#FF5252;}
	.st3{fill:#40C4FF;}
	.st4{fill:#4DB6AC;}
	.st5{fill:#FFFFFF;}
	.st6{fill:#FFD345;}
</style>
<g>
	<g>
		<path class="st2" d="M12.5,18.75h-10v-2c0-2.761,2.239-5,5-5h0c2.761,0,5,2.239,5,5V18.75z"/>
		<path class="st0" d="M12.5,19.25h-10c-0.276,0-0.5-0.224-0.5-0.5v-2c0-3.033,2.468-5.5,5.5-5.5s5.5,2.467,5.5,5.5v2
			C13,19.026,12.776,19.25,12.5,19.25z M3,18.25h9v-1.5c0-2.481-2.019-4.5-4.5-4.5S3,14.269,3,16.75V18.25z"/>
	</g>
	<g>
		<circle class="st5" cx="7.5" cy="8.75" r="3"/>
		<path class="st0" d="M7.5,12.25c-1.93,0-3.5-1.57-3.5-3.5s1.57-3.5,3.5-3.5S11,6.82,11,8.75S9.43,12.25,7.5,12.25z M7.5,6.25
			C6.121,6.25,5,7.372,5,8.75s1.121,2.5,2.5,2.5s2.5-1.122,2.5-2.5S8.879,6.25,7.5,6.25z"/>
	</g>
	<g>
		<path class="st3" d="M12.5,28.75h-10v-2c0-2.761,2.239-5,5-5h0c2.761,0,5,2.239,5,5V28.75z"/>
		<path class="st0" d="M12.5,29.25h-10c-0.276,0-0.5-0.224-0.5-0.5v-2c0-3.033,2.468-5.5,5.5-5.5s5.5,2.467,5.5,5.5v2
			C13,29.026,12.776,29.25,12.5,29.25z M3,28.25h9v-1.5c0-2.481-2.019-4.5-4.5-4.5S3,24.269,3,26.75V28.25z"/>
	</g>
	<g>
		<circle class="st5" cx="7.5" cy="18.75" r="3"/>
		<path class="st0" d="M7.5,22.25c-1.93,0-3.5-1.57-3.5-3.5s1.57-3.5,3.5-3.5s3.5,1.57,3.5,3.5S9.43,22.25,7.5,22.25z M7.5,16.25
			c-1.379,0-2.5,1.122-2.5,2.5s1.121,2.5,2.5,2.5s2.5-1.122,2.5-2.5S8.879,16.25,7.5,16.25z"/>
	</g>
	<g>
		<path class="st4" d="M61,15.25h-0.5v37.5c0,1.381-1.119,2.5-2.5,2.5H27.5v0.5c0,1.381,1.119,2.5,2.5,2.5h31
			c1.381,0,2.5-1.119,2.5-2.5v-38C63.5,16.369,62.381,15.25,61,15.25z"/>
	</g>
	<g>
		<path class="st0" d="M54.5,20.75h-24c-0.276,0-0.5-0.224-0.5-0.5s0.224-0.5,0.5-0.5h24c0.276,0,0.5,0.224,0.5,0.5
			S54.776,20.75,54.5,20.75z"/>
	</g>
	<g>
		<path class="st0" d="M54.5,25.75h-24c-0.276,0-0.5-0.224-0.5-0.5s0.224-0.5,0.5-0.5h24c0.276,0,0.5,0.224,0.5,0.5
			S54.776,25.75,54.5,25.75z"/>
	</g>
	<g>
		<path class="st0" d="M54.5,30.75h-24c-0.276,0-0.5-0.224-0.5-0.5s0.224-0.5,0.5-0.5h24c0.276,0,0.5,0.224,0.5,0.5
			S54.776,30.75,54.5,30.75z"/>
	</g>
	<g>
		<path class="st0" d="M54.5,35.75h-24c-0.276,0-0.5-0.224-0.5-0.5s0.224-0.5,0.5-0.5h24c0.276,0,0.5,0.224,0.5,0.5
			S54.776,35.75,54.5,35.75z"/>
	</g>
	<g>
		<path class="st0" d="M54.5,40.75h-24c-0.276,0-0.5-0.224-0.5-0.5s0.224-0.5,0.5-0.5h24c0.276,0,0.5,0.224,0.5,0.5
			S54.776,40.75,54.5,40.75z"/>
	</g>
	<g>
		<path class="st0" d="M39.5,45.75h-9c-0.276,0-0.5-0.224-0.5-0.5s0.224-0.5,0.5-0.5h9c0.276,0,0.5,0.224,0.5,0.5
			S39.776,45.75,39.5,45.75z"/>
	</g>
	<g>
		<path class="st0" d="M58,55.75H27c-1.654,0-3-1.346-3-3v-38c0-1.654,1.346-3,3-3h5.5c0.276,0,0.5,0.224,0.5,0.5
			s-0.224,0.5-0.5,0.5H27c-1.103,0-2,0.897-2,2v38c0,1.103,0.897,2,2,2h31c1.103,0,2-0.897,2-2v-38c0-1.103-0.897-2-2-2h-5.5
			c-0.276,0-0.5-0.224-0.5-0.5s0.224-0.5,0.5-0.5H58c1.654,0,3,1.346,3,3v38C61,54.404,59.654,55.75,58,55.75z"/>
	</g>
	<g>
		<path class="st0" d="M49.5,15.25h-14c-0.827,0-1.5-0.673-1.5-1.5v-3c0-0.827,0.673-1.5,1.5-1.5h2.527c0.25-2.247,2.16-4,4.473-4
			s4.223,1.753,4.473,4H49.5c0.827,0,1.5,0.673,1.5,1.5v3C51,14.577,50.327,15.25,49.5,15.25z M35.5,10.25
			c-0.275,0-0.5,0.224-0.5,0.5v3c0,0.276,0.225,0.5,0.5,0.5h14c0.275,0,0.5-0.224,0.5-0.5v-3c0-0.276-0.225-0.5-0.5-0.5h-3
			c-0.276,0-0.5-0.224-0.5-0.5c0-1.93-1.57-3.5-3.5-3.5S39,7.82,39,9.75c0,0.276-0.224,0.5-0.5,0.5H35.5z"/>
	</g>
	<g>
		<path class="st0" d="M42.5,11.75c-1.103,0-2-0.897-2-2s0.897-2,2-2s2,0.897,2,2S43.603,11.75,42.5,11.75z M42.5,8.75
			c-0.552,0-1,0.449-1,1s0.448,1,1,1s1-0.449,1-1S43.052,8.75,42.5,8.75z"/>
	</g>
	<g>
		<path class="st1" d="M13.5,55.25h-12c-0.552,0-1-0.448-1-1v-16c0-0.552,0.448-1,1-1h12c0.552,0,1,0.448,1,1v16
			C14.5,54.802,14.052,55.25,13.5,55.25z"/>
		<path class="st0" d="M13.5,55.75h-12c-0.827,0-1.5-0.673-1.5-1.5v-16c0-0.827,0.673-1.5,1.5-1.5h12c0.827,0,1.5,0.673,1.5,1.5v16
			C15,55.077,14.327,55.75,13.5,55.75z M1.5,37.75c-0.275,0-0.5,0.224-0.5,0.5v16c0,0.276,0.225,0.5,0.5,0.5h12
			c0.275,0,0.5-0.224,0.5-0.5v-16c0-0.276-0.225-0.5-0.5-0.5H1.5z"/>
	</g>
	<g>
		<path class="st0" d="M11.25,42.25h-7.5c-0.276,0-0.5-0.224-0.5-0.5s0.224-0.5,0.5-0.5h7.5c0.276,0,0.5,0.224,0.5,0.5
			S11.526,42.25,11.25,42.25z"/>
	</g>
	<g>
		<path class="st0" d="M11.25,45.25h-7.5c-0.276,0-0.5-0.224-0.5-0.5s0.224-0.5,0.5-0.5h7.5c0.276,0,0.5,0.224,0.5,0.5
			S11.526,45.25,11.25,45.25z"/>
	</g>
	<g>
		<path class="st0" d="M11.25,48.25h-7.5c-0.276,0-0.5-0.224-0.5-0.5s0.224-0.5,0.5-0.5h7.5c0.276,0,0.5,0.224,0.5,0.5
			S11.526,48.25,11.25,48.25z"/>
	</g>
	<g>
		<path class="st0" d="M7.5,51.25H3.75c-0.276,0-0.5-0.224-0.5-0.5s0.224-0.5,0.5-0.5H7.5c0.276,0,0.5,0.224,0.5,0.5
			S7.776,51.25,7.5,51.25z"/>
	</g>
	<g>
		<path class="st0" d="M22.5,46.75h-6c-0.276,0-0.5-0.224-0.5-0.5s0.224-0.5,0.5-0.5h6c0.276,0,0.5,0.224,0.5,0.5
			S22.776,46.75,22.5,46.75z"/>
	</g>
	<g>
		<path class="st0" d="M19.5,49.75c-0.128,0-0.256-0.049-0.354-0.146l-3-3c-0.195-0.195-0.195-0.512,0-0.707l3-3
			c0.195-0.195,0.512-0.195,0.707,0s0.195,0.512,0,0.707l-2.646,2.646l2.646,2.646c0.195,0.195,0.195,0.512,0,0.707
			C19.756,49.701,19.628,49.75,19.5,49.75z"/>
	</g>
	<g>
		<path class="st0" d="M22.5,19.25h-6c-0.276,0-0.5-0.224-0.5-0.5s0.224-0.5,0.5-0.5h6c0.276,0,0.5,0.224,0.5,0.5
			S22.776,19.25,22.5,19.25z"/>
	</g>
	<g>
		<path class="st0" d="M19.5,22.25c-0.128,0-0.256-0.049-0.354-0.146c-0.195-0.195-0.195-0.512,0-0.707l2.646-2.646l-2.646-2.646
			c-0.195-0.195-0.195-0.512,0-0.707s0.512-0.195,0.707,0l3,3c0.195,0.195,0.195,0.512,0,0.707l-3,3
			C19.756,22.201,19.628,22.25,19.5,22.25z"/>
	</g>
</g>
</svg>
