<?xml version="1.0" encoding="utf-8"?>
<!-- Generator: Adobe Illustrator 21.1.0, SVG Export Plug-In . SVG Version: 6.00 Build 0)  -->
<svg version="1.1" id="Icon_Set" xmlns="http://www.w3.org/2000/svg" xmlns:xlink="http://www.w3.org/1999/xlink" x="0px" y="0px"
	 viewBox="0 0 64 64" style="enable-background:new 0 0 64 64;" xml:space="preserve">
<style type="text/css">
	.st0{fill:#263238;}
	.st1{fill:#FFD740;}
	.st2{fill:#FF5252;}
	.st3{fill:#40C4FF;}
	.st4{fill:#4DB6AC;}
	.st5{fill:#FFFFFF;}
	.st6{fill:#FFD345;}
</style>
<g>
	<g>
		<path class="st0" d="M32.5,56h-27c-1.654,0-3-1.346-3-3v-5c0-1.654,1.346-3,3-3h27c1.654,0,3,1.346,3,3v5
			C35.5,54.654,34.154,56,32.5,56z M5.5,46c-1.103,0-2,0.897-2,2v5c0,1.103,0.897,2,2,2h27c1.103,0,2-0.897,2-2v-5
			c0-1.103-0.897-2-2-2H5.5z"/>
	</g>
	<g>
		<path class="st0" d="M10,52.5c-1.103,0-2-0.897-2-2s0.897-2,2-2s2,0.897,2,2S11.103,52.5,10,52.5z M10,49.5c-0.552,0-1,0.449-1,1
			s0.448,1,1,1s1-0.449,1-1S10.552,49.5,10,49.5z"/>
	</g>
	<g>
		<path class="st0" d="M29,51H15c-0.276,0-0.5-0.224-0.5-0.5S14.724,50,15,50h14c0.276,0,0.5,0.224,0.5,0.5S29.276,51,29,51z"/>
	</g>
	<g>
		<path class="st0" d="M32.5,46h-27c-1.654,0-3-1.346-3-3v-5c0-1.654,1.346-3,3-3h27c1.654,0,3,1.346,3,3v5
			C35.5,44.654,34.154,46,32.5,46z M5.5,36c-1.103,0-2,0.897-2,2v5c0,1.103,0.897,2,2,2h27c1.103,0,2-0.897,2-2v-5
			c0-1.103-0.897-2-2-2H5.5z"/>
	</g>
	<g>
		<path class="st0" d="M10,42.5c-1.103,0-2-0.897-2-2s0.897-2,2-2s2,0.897,2,2S11.103,42.5,10,42.5z M10,39.5c-0.552,0-1,0.449-1,1
			s0.448,1,1,1s1-0.449,1-1S10.552,39.5,10,39.5z"/>
	</g>
	<g>
		<path class="st0" d="M29,41H15c-0.276,0-0.5-0.224-0.5-0.5S14.724,40,15,40h14c0.276,0,0.5,0.224,0.5,0.5S29.276,41,29,41z"/>
	</g>
	<g>
		<path class="st0" d="M32.5,36h-27c-1.654,0-3-1.346-3-3v-5c0-1.654,1.346-3,3-3h27c1.654,0,3,1.346,3,3v5
			C35.5,34.654,34.154,36,32.5,36z M5.5,26c-1.103,0-2,0.897-2,2v5c0,1.103,0.897,2,2,2h27c1.103,0,2-0.897,2-2v-5
			c0-1.103-0.897-2-2-2H5.5z"/>
	</g>
	<g>
		<path class="st0" d="M10,32.5c-1.103,0-2-0.897-2-2s0.897-2,2-2s2,0.897,2,2S11.103,32.5,10,32.5z M10,29.5c-0.552,0-1,0.449-1,1
			s0.448,1,1,1s1-0.449,1-1S10.552,29.5,10,29.5z"/>
	</g>
	<g>
		<path class="st0" d="M29,31H15c-0.276,0-0.5-0.224-0.5-0.5S14.724,30,15,30h14c0.276,0,0.5,0.224,0.5,0.5S29.276,31,29,31z"/>
	</g>
	<g>
		<path class="st0" d="M33,60H5c-0.276,0-0.5-0.224-0.5-0.5v-4C4.5,55.224,4.724,55,5,55h28c0.276,0,0.5,0.224,0.5,0.5v4
			C33.5,59.776,33.276,60,33,60z M5.5,59h27v-3h-27V59z"/>
	</g>
	<g>
		<path class="st0" d="M21.778,13.222c-0.128,0-0.256-0.049-0.354-0.146c-4.094-4.094-10.756-4.094-14.85,0
			c-0.195,0.195-0.512,0.195-0.707,0s-0.195-0.512,0-0.707c4.484-4.483,11.779-4.483,16.264,0c0.195,0.195,0.195,0.512,0,0.707
			C22.034,13.173,21.906,13.222,21.778,13.222z"/>
	</g>
	<g>
		<path class="st0" d="M18.95,16.05c-0.128,0-0.256-0.049-0.354-0.146c-2.535-2.534-6.658-2.534-9.193,0
			c-0.195,0.195-0.512,0.195-0.707,0s-0.195-0.512,0-0.707c2.924-2.924,7.684-2.924,10.607,0c0.195,0.195,0.195,0.512,0,0.707
			C19.206,16.001,19.078,16.05,18.95,16.05z"/>
	</g>
	<g>
		<path class="st0" d="M16.121,18.879c-0.128,0-0.256-0.049-0.354-0.146c-0.943-0.944-2.592-0.944-3.535,0
			c-0.195,0.195-0.512,0.195-0.707,0c-0.195-0.195-0.195-0.512,0-0.707c1.32-1.322,3.629-1.322,4.949,0
			c0.195,0.195,0.195,0.512,0,0.707C16.377,18.83,16.249,18.879,16.121,18.879z"/>
	</g>
	<g>
		<path class="st2" d="M48.5,54.5l6-6H51v-5c0-0.552-0.448-1-1-1h-3c-0.552,0-1,0.448-1,1v5h-3.5L48.5,54.5z"/>
		<path class="st0" d="M48.5,55c-0.128,0-0.256-0.049-0.354-0.146l-6-6c-0.143-0.143-0.186-0.358-0.108-0.545S42.298,48,42.5,48h3
			v-4.5c0-0.827,0.673-1.5,1.5-1.5h3c0.827,0,1.5,0.673,1.5,1.5V48h3c0.202,0,0.385,0.122,0.462,0.309s0.034,0.402-0.108,0.545l-6,6
			C48.756,54.951,48.628,55,48.5,55z M43.707,49l4.793,4.793L53.293,49H51c-0.276,0-0.5-0.224-0.5-0.5v-5c0-0.276-0.225-0.5-0.5-0.5
			h-3c-0.275,0-0.5,0.224-0.5,0.5v5c0,0.276-0.224,0.5-0.5,0.5H43.707z"/>
	</g>
	<g>
		<path class="st0" d="M53.5,60h-10c-0.827,0-1.5-0.673-1.5-1.5v-3c0-0.276,0.224-0.5,0.5-0.5s0.5,0.224,0.5,0.5v3
			c0,0.276,0.225,0.5,0.5,0.5h10c0.275,0,0.5-0.224,0.5-0.5v-3c0-0.276,0.224-0.5,0.5-0.5s0.5,0.224,0.5,0.5v3
			C55,59.327,54.327,60,53.5,60z"/>
	</g>
	<g>
		<path class="st3" d="M56,20.5c2.761,0,5-2.239,5-5v0c0-2.761-2.239-5-5-5h-1.5v0c0-3.314-2.686-6-6-6h0c-3.314,0-6,2.686-6,6v0H41
			c-2.761,0-5,2.239-5,5v0c0,2.761,2.239,5,5,5H56z"/>
	</g>
	<g>
		<path class="st5" d="M54,28.5h-8c-0.552,0-1-0.448-1-1v-10c0-0.552,0.448-1,1-1h8c0.552,0,1,0.448,1,1v10
			C55,28.052,54.552,28.5,54,28.5z"/>
		<path class="st0" d="M54,29h-8c-0.827,0-1.5-0.673-1.5-1.5v-10c0-0.827,0.673-1.5,1.5-1.5h8c0.827,0,1.5,0.673,1.5,1.5v10
			C55.5,28.327,54.827,29,54,29z M46,17c-0.275,0-0.5,0.224-0.5,0.5v10c0,0.276,0.225,0.5,0.5,0.5h8c0.275,0,0.5-0.224,0.5-0.5v-10
			c0-0.276-0.225-0.5-0.5-0.5H46z"/>
	</g>
	<g>
		<path class="st1" d="M51,25.5h-8c-0.552,0-1-0.448-1-1v-10c0-0.552,0.448-1,1-1h8c0.552,0,1,0.448,1,1v10
			C52,25.052,51.552,25.5,51,25.5z"/>
		<path class="st0" d="M51,26h-8c-0.827,0-1.5-0.673-1.5-1.5v-10c0-0.827,0.673-1.5,1.5-1.5h8c0.827,0,1.5,0.673,1.5,1.5v10
			C52.5,25.327,51.827,26,51,26z M43,14c-0.275,0-0.5,0.224-0.5,0.5v10c0,0.276,0.225,0.5,0.5,0.5h8c0.275,0,0.5-0.224,0.5-0.5v-10
			c0-0.276-0.225-0.5-0.5-0.5H43z"/>
	</g>
	<g>
		<path class="st0" d="M49.5,17.5h-5c-0.276,0-0.5-0.224-0.5-0.5s0.224-0.5,0.5-0.5h5c0.276,0,0.5,0.224,0.5,0.5
			S49.776,17.5,49.5,17.5z"/>
	</g>
	<g>
		<path class="st0" d="M49.5,20h-5c-0.276,0-0.5-0.224-0.5-0.5s0.224-0.5,0.5-0.5h5c0.276,0,0.5,0.224,0.5,0.5S49.776,20,49.5,20z"
			/>
	</g>
	<g>
		<path class="st0" d="M49.5,22.5h-5c-0.276,0-0.5-0.224-0.5-0.5s0.224-0.5,0.5-0.5h5c0.276,0,0.5,0.224,0.5,0.5
			S49.776,22.5,49.5,22.5z"/>
	</g>
</g>
</svg>
