<?xml version="1.0" encoding="utf-8"?>
<!-- Generator: Adobe Illustrator 21.1.0, SVG Export Plug-In . SVG Version: 6.00 Build 0)  -->
<svg version="1.1" id="Icon_Set" xmlns="http://www.w3.org/2000/svg" xmlns:xlink="http://www.w3.org/1999/xlink" x="0px" y="0px"
	 viewBox="0 0 64 64" style="enable-background:new 0 0 64 64;" xml:space="preserve">
<style type="text/css">
	.st0{fill:#263238;}
	.st1{fill:#FFD740;}
	.st2{fill:#FF5252;}
	.st3{fill:#40C4FF;}
	.st4{fill:#4DB6AC;}
	.st5{fill:#FFFFFF;}
	.st6{fill:#FFD345;}
</style>
<g>
	<g>
		<path class="st1" d="M46.545,47.229c0.714-1.227,2.207-1.788,3.554-1.336l0.199,0.067c0.346-0.234,0.706-0.442,1.08-0.624
			l0.035-0.178c0.28-1.395,1.519-2.408,2.944-2.408h0.893v-14.5h-45v20h35.7L46.545,47.229z"/>
	</g>
	<g>
		<path class="st0" d="M45.95,48.75h-35.7c-0.276,0-0.5-0.224-0.5-0.5v-20c0-0.276,0.224-0.5,0.5-0.5h45c0.276,0,0.5,0.224,0.5,0.5
			v14.5c0,0.276-0.224,0.5-0.5,0.5s-0.5-0.224-0.5-0.5v-14h-44v19h35.2c0.276,0,0.5,0.224,0.5,0.5S46.227,48.75,45.95,48.75z"/>
	</g>
	<g>
		<path class="st0" d="M27.75,59.25c-0.276,0-0.5-0.224-0.5-0.5v-3.5c0-0.276,0.224-0.5,0.5-0.5s0.5,0.224,0.5,0.5v3.5
			C28.25,59.026,28.026,59.25,27.75,59.25z"/>
	</g>
	<g>
		<path class="st0" d="M37.75,59.25c-0.276,0-0.5-0.224-0.5-0.5v-3.5c0-0.276,0.224-0.5,0.5-0.5s0.5,0.224,0.5,0.5v3.5
			C38.25,59.026,38.026,59.25,37.75,59.25z"/>
	</g>
	<g>
		<path class="st0" d="M40.75,64.25h-16c-0.827,0-1.5-0.673-1.5-1.5v-1c0-0.827,0.673-1.5,1.5-1.5h16c0.827,0,1.5,0.673,1.5,1.5v1
			C42.25,63.577,41.577,64.25,40.75,64.25z M24.75,61.25c-0.275,0-0.5,0.224-0.5,0.5v1c0,0.276,0.225,0.5,0.5,0.5h16
			c0.275,0,0.5-0.224,0.5-0.5v-1c0-0.276-0.225-0.5-0.5-0.5H24.75z"/>
	</g>
	<g>
		<path class="st0" d="M52.75,13.25h-4.5c-0.276,0-0.5-0.224-0.5-0.5s0.224-0.5,0.5-0.5h4v-2.5c0-1.378-1.121-2.5-2.5-2.5
			c-0.276,0-0.5-0.224-0.5-0.5c0-0.276,0.224-0.5,0.5-0.5l0,0c1.93,0,3.5,1.571,3.5,3.5v3C53.25,13.026,53.026,13.25,52.75,13.25z"
			/>
	</g>
	<g>
		<path class="st0" d="M46.394,53.75H12.75c-1.654,0-3-1.346-3-3v-25c0-1.654,1.346-3,3-3h40c1.654,0,3,1.346,3,3V42.8
			c0,0.276-0.224,0.5-0.5,0.5s-0.5-0.224-0.5-0.5V25.75c0-1.103-0.897-2-2-2h-40c-1.103,0-2,0.897-2,2v25c0,1.103,0.897,2,2,2
			h33.644c0.276,0,0.5,0.224,0.5,0.5S46.67,53.75,46.394,53.75z"/>
	</g>
	<g>
		<circle class="st2" cx="8.25" cy="7.75" r="7.5"/>
	</g>
	<g>
		<path class="st0" d="M8.25,12.75c-1.336,0-2.591-0.52-3.535-1.464c-0.195-0.195-0.195-0.512,0-0.707s0.512-0.195,0.707,0
			c1.51,1.511,4.146,1.511,5.656,0c0.756-0.756,1.172-1.76,1.172-2.829c0-0.276,0.224-0.5,0.5-0.5s0.5,0.224,0.5,0.5
			c0,1.335-0.521,2.591-1.465,3.536S9.586,12.75,8.25,12.75z"/>
	</g>
	<g>
		<path class="st0" d="M3.75,8.25c-0.276,0-0.5-0.224-0.5-0.5c0-1.336,0.521-2.592,1.465-3.536S6.914,2.75,8.25,2.75
			s2.591,0.52,3.535,1.464c0.195,0.195,0.195,0.512,0,0.707s-0.512,0.195-0.707,0c-1.51-1.511-4.146-1.511-5.656,0
			C4.666,5.677,4.25,6.682,4.25,7.75C4.25,8.027,4.026,8.25,3.75,8.25z"/>
	</g>
	<g>
		<path class="st0" d="M3.75,9.11c-0.128,0-0.256-0.049-0.354-0.146l-1.72-1.72c-0.195-0.195-0.195-0.512,0-0.707
			s0.512-0.195,0.707,0L3.75,7.903l1.366-1.366c0.195-0.195,0.512-0.195,0.707,0s0.195,0.512,0,0.707l-1.72,1.72
			C4.006,9.061,3.878,9.11,3.75,9.11z"/>
	</g>
	<g>
		<path class="st0" d="M14.47,9.11c-0.128,0-0.256-0.049-0.354-0.146L12.75,7.597l-1.366,1.366c-0.195,0.195-0.512,0.195-0.707,0
			s-0.195-0.512,0-0.707l1.72-1.72c0.195-0.195,0.512-0.195,0.707,0l1.72,1.72c0.195,0.195,0.195,0.512,0,0.707
			C14.726,9.061,14.598,9.11,14.47,9.11z"/>
	</g>
	<g>
		<path class="st5" d="M17.75,46.25l0-36.5c0-1.657,1.343-3,3-3h29h0c-1.657,0-3,1.343-3,3v36.5"/>
		<path class="st0" d="M46.75,46.75c-0.276,0-0.5-0.224-0.5-0.5V9.75c0-0.979,0.403-1.864,1.053-2.5H20.75
			c-1.379,0-2.5,1.122-2.5,2.5v36.5c0,0.276-0.224,0.5-0.5,0.5s-0.5-0.224-0.5-0.5V9.75c0-1.93,1.57-3.5,3.5-3.5h29
			c0.276,0,0.5,0.224,0.5,0.5s-0.224,0.5-0.5,0.5c-1.379,0-2.5,1.122-2.5,2.5v36.5C47.25,46.526,47.026,46.75,46.75,46.75z"/>
	</g>
	<g>
		<path class="st0" d="M40.75,18.75h-17c-0.276,0-0.5-0.224-0.5-0.5s0.224-0.5,0.5-0.5h17c0.276,0,0.5,0.224,0.5,0.5
			S41.026,18.75,40.75,18.75z"/>
	</g>
	<g>
		<path class="st0" d="M40.75,22.25h-17c-0.276,0-0.5-0.224-0.5-0.5s0.224-0.5,0.5-0.5h17c0.276,0,0.5,0.224,0.5,0.5
			S41.026,22.25,40.75,22.25z"/>
	</g>
	<g>
		<path class="st0" d="M40.75,26.25h-17c-0.276,0-0.5-0.224-0.5-0.5s0.224-0.5,0.5-0.5h17c0.276,0,0.5,0.224,0.5,0.5
			S41.026,26.25,40.75,26.25z"/>
	</g>
	<g>
		<path class="st0" d="M44.25,3.25h-1c-0.276,0-0.5-0.224-0.5-0.5s0.224-0.5,0.5-0.5h1c0.276,0,0.5,0.224,0.5,0.5
			S44.526,3.25,44.25,3.25z"/>
	</g>
	<g>
		<path class="st0" d="M41.25,3.25h-16c-0.276,0-0.5-0.224-0.5-0.5s0.224-0.5,0.5-0.5h16c0.276,0,0.5,0.224,0.5,0.5
			S41.526,3.25,41.25,3.25z"/>
	</g>
	<g>
		<path class="st3" d="M61.94,54.725c0.106-0.475,0.166-0.968,0.166-1.475s-0.06-1-0.166-1.475l0.276-0.158l0.691-0.602
			c0.361-0.315,0.448-0.841,0.207-1.254l-0.888-1.526c-0.239-0.411-0.736-0.598-1.188-0.446l-0.879,0.295l-0.28,0.161
			c-0.731-0.665-1.602-1.18-2.572-1.482V46.45l-0.181-0.897c-0.094-0.467-0.506-0.803-0.984-0.803h-1.784
			c-0.478,0-0.89,0.336-0.984,0.803l-0.181,0.897v0.312c-0.969,0.302-1.841,0.817-2.572,1.482l-0.281-0.161l-0.879-0.295
			c-0.452-0.152-0.949,0.035-1.188,0.446l-0.888,1.526c-0.241,0.414-0.154,0.94,0.207,1.254l0.691,0.602l0.276,0.158
			c-0.106,0.475-0.166,0.968-0.166,1.475s0.06,1,0.166,1.475l-0.277,0.158l-0.691,0.602c-0.361,0.315-0.448,0.841-0.207,1.254
			l0.888,1.526c0.239,0.411,0.736,0.598,1.188,0.446l0.879-0.295l0.281-0.161c0.731,0.665,1.602,1.18,2.572,1.482v0.313l0.181,0.897
			c0.094,0.467,0.506,0.803,0.984,0.803h1.784c0.478,0,0.89-0.336,0.984-0.803l0.181-0.897v-0.313
			c0.969-0.302,1.841-0.817,2.572-1.482l0.281,0.161l0.879,0.295c0.452,0.152,0.949-0.035,1.188-0.446l0.888-1.526
			c0.241-0.414,0.154-0.94-0.207-1.254l-0.691-0.602L61.94,54.725z M55.277,56.75c-1.933,0-3.5-1.567-3.5-3.5s1.567-3.5,3.5-3.5
			s3.5,1.567,3.5,3.5S57.21,56.75,55.277,56.75z"/>
		<path class="st0" d="M56.143,62.25h-1.785c-0.714,0-1.334-0.507-1.474-1.205l-0.182-0.946c-0.777-0.285-1.496-0.7-2.146-1.237
			l-0.936,0.324c-0.674,0.227-1.422-0.054-1.78-0.668l-0.888-1.525c-0.36-0.62-0.229-1.412,0.312-1.883l0.737-0.63
			c-0.072-0.412-0.108-0.824-0.108-1.228s0.036-0.816,0.108-1.229l-0.737-0.63c-0.541-0.472-0.672-1.263-0.311-1.883l0.887-1.525
			c0.357-0.614,1.109-0.893,1.78-0.668l0.934,0.325c0.65-0.538,1.37-0.954,2.148-1.239l0.181-0.946
			c0.14-0.698,0.76-1.205,1.474-1.205h1.785c0.714,0,1.334,0.507,1.474,1.205l0.182,0.946c0.778,0.286,1.497,0.7,2.146,1.237
			l0.936-0.324c0.673-0.225,1.423,0.055,1.78,0.668l0.888,1.525c0.36,0.62,0.229,1.411-0.312,1.883l-0.737,0.63
			c0.072,0.413,0.108,0.824,0.108,1.229c0,0.404-0.036,0.815-0.108,1.228l0.738,0.631c0.54,0.472,0.671,1.263,0.31,1.883
			l-0.887,1.525c-0.358,0.614-1.108,0.892-1.78,0.668l-0.935-0.325c-0.648,0.538-1.368,0.953-2.147,1.238l-0.181,0.947
			C57.476,61.744,56.856,62.25,56.143,62.25z M50.621,57.756c0.121,0,0.242,0.044,0.336,0.13c0.701,0.638,1.504,1.1,2.385,1.375
			c0.209,0.065,0.352,0.259,0.352,0.478v0.312l0.171,0.798c0.047,0.233,0.254,0.402,0.493,0.402h1.785
			c0.239,0,0.446-0.169,0.493-0.401l0.181-0.897l-0.01-0.214c0-0.219,0.143-0.412,0.352-0.478c0.883-0.275,1.685-0.737,2.384-1.374
			c0.161-0.147,0.399-0.172,0.586-0.064l0.28,0.161l0.789,0.254c0.226,0.074,0.478-0.018,0.597-0.223l0.888-1.525
			c0.12-0.206,0.077-0.469-0.103-0.626l-0.691-0.603l-0.196-0.101c-0.19-0.108-0.288-0.329-0.24-0.543
			c0.104-0.459,0.155-0.918,0.155-1.366s-0.052-0.907-0.155-1.366c-0.048-0.214,0.05-0.435,0.24-0.543l0.276-0.158l0.611-0.545
			c0.18-0.157,0.223-0.42,0.104-0.626l-0.889-1.525c-0.118-0.206-0.372-0.299-0.597-0.223l-0.879,0.295l-0.19,0.12
			c-0.189,0.108-0.425,0.082-0.586-0.064c-0.699-0.637-1.501-1.099-2.384-1.374c-0.209-0.065-0.352-0.259-0.352-0.478V46.45
			l-0.171-0.798c-0.047-0.233-0.254-0.402-0.493-0.402h-1.785c-0.239,0-0.446,0.169-0.493,0.401l-0.181,0.897l0.01,0.213
			c0,0.219-0.143,0.412-0.352,0.478c-0.881,0.274-1.684,0.737-2.385,1.375c-0.159,0.146-0.396,0.172-0.585,0.063l-0.28-0.161
			l-0.789-0.254c-0.227-0.078-0.479,0.017-0.597,0.223l-0.888,1.525c-0.12,0.206-0.077,0.469,0.103,0.626l0.691,0.603l0.196,0.101
			c0.19,0.109,0.288,0.329,0.24,0.543c-0.104,0.459-0.155,0.918-0.155,1.366s0.052,0.907,0.155,1.366
			c0.048,0.214-0.05,0.435-0.24,0.543l-0.277,0.158l-0.61,0.545c-0.18,0.157-0.223,0.42-0.104,0.626l0.889,1.525
			c0.119,0.206,0.371,0.301,0.597,0.223l0.879-0.294l0.19-0.121C50.449,57.778,50.535,57.756,50.621,57.756z M55.277,57.25
			c-2.206,0-4-1.794-4-4s1.794-4,4-4s4,1.794,4,4S57.483,57.25,55.277,57.25z M55.277,50.25c-1.654,0-3,1.346-3,3s1.346,3,3,3
			s3-1.346,3-3S56.932,50.25,55.277,50.25z"/>
	</g>
</g>
</svg>
