<?xml version="1.0" encoding="utf-8"?>
<!-- Generator: Adobe Illustrator 21.1.0, SVG Export Plug-In . SVG Version: 6.00 Build 0)  -->
<svg version="1.1" id="Icon_Set" xmlns="http://www.w3.org/2000/svg" xmlns:xlink="http://www.w3.org/1999/xlink" x="0px" y="0px"
	 viewBox="0 0 64 64" style="enable-background:new 0 0 64 64;" xml:space="preserve">
<style type="text/css">
	.st0{fill:#263238;}
	.st1{fill:#FFD740;}
	.st2{fill:#FF5252;}
	.st3{fill:#40C4FF;}
	.st4{fill:#4DB6AC;}
	.st5{fill:#FFFFFF;}
	.st6{fill:#FFD345;}
</style>
<g>
	<g>
		<path class="st0" d="M59.5,57.5h-21c-1.654,0-3-1.346-3-3v-39c0-1.654,1.346-3,3-3h21c1.654,0,3,1.346,3,3v39
			C62.5,56.154,61.154,57.5,59.5,57.5z M38.5,13.5c-1.103,0-2,0.897-2,2v39c0,1.103,0.897,2,2,2h21c1.103,0,2-0.897,2-2v-39
			c0-1.103-0.897-2-2-2H38.5z"/>
	</g>
	<g>
		<path class="st0" d="M62,20.5H36c-0.276,0-0.5-0.224-0.5-0.5s0.224-0.5,0.5-0.5h26c0.276,0,0.5,0.224,0.5,0.5S62.276,20.5,62,20.5
			z"/>
	</g>
	<g>
		<rect x="39" y="24.5" class="st3" width="8" height="8"/>
		<path class="st0" d="M47,33h-8c-0.276,0-0.5-0.224-0.5-0.5v-8c0-0.276,0.224-0.5,0.5-0.5h8c0.276,0,0.5,0.224,0.5,0.5v8
			C47.5,32.776,47.276,33,47,33z M39.5,32h7v-7h-7V32z"/>
	</g>
	<g>
		<rect x="51" y="24.5" class="st3" width="8" height="8"/>
		<path class="st0" d="M59,33h-8c-0.276,0-0.5-0.224-0.5-0.5v-8c0-0.276,0.224-0.5,0.5-0.5h8c0.276,0,0.5,0.224,0.5,0.5v8
			C59.5,32.776,59.276,33,59,33z M51.5,32h7v-7h-7V32z"/>
	</g>
	<g>
		<rect x="39" y="35.5" class="st3" width="8" height="8"/>
		<path class="st0" d="M47,44h-8c-0.276,0-0.5-0.224-0.5-0.5v-8c0-0.276,0.224-0.5,0.5-0.5h8c0.276,0,0.5,0.224,0.5,0.5v8
			C47.5,43.776,47.276,44,47,44z M39.5,43h7v-7h-7V43z"/>
	</g>
	<g>
		<rect x="51" y="35.5" class="st3" width="8" height="8"/>
		<path class="st0" d="M59,44h-8c-0.276,0-0.5-0.224-0.5-0.5v-8c0-0.276,0.224-0.5,0.5-0.5h8c0.276,0,0.5,0.224,0.5,0.5v8
			C59.5,43.776,59.276,44,59,44z M51.5,43h7v-7h-7V43z"/>
	</g>
	<g>
		<path class="st0" d="M44,52h-5c-0.276,0-0.5-0.224-0.5-0.5v-5c0-0.276,0.224-0.5,0.5-0.5h5c0.276,0,0.5,0.224,0.5,0.5v5
			C44.5,51.776,44.276,52,44,52z M39.5,51h4v-4h-4V51z"/>
	</g>
	<g>
		<path class="st0" d="M59,52h-5c-0.276,0-0.5-0.224-0.5-0.5v-5c0-0.276,0.224-0.5,0.5-0.5h5c0.276,0,0.5,0.224,0.5,0.5v5
			C59.5,51.776,59.276,52,59,52z M54.5,51h4v-4h-4V51z"/>
	</g>
	<g>
		<path class="st0" d="M51.5,52h-5c-0.276,0-0.5-0.224-0.5-0.5v-5c0-0.276,0.224-0.5,0.5-0.5h5c0.276,0,0.5,0.224,0.5,0.5v5
			C52,51.776,51.776,52,51.5,52z M47,51h4v-4h-4V51z"/>
	</g>
	<g>
		<path class="st0" d="M49,17H39c-0.276,0-0.5-0.224-0.5-0.5S38.724,16,39,16h10c0.276,0,0.5,0.224,0.5,0.5S49.276,17,49,17z"/>
	</g>
	<g>
		<path class="st0" d="M15,31.5H3c-0.827,0-1.5-0.673-1.5-1.5V14c0-0.827,0.673-1.5,1.5-1.5h12c0.827,0,1.5,0.673,1.5,1.5v16
			C16.5,30.827,15.827,31.5,15,31.5z M3,13.5c-0.275,0-0.5,0.224-0.5,0.5v16c0,0.276,0.225,0.5,0.5,0.5h12
			c0.275,0,0.5-0.224,0.5-0.5V14c0-0.276-0.225-0.5-0.5-0.5H3z"/>
	</g>
	<g>
		<path class="st0" d="M12.75,18h-7.5c-0.276,0-0.5-0.224-0.5-0.5S4.974,17,5.25,17h7.5c0.276,0,0.5,0.224,0.5,0.5
			S13.026,18,12.75,18z"/>
	</g>
	<g>
		<path class="st0" d="M12.75,21h-7.5c-0.276,0-0.5-0.224-0.5-0.5S4.974,20,5.25,20h7.5c0.276,0,0.5,0.224,0.5,0.5
			S13.026,21,12.75,21z"/>
	</g>
	<g>
		<path class="st0" d="M12.75,24h-7.5c-0.276,0-0.5-0.224-0.5-0.5S4.974,23,5.25,23h7.5c0.276,0,0.5,0.224,0.5,0.5
			S13.026,24,12.75,24z"/>
	</g>
	<g>
		<path class="st0" d="M9,27H5.25c-0.276,0-0.5-0.224-0.5-0.5S4.974,26,5.25,26H9c0.276,0,0.5,0.224,0.5,0.5S9.276,27,9,27z"/>
	</g>
	<g>
		<path class="st0" d="M15,57.5H3c-0.827,0-1.5-0.673-1.5-1.5V40c0-0.827,0.673-1.5,1.5-1.5h12c0.827,0,1.5,0.673,1.5,1.5v16
			C16.5,56.827,15.827,57.5,15,57.5z M3,39.5c-0.275,0-0.5,0.224-0.5,0.5v16c0,0.276,0.225,0.5,0.5,0.5h12
			c0.275,0,0.5-0.224,0.5-0.5V40c0-0.276-0.225-0.5-0.5-0.5H3z"/>
	</g>
	<g>
		<path class="st0" d="M12.75,44h-7.5c-0.276,0-0.5-0.224-0.5-0.5S4.974,43,5.25,43h7.5c0.276,0,0.5,0.224,0.5,0.5
			S13.026,44,12.75,44z"/>
	</g>
	<g>
		<path class="st0" d="M12.75,47h-7.5c-0.276,0-0.5-0.224-0.5-0.5S4.974,46,5.25,46h7.5c0.276,0,0.5,0.224,0.5,0.5
			S13.026,47,12.75,47z"/>
	</g>
	<g>
		<path class="st0" d="M12.75,50h-7.5c-0.276,0-0.5-0.224-0.5-0.5S4.974,49,5.25,49h7.5c0.276,0,0.5,0.224,0.5,0.5
			S13.026,50,12.75,50z"/>
	</g>
	<g>
		<path class="st0" d="M9,53H5.25c-0.276,0-0.5-0.224-0.5-0.5S4.974,52,5.25,52H9c0.276,0,0.5,0.224,0.5,0.5S9.276,53,9,53z"/>
	</g>
	<g>
		<path class="st0" d="M23.5,48.5H16c-0.276,0-0.5-0.224-0.5-0.5s0.224-0.5,0.5-0.5h7.5c1.103,0,2-0.897,2-2v-21
			c0-1.103-0.897-2-2-2H16c-0.276,0-0.5-0.224-0.5-0.5s0.224-0.5,0.5-0.5h7.5c1.654,0,3,1.346,3,3v21
			C26.5,47.154,25.154,48.5,23.5,48.5z"/>
	</g>
	<g>
		<path class="st0" d="M36,35.5H26c-0.276,0-0.5-0.224-0.5-0.5s0.224-0.5,0.5-0.5h10c0.276,0,0.5,0.224,0.5,0.5S36.276,35.5,36,35.5
			z"/>
	</g>
	<g>
		<circle class="st1" cx="26" cy="35" r="7.5"/>
	</g>
	<g>
		<path class="st0" d="M28.829,38.329c-0.128,0-0.256-0.049-0.354-0.146c-0.195-0.195-0.195-0.512,0-0.707
			c0.661-0.662,1.025-1.541,1.024-2.475c0-0.936-0.364-1.814-1.024-2.475c-1.365-1.364-3.585-1.363-4.95,0
			c-1.364,1.365-1.364,3.585,0,4.95c0.195,0.195,0.195,0.512,0,0.707c-0.195,0.195-0.512,0.195-0.707,0
			c-1.754-1.755-1.754-4.609,0-6.364c1.753-1.753,4.609-1.755,6.364,0c0.85,0.85,1.317,1.979,1.317,3.182
			c0.001,1.202-0.467,2.332-1.317,3.183C29.085,38.28,28.957,38.329,28.829,38.329z"/>
	</g>
	<g>
		<path class="st0" d="M28.574,38.826c-0.196,0-0.382-0.116-0.462-0.309l-1.241-2.996c-0.105-0.255,0.016-0.548,0.271-0.653
			c0.257-0.105,0.548,0.017,0.653,0.271l1.05,2.534l2.534-1.05c0.258-0.104,0.548,0.017,0.653,0.271
			c0.105,0.255-0.016,0.548-0.271,0.653l-2.996,1.241C28.703,38.813,28.638,38.826,28.574,38.826z"/>
	</g>
	<g>
		<path class="st0" d="M43,61.5h-1c-0.276,0-0.5-0.224-0.5-0.5s0.224-0.5,0.5-0.5h1c0.276,0,0.5,0.224,0.5,0.5S43.276,61.5,43,61.5z
			"/>
	</g>
	<g>
		<path class="st0" d="M56,61.5H45c-0.276,0-0.5-0.224-0.5-0.5s0.224-0.5,0.5-0.5h11c0.276,0,0.5,0.224,0.5,0.5S56.276,61.5,56,61.5
			z"/>
	</g>
	<g>
		<path class="st0" d="M56.001,9.5h-1c-0.276,0-0.5-0.224-0.5-0.5s0.224-0.5,0.5-0.5h1c0.276,0,0.5,0.224,0.5,0.5
			S56.277,9.5,56.001,9.5z"/>
	</g>
	<g>
		<path class="st0" d="M53.001,9.5h-11c-0.276,0-0.5-0.224-0.5-0.5s0.224-0.5,0.5-0.5h11c0.276,0,0.5,0.224,0.5,0.5
			S53.277,9.5,53.001,9.5z"/>
	</g>
	<g>
		<path class="st0" d="M33.001,5.5h-4c-0.276,0-0.5-0.224-0.5-0.5s0.224-0.5,0.5-0.5h4c0.276,0,0.5,0.224,0.5,0.5
			S33.277,5.5,33.001,5.5z"/>
	</g>
	<g>
		<path class="st0" d="M31.001,7.5c-0.276,0-0.5-0.224-0.5-0.5V3c0-0.276,0.224-0.5,0.5-0.5s0.5,0.224,0.5,0.5v4
			C31.501,7.276,31.277,7.5,31.001,7.5z"/>
	</g>
	<g>
		<path class="st0" d="M26,12h-4c-0.276,0-0.5-0.224-0.5-0.5S21.724,11,22,11h4c0.276,0,0.5,0.224,0.5,0.5S26.276,12,26,12z"/>
	</g>
	<g>
		<path class="st0" d="M24,14c-0.276,0-0.5-0.224-0.5-0.5v-4C23.5,9.224,23.724,9,24,9s0.5,0.224,0.5,0.5v4
			C24.5,13.776,24.276,14,24,14z"/>
	</g>
</g>
</svg>
