<?xml version="1.0" encoding="utf-8"?>
<!-- Generator: Adobe Illustrator 21.1.0, SVG Export Plug-In . SVG Version: 6.00 Build 0)  -->
<svg version="1.1" id="Icon_Set" xmlns="http://www.w3.org/2000/svg" xmlns:xlink="http://www.w3.org/1999/xlink" x="0px" y="0px"
	 viewBox="0 0 64 64" style="enable-background:new 0 0 64 64;" xml:space="preserve">
<style type="text/css">
	.st0{fill:#263238;}
	.st1{fill:#FFD740;}
	.st2{fill:#FF5252;}
	.st3{fill:#40C4FF;}
	.st4{fill:#4DB6AC;}
	.st5{fill:#FFFFFF;}
	.st6{fill:#FFD345;}
</style>
<g>
	<g>
		<path class="st4" d="M61,24.5H38c-1.381,0-2.5-1.119-2.5-2.5V3c0-1.381,1.119-2.5,2.5-2.5h23c1.381,0,2.5,1.119,2.5,2.5v19
			C63.5,23.381,62.381,24.5,61,24.5z"/>
	</g>
	<g>
		<path class="st5" d="M47.379,18.596c-0.384,0-0.768-0.146-1.061-0.439l-4.95-4.95c-0.586-0.585-0.586-1.535,0-2.121
			s1.535-0.586,2.121,0l3.89,3.889l8.132-8.132c0.586-0.586,1.535-0.586,2.121,0c0.586,0.585,0.586,1.536,0,2.121l-9.192,9.192
			C48.147,18.45,47.763,18.596,47.379,18.596z"/>
		<path class="st0" d="M47.379,19.096c-0.534,0-1.036-0.208-1.414-0.586l-4.95-4.95c-0.378-0.377-0.586-0.879-0.586-1.414
			c0-0.534,0.208-1.036,0.586-1.414c0.756-0.756,2.072-0.756,2.828,0l3.536,3.536l7.778-7.778c0.779-0.78,2.049-0.78,2.828,0
			c0.378,0.377,0.586,0.88,0.586,1.414s-0.208,1.037-0.586,1.414l-9.192,9.192C48.415,18.888,47.913,19.096,47.379,19.096z
			 M42.429,11.146c-0.267,0-0.518,0.104-0.707,0.293c-0.188,0.189-0.293,0.44-0.293,0.707s0.104,0.518,0.293,0.707l4.95,4.95
			c0.379,0.378,1.035,0.378,1.414,0l9.192-9.192c0.188-0.189,0.293-0.44,0.293-0.707s-0.104-0.518-0.293-0.707
			c-0.391-0.39-1.023-0.39-1.414,0l-8.132,8.132c-0.195,0.195-0.512,0.195-0.707,0l-3.89-3.889
			C42.946,11.25,42.695,11.146,42.429,11.146z"/>
	</g>
	<g>
		<path class="st2" d="M26,63.5H3c-1.381,0-2.5-1.119-2.5-2.5V42c0-1.381,1.119-2.5,2.5-2.5h23c1.381,0,2.5,1.119,2.5,2.5v19
			C28.5,62.381,27.381,63.5,26,63.5z"/>
	</g>
	<g>
		<path class="st5" d="M16.621,51.5l4.243-4.243c0.586-0.586,0.586-1.536,0-2.121c-0.586-0.586-1.536-0.586-2.121,0L14.5,49.379
			l-4.243-4.243c-0.586-0.586-1.536-0.586-2.121,0c-0.586,0.586-0.586,1.536,0,2.121l4.243,4.243l-4.243,4.243
			c-0.586,0.586-0.586,1.536,0,2.121c0.586,0.586,1.536,0.586,2.121,0l4.243-4.243l4.243,4.243c0.586,0.586,1.536,0.586,2.121,0
			c0.586-0.586,0.586-1.536,0-2.121L16.621,51.5z"/>
		<path class="st0" d="M19.803,58.803c-0.534,0-1.036-0.208-1.414-0.586L14.5,54.328l-3.889,3.889c-0.756,0.756-2.074,0.756-2.828,0
			c-0.378-0.377-0.586-0.879-0.586-1.414c0-0.534,0.208-1.036,0.586-1.414l3.889-3.889l-3.889-3.889
			c-0.378-0.378-0.586-0.88-0.586-1.414c0-0.535,0.208-1.037,0.586-1.414c0.754-0.755,2.072-0.756,2.828,0l3.889,3.889l3.889-3.889
			c0.756-0.756,2.074-0.755,2.828,0c0.378,0.377,0.586,0.879,0.586,1.414c0,0.534-0.208,1.036-0.586,1.414L17.328,51.5l3.889,3.889
			c0.378,0.378,0.586,0.88,0.586,1.414c0,0.535-0.208,1.037-0.586,1.414C20.84,58.595,20.338,58.803,19.803,58.803z M14.5,53.121
			c0.128,0,0.256,0.049,0.354,0.146l4.243,4.243c0.378,0.378,1.036,0.378,1.414,0c0.189-0.189,0.293-0.44,0.293-0.707
			s-0.104-0.518-0.293-0.707l-4.243-4.243c-0.195-0.195-0.195-0.512,0-0.707l4.243-4.243c0.189-0.189,0.293-0.44,0.293-0.707
			s-0.104-0.518-0.293-0.707c-0.378-0.378-1.036-0.378-1.414,0l-4.243,4.243c-0.195,0.195-0.512,0.195-0.707,0L9.904,45.49
			c-0.378-0.378-1.036-0.378-1.414,0c-0.189,0.189-0.293,0.44-0.293,0.707s0.104,0.518,0.293,0.707l4.243,4.243
			c0.195,0.195,0.195,0.512,0,0.707L8.49,56.096c-0.189,0.189-0.293,0.44-0.293,0.707s0.104,0.518,0.293,0.707
			c0.378,0.378,1.036,0.378,1.414,0l4.243-4.243C14.244,53.17,14.372,53.121,14.5,53.121z"/>
	</g>
	<g>
		<path class="st0" d="M32.949,47.449c-8.547,0-15.5-6.953-15.5-15.5s6.953-15.5,15.5-15.5c8.547,0,15.5,6.953,15.5,15.5
			S41.496,47.449,32.949,47.449z M32.949,17.449c-7.995,0-14.5,6.505-14.5,14.5s6.505,14.5,14.5,14.5c7.996,0,14.5-6.505,14.5-14.5
			S40.944,17.449,32.949,17.449z M32.949,44.449c-6.893,0-12.5-5.607-12.5-12.5s5.607-12.5,12.5-12.5c6.893,0,12.5,5.607,12.5,12.5
			S39.842,44.449,32.949,44.449z M32.949,20.449c-6.341,0-11.5,5.159-11.5,11.5s5.159,11.5,11.5,11.5s11.5-5.159,11.5-11.5
			S39.29,20.449,32.949,20.449z M41.949,32.449c-0.276,0-0.5-0.224-0.5-0.5c0-4.687-3.813-8.5-8.5-8.5c-0.276,0-0.5-0.224-0.5-0.5
			s0.224-0.5,0.5-0.5c5.239,0,9.5,4.262,9.5,9.5C42.449,32.225,42.226,32.449,41.949,32.449z"/>
	</g>
	<g>
		<path class="st0" d="M47.798,50.126c-0.128,0-0.256-0.049-0.354-0.146l-5.763-5.763c-0.102-0.102-0.155-0.243-0.146-0.387
			c0.01-0.144,0.081-0.277,0.195-0.364c1.027-0.784,1.947-1.705,2.734-2.735c0.088-0.114,0.221-0.186,0.364-0.195
			c0.142-0.002,0.285,0.043,0.387,0.146l5.764,5.763c0.094,0.094,0.146,0.221,0.146,0.354s-0.053,0.26-0.146,0.354l-2.829,2.828
			C48.054,50.078,47.926,50.126,47.798,50.126z M42.785,43.907l5.013,5.013l2.122-2.121l-5.014-5.013
			C44.269,42.56,43.559,43.271,42.785,43.907z"/>
	</g>
	<g>
		<path class="st3" d="M50.98,46.445l-3.536,3.536c-0.391,0.391-0.391,1.024,0,1.414l9.899,9.899c0.391,0.391,1.024,0.391,1.414,0
			l3.536-3.536c0.391-0.391,0.391-1.024,0-1.414l-9.899-9.899C52.004,46.054,51.371,46.054,50.98,46.445z"/>
		<path class="st0" d="M58.051,62.086c-0.4,0-0.777-0.156-1.061-0.438l-9.899-9.9c-0.585-0.585-0.585-1.537,0-2.122l3.536-3.536
			c0,0,0,0,0,0c0.586-0.583,1.535-0.583,2.121,0l9.899,9.9c0.283,0.283,0.439,0.66,0.439,1.061c0,0.4-0.156,0.777-0.439,1.061
			l-3.536,3.536C58.829,61.931,58.452,62.086,58.051,62.086z M51.334,46.798l-3.536,3.535c-0.195,0.195-0.195,0.512,0,0.708
			l9.899,9.899c0.189,0.188,0.518,0.188,0.707,0l3.536-3.536c0.095-0.095,0.146-0.22,0.146-0.354c0-0.134-0.052-0.259-0.146-0.353
			l-9.899-9.9C51.846,46.604,51.529,46.603,51.334,46.798L51.334,46.798z"/>
	</g>
	<g>
		<path class="st0" d="M20.731,17.36h-1c-0.276,0-0.5-0.224-0.5-0.5s0.224-0.5,0.5-0.5h1c0.276,0,0.5,0.224,0.5,0.5
			S21.007,17.36,20.731,17.36z"/>
	</g>
	<g>
		<path class="st0" d="M17.731,17.36h-11c-0.276,0-0.5-0.224-0.5-0.5s0.224-0.5,0.5-0.5h11c0.276,0,0.5,0.224,0.5,0.5
			S18.007,17.36,17.731,17.36z"/>
	</g>
	<g>
		<path class="st0" d="M14.731,14.36h-11c-0.276,0-0.5-0.224-0.5-0.5s0.224-0.5,0.5-0.5h11c0.276,0,0.5,0.224,0.5,0.5
			S15.007,14.36,14.731,14.36z"/>
	</g>
</g>
</svg>
