<?xml version="1.0" encoding="utf-8"?>
<!-- Generator: Adobe Illustrator 21.1.0, SVG Export Plug-In . SVG Version: 6.00 Build 0)  -->
<svg version="1.1" id="Icon_Set" xmlns="http://www.w3.org/2000/svg" xmlns:xlink="http://www.w3.org/1999/xlink" x="0px" y="0px"
	 viewBox="0 0 64 64" style="enable-background:new 0 0 64 64;" xml:space="preserve">
<style type="text/css">
	.st0{fill:#263238;}
	.st1{fill:#FFD740;}
	.st2{fill:#FF5252;}
	.st3{fill:#40C4FF;}
	.st4{fill:#4DB6AC;}
	.st5{fill:#FFFFFF;}
	.st6{fill:#FFD345;}
</style>
<g>
	<g>
		<path class="st0" d="M32,25.5c-0.118,0-0.236-0.042-0.331-0.125l-17-15c-0.208-0.183-0.227-0.499-0.044-0.706
			c0.185-0.208,0.5-0.227,0.706-0.044L32,24.333L48.669,9.625c0.206-0.182,0.523-0.164,0.706,0.044
			c0.183,0.207,0.163,0.523-0.044,0.706l-17,15C32.236,25.458,32.118,25.5,32,25.5z"/>
	</g>
	<g>
		<path class="st0" d="M49,25.5c-0.118,0-0.236-0.041-0.331-0.125L32,10.667L15.331,25.375c-0.205,0.183-0.521,0.164-0.706-0.044
			c-0.183-0.207-0.163-0.523,0.044-0.706l17-15c0.188-0.167,0.473-0.167,0.661,0l17,15c0.208,0.183,0.227,0.499,0.044,0.706
			C49.276,25.443,49.138,25.5,49,25.5z"/>
	</g>
	<g>
		<circle class="st5" cx="15" cy="10" r="5"/>
		<path class="st0" d="M15,15.5c-3.033,0-5.5-2.467-5.5-5.5s2.467-5.5,5.5-5.5s5.5,2.467,5.5,5.5S18.033,15.5,15,15.5z M15,5.5
			c-2.481,0-4.5,2.019-4.5,4.5s2.019,4.5,4.5,4.5s4.5-2.019,4.5-4.5S17.481,5.5,15,5.5z"/>
	</g>
	<g>
		<circle class="st3" cx="32" cy="10" r="5"/>
		<path class="st0" d="M32,15.5c-3.033,0-5.5-2.467-5.5-5.5s2.467-5.5,5.5-5.5s5.5,2.467,5.5,5.5S35.033,15.5,32,15.5z M32,5.5
			c-2.481,0-4.5,2.019-4.5,4.5s2.019,4.5,4.5,4.5s4.5-2.019,4.5-4.5S34.481,5.5,32,5.5z"/>
	</g>
	<g>
		<circle class="st5" cx="49" cy="10" r="5"/>
		<path class="st0" d="M49,15.5c-3.033,0-5.5-2.467-5.5-5.5s2.467-5.5,5.5-5.5s5.5,2.467,5.5,5.5S52.033,15.5,49,15.5z M49,5.5
			c-2.481,0-4.5,2.019-4.5,4.5s2.019,4.5,4.5,4.5s4.5-2.019,4.5-4.5S51.481,5.5,49,5.5z"/>
	</g>
	<g>
		<circle class="st3" cx="15" cy="25" r="5"/>
		<path class="st0" d="M15,30.5c-3.033,0-5.5-2.467-5.5-5.5s2.467-5.5,5.5-5.5s5.5,2.467,5.5,5.5S18.033,30.5,15,30.5z M15,20.5
			c-2.481,0-4.5,2.019-4.5,4.5s2.019,4.5,4.5,4.5s4.5-2.019,4.5-4.5S17.481,20.5,15,20.5z"/>
	</g>
	<g>
		<circle class="st5" cx="32" cy="25" r="5"/>
		<path class="st0" d="M32,30.5c-3.033,0-5.5-2.467-5.5-5.5s2.467-5.5,5.5-5.5s5.5,2.467,5.5,5.5S35.033,30.5,32,30.5z M32,20.5
			c-2.481,0-4.5,2.019-4.5,4.5s2.019,4.5,4.5,4.5s4.5-2.019,4.5-4.5S34.481,20.5,32,20.5z"/>
	</g>
	<g>
		<circle class="st3" cx="49" cy="25" r="5"/>
		<path class="st0" d="M49,30.5c-3.033,0-5.5-2.467-5.5-5.5s2.467-5.5,5.5-5.5s5.5,2.467,5.5,5.5S52.033,30.5,49,30.5z M49,20.5
			c-2.481,0-4.5,2.019-4.5,4.5s2.019,4.5,4.5,4.5s4.5-2.019,4.5-4.5S51.481,20.5,49,20.5z"/>
	</g>
	<g>
		<path class="st1" d="M37,47.5c0-3.115-2.848-5.565-6.083-4.886c-1.908,0.4-3.437,1.958-3.816,3.87
			c-0.336,1.696,0.191,3.263,1.214,4.372c0.725,0.786,1.185,1.778,1.185,2.848V54h5v-0.295c0-1.075,0.47-2.068,1.196-2.861
			C36.504,49.961,37,48.792,37,47.5z"/>
		<path class="st0" d="M34.5,54.5h-5c-0.276,0-0.5-0.224-0.5-0.5v-0.297c0-0.881-0.374-1.772-1.053-2.509
			c-1.197-1.299-1.685-3.051-1.336-4.808c0.418-2.11,2.107-3.822,4.204-4.262c1.661-0.351,3.356,0.053,4.65,1.104
			c1.293,1.05,2.035,2.607,2.035,4.271c0,1.363-0.51,2.67-1.435,3.681C35.579,51.711,35,52.58,35,53.705V54
			C35,54.276,34.776,54.5,34.5,54.5z M29.995,53.5h4.01c0.051-1.071,0.506-2.103,1.323-2.995C36.083,49.68,36.5,48.613,36.5,47.5
			c0-1.362-0.607-2.636-1.666-3.495c-1.058-0.859-2.449-1.189-3.814-0.902c-1.709,0.358-3.087,1.756-3.429,3.478
			c-0.285,1.44,0.113,2.874,1.091,3.936C29.481,51.383,29.942,52.436,29.995,53.5z"/>
	</g>
	<g>
		<path class="st0" d="M32,59.5c-1.654,0-3-1.346-3-3V54c0-0.276,0.224-0.5,0.5-0.5h5c0.276,0,0.5,0.224,0.5,0.5v2.5
			C35,58.154,33.654,59.5,32,59.5z M30,54.5v2c0,1.103,0.897,2,2,2s2-0.897,2-2v-2H30z"/>
	</g>
	<g>
		<path class="st0" d="M34.5,57h-5c-0.276,0-0.5-0.224-0.5-0.5s0.224-0.5,0.5-0.5h5c0.276,0,0.5,0.224,0.5,0.5S34.776,57,34.5,57z"
			/>
	</g>
	<g>
		<path class="st0" d="M32,54.5c-0.276,0-0.5-0.224-0.5-0.5v-5c0-0.276,0.224-0.5,0.5-0.5s0.5,0.224,0.5,0.5v5
			C32.5,54.276,32.276,54.5,32,54.5z"/>
	</g>
	<g>
		<path class="st1" d="M20,47.5c0-3.115-2.848-5.565-6.083-4.886c-1.908,0.4-3.437,1.958-3.816,3.87
			c-0.336,1.696,0.191,3.263,1.214,4.372c0.725,0.786,1.185,1.778,1.185,2.848V54h5v-0.295c0-1.075,0.47-2.068,1.196-2.861
			C19.504,49.961,20,48.792,20,47.5z"/>
		<path class="st0" d="M17.5,54.5h-5c-0.276,0-0.5-0.224-0.5-0.5v-0.297c0-0.881-0.374-1.772-1.053-2.509
			c-1.198-1.299-1.685-3.051-1.336-4.808c0.418-2.11,2.107-3.822,4.204-4.262c1.662-0.351,3.356,0.053,4.65,1.104
			c1.293,1.05,2.035,2.607,2.035,4.271c0,1.363-0.51,2.67-1.435,3.681C18.579,51.711,18,52.58,18,53.705V54
			C18,54.276,17.776,54.5,17.5,54.5z M12.995,53.5h4.01c0.051-1.071,0.506-2.103,1.323-2.995C19.083,49.68,19.5,48.613,19.5,47.5
			c0-1.362-0.607-2.636-1.666-3.495c-1.059-0.859-2.448-1.189-3.814-0.902c-1.709,0.358-3.087,1.756-3.429,3.478
			c-0.285,1.44,0.112,2.874,1.091,3.936C12.481,51.383,12.943,52.436,12.995,53.5z"/>
	</g>
	<g>
		<path class="st0" d="M15,59.5c-1.654,0-3-1.346-3-3V54c0-0.276,0.224-0.5,0.5-0.5h5c0.276,0,0.5,0.224,0.5,0.5v2.5
			C18,58.154,16.654,59.5,15,59.5z M13,54.5v2c0,1.103,0.897,2,2,2s2-0.897,2-2v-2H13z"/>
	</g>
	<g>
		<path class="st0" d="M17.5,57h-5c-0.276,0-0.5-0.224-0.5-0.5s0.224-0.5,0.5-0.5h5c0.276,0,0.5,0.224,0.5,0.5S17.776,57,17.5,57z"
			/>
	</g>
	<g>
		<path class="st0" d="M15,54.5c-0.276,0-0.5-0.224-0.5-0.5v-5c0-0.276,0.224-0.5,0.5-0.5s0.5,0.224,0.5,0.5v5
			C15.5,54.276,15.276,54.5,15,54.5z"/>
	</g>
	<g>
		<path class="st1" d="M54,47.5c0-3.115-2.848-5.565-6.083-4.886c-1.908,0.4-3.437,1.958-3.816,3.87
			c-0.336,1.696,0.191,3.263,1.214,4.372c0.725,0.786,1.185,1.778,1.185,2.848V54h5v-0.295c0-1.075,0.47-2.068,1.196-2.861
			C53.504,49.961,54,48.792,54,47.5z"/>
		<path class="st0" d="M51.5,54.5h-5c-0.276,0-0.5-0.224-0.5-0.5v-0.297c0-0.881-0.374-1.772-1.053-2.509
			c-1.198-1.299-1.685-3.051-1.336-4.808c0.418-2.11,2.107-3.822,4.204-4.262c1.662-0.351,3.356,0.053,4.65,1.104
			c1.293,1.05,2.035,2.607,2.035,4.271c0,1.363-0.51,2.67-1.435,3.681C52.579,51.711,52,52.58,52,53.705V54
			C52,54.276,51.776,54.5,51.5,54.5z M46.995,53.5h4.01c0.051-1.071,0.506-2.103,1.323-2.995C53.083,49.68,53.5,48.613,53.5,47.5
			c0-1.362-0.607-2.636-1.666-3.495s-2.449-1.189-3.814-0.902c-1.709,0.358-3.087,1.756-3.429,3.478
			c-0.285,1.44,0.112,2.874,1.091,3.936C46.481,51.383,46.943,52.436,46.995,53.5z"/>
	</g>
	<g>
		<path class="st0" d="M49,59.5c-1.654,0-3-1.346-3-3V54c0-0.276,0.224-0.5,0.5-0.5h5c0.276,0,0.5,0.224,0.5,0.5v2.5
			C52,58.154,50.654,59.5,49,59.5z M47,54.5v2c0,1.103,0.897,2,2,2s2-0.897,2-2v-2H47z"/>
	</g>
	<g>
		<path class="st0" d="M51.5,57h-5c-0.276,0-0.5-0.224-0.5-0.5s0.224-0.5,0.5-0.5h5c0.276,0,0.5,0.224,0.5,0.5S51.776,57,51.5,57z"
			/>
	</g>
	<g>
		<path class="st0" d="M49,54.5c-0.276,0-0.5-0.224-0.5-0.5v-5c0-0.276,0.224-0.5,0.5-0.5s0.5,0.224,0.5,0.5v5
			C49.5,54.276,49.276,54.5,49,54.5z"/>
	</g>
	<g>
		<path class="st0" d="M49,35.5H15c-0.276,0-0.5-0.224-0.5-0.5v-5c0-0.276,0.224-0.5,0.5-0.5s0.5,0.224,0.5,0.5v4.5h33V30
			c0-0.276,0.224-0.5,0.5-0.5s0.5,0.224,0.5,0.5v5C49.5,35.276,49.276,35.5,49,35.5z"/>
	</g>
	<g>
		<path class="st0" d="M32,40.5c-0.276,0-0.5-0.224-0.5-0.5v-5c0-0.276,0.224-0.5,0.5-0.5s0.5,0.224,0.5,0.5v5
			C32.5,40.276,32.276,40.5,32,40.5z"/>
	</g>
	<g>
		<path class="st0" d="M27,54.5h-7c-0.276,0-0.5-0.224-0.5-0.5s0.224-0.5,0.5-0.5h7c0.276,0,0.5,0.224,0.5,0.5S27.276,54.5,27,54.5z
			"/>
	</g>
	<g>
		<path class="st0" d="M43.999,54.5h-7c-0.276,0-0.5-0.224-0.5-0.5s0.224-0.5,0.5-0.5h7c0.276,0,0.5,0.224,0.5,0.5
			S44.275,54.5,43.999,54.5z"/>
	</g>
</g>
</svg>
