<?xml version="1.0" encoding="utf-8"?>
<!-- Generator: Adobe Illustrator 21.1.0, SVG Export Plug-In . SVG Version: 6.00 Build 0)  -->
<svg version="1.1" id="Icon_Set" xmlns="http://www.w3.org/2000/svg" xmlns:xlink="http://www.w3.org/1999/xlink" x="0px" y="0px"
	 viewBox="0 0 64 64" style="enable-background:new 0 0 64 64;" xml:space="preserve">
<style type="text/css">
	.st0{fill:#263238;}
	.st1{fill:#FFD740;}
	.st2{fill:#FF5252;}
	.st3{fill:#40C4FF;}
	.st4{fill:#4DB6AC;}
	.st5{fill:#FFFFFF;}
	.st6{fill:#FFD345;}
</style>
<g>
	<g>
		<path class="st2" d="M51,36v-8c0-0.552,0.448-1,1-1h8c0.552,0,1,0.448,1,1v8c0,0.552-0.448,1-1,1h-8C51.448,37,51,36.552,51,36z"
			/>
		<path class="st0" d="M60,37.5h-8c-0.827,0-1.5-0.673-1.5-1.5v-8c0-0.827,0.673-1.5,1.5-1.5h8c0.827,0,1.5,0.673,1.5,1.5v8
			C61.5,36.827,60.827,37.5,60,37.5z M52,27.5c-0.275,0-0.5,0.224-0.5,0.5v8c0,0.276,0.225,0.5,0.5,0.5h8c0.275,0,0.5-0.224,0.5-0.5
			v-8c0-0.276-0.225-0.5-0.5-0.5H52z"/>
	</g>
	<g>
		<path class="st2" d="M3,36v-8c0-0.552,0.448-1,1-1h8c0.552,0,1,0.448,1,1v8c0,0.552-0.448,1-1,1H4C3.448,37,3,36.552,3,36z"/>
		<path class="st0" d="M12,37.5H4c-0.827,0-1.5-0.673-1.5-1.5v-8c0-0.827,0.673-1.5,1.5-1.5h8c0.827,0,1.5,0.673,1.5,1.5v8
			C13.5,36.827,12.827,37.5,12,37.5z M4,27.5c-0.275,0-0.5,0.224-0.5,0.5v8c0,0.276,0.225,0.5,0.5,0.5h8c0.275,0,0.5-0.224,0.5-0.5
			v-8c0-0.276-0.225-0.5-0.5-0.5H4z"/>
	</g>
	<g>
		<path class="st0" d="M22.5,32.5H15c-0.276,0-0.5-0.224-0.5-0.5s0.224-0.5,0.5-0.5h7.5c0.276,0,0.5,0.224,0.5,0.5
			S22.776,32.5,22.5,32.5z"/>
	</g>
	<g>
		<path class="st0" d="M49,32.5h-7.5c-0.276,0-0.5-0.224-0.5-0.5s0.224-0.5,0.5-0.5H49c0.276,0,0.5,0.224,0.5,0.5
			S49.276,32.5,49,32.5z"/>
	</g>
	<g>
		<path class="st0" d="M32,21.5c-0.276,0-0.5-0.224-0.5-0.5v-6c0-0.276,0.224-0.5,0.5-0.5s0.5,0.224,0.5,0.5v6
			C32.5,21.276,32.276,21.5,32,21.5z"/>
	</g>
	<g>
		<path class="st0" d="M32,49.5c-0.276,0-0.5-0.224-0.5-0.5v-6c0-0.276,0.224-0.5,0.5-0.5s0.5,0.224,0.5,0.5v6
			C32.5,49.276,32.276,49.5,32,49.5z"/>
	</g>
	<g>
		<path class="st3" d="M27,12V4c0-0.552,0.448-1,1-1h8c0.552,0,1,0.448,1,1v8c0,0.552-0.448,1-1,1h-8C27.448,13,27,12.552,27,12z"/>
		<path class="st0" d="M36,13.5h-8c-0.827,0-1.5-0.673-1.5-1.5V4c0-0.827,0.673-1.5,1.5-1.5h8c0.827,0,1.5,0.673,1.5,1.5v8
			C37.5,12.827,36.827,13.5,36,13.5z M28,3.5c-0.275,0-0.5,0.224-0.5,0.5v8c0,0.276,0.225,0.5,0.5,0.5h8c0.275,0,0.5-0.224,0.5-0.5
			V4c0-0.276-0.225-0.5-0.5-0.5H28z"/>
	</g>
	<g>
		<path class="st3" d="M27,60v-8c0-0.552,0.448-1,1-1h8c0.552,0,1,0.448,1,1v8c0,0.552-0.448,1-1,1h-8C27.448,61,27,60.552,27,60z"
			/>
		<path class="st0" d="M36,61.5h-8c-0.827,0-1.5-0.673-1.5-1.5v-8c0-0.827,0.673-1.5,1.5-1.5h8c0.827,0,1.5,0.673,1.5,1.5v8
			C37.5,60.827,36.827,61.5,36,61.5z M28,51.5c-0.275,0-0.5,0.224-0.5,0.5v8c0,0.276,0.225,0.5,0.5,0.5h8c0.275,0,0.5-0.224,0.5-0.5
			v-8c0-0.276-0.225-0.5-0.5-0.5H28z"/>
	</g>
	<g>
		<path class="st0" d="M15.5,17.5h-8C6.673,17.5,6,16.827,6,16V8c0-0.827,0.673-1.5,1.5-1.5h8C16.327,6.5,17,7.173,17,8v8
			C17,16.827,16.327,17.5,15.5,17.5z M7.5,7.5C7.225,7.5,7,7.724,7,8v8c0,0.276,0.225,0.5,0.5,0.5h8c0.275,0,0.5-0.224,0.5-0.5V8
			c0-0.276-0.225-0.5-0.5-0.5H7.5z"/>
	</g>
	<g>
		<path class="st1" d="M15.5,57h-8c-0.552,0-1-0.448-1-1v-8c0-0.552,0.448-1,1-1h8c0.552,0,1,0.448,1,1v8
			C16.5,56.552,16.052,57,15.5,57z"/>
		<path class="st0" d="M15.5,57.5h-8C6.673,57.5,6,56.827,6,56v-8c0-0.827,0.673-1.5,1.5-1.5h8c0.827,0,1.5,0.673,1.5,1.5v8
			C17,56.827,16.327,57.5,15.5,57.5z M7.5,47.5C7.225,47.5,7,47.724,7,48v8c0,0.276,0.225,0.5,0.5,0.5h8c0.275,0,0.5-0.224,0.5-0.5
			v-8c0-0.276-0.225-0.5-0.5-0.5H7.5z"/>
	</g>
	<g>
		<path class="st0" d="M56.5,57.471h-8c-0.827,0-1.5-0.673-1.5-1.5v-8c0-0.827,0.673-1.5,1.5-1.5h8c0.827,0,1.5,0.673,1.5,1.5v8
			C58,56.798,57.327,57.471,56.5,57.471z M48.5,47.471c-0.275,0-0.5,0.224-0.5,0.5v8c0,0.276,0.225,0.5,0.5,0.5h8
			c0.275,0,0.5-0.224,0.5-0.5v-8c0-0.276-0.225-0.5-0.5-0.5H48.5z"/>
	</g>
	<g>
		<path class="st0" d="M57.921,10.822c-0.133,0-0.26-0.053-0.354-0.146l-4.242-4.243c-0.195-0.195-0.195-0.512,0-0.707l2.01-2.01
			c1.134-1.134,3.109-1.133,4.242,0l0.707,0.707c1.17,1.17,1.17,3.073,0,4.243l-2.01,2.01C58.181,10.77,58.054,10.822,57.921,10.822
			z M54.386,6.08l3.535,3.536l1.656-1.657c0.78-0.78,0.78-2.049,0-2.829L58.87,4.423l0,0c-0.756-0.756-2.072-0.756-2.828,0
			L54.386,6.08z"/>
	</g>
	<g>
		<path class="st0" d="M32,32.5c-0.131,0-0.258-0.051-0.354-0.146c-0.134-0.134-0.181-0.332-0.121-0.512l2.122-6.364
			c0.024-0.074,0.066-0.141,0.121-0.195l2.121-2.122c0.188-0.188,0.52-0.188,0.707,0l4.242,4.243c0.195,0.195,0.195,0.512,0,0.707
			l-2.121,2.122c-0.055,0.055-0.122,0.096-0.195,0.121l-6.364,2.121C32.106,32.492,32.053,32.5,32,32.5z M34.559,25.906
			l-1.768,5.303l5.303-1.768l1.685-1.685l-3.535-3.536L34.559,25.906z"/>
	</g>
	<g>
		<path class="st0" d="M32,32.5c-0.131,0-0.258-0.051-0.354-0.146c-0.134-0.134-0.181-0.332-0.121-0.512l1.415-4.243
			c0.055-0.165,0.191-0.289,0.359-0.329c0.168-0.039,0.347,0.011,0.469,0.133l2.828,2.829c0.123,0.123,0.173,0.3,0.133,0.468
			c-0.039,0.169-0.164,0.305-0.328,0.359l-4.243,1.414C32.106,32.492,32.053,32.5,32,32.5z M33.634,28.683l-0.843,2.526l2.526-0.842
			L33.634,28.683z"/>
	</g>
	<g>
		
			<rect x="34.753" y="13.918" transform="matrix(0.7071 -0.7071 0.7071 0.7071 1.8269 38.2472)" class="st1" width="24.657" height="6"/>
		<path class="st0" d="M40.485,28.257c-0.133,0-0.26-0.053-0.354-0.146l-4.242-4.243c-0.195-0.195-0.195-0.512,0-0.707L53.325,5.726
			c0.188-0.188,0.52-0.188,0.707,0l4.242,4.243c0.195,0.195,0.195,0.512,0,0.707L40.839,28.111
			C40.745,28.205,40.618,28.257,40.485,28.257z M36.95,23.515l3.535,3.536l16.729-16.728l-3.535-3.536L36.95,23.515z"/>
	</g>
	<g>
		<path class="st0" d="M37.5,40.5h-11c-0.827,0-1.5-0.673-1.5-1.5V25c0-0.827,0.673-1.5,1.5-1.5h6.43c0.276,0,0.5,0.224,0.5,0.5
			s-0.224,0.5-0.5,0.5H26.5c-0.275,0-0.5,0.224-0.5,0.5v14c0,0.276,0.225,0.5,0.5,0.5h11c0.275,0,0.5-0.224,0.5-0.5v-7.058
			c0-0.276,0.224-0.5,0.5-0.5s0.5,0.224,0.5,0.5V39C39,39.827,38.327,40.5,37.5,40.5z"/>
	</g>
	<g>
		<path class="st0" d="M35.25,35.5h-6.5c-0.276,0-0.5-0.224-0.5-0.5s0.224-0.5,0.5-0.5h6.5c0.276,0,0.5,0.224,0.5,0.5
			S35.526,35.5,35.25,35.5z"/>
	</g>
	<g>
		<path class="st0" d="M18.5,46.5c-0.128,0-0.256-0.049-0.354-0.146c-0.195-0.195-0.195-0.512,0-0.707l5-5
			c0.195-0.195,0.512-0.195,0.707,0s0.195,0.512,0,0.707l-5,5C18.756,46.451,18.628,46.5,18.5,46.5z"/>
	</g>
	<g>
		<path class="st0" d="M45.5,46.5c-0.128,0-0.256-0.049-0.354-0.146l-5-5c-0.195-0.195-0.195-0.512,0-0.707s0.512-0.195,0.707,0l5,5
			c0.195,0.195,0.195,0.512,0,0.707C45.756,46.451,45.628,46.5,45.5,46.5z"/>
	</g>
	<g>
		<path class="st0" d="M24.028,23.5c-0.128,0-0.256-0.049-0.354-0.146l-5-5c-0.195-0.195-0.195-0.512,0-0.707s0.512-0.195,0.707,0
			l5,5c0.195,0.195,0.195,0.512,0,0.707C24.284,23.451,24.156,23.5,24.028,23.5z"/>
	</g>
</g>
</svg>
