<?xml version="1.0" encoding="utf-8"?>
<!-- Generator: Adobe Illustrator 21.1.0, SVG Export Plug-In . SVG Version: 6.00 Build 0)  -->
<svg version="1.1" id="Icon_Set" xmlns="http://www.w3.org/2000/svg" xmlns:xlink="http://www.w3.org/1999/xlink" x="0px" y="0px"
	 viewBox="0 0 64 64" style="enable-background:new 0 0 64 64;" xml:space="preserve">
<style type="text/css">
	.st0{fill:#263238;}
	.st1{fill:#FFD740;}
	.st2{fill:#FF5252;}
	.st3{fill:#40C4FF;}
	.st4{fill:#4DB6AC;}
	.st5{fill:#FFFFFF;}
	.st6{fill:#FFD345;}
</style>
<g>
	<g>
		<path class="st1" d="M29.525,27.975c-0.661-0.66-1.025-1.54-1.025-2.475s0.364-1.814,1.026-2.476
			c1.362-1.363,3.583-1.364,4.949,0.001l9.576,9.576C45.281,30.517,46,28.095,46,25.5c0-7.732-6.268-14-14-14s-14,6.268-14,14
			s6.268,14,14,14c2.595,0,5.017-0.719,7.101-1.95L29.525,27.975z"/>
	</g>
	<g>
		<path class="st0" d="M57,45.01H7c-0.282,0-0.51-0.229-0.51-0.51v-37c0-0.282,0.229-0.51,0.51-0.51h50
			c0.282,0,0.511,0.229,0.511,0.51v37C57.511,44.782,57.282,45.01,57,45.01z M7.51,43.99h48.979V8.01H7.51V43.99z"/>
	</g>
	<g>
		<path class="st0" d="M6,53H5c-0.276,0-0.5-0.224-0.5-0.5S4.724,52,5,52h1c0.276,0,0.5,0.224,0.5,0.5S6.276,53,6,53z"/>
	</g>
	<g>
		<path class="st0" d="M19,53H8c-0.276,0-0.5-0.224-0.5-0.5S7.724,52,8,52h11c0.276,0,0.5,0.224,0.5,0.5S19.276,53,19,53z"/>
	</g>
	<g>
		<path class="st0" d="M59,53h-1c-0.276,0-0.5-0.224-0.5-0.5S57.724,52,58,52h1c0.276,0,0.5,0.224,0.5,0.5S59.276,53,59,53z"/>
	</g>
	<g>
		<path class="st0" d="M56,53H45c-0.276,0-0.5-0.224-0.5-0.5S44.724,52,45,52h11c0.276,0,0.5,0.224,0.5,0.5S56.276,53,56,53z"/>
	</g>
	<g>
		<path class="st0" d="M26.255,61c-0.06,0-0.121-0.011-0.18-0.033c-0.257-0.099-0.386-0.389-0.287-0.646l3.846-10
			c0.099-0.258,0.389-0.385,0.646-0.287c0.257,0.099,0.386,0.389,0.287,0.646l-3.846,10C26.646,60.878,26.456,61,26.255,61z"/>
	</g>
	<g>
		<path class="st0" d="M20.898,61c-0.06,0-0.121-0.011-0.18-0.033c-0.257-0.099-0.386-0.389-0.287-0.646l3.846-10
			c0.099-0.258,0.387-0.385,0.646-0.287c0.257,0.099,0.386,0.389,0.287,0.646l-3.846,10C21.289,60.878,21.099,61,20.898,61z"/>
	</g>
	<g>
		<path class="st0" d="M37.744,61c-0.201,0-0.391-0.122-0.467-0.32l-3.846-10c-0.099-0.258,0.029-0.547,0.287-0.646
			c0.26-0.098,0.548,0.03,0.646,0.287l3.846,10c0.099,0.258-0.029,0.547-0.287,0.646C37.864,60.989,37.804,61,37.744,61z"/>
	</g>
	<g>
		<path class="st0" d="M43.102,61c-0.201,0-0.391-0.122-0.467-0.32l-3.846-10c-0.099-0.258,0.029-0.547,0.287-0.646
			c0.261-0.098,0.548,0.03,0.646,0.287l3.846,10c0.099,0.258-0.029,0.547-0.287,0.646C43.222,60.989,43.161,61,43.102,61z"/>
	</g>
	<g>
		<path class="st2" d="M46,41c-0.384,0-0.768-0.146-1.061-0.439l-14-14c-0.586-0.585-0.586-1.536,0-2.121
			c0.586-0.586,1.535-0.586,2.121,0l14,14c0.586,0.585,0.586,1.536,0,2.121C46.768,40.854,46.384,41,46,41z"/>
		<path class="st0" d="M46,41.5c-0.534,0-1.036-0.208-1.414-0.586l-14-14C30.208,26.537,30,26.034,30,25.5s0.208-1.037,0.586-1.414
			c0.756-0.756,2.072-0.756,2.828,0l14,14C47.792,38.463,48,38.966,48,39.5s-0.208,1.037-0.586,1.414
			C47.036,41.292,46.534,41.5,46,41.5z M32,24.5c-0.267,0-0.518,0.104-0.707,0.293S31,25.233,31,25.5s0.104,0.518,0.293,0.707l14,14
			c0.379,0.378,1.035,0.378,1.414,0C46.896,40.018,47,39.767,47,39.5s-0.104-0.518-0.293-0.707l-14-14
			C32.518,24.604,32.267,24.5,32,24.5z"/>
	</g>
	<g>
		<path class="st1" d="M29.525,27.975c-0.661-0.66-1.025-1.54-1.025-2.475s0.364-1.814,1.026-2.476
			c1.362-1.363,3.583-1.364,4.949,0.001l5.082,5.082C39.839,27.289,40,26.414,40,25.5c0-4.418-3.582-8-8-8s-8,3.582-8,8s3.582,8,8,8
			c0.914,0,1.789-0.161,2.607-0.443L29.525,27.975z"/>
	</g>
	<g>
		<path class="st0" d="M32,34c-4.687,0-8.5-3.813-8.5-8.5S27.313,17,32,17c4.687,0,8.5,3.813,8.5,8.5
			c0,0.933-0.158,1.865-0.471,2.771c-0.09,0.261-0.374,0.4-0.636,0.31c-0.261-0.09-0.399-0.375-0.31-0.636
			c0.276-0.8,0.416-1.623,0.416-2.444c0-4.136-3.364-7.5-7.5-7.5s-7.5,3.364-7.5,7.5S27.864,33,32,33
			c0.821,0,1.644-0.14,2.444-0.416c0.26-0.091,0.546,0.049,0.636,0.31c0.09,0.261-0.049,0.546-0.31,0.636
			C33.865,33.842,32.933,34,32,34z"/>
	</g>
	<g>
		<path class="st2" d="M41.879,41.121c-0.828,0-1.5-0.671-1.5-1.5v-4.242c0-0.829,0.672-1.5,1.5-1.5h4.242
			c0.828,0,1.5,0.671,1.5,1.5s-0.672,1.5-1.5,1.5h-2.742v2.742C43.379,40.45,42.707,41.121,41.879,41.121z"/>
		<path class="st0" d="M41.879,41.621c-1.103,0-2-0.897-2-2v-4.242c0-1.103,0.897-2,2-2h4.242c1.103,0,2,0.897,2,2s-0.897,2-2,2
			h-2.242v2.242C43.879,40.724,42.981,41.621,41.879,41.621z M41.879,34.379c-0.552,0-1,0.449-1,1v4.242c0,0.551,0.448,1,1,1
			s1-0.449,1-1v-2.742c0-0.276,0.224-0.5,0.5-0.5h2.742c0.552,0,1-0.449,1-1s-0.448-1-1-1H41.879z"/>
	</g>
	<g>
		<path class="st0" d="M32,40c-7.995,0-14.5-6.505-14.5-14.5S24.005,11,32,11s14.5,6.505,14.5,14.5c0,2.575-0.698,5.119-2.019,7.355
			c-0.142,0.238-0.45,0.315-0.685,0.176c-0.238-0.141-0.317-0.447-0.177-0.685c1.229-2.083,1.88-4.45,1.88-6.847
			C45.5,18.056,39.444,12,32,12c-7.444,0-13.5,6.056-13.5,13.5S24.556,39,32,39c2.397,0,4.765-0.65,6.848-1.88
			c0.233-0.14,0.542-0.062,0.685,0.176c0.141,0.238,0.062,0.544-0.177,0.685C37.119,39.302,34.576,40,32,40z"/>
	</g>
	<g>
		<path class="st3" d="M58,48.5H6c-0.552,0-1-0.448-1-1v-2c0-0.552,0.448-1,1-1h52c0.552,0,1,0.448,1,1v2
			C59,48.052,58.552,48.5,58,48.5z"/>
		<path class="st0" d="M58,49.02H6c-0.838,0-1.52-0.682-1.52-1.52v-2c0-0.838,0.682-1.52,1.52-1.52h52c0.838,0,1.52,0.682,1.52,1.52
			v2C59.52,48.338,58.838,49.02,58,49.02z M6,45.02c-0.265,0-0.48,0.216-0.48,0.48v2c0,0.265,0.216,0.48,0.48,0.48h52
			c0.265,0,0.48-0.216,0.48-0.48v-2c0-0.265-0.216-0.48-0.48-0.48H6z"/>
	</g>
	<g>
		<path class="st3" d="M58,7.5H6c-0.552,0-1-0.448-1-1v-2c0-0.552,0.448-1,1-1h52c0.552,0,1,0.448,1,1v2C59,7.052,58.552,7.5,58,7.5
			z"/>
		<path class="st0" d="M58,8.02H6c-0.838,0-1.52-0.682-1.52-1.52v-2c0-0.838,0.682-1.52,1.52-1.52h52c0.838,0,1.52,0.682,1.52,1.52
			v2C59.52,7.338,58.838,8.02,58,8.02z M6,4.02c-0.265,0-0.48,0.216-0.48,0.48v2c0,0.265,0.216,0.48,0.48,0.48h52
			c0.265,0,0.48-0.216,0.48-0.48v-2c0-0.265-0.216-0.48-0.48-0.48H6z"/>
	</g>
</g>
</svg>
