<?xml version="1.0" encoding="utf-8"?>
<!-- Generator: Adobe Illustrator 21.1.0, SVG Export Plug-In . SVG Version: 6.00 Build 0)  -->
<svg version="1.1" id="Icon_Set" xmlns="http://www.w3.org/2000/svg" xmlns:xlink="http://www.w3.org/1999/xlink" x="0px" y="0px"
	 viewBox="0 0 64 64" style="enable-background:new 0 0 64 64;" xml:space="preserve">
<style type="text/css">
	.st0{fill:#263238;}
	.st1{fill:#FFD740;}
	.st2{fill:#FF5252;}
	.st3{fill:#40C4FF;}
	.st4{fill:#4DB6AC;}
	.st5{fill:#FFFFFF;}
	.st6{fill:#FFD345;}
</style>
<g>
	<g>
		<circle class="st1" cx="32" cy="32" r="15"/>
		<path class="st0" d="M32,47.5c-8.547,0-15.5-6.953-15.5-15.5S23.454,16.5,32,16.5c8.547,0,15.5,6.953,15.5,15.5
			S40.548,47.5,32,47.5z M32,17.5c-7.995,0-14.5,6.505-14.5,14.5S24.005,46.5,32,46.5c7.996,0,14.5-6.505,14.5-14.5
			S39.996,17.5,32,17.5z"/>
	</g>
	<g>
		<path class="st0" d="M32,25c-4.324,0-8.48-0.934-11.401-2.563c-0.241-0.134-0.328-0.439-0.193-0.68
			c0.134-0.242,0.438-0.328,0.68-0.193C23.863,23.112,27.841,24,32,24c4.159,0,8.137-0.888,10.915-2.437
			c0.239-0.134,0.544-0.049,0.68,0.193c0.135,0.241,0.048,0.546-0.193,0.68C40.48,24.066,36.324,25,32,25z"/>
	</g>
	<g>
		<path class="st0" d="M43.158,42.5c-0.083,0-0.166-0.021-0.243-0.063C40.138,40.888,36.159,40,32,40
			c-4.159,0-8.137,0.888-10.914,2.437c-0.242,0.135-0.546,0.048-0.68-0.193c-0.135-0.241-0.048-0.546,0.193-0.68
			C23.521,39.934,27.676,39,32,39c4.324,0,8.48,0.934,11.401,2.563c0.241,0.134,0.328,0.439,0.193,0.68
			C43.503,42.408,43.333,42.5,43.158,42.5z"/>
	</g>
	<g>
		<path class="st0" d="M32,47.5c-5.396,0-9.786-6.953-9.786-15.5S26.604,16.5,32,16.5s9.786,6.953,9.786,15.5S37.396,47.5,32,47.5z
			 M32,17.5c-4.844,0-8.786,6.505-8.786,14.5S27.156,46.5,32,46.5s8.786-6.505,8.786-14.5S36.845,17.5,32,17.5z"/>
	</g>
	<g>
		<path class="st0" d="M32,47.5c-0.276,0-0.5-0.224-0.5-0.5V17c0-0.276,0.224-0.5,0.5-0.5s0.5,0.224,0.5,0.5v30
			C32.5,47.276,32.277,47.5,32,47.5z"/>
	</g>
	<g>
		<path class="st0" d="M47,32.5H17c-0.276,0-0.5-0.224-0.5-0.5s0.224-0.5,0.5-0.5h30c0.276,0,0.5,0.224,0.5,0.5S47.276,32.5,47,32.5
			z"/>
	</g>
	<g>
		<path class="st0" d="M35.183,56.318c-0.128,0-0.256-0.049-0.354-0.146c-0.195-0.195-0.195-0.512,0-0.707l1.414-1.414
			c0.195-0.195,0.512-0.195,0.707,0s0.195,0.512,0,0.707l-1.414,1.414C35.438,56.269,35.311,56.318,35.183,56.318z"/>
	</g>
	<g>
		<path class="st0" d="M38.011,53.49c-0.128,0-0.256-0.049-0.354-0.146c-0.195-0.195-0.195-0.512,0-0.707l14.979-14.979
			c0.195-0.195,0.512-0.195,0.707,0s0.195,0.512,0,0.707L38.364,53.343C38.267,53.441,38.139,53.49,38.011,53.49z"/>
	</g>
	<g>
		<path class="st0" d="M54.404,37.097c-0.128,0-0.256-0.049-0.354-0.146c-0.195-0.195-0.195-0.512,0-0.707l1.414-1.415
			c0.195-0.195,0.512-0.195,0.707,0s0.195,0.512,0,0.707l-1.414,1.415C54.66,37.048,54.532,37.097,54.404,37.097z"/>
	</g>
	<g>
		<path class="st0" d="M8.182,29.318c-0.128,0-0.256-0.049-0.354-0.146c-0.195-0.195-0.195-0.512,0-0.707l1.414-1.414
			c0.195-0.195,0.512-0.195,0.707,0s0.195,0.512,0,0.707l-1.414,1.414C8.438,29.269,8.31,29.318,8.182,29.318z"/>
	</g>
	<g>
		<path class="st0" d="M11.011,26.489c-0.128,0-0.256-0.049-0.354-0.146c-0.195-0.195-0.195-0.512,0-0.707l14.979-14.979
			c0.195-0.195,0.512-0.195,0.707,0s0.195,0.512,0,0.707L11.364,26.343C11.267,26.44,11.139,26.489,11.011,26.489z"/>
	</g>
	<g>
		<path class="st0" d="M27.404,10.096c-0.128,0-0.256-0.049-0.354-0.146c-0.195-0.195-0.195-0.512,0-0.707l1.414-1.414
			c0.195-0.195,0.512-0.195,0.707,0s0.195,0.512,0,0.707L27.757,9.95C27.66,10.047,27.532,10.096,27.404,10.096z"/>
	</g>
	<g>
		<path class="st0" d="M55.818,29.318c-0.128,0-0.256-0.049-0.354-0.146l-1.415-1.414c-0.195-0.195-0.195-0.512,0-0.707
			s0.512-0.195,0.707,0l1.415,1.414c0.195,0.195,0.195,0.512,0,0.707C56.074,29.269,55.946,29.318,55.818,29.318z"/>
	</g>
	<g>
		<path class="st0" d="M52.989,26.489c-0.128,0-0.256-0.049-0.354-0.146L37.657,11.364c-0.195-0.195-0.195-0.512,0-0.707
			s0.512-0.195,0.707,0l14.979,14.979c0.195,0.195,0.195,0.512,0,0.707C53.245,26.44,53.117,26.489,52.989,26.489z"/>
	</g>
	<g>
		<path class="st0" d="M36.597,10.096c-0.128,0-0.256-0.049-0.354-0.146l-1.415-1.414c-0.195-0.195-0.195-0.512,0-0.707
			s0.512-0.195,0.707,0l1.415,1.414c0.195,0.195,0.195,0.512,0,0.707C36.853,10.047,36.725,10.096,36.597,10.096z"/>
	</g>
	<g>
		<path class="st0" d="M28.818,56.318c-0.128,0-0.256-0.049-0.354-0.146l-1.414-1.414c-0.195-0.195-0.195-0.512,0-0.707
			s0.512-0.195,0.707,0l1.414,1.414c0.195,0.195,0.195,0.512,0,0.707C29.074,56.269,28.946,56.318,28.818,56.318z"/>
	</g>
	<g>
		<path class="st0" d="M25.989,53.489c-0.128,0-0.256-0.049-0.354-0.146L10.657,38.364c-0.195-0.195-0.195-0.512,0-0.707
			s0.512-0.195,0.707,0l14.979,14.979c0.195,0.195,0.195,0.512,0,0.707C26.245,53.44,26.117,53.489,25.989,53.489z"/>
	</g>
	<g>
		<path class="st0" d="M9.596,37.096c-0.128,0-0.256-0.049-0.354-0.146l-1.414-1.414c-0.195-0.195-0.195-0.512,0-0.707
			s0.512-0.195,0.707,0l1.414,1.414c0.195,0.195,0.195,0.512,0,0.707C9.852,37.047,9.724,37.096,9.596,37.096z"/>
	</g>
	<g>
		<circle class="st3" cx="32" cy="5" r="2.5"/>
		<path class="st0" d="M32,8c-1.654,0-3-1.346-3-3s1.346-3,3-3s3,1.346,3,3S33.654,8,32,8z M32,3c-1.103,0-2,0.897-2,2s0.897,2,2,2
			c1.103,0,2-0.897,2-2S33.103,3,32,3z"/>
	</g>
	<g>
		<circle class="st3" cx="32" cy="59" r="2.5"/>
		<path class="st0" d="M32,62c-1.654,0-3-1.346-3-3s1.346-3,3-3s3,1.346,3,3S33.654,62,32,62z M32,57c-1.103,0-2,0.897-2,2
			s0.897,2,2,2c1.103,0,2-0.897,2-2S33.103,57,32,57z"/>
	</g>
	<g>
		<circle class="st3" cx="59" cy="32" r="2.5"/>
		<path class="st0" d="M59,35c-1.654,0-3-1.346-3-3s1.346-3,3-3s3,1.346,3,3S60.654,35,59,35z M59,30c-1.103,0-2,0.897-2,2
			s0.897,2,2,2s2-0.897,2-2S60.103,30,59,30z"/>
	</g>
	<g>
		<circle class="st3" cx="5" cy="32" r="2.5"/>
		<path class="st0" d="M5,35c-1.654,0-3-1.346-3-3s1.346-3,3-3s3,1.346,3,3S6.654,35,5,35z M5,30c-1.103,0-2,0.897-2,2s0.897,2,2,2
			s2-0.897,2-2S6.103,30,5,30z"/>
	</g>
	<g>
		<path class="st0" d="M51.092,51.592H12.908c-0.276,0-0.5-0.224-0.5-0.5V12.908c0-0.276,0.224-0.5,0.5-0.5h38.184
			c0.276,0,0.5,0.224,0.5,0.5v38.184C51.592,51.369,51.368,51.592,51.092,51.592z M13.408,50.592h37.184V13.408H13.408V50.592z"/>
	</g>
	<g>
		
			<ellipse transform="matrix(0.7071 -0.7071 0.7071 0.7071 5.837 39.9081)" class="st2" cx="51.092" cy="12.908" rx="2.5" ry="2.5"/>
		<path class="st0" d="M51.092,15.908c-0.801,0-1.555-0.312-2.121-0.879c-0.566-0.566-0.879-1.32-0.879-2.121
			s0.312-1.555,0.879-2.122c1.134-1.133,3.11-1.132,4.242,0c0.566,0.567,0.879,1.32,0.879,2.122s-0.312,1.555-0.879,2.121l0,0l0,0
			l0,0C52.646,15.596,51.894,15.908,51.092,15.908z M51.092,10.908c-0.534,0-1.036,0.208-1.414,0.585
			c-0.378,0.378-0.586,0.88-0.586,1.415s0.208,1.036,0.586,1.414c0.756,0.756,2.072,0.756,2.828,0l0,0
			c0.378-0.378,0.586-0.88,0.586-1.414s-0.208-1.037-0.586-1.415C52.128,11.116,51.626,10.908,51.092,10.908z"/>
	</g>
	<g>
		
			<ellipse transform="matrix(0.7071 -0.7071 0.7071 0.7071 -32.3467 24.0919)" class="st2" cx="12.908" cy="51.092" rx="2.5" ry="2.5"/>
		<path class="st0" d="M12.908,54.09c-0.768,0-1.537-0.292-2.122-0.877c-1.169-1.17-1.169-3.073,0-4.243
			c1.134-1.134,3.11-1.134,4.243,0c0.567,0.566,0.879,1.32,0.879,2.121s-0.312,1.555-0.879,2.122
			C14.445,53.798,13.676,54.09,12.908,54.09z M12.908,49.092c-0.534,0-1.037,0.208-1.415,0.586c-0.78,0.78-0.78,2.049,0,2.829
			c0.78,0.779,2.048,0.779,2.829,0c0.378-0.378,0.586-0.88,0.586-1.415s-0.208-1.036-0.586-1.414S13.442,49.092,12.908,49.092z"/>
	</g>
	<g>
		
			<ellipse transform="matrix(0.7071 -0.7071 0.7071 0.7071 -21.163 51.0919)" class="st2" cx="51.092" cy="51.092" rx="2.5" ry="2.5"/>
		<path class="st0" d="M51.092,54.092c-0.801,0-1.555-0.312-2.121-0.878l0,0c-0.566-0.567-0.879-1.32-0.879-2.122
			s0.312-1.555,0.879-2.121c1.134-1.134,3.11-1.133,4.242,0c0.566,0.566,0.879,1.32,0.879,2.121s-0.312,1.555-0.879,2.122
			C52.646,53.78,51.894,54.092,51.092,54.092z M49.678,52.506c0.756,0.755,2.072,0.755,2.828,0c0.378-0.378,0.586-0.88,0.586-1.415
			s-0.208-1.036-0.586-1.414c-0.756-0.756-2.072-0.756-2.828,0c-0.378,0.378-0.586,0.88-0.586,1.414S49.3,52.128,49.678,52.506z"/>
	</g>
	<g>
		
			<ellipse transform="matrix(0.7071 -0.7071 0.7071 0.7071 -5.3467 12.9081)" class="st2" cx="12.908" cy="12.908" rx="2.5" ry="2.5"/>
		<path class="st0" d="M12.908,15.908c-0.801,0-1.555-0.312-2.122-0.879c-1.169-1.169-1.169-3.073,0-4.243
			c1.17-1.17,3.074-1.17,4.243,0c0.567,0.567,0.879,1.32,0.879,2.122s-0.312,1.555-0.879,2.121
			C14.463,15.596,13.709,15.908,12.908,15.908z M12.908,10.909c-0.512,0-1.024,0.195-1.415,0.584c-0.78,0.78-0.78,2.049,0,2.829
			c0.756,0.756,2.073,0.756,2.829,0c0.378-0.378,0.586-0.88,0.586-1.414s-0.208-1.037-0.586-1.415
			C13.933,11.104,13.42,10.909,12.908,10.909z"/>
	</g>
</g>
</svg>
