<?xml version="1.0" encoding="utf-8"?>
<!-- Generator: Adobe Illustrator 21.1.0, SVG Export Plug-In . SVG Version: 6.00 Build 0)  -->
<svg version="1.1" id="Icon_Set" xmlns="http://www.w3.org/2000/svg" xmlns:xlink="http://www.w3.org/1999/xlink" x="0px" y="0px"
	 viewBox="0 0 64 64" style="enable-background:new 0 0 64 64;" xml:space="preserve">
<style type="text/css">
	.st0{fill:#263238;}
	.st1{fill:#FFD740;}
	.st2{fill:#FF5252;}
	.st3{fill:#40C4FF;}
	.st4{fill:#4DB6AC;}
	.st5{fill:#FFFFFF;}
	.st6{fill:#FFD345;}
</style>
<g>
	<g>
		<path class="st0" d="M45.25,55.25h-27c-1.654,0-3-1.346-3-3v-5c0-1.654,1.346-3,3-3h27c1.654,0,3,1.346,3,3v5
			C48.25,53.904,46.904,55.25,45.25,55.25z M18.25,45.25c-1.103,0-2,0.897-2,2v5c0,1.103,0.897,2,2,2h27c1.103,0,2-0.897,2-2v-5
			c0-1.103-0.897-2-2-2H18.25z"/>
	</g>
	<g>
		<path class="st0" d="M22.75,51.75c-1.103,0-2-0.897-2-2s0.897-2,2-2s2,0.897,2,2S23.853,51.75,22.75,51.75z M22.75,48.75
			c-0.551,0-1,0.448-1,1s0.449,1,1,1s1-0.448,1-1S23.301,48.75,22.75,48.75z"/>
	</g>
	<g>
		<path class="st0" d="M41.75,50.25h-14c-0.276,0-0.5-0.224-0.5-0.5s0.224-0.5,0.5-0.5h14c0.276,0,0.5,0.224,0.5,0.5
			S42.026,50.25,41.75,50.25z"/>
	</g>
	<g>
		<path class="st0" d="M45.25,45.25h-27c-1.654,0-3-1.346-3-3v-5c0-1.654,1.346-3,3-3h27c1.654,0,3,1.346,3,3v5
			C48.25,43.904,46.904,45.25,45.25,45.25z M18.25,35.25c-1.103,0-2,0.897-2,2v5c0,1.103,0.897,2,2,2h27c1.103,0,2-0.897,2-2v-5
			c0-1.103-0.897-2-2-2H18.25z"/>
	</g>
	<g>
		<path class="st0" d="M22.75,41.75c-1.103,0-2-0.897-2-2s0.897-2,2-2s2,0.897,2,2S23.853,41.75,22.75,41.75z M22.75,38.75
			c-0.551,0-1,0.448-1,1s0.449,1,1,1s1-0.448,1-1S23.301,38.75,22.75,38.75z"/>
	</g>
	<g>
		<path class="st0" d="M41.75,40.25h-14c-0.276,0-0.5-0.224-0.5-0.5s0.224-0.5,0.5-0.5h14c0.276,0,0.5,0.224,0.5,0.5
			S42.026,40.25,41.75,40.25z"/>
	</g>
	<g>
		<path class="st0" d="M45.25,35.25h-27c-1.654,0-3-1.346-3-3v-5c0-1.654,1.346-3,3-3h27c1.654,0,3,1.346,3,3v5
			C48.25,33.904,46.904,35.25,45.25,35.25z M18.25,25.25c-1.103,0-2,0.897-2,2v5c0,1.103,0.897,2,2,2h27c1.103,0,2-0.897,2-2v-5
			c0-1.103-0.897-2-2-2H18.25z"/>
	</g>
	<g>
		<path class="st0" d="M22.75,31.75c-1.103,0-2-0.897-2-2s0.897-2,2-2s2,0.897,2,2S23.853,31.75,22.75,31.75z M22.75,28.75
			c-0.551,0-1,0.448-1,1s0.449,1,1,1s1-0.448,1-1S23.301,28.75,22.75,28.75z"/>
	</g>
	<g>
		<path class="st0" d="M41.75,30.25h-14c-0.276,0-0.5-0.224-0.5-0.5s0.224-0.5,0.5-0.5h14c0.276,0,0.5,0.224,0.5,0.5
			S42.026,30.25,41.75,30.25z"/>
	</g>
	<g>
		<path class="st0" d="M45.75,59.25h-28c-0.276,0-0.5-0.224-0.5-0.5v-4c0-0.276,0.224-0.5,0.5-0.5h28c0.276,0,0.5,0.224,0.5,0.5v4
			C46.25,59.026,46.026,59.25,45.75,59.25z M18.25,58.25h27v-3h-27V58.25z"/>
	</g>
	<g>
		<path class="st1" d="M26.75,15.25H15.33c-3.312,0-6.232-2.173-7.184-5.345L6.75,5.25h11.42c3.312,0,6.232,2.173,7.184,5.345
			L26.75,15.25z"/>
		<path class="st0" d="M26.75,15.75H15.33c-3.56,0-6.64-2.291-7.663-5.701L6.271,5.394C6.226,5.242,6.254,5.078,6.349,4.951
			C6.443,4.825,6.592,4.75,6.75,4.75h11.42c3.56,0,6.64,2.291,7.663,5.701l1.396,4.655c0.045,0.151,0.017,0.315-0.078,0.442
			C27.057,15.675,26.908,15.75,26.75,15.75z M7.422,5.75l1.204,4.012c0.895,2.983,3.589,4.988,6.705,4.988h10.748l-1.204-4.012
			C23.979,7.755,21.285,5.75,18.17,5.75H7.422z"/>
	</g>
	<g>
		<path class="st0" d="M31.75,23.25c-0.276,0-0.5-0.224-0.5-0.5v-5c0-3.859-3.14-7-7-7h-7.5c-0.276,0-0.5-0.224-0.5-0.5
			s0.224-0.5,0.5-0.5h7.5c4.411,0,8,3.589,8,8v5C32.25,23.026,32.026,23.25,31.75,23.25z"/>
	</g>
	<g>
		<path class="st1" d="M36.75,15.25h11.42c3.312,0,6.232-2.173,7.184-5.345L56.75,5.25H45.33c-3.312,0-6.232,2.173-7.184,5.345
			L36.75,15.25z"/>
		<path class="st0" d="M48.17,15.75H36.75c-0.158,0-0.307-0.075-0.401-0.201c-0.094-0.127-0.123-0.291-0.077-0.442l1.396-4.655
			c1.023-3.41,4.103-5.701,7.662-5.701h11.42c0.158,0,0.307,0.075,0.401,0.201c0.094,0.127,0.123,0.291,0.077,0.442l-1.396,4.655
			C54.809,13.459,51.729,15.75,48.17,15.75z M37.422,14.75H48.17c3.114,0,5.809-2.005,6.705-4.988l1.203-4.012H45.33
			c-3.114,0-5.809,2.005-6.705,4.988L37.422,14.75z"/>
	</g>
	<g>
		<path class="st0" d="M31.75,23.25c-0.276,0-0.5-0.224-0.5-0.5v-5c0-4.411,3.589-8,8-8h7.5c0.276,0,0.5,0.224,0.5,0.5
			s-0.224,0.5-0.5,0.5h-7.5c-3.859,0-7,3.141-7,7v5C32.25,23.026,32.026,23.25,31.75,23.25z"/>
	</g>
	<g>
		<path class="st0" d="M15.25,59.25h-1c-0.276,0-0.5-0.224-0.5-0.5s0.224-0.5,0.5-0.5h1c0.276,0,0.5,0.224,0.5,0.5
			S15.526,59.25,15.25,59.25z"/>
	</g>
	<g>
		<path class="st0" d="M12.25,59.25h-11c-0.276,0-0.5-0.224-0.5-0.5s0.224-0.5,0.5-0.5h11c0.276,0,0.5,0.224,0.5,0.5
			S12.526,59.25,12.25,59.25z"/>
	</g>
	<g>
		<path class="st0" d="M49.75,59.25h-1c-0.276,0-0.5-0.224-0.5-0.5s0.224-0.5,0.5-0.5h1c0.276,0,0.5,0.224,0.5,0.5
			S50.026,59.25,49.75,59.25z"/>
	</g>
	<g>
		<path class="st0" d="M62.75,59.25h-11c-0.276,0-0.5-0.224-0.5-0.5s0.224-0.5,0.5-0.5h11c0.276,0,0.5,0.224,0.5,0.5
			S63.026,59.25,62.75,59.25z"/>
	</g>
	<g>
		<path class="st0" d="M61.75,21.841h-4c-0.276,0-0.5-0.224-0.5-0.5s0.224-0.5,0.5-0.5h4c0.276,0,0.5,0.224,0.5,0.5
			S62.026,21.841,61.75,21.841z"/>
	</g>
	<g>
		<path class="st0" d="M59.75,23.841c-0.276,0-0.5-0.224-0.5-0.5v-4c0-0.276,0.224-0.5,0.5-0.5s0.5,0.224,0.5,0.5v4
			C60.25,23.617,60.026,23.841,59.75,23.841z"/>
	</g>
	<g>
		<path class="st0" d="M57.75,28.341h-4c-0.276,0-0.5-0.224-0.5-0.5s0.224-0.5,0.5-0.5h4c0.276,0,0.5,0.224,0.5,0.5
			S58.026,28.341,57.75,28.341z"/>
	</g>
	<g>
		<path class="st0" d="M55.75,30.341c-0.276,0-0.5-0.224-0.5-0.5v-4c0-0.276,0.224-0.5,0.5-0.5s0.5,0.224,0.5,0.5v4
			C56.25,30.117,56.026,30.341,55.75,30.341z"/>
	</g>
</g>
</svg>
