<?xml version="1.0" encoding="utf-8"?>
<!-- Generator: Adobe Illustrator 21.1.0, SVG Export Plug-In . SVG Version: 6.00 Build 0)  -->
<svg version="1.1" id="Icon_Set" xmlns="http://www.w3.org/2000/svg" xmlns:xlink="http://www.w3.org/1999/xlink" x="0px" y="0px"
	 viewBox="0 0 64 64" style="enable-background:new 0 0 64 64;" xml:space="preserve">
<style type="text/css">
	.st0{fill:#263238;}
	.st1{fill:#FFD740;}
	.st2{fill:#FF5252;}
	.st3{fill:#40C4FF;}
	.st4{fill:#4DB6AC;}
	.st5{fill:#FFFFFF;}
	.st6{fill:#FFD345;}
</style>
<g>
	<g>
		<path class="st0" d="M31.973,42c-0.276,0-0.5-0.224-0.5-0.5V36c0-0.276,0.224-0.5,0.5-0.5s0.5,0.224,0.5,0.5v5.5
			C32.473,41.776,32.25,42,31.973,42z"/>
	</g>
	<g>
		<path class="st0" d="M54.965,42c-0.276,0-0.5-0.224-0.5-0.5v-3c0-1.103-0.897-2-2-2H11.469c-1.103,0-2,0.897-2,2v3
			c0,0.276-0.224,0.5-0.5,0.5s-0.5-0.224-0.5-0.5v-3c0-1.654,1.346-3,3-3h40.996c1.654,0,3,1.346,3,3v3
			C55.465,41.776,55.241,42,54.965,42z"/>
	</g>
	<g>
		<path class="st0" d="M31.961,14.5c-3.584,0-6.5-2.916-6.5-6.5s2.916-6.5,6.5-6.5c3.584,0,6.5,2.916,6.5,6.5
			S35.546,14.5,31.961,14.5z M31.961,2.5c-3.033,0-5.5,2.467-5.5,5.5s2.467,5.5,5.5,5.5s5.5-2.467,5.5-5.5S34.994,2.5,31.961,2.5z"
			/>
	</g>
	<g>
		<path class="st0" d="M26.528,8.5h-0.566c-0.276,0-0.5-0.224-0.5-0.5c0-3.584,2.916-6.5,6.5-6.5c1.932,0,3.751,0.852,4.992,2.338
			c0.085,0.102,0.126,0.233,0.114,0.366c-0.012,0.132-0.076,0.254-0.179,0.339l-0.447,0.372C33.663,7.227,30.143,8.5,26.528,8.5z
			 M26.484,7.5h0.044c3.381,0,6.675-1.191,9.275-3.354l0,0l0.045-0.038C34.818,3.081,33.428,2.5,31.961,2.5
			C29.097,2.5,26.737,4.701,26.484,7.5z"/>
	</g>
	<g>
		<path class="st0" d="M41.964,29c-0.276,0-0.5-0.224-0.5-0.5v-6.91c0-1.715-0.953-3.257-2.487-4.025l-4.245-2.123
			c-0.247-0.124-0.347-0.424-0.224-0.671c0.125-0.247,0.423-0.345,0.671-0.224l4.245,2.123c1.875,0.938,3.04,2.823,3.04,4.919v6.91
			C42.464,28.776,42.24,29,41.964,29z"/>
	</g>
	<g>
		<path class="st0" d="M21.959,29c-0.276,0-0.5-0.224-0.5-0.5v-6.908c0-2.098,1.166-3.983,3.042-4.92l4.231-2.113
			c0.247-0.123,0.548-0.023,0.671,0.224c0.124,0.247,0.023,0.547-0.224,0.671l-4.231,2.113c-1.536,0.767-2.489,2.31-2.489,4.026
			V28.5C22.459,28.776,22.235,29,21.959,29z"/>
	</g>
	<g>
		<path class="st0" d="M48.832,62.013c-0.668,0-1.296-0.26-1.768-0.732c-0.975-0.975-0.975-2.561,0-3.536l7.444-7.445
			c-0.288-1.467,0.166-2.994,1.218-4.045c1.3-1.302,3.235-1.675,4.935-0.958c0.152,0.065,0.264,0.202,0.296,0.365
			c0.031,0.163-0.021,0.332-0.138,0.449l-2.618,2.619l1.414,1.415l2.619-2.619c0.118-0.118,0.288-0.167,0.449-0.137
			c0.163,0.032,0.3,0.143,0.365,0.296c0.717,1.698,0.341,3.635-0.959,4.935c-1.051,1.052-2.58,1.505-4.046,1.217L50.6,61.281
			C50.127,61.753,49.499,62.013,48.832,62.013z M58.897,45.938c-0.907,0-1.794,0.354-2.464,1.024
			c-0.883,0.882-1.217,2.142-0.893,3.369c0.046,0.172-0.004,0.355-0.13,0.481l-7.64,7.64c-0.585,0.585-0.585,1.537,0,2.122
			c0.565,0.565,1.554,0.567,2.121,0l7.64-7.64c0.126-0.126,0.308-0.175,0.481-0.13c1.225,0.323,2.486-0.009,3.369-0.892l0,0
			c0.823-0.823,1.17-1.976,0.968-3.089l-2.382,2.382c-0.094,0.094-0.221,0.146-0.354,0.146l0,0c-0.133,0-0.26-0.053-0.354-0.146
			l-2.121-2.122c-0.195-0.195-0.195-0.512,0-0.707l2.382-2.382C59.314,45.957,59.105,45.938,58.897,45.938z"/>
	</g>
	<g>
		<path class="st0" d="M48.832,60.014c-0.128,0-0.256-0.049-0.354-0.146c-0.195-0.195-0.195-0.512,0-0.707l1.414-1.415
			c0.195-0.195,0.512-0.195,0.707,0s0.195,0.512,0,0.707l-1.414,1.415C49.088,59.965,48.96,60.014,48.832,60.014z"/>
	</g>
	<g>
		
			<rect x="58.318" y="55.427" transform="matrix(0.7071 -0.7071 0.7071 0.7071 -23.7938 59.4104)" class="st2" width="3" height="6"/>
		<path class="st0" d="M60.879,62.109c-0.133,0-0.26-0.053-0.354-0.146l-4.243-4.243c-0.094-0.094-0.146-0.221-0.146-0.354
			s0.053-0.26,0.146-0.354l2.121-2.121c0.195-0.195,0.512-0.195,0.707,0l4.243,4.242c0.195,0.195,0.195,0.512,0,0.707l-2.121,2.122
			C61.139,62.056,61.012,62.109,60.879,62.109z M57.343,57.366l3.536,3.536l1.414-1.415l-3.536-3.535L57.343,57.366z"/>
	</g>
	<g>
		<path class="st0" d="M52.04,51.149c-0.128,0-0.256-0.049-0.354-0.146l-4.597-4.596c-0.195-0.195-0.195-0.512,0-0.707
			s0.512-0.195,0.707,0l4.597,4.596c0.195,0.195,0.195,0.512,0,0.707C52.296,51.1,52.168,51.149,52.04,51.149z"/>
	</g>
	<g>
		<path class="st1" d="M15,62H3c-1.105,0-2-0.895-2-2V48c0-1.105,0.895-2,2-2h12c1.105,0,2,0.895,2,2v12C17,61.104,16.105,62,15,62z
			"/>
		<path class="st0" d="M15,62.5H3c-1.378,0-2.5-1.122-2.5-2.5V48c0-1.378,1.122-2.5,2.5-2.5h12c1.378,0,2.5,1.122,2.5,2.5v12
			C17.5,61.378,16.378,62.5,15,62.5z M3,46.5c-0.827,0-1.5,0.673-1.5,1.5v12c0,0.827,0.673,1.5,1.5,1.5h12
			c0.827,0,1.5-0.673,1.5-1.5V48c0-0.827-0.673-1.5-1.5-1.5H3z"/>
	</g>
	<g>
		<path class="st0" d="M17,49.5H1c-0.276,0-0.5-0.224-0.5-0.5s0.224-0.5,0.5-0.5h16c0.276,0,0.5,0.224,0.5,0.5S17.276,49.5,17,49.5z
			"/>
	</g>
	<g>
		<path class="st0" d="M6.25,58.257c-0.128,0-0.256-0.049-0.354-0.146l-2.5-2.5c-0.195-0.195-0.195-0.512,0-0.707l2.5-2.5
			c0.195-0.195,0.512-0.195,0.707,0s0.195,0.512,0,0.707l-2.146,2.146l2.146,2.146c0.195,0.195,0.195,0.512,0,0.707
			C6.506,58.208,6.378,58.257,6.25,58.257z"/>
	</g>
	<g>
		<path class="st0" d="M11.75,58.257c-0.128,0-0.256-0.049-0.354-0.146c-0.195-0.195-0.195-0.512,0-0.707l2.146-2.146l-2.146-2.146
			c-0.195-0.195-0.195-0.512,0-0.707s0.512-0.195,0.707,0l2.5,2.5c0.195,0.195,0.195,0.512,0,0.707l-2.5,2.5
			C12.006,58.208,11.878,58.257,11.75,58.257z"/>
	</g>
	<g>
		<path class="st0" d="M7.75,58.757c-0.064,0-0.129-0.012-0.192-0.039c-0.255-0.106-0.375-0.399-0.269-0.654l2.5-6
			c0.106-0.255,0.401-0.374,0.654-0.269c0.255,0.106,0.375,0.399,0.269,0.654l-2.5,6C8.131,58.642,7.946,58.757,7.75,58.757z"/>
	</g>
	<g>
		<path class="st0" d="M39.452,33.5h-15c-0.276,0-0.5-0.224-0.5-0.5V23c0-0.276,0.224-0.5,0.5-0.5h15c0.276,0,0.5,0.224,0.5,0.5v10
			C39.952,33.276,39.729,33.5,39.452,33.5z M24.952,32.5h14v-9h-14V32.5z"/>
	</g>
	<g>
		<path class="st0" d="M33.191,21.5c-0.264,0-0.484-0.206-0.499-0.472l-0.192-3.46h-1.054l-0.192,3.46
			c-0.016,0.275-0.252,0.482-0.527,0.471c-0.275-0.015-0.487-0.251-0.471-0.527l0.218-3.932c0.015-0.265,0.234-0.472,0.499-0.472h2
			c0.265,0,0.485,0.208,0.5,0.472l0.218,3.932c0.016,0.276-0.195,0.512-0.472,0.527C33.21,21.5,33.2,21.5,33.191,21.5z"/>
	</g>
	<g>
		<path class="st0" d="M30.961,17.789h-0.026c-0.145,0-0.283-0.063-0.378-0.172l-1.981-2.284c-0.079-0.091-0.122-0.207-0.122-0.327
			l-0.001-1.82c0-0.179,0.095-0.344,0.25-0.434c0.156-0.089,0.347-0.089,0.501,0.001c1.676,0.975,3.824,0.978,5.499,0.011
			c0.154-0.089,0.346-0.089,0.5,0c0.154,0.089,0.25,0.254,0.25,0.433l0.001,1.798c0,0.12-0.043,0.236-0.121,0.327l-1.969,2.281
			c-0.133,0.155-0.348,0.212-0.54,0.146c-0.101-0.034-0.186-0.099-0.245-0.182h-1.203C31.286,17.702,31.133,17.789,30.961,17.789z
			 M30.961,17.289h0.01H30.961z M29.453,14.818l1.518,1.75c0.001,0,0.001,0,0.002,0h1.962l1.518-1.758L34.452,14
			c-1.582,0.658-3.417,0.657-5-0.008L29.453,14.818z"/>
	</g>
	<g>
		<path class="st0" d="M41.964,33.5H21.959c-0.276,0-0.5-0.224-0.5-0.5s0.224-0.5,0.5-0.5h20.005c0.276,0,0.5,0.224,0.5,0.5
			S42.24,33.5,41.964,33.5z"/>
	</g>
	<g>
		<path class="st0" d="M3.464,14.032h-1c-0.276,0-0.5-0.224-0.5-0.5s0.224-0.5,0.5-0.5h1c0.276,0,0.5,0.224,0.5,0.5
			S3.741,14.032,3.464,14.032z"/>
	</g>
	<g>
		<path class="st0" d="M16.464,14.032h-11c-0.276,0-0.5-0.224-0.5-0.5s0.224-0.5,0.5-0.5h11c0.276,0,0.5,0.224,0.5,0.5
			S16.741,14.032,16.464,14.032z"/>
	</g>
	<g>
		<path class="st0" d="M61.465,14.032h-1c-0.276,0-0.5-0.224-0.5-0.5s0.224-0.5,0.5-0.5h1c0.276,0,0.5,0.224,0.5,0.5
			S61.741,14.032,61.465,14.032z"/>
	</g>
	<g>
		<path class="st0" d="M58.465,14.032h-11c-0.276,0-0.5-0.224-0.5-0.5s0.224-0.5,0.5-0.5h11c0.276,0,0.5,0.224,0.5,0.5
			S58.741,14.032,58.465,14.032z"/>
	</g>
	<g>
		<path class="st0" d="M31.973,30c-1.103,0-2-0.897-2-2s0.897-2,2-2s2,0.897,2,2S33.076,30,31.973,30z M31.973,27
			c-0.551,0-1,0.449-1,1s0.449,1,1,1c0.552,0,1-0.449,1-1S32.525,27,31.973,27z"/>
	</g>
	<g>
		<path class="st3" d="M38.663,55.475c0.106-0.475,0.166-0.968,0.166-1.475s-0.06-1-0.166-1.475l0.276-0.158l0.691-0.602
			c0.361-0.315,0.448-0.841,0.207-1.254l-0.888-1.526c-0.239-0.411-0.736-0.598-1.188-0.446l-0.879,0.295l-0.28,0.161
			c-0.731-0.665-1.602-1.18-2.572-1.482V47.2l-0.181-0.897c-0.094-0.467-0.506-0.803-0.984-0.803h-1.784
			c-0.478,0-0.89,0.336-0.984,0.803L29.916,47.2v0.312c-0.969,0.302-1.841,0.817-2.572,1.482l-0.281-0.161l-0.879-0.295
			c-0.452-0.152-0.949,0.035-1.188,0.446l-0.888,1.526c-0.241,0.414-0.154,0.94,0.207,1.254l0.691,0.602l0.276,0.158
			C25.177,53,25.117,53.493,25.117,54s0.06,1,0.166,1.475l-0.277,0.158l-0.691,0.602c-0.361,0.315-0.448,0.841-0.207,1.254
			l0.888,1.526c0.239,0.411,0.736,0.598,1.188,0.446l0.879-0.295l0.281-0.161c0.731,0.665,1.602,1.18,2.572,1.482V60.8l0.181,0.897
			c0.094,0.467,0.506,0.803,0.984,0.803h1.784c0.478,0,0.89-0.336,0.984-0.803L34.03,60.8v-0.313
			c0.969-0.302,1.841-0.817,2.572-1.482l0.281,0.161l0.879,0.295c0.452,0.152,0.949-0.035,1.188-0.446l0.888-1.526
			c0.241-0.414,0.154-0.94-0.207-1.254l-0.691-0.602L38.663,55.475z M32,57.5c-1.933,0-3.5-1.567-3.5-3.5s1.567-3.5,3.5-3.5
			s3.5,1.567,3.5,3.5S33.933,57.5,32,57.5z"/>
		<path class="st0" d="M32.865,63h-1.784c-0.713,0-1.333-0.506-1.474-1.205l-0.182-0.946c-0.778-0.286-1.497-0.7-2.146-1.237
			l-0.936,0.324c-0.674,0.225-1.421-0.055-1.78-0.668l-0.888-1.526c-0.361-0.619-0.23-1.411,0.311-1.883l0.737-0.63
			c-0.071-0.412-0.107-0.824-0.107-1.229c0-0.405,0.036-0.817,0.107-1.229l-0.737-0.63c-0.541-0.471-0.671-1.263-0.311-1.883
			l0.888-1.525c0.358-0.613,1.106-0.893,1.779-0.669l0.935,0.325c0.649-0.538,1.369-0.953,2.147-1.239l0.181-0.946
			C29.748,45.506,30.368,45,31.081,45h1.784c0.713,0,1.333,0.506,1.475,1.203l0.182,0.948c0.777,0.285,1.496,0.7,2.145,1.237
			l0.937-0.324c0.674-0.226,1.422,0.056,1.779,0.669l0.888,1.525c0.36,0.62,0.229,1.412-0.312,1.883l-0.736,0.63
			c0.071,0.411,0.107,0.822,0.107,1.229c0,0.406-0.036,0.818-0.107,1.229l0.737,0.63c0.54,0.471,0.671,1.263,0.312,1.882
			l-0.89,1.526c-0.356,0.614-1.104,0.895-1.778,0.668l-0.935-0.325c-0.649,0.538-1.369,0.954-2.147,1.239l-0.181,0.946
			C34.198,62.494,33.578,63,32.865,63z M27.345,58.506c0.122,0,0.242,0.044,0.336,0.13c0.7,0.637,1.502,1.099,2.384,1.374
			c0.209,0.065,0.351,0.259,0.351,0.478V60.8l0.171,0.798C30.634,61.831,30.842,62,31.081,62h1.784c0.239,0,0.447-0.169,0.494-0.402
			l0.181-0.896l-0.01-0.214c0-0.219,0.143-0.412,0.352-0.478c0.882-0.274,1.684-0.737,2.383-1.374
			c0.161-0.146,0.398-0.172,0.585-0.064l0.281,0.161l0.79,0.255c0.225,0.073,0.477-0.018,0.596-0.223l0.89-1.526
			c0.119-0.206,0.075-0.469-0.104-0.626l-0.69-0.602l-0.196-0.101c-0.19-0.109-0.288-0.329-0.24-0.543
			c0.103-0.456,0.154-0.916,0.154-1.366c0-0.45-0.052-0.91-0.154-1.366c-0.048-0.214,0.05-0.435,0.24-0.543l0.276-0.158l0.609-0.545
			c0.181-0.157,0.225-0.42,0.104-0.626l-0.888-1.525c-0.119-0.205-0.372-0.299-0.597-0.224l-0.879,0.295l-0.192,0.121
			c-0.189,0.107-0.426,0.082-0.585-0.064c-0.699-0.637-1.502-1.1-2.383-1.374c-0.209-0.065-0.352-0.259-0.352-0.478V47.2
			l-0.171-0.798C33.312,46.169,33.104,46,32.865,46h-1.784c-0.239,0-0.447,0.169-0.494,0.402l-0.181,0.896l0.01,0.214
			c0,0.219-0.143,0.413-0.352,0.478c-0.882,0.274-1.684,0.736-2.384,1.374c-0.16,0.147-0.396,0.173-0.585,0.064l-0.281-0.161
			l-0.79-0.255c-0.227-0.077-0.478,0.018-0.597,0.224l-0.888,1.525c-0.12,0.206-0.076,0.469,0.104,0.626l0.691,0.603l0.196,0.102
			c0.19,0.109,0.287,0.329,0.239,0.542c-0.102,0.458-0.154,0.918-0.154,1.366c0,0.448,0.052,0.908,0.154,1.366
			c0.048,0.214-0.049,0.434-0.239,0.543l-0.276,0.158l-0.611,0.545c-0.18,0.157-0.224,0.42-0.104,0.625l0.888,1.526
			c0.12,0.205,0.369,0.301,0.597,0.223l0.878-0.295l0.192-0.121C27.174,58.527,27.26,58.506,27.345,58.506z M32,58
			c-2.206,0-4-1.794-4-4s1.794-4,4-4s4,1.794,4,4S34.206,58,32,58z M32,51c-1.654,0-3,1.346-3,3s1.346,3,3,3c1.654,0,3-1.346,3-3
			S33.654,51,32,51z"/>
	</g>
</g>
</svg>
