<?xml version="1.0" encoding="utf-8"?>
<!-- Generator: Adobe Illustrator 21.1.0, SVG Export Plug-In . SVG Version: 6.00 Build 0)  -->
<svg version="1.1" id="Icon_Set" xmlns="http://www.w3.org/2000/svg" xmlns:xlink="http://www.w3.org/1999/xlink" x="0px" y="0px"
	 viewBox="0 0 64 64" style="enable-background:new 0 0 64 64;" xml:space="preserve">
<style type="text/css">
	.st0{fill:#263238;}
	.st1{fill:#FFD740;}
	.st2{fill:#FF5252;}
	.st3{fill:#40C4FF;}
	.st4{fill:#4DB6AC;}
	.st5{fill:#FFFFFF;}
	.st6{fill:#FFD345;}
</style>
<g>
	<g>
		<rect x="4" y="19.75" class="st1" width="54" height="30"/>
	</g>
	<g>
		<path class="st0" d="M60,59.25H4c-0.276,0-0.5-0.224-0.5-0.5v-51c0-0.276,0.224-0.5,0.5-0.5s0.5,0.224,0.5,0.5v50.5H60
			c0.276,0,0.5,0.224,0.5,0.5S60.276,59.25,60,59.25z"/>
	</g>
	<g>
		<path class="st0" d="M28.032,4.25h-4c-0.276,0-0.5-0.224-0.5-0.5s0.224-0.5,0.5-0.5h4c0.276,0,0.5,0.224,0.5,0.5
			S28.308,4.25,28.032,4.25z"/>
	</g>
	<g>
		<path class="st0" d="M26.032,6.25c-0.276,0-0.5-0.224-0.5-0.5v-4c0-0.276,0.224-0.5,0.5-0.5s0.5,0.224,0.5,0.5v4
			C26.532,6.026,26.308,6.25,26.032,6.25z"/>
	</g>
	<g>
		<path class="st0" d="M19.032,12.25h-4c-0.276,0-0.5-0.224-0.5-0.5s0.224-0.5,0.5-0.5h4c0.276,0,0.5,0.224,0.5,0.5
			S19.308,12.25,19.032,12.25z"/>
	</g>
	<g>
		<path class="st0" d="M17.032,14.25c-0.276,0-0.5-0.224-0.5-0.5v-4c0-0.276,0.224-0.5,0.5-0.5s0.5,0.224,0.5,0.5v4
			C17.532,14.026,17.308,14.25,17.032,14.25z"/>
	</g>
	<g>
		<path class="st0" d="M53,13.75h-1c-0.276,0-0.5-0.224-0.5-0.5s0.224-0.5,0.5-0.5h1c0.276,0,0.5,0.224,0.5,0.5
			S53.276,13.75,53,13.75z"/>
	</g>
	<g>
		<path class="st0" d="M50,13.75H39c-0.276,0-0.5-0.224-0.5-0.5s0.224-0.5,0.5-0.5h11c0.276,0,0.5,0.224,0.5,0.5
			S50.276,13.75,50,13.75z"/>
	</g>
	<g>
		<path class="st0" d="M46,10.75h-1c-0.276,0-0.5-0.224-0.5-0.5s0.224-0.5,0.5-0.5h1c0.276,0,0.5,0.224,0.5,0.5
			S46.276,10.75,46,10.75z"/>
	</g>
	<g>
		<path class="st0" d="M59,10.75H48c-0.276,0-0.5-0.224-0.5-0.5s0.224-0.5,0.5-0.5h11c0.276,0,0.5,0.224,0.5,0.5
			S59.276,10.75,59,10.75z"/>
	</g>
	<g>
		<path class="st0" d="M14.5,43c-0.092,0-0.184-0.025-0.265-0.076l-8-5c-0.234-0.146-0.305-0.455-0.159-0.689
			s0.455-0.306,0.689-0.159l7.771,4.856l12.755-5.887c0.123-0.056,0.262-0.061,0.389-0.013l12.64,4.862l11.274-15.687
			c0.161-0.225,0.474-0.275,0.698-0.114c0.224,0.162,0.275,0.474,0.114,0.698l-11.5,16c-0.134,0.185-0.376,0.255-0.586,0.175
			l-12.803-4.924l-12.808,5.912C14.643,42.985,14.571,43,14.5,43z"/>
	</g>
	<g>
		<circle class="st5" cx="40.5" cy="41.5" r="2.5"/>
		<path class="st0" d="M40.5,44.5c-1.654,0-3-1.346-3-3s1.346-3,3-3s3,1.346,3,3S42.154,44.5,40.5,44.5z M40.5,39.5
			c-1.103,0-2,0.897-2,2s0.897,2,2,2s2-0.897,2-2S41.603,39.5,40.5,39.5z"/>
	</g>
	<g>
		<circle class="st5" cx="14.5" cy="42.5" r="2.5"/>
		<path class="st0" d="M14.5,45.5c-1.654,0-3-1.346-3-3s1.346-3,3-3s3,1.346,3,3S16.154,45.5,14.5,45.5z M14.5,40.5
			c-1.103,0-2,0.897-2,2s0.897,2,2,2s2-0.897,2-2S15.603,40.5,14.5,40.5z"/>
	</g>
	<g>
		<circle class="st2" cx="52" cy="25.5" r="2.5"/>
		<path class="st0" d="M52,28.5c-1.654,0-3-1.346-3-3s1.346-3,3-3s3,1.346,3,3S53.654,28.5,52,28.5z M52,23.5c-1.103,0-2,0.897-2,2
			s0.897,2,2,2s2-0.897,2-2S53.103,23.5,52,23.5z"/>
	</g>
	<g>
		<circle class="st5" cx="27.5" cy="36.5" r="2.5"/>
		<path class="st0" d="M27.5,39.5c-1.654,0-3-1.346-3-3s1.346-3,3-3s3,1.346,3,3S29.154,39.5,27.5,39.5z M27.5,34.5
			c-1.103,0-2,0.897-2,2s0.897,2,2,2s2-0.897,2-2S28.603,34.5,27.5,34.5z"/>
	</g>
	<g>
		<path class="st0" d="M12,61.75c-0.276,0-0.5-0.224-0.5-0.5v-2.5c0-0.276,0.224-0.5,0.5-0.5s0.5,0.224,0.5,0.5v2.5
			C12.5,61.526,12.276,61.75,12,61.75z"/>
	</g>
	<g>
		<path class="st0" d="M22,61.75c-0.276,0-0.5-0.224-0.5-0.5v-2.5c0-0.276,0.224-0.5,0.5-0.5s0.5,0.224,0.5,0.5v2.5
			C22.5,61.526,22.276,61.75,22,61.75z"/>
	</g>
	<g>
		<path class="st0" d="M32,61.75c-0.276,0-0.5-0.224-0.5-0.5v-2.5c0-0.276,0.224-0.5,0.5-0.5s0.5,0.224,0.5,0.5v2.5
			C32.5,61.526,32.276,61.75,32,61.75z"/>
	</g>
	<g>
		<path class="st0" d="M42,61.75c-0.276,0-0.5-0.224-0.5-0.5v-2.5c0-0.276,0.224-0.5,0.5-0.5s0.5,0.224,0.5,0.5v2.5
			C42.5,61.526,42.276,61.75,42,61.75z"/>
	</g>
	<g>
		<path class="st0" d="M52,61.75c-0.276,0-0.5-0.224-0.5-0.5v-2.5c0-0.276,0.224-0.5,0.5-0.5s0.5,0.224,0.5,0.5v2.5
			C52.5,61.526,52.276,61.75,52,61.75z"/>
	</g>
</g>
</svg>
