<?xml version="1.0" encoding="utf-8"?>
<!-- Generator: Adobe Illustrator 21.1.0, SVG Export Plug-In . SVG Version: 6.00 Build 0)  -->
<svg version="1.1" id="Icon_Set" xmlns="http://www.w3.org/2000/svg" xmlns:xlink="http://www.w3.org/1999/xlink" x="0px" y="0px"
	 viewBox="0 0 64 64" style="enable-background:new 0 0 64 64;" xml:space="preserve">
<style type="text/css">
	.st0{fill:#263238;}
	.st1{fill:#FFD740;}
	.st2{fill:#FF5252;}
	.st3{fill:#40C4FF;}
	.st4{fill:#4DB6AC;}
	.st5{fill:#FFFFFF;}
	.st6{fill:#FFD345;}
</style>
<g>
	<g>
		<path class="st0" d="M44,30.75H20c-0.276,0-0.5-0.224-0.5-0.5s0.224-0.5,0.5-0.5h24c0.276,0,0.5,0.224,0.5,0.5
			S44.276,30.75,44,30.75z"/>
	</g>
	<g>
		<path class="st0" d="M41,35.75H20c-0.276,0-0.5-0.224-0.5-0.5s0.224-0.5,0.5-0.5h21c0.276,0,0.5,0.224,0.5,0.5
			S41.276,35.75,41,35.75z"/>
	</g>
	<g>
		<path class="st0" d="M41,40.75H20c-0.276,0-0.5-0.224-0.5-0.5s0.224-0.5,0.5-0.5h21c0.276,0,0.5,0.224,0.5,0.5
			S41.276,40.75,41,40.75z"/>
	</g>
	<g>
		<path class="st0" d="M41,45.75H20c-0.276,0-0.5-0.224-0.5-0.5s0.224-0.5,0.5-0.5h21c0.276,0,0.5,0.224,0.5,0.5
			S41.276,45.75,41,45.75z"/>
	</g>
	<g>
		<path class="st0" d="M29,50.75h-9c-0.276,0-0.5-0.224-0.5-0.5s0.224-0.5,0.5-0.5h9c0.276,0,0.5,0.224,0.5,0.5
			S29.276,50.75,29,50.75z"/>
	</g>
	<g>
		<rect x="14" y="10.25" class="st2" width="5" height="5"/>
		<path class="st0" d="M19,15.75h-5c-0.276,0-0.5-0.224-0.5-0.5v-5c0-0.276,0.224-0.5,0.5-0.5h5c0.276,0,0.5,0.224,0.5,0.5v5
			C19.5,15.526,19.276,15.75,19,15.75z M14.5,14.75h4v-4h-4V14.75z"/>
	</g>
	<g>
		<rect x="21.5" y="15.75" class="st2" width="5" height="5"/>
		<path class="st0" d="M26.5,21.25h-5c-0.276,0-0.5-0.224-0.5-0.5v-5c0-0.276,0.224-0.5,0.5-0.5h5c0.276,0,0.5,0.224,0.5,0.5v5
			C27,21.026,26.776,21.25,26.5,21.25z M22,20.25h4v-4h-4V20.25z"/>
	</g>
	<g>
		<rect x="24" y="7.75" class="st1" width="5" height="5"/>
		<path class="st0" d="M29,13.25h-5c-0.276,0-0.5-0.224-0.5-0.5v-5c0-0.276,0.224-0.5,0.5-0.5h5c0.276,0,0.5,0.224,0.5,0.5v5
			C29.5,13.026,29.276,13.25,29,13.25z M24.5,12.25h4v-4h-4V12.25z"/>
	</g>
	<g>
		<rect x="31.5" y="5.25" class="st1" width="5" height="5"/>
		<path class="st0" d="M36.5,10.75h-5c-0.276,0-0.5-0.224-0.5-0.5v-5c0-0.276,0.224-0.5,0.5-0.5h5c0.276,0,0.5,0.224,0.5,0.5v5
			C37,10.526,36.776,10.75,36.5,10.75z M32,9.75h4v-4h-4V9.75z"/>
	</g>
	<g>
		<rect x="35.5" y="12.25" class="st3" width="7" height="7"/>
		<path class="st0" d="M42.5,19.75h-7c-0.276,0-0.5-0.224-0.5-0.5v-7c0-0.276,0.224-0.5,0.5-0.5h7c0.276,0,0.5,0.224,0.5,0.5v7
			C43,19.526,42.776,19.75,42.5,19.75z M36,18.75h6v-6h-6V18.75z"/>
	</g>
	<g>
		<rect x="45" y="9.25" class="st3" width="7" height="7"/>
		<path class="st0" d="M52,16.75h-7c-0.276,0-0.5-0.224-0.5-0.5v-7c0-0.276,0.224-0.5,0.5-0.5h7c0.276,0,0.5,0.224,0.5,0.5v7
			C52.5,16.526,52.276,16.75,52,16.75z M45.5,15.75h6v-6h-6V15.75z"/>
	</g>
	<g>
		<path class="st0" d="M49.5,59.25h-35c-1.654,0-3-1.346-3-3v-38.5c0-0.276,0.224-0.5,0.5-0.5h7c0.276,0,0.5,0.224,0.5,0.5v5h9v-5
			c0-0.276,0.224-0.5,0.5-0.5h4c0.276,0,0.5,0.224,0.5,0.5v3.5h11v-2.5c0-0.276,0.224-0.5,0.5-0.5h7c0.276,0,0.5,0.224,0.5,0.5v37.5
			C52.5,57.904,51.154,59.25,49.5,59.25z M12.5,18.25v38c0,1.103,0.897,2,2,2h35c1.103,0,2-0.897,2-2v-37h-6v2.5
			c0,0.276-0.224,0.5-0.5,0.5H33c-0.276,0-0.5-0.224-0.5-0.5v-3.5h-3v5c0,0.276-0.224,0.5-0.5,0.5H19c-0.276,0-0.5-0.224-0.5-0.5v-5
			H12.5z"/>
	</g>
	<g>
		<path class="st0" d="M56,28.75c-0.276,0-0.5-0.224-0.5-0.5v-2c0-0.276,0.224-0.5,0.5-0.5s0.5,0.224,0.5,0.5v2
			C56.5,28.526,56.276,28.75,56,28.75z"/>
	</g>
	<g>
		<path class="st0" d="M56,50.75c-0.276,0-0.5-0.224-0.5-0.5v-20c0-0.276,0.224-0.5,0.5-0.5s0.5,0.224,0.5,0.5v20
			C56.5,50.526,56.276,50.75,56,50.75z"/>
	</g>
	<g>
		<path class="st0" d="M8,50.75c-0.276,0-0.5-0.224-0.5-0.5v-2c0-0.276,0.224-0.5,0.5-0.5s0.5,0.224,0.5,0.5v2
			C8.5,50.526,8.276,50.75,8,50.75z"/>
	</g>
	<g>
		<path class="st0" d="M8,46.75c-0.276,0-0.5-0.224-0.5-0.5v-20c0-0.276,0.224-0.5,0.5-0.5s0.5,0.224,0.5,0.5v20
			C8.5,46.526,8.276,46.75,8,46.75z"/>
	</g>
</g>
</svg>
