<?xml version="1.0" encoding="utf-8"?>
<!-- Generator: Adobe Illustrator 21.1.0, SVG Export Plug-In . SVG Version: 6.00 Build 0)  -->
<svg version="1.1" id="Icon_Set" xmlns="http://www.w3.org/2000/svg" xmlns:xlink="http://www.w3.org/1999/xlink" x="0px" y="0px"
	 viewBox="0 0 64 64" style="enable-background:new 0 0 64 64;" xml:space="preserve">
<style type="text/css">
	.st0{fill:#263238;}
	.st1{fill:#FFD740;}
	.st2{fill:#FF5252;}
	.st3{fill:#40C4FF;}
	.st4{fill:#4DB6AC;}
	.st5{fill:#FFFFFF;}
	.st6{fill:#FFD345;}
</style>
<g>
	<g>
		<path class="st0" d="M17.5,27.5h-10c-1.654,0-3-1.346-3-3v-10c0-1.654,1.346-3,3-3h10c1.654,0,3,1.346,3,3v10
			C20.5,26.154,19.154,27.5,17.5,27.5z M7.5,12.5c-1.103,0-2,0.897-2,2v10c0,1.103,0.897,2,2,2h10c1.103,0,2-0.897,2-2v-10
			c0-1.103-0.897-2-2-2H7.5z"/>
	</g>
	<g>
		<path class="st0" d="M32.5,27.5h-10c-1.654,0-3-1.346-3-3v-10c0-1.654,1.346-3,3-3h10c1.654,0,3,1.346,3,3v10
			C35.5,26.154,34.154,27.5,32.5,27.5z M22.5,12.5c-1.103,0-2,0.897-2,2v10c0,1.103,0.897,2,2,2h10c1.103,0,2-0.897,2-2v-10
			c0-1.103-0.897-2-2-2H22.5z"/>
	</g>
	<g>
		<path class="st1" d="M17.5,42h-10C6.119,42,5,40.881,5,39.5v-10C5,28.119,6.119,27,7.5,27h10c1.381,0,2.5,1.119,2.5,2.5v10
			C20,40.881,18.881,42,17.5,42z"/>
		<path class="st0" d="M17.5,42.5h-10c-1.654,0-3-1.346-3-3v-10c0-1.654,1.346-3,3-3h10c1.654,0,3,1.346,3,3v10
			C20.5,41.154,19.154,42.5,17.5,42.5z M7.5,27.5c-1.103,0-2,0.897-2,2v10c0,1.103,0.897,2,2,2h10c1.103,0,2-0.897,2-2v-10
			c0-1.103-0.897-2-2-2H7.5z"/>
	</g>
	<g>
		<path class="st1" d="M32.5,42h-10c-1.381,0-2.5-1.119-2.5-2.5v-10c0-1.381,1.119-2.5,2.5-2.5h10c1.381,0,2.5,1.119,2.5,2.5v10
			C35,40.881,33.881,42,32.5,42z"/>
		<path class="st0" d="M32.5,42.5h-10c-1.654,0-3-1.346-3-3v-10c0-1.654,1.346-3,3-3h10c1.654,0,3,1.346,3,3v10
			C35.5,41.154,34.154,42.5,32.5,42.5z M22.5,27.5c-1.103,0-2,0.897-2,2v10c0,1.103,0.897,2,2,2h10c1.103,0,2-0.897,2-2v-10
			c0-1.103-0.897-2-2-2H22.5z"/>
	</g>
	<g>
		<path class="st0" d="M17.5,57.5h-10c-1.654,0-3-1.346-3-3v-10c0-1.654,1.346-3,3-3h10c1.654,0,3,1.346,3,3v10
			C20.5,56.154,19.154,57.5,17.5,57.5z M7.5,42.5c-1.103,0-2,0.897-2,2v10c0,1.103,0.897,2,2,2h10c1.103,0,2-0.897,2-2v-10
			c0-1.103-0.897-2-2-2H7.5z"/>
	</g>
	<g>
		<path class="st0" d="M32.5,57.5h-10c-1.654,0-3-1.346-3-3v-10c0-1.654,1.346-3,3-3h10c1.654,0,3,1.346,3,3v10
			C35.5,56.154,34.154,57.5,32.5,57.5z M22.5,42.5c-1.103,0-2,0.897-2,2v10c0,1.103,0.897,2,2,2h10c1.103,0,2-0.897,2-2v-10
			c0-1.103-0.897-2-2-2H22.5z"/>
	</g>
	<g>
		<path class="st3" d="M47.5,27h-10c-1.381,0-2.5-1.119-2.5-2.5v-10c0-1.381,1.119-2.5,2.5-2.5h10c1.381,0,2.5,1.119,2.5,2.5v10
			C50,25.881,48.881,27,47.5,27z"/>
		<path class="st0" d="M47.5,27.5h-10c-1.654,0-3-1.346-3-3v-10c0-1.654,1.346-3,3-3h10c1.654,0,3,1.346,3,3v10
			C50.5,26.154,49.154,27.5,47.5,27.5z M37.5,12.5c-1.103,0-2,0.897-2,2v10c0,1.103,0.897,2,2,2h10c1.103,0,2-0.897,2-2v-10
			c0-1.103-0.897-2-2-2H37.5z"/>
	</g>
	<g>
		<path class="st1" d="M47.5,42h-10c-1.381,0-2.5-1.119-2.5-2.5v-10c0-1.381,1.119-2.5,2.5-2.5h10c1.381,0,2.5,1.119,2.5,2.5v10
			C50,40.881,48.881,42,47.5,42z"/>
		<path class="st0" d="M47.5,42.5h-10c-1.654,0-3-1.346-3-3v-10c0-1.654,1.346-3,3-3h10c1.654,0,3,1.346,3,3v10
			C50.5,41.154,49.154,42.5,47.5,42.5z M37.5,27.5c-1.103,0-2,0.897-2,2v10c0,1.103,0.897,2,2,2h10c1.103,0,2-0.897,2-2v-10
			c0-1.103-0.897-2-2-2H37.5z"/>
	</g>
	<g>
		<path class="st3" d="M47.5,57h-10c-1.381,0-2.5-1.119-2.5-2.5v-10c0-1.381,1.119-2.5,2.5-2.5h10c1.381,0,2.5,1.119,2.5,2.5v10
			C50,55.881,48.881,57,47.5,57z"/>
		<path class="st0" d="M47.5,57.5h-10c-1.654,0-3-1.346-3-3v-10c0-1.654,1.346-3,3-3h10c1.654,0,3,1.346,3,3v10
			C50.5,56.154,49.154,57.5,47.5,57.5z M37.5,42.5c-1.103,0-2,0.897-2,2v10c0,1.103,0.897,2,2,2h10c1.103,0,2-0.897,2-2v-10
			c0-1.103-0.897-2-2-2H37.5z"/>
	</g>
	<g>
		<path class="st0" d="M52,5.5h-4c-0.276,0-0.5-0.224-0.5-0.5s0.224-0.5,0.5-0.5h4c0.276,0,0.5,0.224,0.5,0.5S52.276,5.5,52,5.5z"/>
	</g>
	<g>
		<path class="st0" d="M50,7.5c-0.276,0-0.5-0.224-0.5-0.5V3c0-0.276,0.224-0.5,0.5-0.5s0.5,0.224,0.5,0.5v4
			C50.5,7.276,50.276,7.5,50,7.5z"/>
	</g>
	<g>
		<path class="st0" d="M59,12h-4c-0.276,0-0.5-0.224-0.5-0.5S54.724,11,55,11h4c0.276,0,0.5,0.224,0.5,0.5S59.276,12,59,12z"/>
	</g>
	<g>
		<path class="st0" d="M57,14c-0.276,0-0.5-0.224-0.5-0.5v-4C56.5,9.224,56.724,9,57,9s0.5,0.224,0.5,0.5v4
			C57.5,13.776,57.276,14,57,14z"/>
	</g>
	<g>
		<path class="st0" d="M44.5,61.5h-2c-0.276,0-0.5-0.224-0.5-0.5s0.224-0.5,0.5-0.5h2c0.276,0,0.5,0.224,0.5,0.5
			S44.776,61.5,44.5,61.5z"/>
	</g>
	<g>
		<path class="st0" d="M40.5,61.5h-20c-0.276,0-0.5-0.224-0.5-0.5s0.224-0.5,0.5-0.5h20c0.276,0,0.5,0.224,0.5,0.5
			S40.776,61.5,40.5,61.5z"/>
	</g>
	<g>
		<path class="st0" d="M12.5,8.5h-2C10.224,8.5,10,8.276,10,8s0.224-0.5,0.5-0.5h2C12.776,7.5,13,7.724,13,8S12.776,8.5,12.5,8.5z"
			/>
	</g>
	<g>
		<path class="st0" d="M34.5,8.5h-20C14.224,8.5,14,8.276,14,8s0.224-0.5,0.5-0.5h20C34.776,7.5,35,7.724,35,8S34.776,8.5,34.5,8.5z
			"/>
	</g>
</g>
</svg>
