<?xml version="1.0" encoding="utf-8"?>
<!-- Generator: Adobe Illustrator 21.1.0, SVG Export Plug-In . SVG Version: 6.00 Build 0)  -->
<svg version="1.1" id="Icon_Set" xmlns="http://www.w3.org/2000/svg" xmlns:xlink="http://www.w3.org/1999/xlink" x="0px" y="0px"
	 viewBox="0 0 64 64" style="enable-background:new 0 0 64 64;" xml:space="preserve">
<style type="text/css">
	.st0{fill:#263238;}
	.st1{fill:#FFD740;}
	.st2{fill:#FF5252;}
	.st3{fill:#40C4FF;}
	.st4{fill:#4DB6AC;}
	.st5{fill:#FFFFFF;}
	.st6{fill:#FFD345;}
</style>
<g>
	<g>
		<path class="st0" d="M52,20.75H4c-0.276,0-0.5-0.224-0.5-0.5v-5.5c0-1.654,1.346-3,3-3h43c1.654,0,3,1.346,3,3v5.5
			C52.5,20.526,52.276,20.75,52,20.75z M4.5,19.75h47v-5c0-1.103-0.897-2-2-2h-43c-1.103,0-2,0.897-2,2V19.75z"/>
	</g>
	<g>
		<path class="st0" d="M8.5,18.25c-1.103,0-2-0.897-2-2s0.897-2,2-2s2,0.897,2,2S9.603,18.25,8.5,18.25z M8.5,15.25
			c-0.552,0-1,0.449-1,1s0.448,1,1,1s1-0.449,1-1S9.052,15.25,8.5,15.25z"/>
	</g>
	<g>
		<path class="st0" d="M13.5,18.25c-1.103,0-2-0.897-2-2s0.897-2,2-2s2,0.897,2,2S14.603,18.25,13.5,18.25z M13.5,15.25
			c-0.552,0-1,0.449-1,1s0.448,1,1,1s1-0.449,1-1S14.052,15.25,13.5,15.25z"/>
	</g>
	<g>
		<path class="st0" d="M53,5.75h-4c-0.276,0-0.5-0.224-0.5-0.5s0.224-0.5,0.5-0.5h4c0.276,0,0.5,0.224,0.5,0.5S53.276,5.75,53,5.75z
			"/>
	</g>
	<g>
		<path class="st0" d="M51,7.75c-0.276,0-0.5-0.224-0.5-0.5v-4c0-0.276,0.224-0.5,0.5-0.5s0.5,0.224,0.5,0.5v4
			C51.5,7.526,51.276,7.75,51,7.75z"/>
	</g>
	<g>
		<path class="st0" d="M60,12.25h-4c-0.276,0-0.5-0.224-0.5-0.5s0.224-0.5,0.5-0.5h4c0.276,0,0.5,0.224,0.5,0.5
			S60.276,12.25,60,12.25z"/>
	</g>
	<g>
		<path class="st0" d="M58,14.25c-0.276,0-0.5-0.224-0.5-0.5v-4c0-0.276,0.224-0.5,0.5-0.5s0.5,0.224,0.5,0.5v4
			C58.5,14.026,58.276,14.25,58,14.25z"/>
	</g>
	<g>
		<path class="st0" d="M40,56.75h-2c-0.276,0-0.5-0.224-0.5-0.5s0.224-0.5,0.5-0.5h2c0.276,0,0.5,0.224,0.5,0.5
			S40.276,56.75,40,56.75z"/>
	</g>
	<g>
		<path class="st0" d="M36,56.75H16c-0.276,0-0.5-0.224-0.5-0.5s0.224-0.5,0.5-0.5h20c0.276,0,0.5,0.224,0.5,0.5
			S36.276,56.75,36,56.75z"/>
	</g>
	<g>
		<path class="st0" d="M13,8.75h-2c-0.276,0-0.5-0.224-0.5-0.5s0.224-0.5,0.5-0.5h2c0.276,0,0.5,0.224,0.5,0.5S13.276,8.75,13,8.75z
			"/>
	</g>
	<g>
		<path class="st0" d="M35,8.75H15c-0.276,0-0.5-0.224-0.5-0.5s0.224-0.5,0.5-0.5h20c0.276,0,0.5,0.224,0.5,0.5S35.276,8.75,35,8.75
			z"/>
	</g>
	<g>
		<path class="st1" d="M22,31.25h-8c-0.552,0-1-0.448-1-1v-4c0-0.552,0.448-1,1-1h8c0.552,0,1,0.448,1,1v4
			C23,30.802,22.552,31.25,22,31.25z"/>
		<path class="st0" d="M22,31.75h-8c-0.827,0-1.5-0.673-1.5-1.5v-4c0-0.827,0.673-1.5,1.5-1.5h8c0.827,0,1.5,0.673,1.5,1.5v4
			C23.5,31.077,22.827,31.75,22,31.75z M14,25.75c-0.275,0-0.5,0.224-0.5,0.5v4c0,0.276,0.225,0.5,0.5,0.5h8
			c0.275,0,0.5-0.224,0.5-0.5v-4c0-0.276-0.225-0.5-0.5-0.5H14z"/>
	</g>
	<g>
		<path class="st2" d="M32,31.25h-8c-0.552,0-1-0.448-1-1v-4c0-0.552,0.448-1,1-1h8c0.552,0,1,0.448,1,1v4
			C33,30.802,32.552,31.25,32,31.25z"/>
		<path class="st0" d="M32,31.75h-8c-0.827,0-1.5-0.673-1.5-1.5v-4c0-0.827,0.673-1.5,1.5-1.5h8c0.827,0,1.5,0.673,1.5,1.5v4
			C33.5,31.077,32.827,31.75,32,31.75z M24,25.75c-0.275,0-0.5,0.224-0.5,0.5v4c0,0.276,0.225,0.5,0.5,0.5h8
			c0.275,0,0.5-0.224,0.5-0.5v-4c0-0.276-0.225-0.5-0.5-0.5H24z"/>
	</g>
	<g>
		<path class="st1" d="M42,31.25h-8c-0.552,0-1-0.448-1-1v-4c0-0.552,0.448-1,1-1h8c0.552,0,1,0.448,1,1v4
			C43,30.802,42.552,31.25,42,31.25z"/>
		<path class="st0" d="M42,31.75h-8c-0.827,0-1.5-0.673-1.5-1.5v-4c0-0.827,0.673-1.5,1.5-1.5h8c0.827,0,1.5,0.673,1.5,1.5v4
			C43.5,31.077,42.827,31.75,42,31.75z M34,25.75c-0.275,0-0.5,0.224-0.5,0.5v4c0,0.276,0.225,0.5,0.5,0.5h8
			c0.275,0,0.5-0.224,0.5-0.5v-4c0-0.276-0.225-0.5-0.5-0.5H34z"/>
	</g>
	<g>
		<path class="st0" d="M22,37.75h-8c-0.827,0-1.5-0.673-1.5-1.5v-4c0-0.827,0.673-1.5,1.5-1.5h8c0.827,0,1.5,0.673,1.5,1.5v4
			C23.5,37.077,22.827,37.75,22,37.75z M14,31.75c-0.275,0-0.5,0.224-0.5,0.5v4c0,0.276,0.225,0.5,0.5,0.5h8
			c0.275,0,0.5-0.224,0.5-0.5v-4c0-0.276-0.225-0.5-0.5-0.5H14z"/>
	</g>
	<g>
		<path class="st2" d="M32,37.25h-8c-0.552,0-1-0.448-1-1v-4c0-0.552,0.448-1,1-1h8c0.552,0,1,0.448,1,1v4
			C33,36.802,32.552,37.25,32,37.25z"/>
		<path class="st0" d="M32,37.75h-8c-0.827,0-1.5-0.673-1.5-1.5v-4c0-0.827,0.673-1.5,1.5-1.5h8c0.827,0,1.5,0.673,1.5,1.5v4
			C33.5,37.077,32.827,37.75,32,37.75z M24,31.75c-0.275,0-0.5,0.224-0.5,0.5v4c0,0.276,0.225,0.5,0.5,0.5h8
			c0.275,0,0.5-0.224,0.5-0.5v-4c0-0.276-0.225-0.5-0.5-0.5H24z"/>
	</g>
	<g>
		<path class="st0" d="M42,37.75h-8c-0.827,0-1.5-0.673-1.5-1.5v-4c0-0.827,0.673-1.5,1.5-1.5h8c0.827,0,1.5,0.673,1.5,1.5v4
			C43.5,37.077,42.827,37.75,42,37.75z M34,31.75c-0.275,0-0.5,0.224-0.5,0.5v4c0,0.276,0.225,0.5,0.5,0.5h8
			c0.275,0,0.5-0.224,0.5-0.5v-4c0-0.276-0.225-0.5-0.5-0.5H34z"/>
	</g>
	<g>
		<path class="st4" d="M22,43.25h-8c-0.552,0-1-0.448-1-1v-4c0-0.552,0.448-1,1-1h8c0.552,0,1,0.448,1,1v4
			C23,42.802,22.552,43.25,22,43.25z"/>
		<path class="st0" d="M22,43.75h-8c-0.827,0-1.5-0.673-1.5-1.5v-4c0-0.827,0.673-1.5,1.5-1.5h8c0.827,0,1.5,0.673,1.5,1.5v4
			C23.5,43.077,22.827,43.75,22,43.75z M14,37.75c-0.275,0-0.5,0.224-0.5,0.5v4c0,0.276,0.225,0.5,0.5,0.5h8
			c0.275,0,0.5-0.224,0.5-0.5v-4c0-0.276-0.225-0.5-0.5-0.5H14z"/>
	</g>
	<g>
		<path class="st2" d="M32,43.25h-8c-0.552,0-1-0.448-1-1v-4c0-0.552,0.448-1,1-1h8c0.552,0,1,0.448,1,1v4
			C33,42.802,32.552,43.25,32,43.25z"/>
		<path class="st0" d="M32,43.75h-8c-0.827,0-1.5-0.673-1.5-1.5v-4c0-0.827,0.673-1.5,1.5-1.5h8c0.827,0,1.5,0.673,1.5,1.5v4
			C33.5,43.077,32.827,43.75,32,43.75z M24,37.75c-0.275,0-0.5,0.224-0.5,0.5v4c0,0.276,0.225,0.5,0.5,0.5h8
			c0.275,0,0.5-0.224,0.5-0.5v-4c0-0.276-0.225-0.5-0.5-0.5H24z"/>
	</g>
	<g>
		<path class="st4" d="M42,43.25h-8c-0.552,0-1-0.448-1-1v-4c0-0.552,0.448-1,1-1h8c0.552,0,1,0.448,1,1v4
			C43,42.802,42.552,43.25,42,43.25z"/>
		<path class="st0" d="M42,43.75h-8c-0.827,0-1.5-0.673-1.5-1.5v-4c0-0.827,0.673-1.5,1.5-1.5h8c0.827,0,1.5,0.673,1.5,1.5v4
			C43.5,43.077,42.827,43.75,42,43.75z M34,37.75c-0.275,0-0.5,0.224-0.5,0.5v4c0,0.276,0.225,0.5,0.5,0.5h8
			c0.275,0,0.5-0.224,0.5-0.5v-4c0-0.276-0.225-0.5-0.5-0.5H34z"/>
	</g>
	<g>
		<path class="st0" d="M42.644,52.75H6.5c-1.654,0-3-1.346-3-3v-29.5c0-0.276,0.224-0.5,0.5-0.5h48c0.276,0,0.5,0.224,0.5,0.5v21.5
			c0,0.276-0.224,0.5-0.5,0.5s-0.5-0.224-0.5-0.5v-21h-47v29c0,1.103,0.897,2,2,2h36.144c0.276,0,0.5,0.224,0.5,0.5
			S42.92,52.75,42.644,52.75z"/>
	</g>
	<g>
		<path class="st3" d="M58.69,53.725c0.106-0.475,0.166-0.968,0.166-1.475s-0.06-1-0.166-1.475l0.276-0.158l0.691-0.602
			c0.361-0.315,0.448-0.841,0.207-1.254l-0.888-1.526c-0.239-0.411-0.736-0.598-1.188-0.446l-0.879,0.295l-0.28,0.161
			c-0.731-0.665-1.602-1.18-2.572-1.482V45.45l-0.181-0.897c-0.094-0.467-0.506-0.803-0.984-0.803h-1.784
			c-0.478,0-0.89,0.336-0.984,0.803l-0.181,0.897v0.312c-0.969,0.302-1.841,0.817-2.572,1.482l-0.281-0.161l-0.879-0.295
			c-0.452-0.152-0.949,0.035-1.188,0.446l-0.888,1.526c-0.241,0.414-0.154,0.94,0.207,1.254l0.691,0.602l0.276,0.158
			c-0.106,0.475-0.166,0.968-0.166,1.475s0.06,1,0.166,1.475l-0.277,0.158l-0.691,0.602c-0.361,0.315-0.448,0.841-0.207,1.254
			l0.888,1.526c0.239,0.411,0.736,0.598,1.188,0.446l0.879-0.295l0.281-0.161c0.731,0.665,1.602,1.18,2.572,1.482v0.313l0.181,0.897
			c0.094,0.467,0.506,0.803,0.984,0.803h1.784c0.478,0,0.89-0.336,0.984-0.803l0.181-0.897v-0.313
			c0.969-0.302,1.841-0.817,2.572-1.482l0.281,0.161l0.879,0.295c0.452,0.152,0.949-0.035,1.188-0.446l0.888-1.526
			c0.241-0.414,0.154-0.94-0.207-1.254l-0.691-0.602L58.69,53.725z M52.027,55.75c-1.933,0-3.5-1.567-3.5-3.5s1.567-3.5,3.5-3.5
			s3.5,1.567,3.5,3.5S53.96,55.75,52.027,55.75z"/>
		<path class="st0" d="M52.893,61.25h-1.785c-0.714,0-1.334-0.507-1.474-1.205l-0.182-0.946c-0.777-0.285-1.496-0.7-2.146-1.237
			l-0.936,0.324c-0.674,0.229-1.422-0.054-1.78-0.668l-0.888-1.525c-0.36-0.62-0.229-1.412,0.312-1.883l0.737-0.63
			c-0.072-0.412-0.108-0.824-0.108-1.228s0.036-0.816,0.108-1.229l-0.737-0.63c-0.541-0.472-0.672-1.263-0.311-1.883l0.887-1.525
			c0.357-0.614,1.109-0.894,1.78-0.668l0.934,0.325c0.65-0.538,1.37-0.954,2.148-1.239l0.181-0.946
			c0.14-0.698,0.76-1.205,1.474-1.205h1.785c0.714,0,1.334,0.507,1.474,1.205l0.182,0.946c0.778,0.286,1.497,0.7,2.146,1.237
			l0.936-0.324c0.673-0.226,1.423,0.054,1.78,0.668l0.888,1.525c0.36,0.62,0.229,1.411-0.312,1.883l-0.737,0.63
			c0.072,0.413,0.108,0.824,0.108,1.229c0,0.404-0.036,0.815-0.108,1.228l0.738,0.631c0.54,0.472,0.671,1.263,0.31,1.883
			l-0.887,1.525c-0.358,0.614-1.109,0.893-1.78,0.668l-0.935-0.325c-0.648,0.538-1.368,0.953-2.147,1.238l-0.181,0.947
			C54.226,60.744,53.606,61.25,52.893,61.25z M47.371,56.756c0.121,0,0.242,0.044,0.336,0.13c0.701,0.638,1.504,1.1,2.385,1.375
			c0.209,0.065,0.352,0.259,0.352,0.478v0.312l0.171,0.798c0.047,0.233,0.254,0.402,0.493,0.402h1.785
			c0.239,0,0.446-0.169,0.493-0.401l0.181-0.897l-0.01-0.214c0-0.219,0.143-0.412,0.352-0.478c0.883-0.275,1.685-0.737,2.384-1.374
			c0.162-0.147,0.399-0.172,0.586-0.064l0.28,0.161l0.789,0.254c0.227,0.073,0.478-0.018,0.597-0.223l0.888-1.525
			c0.12-0.206,0.077-0.469-0.103-0.626l-0.691-0.603l-0.196-0.101c-0.19-0.108-0.288-0.329-0.24-0.543
			c0.104-0.459,0.155-0.918,0.155-1.366s-0.052-0.907-0.155-1.366c-0.048-0.214,0.05-0.435,0.24-0.543l0.276-0.158l0.611-0.545
			c0.18-0.157,0.223-0.42,0.104-0.626l-0.889-1.525c-0.118-0.206-0.37-0.301-0.597-0.223l-0.879,0.295l-0.19,0.12
			c-0.189,0.108-0.425,0.082-0.586-0.064c-0.699-0.637-1.501-1.099-2.384-1.374c-0.209-0.065-0.352-0.259-0.352-0.478V45.45
			l-0.171-0.798c-0.047-0.233-0.254-0.402-0.493-0.402h-1.785c-0.239,0-0.446,0.169-0.493,0.401l-0.181,0.897l0.01,0.213
			c0,0.219-0.143,0.412-0.352,0.478c-0.881,0.274-1.684,0.737-2.385,1.375c-0.159,0.146-0.396,0.171-0.585,0.063l-0.28-0.161
			l-0.789-0.254c-0.228-0.079-0.479,0.017-0.597,0.223l-0.888,1.525c-0.12,0.206-0.077,0.469,0.103,0.626l0.691,0.603l0.196,0.101
			c0.19,0.109,0.288,0.329,0.24,0.543c-0.104,0.459-0.155,0.918-0.155,1.366s0.052,0.907,0.155,1.366
			c0.048,0.214-0.05,0.435-0.24,0.543l-0.277,0.158l-0.61,0.545c-0.18,0.157-0.223,0.42-0.104,0.626l0.889,1.525
			c0.119,0.206,0.371,0.3,0.597,0.223l0.879-0.294l0.19-0.121C47.199,56.778,47.285,56.756,47.371,56.756z M52.027,56.25
			c-2.206,0-4-1.794-4-4s1.794-4,4-4s4,1.794,4,4S54.233,56.25,52.027,56.25z M52.027,49.25c-1.654,0-3,1.346-3,3s1.346,3,3,3
			s3-1.346,3-3S53.682,49.25,52.027,49.25z"/>
	</g>
</g>
</svg>
