<?xml version="1.0" encoding="utf-8"?>
<!-- Generator: Adobe Illustrator 21.1.0, SVG Export Plug-In . SVG Version: 6.00 Build 0)  -->
<svg version="1.1" id="Icon_Set" xmlns="http://www.w3.org/2000/svg" xmlns:xlink="http://www.w3.org/1999/xlink" x="0px" y="0px"
	 viewBox="0 0 64 64" style="enable-background:new 0 0 64 64;" xml:space="preserve">
<style type="text/css">
	.st0{fill:#263238;}
	.st1{fill:#FFD740;}
	.st2{fill:#FF5252;}
	.st3{fill:#40C4FF;}
	.st4{fill:#4DB6AC;}
	.st5{fill:#FFFFFF;}
	.st6{fill:#FFD345;}
</style>
<g>
	<g>
		<path class="st0" d="M60,59.25H4c-0.276,0-0.5-0.224-0.5-0.5v-51c0-0.276,0.224-0.5,0.5-0.5s0.5,0.224,0.5,0.5v50.5H60
			c0.276,0,0.5,0.224,0.5,0.5S60.276,59.25,60,59.25z"/>
	</g>
	<g>
		<path class="st0" d="M12,61.75c-0.276,0-0.5-0.224-0.5-0.5v-2.5c0-0.276,0.224-0.5,0.5-0.5s0.5,0.224,0.5,0.5v2.5
			C12.5,61.526,12.276,61.75,12,61.75z"/>
	</g>
	<g>
		<path class="st0" d="M22,61.75c-0.276,0-0.5-0.224-0.5-0.5v-2.5c0-0.276,0.224-0.5,0.5-0.5s0.5,0.224,0.5,0.5v2.5
			C22.5,61.526,22.276,61.75,22,61.75z"/>
	</g>
	<g>
		<path class="st0" d="M32,61.75c-0.276,0-0.5-0.224-0.5-0.5v-2.5c0-0.276,0.224-0.5,0.5-0.5s0.5,0.224,0.5,0.5v2.5
			C32.5,61.526,32.276,61.75,32,61.75z"/>
	</g>
	<g>
		<path class="st0" d="M42,61.75c-0.276,0-0.5-0.224-0.5-0.5v-2.5c0-0.276,0.224-0.5,0.5-0.5s0.5,0.224,0.5,0.5v2.5
			C42.5,61.526,42.276,61.75,42,61.75z"/>
	</g>
	<g>
		<path class="st0" d="M52,61.75c-0.276,0-0.5-0.224-0.5-0.5v-2.5c0-0.276,0.224-0.5,0.5-0.5s0.5,0.224,0.5,0.5v2.5
			C52.5,61.526,52.276,61.75,52,61.75z"/>
	</g>
	<g>
		<path class="st0" d="M21,54.25h-8c-0.276,0-0.5-0.224-0.5-0.5v-8c0-0.276,0.224-0.5,0.5-0.5h8c0.276,0,0.5,0.224,0.5,0.5v8
			C21.5,54.026,21.276,54.25,21,54.25z M13.5,53.25h7v-7h-7V53.25z"/>
	</g>
	<g>
		<rect x="23" y="35.75" class="st4" width="8" height="8"/>
		<path class="st0" d="M31,44.25h-8c-0.276,0-0.5-0.224-0.5-0.5v-8c0-0.276,0.224-0.5,0.5-0.5h8c0.276,0,0.5,0.224,0.5,0.5v8
			C31.5,44.026,31.276,44.25,31,44.25z M23.5,43.25h7v-7h-7V43.25z"/>
	</g>
	<g>
		<rect x="33" y="25.75" class="st3" width="8" height="8"/>
		<path class="st0" d="M41,34.25h-8c-0.276,0-0.5-0.224-0.5-0.5v-8c0-0.276,0.224-0.5,0.5-0.5h8c0.276,0,0.5,0.224,0.5,0.5v8
			C41.5,34.026,41.276,34.25,41,34.25z M33.5,33.25h7v-7h-7V33.25z"/>
	</g>
	<g>
		<rect x="43" y="15.75" class="st2" width="8" height="8"/>
		<path class="st0" d="M51,24.25h-8c-0.276,0-0.5-0.224-0.5-0.5v-8c0-0.276,0.224-0.5,0.5-0.5h8c0.276,0,0.5,0.224,0.5,0.5v8
			C51.5,24.026,51.276,24.25,51,24.25z M43.5,23.25h7v-7h-7V23.25z"/>
	</g>
	<g>
		<path class="st0" d="M51,5.25h-4c-0.276,0-0.5-0.224-0.5-0.5s0.224-0.5,0.5-0.5h4c0.276,0,0.5,0.224,0.5,0.5S51.276,5.25,51,5.25z
			"/>
	</g>
	<g>
		<path class="st0" d="M49,7.25c-0.276,0-0.5-0.224-0.5-0.5v-4c0-0.276,0.224-0.5,0.5-0.5s0.5,0.224,0.5,0.5v4
			C49.5,7.026,49.276,7.25,49,7.25z"/>
	</g>
	<g>
		<path class="st0" d="M60,13.25h-4c-0.276,0-0.5-0.224-0.5-0.5s0.224-0.5,0.5-0.5h4c0.276,0,0.5,0.224,0.5,0.5
			S60.276,13.25,60,13.25z"/>
	</g>
	<g>
		<path class="st0" d="M58,15.25c-0.276,0-0.5-0.224-0.5-0.5v-4c0-0.276,0.224-0.5,0.5-0.5s0.5,0.224,0.5,0.5v4
			C58.5,15.026,58.276,15.25,58,15.25z"/>
	</g>
	<g>
		<path class="st0" d="M54,52h-1c-0.276,0-0.5-0.224-0.5-0.5S52.724,51,53,51h1c0.276,0,0.5,0.224,0.5,0.5S54.276,52,54,52z"/>
	</g>
	<g>
		<path class="st0" d="M51,52H40c-0.276,0-0.5-0.224-0.5-0.5S39.724,51,40,51h11c0.276,0,0.5,0.224,0.5,0.5S51.276,52,51,52z"/>
	</g>
	<g>
		<path class="st0" d="M47,49h-1c-0.276,0-0.5-0.224-0.5-0.5S45.724,48,46,48h1c0.276,0,0.5,0.224,0.5,0.5S47.276,49,47,49z"/>
	</g>
	<g>
		<path class="st0" d="M60,49H49c-0.276,0-0.5-0.224-0.5-0.5S48.724,48,49,48h11c0.276,0,0.5,0.224,0.5,0.5S60.276,49,60,49z"/>
	</g>
	<g>
		<path class="st1" d="M32.978,8.401c-0.073-0.167-0.174-0.324-0.311-0.461c-0.001-0.001-0.001-0.001-0.002-0.002
			c-0.137-0.136-0.294-0.238-0.461-0.311c-0.008-0.003-0.014-0.008-0.022-0.011C31.999,7.54,31.803,7.5,31.607,7.5l-7.5,0
			c-0.828,0-1.5,0.671-1.5,1.5c0,0.829,0.672,1.5,1.5,1.5l3.879,0L11.939,26.546c-0.586,0.585-0.586,1.536,0,2.121
			c0.293,0.293,0.677,0.439,1.061,0.439c0.384,0,0.768-0.147,1.061-0.439l16.046-16.046V16.5c0,0.829,0.672,1.5,1.5,1.5
			c0.828,0,1.5-0.671,1.5-1.5l0-7.5c0-0.197-0.04-0.393-0.117-0.577C32.987,8.415,32.982,8.409,32.978,8.401z"/>
		<path class="st0" d="M13,29.606c-0.534,0-1.036-0.208-1.414-0.586C11.208,28.643,11,28.141,11,27.606s0.208-1.037,0.586-1.414
			L26.778,11h-2.672c-1.103,0-2-0.897-2-2s0.897-2,2-2h7.5c0.265,0,0.523,0.052,0.77,0.155c0.262,0.116,0.469,0.255,0.643,0.429
			c0.171,0.171,0.308,0.371,0.409,0.596c0.012,0.022,0.023,0.048,0.03,0.067C33.555,8.476,33.606,8.735,33.606,9v7.5
			c0,1.103-0.897,2-2,2s-2-0.897-2-2v-2.672L14.414,29.021C14.036,29.398,13.534,29.606,13,29.606z M24.106,8c-0.552,0-1,0.449-1,1
			s0.448,1,1,1h3.879c0.202,0,0.385,0.122,0.462,0.309s0.034,0.402-0.108,0.545L12.293,26.899C12.104,27.088,12,27.339,12,27.606
			s0.104,0.518,0.293,0.707c0.379,0.378,1.035,0.378,1.414,0l16.046-16.046c0.143-0.144,0.36-0.187,0.545-0.108
			c0.187,0.077,0.309,0.26,0.309,0.462V16.5c0,0.551,0.448,1,1,1s1-0.449,1-1V9c0-0.132-0.026-0.261-0.077-0.384
			c-0.004-0.007-0.005-0.006-0.009-0.014c-0.053-0.119-0.122-0.223-0.207-0.308c-0.086-0.086-0.189-0.155-0.309-0.207
			C31.867,8.026,31.737,8,31.606,8H24.106z"/>
	</g>
</g>
</svg>
