<?xml version="1.0" encoding="utf-8"?>
<!-- Generator: Adobe Illustrator 21.1.0, SVG Export Plug-In . SVG Version: 6.00 Build 0)  -->
<svg version="1.1" id="Icon_Set" xmlns="http://www.w3.org/2000/svg" xmlns:xlink="http://www.w3.org/1999/xlink" x="0px" y="0px"
	 viewBox="0 0 64 64" style="enable-background:new 0 0 64 64;" xml:space="preserve">
<style type="text/css">
	.st0{fill:#263238;}
	.st1{fill:#FFD740;}
	.st2{fill:#FF5252;}
	.st3{fill:#40C4FF;}
	.st4{fill:#4DB6AC;}
	.st5{fill:#FFFFFF;}
	.st6{fill:#FFD345;}
</style>
<g>
	<g>
		<path class="st0" d="M13.5,8h-4C9.224,8,9,7.776,9,7.5S9.224,7,9.5,7h4C13.776,7,14,7.224,14,7.5S13.776,8,13.5,8z"/>
	</g>
	<g>
		<path class="st0" d="M11.5,10C11.224,10,11,9.776,11,9.5v-4C11,5.224,11.224,5,11.5,5S12,5.224,12,5.5v4
			C12,9.776,11.776,10,11.5,10z"/>
	</g>
	<g>
		<path class="st0" d="M6.5,14.5h-4C2.224,14.5,2,14.276,2,14s0.224-0.5,0.5-0.5h4C6.776,13.5,7,13.724,7,14S6.776,14.5,6.5,14.5z"
			/>
	</g>
	<g>
		<path class="st0" d="M4.5,16.5C4.224,16.5,4,16.276,4,16v-4c0-0.276,0.224-0.5,0.5-0.5S5,11.724,5,12v4
			C5,16.276,4.776,16.5,4.5,16.5z"/>
	</g>
	<g>
		<path class="st0" d="M45.5,59h-2c-0.276,0-0.5-0.224-0.5-0.5s0.224-0.5,0.5-0.5h2c0.276,0,0.5,0.224,0.5,0.5S45.776,59,45.5,59z"
			/>
	</g>
	<g>
		<path class="st0" d="M41.5,59h-20c-0.276,0-0.5-0.224-0.5-0.5s0.224-0.5,0.5-0.5h20c0.276,0,0.5,0.224,0.5,0.5S41.776,59,41.5,59z
			"/>
	</g>
	<g>
		<path class="st0" d="M23.5,11h-2c-0.276,0-0.5-0.224-0.5-0.5s0.224-0.5,0.5-0.5h2c0.276,0,0.5,0.224,0.5,0.5S23.776,11,23.5,11z"
			/>
	</g>
	<g>
		<path class="st0" d="M45.5,11h-20c-0.276,0-0.5-0.224-0.5-0.5s0.224-0.5,0.5-0.5h20c0.276,0,0.5,0.224,0.5,0.5S45.776,11,45.5,11z
			"/>
	</g>
	<g>
		<path class="st0" d="M17,31c-1.654,0-3-1.346-3-3v-3c0-1.654,1.346-3,3-3s3,1.346,3,3v3C20,29.654,18.654,31,17,31z M17,23
			c-1.103,0-2,0.897-2,2v3c0,1.103,0.897,2,2,2s2-0.897,2-2v-3C19,23.897,18.103,23,17,23z"/>
	</g>
	<g>
		<path class="st0" d="M27.5,31c-1.654,0-3-1.346-3-3v-3c0-1.654,1.346-3,3-3s3,1.346,3,3v3C30.5,29.654,29.154,31,27.5,31z
			 M27.5,23c-1.103,0-2,0.897-2,2v3c0,1.103,0.897,2,2,2s2-0.897,2-2v-3C29.5,23.897,28.603,23,27.5,23z"/>
	</g>
	<g>
		<path class="st0" d="M35,31c-1.654,0-3-1.346-3-3v-3c0-1.654,1.346-3,3-3s3,1.346,3,3v3C38,29.654,36.654,31,35,31z M35,23
			c-1.103,0-2,0.897-2,2v3c0,1.103,0.897,2,2,2s2-0.897,2-2v-3C37,23.897,36.103,23,35,23z"/>
	</g>
	<g>
		<path class="st0" d="M50,31c-1.654,0-3-1.346-3-3v-3c0-1.654,1.346-3,3-3s3,1.346,3,3v3C53,29.654,51.654,31,50,31z M50,23
			c-1.103,0-2,0.897-2,2v3c0,1.103,0.897,2,2,2s2-0.897,2-2v-3C52,23.897,51.103,23,50,23z"/>
	</g>
	<g>
		<path class="st0" d="M22.5,31c-0.276,0-0.5-0.224-0.5-0.5V23h-1.5c-0.276,0-0.5-0.224-0.5-0.5s0.224-0.5,0.5-0.5h2
			c0.276,0,0.5,0.224,0.5,0.5v8C23,30.776,22.776,31,22.5,31z"/>
	</g>
	<g>
		<path class="st0" d="M41,31c-0.276,0-0.5-0.224-0.5-0.5V23H39c-0.276,0-0.5-0.224-0.5-0.5S38.724,22,39,22h2
			c0.276,0,0.5,0.224,0.5,0.5v8C41.5,30.776,41.276,31,41,31z"/>
	</g>
	<g>
		<path class="st0" d="M45,31c-0.276,0-0.5-0.224-0.5-0.5V23H43c-0.276,0-0.5-0.224-0.5-0.5S42.724,22,43,22h2
			c0.276,0,0.5,0.224,0.5,0.5v8C45.5,30.776,45.276,31,45,31z"/>
	</g>
	<g>
		<path class="st0" d="M17,43c-1.654,0-3-1.346-3-3v-3c0-1.654,1.346-3,3-3s3,1.346,3,3v3C20,41.654,18.654,43,17,43z M17,35
			c-1.103,0-2,0.897-2,2v3c0,1.103,0.897,2,2,2s2-0.897,2-2v-3C19,35.897,18.103,35,17,35z"/>
	</g>
	<g>
		<path class="st0" d="M34,43c-1.654,0-3-1.346-3-3v-3c0-1.654,1.346-3,3-3s3,1.346,3,3v3C37,41.654,35.654,43,34,43z M34,35
			c-1.103,0-2,0.897-2,2v3c0,1.103,0.897,2,2,2s2-0.897,2-2v-3C36,35.897,35.103,35,34,35z"/>
	</g>
	<g>
		<path class="st0" d="M42,43c-1.654,0-3-1.346-3-3v-3c0-1.654,1.346-3,3-3s3,1.346,3,3v3C45,41.654,43.654,43,42,43z M42,35
			c-1.103,0-2,0.897-2,2v3c0,1.103,0.897,2,2,2s2-0.897,2-2v-3C44,35.897,43.103,35,42,35z"/>
	</g>
	<g>
		<path class="st0" d="M23.5,43c-0.276,0-0.5-0.224-0.5-0.5V35h-1.5c-0.276,0-0.5-0.224-0.5-0.5s0.224-0.5,0.5-0.5h2
			c0.276,0,0.5,0.224,0.5,0.5v8C24,42.776,23.776,43,23.5,43z"/>
	</g>
	<g>
		<path class="st0" d="M28,43c-0.276,0-0.5-0.224-0.5-0.5V35H26c-0.276,0-0.5-0.224-0.5-0.5S25.724,34,26,34h2
			c0.276,0,0.5,0.224,0.5,0.5v8C28.5,42.776,28.276,43,28,43z"/>
	</g>
	<g>
		<path class="st3" d="M61.5,48.5l-9-9v5.25h-8c-0.552,0-1,0.448-1,1v5.5c0,0.552,0.448,1,1,1h8v5.25L61.5,48.5z"/>
		<path class="st0" d="M52.5,58c-0.064,0-0.129-0.013-0.191-0.038C52.122,57.885,52,57.702,52,57.5v-4.75h-7.5
			c-0.827,0-1.5-0.673-1.5-1.5v-5.5c0-0.827,0.673-1.5,1.5-1.5H52V39.5c0-0.202,0.122-0.385,0.309-0.462
			c0.188-0.076,0.402-0.034,0.545,0.108l9,9c0.195,0.195,0.195,0.512,0,0.707l-9,9C52.758,57.949,52.63,58,52.5,58z M44.5,45.25
			c-0.276,0-0.5,0.225-0.5,0.5v5.5c0,0.275,0.224,0.5,0.5,0.5h8c0.276,0,0.5,0.224,0.5,0.5v4.043l7.793-7.793L53,40.707v4.043
			c0,0.276-0.224,0.5-0.5,0.5H44.5z"/>
	</g>
	<g>
		<path class="st0" d="M50,43c-1.654,0-3-1.346-3-3v-3c0-1.654,1.346-3,3-3s3,1.346,3,3v0.519c0,0.276-0.224,0.5-0.5,0.5
			s-0.5-0.224-0.5-0.5V37c0-1.103-0.897-2-2-2s-2,0.897-2,2v3c0,1.236,1.187,2.209,2.399,1.959c0.269-0.053,0.535,0.12,0.59,0.39
			c0.056,0.271-0.119,0.535-0.389,0.591C50.403,42.979,50.202,43,50,43z"/>
	</g>
	<g>
		<path class="st0" d="M41.5,49H12c-1.654,0-3-1.346-3-3V19c0-1.654,1.346-3,3-3h43c1.654,0,3,1.346,3,3v22.672
			c0,0.276-0.224,0.5-0.5,0.5s-0.5-0.224-0.5-0.5V19c0-1.103-0.897-2-2-2H12c-1.103,0-2,0.897-2,2v27c0,1.103,0.897,2,2,2h29.5
			c0.276,0,0.5,0.224,0.5,0.5S41.776,49,41.5,49z"/>
	</g>
</g>
</svg>
