<?xml version="1.0" encoding="utf-8"?>
<!-- Generator: Adobe Illustrator 21.1.0, SVG Export Plug-In . SVG Version: 6.00 Build 0)  -->
<svg version="1.1" id="Icon_Set" xmlns="http://www.w3.org/2000/svg" xmlns:xlink="http://www.w3.org/1999/xlink" x="0px" y="0px"
	 viewBox="0 0 64 64" style="enable-background:new 0 0 64 64;" xml:space="preserve">
<style type="text/css">
	.st0{fill:#263238;}
	.st1{fill:#FFD740;}
	.st2{fill:#FF5252;}
	.st3{fill:#40C4FF;}
	.st4{fill:#4DB6AC;}
	.st5{fill:#FFFFFF;}
	.st6{fill:#FFD345;}
</style>
<g>
	<g>
		<path class="st0" d="M38.241,7.5h-4c-0.276,0-0.5-0.224-0.5-0.5s0.224-0.5,0.5-0.5h4c0.276,0,0.5,0.224,0.5,0.5
			S38.518,7.5,38.241,7.5z"/>
	</g>
	<g>
		<path class="st0" d="M36.241,9.5c-0.276,0-0.5-0.224-0.5-0.5V5c0-0.276,0.224-0.5,0.5-0.5s0.5,0.224,0.5,0.5v4
			C36.741,9.276,36.518,9.5,36.241,9.5z"/>
	</g>
	<g>
		<path class="st0" d="M47.241,15.5h-4c-0.276,0-0.5-0.224-0.5-0.5s0.224-0.5,0.5-0.5h4c0.276,0,0.5,0.224,0.5,0.5
			S47.518,15.5,47.241,15.5z"/>
	</g>
	<g>
		<path class="st0" d="M45.241,17.5c-0.276,0-0.5-0.224-0.5-0.5v-4c0-0.276,0.224-0.5,0.5-0.5s0.5,0.224,0.5,0.5v4
			C45.741,17.276,45.518,17.5,45.241,17.5z"/>
	</g>
	<g>
		<path class="st0" d="M56.241,55h-48c-0.182,0-0.35-0.099-0.438-0.259c-0.088-0.159-0.082-0.354,0.015-0.508l5.053-8
			C12.963,46.088,13.123,46,13.294,46h37.895c0.172,0,0.331,0.088,0.423,0.233l5.053,8c0.098,0.154,0.103,0.349,0.015,0.508
			C56.591,54.901,56.424,55,56.241,55z M9.148,54h46.186l-4.421-7H13.569L9.148,54z"/>
	</g>
	<g>
		<polygon class="st4" points="14.557,44.5 49.925,44.5 44.873,36.5 19.61,36.5 		"/>
		<path class="st0" d="M49.926,45H14.557c-0.182,0-0.35-0.099-0.438-0.259c-0.088-0.159-0.082-0.354,0.015-0.508l5.052-8
			C19.278,36.088,19.438,36,19.609,36h25.264c0.172,0,0.331,0.088,0.423,0.233l5.053,8c0.098,0.154,0.103,0.349,0.015,0.508
			C50.275,44.901,50.108,45,49.926,45z M15.464,44h33.554l-4.421-7H19.885L15.464,44z"/>
	</g>
	<g>
		<polygon class="st1" points="20.873,34.5 43.61,34.5 38.557,26.5 25.925,26.5 		"/>
		<path class="st0" d="M43.609,35H20.873c-0.182,0-0.35-0.099-0.438-0.259c-0.088-0.159-0.082-0.354,0.015-0.508l5.053-8
			C25.594,26.088,25.754,26,25.925,26h12.631c0.172,0,0.331,0.088,0.423,0.233l5.053,8c0.098,0.154,0.103,0.349,0.015,0.508
			C43.959,34.901,43.792,35,43.609,35z M21.78,34h20.922l-4.421-7H26.201L21.78,34z"/>
	</g>
	<g>
		<polygon class="st2" points="32.241,16.5 27.189,24.5 37.294,24.5 		"/>
		<path class="st0" d="M37.294,25H27.188c-0.182,0-0.35-0.099-0.438-0.259c-0.088-0.159-0.082-0.354,0.015-0.508l5.053-8
			c0.184-0.29,0.662-0.29,0.846,0l5.053,8c0.098,0.154,0.103,0.349,0.015,0.508C37.644,24.901,37.477,25,37.294,25z M28.096,24
			h8.291l-4.146-6.563L28.096,24z"/>
	</g>
	<g>
		<path class="st0" d="M15,35h-3c-0.827,0-1.5-0.673-1.5-1.5V23h-3c-0.202,0-0.385-0.122-0.462-0.309
			c-0.078-0.187-0.035-0.402,0.108-0.545l6-6c0.195-0.195,0.512-0.195,0.707,0l6,6c0.143,0.143,0.186,0.358,0.108,0.545
			C19.885,22.878,19.702,23,19.5,23h-3v10.5C16.5,34.327,15.827,35,15,35z M8.707,22H11c0.276,0,0.5,0.224,0.5,0.5v11
			c0,0.276,0.224,0.5,0.5,0.5h3c0.276,0,0.5-0.224,0.5-0.5v-11c0-0.276,0.224-0.5,0.5-0.5h2.293L13.5,17.207L8.707,22z"/>
	</g>
	<g>
		<path class="st0" d="M21.241,59.5h-2c-0.276,0-0.5-0.224-0.5-0.5s0.224-0.5,0.5-0.5h2c0.276,0,0.5,0.224,0.5,0.5
			S21.518,59.5,21.241,59.5z"/>
	</g>
	<g>
		<path class="st0" d="M43.241,59.5h-20c-0.276,0-0.5-0.224-0.5-0.5s0.224-0.5,0.5-0.5h20c0.276,0,0.5,0.224,0.5,0.5
			S43.518,59.5,43.241,59.5z"/>
	</g>
	<g>
		<path class="st0" d="M56.5,45H54c-0.276,0-0.5-0.224-0.5-0.5S53.724,44,54,44h2V27h-2c-0.276,0-0.5-0.224-0.5-0.5S53.724,26,54,26
			h2.5c0.276,0,0.5,0.224,0.5,0.5v18C57,44.776,56.776,45,56.5,45z"/>
	</g>
</g>
</svg>
