<?xml version="1.0" encoding="utf-8"?>
<!-- Generator: Adobe Illustrator 21.1.0, SVG Export Plug-In . SVG Version: 6.00 Build 0)  -->
<svg version="1.1" id="Icon_Set" xmlns="http://www.w3.org/2000/svg" xmlns:xlink="http://www.w3.org/1999/xlink" x="0px" y="0px"
	 viewBox="0 0 64 64" style="enable-background:new 0 0 64 64;" xml:space="preserve">
<style type="text/css">
	.st0{fill:#263238;}
	.st1{fill:#FFD740;}
	.st2{fill:#FF5252;}
	.st3{fill:#40C4FF;}
	.st4{fill:#4DB6AC;}
	.st5{fill:#FFFFFF;}
	.st6{fill:#FFD345;}
</style>
<g>
	<g>
		<path class="st0" d="M12.5,14C10.019,14,8,11.981,8,9.5S10.019,5,12.5,5S17,7.019,17,9.5S14.981,14,12.5,14z M12.5,6
			C10.57,6,9,7.57,9,9.5s1.57,3.5,3.5,3.5S16,11.43,16,9.5S14.43,6,12.5,6z"/>
	</g>
	<g>
		<path class="st0" d="M38.5,14c-2.481,0-4.5-2.019-4.5-4.5S36.019,5,38.5,5S43,7.019,43,9.5S40.981,14,38.5,14z M38.5,6
			C36.57,6,35,7.57,35,9.5s1.57,3.5,3.5,3.5S42,11.43,42,9.5S40.43,6,38.5,6z"/>
	</g>
	<g>
		<rect x="21.5" y="5.5" class="st1" width="8" height="8"/>
		<path class="st0" d="M29.5,14h-8c-0.276,0-0.5-0.224-0.5-0.5v-8C21,5.224,21.224,5,21.5,5h8C29.776,5,30,5.224,30,5.5v8
			C30,13.776,29.776,14,29.5,14z M22,13h7V6h-7V13z"/>
	</g>
	<g>
		<path class="st0" d="M55.5,14h-8c-0.276,0-0.5-0.224-0.5-0.5v-8C47,5.224,47.224,5,47.5,5h8C55.776,5,56,5.224,56,5.5v8
			C56,13.776,55.776,14,55.5,14z M48,13h7V6h-7V13z"/>
	</g>
	<g>
		<path class="st0" d="M55.5,29h-8c-0.276,0-0.5-0.224-0.5-0.5v-8c0-0.276,0.224-0.5,0.5-0.5h8c0.276,0,0.5,0.224,0.5,0.5v8
			C56,28.776,55.776,29,55.5,29z M48,28h7v-7h-7V28z"/>
	</g>
	<g>
		<path class="st0" d="M25.5,29c-2.481,0-4.5-2.019-4.5-4.5s2.019-4.5,4.5-4.5s4.5,2.019,4.5,4.5S27.981,29,25.5,29z M25.5,21
			c-1.93,0-3.5,1.57-3.5,3.5s1.57,3.5,3.5,3.5s3.5-1.57,3.5-3.5S27.43,21,25.5,21z"/>
	</g>
	<g>
		<circle class="st2" cx="38.5" cy="24.5" r="4"/>
		<path class="st0" d="M38.5,29c-2.481,0-4.5-2.019-4.5-4.5s2.019-4.5,4.5-4.5s4.5,2.019,4.5,4.5S40.981,29,38.5,29z M38.5,21
			c-1.93,0-3.5,1.57-3.5,3.5s1.57,3.5,3.5,3.5s3.5-1.57,3.5-3.5S40.43,21,38.5,21z"/>
	</g>
	<g>
		<rect x="8.5" y="20.5" class="st3" width="8" height="8"/>
		<path class="st0" d="M16.5,29h-8C8.224,29,8,28.776,8,28.5v-8C8,20.224,8.224,20,8.5,20h8c0.276,0,0.5,0.224,0.5,0.5v8
			C17,28.776,16.776,29,16.5,29z M9,28h7v-7H9V28z"/>
	</g>
	<g>
		<path class="st0" d="M42.5,44h-8c-0.276,0-0.5-0.224-0.5-0.5v-8c0-0.276,0.224-0.5,0.5-0.5h8c0.276,0,0.5,0.224,0.5,0.5v8
			C43,43.776,42.776,44,42.5,44z M35,43h7v-7h-7V43z"/>
	</g>
	<g>
		<circle class="st4" cx="25.5" cy="39.5" r="4"/>
		<path class="st0" d="M25.5,44c-2.481,0-4.5-2.019-4.5-4.5s2.019-4.5,4.5-4.5s4.5,2.019,4.5,4.5S27.981,44,25.5,44z M25.5,36
			c-1.93,0-3.5,1.57-3.5,3.5s1.57,3.5,3.5,3.5s3.5-1.57,3.5-3.5S27.43,36,25.5,36z"/>
	</g>
	<g>
		<path class="st0" d="M42.5,59h-8c-0.276,0-0.5-0.224-0.5-0.5v-8c0-0.276,0.224-0.5,0.5-0.5h8c0.276,0,0.5,0.224,0.5,0.5v8
			C43,58.776,42.776,59,42.5,59z M35,58h7v-7h-7V58z"/>
	</g>
	<g>
		<path class="st0" d="M25.5,59c-2.481,0-4.5-2.019-4.5-4.5s2.019-4.5,4.5-4.5s4.5,2.019,4.5,4.5S27.981,59,25.5,59z M25.5,51
			c-1.93,0-3.5,1.57-3.5,3.5s1.57,3.5,3.5,3.5s3.5-1.57,3.5-3.5S27.43,51,25.5,51z"/>
	</g>
	<g>
		<path class="st0" d="M51.5,44c-2.481,0-4.5-2.019-4.5-4.5s2.019-4.5,4.5-4.5s4.5,2.019,4.5,4.5S53.981,44,51.5,44z M51.5,36
			c-1.93,0-3.5,1.57-3.5,3.5s1.57,3.5,3.5,3.5s3.5-1.57,3.5-3.5S53.43,36,51.5,36z"/>
	</g>
	<g>
		<path class="st0" d="M16.5,44h-8C8.224,44,8,43.776,8,43.5v-8C8,35.224,8.224,35,8.5,35h8c0.276,0,0.5,0.224,0.5,0.5v8
			C17,43.776,16.776,44,16.5,44z M9,43h7v-7H9V43z"/>
	</g>
	<g>
		<path class="st0" d="M17.5,55H11c-1.654,0-3-1.346-3-3v-3.5C8,48.224,8.224,48,8.5,48S9,48.224,9,48.5V52c0,1.103,0.897,2,2,2h6.5
			c0.276,0,0.5,0.224,0.5,0.5S17.776,55,17.5,55z"/>
	</g>
	<g>
		<path class="st0" d="M15.5,57c-0.128,0-0.256-0.049-0.354-0.146c-0.195-0.195-0.195-0.512,0-0.707l1.646-1.646l-1.646-1.646
			c-0.195-0.195-0.195-0.512,0-0.707s0.512-0.195,0.707,0l2,2c0.195,0.195,0.195,0.512,0,0.707l-2,2
			C15.756,56.951,15.628,57,15.5,57z"/>
	</g>
	<g>
		<path class="st0" d="M53,55h-6.5c-0.276,0-0.5-0.224-0.5-0.5s0.224-0.5,0.5-0.5H53c1.103,0,2-0.897,2-2v-3.5
			c0-0.276,0.224-0.5,0.5-0.5s0.5,0.224,0.5,0.5V52C56,53.654,54.654,55,53,55z"/>
	</g>
	<g>
		<path class="st0" d="M48.5,57c-0.128,0-0.256-0.049-0.354-0.146l-2-2c-0.195-0.195-0.195-0.512,0-0.707l2-2
			c0.195-0.195,0.512-0.195,0.707,0s0.195,0.512,0,0.707L47.207,54.5l1.646,1.646c0.195,0.195,0.195,0.512,0,0.707
			C48.756,56.951,48.628,57,48.5,57z"/>
	</g>
</g>
</svg>
