<?xml version="1.0" encoding="utf-8"?>
<!-- Generator: Adobe Illustrator 21.1.0, SVG Export Plug-In . SVG Version: 6.00 Build 0)  -->
<svg version="1.1" id="Icon_Set" xmlns="http://www.w3.org/2000/svg" xmlns:xlink="http://www.w3.org/1999/xlink" x="0px" y="0px"
	 viewBox="0 0 64 64" style="enable-background:new 0 0 64 64;" xml:space="preserve">
<style type="text/css">
	.st0{fill:#263238;}
	.st1{fill:#FFD740;}
	.st2{fill:#FF5252;}
	.st3{fill:#40C4FF;}
	.st4{fill:#4DB6AC;}
	.st5{fill:#FFFFFF;}
	.st6{fill:#FFD345;}
</style>
<g>
	<g>
		<path class="st1" d="M48.75,16.25h-2.5c-1.381,0-2.5-1.119-2.5-2.5v0c0-1.381,1.119-2.5,2.5-2.5h2.5V16.25z"/>
		<path class="st0" d="M48.75,16.75h-2.5c-1.654,0-3-1.346-3-3s1.346-3,3-3h2.5c0.276,0,0.5,0.224,0.5,0.5v5
			C49.25,16.526,49.027,16.75,48.75,16.75z M46.25,11.75c-1.103,0-2,0.897-2,2s0.897,2,2,2h2v-4H46.25z"/>
	</g>
	<g>
		<path class="st1" d="M52.75,16.25h2.5c1.381,0,2.5-1.119,2.5-2.5v0c0-1.381-1.119-2.5-2.5-2.5h-2.5V16.25z"/>
		<path class="st0" d="M55.25,16.75h-2.5c-0.276,0-0.5-0.224-0.5-0.5v-5c0-0.276,0.224-0.5,0.5-0.5h2.5c1.654,0,3,1.346,3,3
			S56.905,16.75,55.25,16.75z M53.25,15.75h2c1.103,0,2-0.897,2-2s-0.897-2-2-2h-2V15.75z"/>
	</g>
	<g>
		<path class="st3" d="M57.25,60.75h-13v-29c0-0.552,0.448-1,1-1h11c0.552,0,1,0.448,1,1V60.75z"/>
		<path class="st0" d="M57.25,61.25h-13c-0.276,0-0.5-0.224-0.5-0.5v-29c0-0.827,0.673-1.5,1.5-1.5h11c0.827,0,1.5,0.673,1.5,1.5v29
			C57.75,61.026,57.527,61.25,57.25,61.25z M44.75,60.25h12v-28.5c0-0.276-0.224-0.5-0.5-0.5h-11c-0.276,0-0.5,0.224-0.5,0.5V60.25z
			"/>
	</g>
	<g>
		<path class="st0" d="M38.25,61.25h-13c-0.276,0-0.5-0.224-0.5-0.5v-19c0-0.827,0.673-1.5,1.5-1.5h11c0.827,0,1.5,0.673,1.5,1.5v19
			C38.75,61.026,38.527,61.25,38.25,61.25z M25.75,60.25h12v-18.5c0-0.276-0.224-0.5-0.5-0.5h-11c-0.276,0-0.5,0.224-0.5,0.5V60.25z
			"/>
	</g>
	<g>
		<path class="st0" d="M19.25,61.25h-13c-0.276,0-0.5-0.224-0.5-0.5v-12c0-0.827,0.673-1.5,1.5-1.5h11c0.827,0,1.5,0.673,1.5,1.5v12
			C19.75,61.026,19.527,61.25,19.25,61.25z M6.75,60.25h12v-11.5c0-0.276-0.224-0.5-0.5-0.5h-11c-0.276,0-0.5,0.224-0.5,0.5V60.25z"
			/>
	</g>
	<g>
		<path class="st1" d="M50.75,19.75L50.75,19.75c-2.485,0-4.5-2.015-4.5-4.5v-3c0-0.552,0.448-1,1-1h7c0.552,0,1,0.448,1,1v3
			C55.25,17.735,53.236,19.75,50.75,19.75z"/>
		<path class="st0" d="M50.75,20.25c-2.757,0-5-2.243-5-5v-3c0-0.827,0.673-1.5,1.5-1.5h7c0.827,0,1.5,0.673,1.5,1.5v3
			C55.75,18.007,53.507,20.25,50.75,20.25z M47.25,11.75c-0.276,0-0.5,0.224-0.5,0.5v3c0,2.206,1.794,4,4,4s4-1.794,4-4v-3
			c0-0.276-0.224-0.5-0.5-0.5H47.25z"/>
	</g>
	<g>
		<polygon class="st1" points="52.219,24.25 49.219,24.25 49.719,19.75 51.719,19.75 		"/>
		<path class="st0" d="M52.219,24.75h-3c-0.142,0-0.278-0.061-0.373-0.167s-0.14-0.248-0.125-0.389l0.5-4.5
			c0.028-0.253,0.242-0.445,0.497-0.445h2c0.255,0,0.469,0.191,0.497,0.445l0.5,4.5c0.016,0.141-0.03,0.283-0.125,0.389
			S52.361,24.75,52.219,24.75z M49.778,23.75h1.883l-0.389-3.5h-1.104L49.778,23.75z"/>
	</g>
	<g>
		<path class="st1" d="M54.25,26.75h-7c-0.552,0-1-0.448-1-1v-0.5c0-0.552,0.448-1,1-1h7c0.552,0,1,0.448,1,1v0.5
			C55.25,26.302,54.803,26.75,54.25,26.75z"/>
		<path class="st0" d="M54.25,27.25h-7c-0.827,0-1.5-0.673-1.5-1.5v-0.5c0-0.827,0.673-1.5,1.5-1.5h7c0.827,0,1.5,0.673,1.5,1.5v0.5
			C55.75,26.577,55.078,27.25,54.25,27.25z M47.25,24.75c-0.276,0-0.5,0.224-0.5,0.5v0.5c0,0.276,0.224,0.5,0.5,0.5h7
			c0.276,0,0.5-0.224,0.5-0.5v-0.5c0-0.276-0.224-0.5-0.5-0.5H47.25z"/>
	</g>
	<g>
		<path class="st0" d="M10.751,41.25c-0.046,0-0.092-0.006-0.138-0.019c-0.266-0.076-0.419-0.353-0.344-0.618l0.524-1.835
			c0.91-3.184,3.159-5.797,6.171-7.171s6.46-1.359,9.461,0.041l3.013,1.406l1.507-4.961c1.455-4.79,5.797-8.009,10.804-8.009
			c0.276,0,0.5,0.224,0.5,0.5s-0.224,0.5-0.5,0.5c-4.563,0-8.521,2.934-9.847,7.3l-1.675,5.512
			c-0.042,0.139-0.143,0.252-0.275,0.311s-0.284,0.059-0.415-0.003l-3.536-1.65c-2.735-1.276-5.878-1.29-8.623-0.038
			c-2.746,1.252-4.796,3.635-5.625,6.536l-0.524,1.835C11.168,41.107,10.968,41.25,10.751,41.25z"/>
	</g>
	<g>
		<path class="st2" d="M17.75,19.25H6.25v-8h11.5c0.552,0,1,0.448,1,1v6C18.75,18.802,18.303,19.25,17.75,19.25z"/>
		<path class="st0" d="M17.75,19.75H6.25c-0.276,0-0.5-0.224-0.5-0.5v-8c0-0.276,0.224-0.5,0.5-0.5h11.5c0.827,0,1.5,0.673,1.5,1.5
			v6C19.25,19.077,18.578,19.75,17.75,19.75z M6.75,18.75h11c0.276,0,0.5-0.224,0.5-0.5v-6c0-0.276-0.224-0.5-0.5-0.5h-11V18.75z"/>
	</g>
	<g>
		<path class="st2" d="M23.75,14.25h-5v4c0,0.552-0.448,1-1,1h-7.5v2c0,0.552,0.448,1,1,1h12.5l-3-4L23.75,14.25z"/>
		<path class="st0" d="M23.75,22.75h-12.5c-0.827,0-1.5-0.673-1.5-1.5v-2c0-0.276,0.224-0.5,0.5-0.5h7.5c0.276,0,0.5-0.224,0.5-0.5
			v-4c0-0.276,0.224-0.5,0.5-0.5h5c0.189,0,0.362,0.107,0.447,0.276c0.084,0.169,0.066,0.372-0.047,0.523l-2.775,3.7l2.775,3.7
			c0.114,0.151,0.132,0.354,0.047,0.523C24.113,22.643,23.94,22.75,23.75,22.75z M10.75,19.75v1.5c0,0.276,0.224,0.5,0.5,0.5h11.5
			l-2.4-3.2c-0.133-0.178-0.133-0.422,0-0.6l2.4-3.2h-3.5v3.5c0,0.827-0.673,1.5-1.5,1.5H10.75z"/>
	</g>
	<g>
		<path class="st0" d="M6.25,29.75c-0.276,0-0.5-0.224-0.5-0.5v-20c0-0.276,0.224-0.5,0.5-0.5s0.5,0.224,0.5,0.5v20
			C6.75,29.526,6.527,29.75,6.25,29.75z"/>
	</g>
	<g>
		<path class="st0" d="M39.25,5.75h-4c-0.276,0-0.5-0.224-0.5-0.5s0.224-0.5,0.5-0.5h4c0.276,0,0.5,0.224,0.5,0.5
			S39.527,5.75,39.25,5.75z"/>
	</g>
	<g>
		<path class="st0" d="M37.25,7.75c-0.276,0-0.5-0.224-0.5-0.5v-4c0-0.276,0.224-0.5,0.5-0.5s0.5,0.224,0.5,0.5v4
			C37.75,7.526,37.527,7.75,37.25,7.75z"/>
	</g>
	<g>
		<path class="st0" d="M32.25,12.25h-4c-0.276,0-0.5-0.224-0.5-0.5s0.224-0.5,0.5-0.5h4c0.276,0,0.5,0.224,0.5,0.5
			S32.527,12.25,32.25,12.25z"/>
	</g>
	<g>
		<path class="st0" d="M30.25,14.25c-0.276,0-0.5-0.224-0.5-0.5v-4c0-0.276,0.224-0.5,0.5-0.5s0.5,0.224,0.5,0.5v4
			C30.75,14.026,30.527,14.25,30.25,14.25z"/>
	</g>
	<g>
		<path class="st0" d="M60.25,61.25h-57c-0.276,0-0.5-0.224-0.5-0.5s0.224-0.5,0.5-0.5h57c0.276,0,0.5,0.224,0.5,0.5
			S60.527,61.25,60.25,61.25z"/>
	</g>
</g>
</svg>
