<?xml version="1.0" encoding="utf-8"?>
<!-- Generator: Adobe Illustrator 21.1.0, SVG Export Plug-In . SVG Version: 6.00 Build 0)  -->
<svg version="1.1" id="Icon_Set" xmlns="http://www.w3.org/2000/svg" xmlns:xlink="http://www.w3.org/1999/xlink" x="0px" y="0px"
	 viewBox="0 0 64 64" style="enable-background:new 0 0 64 64;" xml:space="preserve">
<style type="text/css">
	.st0{fill:#263238;}
	.st1{fill:#FFD740;}
	.st2{fill:#FF5252;}
	.st3{fill:#40C4FF;}
	.st4{fill:#4DB6AC;}
	.st5{fill:#FFFFFF;}
	.st6{fill:#FFD345;}
</style>
<g>
	<g>
		<path class="st0" d="M48,17h-7.5c-1.654,0-3-1.346-3-3V6.5c0-0.202,0.122-0.385,0.309-0.462c0.186-0.075,0.402-0.035,0.545,0.108
			l10,10c0.143,0.143,0.186,0.358,0.108,0.545S48.202,17,48,17z M38.5,7.707V14c0,1.103,0.897,2,2,2h6.293L38.5,7.707z"/>
	</g>
	<g>
		<path class="st0" d="M49,3.5h-4c-0.276,0-0.5-0.224-0.5-0.5s0.224-0.5,0.5-0.5h4c0.276,0,0.5,0.224,0.5,0.5S49.276,3.5,49,3.5z"/>
	</g>
	<g>
		<path class="st0" d="M47,5.5c-0.276,0-0.5-0.224-0.5-0.5V1c0-0.276,0.224-0.5,0.5-0.5s0.5,0.224,0.5,0.5v4
			C47.5,5.276,47.276,5.5,47,5.5z"/>
	</g>
	<g>
		<path class="st0" d="M56,10h-4c-0.276,0-0.5-0.224-0.5-0.5S51.724,9,52,9h4c0.276,0,0.5,0.224,0.5,0.5S56.276,10,56,10z"/>
	</g>
	<g>
		<path class="st0" d="M54,12c-0.276,0-0.5-0.224-0.5-0.5v-4C53.5,7.224,53.724,7,54,7s0.5,0.224,0.5,0.5v4
			C54.5,11.776,54.276,12,54,12z"/>
	</g>
	<g>
		<path class="st0" d="M13,3h-1c-0.276,0-0.5-0.224-0.5-0.5S11.724,2,12,2h1c0.276,0,0.5,0.224,0.5,0.5S13.276,3,13,3z"/>
	</g>
	<g>
		<path class="st0" d="M31,3H15c-0.276,0-0.5-0.224-0.5-0.5S14.724,2,15,2h16c0.276,0,0.5,0.224,0.5,0.5S31.276,3,31,3z"/>
	</g>
	<g>
		<path class="st0" d="M31,59h-1c-0.276,0-0.5-0.224-0.5-0.5S29.724,58,30,58h1c0.276,0,0.5,0.224,0.5,0.5S31.276,59,31,59z"/>
	</g>
	<g>
		<path class="st0" d="M28,59H12c-0.276,0-0.5-0.224-0.5-0.5S11.724,58,12,58h16c0.276,0,0.5,0.224,0.5,0.5S28.276,59,28,59z"/>
	</g>
	<g>
		<path class="st0" d="M34.748,55.012L10.499,55C8.846,55,7.5,53.654,7.5,52V9c0-1.654,1.346-3,3-3H38
			c0.133,0,0.26,0.053,0.354,0.146l10,10C48.447,16.24,48.5,16.367,48.5,16.5v27.55c0,0.276-0.224,0.5-0.5,0.5s-0.5-0.224-0.5-0.5
			V16.707L37.793,7H10.5c-1.103,0-2,0.897-2,2v43c0,1.103,0.897,2,2,2c9.655,0.01,27.995,0.021,28.696,0.002
			c0.026-0.002,0.051-0.003,0.077-0.001c0.275,0.02,0.483,0.258,0.465,0.533C39.705,55.01,39.705,55.01,34.748,55.012z"/>
	</g>
	<g>
		<path class="st2" d="M21.636,29.364C23.265,30.993,25.515,32,28,32c4.971,0,9-4.03,9-9h-9L21.636,29.364z"/>
		<path class="st0" d="M28,32.5c-2.538,0-4.924-0.988-6.718-2.782c-0.195-0.195-0.195-0.512,0-0.707l6.364-6.364
			C27.74,22.553,27.867,22.5,28,22.5h9c0.276,0,0.5,0.224,0.5,0.5C37.5,28.238,33.238,32.5,28,32.5z M22.353,29.354
			C23.91,30.741,25.896,31.5,28,31.5c4.519,0,8.226-3.545,8.485-8h-8.278L22.353,29.354z"/>
	</g>
	<g>
		<path class="st0" d="M39,41.5H17c-0.276,0-0.5-0.224-0.5-0.5v-4c0-0.276,0.224-0.5,0.5-0.5h22c0.276,0,0.5,0.224,0.5,0.5v4
			C39.5,41.276,39.276,41.5,39,41.5z M17.5,40.5h21v-3h-21V40.5z"/>
	</g>
	<g>
		<rect x="17" y="37" class="st3" width="6" height="4"/>
		<path class="st0" d="M23,41.5h-6c-0.276,0-0.5-0.224-0.5-0.5v-4c0-0.276,0.224-0.5,0.5-0.5h6c0.276,0,0.5,0.224,0.5,0.5v4
			C23.5,41.276,23.276,41.5,23,41.5z M17.5,40.5h5v-3h-5V40.5z"/>
	</g>
	<g>
		<path class="st0" d="M39,48.5H17c-0.276,0-0.5-0.224-0.5-0.5v-4c0-0.276,0.224-0.5,0.5-0.5h22c0.276,0,0.5,0.224,0.5,0.5v4
			C39.5,48.276,39.276,48.5,39,48.5z M17.5,47.5h21v-3h-21V47.5z"/>
	</g>
	<g>
		<rect x="17" y="44" class="st3" width="6" height="4"/>
		<path class="st0" d="M23,48.5h-6c-0.276,0-0.5-0.224-0.5-0.5v-4c0-0.276,0.224-0.5,0.5-0.5h6c0.276,0,0.5,0.224,0.5,0.5v4
			C23.5,48.276,23.276,48.5,23,48.5z M17.5,47.5h5v-3h-5V47.5z"/>
	</g>
	<g>
		<path class="st4" d="M28,14v9h9C37,18.029,32.97,14,28,14z"/>
		<path class="st0" d="M37,23.5h-9c-0.276,0-0.5-0.224-0.5-0.5v-9c0-0.276,0.224-0.5,0.5-0.5c5.238,0,9.5,4.262,9.5,9.5
			C37.5,23.276,37.276,23.5,37,23.5z M28.5,22.5h7.985c-0.25-4.289-3.696-7.735-7.985-7.985V22.5z"/>
	</g>
	<g>
		<path class="st1" d="M28,23v-9c-4.971,0-9,4.029-9,9c0,2.485,1.007,4.735,2.636,6.364L28,23z"/>
		<path class="st0" d="M21.636,29.864L21.636,29.864c-0.133,0-0.26-0.053-0.354-0.146C19.488,27.923,18.5,25.537,18.5,23
			c0-5.238,4.262-9.5,9.5-9.5c0.276,0,0.5,0.224,0.5,0.5v9c0,0.133-0.053,0.26-0.146,0.354l-6.364,6.364
			C21.896,29.812,21.769,29.864,21.636,29.864z M27.5,14.515c-4.455,0.26-8,3.967-8,8.485c0,2.103,0.759,4.089,2.146,5.646
			l5.854-5.854V14.515z M28,23h0.01H28z"/>
	</g>
	<g>
		<path class="st1" d="M54.69,55.975c0.106-0.475,0.166-0.968,0.166-1.475s-0.06-1-0.166-1.475l0.276-0.158l0.691-0.602
			c0.361-0.315,0.448-0.841,0.207-1.254l-0.888-1.526c-0.239-0.411-0.736-0.598-1.188-0.446l-0.879,0.295l-0.28,0.161
			c-0.731-0.665-1.602-1.18-2.572-1.482V47.7l-0.181-0.897C49.782,46.336,49.37,46,48.892,46h-1.784
			c-0.478,0-0.89,0.336-0.984,0.803L45.943,47.7v0.312c-0.969,0.302-1.841,0.817-2.572,1.482l-0.281-0.161l-0.879-0.295
			c-0.452-0.152-0.949,0.035-1.188,0.446l-0.888,1.526c-0.241,0.414-0.154,0.94,0.207,1.254l0.691,0.602l0.276,0.158
			c-0.106,0.475-0.166,0.968-0.166,1.475s0.06,1,0.166,1.475l-0.277,0.158l-0.691,0.602c-0.361,0.315-0.448,0.841-0.207,1.254
			l0.888,1.526c0.239,0.411,0.736,0.598,1.188,0.446l0.879-0.295l0.281-0.161c0.731,0.665,1.602,1.18,2.572,1.482V61.3l0.181,0.897
			C46.218,62.664,46.63,63,47.108,63h1.784c0.478,0,0.89-0.336,0.984-0.803l0.181-0.897v-0.313c0.969-0.302,1.841-0.817,2.572-1.482
			l0.281,0.161l0.879,0.295c0.452,0.152,0.949-0.035,1.188-0.446l0.888-1.526c0.241-0.414,0.154-0.94-0.207-1.254l-0.691-0.602
			L54.69,55.975z M48.027,58c-1.933,0-3.5-1.567-3.5-3.5s1.567-3.5,3.5-3.5s3.5,1.567,3.5,3.5S49.96,58,48.027,58z"/>
		<path class="st0" d="M48.892,63.5h-1.784c-0.714,0-1.333-0.507-1.474-1.204l-0.182-0.947c-0.778-0.285-1.497-0.699-2.146-1.236
			l-0.936,0.323c-0.675,0.228-1.423-0.056-1.78-0.668l-0.888-1.525c-0.36-0.619-0.229-1.411,0.311-1.884l0.738-0.63
			c-0.072-0.412-0.108-0.824-0.108-1.229s0.036-0.816,0.108-1.229l-0.737-0.63c-0.541-0.473-0.672-1.265-0.311-1.884l0.887-1.525
			c0.357-0.612,1.102-0.893,1.78-0.669l0.935,0.325c0.648-0.537,1.368-0.952,2.147-1.237l0.181-0.947
			c0.141-0.697,0.76-1.204,1.474-1.204h1.784c0.713,0,1.333,0.506,1.475,1.203l0.182,0.948c0.777,0.285,1.496,0.699,2.146,1.236
			l0.936-0.323c0.676-0.228,1.424,0.055,1.78,0.668l0.888,1.525c0.36,0.619,0.229,1.411-0.311,1.884l-0.738,0.63
			c0.072,0.412,0.108,0.824,0.108,1.229s-0.036,0.816-0.108,1.229l0.737,0.63c0.541,0.473,0.672,1.265,0.311,1.884l-0.887,1.525
			c-0.356,0.612-1.1,0.894-1.78,0.669l-0.935-0.325c-0.648,0.537-1.368,0.952-2.146,1.237l-0.182,0.947
			C50.225,62.994,49.604,63.5,48.892,63.5z M43.371,59.006c0.121,0,0.242,0.044,0.337,0.13c0.699,0.638,1.502,1.1,2.384,1.374
			c0.209,0.065,0.352,0.259,0.352,0.478v0.313l0.171,0.798c0.047,0.232,0.254,0.401,0.493,0.401h1.784
			c0.239,0,0.447-0.169,0.494-0.402l0.181-0.896l-0.01-0.215c0-0.219,0.143-0.412,0.352-0.478c0.882-0.274,1.685-0.736,2.384-1.374
			c0.162-0.147,0.399-0.172,0.586-0.063l0.28,0.161l0.789,0.255c0.224,0.073,0.477-0.019,0.597-0.225l0.888-1.525
			c0.12-0.206,0.077-0.469-0.104-0.626l-0.69-0.602l-0.198-0.103c-0.189-0.109-0.286-0.329-0.238-0.543
			c0.104-0.458,0.155-0.918,0.155-1.365s-0.052-0.907-0.155-1.366c-0.048-0.214,0.05-0.435,0.24-0.543l0.276-0.158l0.611-0.545
			c0.18-0.157,0.223-0.42,0.104-0.626l-0.889-1.525c-0.118-0.207-0.371-0.302-0.597-0.224l-0.879,0.294l-0.19,0.121
			c-0.187,0.107-0.426,0.083-0.585-0.063c-0.701-0.638-1.504-1.1-2.385-1.374c-0.209-0.065-0.352-0.259-0.352-0.478V47.7
			l-0.171-0.799c-0.047-0.232-0.255-0.401-0.494-0.401h-1.784c-0.239,0-0.446,0.169-0.493,0.401l-0.181,0.897l0.01,0.214
			c0,0.219-0.143,0.412-0.352,0.478c-0.882,0.274-1.685,0.736-2.384,1.374c-0.162,0.146-0.401,0.171-0.586,0.063l-0.28-0.161
			l-0.789-0.255c-0.227-0.077-0.478,0.018-0.597,0.225l-0.888,1.525c-0.12,0.206-0.077,0.469,0.104,0.626l0.69,0.602l0.196,0.102
			c0.19,0.108,0.288,0.329,0.24,0.543c-0.104,0.459-0.155,0.919-0.155,1.366s0.052,0.907,0.155,1.365
			c0.048,0.214-0.05,0.434-0.239,0.543l-0.277,0.159l-0.611,0.545c-0.18,0.157-0.223,0.42-0.104,0.626l0.889,1.525
			c0.118,0.207,0.372,0.304,0.597,0.224l0.879-0.294l0.19-0.121C43.199,59.027,43.285,59.006,43.371,59.006z M48.027,58.5
			c-2.206,0-4-1.794-4-4s1.794-4,4-4s4,1.794,4,4S50.233,58.5,48.027,58.5z M48.027,51.5c-1.654,0-3,1.346-3,3s1.346,3,3,3
			s3-1.346,3-3S49.682,51.5,48.027,51.5z"/>
	</g>
</g>
</svg>
