<?xml version="1.0" encoding="utf-8"?>
<!-- Generator: Adobe Illustrator 21.1.0, SVG Export Plug-In . SVG Version: 6.00 Build 0)  -->
<svg version="1.1" id="Icon_Set" xmlns="http://www.w3.org/2000/svg" xmlns:xlink="http://www.w3.org/1999/xlink" x="0px" y="0px"
	 viewBox="0 0 64 64" style="enable-background:new 0 0 64 64;" xml:space="preserve">
<style type="text/css">
	.st0{fill:#263238;}
	.st1{fill:#FFD740;}
	.st2{fill:#FF5252;}
	.st3{fill:#40C4FF;}
	.st4{fill:#4DB6AC;}
	.st5{fill:#FFFFFF;}
	.st6{fill:#FFD345;}
</style>
<g>
	<g>
		<path class="st0" d="M51.5,54.5h-39c-1.654,0-3-1.346-3-3v-39c0-1.654,1.346-3,3-3h39c1.654,0,3,1.346,3,3v39
			C54.5,53.154,53.154,54.5,51.5,54.5z M12.5,10.5c-1.103,0-2,0.897-2,2v39c0,1.103,0.897,2,2,2h39c1.103,0,2-0.897,2-2v-39
			c0-1.103-0.897-2-2-2H12.5z"/>
	</g>
	<g>
		<path class="st3" d="M8,56V32H3c-0.552,0-1,0.448-1,1v28c0,0.552,0.448,1,1,1h28c0.552,0,1-0.448,1-1v-5H8z"/>
	</g>
	<g>
		<path class="st0" d="M31,62.5H3c-0.827,0-1.5-0.673-1.5-1.5V33c0-0.827,0.673-1.5,1.5-1.5h5c0.276,0,0.5,0.224,0.5,0.5
			S8.276,32.5,8,32.5H3c-0.276,0-0.5,0.225-0.5,0.5v28c0,0.275,0.224,0.5,0.5,0.5h28c0.276,0,0.5-0.225,0.5-0.5v-5
			c0-0.276,0.224-0.5,0.5-0.5s0.5,0.224,0.5,0.5v5C32.5,61.827,31.827,62.5,31,62.5z"/>
	</g>
	<g>
		<path class="st1" d="M25.887,13l8.314,8.314L13,42.515L13,50c0,0.552,0.448,1,1,1l7.485,0l21.201-21.201L51,38.113L51,14
			c0-0.552-0.448-1-1-1L25.887,13z"/>
	</g>
	<g>
		<path class="st0" d="M21.485,51.5c-0.128,0-0.256-0.049-0.354-0.146c-0.195-0.195-0.195-0.512,0-0.707l21.201-21.201
			c0.195-0.195,0.512-0.195,0.707,0l7.46,7.46V14c0-0.275-0.224-0.5-0.5-0.5H27.094l7.46,7.46c0.094,0.094,0.146,0.221,0.146,0.354
			s-0.053,0.26-0.146,0.354L13.354,42.868c-0.195,0.195-0.512,0.195-0.707,0s-0.195-0.512,0-0.707l20.848-20.848l-7.96-7.96
			c-0.143-0.143-0.186-0.358-0.108-0.545c0.077-0.187,0.26-0.309,0.462-0.309H50c0.827,0,1.5,0.673,1.5,1.5v24.112
			c0,0.202-0.122,0.385-0.309,0.462c-0.187,0.077-0.401,0.035-0.545-0.108l-7.96-7.96L21.839,51.354
			C21.741,51.451,21.613,51.5,21.485,51.5z"/>
	</g>
	<g>
		<path class="st0" d="M38,58.5h-1c-0.276,0-0.5-0.224-0.5-0.5s0.224-0.5,0.5-0.5h1c0.276,0,0.5,0.224,0.5,0.5S38.276,58.5,38,58.5z
			"/>
	</g>
	<g>
		<path class="st0" d="M51,58.5H40c-0.276,0-0.5-0.224-0.5-0.5s0.224-0.5,0.5-0.5h11c0.276,0,0.5,0.224,0.5,0.5S51.276,58.5,51,58.5
			z"/>
	</g>
	<g>
		<path class="st0" d="M6,27.5c-0.276,0-0.5-0.224-0.5-0.5v-1c0-0.276,0.224-0.5,0.5-0.5s0.5,0.224,0.5,0.5v1
			C6.5,27.276,6.276,27.5,6,27.5z"/>
	</g>
	<g>
		<path class="st0" d="M6,24.5c-0.276,0-0.5-0.224-0.5-0.5V13c0-0.276,0.224-0.5,0.5-0.5s0.5,0.224,0.5,0.5v11
			C6.5,24.276,6.276,24.5,6,24.5z"/>
	</g>
	<g>
		<path class="st0" d="M55,4.5h-4c-0.276,0-0.5-0.224-0.5-0.5s0.224-0.5,0.5-0.5h4c0.276,0,0.5,0.224,0.5,0.5S55.276,4.5,55,4.5z"/>
	</g>
	<g>
		<path class="st0" d="M53,6.5c-0.276,0-0.5-0.224-0.5-0.5V2c0-0.276,0.224-0.5,0.5-0.5s0.5,0.224,0.5,0.5v4
			C53.5,6.276,53.276,6.5,53,6.5z"/>
	</g>
	<g>
		<path class="st0" d="M62,10.5h-4c-0.276,0-0.5-0.224-0.5-0.5s0.224-0.5,0.5-0.5h4c0.276,0,0.5,0.224,0.5,0.5S62.276,10.5,62,10.5z
			"/>
	</g>
	<g>
		<path class="st0" d="M60,12.5c-0.276,0-0.5-0.224-0.5-0.5V8c0-0.276,0.224-0.5,0.5-0.5s0.5,0.224,0.5,0.5v4
			C60.5,12.276,60.276,12.5,60,12.5z"/>
	</g>
</g>
</svg>
