<?xml version="1.0" encoding="utf-8"?>
<!-- Generator: Adobe Illustrator 21.1.0, SVG Export Plug-In . SVG Version: 6.00 Build 0)  -->
<svg version="1.1" id="Icon_Set" xmlns="http://www.w3.org/2000/svg" xmlns:xlink="http://www.w3.org/1999/xlink" x="0px" y="0px"
	 viewBox="0 0 64 64" style="enable-background:new 0 0 64 64;" xml:space="preserve">
<style type="text/css">
	.st0{fill:#263238;}
	.st1{fill:#FFD740;}
	.st2{fill:#FF5252;}
	.st3{fill:#40C4FF;}
	.st4{fill:#4DB6AC;}
	.st5{fill:#FFFFFF;}
	.st6{fill:#FFD345;}
</style>
<g>
	<g>
		<path class="st0" d="M15.5,42.5c-0.276,0-0.5-0.224-0.5-0.5v-3.5c0-0.276,0.224-0.5,0.5-0.5s0.5,0.224,0.5,0.5V42
			C16,42.276,15.776,42.5,15.5,42.5z"/>
	</g>
	<g>
		<path class="st0" d="M48.5,42.5c-0.276,0-0.5-0.224-0.5-0.5v-3.5c0-0.276,0.224-0.5,0.5-0.5s0.5,0.224,0.5,0.5V42
			C49,42.276,48.776,42.5,48.5,42.5z"/>
	</g>
	<g>
		<path class="st0" d="M25,59.5H6c-0.827,0-1.5-0.673-1.5-1.5V45c0-0.827,0.673-1.5,1.5-1.5h19c0.827,0,1.5,0.673,1.5,1.5v13
			C26.5,58.827,25.827,59.5,25,59.5z M6,44.5c-0.276,0-0.5,0.225-0.5,0.5v13c0,0.275,0.224,0.5,0.5,0.5h19
			c0.276,0,0.5-0.225,0.5-0.5V45c0-0.275-0.224-0.5-0.5-0.5H6z"/>
	</g>
	<g>
		<path class="st0" d="M28,62.5H3c-0.827,0-1.5-0.673-1.5-1.5v-1c0-0.827,0.673-1.5,1.5-1.5h25c0.827,0,1.5,0.673,1.5,1.5v1
			C29.5,61.827,28.827,62.5,28,62.5z M3,59.5c-0.276,0-0.5,0.225-0.5,0.5v1c0,0.275,0.224,0.5,0.5,0.5h25c0.276,0,0.5-0.225,0.5-0.5
			v-1c0-0.275-0.224-0.5-0.5-0.5H3z"/>
	</g>
	<g>
		<rect x="5" y="46.5" class="st3" width="21" height="10"/>
		<path class="st0" d="M26,57H5c-0.276,0-0.5-0.224-0.5-0.5v-10C4.5,46.224,4.724,46,5,46h21c0.276,0,0.5,0.224,0.5,0.5v10
			C26.5,56.776,26.276,57,26,57z M5.5,56h20v-9h-20V56z"/>
	</g>
	<g>
		<path class="st0" d="M58,59.5H39c-0.827,0-1.5-0.673-1.5-1.5V45c0-0.827,0.673-1.5,1.5-1.5h19c0.827,0,1.5,0.673,1.5,1.5v13
			C59.5,58.827,58.827,59.5,58,59.5z M39,44.5c-0.276,0-0.5,0.225-0.5,0.5v13c0,0.275,0.224,0.5,0.5,0.5h19
			c0.276,0,0.5-0.225,0.5-0.5V45c0-0.275-0.224-0.5-0.5-0.5H39z"/>
	</g>
	<g>
		<path class="st0" d="M61,62.5H36c-0.827,0-1.5-0.673-1.5-1.5v-1c0-0.827,0.673-1.5,1.5-1.5h25c0.827,0,1.5,0.673,1.5,1.5v1
			C62.5,61.827,61.827,62.5,61,62.5z M36,59.5c-0.276,0-0.5,0.225-0.5,0.5v1c0,0.275,0.224,0.5,0.5,0.5h25
			c0.276,0,0.5-0.225,0.5-0.5v-1c0-0.275-0.224-0.5-0.5-0.5H36z"/>
	</g>
	<g>
		<rect x="38" y="46.5" class="st3" width="21" height="10"/>
		<path class="st0" d="M59,57H38c-0.276,0-0.5-0.224-0.5-0.5v-10c0-0.276,0.224-0.5,0.5-0.5h21c0.276,0,0.5,0.224,0.5,0.5v10
			C59.5,56.776,59.276,57,59,57z M38.5,56h20v-9h-20V56z"/>
	</g>
	<g>
		<path class="st0" d="M17,4.5h-4c-0.276,0-0.5-0.224-0.5-0.5s0.224-0.5,0.5-0.5h4c0.276,0,0.5,0.224,0.5,0.5S17.276,4.5,17,4.5z"/>
	</g>
	<g>
		<path class="st0" d="M15,6.5c-0.276,0-0.5-0.224-0.5-0.5V2c0-0.276,0.224-0.5,0.5-0.5s0.5,0.224,0.5,0.5v4
			C15.5,6.276,15.276,6.5,15,6.5z"/>
	</g>
	<g>
		<path class="st0" d="M10,11H6c-0.276,0-0.5-0.224-0.5-0.5S5.724,10,6,10h4c0.276,0,0.5,0.224,0.5,0.5S10.276,11,10,11z"/>
	</g>
	<g>
		<path class="st0" d="M8,13c-0.276,0-0.5-0.224-0.5-0.5v-4C7.5,8.224,7.724,8,8,8s0.5,0.224,0.5,0.5v4C8.5,12.776,8.276,13,8,13z"
			/>
	</g>
	<g>
		<circle class="st1" cx="32" cy="16.5" r="12"/>
		<path class="st0" d="M32,29c-6.893,0-12.5-5.607-12.5-12.5S25.107,4,32,4s12.5,5.607,12.5,12.5S38.893,29,32,29z M32,5
			c-6.341,0-11.5,5.159-11.5,11.5S25.659,28,32,28s11.5-5.159,11.5-11.5S38.341,5,32,5z"/>
	</g>
	<g>
		<path class="st0" d="M32,11c-3.475,0-6.817-0.752-9.17-2.063c-0.241-0.134-0.328-0.438-0.193-0.68
			c0.133-0.242,0.439-0.328,0.68-0.193C25.525,9.294,28.69,10,32,10s6.475-0.706,8.683-1.937c0.241-0.134,0.546-0.048,0.68,0.193
			c0.135,0.241,0.048,0.546-0.193,0.68C38.817,10.248,35.475,11,32,11z"/>
	</g>
	<g>
		<path class="st0" d="M40.926,25c-0.083,0-0.166-0.021-0.243-0.063C38.475,23.706,35.31,23,32,23s-6.475,0.706-8.683,1.937
			c-0.241,0.134-0.546,0.048-0.68-0.193c-0.135-0.241-0.048-0.546,0.193-0.68C25.183,22.752,28.525,22,32,22s6.817,0.752,9.17,2.063
			c0.241,0.134,0.328,0.438,0.193,0.68C41.271,24.907,41.101,25,40.926,25z"/>
	</g>
	<g>
		<path class="st0" d="M32,29c-4.372,0-7.929-5.607-7.929-12.5S27.628,4,32,4s7.929,5.607,7.929,12.5S36.372,29,32,29z M32,5
			c-3.82,0-6.929,5.159-6.929,11.5S28.18,28,32,28s6.929-5.159,6.929-11.5S35.82,5,32,5z"/>
	</g>
	<g>
		<path class="st0" d="M32,29c-0.276,0-0.5-0.224-0.5-0.5v-24C31.5,4.224,31.724,4,32,4s0.5,0.224,0.5,0.5v24
			C32.5,28.776,32.276,29,32,29z"/>
	</g>
	<g>
		<path class="st0" d="M44,17H20c-0.276,0-0.5-0.224-0.5-0.5S19.724,16,20,16h24c0.276,0,0.5,0.224,0.5,0.5S44.276,17,44,17z"/>
	</g>
	<g>
		<path class="st0" d="M56,36.5H8c-0.276,0-0.5-0.224-0.5-0.5s0.224-0.5,0.5-0.5h48c0.276,0,0.5,0.224,0.5,0.5S56.276,36.5,56,36.5z
			"/>
	</g>
	<g>
		<path class="st0" d="M32,34c-0.276,0-0.5-0.224-0.5-0.5v-3c0-0.276,0.224-0.5,0.5-0.5s0.5,0.224,0.5,0.5v3
			C32.5,33.776,32.276,34,32,34z"/>
	</g>
	<g>
		<circle class="st5" cx="32" cy="36" r="2.5"/>
		<path class="st0" d="M32,38.953c-1.628,0-2.954-1.324-2.954-2.953s1.325-2.953,2.954-2.953s2.954,1.324,2.954,2.953
			S33.629,38.953,32,38.953z M32,33.953c-1.128,0-2.046,0.918-2.046,2.047s0.918,2.047,2.046,2.047s2.046-0.918,2.046-2.047
			S33.129,33.953,32,33.953z"/>
	</g>
	<g>
		<circle class="st5" cx="48.5" cy="36" r="2.5"/>
		<path class="st0" d="M48.5,38.953c-1.628,0-2.954-1.324-2.954-2.953s1.325-2.953,2.954-2.953s2.954,1.324,2.954,2.953
			S50.128,38.953,48.5,38.953z M48.5,33.953c-1.128,0-2.046,0.918-2.046,2.047s0.918,2.047,2.046,2.047s2.046-0.918,2.046-2.047
			S49.628,33.953,48.5,33.953z"/>
	</g>
	<g>
		<circle class="st5" cx="15.5" cy="36" r="2.5"/>
		<path class="st0" d="M15.5,38.953c-1.628,0-2.954-1.324-2.954-2.953s1.325-2.953,2.954-2.953s2.954,1.324,2.954,2.953
			S17.128,38.953,15.5,38.953z M15.5,33.953c-1.128,0-2.046,0.918-2.046,2.047s0.918,2.047,2.046,2.047s2.046-0.918,2.046-2.047
			S16.628,33.953,15.5,33.953z"/>
	</g>
</g>
</svg>
