<?xml version="1.0" encoding="utf-8"?>
<!-- Generator: Adobe Illustrator 21.1.0, SVG Export Plug-In . SVG Version: 6.00 Build 0)  -->
<svg version="1.1" id="Icon_Set" xmlns="http://www.w3.org/2000/svg" xmlns:xlink="http://www.w3.org/1999/xlink" x="0px" y="0px"
	 viewBox="0 0 64 64" style="enable-background:new 0 0 64 64;" xml:space="preserve">
<style type="text/css">
	.st0{fill:#263238;}
	.st1{fill:#FFD740;}
	.st2{fill:#FF5252;}
	.st3{fill:#40C4FF;}
	.st4{fill:#4DB6AC;}
	.st5{fill:#FFFFFF;}
	.st6{fill:#FFD345;}
</style>
<g>
	<g>
		<path class="st0" d="M41.521,42.5H22.479c-0.83,0-1.479-0.549-1.479-1.25v-4.5c0-0.701,0.649-1.25,1.479-1.25h19.041
			c0.83,0,1.479,0.549,1.479,1.25v4.5C43,41.951,42.351,42.5,41.521,42.5z M22.479,36.5C22.182,36.5,22,36.662,22,36.75v4.5
			c0,0.088,0.182,0.25,0.479,0.25h19.041c0.298,0,0.479-0.162,0.479-0.25v-4.5c0-0.088-0.182-0.25-0.479-0.25H22.479z"/>
	</g>
	<g>
		<path class="st0" d="M38.75,39.5h-5.5c-0.276,0-0.5-0.224-0.5-0.5s0.224-0.5,0.5-0.5h5.5c0.276,0,0.5,0.224,0.5,0.5
			S39.026,39.5,38.75,39.5z"/>
	</g>
	<g>
		<path class="st0" d="M29.25,40.5h-4c-0.276,0-0.5-0.224-0.5-0.5v-2c0-0.276,0.224-0.5,0.5-0.5h4c0.276,0,0.5,0.224,0.5,0.5v2
			C29.75,40.276,29.526,40.5,29.25,40.5z M25.75,39.5h3v-1h-3V39.5z"/>
	</g>
	<g>
		<path class="st0" d="M41.521,48.5H22.479c-0.83,0-1.479-0.549-1.479-1.25v-4.5c0-0.701,0.649-1.25,1.479-1.25h19.041
			c0.83,0,1.479,0.549,1.479,1.25v4.5C43,47.951,42.351,48.5,41.521,48.5z M22.479,42.5C22.182,42.5,22,42.662,22,42.75v4.5
			c0,0.088,0.182,0.25,0.479,0.25h19.041c0.298,0,0.479-0.162,0.479-0.25v-4.5c0-0.088-0.182-0.25-0.479-0.25H22.479z"/>
	</g>
	<g>
		<path class="st0" d="M38.75,45.5h-5.5c-0.276,0-0.5-0.224-0.5-0.5s0.224-0.5,0.5-0.5h5.5c0.276,0,0.5,0.224,0.5,0.5
			S39.026,45.5,38.75,45.5z"/>
	</g>
	<g>
		<path class="st0" d="M29.25,46.5h-4c-0.276,0-0.5-0.224-0.5-0.5v-2c0-0.276,0.224-0.5,0.5-0.5h4c0.276,0,0.5,0.224,0.5,0.5v2
			C29.75,46.276,29.526,46.5,29.25,46.5z M25.75,45.5h3v-1h-3V45.5z"/>
	</g>
	<g>
		<path class="st0" d="M41.521,54.5H22.479c-0.83,0-1.479-0.549-1.479-1.25v-4.5c0-0.701,0.649-1.25,1.479-1.25h19.041
			c0.83,0,1.479,0.549,1.479,1.25v4.5C43,53.951,42.351,54.5,41.521,54.5z M22.479,48.5C22.182,48.5,22,48.662,22,48.75v4.5
			c0,0.088,0.182,0.25,0.479,0.25h19.041c0.298,0,0.479-0.162,0.479-0.25v-4.5c0-0.088-0.182-0.25-0.479-0.25H22.479z"/>
	</g>
	<g>
		<path class="st0" d="M38.75,51.5h-5.5c-0.276,0-0.5-0.224-0.5-0.5s0.224-0.5,0.5-0.5h5.5c0.276,0,0.5,0.224,0.5,0.5
			S39.026,51.5,38.75,51.5z"/>
	</g>
	<g>
		<path class="st0" d="M29.25,52.5h-4c-0.276,0-0.5-0.224-0.5-0.5v-2c0-0.276,0.224-0.5,0.5-0.5h4c0.276,0,0.5,0.224,0.5,0.5v2
			C29.75,52.276,29.526,52.5,29.25,52.5z M25.75,51.5h3v-1h-3V51.5z"/>
	</g>
	<g>
		<path class="st0" d="M41,59.5H23c-0.276,0-0.5-0.224-0.5-0.5s0.224-0.5,0.5-0.5h18c0.276,0,0.5,0.224,0.5,0.5S41.276,59.5,41,59.5
			z"/>
	</g>
	<g>
		<path class="st0" d="M27,57.5c-0.276,0-0.5-0.224-0.5-0.5v-3c0-0.276,0.224-0.5,0.5-0.5s0.5,0.224,0.5,0.5v3
			C27.5,57.276,27.276,57.5,27,57.5z"/>
	</g>
	<g>
		<path class="st0" d="M37,57.5c-0.276,0-0.5-0.224-0.5-0.5v-3c0-0.276,0.224-0.5,0.5-0.5s0.5,0.224,0.5,0.5v3
			C37.5,57.276,37.276,57.5,37,57.5z"/>
	</g>
	<g>
		<rect x="8" y="5" class="st1" width="8" height="8"/>
		<path class="st0" d="M16,13.5H8c-0.276,0-0.5-0.224-0.5-0.5V5c0-0.276,0.224-0.5,0.5-0.5h8c0.276,0,0.5,0.224,0.5,0.5v8
			C16.5,13.276,16.276,13.5,16,13.5z M8.5,12.5h7v-7h-7V12.5z"/>
	</g>
	<g>
		<rect x="21.5" y="5" class="st3" width="8" height="8"/>
		<path class="st0" d="M29.5,13.5h-8c-0.276,0-0.5-0.224-0.5-0.5V5c0-0.276,0.224-0.5,0.5-0.5h8C29.776,4.5,30,4.724,30,5v8
			C30,13.276,29.776,13.5,29.5,13.5z M22,12.5h7v-7h-7V12.5z"/>
	</g>
	<g>
		<rect x="34.5" y="5" class="st3" width="8" height="8"/>
		<path class="st0" d="M42.5,13.5h-8c-0.276,0-0.5-0.224-0.5-0.5V5c0-0.276,0.224-0.5,0.5-0.5h8C42.776,4.5,43,4.724,43,5v8
			C43,13.276,42.776,13.5,42.5,13.5z M35,12.5h7v-7h-7V12.5z"/>
	</g>
	<g>
		<rect x="48" y="5" class="st1" width="8" height="8"/>
		<path class="st0" d="M56,13.5h-8c-0.276,0-0.5-0.224-0.5-0.5V5c0-0.276,0.224-0.5,0.5-0.5h8c0.276,0,0.5,0.224,0.5,0.5v8
			C56.5,13.276,56.276,13.5,56,13.5z M48.5,12.5h7v-7h-7V12.5z"/>
	</g>
	<g>
		<path class="st0" d="M16,25.5H8c-0.276,0-0.5-0.224-0.5-0.5v-8c0-0.276,0.224-0.5,0.5-0.5h8c0.276,0,0.5,0.224,0.5,0.5v8
			C16.5,25.276,16.276,25.5,16,25.5z M8.5,24.5h7v-7h-7V24.5z"/>
	</g>
	<g>
		<rect x="21.5" y="17" class="st2" width="8" height="8"/>
		<path class="st0" d="M29.5,25.5h-8c-0.276,0-0.5-0.224-0.5-0.5v-8c0-0.276,0.224-0.5,0.5-0.5h8c0.276,0,0.5,0.224,0.5,0.5v8
			C30,25.276,29.776,25.5,29.5,25.5z M22,24.5h7v-7h-7V24.5z"/>
	</g>
	<g>
		<rect x="34.5" y="17" class="st2" width="8" height="8"/>
		<path class="st0" d="M42.5,25.5h-8c-0.276,0-0.5-0.224-0.5-0.5v-8c0-0.276,0.224-0.5,0.5-0.5h8c0.276,0,0.5,0.224,0.5,0.5v8
			C43,25.276,42.776,25.5,42.5,25.5z M35,24.5h7v-7h-7V24.5z"/>
	</g>
	<g>
		<path class="st0" d="M56,25.5h-8c-0.276,0-0.5-0.224-0.5-0.5v-8c0-0.276,0.224-0.5,0.5-0.5h8c0.276,0,0.5,0.224,0.5,0.5v8
			C56.5,25.276,56.276,25.5,56,25.5z M48.5,24.5h7v-7h-7V24.5z"/>
	</g>
	<g>
		<path class="st0" d="M19.5,45.5H13c-0.827,0-1.5-0.673-1.5-1.5V27c0-0.276,0.224-0.5,0.5-0.5s0.5,0.224,0.5,0.5v17
			c0,0.276,0.225,0.5,0.5,0.5h6.5c0.276,0,0.5,0.224,0.5,0.5S19.776,45.5,19.5,45.5z"/>
	</g>
	<g>
		<path class="st0" d="M51,45.5h-6.5c-0.276,0-0.5-0.224-0.5-0.5s0.224-0.5,0.5-0.5H51c0.275,0,0.5-0.224,0.5-0.5V27
			c0-0.276,0.224-0.5,0.5-0.5s0.5,0.224,0.5,0.5v17C52.5,44.827,51.827,45.5,51,45.5z"/>
	</g>
	<g>
		<path class="st0" d="M6,54.5H5c-0.276,0-0.5-0.224-0.5-0.5s0.224-0.5,0.5-0.5h1c0.276,0,0.5,0.224,0.5,0.5S6.276,54.5,6,54.5z"/>
	</g>
	<g>
		<path class="st0" d="M16,54.5H8c-0.276,0-0.5-0.224-0.5-0.5s0.224-0.5,0.5-0.5h8c0.276,0,0.5,0.224,0.5,0.5S16.276,54.5,16,54.5z"
			/>
	</g>
	<g>
		<path class="st0" d="M59,54.5h-1c-0.276,0-0.5-0.224-0.5-0.5s0.224-0.5,0.5-0.5h1c0.276,0,0.5,0.224,0.5,0.5S59.276,54.5,59,54.5z
			"/>
	</g>
	<g>
		<path class="st0" d="M56,54.5h-8c-0.276,0-0.5-0.224-0.5-0.5s0.224-0.5,0.5-0.5h8c0.276,0,0.5,0.224,0.5,0.5S56.276,54.5,56,54.5z
			"/>
	</g>
</g>
</svg>
