<?xml version="1.0" encoding="utf-8"?>
<!-- Generator: Adobe Illustrator 21.1.0, SVG Export Plug-In . SVG Version: 6.00 Build 0)  -->
<svg version="1.1" id="Icon_Set" xmlns="http://www.w3.org/2000/svg" xmlns:xlink="http://www.w3.org/1999/xlink" x="0px" y="0px"
	 viewBox="0 0 64 64" style="enable-background:new 0 0 64 64;" xml:space="preserve">
<style type="text/css">
	.st0{fill:#263238;}
	.st1{fill:#FFD740;}
	.st2{fill:#FF5252;}
	.st3{fill:#40C4FF;}
	.st4{fill:#4DB6AC;}
	.st5{fill:#FFFFFF;}
	.st6{fill:#FFD345;}
</style>
<g>
	<g>
		<path class="st0" d="M16.5,8h-4C12.224,8,12,7.776,12,7.5S12.224,7,12.5,7h4C16.776,7,17,7.224,17,7.5S16.776,8,16.5,8z"/>
	</g>
	<g>
		<path class="st0" d="M14.5,10C14.224,10,14,9.776,14,9.5v-4C14,5.224,14.224,5,14.5,5S15,5.224,15,5.5v4
			C15,9.776,14.776,10,14.5,10z"/>
	</g>
	<g>
		<path class="st0" d="M9.5,14.5h-4C5.224,14.5,5,14.276,5,14s0.224-0.5,0.5-0.5h4c0.276,0,0.5,0.224,0.5,0.5S9.776,14.5,9.5,14.5z"
			/>
	</g>
	<g>
		<path class="st0" d="M7.5,16.5C7.224,16.5,7,16.276,7,16v-4c0-0.276,0.224-0.5,0.5-0.5S8,11.724,8,12v4
			C8,16.276,7.776,16.5,7.5,16.5z"/>
	</g>
	<g>
		<path class="st0" d="M32.5,59c-8.17,0-15.76-3.684-20.823-10.108C7.963,44.181,6,38.513,6,32.5C6,32.224,6.224,32,6.5,32
			S7,32.224,7,32.5c0,5.786,1.889,11.24,5.462,15.773C17.335,54.455,24.639,58,32.5,58c0.276,0,0.5,0.224,0.5,0.5S32.776,59,32.5,59
			z"/>
	</g>
	<g>
		<path class="st0" d="M58.5,33c-0.276,0-0.5-0.224-0.5-0.5C58,18.439,46.561,7,32.5,7C32.224,7,32,6.776,32,6.5S32.224,6,32.5,6
			C47.112,6,59,17.888,59,32.5C59,32.776,58.776,33,58.5,33z"/>
	</g>
	<g>
		<path class="st0" d="M30.5,7h-1C29.224,7,29,6.776,29,6.5S29.224,6,29.5,6h1C30.777,6,31,6.224,31,6.5S30.777,7,30.5,7z"/>
	</g>
	<g>
		<path class="st0" d="M35.5,59h-1c-0.276,0-0.5-0.224-0.5-0.5s0.224-0.5,0.5-0.5h1c0.276,0,0.5,0.224,0.5,0.5S35.777,59,35.5,59z"
			/>
	</g>
	<g>
		<path class="st1" d="M32.5,17c6.796,0,12.57,4.402,14.657,10.5h-3.299l5.5,5.5l5.5-5.5h-2.5C50.117,18.61,42.076,12,32.5,12
			s-17.617,6.61-19.858,15.5h5.201C19.93,21.402,25.704,17,32.5,17z"/>
		<path class="st0" d="M49.357,33.5c-0.128,0-0.256-0.049-0.354-0.146l-5.5-5.5c-0.143-0.143-0.186-0.358-0.108-0.545
			C43.473,27.122,43.655,27,43.857,27h2.583c-2.256-5.711-7.771-9.5-13.94-9.5c-6.404,0-12.104,4.083-14.184,10.162
			C18.247,27.864,18.057,28,17.843,28h-5.201c-0.154,0-0.3-0.071-0.395-0.193s-0.128-0.28-0.09-0.429
			C14.514,18.029,22.879,11.5,32.5,11.5c9.491,0,17.759,6.354,20.243,15.5h2.114c0.202,0,0.385,0.122,0.462,0.309
			c0.078,0.187,0.035,0.402-0.108,0.545l-5.5,5.5C49.613,33.451,49.485,33.5,49.357,33.5z M45.064,28l4.293,4.293L53.65,28h-1.293
			c-0.229,0-0.429-0.156-0.485-0.378C49.628,18.718,41.662,12.5,32.5,12.5c-8.947,0-16.754,5.93-19.205,14.5h4.195
			c2.311-6.295,8.298-10.5,15.01-10.5c6.832,0,12.912,4.355,15.13,10.838c0.052,0.153,0.027,0.321-0.066,0.453S47.318,28,47.157,28
			H45.064z"/>
	</g>
	<g>
		<path class="st1" d="M32.5,48c-6.796,0-12.57-4.402-14.657-10.5h3.299l-5.5-5.5l-5.5,5.5h2.5C14.883,46.39,22.924,53,32.5,53
			s17.617-6.61,19.858-15.5h-5.201C45.07,43.598,39.296,48,32.5,48z"/>
		<path class="st0" d="M32.5,53.5c-9.491,0-17.759-6.354-20.243-15.5h-2.114c-0.202,0-0.385-0.122-0.462-0.309
			c-0.078-0.187-0.035-0.402,0.108-0.545l5.5-5.5c0.195-0.195,0.512-0.195,0.707,0l5.5,5.5c0.143,0.143,0.186,0.358,0.108,0.545
			C21.527,37.878,21.345,38,21.143,38H18.56c2.256,5.711,7.771,9.5,13.94,9.5c6.404,0,12.104-4.083,14.184-10.162
			C46.753,37.136,46.943,37,47.157,37h5.201c0.154,0,0.3,0.071,0.395,0.193s0.128,0.28,0.09,0.429
			C50.486,46.971,42.121,53.5,32.5,53.5z M11.35,37h1.293c0.229,0,0.429,0.156,0.485,0.378C15.372,46.282,23.338,52.5,32.5,52.5
			c8.948,0,16.754-5.93,19.205-14.5H47.51c-2.311,6.295-8.298,10.5-15.01,10.5c-6.832,0-12.912-4.355-15.13-10.838
			c-0.052-0.153-0.027-0.321,0.066-0.453S17.682,37,17.843,37h2.092l-4.293-4.293L11.35,37z"/>
	</g>
	<g>
		<path class="st3" d="M39.19,33.975c0.106-0.475,0.166-0.968,0.166-1.475s-0.06-1-0.166-1.475l0.276-0.158l0.691-0.602
			c0.361-0.315,0.448-0.841,0.207-1.254l-0.888-1.526c-0.239-0.411-0.736-0.598-1.188-0.446l-0.879,0.295l-0.28,0.161
			c-0.731-0.665-1.602-1.18-2.572-1.482V25.7l-0.181-0.897C34.282,24.336,33.87,24,33.392,24h-1.784
			c-0.478,0-0.89,0.336-0.984,0.803L30.443,25.7v0.312c-0.969,0.302-1.841,0.817-2.572,1.482l-0.281-0.161l-0.879-0.295
			c-0.452-0.152-0.949,0.035-1.188,0.446l-0.888,1.526c-0.241,0.414-0.154,0.94,0.207,1.254l0.691,0.602l0.276,0.158
			c-0.106,0.475-0.166,0.968-0.166,1.475s0.06,1,0.166,1.475l-0.277,0.158l-0.691,0.602c-0.361,0.315-0.448,0.841-0.207,1.254
			l0.888,1.526c0.239,0.411,0.736,0.598,1.188,0.446l0.879-0.295l0.281-0.161c0.731,0.665,1.602,1.18,2.572,1.482V39.3l0.181,0.897
			C30.718,40.664,31.13,41,31.608,41h1.784c0.478,0,0.89-0.336,0.984-0.803l0.181-0.897v-0.313c0.969-0.302,1.841-0.817,2.572-1.482
			l0.281,0.161l0.879,0.295c0.452,0.152,0.949-0.035,1.188-0.446l0.888-1.526c0.241-0.414,0.154-0.94-0.207-1.254l-0.691-0.602
			L39.19,33.975z M32.527,36c-1.933,0-3.5-1.567-3.5-3.5s1.567-3.5,3.5-3.5s3.5,1.567,3.5,3.5S34.46,36,32.527,36z"/>
		<path class="st0" d="M33.392,41.5h-1.785c-0.713,0-1.333-0.506-1.474-1.205l-0.182-0.946c-0.777-0.286-1.497-0.7-2.145-1.237
			l-0.937,0.324c-0.673,0.228-1.422-0.055-1.779-0.668l-0.888-1.525c-0.36-0.62-0.229-1.412,0.311-1.883l0.737-0.63
			c-0.072-0.411-0.108-0.823-0.108-1.228s0.036-0.817,0.108-1.229l-0.737-0.63c-0.541-0.471-0.671-1.263-0.311-1.883l0.888-1.525
			c0.357-0.614,1.106-0.894,1.779-0.668l0.934,0.325c0.649-0.538,1.369-0.953,2.147-1.239l0.182-0.947
			c0.14-0.697,0.76-1.204,1.474-1.204h1.784c0.713,0,1.333,0.506,1.474,1.205l0.182,0.946c0.778,0.286,1.497,0.7,2.146,1.237
			l0.936-0.324c0.675-0.224,1.423,0.055,1.779,0.668l0.888,1.525c0.36,0.62,0.229,1.412-0.311,1.883l-0.737,0.63
			c0.072,0.412,0.108,0.823,0.108,1.229c0,0.405-0.036,0.816-0.108,1.228l0.737,0.631c0.541,0.471,0.671,1.263,0.311,1.883
			l-0.888,1.525c-0.356,0.614-1.104,0.895-1.779,0.668l-0.935-0.325c-0.648,0.538-1.368,0.953-2.147,1.238l-0.181,0.947
			C34.725,40.994,34.105,41.5,33.392,41.5z M27.871,37.006c0.122,0,0.242,0.044,0.336,0.13c0.7,0.637,1.502,1.099,2.384,1.374
			c0.209,0.065,0.351,0.259,0.351,0.478V39.3l0.171,0.798c0.047,0.233,0.254,0.402,0.494,0.402h1.785
			c0.239,0,0.447-0.169,0.494-0.402l0.181-0.896l-0.01-0.214c0-0.219,0.142-0.412,0.351-0.478c0.883-0.275,1.685-0.737,2.384-1.374
			c0.16-0.146,0.398-0.171,0.585-0.064l0.281,0.161l0.789,0.254c0.225,0.074,0.477-0.018,0.597-0.223l0.888-1.525
			c0.12-0.206,0.076-0.469-0.104-0.626l-0.69-0.603l-0.196-0.101c-0.19-0.109-0.288-0.329-0.24-0.543
			c0.103-0.458,0.154-0.917,0.154-1.366s-0.052-0.908-0.154-1.366c-0.048-0.214,0.049-0.435,0.239-0.543l0.276-0.158l0.611-0.545
			c0.18-0.157,0.224-0.42,0.104-0.626l-0.888-1.525c-0.12-0.205-0.371-0.301-0.597-0.223l-0.879,0.295l-0.191,0.121
			c-0.189,0.107-0.425,0.081-0.585-0.064c-0.7-0.637-1.501-1.099-2.384-1.374c-0.209-0.065-0.351-0.259-0.351-0.478V25.7
			l-0.171-0.798c-0.047-0.233-0.254-0.402-0.494-0.402h-1.784c-0.239,0-0.447,0.169-0.494,0.401l-0.181,0.898l0.01,0.213
			c0,0.219-0.142,0.412-0.351,0.478c-0.882,0.275-1.684,0.737-2.384,1.374c-0.16,0.146-0.396,0.173-0.585,0.064l-0.281-0.161
			l-0.79-0.255c-0.229-0.079-0.478,0.017-0.597,0.223l-0.888,1.525c-0.12,0.206-0.076,0.469,0.104,0.626l0.691,0.603l0.196,0.101
			c0.19,0.109,0.287,0.329,0.239,0.543c-0.103,0.458-0.154,0.917-0.154,1.366s0.052,0.908,0.154,1.366
			c0.048,0.214-0.049,0.435-0.24,0.543l-0.277,0.158l-0.61,0.545c-0.18,0.157-0.224,0.42-0.104,0.626l0.888,1.525
			c0.119,0.205,0.368,0.301,0.597,0.223l0.879-0.294l0.19-0.121C27.7,37.028,27.786,37.006,27.871,37.006z M32.527,36.5
			c-2.206,0-4-1.794-4-4s1.794-4,4-4s4,1.794,4,4S34.732,36.5,32.527,36.5z M32.527,29.5c-1.654,0-3,1.346-3,3s1.346,3,3,3
			s3-1.346,3-3S34.181,29.5,32.527,29.5z"/>
	</g>
</g>
</svg>
