<?xml version="1.0" encoding="utf-8"?>
<!-- Generator: Adobe Illustrator 21.1.0, SVG Export Plug-In . SVG Version: 6.00 Build 0)  -->
<svg version="1.1" id="Icon_Set" xmlns="http://www.w3.org/2000/svg" xmlns:xlink="http://www.w3.org/1999/xlink" x="0px" y="0px"
	 viewBox="0 0 64 64" style="enable-background:new 0 0 64 64;" xml:space="preserve">
<style type="text/css">
	.st0{fill:#263238;}
	.st1{fill:#FFD740;}
	.st2{fill:#FF5252;}
	.st3{fill:#40C4FF;}
	.st4{fill:#4DB6AC;}
	.st5{fill:#FFFFFF;}
	.st6{fill:#FFD345;}
</style>
<g>
	<g>
		<path class="st0" d="M60,59.75H4c-0.276,0-0.5-0.224-0.5-0.5v-51c0-0.276,0.224-0.5,0.5-0.5s0.5,0.224,0.5,0.5v50.5H60
			c0.276,0,0.5,0.224,0.5,0.5S60.276,59.75,60,59.75z"/>
	</g>
	<g>
		<path class="st0" d="M28.031,4.75h-4c-0.276,0-0.5-0.224-0.5-0.5s0.224-0.5,0.5-0.5h4c0.276,0,0.5,0.224,0.5,0.5
			S28.308,4.75,28.031,4.75z"/>
	</g>
	<g>
		<path class="st0" d="M26.031,6.75c-0.276,0-0.5-0.224-0.5-0.5v-4c0-0.276,0.224-0.5,0.5-0.5s0.5,0.224,0.5,0.5v4
			C26.531,6.526,26.308,6.75,26.031,6.75z"/>
	</g>
	<g>
		<path class="st0" d="M19.031,12.75h-4c-0.276,0-0.5-0.224-0.5-0.5s0.224-0.5,0.5-0.5h4c0.276,0,0.5,0.224,0.5,0.5
			S19.308,12.75,19.031,12.75z"/>
	</g>
	<g>
		<path class="st0" d="M17.031,14.75c-0.276,0-0.5-0.224-0.5-0.5v-4c0-0.276,0.224-0.5,0.5-0.5s0.5,0.224,0.5,0.5v4
			C17.531,14.526,17.308,14.75,17.031,14.75z"/>
	</g>
	<g>
		<path class="st0" d="M53,14.25h-1c-0.276,0-0.5-0.224-0.5-0.5s0.224-0.5,0.5-0.5h1c0.276,0,0.5,0.224,0.5,0.5
			S53.276,14.25,53,14.25z"/>
	</g>
	<g>
		<path class="st0" d="M50,14.25H39c-0.276,0-0.5-0.224-0.5-0.5s0.224-0.5,0.5-0.5h11c0.276,0,0.5,0.224,0.5,0.5
			S50.276,14.25,50,14.25z"/>
	</g>
	<g>
		<path class="st0" d="M46,11.25h-1c-0.276,0-0.5-0.224-0.5-0.5s0.224-0.5,0.5-0.5h1c0.276,0,0.5,0.224,0.5,0.5
			S46.276,11.25,46,11.25z"/>
	</g>
	<g>
		<path class="st0" d="M59,11.25H48c-0.276,0-0.5-0.224-0.5-0.5s0.224-0.5,0.5-0.5h11c0.276,0,0.5,0.224,0.5,0.5
			S59.276,11.25,59,11.25z"/>
	</g>
	<g>
		<path class="st0" d="M12,62.25c-0.276,0-0.5-0.224-0.5-0.5v-2.5c0-0.276,0.224-0.5,0.5-0.5s0.5,0.224,0.5,0.5v2.5
			C12.5,62.026,12.276,62.25,12,62.25z"/>
	</g>
	<g>
		<path class="st0" d="M22,62.25c-0.276,0-0.5-0.224-0.5-0.5v-2.5c0-0.276,0.224-0.5,0.5-0.5s0.5,0.224,0.5,0.5v2.5
			C22.5,62.026,22.276,62.25,22,62.25z"/>
	</g>
	<g>
		<path class="st0" d="M32,62.25c-0.276,0-0.5-0.224-0.5-0.5v-2.5c0-0.276,0.224-0.5,0.5-0.5s0.5,0.224,0.5,0.5v2.5
			C32.5,62.026,32.276,62.25,32,62.25z"/>
	</g>
	<g>
		<path class="st0" d="M42,62.25c-0.276,0-0.5-0.224-0.5-0.5v-2.5c0-0.276,0.224-0.5,0.5-0.5s0.5,0.224,0.5,0.5v2.5
			C42.5,62.026,42.276,62.25,42,62.25z"/>
	</g>
	<g>
		<path class="st0" d="M52,62.25c-0.276,0-0.5-0.224-0.5-0.5v-2.5c0-0.276,0.224-0.5,0.5-0.5s0.5,0.224,0.5,0.5v2.5
			C52.5,62.026,52.276,62.25,52,62.25z"/>
	</g>
	<g>
		<polygon class="st1" points="11.081,44.98 7.472,41.52 20.566,27.857 28.508,34.311 37.48,24.343 48.968,33.334 55.408,26.089 
			59.145,29.411 49.585,40.166 38.073,31.157 29.045,41.189 20.987,34.643 		"/>
	</g>
	<g>
		<path class="st0" d="M11.081,45.48c-0.124,0-0.249-0.046-0.346-0.139c-0.199-0.191-0.206-0.507-0.016-0.707l9.906-10.337
			c0.181-0.188,0.474-0.206,0.677-0.042l7.688,6.247l8.71-9.678c0.177-0.196,0.474-0.222,0.681-0.059l11.142,8.719l9.247-10.404
			c0.184-0.208,0.5-0.226,0.706-0.042c0.206,0.183,0.226,0.5,0.042,0.706l-9.56,10.755c-0.176,0.198-0.475,0.224-0.683,0.062
			l-11.144-8.721l-8.716,9.685c-0.179,0.199-0.48,0.222-0.688,0.054l-7.7-6.256l-9.587,10.004
			C11.344,45.428,11.213,45.48,11.081,45.48z"/>
	</g>
	<g>
		<path class="st0" d="M7.472,42.02c-0.124,0-0.249-0.046-0.346-0.139C6.927,41.69,6.92,41.374,7.11,41.174l13.094-13.663
			c0.18-0.188,0.475-0.205,0.677-0.042l7.573,6.154l8.653-9.615c0.178-0.196,0.473-0.221,0.681-0.059l11.118,8.702l6.128-6.894
			c0.183-0.207,0.5-0.226,0.706-0.042c0.207,0.183,0.226,0.5,0.042,0.706l-6.44,7.245c-0.177,0.198-0.475,0.225-0.683,0.062
			l-11.12-8.703l-8.659,9.621c-0.178,0.199-0.48,0.222-0.688,0.054l-7.585-6.163L7.833,41.866C7.734,41.968,7.604,42.02,7.472,42.02
			z"/>
	</g>
	<g>
		<path class="st0" d="M59,34.75H9c-0.276,0-0.5-0.224-0.5-0.5s0.224-0.5,0.5-0.5h50c0.276,0,0.5,0.224,0.5,0.5
			S59.276,34.75,59,34.75z"/>
	</g>
</g>
</svg>
