<?xml version="1.0" encoding="utf-8"?>
<!-- Generator: Adobe Illustrator 21.1.0, SVG Export Plug-In . SVG Version: 6.00 Build 0)  -->
<svg version="1.1" id="Icon_Set" xmlns="http://www.w3.org/2000/svg" xmlns:xlink="http://www.w3.org/1999/xlink" x="0px" y="0px"
	 viewBox="0 0 64 64" style="enable-background:new 0 0 64 64;" xml:space="preserve">
<style type="text/css">
	.st0{fill:#263238;}
	.st1{fill:#FFD740;}
	.st2{fill:#FF5252;}
	.st3{fill:#40C4FF;}
	.st4{fill:#4DB6AC;}
	.st5{fill:#FFFFFF;}
	.st6{fill:#FFD345;}
</style>
<g>
	<g>
		<path class="st0" d="M49,40c-0.276,0-0.5-0.224-0.5-0.5v-9c0-0.276,0.224-0.5,0.5-0.5s0.5,0.224,0.5,0.5v9
			C49.5,39.776,49.276,40,49,40z"/>
	</g>
	<g>
		<path class="st0" d="M44.5,28.5h-3c-0.276,0-0.5-0.224-0.5-0.5s0.224-0.5,0.5-0.5h3c3.859,0,7-3.141,7-7s-3.141-7-7-7H42
			c-0.276,0-0.5-0.224-0.5-0.5c0-5.238-4.262-9.5-9.5-9.5s-9.5,4.262-9.5,9.5c0,0.276-0.224,0.5-0.5,0.5h-2.5c-3.859,0-7,3.141-7,7
			s3.141,7,7,7h3c0.276,0,0.5,0.224,0.5,0.5s-0.224,0.5-0.5,0.5h-3c-4.411,0-8-3.589-8-8s3.589-8,8-8h2.012
			c0.262-5.559,4.866-10,10.488-10s10.227,4.441,10.488,10H44.5c4.411,0,8,3.589,8,8S48.911,28.5,44.5,28.5z"/>
	</g>
	<g>
		<path class="st0" d="M14.5,32c-0.276,0-0.5-0.224-0.5-0.5v-1c0-0.276,0.224-0.5,0.5-0.5s0.5,0.224,0.5,0.5v1
			C15,31.776,14.776,32,14.5,32z"/>
	</g>
	<g>
		<path class="st0" d="M14.5,40c-0.276,0-0.5-0.224-0.5-0.5v-6c0-0.276,0.224-0.5,0.5-0.5s0.5,0.224,0.5,0.5v6
			C15,39.776,14.776,40,14.5,40z"/>
	</g>
	<g>
		<path class="st0" d="M17.5,40c-0.276,0-0.5-0.224-0.5-0.5v-1c0-0.276,0.224-0.5,0.5-0.5s0.5,0.224,0.5,0.5v1
			C18,39.776,17.776,40,17.5,40z"/>
	</g>
	<g>
		<path class="st0" d="M17.5,37c-0.276,0-0.5-0.224-0.5-0.5v-6c0-0.276,0.224-0.5,0.5-0.5s0.5,0.224,0.5,0.5v6
			C18,36.776,17.776,37,17.5,37z"/>
	</g>
	<g>
		<path class="st0" d="M17,6.5h-4c-0.276,0-0.5-0.224-0.5-0.5s0.224-0.5,0.5-0.5h4c0.276,0,0.5,0.224,0.5,0.5S17.276,6.5,17,6.5z"/>
	</g>
	<g>
		<path class="st0" d="M15,8.5c-0.276,0-0.5-0.224-0.5-0.5V4c0-0.276,0.224-0.5,0.5-0.5s0.5,0.224,0.5,0.5v4
			C15.5,8.276,15.276,8.5,15,8.5z"/>
	</g>
	<g>
		<path class="st0" d="M10,13H6c-0.276,0-0.5-0.224-0.5-0.5S5.724,12,6,12h4c0.276,0,0.5,0.224,0.5,0.5S10.276,13,10,13z"/>
	</g>
	<g>
		<path class="st0" d="M8,15c-0.276,0-0.5-0.224-0.5-0.5v-4C7.5,10.224,7.724,10,8,10s0.5,0.224,0.5,0.5v4C8.5,14.776,8.276,15,8,15
			z"/>
	</g>
	<g>
		<circle class="st1" cx="49" cy="52" r="9"/>
		<path class="st0" d="M49,61.5c-5.238,0-9.5-4.262-9.5-9.5s4.262-9.5,9.5-9.5s9.5,4.262,9.5,9.5S54.238,61.5,49,61.5z M49,43.5
			c-4.687,0-8.5,3.813-8.5,8.5s3.813,8.5,8.5,8.5s8.5-3.813,8.5-8.5S53.687,43.5,49,43.5z"/>
	</g>
	<g>
		<path class="st0" d="M49,48c-2.628,0-5.157-0.569-6.938-1.563c-0.241-0.135-0.328-0.438-0.193-0.68
			c0.135-0.242,0.439-0.327,0.68-0.193C44.187,46.477,46.537,47,49,47s4.813-0.523,6.451-1.437c0.24-0.133,0.544-0.049,0.68,0.193
			c0.135,0.241,0.048,0.545-0.193,0.68C54.157,47.431,51.628,48,49,48z"/>
	</g>
	<g>
		<path class="st0" d="M55.694,58.5c-0.083,0-0.166-0.021-0.243-0.063C53.813,57.523,51.463,57,49,57s-4.813,0.523-6.451,1.437
			c-0.239,0.133-0.544,0.049-0.68-0.193c-0.135-0.241-0.048-0.545,0.193-0.68C43.843,56.569,46.372,56,49,56
			s5.157,0.569,6.938,1.563c0.241,0.135,0.328,0.438,0.193,0.68C56.039,58.407,55.869,58.5,55.694,58.5z"/>
	</g>
	<g>
		<path class="st0" d="M49,61.5c-3.348,0-6.071-4.262-6.071-9.5s2.724-9.5,6.071-9.5s6.071,4.262,6.071,9.5S52.348,61.5,49,61.5z
			 M49,43.5c-2.796,0-5.071,3.813-5.071,8.5s2.275,8.5,5.071,8.5s5.071-3.813,5.071-8.5S51.796,43.5,49,43.5z"/>
	</g>
	<g>
		<path class="st0" d="M49,61.5c-0.276,0-0.5-0.224-0.5-0.5V43c0-0.276,0.224-0.5,0.5-0.5s0.5,0.224,0.5,0.5v18
			C49.5,61.276,49.276,61.5,49,61.5z"/>
	</g>
	<g>
		<path class="st0" d="M58,52.5H40c-0.276,0-0.5-0.224-0.5-0.5s0.224-0.5,0.5-0.5h18c0.276,0,0.5,0.224,0.5,0.5S58.276,52.5,58,52.5
			z"/>
	</g>
	<g>
		<path class="st3" d="M38.5,28h-13c-0.552,0-1-0.448-1-1v-4c0-0.552,0.448-1,1-1h13c0.552,0,1,0.448,1,1v4
			C39.5,27.552,39.052,28,38.5,28z"/>
		<path class="st0" d="M38.5,28.5h-13c-0.827,0-1.5-0.673-1.5-1.5v-4c0-0.827,0.673-1.5,1.5-1.5h13c0.827,0,1.5,0.673,1.5,1.5v4
			C40,27.827,39.327,28.5,38.5,28.5z M25.5,22.5c-0.275,0-0.5,0.225-0.5,0.5v4c0,0.275,0.225,0.5,0.5,0.5h13
			c0.275,0,0.5-0.225,0.5-0.5v-4c0-0.275-0.225-0.5-0.5-0.5H25.5z"/>
	</g>
	<g>
		<path class="st0" d="M36.5,25.5H32c-0.276,0-0.5-0.224-0.5-0.5s0.224-0.5,0.5-0.5h4.5c0.276,0,0.5,0.224,0.5,0.5
			S36.776,25.5,36.5,25.5z"/>
	</g>
	<g>
		<path class="st3" d="M38.5,22h-13c-0.552,0-1-0.448-1-1v-4c0-0.552,0.448-1,1-1h13c0.552,0,1,0.448,1,1v4
			C39.5,21.552,39.052,22,38.5,22z"/>
		<path class="st0" d="M38.5,22.5h-13c-0.827,0-1.5-0.673-1.5-1.5v-4c0-0.827,0.673-1.5,1.5-1.5h13c0.827,0,1.5,0.673,1.5,1.5v4
			C40,21.827,39.327,22.5,38.5,22.5z M25.5,16.5c-0.275,0-0.5,0.225-0.5,0.5v4c0,0.275,0.225,0.5,0.5,0.5h13
			c0.275,0,0.5-0.225,0.5-0.5v-4c0-0.275-0.225-0.5-0.5-0.5H25.5z"/>
	</g>
	<g>
		<path class="st0" d="M36.5,19.5H32c-0.276,0-0.5-0.224-0.5-0.5s0.224-0.5,0.5-0.5h4.5c0.276,0,0.5,0.224,0.5,0.5
			S36.776,19.5,36.5,19.5z"/>
	</g>
	<g>
		<path class="st0" d="M49,40c-0.128,0-0.256-0.049-0.354-0.146l-3-3c-0.195-0.195-0.195-0.512,0-0.707s0.512-0.195,0.707,0
			L49,38.793l2.646-2.646c0.195-0.195,0.512-0.195,0.707,0s0.195,0.512,0,0.707l-3,3C49.256,39.951,49.128,40,49,40z"/>
	</g>
	<g>
		<path class="st0" d="M21.5,61.5h-11C9.673,61.5,9,60.827,9,60V43c0-0.827,0.673-1.5,1.5-1.5h11c0.827,0,1.5,0.673,1.5,1.5v17
			C23,60.827,22.327,61.5,21.5,61.5z M10.5,42.5c-0.275,0-0.5,0.225-0.5,0.5v17c0,0.275,0.225,0.5,0.5,0.5h11
			c0.275,0,0.5-0.225,0.5-0.5V43c0-0.275-0.225-0.5-0.5-0.5H10.5z"/>
	</g>
	<g>
		<path class="st0" d="M17.5,52h-3c-0.133,0-0.26-0.053-0.354-0.146L13.293,51H9.5C9.224,51,9,50.776,9,50.5S9.224,50,9.5,50h4
			c0.133,0,0.26,0.053,0.354,0.146L14.707,51h2.586l0.854-0.854C18.24,50.053,18.367,50,18.5,50h4c0.276,0,0.5,0.224,0.5,0.5
			S22.776,51,22.5,51h-3.793l-0.854,0.854C17.76,51.947,17.633,52,17.5,52z"/>
	</g>
	<g>
		<path class="st0" d="M16,58c-1.103,0-2-0.897-2-2s0.897-2,2-2s2,0.897,2,2S17.103,58,16,58z M16,55c-0.552,0-1,0.448-1,1
			s0.448,1,1,1s1-0.448,1-1S16.552,55,16,55z"/>
	</g>
	<g>
		<path class="st0" d="M18.5,46h-5c-0.276,0-0.5-0.224-0.5-0.5s0.224-0.5,0.5-0.5h5c0.276,0,0.5,0.224,0.5,0.5S18.776,46,18.5,46z"
			/>
	</g>
	<g>
		<path class="st0" d="M18.5,48.5h-5c-0.276,0-0.5-0.224-0.5-0.5s0.224-0.5,0.5-0.5h5c0.276,0,0.5,0.224,0.5,0.5
			S18.776,48.5,18.5,48.5z"/>
	</g>
</g>
</svg>
