<?xml version="1.0" encoding="utf-8"?>
<!-- Generator: Adobe Illustrator 22.0.0, SVG Export Plug-In . SVG Version: 6.00 Build 0)  -->
<svg version="1.1" id="Layer_1" xmlns="http://www.w3.org/2000/svg" xmlns:xlink="http://www.w3.org/1999/xlink" x="0px" y="0px"
	 viewBox="0 0 64 64" style="enable-background:new 0 0 64 64;" xml:space="preserve">
<style type="text/css">
	.st0{fill:#263238;}
	.st1{fill:#4FC3F7;}
	.st2{fill:#4DB6AC;}
	.st3{fill:#FF5252;}
	.st4{fill:#FFFFFF;}
	.st5{fill:#FFD740;}
	.st6{fill:#40C4FF;}
</style>
<g>
	<g>
		<path class="st0" d="M58.5,15.629h-4c-0.276,0-0.5-0.224-0.5-0.5s0.224-0.5,0.5-0.5h4c0.276,0,0.5,0.224,0.5,0.5
			S58.776,15.629,58.5,15.629z"/>
	</g>
	<g>
		<path class="st0" d="M53,11.629h-4c-0.276,0-0.5-0.224-0.5-0.5s0.224-0.5,0.5-0.5h4c0.276,0,0.5,0.224,0.5,0.5
			S53.276,11.629,53,11.629z"/>
	</g>
	<g>
		<path class="st0" d="M51,13.629c-0.276,0-0.5-0.224-0.5-0.5v-4c0-0.276,0.224-0.5,0.5-0.5s0.5,0.224,0.5,0.5v4
			C51.5,13.405,51.276,13.629,51,13.629z"/>
	</g>
	<g>
		<path class="st0" d="M56.5,17.629c-0.276,0-0.5-0.224-0.5-0.5v-4c0-0.276,0.224-0.5,0.5-0.5s0.5,0.224,0.5,0.5v4
			C57,17.405,56.776,17.629,56.5,17.629z"/>
	</g>
	<g>
		<path class="st0" d="M9.5,10.37h-2c-0.276,0-0.5-0.224-0.5-0.5s0.224-0.5,0.5-0.5h2c0.276,0,0.5,0.224,0.5,0.5
			S9.777,10.37,9.5,10.37z"/>
	</g>
	<g>
		<path class="st0" d="M21,10.37h-9.5c-0.276,0-0.5-0.224-0.5-0.5s0.224-0.5,0.5-0.5H21c0.276,0,0.5,0.224,0.5,0.5
			S21.277,10.37,21,10.37z"/>
	</g>
	<g>
		<path class="st0" d="M56.5,54.63h-2c-0.276,0-0.5-0.224-0.5-0.5s0.224-0.5,0.5-0.5h2c0.276,0,0.5,0.224,0.5,0.5
			S56.777,54.63,56.5,54.63z"/>
	</g>
	<g>
		<path class="st0" d="M52.5,54.63H43c-0.276,0-0.5-0.224-0.5-0.5s0.224-0.5,0.5-0.5h9.5c0.276,0,0.5,0.224,0.5,0.5
			S52.777,54.63,52.5,54.63z"/>
	</g>
	<g>
		<path class="st0" d="M32,54.627c-0.51,0-1.02-0.128-1.474-0.385l-17-9.589C12.585,44.122,12,43.121,12,42.04V21.96
			c0-1.081,0.584-2.082,1.526-2.613l17-9.589c0.909-0.514,2.039-0.514,2.948,0l17,9.589C51.416,19.878,52,20.879,52,21.96v20.08
			c0,1.081-0.585,2.082-1.526,2.613l0,0l-17,9.589C33.02,54.499,32.51,54.627,32,54.627z M32,10.372c-0.34,0-0.68,0.086-0.983,0.257
			l-17,9.589C13.39,20.571,13,21.239,13,21.96v20.08c0,0.721,0.39,1.389,1.017,1.742l17,9.589c0.606,0.342,1.359,0.342,1.965,0
			l17-9.589C50.61,43.428,51,42.761,51,42.04V21.96c0-0.721-0.39-1.388-1.018-1.742l-17-9.589C32.68,10.458,32.34,10.372,32,10.372z
			 M50.229,44.218h0.01H50.229z"/>
	</g>
	<g>
		<path class="st2" d="M32.246,12.806h0.005H32.246 M32,12.944l16.5,9.308v19.496L32,51.056l-16.5-9.308V22.252L32,12.944"/>
	</g>
	<g>
		<polygon class="st2" points="42,40.25 35.1,32.25 40,32.25 33.6,24.25 37.5,24.25 32,17.75 26.5,24.25 30.4,24.25 24,32.25 
			28.9,32.25 22,40.25 		"/>
		<path class="st0" d="M42,40.75H22c-0.195,0-0.373-0.114-0.455-0.292s-0.052-0.387,0.076-0.534l6.187-7.174H24
			c-0.192,0-0.367-0.11-0.451-0.283c-0.083-0.174-0.06-0.379,0.06-0.529l5.75-7.188H26.5c-0.195,0-0.372-0.113-0.454-0.29
			c-0.082-0.176-0.054-0.385,0.072-0.533l5.5-6.5c0.19-0.225,0.573-0.225,0.764,0l5.5,6.5c0.125,0.148,0.154,0.357,0.072,0.533
			c-0.082,0.177-0.259,0.29-0.454,0.29h-2.86l5.75,7.188c0.12,0.15,0.143,0.355,0.06,0.529C40.368,32.64,40.193,32.75,40,32.75
			h-3.809l6.187,7.174c0.128,0.147,0.158,0.356,0.076,0.534S42.196,40.75,42,40.75z M23.092,39.75h17.817l-6.187-7.174
			c-0.128-0.147-0.158-0.356-0.076-0.534s0.259-0.292,0.455-0.292h3.86l-5.75-7.188c-0.12-0.15-0.143-0.355-0.06-0.529
			c0.083-0.173,0.258-0.283,0.451-0.283h2.822L32,18.524l-4.422,5.226H30.4c0.192,0,0.367,0.11,0.451,0.283
			c0.083,0.174,0.06,0.379-0.06,0.529l-5.75,7.188H28.9c0.195,0,0.373,0.114,0.455,0.292s0.052,0.387-0.076,0.534L23.092,39.75z"/>
	</g>
	<g>
		<rect x="30" y="40.25" class="st2" width="4" height="6"/>
		<path class="st0" d="M34,46.75h-4c-0.276,0-0.5-0.224-0.5-0.5v-6c0-0.276,0.224-0.5,0.5-0.5h4c0.276,0,0.5,0.224,0.5,0.5v6
			C34.5,46.526,34.277,46.75,34,46.75z M30.5,45.75h3v-5h-3V45.75z"/>
	</g>
</g>
</svg>
