<?xml version="1.0" encoding="utf-8"?>
<!-- Generator: Adobe Illustrator 22.0.0, SVG Export Plug-In . SVG Version: 6.00 Build 0)  -->
<svg version="1.1" id="Layer_1" xmlns="http://www.w3.org/2000/svg" xmlns:xlink="http://www.w3.org/1999/xlink" x="0px" y="0px"
	 viewBox="0 0 64 64" style="enable-background:new 0 0 64 64;" xml:space="preserve">
<style type="text/css">
	.st0{fill:#263238;}
	.st1{fill:#4FC3F7;}
	.st2{fill:#4DB6AC;}
	.st3{fill:#FF5252;}
	.st4{fill:#FFFFFF;}
	.st5{fill:#FFD740;}
	.st6{fill:#40C4FF;}
</style>
<g>
	<g>
		<path class="st5" d="M51.25,27.5H50V24h-2c0-2.761-2.239-5-5-5s-5,2.239-5,5h-2v3.5h-1.25c-1.381,0-2.5,1.119-2.5,2.5v29h21.5V30
			C53.75,28.619,52.631,27.5,51.25,27.5z"/>
		<path class="st0" d="M53.75,59.5h-21.5c-0.276,0-0.5-0.224-0.5-0.5V30c0-1.654,1.346-3,3-3h0.75v-3c0-0.276,0.224-0.5,0.5-0.5
			h1.522c0.253-2.799,2.613-5,5.478-5s5.225,2.201,5.478,5H50c0.276,0,0.5,0.224,0.5,0.5v3h0.75c1.654,0,3,1.346,3,3v29
			C54.25,59.276,54.026,59.5,53.75,59.5z M32.75,58.5h20.5V30c0-1.103-0.897-2-2-2H50c-0.276,0-0.5-0.224-0.5-0.5v-3H48
			c-0.276,0-0.5-0.224-0.5-0.5c0-2.481-2.019-4.5-4.5-4.5s-4.5,2.019-4.5,4.5c0,0.276-0.224,0.5-0.5,0.5h-1.5v3
			c0,0.276-0.224,0.5-0.5,0.5h-1.25c-1.103,0-2,0.897-2,2V58.5z"/>
	</g>
	<g>
		<polygon class="st3" points="28.75,26 25.251,19 17.75,19 14.25,26 10.75,26 10.75,59 32.25,59 32.25,26 		"/>
		<path class="st0" d="M32.25,59.5h-21.5c-0.276,0-0.5-0.224-0.5-0.5V26c0-0.276,0.224-0.5,0.5-0.5h3.191l3.361-6.724
			c0.085-0.169,0.258-0.276,0.447-0.276h7.501c0.189,0,0.362,0.107,0.447,0.276l3.36,6.724h3.191c0.276,0,0.5,0.224,0.5,0.5v33
			C32.75,59.276,32.526,59.5,32.25,59.5z M11.25,58.5h20.5v-32h-3c-0.189,0-0.362-0.107-0.447-0.276l-3.36-6.724h-6.884
			l-3.361,6.724c-0.085,0.169-0.258,0.276-0.447,0.276h-3V58.5z"/>
	</g>
	<g>
		<rect x="23.25" y="38" class="st4" width="5" height="5"/>
		<path class="st0" d="M28.25,43.5h-5c-0.276,0-0.5-0.224-0.5-0.5v-5c0-0.276,0.224-0.5,0.5-0.5h5c0.276,0,0.5,0.224,0.5,0.5v5
			C28.75,43.276,28.526,43.5,28.25,43.5z M23.75,42.5h4v-4h-4V42.5z"/>
	</g>
	<g>
		<rect x="14.75" y="38" class="st4" width="5" height="5"/>
		<path class="st0" d="M19.75,43.5h-5c-0.276,0-0.5-0.224-0.5-0.5v-5c0-0.276,0.224-0.5,0.5-0.5h5c0.276,0,0.5,0.224,0.5,0.5v5
			C20.25,43.276,20.026,43.5,19.75,43.5z M15.25,42.5h4v-4h-4V42.5z"/>
	</g>
	<g>
		<rect x="23.25" y="33" class="st4" width="5" height="5"/>
		<path class="st0" d="M28.25,38.5h-5c-0.276,0-0.5-0.224-0.5-0.5v-5c0-0.276,0.224-0.5,0.5-0.5h5c0.276,0,0.5,0.224,0.5,0.5v5
			C28.75,38.276,28.526,38.5,28.25,38.5z M23.75,37.5h4v-4h-4V37.5z"/>
	</g>
	<g>
		<rect x="14.75" y="33" class="st4" width="5" height="5"/>
		<path class="st0" d="M19.75,38.5h-5c-0.276,0-0.5-0.224-0.5-0.5v-5c0-0.276,0.224-0.5,0.5-0.5h5c0.276,0,0.5,0.224,0.5,0.5v5
			C20.25,38.276,20.026,38.5,19.75,38.5z M15.25,37.5h4v-4h-4V37.5z"/>
	</g>
	<g>
		<rect x="19" y="24" class="st4" width="5" height="5"/>
		<path class="st0" d="M24,29.5h-5c-0.276,0-0.5-0.224-0.5-0.5v-5c0-0.276,0.224-0.5,0.5-0.5h5c0.276,0,0.5,0.224,0.5,0.5v5
			C24.5,29.276,24.276,29.5,24,29.5z M19.5,28.5h4v-4h-4V28.5z"/>
	</g>
	<g>
		<rect x="23.25" y="43" class="st4" width="5" height="5"/>
		<path class="st0" d="M28.25,48.5h-5c-0.276,0-0.5-0.224-0.5-0.5v-5c0-0.276,0.224-0.5,0.5-0.5h5c0.276,0,0.5,0.224,0.5,0.5v5
			C28.75,48.276,28.526,48.5,28.25,48.5z M23.75,47.5h4v-4h-4V47.5z"/>
	</g>
	<g>
		<rect x="14.75" y="43" class="st4" width="5" height="5"/>
		<path class="st0" d="M19.75,48.5h-5c-0.276,0-0.5-0.224-0.5-0.5v-5c0-0.276,0.224-0.5,0.5-0.5h5c0.276,0,0.5,0.224,0.5,0.5v5
			C20.25,48.276,20.026,48.5,19.75,48.5z M15.25,47.5h4v-4h-4V47.5z"/>
	</g>
	<g>
		<circle class="st4" cx="43" cy="26.5" r="2.5"/>
		<path class="st0" d="M43,29.5c-1.654,0-3-1.346-3-3s1.346-3,3-3s3,1.346,3,3S44.654,29.5,43,29.5z M43,24.5c-1.103,0-2,0.897-2,2
			s0.897,2,2,2s2-0.897,2-2S44.103,24.5,43,24.5z"/>
	</g>
	<g>
		<rect x="18.5" y="52" class="st4" width="6" height="7"/>
		<path class="st0" d="M24.5,59.5h-6c-0.276,0-0.5-0.224-0.5-0.5v-7c0-0.276,0.224-0.5,0.5-0.5h6c0.276,0,0.5,0.224,0.5,0.5v7
			C25,59.276,24.776,59.5,24.5,59.5z M19,58.5h5v-6h-5V58.5z"/>
	</g>
	<g>
		<rect x="44.75" y="38" class="st4" width="5" height="5"/>
		<path class="st0" d="M49.75,43.5h-5c-0.276,0-0.5-0.224-0.5-0.5v-5c0-0.276,0.224-0.5,0.5-0.5h5c0.276,0,0.5,0.224,0.5,0.5v5
			C50.25,43.276,50.026,43.5,49.75,43.5z M45.25,42.5h4v-4h-4V42.5z"/>
	</g>
	<g>
		<rect x="36.25" y="38" class="st4" width="5" height="5"/>
		<path class="st0" d="M41.25,43.5h-5c-0.276,0-0.5-0.224-0.5-0.5v-5c0-0.276,0.224-0.5,0.5-0.5h5c0.276,0,0.5,0.224,0.5,0.5v5
			C41.75,43.276,41.526,43.5,41.25,43.5z M36.75,42.5h4v-4h-4V42.5z"/>
	</g>
	<g>
		<rect x="44.75" y="33" class="st4" width="5" height="5"/>
		<path class="st0" d="M49.75,38.5h-5c-0.276,0-0.5-0.224-0.5-0.5v-5c0-0.276,0.224-0.5,0.5-0.5h5c0.276,0,0.5,0.224,0.5,0.5v5
			C50.25,38.276,50.026,38.5,49.75,38.5z M45.25,37.5h4v-4h-4V37.5z"/>
	</g>
	<g>
		<rect x="36.25" y="33" class="st4" width="5" height="5"/>
		<path class="st0" d="M41.25,38.5h-5c-0.276,0-0.5-0.224-0.5-0.5v-5c0-0.276,0.224-0.5,0.5-0.5h5c0.276,0,0.5,0.224,0.5,0.5v5
			C41.75,38.276,41.526,38.5,41.25,38.5z M36.75,37.5h4v-4h-4V37.5z"/>
	</g>
	<g>
		<rect x="44.75" y="43" class="st4" width="5" height="5"/>
		<path class="st0" d="M49.75,48.5h-5c-0.276,0-0.5-0.224-0.5-0.5v-5c0-0.276,0.224-0.5,0.5-0.5h5c0.276,0,0.5,0.224,0.5,0.5v5
			C50.25,48.276,50.026,48.5,49.75,48.5z M45.25,47.5h4v-4h-4V47.5z"/>
	</g>
	<g>
		<rect x="36.25" y="43" class="st4" width="5" height="5"/>
		<path class="st0" d="M41.25,48.5h-5c-0.276,0-0.5-0.224-0.5-0.5v-5c0-0.276,0.224-0.5,0.5-0.5h5c0.276,0,0.5,0.224,0.5,0.5v5
			C41.75,48.276,41.526,48.5,41.25,48.5z M36.75,47.5h4v-4h-4V47.5z"/>
	</g>
	<g>
		<rect x="40" y="52" class="st4" width="6" height="7"/>
		<path class="st0" d="M46,59.5h-6c-0.276,0-0.5-0.224-0.5-0.5v-7c0-0.276,0.224-0.5,0.5-0.5h6c0.276,0,0.5,0.224,0.5,0.5v7
			C46.5,59.276,46.276,59.5,46,59.5z M40.5,58.5h5v-6h-5V58.5z"/>
	</g>
	<g>
		<path class="st1" d="M8,8c0-1.657,1.343-3,3-3s3,1.343,3,3c1.657,0,3,1.343,3,3s-1.343,3-3,3H8c-1.657,0-3-1.343-3-3S6.343,8,8,8z
			"/>
	</g>
	<g>
		<path class="st0" d="M53.5,8.5h-4C49.224,8.5,49,8.276,49,8s0.224-0.5,0.5-0.5h4C53.776,7.5,54,7.724,54,8S53.776,8.5,53.5,8.5z"
			/>
	</g>
	<g>
		<path class="st0" d="M51.5,10.5c-0.276,0-0.5-0.224-0.5-0.5V6c0-0.276,0.224-0.5,0.5-0.5S52,5.724,52,6v4
			C52,10.276,51.776,10.5,51.5,10.5z"/>
	</g>
	<g>
		<path class="st0" d="M59.5,12.5h-4c-0.276,0-0.5-0.224-0.5-0.5s0.224-0.5,0.5-0.5h4c0.276,0,0.5,0.224,0.5,0.5
			S59.776,12.5,59.5,12.5z"/>
	</g>
	<g>
		<path class="st0" d="M57.5,14.5c-0.276,0-0.5-0.224-0.5-0.5v-4c0-0.276,0.224-0.5,0.5-0.5S58,9.724,58,10v4
			C58,14.276,57.776,14.5,57.5,14.5z"/>
	</g>
	<g>
		<path class="st0" d="M63.75,59.5h-1c-0.276,0-0.5-0.224-0.5-0.5s0.224-0.5,0.5-0.5h1c0.276,0,0.5,0.224,0.5,0.5
			S64.026,59.5,63.75,59.5z"/>
	</g>
	<g>
		<path class="st0" d="M60.75,59.5H3.25c-0.276,0-0.5-0.224-0.5-0.5s0.224-0.5,0.5-0.5h57.5c0.276,0,0.5,0.224,0.5,0.5
			S61.026,59.5,60.75,59.5z"/>
	</g>
	<g>
		<path class="st0" d="M1.25,59.5h-1c-0.276,0-0.5-0.224-0.5-0.5s0.224-0.5,0.5-0.5h1c0.276,0,0.5,0.224,0.5,0.5
			S1.526,59.5,1.25,59.5z"/>
	</g>
</g>
</svg>
