<?xml version="1.0" encoding="utf-8"?>
<!-- Generator: Adobe Illustrator 22.0.0, SVG Export Plug-In . SVG Version: 6.00 Build 0)  -->
<svg version="1.1" id="Layer_1" xmlns="http://www.w3.org/2000/svg" xmlns:xlink="http://www.w3.org/1999/xlink" x="0px" y="0px"
	 viewBox="0 0 64 64" style="enable-background:new 0 0 64 64;" xml:space="preserve">
<style type="text/css">
	.st0{fill:#263238;}
	.st1{fill:#4FC3F7;}
	.st2{fill:#4DB6AC;}
	.st3{fill:#FF5252;}
	.st4{fill:#FFFFFF;}
	.st5{fill:#FFD740;}
	.st6{fill:#40C4FF;}
</style>
<g>
	<g>
		<circle class="st2" cx="31" cy="27.875" r="14"/>
		<path class="st0" d="M31,42.375c-3.873,0-7.515-1.508-10.253-4.247c-2.739-2.739-4.247-6.38-4.247-10.253
			s1.508-7.514,4.247-10.253c2.738-2.739,6.38-4.247,10.253-4.247s7.515,1.508,10.253,4.247c2.739,2.739,4.247,6.38,4.247,10.253
			s-1.508,7.514-4.247,10.253l0,0C38.515,40.867,34.873,42.375,31,42.375z M31,14.375c-3.606,0-6.996,1.404-9.546,3.954
			s-3.954,5.94-3.954,9.546s1.404,6.996,3.954,9.546s5.939,3.954,9.546,3.954s6.996-1.404,9.546-3.954l0,0
			c2.55-2.55,3.954-5.94,3.954-9.546s-1.404-6.996-3.954-9.546S34.606,14.375,31,14.375z"/>
	</g>
	<g>
		<path class="st0" d="M50.5,4.125h-4c-0.276,0-0.5-0.224-0.5-0.5s0.224-0.5,0.5-0.5h4c0.276,0,0.5,0.224,0.5,0.5
			S50.776,4.125,50.5,4.125z"/>
	</g>
	<g>
		<path class="st0" d="M48.5,6.125c-0.276,0-0.5-0.224-0.5-0.5v-4c0-0.276,0.224-0.5,0.5-0.5s0.5,0.224,0.5,0.5v4
			C49,5.901,48.776,6.125,48.5,6.125z"/>
	</g>
	<g>
		<path class="st0" d="M56,8.625h-4c-0.276,0-0.5-0.224-0.5-0.5s0.224-0.5,0.5-0.5h4c0.276,0,0.5,0.224,0.5,0.5
			S56.276,8.625,56,8.625z"/>
	</g>
	<g>
		<path class="st0" d="M54,10.625c-0.276,0-0.5-0.224-0.5-0.5v-4c0-0.276,0.224-0.5,0.5-0.5s0.5,0.224,0.5,0.5v4
			C54.5,10.401,54.276,10.625,54,10.625z"/>
	</g>
	<g>
		<path class="st0" d="M12,52.875c-0.276,0-0.5-0.224-0.5-0.5v-39c0-3.033,2.468-5.5,5.5-5.5h30.5c1.654,0,3,1.346,3,3v36.5
			c0,0.276-0.224,0.5-0.5,0.5H17c-2.481,0-4.5,2.019-4.5,4.5C12.5,52.651,12.276,52.875,12,52.875z M17,8.875
			c-2.481,0-4.5,2.019-4.5,4.5v35.841c0.996-1.415,2.642-2.341,4.5-2.341h32.5v-36c0-1.103-0.897-2-2-2H17z"/>
	</g>
	<g>
		<path class="st0" d="M47.5,57.875H17c-1.546,0-3.029-0.656-4.07-1.801c-0.948-1.042-1.446-2.363-1.43-3.76V13.375
			c0-3.033,2.468-5.5,5.5-5.5h30.5c1.654,0,3,1.346,3,3v36.5c0,0.276-0.224,0.5-0.5,0.5H17.215c-2.415,0-4.477,1.782-4.693,4.056
			c-0.013,0.134-0.021,0.268-0.021,0.401v0.043c0,0.005,0,0.01,0,0.015c0.002,1.12,0.409,2.175,1.17,3.011
			c0.852,0.937,2.065,1.474,3.33,1.474h30.5c1.103,0,2-0.897,2-2v-5.366c0-0.276,0.224-0.5,0.5-0.5s0.5,0.224,0.5,0.5v5.366
			C50.5,56.529,49.154,57.875,47.5,57.875z M17,8.875c-2.481,0-4.5,2.019-4.5,4.5V49.27c1.04-1.445,2.784-2.395,4.715-2.395H49.5
			v-36c0-1.103-0.897-2-2-2H17z"/>
	</g>
	<g>
		<polygon class="st5" points="17,54.375 17,62.375 19.5,60.375 22,62.375 22,54.375 		"/>
	</g>
	<g>
		<path class="st0" d="M22,62.875c-0.111,0-0.222-0.037-0.313-0.109l-2.187-1.75l-2.188,1.75c-0.151,0.119-0.354,0.143-0.529,0.06
			c-0.173-0.083-0.283-0.258-0.283-0.451v-8c0-0.276,0.224-0.5,0.5-0.5s0.5,0.224,0.5,0.5v6.959l1.687-1.35
			c0.184-0.146,0.441-0.146,0.625,0l1.688,1.35v-6.959c0-0.276,0.224-0.5,0.5-0.5s0.5,0.224,0.5,0.5v8
			c0,0.192-0.11,0.367-0.283,0.451C22.147,62.859,22.073,62.875,22,62.875z"/>
	</g>
	<g>
		<path class="st0" d="M46,52.875H16c-0.276,0-0.5-0.224-0.5-0.5s0.224-0.5,0.5-0.5h30c0.276,0,0.5,0.224,0.5,0.5
			S46.276,52.875,46,52.875z"/>
	</g>
	<g>
		<path class="st0" d="M8,27.875c-0.276,0-0.5-0.224-0.5-0.5v-14c0-0.276,0.224-0.5,0.5-0.5s0.5,0.224,0.5,0.5v14
			C8.5,27.651,8.276,27.875,8,27.875z"/>
	</g>
	<g>
		<path class="st0" d="M8,31.875c-0.276,0-0.5-0.224-0.5-0.5v-2c0-0.276,0.224-0.5,0.5-0.5s0.5,0.224,0.5,0.5v2
			C8.5,31.651,8.276,31.875,8,31.875z"/>
	</g>
	<g>
		<path class="st0" d="M54,52.875c-0.276,0-0.5-0.224-0.5-0.5v-13.5c0-0.276,0.224-0.5,0.5-0.5s0.5,0.224,0.5,0.5v13.5
			C54.5,52.651,54.276,52.875,54,52.875z"/>
	</g>
	<g>
		<path class="st0" d="M54,37.375c-0.276,0-0.5-0.224-0.5-0.5v-2c0-0.276,0.224-0.5,0.5-0.5s0.5,0.224,0.5,0.5v2
			C54.5,37.151,54.276,37.375,54,37.375z"/>
	</g>
	<g>
		<path class="st0" d="M47,16.875c-0.276,0-0.5-0.224-0.5-0.5v-4c0-0.276-0.225-0.5-0.5-0.5h-4c-0.276,0-0.5-0.224-0.5-0.5
			s0.224-0.5,0.5-0.5h4c0.827,0,1.5,0.673,1.5,1.5v4C47.5,16.651,47.276,16.875,47,16.875z"/>
	</g>
	<g>
		<path class="st0" d="M34.184,36.625c-0.136,0-0.271-0.055-0.37-0.164L31,33.368l-2.813,3.093
			c-0.185,0.204-0.501,0.219-0.707,0.034c-0.204-0.186-0.219-0.502-0.033-0.707l3.184-3.5c0.189-0.208,0.551-0.208,0.74,0l3.184,3.5
			c0.186,0.204,0.171,0.521-0.033,0.707C34.424,36.582,34.304,36.625,34.184,36.625z"/>
	</g>
	<g>
		<path class="st0" d="M31,39.625c-0.276,0-0.5-0.224-0.5-0.5v-6.5c0-0.276,0.224-0.5,0.5-0.5s0.5,0.224,0.5,0.5v6.5
			C31.5,39.401,31.276,39.625,31,39.625z"/>
	</g>
	<g>
		<path class="st4" d="M33,24.625c0,4.418-2,8-2,8s-2-3.582-2-8s2-8,2-8S33,20.207,33,24.625z"/>
		<path class="st0" d="M31,33.125c-0.182,0-0.349-0.098-0.437-0.256c-0.084-0.151-2.063-3.747-2.063-8.244
			c0-4.497,1.979-8.093,2.063-8.244c0.176-0.316,0.697-0.316,0.873,0c0.084,0.151,2.063,3.747,2.063,8.244
			c0,4.497-1.979,8.093-2.063,8.244C31.349,33.027,31.182,33.125,31,33.125z M31.001,17.782c-0.571,1.312-1.501,3.9-1.501,6.843
			c0,2.942,0.929,5.529,1.5,6.842c0.571-1.313,1.5-3.9,1.5-6.842C32.5,21.676,31.571,19.092,31.001,17.782z"/>
	</g>
	<g>
		<path class="st4" d="M35,34.125c-2.209,0-4-1.5-4-1.5s1.791-1.5,4-1.5s4,1.5,4,1.5S37.209,34.125,35,34.125z"/>
		<path class="st0" d="M35,34.625c-2.363,0-4.242-1.551-4.321-1.617c-0.113-0.095-0.179-0.235-0.179-0.383s0.065-0.288,0.179-0.383
			c0.079-0.066,1.958-1.617,4.321-1.617s4.242,1.551,4.321,1.617c0.113,0.095,0.179,0.235,0.179,0.383s-0.065,0.288-0.179,0.383
			C39.242,33.074,37.363,34.625,35,34.625z M31.869,32.625c0.653,0.41,1.822,1,3.131,1s2.478-0.59,3.131-1
			c-0.653-0.41-1.822-1-3.131-1S32.522,32.215,31.869,32.625z"/>
	</g>
	<g>
		<path class="st4" d="M27,34.125c2.209,0,4-1.5,4-1.5s-1.791-1.5-4-1.5s-4,1.5-4,1.5S24.791,34.125,27,34.125z"/>
		<path class="st0" d="M27,34.625c-2.363,0-4.242-1.551-4.321-1.617c-0.113-0.095-0.179-0.235-0.179-0.383s0.065-0.288,0.179-0.383
			c0.079-0.066,1.958-1.617,4.321-1.617s4.242,1.551,4.321,1.617c0.113,0.095,0.179,0.235,0.179,0.383s-0.065,0.288-0.179,0.383
			C31.242,33.074,29.363,34.625,27,34.625z M23.869,32.625c0.653,0.41,1.822,1,3.131,1s2.478-0.59,3.131-1
			c-0.653-0.41-1.822-1-3.131-1S24.522,32.215,23.869,32.625z"/>
	</g>
	<g>
		<path class="st4" d="M37.01,28.736C34.277,31.47,31,32.625,31,32.625s1.155-3.277,3.889-6.01s6.01-3.889,6.01-3.889
			S39.744,26.002,37.01,28.736z"/>
		<path class="st0" d="M31,33.125c-0.13,0-0.258-0.051-0.354-0.146c-0.136-0.136-0.182-0.338-0.118-0.52
			c0.049-0.138,1.226-3.416,4.007-6.198c2.782-2.782,6.06-3.958,6.198-4.007c0.18-0.064,0.383-0.018,0.52,0.118
			c0.136,0.136,0.182,0.338,0.118,0.52c-0.049,0.138-1.226,3.416-4.007,6.198l0,0c-2.782,2.782-6.06,3.958-6.198,4.007
			C31.112,33.116,31.056,33.125,31,33.125z M39.938,23.687c-1.165,0.563-3.043,1.628-4.696,3.282
			c-1.653,1.653-2.719,3.53-3.281,4.696c1.165-0.563,3.043-1.628,4.696-3.282C38.311,26.729,39.376,24.852,39.938,23.687z
			 M37.011,28.736h0.01H37.011z"/>
	</g>
	<g>
		<path class="st4" d="M24.99,28.736C27.723,31.47,31,32.625,31,32.625s-1.155-3.277-3.889-6.01s-6.01-3.889-6.01-3.889
			S22.256,26.002,24.99,28.736z"/>
		<path class="st0" d="M31,33.125c-0.056,0-0.112-0.009-0.166-0.028c-0.139-0.049-3.416-1.225-6.198-4.007l0,0
			c-2.781-2.782-3.958-6.06-4.007-6.198c-0.063-0.181-0.018-0.383,0.118-0.52c0.137-0.135,0.341-0.182,0.52-0.118
			c0.139,0.049,3.416,1.225,6.198,4.007c2.781,2.782,3.958,6.06,4.007,6.198c0.063,0.181,0.018,0.383-0.118,0.52
			C31.258,33.074,31.13,33.125,31,33.125z M25.343,28.382c1.658,1.658,3.533,2.722,4.697,3.283
			c-0.563-1.166-1.629-3.043-3.282-4.697c-1.658-1.658-3.533-2.722-4.697-3.283C22.624,24.851,23.689,26.729,25.343,28.382
			L25.343,28.382z"/>
	</g>
</g>
</svg>
