<?xml version="1.0" encoding="utf-8"?>
<!-- Generator: Adobe Illustrator 22.0.0, SVG Export Plug-In . SVG Version: 6.00 Build 0)  -->
<svg version="1.1" id="Layer_1" xmlns="http://www.w3.org/2000/svg" xmlns:xlink="http://www.w3.org/1999/xlink" x="0px" y="0px"
	 viewBox="0 0 64 64" style="enable-background:new 0 0 64 64;" xml:space="preserve">
<style type="text/css">
	.st0{fill:#263238;}
	.st1{fill:#4FC3F7;}
	.st2{fill:#4DB6AC;}
	.st3{fill:#FF5252;}
	.st4{fill:#FFFFFF;}
	.st5{fill:#FFD740;}
	.st6{fill:#40C4FF;}
</style>
<g>
	<g>
		<path class="st0" d="M56.5,15.999h-4c-0.276,0-0.5-0.224-0.5-0.5s0.224-0.5,0.5-0.5h4c0.276,0,0.5,0.224,0.5,0.5
			S56.776,15.999,56.5,15.999z"/>
	</g>
	<g>
		<path class="st0" d="M51,11.999h-4c-0.276,0-0.5-0.224-0.5-0.5s0.224-0.5,0.5-0.5h4c0.276,0,0.5,0.224,0.5,0.5
			S51.276,11.999,51,11.999z"/>
	</g>
	<g>
		<path class="st0" d="M49,13.999c-0.276,0-0.5-0.224-0.5-0.5v-4c0-0.276,0.224-0.5,0.5-0.5s0.5,0.224,0.5,0.5v4
			C49.5,13.775,49.276,13.999,49,13.999z"/>
	</g>
	<g>
		<path class="st0" d="M54.5,17.999c-0.276,0-0.5-0.224-0.5-0.5v-4c0-0.276,0.224-0.5,0.5-0.5s0.5,0.224,0.5,0.5v4
			C55,17.775,54.776,17.999,54.5,17.999z"/>
	</g>
	<g>
		<path class="st0" d="M9.5,10.74h-2c-0.276,0-0.5-0.224-0.5-0.5s0.224-0.5,0.5-0.5h2c0.276,0,0.5,0.224,0.5,0.5
			S9.776,10.74,9.5,10.74z"/>
	</g>
	<g>
		<path class="st0" d="M21,10.74h-9.5c-0.276,0-0.5-0.224-0.5-0.5s0.224-0.5,0.5-0.5H21c0.276,0,0.5,0.224,0.5,0.5
			S21.276,10.74,21,10.74z"/>
	</g>
	<g>
		<path class="st0" d="M56.5,55h-2c-0.276,0-0.5-0.224-0.5-0.5s0.224-0.5,0.5-0.5h2c0.276,0,0.5,0.224,0.5,0.5S56.776,55,56.5,55z"
			/>
	</g>
	<g>
		<path class="st0" d="M52.5,55H43c-0.276,0-0.5-0.224-0.5-0.5S42.724,54,43,54h9.5c0.276,0,0.5,0.224,0.5,0.5S52.776,55,52.5,55z"
			/>
	</g>
	<g>
		<path class="st0" d="M32,54.997c-0.51,0-1.02-0.128-1.475-0.385l-17-9.589C12.585,44.492,12,43.49,12,42.41V22.33
			c0-1.08,0.585-2.082,1.525-2.613l17-9.59c0.91-0.512,2.04-0.512,2.948,0l17.001,9.59C51.415,20.248,52,21.25,52,22.33v20.08
			c0,1.08-0.585,2.082-1.525,2.613l0,0l-17,9.589C33.02,54.869,32.51,54.997,32,54.997z M32,10.742c-0.34,0-0.68,0.085-0.983,0.256
			l-16.999,9.59C13.39,20.942,13,21.609,13,22.33v20.08c0,0.721,0.39,1.388,1.018,1.742l17,9.589c0.605,0.342,1.359,0.342,1.965,0
			l17-9.589C50.61,43.798,51,43.131,51,42.41V22.33c0-0.721-0.39-1.388-1.018-1.742l-17-9.59C32.68,10.827,32.34,10.742,32,10.742z
			 M50.229,44.588h0.01H50.229z"/>
	</g>
	<g>
		<path class="st2" d="M32.246,13.176h0.005H32.246 M32,13.314l16.5,9.308v19.496L32,51.426l-16.5-9.308V22.622L32,13.314"/>
	</g>
	<g>
		<g>
			<path class="st0" d="M25,32.5c-1.93,0-3.5-1.57-3.5-3.5s1.57-3.5,3.5-3.5s3.5,1.57,3.5,3.5S26.93,32.5,25,32.5z M25,26.5
				c-1.379,0-2.5,1.121-2.5,2.5s1.121,2.5,2.5,2.5s2.5-1.121,2.5-2.5S26.379,26.5,25,26.5z"/>
		</g>
		<g>
			<path class="st0" d="M39,32.5H25c-0.276,0-0.5-0.224-0.5-0.5s0.224-0.5,0.5-0.5c1.379,0,2.5-1.121,2.5-2.5s-1.121-2.5-2.5-2.5
				c-0.276,0-0.5-0.224-0.5-0.5s0.224-0.5,0.5-0.5h14c1.93,0,3.5,1.57,3.5,3.5S40.93,32.5,39,32.5z M27.447,31.5H39
				c1.379,0,2.5-1.121,2.5-2.5s-1.121-2.5-2.5-2.5H27.447c0.649,0.636,1.053,1.521,1.053,2.5S28.097,30.864,27.447,31.5z"/>
		</g>
		<g>
			<path class="st0" d="M38.25,29h-2c-0.276,0-0.5-0.224-0.5-0.5s0.224-0.5,0.5-0.5h2c0.276,0,0.5,0.224,0.5,0.5S38.526,29,38.25,29
				z"/>
		</g>
		<g>
			<path class="st0" d="M33.75,30h-2c-0.276,0-0.5-0.224-0.5-0.5s0.224-0.5,0.5-0.5h2c0.276,0,0.5,0.224,0.5,0.5S34.026,30,33.75,30
				z"/>
		</g>
		<g>
			<path class="st0" d="M28,38.5c-1.93,0-3.5-1.57-3.5-3.5s1.57-3.5,3.5-3.5s3.5,1.57,3.5,3.5S29.93,38.5,28,38.5z M28,32.5
				c-1.379,0-2.5,1.121-2.5,2.5s1.121,2.5,2.5,2.5s2.5-1.121,2.5-2.5S29.379,32.5,28,32.5z"/>
		</g>
		<g>
			<path class="st0" d="M42,38.5H28c-0.276,0-0.5-0.224-0.5-0.5s0.224-0.5,0.5-0.5c1.379,0,2.5-1.121,2.5-2.5s-1.121-2.5-2.5-2.5
				c-0.276,0-0.5-0.224-0.5-0.5s0.224-0.5,0.5-0.5h14c1.93,0,3.5,1.57,3.5,3.5S43.93,38.5,42,38.5z M30.447,37.5H42
				c1.379,0,2.5-1.121,2.5-2.5s-1.121-2.5-2.5-2.5H30.447c0.649,0.636,1.053,1.521,1.053,2.5S31.097,36.864,30.447,37.5z"/>
		</g>
		<g>
			<path class="st0" d="M41.25,35h-2c-0.276,0-0.5-0.224-0.5-0.5s0.224-0.5,0.5-0.5h2c0.276,0,0.5,0.224,0.5,0.5S41.526,35,41.25,35
				z"/>
		</g>
		<g>
			<path class="st0" d="M36.75,36h-2c-0.276,0-0.5-0.224-0.5-0.5s0.224-0.5,0.5-0.5h2c0.276,0,0.5,0.224,0.5,0.5S37.026,36,36.75,36
				z"/>
		</g>
		<g>
			<path class="st0" d="M22,38.5c-1.93,0-3.5-1.57-3.5-3.5s1.57-3.5,3.5-3.5s3.5,1.57,3.5,3.5S23.93,38.5,22,38.5z M22,32.5
				c-1.379,0-2.5,1.121-2.5,2.5s1.121,2.5,2.5,2.5s2.5-1.121,2.5-2.5S23.379,32.5,22,32.5z"/>
		</g>
		<g>
			<path class="st0" d="M28,38.5h-6c-0.276,0-0.5-0.224-0.5-0.5s0.224-0.5,0.5-0.5h6c0.276,0,0.5,0.224,0.5,0.5S28.276,38.5,28,38.5
				z"/>
		</g>
	</g>
</g>
</svg>
