<?xml version="1.0" encoding="utf-8"?>
<!-- Generator: Adobe Illustrator 22.0.0, SVG Export Plug-In . SVG Version: 6.00 Build 0)  -->
<svg version="1.1" id="Layer_1" xmlns="http://www.w3.org/2000/svg" xmlns:xlink="http://www.w3.org/1999/xlink" x="0px" y="0px"
	 viewBox="0 0 64 64" style="enable-background:new 0 0 64 64;" xml:space="preserve">
<style type="text/css">
	.st0{fill:#263238;}
	.st1{fill:#4FC3F7;}
	.st2{fill:#4DB6AC;}
	.st3{fill:#FF5252;}
	.st4{fill:#FFFFFF;}
	.st5{fill:#FFD740;}
	.st6{fill:#40C4FF;}
</style>
<g>
	<g>
		<path class="st0" d="M36.5,28.5c-0.276,0-0.5-0.224-0.5-0.5v-4h-8v4c0,0.276-0.224,0.5-0.5,0.5S27,28.276,27,28v-4.5
			c0-0.276,0.224-0.5,0.5-0.5h9c0.276,0,0.5,0.224,0.5,0.5V28C37,28.276,36.777,28.5,36.5,28.5z"/>
	</g>
	<g>
		<path class="st0" d="M21,19.5H15c-3.86,0-7-3.141-7-7V8.001c0-0.276,0.224-0.5,0.5-0.5S9,7.725,9,8.001V12.5c0,3.309,2.691,6,6,6
			H21c0.276,0,0.5,0.224,0.5,0.5S21.276,19.5,21,19.5z"/>
	</g>
	<g>
		<path class="st0" d="M49,19.5h-6c-0.276,0-0.5-0.224-0.5-0.5s0.224-0.5,0.5-0.5h6c3.309,0,6-2.691,6-6V8.001
			c0-0.276,0.224-0.5,0.5-0.5s0.5,0.224,0.5,0.5V12.5C56,16.359,52.86,19.5,49,19.5z"/>
	</g>
	<g>
		<path class="st0" d="M55.5,3.5C55.224,3.5,55,3.276,55,3V2.5c0-0.552-0.449-1-1-1s-1,0.448-1,1V3c0,0.276-0.224,0.5-0.5,0.5
			S52,3.276,52,3V2.5c0-1.103,0.897-2,2-2s2,0.897,2,2V3C56,3.276,55.777,3.5,55.5,3.5z"/>
	</g>
	<g>
		<path class="st0" d="M49,16.5h-6c-0.276,0-0.5-0.224-0.5-0.5s0.224-0.5,0.5-0.5h6c1.654,0,3-1.346,3-3V8.001
			c0-0.276,0.224-0.5,0.5-0.5s0.5,0.224,0.5,0.5V12.5C53,14.706,51.206,16.5,49,16.5z"/>
	</g>
	<g>
		<path class="st0" d="M21,16.5H15c-2.206,0-4-1.794-4-4V8.001c0-0.276,0.224-0.5,0.5-0.5s0.5,0.224,0.5,0.5V12.5
			c0,1.654,1.346,3,3,3H21c0.276,0,0.5,0.224,0.5,0.5S21.276,16.5,21,16.5z"/>
	</g>
	<g>
		<path class="st0" d="M11.5,3.5C11.224,3.5,11,3.276,11,3V2.5c0-0.552-0.449-1-1-1s-1,0.448-1,1V3c0,0.276-0.224,0.5-0.5,0.5
			S8,3.276,8,3V2.5c0-1.103,0.897-2,2-2s2,0.897,2,2V3C12,3.276,11.777,3.5,11.5,3.5z"/>
	</g>
	<g>
		<path class="st5" d="M16,8H4C3.172,8,2.5,7.328,2.5,6.5v0C2.5,5.671,3.172,5,4,5h12c0.828,0,1.5,0.672,1.5,1.5v0
			C17.5,7.328,16.829,8,16,8z"/>
		<path class="st0" d="M16,8.5H4c-1.103,0-2-0.897-2-2s0.897-2,2-2h12c1.103,0,2,0.897,2,2S17.104,8.5,16,8.5z M4,5.5
			c-0.551,0-1,0.448-1,1s0.449,1,1,1h12c0.551,0,1-0.448,1-1s-0.449-1-1-1H4z"/>
	</g>
	<g>
		<path class="st5" d="M60,8H48c-0.828,0-1.5-0.672-1.5-1.5v0C46.5,5.671,47.172,5,48,5h12c0.828,0,1.5,0.672,1.5,1.5v0
			C61.5,7.328,60.829,8,60,8z"/>
		<path class="st0" d="M60,8.5H48c-1.103,0-2-0.897-2-2s0.897-2,2-2h12c1.103,0,2,0.897,2,2S61.104,8.5,60,8.5z M48,5.5
			c-0.551,0-1,0.448-1,1s0.449,1,1,1h12c0.551,0,1-0.448,1-1s-0.449-1-1-1H48z"/>
	</g>
	<g>
		<path class="st1" d="M38,23.5H26c-1.657,0-3-1.343-3-3v-6c0-1.657,1.343-3,3-3h12c1.657,0,3,1.343,3,3v6
			C41,22.157,39.657,23.5,38,23.5z"/>
		<path class="st0" d="M38,24H26c-1.93,0-3.5-1.57-3.5-3.5v-6c0-1.93,1.57-3.5,3.5-3.5h12c1.93,0,3.5,1.57,3.5,3.5v6
			C41.5,22.43,39.93,24,38,24z M26,12c-1.378,0-2.5,1.121-2.5,2.5v6c0,1.379,1.122,2.5,2.5,2.5h12c1.378,0,2.5-1.121,2.5-2.5v-6
			c0-1.379-1.122-2.5-2.5-2.5H26z"/>
	</g>
	<g>
		<circle class="st4" cx="32" cy="17.5" r="2"/>
		<path class="st0" d="M32,20c-1.378,0-2.5-1.121-2.5-2.5S30.622,15,32,15s2.5,1.121,2.5,2.5S33.379,20,32,20z M32,16
			c-0.827,0-1.5,0.673-1.5,1.5S31.173,19,32,19s1.5-0.673,1.5-1.5S32.828,16,32,16z"/>
	</g>
	<g>
		<path class="st0" d="M43,63.5H21c-1.654,0-3-1.346-3-3V30c0-0.177,0.094-0.341,0.247-0.431c0.153-0.089,0.342-0.092,0.496-0.007
			L23,31.928l4.257-2.365c0.15-0.084,0.335-0.084,0.485,0L32,31.928l4.257-2.365c0.15-0.084,0.335-0.084,0.485,0L41,31.928
			l4.257-2.365c0.154-0.086,0.343-0.083,0.496,0.007C45.907,29.659,46,29.823,46,30v30.5C46,62.154,44.655,63.5,43,63.5z M19,30.85
			V60.5c0,1.103,0.897,2,2,2h22c1.103,0,2-0.897,2-2V30.85l-3.757,2.088c-0.15,0.084-0.335,0.084-0.485,0L36.5,30.572l-4.257,2.365
			c-0.15,0.084-0.335,0.084-0.485,0L27.5,30.572l-4.257,2.365c-0.15,0.084-0.335,0.084-0.485,0L19,30.85z"/>
	</g>
	<g>
		<path class="st0" d="M55,32.5h-4c-0.276,0-0.5-0.224-0.5-0.5s0.224-0.5,0.5-0.5h4c0.276,0,0.5,0.224,0.5,0.5S55.277,32.5,55,32.5z
			"/>
	</g>
	<g>
		<path class="st0" d="M59.5,28h-4c-0.276,0-0.5-0.224-0.5-0.5s0.224-0.5,0.5-0.5h4c0.276,0,0.5,0.224,0.5,0.5S59.777,28,59.5,28z"
			/>
	</g>
	<g>
		<path class="st0" d="M57.5,30c-0.276,0-0.5-0.224-0.5-0.5v-4c0-0.276,0.224-0.5,0.5-0.5s0.5,0.224,0.5,0.5v4
			C58,29.776,57.777,30,57.5,30z"/>
	</g>
	<g>
		<path class="st0" d="M53,34.5c-0.276,0-0.5-0.224-0.5-0.5v-4c0-0.276,0.224-0.5,0.5-0.5s0.5,0.224,0.5,0.5v4
			C53.5,34.276,53.277,34.5,53,34.5z"/>
	</g>
	<g>
		<path class="st0" d="M4,44H2c-0.276,0-0.5-0.224-0.5-0.5S1.724,43,2,43h2c0.276,0,0.5,0.224,0.5,0.5S4.277,44,4,44z"/>
	</g>
	<g>
		<path class="st0" d="M15.5,44H6c-0.276,0-0.5-0.224-0.5-0.5S5.724,43,6,43h9.5c0.276,0,0.5,0.224,0.5,0.5S15.777,44,15.5,44z"/>
	</g>
	<g>
		<path class="st0" d="M62,44h-2c-0.276,0-0.5-0.224-0.5-0.5S59.724,43,60,43h2c0.276,0,0.5,0.224,0.5,0.5S62.277,44,62,44z"/>
	</g>
	<g>
		<path class="st0" d="M58,44h-9.5c-0.276,0-0.5-0.224-0.5-0.5s0.224-0.5,0.5-0.5H58c0.276,0,0.5,0.224,0.5,0.5S58.277,44,58,44z"/>
	</g>
	<g>
		<circle class="st2" cx="32" cy="49.5" r="9"/>
		<path class="st0" d="M32,59c-5.238,0-9.5-4.262-9.5-9.5S26.762,40,32,40s9.5,4.262,9.5,9.5S37.239,59,32,59z M32,41
			c-4.687,0-8.5,3.813-8.5,8.5S27.313,58,32,58s8.5-3.813,8.5-8.5S36.687,41,32,41z"/>
	</g>
	<g>
		<path class="st4" d="M35.889,51.232C34.327,52.794,32,53,32,53s0.206-2.327,1.768-3.889c1.562-1.562,3.889-1.768,3.889-1.768
			S37.452,49.67,35.889,51.232z"/>
		<path class="st0" d="M32,53.5c-0.132,0-0.259-0.053-0.354-0.146c-0.104-0.104-0.158-0.25-0.145-0.397
			c0.009-0.103,0.241-2.527,1.912-4.198c1.671-1.672,4.096-1.903,4.199-1.912c0.15-0.006,0.293,0.04,0.397,0.145
			s0.158,0.25,0.145,0.397c-0.009,0.103-0.241,2.526-1.912,4.198l0,0c-1.672,1.672-4.096,1.903-4.199,1.912
			C32.03,53.499,32.015,53.5,32,53.5z M37.044,47.958c-0.751,0.172-1.997,0.581-2.923,1.507c-0.93,0.93-1.337,2.172-1.508,2.921
			c0.751-0.172,1.997-0.581,2.923-1.507C36.466,49.948,36.874,48.707,37.044,47.958z M35.89,51.232h0.01H35.89z"/>
	</g>
	<g>
		<path class="st4" d="M28.111,51.232C29.673,52.794,32,53,32,53s-0.206-2.327-1.768-3.889c-1.562-1.562-3.889-1.768-3.889-1.768
			S26.549,49.67,28.111,51.232z"/>
		<path class="st0" d="M32,53.5c-0.015,0-0.029-0.001-0.044-0.002c-0.103-0.009-2.527-0.24-4.199-1.912s-1.903-4.096-1.913-4.198
			c-0.013-0.147,0.04-0.293,0.145-0.397c0.105-0.104,0.25-0.15,0.397-0.145c0.103,0.009,2.527,0.24,4.199,1.912
			c1.671,1.671,1.903,4.096,1.913,4.198c0.013,0.147-0.04,0.293-0.145,0.397C32.26,53.447,32.132,53.5,32,53.5z M26.958,47.958
			c0.172,0.752,0.582,1.995,1.507,2.921c0.925,0.926,2.169,1.334,2.921,1.507c-0.173-0.752-0.582-1.996-1.507-2.921
			C28.954,48.539,27.709,48.131,26.958,47.958z"/>
	</g>
	<g>
		<path class="st0" d="M35.183,55c-0.071,0-0.144-0.016-0.213-0.048L32,53.553l-2.971,1.399c-0.252,0.116-0.548,0.011-0.665-0.239
			c-0.118-0.25-0.011-0.548,0.239-0.665l3.184-1.5c0.135-0.064,0.291-0.064,0.426,0l3.183,1.5c0.25,0.117,0.356,0.415,0.239,0.665
			C35.551,54.895,35.371,55,35.183,55z"/>
	</g>
	<g>
		<path class="st0" d="M32,56c-0.276,0-0.5-0.224-0.5-0.5V53c0-0.276,0.224-0.5,0.5-0.5s0.5,0.224,0.5,0.5v2.5
			C32.5,55.776,32.277,56,32,56z"/>
	</g>
	<g>
		<path class="st4" d="M33.5,48c0,2.761-1.5,5-1.5,5s-1.5-2.239-1.5-5s1.5-5,1.5-5S33.5,45.239,33.5,48z"/>
		<path class="st0" d="M32,53.5c-0.167,0-0.323-0.083-0.416-0.222C31.521,53.182,30,50.881,30,48s1.52-5.182,1.584-5.278
			c0.186-0.277,0.646-0.277,0.831,0C32.48,42.818,34,45.119,34,48s-1.52,5.182-1.584,5.278C32.323,53.417,32.167,53.5,32,53.5z
			 M32,44.025c-0.417,0.845-1,2.319-1,3.975s0.583,3.13,1,3.975c0.417-0.845,1-2.319,1-3.975S32.418,44.87,32,44.025z"/>
	</g>
	<g>
		<path class="st0" d="M45.5,37.469h-27c-0.276,0-0.5-0.224-0.5-0.5s0.224-0.5,0.5-0.5h27c0.276,0,0.5,0.224,0.5,0.5
			S45.777,37.469,45.5,37.469z"/>
	</g>
</g>
</svg>
