<?xml version="1.0" encoding="utf-8"?>
<!-- Generator: Adobe Illustrator 22.0.0, SVG Export Plug-In . SVG Version: 6.00 Build 0)  -->
<svg version="1.1" id="Layer_1" xmlns="http://www.w3.org/2000/svg" xmlns:xlink="http://www.w3.org/1999/xlink" x="0px" y="0px"
	 viewBox="0 0 64 64" style="enable-background:new 0 0 64 64;" xml:space="preserve">
<style type="text/css">
	.st0{fill:#263238;}
	.st1{fill:#4FC3F7;}
	.st2{fill:#4DB6AC;}
	.st3{fill:#FF5252;}
	.st4{fill:#FFFFFF;}
	.st5{fill:#FFD740;}
	.st6{fill:#40C4FF;}
</style>
<g>
	<g>
		<path class="st0" d="M7,34.64H5c-0.276,0-0.5-0.224-0.5-0.5s0.224-0.5,0.5-0.5h2c0.276,0,0.5,0.224,0.5,0.5S7.276,34.64,7,34.64z"
			/>
	</g>
	<g>
		<path class="st0" d="M17,34.64H9c-0.276,0-0.5-0.224-0.5-0.5s0.224-0.5,0.5-0.5h8c0.276,0,0.5,0.224,0.5,0.5
			S17.276,34.64,17,34.64z"/>
	</g>
	<g>
		<path class="st0" d="M59,34.64h-2c-0.276,0-0.5-0.224-0.5-0.5s0.224-0.5,0.5-0.5h2c0.276,0,0.5,0.224,0.5,0.5
			S59.276,34.64,59,34.64z"/>
	</g>
	<g>
		<path class="st0" d="M55,34.64h-8c-0.276,0-0.5-0.224-0.5-0.5s0.224-0.5,0.5-0.5h8c0.276,0,0.5,0.224,0.5,0.5
			S55.276,34.64,55,34.64z"/>
	</g>
	<g>
		<path class="st0" d="M39.5,55.5h-15c-0.827,0-1.5-0.673-1.5-1.5V24.014c0-2.681,1.332-5.169,3.562-6.656l6.434-4.289
			C34.25,12.232,35,10.833,35,9.324V4c0-0.827,0.673-1.5,1.5-1.5h3C40.327,2.5,41,3.173,41,4v50C41,54.827,40.327,55.5,39.5,55.5z
			 M36.5,3.5C36.224,3.5,36,3.724,36,4v5.324c0,1.843-0.916,3.554-2.449,4.576l-6.434,4.289C25.165,19.491,24,21.668,24,24.014V54
			c0,0.276,0.224,0.5,0.5,0.5h15c0.276,0,0.5-0.224,0.5-0.5V4c0-0.276-0.224-0.5-0.5-0.5H36.5z"/>
	</g>
	<g>
		<path class="st0" d="M36,61.5h-8c-0.827,0-1.5-0.673-1.5-1.5v-5c0-0.276,0.224-0.5,0.5-0.5h10c0.276,0,0.5,0.224,0.5,0.5v5
			C37.5,60.827,36.827,61.5,36,61.5z M27.5,55.5V60c0,0.276,0.224,0.5,0.5,0.5h8c0.276,0,0.5-0.224,0.5-0.5v-4.5H27.5z"/>
	</g>
	<g>
		<rect x="23.499" y="33" class="st5" width="17" height="17"/>
		<path class="st0" d="M40.5,50.5h-17c-0.276,0-0.5-0.224-0.5-0.5V33c0-0.276,0.224-0.5,0.5-0.5h17c0.276,0,0.5,0.224,0.5,0.5v17
			C41,50.276,40.776,50.5,40.5,50.5z M24,49.5h16v-16H24V49.5z"/>
	</g>
	<g>
		<path class="st0" d="M19.5,12.5h-4c-0.276,0-0.5-0.224-0.5-0.5s0.224-0.5,0.5-0.5h4c0.276,0,0.5,0.224,0.5,0.5
			S19.776,12.5,19.5,12.5z"/>
	</g>
	<g>
		<path class="st0" d="M25.5,7.5h-4C21.223,7.5,21,7.276,21,7s0.224-0.5,0.5-0.5h4C25.776,6.5,26,6.724,26,7S25.776,7.5,25.5,7.5z"
			/>
	</g>
	<g>
		<path class="st0" d="M23.5,9.5C23.223,9.5,23,9.276,23,9V5c0-0.276,0.224-0.5,0.5-0.5S24,4.724,24,5v4
			C24,9.276,23.776,9.5,23.5,9.5z"/>
	</g>
	<g>
		<path class="st0" d="M17.5,14.5c-0.276,0-0.5-0.224-0.5-0.5v-4c0-0.276,0.224-0.5,0.5-0.5S18,9.724,18,10v4
			C18,14.276,17.776,14.5,17.5,14.5z"/>
	</g>
	<g>
		<path class="st0" d="M40.5,29.5h-17c-0.276,0-0.5-0.224-0.5-0.5s0.224-0.5,0.5-0.5h17c0.276,0,0.5,0.224,0.5,0.5
			S40.776,29.5,40.5,29.5z"/>
	</g>
	<g>
		<path class="st0" d="M37.5,26.5c-0.276,0-0.5-0.224-0.5-0.5V15c0-0.276,0.224-0.5,0.5-0.5S38,14.724,38,15v11
			C38,26.276,37.776,26.5,37.5,26.5z"/>
	</g>
	<g>
		<path class="st0" d="M35.5,41.869c-0.276,0-0.5-0.224-0.5-0.5V33c0-0.276,0.224-0.5,0.5-0.5S36,32.724,36,33v8.369
			C36,41.646,35.776,41.869,35.5,41.869z"/>
	</g>
	<g>
		<path class="st0" d="M28.5,41.869c-0.276,0-0.5-0.224-0.5-0.5V33c0-0.276,0.224-0.5,0.5-0.5S29,32.724,29,33v8.369
			C29,41.646,28.776,41.869,28.5,41.869z"/>
	</g>
	<g>
		<path class="st0" d="M40.5,42h-17c-0.276,0-0.5-0.224-0.5-0.5s0.224-0.5,0.5-0.5h17c0.276,0,0.5,0.224,0.5,0.5S40.776,42,40.5,42z
			"/>
	</g>
</g>
</svg>
