<?xml version="1.0" encoding="utf-8"?>
<!-- Generator: Adobe Illustrator 22.0.0, SVG Export Plug-In . SVG Version: 6.00 Build 0)  -->
<svg version="1.1" id="Layer_1" xmlns="http://www.w3.org/2000/svg" xmlns:xlink="http://www.w3.org/1999/xlink" x="0px" y="0px"
	 viewBox="0 0 64 64" style="enable-background:new 0 0 64 64;" xml:space="preserve">
<style type="text/css">
	.st0{fill:#263238;}
	.st1{fill:#4FC3F7;}
	.st2{fill:#4DB6AC;}
	.st3{fill:#FF5252;}
	.st4{fill:#FFFFFF;}
	.st5{fill:#FFD740;}
	.st6{fill:#40C4FF;}
</style>
<g>
	<g>
		<path class="st0" d="M56.5,16h-4c-0.276,0-0.5-0.224-0.5-0.5s0.224-0.5,0.5-0.5h4c0.276,0,0.5,0.224,0.5,0.5S56.777,16,56.5,16z"
			/>
	</g>
	<g>
		<path class="st0" d="M51,12h-4c-0.276,0-0.5-0.224-0.5-0.5S46.724,11,47,11h4c0.276,0,0.5,0.224,0.5,0.5S51.277,12,51,12z"/>
	</g>
	<g>
		<path class="st0" d="M49,14c-0.276,0-0.5-0.224-0.5-0.5v-4C48.5,9.224,48.724,9,49,9s0.5,0.224,0.5,0.5v4
			C49.5,13.776,49.277,14,49,14z"/>
	</g>
	<g>
		<path class="st0" d="M54.5,18c-0.276,0-0.5-0.224-0.5-0.5v-4c0-0.276,0.224-0.5,0.5-0.5s0.5,0.224,0.5,0.5v4
			C55,17.776,54.777,18,54.5,18z"/>
	</g>
	<g>
		<path class="st0" d="M9.5,10.741h-2c-0.276,0-0.5-0.224-0.5-0.5s0.224-0.5,0.5-0.5h2c0.276,0,0.5,0.224,0.5,0.5
			S9.777,10.741,9.5,10.741z"/>
	</g>
	<g>
		<path class="st0" d="M21,10.741h-9.5c-0.276,0-0.5-0.224-0.5-0.5s0.224-0.5,0.5-0.5H21c0.276,0,0.5,0.224,0.5,0.5
			S21.277,10.741,21,10.741z"/>
	</g>
	<g>
		<path class="st0" d="M56.5,55h-2c-0.276,0-0.5-0.224-0.5-0.5s0.224-0.5,0.5-0.5h2c0.276,0,0.5,0.224,0.5,0.5S56.777,55,56.5,55z"
			/>
	</g>
	<g>
		<path class="st0" d="M52.5,55H43c-0.276,0-0.5-0.224-0.5-0.5S42.724,54,43,54h9.5c0.276,0,0.5,0.224,0.5,0.5S52.777,55,52.5,55z"
			/>
	</g>
	<g>
		<path class="st0" d="M32,54.998c-0.509,0-1.019-0.129-1.474-0.385l-17-9.59C12.585,44.492,12,43.491,12,42.41V22.331
			c0-1.081,0.585-2.082,1.526-2.613l17-9.59c0.908-0.512,2.038-0.513,2.948,0l17,9.59C51.416,20.249,52,21.25,52,22.331V42.41
			c0,1.081-0.584,2.082-1.526,2.613l0,0l-17,9.59C33.02,54.869,32.51,54.998,32,54.998z M32.001,10.743
			c-0.34,0-0.68,0.085-0.983,0.256l-17,9.59C13.391,20.943,13,21.61,13,22.331V42.41c0,0.721,0.39,1.388,1.018,1.742l17,9.59
			c0.606,0.342,1.359,0.341,1.965,0l17-9.59C50.611,43.798,51,43.131,51,42.41V22.331c0-0.721-0.39-1.389-1.017-1.742l-17-9.59
			C32.68,10.828,32.34,10.743,32.001,10.743z M50.229,44.588h0.01H50.229z"/>
	</g>
	<g>
		<path class="st5" d="M32.246,13.176h0.005H32.246 M32.001,13.315l16.5,9.308v19.496l-16.5,9.308l-16.5-9.308V22.623L32.001,13.315
			"/>
	</g>
	<g>
		<path class="st0" d="M24.384,34.142c-0.659,0-1.1-0.051-1.157-0.058c-0.229-0.027-0.409-0.207-0.437-0.436
			c-0.023-0.19-0.536-4.685,2-7.22c2.535-2.535,7.029-2.021,7.219-1.998c0.229,0.027,0.409,0.207,0.437,0.436
			c0.023,0.19,0.536,4.685-1.999,7.22C28.669,33.863,25.929,34.142,24.384,34.142z M23.753,33.122
			c1.103,0.061,4.202,0.04,5.987-1.743c1.79-1.79,1.803-4.883,1.744-5.986c-1.105-0.062-4.203-0.041-5.987,1.743
			C23.713,28.921,23.696,32.018,23.753,33.122z"/>
	</g>
	<g>
		<path class="st0" d="M39.617,34.142c-1.545,0-4.285-0.278-6.062-2.056c-2.535-2.535-2.022-7.029-2-7.22
			c0.028-0.229,0.208-0.408,0.437-0.436c0.189-0.022,4.685-0.537,7.22,1.998s2.022,7.029,1.999,7.22
			c-0.028,0.229-0.208,0.408-0.437,0.436C40.717,34.091,40.276,34.142,39.617,34.142z M32.518,25.393
			c-0.057,1.104-0.04,4.201,1.744,5.986c1.79,1.789,4.887,1.807,5.986,1.744c0.058-1.104,0.041-4.202-1.744-5.987
			C36.72,25.353,33.622,25.331,32.518,25.393z"/>
	</g>
	<g>
		<path class="st0" d="M24.384,34.142c-0.659,0-1.1-0.051-1.157-0.058c-0.229-0.027-0.409-0.207-0.437-0.436
			c-0.023-0.19-0.536-4.685,2-7.22c2.535-2.535,7.029-2.021,7.219-1.998c0.229,0.027,0.409,0.207,0.437,0.436
			c0.023,0.19,0.536,4.685-1.999,7.22C28.669,33.863,25.929,34.142,24.384,34.142z M23.753,33.122
			c1.103,0.061,4.202,0.04,5.987-1.743c1.79-1.79,1.803-4.883,1.744-5.986c-1.105-0.062-4.203-0.041-5.987,1.743
			C23.713,28.921,23.696,32.018,23.753,33.122z"/>
	</g>
	<g>
		<path class="st0" d="M39.617,34.142c-1.545,0-4.285-0.278-6.062-2.056c-2.535-2.535-2.022-7.029-2-7.22
			c0.028-0.229,0.208-0.408,0.437-0.436c0.189-0.022,4.685-0.537,7.22,1.998s2.022,7.029,1.999,7.22
			c-0.028,0.229-0.208,0.408-0.437,0.436C40.717,34.091,40.276,34.142,39.617,34.142z M32.518,25.393
			c-0.057,1.104-0.04,4.201,1.744,5.986c1.79,1.789,4.887,1.807,5.986,1.744c0.058-1.104,0.041-4.202-1.744-5.987
			C36.72,25.353,33.622,25.331,32.518,25.393z"/>
	</g>
	<g>
		<path class="st0" d="M33.052,25.375h-2c-0.176,0-0.338-0.092-0.429-0.243l-0.384-0.64c-0.78-1.3-0.989-2.882-0.572-4.341
			l0.404-1.414c0.062-0.214,0.258-0.362,0.481-0.362h3c0.168,0,0.325,0.084,0.417,0.225c0.092,0.141,0.108,0.317,0.042,0.473
			l-1.092,2.548c-0.21,0.49-0.217,1.034-0.019,1.531l0.615,1.538c0.062,0.154,0.042,0.328-0.05,0.466
			C33.373,25.293,33.218,25.375,33.052,25.375z M31.335,24.375h0.979l-0.341-0.853c-0.297-0.745-0.288-1.561,0.028-2.297
			l0.793-1.851h-1.864l-0.3,1.052c-0.341,1.192-0.17,2.487,0.468,3.552L31.335,24.375z"/>
	</g>
	<g>
		<path class="st0" d="M25.274,40.416c-0.177,0-0.346-0.095-0.436-0.255c-0.08-0.143-1.95-3.519-1.169-6.646
			c0.057-0.226,0.264-0.415,0.494-0.379c0.944,0.018,2.758-0.071,4.288-0.846c0.173-0.088,0.384-0.067,0.537,0.056
			c0.153,0.121,0.221,0.321,0.174,0.511c-0.11,0.441-0.161,0.805-0.161,1.143c0,1.005,0.345,2.065,1.026,3.15
			c0.124,0.196,0.095,0.452-0.068,0.617c-1.832,1.851-4.439,2.599-4.55,2.63C25.365,40.41,25.319,40.416,25.274,40.416z
			 M24.56,34.137c-0.354,2.086,0.56,4.313,0.967,5.17c0.703-0.251,2.229-0.88,3.443-1.977c-0.643-1.128-0.968-2.246-0.968-3.33
			c0-0.145,0.007-0.291,0.021-0.441C26.754,34.009,25.452,34.123,24.56,34.137z"/>
	</g>
	<g>
		<path class="st0" d="M38.727,40.416c-0.045,0-0.09-0.006-0.135-0.019c-0.11-0.031-2.716-0.778-4.549-2.629
			c-0.163-0.165-0.191-0.421-0.068-0.617c0.681-1.085,1.026-2.146,1.026-3.151c0-0.337-0.051-0.699-0.16-1.142
			c-0.047-0.189,0.021-0.39,0.174-0.512c0.153-0.121,0.363-0.143,0.537-0.055c1.53,0.772,3.341,0.856,4.286,0.845
			c0.224-0.026,0.438,0.153,0.494,0.379c0.781,3.127-1.089,6.503-1.168,6.646C39.073,40.321,38.904,40.416,38.727,40.416z
			 M35.033,37.331c1.217,1.101,2.74,1.727,3.442,1.977c0.407-0.856,1.321-3.084,0.966-5.171c-0.891-0.014-2.193-0.128-3.461-0.578
			c0.014,0.151,0.021,0.298,0.021,0.441C36.001,35.085,35.676,36.204,35.033,37.331z"/>
	</g>
	<g>
		<path class="st0" d="M32.001,45.625c-0.109,0-0.218-0.035-0.309-0.106c-0.15-0.118-3.691-2.934-3.691-6.519
			c0-0.254,0.033-0.502,0.068-0.749c0.019-0.135,0.096-0.284,0.207-0.364c0.361-0.26,0.688-0.536,0.972-0.822
			c0.107-0.108,0.256-0.164,0.41-0.146c0.152,0.017,0.288,0.102,0.369,0.231c0.682,1.085,1.528,1.916,1.974,2.316
			c0.447-0.401,1.295-1.235,1.974-2.315c0.081-0.13,0.217-0.215,0.369-0.231c0.148-0.02,0.303,0.037,0.41,0.146
			c0.283,0.285,0.611,0.562,0.973,0.822c0.111,0.08,0.184,0.201,0.204,0.336c0.038,0.265,0.072,0.517,0.072,0.776
			c0,3.585-3.541,6.4-3.691,6.519C32.219,45.59,32.11,45.625,32.001,45.625z M29.035,38.57c-0.019,0.147-0.033,0.287-0.033,0.43
			c0,2.53,2.178,4.728,3,5.467c0.822-0.74,3-2.943,3-5.467c0-0.146-0.015-0.287-0.033-0.428c-0.168-0.127-0.329-0.257-0.482-0.389
			c-0.997,1.401-2.124,2.294-2.177,2.335c-0.182,0.143-0.436,0.143-0.617,0c-0.053-0.041-1.181-0.934-2.178-2.336
			C29.362,38.314,29.202,38.444,29.035,38.57z"/>
	</g>
</g>
</svg>
