<?xml version="1.0" encoding="utf-8"?>
<!-- Generator: Adobe Illustrator 22.0.0, SVG Export Plug-In . SVG Version: 6.00 Build 0)  -->
<svg version="1.1" id="Layer_1" xmlns="http://www.w3.org/2000/svg" xmlns:xlink="http://www.w3.org/1999/xlink" x="0px" y="0px"
	 viewBox="0 0 64 64" style="enable-background:new 0 0 64 64;" xml:space="preserve">
<style type="text/css">
	.st0{fill:#263238;}
	.st1{fill:#4FC3F7;}
	.st2{fill:#4DB6AC;}
	.st3{fill:#FF5252;}
	.st4{fill:#FFFFFF;}
	.st5{fill:#FFD740;}
	.st6{fill:#40C4FF;}
</style>
<g>
	<g>
		<polygon class="st3" points="40,47 34,41 34,44.5 24,44.5 24,49.5 34,49.5 34,53 		"/>
		<path class="st0" d="M34,53.5c-0.064,0-0.13-0.012-0.191-0.038C33.622,53.385,33.5,53.202,33.5,53v-3H24
			c-0.276,0-0.5-0.224-0.5-0.5v-5c0-0.276,0.224-0.5,0.5-0.5h9.5v-3c0-0.202,0.122-0.385,0.309-0.462
			c0.186-0.078,0.402-0.034,0.545,0.108l6,6c0.195,0.195,0.195,0.512,0,0.707l-6,6C34.258,53.449,34.13,53.5,34,53.5z M24.5,49H34
			c0.276,0,0.5,0.224,0.5,0.5v2.293L39.293,47L34.5,42.207V44.5c0,0.276-0.224,0.5-0.5,0.5h-9.5V49z"/>
	</g>
	<g>
		<path class="st0" d="M9.125,58.5h-2c-0.276,0-0.5-0.224-0.5-0.5s0.224-0.5,0.5-0.5h2c0.276,0,0.5,0.224,0.5,0.5
			S9.401,58.5,9.125,58.5z"/>
	</g>
	<g>
		<path class="st0" d="M19.125,58.5h-8c-0.276,0-0.5-0.224-0.5-0.5s0.224-0.5,0.5-0.5h8c0.276,0,0.5,0.224,0.5,0.5
			S19.401,58.5,19.125,58.5z"/>
	</g>
	<g>
		<path class="st0" d="M16.411,38.5c-0.136,0-0.271-0.055-0.37-0.164l-2.813-3.093l-2.812,3.093
			c-0.186,0.205-0.501,0.219-0.706,0.034c-0.205-0.186-0.22-0.502-0.034-0.707l3.183-3.5c0.189-0.208,0.551-0.208,0.74,0l3.184,3.5
			c0.186,0.204,0.171,0.521-0.033,0.707C16.651,38.457,16.531,38.5,16.411,38.5z"/>
	</g>
	<g>
		<path class="st0" d="M13.228,40.5c-0.276,0-0.5-0.224-0.5-0.5v-5.5c0-0.276,0.224-0.5,0.5-0.5s0.5,0.224,0.5,0.5V40
			C13.728,40.276,13.504,40.5,13.228,40.5z"/>
	</g>
	<g>
		<path class="st2" d="M15.728,24.5c0,5.523-2.5,10-2.5,10s-2.5-4.477-2.5-10s2.5-10,2.5-10S15.728,18.977,15.728,24.5z"/>
		<path class="st0" d="M13.228,35c-0.182,0-0.349-0.098-0.437-0.256c-0.104-0.188-2.563-4.655-2.563-10.244
			c0-5.588,2.459-10.056,2.563-10.244c0.176-0.316,0.697-0.316,0.873,0c0.104,0.188,2.563,4.655,2.563,10.244
			c0,5.589-2.459,10.056-2.563,10.244C13.576,34.902,13.409,35,13.228,35z M13.228,15.638c-0.701,1.553-2,4.958-2,8.862
			c0,3.903,1.299,7.308,2,8.861c0.701-1.554,2-4.958,2-8.861C15.228,20.589,13.93,17.189,13.228,15.638z"/>
	</g>
	<g>
		<path class="st2" d="M21.006,29.55c-3.515,3.515-7.778,4.95-7.778,4.95s1.435-4.263,4.95-7.778s7.778-4.95,7.778-4.95
			S24.521,26.036,21.006,29.55z"/>
		<path class="st0" d="M13.228,35c-0.131,0-0.258-0.051-0.354-0.146c-0.135-0.134-0.181-0.333-0.12-0.513
			c0.06-0.179,1.514-4.415,5.07-7.972s7.794-5.01,7.973-5.07c0.179-0.06,0.378-0.013,0.513,0.121
			c0.135,0.134,0.181,0.333,0.12,0.513c-0.06,0.179-1.514,4.415-5.07,7.972c-3.557,3.557-7.794,5.01-7.973,5.07
			C13.335,34.992,13.281,35,13.228,35z M25.052,22.677c-1.462,0.648-4.177,2.055-6.521,4.399c-2.344,2.344-3.751,5.058-4.399,6.52
			c1.462-0.648,4.177-2.055,6.521-4.399l0,0C22.996,26.853,24.403,24.139,25.052,22.677z"/>
	</g>
	<g>
		<path class="st2" d="M5.45,29.55c3.515,3.515,7.778,4.95,7.778,4.95s-1.435-4.263-4.95-7.778S0.5,21.772,0.5,21.772
			S1.935,26.036,5.45,29.55z"/>
		<path class="st0" d="M13.229,35c-0.054,0-0.107-0.008-0.159-0.026c-0.179-0.061-4.416-1.514-7.973-5.071l0,0
			c-3.557-3.557-5.011-7.793-5.07-7.972c-0.061-0.18-0.015-0.379,0.12-0.513c0.136-0.133,0.335-0.181,0.513-0.121
			c0.179,0.061,4.416,1.514,7.973,5.07s5.011,7.793,5.07,7.972c0.061,0.18,0.015,0.379-0.12,0.513
			C13.486,34.949,13.359,35,13.229,35z M1.404,22.677c0.648,1.462,2.056,4.176,4.399,6.52l0,0c2.349,2.349,5.061,3.754,6.521,4.4
			c-0.647-1.461-2.055-4.177-4.399-6.521C5.581,24.732,2.866,23.325,1.404,22.677z"/>
	</g>
	<g>
		<path class="st2" d="M7.228,36c3.314,0,6-1.5,6-1.5s-2.686-1.5-6-1.5s-6,1.5-6,1.5S3.914,36,7.228,36z"/>
		<path class="st0" d="M7.229,36.5c-0.001,0-0.001,0-0.002,0c-3.404,0-6.13-1.5-6.244-1.563c-0.158-0.088-0.256-0.255-0.256-0.437
			s0.098-0.348,0.256-0.437C1.098,34,3.823,32.5,7.228,32.5c3.405,0,6.13,1.5,6.244,1.564c0.158,0.088,0.256,0.255,0.256,0.437
			s-0.098,0.348-0.256,0.437C13.357,35.001,10.634,36.5,7.229,36.5z M2.417,34.5c1.035,0.423,2.813,1,4.811,1l0,0
			c0,0,0.001,0,0.002,0c1.997,0,3.774-0.577,4.809-1c-1.034-0.423-2.812-1-4.811-1C5.23,33.5,3.452,34.077,2.417,34.5z"/>
	</g>
	<g>
		<path class="st2" d="M19.228,36c3.314,0,6-1.5,6-1.5s-2.686-1.5-6-1.5s-6,1.5-6,1.5S15.914,36,19.228,36z"/>
		<path class="st0" d="M19.23,36.5c-0.001,0-0.001,0-0.002,0c-3.405,0-6.13-1.5-6.244-1.563c-0.158-0.088-0.256-0.255-0.256-0.437
			s0.098-0.348,0.256-0.437C13.099,34,15.823,32.5,19.229,32.5c3.404,0,6.13,1.5,6.244,1.564c0.158,0.088,0.256,0.255,0.256,0.437
			s-0.098,0.348-0.256,0.437C25.358,35.001,22.634,36.5,19.23,36.5z M14.418,34.5c1.034,0.423,2.812,1,4.811,1l0,0
			c0,0,0.001,0,0.002,0c2.003,0,3.777-0.576,4.81-0.999c-1.034-0.423-2.813-1-4.812-1.001C17.23,33.5,15.452,34.077,14.418,34.5z"/>
	</g>
	<g>
		<path class="st5" d="M18.728,45h-11c-0.552,0-1-0.448-1-1v-1c0-0.552,0.448-1,1-1h11c0.552,0,1,0.448,1,1v1
			C19.728,44.553,19.28,45,18.728,45z"/>
		<path class="st0" d="M18.729,45.5h-11c-0.827,0-1.5-0.673-1.5-1.5v-1c0-0.827,0.673-1.5,1.5-1.5h11c0.827,0,1.5,0.673,1.5,1.5v1
			C20.229,44.827,19.556,45.5,18.729,45.5z M7.729,42.5c-0.275,0-0.5,0.224-0.5,0.5v1c0,0.276,0.225,0.5,0.5,0.5h11
			c0.275,0,0.5-0.224,0.5-0.5v-1c0-0.276-0.225-0.5-0.5-0.5H7.729z"/>
	</g>
	<g>
		<path class="st5" d="M16.381,54h-6.306c-0.489,0-0.906-0.353-0.986-0.836L7.728,45h11l-1.361,8.164
			C17.287,53.647,16.87,54,16.381,54z"/>
		<path class="st0" d="M16.381,54.5h-6.306c-0.736,0-1.359-0.527-1.479-1.253l-1.36-8.165c-0.024-0.145,0.017-0.293,0.111-0.405
			C7.442,44.564,7.582,44.5,7.729,44.5h11c0.147,0,0.286,0.064,0.382,0.177c0.095,0.112,0.136,0.26,0.111,0.405l-1.361,8.165
			C17.74,53.973,17.117,54.5,16.381,54.5z M8.318,45.5l1.264,7.583c0.04,0.242,0.248,0.417,0.493,0.417h6.306
			c0.245,0,0.453-0.175,0.493-0.417l1.265-7.583H8.318z"/>
	</g>
	<g>
		<path class="st0" d="M53.955,38.5c-0.136,0-0.271-0.055-0.37-0.164l-2.813-3.093l-2.812,3.093
			c-0.186,0.205-0.502,0.219-0.706,0.034c-0.205-0.186-0.22-0.502-0.034-0.707l3.183-3.5c0.189-0.208,0.551-0.208,0.74,0l3.184,3.5
			c0.186,0.204,0.171,0.521-0.033,0.707C54.195,38.457,54.075,38.5,53.955,38.5z"/>
	</g>
	<g>
		<path class="st0" d="M50.771,40.5c-0.276,0-0.5-0.224-0.5-0.5v-5.5c0-0.276,0.224-0.5,0.5-0.5s0.5,0.224,0.5,0.5V40
			C51.271,40.276,51.048,40.5,50.771,40.5z"/>
	</g>
	<g>
		<path class="st2" d="M53.272,24.5c0,5.523-2.5,10-2.5,10s-2.5-4.477-2.5-10s2.5-10,2.5-10S53.272,18.977,53.272,24.5z"/>
		<path class="st0" d="M50.771,35c-0.182,0-0.349-0.098-0.437-0.256c-0.104-0.188-2.563-4.655-2.563-10.244
			c0-5.588,2.459-10.056,2.563-10.244c0.176-0.316,0.697-0.316,0.873,0c0.104,0.188,2.563,4.655,2.563,10.244
			c0,5.589-2.459,10.056-2.563,10.244C51.12,34.902,50.953,35,50.771,35z M50.771,15.638c-0.701,1.553-2,4.958-2,8.862
			c0,3.903,1.299,7.308,2,8.861c0.701-1.554,2-4.958,2-8.861C52.771,20.589,51.474,17.189,50.771,15.638z"/>
	</g>
	<g>
		<path class="st2" d="M58.55,29.55c-3.515,3.515-7.778,4.95-7.778,4.95s1.435-4.263,4.95-7.778c3.515-3.515,7.778-4.95,7.778-4.95
			S62.065,26.036,58.55,29.55z"/>
		<path class="st0" d="M50.771,35c-0.131,0-0.258-0.051-0.354-0.146c-0.135-0.134-0.181-0.333-0.12-0.513
			c0.06-0.179,1.514-4.415,5.07-7.972s7.794-5.01,7.973-5.07c0.178-0.06,0.378-0.013,0.513,0.121
			c0.135,0.134,0.181,0.333,0.12,0.513c-0.06,0.179-1.514,4.415-5.07,7.972c-3.557,3.557-7.794,5.01-7.973,5.07
			C50.879,34.992,50.825,35,50.771,35z M62.596,22.677c-1.462,0.648-4.177,2.055-6.521,4.399s-3.751,5.058-4.399,6.52
			c1.462-0.648,4.177-2.055,6.521-4.399l0,0C60.54,26.853,61.947,24.139,62.596,22.677z"/>
	</g>
	<g>
		<path class="st2" d="M42.994,29.55c3.515,3.515,7.778,4.95,7.778,4.95s-1.435-4.263-4.95-7.778
			c-3.515-3.515-7.778-4.95-7.778-4.95S39.479,26.036,42.994,29.55z"/>
		<path class="st0" d="M50.772,35c-0.054,0-0.107-0.008-0.159-0.026c-0.179-0.061-4.416-1.514-7.973-5.071l0,0
			c-3.557-3.557-5.011-7.793-5.07-7.972c-0.061-0.18-0.015-0.379,0.12-0.513c0.135-0.133,0.336-0.181,0.513-0.121
			c0.179,0.061,4.416,1.514,7.973,5.07s5.011,7.793,5.07,7.972c0.061,0.18,0.015,0.379-0.12,0.513C51.03,34.949,50.903,35,50.772,35
			z M38.948,22.677c0.648,1.462,2.056,4.176,4.399,6.52l0,0c2.349,2.349,5.061,3.754,6.521,4.4
			c-0.647-1.461-2.055-4.177-4.399-6.521C43.125,24.732,40.41,23.325,38.948,22.677z"/>
	</g>
	<g>
		<path class="st2" d="M44.772,36c3.314,0,6-1.5,6-1.5s-2.686-1.5-6-1.5s-6,1.5-6,1.5S41.458,36,44.772,36z"/>
		<path class="st0" d="M44.773,36.5c-0.001,0-0.001,0-0.002,0c-3.404,0-6.13-1.5-6.244-1.563c-0.158-0.088-0.256-0.255-0.256-0.437
			s0.098-0.348,0.256-0.437C38.642,34,41.367,32.5,44.771,32.5c3.405,0,6.13,1.5,6.244,1.564c0.158,0.088,0.256,0.255,0.256,0.437
			s-0.098,0.348-0.256,0.437C50.901,35.001,48.178,36.5,44.773,36.5z M39.961,34.5c1.035,0.423,2.813,1,4.811,1l0,0
			c0,0,0.001,0,0.002,0c1.997,0,3.774-0.577,4.809-1c-1.034-0.423-2.812-1-4.811-1C42.774,33.5,40.996,34.077,39.961,34.5z"/>
	</g>
	<g>
		<path class="st2" d="M56.772,36c3.314,0,6-1.5,6-1.5s-2.686-1.5-6-1.5c-3.314,0-6,1.5-6,1.5S53.458,36,56.772,36z"/>
		<path class="st0" d="M56.774,36.5c-0.001,0-0.001,0-0.002,0c-3.405,0-6.13-1.5-6.244-1.563c-0.158-0.088-0.256-0.255-0.256-0.437
			s0.098-0.348,0.256-0.437C50.643,34,53.367,32.5,56.772,32.5c3.404,0,6.13,1.5,6.244,1.564c0.158,0.088,0.256,0.255,0.256,0.437
			s-0.098,0.348-0.256,0.437C62.902,35.001,60.178,36.5,56.774,36.5z M51.962,34.5c1.034,0.423,2.812,1,4.811,1l0,0
			c0,0,0.001,0,0.002,0c2.003,0,3.777-0.576,4.81-0.999c-1.034-0.423-2.813-1-4.812-1.001C54.774,33.5,52.996,34.077,51.962,34.5z"
			/>
	</g>
	<g>
		<path class="st5" d="M56.272,45h-11c-0.552,0-1-0.448-1-1v-1c0-0.552,0.448-1,1-1h11c0.552,0,1,0.448,1,1v1
			C57.272,44.553,56.824,45,56.272,45z"/>
		<path class="st0" d="M56.272,45.5h-11c-0.827,0-1.5-0.673-1.5-1.5v-1c0-0.827,0.673-1.5,1.5-1.5h11c0.827,0,1.5,0.673,1.5,1.5v1
			C57.772,44.827,57.1,45.5,56.272,45.5z M45.272,42.5c-0.275,0-0.5,0.224-0.5,0.5v1c0,0.276,0.225,0.5,0.5,0.5h11
			c0.275,0,0.5-0.224,0.5-0.5v-1c0-0.276-0.225-0.5-0.5-0.5H45.272z"/>
	</g>
	<g>
		<path class="st5" d="M53.925,54h-6.306c-0.489,0-0.906-0.353-0.986-0.836L45.272,45h11l-1.361,8.164
			C54.831,53.647,54.414,54,53.925,54z"/>
		<path class="st0" d="M53.925,54.5h-6.306c-0.736,0-1.359-0.527-1.479-1.253l-1.36-8.165c-0.024-0.145,0.017-0.293,0.111-0.405
			c0.096-0.112,0.235-0.177,0.382-0.177h11c0.147,0,0.286,0.064,0.382,0.177c0.095,0.112,0.136,0.26,0.111,0.405l-1.361,8.165
			C55.284,53.973,54.661,54.5,53.925,54.5z M45.862,45.5l1.264,7.583c0.04,0.242,0.248,0.417,0.493,0.417h6.306
			c0.245,0,0.453-0.175,0.493-0.417l1.265-7.583H45.862z"/>
	</g>
	<g>
		<path class="st0" d="M56.772,58.5h-2c-0.276,0-0.5-0.224-0.5-0.5s0.224-0.5,0.5-0.5h2c0.276,0,0.5,0.224,0.5,0.5
			S57.049,58.5,56.772,58.5z"/>
	</g>
	<g>
		<path class="st0" d="M52.772,58.5h-8c-0.276,0-0.5-0.224-0.5-0.5s0.224-0.5,0.5-0.5h8c0.276,0,0.5,0.224,0.5,0.5
			S53.049,58.5,52.772,58.5z"/>
	</g>
	<g>
		<path class="st0" d="M33.5,13h-4c-0.276,0-0.5-0.224-0.5-0.5s0.224-0.5,0.5-0.5h4c0.276,0,0.5,0.224,0.5,0.5S33.776,13,33.5,13z"
			/>
	</g>
	<g>
		<path class="st0" d="M38.5,8.5L38.5,8.5l-4,0C34.224,8.5,34,8.276,34,8c0-0.276,0.224-0.5,0.5-0.5l0,0l4,0
			C38.776,7.5,39,7.725,39,8C39,8.277,38.776,8.5,38.5,8.5z"/>
	</g>
	<g>
		<path class="st0" d="M36.5,10.5c-0.276,0-0.5-0.224-0.5-0.5V6c0-0.276,0.224-0.5,0.5-0.5S37,5.724,37,6v4
			C37,10.276,36.776,10.5,36.5,10.5z"/>
	</g>
	<g>
		<path class="st0" d="M31.5,15c-0.276,0-0.5-0.224-0.5-0.5v-4c0-0.276,0.224-0.5,0.5-0.5s0.5,0.224,0.5,0.5v4
			C32,14.776,31.776,15,31.5,15z"/>
	</g>
</g>
</svg>
