<?xml version="1.0" encoding="utf-8"?>
<!-- Generator: Adobe Illustrator 22.0.0, SVG Export Plug-In . SVG Version: 6.00 Build 0)  -->
<svg version="1.1" id="Layer_1" xmlns="http://www.w3.org/2000/svg" xmlns:xlink="http://www.w3.org/1999/xlink" x="0px" y="0px"
	 viewBox="0 0 64 64" style="enable-background:new 0 0 64 64;" xml:space="preserve">
<style type="text/css">
	.st0{fill:#263238;}
	.st1{fill:#4FC3F7;}
	.st2{fill:#4DB6AC;}
	.st3{fill:#FF5252;}
	.st4{fill:#FFFFFF;}
	.st5{fill:#FFD740;}
	.st6{fill:#40C4FF;}
</style>
<g>
	<g>
		<path class="st0" d="M55.001,44.791h-7c-0.276,0-0.5-0.224-0.5-0.5s0.224-0.5,0.5-0.5h7c0.276,0,0.5,0.224,0.5,0.5
			S55.277,44.791,55.001,44.791z"/>
	</g>
	<g>
		<path class="st0" d="M59.001,44.791h-2c-0.276,0-0.5-0.224-0.5-0.5s0.224-0.5,0.5-0.5h2c0.276,0,0.5,0.224,0.5,0.5
			S59.277,44.791,59.001,44.791z"/>
	</g>
	<g>
		<path class="st0" d="M12.001,36.291h-7c-0.276,0-0.5-0.224-0.5-0.5s0.224-0.5,0.5-0.5h7c0.276,0,0.5,0.224,0.5,0.5
			S12.277,36.291,12.001,36.291z"/>
	</g>
	<g>
		<path class="st0" d="M3.001,36.291h-2c-0.276,0-0.5-0.224-0.5-0.5s0.224-0.5,0.5-0.5h2c0.276,0,0.5,0.224,0.5,0.5
			S3.277,36.291,3.001,36.291z"/>
	</g>
	<g>
		<path class="st0" d="M15.001,61.5c-0.276,0-0.5-0.224-0.5-0.5V51c0-0.276,0.224-0.5,0.5-0.5s0.5,0.224,0.5,0.5v10
			C15.501,61.276,15.277,61.5,15.001,61.5z"/>
	</g>
	<g>
		<path class="st0" d="M35.001,61.5c-0.276,0-0.5-0.224-0.5-0.5V51c0-0.276,0.224-0.5,0.5-0.5s0.5,0.224,0.5,0.5v10
			C35.501,61.276,35.277,61.5,35.001,61.5z"/>
	</g>
	<g>
		<path class="st0" d="M20.935,45c-0.041,0-0.083-0.005-0.124-0.016c-0.158-0.04-0.287-0.155-0.344-0.309l-2.416-6.437
			c-0.095-0.25,0.025-0.53,0.271-0.636l2.482-1.063c0.188-0.078,0.406-0.038,0.551,0.106l4,4c0.099,0.099,0.151,0.233,0.146,0.372
			c-0.006,0.139-0.068,0.27-0.174,0.36l-4.066,3.5C21.169,44.958,21.053,45,20.935,45z M19.154,38.335l1.997,5.319l3.115-2.682
			l-3.38-3.38L19.154,38.335z"/>
	</g>
	<g>
		<path class="st0" d="M29.057,45c-0.118,0-0.234-0.042-0.327-0.121l-4.056-3.5c-0.104-0.091-0.167-0.222-0.173-0.36
			c-0.005-0.139,0.048-0.273,0.146-0.372l4-4c0.145-0.145,0.363-0.185,0.551-0.106l2.481,1.063c0.245,0.105,0.365,0.386,0.271,0.637
			l-2.426,6.437c-0.058,0.152-0.187,0.268-0.345,0.308C29.14,44.995,29.098,45,29.057,45z M25.735,40.973l3.105,2.681l2.005-5.318
			l-1.73-0.742L25.735,40.973z"/>
	</g>
	<g>
		<path class="st0" d="M43.001,61.5c-0.276,0-0.5-0.224-0.5-0.5V47.945c0-2.804-1.665-5.33-4.243-6.434l-9.454-4.052
			c-0.184-0.079-0.303-0.26-0.303-0.46v-1.052c-2.271,0.732-4.729,0.732-7,0V37c0,0.2-0.119,0.381-0.303,0.46l-9.455,4.052
			c-2.577,1.104-4.242,3.629-4.242,6.434V61c0,0.276-0.224,0.5-0.5,0.5s-0.5-0.224-0.5-0.5V47.945c0-3.205,1.903-6.091,4.848-7.354
			l9.152-3.922v-1.431c0-0.165,0.082-0.32,0.219-0.413c0.137-0.094,0.312-0.111,0.464-0.053c2.457,0.965,5.178,0.965,7.635,0
			c0.153-0.059,0.328-0.041,0.464,0.053c0.137,0.093,0.219,0.248,0.219,0.413v1.431l9.151,3.922
			c2.945,1.263,4.849,4.148,4.849,7.354V61C43.501,61.276,43.277,61.5,43.001,61.5z"/>
	</g>
	<g>
		<path class="st0" d="M25.001,36.5c-5.243,0-9.746-3.475-11.096-8.502c-1.61-0.05-2.904-1.376-2.904-2.998s1.294-2.948,2.904-2.998
			c1.35-5.027,5.853-8.502,11.096-8.502s9.745,3.475,11.095,8.502c1.61,0.05,2.905,1.376,2.905,2.998s-1.295,2.948-2.905,2.998
			C34.746,33.025,30.244,36.5,25.001,36.5z M14.223,26.98c0.239,0,0.501,0.149,0.554,0.378c1.103,4.794,5.307,8.142,10.225,8.142
			c4.917,0,9.121-3.348,10.224-8.142c0.058-0.249,0.288-0.421,0.548-0.384C35.901,26.992,35.95,27,36.001,27c1.103,0,2-0.897,2-2
			s-0.897-2-2-2c-0.051,0-0.1,0.008-0.149,0.015c-0.25,0.044-0.568-0.121-0.627-0.373c-1.103-4.794-5.307-8.142-10.224-8.142
			c-4.918,0-9.122,3.348-10.225,8.142c-0.057,0.249-0.282,0.421-0.548,0.384C14.1,23.008,14.052,23,14.001,23c-1.103,0-2,0.897-2,2
			s0.897,2,2,2c0.051,0,0.099-0.008,0.147-0.015C14.173,26.981,14.197,26.98,14.223,26.98z"/>
	</g>
	<g>
		<path class="st5" d="M15.001,24h-0.5v-6.5h3v4C17.501,22.881,16.381,24,15.001,24z"/>
		<path class="st0" d="M15.001,24.5h-0.5c-0.276,0-0.5-0.224-0.5-0.5v-6.5c0-0.276,0.224-0.5,0.5-0.5h3c0.276,0,0.5,0.224,0.5,0.5v4
			C18.001,23.154,16.655,24.5,15.001,24.5z M15.001,23.5h0.01H15.001z M15.001,18v5.5c1.103,0,2-0.897,2-2V18H15.001z"/>
	</g>
	<g>
		<path class="st5" d="M32.501,17.45v4.05c0,1.381,1.119,2.5,2.5,2.5h0.5v-7.935C34.712,16.839,33.663,17.332,32.501,17.45z"/>
		<path class="st0" d="M35.501,24.5h-0.5c-1.654,0-3-1.346-3-3v-4.051c0-0.257,0.194-0.472,0.45-0.497
			c1.029-0.104,1.988-0.546,2.699-1.244c0.146-0.142,0.359-0.183,0.544-0.104c0.186,0.078,0.307,0.26,0.307,0.461V24
			C36.001,24.276,35.777,24.5,35.501,24.5z M33.001,17.883V21.5c0,1.103,0.897,2,2,2v-6.402
			C34.399,17.483,33.719,17.752,33.001,17.883z"/>
	</g>
	<g>
		<path class="st0" d="M25.001,30.497c-1.409,0-2.817-0.536-3.89-1.608c-0.195-0.195-0.195-0.512,0-0.707s0.512-0.195,0.707,0
			c1.753,1.753,4.609,1.754,6.364,0c0.195-0.195,0.512-0.195,0.707,0s0.195,0.512,0,0.707
			C27.817,29.961,26.409,30.497,25.001,30.497z"/>
	</g>
	<g>
		<path class="st5" d="M32.001,17.5h-17.5v0c0-4.142,3.358-7.5,7.5-7.5h5.205c2.171,0,4.315-0.471,6.286-1.381L37.001,7v5.5
			C37.001,15.261,34.762,17.5,32.001,17.5z"/>
		<path class="st0" d="M32.001,18h-17.5c-0.276,0-0.5-0.224-0.5-0.5c0-4.411,3.589-8,8-8h5.205c2.085,0,4.186-0.462,6.076-1.335
			l3.509-1.619c0.156-0.07,0.335-0.06,0.479,0.033c0.144,0.092,0.23,0.25,0.23,0.421v5.5C37.501,15.532,35.033,18,32.001,18z
			 M15.019,17h16.982c2.481,0,4.5-2.019,4.5-4.5V7.781l-2.799,1.292c-2.021,0.934-4.268,1.427-6.496,1.427h-5.205
			C18.31,10.5,15.276,13.373,15.019,17z"/>
	</g>
	<g>
		<path class="st6" d="M60.501,18.323h-17c-1.381,0-2.5,1.119-2.5,2.5v11c0,1.381,1.119,2.5,2.5,2.5h2.5v2.865
			c0,0.848,0.989,1.311,1.64,0.768l4.36-3.633h8.5c1.381,0,2.5-1.119,2.5-2.5v-11C63.001,19.442,61.881,18.323,60.501,18.323z"/>
		<path class="st0" d="M47.004,38.69c-0.216,0-0.434-0.048-0.64-0.144c-0.532-0.25-0.863-0.771-0.863-1.358v-2.365h-2
			c-1.654,0-3-1.346-3-3v-11c0-1.654,1.346-3,3-3h17c1.654,0,3,1.346,3,3v11c0,1.654-1.346,3-3,3h-8.319l-4.221,3.517
			C47.684,38.571,47.347,38.69,47.004,38.69z M43.501,18.823c-1.103,0-2,0.897-2,2v11c0,1.103,0.897,2,2,2h2.5
			c0.276,0,0.5,0.224,0.5,0.5v2.865c0,0.295,0.22,0.421,0.287,0.452s0.307,0.119,0.532-0.068l4.36-3.633
			c0.09-0.075,0.203-0.116,0.32-0.116h8.5c1.103,0,2-0.897,2-2v-11c0-1.103-0.897-2-2-2H43.501z"/>
	</g>
	<g>
		<path class="st0" d="M60.001,22.823h-16c-0.276,0-0.5-0.224-0.5-0.5s0.224-0.5,0.5-0.5h16c0.276,0,0.5,0.224,0.5,0.5
			S60.277,22.823,60.001,22.823z"/>
	</g>
	<g>
		<path class="st0" d="M60.001,26.823h-16c-0.276,0-0.5-0.224-0.5-0.5s0.224-0.5,0.5-0.5h16c0.276,0,0.5,0.224,0.5,0.5
			S60.277,26.823,60.001,26.823z"/>
	</g>
	<g>
		<path class="st0" d="M51.001,30.823h-7c-0.276,0-0.5-0.224-0.5-0.5s0.224-0.5,0.5-0.5h7c0.276,0,0.5,0.224,0.5,0.5
			S51.277,30.823,51.001,30.823z"/>
	</g>
	<g>
		<path class="st0" d="M16.001,5.5h-4c-0.276,0-0.5-0.224-0.5-0.5s0.224-0.5,0.5-0.5h4c0.276,0,0.5,0.224,0.5,0.5
			S16.277,5.5,16.001,5.5z"/>
	</g>
	<g>
		<path class="st0" d="M14.001,7.5c-0.276,0-0.5-0.224-0.5-0.5V3c0-0.276,0.224-0.5,0.5-0.5s0.5,0.224,0.5,0.5v4
			C14.501,7.276,14.277,7.5,14.001,7.5z"/>
	</g>
	<g>
		<path class="st0" d="M11.001,10.5h-4c-0.276,0-0.5-0.224-0.5-0.5s0.224-0.5,0.5-0.5h4c0.276,0,0.5,0.224,0.5,0.5
			S11.277,10.5,11.001,10.5z"/>
	</g>
	<g>
		<path class="st0" d="M9.001,12.5c-0.276,0-0.5-0.224-0.5-0.5V8c0-0.276,0.224-0.5,0.5-0.5s0.5,0.224,0.5,0.5v4
			C9.501,12.276,9.277,12.5,9.001,12.5z"/>
	</g>
</g>
</svg>
