<?xml version="1.0" encoding="utf-8"?>
<!-- Generator: Adobe Illustrator 22.0.0, SVG Export Plug-In . SVG Version: 6.00 Build 0)  -->
<svg version="1.1" id="Layer_1" xmlns="http://www.w3.org/2000/svg" xmlns:xlink="http://www.w3.org/1999/xlink" x="0px" y="0px"
	 viewBox="0 0 64 64" style="enable-background:new 0 0 64 64;" xml:space="preserve">
<style type="text/css">
	.st0{fill:#263238;}
	.st1{fill:#4FC3F7;}
	.st2{fill:#4DB6AC;}
	.st3{fill:#FF5252;}
	.st4{fill:#FFFFFF;}
	.st5{fill:#FFD740;}
	.st6{fill:#40C4FF;}
</style>
<g>
	<g>
		<path class="st0" d="M43.5,59.5h-22c-1.654,0-3-1.346-3-3V37.514c0-1.09,0.319-2.145,0.924-3.051l1.16-1.74
			C20.677,32.583,20.833,32.5,21,32.5h23c0.167,0,0.323,0.083,0.416,0.223l1.16,1.74c0.604,0.906,0.924,1.961,0.924,3.051V56.5
			C46.5,58.154,45.154,59.5,43.5,59.5z M21.268,33.5l-1.012,1.518c-0.494,0.741-0.756,1.604-0.756,2.496V56.5c0,1.103,0.897,2,2,2
			h22c1.103,0,2-0.897,2-2V37.514c0-0.892-0.262-1.755-0.756-2.496L43.732,33.5H21.268z"/>
	</g>
	<g>
		<path class="st0" d="M5,46H3c-0.276,0-0.5-0.224-0.5-0.5S2.724,45,3,45h2c0.276,0,0.5,0.224,0.5,0.5S5.276,46,5,46z"/>
	</g>
	<g>
		<path class="st0" d="M15,46H7c-0.276,0-0.5-0.224-0.5-0.5S6.724,45,7,45h8c0.276,0,0.5,0.224,0.5,0.5S15.276,46,15,46z"/>
	</g>
	<g>
		<path class="st0" d="M61,46h-2c-0.276,0-0.5-0.224-0.5-0.5S58.724,45,59,45h2c0.276,0,0.5,0.224,0.5,0.5S61.276,46,61,46z"/>
	</g>
	<g>
		<path class="st0" d="M57,46h-8c-0.276,0-0.5-0.224-0.5-0.5S48.724,45,49,45h8c0.276,0,0.5,0.224,0.5,0.5S57.276,46,57,46z"/>
	</g>
	<g>
		<path class="st5" d="M26,5c-1.381,0-2.5,1.119-2.5,2.5l0,8.33c0,1.624,1.216,3.081,2.839,3.165C28.069,19.086,29.5,17.71,29.5,16
			l0,5.83c0,1.624,1.216,3.081,2.839,3.165C34.069,25.086,35.5,23.71,35.5,22v-3c0,1.71,1.431,3.086,3.161,2.996
			c1.622-0.085,2.839-1.541,2.839-3.165l0-11.33C41.5,6.119,40.381,5,39,5H26z"/>
		<path class="st0" d="M32.503,25.5c-0.063,0-0.127-0.002-0.19-0.005C30.486,25.399,29,23.755,29,21.83v-3.38
			c-0.03,0.03-0.061,0.06-0.091,0.089c-0.703,0.667-1.629,1.003-2.597,0.956C24.486,19.399,23,17.755,23,15.83V7.5
			c0-1.654,1.346-3,3-3h13c1.654,0,3,1.346,3,3v11.33c0,1.925-1.486,3.569-3.313,3.665c-0.979,0.045-1.894-0.289-2.597-0.956
			C36.061,21.51,36.03,21.48,36,21.45V22c0,0.97-0.388,1.872-1.091,2.539C34.252,25.163,33.403,25.5,32.503,25.5z M30,16v5.83
			c0,1.402,1.061,2.598,2.365,2.666c0.692,0.038,1.354-0.206,1.855-0.682C34.723,23.337,35,22.693,35,22v-3
			c0-0.276,0.224-0.5,0.5-0.5S36,18.724,36,19c0,0.693,0.277,1.337,0.779,1.814c0.503,0.478,1.167,0.723,1.855,0.682
			C39.939,21.428,41,20.232,41,18.83V7.5c0-1.103-0.897-2-2-2H26c-1.103,0-2,0.897-2,2v8.33c0,1.402,1.061,2.598,2.365,2.666
			c0.689,0.035,1.353-0.206,1.855-0.682C28.723,17.337,29,16.693,29,16c0-0.276,0.224-0.5,0.5-0.5S30,15.724,30,16z"/>
	</g>
	<g>
		<path class="st0" d="M43,13.5H28.5c-0.077,0-0.154-0.018-0.224-0.053l-2-1C26.107,12.362,26,12.189,26,12V6
			c0-0.189,0.107-0.362,0.276-0.447l2-1C28.346,4.518,28.423,4.5,28.5,4.5H43c0.077,0,0.154,0.018,0.224,0.053L45.118,5.5H58.5
			C58.776,5.5,59,5.724,59,6s-0.224,0.5-0.5,0.5H45c-0.077,0-0.154-0.018-0.224-0.053L42.882,5.5H28.618L27,6.309v5.382l1.618,0.809
			h14.264l1.895-0.947C44.846,11.518,44.923,11.5,45,11.5h13.5c0.276,0,0.5,0.224,0.5,0.5s-0.224,0.5-0.5,0.5H45.118l-1.895,0.947
			C43.154,13.482,43.077,13.5,43,13.5z"/>
	</g>
	<g>
		<rect x="19" y="40.5" class="st3" width="27" height="10"/>
		<path class="st0" d="M46,51H19c-0.276,0-0.5-0.224-0.5-0.5v-10c0-0.276,0.224-0.5,0.5-0.5h27c0.276,0,0.5,0.224,0.5,0.5v10
			C46.5,50.776,46.276,51,46,51z M19.5,50h26v-9h-26V50z"/>
	</g>
	<g>
		<path class="st0" d="M25,49c-1.93,0-3.5-1.57-3.5-3.5S23.07,42,25,42c0.935,0,1.813,0.364,2.475,1.025
			c0.195,0.195,0.195,0.512,0,0.707s-0.512,0.195-0.707,0C26.295,43.26,25.667,43,25,43c-1.379,0-2.5,1.122-2.5,2.5S23.621,48,25,48
			c1.207,0,2.218-0.86,2.45-2H25c-0.276,0-0.5-0.224-0.5-0.5S24.724,45,25,45h3c0.276,0,0.5,0.224,0.5,0.5
			C28.5,47.43,26.93,49,25,49z"/>
	</g>
	<g>
		<path class="st0" d="M43,49h-2c-0.827,0-1.5-0.673-1.5-1.5v-4c0-0.827,0.673-1.5,1.5-1.5h2c0.276,0,0.5,0.224,0.5,0.5
			S43.276,43,43,43h-2c-0.275,0-0.5,0.224-0.5,0.5v4c0,0.276,0.225,0.5,0.5,0.5h2c0.276,0,0.5,0.224,0.5,0.5S43.276,49,43,49z"/>
	</g>
	<g>
		<path class="st0" d="M43,46h-3c-0.276,0-0.5-0.224-0.5-0.5S39.724,45,40,45h3c0.276,0,0.5,0.224,0.5,0.5S43.276,46,43,46z"/>
	</g>
	<g>
		<path class="st0" d="M33,49h-3c-0.276,0-0.5-0.224-0.5-0.5v-6c0-0.276,0.224-0.5,0.5-0.5s0.5,0.224,0.5,0.5V48H33
			c0.276,0,0.5,0.224,0.5,0.5S33.276,49,33,49z"/>
	</g>
	<g>
		<path class="st0" d="M36,49c-1.103,0-2-0.897-2-2v-4.5c0-0.276,0.224-0.5,0.5-0.5s0.5,0.224,0.5,0.5V47c0,0.551,0.448,1,1,1
			s1-0.449,1-1v-4.5c0-0.276,0.224-0.5,0.5-0.5s0.5,0.224,0.5,0.5V47C38,48.103,37.103,49,36,49z"/>
	</g>
	<g>
		<path class="st0" d="M45,33.5H20c-0.827,0-1.5-0.673-1.5-1.5v-1c0-0.827,0.673-1.5,1.5-1.5h25c0.827,0,1.5,0.673,1.5,1.5v1
			C46.5,32.827,45.827,33.5,45,33.5z M20,30.5c-0.275,0-0.5,0.224-0.5,0.5v1c0,0.276,0.225,0.5,0.5,0.5h25
			c0.275,0,0.5-0.224,0.5-0.5v-1c0-0.276-0.225-0.5-0.5-0.5H20z"/>
	</g>
	<g>
		<path class="st0" d="M21,23h-4c-0.276,0-0.5-0.224-0.5-0.5S16.724,22,17,22h4c0.276,0,0.5,0.224,0.5,0.5S21.276,23,21,23z"/>
	</g>
	<g>
		<path class="st0" d="M15,18.5h-4c-0.276,0-0.5-0.224-0.5-0.5s0.224-0.5,0.5-0.5h4c0.276,0,0.5,0.224,0.5,0.5S15.276,18.5,15,18.5z
			"/>
	</g>
	<g>
		<path class="st0" d="M13,20.5c-0.276,0-0.5-0.224-0.5-0.5v-4c0-0.276,0.224-0.5,0.5-0.5s0.5,0.224,0.5,0.5v4
			C13.5,20.276,13.276,20.5,13,20.5z"/>
	</g>
	<g>
		<path class="st0" d="M19,25c-0.276,0-0.5-0.224-0.5-0.5v-4c0-0.276,0.224-0.5,0.5-0.5s0.5,0.224,0.5,0.5v4
			C19.5,24.776,19.276,25,19,25z"/>
	</g>
</g>
</svg>
