<?xml version="1.0" encoding="utf-8"?>
<!-- Generator: Adobe Illustrator 22.0.0, SVG Export Plug-In . SVG Version: 6.00 Build 0)  -->
<svg version="1.1" id="Layer_1" xmlns="http://www.w3.org/2000/svg" xmlns:xlink="http://www.w3.org/1999/xlink" x="0px" y="0px"
	 viewBox="0 0 64 64" style="enable-background:new 0 0 64 64;" xml:space="preserve">
<style type="text/css">
	.st0{fill:#263238;}
	.st1{fill:#4FC3F7;}
	.st2{fill:#4DB6AC;}
	.st3{fill:#FF5252;}
	.st4{fill:#FFFFFF;}
	.st5{fill:#FFD740;}
	.st6{fill:#40C4FF;}
</style>
<g>
	<g>
		<path class="st3" d="M42.701,4.349L37,11l5.701,6.651C42.891,17.872,43.168,18,43.46,18H60c0.552,0,1-0.448,1-1V5
			c0-0.552-0.448-1-1-1H43.46C43.168,4,42.891,4.128,42.701,4.349z M42.5,13c-1.105,0-2-0.896-2-2c0-1.105,0.895-2,2-2s2,0.895,2,2
			C44.5,12.104,43.605,13,42.5,13z"/>
		<path class="st0" d="M60,18.5H43.46c-0.438,0-0.854-0.191-1.139-0.523l-5.701-6.651c-0.16-0.188-0.16-0.463,0-0.65l5.7-6.65
			c0,0,0,0,0.001-0.001C42.606,3.691,43.022,3.5,43.46,3.5H60c0.827,0,1.5,0.673,1.5,1.5v12C61.5,17.827,60.827,18.5,60,18.5z
			 M37.658,11l5.422,6.325c0.095,0.111,0.233,0.175,0.38,0.175H60c0.275,0,0.5-0.225,0.5-0.5V5c0-0.275-0.225-0.5-0.5-0.5H43.46
			c-0.146,0-0.285,0.063-0.381,0.176L37.658,11z M42.5,13.5c-1.379,0-2.5-1.121-2.5-2.5s1.121-2.5,2.5-2.5S45,9.621,45,11
			S43.879,13.5,42.5,13.5z M42.5,9.5c-0.827,0-1.5,0.673-1.5,1.5s0.673,1.5,1.5,1.5S44,11.827,44,11S43.327,9.5,42.5,9.5z"/>
	</g>
	<g>
		<path class="st0" d="M32,60.5c-0.276,0-0.5-0.224-0.5-0.5v-9.5c0-0.276,0.224-0.5,0.5-0.5s0.5,0.224,0.5,0.5V60
			C32.5,60.276,32.276,60.5,32,60.5z"/>
	</g>
	<g>
		<path class="st2" d="M18.918,41.368C24.776,47.226,32,49.5,32,49.5s-2.274-7.224-8.132-13.081s-13.081-8.132-13.081-8.132
			S13.061,35.51,18.918,41.368z"/>
		<path class="st0" d="M32,50c-0.05,0-0.101-0.008-0.15-0.023c-0.3-0.094-7.408-2.377-13.284-8.255l0,0l0,0
			c-5.878-5.876-8.161-12.984-8.255-13.284c-0.057-0.178-0.009-0.372,0.123-0.504c0.131-0.132,0.323-0.181,0.504-0.123
			c0.3,0.094,7.408,2.377,13.284,8.255c5.878,5.876,8.161,12.984,8.255,13.284c0.057,0.178,0.009,0.372-0.123,0.504
			C32.259,49.949,32.131,50,32,50z M11.622,29.122c0.841,2.156,3.211,7.453,7.65,11.893l0,0c4.444,4.445,9.737,6.812,11.893,7.65
			c-0.841-2.156-3.211-7.453-7.65-11.893C19.07,32.327,13.777,29.961,11.622,29.122z"/>
	</g>
	<g>
		<path class="st2" d="M45.082,41.368C39.224,47.226,32,49.5,32,49.5s2.274-7.224,8.132-13.081s13.081-8.132,13.081-8.132
			S50.939,35.51,45.082,41.368z"/>
		<path class="st0" d="M32,50c-0.131,0-0.259-0.051-0.354-0.146c-0.132-0.132-0.18-0.326-0.123-0.504
			c0.094-0.3,2.377-7.408,8.255-13.284c5.876-5.878,12.984-8.161,13.284-8.255c0.18-0.059,0.373-0.009,0.504,0.123
			c0.132,0.132,0.18,0.326,0.123,0.504c-0.094,0.3-2.377,7.408-8.255,13.284l0,0l0,0C39.559,47.6,32.45,49.883,32.15,49.977
			C32.101,49.992,32.05,50,32,50z M52.378,29.122c-2.156,0.841-7.453,3.211-11.893,7.65c-4.445,4.444-6.812,9.737-7.65,11.893
			c2.156-0.841,7.453-3.211,11.893-7.65l0,0C49.173,36.57,51.539,31.277,52.378,29.122z"/>
	</g>
	<g>
		<path class="st2" d="M22,53c5.523,0,10-2.5,10-2.5S27.523,48,22,48s-10,2.5-10,2.5S16.477,53,22,53z"/>
		<path class="st0" d="M22,53.5c-5.588,0-10.057-2.459-10.244-2.563C11.598,50.849,11.5,50.682,11.5,50.5s0.098-0.349,0.256-0.437
			C11.943,49.959,16.412,47.5,22,47.5s10.057,2.459,10.244,2.563c0.158,0.088,0.256,0.255,0.256,0.437s-0.098,0.349-0.256,0.437
			C32.057,51.041,27.588,53.5,22,53.5z M13.138,50.5c1.554,0.701,4.959,2,8.862,2c3.911,0,7.311-1.298,8.862-2
			c-1.554-0.701-4.959-2-8.862-2C18.089,48.5,14.689,49.798,13.138,50.5z"/>
	</g>
	<g>
		<path class="st2" d="M42,53c5.523,0,10-2.5,10-2.5S47.523,48,42,48s-10,2.5-10,2.5S36.477,53,42,53z"/>
		<path class="st0" d="M42,53.5c-5.588,0-10.057-2.459-10.244-2.563C31.598,50.849,31.5,50.682,31.5,50.5s0.098-0.349,0.256-0.437
			C31.943,49.959,36.412,47.5,42,47.5s10.057,2.459,10.244,2.563c0.158,0.088,0.256,0.255,0.256,0.437s-0.098,0.349-0.256,0.437
			C52.057,51.041,47.588,53.5,42,53.5z M33.138,50.5c1.554,0.701,4.959,2,8.862,2c3.911,0,7.311-1.298,8.862-2
			c-1.554-0.701-4.959-2-8.862-2C38.089,48.5,34.689,49.798,33.138,50.5z"/>
	</g>
	<g>
		<path class="st0" d="M61,44.25h-2c-0.276,0-0.5-0.224-0.5-0.5s0.224-0.5,0.5-0.5h2c0.276,0,0.5,0.224,0.5,0.5
			S61.276,44.25,61,44.25z"/>
	</g>
	<g>
		<path class="st0" d="M57,44.25h-8c-0.276,0-0.5-0.224-0.5-0.5s0.224-0.5,0.5-0.5h8c0.276,0,0.5,0.224,0.5,0.5
			S57.276,44.25,57,44.25z"/>
	</g>
	<g>
		<path class="st0" d="M5,44.25H3c-0.276,0-0.5-0.224-0.5-0.5s0.224-0.5,0.5-0.5h2c0.276,0,0.5,0.224,0.5,0.5S5.276,44.25,5,44.25z"
			/>
	</g>
	<g>
		<path class="st0" d="M15,44.25H7c-0.276,0-0.5-0.224-0.5-0.5s0.224-0.5,0.5-0.5h8c0.276,0,0.5,0.224,0.5,0.5
			S15.276,44.25,15,44.25z"/>
	</g>
	<g>
		<path class="st0" d="M23.615,24h-4c-0.276,0-0.5-0.224-0.5-0.5s0.224-0.5,0.5-0.5h4c0.276,0,0.5,0.224,0.5,0.5
			S23.892,24,23.615,24z"/>
	</g>
	<g>
		<path class="st0" d="M18.615,19.5h-4c-0.276,0-0.5-0.224-0.5-0.5s0.224-0.5,0.5-0.5h4c0.276,0,0.5,0.224,0.5,0.5
			S18.892,19.5,18.615,19.5z"/>
	</g>
	<g>
		<path class="st0" d="M16.615,21.5c-0.276,0-0.5-0.224-0.5-0.5v-4c0-0.276,0.224-0.5,0.5-0.5s0.5,0.224,0.5,0.5v4
			C17.115,21.276,16.892,21.5,16.615,21.5z"/>
	</g>
	<g>
		<path class="st0" d="M21.615,26c-0.276,0-0.5-0.224-0.5-0.5v-4c0-0.276,0.224-0.5,0.5-0.5s0.5,0.224,0.5,0.5v4
			C22.115,25.776,21.892,26,21.615,26z"/>
	</g>
	<g>
		<path class="st2" d="M28,32c0,9.389,4,17,4,17s4-7.611,4-17s-4-17-4-17S28,22.611,28,32z"/>
		<path class="st0" d="M32,49.5c-0.186,0-0.356-0.103-0.442-0.268C31.517,49.155,27.5,41.403,27.5,32s4.017-17.155,4.058-17.232
			c0.172-0.33,0.713-0.33,0.885,0C32.483,14.845,36.5,22.597,36.5,32s-4.017,17.155-4.058,17.232C32.356,49.397,32.186,49.5,32,49.5
			z M32,16.165C30.971,18.46,28.5,24.723,28.5,32c0,7.285,2.47,13.542,3.5,15.835c1.029-2.295,3.5-8.558,3.5-15.835
			C35.5,24.715,33.03,18.458,32,16.165z"/>
	</g>
	<g>
		<path class="st0" d="M42.5,11.5H32c-0.276,0-0.5-0.224-0.5-0.5s0.224-0.5,0.5-0.5h10.5c0.276,0,0.5,0.224,0.5,0.5
			S42.776,11.5,42.5,11.5z"/>
	</g>
	<g>
		<path class="st0" d="M49.961,10.5c-1.103,0-2-0.897-2-2s0.897-2,2-2s2,0.897,2,2S51.063,10.5,49.961,10.5z M49.961,7.5
			c-0.552,0-1,0.448-1,1s0.448,1,1,1s1-0.448,1-1S50.513,7.5,49.961,7.5z"/>
	</g>
	<g>
		<path class="st0" d="M54.961,15.5c-1.103,0-2-0.897-2-2s0.897-2,2-2s2,0.897,2,2S56.063,15.5,54.961,15.5z M54.961,12.5
			c-0.552,0-1,0.448-1,1s0.448,1,1,1s1-0.448,1-1S55.513,12.5,54.961,12.5z"/>
	</g>
	<g>
		<path class="st0" d="M49.961,14c-0.128,0-0.256-0.049-0.354-0.146c-0.195-0.195-0.195-0.512,0-0.707l5-5
			c0.195-0.195,0.512-0.195,0.707,0s0.195,0.512,0,0.707l-5,5C50.217,13.951,50.089,14,49.961,14z"/>
	</g>
</g>
</svg>
