<?xml version="1.0" encoding="utf-8"?>
<!-- Generator: Adobe Illustrator 22.0.0, SVG Export Plug-In . SVG Version: 6.00 Build 0)  -->
<svg version="1.1" id="Layer_1" xmlns="http://www.w3.org/2000/svg" xmlns:xlink="http://www.w3.org/1999/xlink" x="0px" y="0px"
	 viewBox="0 0 64 64" style="enable-background:new 0 0 64 64;" xml:space="preserve">
<style type="text/css">
	.st0{fill:#263238;}
	.st1{fill:#4FC3F7;}
	.st2{fill:#4DB6AC;}
	.st3{fill:#FF5252;}
	.st4{fill:#FFFFFF;}
	.st5{fill:#FFD740;}
	.st6{fill:#40C4FF;}
</style>
<g>
	<g>
		<path class="st2" d="M0,47L0,47c0,8.284,6.716,15,15,15h34c8.284,0,15-6.716,15-15v0H0z"/>
	</g>
	<g>
		<path class="st0" d="M4,29.29H2c-0.276,0-0.5-0.224-0.5-0.5s0.224-0.5,0.5-0.5h2c0.276,0,0.5,0.224,0.5,0.5S4.276,29.29,4,29.29z"
			/>
	</g>
	<g>
		<path class="st0" d="M15.5,29.29H6c-0.276,0-0.5-0.224-0.5-0.5s0.224-0.5,0.5-0.5h9.5c0.276,0,0.5,0.224,0.5,0.5
			S15.776,29.29,15.5,29.29z"/>
	</g>
	<g>
		<path class="st0" d="M62,29.29h-2c-0.276,0-0.5-0.224-0.5-0.5s0.224-0.5,0.5-0.5h2c0.276,0,0.5,0.224,0.5,0.5
			S62.276,29.29,62,29.29z"/>
	</g>
	<g>
		<path class="st0" d="M58,29.29h-9.5c-0.276,0-0.5-0.224-0.5-0.5s0.224-0.5,0.5-0.5H58c0.276,0,0.5,0.224,0.5,0.5
			S58.276,29.29,58,29.29z"/>
	</g>
	<g>
		<path class="st0" d="M45,41.5c-0.276,0-0.5-0.224-0.5-0.5V18.5c0-3.859-3.141-7-7-7h-11c-3.859,0-7,3.141-7,7V41
			c0,0.276-0.224,0.5-0.5,0.5s-0.5-0.224-0.5-0.5V18.5c0-4.411,3.589-8,8-8h11c4.411,0,8,3.589,8,8V41
			C45.5,41.276,45.276,41.5,45,41.5z"/>
	</g>
	<g>
		<path class="st0" d="M42,19c-0.276,0-0.5-0.224-0.5-0.5c0-2.206-1.794-4-4-4c-0.276,0-0.5-0.224-0.5-0.5s0.224-0.5,0.5-0.5
			c2.757,0,5,2.243,5,5C42.5,18.776,42.276,19,42,19z"/>
	</g>
	<g>
		<path class="st0" d="M52,51.5H12c-0.276,0-0.5-0.224-0.5-0.5v-0.5c0-4.411,3.589-8,8-8h25c4.411,0,8,3.589,8,8V51
			C52.5,51.276,52.276,51.5,52,51.5z M12.5,50.5h39c0-3.859-3.141-7-7-7h-25C15.641,43.5,12.5,46.641,12.5,50.5z"/>
	</g>
	<g>
		<polygon class="st5" points="38.5,20 33.5,20 33.5,16 30.5,16 30.5,20 25.5,20 25.5,23 30.5,23 30.5,32 33.5,32 33.5,23 38.5,23 
					"/>
		<path class="st0" d="M33.5,32.5h-3c-0.276,0-0.5-0.224-0.5-0.5v-8.5h-4.5c-0.276,0-0.5-0.224-0.5-0.5v-3
			c0-0.276,0.224-0.5,0.5-0.5H30V16c0-0.276,0.224-0.5,0.5-0.5h3c0.276,0,0.5,0.224,0.5,0.5v3.5h4.5c0.276,0,0.5,0.224,0.5,0.5v3
			c0,0.276-0.224,0.5-0.5,0.5H34V32C34,32.276,33.776,32.5,33.5,32.5z M31,31.5h2V23c0-0.276,0.224-0.5,0.5-0.5H38v-2h-4.5
			c-0.276,0-0.5-0.224-0.5-0.5v-3.5h-2V20c0,0.276-0.224,0.5-0.5,0.5H26v2h4.5c0.276,0,0.5,0.224,0.5,0.5V31.5z"/>
	</g>
	<g>
		<path class="st0" d="M14.5,9h-4C10.224,9,10,8.776,10,8.5S10.224,8,10.5,8h4C14.776,8,15,8.224,15,8.5S14.776,9,14.5,9z"/>
	</g>
	<g>
		<path class="st0" d="M19,4.5h-4c-0.276,0-0.5-0.224-0.5-0.5s0.224-0.5,0.5-0.5h4c0.276,0,0.5,0.224,0.5,0.5S19.276,4.5,19,4.5z"/>
	</g>
	<g>
		<path class="st0" d="M17,6.5c-0.276,0-0.5-0.224-0.5-0.5V2c0-0.276,0.224-0.5,0.5-0.5s0.5,0.224,0.5,0.5v4
			C17.5,6.276,17.276,6.5,17,6.5z"/>
	</g>
	<g>
		<path class="st0" d="M12.5,11c-0.276,0-0.5-0.224-0.5-0.5v-4C12,6.224,12.224,6,12.5,6S13,6.224,13,6.5v4
			C13,10.776,12.776,11,12.5,11z"/>
	</g>
	<g>
		<path class="st1" d="M50,5c0-1.657,1.343-3,3-3s3,1.343,3,3c1.657,0,3,1.343,3,3s-1.343,3-3,3h-6c-1.657,0-3-1.343-3-3
			S48.343,5,50,5z"/>
	</g>
	<g>
		<path class="st0" d="M38.5,36.5h-13c-0.276,0-0.5-0.224-0.5-0.5s0.224-0.5,0.5-0.5h13c0.276,0,0.5,0.224,0.5,0.5
			S38.776,36.5,38.5,36.5z"/>
	</g>
	<g>
		<path class="st0" d="M36,39.5h-8c-0.276,0-0.5-0.224-0.5-0.5s0.224-0.5,0.5-0.5h8c0.276,0,0.5,0.224,0.5,0.5S36.276,39.5,36,39.5z
			"/>
	</g>
	<g>
		<path class="st0" d="M56,51.5H8c-0.276,0-0.5-0.224-0.5-0.5s0.224-0.5,0.5-0.5h48c0.276,0,0.5,0.224,0.5,0.5S56.276,51.5,56,51.5z
			"/>
	</g>
</g>
</svg>
