<?xml version="1.0" encoding="utf-8"?>
<!-- Generator: Adobe Illustrator 22.0.0, SVG Export Plug-In . SVG Version: 6.00 Build 0)  -->
<svg version="1.1" id="Layer_1" xmlns="http://www.w3.org/2000/svg" xmlns:xlink="http://www.w3.org/1999/xlink" x="0px" y="0px"
	 viewBox="0 0 64 64" style="enable-background:new 0 0 64 64;" xml:space="preserve">
<style type="text/css">
	.st0{fill:#263238;}
	.st1{fill:#4FC3F7;}
	.st2{fill:#4DB6AC;}
	.st3{fill:#FF5252;}
	.st4{fill:#FFFFFF;}
	.st5{fill:#FFD740;}
	.st6{fill:#40C4FF;}
</style>
<g>
	<g>
		<circle class="st3" cx="54.5" cy="12" r="9"/>
		<path class="st0" d="M54.5,21.5c-5.238,0-9.5-4.262-9.5-9.5s4.262-9.5,9.5-9.5S64,6.762,64,12S59.738,21.5,54.5,21.5z M54.5,3.5
			C49.813,3.5,46,7.313,46,12s3.813,8.5,8.5,8.5S63,16.687,63,12S59.187,3.5,54.5,3.5z"/>
	</g>
	<g>
		<path class="st0" d="M59.5,32.535H48c-0.276,0-0.5-0.224-0.5-0.5s0.224-0.5,0.5-0.5h11.5c0.276,0,0.5,0.224,0.5,0.5
			S59.776,32.535,59.5,32.535z"/>
	</g>
	<g>
		<path class="st0" d="M63.5,32.535h-2c-0.276,0-0.5-0.224-0.5-0.5s0.224-0.5,0.5-0.5h2c0.276,0,0.5,0.224,0.5,0.5
			S63.776,32.535,63.5,32.535z"/>
	</g>
	<g>
		<path class="st0" d="M16,32.535H4.5c-0.276,0-0.5-0.224-0.5-0.5s0.224-0.5,0.5-0.5H16c0.276,0,0.5,0.224,0.5,0.5
			S16.276,32.535,16,32.535z"/>
	</g>
	<g>
		<path class="st0" d="M2.5,32.535h-2c-0.276,0-0.5-0.224-0.5-0.5s0.224-0.5,0.5-0.5h2c0.276,0,0.5,0.224,0.5,0.5
			S2.776,32.535,2.5,32.535z"/>
	</g>
	<g>
		<path class="st5" d="M21.289,18.529c0.441-1.917,1.387-3.639,2.683-5.029H22l-0.783,5.022
			C21.241,18.525,21.265,18.526,21.289,18.529z"/>
		<path class="st0" d="M21.286,19.029c-0.019,0-0.039-0.001-0.058-0.004l0.057-0.493l-0.07,0.492
			c-0.138-0.013-0.286-0.084-0.371-0.192c-0.085-0.109-0.143-0.251-0.122-0.388l0.783-5.021C21.544,13.18,21.753,13,22,13h1.972
			c0.199,0,0.379,0.118,0.458,0.301c0.08,0.183,0.043,0.395-0.093,0.54c-1.266,1.357-2.151,3.017-2.562,4.801
			C21.723,18.87,21.517,19.029,21.286,19.029z M22.428,14l-0.133,0.854c0.186-0.293,0.386-0.577,0.598-0.854H22.428z"/>
	</g>
	<g>
		<path class="st0" d="M42,61.5c-0.276,0-0.5-0.224-0.5-0.5V47c0-0.276,0.224-0.5,0.5-0.5s0.5,0.224,0.5,0.5v14
			C42.5,61.276,42.276,61.5,42,61.5z"/>
	</g>
	<g>
		<path class="st0" d="M22,61.5c-0.276,0-0.5-0.224-0.5-0.5v-4.157c0-0.276,0.224-0.5,0.5-0.5s0.5,0.224,0.5,0.5V61
			C22.5,61.276,22.276,61.5,22,61.5z"/>
	</g>
	<g>
		<path class="st0" d="M32,32.5c-5.244,0-9.746-3.475-11.095-8.502C19.294,23.948,18,22.622,18,21s1.294-2.948,2.905-2.998
			C22.254,12.975,26.756,9.5,32,9.5c5.243,0,9.745,3.475,11.095,8.502C44.705,18.052,46,19.378,46,21s-1.295,2.948-2.905,2.998
			C41.745,29.025,37.243,32.5,32,32.5z M21.223,22.979c0.239,0,0.5,0.15,0.553,0.379C22.877,28.152,27.082,31.5,32,31.5
			c4.917,0,9.121-3.348,10.224-8.142c0.057-0.249,0.282-0.421,0.548-0.384C42.9,22.992,42.949,23,43,23c1.103,0,2-0.897,2-2
			s-0.897-2-2-2c-0.051,0-0.1,0.008-0.149,0.015c-0.253,0.047-0.568-0.121-0.627-0.373C41.121,13.848,36.917,10.5,32,10.5
			c-4.918,0-9.123,3.348-10.224,8.142c-0.058,0.25-0.299,0.422-0.548,0.384C21.1,19.008,21.051,19,21,19c-1.103,0-2,0.897-2,2
			s0.897,2,2,2c0.051,0,0.1-0.008,0.148-0.015C21.173,22.981,21.197,22.979,21.223,22.979z"/>
	</g>
	<g>
		<path class="st5" d="M22,20h-0.5v-6.5h3v4C24.5,18.881,23.38,20,22,20z"/>
		<path class="st0" d="M22,20.5h-0.5c-0.276,0-0.5-0.224-0.5-0.5v-6.5c0-0.276,0.224-0.5,0.5-0.5h3c0.276,0,0.5,0.224,0.5,0.5v4
			C25,19.154,23.654,20.5,22,20.5z M22,19.5h0.01H22z M22,14v5.5c1.103,0,2-0.897,2-2V14H22z"/>
	</g>
	<g>
		<path class="st5" d="M39.5,13.45v4.05c0,1.381,1.119,2.5,2.5,2.5h0.5v-7.935C41.711,12.839,40.662,13.332,39.5,13.45z"/>
		<path class="st0" d="M42.5,20.5H42c-1.654,0-3-1.346-3-3v-4.051c0-0.257,0.194-0.472,0.45-0.497
			c1.029-0.104,1.988-0.546,2.699-1.244c0.145-0.142,0.359-0.183,0.544-0.104C42.879,11.682,43,11.863,43,12.064V20
			C43,20.276,42.776,20.5,42.5,20.5z M40,13.883V17.5c0,1.103,0.897,2,2,2v-6.402C41.398,13.483,40.718,13.752,40,13.883z"/>
	</g>
	<g>
		<path class="st5" d="M39,13.5H21.5v0C21.5,9.358,24.858,6,29,6h5.205c2.171,0,4.315-0.471,6.286-1.381L44,3v5.5
			C44,11.261,41.761,13.5,39,13.5z"/>
		<path class="st0" d="M39,14H21.5c-0.276,0-0.5-0.224-0.5-0.5c0-4.411,3.589-8,8-8h5.205c2.085,0,4.186-0.462,6.076-1.335
			l3.509-1.619c0.155-0.07,0.336-0.06,0.479,0.033C44.413,2.671,44.5,2.829,44.5,3v5.5C44.5,11.532,42.032,14,39,14z M22.018,13H39
			c2.481,0,4.5-2.019,4.5-4.5V3.781l-2.799,1.292C38.68,6.007,36.434,6.5,34.205,6.5H29C25.309,6.5,22.275,9.373,22.018,13z"/>
	</g>
	<g>
		<path class="st0" d="M33.457,29.5h-3c-0.276,0-0.5-0.224-0.5-0.5v-3c0-0.276,0.224-0.5,0.5-0.5h3c0.276,0,0.5,0.224,0.5,0.5v3
			C33.957,29.276,33.733,29.5,33.457,29.5z M30.957,28.5h2v-2h-2V28.5z"/>
	</g>
	<g>
		<path class="st0" d="M35.457,26.5h-7c-0.276,0-0.5-0.224-0.5-0.5s0.224-0.5,0.5-0.5h7c0.276,0,0.5,0.224,0.5,0.5
			S35.733,26.5,35.457,26.5z"/>
	</g>
	<g>
		<path class="st0" d="M50,61.5c-0.276,0-0.5-0.224-0.5-0.5V43.945c0-2.804-1.665-5.33-4.243-6.434l-9.454-4.052
			C35.619,33.381,35.5,33.2,35.5,33v-1.052c-2.271,0.732-4.728,0.732-7,0V33c0,0.2-0.119,0.381-0.303,0.46l-9.455,4.052
			c-2.577,1.104-4.242,3.629-4.242,6.434v8.027c0,2.04,1.66,3.699,3.7,3.699c0.991,0,1.92-0.385,2.619-1.083l13.113-13.114
			c0.745-0.745,1.112-1.774,1.008-2.824c-0.105-1.051-0.681-1.995-1.58-2.592c-1.364-0.903-3.236-0.674-4.453,0.543L18.354,47.154
			c-0.195,0.195-0.512,0.195-0.707,0s-0.195-0.512,0-0.707l10.553-10.553c1.553-1.552,3.955-1.832,5.713-0.67
			c1.15,0.764,1.888,1.977,2.022,3.326s-0.338,2.673-1.296,3.631L21.525,55.296c-0.888,0.888-2.068,1.376-3.323,1.376
			c-2.594,0-4.702-2.108-4.702-4.699v-8.027c0-3.205,1.903-6.091,4.849-7.354L27.5,32.67v-1.431c0-0.165,0.082-0.32,0.218-0.413
			c0.137-0.094,0.311-0.111,0.464-0.053c2.458,0.965,5.177,0.965,7.635,0c0.153-0.059,0.327-0.04,0.464,0.053
			s0.219,0.248,0.219,0.413v1.431l9.151,3.922c2.945,1.263,4.849,4.148,4.849,7.354V61C50.5,61.276,50.276,61.5,50,61.5z"/>
	</g>
	<g>
		<path class="st6" d="M34,35.939V30c0-0.55-0.45-1-1-1h-2c-0.55,0-1,0.45-1,1v5.279C31.324,34.761,32.858,34.99,34,35.939z"/>
		<path class="st0" d="M34,36.438c-0.114,0-0.228-0.039-0.319-0.115c-0.982-0.817-2.324-1.039-3.499-0.578
			c-0.153,0.06-0.328,0.041-0.464-0.053c-0.137-0.094-0.218-0.248-0.218-0.413V30c0-0.827,0.673-1.5,1.5-1.5h2
			c0.827,0,1.5,0.673,1.5,1.5v5.938c0,0.194-0.112,0.37-0.287,0.452C34.145,36.423,34.072,36.438,34,36.438z M31.436,34.509
			c0.713,0,1.422,0.171,2.064,0.502V30c0-0.275-0.225-0.5-0.5-0.5h-2c-0.276,0-0.5,0.225-0.5,0.5v4.608
			C30.809,34.542,31.123,34.509,31.436,34.509z"/>
	</g>
	<g>
		<path class="st0" d="M56.5,17.5c-0.062,0-0.125-0.012-0.186-0.036c-0.257-0.103-0.381-0.394-0.278-0.649l1.726-4.314H55.5
			c-0.166,0-0.321-0.082-0.414-0.22s-0.111-0.312-0.05-0.466l2-5c0.103-0.256,0.395-0.381,0.649-0.278
			c0.257,0.103,0.381,0.394,0.278,0.649L56.238,11.5H58.5c0.166,0,0.321,0.082,0.414,0.22s0.111,0.312,0.05,0.466l-2,5
			C56.886,17.381,56.698,17.5,56.5,17.5z"/>
	</g>
	<g>
		<path class="st0" d="M51.5,17.5c-0.062,0-0.125-0.012-0.186-0.036c-0.257-0.103-0.381-0.394-0.278-0.649l1.726-4.314H50.5
			c-0.166,0-0.321-0.082-0.414-0.22s-0.111-0.312-0.05-0.466l2-5c0.103-0.256,0.395-0.381,0.649-0.278
			c0.257,0.103,0.381,0.394,0.278,0.649L51.238,11.5H53.5c0.166,0,0.321,0.082,0.414,0.22s0.111,0.312,0.05,0.466l-2,5
			C51.886,17.381,51.698,17.5,51.5,17.5z"/>
	</g>
</g>
</svg>
