<?xml version="1.0" encoding="utf-8"?>
<!-- Generator: Adobe Illustrator 22.0.0, SVG Export Plug-In . SVG Version: 6.00 Build 0)  -->
<svg version="1.1" id="Layer_1" xmlns="http://www.w3.org/2000/svg" xmlns:xlink="http://www.w3.org/1999/xlink" x="0px" y="0px"
	 viewBox="0 0 64 64" style="enable-background:new 0 0 64 64;" xml:space="preserve">
<style type="text/css">
	.st0{fill:#263238;}
	.st1{fill:#4FC3F7;}
	.st2{fill:#4DB6AC;}
	.st3{fill:#FF5252;}
	.st4{fill:#FFFFFF;}
	.st5{fill:#FFD740;}
	.st6{fill:#40C4FF;}
</style>
<g>
	<g>
		<path class="st0" d="M43,62.25H21c-3.032,0-5.5-2.467-5.5-5.5V33.47c0-2.151,1.266-4.117,3.224-5.007l6.305-2.866
			c0.831-0.377,1.301-1.269,1.143-2.168l-1.163-6.591c-0.026-0.146,0.014-0.295,0.109-0.408c0.095-0.113,0.235-0.179,0.383-0.179h13
			c0.147,0,0.288,0.065,0.383,0.179c0.096,0.113,0.136,0.263,0.109,0.408l-1.163,6.591c-0.158,0.899,0.312,1.791,1.143,2.168
			l6.305,2.866c1.958,0.891,3.224,2.856,3.224,5.007v23.28C48.5,59.783,46.032,62.25,43,62.25z M26.096,17.25l1.06,6.004
			c0.238,1.349-0.467,2.687-1.713,3.252l-6.305,2.866c-1.603,0.729-2.638,2.337-2.638,4.097v23.28c0,2.481,2.019,4.5,4.5,4.5h22
			c2.481,0,4.5-2.019,4.5-4.5V33.47c0-1.76-1.035-3.368-2.638-4.097l-6.305-2.866c-1.246-0.566-1.951-1.903-1.713-3.252l1.06-6.004
			H26.096z"/>
	</g>
	<g>
		<path class="st0" d="M37,15.25c-0.276,0-0.5-0.224-0.5-0.5v-3c0-0.267-0.351-0.5-0.75-0.5h-7.5c-0.399,0-0.75,0.233-0.75,0.5v3
			c0,0.276-0.224,0.5-0.5,0.5s-0.5-0.224-0.5-0.5v-3c0-0.827,0.785-1.5,1.75-1.5h7.5c0.965,0,1.75,0.673,1.75,1.5v3
			C37.5,15.026,37.276,15.25,37,15.25z"/>
	</g>
	<g>
		<path class="st0" d="M47,9.25h-4c-0.276,0-0.5-0.224-0.5-0.5s0.224-0.5,0.5-0.5h4c0.276,0,0.5,0.224,0.5,0.5S47.276,9.25,47,9.25z
			"/>
	</g>
	<g>
		<path class="st0" d="M42.5,4.75h-4c-0.276,0-0.5-0.224-0.5-0.5s0.224-0.5,0.5-0.5h4c0.276,0,0.5,0.224,0.5,0.5
			S42.776,4.75,42.5,4.75z"/>
	</g>
	<g>
		<path class="st0" d="M40.5,6.75c-0.276,0-0.5-0.224-0.5-0.5v-4c0-0.276,0.224-0.5,0.5-0.5S41,1.974,41,2.25v4
			C41,6.526,40.776,6.75,40.5,6.75z"/>
	</g>
	<g>
		<path class="st0" d="M45,11.25c-0.276,0-0.5-0.224-0.5-0.5v-4c0-0.276,0.224-0.5,0.5-0.5s0.5,0.224,0.5,0.5v4
			C45.5,11.026,45.276,11.25,45,11.25z"/>
	</g>
	<g>
		<path class="st0" d="M61,22.75h-2c-0.276,0-0.5-0.224-0.5-0.5s0.224-0.5,0.5-0.5h2c0.276,0,0.5,0.224,0.5,0.5
			S61.276,22.75,61,22.75z"/>
	</g>
	<g>
		<path class="st0" d="M57,22.75h-8c-0.276,0-0.5-0.224-0.5-0.5s0.224-0.5,0.5-0.5h8c0.276,0,0.5,0.224,0.5,0.5
			S57.276,22.75,57,22.75z"/>
	</g>
	<g>
		<path class="st0" d="M5,22.75H3c-0.276,0-0.5-0.224-0.5-0.5s0.224-0.5,0.5-0.5h2c0.276,0,0.5,0.224,0.5,0.5S5.276,22.75,5,22.75z"
			/>
	</g>
	<g>
		<path class="st0" d="M15,22.75H7c-0.276,0-0.5-0.224-0.5-0.5s0.224-0.5,0.5-0.5h8c0.276,0,0.5,0.224,0.5,0.5
			S15.276,22.75,15,22.75z"/>
	</g>
	<g>
		<rect x="16" y="35.75" class="st2" width="32" height="18"/>
		<path class="st0" d="M48,54.25H16c-0.276,0-0.5-0.224-0.5-0.5v-18c0-0.276,0.224-0.5,0.5-0.5h32c0.276,0,0.5,0.224,0.5,0.5v18
			C48.5,54.026,48.276,54.25,48,54.25z M16.5,53.25h31v-17h-31V53.25z"/>
	</g>
	<g>
		<path class="st4" d="M34.785,49.622L34.785,49.622c1.326-1.285,1.599-3.311,0.662-4.902L32,38.871l-3.446,5.848
			c-0.937,1.591-0.664,3.617,0.662,4.902l0,0C30.767,51.126,33.233,51.126,34.785,49.622z"/>
		<path class="st0" d="M32,51.258c-1.127,0-2.254-0.426-3.132-1.278c-1.497-1.451-1.804-3.719-0.745-5.515l3.446-5.848
			c0.18-0.305,0.682-0.305,0.861,0l3.446,5.848c1.059,1.796,0.752,4.064-0.745,5.515C34.254,50.833,33.127,51.258,32,51.258z
			 M32,39.856l-3.016,5.117c-0.823,1.397-0.585,3.161,0.579,4.29c1.367,1.325,3.507,1.325,4.872,0c0.001,0,0.001,0,0.001,0
			c1.164-1.129,1.402-2.893,0.579-4.29L32,39.856z"/>
	</g>
	<g>
		<path class="st0" d="M45,51.25c-0.276,0-0.5-0.224-0.5-0.5v-12c0-0.276,0.224-0.5,0.5-0.5s0.5,0.224,0.5,0.5v12
			C45.5,51.026,45.276,51.25,45,51.25z"/>
	</g>
</g>
</svg>
