<?xml version="1.0" encoding="utf-8"?>
<!-- Generator: Adobe Illustrator 22.0.0, SVG Export Plug-In . SVG Version: 6.00 Build 0)  -->
<svg version="1.1" id="Layer_1" xmlns="http://www.w3.org/2000/svg" xmlns:xlink="http://www.w3.org/1999/xlink" x="0px" y="0px"
	 viewBox="0 0 64 64" style="enable-background:new 0 0 64 64;" xml:space="preserve">
<style type="text/css">
	.st0{fill:#263238;}
	.st1{fill:#4FC3F7;}
	.st2{fill:#4DB6AC;}
	.st3{fill:#FF5252;}
	.st4{fill:#FFFFFF;}
	.st5{fill:#FFD740;}
	.st6{fill:#40C4FF;}
</style>
<g>
	<g>
		<path class="st0" d="M29.5,61.25h-1c-0.276,0-0.5-0.224-0.5-0.5s0.224-0.5,0.5-0.5h1c0.276,0,0.5,0.224,0.5,0.5
			S29.776,61.25,29.5,61.25z"/>
	</g>
	<g>
		<path class="st0" d="M31.25,57.25c-13.51,0-24.5-10.991-24.5-24.5s10.99-24.5,24.5-24.5s24.5,10.991,24.5,24.5
			S44.76,57.25,31.25,57.25z M31.25,9.25c-12.958,0-23.5,10.542-23.5,23.5s10.542,23.5,23.5,23.5s23.5-10.542,23.5-23.5
			S44.208,9.25,31.25,9.25z"/>
	</g>
	<g>
		<path class="st0" d="M3.25,33.25c-0.276,0-0.5-0.224-0.5-0.5c0-15.715,12.785-28.5,28.5-28.5c0.276,0,0.5,0.224,0.5,0.5
			s-0.224,0.5-0.5,0.5c-15.163,0-27.5,12.336-27.5,27.5C3.75,33.026,3.526,33.25,3.25,33.25z"/>
	</g>
	<g>
		<path class="st0" d="M34.25,5.25h-1c-0.276,0-0.5-0.224-0.5-0.5s0.224-0.5,0.5-0.5h1c0.276,0,0.5,0.224,0.5,0.5
			S34.526,5.25,34.25,5.25z"/>
	</g>
	<g>
		<path class="st0" d="M31.25,61.25c-0.276,0-0.5-0.224-0.5-0.5s0.224-0.5,0.5-0.5c15.163,0,27.5-12.336,27.5-27.5
			c0-0.276,0.224-0.5,0.5-0.5s0.5,0.224,0.5,0.5C59.75,48.465,46.965,61.25,31.25,61.25z"/>
	</g>
	<g>
		<path class="st0" d="M53.75,5.75h-4c-0.276,0-0.5-0.224-0.5-0.5s0.224-0.5,0.5-0.5h4c0.276,0,0.5,0.224,0.5,0.5
			S54.026,5.75,53.75,5.75z"/>
	</g>
	<g>
		<path class="st0" d="M51.75,7.75c-0.276,0-0.5-0.224-0.5-0.5v-4c0-0.276,0.224-0.5,0.5-0.5s0.5,0.224,0.5,0.5v4
			C52.25,7.526,52.026,7.75,51.75,7.75z"/>
	</g>
	<g>
		<path class="st0" d="M60.75,12.25h-4c-0.276,0-0.5-0.224-0.5-0.5s0.224-0.5,0.5-0.5h4c0.276,0,0.5,0.224,0.5,0.5
			S61.026,12.25,60.75,12.25z"/>
	</g>
	<g>
		<path class="st0" d="M58.75,14.25c-0.276,0-0.5-0.224-0.5-0.5v-4c0-0.276,0.224-0.5,0.5-0.5s0.5,0.224,0.5,0.5v4
			C59.25,14.026,59.026,14.25,58.75,14.25z"/>
	</g>
	<g>
		<path class="st0" d="M31.25,53.25c-11.304,0-20.5-9.196-20.5-20.5s9.196-20.5,20.5-20.5s20.5,9.196,20.5,20.5
			S42.554,53.25,31.25,53.25z M31.25,13.25c-10.752,0-19.5,8.748-19.5,19.5s8.748,19.5,19.5,19.5s19.5-8.748,19.5-19.5
			S42.002,13.25,31.25,13.25z"/>
	</g>
	<g>
		<path class="st6" d="M47.385,37.423l-5-12C42.151,24.864,41.606,24.5,41,24.5s-1.151,0.364-1.385,0.923l-2.138,5.131
			C37.246,27.178,34.433,24.5,31,24.5H18c-0.828,0-1.5,0.672-1.5,1.5v12c0,0.828,0.672,1.5,1.5,1.5s1.5-0.672,1.5-1.5v-4.5h4
			c0.828,0,1.5-0.672,1.5-1.5c0-0.828-0.672-1.5-1.5-1.5h-4v-3H31c1.93,0,3.5,1.57,3.5,3.5v2c0,1.93-1.57,3.5-3.5,3.5h-1.5V32
			c0-0.828-0.672-1.5-1.5-1.5s-1.5,0.672-1.5,1.5v6c0,0.828,0.672,1.5,1.5,1.5h3c1.318,0,2.544-0.397,3.569-1.073
			c0.124,0.417,0.421,0.778,0.854,0.958c0.188,0.078,0.384,0.115,0.576,0.115c0.588,0,1.146-0.347,1.386-0.923L41,29.901l2.75,6.6
			H41c-0.828,0-1.5,0.672-1.5,1.5s0.672,1.5,1.5,1.5h5c0.502,0,0.97-0.251,1.248-0.668S47.577,37.886,47.385,37.423z"/>
		<path class="st0" d="M46,40h-5c-1.103,0-2-0.897-2-2s0.897-2,2-2h2l-2-4.8l-3.153,7.569c-0.414,0.991-1.615,1.491-2.615,1.077
			c-0.357-0.149-0.657-0.396-0.872-0.709C33.331,39.703,32.181,40,31,40h-3c-1.103,0-2-0.897-2-2v-6c0-1.103,0.897-2,2-2
			s2,0.897,2,2v4h1c1.654,0,3-1.346,3-3v-2c0-1.654-1.346-3-3-3H20v2h3.5c1.103,0,2,0.897,2,2s-0.897,2-2,2H20v4
			c0,1.103-0.897,2-2,2s-2-0.897-2-2V26c0-1.103,0.897-2,2-2h13c3.077,0,5.732,2.023,6.65,4.838l1.503-3.608
			C39.466,24.483,40.19,24,41,24s1.534,0.483,1.846,1.23l5.001,12v0c0.257,0.62,0.189,1.322-0.183,1.878
			C47.292,39.667,46.67,40,46,40z M41,37c-0.552,0-1,0.449-1,1s0.448,1,1,1h5c0.335,0,0.646-0.167,0.832-0.445
			c0.186-0.278,0.22-0.629,0.091-0.939l-5-12C41.768,25.242,41.404,25,41,25s-0.768,0.242-0.924,0.616l-2.137,5.13
			c-0.09,0.213-0.311,0.34-0.543,0.301c-0.229-0.038-0.402-0.228-0.418-0.459C36.764,27.455,34.138,25,31,25H18
			c-0.552,0-1,0.449-1,1v12c0,0.551,0.448,1,1,1s1-0.449,1-1v-4.5c0-0.276,0.224-0.5,0.5-0.5h4c0.552,0,1-0.449,1-1s-0.448-1-1-1h-4
			c-0.276,0-0.5-0.224-0.5-0.5v-3c0-0.276,0.224-0.5,0.5-0.5H31c2.206,0,4,1.794,4,4v2c0,2.206-1.794,4-4,4h-1.5
			c-0.276,0-0.5-0.224-0.5-0.5V32c0-0.551-0.448-1-1-1s-1,0.449-1,1v6c0,0.551,0.448,1,1,1h3c1.173,0,2.312-0.343,3.294-0.991
			c0.133-0.087,0.299-0.106,0.446-0.052c0.148,0.054,0.263,0.175,0.309,0.327c0.087,0.292,0.293,0.525,0.566,0.639
			c0.498,0.207,1.102-0.043,1.308-0.539l3.615-8.677c0.156-0.372,0.768-0.372,0.924,0l2.75,6.6c0.063,0.154,0.047,0.331-0.046,0.47
			S43.917,37,43.75,37H41z"/>
	</g>
</g>
</svg>
