<?xml version="1.0" encoding="utf-8"?>
<!-- Generator: Adobe Illustrator 22.0.0, SVG Export Plug-In . SVG Version: 6.00 Build 0)  -->
<svg version="1.1" id="Layer_1" xmlns="http://www.w3.org/2000/svg" xmlns:xlink="http://www.w3.org/1999/xlink" x="0px" y="0px"
	 viewBox="0 0 64 64" style="enable-background:new 0 0 64 64;" xml:space="preserve">
<style type="text/css">
	.st0{fill:#263238;}
	.st1{fill:#4FC3F7;}
	.st2{fill:#4DB6AC;}
	.st3{fill:#FF5252;}
	.st4{fill:#FFFFFF;}
	.st5{fill:#FFD740;}
	.st6{fill:#40C4FF;}
</style>
<g>
	<g>
		<path class="st5" d="M37.033,48.5l0.353,0.069c0.869,0.171,1.523,0.894,1.605,1.776c0.083,0.883-0.426,1.714-1.248,2.043l-5,2
			c-0.355,0.142-0.746,0.179-1.121,0.107l-7.64-1.471L12.97,55.667c-0.234,0.056-0.471,0.084-0.706,0.084
			c-0.547,0-1.085-0.151-1.563-0.445c-0.684-0.419-1.162-1.08-1.348-1.86l-0.232-0.969c-0.188-0.779-0.06-1.585,0.359-2.268
			s1.078-1.162,1.857-1.349l1.503-0.361H0c0,8.284,6.716,15,15,15h34c8.284,0,15-6.716,15-15H37.033z"/>
	</g>
	<g>
		<path class="st0" d="M5,7H3C2.724,7,2.5,6.776,2.5,6.5S2.724,6,3,6h2c0.276,0,0.5,0.224,0.5,0.5S5.276,7,5,7z"/>
	</g>
	<g>
		<path class="st0" d="M32,50.05c-0.276,0-0.5-0.224-0.5-0.5V36c0-0.276,0.224-0.5,0.5-0.5s0.5,0.224,0.5,0.5v13.55
			C32.5,49.826,32.276,50.05,32,50.05z"/>
	</g>
	<g>
		<path class="st0" d="M32,58.5c-0.276,0-0.5-0.224-0.5-0.5v-5.468c0-0.276,0.224-0.5,0.5-0.5s0.5,0.224,0.5,0.5V58
			C32.5,58.276,32.276,58.5,32,58.5z"/>
	</g>
	<g>
		<path class="st2" d="M45.081,26.868C39.223,32.726,32,35,32,35s2.274-7.224,8.132-13.081s13.081-8.132,13.081-8.132
			S50.939,21.01,45.081,26.868z"/>
		<path class="st0" d="M32,35.5c-0.131,0-0.259-0.051-0.354-0.146c-0.132-0.132-0.18-0.326-0.123-0.503
			c0.094-0.3,2.377-7.408,8.255-13.285c5.876-5.877,12.984-8.161,13.284-8.255c0.18-0.058,0.373-0.008,0.504,0.124
			c0.132,0.132,0.18,0.326,0.123,0.503c-0.094,0.3-2.377,7.408-8.255,13.285l0,0l0,0c-5.876,5.877-12.984,8.161-13.284,8.255
			C32.101,35.493,32.05,35.5,32,35.5z M52.378,14.622c-2.156,0.84-7.453,3.21-11.893,7.65c-4.445,4.445-6.812,9.738-7.65,11.893
			c2.156-0.84,7.453-3.21,11.893-7.65l0,0C49.173,22.069,51.539,16.777,52.378,14.622z"/>
	</g>
	<g>
		<path class="st2" d="M18.918,26.868C24.776,32.726,32,35,32,35s-2.274-7.224-8.132-13.081s-13.081-8.132-13.081-8.132
			S13.06,21.01,18.918,26.868z"/>
		<path class="st0" d="M32,35.5c-0.05,0-0.101-0.007-0.15-0.023c-0.3-0.094-7.408-2.378-13.285-8.255l0,0
			c-5.877-5.877-8.161-12.985-8.255-13.285c-0.057-0.178-0.009-0.372,0.123-0.504c0.131-0.131,0.322-0.18,0.504-0.124
			c0.3,0.094,7.408,2.378,13.285,8.255s8.161,12.985,8.255,13.285c0.057,0.178,0.009,0.372-0.123,0.504
			C32.259,35.449,32.131,35.5,32,35.5z M19.271,26.515c4.439,4.439,9.736,6.809,11.893,7.65c-0.841-2.157-3.211-7.453-7.649-11.893
			c-4.439-4.439-9.736-6.809-11.893-7.65C12.463,16.779,14.833,22.075,19.271,26.515L19.271,26.515z"/>
	</g>
	<g>
		<path class="st2" d="M42,38.5c-5.523,0-10-2.5-10-2.5s4.477-2.5,10-2.5S52,36,52,36S47.523,38.5,42,38.5z"/>
		<path class="st0" d="M42,39c-5.589,0-10.057-2.459-10.244-2.563C31.598,36.348,31.5,36.181,31.5,36s0.098-0.348,0.256-0.437
			C31.943,35.459,36.411,33,42,33c5.588,0,10.057,2.459,10.244,2.563C52.402,35.652,52.5,35.819,52.5,36s-0.098,0.348-0.256,0.437
			C52.057,36.541,47.588,39,42,39z M33.139,36c1.554,0.701,4.958,2,8.861,2c3.911,0,7.311-1.298,8.862-2
			c-1.554-0.701-4.959-2-8.862-2S34.692,35.299,33.139,36z"/>
	</g>
	<g>
		<path class="st2" d="M22,38.5c-5.523,0-10-2.5-10-2.5s4.477-2.5,10-2.5S32,36,32,36S27.523,38.5,22,38.5z"/>
		<path class="st0" d="M22,39c-5.589,0-10.057-2.459-10.244-2.563C11.598,36.348,11.5,36.181,11.5,36s0.098-0.348,0.256-0.437
			C11.943,35.459,16.411,33,22,33c5.588,0,10.057,2.459,10.244,2.563C32.402,35.652,32.5,35.819,32.5,36s-0.098,0.348-0.256,0.437
			C32.057,36.541,27.588,39,22,39z M13.139,36c1.554,0.701,4.958,2,8.861,2c3.911,0,7.311-1.298,8.862-2
			c-1.554-0.701-4.959-2-8.862-2S14.692,35.299,13.139,36z"/>
	</g>
	<g>
		<path class="st0" d="M20,7H7C6.724,7,6.5,6.776,6.5,6.5S6.724,6,7,6h13c0.276,0,0.5,0.224,0.5,0.5S20.276,7,20,7z"/>
	</g>
	<g>
		<path class="st0" d="M61,44h-2c-0.276,0-0.5-0.224-0.5-0.5S58.724,43,59,43h2c0.276,0,0.5,0.224,0.5,0.5S61.276,44,61,44z"/>
	</g>
	<g>
		<path class="st0" d="M57,44H44c-0.276,0-0.5-0.224-0.5-0.5S43.724,43,44,43h13c0.276,0,0.5,0.224,0.5,0.5S57.276,44,57,44z"/>
	</g>
	<g>
		<path class="st0" d="M60.885,11.5h-4c-0.276,0-0.5-0.224-0.5-0.5s0.224-0.5,0.5-0.5h4c0.276,0,0.5,0.224,0.5,0.5
			S61.161,11.5,60.885,11.5z"/>
	</g>
	<g>
		<path class="st0" d="M55.885,7h-4c-0.276,0-0.5-0.224-0.5-0.5s0.224-0.5,0.5-0.5h4c0.276,0,0.5,0.224,0.5,0.5S56.161,7,55.885,7z"
			/>
	</g>
	<g>
		<path class="st0" d="M53.885,9c-0.276,0-0.5-0.224-0.5-0.5v-4c0-0.276,0.224-0.5,0.5-0.5s0.5,0.224,0.5,0.5v4
			C54.385,8.776,54.161,9,53.885,9z"/>
	</g>
	<g>
		<path class="st0" d="M58.885,13.5c-0.276,0-0.5-0.224-0.5-0.5V9c0-0.276,0.224-0.5,0.5-0.5s0.5,0.224,0.5,0.5v4
			C59.385,13.276,59.161,13.5,58.885,13.5z"/>
	</g>
	<g>
		<path class="st2" d="M36,17.5c0,9.389-4,17-4,17s-4-7.611-4-17s4-17,4-17S36,8.111,36,17.5z"/>
		<path class="st0" d="M32,35c-0.186,0-0.356-0.103-0.442-0.268C31.517,34.655,27.5,26.903,27.5,17.5s4.017-17.155,4.058-17.232
			c0.172-0.329,0.713-0.329,0.885,0C32.483,0.345,36.5,8.097,36.5,17.5s-4.017,17.155-4.058,17.232C32.356,34.897,32.186,35,32,35z
			 M32,1.665c-1.029,2.295-3.5,8.558-3.5,15.835c0,7.286,2.47,13.542,3.5,15.835c1.029-2.295,3.5-8.558,3.5-15.835
			C35.5,10.214,33.03,3.958,32,1.665z"/>
	</g>
	<g>
		<path class="st0" d="M12.271,54.25c-0.678,0-1.294-0.463-1.459-1.15l-0.232-0.973c-0.192-0.803,0.304-1.615,1.107-1.808
			l7.593-1.822l-7.592-1.822c-0.805-0.193-1.301-1.005-1.108-1.809l0.232-0.972c0.193-0.805,1-1.3,1.809-1.109l11.327,2.719
			l7.958-1.533c0.096-0.018,0.191-0.008,0.28,0.027l5,2c0.206,0.083,0.333,0.291,0.312,0.511c-0.021,0.221-0.185,0.401-0.401,0.444
			l-7.859,1.543l7.859,1.543c0.217,0.043,0.381,0.224,0.401,0.444c0.021,0.22-0.106,0.428-0.312,0.511l-5,2
			c-0.089,0.035-0.186,0.044-0.28,0.027l-7.958-1.533L12.62,54.209C12.503,54.237,12.386,54.25,12.271,54.25z M12.27,43.745
			c-0.091,0-0.181,0.025-0.261,0.074c-0.113,0.07-0.193,0.18-0.225,0.31L11.552,45.1c-0.064,0.269,0.101,0.539,0.369,0.603
			l9.617,2.308c0.226,0.054,0.384,0.255,0.384,0.486s-0.158,0.432-0.384,0.486l-9.618,2.308c-0.268,0.064-0.433,0.334-0.368,0.603
			l0.232,0.973c0.031,0.129,0.111,0.239,0.225,0.309c0.114,0.07,0.247,0.089,0.379,0.06l11.432-2.744
			c0.069-0.016,0.142-0.017,0.211-0.005l7.92,1.525l3.292-1.317l-8.696-1.708c-0.234-0.046-0.403-0.252-0.403-0.491
			s0.169-0.444,0.403-0.491l8.696-1.708l-3.292-1.317l-7.92,1.525c-0.07,0.013-0.143,0.012-0.211-0.005l-11.432-2.744
			C12.349,43.75,12.309,43.745,12.27,43.745z"/>
	</g>
	<g>
		<path class="st0" d="M23.809,50.998c-1.379,0-2.5-1.122-2.5-2.5s1.121-2.5,2.5-2.5s2.5,1.122,2.5,2.5S25.188,50.998,23.809,50.998
			z M23.809,46.998c-0.827,0-1.5,0.673-1.5,1.5s0.673,1.5,1.5,1.5s1.5-0.673,1.5-1.5S24.636,46.998,23.809,46.998z"/>
	</g>
</g>
</svg>
