<?xml version="1.0" encoding="utf-8"?>
<!-- Generator: Adobe Illustrator 22.0.0, SVG Export Plug-In . SVG Version: 6.00 Build 0)  -->
<svg version="1.1" id="Layer_1" xmlns="http://www.w3.org/2000/svg" xmlns:xlink="http://www.w3.org/1999/xlink" x="0px" y="0px"
	 viewBox="0 0 64 64" style="enable-background:new 0 0 64 64;" xml:space="preserve">
<style type="text/css">
	.st0{fill:#263238;}
	.st1{fill:#4FC3F7;}
	.st2{fill:#4DB6AC;}
	.st3{fill:#FF5252;}
	.st4{fill:#FFFFFF;}
	.st5{fill:#FFD740;}
	.st6{fill:#40C4FF;}
</style>
<g>
	<g>
		<path class="st1" d="M20,44l1.275,12.749C21.403,58.027,22.478,59,23.763,59h16.475c1.284,0,2.36-0.973,2.488-2.251L44,44H20z"/>
	</g>
	<g>
		<path class="st0" d="M32,33.5c-0.276,0-0.5-0.224-0.5-0.5v-7.5c0-0.276,0.224-0.5,0.5-0.5s0.5,0.224,0.5,0.5V33
			C32.5,33.276,32.276,33.5,32,33.5z"/>
	</g>
	<g>
		<path class="st0" d="M35.183,29.5c-0.136,0-0.271-0.055-0.37-0.164L32,26.243l-2.813,3.093c-0.185,0.205-0.502,0.22-0.707,0.034
			c-0.204-0.186-0.219-0.502-0.034-0.707l3.183-3.5c0.19-0.208,0.55-0.208,0.74,0l3.183,3.5c0.186,0.204,0.17,0.521-0.034,0.707
			C35.424,29.457,35.303,29.5,35.183,29.5z"/>
	</g>
	<g>
		<path class="st2" d="M34.5,15.5c0,5.523-2.5,10-2.5,10s-2.5-4.477-2.5-10s2.5-10,2.5-10S34.5,9.977,34.5,15.5z"/>
		<path class="st0" d="M32,26c-0.181,0-0.348-0.098-0.437-0.256C31.459,25.556,29,21.089,29,15.5s2.459-10.056,2.563-10.244
			c0.177-0.316,0.696-0.316,0.873,0C32.541,5.444,35,9.911,35,15.5s-2.459,10.056-2.563,10.244C32.348,25.902,32.181,26,32,26z
			 M32,6.639c-0.701,1.554-2,4.958-2,8.861s1.299,7.308,2,8.861c0.701-1.554,2-4.958,2-8.861S32.701,8.192,32,6.639z"/>
	</g>
	<g>
		<path class="st2" d="M39.778,20.55C36.264,24.065,32,25.5,32,25.5s1.435-4.263,4.95-7.778c3.515-3.515,7.778-4.95,7.778-4.95
			S43.293,17.036,39.778,20.55z"/>
		<path class="st0" d="M32,26c-0.13,0-0.258-0.051-0.354-0.146c-0.134-0.134-0.181-0.333-0.121-0.513
			c0.061-0.178,1.514-4.416,5.07-7.972s7.794-5.01,7.972-5.07c0.18-0.06,0.379-0.014,0.513,0.121
			c0.134,0.134,0.181,0.333,0.121,0.513c-0.061,0.178-1.514,4.416-5.07,7.972s-7.794,5.01-7.972,5.07C32.107,25.992,32.053,26,32,26
			z M43.824,13.676c-1.462,0.648-4.177,2.055-6.521,4.399s-3.75,5.059-4.399,6.521c1.462-0.648,4.177-2.055,6.521-4.399
			S43.175,15.138,43.824,13.676z"/>
	</g>
	<g>
		<path class="st2" d="M24.222,20.55C27.737,24.065,32,25.5,32,25.5s-1.435-4.263-4.95-7.778s-7.778-4.95-7.778-4.95
			S20.707,17.036,24.222,20.55z"/>
		<path class="st0" d="M32,26c-0.053,0-0.107-0.008-0.16-0.026c-0.178-0.06-4.415-1.513-7.972-5.07l0,0l0,0
			c-3.557-3.557-5.01-7.794-5.071-7.972c-0.061-0.18-0.014-0.379,0.121-0.513c0.135-0.135,0.333-0.181,0.513-0.121
			c0.178,0.061,4.416,1.514,7.972,5.07s5.01,7.794,5.07,7.972c0.061,0.18,0.014,0.379-0.121,0.513C32.258,25.949,32.13,26,32,26z
			 M20.176,13.676c0.648,1.462,2.055,4.177,4.399,6.521l0,0c2.344,2.344,5.058,3.75,6.52,4.399
			c-0.648-1.462-2.055-4.177-4.399-6.521S21.638,14.325,20.176,13.676z"/>
	</g>
	<g>
		<path class="st2" d="M26,27c3.314,0,6-1.5,6-1.5S29.314,24,26,24s-6,1.5-6,1.5S22.686,27,26,27z"/>
		<path class="st0" d="M26,27.5c-3.404,0-6.129-1.5-6.244-1.563C19.598,25.848,19.5,25.681,19.5,25.5s0.098-0.348,0.256-0.437
			C19.871,25,22.596,23.5,26,23.5c3.405,0,6.129,1.5,6.244,1.563c0.158,0.088,0.256,0.255,0.256,0.437s-0.098,0.348-0.256,0.437
			C32.129,26,29.405,27.5,26,27.5z M21.19,25.5c1.034,0.423,2.812,1,4.81,1c2.004,0,3.78-0.577,4.812-1
			c-1.034-0.423-2.813-1-4.812-1C24.002,24.5,22.224,25.077,21.19,25.5z"/>
	</g>
	<g>
		<path class="st2" d="M38,27c3.314,0,6-1.5,6-1.5S41.314,24,38,24s-6,1.5-6,1.5S34.686,27,38,27z"/>
		<path class="st0" d="M38,27.5c-3.404,0-6.129-1.5-6.244-1.563C31.598,25.848,31.5,25.681,31.5,25.5s0.098-0.348,0.256-0.437
			C31.871,25,34.596,23.5,38,23.5c3.405,0,6.129,1.5,6.244,1.563c0.158,0.088,0.256,0.255,0.256,0.437s-0.098,0.348-0.256,0.437
			C44.129,26,41.405,27.5,38,27.5z M33.19,25.5c1.034,0.423,2.812,1,4.81,1c2.004,0,3.78-0.577,4.812-1
			c-1.034-0.423-2.813-1-4.812-1C36.002,24.5,34.224,25.077,33.19,25.5z"/>
	</g>
	<g>
		<path class="st0" d="M40.238,59.5H23.763c-1.548,0-2.831-1.162-2.985-2.702L19.002,39.05c-0.027-0.275,0.173-0.52,0.448-0.547
			c0.284-0.019,0.52,0.173,0.547,0.448l1.775,17.749c0.103,1.027,0.958,1.801,1.99,1.801h16.475c1.032,0,1.887-0.774,1.99-1.801
			l1.775-17.749c0.028-0.275,0.268-0.467,0.547-0.448c0.275,0.027,0.475,0.272,0.448,0.547l-1.775,17.749
			C43.068,58.338,41.785,59.5,40.238,59.5z"/>
	</g>
	<g>
		<path class="st0" d="M37,50.5H27c-0.25,0-0.462-0.186-0.496-0.434l-2-15c-0.019-0.143,0.024-0.287,0.12-0.396
			c0.095-0.108,0.232-0.17,0.376-0.17h14c0.144,0,0.281,0.062,0.376,0.17c0.095,0.109,0.139,0.253,0.12,0.396l-2,15
			C37.462,50.314,37.25,50.5,37,50.5z M27.438,49.5h9.124l1.867-14H25.571L27.438,49.5z"/>
	</g>
	<g>
		<path class="st0" d="M23.516,39.5H19.5c-0.827,0-1.5-0.673-1.5-1.5v-2c0-0.827,0.673-1.5,1.5-1.5h3.482c0.276,0,0.5,0.224,0.5,0.5
			s-0.224,0.5-0.5,0.5H19.5c-0.276,0-0.5,0.224-0.5,0.5v2c0,0.276,0.224,0.5,0.5,0.5h4.016c0.276,0,0.5,0.224,0.5,0.5
			S23.792,39.5,23.516,39.5z"/>
	</g>
	<g>
		<path class="st0" d="M44.5,39.5h-4.016c-0.276,0-0.5-0.224-0.5-0.5s0.224-0.5,0.5-0.5H44.5c0.276,0,0.5-0.224,0.5-0.5v-2
			c0-0.276-0.224-0.5-0.5-0.5h-3.482c-0.276,0-0.5-0.224-0.5-0.5s0.224-0.5,0.5-0.5H44.5c0.827,0,1.5,0.673,1.5,1.5v2
			C46,38.827,45.327,39.5,44.5,39.5z"/>
	</g>
	<g>
		<path class="st0" d="M29.062,41.5c-0.276,0-0.5-0.224-0.5-0.5v-3c0-0.276,0.224-0.5,0.5-0.5c0.276,0,0.5,0.224,0.5,0.5v3
			C29.562,41.276,29.339,41.5,29.062,41.5z"/>
	</g>
	<g>
		<path class="st0" d="M32.062,41.5c-0.276,0-0.5-0.224-0.5-0.5v-3c0-0.276,0.224-0.5,0.5-0.5c0.276,0,0.5,0.224,0.5,0.5v3
			C32.562,41.276,32.339,41.5,32.062,41.5z"/>
	</g>
	<g>
		<path class="st0" d="M30.562,47.5c-0.276,0-0.5-0.224-0.5-0.5v-3c0-0.276,0.224-0.5,0.5-0.5c0.276,0,0.5,0.224,0.5,0.5v3
			C31.062,47.276,30.839,47.5,30.562,47.5z"/>
	</g>
	<g>
		<path class="st0" d="M33.562,47.5c-0.276,0-0.5-0.224-0.5-0.5v-3c0-0.276,0.224-0.5,0.5-0.5c0.276,0,0.5,0.224,0.5,0.5v3
			C34.062,47.276,33.839,47.5,33.562,47.5z"/>
	</g>
	<g>
		<path class="st0" d="M35.062,41.5c-0.276,0-0.5-0.224-0.5-0.5v-3c0-0.276,0.224-0.5,0.5-0.5c0.276,0,0.5,0.224,0.5,0.5v3
			C35.562,41.276,35.339,41.5,35.062,41.5z"/>
	</g>
	<g>
		<path class="st0" d="M53,12h-4c-0.276,0-0.5-0.224-0.5-0.5S48.724,11,49,11h4c0.276,0,0.5,0.224,0.5,0.5S53.276,12,53,12z"/>
	</g>
	<g>
		<path class="st0" d="M48.5,7.5h-4C44.224,7.5,44,7.276,44,7s0.224-0.5,0.5-0.5h4C48.776,6.5,49,6.724,49,7S48.776,7.5,48.5,7.5z"
			/>
	</g>
	<g>
		<path class="st0" d="M46.5,9.5C46.224,9.5,46,9.276,46,9V5c0-0.276,0.224-0.5,0.5-0.5S47,4.724,47,5v4
			C47,9.276,46.776,9.5,46.5,9.5z"/>
	</g>
	<g>
		<path class="st0" d="M51,14c-0.276,0-0.5-0.224-0.5-0.5v-4C50.5,9.224,50.724,9,51,9s0.5,0.224,0.5,0.5v4
			C51.5,13.776,51.276,14,51,14z"/>
	</g>
	<g>
		<path class="st0" d="M4,44.5H2c-0.276,0-0.5-0.224-0.5-0.5s0.224-0.5,0.5-0.5h2c0.276,0,0.5,0.224,0.5,0.5S4.276,44.5,4,44.5z"/>
	</g>
	<g>
		<path class="st0" d="M14,44.5H6c-0.276,0-0.5-0.224-0.5-0.5s0.224-0.5,0.5-0.5h8c0.276,0,0.5,0.224,0.5,0.5S14.276,44.5,14,44.5z"
			/>
	</g>
	<g>
		<path class="st0" d="M62,44.5h-2c-0.276,0-0.5-0.224-0.5-0.5s0.224-0.5,0.5-0.5h2c0.276,0,0.5,0.224,0.5,0.5S62.276,44.5,62,44.5z
			"/>
	</g>
	<g>
		<path class="st0" d="M58,44.5h-8c-0.276,0-0.5-0.224-0.5-0.5s0.224-0.5,0.5-0.5h8c0.276,0,0.5,0.224,0.5,0.5S58.276,44.5,58,44.5z
			"/>
	</g>
</g>
</svg>
