<?xml version="1.0" encoding="utf-8"?>
<!-- Generator: Adobe Illustrator 22.0.0, SVG Export Plug-In . SVG Version: 6.00 Build 0)  -->
<svg version="1.1" id="Layer_1" xmlns="http://www.w3.org/2000/svg" xmlns:xlink="http://www.w3.org/1999/xlink" x="0px" y="0px"
	 viewBox="0 0 64 64" style="enable-background:new 0 0 64 64;" xml:space="preserve">
<style type="text/css">
	.st0{fill:#263238;}
	.st1{fill:#4FC3F7;}
	.st2{fill:#4DB6AC;}
	.st3{fill:#FF5252;}
	.st4{fill:#FFFFFF;}
	.st5{fill:#FFD740;}
	.st6{fill:#40C4FF;}
</style>
<g>
	<g>
		<path class="st0" d="M32,55c-0.276,0-0.5-0.224-0.5-0.5v-13c0-0.276,0.224-0.5,0.5-0.5s0.5,0.224,0.5,0.5v13
			C32.5,54.776,32.276,55,32,55z"/>
	</g>
	<g>
		<path class="st2" d="M45.435,33.722C39.577,39.58,32,41.5,32,41.5s1.92-7.577,7.778-13.435s13.435-7.778,13.435-7.778
			S51.293,27.864,45.435,33.722z"/>
		<path class="st0" d="M32,42c-0.131,0-0.259-0.051-0.354-0.146c-0.125-0.125-0.174-0.306-0.131-0.477
			c0.08-0.314,2.022-7.778,7.91-13.666s13.351-7.83,13.666-7.91c0.172-0.042,0.352,0.006,0.477,0.131
			c0.125,0.125,0.174,0.306,0.131,0.477c-0.08,0.314-2.022,7.778-7.91,13.666s-13.351,7.83-13.666,7.91
			C32.082,41.995,32.041,42,32,42z M52.469,21.032c-2.135,0.693-7.796,2.846-12.337,7.387c-4.547,4.547-6.696,10.203-7.387,12.336
			c2.135-0.693,7.796-2.846,12.337-7.387C49.628,28.821,51.777,23.166,52.469,21.032z"/>
	</g>
	<g>
		<path class="st2" d="M18.565,33.722C24.423,39.58,32,41.5,32,41.5s-1.92-7.577-7.778-13.435s-13.435-7.778-13.435-7.778
			S12.707,27.864,18.565,33.722z"/>
		<path class="st0" d="M32,42c-0.041,0-0.082-0.005-0.123-0.015c-0.314-0.08-7.778-2.022-13.666-7.91s-7.83-13.351-7.91-13.666
			c-0.043-0.171,0.007-0.352,0.131-0.477c0.125-0.125,0.305-0.174,0.477-0.131c0.314,0.08,7.778,2.022,13.666,7.91
			s7.83,13.351,7.91,13.666c0.043,0.171-0.007,0.352-0.131,0.477C32.259,41.949,32.131,42,32,42z M11.532,21.031
			c0.693,2.135,2.846,7.796,7.387,12.337c4.547,4.547,10.203,6.696,12.336,7.387c-0.693-2.135-2.846-7.796-7.387-12.337
			C19.321,23.872,13.666,21.723,11.532,21.031z"/>
	</g>
	<g>
		<path class="st2" d="M44,44.5c-5.523,0-10-3-10-3s4.477-3,10-3s10,3,10,3S49.523,44.5,44,44.5z"/>
		<path class="st0" d="M44,45c-5.61,0-10.09-2.958-10.278-3.084C33.583,41.823,33.5,41.667,33.5,41.5s0.083-0.323,0.222-0.416
			C33.91,40.958,38.39,38,44,38s10.09,2.958,10.278,3.084c0.139,0.093,0.222,0.249,0.222,0.416s-0.083,0.323-0.222,0.416
			C54.09,42.042,49.61,45,44,45z M34.976,41.5C36.42,42.305,39.941,44,44,44s7.58-1.695,9.024-2.5C51.58,40.695,48.059,39,44,39
			S36.42,40.695,34.976,41.5z"/>
	</g>
	<g>
		<path class="st2" d="M36.596,49.632C33.082,46.117,32,41.5,32,41.5s4.617,1.081,8.132,4.596c3.515,3.515,4.596,8.132,4.596,8.132
			S40.111,53.146,36.596,49.632z"/>
		<path class="st0" d="M44.728,54.728c-0.038,0-0.076-0.004-0.114-0.013c-0.194-0.045-4.797-1.155-8.371-4.729
			s-4.684-8.177-4.729-8.371c-0.04-0.168,0.011-0.346,0.133-0.468c0.123-0.123,0.299-0.172,0.468-0.133
			c0.194,0.045,4.797,1.155,8.371,4.729s4.684,8.177,4.729,8.371c0.04,0.168-0.011,0.346-0.133,0.468
			C44.987,54.676,44.859,54.728,44.728,54.728z M32.74,42.239c0.485,1.469,1.728,4.557,4.21,7.04
			c2.487,2.487,5.571,3.727,7.039,4.211c-0.485-1.469-1.728-4.557-4.21-7.04C37.291,43.962,34.208,42.723,32.74,42.239z"/>
	</g>
	<g>
		<path class="st2" d="M27.404,49.632C30.919,46.117,32,41.5,32,41.5s-4.617,1.081-8.132,4.596
			c-3.515,3.515-4.596,8.132-4.596,8.132S23.889,53.146,27.404,49.632z"/>
		<path class="st0" d="M19.272,54.728c-0.131,0-0.259-0.052-0.354-0.146c-0.123-0.122-0.173-0.299-0.133-0.468
			c0.045-0.194,1.155-4.797,4.729-8.371s8.177-4.684,8.371-4.729c0.17-0.04,0.345,0.011,0.468,0.133
			c0.123,0.122,0.173,0.299,0.133,0.468c-0.045,0.194-1.155,4.797-4.729,8.371s-8.177,4.684-8.371,4.729
			C19.348,54.724,19.31,54.728,19.272,54.728z M31.261,42.24c-1.469,0.485-4.557,1.728-7.04,4.21
			c-2.487,2.487-3.727,5.571-4.211,7.039c1.469-0.485,4.557-1.728,7.04-4.21C29.538,46.791,30.777,43.708,31.261,42.24z"/>
	</g>
	<g>
		<path class="st2" d="M20,44.5c-5.523,0-10-3-10-3s4.477-3,10-3s10,3,10,3S25.523,44.5,20,44.5z"/>
		<path class="st0" d="M20,45c-5.61,0-10.09-2.958-10.278-3.084C9.583,41.823,9.5,41.667,9.5,41.5s0.083-0.323,0.222-0.416
			C9.91,40.958,14.39,38,20,38s10.09,2.958,10.278,3.084c0.139,0.093,0.222,0.249,0.222,0.416s-0.083,0.323-0.222,0.416
			C30.09,42.042,25.61,45,20,45z M10.976,41.5C12.42,42.305,15.941,44,20,44s7.58-1.695,9.024-2.5C27.58,40.695,24.059,39,20,39
			S12.42,40.695,10.976,41.5z"/>
	</g>
	<g>
		<path class="st0" d="M5,35.75H3c-0.276,0-0.5-0.224-0.5-0.5s0.224-0.5,0.5-0.5h2c0.276,0,0.5,0.224,0.5,0.5S5.276,35.75,5,35.75z"
			/>
	</g>
	<g>
		<path class="st0" d="M15,35.75H7c-0.276,0-0.5-0.224-0.5-0.5s0.224-0.5,0.5-0.5h8c0.276,0,0.5,0.224,0.5,0.5
			S15.276,35.75,15,35.75z"/>
	</g>
	<g>
		<path class="st0" d="M61,35.75h-2c-0.276,0-0.5-0.224-0.5-0.5s0.224-0.5,0.5-0.5h2c0.276,0,0.5,0.224,0.5,0.5
			S61.276,35.75,61,35.75z"/>
	</g>
	<g>
		<path class="st0" d="M57,35.75h-8c-0.276,0-0.5-0.224-0.5-0.5s0.224-0.5,0.5-0.5h8c0.276,0,0.5,0.224,0.5,0.5
			S57.276,35.75,57,35.75z"/>
	</g>
	<g>
		<path class="st0" d="M60.885,19h-4c-0.276,0-0.5-0.224-0.5-0.5s0.224-0.5,0.5-0.5h4c0.276,0,0.5,0.224,0.5,0.5
			S61.161,19,60.885,19z"/>
	</g>
	<g>
		<path class="st0" d="M55.885,14.5h-4c-0.276,0-0.5-0.224-0.5-0.5s0.224-0.5,0.5-0.5h4c0.276,0,0.5,0.224,0.5,0.5
			S56.161,14.5,55.885,14.5z"/>
	</g>
	<g>
		<path class="st0" d="M53.885,16.5c-0.276,0-0.5-0.224-0.5-0.5v-4c0-0.276,0.224-0.5,0.5-0.5s0.5,0.224,0.5,0.5v4
			C54.385,16.276,54.161,16.5,53.885,16.5z"/>
	</g>
	<g>
		<path class="st0" d="M58.885,21c-0.276,0-0.5-0.224-0.5-0.5v-4c0-0.276,0.224-0.5,0.5-0.5s0.5,0.224,0.5,0.5v4
			C59.385,20.776,59.161,21,58.885,21z"/>
	</g>
	<g>
		<path class="st2" d="M36.5,25.5c0,8.837-4.5,16-4.5,16s-4.5-7.163-4.5-16s4.5-16,4.5-16S36.5,16.663,36.5,25.5z"/>
		<path class="st0" d="M32,42c-0.172,0-0.332-0.088-0.423-0.234C31.39,41.468,27,34.378,27,25.5s4.39-15.968,4.577-16.266
			c0.183-0.291,0.664-0.291,0.847,0C32.61,9.532,37,16.622,37,25.5s-4.39,15.968-4.577,16.266C32.332,41.912,32.172,42,32,42z
			 M32,10.506c-1.107,2.034-4,8.019-4,14.994c0,6.984,2.893,12.962,4,14.994c1.107-2.034,4-8.019,4-14.994
			C36,18.516,33.107,12.538,32,10.506z"/>
	</g>
</g>
</svg>
