<?xml version="1.0" encoding="utf-8"?>
<!-- Generator: Adobe Illustrator 22.0.0, SVG Export Plug-In . SVG Version: 6.00 Build 0)  -->
<svg version="1.1" id="Layer_1" xmlns="http://www.w3.org/2000/svg" xmlns:xlink="http://www.w3.org/1999/xlink" x="0px" y="0px"
	 viewBox="0 0 64 64" style="enable-background:new 0 0 64 64;" xml:space="preserve">
<style type="text/css">
	.st0{fill:#263238;}
	.st1{fill:#4FC3F7;}
	.st2{fill:#4DB6AC;}
	.st3{fill:#FF5252;}
	.st4{fill:#FFFFFF;}
	.st5{fill:#FFD740;}
	.st6{fill:#40C4FF;}
</style>
<g>
	<g>
		<path class="st0" d="M3,42.5H1c-0.276,0-0.5-0.224-0.5-0.5s0.224-0.5,0.5-0.5h2c0.276,0,0.5,0.224,0.5,0.5S3.276,42.5,3,42.5z"/>
	</g>
	<g>
		<path class="st0" d="M13,42.5H5c-0.276,0-0.5-0.224-0.5-0.5s0.224-0.5,0.5-0.5h8c0.276,0,0.5,0.224,0.5,0.5S13.276,42.5,13,42.5z"
			/>
	</g>
	<g>
		<path class="st0" d="M63,42.5h-2c-0.276,0-0.5-0.224-0.5-0.5s0.224-0.5,0.5-0.5h2c0.276,0,0.5,0.224,0.5,0.5S63.276,42.5,63,42.5z
			"/>
	</g>
	<g>
		<path class="st0" d="M59,42.5h-8c-0.276,0-0.5-0.224-0.5-0.5s0.224-0.5,0.5-0.5h8c0.276,0,0.5,0.224,0.5,0.5S59.276,42.5,59,42.5z
			"/>
	</g>
	<g>
		<path class="st0" d="M57,14h-4c-0.276,0-0.5-0.224-0.5-0.5S52.724,13,53,13h4c0.276,0,0.5,0.224,0.5,0.5S57.276,14,57,14z"/>
	</g>
	<g>
		<path class="st0" d="M52,9.5h-4c-0.276,0-0.5-0.224-0.5-0.5s0.224-0.5,0.5-0.5h4c0.276,0,0.5,0.224,0.5,0.5S52.276,9.5,52,9.5z"/>
	</g>
	<g>
		<path class="st0" d="M50,11.5c-0.276,0-0.5-0.224-0.5-0.5V7c0-0.276,0.224-0.5,0.5-0.5s0.5,0.224,0.5,0.5v4
			C50.5,11.276,50.276,11.5,50,11.5z"/>
	</g>
	<g>
		<path class="st0" d="M55,16c-0.276,0-0.5-0.224-0.5-0.5v-4c0-0.276,0.224-0.5,0.5-0.5s0.5,0.224,0.5,0.5v4
			C55.5,15.776,55.276,16,55,16z"/>
	</g>
	<g>
		<path class="st0" d="M35.184,41.5c-0.136,0-0.271-0.055-0.37-0.164L32,38.243l-2.813,3.093c-0.186,0.205-0.5,0.219-0.707,0.034
			c-0.204-0.186-0.219-0.502-0.033-0.707l3.184-3.5c0.189-0.208,0.551-0.208,0.74,0l3.184,3.5c0.186,0.204,0.171,0.521-0.033,0.707
			C35.424,41.457,35.304,41.5,35.184,41.5z"/>
	</g>
	<g>
		<path class="st0" d="M32,43.5c-0.276,0-0.5-0.224-0.5-0.5v-5.5c0-0.276,0.224-0.5,0.5-0.5s0.5,0.224,0.5,0.5V43
			C32.5,43.276,32.276,43.5,32,43.5z"/>
	</g>
	<g>
		<path class="st2" d="M34.5,27.5c0,5.523-2.5,10-2.5,10s-2.5-4.477-2.5-10s2.5-10,2.5-10S34.5,21.977,34.5,27.5z"/>
		<path class="st0" d="M32,38c-0.182,0-0.349-0.098-0.437-0.256C31.459,37.556,29,33.089,29,27.5s2.459-10.056,2.563-10.244
			c0.176-0.316,0.697-0.316,0.873,0C32.541,17.444,35,21.911,35,27.5s-2.459,10.056-2.563,10.244C32.349,37.902,32.182,38,32,38z
			 M32,18.639c-0.701,1.554-2,4.958-2,8.861s1.299,7.308,2,8.861c0.701-1.554,2-4.958,2-8.861S32.701,20.192,32,18.639z"/>
	</g>
	<g>
		<path class="st2" d="M39.778,32.55C36.263,36.065,32,37.5,32,37.5s1.435-4.263,4.95-7.778c3.515-3.515,7.778-4.95,7.778-4.95
			S43.293,29.036,39.778,32.55z"/>
		<path class="st0" d="M32,38c-0.131,0-0.258-0.051-0.354-0.146c-0.135-0.134-0.181-0.333-0.12-0.513
			c0.06-0.178,1.513-4.415,5.07-7.972c3.557-3.557,7.793-5.01,7.972-5.07c0.178-0.062,0.378-0.014,0.513,0.12
			c0.135,0.134,0.181,0.333,0.12,0.513c-0.06,0.178-1.513,4.416-5.069,7.972s-7.794,5.01-7.973,5.07C32.107,37.992,32.054,38,32,38z
			 M43.823,25.676c-1.462,0.648-4.176,2.055-6.52,4.399c-2.35,2.349-3.754,5.061-4.4,6.521c1.461-0.648,4.177-2.055,6.521-4.399
			C41.769,29.853,43.175,27.138,43.823,25.676z"/>
	</g>
	<g>
		<path class="st2" d="M24.222,32.55C27.737,36.065,32,37.5,32,37.5s-1.435-4.263-4.95-7.778c-3.515-3.515-7.778-4.95-7.778-4.95
			S20.707,29.036,24.222,32.55z"/>
		<path class="st0" d="M32,38c-0.054,0-0.107-0.008-0.159-0.026c-0.179-0.061-4.416-1.514-7.973-5.07s-5.01-7.794-5.069-7.972
			c-0.061-0.18-0.015-0.379,0.12-0.513c0.135-0.134,0.337-0.182,0.513-0.12c0.179,0.06,4.415,1.513,7.972,5.07
			c3.558,3.557,5.011,7.794,5.07,7.972c0.061,0.18,0.015,0.379-0.12,0.513C32.258,37.949,32.131,38,32,38z M20.177,25.676
			c0.648,1.462,2.055,4.177,4.398,6.521s5.059,3.75,6.521,4.399c-0.648-1.461-2.055-4.176-4.399-6.521
			C24.353,27.731,21.639,26.325,20.177,25.676z"/>
	</g>
	<g>
		<path class="st2" d="M26,39c3.314,0,6-1.5,6-1.5S29.314,36,26,36s-6,1.5-6,1.5S22.686,39,26,39z"/>
		<path class="st0" d="M26,39.5c-3.404,0-6.13-1.5-6.244-1.563C19.598,37.848,19.5,37.681,19.5,37.5s0.098-0.348,0.256-0.437
			C19.87,37,22.596,35.5,26,35.5s6.13,1.5,6.244,1.563c0.158,0.088,0.256,0.255,0.256,0.437s-0.098,0.348-0.256,0.437
			C32.13,38,29.404,39.5,26,39.5z M21.189,37.5c1.035,0.423,2.813,1,4.811,1s3.775-0.577,4.811-1c-1.035-0.423-2.813-1-4.811-1
			S22.225,37.077,21.189,37.5z"/>
	</g>
	<g>
		<path class="st2" d="M38,39c3.314,0,6-1.5,6-1.5S41.314,36,38,36s-6,1.5-6,1.5S34.686,39,38,39z"/>
		<path class="st0" d="M38,39.5c-3.404,0-6.13-1.5-6.244-1.563C31.598,37.848,31.5,37.681,31.5,37.5s0.098-0.348,0.256-0.437
			C31.87,37,34.596,35.5,38,35.5s6.13,1.5,6.244,1.563c0.158,0.088,0.256,0.255,0.256,0.437s-0.098,0.348-0.256,0.437
			C44.13,38,41.404,39.5,38,39.5z M33.189,37.5c1.035,0.423,2.813,1,4.811,1s3.775-0.577,4.811-1c-1.035-0.423-2.813-1-4.811-1
			S34.225,37.077,33.189,37.5z"/>
	</g>
	<g>
		<path class="st5" d="M37.5,48h-11c-0.552,0-1-0.448-1-1v-1c0-0.552,0.448-1,1-1h11c0.552,0,1,0.448,1,1v1
			C38.5,47.552,38.052,48,37.5,48z"/>
		<path class="st0" d="M37.5,48.5h-11c-0.827,0-1.5-0.673-1.5-1.5v-1c0-0.827,0.673-1.5,1.5-1.5h11c0.827,0,1.5,0.673,1.5,1.5v1
			C39,47.827,38.327,48.5,37.5,48.5z M26.5,45.5c-0.275,0-0.5,0.224-0.5,0.5v1c0,0.276,0.225,0.5,0.5,0.5h11
			c0.275,0,0.5-0.224,0.5-0.5v-1c0-0.276-0.225-0.5-0.5-0.5H26.5z"/>
	</g>
	<g>
		<path class="st5" d="M35.153,57h-6.306c-0.489,0-0.906-0.353-0.986-0.836L26.5,48h11l-1.361,8.164
			C36.059,56.647,35.642,57,35.153,57z"/>
		<path class="st0" d="M35.153,57.5h-6.307c-0.735,0-1.357-0.527-1.479-1.252l-1.36-8.166c-0.024-0.145,0.017-0.293,0.111-0.405
			c0.096-0.112,0.235-0.177,0.382-0.177h11c0.146,0,0.286,0.064,0.382,0.177c0.095,0.112,0.136,0.26,0.111,0.405l-1.36,8.165
			C36.511,56.973,35.889,57.5,35.153,57.5z M27.09,48.5l1.264,7.583c0.041,0.242,0.248,0.417,0.493,0.417h6.307
			c0.245,0,0.452-0.176,0.493-0.418L36.91,48.5H27.09z"/>
	</g>
	<g>
		<path class="st0" d="M47,57.5h-9.02c-0.276,0-0.5-0.224-0.5-0.5s0.224-0.5,0.5-0.5H47c0.275,0,0.5-0.224,0.5-0.5V33
			c0-0.276,0.224-0.5,0.5-0.5h6.651c0.307,0,0.43-0.233,0.46-0.304s0.113-0.321-0.1-0.542L32.36,8.096
			c-0.189-0.198-0.531-0.198-0.721,0L8.988,31.653c-0.213,0.221-0.13,0.471-0.1,0.542S9.042,32.5,9.349,32.5H16
			c0.276,0,0.5,0.224,0.5,0.5v23c0,0.276,0.225,0.5,0.5,0.5h9.02c0.276,0,0.5,0.224,0.5,0.5s-0.224,0.5-0.5,0.5H17
			c-0.827,0-1.5-0.673-1.5-1.5V33.5H9.349c-0.611,0-1.141-0.35-1.38-0.913c-0.24-0.563-0.125-1.187,0.299-1.627L30.919,7.403
			c0.57-0.594,1.592-0.594,2.162,0L55.732,30.96c0.424,0.441,0.539,1.064,0.299,1.627c-0.239,0.563-0.769,0.913-1.38,0.913H48.5V56
			C48.5,56.827,47.827,57.5,47,57.5z"/>
	</g>
</g>
</svg>
