<?xml version="1.0" encoding="utf-8"?>
<!-- Generator: Adobe Illustrator 22.0.0, SVG Export Plug-In . SVG Version: 6.00 Build 0)  -->
<svg version="1.1" id="Layer_1" xmlns="http://www.w3.org/2000/svg" xmlns:xlink="http://www.w3.org/1999/xlink" x="0px" y="0px"
	 viewBox="0 0 64 64" style="enable-background:new 0 0 64 64;" xml:space="preserve">
<style type="text/css">
	.st0{fill:#263238;}
	.st1{fill:#4FC3F7;}
	.st2{fill:#4DB6AC;}
	.st3{fill:#FF5252;}
	.st4{fill:#FFFFFF;}
	.st5{fill:#FFD740;}
	.st6{fill:#40C4FF;}
</style>
<g>
	<g>
		<circle class="st5" cx="16.501" cy="16.75" r="11"/>
		<path class="st0" d="M16.5,28.25c-6.341,0-11.5-5.159-11.5-11.5s5.159-11.5,11.5-11.5S28,10.409,28,16.75S22.842,28.25,16.5,28.25
			z M16.5,6.25c-5.79,0-10.5,4.71-10.5,10.5s4.71,10.5,10.5,10.5S27,22.54,27,16.75S22.29,6.25,16.5,6.25z"/>
	</g>
	<g>
		<circle class="st5" cx="16.501" cy="7" r="2.5"/>
		<path class="st0" d="M16.5,10c-1.654,0-3-1.346-3-3s1.346-3,3-3s3,1.346,3,3S18.155,10,16.5,10z M16.5,5c-1.103,0-2,0.897-2,2
			s0.897,2,2,2s2-0.897,2-2S17.604,5,16.5,5z"/>
	</g>
	<g>
		<path class="st0" d="M20.5,15.75c-1.654,0-3-1.346-3-3s1.346-3,3-3s3,1.346,3,3S22.155,15.75,20.5,15.75z M20.5,10.75
			c-1.103,0-2,0.897-2,2s0.897,2,2,2s2-0.897,2-2S21.604,10.75,20.5,10.75z"/>
	</g>
	<g>
		<path class="st0" d="M12.5,23.75c-1.654,0-3-1.346-3-3s1.346-3,3-3s3,1.346,3,3S14.155,23.75,12.5,23.75z M12.5,18.75
			c-1.103,0-2,0.897-2,2s0.897,2,2,2s2-0.897,2-2S13.604,18.75,12.5,18.75z"/>
	</g>
	<g>
		<path class="st0" d="M12.5,15.75c-1.654,0-3-1.346-3-3s1.346-3,3-3s3,1.346,3,3S14.155,15.75,12.5,15.75z M12.5,10.75
			c-1.103,0-2,0.897-2,2s0.897,2,2,2s2-0.897,2-2S13.604,10.75,12.5,10.75z"/>
	</g>
	<g>
		<path class="st0" d="M20.5,23.75c-1.654,0-3-1.346-3-3s1.346-3,3-3s3,1.346,3,3S22.155,23.75,20.5,23.75z M20.5,18.75
			c-1.103,0-2,0.897-2,2s0.897,2,2,2s2-0.897,2-2S21.604,18.75,20.5,18.75z"/>
	</g>
	<g>
		<circle class="st5" cx="16.501" cy="26.5" r="2.5"/>
		<path class="st0" d="M16.5,29.5c-1.654,0-3-1.346-3-3s1.346-3,3-3s3,1.346,3,3S18.155,29.5,16.5,29.5z M16.5,24.5
			c-1.103,0-2,0.897-2,2s0.897,2,2,2s2-0.897,2-2S17.604,24.5,16.5,24.5z"/>
	</g>
	<g>
		<circle class="st5" cx="6.501" cy="16.75" r="2.5"/>
		<path class="st0" d="M6.5,19.75c-1.654,0-3-1.346-3-3s1.346-3,3-3s3,1.346,3,3S8.155,19.75,6.5,19.75z M6.5,14.75
			c-1.103,0-2,0.897-2,2s0.897,2,2,2s2-0.897,2-2S7.604,14.75,6.5,14.75z"/>
	</g>
	<g>
		<circle class="st5" cx="26.501" cy="16.75" r="2.5"/>
		<path class="st0" d="M26.5,19.75c-1.654,0-3-1.346-3-3s1.346-3,3-3s3,1.346,3,3S28.155,19.75,26.5,19.75z M26.5,14.75
			c-1.103,0-2,0.897-2,2s0.897,2,2,2s2-0.897,2-2S27.604,14.75,26.5,14.75z"/>
	</g>
	<g>
		<path class="st0" d="M52.001,60c-1.952,0-3.756-1.053-4.742-2.758c-1.705-0.986-2.758-2.79-2.758-4.742s1.053-3.756,2.758-4.742
			C48.245,46.053,50.049,45,52.001,45s3.756,1.053,4.741,2.758c1.705,0.987,2.759,2.791,2.759,4.742s-1.054,3.755-2.759,4.742
			C55.757,58.947,53.953,60,52.001,60z M52.001,46c-1.634,0-3.142,0.906-3.936,2.364c-0.046,0.084-0.116,0.154-0.2,0.2
			c-1.458,0.794-2.364,2.302-2.364,3.936s0.906,3.142,2.364,3.936c0.084,0.046,0.154,0.116,0.2,0.2
			C48.859,58.094,50.367,59,52.001,59s3.142-0.906,3.935-2.364c0.046-0.084,0.116-0.153,0.2-0.2
			c1.459-0.794,2.365-2.302,2.365-3.936s-0.906-3.142-2.365-3.936c-0.084-0.047-0.154-0.116-0.2-0.2
			C55.143,46.906,53.635,46,52.001,46z"/>
	</g>
	<g>
		<polygon class="st6" points="43.309,43.809 43.309,35.323 40.834,37.798 30.228,27.191 26.692,30.727 37.299,41.334 
			34.824,43.809 		"/>
		<path class="st0" d="M43.31,44.309h-8.485c-0.202,0-0.385-0.122-0.462-0.309s-0.034-0.402,0.108-0.545l2.121-2.121L26.339,31.08
			c-0.195-0.195-0.195-0.512,0-0.707l3.535-3.535c0.195-0.195,0.512-0.195,0.707,0l10.253,10.253l2.122-2.121
			c0.143-0.144,0.36-0.186,0.545-0.108c0.187,0.077,0.309,0.26,0.309,0.462v8.485C43.81,44.085,43.586,44.309,43.31,44.309z
			 M36.031,43.309h6.778V36.53l-1.622,1.621c-0.195,0.195-0.512,0.195-0.707,0L30.228,27.898l-2.828,2.828L37.652,40.98
			c0.195,0.195,0.195,0.512,0,0.707L36.031,43.309z"/>
	</g>
	<g>
		<path class="st0" d="M41.001,12h-4c-0.276,0-0.5-0.224-0.5-0.5s0.224-0.5,0.5-0.5h4c0.276,0,0.5,0.224,0.5,0.5
			S41.277,12,41.001,12z"/>
	</g>
	<g>
		<path class="st0" d="M45.501,7h-4c-0.276,0-0.5-0.224-0.5-0.5s0.224-0.5,0.5-0.5h4c0.276,0,0.5,0.224,0.5,0.5S45.777,7,45.501,7z"
			/>
	</g>
	<g>
		<path class="st0" d="M43.501,9c-0.276,0-0.5-0.224-0.5-0.5v-4c0-0.276,0.224-0.5,0.5-0.5s0.5,0.224,0.5,0.5v4
			C44.001,8.776,43.777,9,43.501,9z"/>
	</g>
	<g>
		<path class="st0" d="M39.001,14c-0.276,0-0.5-0.224-0.5-0.5v-4c0-0.276,0.224-0.5,0.5-0.5s0.5,0.224,0.5,0.5v4
			C39.501,13.776,39.277,14,39.001,14z"/>
	</g>
	<g>
		<path class="st0" d="M24,53H10c-0.276,0-0.5-0.224-0.5-0.5S9.724,52,10,52h14c0.276,0,0.5,0.224,0.5,0.5S24.277,53,24,53z"/>
	</g>
	<g>
		<path class="st0" d="M8,53H6c-0.276,0-0.5-0.224-0.5-0.5S5.724,52,6,52h2c0.276,0,0.5,0.224,0.5,0.5S8.277,53,8,53z"/>
	</g>
	<g>
		<path class="st0" d="M56.001,22.25h-14c-0.276,0-0.5-0.224-0.5-0.5s0.224-0.5,0.5-0.5h14c0.276,0,0.5,0.224,0.5,0.5
			S56.277,22.25,56.001,22.25z"/>
	</g>
	<g>
		<path class="st0" d="M60.001,22.25h-2c-0.276,0-0.5-0.224-0.5-0.5s0.224-0.5,0.5-0.5h2c0.276,0,0.5,0.224,0.5,0.5
			S60.277,22.25,60.001,22.25z"/>
	</g>
</g>
</svg>
