<?xml version="1.0" encoding="utf-8"?>
<!-- Generator: Adobe Illustrator 22.0.0, SVG Export Plug-In . SVG Version: 6.00 Build 0)  -->
<svg version="1.1" id="Layer_1" xmlns="http://www.w3.org/2000/svg" xmlns:xlink="http://www.w3.org/1999/xlink" x="0px" y="0px"
	 viewBox="0 0 64 64" style="enable-background:new 0 0 64 64;" xml:space="preserve">
<style type="text/css">
	.st0{fill:#263238;}
	.st1{fill:#4FC3F7;}
	.st2{fill:#4DB6AC;}
	.st3{fill:#FF5252;}
	.st4{fill:#FFFFFF;}
	.st5{fill:#FFD740;}
	.st6{fill:#40C4FF;}
</style>
<g>
	<g>
		<path class="st0" d="M32,33.5c-5.243,0-9.746-3.475-11.096-8.502C19.294,24.948,18,23.622,18,22s1.294-2.948,2.904-2.998
			C22.254,13.975,26.757,10.5,32,10.5s9.745,3.475,11.095,8.502C44.705,19.052,46,20.378,46,22s-1.295,2.948-2.905,2.998
			C41.745,30.025,37.243,33.5,32,33.5z M21.222,23.98c0.239,0,0.501,0.149,0.554,0.378C22.878,29.152,27.082,32.5,32,32.5
			c4.917,0,9.121-3.348,10.224-8.142c0.057-0.249,0.282-0.421,0.548-0.384C42.9,23.992,42.949,24,43,24c1.103,0,2-0.897,2-2
			s-0.897-2-2-2c-0.051,0-0.1,0.008-0.149,0.015c-0.252,0.042-0.568-0.121-0.627-0.373C41.121,14.848,36.917,11.5,32,11.5
			c-4.918,0-9.122,3.348-10.225,8.142c-0.058,0.249-0.288,0.421-0.548,0.384C21.099,20.008,21.051,20,21,20c-1.103,0-2,0.897-2,2
			s0.897,2,2,2c0.051,0,0.099-0.008,0.147-0.015C21.172,23.981,21.196,23.98,21.222,23.98z"/>
	</g>
	<g>
		<path class="st5" d="M22,21h-0.5v-6.5h3v4C24.5,19.881,23.38,21,22,21z"/>
		<path class="st0" d="M22,21.5h-0.5c-0.276,0-0.5-0.224-0.5-0.5v-6.5c0-0.276,0.224-0.5,0.5-0.5h3c0.276,0,0.5,0.224,0.5,0.5v4
			C25,20.154,23.654,21.5,22,21.5z M22,20.5h0.01H22z M22,15v5.5c1.103,0,2-0.897,2-2V15H22z"/>
	</g>
	<g>
		<path class="st5" d="M39.5,14.45v4.05c0,1.381,1.119,2.5,2.5,2.5h0.5v-7.935C41.711,13.839,40.662,14.332,39.5,14.45z"/>
		<path class="st0" d="M42.5,21.5H42c-1.654,0-3-1.346-3-3v-4.051c0-0.257,0.194-0.472,0.45-0.497
			c1.029-0.104,1.988-0.546,2.699-1.244c0.145-0.143,0.359-0.183,0.544-0.104C42.879,12.682,43,12.863,43,13.064V21
			C43,21.276,42.776,21.5,42.5,21.5z M40,14.883V18.5c0,1.103,0.897,2,2,2v-6.402C41.398,14.483,40.718,14.752,40,14.883z"/>
	</g>
	<g>
		<path class="st0" d="M29.5,22.035h-3c-0.276,0-0.5-0.224-0.5-0.5s0.224-0.5,0.5-0.5h3c0.276,0,0.5,0.224,0.5,0.5
			S29.776,22.035,29.5,22.035z"/>
	</g>
	<g>
		<path class="st0" d="M37.5,22.035h-3c-0.276,0-0.5-0.224-0.5-0.5s0.224-0.5,0.5-0.5h3c0.276,0,0.5,0.224,0.5,0.5
			S37.776,22.035,37.5,22.035z"/>
	</g>
	<g>
		<path class="st5" d="M39,14.5H21.5v0c0-4.142,3.358-7.5,7.5-7.5h5.205c2.171,0,4.315-0.471,6.286-1.381L44,4v5.5
			C44,12.261,41.761,14.5,39,14.5z"/>
		<path class="st0" d="M39,15H21.5c-0.276,0-0.5-0.224-0.5-0.5c0-4.411,3.589-8,8-8h5.205c2.085,0,4.186-0.462,6.076-1.335
			l3.509-1.619c0.155-0.07,0.336-0.06,0.479,0.033C44.413,3.671,44.5,3.829,44.5,4v5.5C44.5,12.532,42.032,15,39,15z M22.018,14H39
			c2.481,0,4.5-2.019,4.5-4.5V4.781l-2.799,1.292C38.68,7.007,36.434,7.5,34.205,7.5H29C25.309,7.5,22.275,10.373,22.018,14z"/>
	</g>
	<g>
		<path class="st2" d="M61,63H3V47.5C3,46.119,4.119,45,5.5,45h53c1.381,0,2.5,1.119,2.5,2.5V63z"/>
	</g>
	<g>
		<path class="st0" d="M49.729,43.5c-0.221,0-0.423-0.146-0.482-0.37c-0.562-2.089-2.017-3.772-3.99-4.618l-9.454-4.052
			C35.619,34.381,35.5,34.2,35.5,34v-1.052c-2.271,0.732-4.729,0.732-7,0V34c0,0.2-0.119,0.381-0.303,0.46l-9.455,4.052
			c-1.973,0.846-3.427,2.529-3.989,4.618c-0.07,0.268-0.349,0.426-0.612,0.353c-0.267-0.071-0.425-0.346-0.353-0.612
			c0.643-2.387,2.305-4.311,4.56-5.278L27.5,33.67v-1.431c0-0.165,0.082-0.32,0.219-0.413c0.137-0.094,0.311-0.111,0.464-0.053
			c2.457,0.965,5.178,0.965,7.635,0c0.152-0.059,0.327-0.041,0.464,0.053c0.137,0.093,0.219,0.248,0.219,0.413v1.431l9.151,3.922
			c2.256,0.968,3.918,2.892,4.561,5.278c0.072,0.267-0.086,0.541-0.353,0.612C49.816,43.494,49.772,43.5,49.729,43.5z"/>
	</g>
	<g>
		<path class="st0" d="M49.5,33.5H38.907c-0.276,0-0.5-0.224-0.5-0.5s0.224-0.5,0.5-0.5H49.5c1.103,0,2-0.897,2-2v-19
			c0-1.103-0.897-2-2-2H46c-0.276,0-0.5-0.224-0.5-0.5s0.224-0.5,0.5-0.5h3.5c1.654,0,3,1.346,3,3v19
			C52.5,32.154,51.154,33.5,49.5,33.5z"/>
	</g>
	<g>
		<path class="st0" d="M25.092,33.5H14.5c-1.654,0-3-1.346-3-3v-19c0-1.654,1.346-3,3-3h6.769c0.276,0,0.5,0.224,0.5,0.5
			s-0.224,0.5-0.5,0.5H14.5c-1.103,0-2,0.897-2,2v19c0,1.103,0.897,2,2,2h10.592c0.276,0,0.5,0.224,0.5,0.5S25.368,33.5,25.092,33.5
			z"/>
	</g>
	<g>
		<path class="st0" d="M61,63.5c-0.276,0-0.5-0.224-0.5-0.5V47.5c0-1.103-0.98-2-2.186-2H5.685c-1.204,0-2.185,0.897-2.185,2V63
			c0,0.276-0.224,0.5-0.5,0.5S2.5,63.276,2.5,63V47.5c0-1.654,1.429-3,3.185-3h52.63c1.757,0,3.186,1.346,3.186,3V63
			C61.5,63.276,61.276,63.5,61,63.5z"/>
	</g>
	<g>
		<path class="st0" d="M59,39.12h-6.5c-0.276,0-0.5-0.224-0.5-0.5s0.224-0.5,0.5-0.5H59c0.276,0,0.5,0.224,0.5,0.5
			S59.276,39.12,59,39.12z"/>
	</g>
	<g>
		<path class="st0" d="M63,39.12h-2c-0.276,0-0.5-0.224-0.5-0.5s0.224-0.5,0.5-0.5h2c0.276,0,0.5,0.224,0.5,0.5
			S63.276,39.12,63,39.12z"/>
	</g>
	<g>
		<path class="st0" d="M11.5,39.12H5c-0.276,0-0.5-0.224-0.5-0.5s0.224-0.5,0.5-0.5h6.5c0.276,0,0.5,0.224,0.5,0.5
			S11.776,39.12,11.5,39.12z"/>
	</g>
	<g>
		<path class="st0" d="M3,39.12H1c-0.276,0-0.5-0.224-0.5-0.5s0.224-0.5,0.5-0.5h2c0.276,0,0.5,0.224,0.5,0.5S3.276,39.12,3,39.12z"
			/>
	</g>
	<g>
		<path class="st0" d="M56.5,3.5h-4C52.224,3.5,52,3.276,52,3s0.224-0.5,0.5-0.5h4C56.776,2.5,57,2.724,57,3S56.776,3.5,56.5,3.5z"
			/>
	</g>
	<g>
		<path class="st0" d="M54.5,5.5C54.224,5.5,54,5.276,54,5V1c0-0.276,0.224-0.5,0.5-0.5S55,0.724,55,1v4
			C55,5.276,54.776,5.5,54.5,5.5z"/>
	</g>
	<g>
		<path class="st0" d="M61.5,7.5h-4C57.224,7.5,57,7.276,57,7s0.224-0.5,0.5-0.5h4C61.776,6.5,62,6.724,62,7S61.776,7.5,61.5,7.5z"
			/>
	</g>
	<g>
		<path class="st0" d="M59.5,9.5C59.224,9.5,59,9.276,59,9V5c0-0.276,0.224-0.5,0.5-0.5S60,4.724,60,5v4
			C60,9.276,59.776,9.5,59.5,9.5z"/>
	</g>
	<g>
		<path class="st0" d="M61,50.5H3c-0.276,0-0.5-0.224-0.5-0.5s0.224-0.5,0.5-0.5h58c0.276,0,0.5,0.224,0.5,0.5S61.276,50.5,61,50.5z
			"/>
	</g>
	<g>
		<path class="st0" d="M61,55.5H3c-0.276,0-0.5-0.224-0.5-0.5s0.224-0.5,0.5-0.5h58c0.276,0,0.5,0.224,0.5,0.5S61.276,55.5,61,55.5z
			"/>
	</g>
</g>
</svg>
