<?xml version="1.0" encoding="utf-8"?>
<!-- Generator: Adobe Illustrator 22.0.0, SVG Export Plug-In . SVG Version: 6.00 Build 0)  -->
<svg version="1.1" id="Layer_1" xmlns="http://www.w3.org/2000/svg" xmlns:xlink="http://www.w3.org/1999/xlink" x="0px" y="0px"
	 viewBox="0 0 64 64" style="enable-background:new 0 0 64 64;" xml:space="preserve">
<style type="text/css">
	.st0{fill:#263238;}
	.st1{fill:#4FC3F7;}
	.st2{fill:#4DB6AC;}
	.st3{fill:#FF5252;}
	.st4{fill:#FFFFFF;}
	.st5{fill:#FFD740;}
	.st6{fill:#40C4FF;}
</style>
<g>
	<g>
		<path class="st3" d="M57,26.5H7V17c0-1.381,1.119-2.5,2.5-2.5h45c1.381,0,2.5,1.119,2.5,2.5V26.5z"/>
		<path class="st0" d="M57,27H7c-0.276,0-0.5-0.224-0.5-0.5V17c0-1.654,1.346-3,3-3h45c1.654,0,3,1.346,3,3v9.5
			C57.5,26.776,57.276,27,57,27z M7.5,26h49v-9c0-1.103-0.897-2-2-2h-45c-1.103,0-2,0.897-2,2V26z"/>
	</g>
	<g>
		<path class="st2" d="M54.5,50.5h-45C8.119,50.5,7,49.381,7,48v-9.5h50V48C57,49.381,55.881,50.5,54.5,50.5z"/>
		<path class="st0" d="M54.5,51h-45c-1.654,0-3-1.346-3-3v-9.5C6.5,38.224,6.724,38,7,38h50c0.276,0,0.5,0.224,0.5,0.5V48
			C57.5,49.654,56.154,51,54.5,51z M7.5,39v9c0,1.103,0.897,2,2,2h45c1.103,0,2-0.897,2-2v-9H7.5z"/>
	</g>
	<g>
		<rect x="7" y="26.5" class="st5" width="50" height="12"/>
		<path class="st0" d="M57,39H7c-0.276,0-0.5-0.224-0.5-0.5v-12C6.5,26.224,6.724,26,7,26h50c0.276,0,0.5,0.224,0.5,0.5v12
			C57.5,38.776,57.276,39,57,39z M7.5,38h49V27h-49V38z"/>
	</g>
	<g>
		<path class="st0" d="M35.184,43.75c-0.136,0-0.271-0.055-0.37-0.164L32,40.493l-2.813,3.093c-0.186,0.205-0.5,0.219-0.707,0.034
			c-0.204-0.186-0.219-0.502-0.033-0.707l3.184-3.5c0.189-0.208,0.551-0.208,0.74,0l3.184,3.5c0.186,0.204,0.171,0.521-0.033,0.707
			C35.424,43.707,35.304,43.75,35.184,43.75z"/>
	</g>
	<g>
		<path class="st0" d="M32,45.75c-0.276,0-0.5-0.224-0.5-0.5v-5.5c0-0.276,0.224-0.5,0.5-0.5s0.5,0.224,0.5,0.5v5.5
			C32.5,45.526,32.276,45.75,32,45.75z"/>
	</g>
	<g>
		<path class="st4" d="M34.5,29.75c0,5.523-2.5,10-2.5,10s-2.5-4.477-2.5-10s2.5-10,2.5-10S34.5,24.227,34.5,29.75z"/>
		<path class="st0" d="M32,40.25c-0.182,0-0.349-0.098-0.437-0.256C31.459,39.806,29,35.339,29,29.75s2.459-10.056,2.563-10.244
			c0.176-0.316,0.697-0.316,0.873,0C32.541,19.694,35,24.161,35,29.75s-2.459,10.056-2.563,10.244
			C32.349,40.152,32.182,40.25,32,40.25z M32,20.889c-0.701,1.554-2,4.958-2,8.861s1.299,7.308,2,8.861c0.701-1.554,2-4.958,2-8.861
			S32.701,22.442,32,20.889z"/>
	</g>
	<g>
		<path class="st4" d="M39.778,34.8C36.263,38.315,32,39.75,32,39.75s1.435-4.263,4.95-7.778s7.778-4.95,7.778-4.95
			S43.293,31.286,39.778,34.8z"/>
		<path class="st0" d="M32,40.25c-0.131,0-0.258-0.051-0.354-0.146c-0.135-0.134-0.181-0.333-0.12-0.513
			c0.06-0.178,1.513-4.415,5.07-7.972c3.557-3.557,7.793-5.01,7.972-5.07c0.178-0.062,0.378-0.014,0.513,0.12
			s0.181,0.333,0.12,0.513c-0.06,0.178-1.513,4.416-5.069,7.972s-7.794,5.01-7.973,5.07C32.107,40.242,32.054,40.25,32,40.25z
			 M43.823,27.926c-1.462,0.648-4.176,2.055-6.52,4.399c-2.345,2.344-3.751,5.058-4.399,6.52c1.462-0.648,4.177-2.055,6.521-4.399
			S43.175,29.388,43.823,27.926z"/>
	</g>
	<g>
		<path class="st4" d="M24.222,34.8C27.737,38.315,32,39.75,32,39.75s-1.435-4.263-4.95-7.778s-7.778-4.95-7.778-4.95
			S20.707,31.286,24.222,34.8z"/>
		<path class="st0" d="M32,40.25c-0.054,0-0.107-0.008-0.159-0.026c-0.179-0.061-4.416-1.514-7.973-5.07s-5.01-7.794-5.069-7.972
			c-0.061-0.18-0.015-0.379,0.12-0.513c0.136-0.134,0.335-0.182,0.513-0.12c0.179,0.06,4.415,1.513,7.973,5.07
			c3.557,3.557,5.01,7.793,5.069,7.972c0.061,0.18,0.015,0.379-0.12,0.513C32.258,40.199,32.131,40.25,32,40.25z M20.176,27.925
			c0.648,1.461,2.055,4.177,4.399,6.521c2.344,2.344,5.059,3.75,6.521,4.399c-0.648-1.461-2.055-4.176-4.398-6.52
			C24.348,29.977,21.636,28.572,20.176,27.925z"/>
	</g>
	<g>
		<path class="st4" d="M26,41.25c3.314,0,6-1.5,6-1.5s-2.686-1.5-6-1.5s-6,1.5-6,1.5S22.686,41.25,26,41.25z"/>
		<path class="st0" d="M26,41.75c-3.404,0-6.13-1.5-6.244-1.563c-0.158-0.088-0.256-0.255-0.256-0.437s0.098-0.348,0.256-0.437
			C19.87,39.25,22.596,37.75,26,37.75s6.13,1.5,6.244,1.563c0.158,0.088,0.256,0.255,0.256,0.437s-0.098,0.348-0.256,0.437
			C32.13,40.25,29.404,41.75,26,41.75z M21.189,39.75c1.035,0.423,2.813,1,4.811,1s3.775-0.577,4.811-1
			c-1.035-0.423-2.813-1-4.811-1S22.225,39.327,21.189,39.75z"/>
	</g>
	<g>
		<path class="st4" d="M38,41.25c3.314,0,6-1.5,6-1.5s-2.686-1.5-6-1.5s-6,1.5-6,1.5S34.686,41.25,38,41.25z"/>
		<path class="st0" d="M38,41.75c-3.404,0-6.13-1.5-6.244-1.563c-0.158-0.088-0.256-0.255-0.256-0.437s0.098-0.348,0.256-0.437
			C31.87,39.25,34.596,37.75,38,37.75s6.13,1.5,6.244,1.563c0.158,0.088,0.256,0.255,0.256,0.437s-0.098,0.348-0.256,0.437
			C44.13,40.25,41.404,41.75,38,41.75z M33.189,39.75c1.035,0.423,2.813,1,4.811,1s3.775-0.577,4.811-1
			c-1.035-0.423-2.813-1-4.811-1S34.225,39.327,33.189,39.75z"/>
	</g>
	<g>
		<path class="st0" d="M63.5,55h-2c-0.276,0-0.5-0.224-0.5-0.5s0.224-0.5,0.5-0.5h2c0.276,0,0.5,0.224,0.5,0.5S63.776,55,63.5,55z"
			/>
	</g>
	<g>
		<path class="st0" d="M59.5,55h-13c-0.276,0-0.5-0.224-0.5-0.5s0.224-0.5,0.5-0.5h13c0.276,0,0.5,0.224,0.5,0.5S59.776,55,59.5,55z
			"/>
	</g>
	<g>
		<path class="st0" d="M2.5,11h-2C0.224,11,0,10.776,0,10.5S0.224,10,0.5,10h2C2.776,10,3,10.224,3,10.5S2.776,11,2.5,11z"/>
	</g>
	<g>
		<path class="st0" d="M17.5,11h-13C4.224,11,4,10.776,4,10.5S4.224,10,4.5,10h13c0.276,0,0.5,0.224,0.5,0.5S17.776,11,17.5,11z"/>
	</g>
	<g>
		<path class="st0" d="M63.5,13h-4c-0.276,0-0.5-0.224-0.5-0.5s0.224-0.5,0.5-0.5h4c0.276,0,0.5,0.224,0.5,0.5S63.776,13,63.5,13z"
			/>
	</g>
	<g>
		<path class="st0" d="M59,9h-4c-0.276,0-0.5-0.224-0.5-0.5S54.724,8,55,8h4c0.276,0,0.5,0.224,0.5,0.5S59.276,9,59,9z"/>
	</g>
	<g>
		<path class="st0" d="M57,11c-0.276,0-0.5-0.224-0.5-0.5v-4C56.5,6.224,56.724,6,57,6s0.5,0.224,0.5,0.5v4
			C57.5,10.776,57.276,11,57,11z"/>
	</g>
	<g>
		<path class="st0" d="M61.5,15c-0.276,0-0.5-0.224-0.5-0.5v-4c0-0.276,0.224-0.5,0.5-0.5s0.5,0.224,0.5,0.5v4
			C62,14.776,61.776,15,61.5,15z"/>
	</g>
	<g>
		<path class="st0" d="M54,23.023c-0.276,0-0.5-0.224-0.5-0.5v-4.004c0-0.274-0.223-0.499-0.497-0.5L48.998,18
			c-0.276-0.001-0.499-0.226-0.498-0.502C48.501,17.222,48.725,17,49,17c0.001,0,0.002,0,0.002,0l4.005,0.019
			c0.823,0.004,1.493,0.677,1.493,1.5v4.004C54.5,22.799,54.276,23.023,54,23.023z"/>
	</g>
</g>
</svg>
