<?xml version="1.0" encoding="utf-8"?>
<!-- Generator: Adobe Illustrator 22.0.0, SVG Export Plug-In . SVG Version: 6.00 Build 0)  -->
<svg version="1.1" id="Layer_1" xmlns="http://www.w3.org/2000/svg" xmlns:xlink="http://www.w3.org/1999/xlink" x="0px" y="0px"
	 viewBox="0 0 64 64" style="enable-background:new 0 0 64 64;" xml:space="preserve">
<style type="text/css">
	.st0{fill:#263238;}
	.st1{fill:#4FC3F7;}
	.st2{fill:#4DB6AC;}
	.st3{fill:#FF5252;}
	.st4{fill:#FFFFFF;}
	.st5{fill:#FFD740;}
	.st6{fill:#40C4FF;}
</style>
<g>
	<g>
		<path class="st0" d="M50.5,60.501h-37c-1.654,0-3-1.346-3-3s1.346-3,3-3h37c1.654,0,3,1.346,3,3S52.154,60.501,50.5,60.501z
			 M13.5,55.501c-1.103,0-2,0.897-2,2s0.897,2,2,2h37c1.103,0,2-0.897,2-2s-0.897-2-2-2H13.5z"/>
	</g>
	<g>
		<path class="st0" d="M44,55.501H20c-0.276,0-0.5-0.224-0.5-0.5v-2c0-0.827,0.673-1.5,1.5-1.5h22c0.827,0,1.5,0.673,1.5,1.5v2
			C44.5,55.277,44.276,55.501,44,55.501z M20.5,54.501h23v-1.5c0-0.275-0.224-0.5-0.5-0.5H21c-0.276,0-0.5,0.225-0.5,0.5V54.501z"/>
	</g>
	<g>
		<path class="st0" d="M24,37.501c-0.188,0-0.368-0.106-0.453-0.287L16,21.175L8.453,37.214c-0.118,0.249-0.415,0.356-0.666,0.239
			c-0.25-0.117-0.357-0.415-0.24-0.665l8-17c0.165-0.35,0.74-0.35,0.905,0l8,17c0.117,0.25,0.01,0.548-0.24,0.665
			C24.144,37.485,24.072,37.501,24,37.501z"/>
	</g>
	<g>
		<path class="st5" d="M16,45.001c4.418,0,8-3.582,8-8H8C8,41.419,11.582,45.001,16,45.001z"/>
		<path class="st0" d="M16,45.501c-4.687,0-8.5-3.813-8.5-8.5c0-0.276,0.224-0.5,0.5-0.5h16c0.276,0,0.5,0.224,0.5,0.5
			C24.5,41.688,20.687,45.501,16,45.501z M8.517,37.501c0.258,3.903,3.516,7,7.483,7s7.225-3.097,7.483-7H8.517z"/>
	</g>
	<g>
		<path class="st0" d="M56.001,37.501c-0.188,0-0.368-0.106-0.453-0.287L48,21.175l-7.547,16.039
			c-0.118,0.249-0.416,0.356-0.666,0.239s-0.357-0.415-0.24-0.665l8-17c0.165-0.35,0.74-0.35,0.905,0l8,17
			c0.117,0.25,0.01,0.548-0.24,0.665C56.145,37.485,56.072,37.501,56.001,37.501z"/>
	</g>
	<g>
		<path class="st5" d="M48,45.001c4.418,0,8-3.582,8-8H40C40,41.419,43.582,45.001,48,45.001z"/>
		<path class="st0" d="M48,45.501c-4.687,0-8.5-3.813-8.5-8.5c0-0.276,0.224-0.5,0.5-0.5h16c0.276,0,0.5,0.224,0.5,0.5
			C56.5,41.688,52.687,45.501,48,45.501z M40.517,37.501c0.258,3.903,3.516,7,7.483,7s7.225-3.097,7.483-7H40.517z"/>
	</g>
	<g>
		<path class="st0" d="M28.817,24.001c-0.12,0-0.241-0.043-0.336-0.13c-0.204-0.187-0.219-0.502-0.034-0.707l3.184-3.5
			c0.095-0.104,0.229-0.163,0.37-0.163l0,0c0.141,0,0.275,0.06,0.37,0.164l3.183,3.5c0.186,0.204,0.17,0.521-0.034,0.706
			c-0.203,0.186-0.519,0.172-0.707-0.034L32,20.744l-2.813,3.094C29.088,23.946,28.953,24.001,28.817,24.001z"/>
	</g>
	<g>
		<path class="st0" d="M32,25.501c-0.276,0-0.5-0.224-0.5-0.5v-5c0-0.276,0.224-0.5,0.5-0.5s0.5,0.224,0.5,0.5v5
			C32.5,25.277,32.277,25.501,32,25.501z"/>
	</g>
	<g>
		<path class="st2" d="M34,12.001c0,4.418-2,8-2,8s-2-3.582-2-8s2-8,2-8S34,7.583,34,12.001z"/>
		<path class="st0" d="M32,20.501c-0.181,0-0.348-0.098-0.437-0.256c-0.084-0.151-2.063-3.748-2.063-8.244s1.979-8.093,2.063-8.244
			c0.177-0.316,0.696-0.316,0.873,0c0.084,0.151,2.063,3.748,2.063,8.244s-1.979,8.093-2.063,8.244
			C32.349,20.403,32.182,20.501,32,20.501z M32.001,5.157c-0.571,1.312-1.5,3.9-1.5,6.844c0,2.949,0.928,5.533,1.5,6.844
			c0.571-1.312,1.5-3.9,1.5-6.844C33.5,9.052,32.572,6.468,32.001,5.157z"/>
	</g>
	<g>
		<path class="st2" d="M36,21.501c-2.209,0-4-1.5-4-1.5s1.791-1.5,4-1.5c2.209,0,4,1.5,4,1.5S38.209,21.501,36,21.501z"/>
		<path class="st0" d="M36,22.001c-2.364,0-4.242-1.551-4.321-1.617c-0.113-0.095-0.179-0.235-0.179-0.383s0.065-0.288,0.179-0.383
			c0.079-0.066,1.957-1.617,4.321-1.617c2.364,0,4.242,1.551,4.321,1.616c0.114,0.096,0.179,0.235,0.179,0.384
			s-0.065,0.288-0.179,0.384C40.243,20.45,38.364,22.001,36,22.001z M32.868,20c0.653,0.41,1.823,1.001,3.132,1.001
			c1.308,0,2.478-0.591,3.131-1c-0.653-0.409-1.823-1-3.131-1C34.685,19.001,33.519,19.591,32.868,20z"/>
	</g>
	<g>
		<path class="st2" d="M28,21.501c2.209,0,4-1.5,4-1.5s-1.791-1.5-4-1.5s-4,1.5-4,1.5S25.791,21.501,28,21.501z"/>
		<path class="st0" d="M28,22.001c-2.364,0-4.242-1.551-4.321-1.617c-0.113-0.095-0.179-0.235-0.179-0.383s0.065-0.288,0.179-0.383
			c0.079-0.066,1.957-1.617,4.321-1.617c2.364,0,4.242,1.551,4.321,1.616c0.114,0.096,0.179,0.235,0.179,0.384
			s-0.065,0.288-0.179,0.384C32.243,20.45,30.364,22.001,28,22.001z M24.868,20c0.653,0.41,1.823,1.001,3.132,1.001
			c1.308,0,2.478-0.591,3.131-1c-0.653-0.409-1.823-1-3.131-1C26.685,19.001,25.519,19.591,24.868,20z"/>
	</g>
	<g>
		<path class="st2" d="M38.011,16.112C35.277,18.846,32,20.001,32,20.001s1.155-3.277,3.889-6.01c2.734-2.734,6.01-3.889,6.01-3.889
			S40.744,13.378,38.011,16.112z"/>
		<path class="st0" d="M32,20.501c-0.13,0-0.258-0.051-0.354-0.146c-0.136-0.136-0.182-0.338-0.118-0.52
			c0.049-0.139,1.225-3.416,4.007-6.198c2.782-2.781,6.06-3.958,6.198-4.007c0.181-0.063,0.383-0.019,0.52,0.118
			c0.136,0.136,0.182,0.338,0.118,0.52c-0.049,0.139-1.225,3.416-4.007,6.198l0,0c-2.782,2.781-6.06,3.958-6.197,4.007
			C32.112,20.491,32.056,20.501,32,20.501z M40.94,11.062c-1.166,0.563-3.043,1.629-4.697,3.282
			c-1.658,1.658-2.722,3.533-3.283,4.697c1.166-0.563,3.043-1.629,4.697-3.282l0,0C39.315,14.101,40.379,12.226,40.94,11.062z
			 M38.011,16.112h0.01H38.011z"/>
	</g>
	<g>
		<path class="st2" d="M25.99,16.112c2.734,2.734,6.01,3.889,6.01,3.889s-1.155-3.277-3.889-6.01s-6.01-3.889-6.01-3.889
			S23.256,13.378,25.99,16.112z"/>
		<path class="st0" d="M32,20.501c-0.056,0-0.112-0.01-0.166-0.028c-0.138-0.049-3.416-1.226-6.198-4.007l0,0
			c-2.782-2.782-3.958-6.06-4.007-6.198c-0.064-0.182-0.018-0.384,0.118-0.52c0.135-0.137,0.336-0.182,0.52-0.118
			c0.138,0.049,3.415,1.226,6.197,4.007c2.782,2.782,3.958,6.06,4.007,6.198c0.064,0.182,0.018,0.384-0.118,0.52
			C32.259,20.45,32.131,20.501,32,20.501z M26.343,15.759c1.653,1.653,3.531,2.719,4.696,3.281
			c-0.563-1.165-1.629-3.043-3.282-4.696c-1.658-1.657-3.533-2.722-4.697-3.283C23.624,12.227,24.69,14.104,26.343,15.759
			L26.343,15.759z"/>
	</g>
	<g>
		<path class="st0" d="M33.5,50.501c-0.276,0-0.5-0.224-0.5-0.5V26.305c0-0.276,0.224-0.5,0.5-0.5s0.5,0.224,0.5,0.5v23.696
			C34,50.277,33.777,50.501,33.5,50.501z"/>
	</g>
	<g>
		<path class="st0" d="M30.5,50.501c-0.276,0-0.5-0.224-0.5-0.5V26.304c0-0.276,0.224-0.5,0.5-0.5s0.5,0.224,0.5,0.5v23.697
			C31,50.277,30.776,50.501,30.5,50.501z"/>
	</g>
	<g>
		<path class="st0" d="M22,20.501H12c-1.103,0-2-0.897-2-2s0.897-2,2-2h12.082c0.276,0,0.5,0.224,0.5,0.5s-0.224,0.5-0.5,0.5H12
			c-0.551,0-1,0.448-1,1s0.449,1,1,1h10c0.276,0,0.5,0.224,0.5,0.5S22.277,20.501,22,20.501z"/>
	</g>
	<g>
		<path class="st0" d="M52,20.501H42c-0.276,0-0.5-0.224-0.5-0.5s0.224-0.5,0.5-0.5h10c0.551,0,1-0.448,1-1s-0.449-1-1-1H39.918
			c-0.276,0-0.5-0.224-0.5-0.5s0.224-0.5,0.5-0.5H52c1.103,0,2,0.897,2,2S53.104,20.501,52,20.501z"/>
	</g>
	<g>
		<path class="st0" d="M15,6.501h-4c-0.276,0-0.5-0.224-0.5-0.5s0.224-0.5,0.5-0.5h4c0.276,0,0.5,0.224,0.5,0.5
			S15.276,6.501,15,6.501z"/>
	</g>
	<g>
		<path class="st0" d="M13,8.501c-0.276,0-0.5-0.224-0.5-0.5v-4c0-0.276,0.224-0.5,0.5-0.5s0.5,0.224,0.5,0.5v4
			C13.5,8.277,13.276,8.501,13,8.501z"/>
	</g>
	<g>
		<path class="st0" d="M10,11.501H6c-0.276,0-0.5-0.224-0.5-0.5s0.224-0.5,0.5-0.5h4c0.276,0,0.5,0.224,0.5,0.5
			S10.276,11.501,10,11.501z"/>
	</g>
	<g>
		<path class="st0" d="M8,13.501c-0.276,0-0.5-0.224-0.5-0.5v-4c0-0.276,0.224-0.5,0.5-0.5s0.5,0.224,0.5,0.5v4
			C8.5,13.277,8.276,13.501,8,13.501z"/>
	</g>
	<g>
		<path class="st0" d="M6,50.501H4c-0.276,0-0.5-0.224-0.5-0.5s0.224-0.5,0.5-0.5h2c0.276,0,0.5,0.224,0.5,0.5
			S6.276,50.501,6,50.501z"/>
	</g>
	<g>
		<path class="st0" d="M15.5,50.501H8c-0.276,0-0.5-0.224-0.5-0.5s0.224-0.5,0.5-0.5h7.5c0.276,0,0.5,0.224,0.5,0.5
			S15.776,50.501,15.5,50.501z"/>
	</g>
	<g>
		<path class="st0" d="M60,50.501h-2c-0.276,0-0.5-0.224-0.5-0.5s0.224-0.5,0.5-0.5h2c0.276,0,0.5,0.224,0.5,0.5
			S60.276,50.501,60,50.501z"/>
	</g>
	<g>
		<path class="st0" d="M56,50.501h-7.5c-0.276,0-0.5-0.224-0.5-0.5s0.224-0.5,0.5-0.5H56c0.276,0,0.5,0.224,0.5,0.5
			S56.276,50.501,56,50.501z"/>
	</g>
</g>
</svg>
