<?xml version="1.0" encoding="utf-8"?>
<!-- Generator: Adobe Illustrator 22.0.0, SVG Export Plug-In . SVG Version: 6.00 Build 0)  -->
<svg version="1.1" id="Layer_1" xmlns="http://www.w3.org/2000/svg" xmlns:xlink="http://www.w3.org/1999/xlink" x="0px" y="0px"
	 viewBox="0 0 64 64" style="enable-background:new 0 0 64 64;" xml:space="preserve">
<style type="text/css">
	.st0{fill:#263238;}
	.st1{fill:#4FC3F7;}
	.st2{fill:#4DB6AC;}
	.st3{fill:#FF5252;}
	.st4{fill:#FFFFFF;}
	.st5{fill:#FFD740;}
	.st6{fill:#40C4FF;}
</style>
<g>
	<g>
		<path class="st0" d="M56.5,16h-4c-0.276,0-0.5-0.224-0.5-0.5s0.224-0.5,0.5-0.5h4c0.276,0,0.5,0.224,0.5,0.5S56.776,16,56.5,16z"
			/>
	</g>
	<g>
		<path class="st0" d="M51,12h-4c-0.276,0-0.5-0.224-0.5-0.5S46.724,11,47,11h4c0.276,0,0.5,0.224,0.5,0.5S51.276,12,51,12z"/>
	</g>
	<g>
		<path class="st0" d="M49,14c-0.276,0-0.5-0.224-0.5-0.5v-4C48.5,9.224,48.724,9,49,9s0.5,0.224,0.5,0.5v4
			C49.5,13.776,49.276,14,49,14z"/>
	</g>
	<g>
		<path class="st0" d="M54.5,18c-0.276,0-0.5-0.224-0.5-0.5v-4c0-0.276,0.224-0.5,0.5-0.5s0.5,0.224,0.5,0.5v4
			C55,17.776,54.776,18,54.5,18z"/>
	</g>
	<g>
		<path class="st0" d="M9.5,10.741h-2c-0.276,0-0.5-0.224-0.5-0.5s0.224-0.5,0.5-0.5h2c0.276,0,0.5,0.224,0.5,0.5
			S9.776,10.741,9.5,10.741z"/>
	</g>
	<g>
		<path class="st0" d="M21,10.741h-9.5c-0.276,0-0.5-0.224-0.5-0.5s0.224-0.5,0.5-0.5H21c0.276,0,0.5,0.224,0.5,0.5
			S21.276,10.741,21,10.741z"/>
	</g>
	<g>
		<path class="st0" d="M56.5,55h-2c-0.276,0-0.5-0.224-0.5-0.5s0.224-0.5,0.5-0.5h2c0.276,0,0.5,0.224,0.5,0.5S56.776,55,56.5,55z"
			/>
	</g>
	<g>
		<path class="st0" d="M52.5,55H43c-0.276,0-0.5-0.224-0.5-0.5S42.724,54,43,54h9.5c0.276,0,0.5,0.224,0.5,0.5S52.776,55,52.5,55z"
			/>
	</g>
	<g>
		<path class="st0" d="M32,54.997c-0.51,0-1.019-0.128-1.474-0.384l-17-9.59C12.585,44.492,12,43.491,12,42.41V22.331
			c0-1.081,0.585-2.082,1.526-2.613l17-9.59c0.909-0.512,2.039-0.512,2.948,0l17,9.59C51.416,20.249,52,21.25,52,22.331V42.41
			c0,1.081-0.584,2.082-1.526,2.613l0,0l-17,9.59C33.02,54.869,32.51,54.997,32,54.997z M32,10.743c-0.34,0-0.68,0.085-0.982,0.256
			l-17,9.59C13.39,20.942,13,21.61,13,22.331V42.41c0,0.721,0.39,1.389,1.018,1.742l17,9.59c0.605,0.342,1.359,0.342,1.965,0
			l17-9.59C50.61,43.798,51,43.131,51,42.41V22.331c0-0.721-0.39-1.389-1.017-1.742l-17-9.59C32.68,10.828,32.34,10.743,32,10.743z
			 M50.229,44.588h0.01H50.229z"/>
	</g>
	<g>
		<path class="st5" d="M32.246,13.176h0.005H32.246 M32,13.315l16.5,9.308v19.496L32,51.426l-16.5-9.308V22.623L32,13.315"/>
	</g>
	<g>
		<path class="st0" d="M32,43.5c-6.341,0-11.5-5.159-11.5-11.5S25.659,20.5,32,20.5S43.5,25.659,43.5,32S38.341,43.5,32,43.5z
			 M32,21.5c-5.79,0-10.5,4.71-10.5,10.5S26.21,42.5,32,42.5S42.5,37.79,42.5,32S37.79,21.5,32,21.5z"/>
	</g>
	<g>
		<path class="st0" d="M32,41.5c-5.238,0-9.5-4.262-9.5-9.5s4.262-9.5,9.5-9.5s9.5,4.262,9.5,9.5S37.238,41.5,32,41.5z M32,23.5
			c-4.687,0-8.5,3.813-8.5,8.5s3.813,8.5,8.5,8.5s8.5-3.813,8.5-8.5S36.687,23.5,32,23.5z"/>
	</g>
	<g>
		<path class="st0" d="M32,39.5c-0.276,0-0.5-0.224-0.5-0.5V25c0-0.276,0.224-0.5,0.5-0.5s0.5,0.224,0.5,0.5v14
			C32.5,39.276,32.276,39.5,32,39.5z"/>
	</g>
	<g>
		<path class="st0" d="M27.05,37.45c-0.128,0-0.256-0.049-0.354-0.146c-0.195-0.195-0.195-0.512,0-0.707l9.899-9.9
			c0.195-0.195,0.512-0.195,0.707,0s0.195,0.512,0,0.707l-9.899,9.9C27.306,37.401,27.178,37.45,27.05,37.45z"/>
	</g>
	<g>
		<path class="st0" d="M36.95,37.45c-0.128,0-0.256-0.049-0.354-0.146l-9.899-9.9c-0.195-0.195-0.195-0.512,0-0.707
			s0.512-0.195,0.707,0l9.899,9.9c0.195,0.195,0.195,0.512,0,0.707C37.206,37.401,37.078,37.45,36.95,37.45z"/>
	</g>
	<g>
		<path class="st0" d="M39,32.5H25c-0.276,0-0.5-0.224-0.5-0.5s0.224-0.5,0.5-0.5h14c0.276,0,0.5,0.224,0.5,0.5S39.276,32.5,39,32.5
			z"/>
	</g>
</g>
</svg>
