<?xml version="1.0" encoding="utf-8"?>
<!-- Generator: Adobe Illustrator 22.0.0, SVG Export Plug-In . SVG Version: 6.00 Build 0)  -->
<svg version="1.1" id="Layer_1" xmlns="http://www.w3.org/2000/svg" xmlns:xlink="http://www.w3.org/1999/xlink" x="0px" y="0px"
	 viewBox="0 0 64 64" style="enable-background:new 0 0 64 64;" xml:space="preserve">
<style type="text/css">
	.st0{fill:#263238;}
	.st1{fill:#4FC3F7;}
	.st2{fill:#4DB6AC;}
	.st3{fill:#FF5252;}
	.st4{fill:#FFFFFF;}
	.st5{fill:#FFD740;}
	.st6{fill:#40C4FF;}
</style>
<g>
	<g>
		<path class="st0" d="M56.5,15.999h-4c-0.276,0-0.5-0.224-0.5-0.5s0.224-0.5,0.5-0.5h4c0.276,0,0.5,0.224,0.5,0.5
			S56.776,15.999,56.5,15.999z"/>
	</g>
	<g>
		<path class="st0" d="M51,11.999h-4c-0.276,0-0.5-0.224-0.5-0.5s0.224-0.5,0.5-0.5h4c0.276,0,0.5,0.224,0.5,0.5
			S51.276,11.999,51,11.999z"/>
	</g>
	<g>
		<path class="st0" d="M49,13.999c-0.276,0-0.5-0.224-0.5-0.5v-4c0-0.276,0.224-0.5,0.5-0.5s0.5,0.224,0.5,0.5v4
			C49.5,13.775,49.276,13.999,49,13.999z"/>
	</g>
	<g>
		<path class="st0" d="M54.5,17.999c-0.276,0-0.5-0.224-0.5-0.5v-4c0-0.276,0.224-0.5,0.5-0.5s0.5,0.224,0.5,0.5v4
			C55,17.775,54.776,17.999,54.5,17.999z"/>
	</g>
	<g>
		<path class="st0" d="M9.5,10.74h-2c-0.276,0-0.5-0.224-0.5-0.5s0.224-0.5,0.5-0.5h2c0.276,0,0.5,0.224,0.5,0.5
			S9.776,10.74,9.5,10.74z"/>
	</g>
	<g>
		<path class="st0" d="M21,10.74h-9.5c-0.276,0-0.5-0.224-0.5-0.5s0.224-0.5,0.5-0.5H21c0.276,0,0.5,0.224,0.5,0.5
			S21.276,10.74,21,10.74z"/>
	</g>
	<g>
		<path class="st0" d="M56.5,55h-2c-0.276,0-0.5-0.224-0.5-0.5s0.224-0.5,0.5-0.5h2c0.276,0,0.5,0.224,0.5,0.5S56.776,55,56.5,55z"
			/>
	</g>
	<g>
		<path class="st0" d="M52.5,55H43c-0.276,0-0.5-0.224-0.5-0.5S42.724,54,43,54h9.5c0.276,0,0.5,0.224,0.5,0.5S52.776,55,52.5,55z"
			/>
	</g>
	<g>
		<path class="st0" d="M32,54.997c-0.51,0-1.02-0.128-1.475-0.385l-17-9.589C12.585,44.492,12,43.49,12,42.41V22.33
			c0-1.08,0.585-2.082,1.525-2.613l17-9.59c0.91-0.512,2.04-0.512,2.948,0l17.001,9.59C51.415,20.248,52,21.25,52,22.33v20.08
			c0,1.08-0.585,2.082-1.525,2.613l0,0l-17,9.589C33.02,54.869,32.51,54.997,32,54.997z M32,10.742c-0.34,0-0.68,0.085-0.983,0.256
			l-16.999,9.59C13.39,20.942,13,21.609,13,22.33v20.08c0,0.721,0.39,1.388,1.018,1.742l17,9.589c0.605,0.342,1.359,0.342,1.965,0
			l17-9.589C50.61,43.798,51,43.131,51,42.41V22.33c0-0.721-0.39-1.388-1.018-1.742l-17-9.59C32.68,10.827,32.34,10.742,32,10.742z
			 M50.229,44.588h0.01H50.229z"/>
	</g>
	<g>
		<path class="st1" d="M32.246,13.176h0.005H32.246 M32,13.314l16.5,9.308v19.496L32,51.426l-16.5-9.308V22.622L32,13.314"/>
	</g>
	<g>
		<path class="st0" d="M32,51.926c-0.276,0-0.5-0.224-0.5-0.5V28.77c0-0.276,0.224-0.5,0.5-0.5s0.5,0.224,0.5,0.5v22.656
			C32.5,51.702,32.276,51.926,32,51.926z"/>
	</g>
	<g>
		<path class="st0" d="M32,29.204c-0.109,0-0.218-0.035-0.309-0.106c-0.089-0.07-2.191-1.742-2.191-3.894
			c0-2.152,2.103-3.823,2.191-3.894c0.182-0.143,0.436-0.143,0.617,0c0.089,0.07,2.191,1.741,2.191,3.894
			c0,2.151-2.103,3.823-2.191,3.894C32.218,29.169,32.109,29.204,32,29.204z M32,22.373c-0.517,0.495-1.5,1.6-1.5,2.831
			c0,1.237,0.982,2.339,1.499,2.832c0.517-0.495,1.501-1.601,1.501-2.832S32.517,22.868,32,22.373z"/>
	</g>
	<g>
		<path class="st0" d="M34.218,31.536c-1.258,0-2.336-0.425-2.404-0.452c-0.214-0.086-0.341-0.307-0.309-0.534
			c0.016-0.112,0.413-2.769,2.276-3.845s4.362-0.091,4.468-0.049c0.214,0.086,0.341,0.307,0.309,0.534
			c-0.016,0.112-0.413,2.769-2.276,3.845C35.628,31.412,34.896,31.536,34.218,31.536z M32.578,30.285
			c0.688,0.199,2.138,0.499,3.203-0.115c1.071-0.619,1.534-2.021,1.703-2.715c-0.688-0.199-2.137-0.498-3.203,0.115
			C33.21,28.189,32.747,29.591,32.578,30.285z"/>
	</g>
	<g>
		<path class="st0" d="M29.782,31.536c-0.679,0-1.41-0.124-2.063-0.501c-1.863-1.076-2.261-3.732-2.276-3.845
			c-0.032-0.228,0.095-0.448,0.309-0.534c0.105-0.042,2.604-1.027,4.468,0.049c1.863,1.076,2.261,3.732,2.276,3.845
			c0.032,0.228-0.095,0.448-0.309,0.534C32.118,31.111,31.04,31.536,29.782,31.536z M26.517,27.454
			c0.171,0.695,0.636,2.1,1.702,2.716c1.065,0.614,2.515,0.315,3.202,0.116c-0.171-0.695-0.636-2.1-1.702-2.716
			C28.653,26.957,27.203,27.254,26.517,27.454z"/>
	</g>
	<g>
		<path class="st0" d="M34.218,38.036c-1.258,0-2.336-0.425-2.404-0.452c-0.214-0.086-0.341-0.307-0.309-0.534
			c0.016-0.112,0.413-2.769,2.276-3.845c1.863-1.075,4.362-0.091,4.468-0.049c0.214,0.086,0.341,0.307,0.309,0.534
			c-0.016,0.112-0.413,2.769-2.276,3.845C35.628,37.912,34.896,38.036,34.218,38.036z M32.578,36.785
			c0.688,0.199,2.138,0.498,3.203-0.115c1.071-0.619,1.534-2.021,1.703-2.715c-0.688-0.199-2.137-0.499-3.203,0.115
			C33.21,34.689,32.747,36.091,32.578,36.785z"/>
	</g>
	<g>
		<path class="st0" d="M29.782,38.036c-0.679,0-1.41-0.124-2.063-0.501c-1.863-1.076-2.261-3.732-2.276-3.845
			c-0.032-0.228,0.095-0.448,0.309-0.534c0.105-0.042,2.604-1.026,4.468,0.049c1.863,1.076,2.261,3.732,2.276,3.845
			c0.032,0.228-0.095,0.448-0.309,0.534C32.118,37.611,31.04,38.036,29.782,38.036z M26.517,33.954
			c0.171,0.695,0.636,2.1,1.702,2.716c1.065,0.613,2.515,0.316,3.202,0.116c-0.171-0.695-0.636-2.1-1.702-2.716
			C28.653,33.456,27.203,33.755,26.517,33.954z"/>
	</g>
	<g>
		<path class="st0" d="M34.218,44.536c-1.258,0-2.336-0.425-2.404-0.452c-0.214-0.086-0.341-0.307-0.309-0.534
			c0.016-0.112,0.413-2.769,2.276-3.845s4.362-0.091,4.468-0.049c0.214,0.086,0.341,0.307,0.309,0.534
			c-0.016,0.112-0.413,2.769-2.276,3.845C35.628,44.412,34.896,44.536,34.218,44.536z M32.578,43.285
			c0.688,0.2,2.138,0.499,3.203-0.115c1.071-0.619,1.534-2.021,1.703-2.715c-0.688-0.2-2.137-0.499-3.203,0.115
			C33.21,41.189,32.747,42.591,32.578,43.285z"/>
	</g>
	<g>
		<path class="st0" d="M29.782,44.536c-0.679,0-1.41-0.124-2.063-0.501c-1.863-1.076-2.261-3.732-2.276-3.845
			c-0.032-0.228,0.095-0.448,0.309-0.534c0.105-0.042,2.604-1.027,4.468,0.049c1.863,1.076,2.261,3.732,2.276,3.845
			c0.032,0.228-0.095,0.448-0.309,0.534C32.118,44.111,31.04,44.536,29.782,44.536z M26.517,40.454
			c0.171,0.695,0.636,2.1,1.702,2.716c1.065,0.614,2.515,0.315,3.202,0.116c-0.171-0.695-0.636-2.1-1.702-2.716
			C28.653,39.956,27.203,40.255,26.517,40.454z"/>
	</g>
</g>
</svg>
