<?xml version="1.0" encoding="utf-8"?>
<!-- Generator: Adobe Illustrator 22.0.0, SVG Export Plug-In . SVG Version: 6.00 Build 0)  -->
<svg version="1.1" id="Layer_1" xmlns="http://www.w3.org/2000/svg" xmlns:xlink="http://www.w3.org/1999/xlink" x="0px" y="0px"
	 viewBox="0 0 64 64" style="enable-background:new 0 0 64 64;" xml:space="preserve">
<style type="text/css">
	.st0{fill:#263238;}
	.st1{fill:#4FC3F7;}
	.st2{fill:#4DB6AC;}
	.st3{fill:#FF5252;}
	.st4{fill:#FFFFFF;}
	.st5{fill:#FFD740;}
	.st6{fill:#40C4FF;}
</style>
<g>
	<g>
		<path class="st0" d="M52.5,60.5h-41C9.019,60.5,7,58.481,7,56V14.5c0-1.654,1.346-3,3-3h36c1.654,0,3,1.346,3,3V56
			c0,1.93,1.57,3.5,3.5,3.5c0.276,0,0.5,0.224,0.5,0.5S52.776,60.5,52.5,60.5z M10,12.5c-1.103,0-2,0.897-2,2V56
			c0,1.93,1.57,3.5,3.5,3.5h38.175C48.653,58.675,48,57.412,48,56V14.5c0-1.103-0.897-2-2-2H10z"/>
	</g>
	<g>
		<path class="st0" d="M52.5,60.5c-0.276,0-0.5-0.224-0.5-0.5s0.224-0.5,0.5-0.5c1.93,0,3.5-1.57,3.5-3.5V42c0-1.103-0.897-2-2-2
			h-3.5c-0.276,0-0.5-0.224-0.5-0.5s0.224-0.5,0.5-0.5H54c1.654,0,3,1.346,3,3v14C57,58.481,54.981,60.5,52.5,60.5z"/>
	</g>
	<g>
		<path class="st0" d="M44.5,49.5h-33c-0.276,0-0.5-0.224-0.5-0.5s0.224-0.5,0.5-0.5h33c0.276,0,0.5,0.224,0.5,0.5
			S44.776,49.5,44.5,49.5z"/>
	</g>
	<g>
		<path class="st0" d="M44.5,54.5h-33c-0.276,0-0.5-0.224-0.5-0.5s0.224-0.5,0.5-0.5h33c0.276,0,0.5,0.224,0.5,0.5
			S44.776,54.5,44.5,54.5z"/>
	</g>
	<g>
		<path class="st0" d="M21.5,44.5h-10c-0.276,0-0.5-0.224-0.5-0.5s0.224-0.5,0.5-0.5h10c0.276,0,0.5,0.224,0.5,0.5
			S21.776,44.5,21.5,44.5z"/>
	</g>
	<g>
		<path class="st5" d="M12.5,22h31c0.552,0,1-0.448,1-1v-3c0-0.552-0.448-1-1-1h-31c-0.552,0-1,0.448-1,1v3
			C11.5,21.552,11.948,22,12.5,22z"/>
		<path class="st0" d="M43.5,22.5h-31c-0.827,0-1.5-0.673-1.5-1.5v-3c0-0.827,0.673-1.5,1.5-1.5h31c0.827,0,1.5,0.673,1.5,1.5v3
			C45,21.827,44.327,22.5,43.5,22.5z M12.5,17.5c-0.275,0-0.5,0.225-0.5,0.5v3c0,0.275,0.225,0.5,0.5,0.5h31
			c0.275,0,0.5-0.225,0.5-0.5v-3c0-0.275-0.225-0.5-0.5-0.5H12.5z"/>
	</g>
	<g>
		<path class="st0" d="M27,28.5H11.5c-0.276,0-0.5-0.224-0.5-0.5s0.224-0.5,0.5-0.5H27c0.276,0,0.5,0.224,0.5,0.5
			S27.276,28.5,27,28.5z"/>
	</g>
	<g>
		<path class="st0" d="M21.5,33.5h-10c-0.276,0-0.5-0.224-0.5-0.5s0.224-0.5,0.5-0.5h10c0.276,0,0.5,0.224,0.5,0.5
			S21.776,33.5,21.5,33.5z"/>
	</g>
	<g>
		<path class="st0" d="M21.5,38.5h-10c-0.276,0-0.5-0.224-0.5-0.5s0.224-0.5,0.5-0.5h10c0.276,0,0.5,0.224,0.5,0.5
			S21.776,38.5,21.5,38.5z"/>
	</g>
	<g>
		<path class="st0" d="M51,6.5h-4c-0.276,0-0.5-0.224-0.5-0.5s0.224-0.5,0.5-0.5h4c0.276,0,0.5,0.224,0.5,0.5S51.276,6.5,51,6.5z"/>
	</g>
	<g>
		<path class="st0" d="M49,8.5c-0.276,0-0.5-0.224-0.5-0.5V4c0-0.276,0.224-0.5,0.5-0.5s0.5,0.224,0.5,0.5v4
			C49.5,8.276,49.276,8.5,49,8.5z"/>
	</g>
	<g>
		<path class="st0" d="M56.5,11h-4c-0.276,0-0.5-0.224-0.5-0.5s0.224-0.5,0.5-0.5h4c0.276,0,0.5,0.224,0.5,0.5S56.776,11,56.5,11z"
			/>
	</g>
	<g>
		<path class="st0" d="M54.5,13c-0.276,0-0.5-0.224-0.5-0.5v-4C54,8.224,54.224,8,54.5,8S55,8.224,55,8.5v4
			C55,12.776,54.776,13,54.5,13z"/>
	</g>
	<g>
		<path class="st0" d="M52.511,32c-0.276,0-0.5-0.224-0.5-0.5v-12c0-0.276,0.224-0.5,0.5-0.5s0.5,0.224,0.5,0.5v12
			C53.011,31.776,52.787,32,52.511,32z"/>
	</g>
	<g>
		<path class="st0" d="M52.511,35c-0.276,0-0.5-0.224-0.5-0.5v-1c0-0.276,0.224-0.5,0.5-0.5s0.5,0.224,0.5,0.5v1
			C53.011,34.776,52.787,35,52.511,35z"/>
	</g>
	<g>
		<path class="st0" d="M37.784,46.5c-0.136,0-0.271-0.055-0.37-0.163l-2.813-3.094l-2.813,3.094
			c-0.185,0.204-0.501,0.219-0.707,0.033c-0.204-0.187-0.219-0.502-0.033-0.707l3.184-3.5c0.189-0.207,0.551-0.207,0.74,0l3.184,3.5
			c0.186,0.205,0.171,0.521-0.033,0.707C38.024,46.457,37.904,46.5,37.784,46.5z"/>
	</g>
	<g>
		<path class="st0" d="M34.601,47.5c-0.276,0-0.5-0.224-0.5-0.5v-4.5c0-0.276,0.224-0.5,0.5-0.5s0.5,0.224,0.5,0.5V47
			C35.101,47.276,34.877,47.5,34.601,47.5z"/>
	</g>
	<g>
		<path class="st2" d="M36.601,34.5c0,4.418-2,8-2,8s-2-3.582-2-8s2-8,2-8S36.601,30.081,36.601,34.5z"/>
		<path class="st0" d="M34.601,43c-0.182,0-0.349-0.098-0.437-0.256c-0.084-0.151-2.063-3.748-2.063-8.244
			c0-4.497,1.979-8.093,2.063-8.244c0.176-0.316,0.697-0.316,0.873,0c0.084,0.151,2.063,3.747,2.063,8.244
			c0,4.496-1.979,8.093-2.063,8.244C34.949,42.902,34.782,43,34.601,43z M34.601,27.657c-0.571,1.313-1.5,3.9-1.5,6.843
			c0,2.949,0.929,5.533,1.499,6.844c0.571-1.312,1.501-3.9,1.501-6.844C36.101,31.558,35.172,28.971,34.601,27.657z"/>
	</g>
	<g>
		<path class="st2" d="M38.601,44c-2.209,0-4-1.5-4-1.5s1.791-1.5,4-1.5c2.209,0,4,1.5,4,1.5S40.81,44,38.601,44z"/>
		<path class="st0" d="M38.601,44.5c-2.363,0-4.242-1.551-4.321-1.616c-0.113-0.096-0.179-0.235-0.179-0.384
			s0.065-0.288,0.179-0.384c0.079-0.065,1.958-1.616,4.321-1.616s4.242,1.551,4.321,1.616c0.113,0.096,0.179,0.235,0.179,0.384
			s-0.065,0.288-0.179,0.384C42.843,42.949,40.964,44.5,38.601,44.5z M35.47,42.5c0.653,0.409,1.822,1,3.131,1s2.478-0.591,3.131-1
			c-0.653-0.409-1.822-1-3.131-1S36.123,42.091,35.47,42.5z"/>
	</g>
	<g>
		<path class="st2" d="M30.601,44c2.209,0,4-1.5,4-1.5s-1.791-1.5-4-1.5s-4,1.5-4,1.5S28.392,44,30.601,44z"/>
		<path class="st0" d="M30.601,44.5c-2.363,0-4.242-1.551-4.321-1.616c-0.113-0.096-0.179-0.235-0.179-0.384
			s0.065-0.288,0.179-0.384c0.079-0.065,1.958-1.616,4.321-1.616s4.242,1.551,4.321,1.616c0.113,0.096,0.179,0.235,0.179,0.384
			s-0.065,0.288-0.179,0.384C34.843,42.949,32.964,44.5,30.601,44.5z M27.47,42.5c0.653,0.409,1.822,1,3.131,1s2.478-0.591,3.131-1
			c-0.653-0.409-1.822-1-3.131-1S28.123,42.091,27.47,42.5z"/>
	</g>
	<g>
		<path class="st2" d="M40.611,38.61c-2.734,2.734-6.01,3.889-6.01,3.889s1.155-3.277,3.889-6.01S44.5,32.6,44.5,32.6
			S43.345,35.877,40.611,38.61z"/>
		<path class="st0" d="M34.601,43c-0.13,0-0.258-0.051-0.354-0.146c-0.136-0.136-0.182-0.338-0.118-0.52
			c0.049-0.139,1.226-3.417,4.008-6.198c2.781-2.781,6.059-3.959,6.197-4.008c0.18-0.062,0.383-0.019,0.52,0.118
			c0.136,0.136,0.182,0.338,0.118,0.52c-0.049,0.139-1.226,3.417-4.007,6.198l0,0c-2.782,2.781-6.06,3.959-6.198,4.008
			C34.713,42.99,34.656,43,34.601,43z M43.54,33.561c-1.165,0.562-3.043,1.629-4.696,3.282s-2.719,3.53-3.282,4.696
			c1.166-0.563,3.043-1.63,4.696-3.282l0,0C41.915,36.6,42.979,34.725,43.54,33.561z M40.611,38.61h0.01H40.611z"/>
	</g>
	<g>
		<path class="st2" d="M28.59,38.61c2.734,2.734,6.01,3.889,6.01,3.889s-1.155-3.277-3.889-6.01s-6.01-3.889-6.01-3.889
			S25.857,35.877,28.59,38.61z"/>
		<path class="st0" d="M34.601,43c-0.056,0-0.112-0.01-0.166-0.028c-0.139-0.049-3.416-1.227-6.198-4.008l0,0
			c-2.781-2.781-3.958-6.06-4.007-6.198c-0.063-0.182-0.018-0.384,0.118-0.52c0.137-0.137,0.341-0.18,0.52-0.118
			c0.139,0.049,3.416,1.227,6.198,4.008c2.781,2.781,3.958,6.06,4.007,6.198c0.063,0.182,0.018,0.384-0.118,0.52
			C34.858,42.949,34.73,43,34.601,43z M28.943,38.257c1.653,1.653,3.531,2.719,4.696,3.282c-0.562-1.166-1.628-3.043-3.281-4.696
			s-3.531-2.719-4.696-3.282C26.225,34.727,27.29,36.604,28.943,38.257L28.943,38.257z"/>
	</g>
</g>
</svg>
