<?xml version="1.0" encoding="utf-8"?>
<!-- Generator: Adobe Illustrator 22.0.0, SVG Export Plug-In . SVG Version: 6.00 Build 0)  -->
<svg version="1.1" id="Layer_1" xmlns="http://www.w3.org/2000/svg" xmlns:xlink="http://www.w3.org/1999/xlink" x="0px" y="0px"
	 viewBox="0 0 64 64" style="enable-background:new 0 0 64 64;" xml:space="preserve">
<style type="text/css">
	.st0{fill:#263238;}
	.st1{fill:#4FC3F7;}
	.st2{fill:#4DB6AC;}
	.st3{fill:#FF5252;}
	.st4{fill:#FFFFFF;}
	.st5{fill:#FFD740;}
	.st6{fill:#40C4FF;}
</style>
<g>
	<g>
		<path class="st0" d="M50.75,17h-4c-0.276,0-0.5-0.224-0.5-0.5s0.224-0.5,0.5-0.5h4c0.276,0,0.5,0.224,0.5,0.5S51.026,17,50.75,17z
			"/>
	</g>
	<g>
		<path class="st0" d="M48.75,19c-0.276,0-0.5-0.224-0.5-0.5v-4c0-0.276,0.224-0.5,0.5-0.5s0.5,0.224,0.5,0.5v4
			C49.25,18.776,49.026,19,48.75,19z"/>
	</g>
	<g>
		<path class="st0" d="M55.75,22h-4c-0.276,0-0.5-0.224-0.5-0.5s0.224-0.5,0.5-0.5h4c0.276,0,0.5,0.224,0.5,0.5S56.026,22,55.75,22z
			"/>
	</g>
	<g>
		<path class="st0" d="M53.75,24c-0.276,0-0.5-0.224-0.5-0.5v-4c0-0.276,0.224-0.5,0.5-0.5s0.5,0.224,0.5,0.5v4
			C54.25,23.776,54.026,24,53.75,24z"/>
	</g>
	<g>
		<path class="st0" d="M12.75,45.5h-3c-3.033,0-5.5-2.468-5.5-5.5v-7c0-3.032,2.467-5.5,5.5-5.5h3c0.276,0,0.5,0.224,0.5,0.5
			s-0.224,0.5-0.5,0.5h-3c-2.481,0-4.5,2.019-4.5,4.5v7c0,2.481,2.019,4.5,4.5,4.5h3c0.276,0,0.5,0.224,0.5,0.5
			S13.026,45.5,12.75,45.5z"/>
	</g>
	<g>
		<path class="st0" d="M12.75,42.5h-2.5c-1.654,0-3-1.346-3-3v-6c0-1.654,1.346-3,3-3h2.5c0.276,0,0.5,0.224,0.5,0.5
			s-0.224,0.5-0.5,0.5h-2.5c-1.103,0-2,0.897-2,2v6c0,1.103,0.897,2,2,2h2.5c0.276,0,0.5,0.224,0.5,0.5S13.026,42.5,12.75,42.5z"/>
	</g>
	<g>
		<path class="st0" d="M43.75,31c-0.276,0-0.5-0.224-0.5-0.5v-4c0-0.275-0.224-0.5-0.5-0.5h-4c-0.276,0-0.5-0.224-0.5-0.5
			s0.224-0.5,0.5-0.5h4c0.827,0,1.5,0.673,1.5,1.5v4C44.25,30.776,44.026,31,43.75,31z"/>
	</g>
	<g>
		<path class="st0" d="M29.74,18c-0.062,0-0.126-0.012-0.188-0.036c-0.256-0.104-0.379-0.396-0.275-0.651l0.99-2.443
			c0.255-0.63,0.176-1.339-0.213-1.896l-1.429-2.048c-0.597-0.855-0.708-1.938-0.297-2.897l0.953-2.225
			c0.108-0.254,0.403-0.37,0.656-0.263c0.254,0.109,0.372,0.403,0.263,0.657l-0.953,2.224c-0.274,0.64-0.2,1.361,0.198,1.932
			l1.429,2.048c0.583,0.836,0.703,1.899,0.32,2.844l-0.99,2.443C30.125,17.882,29.937,18,29.74,18z"/>
	</g>
	<g>
		<path class="st0" d="M24.74,18c-0.062,0-0.126-0.012-0.188-0.036c-0.256-0.104-0.379-0.396-0.275-0.651l0.99-2.443
			c0.255-0.63,0.176-1.339-0.213-1.896l-1.429-2.048c-0.597-0.855-0.708-1.938-0.297-2.897l0.953-2.225
			c0.108-0.254,0.404-0.37,0.656-0.263c0.254,0.109,0.372,0.403,0.263,0.657l-0.953,2.224c-0.274,0.64-0.2,1.361,0.198,1.932
			l1.429,2.048c0.583,0.836,0.703,1.899,0.32,2.844l-0.99,2.443C25.125,17.882,24.937,18,24.74,18z"/>
	</g>
	<g>
		<path class="st0" d="M34.74,18c-0.062,0-0.126-0.012-0.188-0.036c-0.256-0.104-0.379-0.396-0.275-0.651l0.99-2.443
			c0.255-0.63,0.176-1.339-0.213-1.896l-1.429-2.048c-0.597-0.855-0.708-1.938-0.297-2.897l0.953-2.225
			c0.108-0.254,0.404-0.37,0.656-0.263c0.254,0.109,0.372,0.403,0.263,0.657l-0.953,2.224c-0.274,0.64-0.2,1.361,0.198,1.932
			l1.429,2.048c0.583,0.836,0.703,1.899,0.32,2.844l-0.99,2.443C35.125,17.882,34.937,18,34.74,18z"/>
	</g>
	<g>
		<path class="st0" d="M14.25,50.5h-9c-0.276,0-0.5-0.224-0.5-0.5s0.224-0.5,0.5-0.5h9c0.276,0,0.5,0.224,0.5,0.5
			S14.527,50.5,14.25,50.5z"/>
	</g>
	<g>
		<path class="st0" d="M3.5,50.5H2c-0.276,0-0.5-0.224-0.5-0.5s0.224-0.5,0.5-0.5h1.5C3.777,49.5,4,49.724,4,50S3.777,50.5,3.5,50.5
			z"/>
	</g>
	<g>
		<path class="st0" d="M58.75,32.5h-9c-0.276,0-0.5-0.224-0.5-0.5s0.224-0.5,0.5-0.5h9c0.276,0,0.5,0.224,0.5,0.5
			S59.026,32.5,58.75,32.5z"/>
	</g>
	<g>
		<path class="st0" d="M62,32.5h-1.5c-0.276,0-0.5-0.224-0.5-0.5s0.224-0.5,0.5-0.5H62c0.276,0,0.5,0.224,0.5,0.5
			S62.276,32.5,62,32.5z"/>
	</g>
	<g>
		<path class="st0" d="M52.934,57c-0.136,0-0.271-0.055-0.37-0.163l-2.813-3.094l-2.813,3.093c-0.185,0.207-0.502,0.22-0.707,0.034
			c-0.204-0.186-0.219-0.502-0.034-0.706l3.183-3.5c0.189-0.209,0.55-0.208,0.74-0.001l3.184,3.5
			c0.186,0.205,0.17,0.521-0.034,0.707C53.174,56.957,53.054,57,52.934,57z"/>
	</g>
	<g>
		<path class="st0" d="M49.75,58.5c-0.276,0-0.5-0.224-0.5-0.5v-5c0-0.276,0.224-0.5,0.5-0.5s0.5,0.224,0.5,0.5v5
			C50.25,58.276,50.026,58.5,49.75,58.5z"/>
	</g>
	<g>
		<path class="st2" d="M51.75,45c0,4.418-2,8-2,8s-2-3.582-2-8s2-8,2-8S51.75,40.581,51.75,45z"/>
		<path class="st0" d="M49.75,53.5c-0.181,0-0.348-0.098-0.437-0.256C49.229,53.093,47.25,49.496,47.25,45
			c0-4.497,1.979-8.093,2.063-8.244c0.177-0.316,0.696-0.316,0.873,0c0.084,0.151,2.063,3.747,2.063,8.244
			c0,4.496-1.979,8.093-2.063,8.244C50.098,53.402,49.931,53.5,49.75,53.5z M49.75,38.157c-0.571,1.313-1.5,3.9-1.5,6.843
			c0,2.949,0.928,5.533,1.5,6.844c0.571-1.312,1.5-3.9,1.5-6.844C51.25,42.058,50.321,39.471,49.75,38.157z"/>
	</g>
	<g>
		<path class="st2" d="M53.75,54.5c-2.209,0-4-1.5-4-1.5s1.791-1.5,4-1.5c2.209,0,4,1.5,4,1.5S55.959,54.5,53.75,54.5z"/>
		<path class="st0" d="M53.75,55c-2.364,0-4.242-1.551-4.321-1.616C49.315,53.288,49.25,53.148,49.25,53s0.065-0.288,0.179-0.384
			C49.508,52.551,51.386,51,53.75,51c2.364,0,4.242,1.551,4.321,1.617c0.113,0.095,0.179,0.235,0.179,0.383
			s-0.065,0.288-0.179,0.383C57.992,53.449,56.114,55,53.75,55z M50.619,53c0.653,0.409,1.823,1,3.131,1
			c1.315,0,2.481-0.59,3.132-0.999C56.229,52.591,55.06,52,53.75,52C52.442,52,51.272,52.591,50.619,53z"/>
	</g>
	<g>
		<path class="st2" d="M45.75,54.5c2.209,0,4-1.5,4-1.5s-1.791-1.5-4-1.5c-2.209,0-4,1.5-4,1.5S43.541,54.5,45.75,54.5z"/>
		<path class="st0" d="M45.75,55c-2.364,0-4.242-1.551-4.321-1.616C41.315,53.288,41.25,53.148,41.25,53s0.065-0.288,0.179-0.384
			C41.508,52.551,43.386,51,45.75,51c2.364,0,4.242,1.551,4.321,1.617c0.113,0.095,0.179,0.235,0.179,0.383
			s-0.065,0.288-0.179,0.383C49.992,53.449,48.114,55,45.75,55z M42.619,53c0.653,0.409,1.823,1,3.131,1
			c1.315,0,2.481-0.59,3.132-0.999C48.229,52.591,47.06,52,45.75,52C44.442,52,43.272,52.591,42.619,53z"/>
	</g>
	<g>
		<path class="st2" d="M55.761,49.111C53.027,51.844,49.75,53,49.75,53s1.155-3.277,3.889-6.01s6.01-3.889,6.01-3.889
			S58.494,46.377,55.761,49.111z"/>
		<path class="st0" d="M49.75,53.5c-0.13,0-0.258-0.051-0.354-0.146c-0.136-0.136-0.182-0.338-0.118-0.52
			c0.049-0.139,1.226-3.417,4.007-6.198c2.782-2.781,6.06-3.958,6.197-4.007c0.182-0.063,0.384-0.019,0.52,0.118
			c0.136,0.136,0.182,0.338,0.118,0.52c-0.049,0.139-1.225,3.416-4.007,6.197l0,0l0,0c-2.782,2.782-6.06,3.959-6.198,4.008
			C49.862,53.49,49.806,53.5,49.75,53.5z M58.69,44.061c-1.166,0.563-3.043,1.629-4.697,3.282c-1.653,1.653-2.719,3.53-3.282,4.696
			c1.166-0.563,3.043-1.629,4.696-3.282l0,0C57.064,47.1,58.128,45.225,58.69,44.061z"/>
	</g>
	<g>
		<path class="st2" d="M43.74,49.111C46.473,51.844,49.75,53,49.75,53s-1.155-3.277-3.889-6.01c-2.734-2.734-6.01-3.889-6.01-3.889
			S41.006,46.377,43.74,49.111z"/>
		<path class="st0" d="M49.75,53.5c-0.056,0-0.112-0.01-0.167-0.028c-0.138-0.049-3.415-1.226-6.197-4.008l0,0
			c-2.782-2.781-3.958-6.059-4.007-6.197c-0.064-0.182-0.018-0.384,0.118-0.52c0.135-0.137,0.337-0.182,0.52-0.118
			c0.138,0.049,3.416,1.226,6.198,4.007c2.782,2.781,3.958,6.06,4.007,6.198c0.064,0.182,0.018,0.384-0.118,0.52
			C50.008,53.449,49.88,53.5,49.75,53.5z M40.812,44.062c0.563,1.165,1.628,3.042,3.282,4.695l0,0
			c1.653,1.653,3.53,2.719,4.696,3.282c-0.563-1.166-1.628-3.043-3.282-4.696C43.854,45.689,41.977,44.624,40.812,44.062z"/>
	</g>
	<g>
		<path class="st0" d="M45.249,58.5H16.25c-1.103,0-2-0.897-2-2s0.897-2,2-2h24.862c0.276,0,0.5,0.224,0.5,0.5s-0.224,0.5-0.5,0.5
			H16.25c-0.551,0-1,0.448-1,1s0.449,1,1,1h28.882c0.149-0.036,0.309,0,0.432,0.115c0.155,0.138,0.217,0.363,0.144,0.557
			C45.634,58.366,45.456,58.5,45.249,58.5z"/>
	</g>
	<g>
		<path class="st0" d="M20.482,53.5c-0.093,0-0.187-0.025-0.271-0.08c-3.733-2.41-5.961-6.493-5.961-10.92V25c0-1.654,1.346-3,3-3
			h27c1.654,0,3,1.346,3,3v14.028c0,0.276-0.224,0.5-0.5,0.5s-0.5-0.224-0.5-0.5V25c0-1.103-0.897-2-2-2h-27c-1.103,0-2,0.897-2,2
			v17.5c0,4.086,2.058,7.854,5.504,10.08c0.232,0.149,0.298,0.459,0.148,0.691C20.807,53.419,20.646,53.5,20.482,53.5z"/>
	</g>
</g>
</svg>
