<?xml version="1.0" encoding="utf-8"?>
<!-- Generator: Adobe Illustrator 22.0.0, SVG Export Plug-In . SVG Version: 6.00 Build 0)  -->
<svg version="1.1" id="Layer_1" xmlns="http://www.w3.org/2000/svg" xmlns:xlink="http://www.w3.org/1999/xlink" x="0px" y="0px"
	 viewBox="0 0 64 64" style="enable-background:new 0 0 64 64;" xml:space="preserve">
<style type="text/css">
	.st0{fill:#263238;}
	.st1{fill:#4FC3F7;}
	.st2{fill:#4DB6AC;}
	.st3{fill:#FF5252;}
	.st4{fill:#FFFFFF;}
	.st5{fill:#FFD740;}
	.st6{fill:#40C4FF;}
</style>
<g>
	<g>
		<path class="st0" d="M38,30.5h-2c-0.276,0-0.5-0.224-0.5-0.5s0.224-0.5,0.5-0.5h2c0.276,0,0.5,0.224,0.5,0.5S38.277,30.5,38,30.5z
			"/>
	</g>
	<g>
		<path class="st0" d="M51,30.5H40c-0.276,0-0.5-0.224-0.5-0.5s0.224-0.5,0.5-0.5h11c0.276,0,0.5,0.224,0.5,0.5S51.277,30.5,51,30.5
			z"/>
	</g>
	<g>
		<path class="st1" d="M50.001,5c0-1.657,1.343-3,3-3s3,1.343,3,3c1.657,0,3,1.343,3,3s-1.343,3-3,3h-6c-1.657,0-3-1.343-3-3
			S48.344,5,50.001,5z"/>
	</g>
	<g>
		<path class="st0" d="M11,62.5c-0.276,0-0.5-0.224-0.5-0.5V7.5c0-1.103-0.897-2-2-2h-8C0.224,5.5,0,5.276,0,5s0.224-0.5,0.5-0.5h8
			c1.654,0,3,1.346,3,3V62C11.5,62.276,11.277,62.5,11,62.5z"/>
	</g>
	<g>
		<path class="st0" d="M32.5,62.5h-5c-0.827,0-1.5-0.673-1.5-1.5v-2c0-0.276,0.224-0.5,0.5-0.5S27,58.724,27,59v2
			c0,0.276,0.224,0.5,0.5,0.5h5c0.276,0,0.5-0.224,0.5-0.5v-1c0-0.276,0.224-0.5,0.5-0.5S34,59.724,34,60v1
			C34,61.827,33.328,62.5,32.5,62.5z"/>
	</g>
	<g>
		<path class="st0" d="M59.5,62.5h-5c-0.827,0-1.5-0.673-1.5-1.5v-1c0-0.276,0.224-0.5,0.5-0.5S54,59.724,54,60v1
			c0,0.276,0.224,0.5,0.5,0.5h5c0.276,0,0.5-0.224,0.5-0.5v-2c0-0.276,0.224-0.5,0.5-0.5S61,58.724,61,59v2
			C61,61.827,60.328,62.5,59.5,62.5z"/>
	</g>
	<g>
		<path class="st0" d="M56.51,58.5H30.492c-1.636,0-3.175-0.72-4.223-1.976c-1.048-1.255-1.481-2.899-1.188-4.508l0.555-3.053
			c0.26-1.427,1.501-2.463,2.951-2.463h29.827c1.451,0,2.692,1.036,2.952,2.463l0.555,3.053c0.292,1.609-0.141,3.252-1.189,4.508
			C59.684,57.78,58.145,58.5,56.51,58.5z M28.587,47.5c-0.967,0-1.794,0.69-1.968,1.642l-0.555,3.053
			c-0.239,1.317,0.115,2.661,0.973,3.688s2.117,1.617,3.455,1.617H56.51c1.338,0,2.597-0.589,3.455-1.617s1.212-2.372,0.973-3.688
			l-0.555-3.053c-0.173-0.952-1-1.642-1.968-1.642H28.587z"/>
	</g>
	<g>
		<path class="st0" d="M57.5,47.5h-28c-0.175,0-0.337-0.092-0.428-0.242c-0.09-0.15-0.096-0.336-0.014-0.491l4.297-8.165
			C33.875,37.614,34.893,37,36.01,37h14.981c1.118,0,2.135,0.614,2.655,1.603l4.297,8.165c0.082,0.155,0.076,0.341-0.014,0.491
			C57.838,47.408,57.676,47.5,57.5,47.5z M30.329,46.5h26.344l-3.911-7.432C52.415,38.409,51.736,38,50.991,38H36.01
			c-0.745,0-1.423,0.409-1.77,1.068L30.329,46.5z"/>
	</g>
	<g>
		<path class="st0" d="M52.532,44.5c-0.18,0-0.354-0.097-0.443-0.267l-1.842-3.5c-0.129-0.244-0.035-0.547,0.209-0.675
			c0.244-0.129,0.547-0.035,0.675,0.209l1.842,3.5c0.129,0.244,0.035,0.547-0.209,0.675C52.69,44.481,52.611,44.5,52.532,44.5z"/>
	</g>
	<g>
		<path class="st0" d="M48.5,55h-10c-0.208,0-0.395-0.129-0.468-0.324l-1.5-4c-0.058-0.154-0.036-0.326,0.057-0.46
			C36.683,50.081,36.836,50,37,50h13c0.164,0,0.317,0.081,0.411,0.215c0.093,0.135,0.115,0.307,0.057,0.46l-1.5,4
			C48.896,54.871,48.709,55,48.5,55z M38.847,54h9.307l1.125-3H37.722L38.847,54z"/>
	</g>
	<g>
		<path class="st0" d="M55,55.5c-1.654,0-3-1.346-3-3s1.346-3,3-3s3,1.346,3,3S56.655,55.5,55,55.5z M55,50.5c-1.103,0-2,0.897-2,2
			s0.897,2,2,2s2-0.897,2-2S56.104,50.5,55,50.5z"/>
	</g>
	<g>
		<path class="st0" d="M32,55.5c-1.654,0-3-1.346-3-3s1.346-3,3-3s3,1.346,3,3S33.655,55.5,32,55.5z M32,50.5c-1.103,0-2,0.897-2,2
			s0.897,2,2,2s2-0.897,2-2S33.104,50.5,32,50.5z"/>
	</g>
	<g>
		<path class="st0" d="M29.5,47.485H26c-0.827,0-1.5-0.673-1.5-1.5v-1c0-0.827,0.673-1.5,1.5-1.5h2.5c0.827,0,1.5,0.673,1.5,1.5v2
			C30,47.261,29.777,47.485,29.5,47.485z M26,44.485c-0.276,0-0.5,0.224-0.5,0.5v1c0,0.276,0.224,0.5,0.5,0.5h3v-1.5
			c0-0.276-0.224-0.5-0.5-0.5H26z"/>
	</g>
	<g>
		<path class="st0" d="M61,47.485h-3.5c-0.276,0-0.5-0.224-0.5-0.5v-2c0-0.827,0.673-1.5,1.5-1.5H61c0.827,0,1.5,0.673,1.5,1.5v1
			C62.5,46.812,61.828,47.485,61,47.485z M58,46.485h3c0.276,0,0.5-0.224,0.5-0.5v-1c0-0.276-0.224-0.5-0.5-0.5h-2.5
			c-0.276,0-0.5,0.224-0.5,0.5V46.485z"/>
	</g>
	<g>
		<circle class="st2" cx="24.001" cy="11" r="9"/>
		<path class="st0" d="M24,20.5c-5.238,0-9.5-4.262-9.5-9.5s4.262-9.5,9.5-9.5s9.5,4.262,9.5,9.5S29.239,20.5,24,20.5z M24,2.5
			c-4.687,0-8.5,3.813-8.5,8.5s3.813,8.5,8.5,8.5s8.5-3.813,8.5-8.5S28.688,2.5,24,2.5z"/>
	</g>
	<g>
		<path class="st3" d="M21.001,31h-10v-4h9c0.552,0,1,0.448,1,1V31z"/>
		<path class="st0" d="M21,31.5H11c-0.276,0-0.5-0.224-0.5-0.5v-4c0-0.276,0.224-0.5,0.5-0.5h9c0.827,0,1.5,0.673,1.5,1.5v3
			C21.5,31.276,21.277,31.5,21,31.5z M11.5,30.5h9V28c0-0.276-0.224-0.5-0.5-0.5h-8.5V30.5z"/>
	</g>
	<g>
		<rect x="11.001" y="43" class="st3" width="10" height="4"/>
		<path class="st0" d="M21,47.5H11c-0.276,0-0.5-0.224-0.5-0.5v-4c0-0.276,0.224-0.5,0.5-0.5h10c0.276,0,0.5,0.224,0.5,0.5v4
			C21.5,47.276,21.277,47.5,21,47.5z M11.5,46.5h9v-3h-9V46.5z"/>
	</g>
	<g>
		<path class="st0" d="M24.5,62.5H1c-0.276,0-0.5-0.224-0.5-0.5s0.224-0.5,0.5-0.5h23.5c0.276,0,0.5,0.224,0.5,0.5
			S24.777,62.5,24.5,62.5z"/>
	</g>
	<g>
		<path class="st0" d="M11,57.5c-0.064,0-0.129-0.012-0.191-0.038C10.622,57.385,10.5,57.202,10.5,57V27c0-0.276,0.224-0.5,0.5-0.5
			h9c0.827,0,1.5,0.673,1.5,1.5v19c0,0.133-0.053,0.26-0.146,0.354l-10,10C11.258,57.449,11.13,57.5,11,57.5z M11.5,27.5v28.293l9-9
			V28c0-0.276-0.224-0.5-0.5-0.5H11.5z"/>
	</g>
	<g>
		<path class="st4" d="M27.89,12.732c-1.562,1.562-3.889,1.768-3.889,1.768s0.206-2.327,1.768-3.889s3.889-1.768,3.889-1.768
			S29.452,11.17,27.89,12.732z"/>
		<path class="st0" d="M24,15c-0.132,0-0.259-0.052-0.354-0.146c-0.104-0.104-0.158-0.25-0.145-0.397
			c0.009-0.103,0.241-2.527,1.913-4.199s4.096-1.903,4.199-1.912c0.148-0.013,0.293,0.04,0.397,0.145s0.158,0.25,0.145,0.397
			c-0.009,0.103-0.241,2.527-1.913,4.199l0,0c-1.671,1.671-4.096,1.903-4.199,1.912C24.03,15,24.015,15,24,15z M29.043,9.458
			c-0.751,0.173-1.996,0.582-2.921,1.507s-1.334,2.169-1.507,2.921c0.751-0.173,1.996-0.582,2.921-1.507
			C28.461,11.454,28.871,10.209,29.043,9.458z M27.89,12.732h0.01H27.89z"/>
	</g>
	<g>
		<path class="st4" d="M20.112,12.732c1.562,1.562,3.889,1.768,3.889,1.768s-0.206-2.327-1.768-3.889
			c-1.562-1.562-3.889-1.768-3.889-1.768S18.549,11.17,20.112,12.732z"/>
		<path class="st0" d="M24,15c-0.015,0-0.029,0-0.044-0.002c-0.103-0.009-2.527-0.241-4.199-1.912l0,0
			c-1.671-1.672-1.903-4.096-1.912-4.199c-0.013-0.147,0.04-0.293,0.145-0.397c0.105-0.104,0.253-0.158,0.397-0.145
			c0.103,0.009,2.527,0.241,4.199,1.912s1.903,4.096,1.912,4.199c0.013,0.147-0.04,0.293-0.145,0.397C24.26,14.948,24.132,15,24,15z
			 M20.465,12.379c0.93,0.93,2.172,1.337,2.922,1.508c-0.172-0.751-0.582-1.997-1.507-2.923c-0.925-0.925-2.169-1.334-2.921-1.507
			C19.131,10.209,19.54,11.454,20.465,12.379L20.465,12.379z"/>
	</g>
	<g>
		<path class="st0" d="M20.818,16.5c-0.188,0-0.368-0.106-0.453-0.287c-0.118-0.25-0.011-0.548,0.239-0.666l3.183-1.5
			c0.136-0.063,0.292-0.063,0.426,0l3.184,1.5c0.25,0.118,0.357,0.416,0.239,0.665c-0.117,0.25-0.415,0.358-0.665,0.239L24,15.053
			l-2.97,1.399C20.961,16.485,20.889,16.5,20.818,16.5z"/>
	</g>
	<g>
		<path class="st0" d="M24,17.5c-0.276,0-0.5-0.224-0.5-0.5v-2.5c0-0.276,0.224-0.5,0.5-0.5s0.5,0.224,0.5,0.5V17
			C24.5,17.276,24.277,17.5,24,17.5z"/>
	</g>
	<g>
		<path class="st0" d="M15,11.5h-4c-0.276,0-0.5-0.224-0.5-0.5s0.224-0.5,0.5-0.5h4c0.276,0,0.5,0.224,0.5,0.5S15.277,11.5,15,11.5z
			"/>
	</g>
	<g>
		<path class="st0" d="M59.5,30.5h-4c-0.276,0-0.5-0.224-0.5-0.5s0.224-0.5,0.5-0.5h4c0.276,0,0.5,0.224,0.5,0.5
			S59.777,30.5,59.5,30.5z"/>
	</g>
	<g>
		<path class="st0" d="M63.5,26.5h-4c-0.276,0-0.5-0.224-0.5-0.5s0.224-0.5,0.5-0.5h4c0.276,0,0.5,0.224,0.5,0.5
			S63.777,26.5,63.5,26.5z"/>
	</g>
	<g>
		<path class="st0" d="M61.5,28.5c-0.276,0-0.5-0.224-0.5-0.5v-4c0-0.276,0.224-0.5,0.5-0.5S62,23.724,62,24v4
			C62,28.276,61.777,28.5,61.5,28.5z"/>
	</g>
	<g>
		<path class="st0" d="M57.5,32.5c-0.276,0-0.5-0.224-0.5-0.5v-4c0-0.276,0.224-0.5,0.5-0.5S58,27.724,58,28v4
			C58,32.276,57.777,32.5,57.5,32.5z"/>
	</g>
	<g>
		<path class="st0" d="M51.5,62.5h-16c-0.276,0-0.5-0.224-0.5-0.5s0.224-0.5,0.5-0.5h16c0.276,0,0.5,0.224,0.5,0.5
			S51.777,62.5,51.5,62.5z"/>
	</g>
	<g>
		<path class="st0" d="M63.5,62.5h-1c-0.276,0-0.5-0.224-0.5-0.5s0.224-0.5,0.5-0.5h1c0.276,0,0.5,0.224,0.5,0.5
			S63.777,62.5,63.5,62.5z"/>
	</g>
	<g>
		<path class="st4" d="M25.501,9.5c0,2.761-1.5,5-1.5,5s-1.5-2.239-1.5-5s1.5-5,1.5-5S25.501,6.739,25.501,9.5z"/>
		<path class="st0" d="M24,15c-0.167,0-0.323-0.083-0.416-0.222C23.521,14.682,22,12.38,22,9.5s1.52-5.182,1.584-5.278
			c0.186-0.277,0.646-0.277,0.831,0C24.48,4.318,26,6.62,26,9.5s-1.52,5.182-1.584,5.278C24.323,14.917,24.167,15,24,15z
			 M24.001,5.524C23.583,6.369,23,7.844,23,9.5c0,1.662,0.582,3.133,0.999,3.976C24.417,12.631,25,11.156,25,9.5
			C25,7.838,24.419,6.367,24.001,5.524z"/>
	</g>
</g>
</svg>
