<?xml version="1.0" encoding="utf-8"?>
<!-- Generator: Adobe Illustrator 22.0.0, SVG Export Plug-In . SVG Version: 6.00 Build 0)  -->
<svg version="1.1" id="Layer_1" xmlns="http://www.w3.org/2000/svg" xmlns:xlink="http://www.w3.org/1999/xlink" x="0px" y="0px"
	 viewBox="0 0 64 64" style="enable-background:new 0 0 64 64;" xml:space="preserve">
<style type="text/css">
	.st0{fill:#263238;}
	.st1{fill:#4FC3F7;}
	.st2{fill:#4DB6AC;}
	.st3{fill:#FF5252;}
	.st4{fill:#FFFFFF;}
	.st5{fill:#FFD740;}
	.st6{fill:#40C4FF;}
</style>
<g>
	<g>
		<path class="st5" d="M51,14.751l0,29H13V22.56c-4.13-0.76-7.446-3.822-8.575-7.81H2v32h60v-32H51z"/>
	</g>
	<g>
		<path class="st0" d="M57,52.251H7c-3.032,0-5.5-2.468-5.5-5.5v-32c0-1.757,0.822-3.369,2.256-4.423
			c0.221-0.162,0.534-0.117,0.699,0.107c0.163,0.223,0.115,0.535-0.107,0.699C3.174,11.997,2.5,13.315,2.5,14.751v32
			c0,2.481,2.019,4.5,4.5,4.5h50c2.481,0,4.5-2.019,4.5-4.5v-32c0-2.481-2.019-4.5-4.5-4.5h-4c-0.276,0-0.5-0.224-0.5-0.5
			s0.224-0.5,0.5-0.5h4c3.032,0,5.5,2.468,5.5,5.5v32C62.5,49.783,60.032,52.251,57,52.251z"/>
	</g>
	<g>
		<path class="st0" d="M26,57.751c-0.276,0-0.5-0.224-0.5-0.5v-3.5c0-0.276,0.224-0.5,0.5-0.5s0.5,0.224,0.5,0.5v3.5
			C26.5,57.527,26.276,57.751,26,57.751z"/>
	</g>
	<g>
		<path class="st0" d="M38,57.751c-0.276,0-0.5-0.224-0.5-0.5v-3.5c0-0.276,0.224-0.5,0.5-0.5s0.5,0.224,0.5,0.5v3.5
			C38.5,57.527,38.276,57.751,38,57.751z"/>
	</g>
	<g>
		<path class="st0" d="M42,63.751H22c-0.827,0-1.5-0.673-1.5-1.5v-2c0-0.827,0.673-1.5,1.5-1.5h20c0.827,0,1.5,0.673,1.5,1.5v2
			C43.5,63.078,42.827,63.751,42,63.751z M22,59.751c-0.275,0-0.5,0.225-0.5,0.5v2c0,0.275,0.225,0.5,0.5,0.5h20
			c0.275,0,0.5-0.225,0.5-0.5v-2c0-0.275-0.225-0.5-0.5-0.5H22z"/>
	</g>
	<g>
		<path class="st0" d="M62,47.251H2c-0.276,0-0.5-0.224-0.5-0.5s0.224-0.5,0.5-0.5h60c0.276,0,0.5,0.224,0.5,0.5
			S62.276,47.251,62,47.251z"/>
	</g>
	<g>
		<path class="st0" d="M4.425,15.251H2c-0.276,0-0.5-0.224-0.5-0.5s0.224-0.5,0.5-0.5h2.425c0.276,0,0.5,0.224,0.5,0.5
			S4.701,15.251,4.425,15.251z"/>
	</g>
	<g>
		<path class="st0" d="M62,15.251h-9c-0.276,0-0.5-0.224-0.5-0.5s0.224-0.5,0.5-0.5h9c0.276,0,0.5,0.224,0.5,0.5
			S62.276,15.251,62,15.251z"/>
	</g>
	<g>
		<path class="st0" d="M3.5,59.001h-1c-0.276,0-0.5-0.224-0.5-0.5s0.224-0.5,0.5-0.5h1c0.276,0,0.5,0.224,0.5,0.5
			S3.776,59.001,3.5,59.001z"/>
	</g>
	<g>
		<path class="st0" d="M16,59.001H5.5c-0.276,0-0.5-0.224-0.5-0.5s0.224-0.5,0.5-0.5H16c0.276,0,0.5,0.224,0.5,0.5
			S16.276,59.001,16,59.001z"/>
	</g>
	<g>
		<path class="st0" d="M61.5,59.001h-1c-0.276,0-0.5-0.224-0.5-0.5s0.224-0.5,0.5-0.5h1c0.276,0,0.5,0.224,0.5,0.5
			S61.776,59.001,61.5,59.001z"/>
	</g>
	<g>
		<path class="st0" d="M58.5,59.001H48c-0.276,0-0.5-0.224-0.5-0.5s0.224-0.5,0.5-0.5h10.5c0.276,0,0.5,0.224,0.5,0.5
			S58.776,59.001,58.5,59.001z"/>
	</g>
	<g>
		<path class="st0" d="M59,23.251c-0.276,0-0.5-0.224-0.5-0.5v-4.5H54c-0.276,0-0.5-0.224-0.5-0.5s0.224-0.5,0.5-0.5h5
			c0.276,0,0.5,0.224,0.5,0.5v5C59.5,23.027,59.276,23.251,59,23.251z"/>
	</g>
	<g>
		<path class="st0" d="M30,15.251c-1.379,0-2.5-1.121-2.5-2.5c0-0.276,0.224-0.5,0.5-0.5s0.5,0.224,0.5,0.5
			c0,0.827,0.673,1.5,1.5,1.5s1.5-0.673,1.5-1.5v-5c0-0.276,0.224-0.5,0.5-0.5s0.5,0.224,0.5,0.5v5
			C32.5,14.13,31.379,15.251,30,15.251z"/>
	</g>
	<g>
		<path class="st0" d="M37,15.251c-1.654,0-3-1.346-3-3v-2c0-1.654,1.346-3,3-3s3,1.346,3,3v2C40,13.905,38.654,15.251,37,15.251z
			 M37,8.251c-1.103,0-2,0.897-2,2v2c0,1.103,0.897,2,2,2s2-0.897,2-2v-2C39,9.148,38.103,8.251,37,8.251z"/>
	</g>
	<g>
		<path class="st0" d="M44.25,11.751H42c-0.276,0-0.5-0.224-0.5-0.5v-3.5c0-0.276,0.224-0.5,0.5-0.5h2.25
			c1.24,0,2.25,1.01,2.25,2.25S45.49,11.751,44.25,11.751z M42.5,10.751h1.75c0.689,0,1.25-0.561,1.25-1.25s-0.561-1.25-1.25-1.25
			H42.5V10.751z"/>
	</g>
	<g>
		<path class="st0" d="M45.25,15.251H42c-0.276,0-0.5-0.224-0.5-0.5v-3.5c0-0.276,0.224-0.5,0.5-0.5h3.25
			c1.24,0,2.25,1.01,2.25,2.25S46.49,15.251,45.25,15.251z M42.5,14.251h2.75c0.689,0,1.25-0.561,1.25-1.25s-0.561-1.25-1.25-1.25
			H42.5V14.251z"/>
	</g>
	<g>
		<circle class="st2" cx="15" cy="11.751" r="9"/>
		<path class="st0" d="M15,21.251c-5.238,0-9.5-4.262-9.5-9.5s4.262-9.5,9.5-9.5s9.5,4.262,9.5,9.5S20.238,21.251,15,21.251z
			 M15,3.251c-4.687,0-8.5,3.813-8.5,8.5s3.813,8.5,8.5,8.5s8.5-3.813,8.5-8.5S19.687,3.251,15,3.251z"/>
	</g>
	<g>
		<path class="st0" d="M51,44.251c-0.276,0-0.5-0.224-0.5-0.5V3.256c0-1.103-0.897-2-2-2L15.333,1.251c-0.276,0-0.5-0.224-0.5-0.5
			s0.224-0.5,0.5-0.5l0,0L48.5,0.256c1.654,0,3,1.346,3,3v40.495C51.5,44.027,51.276,44.251,51,44.251z"/>
	</g>
	<g>
		<path class="st0" d="M13,44.251c-0.276,0-0.5-0.224-0.5-0.5v-21.19c0-0.276,0.224-0.5,0.5-0.5s0.5,0.224,0.5,0.5v21.19
			C13.5,44.027,13.276,44.251,13,44.251z"/>
	</g>
	<g>
		<path class="st4" d="M18.889,13.483C17.327,15.045,15,15.251,15,15.251s0.206-2.327,1.768-3.889s3.889-1.768,3.889-1.768
			S20.451,11.921,18.889,13.483z"/>
		<path class="st0" d="M15,15.751c-0.132,0-0.26-0.053-0.354-0.146c-0.104-0.104-0.157-0.25-0.145-0.397
			c0.009-0.103,0.241-2.527,1.912-4.199c1.672-1.671,4.097-1.903,4.199-1.912c0.15-0.006,0.293,0.04,0.397,0.145
			s0.157,0.25,0.145,0.397c-0.009,0.103-0.241,2.527-1.912,4.199l0,0c-1.672,1.671-4.097,1.903-4.199,1.912
			C15.029,15.75,15.015,15.751,15,15.751z M20.044,10.208c-0.751,0.172-1.997,0.581-2.923,1.507
			c-0.93,0.931-1.337,2.172-1.508,2.922c0.751-0.172,1.997-0.581,2.923-1.507C19.466,12.2,19.873,10.958,20.044,10.208z
			 M18.89,13.483h0.01H18.89z"/>
	</g>
	<g>
		<path class="st4" d="M11.111,13.483C12.673,15.045,15,15.251,15,15.251s-0.206-2.327-1.768-3.889S9.343,9.594,9.343,9.594
			S9.549,11.921,11.111,13.483z"/>
		<path class="st0" d="M15,15.751c-0.015,0-0.029-0.001-0.044-0.002c-0.103-0.009-2.527-0.241-4.198-1.912
			C9.086,12.165,8.854,9.74,8.846,9.638C8.833,9.49,8.886,9.345,8.99,9.24s0.255-0.15,0.397-0.145
			c0.103,0.009,2.526,0.241,4.198,1.912c1.672,1.672,1.903,4.097,1.912,4.199c0.013,0.147-0.04,0.293-0.145,0.397
			C15.26,15.698,15.132,15.751,15,15.751z M9.958,10.208c0.173,0.752,0.581,1.996,1.507,2.922c0.93,0.93,2.172,1.337,2.921,1.508
			c-0.172-0.751-0.581-1.997-1.507-2.923C11.953,10.79,10.71,10.381,9.958,10.208z"/>
	</g>
	<g>
		<path class="st0" d="M18.184,17.251c-0.071,0-0.145-0.016-0.213-0.048L15,15.804l-2.97,1.399
			c-0.249,0.116-0.548,0.012-0.665-0.239c-0.118-0.249-0.011-0.548,0.239-0.665l3.183-1.5c0.135-0.064,0.291-0.064,0.426,0
			l3.184,1.5c0.25,0.117,0.357,0.415,0.239,0.665C18.551,17.146,18.371,17.251,18.184,17.251z"/>
	</g>
	<g>
		<path class="st0" d="M15,18.251c-0.276,0-0.5-0.224-0.5-0.5v-2.5c0-0.276,0.224-0.5,0.5-0.5s0.5,0.224,0.5,0.5v2.5
			C15.5,18.027,15.276,18.251,15,18.251z"/>
	</g>
	<g>
		<path class="st4" d="M16.5,10.251c0,2.761-1.5,5-1.5,5s-1.5-2.239-1.5-5s1.5-5,1.5-5S16.5,7.489,16.5,10.251z"/>
		<path class="st0" d="M15,15.751c-0.167,0-0.322-0.083-0.415-0.222C14.52,15.433,13,13.132,13,10.251s1.52-5.182,1.585-5.278
			c0.186-0.277,0.645-0.277,0.83,0C15.48,5.069,17,7.37,17,10.251s-1.52,5.182-1.585,5.278C15.322,15.668,15.167,15.751,15,15.751z
			 M15,6.276c-0.418,0.845-1,2.319-1,3.975s0.582,3.13,1,3.975c0.418-0.845,1-2.319,1-3.975S15.418,7.121,15,6.276z"/>
	</g>
	<g>
		<path class="st0" d="M29.115,24.251H18c-0.276,0-0.5-0.224-0.5-0.5s0.224-0.5,0.5-0.5h11.115c0.276,0,0.5,0.224,0.5,0.5
			S29.392,24.251,29.115,24.251z"/>
	</g>
	<g>
		<path class="st0" d="M29.115,29.251H18c-0.276,0-0.5-0.224-0.5-0.5s0.224-0.5,0.5-0.5h11.115c0.276,0,0.5,0.224,0.5,0.5
			S29.392,29.251,29.115,29.251z"/>
	</g>
	<g>
		<path class="st0" d="M46,34.501H18c-0.276,0-0.5-0.224-0.5-0.5s0.224-0.5,0.5-0.5h28c0.276,0,0.5,0.224,0.5,0.5
			S46.276,34.501,46,34.501z"/>
	</g>
	<g>
		<path class="st0" d="M46,39.501H18c-0.276,0-0.5-0.224-0.5-0.5s0.224-0.5,0.5-0.5h28c0.276,0,0.5,0.224,0.5,0.5
			S46.276,39.501,46,39.501z"/>
	</g>
	<g>
		<path class="st0" d="M46,29.251H34.115c-0.276,0-0.5-0.224-0.5-0.5v-5.25c0-0.276,0.224-0.5,0.5-0.5H46c0.276,0,0.5,0.224,0.5,0.5
			v5.25C46.5,29.027,46.276,29.251,46,29.251z M34.615,28.251H45.5v-4.25H34.615V28.251z"/>
	</g>
</g>
</svg>
