<?xml version="1.0" encoding="utf-8"?>
<!-- Generator: Adobe Illustrator 22.0.0, SVG Export Plug-In . SVG Version: 6.00 Build 0)  -->
<svg version="1.1" id="Layer_1" xmlns="http://www.w3.org/2000/svg" xmlns:xlink="http://www.w3.org/1999/xlink" x="0px" y="0px"
	 viewBox="0 0 64 64" style="enable-background:new 0 0 64 64;" xml:space="preserve">
<style type="text/css">
	.st0{fill:#263238;}
	.st1{fill:#4FC3F7;}
	.st2{fill:#4DB6AC;}
	.st3{fill:#FF5252;}
	.st4{fill:#FFFFFF;}
	.st5{fill:#FFD740;}
	.st6{fill:#40C4FF;}
</style>
<g>
	<g>
		<path class="st0" d="M47.501,60.499h-31c-1.654,0-3-1.346-3-3v-38.5c0-0.276,0.224-0.5,0.5-0.5h36c0.276,0,0.5,0.224,0.5,0.5v38.5
			C50.501,59.153,49.155,60.499,47.501,60.499z M14.5,19.499v38c0,1.103,0.897,2,2,2h31c1.103,0,2-0.897,2-2v-38H14.5z"/>
	</g>
	<g>
		<path class="st0" d="M50.001,19.499H14c-0.276,0-0.5-0.224-0.5-0.5v-6c0-1.654,1.346-3,3-3h31c1.654,0,3,1.346,3,3v6
			C50.501,19.275,50.277,19.499,50.001,19.499z M14.5,18.499h35v-5.5c0-1.103-0.897-2-2-2h-31c-1.103,0-2,0.897-2,2V18.499z"/>
	</g>
	<g>
		<path class="st0" d="M35.184,42.999c-0.136,0-0.271-0.055-0.37-0.164L32,39.742l-2.813,3.093c-0.186,0.206-0.502,0.22-0.707,0.034
			s-0.219-0.502-0.034-0.706l3.183-3.5c0.19-0.209,0.55-0.209,0.74,0l3.183,3.5c0.186,0.204,0.171,0.521-0.034,0.706
			C35.424,42.956,35.304,42.999,35.184,42.999z"/>
	</g>
	<g>
		<path class="st0" d="M32,44.499c-0.276,0-0.5-0.224-0.5-0.5v-5c0-0.276,0.224-0.5,0.5-0.5s0.5,0.224,0.5,0.5v5
			C32.5,44.275,32.277,44.499,32,44.499z"/>
	</g>
	<g>
		<path class="st2" d="M34.001,30.999c0,4.418-2,8-2,8s-2-3.582-2-8s2-8,2-8S34.001,26.581,34.001,30.999z"/>
		<path class="st0" d="M32,39.499L32,39.499c-0.181,0-0.348-0.098-0.437-0.256c-0.084-0.151-2.063-3.747-2.063-8.244
			c0-4.496,1.979-8.093,2.063-8.244c0.177-0.316,0.696-0.316,0.873,0c0.084,0.151,2.064,3.748,2.064,8.244
			c0,4.497-1.979,8.093-2.064,8.244C32.349,39.401,32.182,39.499,32,39.499z M32,24.157c-0.571,1.312-1.5,3.899-1.5,6.842
			s0.929,5.53,1.5,6.843c0.571-1.312,1.5-3.899,1.5-6.843C33.501,28.057,32.572,25.47,32,24.157z"/>
	</g>
	<g>
		<path class="st2" d="M36.001,40.499c-2.209,0-4-1.5-4-1.5s1.791-1.5,4-1.5c2.209,0,4,1.5,4,1.5S38.21,40.499,36.001,40.499z"/>
		<path class="st0" d="M36.001,40.999c-2.364,0-4.243-1.551-4.322-1.617c-0.113-0.095-0.179-0.235-0.179-0.383
			s0.065-0.288,0.179-0.383c0.079-0.066,1.958-1.617,4.322-1.617c2.363,0,4.242,1.551,4.321,1.616
			c0.113,0.096,0.179,0.235,0.179,0.384s-0.065,0.288-0.179,0.384C40.243,39.448,38.364,40.999,36.001,40.999z M32.868,38.998
			c0.653,0.41,1.823,1.001,3.133,1.001c1.309,0,2.478-0.591,3.131-1c-0.653-0.409-1.822-1-3.131-1
			C34.686,37.999,33.519,38.589,32.868,38.998z"/>
	</g>
	<g>
		<path class="st2" d="M28.001,40.499c2.209,0,4-1.5,4-1.5s-1.791-1.5-4-1.5s-4,1.5-4,1.5S25.791,40.499,28.001,40.499z"/>
		<path class="st0" d="M28,40.999c-2.364,0-4.242-1.551-4.321-1.616c-0.114-0.096-0.179-0.235-0.179-0.384s0.065-0.288,0.179-0.384
			c0.079-0.065,1.957-1.616,4.321-1.616s4.242,1.551,4.321,1.616c0.114,0.096,0.179,0.235,0.179,0.384s-0.065,0.288-0.179,0.384
			C32.243,39.448,30.364,40.999,28,40.999z M24.87,38.999c0.653,0.409,1.823,1,3.131,1s2.478-0.591,3.131-1
			c-0.653-0.409-1.823-1-3.131-1S25.523,38.59,24.87,38.999z"/>
	</g>
	<g>
		<path class="st2" d="M38.011,35.11c-2.734,2.734-6.01,3.889-6.01,3.889s1.155-3.277,3.889-6.01S41.9,29.1,41.9,29.1
			S40.745,32.376,38.011,35.11z"/>
		<path class="st0" d="M32,39.499c-0.13,0-0.258-0.051-0.354-0.146c-0.136-0.136-0.182-0.338-0.118-0.52
			c0.049-0.139,1.226-3.416,4.007-6.197c2.781-2.782,6.06-3.959,6.198-4.008c0.179-0.062,0.383-0.019,0.52,0.118
			c0.136,0.136,0.182,0.338,0.118,0.52c-0.049,0.139-1.227,3.417-4.008,6.198s-6.06,3.958-6.198,4.007
			C32.112,39.489,32.056,39.499,32,39.499z M40.94,30.06c-1.165,0.563-3.044,1.629-4.697,3.283
			c-1.657,1.657-2.722,3.532-3.283,4.696c1.166-0.563,3.044-1.629,4.697-3.282C39.314,33.1,40.379,31.224,40.94,30.06z"/>
	</g>
	<g>
		<path class="st2" d="M25.99,35.11c2.734,2.734,6.01,3.889,6.01,3.889s-1.155-3.277-3.889-6.01s-6.01-3.889-6.01-3.889
			S23.256,32.376,25.99,35.11z"/>
		<path class="st0" d="M32,39.499c-0.056,0-0.112-0.01-0.166-0.028c-0.138-0.049-3.416-1.226-6.198-4.007l0,0l0,0
			c-2.782-2.781-3.958-6.06-4.007-6.198c-0.064-0.182-0.018-0.384,0.118-0.52c0.136-0.138,0.337-0.182,0.52-0.118
			c0.138,0.049,3.416,1.226,6.198,4.008c2.782,2.781,3.958,6.059,4.007,6.197c0.064,0.182,0.018,0.384-0.118,0.52
			C32.259,39.448,32.131,39.499,32,39.499z M23.062,30.061c0.563,1.166,1.628,3.043,3.282,4.696l0,0
			c1.653,1.653,3.53,2.719,4.696,3.281c-0.563-1.165-1.628-3.042-3.282-4.695S24.228,30.623,23.062,30.061z"/>
	</g>
	<g>
		<path class="st0" d="M36.001,16.499h-8c-0.827,0-1.5-0.673-1.5-1.5v-1c0-0.827,0.673-1.5,1.5-1.5h8c0.827,0,1.5,0.673,1.5,1.5v1
			C37.501,15.826,36.828,16.499,36.001,16.499z M28,13.499c-0.276,0-0.5,0.225-0.5,0.5v1c0,0.275,0.224,0.5,0.5,0.5h8
			c0.275,0,0.5-0.225,0.5-0.5v-1c0-0.275-0.225-0.5-0.5-0.5H28z"/>
	</g>
	<g>
		<path class="st5" d="M41.001,56.999h-18c-0.552,0-1-0.448-1-1v-7c0-0.552,0.448-1,1-1h18c0.552,0,1,0.448,1,1v7
			C42.001,56.552,41.553,56.999,41.001,56.999z"/>
		<path class="st0" d="M41.001,57.499H23c-0.827,0-1.5-0.673-1.5-1.5v-7c0-0.827,0.673-1.5,1.5-1.5h18c0.827,0,1.5,0.673,1.5,1.5v7
			C42.501,56.826,41.828,57.499,41.001,57.499z M23,48.499c-0.276,0-0.5,0.225-0.5,0.5v7c0,0.275,0.224,0.5,0.5,0.5h18
			c0.275,0,0.5-0.225,0.5-0.5v-7c0-0.275-0.225-0.5-0.5-0.5H23z"/>
	</g>
	<g>
		<path class="st0" d="M37.001,51.499H27c-0.276,0-0.5-0.224-0.5-0.5s0.224-0.5,0.5-0.5h10c0.276,0,0.5,0.224,0.5,0.5
			S37.277,51.499,37.001,51.499z"/>
	</g>
	<g>
		<path class="st0" d="M34.501,54.499h-5c-0.276,0-0.5-0.224-0.5-0.5s0.224-0.5,0.5-0.5h5c0.276,0,0.5,0.224,0.5,0.5
			S34.777,54.499,34.501,54.499z"/>
	</g>
	<g>
		<path class="st0" d="M58.501,10.999h-4c-0.276,0-0.5-0.224-0.5-0.5s0.224-0.5,0.5-0.5h4c0.276,0,0.5,0.224,0.5,0.5
			S58.777,10.999,58.501,10.999z"/>
	</g>
	<g>
		<path class="st0" d="M54.001,6.499h-4c-0.276,0-0.5-0.224-0.5-0.5s0.224-0.5,0.5-0.5h4c0.276,0,0.5,0.224,0.5,0.5
			S54.277,6.499,54.001,6.499z"/>
	</g>
	<g>
		<path class="st0" d="M52.001,8.499c-0.276,0-0.5-0.224-0.5-0.5v-4c0-0.276,0.224-0.5,0.5-0.5s0.5,0.224,0.5,0.5v4
			C52.501,8.275,52.277,8.499,52.001,8.499z"/>
	</g>
	<g>
		<path class="st0" d="M56.501,12.999c-0.276,0-0.5-0.224-0.5-0.5v-4c0-0.276,0.224-0.5,0.5-0.5s0.5,0.224,0.5,0.5v4
			C57.001,12.775,56.777,12.999,56.501,12.999z"/>
	</g>
	<g>
		<path class="st0" d="M63.501,35.999h-1c-0.276,0-0.5-0.224-0.5-0.5s0.224-0.5,0.5-0.5h1c0.276,0,0.5,0.224,0.5,0.5
			S63.777,35.999,63.501,35.999z"/>
	</g>
	<g>
		<path class="st0" d="M60.501,35.999h-7.5c-0.276,0-0.5-0.224-0.5-0.5s0.224-0.5,0.5-0.5h7.5c0.276,0,0.5,0.224,0.5,0.5
			S60.777,35.999,60.501,35.999z"/>
	</g>
	<g>
		<path class="st0" d="M1.5,35.999h-1c-0.276,0-0.5-0.224-0.5-0.5s0.224-0.5,0.5-0.5h1c0.276,0,0.5,0.224,0.5,0.5
			S1.777,35.999,1.5,35.999z"/>
	</g>
	<g>
		<path class="st0" d="M11,35.999H3.5c-0.276,0-0.5-0.224-0.5-0.5s0.224-0.5,0.5-0.5H11c0.276,0,0.5,0.224,0.5,0.5
			S11.277,35.999,11,35.999z"/>
	</g>
	<g>
		<path class="st0" d="M47.001,27.499c-0.276,0-0.5-0.224-0.5-0.5v-4.5h-4.5c-0.276,0-0.5-0.224-0.5-0.5s0.224-0.5,0.5-0.5h5
			c0.276,0,0.5,0.224,0.5,0.5v5C47.501,27.275,47.277,27.499,47.001,27.499z"/>
	</g>
</g>
</svg>
