<?xml version="1.0" encoding="utf-8"?>
<!-- Generator: Adobe Illustrator 22.0.0, SVG Export Plug-In . SVG Version: 6.00 Build 0)  -->
<svg version="1.1" id="Layer_1" xmlns="http://www.w3.org/2000/svg" xmlns:xlink="http://www.w3.org/1999/xlink" x="0px" y="0px"
	 viewBox="0 0 64 64" style="enable-background:new 0 0 64 64;" xml:space="preserve">
<style type="text/css">
	.st0{fill:#263238;}
	.st1{fill:#4FC3F7;}
	.st2{fill:#4DB6AC;}
	.st3{fill:#FF5252;}
	.st4{fill:#FFFFFF;}
	.st5{fill:#FFD740;}
	.st6{fill:#40C4FF;}
</style>
<g>
	<g>
		<path class="st0" d="M32,59c-0.276,0-0.5-0.224-0.5-0.5V49c0-0.276,0.224-0.5,0.5-0.5s0.5,0.224,0.5,0.5v9.5
			C32.5,58.776,32.276,59,32,59z"/>
	</g>
	<g>
		<path class="st2" d="M18.919,39.868C24.777,45.726,32,48,32,48s-2.274-7.224-8.132-13.081s-13.081-8.132-13.081-8.132
			S13.061,34.01,18.919,39.868z"/>
		<path class="st0" d="M32,48.5c-0.05,0-0.101-0.008-0.15-0.023c-0.3-0.094-7.408-2.377-13.284-8.255l0,0l0,0
			c-5.878-5.876-8.161-12.984-8.255-13.284c-0.057-0.178-0.009-0.372,0.123-0.504c0.131-0.132,0.323-0.181,0.504-0.123
			c0.3,0.094,7.408,2.377,13.284,8.255c5.878,5.876,8.161,12.984,8.255,13.284c0.057,0.178,0.009,0.372-0.123,0.504
			C32.259,48.449,32.131,48.5,32,48.5z M11.622,27.622c0.841,2.156,3.211,7.453,7.65,11.893l0,0
			c4.444,4.445,9.737,6.812,11.893,7.65c-0.841-2.156-3.211-7.453-7.65-11.893C19.07,30.827,13.777,28.461,11.622,27.622z"/>
	</g>
	<g>
		<path class="st2" d="M45.082,39.868C39.224,45.726,32,48,32,48s2.274-7.224,8.132-13.081s13.081-8.132,13.081-8.132
			S50.94,34.01,45.082,39.868z"/>
		<path class="st0" d="M32,48.5c-0.131,0-0.259-0.051-0.354-0.146c-0.132-0.132-0.18-0.326-0.123-0.504
			c0.094-0.3,2.378-7.408,8.255-13.284c5.877-5.878,12.985-8.161,13.285-8.255c0.181-0.059,0.373-0.01,0.504,0.123
			c0.132,0.132,0.18,0.326,0.123,0.504c-0.094,0.3-2.378,7.408-8.255,13.284C39.559,46.1,32.45,48.383,32.15,48.477
			C32.101,48.492,32.05,48.5,32,48.5z M52.379,27.622c-2.156,0.841-7.453,3.211-11.894,7.65c-4.444,4.444-6.812,9.737-7.65,11.893
			c2.156-0.841,7.453-3.211,11.894-7.65C49.173,35.07,51.54,29.777,52.379,27.622z"/>
	</g>
	<g>
		<path class="st2" d="M22,51.5c5.523,0,10-2.5,10-2.5s-4.477-2.5-10-2.5S12,49,12,49S16.477,51.5,22,51.5z"/>
		<path class="st0" d="M22,52c-5.588,0-10.057-2.459-10.244-2.563C11.598,49.349,11.5,49.182,11.5,49s0.098-0.349,0.256-0.437
			C11.943,48.459,16.412,46,22,46c5.589,0,10.057,2.459,10.244,2.563C32.402,48.651,32.5,48.818,32.5,49s-0.098,0.349-0.256,0.437
			C32.057,49.541,27.589,52,22,52z M13.138,49c1.554,0.701,4.959,2,8.862,2s7.308-1.299,8.861-2c-1.554-0.701-4.958-2-8.861-2
			C18.089,47,14.689,48.298,13.138,49z"/>
	</g>
	<g>
		<path class="st2" d="M42,51.5c5.523,0,10-2.5,10-2.5s-4.477-2.5-10-2.5S32,49,32,49S36.477,51.5,42,51.5z"/>
		<path class="st0" d="M42,52c-5.588,0-10.057-2.459-10.244-2.563C31.598,49.349,31.5,49.182,31.5,49s0.098-0.349,0.256-0.437
			C31.943,48.459,36.412,46,42,46c5.589,0,10.057,2.459,10.244,2.563C52.402,48.651,52.5,48.818,52.5,49s-0.098,0.349-0.256,0.437
			C52.057,49.541,47.589,52,42,52z M33.138,49c1.554,0.701,4.959,2,8.862,2s7.308-1.299,8.861-2c-1.554-0.701-4.958-2-8.861-2
			C38.089,47,34.689,48.298,33.138,49z"/>
	</g>
	<g>
		<path class="st0" d="M61,42.75h-2c-0.276,0-0.5-0.224-0.5-0.5s0.224-0.5,0.5-0.5h2c0.276,0,0.5,0.224,0.5,0.5
			S61.276,42.75,61,42.75z"/>
	</g>
	<g>
		<path class="st0" d="M57,42.75h-8c-0.276,0-0.5-0.224-0.5-0.5s0.224-0.5,0.5-0.5h8c0.276,0,0.5,0.224,0.5,0.5
			S57.276,42.75,57,42.75z"/>
	</g>
	<g>
		<path class="st0" d="M5,42.75H3c-0.276,0-0.5-0.224-0.5-0.5s0.224-0.5,0.5-0.5h2c0.276,0,0.5,0.224,0.5,0.5S5.276,42.75,5,42.75z"
			/>
	</g>
	<g>
		<path class="st0" d="M15,42.75H7c-0.276,0-0.5-0.224-0.5-0.5s0.224-0.5,0.5-0.5h8c0.276,0,0.5,0.224,0.5,0.5
			S15.276,42.75,15,42.75z"/>
	</g>
	<g>
		<path class="st0" d="M23.615,22.5h-4c-0.276,0-0.5-0.224-0.5-0.5s0.224-0.5,0.5-0.5h4c0.276,0,0.5,0.224,0.5,0.5
			S23.892,22.5,23.615,22.5z"/>
	</g>
	<g>
		<path class="st0" d="M18.615,18h-4c-0.276,0-0.5-0.224-0.5-0.5s0.224-0.5,0.5-0.5h4c0.276,0,0.5,0.224,0.5,0.5
			S18.892,18,18.615,18z"/>
	</g>
	<g>
		<path class="st0" d="M16.615,20c-0.276,0-0.5-0.224-0.5-0.5v-4c0-0.276,0.224-0.5,0.5-0.5s0.5,0.224,0.5,0.5v4
			C17.115,19.776,16.892,20,16.615,20z"/>
	</g>
	<g>
		<path class="st0" d="M21.615,24.5c-0.276,0-0.5-0.224-0.5-0.5v-4c0-0.276,0.224-0.5,0.5-0.5s0.5,0.224,0.5,0.5v4
			C22.115,24.276,21.892,24.5,21.615,24.5z"/>
	</g>
	<g>
		<path class="st2" d="M28,30.5c0,9.389,4,17,4,17s4-7.611,4-17s-4-17-4-17S28,21.111,28,30.5z"/>
		<path class="st0" d="M32,48c-0.186,0-0.356-0.103-0.442-0.268C31.517,47.655,27.5,39.903,27.5,30.5s4.017-17.155,4.058-17.232
			c0.172-0.33,0.713-0.33,0.885,0C32.483,13.345,36.5,21.097,36.5,30.5s-4.017,17.155-4.058,17.232C32.356,47.897,32.186,48,32,48z
			 M32,14.665c-1.029,2.295-3.5,8.558-3.5,15.835c0,7.285,2.47,13.542,3.5,15.835c1.029-2.295,3.5-8.558,3.5-15.835
			C35.5,23.215,33.03,16.958,32,14.665z"/>
	</g>
	<g>
		<circle class="st5" cx="46.5" cy="13.5" r="8"/>
		<path class="st0" d="M46.5,22c-4.687,0-8.5-3.813-8.5-8.5S41.813,5,46.5,5S55,8.813,55,13.5S51.187,22,46.5,22z M46.5,6
			C42.364,6,39,9.364,39,13.5s3.364,7.5,7.5,7.5s7.5-3.364,7.5-7.5S50.636,6,46.5,6z"/>
	</g>
	<g>
		<path class="st0" d="M46.5,11.5c-0.276,0-0.5-0.224-0.5-0.5V9.5C46,9.224,46.224,9,46.5,9S47,9.224,47,9.5V11
			C47,11.276,46.776,11.5,46.5,11.5z"/>
	</g>
	<g>
		<path class="st0" d="M46.5,18c-0.276,0-0.5-0.224-0.5-0.5V16c0-0.276,0.224-0.5,0.5-0.5S47,15.724,47,16v1.5
			C47,17.776,46.776,18,46.5,18z"/>
	</g>
	<g>
		<path class="st0" d="M47.25,16.5H44.5c-0.276,0-0.5-0.224-0.5-0.5s0.224-0.5,0.5-0.5h2.75c0.413,0,0.75-0.337,0.75-0.75
			S47.663,14,47.25,14h-1.5C44.785,14,44,13.215,44,12.25s0.785-1.75,1.75-1.75H48c0.276,0,0.5,0.224,0.5,0.5s-0.224,0.5-0.5,0.5
			h-2.25c-0.413,0-0.75,0.337-0.75,0.75S45.337,13,45.75,13h1.5c0.965,0,1.75,0.785,1.75,1.75S48.215,16.5,47.25,16.5z"/>
	</g>
</g>
</svg>
