<?xml version="1.0" encoding="utf-8"?>
<!-- Generator: Adobe Illustrator 22.0.0, SVG Export Plug-In . SVG Version: 6.00 Build 0)  -->
<svg version="1.1" id="Layer_1" xmlns="http://www.w3.org/2000/svg" xmlns:xlink="http://www.w3.org/1999/xlink" x="0px" y="0px"
	 viewBox="0 0 64 64" style="enable-background:new 0 0 64 64;" xml:space="preserve">
<style type="text/css">
	.st0{fill:#263238;}
	.st1{fill:#4FC3F7;}
	.st2{fill:#4DB6AC;}
	.st3{fill:#FF5252;}
	.st4{fill:#FFFFFF;}
	.st5{fill:#FFD740;}
	.st6{fill:#40C4FF;}
</style>
<g>
	<g>
		<path class="st0" d="M47,33.499c-0.184,0-0.36-0.102-0.448-0.276c-0.124-0.247-0.023-0.547,0.224-0.671l3.895-1.947l1.429-1.905
			c0.166-0.221,0.479-0.266,0.7-0.101c0.221,0.166,0.266,0.479,0.1,0.7l-1.5,2c-0.046,0.062-0.107,0.112-0.176,0.147l-4,2
			C47.152,33.482,47.076,33.499,47,33.499z"/>
	</g>
	<g>
		<path class="st0" d="M54,36.499c-0.17,0-0.335-0.087-0.429-0.243l-3-5c-0.142-0.236-0.065-0.544,0.171-0.686
			c0.236-0.144,0.544-0.064,0.686,0.172l3,5c0.142,0.236,0.065,0.544-0.171,0.686C54.177,36.477,54.088,36.499,54,36.499z"/>
	</g>
	<g>
		<path class="st3" d="M32,17.999c-8.284,0-15,6.716-15,15s6.716,15,15,15s15-6.716,15-15S40.284,17.999,32,17.999z M32,44.999
			c-6.627,0-12-5.373-12-12s5.373-12,12-12s12,5.373,12,12S38.628,44.999,32,44.999z"/>
		<path class="st0" d="M32,48.499c-8.547,0-15.5-6.953-15.5-15.5s6.953-15.5,15.5-15.5s15.5,6.953,15.5,15.5
			S40.547,48.499,32,48.499z M32,18.499c-7.995,0-14.5,6.505-14.5,14.5s6.505,14.5,14.5,14.5s14.5-6.505,14.5-14.5
			S39.995,18.499,32,18.499z M32,45.499c-6.893,0-12.5-5.607-12.5-12.5s5.607-12.5,12.5-12.5s12.5,5.607,12.5,12.5
			S38.893,45.499,32,45.499z M32,21.499c-6.341,0-11.5,5.159-11.5,11.5s5.159,11.5,11.5,11.5s11.5-5.159,11.5-11.5
			S38.341,21.499,32,21.499z"/>
	</g>
	<g>
		<path class="st0" d="M41,33.499c-0.276,0-0.5-0.224-0.5-0.5c0-4.687-3.813-8.5-8.5-8.5c-0.276,0-0.5-0.224-0.5-0.5
			s0.224-0.5,0.5-0.5c5.238,0,9.5,4.262,9.5,9.5C41.5,33.275,41.276,33.499,41,33.499z"/>
	</g>
	<g>
		<path class="st0" d="M58.5,56.499h-2c-0.276,0-0.5-0.224-0.5-0.5s0.224-0.5,0.5-0.5h2c0.276,0,0.5,0.224,0.5,0.5
			S58.776,56.499,58.5,56.499z"/>
	</g>
	<g>
		<path class="st0" d="M54.5,56.499h-13c-0.276,0-0.5-0.224-0.5-0.5s0.224-0.5,0.5-0.5h13c0.276,0,0.5,0.224,0.5,0.5
			S54.776,56.499,54.5,56.499z"/>
	</g>
	<g>
		<path class="st0" d="M7.5,10.499h-2c-0.276,0-0.5-0.224-0.5-0.5s0.224-0.5,0.5-0.5h2c0.276,0,0.5,0.224,0.5,0.5
			S7.776,10.499,7.5,10.499z"/>
	</g>
	<g>
		<path class="st0" d="M22.5,10.499h-13c-0.276,0-0.5-0.224-0.5-0.5s0.224-0.5,0.5-0.5h13c0.276,0,0.5,0.224,0.5,0.5
			S22.776,10.499,22.5,10.499z"/>
	</g>
	<g>
		<path class="st0" d="M32,51.499c-15.546,0-27.893-17.471-28.41-18.214c-0.12-0.172-0.12-0.4,0-0.572
			C4.107,31.97,16.454,14.499,32,14.499S59.893,31.97,60.41,32.713c0.12,0.172,0.12,0.4,0,0.572
			C59.893,34.028,47.546,51.499,32,51.499z M4.617,32.999c1.686,2.289,13.422,17.5,27.383,17.5s25.697-15.211,27.383-17.5
			c-1.686-2.289-13.422-17.5-27.383-17.5S6.303,30.71,4.617,32.999z"/>
	</g>
	<g>
		<path class="st0" d="M53,10.499h-4c-0.276,0-0.5-0.224-0.5-0.5s0.224-0.5,0.5-0.5h4c0.276,0,0.5,0.224,0.5,0.5
			S53.276,10.499,53,10.499z"/>
	</g>
	<g>
		<path class="st0" d="M51,12.499c-0.276,0-0.5-0.224-0.5-0.5v-4c0-0.276,0.224-0.5,0.5-0.5s0.5,0.224,0.5,0.5v4
			C51.5,12.275,51.276,12.499,51,12.499z"/>
	</g>
	<g>
		<path class="st0" d="M60,14.999h-4c-0.276,0-0.5-0.224-0.5-0.5s0.224-0.5,0.5-0.5h4c0.276,0,0.5,0.224,0.5,0.5
			S60.276,14.999,60,14.999z"/>
	</g>
	<g>
		<path class="st0" d="M58,16.999c-0.276,0-0.5-0.224-0.5-0.5v-4c0-0.276,0.224-0.5,0.5-0.5s0.5,0.224,0.5,0.5v4
			C58.5,16.775,58.276,16.999,58,16.999z"/>
	</g>
	<g>
		<path class="st0" d="M60,33.499h-4c-0.167,0-0.323-0.084-0.416-0.223l-1-1.5c-0.153-0.229-0.091-0.54,0.139-0.693
			c0.23-0.154,0.54-0.091,0.693,0.139l0.852,1.277H60c0.276,0,0.5,0.224,0.5,0.5S60.276,33.499,60,33.499z"/>
	</g>
	<g>
		<path class="st0" d="M51.9,39.633c-0.162,0-0.32-0.078-0.417-0.223l-0.852-1.277H48.9c-0.276,0-0.5-0.224-0.5-0.5
			s0.224-0.5,0.5-0.5h2c0.167,0,0.323,0.084,0.416,0.223l1,1.5c0.153,0.229,0.091,0.54-0.139,0.693
			C52.092,39.605,51.996,39.633,51.9,39.633z"/>
	</g>
	<g>
		<path class="st0" d="M50.9,38.133c-0.276,0-0.5-0.224-0.5-0.5v-2c0-0.276,0.224-0.5,0.5-0.5s0.5,0.224,0.5,0.5v2
			C51.4,37.909,51.176,38.133,50.9,38.133z"/>
	</g>
	<g>
		<path class="st0" d="M11.5,37.499c-0.104,0-0.209-0.032-0.299-0.1c-0.221-0.166-0.266-0.479-0.1-0.7l1.5-2
			c0.028-0.038,0.062-0.071,0.1-0.101l4-3c0.22-0.166,0.534-0.121,0.7,0.101c0.166,0.221,0.121,0.534-0.1,0.7l-3.943,2.957
			L11.9,37.299C11.802,37.43,11.652,37.499,11.5,37.499z"/>
	</g>
	<g>
		<path class="st0" d="M13,35.499c-0.17,0-0.335-0.087-0.429-0.243l-3-5c-0.142-0.236-0.065-0.544,0.171-0.686
			c0.237-0.144,0.544-0.065,0.686,0.172l3,5c0.142,0.236,0.065,0.544-0.171,0.686C13.177,35.477,13.088,35.499,13,35.499z"/>
	</g>
	<g>
		<path class="st0" d="M9,34.999c-0.162,0-0.32-0.078-0.417-0.223l-0.852-1.277H4c-0.276,0-0.5-0.224-0.5-0.5s0.224-0.5,0.5-0.5h4
			c0.167,0,0.323,0.084,0.416,0.223l1,1.5c0.153,0.229,0.091,0.54-0.139,0.693C9.192,34.972,9.096,34.999,9,34.999z"/>
	</g>
	<g>
		<path class="st0" d="M15.101,28.866h-2c-0.167,0-0.323-0.084-0.416-0.223l-1-1.5c-0.153-0.229-0.091-0.54,0.139-0.693
			s0.541-0.092,0.693,0.139l0.852,1.277h1.732c0.276,0,0.5,0.224,0.5,0.5S15.377,28.866,15.101,28.866z"/>
	</g>
	<g>
		<path class="st0" d="M13.101,30.866c-0.276,0-0.5-0.224-0.5-0.5v-2c0-0.276,0.224-0.5,0.5-0.5s0.5,0.224,0.5,0.5v2
			C13.601,30.643,13.377,30.866,13.101,30.866z"/>
	</g>
</g>
</svg>
