<?xml version="1.0" encoding="utf-8"?>
<!-- Generator: Adobe Illustrator 22.0.0, SVG Export Plug-In . SVG Version: 6.00 Build 0)  -->
<svg version="1.1" id="Layer_1" xmlns="http://www.w3.org/2000/svg" xmlns:xlink="http://www.w3.org/1999/xlink" x="0px" y="0px"
	 viewBox="0 0 64 64" style="enable-background:new 0 0 64 64;" xml:space="preserve">
<style type="text/css">
	.st0{fill:#263238;}
	.st1{fill:#4FC3F7;}
	.st2{fill:#4DB6AC;}
	.st3{fill:#FF5252;}
	.st4{fill:#FFFFFF;}
	.st5{fill:#FFD740;}
	.st6{fill:#40C4FF;}
</style>
<g>
	<g>
		<path class="st0" d="M18.216,54.501c-0.12,0-0.241-0.043-0.336-0.13c-0.204-0.187-0.219-0.502-0.034-0.707l3.184-3.5
			c0.095-0.104,0.229-0.163,0.37-0.163l0,0c0.141,0,0.275,0.06,0.37,0.164l3.183,3.5c0.186,0.204,0.17,0.521-0.034,0.706
			c-0.204,0.186-0.52,0.172-0.707-0.034l-2.813-3.093l-2.813,3.094C18.487,54.446,18.352,54.501,18.216,54.501z"/>
	</g>
	<g>
		<path class="st0" d="M21.399,56.001c-0.276,0-0.5-0.224-0.5-0.5v-5c0-0.276,0.224-0.5,0.5-0.5s0.5,0.224,0.5,0.5v5
			C21.899,55.777,21.676,56.001,21.399,56.001z"/>
	</g>
	<g>
		<path class="st2" d="M23.399,42.501c0,4.418-2,8-2,8s-2-3.582-2-8s2-8,2-8S23.399,38.083,23.399,42.501z"/>
		<path class="st0" d="M21.399,51.001c-0.181,0-0.348-0.098-0.437-0.256c-0.084-0.151-2.063-3.748-2.063-8.244
			s1.979-8.093,2.063-8.244c0.177-0.316,0.696-0.316,0.873,0c0.084,0.151,2.063,3.748,2.063,8.244s-1.979,8.093-2.063,8.244
			C21.748,50.903,21.581,51.001,21.399,51.001z M21.4,35.657c-0.571,1.312-1.5,3.9-1.5,6.844c0,2.949,0.928,5.533,1.5,6.844
			c0.571-1.312,1.5-3.9,1.5-6.844C22.899,39.552,21.971,36.968,21.4,35.657z"/>
	</g>
	<g>
		<path class="st2" d="M25.399,52.001c-2.209,0-4-1.5-4-1.5s1.791-1.5,4-1.5s4,1.5,4,1.5S27.608,52.001,25.399,52.001z"/>
		<path class="st0" d="M25.399,52.501c-2.364,0-4.242-1.551-4.321-1.617c-0.113-0.095-0.179-0.235-0.179-0.383
			s0.065-0.288,0.179-0.383c0.079-0.066,1.957-1.617,4.321-1.617c2.364,0,4.242,1.551,4.321,1.616
			c0.114,0.096,0.179,0.235,0.179,0.384s-0.065,0.288-0.179,0.384C29.642,50.95,27.763,52.501,25.399,52.501z M22.267,50.5
			c0.653,0.41,1.823,1.001,3.132,1.001c1.308,0,2.478-0.591,3.131-1c-0.653-0.409-1.823-1-3.131-1
			C24.084,49.501,22.918,50.091,22.267,50.5z"/>
	</g>
	<g>
		<path class="st2" d="M17.399,52.001c2.209,0,4-1.5,4-1.5s-1.791-1.5-4-1.5s-4,1.5-4,1.5S15.19,52.001,17.399,52.001z"/>
		<path class="st0" d="M17.399,52.501c-2.364,0-4.242-1.551-4.321-1.616c-0.114-0.096-0.179-0.235-0.179-0.384
			s0.065-0.288,0.179-0.384c0.079-0.065,1.957-1.616,4.321-1.616c2.364,0,4.242,1.551,4.321,1.617
			c0.113,0.095,0.179,0.235,0.179,0.383s-0.065,0.288-0.179,0.383C21.641,50.95,19.763,52.501,17.399,52.501z M14.268,50.501
			c0.653,0.409,1.823,1,3.131,1c1.315,0,2.481-0.59,3.132-0.999c-0.653-0.41-1.823-1.001-3.132-1.001
			C16.091,49.501,14.921,50.092,14.268,50.501z"/>
	</g>
	<g>
		<path class="st2" d="M27.41,46.612c-2.734,2.734-6.01,3.889-6.01,3.889s1.155-3.277,3.889-6.01s6.01-3.889,6.01-3.889
			S30.143,43.878,27.41,46.612z"/>
		<path class="st0" d="M21.399,51.001c-0.13,0-0.258-0.051-0.354-0.146c-0.136-0.136-0.182-0.338-0.118-0.52
			c0.049-0.139,1.225-3.416,4.007-6.198c2.782-2.781,6.06-3.958,6.198-4.007c0.18-0.063,0.383-0.019,0.52,0.118
			c0.136,0.136,0.182,0.338,0.118,0.52c-0.049,0.139-1.226,3.416-4.007,6.198l0,0c-2.782,2.781-6.06,3.958-6.197,4.007
			C21.511,50.991,21.455,51.001,21.399,51.001z M30.338,41.562c-1.166,0.562-3.043,1.628-4.696,3.281
			c-1.657,1.658-2.721,3.533-3.283,4.697c1.166-0.563,3.043-1.629,4.697-3.282l0,0C28.709,44.605,29.774,42.728,30.338,41.562z
			 M27.41,46.612h0.01H27.41z"/>
	</g>
	<g>
		<path class="st2" d="M15.389,46.612c2.734,2.734,6.01,3.889,6.01,3.889s-1.155-3.277-3.889-6.01s-6.01-3.889-6.01-3.889
			S12.655,43.878,15.389,46.612z"/>
		<path class="st0" d="M21.399,51.001c-0.056,0-0.112-0.01-0.166-0.028c-0.138-0.049-3.416-1.226-6.198-4.007l0,0
			c-2.782-2.782-3.958-6.06-4.007-6.198c-0.064-0.182-0.018-0.384,0.118-0.52c0.135-0.137,0.338-0.182,0.52-0.118
			c0.138,0.049,3.416,1.226,6.198,4.007c2.782,2.782,3.958,6.06,4.007,6.198c0.064,0.182,0.018,0.384-0.118,0.52
			C21.658,50.95,21.53,51.001,21.399,51.001z M15.742,46.259c1.653,1.653,3.531,2.719,4.696,3.281
			c-0.563-1.165-1.629-3.043-3.282-4.696c-1.653-1.653-3.531-2.719-4.696-3.281C13.024,42.728,14.089,44.605,15.742,46.259
			L15.742,46.259z"/>
	</g>
	<g>
		<path class="st5" d="M41,31.501H8.5c-1.381,0-2.5-1.119-2.5-2.5v-3c0-1.381,1.119-2.5,2.5-2.5H41V31.501z"/>
		<path class="st0" d="M41,32.001H8.5c-1.654,0-3-1.346-3-3v-3c0-1.654,1.346-3,3-3H41c0.276,0,0.5,0.224,0.5,0.5v8
			C41.5,31.777,41.276,32.001,41,32.001z M8.5,24.001c-1.103,0-2,0.897-2,2v3c0,1.103,0.897,2,2,2h32v-7H8.5z"/>
	</g>
	<g>
		<path class="st0" d="M53,37.001H41c-0.276,0-0.5-0.224-0.5-0.5v-18c0-0.276,0.224-0.5,0.5-0.5h12c0.276,0,0.5,0.224,0.5,0.5v18
			C53.5,36.777,53.276,37.001,53,37.001z M41.5,36.001h11v-17h-11V36.001z"/>
	</g>
	<g>
		<path class="st5" d="M53.5,18.501h-13c-0.552,0-1-0.448-1-1v-3c0-0.552,0.448-1,1-1h13c0.552,0,1,0.448,1,1v3
			C54.5,18.053,54.052,18.501,53.5,18.501z"/>
		<path class="st0" d="M53.5,19.001h-13c-0.827,0-1.5-0.673-1.5-1.5v-3c0-0.827,0.673-1.5,1.5-1.5h13c0.827,0,1.5,0.673,1.5,1.5v3
			C55,18.328,54.327,19.001,53.5,19.001z M40.5,14.001c-0.276,0-0.5,0.225-0.5,0.5v3c0,0.275,0.224,0.5,0.5,0.5h13
			c0.276,0,0.5-0.225,0.5-0.5v-3c0-0.275-0.224-0.5-0.5-0.5H40.5z"/>
	</g>
	<g>
		<path class="st5" d="M53.5,41.501h-13c-0.552,0-1-0.448-1-1v-3c0-0.552,0.448-1,1-1h13c0.552,0,1,0.448,1,1v3
			C54.5,41.053,54.052,41.501,53.5,41.501z"/>
		<path class="st0" d="M53.5,42.001h-13c-0.827,0-1.5-0.673-1.5-1.5v-3c0-0.827,0.673-1.5,1.5-1.5h13c0.827,0,1.5,0.673,1.5,1.5v3
			C55,41.328,54.327,42.001,53.5,42.001z M40.5,37.001c-0.276,0-0.5,0.225-0.5,0.5v3c0,0.275,0.224,0.5,0.5,0.5h13
			c0.276,0,0.5-0.225,0.5-0.5v-3c0-0.275-0.224-0.5-0.5-0.5H40.5z"/>
	</g>
	<g>
		<path class="st0" d="M54.5,16.501h-15c-0.276,0-0.5-0.224-0.5-0.5s0.224-0.5,0.5-0.5h15c0.276,0,0.5,0.224,0.5,0.5
			S54.776,16.501,54.5,16.501z"/>
	</g>
	<g>
		<path class="st0" d="M54.5,39.501h-15c-0.276,0-0.5-0.224-0.5-0.5s0.224-0.5,0.5-0.5h15c0.276,0,0.5,0.224,0.5,0.5
			S54.776,39.501,54.5,39.501z"/>
	</g>
	<g>
		<path class="st0" d="M36,32.001c-0.276,0-0.5-0.224-0.5-0.5v-8c0-0.276,0.224-0.5,0.5-0.5s0.5,0.224,0.5,0.5v8
			C36.5,31.777,36.276,32.001,36,32.001z"/>
	</g>
	<g>
		<path class="st0" d="M34,32.001c-0.276,0-0.5-0.224-0.5-0.5v-8c0-0.276,0.224-0.5,0.5-0.5s0.5,0.224,0.5,0.5v8
			C34.5,31.777,34.276,32.001,34,32.001z"/>
	</g>
	<g>
		<path class="st0" d="M58,59.001H36c-0.276,0-0.5-0.224-0.5-0.5v-2.5c0-1.654,1.346-3,3-3h17c1.654,0,3,1.346,3,3v2.5
			C58.5,58.777,58.276,59.001,58,59.001z M36.5,58.001h21v-2c0-1.103-0.897-2-2-2h-17c-1.103,0-2,0.897-2,2V58.001z"/>
	</g>
	<g>
		<path class="st0" d="M36,59.001H7.5c-0.276,0-0.5-0.224-0.5-0.5s0.224-0.5,0.5-0.5H36c0.276,0,0.5,0.224,0.5,0.5
			S36.276,59.001,36,59.001z"/>
	</g>
	<g>
		<path class="st0" d="M47,51.001c-0.276,0-0.5-0.224-0.5-0.5v-3c0-0.276,0.224-0.5,0.5-0.5s0.5,0.224,0.5,0.5v3
			C47.5,50.777,47.276,51.001,47,51.001z"/>
	</g>
	<g>
		<path class="st0" d="M41,51.668c-0.128,0-0.256-0.049-0.354-0.146l-2-2c-0.195-0.195-0.195-0.512,0-0.707s0.512-0.195,0.707,0l2,2
			c0.195,0.195,0.195,0.512,0,0.707C41.255,51.619,41.127,51.668,41,51.668z"/>
	</g>
	<g>
		<path class="st0" d="M53,51.668c-0.128,0-0.256-0.049-0.354-0.146c-0.195-0.195-0.195-0.512,0-0.707l2-2
			c0.195-0.195,0.512-0.195,0.707,0s0.195,0.512,0,0.707l-2,2C53.255,51.619,53.127,51.668,53,51.668z"/>
	</g>
	<g>
		<path class="st0" d="M40.5,8.001h-4c-0.276,0-0.5-0.224-0.5-0.5s0.224-0.5,0.5-0.5h4c0.276,0,0.5,0.224,0.5,0.5
			S40.776,8.001,40.5,8.001z"/>
	</g>
	<g>
		<path class="st0" d="M38.5,10.001c-0.276,0-0.5-0.224-0.5-0.5v-4c0-0.276,0.224-0.5,0.5-0.5s0.5,0.224,0.5,0.5v4
			C39,9.777,38.776,10.001,38.5,10.001z"/>
	</g>
	<g>
		<path class="st0" d="M35.5,13.001h-4c-0.276,0-0.5-0.224-0.5-0.5s0.224-0.5,0.5-0.5h4c0.276,0,0.5,0.224,0.5,0.5
			S35.776,13.001,35.5,13.001z"/>
	</g>
	<g>
		<path class="st0" d="M33.5,15.001c-0.276,0-0.5-0.224-0.5-0.5v-4c0-0.276,0.224-0.5,0.5-0.5s0.5,0.224,0.5,0.5v4
			C34,14.777,33.776,15.001,33.5,15.001z"/>
	</g>
	<g>
		<path class="st0" d="M13,20.001h-2c-0.276,0-0.5-0.224-0.5-0.5s0.224-0.5,0.5-0.5h2c0.276,0,0.5,0.224,0.5,0.5
			S13.276,20.001,13,20.001z"/>
	</g>
	<g>
		<path class="st0" d="M25,20.001H15c-0.276,0-0.5-0.224-0.5-0.5s0.224-0.5,0.5-0.5h10c0.276,0,0.5,0.224,0.5,0.5
			S25.276,20.001,25,20.001z"/>
	</g>
</g>
</svg>
