<?xml version="1.0" encoding="utf-8"?>
<!-- Generator: Adobe Illustrator 22.0.0, SVG Export Plug-In . SVG Version: 6.00 Build 0)  -->
<svg version="1.1" id="Layer_1" xmlns="http://www.w3.org/2000/svg" xmlns:xlink="http://www.w3.org/1999/xlink" x="0px" y="0px"
	 viewBox="0 0 64 64" style="enable-background:new 0 0 64 64;" xml:space="preserve">
<style type="text/css">
	.st0{fill:#263238;}
	.st1{fill:#4FC3F7;}
	.st2{fill:#4DB6AC;}
	.st3{fill:#FF5252;}
	.st4{fill:#FFFFFF;}
	.st5{fill:#FFD740;}
	.st6{fill:#40C4FF;}
</style>
<g>
	<g>
		<path class="st0" d="M51.501,57.5h-11c-0.827,0-1.5-0.673-1.5-1.5V42c0-0.827,0.673-1.5,1.5-1.5h11c0.827,0,1.5,0.673,1.5,1.5v14
			C53.001,56.827,52.328,57.5,51.501,57.5z M40.501,41.5c-0.275,0-0.5,0.225-0.5,0.5v14c0,0.275,0.225,0.5,0.5,0.5h11
			c0.275,0,0.5-0.225,0.5-0.5V42c0-0.275-0.225-0.5-0.5-0.5H40.501z"/>
	</g>
	<g>
		<path class="st0" d="M54.001,54.5h-1.5c-0.276,0-0.5-0.224-0.5-0.5v-3c0-0.276,0.224-0.5,0.5-0.5h1.5c0.827,0,1.5-0.673,1.5-1.5
			s-0.673-1.5-1.5-1.5h-1.5c-0.276,0-0.5-0.224-0.5-0.5v-3c0-0.276,0.224-0.5,0.5-0.5h1.5c3.032,0,5.5,2.468,5.5,5.5
			S57.033,54.5,54.001,54.5z M53.001,53.5h1c2.481,0,4.5-2.019,4.5-4.5s-2.019-4.5-4.5-4.5h-1v2h1c1.379,0,2.5,1.121,2.5,2.5
			s-1.121,2.5-2.5,2.5h-1V53.5z"/>
	</g>
	<g>
		<path class="st5" d="M23,57H10c-0.552,0-1-0.448-1-1v-6c0-0.552,0.448-1,1-1h13c0.552,0,1,0.448,1,1v6C24,56.552,23.553,57,23,57z
			"/>
		<path class="st0" d="M23,57.5H10c-0.827,0-1.5-0.673-1.5-1.5v-6c0-0.827,0.673-1.5,1.5-1.5h13c0.827,0,1.5,0.673,1.5,1.5v6
			C24.5,56.827,23.827,57.5,23,57.5z M10,49.5c-0.275,0-0.5,0.225-0.5,0.5v6c0,0.275,0.225,0.5,0.5,0.5h13
			c0.275,0,0.5-0.225,0.5-0.5v-6c0-0.275-0.225-0.5-0.5-0.5H10z"/>
	</g>
	<g>
		<path class="st0" d="M29.495,16.5c-0.276,0-0.5-0.224-0.5-0.5v-4c0-0.276,0.224-0.5,0.5-0.5c1.103,0,2-0.897,2-2s-0.897-2-2-2
			s-2,0.897-2,2c0,0.276-0.224,0.5-0.5,0.5s-0.5-0.224-0.5-0.5c0-1.654,1.346-3,3-3s3,1.346,3,3c0,1.483-1.083,2.72-2.5,2.958V16
			C29.995,16.276,29.771,16.5,29.495,16.5z"/>
	</g>
	<g>
		<path class="st0" d="M33.494,16.5h-7.999c-0.276,0-0.5-0.224-0.5-0.5s0.224-0.5,0.5-0.5h7.999c0.276,0,0.5,0.224,0.5,0.5
			S33.771,16.5,33.494,16.5z"/>
	</g>
	<g>
		<path class="st0" d="M37.501,52.5H26c-0.276,0-0.5-0.224-0.5-0.5s0.224-0.5,0.5-0.5h11.501c0.276,0,0.5,0.224,0.5,0.5
			S37.777,52.5,37.501,52.5z"/>
	</g>
	<g>
		<path class="st0" d="M15.495,47.5c-0.276,0-0.5-0.224-0.5-0.5V28.521l-4.646,4.646c-0.101,0.101-0.246,0.157-0.383,0.146
			c-0.143-0.008-0.274-0.077-0.363-0.188l-4.995-6.313c-0.157-0.199-0.141-0.484,0.039-0.664l9.032-9.036
			c1.04-1.04,2.422-1.612,3.892-1.612l5.925,0.002c0.276,0,0.5,0.224,0.5,0.5c0,3.032,2.468,5.5,5.5,5.5s5.499-2.468,5.499-5.5
			c0-0.276,0.224-0.5,0.5-0.5l5.926-0.002c1.47,0,2.852,0.572,3.891,1.611l9.035,9.034c0.18,0.18,0.196,0.465,0.039,0.664
			l-4.998,6.316c-0.089,0.111-0.221,0.181-0.363,0.188c-0.144,0.011-0.282-0.045-0.383-0.146l-4.646-4.646V39
			c0,0.276-0.224,0.5-0.5,0.5s-0.5-0.224-0.5-0.5V27.313c0-0.202,0.122-0.385,0.309-0.462c0.187-0.075,0.402-0.034,0.545,0.108
			l5.103,5.103l4.374-5.526l-8.721-8.72c-0.851-0.851-1.98-1.318-3.184-1.318L35.976,16.5c-0.257,3.352-3.065,6-6.48,6
			c-3.416,0-6.225-2.648-6.481-6l-5.443-0.002c-1.203,0-2.334,0.469-3.185,1.319l-8.718,8.722l4.371,5.523l5.103-5.103
			c0.144-0.143,0.359-0.185,0.545-0.108c0.187,0.077,0.309,0.26,0.309,0.462V47C15.995,47.276,15.771,47.5,15.495,47.5z"/>
	</g>
	<g>
		<path class="st0" d="M26.312,45.5c-0.12,0-0.24-0.043-0.337-0.13c-0.204-0.187-0.219-0.502-0.033-0.707l3.184-3.5
			C29.221,41.06,29.355,41,29.496,41l0,0c0.141,0,0.275,0.06,0.37,0.164l3.183,3.5c0.186,0.204,0.171,0.521-0.034,0.706
			c-0.203,0.186-0.52,0.173-0.706-0.034l-2.812-3.093l-2.813,3.094C26.584,45.445,26.448,45.5,26.312,45.5z"/>
	</g>
	<g>
		<path class="st0" d="M29.496,48.5c-0.276,0-0.5-0.224-0.5-0.5v-6.5c0-0.276,0.224-0.5,0.5-0.5s0.5,0.224,0.5,0.5V48
			C29.996,48.276,29.772,48.5,29.496,48.5z"/>
	</g>
	<g>
		<path class="st2" d="M31.496,33.5c0,4.418-2,8-2,8s-2-3.582-2-8s2-8,2-8S31.496,29.082,31.496,33.5z"/>
		<path class="st0" d="M29.496,42c-0.182,0-0.349-0.098-0.437-0.256c-0.084-0.151-2.063-3.747-2.063-8.244
			c0-4.496,1.979-8.093,2.063-8.244c0.176-0.316,0.697-0.316,0.873,0c0.084,0.151,2.063,3.748,2.063,8.244
			c0,4.497-1.979,8.093-2.063,8.244C29.845,41.902,29.678,42,29.496,42z M29.497,26.656c-0.571,1.312-1.501,3.9-1.501,6.844
			c0,2.942,0.929,5.529,1.5,6.843c0.571-1.313,1.5-3.9,1.5-6.843C30.996,30.551,30.067,27.967,29.497,26.656z"/>
	</g>
	<g>
		<path class="st2" d="M33.496,43c-2.209,0-4-1.5-4-1.5s1.791-1.5,4-1.5c2.209,0,4,1.5,4,1.5S35.705,43,33.496,43z"/>
		<path class="st0" d="M33.496,43.5c-2.363,0-4.242-1.551-4.321-1.616c-0.113-0.096-0.179-0.235-0.179-0.384
			s0.065-0.288,0.179-0.384c0.079-0.065,1.958-1.616,4.321-1.616s4.242,1.551,4.321,1.616c0.113,0.096,0.179,0.235,0.179,0.384
			s-0.065,0.288-0.179,0.384C37.738,41.949,35.859,43.5,33.496,43.5z M30.365,41.5c0.653,0.409,1.822,1,3.131,1
			c1.309,0,2.478-0.591,3.131-1c-0.653-0.409-1.822-1-3.131-1C32.187,40.5,31.019,41.091,30.365,41.5z"/>
	</g>
	<g>
		<path class="st2" d="M25.496,43c2.209,0,4-1.5,4-1.5s-1.791-1.5-4-1.5s-4,1.5-4,1.5S23.287,43,25.496,43z"/>
		<path class="st0" d="M25.496,43.5c-2.363,0-4.242-1.551-4.321-1.616c-0.113-0.096-0.179-0.235-0.179-0.384
			s0.065-0.288,0.179-0.384c0.079-0.065,1.958-1.616,4.321-1.616s4.242,1.551,4.321,1.616c0.113,0.096,0.179,0.235,0.179,0.384
			s-0.065,0.288-0.179,0.384C29.738,41.949,27.859,43.5,25.496,43.5z M22.365,41.5c0.653,0.409,1.822,1,3.131,1
			c1.309,0,2.478-0.591,3.131-1c-0.653-0.409-1.822-1-3.131-1C24.187,40.5,23.019,41.091,22.365,41.5z"/>
	</g>
	<g>
		<path class="st2" d="M35.506,37.611c-2.734,2.734-6.01,3.889-6.01,3.889s1.155-3.277,3.889-6.01
			c2.734-2.734,6.01-3.889,6.01-3.889S38.24,34.877,35.506,37.611z"/>
		<path class="st0" d="M29.496,42c-0.13,0-0.258-0.051-0.354-0.146c-0.136-0.136-0.182-0.338-0.118-0.52
			c0.049-0.139,1.226-3.416,4.007-6.197c2.782-2.782,6.06-3.959,6.198-4.008c0.179-0.062,0.383-0.019,0.52,0.118
			c0.136,0.136,0.182,0.338,0.118,0.52c-0.049,0.139-1.226,3.416-4.007,6.198l0,0c-2.782,2.781-6.06,3.958-6.198,4.007
			C29.608,41.99,29.552,42,29.496,42z M38.436,32.561c-1.165,0.563-3.043,1.629-4.697,3.283c-1.657,1.657-2.721,3.532-3.282,4.696
			c1.165-0.563,3.043-1.629,4.697-3.282C36.811,35.6,37.874,33.725,38.436,32.561z M35.507,37.611h0.01H35.507z"/>
	</g>
	<g>
		<path class="st2" d="M23.486,37.611c2.734,2.734,6.01,3.889,6.01,3.889s-1.155-3.277-3.889-6.01
			c-2.734-2.734-6.01-3.889-6.01-3.889S20.752,34.877,23.486,37.611z"/>
		<path class="st0" d="M29.496,42c-0.056,0-0.112-0.01-0.166-0.028c-0.139-0.049-3.417-1.226-6.198-4.007l0,0
			c-2.781-2.782-3.958-6.06-4.007-6.198c-0.063-0.182-0.018-0.384,0.118-0.52c0.137-0.137,0.342-0.179,0.52-0.118
			c0.139,0.049,3.416,1.226,6.197,4.008c2.782,2.781,3.959,6.059,4.008,6.197c0.063,0.182,0.018,0.384-0.118,0.52
			C29.754,41.949,29.626,42,29.496,42z M23.839,37.258c1.657,1.657,3.533,2.722,4.697,3.283c-0.563-1.166-1.629-3.044-3.283-4.697
			c-1.657-1.658-3.532-2.722-4.696-3.283C21.12,33.726,22.186,35.604,23.839,37.258L23.839,37.258z"/>
	</g>
	<g>
		<path class="st0" d="M9,56.5H6c-0.827,0-1.5-0.673-1.5-1.5v-1c0-0.827,0.673-1.5,1.5-1.5h3c0.276,0,0.5,0.224,0.5,0.5v3
			C9.5,56.276,9.276,56.5,9,56.5z M6,53.5c-0.275,0-0.5,0.225-0.5,0.5v1c0,0.275,0.225,0.5,0.5,0.5h2.5v-2H6z"/>
	</g>
	<g>
		<path class="st0" d="M12,57.5c-0.276,0-0.5-0.224-0.5-0.5v-8c0-0.276,0.224-0.5,0.5-0.5s0.5,0.224,0.5,0.5v8
			C12.5,57.276,12.276,57.5,12,57.5z"/>
	</g>
	<g>
		<path class="st0" d="M57.996,13.5h-4c-0.276,0-0.5-0.224-0.5-0.5s0.224-0.5,0.5-0.5h4c0.276,0,0.5,0.224,0.5,0.5
			S58.272,13.5,57.996,13.5z"/>
	</g>
	<g>
		<path class="st0" d="M52.996,9.5h-4c-0.276,0-0.5-0.224-0.5-0.5s0.224-0.5,0.5-0.5h4c0.276,0,0.5,0.224,0.5,0.5
			S53.272,9.5,52.996,9.5z"/>
	</g>
	<g>
		<path class="st0" d="M50.996,11.5c-0.276,0-0.5-0.224-0.5-0.5V7c0-0.276,0.224-0.5,0.5-0.5s0.5,0.224,0.5,0.5v4
			C51.496,11.276,51.272,11.5,50.996,11.5z"/>
	</g>
	<g>
		<path class="st0" d="M55.996,15.5c-0.276,0-0.5-0.224-0.5-0.5v-4c0-0.276,0.224-0.5,0.5-0.5s0.5,0.224,0.5,0.5v4
			C56.496,15.276,56.272,15.5,55.996,15.5z"/>
	</g>
</g>
</svg>
