<?xml version="1.0" encoding="utf-8"?>
<!-- Generator: Adobe Illustrator 22.0.0, SVG Export Plug-In . SVG Version: 6.00 Build 0)  -->
<svg version="1.1" id="Layer_1" xmlns="http://www.w3.org/2000/svg" xmlns:xlink="http://www.w3.org/1999/xlink" x="0px" y="0px"
	 viewBox="0 0 64 64" style="enable-background:new 0 0 64 64;" xml:space="preserve">
<style type="text/css">
	.st0{fill:#263238;}
	.st1{fill:#4FC3F7;}
	.st2{fill:#4DB6AC;}
	.st3{fill:#FF5252;}
	.st4{fill:#FFFFFF;}
	.st5{fill:#FFD740;}
	.st6{fill:#40C4FF;}
</style>
<g>
	<g>
		<rect x="19" y="27" class="st1" width="20" height="15"/>
		<path class="st0" d="M39,42.5H19c-0.276,0-0.5-0.224-0.5-0.5V27c0-0.276,0.224-0.5,0.5-0.5h20c0.276,0,0.5,0.224,0.5,0.5v15
			C39.5,42.276,39.276,42.5,39,42.5z M19.5,41.5h19v-14h-19V41.5z"/>
	</g>
	<g>
		<path class="st0" d="M38,57.5H20c-0.827,0-1.5-0.673-1.5-1.5V12c0-0.276,0.224-0.5,0.5-0.5s0.5,0.224,0.5,0.5v44
			c0,0.276,0.224,0.5,0.5,0.5h18c0.276,0,0.5-0.224,0.5-0.5V12c0-0.276,0.224-0.5,0.5-0.5s0.5,0.224,0.5,0.5v44
			C39.5,56.827,38.827,57.5,38,57.5z"/>
	</g>
	<g>
		<rect x="9" y="27" class="st5" width="8" height="15"/>
	</g>
	<g>
		<path class="st0" d="M17,42.5H9c-0.276,0-0.5-0.224-0.5-0.5V27c0-0.276,0.224-0.5,0.5-0.5h8c0.276,0,0.5,0.224,0.5,0.5
			s-0.224,0.5-0.5,0.5H9.5v14H17c0.276,0,0.5,0.224,0.5,0.5S17.276,42.5,17,42.5z"/>
	</g>
	<g>
		<path class="st0" d="M44.089,55.5c-0.12,0-0.241-0.043-0.336-0.13c-0.204-0.186-0.219-0.502-0.034-0.707l3.184-3.5
			C46.998,51.06,47.132,51,47.272,51l0,0c0.141,0,0.275,0.06,0.37,0.164l3.183,3.5c0.186,0.204,0.17,0.521-0.034,0.707
			c-0.204,0.186-0.52,0.171-0.707-0.034l-2.813-3.093l-2.813,3.093C44.36,55.445,44.225,55.5,44.089,55.5z"/>
	</g>
	<g>
		<path class="st0" d="M47.272,57.5c-0.276,0-0.5-0.224-0.5-0.5v-5.5c0-0.276,0.224-0.5,0.5-0.5s0.5,0.224,0.5,0.5V57
			C47.772,57.276,47.549,57.5,47.272,57.5z"/>
	</g>
	<g>
		<path class="st2" d="M49.772,41.5c0,5.523-2.5,10-2.5,10s-2.5-4.477-2.5-10s2.5-10,2.5-10S49.772,35.977,49.772,41.5z"/>
		<path class="st0" d="M47.272,52c-0.181,0-0.348-0.098-0.437-0.256c-0.104-0.188-2.563-4.655-2.563-10.244
			s2.459-10.056,2.563-10.244c0.177-0.316,0.696-0.316,0.873,0c0.104,0.188,2.563,4.655,2.563,10.244s-2.459,10.056-2.563,10.244
			C47.621,51.902,47.454,52,47.272,52z M47.272,32.639c-0.701,1.554-2,4.958-2,8.861s1.299,7.308,2,8.861
			c0.701-1.554,2-4.958,2-8.861S47.974,34.192,47.272,32.639z"/>
	</g>
	<g>
		<path class="st2" d="M55.05,46.55c-3.515,3.515-7.778,4.95-7.778,4.95s1.435-4.263,4.95-7.778c3.515-3.515,7.778-4.95,7.778-4.95
			S58.565,43.036,55.05,46.55z"/>
		<path class="st0" d="M47.272,52c-0.13,0-0.258-0.051-0.354-0.146c-0.134-0.134-0.181-0.333-0.121-0.513
			c0.061-0.178,1.513-4.416,5.07-7.972c3.557-3.557,7.793-5.01,7.972-5.07c0.18-0.06,0.379-0.014,0.513,0.12
			c0.134,0.134,0.181,0.333,0.121,0.513c-0.061,0.178-1.514,4.416-5.07,7.972s-7.793,5.01-7.972,5.07
			C47.38,51.992,47.326,52,47.272,52z M59.096,39.676c-1.462,0.648-4.176,2.055-6.52,4.399c-2.344,2.344-3.751,5.059-4.399,6.521
			c1.461-0.648,4.176-2.055,6.52-4.399S58.447,41.138,59.096,39.676z"/>
	</g>
	<g>
		<path class="st2" d="M39.494,46.55c3.515,3.515,7.778,4.95,7.778,4.95s-1.435-4.263-4.95-7.778
			c-3.515-3.515-7.778-4.95-7.778-4.95S35.979,43.036,39.494,46.55z"/>
		<path class="st0" d="M47.272,52c-0.053,0-0.107-0.008-0.16-0.026c-0.178-0.061-4.416-1.514-7.972-5.07s-5.01-7.794-5.07-7.972
			c-0.061-0.18-0.014-0.379,0.121-0.513c0.134-0.134,0.334-0.182,0.513-0.12c0.178,0.06,4.415,1.513,7.972,5.07
			c3.557,3.557,5.01,7.794,5.07,7.972c0.061,0.18,0.014,0.379-0.121,0.513C47.531,51.949,47.403,52,47.272,52z M35.449,39.676
			c0.648,1.462,2.055,4.177,4.399,6.521s5.059,3.75,6.521,4.399c-0.648-1.462-2.055-4.177-4.399-6.521
			C39.625,41.731,36.911,40.325,35.449,39.676z"/>
	</g>
	<g>
		<path class="st2" d="M41.272,53c3.314,0,6-1.5,6-1.5s-2.686-1.5-6-1.5s-6,1.5-6,1.5S37.959,53,41.272,53z"/>
		<path class="st0" d="M41.272,53.5c-3.405,0-6.129-1.5-6.244-1.563c-0.158-0.088-0.256-0.255-0.256-0.437s0.098-0.348,0.256-0.437
			C35.143,51,37.868,49.5,41.272,49.5c3.404,0,6.129,1.5,6.244,1.563c0.158,0.088,0.256,0.255,0.256,0.437s-0.098,0.348-0.256,0.437
			C47.402,52,44.677,53.5,41.272,53.5z M36.461,51.5c1.034,0.423,2.813,1,4.812,1c1.998,0,3.776-0.577,4.81-1
			c-1.034-0.423-2.812-1-4.81-1C39.268,50.5,37.493,51.077,36.461,51.5z"/>
	</g>
	<g>
		<path class="st2" d="M53.272,53c3.314,0,6-1.5,6-1.5s-2.686-1.5-6-1.5c-3.314,0-6,1.5-6,1.5S49.959,53,53.272,53z"/>
		<path class="st0" d="M53.272,53.5c-3.405,0-6.129-1.5-6.244-1.563c-0.158-0.088-0.256-0.255-0.256-0.437s0.098-0.348,0.256-0.437
			C47.143,51,49.868,49.5,53.272,49.5c3.404,0,6.129,1.5,6.244,1.563c0.158,0.088,0.256,0.255,0.256,0.437s-0.098,0.348-0.256,0.437
			C59.402,52,56.677,53.5,53.272,53.5z M48.461,51.5c1.034,0.423,2.813,1,4.812,1c1.998,0,3.776-0.577,4.81-1
			c-1.034-0.423-2.812-1-4.81-1C51.268,50.5,49.493,51.077,48.461,51.5z"/>
	</g>
	<g>
		<path class="st0" d="M39.5,12.5h-21c-0.827,0-1.5-0.673-1.5-1.5V8c0-0.827,0.673-1.5,1.5-1.5h21C40.327,6.5,41,7.173,41,8v3
			C41,11.827,40.327,12.5,39.5,12.5z M18.5,7.5C18.224,7.5,18,7.724,18,8v3c0,0.276,0.224,0.5,0.5,0.5h21c0.276,0,0.5-0.224,0.5-0.5
			V8c0-0.276-0.224-0.5-0.5-0.5H18.5z"/>
	</g>
	<g>
		<path class="st0" d="M17.185,57.5H10c-0.827,0-1.5-0.673-1.5-1.5V12c0-0.276,0.224-0.5,0.5-0.5s0.5,0.224,0.5,0.5v44
			c0,0.276,0.224,0.5,0.5,0.5h7.185c0.276,0,0.5,0.224,0.5,0.5S17.461,57.5,17.185,57.5z"/>
	</g>
	<g>
		<path class="st0" d="M15.681,12.5H8.5C7.673,12.5,7,11.827,7,11V8c0-0.827,0.673-1.5,1.5-1.5h7.185c0.276,0,0.5,0.224,0.5,0.5
			s-0.224,0.5-0.5,0.5H8.5C8.224,7.5,8,7.724,8,8v3c0,0.276,0.224,0.5,0.5,0.5h7.181c0.276,0,0.5,0.224,0.5,0.5
			S15.958,12.5,15.681,12.5z"/>
	</g>
	<g>
		<polygon class="st4" points="33,33 30.5,33 30.5,30.5 27.5,30.5 27.5,33 25,33 25,36 27.5,36 27.5,38.5 30.5,38.5 30.5,36 33,36 
					"/>
		<path class="st0" d="M30.5,39h-3c-0.276,0-0.5-0.224-0.5-0.5v-2h-2c-0.276,0-0.5-0.224-0.5-0.5v-3c0-0.276,0.224-0.5,0.5-0.5h2v-2
			c0-0.276,0.224-0.5,0.5-0.5h3c0.276,0,0.5,0.224,0.5,0.5v2h2c0.276,0,0.5,0.224,0.5,0.5v3c0,0.276-0.224,0.5-0.5,0.5h-2v2
			C31,38.776,30.776,39,30.5,39z M28,38h2v-2c0-0.276,0.224-0.5,0.5-0.5h2v-2h-2c-0.276,0-0.5-0.224-0.5-0.5v-2h-2v2
			c0,0.276-0.224,0.5-0.5,0.5h-2v2h2c0.276,0,0.5,0.224,0.5,0.5V38z"/>
	</g>
	<g>
		<path class="st0" d="M60,14h-4c-0.276,0-0.5-0.224-0.5-0.5S55.724,13,56,13h4c0.276,0,0.5,0.224,0.5,0.5S60.276,14,60,14z"/>
	</g>
	<g>
		<path class="st0" d="M55.5,9.5h-4C51.224,9.5,51,9.276,51,9s0.224-0.5,0.5-0.5h4C55.776,8.5,56,8.724,56,9S55.776,9.5,55.5,9.5z"
			/>
	</g>
	<g>
		<path class="st0" d="M53.5,11.5c-0.276,0-0.5-0.224-0.5-0.5V7c0-0.276,0.224-0.5,0.5-0.5S54,6.724,54,7v4
			C54,11.276,53.776,11.5,53.5,11.5z"/>
	</g>
	<g>
		<path class="st0" d="M58,16c-0.276,0-0.5-0.224-0.5-0.5v-4c0-0.276,0.224-0.5,0.5-0.5s0.5,0.224,0.5,0.5v4
			C58.5,15.776,58.276,16,58,16z"/>
	</g>
	<g>
		<path class="st0" d="M4,57c-0.276,0-0.5-0.224-0.5-0.5v-2C3.5,54.224,3.724,54,4,54s0.5,0.224,0.5,0.5v2C4.5,56.776,4.276,57,4,57
			z"/>
	</g>
	<g>
		<path class="st0" d="M4,53c-0.276,0-0.5-0.224-0.5-0.5V42c0-0.276,0.224-0.5,0.5-0.5s0.5,0.224,0.5,0.5v10.5
			C4.5,52.776,4.276,53,4,53z"/>
	</g>
	<g>
		<path class="st0" d="M44,14.5c-0.276,0-0.5-0.224-0.5-0.5v-2c0-0.276,0.224-0.5,0.5-0.5s0.5,0.224,0.5,0.5v2
			C44.5,14.276,44.276,14.5,44,14.5z"/>
	</g>
	<g>
		<path class="st0" d="M44,27c-0.276,0-0.5-0.224-0.5-0.5V16c0-0.276,0.224-0.5,0.5-0.5s0.5,0.224,0.5,0.5v10.5
			C44.5,26.776,44.276,27,44,27z"/>
	</g>
	<g>
		<path class="st0" d="M36,20.5c-0.276,0-0.5-0.224-0.5-0.5v-4c0-0.276-0.224-0.5-0.5-0.5h-4c-0.276,0-0.5-0.224-0.5-0.5
			s0.224-0.5,0.5-0.5h4c0.827,0,1.5,0.673,1.5,1.5v4C36.5,20.276,36.277,20.5,36,20.5z"/>
	</g>
</g>
</svg>
