<?xml version="1.0" encoding="utf-8"?>
<!-- Generator: Adobe Illustrator 22.0.0, SVG Export Plug-In . SVG Version: 6.00 Build 0)  -->
<svg version="1.1" id="Layer_1" xmlns="http://www.w3.org/2000/svg" xmlns:xlink="http://www.w3.org/1999/xlink" x="0px" y="0px"
	 viewBox="0 0 64 64" style="enable-background:new 0 0 64 64;" xml:space="preserve">
<style type="text/css">
	.st0{fill:#263238;}
	.st1{fill:#4FC3F7;}
	.st2{fill:#4DB6AC;}
	.st3{fill:#FF5252;}
	.st4{fill:#FFFFFF;}
	.st5{fill:#FFD740;}
	.st6{fill:#40C4FF;}
</style>
<g>
	<g>
		<path class="st0" d="M56,57H8c-3.033,0-5.5-2.467-5.5-5.5v-30C2.5,18.467,4.968,16,8,16h48c3.033,0,5.5,2.467,5.5,5.5v30
			C61.5,54.533,59.033,57,56,57z M8,17c-2.481,0-4.5,2.019-4.5,4.5v30C3.5,53.981,5.519,56,8,56h48c2.481,0,4.5-2.019,4.5-4.5v-30
			c0-2.481-2.019-4.5-4.5-4.5H8z"/>
	</g>
	<g>
		<path class="st3" d="M23.001,51.5h-14c-0.552,0-1-0.448-1-1v-18c0-0.552,0.448-1,1-1h14c0.552,0,1,0.448,1,1v18
			C24.001,51.052,23.553,51.5,23.001,51.5z"/>
		<path class="st0" d="M23,52H9c-0.827,0-1.5-0.673-1.5-1.5v-18C7.5,31.673,8.173,31,9,31h14c0.827,0,1.5,0.673,1.5,1.5v18
			C24.5,51.327,23.828,52,23,52z M9,32c-0.276,0-0.5,0.224-0.5,0.5v18C8.5,50.776,8.725,51,9,51h14c0.276,0,0.5-0.224,0.5-0.5v-18
			c0-0.276-0.224-0.5-0.5-0.5H9z"/>
	</g>
	<g>
		<circle class="st2" cx="47.001" cy="30.5" r="9"/>
		<path class="st0" d="M47,40c-5.238,0-9.5-4.262-9.5-9.5S41.762,21,47,21s9.5,4.262,9.5,9.5S52.239,40,47,40z M47,22
			c-4.687,0-8.5,3.813-8.5,8.5S42.313,39,47,39s8.5-3.813,8.5-8.5S51.687,22,47,22z"/>
	</g>
	<g>
		<path class="st4" d="M50.89,32.232C49.328,33.794,47.001,34,47.001,34s0.206-2.327,1.768-3.889
			c1.562-1.562,3.889-1.768,3.889-1.768S52.452,30.67,50.89,32.232z"/>
		<path class="st0" d="M47,34.5c-0.132,0-0.259-0.052-0.354-0.146c-0.104-0.104-0.158-0.25-0.145-0.397
			c0.009-0.103,0.241-2.527,1.913-4.199c1.671-1.671,4.096-1.903,4.198-1.912c0.15-0.013,0.293,0.04,0.397,0.145
			s0.158,0.25,0.145,0.397c-0.009,0.103-0.241,2.527-1.912,4.199l0,0c-1.671,1.671-4.096,1.903-4.199,1.912
			C47.03,34.5,47.015,34.5,47,34.5z M52.044,28.958c-0.751,0.172-1.997,0.581-2.922,1.507c-0.93,0.93-1.338,2.172-1.509,2.922
			c0.751-0.172,1.997-0.582,2.923-1.507C51.466,30.949,51.874,29.707,52.044,28.958z M50.89,32.232h0.01H50.89z"/>
	</g>
	<g>
		<path class="st4" d="M43.111,32.232C44.674,33.794,47.001,34,47.001,34s-0.206-2.327-1.768-3.889
			c-1.562-1.562-3.889-1.768-3.889-1.768S41.549,30.67,43.111,32.232z"/>
		<path class="st0" d="M47,34.5c-0.015,0-0.029,0-0.044-0.002c-0.103-0.009-2.527-0.241-4.199-1.912l0,0
			c-1.671-1.672-1.903-4.096-1.912-4.199c-0.013-0.147,0.04-0.293,0.145-0.397c0.105-0.104,0.255-0.158,0.397-0.145
			c0.103,0.009,2.527,0.241,4.199,1.912s1.903,4.096,1.912,4.199c0.013,0.147-0.04,0.293-0.145,0.397
			C47.26,34.448,47.132,34.5,47,34.5z M43.465,31.879c0.925,0.925,2.169,1.334,2.921,1.507c-0.172-0.752-0.582-1.996-1.507-2.921
			s-2.169-1.334-2.921-1.507C42.131,29.709,42.54,30.954,43.465,31.879L43.465,31.879z"/>
	</g>
	<g>
		<path class="st0" d="M50.183,36c-0.071,0-0.144-0.015-0.213-0.048L47,34.553l-2.97,1.399c-0.252,0.12-0.548,0.011-0.666-0.239
			c-0.118-0.25-0.011-0.548,0.239-0.666l3.183-1.5c0.136-0.063,0.291-0.063,0.427,0l3.183,1.5c0.25,0.118,0.357,0.416,0.239,0.666
			C50.551,35.894,50.371,36,50.183,36z"/>
	</g>
	<g>
		<path class="st0" d="M47,37c-0.276,0-0.5-0.224-0.5-0.5V34c0-0.276,0.224-0.5,0.5-0.5s0.5,0.224,0.5,0.5v2.5
			C47.5,36.776,47.277,37,47,37z"/>
	</g>
	<g>
		<path class="st4" d="M48.501,29c0,2.761-1.5,5-1.5,5s-1.5-2.239-1.5-5s1.5-5,1.5-5S48.501,26.239,48.501,29z"/>
		<path class="st0" d="M47,34.5c-0.167,0-0.323-0.083-0.416-0.222C46.521,34.182,45,31.88,45,29s1.52-5.182,1.584-5.278
			c0.186-0.277,0.646-0.277,0.831,0C47.48,23.818,49,26.12,49,29s-1.52,5.182-1.584,5.278C47.323,34.417,47.167,34.5,47,34.5z
			 M47.001,25.024C46.583,25.869,46,27.344,46,29c0,1.662,0.582,3.133,0.999,3.976C47.417,32.131,48,30.656,48,29
			C48,27.338,47.419,25.867,47.001,25.024z"/>
	</g>
	<g>
		<path class="st0" d="M56,47H36c-0.276,0-0.5-0.224-0.5-0.5S35.724,46,36,46h20c0.276,0,0.5,0.224,0.5,0.5S56.277,47,56,47z"/>
	</g>
	<g>
		<path class="st0" d="M56,52H36c-0.276,0-0.5-0.224-0.5-0.5S35.724,51,36,51h20c0.276,0,0.5,0.224,0.5,0.5S56.277,52,56,52z"/>
	</g>
	<g>
		<path class="st0" d="M42.001,13h-2c-0.276,0-0.5-0.224-0.5-0.5s0.224-0.5,0.5-0.5h2c0.276,0,0.5,0.224,0.5,0.5
			S42.277,13,42.001,13z"/>
	</g>
	<g>
		<path class="st0" d="M38.001,13h-16c-0.276,0-0.5-0.224-0.5-0.5s0.224-0.5,0.5-0.5h16c0.276,0,0.5,0.224,0.5,0.5
			S38.277,13,38.001,13z"/>
	</g>
	<g>
		<path class="st0" d="M24.001,61h-2c-0.276,0-0.5-0.224-0.5-0.5s0.224-0.5,0.5-0.5h2c0.276,0,0.5,0.224,0.5,0.5
			S24.277,61,24.001,61z"/>
	</g>
	<g>
		<path class="st0" d="M42.001,61h-16c-0.276,0-0.5-0.224-0.5-0.5s0.224-0.5,0.5-0.5h16c0.276,0,0.5,0.224,0.5,0.5
			S42.277,61,42.001,61z"/>
	</g>
	<g>
		<path class="st0" d="M11.001,11h-4c-0.276,0-0.5-0.224-0.5-0.5s0.224-0.5,0.5-0.5h4c0.276,0,0.5,0.224,0.5,0.5
			S11.277,11,11.001,11z"/>
	</g>
	<g>
		<path class="st0" d="M17.501,6h-4c-0.276,0-0.5-0.224-0.5-0.5s0.224-0.5,0.5-0.5h4c0.276,0,0.5,0.224,0.5,0.5S17.777,6,17.501,6z"
			/>
	</g>
	<g>
		<path class="st0" d="M15.501,8c-0.276,0-0.5-0.224-0.5-0.5v-4c0-0.276,0.224-0.5,0.5-0.5s0.5,0.224,0.5,0.5v4
			C16.001,7.776,15.777,8,15.501,8z"/>
	</g>
	<g>
		<path class="st0" d="M9.001,13c-0.276,0-0.5-0.224-0.5-0.5v-4c0-0.276,0.224-0.5,0.5-0.5s0.5,0.224,0.5,0.5v4
			C9.501,12.776,9.277,13,9.001,13z"/>
	</g>
	<g>
		<circle class="st4" cx="16.003" cy="38.5" r="5"/>
		<path class="st0" d="M16.003,44c-3.033,0-5.5-2.467-5.5-5.5s2.467-5.5,5.5-5.5s5.5,2.467,5.5,5.5S19.036,44,16.003,44z M16.003,34
			c-2.481,0-4.5,2.019-4.5,4.5s2.019,4.5,4.5,4.5s4.5-2.019,4.5-4.5S18.484,34,16.003,34z"/>
	</g>
	<g>
		<path class="st4" d="M19.47,35.609l0.373-0.31c-0.917-1.099-2.296-1.799-3.84-1.799c-2.761,0-5,2.239-5,5h0.472
			C14.396,38.5,17.225,37.477,19.47,35.609z"/>
		<path class="st0" d="M11.475,39h-0.472c-0.276,0-0.5-0.224-0.5-0.5c0-3.033,2.467-5.5,5.5-5.5c1.634,0,3.174,0.721,4.223,1.979
			c0.085,0.102,0.126,0.233,0.114,0.366c-0.012,0.132-0.076,0.254-0.178,0.339l-0.373,0.31l0,0C17.459,37.932,14.506,39,11.475,39z
			 M16.003,34c-2.312,0-4.223,1.753-4.472,4c2.764-0.013,5.454-0.987,7.585-2.748C18.282,34.451,17.172,34,16.003,34z"/>
	</g>
	<g>
		<path class="st4" d="M16.003,43.5c-0.919,0-1.769-0.266-2.509-0.698l0.001,1.204l2.504,4.463l2.496-4.473l-0.001-1.184
			C17.758,43.238,16.915,43.5,16.003,43.5z"/>
		<path class="st0" d="M15.998,48.968c-0.181,0-0.348-0.098-0.436-0.255l-2.503-4.463c-0.042-0.075-0.064-0.159-0.064-0.244
			l-0.001-1.204c0-0.179,0.096-0.345,0.251-0.434c0.155-0.09,0.347-0.088,0.501,0.002c1.421,0.833,3.066,0.838,4.497,0.009
			c0.154-0.089,0.345-0.09,0.5,0c0.155,0.089,0.25,0.254,0.25,0.433l0.001,1.184c0,0.085-0.022,0.169-0.063,0.244l-2.497,4.473
			C16.346,48.87,16.18,48.968,15.998,48.968L15.998,48.968z M13.995,43.874l2.002,3.57l1.998-3.579l0-0.254
			c-1.29,0.52-2.715,0.516-4-0.006L13.995,43.874z"/>
	</g>
	<g>
		<path class="st4" d="M18.494,43.996l-2.496,4.472l-2.504-4.463l-5.494,2.11V50.5c0,0.552,0.448,1,1,1h14c0.552,0,1-0.448,1-1
			v-4.386L18.494,43.996z"/>
		<path class="st0" d="M23,52H9c-0.827,0-1.5-0.673-1.5-1.5v-4.385c0-0.207,0.127-0.393,0.321-0.467l5.494-2.11
			c0.229-0.089,0.493,0.005,0.615,0.222l2.066,3.684l2.061-3.692c0.121-0.218,0.382-0.313,0.616-0.223l5.506,2.119
			c0.193,0.074,0.32,0.26,0.32,0.467V50.5C24.5,51.327,23.828,52,23,52z M8.5,46.459V50.5C8.5,50.776,8.725,51,9,51h14
			c0.276,0,0.5-0.224,0.5-0.5v-4.042l-4.781-1.839l-2.285,4.093c-0.088,0.158-0.255,0.256-0.436,0.256h0
			c-0.181,0-0.348-0.098-0.436-0.255l-2.292-4.085L8.5,46.459z"/>
	</g>
</g>
</svg>
