<?xml version="1.0" encoding="utf-8"?>
<!-- Generator: Adobe Illustrator 22.0.0, SVG Export Plug-In . SVG Version: 6.00 Build 0)  -->
<svg version="1.1" id="Layer_1" xmlns="http://www.w3.org/2000/svg" xmlns:xlink="http://www.w3.org/1999/xlink" x="0px" y="0px"
	 viewBox="0 0 64 64" style="enable-background:new 0 0 64 64;" xml:space="preserve">
<style type="text/css">
	.st0{fill:#263238;}
	.st1{fill:#4FC3F7;}
	.st2{fill:#4DB6AC;}
	.st3{fill:#FF5252;}
	.st4{fill:#FFFFFF;}
	.st5{fill:#FFD740;}
	.st6{fill:#40C4FF;}
</style>
<g>
	<g>
		<path class="st0" d="M56.5,16h-4c-0.276,0-0.5-0.224-0.5-0.5s0.224-0.5,0.5-0.5h4c0.276,0,0.5,0.224,0.5,0.5S56.776,16,56.5,16z"
			/>
	</g>
	<g>
		<path class="st0" d="M51,12h-4c-0.276,0-0.5-0.224-0.5-0.5S46.724,11,47,11h4c0.276,0,0.5,0.224,0.5,0.5S51.276,12,51,12z"/>
	</g>
	<g>
		<path class="st0" d="M49,14c-0.276,0-0.5-0.224-0.5-0.5v-4C48.5,9.224,48.724,9,49,9s0.5,0.224,0.5,0.5v4
			C49.5,13.776,49.276,14,49,14z"/>
	</g>
	<g>
		<path class="st0" d="M54.5,18c-0.276,0-0.5-0.224-0.5-0.5v-4c0-0.276,0.224-0.5,0.5-0.5s0.5,0.224,0.5,0.5v4
			C55,17.776,54.776,18,54.5,18z"/>
	</g>
	<g>
		<path class="st0" d="M9.5,10.741h-2c-0.276,0-0.5-0.224-0.5-0.5s0.224-0.5,0.5-0.5h2c0.276,0,0.5,0.224,0.5,0.5
			S9.776,10.741,9.5,10.741z"/>
	</g>
	<g>
		<path class="st0" d="M21,10.741h-9.5c-0.276,0-0.5-0.224-0.5-0.5s0.224-0.5,0.5-0.5H21c0.276,0,0.5,0.224,0.5,0.5
			S21.276,10.741,21,10.741z"/>
	</g>
	<g>
		<path class="st0" d="M56.5,55h-2c-0.276,0-0.5-0.224-0.5-0.5s0.224-0.5,0.5-0.5h2c0.276,0,0.5,0.224,0.5,0.5S56.776,55,56.5,55z"
			/>
	</g>
	<g>
		<path class="st0" d="M52.5,55H43c-0.276,0-0.5-0.224-0.5-0.5S42.724,54,43,54h9.5c0.276,0,0.5,0.224,0.5,0.5S52.776,55,52.5,55z"
			/>
	</g>
	<g>
		<path class="st0" d="M32,54.997c-0.51,0-1.02-0.128-1.474-0.384l-17-9.59C12.584,44.492,12,43.491,12,42.41V22.33
			c0-1.08,0.584-2.081,1.526-2.612l17-9.59c0.909-0.514,2.039-0.514,2.949,0l17,9.59C51.415,20.249,52,21.25,52,22.33v20.08
			c0,1.08-0.585,2.082-1.525,2.613l0,0l-17,9.59C33.02,54.869,32.51,54.997,32,54.997z M32,10.742c-0.34,0-0.68,0.086-0.983,0.257
			l-17,9.59C13.39,20.942,13,21.61,13,22.33v20.08c0,0.721,0.39,1.389,1.017,1.742l17,9.59c0.606,0.342,1.359,0.342,1.966,0l17-9.59
			C50.61,43.798,51,43.131,51,42.41V22.33c0-0.72-0.39-1.387-1.018-1.741l-17-9.59C32.68,10.828,32.34,10.742,32,10.742z
			 M50.229,44.588h0.01H50.229z"/>
	</g>
	<g>
		<path class="st5" d="M32.246,13.176h0.005H32.246 M32,13.315l16.5,9.308v19.496L32,51.426l-16.5-9.308V22.623L32,13.315"/>
	</g>
	<g>
		<path class="st0" d="M35,23.682c-1.859,0-3.312-1.599-3.373-1.667c-0.17-0.189-0.17-0.477,0-0.666
			c0.061-0.068,1.513-1.667,3.373-1.667s3.312,1.599,3.372,1.667c0.171,0.189,0.171,0.477,0,0.666
			C38.312,22.083,36.859,23.682,35,23.682z M32.724,21.681c0.46,0.396,1.323,1.001,2.276,1.001c0.959,0,1.817-0.604,2.276-0.999
			c-0.461-0.396-1.323-1.001-2.276-1.001C34.041,20.682,33.183,21.286,32.724,21.681z"/>
	</g>
	<g>
		<path class="st0" d="M32,25.182c-0.276,0-0.5-0.224-0.5-0.5v-5c0-0.276,0.224-0.5,0.5-0.5s0.5,0.224,0.5,0.5v5
			C32.5,24.958,32.276,25.182,32,25.182z"/>
	</g>
	<g>
		<path class="st0" d="M40,41.181H29c-2.316,0-4.48-0.915-6.095-2.576c-1.614-1.66-2.467-3.851-2.401-6.169
			c0.121-4.274,3.547-7.888,7.8-8.227c3.418-0.276,6.655,1.514,8.234,4.554l0,0c0.742,1.426,1.646,2.557,2.687,3.363l2.918,2.259
			c0.851,0.657,1.358,1.691,1.358,2.768v0.528C43.5,39.61,41.93,41.181,40,41.181z M28.989,25.182c-0.201,0-0.403,0.008-0.606,0.023
			c-3.751,0.3-6.773,3.488-6.879,7.258c-0.058,2.047,0.694,3.98,2.119,5.445c1.425,1.465,3.334,2.272,5.378,2.272h11
			c1.379,0,2.5-1.121,2.5-2.5v-0.528c0-0.769-0.362-1.507-0.97-1.977l-2.918-2.259c-1.157-0.896-2.153-2.139-2.962-3.693l0,0
			C34.35,26.722,31.78,25.182,28.989,25.182z"/>
	</g>
	<g>
		<path class="st0" d="M33.432,30.877c-0.181,0-0.354-0.098-0.444-0.27c-0.778-1.496-2.311-2.426-4.001-2.426
			c-0.276,0-0.5-0.224-0.5-0.5s0.224-0.5,0.5-0.5c2.064,0,3.938,1.136,4.888,2.965c0.128,0.245,0.032,0.547-0.213,0.674
			C33.589,30.859,33.51,30.877,33.432,30.877z"/>
	</g>
</g>
</svg>
