<?xml version="1.0" encoding="utf-8"?>
<!-- Generator: Adobe Illustrator 22.0.0, SVG Export Plug-In . SVG Version: 6.00 Build 0)  -->
<svg version="1.1" id="Layer_1" xmlns="http://www.w3.org/2000/svg" xmlns:xlink="http://www.w3.org/1999/xlink" x="0px" y="0px"
	 viewBox="0 0 64 64" style="enable-background:new 0 0 64 64;" xml:space="preserve">
<style type="text/css">
	.st0{fill:#263238;}
	.st1{fill:#4FC3F7;}
	.st2{fill:#4DB6AC;}
	.st3{fill:#FF5252;}
	.st4{fill:#FFFFFF;}
	.st5{fill:#FFD740;}
	.st6{fill:#40C4FF;}
</style>
<g>
	<g>
		<path class="st0" d="M17.155,14c-0.062,0-0.126-0.012-0.188-0.037c-0.256-0.104-0.38-0.395-0.276-0.651l0.99-2.443
			c0.256-0.63,0.176-1.339-0.213-1.896L16.04,6.925c-0.598-0.854-0.709-1.938-0.298-2.898l0.953-2.224
			c0.11-0.255,0.404-0.373,0.657-0.263c0.254,0.109,0.371,0.403,0.263,0.656L16.662,4.42c-0.274,0.64-0.2,1.362,0.198,1.932
			l1.429,2.049c0.583,0.835,0.702,1.898,0.32,2.843l-0.99,2.444C17.54,13.882,17.353,14,17.155,14z"/>
	</g>
	<g>
		<path class="st0" d="M12.155,14c-0.062,0-0.126-0.012-0.188-0.037c-0.256-0.104-0.38-0.395-0.276-0.651l0.99-2.443
			c0.256-0.63,0.176-1.339-0.213-1.896L11.04,6.925c-0.598-0.854-0.709-1.938-0.298-2.898l0.953-2.224
			c0.11-0.255,0.404-0.373,0.657-0.263c0.254,0.109,0.371,0.403,0.263,0.656L11.662,4.42c-0.274,0.64-0.2,1.362,0.198,1.932
			l1.429,2.049c0.583,0.835,0.702,1.898,0.32,2.843l-0.99,2.444C12.54,13.882,12.353,14,12.155,14z"/>
	</g>
	<g>
		<path class="st0" d="M22.155,14c-0.062,0-0.126-0.012-0.188-0.037c-0.256-0.104-0.38-0.395-0.276-0.651l0.99-2.443
			c0.256-0.63,0.176-1.339-0.213-1.896L21.04,6.925c-0.598-0.854-0.709-1.938-0.298-2.898l0.953-2.224
			c0.11-0.255,0.405-0.373,0.657-0.263c0.254,0.109,0.371,0.403,0.263,0.656L21.662,4.42c-0.274,0.64-0.2,1.362,0.198,1.932
			l1.429,2.049c0.583,0.835,0.702,1.898,0.32,2.843l-0.99,2.444C22.54,13.882,22.353,14,22.155,14z"/>
	</g>
	<g>
		<path class="st5" d="M0,47L0,47c0,8.284,6.716,15,15,15h34c8.284,0,15-6.716,15-15v0H0z"/>
	</g>
	<g>
		<path class="st0" d="M32,56.5c-0.276,0-0.5-0.224-0.5-0.5V41.5c0-0.276,0.224-0.5,0.5-0.5s0.5,0.224,0.5,0.5V56
			C32.5,56.276,32.276,56.5,32,56.5z"/>
	</g>
	<g>
		<path class="st0" d="M5,35.25H3c-0.276,0-0.5-0.224-0.5-0.5s0.224-0.5,0.5-0.5h2c0.276,0,0.5,0.224,0.5,0.5S5.276,35.25,5,35.25z"
			/>
	</g>
	<g>
		<path class="st0" d="M15,35.25H7c-0.276,0-0.5-0.224-0.5-0.5s0.224-0.5,0.5-0.5h8c0.276,0,0.5,0.224,0.5,0.5
			S15.276,35.25,15,35.25z"/>
	</g>
	<g>
		<path class="st0" d="M61,35.25h-2c-0.276,0-0.5-0.224-0.5-0.5s0.224-0.5,0.5-0.5h2c0.276,0,0.5,0.224,0.5,0.5
			S61.276,35.25,61,35.25z"/>
	</g>
	<g>
		<path class="st0" d="M57,35.25h-8c-0.276,0-0.5-0.224-0.5-0.5s0.224-0.5,0.5-0.5h8c0.276,0,0.5,0.224,0.5,0.5
			S57.276,35.25,57,35.25z"/>
	</g>
	<g>
		<path class="st0" d="M60.885,15h-4c-0.276,0-0.5-0.224-0.5-0.5s0.224-0.5,0.5-0.5h4c0.276,0,0.5,0.224,0.5,0.5
			S61.161,15,60.885,15z"/>
	</g>
	<g>
		<path class="st0" d="M55.885,10.5h-4c-0.276,0-0.5-0.224-0.5-0.5s0.224-0.5,0.5-0.5h4c0.276,0,0.5,0.224,0.5,0.5
			S56.161,10.5,55.885,10.5z"/>
	</g>
	<g>
		<path class="st0" d="M53.885,12.5c-0.276,0-0.5-0.224-0.5-0.5V8c0-0.276,0.224-0.5,0.5-0.5s0.5,0.224,0.5,0.5v4
			C54.385,12.276,54.161,12.5,53.885,12.5z"/>
	</g>
	<g>
		<path class="st0" d="M58.885,17c-0.276,0-0.5-0.224-0.5-0.5v-4c0-0.276,0.224-0.5,0.5-0.5s0.5,0.224,0.5,0.5v4
			C59.385,16.776,59.161,17,58.885,17z"/>
	</g>
	<g>
		<path class="st2" d="M45.081,32.368C39.224,38.226,32,40.5,32,40.5s2.274-7.224,8.132-13.081s13.081-8.132,13.081-8.132
			S50.939,26.51,45.081,32.368z"/>
		<path class="st0" d="M32,41c-0.131,0-0.259-0.051-0.354-0.146c-0.132-0.132-0.18-0.326-0.123-0.503
			c0.094-0.3,2.377-7.408,8.255-13.285c5.876-5.877,12.984-8.161,13.284-8.255c0.18-0.058,0.373-0.008,0.504,0.124
			c0.132,0.132,0.18,0.326,0.123,0.503c-0.094,0.3-2.377,7.408-8.255,13.285l0,0l0,0c-5.876,5.877-12.984,8.161-13.284,8.255
			C32.101,40.993,32.05,41,32,41z M52.378,20.122c-2.156,0.84-7.453,3.21-11.893,7.65c-4.445,4.445-6.812,9.738-7.65,11.893
			c2.156-0.84,7.453-3.21,11.893-7.65l0,0C49.173,27.569,51.539,22.277,52.378,20.122z"/>
	</g>
	<g>
		<path class="st2" d="M18.918,32.368C24.776,38.226,32,40.5,32,40.5s-2.274-7.224-8.132-13.081s-13.081-8.132-13.081-8.132
			S13.061,26.51,18.918,32.368z"/>
		<path class="st0" d="M32,41c-0.05,0-0.101-0.007-0.15-0.023c-0.3-0.094-7.408-2.378-13.285-8.255l0,0
			c-5.877-5.877-8.16-12.985-8.254-13.285c-0.057-0.178-0.009-0.372,0.123-0.503c0.131-0.131,0.323-0.181,0.504-0.124
			c0.3,0.094,7.408,2.378,13.284,8.255c5.877,5.877,8.161,12.985,8.255,13.285c0.057,0.178,0.009,0.372-0.123,0.504
			C32.259,40.949,32.131,41,32,41z M19.271,32.015c4.439,4.439,9.736,6.809,11.893,7.65c-0.841-2.157-3.211-7.453-7.649-11.893
			c-4.438-4.439-9.735-6.809-11.892-7.65C12.463,22.279,14.833,27.575,19.271,32.015L19.271,32.015z"/>
	</g>
	<g>
		<path class="st2" d="M42,44c-5.523,0-10-2.5-10-2.5S36.477,39,42,39s10,2.5,10,2.5S47.523,44,42,44z"/>
		<path class="st0" d="M42,44.5c-5.589,0-10.057-2.459-10.244-2.563C31.598,41.848,31.5,41.681,31.5,41.5s0.098-0.348,0.256-0.437
			C31.943,40.959,36.411,38.5,42,38.5c5.588,0,10.057,2.459,10.244,2.563c0.158,0.088,0.256,0.255,0.256,0.437
			s-0.098,0.348-0.256,0.437C52.057,42.041,47.588,44.5,42,44.5z M33.139,41.5c1.554,0.701,4.958,2,8.861,2
			c3.911,0,7.311-1.298,8.862-2c-1.554-0.701-4.959-2-8.862-2S34.692,40.799,33.139,41.5z"/>
	</g>
	<g>
		<path class="st2" d="M22,44c-5.523,0-10-2.5-10-2.5S16.477,39,22,39s10,2.5,10,2.5S27.523,44,22,44z"/>
		<path class="st0" d="M22,44.5c-5.589,0-10.057-2.459-10.244-2.563C11.598,41.848,11.5,41.681,11.5,41.5s0.098-0.348,0.256-0.437
			C11.943,40.959,16.411,38.5,22,38.5c5.588,0,10.057,2.459,10.244,2.563c0.158,0.088,0.256,0.255,0.256,0.437
			s-0.098,0.348-0.256,0.437C32.057,42.041,27.588,44.5,22,44.5z M13.139,41.5c1.554,0.701,4.958,2,8.861,2
			c3.911,0,7.311-1.298,8.862-2c-1.554-0.701-4.959-2-8.862-2S14.692,40.799,13.139,41.5z"/>
	</g>
	<g>
		<path class="st2" d="M36,23c0,9.389-4,17-4,17s-4-7.611-4-17s4-17,4-17S36,13.611,36,23z"/>
		<path class="st0" d="M32,40.5c-0.186,0-0.356-0.103-0.442-0.268C31.517,40.155,27.5,32.403,27.5,23s4.017-17.155,4.058-17.232
			c0.172-0.329,0.713-0.329,0.885,0C32.483,5.845,36.5,13.597,36.5,23s-4.017,17.155-4.058,17.232
			C32.356,40.397,32.186,40.5,32,40.5z M32,7.165C30.971,9.46,28.5,15.723,28.5,23c0,7.286,2.47,13.542,3.5,15.835
			c1.029-2.295,3.5-8.558,3.5-15.835C35.5,15.714,33.03,9.458,32,7.165z"/>
	</g>
</g>
</svg>
