<?xml version="1.0" encoding="utf-8"?>
<!-- Generator: Adobe Illustrator 22.0.0, SVG Export Plug-In . SVG Version: 6.00 Build 0)  -->
<svg version="1.1" id="Layer_1" xmlns="http://www.w3.org/2000/svg" xmlns:xlink="http://www.w3.org/1999/xlink" x="0px" y="0px"
	 viewBox="0 0 64 64" style="enable-background:new 0 0 64 64;" xml:space="preserve">
<style type="text/css">
	.st0{fill:#263238;}
	.st1{fill:#4FC3F7;}
	.st2{fill:#4DB6AC;}
	.st3{fill:#FF5252;}
	.st4{fill:#FFFFFF;}
	.st5{fill:#FFD740;}
	.st6{fill:#40C4FF;}
</style>
<g>
	<g>
		<path class="st0" d="M51.497,56.368c-0.365,0-0.731-0.134-1.021-0.403L13.722,21.853c-0.603-0.56-0.943-1.321-0.958-2.143
			c-0.015-0.822,0.297-1.596,0.878-2.177l1.751-1.751c0.581-0.582,1.352-0.911,2.177-0.878c0.822,0.015,1.583,0.355,2.144,0.958
			l34.113,36.754c0.55,0.594,0.534,1.508-0.039,2.082l-1.231,1.23C52.263,56.221,51.88,56.368,51.497,56.368z M17.513,15.902
			c-0.534,0-1.034,0.207-1.413,0.586l-1.751,1.751c-0.388,0.388-0.596,0.903-0.585,1.452s0.237,1.056,0.639,1.428l36.754,34.113
			c0,0,0,0,0,0c0.197,0.183,0.502,0.178,0.693-0.013l1.23-1.23c0.191-0.191,0.196-0.496,0.013-0.694L18.98,16.542
			c-0.373-0.402-0.88-0.629-1.429-0.64C17.539,15.902,17.526,15.902,17.513,15.902z"/>
	</g>
	<g>
		<path class="st0" d="M14.871,17.51c-0.038,0-0.075-0.004-0.112-0.013l-4.596-1.061c-0.177-0.041-0.318-0.175-0.368-0.35
			c-0.05-0.175-0.001-0.363,0.127-0.491l3.536-3.536c0.128-0.129,0.316-0.178,0.491-0.127c0.175,0.05,0.309,0.191,0.35,0.368
			l1.061,4.596c0.039,0.168-0.012,0.344-0.134,0.466C15.129,17.458,15.001,17.51,14.871,17.51z M11.266,15.666l2.938,0.678
			l-0.678-2.938L11.266,15.666z"/>
	</g>
	<g>
		<path class="st5" d="M53.46,52.956L42.202,40.826l-3.515,3.515l12.129,11.258c0.394,0.366,1.007,0.354,1.387-0.026l1.23-1.23
			C53.814,53.963,53.826,53.35,53.46,52.956z"/>
		<path class="st0" d="M51.497,56.368c-0.365,0-0.731-0.134-1.021-0.403L38.347,44.708c-0.1-0.093-0.157-0.222-0.16-0.357
			s0.05-0.267,0.146-0.363l3.515-3.515c0.096-0.096,0.229-0.155,0.363-0.146c0.136,0.002,0.265,0.06,0.357,0.16l11.258,12.129
			c0,0,0,0,0,0c0.55,0.594,0.534,1.508-0.039,2.081l-1.231,1.23C52.263,56.221,51.88,56.368,51.497,56.368z M39.408,44.328
			l11.749,10.904c0.197,0.184,0.502,0.178,0.693-0.013l1.23-1.23c0.19-0.191,0.196-0.496,0.013-0.694L42.189,41.547L39.408,44.328z"
			/>
	</g>
	<g>
		<path class="st3" d="M38.892,34.32l14.676-14.676c0.391-0.391,0.391-1.024,0-1.414l-5.657-5.657c-0.391-0.391-1.024-0.391-1.414,0
			L32.084,26.986L38.892,34.32z"/>
	</g>
	<g>
		<path class="st3" d="M24.846,34.224l-8.755,8.755c-0.391,0.391-0.391,1.024,0,1.414l5.657,5.657c0.391,0.391,1.024,0.391,1.414,0
			l9.019-9.019L24.846,34.224z"/>
	</g>
	<g>
		<path class="st0" d="M15.384,56.5c-0.401,0-0.778-0.156-1.061-0.439l-4.242-4.243c-0.283-0.283-0.439-0.66-0.439-1.061
			c0-0.401,0.156-0.778,0.439-1.061l4.243-4.242c0.195-0.195,0.512-0.195,0.707,0s0.195,0.512,0,0.707l-4.243,4.243
			c-0.095,0.095-0.146,0.22-0.146,0.354c0,0.133,0.052,0.259,0.146,0.354l4.243,4.243c0.189,0.189,0.518,0.189,0.707,0l4.243-4.243
			c0.195-0.195,0.512-0.195,0.707,0s0.195,0.512,0,0.707l-4.243,4.243C16.161,56.344,15.784,56.5,15.384,56.5z"/>
	</g>
	<g>
		<path class="st0" d="M52.153,21.559c-0.128,0-0.256-0.049-0.354-0.146l-7.071-7.071c-0.195-0.195-0.195-0.512,0-0.707
			s0.512-0.195,0.707,0l7.071,7.071c0.195,0.195,0.195,0.512,0,0.707C52.409,21.51,52.281,21.559,52.153,21.559z"/>
	</g>
	<g>
		<path class="st0" d="M38.892,34.82c-0.128,0-0.256-0.049-0.354-0.146c-0.195-0.195-0.195-0.512,0-0.707l14.676-14.676
			c0.094-0.095,0.146-0.22,0.146-0.354c0-0.134-0.052-0.259-0.146-0.353l-5.657-5.658c-0.195-0.195-0.512-0.194-0.708,0
			L32.438,27.339c-0.195,0.195-0.512,0.195-0.707,0s-0.195-0.512,0-0.707L46.143,12.22c0.584-0.583,1.536-0.585,2.122,0l5.657,5.658
			c0.283,0.283,0.439,0.66,0.439,1.061c0,0.4-0.156,0.777-0.439,1.061L39.245,34.674C39.147,34.771,39.02,34.82,38.892,34.82z"/>
	</g>
	<g>
		<path class="st0" d="M22.455,50.842c-0.384,0-0.768-0.146-1.061-0.438l-5.657-5.658c-0.585-0.585-0.585-1.536,0-2.121l8.755-8.755
			c0.195-0.195,0.512-0.195,0.707,0s0.195,0.512,0,0.707l-8.755,8.755c-0.195,0.195-0.195,0.512,0,0.707l5.657,5.657
			c0.195,0.194,0.512,0.194,0.707,0l9.019-9.019c0.195-0.195,0.512-0.195,0.707,0s0.195,0.512,0,0.707l-9.019,9.019
			C23.223,50.696,22.839,50.842,22.455,50.842z"/>
	</g>
	<g>
		<path class="st0" d="M7,34.64H5c-0.276,0-0.5-0.224-0.5-0.5s0.224-0.5,0.5-0.5h2c0.276,0,0.5,0.224,0.5,0.5S7.277,34.64,7,34.64z"
			/>
	</g>
	<g>
		<path class="st0" d="M17,34.64H9c-0.276,0-0.5-0.224-0.5-0.5s0.224-0.5,0.5-0.5h8c0.276,0,0.5,0.224,0.5,0.5
			S17.277,34.64,17,34.64z"/>
	</g>
	<g>
		<path class="st0" d="M59,34.64h-2c-0.276,0-0.5-0.224-0.5-0.5s0.224-0.5,0.5-0.5h2c0.276,0,0.5,0.224,0.5,0.5
			S59.277,34.64,59,34.64z"/>
	</g>
	<g>
		<path class="st0" d="M55,34.64h-8c-0.276,0-0.5-0.224-0.5-0.5s0.224-0.5,0.5-0.5h8c0.276,0,0.5,0.224,0.5,0.5
			S55.277,34.64,55,34.64z"/>
	</g>
	<g>
		<path class="st0" d="M34,15.5h-4c-0.276,0-0.5-0.224-0.5-0.5s0.224-0.5,0.5-0.5h4c0.276,0,0.5,0.224,0.5,0.5S34.277,15.5,34,15.5z
			"/>
	</g>
	<g>
		<path class="st0" d="M39,10.5h-4c-0.276,0-0.5-0.224-0.5-0.5s0.224-0.5,0.5-0.5h4c0.276,0,0.5,0.224,0.5,0.5S39.277,10.5,39,10.5z
			"/>
	</g>
	<g>
		<path class="st0" d="M37,12.5c-0.276,0-0.5-0.224-0.5-0.5V8c0-0.276,0.224-0.5,0.5-0.5s0.5,0.224,0.5,0.5v4
			C37.5,12.276,37.277,12.5,37,12.5z"/>
	</g>
	<g>
		<path class="st0" d="M32,17.5c-0.276,0-0.5-0.224-0.5-0.5v-4c0-0.276,0.224-0.5,0.5-0.5s0.5,0.224,0.5,0.5v4
			C32.5,17.276,32.277,17.5,32,17.5z"/>
	</g>
</g>
</svg>
