<?xml version="1.0" encoding="utf-8"?>
<!-- Generator: Adobe Illustrator 22.0.0, SVG Export Plug-In . SVG Version: 6.00 Build 0)  -->
<svg version="1.1" id="Layer_1" xmlns="http://www.w3.org/2000/svg" xmlns:xlink="http://www.w3.org/1999/xlink" x="0px" y="0px"
	 viewBox="0 0 64 64" style="enable-background:new 0 0 64 64;" xml:space="preserve">
<style type="text/css">
	.st0{fill:#263238;}
	.st1{fill:#4FC3F7;}
	.st2{fill:#4DB6AC;}
	.st3{fill:#FF5252;}
	.st4{fill:#FFFFFF;}
	.st5{fill:#FFD740;}
	.st6{fill:#40C4FF;}
</style>
<g>
	<g>
		<path class="st2" d="M39,40.749c3.866,0,7-2,7-2s-3.134-2-7-2s-7,2-7,2S35.134,40.749,39,40.749z"/>
	</g>
	<g>
		<path class="st0" d="M4,32.499c-0.276,0-0.5-0.224-0.5-0.5c0-15.715,12.785-28.5,28.5-28.5c0.276,0,0.5,0.224,0.5,0.5
			s-0.224,0.5-0.5,0.5c-15.164,0-27.5,12.337-27.5,27.5C4.5,32.275,4.276,32.499,4,32.499z"/>
	</g>
	<g>
		<path class="st0" d="M35,4.499h-1c-0.276,0-0.5-0.224-0.5-0.5s0.224-0.5,0.5-0.5h1c0.276,0,0.5,0.224,0.5,0.5
			S35.276,4.499,35,4.499z"/>
	</g>
	<g>
		<path class="st0" d="M32,60.499c-0.276,0-0.5-0.224-0.5-0.5s0.224-0.5,0.5-0.5c15.164,0,27.5-12.337,27.5-27.5
			c0-0.276,0.224-0.5,0.5-0.5s0.5,0.224,0.5,0.5C60.5,47.714,47.715,60.499,32,60.499z"/>
	</g>
	<g>
		<path class="st0" d="M30,60.499h-1c-0.276,0-0.5-0.224-0.5-0.5s0.224-0.5,0.5-0.5h1c0.276,0,0.5,0.224,0.5,0.5
			S30.276,60.499,30,60.499z"/>
	</g>
	<g>
		<path class="st0" d="M53,6.499h-4c-0.276,0-0.5-0.224-0.5-0.5s0.224-0.5,0.5-0.5h4c0.276,0,0.5,0.224,0.5,0.5
			S53.276,6.499,53,6.499z"/>
	</g>
	<g>
		<path class="st0" d="M51,8.499c-0.276,0-0.5-0.224-0.5-0.5v-4c0-0.276,0.224-0.5,0.5-0.5s0.5,0.224,0.5,0.5v4
			C51.5,8.275,51.276,8.499,51,8.499z"/>
	</g>
	<g>
		<path class="st0" d="M60,12.999h-4c-0.276,0-0.5-0.224-0.5-0.5s0.224-0.5,0.5-0.5h4c0.276,0,0.5,0.224,0.5,0.5
			S60.276,12.999,60,12.999z"/>
	</g>
	<g>
		<path class="st0" d="M58,14.999c-0.276,0-0.5-0.224-0.5-0.5v-4c0-0.276,0.224-0.5,0.5-0.5s0.5,0.224,0.5,0.5v4
			C58.5,14.775,58.276,14.999,58,14.999z"/>
	</g>
	<g>
		<path class="st3" d="M32,7.999c-13.255,0-24,10.745-24,24s10.745,24,24,24s24-10.745,24-24S45.255,7.999,32,7.999z M32,11.999
			c4.802,0,9.207,1.696,12.655,4.517L16.517,44.654C13.696,41.207,12,36.802,12,31.999C12,20.954,20.954,11.999,32,11.999z
			 M32,51.999c-4.802,0-9.207-1.696-12.655-4.517l28.138-28.138C50.304,22.792,52,27.197,52,31.999
			C52,43.045,43.046,51.999,32,51.999z"/>
		<path class="st0" d="M32,56.499c-13.509,0-24.5-10.99-24.5-24.5s10.991-24.5,24.5-24.5s24.5,10.99,24.5,24.5
			S45.509,56.499,32,56.499z M32,8.499c-12.958,0-23.5,10.542-23.5,23.5s10.542,23.5,23.5,23.5s23.5-10.542,23.5-23.5
			S44.958,8.499,32,8.499z M32,52.499c-4.716,0-9.323-1.645-12.971-4.63c-0.109-0.089-0.176-0.221-0.183-0.362
			c-0.007-0.141,0.046-0.278,0.146-0.378l28.138-28.138c0.1-0.1,0.241-0.167,0.378-0.146c0.141,0.007,0.272,0.073,0.362,0.183
			c2.986,3.648,4.63,8.255,4.63,12.971C52.5,43.303,43.304,52.499,32,52.499z M20.095,47.439c3.398,2.622,7.604,4.06,11.905,4.06
			c10.752,0,19.5-8.748,19.5-19.5c0-4.302-1.438-8.507-4.06-11.904L20.095,47.439z M16.517,45.154c-0.008,0-0.017,0-0.025-0.001
			c-0.141-0.007-0.272-0.073-0.362-0.183c-2.986-3.648-4.63-8.255-4.63-12.972c0-11.304,9.196-20.5,20.5-20.5
			c4.716,0,9.322,1.645,12.971,4.631c0.109,0.089,0.176,0.221,0.183,0.362c0.007,0.141-0.046,0.278-0.146,0.378L16.871,45.008
			C16.777,45.102,16.649,45.154,16.517,45.154z M32,12.499c-10.752,0-19.5,8.748-19.5,19.5c0,4.302,1.438,8.508,4.06,11.905
			L43.905,16.56C40.506,13.937,36.301,12.499,32,12.499z"/>
	</g>
	<g>
		<path class="st2" d="M32,16.749c0,0-3,4.925-3,11c0,0.519,0.029,1.025,0.069,1.525l5.518-5.518C33.765,19.658,32,16.749,32,16.749
			z"/>
	</g>
	<g>
		<path class="st2" d="M26.696,29.911c-3.905-3.905-8.839-5.303-8.839-5.303s1.398,4.934,5.303,8.839
			c0.295,0.295,0.596,0.57,0.9,0.837l3.473-3.473C27.266,30.506,26.991,30.205,26.696,29.911z"/>
	</g>
	<g>
		<path class="st0" d="M29.068,29.774c-0.258,0-0.477-0.198-0.498-0.46c-0.041-0.514-0.07-1.032-0.07-1.565
			c0-6.145,2.948-11.054,3.073-11.26c0.091-0.149,0.253-0.24,0.427-0.24h0c0.175,0,0.336,0.092,0.427,0.24
			c0.074,0.122,1.819,3.032,2.648,7.169c0.054,0.271-0.121,0.534-0.392,0.589c-0.27,0.055-0.535-0.121-0.588-0.392
			c-0.547-2.73-1.532-4.938-2.096-6.056c-0.812,1.607-2.5,5.482-2.5,9.949c0,0.506,0.028,0.999,0.067,1.485
			c0.022,0.275-0.184,0.517-0.458,0.538C29.095,29.773,29.081,29.774,29.068,29.774z"/>
	</g>
	<g>
		<path class="st0" d="M24.061,34.783c-0.117,0-0.235-0.041-0.33-0.124c-0.312-0.273-0.621-0.558-0.923-0.859
			c-3.952-3.952-5.373-8.85-5.431-9.056c-0.049-0.175,0-0.362,0.127-0.49s0.314-0.18,0.49-0.128
			c0.207,0.059,5.104,1.479,9.056,5.431c0.303,0.303,0.586,0.612,0.859,0.925c0.182,0.208,0.161,0.524-0.047,0.706
			c-0.209,0.18-0.525,0.16-0.706-0.048c-0.259-0.297-0.527-0.589-0.814-0.876c-2.765-2.765-6.087-4.251-7.68-4.852
			c0.603,1.594,2.092,4.92,4.852,7.681c0.287,0.286,0.581,0.555,0.876,0.814c0.208,0.183,0.228,0.498,0.046,0.706
			C24.337,34.726,24.199,34.783,24.061,34.783z"/>
	</g>
	<g>
		<path class="st0" d="M39,41.249c-3.966,0-7.136-1.993-7.269-2.078c-0.144-0.092-0.231-0.251-0.231-0.422s0.087-0.33,0.231-0.422
			c0.133-0.085,3.303-2.078,7.269-2.078c3.967,0,7.136,1.993,7.269,2.078c0.144,0.092,0.231,0.251,0.231,0.422
			s-0.087,0.33-0.231,0.422C46.136,39.256,42.966,41.249,39,41.249z M33.039,38.749c1.132,0.565,3.392,1.5,5.96,1.5
			s4.828-0.935,5.96-1.5c-1.132-0.565-3.392-1.5-5.96-1.5S34.171,38.184,33.039,38.749z"/>
	</g>
	<g>
		<path class="st2" d="M46.142,24.607c0,0-0.677,0.193-1.724,0.631L31.613,38.043c0.232,0.448,0.386,0.705,0.386,0.706l0,0l0,0l0,0
			l0,0c0.006-0.001,4.935-1.4,8.838-5.303C44.744,29.541,46.142,24.607,46.142,24.607z"/>
	</g>
	<g>
		<path class="st0" d="M32,39.249c-0.218,0-0.418-0.144-0.481-0.363c-0.075-0.266,0.079-0.542,0.344-0.618
			c0.048-0.014,4.86-1.413,8.622-5.175c2.761-2.762,4.25-6.089,4.852-7.682c-0.213,0.08-0.457,0.176-0.726,0.288
			c-0.255,0.106-0.548-0.013-0.655-0.268c-0.106-0.255,0.014-0.548,0.268-0.654c1.062-0.445,1.751-0.643,1.78-0.65
			c0.174-0.054,0.362-0.001,0.49,0.127c0.128,0.128,0.177,0.315,0.127,0.49c-0.059,0.206-1.479,5.104-5.431,9.056
			s-8.85,5.372-9.056,5.431C32.09,39.243,32.044,39.249,32,39.249z"/>
	</g>
	<g>
		<path class="st0" d="M35.183,42.249c-0.136,0-0.271-0.055-0.37-0.164l-3.183-3.5c-0.186-0.204-0.17-0.521,0.034-0.706
			c0.205-0.185,0.52-0.172,0.707,0.034l3.183,3.5c0.186,0.204,0.17,0.521-0.034,0.706C35.424,42.206,35.303,42.249,35.183,42.249z"
			/>
	</g>
	<g>
		<path class="st0" d="M32,46.249c-0.276,0-0.5-0.224-0.5-0.5v-7.5c0-0.276,0.224-0.5,0.5-0.5s0.5,0.224,0.5,0.5v7.5
			C32.5,46.025,32.276,46.249,32,46.249z"/>
	</g>
</g>
</svg>
