<?xml version="1.0" encoding="utf-8"?>
<!-- Generator: Adobe Illustrator 22.0.0, SVG Export Plug-In . SVG Version: 6.00 Build 0)  -->
<svg version="1.1" id="Layer_1" xmlns="http://www.w3.org/2000/svg" xmlns:xlink="http://www.w3.org/1999/xlink" x="0px" y="0px"
	 viewBox="0 0 64 64" style="enable-background:new 0 0 64 64;" xml:space="preserve">
<style type="text/css">
	.st0{fill:#263238;}
	.st1{fill:#4FC3F7;}
	.st2{fill:#4DB6AC;}
	.st3{fill:#FF5252;}
	.st4{fill:#FFFFFF;}
	.st5{fill:#FFD740;}
	.st6{fill:#40C4FF;}
</style>
<g>
	<g>
		<path class="st6" d="M21.749,47.5H9.999c-0.552,0-1-0.448-1-1v-9c0-0.552,0.448-1,1-1h11.75c0.552,0,1,0.448,1,1v9
			C22.749,47.052,22.302,47.5,21.749,47.5z"/>
		<path class="st0" d="M21.749,48H9.999c-0.827,0-1.5-0.673-1.5-1.5v-9c0-0.827,0.673-1.5,1.5-1.5h11.75c0.827,0,1.5,0.673,1.5,1.5
			v9C23.249,47.327,22.576,48,21.749,48z M9.999,37c-0.275,0-0.5,0.225-0.5,0.5v9c0,0.275,0.225,0.5,0.5,0.5h11.75
			c0.275,0,0.5-0.225,0.5-0.5v-9c0-0.275-0.225-0.5-0.5-0.5H9.999z"/>
	</g>
	<g>
		<path class="st6" d="M53.999,47.5h-11.75c-0.552,0-1-0.448-1-1v-9c0-0.552,0.448-1,1-1h11.75c0.552,0,1,0.448,1,1v9
			C54.999,47.052,54.552,47.5,53.999,47.5z"/>
		<path class="st0" d="M53.999,48h-11.75c-0.827,0-1.5-0.673-1.5-1.5v-9c0-0.827,0.673-1.5,1.5-1.5h11.75c0.827,0,1.5,0.673,1.5,1.5
			v9C55.499,47.327,54.826,48,53.999,48z M42.249,37c-0.275,0-0.5,0.225-0.5,0.5v9c0,0.275,0.225,0.5,0.5,0.5h11.75
			c0.275,0,0.5-0.225,0.5-0.5v-9c0-0.275-0.225-0.5-0.5-0.5H42.249z"/>
	</g>
	<g>
		<polygon class="st3" points="18.499,15.5 13.999,25.5 1.999,25.5 8.499,15.5 		"/>
		<path class="st0" d="M13.999,26h-12c-0.184,0-0.352-0.101-0.439-0.262s-0.08-0.357,0.021-0.511l6.5-10
			C8.172,15.086,8.33,15,8.499,15h10c0.17,0,0.328,0.086,0.42,0.229s0.105,0.322,0.036,0.477l-4.5,10
			C14.374,25.885,14.195,26,13.999,26z M2.92,25h10.756l4.05-9H8.771L2.92,25z"/>
	</g>
	<g>
		<path class="st0" d="M57.999,56c-0.276,0-0.5-0.224-0.5-0.5v-30c0-0.276,0.224-0.5,0.5-0.5s0.5,0.224,0.5,0.5v30
			C58.499,55.776,58.275,56,57.999,56z"/>
	</g>
	<g>
		<path class="st0" d="M5.999,56c-0.276,0-0.5-0.224-0.5-0.5v-30c0-0.276,0.224-0.5,0.5-0.5s0.5,0.224,0.5,0.5v30
			C6.499,55.776,6.275,56,5.999,56z"/>
	</g>
	<g>
		<path class="st0" d="M38.249,56c-0.276,0-0.5-0.224-0.5-0.5v-18c0-0.275-0.225-0.5-0.5-0.5h-10.5c-0.275,0-0.5,0.225-0.5,0.5v18
			c0,0.276-0.224,0.5-0.5,0.5s-0.5-0.224-0.5-0.5v-18c0-0.827,0.673-1.5,1.5-1.5h10.5c0.827,0,1.5,0.673,1.5,1.5v18
			C38.749,55.776,38.525,56,38.249,56z"/>
	</g>
	<g>
		<path class="st0" d="M36.249,47.969c-0.276,0-0.5-0.224-0.5-0.5v-2.938c0-0.276,0.224-0.5,0.5-0.5s0.5,0.224,0.5,0.5v2.938
			C36.749,47.745,36.525,47.969,36.249,47.969z"/>
	</g>
	<g>
		<path class="st3" d="M7.999,31.5c3.314,0,6-2.686,6-6h-12C1.999,28.814,4.686,31.5,7.999,31.5z"/>
		<path class="st0" d="M7.999,32c-3.584,0-6.5-2.916-6.5-6.5c0-0.276,0.224-0.5,0.5-0.5h12c0.276,0,0.5,0.224,0.5,0.5
			C14.499,29.084,11.583,32,7.999,32z M2.521,26c0.253,2.8,2.613,5,5.478,5s5.225-2.2,5.478-5H2.521z"/>
	</g>
	<g>
		<path class="st3" d="M31.999,31.5c3.314,0,6-2.686,6-6h-12C25.999,28.814,28.686,31.5,31.999,31.5z"/>
		<path class="st0" d="M31.999,32c-3.584,0-6.5-2.916-6.5-6.5c0-0.276,0.224-0.5,0.5-0.5h12c0.276,0,0.5,0.224,0.5,0.5
			C38.499,29.084,35.583,32,31.999,32z M26.521,26c0.253,2.8,2.613,5,5.478,5s5.225-2.2,5.478-5H26.521z"/>
	</g>
	<g>
		<path class="st3" d="M55.999,31.5c3.314,0,6-2.686,6-6h-12C49.999,28.814,52.686,31.5,55.999,31.5z"/>
		<path class="st0" d="M55.999,32c-3.584,0-6.5-2.916-6.5-6.5c0-0.276,0.224-0.5,0.5-0.5h12c0.276,0,0.5,0.224,0.5,0.5
			C62.499,29.084,59.583,32,55.999,32z M50.521,26c0.253,2.8,2.613,5,5.478,5s5.225-2.2,5.478-5H50.521z"/>
	</g>
	<g>
		<polygon class="st3" points="45.499,15.5 49.999,25.5 61.999,25.5 55.499,15.5 		"/>
		<path class="st0" d="M61.999,26h-12c-0.196,0-0.375-0.115-0.456-0.295l-4.5-10c-0.069-0.154-0.056-0.334,0.036-0.477
			S45.329,15,45.499,15h10c0.169,0,0.327,0.086,0.419,0.228l6.5,10c0.101,0.153,0.108,0.35,0.021,0.511S62.183,26,61.999,26z
			 M50.322,25h10.756l-5.851-9h-8.955L50.322,25z"/>
	</g>
	<g>
		<path class="st0" d="M19.999,32c-3.584,0-6.5-2.916-6.5-6.5c0-0.276,0.224-0.5,0.5-0.5h12c0.276,0,0.5,0.224,0.5,0.5
			C26.499,29.084,23.583,32,19.999,32z M14.521,26c0.253,2.8,2.613,5,5.478,5s5.225-2.2,5.478-5H14.521z"/>
	</g>
	<g>
		<path class="st0" d="M43.999,32c-3.584,0-6.5-2.916-6.5-6.5c0-0.276,0.224-0.5,0.5-0.5h12c0.276,0,0.5,0.224,0.5,0.5
			C50.499,29.084,47.583,32,43.999,32z M38.521,26c0.253,2.8,2.613,5,5.478,5s5.225-2.2,5.478-5H38.521z"/>
	</g>
	<g>
		<path class="st0" d="M60.999,62h-58c-0.827,0-1.5-0.673-1.5-1.5v-2c0-0.827,0.673-1.5,1.5-1.5h58c0.827,0,1.5,0.673,1.5,1.5v2
			C62.499,61.327,61.826,62,60.999,62z M2.999,58c-0.275,0-0.5,0.225-0.5,0.5v2c0,0.275,0.225,0.5,0.5,0.5h58
			c0.275,0,0.5-0.225,0.5-0.5v-2c0-0.275-0.225-0.5-0.5-0.5H2.999z"/>
	</g>
	<g>
		<path class="st1" d="M9.999,6.5c0-1.105-0.895-2-2-2s-2,0.895-2,2c-1.105,0-2,0.895-2,2s0.895,2,2,2h4c1.105,0,2-0.895,2-2
			S11.104,6.5,9.999,6.5z"/>
	</g>
	<g>
		<path class="st0" d="M58.499,7h-4c-0.276,0-0.5-0.224-0.5-0.5s0.224-0.5,0.5-0.5h4c0.276,0,0.5,0.224,0.5,0.5S58.775,7,58.499,7z"
			/>
	</g>
	<g>
		<path class="st0" d="M56.499,9c-0.276,0-0.5-0.224-0.5-0.5v-4c0-0.276,0.224-0.5,0.5-0.5s0.5,0.224,0.5,0.5v4
			C56.999,8.776,56.775,9,56.499,9z"/>
	</g>
	<g>
		<path class="st0" d="M61.999,12h-4c-0.276,0-0.5-0.224-0.5-0.5s0.224-0.5,0.5-0.5h4c0.276,0,0.5,0.224,0.5,0.5
			S62.275,12,61.999,12z"/>
	</g>
	<g>
		<path class="st0" d="M59.999,14c-0.276,0-0.5-0.224-0.5-0.5v-4c0-0.276,0.224-0.5,0.5-0.5s0.5,0.224,0.5,0.5v4
			C60.499,13.776,60.275,14,59.999,14z"/>
	</g>
	<g>
		<circle class="st2" cx="31.999" cy="11.5" r="9"/>
		<path class="st0" d="M31.999,21c-5.238,0-9.5-4.262-9.5-9.5s4.262-9.5,9.5-9.5s9.5,4.262,9.5,9.5S37.237,21,31.999,21z M31.999,3
			c-4.687,0-8.5,3.813-8.5,8.5s3.813,8.5,8.5,8.5s8.5-3.813,8.5-8.5S36.686,3,31.999,3z"/>
	</g>
	<g>
		<path class="st0" d="M25.999,26h-12c-0.17,0-0.328-0.086-0.42-0.229s-0.105-0.322-0.036-0.477l4.5-10
			c0.081-0.18,0.26-0.295,0.456-0.295h3.262c0.276,0,0.5,0.224,0.5,0.5s-0.224,0.5-0.5,0.5h-2.938l-4.05,9h10.796l0.595-3.962
			c0.041-0.274,0.295-0.463,0.568-0.42c0.273,0.041,0.461,0.295,0.42,0.568l-0.658,4.388C26.457,25.819,26.246,26,25.999,26z"/>
	</g>
	<g>
		<path class="st3" d="M31.999,22.5c-1.94,0-3.76-0.506-5.342-1.388L25.999,25.5h12l-0.658-4.388
			C35.759,21.994,33.939,22.5,31.999,22.5z"/>
	</g>
	<g>
		<path class="st0" d="M37.999,26h-12c-0.146,0-0.284-0.063-0.379-0.174s-0.137-0.257-0.115-0.4l0.658-4.388
			c0.041-0.274,0.295-0.463,0.568-0.42c0.273,0.041,0.461,0.295,0.42,0.568L26.58,25h10.839l-0.571-3.813
			c-0.041-0.273,0.147-0.527,0.42-0.568c0.273-0.038,0.527,0.146,0.568,0.42l0.657,4.388c0.021,0.145-0.021,0.29-0.115,0.4
			S38.145,26,37.999,26z"/>
	</g>
	<g>
		<path class="st0" d="M49.999,26h-12c-0.247,0-0.458-0.181-0.494-0.426l-0.657-4.388c-0.041-0.273,0.147-0.527,0.42-0.568
			c0.273-0.038,0.527,0.146,0.568,0.42L38.43,25h10.796l-4.05-9h-2.938c-0.276,0-0.5-0.224-0.5-0.5s0.224-0.5,0.5-0.5h3.261
			c0.196,0,0.375,0.115,0.456,0.295l4.5,10c0.069,0.154,0.056,0.334-0.036,0.477S50.169,26,49.999,26z"/>
	</g>
	<g>
		<path class="st4" d="M35.889,13.232C34.326,14.794,31.999,15,31.999,15s0.206-2.327,1.768-3.889
			c1.562-1.562,3.889-1.768,3.889-1.768S37.451,11.67,35.889,13.232z"/>
		<path class="st0" d="M31.999,15.5c-0.132,0-0.26-0.053-0.354-0.146c-0.104-0.104-0.157-0.25-0.145-0.397
			c0.009-0.103,0.241-2.527,1.913-4.198c1.671-1.672,4.096-1.904,4.198-1.913c0.148-0.007,0.294,0.041,0.397,0.145
			c0.104,0.104,0.157,0.25,0.145,0.397c-0.009,0.103-0.241,2.527-1.912,4.199l0,0c-1.672,1.671-4.097,1.903-4.199,1.912
			C32.028,15.499,32.014,15.5,31.999,15.5z M37.043,9.957c-0.751,0.173-1.996,0.582-2.922,1.508
			c-0.925,0.925-1.335,2.169-1.508,2.921c0.752-0.173,1.997-0.582,2.922-1.507C36.465,11.948,36.872,10.707,37.043,9.957z
			 M35.889,13.232h0.01H35.889z"/>
	</g>
	<g>
		<path class="st4" d="M28.11,13.232C29.673,14.794,31.999,15,31.999,15s-0.206-2.327-1.768-3.889s-3.889-1.768-3.889-1.768
			S26.548,11.67,28.11,13.232z"/>
		<path class="st0" d="M31.999,15.5c-0.015,0-0.029-0.001-0.044-0.002c-0.103-0.009-2.526-0.241-4.198-1.912l0,0
			c-1.672-1.672-1.903-4.097-1.912-4.199c-0.013-0.147,0.04-0.293,0.145-0.397c0.104-0.104,0.253-0.151,0.397-0.145
			c0.103,0.009,2.527,0.241,4.198,1.913c1.672,1.671,1.903,4.096,1.912,4.198c0.013,0.147-0.04,0.293-0.145,0.397
			C32.259,15.447,32.131,15.5,31.999,15.5z M28.464,12.879c0.925,0.925,2.169,1.334,2.921,1.507
			c-0.173-0.752-0.581-1.996-1.507-2.921c-0.925-0.926-2.169-1.335-2.921-1.508C27.13,10.709,27.538,11.953,28.464,12.879
			L28.464,12.879z"/>
	</g>
	<g>
		<path class="st0" d="M35.183,17c-0.071,0-0.145-0.016-0.213-0.048l-2.971-1.399l-2.97,1.399c-0.248,0.117-0.548,0.012-0.665-0.239
			c-0.118-0.249-0.011-0.548,0.239-0.665l3.183-1.5c0.135-0.064,0.291-0.064,0.426,0l3.184,1.5c0.25,0.117,0.357,0.415,0.239,0.665
			C35.55,16.895,35.37,17,35.183,17z"/>
	</g>
	<g>
		<path class="st0" d="M31.999,18c-0.276,0-0.5-0.224-0.5-0.5V15c0-0.276,0.224-0.5,0.5-0.5s0.5,0.224,0.5,0.5v2.5
			C32.499,17.776,32.275,18,31.999,18z"/>
	</g>
	<g>
		<path class="st4" d="M33.499,10c0,2.761-1.5,5-1.5,5s-1.5-2.239-1.5-5s1.5-5,1.5-5S33.499,7.239,33.499,10z"/>
		<path class="st0" d="M31.999,15.5c-0.167,0-0.322-0.083-0.415-0.222c-0.065-0.097-1.585-2.397-1.585-5.278s1.52-5.182,1.585-5.278
			c0.186-0.277,0.645-0.277,0.83,0c0.065,0.097,1.585,2.397,1.585,5.278s-1.52,5.182-1.585,5.278
			C32.321,15.417,32.166,15.5,31.999,15.5z M31.999,6.025c-0.418,0.845-1,2.319-1,3.975s0.582,3.13,1,3.975
			c0.418-0.845,1-2.319,1-3.975S32.417,6.87,31.999,6.025z"/>
	</g>
	<g>
		<path class="st0" d="M51.999,45.5c-0.276,0-0.5-0.224-0.5-0.5v-6c0-0.276,0.224-0.5,0.5-0.5s0.5,0.224,0.5,0.5v6
			C52.499,45.276,52.275,45.5,51.999,45.5z"/>
	</g>
	<g>
		<path class="st0" d="M19.749,45.5c-0.276,0-0.5-0.224-0.5-0.5v-6c0-0.276,0.224-0.5,0.5-0.5s0.5,0.224,0.5,0.5v6
			C20.249,45.276,20.025,45.5,19.749,45.5z"/>
	</g>
</g>
</svg>
