<?xml version="1.0" encoding="utf-8"?>
<!-- Generator: Adobe Illustrator 22.0.0, SVG Export Plug-In . SVG Version: 6.00 Build 0)  -->
<svg version="1.1" id="Layer_1" xmlns="http://www.w3.org/2000/svg" xmlns:xlink="http://www.w3.org/1999/xlink" x="0px" y="0px"
	 viewBox="0 0 64 64" style="enable-background:new 0 0 64 64;" xml:space="preserve">
<style type="text/css">
	.st0{fill:#263238;}
	.st1{fill:#4FC3F7;}
	.st2{fill:#4DB6AC;}
	.st3{fill:#FF5252;}
	.st4{fill:#FFFFFF;}
	.st5{fill:#FFD740;}
	.st6{fill:#40C4FF;}
</style>
<g>
	<g>
		<path class="st0" d="M55,8h-4c-0.276,0-0.5-0.224-0.5-0.5S50.724,7,51,7h4c0.276,0,0.5,0.224,0.5,0.5S55.276,8,55,8z"/>
	</g>
	<g>
		<path class="st0" d="M53,10c-0.276,0-0.5-0.224-0.5-0.5v-4C52.5,5.224,52.724,5,53,5s0.5,0.224,0.5,0.5v4
			C53.5,9.776,53.276,10,53,10z"/>
	</g>
	<g>
		<path class="st0" d="M50,13h-4c-0.276,0-0.5-0.224-0.5-0.5S45.724,12,46,12h4c0.276,0,0.5,0.224,0.5,0.5S50.276,13,50,13z"/>
	</g>
	<g>
		<path class="st0" d="M48,15c-0.276,0-0.5-0.224-0.5-0.5v-4c0-0.276,0.224-0.5,0.5-0.5s0.5,0.224,0.5,0.5v4
			C48.5,14.776,48.276,15,48,15z"/>
	</g>
	<g>
		<path class="st0" d="M37.5,10h-5C32.224,10,32,9.776,32,9.5V8c0-0.827,0.673-1.5,1.5-1.5h3C37.327,6.5,38,7.173,38,8v1.5
			C38,9.776,37.776,10,37.5,10z M33,9h4V8c0-0.276-0.225-0.5-0.5-0.5h-3C33.225,7.5,33,7.724,33,8V9z"/>
	</g>
	<g>
		<path class="st0" d="M36.5,38h-3c-0.827,0-1.5-0.673-1.5-1.5v-2c0-0.276,0.224-0.5,0.5-0.5h5c0.276,0,0.5,0.224,0.5,0.5v2
			C38,37.327,37.327,38,36.5,38z M33,35v1.5c0,0.276,0.225,0.5,0.5,0.5h3c0.275,0,0.5-0.224,0.5-0.5V35H33z"/>
	</g>
	<g>
		<path class="st0" d="M56,59H14c-0.827,0-1.5-0.673-1.5-1.5v-2c0-0.827,0.673-1.5,1.5-1.5h42c0.827,0,1.5,0.673,1.5,1.5v2
			C57.5,58.327,56.827,59,56,59z M14,55c-0.275,0-0.5,0.224-0.5,0.5v2c0,0.276,0.225,0.5,0.5,0.5h42c0.275,0,0.5-0.224,0.5-0.5v-2
			c0-0.276-0.225-0.5-0.5-0.5H14z"/>
	</g>
	<g>
		<circle class="st6" cx="40" cy="22" r="4"/>
		<path class="st0" d="M40,26.5c-2.481,0-4.5-2.019-4.5-4.5s2.019-4.5,4.5-4.5s4.5,2.019,4.5,4.5S42.481,26.5,40,26.5z M40,18.5
			c-1.93,0-3.5,1.57-3.5,3.5s1.57,3.5,3.5,3.5s3.5-1.57,3.5-3.5S41.93,18.5,40,18.5z"/>
	</g>
	<g>
		<path class="st0" d="M40.625,49.5H26c-0.827,0-1.5-0.673-1.5-1.5v-2c0-0.827,0.673-1.5,1.5-1.5h14.285
			c5.499,0,10.133-4.314,10.331-9.616c0.105-2.798-0.919-5.433-2.886-7.42c-1.269-1.281-2.866-2.195-4.62-2.642
			c-0.161-0.041-0.291-0.159-0.347-0.314c-0.057-0.156-0.032-0.329,0.064-0.463C43.268,23.438,43.5,22.731,43.5,22
			c0-0.5-0.114-0.997-0.339-1.476c-0.08-0.171-0.057-0.374,0.061-0.522c0.118-0.149,0.315-0.218,0.494-0.179
			c4.388,0.915,8.026,3.665,10.246,7.743l0,0c0.34,0.625,0.627,1.289,0.852,1.971c1.568,4.772,0.827,9.774-2.033,13.724
			C49.952,47.167,45.408,49.5,40.625,49.5z M26,45.5c-0.275,0-0.5,0.224-0.5,0.5v2c0,0.276,0.225,0.5,0.5,0.5h14.625
			c4.463,0,8.704-2.178,11.346-5.825c2.669-3.688,3.359-8.362,1.894-12.825c-0.206-0.625-0.469-1.233-0.781-1.807l0,0
			c-1.927-3.542-4.993-6.011-8.697-7.031C44.462,21.338,44.5,21.667,44.5,22c0,0.713-0.17,1.407-0.497,2.039
			c1.676,0.538,3.199,1.47,4.438,2.722c2.163,2.185,3.29,5.083,3.175,8.16C51.397,40.754,46.315,45.5,40.285,45.5H26z"/>
	</g>
	<g>
		<path class="st5" d="M34,22c0-3.314,2.686-6,6-6v-4c0-1.381-1.119-2.5-2.5-2.5h-5c-1.381,0-2.5,1.119-2.5,2.5v20
			c0,1.381,1.119,2.5,2.5,2.5h5c1.381,0,2.5-1.119,2.5-2.5v-4C36.686,28,34,25.314,34,22z"/>
	</g>
	<g>
		<path class="st0" d="M37.5,35h-5c-1.654,0-3-1.346-3-3V12c0-1.654,1.346-3,3-3h5c1.654,0,3,1.346,3,3v4c0,0.276-0.224,0.5-0.5,0.5
			s-0.5-0.224-0.5-0.5v-4c0-1.103-0.897-2-2-2h-5c-1.103,0-2,0.897-2,2v20c0,1.103,0.897,2,2,2h5c1.103,0,2-0.897,2-2v-4
			c0-0.276,0.224-0.5,0.5-0.5s0.5,0.224,0.5,0.5v4C40.5,33.654,39.154,35,37.5,35z"/>
	</g>
	<g>
		<path class="st0" d="M37,53c-0.276,0-0.5-0.224-0.5-0.5v-3h-3v3c0,0.276-0.224,0.5-0.5,0.5s-0.5-0.224-0.5-0.5V49
			c0-0.276,0.224-0.5,0.5-0.5h4c0.276,0,0.5,0.224,0.5,0.5v3.5C37.5,52.776,37.276,53,37,53z"/>
	</g>
	<g>
		<path class="st0" d="M40,12.5H30c-0.276,0-0.5-0.224-0.5-0.5s0.224-0.5,0.5-0.5h10c0.276,0,0.5,0.224,0.5,0.5S40.276,12.5,40,12.5
			z"/>
	</g>
	<g>
		<path class="st0" d="M40,32.5H30c-0.276,0-0.5-0.224-0.5-0.5s0.224-0.5,0.5-0.5h10c0.276,0,0.5,0.224,0.5,0.5S40.276,32.5,40,32.5
			z"/>
	</g>
	<g>
		<circle class="st2" cx="16" cy="31.5" r="9"/>
		<path class="st0" d="M16,41c-5.238,0-9.5-4.262-9.5-9.5S10.762,22,16,22s9.5,4.262,9.5,9.5S21.238,41,16,41z M16,23
			c-4.687,0-8.5,3.813-8.5,8.5S11.313,40,16,40s8.5-3.813,8.5-8.5S20.687,23,16,23z"/>
	</g>
	<g>
		<path class="st4" d="M19.889,33.232C18.327,34.794,16,35,16,35s0.206-2.327,1.768-3.889c1.562-1.562,3.889-1.768,3.889-1.768
			S21.451,31.67,19.889,33.232z"/>
		<path class="st0" d="M16,35.5c-0.132,0-0.26-0.052-0.354-0.146c-0.104-0.104-0.157-0.25-0.145-0.397
			c0.009-0.103,0.241-2.527,1.912-4.199c1.672-1.671,4.097-1.903,4.199-1.912c0.147-0.012,0.294,0.04,0.397,0.145
			c0.104,0.104,0.157,0.25,0.145,0.397c-0.009,0.103-0.241,2.527-1.913,4.199l0,0l0,0c-1.671,1.671-4.096,1.903-4.198,1.912
			C16.029,35.5,16.015,35.5,16,35.5z M21.044,29.958c-0.751,0.172-1.997,0.581-2.923,1.507c-0.925,0.925-1.334,2.169-1.507,2.921
			c0.752-0.173,1.996-0.582,2.921-1.507l0,0C20.466,31.949,20.873,30.707,21.044,29.958z"/>
	</g>
	<g>
		<path class="st4" d="M12.111,33.232C13.673,34.794,16,35,16,35s-0.206-2.327-1.768-3.889c-1.562-1.562-3.889-1.768-3.889-1.768
			S10.549,31.67,12.111,33.232z"/>
		<path class="st0" d="M16,35.5c-0.015,0-0.029,0-0.044-0.002c-0.103-0.009-2.527-0.241-4.198-1.912l0,0l0,0
			c-1.672-1.672-1.904-4.096-1.913-4.199c-0.013-0.147,0.04-0.293,0.145-0.397s0.253-0.157,0.397-0.145
			c0.103,0.009,2.527,0.241,4.199,1.912c1.671,1.671,1.903,4.096,1.912,4.199c0.013,0.147-0.04,0.293-0.145,0.397
			C16.26,35.448,16.132,35.5,16,35.5z M10.957,29.958c0.173,0.752,0.582,1.996,1.508,2.921l0,0c0.93,0.93,2.171,1.337,2.921,1.508
			c-0.172-0.751-0.581-1.997-1.507-2.923C12.953,30.539,11.709,30.13,10.957,29.958z"/>
	</g>
	<g>
		<path class="st0" d="M19.184,37c-0.071,0-0.145-0.015-0.213-0.048L16,35.553l-2.971,1.399c-0.248,0.119-0.548,0.011-0.665-0.239
			c-0.118-0.25-0.011-0.547,0.239-0.665l3.184-1.5c0.135-0.063,0.291-0.063,0.426,0l3.184,1.5c0.25,0.118,0.357,0.416,0.239,0.665
			C19.551,36.894,19.371,37,19.184,37z"/>
	</g>
	<g>
		<path class="st0" d="M16,38c-0.276,0-0.5-0.224-0.5-0.5V35c0-0.276,0.224-0.5,0.5-0.5s0.5,0.224,0.5,0.5v2.5
			C16.5,37.776,16.276,38,16,38z"/>
	</g>
	<g>
		<path class="st4" d="M17.5,30c0,2.761-1.5,5-1.5,5s-1.5-2.239-1.5-5s1.5-5,1.5-5S17.5,27.239,17.5,30z"/>
		<path class="st0" d="M16,35.5c-0.167,0-0.322-0.083-0.415-0.222C15.52,35.182,14,32.88,14,30s1.52-5.182,1.585-5.278
			c0.186-0.277,0.645-0.277,0.83,0C16.48,24.818,18,27.12,18,30s-1.52,5.182-1.585,5.278C16.322,35.417,16.167,35.5,16,35.5z
			 M16.001,26.024C15.583,26.869,15,28.344,15,30c0,1.662,0.582,3.133,0.999,3.976C16.417,33.131,17,31.656,17,30
			C17,28.338,16.418,26.867,16.001,26.024z"/>
	</g>
	<g>
		<path class="st0" d="M22.5,18h-9c-0.276,0-0.5-0.224-0.5-0.5s0.224-0.5,0.5-0.5h9c0.276,0,0.5,0.224,0.5,0.5S22.776,18,22.5,18z"
			/>
	</g>
	<g>
		<path class="st0" d="M11.5,18h-2C9.224,18,9,17.776,9,17.5S9.224,17,9.5,17h2c0.276,0,0.5,0.224,0.5,0.5S11.776,18,11.5,18z"/>
	</g>
</g>
</svg>
