<?xml version="1.0" encoding="utf-8"?>
<!-- Generator: Adobe Illustrator 22.0.0, SVG Export Plug-In . SVG Version: 6.00 Build 0)  -->
<svg version="1.1" id="Layer_1" xmlns="http://www.w3.org/2000/svg" xmlns:xlink="http://www.w3.org/1999/xlink" x="0px" y="0px"
	 viewBox="0 0 64 64" style="enable-background:new 0 0 64 64;" xml:space="preserve">
<style type="text/css">
	.st0{fill:#263238;}
	.st1{fill:#4FC3F7;}
	.st2{fill:#4DB6AC;}
	.st3{fill:#FF5252;}
	.st4{fill:#FFFFFF;}
	.st5{fill:#FFD740;}
	.st6{fill:#40C4FF;}
</style>
<g>
	<g>
		<path class="st0" d="M32,55c-0.276,0-0.5-0.224-0.5-0.5V45c0-0.276,0.224-0.5,0.5-0.5s0.5,0.224,0.5,0.5v9.5
			C32.5,54.776,32.276,55,32,55z"/>
	</g>
	<g>
		<path class="st2" d="M45.082,35.868C39.224,41.726,32,44,32,44s2.274-7.224,8.132-13.081s13.081-8.132,13.081-8.132
			S50.939,30.01,45.082,35.868z"/>
		<path class="st0" d="M32,44.5c-0.13,0-0.258-0.051-0.354-0.146c-0.132-0.132-0.179-0.326-0.124-0.503
			c0.094-0.3,2.377-7.408,8.255-13.285c5.876-5.877,12.984-8.161,13.284-8.255c0.18-0.058,0.373-0.008,0.504,0.124
			c0.132,0.132,0.18,0.326,0.123,0.503c-0.094,0.3-2.377,7.408-8.255,13.285l0,0l0,0c-5.876,5.877-12.985,8.161-13.285,8.255
			C32.101,44.493,32.05,44.5,32,44.5z M52.378,23.622c-2.156,0.84-7.453,3.21-11.893,7.65c-4.445,4.445-6.812,9.738-7.65,11.893
			c2.156-0.84,7.453-3.21,11.893-7.65l0,0C49.173,31.069,51.539,25.777,52.378,23.622z"/>
	</g>
	<g>
		<path class="st2" d="M18.918,35.868C24.776,41.726,32,44,32,44s-2.274-7.224-8.132-13.081s-13.081-8.132-13.081-8.132
			S13.061,30.01,18.918,35.868z"/>
		<path class="st0" d="M32,44.5c-0.05,0-0.101-0.007-0.15-0.023c-0.3-0.094-7.408-2.378-13.285-8.255s-8.161-12.985-8.255-13.285
			c-0.056-0.178-0.008-0.372,0.124-0.503s0.326-0.179,0.503-0.124c0.3,0.094,7.408,2.378,13.285,8.255s8.161,12.985,8.255,13.285
			c0.056,0.178,0.008,0.372-0.124,0.503C32.258,44.449,32.13,44.5,32,44.5z M11.622,23.622c0.841,2.157,3.211,7.453,7.65,11.893
			c4.439,4.439,9.736,6.809,11.893,7.65c-0.841-2.157-3.211-7.453-7.65-11.893C19.075,26.833,13.779,24.463,11.622,23.622z"/>
	</g>
	<g>
		<path class="st2" d="M42,47.5c-5.523,0-10-2.5-10-2.5s4.477-2.5,10-2.5S52,45,52,45S47.523,47.5,42,47.5z"/>
		<path class="st0" d="M42,48c-5.588,0-10.056-2.459-10.244-2.563C31.598,45.348,31.5,45.181,31.5,45s0.098-0.348,0.256-0.437
			C31.944,44.459,36.412,42,42,42s10.057,2.459,10.244,2.563C52.402,44.652,52.5,44.819,52.5,45s-0.098,0.348-0.256,0.437
			C52.057,45.541,47.588,48,42,48z M33.138,45c1.554,0.701,4.959,2,8.862,2c3.911,0,7.311-1.298,8.862-2
			c-1.554-0.701-4.959-2-8.862-2C38.089,43,34.689,44.298,33.138,45z"/>
	</g>
	<g>
		<path class="st2" d="M22,47.5c-5.523,0-10-2.5-10-2.5s4.477-2.5,10-2.5S32,45,32,45S27.523,47.5,22,47.5z"/>
		<path class="st0" d="M22,48c-5.589,0-10.056-2.459-10.244-2.563C11.598,45.348,11.5,45.181,11.5,45s0.098-0.348,0.256-0.437
			C11.944,44.459,16.411,42,22,42s10.056,2.459,10.244,2.563C32.402,44.652,32.5,44.819,32.5,45s-0.098,0.348-0.256,0.437
			C32.056,45.541,27.589,48,22,48z M13.139,45c1.554,0.701,4.958,2,8.861,2s7.308-1.299,8.861-2c-1.554-0.701-4.958-2-8.861-2
			S14.692,44.299,13.139,45z"/>
	</g>
	<g>
		<path class="st0" d="M5,38.75H3c-0.276,0-0.5-0.224-0.5-0.5s0.224-0.5,0.5-0.5h2c0.276,0,0.5,0.224,0.5,0.5S5.276,38.75,5,38.75z"
			/>
	</g>
	<g>
		<path class="st0" d="M15,38.75H7c-0.276,0-0.5-0.224-0.5-0.5s0.224-0.5,0.5-0.5h8c0.276,0,0.5,0.224,0.5,0.5
			S15.276,38.75,15,38.75z"/>
	</g>
	<g>
		<path class="st0" d="M61,38.75h-2c-0.276,0-0.5-0.224-0.5-0.5s0.224-0.5,0.5-0.5h2c0.276,0,0.5,0.224,0.5,0.5
			S61.276,38.75,61,38.75z"/>
	</g>
	<g>
		<path class="st0" d="M57,38.75h-8c-0.276,0-0.5-0.224-0.5-0.5s0.224-0.5,0.5-0.5h8c0.276,0,0.5,0.224,0.5,0.5
			S57.276,38.75,57,38.75z"/>
	</g>
	<g>
		<path class="st0" d="M60.885,18.5h-4c-0.276,0-0.5-0.224-0.5-0.5s0.224-0.5,0.5-0.5h4c0.276,0,0.5,0.224,0.5,0.5
			S61.161,18.5,60.885,18.5z"/>
	</g>
	<g>
		<path class="st0" d="M55.885,14h-4c-0.276,0-0.5-0.224-0.5-0.5s0.224-0.5,0.5-0.5h4c0.276,0,0.5,0.224,0.5,0.5
			S56.161,14,55.885,14z"/>
	</g>
	<g>
		<path class="st0" d="M53.885,16c-0.276,0-0.5-0.224-0.5-0.5v-4c0-0.276,0.224-0.5,0.5-0.5s0.5,0.224,0.5,0.5v4
			C54.385,15.776,54.161,16,53.885,16z"/>
	</g>
	<g>
		<path class="st0" d="M58.885,20.5c-0.276,0-0.5-0.224-0.5-0.5v-4c0-0.276,0.224-0.5,0.5-0.5s0.5,0.224,0.5,0.5v4
			C59.385,20.276,59.161,20.5,58.885,20.5z"/>
	</g>
	<g>
		<path class="st2" d="M36,26.5c0,9.389-4,17-4,17s-4-7.611-4-17s4-17,4-17S36,17.111,36,26.5z"/>
		<path class="st0" d="M32,44c-0.186,0-0.356-0.103-0.442-0.268C31.517,43.655,27.5,35.903,27.5,26.5s4.017-17.155,4.058-17.232
			c0.173-0.329,0.712-0.329,0.885,0C32.483,9.345,36.5,17.097,36.5,26.5s-4.017,17.155-4.058,17.232C32.356,43.897,32.186,44,32,44z
			 M32,10.665c-1.03,2.295-3.5,8.558-3.5,15.835c0,7.286,2.469,13.542,3.5,15.835c1.03-2.295,3.5-8.558,3.5-15.835
			C35.5,19.214,33.03,12.958,32,10.665z"/>
	</g>
</g>
</svg>
