<?xml version="1.0" encoding="utf-8"?>
<!-- Generator: Adobe Illustrator 22.0.0, SVG Export Plug-In . SVG Version: 6.00 Build 0)  -->
<svg version="1.1" id="Layer_1" xmlns="http://www.w3.org/2000/svg" xmlns:xlink="http://www.w3.org/1999/xlink" x="0px" y="0px"
	 viewBox="0 0 64 64" style="enable-background:new 0 0 64 64;" xml:space="preserve">
<style type="text/css">
	.st0{fill:#263238;}
	.st1{fill:#4FC3F7;}
	.st2{fill:#4DB6AC;}
	.st3{fill:#FF5252;}
	.st4{fill:#FFFFFF;}
	.st5{fill:#FFD740;}
	.st6{fill:#40C4FF;}
</style>
<g>
	<g>
		<path class="st0" d="M57,21.5h-4c-0.276,0-0.5-0.224-0.5-0.5s0.224-0.5,0.5-0.5h4c0.276,0,0.5,0.224,0.5,0.5S57.276,21.5,57,21.5z
			"/>
	</g>
	<g>
		<path class="st0" d="M52,17.5h-4c-0.276,0-0.5-0.224-0.5-0.5s0.224-0.5,0.5-0.5h4c0.276,0,0.5,0.224,0.5,0.5S52.276,17.5,52,17.5z
			"/>
	</g>
	<g>
		<path class="st0" d="M50,19.5c-0.276,0-0.5-0.224-0.5-0.5v-4c0-0.276,0.224-0.5,0.5-0.5s0.5,0.224,0.5,0.5v4
			C50.5,19.276,50.276,19.5,50,19.5z"/>
	</g>
	<g>
		<path class="st0" d="M55,23.5c-0.276,0-0.5-0.224-0.5-0.5v-4c0-0.276,0.224-0.5,0.5-0.5s0.5,0.224,0.5,0.5v4
			C55.5,23.276,55.276,23.5,55,23.5z"/>
	</g>
	<g>
		<ellipse class="st5" cx="39.5" cy="57.5" rx="3" ry="2"/>
		<path class="st0" d="M39.5,60c-1.963,0-3.5-1.098-3.5-2.5s1.537-2.5,3.5-2.5s3.5,1.098,3.5,2.5S41.463,60,39.5,60z M39.5,56
			c-1.355,0-2.5,0.687-2.5,1.5s1.145,1.5,2.5,1.5s2.5-0.687,2.5-1.5S40.855,56,39.5,56z"/>
	</g>
	<g>
		<ellipse class="st5" cx="24.5" cy="57.5" rx="3" ry="2"/>
		<path class="st0" d="M24.5,60c-1.962,0-3.5-1.098-3.5-2.5s1.538-2.5,3.5-2.5s3.5,1.098,3.5,2.5S26.462,60,24.5,60z M24.5,56
			c-1.355,0-2.5,0.687-2.5,1.5s1.145,1.5,2.5,1.5s2.5-0.687,2.5-1.5S25.855,56,24.5,56z"/>
	</g>
	<g>
		<ellipse class="st5" cx="39" cy="49.5" rx="3" ry="2"/>
		<path class="st0" d="M39,52c-1.963,0-3.5-1.098-3.5-2.5S37.037,47,39,47s3.5,1.098,3.5,2.5S40.963,52,39,52z M39,48
			c-1.355,0-2.5,0.687-2.5,1.5S37.645,51,39,51s2.5-0.687,2.5-1.5S40.355,48,39,48z"/>
	</g>
	<g>
		<ellipse class="st5" cx="25" cy="49.5" rx="3" ry="2"/>
		<path class="st0" d="M25,52c-1.962,0-3.5-1.098-3.5-2.5S23.038,47,25,47s3.5,1.098,3.5,2.5S26.962,52,25,52z M25,48
			c-1.355,0-2.5,0.687-2.5,1.5S23.645,51,25,51s2.5-0.687,2.5-1.5S26.355,48,25,48z"/>
	</g>
	<g>
		<ellipse class="st5" cx="18" cy="53.5" rx="3" ry="2"/>
		<path class="st0" d="M18,56c-1.962,0-3.5-1.098-3.5-2.5S16.038,51,18,51s3.5,1.098,3.5,2.5S19.962,56,18,56z M18,52
			c-1.355,0-2.5,0.687-2.5,1.5S16.645,55,18,55s2.5-0.687,2.5-1.5S19.355,52,18,52z"/>
	</g>
	<g>
		<ellipse class="st5" cx="46" cy="53.5" rx="3" ry="2"/>
		<path class="st0" d="M46,56c-1.963,0-3.5-1.098-3.5-2.5S44.037,51,46,51s3.5,1.098,3.5,2.5S47.963,56,46,56z M46,52
			c-1.355,0-2.5,0.687-2.5,1.5S44.645,55,46,55s2.5-0.687,2.5-1.5S47.355,52,46,52z"/>
	</g>
	<g>
		<ellipse class="st5" cx="32" cy="53.5" rx="3" ry="2"/>
		<path class="st0" d="M32,56c-1.962,0-3.5-1.098-3.5-2.5S30.038,51,32,51c1.963,0,3.5,1.098,3.5,2.5S33.963,56,32,56z M32,52
			c-1.355,0-2.5,0.687-2.5,1.5S30.645,55,32,55c1.355,0,2.5-0.687,2.5-1.5S33.355,52,32,52z"/>
	</g>
	<g>
		<path class="st0" d="M20,50h-0.5c-1.654,0-3-1.346-3-3V26.341c0-1.637,0.721-3.177,1.979-4.225l4.021-3.351V14.5
			c0-0.276,0.224-0.5,0.5-0.5s0.5,0.224,0.5,0.5V19c0,0.148-0.066,0.289-0.18,0.384l-4.201,3.501
			c-1.029,0.857-1.619,2.117-1.619,3.457V47c0,1.103,0.897,2,2,2H20c0.276,0,0.5,0.224,0.5,0.5S20.276,50,20,50z"/>
	</g>
	<g>
		<path class="st0" d="M44.5,50H44c-0.276,0-0.5-0.224-0.5-0.5S43.724,49,44,49h0.5c1.103,0,2-0.897,2-2V26.341
			c0-1.339-0.59-2.599-1.619-3.457l-4.201-3.501C40.565,19.289,40.5,19.148,40.5,19v-4.5c0-0.276,0.224-0.5,0.5-0.5
			s0.5,0.224,0.5,0.5v4.266l4.021,3.351c1.257,1.048,1.979,2.588,1.979,4.225V47C47.5,48.654,46.154,50,44.5,50z"/>
	</g>
	<g>
		<path class="st0" d="M34,50h-4c-0.276,0-0.5-0.224-0.5-0.5S29.724,49,30,49h4c0.276,0,0.5,0.224,0.5,0.5S34.276,50,34,50z"/>
	</g>
	<g>
		<path class="st0" d="M42,13H22c-0.827,0-1.5-0.673-1.5-1.5v-6C20.5,4.672,21.173,4,22,4h20c0.827,0,1.5,0.673,1.5,1.5v6
			C43.5,12.327,42.827,13,42,13z M22,5c-0.276,0-0.5,0.224-0.5,0.5v6c0,0.276,0.224,0.5,0.5,0.5h20c0.275,0,0.5-0.224,0.5-0.5v-6
			C42.5,5.224,42.275,5,42,5H22z"/>
	</g>
	<g>
		<circle class="st2" cx="32" cy="34" r="9"/>
		<path class="st0" d="M32,43.5c-5.238,0-9.5-4.262-9.5-9.5c0-5.239,4.262-9.5,9.5-9.5s9.5,4.262,9.5,9.5
			C41.5,39.238,37.238,43.5,32,43.5z M32,25.5c-4.687,0-8.5,3.813-8.5,8.5c0,4.687,3.813,8.5,8.5,8.5c4.687,0,8.5-3.813,8.5-8.5
			C40.5,29.313,36.687,25.5,32,25.5z"/>
	</g>
	<g>
		<path class="st4" d="M35.889,35.732C34.327,37.294,32,37.5,32,37.5s0.206-2.327,1.768-3.889c1.562-1.562,3.889-1.768,3.889-1.768
			S37.451,34.17,35.889,35.732z"/>
		<path class="st0" d="M32,38c-0.132,0-0.259-0.053-0.354-0.146c-0.104-0.104-0.158-0.25-0.145-0.397
			c0.009-0.103,0.241-2.527,1.912-4.199c1.672-1.671,4.097-1.903,4.199-1.912c0.149-0.013,0.293,0.04,0.397,0.145
			s0.157,0.25,0.145,0.397c-0.009,0.103-0.241,2.527-1.913,4.198l0,0l0,0c-1.671,1.672-4.096,1.904-4.198,1.913
			C32.029,37.999,32.015,38,32,38z M37.043,32.457c-0.752,0.173-1.996,0.582-2.922,1.507c-0.925,0.926-1.334,2.17-1.507,2.922
			c0.752-0.173,1.996-0.582,2.921-1.508l0,0C36.461,34.453,36.87,33.209,37.043,32.457z"/>
	</g>
	<g>
		<path class="st4" d="M28.111,35.732C29.673,37.294,32,37.5,32,37.5s-0.206-2.327-1.768-3.889
			c-1.562-1.562-3.889-1.768-3.889-1.768S26.549,34.17,28.111,35.732z"/>
		<path class="st0" d="M32,38c-0.015,0-0.029-0.001-0.044-0.002c-0.103-0.009-2.527-0.241-4.199-1.913l0,0l0,0
			c-1.671-1.671-1.903-4.096-1.912-4.198c-0.013-0.147,0.04-0.293,0.145-0.397c0.105-0.104,0.254-0.157,0.397-0.145
			c0.103,0.009,2.527,0.241,4.199,1.912c1.671,1.672,1.903,4.097,1.912,4.199c0.013,0.147-0.04,0.293-0.145,0.397
			C32.259,37.947,32.132,38,32,38z M26.957,32.456c0.172,0.751,0.582,1.997,1.507,2.922l0,0c0.93,0.931,2.172,1.338,2.921,1.509
			c-0.172-0.751-0.581-1.997-1.507-2.923C28.949,33.034,27.707,32.626,26.957,32.456z"/>
	</g>
	<g>
		<path class="st0" d="M28.817,39.5c-0.188,0-0.368-0.105-0.453-0.287c-0.118-0.25-0.011-0.548,0.239-0.665l3.183-1.5
			c0.136-0.064,0.292-0.064,0.426,0l3.184,1.5c0.25,0.117,0.357,0.415,0.239,0.665c-0.117,0.251-0.417,0.356-0.665,0.239L32,38.053
			l-2.97,1.399C28.961,39.484,28.889,39.5,28.817,39.5z"/>
	</g>
	<g>
		<path class="st0" d="M32,40.5c-0.276,0-0.5-0.224-0.5-0.5v-2.5c0-0.276,0.224-0.5,0.5-0.5s0.5,0.224,0.5,0.5V40
			C32.5,40.276,32.276,40.5,32,40.5z"/>
	</g>
	<g>
		<path class="st4" d="M33.5,32.5c0,2.761-1.5,5-1.5,5s-1.5-2.239-1.5-5s1.5-5,1.5-5S33.5,29.738,33.5,32.5z"/>
		<path class="st0" d="M32,38c-0.167,0-0.323-0.083-0.416-0.222C31.52,37.682,30,35.38,30,32.5s1.52-5.182,1.584-5.278
			c0.186-0.277,0.646-0.277,0.831,0C32.48,27.318,34,29.619,34,32.5s-1.52,5.182-1.584,5.279C32.323,37.917,32.167,38,32,38z
			 M32.001,28.523C31.583,29.368,31,30.843,31,32.5c0,1.655,0.582,3.129,1,3.975c0.418-0.846,1-2.32,1-3.975
			C33,30.838,32.418,29.366,32.001,28.523z"/>
	</g>
	<g>
		<path class="st0" d="M4,38H2c-0.276,0-0.5-0.224-0.5-0.5S1.724,37,2,37h2c0.276,0,0.5,0.224,0.5,0.5S4.276,38,4,38z"/>
	</g>
	<g>
		<path class="st0" d="M14,38H6c-0.276,0-0.5-0.224-0.5-0.5S5.724,37,6,37h8c0.276,0,0.5,0.224,0.5,0.5S14.276,38,14,38z"/>
	</g>
	<g>
		<path class="st0" d="M62,38h-2c-0.276,0-0.5-0.224-0.5-0.5S59.724,37,60,37h2c0.276,0,0.5,0.224,0.5,0.5S62.276,38,62,38z"/>
	</g>
	<g>
		<path class="st0" d="M58,38h-8c-0.276,0-0.5-0.224-0.5-0.5S49.724,37,50,37h8c0.276,0,0.5,0.224,0.5,0.5S58.276,38,58,38z"/>
	</g>
	<g>
		<path class="st0" d="M41,17H23c-0.276,0-0.5-0.224-0.5-0.5S22.723,16,23,16h18c0.276,0,0.5,0.224,0.5,0.5S41.276,17,41,17z"/>
	</g>
	<g>
		<path class="st0" d="M32,11c-0.276,0-0.5-0.224-0.5-0.5v-4C31.5,6.223,31.723,6,32,6s0.5,0.224,0.5,0.5v4
			C32.5,10.776,32.276,11,32,11z"/>
	</g>
	<g>
		<path class="st0" d="M27,11c-0.276,0-0.5-0.224-0.5-0.5v-4C26.5,6.223,26.723,6,27,6s0.5,0.224,0.5,0.5v4
			C27.5,10.776,27.276,11,27,11z"/>
	</g>
	<g>
		<path class="st0" d="M37,11c-0.276,0-0.5-0.224-0.5-0.5v-4C36.5,6.223,36.724,6,37,6s0.5,0.224,0.5,0.5v4
			C37.5,10.776,37.276,11,37,11z"/>
	</g>
</g>
</svg>
