<?xml version="1.0" encoding="utf-8"?>
<!-- Generator: Adobe Illustrator 22.0.0, SVG Export Plug-In . SVG Version: 6.00 Build 0)  -->
<svg version="1.1" id="Layer_1" xmlns="http://www.w3.org/2000/svg" xmlns:xlink="http://www.w3.org/1999/xlink" x="0px" y="0px"
	 viewBox="0 0 64 64" style="enable-background:new 0 0 64 64;" xml:space="preserve">
<style type="text/css">
	.st0{fill:#263238;}
	.st1{fill:#4FC3F7;}
	.st2{fill:#4DB6AC;}
	.st3{fill:#FF5252;}
	.st4{fill:#FFFFFF;}
	.st5{fill:#FFD740;}
	.st6{fill:#40C4FF;}
</style>
<g>
	<g>
		<path class="st0" d="M58,48.5h-6.5c-0.276,0-0.5-0.224-0.5-0.5s0.224-0.5,0.5-0.5H58c0.276,0,0.5,0.224,0.5,0.5
			S58.276,48.5,58,48.5z"/>
	</g>
	<g>
		<path class="st0" d="M62,48.5h-2c-0.276,0-0.5-0.224-0.5-0.5s0.224-0.5,0.5-0.5h2c0.276,0,0.5,0.224,0.5,0.5S62.276,48.5,62,48.5z
			"/>
	</g>
	<g>
		<path class="st0" d="M12.5,48.5H6c-0.276,0-0.5-0.224-0.5-0.5s0.224-0.5,0.5-0.5h6.5c0.276,0,0.5,0.224,0.5,0.5
			S12.776,48.5,12.5,48.5z"/>
	</g>
	<g>
		<path class="st0" d="M4,48.5H2c-0.276,0-0.5-0.224-0.5-0.5s0.224-0.5,0.5-0.5h2c0.276,0,0.5,0.224,0.5,0.5S4.276,48.5,4,48.5z"/>
	</g>
	<g>
		<path class="st0" d="M55.5,17.5h-4c-0.276,0-0.5-0.224-0.5-0.5s0.224-0.5,0.5-0.5h4c0.276,0,0.5,0.224,0.5,0.5
			S55.776,17.5,55.5,17.5z"/>
	</g>
	<g>
		<path class="st0" d="M62,12.5h-4c-0.276,0-0.5-0.224-0.5-0.5s0.224-0.5,0.5-0.5h4c0.276,0,0.5,0.224,0.5,0.5S62.276,12.5,62,12.5z
			"/>
	</g>
	<g>
		<path class="st0" d="M60,14.5c-0.276,0-0.5-0.224-0.5-0.5v-4c0-0.276,0.224-0.5,0.5-0.5s0.5,0.224,0.5,0.5v4
			C60.5,14.276,60.276,14.5,60,14.5z"/>
	</g>
	<g>
		<path class="st0" d="M53.5,19.5c-0.276,0-0.5-0.224-0.5-0.5v-4c0-0.276,0.224-0.5,0.5-0.5S54,14.724,54,15v4
			C54,19.276,53.776,19.5,53.5,19.5z"/>
	</g>
	<g>
		<path class="st3" d="M46.5,21h-29l1.721-5.162C20.582,11.754,24.403,9,28.708,9h6.585c4.304,0,8.126,2.754,9.487,6.838L46.5,21z"
			/>
		<path class="st0" d="M46.5,21.5h-29c-0.161,0-0.312-0.077-0.406-0.208c-0.094-0.13-0.12-0.298-0.068-0.451l1.721-5.162
			c1.432-4.294,5.435-7.18,9.961-7.18h6.584c4.526,0,8.53,2.885,9.962,7.18l1.721,5.162c0.051,0.152,0.025,0.32-0.069,0.451
			C46.812,21.423,46.661,21.5,46.5,21.5z M18.194,20.5h27.613l-1.502-4.504C43.01,12.11,39.388,9.5,35.292,9.5h-6.584
			c-4.095,0-7.717,2.61-9.013,6.496L18.194,20.5z"/>
	</g>
	<g>
		<path class="st0" d="M42.338,18.5c-0.209,0-0.404-0.132-0.475-0.342l-0.404-1.213c-0.887-2.659-3.365-4.445-6.167-4.445
			c-0.276,0-0.5-0.224-0.5-0.5s0.224-0.5,0.5-0.5c3.232,0,6.093,2.061,7.116,5.128l0.404,1.213c0.087,0.262-0.055,0.545-0.316,0.632
			C42.443,18.492,42.391,18.5,42.338,18.5z"/>
	</g>
	<g>
		<circle class="st3" cx="32" cy="5" r="4"/>
		<path class="st0" d="M32,9.5c-2.481,0-4.5-2.019-4.5-4.5s2.019-4.5,4.5-4.5s4.5,2.019,4.5,4.5S34.481,9.5,32,9.5z M32,1.5
			c-1.93,0-3.5,1.57-3.5,3.5s1.57,3.5,3.5,3.5s3.5-1.57,3.5-3.5S33.93,1.5,32,1.5z"/>
	</g>
	<g>
		<path class="st3" d="M47,21H17c-0.552,0-1,0.448-1,1v3c0,0.552,0.448,1,1,1h30c0.552,0,1-0.448,1-1v-3C48,21.448,47.552,21,47,21z
			"/>
		<path class="st0" d="M47,26.5H17c-0.827,0-1.5-0.673-1.5-1.5v-3c0-0.827,0.673-1.5,1.5-1.5h30c0.827,0,1.5,0.673,1.5,1.5v3
			C48.5,25.827,47.827,26.5,47,26.5z M17,21.5c-0.276,0-0.5,0.224-0.5,0.5v3c0,0.276,0.224,0.5,0.5,0.5h30
			c0.275,0,0.5-0.224,0.5-0.5v-3c0-0.276-0.225-0.5-0.5-0.5H17z"/>
	</g>
	<g>
		<path class="st0" d="M39.5,33.497c-0.943,0-1.887-0.24-2.729-0.721l-1.02-0.583c-0.24-0.137-0.323-0.442-0.187-0.682
			c0.138-0.241,0.444-0.324,0.683-0.186l1.02,0.583c1.377,0.787,3.088,0.787,4.465,0l1.02-0.583
			c0.236-0.138,0.544-0.055,0.683,0.186c0.137,0.24,0.054,0.545-0.187,0.682l-1.02,0.583C41.387,33.256,40.443,33.497,39.5,33.497z"
			/>
	</g>
	<g>
		<path class="st0" d="M24.5,33.497c-0.944,0-1.887-0.24-2.729-0.721l-1.02-0.583c-0.24-0.137-0.323-0.442-0.186-0.682
			c0.137-0.24,0.442-0.324,0.682-0.186l1.02,0.583c1.377,0.787,3.088,0.787,4.465,0l1.02-0.583c0.239-0.138,0.544-0.054,0.682,0.186
			c0.137,0.24,0.054,0.545-0.186,0.682l-1.02,0.583C26.387,33.256,25.443,33.497,24.5,33.497z"/>
	</g>
	<g>
		<path class="st0" d="M32,42.506c-2.245,0-4.489-0.763-6.32-2.289c-0.212-0.177-0.241-0.492-0.064-0.704
			c0.177-0.213,0.492-0.241,0.705-0.064c3.292,2.743,8.069,2.742,11.359,0c0.211-0.176,0.527-0.15,0.704,0.064
			c0.177,0.212,0.148,0.527-0.063,0.704C36.489,41.743,34.244,42.506,32,42.506z"/>
	</g>
	<g>
		<path class="st5" d="M26.098,39.908L6.521,39.5c-0.56-0.012-1.021,0.439-1.021,1v0.958c0,0.56,0.461,1.011,1.021,1l22-0.458
			c0.317-0.007,0.584-0.169,0.762-0.404C28.148,41.252,27.065,40.692,26.098,39.908z"/>
		<path class="st0" d="M6.499,42.958c-0.395,0-0.766-0.151-1.049-0.428C5.16,42.245,5,41.865,5,41.458V40.5
			c0-0.407,0.16-0.787,0.45-1.071S6.122,39.003,6.531,39l19.577,0.408c0.111,0.002,0.218,0.042,0.305,0.112
			c0.893,0.725,1.907,1.262,3.015,1.597c0.157,0.047,0.281,0.168,0.331,0.324c0.051,0.156,0.021,0.327-0.078,0.457
			c-0.284,0.373-0.703,0.592-1.149,0.602l-22,0.458C6.521,42.958,6.51,42.958,6.499,42.958z M6.5,40c-0.132,0-0.256,0.05-0.35,0.143
			C6.053,40.238,6,40.365,6,40.5v0.958c0,0.135,0.053,0.262,0.15,0.357c0.097,0.095,0.214,0.143,0.361,0.143l21.194-0.441
			c-0.632-0.305-1.229-0.676-1.786-1.112L6.511,40C6.507,40,6.503,40,6.5,40z"/>
	</g>
	<g>
		<path class="st0" d="M3.991,36.5c-0.062,0-0.126-0.012-0.188-0.037c-0.256-0.104-0.379-0.395-0.275-0.651l0.99-2.443
			c0.255-0.63,0.176-1.338-0.213-1.896l-1.429-2.048c-0.597-0.855-0.708-1.939-0.297-2.898l0.953-2.224
			c0.109-0.255,0.404-0.373,0.656-0.263c0.254,0.108,0.372,0.402,0.263,0.656L3.498,26.92c-0.274,0.64-0.2,1.362,0.198,1.933
			l1.429,2.048c0.583,0.835,0.703,1.898,0.32,2.844l-0.99,2.443C4.375,36.382,4.188,36.5,3.991,36.5z"/>
	</g>
	<g>
		<path class="st0" d="M6.991,36.5c-0.062,0-0.126-0.012-0.188-0.037c-0.256-0.104-0.379-0.395-0.275-0.651l0.99-2.443
			c0.255-0.63,0.176-1.338-0.213-1.896l-1.429-2.048c-0.597-0.855-0.708-1.939-0.297-2.898l0.953-2.224
			c0.109-0.255,0.404-0.373,0.656-0.263c0.254,0.108,0.372,0.402,0.263,0.656L6.498,26.92c-0.274,0.64-0.2,1.362,0.198,1.933
			l1.429,2.048c0.583,0.835,0.703,1.898,0.32,2.844l-0.99,2.443C7.375,36.382,7.188,36.5,6.991,36.5z"/>
	</g>
	<g>
		<path class="st0" d="M32,51.502c-1.293,0-2.586-0.314-3.765-0.943l-7.5-4c-0.953-0.508-1.782-1.194-2.463-2.041
			c-0.173-0.215-0.14-0.53,0.076-0.703c0.215-0.175,0.53-0.14,0.703,0.076c0.597,0.74,1.322,1.341,2.155,1.785l7.5,4
			c2.062,1.101,4.525,1.101,6.588,0l7.5-4C45.08,44.458,46.5,42.091,46.5,39.5V36c0-0.276,0.224-0.5,0.5-0.5
			c1.93,0,3.5-1.57,3.5-3.5s-1.57-3.5-3.5-3.5c-0.276,0-0.5-0.224-0.5-0.5s0.224-0.5,0.5-0.5c2.481,0,4.5,2.019,4.5,4.5
			c0,2.312-1.753,4.223-4,4.472V39.5c0,2.961-1.623,5.666-4.235,7.059l-7.5,4C34.586,51.188,33.293,51.502,32,51.502z"/>
	</g>
	<g>
		<path class="st0" d="M17,38.218c-0.276,0-0.5-0.224-0.5-0.5v-1.246c-2.247-0.25-4-2.16-4-4.472c0-2.481,2.019-4.5,4.5-4.5
			c0.276,0,0.5,0.224,0.5,0.5s-0.224,0.5-0.5,0.5c-1.93,0-3.5,1.57-3.5,3.5s1.57,3.5,3.5,3.5c0.276,0,0.5,0.224,0.5,0.5v1.718
			C17.5,37.995,17.276,38.218,17,38.218z"/>
	</g>
	<g>
		<path class="st0" d="M32,63.5c-0.167,0-0.323-0.083-0.416-0.223l-8.667-13c-0.153-0.23-0.091-0.54,0.139-0.693
			c0.23-0.153,0.54-0.091,0.693,0.139L32,62.099l8.251-12.376c0.153-0.23,0.466-0.29,0.693-0.139
			c0.229,0.153,0.292,0.464,0.139,0.693l-8.667,13C32.323,63.417,32.167,63.5,32,63.5z"/>
	</g>
	<g>
		<path class="st0" d="M60.716,63.5c-0.202,0-0.393-0.124-0.468-0.325C57.409,55.594,50.076,50.5,42,50.5h-1.333
			c-0.276,0-0.5-0.224-0.5-0.5s0.224-0.5,0.5-0.5H42c8.491,0,16.2,5.355,19.184,13.325c0.098,0.259-0.034,0.547-0.292,0.644
			C60.833,63.49,60.774,63.5,60.716,63.5z"/>
	</g>
	<g>
		<path class="st0" d="M3.284,63.5c-0.058,0-0.118-0.01-0.175-0.032c-0.259-0.097-0.39-0.385-0.293-0.644
			C5.799,54.855,13.509,49.5,22,49.5h1.333c0.276,0,0.5,0.224,0.5,0.5s-0.224,0.5-0.5,0.5H22c-8.077,0-15.41,5.094-18.248,12.675
			C3.677,63.376,3.487,63.5,3.284,63.5z"/>
	</g>
	<g>
		<path class="st0" d="M22,26.5c-0.276,0-0.5-0.224-0.5-0.5v-5c0-0.276,0.224-0.5,0.5-0.5s0.5,0.224,0.5,0.5v5
			C22.5,26.276,22.277,26.5,22,26.5z"/>
	</g>
	<g>
		<path class="st0" d="M27,26.5c-0.276,0-0.5-0.224-0.5-0.5v-5c0-0.276,0.224-0.5,0.5-0.5s0.5,0.224,0.5,0.5v5
			C27.5,26.276,27.277,26.5,27,26.5z"/>
	</g>
	<g>
		<path class="st0" d="M32,26.5c-0.276,0-0.5-0.224-0.5-0.5v-5c0-0.276,0.224-0.5,0.5-0.5s0.5,0.224,0.5,0.5v5
			C32.5,26.276,32.277,26.5,32,26.5z"/>
	</g>
	<g>
		<path class="st0" d="M37,26.5c-0.276,0-0.5-0.224-0.5-0.5v-5c0-0.276,0.224-0.5,0.5-0.5s0.5,0.224,0.5,0.5v5
			C37.5,26.276,37.276,26.5,37,26.5z"/>
	</g>
	<g>
		<path class="st0" d="M42,26.5c-0.276,0-0.5-0.224-0.5-0.5v-5c0-0.276,0.224-0.5,0.5-0.5s0.5,0.224,0.5,0.5v5
			C42.5,26.276,42.276,26.5,42,26.5z"/>
	</g>
</g>
</svg>
