<?xml version="1.0" encoding="utf-8"?>
<!-- Generator: Adobe Illustrator 22.0.0, SVG Export Plug-In . SVG Version: 6.00 Build 0)  -->
<svg version="1.1" id="Layer_1" xmlns="http://www.w3.org/2000/svg" xmlns:xlink="http://www.w3.org/1999/xlink" x="0px" y="0px"
	 viewBox="0 0 64 64" style="enable-background:new 0 0 64 64;" xml:space="preserve">
<style type="text/css">
	.st0{fill:#263238;}
	.st1{fill:#4FC3F7;}
	.st2{fill:#4DB6AC;}
	.st3{fill:#FF5252;}
	.st4{fill:#FFFFFF;}
	.st5{fill:#FFD740;}
	.st6{fill:#40C4FF;}
</style>
<g>
	<g>
		<path class="st0" d="M61.5,59.5h-2c-0.276,0-0.5-0.224-0.5-0.5s0.224-0.5,0.5-0.5h2c0.276,0,0.5,0.224,0.5,0.5
			S61.776,59.5,61.5,59.5z"/>
	</g>
	<g>
		<path class="st0" d="M57.5,59.5h-8c-0.276,0-0.5-0.224-0.5-0.5s0.224-0.5,0.5-0.5h8c0.276,0,0.5,0.224,0.5,0.5
			S57.776,59.5,57.5,59.5z"/>
	</g>
	<g>
		<path class="st0" d="M4.5,14.5h-2C2.224,14.5,2,14.276,2,14s0.224-0.5,0.5-0.5h2C4.776,13.5,5,13.724,5,14S4.776,14.5,4.5,14.5z"
			/>
	</g>
	<g>
		<path class="st0" d="M14.5,14.5h-8C6.224,14.5,6,14.276,6,14s0.224-0.5,0.5-0.5h8c0.276,0,0.5,0.224,0.5,0.5
			S14.776,14.5,14.5,14.5z"/>
	</g>
	<g>
		<path class="st0" d="M60,12.5h-4c-0.276,0-0.5-0.224-0.5-0.5s0.224-0.5,0.5-0.5h4c0.276,0,0.5,0.224,0.5,0.5S60.276,12.5,60,12.5z
			"/>
	</g>
	<g>
		<path class="st0" d="M55,7.5h-4c-0.276,0-0.5-0.224-0.5-0.5s0.224-0.5,0.5-0.5h4c0.276,0,0.5,0.224,0.5,0.5S55.276,7.5,55,7.5z"/>
	</g>
	<g>
		<path class="st0" d="M53,9.5c-0.276,0-0.5-0.224-0.5-0.5V5c0-0.276,0.224-0.5,0.5-0.5s0.5,0.224,0.5,0.5v4
			C53.5,9.276,53.276,9.5,53,9.5z"/>
	</g>
	<g>
		<path class="st0" d="M58,14.5c-0.276,0-0.5-0.224-0.5-0.5v-4c0-0.276,0.224-0.5,0.5-0.5s0.5,0.224,0.5,0.5v4
			C58.5,14.276,58.276,14.5,58,14.5z"/>
	</g>
	<g>
		<circle class="st5" cx="32" cy="32" r="22"/>
		<path class="st0" d="M32,54.5C19.594,54.5,9.5,44.406,9.5,32S19.594,9.5,32,9.5S54.5,19.594,54.5,32S44.406,54.5,32,54.5z
			 M32,10.5c-11.855,0-21.5,9.645-21.5,21.5S20.145,53.5,32,53.5S53.5,43.855,53.5,32S43.855,10.5,32,10.5z"/>
	</g>
	<g>
		<path class="st5" d="M53,45h-0.83c-0.685,1.06-1.447,2.064-2.286,3H53c0.552,0,1-0.448,1-1v-1C54,45.448,53.552,45,53,45z"/>
	</g>
	<g>
		<path class="st5" d="M14.116,48H13c-0.552,0-1,0.448-1,1v1c0,0.552,0.448,1,1,1h4.345C16.179,50.099,15.097,49.096,14.116,48z"/>
	</g>
	<g>
		<path class="st5" d="M51,48h-1.116c-0.981,1.096-2.063,2.099-3.229,3H51c0.552,0,1-0.448,1-1v-1C52,48.448,51.552,48,51,48z"/>
	</g>
	<g>
		<path class="st5" d="M17.521,51.139C17.215,51.31,17,51.624,17,52v1c0,0.552,0.448,1,1,1h4.406
			C20.66,53.237,19.021,52.275,17.521,51.139z"/>
	</g>
	<g>
		<path class="st5" d="M56,51h-9.345c-1.548,1.196-3.245,2.207-5.061,3H56c0.552,0,1-0.448,1-1v-1C57,51.448,56.552,51,56,51z"/>
	</g>
	<g>
		<path class="st0" d="M53,48.5h-3.116c-0.276,0-0.5-0.224-0.5-0.5s0.224-0.5,0.5-0.5H53c0.275,0,0.5-0.225,0.5-0.5v-1
			c0-0.275-0.225-0.5-0.5-0.5h-0.831c-0.276,0-0.5-0.224-0.5-0.5s0.224-0.5,0.5-0.5H53c0.827,0,1.5,0.673,1.5,1.5v1
			C54.5,47.827,53.827,48.5,53,48.5z"/>
	</g>
	<g>
		<path class="st0" d="M17.345,51.5H13c-0.827,0-1.5-0.673-1.5-1.5v-1c0-0.827,0.673-1.5,1.5-1.5h1.116c0.276,0,0.5,0.224,0.5,0.5
			s-0.224,0.5-0.5,0.5H13c-0.275,0-0.5,0.225-0.5,0.5v1c0,0.275,0.225,0.5,0.5,0.5h4.345c0.276,0,0.5,0.224,0.5,0.5
			S17.621,51.5,17.345,51.5z"/>
	</g>
	<g>
		<path class="st0" d="M51,51.5h-4.346c-0.276,0-0.5-0.224-0.5-0.5s0.224-0.5,0.5-0.5H51c0.275,0,0.5-0.225,0.5-0.5v-1
			c0-0.275-0.225-0.5-0.5-0.5h-1.116c-0.276,0-0.5-0.224-0.5-0.5s0.224-0.5,0.5-0.5H51c0.827,0,1.5,0.673,1.5,1.5v1
			C52.5,50.827,51.827,51.5,51,51.5z"/>
	</g>
	<g>
		<path class="st0" d="M22.406,54.5H18c-0.827,0-1.5-0.673-1.5-1.5v-1c0-0.54,0.291-1.025,0.777-1.298
			c0.239-0.133,0.545-0.05,0.681,0.192c0.135,0.241,0.049,0.546-0.192,0.681C17.6,51.668,17.5,51.827,17.5,52v1
			c0,0.275,0.225,0.5,0.5,0.5h4.406c0.276,0,0.5,0.224,0.5,0.5S22.683,54.5,22.406,54.5z"/>
	</g>
	<g>
		<path class="st0" d="M56,54.5H41.594c-0.276,0-0.5-0.224-0.5-0.5s0.224-0.5,0.5-0.5H56c0.275,0,0.5-0.225,0.5-0.5v-1
			c0-0.275-0.225-0.5-0.5-0.5h-9.346c-0.276,0-0.5-0.224-0.5-0.5s0.224-0.5,0.5-0.5H56c0.827,0,1.5,0.673,1.5,1.5v1
			C57.5,53.827,56.827,54.5,56,54.5z"/>
	</g>
	<g>
		<path class="st0" d="M32,52.5c-0.276,0-0.5-0.224-0.5-0.5V12c0-0.276,0.224-0.5,0.5-0.5s0.5,0.224,0.5,0.5v40
			C32.5,52.276,32.276,52.5,32,52.5z"/>
	</g>
	<g>
		<path class="st0" d="M25,51c-0.276,0-0.5-0.224-0.5-0.5v-37c0-0.276,0.224-0.5,0.5-0.5s0.5,0.224,0.5,0.5v37
			C25.5,50.776,25.276,51,25,51z"/>
	</g>
	<g>
		<path class="st0" d="M39,51c-0.276,0-0.5-0.224-0.5-0.5v-37c0-0.276,0.224-0.5,0.5-0.5s0.5,0.224,0.5,0.5v37
			C39.5,50.776,39.276,51,39,51z"/>
	</g>
	<g>
		<path class="st0" d="M46,44.5c-0.276,0-0.5-0.224-0.5-0.5V18c0-0.276,0.224-0.5,0.5-0.5s0.5,0.224,0.5,0.5v26
			C46.5,44.276,46.276,44.5,46,44.5z"/>
	</g>
	<g>
		<path class="st0" d="M18,46.5c-0.276,0-0.5-0.224-0.5-0.5V20c0-0.276,0.224-0.5,0.5-0.5s0.5,0.224,0.5,0.5v26
			C18.5,46.276,18.276,46.5,18,46.5z"/>
	</g>
	<g>
		<path class="st0" d="M52,32.5H12c-0.276,0-0.5-0.224-0.5-0.5s0.224-0.5,0.5-0.5h40c0.276,0,0.5,0.224,0.5,0.5S52.276,32.5,52,32.5
			z"/>
	</g>
	<g>
		<path class="st0" d="M50.25,25.5h-37c-0.276,0-0.5-0.224-0.5-0.5s0.224-0.5,0.5-0.5h37c0.276,0,0.5,0.224,0.5,0.5
			S50.526,25.5,50.25,25.5z"/>
	</g>
	<g>
		<path class="st0" d="M50.25,39.5h-37c-0.276,0-0.5-0.224-0.5-0.5s0.224-0.5,0.5-0.5h37c0.276,0,0.5,0.224,0.5,0.5
			S50.526,39.5,50.25,39.5z"/>
	</g>
	<g>
		<path class="st0" d="M46,46.5H20c-0.276,0-0.5-0.224-0.5-0.5s0.224-0.5,0.5-0.5h26c0.276,0,0.5,0.224,0.5,0.5S46.276,46.5,46,46.5
			z"/>
	</g>
	<g>
		<path class="st0" d="M44,18.5H18c-0.276,0-0.5-0.224-0.5-0.5s0.224-0.5,0.5-0.5h26c0.276,0,0.5,0.224,0.5,0.5S44.276,18.5,44,18.5
			z"/>
	</g>
</g>
</svg>
