<?xml version="1.0" encoding="utf-8"?>
<!-- Generator: Adobe Illustrator 22.0.0, SVG Export Plug-In . SVG Version: 6.00 Build 0)  -->
<svg version="1.1" id="Layer_1" xmlns="http://www.w3.org/2000/svg" xmlns:xlink="http://www.w3.org/1999/xlink" x="0px" y="0px"
	 viewBox="0 0 64 64" style="enable-background:new 0 0 64 64;" xml:space="preserve">
<style type="text/css">
	.st0{fill:#263238;}
	.st1{fill:#4FC3F7;}
	.st2{fill:#4DB6AC;}
	.st3{fill:#FF5252;}
	.st4{fill:#FFFFFF;}
	.st5{fill:#FFD740;}
	.st6{fill:#40C4FF;}
</style>
<g>
	<g>
		<path class="st5" d="M57.09,10.965l-9.5,18.304c-0.839,1.616-2.49,2.648-4.31,2.695l-2.946,0.076c-4.292,0.11-7.8-3.398-7.69-7.69
			l0.076-2.946c0.047-1.82,1.079-3.471,2.695-4.31l18.304-9.5C55.885,6.47,58.214,8.799,57.09,10.965z"/>
		<path class="st0" d="M40.135,32.542c-2.135,0-4.134-0.827-5.65-2.343c-1.565-1.566-2.397-3.648-2.34-5.862l0.076-2.946
			c0.052-2.002,1.188-3.819,2.965-4.741l18.304-9.5c1.187-0.615,2.562-0.401,3.504,0.542c0.943,0.943,1.156,2.319,0.541,3.503l0,0
			l-9.5,18.304c-0.923,1.777-2.739,2.913-4.74,2.964l-2.946,0.076C40.276,32.542,40.205,32.542,40.135,32.542z M54.883,7.8
			c-0.294,0-0.609,0.07-0.934,0.239l-18.304,9.5c-1.454,0.755-2.384,2.241-2.426,3.879l-0.076,2.946
			c-0.049,1.938,0.678,3.759,2.048,5.129c1.371,1.37,3.169,2.116,5.13,2.048l2.946-0.076c1.638-0.042,3.123-0.971,3.879-2.425
			l9.5-18.304c0.497-0.958,0.139-1.835-0.361-2.335C55.954,8.068,55.458,7.8,54.883,7.8z M57.09,10.965h0.01H57.09z"/>
	</g>
	<g>
		<path class="st0" d="M40.257,29.541c-0.271,0-0.493-0.215-0.5-0.487c-0.007-0.276,0.211-0.505,0.487-0.513l2.946-0.076
			c0.546-0.014,1.041-0.323,1.292-0.808l8.774-16.904c0.127-0.246,0.429-0.339,0.674-0.213c0.245,0.127,0.341,0.429,0.213,0.674
			L45.37,28.118c-0.418,0.808-1.244,1.324-2.154,1.347l-2.946,0.076C40.266,29.541,40.261,29.541,40.257,29.541z M57.1,11.465
			c-0.276,0-0.505-0.224-0.505-0.5s0.219-0.5,0.495-0.5h0.01c0.276,0,0.5,0.224,0.5,0.5S57.376,11.465,57.1,11.465z"/>
	</g>
	<g>
		<path class="st0" d="M30.953,30.696c-0.17,0-0.335-0.086-0.429-0.243l-5.303-8.839c-0.118-0.197-0.087-0.449,0.075-0.611
			s0.414-0.192,0.611-0.075l4.998,2.999c0.237,0.142,0.313,0.449,0.171,0.686c-0.143,0.237-0.449,0.314-0.686,0.171l-3.283-1.97
			l4.274,7.124c0.142,0.237,0.065,0.544-0.171,0.686C31.129,30.673,31.04,30.696,30.953,30.696z"/>
	</g>
	<g>
		<path class="st0" d="M43.327,39.535c-0.089,0-0.178-0.023-0.257-0.071l-8.839-5.303c-0.237-0.142-0.314-0.449-0.172-0.686
			s0.452-0.312,0.686-0.171l7.124,4.274l-1.97-3.283c-0.143-0.237-0.065-0.544,0.172-0.686c0.235-0.141,0.543-0.066,0.686,0.171
			l2.999,4.998c0.118,0.197,0.087,0.449-0.075,0.611C43.584,39.485,43.456,39.535,43.327,39.535z"/>
	</g>
	<g>
		<path class="st0" d="M37.75,10.434h-4c-0.276,0-0.5-0.224-0.5-0.5s0.224-0.5,0.5-0.5h4c0.276,0,0.5,0.224,0.5,0.5
			S38.026,10.434,37.75,10.434z"/>
	</g>
	<g>
		<path class="st0" d="M44.25,6.434h-4c-0.276,0-0.5-0.224-0.5-0.5s0.224-0.5,0.5-0.5h4c0.276,0,0.5,0.224,0.5,0.5
			S44.526,6.434,44.25,6.434z"/>
	</g>
	<g>
		<path class="st0" d="M42.25,8.434c-0.276,0-0.5-0.224-0.5-0.5v-4c0-0.276,0.224-0.5,0.5-0.5s0.5,0.224,0.5,0.5v4
			C42.75,8.21,42.526,8.434,42.25,8.434z"/>
	</g>
	<g>
		<path class="st0" d="M35.75,12.434c-0.276,0-0.5-0.224-0.5-0.5v-4c0-0.276,0.224-0.5,0.5-0.5s0.5,0.224,0.5,0.5v4
			C36.25,12.21,36.026,12.434,35.75,12.434z"/>
	</g>
	<g>
		<path class="st0" d="M28.817,58.566c-0.12,0-0.241-0.043-0.336-0.13c-0.204-0.186-0.219-0.502-0.034-0.707l3.184-3.5
			c0.095-0.104,0.229-0.164,0.37-0.164l0,0c0.141,0,0.275,0.06,0.37,0.164l3.183,3.5c0.186,0.204,0.171,0.521-0.034,0.707
			c-0.204,0.186-0.52,0.17-0.706-0.034L32,55.31l-2.813,3.093C29.088,58.511,28.953,58.566,28.817,58.566z"/>
	</g>
	<g>
		<path class="st0" d="M32,60.566c-0.276,0-0.5-0.224-0.5-0.5v-5.5c0-0.276,0.224-0.5,0.5-0.5s0.5,0.224,0.5,0.5v5.5
			C32.5,60.343,32.277,60.566,32,60.566z"/>
	</g>
	<g>
		<path class="st2" d="M34,45.566c0,4.971-2,9-2,9s-2-4.029-2-9s2-9,2-9S34,40.596,34,45.566z"/>
		<path class="st0" d="M32,55.066c-0.19,0-0.363-0.107-0.448-0.278c-0.084-0.168-2.052-4.192-2.052-9.222s1.968-9.054,2.052-9.222
			c0.084-0.17,0.258-0.278,0.448-0.278l0,0c0.19,0,0.363,0.107,0.448,0.278c0.084,0.169,2.052,4.192,2.052,9.222
			s-1.968,9.053-2.052,9.222C32.364,54.959,32.19,55.066,32,55.066z M32.001,37.844c-0.575,1.492-1.5,4.407-1.5,7.722
			c0,3.322,0.924,6.232,1.5,7.722c0.575-1.492,1.5-4.407,1.5-7.722C33.5,42.245,32.576,39.334,32.001,37.844z"/>
	</g>
	<g>
		<path class="st2" d="M39.071,50.324C35.947,53.448,32,54.566,32,54.566s1.118-3.947,4.243-7.071s7.071-4.243,7.071-4.243
			S42.196,47.2,39.071,50.324z"/>
		<path class="st0" d="M32,55.066c-0.131,0-0.258-0.051-0.354-0.146c-0.128-0.128-0.177-0.315-0.127-0.49
			c0.047-0.167,1.19-4.109,4.37-7.288c3.18-3.18,7.121-4.323,7.287-4.37c0.174-0.048,0.362-0.001,0.49,0.127
			c0.128,0.128,0.177,0.315,0.128,0.49c-0.048,0.167-1.19,4.108-4.37,7.288s-7.122,4.323-7.288,4.37
			C32.092,55.06,32.046,55.066,32,55.066z M42.495,44.072c-1.332,0.524-3.818,1.697-5.898,3.777
			c-2.086,2.085-3.256,4.568-3.779,5.899c1.333-0.524,3.819-1.697,5.9-3.778C40.798,47.89,41.971,45.404,42.495,44.072z"/>
	</g>
	<g>
		<path class="st2" d="M24.929,50.324C28.053,53.448,32,54.566,32,54.566s-1.118-3.947-4.243-7.071s-7.071-4.243-7.071-4.243
			S21.805,47.2,24.929,50.324z"/>
		<path class="st0" d="M32,55.066c-0.045,0-0.091-0.006-0.136-0.019c-0.167-0.047-4.109-1.19-7.289-4.37
			c-3.18-3.179-4.323-7.122-4.37-7.288c-0.049-0.174-0.001-0.362,0.127-0.49c0.128-0.128,0.314-0.177,0.49-0.127
			c0.167,0.047,4.108,1.19,7.289,4.37c3.18,3.179,4.323,7.122,4.37,7.288c0.049,0.174,0.001,0.362-0.127,0.49
			C32.259,55.015,32.131,55.066,32,55.066z M21.505,44.07c0.524,1.332,1.697,3.819,3.778,5.9c2.086,2.085,4.569,3.256,5.899,3.779
			c-0.524-1.332-1.697-3.819-3.778-5.9C25.318,45.763,22.835,44.593,21.505,44.07z"/>
	</g>
	<g>
		<path class="st2" d="M26,56.066c3.314,0,6-1.5,6-1.5s-2.686-1.5-6-1.5s-6,1.5-6,1.5S22.687,56.066,26,56.066z"/>
		<path class="st0" d="M26,56.566c-3.405,0-6.129-1.5-6.244-1.563c-0.158-0.088-0.256-0.255-0.256-0.437s0.098-0.348,0.256-0.437
			c0.114-0.064,2.839-1.563,6.244-1.563c3.404,0,6.129,1.5,6.244,1.563c0.158,0.088,0.256,0.255,0.256,0.437
			s-0.098,0.348-0.256,0.437C32.13,55.067,29.405,56.566,26,56.566z M21.189,54.566c1.034,0.423,2.813,1,4.812,1
			c1.998,0,3.776-0.577,4.81-1c-1.034-0.423-2.812-1-4.81-1C23.996,53.566,22.221,54.143,21.189,54.566z"/>
	</g>
	<g>
		<path class="st2" d="M38,56.066c3.314,0,6-1.5,6-1.5s-2.686-1.5-6-1.5s-6,1.5-6,1.5S34.687,56.066,38,56.066z"/>
		<path class="st0" d="M38,56.566c-3.404,0-6.129-1.5-6.243-1.563c-0.158-0.088-0.256-0.255-0.256-0.437s0.098-0.348,0.256-0.437
			c0.114-0.064,2.839-1.563,6.243-1.563c3.405,0,6.13,1.5,6.244,1.563c0.158,0.088,0.256,0.255,0.256,0.437
			s-0.098,0.348-0.256,0.437C44.13,55.067,41.405,56.566,38,56.566z M33.188,54.566c1.034,0.423,2.813,1,4.812,1
			s3.776-0.577,4.811-1c-1.034-0.423-2.812-1-4.811-1C35.996,53.566,34.221,54.143,33.188,54.566z"/>
	</g>
	<g>
		<path class="st0" d="M9.739,58.565c-0.384,0-0.768-0.146-1.061-0.438l-2.122-2.121c-0.585-0.585-0.585-1.537,0-2.122
			l26.469-26.469c0.115-0.115,0.283-0.167,0.438-0.139c0.16,0.027,0.297,0.13,0.367,0.277c0.688,1.44,1.86,2.612,3.3,3.3
			c0.146,0.07,0.25,0.207,0.277,0.367c0.027,0.16-0.024,0.323-0.14,0.438l-3.697,3.698c-0.195,0.195-0.512,0.195-0.707,0
			s-0.195-0.512,0-0.707l3.221-3.221c-1.164-0.688-2.141-1.665-2.828-2.828L7.264,54.591c-0.195,0.195-0.195,0.512,0,0.708
			l2.122,2.121c0.195,0.194,0.512,0.195,0.707,0l10.05-10.05c0.195-0.195,0.512-0.195,0.707,0s0.195,0.512,0,0.707L10.8,58.127
			C10.507,58.419,10.124,58.565,9.739,58.565z"/>
	</g>
	<g>
		<path class="st0" d="M25.159,43.561c-0.128,0-0.256-0.049-0.354-0.146c-0.195-0.195-0.195-0.512,0-0.707l3.726-3.726
			c0.195-0.195,0.512-0.195,0.707,0s0.195,0.512,0,0.707l-3.726,3.726C25.415,43.512,25.287,43.561,25.159,43.561z"/>
	</g>
	<g>
		<path class="st0" d="M4,31.066H2c-0.276,0-0.5-0.224-0.5-0.5s0.224-0.5,0.5-0.5h2c0.276,0,0.5,0.224,0.5,0.5
			S4.276,31.066,4,31.066z"/>
	</g>
	<g>
		<path class="st0" d="M15.5,31.066H6c-0.276,0-0.5-0.224-0.5-0.5s0.224-0.5,0.5-0.5h9.5c0.276,0,0.5,0.224,0.5,0.5
			S15.776,31.066,15.5,31.066z"/>
	</g>
	<g>
		<path class="st0" d="M62,53.066h-2c-0.276,0-0.5-0.224-0.5-0.5s0.224-0.5,0.5-0.5h2c0.276,0,0.5,0.224,0.5,0.5
			S62.276,53.066,62,53.066z"/>
	</g>
	<g>
		<path class="st0" d="M58,53.066h-9.5c-0.276,0-0.5-0.224-0.5-0.5s0.224-0.5,0.5-0.5H58c0.276,0,0.5,0.224,0.5,0.5
			S58.276,53.066,58,53.066z"/>
	</g>
</g>
</svg>
