<?xml version="1.0" encoding="utf-8"?>
<!-- Generator: Adobe Illustrator 22.0.0, SVG Export Plug-In . SVG Version: 6.00 Build 0)  -->
<svg version="1.1" id="Layer_1" xmlns="http://www.w3.org/2000/svg" xmlns:xlink="http://www.w3.org/1999/xlink" x="0px" y="0px"
	 viewBox="0 0 64 64" style="enable-background:new 0 0 64 64;" xml:space="preserve">
<style type="text/css">
	.st0{fill:#263238;}
	.st1{fill:#4FC3F7;}
	.st2{fill:#4DB6AC;}
	.st3{fill:#FF5252;}
	.st4{fill:#FFFFFF;}
	.st5{fill:#FFD740;}
	.st6{fill:#40C4FF;}
</style>
<g>
	<g>
		<path class="st5" d="M42,60H23c-2.761,0-5-2.239-5-5V28c0-2.761,2.239-5,5-5h24v32C47,57.762,44.761,60,42,60z"/>
		<path class="st0" d="M42,60.5H23c-3.032,0-5.5-2.467-5.5-5.5V28c0-3.033,2.468-5.5,5.5-5.5h24c0.276,0,0.5,0.224,0.5,0.5v32
			C47.5,58.033,45.032,60.5,42,60.5z M23,23.5c-2.481,0-4.5,2.019-4.5,4.5v27c0,2.481,2.019,4.5,4.5,4.5h19
			c2.481,0,4.5-2.019,4.5-4.5V23.5H23z"/>
	</g>
	<g>
		<path class="st0" d="M47,23.5H36c-0.276,0-0.5-0.224-0.5-0.5V10c0-0.827,0.673-1.5,1.5-1.5h9c0.827,0,1.5,0.673,1.5,1.5v13
			C47.5,23.277,47.276,23.5,47,23.5z M36.5,22.5h10V10c0-0.276-0.225-0.5-0.5-0.5h-9c-0.275,0-0.5,0.224-0.5,0.5V22.5z"/>
	</g>
	<g>
		<path class="st0" d="M44,9.5h-5c-0.276,0-0.5-0.224-0.5-0.5V5c0-0.827,0.673-1.5,1.5-1.5h3c0.827,0,1.5,0.673,1.5,1.5v4
			C44.5,9.277,44.276,9.5,44,9.5z M39.5,8.5h4V5c0-0.276-0.225-0.5-0.5-0.5h-3c-0.275,0-0.5,0.224-0.5,0.5V8.5z"/>
	</g>
	<g>
		<path class="st0" d="M47,12.5H36c-0.276,0-0.5-0.224-0.5-0.5s0.224-0.5,0.5-0.5h11c0.276,0,0.5,0.224,0.5,0.5S47.276,12.5,47,12.5
			z"/>
	</g>
	<g>
		<rect x="39" y="12" class="st6" width="5" height="11"/>
		<path class="st0" d="M44,23.5h-5c-0.276,0-0.5-0.224-0.5-0.5V12c0-0.276,0.224-0.5,0.5-0.5h5c0.276,0,0.5,0.224,0.5,0.5v11
			C44.5,23.277,44.276,23.5,44,23.5z M39.5,22.5h4v-10h-4V22.5z"/>
	</g>
	<g>
		<path class="st0" d="M18,33.5h-2c-0.827,0-1.5-0.673-1.5-1.5v-2c0-0.827,0.673-1.5,1.5-1.5h2c0.276,0,0.5,0.224,0.5,0.5v4
			C18.5,33.277,18.276,33.5,18,33.5z M16,29.5c-0.275,0-0.5,0.224-0.5,0.5v2c0,0.276,0.225,0.5,0.5,0.5h1.5v-3H16z"/>
	</g>
	<g>
		<path class="st0" d="M18,40.5h-2c-0.827,0-1.5-0.673-1.5-1.5v-2c0-0.827,0.673-1.5,1.5-1.5h2c0.276,0,0.5,0.224,0.5,0.5v4
			C18.5,40.277,18.276,40.5,18,40.5z M16,36.5c-0.275,0-0.5,0.224-0.5,0.5v2c0,0.276,0.225,0.5,0.5,0.5h1.5v-3H16z"/>
	</g>
	<g>
		<path class="st0" d="M47,55.5H18c-0.276,0-0.5-0.224-0.5-0.5s0.224-0.5,0.5-0.5h29c0.276,0,0.5,0.224,0.5,0.5S47.276,55.5,47,55.5
			z"/>
	</g>
	<g>
		<path class="st0" d="M44,31.5c-0.276,0-0.5-0.224-0.5-0.5v-4.502l-4.502-0.021c-0.276-0.001-0.499-0.226-0.498-0.502
			c0.001-0.275,0.225-0.498,0.5-0.498c0.001,0,0.002,0,0.002,0l5,0.023c0.275,0.001,0.498,0.225,0.498,0.5v5
			C44.5,31.277,44.276,31.5,44,31.5z"/>
	</g>
	<g>
		<path class="st0" d="M63.5,55.5h-2c-0.276,0-0.5-0.224-0.5-0.5s0.224-0.5,0.5-0.5h2c0.276,0,0.5,0.224,0.5,0.5
			S63.776,55.5,63.5,55.5z"/>
	</g>
	<g>
		<path class="st0" d="M59.5,55.5h-8c-0.276,0-0.5-0.224-0.5-0.5s0.224-0.5,0.5-0.5h8c0.276,0,0.5,0.224,0.5,0.5
			S59.776,55.5,59.5,55.5z"/>
	</g>
	<g>
		<path class="st0" d="M2.5,55.5h-2C0.224,55.5,0,55.277,0,55s0.224-0.5,0.5-0.5h2C2.776,54.5,3,54.724,3,55S2.776,55.5,2.5,55.5z"
			/>
	</g>
	<g>
		<path class="st0" d="M12.5,55.5h-8C4.224,55.5,4,55.277,4,55s0.224-0.5,0.5-0.5h8c0.276,0,0.5,0.224,0.5,0.5
			S12.776,55.5,12.5,55.5z"/>
	</g>
	<g>
		<path class="st0" d="M27.5,11h-4c-0.276,0-0.5-0.224-0.5-0.5s0.224-0.5,0.5-0.5h4c0.276,0,0.5,0.224,0.5,0.5S27.776,11,27.5,11z"
			/>
	</g>
	<g>
		<path class="st0" d="M22,6.5h-4c-0.276,0-0.5-0.224-0.5-0.5s0.224-0.5,0.5-0.5h4c0.276,0,0.5,0.224,0.5,0.5S22.276,6.5,22,6.5z"/>
	</g>
	<g>
		<path class="st0" d="M20,8.5c-0.276,0-0.5-0.224-0.5-0.5V4c0-0.276,0.224-0.5,0.5-0.5s0.5,0.224,0.5,0.5v4
			C20.5,8.277,20.276,8.5,20,8.5z"/>
	</g>
	<g>
		<path class="st0" d="M25.5,13c-0.276,0-0.5-0.224-0.5-0.5v-4C25,8.224,25.224,8,25.5,8S26,8.224,26,8.5v4
			C26,12.777,25.776,13,25.5,13z"/>
	</g>
</g>
</svg>
