<?xml version="1.0" encoding="utf-8"?>
<!-- Generator: Adobe Illustrator 22.0.0, SVG Export Plug-In . SVG Version: 6.00 Build 0)  -->
<svg version="1.1" id="Layer_1" xmlns="http://www.w3.org/2000/svg" xmlns:xlink="http://www.w3.org/1999/xlink" x="0px" y="0px"
	 viewBox="0 0 64 64" style="enable-background:new 0 0 64 64;" xml:space="preserve">
<style type="text/css">
	.st0{fill:#263238;}
	.st1{fill:#4FC3F7;}
	.st2{fill:#4DB6AC;}
	.st3{fill:#FF5252;}
	.st4{fill:#FFFFFF;}
	.st5{fill:#FFD740;}
	.st6{fill:#40C4FF;}
</style>
<g>
	<g>
		<path class="st0" d="M44.5,22.719h-4c-0.276,0-0.5-0.224-0.5-0.5s0.224-0.5,0.5-0.5h4c0.276,0,0.5,0.224,0.5,0.5
			S44.776,22.719,44.5,22.719z"/>
	</g>
	<g>
		<path class="st0" d="M49,18.219h-4c-0.276,0-0.5-0.224-0.5-0.5s0.224-0.5,0.5-0.5h4c0.276,0,0.5,0.224,0.5,0.5
			S49.276,18.219,49,18.219z"/>
	</g>
	<g>
		<path class="st0" d="M47,20.219c-0.276,0-0.5-0.224-0.5-0.5v-4c0-0.276,0.224-0.5,0.5-0.5s0.5,0.224,0.5,0.5v4
			C47.5,19.995,47.276,20.219,47,20.219z"/>
	</g>
	<g>
		<path class="st0" d="M42.5,24.719c-0.276,0-0.5-0.224-0.5-0.5v-4c0-0.276,0.224-0.5,0.5-0.5s0.5,0.224,0.5,0.5v4
			C43,24.495,42.776,24.719,42.5,24.719z"/>
	</g>
	<g>
		<path class="st5" d="M13.169,26.487l-7.501-7.501c-1.033-1.033-0.964-2.727,0.149-3.673l11.519-9.791
			c0.332-0.282,0.808-0.317,1.178-0.086l9.7,6.063c0.521,0.326,0.628,1.04,0.225,1.504L16.823,26.359
			C15.872,27.453,14.194,27.511,13.169,26.487z"/>
	</g>
	<g>
		<path class="st5" d="M7.55,11.214c-0.46-1.243-0.2-2.695,0.797-3.692c1.137-1.137,2.863-1.312,4.198-0.554l2.373-2.017
			c-2.55-2.073-6.319-1.924-8.693,0.45c-2.117,2.117-2.459,5.34-1.039,7.822L7.55,11.214z"/>
	</g>
	<g>
		<path class="st0" d="M7.55,11.714c-0.203,0-0.394-0.125-0.469-0.327C6.539,9.921,6.896,8.266,7.993,7.168
			c1.261-1.261,3.236-1.522,4.799-0.636c0.24,0.137,0.325,0.442,0.188,0.682s-0.443,0.324-0.682,0.188
			C11.125,6.736,9.645,6.931,8.7,7.875c-0.821,0.822-1.089,2.064-0.682,3.165c0.096,0.259-0.036,0.546-0.295,0.642
			C7.666,11.704,7.607,11.714,7.55,11.714z"/>
	</g>
	<g>
		<path class="st0" d="M5.187,13.723c-0.173,0-0.342-0.09-0.435-0.252c-1.564-2.736-1.104-6.2,1.12-8.423
			c2.545-2.546,6.57-2.755,9.362-0.484c0.214,0.174,0.247,0.489,0.072,0.703c-0.174,0.215-0.488,0.248-0.703,0.073
			C12.21,3.393,8.761,3.573,6.579,5.754c-1.906,1.906-2.3,4.875-0.958,7.22c0.137,0.24,0.054,0.545-0.186,0.682
			C5.356,13.702,5.271,13.723,5.187,13.723z"/>
	</g>
	<g>
		<path class="st5" d="M18.577,20.343l-2.072,2.383c-0.563,0.647-0.103,1.656,0.755,1.656h14.805v-3l-11.19-1.865
			C20.017,19.374,19.147,19.687,18.577,20.343z"/>
		<path class="st0" d="M32.064,24.882H17.259c-0.595,0-1.118-0.336-1.365-0.878c-0.247-0.542-0.158-1.157,0.233-1.606l2.072-2.383
			c0.68-0.782,1.736-1.161,2.757-0.991l11.189,1.865c0.241,0.04,0.418,0.249,0.418,0.493v3
			C32.564,24.658,32.341,24.882,32.064,24.882z M20.458,19.982c-0.573,0-1.118,0.245-1.503,0.688l0,0l-2.072,2.383
			c-0.196,0.226-0.109,0.467-0.078,0.536c0.031,0.068,0.157,0.292,0.455,0.292h14.305v-2.077L20.792,20.01
			C20.68,19.992,20.568,19.982,20.458,19.982z M18.577,20.343h0.01H18.577z"/>
	</g>
	<g>
		<path class="st0" d="M14.938,27.719c-0.792,0-1.561-0.317-2.123-0.879l-7.501-7.501c-0.591-0.59-0.91-1.408-0.876-2.243
			c0.034-0.834,0.418-1.624,1.055-2.165L17.012,5.14c0.5-0.425,1.209-0.479,1.767-0.129l9.701,6.063
			c0.373,0.233,0.624,0.616,0.688,1.05s-0.063,0.874-0.352,1.206l-4.366,5.021c-0.182,0.208-0.498,0.229-0.706,0.049
			c-0.208-0.181-0.23-0.497-0.049-0.706l4.366-5.021c0.098-0.112,0.139-0.255,0.117-0.402s-0.104-0.271-0.229-0.35l-9.701-6.063
			c-0.184-0.115-0.421-0.098-0.589,0.043L6.14,15.693c-0.431,0.366-0.68,0.879-0.703,1.443s0.185,1.096,0.584,1.495l7.501,7.501
			c0.396,0.396,0.925,0.603,1.485,0.585c0.56-0.02,1.071-0.264,1.438-0.687l0.761,0.649c-0.549,0.632-1.336,1.007-2.165,1.036
			C15.007,27.718,14.973,27.719,14.938,27.719z"/>
	</g>
	<g>
		<path class="st6" d="M25.392,38.405L25.392,38.405c0.663-0.643,0.8-1.656,0.331-2.451L24,33.03l-1.723,2.924
			c-0.469,0.795-0.332,1.808,0.331,2.451l0,0C23.383,39.157,24.617,39.157,25.392,38.405z"/>
	</g>
	<g>
		<path class="st6" d="M33.392,32.405L33.392,32.405c0.663-0.643,0.8-1.656,0.331-2.451L32,27.03l-1.723,2.924
			c-0.469,0.795-0.332,1.808,0.331,2.451l0,0C31.383,33.157,32.617,33.157,33.392,32.405z"/>
	</g>
	<g>
		<path class="st6" d="M41.392,38.405L41.392,38.405c0.663-0.643,0.8-1.656,0.331-2.451L40,33.03l-1.723,2.924
			c-0.469,0.795-0.332,1.808,0.331,2.451v0C39.383,39.157,40.617,39.157,41.392,38.405z"/>
	</g>
	<g>
		<path class="st0" d="M35.184,59c-0.136,0-0.271-0.055-0.37-0.164L32,55.743l-2.813,3.093c-0.186,0.205-0.502,0.219-0.707,0.034
			c-0.204-0.186-0.219-0.502-0.034-0.707l3.183-3.5c0.189-0.208,0.55-0.208,0.74,0l3.184,3.5c0.186,0.204,0.171,0.521-0.033,0.707
			C35.424,58.957,35.304,59,35.184,59z"/>
	</g>
	<g>
		<path class="st0" d="M32,61c-0.276,0-0.5-0.224-0.5-0.5V55c0-0.276,0.224-0.5,0.5-0.5s0.5,0.224,0.5,0.5v5.5
			C32.5,60.776,32.276,61,32,61z"/>
	</g>
	<g>
		<path class="st2" d="M34.5,45c0,5.523-2.5,10-2.5,10s-2.5-4.477-2.5-10S32,35,32,35S34.5,39.477,34.5,45z"/>
		<path class="st0" d="M32,55.5c-0.181,0-0.348-0.098-0.437-0.256C31.459,55.056,29,50.588,29,45c0-5.589,2.459-10.056,2.563-10.244
			c0.177-0.316,0.696-0.316,0.873,0C32.541,34.944,35,39.411,35,45c0,5.588-2.459,10.056-2.563,10.244
			C32.348,55.402,32.181,55.5,32,55.5z M32,36.139c-0.701,1.554-2,4.958-2,8.861c0,3.911,1.298,7.311,2,8.862
			c0.701-1.553,2-4.958,2-8.862C34,41.097,32.701,37.692,32,36.139z"/>
	</g>
	<g>
		<path class="st2" d="M39.778,50.05C36.263,53.565,32,55,32,55s1.435-4.263,4.95-7.778c3.515-3.515,7.778-4.95,7.778-4.95
			S43.293,46.535,39.778,50.05z"/>
		<path class="st0" d="M32,55.5c-0.13,0-0.258-0.051-0.354-0.146c-0.134-0.134-0.181-0.333-0.121-0.513
			c0.061-0.178,1.513-4.416,5.071-7.972c3.557-3.557,7.793-5.01,7.972-5.07c0.178-0.061,0.379-0.014,0.513,0.12
			c0.135,0.134,0.181,0.333,0.12,0.513c-0.06,0.178-1.513,4.415-5.069,7.972l0,0c-3.557,3.557-7.794,5.01-7.972,5.07
			C32.107,55.492,32.053,55.5,32,55.5z M43.824,43.176c-1.461,0.648-4.176,2.055-6.521,4.399c-2.345,2.344-3.751,5.059-4.399,6.521
			c1.462-0.648,4.177-2.055,6.521-4.399l0,0C41.773,47.348,43.178,44.636,43.824,43.176z M39.778,50.05h0.01H39.778z"/>
	</g>
	<g>
		<path class="st2" d="M24.222,50.05C27.737,53.565,32,55,32,55s-1.435-4.263-4.95-7.778c-3.515-3.515-7.778-4.95-7.778-4.95
			S20.707,46.535,24.222,50.05z"/>
		<path class="st0" d="M32,55.5c-0.053,0-0.107-0.008-0.16-0.026c-0.178-0.06-4.415-1.513-7.972-5.07l0,0
			c-3.557-3.557-5.01-7.794-5.07-7.972c-0.061-0.18-0.014-0.379,0.12-0.513c0.134-0.134,0.332-0.181,0.513-0.121
			c0.178,0.061,4.416,1.514,7.972,5.07s5.01,7.794,5.07,7.972c0.061,0.18,0.014,0.379-0.121,0.513C32.258,55.449,32.13,55.5,32,55.5
			z M24.575,49.697c2.344,2.344,5.059,3.75,6.521,4.399c-0.648-1.462-2.055-4.177-4.399-6.521s-5.059-3.75-6.521-4.399
			C20.825,44.638,22.231,47.353,24.575,49.697L24.575,49.697z"/>
	</g>
	<g>
		<path class="st2" d="M26,56.5c3.314,0,6-1.5,6-1.5s-2.686-1.5-6-1.5S20,55,20,55S22.686,56.5,26,56.5z"/>
		<path class="st0" d="M26,57c-3.405,0-6.129-1.5-6.244-1.563C19.598,55.348,19.5,55.181,19.5,55s0.098-0.348,0.256-0.437
			C19.871,54.5,22.595,53,26,53c3.404,0,6.129,1.5,6.244,1.563C32.402,54.652,32.5,54.819,32.5,55s-0.098,0.348-0.256,0.437
			C32.129,55.5,29.404,57,26,57z M21.188,55c1.034,0.423,2.813,1,4.812,1c1.998,0,3.776-0.577,4.81-1c-1.034-0.423-2.812-1-4.81-1
			C23.996,54,22.22,54.577,21.188,55z"/>
	</g>
	<g>
		<path class="st2" d="M38,56.5c3.314,0,6-1.5,6-1.5s-2.686-1.5-6-1.5S32,55,32,55S34.686,56.5,38,56.5z"/>
		<path class="st0" d="M38,57c-3.404,0-6.129-1.5-6.244-1.563C31.598,55.348,31.5,55.181,31.5,55s0.098-0.348,0.256-0.437
			C31.871,54.5,34.596,53,38,53s6.13,1.5,6.244,1.563C44.402,54.652,44.5,54.819,44.5,55s-0.098,0.348-0.256,0.437
			C44.13,55.5,41.404,57,38,57z M33.189,55c1.035,0.423,2.813,1,4.811,1s3.775-0.577,4.811-1c-1.035-0.423-2.813-1-4.811-1
			S34.225,54.577,33.189,55z"/>
	</g>
	<g>
		<path class="st0" d="M4,51.75H2c-0.276,0-0.5-0.224-0.5-0.5s0.224-0.5,0.5-0.5h2c0.276,0,0.5,0.224,0.5,0.5S4.276,51.75,4,51.75z"
			/>
	</g>
	<g>
		<path class="st0" d="M16.5,51.75H6c-0.276,0-0.5-0.224-0.5-0.5s0.224-0.5,0.5-0.5h10.5c0.276,0,0.5,0.224,0.5,0.5
			S16.776,51.75,16.5,51.75z"/>
	</g>
	<g>
		<path class="st0" d="M62,51.75h-2c-0.276,0-0.5-0.224-0.5-0.5s0.224-0.5,0.5-0.5h2c0.276,0,0.5,0.224,0.5,0.5
			S62.276,51.75,62,51.75z"/>
	</g>
	<g>
		<path class="st0" d="M58,51.75H47.5c-0.276,0-0.5-0.224-0.5-0.5s0.224-0.5,0.5-0.5H58c0.276,0,0.5,0.224,0.5,0.5
			S58.276,51.75,58,51.75z"/>
	</g>
	<g>
		<path class="st0" d="M29.064,24.882c-0.276,0-0.5-0.224-0.5-0.5v-3.5c0-0.276,0.224-0.5,0.5-0.5s0.5,0.224,0.5,0.5v3.5
			C29.564,24.658,29.341,24.882,29.064,24.882z"/>
	</g>
</g>
</svg>
