<?xml version="1.0" encoding="utf-8"?>
<!-- Generator: Adobe Illustrator 22.0.0, SVG Export Plug-In . SVG Version: 6.00 Build 0)  -->
<svg version="1.1" id="Icon_Set" xmlns="http://www.w3.org/2000/svg" xmlns:xlink="http://www.w3.org/1999/xlink" x="0px" y="0px"
	 viewBox="0 0 64 64" style="enable-background:new 0 0 64 64;" xml:space="preserve">
<style type="text/css">
	.st0{fill:#263238;}
	.st1{fill:#FFD740;}
	.st2{fill:#4FC3F7;}
	.st3{fill:#40C4FF;}
	.st4{fill:#FF5252;}
	.st5{fill:#FFFFFF;}
	.st6{fill:#212A41;}
	.st7{fill:#37474F;}
	.st8{fill:#4DB6AC;}
</style>
<g>
	<g>
		<g>
			<path class="st0" d="M56,43.5c-0.276,0-0.5-0.224-0.5-0.5v-4c0-0.276-0.225-0.5-0.5-0.5h-4c-0.276,0-0.5-0.224-0.5-0.5
				s0.224-0.5,0.5-0.5h4c0.827,0,1.5,0.673,1.5,1.5v4C56.5,43.276,56.276,43.5,56,43.5z"/>
		</g>
		<g>
			<path class="st0" d="M49,55h-8.729c-2.442,0-4.617-1.64-5.288-3.989l-0.445-1.56C34.294,48.597,33.503,48,32.614,48h-1.229
				c-0.889,0-1.68,0.597-1.924,1.451l-0.445,1.56C28.346,53.36,26.171,55,23.729,55H15C9.21,55,4.5,50.29,4.5,44.5V37
				c0-0.276,0.224-0.5,0.5-0.5s0.5,0.224,0.5,0.5v7.5c0,5.238,4.262,9.5,9.5,9.5h8.729c1.998,0,3.777-1.342,4.327-3.264l0.445-1.56
				C28.867,47.895,30.053,47,31.386,47h1.229c1.333,0,2.519,0.895,2.885,2.176l0.445,1.56C36.494,52.658,38.273,54,40.271,54H49
				c5.238,0,9.5-4.262,9.5-9.5V37c0-0.276,0.224-0.5,0.5-0.5s0.5,0.224,0.5,0.5v7.5C59.5,50.29,54.79,55,49,55z"/>
		</g>
		<g>
			<path class="st3" d="M58.5,35h-22l-2,2h-5l-2-2h-22C4.119,35,3,33.881,3,32.5v0C3,31.119,4.119,30,5.5,30h53
				c1.381,0,2.5,1.119,2.5,2.5v0C61,33.881,59.881,35,58.5,35z"/>
			<path class="st0" d="M34.5,37.5h-5c-0.133,0-0.26-0.053-0.354-0.146L27.293,35.5H5.5c-1.654,0-3-1.346-3-3s1.346-3,3-3h53
				c1.654,0,3,1.346,3,3s-1.346,3-3,3H36.707l-1.854,1.854C34.76,37.447,34.633,37.5,34.5,37.5z M29.707,36.5h4.586l1.854-1.854
				C36.24,34.553,36.367,34.5,36.5,34.5h22c1.103,0,2-0.897,2-2s-0.897-2-2-2h-53c-1.103,0-2,0.897-2,2s0.897,2,2,2h22
				c0.133,0,0.26,0.053,0.354,0.146L29.707,36.5z"/>
		</g>
		<g>
			<path class="st0" d="M17,48.5H4c-0.827,0-1.5-0.673-1.5-1.5v-7c0-0.827,0.673-1.5,1.5-1.5h13c0.827,0,1.5,0.673,1.5,1.5v7
				C18.5,47.827,17.827,48.5,17,48.5z M4,39.5c-0.275,0-0.5,0.224-0.5,0.5v7c0,0.276,0.225,0.5,0.5,0.5h13
				c0.275,0,0.5-0.224,0.5-0.5v-7c0-0.276-0.225-0.5-0.5-0.5H4z"/>
		</g>
		<g>
			<polyline class="st1" points="10.5,28 13.5,19.5 10,19.5 6,28 			"/>
			<path class="st0" d="M10.5,28.5c-0.056,0-0.111-0.009-0.166-0.028c-0.261-0.092-0.397-0.378-0.306-0.638L12.793,20h-2.476
				l-3.865,8.213c-0.117,0.25-0.417,0.357-0.665,0.24c-0.25-0.118-0.357-0.416-0.239-0.666l4-8.5C9.63,19.112,9.807,19,10,19h3.5
				c0.162,0,0.314,0.079,0.408,0.211c0.094,0.132,0.117,0.302,0.063,0.455l-3,8.5C10.899,28.372,10.706,28.5,10.5,28.5z"/>
		</g>
		<g>
			<path class="st0" d="M26,20H10c-0.276,0-0.5-0.224-0.5-0.5S9.724,19,10,19h16c0.276,0,0.5,0.224,0.5,0.5S26.276,20,26,20z"/>
		</g>
		<g>
			<polyline class="st1" points="53.5,28 50.5,19.5 54,19.5 58,28 			"/>
			<path class="st0" d="M53.5,28.5c-0.206,0-0.399-0.128-0.472-0.333l-3-8.5c-0.054-0.153-0.03-0.323,0.063-0.455
				C50.186,19.079,50.338,19,50.5,19H54c0.193,0,0.37,0.112,0.452,0.287l4,8.5c0.118,0.25,0.011,0.548-0.239,0.666
				c-0.248,0.117-0.548,0.011-0.665-0.24L53.683,20h-2.476l2.765,7.833c0.092,0.26-0.045,0.546-0.306,0.638
				C53.611,28.491,53.556,28.5,53.5,28.5z"/>
		</g>
		<g>
			<path class="st0" d="M54,20H38c-0.276,0-0.5-0.224-0.5-0.5S37.724,19,38,19h16c0.276,0,0.5,0.224,0.5,0.5S54.276,20,54,20z"/>
		</g>
		<g>
			<path class="st0" d="M11,59h-1c-0.276,0-0.5-0.224-0.5-0.5S9.724,58,10,58h1c0.276,0,0.5,0.224,0.5,0.5S11.276,59,11,59z"/>
		</g>
		<g>
			<path class="st0" d="M21.5,59H13c-0.276,0-0.5-0.224-0.5-0.5S12.724,58,13,58h8.5c0.276,0,0.5,0.224,0.5,0.5S21.776,59,21.5,59z"
				/>
		</g>
		<g>
			<path class="st0" d="M54,59h-1c-0.276,0-0.5-0.224-0.5-0.5S52.724,58,53,58h1c0.276,0,0.5,0.224,0.5,0.5S54.276,59,54,59z"/>
		</g>
		<g>
			<path class="st0" d="M51,59h-8.5c-0.276,0-0.5-0.224-0.5-0.5s0.224-0.5,0.5-0.5H51c0.276,0,0.5,0.224,0.5,0.5S51.276,59,51,59z"
				/>
		</g>
		<g>
			<path class="st0" d="M59.5,15.5h-4c-0.276,0-0.5-0.224-0.5-0.5s0.224-0.5,0.5-0.5h4c0.276,0,0.5,0.224,0.5,0.5
				S59.776,15.5,59.5,15.5z"/>
		</g>
		<g>
			<path class="st0" d="M54,8h-4c-0.276,0-0.5-0.224-0.5-0.5S49.724,7,50,7h4c0.276,0,0.5,0.224,0.5,0.5S54.276,8,54,8z"/>
		</g>
		<g>
			<path class="st0" d="M52,10c-0.276,0-0.5-0.224-0.5-0.5v-4C51.5,5.224,51.724,5,52,5s0.5,0.224,0.5,0.5v4
				C52.5,9.776,52.276,10,52,10z"/>
		</g>
		<g>
			<path class="st0" d="M57.5,17.5c-0.276,0-0.5-0.224-0.5-0.5v-4c0-0.276,0.224-0.5,0.5-0.5S58,12.724,58,13v4
				C58,17.276,57.776,17.5,57.5,17.5z"/>
		</g>
		<g>
			<path class="st0" d="M14,48.5c-0.276,0-0.5-0.224-0.5-0.5v-9c0-0.276,0.224-0.5,0.5-0.5s0.5,0.224,0.5,0.5v9
				C14.5,48.276,14.276,48.5,14,48.5z"/>
		</g>
	</g>
</g>
</svg>
