<?xml version="1.0" encoding="utf-8"?>
<!-- Generator: Adobe Illustrator 22.0.0, SVG Export Plug-In . SVG Version: 6.00 Build 0)  -->
<svg version="1.1" id="Icon_Set" xmlns="http://www.w3.org/2000/svg" xmlns:xlink="http://www.w3.org/1999/xlink" x="0px" y="0px"
	 viewBox="0 0 64 64" style="enable-background:new 0 0 64 64;" xml:space="preserve">
<style type="text/css">
	.st0{fill:#263238;}
	.st1{fill:#FFD740;}
	.st2{fill:#4FC3F7;}
	.st3{fill:#40C4FF;}
	.st4{fill:#FF5252;}
	.st5{fill:#FFFFFF;}
	.st6{fill:#212A41;}
	.st7{fill:#37474F;}
	.st8{fill:#4DB6AC;}
</style>
<g>
	<g>
		<path class="st0" d="M36.354,60.5c-0.276,0-0.5-0.224-0.5-0.5v-9c0-0.276,0.224-0.5,0.5-0.5s0.5,0.224,0.5,0.5v9
			C36.854,60.276,36.63,60.5,36.354,60.5z"/>
	</g>
	<g>
		<path class="st0" d="M20.354,60.5c-0.276,0-0.5-0.224-0.5-0.5l-0.001-14.952l-3.062-2.702c-4.409-3.89-6.937-9.493-6.937-15.372
			V25c0-11.304,9.196-20.5,20.5-20.5c11.304,0,20.5,9.196,20.5,20.5v1.339l4.583,6.417c0.656,0.918,0.743,2.112,0.226,3.116
			c-0.516,1.003-1.538,1.627-2.667,1.627h-2.142v6c0,4.411-3.589,8-8,8h-11.5c-0.276,0-0.5-0.224-0.5-0.5s0.224-0.5,0.5-0.5h11.5
			c3.86,0,7-3.14,7-7V37c0-0.276,0.224-0.5,0.5-0.5h2.642c0.764,0,1.429-0.405,1.778-1.085c0.35-0.679,0.293-1.456-0.15-2.077
			l-4.676-6.547c-0.061-0.085-0.093-0.187-0.093-0.291V25c0-10.752-8.748-19.5-19.5-19.5s-19.5,8.748-19.5,19.5v1.975
			c0,5.592,2.405,10.921,6.599,14.622l3.231,2.851c0.108,0.095,0.169,0.231,0.169,0.375L20.854,60
			C20.854,60.275,20.63,60.5,20.354,60.5z"/>
	</g>
	<g>
		<path class="st0" d="M6.5,56.5h-1C5.224,56.5,5,56.276,5,56s0.224-0.5,0.5-0.5h1C6.777,55.5,7,55.723,7,56S6.777,56.5,6.5,56.5z"
			/>
	</g>
	<g>
		<path class="st0" d="M15.5,56.5h-7C8.224,56.5,8,56.276,8,56s0.224-0.5,0.5-0.5h7c0.276,0,0.5,0.224,0.5,0.5
			S15.777,56.5,15.5,56.5z"/>
	</g>
	<g>
		<path class="st0" d="M51.354,56.5h-1c-0.276,0-0.5-0.224-0.5-0.5s0.224-0.5,0.5-0.5h1c0.276,0,0.5,0.224,0.5,0.5
			S51.63,56.5,51.354,56.5z"/>
	</g>
	<g>
		<path class="st0" d="M48.354,56.5h-7c-0.276,0-0.5-0.224-0.5-0.5s0.224-0.5,0.5-0.5h7c0.276,0,0.5,0.224,0.5,0.5
			S48.63,56.5,48.354,56.5z"/>
	</g>
	<g>
		<path class="st0" d="M58.5,13.5h-4c-0.276,0-0.5-0.224-0.5-0.5s0.224-0.5,0.5-0.5h4c0.276,0,0.5,0.224,0.5,0.5
			S58.777,13.5,58.5,13.5z"/>
	</g>
	<g>
		<path class="st0" d="M52,6.5h-4c-0.276,0-0.5-0.224-0.5-0.5s0.224-0.5,0.5-0.5h4c0.276,0,0.5,0.224,0.5,0.5S52.277,6.5,52,6.5z"/>
	</g>
	<g>
		<path class="st0" d="M50,8.5c-0.276,0-0.5-0.224-0.5-0.5V4c0-0.276,0.224-0.5,0.5-0.5s0.5,0.224,0.5,0.5v4
			C50.5,8.276,50.277,8.5,50,8.5z"/>
	</g>
	<g>
		<path class="st0" d="M56.5,15.5c-0.276,0-0.5-0.224-0.5-0.5v-4c0-0.276,0.224-0.5,0.5-0.5S57,10.723,57,11v4
			C57,15.276,56.777,15.5,56.5,15.5z"/>
	</g>
	<g>
		<path class="st1" d="M36.5,33h-12c-0.552,0-1-0.448-1-1V20c0-0.552,0.448-1,1-1h12c0.552,0,1,0.448,1,1v12
			C37.5,32.552,37.053,33,36.5,33z"/>
		<path class="st0" d="M36.5,33.5h-12c-0.827,0-1.5-0.673-1.5-1.5V20c0-0.827,0.673-1.5,1.5-1.5h12c0.827,0,1.5,0.673,1.5,1.5v12
			C38,32.827,37.328,33.5,36.5,33.5z M24.5,19.5c-0.276,0-0.5,0.224-0.5,0.5v12c0,0.276,0.224,0.5,0.5,0.5h12
			c0.276,0,0.5-0.224,0.5-0.5V20c0-0.276-0.224-0.5-0.5-0.5H24.5z"/>
	</g>
	<g>
		<rect x="26.5" y="22" class="st3" width="8" height="8"/>
		<path class="st0" d="M34.5,30.5h-8c-0.276,0-0.5-0.224-0.5-0.5v-8c0-0.276,0.224-0.5,0.5-0.5h8c0.276,0,0.5,0.224,0.5,0.5v8
			C35,30.276,34.777,30.5,34.5,30.5z M27,29.5h7v-7h-7V29.5z"/>
	</g>
	<g>
		<path class="st0" d="M26.5,17.5c-0.276,0-0.5-0.224-0.5-0.5v-2c0-0.276,0.224-0.5,0.5-0.5S27,14.723,27,15v2
			C27,17.276,26.777,17.5,26.5,17.5z"/>
	</g>
	<g>
		<path class="st0" d="M30.5,17.5c-0.276,0-0.5-0.224-0.5-0.5v-2c0-0.276,0.224-0.5,0.5-0.5S31,14.723,31,15v2
			C31,17.276,30.777,17.5,30.5,17.5z"/>
	</g>
	<g>
		<path class="st0" d="M34.5,17.5c-0.276,0-0.5-0.224-0.5-0.5v-2c0-0.276,0.224-0.5,0.5-0.5h7c0.276,0,0.5,0.224,0.5,0.5
			s-0.224,0.5-0.5,0.5H35V17C35,17.276,34.777,17.5,34.5,17.5z"/>
	</g>
	<g>
		<path class="st0" d="M26.5,37.5c-0.276,0-0.5-0.224-0.5-0.5v-2c0-0.276,0.224-0.5,0.5-0.5S27,34.723,27,35v2
			C27,37.276,26.777,37.5,26.5,37.5z"/>
	</g>
	<g>
		<path class="st0" d="M30.5,42.5c-0.276,0-0.5-0.224-0.5-0.5v-7c0-0.276,0.224-0.5,0.5-0.5S31,34.723,31,35v7
			C31,42.276,30.777,42.5,30.5,42.5z"/>
	</g>
	<g>
		<path class="st0" d="M34.5,37.5c-0.276,0-0.5-0.224-0.5-0.5v-2c0-0.276,0.224-0.5,0.5-0.5S35,34.723,35,35v2
			C35,37.276,34.777,37.5,34.5,37.5z"/>
	</g>
	<g>
		<path class="st0" d="M41.5,22.5h-2c-0.276,0-0.5-0.224-0.5-0.5s0.224-0.5,0.5-0.5h2c0.276,0,0.5,0.224,0.5,0.5
			S41.777,22.5,41.5,22.5z"/>
	</g>
	<g>
		<path class="st0" d="M46.5,26.5h-7c-0.276,0-0.5-0.224-0.5-0.5s0.224-0.5,0.5-0.5h7c0.276,0,0.5,0.224,0.5,0.5
			S46.777,26.5,46.5,26.5z"/>
	</g>
	<g>
		<path class="st0" d="M41.5,30.5h-2c-0.276,0-0.5-0.224-0.5-0.5s0.224-0.5,0.5-0.5h2c0.276,0,0.5,0.224,0.5,0.5
			S41.777,30.5,41.5,30.5z"/>
	</g>
	<g>
		<path class="st0" d="M21.5,22.5h-2c-0.276,0-0.5-0.224-0.5-0.5v-7c0-0.276,0.224-0.5,0.5-0.5S20,14.723,20,15v6.5h1.5
			c0.276,0,0.5,0.224,0.5,0.5S21.777,22.5,21.5,22.5z"/>
	</g>
	<g>
		<path class="st0" d="M14.5,30.5c-0.276,0-0.5-0.224-0.5-0.5v-4c0-0.276,0.224-0.5,0.5-0.5h7c0.276,0,0.5,0.224,0.5,0.5
			s-0.224,0.5-0.5,0.5H15V30C15,30.276,14.777,30.5,14.5,30.5z"/>
	</g>
	<g>
		<path class="st0" d="M21.5,30.5h-2c-0.276,0-0.5-0.224-0.5-0.5s0.224-0.5,0.5-0.5h2c0.276,0,0.5,0.224,0.5,0.5
			S21.777,30.5,21.5,30.5z"/>
	</g>
</g>
</svg>
