<?xml version="1.0" encoding="utf-8"?>
<!-- Generator: Adobe Illustrator 22.0.0, SVG Export Plug-In . SVG Version: 6.00 Build 0)  -->
<svg version="1.1" id="Icon_Set" xmlns="http://www.w3.org/2000/svg" xmlns:xlink="http://www.w3.org/1999/xlink" x="0px" y="0px"
	 viewBox="0 0 64 64" style="enable-background:new 0 0 64 64;" xml:space="preserve">
<style type="text/css">
	.st0{fill:#263238;}
	.st1{fill:#FFD740;}
	.st2{fill:#4FC3F7;}
	.st3{fill:#40C4FF;}
	.st4{fill:#FF5252;}
	.st5{fill:#FFFFFF;}
	.st6{fill:#212A41;}
	.st7{fill:#37474F;}
	.st8{fill:#4DB6AC;}
</style>
<g>
	<g>
		<path class="st0" d="M6,8H5C4.724,8,4.5,7.776,4.5,7.5S4.724,7,5,7h1c0.276,0,0.5,0.224,0.5,0.5S6.277,8,6,8z"/>
	</g>
	<g>
		<path class="st0" d="M19,8H8C7.724,8,7.5,7.776,7.5,7.5S7.724,7,8,7h11c0.276,0,0.5,0.224,0.5,0.5S19.277,8,19,8z"/>
	</g>
	<g>
		<path class="st0" d="M59,57h-1c-0.276,0-0.5-0.224-0.5-0.5S57.724,56,58,56h1c0.276,0,0.5,0.224,0.5,0.5S59.277,57,59,57z"/>
	</g>
	<g>
		<path class="st0" d="M56,57H45c-0.276,0-0.5-0.224-0.5-0.5S44.724,56,45,56h11c0.276,0,0.5,0.224,0.5,0.5S56.277,57,56,57z"/>
	</g>
	<g>
		<line class="st1" x1="44" y1="20" x2="20" y2="44"/>
		<path class="st0" d="M20,44.5c-0.128,0-0.256-0.049-0.354-0.146c-0.195-0.195-0.195-0.512,0-0.707l24-24
			c0.195-0.195,0.512-0.195,0.707,0s0.195,0.512,0,0.707l-24,24C20.256,44.451,20.128,44.5,20,44.5z"/>
	</g>
	<g>
		<circle class="st1" cx="44" cy="20" r="2"/>
		<path class="st0" d="M44,22.5c-1.378,0-2.5-1.122-2.5-2.5s1.122-2.5,2.5-2.5s2.5,1.122,2.5,2.5S45.379,22.5,44,22.5z M44,18.5
			c-0.827,0-1.5,0.673-1.5,1.5s0.673,1.5,1.5,1.5s1.5-0.673,1.5-1.5S44.828,18.5,44,18.5z"/>
	</g>
	<g>
		<circle class="st1" cx="20" cy="44" r="2"/>
		<path class="st0" d="M20,46.5c-1.378,0-2.5-1.122-2.5-2.5s1.122-2.5,2.5-2.5s2.5,1.122,2.5,2.5S21.379,46.5,20,46.5z M20,42.5
			c-0.827,0-1.5,0.673-1.5,1.5s0.673,1.5,1.5,1.5s1.5-0.673,1.5-1.5S20.828,42.5,20,42.5z"/>
	</g>
	<g>
		<line class="st1" x1="20" y1="20" x2="44" y2="44"/>
		<path class="st0" d="M44,44.5c-0.128,0-0.256-0.049-0.354-0.146l-24-24c-0.195-0.195-0.195-0.512,0-0.707s0.512-0.195,0.707,0
			l24,24c0.195,0.195,0.195,0.512,0,0.707C44.256,44.451,44.128,44.5,44,44.5z"/>
	</g>
	<g>
		<circle class="st3" cx="32.001" cy="32" r="8"/>
		<path class="st0" d="M32,40.5c-4.687,0-8.5-3.813-8.5-8.5s3.813-8.5,8.5-8.5s8.5,3.813,8.5,8.5S36.688,40.5,32,40.5z M32,24.5
			c-4.136,0-7.5,3.364-7.5,7.5s3.364,7.5,7.5,7.5s7.5-3.364,7.5-7.5S36.136,24.5,32,24.5z"/>
	</g>
	<g>
		<path class="st0" d="M32,28.5c-2.344,0-4.602-0.509-6.194-1.396c-0.241-0.134-0.328-0.439-0.193-0.68
			c0.134-0.242,0.438-0.329,0.68-0.193c1.448,0.807,3.528,1.27,5.707,1.27c2.18,0,4.26-0.463,5.708-1.27
			c0.241-0.135,0.545-0.048,0.68,0.193s0.048,0.546-0.193,0.68C36.603,27.991,34.345,28.5,32,28.5z"/>
	</g>
	<g>
		<path class="st0" d="M37.951,37.833c-0.083,0-0.166-0.021-0.243-0.063C36.261,36.963,34.18,36.5,32,36.5s-4.26,0.463-5.707,1.27
			c-0.242,0.135-0.545,0.048-0.68-0.193c-0.135-0.241-0.048-0.546,0.193-0.68C27.398,36.009,29.656,35.5,32,35.5
			c2.345,0,4.603,0.509,6.195,1.397c0.241,0.134,0.328,0.439,0.193,0.68C38.297,37.741,38.126,37.833,37.951,37.833z"/>
	</g>
	<g>
		<path class="st0" d="M32,40.5c-3.006,0-5.452-3.813-5.452-8.5s2.446-8.5,5.452-8.5c3.007,0,5.453,3.813,5.453,8.5
			S35.007,40.5,32,40.5z M32,24.5c-2.455,0-4.452,3.364-4.452,7.5s1.997,7.5,4.452,7.5s4.453-3.364,4.453-7.5S34.456,24.5,32,24.5z"
			/>
	</g>
	<g>
		<path class="st0" d="M32,40.5c-0.276,0-0.5-0.224-0.5-0.5V24c0-0.276,0.224-0.5,0.5-0.5s0.5,0.224,0.5,0.5v16
			C32.5,40.276,32.277,40.5,32,40.5z"/>
	</g>
	<g>
		<path class="st0" d="M40,32.5H24c-0.276,0-0.5-0.224-0.5-0.5s0.224-0.5,0.5-0.5h16c0.276,0,0.5,0.224,0.5,0.5S40.277,32.5,40,32.5
			z"/>
	</g>
	<g>
		<circle class="st1" cx="20" cy="20" r="2"/>
		<path class="st0" d="M20,22.5c-1.378,0-2.5-1.122-2.5-2.5s1.122-2.5,2.5-2.5s2.5,1.122,2.5,2.5S21.379,22.5,20,22.5z M20,18.5
			c-0.827,0-1.5,0.673-1.5,1.5s0.673,1.5,1.5,1.5s1.5-0.673,1.5-1.5S20.828,18.5,20,18.5z"/>
	</g>
	<g>
		<path class="st0" d="M32,57c-1.93,0-3.5-1.57-3.5-3.5S30.071,50,32,50s3.5,1.57,3.5,3.5S33.93,57,32,57z M32,51
			c-1.378,0-2.5,1.122-2.5,2.5S30.622,56,32,56s2.5-1.122,2.5-2.5S33.379,51,32,51z"/>
	</g>
	<g>
		<path class="st0" d="M10.5,35.5C8.571,35.5,7,33.93,7,32s1.57-3.5,3.5-3.5S14,30.07,14,32S12.43,35.5,10.5,35.5z M10.5,29.5
			C9.122,29.5,8,30.622,8,32s1.122,2.5,2.5,2.5S13,33.378,13,32S11.879,29.5,10.5,29.5z"/>
	</g>
	<g>
		<path class="st0" d="M53.5,35.5c-1.93,0-3.5-1.57-3.5-3.5s1.57-3.5,3.5-3.5S57,30.07,57,32S55.43,35.5,53.5,35.5z M53.5,29.5
			c-1.378,0-2.5,1.122-2.5,2.5s1.122,2.5,2.5,2.5S56,33.378,56,32S54.879,29.5,53.5,29.5z"/>
	</g>
	<g>
		<path class="st0" d="M32,14c-1.93,0-3.5-1.57-3.5-3.5S30.071,7,32,7s3.5,1.57,3.5,3.5S33.93,14,32,14z M32,8
			c-1.378,0-2.5,1.122-2.5,2.5S30.622,13,32,13s2.5-1.122,2.5-2.5S33.379,8,32,8z"/>
	</g>
	<g>
		<circle class="st1" cx="44" cy="44" r="2"/>
		<path class="st0" d="M44,46.5c-1.378,0-2.5-1.122-2.5-2.5s1.122-2.5,2.5-2.5s2.5,1.122,2.5,2.5S45.379,46.5,44,46.5z M44,42.5
			c-0.827,0-1.5,0.673-1.5,1.5s0.673,1.5,1.5,1.5s1.5-0.673,1.5-1.5S44.828,42.5,44,42.5z"/>
	</g>
</g>
</svg>
