<?xml version="1.0" encoding="utf-8"?>
<!-- Generator: Adobe Illustrator 22.0.0, SVG Export Plug-In . SVG Version: 6.00 Build 0)  -->
<svg version="1.1" id="Icon_Set" xmlns="http://www.w3.org/2000/svg" xmlns:xlink="http://www.w3.org/1999/xlink" x="0px" y="0px"
	 viewBox="0 0 64 64" style="enable-background:new 0 0 64 64;" xml:space="preserve">
<style type="text/css">
	.st0{fill:#263238;}
	.st1{fill:#FFD740;}
	.st2{fill:#4FC3F7;}
	.st3{fill:#40C4FF;}
	.st4{fill:#FF5252;}
	.st5{fill:#FFFFFF;}
	.st6{fill:#212A41;}
	.st7{fill:#37474F;}
	.st8{fill:#4DB6AC;}
</style>
<g>
	<g>
		<path class="st0" d="M60,42.5c-0.276,0-0.5-0.224-0.5-0.5v-7.882l-5.565-11.13c-0.767-1.535-2.309-2.488-4.024-2.488H35
			c-0.276,0-0.5-0.224-0.5-0.5s0.224-0.5,0.5-0.5h14.91c2.097,0,3.981,1.165,4.919,3.041l5.618,11.236
			C60.481,33.846,60.5,33.922,60.5,34v8C60.5,42.276,60.276,42.5,60,42.5z"/>
	</g>
	<g>
		<polygon class="st3" points="43.5,24 43.5,34 60,34 55,24 		"/>
		<path class="st0" d="M60,34.5H43.5c-0.276,0-0.5-0.224-0.5-0.5V24c0-0.276,0.224-0.5,0.5-0.5H55c0.189,0,0.362,0.107,0.447,0.276
			l5,10c0.077,0.155,0.069,0.339-0.021,0.486C60.334,34.41,60.173,34.5,60,34.5z M44,33.5h15.191l-4.5-9H44V33.5z"/>
	</g>
	<g>
		<path class="st0" d="M49,59.5c-3.584,0-6.5-2.916-6.5-6.5s2.916-6.5,6.5-6.5s6.5,2.916,6.5,6.5S52.584,59.5,49,59.5z M49,47.5
			c-3.032,0-5.5,2.467-5.5,5.5s2.468,5.5,5.5,5.5s5.5-2.467,5.5-5.5S52.032,47.5,49,47.5z"/>
	</g>
	<g>
		<path class="st0" d="M49,55.5c-1.379,0-2.5-1.122-2.5-2.5s1.121-2.5,2.5-2.5s2.5,1.122,2.5,2.5S50.379,55.5,49,55.5z M49,51.5
			c-0.827,0-1.5,0.673-1.5,1.5s0.673,1.5,1.5,1.5s1.5-0.673,1.5-1.5S49.827,51.5,49,51.5z"/>
	</g>
	<g>
		<path class="st0" d="M10,59.5c-3.584,0-6.5-2.916-6.5-6.5s2.916-6.5,6.5-6.5s6.5,2.916,6.5,6.5S13.584,59.5,10,59.5z M10,47.5
			c-3.032,0-5.5,2.467-5.5,5.5s2.468,5.5,5.5,5.5s5.5-2.467,5.5-5.5S13.032,47.5,10,47.5z"/>
	</g>
	<g>
		<path class="st0" d="M25,59.5c-3.584,0-6.5-2.916-6.5-6.5s2.916-6.5,6.5-6.5s6.5,2.916,6.5,6.5S28.584,59.5,25,59.5z M25,47.5
			c-3.032,0-5.5,2.467-5.5,5.5s2.468,5.5,5.5,5.5s5.5-2.467,5.5-5.5S28.032,47.5,25,47.5z"/>
	</g>
	<g>
		<path class="st0" d="M10,55.5c-1.379,0-2.5-1.122-2.5-2.5s1.121-2.5,2.5-2.5s2.5,1.122,2.5,2.5S11.379,55.5,10,55.5z M10,51.5
			c-0.827,0-1.5,0.673-1.5,1.5s0.673,1.5,1.5,1.5s1.5-0.673,1.5-1.5S10.827,51.5,10,51.5z"/>
	</g>
	<g>
		<path class="st0" d="M25,55.5c-1.379,0-2.5-1.122-2.5-2.5s1.121-2.5,2.5-2.5s2.5,1.122,2.5,2.5S26.379,55.5,25,55.5z M25,51.5
			c-0.827,0-1.5,0.673-1.5,1.5s0.673,1.5,1.5,1.5s1.5-0.673,1.5-1.5S25.827,51.5,25,51.5z"/>
	</g>
	<g>
		<path class="st0" d="M33,28.5c-0.276,0-0.5-0.224-0.5-0.5V14.5c0-1.103-0.897-2-2-2H2c-0.276,0-0.5-0.224-0.5-0.5
			s0.224-0.5,0.5-0.5h28.5c1.654,0,3,1.346,3,3V28C33.5,28.276,33.276,28.5,33,28.5z"/>
	</g>
	<g>
		<path class="st0" d="M23,44.5H2c-0.276,0-0.5-0.224-0.5-0.5s0.224-0.5,0.5-0.5h21c0.276,0,0.5,0.224,0.5,0.5S23.276,44.5,23,44.5z
			"/>
	</g>
	<g>
		<path class="st0" d="M59.5,53.5H55c-0.276,0-0.5-0.224-0.5-0.5s0.224-0.5,0.5-0.5h4.5c1.103,0,2-0.897,2-2v-4c0-1.103-0.897-2-2-2
			H33c-0.276,0-0.5-0.224-0.5-0.5s0.224-0.5,0.5-0.5h26.5c1.654,0,3,1.346,3,3v4C62.5,52.154,61.154,53.5,59.5,53.5z"/>
	</g>
	<g>
		<path class="st0" d="M43,53.5H31c-0.276,0-0.5-0.224-0.5-0.5s0.224-0.5,0.5-0.5h12c0.276,0,0.5,0.224,0.5,0.5S43.276,53.5,43,53.5
			z"/>
	</g>
	<g>
		<path class="st0" d="M19,53.5h-3c-0.276,0-0.5-0.224-0.5-0.5s0.224-0.5,0.5-0.5h3c0.276,0,0.5,0.224,0.5,0.5S19.276,53.5,19,53.5z
			"/>
	</g>
	<g>
		<path class="st0" d="M4,53.5H2c-0.276,0-0.5-0.224-0.5-0.5s0.224-0.5,0.5-0.5h2c0.276,0,0.5,0.224,0.5,0.5S4.276,53.5,4,53.5z"/>
	</g>
	<g>
		<path class="st0" d="M43,18.5c-0.276,0-0.5-0.224-0.5-0.5V6c0-0.276-0.225-0.5-0.5-0.5h-1c-0.275,0-0.5,0.224-0.5,0.5v12
			c0,0.276-0.224,0.5-0.5,0.5s-0.5-0.224-0.5-0.5V6c0-0.827,0.673-1.5,1.5-1.5h1c0.827,0,1.5,0.673,1.5,1.5v12
			C43.5,18.276,43.276,18.5,43,18.5z"/>
	</g>
	<g>
		<rect x="23" y="30" class="st1" width="10" height="10"/>
		<path class="st0" d="M33,40.5H23c-0.276,0-0.5-0.224-0.5-0.5V30c0-0.276,0.224-0.5,0.5-0.5h10c0.276,0,0.5,0.224,0.5,0.5v10
			C33.5,40.276,33.276,40.5,33,40.5z M23.5,39.5h9v-9h-9V39.5z"/>
	</g>
	<g>
		<path class="st0" d="M30,37.5h-4c-0.276,0-0.5-0.224-0.5-0.5v-4c0-0.276,0.224-0.5,0.5-0.5h4c0.276,0,0.5,0.224,0.5,0.5v4
			C30.5,37.276,30.276,37.5,30,37.5z M26.5,36.5h3v-3h-3V36.5z"/>
	</g>
	<g>
		<path class="st0" d="M43.5,42.5c-0.276,0-0.5-0.224-0.5-0.5v-8c0-0.276,0.224-0.5,0.5-0.5S44,33.724,44,34v8
			C44,42.276,43.776,42.5,43.5,42.5z"/>
	</g>
	<g>
		<path class="st0" d="M28,28.5c-0.276,0-0.5-0.224-0.5-0.5v-1c0-0.276,0.224-0.5,0.5-0.5s0.5,0.224,0.5,0.5v1
			C28.5,28.276,28.276,28.5,28,28.5z"/>
	</g>
	<g>
		<path class="st0" d="M25,28.5c-0.276,0-0.5-0.224-0.5-0.5v-1c0-0.276,0.224-0.5,0.5-0.5s0.5,0.224,0.5,0.5v1
			C25.5,28.276,25.276,28.5,25,28.5z"/>
	</g>
	<g>
		<path class="st0" d="M31,28.5c-0.276,0-0.5-0.224-0.5-0.5v-1c0-0.276,0.224-0.5,0.5-0.5s0.5,0.224,0.5,0.5v1
			C31.5,28.276,31.276,28.5,31,28.5z"/>
	</g>
	<g>
		<path class="st0" d="M28,43.5c-0.276,0-0.5-0.224-0.5-0.5v-1c0-0.276,0.224-0.5,0.5-0.5s0.5,0.224,0.5,0.5v1
			C28.5,43.276,28.276,43.5,28,43.5z"/>
	</g>
	<g>
		<path class="st0" d="M25,43.5c-0.276,0-0.5-0.224-0.5-0.5v-1c0-0.276,0.224-0.5,0.5-0.5s0.5,0.224,0.5,0.5v1
			C25.5,43.276,25.276,43.5,25,43.5z"/>
	</g>
	<g>
		<path class="st0" d="M31,43.5c-0.276,0-0.5-0.224-0.5-0.5v-1c0-0.276,0.224-0.5,0.5-0.5s0.5,0.224,0.5,0.5v1
			C31.5,43.276,31.276,43.5,31,43.5z"/>
	</g>
	<g>
		<path class="st0" d="M21,35.5h-1c-0.276,0-0.5-0.224-0.5-0.5s0.224-0.5,0.5-0.5h1c0.276,0,0.5,0.224,0.5,0.5S21.276,35.5,21,35.5z
			"/>
	</g>
	<g>
		<path class="st0" d="M21,38.5h-1c-0.276,0-0.5-0.224-0.5-0.5s0.224-0.5,0.5-0.5h1c0.276,0,0.5,0.224,0.5,0.5S21.276,38.5,21,38.5z
			"/>
	</g>
	<g>
		<path class="st0" d="M21,32.5h-1c-0.276,0-0.5-0.224-0.5-0.5s0.224-0.5,0.5-0.5h1c0.276,0,0.5,0.224,0.5,0.5S21.276,32.5,21,32.5z
			"/>
	</g>
	<g>
		<path class="st0" d="M36,35.5h-1c-0.276,0-0.5-0.224-0.5-0.5s0.224-0.5,0.5-0.5h1c0.276,0,0.5,0.224,0.5,0.5S36.276,35.5,36,35.5z
			"/>
	</g>
	<g>
		<path class="st0" d="M36,38.5h-1c-0.276,0-0.5-0.224-0.5-0.5s0.224-0.5,0.5-0.5h1c0.276,0,0.5,0.224,0.5,0.5S36.276,38.5,36,38.5z
			"/>
	</g>
	<g>
		<path class="st0" d="M36,32.5h-1c-0.276,0-0.5-0.224-0.5-0.5s0.224-0.5,0.5-0.5h1c0.276,0,0.5,0.224,0.5,0.5S36.276,32.5,36,32.5z
			"/>
	</g>
	<g>
		<path class="st0" d="M13,25.5H2c-0.276,0-0.5-0.224-0.5-0.5s0.224-0.5,0.5-0.5h10.793l4.854-4.854
			C17.74,19.553,17.867,19.5,18,19.5h15c0.276,0,0.5,0.224,0.5,0.5s-0.224,0.5-0.5,0.5H18.207l-4.854,4.854
			C13.26,25.447,13.133,25.5,13,25.5z"/>
	</g>
	<g>
		<path class="st0" d="M8,8H7C6.724,8,6.5,7.776,6.5,7.5S6.724,7,7,7h1c0.276,0,0.5,0.224,0.5,0.5S8.276,8,8,8z"/>
	</g>
	<g>
		<path class="st0" d="M25.5,8H10C9.724,8,9.5,7.776,9.5,7.5S9.724,7,10,7h15.5C25.776,7,26,7.224,26,7.5S25.776,8,25.5,8z"/>
	</g>
	<g>
		<path class="st0" d="M59,12h-4c-0.276,0-0.5-0.224-0.5-0.5S54.724,11,55,11h4c0.276,0,0.5,0.224,0.5,0.5S59.276,12,59,12z"/>
	</g>
	<g>
		<path class="st0" d="M51.5,7.5h-4C47.224,7.5,47,7.276,47,7s0.224-0.5,0.5-0.5h4C51.776,6.5,52,6.724,52,7S51.776,7.5,51.5,7.5z"
			/>
	</g>
	<g>
		<path class="st0" d="M49.5,9.5C49.224,9.5,49,9.276,49,9V5c0-0.276,0.224-0.5,0.5-0.5S50,4.724,50,5v4
			C50,9.276,49.776,9.5,49.5,9.5z"/>
	</g>
	<g>
		<path class="st0" d="M57,14c-0.276,0-0.5-0.224-0.5-0.5v-4C56.5,9.224,56.724,9,57,9s0.5,0.224,0.5,0.5v4
			C57.5,13.776,57.276,14,57,14z"/>
	</g>
</g>
</svg>
