<?xml version="1.0" encoding="utf-8"?>
<!-- Generator: Adobe Illustrator 22.0.0, SVG Export Plug-In . SVG Version: 6.00 Build 0)  -->
<svg version="1.1" id="Icon_Set" xmlns="http://www.w3.org/2000/svg" xmlns:xlink="http://www.w3.org/1999/xlink" x="0px" y="0px"
	 viewBox="0 0 64 64" style="enable-background:new 0 0 64 64;" xml:space="preserve">
<style type="text/css">
	.st0{fill:#263238;}
	.st1{fill:#FFD740;}
	.st2{fill:#4FC3F7;}
	.st3{fill:#40C4FF;}
	.st4{fill:#FF5252;}
	.st5{fill:#FFFFFF;}
	.st6{fill:#212A41;}
	.st7{fill:#37474F;}
	.st8{fill:#4DB6AC;}
</style>
<g>
	<g>
		<path class="st0" d="M55.5,55h-47c-1.654,0-3-1.346-3-3V21c0-1.654,1.346-3,3-3h47c1.654,0,3,1.346,3,3v31
			C58.5,53.654,57.154,55,55.5,55z M8.5,19c-1.103,0-2,0.897-2,2v31c0,1.103,0.897,2,2,2h47c1.103,0,2-0.897,2-2V21
			c0-1.103-0.897-2-2-2H8.5z"/>
	</g>
	<g>
		<path class="st4" d="M29.002,42h-16c-0.552,0-1-0.448-1-1V23.5c0-0.552,0.448-1,1-1h16c0.552,0,1,0.448,1,1V41
			C30.002,41.552,29.555,42,29.002,42z"/>
		<path class="st0" d="M29.002,42.5h-16c-0.827,0-1.5-0.673-1.5-1.5V23.5c0-0.827,0.673-1.5,1.5-1.5h16c0.827,0,1.5,0.673,1.5,1.5
			V41C30.502,41.827,29.83,42.5,29.002,42.5z M13.002,23c-0.276,0-0.5,0.225-0.5,0.5V41c0,0.275,0.224,0.5,0.5,0.5h16
			c0.276,0,0.5-0.225,0.5-0.5V23.5c0-0.275-0.224-0.5-0.5-0.5H13.002z"/>
	</g>
	<g>
		<circle class="st5" cx="21.005" cy="27.75" r="5"/>
		<path class="st0" d="M21.005,33.25c-3.033,0-5.5-2.468-5.5-5.5s2.467-5.5,5.5-5.5s5.5,2.468,5.5,5.5S24.038,33.25,21.005,33.25z
			 M21.005,23.25c-2.481,0-4.5,2.019-4.5,4.5s2.019,4.5,4.5,4.5s4.5-2.019,4.5-4.5S23.486,23.25,21.005,23.25z"/>
	</g>
	<g>
		<path class="st5" d="M24.472,24.859l0.373-0.31c-0.917-1.099-2.296-1.799-3.84-1.799c-2.761,0-5,2.239-5,5h0.472
			C19.398,27.75,22.226,26.727,24.472,24.859z"/>
		<path class="st0" d="M16.477,28.25h-0.472c-0.276,0-0.5-0.224-0.5-0.5c0-3.032,2.467-5.5,5.5-5.5c1.634,0,3.174,0.721,4.223,1.979
			c0.085,0.102,0.126,0.233,0.114,0.365c-0.012,0.132-0.076,0.254-0.178,0.339l-0.373,0.311c0,0,0,0,0,0.001
			C22.462,27.183,19.509,28.25,16.477,28.25z M21.005,23.25c-2.312,0-4.223,1.753-4.472,4c2.765-0.013,5.455-0.987,7.586-2.747
			C23.284,23.701,22.174,23.25,21.005,23.25z"/>
	</g>
	<g>
		<path class="st5" d="M21.005,32.75c-0.919,0-1.769-0.266-2.509-0.698l0.001,1.204L21,37.718l2.496-4.473l-0.001-1.184
			C22.76,32.488,21.916,32.75,21.005,32.75z"/>
		<path class="st0" d="M21,38.218c-0.181,0-0.348-0.098-0.436-0.255L18.06,33.5c-0.042-0.075-0.064-0.159-0.064-0.245l0-1.203
			c0-0.179,0.096-0.345,0.251-0.434s0.346-0.09,0.501,0.002c1.422,0.831,3.064,0.838,4.497,0.009c0.155-0.09,0.346-0.089,0.5-0.001
			c0.155,0.09,0.25,0.255,0.25,0.434l0,1.184c0,0.085-0.022,0.169-0.063,0.244l-2.496,4.473C21.348,38.119,21.182,38.218,21,38.218
			L21,38.218z M18.996,33.124l2.003,3.57l1.997-3.579v-0.254c-1.292,0.519-2.715,0.515-4-0.006V33.124z"/>
	</g>
	<g>
		<path class="st5" d="M23.496,33.246l6.509,2.504L30.003,41c0,0.552-0.448,1-1,1H13c-0.552,0-1-0.448-1-1v-5.25l6.496-2.495
			L21,37.718L23.496,33.246z"/>
		<path class="st0" d="M29.003,42.5H13c-0.827,0-1.5-0.673-1.5-1.5v-5.25c0-0.207,0.127-0.393,0.321-0.467l6.496-2.495
			c0.23-0.089,0.493,0.005,0.615,0.222l2.067,3.684l2.061-3.692c0.121-0.218,0.382-0.312,0.616-0.223l6.509,2.505
			c0.193,0.074,0.32,0.26,0.32,0.467L30.503,41C30.502,41.827,29.829,42.5,29.003,42.5z M12.5,36.094V41c0,0.275,0.224,0.5,0.5,0.5
			h16.003c0.275,0,0.5-0.225,0.5-0.5l0.002-4.906l-5.784-2.227l-2.285,4.095c-0.088,0.157-0.255,0.256-0.436,0.256h0
			c-0.181,0-0.348-0.098-0.436-0.255l-2.292-4.086L12.5,36.094z"/>
	</g>
	<g>
		<path class="st0" d="M30.002,47.5h-18c-0.276,0-0.5-0.224-0.5-0.5s0.224-0.5,0.5-0.5h18c0.276,0,0.5,0.224,0.5,0.5
			S30.279,47.5,30.002,47.5z"/>
	</g>
	<g>
		<path class="st0" d="M20.002,51h-8c-0.276,0-0.5-0.224-0.5-0.5s0.224-0.5,0.5-0.5h8c0.276,0,0.5,0.224,0.5,0.5
			S20.279,51,20.002,51z"/>
	</g>
	<g>
		<path class="st1" d="M44,27L44,27c-4.418,0-8,3.582-8,8v11h16V35C52,30.582,48.418,27,44,27z"/>
	</g>
	<g>
		<path class="st0" d="M52,46.5c-0.276,0-0.5-0.224-0.5-0.5V35c0-4.136-3.364-7.5-7.5-7.5s-7.5,3.364-7.5,7.5v11
			c0,0.276-0.224,0.5-0.5,0.5s-0.5-0.224-0.5-0.5V35c0-4.687,3.813-8.5,8.5-8.5s8.5,3.813,8.5,8.5v11
			C52.5,46.276,52.276,46.5,52,46.5z"/>
	</g>
	<g>
		<path class="st0" d="M39,46.5c-0.276,0-0.5-0.224-0.5-0.5V35.125c0-0.276,0.224-0.5,0.5-0.5s0.5,0.224,0.5,0.5V46
			C39.5,46.276,39.276,46.5,39,46.5z"/>
	</g>
	<g>
		<path class="st0" d="M45.5,46.5c-2.206,0-4-1.794-4-4V37c0-1.379,1.122-2.5,2.5-2.5s2.5,1.121,2.5,2.5v5
			c0,0.276-0.224,0.5-0.5,0.5s-0.5-0.224-0.5-0.5v-5c0-0.827-0.673-1.5-1.5-1.5s-1.5,0.673-1.5,1.5v5.5c0,1.654,1.346,3,3,3
			s3-1.346,3-3V35c0-2.481-2.019-4.5-4.5-4.5s-4.5,2.019-4.5,4.5v11c0,0.276-0.224,0.5-0.5,0.5s-0.5-0.224-0.5-0.5V35
			c0-3.032,2.467-5.5,5.5-5.5s5.5,2.468,5.5,5.5v7.5C49.5,44.706,47.706,46.5,45.5,46.5z"/>
	</g>
	<g>
		<path class="st0" d="M21,42.5c-0.276,0-0.5-0.224-0.5-0.5v-4.282c0-0.276,0.224-0.5,0.5-0.5s0.5,0.224,0.5,0.5V42
			C21.5,42.276,21.276,42.5,21,42.5z"/>
	</g>
	<g>
		<path class="st0" d="M42,15h-2c-0.276,0-0.5-0.224-0.5-0.5S39.724,14,40,14h2c0.276,0,0.5,0.224,0.5,0.5S42.276,15,42,15z"/>
	</g>
	<g>
		<path class="st0" d="M38,15H22c-0.276,0-0.5-0.224-0.5-0.5S21.724,14,22,14h16c0.276,0,0.5,0.224,0.5,0.5S38.276,15,38,15z"/>
	</g>
	<g>
		<path class="st0" d="M24,59h-2c-0.276,0-0.5-0.224-0.5-0.5S21.724,58,22,58h2c0.276,0,0.5,0.224,0.5,0.5S24.276,59,24,59z"/>
	</g>
	<g>
		<path class="st0" d="M42,59H26c-0.276,0-0.5-0.224-0.5-0.5S25.724,58,26,58h16c0.276,0,0.5,0.224,0.5,0.5S42.276,59,42,59z"/>
	</g>
	<g>
		<path class="st0" d="M11,13H7c-0.276,0-0.5-0.224-0.5-0.5S6.724,12,7,12h4c0.276,0,0.5,0.224,0.5,0.5S11.276,13,11,13z"/>
	</g>
	<g>
		<path class="st0" d="M17.5,8h-4C13.224,8,13,7.776,13,7.5S13.224,7,13.5,7h4C17.776,7,18,7.224,18,7.5S17.776,8,17.5,8z"/>
	</g>
	<g>
		<path class="st0" d="M15.5,10C15.224,10,15,9.776,15,9.5v-4C15,5.224,15.224,5,15.5,5S16,5.224,16,5.5v4
			C16,9.776,15.776,10,15.5,10z"/>
	</g>
	<g>
		<path class="st0" d="M9,15c-0.276,0-0.5-0.224-0.5-0.5v-4C8.5,10.224,8.724,10,9,10s0.5,0.224,0.5,0.5v4C9.5,14.776,9.276,15,9,15
			z"/>
	</g>
	<g>
		<path class="st0" d="M55,27c-0.276,0-0.5-0.224-0.5-0.5v-4c0-0.275-0.224-0.5-0.5-0.5h-4c-0.276,0-0.5-0.224-0.5-0.5
			S49.724,21,50,21h4c0.827,0,1.5,0.673,1.5,1.5v4C55.5,26.776,55.276,27,55,27z"/>
	</g>
</g>
</svg>
