<?xml version="1.0" encoding="utf-8"?>
<!-- Generator: Adobe Illustrator 22.0.0, SVG Export Plug-In . SVG Version: 6.00 Build 0)  -->
<svg version="1.1" id="Icon_Set" xmlns="http://www.w3.org/2000/svg" xmlns:xlink="http://www.w3.org/1999/xlink" x="0px" y="0px"
	 viewBox="0 0 64 64" style="enable-background:new 0 0 64 64;" xml:space="preserve">
<style type="text/css">
	.st0{fill:#263238;}
	.st1{fill:#FFD740;}
	.st2{fill:#4FC3F7;}
	.st3{fill:#40C4FF;}
	.st4{fill:#FF5252;}
	.st5{fill:#FFFFFF;}
	.st6{fill:#212A41;}
	.st7{fill:#37474F;}
	.st8{fill:#4DB6AC;}
</style>
<g>
	<g>
		<path class="st0" d="M36.5,60.001h-5c-0.276,0-0.5-0.224-0.5-0.5c0-2.481-2.019-4.5-4.5-4.5c-1.007,0-1.971,0.345-2.789,0.995
			c-0.112,0.09-0.254,0.127-0.399,0.102c-0.141-0.024-0.265-0.109-0.339-0.231c-1.285-2.107-3.518-3.365-5.973-3.365
			c-3.86,0-7,3.141-7,7c0,0.276-0.224,0.5-0.5,0.5h-5c-0.276,0-0.5-0.224-0.5-0.5s0.224-0.5,0.5-0.5h4.516
			c0.259-4.179,3.741-7.5,7.984-7.5c2.627,0,5.031,1.259,6.531,3.393c0.896-0.585,1.912-0.893,2.969-0.893
			c2.864,0,5.224,2.2,5.478,5H36.5c0.276,0,0.5,0.224,0.5,0.5S36.776,60.001,36.5,60.001z"/>
	</g>
	<g>
		<path class="st0" d="M23.5,16.501h-3c-0.276,0-0.5-0.224-0.5-0.5v-5c0-0.276,0.224-0.5,0.5-0.5h3c0.276,0,0.5,0.224,0.5,0.5v5
			C24,16.277,23.776,16.501,23.5,16.501z M21,15.501h2v-4h-2V15.501z"/>
	</g>
	<g>
		<path class="st0" d="M13.5,28.001c-0.19,0-0.364-0.108-0.449-0.279c-0.084-0.171-0.063-0.375,0.052-0.525l5-6.5
			c0.095-0.123,0.241-0.195,0.396-0.195h27c0.155,0,0.302,0.072,0.396,0.195l5,6.499c0.116,0.15,0.137,0.354,0.052,0.525
			C50.864,27.892,50.69,28,50.5,28L13.5,28.001z M18.746,21.501l-4.23,5.5L49.484,27l-4.23-5.499H18.746z"/>
	</g>
	<g>
		<path class="st0" d="M45.5,48.501h-27c-0.155,0-0.302-0.072-0.396-0.195l-5-6.5c-0.116-0.15-0.136-0.354-0.052-0.525
			c0.084-0.171,0.258-0.279,0.449-0.279h37c0.19,0,0.364,0.108,0.448,0.279c0.085,0.171,0.064,0.375-0.052,0.525l-5,6.5
			C45.802,48.429,45.655,48.501,45.5,48.501z M18.746,47.501h26.508l4.23-5.5H14.516L18.746,47.501z"/>
	</g>
	<g>
		<path class="st1" d="M51,37.501H13c-0.552,0-1-0.448-1-1v-4c0-0.552,0.448-1,1-1h38c0.552,0,1,0.448,1,1v4
			C52,37.053,51.552,37.501,51,37.501z"/>
		<path class="st0" d="M51,38.001H13c-0.827,0-1.5-0.673-1.5-1.5v-4c0-0.827,0.673-1.5,1.5-1.5h38c0.827,0,1.5,0.673,1.5,1.5v4
			C52.5,37.328,51.827,38.001,51,38.001z M13,32.001c-0.276,0-0.5,0.225-0.5,0.5v4c0,0.275,0.224,0.5,0.5,0.5h38
			c0.275,0,0.5-0.225,0.5-0.5v-4c0-0.275-0.225-0.5-0.5-0.5H13z"/>
	</g>
	<g>
		<path class="st0" d="M50.5,28.001h-37c-0.276,0-0.5-0.224-0.5-0.5s0.224-0.5,0.5-0.5h37c0.276,0,0.5,0.224,0.5,0.5
			S50.776,28.001,50.5,28.001z"/>
	</g>
	<g>
		<path class="st0" d="M50.5,42.001h-37c-0.276,0-0.5-0.224-0.5-0.5s0.224-0.5,0.5-0.5h37c0.276,0,0.5,0.224,0.5,0.5
			S50.776,42.001,50.5,42.001z"/>
	</g>
	<g>
		<path class="st0" d="M18.5,40.001c-0.276,0-0.5-0.224-0.5-0.5v-2c0-0.276,0.224-0.5,0.5-0.5s0.5,0.224,0.5,0.5v2
			C19,39.777,18.776,40.001,18.5,40.001z"/>
	</g>
	<g>
		<path class="st0" d="M18.5,32.001c-0.276,0-0.5-0.224-0.5-0.5v-2c0-0.276,0.224-0.5,0.5-0.5s0.5,0.224,0.5,0.5v2
			C19,31.777,18.776,32.001,18.5,32.001z"/>
	</g>
	<g>
		<path class="st0" d="M45.5,40.001c-0.276,0-0.5-0.224-0.5-0.5v-2c0-0.276,0.224-0.5,0.5-0.5s0.5,0.224,0.5,0.5v2
			C46,39.777,45.776,40.001,45.5,40.001z"/>
	</g>
	<g>
		<path class="st0" d="M45.5,32.001c-0.276,0-0.5-0.224-0.5-0.5v-2c0-0.276,0.224-0.5,0.5-0.5s0.5,0.224,0.5,0.5v2
			C46,31.777,45.776,32.001,45.5,32.001z"/>
	</g>
	<g>
		<path class="st0" d="M42.5,19.501c-0.276,0-0.5-0.224-0.5-0.5v-1c0-0.275-0.225-0.5-0.5-0.5h-9c-0.276,0-0.5,0.225-0.5,0.5v1
			c0,0.276-0.224,0.5-0.5,0.5s-0.5-0.224-0.5-0.5v-1c0-0.827,0.673-1.5,1.5-1.5h9c0.827,0,1.5,0.673,1.5,1.5v1
			C43,19.277,42.776,19.501,42.5,19.501z"/>
	</g>
	<g>
		<path class="st0" d="M24.5,19.501c-0.276,0-0.5-0.224-0.5-0.5v-2.5h-4v2.5c0,0.276-0.224,0.5-0.5,0.5s-0.5-0.224-0.5-0.5v-3
			c0-0.276,0.224-0.5,0.5-0.5h5c0.276,0,0.5,0.224,0.5,0.5v3C25,19.277,24.776,19.501,24.5,19.501z"/>
	</g>
	<g>
		<path class="st0" d="M50,35.001H14c-0.276,0-0.5-0.224-0.5-0.5s0.224-0.5,0.5-0.5h36c0.276,0,0.5,0.224,0.5,0.5
			S50.276,35.001,50,35.001z"/>
	</g>
	<g>
		<path class="st0" d="M40.5,60.001h-2c-0.276,0-0.5-0.224-0.5-0.5s0.224-0.5,0.5-0.5h2c0.276,0,0.5,0.224,0.5,0.5
			S40.776,60.001,40.5,60.001z"/>
	</g>
	<g>
		<path class="st2" d="M56.5,13.251c0-1.381-1.119-2.5-2.5-2.5s-2.5,1.119-2.5,2.5c-1.381,0-2.5,1.119-2.5,2.5s1.119,2.5,2.5,2.5h5
			c1.381,0,2.5-1.119,2.5-2.5S57.88,13.251,56.5,13.251z"/>
	</g>
	<g>
		<path class="st0" d="M15.5,7.001h-4c-0.276,0-0.5-0.224-0.5-0.5s0.224-0.5,0.5-0.5h4c0.276,0,0.5,0.224,0.5,0.5
			S15.776,7.001,15.5,7.001z"/>
	</g>
	<g>
		<path class="st0" d="M13.5,9.001c-0.276,0-0.5-0.224-0.5-0.5v-4c0-0.276,0.224-0.5,0.5-0.5s0.5,0.224,0.5,0.5v4
			C14,8.777,13.776,9.001,13.5,9.001z"/>
	</g>
	<g>
		<path class="st0" d="M8.5,13.501h-4c-0.276,0-0.5-0.224-0.5-0.5s0.224-0.5,0.5-0.5h4c0.276,0,0.5,0.224,0.5,0.5
			S8.776,13.501,8.5,13.501z"/>
	</g>
	<g>
		<path class="st0" d="M6.5,15.501L6.5,15.501c-0.276,0-0.5-0.224-0.5-0.5l0-4c0-0.276,0.224-0.5,0.5-0.5l0,0
			c0.276,0,0.5,0.224,0.5,0.5l0,4C7,15.277,6.775,15.501,6.5,15.501z"/>
	</g>
	<g>
		<path class="st0" d="M56.5,55.001h-3c-0.276,0-0.5-0.224-0.5-0.5c0-1.379-1.121-2.5-2.5-2.5s-2.5,1.121-2.5,2.5
			c0,0.276-0.224,0.5-0.5,0.5h-3c-0.276,0-0.5-0.224-0.5-0.5s0.224-0.5,0.5-0.5h2.535c0.244-1.694,1.705-3,3.465-3
			s3.221,1.306,3.465,3H56.5c0.276,0,0.5,0.224,0.5,0.5S56.776,55.001,56.5,55.001z"/>
	</g>
	<g>
		<path class="st0" d="M59.5,55.001h-1c-0.276,0-0.5-0.224-0.5-0.5s0.224-0.5,0.5-0.5h1c0.276,0,0.5,0.224,0.5,0.5
			S59.776,55.001,59.5,55.001z"/>
	</g>
</g>
</svg>
