<?xml version="1.0" encoding="utf-8"?>
<!-- Generator: Adobe Illustrator 22.0.0, SVG Export Plug-In . SVG Version: 6.00 Build 0)  -->
<svg version="1.1" id="Icon_Set" xmlns="http://www.w3.org/2000/svg" xmlns:xlink="http://www.w3.org/1999/xlink" x="0px" y="0px"
	 viewBox="0 0 64 64" style="enable-background:new 0 0 64 64;" xml:space="preserve">
<style type="text/css">
	.st0{fill:#263238;}
	.st1{fill:#FFD740;}
	.st2{fill:#4FC3F7;}
	.st3{fill:#40C4FF;}
	.st4{fill:#FF5252;}
	.st5{fill:#FFFFFF;}
	.st6{fill:#212A41;}
	.st7{fill:#37474F;}
	.st8{fill:#4DB6AC;}
</style>
<g>
	<g>
		<path class="st0" d="M31.5,61.643c-1.899,0-3.798-0.52-5.492-1.56l-13.193-8.096C10.462,50.543,9,47.931,9,45.169V26.412
			c0-4.515,2.875-8.515,7.154-9.952l8.062-2.71c0.151-0.051,0.32-0.026,0.451,0.067c0.13,0.094,0.208,0.245,0.208,0.406v8.393
			c0,1.103,0.897,2,2,2h9.25c1.103,0,2-0.897,2-2v-8.393c0-0.161,0.077-0.312,0.208-0.406s0.3-0.118,0.451-0.067l8.061,2.71
			C51.125,17.897,54,21.897,54,26.412v18.757c0,2.762-1.462,5.374-3.815,6.818l-13.193,8.096
			C35.298,61.123,33.398,61.643,31.5,61.643z M23.875,14.919l-7.402,2.488C12.601,18.709,10,22.327,10,26.412v18.757
			c0,2.416,1.279,4.702,3.339,5.967l13.192,8.096c3.064,1.879,6.871,1.879,9.937,0l13.193-8.096C51.721,49.871,53,47.585,53,45.169
			V26.412c0-4.085-2.602-7.703-6.474-9.005l-7.401-2.488v7.697c0,1.654-1.346,3-3,3h-9.25c-1.654,0-3-1.346-3-3V14.919z"/>
	</g>
	<g>
		<path class="st0" d="M31.5,58.634c-1.386,0-2.742-0.383-3.923-1.108l-13.192-8.095C12.914,48.528,12,46.896,12,45.169V26.412
			c0-3.226,2.054-6.082,5.11-7.109l4.105-1.38c0.151-0.052,0.32-0.025,0.451,0.067c0.13,0.094,0.208,0.245,0.208,0.406v4.22
			c0,2.757,2.243,5,5,5h9.25c2.757,0,5-2.243,5-5v-4.22c0-0.161,0.077-0.312,0.208-0.406c0.131-0.093,0.299-0.119,0.451-0.067
			l4.105,1.38C48.946,20.33,51,23.188,51,26.412v18.757c0,1.727-0.914,3.359-2.385,4.262l-13.192,8.095
			C34.242,58.251,32.886,58.634,31.5,58.634z M20.875,19.092l-3.446,1.158C14.78,21.141,13,23.617,13,26.412v18.757
			c0,1.381,0.731,2.688,1.908,3.41l13.192,8.095c2.046,1.256,4.752,1.257,6.799,0l13.192-8.095C49.269,47.856,50,46.55,50,45.169
			V26.412c0-2.795-1.78-5.271-4.429-6.162l-3.446-1.158v3.524c0,3.309-2.691,6-6,6h-9.25c-3.309,0-6-2.691-6-6V19.092z"/>
	</g>
	<g>
		<polygon class="st3" points="24.5,43.866 21,42.366 19.5,39.866 22.5,36.866 28,40.366 		"/>
		<path class="st0" d="M24.5,44.366c-0.066,0-0.133-0.014-0.197-0.04l-3.5-1.5c-0.097-0.042-0.178-0.112-0.232-0.203l-1.5-2.5
			c-0.118-0.196-0.087-0.448,0.075-0.61l3-3c0.167-0.166,0.425-0.194,0.622-0.068l5.5,3.5c0.128,0.081,0.212,0.217,0.229,0.367
			c0.017,0.151-0.036,0.301-0.144,0.408l-3.5,3.5C24.757,44.315,24.629,44.366,24.5,44.366z M21.345,41.971l3.04,1.303l2.82-2.82
			l-4.636-2.95l-2.44,2.44L21.345,41.971z"/>
	</g>
	<g>
		<polygon class="st3" points="21,42.366 19.5,46.366 24,48.866 26,45.366 24.5,43.866 		"/>
		<path class="st0" d="M23.999,49.366c-0.082,0-0.166-0.021-0.242-0.062l-4.5-2.5c-0.217-0.121-0.312-0.381-0.226-0.613l1.5-4
			c0.048-0.128,0.146-0.23,0.272-0.284c0.125-0.053,0.268-0.053,0.393,0l3.5,1.5c0.059,0.025,0.112,0.062,0.157,0.106l1.5,1.5
			c0.16,0.159,0.192,0.406,0.081,0.602l-2,3.5C24.341,49.275,24.173,49.366,23.999,49.366z M20.119,46.139l3.691,2.051l1.565-2.739
			l-1.162-1.162l-2.93-1.256L20.119,46.139z"/>
	</g>
	<g>
		<polygon class="st3" points="24.5,43.866 28,40.366 31.5,38.866 31.5,43.866 29.312,46.116 26,45.366 		"/>
		<path class="st0" d="M29.312,46.616c-0.037,0-0.074-0.004-0.11-0.013l-3.312-0.75c-0.092-0.021-0.176-0.067-0.243-0.134l-1.5-1.5
			c-0.195-0.195-0.195-0.512,0-0.707l3.5-3.5c0.045-0.045,0.098-0.081,0.157-0.106l3.5-1.5c0.154-0.063,0.332-0.049,0.472,0.043
			S32,38.698,32,38.866v5c0,0.13-0.051,0.255-0.142,0.349l-2.188,2.25C29.575,46.562,29.445,46.616,29.312,46.616z M26.251,44.91
			l2.898,0.656L31,43.663v-4.039l-2.714,1.164l-3.079,3.078L26.251,44.91z"/>
	</g>
	<g>
		<polygon class="st3" points="22.5,36.866 28.5,34.866 31.5,38.866 28,40.366 		"/>
		<path class="st0" d="M28,40.866c-0.094,0-0.187-0.026-0.269-0.078l-5.5-3.5c-0.163-0.104-0.251-0.292-0.228-0.483
			c0.023-0.191,0.155-0.352,0.338-0.413l6-2c0.206-0.065,0.43,0.002,0.558,0.175l3,4c0.092,0.122,0.123,0.28,0.083,0.429
			s-0.145,0.271-0.286,0.331l-3.5,1.5C28.133,40.853,28.066,40.866,28,40.866z M23.654,37.009l4.391,2.794l2.672-1.146l-2.402-3.203
			L23.654,37.009z"/>
	</g>
	<g>
		<polygon class="st3" points="24,48.866 27.5,52.366 29,50.991 29.312,46.116 26,45.366 		"/>
		<path class="st0" d="M27.5,52.866c-0.128,0-0.256-0.049-0.354-0.146l-3.5-3.5c-0.16-0.159-0.192-0.406-0.081-0.602l2-3.5
			c0.109-0.19,0.332-0.29,0.544-0.239l3.312,0.75c0.24,0.054,0.404,0.274,0.389,0.52l-0.312,4.875
			c-0.008,0.129-0.066,0.249-0.161,0.336l-1.5,1.375C27.742,52.822,27.621,52.866,27.5,52.866z M24.623,48.782l2.892,2.892
			l0.999-0.915l0.272-4.249l-2.536-0.574L24.623,48.782z"/>
	</g>
	<g>
		<polygon class="st3" points="38.5,43.866 42,42.366 44.5,38.866 40.5,36.866 35,40.366 		"/>
		<path class="st0" d="M38.5,44.366c-0.13,0-0.258-0.051-0.354-0.146l-3.5-3.5c-0.107-0.107-0.16-0.257-0.144-0.408
			c0.017-0.15,0.101-0.286,0.229-0.367l5.5-3.5c0.148-0.094,0.336-0.104,0.492-0.025l4,2c0.131,0.065,0.227,0.185,0.262,0.327
			c0.035,0.142,0.007,0.292-0.078,0.411l-2.5,3.5c-0.054,0.074-0.126,0.133-0.21,0.169l-3.5,1.5
			C38.634,44.353,38.566,44.366,38.5,44.366z M35.794,40.453l2.82,2.82l3.061-1.312l2.078-2.91l-3.224-1.611L35.794,40.453z"/>
	</g>
	<g>
		<polygon class="st3" points="42,42.366 43.5,46.366 39,48.866 37,45.366 38.5,43.866 		"/>
		<path class="st0" d="M39,49.366c-0.173,0-0.342-0.091-0.435-0.252l-2-3.5c-0.111-0.195-0.078-0.442,0.081-0.602l1.5-1.5
			c0.045-0.045,0.098-0.081,0.156-0.106l3.5-1.5c0.126-0.054,0.268-0.054,0.394,0s0.224,0.156,0.271,0.284l1.5,4
			c0.087,0.232-0.009,0.492-0.225,0.613l-4.5,2.5C39.166,49.346,39.083,49.366,39,49.366z M37.624,45.45l1.565,2.739l3.691-2.051
			l-1.165-3.106l-2.931,1.256L37.624,45.45z"/>
	</g>
	<g>
		<polygon class="st3" points="38.5,43.866 35,40.366 31.5,38.866 31.5,43.866 33.687,46.116 37,45.366 		"/>
		<path class="st0" d="M33.688,46.616c-0.134,0-0.264-0.054-0.358-0.151l-2.188-2.25C31.05,44.121,31,43.996,31,43.866l0-5
			c0-0.168,0.084-0.325,0.225-0.417c0.141-0.093,0.318-0.107,0.472-0.043l3.5,1.5c0.059,0.025,0.111,0.062,0.156,0.106l3.5,3.5
			c0.195,0.195,0.195,0.512,0,0.707l-1.5,1.5c-0.066,0.066-0.151,0.113-0.243,0.134l-3.312,0.75
			C33.762,46.612,33.725,46.616,33.688,46.616z M32,43.663l1.851,1.903l2.898-0.656l1.044-1.044l-3.078-3.078L32,39.624L32,43.663z"
			/>
	</g>
	<g>
		<polygon class="st3" points="40.5,36.866 34.5,34.866 31.5,38.866 35,40.366 		"/>
		<path class="st0" d="M35,40.866c-0.066,0-0.134-0.014-0.197-0.04l-3.5-1.5c-0.141-0.061-0.247-0.183-0.286-0.331
			s-0.009-0.307,0.083-0.429l3-4c0.13-0.172,0.356-0.238,0.559-0.175l6,2c0.183,0.062,0.314,0.222,0.338,0.413
			s-0.064,0.38-0.228,0.483l-5.5,3.5C35.188,40.84,35.094,40.866,35,40.866z M32.282,38.657l2.672,1.146l4.392-2.794l-4.662-1.555
			L32.282,38.657z"/>
	</g>
	<g>
		<polygon class="st3" points="39,48.866 35.5,52.366 34,50.991 33.687,46.116 37,45.366 		"/>
		<path class="st0" d="M35.5,52.866c-0.121,0-0.242-0.044-0.338-0.132l-1.5-1.375c-0.095-0.087-0.152-0.207-0.161-0.336
			l-0.312-4.875c-0.016-0.245,0.149-0.466,0.389-0.52l3.312-0.75c0.219-0.054,0.436,0.049,0.545,0.239l2,3.5
			c0.111,0.195,0.078,0.442-0.081,0.602l-3.5,3.5C35.756,52.817,35.628,52.866,35.5,52.866z M34.486,50.759l0.999,0.915l2.891-2.892
			l-1.627-2.847l-2.535,0.574L34.486,50.759z"/>
	</g>
	<g>
		<polygon class="st3" points="28.5,34.866 29.5,31.366 33.5,31.366 34.5,34.866 31.5,38.866 		"/>
		<path class="st0" d="M31.5,39.366c-0.157,0-0.306-0.074-0.4-0.2l-3-4c-0.094-0.125-0.124-0.287-0.081-0.438l1-3.5
			c0.062-0.214,0.258-0.362,0.481-0.362h4c0.224,0,0.419,0.148,0.48,0.362l1,3.5c0.043,0.15,0.014,0.312-0.08,0.438l-3,4
			C31.806,39.292,31.657,39.366,31.5,39.366z M29.048,34.765l2.452,3.269l2.451-3.269l-0.828-2.898h-3.247L29.048,34.765z"/>
	</g>
	<g>
		<polygon class="st3" points="29,50.991 29.312,46.116 31.5,43.866 33.687,46.116 34,50.991 		"/>
		<path class="st0" d="M34,51.491h-5c-0.138,0-0.27-0.058-0.365-0.158c-0.094-0.101-0.143-0.236-0.134-0.374l0.312-4.875
			c0.008-0.118,0.058-0.23,0.141-0.316l2.188-2.25c0.188-0.192,0.529-0.192,0.717,0l2.188,2.25c0.083,0.086,0.133,0.197,0.141,0.316
			l0.312,4.875c0.009,0.138-0.04,0.273-0.135,0.374C34.271,51.434,34.138,51.491,34,51.491z M29.533,50.491h3.934L33.2,46.332
			L31.5,44.583l-1.7,1.749L29.533,50.491z"/>
	</g>
	<g>
		<polygon class="st3" points="19.5,39.866 17.812,35.054 19.75,33.366 23,32.741 22.5,36.866 		"/>
		<path class="st0" d="M19.5,40.366c-0.037,0-0.074-0.004-0.111-0.013c-0.167-0.038-0.304-0.159-0.36-0.322l-1.688-4.812
			c-0.068-0.192-0.011-0.407,0.144-0.542l1.938-1.688c0.066-0.058,0.147-0.098,0.234-0.114l3.25-0.625
			c0.156-0.029,0.318,0.016,0.436,0.126c0.117,0.108,0.174,0.267,0.155,0.426l-0.5,4.125c-0.014,0.11-0.064,0.214-0.143,0.293l-3,3
			C19.758,40.314,19.63,40.366,19.5,40.366z M18.396,35.208l1.312,3.742l2.316-2.315l0.396-3.273l-2.444,0.471L18.396,35.208z"/>
	</g>
	<g>
		<polygon class="st3" points="23,32.741 25,30.741 29.5,31.366 28.5,34.866 22.5,36.866 		"/>
		<path class="st0" d="M22.5,37.366c-0.114,0-0.226-0.039-0.316-0.112c-0.133-0.108-0.201-0.277-0.18-0.448l0.5-4.125
			c0.014-0.11,0.064-0.214,0.143-0.293l2-2c0.111-0.11,0.268-0.159,0.422-0.142l4.5,0.625c0.144,0.02,0.271,0.101,0.35,0.223
			c0.079,0.121,0.102,0.271,0.062,0.41l-1,3.5c-0.045,0.158-0.167,0.284-0.323,0.337l-6,2C22.606,37.357,22.553,37.366,22.5,37.366z
			 M23.475,32.973l-0.384,3.169l5-1.666l0.77-2.693l-3.684-0.512L23.475,32.973z"/>
	</g>
	<g>
		<polygon class="st3" points="44.5,38.866 45.187,35.054 43.25,33.366 40,32.741 40.5,36.866 		"/>
		<path class="st0" d="M44.5,39.366c-0.076,0-0.153-0.018-0.224-0.053l-4-2c-0.15-0.075-0.253-0.221-0.272-0.387l-0.5-4.125
			c-0.02-0.159,0.038-0.317,0.155-0.426c0.115-0.109,0.279-0.155,0.436-0.126l3.25,0.625c0.086,0.017,0.167,0.057,0.233,0.114
			l1.938,1.688c0.133,0.115,0.195,0.292,0.164,0.466l-0.688,3.812c-0.028,0.155-0.127,0.288-0.269,0.358
			C44.653,39.349,44.577,39.366,44.5,39.366z M40.964,36.539l3.162,1.581l0.52-2.876l-1.622-1.412l-2.444-0.471L40.964,36.539z"/>
	</g>
	<g>
		<polygon class="st3" points="40,32.741 38,30.741 33.5,31.366 34.5,34.866 40.5,36.866 		"/>
		<path class="st0" d="M40.5,37.366c-0.053,0-0.106-0.009-0.158-0.025l-6-2c-0.156-0.053-0.277-0.179-0.322-0.337l-1-3.5
			c-0.04-0.14-0.018-0.289,0.062-0.41c0.079-0.122,0.207-0.203,0.351-0.223l4.5-0.625c0.153-0.021,0.312,0.031,0.422,0.142l2,2
			c0.079,0.079,0.129,0.183,0.143,0.293l0.5,4.125c0.021,0.171-0.047,0.34-0.18,0.448C40.726,37.327,40.613,37.366,40.5,37.366z
			 M34.908,34.476l5,1.666l-0.384-3.169l-1.702-1.702l-3.684,0.512L34.908,34.476z"/>
	</g>
	<g>
		<path class="st0" d="M17.812,35.554c-0.075,0-0.151-0.017-0.223-0.053l-2-1c-0.247-0.124-0.347-0.424-0.224-0.671
			c0.124-0.246,0.423-0.349,0.671-0.224l2,1c0.247,0.124,0.347,0.424,0.224,0.671C18.171,35.452,17.995,35.554,17.812,35.554z"/>
	</g>
	<g>
		<path class="st0" d="M40,33.241c-0.088,0-0.177-0.022-0.257-0.071c-0.237-0.142-0.314-0.449-0.172-0.686l1.5-2.5
			c0.143-0.237,0.453-0.314,0.686-0.172c0.237,0.142,0.314,0.449,0.172,0.686l-1.5,2.5C40.335,33.154,40.169,33.241,40,33.241z"/>
	</g>
	<g>
		<path class="st0" d="M21.5,50.866c-0.17,0-0.335-0.087-0.429-0.243c-0.142-0.236-0.065-0.544,0.171-0.686l2.5-1.5
			c0.237-0.144,0.544-0.065,0.686,0.172c0.142,0.236,0.065,0.544-0.171,0.686l-2.5,1.5C21.676,50.844,21.587,50.866,21.5,50.866z"/>
	</g>
	<g>
		<path class="st0" d="M45.501,43.366c-0.023,0-0.048-0.002-0.071-0.005l-3.5-0.5c-0.273-0.039-0.464-0.292-0.425-0.565
			c0.039-0.274,0.298-0.46,0.565-0.425l3.5,0.5c0.273,0.039,0.464,0.292,0.425,0.565C45.959,43.187,45.745,43.366,45.501,43.366z"/>
	</g>
	<g>
		<path class="st0" d="M33.5,9.866h-4c-0.276,0-0.5-0.224-0.5-0.5s0.224-0.5,0.5-0.5h4c0.276,0,0.5,0.224,0.5,0.5
			S33.776,9.866,33.5,9.866z"/>
	</g>
	<g>
		<path class="st0" d="M41,5.366h-4c-0.276,0-0.5-0.224-0.5-0.5s0.224-0.5,0.5-0.5h4c0.276,0,0.5,0.224,0.5,0.5
			S41.276,5.366,41,5.366z"/>
	</g>
	<g>
		<path class="st0" d="M39,7.366c-0.276,0-0.5-0.224-0.5-0.5v-4c0-0.276,0.224-0.5,0.5-0.5s0.5,0.224,0.5,0.5v4
			C39.5,7.143,39.276,7.366,39,7.366z"/>
	</g>
	<g>
		<path class="st0" d="M31.5,11.866c-0.276,0-0.5-0.224-0.5-0.5v-4c0-0.276,0.224-0.5,0.5-0.5S32,7.09,32,7.366v4
			C32,11.643,31.776,11.866,31.5,11.866z"/>
	</g>
	<g>
		<path class="st0" d="M59,59.366h-1c-0.276,0-0.5-0.224-0.5-0.5s0.224-0.5,0.5-0.5h1c0.276,0,0.5,0.224,0.5,0.5
			S59.276,59.366,59,59.366z"/>
	</g>
	<g>
		<path class="st0" d="M56,59.366H45.5c-0.276,0-0.5-0.224-0.5-0.5s0.224-0.5,0.5-0.5H56c0.276,0,0.5,0.224,0.5,0.5
			S56.276,59.366,56,59.366z"/>
	</g>
	<g>
		<path class="st0" d="M5,9.366H4c-0.276,0-0.5-0.224-0.5-0.5s0.224-0.5,0.5-0.5h1c0.276,0,0.5,0.224,0.5,0.5S5.276,9.366,5,9.366z"
			/>
	</g>
	<g>
		<path class="st0" d="M17.5,9.366H7c-0.276,0-0.5-0.224-0.5-0.5s0.224-0.5,0.5-0.5h10.5c0.276,0,0.5,0.224,0.5,0.5
			S17.776,9.366,17.5,9.366z"/>
	</g>
</g>
</svg>
