<?xml version="1.0" encoding="utf-8"?>
<!-- Generator: Adobe Illustrator 22.0.0, SVG Export Plug-In . SVG Version: 6.00 Build 0)  -->
<svg version="1.1" id="Icon_Set" xmlns="http://www.w3.org/2000/svg" xmlns:xlink="http://www.w3.org/1999/xlink" x="0px" y="0px"
	 viewBox="0 0 64 64" style="enable-background:new 0 0 64 64;" xml:space="preserve">
<style type="text/css">
	.st0{fill:#263238;}
	.st1{fill:#FFD740;}
	.st2{fill:#4FC3F7;}
	.st3{fill:#40C4FF;}
	.st4{fill:#FF5252;}
	.st5{fill:#FFFFFF;}
	.st6{fill:#212A41;}
	.st7{fill:#37474F;}
	.st8{fill:#4DB6AC;}
</style>
<g>
	<g>
		<path class="st0" d="M50.5,6.5h-4C46.224,6.5,46,6.276,46,6s0.224-0.5,0.5-0.5h4C50.776,5.5,51,5.724,51,6S50.776,6.5,50.5,6.5z"
			/>
	</g>
	<g>
		<path class="st0" d="M48.5,8.5C48.224,8.5,48,8.276,48,8V4c0-0.276,0.224-0.5,0.5-0.5S49,3.724,49,4v4
			C49,8.276,48.776,8.5,48.5,8.5z"/>
	</g>
	<g>
		<path class="st0" d="M57.5,13h-4c-0.276,0-0.5-0.224-0.5-0.5s0.224-0.5,0.5-0.5h4c0.276,0,0.5,0.224,0.5,0.5S57.776,13,57.5,13z"
			/>
	</g>
	<g>
		<path class="st0" d="M55.5,15c-0.276,0-0.5-0.224-0.5-0.5v-4c0-0.276,0.224-0.5,0.5-0.5s0.5,0.224,0.5,0.5v4
			C56,14.776,55.776,15,55.5,15z"/>
	</g>
	<g>
		<path class="st0" d="M39,38.5h-8c-5.79,0-10.5-4.71-10.5-10.5v-8c0-5.79,4.71-10.5,10.5-10.5h2c5.79,0,10.5,4.71,10.5,10.5v13
			c0,0.114-0.039,0.224-0.109,0.312l-4,5C39.296,38.431,39.152,38.5,39,38.5z M31,10.5c-5.238,0-9.5,4.262-9.5,9.5v8
			c0,5.238,4.262,9.5,9.5,9.5h7.76l3.74-4.675V20c0-5.238-4.262-9.5-9.5-9.5H31z M43,33h0.01H43z"/>
	</g>
	<g>
		<path class="st0" d="M21,27.5c-1.93,0-3.5-1.57-3.5-3.5s1.57-3.5,3.5-3.5c0.276,0,0.5,0.224,0.5,0.5v6
			C21.5,27.276,21.276,27.5,21,27.5z M20.5,21.55c-1.14,0.232-2,1.242-2,2.45s0.86,2.217,2,2.45V21.55z"/>
	</g>
	<g>
		<path class="st0" d="M45,27.5h-2c-0.276,0-0.5-0.224-0.5-0.5v-6c0-0.276,0.224-0.5,0.5-0.5h2c0.827,0,1.5,0.673,1.5,1.5v4
			C46.5,26.827,45.827,27.5,45,27.5z M43.5,26.5H45c0.275,0,0.5-0.224,0.5-0.5v-4c0-0.276-0.225-0.5-0.5-0.5h-1.5V26.5z"/>
	</g>
	<g>
		<path class="st0" d="M6,38H5c-0.276,0-0.5-0.224-0.5-0.5S4.724,37,5,37h1c0.276,0,0.5,0.224,0.5,0.5S6.276,38,6,38z"/>
	</g>
	<g>
		<path class="st0" d="M19,38H8c-0.276,0-0.5-0.224-0.5-0.5S7.724,37,8,37h11c0.276,0,0.5,0.224,0.5,0.5S19.276,38,19,38z"/>
	</g>
	<g>
		<path class="st0" d="M59,38h-1c-0.276,0-0.5-0.224-0.5-0.5S57.724,37,58,37h1c0.276,0,0.5,0.224,0.5,0.5S59.276,38,59,38z"/>
	</g>
	<g>
		<path class="st0" d="M56,38H45c-0.276,0-0.5-0.224-0.5-0.5S44.724,37,45,37h11c0.276,0,0.5,0.224,0.5,0.5S56.276,38,56,38z"/>
	</g>
	<g>
		<path class="st1" d="M24,15.45v4.05c0,1.381-1.119,2.5-2.5,2.5H21v-7.935C21.789,14.839,22.838,15.333,24,15.45z"/>
		<path class="st0" d="M21.5,22.5H21c-0.276,0-0.5-0.224-0.5-0.5v-7.935c0-0.201,0.121-0.383,0.307-0.461
			c0.186-0.078,0.399-0.036,0.543,0.104c0.711,0.699,1.67,1.14,2.7,1.244c0.255,0.026,0.45,0.241,0.45,0.498v4.05
			C24.5,21.154,23.154,22.5,21.5,22.5z M21.5,21.5c1.103,0,2-0.897,2-2v-3.617c-0.718-0.131-1.399-0.399-2-0.785V21.5z"/>
	</g>
	<g>
		<path class="st1" d="M32,8h-2.705c-2.171,0-4.315-0.471-6.286-1.381L19.5,5v5.5c0,2.761,2.239,5,5,5H32V8z"/>
		<path class="st0" d="M32,16h-7.5c-3.033,0-5.5-2.467-5.5-5.5V5c0-0.17,0.087-0.329,0.23-0.421
			c0.145-0.091,0.324-0.104,0.479-0.033l3.509,1.62C25.109,7.039,27.21,7.5,29.294,7.5H32c0.276,0,0.5,0.224,0.5,0.5v7.5
			C32.5,15.776,32.276,16,32,16z M20,5.781V10.5c0,2.481,2.019,4.5,4.5,4.5h7V8.5h-2.206c-2.228,0-4.474-0.493-6.495-1.426L20,5.781
			z"/>
	</g>
	<g>
		<path class="st0" d="M56,60.5c-0.276,0-0.5-0.224-0.5-0.5v-7.218c0-3.177-2.146-5.961-5.218-6.77l-13.409-3.528
			C36.653,42.426,36.5,42.227,36.5,42v-4c0-0.276,0.224-0.5,0.5-0.5s0.5,0.224,0.5,0.5v3.615l13.036,3.43
			c3.512,0.924,5.964,4.106,5.964,7.737V60C56.5,60.276,56.276,60.5,56,60.5z"/>
	</g>
	<g>
		<path class="st0" d="M8,60.5c-0.276,0-0.5-0.224-0.5-0.5v-7.218c0-3.631,2.453-6.813,5.964-7.737l13.036-3.43v-4.453
			c0-0.276,0.224-0.5,0.5-0.5s0.5,0.224,0.5,0.5V42c0,0.227-0.153,0.426-0.373,0.483l-13.409,3.528
			C10.646,46.82,8.5,49.604,8.5,52.782V60C8.5,60.276,8.276,60.5,8,60.5z"/>
	</g>
	<g>
		<path class="st0" d="M32,60.5c-0.276,0-0.5-0.224-0.5-0.5V10c0-0.276,0.224-0.5,0.5-0.5s0.5,0.224,0.5,0.5v50
			C32.5,60.276,32.276,60.5,32,60.5z"/>
	</g>
	<g>
		<circle class="st0" cx="27.5" cy="24" r="1"/>
	</g>
	<g>
		<circle class="st3" cx="37" cy="24" r="2.5"/>
		<path class="st0" d="M37,27c-1.654,0-3-1.346-3-3s1.346-3,3-3s3,1.346,3,3S38.654,27,37,27z M37,22c-1.103,0-2,0.897-2,2
			s0.897,2,2,2s2-0.897,2-2S38.103,22,37,22z"/>
	</g>
	<g>
		<path class="st0" d="M30,23.5h-5c-0.276,0-0.5-0.224-0.5-0.5s0.224-0.5,0.5-0.5h5c0.276,0,0.5,0.224,0.5,0.5S30.276,23.5,30,23.5z
			"/>
	</g>
	<g>
		<path class="st0" d="M35.5,32.5H30c-1.654,0-3-1.346-3-3V29c0-0.276,0.224-0.5,0.5-0.5h8c0.276,0,0.5,0.224,0.5,0.5v3
			C36,32.276,35.776,32.5,35.5,32.5z M28,29.5c0,1.103,0.897,2,2,2h5v-2H28z"/>
	</g>
	<g>
		<path class="st0" d="M43,25.828h-3.5c-0.276,0-0.5-0.224-0.5-0.5s0.224-0.5,0.5-0.5H43c0.276,0,0.5,0.224,0.5,0.5
			S43.276,25.828,43,25.828z"/>
	</g>
	<g>
		<path class="st0" d="M43,22.828h-3.5c-0.276,0-0.5-0.224-0.5-0.5s0.224-0.5,0.5-0.5H43c0.276,0,0.5,0.224,0.5,0.5
			S43.276,22.828,43,22.828z"/>
	</g>
	<g>
		<path class="st0" d="M34,18.5h-2c-0.276,0-0.5-0.224-0.5-0.5s0.224-0.5,0.5-0.5h2c0.275,0,0.5-0.224,0.5-0.5v-6.805
			c0-0.276,0.224-0.5,0.5-0.5s0.5,0.224,0.5,0.5V17C35.5,17.827,34.827,18.5,34,18.5z"/>
	</g>
	<g>
		<path class="st0" d="M41.073,14.598H37c-0.276,0-0.5-0.224-0.5-0.5s0.224-0.5,0.5-0.5h4.073c0.276,0,0.5,0.224,0.5,0.5
			S41.35,14.598,41.073,14.598z"/>
	</g>
	<g>
		<path class="st0" d="M38,18.432c-0.276,0-0.5-0.224-0.5-0.5v-1.834c0-0.276,0.224-0.5,0.5-0.5s0.5,0.224,0.5,0.5v1.834
			C38.5,18.208,38.276,18.432,38,18.432z"/>
	</g>
	<g>
		<path class="st0" d="M39,38.5c-0.276,0-0.5-0.224-0.5-0.5v-5c0-0.133,0.053-0.26,0.146-0.354l2-2c0.195-0.195,0.512-0.195,0.707,0
			s0.195,0.512,0,0.707L39.5,33.207V38C39.5,38.276,39.276,38.5,39,38.5z"/>
	</g>
	<g>
		<path class="st0" d="M40,60.5c-0.276,0-0.5-0.224-0.5-0.5v-4.246l-5.294-3.85C34.076,51.81,34,51.66,34,51.5V38
			c0-0.276,0.224-0.5,0.5-0.5S35,37.724,35,38v13.246l5.294,3.85C40.424,55.19,40.5,55.34,40.5,55.5V60
			C40.5,60.276,40.276,60.5,40,60.5z"/>
	</g>
	<g>
		<path class="st0" d="M46,60.5c-0.276,0-0.5-0.224-0.5-0.5v-4.505c0-0.276,0.224-0.5,0.5-0.5s0.5,0.224,0.5,0.5V60
			C46.5,60.276,46.276,60.5,46,60.5z"/>
	</g>
	<g>
		<path class="st0" d="M18,60.5c-0.276,0-0.5-0.224-0.5-0.5v-4.505c0-0.276,0.224-0.5,0.5-0.5s0.5,0.224,0.5,0.5V60
			C18.5,60.276,18.276,60.5,18,60.5z"/>
	</g>
	<g>
		<path class="st0" d="M39.5,50.5h-5c-0.276,0-0.5-0.224-0.5-0.5s0.224-0.5,0.5-0.5h4.732l1.852-2.777
			c0.093-0.139,0.249-0.223,0.416-0.223h3c0.276,0,0.5,0.224,0.5,0.5s-0.224,0.5-0.5,0.5h-2.732l-1.852,2.777
			C39.823,50.417,39.667,50.5,39.5,50.5z"/>
	</g>
	<g>
		<path class="st0" d="M55.464,50.5H48c-0.276,0-0.5-0.224-0.5-0.5v-5.105c0-0.276,0.224-0.5,0.5-0.5s0.5,0.224,0.5,0.5V49.5h6.964
			c0.276,0,0.5,0.224,0.5,0.5S55.74,50.5,55.464,50.5z"/>
	</g>
</g>
</svg>
