<?xml version="1.0" encoding="utf-8"?>
<!-- Generator: Adobe Illustrator 22.0.0, SVG Export Plug-In . SVG Version: 6.00 Build 0)  -->
<svg version="1.1" id="Icon_Set" xmlns="http://www.w3.org/2000/svg" xmlns:xlink="http://www.w3.org/1999/xlink" x="0px" y="0px"
	 viewBox="0 0 64 64" style="enable-background:new 0 0 64 64;" xml:space="preserve">
<style type="text/css">
	.st0{fill:#263238;}
	.st1{fill:#FFD740;}
	.st2{fill:#4FC3F7;}
	.st3{fill:#40C4FF;}
	.st4{fill:#FF5252;}
	.st5{fill:#FFFFFF;}
	.st6{fill:#212A41;}
	.st7{fill:#37474F;}
	.st8{fill:#4DB6AC;}
</style>
<g>
	<g>
		<path class="st0" d="M41,51.5H23c-0.827,0-1.5-0.673-1.5-1.5V3c0-0.827,0.673-1.5,1.5-1.5h18c0.827,0,1.5,0.673,1.5,1.5v47
			C42.5,50.827,41.827,51.5,41,51.5z M23,2.5c-0.275,0-0.5,0.224-0.5,0.5v47c0,0.276,0.225,0.5,0.5,0.5h18
			c0.275,0,0.5-0.224,0.5-0.5V3c0-0.276-0.225-0.5-0.5-0.5H23z"/>
	</g>
	<g>
		<path class="st0" d="M20,51.5H4c-0.276,0-0.5-0.224-0.5-0.5s0.224-0.5,0.5-0.5h16c0.276,0,0.5,0.224,0.5,0.5S20.276,51.5,20,51.5z
			"/>
	</g>
	<g>
		<path class="st0" d="M60,51.5H44c-0.276,0-0.5-0.224-0.5-0.5s0.224-0.5,0.5-0.5h16c0.276,0,0.5,0.224,0.5,0.5S60.276,51.5,60,51.5
			z"/>
	</g>
	<g>
		<path class="st0" d="M20,46.5H4c-0.276,0-0.5-0.224-0.5-0.5s0.224-0.5,0.5-0.5h16c0.276,0,0.5,0.224,0.5,0.5S20.276,46.5,20,46.5z
			"/>
	</g>
	<g>
		<path class="st0" d="M60,46.5H44c-0.276,0-0.5-0.224-0.5-0.5s0.224-0.5,0.5-0.5h16c0.276,0,0.5,0.224,0.5,0.5S60.276,46.5,60,46.5
			z"/>
	</g>
	<g>
		<path class="st0" d="M20,26.5H4c-0.276,0-0.5-0.224-0.5-0.5s0.224-0.5,0.5-0.5h16c0.276,0,0.5,0.224,0.5,0.5S20.276,26.5,20,26.5z
			"/>
	</g>
	<g>
		<path class="st0" d="M60,26.5H44c-0.276,0-0.5-0.224-0.5-0.5s0.224-0.5,0.5-0.5h16c0.276,0,0.5,0.224,0.5,0.5S60.276,26.5,60,26.5
			z"/>
	</g>
	<g>
		<rect x="25" y="5" class="st3" width="14" height="16"/>
		<path class="st0" d="M39,21.5H25c-0.276,0-0.5-0.224-0.5-0.5V5c0-0.276,0.224-0.5,0.5-0.5h14c0.276,0,0.5,0.224,0.5,0.5v16
			C39.5,21.276,39.276,21.5,39,21.5z M25.5,20.5h13v-15h-13V20.5z"/>
	</g>
	<g>
		<rect x="28" y="39" class="st1" width="8" height="12"/>
		<path class="st0" d="M36,51.5h-8c-0.276,0-0.5-0.224-0.5-0.5V39c0-0.276,0.224-0.5,0.5-0.5h8c0.276,0,0.5,0.224,0.5,0.5v12
			C36.5,51.276,36.276,51.5,36,51.5z M28.5,50.5h7v-11h-7V50.5z"/>
	</g>
	<g>
		<g>
			<path class="st0" d="M59,5.5h-4c-0.276,0-0.5-0.224-0.5-0.5s0.224-0.5,0.5-0.5h4c0.276,0,0.5,0.224,0.5,0.5S59.276,5.5,59,5.5z"
				/>
		</g>
		<g>
			<path class="st0" d="M57,7.5c-0.276,0-0.5-0.224-0.5-0.5V3c0-0.276,0.224-0.5,0.5-0.5s0.5,0.224,0.5,0.5v4
				C57.5,7.276,57.276,7.5,57,7.5z"/>
		</g>
		<g>
			<path class="st0" d="M52,12h-4c-0.276,0-0.5-0.224-0.5-0.5S47.724,11,48,11h4c0.276,0,0.5,0.224,0.5,0.5S52.276,12,52,12z"/>
		</g>
		<g>
			<path class="st0" d="M50,14c-0.276,0-0.5-0.224-0.5-0.5v-4C49.5,9.223,49.724,9,50,9s0.5,0.224,0.5,0.5v4
				C50.5,13.776,50.276,14,50,14z"/>
		</g>
	</g>
	<g>
		<path class="st0" d="M23,62.5H4c-0.276,0-0.5-0.224-0.5-0.5s0.224-0.5,0.5-0.5h18.706l4.856-8.743
			c0.135-0.244,0.44-0.328,0.681-0.194c0.241,0.134,0.328,0.438,0.194,0.68l-5,9C23.349,62.401,23.182,62.5,23,62.5z"/>
	</g>
	<g>
		<path class="st0" d="M60,62.5H41c-0.182,0-0.349-0.099-0.438-0.257l-5-9c-0.134-0.241-0.047-0.545,0.194-0.68
			c0.239-0.133,0.545-0.048,0.681,0.194l4.856,8.743H60c0.276,0,0.5,0.224,0.5,0.5S60.276,62.5,60,62.5z"/>
	</g>
	<g>
		<path class="st0" d="M20,51.5c-0.146,0-0.292-0.064-0.391-0.188L16,46.8l-3.609,4.512c-0.189,0.237-0.592,0.237-0.781,0L8,46.8
			l-3.609,4.512c-0.173,0.216-0.487,0.25-0.703,0.078c-0.216-0.173-0.25-0.487-0.078-0.703l4-5c0.189-0.237,0.592-0.237,0.781,0
			L12,50.199l3.609-4.512c0.189-0.237,0.592-0.237,0.781,0l4,5c0.172,0.216,0.138,0.53-0.078,0.703
			C20.22,51.464,20.109,51.5,20,51.5z"/>
	</g>
	<g>
		<path class="st0" d="M60,51.5c-0.146,0-0.292-0.064-0.391-0.188L56,46.8l-3.609,4.512c-0.189,0.237-0.592,0.237-0.781,0L48,46.8
			l-3.609,4.512c-0.173,0.216-0.486,0.25-0.703,0.078c-0.216-0.173-0.25-0.487-0.078-0.703l4-5c0.189-0.237,0.592-0.237,0.781,0
			L52,50.199l3.609-4.512c0.189-0.237,0.592-0.237,0.781,0l4,5c0.172,0.216,0.138,0.53-0.078,0.703
			C60.22,51.464,60.109,51.5,60,51.5z"/>
	</g>
	<g>
		<path class="st0" d="M11,56.5h-1c-0.276,0-0.5-0.224-0.5-0.5s0.224-0.5,0.5-0.5h1c0.276,0,0.5,0.224,0.5,0.5S11.276,56.5,11,56.5z
			"/>
	</g>
	<g>
		<path class="st0" d="M19,56.5h-6c-0.276,0-0.5-0.224-0.5-0.5s0.224-0.5,0.5-0.5h6c0.276,0,0.5,0.224,0.5,0.5S19.276,56.5,19,56.5z
			"/>
	</g>
	<g>
		<path class="st0" d="M54,56.5h-1c-0.276,0-0.5-0.224-0.5-0.5s0.224-0.5,0.5-0.5h1c0.276,0,0.5,0.224,0.5,0.5S54.276,56.5,54,56.5z
			"/>
	</g>
	<g>
		<path class="st0" d="M51,56.5h-6c-0.276,0-0.5-0.224-0.5-0.5s0.224-0.5,0.5-0.5h6c0.276,0,0.5,0.224,0.5,0.5S51.276,56.5,51,56.5z
			"/>
	</g>
</g>
</svg>
