<?xml version="1.0" encoding="utf-8"?>
<!-- Generator: Adobe Illustrator 22.0.0, SVG Export Plug-In . SVG Version: 6.00 Build 0)  -->
<svg version="1.1" id="Icon_Set" xmlns="http://www.w3.org/2000/svg" xmlns:xlink="http://www.w3.org/1999/xlink" x="0px" y="0px"
	 viewBox="0 0 64 64" style="enable-background:new 0 0 64 64;" xml:space="preserve">
<style type="text/css">
	.st0{fill:#263238;}
	.st1{fill:#FFD740;}
	.st2{fill:#4FC3F7;}
	.st3{fill:#40C4FF;}
	.st4{fill:#FF5252;}
	.st5{fill:#FFFFFF;}
	.st6{fill:#212A41;}
	.st7{fill:#37474F;}
	.st8{fill:#4DB6AC;}
</style>
<g>
	<g>
		<path class="st2" d="M17.5,12.501c0-1.381-1.119-2.5-2.5-2.5s-2.5,1.119-2.5,2.5c-1.381,0-2.5,1.119-2.5,2.5s1.119,2.5,2.5,2.5h5
			c1.381,0,2.5-1.119,2.5-2.5S18.881,12.501,17.5,12.501z"/>
	</g>
	<g>
		<path class="st0" d="M52,7.501h-4c-0.276,0-0.5-0.224-0.5-0.5s0.224-0.5,0.5-0.5h4c0.276,0,0.5,0.224,0.5,0.5
			S52.276,7.501,52,7.501z"/>
	</g>
	<g>
		<path class="st0" d="M50,9.501c-0.276,0-0.5-0.224-0.5-0.5v-4c0-0.276,0.224-0.5,0.5-0.5s0.5,0.224,0.5,0.5v4
			C50.5,9.277,50.276,9.501,50,9.501z"/>
	</g>
	<g>
		<path class="st0" d="M59,12.001h-4c-0.276,0-0.5-0.224-0.5-0.5s0.224-0.5,0.5-0.5h4c0.276,0,0.5,0.224,0.5,0.5
			S59.276,12.001,59,12.001z"/>
	</g>
	<g>
		<path class="st0" d="M57,14.001c-0.276,0-0.5-0.224-0.5-0.5v-4c0-0.276,0.224-0.5,0.5-0.5s0.5,0.224,0.5,0.5v4
			C57.5,13.777,57.276,14.001,57,14.001z"/>
	</g>
	<g>
		<rect x="36" y="17.501" class="st1" width="15" height="10"/>
		<path class="st0" d="M51,28.001H36c-0.276,0-0.5-0.224-0.5-0.5v-10c0-0.276,0.224-0.5,0.5-0.5h15c0.276,0,0.5,0.224,0.5,0.5v10
			C51.5,27.777,51.276,28.001,51,28.001z M36.5,27.001h14v-9h-14V27.001z"/>
	</g>
	<g>
		<path class="st8" d="M17,49.001h-1v-1c0-2.761,2.239-5,5-5h1v1C22,46.762,19.761,49.001,17,49.001z"/>
		<path class="st0" d="M17,49.501h-1c-0.276,0-0.5-0.224-0.5-0.5v-1c0-3.032,2.467-5.5,5.5-5.5h1c0.276,0,0.5,0.224,0.5,0.5v1
			C22.5,47.033,20.033,49.501,17,49.501z M16.5,48.501H17c2.481,0,4.5-2.019,4.5-4.5v-0.5H21c-2.481,0-4.5,2.019-4.5,4.5V48.501z"/>
	</g>
	<g>
		<path class="st8" d="M15,49.001h1v-1c0-2.761-2.239-5-5-5h-1v1C10,46.762,12.239,49.001,15,49.001z"/>
		<path class="st0" d="M16,49.501h-1c-3.033,0-5.5-2.468-5.5-5.5v-1c0-0.276,0.224-0.5,0.5-0.5h1c3.033,0,5.5,2.468,5.5,5.5v1
			C16.5,49.277,16.276,49.501,16,49.501z M10.5,43.501v0.5c0,2.481,2.019,4.5,4.5,4.5h0.5v-0.5c0-2.481-2.019-4.5-4.5-4.5H10.5z"/>
	</g>
	<g>
		<path class="st8" d="M49,49.001h-1v-1c0-2.761,2.239-5,5-5h1v1C54,46.762,51.761,49.001,49,49.001z"/>
		<path class="st0" d="M49,49.501h-1c-0.276,0-0.5-0.224-0.5-0.5v-1c0-3.032,2.467-5.5,5.5-5.5h1c0.276,0,0.5,0.224,0.5,0.5v1
			C54.5,47.033,52.033,49.501,49,49.501z M48.5,48.501H49c2.481,0,4.5-2.019,4.5-4.5v-0.5H53c-2.481,0-4.5,2.019-4.5,4.5V48.501z"/>
	</g>
	<g>
		<path class="st8" d="M47,49.001h1v-1c0-2.761-2.239-5-5-5h-1v1C42,46.762,44.239,49.001,47,49.001z"/>
		<path class="st0" d="M48,49.501h-1c-3.033,0-5.5-2.468-5.5-5.5v-1c0-0.276,0.224-0.5,0.5-0.5h1c3.033,0,5.5,2.468,5.5,5.5v1
			C48.5,49.277,48.276,49.501,48,49.501z M42.5,43.501v0.5c0,2.481,2.019,4.5,4.5,4.5h0.5v-0.5c0-2.481-2.019-4.5-4.5-4.5H42.5z"/>
	</g>
	<g>
		<path class="st0" d="M36.5,57.501c-0.276,0-0.5-0.224-0.5-0.5v-11c0-0.275-0.224-0.5-0.5-0.5h-7c-0.276,0-0.5,0.225-0.5,0.5v11
			c0,0.276-0.224,0.5-0.5,0.5s-0.5-0.224-0.5-0.5v-11c0-0.827,0.673-1.5,1.5-1.5h7c0.827,0,1.5,0.673,1.5,1.5v11
			C37,57.277,36.776,57.501,36.5,57.501z"/>
	</g>
	<g>
		<path class="st0" d="M44.5,33.001h-2c-0.276,0-0.5-0.224-0.5-0.5v-5c0-0.276,0.224-0.5,0.5-0.5h2c0.276,0,0.5,0.224,0.5,0.5v5
			C45,32.777,44.776,33.001,44.5,33.001z M43,32.001h1v-4h-1V32.001z"/>
	</g>
	<g>
		<path class="st0" d="M46,28.001h-5c-0.276,0-0.5-0.224-0.5-0.5v-10c0-0.276,0.224-0.5,0.5-0.5h5c0.276,0,0.5,0.224,0.5,0.5v10
			C46.5,27.777,46.276,28.001,46,28.001z M41.5,27.001h4v-9h-4V27.001z"/>
	</g>
	<g>
		<path class="st0" d="M16,42.501c-0.276,0-0.5-0.224-0.5-0.5v-5.5H12c-0.212,0-0.401-0.134-0.472-0.335
			c-0.07-0.2-0.006-0.423,0.159-0.556l20-16c0.183-0.146,0.442-0.146,0.625,0l2,1.6c0.215,0.173,0.25,0.487,0.078,0.703
			c-0.173,0.215-0.486,0.25-0.703,0.078L32,20.642L13.425,35.501H16c0.276,0,0.5,0.224,0.5,0.5v6
			C16.5,42.277,16.276,42.501,16,42.501z"/>
	</g>
	<g>
		<path class="st0" d="M48,59.501H16c-0.276,0-0.5-0.224-0.5-0.5v-10c0-0.276,0.224-0.5,0.5-0.5s0.5,0.224,0.5,0.5v9.5h31v-9.5
			c0-0.276,0.224-0.5,0.5-0.5s0.5,0.224,0.5,0.5v10C48.5,59.277,48.276,59.501,48,59.501z"/>
	</g>
	<g>
		<path class="st0" d="M48,42.501c-0.276,0-0.5-0.224-0.5-0.5v-6c0-0.276,0.224-0.5,0.5-0.5h2.575l-2.915-2.332
			c-0.215-0.173-0.25-0.487-0.078-0.703c0.173-0.214,0.488-0.249,0.703-0.078l4.028,3.223c0.166,0.133,0.229,0.355,0.159,0.556
			c-0.07,0.201-0.259,0.335-0.472,0.335h-3.5v5.5C48.5,42.277,48.276,42.501,48,42.501z"/>
	</g>
	<g>
		<path class="st0" d="M51,23.001H36c-0.276,0-0.5-0.224-0.5-0.5s0.224-0.5,0.5-0.5h15c0.276,0,0.5,0.224,0.5,0.5
			S51.276,23.001,51,23.001z"/>
	</g>
	<g>
		<path class="st0" d="M46,33.001h-5c-0.276,0-0.5-0.224-0.5-0.5s0.224-0.5,0.5-0.5h5c0.276,0,0.5,0.224,0.5,0.5
			S46.276,33.001,46,33.001z"/>
	</g>
	<g>
		<path class="st0" d="M59,59.501h-3c-0.276,0-0.5-0.224-0.5-0.5s0.224-0.5,0.5-0.5h3c0.276,0,0.5,0.224,0.5,0.5
			S59.276,59.501,59,59.501z"/>
	</g>
	<g>
		<path class="st0" d="M53,59.501H11c-0.276,0-0.5-0.224-0.5-0.5s0.224-0.5,0.5-0.5h42c0.276,0,0.5,0.224,0.5,0.5
			S53.276,59.501,53,59.501z"/>
	</g>
	<g>
		<path class="st0" d="M8,59.501H5c-0.276,0-0.5-0.224-0.5-0.5s0.224-0.5,0.5-0.5h3c0.276,0,0.5,0.224,0.5,0.5
			S8.276,59.501,8,59.501z"/>
	</g>
</g>
</svg>
