<?xml version="1.0" encoding="utf-8"?>
<!-- Generator: Adobe Illustrator 22.0.0, SVG Export Plug-In . SVG Version: 6.00 Build 0)  -->
<svg version="1.1" id="Icon_Set" xmlns="http://www.w3.org/2000/svg" xmlns:xlink="http://www.w3.org/1999/xlink" x="0px" y="0px"
	 viewBox="0 0 64 64" style="enable-background:new 0 0 64 64;" xml:space="preserve">
<style type="text/css">
	.st0{fill:#263238;}
	.st1{fill:#FFD740;}
	.st2{fill:#4FC3F7;}
	.st3{fill:#40C4FF;}
	.st4{fill:#FF5252;}
	.st5{fill:#FFFFFF;}
	.st6{fill:#212A41;}
	.st7{fill:#37474F;}
	.st8{fill:#4DB6AC;}
</style>
<g>
	<g>
		<path class="st4" d="M35.606,10.119l-0.071,0.305c-0.44,1.896-1.751,3.471-3.535,4.249v0L32,4l-4.758,8.075
			c-0.745,1.264-0.934,2.808-0.42,4.182c1.866,4.99,8.492,4.99,10.358,0c0.514-1.374,0.324-2.918-0.42-4.183L35.606,10.119z"/>
	</g>
	<g>
		<path class="st4" d="M24.056,12.589l-0.053,0.229c-0.33,1.422-1.313,2.603-2.651,3.187h0l0-8.005l-3.569,6.056
			c-0.559,0.948-0.701,2.106-0.315,3.137c1.399,3.743,6.369,3.743,7.768,0c0.385-1.031,0.243-2.189-0.315-3.137L24.056,12.589z"/>
	</g>
	<g>
		<path class="st4" d="M45.354,12.589l-0.053,0.229c-0.33,1.422-1.313,2.603-2.651,3.187l0,0l0-8.005l-3.569,6.056
			c-0.559,0.948-0.701,2.106-0.315,3.137c1.399,3.743,6.369,3.743,7.768,0c0.385-1.031,0.243-2.189-0.315-3.137L45.354,12.589z"/>
	</g>
	<g>
		<path class="st0" d="M46.25,53.5c-0.276,0-0.5-0.224-0.5-0.5v-2c0-0.276,0.224-0.5,0.5-0.5h1v-24h-1c-0.276,0-0.5-0.224-0.5-0.5
			v-2c0-0.276,0.224-0.5,0.5-0.5s0.5,0.224,0.5,0.5v1.5h1c0.276,0,0.5,0.224,0.5,0.5v25c0,0.276-0.224,0.5-0.5,0.5h-1V53
			C46.75,53.276,46.527,53.5,46.25,53.5z"/>
	</g>
	<g>
		<path class="st0" d="M17.75,53.5c-0.276,0-0.5-0.224-0.5-0.5v-1.5h-1c-0.276,0-0.5-0.224-0.5-0.5V26c0-0.276,0.224-0.5,0.5-0.5
			l1,0V24c0-0.276,0.224-0.5,0.5-0.5s0.5,0.224,0.5,0.5v2c0,0.276-0.224,0.5-0.5,0.5l-1,0v24h1c0.276,0,0.5,0.224,0.5,0.5v2
			C18.25,53.276,18.027,53.5,17.75,53.5z"/>
	</g>
	<g>
		<path class="st0" d="M47.75,21h-31.5c-0.827,0-1.5-0.673-1.5-1.5V18c0-0.827,0.673-1.5,1.5-1.5h31.5c0.827,0,1.5,0.673,1.5,1.5
			v1.5C49.25,20.327,48.578,21,47.75,21z M16.25,17.5c-0.276,0-0.5,0.224-0.5,0.5v1.5c0,0.276,0.224,0.5,0.5,0.5h31.5
			c0.276,0,0.5-0.224,0.5-0.5V18c0-0.276-0.224-0.5-0.5-0.5H16.25z"/>
	</g>
	<g>
		<path class="st0" d="M47.75,60.5h-31.5c-0.827,0-1.5-0.673-1.5-1.5v-1.5c0-0.827,0.673-1.5,1.5-1.5h31.5
			c0.827,0,1.5,0.673,1.5,1.5V59C49.25,59.827,48.578,60.5,47.75,60.5z M16.25,57c-0.276,0-0.5,0.224-0.5,0.5V59
			c0,0.276,0.224,0.5,0.5,0.5h31.5c0.276,0,0.5-0.224,0.5-0.5v-1.5c0-0.276-0.224-0.5-0.5-0.5H16.25z"/>
	</g>
	<g>
		<path class="st0" d="M47.75,28.5h-31.5c-0.276,0-0.5-0.224-0.5-0.5s0.224-0.5,0.5-0.5h31.5c0.276,0,0.5,0.224,0.5,0.5
			S48.027,28.5,47.75,28.5z"/>
	</g>
	<g>
		<path class="st0" d="M47.75,39h-9.935c-0.276,0-0.5-0.224-0.5-0.5s0.224-0.5,0.5-0.5h9.935c0.276,0,0.5,0.224,0.5,0.5
			S48.027,39,47.75,39z"/>
	</g>
	<g>
		<path class="st0" d="M26.186,39H16.25c-0.276,0-0.5-0.224-0.5-0.5s0.224-0.5,0.5-0.5h9.935c0.276,0,0.5,0.224,0.5,0.5
			S26.462,39,26.186,39z"/>
	</g>
	<g>
		<path class="st0" d="M47.75,49.5h-31.5c-0.276,0-0.5-0.224-0.5-0.5s0.224-0.5,0.5-0.5h31.5c0.276,0,0.5,0.224,0.5,0.5
			S48.027,49.5,47.75,49.5z"/>
	</g>
	<g>
		<polygon class="st1" points="39,44.5 25,44.5 32,32.5 		"/>
		<path class="st0" d="M39,45H25c-0.179,0-0.344-0.096-0.434-0.251s-0.088-0.346,0.001-0.501l7-12c0.18-0.308,0.685-0.308,0.864,0
			l7,12c0.09,0.155,0.091,0.346,0.001,0.501S39.18,45,39,45z M25.871,44H38.13L32,33.492L25.871,44z"/>
	</g>
	<g>
		<path class="st0" d="M32,40.5c-0.276,0-0.5-0.224-0.5-0.5v-3.5c0-0.276,0.224-0.5,0.5-0.5s0.5,0.224,0.5,0.5V40
			C32.5,40.276,32.277,40.5,32,40.5z"/>
	</g>
	<g>
		<circle class="st0" cx="32" cy="42.25" r="0.75"/>
	</g>
	<g>
		<path class="st0" d="M10,30.25c-0.276,0-0.5-0.224-0.5-0.5v-2c0-0.276,0.224-0.5,0.5-0.5s0.5,0.224,0.5,0.5v2
			C10.5,30.026,10.277,30.25,10,30.25z"/>
	</g>
	<g>
		<path class="st0" d="M10,47.25c-0.276,0-0.5-0.224-0.5-0.5v-15c0-0.276,0.224-0.5,0.5-0.5s0.5,0.224,0.5,0.5v15
			C10.5,47.026,10.277,47.25,10,47.25z"/>
	</g>
	<g>
		<path class="st0" d="M54,47.25c-0.276,0-0.5-0.224-0.5-0.5v-2c0-0.276,0.224-0.5,0.5-0.5s0.5,0.224,0.5,0.5v2
			C54.5,47.026,54.277,47.25,54,47.25z"/>
	</g>
	<g>
		<path class="st0" d="M54,43.25c-0.276,0-0.5-0.224-0.5-0.5v-15c0-0.276,0.224-0.5,0.5-0.5s0.5,0.224,0.5,0.5v15
			C54.5,43.026,54.277,43.25,54,43.25z"/>
	</g>
</g>
</svg>
