<?xml version="1.0" encoding="utf-8"?>
<!-- Generator: Adobe Illustrator 22.0.0, SVG Export Plug-In . SVG Version: 6.00 Build 0)  -->
<svg version="1.1" id="Icon_Set" xmlns="http://www.w3.org/2000/svg" xmlns:xlink="http://www.w3.org/1999/xlink" x="0px" y="0px"
	 viewBox="0 0 64 64" style="enable-background:new 0 0 64 64;" xml:space="preserve">
<style type="text/css">
	.st0{fill:#263238;}
	.st1{fill:#FFD740;}
	.st2{fill:#4FC3F7;}
	.st3{fill:#40C4FF;}
	.st4{fill:#FF5252;}
	.st5{fill:#FFFFFF;}
	.st6{fill:#212A41;}
	.st7{fill:#37474F;}
	.st8{fill:#4DB6AC;}
</style>
<g>
	<g>
		<path class="st0" d="M30.75,40.75c-11.141,0-20.001-9.751-20.373-10.167c-0.17-0.19-0.17-0.477,0-0.667
			c0.372-0.415,9.232-10.167,20.373-10.167c11.141,0,20.001,9.751,20.373,10.167c0.17,0.19,0.17,0.477,0,0.667
			C50.751,30.999,41.891,40.75,30.75,40.75z M11.438,30.25c1.671,1.721,9.758,9.5,19.312,9.5c9.563,0,17.642-7.778,19.312-9.5
			c-1.671-1.721-9.757-9.5-19.312-9.5C21.196,20.75,13.109,28.529,11.438,30.25z"/>
	</g>
	<g>
		<circle class="st3" cx="30.75" cy="30.25" r="10"/>
		<path class="st0" d="M30.75,40.75c-5.79,0-10.5-4.71-10.5-10.5s4.71-10.5,10.5-10.5s10.5,4.71,10.5,10.5S36.54,40.75,30.75,40.75z
			 M30.75,20.75c-5.238,0-9.5,4.262-9.5,9.5s4.262,9.5,9.5,9.5s9.5-4.262,9.5-9.5S35.988,20.75,30.75,20.75z"/>
	</g>
	<g>
		<circle class="st5" cx="30.75" cy="30.25" r="7"/>
		<path class="st0" d="M30.75,37.75c-4.136,0-7.5-3.364-7.5-7.5s3.364-7.5,7.5-7.5s7.5,3.364,7.5,7.5S34.886,37.75,30.75,37.75z
			 M30.75,23.75c-3.584,0-6.5,2.916-6.5,6.5s2.916,6.5,6.5,6.5s6.5-2.916,6.5-6.5S34.334,23.75,30.75,23.75z"/>
	</g>
	<g>
		<path class="st1" d="M34.75,30.25c0-2.209-1.791-4-4-4c-0.505,0-0.984,0.104-1.43,0.275c0.265,0.339,0.43,0.761,0.43,1.225
			c0,1.105-0.895,2-2,2c-0.336,0-0.648-0.091-0.926-0.237c-0.045,0.24-0.074,0.485-0.074,0.737c0,2.209,1.791,4,4,4
			C32.959,34.25,34.75,32.459,34.75,30.25z"/>
		<path class="st0" d="M30.75,34.75c-2.481,0-4.5-2.019-4.5-4.5c0-0.259,0.027-0.53,0.083-0.83c0.029-0.156,0.131-0.289,0.273-0.358
			c0.143-0.069,0.31-0.066,0.451,0.008c1.023,0.54,2.192-0.26,2.192-1.32c0-0.33-0.112-0.646-0.323-0.917
			c-0.098-0.125-0.13-0.289-0.088-0.441s0.154-0.276,0.302-0.333c0.532-0.205,1.073-0.308,1.609-0.308c2.481,0,4.5,2.019,4.5,4.5
			S33.231,34.75,30.75,34.75z M27.25,30.197c0,0.018,0,0.036,0,0.053c0,1.93,1.57,3.5,3.5,3.5s3.5-1.57,3.5-3.5
			c0-2.155-2.006-3.885-4.182-3.428c0.12,0.293,0.182,0.606,0.182,0.928c0,1.378-1.122,2.5-2.5,2.5
			C27.582,30.25,27.415,30.232,27.25,30.197z"/>
	</g>
	<g>
		<path class="st0" d="M26.25,51.25h-1c-0.276,0-0.5-0.224-0.5-0.5s0.224-0.5,0.5-0.5h1c0.276,0,0.5,0.224,0.5,0.5
			S26.526,51.25,26.25,51.25z"/>
	</g>
	<g>
		<path class="st0" d="M23.25,51.25h-10.5c-0.276,0-0.5-0.224-0.5-0.5s0.224-0.5,0.5-0.5h10.5c0.276,0,0.5,0.224,0.5,0.5
			S23.526,51.25,23.25,51.25z"/>
	</g>
	<g>
		<path class="st0" d="M31.25,54.75h-1c-0.276,0-0.5-0.224-0.5-0.5s0.224-0.5,0.5-0.5h1c0.276,0,0.5,0.224,0.5,0.5
			S31.526,54.75,31.25,54.75z"/>
	</g>
	<g>
		<path class="st0" d="M28.25,54.75h-15.5c-0.276,0-0.5-0.224-0.5-0.5s0.224-0.5,0.5-0.5h15.5c0.276,0,0.5,0.224,0.5,0.5
			S28.526,54.75,28.25,54.75z"/>
	</g>
	<g>
		<path class="st0" d="M25.75,16.75c-0.128,0-0.256-0.049-0.354-0.146l-4.854-4.854H7.75c-0.276,0-0.5-0.224-0.5-0.5
			s0.224-0.5,0.5-0.5h13c0.133,0,0.26,0.053,0.354,0.146l5,5c0.195,0.195,0.195,0.512,0,0.707
			C26.006,16.701,25.878,16.75,25.75,16.75z"/>
	</g>
	<g>
		<path class="st0" d="M15.75,9.25h-8c-0.276,0-0.5-0.224-0.5-0.5s0.224-0.5,0.5-0.5h8c0.276,0,0.5,0.224,0.5,0.5
			S16.026,9.25,15.75,9.25z"/>
	</g>
	<g>
		<path class="st0" d="M15.75,6.75h-8c-0.276,0-0.5-0.224-0.5-0.5s0.224-0.5,0.5-0.5h8c0.276,0,0.5,0.224,0.5,0.5
			S16.026,6.75,15.75,6.75z"/>
	</g>
	<g>
		<path class="st0" d="M49.25,20.25c-4.687,0-8.5-3.813-8.5-8.5s3.813-8.5,8.5-8.5s8.5,3.813,8.5,8.5S53.937,20.25,49.25,20.25z
			 M49.25,4.25c-4.136,0-7.5,3.364-7.5,7.5s3.364,7.5,7.5,7.5s7.5-3.364,7.5-7.5S53.386,4.25,49.25,4.25z"/>
	</g>
	<g>
		<path class="st0" d="M49.25,17.25c-3.033,0-5.5-2.467-5.5-5.5s2.467-5.5,5.5-5.5s5.5,2.467,5.5,5.5S52.283,17.25,49.25,17.25z
			 M49.25,7.25c-2.481,0-4.5,2.019-4.5,4.5s2.019,4.5,4.5,4.5s4.5-2.019,4.5-4.5S51.731,7.25,49.25,7.25z"/>
	</g>
	<g>
		<path class="st0" d="M54.75,60.75h-48c-0.276,0-0.5-0.224-0.5-0.5v-15c0-0.276,0.224-0.5,0.5-0.5h48c0.276,0,0.5,0.224,0.5,0.5v15
			C55.25,60.526,55.026,60.75,54.75,60.75z M7.25,59.75h47v-14h-47V59.75z"/>
	</g>
</g>
</svg>
