<?xml version="1.0" encoding="utf-8"?>
<!-- Generator: Adobe Illustrator 22.0.0, SVG Export Plug-In . SVG Version: 6.00 Build 0)  -->
<svg version="1.1" id="Icon_Set" xmlns="http://www.w3.org/2000/svg" xmlns:xlink="http://www.w3.org/1999/xlink" x="0px" y="0px"
	 viewBox="0 0 64 64" style="enable-background:new 0 0 64 64;" xml:space="preserve">
<style type="text/css">
	.st0{fill:#263238;}
	.st1{fill:#FFD740;}
	.st2{fill:#4FC3F7;}
	.st3{fill:#40C4FF;}
	.st4{fill:#FF5252;}
	.st5{fill:#FFFFFF;}
	.st6{fill:#212A41;}
	.st7{fill:#37474F;}
	.st8{fill:#4DB6AC;}
</style>
<g>
	<g>
		<g>
			<path class="st2" d="M40.009,4.009C40.014,2.904,39.122,2.005,38.018,2c-1.105-0.005-2.004,0.887-2.009,1.991
				C34.904,3.986,34.005,4.878,34,5.982c-0.005,1.105,0.887,2.004,1.991,2.009l4,0.018C41.096,8.014,41.995,7.122,42,6.018
				S41.113,4.014,40.009,4.009z"/>
		</g>
		<g>
			<path class="st0" d="M57,48H7c-3.032,0-5.5-2.468-5.5-5.5v-21C1.5,21.224,1.724,21,2,21h1.268c2.527,0,4.971,0.912,6.88,2.568
				l0.922,0.8c3.595,3.118,8.983,3.085,12.537-0.076l1.884-1.674c0.959-0.853,1.51-2.079,1.51-3.363V17c0-1.103,0.897-2,2-2h0.65
				c0.699,0,1.356,0.372,1.715,0.972l4.017,6.693c0.932,1.552,2.405,2.67,4.149,3.148l15.249,4.186l0,0
				c4.545,1.248,7.72,5.412,7.72,10.126V42.5C62.5,45.532,60.032,48,57,48z M2.5,22v20.5C2.5,44.981,4.519,47,7,47h50
				c2.481,0,4.5-2.019,4.5-4.5v-2.375c0-4.265-2.872-8.032-6.985-9.161l-15.248-4.186c-1.994-0.548-3.678-1.825-4.742-3.6
				l-4.017-6.693C30.328,16.186,30,16,29.65,16H29c-0.552,0-1,0.448-1,1v2.255c0,1.569-0.673,3.068-1.846,4.111l-1.884,1.674
				c-3.929,3.491-9.885,3.528-13.855,0.084l-0.923-0.8C7.765,22.825,5.555,22,3.268,22H2.5z"/>
		</g>
		<g>
			<path class="st0" d="M58,40c-0.276,0-0.5-0.224-0.5-0.5c0-2.47-1.663-4.65-4.045-5.304c-0.266-0.073-0.423-0.349-0.35-0.615
				c0.073-0.266,0.347-0.42,0.615-0.35c2.813,0.772,4.779,3.351,4.779,6.269C58.5,39.776,58.276,40,58,40z"/>
		</g>
		<g>
			<path class="st0" d="M57,48H7c-3.032,0-5.5-2.468-5.5-5.5C1.5,42.224,1.724,42,2,42h60c0.276,0,0.5,0.224,0.5,0.5
				C62.5,45.532,60.032,48,57,48z M2.527,43c0.25,2.247,2.16,4,4.473,4h50c2.312,0,4.223-1.753,4.473-4H2.527z"/>
		</g>
		<g>
			<path class="st0" d="M34.5,43H2c-0.276,0-0.5-0.224-0.5-0.5v-9C1.5,33.224,1.724,33,2,33h16.744
				c3.835,0,7.518,1.413,10.369,3.979l5.722,5.149c0.153,0.139,0.206,0.358,0.132,0.551C34.893,42.872,34.707,43,34.5,43z M2.5,42
				h30.697l-4.754-4.277C25.776,35.322,22.332,34,18.744,34H2.5V42z"/>
		</g>
		<g>
			<polygon class="st4" points="37.322,32.5 32.322,32.5 39.322,23.5 44.322,23.5 			"/>
			<path class="st0" d="M37.322,33h-5c-0.191,0-0.365-0.108-0.449-0.28s-0.062-0.376,0.055-0.526l7-9
				C39.022,23.071,39.168,23,39.322,23h5c0.191,0,0.365,0.108,0.449,0.28s0.062,0.376-0.055,0.526l-7,9
				C37.622,32.929,37.477,33,37.322,33z M33.345,32h3.733l6.222-8h-3.733L33.345,32z"/>
		</g>
		<g>
			<polygon class="st4" points="47.766,25.5 42.322,32.5 47.322,32.5 52.766,25.5 			"/>
			<path class="st0" d="M47.322,33h-5c-0.191,0-0.365-0.108-0.449-0.28s-0.062-0.376,0.055-0.526l5.444-7
				C47.467,25.071,47.612,25,47.767,25h5c0.191,0,0.365,0.108,0.449,0.28s0.062,0.376-0.055,0.526l-5.444,7
				C47.622,32.929,47.477,33,47.322,33z M43.345,32h3.733l4.666-6h-3.733L43.345,32z"/>
		</g>
		<g>
			<path class="st0" d="M18.5,52h-8C9.673,52,9,51.327,9,50.5v-3C9,47.224,9.224,47,9.5,47h10c0.276,0,0.5,0.224,0.5,0.5v3
				C20,51.327,19.327,52,18.5,52z M10,48v2.5c0,0.275,0.225,0.5,0.5,0.5h8c0.275,0,0.5-0.225,0.5-0.5V48H10z"/>
		</g>
		<g>
			<path class="st0" d="M51.5,52h-8c-0.827,0-1.5-0.673-1.5-1.5v-3c0-0.276,0.224-0.5,0.5-0.5h10c0.276,0,0.5,0.224,0.5,0.5v3
				C53,51.327,52.327,52,51.5,52z M43,48v2.5c0,0.275,0.225,0.5,0.5,0.5h8c0.275,0,0.5-0.225,0.5-0.5V48H43z"/>
		</g>
		<g>
			<path class="st0" d="M62,18h-4c-0.276,0-0.5-0.224-0.5-0.5S57.724,17,58,17h4c0.276,0,0.5,0.224,0.5,0.5S62.276,18,62,18z"/>
		</g>
		<g>
			<path class="st0" d="M60,20c-0.276,0-0.5-0.224-0.5-0.5v-4c0-0.276,0.224-0.5,0.5-0.5s0.5,0.224,0.5,0.5v4
				C60.5,19.776,60.276,20,60,20z"/>
		</g>
		<g>
			<path class="st0" d="M55,13h-4c-0.276,0-0.5-0.224-0.5-0.5S50.724,12,51,12h4c0.276,0,0.5,0.224,0.5,0.5S55.276,13,55,13z"/>
		</g>
		<g>
			<path class="st0" d="M53,15c-0.276,0-0.5-0.224-0.5-0.5v-4c0-0.276,0.224-0.5,0.5-0.5s0.5,0.224,0.5,0.5v4
				C53.5,14.776,53.276,15,53,15z"/>
		</g>
		<g>
			<path class="st0" d="M17,13h-3c-0.276,0-0.5-0.224-0.5-0.5c0-1.379-1.121-2.5-2.5-2.5s-2.5,1.121-2.5,2.5
				C8.5,12.776,8.276,13,8,13H5c-0.276,0-0.5-0.224-0.5-0.5S4.724,12,5,12h2.535C7.779,10.306,9.24,9,11,9s3.221,1.306,3.465,3H17
				c0.276,0,0.5,0.224,0.5,0.5S17.276,13,17,13z"/>
		</g>
		<g>
			<path class="st0" d="M20,13h-1c-0.276,0-0.5-0.224-0.5-0.5S18.724,12,19,12h1c0.276,0,0.5,0.224,0.5,0.5S20.276,13,20,13z"/>
		</g>
		<g>
			<path class="st1" d="M7,33.5c0-2.761-2.239-5-5-5v10C4.761,38.5,7,36.261,7,33.5z"/>
			<path class="st0" d="M2,39c-0.276,0-0.5-0.224-0.5-0.5v-10C1.5,28.224,1.724,28,2,28c3.032,0,5.5,2.468,5.5,5.5S5.032,39,2,39z
				 M2.5,29.027v8.945c2.247-0.25,4-2.16,4-4.473S4.747,29.277,2.5,29.027z"/>
		</g>
		<g>
			<path class="st0" d="M14.5,62.5c-0.276,0-0.5-0.224-0.5-0.5v-6c0-0.276,0.224-0.5,0.5-0.5S15,55.724,15,56v6
				C15,62.276,14.776,62.5,14.5,62.5z"/>
		</g>
		<g>
			<path class="st0" d="M10.75,58c-0.276,0-0.5-0.224-0.5-0.5v-4c0-0.276,0.224-0.5,0.5-0.5s0.5,0.224,0.5,0.5v4
				C11.25,57.776,11.026,58,10.75,58z"/>
		</g>
		<g>
			<path class="st0" d="M18.25,58c-0.276,0-0.5-0.224-0.5-0.5v-4c0-0.276,0.224-0.5,0.5-0.5s0.5,0.224,0.5,0.5v4
				C18.75,57.776,18.526,58,18.25,58z"/>
		</g>
		<g>
			<path class="st0" d="M18.25,60.5c-0.276,0-0.5-0.224-0.5-0.5v-0.5c0-0.276,0.224-0.5,0.5-0.5s0.5,0.224,0.5,0.5V60
				C18.75,60.276,18.526,60.5,18.25,60.5z"/>
		</g>
		<g>
			<path class="st0" d="M10.75,60.5c-0.276,0-0.5-0.224-0.5-0.5v-0.5c0-0.276,0.224-0.5,0.5-0.5s0.5,0.224,0.5,0.5V60
				C11.25,60.276,11.026,60.5,10.75,60.5z"/>
		</g>
		<g>
			<path class="st0" d="M47.5,62.5c-0.276,0-0.5-0.224-0.5-0.5v-6c0-0.276,0.224-0.5,0.5-0.5S48,55.724,48,56v6
				C48,62.276,47.776,62.5,47.5,62.5z"/>
		</g>
		<g>
			<path class="st0" d="M43.75,58c-0.276,0-0.5-0.224-0.5-0.5v-4c0-0.276,0.224-0.5,0.5-0.5s0.5,0.224,0.5,0.5v4
				C44.25,57.776,44.026,58,43.75,58z"/>
		</g>
		<g>
			<path class="st0" d="M51.25,58c-0.276,0-0.5-0.224-0.5-0.5v-4c0-0.276,0.224-0.5,0.5-0.5s0.5,0.224,0.5,0.5v4
				C51.75,57.776,51.526,58,51.25,58z"/>
		</g>
		<g>
			<path class="st0" d="M51.25,60.5c-0.276,0-0.5-0.224-0.5-0.5v-0.5c0-0.276,0.224-0.5,0.5-0.5s0.5,0.224,0.5,0.5V60
				C51.75,60.276,51.526,60.5,51.25,60.5z"/>
		</g>
		<g>
			<path class="st0" d="M43.75,60.5c-0.276,0-0.5-0.224-0.5-0.5v-0.5c0-0.276,0.224-0.5,0.5-0.5s0.5,0.224,0.5,0.5V60
				C44.25,60.276,44.026,60.5,43.75,60.5z"/>
		</g>
	</g>
</g>
</svg>
