<?xml version="1.0" encoding="utf-8"?>
<!-- Generator: Adobe Illustrator 22.0.0, SVG Export Plug-In . SVG Version: 6.00 Build 0)  -->
<svg version="1.1" id="Icon_Set" xmlns="http://www.w3.org/2000/svg" xmlns:xlink="http://www.w3.org/1999/xlink" x="0px" y="0px"
	 viewBox="0 0 64 64" style="enable-background:new 0 0 64 64;" xml:space="preserve">
<style type="text/css">
	.st0{fill:#263238;}
	.st1{fill:#FFD740;}
	.st2{fill:#4FC3F7;}
	.st3{fill:#40C4FF;}
	.st4{fill:#FF5252;}
	.st5{fill:#FFFFFF;}
	.st6{fill:#212A41;}
	.st7{fill:#37474F;}
	.st8{fill:#4DB6AC;}
</style>
<g>
	<g>
		<path class="st0" d="M21.974,9.5h-4c-0.276,0-0.5-0.224-0.5-0.5s0.224-0.5,0.5-0.5h4c0.276,0,0.5,0.224,0.5,0.5
			S22.25,9.5,21.974,9.5z"/>
	</g>
	<g>
		<path class="st0" d="M19.974,11.5c-0.276,0-0.5-0.224-0.5-0.5V7c0-0.276,0.224-0.5,0.5-0.5s0.5,0.224,0.5,0.5v4
			C20.474,11.276,20.25,11.5,19.974,11.5z"/>
	</g>
	<g>
		<path class="st0" d="M15.474,16h-4c-0.276,0-0.5-0.224-0.5-0.5s0.224-0.5,0.5-0.5h4c0.276,0,0.5,0.224,0.5,0.5S15.75,16,15.474,16
			z"/>
	</g>
	<g>
		<path class="st0" d="M13.474,18c-0.276,0-0.5-0.224-0.5-0.5v-4c0-0.276,0.224-0.5,0.5-0.5s0.5,0.224,0.5,0.5v4
			C13.974,17.776,13.75,18,13.474,18z"/>
	</g>
	<g>
		<path class="st0" d="M61.5,48.227h-1c-0.276,0-0.5-0.224-0.5-0.5s0.224-0.5,0.5-0.5h1c0.276,0,0.5,0.224,0.5,0.5
			S61.776,48.227,61.5,48.227z"/>
	</g>
	<g>
		<path class="st0" d="M58.5,48.227h-7c-0.276,0-0.5-0.224-0.5-0.5s0.224-0.5,0.5-0.5h7c0.276,0,0.5,0.224,0.5,0.5
			S58.776,48.227,58.5,48.227z"/>
	</g>
	<g>
		<path class="st0" d="M3.5,48.227h-1c-0.276,0-0.5-0.224-0.5-0.5s0.224-0.5,0.5-0.5h1c0.276,0,0.5,0.224,0.5,0.5
			S3.776,48.227,3.5,48.227z"/>
	</g>
	<g>
		<path class="st0" d="M12.5,48.227h-7c-0.276,0-0.5-0.224-0.5-0.5s0.224-0.5,0.5-0.5h7c0.276,0,0.5,0.224,0.5,0.5
			S12.776,48.227,12.5,48.227z"/>
	</g>
	<g>
		<path class="st0" d="M32,57.5c-8.935,0-18.5-7.835-18.5-19.5c0-10.898,9.146-25.5,18.5-25.5S50.5,27.102,50.5,38
			C50.5,49.665,40.935,57.5,32,57.5z M32,13.5c-7.479,0-17.5,12.113-17.5,24.5c0,8.75,7.187,18.5,17.5,18.5S49.5,46.75,49.5,38
			C49.5,25.613,39.479,13.5,32,13.5z"/>
	</g>
	<g>
		<circle class="st1" cx="32" cy="38" r="12"/>
		<path class="st0" d="M32,50.5c-6.893,0-12.5-5.607-12.5-12.5S25.107,25.5,32,25.5S44.5,31.107,44.5,38S38.893,50.5,32,50.5z
			 M32,26.5c-6.341,0-11.5,5.159-11.5,11.5S25.659,49.5,32,49.5S43.5,44.341,43.5,38S38.341,26.5,32,26.5z"/>
	</g>
	<g>
		<path class="st0" d="M36,42.5h-8c-0.276,0-0.5-0.224-0.5-0.5v-8c0-0.276,0.224-0.5,0.5-0.5h8c0.276,0,0.5,0.224,0.5,0.5v8
			C36.5,42.276,36.276,42.5,36,42.5z M28.5,41.5h7v-7h-7V41.5z"/>
	</g>
	<g>
		<path class="st0" d="M29.974,32.5c-0.276,0-0.5-0.224-0.5-0.5v-2c0-0.276,0.224-0.5,0.5-0.5s0.5,0.224,0.5,0.5v2
			C30.474,32.276,30.25,32.5,29.974,32.5z"/>
	</g>
	<g>
		<path class="st0" d="M33.974,32.5c-0.276,0-0.5-0.224-0.5-0.5v-2c0-0.276,0.224-0.5,0.5-0.5s0.5,0.224,0.5,0.5v2
			C34.474,32.276,34.25,32.5,33.974,32.5z"/>
	</g>
	<g>
		<path class="st0" d="M29.974,46.5c-0.276,0-0.5-0.224-0.5-0.5v-2c0-0.276,0.224-0.5,0.5-0.5s0.5,0.224,0.5,0.5v2
			C30.474,46.276,30.25,46.5,29.974,46.5z"/>
	</g>
	<g>
		<path class="st0" d="M33.974,46.5c-0.276,0-0.5-0.224-0.5-0.5v-2c0-0.276,0.224-0.5,0.5-0.5s0.5,0.224,0.5,0.5v2
			C34.474,46.276,34.25,46.5,33.974,46.5z"/>
	</g>
	<g>
		<path class="st0" d="M39.974,36.5h-2c-0.276,0-0.5-0.224-0.5-0.5s0.224-0.5,0.5-0.5h2c0.276,0,0.5,0.224,0.5,0.5
			S40.25,36.5,39.974,36.5z"/>
	</g>
	<g>
		<path class="st0" d="M39.974,40.5h-2c-0.276,0-0.5-0.224-0.5-0.5s0.224-0.5,0.5-0.5h2c0.276,0,0.5,0.224,0.5,0.5
			S40.25,40.5,39.974,40.5z"/>
	</g>
	<g>
		<path class="st0" d="M25.974,36.5h-2c-0.276,0-0.5-0.224-0.5-0.5s0.224-0.5,0.5-0.5h2c0.276,0,0.5,0.224,0.5,0.5
			S26.25,36.5,25.974,36.5z"/>
	</g>
	<g>
		<path class="st0" d="M25.974,40.5h-2c-0.276,0-0.5-0.224-0.5-0.5s0.224-0.5,0.5-0.5h2c0.276,0,0.5,0.224,0.5,0.5
			S26.25,40.5,25.974,40.5z"/>
	</g>
</g>
</svg>
