<?xml version="1.0" encoding="utf-8"?>
<!-- Generator: Adobe Illustrator 22.0.0, SVG Export Plug-In . SVG Version: 6.00 Build 0)  -->
<svg version="1.1" id="Icon_Set" xmlns="http://www.w3.org/2000/svg" xmlns:xlink="http://www.w3.org/1999/xlink" x="0px" y="0px"
	 viewBox="0 0 64 64" style="enable-background:new 0 0 64 64;" xml:space="preserve">
<style type="text/css">
	.st0{fill:#263238;}
	.st1{fill:#FFD740;}
	.st2{fill:#4FC3F7;}
	.st3{fill:#40C4FF;}
	.st4{fill:#FF5252;}
	.st5{fill:#FFFFFF;}
	.st6{fill:#212A41;}
	.st7{fill:#37474F;}
	.st8{fill:#4DB6AC;}
</style>
<g>
	<g>
		<rect x="11" y="22" transform="matrix(6.123234e-17 -1 1 6.123234e-17 -6.9994 57.0002)" class="st1" width="28" height="20"/>
	</g>
	<g>
		<path class="st0" d="M61.5,45.75c-0.276,0-0.5-0.224-0.5-0.5c0-2.206-1.794-4-4-4H37.5c-0.276,0-0.5-0.224-0.5-0.5v-36
			c0-0.276,0.224-0.5,0.5-0.5H57c2.757,0,5,2.243,5,5v36C62,45.526,61.776,45.75,61.5,45.75z M38,40.25h19
			c1.634,0,3.087,0.788,4,2.003V9.25c0-2.206-1.794-4-4-4H38V40.25z"/>
	</g>
	<g>
		<path class="st0" d="M35.001,59.75H15.5c-2.757,0-5-2.243-5-5c0-0.276,0.224-0.5,0.5-0.5s0.5,0.224,0.5,0.5c0,2.206,1.794,4,4,4
			h19v-6.5c0-0.276,0.224-0.5,0.5-0.5s0.5,0.224,0.5,0.5v7C35.501,59.526,35.277,59.75,35.001,59.75z"/>
	</g>
	<g>
		<path class="st0" d="M11,55.25c-0.276,0-0.5-0.224-0.5-0.5v-36c0-2.757,2.243-5,5-5h19.5c0.276,0,0.5,0.224,0.5,0.5
			s-0.224,0.5-0.5,0.5H15.5c-2.206,0-4,1.794-4,4v33.003c0.913-1.215,2.366-2.003,4-2.003h41.025c2.389,0,4.354-1.878,4.476-4.275
			C61.015,45.2,61.216,44.99,61.525,45c0.275,0.014,0.488,0.249,0.474,0.524c-0.146,2.93-2.552,5.225-5.474,5.225H15.5
			c-2.206,0-4,1.794-4,4C11.5,55.026,11.277,55.25,11,55.25z"/>
	</g>
	<g>
		<path class="st0" d="M15,46.5c-0.276,0-0.5-0.224-0.5-0.5v-4c0-0.276,0.224-0.5,0.5-0.5h3.5V38c0-0.276,0.224-0.5,0.5-0.5h3.5V34
			c0-0.276,0.224-0.5,0.5-0.5h3.5V30c0-0.276,0.224-0.5,0.5-0.5h3.5V26c0-0.276,0.224-0.5,0.5-0.5h4c0.276,0,0.5,0.224,0.5,0.5
			s-0.224,0.5-0.5,0.5h-3.5V30c0,0.276-0.224,0.5-0.5,0.5h-3.5V34c0,0.276-0.224,0.5-0.5,0.5h-3.5V38c0,0.276-0.224,0.5-0.5,0.5
			h-3.5V42c0,0.276-0.224,0.5-0.5,0.5h-3.5V46C15.5,46.276,15.277,46.5,15,46.5z"/>
	</g>
	<g>
		<path class="st0" d="M15,38.5c-0.276,0-0.5-0.224-0.5-0.5v-4c0-0.276,0.224-0.5,0.5-0.5h3.5V30c0-0.276,0.224-0.5,0.5-0.5h3.5V26
			c0-0.276,0.224-0.5,0.5-0.5h3.5V22c0-0.276,0.224-0.5,0.5-0.5h3.5V18c0-0.276,0.224-0.5,0.5-0.5h4c0.276,0,0.5,0.224,0.5,0.5
			s-0.224,0.5-0.5,0.5h-3.5V22c0,0.276-0.224,0.5-0.5,0.5h-3.5V26c0,0.276-0.224,0.5-0.5,0.5h-3.5V30c0,0.276-0.224,0.5-0.5,0.5
			h-3.5V34c0,0.276-0.224,0.5-0.5,0.5h-3.5V38C15.5,38.276,15.277,38.5,15,38.5z"/>
	</g>
	<g>
		<path class="st0" d="M15,30.5c-0.276,0-0.5-0.224-0.5-0.5v-4c0-0.276,0.224-0.5,0.5-0.5h3.5V22c0-0.276,0.224-0.5,0.5-0.5h3.5V18
			c0-0.276,0.224-0.5,0.5-0.5h4c0.276,0,0.5,0.224,0.5,0.5s-0.224,0.5-0.5,0.5h-3.5V22c0,0.276-0.224,0.5-0.5,0.5h-3.5V26
			c0,0.276-0.224,0.5-0.5,0.5h-3.5V30C15.5,30.276,15.277,30.5,15,30.5z"/>
	</g>
	<g>
		<path class="st0" d="M15,22.5c-0.276,0-0.5-0.224-0.5-0.5v-4c0-0.276,0.224-0.5,0.5-0.5h4c0.276,0,0.5,0.224,0.5,0.5
			s-0.224,0.5-0.5,0.5h-3.5V22C15.5,22.276,15.277,22.5,15,22.5z"/>
	</g>
	<g>
		<path class="st0" d="M31,46.5c-0.276,0-0.5-0.224-0.5-0.5v-4c0-0.276,0.224-0.5,0.5-0.5h4c0.276,0,0.5,0.224,0.5,0.5
			s-0.224,0.5-0.5,0.5h-3.5V46C31.5,46.276,31.277,46.5,31,46.5z"/>
	</g>
	<g>
		<path class="st0" d="M23,46.5c-0.276,0-0.5-0.224-0.5-0.5v-4c0-0.276,0.224-0.5,0.5-0.5h3.5V38c0-0.276,0.224-0.5,0.5-0.5h3.5V34
			c0-0.276,0.224-0.5,0.5-0.5h4c0.276,0,0.5,0.224,0.5,0.5s-0.224,0.5-0.5,0.5h-3.5V38c0,0.276-0.224,0.5-0.5,0.5h-3.5V42
			c0,0.276-0.224,0.5-0.5,0.5h-3.5V46C23.5,46.276,23.277,46.5,23,46.5z"/>
	</g>
	<g>
		<path class="st0" d="M40.5,37.25c-0.276,0-0.5-0.224-0.5-0.5v-4c0-0.276,0.224-0.5,0.5-0.5H44v-3.5c0-0.276,0.224-0.5,0.5-0.5H48
			v-3.5c0-0.276,0.224-0.5,0.5-0.5H52v-3.5c0-0.276,0.224-0.5,0.5-0.5H56v-3.5c0-0.276,0.224-0.5,0.5-0.5h4
			c0.276,0,0.5,0.224,0.5,0.5s-0.224,0.5-0.5,0.5H57v3.5c0,0.276-0.224,0.5-0.5,0.5H53v3.5c0,0.276-0.224,0.5-0.5,0.5H49v3.5
			c0,0.276-0.224,0.5-0.5,0.5H45v3.5c0,0.276-0.224,0.5-0.5,0.5H41v3.5C41,37.026,40.776,37.25,40.5,37.25z"/>
	</g>
	<g>
		<path class="st0" d="M40.5,29.25c-0.276,0-0.5-0.224-0.5-0.5v-4c0-0.276,0.224-0.5,0.5-0.5H44v-3.5c0-0.276,0.224-0.5,0.5-0.5H48
			v-3.5c0-0.276,0.224-0.5,0.5-0.5H52v-3.5c0-0.276,0.224-0.5,0.5-0.5H56v-3.5c0-0.276,0.224-0.5,0.5-0.5h4
			c0.276,0,0.5,0.224,0.5,0.5s-0.224,0.5-0.5,0.5H57v3.5c0,0.276-0.224,0.5-0.5,0.5H53v3.5c0,0.276-0.224,0.5-0.5,0.5H49v3.5
			c0,0.276-0.224,0.5-0.5,0.5H45v3.5c0,0.276-0.224,0.5-0.5,0.5H41v3.5C41,29.026,40.776,29.25,40.5,29.25z"/>
	</g>
	<g>
		<path class="st0" d="M40.5,21.25c-0.276,0-0.5-0.224-0.5-0.5v-4c0-0.276,0.224-0.5,0.5-0.5H44v-3.5c0-0.276,0.224-0.5,0.5-0.5H48
			v-3.5c0-0.276,0.224-0.5,0.5-0.5h4c0.276,0,0.5,0.224,0.5,0.5s-0.224,0.5-0.5,0.5H49v3.5c0,0.276-0.224,0.5-0.5,0.5H45v3.5
			c0,0.276-0.224,0.5-0.5,0.5H41v3.5C41,21.026,40.776,21.25,40.5,21.25z"/>
	</g>
	<g>
		<path class="st0" d="M40.5,13.25c-0.276,0-0.5-0.224-0.5-0.5v-4c0-0.276,0.224-0.5,0.5-0.5h4c0.276,0,0.5,0.224,0.5,0.5
			s-0.224,0.5-0.5,0.5H41v3.5C41,13.026,40.776,13.25,40.5,13.25z"/>
	</g>
	<g>
		<path class="st0" d="M56.5,37.25c-0.276,0-0.5-0.224-0.5-0.5v-4c0-0.276,0.224-0.5,0.5-0.5h4c0.276,0,0.5,0.224,0.5,0.5
			s-0.224,0.5-0.5,0.5H57v3.5C57,37.026,56.776,37.25,56.5,37.25z"/>
	</g>
	<g>
		<path class="st0" d="M48.5,37.25c-0.276,0-0.5-0.224-0.5-0.5v-4c0-0.276,0.224-0.5,0.5-0.5H52v-3.5c0-0.276,0.224-0.5,0.5-0.5H56
			v-3.5c0-0.276,0.224-0.5,0.5-0.5h4c0.276,0,0.5,0.224,0.5,0.5s-0.224,0.5-0.5,0.5H57v3.5c0,0.276-0.224,0.5-0.5,0.5H53v3.5
			c0,0.276-0.224,0.5-0.5,0.5H49v3.5C49,37.026,48.776,37.25,48.5,37.25z"/>
	</g>
	<g>
		<path class="st0" d="M44,54.5h-1c-0.276,0-0.5-0.224-0.5-0.5s0.224-0.5,0.5-0.5h1c0.276,0,0.5,0.224,0.5,0.5S44.276,54.5,44,54.5z
			"/>
	</g>
	<g>
		<path class="st0" d="M56.5,54.5H46c-0.276,0-0.5-0.224-0.5-0.5s0.224-0.5,0.5-0.5h10.5c0.276,0,0.5,0.224,0.5,0.5
			S56.776,54.5,56.5,54.5z"/>
	</g>
	<g>
		<path class="st0" d="M29.5,10.5h-1c-0.276,0-0.5-0.224-0.5-0.5s0.224-0.5,0.5-0.5h1c0.276,0,0.5,0.224,0.5,0.5
			S29.777,10.5,29.5,10.5z"/>
	</g>
	<g>
		<path class="st0" d="M26.5,10.5H16c-0.276,0-0.5-0.224-0.5-0.5s0.224-0.5,0.5-0.5h10.5c0.276,0,0.5,0.224,0.5,0.5
			S26.777,10.5,26.5,10.5z"/>
	</g>
	<g>
		<path class="st0" d="M9,9.25c-0.276,0-0.5-0.224-0.5-0.5v-4c0-0.276,0.224-0.5,0.5-0.5s0.5,0.224,0.5,0.5v4
			C9.5,9.026,9.277,9.25,9,9.25z"/>
	</g>
	<g>
		<path class="st0" d="M4.5,16.75c-0.276,0-0.5-0.224-0.5-0.5v-4c0-0.276,0.224-0.5,0.5-0.5S5,11.974,5,12.25v4
			C5,16.526,4.777,16.75,4.5,16.75z"/>
	</g>
	<g>
		<path class="st0" d="M6.5,14.75h-4c-0.276,0-0.5-0.224-0.5-0.5s0.224-0.5,0.5-0.5h4c0.276,0,0.5,0.224,0.5,0.5
			S6.777,14.75,6.5,14.75z"/>
	</g>
	<g>
		<path class="st0" d="M11,7.25H7c-0.276,0-0.5-0.224-0.5-0.5s0.224-0.5,0.5-0.5h4c0.276,0,0.5,0.224,0.5,0.5S11.277,7.25,11,7.25z"
			/>
	</g>
</g>
</svg>
