<?xml version="1.0" encoding="utf-8"?>
<!-- Generator: Adobe Illustrator 22.0.0, SVG Export Plug-In . SVG Version: 6.00 Build 0)  -->
<svg version="1.1" id="Icon_Set" xmlns="http://www.w3.org/2000/svg" xmlns:xlink="http://www.w3.org/1999/xlink" x="0px" y="0px"
	 viewBox="0 0 64 64" style="enable-background:new 0 0 64 64;" xml:space="preserve">
<style type="text/css">
	.st0{fill:#263238;}
	.st1{fill:#FFD740;}
	.st2{fill:#4FC3F7;}
	.st3{fill:#40C4FF;}
	.st4{fill:#FF5252;}
	.st5{fill:#FFFFFF;}
	.st6{fill:#212A41;}
	.st7{fill:#37474F;}
	.st8{fill:#4DB6AC;}
</style>
<g>
	<g>
		<path class="st2" d="M49.508,29.5c0-1.381,1.119-2.5,2.5-2.5c1.381,0,2.5,1.119,2.5,2.5c1.381,0,2.5,1.119,2.5,2.5
			c0,1.381-1.119,2.5-2.5,2.5h-5c-1.381,0-2.5-1.119-2.5-2.5C47.008,30.619,48.127,29.5,49.508,29.5z"/>
	</g>
	<g>
		<path class="st8" d="M6.004,46h30c0.552,0,1-0.448,1-1v-2c0-0.552-0.448-1-1-1h-30c-0.552,0-1,0.448-1,1v2
			C5.004,45.552,5.452,46,6.004,46z"/>
		<path class="st0" d="M36.004,46.5h-30c-0.827,0-1.5-0.673-1.5-1.5v-2c0-0.827,0.673-1.5,1.5-1.5h30c0.827,0,1.5,0.673,1.5,1.5v2
			C37.504,45.827,36.831,46.5,36.004,46.5z M6.004,42.5c-0.275,0-0.5,0.224-0.5,0.5v2c0,0.276,0.225,0.5,0.5,0.5h30
			c0.275,0,0.5-0.224,0.5-0.5v-2c0-0.276-0.225-0.5-0.5-0.5H6.004z"/>
	</g>
	<g>
		<path class="st0" d="M7,57.5H5c-0.276,0-0.5-0.224-0.5-0.5s0.224-0.5,0.5-0.5h2c0.276,0,0.5,0.224,0.5,0.5S7.276,57.5,7,57.5z"/>
	</g>
	<g>
		<path class="st0" d="M52,57.5H9c-0.276,0-0.5-0.224-0.5-0.5s0.224-0.5,0.5-0.5h43c0.276,0,0.5,0.224,0.5,0.5S52.276,57.5,52,57.5z
			"/>
	</g>
	<g>
		<path class="st0" d="M59,57.5h-3c-0.276,0-0.5-0.224-0.5-0.5s0.224-0.5,0.5-0.5h3c0.276,0,0.5,0.224,0.5,0.5S59.276,57.5,59,57.5z
			"/>
	</g>
	<g>
		<path class="st0" d="M56.5,9.5h-4C52.224,9.5,52,9.276,52,9s0.224-0.5,0.5-0.5h4C56.776,8.5,57,8.724,57,9S56.776,9.5,56.5,9.5z"
			/>
	</g>
	<g>
		<path class="st0" d="M54.5,11.5c-0.276,0-0.5-0.224-0.5-0.5V7c0-0.276,0.224-0.5,0.5-0.5S55,6.724,55,7v4
			C55,11.276,54.776,11.5,54.5,11.5z"/>
	</g>
	<g>
		<path class="st0" d="M49.5,14h-4c-0.276,0-0.5-0.224-0.5-0.5s0.224-0.5,0.5-0.5h4c0.276,0,0.5,0.224,0.5,0.5S49.776,14,49.5,14z"
			/>
	</g>
	<g>
		<path class="st0" d="M47.5,16c-0.276,0-0.5-0.224-0.5-0.5v-4c0-0.276,0.224-0.5,0.5-0.5s0.5,0.224,0.5,0.5v4
			C48,15.776,47.776,16,47.5,16z"/>
	</g>
	<g>
		<path class="st0" d="M12,42.5c-0.163,0-0.315-0.08-0.409-0.213C11.484,42.136,9,38.567,9,36.5s2.484-5.636,2.591-5.787
			c0.188-0.267,0.631-0.267,0.818,0C12.516,30.864,15,34.433,15,36.5s-2.484,5.636-2.591,5.787C12.315,42.42,12.163,42.5,12,42.5z
			 M12,31.902c-0.79,1.235-2,3.385-2,4.598s1.21,3.363,2,4.598c0.79-1.235,2-3.385,2-4.598S12.79,33.137,12,31.902z"/>
	</g>
	<g>
		<path class="st0" d="M30.5,42.5c-0.163,0-0.315-0.08-0.409-0.213c-0.106-0.151-2.591-3.72-2.591-5.787s2.484-5.636,2.591-5.787
			c0.188-0.267,0.631-0.267,0.818,0c0.106,0.151,2.591,3.72,2.591,5.787s-2.484,5.636-2.591,5.787
			C30.815,42.42,30.663,42.5,30.5,42.5z M30.5,31.902c-0.79,1.235-2,3.385-2,4.598s1.21,3.363,2,4.598c0.79-1.235,2-3.385,2-4.598
			S31.29,33.137,30.5,31.902z"/>
	</g>
	<g>
		<path class="st8" d="M6.004,26h30c0.552,0,1-0.448,1-1v-2c0-0.552-0.448-1-1-1h-30c-0.552,0-1,0.448-1,1v2
			C5.004,25.552,5.452,26,6.004,26z"/>
		<path class="st0" d="M36.004,26.5h-30c-0.827,0-1.5-0.673-1.5-1.5v-2c0-0.827,0.673-1.5,1.5-1.5h30c0.827,0,1.5,0.673,1.5,1.5v2
			C37.504,25.827,36.831,26.5,36.004,26.5z M6.004,22.5c-0.275,0-0.5,0.224-0.5,0.5v2c0,0.276,0.225,0.5,0.5,0.5h30
			c0.275,0,0.5-0.224,0.5-0.5v-2c0-0.276-0.225-0.5-0.5-0.5H6.004z"/>
	</g>
	<g>
		<g>
			<path class="st0" d="M23.004,57.5c-0.276,0-0.5-0.224-0.5-0.5v-9c0-0.276,0.224-0.5,0.5-0.5s0.5,0.224,0.5,0.5v9
				C23.504,57.276,23.28,57.5,23.004,57.5z"/>
		</g>
		<g>
			<path class="st0" d="M19.004,57.5c-0.276,0-0.5-0.224-0.5-0.5v-9c0-0.276,0.224-0.5,0.5-0.5s0.5,0.224,0.5,0.5v9
				C19.504,57.276,19.28,57.5,19.004,57.5z"/>
		</g>
		<g>
			<path class="st0" d="M23.004,40.5c-0.276,0-0.5-0.224-0.5-0.5V28c0-0.276,0.224-0.5,0.5-0.5s0.5,0.224,0.5,0.5v12
				C23.504,40.276,23.28,40.5,23.004,40.5z"/>
		</g>
		<g>
			<path class="st0" d="M19.004,40.5c-0.276,0-0.5-0.224-0.5-0.5V28c0-0.276,0.224-0.5,0.5-0.5s0.5,0.224,0.5,0.5v12
				C19.504,40.276,19.28,40.5,19.004,40.5z"/>
		</g>
		<g>
			<path class="st0" d="M23.004,20.5c-0.276,0-0.5-0.224-0.5-0.5V7.5h-3V20c0,0.276-0.224,0.5-0.5,0.5s-0.5-0.224-0.5-0.5V7
				c0-0.276,0.224-0.5,0.5-0.5h4c0.276,0,0.5,0.224,0.5,0.5v13C23.504,20.276,23.28,20.5,23.004,20.5z"/>
		</g>
	</g>
	<g>
		<path class="st0" d="M12,22.5c-0.163,0-0.315-0.08-0.409-0.213C11.484,22.136,9,18.567,9,16.5s2.484-5.636,2.591-5.787
			c0.188-0.267,0.631-0.267,0.818,0C12.516,10.864,15,14.433,15,16.5s-2.484,5.636-2.591,5.787C12.315,22.42,12.163,22.5,12,22.5z
			 M12,11.902c-0.79,1.235-2,3.385-2,4.598s1.21,3.363,2,4.598c0.79-1.235,2-3.385,2-4.598S12.79,13.137,12,11.902z"/>
	</g>
	<g>
		<path class="st0" d="M30.5,22.5c-0.163,0-0.315-0.08-0.409-0.213c-0.106-0.151-2.591-3.72-2.591-5.787s2.484-5.636,2.591-5.787
			c0.188-0.267,0.631-0.267,0.818,0c0.106,0.151,2.591,3.72,2.591,5.787s-2.484,5.636-2.591,5.787
			C30.815,22.42,30.663,22.5,30.5,22.5z M30.5,11.902c-0.79,1.235-2,3.385-2,4.598s1.21,3.363,2,4.598c0.79-1.235,2-3.385,2-4.598
			S31.29,13.137,30.5,11.902z"/>
	</g>
</g>
</svg>
