<?xml version="1.0" encoding="utf-8"?>
<!-- Generator: Adobe Illustrator 22.0.0, SVG Export Plug-In . SVG Version: 6.00 Build 0)  -->
<svg version="1.1" id="Icon_Set" xmlns="http://www.w3.org/2000/svg" xmlns:xlink="http://www.w3.org/1999/xlink" x="0px" y="0px"
	 viewBox="0 0 64 64" style="enable-background:new 0 0 64 64;" xml:space="preserve">
<style type="text/css">
	.st0{fill:#263238;}
	.st1{fill:#FFD740;}
	.st2{fill:#4FC3F7;}
	.st3{fill:#40C4FF;}
	.st4{fill:#FF5252;}
	.st5{fill:#FFFFFF;}
	.st6{fill:#212A41;}
	.st7{fill:#37474F;}
	.st8{fill:#4DB6AC;}
</style>
<g>
	<g>
		<path class="st0" d="M12,32.499H4c-0.276,0-0.5-0.224-0.5-0.5s0.224-0.5,0.5-0.5h8c0.276,0,0.5,0.224,0.5,0.5
			S12.276,32.499,12,32.499z"/>
	</g>
	<g>
		<path class="st0" d="M60,32.499h-8c-0.276,0-0.5-0.224-0.5-0.5s0.224-0.5,0.5-0.5h8c0.276,0,0.5,0.224,0.5,0.5
			S60.276,32.499,60,32.499z"/>
	</g>
	<g>
		<path class="st0" d="M42,49.499H22c-0.177,0-0.341-0.094-0.431-0.246l-10-17c-0.092-0.157-0.092-0.351,0-0.508l10-17
			c0.09-0.152,0.254-0.246,0.431-0.246h20c0.177,0,0.341,0.094,0.431,0.246l10,17c0.093,0.157,0.093,0.351,0,0.508l-10,17
			C42.341,49.405,42.177,49.499,42,49.499z M22.286,48.499h19.428l9.706-16.5l-9.706-16.5H22.286l-9.706,16.5L22.286,48.499z"/>
	</g>
	<g>
		<path class="st0" d="M37,40.999H27c-0.177,0-0.341-0.094-0.431-0.246l-5-8.5c-0.092-0.157-0.092-0.351,0-0.508l5-8.5
			c0.09-0.152,0.254-0.246,0.431-0.246h10c0.177,0,0.341,0.094,0.431,0.246l5,8.5c0.093,0.157,0.093,0.351,0,0.508l-5,8.5
			C37.341,40.905,37.177,40.999,37,40.999z M27.286,39.999h9.428l4.706-8l-4.706-8h-9.428l-4.706,8L27.286,39.999z"/>
	</g>
	<g>
		<path class="st0" d="M17.294,57.499c-0.086,0-0.173-0.022-0.253-0.069c-0.238-0.14-0.317-0.446-0.178-0.685l4.706-8
			c0.141-0.237,0.447-0.317,0.685-0.177c0.238,0.14,0.317,0.446,0.178,0.685l-4.706,8C17.632,57.411,17.465,57.499,17.294,57.499z"
			/>
	</g>
	<g>
		<path class="st0" d="M46.707,57.501c-0.171,0-0.338-0.088-0.431-0.246l-4.707-8.002c-0.141-0.238-0.061-0.545,0.177-0.685
			c0.237-0.141,0.545-0.062,0.685,0.177l4.707,8.002c0.141,0.238,0.061,0.545-0.177,0.685
			C46.881,57.479,46.794,57.501,46.707,57.501z"/>
	</g>
	<g>
		<path class="st0" d="M42.001,15.501c-0.087,0-0.174-0.022-0.254-0.069c-0.237-0.14-0.317-0.446-0.177-0.685l4.706-8
			c0.14-0.238,0.447-0.315,0.685-0.177c0.237,0.14,0.317,0.446,0.177,0.685l-4.706,8C42.339,15.413,42.172,15.501,42.001,15.501z"/>
	</g>
	<g>
		<path class="st0" d="M22.002,15.501c-0.171,0-0.338-0.088-0.432-0.246l-4.707-8.002c-0.14-0.238-0.061-0.545,0.178-0.685
			c0.239-0.14,0.544-0.062,0.685,0.177l4.707,8.002c0.14,0.238,0.061,0.545-0.178,0.685C22.175,15.479,22.088,15.501,22.002,15.501z
			"/>
	</g>
	<g>
		<circle class="st1" cx="12" cy="31.999" r="3"/>
		<path class="st0" d="M12,35.499c-1.93,0-3.5-1.57-3.5-3.5s1.57-3.5,3.5-3.5s3.5,1.57,3.5,3.5S13.93,35.499,12,35.499z M12,29.499
			c-1.378,0-2.5,1.121-2.5,2.5s1.122,2.5,2.5,2.5s2.5-1.121,2.5-2.5S13.378,29.499,12,29.499z"/>
	</g>
	<g>
		<circle class="st1" cx="52" cy="31.999" r="3"/>
		<path class="st0" d="M52,35.499c-1.93,0-3.5-1.57-3.5-3.5s1.57-3.5,3.5-3.5s3.5,1.57,3.5,3.5S53.93,35.499,52,35.499z M52,29.499
			c-1.379,0-2.5,1.121-2.5,2.5s1.121,2.5,2.5,2.5s2.5-1.121,2.5-2.5S53.379,29.499,52,29.499z"/>
	</g>
	<g>
		<circle class="st1" cx="22" cy="14.999" r="3"/>
		<path class="st0" d="M22,18.499c-1.93,0-3.5-1.57-3.5-3.5s1.57-3.5,3.5-3.5s3.5,1.57,3.5,3.5S23.93,18.499,22,18.499z M22,12.499
			c-1.378,0-2.5,1.121-2.5,2.5s1.122,2.5,2.5,2.5s2.5-1.121,2.5-2.5S23.378,12.499,22,12.499z"/>
	</g>
	<g>
		<circle class="st1" cx="42" cy="14.999" r="3"/>
		<path class="st0" d="M42,18.499c-1.93,0-3.5-1.57-3.5-3.5s1.57-3.5,3.5-3.5s3.5,1.57,3.5,3.5S43.93,18.499,42,18.499z M42,12.499
			c-1.379,0-2.5,1.121-2.5,2.5s1.121,2.5,2.5,2.5s2.5-1.121,2.5-2.5S43.379,12.499,42,12.499z"/>
	</g>
	<g>
		<circle class="st1" cx="22" cy="48.999" r="3"/>
		<path class="st0" d="M22,52.499c-1.93,0-3.5-1.57-3.5-3.5s1.57-3.5,3.5-3.5s3.5,1.57,3.5,3.5S23.93,52.499,22,52.499z M22,46.499
			c-1.378,0-2.5,1.121-2.5,2.5s1.122,2.5,2.5,2.5s2.5-1.121,2.5-2.5S23.378,46.499,22,46.499z"/>
	</g>
	<g>
		<circle class="st1" cx="42" cy="48.999" r="3"/>
		<path class="st0" d="M42,52.499c-1.93,0-3.5-1.57-3.5-3.5s1.57-3.5,3.5-3.5s3.5,1.57,3.5,3.5S43.93,52.499,42,52.499z M42,46.499
			c-1.379,0-2.5,1.121-2.5,2.5s1.121,2.5,2.5,2.5s2.5-1.121,2.5-2.5S43.379,46.499,42,46.499z"/>
	</g>
</g>
</svg>
