<?xml version="1.0" encoding="utf-8"?>
<!-- Generator: Adobe Illustrator 22.0.0, SVG Export Plug-In . SVG Version: 6.00 Build 0)  -->
<svg version="1.1" id="Icon_Set" xmlns="http://www.w3.org/2000/svg" xmlns:xlink="http://www.w3.org/1999/xlink" x="0px" y="0px"
	 viewBox="0 0 64 64" style="enable-background:new 0 0 64 64;" xml:space="preserve">
<style type="text/css">
	.st0{fill:#263238;}
	.st1{fill:#FFD740;}
	.st2{fill:#4FC3F7;}
	.st3{fill:#40C4FF;}
	.st4{fill:#FF5252;}
	.st5{fill:#FFFFFF;}
	.st6{fill:#212A41;}
	.st7{fill:#37474F;}
	.st8{fill:#4DB6AC;}
</style>
<g>
	<g>
		<path class="st1" d="M52.822,31.034c-0.013-0.012-0.027-0.022-0.04-0.034H0.5v8h60.857L52.822,31.034z"/>
	</g>
	<g>
		<path class="st0" d="M3.5,58.5h-3C0.224,58.5,0,58.276,0,58s0.224-0.5,0.5-0.5h3C3.776,57.5,4,57.724,4,58S3.776,58.5,3.5,58.5z"
			/>
	</g>
	<g>
		<path class="st0" d="M63.5,58.5h-58C5.224,58.5,5,58.276,5,58s0.224-0.5,0.5-0.5h58c0.276,0,0.5,0.224,0.5,0.5
			S63.776,58.5,63.5,58.5z"/>
	</g>
	<g>
		<path class="st2" d="M7,9c0-1.657,1.343-3,3-3s3,1.343,3,3c1.657,0,3,1.343,3,3s-1.343,3-3,3H7c-1.657,0-3-1.343-3-3S5.343,9,7,9z
			"/>
	</g>
	<g>
		<path class="st0" d="M55,23.125h-4c-0.276,0-0.5-0.224-0.5-0.5s0.224-0.5,0.5-0.5h4c0.276,0,0.5,0.224,0.5,0.5
			S55.276,23.125,55,23.125z"/>
	</g>
	<g>
		<path class="st0" d="M53,25.125c-0.276,0-0.5-0.224-0.5-0.5v-4c0-0.276,0.224-0.5,0.5-0.5s0.5,0.224,0.5,0.5v4
			C53.5,24.901,53.276,25.125,53,25.125z"/>
	</g>
	<g>
		<path class="st0" d="M60.5,27.125h-4c-0.276,0-0.5-0.224-0.5-0.5s0.224-0.5,0.5-0.5h4c0.276,0,0.5,0.224,0.5,0.5
			S60.776,27.125,60.5,27.125z"/>
	</g>
	<g>
		<path class="st0" d="M58.5,29.125c-0.276,0-0.5-0.224-0.5-0.5v-4c0-0.276,0.224-0.5,0.5-0.5s0.5,0.224,0.5,0.5v4
			C59,28.901,58.776,29.125,58.5,29.125z"/>
	</g>
	<g>
		<path class="st0" d="M58.5,51.5h-58C0.224,51.5,0,51.276,0,51s0.224-0.5,0.5-0.5h58c2.481,0,4.5-2.019,4.5-4.5v-2.827
			c0-1.243-0.521-2.442-1.43-3.29L52.481,31.4c-2.694-2.515-6.208-3.9-9.894-3.9H0.5C0.224,27.5,0,27.276,0,27s0.224-0.5,0.5-0.5
			h42.087c3.94,0,7.696,1.48,10.576,4.168l9.089,8.483C63.363,40.188,64,41.654,64,43.173V46C64,49.033,61.533,51.5,58.5,51.5z"/>
	</g>
	<g>
		<path class="st5" d="M52.822,31.034c-0.013-0.012-0.027-0.022-0.04-0.034H0.5"/>
		<path class="st0" d="M52.796,31.526c-0.051,0-0.103-0.009-0.152-0.026H0.5C0.224,31.5,0,31.276,0,31s0.224-0.5,0.5-0.5h52.282
			c0.129,0,0.253,0.05,0.347,0.14c0.199,0.191,0.225,0.525,0.034,0.724C53.061,31.47,52.928,31.526,52.796,31.526z"/>
	</g>
	<g>
		<path class="st0" d="M61.357,39.5H0.5C0.224,39.5,0,39.276,0,39s0.224-0.5,0.5-0.5h60.857c0.276,0,0.5,0.224,0.5,0.5
			S61.634,39.5,61.357,39.5z"/>
	</g>
	<g>
		<line class="st5" x1="53.746" y1="36" x2="51.604" y2="34"/>
		<path class="st0" d="M53.746,36.5c-0.123,0-0.245-0.044-0.341-0.134l-2.143-2c-0.202-0.188-0.212-0.505-0.024-0.707
			c0.188-0.202,0.505-0.212,0.707-0.024l2.143,2c0.202,0.188,0.212,0.505,0.024,0.707C54.013,36.447,53.88,36.5,53.746,36.5z"/>
	</g>
	<g>
		<path class="st0" d="M63.5,53.5h-6c-0.276,0-0.5-0.224-0.5-0.5s0.224-0.5,0.5-0.5h6c0.276,0,0.5,0.224,0.5,0.5
			S63.776,53.5,63.5,53.5z"/>
	</g>
	<g>
		<path class="st0" d="M24.5,21.5h-2c-0.276,0-0.5-0.224-0.5-0.5s0.224-0.5,0.5-0.5h2c0.276,0,0.5,0.224,0.5,0.5
			S24.776,21.5,24.5,21.5z"/>
	</g>
	<g>
		<path class="st0" d="M37.5,21.5h-11c-0.276,0-0.5-0.224-0.5-0.5s0.224-0.5,0.5-0.5h11c0.276,0,0.5,0.224,0.5,0.5
			S37.776,21.5,37.5,21.5z"/>
	</g>
	<g>
		<path class="st0" d="M42.5,18.5h-12c-0.276,0-0.5-0.224-0.5-0.5s0.224-0.5,0.5-0.5h12c0.276,0,0.5,0.224,0.5,0.5
			S42.776,18.5,42.5,18.5z"/>
	</g>
	<g>
		<path class="st0" d="M54.5,55.5h-54C0.224,55.5,0,55.276,0,55s0.224-0.5,0.5-0.5h53.691l1.5-3H0.5C0.224,51.5,0,51.276,0,51
			s0.224-0.5,0.5-0.5h56c0.173,0,0.334,0.09,0.425,0.237s0.1,0.332,0.022,0.486l-2,4C54.862,55.393,54.689,55.5,54.5,55.5z"/>
	</g>
	<g>
		<path class="st0" d="M40.5,39.5c-0.276,0-0.5-0.224-0.5-0.5v-8c0-0.276,0.224-0.5,0.5-0.5S41,30.724,41,31v8
			C41,39.276,40.776,39.5,40.5,39.5z"/>
	</g>
	<g>
		<path class="st0" d="M25.5,39.5c-0.276,0-0.5-0.224-0.5-0.5v-8c0-0.276,0.224-0.5,0.5-0.5S26,30.724,26,31v8
			C26,39.276,25.776,39.5,25.5,39.5z"/>
	</g>
	<g>
		<path class="st0" d="M10.5,39.5c-0.276,0-0.5-0.224-0.5-0.5v-8c0-0.276,0.224-0.5,0.5-0.5S11,30.724,11,31v8
			C11,39.276,10.776,39.5,10.5,39.5z"/>
	</g>
</g>
</svg>
