<?xml version="1.0" encoding="utf-8"?>
<!-- Generator: Adobe Illustrator 22.0.0, SVG Export Plug-In . SVG Version: 6.00 Build 0)  -->
<svg version="1.1" id="Icon_Set" xmlns="http://www.w3.org/2000/svg" xmlns:xlink="http://www.w3.org/1999/xlink" x="0px" y="0px"
	 viewBox="0 0 64 64" style="enable-background:new 0 0 64 64;" xml:space="preserve">
<style type="text/css">
	.st0{fill:#263238;}
	.st1{fill:#FFD740;}
	.st2{fill:#4FC3F7;}
	.st3{fill:#40C4FF;}
	.st4{fill:#FF5252;}
	.st5{fill:#FFFFFF;}
	.st6{fill:#212A41;}
	.st7{fill:#37474F;}
	.st8{fill:#4DB6AC;}
</style>
<g>
	<g>
		<rect x="26.696" y="20" class="st3" width="5" height="5"/>
		<path class="st0" d="M31.696,25.5h-5c-0.276,0-0.5-0.224-0.5-0.5v-5c0-0.276,0.224-0.5,0.5-0.5h5c0.276,0,0.5,0.224,0.5,0.5v5
			C32.196,25.276,31.972,25.5,31.696,25.5z M27.196,24.5h4v-4h-4V24.5z"/>
	</g>
	<g>
		<rect x="21.696" y="20" class="st3" width="5" height="5"/>
		<path class="st0" d="M26.696,25.5h-5c-0.276,0-0.5-0.224-0.5-0.5v-5c0-0.276,0.224-0.5,0.5-0.5h5c0.276,0,0.5,0.224,0.5,0.5v5
			C27.196,25.276,26.972,25.5,26.696,25.5z M22.196,24.5h4v-4h-4V24.5z"/>
	</g>
	<g>
		<path class="st0" d="M21.696,25.5h-5c-0.276,0-0.5-0.224-0.5-0.5v-5c0-0.276,0.224-0.5,0.5-0.5h5c0.276,0,0.5,0.224,0.5,0.5v5
			C22.196,25.276,21.972,25.5,21.696,25.5z M17.196,24.5h4v-4h-4V24.5z"/>
	</g>
	<g>
		<path class="st0" d="M16.696,25.5h-5c-0.276,0-0.5-0.224-0.5-0.5v-5c0-0.276,0.224-0.5,0.5-0.5h5c0.276,0,0.5,0.224,0.5,0.5v5
			C17.196,25.276,16.972,25.5,16.696,25.5z M12.196,24.5h4v-4h-4V24.5z"/>
	</g>
	<g>
		<path class="st0" d="M26.696,30.5h-5c-0.276,0-0.5-0.224-0.5-0.5v-5c0-0.276,0.224-0.5,0.5-0.5h5c0.276,0,0.5,0.224,0.5,0.5v5
			C27.196,30.276,26.972,30.5,26.696,30.5z M22.196,29.5h4v-4h-4V29.5z"/>
	</g>
	<g>
		<path class="st0" d="M21.696,30.5h-5c-0.276,0-0.5-0.224-0.5-0.5v-5c0-0.276,0.224-0.5,0.5-0.5h5c0.276,0,0.5,0.224,0.5,0.5v5
			C22.196,30.276,21.972,30.5,21.696,30.5z M17.196,29.5h4v-4h-4V29.5z"/>
	</g>
	<g>
		<rect x="31.696" y="20" class="st3" width="5" height="5"/>
		<path class="st0" d="M36.696,25.5h-5c-0.276,0-0.5-0.224-0.5-0.5v-5c0-0.276,0.224-0.5,0.5-0.5h5c0.276,0,0.5,0.224,0.5,0.5v5
			C37.196,25.276,36.972,25.5,36.696,25.5z M32.196,24.5h4v-4h-4V24.5z"/>
	</g>
	<g>
		<rect x="26.696" y="25" class="st3" width="5" height="5"/>
		<path class="st0" d="M31.696,30.5h-5c-0.276,0-0.5-0.224-0.5-0.5v-5c0-0.276,0.224-0.5,0.5-0.5h5c0.276,0,0.5,0.224,0.5,0.5v5
			C32.196,30.276,31.972,30.5,31.696,30.5z M27.196,29.5h4v-4h-4V29.5z"/>
	</g>
	<g>
		<rect x="31.696" y="25" class="st3" width="5" height="5"/>
		<path class="st0" d="M36.696,30.5h-5c-0.276,0-0.5-0.224-0.5-0.5v-5c0-0.276,0.224-0.5,0.5-0.5h5c0.276,0,0.5,0.224,0.5,0.5v5
			C37.196,30.276,36.972,30.5,36.696,30.5z M32.196,29.5h4v-4h-4V29.5z"/>
	</g>
	<g>
		<rect x="36.696" y="20" class="st3" width="5" height="5"/>
		<path class="st0" d="M41.696,25.5h-5c-0.276,0-0.5-0.224-0.5-0.5v-5c0-0.276,0.224-0.5,0.5-0.5h5c0.276,0,0.5,0.224,0.5,0.5v5
			C42.196,25.276,41.972,25.5,41.696,25.5z M37.196,24.5h4v-4h-4V24.5z"/>
	</g>
	<g>
		<path class="st0" d="M46.696,25.5h-5c-0.276,0-0.5-0.224-0.5-0.5v-5c0-0.276,0.224-0.5,0.5-0.5h5c0.276,0,0.5,0.224,0.5,0.5v5
			C47.196,25.276,46.972,25.5,46.696,25.5z M42.196,24.5h4v-4h-4V24.5z"/>
	</g>
	<g>
		<path class="st0" d="M51.696,25.5h-5c-0.276,0-0.5-0.224-0.5-0.5v-5c0-0.276,0.224-0.5,0.5-0.5h5c0.276,0,0.5,0.224,0.5,0.5v5
			C52.196,25.276,51.972,25.5,51.696,25.5z M47.196,24.5h4v-4h-4V24.5z"/>
	</g>
	<g>
		<rect x="26.696" y="15" class="st3" width="5" height="5"/>
		<path class="st0" d="M31.696,20.5h-5c-0.276,0-0.5-0.224-0.5-0.5v-5c0-0.276,0.224-0.5,0.5-0.5h5c0.276,0,0.5,0.224,0.5,0.5v5
			C32.196,20.276,31.972,20.5,31.696,20.5z M27.196,19.5h4v-4h-4V19.5z"/>
	</g>
	<g>
		<rect x="21.696" y="15" class="st3" width="5" height="5"/>
		<path class="st0" d="M26.696,20.5h-5c-0.276,0-0.5-0.224-0.5-0.5v-5c0-0.276,0.224-0.5,0.5-0.5h5c0.276,0,0.5,0.224,0.5,0.5v5
			C27.196,20.276,26.972,20.5,26.696,20.5z M22.196,19.5h4v-4h-4V19.5z"/>
	</g>
	<g>
		<path class="st0" d="M21.696,20.5h-5c-0.276,0-0.5-0.224-0.5-0.5v-5c0-0.276,0.224-0.5,0.5-0.5h5c0.276,0,0.5,0.224,0.5,0.5v5
			C22.196,20.276,21.972,20.5,21.696,20.5z M17.196,19.5h4v-4h-4V19.5z"/>
	</g>
	<g>
		<path class="st0" d="M16.696,20.5h-5c-0.276,0-0.5-0.224-0.5-0.5v-5c0-0.276,0.224-0.5,0.5-0.5h5c0.276,0,0.5,0.224,0.5,0.5v5
			C17.196,20.276,16.972,20.5,16.696,20.5z M12.196,19.5h4v-4h-4V19.5z"/>
	</g>
	<g>
		<rect x="31.696" y="15" class="st3" width="5" height="5"/>
		<path class="st0" d="M36.696,20.5h-5c-0.276,0-0.5-0.224-0.5-0.5v-5c0-0.276,0.224-0.5,0.5-0.5h5c0.276,0,0.5,0.224,0.5,0.5v5
			C37.196,20.276,36.972,20.5,36.696,20.5z M32.196,19.5h4v-4h-4V19.5z"/>
	</g>
	<g>
		<rect x="36.696" y="15" class="st3" width="5" height="5"/>
		<path class="st0" d="M41.696,20.5h-5c-0.276,0-0.5-0.224-0.5-0.5v-5c0-0.276,0.224-0.5,0.5-0.5h5c0.276,0,0.5,0.224,0.5,0.5v5
			C42.196,20.276,41.972,20.5,41.696,20.5z M37.196,19.5h4v-4h-4V19.5z"/>
	</g>
	<g>
		<path class="st0" d="M46.696,20.5h-5c-0.276,0-0.5-0.224-0.5-0.5v-5c0-0.276,0.224-0.5,0.5-0.5h5c0.276,0,0.5,0.224,0.5,0.5v5
			C47.196,20.276,46.972,20.5,46.696,20.5z M42.196,19.5h4v-4h-4V19.5z"/>
	</g>
	<g>
		<path class="st0" d="M51.696,20.5h-5c-0.276,0-0.5-0.224-0.5-0.5v-5c0-0.276,0.224-0.5,0.5-0.5h5c0.276,0,0.5,0.224,0.5,0.5v5
			C52.196,20.276,51.972,20.5,51.696,20.5z M47.196,19.5h4v-4h-4V19.5z"/>
	</g>
	<g>
		<path class="st0" d="M41.696,30.5h-5c-0.276,0-0.5-0.224-0.5-0.5v-5c0-0.276,0.224-0.5,0.5-0.5h5c0.276,0,0.5,0.224,0.5,0.5v5
			C42.196,30.276,41.972,30.5,41.696,30.5z M37.196,29.5h4v-4h-4V29.5z"/>
	</g>
	<g>
		<path class="st0" d="M46.696,30.5h-5c-0.276,0-0.5-0.224-0.5-0.5v-5c0-0.276,0.224-0.5,0.5-0.5h5c0.276,0,0.5,0.224,0.5,0.5v5
			C47.196,30.276,46.972,30.5,46.696,30.5z M42.196,29.5h4v-4h-4V29.5z"/>
	</g>
	<g>
		<path class="st0" d="M26.696,35.5h-5c-0.276,0-0.5-0.224-0.5-0.5v-5c0-0.276,0.224-0.5,0.5-0.5h5c0.276,0,0.5,0.224,0.5,0.5v5
			C27.196,35.276,26.972,35.5,26.696,35.5z M22.196,34.5h4v-4h-4V34.5z"/>
	</g>
	<g>
		<path class="st0" d="M31.696,35.5h-5c-0.276,0-0.5-0.224-0.5-0.5v-5c0-0.276,0.224-0.5,0.5-0.5h5c0.276,0,0.5,0.224,0.5,0.5v5
			C32.196,35.276,31.972,35.5,31.696,35.5z M27.196,34.5h4v-4h-4V34.5z"/>
	</g>
	<g>
		<path class="st0" d="M36.696,35.5h-5c-0.276,0-0.5-0.224-0.5-0.5v-5c0-0.276,0.224-0.5,0.5-0.5h5c0.276,0,0.5,0.224,0.5,0.5v5
			C37.196,35.276,36.972,35.5,36.696,35.5z M32.196,34.5h4v-4h-4V34.5z"/>
	</g>
	<g>
		<path class="st0" d="M31.696,40.5h-5c-0.276,0-0.5-0.224-0.5-0.5v-5c0-0.276,0.224-0.5,0.5-0.5h5c0.276,0,0.5,0.224,0.5,0.5v5
			C32.196,40.276,31.972,40.5,31.696,40.5z M27.196,39.5h4v-4h-4V39.5z"/>
	</g>
	<g>
		<path class="st0" d="M36.696,40.5h-5c-0.276,0-0.5-0.224-0.5-0.5v-5c0-0.276,0.224-0.5,0.5-0.5h5c0.276,0,0.5,0.224,0.5,0.5v5
			C37.196,40.276,36.972,40.5,36.696,40.5z M32.196,39.5h4v-4h-4V39.5z"/>
	</g>
	<g>
		<path class="st0" d="M41.696,35.5h-5c-0.276,0-0.5-0.224-0.5-0.5v-5c0-0.276,0.224-0.5,0.5-0.5h5c0.276,0,0.5,0.224,0.5,0.5v5
			C42.196,35.276,41.972,35.5,41.696,35.5z M37.196,34.5h4v-4h-4V34.5z"/>
	</g>
	<g>
		<rect x="36.696" y="10" transform="matrix(-1 -1.224647e-16 1.224647e-16 -1 78.3921 25)" class="st3" width="5" height="5"/>
		<path class="st0" d="M41.696,15.5h-5c-0.276,0-0.5-0.224-0.5-0.5v-5c0-0.276,0.224-0.5,0.5-0.5h5c0.276,0,0.5,0.224,0.5,0.5v5
			C42.196,15.276,41.972,15.5,41.696,15.5z M37.196,14.5h4v-4h-4V14.5z"/>
	</g>
	<g>
		<path class="st0" d="M46.696,15.5h-5c-0.276,0-0.5-0.224-0.5-0.5v-5c0-0.276,0.224-0.5,0.5-0.5h5c0.276,0,0.5,0.224,0.5,0.5v5
			C47.196,15.276,46.972,15.5,46.696,15.5z M42.196,14.5h4v-4h-4V14.5z"/>
	</g>
	<g>
		<path class="st0" d="M36.696,15.5h-5c-0.276,0-0.5-0.224-0.5-0.5v-5c0-0.276,0.224-0.5,0.5-0.5h5c0.276,0,0.5,0.224,0.5,0.5v5
			C37.196,15.276,36.972,15.5,36.696,15.5z M32.196,14.5h4v-4h-4V14.5z"/>
	</g>
	<g>
		<path class="st0" d="M31.696,15.5h-5c-0.276,0-0.5-0.224-0.5-0.5v-5c0-0.276,0.224-0.5,0.5-0.5h5c0.276,0,0.5,0.224,0.5,0.5v5
			C32.196,15.276,31.972,15.5,31.696,15.5z M27.196,14.5h4v-4h-4V14.5z"/>
	</g>
	<g>
		<rect x="21.696" y="10" transform="matrix(-1 -1.224647e-16 1.224647e-16 -1 48.3921 25)" class="st3" width="5" height="5"/>
		<path class="st0" d="M26.696,15.5h-5c-0.276,0-0.5-0.224-0.5-0.5v-5c0-0.276,0.224-0.5,0.5-0.5h5c0.276,0,0.5,0.224,0.5,0.5v5
			C27.196,15.276,26.972,15.5,26.696,15.5z M22.196,14.5h4v-4h-4V14.5z"/>
	</g>
	<g>
		<path class="st0" d="M21.696,15.5h-5c-0.276,0-0.5-0.224-0.5-0.5v-5c0-0.276,0.224-0.5,0.5-0.5h5c0.276,0,0.5,0.224,0.5,0.5v5
			C22.196,15.276,21.972,15.5,21.696,15.5z M17.196,14.5h4v-4h-4V14.5z"/>
	</g>
	<g>
		<path class="st0" d="M41.696,10.5h-5c-0.276,0-0.5-0.224-0.5-0.5V5c0-0.276,0.224-0.5,0.5-0.5h5c0.276,0,0.5,0.224,0.5,0.5v5
			C42.196,10.276,41.972,10.5,41.696,10.5z M37.196,9.5h4v-4h-4V9.5z"/>
	</g>
	<g>
		<path class="st0" d="M36.696,10.5h-5c-0.276,0-0.5-0.224-0.5-0.5V5c0-0.276,0.224-0.5,0.5-0.5h5c0.276,0,0.5,0.224,0.5,0.5v5
			C37.196,10.276,36.972,10.5,36.696,10.5z M32.196,9.5h4v-4h-4V9.5z"/>
	</g>
	<g>
		<path class="st0" d="M31.696,10.5h-5c-0.276,0-0.5-0.224-0.5-0.5V5c0-0.276,0.224-0.5,0.5-0.5h5c0.276,0,0.5,0.224,0.5,0.5v5
			C32.196,10.276,31.972,10.5,31.696,10.5z M27.196,9.5h4v-4h-4V9.5z"/>
	</g>
	<g>
		<path class="st0" d="M26.696,10.5h-5c-0.276,0-0.5-0.224-0.5-0.5V5c0-0.276,0.224-0.5,0.5-0.5h5c0.276,0,0.5,0.224,0.5,0.5v5
			C27.196,10.276,26.972,10.5,26.696,10.5z M22.196,9.5h4v-4h-4V9.5z"/>
	</g>
	<g>
		<path class="st0" d="M59.282,26.849c-0.128,0-0.256-0.049-0.354-0.146c-0.195-0.195-0.195-0.512,0-0.707l1.415-1.414
			c0.195-0.195,0.512-0.195,0.707,0s0.195,0.512,0,0.707l-1.415,1.414C59.538,26.8,59.41,26.849,59.282,26.849z"/>
	</g>
	<g>
		<path class="st0" d="M47.261,38.87c-0.128,0-0.256-0.049-0.354-0.146c-0.195-0.195-0.195-0.512,0-0.707L57.514,27.41
			c0.195-0.195,0.512-0.195,0.707,0s0.195,0.512,0,0.707L47.615,38.723C47.517,38.821,47.389,38.87,47.261,38.87z"/>
	</g>
	<g>
		<path class="st0" d="M4.11,26.849c-0.128,0-0.256-0.049-0.354-0.146l-1.414-1.414c-0.195-0.195-0.195-0.512,0-0.707
			s0.512-0.195,0.707,0l1.414,1.414c0.195,0.195,0.195,0.512,0,0.707C4.366,26.8,4.238,26.849,4.11,26.849z"/>
	</g>
	<g>
		<path class="st0" d="M16.131,38.87c-0.128,0-0.256-0.049-0.354-0.146L5.171,28.117c-0.195-0.195-0.195-0.512,0-0.707
			s0.512-0.195,0.707,0l10.606,10.606c0.195,0.195,0.195,0.512,0,0.707C16.387,38.821,16.259,38.87,16.131,38.87z"/>
	</g>
	<g>
		<rect x="21.696" y="49" class="st1" width="20" height="10"/>
		<path class="st0" d="M41.696,59.5h-20c-0.276,0-0.5-0.224-0.5-0.5V49c0-0.276,0.224-0.5,0.5-0.5h20c0.276,0,0.5,0.224,0.5,0.5v10
			C42.196,59.276,41.973,59.5,41.696,59.5z M22.196,58.5h19v-9h-19V58.5z"/>
	</g>
	<g>
		<path class="st0" d="M21.696,59.5c-0.067,0-0.134-0.013-0.197-0.041l-7-3C14.315,56.381,14.196,56.2,14.196,56v-4
			c0-0.2,0.119-0.381,0.303-0.459l7-3c0.154-0.066,0.332-0.05,0.472,0.042c0.14,0.093,0.225,0.25,0.225,0.417v10
			c0,0.168-0.084,0.325-0.225,0.417C21.889,59.472,21.792,59.5,21.696,59.5z M15.196,55.67l6,2.571v-8.483l-6,2.571V55.67z"/>
	</g>
	<g>
		<path class="st0" d="M41.696,59.5c-0.096,0-0.192-0.028-0.275-0.083c-0.14-0.093-0.225-0.25-0.225-0.417V49
			c0-0.168,0.084-0.325,0.225-0.417c0.141-0.093,0.318-0.109,0.472-0.042l7,3c0.184,0.079,0.303,0.259,0.303,0.459v4
			c0,0.2-0.119,0.381-0.303,0.459l-7,3C41.83,59.487,41.763,59.5,41.696,59.5z M42.196,49.758v8.483l6-2.571V52.33L42.196,49.758z"
			/>
	</g>
	<g>
		<path class="st0" d="M36.696,54.5h-10c-0.276,0-0.5-0.224-0.5-0.5s0.224-0.5,0.5-0.5h10c0.276,0,0.5,0.224,0.5,0.5
			S36.973,54.5,36.696,54.5z"/>
	</g>
</g>
</svg>
