<?xml version="1.0" encoding="utf-8"?>
<!-- Generator: Adobe Illustrator 22.0.0, SVG Export Plug-In . SVG Version: 6.00 Build 0)  -->
<svg version="1.1" id="Icon_Set" xmlns="http://www.w3.org/2000/svg" xmlns:xlink="http://www.w3.org/1999/xlink" x="0px" y="0px"
	 viewBox="0 0 64 64" style="enable-background:new 0 0 64 64;" xml:space="preserve">
<style type="text/css">
	.st0{fill:#263238;}
	.st1{fill:#FFD740;}
	.st2{fill:#4FC3F7;}
	.st3{fill:#40C4FF;}
	.st4{fill:#FF5252;}
	.st5{fill:#FFFFFF;}
	.st6{fill:#212A41;}
	.st7{fill:#37474F;}
	.st8{fill:#4DB6AC;}
</style>
<g>
	<g>
		<path class="st0" d="M45.354,27h-6c-0.276,0-0.5-0.224-0.5-0.5s0.224-0.5,0.5-0.5h6c0.276,0,0.5,0.224,0.5,0.5S45.63,27,45.354,27
			z"/>
	</g>
	<g>
		<path class="st0" d="M36.354,60.5c-0.276,0-0.5-0.224-0.5-0.5v-9c0-0.276,0.224-0.5,0.5-0.5s0.5,0.224,0.5,0.5v9
			C36.854,60.276,36.63,60.5,36.354,60.5z"/>
	</g>
	<g>
		<path class="st0" d="M20.354,60.5c-0.276,0-0.5-0.224-0.5-0.5v-9c0-0.276,0.224-0.5,0.5-0.5s0.5,0.224,0.5,0.5v9
			C20.854,60.276,20.63,60.5,20.354,60.5z"/>
	</g>
	<g>
		<path class="st3" d="M20.501,24h-12c-0.552,0-1-0.448-1-1v-6c0-0.552,0.448-1,1-1h12c0.552,0,1,0.448,1,1v6
			C21.501,23.552,21.053,24,20.501,24z"/>
		<path class="st0" d="M20.501,24.5h-12c-0.827,0-1.5-0.673-1.5-1.5v-6c0-0.827,0.673-1.5,1.5-1.5h12c0.827,0,1.5,0.673,1.5,1.5v6
			C22.001,23.827,21.328,24.5,20.501,24.5z M8.501,16.5c-0.275,0-0.5,0.224-0.5,0.5v6c0,0.276,0.225,0.5,0.5,0.5h12
			c0.275,0,0.5-0.224,0.5-0.5v-6c0-0.276-0.225-0.5-0.5-0.5H8.501z"/>
	</g>
	<g>
		<polyline class="st1" points="18.501,26 18.501,36 10.501,36 10.501,26 		"/>
		<path class="st0" d="M18.501,36.5h-8c-0.276,0-0.5-0.224-0.5-0.5V26c0-0.276,0.224-0.5,0.5-0.5s0.5,0.224,0.5,0.5v9.5h7V26
			c0-0.276,0.224-0.5,0.5-0.5s0.5,0.224,0.5,0.5v10C19.001,36.276,18.777,36.5,18.501,36.5z"/>
	</g>
	<g>
		<path class="st0" d="M14.501,42.5c-0.128,0-0.256-0.049-0.354-0.146l-3-3c-0.094-0.094-0.146-0.221-0.146-0.354v-3
			c0-0.276,0.224-0.5,0.5-0.5h6c0.276,0,0.5,0.224,0.5,0.5v3c0,0.133-0.053,0.26-0.146,0.354l-3,3
			C14.757,42.451,14.629,42.5,14.501,42.5z M12.001,38.793l2.5,2.5l2.5-2.5V36.5h-5V38.793z M17.501,39h0.01H17.501z"/>
	</g>
	<g>
		<path class="st0" d="M14.501,36.5c-0.276,0-0.5-0.224-0.5-0.5V26c0-0.276,0.224-0.5,0.5-0.5s0.5,0.224,0.5,0.5v10
			C15.001,36.276,14.777,36.5,14.501,36.5z"/>
	</g>
	<g>
		<path class="st0" d="M14.501,45.5c-0.276,0-0.5-0.224-0.5-0.5v-3c0-0.276,0.224-0.5,0.5-0.5s0.5,0.224,0.5,0.5v3
			C15.001,45.276,14.777,45.5,14.501,45.5z"/>
	</g>
	<g>
		<path class="st0" d="M21.501,20.5h-7c-0.276,0-0.5-0.224-0.5-0.5s0.224-0.5,0.5-0.5h7c0.276,0,0.5,0.224,0.5,0.5
			S21.777,20.5,21.501,20.5z"/>
	</g>
	<g>
		<path class="st0" d="M33.501,45.5h-15c-0.276,0-0.5-0.224-0.5-0.5s0.224-0.5,0.5-0.5h15c1.103,0,2-0.897,2-2s-0.897-2-2-2h-7.5
			c-1.654,0-3-1.346-3-3c0-0.801,0.312-1.555,0.879-2.122C24.446,34.812,25.199,34.5,26,34.5h0.001h2.573h0.001
			c1.062,0,1.925-0.863,1.926-1.925c0-1.178-0.897-2.075-2-2.075h-0.25c-1.654,0-3-1.346-3-3V20c0-0.276,0.224-0.5,0.5-0.5
			s0.5,0.224,0.5,0.5v7.5c0,1.103,0.897,2,2,2h0.25c1.654,0,3,1.346,3,3c-0.001,1.688-1.313,3-2.926,3h-0.001h-2.573H26
			c-0.534,0-1.036,0.208-1.413,0.585c-0.378,0.377-0.586,0.88-0.586,1.414c0,1.103,0.897,2,2,2h7.5c1.654,0,3,1.346,3,3
			S35.155,45.5,33.501,45.5z"/>
	</g>
	<g>
		<path class="st0" d="M6.501,56.5h-1c-0.276,0-0.5-0.224-0.5-0.5s0.224-0.5,0.5-0.5h1c0.276,0,0.5,0.224,0.5,0.5
			S6.777,56.5,6.501,56.5z"/>
	</g>
	<g>
		<path class="st0" d="M15.501,56.5h-7c-0.276,0-0.5-0.224-0.5-0.5s0.224-0.5,0.5-0.5h7c0.276,0,0.5,0.224,0.5,0.5
			S15.777,56.5,15.501,56.5z"/>
	</g>
	<g>
		<path class="st0" d="M51.354,56.5h-1c-0.276,0-0.5-0.224-0.5-0.5s0.224-0.5,0.5-0.5h1c0.276,0,0.5,0.224,0.5,0.5
			S51.63,56.5,51.354,56.5z"/>
	</g>
	<g>
		<path class="st0" d="M48.354,56.5h-7c-0.276,0-0.5-0.224-0.5-0.5s0.224-0.5,0.5-0.5h7c0.276,0,0.5,0.224,0.5,0.5
			S48.63,56.5,48.354,56.5z"/>
	</g>
	<g>
		<path class="st0" d="M58.5,13.5h-4c-0.276,0-0.5-0.224-0.5-0.5s0.224-0.5,0.5-0.5h4c0.276,0,0.5,0.224,0.5,0.5
			S58.776,13.5,58.5,13.5z"/>
	</g>
	<g>
		<path class="st0" d="M52,6.5h-4c-0.276,0-0.5-0.224-0.5-0.5s0.224-0.5,0.5-0.5h4c0.276,0,0.5,0.224,0.5,0.5S52.276,6.5,52,6.5z"/>
	</g>
	<g>
		<path class="st0" d="M50,8.5c-0.276,0-0.5-0.224-0.5-0.5V4c0-0.276,0.224-0.5,0.5-0.5s0.5,0.224,0.5,0.5v4
			C50.5,8.276,50.276,8.5,50,8.5z"/>
	</g>
	<g>
		<path class="st0" d="M56.5,15.5c-0.276,0-0.5-0.224-0.5-0.5v-4c0-0.276,0.224-0.5,0.5-0.5S57,10.724,57,11v4
			C57,15.276,56.776,15.5,56.5,15.5z"/>
	</g>
	<g>
		<path class="st0" d="M36.354,60.5c-0.276,0-0.5-0.224-0.5-0.5v-9c0-0.276,0.224-0.5,0.5-0.5s0.5,0.224,0.5,0.5v9
			C36.854,60.276,36.63,60.5,36.354,60.5z"/>
	</g>
	<g>
		<path class="st0" d="M42.854,51.5h-11.5c-0.276,0-0.5-0.224-0.5-0.5s0.224-0.5,0.5-0.5h11.5c3.859,0,7-3.14,7-7V37
			c0-0.276,0.224-0.5,0.5-0.5h2.643c0.764,0,1.429-0.405,1.778-1.084c0.35-0.68,0.293-1.456-0.151-2.078l-4.677-6.547
			c-0.061-0.084-0.093-0.187-0.093-0.291V25c0-10.752-8.748-19.5-19.5-19.5c-6.573,0-12.663,3.281-16.289,8.775
			c-0.152,0.23-0.463,0.292-0.692,0.142c-0.23-0.152-0.294-0.462-0.142-0.693C17.042,7.948,23.443,4.5,30.354,4.5
			c11.304,0,20.5,9.196,20.5,20.5v1.34l4.584,6.417c0.655,0.918,0.742,2.113,0.226,3.117c-0.517,1.003-1.538,1.627-2.667,1.627
			h-2.143v6C50.854,47.911,47.265,51.5,42.854,51.5z"/>
	</g>
	<g>
		<path class="st0" d="M20.354,60.5c-0.276,0-0.5-0.224-0.5-0.5l-0.001-13c0-0.276,0.224-0.5,0.5-0.5s0.5,0.224,0.5,0.5l0.001,13
			C20.854,60.276,20.63,60.5,20.354,60.5z"/>
	</g>
</g>
</svg>
