<?xml version="1.0" encoding="utf-8"?>
<!-- Generator: Adobe Illustrator 22.0.0, SVG Export Plug-In . SVG Version: 6.00 Build 0)  -->
<svg version="1.1" id="Icon_Set" xmlns="http://www.w3.org/2000/svg" xmlns:xlink="http://www.w3.org/1999/xlink" x="0px" y="0px"
	 viewBox="0 0 64 64" style="enable-background:new 0 0 64 64;" xml:space="preserve">
<style type="text/css">
	.st0{fill:#263238;}
	.st1{fill:#FFD740;}
	.st2{fill:#4FC3F7;}
	.st3{fill:#40C4FF;}
	.st4{fill:#FF5252;}
	.st5{fill:#FFFFFF;}
	.st6{fill:#212A41;}
	.st7{fill:#37474F;}
	.st8{fill:#4DB6AC;}
</style>
<g>
	<g>
		<path class="st0" d="M22.5,23H13c-0.276,0-0.5-0.224-0.5-0.5V13c0-0.276,0.224-0.5,0.5-0.5h9.5c0.276,0,0.5,0.224,0.5,0.5v9.5
			C23,22.776,22.776,23,22.5,23z M13.5,22H22v-8.5h-8.5V22z"/>
	</g>
	<g>
		<rect x="22.5" y="13" class="st4" width="9.5" height="9.5"/>
		<path class="st0" d="M32,23h-9.5c-0.276,0-0.5-0.224-0.5-0.5V13c0-0.276,0.224-0.5,0.5-0.5H32c0.276,0,0.5,0.224,0.5,0.5v9.5
			C32.5,22.776,32.276,23,32,23z M23,22h8.5v-8.5H23V22z"/>
	</g>
	<g>
		<rect x="13" y="22.5" class="st4" width="9.5" height="9.5"/>
		<path class="st0" d="M22.5,32.5H13c-0.276,0-0.5-0.224-0.5-0.5v-9.5c0-0.276,0.224-0.5,0.5-0.5h9.5c0.276,0,0.5,0.224,0.5,0.5V32
			C23,32.276,22.776,32.5,22.5,32.5z M13.5,31.5H22V23h-8.5V31.5z"/>
	</g>
	<g>
		<path class="st0" d="M32,32.5h-9.5c-0.276,0-0.5-0.224-0.5-0.5v-9.5c0-0.276,0.224-0.5,0.5-0.5H32c0.276,0,0.5,0.224,0.5,0.5V32
			C32.5,32.276,32.276,32.5,32,32.5z M23,31.5h8.5V23H23V31.5z"/>
	</g>
	<g>
		<rect x="32" y="22.5" class="st4" width="9.5" height="9.5"/>
		<path class="st0" d="M41.5,32.5H32c-0.276,0-0.5-0.224-0.5-0.5v-9.5c0-0.276,0.224-0.5,0.5-0.5h9.5c0.276,0,0.5,0.224,0.5,0.5V32
			C42,32.276,41.776,32.5,41.5,32.5z M32.5,31.5H41V23h-8.5V31.5z"/>
	</g>
	<g>
		<path class="st0" d="M51,32.5h-9.5c-0.276,0-0.5-0.224-0.5-0.5v-9.5c0-0.276,0.224-0.5,0.5-0.5H51c0.276,0,0.5,0.224,0.5,0.5V32
			C51.5,32.276,51.276,32.5,51,32.5z M42,31.5h8.5V23H42V31.5z"/>
	</g>
	<g>
		<path class="st0" d="M22.5,42H13c-0.276,0-0.5-0.224-0.5-0.5V32c0-0.276,0.224-0.5,0.5-0.5h9.5c0.276,0,0.5,0.224,0.5,0.5v9.5
			C23,41.776,22.776,42,22.5,42z M13.5,41H22v-8.5h-8.5V41z"/>
	</g>
	<g>
		<rect x="22.5" y="32" class="st4" width="9.5" height="9.5"/>
		<path class="st0" d="M32,42h-9.5c-0.276,0-0.5-0.224-0.5-0.5V32c0-0.276,0.224-0.5,0.5-0.5H32c0.276,0,0.5,0.224,0.5,0.5v9.5
			C32.5,41.776,32.276,42,32,42z M23,41h8.5v-8.5H23V41z"/>
	</g>
	<g>
		<path class="st0" d="M41.5,42H32c-0.276,0-0.5-0.224-0.5-0.5V32c0-0.276,0.224-0.5,0.5-0.5h9.5c0.276,0,0.5,0.224,0.5,0.5v9.5
			C42,41.776,41.776,42,41.5,42z M32.5,41H41v-8.5h-8.5V41z"/>
	</g>
	<g>
		<rect x="41.5" y="32" class="st4" width="9.5" height="9.5"/>
		<path class="st0" d="M51,42h-9.5c-0.276,0-0.5-0.224-0.5-0.5V32c0-0.276,0.224-0.5,0.5-0.5H51c0.276,0,0.5,0.224,0.5,0.5v9.5
			C51.5,41.776,51.276,42,51,42z M42,41h8.5v-8.5H42V41z"/>
	</g>
	<g>
		<rect x="32" y="41.5" class="st4" width="9.5" height="9.5"/>
		<path class="st0" d="M41.5,51.5H32c-0.276,0-0.5-0.224-0.5-0.5v-9.5c0-0.276,0.224-0.5,0.5-0.5h9.5c0.276,0,0.5,0.224,0.5,0.5V51
			C42,51.276,41.776,51.5,41.5,51.5z M32.5,50.5H41V42h-8.5V50.5z"/>
	</g>
	<g>
		<path class="st0" d="M51,51.5h-9.5c-0.276,0-0.5-0.224-0.5-0.5v-9.5c0-0.276,0.224-0.5,0.5-0.5H51c0.276,0,0.5,0.224,0.5,0.5V51
			C51.5,51.276,51.276,51.5,51,51.5z M42,50.5h8.5V42H42V50.5z"/>
	</g>
	<g>
		<circle class="st1" cx="27.25" cy="27.25" r="2.292"/>
		<path class="st0" d="M27.25,30.042c-1.539,0-2.792-1.253-2.792-2.792s1.252-2.792,2.792-2.792s2.792,1.253,2.792,2.792
			S28.789,30.042,27.25,30.042z M27.25,25.458c-0.988,0-1.792,0.804-1.792,1.792s0.804,1.792,1.792,1.792s1.792-0.804,1.792-1.792
			S28.238,25.458,27.25,25.458z"/>
	</g>
	<g>
		<circle class="st1" cx="36.75" cy="36.75" r="2.292"/>
		<path class="st0" d="M36.75,39.542c-1.539,0-2.792-1.253-2.792-2.792s1.253-2.792,2.792-2.792s2.792,1.253,2.792,2.792
			S38.289,39.542,36.75,39.542z M36.75,34.958c-0.988,0-1.792,0.804-1.792,1.792s0.804,1.792,1.792,1.792s1.792-0.804,1.792-1.792
			S37.738,34.958,36.75,34.958z"/>
	</g>
	<g>
		<circle class="st5" cx="36.75" cy="27.25" r="2.292"/>
		<path class="st0" d="M36.75,30.042c-1.539,0-2.792-1.253-2.792-2.792s1.253-2.792,2.792-2.792s2.792,1.253,2.792,2.792
			S38.289,30.042,36.75,30.042z M36.75,25.458c-0.988,0-1.792,0.804-1.792,1.792s0.804,1.792,1.792,1.792s1.792-0.804,1.792-1.792
			S37.738,25.458,36.75,25.458z"/>
	</g>
	<g>
		<circle class="st5" cx="27.25" cy="36.75" r="2.292"/>
		<path class="st0" d="M27.25,39.542c-1.539,0-2.792-1.253-2.792-2.792s1.252-2.792,2.792-2.792s2.792,1.253,2.792,2.792
			S28.789,39.542,27.25,39.542z M27.25,34.958c-0.988,0-1.792,0.804-1.792,1.792s0.804,1.792,1.792,1.792s1.792-0.804,1.792-1.792
			S28.238,34.958,27.25,34.958z"/>
	</g>
	<g>
		<path class="st0" d="M15.893,62H0.5C0.224,62,0,61.776,0,61.5S0.224,61,0.5,61h15.393c0.789,0,1.471-0.535,1.586-1.244
			c0.074-0.45-0.046-0.886-0.335-1.227C16.858,58.192,16.441,58,16,58c-0.276,0-0.5-0.224-0.5-0.5S15.724,57,16,57h1.893
			c0.789,0,1.471-0.535,1.586-1.244c0.074-0.45-0.046-0.886-0.335-1.227C18.858,54.192,18.441,54,18,54c-0.276,0-0.5-0.224-0.5-0.5
			S17.724,53,18,53h2c0.44,0,0.857-0.192,1.143-0.528c0.29-0.341,0.409-0.777,0.336-1.228C21.364,50.535,20.682,50,19.893,50H18
			c-0.276,0-0.5-0.224-0.5-0.5S17.724,49,18,49c0.44,0,0.857-0.192,1.143-0.528c0.29-0.341,0.409-0.777,0.336-1.228
			C19.364,46.535,18.682,46,17.893,46H8.157c-0.202,0-0.385-0.122-0.462-0.309c-0.078-0.187-0.035-0.402,0.108-0.545l2.258-2.258
			c0.283-0.283,0.439-0.66,0.439-1.061c0-0.401-0.156-0.777-0.439-1.061c-0.566-0.566-1.555-0.566-2.121,0l-5.086,5.086
			C2.76,45.947,2.633,46,2.5,46h-2C0.224,46,0,45.776,0,45.5S0.224,45,0.5,45h1.793l4.94-4.939c0.943-0.945,2.592-0.945,3.535,0
			c0.472,0.472,0.732,1.1,0.732,1.768c0,0.667-0.26,1.295-0.732,1.768L9.364,45h8.529c1.273,0,2.379,0.896,2.573,2.084
			c0.111,0.684-0.059,1.374-0.468,1.918c1.229,0.048,2.279,0.927,2.468,2.082c0.119,0.733-0.085,1.476-0.562,2.035S20.734,54,20,54
			c0.408,0.544,0.578,1.233,0.466,1.916c-0.188,1.155-1.239,2.034-2.468,2.082c0.409,0.544,0.579,1.234,0.468,1.918
			C18.272,61.104,17.167,62,15.893,62z"/>
	</g>
	<g>
		<path class="st0" d="M18,50h-6c-0.276,0-0.5-0.224-0.5-0.5S11.724,49,12,49h6c0.276,0,0.5,0.224,0.5,0.5S18.276,50,18,50z"/>
	</g>
	<g>
		<path class="st0" d="M18,54h-6c-0.276,0-0.5-0.224-0.5-0.5S11.724,53,12,53h6c0.276,0,0.5,0.224,0.5,0.5S18.276,54,18,54z"/>
	</g>
	<g>
		<path class="st0" d="M16,58h-4c-0.276,0-0.5-0.224-0.5-0.5S11.724,57,12,57h4c0.276,0,0.5,0.224,0.5,0.5S16.276,58,16,58z"/>
	</g>
	<g>
		<path class="st0" d="M32,51.5h-8.045c-0.276,0-0.5-0.224-0.5-0.5s0.224-0.5,0.5-0.5H31.5V42H23v5.825c0,0.276-0.224,0.5-0.5,0.5
			s-0.5-0.224-0.5-0.5V41.5c0-0.276,0.224-0.5,0.5-0.5H32c0.276,0,0.5,0.224,0.5,0.5V51C32.5,51.276,32.276,51.5,32,51.5z"/>
	</g>
	<g>
		<path class="st4" d="M17.893,43.5c2,0,3.743,1.437,4.054,3.343c0.043,0.269,0.06,0.539,0.05,0.806
			c0.173,0.047,0.34,0.108,0.503,0.177V41.5H13v2H17.893z"/>
	</g>
	<g>
		<path class="st0" d="M22.5,48.325c-0.276,0-0.5-0.224-0.5-0.5V42h-8.5v1.5c0,0.276-0.224,0.5-0.5,0.5s-0.5-0.224-0.5-0.5v-2
			c0-0.276,0.224-0.5,0.5-0.5h9.5c0.276,0,0.5,0.224,0.5,0.5v6.325C23,48.102,22.776,48.325,22.5,48.325z"/>
	</g>
	<g>
		<path class="st8" d="M63.5,18.5h-3l-2.268,2.268c-0.469,0.469-1.105,0.732-1.768,0.732H56c-1.381,0-2.5-1.119-2.5-2.5v-0.5h-9.893
			c-0.996,0-1.92-0.681-2.08-1.664C41.324,15.583,42.285,14.5,43.5,14.5l-1.893,0c-0.996,0-1.92-0.681-2.08-1.664
			C39.324,11.583,40.285,10.5,41.5,10.5h2c-1.215,0-2.177-1.083-1.973-2.336c0.16-0.983,1.084-1.664,2.08-1.664l1.893,0
			c-1.215,0-2.177-1.083-1.973-2.336c0.16-0.983,1.084-1.664,2.08-1.664l17.893,0"/>
		<path class="st0" d="M56.465,22H56c-1.654,0-3-1.346-3-3h-9.393c-1.273,0-2.38-0.896-2.573-2.084
			c-0.111-0.684,0.059-1.374,0.467-1.918c-1.229-0.048-2.279-0.927-2.467-2.082c-0.12-0.733,0.085-1.475,0.561-2.035
			C40.07,10.321,40.766,10,41.5,10c-0.408-0.544-0.577-1.233-0.466-1.916c0.188-1.155,1.238-2.034,2.467-2.082
			c-0.408-0.544-0.578-1.234-0.467-1.918C43.228,2.896,44.334,2,45.607,2H63.5C63.776,2,64,2.224,64,2.5S63.776,3,63.5,3H45.607
			c-0.789,0-1.471,0.535-1.587,1.244c-0.073,0.45,0.046,0.886,0.336,1.227C44.643,5.808,45.06,6,45.5,6C45.776,6,46,6.224,46,6.5
			S45.776,7,45.5,7h-1.893c-0.789,0-1.471,0.535-1.587,1.244c-0.073,0.45,0.046,0.886,0.336,1.227C42.643,9.808,43.06,10,43.5,10
			c0.276,0,0.5,0.224,0.5,0.5S43.776,11,43.5,11h-2c-0.44,0-0.857,0.192-1.144,0.529c-0.29,0.341-0.409,0.776-0.336,1.227
			C40.137,13.465,40.818,14,41.607,14H43.5c0.276,0,0.5,0.224,0.5,0.5S43.776,15,43.5,15c-0.44,0-0.857,0.192-1.144,0.529
			c-0.29,0.341-0.409,0.776-0.336,1.227C42.137,17.465,42.818,18,43.607,18H53.5c0.276,0,0.5,0.224,0.5,0.5V19c0,1.103,0.897,2,2,2
			h0.465c0.534,0,1.036-0.208,1.414-0.586l2.268-2.268C60.24,18.053,60.367,18,60.5,18h3c0.276,0,0.5,0.224,0.5,0.5
			S63.776,19,63.5,19h-2.793l-2.121,2.121C58.02,21.688,57.266,22,56.465,22z"/>
	</g>
	<g>
		<path class="st0" d="M41.5,23H32c-0.276,0-0.5-0.224-0.5-0.5V13c0-0.276,0.224-0.5,0.5-0.5h5.545c0.276,0,0.5,0.224,0.5,0.5
			s-0.224,0.5-0.5,0.5H32.5V22H41v-2.074c0-0.276,0.224-0.5,0.5-0.5s0.5,0.224,0.5,0.5V22.5C42,22.776,41.776,23,41.5,23z"/>
	</g>
	<g>
		<path class="st0" d="M53.5,15h-10c-0.276,0-0.5-0.224-0.5-0.5s0.224-0.5,0.5-0.5h10c0.276,0,0.5,0.224,0.5,0.5S53.776,15,53.5,15z
			"/>
	</g>
	<g>
		<path class="st0" d="M53.5,11h-10c-0.276,0-0.5-0.224-0.5-0.5s0.224-0.5,0.5-0.5h10c0.276,0,0.5,0.224,0.5,0.5S53.776,11,53.5,11z
			"/>
	</g>
	<g>
		<path class="st0" d="M53.5,7h-8C45.224,7,45,6.776,45,6.5S45.224,6,45.5,6h8C53.776,6,54,6.224,54,6.5S53.776,7,53.5,7z"/>
	</g>
	<g>
		<path class="st0" d="M53.5,19c-0.276,0-0.5-0.224-0.5-0.5v-16C53,2.224,53.224,2,53.5,2S54,2.224,54,2.5v16
			C54,18.776,53.776,19,53.5,19z"/>
	</g>
	<g>
		<path class="st0" d="M50,19c-0.276,0-0.5-0.224-0.5-0.5v-16C49.5,2.224,49.724,2,50,2s0.5,0.224,0.5,0.5v16
			C50.5,18.776,50.276,19,50,19z"/>
	</g>
	<g>
		<path class="st0" d="M46.5,19c-0.276,0-0.5-0.224-0.5-0.5v-16C46,2.224,46.224,2,46.5,2S47,2.224,47,2.5v16
			C47,18.776,46.776,19,46.5,19z"/>
	</g>
	<g>
		<path class="st0" d="M8,38.412c-0.276,0-0.5-0.224-0.5-0.5V10c0-1.379,1.122-2.5,2.5-2.5h29.539c0.276,0,0.5,0.224,0.5,0.5
			s-0.224,0.5-0.5,0.5H10c-0.827,0-1.5,0.673-1.5,1.5v27.912C8.5,38.188,8.276,38.412,8,38.412z"/>
	</g>
	<g>
		<path class="st0" d="M54,56.5H21.957c-0.276,0-0.5-0.224-0.5-0.5s0.224-0.5,0.5-0.5H54c0.827,0,1.5-0.673,1.5-1.5V23.5
			c0-0.276,0.224-0.5,0.5-0.5s0.5,0.224,0.5,0.5V54C56.5,55.379,55.379,56.5,54,56.5z"/>
	</g>
	<g>
		<path class="st4" d="M43.607,20.5c-0.762,0-1.485-0.21-2.107-0.574V22.5H51v-2H43.607z"/>
	</g>
	<g>
		<path class="st0" d="M51,23h-9.5c-0.276,0-0.5-0.224-0.5-0.5v-2.574c0-0.276,0.224-0.5,0.5-0.5s0.5,0.224,0.5,0.5V22h8.5v-1.5
			c0-0.276,0.224-0.5,0.5-0.5s0.5,0.224,0.5,0.5v2C51.5,22.776,51.276,23,51,23z"/>
	</g>
	<g>
		<path class="st0" d="M33.5,60.5h-1c-0.276,0-0.5-0.224-0.5-0.5s0.224-0.5,0.5-0.5h1c0.276,0,0.5,0.224,0.5,0.5
			S33.776,60.5,33.5,60.5z"/>
	</g>
	<g>
		<path class="st0" d="M46,60.5H35.5c-0.276,0-0.5-0.224-0.5-0.5s0.224-0.5,0.5-0.5H46c0.276,0,0.5,0.224,0.5,0.5
			S46.276,60.5,46,60.5z"/>
	</g>
	<g>
		<path class="st0" d="M31.5,4.5h-1C30.224,4.5,30,4.276,30,4s0.224-0.5,0.5-0.5h1C31.776,3.5,32,3.724,32,4S31.776,4.5,31.5,4.5z"
			/>
	</g>
	<g>
		<path class="st0" d="M28.5,4.5H18c-0.276,0-0.5-0.224-0.5-0.5s0.224-0.5,0.5-0.5h10.5C28.776,3.5,29,3.724,29,4
			S28.776,4.5,28.5,4.5z"/>
	</g>
</g>
</svg>
