<?xml version="1.0" encoding="utf-8"?>
<!-- Generator: Adobe Illustrator 22.0.0, SVG Export Plug-In . SVG Version: 6.00 Build 0)  -->
<svg version="1.1" id="Icon_Set" xmlns="http://www.w3.org/2000/svg" xmlns:xlink="http://www.w3.org/1999/xlink" x="0px" y="0px"
	 viewBox="0 0 64 64" style="enable-background:new 0 0 64 64;" xml:space="preserve">
<style type="text/css">
	.st0{fill:#263238;}
	.st1{fill:#FFD740;}
	.st2{fill:#4FC3F7;}
	.st3{fill:#40C4FF;}
	.st4{fill:#FF5252;}
	.st5{fill:#FFFFFF;}
	.st6{fill:#212A41;}
	.st7{fill:#37474F;}
	.st8{fill:#4DB6AC;}
</style>
<g>
	<g>
		<path class="st0" d="M50.5,4.5h-4C46.224,4.5,46,4.276,46,4s0.224-0.5,0.5-0.5h4C50.777,3.5,51,3.724,51,4S50.777,4.5,50.5,4.5z"
			/>
	</g>
	<g>
		<path class="st0" d="M48.5,6.5C48.224,6.5,48,6.276,48,6V2c0-0.276,0.224-0.5,0.5-0.5S49,1.724,49,2v4
			C49,6.276,48.777,6.5,48.5,6.5z"/>
	</g>
	<g>
		<path class="st0" d="M57.5,11h-4c-0.276,0-0.5-0.224-0.5-0.5s0.224-0.5,0.5-0.5h4c0.276,0,0.5,0.224,0.5,0.5S57.777,11,57.5,11z"
			/>
	</g>
	<g>
		<path class="st0" d="M55.5,13c-0.276,0-0.5-0.224-0.5-0.5v-4C55,8.224,55.224,8,55.5,8S56,8.224,56,8.5v4
			C56,12.776,55.777,13,55.5,13z"/>
	</g>
	<g>
		<path class="st0" d="M46,17.5c-0.276,0-0.5-0.224-0.5-0.5v-1c0-6.893-5.607-12.5-12.5-12.5h-2c-6.893,0-12.5,5.607-12.5,12.5v1
			c0,0.276-0.224,0.5-0.5,0.5s-0.5-0.224-0.5-0.5v-1c0-7.444,6.056-13.5,13.5-13.5h2c7.444,0,13.5,6.056,13.5,13.5v1
			C46.5,17.276,46.277,17.5,46,17.5z"/>
	</g>
	<g>
		<path class="st0" d="M46,23.5h-3c-0.276,0-0.5-0.224-0.5-0.5v-6c0-0.276,0.224-0.5,0.5-0.5h3c0.827,0,1.5,0.673,1.5,1.5v4
			C47.5,22.827,46.828,23.5,46,23.5z M43.5,22.5H46c0.276,0,0.5-0.224,0.5-0.5v-4c0-0.276-0.224-0.5-0.5-0.5h-2.5V22.5z"/>
	</g>
	<g>
		<path class="st0" d="M21,23.5h-3c-0.827,0-1.5-0.673-1.5-1.5v-4c0-0.827,0.673-1.5,1.5-1.5h3c0.276,0,0.5,0.224,0.5,0.5v6
			C21.5,23.276,21.277,23.5,21,23.5z M18,17.5c-0.276,0-0.5,0.224-0.5,0.5v4c0,0.276,0.224,0.5,0.5,0.5h2.5v-5H18z"/>
	</g>
	<g>
		<path class="st0" d="M56,33.5h-6c-0.276,0-0.5-0.224-0.5-0.5s0.224-0.5,0.5-0.5h6c0.276,0,0.5,0.224,0.5,0.5S56.277,33.5,56,33.5z
			"/>
	</g>
	<g>
		<path class="st0" d="M59,33.5h-1c-0.276,0-0.5-0.224-0.5-0.5s0.224-0.5,0.5-0.5h1c0.276,0,0.5,0.224,0.5,0.5S59.277,33.5,59,33.5z
			"/>
	</g>
	<g>
		<path class="st0" d="M6,33.5H5c-0.276,0-0.5-0.224-0.5-0.5s0.224-0.5,0.5-0.5h1c0.276,0,0.5,0.224,0.5,0.5S6.277,33.5,6,33.5z"/>
	</g>
	<g>
		<path class="st0" d="M14,33.5H8c-0.276,0-0.5-0.224-0.5-0.5s0.224-0.5,0.5-0.5h6c0.276,0,0.5,0.224,0.5,0.5S14.277,33.5,14,33.5z"
			/>
	</g>
	<g>
		<path class="st0" d="M56,56.5c-0.276,0-0.5-0.224-0.5-0.5v-7.218c0-3.178-2.146-5.961-5.218-6.77l-13.409-3.529
			C36.654,38.426,36.5,38.227,36.5,38v-4c0-0.276,0.224-0.5,0.5-0.5s0.5,0.224,0.5,0.5v3.615l13.036,3.431
			c3.511,0.923,5.964,4.105,5.964,7.736V56C56.5,56.276,56.277,56.5,56,56.5z"/>
	</g>
	<g>
		<path class="st0" d="M8,56.5c-0.276,0-0.5-0.224-0.5-0.5v-7.218c0-3.631,2.453-6.813,5.964-7.736L26.5,37.615V34
			c0-0.276,0.224-0.5,0.5-0.5s0.5,0.224,0.5,0.5v4c0,0.227-0.153,0.426-0.373,0.483l-13.409,3.529
			c-3.073,0.809-5.219,3.592-5.219,6.77V56C8.5,56.276,8.277,56.5,8,56.5z"/>
	</g>
	<g>
		<circle class="st3" cx="37.001" cy="20" r="2.5"/>
		<path class="st0" d="M37,23c-1.654,0-3-1.346-3-3s1.346-3,3-3s3,1.346,3,3S38.655,23,37,23z M37,18c-1.103,0-2,0.897-2,2
			s0.897,2,2,2s2-0.897,2-2S38.104,18,37,18z"/>
	</g>
	<g>
		<circle class="st3" cx="27.001" cy="20" r="2.5"/>
		<path class="st0" d="M27,23c-1.654,0-3-1.346-3-3s1.346-3,3-3s3,1.346,3,3S28.655,23,27,23z M27,18c-1.103,0-2,0.897-2,2
			s0.897,2,2,2s2-0.897,2-2S28.104,18,27,18z"/>
	</g>
	<g>
		<path class="st0" d="M33.5,28.5h-3c-1.654,0-3-1.346-3-3V25c0-0.276,0.224-0.5,0.5-0.5h8c0.276,0,0.5,0.224,0.5,0.5v0.5
			C36.5,27.154,35.155,28.5,33.5,28.5z M28.5,25.5c0,1.103,0.897,2,2,2h3c1.103,0,2-0.897,2-2H28.5z"/>
	</g>
	<g>
		<path class="st0" d="M27.5,30.5h-6c-1.654,0-3-1.346-3-3V20c0-0.276,0.224-0.5,0.5-0.5s0.5,0.224,0.5,0.5v7.5c0,1.103,0.897,2,2,2
			h6c0.276,0,0.5,0.224,0.5,0.5S27.777,30.5,27.5,30.5z"/>
	</g>
	<g>
		<path class="st1" d="M37.001,62h-10c-0.552,0-1-0.448-1-1V51c0-0.552,0.448-1,1-1h10c0.552,0,1,0.448,1,1v10
			C38.001,61.552,37.553,62,37.001,62z"/>
		<path class="st0" d="M37,62.5H27c-0.827,0-1.5-0.673-1.5-1.5V51c0-0.827,0.673-1.5,1.5-1.5h10c0.827,0,1.5,0.673,1.5,1.5v10
			C38.5,61.827,37.828,62.5,37,62.5z M27,50.5c-0.276,0-0.5,0.224-0.5,0.5v10c0,0.276,0.224,0.5,0.5,0.5h10
			c0.276,0,0.5-0.224,0.5-0.5V51c0-0.276-0.224-0.5-0.5-0.5H27z"/>
	</g>
	<g>
		<path class="st0" d="M35,59.5h-6c-0.276,0-0.5-0.224-0.5-0.5v-6c0-0.276,0.224-0.5,0.5-0.5h6c0.276,0,0.5,0.224,0.5,0.5v6
			C35.5,59.276,35.277,59.5,35,59.5z M29.5,58.5h5v-5h-5V58.5z"/>
	</g>
	<g>
		<path class="st0" d="M28,47.5c-0.276,0-0.5-0.224-0.5-0.5v-2c0-0.276,0.224-0.5,0.5-0.5s0.5,0.224,0.5,0.5v2
			C28.5,47.276,28.277,47.5,28,47.5z"/>
	</g>
	<g>
		<path class="st0" d="M32,47.5c-0.276,0-0.5-0.224-0.5-0.5v-2c0-0.276,0.224-0.5,0.5-0.5s0.5,0.224,0.5,0.5v2
			C32.5,47.276,32.277,47.5,32,47.5z"/>
	</g>
	<g>
		<path class="st0" d="M36,47.5c-0.276,0-0.5-0.224-0.5-0.5v-2c0-0.276,0.224-0.5,0.5-0.5h7c0.276,0,0.5,0.224,0.5,0.5
			s-0.224,0.5-0.5,0.5h-6.5V47C36.5,47.276,36.277,47.5,36,47.5z"/>
	</g>
	<g>
		<path class="st0" d="M43,52.5h-2c-0.276,0-0.5-0.224-0.5-0.5s0.224-0.5,0.5-0.5h2c0.276,0,0.5,0.224,0.5,0.5S43.277,52.5,43,52.5z
			"/>
	</g>
	<g>
		<path class="st0" d="M43,60.5h-2c-0.276,0-0.5-0.224-0.5-0.5s0.224-0.5,0.5-0.5h2c0.276,0,0.5,0.224,0.5,0.5S43.277,60.5,43,60.5z
			"/>
	</g>
	<g>
		<path class="st0" d="M48,56.5h-7c-0.276,0-0.5-0.224-0.5-0.5s0.224-0.5,0.5-0.5h7c0.276,0,0.5,0.224,0.5,0.5S48.277,56.5,48,56.5z
			"/>
	</g>
	<g>
		<path class="st0" d="M23,52.5h-2c-0.276,0-0.5-0.224-0.5-0.5v-7c0-0.276,0.224-0.5,0.5-0.5s0.5,0.224,0.5,0.5v6.5H23
			c0.276,0,0.5,0.224,0.5,0.5S23.277,52.5,23,52.5z"/>
	</g>
	<g>
		<path class="st0" d="M23,56.5h-7c-0.276,0-0.5-0.224-0.5-0.5s0.224-0.5,0.5-0.5h7c0.276,0,0.5,0.224,0.5,0.5S23.277,56.5,23,56.5z
			"/>
	</g>
	<g>
		<path class="st0" d="M23,60.5h-2c-0.276,0-0.5-0.224-0.5-0.5s0.224-0.5,0.5-0.5h2c0.276,0,0.5,0.224,0.5,0.5S23.277,60.5,23,60.5z
			"/>
	</g>
	<g>
		<path class="st0" d="M34,12.416h-4c-0.827,0-1.5-0.673-1.5-1.5v-4c0-0.827,0.673-1.5,1.5-1.5h4c0.827,0,1.5,0.673,1.5,1.5v4
			C35.5,11.743,34.827,12.416,34,12.416z M30,6.416c-0.276,0-0.5,0.224-0.5,0.5v4c0,0.276,0.224,0.5,0.5,0.5h4
			c0.276,0,0.5-0.224,0.5-0.5v-4c0-0.276-0.224-0.5-0.5-0.5H30z"/>
	</g>
	<g>
		<path class="st0" d="M33,34.5h-2c-5.79,0-10.5-4.71-10.5-10.5v-7.584c0-5.003,3.56-9.335,8.465-10.299
			c0.172-0.034,0.354,0.027,0.472,0.16c0.118,0.133,0.156,0.319,0.1,0.488C29.519,6.818,29.5,6.879,29.5,6.916v4
			c0,0.276,0.224,0.5,0.5,0.5h4c0.276,0,0.5-0.224,0.5-0.5v-4c0-0.036-0.019-0.097-0.037-0.151c-0.056-0.168-0.018-0.354,0.1-0.488
			s0.3-0.193,0.471-0.16C39.94,7.08,43.5,11.412,43.5,16.416V24C43.5,29.79,38.79,34.5,33,34.5z M28.5,7.251
			c-4.094,1.114-7,4.865-7,9.164V24c0,5.238,4.262,9.5,9.5,9.5h2c5.238,0,9.5-4.262,9.5-9.5v-7.584c0-4.3-2.906-8.051-7-9.164v3.664
			c0,0.827-0.673,1.5-1.5,1.5h-4c-0.827,0-1.5-0.673-1.5-1.5V7.251z"/>
	</g>
</g>
</svg>
