<?xml version="1.0" encoding="utf-8"?>
<!-- Generator: Adobe Illustrator 22.0.0, SVG Export Plug-In . SVG Version: 6.00 Build 0)  -->
<svg version="1.1" id="Icon_Set" xmlns="http://www.w3.org/2000/svg" xmlns:xlink="http://www.w3.org/1999/xlink" x="0px" y="0px"
	 viewBox="0 0 64 64" style="enable-background:new 0 0 64 64;" xml:space="preserve">
<style type="text/css">
	.st0{fill:#263238;}
	.st1{fill:#FFD740;}
	.st2{fill:#4FC3F7;}
	.st3{fill:#40C4FF;}
	.st4{fill:#FF5252;}
	.st5{fill:#FFFFFF;}
	.st6{fill:#212A41;}
	.st7{fill:#37474F;}
	.st8{fill:#4DB6AC;}
</style>
<g>
	<g>
		<g>
			<circle class="st3" cx="32" cy="26" r="20"/>
			<path class="st0" d="M32,46.5c-11.304,0-20.5-9.196-20.5-20.5S20.696,5.5,32,5.5S52.5,14.696,52.5,26S43.304,46.5,32,46.5z
				 M32,6.5c-10.752,0-19.5,8.748-19.5,19.5S21.248,45.5,32,45.5S51.5,36.752,51.5,26S42.752,6.5,32,6.5z"/>
		</g>
		<g>
			<path class="st0" d="M32,16.5c-5.737,0-11.248-1.238-15.121-3.396c-0.241-0.134-0.328-0.439-0.193-0.68
				c0.134-0.242,0.438-0.327,0.68-0.193C21.094,14.308,26.428,15.5,32,15.5c5.572,0,10.906-1.192,14.634-3.27
				c0.239-0.134,0.546-0.05,0.68,0.193c0.135,0.241,0.048,0.546-0.193,0.68C43.249,15.262,37.737,16.5,32,16.5z"/>
		</g>
		<g>
			<path class="st0" d="M17.124,39.833c-0.175,0-0.346-0.092-0.437-0.256c-0.135-0.241-0.048-0.546,0.193-0.68
				C20.751,36.738,26.263,35.5,32,35.5c5.738,0,11.249,1.238,15.12,3.397c0.241,0.134,0.328,0.439,0.193,0.68
				c-0.136,0.242-0.44,0.326-0.68,0.193C42.906,37.692,37.572,36.5,32,36.5s-10.906,1.192-14.633,3.27
				C17.29,39.813,17.206,39.833,17.124,39.833z"/>
		</g>
		<g>
			<path class="st0" d="M32,46.5c-7.103,0-12.881-9.196-12.881-20.5S24.897,5.5,32,5.5S44.881,14.696,44.881,26S39.103,46.5,32,46.5
				z M32,6.5c-6.551,0-11.881,8.748-11.881,19.5S25.449,45.5,32,45.5c6.551,0,11.881-8.748,11.881-19.5S38.551,6.5,32,6.5z"/>
		</g>
		<g>
			<path class="st0" d="M32,46.5c-0.276,0-0.5-0.224-0.5-0.5V6c0-0.276,0.224-0.5,0.5-0.5s0.5,0.224,0.5,0.5v40
				C32.5,46.276,32.276,46.5,32,46.5z"/>
		</g>
		<g>
			<path class="st0" d="M52,26.5H12c-0.276,0-0.5-0.224-0.5-0.5s0.224-0.5,0.5-0.5h40c0.276,0,0.5,0.224,0.5,0.5
				S52.276,26.5,52,26.5z"/>
		</g>
	</g>
	<g>
		<path class="st0" d="M32,60.5c-0.276,0-0.5-0.224-0.5-0.5V50c0-0.276,0.224-0.5,0.5-0.5s0.5,0.224,0.5,0.5v10
			C32.5,60.276,32.276,60.5,32,60.5z"/>
	</g>
	<g>
		<path class="st0" d="M22,55.5H11.5c-0.276,0-0.5-0.224-0.5-0.5s0.224-0.5,0.5-0.5H22c1.354,0,1.5-1.398,1.5-2V50
			c0-0.276,0.224-0.5,0.5-0.5s0.5,0.224,0.5,0.5v2.5C24.5,54.322,23.519,55.5,22,55.5z"/>
	</g>
	<g>
		<path class="st0" d="M52.5,55.5h-10c-1.654,0-3-1.346-3-3V50c0-0.276,0.224-0.5,0.5-0.5s0.5,0.224,0.5,0.5v2.5
			c0,1.103,0.897,2,2,2h10c0.276,0,0.5,0.224,0.5,0.5S52.776,55.5,52.5,55.5z"/>
	</g>
	<g>
		<path class="st0" d="M27.973,60.5c-0.276,0-0.5-0.224-0.5-0.5V50c0-0.276,0.224-0.5,0.5-0.5s0.5,0.224,0.5,0.5v10
			C28.473,60.276,28.25,60.5,27.973,60.5z"/>
	</g>
	<g>
		<path class="st0" d="M36,60.5c-0.276,0-0.5-0.224-0.5-0.5V50c0-0.276,0.224-0.5,0.5-0.5s0.5,0.224,0.5,0.5v10
			C36.5,60.276,36.276,60.5,36,60.5z"/>
	</g>
	<g>
		<path class="st0" d="M4,60.5H3c-0.276,0-0.5-0.224-0.5-0.5s0.224-0.5,0.5-0.5h1c0.276,0,0.5,0.224,0.5,0.5S4.276,60.5,4,60.5z"/>
	</g>
	<g>
		<path class="st0" d="M19,60.5H6c-0.276,0-0.5-0.224-0.5-0.5s0.224-0.5,0.5-0.5h13c0.276,0,0.5,0.224,0.5,0.5S19.276,60.5,19,60.5z
			"/>
	</g>
	<g>
		<path class="st0" d="M61,60.5h-1c-0.276,0-0.5-0.224-0.5-0.5s0.224-0.5,0.5-0.5h1c0.276,0,0.5,0.224,0.5,0.5S61.276,60.5,61,60.5z
			"/>
	</g>
	<g>
		<path class="st0" d="M58,60.5H45c-0.276,0-0.5-0.224-0.5-0.5s0.224-0.5,0.5-0.5h13c0.276,0,0.5,0.224,0.5,0.5S58.276,60.5,58,60.5
			z"/>
	</g>
	<g>
		<g>
			<path class="st0" d="M12.5,6.5h-4C8.224,6.5,8,6.276,8,6s0.224-0.5,0.5-0.5h4C12.776,5.5,13,5.724,13,6S12.776,6.5,12.5,6.5z"/>
		</g>
		<g>
			<path class="st0" d="M10.5,8.5C10.224,8.5,10,8.276,10,8V4c0-0.276,0.224-0.5,0.5-0.5S11,3.724,11,4v4
				C11,8.276,10.776,8.5,10.5,8.5z"/>
		</g>
		<g>
			<path class="st0" d="M7,14H3c-0.276,0-0.5-0.224-0.5-0.5S2.724,13,3,13h4c0.276,0,0.5,0.224,0.5,0.5S7.276,14,7,14z"/>
		</g>
		<g>
			<path class="st0" d="M5,16c-0.276,0-0.5-0.224-0.5-0.5v-4C4.5,11.224,4.724,11,5,11s0.5,0.224,0.5,0.5v4
				C5.5,15.776,5.276,16,5,16z"/>
		</g>
	</g>
</g>
</svg>
