<?xml version="1.0" encoding="utf-8"?>
<!-- Generator: Adobe Illustrator 22.0.0, SVG Export Plug-In . SVG Version: 6.00 Build 0)  -->
<svg version="1.1" id="Icon_Set" xmlns="http://www.w3.org/2000/svg" xmlns:xlink="http://www.w3.org/1999/xlink" x="0px" y="0px"
	 viewBox="0 0 64 64" style="enable-background:new 0 0 64 64;" xml:space="preserve">
<style type="text/css">
	.st0{fill:#263238;}
	.st1{fill:#FFD740;}
	.st2{fill:#4FC3F7;}
	.st3{fill:#40C4FF;}
	.st4{fill:#FF5252;}
	.st5{fill:#FFFFFF;}
	.st6{fill:#212A41;}
	.st7{fill:#37474F;}
	.st8{fill:#4DB6AC;}
</style>
<g>
	<g>
		<path class="st0" d="M55.5,61h-22c-3.032,0-5.5-2.468-5.5-5.5v-29c0-3.032,2.468-5.5,5.5-5.5h22c3.032,0,5.5,2.468,5.5,5.5v29
			C61,58.532,58.532,61,55.5,61z M33.5,22c-2.481,0-4.5,2.019-4.5,4.5v29c0,2.481,2.019,4.5,4.5,4.5h22c2.481,0,4.5-2.019,4.5-4.5
			v-29c0-2.481-2.019-4.5-4.5-4.5H33.5z"/>
	</g>
	<g>
		<path class="st0" d="M50.5,22h-12c-0.276,0-0.5-0.224-0.5-0.5V20c0-1.654,1.346-3,3-3h7c1.654,0,3,1.346,3,3v1.5
			C51,21.776,50.776,22,50.5,22z M39,21h11v-1c0-1.103-0.897-2-2-2h-7c-1.103,0-2,0.897-2,2V21z"/>
	</g>
	<g>
		<path class="st1" d="M57.918,48c0-1.404-0.582-2.668-1.514-3.576c0.317-0.573,0.514-1.223,0.514-1.924
			c0-1.831-1.238-3.358-2.917-3.833V38.25c0-2.623-2.127-4.75-4.75-4.75s-4.75,2.127-4.75,4.75v12.5c0,2.623,2.127,4.75,4.75,4.75
			c1.826,0,3.392-1.042,4.188-2.552C55.952,52.684,57.918,50.583,57.918,48z"/>
		<path class="st0" d="M49.251,56c-2.895,0-5.25-2.355-5.25-5.25v-12.5c0-2.895,2.355-5.25,5.25-5.25s5.25,2.355,5.25,5.25v0.056
			c1.735,0.654,2.917,2.328,2.917,4.194c0,0.628-0.137,1.242-0.408,1.833c0.911,1.012,1.408,2.3,1.408,3.667
			c0,2.722-1.988,5.003-4.666,5.411C52.806,55.015,51.104,56,49.251,56z M49.251,34c-2.344,0-4.25,1.906-4.25,4.25v12.5
			c0,2.344,1.906,4.25,4.25,4.25c1.568,0,3.003-0.876,3.745-2.285c0.078-0.148,0.224-0.247,0.391-0.265
			c2.298-0.241,4.031-2.154,4.031-4.45c0-1.219-0.484-2.361-1.362-3.218c-0.162-0.157-0.198-0.403-0.089-0.601
			c0.3-0.541,0.451-1.106,0.451-1.682c0-1.549-1.05-2.927-2.553-3.352c-0.216-0.062-0.364-0.258-0.364-0.481V38.25
			C53.501,35.906,51.595,34,49.251,34z"/>
	</g>
	<g>
		<path class="st0" d="M52.918,53.5c-3.032,0-5.5-2.468-5.5-5.5c0-0.276,0.224-0.5,0.5-0.5s0.5,0.224,0.5,0.5
			c0,2.481,2.019,4.5,4.5,4.5s4.5-2.019,4.5-4.5c0-0.276,0.224-0.5,0.5-0.5s0.5,0.224,0.5,0.5C58.418,51.032,55.95,53.5,52.918,53.5
			z"/>
	</g>
	<g>
		<path class="st0" d="M52.918,47c-0.276,0-0.5-0.224-0.5-0.5s0.224-0.5,0.5-0.5c1.93,0,3.5-1.57,3.5-3.5c0-0.276,0.224-0.5,0.5-0.5
			s0.5,0.224,0.5,0.5C57.418,44.981,55.399,47,52.918,47z"/>
	</g>
	<g>
		<path class="st1" d="M31.084,48c0-1.404,0.582-2.668,1.514-3.576c-0.317-0.573-0.514-1.223-0.514-1.924
			c0-1.831,1.238-3.358,2.917-3.833V38.25c0-2.623,2.127-4.75,4.75-4.75s4.75,2.127,4.75,4.75v12.5c0,2.623-2.127,4.75-4.75,4.75
			c-1.826,0-3.392-1.042-4.188-2.552C33.05,52.684,31.084,50.583,31.084,48z"/>
		<path class="st0" d="M39.751,56c-1.854,0-3.555-0.985-4.501-2.589c-2.678-0.408-4.666-2.689-4.666-5.411
			c0-1.367,0.497-2.655,1.408-3.667c-0.271-0.591-0.408-1.205-0.408-1.833c0-1.866,1.182-3.54,2.917-4.194V38.25
			c0-2.895,2.355-5.25,5.25-5.25s5.25,2.355,5.25,5.25v12.5C45.001,53.645,42.646,56,39.751,56z M39.751,34
			c-2.344,0-4.25,1.906-4.25,4.25v0.417c0,0.224-0.148,0.42-0.364,0.481c-1.503,0.425-2.553,1.803-2.553,3.352
			c0,0.575,0.151,1.141,0.451,1.682c0.109,0.197,0.073,0.443-0.089,0.601c-0.878,0.856-1.362,1.999-1.362,3.218
			c0,2.296,1.733,4.209,4.031,4.45c0.167,0.018,0.312,0.116,0.391,0.265C36.748,54.124,38.183,55,39.751,55
			c2.344,0,4.25-1.906,4.25-4.25v-12.5C44.001,35.906,42.095,34,39.751,34z"/>
	</g>
	<g>
		<path class="st0" d="M36.084,53.5c-3.032,0-5.5-2.468-5.5-5.5c0-0.276,0.224-0.5,0.5-0.5s0.5,0.224,0.5,0.5
			c0,2.481,2.019,4.5,4.5,4.5s4.5-2.019,4.5-4.5c0-0.276,0.224-0.5,0.5-0.5s0.5,0.224,0.5,0.5
			C41.584,51.032,39.116,53.5,36.084,53.5z"/>
	</g>
	<g>
		<path class="st0" d="M36.084,47c-2.481,0-4.5-2.019-4.5-4.5c0-0.276,0.224-0.5,0.5-0.5s0.5,0.224,0.5,0.5c0,1.93,1.57,3.5,3.5,3.5
			c0.276,0,0.5,0.224,0.5,0.5S36.36,47,36.084,47z"/>
	</g>
	<g>
		<path class="st0" d="M39.5,38.667c-0.276,0-0.5-0.224-0.5-0.5V21.5c0-0.276,0.224-0.5,0.5-0.5s0.5,0.224,0.5,0.5v16.667
			C40,38.443,39.776,38.667,39.5,38.667z"/>
	</g>
	<g>
		<circle class="st5" cx="39.5" cy="40.167" r="2"/>
		<path class="st0" d="M39.5,42.667c-1.379,0-2.5-1.121-2.5-2.5s1.121-2.5,2.5-2.5s2.5,1.121,2.5,2.5S40.879,42.667,39.5,42.667z
			 M39.5,38.667c-0.827,0-1.5,0.673-1.5,1.5s0.673,1.5,1.5,1.5s1.5-0.673,1.5-1.5S40.327,38.667,39.5,38.667z"/>
	</g>
	<g>
		<path class="st0" d="M49.5,38.667c-0.276,0-0.5-0.224-0.5-0.5V21.5c0-0.276,0.224-0.5,0.5-0.5s0.5,0.224,0.5,0.5v16.667
			C50,38.443,49.776,38.667,49.5,38.667z"/>
	</g>
	<g>
		<circle class="st5" cx="49.5" cy="40.167" r="2"/>
		<path class="st0" d="M49.5,42.667c-1.379,0-2.5-1.121-2.5-2.5s1.121-2.5,2.5-2.5s2.5,1.121,2.5,2.5S50.879,42.667,49.5,42.667z
			 M49.5,38.667c-0.827,0-1.5,0.673-1.5,1.5s0.673,1.5,1.5,1.5s1.5-0.673,1.5-1.5S50.327,38.667,49.5,38.667z"/>
	</g>
	<g>
		<path class="st0" d="M21,61H6c-1.654,0-3-1.346-3-3V15c0-1.654,1.346-3,3-3h15c1.654,0,3,1.346,3,3v43C24,59.654,22.654,61,21,61z
			 M6,13c-1.103,0-2,0.897-2,2v43c0,1.103,0.897,2,2,2h15c1.103,0,2-0.897,2-2V15c0-1.103-0.897-2-2-2H6z"/>
	</g>
	<g>
		<path class="st3" d="M18.5,20.5h-10c-0.552,0-1-0.448-1-1v-1c0-0.552,0.448-1,1-1h10c0.552,0,1,0.448,1,1v1
			C19.5,20.052,19.053,20.5,18.5,20.5z"/>
		<path class="st0" d="M18.5,21h-10C7.673,21,7,20.327,7,19.5v-1C7,17.673,7.673,17,8.5,17h10c0.827,0,1.5,0.673,1.5,1.5v1
			C20,20.327,19.327,21,18.5,21z M8.5,18C8.225,18,8,18.225,8,18.5v1C8,19.775,8.225,20,8.5,20h10c0.275,0,0.5-0.225,0.5-0.5v-1
			c0-0.275-0.225-0.5-0.5-0.5H8.5z"/>
	</g>
	<g>
		<path class="st3" d="M18.5,27.5h-10c-0.552,0-1-0.448-1-1v-1c0-0.552,0.448-1,1-1h10c0.552,0,1,0.448,1,1v1
			C19.5,27.052,19.053,27.5,18.5,27.5z"/>
		<path class="st0" d="M18.5,28h-10C7.673,28,7,27.327,7,26.5v-1C7,24.673,7.673,24,8.5,24h10c0.827,0,1.5,0.673,1.5,1.5v1
			C20,27.327,19.327,28,18.5,28z M8.5,25C8.225,25,8,25.225,8,25.5v1C8,26.775,8.225,27,8.5,27h10c0.275,0,0.5-0.225,0.5-0.5v-1
			c0-0.275-0.225-0.5-0.5-0.5H8.5z"/>
	</g>
	<g>
		<path class="st3" d="M18.5,34.5h-10c-0.552,0-1-0.448-1-1v-1c0-0.552,0.448-1,1-1h10c0.552,0,1,0.448,1,1v1
			C19.5,34.052,19.053,34.5,18.5,34.5z"/>
		<path class="st0" d="M18.5,35h-10C7.673,35,7,34.327,7,33.5v-1C7,31.673,7.673,31,8.5,31h10c0.827,0,1.5,0.673,1.5,1.5v1
			C20,34.327,19.327,35,18.5,35z M8.5,32C8.225,32,8,32.225,8,32.5v1C8,33.775,8.225,34,8.5,34h10c0.275,0,0.5-0.225,0.5-0.5v-1
			c0-0.275-0.225-0.5-0.5-0.5H8.5z"/>
	</g>
	<g>
		<path class="st0" d="M43,16c-0.276,0-0.5-0.224-0.5-0.5v-8C42.5,7.225,42.275,7,42,7H16c-0.275,0-0.5,0.225-0.5,0.5v3
			c0,0.276-0.224,0.5-0.5,0.5s-0.5-0.224-0.5-0.5v-3C14.5,6.673,15.173,6,16,6h26c0.827,0,1.5,0.673,1.5,1.5v8
			C43.5,15.776,43.276,16,43,16z"/>
	</g>
	<g>
		<path class="st0" d="M46,16c-0.276,0-0.5-0.224-0.5-0.5V6c0-1.103-0.897-2-2-2h-29c-1.103,0-2,0.897-2,2v4.5
			c0,0.276-0.224,0.5-0.5,0.5s-0.5-0.224-0.5-0.5V6c0-1.654,1.346-3,3-3h29c1.654,0,3,1.346,3,3v9.5C46.5,15.776,46.276,16,46,16z"
			/>
	</g>
	<g>
		<path class="st0" d="M23.5,51h-20C3.224,51,3,50.776,3,50.5S3.224,50,3.5,50h20c0.276,0,0.5,0.224,0.5,0.5S23.776,51,23.5,51z"/>
	</g>
	<g>
		<path class="st0" d="M60.5,12.5h-4c-0.276,0-0.5-0.224-0.5-0.5s0.224-0.5,0.5-0.5h4c0.276,0,0.5,0.224,0.5,0.5
			S60.776,12.5,60.5,12.5z"/>
	</g>
	<g>
		<path class="st0" d="M56.5,6h-4C52.224,6,52,5.776,52,5.5S52.224,5,52.5,5h4C56.776,5,57,5.224,57,5.5S56.776,6,56.5,6z"/>
	</g>
	<g>
		<path class="st0" d="M54.5,8C54.224,8,54,7.776,54,7.5v-4C54,3.224,54.224,3,54.5,3S55,3.224,55,3.5v4C55,7.776,54.776,8,54.5,8z"
			/>
	</g>
	<g>
		<path class="st0" d="M58.5,14.5c-0.276,0-0.5-0.224-0.5-0.5v-4c0-0.276,0.224-0.5,0.5-0.5S59,9.724,59,10v4
			C59,14.276,58.776,14.5,58.5,14.5z"/>
	</g>
	<g>
		<path class="st0" d="M57.5,30c-0.276,0-0.5-0.224-0.5-0.5V27c0-1.103-0.897-2-2-2h-2.5c-0.276,0-0.5-0.224-0.5-0.5
			s0.224-0.5,0.5-0.5H55c1.654,0,3,1.346,3,3v2.5C58,29.776,57.776,30,57.5,30z"/>
	</g>
</g>
</svg>
