<?xml version="1.0" encoding="utf-8"?>
<!-- Generator: Adobe Illustrator 22.0.0, SVG Export Plug-In . SVG Version: 6.00 Build 0)  -->
<svg version="1.1" id="Icon_Set" xmlns="http://www.w3.org/2000/svg" xmlns:xlink="http://www.w3.org/1999/xlink" x="0px" y="0px"
	 viewBox="0 0 64 64" style="enable-background:new 0 0 64 64;" xml:space="preserve">
<style type="text/css">
	.st0{fill:#263238;}
	.st1{fill:#FFD740;}
	.st2{fill:#4FC3F7;}
	.st3{fill:#40C4FF;}
	.st4{fill:#FF5252;}
	.st5{fill:#FFFFFF;}
	.st6{fill:#212A41;}
	.st7{fill:#37474F;}
	.st8{fill:#4DB6AC;}
</style>
<g>
	<g>
		<path class="st0" d="M5,11.75H3c-0.276,0-0.5-0.224-0.5-0.5s0.224-0.5,0.5-0.5h2c0.276,0,0.5,0.224,0.5,0.5S5.276,11.75,5,11.75z"
			/>
	</g>
	<g>
		<path class="st0" d="M22,11.75H7c-0.276,0-0.5-0.224-0.5-0.5s0.224-0.5,0.5-0.5h15c0.276,0,0.5,0.224,0.5,0.5
			S22.276,11.75,22,11.75z"/>
	</g>
	<g>
		<path class="st0" d="M62,56.25h-2c-0.276,0-0.5-0.224-0.5-0.5s0.224-0.5,0.5-0.5h2c0.276,0,0.5,0.224,0.5,0.5
			S62.276,56.25,62,56.25z"/>
	</g>
	<g>
		<path class="st0" d="M58,56.25H43c-0.276,0-0.5-0.224-0.5-0.5s0.224-0.5,0.5-0.5h15c0.276,0,0.5,0.224,0.5,0.5
			S58.276,56.25,58,56.25z"/>
	</g>
	<g>
		<path class="st0" d="M34.249,54.25H33c-0.827,0-1.5-0.673-1.5-1.5v-4c0-0.276,0.224-0.5,0.5-0.5s0.5,0.224,0.5,0.5v4
			c0,0.276,0.224,0.5,0.5,0.5h1.249c0.838,0,1.593-0.529,1.88-1.316l2.651-7.292c0.094-0.259,0.38-0.392,0.641-0.299
			c0.259,0.094,0.394,0.381,0.299,0.641l-2.651,7.292C36.639,53.457,35.506,54.25,34.249,54.25z"/>
	</g>
	<g>
		<path class="st1" d="M43,23.75H18.5c-0.552,0-1-0.448-1-1v-3c0-0.552,0.448-1,1-1H43c0.552,0,1,0.448,1,1v3
			C44,23.302,43.552,23.75,43,23.75z"/>
		<path class="st0" d="M43,24.25H18.5c-0.827,0-1.5-0.673-1.5-1.5v-3c0-0.827,0.673-1.5,1.5-1.5H43c0.827,0,1.5,0.673,1.5,1.5v3
			C44.5,23.577,43.827,24.25,43,24.25z M18.5,19.25c-0.276,0-0.5,0.224-0.5,0.5v3c0,0.276,0.224,0.5,0.5,0.5H43
			c0.276,0,0.5-0.224,0.5-0.5v-3c0-0.276-0.224-0.5-0.5-0.5H18.5z"/>
	</g>
	<g>
		<path class="st0" d="M32,29.25H22c-0.276,0-0.5-0.224-0.5-0.5v-3c0-0.276,0.224-0.5,0.5-0.5s0.5,0.224,0.5,0.5v2.5h9v-2.5
			c0-0.276,0.224-0.5,0.5-0.5s0.5,0.224,0.5,0.5v3C32.5,29.026,32.276,29.25,32,29.25z"/>
	</g>
	<g>
		<path class="st3" d="M57,33.75H3c-0.552,0-1-0.448-1-1v-3c0-0.552,0.448-1,1-1h54c0.552,0,1,0.448,1,1v3
			C58,33.302,57.552,33.75,57,33.75z"/>
		<path class="st0" d="M57,34.25H3c-0.827,0-1.5-0.673-1.5-1.5v-3c0-0.827,0.673-1.5,1.5-1.5h54c0.827,0,1.5,0.673,1.5,1.5v3
			C58.5,33.577,57.827,34.25,57,34.25z M3,29.25c-0.276,0-0.5,0.224-0.5,0.5v3c0,0.276,0.224,0.5,0.5,0.5h54
			c0.276,0,0.5-0.224,0.5-0.5v-3c0-0.276-0.224-0.5-0.5-0.5H3z"/>
	</g>
	<g>
		<path class="st0" d="M11.037,49.75H6.5c-1.654,0-3-1.346-3-3v-13c0-0.276,0.224-0.5,0.5-0.5h52c0.177,0,0.341,0.094,0.431,0.247
			c0.09,0.152,0.092,0.341,0.006,0.496l-4.286,7.714c-0.529,0.952-1.534,1.543-2.623,1.543H34c-0.276,0-0.5-0.224-0.5-0.5
			s0.224-0.5,0.5-0.5h15.529c0.726,0,1.396-0.394,1.749-1.029l3.873-6.971H4.5v12.5c0,1.103,0.897,2,2,2h4.537
			c0.722,0,1.39-0.391,1.744-1.021l2.371-4.22c0.088-0.157,0.255-0.255,0.436-0.255h2.5c0.276,0,0.5,0.224,0.5,0.5
			s-0.224,0.5-0.5,0.5H15.88l-2.227,3.965C13.122,49.164,12.12,49.75,11.037,49.75z"/>
	</g>
	<g>
		<path class="st0" d="M27,49.25h-6c-1.93,0-3.5-1.57-3.5-3.5c0-0.276,0.224-0.5,0.5-0.5s0.5,0.224,0.5,0.5
			c0,1.378,1.122,2.5,2.5,2.5h6c2.481,0,4.5-2.019,4.5-4.5v-2c0-0.276,0.224-0.5,0.5-0.5s0.5,0.224,0.5,0.5v2
			C32.5,46.783,30.033,49.25,27,49.25z"/>
	</g>
	<g>
		<path class="st0" d="M26.5,46.25h-3c-1.654,0-3-1.346-3-3v-1.5c0-0.276,0.224-0.5,0.5-0.5s0.5,0.224,0.5,0.5v1.5
			c0,1.103,0.897,2,2,2h3c1.103,0,2-0.897,2-2v-1.5c0-0.276,0.224-0.5,0.5-0.5s0.5,0.224,0.5,0.5v1.5
			C29.5,44.904,28.154,46.25,26.5,46.25z"/>
	</g>
	<g>
		<path class="st4" d="M48.5,39.75h-3c-0.552,0-1-0.448-1-1v-1c0-0.552,0.448-1,1-1h3c0.552,0,1,0.448,1,1v1
			C49.5,39.302,49.052,39.75,48.5,39.75z"/>
		<path class="st0" d="M48.5,40.25h-3c-0.827,0-1.5-0.673-1.5-1.5v-1c0-0.827,0.673-1.5,1.5-1.5h3c0.827,0,1.5,0.673,1.5,1.5v1
			C50,39.577,49.327,40.25,48.5,40.25z M45.5,37.25c-0.276,0-0.5,0.224-0.5,0.5v1c0,0.276,0.224,0.5,0.5,0.5h3
			c0.276,0,0.5-0.224,0.5-0.5v-1c0-0.276-0.224-0.5-0.5-0.5H45.5z"/>
	</g>
	<g>
		<path class="st0" d="M53,34.25c-0.276,0-0.5-0.224-0.5-0.5v-5c0-0.276,0.224-0.5,0.5-0.5s0.5,0.224,0.5,0.5v5
			C53.5,34.026,53.276,34.25,53,34.25z"/>
	</g>
	<g>
		<path class="st0" d="M49.5,34.25c-0.276,0-0.5-0.224-0.5-0.5v-5c0-0.276,0.224-0.5,0.5-0.5s0.5,0.224,0.5,0.5v5
			C50,34.026,49.776,34.25,49.5,34.25z"/>
	</g>
	<g>
		<path class="st0" d="M46,34.25c-0.276,0-0.5-0.224-0.5-0.5v-5c0-0.276,0.224-0.5,0.5-0.5s0.5,0.224,0.5,0.5v5
			C46.5,34.026,46.276,34.25,46,34.25z"/>
	</g>
	<g>
		<path class="st0" d="M42,24.25H32c-0.276,0-0.5-0.224-0.5-0.5v-2.5c0-0.276,0.224-0.5,0.5-0.5h10c0.276,0,0.5,0.224,0.5,0.5v2.5
			C42.5,24.026,42.276,24.25,42,24.25z M32.5,23.25h9v-1.5h-9V23.25z"/>
	</g>
	<g>
		<path class="st0" d="M8,37.25H4c-0.276,0-0.5-0.224-0.5-0.5s0.224-0.5,0.5-0.5h4c0.276,0,0.5,0.224,0.5,0.5S8.276,37.25,8,37.25z"
			/>
	</g>
	<g>
		<path class="st0" d="M8,40.25H4c-0.276,0-0.5-0.224-0.5-0.5s0.224-0.5,0.5-0.5h4c0.276,0,0.5,0.224,0.5,0.5S8.276,40.25,8,40.25z"
			/>
	</g>
	<g>
		<path class="st0" d="M8,43.25H4c-0.276,0-0.5-0.224-0.5-0.5s0.224-0.5,0.5-0.5h4c0.276,0,0.5,0.224,0.5,0.5S8.276,43.25,8,43.25z"
			/>
	</g>
	<g>
		<path class="st0" d="M38,40.25H14c-0.276,0-0.5-0.224-0.5-0.5s0.224-0.5,0.5-0.5h24c0.276,0,0.5,0.224,0.5,0.5
			S38.276,40.25,38,40.25z"/>
	</g>
	<g>
		<path class="st0" d="M53,10.75h-4c-0.276,0-0.5-0.224-0.5-0.5s0.224-0.5,0.5-0.5h4c0.276,0,0.5,0.224,0.5,0.5
			S53.276,10.75,53,10.75z"/>
	</g>
	<g>
		<path class="st0" d="M51,12.75c-0.276,0-0.5-0.224-0.5-0.5v-4c0-0.276,0.224-0.5,0.5-0.5s0.5,0.224,0.5,0.5v4
			C51.5,12.526,51.276,12.75,51,12.75z"/>
	</g>
	<g>
		<path class="st0" d="M60,17.25h-4c-0.276,0-0.5-0.224-0.5-0.5s0.224-0.5,0.5-0.5h4c0.276,0,0.5,0.224,0.5,0.5
			S60.276,17.25,60,17.25z"/>
	</g>
	<g>
		<path class="st0" d="M58,19.25c-0.276,0-0.5-0.224-0.5-0.5v-4c0-0.276,0.224-0.5,0.5-0.5s0.5,0.224,0.5,0.5v4
			C58.5,19.026,58.276,19.25,58,19.25z"/>
	</g>
</g>
</svg>
