<?xml version="1.0" encoding="utf-8"?>
<!-- Generator: Adobe Illustrator 22.0.0, SVG Export Plug-In . SVG Version: 6.00 Build 0)  -->
<svg version="1.1" id="Icon_Set" xmlns="http://www.w3.org/2000/svg" xmlns:xlink="http://www.w3.org/1999/xlink" x="0px" y="0px"
	 viewBox="0 0 64 64" style="enable-background:new 0 0 64 64;" xml:space="preserve">
<style type="text/css">
	.st0{fill:#263238;}
	.st1{fill:#FFD740;}
	.st2{fill:#4FC3F7;}
	.st3{fill:#40C4FF;}
	.st4{fill:#FF5252;}
	.st5{fill:#FFFFFF;}
	.st6{fill:#212A41;}
	.st7{fill:#37474F;}
	.st8{fill:#4DB6AC;}
</style>
<g>
	<g>
		<path class="st6" d="M37.5,57h-25c-0.276,0-0.5-0.224-0.5-0.5s0.224-0.5,0.5-0.5h25C48.804,56,58,46.804,58,35.5
			S48.804,15,37.5,15h-25c-0.276,0-0.5-0.224-0.5-0.5s0.224-0.5,0.5-0.5h25C49.355,14,59,23.645,59,35.5S49.355,57,37.5,57z"/>
	</g>
	<g>
		<path class="st6" d="M37.5,54C27.299,54,19,45.701,19,35.5S27.299,17,37.5,17S56,25.299,56,35.5S47.701,54,37.5,54z M37.5,18
			C27.851,18,20,25.851,20,35.5S27.851,53,37.5,53S55,45.149,55,35.5S47.149,18,37.5,18z"/>
	</g>
	<g>
		<path class="st1" d="M37.5,41.5c-3.314,0-6-2.686-6-6s2.686-6,6-6s6,2.686,6,6S40.814,41.5,37.5,41.5z"/>
	</g>
	<g>
		<path class="st6" d="M37.5,39c-1.93,0-3.5-1.57-3.5-3.5s1.57-3.5,3.5-3.5s3.5,1.57,3.5,3.5S39.43,39,37.5,39z M37.5,33
			c-1.379,0-2.5,1.122-2.5,2.5s1.121,2.5,2.5,2.5s2.5-1.122,2.5-2.5S38.879,33,37.5,33z"/>
	</g>
	<g>
		<path class="st6" d="M37.5,51c-4.141,0-8.032-1.612-10.96-4.54c-0.195-0.195-0.195-0.512,0-0.707s0.512-0.195,0.707,0
			C29.985,48.492,33.627,50,37.5,50s7.515-1.508,10.253-4.247C50.492,43.014,52,39.373,52,35.5s-1.508-7.514-4.247-10.253
			C45.015,22.508,41.373,21,37.5,21s-7.515,1.508-10.253,4.247c-0.195,0.195-0.512,0.195-0.707,0s-0.195-0.512,0-0.707
			C29.468,21.612,33.359,20,37.5,20s8.032,1.612,10.96,4.54S53,31.36,53,35.5s-1.612,8.032-4.54,10.96S41.641,51,37.5,51z"/>
	</g>
	<g>
		<path class="st6" d="M48,36c-0.276,0-0.5-0.224-0.5-0.5c0-5.514-4.486-10-10-10c-0.276,0-0.5-0.224-0.5-0.5s0.224-0.5,0.5-0.5
			c6.065,0,11,4.935,11,11C48.5,35.776,48.276,36,48,36z"/>
	</g>
	<g>
		<path class="st6" d="M37.5,42c-1.736,0-3.368-0.676-4.596-1.904S31,37.236,31,35.5s0.677-3.369,1.904-4.596S35.764,29,37.5,29
			s3.369,0.676,4.597,1.904c0.195,0.195,0.195,0.512,0,0.707s-0.512,0.195-0.707,0C40.351,30.572,38.969,30,37.5,30
			s-2.85,0.572-3.889,1.611S32,34.031,32,35.5s0.572,2.85,1.611,3.889S36.031,41,37.5,41s2.851-0.572,3.89-1.611
			c0.195-0.195,0.512-0.195,0.707,0s0.195,0.512,0,0.707C40.869,41.324,39.236,42,37.5,42z"/>
	</g>
	<g>
		<path class="st0" d="M61,14.5h-4c-0.276,0-0.5-0.224-0.5-0.5s0.224-0.5,0.5-0.5h4c0.276,0,0.5,0.224,0.5,0.5S61.276,14.5,61,14.5z
			"/>
	</g>
	<g>
		<path class="st0" d="M53.5,10h-4C49.224,10,49,9.776,49,9.5S49.224,9,49.5,9h4C53.776,9,54,9.224,54,9.5S53.776,10,53.5,10z"/>
	</g>
	<g>
		<path class="st0" d="M51.5,12c-0.276,0-0.5-0.224-0.5-0.5v-4C51,7.224,51.224,7,51.5,7S52,7.224,52,7.5v4
			C52,11.776,51.776,12,51.5,12z"/>
	</g>
	<g>
		<path class="st0" d="M59,16.5c-0.276,0-0.5-0.224-0.5-0.5v-4c0-0.276,0.224-0.5,0.5-0.5s0.5,0.224,0.5,0.5v4
			C59.5,16.276,59.276,16.5,59,16.5z"/>
	</g>
	<g>
		<path class="st0" d="M7,20H6c-0.276,0-0.5-0.224-0.5-0.5S5.724,19,6,19h1c0.276,0,0.5,0.224,0.5,0.5S7.276,20,7,20z"/>
	</g>
	<g>
		<path class="st0" d="M22,20H9c-0.276,0-0.5-0.224-0.5-0.5S8.724,19,9,19h13c0.276,0,0.5,0.224,0.5,0.5S22.276,20,22,20z"/>
	</g>
	<g>
		<path class="st0" d="M7,52H6c-0.276,0-0.5-0.224-0.5-0.5S5.724,51,6,51h1c0.276,0,0.5,0.224,0.5,0.5S7.276,52,7,52z"/>
	</g>
	<g>
		<path class="st0" d="M22,52H9c-0.276,0-0.5-0.224-0.5-0.5S8.724,51,9,51h13c0.276,0,0.5,0.224,0.5,0.5S22.276,52,22,52z"/>
	</g>
	<g>
		<path class="st0" d="M15,47H7c-0.276,0-0.5-0.224-0.5-0.5S6.724,46,7,46h8c0.276,0,0.5,0.224,0.5,0.5S15.276,47,15,47z"/>
	</g>
	<g>
		<path class="st0" d="M15,25H7c-0.276,0-0.5-0.224-0.5-0.5S6.724,24,7,24h8c0.276,0,0.5,0.224,0.5,0.5S15.276,25,15,25z"/>
	</g>
	<g>
		<path class="st0" d="M15,35H3c-0.276,0-0.5-0.224-0.5-0.5S2.724,34,3,34h12c0.276,0,0.5,0.224,0.5,0.5S15.276,35,15,35z"/>
	</g>
</g>
</svg>
