<?xml version="1.0" encoding="utf-8"?>
<!-- Generator: Adobe Illustrator 22.0.0, SVG Export Plug-In . SVG Version: 6.00 Build 0)  -->
<svg version="1.1" id="Icon_Set" xmlns="http://www.w3.org/2000/svg" xmlns:xlink="http://www.w3.org/1999/xlink" x="0px" y="0px"
	 viewBox="0 0 64 64" style="enable-background:new 0 0 64 64;" xml:space="preserve">
<style type="text/css">
	.st0{fill:#263238;}
	.st1{fill:#FFD740;}
	.st2{fill:#4FC3F7;}
	.st3{fill:#40C4FF;}
	.st4{fill:#FF5252;}
	.st5{fill:#FFFFFF;}
	.st6{fill:#212A41;}
	.st7{fill:#37474F;}
	.st8{fill:#4DB6AC;}
</style>
<g>
	<g>
		<path class="st0" d="M32.101,57.5h-0.2c-7.113,0-12.9-5.787-12.9-12.9V22.4c0-7.113,5.787-12.9,12.9-12.9h0.2
			C39.213,9.5,45,15.287,45,22.4v22.2C45,51.713,39.213,57.5,32.101,57.5z M31.9,10.5c-6.562,0-11.9,5.338-11.9,11.9v22.2
			c0,6.562,5.339,11.9,11.9,11.9h0.2C38.662,56.5,44,51.162,44,44.6V22.4c0-6.562-5.338-11.9-11.899-11.9H31.9z"/>
	</g>
	<g>
		<path class="st0" d="M13,60.5h-3c-0.276,0-0.5-0.224-0.5-0.5V45c0-0.276,0.224-0.5,0.5-0.5h3c0.276,0,0.5,0.224,0.5,0.5v15
			C13.5,60.276,13.276,60.5,13,60.5z M10.5,59.5h2v-14h-2V59.5z"/>
	</g>
	<g>
		<rect x="10" y="45" class="st1" width="3" height="15"/>
		<path class="st0" d="M13,60.5h-3c-0.276,0-0.5-0.224-0.5-0.5V45c0-0.276,0.224-0.5,0.5-0.5h3c0.276,0,0.5,0.224,0.5,0.5v15
			C13.5,60.276,13.276,60.5,13,60.5z M10.5,59.5h2v-14h-2V59.5z"/>
	</g>
	<g>
		<path class="st0" d="M13,54.448c-0.048,0-0.096-0.007-0.143-0.021c-0.212-0.063-0.357-0.258-0.357-0.479v-5.476
			c0-0.097,0.028-0.192,0.082-0.274l6.5-9.921c0.12-0.186,0.351-0.269,0.561-0.205C19.854,38.136,20,38.331,20,38.552v5.475
			c0,0.097-0.028,0.192-0.082,0.274l-6.5,9.921C13.324,54.366,13.165,54.448,13,54.448z M13.5,48.622v3.65l5.5-8.395v-3.65
			L13.5,48.622z"/>
	</g>
	<g>
		<path class="st0" d="M54,60.5h-3c-0.276,0-0.5-0.224-0.5-0.5V45c0-0.276,0.224-0.5,0.5-0.5h3c0.276,0,0.5,0.224,0.5,0.5v15
			C54.5,60.276,54.276,60.5,54,60.5z M51.5,59.5h2v-14h-2V59.5z"/>
	</g>
	<g>
		<rect x="51" y="45" transform="matrix(-1 -4.365587e-11 4.365587e-11 -1 105.0005 104.9999)" class="st1" width="3" height="15"/>
		<path class="st0" d="M54,60.5h-3c-0.276,0-0.5-0.224-0.5-0.5V45c0-0.276,0.224-0.5,0.5-0.5h3c0.276,0,0.5,0.224,0.5,0.5v15
			C54.5,60.276,54.276,60.5,54,60.5z M51.5,59.5h2v-14h-2V59.5z"/>
	</g>
	<g>
		<path class="st0" d="M51,54.448c-0.165,0-0.324-0.083-0.418-0.226l-6.5-9.921C44.028,44.219,44,44.124,44,44.027v-5.475
			c0-0.221,0.146-0.416,0.357-0.479c0.208-0.062,0.439,0.02,0.561,0.205l6.5,9.921c0.054,0.082,0.082,0.177,0.082,0.274v5.476
			c0,0.221-0.146,0.416-0.357,0.479C51.096,54.441,51.048,54.448,51,54.448z M45,43.877l5.5,8.395v-3.65L45,40.227V43.877z"/>
	</g>
	<g>
		<path class="st0" d="M32.5,23.5h-1c-0.827,0-1.5-0.673-1.5-1.5v-1h-1c-0.827,0-1.5-0.673-1.5-1.5v-1c0-0.827,0.673-1.5,1.5-1.5h1
			v-1c0-0.827,0.673-1.5,1.5-1.5h1c0.827,0,1.5,0.673,1.5,1.5v1h1c0.827,0,1.5,0.673,1.5,1.5v1c0,0.827-0.673,1.5-1.5,1.5h-1v1
			C34,22.827,33.327,23.5,32.5,23.5z M29,18c-0.275,0-0.5,0.224-0.5,0.5v1c0,0.276,0.225,0.5,0.5,0.5h1.5c0.276,0,0.5,0.224,0.5,0.5
			V22c0,0.276,0.225,0.5,0.5,0.5h1c0.275,0,0.5-0.224,0.5-0.5v-1.5c0-0.276,0.224-0.5,0.5-0.5H35c0.275,0,0.5-0.224,0.5-0.5v-1
			c0-0.276-0.225-0.5-0.5-0.5h-1.5c-0.276,0-0.5-0.224-0.5-0.5V16c0-0.276-0.225-0.5-0.5-0.5h-1c-0.275,0-0.5,0.224-0.5,0.5v1.5
			c0,0.276-0.224,0.5-0.5,0.5H29z"/>
	</g>
	<g>
		<rect x="19.5" y="28" class="st3" width="25" height="4"/>
		<path class="st0" d="M44.5,32.5h-25c-0.276,0-0.5-0.224-0.5-0.5v-4c0-0.276,0.224-0.5,0.5-0.5h25c0.276,0,0.5,0.224,0.5,0.5v4
			C45,32.276,44.776,32.5,44.5,32.5z M20,31.5h24v-3H20V31.5z"/>
	</g>
	<g>
		<circle class="st5" cx="26.5" cy="30" r="2"/>
		<path class="st0" d="M26.5,32.5c-1.379,0-2.5-1.122-2.5-2.5s1.121-2.5,2.5-2.5S29,28.622,29,30S27.879,32.5,26.5,32.5z M26.5,28.5
			c-0.827,0-1.5,0.673-1.5,1.5s0.673,1.5,1.5,1.5S28,30.827,28,30S27.327,28.5,26.5,28.5z"/>
	</g>
	<g>
		<circle class="st5" cx="37.5" cy="30" r="2"/>
		<path class="st0" d="M37.5,32.5c-1.379,0-2.5-1.122-2.5-2.5s1.121-2.5,2.5-2.5S40,28.622,40,30S38.879,32.5,37.5,32.5z M37.5,28.5
			c-0.827,0-1.5,0.673-1.5,1.5s0.673,1.5,1.5,1.5S39,30.827,39,30S38.327,28.5,37.5,28.5z"/>
	</g>
	<g>
		<path class="st0" d="M44.5,41.027h-25c-0.276,0-0.5-0.224-0.5-0.5s0.224-0.5,0.5-0.5h25c0.276,0,0.5,0.224,0.5,0.5
			S44.776,41.027,44.5,41.027z"/>
	</g>
	<g>
		<path class="st0" d="M37,41.027H27c-0.276,0-0.5-0.224-0.5-0.5v-3c0-0.276,0.224-0.5,0.5-0.5h10c0.276,0,0.5,0.224,0.5,0.5v3
			C37.5,40.803,37.276,41.027,37,41.027z M27.5,40.027h9v-2h-9V40.027z"/>
	</g>
	<g>
		<path class="st0" d="M19.5,35.5h-4c-1.654,0-3-1.346-3-3V25c0-0.276,0.224-0.5,0.5-0.5s0.5,0.224,0.5,0.5v7.5c0,1.103,0.897,2,2,2
			h4c0.276,0,0.5,0.224,0.5,0.5S19.776,35.5,19.5,35.5z"/>
	</g>
	<g>
		<path class="st0" d="M13,25.5c-1.379,0-2.5-1.122-2.5-2.5s1.121-2.5,2.5-2.5s2.5,1.122,2.5,2.5S14.379,25.5,13,25.5z M13,21.5
			c-0.827,0-1.5,0.673-1.5,1.5s0.673,1.5,1.5,1.5s1.5-0.673,1.5-1.5S13.827,21.5,13,21.5z"/>
	</g>
	<g>
		<path class="st0" d="M48.5,35.5h-4c-0.276,0-0.5-0.224-0.5-0.5s0.224-0.5,0.5-0.5h4c1.103,0,2-0.897,2-2V25
			c0-0.276,0.224-0.5,0.5-0.5s0.5,0.224,0.5,0.5v7.5C51.5,34.154,50.154,35.5,48.5,35.5z"/>
	</g>
	<g>
		<path class="st0" d="M51,25.5c-1.379,0-2.5-1.122-2.5-2.5s1.121-2.5,2.5-2.5s2.5,1.122,2.5,2.5S52.379,25.5,51,25.5z M51,21.5
			c-0.827,0-1.5,0.673-1.5,1.5s0.673,1.5,1.5,1.5s1.5-0.673,1.5-1.5S51.827,21.5,51,21.5z"/>
	</g>
	<g>
		
			<rect x="30.501" y="45" transform="matrix(-1 -4.365587e-11 4.365587e-11 -1 64.0013 104.9999)" class="st1" width="3" height="15"/>
		<path class="st0" d="M33.501,60.5h-3c-0.276,0-0.5-0.224-0.5-0.5V45c0-0.276,0.224-0.5,0.5-0.5h3c0.276,0,0.5,0.224,0.5,0.5v15
			C34.001,60.276,33.777,60.5,33.501,60.5z M31.001,59.5h2v-14h-2V59.5z"/>
	</g>
	<g>
		<path class="st0" d="M3.75,40h-1c-0.276,0-0.5-0.224-0.5-0.5S2.474,39,2.75,39h1c0.276,0,0.5,0.224,0.5,0.5S4.026,40,3.75,40z"/>
	</g>
	<g>
		<path class="st0" d="M12.75,40h-7c-0.276,0-0.5-0.224-0.5-0.5S5.474,39,5.75,39h7c0.276,0,0.5,0.224,0.5,0.5S13.026,40,12.75,40z"
			/>
	</g>
	<g>
		<path class="st0" d="M61.25,40h-1c-0.276,0-0.5-0.224-0.5-0.5s0.224-0.5,0.5-0.5h1c0.276,0,0.5,0.224,0.5,0.5S61.526,40,61.25,40z
			"/>
	</g>
	<g>
		<path class="st0" d="M58.25,40h-7c-0.276,0-0.5-0.224-0.5-0.5s0.224-0.5,0.5-0.5h7c0.276,0,0.5,0.224,0.5,0.5S58.526,40,58.25,40z
			"/>
	</g>
	<g>
		<path class="st0" d="M59.5,13.5h-4c-0.276,0-0.5-0.224-0.5-0.5s0.224-0.5,0.5-0.5h4c0.276,0,0.5,0.224,0.5,0.5
			S59.776,13.5,59.5,13.5z"/>
	</g>
	<g>
		<path class="st0" d="M53,6.5h-4c-0.276,0-0.5-0.224-0.5-0.5s0.224-0.5,0.5-0.5h4c0.276,0,0.5,0.224,0.5,0.5S53.276,6.5,53,6.5z"/>
	</g>
	<g>
		<path class="st0" d="M51,8.5c-0.276,0-0.5-0.224-0.5-0.5V4c0-0.276,0.224-0.5,0.5-0.5s0.5,0.224,0.5,0.5v4
			C51.5,8.276,51.276,8.5,51,8.5z"/>
	</g>
	<g>
		<path class="st0" d="M57.5,15.5c-0.276,0-0.5-0.224-0.5-0.5v-4c0-0.276,0.224-0.5,0.5-0.5S58,10.724,58,11v4
			C58,15.276,57.776,15.5,57.5,15.5z"/>
	</g>
</g>
</svg>
