<?xml version="1.0" encoding="utf-8"?>
<!-- Generator: Adobe Illustrator 22.0.0, SVG Export Plug-In . SVG Version: 6.00 Build 0)  -->
<svg version="1.1" id="Icon_Set" xmlns="http://www.w3.org/2000/svg" xmlns:xlink="http://www.w3.org/1999/xlink" x="0px" y="0px"
	 viewBox="0 0 64 64" style="enable-background:new 0 0 64 64;" xml:space="preserve">
<style type="text/css">
	.st0{fill:#263238;}
	.st1{fill:#FFD740;}
	.st2{fill:#4FC3F7;}
	.st3{fill:#40C4FF;}
	.st4{fill:#FF5252;}
	.st5{fill:#FFFFFF;}
	.st6{fill:#212A41;}
	.st7{fill:#37474F;}
	.st8{fill:#4DB6AC;}
</style>
<g>
	<g>
		<path class="st0" d="M43.5,53.75h-20c-0.136,0-0.267-0.056-0.361-0.154l-11-11.5C12.049,42.002,12,41.879,12,41.75v-18
			c0-0.129,0.05-0.252,0.139-0.346l11-11.5c0.094-0.099,0.225-0.154,0.361-0.154h20c0.136,0,0.267,0.056,0.361,0.154l11,11.5
			C54.95,23.498,55,23.621,55,23.75v18c0,0.129-0.05,0.252-0.139,0.346l-11,11.5C43.767,53.694,43.636,53.75,43.5,53.75z
			 M23.713,52.75h19.572L54,41.549V23.951L43.286,12.75H23.713L13,23.951v17.599L23.713,52.75z"/>
	</g>
	<g>
		<path class="st0" d="M42.218,50.75H24.781c-0.136,0-0.267-0.056-0.361-0.154l-9.282-9.704C15.049,40.799,15,40.675,15,40.546
			V24.954c0-0.129,0.05-0.252,0.139-0.346l9.282-9.704c0.094-0.099,0.225-0.154,0.361-0.154h17.437c0.136,0,0.267,0.056,0.361,0.154
			l9.282,9.704C51.95,24.701,52,24.825,52,24.954v15.593c0,0.129-0.05,0.252-0.139,0.346l-9.282,9.704
			C42.485,50.694,42.354,50.75,42.218,50.75z M24.995,49.75h17.009L51,40.346V25.154l-8.996-9.404H24.995L16,25.154v15.191
			L24.995,49.75z"/>
	</g>
	<g>
		<polygon class="st1" points="33.5,25.25 35.972,30.188 42.5,30.979 37.5,34.823 38.444,40.25 33.5,37.688 28.555,40.25 
			29.5,34.823 25.5,30.979 31.027,30.188 		"/>
		<path class="st0" d="M38.444,40.75c-0.079,0-0.158-0.019-0.23-0.056L33.5,38.25l-4.714,2.443
			c-0.169,0.087-0.373,0.071-0.525-0.041c-0.153-0.112-0.23-0.302-0.197-0.489l0.899-5.165l-3.808-3.659
			c-0.138-0.132-0.188-0.332-0.13-0.514s0.216-0.314,0.405-0.342l5.269-0.755l2.355-4.703c0.17-0.339,0.725-0.339,0.895,0
			l2.352,4.697l6.261,0.759c0.202,0.025,0.369,0.168,0.422,0.365c0.053,0.196-0.017,0.404-0.178,0.528l-4.76,3.659l0.893,5.129
			c0.033,0.188-0.044,0.377-0.197,0.489C38.652,40.717,38.548,40.75,38.444,40.75z M33.5,37.188c0.079,0,0.158,0.019,0.23,0.056
			l4.049,2.098l-0.771-4.433c-0.032-0.184,0.041-0.369,0.188-0.482l4.03-3.098l-5.313-0.645c-0.167-0.021-0.312-0.123-0.387-0.273
			L33.5,26.367l-2.025,4.044c-0.074,0.147-0.214,0.248-0.376,0.271l-4.513,0.646l3.261,3.133c0.12,0.115,0.175,0.282,0.146,0.446
			l-0.771,4.433l4.049-2.098C33.342,37.206,33.42,37.188,33.5,37.188z"/>
	</g>
	<g>
		<rect x="12.5" y="25.75" class="st3" width="8" height="3"/>
		<path class="st0" d="M20.5,29.25h-8c-0.276,0-0.5-0.224-0.5-0.5v-3c0-0.276,0.224-0.5,0.5-0.5h8c0.276,0,0.5,0.224,0.5,0.5v3
			C21,29.026,20.776,29.25,20.5,29.25z M13,28.25h7v-2h-7V28.25z"/>
	</g>
	<g>
		<rect x="12.5" y="36.75" class="st3" width="8" height="3"/>
		<path class="st0" d="M20.5,40.25h-8c-0.276,0-0.5-0.224-0.5-0.5v-3c0-0.276,0.224-0.5,0.5-0.5h8c0.276,0,0.5,0.224,0.5,0.5v3
			C21,40.026,20.776,40.25,20.5,40.25z M13,39.25h7v-2h-7V39.25z"/>
	</g>
	<g>
		<rect x="46.5" y="25.75" class="st3" width="8" height="3"/>
		<path class="st0" d="M54.5,29.25h-8c-0.276,0-0.5-0.224-0.5-0.5v-3c0-0.276,0.224-0.5,0.5-0.5h8c0.276,0,0.5,0.224,0.5,0.5v3
			C55,29.026,54.776,29.25,54.5,29.25z M47,28.25h7v-2h-7V28.25z"/>
	</g>
	<g>
		<rect x="46.5" y="36.75" class="st3" width="8" height="3"/>
		<path class="st0" d="M54.5,40.25h-8c-0.276,0-0.5-0.224-0.5-0.5v-3c0-0.276,0.224-0.5,0.5-0.5h8c0.276,0,0.5,0.224,0.5,0.5v3
			C55,40.026,54.776,40.25,54.5,40.25z M47,39.25h7v-2h-7V39.25z"/>
	</g>
	<g>
		<path class="st0" d="M10.5,58.75h-2c-0.276,0-0.5-0.224-0.5-0.5s0.224-0.5,0.5-0.5h2c0.276,0,0.5,0.224,0.5,0.5
			S10.776,58.75,10.5,58.75z"/>
	</g>
	<g>
		<path class="st0" d="M27.5,58.75h-15c-0.276,0-0.5-0.224-0.5-0.5s0.224-0.5,0.5-0.5h15c0.276,0,0.5,0.224,0.5,0.5
			S27.776,58.75,27.5,58.75z"/>
	</g>
	<g>
		<path class="st0" d="M57.5,7.75h-2c-0.276,0-0.5-0.224-0.5-0.5s0.224-0.5,0.5-0.5h2c0.276,0,0.5,0.224,0.5,0.5
			S57.776,7.75,57.5,7.75z"/>
	</g>
	<g>
		<path class="st0" d="M53.5,7.75h-15c-0.276,0-0.5-0.224-0.5-0.5s0.224-0.5,0.5-0.5h15c0.276,0,0.5,0.224,0.5,0.5
			S53.776,7.75,53.5,7.75z"/>
	</g>
	<g>
		<path class="st0" d="M17.5,8.25h-4c-0.276,0-0.5-0.224-0.5-0.5s0.224-0.5,0.5-0.5h4c0.276,0,0.5,0.224,0.5,0.5
			S17.776,8.25,17.5,8.25z"/>
	</g>
	<g>
		<path class="st0" d="M15.5,10.25c-0.276,0-0.5-0.224-0.5-0.5v-4c0-0.276,0.224-0.5,0.5-0.5S16,5.474,16,5.75v4
			C16,10.026,15.776,10.25,15.5,10.25z"/>
	</g>
	<g>
		<path class="st0" d="M10.5,15.75h-4c-0.276,0-0.5-0.224-0.5-0.5s0.224-0.5,0.5-0.5h4c0.276,0,0.5,0.224,0.5,0.5
			S10.776,15.75,10.5,15.75z"/>
	</g>
	<g>
		<path class="st0" d="M8.5,17.75c-0.276,0-0.5-0.224-0.5-0.5v-4c0-0.276,0.224-0.5,0.5-0.5S9,12.974,9,13.25v4
			C9,17.526,8.776,17.75,8.5,17.75z"/>
	</g>
</g>
</svg>
