<?xml version="1.0" encoding="utf-8"?>
<!-- Generator: Adobe Illustrator 22.0.0, SVG Export Plug-In . SVG Version: 6.00 Build 0)  -->
<svg version="1.1" id="Icon_Set" xmlns="http://www.w3.org/2000/svg" xmlns:xlink="http://www.w3.org/1999/xlink" x="0px" y="0px"
	 viewBox="0 0 64 64" style="enable-background:new 0 0 64 64;" xml:space="preserve">
<style type="text/css">
	.st0{fill:#263238;}
	.st1{fill:#FFD740;}
	.st2{fill:#4FC3F7;}
	.st3{fill:#40C4FF;}
	.st4{fill:#FF5252;}
	.st5{fill:#FFFFFF;}
	.st6{fill:#212A41;}
	.st7{fill:#37474F;}
	.st8{fill:#4DB6AC;}
</style>
<g>
	<path class="st0" d="M6.5,56.5h-1C5.224,56.5,5,56.276,5,56s0.224-0.5,0.5-0.5h1C6.776,55.5,7,55.724,7,56S6.776,56.5,6.5,56.5z"/>
</g>
<g>
	<path class="st0" d="M15.5,56.5h-7C8.224,56.5,8,56.276,8,56s0.224-0.5,0.5-0.5h7c0.276,0,0.5,0.224,0.5,0.5S15.776,56.5,15.5,56.5
		z"/>
</g>
<g>
	<path class="st0" d="M51.353,56.5h-1c-0.276,0-0.5-0.224-0.5-0.5s0.224-0.5,0.5-0.5h1c0.276,0,0.5,0.224,0.5,0.5
		S51.629,56.5,51.353,56.5z"/>
</g>
<g>
	<path class="st0" d="M48.353,56.5h-7c-0.276,0-0.5-0.224-0.5-0.5s0.224-0.5,0.5-0.5h7c0.276,0,0.5,0.224,0.5,0.5
		S48.629,56.5,48.353,56.5z"/>
</g>
<g>
	<path class="st0" d="M58.5,13.5h-4c-0.276,0-0.5-0.224-0.5-0.5s0.224-0.5,0.5-0.5h4c0.276,0,0.5,0.224,0.5,0.5
		S58.776,13.5,58.5,13.5z"/>
</g>
<g>
	<path class="st0" d="M52,6.5h-4c-0.276,0-0.5-0.224-0.5-0.5s0.224-0.5,0.5-0.5h4c0.276,0,0.5,0.224,0.5,0.5S52.276,6.5,52,6.5z"/>
</g>
<g>
	<path class="st0" d="M50,8.5c-0.276,0-0.5-0.224-0.5-0.5V4c0-0.276,0.224-0.5,0.5-0.5s0.5,0.224,0.5,0.5v4
		C50.5,8.276,50.276,8.5,50,8.5z"/>
</g>
<g>
	<path class="st0" d="M56.5,15.5c-0.276,0-0.5-0.224-0.5-0.5v-4c0-0.276,0.224-0.5,0.5-0.5S57,10.724,57,11v4
		C57,15.276,56.776,15.5,56.5,15.5z"/>
</g>
<g>
	<polygon class="st1" points="25.353,12 23.353,20.5 31.853,17.5 	"/>
	<path class="st0" d="M23.353,21c-0.121,0-0.241-0.044-0.334-0.128c-0.136-0.122-0.195-0.309-0.153-0.487l2-8.5
		c0.04-0.169,0.165-0.306,0.33-0.36c0.166-0.056,0.347-0.02,0.479,0.093l6.5,5.5c0.137,0.116,0.201,0.296,0.169,0.472
		s-0.156,0.322-0.325,0.381l-8.5,3C23.465,20.991,23.409,21,23.353,21z M25.653,12.909l-1.604,6.815l6.815-2.405L25.653,12.909z"/>
</g>
<g>
	<polygon class="st1" points="25.353,12 37.353,12 31.853,17.5 	"/>
	<path class="st0" d="M31.853,18c-0.115,0-0.229-0.039-0.323-0.118l-6.5-5.5c-0.16-0.136-0.219-0.357-0.147-0.554
		c0.072-0.197,0.26-0.328,0.47-0.328h12c0.202,0,0.385,0.122,0.462,0.309c0.078,0.187,0.035,0.402-0.108,0.545l-5.5,5.5
		C32.109,17.951,31.981,18,31.853,18z M26.718,12.5l5.107,4.321l4.321-4.321H26.718z"/>
</g>
<g>
	<polygon class="st1" points="23.353,20.5 31.853,17.5 30.353,29.5 	"/>
	<path class="st0" d="M30.353,30c-0.152,0-0.298-0.069-0.395-0.193l-7-9c-0.099-0.127-0.13-0.293-0.085-0.448
		c0.045-0.154,0.162-0.277,0.313-0.331l8.5-3c0.162-0.057,0.345-0.026,0.48,0.082c0.135,0.109,0.204,0.28,0.183,0.452l-1.5,12
		c-0.025,0.201-0.168,0.367-0.363,0.42C30.442,29.994,30.397,30,30.353,30z M24.174,20.741l5.833,7.5l1.25-10L24.174,20.741z"/>
</g>
<g>
	<polygon class="st1" points="37.353,12 36.353,20.5 30.353,29.5 31.853,17.5 	"/>
	<path class="st0" d="M30.353,30c-0.059,0-0.117-0.01-0.174-0.031c-0.217-0.081-0.351-0.301-0.322-0.531l1.5-12
		c0.014-0.11,0.064-0.213,0.143-0.292l5.5-5.5c0.15-0.152,0.38-0.188,0.572-0.096c0.191,0.093,0.303,0.297,0.278,0.508l-1,8.5
		c-0.009,0.078-0.037,0.153-0.081,0.219l-6,9C30.674,29.919,30.517,30,30.353,30z M32.328,17.732l-1.216,9.728l4.759-7.138
		l0.817-6.95L32.328,17.732z"/>
</g>
<g>
	<polygon class="st1" points="36.353,20.5 39.853,27 30.353,29.5 	"/>
	<path class="st0" d="M30.353,30c-0.159,0-0.312-0.076-0.407-0.209c-0.121-0.169-0.125-0.395-0.009-0.568l6-9
		c0.097-0.146,0.267-0.233,0.439-0.222c0.175,0.008,0.333,0.108,0.417,0.263l3.5,6.5c0.072,0.135,0.079,0.295,0.018,0.436
		s-0.183,0.245-0.331,0.284l-9.5,2.5C30.438,29.995,30.396,30,30.353,30z M36.308,21.47L31.5,28.681l7.612-2.003L36.308,21.47z"/>
</g>
<g>
	<polygon class="st1" points="23.353,20.5 23.853,29.5 30.353,29.5 	"/>
	<path class="st0" d="M30.353,30h-6.5c-0.265,0-0.484-0.208-0.499-0.472l-0.5-9c-0.012-0.218,0.119-0.419,0.324-0.496
		c0.205-0.075,0.436-0.01,0.57,0.161l7,9c0.117,0.151,0.139,0.355,0.055,0.527S30.544,30,30.353,30z M24.326,29h5.004l-5.39-6.93
		L24.326,29z"/>
</g>
<g>
	<polygon class="st1" points="37.353,12 42.353,19 39.853,27 36.353,20.5 	"/>
	<path class="st0" d="M39.853,27.5c-0.183,0-0.353-0.1-0.44-0.263l-3.5-6.5c-0.048-0.09-0.068-0.193-0.056-0.295l1-8.5
		c0.024-0.205,0.172-0.374,0.372-0.426c0.201-0.051,0.412,0.026,0.531,0.194l5,7c0.091,0.127,0.117,0.29,0.07,0.439l-2.5,8
		c-0.06,0.192-0.229,0.33-0.429,0.349C39.885,27.499,39.869,27.5,39.853,27.5z M36.868,20.402l2.862,5.315l2.072-6.629l-4.104-5.745
		L36.868,20.402z"/>
</g>
<g>
	<polygon class="st1" points="25.353,12 18.353,16 23.353,20.5 	"/>
	<path class="st0" d="M23.353,21c-0.122,0-0.241-0.044-0.334-0.128l-5-4.5c-0.119-0.107-0.18-0.265-0.163-0.425
		s0.11-0.301,0.249-0.381l7-4c0.172-0.099,0.388-0.085,0.547,0.033c0.159,0.119,0.233,0.322,0.188,0.516l-2,8.5
		c-0.041,0.172-0.169,0.31-0.337,0.362C23.454,20.993,23.403,21,23.353,21z M19.202,16.091l3.858,3.473l1.543-6.559L19.202,16.091z"
		/>
</g>
<g>
	<polygon class="st1" points="23.853,29.5 17.353,25 23.353,20.5 	"/>
	<path class="st0" d="M23.853,30c-0.1,0-0.199-0.03-0.285-0.089l-6.5-4.5c-0.132-0.091-0.212-0.241-0.215-0.402
		c-0.003-0.161,0.071-0.313,0.2-0.409l6-4.5c0.147-0.111,0.345-0.13,0.511-0.053c0.167,0.078,0.278,0.241,0.288,0.425l0.5,9
		c0.011,0.191-0.088,0.371-0.255,0.464C24.021,29.979,23.937,30,23.853,30z M18.208,24.984l5.089,3.523l-0.391-7.046L18.208,24.984z
		"/>
</g>
<g>
	<polygon class="st1" points="23.853,29.5 22.853,35 30.353,29.5 	"/>
	<path class="st0" d="M22.853,35.5c-0.092,0-0.184-0.025-0.265-0.076c-0.173-0.108-0.263-0.312-0.227-0.513l1-5.5
		C23.404,29.173,23.611,29,23.853,29h6.5c0.216,0,0.408,0.139,0.475,0.344c0.067,0.206-0.005,0.431-0.179,0.559l-7.5,5.5
		C23.061,35.468,22.957,35.5,22.853,35.5z M24.271,30l-0.701,3.854L28.826,30H24.271z"/>
</g>
<g>
	<polygon class="st1" points="18.353,16 17.353,25 23.353,20.5 	"/>
	<path class="st0" d="M17.353,25.5c-0.085,0-0.171-0.022-0.248-0.066c-0.173-0.099-0.271-0.291-0.249-0.489l1-9
		c0.021-0.187,0.144-0.345,0.319-0.412c0.174-0.066,0.373-0.03,0.512,0.096l5,4.5c0.111,0.1,0.172,0.245,0.165,0.394
		s-0.08,0.288-0.2,0.377l-6,4.5C17.564,25.466,17.459,25.5,17.353,25.5z M18.742,17.023l-0.765,6.884l4.589-3.442L18.742,17.023z"/>
</g>
<g>
	<path class="st0" d="M36.353,60.5c-0.276,0-0.5-0.224-0.5-0.5v-9c0-0.276,0.224-0.5,0.5-0.5s0.5,0.224,0.5,0.5v9
		C36.853,60.276,36.629,60.5,36.353,60.5z"/>
</g>
<g>
	<path class="st0" d="M20.353,60.5c-0.276,0-0.5-0.224-0.5-0.5l-0.001-12.921c0-1.291-0.555-2.52-1.522-3.374l-1.54-1.359
		c-4.408-3.89-6.937-9.492-6.937-15.372V25c0-11.304,9.196-20.5,20.5-20.5c11.304,0,20.5,9.196,20.5,20.5v1.34l4.583,6.417
		c0.656,0.918,0.743,2.113,0.226,3.117c-0.517,1.003-1.539,1.627-2.667,1.627h-2.142v6c0,4.411-3.589,8-8,8h-11.5
		c-0.276,0-0.5-0.224-0.5-0.5s0.224-0.5,0.5-0.5h11.5c3.86,0,7-3.14,7-7V37c0-0.276,0.224-0.5,0.5-0.5h2.642
		c0.764,0,1.428-0.405,1.778-1.084c0.35-0.68,0.293-1.456-0.15-2.078l-4.676-6.547c-0.061-0.084-0.093-0.187-0.093-0.291V25
		c0-10.752-8.748-19.5-19.5-19.5s-19.5,8.748-19.5,19.5v1.975c0,5.592,2.405,10.922,6.598,14.622l1.54,1.359
		c1.183,1.043,1.861,2.546,1.861,4.124L20.853,60C20.853,60.276,20.629,60.5,20.353,60.5z"/>
</g>
</svg>
