<?xml version="1.0" encoding="utf-8"?>
<!-- Generator: Adobe Illustrator 22.0.0, SVG Export Plug-In . SVG Version: 6.00 Build 0)  -->
<svg version="1.1" id="Icon_Set" xmlns="http://www.w3.org/2000/svg" xmlns:xlink="http://www.w3.org/1999/xlink" x="0px" y="0px"
	 viewBox="0 0 64 64" style="enable-background:new 0 0 64 64;" xml:space="preserve">
<style type="text/css">
	.st0{fill:#263238;}
	.st1{fill:#FFD740;}
	.st2{fill:#4FC3F7;}
	.st3{fill:#40C4FF;}
	.st4{fill:#FF5252;}
	.st5{fill:#FFFFFF;}
	.st6{fill:#212A41;}
	.st7{fill:#37474F;}
	.st8{fill:#4DB6AC;}
</style>
<g>
	<g>
		<circle class="st1" cx="9.062" cy="31.5" r="4.5"/>
		<path class="st0" d="M9.062,36.5c-2.757,0-5-2.243-5-5s2.243-5,5-5s5,2.243,5,5S11.819,36.5,9.062,36.5z M9.062,27.5
			c-2.206,0-4,1.794-4,4s1.794,4,4,4s4-1.794,4-4S11.268,27.5,9.062,27.5z"/>
	</g>
	<g>
		<path class="st0" d="M9.062,33.5c-1.103,0-2-0.897-2-2s0.897-2,2-2s2,0.897,2,2S10.165,33.5,9.062,33.5z M9.062,30.5
			c-0.551,0-1,0.449-1,1s0.449,1,1,1s1-0.449,1-1S9.613,30.5,9.062,30.5z"/>
	</g>
	<g>
		<path class="st0" d="M6.125,54.5h-4c-0.153,0-0.298-0.07-0.393-0.19s-0.129-0.277-0.094-0.426l4.495-18.729
			c0.038-0.158,0.15-0.288,0.301-0.348c0.152-0.061,0.322-0.043,0.458,0.045c1.001,0.65,2.133,0.867,3.454,0.417
			c0.172-0.059,0.363-0.019,0.498,0.104s0.192,0.309,0.149,0.486L6.611,54.117C6.557,54.341,6.355,54.5,6.125,54.5z M2.759,53.5
			H5.73l4.096-17.067c-1.011,0.175-1.985,0.012-2.874-0.406L2.759,53.5z"/>
	</g>
	<g>
		<path class="st0" d="M19,34.5h-6.198c-0.185,0-0.354-0.102-0.441-0.265c-0.087-0.163-0.077-0.36,0.025-0.514
			c0.442-0.66,0.675-1.428,0.675-2.222s-0.233-1.562-0.675-2.222c-0.103-0.153-0.112-0.351-0.025-0.514
			c0.087-0.163,0.256-0.265,0.441-0.265H19c0.276,0,0.5,0.224,0.5,0.5s-0.224,0.5-0.5,0.5h-5.355c0.275,0.627,0.417,1.306,0.417,2
			s-0.143,1.373-0.417,2H19c0.276,0,0.5,0.224,0.5,0.5S19.276,34.5,19,34.5z"/>
	</g>
	<g>
		<circle class="st1" cx="54.938" cy="31.5" r="4.5"/>
		<path class="st0" d="M54.938,36.5c-2.757,0-5-2.243-5-5s2.243-5,5-5s5,2.243,5,5S57.695,36.5,54.938,36.5z M54.938,27.5
			c-2.206,0-4,1.794-4,4s1.794,4,4,4s4-1.794,4-4S57.144,27.5,54.938,27.5z"/>
	</g>
	<g>
		<path class="st0" d="M54.938,33.5c-1.103,0-2-0.897-2-2s0.897-2,2-2s2,0.897,2,2S56.041,33.5,54.938,33.5z M54.938,30.5
			c-0.551,0-1,0.449-1,1s0.449,1,1,1s1-0.449,1-1S55.489,30.5,54.938,30.5z"/>
	</g>
	<g>
		<path class="st0" d="M61.875,54.5h-4c-0.231,0-0.432-0.159-0.486-0.383l-4.382-18.258c-0.042-0.177,0.015-0.363,0.149-0.486
			c0.135-0.123,0.326-0.162,0.498-0.104c1.323,0.45,2.453,0.232,3.454-0.417c0.135-0.088,0.306-0.106,0.458-0.045
			c0.15,0.06,0.263,0.19,0.301,0.348l4.495,18.729c0.036,0.149,0.001,0.306-0.094,0.426S62.029,54.5,61.875,54.5z M58.27,53.5h2.972
			l-4.193-17.473c-0.889,0.418-1.865,0.582-2.874,0.406L58.27,53.5z"/>
	</g>
	<g>
		<path class="st0" d="M51.198,34.5H45c-0.276,0-0.5-0.224-0.5-0.5s0.224-0.5,0.5-0.5h5.355c-0.275-0.627-0.417-1.306-0.417-2
			s0.143-1.373,0.417-2H45c-0.276,0-0.5-0.224-0.5-0.5s0.224-0.5,0.5-0.5h6.198c0.185,0,0.354,0.102,0.441,0.265
			c0.087,0.163,0.077,0.36-0.025,0.514c-0.442,0.66-0.675,1.428-0.675,2.222s0.233,1.562,0.675,2.222
			c0.103,0.153,0.112,0.351,0.025,0.514C51.552,34.398,51.382,34.5,51.198,34.5z"/>
	</g>
	<g>
		<circle class="st3" cx="37" cy="22" r="3"/>
		<path class="st0" d="M37,25.5c-1.93,0-3.5-1.57-3.5-3.5s1.57-3.5,3.5-3.5s3.5,1.57,3.5,3.5S38.93,25.5,37,25.5z M37,19.5
			c-1.378,0-2.5,1.122-2.5,2.5s1.122,2.5,2.5,2.5s2.5-1.122,2.5-2.5S38.378,19.5,37,19.5z"/>
	</g>
	<g>
		<path class="st1" d="M34,22c0-0.772,0.3-1.468,0.779-2H20.5c-0.552,0-1,0.448-1,1v2c0,0.552,0.448,1,1,1h14.279
			C34.3,23.468,34,22.772,34,22z"/>
		<path class="st0" d="M34.778,24.5H20.5c-0.827,0-1.5-0.673-1.5-1.5v-2c0-0.827,0.673-1.5,1.5-1.5h14.278
			c0.197,0,0.376,0.116,0.457,0.296c0.081,0.181,0.047,0.391-0.085,0.538C34.731,20.8,34.5,21.392,34.5,22s0.231,1.2,0.65,1.666
			c0.132,0.147,0.166,0.357,0.085,0.538C35.155,24.384,34.976,24.5,34.778,24.5z M20.5,20.5c-0.276,0-0.5,0.224-0.5,0.5v2
			c0,0.276,0.224,0.5,0.5,0.5h13.345C33.62,23.033,33.5,22.521,33.5,22s0.12-1.033,0.345-1.5H20.5z"/>
	</g>
	<g>
		<path class="st1" d="M43.5,20h-4.279C39.7,20.532,40,21.228,40,22s-0.3,1.468-0.779,2H43.5c0.552,0,1-0.448,1-1v-2
			C44.5,20.448,44.052,20,43.5,20z"/>
		<path class="st0" d="M43.5,24.5h-4.278c-0.197,0-0.376-0.116-0.457-0.296c-0.081-0.181-0.047-0.391,0.085-0.538
			C39.269,23.2,39.5,22.608,39.5,22s-0.231-1.2-0.65-1.666c-0.132-0.147-0.166-0.357-0.085-0.538c0.08-0.18,0.259-0.296,0.457-0.296
			H43.5c0.827,0,1.5,0.673,1.5,1.5v2C45,23.827,44.327,24.5,43.5,24.5z M40.155,23.5H43.5c0.276,0,0.5-0.224,0.5-0.5v-2
			c0-0.276-0.224-0.5-0.5-0.5h-3.345C40.38,20.967,40.5,21.479,40.5,22S40.38,23.033,40.155,23.5z"/>
	</g>
	<g>
		<path class="st0" d="M34,54.5h-4c-0.276,0-0.5-0.224-0.5-0.5V34c0-0.276,0.224-0.5,0.5-0.5h4c0.276,0,0.5,0.224,0.5,0.5v20
			C34.5,54.276,34.277,54.5,34,54.5z M30.5,53.5h3v-19h-3V53.5z"/>
	</g>
	<g>
		<path class="st0" d="M40.5,38H36c-0.276,0-0.5-0.224-0.5-0.5S35.724,37,36,37h4.5c1.103,0,2-0.897,2-2V24.5h-3.278
			c-0.197,0-0.376-0.116-0.457-0.296c-0.081-0.181-0.047-0.391,0.085-0.538C39.269,23.2,39.5,22.608,39.5,22s-0.231-1.2-0.65-1.666
			c-0.132-0.147-0.166-0.357-0.085-0.538c0.08-0.18,0.259-0.296,0.457-0.296h3.265c-0.261-5.007-4.417-9-9.487-9h-2
			c-5.07,0-9.226,3.993-9.487,9h13.265c0.197,0,0.376,0.116,0.457,0.296c0.081,0.181,0.047,0.391-0.085,0.538
			C34.731,20.8,34.5,21.392,34.5,22s0.231,1.2,0.65,1.666c0.132,0.147,0.166,0.357,0.085,0.538c-0.08,0.18-0.259,0.296-0.457,0.296
			H21.5V35c0,1.103,0.897,2,2,2H28c0.276,0,0.5,0.224,0.5,0.5S28.277,38,28,38h-4.5c-1.654,0-3-1.346-3-3V24
			c0-0.276,0.224-0.5,0.5-0.5h12.845C33.62,23.033,33.5,22.521,33.5,22s0.12-1.033,0.345-1.5H21c-0.276,0-0.5-0.224-0.5-0.5
			c0-5.79,4.71-10.5,10.5-10.5h2c5.79,0,10.5,4.71,10.5,10.5c0,0.276-0.224,0.5-0.5,0.5h-2.845C40.38,20.967,40.5,21.479,40.5,22
			s-0.12,1.033-0.345,1.5H43c0.276,0,0.5,0.224,0.5,0.5v11C43.5,36.654,42.154,38,40.5,38z"/>
	</g>
	<g>
		<path class="st3" d="M28,14h8l1.468-2.937C36.122,10.389,34.608,10,33,10h-2c-1.608,0-3.122,0.389-4.468,1.063L28,14z"/>
		<path class="st0" d="M36,14.5h-8c-0.189,0-0.362-0.107-0.447-0.276l-1.468-2.937c-0.124-0.247-0.023-0.547,0.223-0.671
			C27.786,9.875,29.365,9.5,31,9.5h2c1.635,0,3.214,0.375,4.692,1.116c0.247,0.124,0.347,0.424,0.223,0.671l-1.468,2.937
			C36.362,14.393,36.189,14.5,36,14.5z M28.309,13.5h7.382l1.101-2.203C35.586,10.768,34.313,10.5,33,10.5h-2
			c-1.313,0-2.586,0.268-3.792,0.797L28.309,13.5z"/>
	</g>
	<g>
		<path class="st0" d="M35,34.5h-6c-0.276,0-0.5-0.224-0.5-0.5v-5c0-0.276,0.224-0.5,0.5-0.5h6c0.276,0,0.5,0.224,0.5,0.5v5
			C35.5,34.276,35.276,34.5,35,34.5z M29.5,33.5h5v-4h-5V33.5z"/>
	</g>
	<g>
		<path class="st0" d="M14,15h-4c-0.276,0-0.5-0.224-0.5-0.5S9.724,14,10,14h4c0.276,0,0.5,0.224,0.5,0.5S14.276,15,14,15z"/>
	</g>
	<g>
		<path class="st0" d="M18,8.5h-4c-0.276,0-0.5-0.224-0.5-0.5s0.224-0.5,0.5-0.5h4c0.276,0,0.5,0.224,0.5,0.5S18.276,8.5,18,8.5z"/>
	</g>
	<g>
		<path class="st0" d="M16,10.5c-0.276,0-0.5-0.224-0.5-0.5V6c0-0.276,0.224-0.5,0.5-0.5s0.5,0.224,0.5,0.5v4
			C16.5,10.276,16.276,10.5,16,10.5z"/>
	</g>
	<g>
		<path class="st0" d="M12,17c-0.276,0-0.5-0.224-0.5-0.5v-4c0-0.276,0.224-0.5,0.5-0.5s0.5,0.224,0.5,0.5v4
			C12.5,16.776,12.276,17,12,17z"/>
	</g>
	<g>
		<path class="st0" d="M13.391,58.5h-1c-0.276,0-0.5-0.224-0.5-0.5s0.224-0.5,0.5-0.5h1c0.276,0,0.5,0.224,0.5,0.5
			S13.667,58.5,13.391,58.5z"/>
	</g>
	<g>
		<path class="st0" d="M25.891,58.5h-10.5c-0.276,0-0.5-0.224-0.5-0.5s0.224-0.5,0.5-0.5h10.5c0.276,0,0.5,0.224,0.5,0.5
			S26.167,58.5,25.891,58.5z"/>
	</g>
	<g>
		<path class="st0" d="M51.609,58.5h-1c-0.276,0-0.5-0.224-0.5-0.5s0.224-0.5,0.5-0.5h1c0.276,0,0.5,0.224,0.5,0.5
			S51.886,58.5,51.609,58.5z"/>
	</g>
	<g>
		<path class="st0" d="M48.609,58.5h-10.5c-0.276,0-0.5-0.224-0.5-0.5s0.224-0.5,0.5-0.5h10.5c0.276,0,0.5,0.224,0.5,0.5
			S48.886,58.5,48.609,58.5z"/>
	</g>
</g>
</svg>
