<?xml version="1.0" encoding="utf-8"?>
<!-- Generator: Adobe Illustrator 22.0.0, SVG Export Plug-In . SVG Version: 6.00 Build 0)  -->
<svg version="1.1" id="Icon_Set" xmlns="http://www.w3.org/2000/svg" xmlns:xlink="http://www.w3.org/1999/xlink" x="0px" y="0px"
	 viewBox="0 0 64 64" style="enable-background:new 0 0 64 64;" xml:space="preserve">
<style type="text/css">
	.st0{fill:#263238;}
	.st1{fill:#FFD740;}
	.st2{fill:#4FC3F7;}
	.st3{fill:#40C4FF;}
	.st4{fill:#FF5252;}
	.st5{fill:#FFFFFF;}
	.st6{fill:#212A41;}
	.st7{fill:#37474F;}
	.st8{fill:#4DB6AC;}
</style>
<g>
	<g>
		<path class="st0" d="M17,60.5c-0.177,0-0.348-0.094-0.438-0.259c-0.133-0.242-0.045-0.546,0.197-0.679l2.229-1.226
			c4.633-2.548,7.512-7.417,7.512-12.706V35c0-0.276,0.224-0.5,0.5-0.5s0.5,0.224,0.5,0.5v10.631c0,5.653-3.077,10.857-8.03,13.582
			l-2.229,1.226C17.165,60.48,17.082,60.5,17,60.5z"/>
	</g>
	<g>
		<path class="st0" d="M47,60.5c-0.082,0-0.164-0.02-0.24-0.062l-2.229-1.226c-4.954-2.724-8.031-7.928-8.031-13.582V35
			c0-0.276,0.224-0.5,0.5-0.5s0.5,0.224,0.5,0.5v10.631c0,5.289,2.878,10.157,7.512,12.706l2.229,1.226
			c0.242,0.133,0.331,0.437,0.197,0.679C47.347,60.406,47.176,60.5,47,60.5z"/>
	</g>
	<g>
		<path class="st0" d="M12.5,60.5c-0.276,0-0.5-0.224-0.5-0.5c0-6.893,5.607-12.5,12.5-12.5c0.064,0,0.127,0.004,0.189,0.009
			c0.276,0.007,0.543,0.24,0.536,0.516c-0.007,0.276-0.192,0.5-0.464,0.49L24.5,48.5C18.159,48.5,13,53.659,13,60
			C13,60.276,12.776,60.5,12.5,60.5z"/>
	</g>
	<g>
		<path class="st0" d="M51.5,60.5c-0.276,0-0.5-0.224-0.5-0.5c0-6.341-5.159-11.5-11.5-11.5l-0.261,0.014
			c-0.285,0.001-0.506-0.211-0.513-0.487s0.211-0.506,0.487-0.513c0.161-0.01,0.224-0.014,0.287-0.014C46.393,47.5,52,53.107,52,60
			C52,60.276,51.776,60.5,51.5,60.5z"/>
	</g>
	<g>
		<path class="st0" d="M2.5,60.5C2.224,60.5,2,60.276,2,60c0-5.238,4.262-9.5,9.5-9.5c0.734,0,1.476,0.089,2.205,0.264
			c0.269,0.065,0.434,0.335,0.37,0.603c-0.065,0.269-0.338,0.43-0.603,0.37C12.819,51.58,12.155,51.5,11.5,51.5
			C6.813,51.5,3,55.313,3,60C3,60.276,2.776,60.5,2.5,60.5z"/>
	</g>
	<g>
		<path class="st0" d="M61.5,60.5c-0.276,0-0.5-0.224-0.5-0.5c0-4.687-3.813-8.5-8.5-8.5c-0.655,0-1.318,0.08-1.971,0.237
			c-0.265,0.063-0.538-0.101-0.603-0.37c-0.064-0.268,0.101-0.538,0.37-0.603c0.729-0.175,1.471-0.264,2.205-0.264
			c5.238,0,9.5,4.262,9.5,9.5C62,60.276,61.776,60.5,61.5,60.5z"/>
	</g>
	<g>
		<path class="st1" d="M54.5,10c-0.64,0-1.263,0.069-1.865,0.196C50.495,8.218,47.644,7,44.5,7c-1.038,0-2.04,0.146-3.001,0.394
			C38.912,5.274,35.606,4,32,4s-6.912,1.274-9.499,3.394C21.54,7.146,20.539,7,19.5,7c-3.143,0-5.995,1.218-8.135,3.196
			C10.763,10.069,10.14,10,9.5,10c-4.971,0-9,4.029-9,9c0,4.971,4.029,9,9,9c0.64,0,1.263-0.069,1.865-0.196
			C13.505,29.782,16.357,31,19.5,31c1.038,0,2.04-0.146,3.001-0.394C25.088,32.726,28.395,34,32,34s6.912-1.274,9.499-3.394
			C42.46,30.854,43.462,31,44.5,31c3.143,0,5.995-1.218,8.135-3.196C53.237,27.931,53.86,28,54.5,28c4.971,0,9-4.029,9-9
			C63.5,14.03,59.471,10,54.5,10z"/>
	</g>
	<g>
		<path class="st0" d="M18.142,13.76c-0.064,0-0.129-0.012-0.191-0.038c-0.255-0.105-0.376-0.398-0.271-0.653
			c1.584-3.825,4.563-6.804,8.388-8.389c0.255-0.104,0.548,0.016,0.653,0.271c0.105,0.255-0.016,0.548-0.271,0.653
			c-3.579,1.482-6.365,4.269-7.847,7.848C18.524,13.644,18.338,13.76,18.142,13.76z"/>
	</g>
	<g>
		<path class="st0" d="M9.5,28.496c-2.433,0-4.865-0.926-6.717-2.778c-3.704-3.704-3.704-9.731,0-13.435
			c0.195-0.195,0.512-0.195,0.707,0s0.195,0.512,0,0.707c-3.314,3.314-3.314,8.707,0,12.021c3.315,3.315,8.707,3.314,12.021,0
			c0.195-0.195,0.512-0.195,0.707,0s0.195,0.512,0,0.707C14.366,27.57,11.933,28.496,9.5,28.496z"/>
	</g>
	<g>
		<path class="st0" d="M19.5,31.5c-3.339,0-6.479-1.3-8.839-3.661C8.3,25.478,7,22.339,7,19c0-3.339,1.3-6.478,3.661-8.839
			C13.022,7.8,16.161,6.5,19.5,6.5c3.339,0,6.478,1.3,8.838,3.661c0.195,0.195,0.195,0.512,0,0.707s-0.512,0.195-0.707,0
			c-4.484-4.484-11.781-4.483-16.263,0C9.196,13.041,8,15.928,8,19s1.196,5.96,3.368,8.132c2.171,2.172,5.06,3.368,8.132,3.368
			c3.072,0,5.96-1.196,8.131-3.368c0.195-0.195,0.512-0.195,0.707,0s0.195,0.512,0,0.707C25.979,30.2,22.84,31.5,19.5,31.5z"/>
	</g>
	<g>
		<path class="st0" d="M60.864,25.864c-0.128,0-0.256-0.049-0.354-0.146c-0.195-0.195-0.195-0.512,0-0.707
			c3.314-3.314,3.314-8.707,0-12.021s-8.706-3.314-12.021,0c-0.195,0.195-0.512,0.195-0.707,0s-0.195-0.512,0-0.707
			c3.705-3.704,9.731-3.704,13.435,0c3.704,3.704,3.704,9.731,0,13.435C61.12,25.815,60.992,25.864,60.864,25.864z"/>
	</g>
	<g>
		<path class="st0" d="M44.5,31.5c-3.339,0-6.478-1.301-8.838-3.662c-0.195-0.195-0.195-0.512,0-0.707s0.512-0.195,0.707,0
			c2.172,2.172,5.06,3.369,8.131,3.369c3.072,0,5.96-1.196,8.132-3.369C54.804,24.96,56,22.072,56,19s-1.196-5.959-3.368-8.132
			C50.46,8.696,47.572,7.5,44.5,7.5s-5.959,1.196-8.131,3.368c-0.195,0.195-0.512,0.195-0.707,0s-0.195-0.512,0-0.707
			C38.022,7.8,41.161,6.5,44.5,6.5s6.478,1.3,8.839,3.661C55.7,12.522,57,15.661,57,19c0,3.339-1.3,6.478-3.661,8.839
			S47.839,31.5,44.5,31.5z"/>
	</g>
	<g>
		<path class="st0" d="M38.241,33.358c-0.196,0-0.382-0.116-0.462-0.309c-0.105-0.255,0.016-0.548,0.271-0.653
			c3.579-1.482,6.365-4.27,7.847-7.848c0.105-0.255,0.4-0.376,0.653-0.271c0.255,0.105,0.376,0.398,0.271,0.653
			c-1.584,3.825-4.563,6.804-8.388,8.389C38.37,33.346,38.305,33.358,38.241,33.358z"/>
	</g>
	<g>
		<path class="st0" d="M63.5,60.5h-22c-0.276,0-0.5-0.224-0.5-0.5s0.224-0.5,0.5-0.5h22c0.276,0,0.5,0.224,0.5,0.5
			S63.776,60.5,63.5,60.5z"/>
	</g>
	<g>
		<path class="st0" d="M38.5,60.5h-3c-0.276,0-0.5-0.224-0.5-0.5s0.224-0.5,0.5-0.5h3c0.276,0,0.5,0.224,0.5,0.5
			S38.777,60.5,38.5,60.5z"/>
	</g>
	<g>
		<path class="st0" d="M32.5,60.5h-32C0.224,60.5,0,60.276,0,60s0.224-0.5,0.5-0.5h32c0.276,0,0.5,0.224,0.5,0.5
			S32.777,60.5,32.5,60.5z"/>
	</g>
	<g>
		<path class="st0" d="M39.5,40.5h-15c-0.276,0-0.5-0.224-0.5-0.5s0.224-0.5,0.5-0.5h15c0.276,0,0.5,0.224,0.5,0.5
			S39.776,40.5,39.5,40.5z"/>
	</g>
	<g>
		<path class="st0" d="M22,40.5h-2c-0.276,0-0.5-0.224-0.5-0.5s0.224-0.5,0.5-0.5h2c0.276,0,0.5,0.224,0.5,0.5S22.276,40.5,22,40.5z
			"/>
	</g>
</g>
</svg>
