<?xml version="1.0" encoding="utf-8"?>
<!-- Generator: Adobe Illustrator 22.0.0, SVG Export Plug-In . SVG Version: 6.00 Build 0)  -->
<svg version="1.1" id="Icon_Set" xmlns="http://www.w3.org/2000/svg" xmlns:xlink="http://www.w3.org/1999/xlink" x="0px" y="0px"
	 viewBox="0 0 64 64" style="enable-background:new 0 0 64 64;" xml:space="preserve">
<style type="text/css">
	.st0{fill:#263238;}
	.st1{fill:#FFD740;}
	.st2{fill:#4FC3F7;}
	.st3{fill:#40C4FF;}
	.st4{fill:#FF5252;}
	.st5{fill:#FFFFFF;}
	.st6{fill:#212A41;}
	.st7{fill:#37474F;}
	.st8{fill:#4DB6AC;}
</style>
<g>
	<g>
		<path class="st1" d="M33.945,50.24c-0.905-0.548-1.445-1.507-1.445-2.565v-3.438c-3.19-2.618-5-6.18-5-9.911
			c0-4.64,2.766-8.748,7-11.297V16.5h-30v38h30v-4.019C34.311,50.413,34.122,50.347,33.945,50.24z"/>
	</g>
	<g>
		<path class="st5" d="M32.5,47.674v-3.438c-0.56-0.459-1.06-0.957-1.533-1.47L19.5,48.5L4.5,41v13.5h30v-4.019
			c-0.189-0.068-0.378-0.134-0.555-0.241C33.04,49.691,32.5,48.732,32.5,47.674z"/>
	</g>
	<g>
		<path class="st0" d="M34.5,55h-30C4.224,55,4,54.776,4,54.5V41c0-0.173,0.09-0.334,0.237-0.425
			c0.147-0.092,0.331-0.099,0.486-0.022L19.5,47.941l11.244-5.622c0.246-0.123,0.547-0.023,0.671,0.224
			c0.124,0.247,0.023,0.547-0.224,0.671l-11.467,5.734c-0.141,0.07-0.307,0.07-0.447,0L5,41.809V54h29v-3.519
			c0-0.276,0.224-0.5,0.5-0.5s0.5,0.224,0.5,0.5V54.5C35,54.776,34.776,55,34.5,55z"/>
	</g>
	<g>
		<path class="st0" d="M22.5,14.5h-6c-0.276,0-0.5-0.224-0.5-0.5s0.224-0.5,0.5-0.5h6c0.276,0,0.5,0.224,0.5,0.5
			S22.776,14.5,22.5,14.5z"/>
	</g>
	<g>
		<path class="st0" d="M19.5,60c-1.654,0-3-1.346-3-3s1.346-3,3-3s3,1.346,3,3S21.154,60,19.5,60z M19.5,55c-1.103,0-2,0.897-2,2
			s0.897,2,2,2s2-0.897,2-2S20.603,55,19.5,55z"/>
	</g>
	<g>
		<path class="st0" d="M14.5,27.5c-1.103,0-2-0.897-2-2s0.897-2,2-2s2,0.897,2,2S15.603,27.5,14.5,27.5z M14.5,24.5
			c-0.551,0-1,0.449-1,1s0.449,1,1,1s1-0.449,1-1S15.051,24.5,14.5,24.5z"/>
	</g>
	<g>
		<path class="st0" d="M24.5,27.5c-1.103,0-2-0.897-2-2s0.897-2,2-2s2,0.897,2,2S25.603,27.5,24.5,27.5z M24.5,24.5
			c-0.551,0-1,0.449-1,1s0.449,1,1,1s1-0.449,1-1S25.051,24.5,24.5,24.5z"/>
	</g>
	<g>
		<path class="st0" d="M19.5,37c-1.87,0-3.627-0.728-4.95-2.05c-0.195-0.195-0.195-0.512,0-0.707s0.512-0.195,0.707,0
			c2.34,2.339,6.146,2.339,8.485,0c0.195-0.195,0.512-0.195,0.707,0s0.195,0.512,0,0.707C23.127,36.272,21.37,37,19.5,37z"/>
	</g>
	<g>
		<path class="st3" d="M44.5,22.324c-8.284,0-15,5.373-15,12c0,3.55,1.938,6.729,5,8.926v4.423c0,0.751,0.797,1.234,1.463,0.886
			l4.965-2.593c1.147,0.225,2.339,0.357,3.572,0.357c8.284,0,15-5.373,15-12C59.5,27.697,52.784,22.324,44.5,22.324z"/>
		<path class="st0" d="M35.5,49.176c-0.269,0-0.537-0.073-0.777-0.219C34.27,48.683,34,48.203,34,47.674v-4.169
			c-3.181-2.367-5-5.7-5-9.18c0-6.893,6.953-12.5,15.5-12.5S60,27.432,60,34.325s-6.953,12.5-15.5,12.5
			c-1.138,0-2.312-0.112-3.495-0.333l-4.811,2.512C35.975,49.119,35.736,49.176,35.5,49.176z M44.5,22.825
			c-7.995,0-14.5,5.159-14.5,11.5c0,3.229,1.747,6.335,4.792,8.52C34.922,42.938,35,43.09,35,43.251v4.423
			c0,0.254,0.168,0.383,0.241,0.427c0.072,0.043,0.266,0.133,0.491,0.016l4.965-2.593c0.1-0.053,0.216-0.071,0.328-0.047
			c1.177,0.23,2.347,0.348,3.476,0.348c7.995,0,14.5-5.159,14.5-11.5S52.495,22.825,44.5,22.825z"/>
	</g>
	<g>
		<path class="st0" d="M32,60H7c-1.654,0-3-1.346-3-3V14c0-1.654,1.346-3,3-3h25c1.654,0,3,1.346,3,3v9.028
			c0,0.276-0.224,0.5-0.5,0.5s-0.5-0.224-0.5-0.5V14c0-1.103-0.897-2-2-2H7c-1.103,0-2,0.897-2,2v43c0,1.103,0.897,2,2,2h25
			c1.103,0,2-0.897,2-2v-6.519c0-0.276,0.224-0.5,0.5-0.5s0.5,0.224,0.5,0.5V57C35,58.654,33.654,60,32,60z"/>
	</g>
	<g>
		<path class="st7" d="M52.5,30.325h-16c-0.276,0-0.5-0.224-0.5-0.5s0.224-0.5,0.5-0.5h16c0.276,0,0.5,0.224,0.5,0.5
			S52.776,30.325,52.5,30.325z"/>
	</g>
	<g>
		<path class="st7" d="M52.5,34.825h-16c-0.276,0-0.5-0.224-0.5-0.5s0.224-0.5,0.5-0.5h16c0.276,0,0.5,0.224,0.5,0.5
			S52.776,34.825,52.5,34.825z"/>
	</g>
	<g>
		<path class="st7" d="M44.5,39.325h-8c-0.276,0-0.5-0.224-0.5-0.5s0.224-0.5,0.5-0.5h8c0.276,0,0.5,0.224,0.5,0.5
			S44.776,39.325,44.5,39.325z"/>
	</g>
	<g>
		<path class="st0" d="M12.5,52.5c-0.091,0-0.183-0.025-0.263-0.075C12.09,52.334,12,52.173,12,52v-7
			c0-0.173,0.09-0.334,0.237-0.425s0.332-0.099,0.486-0.022l7,3.5C19.893,48.138,20,48.311,20,48.5s-0.107,0.362-0.276,0.447l-7,3.5
			C12.653,52.482,12.577,52.5,12.5,52.5z M13,45.809v5.382l5.382-2.691L13,45.809z"/>
	</g>
	<g>
		<path class="st0" d="M26.5,52.5c-0.077,0-0.153-0.018-0.224-0.053l-7-3.5C19.107,48.862,19,48.689,19,48.5
			s0.107-0.362,0.276-0.447l7-3.5c0.155-0.077,0.339-0.069,0.486,0.022S27,44.827,27,45v7c0,0.173-0.09,0.334-0.237,0.425
			C26.683,52.475,26.591,52.5,26.5,52.5z M20.618,48.5L26,51.191v-5.382L20.618,48.5z"/>
	</g>
	<g>
		<path class="st0" d="M34.5,17h-30C4.224,17,4,16.776,4,16.5S4.224,16,4.5,16h30c0.276,0,0.5,0.224,0.5,0.5S34.776,17,34.5,17z"/>
	</g>
	<g>
		<path class="st0" d="M41.5,52.175h-1c-0.276,0-0.5-0.224-0.5-0.5s0.224-0.5,0.5-0.5h1c0.276,0,0.5,0.224,0.5,0.5
			S41.776,52.175,41.5,52.175z"/>
	</g>
	<g>
		<path class="st0" d="M54.5,52.175h-11c-0.276,0-0.5-0.224-0.5-0.5s0.224-0.5,0.5-0.5h11c0.276,0,0.5,0.224,0.5,0.5
			S54.776,52.175,54.5,52.175z"/>
	</g>
	<g>
		<path class="st0" d="M42.5,7h-4C38.224,7,38,6.776,38,6.5S38.224,6,38.5,6h4C42.776,6,43,6.224,43,6.5S42.776,7,42.5,7z"/>
	</g>
	<g>
		<path class="st0" d="M40.5,9C40.224,9,40,8.776,40,8.5v-4C40,4.224,40.224,4,40.5,4S41,4.224,41,4.5v4C41,8.776,40.776,9,40.5,9z"
			/>
	</g>
	<g>
		<path class="st0" d="M49,14.5h-4c-0.276,0-0.5-0.224-0.5-0.5s0.224-0.5,0.5-0.5h4c0.276,0,0.5,0.224,0.5,0.5S49.276,14.5,49,14.5z
			"/>
	</g>
	<g>
		<path class="st0" d="M47,16.5c-0.276,0-0.5-0.224-0.5-0.5v-4c0-0.276,0.224-0.5,0.5-0.5s0.5,0.224,0.5,0.5v4
			C47.5,16.276,47.276,16.5,47,16.5z"/>
	</g>
</g>
</svg>
