<?xml version="1.0" encoding="utf-8"?>
<!-- Generator: Adobe Illustrator 22.0.0, SVG Export Plug-In . SVG Version: 6.00 Build 0)  -->
<svg version="1.1" id="Icon_Set" xmlns="http://www.w3.org/2000/svg" xmlns:xlink="http://www.w3.org/1999/xlink" x="0px" y="0px"
	 viewBox="0 0 64 64" style="enable-background:new 0 0 64 64;" xml:space="preserve">
<style type="text/css">
	.st0{fill:#263238;}
	.st1{fill:#FFD740;}
	.st2{fill:#4FC3F7;}
	.st3{fill:#40C4FF;}
	.st4{fill:#FF5252;}
	.st5{fill:#FFFFFF;}
	.st6{fill:#212A41;}
	.st7{fill:#37474F;}
	.st8{fill:#4DB6AC;}
</style>
<g>
	<g>
		<path class="st0" d="M45,38.5H19c-0.276,0-0.5-0.224-0.5-0.5v-8c0-0.276,0.224-0.5,0.5-0.5h26c0.276,0,0.5,0.224,0.5,0.5v8
			C45.5,38.276,45.276,38.5,45,38.5z M19.5,37.5h25v-7h-25V37.5z"/>
	</g>
	<g>
		<circle class="st3" cx="39" cy="23" r="3"/>
		<path class="st0" d="M39,26.5c-1.93,0-3.5-1.57-3.5-3.5s1.57-3.5,3.5-3.5s3.5,1.57,3.5,3.5S40.93,26.5,39,26.5z M39,20.5
			c-1.378,0-2.5,1.122-2.5,2.5s1.122,2.5,2.5,2.5s2.5-1.122,2.5-2.5S40.378,20.5,39,20.5z"/>
	</g>
	<g>
		<path class="st1" d="M36,23c0-0.772,0.3-1.468,0.779-2H18.5c-0.552,0-1,0.448-1,1v2c0,0.552,0.448,1,1,1h18.279
			C36.299,24.468,36,23.772,36,23z"/>
		<path class="st0" d="M36.778,25.5H18.5c-0.827,0-1.5-0.673-1.5-1.5v-2c0-0.827,0.673-1.5,1.5-1.5h18.279
			c0.197,0,0.376,0.116,0.457,0.297c0.08,0.18,0.047,0.391-0.085,0.538C36.73,21.8,36.5,22.392,36.5,23s0.231,1.2,0.65,1.666
			c0.132,0.146,0.166,0.357,0.085,0.538C37.155,25.384,36.976,25.5,36.778,25.5z M18.5,21.5c-0.276,0-0.5,0.224-0.5,0.5v2
			c0,0.276,0.224,0.5,0.5,0.5h17.345C35.619,24.033,35.5,23.521,35.5,23s0.12-1.033,0.345-1.5H18.5z"/>
	</g>
	<g>
		<path class="st1" d="M45.5,21h-4.279C41.7,21.532,42,22.228,42,23s-0.3,1.468-0.779,2H45.5c0.552,0,1-0.448,1-1v-2
			C46.5,21.448,46.052,21,45.5,21z"/>
		<path class="st0" d="M45.5,25.5h-4.278c-0.197,0-0.376-0.116-0.457-0.297c-0.08-0.18-0.047-0.391,0.085-0.538
			C41.269,24.2,41.5,23.609,41.5,23s-0.231-1.2-0.65-1.666c-0.132-0.146-0.166-0.357-0.085-0.538
			c0.081-0.181,0.26-0.297,0.457-0.297H45.5c0.827,0,1.5,0.673,1.5,1.5v2C47,24.827,46.327,25.5,45.5,25.5z M42.154,24.5H45.5
			c0.276,0,0.5-0.224,0.5-0.5v-2c0-0.276-0.224-0.5-0.5-0.5h-3.345C42.38,21.967,42.5,22.479,42.5,23S42.38,24.033,42.154,24.5z"/>
	</g>
	<g>
		<path class="st0" d="M42.5,51h-21c-1.654,0-3-1.346-3-3V25c0-0.276,0.224-0.5,0.5-0.5h16.845C35.619,24.033,35.5,23.521,35.5,23
			s0.12-1.033,0.345-1.5H19c-0.276,0-0.5-0.224-0.5-0.5c0-5.79,4.71-10.5,10.5-10.5h6c5.79,0,10.5,4.71,10.5,10.5
			c0,0.276-0.224,0.5-0.5,0.5h-2.845C42.38,21.967,42.5,22.479,42.5,23s-0.12,1.033-0.345,1.5H45c0.276,0,0.5,0.224,0.5,0.5v23
			C45.5,49.654,44.154,51,42.5,51z M19.5,25.5V48c0,1.103,0.897,2,2,2h21c1.103,0,2-0.897,2-2V25.5h-3.278
			c-0.197,0-0.376-0.116-0.457-0.297c-0.08-0.18-0.047-0.391,0.085-0.538C41.269,24.2,41.5,23.609,41.5,23s-0.231-1.2-0.65-1.666
			c-0.132-0.146-0.166-0.357-0.085-0.538c0.081-0.181,0.26-0.297,0.457-0.297h3.265c-0.261-5.007-4.417-9-9.487-9h-6
			c-5.07,0-9.226,3.993-9.487,9h17.266c0.197,0,0.376,0.116,0.457,0.297c0.08,0.18,0.047,0.391-0.085,0.538
			C36.73,21.8,36.5,22.392,36.5,23s0.231,1.2,0.65,1.666c0.132,0.146,0.166,0.357,0.085,0.538c-0.081,0.181-0.26,0.297-0.457,0.297
			H19.5z"/>
	</g>
	<g>
		<path class="st3" d="M26,15h12l1.468-2.937C38.122,11.389,36.608,11,35,11h-6c-1.608,0-3.122,0.389-4.468,1.063L26,15z"/>
		<path class="st0" d="M38,15.5H26c-0.189,0-0.362-0.107-0.447-0.276l-1.468-2.937c-0.124-0.247-0.023-0.547,0.223-0.67
			C25.785,10.875,27.364,10.5,29,10.5h6c1.636,0,3.215,0.375,4.693,1.117c0.247,0.124,0.347,0.424,0.223,0.67l-1.469,2.937
			C38.362,15.393,38.189,15.5,38,15.5z M26.309,14.5H37.69l1.102-2.202C37.586,11.768,36.313,11.5,35,11.5h-6
			c-1.313,0-2.586,0.268-3.792,0.798L26.309,14.5z"/>
	</g>
	<g>
		<path class="st0" d="M14,16h-4c-0.276,0-0.5-0.224-0.5-0.5S9.723,15,10,15h4c0.276,0,0.5,0.224,0.5,0.5S14.276,16,14,16z"/>
	</g>
	<g>
		<path class="st0" d="M18,9.5h-4c-0.276,0-0.5-0.224-0.5-0.5s0.224-0.5,0.5-0.5h4c0.276,0,0.5,0.224,0.5,0.5S18.276,9.5,18,9.5z"/>
	</g>
	<g>
		<path class="st0" d="M16,11.5c-0.276,0-0.5-0.224-0.5-0.5V7c0-0.276,0.224-0.5,0.5-0.5s0.5,0.224,0.5,0.5v4
			C16.5,11.276,16.276,11.5,16,11.5z"/>
	</g>
	<g>
		<path class="st0" d="M12,18c-0.276,0-0.5-0.224-0.5-0.5v-4c0-0.276,0.224-0.5,0.5-0.5s0.5,0.224,0.5,0.5v4
			C12.5,17.776,12.276,18,12,18z"/>
	</g>
	<g>
		<path class="st0" d="M2,30.5H1c-0.276,0-0.5-0.224-0.5-0.5s0.224-0.5,0.5-0.5h1c0.276,0,0.5,0.224,0.5,0.5S2.276,30.5,2,30.5z"/>
	</g>
	<g>
		<path class="st0" d="M14.5,30.5H4c-0.276,0-0.5-0.224-0.5-0.5s0.224-0.5,0.5-0.5h10.5c0.276,0,0.5,0.224,0.5,0.5
			S14.776,30.5,14.5,30.5z"/>
	</g>
	<g>
		<path class="st0" d="M63,30.5h-1c-0.276,0-0.5-0.224-0.5-0.5s0.224-0.5,0.5-0.5h1c0.276,0,0.5,0.224,0.5,0.5S63.276,30.5,63,30.5z
			"/>
	</g>
	<g>
		<path class="st0" d="M60,30.5H49.5c-0.276,0-0.5-0.224-0.5-0.5s0.224-0.5,0.5-0.5H60c0.276,0,0.5,0.224,0.5,0.5
			S60.276,30.5,60,30.5z"/>
	</g>
	<g>
		<path class="st0" d="M50.5,57.5h-1c-1.654,0-3-1.346-3-3v-12c0-1.654,1.346-3,3-3h1c1.654,0,3,1.346,3,3v12
			C53.5,56.154,52.154,57.5,50.5,57.5z M49.5,40.5c-1.103,0-2,0.897-2,2v12c0,1.103,0.897,2,2,2h1c1.103,0,2-0.897,2-2v-12
			c0-1.103-0.897-2-2-2H49.5z"/>
	</g>
	<g>
		<path class="st0" d="M50,57.5c-0.276,0-0.5-0.224-0.5-0.5V40c0-0.276,0.224-0.5,0.5-0.5s0.5,0.224,0.5,0.5v17
			C50.5,57.276,50.276,57.5,50,57.5z"/>
	</g>
	<g>
		<path class="st0" d="M14.5,57.5h-1c-1.654,0-3-1.346-3-3v-12c0-1.654,1.346-3,3-3h1c1.654,0,3,1.346,3,3v12
			C17.5,56.154,16.154,57.5,14.5,57.5z M13.5,40.5c-1.103,0-2,0.897-2,2v12c0,1.103,0.897,2,2,2h1c1.103,0,2-0.897,2-2v-12
			c0-1.103-0.897-2-2-2H13.5z"/>
	</g>
	<g>
		<path class="st0" d="M14,57.5c-0.276,0-0.5-0.224-0.5-0.5V40c0-0.276,0.224-0.5,0.5-0.5s0.5,0.224,0.5,0.5v17
			C14.5,57.276,14.276,57.5,14,57.5z"/>
	</g>
	<g>
		<path class="st0" d="M40,51H24c-0.276,0-0.5-0.224-0.5-0.5v-5c0-0.276,0.224-0.5,0.5-0.5h16c0.276,0,0.5,0.224,0.5,0.5v5
			C40.5,50.776,40.276,51,40,51z M24.5,50h15v-4h-15V50z"/>
	</g>
	<g>
		<rect x="26" y="32.5" class="st4" width="3.5" height="3"/>
		<path class="st0" d="M29.5,36H26c-0.276,0-0.5-0.224-0.5-0.5v-3c0-0.276,0.224-0.5,0.5-0.5h3.5c0.276,0,0.5,0.224,0.5,0.5v3
			C30,35.776,29.776,36,29.5,36z M26.5,35H29v-2h-2.5V35z"/>
	</g>
	<g>
		<rect x="34.5" y="32.5" class="st4" width="3.5" height="3"/>
		<path class="st0" d="M38,36h-3.5c-0.276,0-0.5-0.224-0.5-0.5v-3c0-0.276,0.224-0.5,0.5-0.5H38c0.276,0,0.5,0.224,0.5,0.5v3
			C38.5,35.776,38.276,36,38,36z M35,35h2.5v-2H35V35z"/>
	</g>
</g>
</svg>
