<?xml version="1.0" encoding="utf-8"?>
<!-- Generator: Adobe Illustrator 22.0.0, SVG Export Plug-In . SVG Version: 6.00 Build 0)  -->
<svg version="1.1" id="Icon_Set" xmlns="http://www.w3.org/2000/svg" xmlns:xlink="http://www.w3.org/1999/xlink" x="0px" y="0px"
	 viewBox="0 0 64 64" style="enable-background:new 0 0 64 64;" xml:space="preserve">
<style type="text/css">
	.st0{fill:#263238;}
	.st1{fill:#FFD740;}
	.st2{fill:#4FC3F7;}
	.st3{fill:#40C4FF;}
	.st4{fill:#FF5252;}
	.st5{fill:#FFFFFF;}
	.st6{fill:#212A41;}
	.st7{fill:#37474F;}
	.st8{fill:#4DB6AC;}
</style>
<g>
	<g>
		<path class="st8" d="M40.033,6c-1.381,0-2.5,1.119-2.5,2.5v-2c0-1.381-1.119-2.5-2.5-2.5s-2.5,1.119-2.5,2.5v-1
			c0-1.381-1.119-2.5-2.5-2.5s-2.5,1.119-2.5,2.5v1c0-1.381-1.119-2.5-2.5-2.5s-2.5,1.119-2.5,2.5v16l-2.244-3.74
			c-0.469-0.782-1.314-1.26-2.226-1.26c-1.751,0-3,1.698-2.477,3.37l1.754,5.613c1.305,4.175,5.171,7.017,9.545,7.017h8.148
			c4.142,0,7.5-3.358,7.5-7.5v-8V8.5C42.533,7.119,41.414,6,40.033,6z"/>
		<path class="st0" d="M35.033,34h-8.147c-4.617,0-8.645-2.961-10.022-7.368l-1.754-5.612c-0.297-0.951-0.129-1.956,0.461-2.758
			C16.159,17.46,17.068,17,18.063,17c1.081,0,2.098,0.575,2.655,1.502l1.314,2.192V6.5c0-1.654,1.346-3,3-3
			c0.862,0,1.642,0.366,2.189,0.951C27.648,3.312,28.748,2.5,30.033,2.5s2.385,0.812,2.811,1.951
			C33.392,3.866,34.171,3.5,35.033,3.5c1.578,0,2.875,1.225,2.991,2.773c0.532-0.48,1.237-0.773,2.009-0.773c1.654,0,3,1.346,3,3V26
			C43.033,30.411,39.444,34,35.033,34z M18.063,18c-0.674,0-1.289,0.312-1.688,0.854c-0.399,0.543-0.513,1.224-0.312,1.867
			l1.754,5.612C19.064,30.321,22.708,33,26.886,33h8.147c3.859,0,7-3.141,7-7V8.5c0-1.103-0.897-2-2-2s-2,0.897-2,2
			c0,0.276-0.224,0.5-0.5,0.5s-0.5-0.224-0.5-0.5v-2c0-1.103-0.897-2-2-2s-2,0.897-2,2c0,0.276-0.224,0.5-0.5,0.5
			s-0.5-0.224-0.5-0.5v-1c0-1.103-0.897-2-2-2s-2,0.897-2,2v1c0,0.276-0.224,0.5-0.5,0.5s-0.5-0.224-0.5-0.5c0-1.103-0.897-2-2-2
			s-2,0.897-2,2v16c0,0.225-0.15,0.422-0.366,0.481c-0.222,0.063-0.447-0.032-0.562-0.225l-2.243-3.74
			C19.484,18.39,18.795,18,18.063,18z"/>
	</g>
	<g>
		<path class="st8" d="M35.033,33.5h-8.148c-0.985,0-1.942-0.151-2.852-0.422V36.5c0,0.552,0.448,1,1,1h12c0.552,0,1-0.448,1-1
			v-3.628C37.114,33.274,36.101,33.5,35.033,33.5z"/>
		<path class="st0" d="M37.033,38h-12c-0.827,0-1.5-0.673-1.5-1.5v-3.422c0-0.158,0.074-0.307,0.201-0.4
			c0.126-0.095,0.29-0.123,0.441-0.079C25.071,32.865,25.983,33,26.886,33h8.147c0.968,0,1.909-0.197,2.8-0.586
			c0.155-0.067,0.333-0.053,0.474,0.04c0.142,0.092,0.227,0.249,0.227,0.418V36.5C38.533,37.327,37.86,38,37.033,38z M24.533,33.728
			V36.5c0,0.275,0.225,0.5,0.5,0.5h12c0.275,0,0.5-0.225,0.5-0.5v-2.901C36.727,33.865,35.889,34,35.033,34h-8.147
			C26.103,34,25.313,33.908,24.533,33.728z"/>
	</g>
	<g>
		<path class="st0" d="M38.033,61.5c-0.276,0-0.5-0.224-0.5-0.5V45.5c0-1.103-0.897-2-2-2h-9c-1.103,0-2,0.897-2,2V61
			c0,0.276-0.224,0.5-0.5,0.5s-0.5-0.224-0.5-0.5V45.5c0-1.654,1.346-3,3-3h9c1.654,0,3,1.346,3,3V61
			C38.533,61.276,38.31,61.5,38.033,61.5z"/>
	</g>
	<g>
		<path class="st0" d="M27.533,15h-5c-0.276,0-0.5-0.224-0.5-0.5s0.224-0.5,0.5-0.5h5c0.276,0,0.5,0.224,0.5,0.5S27.81,15,27.533,15
			z"/>
	</g>
	<g>
		<path class="st0" d="M32.533,15h-5c-0.276,0-0.5-0.224-0.5-0.5s0.224-0.5,0.5-0.5h5c0.276,0,0.5,0.224,0.5,0.5S32.81,15,32.533,15
			z"/>
	</g>
	<g>
		<path class="st0" d="M37.533,15h-5c-0.276,0-0.5-0.224-0.5-0.5s0.224-0.5,0.5-0.5h5c0.276,0,0.5,0.224,0.5,0.5S37.81,15,37.533,15
			z"/>
	</g>
	<g>
		<path class="st0" d="M42.533,15h-5c-0.276,0-0.5-0.224-0.5-0.5s0.224-0.5,0.5-0.5h5c0.276,0,0.5,0.224,0.5,0.5S42.81,15,42.533,15
			z"/>
	</g>
	<g>
		<path class="st0" d="M27.533,10.5h-5c-0.276,0-0.5-0.224-0.5-0.5s0.224-0.5,0.5-0.5h5c0.276,0,0.5,0.224,0.5,0.5
			S27.81,10.5,27.533,10.5z"/>
	</g>
	<g>
		<path class="st0" d="M32.533,9h-5c-0.276,0-0.5-0.224-0.5-0.5s0.224-0.5,0.5-0.5h5c0.276,0,0.5,0.224,0.5,0.5S32.81,9,32.533,9z"
			/>
	</g>
	<g>
		<path class="st0" d="M37.533,10.5h-5c-0.276,0-0.5-0.224-0.5-0.5s0.224-0.5,0.5-0.5h5c0.276,0,0.5,0.224,0.5,0.5
			S37.81,10.5,37.533,10.5z"/>
	</g>
	<g>
		<path class="st0" d="M42.533,11.5h-5c-0.276,0-0.5-0.224-0.5-0.5s0.224-0.5,0.5-0.5h5c0.276,0,0.5,0.224,0.5,0.5
			S42.81,11.5,42.533,11.5z"/>
	</g>
	<g>
		<path class="st0" d="M27.533,28c-0.276,0-0.5-0.224-0.5-0.5c0-2.439-1.951-4.432-4.376-4.498l-5.385,2.937
			c-0.242,0.134-0.546,0.045-0.678-0.199c-0.133-0.242-0.043-0.546,0.199-0.678l5.5-3C22.367,22.021,22.449,22,22.533,22
			c3.032,0,5.5,2.468,5.5,5.5C28.033,27.776,27.81,28,27.533,28z"/>
	</g>
	<g>
		<rect x="28.534" y="37.5" class="st1" width="5" height="5.5"/>
		<path class="st0" d="M33.534,43.5h-5c-0.276,0-0.5-0.224-0.5-0.5v-5.5c0-0.276,0.224-0.5,0.5-0.5h5c0.276,0,0.5,0.224,0.5,0.5V43
			C34.034,43.276,33.811,43.5,33.534,43.5z M29.034,42.5h4V38h-4V42.5z"/>
	</g>
	<g>
		<path class="st0" d="M42.533,18.5h-20c-0.276,0-0.5-0.224-0.5-0.5s0.224-0.5,0.5-0.5h20c0.276,0,0.5,0.224,0.5,0.5
			S42.81,18.5,42.533,18.5z"/>
	</g>
	<g>
		<path class="st0" d="M27.533,18.5c-0.276,0-0.5-0.224-0.5-0.5V6.5c0-0.276,0.224-0.5,0.5-0.5s0.5,0.224,0.5,0.5V18
			C28.033,18.276,27.81,18.5,27.533,18.5z"/>
	</g>
	<g>
		<path class="st0" d="M32.533,18.5c-0.276,0-0.5-0.224-0.5-0.5V6.5c0-0.276,0.224-0.5,0.5-0.5s0.5,0.224,0.5,0.5V18
			C33.033,18.276,32.81,18.5,32.533,18.5z"/>
	</g>
	<g>
		<path class="st0" d="M37.533,18.5c-0.276,0-0.5-0.224-0.5-0.5V8.5c0-0.276,0.224-0.5,0.5-0.5s0.5,0.224,0.5,0.5V18
			C38.033,18.276,37.81,18.5,37.533,18.5z"/>
	</g>
	<g>
		<path class="st0" d="M5,39H4c-0.276,0-0.5-0.224-0.5-0.5S3.724,38,4,38h1c0.276,0,0.5,0.224,0.5,0.5S5.276,39,5,39z"/>
	</g>
	<g>
		<path class="st0" d="M17.5,39H7c-0.276,0-0.5-0.224-0.5-0.5S6.724,38,7,38h10.5c0.276,0,0.5,0.224,0.5,0.5S17.776,39,17.5,39z"/>
	</g>
	<g>
		<path class="st0" d="M58,39h-1c-0.276,0-0.5-0.224-0.5-0.5S56.724,38,57,38h1c0.276,0,0.5,0.224,0.5,0.5S58.276,39,58,39z"/>
	</g>
	<g>
		<path class="st0" d="M55,39H44.5c-0.276,0-0.5-0.224-0.5-0.5s0.224-0.5,0.5-0.5H55c0.276,0,0.5,0.224,0.5,0.5S55.276,39,55,39z"/>
	</g>
	<g>
		<path class="st0" d="M54,15.5h-4c-0.276,0-0.5-0.224-0.5-0.5s0.224-0.5,0.5-0.5h4c0.276,0,0.5,0.224,0.5,0.5S54.276,15.5,54,15.5z
			"/>
	</g>
	<g>
		<path class="st0" d="M60,9.5h-4c-0.276,0-0.5-0.224-0.5-0.5s0.224-0.5,0.5-0.5h4c0.276,0,0.5,0.224,0.5,0.5S60.276,9.5,60,9.5z"/>
	</g>
	<g>
		<path class="st0" d="M58,11.5c-0.276,0-0.5-0.224-0.5-0.5V7c0-0.276,0.224-0.5,0.5-0.5s0.5,0.224,0.5,0.5v4
			C58.5,11.276,58.276,11.5,58,11.5z"/>
	</g>
	<g>
		<path class="st0" d="M52,17.5c-0.276,0-0.5-0.224-0.5-0.5v-4c0-0.276,0.224-0.5,0.5-0.5s0.5,0.224,0.5,0.5v4
			C52.5,17.276,52.276,17.5,52,17.5z"/>
	</g>
</g>
</svg>
