<?xml version="1.0" encoding="utf-8"?>
<!-- Generator: Adobe Illustrator 22.0.0, SVG Export Plug-In . SVG Version: 6.00 Build 0)  -->
<svg version="1.1" id="Icon_Set" xmlns="http://www.w3.org/2000/svg" xmlns:xlink="http://www.w3.org/1999/xlink" x="0px" y="0px"
	 viewBox="0 0 64 64" style="enable-background:new 0 0 64 64;" xml:space="preserve">
<style type="text/css">
	.st0{fill:#263238;}
	.st1{fill:#FFD740;}
	.st2{fill:#4FC3F7;}
	.st3{fill:#40C4FF;}
	.st4{fill:#FF5252;}
	.st5{fill:#FFFFFF;}
	.st6{fill:#212A41;}
	.st7{fill:#37474F;}
	.st8{fill:#4DB6AC;}
</style>
<g>
	<g>
		<path class="st0" d="M45.501,62.499c-0.166,0-0.329-0.083-0.424-0.235l-2.5-4c-0.05-0.08-0.076-0.171-0.076-0.265V38
			c0-0.276,0.224-0.5,0.5-0.5s0.5,0.224,0.5,0.5v19.856l2.424,3.878c0.146,0.234,0.075,0.543-0.159,0.689
			C45.684,62.475,45.592,62.499,45.501,62.499z"/>
	</g>
	<g>
		<path class="st0" d="M40.001,28.499h-16c-0.276,0-0.5-0.224-0.5-0.5v-5.882l-2.947-5.895c-0.034-0.069-0.053-0.146-0.053-0.224v-2
			c0-0.276,0.224-0.5,0.5-0.5s0.5,0.224,0.5,0.5v1.881l2.947,5.895c0.034,0.069,0.053,0.146,0.053,0.224v5.5h15v-5.5
			c0-0.078,0.019-0.154,0.053-0.224l2.947-5.895v-1.881c0-0.276,0.224-0.5,0.5-0.5s0.5,0.224,0.5,0.5v2
			c0,0.078-0.019,0.154-0.053,0.224l-2.947,5.895v5.882C40.501,28.275,40.277,28.499,40.001,28.499z"/>
	</g>
	<g>
		<path class="st0" d="M18.501,62.499c-0.091,0-0.183-0.024-0.265-0.076c-0.234-0.146-0.306-0.455-0.159-0.689l2.424-3.878V38
			c0-0.276,0.224-0.5,0.5-0.5s0.5,0.224,0.5,0.5v20c0,0.094-0.026,0.186-0.076,0.265l-2.5,4
			C18.83,62.416,18.667,62.499,18.501,62.499z"/>
	</g>
	<g>
		<path class="st0" d="M47,10.499H17c-0.276,0-0.5-0.224-0.5-0.5s0.224-0.5,0.5-0.5h30c0.276,0,0.5,0.224,0.5,0.5
			S47.276,10.499,47,10.499z"/>
	</g>
	<g>
		<path class="st0" d="M47,14.499H17c-0.276,0-0.5-0.224-0.5-0.5s0.224-0.5,0.5-0.5h30c0.276,0,0.5,0.224,0.5,0.5
			S47.276,14.499,47,14.499z"/>
	</g>
	<g>
		<path class="st0" d="M10.5,36.999c-0.276,0-0.5-0.224-0.5-0.5v-26.5c0-0.276,0.224-0.5,0.5-0.5s0.5,0.224,0.5,0.5v26.5
			C11,36.775,10.776,36.999,10.5,36.999z"/>
	</g>
	<g>
		<path class="st0" d="M13.5,36.999c-0.276,0-0.5-0.224-0.5-0.5v-26.5c0-0.276,0.224-0.5,0.5-0.5s0.5,0.224,0.5,0.5v26.5
			C14,36.775,13.776,36.999,13.5,36.999z"/>
	</g>
	<g>
		<path class="st0" d="M35,10.499h-6c-0.276,0-0.5-0.224-0.5-0.5v-3c0-0.276,0.224-0.5,0.5-0.5h6c0.276,0,0.5,0.224,0.5,0.5v3
			C35.5,10.275,35.276,10.499,35,10.499z M29.5,9.499h5v-2h-5V9.499z"/>
	</g>
	<g>
		<path class="st0" d="M50,36.999c-0.276,0-0.5-0.224-0.5-0.5v-26.5c0-0.276,0.224-0.5,0.5-0.5s0.5,0.224,0.5,0.5v26.5
			C50.5,36.775,50.276,36.999,50,36.999z"/>
	</g>
	<g>
		<path class="st0" d="M53,36.999c-0.276,0-0.5-0.224-0.5-0.5v-26.5c0-0.276,0.224-0.5,0.5-0.5s0.5,0.224,0.5,0.5v26.5
			C53.5,36.775,53.276,36.999,53,36.999z"/>
	</g>
	<g>
		<path class="st0" d="M40,33.499H24c-0.276,0-0.5-0.224-0.5-0.5s0.224-0.5,0.5-0.5h16c0.276,0,0.5,0.224,0.5,0.5
			S40.276,33.499,40,33.499z"/>
	</g>
	<g>
		<path class="st0" d="M43.001,35.499h-22c-0.276,0-0.5-0.224-0.5-0.5v-4c0-0.276,0.224-0.5,0.5-0.5h22c0.276,0,0.5,0.224,0.5,0.5v4
			C43.501,35.275,43.277,35.499,43.001,35.499z M21.501,34.499h21v-3h-21V34.499z"/>
	</g>
	<g>
		<path class="st0" d="M32.001,37.999c-0.276,0-0.5-0.224-0.5-0.5v-15.5c0-0.276,0.224-0.5,0.5-0.5s0.5,0.224,0.5,0.5v15.5
			C32.501,37.775,32.277,37.999,32.001,37.999z"/>
	</g>
	<g>
		<path class="st0" d="M39,62.499c-0.276,0-0.5-0.224-0.5-0.5v-24h-13v24c0,0.276-0.224,0.5-0.5,0.5s-0.5-0.224-0.5-0.5v-24.5
			c0-0.276,0.224-0.5,0.5-0.5h14c0.276,0,0.5,0.224,0.5,0.5v24.5C39.5,62.275,39.276,62.499,39,62.499z"/>
	</g>
	<g>
		<path class="st0" d="M37.001,7.499h-10c-0.276,0-0.5-0.224-0.5-0.5v-5c0-0.276,0.224-0.5,0.5-0.5s0.5,0.224,0.5,0.5v4.5h9v-4.5
			c0-0.276,0.224-0.5,0.5-0.5s0.5,0.224,0.5,0.5v5C37.501,7.275,37.277,7.499,37.001,7.499z"/>
	</g>
	<g>
		<rect x="10" y="8.925" class="st3" width="4" height="10"/>
		<path class="st0" d="M14,19.425h-4c-0.276,0-0.5-0.224-0.5-0.5v-10c0-0.276,0.224-0.5,0.5-0.5h4c0.276,0,0.5,0.224,0.5,0.5v10
			C14.5,19.201,14.276,19.425,14,19.425z M10.5,18.425h3v-9h-3V18.425z"/>
	</g>
	<g>
		<rect x="49.5" y="8.925" class="st3" width="4" height="10"/>
		<path class="st0" d="M53.5,19.425h-4c-0.276,0-0.5-0.224-0.5-0.5v-10c0-0.276,0.224-0.5,0.5-0.5h4c0.276,0,0.5,0.224,0.5,0.5v10
			C54,19.201,53.776,19.425,53.5,19.425z M50,18.425h3v-9h-3V18.425z"/>
	</g>
	<g>
		<rect x="20.001" y="47.999" class="st3" width="5" height="10"/>
		<path class="st0" d="M25.001,58.499h-5c-0.276,0-0.5-0.224-0.5-0.5v-10c0-0.276,0.224-0.5,0.5-0.5h5c0.276,0,0.5,0.224,0.5,0.5v10
			C25.501,58.275,25.277,58.499,25.001,58.499z M20.501,57.499h4v-9h-4V57.499z"/>
	</g>
	<g>
		<rect x="39.001" y="47.999" class="st3" width="5" height="10"/>
		<path class="st0" d="M44.001,58.499h-5c-0.276,0-0.5-0.224-0.5-0.5v-10c0-0.276,0.224-0.5,0.5-0.5h5c0.276,0,0.5,0.224,0.5,0.5v10
			C44.501,58.275,44.277,58.499,44.001,58.499z M39.501,57.499h4v-9h-4V57.499z"/>
	</g>
	<g>
		<path class="st0" d="M6,49.499H5c-0.276,0-0.5-0.224-0.5-0.5s0.224-0.5,0.5-0.5h1c0.276,0,0.5,0.224,0.5,0.5
			S6.276,49.499,6,49.499z"/>
	</g>
	<g>
		<path class="st0" d="M14,49.499H8c-0.276,0-0.5-0.224-0.5-0.5s0.224-0.5,0.5-0.5h6c0.276,0,0.5,0.224,0.5,0.5
			S14.276,49.499,14,49.499z"/>
	</g>
	<g>
		<path class="st0" d="M59,49.499h-1c-0.276,0-0.5-0.224-0.5-0.5s0.224-0.5,0.5-0.5h1c0.276,0,0.5,0.224,0.5,0.5
			S59.276,49.499,59,49.499z"/>
	</g>
	<g>
		<path class="st0" d="M56,49.499h-6c-0.276,0-0.5-0.224-0.5-0.5s0.224-0.5,0.5-0.5h6c0.276,0,0.5,0.224,0.5,0.5
			S56.276,49.499,56,49.499z"/>
	</g>
	<g>
		<path class="st0" d="M40.001,22.499h-16c-0.276,0-0.5-0.224-0.5-0.5s0.224-0.5,0.5-0.5h16c0.276,0,0.5,0.224,0.5,0.5
			S40.277,22.499,40.001,22.499z"/>
	</g>
</g>
</svg>
