<?xml version="1.0" encoding="utf-8"?>
<!-- Generator: Adobe Illustrator 22.0.0, SVG Export Plug-In . SVG Version: 6.00 Build 0)  -->
<svg version="1.1" id="Icon_Set" xmlns="http://www.w3.org/2000/svg" xmlns:xlink="http://www.w3.org/1999/xlink" x="0px" y="0px"
	 viewBox="0 0 64 64" style="enable-background:new 0 0 64 64;" xml:space="preserve">
<style type="text/css">
	.st0{fill:#263238;}
	.st1{fill:#FFD740;}
	.st2{fill:#4FC3F7;}
	.st3{fill:#40C4FF;}
	.st4{fill:#FF5252;}
	.st5{fill:#FFFFFF;}
	.st6{fill:#212A41;}
	.st7{fill:#37474F;}
	.st8{fill:#4DB6AC;}
</style>
<g>
	<g>
		<polyline class="st3" points="7,11 25,11 29,7 7,7 		"/>
		<path class="st0" d="M25,11.5H7c-0.276,0-0.5-0.224-0.5-0.5s0.224-0.5,0.5-0.5h17.793l3-3H7C6.724,7.5,6.5,7.276,6.5,7
			S6.724,6.5,7,6.5h22c0.202,0,0.385,0.122,0.462,0.309s0.034,0.402-0.108,0.545l-4,4C25.26,11.447,25.133,11.5,25,11.5z"/>
	</g>
	<g>
		<path class="st0" d="M51.5,57.5H24c-0.182,0-0.349-0.099-0.438-0.257l-2.5-4.5c-0.06-0.108-0.077-0.235-0.05-0.355l1.5-6.5
			c0.062-0.269,0.327-0.436,0.6-0.375c0.27,0.062,0.437,0.331,0.375,0.6l-1.457,6.312l2.264,4.075H51v-3.672l-14.699-6.369
			C36.118,46.38,36,46.199,36,46V14.5c0-3.859-3.141-7-7-7H7C6.724,7.5,6.5,7.276,6.5,7S6.724,6.5,7,6.5h22c4.411,0,8,3.589,8,8
			v31.172l14.699,6.369C51.882,52.12,52,52.301,52,52.5V57C52,57.276,51.776,57.5,51.5,57.5z"/>
	</g>
	<g>
		<path class="st0" d="M27,44.5c-0.276,0-0.5-0.224-0.5-0.5v-1.824l-3.891-4.863C22.539,37.224,22.5,37.113,22.5,37V26.5
			c0-0.276,0.224-0.5,0.5-0.5s0.5,0.224,0.5,0.5v10.324l3.891,4.863C27.461,41.776,27.5,41.887,27.5,42v2
			C27.5,44.276,27.276,44.5,27,44.5z"/>
	</g>
	<g>
		<path class="st0" d="M16.965,27H7c-0.276,0-0.5-0.224-0.5-0.5S6.724,26,7,26h9.965c0.534,0,1.036-0.208,1.414-0.586l4.268-4.268
			c0.195-0.195,0.512-0.195,0.707,0s0.195,0.512,0,0.707l-4.268,4.268C18.52,26.688,17.766,27,16.965,27z"/>
	</g>
	<g>
		<path class="st0" d="M25.5,40.5c-0.276,0-0.5-0.224-0.5-0.5V25c0-0.827,0.673-1.5,1.5-1.5h5c0.275,0,0.5-0.225,0.5-0.5v-5.5
			c0-1.103-0.897-2-2-2H16.5c-0.276,0-0.5-0.224-0.5-0.5s0.224-0.5,0.5-0.5H30c1.654,0,3,1.346,3,3V23c0,0.827-0.673,1.5-1.5,1.5h-5
			c-0.275,0-0.5,0.225-0.5,0.5v15C26,40.276,25.776,40.5,25.5,40.5z"/>
	</g>
	<g>
		<polyline class="st3" points="32.5,38 32.5,27 28.5,27 28.5,38 		"/>
		<path class="st0" d="M32.5,38.5c-0.276,0-0.5-0.224-0.5-0.5V27.5h-3V38c0,0.276-0.224,0.5-0.5,0.5S28,38.276,28,38V27
			c0-0.276,0.224-0.5,0.5-0.5h4c0.276,0,0.5,0.224,0.5,0.5v11C33,38.276,32.776,38.5,32.5,38.5z"/>
	</g>
	<g>
		<path class="st0" d="M16.75,22H7c-0.276,0-0.5-0.224-0.5-0.5S6.724,21,7,21h9.75c0.276,0,0.5,0.224,0.5,0.5S17.026,22,16.75,22z"
			/>
	</g>
	<g>
		<path class="st0" d="M16.5,22h-4c-0.276,0-0.5-0.224-0.5-0.5V15c0-0.276,0.224-0.5,0.5-0.5h4c0.276,0,0.5,0.224,0.5,0.5v6.5
			C17,21.776,16.776,22,16.5,22z M13,21h3v-5.5h-3V21z"/>
	</g>
	<g>
		<path class="st0" d="M57,57.5h-2c-0.276,0-0.5-0.224-0.5-0.5s0.224-0.5,0.5-0.5h2c0.276,0,0.5,0.224,0.5,0.5S57.276,57.5,57,57.5z
			"/>
	</g>
	<g>
		<path class="st0" d="M53,57.5H14c-0.276,0-0.5-0.224-0.5-0.5s0.224-0.5,0.5-0.5h39c0.276,0,0.5,0.224,0.5,0.5S53.276,57.5,53,57.5
			z"/>
	</g>
	<g>
		<path class="st0" d="M10,57.5H7c-0.276,0-0.5-0.224-0.5-0.5s0.224-0.5,0.5-0.5h3c0.276,0,0.5,0.224,0.5,0.5S10.276,57.5,10,57.5z"
			/>
	</g>
	<g>
		<path class="st0" d="M57,9.5h-4c-0.276,0-0.5-0.224-0.5-0.5s0.224-0.5,0.5-0.5h4c0.276,0,0.5,0.224,0.5,0.5S57.276,9.5,57,9.5z"/>
	</g>
	<g>
		<path class="st0" d="M55,11.5c-0.276,0-0.5-0.224-0.5-0.5V7c0-0.276,0.224-0.5,0.5-0.5s0.5,0.224,0.5,0.5v4
			C55.5,11.276,55.276,11.5,55,11.5z"/>
	</g>
	<g>
		<path class="st0" d="M50,17h-4c-0.276,0-0.5-0.224-0.5-0.5S45.724,16,46,16h4c0.276,0,0.5,0.224,0.5,0.5S50.276,17,50,17z"/>
	</g>
	<g>
		<path class="st0" d="M48,19c-0.276,0-0.5-0.224-0.5-0.5v-4c0-0.276,0.224-0.5,0.5-0.5s0.5,0.224,0.5,0.5v4
			C48.5,18.776,48.276,19,48,19z"/>
	</g>
	<g>
		<path class="st0" d="M32.5,46.5H23c-0.276,0-0.5-0.224-0.5-0.5s0.224-0.5,0.5-0.5h9V40c0-0.276,0.224-0.5,0.5-0.5S33,39.724,33,40
			v6C33,46.276,32.776,46.5,32.5,46.5z"/>
	</g>
</g>
<g>
	<path class="st0" d="M24,57.5c-0.118,0-0.237-0.042-0.332-0.126c-0.206-0.184-0.226-0.5-0.042-0.706l4-4.5
		C27.721,52.062,27.857,52,28,52h23.5c0.276,0,0.5,0.224,0.5,0.5S51.776,53,51.5,53H28.225l-3.851,4.332
		C24.275,57.443,24.138,57.5,24,57.5z"/>
</g>
</svg>
