<?xml version="1.0" encoding="utf-8"?>
<!-- Generator: Adobe Illustrator 22.0.0, SVG Export Plug-In . SVG Version: 6.00 Build 0)  -->
<svg version="1.1" id="Icon_Set" xmlns="http://www.w3.org/2000/svg" xmlns:xlink="http://www.w3.org/1999/xlink" x="0px" y="0px"
	 viewBox="0 0 64 64" style="enable-background:new 0 0 64 64;" xml:space="preserve">
<style type="text/css">
	.st0{fill:#263238;}
	.st1{fill:#FFD740;}
	.st2{fill:#4FC3F7;}
	.st3{fill:#40C4FF;}
	.st4{fill:#FF5252;}
	.st5{fill:#FFFFFF;}
	.st6{fill:#212A41;}
	.st7{fill:#37474F;}
	.st8{fill:#4DB6AC;}
</style>
<g>
	<g>
		<path class="st2" d="M16,8.501c0-1.105-0.895-2-2-2s-2,0.895-2,2c-1.105,0-2,0.895-2,2s0.895,2,2,2h4c1.105,0,2-0.895,2-2
			S17.105,8.501,16,8.501z"/>
	</g>
	<g>
		<circle class="st1" cx="47" cy="16.001" r="15"/>
	</g>
	<g>
		<path class="st0" d="M54.778,13.723c-0.128,0-0.256-0.049-0.354-0.146c-1.983-1.983-4.62-3.075-7.424-3.075
			s-5.441,1.092-7.425,3.075c-0.195,0.195-0.512,0.195-0.707,0s-0.195-0.512,0-0.707c2.172-2.172,5.06-3.368,8.132-3.368
			s5.959,1.196,8.131,3.368c0.195,0.195,0.195,0.512,0,0.707C55.034,13.674,54.906,13.723,54.778,13.723z"/>
	</g>
	<g>
		<path class="st0" d="M51.95,16.551c-0.128,0-0.256-0.049-0.354-0.146c-2.534-2.533-6.658-2.533-9.192,0
			c-0.195,0.195-0.512,0.195-0.707,0s-0.195-0.512,0-0.707c2.924-2.923,7.682-2.924,10.606,0c0.195,0.195,0.195,0.512,0,0.707
			C52.206,16.502,52.078,16.551,51.95,16.551z"/>
	</g>
	<g>
		<path class="st0" d="M44.878,19.379c-0.128,0-0.256-0.049-0.354-0.146c-0.195-0.195-0.195-0.512,0-0.707
			c1.366-1.363,3.586-1.363,4.95,0c0.195,0.195,0.195,0.512,0,0.707s-0.512,0.195-0.707,0c-0.975-0.975-2.561-0.975-3.536,0
			C45.134,19.33,45.006,19.379,44.878,19.379z"/>
	</g>
	<g>
		<path class="st0" d="M59.5,61.501c-0.276,0-0.5-0.224-0.5-0.5v-20c0-0.276,0.224-0.5,0.5-0.5s0.5,0.224,0.5,0.5v20
			C60,61.277,59.776,61.501,59.5,61.501z"/>
	</g>
	<g>
		<path class="st0" d="M25.5,61.501c-0.276,0-0.5-0.224-0.5-0.5V22.96c0-0.69-0.349-1.322-0.932-1.69
			c-0.584-0.368-1.304-0.411-1.928-0.115l-16,7.619C5.447,29.104,5,29.812,5,30.579v30.422c0,0.276-0.224,0.5-0.5,0.5
			S4,61.277,4,61.001V30.579c0-1.151,0.671-2.214,1.71-2.708l16-7.619c0.933-0.445,2.014-0.382,2.891,0.172
			C25.477,20.977,26,21.925,26,22.96v38.041C26,61.277,25.776,61.501,25.5,61.501z"/>
	</g>
	<g>
		<path class="st3" d="M39.5,49.001h-7c-0.552,0-1,0.448-1,1v11h9v-11C40.5,49.448,40.052,49.001,39.5,49.001z"/>
	</g>
	<g>
		<path class="st0" d="M40.5,61.501c-0.276,0-0.5-0.224-0.5-0.5v-11c0-0.275-0.224-0.5-0.5-0.5h-7c-0.276,0-0.5,0.225-0.5,0.5v11
			c0,0.276-0.224,0.5-0.5,0.5s-0.5-0.224-0.5-0.5v-11c0-0.827,0.673-1.5,1.5-1.5h7c0.827,0,1.5,0.673,1.5,1.5v11
			C41,61.277,40.776,61.501,40.5,61.501z"/>
	</g>
	<g>
		<path class="st0" d="M59.5,57.501H52c-0.133,0-0.26-0.053-0.354-0.146l-3.854-3.854H42.5c-0.276,0-0.5-0.224-0.5-0.5
			s0.224-0.5,0.5-0.5H48c0.133,0,0.26,0.053,0.354,0.146l3.854,3.854H59.5c0.276,0,0.5,0.224,0.5,0.5S59.776,57.501,59.5,57.501z"/>
	</g>
	<g>
		<path class="st0" d="M10.5,53.501h-6c-0.276,0-0.5-0.224-0.5-0.5s0.224-0.5,0.5-0.5h5.777l8.851-9.835
			c0.095-0.104,0.23-0.165,0.372-0.165h6c0.276,0,0.5,0.224,0.5,0.5s-0.224,0.5-0.5,0.5h-5.777l-8.851,9.835
			C10.777,53.44,10.642,53.501,10.5,53.501z"/>
	</g>
	<g>
		<path class="st0" d="M59.5,41.501h-34c-0.276,0-0.5-0.224-0.5-0.5v-10c0-0.276,0.224-0.5,0.5-0.5h19c0.276,0,0.5,0.224,0.5,0.5
			s-0.224,0.5-0.5,0.5H26v9h33v-7c0-1.103-0.897-2-2-2h-7.5c-0.276,0-0.5-0.224-0.5-0.5s0.224-0.5,0.5-0.5H57c1.654,0,3,1.346,3,3
			v7.5C60,41.277,59.776,41.501,59.5,41.501z"/>
	</g>
	<g>
		<rect x="10" y="33.501" class="st3" width="5" height="5"/>
		<path class="st0" d="M15,39.001h-5c-0.276,0-0.5-0.224-0.5-0.5v-5c0-0.276,0.224-0.5,0.5-0.5h5c0.276,0,0.5,0.224,0.5,0.5v5
			C15.5,38.777,15.276,39.001,15,39.001z M10.5,38.001h4v-4h-4V38.001z"/>
	</g>
	<g>
		<rect x="15" y="33.501" class="st3" width="5" height="5"/>
		<path class="st0" d="M20,39.001h-5c-0.276,0-0.5-0.224-0.5-0.5v-5c0-0.276,0.224-0.5,0.5-0.5h5c0.276,0,0.5,0.224,0.5,0.5v5
			C20.5,38.777,20.276,39.001,20,39.001z M15.5,38.001h4v-4h-4V38.001z"/>
	</g>
	<g>
		<path class="st0" d="M48.5,36.501h-3c-0.827,0-1.5-0.673-1.5-1.5v-10c0-0.827,0.673-1.5,1.5-1.5h3c0.827,0,1.5,0.673,1.5,1.5v10
			C50,35.828,49.327,36.501,48.5,36.501z M45.5,24.501c-0.276,0-0.5,0.225-0.5,0.5v10c0,0.275,0.224,0.5,0.5,0.5h3
			c0.276,0,0.5-0.225,0.5-0.5v-10c0-0.275-0.224-0.5-0.5-0.5H45.5z"/>
	</g>
	<g>
		<path class="st0" d="M62,63.501H2c-0.276,0-0.5-0.224-0.5-0.5s0.224-0.5,0.5-0.5h60c0.276,0,0.5,0.224,0.5,0.5
			S62.276,63.501,62,63.501z"/>
	</g>
</g>
</svg>
