<?xml version="1.0" encoding="utf-8"?>
<!-- Generator: Adobe Illustrator 22.0.0, SVG Export Plug-In . SVG Version: 6.00 Build 0)  -->
<svg version="1.1" id="Icon_Set" xmlns="http://www.w3.org/2000/svg" xmlns:xlink="http://www.w3.org/1999/xlink" x="0px" y="0px"
	 viewBox="0 0 64 64" style="enable-background:new 0 0 64 64;" xml:space="preserve">
<style type="text/css">
	.st0{fill:#263238;}
	.st1{fill:#FFD740;}
	.st2{fill:#4FC3F7;}
	.st3{fill:#40C4FF;}
	.st4{fill:#FF5252;}
	.st5{fill:#FFFFFF;}
	.st6{fill:#212A41;}
	.st7{fill:#37474F;}
	.st8{fill:#4DB6AC;}
</style>
<g>
	<g>
		
			<rect x="24.929" y="24.929" transform="matrix(0.7071 -0.7071 0.7071 0.7071 -13.2547 31.9993)" class="st3" width="14.142" height="14.142"/>
		<path class="st0" d="M32.001,42.5c-0.128,0-0.256-0.049-0.354-0.146l-10.001-10C21.553,32.26,21.5,32.133,21.5,32
			s0.053-0.26,0.146-0.354l10.001-10c0.094-0.094,0.221-0.146,0.354-0.146l0,0c0.133,0,0.26,0.053,0.354,0.146l9.999,10
			c0.195,0.195,0.195,0.512,0,0.707l-9.999,10C32.257,42.451,32.129,42.5,32.001,42.5z M22.707,32l9.294,9.292L41.293,32
			l-9.292-9.293L22.707,32z"/>
	</g>
	<g>
		<path class="st0" d="M52,52.5H12c-0.276,0-0.5-0.224-0.5-0.5V12c0-0.276,0.224-0.5,0.5-0.5h40c0.276,0,0.5,0.224,0.5,0.5v40
			C52.5,52.276,52.276,52.5,52,52.5z M12.5,51.5h39v-39h-39V51.5z"/>
	</g>
	<g>
		<path class="st0" d="M42,52.5c-0.276,0-0.5-0.224-0.5-0.5V12c0-0.276,0.224-0.5,0.5-0.5s0.5,0.224,0.5,0.5v40
			C42.5,52.276,42.276,52.5,42,52.5z"/>
	</g>
	<g>
		<path class="st0" d="M22,52.5c-0.276,0-0.5-0.224-0.5-0.5V12c0-0.276,0.224-0.5,0.5-0.5s0.5,0.224,0.5,0.5v40
			C22.5,52.276,22.276,52.5,22,52.5z"/>
	</g>
	<g>
		<path class="st0" d="M52,42.5H12c-0.276,0-0.5-0.224-0.5-0.5s0.224-0.5,0.5-0.5h40c0.276,0,0.5,0.224,0.5,0.5S52.276,42.5,52,42.5
			z"/>
	</g>
	<g>
		<path class="st0" d="M52.001,32.5h-40c-0.276,0-0.5-0.224-0.5-0.5s0.224-0.5,0.5-0.5h40c0.276,0,0.5,0.224,0.5,0.5
			S52.277,32.5,52.001,32.5z"/>
	</g>
	<g>
		<path class="st0" d="M31.998,52.499c-0.276,0-0.5-0.224-0.5-0.5v-40c0-0.276,0.224-0.5,0.5-0.5s0.5,0.224,0.5,0.5v40
			C32.498,52.275,32.274,52.499,31.998,52.499z"/>
	</g>
	<g>
		<path class="st0" d="M52,22.5H12c-0.276,0-0.5-0.224-0.5-0.5s0.224-0.5,0.5-0.5h40c0.276,0,0.5,0.224,0.5,0.5S52.276,22.5,52,22.5
			z"/>
	</g>
	<g>
		
			<rect x="10.586" y="10.586" transform="matrix(0.7071 0.7071 -0.7071 0.7071 11.9998 -4.9706)" class="st1" width="2.828" height="2.828"/>
		<path class="st0" d="M12,14.5c-0.128,0-0.256-0.049-0.354-0.146l-2-2c-0.195-0.195-0.195-0.512,0-0.707l2-2
			c0.195-0.195,0.512-0.195,0.707,0l2,2c0.195,0.195,0.195,0.512,0,0.707l-2,2C12.256,14.451,12.128,14.5,12,14.5z M10.707,12
			L12,13.292L13.293,12L12,10.707L10.707,12z"/>
	</g>
	<g>
		
			<rect x="30.586" y="10.586" transform="matrix(0.7071 0.7071 -0.7071 0.7071 17.8577 -19.1128)" class="st1" width="2.828" height="2.828"/>
		<path class="st0" d="M32,14.5c-0.128,0-0.256-0.049-0.354-0.146l-2-2c-0.195-0.195-0.195-0.512,0-0.707l2-2
			c0.195-0.195,0.512-0.195,0.707,0l2,2c0.195,0.195,0.195,0.512,0,0.707l-2,2C32.256,14.451,32.128,14.5,32,14.5z M30.707,12
			L32,13.292L33.293,12L32,10.707L30.707,12z"/>
	</g>
	<g>
		
			<rect x="50.586" y="10.586" transform="matrix(0.7071 0.7071 -0.7071 0.7071 23.7156 -33.2549)" class="st1" width="2.828" height="2.828"/>
		<path class="st0" d="M52,14.5c-0.128,0-0.256-0.049-0.354-0.146l-2-2c-0.195-0.195-0.195-0.512,0-0.707l2-2
			c0.195-0.195,0.512-0.195,0.707,0l2,2c0.195,0.195,0.195,0.512,0,0.707l-2,2C52.256,14.451,52.128,14.5,52,14.5z M50.707,12
			L52,13.292L53.293,12L52,10.707L50.707,12z"/>
	</g>
	<g>
		
			<rect x="10.586" y="30.586" transform="matrix(0.7071 0.7071 -0.7071 0.7071 26.142 0.8872)" class="st1" width="2.828" height="2.828"/>
		<path class="st0" d="M12,34.5c-0.128,0-0.256-0.049-0.354-0.146l-2-2c-0.195-0.195-0.195-0.512,0-0.707l2-2
			c0.195-0.195,0.512-0.195,0.707,0l2,2c0.195,0.195,0.195,0.512,0,0.707l-2,2C12.256,34.451,12.128,34.5,12,34.5z M10.707,32
			L12,33.292L13.293,32L12,30.707L10.707,32z"/>
	</g>
	<g>
		
			<rect x="50.586" y="30.586" transform="matrix(0.7071 0.7071 -0.7071 0.7071 37.8577 -27.397)" class="st1" width="2.828" height="2.828"/>
		<path class="st0" d="M52,34.5c-0.128,0-0.256-0.049-0.354-0.146l-2-2c-0.195-0.195-0.195-0.512,0-0.707l2-2
			c0.195-0.195,0.512-0.195,0.707,0l2,2c0.195,0.195,0.195,0.512,0,0.707l-2,2C52.256,34.451,52.128,34.5,52,34.5z M50.707,32
			L52,33.292L53.293,32L52,30.707L50.707,32z"/>
	</g>
	<g>
		
			<rect x="10.586" y="50.586" transform="matrix(0.7071 0.7071 -0.7071 0.7071 40.2841 6.7451)" class="st1" width="2.828" height="2.828"/>
		<path class="st0" d="M12,54.5c-0.128,0-0.256-0.049-0.354-0.146l-2-2c-0.195-0.195-0.195-0.512,0-0.707l2-2
			c0.195-0.195,0.512-0.195,0.707,0l2,2c0.195,0.195,0.195,0.512,0,0.707l-2,2C12.256,54.451,12.128,54.5,12,54.5z M10.707,52
			L12,53.292L13.293,52L12,50.707L10.707,52z"/>
	</g>
	<g>
		
			<rect x="30.586" y="50.586" transform="matrix(0.7071 0.7071 -0.7071 0.7071 46.142 -7.397)" class="st1" width="2.828" height="2.828"/>
		<path class="st0" d="M32,54.5c-0.128,0-0.256-0.049-0.354-0.146l-2-2c-0.195-0.195-0.195-0.512,0-0.707l2-2
			c0.195-0.195,0.512-0.195,0.707,0l2,2c0.195,0.195,0.195,0.512,0,0.707l-2,2C32.256,54.451,32.128,54.5,32,54.5z M30.707,52
			L32,53.292L33.293,52L32,50.707L30.707,52z"/>
	</g>
	<g>
		
			<rect x="50.586" y="50.586" transform="matrix(0.7071 0.7071 -0.7071 0.7071 51.9998 -21.5392)" class="st1" width="2.828" height="2.828"/>
		<path class="st0" d="M52,54.5c-0.128,0-0.256-0.049-0.354-0.146l-2-2c-0.195-0.195-0.195-0.512,0-0.707l2-2
			c0.195-0.195,0.512-0.195,0.707,0l2,2c0.195,0.195,0.195,0.512,0,0.707l-2,2C52.256,54.451,52.128,54.5,52,54.5z M50.707,52
			L52,53.292L53.293,52L52,50.707L50.707,52z"/>
	</g>
	<g>
		<path class="st0" d="M23.75,57.5h-1c-0.276,0-0.5-0.224-0.5-0.5s0.224-0.5,0.5-0.5h1c0.276,0,0.5,0.224,0.5,0.5
			S24.026,57.5,23.75,57.5z"/>
	</g>
	<g>
		<path class="st0" d="M41.25,57.5h-15.5c-0.276,0-0.5-0.224-0.5-0.5s0.224-0.5,0.5-0.5h15.5c0.276,0,0.5,0.224,0.5,0.5
			S41.526,57.5,41.25,57.5z"/>
	</g>
	<g>
		<path class="st0" d="M41.25,7.5h-1c-0.276,0-0.5-0.224-0.5-0.5s0.224-0.5,0.5-0.5h1c0.276,0,0.5,0.224,0.5,0.5
			S41.526,7.5,41.25,7.5z"/>
	</g>
	<g>
		<path class="st0" d="M38.25,7.5h-15.5c-0.276,0-0.5-0.224-0.5-0.5s0.224-0.5,0.5-0.5h15.5c0.276,0,0.5,0.224,0.5,0.5
			S38.526,7.5,38.25,7.5z"/>
	</g>
</g>
</svg>
