<?xml version="1.0" encoding="utf-8"?>
<!-- Generator: Adobe Illustrator 22.0.0, SVG Export Plug-In . SVG Version: 6.00 Build 0)  -->
<svg version="1.1" id="Icon_Set" xmlns="http://www.w3.org/2000/svg" xmlns:xlink="http://www.w3.org/1999/xlink" x="0px" y="0px"
	 viewBox="0 0 64 64" style="enable-background:new 0 0 64 64;" xml:space="preserve">
<style type="text/css">
	.st0{fill:#263238;}
	.st1{fill:#FFD740;}
	.st2{fill:#4FC3F7;}
	.st3{fill:#40C4FF;}
	.st4{fill:#FF5252;}
	.st5{fill:#FFFFFF;}
	.st6{fill:#212A41;}
	.st7{fill:#37474F;}
	.st8{fill:#4DB6AC;}
</style>
<g>
	<g>
		<path class="st0" d="M53,38.75c-0.276,0-0.5-0.224-0.5-0.5v-1c0-0.276,0.224-0.5,0.5-0.5s0.5,0.224,0.5,0.5v1
			C53.5,38.526,53.276,38.75,53,38.75z"/>
	</g>
	<g>
		<path class="st0" d="M53,51.25c-0.276,0-0.5-0.224-0.5-0.5v-10.5c0-0.276,0.224-0.5,0.5-0.5s0.5,0.224,0.5,0.5v10.5
			C53.5,51.026,53.276,51.25,53,51.25z"/>
	</g>
	<g>
		<path class="st0" d="M11,51.25c-0.276,0-0.5-0.224-0.5-0.5v-1c0-0.276,0.224-0.5,0.5-0.5s0.5,0.224,0.5,0.5v1
			C11.5,51.026,11.276,51.25,11,51.25z"/>
	</g>
	<g>
		<path class="st0" d="M11,48.25c-0.276,0-0.5-0.224-0.5-0.5v-10.5c0-0.276,0.224-0.5,0.5-0.5s0.5,0.224,0.5,0.5v10.5
			C11.5,48.026,11.276,48.25,11,48.25z"/>
	</g>
	<g>
		<path class="st0" d="M14,34.833c-0.077,0-0.154-0.018-0.227-0.054l-9.5-4.833C4.105,29.86,4,29.688,4,29.5v-3
			c0-0.136,0.056-0.267,0.154-0.361l11.5-11c0.199-0.191,0.516-0.183,0.707,0.016c0.19,0.2,0.184,0.516-0.016,0.707L5,26.714v2.479
			l9.227,4.694c0.246,0.125,0.345,0.426,0.219,0.672C14.357,34.734,14.182,34.833,14,34.833z"/>
	</g>
	<g>
		<path class="st0" d="M47,60H17c-0.827,0-1.5-0.673-1.5-1.5v-43c0-0.215,0.138-0.406,0.342-0.474l5.937-1.979l2.944-1.963
			C24.805,11.029,24.901,11,25,11h14c0.099,0,0.195,0.029,0.277,0.084l2.944,1.963l5.937,1.979c0.204,0.068,0.342,0.259,0.342,0.474
			v43C48.5,59.327,47.827,60,47,60z M16.5,15.86V58.5c0,0.276,0.225,0.5,0.5,0.5h30c0.275,0,0.5-0.224,0.5-0.5V15.86l-5.658-1.886
			c-0.042-0.014-0.082-0.033-0.119-0.058L38.849,12H25.151l-2.874,1.916c-0.037,0.025-0.077,0.044-0.119,0.058L16.5,15.86z"/>
	</g>
	<g>
		<path class="st0" d="M50,34.833c-0.182,0-0.357-0.1-0.445-0.273c-0.126-0.246-0.027-0.547,0.219-0.672L59,29.193v-2.479
			L47.654,15.861c-0.199-0.191-0.206-0.507-0.016-0.707c0.191-0.198,0.508-0.207,0.707-0.016l11.5,11
			C59.944,26.233,60,26.364,60,26.5v3c0,0.188-0.105,0.36-0.273,0.446l-9.5,4.833C50.154,34.816,50.077,34.833,50,34.833z"/>
	</g>
	<g>
		<path class="st3" d="M39,11.5l-2,9H27l-2-9l-3,2l2.821,12.225c0.105,0.454,0.509,0.775,0.974,0.775h12.409
			c0.466,0,0.87-0.321,0.974-0.775L42,13.5L39,11.5z"/>
		<path class="st0" d="M38.204,27H25.796c-0.703,0-1.304-0.478-1.462-1.163l-2.821-12.225c-0.047-0.203,0.037-0.413,0.21-0.528l3-2
			c0.136-0.092,0.31-0.111,0.464-0.048c0.153,0.062,0.266,0.194,0.302,0.355L27.401,20h9.197l1.913-8.608
			c0.036-0.161,0.148-0.294,0.302-0.355c0.153-0.063,0.326-0.044,0.464,0.048l3,2c0.173,0.115,0.257,0.326,0.21,0.528l-2.821,12.225
			C39.508,26.522,38.907,27,38.204,27z M22.564,13.724l2.744,11.889C25.361,25.841,25.562,26,25.796,26h12.408
			c0.234,0,0.435-0.159,0.487-0.387l2.744-11.889l-2.105-1.403l-1.842,8.288C37.438,20.837,37.234,21,37,21H27
			c-0.234,0-0.438-0.163-0.488-0.392l-1.842-8.288L22.564,13.724z"/>
	</g>
	<g>
		<path class="st3" d="M19.447,32.224L16,30.5v24l3.447-1.724C19.786,52.607,20,52.261,20,51.882V33.118
			C20,32.739,19.786,32.393,19.447,32.224z"/>
		<path class="st0" d="M16,55c-0.092,0-0.183-0.025-0.263-0.075C15.59,54.834,15.5,54.673,15.5,54.5v-24
			c0-0.173,0.09-0.334,0.237-0.425c0.146-0.091,0.331-0.099,0.486-0.022l3.447,1.724c0.512,0.256,0.829,0.77,0.829,1.342v18.764
			c0,0.572-0.317,1.086-0.829,1.342l-3.447,1.724C16.153,54.982,16.076,55,16,55z M16.5,31.309v22.382l2.724-1.362
			c0.171-0.085,0.276-0.256,0.276-0.447V33.118c0-0.191-0.105-0.362-0.276-0.447L16.5,31.309z"/>
	</g>
	<g>
		<path class="st3" d="M44.553,32.224L48,30.5v24l-3.447-1.724C44.214,52.607,44,52.261,44,51.882V33.118
			C44,32.739,44.214,32.393,44.553,32.224z"/>
		<path class="st0" d="M48,55c-0.076,0-0.153-0.018-0.224-0.053l-3.447-1.724c-0.512-0.256-0.829-0.77-0.829-1.342V33.118
			c0-0.572,0.317-1.086,0.829-1.342l3.447-1.724c0.154-0.078,0.339-0.069,0.486,0.022S48.5,30.327,48.5,30.5v24
			c0,0.173-0.09,0.334-0.237,0.425C48.183,54.975,48.092,55,48,55z M47.5,31.309l-2.724,1.362c-0.171,0.085-0.276,0.256-0.276,0.447
			v18.764c0,0.191,0.105,0.362,0.276,0.447l2.724,1.362V31.309z"/>
	</g>
	<g>
		<path class="st1" d="M36,36.5h-8c-0.552,0-1-0.448-1-1v-2c0-0.552,0.448-1,1-1h8c0.552,0,1,0.448,1,1v2
			C37,36.052,36.552,36.5,36,36.5z"/>
		<path class="st0" d="M36,37h-8c-0.827,0-1.5-0.673-1.5-1.5v-2c0-0.827,0.673-1.5,1.5-1.5h8c0.827,0,1.5,0.673,1.5,1.5v2
			C37.5,36.327,36.827,37,36,37z M28,33c-0.275,0-0.5,0.224-0.5,0.5v2c0,0.276,0.225,0.5,0.5,0.5h8c0.275,0,0.5-0.224,0.5-0.5v-2
			c0-0.276-0.225-0.5-0.5-0.5H28z"/>
	</g>
	<g>
		<path class="st0" d="M37,40H27c-0.276,0-0.5-0.224-0.5-0.5S26.724,39,27,39h10c0.276,0,0.5,0.224,0.5,0.5S37.276,40,37,40z"/>
	</g>
	<g>
		<path class="st0" d="M59,11.5h-4c-0.276,0-0.5-0.224-0.5-0.5s0.224-0.5,0.5-0.5h4c0.276,0,0.5,0.224,0.5,0.5S59.276,11.5,59,11.5z
			"/>
	</g>
	<g>
		<path class="st0" d="M51.5,7h-4C47.224,7,47,6.776,47,6.5S47.224,6,47.5,6h4C51.776,6,52,6.224,52,6.5S51.776,7,51.5,7z"/>
	</g>
	<g>
		<path class="st0" d="M49.5,9C49.224,9,49,8.776,49,8.5v-4C49,4.224,49.224,4,49.5,4S50,4.224,50,4.5v4C50,8.776,49.776,9,49.5,9z"
			/>
	</g>
	<g>
		<path class="st0" d="M57,13.5c-0.276,0-0.5-0.224-0.5-0.5V9c0-0.276,0.224-0.5,0.5-0.5s0.5,0.224,0.5,0.5v4
			C57.5,13.276,57.276,13.5,57,13.5z"/>
	</g>
</g>
</svg>
