<?xml version="1.0" encoding="utf-8"?>
<!-- Generator: Adobe Illustrator 22.0.0, SVG Export Plug-In . SVG Version: 6.00 Build 0)  -->
<svg version="1.1" id="Icon_Set" xmlns="http://www.w3.org/2000/svg" xmlns:xlink="http://www.w3.org/1999/xlink" x="0px" y="0px"
	 viewBox="0 0 64 64" style="enable-background:new 0 0 64 64;" xml:space="preserve">
<style type="text/css">
	.st0{fill:#263238;}
	.st1{fill:#FFD740;}
	.st2{fill:#4FC3F7;}
	.st3{fill:#40C4FF;}
	.st4{fill:#FF5252;}
	.st5{fill:#FFFFFF;}
	.st6{fill:#212A41;}
	.st7{fill:#37474F;}
	.st8{fill:#4DB6AC;}
</style>
<g>
	<g>
		<g>
			<path class="st0" d="M35,4.5h-1c-0.276,0-0.5-0.224-0.5-0.5s0.224-0.5,0.5-0.5h1c0.276,0,0.5,0.224,0.5,0.5S35.276,4.5,35,4.5z"
				/>
		</g>
		<g>
			<path class="st0" d="M4,32.5c-0.276,0-0.5-0.224-0.5-0.5C3.5,16.285,16.285,3.5,32,3.5c0.276,0,0.5,0.224,0.5,0.5
				S32.276,4.5,32,4.5C16.836,4.5,4.5,16.836,4.5,32C4.5,32.276,4.276,32.5,4,32.5z"/>
		</g>
		<g>
			<path class="st0" d="M32,60.5c-0.276,0-0.5-0.224-0.5-0.5s0.224-0.5,0.5-0.5c15.163,0,27.5-12.336,27.5-27.5
				c0-0.276,0.224-0.5,0.5-0.5s0.5,0.224,0.5,0.5C60.5,47.715,47.715,60.5,32,60.5z"/>
		</g>
		<g>
			<path class="st0" d="M30,60.5h-1c-0.276,0-0.5-0.224-0.5-0.5s0.224-0.5,0.5-0.5h1c0.276,0,0.5,0.224,0.5,0.5S30.276,60.5,30,60.5
				z"/>
		</g>
		<g>
			<path class="st0" d="M32,56.5C18.491,56.5,7.5,45.509,7.5,32S18.491,7.5,32,7.5c13.51,0,24.5,10.991,24.5,24.5
				S45.51,56.5,32,56.5z M32,8.5C19.042,8.5,8.5,19.042,8.5,32S19.042,55.5,32,55.5S55.5,44.958,55.5,32S44.958,8.5,32,8.5z"/>
		</g>
		<g>
			<path class="st0" d="M53,6.5h-4c-0.276,0-0.5-0.224-0.5-0.5s0.224-0.5,0.5-0.5h4c0.276,0,0.5,0.224,0.5,0.5S53.276,6.5,53,6.5z"
				/>
		</g>
		<g>
			<path class="st0" d="M51,8.5c-0.276,0-0.5-0.224-0.5-0.5V4c0-0.276,0.224-0.5,0.5-0.5s0.5,0.224,0.5,0.5v4
				C51.5,8.276,51.276,8.5,51,8.5z"/>
		</g>
		<g>
			<path class="st0" d="M60,13h-4c-0.276,0-0.5-0.224-0.5-0.5S55.724,12,56,12h4c0.276,0,0.5,0.224,0.5,0.5S60.276,13,60,13z"/>
		</g>
		<g>
			<path class="st0" d="M58,15c-0.276,0-0.5-0.224-0.5-0.5v-4c0-0.276,0.224-0.5,0.5-0.5s0.5,0.224,0.5,0.5v4
				C58.5,14.776,58.276,15,58,15z"/>
		</g>
	</g>
	<g>
		<path class="st3" d="M32.001,8c-13.255,0-24,10.745-24,24s10.745,24,24,24c13.255,0,24-10.745,24-24S45.256,8,32.001,8z
			 M32.001,50c-9.941,0-18-8.059-18-18c0-9.941,8.059-18,18-18c9.941,0,18,8.059,18,18C50.001,41.941,41.942,50,32.001,50z"/>
		<path class="st0" d="M32.001,56.5c-13.509,0-24.5-10.991-24.5-24.5s10.991-24.5,24.5-24.5s24.5,10.991,24.5,24.5
			S45.511,56.5,32.001,56.5z M32.001,8.5c-12.958,0-23.5,10.542-23.5,23.5s10.542,23.5,23.5,23.5c12.958,0,23.5-10.542,23.5-23.5
			S44.959,8.5,32.001,8.5z M32.001,50.5c-10.201,0-18.5-8.299-18.5-18.5s8.299-18.5,18.5-18.5c10.201,0,18.5,8.299,18.5,18.5
			S42.202,50.5,32.001,50.5z M32.001,14.5c-9.649,0-17.5,7.851-17.5,17.5s7.851,17.5,17.5,17.5c9.649,0,17.5-7.851,17.5-17.5
			S41.65,14.5,32.001,14.5z"/>
	</g>
	<g>
		<path class="st0" d="M20.792,24.733c-0.064,0-0.129-0.012-0.191-0.038c-0.255-0.105-0.376-0.398-0.271-0.653l1.083-2.613
			c0.106-0.255,0.399-0.376,0.653-0.271l2.613,1.083c0.255,0.105,0.376,0.398,0.271,0.653c-0.105,0.255-0.399,0.375-0.653,0.271
			l-2.151-0.891l-0.891,2.151C21.174,24.617,20.988,24.733,20.792,24.733z"/>
	</g>
	<g>
		<path class="st0" d="M30.587,31.085c-0.015,0-0.03,0-0.046-0.002c-4.747-0.432-8.506-4.19-8.938-8.938
			c-0.025-0.275,0.178-0.519,0.453-0.543c0.282-0.024,0.518,0.178,0.543,0.453c0.388,4.266,3.766,7.645,8.033,8.032
			c0.275,0.025,0.478,0.269,0.453,0.543C31.061,30.89,30.843,31.085,30.587,31.085z"/>
	</g>
	<g>
		<path class="st0" d="M42.127,42.879c-0.063,0-0.129-0.012-0.191-0.038l-2.613-1.082c-0.255-0.105-0.376-0.398-0.271-0.653
			c0.106-0.254,0.398-0.376,0.653-0.271l2.151,0.891l0.892-2.151c0.106-0.256,0.401-0.375,0.653-0.271
			c0.255,0.106,0.376,0.398,0.271,0.653l-1.083,2.613C42.509,42.763,42.323,42.879,42.127,42.879z"/>
	</g>
	<g>
		<path class="st0" d="M41.899,42.399c-0.255,0-0.474-0.195-0.497-0.455c-0.389-4.267-3.767-7.645-8.032-8.033
			c-0.275-0.025-0.478-0.269-0.453-0.543c0.025-0.275,0.287-0.48,0.543-0.453c4.747,0.432,8.506,4.19,8.938,8.938
			c0.025,0.275-0.178,0.519-0.453,0.543C41.931,42.399,41.915,42.399,41.899,42.399z"/>
	</g>
	<g>
		<circle class="st4" cx="32.001" cy="32" r="3"/>
		<path class="st0" d="M32.001,35.5c-0.935,0-1.814-0.364-2.475-1.025c-1.364-1.364-1.364-3.585,0-4.95
			c1.365-1.364,3.584-1.364,4.95,0c0.661,0.661,1.025,1.54,1.025,2.475s-0.364,1.814-1.025,2.475
			C33.814,35.136,32.936,35.5,32.001,35.5z M32.001,29.501c-0.64,0-1.281,0.244-1.768,0.731c-0.975,0.975-0.975,2.561,0,3.536
			c0.944,0.944,2.59,0.945,3.536,0c0.473-0.472,0.732-1.1,0.732-1.768c0-0.668-0.26-1.296-0.732-1.768
			C33.281,29.745,32.641,29.501,32.001,29.501z"/>
	</g>
</g>
</svg>
