<?xml version="1.0" encoding="utf-8"?>
<!-- Generator: Adobe Illustrator 22.0.0, SVG Export Plug-In . SVG Version: 6.00 Build 0)  -->
<svg version="1.1" id="Icon_Set" xmlns="http://www.w3.org/2000/svg" xmlns:xlink="http://www.w3.org/1999/xlink" x="0px" y="0px"
	 viewBox="0 0 64 64" style="enable-background:new 0 0 64 64;" xml:space="preserve">
<style type="text/css">
	.st0{fill:#263238;}
	.st1{fill:#FFD740;}
	.st2{fill:#4FC3F7;}
	.st3{fill:#40C4FF;}
	.st4{fill:#FF5252;}
	.st5{fill:#FFFFFF;}
	.st6{fill:#212A41;}
	.st7{fill:#37474F;}
	.st8{fill:#4DB6AC;}
</style>
<g>
	<g>
		<path class="st3" d="M41.281,37.683l-6.03-2.68c-1.433,2.13-4.569,2.126-5.998-0.007l-0.002-0.003l-0.001-0.001l-6.034,2.688
			c-1.803,0.803-2.965,2.593-2.965,4.567v3.754h24v-3.75C44.25,40.276,43.087,38.485,41.281,37.683z"/>
	</g>
	<g>
		<path class="st0" d="M44.25,46.502c-0.276,0-0.5-0.224-0.5-0.5v-3.75c0-1.776-1.049-3.391-2.673-4.112l-5.667-2.518
			c-0.777,0.932-1.928,1.477-3.157,1.477c-0.001,0-0.003,0-0.005,0c-1.231-0.001-2.384-0.55-3.159-1.485l-5.67,2.525
			c-1.622,0.723-2.669,2.336-2.669,4.111v3.754c0,0.276-0.224,0.5-0.5,0.5s-0.5-0.224-0.5-0.5v-3.754
			c0-2.169,1.28-4.141,3.262-5.024l6.034-2.688c0.202-0.091,0.439-0.037,0.583,0.131c0.625,0.926,1.567,1.429,2.621,1.43
			c0.001,0,0.002,0,0.004,0c1.053,0,1.993-0.5,2.582-1.374c0.136-0.201,0.397-0.275,0.618-0.178l6.03,2.679
			c1.984,0.882,3.267,2.855,3.267,5.026v3.75C44.75,46.279,44.527,46.502,44.25,46.502z"/>
	</g>
	<g>
		<path class="st0" d="M32.25,34.498c-4.687,0-8.5-3.813-8.5-8.5s3.813-8.5,8.5-8.5s8.5,3.813,8.5,8.5S36.938,34.498,32.25,34.498z
			 M32.25,18.498c-4.136,0-7.5,3.364-7.5,7.5s3.364,7.5,7.5,7.5s7.5-3.364,7.5-7.5S36.386,18.498,32.25,18.498z"/>
	</g>
	<g>
		<path class="st1" d="M37.798,21.372l0.596-0.496c-1.468-1.758-3.674-2.878-6.143-2.878c-4.418,0-8,3.582-8,8h0.755
			C29.679,25.998,34.205,24.361,37.798,21.372z"/>
		<path class="st0" d="M25.006,26.498H24.25c-0.276,0-0.5-0.224-0.5-0.5c0-4.687,3.813-8.5,8.5-8.5c2.526,0,4.905,1.115,6.527,3.058
			c0.085,0.102,0.126,0.233,0.114,0.366c-0.012,0.132-0.076,0.254-0.178,0.339l-0.596,0.496l0,0
			C34.442,24.814,29.786,26.498,25.006,26.498z M24.767,25.498h0.239c4.547,0,8.976-1.602,12.472-4.51l0.199-0.166
			c-1.414-1.483-3.364-2.325-5.426-2.325C28.283,18.498,25.025,21.594,24.767,25.498z M37.797,21.372h0.01H37.797z"/>
	</g>
	<g>
		<path class="st0" d="M32.254,37.098c-0.002,0-0.003,0-0.005,0c-1.372-0.001-2.647-0.683-3.412-1.823
			c-0.055-0.083-0.086-0.182-0.086-0.281v-1.58c0-0.34,0.379-0.59,0.696-0.464c1.805,0.728,3.817,0.726,5.617-0.003
			c0.154-0.062,0.33-0.044,0.467,0.049c0.138,0.093,0.221,0.249,0.221,0.415l0,1.592c0,0.1-0.03,0.197-0.085,0.279
			C34.9,36.419,33.625,37.098,32.254,37.098z M29.751,34.836c0.591,0.804,1.494,1.261,2.5,1.262c0.001,0,0.002,0,0.003,0
			c1.003,0,1.905-0.455,2.497-1.254l0-0.725c-1.623,0.501-3.377,0.502-5,0V34.836z"/>
	</g>
	<g>
		<rect x="6" y="52" class="st4" width="6" height="6"/>
		<path class="st0" d="M12,58.5H6c-0.276,0-0.5-0.224-0.5-0.5v-6c0-0.276,0.224-0.5,0.5-0.5h6c0.276,0,0.5,0.224,0.5,0.5v6
			C12.5,58.276,12.277,58.5,12,58.5z M6.5,57.5h5v-5h-5V57.5z"/>
	</g>
	<g>
		<rect x="52" y="52" class="st4" width="6" height="6"/>
		<path class="st0" d="M58,58.5h-6c-0.276,0-0.5-0.224-0.5-0.5v-6c0-0.276,0.224-0.5,0.5-0.5h6c0.276,0,0.5,0.224,0.5,0.5v6
			C58.5,58.276,58.277,58.5,58,58.5z M52.5,57.5h5v-5h-5V57.5z"/>
	</g>
	<g>
		<rect x="6" y="6" class="st4" width="6" height="6"/>
		<path class="st0" d="M12,12.5H6c-0.276,0-0.5-0.224-0.5-0.5V6c0-0.276,0.224-0.5,0.5-0.5h6c0.276,0,0.5,0.224,0.5,0.5v6
			C12.5,12.276,12.277,12.5,12,12.5z M6.5,11.5h5v-5h-5V11.5z"/>
	</g>
	<g>
		<rect x="52" y="6" class="st4" width="6" height="6"/>
		<path class="st0" d="M58,12.5h-6c-0.276,0-0.5-0.224-0.5-0.5V6c0-0.276,0.224-0.5,0.5-0.5h6c0.276,0,0.5,0.224,0.5,0.5v6
			C58.5,12.276,58.277,12.5,58,12.5z M52.5,11.5h5v-5h-5V11.5z"/>
	</g>
	<g>
		<path class="st0" d="M37.25,55.975c-0.231,0-0.439-0.161-0.489-0.396c-0.057-0.27,0.115-0.535,0.386-0.593
			c9.066-1.922,16.167-9.022,18.089-18.089c0.057-0.27,0.326-0.441,0.593-0.386c0.271,0.058,0.443,0.323,0.386,0.593
			c-2.004,9.453-9.407,16.856-18.86,18.86C37.319,55.971,37.284,55.975,37.25,55.975z"/>
	</g>
	<g>
		<path class="st0" d="M27.251,55.975c-0.034,0-0.069-0.003-0.104-0.011c-9.453-2.004-16.856-9.407-18.86-18.86
			c-0.057-0.27,0.115-0.535,0.386-0.593c0.27-0.057,0.536,0.116,0.593,0.386c1.922,9.066,9.022,16.167,18.089,18.089
			c0.271,0.058,0.443,0.323,0.386,0.593C27.69,55.813,27.482,55.975,27.251,55.975z"/>
	</g>
	<g>
		<path class="st0" d="M8.776,27.5c-0.034,0-0.069-0.003-0.104-0.011c-0.271-0.058-0.443-0.323-0.386-0.593
			c2.004-9.453,9.407-16.856,18.86-18.86c0.268-0.058,0.536,0.116,0.593,0.386s-0.115,0.535-0.386,0.593
			c-9.066,1.922-16.167,9.022-18.089,18.089C9.215,27.339,9.007,27.5,8.776,27.5z"/>
	</g>
	<g>
		<path class="st0" d="M55.725,27.5c-0.231,0-0.439-0.161-0.489-0.396c-1.922-9.066-9.022-16.167-18.089-18.089
			c-0.271-0.058-0.443-0.323-0.386-0.593c0.058-0.27,0.325-0.443,0.593-0.386c9.453,2.004,16.856,9.407,18.86,18.86
			c0.057,0.27-0.115,0.535-0.386,0.593C55.794,27.497,55.759,27.5,55.725,27.5z"/>
	</g>
</g>
</svg>
