<?xml version="1.0" encoding="utf-8"?>
<!-- Generator: Adobe Illustrator 21.1.0, SVG Export Plug-In . SVG Version: 6.00 Build 0)  -->
<svg version="1.1" id="Icon_Set" xmlns="http://www.w3.org/2000/svg" xmlns:xlink="http://www.w3.org/1999/xlink" x="0px" y="0px"
	 viewBox="0 0 64 64" style="enable-background:new 0 0 64 64;" xml:space="preserve">
<style type="text/css">
	.st0{fill:#263238;}
	.st1{fill:#FF5252;}
	.st2{fill:#FFD740;}
	.st3{fill:#40C4FF;}
	.st4{fill:#FFFFFF;}
	.st5{fill:#4DB6AC;}
	.st6{fill:#4FC3F7;}
</style>
<g id="Ardor">
	<g>
		<path class="st0" d="M29.5,61.25h-1c-0.276,0-0.5-0.224-0.5-0.5s0.224-0.5,0.5-0.5h1c0.276,0,0.5,0.224,0.5,0.5
			S29.776,61.25,29.5,61.25z"/>
	</g>
	<g>
		<path class="st0" d="M31.25,57.25c-13.509,0-24.5-10.99-24.5-24.5s10.991-24.5,24.5-24.5c13.51,0,24.5,10.99,24.5,24.5
			S44.76,57.25,31.25,57.25z M31.25,9.25c-12.958,0-23.5,10.542-23.5,23.5s10.542,23.5,23.5,23.5s23.5-10.542,23.5-23.5
			S44.208,9.25,31.25,9.25z"/>
	</g>
	<g>
		<path class="st0" d="M3.25,33.25c-0.276,0-0.5-0.224-0.5-0.5c0-15.715,12.785-28.5,28.5-28.5c0.276,0,0.5,0.224,0.5,0.5
			s-0.224,0.5-0.5,0.5c-15.164,0-27.5,12.337-27.5,27.5C3.75,33.026,3.526,33.25,3.25,33.25z"/>
	</g>
	<g>
		<path class="st0" d="M34.25,5.25h-1c-0.276,0-0.5-0.224-0.5-0.5s0.224-0.5,0.5-0.5h1c0.276,0,0.5,0.224,0.5,0.5
			S34.526,5.25,34.25,5.25z"/>
	</g>
	<g>
		<path class="st0" d="M31.25,61.25c-0.276,0-0.5-0.224-0.5-0.5s0.224-0.5,0.5-0.5c15.163,0,27.5-12.337,27.5-27.5
			c0-0.276,0.224-0.5,0.5-0.5s0.5,0.224,0.5,0.5C59.75,48.465,46.965,61.25,31.25,61.25z"/>
	</g>
	<g>
		<path class="st0" d="M53.75,5.75h-4c-0.276,0-0.5-0.224-0.5-0.5s0.224-0.5,0.5-0.5h4c0.276,0,0.5,0.224,0.5,0.5
			S54.026,5.75,53.75,5.75z"/>
	</g>
	<g>
		<path class="st0" d="M51.75,7.75c-0.276,0-0.5-0.224-0.5-0.5v-4c0-0.276,0.224-0.5,0.5-0.5s0.5,0.224,0.5,0.5v4
			C52.25,7.526,52.026,7.75,51.75,7.75z"/>
	</g>
	<g>
		<path class="st0" d="M60.75,12.25h-4c-0.276,0-0.5-0.224-0.5-0.5s0.224-0.5,0.5-0.5h4c0.276,0,0.5,0.224,0.5,0.5
			S61.026,12.25,60.75,12.25z"/>
	</g>
	<g>
		<path class="st0" d="M58.75,14.25c-0.276,0-0.5-0.224-0.5-0.5v-4c0-0.276,0.224-0.5,0.5-0.5s0.5,0.224,0.5,0.5v4
			C59.25,14.026,59.026,14.25,58.75,14.25z"/>
	</g>
	<g>
		<path class="st0" d="M31.25,53.25c-11.304,0-20.5-9.196-20.5-20.5s9.196-20.5,20.5-20.5s20.5,9.196,20.5,20.5
			S42.554,53.25,31.25,53.25z M31.25,13.25c-10.752,0-19.5,8.748-19.5,19.5s8.748,19.5,19.5,19.5c10.752,0,19.5-8.748,19.5-19.5
			S42.002,13.25,31.25,13.25z"/>
	</g>
	<g>
		<polygon class="st3" points="31.25,18.75 18.25,40.75 24.25,40.75 34.25,23.827 		"/>
		<path class="st0" d="M24.25,41.25h-6c-0.18,0-0.345-0.097-0.434-0.252c-0.089-0.156-0.088-0.348,0.003-0.502l13-22
			c0.181-0.305,0.681-0.305,0.861,0l3,5.077c0.093,0.156,0.093,0.352,0,0.508l-10,16.923C24.59,41.156,24.427,41.25,24.25,41.25z
			 M19.126,40.25h4.839l9.704-16.423l-2.419-4.095L19.126,40.25z"/>
	</g>
	<g>
		<polygon class="st3" points="35.412,25.793 32.412,30.87 38.25,40.75 44.25,40.75 		"/>
		<path class="st0" d="M44.25,41.25h-6c-0.177,0-0.341-0.094-0.431-0.246l-5.838-9.881c-0.093-0.156-0.092-0.352,0-0.509l3-5.076
			c0.09-0.151,0.254-0.245,0.431-0.245l0,0c0.177,0,0.341,0.094,0.431,0.246l8.838,14.957c0.091,0.154,0.093,0.346,0.004,0.502
			C44.596,41.153,44.43,41.25,44.25,41.25z M38.535,40.25h4.839l-7.962-13.475l-2.42,4.094L38.535,40.25z"/>
	</g>
	<g>
		<polygon class="st3" points="31.25,32.835 26.573,40.75 33.404,36.48 		"/>
		<path class="st0" d="M26.573,41.25c-0.127,0-0.253-0.049-0.349-0.142c-0.165-0.161-0.199-0.414-0.082-0.612l4.677-7.915
			c0.181-0.305,0.681-0.305,0.861,0l2.154,3.646c0.138,0.233,0.064,0.534-0.166,0.678l-6.831,4.27
			C26.756,41.225,26.665,41.25,26.573,41.25z M31.25,33.817l-3.204,5.422l4.679-2.924L31.25,33.817z"/>
	</g>
</g>
</svg>
