<?xml version="1.0" encoding="utf-8"?>
<!-- Generator: Adobe Illustrator 21.1.0, SVG Export Plug-In . SVG Version: 6.00 Build 0)  -->
<svg version="1.1" id="Icon_Set" xmlns="http://www.w3.org/2000/svg" xmlns:xlink="http://www.w3.org/1999/xlink" x="0px" y="0px"
	 viewBox="0 0 64 64" style="enable-background:new 0 0 64 64;" xml:space="preserve">
<style type="text/css">
	.st0{fill:#263238;}
	.st1{fill:#FFFFFF;}
	.st2{fill:#FF5252;}
	.st3{fill:#FFD740;}
	.st4{fill:#40C4FF;}
	.st5{fill:#4DB6AC;}
	.st6{fill:#4FC3F7;}
</style>
<g id="Bitcoin_Encryption">
	<g>
		<circle class="st3" cx="51" cy="51.5" r="10"/>
		<path class="st0" d="M51,62c-5.79,0-10.5-4.71-10.5-10.5S45.21,41,51,41s10.5,4.71,10.5,10.5S56.79,62,51,62z M51,42
			c-5.238,0-9.5,4.262-9.5,9.5S45.762,61,51,61s9.5-4.262,9.5-9.5S56.238,42,51,42z"/>
	</g>
	<g>
		<path class="st0" d="M52,52h-3.5c-0.276,0-0.5-0.224-0.5-0.5v-4c0-0.276,0.224-0.5,0.5-0.5H52c1.379,0,2.5,1.122,2.5,2.5
			S53.379,52,52,52z M49,51h3c0.827,0,1.5-0.673,1.5-1.5S52.827,48,52,48h-3V51z"/>
	</g>
	<g>
		<path class="st0" d="M53,56h-4.5c-0.276,0-0.5-0.224-0.5-0.5v-4c0-0.276,0.224-0.5,0.5-0.5H53c1.379,0,2.5,1.122,2.5,2.5
			S54.379,56,53,56z M49,55h4c0.827,0,1.5-0.673,1.5-1.5S53.827,52,53,52h-4V55z"/>
	</g>
	<g>
		<path class="st0" d="M48.5,48H47c-0.276,0-0.5-0.224-0.5-0.5S46.724,47,47,47h1.5c0.276,0,0.5,0.224,0.5,0.5S48.776,48,48.5,48z"
			/>
	</g>
	<g>
		<path class="st0" d="M48.5,56H47c-0.276,0-0.5-0.224-0.5-0.5S46.724,55,47,55h1.5c0.276,0,0.5,0.224,0.5,0.5S48.776,56,48.5,56z"
			/>
	</g>
	<g>
		<path class="st0" d="M50,48c-0.276,0-0.5-0.224-0.5-0.5v-2c0-0.276,0.224-0.5,0.5-0.5s0.5,0.224,0.5,0.5v2
			C50.5,47.776,50.276,48,50,48z"/>
	</g>
	<g>
		<path class="st0" d="M52,48c-0.276,0-0.5-0.224-0.5-0.5v-2c0-0.276,0.224-0.5,0.5-0.5s0.5,0.224,0.5,0.5v2
			C52.5,47.776,52.276,48,52,48z"/>
	</g>
	<g>
		<path class="st0" d="M50,58c-0.276,0-0.5-0.224-0.5-0.5v-2c0-0.276,0.224-0.5,0.5-0.5s0.5,0.224,0.5,0.5v2
			C50.5,57.776,50.276,58,50,58z"/>
	</g>
	<g>
		<path class="st0" d="M52,58c-0.276,0-0.5-0.224-0.5-0.5v-2c0-0.276,0.224-0.5,0.5-0.5s0.5,0.224,0.5,0.5v2
			C52.5,57.776,52.276,58,52,58z"/>
	</g>
	<g>
		<path class="st0" d="M9.501,17c-0.276,0-0.5-0.224-0.5-0.5v-4c0-0.276,0.224-0.5,0.5-0.5s0.5,0.224,0.5,0.5v4
			C10.001,16.776,9.777,17,9.501,17z"/>
	</g>
	<g>
		<path class="st0" d="M11.501,15h-4c-0.276,0-0.5-0.224-0.5-0.5s0.224-0.5,0.5-0.5h4c0.276,0,0.5,0.224,0.5,0.5
			S11.777,15,11.501,15z"/>
	</g>
	<g>
		<path class="st0" d="M5,25c-0.276,0-0.5-0.224-0.5-0.5v-4C4.5,20.224,4.724,20,5,20s0.5,0.224,0.5,0.5v4C5.5,24.776,5.276,25,5,25
			z"/>
	</g>
	<g>
		<path class="st0" d="M7,23H3c-0.276,0-0.5-0.224-0.5-0.5S2.724,22,3,22h4c0.276,0,0.5,0.224,0.5,0.5S7.276,23,7,23z"/>
	</g>
	<g>
		<path class="st0" d="M8,58c-0.276,0-0.5-0.224-0.5-0.5v-1C7.5,56.224,7.724,56,8,56s0.5,0.224,0.5,0.5v1C8.5,57.776,8.276,58,8,58
			z"/>
	</g>
	<g>
		<path class="st0" d="M8,55c-0.276,0-0.5-0.224-0.5-0.5v-15C7.5,39.224,7.724,39,8,39s0.5,0.224,0.5,0.5v15
			C8.5,54.776,8.276,55,8,55z"/>
	</g>
	<g>
		<path class="st0" d="M52,15c-0.276,0-0.5-0.224-0.5-0.5v-1c0-0.276,0.224-0.5,0.5-0.5s0.5,0.224,0.5,0.5v1
			C52.5,14.776,52.276,15,52,15z"/>
	</g>
	<g>
		<path class="st0" d="M52,32c-0.276,0-0.5-0.224-0.5-0.5v-15c0-0.276,0.224-0.5,0.5-0.5s0.5,0.224,0.5,0.5v15
			C52.5,31.776,52.276,32,52,32z"/>
	</g>
	<g>
		<path class="st0" d="M39.394,55H18c-3.032,0-5.5-2.467-5.5-5.5v-22c0-3.033,2.468-5.5,5.5-5.5h24c3.032,0,5.5,2.467,5.5,5.5
			v12.697c0,0.276-0.224,0.5-0.5,0.5s-0.5-0.224-0.5-0.5V27.5c0-2.481-2.019-4.5-4.5-4.5H18c-2.481,0-4.5,2.019-4.5,4.5v22
			c0,2.481,2.019,4.5,4.5,4.5h21.394c0.276,0,0.5,0.224,0.5,0.5S39.67,55,39.394,55z"/>
	</g>
	<g>
		<path class="st5" d="M27.879,44.596c-0.384,0-0.768-0.146-1.061-0.439l-4.95-4.95c-0.586-0.585-0.586-1.535,0-2.121
			s1.535-0.586,2.121,0l3.89,3.889l8.132-8.132c0.586-0.586,1.535-0.586,2.121,0c0.586,0.585,0.586,1.536,0,2.121l-9.192,9.192
			C28.647,44.45,28.263,44.596,27.879,44.596z"/>
		<path class="st0" d="M27.879,45.096c-0.534,0-1.036-0.208-1.414-0.586l-4.95-4.95c-0.378-0.377-0.586-0.879-0.586-1.414
			c0-0.534,0.208-1.036,0.586-1.414c0.756-0.756,2.072-0.756,2.828,0l3.536,3.536l7.778-7.778c0.779-0.78,2.049-0.78,2.828,0
			c0.378,0.377,0.586,0.88,0.586,1.414s-0.208,1.037-0.586,1.414l-9.192,9.192C28.915,44.888,28.413,45.096,27.879,45.096z
			 M22.929,37.146c-0.267,0-0.518,0.104-0.707,0.293c-0.188,0.189-0.293,0.44-0.293,0.707s0.104,0.518,0.293,0.707l4.95,4.95
			c0.379,0.378,1.035,0.378,1.414,0l9.192-9.192c0.188-0.189,0.293-0.44,0.293-0.707s-0.104-0.518-0.293-0.707
			c-0.391-0.39-1.023-0.39-1.414,0l-8.132,8.132c-0.195,0.195-0.512,0.195-0.707,0l-3.89-3.889
			C23.446,37.25,23.195,37.146,22.929,37.146z"/>
	</g>
	<g>
		<path class="st0" d="M42,21c-0.276,0-0.5-0.224-0.5-0.5v-6C41.5,8.159,36.341,3,30,3S18.5,8.159,18.5,14.5v6
			c0,0.276-0.224,0.5-0.5,0.5s-0.5-0.224-0.5-0.5v-6C17.5,7.607,23.107,2,30,2s12.5,5.607,12.5,12.5v6C42.5,20.776,42.276,21,42,21z
			"/>
	</g>
	<g>
		<path class="st0" d="M38,21c-0.276,0-0.5-0.224-0.5-0.5v-6c0-4.136-3.364-7.5-7.5-7.5s-7.5,3.364-7.5,7.5v6
			c0,0.276-0.224,0.5-0.5,0.5s-0.5-0.224-0.5-0.5v-6C21.5,9.813,25.313,6,30,6s8.5,3.813,8.5,8.5v6C38.5,20.776,38.276,21,38,21z"/>
	</g>
	<g>
		<path class="st0" d="M40.618,58H18c-0.827,0-1.5-0.673-1.5-1.5c0-0.276,0.224-0.5,0.5-0.5s0.5,0.224,0.5,0.5
			c0,0.276,0.225,0.5,0.5,0.5h22.618c0.276,0,0.5,0.224,0.5,0.5S40.895,58,40.618,58z"/>
	</g>
</g>
</svg>
