<?xml version="1.0" encoding="utf-8"?>
<!-- Generator: Adobe Illustrator 21.1.0, SVG Export Plug-In . SVG Version: 6.00 Build 0)  -->
<svg version="1.1" id="Icon_Set" xmlns="http://www.w3.org/2000/svg" xmlns:xlink="http://www.w3.org/1999/xlink" x="0px" y="0px"
	 viewBox="0 0 64 64" style="enable-background:new 0 0 64 64;" xml:space="preserve">
<style type="text/css">
	.st0{fill:#263238;}
	.st1{fill:#FFFFFF;}
	.st2{fill:#FF5252;}
	.st3{fill:#FFD740;}
	.st4{fill:#40C4FF;}
	.st5{fill:#4DB6AC;}
	.st6{fill:#4FC3F7;}
</style>
<g id="Bitcoin_Exchange">
	<g>
		<path class="st4" d="M12.5,29.5c0.611,0,1.206,0.06,1.793,0.148c1.035,5.858,4.897,10.727,10.133,13.163
			C23.771,48.821,18.684,53.5,12.5,53.5c-6.627,0-12-5.373-12-12S5.873,29.5,12.5,29.5z"/>
	</g>
	<g>
		<path class="st5" d="M51.5,29.5c-0.611,0-1.206,0.06-1.793,0.148c-1.035,5.858-4.897,10.727-10.133,13.163
			C40.229,48.821,45.316,53.5,51.5,53.5c6.627,0,12-5.373,12-12S58.127,29.5,51.5,29.5z"/>
	</g>
	<g>
		<circle class="st3" cx="32" cy="26.5" r="16"/>
		<path class="st0" d="M32,43c-9.098,0-16.5-7.402-16.5-16.5S22.902,10,32,10c9.098,0,16.5,7.402,16.5,16.5S41.098,43,32,43z M32,11
			c-8.547,0-15.5,6.953-15.5,15.5S23.453,42,32,42s15.5-6.953,15.5-15.5S40.547,11,32,11z"/>
	</g>
	<g>
		<path class="st0" d="M51.5,51c-5.238,0-9.5-4.262-9.5-9.5c0-0.104,0.007-0.205,0.014-0.307l0.009-0.134
			c0.013-0.275,0.26-0.485,0.523-0.475c0.276,0.014,0.488,0.249,0.475,0.524l-0.009,0.154C43.006,41.341,43,41.42,43,41.5
			c0,4.687,3.813,8.5,8.5,8.5s8.5-3.813,8.5-8.5S56.187,33,51.5,33c-0.867,0-1.725,0.131-2.548,0.389
			c-0.262,0.083-0.544-0.063-0.627-0.328c-0.082-0.263,0.064-0.544,0.328-0.626C49.573,32.146,50.531,32,51.5,32
			c5.238,0,9.5,4.262,9.5,9.5S56.738,51,51.5,51z"/>
	</g>
	<g>
		<path class="st1" d="M38.505,25.969c0.468-0.71,0.745-1.557,0.745-2.469c0-2.481-2.019-4.5-4.5-4.5v-2.5h-2V19h-2v-2.5h-2V19h-3.5
			v3h1.5v9h-1.5v3h3.5v2.5h2V34h2v2.5h2V34h1c2.481,0,4.5-2.019,4.5-4.5C40.25,28.061,39.559,26.793,38.505,25.969z M29.75,22h5
			c0.827,0,1.5,0.673,1.5,1.5s-0.673,1.5-1.5,1.5h-5V22z M35.75,31h-6v-3h5h1c0.827,0,1.5,0.673,1.5,1.5S36.577,31,35.75,31z"/>
		<path class="st0" d="M34.75,37h-2c-0.276,0-0.5-0.224-0.5-0.5v-2h-1v2c0,0.276-0.224,0.5-0.5,0.5h-2c-0.276,0-0.5-0.224-0.5-0.5
			v-2h-3c-0.276,0-0.5-0.224-0.5-0.5v-3c0-0.276,0.224-0.5,0.5-0.5h1v-8h-1c-0.276,0-0.5-0.224-0.5-0.5v-3
			c0-0.276,0.224-0.5,0.5-0.5h3v-2c0-0.276,0.224-0.5,0.5-0.5h2c0.276,0,0.5,0.224,0.5,0.5v2h1v-2c0-0.276,0.224-0.5,0.5-0.5h2
			c0.276,0,0.5,0.224,0.5,0.5v2.025c2.523,0.251,4.5,2.387,4.5,4.975c0,0.827-0.206,1.635-0.599,2.362
			c1.021,0.949,1.599,2.252,1.599,3.638c0,2.757-2.243,5-5,5h-0.5v2C35.25,36.776,35.026,37,34.75,37z M33.25,36h1v-2
			c0-0.276,0.224-0.5,0.5-0.5h1c2.206,0,4-1.794,4-4c0-1.222-0.565-2.366-1.553-3.138c-0.205-0.16-0.252-0.451-0.108-0.669
			c0.433-0.656,0.661-1.415,0.661-2.193c0-2.206-1.794-4-4-4c-0.276,0-0.5-0.224-0.5-0.5v-2h-1v2c0,0.276-0.224,0.5-0.5,0.5h-2
			c-0.276,0-0.5-0.224-0.5-0.5v-2h-1v2c0,0.276-0.224,0.5-0.5,0.5h-3v2h1c0.276,0,0.5,0.224,0.5,0.5v9c0,0.276-0.224,0.5-0.5,0.5h-1
			v2h3c0.276,0,0.5,0.224,0.5,0.5v2h1v-2c0-0.276,0.224-0.5,0.5-0.5h2c0.276,0,0.5,0.224,0.5,0.5V36z M35.75,31.5h-6
			c-0.276,0-0.5-0.224-0.5-0.5v-3c0-0.276,0.224-0.5,0.5-0.5h6c1.103,0,2,0.897,2,2S36.853,31.5,35.75,31.5z M30.25,30.5h5.5
			c0.552,0,1-0.449,1-1s-0.448-1-1-1h-5.5V30.5z M34.75,25.5h-5c-0.276,0-0.5-0.224-0.5-0.5v-3c0-0.276,0.224-0.5,0.5-0.5h5
			c1.103,0,2,0.897,2,2S35.853,25.5,34.75,25.5z M30.25,24.5h4.5c0.552,0,1-0.449,1-1s-0.448-1-1-1h-4.5V24.5z"/>
	</g>
	<g>
		<path class="st0" d="M15,14c-0.215,0-0.406-0.138-0.474-0.342L13.973,12c-0.231-0.691-0.782-1.242-1.473-1.473l-1.658-0.553
			C10.638,9.906,10.5,9.715,10.5,9.5s0.138-0.406,0.342-0.474L12.5,8.473C13.191,8.242,13.742,7.691,13.973,7l0.553-1.658
			c0.136-0.408,0.812-0.408,0.948,0L16.027,7c0.231,0.691,0.782,1.242,1.473,1.473l1.658,0.553C19.362,9.094,19.5,9.285,19.5,9.5
			s-0.138,0.406-0.342,0.474L17.5,10.527c-0.691,0.231-1.242,0.782-1.473,1.473l-0.553,1.658C15.406,13.862,15.215,14,15,14z
			 M12.581,9.5l0.235,0.079c0.988,0.33,1.775,1.117,2.105,2.105L15,11.919l0.079-0.235c0.33-0.988,1.117-1.775,2.105-2.105
			L17.419,9.5l-0.235-0.079c-0.988-0.33-1.775-1.117-2.105-2.105L15,7.081l-0.079,0.235c-0.33,0.988-1.117,1.775-2.105,2.105
			L12.581,9.5z"/>
	</g>
	<g>
		<path class="st0" d="M52.25,45.5H49c-0.276,0-0.5-0.224-0.5-0.5s0.224-0.5,0.5-0.5h3.25c0.689,0,1.25-0.561,1.25-1.25
			S52.939,42,52.25,42h-1.5c-1.24,0-2.25-1.009-2.25-2.25s1.01-2.25,2.25-2.25h2.75c0.276,0,0.5,0.224,0.5,0.5s-0.224,0.5-0.5,0.5
			h-2.75c-0.689,0-1.25,0.561-1.25,1.25S50.061,41,50.75,41h1.5c1.24,0,2.25,1.009,2.25,2.25S53.49,45.5,52.25,45.5z"/>
	</g>
	<g>
		<path class="st0" d="M51.5,38.5c-0.276,0-0.5-0.224-0.5-0.5v-1.5c0-0.276,0.224-0.5,0.5-0.5s0.5,0.224,0.5,0.5V38
			C52,38.276,51.776,38.5,51.5,38.5z"/>
	</g>
	<g>
		<path class="st0" d="M51.5,47c-0.276,0-0.5-0.224-0.5-0.5V45c0-0.276,0.224-0.5,0.5-0.5S52,44.724,52,45v1.5
			C52,46.776,51.776,47,51.5,47z"/>
	</g>
	<g>
		<path class="st0" d="M51.5,54c-6.392,0-11.731-4.787-12.422-11.134c-0.03-0.275,0.169-0.521,0.443-0.551
			c0.257-0.023,0.521,0.168,0.551,0.443C40.707,48.597,45.62,53,51.5,53C57.841,53,63,47.841,63,41.5S57.841,30,51.5,30
			c-0.523,0-1.07,0.045-1.719,0.143c-0.268,0.04-0.527-0.146-0.568-0.42c-0.041-0.273,0.147-0.528,0.42-0.569
			C50.332,29.049,50.926,29,51.5,29C58.393,29,64,34.607,64,41.5S58.393,54,51.5,54z"/>
	</g>
	<g>
		<path class="st0" d="M12.5,51C7.262,51,3,46.738,3,41.5S7.262,32,12.5,32c0.969,0,1.927,0.146,2.847,0.435
			c0.264,0.083,0.41,0.363,0.328,0.626c-0.083,0.263-0.363,0.408-0.626,0.328C14.224,33.131,13.367,33,12.5,33
			C7.813,33,4,36.813,4,41.5S7.813,50,12.5,50s8.5-3.813,8.5-8.5c0-0.079-0.005-0.155-0.011-0.232l-0.01-0.161
			c-0.013-0.276,0.201-0.51,0.477-0.522c0.281-0.013,0.51,0.2,0.522,0.477l0.008,0.139C21.994,41.299,22,41.399,22,41.5
			C22,46.738,17.738,51,12.5,51z"/>
	</g>
	<g>
		<path class="st0" d="M12.5,54C5.607,54,0,48.393,0,41.5S5.607,29,12.5,29c0.575,0,1.168,0.049,1.867,0.153
			c0.273,0.041,0.461,0.295,0.42,0.569c-0.041,0.273-0.287,0.457-0.569,0.42C13.57,30.045,13.024,30,12.5,30
			C6.159,30,1,35.159,1,41.5S6.159,53,12.5,53c5.879,0,10.792-4.403,11.428-10.243c0.03-0.274,0.268-0.478,0.551-0.443
			c0.274,0.03,0.473,0.277,0.443,0.551C24.231,49.213,18.891,54,12.5,54z"/>
	</g>
	<g>
		<path class="st0" d="M58.037,59h-1c-0.276,0-0.5-0.224-0.5-0.5s0.224-0.5,0.5-0.5h1c0.276,0,0.5,0.224,0.5,0.5
			S58.313,59,58.037,59z"/>
	</g>
	<g>
		<path class="st0" d="M55.037,59h-10c-0.276,0-0.5-0.224-0.5-0.5s0.224-0.5,0.5-0.5h10c0.276,0,0.5,0.224,0.5,0.5
			S55.313,59,55.037,59z"/>
	</g>
	<g>
		<path class="st0" d="M6.962,59h-1c-0.276,0-0.5-0.224-0.5-0.5s0.224-0.5,0.5-0.5h1c0.276,0,0.5,0.224,0.5,0.5S7.239,59,6.962,59z"
			/>
	</g>
	<g>
		<path class="st0" d="M18.962,59h-10c-0.276,0-0.5-0.224-0.5-0.5s0.224-0.5,0.5-0.5h10c0.276,0,0.5,0.224,0.5,0.5
			S19.239,59,18.962,59z"/>
	</g>
	<g>
		<path class="st0" d="M15,43H8.004c-0.276,0-0.5-0.224-0.5-0.5s0.224-0.5,0.5-0.5H15c0.276,0,0.5,0.224,0.5,0.5S15.276,43,15,43z"
			/>
	</g>
	<g>
		<path class="st0" d="M15,41H8.004c-0.276,0-0.5-0.224-0.5-0.5s0.224-0.5,0.5-0.5H15c0.276,0,0.5,0.224,0.5,0.5S15.276,41,15,41z"
			/>
	</g>
	<g>
		<path class="st0" d="M12.504,47c-2.206,0-4-2.467-4-5.5s1.794-5.5,4-5.5c1.114,0,2.147,0.61,2.908,1.717
			c0.156,0.228,0.099,0.539-0.129,0.695c-0.227,0.158-0.538,0.099-0.695-0.129C14.019,37.456,13.279,37,12.504,37
			c-1.654,0-3,2.019-3,4.5s1.346,4.5,3,4.5c0.774,0,1.515-0.456,2.083-1.283c0.157-0.228,0.469-0.285,0.695-0.129
			c0.228,0.157,0.285,0.468,0.129,0.695C14.651,46.39,13.618,47,12.504,47z"/>
	</g>
</g>
</svg>
