<?xml version="1.0" encoding="utf-8"?>
<!-- Generator: Adobe Illustrator 21.1.0, SVG Export Plug-In . SVG Version: 6.00 Build 0)  -->
<svg version="1.1" id="Icon_Set" xmlns="http://www.w3.org/2000/svg" xmlns:xlink="http://www.w3.org/1999/xlink" x="0px" y="0px"
	 viewBox="0 0 64 64" style="enable-background:new 0 0 64 64;" xml:space="preserve">
<style type="text/css">
	.st0{fill:#263238;}
	.st1{fill:#FFFFFF;}
	.st2{fill:#FF5252;}
	.st3{fill:#FFD740;}
	.st4{fill:#40C4FF;}
	.st5{fill:#4DB6AC;}
	.st6{fill:#4FC3F7;}
</style>
<g id="Bitcoin_Storage">
	<g>
		<path class="st0" d="M8.25,36.25c-0.276,0-0.5-0.224-0.5-0.5v-6c0-0.276,0.224-0.5,0.5-0.5s0.5,0.224,0.5,0.5v6
			C8.75,36.026,8.526,36.25,8.25,36.25z"/>
	</g>
	<g>
		<circle class="st3" cx="51.75" cy="35.75" r="10"/>
		<path class="st0" d="M51.75,46.25c-5.79,0-10.5-4.71-10.5-10.5s4.71-10.5,10.5-10.5s10.5,4.71,10.5,10.5S57.54,46.25,51.75,46.25z
			 M51.75,26.25c-5.238,0-9.5,4.262-9.5,9.5s4.262,9.5,9.5,9.5s9.5-4.262,9.5-9.5S56.988,26.25,51.75,26.25z"/>
	</g>
	<g>
		<path class="st0" d="M52.75,36.25h-3.5c-0.276,0-0.5-0.224-0.5-0.5v-4c0-0.276,0.224-0.5,0.5-0.5h3.5c1.379,0,2.5,1.122,2.5,2.5
			S54.129,36.25,52.75,36.25z M49.75,35.25h3c0.827,0,1.5-0.673,1.5-1.5s-0.673-1.5-1.5-1.5h-3V35.25z"/>
	</g>
	<g>
		<path class="st0" d="M53.75,40.25h-4.5c-0.276,0-0.5-0.224-0.5-0.5v-4c0-0.276,0.224-0.5,0.5-0.5h4.5c1.379,0,2.5,1.122,2.5,2.5
			S55.129,40.25,53.75,40.25z M49.75,39.25h4c0.827,0,1.5-0.673,1.5-1.5s-0.673-1.5-1.5-1.5h-4V39.25z"/>
	</g>
	<g>
		<path class="st0" d="M49.25,32.25h-1.5c-0.276,0-0.5-0.224-0.5-0.5s0.224-0.5,0.5-0.5h1.5c0.276,0,0.5,0.224,0.5,0.5
			S49.526,32.25,49.25,32.25z"/>
	</g>
	<g>
		<path class="st0" d="M49.25,40.25h-1.5c-0.276,0-0.5-0.224-0.5-0.5s0.224-0.5,0.5-0.5h1.5c0.276,0,0.5,0.224,0.5,0.5
			S49.526,40.25,49.25,40.25z"/>
	</g>
	<g>
		<path class="st0" d="M50.75,32.25c-0.276,0-0.5-0.224-0.5-0.5v-2c0-0.276,0.224-0.5,0.5-0.5s0.5,0.224,0.5,0.5v2
			C51.25,32.026,51.026,32.25,50.75,32.25z"/>
	</g>
	<g>
		<path class="st0" d="M52.75,32.25c-0.276,0-0.5-0.224-0.5-0.5v-2c0-0.276,0.224-0.5,0.5-0.5s0.5,0.224,0.5,0.5v2
			C53.25,32.026,53.026,32.25,52.75,32.25z"/>
	</g>
	<g>
		<path class="st0" d="M50.75,42.25c-0.276,0-0.5-0.224-0.5-0.5v-2c0-0.276,0.224-0.5,0.5-0.5s0.5,0.224,0.5,0.5v2
			C51.25,42.026,51.026,42.25,50.75,42.25z"/>
	</g>
	<g>
		<path class="st0" d="M52.75,42.25c-0.276,0-0.5-0.224-0.5-0.5v-2c0-0.276,0.224-0.5,0.5-0.5s0.5,0.224,0.5,0.5v2
			C53.25,42.026,53.026,42.25,52.75,42.25z"/>
	</g>
	<g>
		<path class="st3" d="M60.75,55.75h-18c-0.552,0-1-0.448-1-1v-3c0-0.552,0.448-1,1-1h18c0.552,0,1,0.448,1,1v3
			C61.75,55.302,61.302,55.75,60.75,55.75z"/>
		<path class="st0" d="M60.75,56.25h-18c-0.827,0-1.5-0.673-1.5-1.5v-3c0-0.827,0.673-1.5,1.5-1.5h18c0.827,0,1.5,0.673,1.5,1.5v3
			C62.25,55.577,61.577,56.25,60.75,56.25z M42.75,51.25c-0.275,0-0.5,0.224-0.5,0.5v3c0,0.276,0.225,0.5,0.5,0.5h18
			c0.275,0,0.5-0.224,0.5-0.5v-3c0-0.276-0.225-0.5-0.5-0.5H42.75z"/>
	</g>
	<g>
		<path class="st3" d="M60.75,50.75h-18c-0.552,0-1-0.448-1-1v-3c0-0.552,0.448-1,1-1h18c0.552,0,1,0.448,1,1v3
			C61.75,50.302,61.302,50.75,60.75,50.75z"/>
		<path class="st0" d="M60.75,51.25h-18c-0.827,0-1.5-0.673-1.5-1.5v-3c0-0.827,0.673-1.5,1.5-1.5h18c0.827,0,1.5,0.673,1.5,1.5v3
			C62.25,50.577,61.577,51.25,60.75,51.25z M42.75,46.25c-0.275,0-0.5,0.224-0.5,0.5v3c0,0.276,0.225,0.5,0.5,0.5h18
			c0.275,0,0.5-0.224,0.5-0.5v-3c0-0.276-0.225-0.5-0.5-0.5H42.75z"/>
	</g>
	<g>
		<path class="st3" d="M60.75,60.75h-18c-0.552,0-1-0.448-1-1v-3c0-0.552,0.448-1,1-1h18c0.552,0,1,0.448,1,1v3
			C61.75,60.302,61.302,60.75,60.75,60.75z"/>
		<path class="st0" d="M60.75,61.25h-18c-0.827,0-1.5-0.673-1.5-1.5v-3c0-0.827,0.673-1.5,1.5-1.5h18c0.827,0,1.5,0.673,1.5,1.5v3
			C62.25,60.577,61.577,61.25,60.75,61.25z M42.75,56.25c-0.275,0-0.5,0.224-0.5,0.5v3c0,0.276,0.225,0.5,0.5,0.5h18
			c0.275,0,0.5-0.224,0.5-0.5v-3c0-0.276-0.225-0.5-0.5-0.5H42.75z"/>
	</g>
	<g>
		<path class="st0" d="M39.935,51.25H10.75c-1.654,0-3-1.346-3-3v-0.5c0-0.276,0.224-0.5,0.5-0.5s0.5,0.224,0.5,0.5v0.5
			c0,1.103,0.897,2,2,2h29.185c0.276,0,0.5,0.224,0.5,0.5S40.211,51.25,39.935,51.25z"/>
	</g>
	<g>
		<path class="st0" d="M8.25,36.25c-0.276,0-0.5-0.224-0.5-0.5v-6c0-0.276,0.224-0.5,0.5-0.5s0.5,0.224,0.5,0.5v6
			C8.75,36.026,8.526,36.25,8.25,36.25z"/>
	</g>
	<g>
		<path class="st0" d="M44.25,26.897c-0.276,0-0.5-0.224-0.5-0.5V17.25c0-1.103-0.897-2-2-2h-31c-1.103,0-2,0.897-2,2v0.5
			c0,0.276-0.224,0.5-0.5,0.5s-0.5-0.224-0.5-0.5v-0.5c0-1.654,1.346-3,3-3h31c1.654,0,3,1.346,3,3v9.147
			C44.75,26.674,44.526,26.897,44.25,26.897z"/>
	</g>
	<g>
		<path class="st0" d="M39.75,57.25H7.25c-3.032,0-5.5-2.467-5.5-5.5v-38c0-3.033,2.468-5.5,5.5-5.5h38c3.032,0,5.5,2.467,5.5,5.5
			v10.104c0,0.276-0.224,0.5-0.5,0.5s-0.5-0.224-0.5-0.5V13.75c0-2.481-2.019-4.5-4.5-4.5h-38c-2.481,0-4.5,2.019-4.5,4.5v38
			c0,2.481,2.019,4.5,4.5,4.5h32.5c0.276,0,0.5,0.224,0.5,0.5S40.026,57.25,39.75,57.25z"/>
	</g>
	<g>
		<circle class="st2" cx="26.25" cy="32.75" r="8"/>
		<path class="st0" d="M26.25,41.25c-4.687,0-8.5-3.813-8.5-8.5s3.813-8.5,8.5-8.5s8.5,3.813,8.5,8.5S30.937,41.25,26.25,41.25z
			 M26.25,25.25c-4.136,0-7.5,3.364-7.5,7.5s3.364,7.5,7.5,7.5s7.5-3.364,7.5-7.5S30.386,25.25,26.25,25.25z"/>
	</g>
	<g>
		<path class="st0" d="M26.25,38.25c-3.032,0-5.5-2.467-5.5-5.5s2.468-5.5,5.5-5.5s5.5,2.467,5.5,5.5S29.282,38.25,26.25,38.25z
			 M26.25,28.25c-2.481,0-4.5,2.019-4.5,4.5s2.019,4.5,4.5,4.5s4.5-2.019,4.5-4.5S28.731,28.25,26.25,28.25z"/>
	</g>
	<g>
		<path class="st0" d="M53.25,5.75h-4c-0.276,0-0.5-0.224-0.5-0.5s0.224-0.5,0.5-0.5h4c0.276,0,0.5,0.224,0.5,0.5
			S53.526,5.75,53.25,5.75z"/>
	</g>
	<g>
		<path class="st0" d="M51.25,7.75c-0.276,0-0.5-0.224-0.5-0.5v-4c0-0.276,0.224-0.5,0.5-0.5s0.5,0.224,0.5,0.5v4
			C51.75,7.526,51.526,7.75,51.25,7.75z"/>
	</g>
	<g>
		<path class="st0" d="M60.25,12.25h-4c-0.276,0-0.5-0.224-0.5-0.5s0.224-0.5,0.5-0.5h4c0.276,0,0.5,0.224,0.5,0.5
			S60.526,12.25,60.25,12.25z"/>
	</g>
	<g>
		<path class="st0" d="M58.25,14.25c-0.276,0-0.5-0.224-0.5-0.5v-4c0-0.276,0.224-0.5,0.5-0.5s0.5,0.224,0.5,0.5v4
			C58.75,14.026,58.526,14.25,58.25,14.25z"/>
	</g>
	<g>
		<path class="st0" d="M18.25,60.25h-1c-0.276,0-0.5-0.224-0.5-0.5s0.224-0.5,0.5-0.5h1c0.276,0,0.5,0.224,0.5,0.5
			S18.526,60.25,18.25,60.25z"/>
	</g>
	<g>
		<path class="st0" d="M35.25,60.25h-15c-0.276,0-0.5-0.224-0.5-0.5s0.224-0.5,0.5-0.5h15c0.276,0,0.5,0.224,0.5,0.5
			S35.526,60.25,35.25,60.25z"/>
	</g>
	<g>
		<path class="st0" d="M35.25,6.25h-1c-0.276,0-0.5-0.224-0.5-0.5s0.224-0.5,0.5-0.5h1c0.276,0,0.5,0.224,0.5,0.5
			S35.526,6.25,35.25,6.25z"/>
	</g>
	<g>
		<path class="st0" d="M32.25,6.25h-15c-0.276,0-0.5-0.224-0.5-0.5s0.224-0.5,0.5-0.5h15c0.276,0,0.5,0.224,0.5,0.5
			S32.526,6.25,32.25,6.25z"/>
	</g>
	<g>
		<path class="st0" d="M9.25,28.25h-2c-0.827,0-1.5-0.673-1.5-1.5v-6c0-0.827,0.673-1.5,1.5-1.5h2c0.827,0,1.5,0.673,1.5,1.5v6
			C10.75,27.577,10.077,28.25,9.25,28.25z M7.25,20.25c-0.275,0-0.5,0.224-0.5,0.5v6c0,0.276,0.225,0.5,0.5,0.5h2
			c0.275,0,0.5-0.224,0.5-0.5v-6c0-0.276-0.225-0.5-0.5-0.5H7.25z"/>
	</g>
	<g>
		<path class="st0" d="M9.25,46.25h-2c-0.827,0-1.5-0.673-1.5-1.5v-6c0-0.827,0.673-1.5,1.5-1.5h2c0.827,0,1.5,0.673,1.5,1.5v6
			C10.75,45.577,10.077,46.25,9.25,46.25z M7.25,38.25c-0.275,0-0.5,0.224-0.5,0.5v6c0,0.276,0.225,0.5,0.5,0.5h2
			c0.275,0,0.5-0.224,0.5-0.5v-6c0-0.276-0.225-0.5-0.5-0.5H7.25z"/>
	</g>
	<g>
		<path class="st0" d="M41.25,23.25c-0.276,0-0.5-0.224-0.5-0.5v-4c0-0.276-0.225-0.5-0.5-0.5h-4c-0.276,0-0.5-0.224-0.5-0.5
			s0.224-0.5,0.5-0.5h4c0.827,0,1.5,0.673,1.5,1.5v4C41.75,23.026,41.526,23.25,41.25,23.25z"/>
	</g>
</g>
</svg>
