<?xml version="1.0" encoding="utf-8"?>
<!-- Generator: Adobe Illustrator 21.1.0, SVG Export Plug-In . SVG Version: 6.00 Build 0)  -->
<svg version="1.1" id="Icon_Set" xmlns="http://www.w3.org/2000/svg" xmlns:xlink="http://www.w3.org/1999/xlink" x="0px" y="0px"
	 viewBox="0 0 64 64" style="enable-background:new 0 0 64 64;" xml:space="preserve">
<style type="text/css">
	.st0{fill:#263238;}
	.st1{fill:#FFFFFF;}
	.st2{fill:#FF5252;}
	.st3{fill:#FFD740;}
	.st4{fill:#40C4FF;}
	.st5{fill:#4DB6AC;}
	.st6{fill:#4FC3F7;}
</style>
<g id="Bitcoin_Mining">
	<g>
		<path class="st0" d="M11,58.5c-0.083,0-0.167-0.021-0.243-0.063l-9-5c-0.242-0.134-0.329-0.438-0.194-0.68
			c0.134-0.241,0.438-0.33,0.68-0.194l8.67,4.817l9.733-9.733c0.042-0.042,0.092-0.077,0.146-0.102l11-5
			c0.146-0.068,0.317-0.059,0.458,0.022l9.137,5.29l10.23-12.179c0.108-0.129,0.274-0.198,0.441-0.175
			c0.167,0.02,0.313,0.123,0.389,0.273l10,20c0.124,0.247,0.023,0.547-0.224,0.671c-0.246,0.123-0.547,0.023-0.671-0.224
			l-9.66-19.319l-10.01,11.917c-0.155,0.186-0.422,0.233-0.633,0.111l-9.277-5.371L21.29,48.417l-9.936,9.936
			C11.257,58.45,11.129,58.5,11,58.5z"/>
	</g>
	<g>
		<circle class="st3" cx="52" cy="12.5" r="10"/>
		<path class="st0" d="M52,23c-5.79,0-10.5-4.71-10.5-10.5S46.21,2,52,2s10.5,4.71,10.5,10.5S57.79,23,52,23z M52,3
			c-5.238,0-9.5,4.262-9.5,9.5S46.762,22,52,22s9.5-4.262,9.5-9.5S57.238,3,52,3z"/>
	</g>
	<g>
		<path class="st0" d="M53,13h-3.5c-0.276,0-0.5-0.224-0.5-0.5v-4C49,8.224,49.224,8,49.5,8H53c1.378,0,2.5,1.122,2.5,2.5
			S54.378,13,53,13z M50,12h3c0.827,0,1.5-0.673,1.5-1.5S53.827,9,53,9h-3V12z"/>
	</g>
	<g>
		<path class="st0" d="M54,17h-4.5c-0.276,0-0.5-0.224-0.5-0.5v-4c0-0.276,0.224-0.5,0.5-0.5H54c1.378,0,2.5,1.122,2.5,2.5
			S55.378,17,54,17z M50,16h4c0.827,0,1.5-0.673,1.5-1.5S54.827,13,54,13h-4V16z"/>
	</g>
	<g>
		<path class="st0" d="M49.5,9H48c-0.276,0-0.5-0.224-0.5-0.5S47.724,8,48,8h1.5C49.776,8,50,8.224,50,8.5S49.776,9,49.5,9z"/>
	</g>
	<g>
		<path class="st0" d="M49.5,17H48c-0.276,0-0.5-0.224-0.5-0.5S47.724,16,48,16h1.5c0.276,0,0.5,0.224,0.5,0.5S49.776,17,49.5,17z"
			/>
	</g>
	<g>
		<path class="st0" d="M51,9c-0.276,0-0.5-0.224-0.5-0.5v-2C50.5,6.224,50.724,6,51,6s0.5,0.224,0.5,0.5v2C51.5,8.776,51.276,9,51,9
			z"/>
	</g>
	<g>
		<path class="st0" d="M53,9c-0.276,0-0.5-0.224-0.5-0.5v-2C52.5,6.224,52.724,6,53,6s0.5,0.224,0.5,0.5v2C53.5,8.776,53.276,9,53,9
			z"/>
	</g>
	<g>
		<path class="st0" d="M51,19c-0.276,0-0.5-0.224-0.5-0.5v-2c0-0.276,0.224-0.5,0.5-0.5s0.5,0.224,0.5,0.5v2
			C51.5,18.776,51.276,19,51,19z"/>
	</g>
	<g>
		<path class="st0" d="M53,19c-0.276,0-0.5-0.224-0.5-0.5v-2c0-0.276,0.224-0.5,0.5-0.5s0.5,0.224,0.5,0.5v2
			C53.5,18.776,53.276,19,53,19z"/>
	</g>
	<g>
		<path class="st0" d="M33.712,39.712c-0.079,0-0.159-0.019-0.232-0.057l-7.425-3.889c-0.141-0.074-0.238-0.21-0.262-0.368
			c-0.024-0.157,0.028-0.316,0.141-0.429l3.536-3.536c0.112-0.112,0.271-0.166,0.429-0.141c0.158,0.024,0.294,0.121,0.368,0.262
			l3.889,7.425c0.102,0.194,0.065,0.431-0.089,0.585C33.97,39.662,33.842,39.712,33.712,39.712z M27.122,35.196l5.405,2.831
			l-2.831-5.405L27.122,35.196z"/>
	</g>
	<g>
		<path class="st0" d="M41.288,36.712c-0.129,0-0.257-0.05-0.354-0.146c-0.155-0.155-0.191-0.392-0.089-0.585l3.889-7.425
			c0.074-0.141,0.21-0.238,0.368-0.262c0.156-0.023,0.316,0.028,0.429,0.141l3.536,3.536c0.112,0.112,0.165,0.271,0.141,0.429
			c-0.024,0.158-0.121,0.294-0.262,0.368l-7.425,3.889C41.446,36.694,41.367,36.712,41.288,36.712z M45.304,29.622l-2.831,5.405
			l5.405-2.831L45.304,29.622z"/>
	</g>
	<g>
		<path class="st0" d="M8.257,45.531c-0.4,0-0.777-0.156-1.061-0.439l-2.829-2.829c-0.584-0.584-0.584-1.536,0-2.121l26.871-26.87
			c0.585-0.584,1.537-0.585,2.122,0l2.828,2.829c0.585,0.585,0.585,1.536,0,2.121l-26.87,26.87
			C9.035,45.375,8.658,45.531,8.257,45.531z M32.299,13.833c-0.128,0-0.256,0.049-0.354,0.146l-26.87,26.87
			c-0.195,0.195-0.195,0.512,0,0.707l2.829,2.829c0.189,0.189,0.519,0.189,0.707,0l26.871-26.87c0.195-0.195,0.195-0.512,0-0.707
			l-2.828-2.829C32.555,13.881,32.427,13.833,32.299,13.833z"/>
	</g>
	<g>
		<path class="st2" d="M28.41,24.586l-3.536-3.536c-0.976-0.976-0.976-2.559,0-3.536l2.121-2.121c0.976-0.976,2.559-0.976,3.536,0
			l3.536,3.536c0.976,0.976,0.976,2.559,0,3.536l-2.121,2.121C30.969,25.562,29.386,25.562,28.41,24.586z"/>
		<path class="st0" d="M30.178,25.817c-0.768,0-1.536-0.292-2.121-0.877l-3.536-3.536c-1.17-1.17-1.17-3.073,0-4.243l2.121-2.121
			c1.134-1.134,3.11-1.134,4.243,0l3.536,3.535c1.169,1.17,1.169,3.073,0,4.243l-2.122,2.122
			C31.714,25.524,30.946,25.817,30.178,25.817z M28.764,15.161c-0.534,0-1.037,0.208-1.415,0.586l-2.121,2.121
			c-0.78,0.78-0.78,2.049,0,2.829l3.536,3.536c0.779,0.779,2.049,0.779,2.828,0l2.122-2.122c0.78-0.78,0.78-2.049,0-2.829
			l-3.536-3.535C29.8,15.369,29.298,15.161,28.764,15.161z"/>
	</g>
	<g>
		<path class="st0" d="M22.399,17.661c-0.128,0-0.256-0.049-0.354-0.146l-5.657-5.657c-0.283-0.283-0.439-0.66-0.439-1.061
			c0-0.401,0.156-0.778,0.439-1.061l2.829-2.828c0.585-0.585,1.536-0.585,2.121,0l5.657,5.657c0.195,0.195,0.195,0.512,0,0.707
			s-0.512,0.195-0.707,0l-5.657-5.657c-0.195-0.195-0.512-0.195-0.707,0l-2.829,2.829c-0.095,0.095-0.146,0.22-0.146,0.354
			c0,0.133,0.052,0.259,0.146,0.354l5.657,5.657c0.195,0.195,0.195,0.512,0,0.707C22.655,17.612,22.527,17.661,22.399,17.661z"/>
	</g>
	<g>
		<path class="st0" d="M37.956,38.875c-0.198,0-0.38-0.118-0.459-0.303l-2.726-6.359c-0.736-1.718-1.718-3.322-2.919-4.77
			c-0.176-0.212-0.147-0.528,0.065-0.704c0.213-0.177,0.528-0.147,0.704,0.065c1.262,1.521,2.294,3.208,3.068,5.015l2.065,4.818
			l0.021-0.115c0.778-4.413-0.004-9.003-2.204-12.925c-0.135-0.241-0.049-0.545,0.191-0.681c0.239-0.134,0.545-0.049,0.681,0.191
			c2.312,4.123,3.135,8.948,2.316,13.588l-0.312,1.766c-0.038,0.218-0.215,0.384-0.435,0.41
			C37.994,38.874,37.975,38.875,37.956,38.875z"/>
	</g>
	<g>
		<path class="st0" d="M4,11c-0.276,0-0.5-0.224-0.5-0.5v-4C3.5,6.224,3.724,6,4,6s0.5,0.224,0.5,0.5v4C4.5,10.776,4.276,11,4,11z"
			/>
	</g>
	<g>
		<path class="st0" d="M6,9H2C1.724,9,1.5,8.776,1.5,8.5S1.724,8,2,8h4c0.276,0,0.5,0.224,0.5,0.5S6.276,9,6,9z"/>
	</g>
	<g>
		<path class="st0" d="M12,5c-0.276,0-0.5-0.224-0.5-0.5v-4C11.5,0.224,11.724,0,12,0s0.5,0.224,0.5,0.5v4C12.5,4.776,12.276,5,12,5
			z"/>
	</g>
	<g>
		<path class="st0" d="M14,3h-4C9.724,3,9.5,2.776,9.5,2.5S9.724,2,10,2h4c0.276,0,0.5,0.224,0.5,0.5S14.276,3,14,3z"/>
	</g>
	<g>
		<path class="st0" d="M28,61h-1c-0.276,0-0.5-0.224-0.5-0.5S26.724,60,27,60h1c0.276,0,0.5,0.224,0.5,0.5S28.276,61,28,61z"/>
	</g>
	<g>
		<path class="st0" d="M46,61H30c-0.276,0-0.5-0.224-0.5-0.5S29.724,60,30,60h16c0.276,0,0.5,0.224,0.5,0.5S46.276,61,46,61z"/>
	</g>
	<g>
		<path class="st0" d="M37,64h-1c-0.276,0-0.5-0.224-0.5-0.5S35.724,63,36,63h1c0.276,0,0.5,0.224,0.5,0.5S37.276,64,37,64z"/>
	</g>
	<g>
		<path class="st0" d="M34,64H18c-0.276,0-0.5-0.224-0.5-0.5S17.724,63,18,63h16c0.276,0,0.5,0.224,0.5,0.5S34.276,64,34,64z"/>
	</g>
</g>
</svg>
