<?xml version="1.0" encoding="utf-8"?>
<!-- Generator: Adobe Illustrator 21.1.0, SVG Export Plug-In . SVG Version: 6.00 Build 0)  -->
<svg version="1.1" id="Icon_Set" xmlns="http://www.w3.org/2000/svg" xmlns:xlink="http://www.w3.org/1999/xlink" x="0px" y="0px"
	 viewBox="0 0 64 64" style="enable-background:new 0 0 64 64;" xml:space="preserve">
<style type="text/css">
	.st0{fill:#263238;}
	.st1{fill:#FFFFFF;}
	.st2{fill:#FF5252;}
	.st3{fill:#FFD740;}
	.st4{fill:#40C4FF;}
	.st5{fill:#4DB6AC;}
	.st6{fill:#4FC3F7;}
</style>
<g id="Bitcoin_Farm">
	<g>
		<path class="st5" d="M63.5,46.02c-5.761,0.102-11.091,1.942-15.5,5.022C43.463,47.872,37.954,46,32,46s-11.463,1.872-16,5.041
			c-4.409-3.079-9.739-4.919-15.5-5.022V62h6.198h18.604h13.396h18.604H63.5V46.02z"/>
	</g>
	<g>
		<path class="st0" d="M57.302,62.5c-0.187,0-0.367-0.105-0.452-0.286C52.314,52.668,42.56,46.5,32,46.5S11.686,52.668,7.15,62.214
			c-0.118,0.25-0.418,0.355-0.666,0.237c-0.25-0.119-0.356-0.417-0.237-0.666C10.947,51.893,21.056,45.5,32,45.5
			s21.053,6.393,25.753,16.286c0.119,0.249,0.012,0.547-0.237,0.666C57.447,62.484,57.374,62.5,57.302,62.5z"/>
	</g>
	<g>
		<path class="st0" d="M48,51.542c-0.158,0-0.313-0.075-0.41-0.214c-0.158-0.226-0.103-0.538,0.124-0.696
			c4.659-3.254,10.114-5.027,15.777-5.127c0.294-0.019,0.504,0.215,0.509,0.491s-0.215,0.504-0.491,0.509
			c-5.463,0.096-10.727,1.807-15.222,4.947C48.199,51.512,48.099,51.542,48,51.542z"/>
	</g>
	<g>
		<path class="st0" d="M16,51.542c-0.099,0-0.199-0.029-0.286-0.09c-4.495-3.14-9.759-4.851-15.222-4.947
			C0.216,46.5-0.004,46.271,0,45.996s0.223-0.48,0.509-0.491c5.663,0.1,11.118,1.873,15.777,5.127
			c0.227,0.158,0.282,0.47,0.124,0.696C16.312,51.467,16.157,51.542,16,51.542z"/>
	</g>
	<g>
		<path class="st0" d="M33.37,42.001c-0.222,0-0.359-0.007-0.39-0.009c-0.255-0.014-0.458-0.217-0.472-0.472
			c-0.011-0.202-0.241-4.988,2.642-7.871l0,0c2.883-2.883,7.668-2.654,7.871-2.642c0.255,0.014,0.458,0.217,0.472,0.472
			c0.011,0.202,0.241,4.988-2.642,7.871C38.408,41.792,34.599,42.001,33.37,42.001z M42.498,32.003
			c-1.225,0.022-4.566,0.28-6.64,2.354l0,0c-2.073,2.073-2.332,5.416-2.354,6.64c1.225-0.022,4.566-0.281,6.64-2.354
			C42.217,36.569,42.476,33.228,42.498,32.003z M35.504,34.003h0.01H35.504z"/>
	</g>
	<g>
		<path class="st0" d="M30.63,42.001c-1.229,0-5.038-0.208-7.48-2.651c-2.883-2.883-2.653-7.668-2.642-7.871
			c0.014-0.255,0.217-0.458,0.472-0.472c0.201-0.012,4.988-0.241,7.871,2.642c2.883,2.882,2.653,7.668,2.642,7.871
			c-0.014,0.255-0.217,0.458-0.472,0.472C30.99,41.994,30.852,42.001,30.63,42.001z M30.993,41.493h0.01H30.993z M21.503,32.003
			c0.022,1.225,0.281,4.566,2.354,6.64c2.079,2.079,5.417,2.334,6.64,2.355c-0.021-1.225-0.28-4.567-2.354-6.641l0,0
			C26.069,32.284,22.728,32.025,21.503,32.003z"/>
	</g>
	<g>
		<path class="st0" d="M31,54.593c-0.276,0-0.5-0.224-0.5-0.5v-28c0-0.276,0.224-0.5,0.5-0.5s0.5,0.224,0.5,0.5v28
			C31.5,54.369,31.276,54.593,31,54.593z"/>
	</g>
	<g>
		<path class="st0" d="M33,54.593c-0.276,0-0.5-0.224-0.5-0.5v-28c0-0.276,0.224-0.5,0.5-0.5s0.5,0.224,0.5,0.5v28
			C33.5,54.369,33.276,54.593,33,54.593z"/>
	</g>
	<g>
		<circle class="st3" cx="32" cy="19.5" r="10"/>
		<path class="st0" d="M32,30c-5.79,0-10.5-4.71-10.5-10.5S26.21,9,32,9s10.5,4.71,10.5,10.5S37.79,30,32,30z M32,10
			c-5.238,0-9.5,4.262-9.5,9.5S26.762,29,32,29s9.5-4.262,9.5-9.5S37.238,10,32,10z"/>
	</g>
	<g>
		<path class="st0" d="M33,20h-3.5c-0.276,0-0.5-0.224-0.5-0.5v-4c0-0.276,0.224-0.5,0.5-0.5H33c1.378,0,2.5,1.122,2.5,2.5
			S34.378,20,33,20z M30,19h3c0.827,0,1.5-0.673,1.5-1.5S33.827,16,33,16h-3V19z"/>
	</g>
	<g>
		<path class="st0" d="M34,24h-4.5c-0.276,0-0.5-0.224-0.5-0.5v-4c0-0.276,0.224-0.5,0.5-0.5H34c1.378,0,2.5,1.122,2.5,2.5
			S35.378,24,34,24z M30,23h4c0.827,0,1.5-0.673,1.5-1.5S34.827,20,34,20h-4V23z"/>
	</g>
	<g>
		<path class="st0" d="M29.5,16H28c-0.276,0-0.5-0.224-0.5-0.5S27.724,15,28,15h1.5c0.276,0,0.5,0.224,0.5,0.5S29.776,16,29.5,16z"
			/>
	</g>
	<g>
		<path class="st0" d="M29.5,24H28c-0.276,0-0.5-0.224-0.5-0.5S27.724,23,28,23h1.5c0.276,0,0.5,0.224,0.5,0.5S29.776,24,29.5,24z"
			/>
	</g>
	<g>
		<path class="st0" d="M31,16c-0.276,0-0.5-0.224-0.5-0.5v-2c0-0.276,0.224-0.5,0.5-0.5s0.5,0.224,0.5,0.5v2
			C31.5,15.776,31.276,16,31,16z"/>
	</g>
	<g>
		<path class="st0" d="M33,16c-0.276,0-0.5-0.224-0.5-0.5v-2c0-0.276,0.224-0.5,0.5-0.5s0.5,0.224,0.5,0.5v2
			C33.5,15.776,33.276,16,33,16z"/>
	</g>
	<g>
		<path class="st0" d="M31,26c-0.276,0-0.5-0.224-0.5-0.5v-2c0-0.276,0.224-0.5,0.5-0.5s0.5,0.224,0.5,0.5v2
			C31.5,25.776,31.276,26,31,26z"/>
	</g>
	<g>
		<path class="st0" d="M33,26c-0.276,0-0.5-0.224-0.5-0.5v-2c0-0.276,0.224-0.5,0.5-0.5s0.5,0.224,0.5,0.5v2
			C33.5,25.776,33.276,26,33,26z"/>
	</g>
	<g>
		<circle class="st3" cx="56" cy="29.021" r="6"/>
		<path class="st0" d="M56,35.521c-3.584,0-6.5-2.916-6.5-6.5s2.916-6.5,6.5-6.5s6.5,2.916,6.5,6.5S59.584,35.521,56,35.521z
			 M56,23.521c-3.033,0-5.5,2.467-5.5,5.5s2.467,5.5,5.5,5.5s5.5-2.467,5.5-5.5S59.033,23.521,56,23.521z"/>
	</g>
	<g>
		<circle class="st3" cx="56" cy="29.021" r="3"/>
		<path class="st0" d="M56,32.521c-1.93,0-3.5-1.57-3.5-3.5s1.57-3.5,3.5-3.5s3.5,1.57,3.5,3.5S57.93,32.521,56,32.521z M56,26.521
			c-1.378,0-2.5,1.122-2.5,2.5s1.122,2.5,2.5,2.5s2.5-1.122,2.5-2.5S57.378,26.521,56,26.521z"/>
	</g>
	<g>
		<path class="st0" d="M56,50.521c-0.276,0-0.5-0.224-0.5-0.5v-15c0-0.276,0.224-0.5,0.5-0.5s0.5,0.224,0.5,0.5v15
			C56.5,50.297,56.276,50.521,56,50.521z"/>
	</g>
	<g>
		<path class="st0" d="M56.177,44.021c-0.114,0-0.186-0.003-0.201-0.004c-0.255-0.014-0.458-0.217-0.472-0.472
			c-0.006-0.105-0.125-2.606,1.394-4.125l0,0l0,0c1.52-1.519,4.024-1.399,4.125-1.394c0.254,0.014,0.458,0.217,0.472,0.471
			c0.006,0.106,0.126,2.607-1.394,4.126C58.813,43.911,56.817,44.021,56.177,44.021z M60.488,39.032
			c-0.707,0.043-2.032,0.243-2.883,1.094l0,0c-0.855,0.855-1.053,2.178-1.095,2.883c0.706-0.043,2.033-0.242,2.884-1.093
			C60.246,41.064,60.445,39.739,60.488,39.032z M57.252,39.772h0.01H57.252z"/>
	</g>
	<g>
		<path class="st0" d="M55.823,44.021c-0.64,0-2.636-0.109-3.925-1.398c-1.52-1.52-1.399-4.021-1.394-4.126
			c0.014-0.254,0.217-0.458,0.472-0.471c0.103-0.006,2.606-0.125,4.125,1.394l0,0l0,0c1.52,1.519,1.4,4.02,1.394,4.125
			c-0.014,0.255-0.217,0.458-0.472,0.472C56.008,44.017,55.937,44.021,55.823,44.021z M55.997,43.516h0.01H55.997z M51.512,39.031
			c0.043,0.706,0.242,2.033,1.093,2.884c0.851,0.851,2.177,1.05,2.883,1.093c-0.043-0.707-0.243-2.032-1.094-2.883l0,0
			C53.539,39.271,52.216,39.073,51.512,39.031z"/>
	</g>
	<g>
		<circle class="st3" cx="8" cy="29.021" r="6"/>
		<path class="st0" d="M8,35.521c-3.584,0-6.5-2.916-6.5-6.5s2.916-6.5,6.5-6.5s6.5,2.916,6.5,6.5S11.584,35.521,8,35.521z
			 M8,23.521c-3.033,0-5.5,2.467-5.5,5.5s2.467,5.5,5.5,5.5s5.5-2.467,5.5-5.5S11.033,23.521,8,23.521z"/>
	</g>
	<g>
		<circle class="st3" cx="8" cy="29.021" r="3"/>
		<path class="st0" d="M8,32.521c-1.93,0-3.5-1.57-3.5-3.5s1.57-3.5,3.5-3.5s3.5,1.57,3.5,3.5S9.93,32.521,8,32.521z M8,26.521
			c-1.378,0-2.5,1.122-2.5,2.5s1.122,2.5,2.5,2.5s2.5-1.122,2.5-2.5S9.378,26.521,8,26.521z"/>
	</g>
	<g>
		<path class="st0" d="M8,50.521c-0.276,0-0.5-0.224-0.5-0.5v-15c0-0.276,0.224-0.5,0.5-0.5s0.5,0.224,0.5,0.5v15
			C8.5,50.297,8.276,50.521,8,50.521z"/>
	</g>
	<g>
		<path class="st0" d="M8.177,44.021c-0.114,0-0.186-0.003-0.201-0.004c-0.255-0.014-0.458-0.217-0.472-0.472
			c-0.006-0.105-0.125-2.606,1.394-4.125l0,0l0,0c1.519-1.519,4.022-1.399,4.125-1.394c0.254,0.014,0.458,0.217,0.472,0.471
			c0.006,0.106,0.126,2.607-1.394,4.126C10.813,43.911,8.817,44.021,8.177,44.021z M12.488,39.032
			c-0.707,0.043-2.032,0.243-2.883,1.094l0,0c-0.855,0.855-1.053,2.178-1.095,2.883c0.706-0.043,2.033-0.242,2.884-1.093
			C12.246,41.064,12.445,39.739,12.488,39.032z M9.252,39.772h0.01H9.252z"/>
	</g>
	<g>
		<path class="st0" d="M7.823,44.021c-0.64,0-2.636-0.109-3.925-1.398c-1.52-1.52-1.399-4.021-1.394-4.126
			c0.014-0.254,0.217-0.458,0.472-0.471c0.104-0.006,2.606-0.125,4.125,1.394l0,0l0,0c1.52,1.519,1.4,4.02,1.394,4.125
			c-0.014,0.255-0.217,0.458-0.472,0.472C8.008,44.017,7.937,44.021,7.823,44.021z M7.997,43.516h0.01H7.997z M3.512,39.031
			c0.043,0.706,0.242,2.033,1.093,2.884c0.851,0.851,2.177,1.05,2.883,1.093c-0.043-0.707-0.243-2.032-1.094-2.883l0,0
			C5.539,39.271,4.216,39.073,3.512,39.031z"/>
	</g>
	<g>
		<path class="st6" d="M12,4c0-1.105-0.895-2-2-2S8,2.895,8,4C6.895,4,6,4.895,6,6s0.895,2,2,2h4c1.105,0,2-0.895,2-2S13.105,4,12,4
			z"/>
	</g>
	<g>
		<path class="st0" d="M41.5,7.5h-1C40.224,7.5,40,7.276,40,7s0.224-0.5,0.5-0.5h1C41.776,6.5,42,6.724,42,7S41.776,7.5,41.5,7.5z"
			/>
	</g>
	<g>
		<path class="st0" d="M53.5,7.5h-10C43.224,7.5,43,7.276,43,7s0.224-0.5,0.5-0.5h10C53.776,6.5,54,6.724,54,7S53.776,7.5,53.5,7.5z
			"/>
	</g>
	<g>
		<path class="st0" d="M59,4.5h-1c-0.276,0-0.5-0.224-0.5-0.5s0.224-0.5,0.5-0.5h1c0.276,0,0.5,0.224,0.5,0.5S59.276,4.5,59,4.5z"/>
	</g>
	<g>
		<path class="st0" d="M56,4.5H46c-0.276,0-0.5-0.224-0.5-0.5s0.224-0.5,0.5-0.5h10c0.276,0,0.5,0.224,0.5,0.5S56.276,4.5,56,4.5z"
			/>
	</g>
</g>
</svg>
