<?xml version="1.0" encoding="utf-8"?>
<!-- Generator: Adobe Illustrator 21.1.0, SVG Export Plug-In . SVG Version: 6.00 Build 0)  -->
<svg version="1.1" id="Icon_Set" xmlns="http://www.w3.org/2000/svg" xmlns:xlink="http://www.w3.org/1999/xlink" x="0px" y="0px"
	 viewBox="0 0 64 64" style="enable-background:new 0 0 64 64;" xml:space="preserve">
<style type="text/css">
	.st0{fill:#263238;}
	.st1{fill:#FFFFFF;}
	.st2{fill:#FF5252;}
	.st3{fill:#FFD740;}
	.st4{fill:#40C4FF;}
	.st5{fill:#4DB6AC;}
	.st6{fill:#4FC3F7;}
</style>
<g id="Bitcoin_Vs_Dollar">
	<g>
		<circle class="st2" cx="32.25" cy="10.5" r="9"/>
	</g>
	<g>
		<path class="st3" d="M45.5,19.5c-4.663,0-8.898,1.788-12.095,4.697C36.564,27.734,38.5,32.385,38.5,37.5
			c0,5.115-1.936,9.766-5.095,13.303C36.602,53.712,40.837,55.5,45.5,55.5c9.941,0,18-8.059,18-18
			C63.5,27.559,55.441,19.5,45.5,19.5z"/>
	</g>
	<g>
		<path class="st0" d="M45.5,56c-4.595,0-9.01-1.714-12.432-4.828c-0.204-0.186-0.219-0.502-0.033-0.706
			c0.187-0.204,0.502-0.219,0.707-0.033C36.979,53.378,41.154,55,45.5,55C55.149,55,63,47.149,63,37.5S55.149,20,45.5,20
			c-4.346,0-8.521,1.622-11.759,4.567c-0.205,0.186-0.521,0.171-0.707-0.034c-0.186-0.204-0.17-0.521,0.033-0.707
			C36.49,20.714,40.905,19,45.5,19C55.701,19,64,27.299,64,37.5S55.701,56,45.5,56z"/>
	</g>
	<g>
		<path class="st0" d="M1,11H0c-0.276,0-0.5-0.224-0.5-0.5S-0.276,10,0,10h1c0.276,0,0.5,0.224,0.5,0.5S1.276,11,1,11z"/>
	</g>
	<g>
		<path class="st0" d="M18,11H3c-0.276,0-0.5-0.224-0.5-0.5S2.724,10,3,10h15c0.276,0,0.5,0.224,0.5,0.5S18.276,11,18,11z"/>
	</g>
	<g>
		<path class="st0" d="M64,11h-1c-0.276,0-0.5-0.224-0.5-0.5S62.724,10,63,10h1c0.276,0,0.5,0.224,0.5,0.5S64.276,11,64,11z"/>
	</g>
	<g>
		<path class="st0" d="M61,11H46c-0.276,0-0.5-0.224-0.5-0.5S45.724,10,46,10h15c0.276,0,0.5,0.224,0.5,0.5S61.276,11,61,11z"/>
	</g>
	<g>
		<path class="st0" d="M18.5,56C8.299,56,0,47.701,0,37.5S8.299,19,18.5,19S37,27.299,37,37.5S28.701,56,18.5,56z M18.5,20
			C8.851,20,1,27.851,1,37.5S8.851,55,18.5,55S36,47.149,36,37.5S28.149,20,18.5,20z"/>
	</g>
	<g>
		<path class="st0" d="M45.5,53c-3.944,0-7.709-1.496-10.601-4.213c-0.201-0.189-0.211-0.505-0.021-0.707
			c0.189-0.202,0.506-0.211,0.707-0.022C38.29,50.6,41.812,52,45.5,52C53.495,52,60,45.495,60,37.5S53.495,23,45.5,23
			c-3.688,0-7.21,1.4-9.917,3.941c-0.199,0.189-0.516,0.18-0.706-0.022c-0.189-0.201-0.18-0.518,0.022-0.707
			C37.791,23.496,41.557,22,45.5,22C54.047,22,61,28.953,61,37.5S54.047,53,45.5,53z"/>
	</g>
	<g>
		<path class="st0" d="M18.5,53C9.953,53,3,46.047,3,37.5S9.953,22,18.5,22S34,28.953,34,37.5S27.047,53,18.5,53z M18.5,23
			C10.505,23,4,29.505,4,37.5S10.505,52,18.5,52S33,45.495,33,37.5S26.495,23,18.5,23z"/>
	</g>
	<g>
		<path class="st3" d="M25.005,36.719c0.468-0.71,0.745-1.557,0.745-2.469c0-2.481-2.019-4.5-4.5-4.5v-2.5h-2v2.5h-2v-2.5h-2v2.5
			h-3.5v3h1.5v9h-1.5v3h3.5v2.5h2v-2.5h2v2.5h2v-2.5h1c2.481,0,4.5-2.019,4.5-4.5C26.75,38.811,26.059,37.543,25.005,36.719z
			 M16.25,32.75h5c0.827,0,1.5,0.673,1.5,1.5s-0.673,1.5-1.5,1.5h-5V32.75z M22.25,41.75h-6v-3h5h1c0.827,0,1.5,0.673,1.5,1.5
			S23.077,41.75,22.25,41.75z"/>
		<path class="st0" d="M21.25,47.75h-2c-0.276,0-0.5-0.224-0.5-0.5v-2h-1v2c0,0.276-0.224,0.5-0.5,0.5h-2
			c-0.276,0-0.5-0.224-0.5-0.5v-2h-3c-0.276,0-0.5-0.224-0.5-0.5v-3c0-0.276,0.224-0.5,0.5-0.5h1v-8h-1c-0.276,0-0.5-0.224-0.5-0.5
			v-3c0-0.276,0.224-0.5,0.5-0.5h3v-2c0-0.276,0.224-0.5,0.5-0.5h2c0.276,0,0.5,0.224,0.5,0.5v2h1v-2c0-0.276,0.224-0.5,0.5-0.5h2
			c0.276,0,0.5,0.224,0.5,0.5v2.025c2.523,0.251,4.5,2.387,4.5,4.975c0,0.827-0.206,1.636-0.599,2.363
			c1.021,0.949,1.599,2.251,1.599,3.637c0,2.757-2.243,5-5,5h-0.5v2C21.75,47.526,21.526,47.75,21.25,47.75z M19.75,46.75h1v-2
			c0-0.276,0.224-0.5,0.5-0.5h1c2.206,0,4-1.794,4-4c0-1.222-0.566-2.366-1.553-3.137c-0.205-0.161-0.253-0.452-0.109-0.669
			c0.433-0.657,0.662-1.415,0.662-2.193c0-2.206-1.794-4-4-4c-0.276,0-0.5-0.224-0.5-0.5v-2h-1v2c0,0.276-0.224,0.5-0.5,0.5h-2
			c-0.276,0-0.5-0.224-0.5-0.5v-2h-1v2c0,0.276-0.224,0.5-0.5,0.5h-3v2h1c0.276,0,0.5,0.224,0.5,0.5v9c0,0.276-0.224,0.5-0.5,0.5h-1
			v2h3c0.276,0,0.5,0.224,0.5,0.5v2h1v-2c0-0.276,0.224-0.5,0.5-0.5h2c0.276,0,0.5,0.224,0.5,0.5V46.75z M22.25,42.25h-6
			c-0.276,0-0.5-0.224-0.5-0.5v-3c0-0.276,0.224-0.5,0.5-0.5h6c1.103,0,2,0.897,2,2S23.353,42.25,22.25,42.25z M16.75,41.25h5.5
			c0.551,0,1-0.449,1-1s-0.449-1-1-1h-5.5V41.25z M21.25,36.25h-5c-0.276,0-0.5-0.224-0.5-0.5v-3c0-0.276,0.224-0.5,0.5-0.5h5
			c1.103,0,2,0.897,2,2S22.353,36.25,21.25,36.25z M16.75,35.25h4.5c0.551,0,1-0.449,1-1s-0.449-1-1-1h-4.5V35.25z"/>
	</g>
	<g>
		<path class="st1" d="M47.017,36h-2c-0.827,0-1.5-0.673-1.5-1.5s0.673-1.5,1.5-1.5h5.5v-3h-3.5v-2h-3v2.121
			c-2,0.457-3.5,2.242-3.5,4.379c0,2.481,2.019,4.5,4.5,4.5h2c0.827,0,1.5,0.673,1.5,1.5s-0.673,1.5-1.5,1.5h-6v3h3v1.5h3V45
			c2.481,0,4.5-2.019,4.5-4.5S49.498,36,47.017,36z"/>
		<path class="st0" d="M47.017,47h-3c-0.276,0-0.5-0.224-0.5-0.5v-1h-2.5c-0.276,0-0.5-0.224-0.5-0.5v-3c0-0.276,0.224-0.5,0.5-0.5
			h6c0.552,0,1-0.449,1-1s-0.448-1-1-1h-2c-2.757,0-5-2.243-5-5c0-2.207,1.42-4.111,3.5-4.761V28c0-0.276,0.224-0.5,0.5-0.5h3
			c0.276,0,0.5,0.224,0.5,0.5v1.5h3c0.276,0,0.5,0.224,0.5,0.5v3c0,0.276-0.224,0.5-0.5,0.5h-5.5c-0.552,0-1,0.449-1,1s0.448,1,1,1
			h2c2.757,0,5,2.243,5,5c0,2.588-1.977,4.724-4.5,4.975V46.5C47.517,46.776,47.293,47,47.017,47z M44.517,46h2v-1
			c0-0.276,0.224-0.5,0.5-0.5c2.206,0,4-1.794,4-4s-1.794-4-4-4h-2c-1.103,0-2-0.897-2-2s0.897-2,2-2h5v-2h-3
			c-0.276,0-0.5-0.224-0.5-0.5v-1.5h-2v1.621c0,0.233-0.161,0.436-0.389,0.487c-1.832,0.419-3.111,2.019-3.111,3.892
			c0,2.206,1.794,4,4,4h2c1.103,0,2,0.897,2,2s-0.897,2-2,2h-5.5v2h2.5c0.276,0,0.5,0.224,0.5,0.5V46z"/>
	</g>
	<g>
		<path class="st0" d="M29.438,13.5c-0.189,0-0.362-0.107-0.447-0.276l-2.5-5c-0.124-0.247-0.023-0.547,0.224-0.671
			c0.247-0.123,0.547-0.023,0.671,0.224l2.053,4.105l2.053-4.105c0.125-0.247,0.424-0.346,0.671-0.224
			c0.247,0.124,0.347,0.424,0.224,0.671l-2.5,5C29.8,13.393,29.627,13.5,29.438,13.5z"/>
	</g>
	<g>
		<path class="st0" d="M36.312,13.5h-2.75c-0.276,0-0.5-0.224-0.5-0.5s0.224-0.5,0.5-0.5h2.75c0.413,0,0.75-0.336,0.75-0.75
			S36.726,11,36.312,11h-1.5c-0.965,0-1.75-0.785-1.75-1.75s0.785-1.75,1.75-1.75h2.25c0.276,0,0.5,0.224,0.5,0.5
			s-0.224,0.5-0.5,0.5h-2.25c-0.413,0-0.75,0.336-0.75,0.75S34.399,10,34.812,10h1.5c0.965,0,1.75,0.785,1.75,1.75
			S37.277,13.5,36.312,13.5z"/>
	</g>
	<g>
		<path class="st0" d="M59,63c-0.215,0-0.406-0.138-0.475-0.342L57.973,61c-0.229-0.691-0.78-1.242-1.473-1.473l-1.658-0.553
			C54.638,58.906,54.5,58.715,54.5,58.5s0.138-0.406,0.342-0.474l1.658-0.553c0.692-0.231,1.243-0.782,1.473-1.473l0.553-1.659
			c0.137-0.408,0.812-0.408,0.949,0L60.027,56c0.229,0.691,0.78,1.242,1.473,1.473l1.658,0.553c0.204,0.068,0.342,0.259,0.342,0.474
			s-0.138,0.406-0.342,0.474L61.5,59.527c-0.692,0.231-1.243,0.782-1.473,1.473l-0.553,1.659C59.406,62.862,59.215,63,59,63z
			 M56.581,58.5l0.235,0.079c0.989,0.33,1.776,1.117,2.105,2.105L59,60.919l0.078-0.235c0.329-0.988,1.116-1.775,2.105-2.105
			l0.235-0.079l-0.235-0.079c-0.989-0.33-1.776-1.117-2.105-2.105L59,56.081l-0.078,0.235c-0.329,0.988-1.116,1.775-2.105,2.105
			L56.581,58.5z"/>
	</g>
</g>
</svg>
