<?xml version="1.0" encoding="utf-8"?>
<!-- Generator: Adobe Illustrator 21.1.0, SVG Export Plug-In . SVG Version: 6.00 Build 0)  -->
<svg version="1.1" id="Icon_Set" xmlns="http://www.w3.org/2000/svg" xmlns:xlink="http://www.w3.org/1999/xlink" x="0px" y="0px"
	 viewBox="0 0 64 64" style="enable-background:new 0 0 64 64;" xml:space="preserve">
<style type="text/css">
	.st0{fill:#263238;}
	.st1{fill:#FFFFFF;}
	.st2{fill:#FF5252;}
	.st3{fill:#FFD740;}
	.st4{fill:#40C4FF;}
	.st5{fill:#4DB6AC;}
	.st6{fill:#4FC3F7;}
</style>
<g id="Bitcoin_Mixer">
	<g>
		<path class="st4" d="M47.196,26.5l-5.446,2.723c-2.501,1.251-5.542,0.206-6.748-2.317l-0.388-0.812
			c-1.205-2.524-4.246-3.568-6.748-2.317L22.42,26.5l2.143,15h20.5L47.196,26.5z"/>
	</g>
	<g>
		<path class="st0" d="M46.062,62.5h-22.5c-1.654,0-3-1.346-3-3v-10c0-0.089,0.023-0.176,0.068-0.252l3.5-6
			C24.22,43.095,24.385,43,24.562,43h20.5c0.178,0,0.342,0.095,0.432,0.248l3.5,6c0.044,0.076,0.068,0.163,0.068,0.252v10
			C49.062,61.154,47.717,62.5,46.062,62.5z M21.562,49.635V59.5c0,1.103,0.897,2,2,2h22.5c1.103,0,2-0.897,2-2v-9.865L44.775,44
			H24.85L21.562,49.635z"/>
	</g>
	<g>
		<path class="st0" d="M45.063,42c-0.023,0-0.047-0.002-0.071-0.005c-0.273-0.039-0.463-0.293-0.424-0.566l0.86-6
			C45.463,35.183,45.674,35,45.923,35h3.64c3.584,0,6.5-2.916,6.5-6.5v-7c0-3.584-2.916-6.5-6.5-6.5H48.92
			c-0.145,0-0.283-0.062-0.378-0.173c-0.095-0.109-0.138-0.254-0.117-0.397l0.643-4.5c0.039-0.273,0.293-0.458,0.566-0.425
			c0.273,0.039,0.463,0.292,0.424,0.565L49.497,14h0.066c4.136,0,7.5,3.364,7.5,7.5v7c0,4.136-3.364,7.5-7.5,7.5h-3.206
			l-0.799,5.571C45.521,41.82,45.308,42,45.063,42z M24.562,42c-0.245,0-0.459-0.18-0.495-0.43l-4.5-31.5
			c-0.039-0.273,0.151-0.526,0.424-0.565c0.271-0.037,0.526,0.15,0.566,0.425l4.5,31.5c0.039,0.273-0.151,0.526-0.424,0.565
			C24.609,41.998,24.585,42,24.562,42z M49.562,32h-3.085c-0.145,0-0.283-0.062-0.378-0.173c-0.095-0.109-0.138-0.255-0.117-0.398
			l1.869-13C47.887,18.183,48.098,18,48.346,18h1.216c1.93,0,3.5,1.57,3.5,3.5v7C53.062,30.43,51.492,32,49.562,32z M47.054,31
			h2.508c1.378,0,2.5-1.121,2.5-2.5v-7c0-1.379-1.122-2.5-2.5-2.5h-0.783L47.054,31z"/>
	</g>
	<g>
		<path class="st0" d="M48.562,8.5h-27.5c-0.827,0-1.5-0.673-1.5-1.5V5.5c0-0.827,0.673-1.5,1.5-1.5h27.5c0.827,0,1.5,0.673,1.5,1.5
			V7C50.062,7.827,49.39,8.5,48.562,8.5z M21.062,5c-0.276,0-0.5,0.225-0.5,0.5V7c0,0.275,0.224,0.5,0.5,0.5h27.5
			c0.276,0,0.5-0.225,0.5-0.5V5.5c0-0.275-0.224-0.5-0.5-0.5H21.062z"/>
	</g>
	<g>
		<path class="st0" d="M37.812,5h-5c-0.276,0-0.5-0.224-0.5-0.5V3c0-0.827,0.673-1.5,1.5-1.5h3c0.827,0,1.5,0.673,1.5,1.5v1.5
			C38.312,4.776,38.089,5,37.812,5z M33.312,4h4V3c0-0.275-0.224-0.5-0.5-0.5h-3c-0.276,0-0.5,0.225-0.5,0.5V4z"/>
	</g>
	<g>
		<path class="st0" d="M39.52,30.254c-0.602,0-1.206-0.1-1.793-0.301c-1.407-0.483-2.535-1.489-3.176-2.831l-0.388-0.813
			c-0.524-1.098-1.447-1.92-2.598-2.315c-1.153-0.396-2.386-0.313-3.475,0.23l-5.447,2.724c-0.248,0.124-0.547,0.022-0.671-0.224
			c-0.124-0.247-0.023-0.547,0.224-0.671l5.447-2.724c1.331-0.665,2.839-0.766,4.247-0.281c1.407,0.482,2.535,1.488,3.176,2.83
			l0.388,0.813c0.525,1.098,1.448,1.92,2.599,2.315s2.386,0.313,3.474-0.23l5.446-2.724c0.247-0.124,0.547-0.022,0.671,0.224
			c0.124,0.247,0.023,0.547-0.224,0.671l-5.446,2.724C41.197,30.059,40.361,30.254,39.52,30.254z"/>
	</g>
	<g>
		<circle class="st3" cx="22.312" cy="25" r="10"/>
		<path class="st0" d="M22.312,35.5c-5.79,0-10.5-4.71-10.5-10.5s4.71-10.5,10.5-10.5s10.5,4.71,10.5,10.5S28.102,35.5,22.312,35.5z
			 M22.312,15.5c-5.238,0-9.5,4.262-9.5,9.5s4.262,9.5,9.5,9.5s9.5-4.262,9.5-9.5S27.551,15.5,22.312,15.5z"/>
	</g>
	<g>
		<path class="st0" d="M23.312,25.5h-3.5c-0.276,0-0.5-0.224-0.5-0.5v-4c0-0.276,0.224-0.5,0.5-0.5h3.5c1.378,0,2.5,1.121,2.5,2.5
			S24.691,25.5,23.312,25.5z M20.312,24.5h3c0.827,0,1.5-0.673,1.5-1.5s-0.673-1.5-1.5-1.5h-3V24.5z"/>
	</g>
	<g>
		<path class="st0" d="M24.312,29.5h-4.5c-0.276,0-0.5-0.224-0.5-0.5v-4c0-0.276,0.224-0.5,0.5-0.5h4.5c1.378,0,2.5,1.121,2.5,2.5
			S25.691,29.5,24.312,29.5z M20.312,28.5h4c0.827,0,1.5-0.673,1.5-1.5s-0.673-1.5-1.5-1.5h-4V28.5z"/>
	</g>
	<g>
		<path class="st0" d="M19.812,21.5h-1.5c-0.276,0-0.5-0.224-0.5-0.5s0.224-0.5,0.5-0.5h1.5c0.276,0,0.5,0.224,0.5,0.5
			S20.089,21.5,19.812,21.5z"/>
	</g>
	<g>
		<path class="st0" d="M19.812,29.5h-1.5c-0.276,0-0.5-0.224-0.5-0.5s0.224-0.5,0.5-0.5h1.5c0.276,0,0.5,0.224,0.5,0.5
			S20.089,29.5,19.812,29.5z"/>
	</g>
	<g>
		<path class="st0" d="M21.312,21.5c-0.276,0-0.5-0.224-0.5-0.5v-2c0-0.276,0.224-0.5,0.5-0.5s0.5,0.224,0.5,0.5v2
			C21.812,21.276,21.589,21.5,21.312,21.5z"/>
	</g>
	<g>
		<path class="st0" d="M23.312,21.5c-0.276,0-0.5-0.224-0.5-0.5v-2c0-0.276,0.224-0.5,0.5-0.5s0.5,0.224,0.5,0.5v2
			C23.812,21.276,23.589,21.5,23.312,21.5z"/>
	</g>
	<g>
		<path class="st0" d="M21.312,31.5c-0.276,0-0.5-0.224-0.5-0.5v-2c0-0.276,0.224-0.5,0.5-0.5s0.5,0.224,0.5,0.5v2
			C21.812,31.276,21.589,31.5,21.312,31.5z"/>
	</g>
	<g>
		<path class="st0" d="M23.312,31.5c-0.276,0-0.5-0.224-0.5-0.5v-2c0-0.276,0.224-0.5,0.5-0.5s0.5,0.224,0.5,0.5v2
			C23.812,31.276,23.589,31.5,23.312,31.5z"/>
	</g>
	<g>
		<circle class="st3" cx="43.062" cy="14.5" r="2.5"/>
		<path class="st0" d="M43.062,17.5c-1.654,0-3-1.346-3-3s1.346-3,3-3s3,1.346,3,3S44.717,17.5,43.062,17.5z M43.062,12.5
			c-1.103,0-2,0.897-2,2s0.897,2,2,2s2-0.897,2-2S44.166,12.5,43.062,12.5z"/>
	</g>
	<g>
		<circle class="st3" cx="38.062" cy="20" r="2"/>
		<path class="st0" d="M38.062,22.5c-1.378,0-2.5-1.121-2.5-2.5s1.122-2.5,2.5-2.5s2.5,1.121,2.5,2.5S39.441,22.5,38.062,22.5z
			 M38.062,18.5c-0.827,0-1.5,0.673-1.5,1.5s0.673,1.5,1.5,1.5s1.5-0.673,1.5-1.5S38.89,18.5,38.062,18.5z"/>
	</g>
	<g>
		<path class="st0" d="M48.562,50h-27.5c-0.276,0-0.5-0.224-0.5-0.5s0.224-0.5,0.5-0.5h27.5c0.276,0,0.5,0.224,0.5,0.5
			S48.839,50,48.562,50z"/>
	</g>
	<g>
		<path class="st0" d="M39.562,58h-3c-0.276,0-0.5-0.224-0.5-0.5v-3c0-0.276,0.224-0.5,0.5-0.5h3c0.276,0,0.5,0.224,0.5,0.5v3
			C40.062,57.776,39.839,58,39.562,58z M37.062,57h2v-2h-2V57z"/>
	</g>
	<g>
		<path class="st0" d="M45.562,58h-3c-0.276,0-0.5-0.224-0.5-0.5v-3c0-0.276,0.224-0.5,0.5-0.5h3c0.276,0,0.5,0.224,0.5,0.5v3
			C46.062,57.776,45.839,58,45.562,58z M43.062,57h2v-2h-2V57z"/>
	</g>
	<g>
		<path class="st0" d="M17.438,58.5c-0.276,0-0.5-0.224-0.5-0.5v-1c0-0.276,0.224-0.5,0.5-0.5s0.5,0.224,0.5,0.5v1
			C17.938,58.276,17.714,58.5,17.438,58.5z"/>
	</g>
	<g>
		<path class="st0" d="M17.438,55.5c-0.276,0-0.5-0.224-0.5-0.5V45c0-0.276,0.224-0.5,0.5-0.5s0.5,0.224,0.5,0.5v10
			C17.938,55.276,17.714,55.5,17.438,55.5z"/>
	</g>
	<g>
		<path class="st0" d="M52.438,46.5c-0.276,0-0.5-0.224-0.5-0.5v-1c0-0.276,0.224-0.5,0.5-0.5s0.5,0.224,0.5,0.5v1
			C52.938,46.276,52.714,46.5,52.438,46.5z"/>
	</g>
	<g>
		<path class="st0" d="M52.438,58.5c-0.276,0-0.5-0.224-0.5-0.5V48c0-0.276,0.224-0.5,0.5-0.5s0.5,0.224,0.5,0.5v10
			C52.938,58.276,52.714,58.5,52.438,58.5z"/>
	</g>
	<g>
		<path class="st0" d="M16.438,11.5h-4c-0.276,0-0.5-0.224-0.5-0.5s0.224-0.5,0.5-0.5h4c0.276,0,0.5,0.224,0.5,0.5
			S16.714,11.5,16.438,11.5z"/>
	</g>
	<g>
		<path class="st0" d="M14.438,13.5c-0.276,0-0.5-0.224-0.5-0.5V9c0-0.276,0.224-0.5,0.5-0.5s0.5,0.224,0.5,0.5v4
			C14.938,13.276,14.714,13.5,14.438,13.5z"/>
	</g>
	<g>
		<path class="st0" d="M11.438,17.5h-4c-0.276,0-0.5-0.224-0.5-0.5s0.224-0.5,0.5-0.5h4c0.276,0,0.5,0.224,0.5,0.5
			S11.714,17.5,11.438,17.5z"/>
	</g>
	<g>
		<path class="st0" d="M9.438,19.5c-0.276,0-0.5-0.224-0.5-0.5v-4c0-0.276,0.224-0.5,0.5-0.5s0.5,0.224,0.5,0.5v4
			C9.938,19.276,9.714,19.5,9.438,19.5z"/>
	</g>
</g>
</svg>
