<?xml version="1.0" encoding="utf-8"?>
<!-- Generator: Adobe Illustrator 21.1.0, SVG Export Plug-In . SVG Version: 6.00 Build 0)  -->
<svg version="1.1" id="Icon_Set" xmlns="http://www.w3.org/2000/svg" xmlns:xlink="http://www.w3.org/1999/xlink" x="0px" y="0px"
	 viewBox="0 0 64 64" style="enable-background:new 0 0 64 64;" xml:space="preserve">
<style type="text/css">
	.st0{fill:#263238;}
	.st1{fill:#FFFFFF;}
	.st2{fill:#FF5252;}
	.st3{fill:#FFD740;}
	.st4{fill:#40C4FF;}
	.st5{fill:#4DB6AC;}
	.st6{fill:#4FC3F7;}
</style>
<g id="Bitcoin">
	<g>
		<path class="st0" d="M29.5,61.25h-1c-0.276,0-0.5-0.224-0.5-0.5s0.224-0.5,0.5-0.5h1c0.276,0,0.5,0.224,0.5,0.5
			S29.776,61.25,29.5,61.25z"/>
	</g>
	<g>
		<circle class="st3" cx="31.25" cy="32.75" r="24"/>
		<path class="st0" d="M31.25,57.25c-13.509,0-24.5-10.991-24.5-24.5s10.991-24.5,24.5-24.5s24.5,10.991,24.5,24.5
			S44.759,57.25,31.25,57.25z M31.25,9.25c-12.958,0-23.5,10.542-23.5,23.5s10.542,23.5,23.5,23.5s23.5-10.542,23.5-23.5
			S44.208,9.25,31.25,9.25z"/>
	</g>
	<g>
		<circle class="st3" cx="31.25" cy="32.75" r="20"/>
		<path class="st0" d="M31.25,53.25c-11.304,0-20.5-9.196-20.5-20.5s9.196-20.5,20.5-20.5s20.5,9.196,20.5,20.5
			S42.554,53.25,31.25,53.25z M31.25,13.25c-10.752,0-19.5,8.748-19.5,19.5s8.748,19.5,19.5,19.5s19.5-8.748,19.5-19.5
			S42.002,13.25,31.25,13.25z"/>
	</g>
	<g>
		<path class="st0" d="M3.25,33.25c-0.276,0-0.5-0.224-0.5-0.5c0-15.715,12.785-28.5,28.5-28.5c0.276,0,0.5,0.224,0.5,0.5
			s-0.224,0.5-0.5,0.5c-15.164,0-27.5,12.336-27.5,27.5C3.75,33.026,3.526,33.25,3.25,33.25z"/>
	</g>
	<g>
		<path class="st0" d="M34.25,5.25h-1c-0.276,0-0.5-0.224-0.5-0.5s0.224-0.5,0.5-0.5h1c0.276,0,0.5,0.224,0.5,0.5
			S34.526,5.25,34.25,5.25z"/>
	</g>
	<g>
		<path class="st0" d="M31.25,61.25c-0.276,0-0.5-0.224-0.5-0.5s0.224-0.5,0.5-0.5c15.164,0,27.5-12.336,27.5-27.5
			c0-0.276,0.224-0.5,0.5-0.5s0.5,0.224,0.5,0.5C59.75,48.465,46.965,61.25,31.25,61.25z"/>
	</g>
	<g>
		<path class="st0" d="M53.75,5.75h-4c-0.276,0-0.5-0.224-0.5-0.5s0.224-0.5,0.5-0.5h4c0.276,0,0.5,0.224,0.5,0.5
			S54.026,5.75,53.75,5.75z"/>
	</g>
	<g>
		<path class="st0" d="M51.75,7.75c-0.276,0-0.5-0.224-0.5-0.5v-4c0-0.276,0.224-0.5,0.5-0.5s0.5,0.224,0.5,0.5v4
			C52.25,7.526,52.026,7.75,51.75,7.75z"/>
	</g>
	<g>
		<path class="st0" d="M60.75,12.25h-4c-0.276,0-0.5-0.224-0.5-0.5s0.224-0.5,0.5-0.5h4c0.276,0,0.5,0.224,0.5,0.5
			S61.026,12.25,60.75,12.25z"/>
	</g>
	<g>
		<path class="st0" d="M58.75,14.25c-0.276,0-0.5-0.224-0.5-0.5v-4c0-0.276,0.224-0.5,0.5-0.5s0.5,0.224,0.5,0.5v4
			C59.25,14.026,59.026,14.25,58.75,14.25z"/>
	</g>
	<g>
		<path class="st1" d="M39.194,31.97l-0.004-0.002c0.668-0.992,1.059-2.184,1.059-3.468c0-3.148-2.343-5.754-5.375-6.181V19.25h-3v3
			H29.75v-3h-3v3h-5v4h2v13.138h-2v3.862h5v3h3v-3h2.125v3h3v-3H35.5c3.446,0,6.25-2.804,6.25-6.25
			C41.75,34.937,40.741,33.109,39.194,31.97z M34,26.25c1.241,0,2.25,1.009,2.25,2.25s-1.009,2.25-2.25,2.25h-6.25v-4.5H34z
			 M35.5,39.25h-7.75v-4.5h7.75c1.241,0,2.25,1.009,2.25,2.25S36.741,39.25,35.5,39.25z"/>
		<path class="st0" d="M34.875,46.75h-3c-0.276,0-0.5-0.224-0.5-0.5v-2.5H30.25v2.5c0,0.276-0.224,0.5-0.5,0.5h-3
			c-0.276,0-0.5-0.224-0.5-0.5v-2.5h-4.5c-0.276,0-0.5-0.224-0.5-0.5v-3.862c0-0.276,0.224-0.5,0.5-0.5h1.5V26.75h-1.5
			c-0.276,0-0.5-0.224-0.5-0.5v-4c0-0.276,0.224-0.5,0.5-0.5h4.5v-2.5c0-0.276,0.224-0.5,0.5-0.5h3c0.276,0,0.5,0.224,0.5,0.5v2.5
			h1.125v-2.5c0-0.276,0.224-0.5,0.5-0.5h3c0.276,0,0.5,0.224,0.5,0.5v2.648c3.093,0.645,5.375,3.409,5.375,6.602
			c0,1.184-0.309,2.333-0.898,3.353c1.509,1.279,2.398,3.17,2.398,5.147c0,3.722-3.028,6.75-6.75,6.75h-0.125v2.5
			C35.375,46.526,35.151,46.75,34.875,46.75z M32.375,45.75h2v-2.5c0-0.276,0.224-0.5,0.5-0.5H35.5c3.17,0,5.75-2.58,5.75-5.75
			c0-1.807-0.874-3.532-2.338-4.617c-0.104-0.07-0.179-0.177-0.208-0.301c-0.032-0.135-0.005-0.277,0.072-0.393
			c0.637-0.947,0.974-2.05,0.974-3.189c0-2.844-2.126-5.289-4.945-5.687c-0.247-0.035-0.43-0.246-0.43-0.495V19.75h-2v2.5
			c0,0.276-0.224,0.5-0.5,0.5H29.75c-0.276,0-0.5-0.224-0.5-0.5v-2.5h-2v2.5c0,0.276-0.224,0.5-0.5,0.5h-4.5v3h1.5
			c0.276,0,0.5,0.224,0.5,0.5v13.138c0,0.276-0.224,0.5-0.5,0.5h-1.5v2.862h4.5c0.276,0,0.5,0.224,0.5,0.5v2.5h2v-2.5
			c0-0.276,0.224-0.5,0.5-0.5h2.125c0.276,0,0.5,0.224,0.5,0.5V45.75z M35.5,39.75h-7.75c-0.276,0-0.5-0.224-0.5-0.5v-4.5
			c0-0.276,0.224-0.5,0.5-0.5h7.75c1.517,0,2.75,1.233,2.75,2.75S37.017,39.75,35.5,39.75z M28.25,38.75h7.25
			c0.965,0,1.75-0.785,1.75-1.75s-0.785-1.75-1.75-1.75h-7.25V38.75z M34,31.25h-6.25c-0.276,0-0.5-0.224-0.5-0.5v-4.5
			c0-0.276,0.224-0.5,0.5-0.5H34c1.517,0,2.75,1.233,2.75,2.75S35.517,31.25,34,31.25z M28.25,30.25H34
			c0.965,0,1.75-0.785,1.75-1.75s-0.785-1.75-1.75-1.75h-5.75V30.25z"/>
	</g>
</g>
</svg>
