<?xml version="1.0" encoding="utf-8"?>
<!-- Generator: Adobe Illustrator 21.1.0, SVG Export Plug-In . SVG Version: 6.00 Build 0)  -->
<svg version="1.1" id="Icon_Set" xmlns="http://www.w3.org/2000/svg" xmlns:xlink="http://www.w3.org/1999/xlink" x="0px" y="0px"
	 viewBox="0 0 64 64" style="enable-background:new 0 0 64 64;" xml:space="preserve">
<style type="text/css">
	.st0{fill:#263238;}
	.st1{fill:#FFFFFF;}
	.st2{fill:#FF5252;}
	.st3{fill:#FFD740;}
	.st4{fill:#40C4FF;}
	.st5{fill:#4DB6AC;}
	.st6{fill:#4FC3F7;}
</style>
<g id="Blockchain">
	<g>
		<path class="st3" d="M38.5,41h-13c-1.381,0-2.5-1.119-2.5-2.5v-13c0-1.381,1.119-2.5,2.5-2.5h13c1.381,0,2.5,1.119,2.5,2.5v13
			C41,39.881,39.881,41,38.5,41z"/>
		<path class="st0" d="M38.5,41.5h-13c-1.654,0-3-1.346-3-3v-13c0-1.654,1.346-3,3-3h13c1.654,0,3,1.346,3,3v13
			C41.5,40.154,40.154,41.5,38.5,41.5z M25.5,23.5c-1.103,0-2,0.897-2,2v13c0,1.103,0.897,2,2,2h13c1.103,0,2-0.897,2-2v-13
			c0-1.103-0.897-2-2-2H25.5z"/>
	</g>
	<g>
		<path class="st4" d="M36,13h-8c-0.552,0-1-0.448-1-1V4c0-0.552,0.448-1,1-1h8c0.552,0,1,0.448,1,1v8C37,12.552,36.552,13,36,13z"
			/>
		<path class="st0" d="M36,13.5h-8c-0.827,0-1.5-0.673-1.5-1.5V4c0-0.827,0.673-1.5,1.5-1.5h8c0.827,0,1.5,0.673,1.5,1.5v8
			C37.5,12.827,36.827,13.5,36,13.5z M28,3.5c-0.276,0-0.5,0.224-0.5,0.5v8c0,0.276,0.224,0.5,0.5,0.5h8c0.276,0,0.5-0.224,0.5-0.5
			V4c0-0.276-0.224-0.5-0.5-0.5H28z"/>
	</g>
	<g>
		<path class="st4" d="M36,61h-8c-0.552,0-1-0.448-1-1v-8c0-0.552,0.448-1,1-1h8c0.552,0,1,0.448,1,1v8C37,60.552,36.552,61,36,61z"
			/>
		<path class="st0" d="M36,61.5h-8c-0.827,0-1.5-0.673-1.5-1.5v-8c0-0.827,0.673-1.5,1.5-1.5h8c0.827,0,1.5,0.673,1.5,1.5v8
			C37.5,60.827,36.827,61.5,36,61.5z M28,51.5c-0.276,0-0.5,0.224-0.5,0.5v8c0,0.276,0.224,0.5,0.5,0.5h8c0.276,0,0.5-0.224,0.5-0.5
			v-8c0-0.276-0.224-0.5-0.5-0.5H28z"/>
	</g>
	<g>
		<path class="st4" d="M51,36v-8c0-0.552,0.448-1,1-1h8c0.552,0,1,0.448,1,1v8c0,0.552-0.448,1-1,1h-8C51.448,37,51,36.552,51,36z"
			/>
		<path class="st0" d="M60,37.5h-8c-0.827,0-1.5-0.673-1.5-1.5v-8c0-0.827,0.673-1.5,1.5-1.5h8c0.827,0,1.5,0.673,1.5,1.5v8
			C61.5,36.827,60.827,37.5,60,37.5z M52,27.5c-0.276,0-0.5,0.224-0.5,0.5v8c0,0.276,0.224,0.5,0.5,0.5h8c0.276,0,0.5-0.224,0.5-0.5
			v-8c0-0.276-0.224-0.5-0.5-0.5H52z"/>
	</g>
	<g>
		<path class="st4" d="M3,36v-8c0-0.552,0.448-1,1-1h8c0.552,0,1,0.448,1,1v8c0,0.552-0.448,1-1,1H4C3.448,37,3,36.552,3,36z"/>
		<path class="st0" d="M12,37.5H4c-0.827,0-1.5-0.673-1.5-1.5v-8c0-0.827,0.673-1.5,1.5-1.5h8c0.827,0,1.5,0.673,1.5,1.5v8
			C13.5,36.827,12.827,37.5,12,37.5z M4,27.5c-0.276,0-0.5,0.224-0.5,0.5v8c0,0.276,0.224,0.5,0.5,0.5h8c0.276,0,0.5-0.224,0.5-0.5
			v-8c0-0.276-0.224-0.5-0.5-0.5H4z"/>
	</g>
	<g>
		<path class="st0" d="M8.981,24.5c-0.054,0-0.109-0.009-0.163-0.027c-0.261-0.09-0.399-0.375-0.31-0.636
			c0.245-0.71,0.527-1.418,0.837-2.104c0.115-0.251,0.411-0.363,0.662-0.249c0.251,0.114,0.363,0.411,0.249,0.662
			c-0.298,0.657-0.568,1.335-0.803,2.017C9.383,24.37,9.189,24.5,8.981,24.5z"/>
	</g>
	<g>
		<path class="st0" d="M10.79,20.499c-0.083,0-0.168-0.021-0.247-0.065c-0.24-0.136-0.324-0.441-0.188-0.682
			c2.222-3.911,5.473-7.136,9.4-9.325c0.241-0.134,0.546-0.048,0.68,0.193c0.135,0.241,0.048,0.546-0.193,0.68
			c-3.769,2.101-6.887,5.194-9.019,8.946C11.133,20.408,10.963,20.499,10.79,20.499z"/>
	</g>
	<g>
		<path class="st0" d="M22,10.368c-0.192,0-0.375-0.111-0.458-0.298c-0.111-0.252,0.003-0.548,0.256-0.659
			c0.665-0.293,1.352-0.56,2.042-0.792c0.263-0.09,0.545,0.053,0.633,0.314c0.088,0.262-0.052,0.545-0.314,0.633
			c-0.662,0.223-1.321,0.479-1.958,0.76C22.136,10.354,22.068,10.368,22,10.368z"/>
	</g>
	<g>
		<path class="st0" d="M53.531,42.227c-0.069,0-0.139-0.014-0.206-0.044c-0.251-0.114-0.363-0.41-0.249-0.662
			c0.297-0.654,0.567-1.333,0.803-2.017c0.09-0.26,0.375-0.399,0.636-0.309c0.261,0.09,0.399,0.375,0.309,0.636
			c-0.247,0.712-0.528,1.42-0.837,2.103C53.903,42.118,53.722,42.227,53.531,42.227z"/>
	</g>
	<g>
		<path class="st0" d="M43.334,53.304c-0.175,0-0.346-0.092-0.437-0.256c-0.135-0.241-0.048-0.546,0.193-0.68
			c3.769-2.101,6.887-5.195,9.019-8.947c0.135-0.24,0.44-0.326,0.682-0.188c0.24,0.136,0.324,0.441,0.188,0.682
			c-2.222,3.911-5.472,7.136-9.4,9.326C43.5,53.283,43.417,53.304,43.334,53.304z"/>
	</g>
	<g>
		<path class="st0" d="M39.333,55.075c-0.209,0-0.403-0.132-0.474-0.34c-0.088-0.262,0.052-0.545,0.314-0.633
			c0.658-0.222,1.317-0.478,1.958-0.76c0.255-0.112,0.548,0.004,0.659,0.256c0.111,0.253-0.003,0.548-0.256,0.659
			c-0.668,0.294-1.355,0.561-2.042,0.792C39.44,55.067,39.386,55.075,39.333,55.075z"/>
	</g>
	<g>
		<path class="st0" d="M41.56,10.468c-0.069,0-0.139-0.014-0.206-0.044c-0.657-0.298-1.336-0.568-2.017-0.803
			c-0.261-0.09-0.4-0.375-0.31-0.636c0.091-0.26,0.375-0.4,0.636-0.309c0.71,0.246,1.417,0.527,2.103,0.837
			c0.252,0.114,0.363,0.41,0.25,0.662C41.932,10.359,41.75,10.468,41.56,10.468z"/>
	</g>
	<g>
		<path class="st0" d="M52.637,20.666c-0.175,0-0.346-0.092-0.437-0.256c-2.101-3.769-5.194-6.887-8.946-9.019
			c-0.24-0.136-0.324-0.441-0.188-0.682c0.135-0.24,0.44-0.325,0.682-0.188c3.911,2.222,7.136,5.473,9.325,9.4
			c0.135,0.241,0.048,0.546-0.193,0.68C52.803,20.646,52.72,20.666,52.637,20.666z"/>
	</g>
	<g>
		<path class="st0" d="M54.409,24.667c-0.209,0-0.403-0.132-0.474-0.34c-0.223-0.66-0.478-1.319-0.76-1.958
			c-0.111-0.252,0.003-0.548,0.256-0.659c0.253-0.111,0.547,0.004,0.659,0.256c0.294,0.667,0.561,1.354,0.792,2.042
			c0.088,0.262-0.052,0.545-0.314,0.633C54.516,24.659,54.461,24.667,54.409,24.667z"/>
	</g>
	<g>
		<path class="st0" d="M23.833,55.019c-0.054,0-0.109-0.009-0.163-0.027c-0.713-0.246-1.42-0.528-2.103-0.838
			c-0.251-0.114-0.363-0.41-0.249-0.662c0.113-0.251,0.41-0.362,0.662-0.249c0.655,0.297,1.333,0.567,2.016,0.803
			c0.261,0.09,0.399,0.375,0.31,0.636C24.234,54.889,24.041,55.019,23.833,55.019z"/>
	</g>
	<g>
		<path class="st0" d="M19.832,53.21c-0.083,0-0.168-0.021-0.247-0.065c-3.911-2.222-7.136-5.472-9.326-9.4
			c-0.135-0.241-0.048-0.546,0.193-0.68c0.242-0.134,0.546-0.048,0.68,0.193c2.101,3.769,5.195,6.887,8.947,9.019
			c0.24,0.136,0.324,0.441,0.188,0.682C20.175,53.119,20.006,53.21,19.832,53.21z"/>
	</g>
	<g>
		<path class="st0" d="M9.701,42c-0.192,0-0.375-0.111-0.458-0.298c-0.293-0.666-0.56-1.353-0.792-2.042
			c-0.088-0.262,0.052-0.545,0.314-0.633c0.263-0.088,0.545,0.052,0.633,0.314c0.223,0.661,0.479,1.319,0.76,1.958
			c0.111,0.253-0.003,0.548-0.256,0.659C9.837,41.986,9.768,42,9.701,42z"/>
	</g>
	<g>
		<path class="st0" d="M23,32.5h-8c-0.276,0-0.5-0.224-0.5-0.5s0.224-0.5,0.5-0.5h8c0.276,0,0.5,0.224,0.5,0.5S23.276,32.5,23,32.5z
			"/>
	</g>
	<g>
		<path class="st0" d="M49,32.5h-8c-0.276,0-0.5-0.224-0.5-0.5s0.224-0.5,0.5-0.5h8c0.276,0,0.5,0.224,0.5,0.5S49.276,32.5,49,32.5z
			"/>
	</g>
	<g>
		<path class="st0" d="M32,23.5c-0.276,0-0.5-0.224-0.5-0.5v-8c0-0.276,0.224-0.5,0.5-0.5s0.5,0.224,0.5,0.5v8
			C32.5,23.276,32.276,23.5,32,23.5z"/>
	</g>
	<g>
		<path class="st0" d="M32,49.5c-0.276,0-0.5-0.224-0.5-0.5v-8c0-0.276,0.224-0.5,0.5-0.5s0.5,0.224,0.5,0.5v8
			C32.5,49.276,32.276,49.5,32,49.5z"/>
	</g>
	<g>
		<path class="st0" d="M36.5,29H31c-0.276,0-0.5-0.224-0.5-0.5S30.724,28,31,28h5.5c0.276,0,0.5,0.224,0.5,0.5S36.776,29,36.5,29z"
			/>
	</g>
	<g>
		<path class="st0" d="M36.5,32.5h-9c-0.276,0-0.5-0.224-0.5-0.5s0.224-0.5,0.5-0.5h9c0.276,0,0.5,0.224,0.5,0.5
			S36.776,32.5,36.5,32.5z"/>
	</g>
	<g>
		<path class="st0" d="M36.5,36h-9c-0.276,0-0.5-0.224-0.5-0.5s0.224-0.5,0.5-0.5h9c0.276,0,0.5,0.224,0.5,0.5S36.776,36,36.5,36z"
			/>
	</g>
</g>
</svg>
