<?xml version="1.0" encoding="utf-8"?>
<!-- Generator: Adobe Illustrator 21.1.0, SVG Export Plug-In . SVG Version: 6.00 Build 0)  -->
<svg version="1.1" id="Icon_Set" xmlns="http://www.w3.org/2000/svg" xmlns:xlink="http://www.w3.org/1999/xlink" x="0px" y="0px"
	 viewBox="0 0 64 64" style="enable-background:new 0 0 64 64;" xml:space="preserve">
<style type="text/css">
	.st0{fill:#263238;}
	.st1{fill:#FFFFFF;}
	.st2{fill:#FF5252;}
	.st3{fill:#FFD740;}
	.st4{fill:#40C4FF;}
	.st5{fill:#4DB6AC;}
	.st6{fill:#4FC3F7;}
</style>
<g id="Cloud_Mining">
	<g>
		<circle class="st3" cx="32" cy="47.75" r="10"/>
		<path class="st0" d="M32,58.25c-5.79,0-10.5-4.71-10.5-10.5s4.71-10.5,10.5-10.5s10.5,4.71,10.5,10.5S37.79,58.25,32,58.25z
			 M32,38.25c-5.238,0-9.5,4.262-9.5,9.5s4.262,9.5,9.5,9.5s9.5-4.262,9.5-9.5S37.238,38.25,32,38.25z"/>
	</g>
	<g>
		<path class="st0" d="M33,48.25h-3.5c-0.276,0-0.5-0.224-0.5-0.5v-4c0-0.276,0.224-0.5,0.5-0.5H33c1.379,0,2.5,1.122,2.5,2.5
			S34.379,48.25,33,48.25z M30,47.25h3c0.827,0,1.5-0.673,1.5-1.5s-0.673-1.5-1.5-1.5h-3V47.25z"/>
	</g>
	<g>
		<path class="st0" d="M34,52.25h-4.5c-0.276,0-0.5-0.224-0.5-0.5v-4c0-0.276,0.224-0.5,0.5-0.5H34c1.379,0,2.5,1.122,2.5,2.5
			S35.379,52.25,34,52.25z M30,51.25h4c0.827,0,1.5-0.673,1.5-1.5s-0.673-1.5-1.5-1.5h-4V51.25z"/>
	</g>
	<g>
		<path class="st0" d="M29.5,44.25H28c-0.276,0-0.5-0.224-0.5-0.5s0.224-0.5,0.5-0.5h1.5c0.276,0,0.5,0.224,0.5,0.5
			S29.776,44.25,29.5,44.25z"/>
	</g>
	<g>
		<path class="st0" d="M29.5,52.25H28c-0.276,0-0.5-0.224-0.5-0.5s0.224-0.5,0.5-0.5h1.5c0.276,0,0.5,0.224,0.5,0.5
			S29.776,52.25,29.5,52.25z"/>
	</g>
	<g>
		<path class="st0" d="M31,44.25c-0.276,0-0.5-0.224-0.5-0.5v-2c0-0.276,0.224-0.5,0.5-0.5s0.5,0.224,0.5,0.5v2
			C31.5,44.026,31.276,44.25,31,44.25z"/>
	</g>
	<g>
		<path class="st0" d="M33,44.25c-0.276,0-0.5-0.224-0.5-0.5v-2c0-0.276,0.224-0.5,0.5-0.5s0.5,0.224,0.5,0.5v2
			C33.5,44.026,33.276,44.25,33,44.25z"/>
	</g>
	<g>
		<path class="st0" d="M31,54.25c-0.276,0-0.5-0.224-0.5-0.5v-2c0-0.276,0.224-0.5,0.5-0.5s0.5,0.224,0.5,0.5v2
			C31.5,54.026,31.276,54.25,31,54.25z"/>
	</g>
	<g>
		<path class="st0" d="M33,54.25c-0.276,0-0.5-0.224-0.5-0.5v-2c0-0.276,0.224-0.5,0.5-0.5s0.5,0.224,0.5,0.5v2
			C33.5,54.026,33.276,54.25,33,54.25z"/>
	</g>
	<g>
		<path class="st0" d="M20,37.25h-2c-0.827,0-1.5-0.673-1.5-1.5v-23c0-0.827,0.673-1.5,1.5-1.5h2c0.827,0,1.5,0.673,1.5,1.5v23
			C21.5,36.577,20.827,37.25,20,37.25z M18,12.25c-0.275,0-0.5,0.224-0.5,0.5v23c0,0.276,0.225,0.5,0.5,0.5h2
			c0.275,0,0.5-0.224,0.5-0.5v-23c0-0.276-0.225-0.5-0.5-0.5H18z"/>
	</g>
	<g>
		<path class="st5" d="M22,20.75h-6c-0.552,0-1-0.448-1-1v-4c0-0.552,0.448-1,1-1h6c0.552,0,1,0.448,1,1v4
			C23,20.302,22.552,20.75,22,20.75z"/>
		<path class="st0" d="M22,21.25h-6c-0.827,0-1.5-0.673-1.5-1.5v-4c0-0.827,0.673-1.5,1.5-1.5h6c0.827,0,1.5,0.673,1.5,1.5v4
			C23.5,20.577,22.827,21.25,22,21.25z M16,15.25c-0.275,0-0.5,0.224-0.5,0.5v4c0,0.276,0.225,0.5,0.5,0.5h6
			c0.275,0,0.5-0.224,0.5-0.5v-4c0-0.276-0.225-0.5-0.5-0.5H16z"/>
	</g>
	<g>
		<path class="st0" d="M33,21.75c-0.053,0-0.106-0.008-0.158-0.026l-3.73-1.244c-0.459-0.153-0.938-0.23-1.423-0.23H25
			c-0.276,0-0.5-0.224-0.5-0.5s0.224-0.5,0.5-0.5h2.688c0.593,0,1.178,0.095,1.739,0.282l2.091,0.697l-1.905-2.328
			c-0.858-1.049-2.127-1.651-3.482-1.651H25c-0.276,0-0.5-0.224-0.5-0.5s0.224-0.5,0.5-0.5h1.131c1.656,0,3.208,0.735,4.256,2.018
			l3,3.666c0.142,0.172,0.151,0.417,0.025,0.6C33.316,21.672,33.161,21.75,33,21.75z"/>
	</g>
	<g>
		<path class="st0" d="M33,21.75c-0.053,0-0.106-0.008-0.158-0.026l-3.73-1.244c-0.459-0.153-0.938-0.23-1.423-0.23H25
			c-0.276,0-0.5-0.224-0.5-0.5s0.224-0.5,0.5-0.5h2.688c0.593,0,1.178,0.095,1.739,0.282l2.091,0.697l-1.905-2.328
			c-0.858-1.049-2.127-1.651-3.482-1.651H25c-0.276,0-0.5-0.224-0.5-0.5s0.224-0.5,0.5-0.5h1.131c1.656,0,3.208,0.735,4.256,2.018
			l3,3.666c0.142,0.172,0.151,0.417,0.025,0.6C33.316,21.672,33.161,21.75,33,21.75z"/>
	</g>
	<g>
		<path class="st0" d="M13,20.25H9.5c-0.827,0-1.5-0.673-1.5-1.5v-2c0-0.827,0.673-1.5,1.5-1.5H13c0.276,0,0.5,0.224,0.5,0.5
			s-0.224,0.5-0.5,0.5H9.5c-0.275,0-0.5,0.224-0.5,0.5v2c0,0.276,0.225,0.5,0.5,0.5H13c0.276,0,0.5,0.224,0.5,0.5
			S13.276,20.25,13,20.25z"/>
	</g>
	<g>
		<path class="st0" d="M48.5,48.25H44c-0.276,0-0.5-0.224-0.5-0.5s0.224-0.5,0.5-0.5h4.5c6.341,0,11.5-5.159,11.5-11.5
			s-5.159-11.5-11.5-11.5H47c-0.276,0-0.5-0.224-0.5-0.5c0-7.995-6.505-14.5-14.5-14.5c-3.218,0-6.274,1.046-8.839,3.024
			c-0.219,0.167-0.534,0.128-0.701-0.091c-0.169-0.218-0.129-0.532,0.09-0.701C25.292,9.368,28.56,8.25,32,8.25
			c8.379,0,15.227,6.684,15.492,15H48.5c6.893,0,12.5,5.607,12.5,12.5S55.393,48.25,48.5,48.25z"/>
	</g>
	<g>
		<path class="st0" d="M44,24.25c-0.276,0-0.5-0.224-0.5-0.5c0-6.341-5.159-11.5-11.5-11.5c-0.276,0-0.5-0.224-0.5-0.5
			s0.224-0.5,0.5-0.5c6.893,0,12.5,5.607,12.5,12.5C44.5,24.026,44.276,24.25,44,24.25z"/>
	</g>
	<g>
		<path class="st0" d="M20,48.25h-4.5C8.607,48.25,3,42.643,3,35.75c0-6.717,5.262-12.197,11.979-12.474
			c0.263-0.03,0.509,0.203,0.521,0.479c0.011,0.276-0.203,0.509-0.479,0.52C8.841,24.53,4,29.571,4,35.75
			c0,6.341,5.159,11.5,11.5,11.5H20c0.276,0,0.5,0.224,0.5,0.5S20.276,48.25,20,48.25z"/>
	</g>
	<g>
		<path class="st0" d="M52,8.75h-4c-0.276,0-0.5-0.224-0.5-0.5s0.224-0.5,0.5-0.5h4c0.276,0,0.5,0.224,0.5,0.5S52.276,8.75,52,8.75z
			"/>
	</g>
	<g>
		<path class="st0" d="M50,10.75c-0.276,0-0.5-0.224-0.5-0.5v-4c0-0.276,0.224-0.5,0.5-0.5s0.5,0.224,0.5,0.5v4
			C50.5,10.526,50.276,10.75,50,10.75z"/>
	</g>
	<g>
		<path class="st0" d="M59,15.25h-4c-0.276,0-0.5-0.224-0.5-0.5s0.224-0.5,0.5-0.5h4c0.276,0,0.5,0.224,0.5,0.5
			S59.276,15.25,59,15.25z"/>
	</g>
	<g>
		<path class="st0" d="M57,17.25c-0.276,0-0.5-0.224-0.5-0.5v-4c0-0.276,0.224-0.5,0.5-0.5s0.5,0.224,0.5,0.5v4
			C57.5,17.026,57.276,17.25,57,17.25z"/>
	</g>
	<g>
		<path class="st0" d="M3,55.75H2c-0.276,0-0.5-0.224-0.5-0.5s0.224-0.5,0.5-0.5h1c0.276,0,0.5,0.224,0.5,0.5S3.276,55.75,3,55.75z"
			/>
	</g>
	<g>
		<path class="st0" d="M20,55.75H5c-0.276,0-0.5-0.224-0.5-0.5s0.224-0.5,0.5-0.5h15c0.276,0,0.5,0.224,0.5,0.5
			S20.276,55.75,20,55.75z"/>
	</g>
	<g>
		<path class="st0" d="M62,55.75h-1c-0.276,0-0.5-0.224-0.5-0.5s0.224-0.5,0.5-0.5h1c0.276,0,0.5,0.224,0.5,0.5
			S62.276,55.75,62,55.75z"/>
	</g>
	<g>
		<path class="st0" d="M59,55.75H44c-0.276,0-0.5-0.224-0.5-0.5s0.224-0.5,0.5-0.5h15c0.276,0,0.5,0.224,0.5,0.5
			S59.276,55.75,59,55.75z"/>
	</g>
</g>
</svg>
