<?xml version="1.0" encoding="utf-8"?>
<!-- Generator: Adobe Illustrator 21.1.0, SVG Export Plug-In . SVG Version: 6.00 Build 0)  -->
<svg version="1.1" id="Icon_Set" xmlns="http://www.w3.org/2000/svg" xmlns:xlink="http://www.w3.org/1999/xlink" x="0px" y="0px"
	 viewBox="0 0 64 64" style="enable-background:new 0 0 64 64;" xml:space="preserve">
<style type="text/css">
	.st0{fill:#263238;}
	.st1{fill:#FFFFFF;}
	.st2{fill:#FF5252;}
	.st3{fill:#FFD740;}
	.st4{fill:#40C4FF;}
	.st5{fill:#4DB6AC;}
	.st6{fill:#4FC3F7;}
</style>
<g id="CPU_Mining">
	<g>
		<path class="st3" d="M46.5,49h-29c-1.381,0-2.5-1.119-2.5-2.5v-29c0-1.381,1.119-2.5,2.5-2.5h29c1.381,0,2.5,1.119,2.5,2.5v29
			C49,47.881,47.881,49,46.5,49z"/>
		<path class="st0" d="M46.5,49.5h-29c-1.654,0-3-1.346-3-3v-29c0-1.654,1.346-3,3-3h29c1.654,0,3,1.346,3,3v29
			C49.5,48.154,48.154,49.5,46.5,49.5z M17.5,15.5c-1.103,0-2,0.897-2,2v29c0,1.103,0.897,2,2,2h29c1.103,0,2-0.897,2-2v-29
			c0-1.103-0.897-2-2-2H17.5z"/>
	</g>
	<g>
		<path class="st3" d="M43.5,46h-23c-1.381,0-2.5-1.119-2.5-2.5v-23c0-1.381,1.119-2.5,2.5-2.5h23c1.381,0,2.5,1.119,2.5,2.5v23
			C46,44.881,44.881,46,43.5,46z"/>
		<path class="st0" d="M43.5,46.5h-23c-1.654,0-3-1.346-3-3v-23c0-1.654,1.346-3,3-3h23c1.654,0,3,1.346,3,3v23
			C46.5,45.154,45.154,46.5,43.5,46.5z M20.5,18.5c-1.103,0-2,0.897-2,2v23c0,1.103,0.897,2,2,2h23c1.103,0,2-0.897,2-2v-23
			c0-1.103-0.897-2-2-2H20.5z"/>
	</g>
	<g>
		<path class="st1" d="M37.755,31.469C38.223,30.759,38.5,29.912,38.5,29c0-2.481-2.019-4.5-4.5-4.5V22h-2v2.5h-2V22h-2v2.5h-3.5v3
			H26v9h-1.5v3H28V42h2v-2.5h2V42h2v-2.5h1c2.481,0,4.5-2.019,4.5-4.5C39.5,33.561,38.809,32.293,37.755,31.469z M29,27.5h5
			c0.827,0,1.5,0.673,1.5,1.5s-0.673,1.5-1.5,1.5h-5V27.5z M35,36.5h-6v-3h5h1c0.827,0,1.5,0.673,1.5,1.5S35.827,36.5,35,36.5z"/>
		<path class="st0" d="M34,42.5h-2c-0.276,0-0.5-0.224-0.5-0.5v-2h-1v2c0,0.276-0.224,0.5-0.5,0.5h-2c-0.276,0-0.5-0.224-0.5-0.5v-2
			h-3c-0.276,0-0.5-0.224-0.5-0.5v-3c0-0.276,0.224-0.5,0.5-0.5h1v-8h-1c-0.276,0-0.5-0.224-0.5-0.5v-3c0-0.276,0.224-0.5,0.5-0.5h3
			v-2c0-0.276,0.224-0.5,0.5-0.5h2c0.276,0,0.5,0.224,0.5,0.5v2h1v-2c0-0.276,0.224-0.5,0.5-0.5h2c0.276,0,0.5,0.224,0.5,0.5v2.024
			C37.023,24.276,39,26.412,39,29c0,0.827-0.206,1.636-0.599,2.362C39.422,32.312,40,33.614,40,35c0,2.757-2.243,5-5,5h-0.5v2
			C34.5,42.276,34.276,42.5,34,42.5z M32.5,41.5h1v-2c0-0.276,0.224-0.5,0.5-0.5h1c2.206,0,4-1.794,4-4
			c0-1.222-0.566-2.365-1.553-3.138c-0.205-0.16-0.253-0.451-0.109-0.669C37.771,30.537,38,29.778,38,29c0-2.206-1.794-4-4-4
			c-0.276,0-0.5-0.224-0.5-0.5v-2h-1v2c0,0.276-0.224,0.5-0.5,0.5h-2c-0.276,0-0.5-0.224-0.5-0.5v-2h-1v2c0,0.276-0.224,0.5-0.5,0.5
			h-3v2h1c0.276,0,0.5,0.224,0.5,0.5v9c0,0.276-0.224,0.5-0.5,0.5h-1v2h3c0.276,0,0.5,0.224,0.5,0.5v2h1v-2
			c0-0.276,0.224-0.5,0.5-0.5h2c0.276,0,0.5,0.224,0.5,0.5V41.5z M35,37h-6c-0.276,0-0.5-0.224-0.5-0.5v-3
			c0-0.276,0.224-0.5,0.5-0.5h6c1.103,0,2,0.897,2,2S36.103,37,35,37z M29.5,36H35c0.551,0,1-0.448,1-1s-0.449-1-1-1h-5.5V36z
			 M34,31h-5c-0.276,0-0.5-0.224-0.5-0.5v-3c0-0.276,0.224-0.5,0.5-0.5h5c1.103,0,2,0.897,2,2S35.103,31,34,31z M29.5,30H34
			c0.551,0,1-0.448,1-1s-0.449-1-1-1h-4.5V30z"/>
	</g>
	<g>
		<path class="st0" d="M32,15.5c-0.276,0-0.5-0.224-0.5-0.5V9c0-0.276,0.224-0.5,0.5-0.5s0.5,0.224,0.5,0.5v6
			C32.5,15.276,32.276,15.5,32,15.5z"/>
	</g>
	<g>
		<path class="st0" d="M32,9.5c-1.378,0-2.5-1.121-2.5-2.5s1.122-2.5,2.5-2.5s2.5,1.121,2.5,2.5S33.378,9.5,32,9.5z M32,5.5
			c-0.827,0-1.5,0.673-1.5,1.5s0.673,1.5,1.5,1.5s1.5-0.673,1.5-1.5S32.827,5.5,32,5.5z"/>
	</g>
	<g>
		<path class="st0" d="M21,7.5c-1.378,0-2.5-1.121-2.5-2.5s1.122-2.5,2.5-2.5s2.5,1.121,2.5,2.5S22.378,7.5,21,7.5z M21,3.5
			c-0.827,0-1.5,0.673-1.5,1.5s0.673,1.5,1.5,1.5s1.5-0.673,1.5-1.5S21.827,3.5,21,3.5z"/>
	</g>
	<g>
		<path class="st0" d="M26,15.5c-0.109,0-0.22-0.036-0.312-0.109l-5-4C20.569,11.296,20.5,11.152,20.5,11V7
			c0-0.276,0.224-0.5,0.5-0.5s0.5,0.224,0.5,0.5v3.76l4.812,3.85c0.215,0.173,0.25,0.487,0.078,0.703
			C26.292,15.436,26.146,15.5,26,15.5z"/>
	</g>
	<g>
		<path class="st0" d="M43,7.5c-1.378,0-2.5-1.121-2.5-2.5s1.122-2.5,2.5-2.5s2.5,1.121,2.5,2.5S44.378,7.5,43,7.5z M43,3.5
			c-0.827,0-1.5,0.673-1.5,1.5s0.673,1.5,1.5,1.5s1.5-0.673,1.5-1.5S43.827,3.5,43,3.5z"/>
	</g>
	<g>
		<path class="st0" d="M38,15.5c-0.147,0-0.292-0.064-0.391-0.188c-0.172-0.216-0.137-0.53,0.078-0.703l4.812-3.85V7
			c0-0.276,0.224-0.5,0.5-0.5s0.5,0.224,0.5,0.5v4c0,0.152-0.069,0.296-0.188,0.391l-5,4C38.22,15.464,38.11,15.5,38,15.5z"/>
	</g>
	<g>
		<path class="st0" d="M32,55.5c-0.276,0-0.5-0.224-0.5-0.5v-6c0-0.276,0.224-0.5,0.5-0.5s0.5,0.224,0.5,0.5v6
			C32.5,55.276,32.276,55.5,32,55.5z"/>
	</g>
	<g>
		<path class="st0" d="M32,59.5c-1.378,0-2.5-1.121-2.5-2.5s1.122-2.5,2.5-2.5s2.5,1.121,2.5,2.5S33.378,59.5,32,59.5z M32,55.5
			c-0.827,0-1.5,0.673-1.5,1.5s0.673,1.5,1.5,1.5s1.5-0.673,1.5-1.5S32.827,55.5,32,55.5z"/>
	</g>
	<g>
		<path class="st0" d="M43,61.5c-1.378,0-2.5-1.121-2.5-2.5s1.122-2.5,2.5-2.5s2.5,1.121,2.5,2.5S44.378,61.5,43,61.5z M43,57.5
			c-0.827,0-1.5,0.673-1.5,1.5s0.673,1.5,1.5,1.5s1.5-0.673,1.5-1.5S43.827,57.5,43,57.5z"/>
	</g>
	<g>
		<path class="st0" d="M43,57.5c-0.276,0-0.5-0.224-0.5-0.5v-3.76l-4.812-3.85c-0.215-0.173-0.25-0.487-0.078-0.703
			c0.173-0.214,0.487-0.25,0.703-0.078l5,4C43.431,52.704,43.5,52.848,43.5,53v4C43.5,57.276,43.276,57.5,43,57.5z"/>
	</g>
	<g>
		<path class="st0" d="M21,61.5c-1.378,0-2.5-1.121-2.5-2.5s1.122-2.5,2.5-2.5s2.5,1.121,2.5,2.5S22.378,61.5,21,61.5z M21,57.5
			c-0.827,0-1.5,0.673-1.5,1.5s0.673,1.5,1.5,1.5s1.5-0.673,1.5-1.5S21.827,57.5,21,57.5z"/>
	</g>
	<g>
		<path class="st0" d="M21,57.5c-0.276,0-0.5-0.224-0.5-0.5v-4c0-0.152,0.069-0.296,0.188-0.391l5-4
			c0.216-0.172,0.531-0.137,0.703,0.078c0.172,0.216,0.137,0.53-0.078,0.703L21.5,53.24V57C21.5,57.276,21.276,57.5,21,57.5z"/>
	</g>
	<g>
		<path class="st0" d="M55,32.5h-6c-0.276,0-0.5-0.224-0.5-0.5s0.224-0.5,0.5-0.5h6c0.276,0,0.5,0.224,0.5,0.5S55.276,32.5,55,32.5z
			"/>
	</g>
	<g>
		<path class="st0" d="M57,34.5c-1.378,0-2.5-1.121-2.5-2.5s1.122-2.5,2.5-2.5s2.5,1.121,2.5,2.5S58.378,34.5,57,34.5z M57,30.5
			c-0.827,0-1.5,0.673-1.5,1.5s0.673,1.5,1.5,1.5s1.5-0.673,1.5-1.5S57.827,30.5,57,30.5z"/>
	</g>
	<g>
		<path class="st0" d="M59,23.5c-1.378,0-2.5-1.121-2.5-2.5s1.122-2.5,2.5-2.5s2.5,1.121,2.5,2.5S60.378,23.5,59,23.5z M59,19.5
			c-0.827,0-1.5,0.673-1.5,1.5s0.673,1.5,1.5,1.5s1.5-0.673,1.5-1.5S59.827,19.5,59,19.5z"/>
	</g>
	<g>
		<path class="st0" d="M49,26.5c-0.109,0-0.22-0.036-0.312-0.109c-0.215-0.173-0.25-0.487-0.078-0.703l4-5
			C52.705,20.569,52.848,20.5,53,20.5h4c0.276,0,0.5,0.224,0.5,0.5s-0.224,0.5-0.5,0.5h-3.76l-3.85,4.812
			C49.292,26.436,49.146,26.5,49,26.5z"/>
	</g>
	<g>
		<path class="st0" d="M59,45.5c-1.378,0-2.5-1.121-2.5-2.5s1.122-2.5,2.5-2.5s2.5,1.121,2.5,2.5S60.378,45.5,59,45.5z M59,41.5
			c-0.827,0-1.5,0.673-1.5,1.5s0.673,1.5,1.5,1.5s1.5-0.673,1.5-1.5S59.827,41.5,59,41.5z"/>
	</g>
	<g>
		<path class="st0" d="M57,43.5h-4c-0.152,0-0.295-0.069-0.391-0.188l-4-5c-0.172-0.216-0.137-0.53,0.078-0.703
			c0.217-0.171,0.53-0.137,0.703,0.078l3.85,4.812H57c0.276,0,0.5,0.224,0.5,0.5S57.276,43.5,57,43.5z"/>
	</g>
	<g>
		<path class="st0" d="M15,32.5H9c-0.276,0-0.5-0.224-0.5-0.5s0.224-0.5,0.5-0.5h6c0.276,0,0.5,0.224,0.5,0.5S15.276,32.5,15,32.5z"
			/>
	</g>
	<g>
		<path class="st0" d="M7,34.5c-1.378,0-2.5-1.121-2.5-2.5s1.122-2.5,2.5-2.5s2.5,1.121,2.5,2.5S8.378,34.5,7,34.5z M7,30.5
			c-0.827,0-1.5,0.673-1.5,1.5s0.673,1.5,1.5,1.5s1.5-0.673,1.5-1.5S7.827,30.5,7,30.5z"/>
	</g>
	<g>
		<path class="st0" d="M5,45.5c-1.378,0-2.5-1.121-2.5-2.5s1.122-2.5,2.5-2.5s2.5,1.121,2.5,2.5S6.378,45.5,5,45.5z M5,41.5
			c-0.827,0-1.5,0.673-1.5,1.5s0.673,1.5,1.5,1.5s1.5-0.673,1.5-1.5S5.827,41.5,5,41.5z"/>
	</g>
	<g>
		<path class="st0" d="M11,43.5H7c-0.276,0-0.5-0.224-0.5-0.5s0.224-0.5,0.5-0.5h3.76l3.85-4.812
			c0.173-0.215,0.487-0.249,0.703-0.078c0.215,0.173,0.25,0.487,0.078,0.703l-4,5C11.295,43.431,11.152,43.5,11,43.5z"/>
	</g>
	<g>
		<path class="st0" d="M5,23.5c-1.378,0-2.5-1.121-2.5-2.5s1.122-2.5,2.5-2.5s2.5,1.121,2.5,2.5S6.378,23.5,5,23.5z M5,19.5
			c-0.827,0-1.5,0.673-1.5,1.5s0.673,1.5,1.5,1.5s1.5-0.673,1.5-1.5S5.827,19.5,5,19.5z"/>
	</g>
	<g>
		<path class="st0" d="M15,26.5c-0.147,0-0.292-0.064-0.391-0.188L10.76,21.5H7c-0.276,0-0.5-0.224-0.5-0.5s0.224-0.5,0.5-0.5h4
			c0.152,0,0.295,0.069,0.391,0.188l4,5c0.172,0.216,0.137,0.53-0.078,0.703C15.22,26.464,15.11,26.5,15,26.5z"/>
	</g>
</g>
</svg>
