<?xml version="1.0" encoding="utf-8"?>
<!-- Generator: Adobe Illustrator 21.1.0, SVG Export Plug-In . SVG Version: 6.00 Build 0)  -->
<svg version="1.1" id="Icon_Set" xmlns="http://www.w3.org/2000/svg" xmlns:xlink="http://www.w3.org/1999/xlink" x="0px" y="0px"
	 viewBox="0 0 64 64" style="enable-background:new 0 0 64 64;" xml:space="preserve">
<style type="text/css">
	.st0{fill:#263238;}
	.st1{fill:#FFFFFF;}
	.st2{fill:#FF5252;}
	.st3{fill:#FFD740;}
	.st4{fill:#40C4FF;}
	.st5{fill:#4DB6AC;}
	.st6{fill:#4FC3F7;}
</style>
<g id="Cryptographic_Signature">
	<g>
		<path class="st3" d="M32,18.5L32,18.5c-5.523,0-10,4.477-10,10v17h20v-17C42,22.977,37.523,18.5,32,18.5z"/>
	</g>
	<g>
		<path class="st0" d="M51.5,54.5h-39c-1.654,0-3-1.346-3-3v-39c0-1.654,1.346-3,3-3h39c1.654,0,3,1.346,3,3v39
			C54.5,53.154,53.154,54.5,51.5,54.5z M12.5,10.5c-1.103,0-2,0.897-2,2v39c0,1.103,0.897,2,2,2h39c1.103,0,2-0.897,2-2v-39
			c0-1.103-0.897-2-2-2H12.5z"/>
	</g>
	<g>
		<path class="st0" d="M14,59.5h-1c-0.276,0-0.5-0.224-0.5-0.5s0.224-0.5,0.5-0.5h1c0.276,0,0.5,0.224,0.5,0.5S14.276,59.5,14,59.5z
			"/>
	</g>
	<g>
		<path class="st0" d="M31,59.5H16c-0.276,0-0.5-0.224-0.5-0.5s0.224-0.5,0.5-0.5h15c0.276,0,0.5,0.224,0.5,0.5S31.276,59.5,31,59.5
			z"/>
	</g>
	<g>
		<path class="st0" d="M51,5.5h-1c-0.276,0-0.5-0.224-0.5-0.5s0.224-0.5,0.5-0.5h1c0.276,0,0.5,0.224,0.5,0.5S51.276,5.5,51,5.5z"/>
	</g>
	<g>
		<path class="st0" d="M48,5.5H33c-0.276,0-0.5-0.224-0.5-0.5s0.224-0.5,0.5-0.5h15c0.276,0,0.5,0.224,0.5,0.5S48.276,5.5,48,5.5z"
			/>
	</g>
	<g>
		<path class="st0" d="M42,46c-0.276,0-0.5-0.224-0.5-0.5v-17c0-5.238-4.262-9.5-9.5-9.5s-9.5,4.262-9.5,9.5v17
			c0,0.276-0.224,0.5-0.5,0.5s-0.5-0.224-0.5-0.5v-17C21.5,22.71,26.21,18,32,18s10.5,4.71,10.5,10.5v17
			C42.5,45.776,42.276,46,42,46z"/>
	</g>
	<g>
		<path class="st0" d="M26,46c-0.276,0-0.5-0.224-0.5-0.5V28.625c0-0.276,0.224-0.5,0.5-0.5s0.5,0.224,0.5,0.5V45.5
			C26.5,45.776,26.276,46,26,46z"/>
	</g>
	<g>
		<path class="st0" d="M34,46c-2.481,0-4.5-2.019-4.5-4.5v-11c0-1.378,1.122-2.5,2.5-2.5s2.5,1.122,2.5,2.5v11
			c0,0.276-0.224,0.5-0.5,0.5s-0.5-0.224-0.5-0.5v-11c0-0.827-0.673-1.5-1.5-1.5s-1.5,0.673-1.5,1.5v11c0,1.93,1.57,3.5,3.5,3.5
			s3.5-1.57,3.5-3.5v-13c0-3.033-2.467-5.5-5.5-5.5s-5.5,2.467-5.5,5.5v17c0,0.276-0.224,0.5-0.5,0.5s-0.5-0.224-0.5-0.5v-17
			c0-3.584,2.916-6.5,6.5-6.5s6.5,2.916,6.5,6.5v13C38.5,43.981,36.481,46,34,46z"/>
	</g>
	<g>
		<circle class="st5" cx="54" cy="54" r="7.5"/>
	</g>
	<g>
		<path class="st0" d="M52.586,56.829c-0.133,0-0.26-0.053-0.354-0.146l-2.829-2.829c-0.195-0.195-0.195-0.512,0-0.707
			s0.512-0.195,0.707,0l2.475,2.475l4.95-4.95c0.195-0.195,0.512-0.195,0.707,0s0.195,0.512,0,0.707l-5.303,5.304
			C52.846,56.776,52.719,56.829,52.586,56.829z"/>
	</g>
	<g>
		<path class="st0" d="M13,4.5H9C8.724,4.5,8.5,4.276,8.5,4S8.724,3.5,9,3.5h4c0.276,0,0.5,0.224,0.5,0.5S13.276,4.5,13,4.5z"/>
	</g>
	<g>
		<path class="st0" d="M11,6.5c-0.276,0-0.5-0.224-0.5-0.5V2c0-0.276,0.224-0.5,0.5-0.5s0.5,0.224,0.5,0.5v4
			C11.5,6.276,11.276,6.5,11,6.5z"/>
	</g>
	<g>
		<path class="st0" d="M6,11H2c-0.276,0-0.5-0.224-0.5-0.5S1.724,10,2,10h4c0.276,0,0.5,0.224,0.5,0.5S6.276,11,6,11z"/>
	</g>
	<g>
		<path class="st0" d="M4,13c-0.276,0-0.5-0.224-0.5-0.5v-4C3.5,8.224,3.724,8,4,8s0.5,0.224,0.5,0.5v4C4.5,12.776,4.276,13,4,13z"
			/>
	</g>
	<g>
		<path class="st0" d="M51,18.5c-0.276,0-0.5-0.224-0.5-0.5v-4c0-0.276-0.224-0.5-0.5-0.5h-4c-0.276,0-0.5-0.224-0.5-0.5
			s0.224-0.5,0.5-0.5h4c0.827,0,1.5,0.673,1.5,1.5v4C51.5,18.276,51.276,18.5,51,18.5z"/>
	</g>
</g>
</svg>
