<?xml version="1.0" encoding="utf-8"?>
<!-- Generator: Adobe Illustrator 21.1.0, SVG Export Plug-In . SVG Version: 6.00 Build 0)  -->
<svg version="1.1" id="Icon_Set" xmlns="http://www.w3.org/2000/svg" xmlns:xlink="http://www.w3.org/1999/xlink" x="0px" y="0px"
	 viewBox="0 0 64 64" style="enable-background:new 0 0 64 64;" xml:space="preserve">
<style type="text/css">
	.st0{fill:#263238;}
	.st1{fill:#FFFFFF;}
	.st2{fill:#FF5252;}
	.st3{fill:#FFD740;}
	.st4{fill:#40C4FF;}
	.st5{fill:#4DB6AC;}
	.st6{fill:#4FC3F7;}
</style>
<g id="Cryptocurrencies_Growing_Up">
	<g>
		<path class="st0" d="M57,50.5H7c-1.654,0-3-1.346-3-3V30.166c0-0.276,0.224-0.5,0.5-0.5S5,29.89,5,30.166V47.5
			c0,1.103,0.897,2,2,2h50c1.103,0,2-0.897,2-2V12c0-0.276,0.224-0.5,0.5-0.5S60,11.724,60,12v35.5C60,49.154,58.654,50.5,57,50.5z"
			/>
	</g>
	<g>
		<path class="st4" d="M62.5,7h-61c-0.552,0-1,0.448-1,1v1c0,0.552,0.448,1,1,1h61c0.552,0,1-0.448,1-1V8
			C63.5,7.448,63.052,7,62.5,7z"/>
		<path class="st0" d="M62.5,10.5h-61C0.673,10.5,0,9.827,0,9V8c0-0.827,0.673-1.5,1.5-1.5h61C63.327,6.5,64,7.173,64,8v1
			C64,9.827,63.327,10.5,62.5,10.5z M1.5,7.5C1.224,7.5,1,7.724,1,8v1c0,0.276,0.224,0.5,0.5,0.5h61C62.775,9.5,63,9.276,63,9V8
			c0-0.276-0.225-0.5-0.5-0.5H1.5z"/>
	</g>
	<g>
		<path class="st0" d="M35,62.5c-0.276,0-0.5-0.224-0.5-0.5V52c0-0.276,0.224-0.5,0.5-0.5s0.5,0.224,0.5,0.5v10
			C35.5,62.276,35.276,62.5,35,62.5z"/>
	</g>
	<g>
		<path class="st0" d="M29,62.5c-0.276,0-0.5-0.224-0.5-0.5V52c0-0.276,0.224-0.5,0.5-0.5s0.5,0.224,0.5,0.5v10
			C29.5,62.276,29.276,62.5,29,62.5z"/>
	</g>
	<g>
		<path class="st0" d="M55,62.5c-0.183,0-0.359-0.101-0.447-0.276l-5-10c-0.123-0.247-0.023-0.547,0.224-0.671
			c0.248-0.123,0.547-0.024,0.671,0.224l5,10c0.123,0.247,0.023,0.547-0.224,0.671C55.151,62.483,55.075,62.5,55,62.5z"/>
	</g>
	<g>
		<path class="st0" d="M49,62.5c-0.183,0-0.359-0.101-0.447-0.276l-5-10c-0.123-0.247-0.023-0.547,0.224-0.671
			c0.248-0.123,0.547-0.024,0.671,0.224l5,10c0.123,0.247,0.023,0.547-0.224,0.671C49.151,62.483,49.075,62.5,49,62.5z"/>
	</g>
	<g>
		<path class="st0" d="M15,62.5c-0.075,0-0.151-0.017-0.223-0.053c-0.247-0.124-0.347-0.424-0.224-0.671l5-10
			c0.124-0.247,0.424-0.346,0.671-0.224c0.247,0.124,0.347,0.424,0.224,0.671l-5,10C15.359,62.399,15.183,62.5,15,62.5z"/>
	</g>
	<g>
		<path class="st0" d="M9,62.5c-0.075,0-0.151-0.017-0.223-0.053c-0.247-0.124-0.347-0.424-0.224-0.671l5-10
			c0.124-0.247,0.425-0.346,0.671-0.224c0.247,0.124,0.347,0.424,0.224,0.671l-5,10C9.359,62.399,9.183,62.5,9,62.5z"/>
	</g>
	<g>
		<path class="st0" d="M50,42.5H16c-0.276,0-0.5-0.224-0.5-0.5V30c0-0.276,0.224-0.5,0.5-0.5s0.5,0.224,0.5,0.5v11.5H50
			c0.276,0,0.5,0.224,0.5,0.5S50.276,42.5,50,42.5z"/>
	</g>
	<g>
		<path class="st0" d="M20.5,35.5c-0.158,0-0.313-0.074-0.41-0.213c-0.158-0.226-0.104-0.538,0.123-0.696l10-7
			c0.197-0.139,0.468-0.116,0.64,0.056l4.653,4.653l12.146-11.661c0.2-0.189,0.516-0.186,0.707,0.015
			c0.191,0.199,0.186,0.516-0.014,0.707l-12.5,12c-0.198,0.188-0.508,0.186-0.7-0.007l-4.704-4.703l-9.656,6.759
			C20.7,35.471,20.6,35.5,20.5,35.5z"/>
	</g>
	<g>
		<path class="st0" d="M48,25.5c-0.276,0-0.5-0.224-0.5-0.5v-3.5H44c-0.276,0-0.5-0.224-0.5-0.5s0.224-0.5,0.5-0.5h4
			c0.276,0,0.5,0.224,0.5,0.5v4C48.5,25.276,48.276,25.5,48,25.5z"/>
	</g>
	<g>
		<circle class="st3" cx="8.5" cy="21" r="8"/>
		<path class="st0" d="M8.5,29.5C3.813,29.5,0,25.687,0,21s3.813-8.5,8.5-8.5S17,16.313,17,21S13.187,29.5,8.5,29.5z M8.5,13.5
			C4.364,13.5,1,16.864,1,21s3.364,7.5,7.5,7.5S16,25.136,16,21S12.636,13.5,8.5,13.5z"/>
	</g>
	<g>
		<path class="st0" d="M9.5,21.5H6.25c-0.276,0-0.5-0.224-0.5-0.5v-3.5c0-0.276,0.224-0.5,0.5-0.5H9.5c1.241,0,2.25,1.009,2.25,2.25
			S10.741,21.5,9.5,21.5z M6.75,20.5H9.5c0.689,0,1.25-0.561,1.25-1.25S10.189,18,9.5,18H6.75V20.5z"/>
	</g>
	<g>
		<path class="st0" d="M10,25H6.25c-0.276,0-0.5-0.224-0.5-0.5V21c0-0.276,0.224-0.5,0.5-0.5H10c1.241,0,2.25,1.009,2.25,2.25
			S11.241,25,10,25z M6.75,24H10c0.689,0,1.25-0.561,1.25-1.25S10.689,21.5,10,21.5H6.75V24z"/>
	</g>
	<g>
		<path class="st0" d="M6.25,18h-1c-0.276,0-0.5-0.224-0.5-0.5S4.974,17,5.25,17h1c0.276,0,0.5,0.224,0.5,0.5S6.526,18,6.25,18z"/>
	</g>
	<g>
		<path class="st0" d="M6.25,25h-1c-0.276,0-0.5-0.224-0.5-0.5S4.974,24,5.25,24h1c0.276,0,0.5,0.224,0.5,0.5S6.526,25,6.25,25z"/>
	</g>
	<g>
		<path class="st0" d="M7.25,17.5c-0.276,0-0.5-0.224-0.5-0.5v-1c0-0.276,0.224-0.5,0.5-0.5s0.5,0.224,0.5,0.5v1
			C7.75,17.276,7.526,17.5,7.25,17.5z"/>
	</g>
	<g>
		<path class="st0" d="M9.25,17.5c-0.276,0-0.5-0.224-0.5-0.5v-1c0-0.276,0.224-0.5,0.5-0.5s0.5,0.224,0.5,0.5v1
			C9.75,17.276,9.526,17.5,9.25,17.5z"/>
	</g>
	<g>
		<path class="st0" d="M7.25,26.5c-0.276,0-0.5-0.224-0.5-0.5v-1c0-0.276,0.224-0.5,0.5-0.5s0.5,0.224,0.5,0.5v1
			C7.75,26.276,7.526,26.5,7.25,26.5z"/>
	</g>
	<g>
		<path class="st0" d="M9.25,26.5c-0.276,0-0.5-0.224-0.5-0.5v-1c0-0.276,0.224-0.5,0.5-0.5s0.5,0.224,0.5,0.5v1
			C9.75,26.276,9.526,26.5,9.25,26.5z"/>
	</g>
	<g>
		<polygon class="st2" points="45,31 40,36 42.5,36 42.5,39.5 47.5,39.5 47.5,36 50,36 		"/>
		<path class="st0" d="M47.5,40h-5c-0.276,0-0.5-0.224-0.5-0.5v-3h-2c-0.202,0-0.385-0.122-0.462-0.309s-0.034-0.402,0.108-0.545
			l5-5c0.195-0.195,0.512-0.195,0.707,0l5,5c0.143,0.143,0.186,0.358,0.108,0.545S50.202,36.5,50,36.5h-2v3
			C48,39.776,47.776,40,47.5,40z M43,39h4v-3c0-0.276,0.224-0.5,0.5-0.5h1.293L45,31.707L41.207,35.5H42.5
			c0.276,0,0.5,0.224,0.5,0.5V39z"/>
	</g>
	<g>
		<path class="st0" d="M56.5,18.5c-0.276,0-0.5-0.224-0.5-0.5v-4.5h-4.5c-0.276,0-0.5-0.224-0.5-0.5s0.224-0.5,0.5-0.5h5
			c0.276,0,0.5,0.224,0.5,0.5v5C57,18.276,56.776,18.5,56.5,18.5z"/>
	</g>
	<g>
		<path class="st0" d="M43.5,2.5h-1C42.224,2.5,42,2.276,42,2s0.224-0.5,0.5-0.5h1C43.776,1.5,44,1.724,44,2S43.776,2.5,43.5,2.5z"
			/>
	</g>
	<g>
		<path class="st0" d="M40.5,2.5h-20C20.224,2.5,20,2.276,20,2s0.224-0.5,0.5-0.5h20C40.776,1.5,41,1.724,41,2S40.776,2.5,40.5,2.5z
			"/>
	</g>
</g>
</svg>
