<?xml version="1.0" encoding="utf-8"?>
<!-- Generator: Adobe Illustrator 21.1.0, SVG Export Plug-In . SVG Version: 6.00 Build 0)  -->
<svg version="1.1" id="Icon_Set" xmlns="http://www.w3.org/2000/svg" xmlns:xlink="http://www.w3.org/1999/xlink" x="0px" y="0px"
	 viewBox="0 0 64 64" style="enable-background:new 0 0 64 64;" xml:space="preserve">
<style type="text/css">
	.st0{fill:#263238;}
	.st1{fill:#FFFFFF;}
	.st2{fill:#FF5252;}
	.st3{fill:#FFD740;}
	.st4{fill:#40C4FF;}
	.st5{fill:#4DB6AC;}
	.st6{fill:#4FC3F7;}
</style>
<g id="Decentralized_1_">
	<g>
		<path class="st0" d="M44,41.157H20c-0.176,0-0.34-0.093-0.43-0.245c-0.09-0.152-0.093-0.34-0.009-0.495l12-22
			c0.175-0.321,0.703-0.321,0.878,0l12,22c0.084,0.155,0.081,0.343-0.009,0.495C44.34,41.063,44.176,41.157,44,41.157z
			 M20.842,40.157h22.315L32,19.701L20.842,40.157z"/>
	</g>
	<g>
		<circle class="st3" cx="44" cy="40.657" r="6"/>
		<path class="st0" d="M44,47.157c-3.584,0-6.5-2.916-6.5-6.5s2.916-6.5,6.5-6.5s6.5,2.916,6.5,6.5S47.584,47.157,44,47.157z
			 M44,35.157c-3.033,0-5.5,2.467-5.5,5.5s2.467,5.5,5.5,5.5s5.5-2.467,5.5-5.5S47.033,35.157,44,35.157z"/>
	</g>
	<g>
		<path class="st0" d="M44,60.157c-1.93,0-3.5-1.57-3.5-3.5s1.57-3.5,3.5-3.5s3.5,1.57,3.5,3.5S45.93,60.157,44,60.157z M44,54.157
			c-1.378,0-2.5,1.122-2.5,2.5s1.122,2.5,2.5,2.5s2.5-1.122,2.5-2.5S45.378,54.157,44,54.157z"/>
	</g>
	<g>
		<path class="st0" d="M60,44.157c-1.93,0-3.5-1.57-3.5-3.5s1.57-3.5,3.5-3.5s3.5,1.57,3.5,3.5S61.93,44.157,60,44.157z M60,38.157
			c-1.378,0-2.5,1.122-2.5,2.5s1.122,2.5,2.5,2.5s2.5-1.122,2.5-2.5S61.378,38.157,60,38.157z"/>
	</g>
	<g>
		<path class="st0" d="M44,54.157c-0.276,0-0.5-0.224-0.5-0.5v-7c0-0.276,0.224-0.5,0.5-0.5s0.5,0.224,0.5,0.5v7
			C44.5,53.933,44.276,54.157,44,54.157z"/>
	</g>
	<g>
		<path class="st0" d="M57,41.157h-7c-0.276,0-0.5-0.224-0.5-0.5s0.224-0.5,0.5-0.5h7c0.276,0,0.5,0.224,0.5,0.5
			S57.276,41.157,57,41.157z"/>
	</g>
	<g>
		<circle class="st3" cx="20" cy="40.657" r="6"/>
		<path class="st0" d="M20,47.157c-3.584,0-6.5-2.916-6.5-6.5s2.916-6.5,6.5-6.5s6.5,2.916,6.5,6.5S23.584,47.157,20,47.157z
			 M20,35.157c-3.033,0-5.5,2.467-5.5,5.5s2.467,5.5,5.5,5.5s5.5-2.467,5.5-5.5S23.033,35.157,20,35.157z"/>
	</g>
	<g>
		<path class="st0" d="M20,60.157c-1.93,0-3.5-1.57-3.5-3.5s1.57-3.5,3.5-3.5s3.5,1.57,3.5,3.5S21.93,60.157,20,60.157z M20,54.157
			c-1.378,0-2.5,1.122-2.5,2.5s1.122,2.5,2.5,2.5s2.5-1.122,2.5-2.5S21.378,54.157,20,54.157z"/>
	</g>
	<g>
		<path class="st0" d="M4,44.157c-1.93,0-3.5-1.57-3.5-3.5s1.57-3.5,3.5-3.5s3.5,1.57,3.5,3.5S5.93,44.157,4,44.157z M4,38.157
			c-1.378,0-2.5,1.122-2.5,2.5s1.122,2.5,2.5,2.5s2.5-1.122,2.5-2.5S5.378,38.157,4,38.157z"/>
	</g>
	<g>
		<path class="st0" d="M20,54.157c-0.276,0-0.5-0.224-0.5-0.5v-7c0-0.276,0.224-0.5,0.5-0.5s0.5,0.224,0.5,0.5v7
			C20.5,53.933,20.276,54.157,20,54.157z"/>
	</g>
	<g>
		<path class="st0" d="M14,41.157H7c-0.276,0-0.5-0.224-0.5-0.5s0.224-0.5,0.5-0.5h7c0.276,0,0.5,0.224,0.5,0.5
			S14.276,41.157,14,41.157z"/>
	</g>
	<g>
		<ellipse transform="matrix(0.7071 -0.7071 0.7071 0.7071 -3.8198 28.0919)" class="st3" cx="32" cy="18.657" rx="6" ry="6"/>
		<path class="st0" d="M32,25.154c-1.665,0-3.329-0.634-4.596-1.901c-2.534-2.534-2.534-6.658,0-9.192s6.658-2.534,9.192,0
			s2.534,6.658,0,9.192C35.329,24.52,33.665,25.154,32,25.154z M32,13.16c-1.409,0-2.817,0.536-3.889,1.608
			c-1.039,1.039-1.611,2.42-1.611,3.889s0.572,2.85,1.611,3.889s2.42,1.611,3.889,1.611s2.85-0.572,3.889-1.611
			s1.611-2.42,1.611-3.889s-0.572-2.85-1.611-3.889C34.817,13.696,33.408,13.16,32,13.16z"/>
	</g>
	<g>
		<path class="st0" d="M20.687,10.843c-0.935,0-1.814-0.364-2.475-1.025l0,0c-1.364-1.364-1.364-3.585,0-4.95
			c1.364-1.364,3.585-1.365,4.95,0c1.364,1.365,1.364,3.585,0,4.95C22.5,10.479,21.621,10.843,20.687,10.843z M20.687,4.844
			c-0.641,0-1.281,0.244-1.768,0.731c-0.975,0.975-0.975,2.561,0,3.536l0,0c0.944,0.944,2.591,0.945,3.536,0
			c0.975-0.975,0.975-2.561,0-3.536C21.967,5.088,21.327,4.844,20.687,4.844z"/>
	</g>
	<g>
		<path class="st0" d="M43.313,10.843c-0.935,0-1.813-0.364-2.475-1.025l0,0c-1.364-1.364-1.364-3.585,0-4.95
			c1.364-1.364,3.585-1.365,4.95,0s1.364,3.585,0,4.95C45.128,10.479,44.249,10.843,43.313,10.843z M43.314,4.844
			c-0.641,0-1.281,0.244-1.768,0.731c-0.975,0.975-0.975,2.561,0,3.536l0,0c0.944,0.945,2.591,0.944,3.536,0
			c0.975-0.975,0.975-2.561,0-3.536C44.594,5.088,43.954,4.844,43.314,4.844z"/>
	</g>
	<g>
		<path class="st0" d="M27.757,14.914c-0.128,0-0.256-0.049-0.354-0.146l-4.95-4.95c-0.195-0.195-0.195-0.512,0-0.707
			s0.512-0.195,0.707,0l4.95,4.95c0.195,0.195,0.195,0.512,0,0.707C28.013,14.865,27.885,14.914,27.757,14.914z"/>
	</g>
	<g>
		<path class="st0" d="M36.243,14.914c-0.128,0-0.256-0.049-0.354-0.146c-0.195-0.195-0.195-0.512,0-0.707l4.95-4.95
			c0.195-0.195,0.512-0.195,0.707,0s0.195,0.512,0,0.707l-4.95,4.95C36.499,14.865,36.371,14.914,36.243,14.914z"/>
	</g>
	<g>
		<path class="st0" d="M52,27c-0.276,0-0.5-0.224-0.5-0.5v-4c0-0.276,0.224-0.5,0.5-0.5s0.5,0.224,0.5,0.5v4
			C52.5,26.776,52.276,27,52,27z"/>
	</g>
	<g>
		<path class="st0" d="M54,25h-4c-0.276,0-0.5-0.224-0.5-0.5S49.724,24,50,24h4c0.276,0,0.5,0.224,0.5,0.5S54.276,25,54,25z"/>
	</g>
	<g>
		<path class="st0" d="M32,54.5c-0.276,0-0.5-0.224-0.5-0.5v-4c0-0.276,0.224-0.5,0.5-0.5s0.5,0.224,0.5,0.5v4
			C32.5,54.276,32.276,54.5,32,54.5z"/>
	</g>
	<g>
		<path class="st0" d="M34,52.5h-4c-0.276,0-0.5-0.224-0.5-0.5s0.224-0.5,0.5-0.5h4c0.276,0,0.5,0.224,0.5,0.5S34.276,52.5,34,52.5z
			"/>
	</g>
	<g>
		<path class="st0" d="M12,27c-0.276,0-0.5-0.224-0.5-0.5v-4c0-0.276,0.224-0.5,0.5-0.5s0.5,0.224,0.5,0.5v4
			C12.5,26.776,12.276,27,12,27z"/>
	</g>
	<g>
		<path class="st0" d="M14,25h-4c-0.276,0-0.5-0.224-0.5-0.5S9.724,24,10,24h4c0.276,0,0.5,0.224,0.5,0.5S14.276,25,14,25z"/>
	</g>
</g>
</svg>
