<?xml version="1.0" encoding="utf-8"?>
<!-- Generator: Adobe Illustrator 21.1.0, SVG Export Plug-In . SVG Version: 6.00 Build 0)  -->
<svg version="1.1" id="Icon_Set" xmlns="http://www.w3.org/2000/svg" xmlns:xlink="http://www.w3.org/1999/xlink" x="0px" y="0px"
	 viewBox="0 0 64 64" style="enable-background:new 0 0 64 64;" xml:space="preserve">
<style type="text/css">
	.st0{fill:#263238;}
	.st1{fill:#FFFFFF;}
	.st2{fill:#FF5252;}
	.st3{fill:#FFD740;}
	.st4{fill:#40C4FF;}
	.st5{fill:#4DB6AC;}
	.st6{fill:#4FC3F7;}
</style>
<g id="Decentralized">
	<g>
		<ellipse transform="matrix(0.7071 -0.7071 0.7071 0.7071 -13.2548 32)" class="st4" cx="32" cy="32" rx="9" ry="9"/>
		<path class="st0" d="M32,41.5c-2.538,0-4.924-0.988-6.718-2.783c-3.704-3.704-3.704-9.73,0-13.435
			C27.076,23.488,29.462,22.5,32,22.5s4.924,0.988,6.718,2.783c3.704,3.704,3.704,9.73,0,13.435C36.924,40.512,34.538,41.5,32,41.5z
			 M32,23.5c-2.271,0-4.405,0.884-6.011,2.49c-3.314,3.314-3.314,8.707,0,12.021c1.605,1.605,3.74,2.49,6.011,2.49
			s4.405-0.884,6.011-2.49c3.314-3.314,3.314-8.707,0-12.021l0,0C36.405,24.384,34.271,23.5,32,23.5z"/>
	</g>
	<g>
		<ellipse transform="matrix(0.7071 -0.7071 0.7071 0.7071 -5.6396 13.6152)" class="st3" cx="13.615" cy="13.615" rx="4" ry="4"/>
		<path class="st0" d="M13.615,18.115c-1.202,0-2.332-0.468-3.182-1.318c-1.755-1.754-1.755-4.61,0-6.364
			c0.85-0.85,1.979-1.318,3.182-1.318s2.332,0.468,3.182,1.318l0,0c1.755,1.754,1.755,4.61,0,6.364
			C15.947,17.647,14.817,18.115,13.615,18.115z M13.615,10.115c-0.935,0-1.813,0.364-2.475,1.025c-1.364,1.365-1.364,3.585,0,4.95
			c1.322,1.322,3.627,1.322,4.949,0c1.364-1.365,1.364-3.585,0-4.95l0,0C15.429,10.479,14.55,10.115,13.615,10.115z"/>
	</g>
	<g>
		<ellipse transform="matrix(0.7071 -0.7071 0.7071 0.7071 -20.8701 50.3848)" class="st3" cx="50.385" cy="50.385" rx="4" ry="4"/>
		<path class="st0" d="M50.385,54.885c-1.202,0-2.332-0.468-3.182-1.318c-1.755-1.754-1.755-4.61,0-6.364
			c0.85-0.85,1.979-1.318,3.182-1.318s2.332,0.468,3.182,1.318l0,0c1.755,1.754,1.755,4.61,0,6.364
			C52.717,54.417,51.587,54.885,50.385,54.885z M50.385,46.885c-0.935,0-1.813,0.364-2.475,1.025c-1.364,1.365-1.364,3.585,0,4.95
			c1.322,1.322,3.627,1.322,4.949,0c1.364-1.365,1.364-3.585,0-4.95l0,0C52.198,47.249,51.319,46.885,50.385,46.885z"/>
	</g>
	<g>
		<path class="st0" d="M22.454,22.954c-0.128,0-0.256-0.049-0.354-0.146l-3.889-3.889c-0.195-0.195-0.195-0.512,0-0.707
			s0.512-0.195,0.707,0l3.889,3.889c0.195,0.195,0.195,0.512,0,0.707C22.71,22.905,22.582,22.954,22.454,22.954z"/>
	</g>
	<g>
		<path class="st0" d="M22.454,22.954h-2.829c-0.276,0-0.5-0.224-0.5-0.5s0.224-0.5,0.5-0.5h2.329v-2.328c0-0.276,0.224-0.5,0.5-0.5
			s0.5,0.224,0.5,0.5v2.828C22.954,22.73,22.73,22.954,22.454,22.954z"/>
	</g>
	<g>
		<path class="st0" d="M45.435,45.935c-0.128,0-0.256-0.049-0.354-0.146l-3.889-3.889c-0.195-0.195-0.195-0.512,0-0.707
			s0.512-0.195,0.707,0l3.889,3.889c0.195,0.195,0.195,0.512,0,0.707C45.69,45.886,45.562,45.935,45.435,45.935z"/>
	</g>
	<g>
		<path class="st0" d="M41.546,44.874c-0.276,0-0.5-0.224-0.5-0.5v-2.828c0-0.276,0.224-0.5,0.5-0.5h2.829
			c0.276,0,0.5,0.224,0.5,0.5s-0.224,0.5-0.5,0.5h-2.329v2.328C42.046,44.65,41.822,44.874,41.546,44.874z"/>
	</g>
	<g>
		<ellipse transform="matrix(0.7071 -0.7071 0.7071 0.7071 5.1299 39.6152)" class="st3" cx="50.385" cy="13.615" rx="4" ry="4"/>
		<path class="st0" d="M50.385,18.115c-1.202,0-2.332-0.468-3.182-1.318c-1.755-1.754-1.755-4.61,0-6.364
			c0.85-0.85,1.979-1.318,3.182-1.318s2.332,0.468,3.182,1.318c1.755,1.754,1.755,4.61,0,6.364
			C52.717,17.647,51.587,18.115,50.385,18.115z M50.385,10.115c-0.935,0-1.813,0.364-2.475,1.025c-1.364,1.365-1.364,3.585,0,4.95
			c1.322,1.322,3.627,1.322,4.949,0l0,0c1.364-1.365,1.364-3.585,0-4.95C52.198,10.479,51.319,10.115,50.385,10.115z"/>
	</g>
	<g>
		<ellipse transform="matrix(0.7071 -0.7071 0.7071 0.7071 -31.6396 24.3848)" class="st3" cx="13.615" cy="50.385" rx="4" ry="4"/>
		<path class="st0" d="M13.615,54.885c-1.202,0-2.332-0.468-3.182-1.318c-1.755-1.754-1.755-4.61,0-6.364
			c0.85-0.85,1.979-1.318,3.182-1.318s2.332,0.468,3.182,1.318c1.755,1.754,1.755,4.61,0,6.364
			C15.947,54.417,14.817,54.885,13.615,54.885z M13.615,46.885c-0.935,0-1.813,0.364-2.475,1.025c-1.364,1.365-1.364,3.585,0,4.95
			c1.322,1.322,3.627,1.322,4.949,0l0,0c1.364-1.365,1.364-3.585,0-4.95C15.429,47.249,14.55,46.885,13.615,46.885z"/>
	</g>
	<g>
		<path class="st0" d="M41.546,22.954c-0.128,0-0.256-0.049-0.354-0.146c-0.195-0.195-0.195-0.512,0-0.707l3.889-3.889
			c0.195-0.195,0.512-0.195,0.707,0s0.195,0.512,0,0.707l-3.889,3.889C41.802,22.905,41.674,22.954,41.546,22.954z"/>
	</g>
	<g>
		<path class="st0" d="M44.374,22.954h-2.828c-0.276,0-0.5-0.224-0.5-0.5v-2.829c0-0.276,0.224-0.5,0.5-0.5s0.5,0.224,0.5,0.5v2.329
			h2.328c0.276,0,0.5,0.224,0.5,0.5S44.65,22.954,44.374,22.954z"/>
	</g>
	<g>
		<path class="st0" d="M18.565,45.935c-0.128,0-0.256-0.049-0.354-0.146c-0.195-0.195-0.195-0.512,0-0.707l3.889-3.889
			c0.195-0.195,0.512-0.195,0.707,0s0.195,0.512,0,0.707l-3.889,3.889C18.821,45.886,18.693,45.935,18.565,45.935z"/>
	</g>
	<g>
		<path class="st0" d="M22.454,44.875c-0.276,0-0.5-0.224-0.5-0.5v-2.329h-2.328c-0.276,0-0.5-0.224-0.5-0.5s0.224-0.5,0.5-0.5
			h2.828c0.276,0,0.5,0.224,0.5,0.5v2.829C22.954,44.651,22.73,44.875,22.454,44.875z"/>
	</g>
	<g>
		<circle class="st3" cx="32" cy="6" r="4"/>
		<path class="st0" d="M32,10.5c-2.481,0-4.5-2.019-4.5-4.5s2.019-4.5,4.5-4.5s4.5,2.019,4.5,4.5S34.481,10.5,32,10.5z M32,2.5
			c-1.93,0-3.5,1.57-3.5,3.5s1.57,3.5,3.5,3.5s3.5-1.57,3.5-3.5S33.93,2.5,32,2.5z"/>
	</g>
	<g>
		<circle class="st3" cx="32" cy="58" r="4"/>
		<path class="st0" d="M32,62.5c-2.481,0-4.5-2.019-4.5-4.5s2.019-4.5,4.5-4.5s4.5,2.019,4.5,4.5S34.481,62.5,32,62.5z M32,54.5
			c-1.93,0-3.5,1.57-3.5,3.5s1.57,3.5,3.5,3.5s3.5-1.57,3.5-3.5S33.93,54.5,32,54.5z"/>
	</g>
	<g>
		<path class="st0" d="M32,19c-0.276,0-0.5-0.224-0.5-0.5V13c0-0.276,0.224-0.5,0.5-0.5s0.5,0.224,0.5,0.5v5.5
			C32.5,18.776,32.276,19,32,19z"/>
	</g>
	<g>
		<path class="st0" d="M32,19c-0.128,0-0.256-0.049-0.354-0.146l-2-2c-0.195-0.195-0.195-0.512,0-0.707s0.512-0.195,0.707,0
			L32,17.793l1.646-1.646c0.195-0.195,0.512-0.195,0.707,0s0.195,0.512,0,0.707l-2,2C32.256,18.951,32.128,19,32,19z"/>
	</g>
	<g>
		<path class="st0" d="M32,51.5c-0.276,0-0.5-0.224-0.5-0.5v-5.5c0-0.276,0.224-0.5,0.5-0.5s0.5,0.224,0.5,0.5V51
			C32.5,51.276,32.276,51.5,32,51.5z"/>
	</g>
	<g>
		<path class="st0" d="M34,48c-0.128,0-0.256-0.049-0.354-0.146L32,46.207l-1.646,1.646c-0.195,0.195-0.512,0.195-0.707,0
			s-0.195-0.512,0-0.707l2-2c0.195-0.195,0.512-0.195,0.707,0l2,2c0.195,0.195,0.195,0.512,0,0.707C34.256,47.951,34.128,48,34,48z"
			/>
	</g>
	<g>
		<circle class="st3" cx="58" cy="32" r="4"/>
		<path class="st0" d="M58,36.5c-2.481,0-4.5-2.019-4.5-4.5s2.019-4.5,4.5-4.5s4.5,2.019,4.5,4.5S60.481,36.5,58,36.5z M58,28.5
			c-1.93,0-3.5,1.57-3.5,3.5s1.57,3.5,3.5,3.5s3.5-1.57,3.5-3.5S59.93,28.5,58,28.5z"/>
	</g>
	<g>
		<circle class="st3" cx="6" cy="32" r="4"/>
		<path class="st0" d="M6,36.5c-2.481,0-4.5-2.019-4.5-4.5s2.019-4.5,4.5-4.5s4.5,2.019,4.5,4.5S8.481,36.5,6,36.5z M6,28.5
			c-1.93,0-3.5,1.57-3.5,3.5s1.57,3.5,3.5,3.5s3.5-1.57,3.5-3.5S7.93,28.5,6,28.5z"/>
	</g>
	<g>
		<path class="st0" d="M6.956,25.523c-0.044,0-0.089-0.006-0.134-0.018c-0.266-0.074-0.422-0.35-0.348-0.616
			c0.571-2.059,1.395-4.048,2.446-5.912c0.137-0.242,0.441-0.325,0.682-0.189c0.24,0.136,0.325,0.441,0.189,0.682
			c-1.013,1.792-1.805,3.706-2.354,5.687C7.376,25.378,7.176,25.523,6.956,25.523z"/>
	</g>
	<g>
		<path class="st0" d="M19.224,9.857c-0.174,0-0.344-0.091-0.436-0.254c-0.136-0.241-0.051-0.545,0.189-0.682
			c1.863-1.052,3.852-1.875,5.912-2.447c0.271-0.072,0.542,0.083,0.615,0.348c0.074,0.266-0.082,0.542-0.348,0.616
			c-1.982,0.55-3.896,1.342-5.688,2.354C19.392,9.836,19.308,9.857,19.224,9.857z"/>
	</g>
	<g>
		<path class="st0" d="M44.776,9.857c-0.084,0-0.168-0.021-0.246-0.064c-1.791-1.012-3.704-1.804-5.687-2.354
			c-0.266-0.074-0.422-0.35-0.348-0.616c0.074-0.265,0.346-0.421,0.615-0.348c2.061,0.572,4.05,1.396,5.911,2.447
			c0.24,0.136,0.325,0.441,0.189,0.682C45.12,9.766,44.95,9.857,44.776,9.857z"/>
	</g>
	<g>
		<path class="st0" d="M57.044,25.522c-0.22,0-0.42-0.145-0.481-0.366c-0.55-1.981-1.342-3.894-2.354-5.686
			c-0.136-0.241-0.051-0.545,0.189-0.682c0.239-0.134,0.545-0.052,0.682,0.189c1.052,1.863,1.875,3.852,2.446,5.911
			c0.074,0.266-0.082,0.542-0.348,0.616C57.133,25.516,57.088,25.522,57.044,25.522z"/>
	</g>
	<g>
		<path class="st0" d="M54.644,45.276c-0.084,0-0.168-0.021-0.246-0.064c-0.24-0.136-0.325-0.441-0.189-0.682
			c1.013-1.792,1.805-3.706,2.354-5.687c0.073-0.266,0.347-0.42,0.615-0.348c0.266,0.074,0.422,0.35,0.348,0.616
			c-0.571,2.059-1.395,4.048-2.446,5.912C54.987,45.185,54.817,45.276,54.644,45.276z"/>
	</g>
	<g>
		<path class="st0" d="M38.978,57.544c-0.22,0-0.42-0.145-0.481-0.366c-0.074-0.266,0.082-0.542,0.348-0.616
			c1.983-0.551,3.896-1.343,5.687-2.354c0.239-0.134,0.545-0.052,0.682,0.189c0.136,0.241,0.051,0.545-0.189,0.682
			c-1.86,1.051-3.85,1.875-5.911,2.447C39.066,57.538,39.021,57.544,38.978,57.544z"/>
	</g>
	<g>
		<path class="st0" d="M25.022,57.544c-0.044,0-0.089-0.006-0.134-0.018c-2.061-0.572-4.05-1.396-5.911-2.447
			c-0.24-0.136-0.325-0.441-0.189-0.682c0.136-0.242,0.441-0.324,0.682-0.189c1.791,1.012,3.704,1.804,5.687,2.354
			c0.266,0.074,0.422,0.35,0.348,0.616C25.442,57.399,25.242,57.544,25.022,57.544z"/>
	</g>
	<g>
		<path class="st0" d="M9.356,45.276c-0.174,0-0.344-0.091-0.436-0.254c-1.052-1.864-1.875-3.853-2.446-5.911
			C6.4,38.845,6.557,38.57,6.822,38.496c0.271-0.072,0.541,0.083,0.615,0.348c0.55,1.981,1.342,3.894,2.354,5.687
			c0.136,0.241,0.051,0.546-0.189,0.682C9.524,45.255,9.44,45.276,9.356,45.276z"/>
	</g>
	<g>
		<path class="st0" d="M51,32.5h-5.5c-0.276,0-0.5-0.224-0.5-0.5s0.224-0.5,0.5-0.5H51c0.276,0,0.5,0.224,0.5,0.5
			S51.276,32.5,51,32.5z"/>
	</g>
	<g>
		<path class="st0" d="M47.5,34.5c-0.128,0-0.256-0.049-0.354-0.146l-2-2c-0.195-0.195-0.195-0.512,0-0.707l2-2
			c0.195-0.195,0.512-0.195,0.707,0s0.195,0.512,0,0.707L46.207,32l1.646,1.646c0.195,0.195,0.195,0.512,0,0.707
			C47.756,34.451,47.628,34.5,47.5,34.5z"/>
	</g>
	<g>
		<path class="st0" d="M18.5,32.5H13c-0.276,0-0.5-0.224-0.5-0.5s0.224-0.5,0.5-0.5h5.5c0.276,0,0.5,0.224,0.5,0.5
			S18.776,32.5,18.5,32.5z"/>
	</g>
	<g>
		<path class="st0" d="M16.5,34.5c-0.128,0-0.256-0.049-0.354-0.146c-0.195-0.195-0.195-0.512,0-0.707L17.793,32l-1.646-1.646
			c-0.195-0.195-0.195-0.512,0-0.707s0.512-0.195,0.707,0l2,2c0.195,0.195,0.195,0.512,0,0.707l-2,2
			C16.756,34.451,16.628,34.5,16.5,34.5z"/>
	</g>
</g>
</svg>
