<?xml version="1.0" encoding="utf-8"?>
<!-- Generator: Adobe Illustrator 21.1.0, SVG Export Plug-In . SVG Version: 6.00 Build 0)  -->
<svg version="1.1" id="Icon_Set" xmlns="http://www.w3.org/2000/svg" xmlns:xlink="http://www.w3.org/1999/xlink" x="0px" y="0px"
	 viewBox="0 0 64 64" style="enable-background:new 0 0 64 64;" xml:space="preserve">
<style type="text/css">
	.st0{fill:#263238;}
	.st1{fill:#FF5252;}
	.st2{fill:#FFD740;}
	.st3{fill:#40C4FF;}
	.st4{fill:#FFFFFF;}
	.st5{fill:#4DB6AC;}
	.st6{fill:#4FC3F7;}
</style>
<g id="Digital_Key">
	<g>
		<path class="st0" d="M27,18c-0.276,0-0.5-0.224-0.5-0.5v-4c0-0.276,0.224-0.5,0.5-0.5s0.5,0.224,0.5,0.5v4
			C27.5,17.776,27.276,18,27,18z"/>
	</g>
	<g>
		<path class="st0" d="M29,16h-4c-0.276,0-0.5-0.224-0.5-0.5S24.724,15,25,15h4c0.276,0,0.5,0.224,0.5,0.5S29.276,16,29,16z"/>
	</g>
	<g>
		<path class="st0" d="M35,12c-0.276,0-0.5-0.224-0.5-0.5v-4C34.5,7.224,34.724,7,35,7s0.5,0.224,0.5,0.5v4
			C35.5,11.776,35.276,12,35,12z"/>
	</g>
	<g>
		<path class="st0" d="M37,10h-4c-0.276,0-0.5-0.224-0.5-0.5S32.724,9,33,9h4c0.276,0,0.5,0.224,0.5,0.5S37.276,10,37,10z"/>
	</g>
	<g>
		<path class="st0" d="M54,57h-2c-0.276,0-0.5-0.224-0.5-0.5S51.724,56,52,56h2c0.276,0,0.5,0.224,0.5,0.5S54.276,57,54,57z"/>
	</g>
	<g>
		<path class="st0" d="M50,57H30c-0.276,0-0.5-0.224-0.5-0.5S29.724,56,30,56h20c0.276,0,0.5,0.224,0.5,0.5S50.276,57,50,57z"/>
	</g>
	<g>
		<path class="st0" d="M27,54h-2c-0.276,0-0.5-0.224-0.5-0.5S24.724,53,25,53h2c0.276,0,0.5,0.224,0.5,0.5S27.276,54,27,54z"/>
	</g>
	<g>
		<path class="st0" d="M49,54H29c-0.276,0-0.5-0.224-0.5-0.5S28.724,53,29,53h20c0.276,0,0.5,0.224,0.5,0.5S49.276,54,49,54z"/>
	</g>
	<g>
		<path class="st0" d="M17.833,46H5.5C2.467,46,0,43.533,0,40.5v-17C0,20.467,2.467,18,5.5,18h12.333c1.183,0,2.354,0.391,3.3,1.1
			l6.667,4.999c0.126,0.094,0.2,0.243,0.2,0.4v15c0,0.157-0.074,0.306-0.2,0.4l-6.667,5C20.187,45.609,19.015,46,17.833,46z M5.5,19
			C3.019,19,1,21.019,1,23.5v17C1,42.981,3.019,45,5.5,45h12.333c0.967,0,1.926-0.32,2.7-0.9L27,39.25v-14.5L20.533,19.9
			c-0.773-0.58-1.732-0.9-2.7-0.9H5.5z"/>
	</g>
	<g>
		<path class="st2" d="M29.5,24.5h33c0.552,0,1,0.448,1,1V33c0,0.552-0.448,1-1,1H59l-6.728,5.286
			c-0.176,0.138-0.394,0.214-0.618,0.214H29.5"/>
		<path class="st0" d="M51.654,40H29.5c-0.276,0-0.5-0.224-0.5-0.5s0.224-0.5,0.5-0.5h22.154c0.111,0,0.221-0.038,0.309-0.107
			l6.728-5.286C58.779,33.538,58.888,33.5,59,33.5h3.5c0.276,0,0.5-0.224,0.5-0.5v-7.5c0-0.276-0.224-0.5-0.5-0.5h-33
			c-0.276,0-0.5-0.224-0.5-0.5s0.224-0.5,0.5-0.5h33c0.827,0,1.5,0.673,1.5,1.5V33c0,0.827-0.673,1.5-1.5,1.5h-3.327l-6.592,5.179
			C52.318,39.886,51.989,40,51.654,40z"/>
	</g>
	<g>
		<line class="st4" x1="29.5" y1="34" x2="59" y2="34"/>
		<path class="st0" d="M59,34.5H29.5c-0.276,0-0.5-0.224-0.5-0.5s0.224-0.5,0.5-0.5H59c0.276,0,0.5,0.224,0.5,0.5
			S59.276,34.5,59,34.5z"/>
	</g>
	<g>
		<path class="st0" d="M63.5,30.5h-34c-0.276,0-0.5-0.224-0.5-0.5s0.224-0.5,0.5-0.5h34c0.276,0,0.5,0.224,0.5,0.5
			S63.776,30.5,63.5,30.5z"/>
	</g>
	<g>
		<line class="st4" x1="0.5" y1="36" x2="8" y2="36"/>
		<path class="st0" d="M8,36.5H0.5C0.224,36.5,0,36.276,0,36s0.224-0.5,0.5-0.5H8c0.276,0,0.5,0.224,0.5,0.5S8.276,36.5,8,36.5z"/>
	</g>
	<g>
		<polyline class="st4" points="0.5,29 11.5,29 16.5,36 27.5,36 		"/>
		<path class="st0" d="M27.5,36.5h-11c-0.162,0-0.313-0.078-0.407-0.209L11.243,29.5H0.5C0.224,29.5,0,29.276,0,29
			s0.224-0.5,0.5-0.5h11c0.162,0,0.313,0.078,0.407,0.209l4.851,6.791H27.5c0.276,0,0.5,0.224,0.5,0.5S27.776,36.5,27.5,36.5z"/>
	</g>
	<g>
		<circle class="st3" cx="10" cy="36" r="2"/>
		<path class="st0" d="M10,38.5c-1.378,0-2.5-1.122-2.5-2.5s1.122-2.5,2.5-2.5s2.5,1.122,2.5,2.5S11.378,38.5,10,38.5z M10,34.5
			c-0.827,0-1.5,0.673-1.5,1.5s0.673,1.5,1.5,1.5s1.5-0.673,1.5-1.5S10.827,34.5,10,34.5z"/>
	</g>
	<g>
		<path class="st0" d="M27.5,29.5H20c-0.276,0-0.5-0.224-0.5-0.5s0.224-0.5,0.5-0.5h7.5c0.276,0,0.5,0.224,0.5,0.5
			S27.776,29.5,27.5,29.5z"/>
	</g>
	<g>
		<circle class="st3" cx="18" cy="29" r="2"/>
		<path class="st0" d="M18,31.5c-1.378,0-2.5-1.122-2.5-2.5s1.122-2.5,2.5-2.5s2.5,1.122,2.5,2.5S19.378,31.5,18,31.5z M18,27.5
			c-0.827,0-1.5,0.673-1.5,1.5s0.673,1.5,1.5,1.5s1.5-0.673,1.5-1.5S18.827,27.5,18,27.5z"/>
	</g>
</g>
</svg>
