<?xml version="1.0" encoding="utf-8"?>
<!-- Generator: Adobe Illustrator 21.1.0, SVG Export Plug-In . SVG Version: 6.00 Build 0)  -->
<svg version="1.1" id="Icon_Set" xmlns="http://www.w3.org/2000/svg" xmlns:xlink="http://www.w3.org/1999/xlink" x="0px" y="0px"
	 viewBox="0 0 64 64" style="enable-background:new 0 0 64 64;" xml:space="preserve">
<style type="text/css">
	.st0{fill:#263238;}
	.st1{fill:#FFFFFF;}
	.st2{fill:#FF5252;}
	.st3{fill:#FFD740;}
	.st4{fill:#40C4FF;}
	.st5{fill:#4DB6AC;}
	.st6{fill:#4FC3F7;}
</style>
<g id="Distributed_Ledger">
	<g>
		<path class="st0" d="M28,15c-0.276,0-0.5-0.224-0.5-0.5V9c0-0.276,0.224-0.5,0.5-0.5s0.5,0.224,0.5,0.5v5.5
			C28.5,14.776,28.276,15,28,15z"/>
	</g>
	<g>
		<path class="st0" d="M24,15c-0.276,0-0.5-0.224-0.5-0.5V9c0-0.276,0.224-0.5,0.5-0.5s0.5,0.224,0.5,0.5v5.5
			C24.5,14.776,24.276,15,24,15z"/>
	</g>
	<g>
		<path class="st0" d="M40,15c-0.276,0-0.5-0.224-0.5-0.5V9c0-0.276,0.224-0.5,0.5-0.5s0.5,0.224,0.5,0.5v5.5
			C40.5,14.776,40.276,15,40,15z"/>
	</g>
	<g>
		<path class="st0" d="M36,15c-0.276,0-0.5-0.224-0.5-0.5V9c0-0.276,0.224-0.5,0.5-0.5s0.5,0.224,0.5,0.5v5.5
			C36.5,14.776,36.276,15,36,15z"/>
	</g>
	<g>
		<polygon class="st3" points="32,0.5 22,9 42,9 		"/>
		<path class="st0" d="M42,9.5H22c-0.209,0-0.397-0.131-0.469-0.328s-0.014-0.417,0.146-0.553l10-8.5
			c0.187-0.159,0.461-0.159,0.647,0l10,8.5c0.159,0.136,0.218,0.356,0.146,0.553S42.21,9.5,42,9.5z M23.36,8.5H40.64L32,1.156
			L23.36,8.5z"/>
	</g>
	<g>
		<path class="st0" d="M42,22.5H22c-0.276,0-0.5-0.224-0.5-0.5v-3c0-0.276,0.224-0.5,0.5-0.5h20c0.276,0,0.5,0.224,0.5,0.5v3
			C42.5,22.276,42.276,22.5,42,22.5z M22.5,21.5h19v-2h-19V21.5z"/>
	</g>
	<g>
		<path class="st0" d="M41,19.5c-0.276,0-0.5-0.224-0.5-0.5v-2h-17v2c0,0.276-0.224,0.5-0.5,0.5s-0.5-0.224-0.5-0.5v-2.5
			c0-0.276,0.224-0.5,0.5-0.5h18c0.276,0,0.5,0.224,0.5,0.5V19C41.5,19.276,41.276,19.5,41,19.5z"/>
	</g>
	<g>
		<path class="st0" d="M32,7.5c-1.241,0-2.25-1.009-2.25-2.25S30.759,3,32,3c1.24,0,2.25,1.009,2.25,2.25S33.24,7.5,32,7.5z M32,4
			c-0.689,0-1.25,0.561-1.25,1.25S31.311,6.5,32,6.5s1.25-0.561,1.25-1.25S32.689,4,32,4z"/>
	</g>
	<g>
		<path class="st0" d="M28,56.5c-0.276,0-0.5-0.224-0.5-0.5v-5.5c0-0.276,0.224-0.5,0.5-0.5s0.5,0.224,0.5,0.5V56
			C28.5,56.276,28.276,56.5,28,56.5z"/>
	</g>
	<g>
		<path class="st0" d="M24,56.5c-0.276,0-0.5-0.224-0.5-0.5v-5.5c0-0.276,0.224-0.5,0.5-0.5s0.5,0.224,0.5,0.5V56
			C24.5,56.276,24.276,56.5,24,56.5z"/>
	</g>
	<g>
		<path class="st0" d="M40,56.5c-0.276,0-0.5-0.224-0.5-0.5v-5.5c0-0.276,0.224-0.5,0.5-0.5s0.5,0.224,0.5,0.5V56
			C40.5,56.276,40.276,56.5,40,56.5z"/>
	</g>
	<g>
		<path class="st0" d="M36,56.5c-0.276,0-0.5-0.224-0.5-0.5v-5.5c0-0.276,0.224-0.5,0.5-0.5s0.5,0.224,0.5,0.5V56
			C36.5,56.276,36.276,56.5,36,56.5z"/>
	</g>
	<g>
		<polygon class="st3" points="32,42 22,50.5 42,50.5 		"/>
		<path class="st0" d="M42,51H22c-0.209,0-0.397-0.131-0.469-0.328s-0.014-0.417,0.146-0.553l10-8.5
			c0.187-0.159,0.461-0.159,0.647,0l10,8.5c0.159,0.136,0.218,0.356,0.146,0.553S42.21,51,42,51z M23.36,50H40.64L32,42.656
			L23.36,50z"/>
	</g>
	<g>
		<path class="st0" d="M42,64H22c-0.276,0-0.5-0.224-0.5-0.5v-3c0-0.276,0.224-0.5,0.5-0.5h20c0.276,0,0.5,0.224,0.5,0.5v3
			C42.5,63.776,42.276,64,42,64z M22.5,63h19v-2h-19V63z"/>
	</g>
	<g>
		<path class="st0" d="M41,61c-0.276,0-0.5-0.224-0.5-0.5v-2h-17v2c0,0.276-0.224,0.5-0.5,0.5s-0.5-0.224-0.5-0.5V58
			c0-0.276,0.224-0.5,0.5-0.5h18c0.276,0,0.5,0.224,0.5,0.5v2.5C41.5,60.776,41.276,61,41,61z"/>
	</g>
	<g>
		<path class="st0" d="M32,49c-1.241,0-2.25-1.009-2.25-2.25S30.759,44.5,32,44.5c1.24,0,2.25,1.009,2.25,2.25S33.24,49,32,49z
			 M32,45.5c-0.689,0-1.25,0.561-1.25,1.25S31.311,48,32,48s1.25-0.561,1.25-1.25S32.689,45.5,32,45.5z"/>
	</g>
	<g>
		<path class="st0" d="M12.5,40.5h-9C1.57,40.5,0,38.93,0,37c0-0.276,0.224-0.5,0.5-0.5H10c0.276,0,0.5,0.224,0.5,0.5v0.5
			c0,1.103,0.897,2,2,2c0.276,0,0.5,0.224,0.5,0.5S12.776,40.5,12.5,40.5z M1.05,37.5c0.232,1.14,1.242,2,2.45,2h6.766
			C9.79,38.969,9.5,38.268,9.5,37.5H1.05z"/>
	</g>
	<g>
		<path class="st0" d="M17.5,27.5H15c-0.276,0-0.5-0.224-0.5-0.5v-3c0-0.276,0.224-0.5,0.5-0.5c1.654,0,3,1.346,3,3V27
			C18,27.276,17.776,27.5,17.5,27.5z M15.5,26.5H17c0-0.93-0.638-1.714-1.5-1.937V26.5z"/>
	</g>
	<g>
		<path class="st4" d="M5.5,24C4.119,24,3,25.119,3,26.5V37h7v0.5c0,1.381,1.119,2.5,2.5,2.5s2.5-1.119,2.5-2.5V24H5.5z"/>
		<path class="st0" d="M12.5,40.5c-1.654,0-3-1.346-3-3H3c-0.276,0-0.5-0.224-0.5-0.5V26.5c0-1.654,1.346-3,3-3H15
			c0.276,0,0.5,0.224,0.5,0.5v13.5C15.5,39.154,14.154,40.5,12.5,40.5z M3.5,36.5H10c0.276,0,0.5,0.224,0.5,0.5v0.5
			c0,1.103,0.897,2,2,2s2-0.897,2-2v-13h-9c-1.103,0-2,0.897-2,2V36.5z"/>
	</g>
	<g>
		<path class="st0" d="M12,28.5H6c-0.276,0-0.5-0.224-0.5-0.5s0.224-0.5,0.5-0.5h6c0.276,0,0.5,0.224,0.5,0.5S12.276,28.5,12,28.5z"
			/>
	</g>
	<g>
		<path class="st0" d="M12,31.5H6c-0.276,0-0.5-0.224-0.5-0.5s0.224-0.5,0.5-0.5h6c0.276,0,0.5,0.224,0.5,0.5S12.276,31.5,12,31.5z"
			/>
	</g>
	<g>
		<path class="st0" d="M12,34.5H6c-0.276,0-0.5-0.224-0.5-0.5s0.224-0.5,0.5-0.5h6c0.276,0,0.5,0.224,0.5,0.5S12.276,34.5,12,34.5z"
			/>
	</g>
	<g>
		<path class="st0" d="M58.5,40.5h-9c-1.93,0-3.5-1.57-3.5-3.5c0-0.276,0.224-0.5,0.5-0.5H56c0.276,0,0.5,0.224,0.5,0.5v0.5
			c0,1.103,0.897,2,2,2c0.276,0,0.5,0.224,0.5,0.5S58.776,40.5,58.5,40.5z M47.05,37.5c0.232,1.14,1.243,2,2.45,2h6.766
			c-0.476-0.531-0.766-1.232-0.766-2H47.05z"/>
	</g>
	<g>
		<path class="st0" d="M63.5,27.5H61c-0.276,0-0.5-0.224-0.5-0.5v-3c0-0.276,0.224-0.5,0.5-0.5c1.654,0,3,1.346,3,3V27
			C64,27.276,63.776,27.5,63.5,27.5z M61.5,26.5H63c0-0.93-0.639-1.714-1.5-1.937V26.5z"/>
	</g>
	<g>
		<path class="st4" d="M51.5,24c-1.381,0-2.5,1.119-2.5,2.5V37h7v0.5c0,1.381,1.119,2.5,2.5,2.5s2.5-1.119,2.5-2.5V24H51.5z"/>
		<path class="st0" d="M58.5,40.5c-1.654,0-3-1.346-3-3H49c-0.276,0-0.5-0.224-0.5-0.5V26.5c0-1.654,1.346-3,3-3H61
			c0.276,0,0.5,0.224,0.5,0.5v13.5C61.5,39.154,60.154,40.5,58.5,40.5z M49.5,36.5H56c0.276,0,0.5,0.224,0.5,0.5v0.5
			c0,1.103,0.897,2,2,2s2-0.897,2-2v-13h-9c-1.103,0-2,0.897-2,2V36.5z"/>
	</g>
	<g>
		<path class="st0" d="M58,28.5h-6c-0.276,0-0.5-0.224-0.5-0.5s0.224-0.5,0.5-0.5h6c0.276,0,0.5,0.224,0.5,0.5S58.276,28.5,58,28.5z
			"/>
	</g>
	<g>
		<path class="st0" d="M58,31.5h-6c-0.276,0-0.5-0.224-0.5-0.5s0.224-0.5,0.5-0.5h6c0.276,0,0.5,0.224,0.5,0.5S58.276,31.5,58,31.5z
			"/>
	</g>
	<g>
		<path class="st0" d="M58,34.5h-6c-0.276,0-0.5-0.224-0.5-0.5s0.224-0.5,0.5-0.5h6c0.276,0,0.5,0.224,0.5,0.5S58.276,34.5,58,34.5z
			"/>
	</g>
	<g>
		<path class="st0" d="M28.25,37.25c-0.276,0-0.5-0.224-0.5-0.5v-9.5c0-0.276,0.224-0.5,0.5-0.5s0.5,0.224,0.5,0.5v9.5
			C28.75,37.026,28.526,37.25,28.25,37.25z"/>
	</g>
	<g>
		<path class="st0" d="M28.25,37.25c-0.128,0-0.256-0.049-0.354-0.146l-2-2c-0.195-0.195-0.195-0.512,0-0.707s0.512-0.195,0.707,0
			l1.646,1.646l1.646-1.646c0.195-0.195,0.512-0.195,0.707,0s0.195,0.512,0,0.707l-2,2C28.506,37.201,28.378,37.25,28.25,37.25z"/>
	</g>
	<g>
		<path class="st0" d="M35.75,37.25c-0.276,0-0.5-0.224-0.5-0.5v-9.5c0-0.276,0.224-0.5,0.5-0.5s0.5,0.224,0.5,0.5v9.5
			C36.25,37.026,36.026,37.25,35.75,37.25z"/>
	</g>
	<g>
		<path class="st0" d="M37.75,29.75c-0.128,0-0.256-0.049-0.354-0.146l-1.646-1.646l-1.646,1.646c-0.195,0.195-0.512,0.195-0.707,0
			s-0.195-0.512,0-0.707l2-2c0.195-0.195,0.512-0.195,0.707,0l2,2c0.195,0.195,0.195,0.512,0,0.707
			C38.006,29.701,37.878,29.75,37.75,29.75z"/>
	</g>
	<g>
		<path class="st0" d="M7,18c-0.276,0-0.5-0.224-0.5-0.5V12c0-3.033,2.467-5.5,5.5-5.5h5.5C17.776,6.5,18,6.724,18,7
			s-0.224,0.5-0.5,0.5H12c-2.481,0-4.5,2.019-4.5,4.5v5.5C7.5,17.776,7.276,18,7,18z"/>
	</g>
	<g>
		<path class="st0" d="M57,18c-0.276,0-0.5-0.224-0.5-0.5V12c0-2.481-2.019-4.5-4.5-4.5h-5.5C46.224,7.5,46,7.276,46,7
			s0.224-0.5,0.5-0.5H52c3.032,0,5.5,2.467,5.5,5.5v5.5C57.5,17.776,57.276,18,57,18z"/>
	</g>
	<g>
		<path class="st0" d="M48.5,9.5c-0.128,0-0.256-0.049-0.354-0.146l-2-2c-0.195-0.195-0.195-0.512,0-0.707l2-2
			c0.195-0.195,0.512-0.195,0.707,0s0.195,0.512,0,0.707L47.207,7l1.646,1.646c0.195,0.195,0.195,0.512,0,0.707
			C48.756,9.451,48.628,9.5,48.5,9.5z"/>
	</g>
	<g>
		<path class="st0" d="M57,18c-0.128,0-0.256-0.049-0.354-0.146l-2-2c-0.195-0.195-0.195-0.512,0-0.707s0.512-0.195,0.707,0
			L57,16.793l1.646-1.646c0.195-0.195,0.512-0.195,0.707,0s0.195,0.512,0,0.707l-2,2C57.256,17.951,57.128,18,57,18z"/>
	</g>
	<g>
		<path class="st0" d="M7,18c-0.128,0-0.256-0.049-0.354-0.146l-2-2c-0.195-0.195-0.195-0.512,0-0.707s0.512-0.195,0.707,0L7,16.793
			l1.646-1.646c0.195-0.195,0.512-0.195,0.707,0s0.195,0.512,0,0.707l-2,2C7.256,17.951,7.128,18,7,18z"/>
	</g>
	<g>
		<path class="st0" d="M15.5,9.5c-0.128,0-0.256-0.049-0.354-0.146c-0.195-0.195-0.195-0.512,0-0.707L16.793,7l-1.646-1.646
			c-0.195-0.195-0.195-0.512,0-0.707s0.512-0.195,0.707,0l2,2c0.195,0.195,0.195,0.512,0,0.707l-2,2
			C15.756,9.451,15.628,9.5,15.5,9.5z"/>
	</g>
	<g>
		<path class="st0" d="M52,57.5h-5.5c-0.276,0-0.5-0.224-0.5-0.5s0.224-0.5,0.5-0.5H52c2.481,0,4.5-2.019,4.5-4.5v-5.5
			c0-0.276,0.224-0.5,0.5-0.5s0.5,0.224,0.5,0.5V52C57.5,55.033,55.032,57.5,52,57.5z"/>
	</g>
	<g>
		<path class="st0" d="M17.5,57.5H12c-3.033,0-5.5-2.467-5.5-5.5v-5.5C6.5,46.224,6.724,46,7,46s0.5,0.224,0.5,0.5V52
			c0,2.481,2.019,4.5,4.5,4.5h5.5c0.276,0,0.5,0.224,0.5,0.5S17.776,57.5,17.5,57.5z"/>
	</g>
	<g>
		<path class="st0" d="M15.5,59.5c-0.128,0-0.256-0.049-0.354-0.146c-0.195-0.195-0.195-0.512,0-0.707L16.793,57l-1.646-1.646
			c-0.195-0.195-0.195-0.512,0-0.707s0.512-0.195,0.707,0l2,2c0.195,0.195,0.195,0.512,0,0.707l-2,2
			C15.756,59.451,15.628,59.5,15.5,59.5z"/>
	</g>
	<g>
		<path class="st0" d="M9,49c-0.128,0-0.256-0.049-0.354-0.146L7,47.207l-1.646,1.646c-0.195,0.195-0.512,0.195-0.707,0
			s-0.195-0.512,0-0.707l2-2c0.195-0.195,0.512-0.195,0.707,0l2,2c0.195,0.195,0.195,0.512,0,0.707C9.256,48.951,9.128,49,9,49z"/>
	</g>
	<g>
		<path class="st0" d="M59,49c-0.128,0-0.256-0.049-0.354-0.146L57,47.207l-1.646,1.646c-0.195,0.195-0.512,0.195-0.707,0
			s-0.195-0.512,0-0.707l2-2c0.195-0.195,0.512-0.195,0.707,0l2,2c0.195,0.195,0.195,0.512,0,0.707C59.256,48.951,59.128,49,59,49z"
			/>
	</g>
	<g>
		<path class="st0" d="M48.5,59.5c-0.128,0-0.256-0.049-0.354-0.146l-2-2c-0.195-0.195-0.195-0.512,0-0.707l2-2
			c0.195-0.195,0.512-0.195,0.707,0s0.195,0.512,0,0.707L47.207,57l1.646,1.646c0.195,0.195,0.195,0.512,0,0.707
			C48.756,59.451,48.628,59.5,48.5,59.5z"/>
	</g>
</g>
</svg>
