<?xml version="1.0" encoding="utf-8"?>
<!-- Generator: Adobe Illustrator 21.1.0, SVG Export Plug-In . SVG Version: 6.00 Build 0)  -->
<svg version="1.1" id="Icon_Set" xmlns="http://www.w3.org/2000/svg" xmlns:xlink="http://www.w3.org/1999/xlink" x="0px" y="0px"
	 viewBox="0 0 64 64" style="enable-background:new 0 0 64 64;" xml:space="preserve">
<style type="text/css">
	.st0{fill:#263238;}
	.st1{fill:#FFFFFF;}
	.st2{fill:#FF5252;}
	.st3{fill:#FFD740;}
	.st4{fill:#40C4FF;}
	.st5{fill:#4DB6AC;}
	.st6{fill:#4FC3F7;}
</style>
<g id="Encrypted">
	<g>
		<path class="st0" d="M2.75,39.5c-0.276,0-0.5-0.224-0.5-0.5v-1c0-0.276,0.224-0.5,0.5-0.5s0.5,0.224,0.5,0.5v1
			C3.25,39.276,3.026,39.5,2.75,39.5z"/>
	</g>
	<g>
		<path class="st0" d="M2.75,36.5c-0.276,0-0.5-0.224-0.5-0.5V23.5c0-0.276,0.224-0.5,0.5-0.5s0.5,0.224,0.5,0.5V36
			C3.25,36.276,3.026,36.5,2.75,36.5z"/>
	</g>
	<g>
		<path class="st0" d="M56.25,7c-0.276,0-0.5-0.224-0.5-0.5v-1c0-0.276,0.224-0.5,0.5-0.5s0.5,0.224,0.5,0.5v1
			C56.75,6.776,56.526,7,56.25,7z"/>
	</g>
	<g>
		<path class="st0" d="M56.25,21.5c-0.276,0-0.5-0.224-0.5-0.5V8.5c0-0.276,0.224-0.5,0.5-0.5s0.5,0.224,0.5,0.5V21
			C56.75,21.276,56.526,21.5,56.25,21.5z"/>
	</g>
	<g>
		<path class="st5" d="M26.245,39.614c-0.384,0-0.768-0.146-1.061-0.439l-6.718-6.717c-0.586-0.585-0.586-1.535,0-2.121
			s1.535-0.586,2.121,0l5.657,5.657l11.667-11.667c0.586-0.586,1.535-0.586,2.121,0c0.586,0.585,0.586,1.536,0,2.121L27.306,39.174
			C27.013,39.467,26.629,39.614,26.245,39.614z"/>
		<path class="st0" d="M26.245,40.114c-0.534,0-1.036-0.208-1.414-0.586l-6.718-6.717c-0.378-0.377-0.586-0.879-0.586-1.414
			c0-0.534,0.208-1.036,0.586-1.414c0.756-0.756,2.072-0.756,2.828,0l5.304,5.303l11.313-11.313c0.756-0.756,2.072-0.756,2.828,0
			c0.378,0.377,0.586,0.88,0.586,1.414s-0.208,1.037-0.586,1.414L27.659,39.528C27.281,39.906,26.779,40.114,26.245,40.114z
			 M19.527,30.396c-0.267,0-0.518,0.104-0.707,0.293c-0.188,0.189-0.293,0.44-0.293,0.707s0.104,0.518,0.293,0.707l6.718,6.717
			c0.379,0.378,1.035,0.378,1.414,0L39.68,26.093c0.188-0.189,0.293-0.44,0.293-0.707s-0.104-0.518-0.293-0.707
			c-0.391-0.39-1.023-0.39-1.414,0L26.599,36.346c-0.195,0.195-0.512,0.195-0.707,0l-5.657-5.657
			C20.045,30.5,19.794,30.396,19.527,30.396z"/>
	</g>
	<g>
		<path class="st0" d="M58.75,41.5c-0.276,0-0.5-0.224-0.5-0.5v-3c0-3.86-3.141-7-7-7s-7,3.14-7,7v3c0,0.276-0.224,0.5-0.5,0.5
			s-0.5-0.224-0.5-0.5v-3c0-4.411,3.589-8,8-8s8,3.589,8,8v3C59.25,41.276,59.026,41.5,58.75,41.5z"/>
	</g>
	<g>
		<path class="st0" d="M55.75,41.5c-0.276,0-0.5-0.224-0.5-0.5v-3c0-2.206-1.794-4-4-4s-4,1.794-4,4v3c0,0.276-0.224,0.5-0.5,0.5
			s-0.5-0.224-0.5-0.5v-3c0-2.757,2.243-5,5-5s5,2.243,5,5v3C56.25,41.276,56.026,41.5,55.75,41.5z"/>
	</g>
	<g>
		<path class="st0" d="M29.25,60c-0.099,0-0.196-0.029-0.281-0.087l-11.083-7.557C10.913,47.602,6.75,39.726,6.75,31.288V9
			c0-0.17,0.086-0.328,0.229-0.42c0.144-0.092,0.321-0.106,0.478-0.035l2.01,0.914c5.28,2.401,11.462,1.43,15.754-2.471l3.693-3.357
			c0.189-0.173,0.482-0.173,0.672,0l3.693,3.357c4.291,3.902,10.475,4.871,15.754,2.471l2.01-0.914
			c0.156-0.071,0.335-0.057,0.478,0.035C51.664,8.672,51.75,8.83,51.75,9v19.5c0,0.276-0.224,0.5-0.5,0.5s-0.5-0.224-0.5-0.5V9.776
			l-1.303,0.592c-5.644,2.566-12.253,1.529-16.84-2.641L29.25,4.676l-3.357,3.052c-4.586,4.169-11.198,5.207-16.84,2.641L7.75,9.776
			v21.511c0,8.107,3.999,15.675,10.698,20.243l10.802,7.365l9.719-6.626c0.228-0.153,0.538-0.097,0.694,0.131
			c0.155,0.228,0.097,0.539-0.132,0.695l-10,6.818C29.446,59.971,29.349,60,29.25,60z"/>
	</g>
	<g>
		<path class="st0" d="M48.25,29c-0.276,0-0.5-0.224-0.5-0.5V14.148c-6.018,1.585-12.534,0.005-17.161-4.201
			c-0.205-0.186-0.22-0.502-0.034-0.707c0.186-0.204,0.503-0.218,0.706-0.034c4.536,4.123,10.99,5.582,16.844,3.801
			c0.152-0.045,0.317-0.017,0.443,0.077c0.127,0.095,0.202,0.244,0.202,0.402V28.5C48.75,28.776,48.526,29,48.25,29z"/>
	</g>
	<g>
		<path class="st3" d="M58.75,43h-15c-1.381,0-2.5,1.119-2.5,2.5v12c0,1.381,1.119,2.5,2.5,2.5h15c1.381,0,2.5-1.119,2.5-2.5v-12
			C61.25,44.119,60.131,43,58.75,43z M53.25,55h-4l0.764-3.439C49.552,51.195,49.25,50.635,49.25,50c0-1.105,0.895-2,2-2
			s2,0.895,2,2c0,0.635-0.302,1.195-0.764,1.561L53.25,55z"/>
		<path class="st0" d="M58.75,60.5h-15c-1.654,0-3-1.346-3-3v-12c0-1.654,1.346-3,3-3h15c1.654,0,3,1.346,3,3v12
			C61.75,59.154,60.404,60.5,58.75,60.5z M43.75,43.5c-1.103,0-2,0.897-2,2v12c0,1.103,0.897,2,2,2h15c1.103,0,2-0.897,2-2v-12
			c0-1.103-0.897-2-2-2H43.75z M53.25,55.5h-4c-0.151,0-0.295-0.069-0.39-0.187c-0.096-0.118-0.131-0.273-0.099-0.421l0.701-3.155
			C49.006,51.271,48.75,50.653,48.75,50c0-1.378,1.121-2.5,2.5-2.5s2.5,1.122,2.5,2.5c0,0.653-0.256,1.271-0.713,1.737l0.701,3.155
			c0.032,0.148-0.003,0.303-0.099,0.421C53.545,55.431,53.401,55.5,53.25,55.5z M49.873,54.5h2.754l-0.629-2.83
			c-0.041-0.187,0.027-0.381,0.178-0.5c0.365-0.29,0.574-0.716,0.574-1.17c0-0.827-0.673-1.5-1.5-1.5s-1.5,0.673-1.5,1.5
			c0,0.454,0.209,0.88,0.574,1.17c0.15,0.119,0.219,0.313,0.178,0.5L49.873,54.5z"/>
	</g>
</g>
</svg>
