<?xml version="1.0" encoding="utf-8"?>
<!-- Generator: Adobe Illustrator 21.1.0, SVG Export Plug-In . SVG Version: 6.00 Build 0)  -->
<svg version="1.1" id="Icon_Set" xmlns="http://www.w3.org/2000/svg" xmlns:xlink="http://www.w3.org/1999/xlink" x="0px" y="0px"
	 viewBox="0 0 64 64" style="enable-background:new 0 0 64 64;" xml:space="preserve">
<style type="text/css">
	.st0{fill:#263238;}
	.st1{fill:#FF5252;}
	.st2{fill:#FFD740;}
	.st3{fill:#40C4FF;}
	.st4{fill:#FFFFFF;}
	.st5{fill:#4DB6AC;}
	.st6{fill:#4FC3F7;}
</style>
<g id="Ethereum">
	<g>
		<path class="st0" d="M29.5,61.25h-1c-0.276,0-0.5-0.224-0.5-0.5s0.224-0.5,0.5-0.5h1c0.276,0,0.5,0.224,0.5,0.5
			S29.776,61.25,29.5,61.25z"/>
	</g>
	<g>
		<circle class="st3" cx="31.25" cy="32.75" r="24"/>
		<path class="st0" d="M31.25,57.25c-13.51,0-24.5-10.991-24.5-24.5s10.99-24.5,24.5-24.5s24.5,10.991,24.5,24.5
			S44.76,57.25,31.25,57.25z M31.25,9.25c-12.958,0-23.5,10.542-23.5,23.5s10.542,23.5,23.5,23.5s23.5-10.542,23.5-23.5
			S44.208,9.25,31.25,9.25z"/>
	</g>
	<g>
		<path class="st0" d="M3.25,33.25c-0.276,0-0.5-0.224-0.5-0.5c0-15.715,12.785-28.5,28.5-28.5c0.276,0,0.5,0.224,0.5,0.5
			s-0.224,0.5-0.5,0.5c-15.163,0-27.5,12.336-27.5,27.5C3.75,33.026,3.526,33.25,3.25,33.25z"/>
	</g>
	<g>
		<path class="st0" d="M34.25,5.25h-1c-0.276,0-0.5-0.224-0.5-0.5s0.224-0.5,0.5-0.5h1c0.276,0,0.5,0.224,0.5,0.5
			S34.526,5.25,34.25,5.25z"/>
	</g>
	<g>
		<path class="st0" d="M31.25,61.25c-0.276,0-0.5-0.224-0.5-0.5s0.224-0.5,0.5-0.5c15.163,0,27.5-12.336,27.5-27.5
			c0-0.276,0.224-0.5,0.5-0.5s0.5,0.224,0.5,0.5C59.75,48.465,46.965,61.25,31.25,61.25z"/>
	</g>
	<g>
		<path class="st0" d="M53.75,5.75h-4c-0.276,0-0.5-0.224-0.5-0.5s0.224-0.5,0.5-0.5h4c0.276,0,0.5,0.224,0.5,0.5
			S54.026,5.75,53.75,5.75z"/>
	</g>
	<g>
		<path class="st0" d="M51.75,7.75c-0.276,0-0.5-0.224-0.5-0.5v-4c0-0.276,0.224-0.5,0.5-0.5s0.5,0.224,0.5,0.5v4
			C52.25,7.526,52.026,7.75,51.75,7.75z"/>
	</g>
	<g>
		<path class="st0" d="M60.75,12.25h-4c-0.276,0-0.5-0.224-0.5-0.5s0.224-0.5,0.5-0.5h4c0.276,0,0.5,0.224,0.5,0.5
			S61.026,12.25,60.75,12.25z"/>
	</g>
	<g>
		<path class="st0" d="M58.75,14.25c-0.276,0-0.5-0.224-0.5-0.5v-4c0-0.276,0.224-0.5,0.5-0.5s0.5,0.224,0.5,0.5v4
			C59.25,14.026,59.026,14.25,58.75,14.25z"/>
	</g>
	<g>
		<path class="st0" d="M31.25,53.25c-11.304,0-20.5-9.196-20.5-20.5s9.196-20.5,20.5-20.5s20.5,9.196,20.5,20.5
			S42.554,53.25,31.25,53.25z M31.25,13.25c-10.752,0-19.5,8.748-19.5,19.5s8.748,19.5,19.5,19.5s19.5-8.748,19.5-19.5
			S42.002,13.25,31.25,13.25z"/>
	</g>
	<g>
		<polygon class="st4" points="31.25,35.75 39.25,31.75 31.25,19.75 23.25,31.75 		"/>
		<path class="st0" d="M31.25,36.25c-0.076,0-0.153-0.018-0.224-0.053l-8-4c-0.128-0.064-0.223-0.18-0.26-0.319
			s-0.012-0.287,0.067-0.406l8-12c0.186-0.278,0.646-0.278,0.832,0l8,12c0.079,0.119,0.104,0.267,0.067,0.406
			s-0.132,0.255-0.26,0.319l-8,4C31.403,36.232,31.326,36.25,31.25,36.25z M23.98,31.556l7.27,3.635l7.27-3.635l-7.27-10.905
			L23.98,31.556z"/>
	</g>
	<g>
		<polygon class="st4" points="31.25,38.25 23.25,34.25 31.25,45.75 39.25,34.25 		"/>
		<path class="st0" d="M31.25,46.25c-0.164,0-0.317-0.08-0.41-0.214l-8-11.5c-0.131-0.188-0.117-0.44,0.032-0.613
			c0.15-0.173,0.397-0.222,0.602-0.12l7.776,3.888l7.776-3.888c0.204-0.102,0.451-0.053,0.602,0.12
			c0.149,0.173,0.163,0.425,0.032,0.613l-8,11.5C31.567,46.17,31.414,46.25,31.25,46.25z M24.78,35.574l6.47,9.3l6.47-9.3
			l-6.246,3.123c-0.141,0.07-0.307,0.07-0.447,0L24.78,35.574z"/>
	</g>
	<g>
		<path class="st0" d="M31.25,36.25c-0.276,0-0.5-0.224-0.5-0.5v-16c0-0.276,0.224-0.5,0.5-0.5s0.5,0.224,0.5,0.5v16
			C31.75,36.026,31.526,36.25,31.25,36.25z"/>
	</g>
	<g>
		<path class="st0" d="M31.25,46.25c-0.276,0-0.5-0.224-0.5-0.5v-7.5c0-0.276,0.224-0.5,0.5-0.5s0.5,0.224,0.5,0.5v7.5
			C31.75,46.026,31.526,46.25,31.25,46.25z"/>
	</g>
	<g>
		<path class="st0" d="M39.25,32.25c-0.048,0-0.097-0.007-0.145-0.021l-7.855-2.372l-7.855,2.372
			c-0.262,0.08-0.543-0.07-0.623-0.334s0.069-0.543,0.334-0.623l8-2.416c0.094-0.028,0.195-0.028,0.289,0l8,2.416
			c0.265,0.08,0.414,0.359,0.334,0.623C39.663,32.111,39.465,32.25,39.25,32.25z"/>
	</g>
</g>
</svg>
