<?xml version="1.0" encoding="utf-8"?>
<!-- Generator: Adobe Illustrator 21.1.0, SVG Export Plug-In . SVG Version: 6.00 Build 0)  -->
<svg version="1.1" id="Icon_Set" xmlns="http://www.w3.org/2000/svg" xmlns:xlink="http://www.w3.org/1999/xlink" x="0px" y="0px"
	 viewBox="0 0 64 64" style="enable-background:new 0 0 64 64;" xml:space="preserve">
<style type="text/css">
	.st0{fill:#263238;}
	.st1{fill:#FFFFFF;}
	.st2{fill:#FF5252;}
	.st3{fill:#FFD740;}
	.st4{fill:#40C4FF;}
	.st5{fill:#4DB6AC;}
	.st6{fill:#4FC3F7;}
</style>
<g id="Ethereum_Blockchain">
	<g>
		<path class="st0" d="M54,32.5H10c-0.276,0-0.5-0.224-0.5-0.5s0.224-0.5,0.5-0.5h44c0.276,0,0.5,0.224,0.5,0.5S54.276,32.5,54,32.5
			z"/>
	</g>
	<g>
		<path class="st0" d="M20.433,52.277c-0.086,0-0.173-0.022-0.252-0.068c-0.239-0.14-0.319-0.446-0.18-0.684l23.136-39.555
			c0.139-0.239,0.446-0.319,0.684-0.179c0.239,0.14,0.319,0.446,0.18,0.684L20.864,52.029
			C20.771,52.188,20.604,52.277,20.433,52.277z"/>
	</g>
	<g>
		<path class="st0" d="M43.568,52.277c-0.171,0-0.339-0.088-0.432-0.248L20.001,12.474c-0.14-0.238-0.06-0.544,0.18-0.684
			c0.236-0.139,0.545-0.06,0.684,0.179L44,51.524c0.14,0.238,0.06,0.544-0.18,0.684C43.741,52.255,43.654,52.277,43.568,52.277z"/>
	</g>
	<g>
		<circle class="st4" cx="32" cy="32" r="15"/>
		<path class="st0" d="M32,47.5c-8.547,0-15.5-6.953-15.5-15.5S23.453,16.5,32,16.5S47.5,23.453,47.5,32S40.547,47.5,32,47.5z
			 M32,17.5c-7.995,0-14.5,6.505-14.5,14.5S24.005,46.5,32,46.5S46.5,39.995,46.5,32S39.995,17.5,32,17.5z"/>
	</g>
	<g>
		<polygon class="st1" points="32,42 25,32 32,22 39,32 		"/>
		<path class="st0" d="M32,42.5c-0.163,0-0.316-0.08-0.409-0.213l-7-10c-0.121-0.172-0.121-0.401,0-0.573l7-10
			c0.186-0.268,0.633-0.268,0.818,0l7,10c0.121,0.172,0.121,0.401,0,0.573l-7,10C32.316,42.42,32.163,42.5,32,42.5z M25.61,32
			L32,41.128L38.39,32L32,22.872L25.61,32z"/>
	</g>
	<g>
		<path class="st0" d="M32,36c-0.076,0-0.153-0.018-0.224-0.053l-7-3.5C24.607,32.362,24.5,32.189,24.5,32s0.107-0.362,0.276-0.447
			l7-3.5c0.141-0.07,0.307-0.07,0.447,0l7,3.5C39.393,31.638,39.5,31.811,39.5,32s-0.107,0.362-0.276,0.447l-7,3.5
			C32.153,35.982,32.076,36,32,36z M26.118,32L32,34.941L37.882,32L32,29.059L26.118,32z"/>
	</g>
	<g>
		<path class="st0" d="M32,42.5c-0.276,0-0.5-0.224-0.5-0.5V22c0-0.276,0.224-0.5,0.5-0.5s0.5,0.224,0.5,0.5v20
			C32.5,42.276,32.276,42.5,32,42.5z"/>
	</g>
	<g>
		<path class="st0" d="M59,37.5c-1.469,0-2.851-0.572-3.889-1.611l0,0C54.072,34.851,53.5,33.469,53.5,32s0.572-2.851,1.611-3.889
			C56.149,27.072,57.531,26.5,59,26.5s2.851,0.572,3.889,1.611C63.928,29.149,64.5,30.531,64.5,32s-0.572,2.851-1.611,3.889
			C61.851,36.928,60.469,37.5,59,37.5z M59,27.5c-1.202,0-2.332,0.468-3.182,1.318C54.968,29.668,54.5,30.798,54.5,32
			s0.468,2.332,1.318,3.182l0,0c0.85,0.85,1.979,1.318,3.182,1.318s2.332-0.468,3.182-1.318c0.851-0.85,1.318-1.98,1.318-3.182
			s-0.468-2.332-1.318-3.182C61.332,27.968,60.202,27.5,59,27.5z"/>
	</g>
	<g>
		<path class="st0" d="M5,37.5c-1.469,0-2.851-0.572-3.889-1.611l0,0C0.072,34.851-0.5,33.469-0.5,32s0.572-2.851,1.611-3.889
			C2.149,27.072,3.531,26.5,5,26.5s2.851,0.572,3.889,1.611C9.928,29.149,10.5,30.531,10.5,32s-0.572,2.851-1.611,3.889
			C7.851,36.928,6.469,37.5,5,37.5z M5,27.5c-1.202,0-2.332,0.468-3.182,1.318C0.968,29.668,0.5,30.798,0.5,32
			s0.468,2.332,1.318,3.182l0,0C2.668,36.032,3.798,36.5,5,36.5s2.332-0.468,3.182-1.318C9.032,34.332,9.5,33.202,9.5,32
			s-0.468-2.332-1.318-3.182C7.332,27.968,6.202,27.5,5,27.5z"/>
	</g>
	<g>
		<path class="st0" d="M46.092,61.592c-3.032,0-5.5-2.467-5.5-5.5s2.468-5.5,5.5-5.5s5.5,2.467,5.5,5.5S49.124,61.592,46.092,61.592
			z M46.092,51.592c-2.481,0-4.5,2.019-4.5,4.5s2.019,4.5,4.5,4.5s4.5-2.019,4.5-4.5S48.573,51.592,46.092,51.592z"/>
	</g>
	<g>
		<path class="st0" d="M17.908,13.408c-3.032,0-5.5-2.467-5.5-5.5s2.468-5.5,5.5-5.5s5.5,2.467,5.5,5.5S20.94,13.408,17.908,13.408z
			 M17.908,3.408c-2.481,0-4.5,2.019-4.5,4.5s2.019,4.5,4.5,4.5s4.5-2.019,4.5-4.5S20.39,3.408,17.908,3.408z"/>
	</g>
	<g>
		<path class="st0" d="M46.092,13.408c-3.032,0-5.5-2.467-5.5-5.5s2.468-5.5,5.5-5.5s5.5,2.467,5.5,5.5S49.124,13.408,46.092,13.408
			z M46.092,3.408c-2.481,0-4.5,2.019-4.5,4.5s2.019,4.5,4.5,4.5s4.5-2.019,4.5-4.5S48.573,3.408,46.092,3.408z"/>
	</g>
	<g>
		<path class="st0" d="M17.908,61.592c-3.032,0-5.5-2.467-5.5-5.5s2.468-5.5,5.5-5.5s5.5,2.467,5.5,5.5S20.94,61.592,17.908,61.592z
			 M17.908,51.592c-2.481,0-4.5,2.019-4.5,4.5s2.019,4.5,4.5,4.5s4.5-2.019,4.5-4.5S20.39,51.592,17.908,51.592z"/>
	</g>
	<g>
		<path class="st0" d="M41.092,56.592H22.908c-0.276,0-0.5-0.224-0.5-0.5c0-2.481-2.019-4.5-4.5-4.5
			c-0.721,0-1.432,0.186-2.114,0.553c-0.117,0.063-0.253,0.078-0.381,0.038c-0.127-0.038-0.233-0.125-0.296-0.242L6.91,36.624
			c-0.062-0.117-0.076-0.254-0.038-0.381s0.126-0.233,0.242-0.296c0.445-0.238,0.784-0.481,1.067-0.764
			C9.032,34.332,9.5,33.202,9.5,32s-0.468-2.332-1.318-3.182c-0.283-0.283-0.622-0.526-1.067-0.764
			c-0.116-0.063-0.204-0.169-0.242-0.296s-0.024-0.264,0.038-0.381l8.207-15.317c0.062-0.117,0.169-0.204,0.296-0.242
			c0.128-0.04,0.264-0.025,0.382,0.038c0.682,0.367,1.393,0.553,2.113,0.553c2.481,0,4.5-2.019,4.5-4.5c0-0.276,0.224-0.5,0.5-0.5
			h18.184c0.276,0,0.5,0.224,0.5,0.5c0,2.481,2.019,4.5,4.5,4.5c0.721,0,1.432-0.186,2.113-0.553
			c0.118-0.063,0.254-0.078,0.382-0.038c0.127,0.038,0.233,0.125,0.296,0.242l8.207,15.317c0.062,0.117,0.076,0.254,0.038,0.381
			s-0.126,0.233-0.242,0.296c-0.445,0.238-0.784,0.481-1.067,0.764C54.968,29.668,54.5,30.798,54.5,32s0.468,2.332,1.318,3.182
			c0.283,0.283,0.622,0.526,1.067,0.764c0.116,0.063,0.204,0.169,0.242,0.296s0.024,0.264-0.038,0.381L48.883,51.94
			c-0.062,0.117-0.169,0.204-0.296,0.242c-0.128,0.04-0.264,0.025-0.381-0.038c-0.683-0.367-1.394-0.553-2.114-0.553
			c-2.481,0-4.5,2.019-4.5,4.5C41.592,56.368,41.368,56.592,41.092,56.592z M23.386,55.592h17.229c0.253-2.799,2.613-5,5.478-5
			c0.728,0,1.444,0.152,2.137,0.453l7.752-14.468c-0.334-0.211-0.617-0.435-0.869-0.688C54.072,34.851,53.5,33.469,53.5,32
			s0.572-2.851,1.611-3.889c0.252-0.252,0.535-0.477,0.869-0.688l-7.752-14.468c-0.691,0.301-1.408,0.453-2.137,0.453
			c-2.864,0-5.225-2.201-5.478-5H23.386c-0.253,2.799-2.613,5-5.478,5c-0.729,0-1.445-0.152-2.137-0.453L8.02,27.423
			c0.334,0.211,0.617,0.435,0.869,0.688C9.928,29.149,10.5,30.531,10.5,32s-0.572,2.851-1.611,3.889
			c-0.252,0.252-0.535,0.476-0.869,0.688l7.752,14.468c0.692-0.301,1.409-0.453,2.137-0.453
			C20.772,50.592,23.133,52.792,23.386,55.592z"/>
	</g>
	<g>
		<path class="st0" d="M26.5,59.5h-1c-0.276,0-0.5-0.224-0.5-0.5s0.224-0.5,0.5-0.5h1c0.276,0,0.5,0.224,0.5,0.5
			S26.776,59.5,26.5,59.5z"/>
	</g>
	<g>
		<path class="st0" d="M38.5,59.5h-10c-0.276,0-0.5-0.224-0.5-0.5s0.224-0.5,0.5-0.5h10c0.276,0,0.5,0.224,0.5,0.5
			S38.776,59.5,38.5,59.5z"/>
	</g>
	<g>
		<path class="st0" d="M38.5,5.408h-1c-0.276,0-0.5-0.224-0.5-0.5s0.224-0.5,0.5-0.5h1c0.276,0,0.5,0.224,0.5,0.5
			S38.776,5.408,38.5,5.408z"/>
	</g>
	<g>
		<path class="st0" d="M35.5,5.408h-10c-0.276,0-0.5-0.224-0.5-0.5s0.224-0.5,0.5-0.5h10c0.276,0,0.5,0.224,0.5,0.5
			S35.776,5.408,35.5,5.408z"/>
	</g>
</g>
</svg>
