<?xml version="1.0" encoding="utf-8"?>
<!-- Generator: Adobe Illustrator 21.1.0, SVG Export Plug-In . SVG Version: 6.00 Build 0)  -->
<svg version="1.1" id="Icon_Set" xmlns="http://www.w3.org/2000/svg" xmlns:xlink="http://www.w3.org/1999/xlink" x="0px" y="0px"
	 viewBox="0 0 64 64" style="enable-background:new 0 0 64 64;" xml:space="preserve">
<style type="text/css">
	.st0{fill:#263238;}
	.st1{fill:#FFFFFF;}
	.st2{fill:#FF5252;}
	.st3{fill:#FFD740;}
	.st4{fill:#40C4FF;}
	.st5{fill:#4DB6AC;}
	.st6{fill:#4FC3F7;}
</style>
<g id="Ethereum_Wallet">
	<g>
		<circle class="st4" cx="28.75" cy="18.5" r="10"/>
		<path class="st0" d="M28.75,29c-5.79,0-10.5-4.71-10.5-10.5S22.96,8,28.75,8c5.79,0,10.5,4.71,10.5,10.5S34.54,29,28.75,29z
			 M28.75,9c-5.238,0-9.5,4.262-9.5,9.5s4.262,9.5,9.5,9.5s9.5-4.262,9.5-9.5S33.988,9,28.75,9z"/>
	</g>
	<g>
		<path class="st0" d="M55.5,36.5c-0.276,0-0.5-0.224-0.5-0.5v-7.5c0-2.481-2.019-4.5-4.5-4.5H40.148c-0.276,0-0.5-0.224-0.5-0.5
			s0.224-0.5,0.5-0.5H50.5c3.032,0,5.5,2.467,5.5,5.5V36C56,36.276,55.776,36.5,55.5,36.5z"/>
	</g>
	<g>
		<path class="st0" d="M50.5,63H7c-3.033,0-5.5-2.467-5.5-5.5v-29C1.5,25.467,3.967,23,7,23h10.352c0.276,0,0.5,0.224,0.5,0.5
			s-0.224,0.5-0.5,0.5H7c-2.481,0-4.5,2.019-4.5,4.5v29C2.5,59.981,4.519,62,7,62h43.5c2.481,0,4.5-2.019,4.5-4.5V50
			c0-0.276,0.224-0.5,0.5-0.5S56,49.724,56,50v7.5C56,60.533,53.532,63,50.5,63z"/>
	</g>
	<g>
		<path class="st3" d="M59.5,48H45c-1.381,0-2.5-1.119-2.5-2.5v-5c0-1.381,1.119-2.5,2.5-2.5h14.5c1.381,0,2.5,1.119,2.5,2.5v5
			C62,46.881,60.881,48,59.5,48z"/>
		<path class="st0" d="M59.5,48.5H45c-1.654,0-3-1.346-3-3v-5c0-1.654,1.346-3,3-3h14.5c1.654,0,3,1.346,3,3v5
			C62.5,47.154,61.154,48.5,59.5,48.5z M45,38.5c-1.103,0-2,0.897-2,2v5c0,1.103,0.897,2,2,2h14.5c1.103,0,2-0.897,2-2v-5
			c0-1.103-0.897-2-2-2H45z"/>
	</g>
	<g>
		<path class="st0" d="M7.5,58H5c-0.276,0-0.5-0.224-0.5-0.5S4.724,57,5,57h2.5C7.776,57,8,57.224,8,57.5S7.776,58,7.5,58z"/>
	</g>
	<g>
		<path class="st0" d="M12.5,58H10c-0.276,0-0.5-0.224-0.5-0.5S9.724,57,10,57h2.5c0.276,0,0.5,0.224,0.5,0.5S12.776,58,12.5,58z"/>
	</g>
	<g>
		<path class="st0" d="M17.5,58H15c-0.276,0-0.5-0.224-0.5-0.5S14.724,57,15,57h2.5c0.276,0,0.5,0.224,0.5,0.5S17.776,58,17.5,58z"
			/>
	</g>
	<g>
		<path class="st0" d="M22.5,58H20c-0.276,0-0.5-0.224-0.5-0.5S19.724,57,20,57h2.5c0.276,0,0.5,0.224,0.5,0.5S22.776,58,22.5,58z"
			/>
	</g>
	<g>
		<path class="st0" d="M27.5,58H25c-0.276,0-0.5-0.224-0.5-0.5S24.724,57,25,57h2.5c0.276,0,0.5,0.224,0.5,0.5S27.776,58,27.5,58z"
			/>
	</g>
	<g>
		<path class="st0" d="M32.5,58H30c-0.276,0-0.5-0.224-0.5-0.5S29.724,57,30,57h2.5c0.276,0,0.5,0.224,0.5,0.5S32.776,58,32.5,58z"
			/>
	</g>
	<g>
		<path class="st0" d="M37.5,58H35c-0.276,0-0.5-0.224-0.5-0.5S34.724,57,35,57h2.5c0.276,0,0.5,0.224,0.5,0.5S37.776,58,37.5,58z"
			/>
	</g>
	<g>
		<path class="st0" d="M42.5,58H40c-0.276,0-0.5-0.224-0.5-0.5S39.724,57,40,57h2.5c0.276,0,0.5,0.224,0.5,0.5S42.776,58,42.5,58z"
			/>
	</g>
	<g>
		<path class="st0" d="M47.5,58H45c-0.276,0-0.5-0.224-0.5-0.5S44.724,57,45,57h2.5c0.276,0,0.5,0.224,0.5,0.5S47.776,58,47.5,58z"
			/>
	</g>
	<g>
		<path class="st0" d="M52.5,58H50c-0.276,0-0.5-0.224-0.5-0.5S49.724,57,50,57h2.5c0.276,0,0.5,0.224,0.5,0.5S52.776,58,52.5,58z"
			/>
	</g>
	<g>
		<circle class="st1" cx="47.5" cy="43" r="2.5"/>
		<path class="st0" d="M47.5,46c-1.654,0-3-1.346-3-3s1.346-3,3-3s3,1.346,3,3S49.154,46,47.5,46z M47.5,41c-1.103,0-2,0.897-2,2
			s0.897,2,2,2s2-0.897,2-2S48.603,41,47.5,41z"/>
	</g>
	<g>
		<path class="st0" d="M49,13c-0.276,0-0.5-0.224-0.5-0.5v-4C48.5,8.224,48.724,8,49,8s0.5,0.224,0.5,0.5v4
			C49.5,12.776,49.276,13,49,13z"/>
	</g>
	<g>
		<path class="st0" d="M51,11h-4c-0.276,0-0.5-0.224-0.5-0.5S46.724,10,47,10h4c0.276,0,0.5,0.224,0.5,0.5S51.276,11,51,11z"/>
	</g>
	<g>
		<path class="st0" d="M42,6c-0.276,0-0.5-0.224-0.5-0.5v-4C41.5,1.224,41.724,1,42,1s0.5,0.224,0.5,0.5v4C42.5,5.776,42.276,6,42,6
			z"/>
	</g>
	<g>
		<path class="st0" d="M44,4h-4c-0.276,0-0.5-0.224-0.5-0.5S39.724,3,40,3h4c0.276,0,0.5,0.224,0.5,0.5S44.276,4,44,4z"/>
	</g>
	<g>
		<polygon class="st1" points="28.75,25.5 24.25,18.5 28.75,11.5 33.25,18.5 		"/>
		<path class="st0" d="M28.75,26c-0.17,0-0.329-0.086-0.42-0.229l-4.5-7c-0.106-0.165-0.106-0.376,0-0.541l4.5-7
			c0.184-0.286,0.657-0.286,0.841,0l4.5,7c0.105,0.165,0.105,0.376,0,0.541l-4.5,7C29.079,25.914,28.92,26,28.75,26z M24.844,18.5
			l3.906,6.075l3.906-6.075l-3.906-6.075L24.844,18.5z"/>
	</g>
	<g>
		<path class="st0" d="M28.75,21c-0.069,0-0.139-0.014-0.203-0.043l-4.5-2c-0.181-0.081-0.297-0.259-0.297-0.457
			s0.116-0.376,0.297-0.457l4.5-2c0.129-0.058,0.277-0.058,0.406,0l4.5,2c0.181,0.081,0.297,0.259,0.297,0.457
			s-0.116,0.376-0.297,0.457l-4.5,2C28.889,20.986,28.819,21,28.75,21z M25.481,18.5l3.269,1.453l3.269-1.453l-3.269-1.453
			L25.481,18.5z"/>
	</g>
	<g>
		<path class="st0" d="M28.75,25.5c-0.276,0-0.5-0.224-0.5-0.5V12c0-0.276,0.224-0.5,0.5-0.5s0.5,0.224,0.5,0.5v13
			C29.25,25.276,29.026,25.5,28.75,25.5z"/>
	</g>
	<g>
		<path class="st0" d="M52.5,32c-0.276,0-0.5-0.224-0.5-0.5V29c0-1.103-0.897-2-2-2h-2.5c-0.276,0-0.5-0.224-0.5-0.5
			s0.224-0.5,0.5-0.5H50c1.654,0,3,1.346,3,3v2.5C53,31.776,52.776,32,52.5,32z"/>
	</g>
</g>
</svg>
