<?xml version="1.0" encoding="utf-8"?>
<!-- Generator: Adobe Illustrator 21.1.0, SVG Export Plug-In . SVG Version: 6.00 Build 0)  -->
<svg version="1.1" id="Icon_Set" xmlns="http://www.w3.org/2000/svg" xmlns:xlink="http://www.w3.org/1999/xlink" x="0px" y="0px"
	 viewBox="0 0 64 64" style="enable-background:new 0 0 64 64;" xml:space="preserve">
<style type="text/css">
	.st0{fill:#263238;}
	.st1{fill:#FFFFFF;}
	.st2{fill:#FF5252;}
	.st3{fill:#FFD740;}
	.st4{fill:#40C4FF;}
	.st5{fill:#4DB6AC;}
	.st6{fill:#4FC3F7;}
</style>
<g id="Ethereum_Accepted_Here">
	<g>
		<path class="st3" d="M61,46.75H32c-1.381,0-2.5-1.119-2.5-2.5v-19c0-1.381,1.119-2.5,2.5-2.5h29c1.381,0,2.5,1.119,2.5,2.5v19
			C63.5,45.631,62.381,46.75,61,46.75z"/>
	</g>
	<g>
		<circle class="st4" cx="18.5" cy="34.75" r="18"/>
		<path class="st0" d="M18.5,53.25C8.299,53.25,0,44.951,0,34.75s8.299-18.5,18.5-18.5S37,24.549,37,34.75S28.701,53.25,18.5,53.25z
			 M18.5,17.25C8.851,17.25,1,25.101,1,34.75s7.851,17.5,17.5,17.5S36,44.399,36,34.75S28.149,17.25,18.5,17.25z"/>
	</g>
	<g>
		<path class="st0" d="M18.5,50.25C9.953,50.25,3,43.297,3,34.75s6.953-15.5,15.5-15.5S34,26.203,34,34.75S27.047,50.25,18.5,50.25z
			 M18.5,20.25c-7.995,0-14.5,6.505-14.5,14.5s6.505,14.5,14.5,14.5S33,42.745,33,34.75S26.495,20.25,18.5,20.25z"/>
	</g>
	<g>
		<path class="st1" d="M47.379,40.846c-0.384,0-0.768-0.146-1.061-0.439l-4.95-4.95c-0.586-0.585-0.586-1.535,0-2.121
			s1.535-0.586,2.121,0l3.89,3.889l8.132-8.132c0.586-0.586,1.535-0.586,2.121,0c0.586,0.585,0.586,1.536,0,2.121l-9.192,9.192
			C48.147,40.7,47.763,40.846,47.379,40.846z"/>
		<path class="st0" d="M47.379,41.346c-0.534,0-1.036-0.208-1.414-0.586l-4.95-4.95c-0.378-0.377-0.586-0.879-0.586-1.414
			c0-0.534,0.208-1.036,0.586-1.414c0.756-0.756,2.072-0.756,2.828,0l3.536,3.536l7.778-7.778c0.779-0.78,2.049-0.78,2.828,0
			c0.378,0.377,0.586,0.88,0.586,1.414s-0.208,1.037-0.586,1.414l-9.192,9.192C48.415,41.138,47.913,41.346,47.379,41.346z
			 M42.429,33.396c-0.267,0-0.518,0.104-0.707,0.293s-0.293,0.44-0.293,0.707s0.104,0.518,0.293,0.707l4.95,4.95
			c0.378,0.378,1.036,0.378,1.414,0l9.192-9.192c0.189-0.189,0.293-0.44,0.293-0.707s-0.104-0.518-0.293-0.707
			c-0.39-0.39-1.025-0.389-1.414,0l-8.132,8.132c-0.195,0.195-0.512,0.195-0.707,0l-3.89-3.889
			C42.947,33.5,42.696,33.396,42.429,33.396z"/>
	</g>
	<g>
		<path class="st0" d="M32,14.25c-0.215,0-0.406-0.138-0.474-0.342l-0.553-1.658c-0.231-0.691-0.782-1.242-1.473-1.473l-1.658-0.553
			C27.638,10.156,27.5,9.965,27.5,9.75s0.138-0.406,0.342-0.474L29.5,8.723c0.691-0.231,1.242-0.782,1.473-1.473l0.553-1.658
			c0.136-0.408,0.812-0.408,0.948,0l0.553,1.658c0.231,0.691,0.782,1.242,1.473,1.473l1.658,0.553
			C36.362,9.344,36.5,9.535,36.5,9.75s-0.138,0.406-0.342,0.474L34.5,10.777c-0.691,0.231-1.242,0.782-1.473,1.473l-0.553,1.658
			C32.406,14.112,32.215,14.25,32,14.25z M29.581,9.75l0.235,0.079c0.988,0.33,1.775,1.117,2.105,2.105L32,12.169l0.079-0.235
			c0.33-0.988,1.117-1.775,2.105-2.105l0.235-0.079l-0.235-0.079c-0.988-0.33-1.775-1.117-2.105-2.105L32,7.331l-0.079,0.235
			c-0.33,0.988-1.117,1.775-2.105,2.105L29.581,9.75z"/>
	</g>
	<g>
		<path class="st0" d="M23.5,58.75h-1c-0.276,0-0.5-0.224-0.5-0.5s0.224-0.5,0.5-0.5h1c0.276,0,0.5,0.224,0.5,0.5
			S23.776,58.75,23.5,58.75z"/>
	</g>
	<g>
		<path class="st0" d="M40.5,58.75h-15c-0.276,0-0.5-0.224-0.5-0.5s0.224-0.5,0.5-0.5h15c0.276,0,0.5,0.224,0.5,0.5
			S40.776,58.75,40.5,58.75z"/>
	</g>
	<g>
		<path class="st0" d="M48.5,55.75h-1c-0.276,0-0.5-0.224-0.5-0.5s0.224-0.5,0.5-0.5h1c0.276,0,0.5,0.224,0.5,0.5
			S48.776,55.75,48.5,55.75z"/>
	</g>
	<g>
		<path class="st0" d="M45.5,55.75h-15c-0.276,0-0.5-0.224-0.5-0.5s0.224-0.5,0.5-0.5h15c0.276,0,0.5,0.224,0.5,0.5
			S45.776,55.75,45.5,55.75z"/>
	</g>
	<g>
		<polygon class="st1" points="18.5,44.75 11.5,34.75 18.5,24.75 25.5,34.75 		"/>
		<path class="st0" d="M18.5,45.25c-0.163,0-0.316-0.08-0.41-0.213l-7-10c-0.121-0.172-0.121-0.401,0-0.573l7-10
			c0.188-0.268,0.632-0.268,0.819,0l7,10c0.121,0.172,0.121,0.401,0,0.573l-7,10C18.816,45.17,18.663,45.25,18.5,45.25z
			 M12.11,34.75l6.39,9.128l6.39-9.128l-6.39-9.128L12.11,34.75z"/>
	</g>
	<g>
		<path class="st0" d="M18.5,38.75c-0.077,0-0.153-0.018-0.224-0.053l-7-3.5C11.107,35.112,11,34.939,11,34.75
			s0.107-0.362,0.276-0.447l7-3.5c0.141-0.07,0.307-0.07,0.447,0l7,3.5C25.893,34.388,26,34.561,26,34.75s-0.107,0.362-0.276,0.447
			l-7,3.5C18.653,38.732,18.577,38.75,18.5,38.75z M12.618,34.75l5.882,2.941l5.882-2.941L18.5,31.809L12.618,34.75z"/>
	</g>
	<g>
		<path class="st0" d="M18.5,45.25c-0.276,0-0.5-0.224-0.5-0.5v-20c0-0.276,0.224-0.5,0.5-0.5s0.5,0.224,0.5,0.5v20
			C19,45.026,18.776,45.25,18.5,45.25z"/>
	</g>
</g>
</svg>
