<?xml version="1.0" encoding="utf-8"?>
<!-- Generator: Adobe Illustrator 21.1.0, SVG Export Plug-In . SVG Version: 6.00 Build 0)  -->
<svg version="1.1" id="Icon_Set" xmlns="http://www.w3.org/2000/svg" xmlns:xlink="http://www.w3.org/1999/xlink" x="0px" y="0px"
	 viewBox="0 0 64 64" style="enable-background:new 0 0 64 64;" xml:space="preserve">
<style type="text/css">
	.st0{fill:#263238;}
	.st1{fill:#FFFFFF;}
	.st2{fill:#FF5252;}
	.st3{fill:#FFD740;}
	.st4{fill:#40C4FF;}
	.st5{fill:#4DB6AC;}
	.st6{fill:#4FC3F7;}
</style>
<g id="Ethereum_Mining">
	<g>
		<path class="st4" d="M57.75,43.5h-15c-1.381,0-2.5-1.119-2.5-2.5V26c0-1.381,1.119-2.5,2.5-2.5h15c1.381,0,2.5,1.119,2.5,2.5v15
			C60.25,42.381,59.131,43.5,57.75,43.5z"/>
		<path class="st0" d="M57.75,44h-15c-1.654,0-3-1.346-3-3V26c0-1.654,1.346-3,3-3h15c1.654,0,3,1.346,3,3v15
			C60.75,42.654,59.404,44,57.75,44z M42.75,24c-1.103,0-2,0.897-2,2v15c0,1.103,0.897,2,2,2h15c1.103,0,2-0.897,2-2V26
			c0-1.103-0.897-2-2-2H42.75z"/>
	</g>
	<g>
		<path class="st0" d="M47.25,24c-0.276,0-0.5-0.224-0.5-0.5V21c0-0.276,0.224-0.5,0.5-0.5s0.5,0.224,0.5,0.5v2.5
			C47.75,23.776,47.526,24,47.25,24z"/>
	</g>
	<g>
		<path class="st0" d="M50.25,24c-0.276,0-0.5-0.224-0.5-0.5V21c0-0.276,0.224-0.5,0.5-0.5s0.5,0.224,0.5,0.5v2.5
			C50.75,23.776,50.526,24,50.25,24z"/>
	</g>
	<g>
		<path class="st0" d="M53.25,24c-0.276,0-0.5-0.224-0.5-0.5V21c0-0.276,0.224-0.5,0.5-0.5s0.5,0.224,0.5,0.5v2.5
			C53.75,23.776,53.526,24,53.25,24z"/>
	</g>
	<g>
		<path class="st0" d="M47.25,46.5c-0.276,0-0.5-0.224-0.5-0.5v-2.5c0-0.276,0.224-0.5,0.5-0.5s0.5,0.224,0.5,0.5V46
			C47.75,46.276,47.526,46.5,47.25,46.5z"/>
	</g>
	<g>
		<path class="st0" d="M50.25,46.5c-0.276,0-0.5-0.224-0.5-0.5v-2.5c0-0.276,0.224-0.5,0.5-0.5s0.5,0.224,0.5,0.5V46
			C50.75,46.276,50.526,46.5,50.25,46.5z"/>
	</g>
	<g>
		<path class="st0" d="M53.25,46.5c-0.276,0-0.5-0.224-0.5-0.5v-2.5c0-0.276,0.224-0.5,0.5-0.5s0.5,0.224,0.5,0.5V46
			C53.75,46.276,53.526,46.5,53.25,46.5z"/>
	</g>
	<g>
		<path class="st0" d="M62.75,31h-2.5c-0.276,0-0.5-0.224-0.5-0.5s0.224-0.5,0.5-0.5h2.5c0.276,0,0.5,0.224,0.5,0.5
			S63.026,31,62.75,31z"/>
	</g>
	<g>
		<path class="st0" d="M62.75,34h-2.5c-0.276,0-0.5-0.224-0.5-0.5s0.224-0.5,0.5-0.5h2.5c0.276,0,0.5,0.224,0.5,0.5
			S63.026,34,62.75,34z"/>
	</g>
	<g>
		<path class="st0" d="M62.75,37h-2.5c-0.276,0-0.5-0.224-0.5-0.5s0.224-0.5,0.5-0.5h2.5c0.276,0,0.5,0.224,0.5,0.5
			S63.026,37,62.75,37z"/>
	</g>
	<g>
		<path class="st0" d="M40.25,31h-2.5c-0.276,0-0.5-0.224-0.5-0.5s0.224-0.5,0.5-0.5h2.5c0.276,0,0.5,0.224,0.5,0.5
			S40.526,31,40.25,31z"/>
	</g>
	<g>
		<path class="st0" d="M40.25,34h-2.5c-0.276,0-0.5-0.224-0.5-0.5s0.224-0.5,0.5-0.5h2.5c0.276,0,0.5,0.224,0.5,0.5
			S40.526,34,40.25,34z"/>
	</g>
	<g>
		<path class="st0" d="M40.25,37h-2.5c-0.276,0-0.5-0.224-0.5-0.5s0.224-0.5,0.5-0.5h2.5c0.276,0,0.5,0.224,0.5,0.5
			S40.526,37,40.25,37z"/>
	</g>
	<g>
		<path class="st0" d="M26.25,61H3.75c-1.654,0-3-1.346-3-3V9c0-1.654,1.346-3,3-3h24c1.654,0,3,1.346,3,3v47.5
			C30.75,58.981,28.731,61,26.25,61z M3.75,7c-1.103,0-2,0.897-2,2v49c0,1.103,0.897,2,2,2h22.5c1.93,0,3.5-1.57,3.5-3.5V9
			c0-1.103-0.897-2-2-2H3.75z"/>
	</g>
	<g>
		<path class="st3" d="M26.25,18.583h-21c-0.552,0-1-0.448-1-1v-4c0-0.552,0.448-1,1-1h21c0.552,0,1,0.448,1,1v4
			C27.25,18.136,26.802,18.583,26.25,18.583z"/>
		<path class="st0" d="M26.25,19.083h-21c-0.827,0-1.5-0.673-1.5-1.5v-4c0-0.827,0.673-1.5,1.5-1.5h21c0.827,0,1.5,0.673,1.5,1.5v4
			C27.75,18.411,27.077,19.083,26.25,19.083z M5.25,13.083c-0.276,0-0.5,0.224-0.5,0.5v4c0,0.276,0.224,0.5,0.5,0.5h21
			c0.276,0,0.5-0.224,0.5-0.5v-4c0-0.276-0.224-0.5-0.5-0.5H5.25z"/>
	</g>
	<g>
		<path class="st3" d="M26.25,28.583h-21c-0.552,0-1-0.448-1-1v-4c0-0.552,0.448-1,1-1h21c0.552,0,1,0.448,1,1v4
			C27.25,28.136,26.802,28.583,26.25,28.583z"/>
		<path class="st0" d="M26.25,29.083h-21c-0.827,0-1.5-0.673-1.5-1.5v-4c0-0.827,0.673-1.5,1.5-1.5h21c0.827,0,1.5,0.673,1.5,1.5v4
			C27.75,28.411,27.077,29.083,26.25,29.083z M5.25,23.083c-0.276,0-0.5,0.224-0.5,0.5v4c0,0.276,0.224,0.5,0.5,0.5h21
			c0.276,0,0.5-0.224,0.5-0.5v-4c0-0.276-0.224-0.5-0.5-0.5H5.25z"/>
	</g>
	<g>
		<path class="st0" d="M15.75,39.083c-1.654,0-3-1.346-3-3s1.346-3,3-3s3,1.346,3,3S17.404,39.083,15.75,39.083z M15.75,34.083
			c-1.103,0-2,0.897-2,2s0.897,2,2,2s2-0.897,2-2S16.853,34.083,15.75,34.083z"/>
	</g>
	<g>
		<path class="st0" d="M23.75,38.083c-1.103,0-2-0.897-2-2s0.897-2,2-2s2,0.897,2,2S24.853,38.083,23.75,38.083z M23.75,35.083
			c-0.551,0-1,0.449-1,1s0.449,1,1,1s1-0.449,1-1S24.301,35.083,23.75,35.083z"/>
	</g>
	<g>
		<path class="st0" d="M7.75,38.083c-1.103,0-2-0.897-2-2s0.897-2,2-2s2,0.897,2,2S8.853,38.083,7.75,38.083z M7.75,35.083
			c-0.551,0-1,0.449-1,1s0.449,1,1,1s1-0.449,1-1S8.301,35.083,7.75,35.083z"/>
	</g>
	<g>
		<path class="st0" d="M55.25,6h-4c-0.276,0-0.5-0.224-0.5-0.5S50.974,5,51.25,5h4c0.276,0,0.5,0.224,0.5,0.5S55.526,6,55.25,6z"/>
	</g>
	<g>
		<path class="st0" d="M53.25,8c-0.276,0-0.5-0.224-0.5-0.5v-4c0-0.276,0.224-0.5,0.5-0.5s0.5,0.224,0.5,0.5v4
			C53.75,7.776,53.526,8,53.25,8z"/>
	</g>
	<g>
		<path class="st0" d="M62.25,12.5h-4c-0.276,0-0.5-0.224-0.5-0.5s0.224-0.5,0.5-0.5h4c0.276,0,0.5,0.224,0.5,0.5
			S62.526,12.5,62.25,12.5z"/>
	</g>
	<g>
		<path class="st0" d="M60.25,14.5c-0.276,0-0.5-0.224-0.5-0.5v-4c0-0.276,0.224-0.5,0.5-0.5s0.5,0.224,0.5,0.5v4
			C60.75,14.276,60.526,14.5,60.25,14.5z"/>
	</g>
	<g>
		<path class="st0" d="M34.25,12h-1c-0.276,0-0.5-0.224-0.5-0.5s0.224-0.5,0.5-0.5h1c0.276,0,0.5,0.224,0.5,0.5S34.526,12,34.25,12z
			"/>
	</g>
	<g>
		<path class="st0" d="M50.25,18.5c-0.276,0-0.5-0.224-0.5-0.5v-1.5c0-2.481-2.019-4.5-4.5-4.5h-9c-0.276,0-0.5-0.224-0.5-0.5
			s0.224-0.5,0.5-0.5h9c3.033,0,5.5,2.467,5.5,5.5V18C50.75,18.276,50.526,18.5,50.25,18.5z"/>
	</g>
	<g>
		<path class="st0" d="M34.25,56h-1c-0.276,0-0.5-0.224-0.5-0.5s0.224-0.5,0.5-0.5h1c0.276,0,0.5,0.224,0.5,0.5S34.526,56,34.25,56z
			"/>
	</g>
	<g>
		<path class="st0" d="M45.25,56h-9c-0.276,0-0.5-0.224-0.5-0.5s0.224-0.5,0.5-0.5h9c2.481,0,4.5-2.019,4.5-4.5V49
			c0-0.276,0.224-0.5,0.5-0.5s0.5,0.224,0.5,0.5v1.5C50.75,53.533,48.282,56,45.25,56z"/>
	</g>
	<g>
		<path class="st0" d="M15.75,54c-3.033,0-5.5-2.467-5.5-5.5s2.467-5.5,5.5-5.5s5.5,2.467,5.5,5.5S18.783,54,15.75,54z M15.75,44
			c-2.481,0-4.5,2.019-4.5,4.5s2.019,4.5,4.5,4.5s4.5-2.019,4.5-4.5S18.231,44,15.75,44z"/>
	</g>
	<g>
		<path class="st0" d="M15.75,54c-0.276,0-0.5-0.224-0.5-0.5v-10c0-0.276,0.224-0.5,0.5-0.5s0.5,0.224,0.5,0.5v10
			C16.25,53.776,16.026,54,15.75,54z"/>
	</g>
	<g>
		<path class="st0" d="M20.75,49h-10c-0.276,0-0.5-0.224-0.5-0.5s0.224-0.5,0.5-0.5h10c0.276,0,0.5,0.224,0.5,0.5
			S21.026,49,20.75,49z"/>
	</g>
	<g>
		<polygon class="st1" points="50.25,41.5 44.75,33.5 50.25,25.5 55.75,33.5 		"/>
		<path class="st0" d="M50.25,42c-0.165,0-0.319-0.081-0.412-0.217l-5.5-8c-0.117-0.17-0.117-0.396,0-0.566l5.5-8
			c0.187-0.271,0.638-0.271,0.824,0l5.5,8c0.117,0.17,0.117,0.396,0,0.566l-5.5,8C50.569,41.919,50.415,42,50.25,42z M45.357,33.5
			l4.893,7.118l4.893-7.118l-4.893-7.118L45.357,33.5z"/>
	</g>
	<g>
		<path class="st0" d="M50.25,37c-0.083,0-0.165-0.021-0.239-0.061l-5.5-3c-0.161-0.087-0.261-0.256-0.261-0.439
			s0.1-0.352,0.261-0.439l5.5-3c0.148-0.081,0.33-0.081,0.479,0l5.5,3c0.161,0.087,0.261,0.256,0.261,0.439s-0.1,0.352-0.261,0.439
			l-5.5,3C50.415,36.979,50.333,37,50.25,37z M45.794,33.5l4.456,2.431l4.456-2.431l-4.456-2.431L45.794,33.5z"/>
	</g>
	<g>
		<path class="st0" d="M50.25,42c-0.276,0-0.5-0.224-0.5-0.5v-16c0-0.276,0.224-0.5,0.5-0.5s0.5,0.224,0.5,0.5v16
			C50.75,41.776,50.526,42,50.25,42z"/>
	</g>
</g>
</svg>
