<?xml version="1.0" encoding="utf-8"?>
<!-- Generator: Adobe Illustrator 21.1.0, SVG Export Plug-In . SVG Version: 6.00 Build 0)  -->
<svg version="1.1" id="Icon_Set" xmlns="http://www.w3.org/2000/svg" xmlns:xlink="http://www.w3.org/1999/xlink" x="0px" y="0px"
	 viewBox="0 0 64 64" style="enable-background:new 0 0 64 64;" xml:space="preserve">
<style type="text/css">
	.st0{fill:#263238;}
	.st1{fill:#FFFFFF;}
	.st2{fill:#FF5252;}
	.st3{fill:#FFD740;}
	.st4{fill:#40C4FF;}
	.st5{fill:#4DB6AC;}
	.st6{fill:#4FC3F7;}
</style>
<g id="Fiat_Money">
	<g>
		<path class="st0" d="M62.5,50.5h-61C0.673,50.5,0,49.827,0,49V15c0-0.827,0.673-1.5,1.5-1.5h61c0.827,0,1.5,0.673,1.5,1.5v34
			C64,49.827,63.327,50.5,62.5,50.5z M1.5,14.5C1.224,14.5,1,14.725,1,15v34c0,0.275,0.224,0.5,0.5,0.5h61
			c0.276,0,0.5-0.225,0.5-0.5V15c0-0.275-0.224-0.5-0.5-0.5H1.5z"/>
	</g>
	<g>
		<path class="st0" d="M58,45H6c-0.276,0-0.5-0.224-0.5-0.5v-25C5.5,19.224,5.724,19,6,19h52c0.276,0,0.5,0.224,0.5,0.5v25
			C58.5,44.776,58.276,45,58,45z M6.5,44h51V20h-51V44z"/>
	</g>
	<g>
		<path class="st0" d="M3.5,25.5C3.224,25.5,3,25.276,3,25v-8c0-0.276,0.224-0.5,0.5-0.5h8c0.276,0,0.5,0.224,0.5,0.5
			C12,21.687,8.187,25.5,3.5,25.5z M4,17.5v6.983c3.738-0.247,6.736-3.246,6.983-6.983H4z"/>
	</g>
	<g>
		<path class="st0" d="M60.5,25.5c-4.687,0-8.5-3.813-8.5-8.5c0-0.276,0.224-0.5,0.5-0.5h8c0.276,0,0.5,0.224,0.5,0.5v8
			C61,25.276,60.776,25.5,60.5,25.5z M53.017,17.5c0.247,3.737,3.246,6.736,6.983,6.983V17.5H53.017z"/>
	</g>
	<g>
		<path class="st0" d="M60.5,47.5h-8c-0.276,0-0.5-0.224-0.5-0.5c0-4.687,3.813-8.5,8.5-8.5c0.276,0,0.5,0.224,0.5,0.5v8
			C61,47.276,60.776,47.5,60.5,47.5z M53.017,46.5H60v-6.983C56.262,39.764,53.264,42.763,53.017,46.5z"/>
	</g>
	<g>
		<path class="st0" d="M11.5,47.5h-8C3.224,47.5,3,47.276,3,47v-8c0-0.276,0.224-0.5,0.5-0.5c4.687,0,8.5,3.813,8.5,8.5
			C12,47.276,11.776,47.5,11.5,47.5z M4,46.5h6.983C10.736,42.763,7.738,39.764,4,39.517V46.5z"/>
	</g>
	<g>
		<circle class="st4" cx="32" cy="32" r="15"/>
		<path class="st0" d="M32,47.5c-8.547,0-15.5-6.953-15.5-15.5S23.453,16.5,32,16.5S47.5,23.453,47.5,32S40.546,47.5,32,47.5z
			 M32,17.5c-7.995,0-14.5,6.505-14.5,14.5S24.004,46.5,32,46.5S46.5,39.995,46.5,32S39.995,17.5,32,17.5z"/>
	</g>
	<g>
		<path class="st0" d="M44,10.5h-2c-0.276,0-0.5-0.224-0.5-0.5s0.224-0.5,0.5-0.5h2c0.276,0,0.5,0.224,0.5,0.5S44.276,10.5,44,10.5z
			"/>
	</g>
	<g>
		<path class="st0" d="M40,10.5H20c-0.276,0-0.5-0.224-0.5-0.5s0.224-0.5,0.5-0.5h20c0.276,0,0.5,0.224,0.5,0.5S40.276,10.5,40,10.5
			z"/>
	</g>
	<g>
		<path class="st0" d="M22,54.5h-2c-0.276,0-0.5-0.224-0.5-0.5s0.224-0.5,0.5-0.5h2c0.276,0,0.5,0.224,0.5,0.5S22.276,54.5,22,54.5z
			"/>
	</g>
	<g>
		<path class="st0" d="M44,54.5H24c-0.276,0-0.5-0.224-0.5-0.5s0.224-0.5,0.5-0.5h20c0.276,0,0.5,0.224,0.5,0.5S44.276,54.5,44,54.5
			z"/>
	</g>
	<g>
		<path class="st1" d="M34,30.5h-4c-0.827,0-1.5-0.673-1.5-1.5s0.673-1.5,1.5-1.5h6.5v-3h-3v-2h-3v2H30c-2.481,0-4.5,2.019-4.5,4.5
			s2.019,4.5,4.5,4.5h4c0.827,0,1.5,0.673,1.5,1.5s-0.673,1.5-1.5,1.5h-7v3h3.5v2h3v-2H34c2.481,0,4.5-2.019,4.5-4.5
			S36.481,30.5,34,30.5z"/>
		<path class="st0" d="M33.5,42h-3c-0.276,0-0.5-0.224-0.5-0.5V40h-3c-0.276,0-0.5-0.224-0.5-0.5v-3c0-0.276,0.224-0.5,0.5-0.5h7
			c0.551,0,1-0.448,1-1s-0.449-1-1-1h-4c-2.757,0-5-2.243-5-5s2.243-5,5-5v-1.5c0-0.276,0.224-0.5,0.5-0.5h3
			c0.276,0,0.5,0.224,0.5,0.5V24h2.5c0.276,0,0.5,0.224,0.5,0.5v3c0,0.276-0.224,0.5-0.5,0.5H30c-0.551,0-1,0.448-1,1s0.449,1,1,1h4
			c2.757,0,5,2.243,5,5s-2.243,5-5,5v1.5C34,41.776,33.776,42,33.5,42z M31,41h2v-1.5c0-0.276,0.224-0.5,0.5-0.5H34
			c2.206,0,4-1.794,4-4s-1.794-4-4-4h-4c-1.103,0-2-0.897-2-2s0.897-2,2-2h6v-2h-2.5c-0.276,0-0.5-0.224-0.5-0.5V23h-2v1.5
			c0,0.276-0.224,0.5-0.5,0.5H30c-2.206,0-4,1.794-4,4s1.794,4,4,4h4c1.103,0,2,0.897,2,2s-0.897,2-2,2h-6.5v2h3
			c0.276,0,0.5,0.224,0.5,0.5V41z"/>
	</g>
</g>
</svg>
