<?xml version="1.0" encoding="utf-8"?>
<!-- Generator: Adobe Illustrator 21.1.0, SVG Export Plug-In . SVG Version: 6.00 Build 0)  -->
<svg version="1.1" id="Icon_Set" xmlns="http://www.w3.org/2000/svg" xmlns:xlink="http://www.w3.org/1999/xlink" x="0px" y="0px"
	 viewBox="0 0 64 64" style="enable-background:new 0 0 64 64;" xml:space="preserve">
<style type="text/css">
	.st0{fill:#263238;}
	.st1{fill:#FFFFFF;}
	.st2{fill:#FF5252;}
	.st3{fill:#FFD740;}
	.st4{fill:#40C4FF;}
	.st5{fill:#4DB6AC;}
	.st6{fill:#4FC3F7;}
</style>
<g id="GPU_Mining">
	<g>
		<path class="st2" d="M60.179,20H14.792c-1.351,0-2.645,0.547-3.586,1.516L7.821,25h6.699c-2.381,2.655-3.842,6.153-3.842,10
			s1.461,7.345,3.842,10H7.821l3.384,3.484C12.147,49.453,13.441,50,14.792,50h24.886c0-5.523,4.477-10,10-10
			c5.523,0,10,4.477,10,10h0.5c1.381,0,2.5-1.119,2.5-2.5v-25C62.679,21.119,61.559,20,60.179,20z"/>
	</g>
	<g>
		<path class="st0" d="M39.679,50.5H14.792c-1.477,0-2.915-0.607-3.945-1.667l-3.385-3.484c-0.192-0.198-0.188-0.515,0.011-0.707
			c0.198-0.193,0.515-0.188,0.707,0.01l3.384,3.484c0.842,0.867,2.019,1.364,3.228,1.364h24.887c0.276,0,0.5,0.224,0.5,0.5
			S39.955,50.5,39.679,50.5z"/>
	</g>
	<g>
		<path class="st0" d="M60.179,50.5h-0.5c-0.276,0-0.5-0.224-0.5-0.5s0.224-0.5,0.5-0.5h0.5c1.103,0,2-0.897,2-2v-25
			c0-1.103-0.897-2-2-2H14.792c-1.208,0-2.385,0.497-3.228,1.364L8.18,25.349c-0.192,0.198-0.509,0.203-0.707,0.01
			c-0.198-0.192-0.203-0.509-0.011-0.707l3.384-3.484c1.03-1.06,2.468-1.667,3.945-1.667h45.387c1.654,0,3,1.346,3,3v25
			C63.179,49.154,61.833,50.5,60.179,50.5z"/>
	</g>
	<g>
		<path class="st0" d="M62.679,26h-8c-0.276,0-0.5-0.224-0.5-0.5s0.224-0.5,0.5-0.5h8c0.276,0,0.5,0.224,0.5,0.5
			S62.955,26,62.679,26z"/>
	</g>
	<g>
		<path class="st0" d="M52.679,28c-1.378,0-2.5-1.121-2.5-2.5s1.122-2.5,2.5-2.5s2.5,1.121,2.5,2.5S54.057,28,52.679,28z M52.679,24
			c-0.827,0-1.5,0.673-1.5,1.5s0.673,1.5,1.5,1.5s1.5-0.673,1.5-1.5S53.506,24,52.679,24z"/>
	</g>
	<g>
		<path class="st0" d="M62.679,37.5h-6c-0.276,0-0.5-0.224-0.5-0.5s0.224-0.5,0.5-0.5h6c0.276,0,0.5,0.224,0.5,0.5
			S62.955,37.5,62.679,37.5z"/>
	</g>
	<g>
		<path class="st0" d="M54.679,39.5c-1.378,0-2.5-1.121-2.5-2.5s1.122-2.5,2.5-2.5s2.5,1.121,2.5,2.5S56.057,39.5,54.679,39.5z
			 M54.679,35.5c-0.827,0-1.5,0.673-1.5,1.5s0.673,1.5,1.5,1.5s1.5-0.673,1.5-1.5S55.506,35.5,54.679,35.5z"/>
	</g>
	<g>
		<path class="st0" d="M48.26,35.283c-0.15,0-0.298-0.067-0.397-0.195c-0.168-0.219-0.127-0.532,0.092-0.701l4.919-3.783
			c0.087-0.067,0.194-0.104,0.305-0.104h9.5c0.276,0,0.5,0.224,0.5,0.5s-0.224,0.5-0.5,0.5h-9.33l-4.784,3.68
			C48.474,35.249,48.367,35.283,48.26,35.283z"/>
	</g>
	<g>
		<path class="st0" d="M46.679,38.5c-1.378,0-2.5-1.121-2.5-2.5s1.122-2.5,2.5-2.5s2.5,1.121,2.5,2.5S48.057,38.5,46.679,38.5z
			 M46.679,34.5c-0.827,0-1.5,0.673-1.5,1.5s0.673,1.5,1.5,1.5s1.5-0.673,1.5-1.5S47.506,34.5,46.679,34.5z"/>
	</g>
	<g>
		<path class="st0" d="M53.679,18.5c-0.276,0-0.5-0.224-0.5-0.5v-1c0-0.275-0.224-0.5-0.5-0.5h-6c-0.276,0-0.5,0.225-0.5,0.5v1
			c0,0.276-0.224,0.5-0.5,0.5s-0.5-0.224-0.5-0.5v-1c0-0.827,0.673-1.5,1.5-1.5h6c0.827,0,1.5,0.673,1.5,1.5v1
			C54.179,18.276,53.955,18.5,53.679,18.5z"/>
	</g>
	<g>
		<path class="st1" d="M25.679,20c-8.271,0-15,6.729-15,15s6.729,15,15,15s15-6.729,15-15S33.95,20,25.679,20z M36.562,33.485H29.3
			l5.127-5.127C35.543,29.825,36.297,31.576,36.562,33.485z M27.179,24.115c1.908,0.262,3.658,1.013,5.125,2.125l-5.125,5.125
			V24.115z M24.179,31.364l-5.125-5.125c1.467-1.112,3.217-1.863,5.125-2.125V31.364z M24.179,45.885
			c-1.915-0.263-3.671-1.018-5.142-2.137l5.142-5.142V45.885z M27.179,38.606l5.142,5.142c-1.471,1.119-3.226,1.874-5.142,2.137
			V38.606z M16.931,28.358l5.127,5.127h-7.262C15.06,31.576,15.814,29.825,16.931,28.358z M14.791,36.485h7.267l-5.139,5.139
			C15.803,40.154,15.051,38.399,14.791,36.485z M34.439,41.625L29.3,36.485h7.267C36.306,38.399,35.554,40.154,34.439,41.625z"/>
		<path class="st0" d="M25.679,50.5c-8.547,0-15.5-6.953-15.5-15.5s6.953-15.5,15.5-15.5s15.5,6.953,15.5,15.5
			S34.226,50.5,25.679,50.5z M25.679,20.5c-7.995,0-14.5,6.505-14.5,14.5s6.505,14.5,14.5,14.5s14.5-6.505,14.5-14.5
			S33.674,20.5,25.679,20.5z M27.179,46.386c-0.12,0-0.237-0.043-0.329-0.123c-0.109-0.095-0.171-0.232-0.171-0.377v-7.279
			c0-0.202,0.122-0.385,0.309-0.462c0.188-0.076,0.402-0.035,0.545,0.108l5.142,5.142c0.102,0.102,0.155,0.243,0.146,0.388
			c-0.01,0.144-0.082,0.276-0.196,0.363c-1.569,1.194-3.428,1.968-5.376,2.235C27.224,46.384,27.201,46.386,27.179,46.386z
			 M27.679,39.813v5.482c1.383-0.27,2.703-0.818,3.872-1.61L27.679,39.813z M24.179,46.386c-0.022,0-0.045-0.002-0.068-0.005
			c-1.948-0.268-3.807-1.041-5.376-2.235c-0.115-0.087-0.187-0.22-0.196-0.363c-0.01-0.145,0.043-0.286,0.146-0.388l5.142-5.142
			c0.143-0.144,0.357-0.186,0.545-0.108c0.187,0.077,0.309,0.26,0.309,0.462v7.279c0,0.145-0.062,0.282-0.171,0.377
			C24.416,46.343,24.299,46.386,24.179,46.386z M19.807,43.686c1.169,0.792,2.489,1.341,3.872,1.61v-5.482L19.807,43.686z
			 M16.918,42.125c-0.011,0-0.023,0-0.034-0.001c-0.144-0.01-0.277-0.082-0.364-0.197c-1.19-1.57-1.959-3.429-2.224-5.374
			c-0.02-0.143,0.024-0.287,0.119-0.396c0.095-0.108,0.232-0.171,0.376-0.171h7.267c0.202,0,0.385,0.122,0.462,0.309
			c0.078,0.187,0.035,0.402-0.108,0.545l-5.14,5.14C17.177,42.072,17.05,42.125,16.918,42.125z M15.38,36.985
			c0.267,1.381,0.812,2.7,1.602,3.869l3.869-3.869H15.38z M34.439,42.125c-0.132,0-0.259-0.053-0.354-0.146l-5.139-5.14
			c-0.143-0.143-0.186-0.358-0.108-0.545c0.077-0.187,0.26-0.309,0.462-0.309h7.267c0.145,0,0.282,0.062,0.376,0.171
			c0.095,0.109,0.139,0.254,0.119,0.396c-0.265,1.945-1.034,3.804-2.225,5.374c-0.087,0.115-0.22,0.188-0.364,0.197
			C34.462,42.125,34.45,42.125,34.439,42.125z M30.507,36.985l3.869,3.869c0.789-1.169,1.335-2.488,1.602-3.869H30.507z
			 M36.562,33.985H29.3c-0.202,0-0.385-0.122-0.462-0.309c-0.078-0.187-0.035-0.402,0.108-0.545l5.127-5.127
			c0.102-0.103,0.244-0.159,0.387-0.146c0.144,0.01,0.277,0.081,0.364,0.196c1.191,1.564,1.963,3.419,2.232,5.361
			c0.02,0.143-0.023,0.288-0.118,0.396C36.844,33.923,36.707,33.985,36.562,33.985z M30.507,32.985h5.465
			c-0.271-1.377-0.818-2.692-1.607-3.857L30.507,32.985z M22.058,33.985h-7.262c-0.145,0-0.282-0.062-0.377-0.172
			c-0.095-0.108-0.138-0.254-0.118-0.396c0.27-1.942,1.042-3.797,2.232-5.361c0.087-0.115,0.22-0.187,0.364-0.196
			c0.144-0.013,0.285,0.044,0.387,0.146l5.127,5.127c0.143,0.143,0.186,0.358,0.108,0.545C22.442,33.863,22.26,33.985,22.058,33.985
			z M15.386,32.985h5.465l-3.857-3.857C16.204,30.293,15.656,31.608,15.386,32.985z M24.179,31.864c-0.13,0-0.258-0.051-0.354-0.146
			L18.7,26.593c-0.102-0.103-0.155-0.243-0.146-0.388c0.01-0.145,0.082-0.277,0.197-0.364c1.565-1.187,3.418-1.955,5.359-2.222
			c0.145-0.02,0.288,0.023,0.397,0.118s0.171,0.232,0.171,0.377v7.25c0,0.202-0.122,0.385-0.309,0.462
			C24.308,31.852,24.243,31.864,24.179,31.864z M19.824,26.303l3.854,3.854v-5.453C22.303,24.972,20.989,25.518,19.824,26.303z
			 M27.179,31.864c-0.064,0-0.129-0.013-0.191-0.038c-0.187-0.077-0.309-0.26-0.309-0.462v-7.25c0-0.145,0.062-0.282,0.171-0.377
			s0.25-0.138,0.397-0.118c1.941,0.267,3.794,1.035,5.358,2.222c0.115,0.087,0.187,0.22,0.197,0.364
			c0.01,0.145-0.043,0.285-0.146,0.388l-5.125,5.125C27.437,31.813,27.309,31.864,27.179,31.864z M27.679,24.704v5.453l3.854-3.854
			C30.369,25.518,29.055,24.972,27.679,24.704z"/>
	</g>
	<g>
		<path class="st1" d="M34.036,33.485c-0.221-1.228-0.703-2.363-1.39-3.346L29.3,33.485H34.036z"/>
		<path class="st0" d="M34.036,33.985H29.3c-0.202,0-0.385-0.122-0.462-0.309c-0.078-0.187-0.035-0.402,0.108-0.545l3.346-3.347
			c0.104-0.104,0.251-0.152,0.397-0.145c0.147,0.013,0.281,0.091,0.366,0.212c0.745,1.067,1.241,2.26,1.472,3.544
			c0.026,0.146-0.014,0.296-0.108,0.409C34.325,33.92,34.184,33.985,34.036,33.985z M30.507,32.985h2.909
			c-0.187-0.725-0.473-1.412-0.854-2.056L30.507,32.985z"/>
	</g>
	<g>
		<path class="st1" d="M22.058,33.485l-3.346-3.346c-0.688,0.984-1.169,2.119-1.39,3.346H22.058z"/>
		<path class="st0" d="M22.058,33.985h-4.737c-0.148,0-0.289-0.065-0.384-0.18c-0.095-0.113-0.135-0.264-0.108-0.409
			c0.231-1.283,0.727-2.476,1.473-3.544c0.085-0.121,0.219-0.199,0.366-0.212c0.146-0.008,0.293,0.041,0.397,0.145l3.346,3.347
			c0.143,0.143,0.186,0.358,0.108,0.545C22.442,33.863,22.26,33.985,22.058,33.985z M17.941,32.985h2.909l-2.055-2.056
			C18.415,31.573,18.128,32.261,17.941,32.985z"/>
	</g>
	<g>
		<path class="st1" d="M29.3,36.485l3.359,3.359c0.687-0.987,1.165-2.127,1.382-3.359H29.3z"/>
		<path class="st0" d="M32.658,40.344c-0.132,0-0.259-0.053-0.354-0.146l-3.358-3.358c-0.143-0.143-0.186-0.358-0.108-0.545
			c0.077-0.187,0.26-0.309,0.462-0.309h4.741c0.148,0,0.288,0.065,0.383,0.179c0.095,0.113,0.135,0.263,0.109,0.408
			c-0.228,1.291-0.72,2.488-1.464,3.557c-0.085,0.122-0.219,0.2-0.366,0.213C32.688,40.343,32.673,40.344,32.658,40.344z
			 M30.507,36.985l2.066,2.066c0.38-0.646,0.665-1.337,0.85-2.066H30.507z"/>
	</g>
	<g>
		<path class="st1" d="M30.523,28.02c-0.984-0.684-2.118-1.161-3.344-1.38v4.724L30.523,28.02z"/>
		<path class="st0" d="M27.179,31.864c-0.064,0-0.129-0.013-0.191-0.038c-0.187-0.077-0.309-0.26-0.309-0.462v-4.724
			c0-0.148,0.065-0.288,0.179-0.384c0.113-0.094,0.265-0.133,0.409-0.108c1.286,0.229,2.478,0.722,3.542,1.462
			c0.122,0.084,0.199,0.219,0.212,0.366s-0.04,0.293-0.145,0.397l-3.344,3.344C27.437,31.813,27.309,31.864,27.179,31.864z
			 M27.679,27.26v2.897l2.051-2.052C29.09,27.729,28.403,27.445,27.679,27.26z"/>
	</g>
	<g>
		<path class="st1" d="M27.179,38.606v4.753c1.233-0.22,2.373-0.702,3.361-1.393L27.179,38.606z"/>
		<path class="st0" d="M27.179,43.859c-0.117,0-0.23-0.041-0.321-0.116c-0.113-0.096-0.179-0.235-0.179-0.384v-4.753
			c0-0.202,0.122-0.385,0.309-0.462c0.188-0.076,0.402-0.035,0.545,0.108l3.361,3.36c0.104,0.104,0.158,0.25,0.145,0.397
			c-0.013,0.147-0.09,0.281-0.211,0.366c-1.071,0.748-2.269,1.244-3.56,1.475C27.237,43.856,27.208,43.859,27.179,43.859z
			 M27.679,39.813v2.927c0.73-0.188,1.423-0.474,2.069-0.857L27.679,39.813z"/>
	</g>
	<g>
		<path class="st1" d="M20.835,28.02l3.344,3.344V26.64C22.953,26.859,21.818,27.336,20.835,28.02z"/>
		<path class="st0" d="M24.179,31.864c-0.13,0-0.258-0.051-0.354-0.146l-3.344-3.344c-0.104-0.104-0.158-0.25-0.145-0.397
			s0.091-0.282,0.212-0.366c1.066-0.742,2.258-1.234,3.542-1.462c0.142-0.026,0.295,0.014,0.409,0.109
			c0.113,0.095,0.179,0.235,0.179,0.383v4.724c0,0.202-0.122,0.385-0.309,0.462C24.308,31.852,24.243,31.864,24.179,31.864z
			 M21.627,28.105l2.052,2.052V27.26C22.955,27.444,22.268,27.728,21.627,28.105z"/>
	</g>
	<g>
		<path class="st1" d="M22.058,36.485h-4.741c0.217,1.231,0.696,2.371,1.382,3.359L22.058,36.485z"/>
		<path class="st0" d="M18.699,40.344c-0.015,0-0.03-0.001-0.044-0.002c-0.147-0.013-0.282-0.091-0.366-0.213
			c-0.743-1.068-1.236-2.266-1.464-3.557c-0.026-0.146,0.014-0.295,0.109-0.408c0.095-0.113,0.235-0.179,0.383-0.179h4.741
			c0.202,0,0.385,0.122,0.462,0.309c0.078,0.187,0.035,0.402-0.108,0.545l-3.359,3.358C18.958,40.291,18.831,40.344,18.699,40.344z
			 M17.935,36.985c0.185,0.729,0.469,1.421,0.849,2.065l2.066-2.065H17.935z"/>
	</g>
	<g>
		<path class="st1" d="M20.818,41.967c0.988,0.69,2.128,1.173,3.361,1.393v-4.753L20.818,41.967z"/>
		<path class="st0" d="M24.179,43.859c-0.029,0-0.059-0.003-0.088-0.008c-1.293-0.23-2.491-0.727-3.56-1.476
			c-0.121-0.084-0.199-0.219-0.211-0.365c-0.013-0.147,0.04-0.293,0.145-0.397l3.361-3.36c0.143-0.144,0.357-0.186,0.545-0.108
			c0.187,0.077,0.309,0.26,0.309,0.462v4.753c0,0.148-0.065,0.288-0.179,0.384C24.409,43.818,24.295,43.859,24.179,43.859z
			 M21.609,41.883c0.646,0.384,1.338,0.67,2.07,0.857v-2.927L21.609,41.883z"/>
	</g>
	<g>
		<path class="st0" d="M11.961,45.5h-9.64c-0.827,0-1.5-0.673-1.5-1.5v-3c0-0.276,0.224-0.5,0.5-0.5h3v-3h-3
			c-0.276,0-0.5-0.224-0.5-0.5v-4c0-0.276,0.224-0.5,0.5-0.5h3v-3h-3c-0.276,0-0.5-0.224-0.5-0.5v-3c0-0.827,0.673-1.5,1.5-1.5
			h9.699c0.276,0,0.5,0.224,0.5,0.5s-0.224,0.5-0.5,0.5H2.321c-0.276,0-0.5,0.225-0.5,0.5v2.5h3c0.276,0,0.5,0.224,0.5,0.5v4
			c0,0.276-0.224,0.5-0.5,0.5h-3v3h3c0.276,0,0.5,0.224,0.5,0.5v4c0,0.276-0.224,0.5-0.5,0.5h-3V44c0,0.275,0.224,0.5,0.5,0.5h9.64
			c0.276,0,0.5,0.224,0.5,0.5S12.238,45.5,11.961,45.5z"/>
	</g>
	<g>
		<circle class="st3" cx="49.679" cy="50" r="8"/>
		<path class="st0" d="M49.679,58.5c-4.687,0-8.5-3.813-8.5-8.5s3.813-8.5,8.5-8.5s8.5,3.813,8.5,8.5S54.366,58.5,49.679,58.5z
			 M49.679,42.5c-4.136,0-7.5,3.364-7.5,7.5s3.364,7.5,7.5,7.5s7.5-3.364,7.5-7.5S53.814,42.5,49.679,42.5z"/>
	</g>
	<g>
		<path class="st0" d="M50.679,50.5h-3.25c-0.276,0-0.5-0.224-0.5-0.5v-3.5c0-0.276,0.224-0.5,0.5-0.5h3.25
			c1.241,0,2.25,1.01,2.25,2.25S51.919,50.5,50.679,50.5z M47.929,49.5h2.75c0.689,0,1.25-0.561,1.25-1.25S51.368,47,50.679,47
			h-2.75V49.5z"/>
	</g>
	<g>
		<path class="st0" d="M51.179,54h-3.75c-0.276,0-0.5-0.224-0.5-0.5V50c0-0.276,0.224-0.5,0.5-0.5h3.75c1.241,0,2.25,1.01,2.25,2.25
			S52.419,54,51.179,54z M47.929,53h3.25c0.689,0,1.25-0.561,1.25-1.25s-0.561-1.25-1.25-1.25h-3.25V53z"/>
	</g>
	<g>
		<path class="st0" d="M47.429,47h-1c-0.276,0-0.5-0.224-0.5-0.5s0.224-0.5,0.5-0.5h1c0.276,0,0.5,0.224,0.5,0.5
			S47.705,47,47.429,47z"/>
	</g>
	<g>
		<path class="st0" d="M47.429,54h-1c-0.276,0-0.5-0.224-0.5-0.5s0.224-0.5,0.5-0.5h1c0.276,0,0.5,0.224,0.5,0.5
			S47.705,54,47.429,54z"/>
	</g>
	<g>
		<path class="st0" d="M48.429,46.5c-0.276,0-0.5-0.224-0.5-0.5v-1c0-0.276,0.224-0.5,0.5-0.5s0.5,0.224,0.5,0.5v1
			C48.929,46.276,48.705,46.5,48.429,46.5z"/>
	</g>
	<g>
		<path class="st0" d="M50.429,46.5c-0.276,0-0.5-0.224-0.5-0.5v-1c0-0.276,0.224-0.5,0.5-0.5s0.5,0.224,0.5,0.5v1
			C50.929,46.276,50.705,46.5,50.429,46.5z"/>
	</g>
	<g>
		<path class="st0" d="M48.429,55.5c-0.276,0-0.5-0.224-0.5-0.5v-1c0-0.276,0.224-0.5,0.5-0.5s0.5,0.224,0.5,0.5v1
			C48.929,55.276,48.705,55.5,48.429,55.5z"/>
	</g>
	<g>
		<path class="st0" d="M50.429,55.5c-0.276,0-0.5-0.224-0.5-0.5v-1c0-0.276,0.224-0.5,0.5-0.5s0.5,0.224,0.5,0.5v1
			C50.929,55.276,50.705,55.5,50.429,55.5z"/>
	</g>
	<g>
		<path class="st0" d="M39,14.5h-2c-0.276,0-0.5-0.224-0.5-0.5s0.224-0.5,0.5-0.5h2c0.276,0,0.5,0.224,0.5,0.5S39.276,14.5,39,14.5z
			"/>
	</g>
	<g>
		<path class="st0" d="M35,14.5H15c-0.276,0-0.5-0.224-0.5-0.5s0.224-0.5,0.5-0.5h20c0.276,0,0.5,0.224,0.5,0.5S35.276,14.5,35,14.5
			z"/>
	</g>
	<g>
		<path class="st0" d="M17,56.5h-2c-0.276,0-0.5-0.224-0.5-0.5s0.224-0.5,0.5-0.5h2c0.276,0,0.5,0.224,0.5,0.5S17.276,56.5,17,56.5z
			"/>
	</g>
	<g>
		<path class="st0" d="M39,56.5H19c-0.276,0-0.5-0.224-0.5-0.5s0.224-0.5,0.5-0.5h20c0.276,0,0.5,0.224,0.5,0.5S39.276,56.5,39,56.5
			z"/>
	</g>
	<g>
		<path class="st0" d="M12,8.5H8C7.724,8.5,7.5,8.276,7.5,8S7.724,7.5,8,7.5h4c0.276,0,0.5,0.224,0.5,0.5S12.276,8.5,12,8.5z"/>
	</g>
	<g>
		<path class="st0" d="M10,10.5c-0.276,0-0.5-0.224-0.5-0.5V6c0-0.276,0.224-0.5,0.5-0.5s0.5,0.224,0.5,0.5v4
			C10.5,10.276,10.276,10.5,10,10.5z"/>
	</g>
	<g>
		<path class="st0" d="M7,14.5H3c-0.276,0-0.5-0.224-0.5-0.5s0.224-0.5,0.5-0.5h4c0.276,0,0.5,0.224,0.5,0.5S7.276,14.5,7,14.5z"/>
	</g>
	<g>
		<path class="st0" d="M5,16.5c-0.276,0-0.5-0.224-0.5-0.5v-4c0-0.276,0.224-0.5,0.5-0.5s0.5,0.224,0.5,0.5v4
			C5.5,16.276,5.276,16.5,5,16.5z"/>
	</g>
</g>
</svg>
