<?xml version="1.0" encoding="utf-8"?>
<!-- Generator: Adobe Illustrator 21.1.0, SVG Export Plug-In . SVG Version: 6.00 Build 0)  -->
<svg version="1.1" id="Icon_Set" xmlns="http://www.w3.org/2000/svg" xmlns:xlink="http://www.w3.org/1999/xlink" x="0px" y="0px"
	 viewBox="0 0 64 64" style="enable-background:new 0 0 64 64;" xml:space="preserve">
<style type="text/css">
	.st0{fill:#263238;}
	.st1{fill:#FFFFFF;}
	.st2{fill:#FF5252;}
	.st3{fill:#FFD740;}
	.st4{fill:#40C4FF;}
	.st5{fill:#4DB6AC;}
	.st6{fill:#4FC3F7;}
</style>
<g id="Halving">
	<g>
		<path class="st3" d="M31.721,29.123v-4.5l13.253-11.557c-3.89-2.717-8.619-4.315-13.723-4.315c-13.255,0-24,10.745-24,24
			c0,5.831,2.081,11.175,5.538,15.333L31.721,29.123z"/>
		<path class="st0" d="M12.789,48.583c-0.008,0-0.015,0-0.023,0c-0.14-0.006-0.271-0.072-0.361-0.18
			C8.758,44.018,6.75,38.459,6.75,32.75c0-13.509,10.991-24.5,24.5-24.5c5.039,0,9.883,1.523,14.009,4.406
			c0.126,0.088,0.205,0.229,0.213,0.383c0.008,0.154-0.055,0.303-0.171,0.404L32.221,24.85v4.272c0,0.132-0.053,0.26-0.146,0.354
			l-18.932,18.96C13.048,48.53,12.921,48.583,12.789,48.583z M31.25,9.25c-12.958,0-23.5,10.542-23.5,23.5
			c0,5.292,1.799,10.45,5.077,14.587l18.394-18.421v-4.293c0-0.145,0.062-0.282,0.171-0.377l12.764-11.131
			C40.316,10.584,35.869,9.25,31.25,9.25z M31.721,29.123h0.01H31.721z"/>
	</g>
	<g>
		<path class="st3" d="M40.377,26.779v4L13.154,48.506c4.4,5.049,10.873,8.244,18.096,8.244c13.255,0,24-10.745,24-24
			c0-4.65-1.326-8.988-3.615-12.664L40.377,26.779z"/>
		<path class="st0" d="M31.25,57.25c-7.079,0-13.812-3.067-18.473-8.416c-0.095-0.109-0.138-0.254-0.118-0.397
			c0.02-0.144,0.101-0.271,0.222-0.35l26.996-17.579v-3.729c0-0.176,0.093-0.34,0.245-0.43l11.257-6.693
			c0.234-0.14,0.535-0.065,0.68,0.166c2.415,3.877,3.691,8.348,3.691,12.928C55.75,46.259,44.759,57.25,31.25,57.25z M13.915,48.607
			c4.453,4.865,10.737,7.643,17.335,7.643c12.958,0,23.5-10.542,23.5-23.5c0-4.229-1.134-8.361-3.285-11.981l-10.587,6.295v3.716
			c0,0.169-0.085,0.327-0.227,0.419L13.915,48.607z M40.377,30.779h0.01H40.377z"/>
	</g>
	<g>
		<path class="st3" d="M31.721,29.123v-4.5l10.114-8.82c-3.072-1.923-6.693-3.053-10.585-3.053c-11.046,0-20,8.954-20,20
			c0,4.724,1.648,9.058,4.387,12.481L31.721,29.123z"/>
		<path class="st0" d="M15.637,45.73c-0.009,0-0.018,0-0.027-0.001c-0.142-0.007-0.274-0.076-0.363-0.187
			c-2.942-3.675-4.497-8.098-4.497-12.793c0-11.304,9.196-20.5,20.5-20.5c3.828,0,7.58,1.082,10.85,3.129
			c0.134,0.084,0.221,0.227,0.233,0.384c0.012,0.158-0.051,0.312-0.17,0.417l-9.942,8.67v4.272c0,0.132-0.053,0.26-0.146,0.354
			L15.991,45.584C15.896,45.678,15.769,45.73,15.637,45.73z M31.25,13.25c-10.752,0-19.5,8.748-19.5,19.5
			c0,4.279,1.358,8.321,3.933,11.726l15.538-15.561v-4.293c0-0.145,0.062-0.282,0.171-0.377l9.597-8.369
			C38.019,14.156,34.666,13.25,31.25,13.25z M31.721,29.123h0.01H31.721z"/>
	</g>
	<g>
		<path class="st3" d="M40.377,26.779v4L16.559,46.289c3.655,3.964,8.874,6.461,14.691,6.461c11.046,0,20-8.954,20-20
			c0-3.903-1.135-7.533-3.069-10.611L40.377,26.779z"/>
		<path class="st0" d="M31.25,53.25c-5.689,0-11.178-2.414-15.058-6.623c-0.1-0.108-0.146-0.255-0.128-0.401s0.1-0.277,0.223-0.357
			l23.591-15.361v-3.729c0-0.176,0.093-0.34,0.245-0.43l7.804-4.64c0.234-0.14,0.535-0.066,0.679,0.164
			c2.058,3.276,3.145,7.038,3.145,10.877C51.75,44.054,42.554,53.25,31.25,53.25z M17.336,46.38c3.663,3.738,8.7,5.87,13.914,5.87
			c10.752,0,19.5-8.748,19.5-19.5c0-3.49-0.945-6.912-2.737-9.929l-7.135,4.242v3.716c0,0.169-0.085,0.327-0.227,0.419L17.336,46.38
			z M40.377,30.779h0.01H40.377z"/>
	</g>
	<g>
		<path class="st0" d="M3.25,33.25c-0.276,0-0.5-0.224-0.5-0.5c0-15.715,12.785-28.5,28.5-28.5c0.276,0,0.5,0.224,0.5,0.5
			s-0.224,0.5-0.5,0.5c-15.164,0-27.5,12.336-27.5,27.5C3.75,33.026,3.526,33.25,3.25,33.25z"/>
	</g>
	<g>
		<path class="st0" d="M34.25,5.25h-1c-0.276,0-0.5-0.224-0.5-0.5s0.224-0.5,0.5-0.5h1c0.276,0,0.5,0.224,0.5,0.5
			S34.526,5.25,34.25,5.25z"/>
	</g>
	<g>
		<path class="st0" d="M31.25,61.25c-0.276,0-0.5-0.224-0.5-0.5s0.224-0.5,0.5-0.5c15.164,0,27.5-12.336,27.5-27.5
			c0-0.276,0.224-0.5,0.5-0.5s0.5,0.224,0.5,0.5C59.75,48.465,46.965,61.25,31.25,61.25z"/>
	</g>
	<g>
		<path class="st0" d="M29.25,61.25h-1c-0.276,0-0.5-0.224-0.5-0.5s0.224-0.5,0.5-0.5h1c0.276,0,0.5,0.224,0.5,0.5
			S29.526,61.25,29.25,61.25z"/>
	</g>
	<g>
		<path class="st0" d="M53.75,5.75h-4c-0.276,0-0.5-0.224-0.5-0.5s0.224-0.5,0.5-0.5h4c0.276,0,0.5,0.224,0.5,0.5
			S54.026,5.75,53.75,5.75z"/>
	</g>
	<g>
		<path class="st0" d="M51.75,7.75c-0.276,0-0.5-0.224-0.5-0.5v-4c0-0.276,0.224-0.5,0.5-0.5s0.5,0.224,0.5,0.5v4
			C52.25,7.526,52.026,7.75,51.75,7.75z"/>
	</g>
	<g>
		<path class="st0" d="M60.75,12.25h-4c-0.276,0-0.5-0.224-0.5-0.5s0.224-0.5,0.5-0.5h4c0.276,0,0.5,0.224,0.5,0.5
			S61.026,12.25,60.75,12.25z"/>
	</g>
	<g>
		<path class="st0" d="M58.75,14.25c-0.276,0-0.5-0.224-0.5-0.5v-4c0-0.276,0.224-0.5,0.5-0.5s0.5,0.224,0.5,0.5v4
			C59.25,14.026,59.026,14.25,58.75,14.25z"/>
	</g>
	<g>
		<path class="st1" d="M39.194,31.97l-0.004-0.002c0.142-0.211,0.265-0.436,0.381-0.664L34.28,34.75h1.22
			c1.241,0,2.25,1.009,2.25,2.25s-1.009,2.25-2.25,2.25h-7.75v-0.248l-6,3.907v0.341h5v3h3v-3h2.125v3h3v-3H35.5
			c3.446,0,6.25-2.804,6.25-6.25C41.75,34.937,40.741,33.109,39.194,31.97z"/>
		<path class="st0" d="M34.875,46.75h-3c-0.276,0-0.5-0.224-0.5-0.5v-2.5H30.25v2.5c0,0.276-0.224,0.5-0.5,0.5h-3
			c-0.276,0-0.5-0.224-0.5-0.5v-2.5h-4.5c-0.276,0-0.5-0.224-0.5-0.5v-0.341c0-0.169,0.085-0.327,0.227-0.419l6-3.907
			c0.154-0.1,0.35-0.108,0.511-0.021c0.082,0.044,0.148,0.11,0.193,0.188H35.5c0.965,0,1.75-0.785,1.75-1.75s-0.785-1.75-1.75-1.75
			h-1.22c-0.221,0-0.417-0.146-0.479-0.358c-0.063-0.212,0.021-0.44,0.207-0.561l5.292-3.446c0.189-0.123,0.438-0.105,0.607,0.047
			c0.168,0.151,0.214,0.397,0.111,0.599c-0.054,0.107-0.11,0.213-0.169,0.318c1.512,1.279,2.402,3.172,2.402,5.15
			c0,3.722-3.028,6.75-6.75,6.75h-0.125v2.5C35.375,46.526,35.151,46.75,34.875,46.75z M32.375,45.75h2v-2.5
			c0-0.276,0.224-0.5,0.5-0.5H35.5c3.17,0,5.75-2.58,5.75-5.75c0-1.812-0.878-3.54-2.349-4.625l0,0
			c-0.009-0.006-0.018-0.013-0.026-0.02l-2.959,1.926c1.32,0.201,2.334,1.344,2.334,2.719c0,1.516-1.233,2.75-2.75,2.75h-7.75
			c-0.064,0-0.125-0.012-0.181-0.034L22.91,42.75h3.84c0.276,0,0.5,0.224,0.5,0.5v2.5h2v-2.5c0-0.276,0.224-0.5,0.5-0.5h2.125
			c0.276,0,0.5,0.224,0.5,0.5V45.75z M21.75,42.909h0.01H21.75z"/>
	</g>
	<g>
		<polygon class="st1" points="23.75,37.105 30.096,30.75 27.75,30.75 27.75,26.25 31.721,26.25 31.721,24.623 34.875,21.872 
			34.875,19.25 31.875,19.25 31.875,22.25 29.75,22.25 29.75,19.25 26.75,19.25 26.75,22.25 21.75,22.25 21.75,26.25 23.75,26.25 		
			"/>
		<path class="st0" d="M23.75,37.605c-0.064,0-0.129-0.012-0.191-0.038c-0.187-0.077-0.309-0.26-0.309-0.462V26.75h-1.5
			c-0.276,0-0.5-0.224-0.5-0.5v-4c0-0.276,0.224-0.5,0.5-0.5h4.5v-2.5c0-0.276,0.224-0.5,0.5-0.5h3c0.276,0,0.5,0.224,0.5,0.5v2.5
			h1.125v-2.5c0-0.276,0.224-0.5,0.5-0.5h3c0.276,0,0.5,0.224,0.5,0.5v2.622c0,0.145-0.062,0.282-0.171,0.377l-2.983,2.602v1.4
			c0,0.276-0.224,0.5-0.5,0.5H28.25v3.5h1.846c0.202,0,0.384,0.122,0.462,0.309c0.078,0.187,0.035,0.402-0.108,0.545l-6.346,6.355
			C24.008,37.554,23.88,37.605,23.75,37.605z M22.25,25.75h1.5c0.276,0,0.5,0.224,0.5,0.5v9.646l4.64-4.646h-1.14
			c-0.276,0-0.5-0.224-0.5-0.5v-4.5c0-0.276,0.224-0.5,0.5-0.5h3.471v-1.127c0-0.145,0.062-0.282,0.171-0.377l2.983-2.602V19.75h-2
			v2.5c0,0.276-0.224,0.5-0.5,0.5H29.75c-0.276,0-0.5-0.224-0.5-0.5v-2.5h-2v2.5c0,0.276-0.224,0.5-0.5,0.5h-4.5V25.75z"/>
	</g>
</g>
</svg>
