<?xml version="1.0" encoding="utf-8"?>
<!-- Generator: Adobe Illustrator 21.1.0, SVG Export Plug-In . SVG Version: 6.00 Build 0)  -->
<svg version="1.1" id="Icon_Set" xmlns="http://www.w3.org/2000/svg" xmlns:xlink="http://www.w3.org/1999/xlink" x="0px" y="0px"
	 viewBox="0 0 64 64" style="enable-background:new 0 0 64 64;" xml:space="preserve">
<style type="text/css">
	.st0{fill:#263238;}
	.st1{fill:#FFFFFF;}
	.st2{fill:#FF5252;}
	.st3{fill:#FFD740;}
	.st4{fill:#40C4FF;}
	.st5{fill:#4DB6AC;}
	.st6{fill:#4FC3F7;}
</style>
<g id="Hashrate">
	<g>
		<path class="st0" d="M57.5,55h-51c-1.654,0-3-1.346-3-3V12c0-1.654,1.346-3,3-3h51c1.654,0,3,1.346,3,3v40
			C60.5,53.654,59.154,55,57.5,55z M6.5,10c-1.103,0-2,0.897-2,2v40c0,1.103,0.897,2,2,2h51c1.103,0,2-0.897,2-2V12
			c0-1.103-0.897-2-2-2H6.5z"/>
	</g>
	<g>
		<path class="st3" d="M28,48.5H10c-0.552,0-1-0.448-1-1v-31c0-0.552,0.448-1,1-1h18c0.552,0,1,0.448,1,1v31
			C29,48.052,28.552,48.5,28,48.5z"/>
		<path class="st0" d="M28,49H10c-0.827,0-1.5-0.673-1.5-1.5v-31c0-0.827,0.673-1.5,1.5-1.5h18c0.827,0,1.5,0.673,1.5,1.5v31
			C29.5,48.327,28.827,49,28,49z M10,16c-0.276,0-0.5,0.224-0.5,0.5v31c0,0.276,0.224,0.5,0.5,0.5h18c0.276,0,0.5-0.224,0.5-0.5v-31
			c0-0.276-0.224-0.5-0.5-0.5H10z"/>
	</g>
	<g>
		<path class="st0" d="M54,36.5H36c-0.827,0-1.5-0.673-1.5-1.5V17c0-0.827,0.673-1.5,1.5-1.5h18c0.827,0,1.5,0.673,1.5,1.5v18
			C55.5,35.827,54.827,36.5,54,36.5z M36,16.5c-0.276,0-0.5,0.224-0.5,0.5v18c0,0.276,0.224,0.5,0.5,0.5h18
			c0.276,0,0.5-0.224,0.5-0.5V17c0-0.276-0.224-0.5-0.5-0.5H36z"/>
	</g>
	<g>
		<path class="st5" d="M54,48.5H36c-0.552,0-1-0.448-1-1v-5c0-0.552,0.448-1,1-1h18c0.552,0,1,0.448,1,1v5
			C55,48.052,54.552,48.5,54,48.5z"/>
		<path class="st0" d="M54,49H36c-0.827,0-1.5-0.673-1.5-1.5v-5c0-0.827,0.673-1.5,1.5-1.5h18c0.827,0,1.5,0.673,1.5,1.5v5
			C55.5,48.327,54.827,49,54,49z M36,42c-0.276,0-0.5,0.224-0.5,0.5v5c0,0.276,0.224,0.5,0.5,0.5h18c0.276,0,0.5-0.224,0.5-0.5v-5
			c0-0.276-0.224-0.5-0.5-0.5H36z"/>
	</g>
	<g>
		<circle class="st2" cx="45" cy="26" r="6"/>
		<path class="st0" d="M45,32.5c-3.584,0-6.5-2.916-6.5-6.5s2.916-6.5,6.5-6.5s6.5,2.916,6.5,6.5S48.584,32.5,45,32.5z M45,20.5
			c-3.033,0-5.5,2.467-5.5,5.5s2.467,5.5,5.5,5.5s5.5-2.467,5.5-5.5S48.033,20.5,45,20.5z"/>
	</g>
	<g>
		<path class="st0" d="M12.417,27.667c-0.138,0-0.275-0.057-0.374-0.168c-0.184-0.206-0.165-0.522,0.042-0.706l4.5-4
			c0.187-0.167,0.468-0.17,0.657-0.006l3.148,2.698l4.673-4.672c0.195-0.195,0.512-0.195,0.707,0s0.195,0.512,0,0.707l-5,5
			c-0.186,0.184-0.482,0.195-0.679,0.026l-3.169-2.716l-4.174,3.71C12.653,27.625,12.535,27.667,12.417,27.667z"/>
	</g>
	<g>
		<path class="st0" d="M24.917,33.5h-12c-0.276,0-0.5-0.224-0.5-0.5s0.224-0.5,0.5-0.5h12c0.276,0,0.5,0.224,0.5,0.5
			S25.193,33.5,24.917,33.5z"/>
	</g>
	<g>
		<path class="st0" d="M24.917,38.5h-12c-0.276,0-0.5-0.224-0.5-0.5s0.224-0.5,0.5-0.5h12c0.276,0,0.5,0.224,0.5,0.5
			S25.193,38.5,24.917,38.5z"/>
	</g>
	<g>
		<path class="st0" d="M24.917,43.5h-12c-0.276,0-0.5-0.224-0.5-0.5s0.224-0.5,0.5-0.5h12c0.276,0,0.5,0.224,0.5,0.5
			S25.193,43.5,24.917,43.5z"/>
	</g>
	<g>
		<path class="st0" d="M51,26.5h-6c-0.276,0-0.5-0.224-0.5-0.5v-6c0-0.276,0.224-0.5,0.5-0.5s0.5,0.224,0.5,0.5v5.5H51
			c0.276,0,0.5,0.224,0.5,0.5S51.276,26.5,51,26.5z"/>
	</g>
	<g>
		<path class="st0" d="M14,59.5h-1c-0.276,0-0.5-0.224-0.5-0.5s0.224-0.5,0.5-0.5h1c0.276,0,0.5,0.224,0.5,0.5S14.276,59.5,14,59.5z
			"/>
	</g>
	<g>
		<path class="st0" d="M31,59.5H16c-0.276,0-0.5-0.224-0.5-0.5s0.224-0.5,0.5-0.5h15c0.276,0,0.5,0.224,0.5,0.5S31.276,59.5,31,59.5
			z"/>
	</g>
	<g>
		<path class="st0" d="M51,5.5h-1c-0.276,0-0.5-0.224-0.5-0.5s0.224-0.5,0.5-0.5h1c0.276,0,0.5,0.224,0.5,0.5S51.276,5.5,51,5.5z"/>
	</g>
	<g>
		<path class="st0" d="M48,5.5H33c-0.276,0-0.5-0.224-0.5-0.5s0.224-0.5,0.5-0.5h15c0.276,0,0.5,0.224,0.5,0.5S48.276,5.5,48,5.5z"
			/>
	</g>
</g>
</svg>
