<?xml version="1.0" encoding="utf-8"?>
<!-- Generator: Adobe Illustrator 21.1.0, SVG Export Plug-In . SVG Version: 6.00 Build 0)  -->
<svg version="1.1" id="Icon_Set" xmlns="http://www.w3.org/2000/svg" xmlns:xlink="http://www.w3.org/1999/xlink" x="0px" y="0px"
	 viewBox="0 0 64 64" style="enable-background:new 0 0 64 64;" xml:space="preserve">
<style type="text/css">
	.st0{fill:#263238;}
	.st1{fill:#FF5252;}
	.st2{fill:#FFD740;}
	.st3{fill:#40C4FF;}
	.st4{fill:#FFFFFF;}
	.st5{fill:#4DB6AC;}
	.st6{fill:#4FC3F7;}
</style>
<g id="ICO">
	<g>
		<path class="st2" d="M26.5,15.584c0-1.657,1.343-3,3-3h1.931c0.041-0.328,0.069-0.661,0.069-1c0-4.418-3.582-8-8-8s-8,3.582-8,8
			s3.582,8,8,8c1.679,0,3.236-0.52,4.523-1.404C27.118,17.664,26.5,16.701,26.5,15.584z"/>
		<path class="st0" d="M23.5,20.084c-4.687,0-8.5-3.813-8.5-8.5s3.813-8.5,8.5-8.5s8.5,3.813,8.5,8.5
			c0,0.361-0.03,0.714-0.073,1.062c-0.031,0.25-0.244,0.438-0.496,0.438H29.5c-1.378,0-2.5,1.121-2.5,2.5
			c0,0.887,0.487,1.715,1.271,2.161c0.149,0.085,0.245,0.241,0.252,0.413c0.007,0.173-0.074,0.336-0.216,0.434
			C26.886,19.568,25.224,20.084,23.5,20.084z M23.5,4.084c-4.136,0-7.5,3.364-7.5,7.5s3.364,7.5,7.5,7.5
			c1.281,0,2.523-0.323,3.632-0.939C26.42,17.489,26,16.562,26,15.584c0-1.93,1.57-3.5,3.5-3.5h1.479
			c0.013-0.165,0.021-0.331,0.021-0.5C31,7.448,27.636,4.084,23.5,4.084z"/>
	</g>
	<g>
		<path class="st0" d="M30,62.5H12.5c-1.654,0-3-1.346-3-3V47c0-0.276,0.224-0.5,0.5-0.5s0.5,0.224,0.5,0.5v12.5
			c0,1.103,0.897,2,2,2h17V36c0-0.276,0.224-0.5,0.5-0.5s0.5,0.224,0.5,0.5v26C30.5,62.276,30.276,62.5,30,62.5z"/>
	</g>
	<g>
		<path class="st0" d="M24,47.5H5c-0.176,0-0.34-0.093-0.43-0.245c-0.09-0.151-0.093-0.34-0.009-0.494l6-11
			C10.648,35.6,10.817,35.5,11,35.5h19c0.176,0,0.34,0.093,0.43,0.245c0.09,0.151,0.093,0.34,0.009,0.494l-6,11
			C24.352,47.4,24.183,47.5,24,47.5z M5.842,46.5h17.861l5.455-10H11.297L5.842,46.5z"/>
	</g>
	<g>
		<path class="st0" d="M47.5,62.5H30c-0.276,0-0.5-0.224-0.5-0.5V36c0-0.276,0.224-0.5,0.5-0.5s0.5,0.224,0.5,0.5v25.5h17
			c1.103,0,2-0.897,2-2V47c0-0.276,0.224-0.5,0.5-0.5s0.5,0.224,0.5,0.5v12.5C50.5,61.154,49.154,62.5,47.5,62.5z"/>
	</g>
	<g>
		<path class="st0" d="M55,47.5H36c-0.183,0-0.352-0.1-0.438-0.261l-6-11c-0.084-0.154-0.081-0.343,0.009-0.494
			C29.66,35.593,29.824,35.5,30,35.5h19c0.183,0,0.352,0.1,0.438,0.261l6,11c0.085,0.154,0.082,0.343-0.009,0.494
			C55.34,47.407,55.177,47.5,55,47.5z M36.297,46.5h17.861l-5.455-10H30.842L36.297,46.5z"/>
	</g>
	<g>
		<path class="st0" d="M52.5,22.584h-5.14c-1.621,0-3.245-0.383-4.695-1.108l-4.889-2.444c-0.247-0.124-0.347-0.424-0.224-0.671
			c0.124-0.247,0.424-0.346,0.671-0.224l4.889,2.444c1.312,0.656,2.781,1.003,4.248,1.003h5.14c0.276,0,0.5,0.224,0.5,0.5
			S52.776,22.584,52.5,22.584z"/>
	</g>
	<g>
		<path class="st0" d="M52.5,9.084h-1.909c-1.778,0-3.542-0.457-5.1-1.321l-7.887-4.382c-1.955-1.088-4.336-1.171-6.362-0.223
			l-3.825,1.788c-0.251,0.117-0.548,0.009-0.665-0.241s-0.009-0.548,0.241-0.665l3.825-1.788c2.317-1.082,5.036-0.986,7.272,0.254
			l7.887,4.382c1.409,0.783,3.004,1.196,4.613,1.196H52.5c0.276,0,0.5,0.224,0.5,0.5S52.776,9.084,52.5,9.084z"/>
	</g>
	<g>
		<path class="st3" d="M62,22.584v-14.5c0-0.552-0.448-1-1-1h-5.5c-0.552,0-1,0.448-1,1v14.5c0,0.552,0.448,1,1,1H61
			C61.552,23.584,62,23.136,62,22.584z"/>
		<path class="st0" d="M61,24.084h-5.5c-0.827,0-1.5-0.673-1.5-1.5v-14.5c0-0.827,0.673-1.5,1.5-1.5H61c0.827,0,1.5,0.673,1.5,1.5
			v14.5C62.5,23.411,61.827,24.084,61,24.084z M55.5,7.584c-0.275,0-0.5,0.225-0.5,0.5v14.5c0,0.275,0.225,0.5,0.5,0.5H61
			c0.275,0,0.5-0.225,0.5-0.5v-14.5c0-0.275-0.225-0.5-0.5-0.5H55.5z"/>
	</g>
	<g>
		<path class="st0" d="M24.5,12.084h-3.25c-0.276,0-0.5-0.224-0.5-0.5v-3.5c0-0.276,0.224-0.5,0.5-0.5h3.25
			c1.241,0,2.25,1.01,2.25,2.25S25.741,12.084,24.5,12.084z M21.75,11.084h2.75c0.689,0,1.25-0.561,1.25-1.25s-0.561-1.25-1.25-1.25
			h-2.75V11.084z"/>
	</g>
	<g>
		<path class="st0" d="M25,15.584h-3.75c-0.276,0-0.5-0.224-0.5-0.5v-3.5c0-0.276,0.224-0.5,0.5-0.5H25c1.241,0,2.25,1.01,2.25,2.25
			S26.241,15.584,25,15.584z M21.75,14.584H25c0.689,0,1.25-0.561,1.25-1.25s-0.561-1.25-1.25-1.25h-3.25V14.584z"/>
	</g>
	<g>
		<path class="st0" d="M21.25,8.584h-1c-0.276,0-0.5-0.224-0.5-0.5s0.224-0.5,0.5-0.5h1c0.276,0,0.5,0.224,0.5,0.5
			S21.526,8.584,21.25,8.584z"/>
	</g>
	<g>
		<path class="st0" d="M21.25,15.584h-1c-0.276,0-0.5-0.224-0.5-0.5s0.224-0.5,0.5-0.5h1c0.276,0,0.5,0.224,0.5,0.5
			S21.526,15.584,21.25,15.584z"/>
	</g>
	<g>
		<path class="st0" d="M22.25,8.084c-0.276,0-0.5-0.224-0.5-0.5v-1c0-0.276,0.224-0.5,0.5-0.5s0.5,0.224,0.5,0.5v1
			C22.75,7.86,22.526,8.084,22.25,8.084z"/>
	</g>
	<g>
		<path class="st0" d="M24.25,8.084c-0.276,0-0.5-0.224-0.5-0.5v-1c0-0.276,0.224-0.5,0.5-0.5s0.5,0.224,0.5,0.5v1
			C24.75,7.86,24.526,8.084,24.25,8.084z"/>
	</g>
	<g>
		<path class="st0" d="M22.25,17.084c-0.276,0-0.5-0.224-0.5-0.5v-1c0-0.276,0.224-0.5,0.5-0.5s0.5,0.224,0.5,0.5v1
			C22.75,16.86,22.526,17.084,22.25,17.084z"/>
	</g>
	<g>
		<path class="st0" d="M24.25,17.084c-0.276,0-0.5-0.224-0.5-0.5v-1c0-0.276,0.224-0.5,0.5-0.5s0.5,0.224,0.5,0.5v1
			C24.75,16.86,24.526,17.084,24.25,17.084z"/>
	</g>
	<g>
		<path class="st0" d="M38,19.084h-8.5c-1.93,0-3.5-1.57-3.5-3.5s1.57-3.5,3.5-3.5h8c0.276,0,0.5,0.224,0.5,0.5s-0.224,0.5-0.5,0.5
			h-8c-1.378,0-2.5,1.121-2.5,2.5s1.122,2.5,2.5,2.5H38c0.276,0,0.5,0.224,0.5,0.5S38.276,19.084,38,19.084z"/>
	</g>
	<g>
		<path class="st0" d="M13,22.75H9c-0.276,0-0.5-0.224-0.5-0.5s0.224-0.5,0.5-0.5h4c0.276,0,0.5,0.224,0.5,0.5
			S13.276,22.75,13,22.75z"/>
	</g>
	<g>
		<path class="st0" d="M11,24.75c-0.276,0-0.5-0.224-0.5-0.5v-4c0-0.276,0.224-0.5,0.5-0.5s0.5,0.224,0.5,0.5v4
			C11.5,24.526,11.276,24.75,11,24.75z"/>
	</g>
	<g>
		<path class="st0" d="M6,29.25H2c-0.276,0-0.5-0.224-0.5-0.5s0.224-0.5,0.5-0.5h4c0.276,0,0.5,0.224,0.5,0.5S6.276,29.25,6,29.25z"
			/>
	</g>
	<g>
		<path class="st0" d="M4,31.25c-0.276,0-0.5-0.224-0.5-0.5v-4c0-0.276,0.224-0.5,0.5-0.5s0.5,0.224,0.5,0.5v4
			C4.5,31.026,4.276,31.25,4,31.25z"/>
	</g>
	<g>
		<path class="st2" d="M27,34c0-4.418,3.582-8,8-8s8,3.582,8,8"/>
		<path class="st0" d="M43,34.5c-0.276,0-0.5-0.224-0.5-0.5c0-4.136-3.364-7.5-7.5-7.5s-7.5,3.364-7.5,7.5
			c0,0.276-0.224,0.5-0.5,0.5s-0.5-0.224-0.5-0.5c0-4.687,3.813-8.5,8.5-8.5c4.687,0,8.5,3.813,8.5,8.5
			C43.5,34.276,43.276,34.5,43,34.5z"/>
	</g>
	<g>
		<path class="st2" d="M19,32c-0.552,0-1,0.448-1,1v1h7c0-0.685,0.07-1.354,0.202-2H19z"/>
	</g>
	<g>
		<path class="st2" d="M27.019,28H19c-0.552,0-1,0.448-1,1v2c0,0.552,0.448,1,1,1h6.202C25.503,30.52,26.141,29.165,27.019,28z"/>
	</g>
	<g>
		<path class="st0" d="M18,34.5c-0.276,0-0.5-0.224-0.5-0.5v-1c0-0.827,0.673-1.5,1.5-1.5h6.202c0.276,0,0.5,0.224,0.5,0.5
			s-0.224,0.5-0.5,0.5H19c-0.276,0-0.5,0.225-0.5,0.5v1C18.5,34.276,18.276,34.5,18,34.5z"/>
	</g>
	<g>
		<path class="st0" d="M25.202,32.5H19c-0.827,0-1.5-0.673-1.5-1.5v-2c0-0.827,0.673-1.5,1.5-1.5h8.019c0.276,0,0.5,0.224,0.5,0.5
			s-0.224,0.5-0.5,0.5H19c-0.276,0-0.5,0.225-0.5,0.5v2c0,0.275,0.224,0.5,0.5,0.5h6.202c0.276,0,0.5,0.224,0.5,0.5
			S25.478,32.5,25.202,32.5z"/>
	</g>
	<g>
		<path class="st0" d="M40,34.5c-0.276,0-0.5-0.224-0.5-0.5c0-2.481-2.019-4.5-4.5-4.5s-4.5,2.019-4.5,4.5
			c0,0.276-0.224,0.5-0.5,0.5s-0.5-0.224-0.5-0.5c0-3.032,2.467-5.5,5.5-5.5c3.032,0,5.5,2.468,5.5,5.5
			C40.5,34.276,40.276,34.5,40,34.5z"/>
	</g>
</g>
</svg>
