<?xml version="1.0" encoding="utf-8"?>
<!-- Generator: Adobe Illustrator 21.1.0, SVG Export Plug-In . SVG Version: 6.00 Build 0)  -->
<svg version="1.1" id="Icon_Set" xmlns="http://www.w3.org/2000/svg" xmlns:xlink="http://www.w3.org/1999/xlink" x="0px" y="0px"
	 viewBox="0 0 64 64" style="enable-background:new 0 0 64 64;" xml:space="preserve">
<style type="text/css">
	.st0{fill:#263238;}
	.st1{fill:#FFFFFF;}
	.st2{fill:#FF5252;}
	.st3{fill:#FFD740;}
	.st4{fill:#40C4FF;}
	.st5{fill:#4DB6AC;}
	.st6{fill:#4FC3F7;}
</style>
<g id="Invest_Trust">
	<g>
		<path class="st3" d="M12,9.5h15c1.381,0,2.5,1.119,2.5,2.5v15c0,1.381-1.119,2.5-2.5,2.5H12c-1.381,0-2.5-1.119-2.5-2.5V12
			C9.5,10.619,10.619,9.5,12,9.5z"/>
	</g>
	<g>
		<path class="st0" d="M22.682,23.182c-0.128,0-0.256-0.049-0.354-0.146L9.879,10.586c-0.195-0.195-0.195-0.512,0-0.707
			s0.512-0.195,0.707,0l12.449,12.449c0.195,0.195,0.195,0.512,0,0.707C22.938,23.133,22.81,23.182,22.682,23.182z"/>
	</g>
	<g>
		<path class="st0" d="M23.742,25.741c-0.512,0-1.024-0.194-1.414-0.584l0,0c-0.779-0.78-0.779-2.049,0-2.829
			c0.778-0.779,2.049-0.78,2.829,0c0.779,0.78,0.779,2.049,0,2.829C24.768,25.547,24.255,25.741,23.742,25.741z M23.035,24.45
			c0.391,0.389,1.024,0.391,1.415,0c0.39-0.39,0.39-1.025,0-1.415c-0.392-0.39-1.025-0.388-1.415,0
			C22.646,23.425,22.646,24.06,23.035,24.45z"/>
	</g>
	<g>
		<path class="st0" d="M23.304,16.111c-0.128,0-0.256-0.049-0.354-0.146l-1.622-1.622h-3.242c-0.133,0-0.26-0.053-0.354-0.146
			l-4.344-4.343c-0.195-0.195-0.195-0.512,0-0.707s0.512-0.195,0.707,0l4.197,4.196h3.242c0.133,0,0.26,0.053,0.354,0.146
			l1.769,1.769c0.195,0.195,0.195,0.512,0,0.707C23.56,16.062,23.432,16.111,23.304,16.111z"/>
	</g>
	<g>
		<path class="st0" d="M24.364,18.672c-0.535,0-1.037-0.208-1.414-0.586c-0.378-0.378-0.586-0.88-0.586-1.414
			c0-0.535,0.208-1.037,0.586-1.414c0.753-0.755,2.071-0.757,2.828,0c0.378,0.377,0.586,0.879,0.586,1.414
			c0,0.534-0.208,1.036-0.586,1.414S24.898,18.672,24.364,18.672z M24.364,15.672c-0.268,0-0.519,0.104-0.707,0.293
			c-0.189,0.188-0.293,0.439-0.293,0.707c0,0.267,0.104,0.518,0.293,0.707l0,0c0.377,0.379,1.035,0.378,1.414,0
			c0.188-0.189,0.293-0.44,0.293-0.707c0-0.268-0.104-0.519-0.293-0.707S24.631,15.672,24.364,15.672z"/>
	</g>
	<g>
		<path class="st0" d="M15.611,23.804c-0.128,0-0.256-0.049-0.354-0.146l-1.769-1.769c-0.094-0.094-0.146-0.221-0.146-0.354v-3.242
			l-4.196-4.197c-0.195-0.195-0.195-0.512,0-0.707s0.512-0.195,0.707,0l4.343,4.344c0.094,0.094,0.146,0.221,0.146,0.354v3.242
			l1.622,1.622c0.195,0.195,0.195,0.512,0,0.707C15.867,23.755,15.739,23.804,15.611,23.804z"/>
	</g>
	<g>
		<path class="st0" d="M16.672,26.364c-0.535,0-1.037-0.208-1.414-0.586c-0.378-0.378-0.586-0.88-0.586-1.414
			c0-0.535,0.208-1.037,0.586-1.414c0.754-0.756,2.072-0.756,2.828,0l0,0c0.378,0.377,0.586,0.879,0.586,1.414
			c0,0.534-0.208,1.036-0.586,1.414S17.206,26.364,16.672,26.364z M16.672,23.364c-0.268,0-0.519,0.104-0.707,0.293
			c-0.189,0.188-0.293,0.439-0.293,0.707c0,0.267,0.104,0.518,0.293,0.707c0.377,0.379,1.035,0.378,1.414,0
			c0.188-0.189,0.293-0.44,0.293-0.707c0-0.268-0.104-0.519-0.293-0.707l0,0C17.189,23.469,16.938,23.364,16.672,23.364z"/>
	</g>
	<g>
		<path class="st0" d="M27,30H12c-1.654,0-3-1.346-3-3V13.742c0-0.276,0.224-0.5,0.5-0.5s0.5,0.224,0.5,0.5V27c0,1.103,0.897,2,2,2
			h15c1.103,0,2-0.897,2-2V12c0-1.103-0.897-2-2-2H13.742c-0.276,0-0.5-0.224-0.5-0.5s0.224-0.5,0.5-0.5H27c1.654,0,3,1.346,3,3v15
			C30,28.654,28.654,30,27,30z"/>
	</g>
	<g>
		<path class="st2" d="M52,9.5H37c-1.381,0-2.5,1.119-2.5,2.5v15c0,1.381,1.119,2.5,2.5,2.5h15c1.381,0,2.5-1.119,2.5-2.5V12
			C54.5,10.619,53.381,9.5,52,9.5z"/>
	</g>
	<g>
		<path class="st0" d="M41.318,23.182c-0.128,0-0.256-0.049-0.354-0.146c-0.195-0.195-0.195-0.512,0-0.707L53.414,9.879
			c0.195-0.195,0.512-0.195,0.707,0s0.195,0.512,0,0.707L41.672,23.035C41.574,23.133,41.446,23.182,41.318,23.182z"/>
	</g>
	<g>
		<path class="st0" d="M40.257,25.741c-0.512,0-1.023-0.194-1.414-0.584c-0.779-0.78-0.779-2.049,0-2.829
			c0.777-0.779,2.048-0.78,2.829,0c0.779,0.78,0.779,2.049,0,2.829l0,0C41.281,25.547,40.77,25.741,40.257,25.741z M41.318,24.804
			h0.01H41.318z M40.258,22.743c-0.257,0-0.513,0.098-0.708,0.292c-0.39,0.39-0.39,1.025,0,1.415c0.391,0.39,1.024,0.388,1.415,0
			c0.39-0.391,0.39-1.025,0-1.415C40.77,22.841,40.514,22.743,40.258,22.743z"/>
	</g>
	<g>
		<path class="st0" d="M40.696,16.111c-0.128,0-0.256-0.049-0.354-0.146c-0.195-0.195-0.195-0.512,0-0.707l1.769-1.769
			c0.094-0.094,0.221-0.146,0.354-0.146h3.242l4.197-4.196c0.195-0.195,0.512-0.195,0.707,0s0.195,0.512,0,0.707l-4.344,4.343
			c-0.094,0.094-0.221,0.146-0.354,0.146h-3.242l-1.622,1.622C40.952,16.062,40.824,16.111,40.696,16.111z"/>
	</g>
	<g>
		<path class="st0" d="M39.636,18.672c-0.534,0-1.036-0.208-1.414-0.586s-0.586-0.88-0.586-1.414c0-0.535,0.208-1.037,0.586-1.414
			c0.756-0.757,2.074-0.755,2.828,0c0.378,0.377,0.586,0.879,0.586,1.414c0,0.534-0.208,1.036-0.586,1.414l0,0
			C40.673,18.464,40.171,18.672,39.636,18.672z M39.636,15.672c-0.267,0-0.518,0.104-0.707,0.293s-0.293,0.439-0.293,0.707
			c0,0.267,0.104,0.518,0.293,0.707c0.38,0.377,1.038,0.379,1.414,0l0,0c0.188-0.189,0.293-0.44,0.293-0.707
			c0-0.268-0.104-0.519-0.293-0.707C40.154,15.775,39.903,15.672,39.636,15.672z"/>
	</g>
	<g>
		<path class="st0" d="M48.389,23.804c-0.128,0-0.256-0.049-0.354-0.146c-0.195-0.195-0.195-0.512,0-0.707l1.622-1.622v-3.242
			c0-0.133,0.053-0.26,0.146-0.354l4.343-4.344c0.195-0.195,0.512-0.195,0.707,0s0.195,0.512,0,0.707l-4.196,4.197v3.242
			c0,0.133-0.053,0.26-0.146,0.354l-1.769,1.769C48.645,23.755,48.517,23.804,48.389,23.804z"/>
	</g>
	<g>
		<path class="st0" d="M47.328,26.364c-0.534,0-1.036-0.208-1.414-0.586s-0.586-0.88-0.586-1.414c0-0.535,0.208-1.037,0.586-1.414
			c0.757-0.757,2.075-0.756,2.828,0c0.378,0.377,0.586,0.879,0.586,1.414c0,0.534-0.208,1.036-0.586,1.414
			C48.365,26.156,47.863,26.364,47.328,26.364z M47.328,23.364c-0.267,0-0.518,0.104-0.707,0.293l0,0
			c-0.189,0.188-0.293,0.439-0.293,0.707c0,0.267,0.104,0.518,0.293,0.707c0.379,0.378,1.037,0.378,1.414,0
			c0.188-0.189,0.293-0.44,0.293-0.707c0-0.268-0.104-0.519-0.293-0.707C47.847,23.468,47.596,23.364,47.328,23.364z M46.268,23.304
			h0.01H46.268z"/>
	</g>
	<g>
		<path class="st0" d="M52,30H37c-1.654,0-3-1.346-3-3V12c0-1.654,1.346-3,3-3h13.258c0.276,0,0.5,0.224,0.5,0.5s-0.224,0.5-0.5,0.5
			H37c-1.103,0-2,0.897-2,2v15c0,1.103,0.897,2,2,2h15c1.103,0,2-0.897,2-2V13.742c0-0.276,0.224-0.5,0.5-0.5s0.5,0.224,0.5,0.5V27
			C55,28.654,53.654,30,52,30z"/>
	</g>
	<g>
		<path class="st3" d="M52,54.5H37c-1.381,0-2.5-1.119-2.5-2.5V37c0-1.381,1.119-2.5,2.5-2.5h15c1.381,0,2.5,1.119,2.5,2.5v15
			C54.5,53.381,53.381,54.5,52,54.5z"/>
	</g>
	<g>
		<path class="st0" d="M53.768,54.268c-0.128,0-0.256-0.049-0.354-0.146L40.965,41.672c-0.195-0.195-0.195-0.512,0-0.707
			s0.512-0.195,0.707,0l12.449,12.449c0.195,0.195,0.195,0.512,0,0.707C54.023,54.219,53.896,54.268,53.768,54.268z"/>
	</g>
	<g>
		<path class="st0" d="M40.257,42.256c-0.512,0-1.024-0.194-1.414-0.584c-0.779-0.78-0.779-2.049,0-2.829
			c0.777-0.778,2.048-0.78,2.829,0l0,0c0.779,0.78,0.779,2.049,0,2.829C41.282,42.062,40.77,42.256,40.257,42.256z M40.257,39.258
			c-0.256,0-0.512,0.098-0.707,0.292c-0.39,0.39-0.39,1.025,0,1.415c0.391,0.389,1.024,0.389,1.415,0c0.39-0.39,0.39-1.024,0-1.415
			C40.77,39.355,40.514,39.258,40.257,39.258z"/>
	</g>
	<g>
		<path class="st0" d="M50.258,55c-0.128,0-0.256-0.049-0.354-0.146l-4.197-4.196h-3.242c-0.133,0-0.26-0.053-0.354-0.146
			l-1.769-1.769c-0.195-0.195-0.195-0.512,0-0.707s0.512-0.195,0.707,0l1.622,1.622h3.242c0.133,0,0.26,0.053,0.354,0.146
			l4.344,4.343c0.195,0.195,0.195,0.512,0,0.707C50.514,54.951,50.386,55,50.258,55z"/>
	</g>
	<g>
		<path class="st0" d="M39.636,49.328c-0.534,0-1.036-0.208-1.414-0.586c-0.378-0.377-0.586-0.879-0.586-1.414
			c0-0.534,0.208-1.036,0.586-1.414c0.756-0.757,2.074-0.756,2.828,0c0.378,0.378,0.586,0.88,0.586,1.414
			c0,0.535-0.208,1.037-0.586,1.414C40.673,49.12,40.171,49.328,39.636,49.328z M39.636,46.328c-0.267,0-0.518,0.104-0.707,0.293
			c-0.188,0.189-0.293,0.44-0.293,0.707c0,0.268,0.104,0.519,0.293,0.707c0.38,0.378,1.038,0.378,1.414,0
			c0.189-0.188,0.293-0.439,0.293-0.707c0-0.267-0.104-0.518-0.293-0.707l0,0C40.154,46.432,39.903,46.328,39.636,46.328z"/>
	</g>
	<g>
		<path class="st0" d="M54.5,50.758c-0.128,0-0.256-0.049-0.354-0.146l-4.343-4.344c-0.094-0.094-0.146-0.221-0.146-0.354v-3.242
			l-1.622-1.622c-0.195-0.195-0.195-0.512,0-0.707s0.512-0.195,0.707,0l1.769,1.769c0.094,0.094,0.146,0.221,0.146,0.354v3.242
			l4.196,4.197c0.195,0.195,0.195,0.512,0,0.707C54.756,50.709,54.628,50.758,54.5,50.758z"/>
	</g>
	<g>
		<path class="st0" d="M47.328,41.636c-0.534,0-1.036-0.208-1.414-0.586l0,0c-0.378-0.377-0.586-0.879-0.586-1.414
			c0-0.534,0.208-1.036,0.586-1.414c0.757-0.758,2.075-0.756,2.828,0c0.378,0.378,0.586,0.88,0.586,1.414
			c0,0.535-0.208,1.037-0.586,1.414C48.365,41.428,47.863,41.636,47.328,41.636z M47.328,38.636c-0.267,0-0.518,0.104-0.707,0.293
			c-0.188,0.189-0.293,0.44-0.293,0.707c0,0.268,0.104,0.519,0.293,0.707l0,0c0.379,0.377,1.037,0.379,1.414,0
			c0.189-0.188,0.293-0.439,0.293-0.707c0-0.267-0.104-0.518-0.293-0.707S47.596,38.636,47.328,38.636z"/>
	</g>
	<g>
		<path class="st0" d="M50.258,55H37c-1.654,0-3-1.346-3-3V37c0-1.654,1.346-3,3-3h15c1.654,0,3,1.346,3,3v13.258
			c0,0.276-0.224,0.5-0.5,0.5s-0.5-0.224-0.5-0.5V37c0-1.103-0.897-2-2-2H37c-1.103,0-2,0.897-2,2v15c0,1.103,0.897,2,2,2h13.258
			c0.276,0,0.5,0.224,0.5,0.5S50.534,55,50.258,55z"/>
	</g>
	<g>
		<path class="st2" d="M12,54.5h15c1.381,0,2.5-1.119,2.5-2.5V37c0-1.381-1.119-2.5-2.5-2.5H12c-1.381,0-2.5,1.119-2.5,2.5v15
			C9.5,53.381,10.619,54.5,12,54.5z"/>
	</g>
	<g>
		<path class="st0" d="M10.232,54.268c-0.128,0-0.256-0.049-0.354-0.146c-0.195-0.195-0.195-0.512,0-0.707l12.449-12.449
			c0.195-0.195,0.512-0.195,0.707,0s0.195,0.512,0,0.707L10.586,54.121C10.488,54.219,10.36,54.268,10.232,54.268z"/>
	</g>
	<g>
		<path class="st0" d="M23.742,42.256c-0.512,0-1.024-0.194-1.414-0.584c-0.779-0.78-0.779-2.049,0-2.829l0,0
			c0.78-0.778,2.047-0.78,2.829,0c0.779,0.78,0.779,2.049,0,2.829C24.768,42.062,24.255,42.256,23.742,42.256z M23.035,39.55
			c-0.39,0.391-0.39,1.025,0,1.415c0.392,0.389,1.025,0.389,1.415,0c0.39-0.39,0.39-1.025,0-1.415
			C24.059,39.16,23.425,39.162,23.035,39.55z"/>
	</g>
	<g>
		<path class="st0" d="M13.742,55c-0.128,0-0.256-0.049-0.354-0.146c-0.195-0.195-0.195-0.512,0-0.707l4.344-4.343
			c0.094-0.094,0.221-0.146,0.354-0.146h3.242l1.622-1.622c0.195-0.195,0.512-0.195,0.707,0s0.195,0.512,0,0.707l-1.769,1.769
			c-0.094,0.094-0.221,0.146-0.354,0.146h-3.242l-4.197,4.196C13.998,54.951,13.87,55,13.742,55z"/>
	</g>
	<g>
		<path class="st0" d="M24.364,49.328c-0.535,0-1.037-0.208-1.414-0.586c-0.378-0.377-0.586-0.879-0.586-1.414
			c0-0.534,0.208-1.036,0.586-1.414l0,0c0.753-0.755,2.071-0.757,2.828,0c0.378,0.378,0.586,0.88,0.586,1.414
			c0,0.535-0.208,1.037-0.586,1.414C25.4,49.12,24.898,49.328,24.364,49.328z M24.364,46.328c-0.268,0-0.519,0.104-0.707,0.293l0,0
			c-0.188,0.189-0.293,0.44-0.293,0.707c0,0.268,0.104,0.519,0.293,0.707c0.377,0.379,1.035,0.378,1.414,0
			c0.189-0.188,0.293-0.439,0.293-0.707c0-0.267-0.104-0.518-0.293-0.707C24.882,46.433,24.631,46.328,24.364,46.328z
			 M23.304,46.268h0.01H23.304z"/>
	</g>
	<g>
		<path class="st0" d="M9.5,50.758c-0.128,0-0.256-0.049-0.354-0.146c-0.195-0.195-0.195-0.512,0-0.707l4.196-4.197v-3.242
			c0-0.133,0.053-0.26,0.146-0.354l1.769-1.769c0.195-0.195,0.512-0.195,0.707,0s0.195,0.512,0,0.707l-1.622,1.622v3.242
			c0,0.133-0.053,0.26-0.146,0.354l-4.343,4.344C9.756,50.709,9.628,50.758,9.5,50.758z"/>
	</g>
	<g>
		<path class="st0" d="M16.672,41.636c-0.535,0-1.037-0.208-1.414-0.586c-0.378-0.377-0.586-0.879-0.586-1.414
			c0-0.534,0.208-1.036,0.586-1.414c0.754-0.755,2.072-0.757,2.828,0c0.378,0.378,0.586,0.88,0.586,1.414
			c0,0.535-0.208,1.037-0.586,1.414C17.708,41.428,17.206,41.636,16.672,41.636z M16.672,38.636c-0.268,0-0.519,0.104-0.707,0.293
			s-0.293,0.44-0.293,0.707c0,0.268,0.104,0.519,0.293,0.707c0.377,0.379,1.035,0.378,1.414,0l0,0
			c0.189-0.188,0.293-0.439,0.293-0.707c0-0.267-0.104-0.518-0.293-0.707C17.189,38.74,16.938,38.636,16.672,38.636z"/>
	</g>
	<g>
		<path class="st0" d="M27,55H13.742c-0.276,0-0.5-0.224-0.5-0.5s0.224-0.5,0.5-0.5H27c1.103,0,2-0.897,2-2V37c0-1.103-0.897-2-2-2
			H12c-1.103,0-2,0.897-2,2v13.258c0,0.276-0.224,0.5-0.5,0.5S9,50.534,9,50.258V37c0-1.654,1.346-3,3-3h15c1.654,0,3,1.346,3,3v15
			C30,53.654,28.654,55,27,55z"/>
	</g>
	<g>
		<path class="st0" d="M14,59h-1c-0.276,0-0.5-0.224-0.5-0.5S12.724,58,13,58h1c0.276,0,0.5,0.224,0.5,0.5S14.276,59,14,59z"/>
	</g>
	<g>
		<path class="st0" d="M26,59H16c-0.276,0-0.5-0.224-0.5-0.5S15.724,58,16,58h10c0.276,0,0.5,0.224,0.5,0.5S26.276,59,26,59z"/>
	</g>
	<g>
		<path class="st0" d="M51,6h-1c-0.276,0-0.5-0.224-0.5-0.5S49.724,5,50,5h1c0.276,0,0.5,0.224,0.5,0.5S51.276,6,51,6z"/>
	</g>
	<g>
		<path class="st0" d="M48,6H38c-0.276,0-0.5-0.224-0.5-0.5S37.724,5,38,5h10c0.276,0,0.5,0.224,0.5,0.5S48.276,6,48,6z"/>
	</g>
</g>
</svg>
