<?xml version="1.0" encoding="utf-8"?>
<!-- Generator: Adobe Illustrator 21.1.0, SVG Export Plug-In . SVG Version: 6.00 Build 0)  -->
<svg version="1.1" id="Icon_Set" xmlns="http://www.w3.org/2000/svg" xmlns:xlink="http://www.w3.org/1999/xlink" x="0px" y="0px"
	 viewBox="0 0 64 64" style="enable-background:new 0 0 64 64;" xml:space="preserve">
<style type="text/css">
	.st0{fill:#263238;}
	.st1{fill:#FF5252;}
	.st2{fill:#FFD740;}
	.st3{fill:#40C4FF;}
	.st4{fill:#FFFFFF;}
	.st5{fill:#4DB6AC;}
	.st6{fill:#4FC3F7;}
</style>
<g id="Ledger">
	<g>
		<path class="st0" d="M8,51H7.5c-1.654,0-3-1.346-3-3V5c0-1.654,1.346-3,3-3h31c1.654,0,3,1.346,3,3v0.5C41.5,5.776,41.276,6,41,6
			s-0.5-0.224-0.5-0.5V5c0-1.103-0.897-2-2-2h-31c-1.103,0-2,0.897-2,2v43c0,1.103,0.897,2,2,2H8c0.276,0,0.5,0.224,0.5,0.5
			S8.276,51,8,51z"/>
	</g>
	<g>
		<path class="st0" d="M52.258,39.322c-0.133,0-0.26-0.053-0.354-0.146l-4.243-4.243c-0.094-0.094-0.146-0.221-0.146-0.354
			s0.053-0.26,0.146-0.354l2.011-2.01c1.132-1.132,3.108-1.134,4.242,0l0.707,0.707c0.566,0.566,0.879,1.32,0.879,2.121
			c0,0.802-0.312,1.555-0.879,2.121l-2.01,2.011C52.518,39.27,52.391,39.322,52.258,39.322z M48.722,34.579l3.536,3.536l1.656-1.657
			c0.378-0.378,0.586-0.88,0.586-1.414s-0.208-1.036-0.586-1.414l-0.707-0.707c-0.756-0.756-2.072-0.756-2.828,0L48.722,34.579z"/>
	</g>
	<g>
		<path class="st0" d="M26.337,61c-0.131,0-0.258-0.051-0.354-0.146c-0.134-0.134-0.181-0.332-0.121-0.512l2.121-6.364
			c0.024-0.073,0.066-0.141,0.121-0.195l2.122-2.121c0.195-0.195,0.512-0.195,0.707,0l4.242,4.243c0.195,0.195,0.195,0.512,0,0.707
			l-2.121,2.121c-0.055,0.055-0.122,0.097-0.195,0.121l-6.364,2.121C26.443,60.991,26.39,61,26.337,61z M28.895,54.406l-1.768,5.304
			l5.304-1.769l1.685-1.684l-3.535-3.536L28.895,54.406z"/>
	</g>
	<g>
		<path class="st0" d="M26.337,61c-0.131,0-0.258-0.051-0.354-0.146c-0.134-0.134-0.181-0.332-0.121-0.512l1.414-4.242
			c0.055-0.164,0.191-0.289,0.359-0.328c0.168-0.043,0.347,0.011,0.469,0.133l2.829,2.828c0.122,0.122,0.173,0.3,0.133,0.469
			c-0.039,0.168-0.164,0.305-0.328,0.359l-4.243,1.414C26.443,60.991,26.39,61,26.337,61z M27.97,57.184l-0.842,2.526l2.526-0.843
			L27.97,57.184z"/>
	</g>
	<g>
		
			<rect x="29.09" y="42.418" transform="matrix(0.7071 -0.7071 0.7071 0.7071 -19.9844 42.5902)" class="st1" width="24.657" height="6"/>
		<path class="st0" d="M34.822,56.758L34.822,56.758c-0.133,0-0.26-0.053-0.354-0.146l-4.242-4.243
			c-0.195-0.195-0.195-0.512,0-0.707l17.435-17.436c0.188-0.188,0.52-0.188,0.707,0l4.243,4.243c0.195,0.195,0.195,0.512,0,0.707
			L35.176,56.611C35.082,56.705,34.955,56.758,34.822,56.758z M31.287,52.015l3.535,3.536l16.729-16.729l-3.536-3.536L31.287,52.015
			z"/>
	</g>
	<g>
		<path class="st0" d="M25.895,56H12.5c-1.654,0-3-1.346-3-3V10c0-1.654,1.346-3,3-3h31c1.654,0,3,1.346,3,3v23.766
			c0,0.276-0.224,0.5-0.5,0.5s-0.5-0.224-0.5-0.5V10c0-1.103-0.897-2-2-2h-31c-1.103,0-2,0.897-2,2v43c0,1.103,0.897,2,2,2h13.395
			c0.276,0,0.5,0.224,0.5,0.5S26.171,56,25.895,56z"/>
	</g>
	<g>
		<path class="st0" d="M43.5,56h-5.092c-0.276,0-0.5-0.224-0.5-0.5s0.224-0.5,0.5-0.5H43.5c1.103,0,2-0.897,2-2v-5.092
			c0-0.276,0.224-0.5,0.5-0.5s0.5,0.224,0.5,0.5V53C46.5,54.654,45.154,56,43.5,56z"/>
	</g>
	<g>
		<rect x="13.5" y="32.5" class="st2" width="4" height="8"/>
		<path class="st0" d="M17.5,41h-4c-0.276,0-0.5-0.224-0.5-0.5v-8c0-0.276,0.224-0.5,0.5-0.5h4c0.276,0,0.5,0.224,0.5,0.5v8
			C18,40.776,17.776,41,17.5,41z M14,40h3v-7h-3V40z"/>
	</g>
	<g>
		<rect x="20.5" y="26.5" class="st2" width="4" height="14"/>
		<path class="st0" d="M24.5,41h-4c-0.276,0-0.5-0.224-0.5-0.5v-14c0-0.276,0.224-0.5,0.5-0.5h4c0.276,0,0.5,0.224,0.5,0.5v14
			C25,40.776,24.776,41,24.5,41z M21,40h3V27h-3V40z"/>
	</g>
	<g>
		<rect x="27.5" y="29.5" class="st2" width="4" height="11"/>
		<path class="st0" d="M31.5,41h-4c-0.276,0-0.5-0.224-0.5-0.5v-11c0-0.276,0.224-0.5,0.5-0.5h4c0.276,0,0.5,0.224,0.5,0.5v11
			C32,40.776,31.776,41,31.5,41z M28,40h3V30h-3V40z"/>
	</g>
	<g>
		<path class="st0" d="M43,21H13c-0.276,0-0.5-0.224-0.5-0.5S12.724,20,13,20h30c0.276,0,0.5,0.224,0.5,0.5S43.276,21,43,21z"/>
	</g>
	<g>
		<path class="st0" d="M41.25,14.5H38.5c-0.276,0-0.5-0.224-0.5-0.5v-2.5c0-0.276,0.224-0.5,0.5-0.5h2.75
			c0.965,0,1.75,0.785,1.75,1.75S42.215,14.5,41.25,14.5z M39,13.5h2.25c0.413,0,0.75-0.337,0.75-0.75S41.663,12,41.25,12H39V13.5z"
			/>
	</g>
	<g>
		<path class="st0" d="M38.5,12h-1c-0.276,0-0.5-0.224-0.5-0.5s0.224-0.5,0.5-0.5h1c0.276,0,0.5,0.224,0.5,0.5S38.776,12,38.5,12z"
			/>
	</g>
	<g>
		<path class="st0" d="M38.5,17h-1c-0.276,0-0.5-0.224-0.5-0.5s0.224-0.5,0.5-0.5h1c0.276,0,0.5,0.224,0.5,0.5S38.776,17,38.5,17z"
			/>
	</g>
	<g>
		<path class="st0" d="M39,12c-0.276,0-0.5-0.224-0.5-0.5v-1c0-0.276,0.224-0.5,0.5-0.5s0.5,0.224,0.5,0.5v1
			C39.5,11.776,39.276,12,39,12z"/>
	</g>
	<g>
		<path class="st0" d="M41,12c-0.276,0-0.5-0.224-0.5-0.5v-1c0-0.276,0.224-0.5,0.5-0.5s0.5,0.224,0.5,0.5v1
			C41.5,11.776,41.276,12,41,12z"/>
	</g>
	<g>
		<path class="st0" d="M39,18c-0.276,0-0.5-0.224-0.5-0.5v-1c0-0.276,0.224-0.5,0.5-0.5s0.5,0.224,0.5,0.5v1
			C39.5,17.776,39.276,18,39,18z"/>
	</g>
	<g>
		<path class="st0" d="M41,18c-0.276,0-0.5-0.224-0.5-0.5v-1c0-0.276,0.224-0.5,0.5-0.5s0.5,0.224,0.5,0.5v1
			C41.5,17.776,41.276,18,41,18z"/>
	</g>
	<g>
		<path class="st0" d="M41.75,17H38.5c-0.276,0-0.5-0.224-0.5-0.5V14c0-0.276,0.224-0.5,0.5-0.5h3.25c0.965,0,1.75,0.785,1.75,1.75
			S42.715,17,41.75,17z M39,16h2.75c0.413,0,0.75-0.337,0.75-0.75s-0.337-0.75-0.75-0.75H39V16z"/>
	</g>
	<g>
		<path class="st0" d="M43,30h-7.5c-0.276,0-0.5-0.224-0.5-0.5s0.224-0.5,0.5-0.5H43c0.276,0,0.5,0.224,0.5,0.5S43.276,30,43,30z"/>
	</g>
	<g>
		<path class="st0" d="M43,33h-7.5c-0.276,0-0.5-0.224-0.5-0.5s0.224-0.5,0.5-0.5H43c0.276,0,0.5,0.224,0.5,0.5S43.276,33,43,33z"/>
	</g>
	<g>
		<path class="st0" d="M43,36h-7.5c-0.276,0-0.5-0.224-0.5-0.5s0.224-0.5,0.5-0.5H43c0.276,0,0.5,0.224,0.5,0.5S43.276,36,43,36z"/>
	</g>
	<g>
		<path class="st0" d="M50,61h-1c-0.276,0-0.5-0.224-0.5-0.5S48.724,60,49,60h1c0.276,0,0.5,0.224,0.5,0.5S50.276,61,50,61z"/>
	</g>
	<g>
		<path class="st0" d="M47,61H37c-0.276,0-0.5-0.224-0.5-0.5S36.724,60,37,60h10c0.276,0,0.5,0.224,0.5,0.5S47.276,61,47,61z"/>
	</g>
	<g>
		<path class="st0" d="M11,61h-1c-0.276,0-0.5-0.224-0.5-0.5S9.724,60,10,60h1c0.276,0,0.5,0.224,0.5,0.5S11.276,61,11,61z"/>
	</g>
	<g>
		<path class="st0" d="M23,61H13c-0.276,0-0.5-0.224-0.5-0.5S12.724,60,13,60h10c0.276,0,0.5,0.224,0.5,0.5S23.276,61,23,61z"/>
	</g>
	<g>
		<path class="st0" d="M59,17h-4c-0.276,0-0.5-0.224-0.5-0.5S54.724,16,55,16h4c0.276,0,0.5,0.224,0.5,0.5S59.276,17,59,17z"/>
	</g>
	<g>
		<path class="st0" d="M57,19c-0.276,0-0.5-0.224-0.5-0.5v-4c0-0.276,0.224-0.5,0.5-0.5s0.5,0.224,0.5,0.5v4
			C57.5,18.776,57.276,19,57,19z"/>
	</g>
	<g>
		<path class="st0" d="M54.5,23h-4c-0.276,0-0.5-0.224-0.5-0.5s0.224-0.5,0.5-0.5h4c0.276,0,0.5,0.224,0.5,0.5S54.776,23,54.5,23z"
			/>
	</g>
	<g>
		<path class="st0" d="M52.5,25c-0.276,0-0.5-0.224-0.5-0.5v-4c0-0.276,0.224-0.5,0.5-0.5s0.5,0.224,0.5,0.5v4
			C53,24.776,52.776,25,52.5,25z"/>
	</g>
</g>
</svg>
