<?xml version="1.0" encoding="utf-8"?>
<!-- Generator: Adobe Illustrator 21.1.0, SVG Export Plug-In . SVG Version: 6.00 Build 0)  -->
<svg version="1.1" id="Icon_Set" xmlns="http://www.w3.org/2000/svg" xmlns:xlink="http://www.w3.org/1999/xlink" x="0px" y="0px"
	 viewBox="0 0 64 64" style="enable-background:new 0 0 64 64;" xml:space="preserve">
<style type="text/css">
	.st0{fill:#263238;}
	.st1{fill:#FFFFFF;}
	.st2{fill:#FF5252;}
	.st3{fill:#FFD740;}
	.st4{fill:#40C4FF;}
	.st5{fill:#4DB6AC;}
	.st6{fill:#4FC3F7;}
</style>
<g id="Litecoin">
	<g>
		<path class="st0" d="M29.5,61.25h-1c-0.276,0-0.5-0.224-0.5-0.5s0.224-0.5,0.5-0.5h1c0.276,0,0.5,0.224,0.5,0.5
			S29.776,61.25,29.5,61.25z"/>
	</g>
	<g>
		<circle class="st4" cx="31.25" cy="32.75" r="24"/>
		<path class="st0" d="M31.25,57.25c-13.509,0-24.5-10.991-24.5-24.5s10.991-24.5,24.5-24.5c13.51,0,24.5,10.991,24.5,24.5
			S44.76,57.25,31.25,57.25z M31.25,9.25c-12.958,0-23.5,10.542-23.5,23.5s10.542,23.5,23.5,23.5s23.5-10.542,23.5-23.5
			S44.208,9.25,31.25,9.25z"/>
	</g>
	<g>
		<path class="st0" d="M31.25,53.25c-11.304,0-20.5-9.196-20.5-20.5s9.196-20.5,20.5-20.5s20.5,9.196,20.5,20.5
			S42.554,53.25,31.25,53.25z M31.25,13.25c-10.752,0-19.5,8.748-19.5,19.5s8.748,19.5,19.5,19.5c10.752,0,19.5-8.748,19.5-19.5
			S42.002,13.25,31.25,13.25z"/>
	</g>
	<g>
		<path class="st0" d="M3.25,33.25c-0.276,0-0.5-0.224-0.5-0.5c0-15.715,12.785-28.5,28.5-28.5c0.276,0,0.5,0.224,0.5,0.5
			s-0.224,0.5-0.5,0.5c-15.164,0-27.5,12.336-27.5,27.5C3.75,33.026,3.526,33.25,3.25,33.25z"/>
	</g>
	<g>
		<path class="st0" d="M34.25,5.25h-1c-0.276,0-0.5-0.224-0.5-0.5s0.224-0.5,0.5-0.5h1c0.276,0,0.5,0.224,0.5,0.5
			S34.526,5.25,34.25,5.25z"/>
	</g>
	<g>
		<path class="st0" d="M31.25,61.25c-0.276,0-0.5-0.224-0.5-0.5s0.224-0.5,0.5-0.5c15.163,0,27.5-12.336,27.5-27.5
			c0-0.276,0.224-0.5,0.5-0.5s0.5,0.224,0.5,0.5C59.75,48.465,46.965,61.25,31.25,61.25z"/>
	</g>
	<g>
		<path class="st0" d="M53.75,5.75h-4c-0.276,0-0.5-0.224-0.5-0.5s0.224-0.5,0.5-0.5h4c0.276,0,0.5,0.224,0.5,0.5
			S54.026,5.75,53.75,5.75z"/>
	</g>
	<g>
		<path class="st0" d="M51.75,7.75c-0.276,0-0.5-0.224-0.5-0.5v-4c0-0.276,0.224-0.5,0.5-0.5s0.5,0.224,0.5,0.5v4
			C52.25,7.526,52.026,7.75,51.75,7.75z"/>
	</g>
	<g>
		<path class="st0" d="M60.75,12.25h-4c-0.276,0-0.5-0.224-0.5-0.5s0.224-0.5,0.5-0.5h4c0.276,0,0.5,0.224,0.5,0.5
			S61.026,12.25,60.75,12.25z"/>
	</g>
	<g>
		<path class="st0" d="M58.75,14.25c-0.276,0-0.5-0.224-0.5-0.5v-4c0-0.276,0.224-0.5,0.5-0.5s0.5,0.224,0.5,0.5v4
			C59.25,14.026,59.026,14.25,58.75,14.25z"/>
	</g>
	<g>
		<polygon class="st1" points="30.248,38.008 31.015,34.364 32.673,33.772 33.64,29.179 31.982,29.771 33.613,22.023 28.721,20.992 
			26.457,31.745 24.8,32.337 23.833,36.929 25.49,36.337 24.086,43.008 39.167,43.008 40.167,38.008 		"/>
		<path class="st0" d="M39.167,43.508H24.086c-0.151,0-0.293-0.068-0.388-0.185c-0.095-0.117-0.132-0.271-0.101-0.418l1.22-5.796
			L24.001,37.4c-0.17,0.061-0.361,0.025-0.497-0.094c-0.137-0.119-0.198-0.302-0.161-0.479l0.967-4.592
			c0.036-0.17,0.157-0.309,0.321-0.368l1.394-0.498l2.206-10.479c0.027-0.13,0.105-0.243,0.216-0.316
			c0.11-0.072,0.246-0.099,0.376-0.07l4.893,1.03c0.27,0.057,0.442,0.322,0.386,0.592L32.655,29l0.816-0.291
			c0.169-0.06,0.359-0.025,0.497,0.094c0.136,0.119,0.197,0.302,0.16,0.479l-0.967,4.592c-0.036,0.17-0.157,0.31-0.321,0.368
			l-1.395,0.499l-0.583,2.767h9.303c0.149,0,0.292,0.067,0.387,0.183s0.133,0.268,0.104,0.415l-1,5
			C39.61,43.339,39.405,43.508,39.167,43.508z M24.702,42.508h14.055l0.8-4h-9.309c-0.151,0-0.293-0.068-0.388-0.185
			c-0.095-0.117-0.132-0.271-0.101-0.418l0.767-3.644c0.036-0.17,0.157-0.31,0.321-0.368l1.395-0.499l0.725-3.444l-0.816,0.291
			c-0.17,0.06-0.36,0.025-0.497-0.094c-0.137-0.119-0.198-0.302-0.161-0.479l1.529-7.259l-3.915-0.824l-2.161,10.263
			c-0.036,0.17-0.157,0.309-0.321,0.368l-1.394,0.498l-0.725,3.444l0.816-0.291c0.169-0.061,0.36-0.025,0.497,0.094
			c0.137,0.119,0.198,0.302,0.161,0.479L24.702,42.508z"/>
	</g>
</g>
</svg>
