<?xml version="1.0" encoding="utf-8"?>
<!-- Generator: Adobe Illustrator 21.1.0, SVG Export Plug-In . SVG Version: 6.00 Build 0)  -->
<svg version="1.1" id="Icon_Set" xmlns="http://www.w3.org/2000/svg" xmlns:xlink="http://www.w3.org/1999/xlink" x="0px" y="0px"
	 viewBox="0 0 64 64" style="enable-background:new 0 0 64 64;" xml:space="preserve">
<style type="text/css">
	.st0{fill:#263238;}
	.st1{fill:#FFFFFF;}
	.st2{fill:#FF5252;}
	.st3{fill:#FFD740;}
	.st4{fill:#40C4FF;}
	.st5{fill:#4DB6AC;}
	.st6{fill:#4FC3F7;}
</style>
<g id="Litecoin_Accepted_Here">
	<g>
		<path class="st4" d="M61,46.75H32c-1.381,0-2.5-1.119-2.5-2.5v-19c0-1.381,1.119-2.5,2.5-2.5h29c1.381,0,2.5,1.119,2.5,2.5v19
			C63.5,45.631,62.381,46.75,61,46.75z"/>
	</g>
	<g>
		<circle class="st3" cx="18.5" cy="34.75" r="18"/>
		<path class="st0" d="M18.5,53.25C8.299,53.25,0,44.951,0,34.75s8.299-18.5,18.5-18.5S37,24.549,37,34.75S28.701,53.25,18.5,53.25z
			 M18.5,17.25C8.851,17.25,1,25.101,1,34.75s7.851,17.5,17.5,17.5S36,44.399,36,34.75S28.149,17.25,18.5,17.25z"/>
	</g>
	<g>
		<path class="st0" d="M18.5,50.25C9.953,50.25,3,43.297,3,34.75s6.953-15.5,15.5-15.5S34,26.203,34,34.75S27.047,50.25,18.5,50.25z
			 M18.5,20.25c-7.995,0-14.5,6.505-14.5,14.5s6.505,14.5,14.5,14.5S33,42.745,33,34.75S26.495,20.25,18.5,20.25z"/>
	</g>
	<g>
		<path class="st1" d="M47.379,40.846c-0.384,0-0.768-0.146-1.061-0.439l-4.95-4.95c-0.586-0.585-0.586-1.535,0-2.121
			s1.535-0.586,2.121,0l3.89,3.889l8.132-8.132c0.586-0.586,1.535-0.586,2.121,0c0.586,0.585,0.586,1.536,0,2.121l-9.192,9.192
			C48.147,40.7,47.763,40.846,47.379,40.846z"/>
		<path class="st0" d="M47.379,41.346c-0.534,0-1.036-0.208-1.414-0.586l-4.95-4.95c-0.378-0.377-0.586-0.879-0.586-1.414
			c0-0.534,0.208-1.036,0.586-1.414c0.756-0.756,2.072-0.756,2.828,0l3.536,3.536l7.778-7.778c0.779-0.78,2.049-0.78,2.828,0
			c0.378,0.377,0.586,0.88,0.586,1.414s-0.208,1.037-0.586,1.414l-9.192,9.192C48.415,41.138,47.913,41.346,47.379,41.346z
			 M42.429,33.396c-0.267,0-0.518,0.104-0.707,0.293c-0.188,0.189-0.293,0.44-0.293,0.707s0.104,0.518,0.293,0.707l4.95,4.95
			c0.379,0.378,1.035,0.378,1.414,0l9.192-9.192c0.188-0.189,0.293-0.44,0.293-0.707s-0.104-0.518-0.293-0.707
			c-0.391-0.39-1.023-0.39-1.414,0l-8.132,8.132c-0.195,0.195-0.512,0.195-0.707,0l-3.89-3.889
			C42.946,33.5,42.695,33.396,42.429,33.396z"/>
	</g>
	<g>
		<path class="st0" d="M32,14.25c-0.215,0-0.406-0.138-0.475-0.342l-0.553-1.658c-0.229-0.691-0.78-1.242-1.473-1.473l-1.658-0.553
			C27.638,10.156,27.5,9.965,27.5,9.75s0.138-0.406,0.342-0.474L29.5,8.723c0.692-0.231,1.243-0.782,1.473-1.473l0.553-1.659
			c0.137-0.408,0.812-0.408,0.949,0l0.553,1.658c0.229,0.691,0.78,1.242,1.473,1.473l1.658,0.553C36.362,9.344,36.5,9.535,36.5,9.75
			s-0.138,0.406-0.342,0.474L34.5,10.777c-0.692,0.231-1.243,0.782-1.473,1.473l-0.553,1.659C32.406,14.112,32.215,14.25,32,14.25z
			 M29.581,9.75l0.235,0.079c0.989,0.33,1.776,1.117,2.105,2.105L32,12.169l0.078-0.235c0.329-0.988,1.116-1.775,2.105-2.105
			l0.235-0.079l-0.235-0.079c-0.989-0.33-1.776-1.117-2.105-2.105L32,7.331l-0.078,0.235c-0.329,0.988-1.116,1.775-2.105,2.105
			L29.581,9.75z"/>
	</g>
	<g>
		<path class="st0" d="M23.5,58.75h-1c-0.276,0-0.5-0.224-0.5-0.5s0.224-0.5,0.5-0.5h1c0.276,0,0.5,0.224,0.5,0.5
			S23.776,58.75,23.5,58.75z"/>
	</g>
	<g>
		<path class="st0" d="M40.5,58.75h-15c-0.276,0-0.5-0.224-0.5-0.5s0.224-0.5,0.5-0.5h15c0.276,0,0.5,0.224,0.5,0.5
			S40.776,58.75,40.5,58.75z"/>
	</g>
	<g>
		<path class="st0" d="M48.5,55.75h-1c-0.276,0-0.5-0.224-0.5-0.5s0.224-0.5,0.5-0.5h1c0.276,0,0.5,0.224,0.5,0.5
			S48.776,55.75,48.5,55.75z"/>
	</g>
	<g>
		<path class="st0" d="M45.5,55.75h-15c-0.276,0-0.5-0.224-0.5-0.5s0.224-0.5,0.5-0.5h15c0.276,0,0.5,0.224,0.5,0.5
			S45.776,55.75,45.5,55.75z"/>
	</g>
	<g>
		<polygon class="st1" points="16.844,38.72 17.736,35.269 19.394,34.739 20.16,31.343 18.503,31.874 19.793,26.161 15.891,25.28 
			14.082,33.288 12.425,33.819 11.658,37.214 13.316,36.684 11.84,43.22 24.342,43.22 25.342,38.72 		"/>
		<path class="st0" d="M24.342,43.72H11.84c-0.152,0-0.296-0.069-0.391-0.188s-0.131-0.274-0.097-0.422l1.282-5.684l-0.824,0.264
			c-0.17,0.056-0.357,0.014-0.49-0.107c-0.132-0.121-0.189-0.304-0.149-0.479l0.767-3.395c0.039-0.172,0.166-0.312,0.335-0.366
			l1.385-0.444l1.746-7.729c0.061-0.269,0.327-0.438,0.598-0.377l3.902,0.881c0.129,0.029,0.241,0.109,0.312,0.221
			c0.07,0.112,0.094,0.248,0.064,0.377l-1.097,4.86l0.824-0.264c0.171-0.055,0.358-0.014,0.49,0.107
			c0.132,0.121,0.189,0.304,0.149,0.479l-0.767,3.395c-0.039,0.172-0.166,0.312-0.335,0.366l-1.395,0.447l-0.662,2.559h7.853
			c0.151,0,0.295,0.069,0.39,0.187c0.096,0.119,0.131,0.273,0.099,0.421l-1,4.5C24.779,43.558,24.576,43.72,24.342,43.72z
			 M12.465,42.72H23.94l0.778-3.5h-7.875c-0.154,0-0.301-0.072-0.396-0.194c-0.095-0.123-0.127-0.282-0.089-0.431l0.893-3.451
			c0.043-0.167,0.168-0.299,0.332-0.351l1.385-0.444l0.511-2.263l-0.824,0.264c-0.17,0.056-0.358,0.014-0.49-0.107
			c-0.132-0.121-0.189-0.304-0.149-0.479l1.18-5.225l-2.927-0.661l-1.699,7.521c-0.039,0.172-0.166,0.312-0.335,0.366l-1.385,0.444
			l-0.511,2.263l0.824-0.264c0.171-0.055,0.357-0.014,0.49,0.107c0.132,0.121,0.189,0.304,0.149,0.479L12.465,42.72z"/>
	</g>
</g>
</svg>
