<?xml version="1.0" encoding="utf-8"?>
<!-- Generator: Adobe Illustrator 21.1.0, SVG Export Plug-In . SVG Version: 6.00 Build 0)  -->
<svg version="1.1" id="Icon_Set" xmlns="http://www.w3.org/2000/svg" xmlns:xlink="http://www.w3.org/1999/xlink" x="0px" y="0px"
	 viewBox="0 0 64 64" style="enable-background:new 0 0 64 64;" xml:space="preserve">
<style type="text/css">
	.st0{fill:#263238;}
	.st1{fill:#FFFFFF;}
	.st2{fill:#FF5252;}
	.st3{fill:#FFD740;}
	.st4{fill:#40C4FF;}
	.st5{fill:#4DB6AC;}
	.st6{fill:#4FC3F7;}
</style>
<g id="Mining_Hardware">
	<g>
		<path class="st3" d="M48.5,32h-27V10h27c0.552,0,1,0.448,1,1v20C49.5,31.552,49.052,32,48.5,32z"/>
		<path class="st0" d="M48.5,32.5h-27c-0.276,0-0.5-0.224-0.5-0.5V10c0-0.276,0.224-0.5,0.5-0.5h27c0.827,0,1.5,0.673,1.5,1.5v20
			C50,31.827,49.327,32.5,48.5,32.5z M22,31.5h26.5c0.275,0,0.5-0.224,0.5-0.5V11c0-0.276-0.225-0.5-0.5-0.5H22V31.5z"/>
	</g>
	<g>
		<path class="st0" d="M49.5,21.5h-28c-0.276,0-0.5-0.224-0.5-0.5s0.224-0.5,0.5-0.5h28c0.276,0,0.5,0.224,0.5,0.5
			S49.776,21.5,49.5,21.5z"/>
	</g>
	<g>
		<path class="st0" d="M25,17.5c-1.103,0-2-0.897-2-2s0.897-2,2-2s2,0.897,2,2S26.103,17.5,25,17.5z M25,14.5c-0.551,0-1,0.449-1,1
			s0.449,1,1,1s1-0.449,1-1S25.551,14.5,25,14.5z"/>
	</g>
	<g>
		<path class="st0" d="M25,28.5c-1.103,0-2-0.897-2-2s0.897-2,2-2s2,0.897,2,2S26.103,28.5,25,28.5z M25,25.5c-0.551,0-1,0.449-1,1
			s0.449,1,1,1s1-0.449,1-1S25.551,25.5,25,25.5z"/>
	</g>
	<g>
		<path class="st0" d="M46,17.5c-1.103,0-2-0.897-2-2s0.897-2,2-2s2,0.897,2,2S47.103,17.5,46,17.5z M46,14.5c-0.552,0-1,0.449-1,1
			s0.448,1,1,1s1-0.449,1-1S46.552,14.5,46,14.5z"/>
	</g>
	<g>
		<path class="st0" d="M46,28.5c-1.103,0-2-0.897-2-2s0.897-2,2-2s2,0.897,2,2S47.103,28.5,46,28.5z M46,25.5c-0.552,0-1,0.449-1,1
			s0.448,1,1,1s1-0.449,1-1S46.552,25.5,46,25.5z"/>
	</g>
	<g>
		<path class="st0" d="M10.5,27.5C6.916,27.5,4,24.584,4,21s2.916-6.5,6.5-6.5S17,17.416,17,21S14.084,27.5,10.5,27.5z M10.5,15.5
			C7.467,15.5,5,17.967,5,21s2.467,5.5,5.5,5.5S16,24.033,16,21S13.533,15.5,10.5,15.5z"/>
	</g>
	<g>
		<path class="st0" d="M10.5,24.5C8.57,24.5,7,22.93,7,21s1.57-3.5,3.5-3.5S14,19.07,14,21S12.43,24.5,10.5,24.5z M10.5,18.5
			C9.122,18.5,8,19.622,8,21s1.122,2.5,2.5,2.5S13,22.378,13,21S11.878,18.5,10.5,18.5z"/>
	</g>
	<g>
		<path class="st0" d="M6.5,25.5c-0.128,0-0.256-0.049-0.354-0.146c-0.195-0.195-0.195-0.512,0-0.707l8-8
			c0.195-0.195,0.512-0.195,0.707,0s0.195,0.512,0,0.707l-8,8C6.756,25.451,6.628,25.5,6.5,25.5z"/>
	</g>
	<g>
		<path class="st0" d="M14.5,25.5c-0.128,0-0.256-0.049-0.354-0.146l-8-8c-0.195-0.195-0.195-0.512,0-0.707s0.512-0.195,0.707,0l8,8
			c0.195,0.195,0.195,0.512,0,0.707C14.756,25.451,14.628,25.5,14.5,25.5z"/>
	</g>
	<g>
		<path class="st0" d="M16,29.5H5c-1.654,0-3-1.346-3-3v-11c0-1.654,1.346-3,3-3h11c1.654,0,3,1.346,3,3v11
			C19,28.154,17.654,29.5,16,29.5z M5,13.5c-1.103,0-2,0.897-2,2v11c0,1.103,0.897,2,2,2h11c1.103,0,2-0.897,2-2v-11
			c0-1.103-0.897-2-2-2H5z"/>
	</g>
	<g>
		<path class="st0" d="M21.5,32.5h-15C5.673,32.5,5,31.827,5,31v-2c0-0.276,0.224-0.5,0.5-0.5S6,28.724,6,29v2
			c0,0.276,0.224,0.5,0.5,0.5H21v-21H6.5C6.224,10.5,6,10.724,6,11v2c0,0.276-0.224,0.5-0.5,0.5S5,13.276,5,13v-2
			c0-0.827,0.673-1.5,1.5-1.5h15c0.276,0,0.5,0.224,0.5,0.5v22C22,32.276,21.776,32.5,21.5,32.5z"/>
	</g>
	<g>
		<path class="st3" d="M48.5,54h-27V32h27c0.552,0,1,0.448,1,1v20C49.5,53.552,49.052,54,48.5,54z"/>
		<path class="st0" d="M48.5,54.5h-27c-0.276,0-0.5-0.224-0.5-0.5V32c0-0.276,0.224-0.5,0.5-0.5h27c0.827,0,1.5,0.673,1.5,1.5v20
			C50,53.827,49.327,54.5,48.5,54.5z M22,53.5h26.5c0.275,0,0.5-0.224,0.5-0.5V33c0-0.276-0.225-0.5-0.5-0.5H22V53.5z"/>
	</g>
	<g>
		<path class="st0" d="M49.5,43.5h-28c-0.276,0-0.5-0.224-0.5-0.5s0.224-0.5,0.5-0.5h28c0.276,0,0.5,0.224,0.5,0.5
			S49.776,43.5,49.5,43.5z"/>
	</g>
	<g>
		<path class="st0" d="M25,39.5c-1.103,0-2-0.897-2-2s0.897-2,2-2s2,0.897,2,2S26.103,39.5,25,39.5z M25,36.5c-0.551,0-1,0.449-1,1
			s0.449,1,1,1s1-0.449,1-1S25.551,36.5,25,36.5z"/>
	</g>
	<g>
		<path class="st0" d="M25,50.5c-1.103,0-2-0.897-2-2s0.897-2,2-2s2,0.897,2,2S26.103,50.5,25,50.5z M25,47.5c-0.551,0-1,0.449-1,1
			s0.449,1,1,1s1-0.449,1-1S25.551,47.5,25,47.5z"/>
	</g>
	<g>
		<path class="st0" d="M46,39.5c-1.103,0-2-0.897-2-2s0.897-2,2-2s2,0.897,2,2S47.103,39.5,46,39.5z M46,36.5c-0.552,0-1,0.449-1,1
			s0.448,1,1,1s1-0.449,1-1S46.552,36.5,46,36.5z"/>
	</g>
	<g>
		<path class="st0" d="M46,50.5c-1.103,0-2-0.897-2-2s0.897-2,2-2s2,0.897,2,2S47.103,50.5,46,50.5z M46,47.5c-0.552,0-1,0.449-1,1
			s0.448,1,1,1s1-0.449,1-1S46.552,47.5,46,47.5z"/>
	</g>
	<g>
		<path class="st0" d="M10.5,49.5C6.916,49.5,4,46.584,4,43s2.916-6.5,6.5-6.5S17,39.416,17,43S14.084,49.5,10.5,49.5z M10.5,37.5
			C7.467,37.5,5,39.967,5,43s2.467,5.5,5.5,5.5S16,46.033,16,43S13.533,37.5,10.5,37.5z"/>
	</g>
	<g>
		<path class="st0" d="M10.5,46.5C8.57,46.5,7,44.93,7,43s1.57-3.5,3.5-3.5S14,41.07,14,43S12.43,46.5,10.5,46.5z M10.5,40.5
			C9.122,40.5,8,41.622,8,43s1.122,2.5,2.5,2.5S13,44.378,13,43S11.878,40.5,10.5,40.5z"/>
	</g>
	<g>
		<path class="st0" d="M6.5,47.5c-0.128,0-0.256-0.049-0.354-0.146c-0.195-0.195-0.195-0.512,0-0.707l8-8
			c0.195-0.195,0.512-0.195,0.707,0s0.195,0.512,0,0.707l-8,8C6.756,47.451,6.628,47.5,6.5,47.5z"/>
	</g>
	<g>
		<path class="st0" d="M14.5,47.5c-0.128,0-0.256-0.049-0.354-0.146l-8-8c-0.195-0.195-0.195-0.512,0-0.707s0.512-0.195,0.707,0l8,8
			c0.195,0.195,0.195,0.512,0,0.707C14.756,47.451,14.628,47.5,14.5,47.5z"/>
	</g>
	<g>
		<path class="st0" d="M16,51.5H5c-1.654,0-3-1.346-3-3v-11c0-1.654,1.346-3,3-3h11c1.654,0,3,1.346,3,3v11
			C19,50.154,17.654,51.5,16,51.5z M5,35.5c-1.103,0-2,0.897-2,2v11c0,1.103,0.897,2,2,2h11c1.103,0,2-0.897,2-2v-11
			c0-1.103-0.897-2-2-2H5z"/>
	</g>
	<g>
		<path class="st0" d="M21.5,54.5h-15C5.673,54.5,5,53.827,5,53v-2c0-0.276,0.224-0.5,0.5-0.5S6,50.724,6,51v2
			c0,0.276,0.224,0.5,0.5,0.5H21v-21H6.5C6.224,32.5,6,32.724,6,33v2c0,0.276-0.224,0.5-0.5,0.5S5,35.276,5,35v-2
			c0-0.827,0.673-1.5,1.5-1.5h15c0.276,0,0.5,0.224,0.5,0.5v22C22,54.276,21.776,54.5,21.5,54.5z"/>
	</g>
	<g>
		<path class="st0" d="M58.5,24.5c-0.128,0-0.256-0.049-0.354-0.146c-0.195-0.195-0.195-0.512,0-0.707L60.793,21l-2.646-2.646
			c-0.195-0.195-0.195-0.512,0-0.707s0.512-0.195,0.707,0l3,3c0.195,0.195,0.195,0.512,0,0.707l-3,3
			C58.756,24.451,58.628,24.5,58.5,24.5z"/>
	</g>
	<g>
		<path class="st0" d="M61.5,21.5h-7c-0.276,0-0.5-0.224-0.5-0.5s0.224-0.5,0.5-0.5h7c0.276,0,0.5,0.224,0.5,0.5
			S61.776,21.5,61.5,21.5z"/>
	</g>
	<g>
		<path class="st0" d="M58.5,46.5c-0.128,0-0.256-0.049-0.354-0.146c-0.195-0.195-0.195-0.512,0-0.707L60.793,43l-2.646-2.646
			c-0.195-0.195-0.195-0.512,0-0.707s0.512-0.195,0.707,0l3,3c0.195,0.195,0.195,0.512,0,0.707l-3,3
			C58.756,46.451,58.628,46.5,58.5,46.5z"/>
	</g>
	<g>
		<path class="st0" d="M61.5,43.5h-7c-0.276,0-0.5-0.224-0.5-0.5s0.224-0.5,0.5-0.5h7c0.276,0,0.5,0.224,0.5,0.5
			S61.776,43.5,61.5,43.5z"/>
	</g>
	<g>
		<path class="st0" d="M14,59.5h-1c-0.276,0-0.5-0.224-0.5-0.5s0.224-0.5,0.5-0.5h1c0.276,0,0.5,0.224,0.5,0.5S14.276,59.5,14,59.5z
			"/>
	</g>
	<g>
		<path class="st0" d="M31,59.5H16c-0.276,0-0.5-0.224-0.5-0.5s0.224-0.5,0.5-0.5h15c0.276,0,0.5,0.224,0.5,0.5S31.276,59.5,31,59.5
			z"/>
	</g>
	<g>
		<path class="st0" d="M51,5.5h-1c-0.276,0-0.5-0.224-0.5-0.5s0.224-0.5,0.5-0.5h1c0.276,0,0.5,0.224,0.5,0.5S51.276,5.5,51,5.5z"/>
	</g>
	<g>
		<path class="st0" d="M48,5.5H33c-0.276,0-0.5-0.224-0.5-0.5s0.224-0.5,0.5-0.5h15c0.276,0,0.5,0.224,0.5,0.5S48.276,5.5,48,5.5z"
			/>
	</g>
</g>
</svg>
