<?xml version="1.0" encoding="utf-8"?>
<!-- Generator: Adobe Illustrator 21.1.0, SVG Export Plug-In . SVG Version: 6.00 Build 0)  -->
<svg version="1.1" id="Icon_Set" xmlns="http://www.w3.org/2000/svg" xmlns:xlink="http://www.w3.org/1999/xlink" x="0px" y="0px"
	 viewBox="0 0 64 64" style="enable-background:new 0 0 64 64;" xml:space="preserve">
<style type="text/css">
	.st0{fill:#263238;}
	.st1{fill:#FF5252;}
	.st2{fill:#FFD740;}
	.st3{fill:#40C4FF;}
	.st4{fill:#FFFFFF;}
	.st5{fill:#4DB6AC;}
	.st6{fill:#4FC3F7;}
</style>
<g id="Multi-Signature">
	<g>
		<circle class="st2" cx="32" cy="32" r="10"/>
		<path class="st0" d="M32,42.5c-5.79,0-10.5-4.71-10.5-10.5S26.21,21.5,32,21.5S42.5,26.21,42.5,32S37.79,42.5,32,42.5z M32,22.5
			c-5.238,0-9.5,4.262-9.5,9.5s4.262,9.5,9.5,9.5s9.5-4.262,9.5-9.5S37.238,22.5,32,22.5z"/>
	</g>
	<g>
		<path class="st0" d="M29.5,28.5H28c-0.276,0-0.5-0.224-0.5-0.5s0.224-0.5,0.5-0.5h1.5c0.276,0,0.5,0.224,0.5,0.5
			S29.776,28.5,29.5,28.5z"/>
	</g>
	<g>
		<path class="st0" d="M29.5,36.5H28c-0.276,0-0.5-0.224-0.5-0.5s0.224-0.5,0.5-0.5h1.5c0.276,0,0.5,0.224,0.5,0.5
			S29.776,36.5,29.5,36.5z"/>
	</g>
	<g>
		<path class="st0" d="M31,28.5c-0.276,0-0.5-0.224-0.5-0.5v-2c0-0.276,0.224-0.5,0.5-0.5s0.5,0.224,0.5,0.5v2
			C31.5,28.276,31.276,28.5,31,28.5z"/>
	</g>
	<g>
		<path class="st0" d="M33,28.5c-0.276,0-0.5-0.224-0.5-0.5v-2c0-0.276,0.224-0.5,0.5-0.5s0.5,0.224,0.5,0.5v2
			C33.5,28.276,33.276,28.5,33,28.5z"/>
	</g>
	<g>
		<path class="st0" d="M33,32.5h-3.5c-0.276,0-0.5-0.224-0.5-0.5v-4c0-0.276,0.224-0.5,0.5-0.5H33c1.378,0,2.5,1.122,2.5,2.5
			S34.378,32.5,33,32.5z M30,31.5h3c0.827,0,1.5-0.673,1.5-1.5s-0.673-1.5-1.5-1.5h-3V31.5z"/>
	</g>
	<g>
		<path class="st0" d="M34,36.5h-4.5c-0.276,0-0.5-0.224-0.5-0.5v-4c0-0.276,0.224-0.5,0.5-0.5H34c1.378,0,2.5,1.122,2.5,2.5
			S35.378,36.5,34,36.5z M30,35.5h4c0.827,0,1.5-0.673,1.5-1.5s-0.673-1.5-1.5-1.5h-4V35.5z"/>
	</g>
	<g>
		<path class="st0" d="M31,38.5c-0.276,0-0.5-0.224-0.5-0.5v-2c0-0.276,0.224-0.5,0.5-0.5s0.5,0.224,0.5,0.5v2
			C31.5,38.276,31.276,38.5,31,38.5z"/>
	</g>
	<g>
		<path class="st0" d="M33,38.5c-0.276,0-0.5-0.224-0.5-0.5v-2c0-0.276,0.224-0.5,0.5-0.5s0.5,0.224,0.5,0.5v2
			C33.5,38.276,33.276,38.5,33,38.5z"/>
	</g>
	<g>
		<path class="st0" d="M60,12h-9.5c-0.276,0-0.5-0.224-0.5-0.5s0.224-0.5,0.5-0.5h9.293L61.5,9.293V8h-11C50.224,8,50,7.776,50,7.5
			S50.224,7,50.5,7H62c0.276,0,0.5,0.224,0.5,0.5v2c0,0.133-0.053,0.26-0.146,0.354l-2,2C60.26,11.947,60.133,12,60,12z"/>
	</g>
	<g>
		<path class="st5" d="M47.138,5H41.5c-0.552,0-1,0.448-1,1v7c0,0.552,0.448,1,1,1h5.638c0.234,0,0.46-0.082,0.64-0.232L50.5,11.5
			v-4l-2.722-2.268C47.598,5.082,47.372,5,47.138,5z"/>
		<path class="st0" d="M47.138,14.5H41.5c-0.827,0-1.5-0.673-1.5-1.5V6c0-0.827,0.673-1.5,1.5-1.5h5.638
			c0.351,0,0.692,0.124,0.961,0.348l2.722,2.268C50.934,7.211,51,7.352,51,7.5v4c0,0.148-0.066,0.289-0.18,0.384l-2.722,2.268
			C47.83,14.376,47.489,14.5,47.138,14.5z M41.5,5.5C41.224,5.5,41,5.724,41,6v7c0,0.276,0.224,0.5,0.5,0.5h5.638
			c0.117,0,0.23-0.041,0.32-0.116L50,11.266V7.735l-2.542-2.119C47.369,5.541,47.255,5.5,47.138,5.5H41.5z"/>
	</g>
	<g>
		<path class="st0" d="M62,10h-7c-0.276,0-0.5-0.224-0.5-0.5S54.724,9,55,9h7c0.276,0,0.5,0.224,0.5,0.5S62.276,10,62,10z"/>
	</g>
	<g>
		<path class="st0" d="M43.5,12c-0.276,0-0.5-0.224-0.5-0.5v-4C43,7.224,43.224,7,43.5,7S44,7.224,44,7.5v4
			C44,11.776,43.776,12,43.5,12z"/>
	</g>
	<g>
		<path class="st0" d="M21.5,12H12c-0.276,0-0.5-0.224-0.5-0.5S11.724,11,12,11h9.293L23,9.293V8H12c-0.276,0-0.5-0.224-0.5-0.5
			S11.724,7,12,7h11.5C23.776,7,24,7.224,24,7.5v2c0,0.133-0.053,0.26-0.146,0.354l-2,2C21.76,11.947,21.633,12,21.5,12z"/>
	</g>
	<g>
		<path class="st5" d="M8.638,5H3C2.448,5,2,5.448,2,6v7c0,0.552,0.448,1,1,1h5.638c0.234,0,0.46-0.082,0.64-0.232L12,11.5v-4
			L9.278,5.232C9.098,5.082,8.872,5,8.638,5z"/>
		<path class="st0" d="M8.638,14.5H3c-0.827,0-1.5-0.673-1.5-1.5V6c0-0.827,0.673-1.5,1.5-1.5h5.638
			c0.351,0,0.692,0.124,0.961,0.348l2.722,2.268C12.434,7.211,12.5,7.352,12.5,7.5v4c0,0.148-0.066,0.289-0.18,0.384l-2.722,2.268
			C9.33,14.376,8.989,14.5,8.638,14.5z M3,5.5C2.724,5.5,2.5,5.724,2.5,6v7c0,0.276,0.224,0.5,0.5,0.5h5.638
			c0.117,0,0.23-0.041,0.32-0.116l2.542-2.118V7.735L8.958,5.616C8.869,5.541,8.755,5.5,8.638,5.5H3z"/>
	</g>
	<g>
		<path class="st0" d="M23.5,10h-7C16.224,10,16,9.776,16,9.5S16.224,9,16.5,9h7C23.776,9,24,9.224,24,9.5S23.776,10,23.5,10z"/>
	</g>
	<g>
		<path class="st0" d="M5,12c-0.276,0-0.5-0.224-0.5-0.5v-4C4.5,7.224,4.724,7,5,7s0.5,0.224,0.5,0.5v4C5.5,11.776,5.276,12,5,12z"
			/>
	</g>
	<g>
		<path class="st0" d="M60,57h-9.5c-0.276,0-0.5-0.224-0.5-0.5s0.224-0.5,0.5-0.5h9.293l1.707-1.707V53h-11
			c-0.276,0-0.5-0.224-0.5-0.5s0.224-0.5,0.5-0.5H62c0.276,0,0.5,0.224,0.5,0.5v2c0,0.133-0.053,0.26-0.146,0.354l-2,2
			C60.26,56.947,60.133,57,60,57z"/>
	</g>
	<g>
		<path class="st5" d="M47.138,50H41.5c-0.552,0-1,0.448-1,1v7c0,0.552,0.448,1,1,1h5.638c0.234,0,0.46-0.082,0.64-0.232L50.5,56.5
			v-4l-2.722-2.268C47.598,50.082,47.372,50,47.138,50z"/>
		<path class="st0" d="M47.138,59.5H41.5c-0.827,0-1.5-0.673-1.5-1.5v-7c0-0.827,0.673-1.5,1.5-1.5h5.638
			c0.351,0,0.692,0.124,0.961,0.348l2.722,2.268C50.934,52.211,51,52.352,51,52.5v4c0,0.148-0.066,0.289-0.18,0.384l-2.722,2.268
			C47.83,59.376,47.489,59.5,47.138,59.5z M41.5,50.5c-0.276,0-0.5,0.224-0.5,0.5v7c0,0.276,0.224,0.5,0.5,0.5h5.638
			c0.117,0,0.23-0.041,0.32-0.116L50,56.266v-3.531l-2.542-2.119c-0.089-0.075-0.203-0.116-0.32-0.116H41.5z"/>
	</g>
	<g>
		<path class="st0" d="M62,55h-7c-0.276,0-0.5-0.224-0.5-0.5S54.724,54,55,54h7c0.276,0,0.5,0.224,0.5,0.5S62.276,55,62,55z"/>
	</g>
	<g>
		<path class="st0" d="M43.5,57c-0.276,0-0.5-0.224-0.5-0.5v-4c0-0.276,0.224-0.5,0.5-0.5s0.5,0.224,0.5,0.5v4
			C44,56.776,43.776,57,43.5,57z"/>
	</g>
	<g>
		<path class="st0" d="M21.5,57H12c-0.276,0-0.5-0.224-0.5-0.5S11.724,56,12,56h9.293L23,54.293V53H12c-0.276,0-0.5-0.224-0.5-0.5
			S11.724,52,12,52h11.5c0.276,0,0.5,0.224,0.5,0.5v2c0,0.133-0.053,0.26-0.146,0.354l-2,2C21.76,56.947,21.633,57,21.5,57z"/>
	</g>
	<g>
		<path class="st5" d="M8.638,50H3c-0.552,0-1,0.448-1,1v7c0,0.552,0.448,1,1,1h5.638c0.234,0,0.46-0.082,0.64-0.232L12,56.5v-4
			l-2.722-2.268C9.098,50.082,8.872,50,8.638,50z"/>
		<path class="st0" d="M8.638,59.5H3c-0.827,0-1.5-0.673-1.5-1.5v-7c0-0.827,0.673-1.5,1.5-1.5h5.638
			c0.351,0,0.692,0.124,0.961,0.348l2.722,2.268c0.114,0.095,0.18,0.236,0.18,0.384v4c0,0.148-0.066,0.289-0.18,0.384l-2.722,2.268
			C9.33,59.376,8.989,59.5,8.638,59.5z M3,50.5c-0.276,0-0.5,0.224-0.5,0.5v7c0,0.276,0.224,0.5,0.5,0.5h5.638
			c0.117,0,0.23-0.041,0.32-0.116l2.542-2.118v-3.531l-2.542-2.119C8.869,50.541,8.755,50.5,8.638,50.5H3z"/>
	</g>
	<g>
		<path class="st0" d="M23.5,55h-7c-0.276,0-0.5-0.224-0.5-0.5s0.224-0.5,0.5-0.5h7c0.276,0,0.5,0.224,0.5,0.5S23.776,55,23.5,55z"
			/>
	</g>
	<g>
		<path class="st0" d="M5,57c-0.276,0-0.5-0.224-0.5-0.5v-4C4.5,52.224,4.724,52,5,52s0.5,0.224,0.5,0.5v4C5.5,56.776,5.276,57,5,57
			z"/>
	</g>
	<g>
		<path class="st0" d="M22,32.5h-8c-0.276,0-0.5-0.224-0.5-0.5s0.224-0.5,0.5-0.5h8c0.276,0,0.5,0.224,0.5,0.5S22.276,32.5,22,32.5z
			"/>
	</g>
	<g>
		<path class="st0" d="M57,32.5H42c-0.276,0-0.5-0.224-0.5-0.5s0.224-0.5,0.5-0.5h15c0.276,0,0.5,0.224,0.5,0.5S57.276,32.5,57,32.5
			z"/>
	</g>
	<g>
		<path class="st0" d="M7,48.5c-0.276,0-0.5-0.224-0.5-0.5v-1c0-0.276,0.224-0.5,0.5-0.5s0.5,0.224,0.5,0.5v1
			C7.5,48.276,7.276,48.5,7,48.5z"/>
	</g>
	<g>
		<path class="st0" d="M7,45.5c-0.276,0-0.5-0.224-0.5-0.5v-2c0-0.276,0.224-0.5,0.5-0.5s0.5,0.224,0.5,0.5v2
			C7.5,45.276,7.276,45.5,7,45.5z"/>
	</g>
	<g>
		<path class="st0" d="M7,22c-0.276,0-0.5-0.224-0.5-0.5V19c0-0.276,0.224-0.5,0.5-0.5s0.5,0.224,0.5,0.5v2.5
			C7.5,21.776,7.276,22,7,22z"/>
	</g>
	<g>
		<path class="st0" d="M7,17.5c-0.276,0-0.5-0.224-0.5-0.5v-1c0-0.276,0.224-0.5,0.5-0.5s0.5,0.224,0.5,0.5v1
			C7.5,17.276,7.276,17.5,7,17.5z"/>
	</g>
	<g>
		<path class="st0" d="M57,48.5c-0.276,0-0.5-0.224-0.5-0.5v-2c0-0.276,0.224-0.5,0.5-0.5s0.5,0.224,0.5,0.5v2
			C57.5,48.276,57.276,48.5,57,48.5z"/>
	</g>
	<g>
		<path class="st0" d="M57,44.5c-0.276,0-0.5-0.224-0.5-0.5V20c0-0.276,0.224-0.5,0.5-0.5s0.5,0.224,0.5,0.5v24
			C57.5,44.276,57.276,44.5,57,44.5z"/>
	</g>
	<g>
		<path class="st0" d="M57,18.5c-0.276,0-0.5-0.224-0.5-0.5v-2c0-0.276,0.224-0.5,0.5-0.5s0.5,0.224,0.5,0.5v2
			C57.5,18.276,57.276,18.5,57,18.5z"/>
	</g>
	<g>
		<path class="st0" d="M11,41H3c-0.827,0-1.5-0.673-1.5-1.5V32c0-0.827,0.673-1.5,1.5-1.5h8c0.827,0,1.5,0.673,1.5,1.5v7.5
			C12.5,40.327,11.827,41,11,41z M3,31.5c-0.276,0-0.5,0.224-0.5,0.5v7.5C2.5,39.776,2.724,40,3,40h8c0.276,0,0.5-0.224,0.5-0.5V32
			c0-0.276-0.224-0.5-0.5-0.5H3z"/>
	</g>
	<g>
		<path class="st0" d="M8.5,38.875h-3c-0.159,0-0.309-0.076-0.403-0.204c-0.094-0.128-0.122-0.293-0.074-0.445l0.516-1.649
			c-0.494-0.423-0.789-1.045-0.789-1.701c0-1.241,1.009-2.25,2.25-2.25s2.25,1.009,2.25,2.25c0,0.656-0.294,1.278-0.789,1.701
			l0.516,1.649c0.048,0.152,0.02,0.317-0.074,0.445C8.809,38.799,8.659,38.875,8.5,38.875z M6.18,37.875h1.64l-0.42-1.344
			c-0.07-0.223,0.024-0.464,0.225-0.582c0.392-0.228,0.625-0.63,0.625-1.074c0-0.689-0.561-1.25-1.25-1.25s-1.25,0.561-1.25,1.25
			c0,0.444,0.234,0.846,0.625,1.074c0.201,0.118,0.295,0.359,0.225,0.582L6.18,37.875z"/>
	</g>
	<g>
		<path class="st0" d="M10.5,31.5h-7C3.224,31.5,3,31.276,3,31v-1.5c0-2.206,1.794-4,4-4s4,1.794,4,4V31
			C11,31.276,10.776,31.5,10.5,31.5z M4,30.5h6v-1c0-1.654-1.346-3-3-3s-3,1.346-3,3V30.5z"/>
	</g>
</g>
</svg>
