<?xml version="1.0" encoding="utf-8"?>
<!-- Generator: Adobe Illustrator 21.1.0, SVG Export Plug-In . SVG Version: 6.00 Build 0)  -->
<svg version="1.1" id="Icon_Set" xmlns="http://www.w3.org/2000/svg" xmlns:xlink="http://www.w3.org/1999/xlink" x="0px" y="0px"
	 viewBox="0 0 64 64" style="enable-background:new 0 0 64 64;" xml:space="preserve">
<style type="text/css">
	.st0{fill:#263238;}
	.st1{fill:#FF5252;}
	.st2{fill:#FFD740;}
	.st3{fill:#40C4FF;}
	.st4{fill:#FFFFFF;}
	.st5{fill:#4DB6AC;}
	.st6{fill:#4FC3F7;}
</style>
<g id="NEM">
	<g>
		<path class="st0" d="M29.5,61.25h-1c-0.276,0-0.5-0.224-0.5-0.5s0.224-0.5,0.5-0.5h1c0.276,0,0.5,0.224,0.5,0.5
			S29.776,61.25,29.5,61.25z"/>
	</g>
	<g>
		<path class="st0" d="M31.25,57.25c-13.509,0-24.5-10.99-24.5-24.5s10.991-24.5,24.5-24.5s24.5,10.99,24.5,24.5
			S44.759,57.25,31.25,57.25z M31.25,9.25c-12.958,0-23.5,10.542-23.5,23.5s10.542,23.5,23.5,23.5s23.5-10.542,23.5-23.5
			S44.208,9.25,31.25,9.25z"/>
	</g>
	<g>
		<path class="st0" d="M3.25,33.25c-0.276,0-0.5-0.224-0.5-0.5c0-15.715,12.785-28.5,28.5-28.5c0.276,0,0.5,0.224,0.5,0.5
			s-0.224,0.5-0.5,0.5c-15.164,0-27.5,12.337-27.5,27.5C3.75,33.026,3.526,33.25,3.25,33.25z"/>
	</g>
	<g>
		<path class="st0" d="M34.25,5.25h-1c-0.276,0-0.5-0.224-0.5-0.5s0.224-0.5,0.5-0.5h1c0.276,0,0.5,0.224,0.5,0.5
			S34.526,5.25,34.25,5.25z"/>
	</g>
	<g>
		<path class="st0" d="M31.25,61.25c-0.276,0-0.5-0.224-0.5-0.5s0.224-0.5,0.5-0.5c15.164,0,27.5-12.337,27.5-27.5
			c0-0.276,0.224-0.5,0.5-0.5s0.5,0.224,0.5,0.5C59.75,48.465,46.965,61.25,31.25,61.25z"/>
	</g>
	<g>
		<path class="st0" d="M53.75,5.75h-4c-0.276,0-0.5-0.224-0.5-0.5s0.224-0.5,0.5-0.5h4c0.276,0,0.5,0.224,0.5,0.5
			S54.026,5.75,53.75,5.75z"/>
	</g>
	<g>
		<path class="st0" d="M51.75,7.75c-0.276,0-0.5-0.224-0.5-0.5v-4c0-0.276,0.224-0.5,0.5-0.5s0.5,0.224,0.5,0.5v4
			C52.25,7.526,52.026,7.75,51.75,7.75z"/>
	</g>
	<g>
		<path class="st0" d="M60.75,12.25h-4c-0.276,0-0.5-0.224-0.5-0.5s0.224-0.5,0.5-0.5h4c0.276,0,0.5,0.224,0.5,0.5
			S61.026,12.25,60.75,12.25z"/>
	</g>
	<g>
		<path class="st0" d="M58.75,14.25c-0.276,0-0.5-0.224-0.5-0.5v-4c0-0.276,0.224-0.5,0.5-0.5s0.5,0.224,0.5,0.5v4
			C59.25,14.026,59.026,14.25,58.75,14.25z"/>
	</g>
	<g>
		<path class="st0" d="M31.25,53.25c-11.304,0-20.5-9.196-20.5-20.5s9.196-20.5,20.5-20.5s20.5,9.196,20.5,20.5
			S42.554,53.25,31.25,53.25z M31.25,13.25c-10.752,0-19.5,8.748-19.5,19.5s8.748,19.5,19.5,19.5s19.5-8.748,19.5-19.5
			S42.002,13.25,31.25,13.25z"/>
	</g>
	<g>
		<path class="st2" d="M20.489,27.315c0.433,2.379,1.151,4.682,2.125,6.864l5.296,2.119l2.216-2.954l-1.815-4.992
			c-0.127-0.349-0.05-0.739,0.2-1.015l3.463-3.809c-3.456-0.1-6.928,0.51-10.189,1.844L21,25.693
			c-0.437,0.179-0.69,0.639-0.605,1.104L20.489,27.315z"/>
		<path class="st0" d="M27.91,36.798c-0.062,0-0.125-0.012-0.186-0.036l-5.295-2.118c-0.121-0.048-0.218-0.142-0.271-0.26
			c-0.998-2.234-1.725-4.583-2.16-6.979l-0.094-0.518c-0.126-0.694,0.256-1.391,0.907-1.657l0.784-0.321
			c3.304-1.351,6.803-1.976,10.393-1.881c0.195,0.006,0.369,0.125,0.445,0.305c0.077,0.18,0.042,0.387-0.09,0.531l-3.463,3.81
			c-0.125,0.139-0.164,0.333-0.101,0.508l1.815,4.991c0.058,0.159,0.032,0.336-0.07,0.471l-2.215,2.954
			C28.213,36.727,28.063,36.798,27.91,36.798z M22.989,33.791l4.75,1.9l1.823-2.431l-1.722-4.737
			c-0.191-0.524-0.076-1.107,0.3-1.521l2.71-2.981c-3.063,0.047-6.043,0.655-8.876,1.814l-0.784,0.321
			c-0.217,0.089-0.344,0.321-0.302,0.553l0.094,0.517l0,0C21.391,29.478,22.066,31.686,22.989,33.791z"/>
	</g>
	<g>
		<path class="st3" d="M41.5,25.693l-0.784-0.321c-2.011-0.823-4.103-1.366-6.222-1.644l-4.098,4.508l1.531,4.209l4.733-0.43
			c0.383-0.037,0.758,0.156,0.954,0.492l1.679,2.878c1.271-2.536,2.205-5.244,2.718-8.069l0.094-0.518
			C42.19,26.333,41.937,25.872,41.5,25.693z"/>
		<path class="st0" d="M39.292,35.885c-0.177,0-0.342-0.094-0.432-0.248l-1.679-2.878c-0.098-0.168-0.287-0.271-0.474-0.246
			l-4.736,0.431c-0.222,0.014-0.438-0.113-0.515-0.327l-1.531-4.209c-0.063-0.175-0.025-0.37,0.1-0.507l4.098-4.508
			c0.11-0.122,0.269-0.183,0.435-0.16c2.192,0.287,4.328,0.852,6.346,1.677l0.784,0.321c0.651,0.267,1.033,0.963,0.908,1.656
			l-0.095,0.519c-0.509,2.803-1.439,5.562-2.763,8.203c-0.082,0.164-0.248,0.271-0.431,0.276
			C39.303,35.885,39.298,35.885,39.292,35.885z M36.755,31.51c0.524,0,1.021,0.282,1.291,0.745l1.205,2.066
			c1.067-2.299,1.829-4.682,2.268-7.096l0.094-0.518c0.042-0.23-0.085-0.463-0.303-0.552l0,0l-0.784-0.321
			c-1.859-0.761-3.823-1.29-5.839-1.575l-3.718,4.09l1.296,3.562l4.349-0.396C36.661,31.512,36.708,31.51,36.755,31.51z"/>
	</g>
	<g>
		<path class="st5" d="M36.207,34.064l-4.424,0.402L29.05,38.11c-0.193,0.258-0.492,0.4-0.8,0.4c-0.124,0-0.25-0.023-0.371-0.071
			l-3.862-1.545c1.45,2.521,3.249,4.843,5.39,6.864l1.157,1.093c0.385,0.364,0.988,0.364,1.373,0l1.157-1.093
			c1.989-1.878,3.679-4.019,5.074-6.333L36.207,34.064z"/>
		<path class="st0" d="M31.25,45.624c-0.371,0-0.741-0.136-1.03-0.409l-1.157-1.093c-2.13-2.012-3.974-4.359-5.479-6.979
			c-0.106-0.185-0.083-0.416,0.056-0.577c0.139-0.161,0.366-0.217,0.563-0.136l3.861,1.545c0.206,0.078,0.454,0.011,0.585-0.165
			l2.733-3.644c0.085-0.113,0.214-0.186,0.354-0.198l4.424-0.402c0.194-0.009,0.379,0.079,0.478,0.246l1.96,3.361
			c0.092,0.158,0.09,0.354-0.004,0.51c-1.455,2.414-3.19,4.58-5.159,6.438l-1.157,1.093C31.991,45.488,31.621,45.624,31.25,45.624z
			 M25.222,37.915c1.3,2.027,2.818,3.866,4.527,5.48l1.157,1.093c0.192,0.182,0.495,0.182,0.686,0l1.158-1.093
			c1.833-1.731,3.459-3.74,4.835-5.976l-1.65-2.829l-3.886,0.354l-2.6,3.466c-0.395,0.528-1.135,0.74-1.755,0.494L25.222,37.915z"/>
	</g>
</g>
</svg>
