<?xml version="1.0" encoding="utf-8"?>
<!-- Generator: Adobe Illustrator 21.1.0, SVG Export Plug-In . SVG Version: 6.00 Build 0)  -->
<svg version="1.1" id="Icon_Set" xmlns="http://www.w3.org/2000/svg" xmlns:xlink="http://www.w3.org/1999/xlink" x="0px" y="0px"
	 viewBox="0 0 64 64" style="enable-background:new 0 0 64 64;" xml:space="preserve">
<style type="text/css">
	.st0{fill:#263238;}
	.st1{fill:#FFFFFF;}
	.st2{fill:#FF5252;}
	.st3{fill:#FFD740;}
	.st4{fill:#40C4FF;}
	.st5{fill:#4DB6AC;}
	.st6{fill:#4FC3F7;}
</style>
<g id="Node">
	<g>
		<ellipse transform="matrix(0.5 -0.866 0.866 0.5 -13.0119 18.4627)" class="st2" cx="9.483" cy="20.5" rx="4" ry="4"/>
	</g>
	<g>
		<path class="st0" d="M46.723,42.5c-0.085,0-0.171-0.021-0.25-0.067l-32.043-18.5c-0.239-0.138-0.321-0.444-0.183-0.683
			c0.138-0.24,0.444-0.319,0.683-0.183l32.043,18.5c0.239,0.138,0.321,0.444,0.183,0.683C47.063,42.411,46.895,42.5,46.723,42.5z"/>
	</g>
	<g>
		<ellipse transform="matrix(0.866 -0.5 0.5 0.866 -2.9462 30.0048)" class="st2" cx="54.517" cy="20.5" rx="4" ry="4"/>
	</g>
	<g>
		<path class="st0" d="M17.277,42.5c-0.172,0-0.341-0.089-0.433-0.25c-0.139-0.239-0.057-0.545,0.183-0.683l32.043-18.5
			c0.238-0.137,0.545-0.057,0.683,0.183c0.139,0.239,0.057,0.545-0.183,0.683l-32.043,18.5C17.448,42.479,17.362,42.5,17.277,42.5z"
			/>
	</g>
	<g>
		<circle class="st2" cx="32" cy="59.5" r="4"/>
	</g>
	<g>
		<path class="st0" d="M32,54c-0.276,0-0.5-0.224-0.5-0.5v-37c0-0.276,0.224-0.5,0.5-0.5s0.5,0.224,0.5,0.5v37
			C32.5,53.776,32.276,54,32,54z"/>
	</g>
	<g>
		<ellipse transform="matrix(0.9659 -0.2588 0.2588 0.9659 -7.5801 9.4237)" class="st3" cx="32" cy="33.5" rx="9" ry="9"/>
		<path class="st0" d="M31.984,43.004c-1.646,0-3.271-0.432-4.734-1.277c-2.198-1.269-3.77-3.317-4.427-5.768
			c-1.355-5.06,1.658-10.28,6.718-11.635l0,0c2.451-0.657,5.012-0.32,7.209,0.949c2.198,1.269,3.77,3.317,4.427,5.768
			c1.355,5.06-1.658,10.28-6.718,11.635C33.641,42.896,32.81,43.004,31.984,43.004z M29.801,25.29
			c-4.527,1.213-7.224,5.883-6.011,10.411c0.587,2.193,1.993,4.026,3.96,5.161c1.966,1.135,4.258,1.437,6.449,0.849
			c4.527-1.213,7.224-5.883,6.011-10.411c-0.587-2.193-1.993-4.026-3.96-5.161C34.284,25.004,31.992,24.701,29.801,25.29
			L29.801,25.29z M29.671,24.807h0.01H29.671z"/>
	</g>
	<g>
		<path class="st0" d="M10.474,54h-1.98c-0.475,0-0.887-0.338-0.98-0.803l-0.199-0.998c-0.309-0.117-0.604-0.256-0.88-0.417
			c-0.278-0.16-0.55-0.348-0.809-0.56L4.67,51.555c-0.449,0.151-0.949-0.036-1.188-0.447l-0.989-1.715
			C2.255,48.98,2.342,48.454,2.7,48.141l0.766-0.672c-0.106-0.654-0.108-1.308-0.003-1.951l-0.764-0.659
			c-0.357-0.312-0.444-0.839-0.207-1.251l0.991-1.715c0.236-0.41,0.733-0.6,1.186-0.448L5.63,41.77
			c0.506-0.411,1.072-0.735,1.692-0.968l0.19-0.998C7.606,39.338,8.019,39,8.493,39h1.98c0.475,0,0.887,0.338,0.98,0.803
			l0.199,0.998c0.309,0.117,0.604,0.256,0.88,0.417c0.276,0.159,0.545,0.345,0.8,0.554l0.964-0.326
			c0.451-0.154,0.95,0.037,1.188,0.447l0.988,1.715c0.238,0.41,0.152,0.937-0.205,1.251l-0.767,0.673
			c0.106,0.654,0.108,1.308,0.003,1.951l0.764,0.659c0.356,0.313,0.442,0.839,0.206,1.251l-0.99,1.715
			c-0.237,0.412-0.735,0.6-1.188,0.447l-0.959-0.325c-0.505,0.411-1.072,0.735-1.692,0.968l-0.19,0.998
			C11.36,53.662,10.948,54,10.474,54z M5.699,50.125c0.122,0,0.243,0.044,0.338,0.131c0.282,0.258,0.584,0.48,0.896,0.66
			c0.314,0.182,0.658,0.332,1.021,0.446c0.208,0.066,0.35,0.259,0.35,0.477V52.1L8.493,53l1.98,0l0.199-0.998l-0.01-0.167
			c0-0.218,0.142-0.412,0.35-0.477c0.728-0.229,1.374-0.599,1.92-1.1c0.161-0.147,0.398-0.173,0.588-0.065l0.223,0.128l0.874,0.286
			l0.99-1.715l-0.908-0.744c-0.188-0.109-0.284-0.329-0.237-0.542c0.162-0.724,0.16-1.468-0.006-2.212
			c-0.047-0.213,0.049-0.432,0.237-0.541l0.229-0.132l0.686-0.615l-0.989-1.715l-1.101,0.416c-0.188,0.108-0.427,0.083-0.588-0.064
			c-0.28-0.257-0.582-0.479-0.896-0.661c-0.313-0.182-0.657-0.332-1.021-0.446c-0.208-0.066-0.35-0.259-0.35-0.477V40.9L10.474,40
			l-1.98,0l-0.199,0.998l0.01,0.167c0,0.218-0.142,0.412-0.35,0.477c-0.728,0.229-1.373,0.599-1.92,1.1
			c-0.161,0.148-0.399,0.174-0.588,0.065l-0.223-0.128L4.35,42.393l-0.991,1.715l0.909,0.744c0.188,0.109,0.284,0.329,0.237,0.542
			c-0.162,0.724-0.159,1.468,0.006,2.212c0.047,0.213-0.049,0.432-0.237,0.541l-0.229,0.132l-0.686,0.615l0.989,1.715l1.101-0.416
			C5.527,50.146,5.613,50.125,5.699,50.125z M9.477,50.359c-0.654,0-1.316-0.167-1.923-0.517c-1.844-1.064-2.478-3.429-1.413-5.273
			c0.515-0.893,1.348-1.532,2.344-1.798c0.994-0.268,2.035-0.13,2.929,0.386c1.844,1.064,2.478,3.429,1.413,5.273l0,0
			C12.111,49.667,10.812,50.359,9.477,50.359z M9.487,43.639c-0.248,0-0.498,0.033-0.744,0.099
			c-0.738,0.198-1.355,0.671-1.737,1.333c-0.788,1.366-0.318,3.119,1.048,3.907c1.367,0.791,3.117,0.319,3.907-1.046
			c0.788-1.366,0.318-3.119-1.048-3.907C10.473,43.769,9.983,43.639,9.487,43.639z M12.394,48.18h0.01H12.394z"/>
	</g>
	<g>
		<path class="st0" d="M32.99,15h-1.98c-0.475,0-0.887-0.338-0.98-0.803l-0.199-0.998c-0.309-0.117-0.604-0.256-0.88-0.417
			c-0.278-0.16-0.55-0.348-0.809-0.56l-0.955,0.333c-0.447,0.15-0.949-0.036-1.188-0.447l-0.989-1.715
			c-0.238-0.412-0.151-0.938,0.207-1.252l0.766-0.672c-0.106-0.654-0.108-1.308-0.003-1.951l-0.764-0.659
			c-0.357-0.312-0.444-0.839-0.207-1.251L26,2.893c0.236-0.411,0.734-0.599,1.186-0.448l0.961,0.325
			c0.506-0.411,1.072-0.735,1.692-0.968l0.19-0.998C30.123,0.338,30.535,0,31.01,0h1.98c0.475,0,0.887,0.338,0.98,0.803l0.199,0.998
			c0.309,0.117,0.604,0.256,0.88,0.417c0.276,0.159,0.545,0.345,0.8,0.554l0.964-0.326c0.453-0.153,0.95,0.037,1.188,0.447
			l0.989,1.715c0.237,0.411,0.15,0.937-0.206,1.251l-0.767,0.673c0.106,0.654,0.108,1.308,0.003,1.951l0.764,0.659
			c0.356,0.314,0.443,0.84,0.207,1.251L38,12.107c-0.237,0.412-0.736,0.601-1.188,0.447l-0.959-0.325
			c-0.506,0.411-1.072,0.735-1.692,0.968l-0.19,0.998C33.877,14.662,33.465,15,32.99,15z M28.216,11.125
			c0.122,0,0.243,0.044,0.338,0.131c0.282,0.258,0.584,0.48,0.896,0.66c0.314,0.182,0.658,0.332,1.021,0.446
			c0.208,0.066,0.35,0.259,0.35,0.477V13.1L31.01,14l1.98,0l0.199-0.998l-0.01-0.167c0-0.218,0.142-0.412,0.35-0.477
			c0.728-0.229,1.373-0.599,1.92-1.1c0.161-0.148,0.398-0.173,0.588-0.065l0.223,0.128l0.874,0.286l0.991-1.715l-0.909-0.744
			c-0.188-0.109-0.284-0.329-0.237-0.542c0.162-0.724,0.16-1.468-0.006-2.212c-0.047-0.213,0.049-0.432,0.237-0.541l0.229-0.132
			l0.686-0.615l-0.989-1.715l-1.101,0.416c-0.189,0.108-0.427,0.083-0.588-0.064c-0.28-0.257-0.582-0.479-0.896-0.661
			c-0.313-0.182-0.657-0.332-1.021-0.446c-0.208-0.066-0.35-0.259-0.35-0.477V1.9L32.99,1l-1.98,0l-0.199,0.998l0.01,0.167
			c0,0.218-0.142,0.412-0.35,0.477c-0.728,0.229-1.373,0.599-1.92,1.1c-0.161,0.148-0.399,0.174-0.588,0.065L27.74,3.678
			l-0.874-0.286l-0.991,1.715l0.909,0.744c0.188,0.109,0.284,0.329,0.237,0.542c-0.162,0.724-0.159,1.468,0.006,2.212
			c0.047,0.213-0.049,0.432-0.237,0.541l-0.229,0.132l-0.686,0.615l0.989,1.715l1.101-0.416
			C28.044,11.146,28.13,11.125,28.216,11.125z M31.993,11.359c-0.654,0-1.316-0.167-1.923-0.517
			c-1.844-1.064-2.478-3.429-1.413-5.273c0.515-0.893,1.348-1.532,2.344-1.798c0.994-0.269,2.036-0.13,2.929,0.386
			c1.844,1.064,2.478,3.429,1.413,5.273l0,0C34.628,10.667,33.328,11.359,31.993,11.359z M32.004,4.639
			c-0.248,0-0.498,0.033-0.744,0.099c-0.738,0.198-1.355,0.671-1.737,1.333c-0.788,1.366-0.318,3.119,1.048,3.907
			c1.367,0.792,3.118,0.319,3.907-1.046c0.788-1.366,0.318-3.119-1.048-3.907C32.989,4.769,32.5,4.639,32.004,4.639z M34.91,9.18
			h0.01H34.91z"/>
	</g>
	<g>
		<path class="st0" d="M55.507,54h-1.98c-0.475,0-0.887-0.338-0.98-0.804l-0.199-0.998c-0.308-0.116-0.603-0.255-0.88-0.416
			c-0.28-0.162-0.551-0.35-0.808-0.561l-0.956,0.333c-0.448,0.15-0.949-0.036-1.187-0.447l-0.989-1.715
			c-0.238-0.409-0.152-0.936,0.204-1.251l0.768-0.674c-0.106-0.654-0.108-1.307-0.003-1.95l-0.764-0.659
			c-0.358-0.315-0.444-0.842-0.204-1.253l0.988-1.713c0.237-0.412,0.734-0.599,1.188-0.447l0.959,0.325
			c0.505-0.411,1.072-0.735,1.692-0.968l0.19-0.998C52.64,39.338,53.052,39,53.526,39h1.98c0.475,0,0.887,0.338,0.98,0.804
			l0.199,0.998c0.309,0.117,0.604,0.256,0.88,0.416c0.275,0.159,0.544,0.345,0.8,0.554l0.964-0.326
			c0.447-0.152,0.949,0.036,1.187,0.447l0.99,1.716c0.238,0.412,0.151,0.938-0.207,1.252l-0.766,0.673
			c0.106,0.654,0.108,1.307,0.003,1.95l0.764,0.659c0.357,0.313,0.444,0.84,0.207,1.251l-0.991,1.715
			c-0.237,0.412-0.738,0.598-1.186,0.448l-0.961-0.326c-0.506,0.411-1.072,0.736-1.692,0.969l-0.19,0.998
			C56.394,53.662,55.981,54,55.507,54z M50.732,50.125c0.122,0,0.243,0.044,0.338,0.131c0.279,0.256,0.581,0.479,0.896,0.661
			c0.315,0.182,0.658,0.332,1.021,0.445c0.208,0.066,0.35,0.259,0.35,0.477V52.1L53.526,53l1.98,0l0.199-0.998l-0.01-0.167
			c0-0.218,0.142-0.412,0.35-0.477c0.728-0.229,1.373-0.599,1.92-1.101c0.161-0.148,0.4-0.174,0.589-0.064l0.223,0.129l0.873,0.285
			l0.991-1.715l-0.908-0.743c-0.189-0.109-0.285-0.329-0.238-0.542c0.162-0.724,0.16-1.468-0.006-2.212
			c-0.047-0.213,0.049-0.433,0.238-0.542l0.229-0.132l0.684-0.614l-0.989-1.715l-1.101,0.416c-0.189,0.109-0.428,0.084-0.587-0.064
			c-0.283-0.258-0.585-0.481-0.897-0.661c-0.313-0.181-0.657-0.331-1.021-0.446c-0.208-0.065-0.35-0.258-0.35-0.477V40.9L55.507,40
			l-1.98,0l-0.199,0.998l0.01,0.167c0,0.218-0.142,0.412-0.351,0.477c-0.727,0.229-1.373,0.599-1.919,1.1
			c-0.161,0.148-0.4,0.174-0.589,0.064l-0.223-0.129l-0.873-0.285l-0.99,1.715L49.3,44.85c0.189,0.109,0.285,0.329,0.238,0.542
			c-0.162,0.724-0.16,1.468,0.006,2.212c0.047,0.213-0.049,0.432-0.237,0.541l-0.229,0.132l-0.686,0.615l0.989,1.715l1.101-0.416
			C50.561,50.146,50.646,50.125,50.732,50.125z M54.51,50.361c-0.669,0-1.328-0.175-1.923-0.519
			c-0.893-0.516-1.532-1.348-1.799-2.344s-0.13-2.036,0.386-2.929c1.065-1.843,3.432-2.477,5.272-1.413
			c0.893,0.516,1.532,1.348,1.799,2.344s0.13,2.036-0.386,2.929c-0.515,0.893-1.348,1.532-2.344,1.798
			C55.184,50.317,54.846,50.361,54.51,50.361z M54.521,43.641c-0.989,0-1.952,0.513-2.482,1.429
			c-0.382,0.662-0.483,1.432-0.285,2.17c0.198,0.738,0.671,1.355,1.333,1.737c0.662,0.382,1.436,0.484,2.17,0.286
			c0.738-0.198,1.355-0.671,1.737-1.333s0.483-1.432,0.285-2.17c-0.198-0.738-0.671-1.354-1.333-1.736
			C55.497,43.764,55.007,43.641,54.521,43.641z"/>
	</g>
	<g>
		<path class="st0" d="M33,34h-3.25c-0.276,0-0.5-0.224-0.5-0.5V30c0-0.276,0.224-0.5,0.5-0.5H33c1.24,0,2.25,1.009,2.25,2.25
			S34.24,34,33,34z M30.25,33H33c0.689,0,1.25-0.561,1.25-1.25S33.689,30.5,33,30.5h-2.75V33z"/>
	</g>
	<g>
		<path class="st0" d="M33.5,37.5h-3.75c-0.276,0-0.5-0.224-0.5-0.5v-3.5c0-0.276,0.224-0.5,0.5-0.5h3.75
			c1.24,0,2.25,1.009,2.25,2.25S34.74,37.5,33.5,37.5z M30.25,36.5h3.25c0.689,0,1.25-0.561,1.25-1.25S34.189,34,33.5,34h-3.25V36.5
			z"/>
	</g>
	<g>
		<path class="st0" d="M29.75,30.5h-1c-0.276,0-0.5-0.224-0.5-0.5s0.224-0.5,0.5-0.5h1c0.276,0,0.5,0.224,0.5,0.5
			S30.026,30.5,29.75,30.5z"/>
	</g>
	<g>
		<path class="st0" d="M29.75,37.5h-1c-0.276,0-0.5-0.224-0.5-0.5s0.224-0.5,0.5-0.5h1c0.276,0,0.5,0.224,0.5,0.5
			S30.026,37.5,29.75,37.5z"/>
	</g>
	<g>
		<path class="st0" d="M30.75,30c-0.276,0-0.5-0.224-0.5-0.5v-1c0-0.276,0.224-0.5,0.5-0.5s0.5,0.224,0.5,0.5v1
			C31.25,29.776,31.026,30,30.75,30z"/>
	</g>
	<g>
		<path class="st0" d="M32.75,30c-0.276,0-0.5-0.224-0.5-0.5v-1c0-0.276,0.224-0.5,0.5-0.5s0.5,0.224,0.5,0.5v1
			C33.25,29.776,33.026,30,32.75,30z"/>
	</g>
	<g>
		<path class="st0" d="M30.75,39c-0.276,0-0.5-0.224-0.5-0.5v-1c0-0.276,0.224-0.5,0.5-0.5s0.5,0.224,0.5,0.5v1
			C31.25,38.776,31.026,39,30.75,39z"/>
	</g>
	<g>
		<path class="st0" d="M32.75,39c-0.276,0-0.5-0.224-0.5-0.5v-1c0-0.276,0.224-0.5,0.5-0.5s0.5,0.224,0.5,0.5v1
			C33.25,38.776,33.026,39,32.75,39z"/>
	</g>
</g>
</svg>
