<?xml version="1.0" encoding="utf-8"?>
<!-- Generator: Adobe Illustrator 21.1.0, SVG Export Plug-In . SVG Version: 6.00 Build 0)  -->
<svg version="1.1" id="Icon_Set" xmlns="http://www.w3.org/2000/svg" xmlns:xlink="http://www.w3.org/1999/xlink" x="0px" y="0px"
	 viewBox="0 0 64 64" style="enable-background:new 0 0 64 64;" xml:space="preserve">
<style type="text/css">
	.st0{fill:#263238;}
	.st1{fill:#FFFFFF;}
	.st2{fill:#FF5252;}
	.st3{fill:#FFD740;}
	.st4{fill:#40C4FF;}
	.st5{fill:#4DB6AC;}
	.st6{fill:#4FC3F7;}
</style>
<g id="Ordered_Records">
	<g>
		<path class="st0" d="M15,59.5H3c-1.654,0-3-1.346-3-3v-23c0-1.654,1.346-3,3-3h12c1.654,0,3,1.346,3,3v23
			C18,58.154,16.654,59.5,15,59.5z M3,31.5c-1.103,0-2,0.897-2,2v23c0,1.103,0.897,2,2,2h12c1.103,0,2-0.897,2-2v-23
			c0-1.103-0.897-2-2-2H3z"/>
	</g>
	<g>
		<path class="st0" d="M14.5,42.5h-11C3.224,42.5,3,42.276,3,42s0.224-0.5,0.5-0.5h11c0.276,0,0.5,0.224,0.5,0.5
			S14.776,42.5,14.5,42.5z"/>
	</g>
	<g>
		<path class="st0" d="M14.5,47.5h-11C3.224,47.5,3,47.276,3,47s0.224-0.5,0.5-0.5h11c0.276,0,0.5,0.224,0.5,0.5
			S14.776,47.5,14.5,47.5z"/>
	</g>
	<g>
		<path class="st0" d="M14.5,52.5h-11C3.224,52.5,3,52.276,3,52s0.224-0.5,0.5-0.5h11c0.276,0,0.5,0.224,0.5,0.5
			S14.776,52.5,14.5,52.5z"/>
	</g>
	<g>
		<path class="st0" d="M9,37.5c-1.103,0-2-0.897-2-2s0.897-2,2-2s2,0.897,2,2S10.103,37.5,9,37.5z M9,34.5c-0.552,0-1,0.449-1,1
			s0.448,1,1,1s1-0.449,1-1S9.552,34.5,9,34.5z"/>
	</g>
	<g>
		<path class="st3" d="M61,59H49c-1.381,0-2.5-1.119-2.5-2.5v-23c0-1.381,1.119-2.5,2.5-2.5h12c1.381,0,2.5,1.119,2.5,2.5v23
			C63.5,57.881,62.381,59,61,59z"/>
		<path class="st0" d="M61,59.5H49c-1.654,0-3-1.346-3-3v-23c0-1.654,1.346-3,3-3h12c1.654,0,3,1.346,3,3v23
			C64,58.154,62.654,59.5,61,59.5z M49,31.5c-1.103,0-2,0.897-2,2v23c0,1.103,0.897,2,2,2h12c1.103,0,2-0.897,2-2v-23
			c0-1.103-0.897-2-2-2H49z"/>
	</g>
	<g>
		<path class="st0" d="M60.5,42.5h-11c-0.276,0-0.5-0.224-0.5-0.5s0.224-0.5,0.5-0.5h11c0.276,0,0.5,0.224,0.5,0.5
			S60.776,42.5,60.5,42.5z"/>
	</g>
	<g>
		<path class="st0" d="M60.5,47.5h-11c-0.276,0-0.5-0.224-0.5-0.5s0.224-0.5,0.5-0.5h11c0.276,0,0.5,0.224,0.5,0.5
			S60.776,47.5,60.5,47.5z"/>
	</g>
	<g>
		<path class="st0" d="M60.5,52.5h-11c-0.276,0-0.5-0.224-0.5-0.5s0.224-0.5,0.5-0.5h11c0.276,0,0.5,0.224,0.5,0.5
			S60.776,52.5,60.5,52.5z"/>
	</g>
	<g>
		<path class="st0" d="M55,37.5c-1.103,0-2-0.897-2-2s0.897-2,2-2s2,0.897,2,2S56.103,37.5,55,37.5z M55,34.5c-0.552,0-1,0.449-1,1
			s0.448,1,1,1s1-0.449,1-1S55.552,34.5,55,34.5z"/>
	</g>
	<g>
		<path class="st0" d="M38.5,39.5h-12c-1.654,0-3-1.346-3-3v-23c0-1.654,1.346-3,3-3h12c1.654,0,3,1.346,3,3v23
			C41.5,38.154,40.154,39.5,38.5,39.5z M26.5,11.5c-1.103,0-2,0.897-2,2v23c0,1.103,0.897,2,2,2h12c1.103,0,2-0.897,2-2v-23
			c0-1.103-0.897-2-2-2H26.5z"/>
	</g>
	<g>
		<path class="st0" d="M38,22.5H27c-0.276,0-0.5-0.224-0.5-0.5s0.224-0.5,0.5-0.5h11c0.276,0,0.5,0.224,0.5,0.5S38.276,22.5,38,22.5
			z"/>
	</g>
	<g>
		<path class="st0" d="M38,27.5H27c-0.276,0-0.5-0.224-0.5-0.5s0.224-0.5,0.5-0.5h11c0.276,0,0.5,0.224,0.5,0.5S38.276,27.5,38,27.5
			z"/>
	</g>
	<g>
		<path class="st0" d="M38,32.5H27c-0.276,0-0.5-0.224-0.5-0.5s0.224-0.5,0.5-0.5h11c0.276,0,0.5,0.224,0.5,0.5S38.276,32.5,38,32.5
			z"/>
	</g>
	<g>
		<path class="st0" d="M32.5,17.5c-1.103,0-2-0.897-2-2s0.897-2,2-2s2,0.897,2,2S33.603,17.5,32.5,17.5z M32.5,14.5
			c-0.552,0-1,0.449-1,1s0.448,1,1,1s1-0.449,1-1S33.052,14.5,32.5,14.5z"/>
	</g>
	<g>
		<path class="st0" d="M9,28.5c-0.276,0-0.5-0.224-0.5-0.5v-5.5c0-1.654,1.346-3,3-3H21c0.276,0,0.5,0.224,0.5,0.5
			s-0.224,0.5-0.5,0.5h-9.5c-1.103,0-2,0.897-2,2V28C9.5,28.276,9.276,28.5,9,28.5z"/>
	</g>
	<g>
		<path class="st0" d="M19,22.5c-0.128,0-0.256-0.049-0.354-0.146c-0.195-0.195-0.195-0.512,0-0.707L20.293,20l-1.646-1.646
			c-0.195-0.195-0.195-0.512,0-0.707s0.512-0.195,0.707,0l2,2c0.195,0.195,0.195,0.512,0,0.707l-2,2
			C19.256,22.451,19.128,22.5,19,22.5z"/>
	</g>
	<g>
		<path class="st0" d="M43.5,53H35c-1.654,0-3-1.346-3-3v-8c0-0.276,0.224-0.5,0.5-0.5S33,41.724,33,42v8c0,1.103,0.897,2,2,2h8.5
			c0.276,0,0.5,0.224,0.5,0.5S43.776,53,43.5,53z"/>
	</g>
	<g>
		<path class="st0" d="M41.5,55c-0.128,0-0.256-0.049-0.354-0.146c-0.195-0.195-0.195-0.512,0-0.707l1.646-1.646l-1.646-1.646
			c-0.195-0.195-0.195-0.512,0-0.707s0.512-0.195,0.707,0l2,2c0.195,0.195,0.195,0.512,0,0.707l-2,2
			C41.756,54.951,41.628,55,41.5,55z"/>
	</g>
	<g>
		<circle class="st5" cx="55.5" cy="13" r="7.5"/>
	</g>
	<g>
		<path class="st0" d="M54.086,15.829c-0.133,0-0.26-0.053-0.354-0.146l-2.828-2.829c-0.195-0.195-0.195-0.512,0-0.707
			s0.512-0.195,0.707,0l2.475,2.475l4.949-4.95c0.195-0.195,0.512-0.195,0.707,0s0.195,0.512,0,0.707l-5.303,5.304
			C54.346,15.776,54.219,15.829,54.086,15.829z"/>
	</g>
	<g>
		<path class="st0" d="M13.5,7.5h-4C9.224,7.5,9,7.276,9,7s0.224-0.5,0.5-0.5h4C13.776,6.5,14,6.724,14,7S13.776,7.5,13.5,7.5z"/>
	</g>
	<g>
		<path class="st0" d="M11.5,9.5C11.224,9.5,11,9.276,11,9V5c0-0.276,0.224-0.5,0.5-0.5S12,4.724,12,5v4
			C12,9.276,11.776,9.5,11.5,9.5z"/>
	</g>
	<g>
		<path class="st0" d="M6.5,14h-4C2.224,14,2,13.776,2,13.5S2.224,13,2.5,13h4C6.776,13,7,13.224,7,13.5S6.776,14,6.5,14z"/>
	</g>
	<g>
		<path class="st0" d="M4.5,16C4.224,16,4,15.776,4,15.5v-4C4,11.224,4.224,11,4.5,11S5,11.224,5,11.5v4C5,15.776,4.776,16,4.5,16z"
			/>
	</g>
</g>
</svg>
