<?xml version="1.0" encoding="utf-8"?>
<!-- Generator: Adobe Illustrator 21.1.0, SVG Export Plug-In . SVG Version: 6.00 Build 0)  -->
<svg version="1.1" id="Icon_Set" xmlns="http://www.w3.org/2000/svg" xmlns:xlink="http://www.w3.org/1999/xlink" x="0px" y="0px"
	 viewBox="0 0 64 64" style="enable-background:new 0 0 64 64;" xml:space="preserve">
<style type="text/css">
	.st0{fill:#263238;}
	.st1{fill:#FFFFFF;}
	.st2{fill:#FF5252;}
	.st3{fill:#FFD740;}
	.st4{fill:#40C4FF;}
	.st5{fill:#4DB6AC;}
	.st6{fill:#4FC3F7;}
</style>
<g id="OTC_Trading">
	<g>
		<path class="st0" d="M17.5,17.5C12.813,17.5,9,13.687,9,9s3.813-8.5,8.5-8.5S26,4.313,26,9S22.187,17.5,17.5,17.5z M17.5,1.5
			C13.364,1.5,10,4.864,10,9s3.364,7.5,7.5,7.5S25,13.136,25,9S21.636,1.5,17.5,1.5z"/>
	</g>
	<g>
		<path class="st0" d="M10.255,9.5H9.5C9.224,9.5,9,9.276,9,9c0-4.687,3.813-8.5,8.5-8.5c2.525,0,4.905,1.114,6.527,3.058
			c0.085,0.102,0.126,0.233,0.114,0.365c-0.012,0.133-0.076,0.255-0.179,0.34l-0.597,0.496C19.692,7.816,15.036,9.5,10.255,9.5z
			 M10.017,8.5h0.238c4.548,0,8.978-1.602,12.472-4.511c0.001,0,0.001,0,0.001,0l0.198-0.165C21.512,2.341,19.562,1.5,17.5,1.5
			C13.532,1.5,10.274,4.597,10.017,8.5z"/>
	</g>
	<g>
		<path class="st0" d="M24.5,35.005c-0.276,0-0.5-0.224-0.5-0.5v-6.5c0-0.276,0.224-0.5,0.5-0.5s0.5,0.224,0.5,0.5v6.5
			C25,34.781,24.776,35.005,24.5,35.005z"/>
	</g>
	<g>
		<path class="st0" d="M10.5,35.005c-0.276,0-0.5-0.224-0.5-0.5v-6.5c0-0.276,0.224-0.5,0.5-0.5s0.5,0.224,0.5,0.5v6.5
			C11,34.781,10.776,35.005,10.5,35.005z"/>
	</g>
	<g>
		<polyline class="st2" points="15,34.5 16.5,22.468 18.5,22.468 20,34.5 		"/>
		<path class="st0" d="M19.999,35c-0.248,0-0.464-0.186-0.495-0.438l-1.445-11.594h-1.117l-1.445,11.594
			c-0.034,0.273-0.291,0.471-0.558,0.435c-0.274-0.034-0.469-0.284-0.435-0.558l1.5-12.032c0.031-0.251,0.244-0.438,0.496-0.438h2
			c0.252,0,0.465,0.188,0.496,0.438l1.5,12.032c0.034,0.273-0.16,0.523-0.435,0.558C20.041,34.999,20.02,35,19.999,35z"/>
	</g>
	<g>
		<path class="st0" d="M17.504,22.968L17.504,22.968H14c-0.143,0-0.278-0.061-0.373-0.167c-0.095-0.105-0.14-0.247-0.124-0.389
			l0.5-4.463c0.023-0.208,0.175-0.38,0.378-0.43c0.209-0.05,0.417,0.033,0.534,0.206l2.588,3.846l2.582-3.854
			c0.116-0.174,0.331-0.258,0.533-0.207c0.204,0.05,0.355,0.222,0.379,0.43l0.5,4.472c0.016,0.142-0.029,0.283-0.124,0.389
			c-0.096,0.106-0.23,0.167-0.373,0.167H17.504C17.504,22.968,17.504,22.968,17.504,22.968z M18.44,21.968h2.001l-0.286-2.559
			L18.44,21.968z M14.56,21.968h2.005l-1.719-2.555L14.56,21.968z"/>
	</g>
	<g>
		<path class="st0" d="M29.5,35.005c-0.276,0-0.5-0.224-0.5-0.5v-9.254c0-1.774-1.048-3.388-2.668-4.11l-6.035-2.688
			C20.116,18.371,20,18.192,20,17.995v-0.871c-1.627,0.502-3.38,0.499-5-0.005v0.886c0,0.197-0.116,0.377-0.297,0.457l-6.03,2.68
			C7.049,21.863,6,23.478,6,25.254v9.251c0,0.276-0.224,0.5-0.5,0.5S5,34.781,5,34.505v-9.251c0-2.171,1.282-4.144,3.267-5.026
			L14,17.68v-1.271c0-0.166,0.083-0.322,0.221-0.415c0.139-0.092,0.313-0.113,0.468-0.048c1.799,0.73,3.815,0.734,5.624,0.006
			c0.154-0.062,0.33-0.043,0.467,0.05C20.917,16.095,21,16.25,21,16.416v1.255l5.738,2.556C28.72,21.11,30,23.082,30,25.251v9.254
			C30,34.781,29.776,35.005,29.5,35.005z"/>
	</g>
	<g>
		<path class="st0" d="M61,63.5H3c-1.654,0-3-1.346-3-3V39c0-1.654,1.346-3,3-3h58c1.654,0,3,1.346,3,3v21.5
			C64,62.154,62.654,63.5,61,63.5z M3,37c-1.103,0-2,0.897-2,2v21.5c0,1.103,0.897,2,2,2h58c1.103,0,2-0.897,2-2V39
			c0-1.103-0.897-2-2-2H3z"/>
	</g>
	<g>
		<path class="st5" d="M56.5,4h-20C35.119,4,34,5.119,34,6.5V22c0,1.381,1.119,2.5,2.5,2.5H41v3.586
			c0,0.891,1.077,1.337,1.707,0.707L47,24.5h9.5c1.381,0,2.5-1.119,2.5-2.5V6.5C59,5.119,57.881,4,56.5,4z"/>
		<path class="st0" d="M42.01,29.59c-0.194,0-0.393-0.039-0.584-0.118c-0.571-0.236-0.926-0.768-0.926-1.386V25h-4
			c-1.654,0-3-1.346-3-3V6.5c0-1.654,1.346-3,3-3h20c1.654,0,3,1.346,3,3V22c0,1.654-1.346,3-3,3h-9.293l-4.146,4.146
			C42.77,29.438,42.396,29.59,42.01,29.59z M36.5,4.5c-1.103,0-2,0.897-2,2V22c0,1.103,0.897,2,2,2H41c0.276,0,0.5,0.224,0.5,0.5
			v3.586c0,0.31,0.236,0.432,0.309,0.462c0.073,0.03,0.325,0.112,0.545-0.108l4.293-4.293C46.74,24.053,46.867,24,47,24h9.5
			c1.103,0,2-0.897,2-2V6.5c0-1.103-0.897-2-2-2H36.5z"/>
	</g>
	<g>
		<path class="st1" d="M44.379,20.28c-0.384,0-0.768-0.146-1.061-0.439l-4.95-4.95c-0.586-0.585-0.586-1.535,0-2.121
			s1.535-0.586,2.121,0l3.89,3.889l8.132-8.132c0.586-0.586,1.535-0.586,2.121,0c0.586,0.585,0.586,1.536,0,2.121l-9.192,9.192
			C45.146,20.133,44.763,20.28,44.379,20.28z"/>
		<path class="st0" d="M44.379,20.779c-0.534,0-1.036-0.208-1.414-0.586l-4.95-4.949c-0.779-0.779-0.779-2.049,0-2.828
			s2.049-0.779,2.828,0l3.536,3.535l7.778-7.778c0.779-0.779,2.049-0.779,2.828,0c0.378,0.378,0.586,0.88,0.586,1.414
			c0,0.535-0.208,1.037-0.586,1.414l-9.192,9.192C45.415,20.571,44.913,20.779,44.379,20.779z M39.429,12.831
			c-0.256,0-0.512,0.097-0.707,0.292c-0.39,0.39-0.39,1.024,0,1.414l4.95,4.949c0.379,0.377,1.035,0.377,1.414,0l9.192-9.192
			c0.189-0.188,0.293-0.439,0.293-0.707c0-0.267-0.104-0.518-0.293-0.707c-0.391-0.391-1.023-0.391-1.414,0l-8.132,8.132
			c-0.195,0.195-0.512,0.195-0.707,0l-3.89-3.889C39.94,12.928,39.685,12.831,39.429,12.831z"/>
	</g>
	<g>
		<path class="st0" d="M63.5,50.25h-63c-0.276,0-0.5-0.224-0.5-0.5s0.224-0.5,0.5-0.5h63c0.276,0,0.5,0.224,0.5,0.5
			S63.776,50.25,63.5,50.25z"/>
	</g>
	<g>
		<circle class="st3" cx="32" cy="49.75" r="10"/>
		<path class="st0" d="M32,60.25c-5.79,0-10.5-4.71-10.5-10.5s4.71-10.5,10.5-10.5s10.5,4.71,10.5,10.5S37.79,60.25,32,60.25z
			 M32,40.25c-5.238,0-9.5,4.262-9.5,9.5s4.262,9.5,9.5,9.5s9.5-4.262,9.5-9.5S37.238,40.25,32,40.25z"/>
	</g>
	<g>
		<path class="st0" d="M33,50.25h-3.5c-0.276,0-0.5-0.224-0.5-0.5v-4c0-0.276,0.224-0.5,0.5-0.5H33c1.379,0,2.5,1.121,2.5,2.5
			S34.379,50.25,33,50.25z M30,49.25h3c0.827,0,1.5-0.673,1.5-1.5s-0.673-1.5-1.5-1.5h-3V49.25z"/>
	</g>
	<g>
		<path class="st0" d="M34,54.25h-4.5c-0.276,0-0.5-0.224-0.5-0.5v-4c0-0.276,0.224-0.5,0.5-0.5H34c1.379,0,2.5,1.121,2.5,2.5
			S35.379,54.25,34,54.25z M30,53.25h4c0.827,0,1.5-0.673,1.5-1.5s-0.673-1.5-1.5-1.5h-4V53.25z"/>
	</g>
	<g>
		<path class="st0" d="M29.5,46.25H28c-0.276,0-0.5-0.224-0.5-0.5s0.224-0.5,0.5-0.5h1.5c0.276,0,0.5,0.224,0.5,0.5
			S29.776,46.25,29.5,46.25z"/>
	</g>
	<g>
		<path class="st0" d="M29.5,54.25H28c-0.276,0-0.5-0.224-0.5-0.5s0.224-0.5,0.5-0.5h1.5c0.276,0,0.5,0.224,0.5,0.5
			S29.776,54.25,29.5,54.25z"/>
	</g>
	<g>
		<path class="st0" d="M31,46.25c-0.276,0-0.5-0.224-0.5-0.5v-2c0-0.276,0.224-0.5,0.5-0.5s0.5,0.224,0.5,0.5v2
			C31.5,46.026,31.276,46.25,31,46.25z"/>
	</g>
	<g>
		<path class="st0" d="M33,46.25c-0.276,0-0.5-0.224-0.5-0.5v-2c0-0.276,0.224-0.5,0.5-0.5s0.5,0.224,0.5,0.5v2
			C33.5,46.026,33.276,46.25,33,46.25z"/>
	</g>
	<g>
		<path class="st0" d="M31,56.25c-0.276,0-0.5-0.224-0.5-0.5v-2c0-0.276,0.224-0.5,0.5-0.5s0.5,0.224,0.5,0.5v2
			C31.5,56.026,31.276,56.25,31,56.25z"/>
	</g>
	<g>
		<path class="st0" d="M33,56.25c-0.276,0-0.5-0.224-0.5-0.5v-2c0-0.276,0.224-0.5,0.5-0.5s0.5,0.224,0.5,0.5v2
			C33.5,56.026,33.276,56.25,33,56.25z"/>
	</g>
	<g>
		<path class="st0" d="M60.5,45c-0.276,0-0.5-0.224-0.5-0.5v-4c0-0.275-0.225-0.5-0.5-0.5h-4c-0.276,0-0.5-0.224-0.5-0.5
			s0.224-0.5,0.5-0.5h4c0.827,0,1.5,0.673,1.5,1.5v4C61,44.776,60.776,45,60.5,45z"/>
	</g>
</g>
</svg>
