<?xml version="1.0" encoding="utf-8"?>
<!-- Generator: Adobe Illustrator 21.1.0, SVG Export Plug-In . SVG Version: 6.00 Build 0)  -->
<svg version="1.1" id="Icon_Set" xmlns="http://www.w3.org/2000/svg" xmlns:xlink="http://www.w3.org/1999/xlink" x="0px" y="0px"
	 viewBox="0 0 64 64" style="enable-background:new 0 0 64 64;" xml:space="preserve">
<style type="text/css">
	.st0{fill:#263238;}
	.st1{fill:#FFFFFF;}
	.st2{fill:#FF5252;}
	.st3{fill:#FFD740;}
	.st4{fill:#40C4FF;}
	.st5{fill:#4DB6AC;}
	.st6{fill:#4FC3F7;}
</style>
<g id="Payment_System_Technology">
	<g>
		<path class="st3" d="M38.5,47.25h-13c-1.381,0-2.5-1.119-2.5-2.5v-13c0-1.381,1.119-2.5,2.5-2.5h13c1.381,0,2.5,1.119,2.5,2.5v13
			C41,46.131,39.881,47.25,38.5,47.25z"/>
		<path class="st0" d="M38.5,47.75h-13c-1.654,0-3-1.346-3-3v-13c0-1.654,1.346-3,3-3h13c1.654,0,3,1.346,3,3v13
			C41.5,46.404,40.154,47.75,38.5,47.75z M25.5,29.75c-1.103,0-2,0.897-2,2v13c0,1.103,0.897,2,2,2h13c1.103,0,2-0.897,2-2v-13
			c0-1.103-0.897-2-2-2H25.5z"/>
	</g>
	<g>
		<path class="st0" d="M26,56.25c-0.276,0-0.5-0.224-0.5-0.5v-3.5c0-0.276,0.224-0.5,0.5-0.5s0.5,0.224,0.5,0.5v3.5
			C26.5,56.026,26.276,56.25,26,56.25z"/>
	</g>
	<g>
		<path class="st0" d="M38,56.25c-0.276,0-0.5-0.224-0.5-0.5v-3.5c0-0.276,0.224-0.5,0.5-0.5s0.5,0.224,0.5,0.5v3.5
			C38.5,56.026,38.276,56.25,38,56.25z"/>
	</g>
	<g>
		<path class="st0" d="M42,62.25H22c-0.827,0-1.5-0.673-1.5-1.5v-2c0-0.827,0.673-1.5,1.5-1.5h20c0.827,0,1.5,0.673,1.5,1.5v2
			C43.5,61.577,42.827,62.25,42,62.25z M22,58.25c-0.275,0-0.5,0.224-0.5,0.5v2c0,0.276,0.225,0.5,0.5,0.5h20
			c0.275,0,0.5-0.224,0.5-0.5v-2c0-0.276-0.225-0.5-0.5-0.5H22z"/>
	</g>
	<g>
		<path class="st0" d="M61,44.75H43c-0.276,0-0.5-0.224-0.5-0.5s0.224-0.5,0.5-0.5h18c0.276,0,0.5,0.224,0.5,0.5
			S61.276,44.75,61,44.75z"/>
	</g>
	<g>
		<path class="st0" d="M21,44.75H3c-0.276,0-0.5-0.224-0.5-0.5s0.224-0.5,0.5-0.5h18c0.276,0,0.5,0.224,0.5,0.5
			S21.276,44.75,21,44.75z"/>
	</g>
	<g>
		<path class="st0" d="M45,10.75c-0.276,0-0.5-0.224-0.5-0.5v-4c0-0.276-0.225-0.5-0.5-0.5h-4c-0.276,0-0.5-0.224-0.5-0.5
			s0.224-0.5,0.5-0.5h4c0.827,0,1.5,0.673,1.5,1.5v4C45.5,10.526,45.276,10.75,45,10.75z"/>
	</g>
	<g>
		<path class="st0" d="M48,44.75c-0.276,0-0.5-0.224-0.5-0.5V4.75c0-1.103-0.897-2-2-2h-27c-1.103,0-2,0.897-2,2v39.5
			c0,0.276-0.224,0.5-0.5,0.5s-0.5-0.224-0.5-0.5V4.75c0-1.654,1.346-3,3-3h27c1.654,0,3,1.346,3,3v39.5
			C48.5,44.526,48.276,44.75,48,44.75z"/>
	</g>
	<g>
		<path class="st0" d="M56,50.75H8c-3.032,0-5.5-2.467-5.5-5.5v-30c0-3.033,2.468-5.5,5.5-5.5h6c0.276,0,0.5,0.224,0.5,0.5
			s-0.224,0.5-0.5,0.5H8c-2.481,0-4.5,2.019-4.5,4.5v30c0,2.481,2.019,4.5,4.5,4.5h48c2.481,0,4.5-2.019,4.5-4.5v-30
			c0-2.481-2.019-4.5-4.5-4.5h-6c-0.276,0-0.5-0.224-0.5-0.5s0.224-0.5,0.5-0.5h6c3.032,0,5.5,2.467,5.5,5.5v30
			C61.5,48.283,59.032,50.75,56,50.75z"/>
	</g>
	<g>
		<path class="st0" d="M37.594,18.25h-9.5c-0.208,0-0.395-0.129-0.468-0.324l-2.879-7.676h-1.841c-0.276,0-0.5-0.224-0.5-0.5
			s0.224-0.5,0.5-0.5h2.188c0.208,0,0.395,0.129,0.468,0.324l2.879,7.676h8.793l1.667-5l-10.005,0.004l0,0
			c-0.276,0-0.5-0.224-0.5-0.5c0-0.276,0.224-0.5,0.5-0.5l10.698-0.005l0,0c0.161,0,0.312,0.077,0.405,0.208
			c0.095,0.13,0.12,0.298,0.069,0.451l-2,6C38,18.112,37.809,18.25,37.594,18.25z"/>
	</g>
	<g>
		<path class="st0" d="M28.594,24.25c-1.379,0-2.5-1.122-2.5-2.5s1.121-2.5,2.5-2.5s2.5,1.122,2.5,2.5S29.973,24.25,28.594,24.25z
			 M28.594,20.25c-0.827,0-1.5,0.673-1.5,1.5s0.673,1.5,1.5,1.5s1.5-0.673,1.5-1.5S29.421,20.25,28.594,20.25z"/>
	</g>
	<g>
		<path class="st0" d="M35.594,24.25c-1.379,0-2.5-1.122-2.5-2.5s1.121-2.5,2.5-2.5s2.5,1.122,2.5,2.5S36.973,24.25,35.594,24.25z
			 M35.594,20.25c-0.827,0-1.5,0.673-1.5,1.5s0.673,1.5,1.5,1.5s1.5-0.673,1.5-1.5S36.421,20.25,35.594,20.25z"/>
	</g>
	<g>
		<circle class="st5" cx="13.5" cy="21.75" r="7.5"/>
	</g>
	<g>
		<path class="st0" d="M12.086,24.579c-0.133,0-0.26-0.053-0.354-0.146l-2.828-2.829c-0.195-0.195-0.195-0.512,0-0.707
			s0.512-0.195,0.707,0l2.475,2.475l4.949-4.95c0.195-0.195,0.512-0.195,0.707,0s0.195,0.512,0,0.707l-5.303,5.304
			C12.346,24.526,12.219,24.579,12.086,24.579z"/>
	</g>
	<g>
		<path class="st0" d="M27,47.75c-0.276,0-0.5-0.224-0.5-0.5v-5c0-0.276,0.224-0.5,0.5-0.5s0.5,0.224,0.5,0.5v5
			C27.5,47.526,27.276,47.75,27,47.75z"/>
	</g>
	<g>
		<path class="st0" d="M27,42.75c-1.103,0-2-0.897-2-2s0.897-2,2-2s2,0.897,2,2S28.103,42.75,27,42.75z M27,39.75
			c-0.552,0-1,0.449-1,1s0.448,1,1,1s1-0.449,1-1S27.552,39.75,27,39.75z"/>
	</g>
	<g>
		<path class="st0" d="M37,47.75c-0.276,0-0.5-0.224-0.5-0.5v-5c0-0.276,0.224-0.5,0.5-0.5s0.5,0.224,0.5,0.5v5
			C37.5,47.526,37.276,47.75,37,47.75z"/>
	</g>
	<g>
		<path class="st0" d="M37,42.75c-1.103,0-2-0.897-2-2s0.897-2,2-2s2,0.897,2,2S38.103,42.75,37,42.75z M37,39.75
			c-0.552,0-1,0.449-1,1s0.448,1,1,1s1-0.449,1-1S37.552,39.75,37,39.75z"/>
	</g>
	<g>
		<path class="st0" d="M32,47.75c-0.276,0-0.5-0.224-0.5-0.5v-7.793l-3.793-3.793c-0.195-0.195-0.195-0.512,0-0.707
			s0.512-0.195,0.707,0l3.939,3.939c0.094,0.094,0.146,0.221,0.146,0.354v8C32.5,47.526,32.276,47.75,32,47.75z"/>
	</g>
	<g>
		<path class="st0" d="M27,36.25c-1.103,0-2-0.897-2-2s0.897-2,2-2s2,0.897,2,2S28.103,36.25,27,36.25z M27,33.25
			c-0.552,0-1,0.449-1,1s0.448,1,1,1s1-0.449,1-1S27.552,33.25,27,33.25z"/>
	</g>
	<g>
		<path class="st0" d="M47,55.5h-1c-0.276,0-0.5-0.224-0.5-0.5s0.224-0.5,0.5-0.5h1c0.276,0,0.5,0.224,0.5,0.5S47.276,55.5,47,55.5z
			"/>
	</g>
	<g>
		<path class="st0" d="M59,55.5H49c-0.276,0-0.5-0.224-0.5-0.5s0.224-0.5,0.5-0.5h10c0.276,0,0.5,0.224,0.5,0.5S59.276,55.5,59,55.5
			z"/>
	</g>
	<g>
		<path class="st0" d="M18,55.5h-1c-0.276,0-0.5-0.224-0.5-0.5s0.224-0.5,0.5-0.5h1c0.276,0,0.5,0.224,0.5,0.5S18.276,55.5,18,55.5z
			"/>
	</g>
	<g>
		<path class="st0" d="M15,55.5H5c-0.276,0-0.5-0.224-0.5-0.5s0.224-0.5,0.5-0.5h10c0.276,0,0.5,0.224,0.5,0.5S15.276,55.5,15,55.5z
			"/>
	</g>
</g>
</svg>
