<?xml version="1.0" encoding="utf-8"?>
<!-- Generator: Adobe Illustrator 21.1.0, SVG Export Plug-In . SVG Version: 6.00 Build 0)  -->
<svg version="1.1" id="Icon_Set" xmlns="http://www.w3.org/2000/svg" xmlns:xlink="http://www.w3.org/1999/xlink" x="0px" y="0px"
	 viewBox="0 0 64 64" style="enable-background:new 0 0 64 64;" xml:space="preserve">
<style type="text/css">
	.st0{fill:#263238;}
	.st1{fill:#FFFFFF;}
	.st2{fill:#FF5252;}
	.st3{fill:#FFD740;}
	.st4{fill:#40C4FF;}
	.st5{fill:#4DB6AC;}
	.st6{fill:#4FC3F7;}
</style>
<g id="Peer_To_Peer">
	<g>
		<path class="st0" d="M14.5,44C9.813,44,6,40.187,6,35.5S9.813,27,14.5,27s8.5,3.813,8.5,8.5S19.187,44,14.5,44z M14.5,28
			C10.364,28,7,31.364,7,35.5s3.364,7.5,7.5,7.5s7.5-3.364,7.5-7.5S18.636,28,14.5,28z"/>
	</g>
	<g>
		<path class="st0" d="M7.255,36H6.5C6.224,36,6,35.776,6,35.5c0-4.687,3.813-8.5,8.5-8.5c2.526,0,4.905,1.115,6.527,3.058
			c0.085,0.102,0.126,0.233,0.114,0.366c-0.012,0.132-0.076,0.254-0.178,0.339l-0.596,0.496l0,0C16.692,34.316,12.036,36,7.255,36z
			 M7.017,35h0.239c4.547,0,8.976-1.602,12.472-4.51l0.198-0.165C18.512,28.841,16.562,28,14.5,28C10.533,28,7.275,31.096,7.017,35z
			 M20.047,30.874h0.01H20.047z"/>
	</g>
	<g>
		<path class="st0" d="M21.5,62.004c-0.276,0-0.5-0.224-0.5-0.5v-7c0-0.276,0.224-0.5,0.5-0.5s0.5,0.224,0.5,0.5v7
			C22,61.781,21.776,62.004,21.5,62.004z"/>
	</g>
	<g>
		<path class="st0" d="M7.5,62.004c-0.276,0-0.5-0.224-0.5-0.5v-7c0-0.276,0.224-0.5,0.5-0.5s0.5,0.224,0.5,0.5v7
			C8,61.781,7.776,62.004,7.5,62.004z"/>
	</g>
	<g>
		<polygon class="st4" points="17,61 14.51,63.5 12,61 13.5,48.968 15.5,48.968 		"/>
		<path class="st0" d="M14.51,64c-0.132,0-0.259-0.052-0.353-0.146l-2.51-2.5c-0.109-0.109-0.162-0.263-0.143-0.416l1.5-12.032
			c0.031-0.25,0.244-0.438,0.496-0.438h2c0.252,0,0.465,0.188,0.496,0.438l1.5,12.032c0.019,0.153-0.033,0.306-0.142,0.415
			l-2.49,2.5C14.771,63.947,14.644,64,14.51,64C14.51,64,14.51,64,14.51,64z M12.526,60.819l1.982,1.974l1.965-1.973l-1.415-11.352
			h-1.117L12.526,60.819z"/>
	</g>
	<g>
		<path class="st0" d="M14.504,49.468L14.504,49.468H11c-0.142,0-0.278-0.061-0.373-0.167c-0.095-0.106-0.14-0.248-0.125-0.389
			l0.5-4.463c0.023-0.208,0.174-0.38,0.378-0.43c0.203-0.046,0.417,0.033,0.534,0.207l2.588,3.845l2.581-3.854
			c0.117-0.174,0.332-0.257,0.534-0.208c0.204,0.05,0.355,0.222,0.378,0.43l0.5,4.472c0.016,0.142-0.029,0.283-0.125,0.389
			c-0.095,0.106-0.23,0.167-0.373,0.167H14.504L14.504,49.468z M15.44,48.468h2l-0.286-2.559L15.44,48.468z M11.559,48.468h2.005
			l-1.719-2.554L11.559,48.468z"/>
	</g>
	<g>
		<path class="st0" d="M26.5,62.004c-0.276,0-0.5-0.224-0.5-0.5V51.75c0-1.775-1.047-3.388-2.669-4.111l-6.034-2.688
			C17.117,44.872,17,44.693,17,44.496l0-0.872c-1.624,0.501-3.38,0.498-5-0.005l0,0.885c0,0.198-0.116,0.377-0.297,0.458
			l-6.031,2.68C4.049,48.363,3,49.978,3,51.754v9.75c0,0.276-0.224,0.5-0.5,0.5S2,61.781,2,61.504v-9.75
			c0-2.171,1.282-4.144,3.267-5.026L11,44.18L11,42.91c0-0.167,0.083-0.322,0.221-0.415c0.139-0.093,0.313-0.11,0.468-0.049
			c1.799,0.732,3.817,0.735,5.625,0.006c0.153-0.061,0.328-0.044,0.467,0.049C17.917,42.594,18,42.75,18,42.916L18,44.17
			l5.738,2.556C25.72,47.609,27,49.582,27,51.75v9.754C27,61.781,26.776,62.004,26.5,62.004z"/>
	</g>
	<g>
		<path class="st0" d="M14.5,10.5c-0.276,0-0.5-0.224-0.5-0.5V7c0-1.654,1.346-3,3-3h13c0.276,0,0.5,0.224,0.5,0.5S30.276,5,30,5H17
			c-1.103,0-2,0.897-2,2v3C15,10.276,14.776,10.5,14.5,10.5z"/>
	</g>
	<g>
		<path class="st0" d="M28,7c-0.128,0-0.256-0.049-0.354-0.146c-0.195-0.195-0.195-0.512,0-0.707L29.293,4.5l-1.646-1.646
			c-0.195-0.195-0.195-0.512,0-0.707s0.512-0.195,0.707,0l2,2c0.195,0.195,0.195,0.512,0,0.707l-2,2C28.256,6.951,28.128,7,28,7z"/>
	</g>
	<g>
		<path class="st3" d="M19.5,24.505h-10c-0.552,0-1-0.448-1-1v-12c0-0.552,0.448-1,1-1h10c0.552,0,1,0.448,1,1v12
			C20.5,24.057,20.052,24.505,19.5,24.505z"/>
		<path class="st0" d="M19.5,25.005h-10c-0.827,0-1.5-0.673-1.5-1.5v-12c0-0.827,0.673-1.5,1.5-1.5h10c0.827,0,1.5,0.673,1.5,1.5v12
			C21,24.332,20.327,25.005,19.5,25.005z M9.5,11.005c-0.276,0-0.5,0.224-0.5,0.5v12c0,0.276,0.224,0.5,0.5,0.5h10
			c0.276,0,0.5-0.224,0.5-0.5v-12c0-0.276-0.224-0.5-0.5-0.5H9.5z"/>
	</g>
	<g>
		<path class="st0" d="M17.5,15.005h-6c-0.276,0-0.5-0.224-0.5-0.5s0.224-0.5,0.5-0.5h6c0.276,0,0.5,0.224,0.5,0.5
			S17.776,15.005,17.5,15.005z"/>
	</g>
	<g>
		<path class="st0" d="M17.5,18.005h-6c-0.276,0-0.5-0.224-0.5-0.5s0.224-0.5,0.5-0.5h6c0.276,0,0.5,0.224,0.5,0.5
			S17.776,18.005,17.5,18.005z"/>
	</g>
	<g>
		<path class="st0" d="M17.5,21.005h-6c-0.276,0-0.5-0.224-0.5-0.5s0.224-0.5,0.5-0.5h6c0.276,0,0.5,0.224,0.5,0.5
			S17.776,21.005,17.5,21.005z"/>
	</g>
	<g>
		<path class="st0" d="M49.5,17c-4.687,0-8.5-3.813-8.5-8.5S44.813,0,49.5,0S58,3.813,58,8.5S54.187,17,49.5,17z M49.5,1
			C45.364,1,42,4.364,42,8.5s3.364,7.5,7.5,7.5S57,12.636,57,8.5S53.636,1,49.5,1z"/>
	</g>
	<g>
		<path class="st0" d="M42.255,9H41.5C41.224,9,41,8.776,41,8.5C41,3.813,44.813,0,49.5,0c2.526,0,4.905,1.115,6.527,3.058
			c0.085,0.102,0.126,0.233,0.114,0.366c-0.012,0.132-0.076,0.254-0.178,0.339l-0.596,0.496l0,0C51.692,7.316,47.036,9,42.255,9z
			 M42.017,8h0.239c4.547,0,8.976-1.602,12.472-4.51l0.198-0.165C53.512,1.842,51.562,1,49.5,1C45.533,1,42.275,4.097,42.017,8z
			 M55.047,3.875h0.01H55.047z"/>
	</g>
	<g>
		<path class="st0" d="M56.5,35.005c-0.276,0-0.5-0.224-0.5-0.5v-7c0-0.276,0.224-0.5,0.5-0.5s0.5,0.224,0.5,0.5v7
			C57,34.781,56.776,35.005,56.5,35.005z"/>
	</g>
	<g>
		<path class="st0" d="M42.5,35.005c-0.276,0-0.5-0.224-0.5-0.5v-7c0-0.276,0.224-0.5,0.5-0.5s0.5,0.224,0.5,0.5v7
			C43,34.781,42.776,35.005,42.5,35.005z"/>
	</g>
	<g>
		<polygon class="st4" points="52,34 49.51,36.5 47,34 48.5,21.968 50.5,21.968 		"/>
		<path class="st0" d="M49.51,37c-0.132,0-0.259-0.052-0.353-0.146l-2.51-2.5c-0.109-0.109-0.162-0.263-0.143-0.416l1.5-12.032
			c0.031-0.25,0.244-0.438,0.496-0.438h2c0.252,0,0.465,0.188,0.496,0.438l1.5,12.032c0.019,0.153-0.033,0.306-0.142,0.415
			l-2.49,2.5C49.771,36.947,49.644,37,49.51,37C49.51,37,49.51,37,49.51,37z M47.526,33.819l1.982,1.974l1.965-1.973l-1.415-11.352
			h-1.117L47.526,33.819z"/>
	</g>
	<g>
		<path class="st0" d="M49.504,22.468L49.504,22.468H46c-0.142,0-0.278-0.061-0.373-0.167c-0.095-0.106-0.14-0.248-0.125-0.389
			l0.5-4.463c0.023-0.208,0.174-0.38,0.378-0.43c0.205-0.047,0.417,0.033,0.534,0.207l2.588,3.845l2.581-3.854
			c0.117-0.174,0.331-0.258,0.534-0.208c0.204,0.05,0.355,0.222,0.378,0.43l0.5,4.472c0.016,0.142-0.029,0.283-0.125,0.389
			c-0.095,0.106-0.23,0.167-0.373,0.167H49.504L49.504,22.468z M50.44,21.468h2l-0.286-2.559L50.44,21.468z M46.559,21.468h2.005
			l-1.719-2.554L46.559,21.468z"/>
	</g>
	<g>
		<path class="st0" d="M61.5,35.005c-0.276,0-0.5-0.224-0.5-0.5v-9.754c0-1.775-1.047-3.388-2.669-4.111l-6.034-2.688
			C52.117,17.872,52,17.693,52,17.496l0-0.872c-1.625,0.501-3.38,0.498-5-0.005l0,0.885c0,0.198-0.116,0.377-0.297,0.458
			l-6.031,2.68C39.049,21.363,38,22.978,38,24.754v9.75c0,0.276-0.224,0.5-0.5,0.5s-0.5-0.224-0.5-0.5v-9.75
			c0-2.172,1.282-4.145,3.267-5.026L46,17.181L46,15.91c0-0.167,0.083-0.322,0.221-0.415c0.139-0.093,0.313-0.11,0.468-0.049
			c1.799,0.732,3.817,0.735,5.625,0.006c0.153-0.061,0.328-0.044,0.467,0.049C52.917,15.595,53,15.75,53,15.916L53,17.171
			l5.738,2.556C60.72,20.61,62,22.582,62,24.751v9.754C62,34.781,61.776,35.005,61.5,35.005z"/>
	</g>
	<g>
		<path class="st0" d="M47,59.5H34c-0.276,0-0.5-0.224-0.5-0.5s0.224-0.5,0.5-0.5h13c1.103,0,2-0.897,2-2v-3
			c0-0.276,0.224-0.5,0.5-0.5s0.5,0.224,0.5,0.5v3C50,58.154,48.654,59.5,47,59.5z"/>
	</g>
	<g>
		<path class="st0" d="M36,61.5c-0.128,0-0.256-0.049-0.354-0.146l-2-2c-0.195-0.195-0.195-0.512,0-0.707l2-2
			c0.195-0.195,0.512-0.195,0.707,0s0.195,0.512,0,0.707L34.707,59l1.646,1.646c0.195,0.195,0.195,0.512,0,0.707
			C36.256,61.451,36.128,61.5,36,61.5z"/>
	</g>
	<g>
		<path class="st3" d="M54.5,53.5h-10c-0.552,0-1-0.448-1-1v-12c0-0.552,0.448-1,1-1h10c0.552,0,1,0.448,1,1v12
			C55.5,53.053,55.052,53.5,54.5,53.5z"/>
		<path class="st0" d="M54.5,54h-10c-0.827,0-1.5-0.673-1.5-1.5v-12c0-0.827,0.673-1.5,1.5-1.5h10c0.827,0,1.5,0.673,1.5,1.5v12
			C56,53.328,55.327,54,54.5,54z M44.5,40c-0.276,0-0.5,0.224-0.5,0.5v12c0,0.276,0.224,0.5,0.5,0.5h10c0.276,0,0.5-0.224,0.5-0.5
			v-12c0-0.276-0.224-0.5-0.5-0.5H44.5z"/>
	</g>
	<g>
		<path class="st0" d="M52.5,44h-6c-0.276,0-0.5-0.224-0.5-0.5s0.224-0.5,0.5-0.5h6c0.276,0,0.5,0.224,0.5,0.5S52.776,44,52.5,44z"
			/>
	</g>
	<g>
		<path class="st0" d="M52.5,47h-6c-0.276,0-0.5-0.224-0.5-0.5s0.224-0.5,0.5-0.5h6c0.276,0,0.5,0.224,0.5,0.5S52.776,47,52.5,47z"
			/>
	</g>
	<g>
		<path class="st0" d="M52.5,50h-6c-0.276,0-0.5-0.224-0.5-0.5s0.224-0.5,0.5-0.5h6c0.276,0,0.5,0.224,0.5,0.5S52.776,50,52.5,50z"
			/>
	</g>
	<g>
		<path class="st0" d="M58.5,53.5c-0.276,0-0.5-0.224-0.5-0.5v-1c0-0.276,0.224-0.5,0.5-0.5S59,51.724,59,52v1
			C59,53.277,58.776,53.5,58.5,53.5z"/>
	</g>
	<g>
		<path class="st0" d="M58.5,50.5c-0.276,0-0.5-0.224-0.5-0.5V40c0-0.276,0.224-0.5,0.5-0.5S59,39.724,59,40v10
			C59,50.277,58.776,50.5,58.5,50.5z"/>
	</g>
	<g>
		<path class="st0" d="M5.5,12.505c-0.276,0-0.5-0.224-0.5-0.5v-1c0-0.276,0.224-0.5,0.5-0.5s0.5,0.224,0.5,0.5v1
			C6,12.281,5.776,12.505,5.5,12.505z"/>
	</g>
	<g>
		<path class="st0" d="M5.5,24.505c-0.276,0-0.5-0.224-0.5-0.5v-10c0-0.276,0.224-0.5,0.5-0.5s0.5,0.224,0.5,0.5v10
			C6,24.281,5.776,24.505,5.5,24.505z"/>
	</g>
</g>
</svg>
