<?xml version="1.0" encoding="utf-8"?>
<!-- Generator: Adobe Illustrator 21.1.0, SVG Export Plug-In . SVG Version: 6.00 Build 0)  -->
<svg version="1.1" id="Icon_Set" xmlns="http://www.w3.org/2000/svg" xmlns:xlink="http://www.w3.org/1999/xlink" x="0px" y="0px"
	 viewBox="0 0 64 64" style="enable-background:new 0 0 64 64;" xml:space="preserve">
<style type="text/css">
	.st0{fill:#263238;}
	.st1{fill:#FFFFFF;}
	.st2{fill:#FF5252;}
	.st3{fill:#FFD740;}
	.st4{fill:#40C4FF;}
	.st5{fill:#4DB6AC;}
	.st6{fill:#4FC3F7;}
</style>
<g id="Proof_Of_Capacity">
	<g>
		<polygon class="st4" points="28.5,23 4.5,23 4.5,21 6,19 27,19 28.5,21 		"/>
		<path class="st0" d="M28.5,23.5h-24C4.224,23.5,4,23.276,4,23v-2c0-0.108,0.035-0.214,0.1-0.3l1.5-2
			c0.094-0.126,0.243-0.2,0.4-0.2h21c0.157,0,0.306,0.074,0.4,0.2l1.5,2c0.065,0.086,0.1,0.191,0.1,0.3v2
			C29,23.276,28.776,23.5,28.5,23.5z M5,22.5h23v-1.333L26.75,19.5H6.25L5,21.167V22.5z"/>
	</g>
	<g>
		<polygon class="st4" points="28.5,23 4.5,23 4.5,21 6,19 27,19 28.5,21 		"/>
		<path class="st0" d="M28.5,23.5h-24C4.224,23.5,4,23.276,4,23v-2c0-0.108,0.035-0.214,0.1-0.3l1.5-2
			c0.094-0.126,0.243-0.2,0.4-0.2h21c0.157,0,0.306,0.074,0.4,0.2l1.5,2c0.065,0.086,0.1,0.191,0.1,0.3v2
			C29,23.276,28.776,23.5,28.5,23.5z M5,22.5h23v-1.333L26.75,19.5H6.25L5,21.167V22.5z"/>
	</g>
	<g>
		<path class="st0" d="M16.5,35.5C10.71,35.5,6,30.79,6,25c0-0.276,0.224-0.5,0.5-0.5S7,24.724,7,25c0,5.238,4.262,9.5,9.5,9.5
			S26,30.238,26,25c0-0.276,0.224-0.5,0.5-0.5S27,24.724,27,25C27,30.79,22.29,35.5,16.5,35.5z"/>
	</g>
	<g>
		<polygon class="st4" points="19.5,19 13.5,19 13.5,14.5 15,8 18,8 19.5,14.5 		"/>
		<path class="st0" d="M19.5,19.5h-6c-0.276,0-0.5-0.224-0.5-0.5v-4.5c0-0.038,0.004-0.075,0.013-0.112l1.5-6.5
			C14.565,7.661,14.767,7.5,15,7.5h3c0.233,0,0.435,0.161,0.487,0.388l1.5,6.5C19.996,14.425,20,14.462,20,14.5V19
			C20,19.276,19.776,19.5,19.5,19.5z M14,18.5h5v-3.943L17.602,8.5h-2.204L14,14.557V18.5z"/>
	</g>
	<g>
		<path class="st4" d="M14.731,9.165C10.053,10.002,6.5,14.082,6.5,19h7v-4.5L14.731,9.165z"/>
		<path class="st0" d="M13.5,19.5h-7C6.224,19.5,6,19.276,6,19c0-5.088,3.635-9.431,8.643-10.327
			c0.166-0.028,0.334,0.026,0.45,0.147c0.116,0.122,0.163,0.294,0.125,0.457L14,14.557V19C14,19.276,13.776,19.5,13.5,19.5z
			 M7.013,18.5H13v-4c0-0.038,0.004-0.075,0.013-0.112l1.053-4.564C10.088,10.87,7.228,14.371,7.013,18.5z"/>
	</g>
	<g>
		<path class="st4" d="M26.5,19c0-4.918-3.553-8.998-8.231-9.834L19.5,14.5V19H26.5z"/>
		<path class="st0" d="M26.5,19.5h-7c-0.276,0-0.5-0.224-0.5-0.5v-4.443l-1.218-5.279c-0.038-0.163,0.009-0.335,0.125-0.457
			c0.116-0.121,0.285-0.177,0.45-0.147C23.365,9.569,27,13.912,27,19C27,19.276,26.776,19.5,26.5,19.5z M20,18.5h5.987
			c-0.215-4.129-3.075-7.63-7.053-8.677l1.053,4.564C19.996,14.425,20,14.462,20,14.5V18.5z"/>
	</g>
	<g>
		<path class="st0" d="M32.5,60.5c-0.276,0-0.5-0.224-0.5-0.5V45.09c0-1.716-0.953-3.258-2.488-4.024l-8.857-4.429
			c-1.002,1.263-2.525,2.004-4.155,2.004s-3.152-0.741-4.155-2.004l-8.857,4.429C1.953,41.832,1,43.374,1,45.09V60
			c0,0.276-0.224,0.5-0.5,0.5S0,60.276,0,60V45.09c0-2.097,1.165-3.981,3.041-4.919l9.236-4.618c0.226-0.115,0.5-0.04,0.64,0.17
			c0.801,1.201,2.141,1.918,3.584,1.918s2.783-0.717,3.584-1.918c0.14-0.21,0.414-0.285,0.64-0.17l9.236,4.618
			C31.835,41.108,33,42.993,33,45.09V60C33,60.276,32.776,60.5,32.5,60.5z"/>
	</g>
	<g>
		<path class="st0" d="M16.5,38.641c-1.779,0-3.43-0.884-4.416-2.363C12.029,36.195,12,36.099,12,36v-1.761
			c0-0.165,0.082-0.32,0.218-0.413c0.137-0.094,0.31-0.111,0.464-0.053c2.458,0.965,5.177,0.965,7.635,0
			c0.154-0.059,0.328-0.04,0.464,0.053C20.918,33.919,21,34.074,21,34.239V36c0,0.099-0.029,0.195-0.084,0.277
			C19.93,37.757,18.279,38.641,16.5,38.641z M13,35.844c0.809,1.128,2.106,1.797,3.5,1.797s2.691-0.669,3.5-1.797v-0.896
			c-2.272,0.732-4.728,0.732-7,0V35.844z"/>
	</g>
	<g>
		<path class="st0" d="M6.5,60.5C6.224,60.5,6,60.276,6,60V49.227l-5.679-4.969c-0.208-0.182-0.229-0.497-0.047-0.705
			c0.182-0.209,0.498-0.229,0.706-0.047l5.85,5.118C6.938,48.719,7,48.855,7,49v11C7,60.276,6.776,60.5,6.5,60.5z"/>
	</g>
	<g>
		<path class="st0" d="M26.5,60.5c-0.276,0-0.5-0.224-0.5-0.5V49c0-0.145,0.062-0.281,0.171-0.376l5.85-5.118
			c0.207-0.182,0.523-0.162,0.706,0.047c0.182,0.208,0.161,0.523-0.047,0.705L27,49.227V60C27,60.276,26.776,60.5,26.5,60.5z"/>
	</g>
	<g>
		<path class="st0" d="M16.5,60.5c-0.276,0-0.5-0.224-0.5-0.5V38.141c0-0.276,0.224-0.5,0.5-0.5s0.5,0.224,0.5,0.5V60
			C17,60.276,16.776,60.5,16.5,60.5z"/>
	</g>
	<g>
		<path class="st0" d="M57.523,43.5h-18c-0.827,0-1.5-0.673-1.5-1.5v-4c0-0.827,0.673-1.5,1.5-1.5h18c0.827,0,1.5,0.673,1.5,1.5v4
			C59.023,42.827,58.351,43.5,57.523,43.5z M39.523,37.5c-0.276,0-0.5,0.225-0.5,0.5v4c0,0.275,0.224,0.5,0.5,0.5h18
			c0.276,0,0.5-0.225,0.5-0.5v-4c0-0.275-0.224-0.5-0.5-0.5H39.523z"/>
	</g>
	<g>
		<path class="st0" d="M44.023,40.5h-2.5c-0.276,0-0.5-0.224-0.5-0.5s0.224-0.5,0.5-0.5h2.5c0.276,0,0.5,0.224,0.5,0.5
			S44.3,40.5,44.023,40.5z"/>
	</g>
	<g>
		<path class="st0" d="M57.523,49.5h-18c-0.827,0-1.5-0.673-1.5-1.5v-4c0-0.827,0.673-1.5,1.5-1.5h18c0.827,0,1.5,0.673,1.5,1.5v4
			C59.023,48.827,58.351,49.5,57.523,49.5z M39.523,43.5c-0.276,0-0.5,0.225-0.5,0.5v4c0,0.275,0.224,0.5,0.5,0.5h18
			c0.276,0,0.5-0.225,0.5-0.5v-4c0-0.275-0.224-0.5-0.5-0.5H39.523z"/>
	</g>
	<g>
		<path class="st0" d="M44.023,46.5h-2.5c-0.276,0-0.5-0.224-0.5-0.5s0.224-0.5,0.5-0.5h2.5c0.276,0,0.5,0.224,0.5,0.5
			S44.3,46.5,44.023,46.5z"/>
	</g>
	<g>
		<path class="st0" d="M57.523,55.5h-18c-0.827,0-1.5-0.673-1.5-1.5v-4c0-0.827,0.673-1.5,1.5-1.5h18c0.827,0,1.5,0.673,1.5,1.5v4
			C59.023,54.827,58.351,55.5,57.523,55.5z M39.523,49.5c-0.276,0-0.5,0.225-0.5,0.5v4c0,0.275,0.224,0.5,0.5,0.5h18
			c0.276,0,0.5-0.225,0.5-0.5v-4c0-0.275-0.224-0.5-0.5-0.5H39.523z"/>
	</g>
	<g>
		<path class="st0" d="M44.023,52.5h-2.5c-0.276,0-0.5-0.224-0.5-0.5s0.224-0.5,0.5-0.5h2.5c0.276,0,0.5,0.224,0.5,0.5
			S44.3,52.5,44.023,52.5z"/>
	</g>
	<g>
		<path class="st0" d="M50.023,59.5h-3c-0.276,0-0.5-0.224-0.5-0.5v-4c0-0.276,0.224-0.5,0.5-0.5h3c0.276,0,0.5,0.224,0.5,0.5v4
			C50.523,59.276,50.3,59.5,50.023,59.5z M47.523,58.5h2v-3h-2V58.5z"/>
	</g>
	<g>
		<path class="st0" d="M54.523,59.5h-12c-0.276,0-0.5-0.224-0.5-0.5s0.224-0.5,0.5-0.5h12c0.276,0,0.5,0.224,0.5,0.5
			S54.8,59.5,54.523,59.5z"/>
	</g>
	<g>
		<circle class="st3" cx="39.5" cy="16" r="6"/>
		<path class="st0" d="M39.5,22.5c-3.584,0-6.5-2.916-6.5-6.5s2.916-6.5,6.5-6.5S46,12.416,46,16S43.084,22.5,39.5,22.5z M39.5,10.5
			c-3.033,0-5.5,2.468-5.5,5.5s2.467,5.5,5.5,5.5S45,19.032,45,16S42.533,10.5,39.5,10.5z"/>
	</g>
	<g>
		<path class="st0" d="M40.5,16.5h-2.75c-0.276,0-0.5-0.224-0.5-0.5v-2.5c0-0.276,0.224-0.5,0.5-0.5h2.75
			c0.965,0,1.75,0.785,1.75,1.75S41.465,16.5,40.5,16.5z M38.25,15.5h2.25c0.414,0,0.75-0.337,0.75-0.75S40.914,14,40.5,14h-2.25
			V15.5z"/>
	</g>
	<g>
		<path class="st0" d="M37.75,14h-1c-0.276,0-0.5-0.224-0.5-0.5s0.224-0.5,0.5-0.5h1c0.276,0,0.5,0.224,0.5,0.5S38.026,14,37.75,14z
			"/>
	</g>
	<g>
		<path class="st0" d="M37.75,19h-1c-0.276,0-0.5-0.224-0.5-0.5s0.224-0.5,0.5-0.5h1c0.276,0,0.5,0.224,0.5,0.5S38.026,19,37.75,19z
			"/>
	</g>
	<g>
		<path class="st0" d="M38.25,14c-0.276,0-0.5-0.224-0.5-0.5v-1c0-0.276,0.224-0.5,0.5-0.5s0.5,0.224,0.5,0.5v1
			C38.75,13.776,38.526,14,38.25,14z"/>
	</g>
	<g>
		<path class="st0" d="M40.25,14c-0.276,0-0.5-0.224-0.5-0.5v-1c0-0.276,0.224-0.5,0.5-0.5s0.5,0.224,0.5,0.5v1
			C40.75,13.776,40.526,14,40.25,14z"/>
	</g>
	<g>
		<path class="st0" d="M38.25,20c-0.276,0-0.5-0.224-0.5-0.5v-1c0-0.276,0.224-0.5,0.5-0.5s0.5,0.224,0.5,0.5v1
			C38.75,19.776,38.526,20,38.25,20z"/>
	</g>
	<g>
		<path class="st0" d="M40.25,20c-0.276,0-0.5-0.224-0.5-0.5v-1c0-0.276,0.224-0.5,0.5-0.5s0.5,0.224,0.5,0.5v1
			C40.75,19.776,40.526,20,40.25,20z"/>
	</g>
	<g>
		<path class="st0" d="M41,19h-3.25c-0.276,0-0.5-0.224-0.5-0.5V16c0-0.276,0.224-0.5,0.5-0.5H41c0.965,0,1.75,0.785,1.75,1.75
			S41.965,19,41,19z M38.25,18H41c0.414,0,0.75-0.337,0.75-0.75S41.414,16.5,41,16.5h-2.75V18z"/>
	</g>
	<g>
		<path class="st0" d="M57.5,22.5c-3.584,0-6.5-2.916-6.5-6.5s2.916-6.5,6.5-6.5S64,12.416,64,16S61.084,22.5,57.5,22.5z M57.5,10.5
			c-3.033,0-5.5,2.468-5.5,5.5s2.467,5.5,5.5,5.5S63,19.032,63,16S60.533,10.5,57.5,10.5z"/>
	</g>
	<g>
		<path class="st2" d="M61.5,16c0,2.209-1.791,4-4,4s-4-1.791-4-4h4v-4C59.709,12,61.5,13.791,61.5,16z"/>
	</g>
	<g>
		<path class="st0" d="M57.5,16.5h-4c-0.276,0-0.5-0.224-0.5-0.5s0.224-0.5,0.5-0.5H57V12c0-0.276,0.224-0.5,0.5-0.5
			S58,11.724,58,12v4C58,16.276,57.776,16.5,57.5,16.5z"/>
	</g>
	<g>
		<path class="st0" d="M48.5,28.494c-3.201,0-6.402-1.219-8.839-3.655c-0.195-0.195-0.195-0.512,0-0.707s0.512-0.195,0.707,0
			c4.484,4.484,11.779,4.484,16.264,0c0.195-0.195,0.512-0.195,0.707,0s0.195,0.512,0,0.707
			C54.902,27.275,51.701,28.494,48.5,28.494z"/>
	</g>
	<g>
		<path class="st0" d="M56.985,8.015c-0.128,0-0.256-0.049-0.354-0.146c-4.484-4.484-11.779-4.484-16.264,0
			c-0.195,0.195-0.512,0.195-0.707,0s-0.195-0.512,0-0.707c4.874-4.873,12.804-4.873,17.678,0c0.195,0.195,0.195,0.512,0,0.707
			C57.241,7.966,57.113,8.015,56.985,8.015z"/>
	</g>
	<g>
		<path class="st0" d="M16.5,30.5c-1.469,0-2.851-0.572-3.889-1.611c-0.195-0.195-0.195-0.512,0-0.707s0.512-0.195,0.707,0
			c0.85,0.851,1.98,1.318,3.182,1.318s2.332-0.468,3.182-1.318c0.195-0.195,0.512-0.195,0.707,0s0.195,0.512,0,0.707
			C19.351,29.928,17.969,30.5,16.5,30.5z"/>
	</g>
</g>
</svg>
