<?xml version="1.0" encoding="utf-8"?>
<!-- Generator: Adobe Illustrator 21.1.0, SVG Export Plug-In . SVG Version: 6.00 Build 0)  -->
<svg version="1.1" id="Icon_Set" xmlns="http://www.w3.org/2000/svg" xmlns:xlink="http://www.w3.org/1999/xlink" x="0px" y="0px"
	 viewBox="0 0 64 64" style="enable-background:new 0 0 64 64;" xml:space="preserve">
<style type="text/css">
	.st0{fill:#263238;}
	.st1{fill:#FFFFFF;}
	.st2{fill:#FF5252;}
	.st3{fill:#FFD740;}
	.st4{fill:#40C4FF;}
	.st5{fill:#4DB6AC;}
	.st6{fill:#4FC3F7;}
</style>
<g id="Proof_Of_Elapsed_Time">
	<g>
		<circle class="st3" cx="32" cy="32" r="8"/>
		<path class="st0" d="M32,40.5c-4.687,0-8.5-3.813-8.5-8.5s3.813-8.5,8.5-8.5c4.687,0,8.5,3.813,8.5,8.5S36.687,40.5,32,40.5z
			 M32,24.5c-4.136,0-7.5,3.364-7.5,7.5s3.364,7.5,7.5,7.5s7.5-3.364,7.5-7.5S36.136,24.5,32,24.5z"/>
	</g>
	<g>
		<path class="st0" d="M33,32.5h-3.25c-0.276,0-0.5-0.224-0.5-0.5v-3.5c0-0.276,0.224-0.5,0.5-0.5H33c1.24,0,2.25,1.01,2.25,2.25
			S34.24,32.5,33,32.5z M30.25,31.5H33c0.689,0,1.25-0.561,1.25-1.25S33.689,29,33,29h-2.75V31.5z"/>
	</g>
	<g>
		<path class="st0" d="M33.5,36h-3.75c-0.276,0-0.5-0.224-0.5-0.5V32c0-0.276,0.224-0.5,0.5-0.5h3.75c1.24,0,2.25,1.01,2.25,2.25
			S34.74,36,33.5,36z M30.25,35h3.25c0.689,0,1.25-0.561,1.25-1.25s-0.561-1.25-1.25-1.25h-3.25V35z"/>
	</g>
	<g>
		<path class="st0" d="M29.75,29h-1c-0.276,0-0.5-0.224-0.5-0.5s0.224-0.5,0.5-0.5h1c0.276,0,0.5,0.224,0.5,0.5S30.026,29,29.75,29z
			"/>
	</g>
	<g>
		<path class="st0" d="M29.75,36h-1c-0.276,0-0.5-0.224-0.5-0.5s0.224-0.5,0.5-0.5h1c0.276,0,0.5,0.224,0.5,0.5S30.026,36,29.75,36z
			"/>
	</g>
	<g>
		<path class="st0" d="M30.75,28.5c-0.276,0-0.5-0.224-0.5-0.5v-1c0-0.276,0.224-0.5,0.5-0.5s0.5,0.224,0.5,0.5v1
			C31.25,28.276,31.026,28.5,30.75,28.5z"/>
	</g>
	<g>
		<path class="st0" d="M32.75,28.5c-0.276,0-0.5-0.224-0.5-0.5v-1c0-0.276,0.224-0.5,0.5-0.5s0.5,0.224,0.5,0.5v1
			C33.25,28.276,33.026,28.5,32.75,28.5z"/>
	</g>
	<g>
		<path class="st0" d="M30.75,37.5c-0.276,0-0.5-0.224-0.5-0.5v-1c0-0.276,0.224-0.5,0.5-0.5s0.5,0.224,0.5,0.5v1
			C31.25,37.276,31.026,37.5,30.75,37.5z"/>
	</g>
	<g>
		<path class="st0" d="M32.75,37.5c-0.276,0-0.5-0.224-0.5-0.5v-1c0-0.276,0.224-0.5,0.5-0.5s0.5,0.224,0.5,0.5v1
			C33.25,37.276,33.026,37.5,32.75,37.5z"/>
	</g>
	<g>
		<path class="st0" d="M10.505,33.25c-3.033,0-5.5-2.468-5.5-5.5s2.467-5.5,5.5-5.5s5.5,2.468,5.5,5.5S13.538,33.25,10.505,33.25z
			 M10.505,23.25c-2.481,0-4.5,2.019-4.5,4.5s2.019,4.5,4.5,4.5s4.5-2.019,4.5-4.5S12.986,23.25,10.505,23.25z"/>
	</g>
	<g>
		<path class="st0" d="M5.977,28.25H5.505c-0.276,0-0.5-0.224-0.5-0.5c0-3.032,2.467-5.5,5.5-5.5c1.634,0,3.174,0.721,4.223,1.979
			c0.085,0.102,0.126,0.233,0.114,0.365c-0.012,0.132-0.076,0.254-0.178,0.339l-0.373,0.311c0,0,0,0,0,0.001
			C11.962,27.183,9.009,28.25,5.977,28.25z M10.505,23.25c-2.312,0-4.223,1.753-4.472,4c2.765-0.013,5.455-0.987,7.586-2.747
			C12.784,23.701,11.674,23.25,10.505,23.25z"/>
	</g>
	<g>
		<path class="st0" d="M10.5,38.218c-0.181,0-0.348-0.098-0.436-0.255L7.56,33.5c-0.042-0.075-0.064-0.159-0.064-0.245l0-1.203
			c0-0.179,0.096-0.345,0.251-0.434c0.155-0.09,0.347-0.09,0.501,0.002c1.422,0.832,3.064,0.838,4.497,0.009
			c0.155-0.09,0.346-0.089,0.5-0.001c0.155,0.09,0.25,0.255,0.25,0.434l0,1.184c0,0.085-0.022,0.169-0.063,0.244l-2.496,4.473
			C10.848,38.119,10.682,38.218,10.5,38.218L10.5,38.218z M8.496,33.124l2.003,3.57l1.997-3.579v-0.254
			c-1.291,0.519-2.715,0.515-4-0.006V33.124z"/>
	</g>
	<g>
		<path class="st0" d="M18.505,41.75c-0.276,0-0.5-0.224-0.5-0.5v-3.891c0-0.782-0.46-1.497-1.172-1.82L12.789,33.7
			c-0.251-0.114-0.362-0.411-0.248-0.662c0.114-0.251,0.408-0.361,0.662-0.248l4.043,1.839c1.068,0.485,1.758,1.557,1.758,2.73
			v3.891C19.005,41.526,18.781,41.75,18.505,41.75z"/>
	</g>
	<g>
		<path class="st0" d="M2.5,41.75c-0.276,0-0.5-0.224-0.5-0.5v-3.89c0-1.174,0.691-2.246,1.76-2.731L7.79,32.8
			c0.252-0.114,0.548-0.002,0.662,0.248c0.114,0.252,0.003,0.548-0.249,0.662l-4.029,1.829C3.46,35.862,3,36.577,3,37.36v3.89
			C3,41.526,2.776,41.75,2.5,41.75z"/>
	</g>
	<g>
		<path class="st0" d="M10.5,41.718c-0.276,0-0.5-0.224-0.5-0.5v-3.5c0-0.276,0.224-0.5,0.5-0.5s0.5,0.224,0.5,0.5v3.5
			C11,41.494,10.776,41.718,10.5,41.718z"/>
	</g>
	<g>
		<path class="st0" d="M35.5,62.5h-9c-1.93,0-3.5-1.57-3.5-3.5c0-0.276,0.224-0.5,0.5-0.5H33c0.276,0,0.5,0.224,0.5,0.5v0.5
			c0,1.103,0.897,2,2,2c0.276,0,0.5,0.224,0.5,0.5S35.776,62.5,35.5,62.5z M24.05,59.5c0.232,1.14,1.242,2,2.45,2h6.766
			c-0.476-0.531-0.766-1.232-0.766-2H24.05z"/>
	</g>
	<g>
		<path class="st0" d="M40.5,49.5H38c-0.276,0-0.5-0.224-0.5-0.5v-3c0-0.276,0.224-0.5,0.5-0.5c1.654,0,3,1.346,3,3V49
			C41,49.276,40.776,49.5,40.5,49.5z M38.5,48.5H40c0-0.931-0.639-1.714-1.5-1.937V48.5z"/>
	</g>
	<g>
		<path class="st4" d="M28.5,46c-1.381,0-2.5,1.119-2.5,2.5V59h7v0.5c0,1.381,1.119,2.5,2.5,2.5s2.5-1.119,2.5-2.5V46H28.5z"/>
		<path class="st0" d="M35.5,62.5c-1.654,0-3-1.346-3-3H26c-0.276,0-0.5-0.224-0.5-0.5V48.5c0-1.654,1.346-3,3-3H38
			c0.276,0,0.5,0.224,0.5,0.5v13.5C38.5,61.154,37.154,62.5,35.5,62.5z M26.5,58.5H33c0.276,0,0.5,0.224,0.5,0.5v0.5
			c0,1.103,0.897,2,2,2s2-0.897,2-2v-13h-9c-1.103,0-2,0.897-2,2V58.5z"/>
	</g>
	<g>
		<path class="st0" d="M35,50.5h-6c-0.276,0-0.5-0.224-0.5-0.5s0.224-0.5,0.5-0.5h6c0.276,0,0.5,0.224,0.5,0.5S35.276,50.5,35,50.5z
			"/>
	</g>
	<g>
		<path class="st0" d="M35,53.5h-6c-0.276,0-0.5-0.224-0.5-0.5s0.224-0.5,0.5-0.5h6c0.276,0,0.5,0.224,0.5,0.5S35.276,53.5,35,53.5z
			"/>
	</g>
	<g>
		<path class="st0" d="M35,56.5h-6c-0.276,0-0.5-0.224-0.5-0.5s0.224-0.5,0.5-0.5h6c0.276,0,0.5,0.224,0.5,0.5S35.276,56.5,35,56.5z
			"/>
	</g>
	<g>
		<path class="st0" d="M58,39H47c-0.827,0-1.5-0.673-1.5-1.5v-11c0-0.827,0.673-1.5,1.5-1.5h11c0.827,0,1.5,0.673,1.5,1.5v11
			C59.5,38.327,58.827,39,58,39z M47,26c-0.275,0-0.5,0.225-0.5,0.5v11c0,0.275,0.225,0.5,0.5,0.5h11c0.275,0,0.5-0.225,0.5-0.5v-11
			c0-0.275-0.225-0.5-0.5-0.5H47z"/>
	</g>
	<g>
		<path class="st0" d="M49.5,26c-0.276,0-0.5-0.224-0.5-0.5v-2c0-0.276,0.224-0.5,0.5-0.5s0.5,0.224,0.5,0.5v2
			C50,25.776,49.776,26,49.5,26z"/>
	</g>
	<g>
		<path class="st0" d="M52.5,26c-0.276,0-0.5-0.224-0.5-0.5v-2c0-0.276,0.224-0.5,0.5-0.5s0.5,0.224,0.5,0.5v2
			C53,25.776,52.776,26,52.5,26z"/>
	</g>
	<g>
		<path class="st0" d="M55.5,26c-0.276,0-0.5-0.224-0.5-0.5v-2c0-0.276,0.224-0.5,0.5-0.5s0.5,0.224,0.5,0.5v2
			C56,25.776,55.776,26,55.5,26z"/>
	</g>
	<g>
		<path class="st0" d="M49.5,41c-0.276,0-0.5-0.224-0.5-0.5v-2c0-0.276,0.224-0.5,0.5-0.5s0.5,0.224,0.5,0.5v2
			C50,40.776,49.776,41,49.5,41z"/>
	</g>
	<g>
		<path class="st0" d="M52.5,41c-0.276,0-0.5-0.224-0.5-0.5v-2c0-0.276,0.224-0.5,0.5-0.5s0.5,0.224,0.5,0.5v2
			C53,40.776,52.776,41,52.5,41z"/>
	</g>
	<g>
		<path class="st0" d="M55.5,41c-0.276,0-0.5-0.224-0.5-0.5v-2c0-0.276,0.224-0.5,0.5-0.5s0.5,0.224,0.5,0.5v2
			C56,40.776,55.776,41,55.5,41z"/>
	</g>
	<g>
		<path class="st0" d="M61,29.5h-2c-0.276,0-0.5-0.224-0.5-0.5s0.224-0.5,0.5-0.5h2c0.276,0,0.5,0.224,0.5,0.5S61.276,29.5,61,29.5z
			"/>
	</g>
	<g>
		<path class="st0" d="M61,32.5h-2c-0.276,0-0.5-0.224-0.5-0.5s0.224-0.5,0.5-0.5h2c0.276,0,0.5,0.224,0.5,0.5S61.276,32.5,61,32.5z
			"/>
	</g>
	<g>
		<path class="st0" d="M61,35.5h-2c-0.276,0-0.5-0.224-0.5-0.5s0.224-0.5,0.5-0.5h2c0.276,0,0.5,0.224,0.5,0.5S61.276,35.5,61,35.5z
			"/>
	</g>
	<g>
		<path class="st0" d="M46,29.5h-2c-0.276,0-0.5-0.224-0.5-0.5s0.224-0.5,0.5-0.5h2c0.276,0,0.5,0.224,0.5,0.5S46.276,29.5,46,29.5z
			"/>
	</g>
	<g>
		<path class="st0" d="M46,32.5h-2c-0.276,0-0.5-0.224-0.5-0.5s0.224-0.5,0.5-0.5h2c0.276,0,0.5,0.224,0.5,0.5S46.276,32.5,46,32.5z
			"/>
	</g>
	<g>
		<path class="st0" d="M46,35.5h-2c-0.276,0-0.5-0.224-0.5-0.5s0.224-0.5,0.5-0.5h2c0.276,0,0.5,0.224,0.5,0.5S46.276,35.5,46,35.5z
			"/>
	</g>
	<g>
		<path class="st4" d="M28.5,18.5h-3c-0.552,0-1-0.448-1-1v-3c0-0.552,0.448-1,1-1h3c0.552,0,1,0.448,1,1v3
			C29.5,18.052,29.052,18.5,28.5,18.5z"/>
		<path class="st0" d="M28.5,19h-3c-0.827,0-1.5-0.673-1.5-1.5v-3c0-0.827,0.673-1.5,1.5-1.5h3c0.827,0,1.5,0.673,1.5,1.5v3
			C30,18.327,29.327,19,28.5,19z M25.5,14c-0.276,0-0.5,0.225-0.5,0.5v3c0,0.275,0.224,0.5,0.5,0.5h3c0.276,0,0.5-0.225,0.5-0.5v-3
			c0-0.275-0.224-0.5-0.5-0.5H25.5z"/>
	</g>
	<g>
		<path class="st4" d="M38.5,18.5h-3c-0.552,0-1-0.448-1-1v-3c0-0.552,0.448-1,1-1h3c0.552,0,1,0.448,1,1v3
			C39.5,18.052,39.052,18.5,38.5,18.5z"/>
		<path class="st0" d="M38.5,19h-3c-0.827,0-1.5-0.673-1.5-1.5v-3c0-0.827,0.673-1.5,1.5-1.5h3c0.827,0,1.5,0.673,1.5,1.5v3
			C40,18.327,39.327,19,38.5,19z M35.5,14c-0.275,0-0.5,0.225-0.5,0.5v3c0,0.275,0.225,0.5,0.5,0.5h3c0.275,0,0.5-0.225,0.5-0.5v-3
			c0-0.275-0.225-0.5-0.5-0.5H35.5z"/>
	</g>
	<g>
		<path class="st0" d="M37,14c-0.276,0-0.5-0.224-0.5-0.5V11c0-0.275-0.225-0.5-0.5-0.5h-8c-0.276,0-0.5,0.225-0.5,0.5v2.5
			c0,0.276-0.224,0.5-0.5,0.5s-0.5-0.224-0.5-0.5V11c0-0.827,0.673-1.5,1.5-1.5h8c0.827,0,1.5,0.673,1.5,1.5v2.5
			C37.5,13.776,37.276,14,37,14z"/>
	</g>
	<g>
		<path class="st0" d="M32,10.5c-0.276,0-0.5-0.224-0.5-0.5V7c0-0.276,0.224-0.5,0.5-0.5s0.5,0.224,0.5,0.5v3
			C32.5,10.276,32.276,10.5,32,10.5z"/>
	</g>
	<g>
		<path class="st0" d="M33.5,7.5h-3C29.672,7.5,29,6.827,29,6V3c0-0.827,0.673-1.5,1.5-1.5h3C34.327,1.5,35,2.173,35,3v3
			C35,6.827,34.327,7.5,33.5,7.5z M30.5,2.5C30.224,2.5,30,2.725,30,3v3c0,0.275,0.224,0.5,0.5,0.5h3C33.775,6.5,34,6.275,34,6V3
			c0-0.275-0.225-0.5-0.5-0.5H30.5z"/>
	</g>
	<g>
		<path class="st0" d="M55.5,34.5h-6c-0.276,0-0.5-0.224-0.5-0.5v-4c0-0.276,0.224-0.5,0.5-0.5h6c0.276,0,0.5,0.224,0.5,0.5v4
			C56,34.276,55.776,34.5,55.5,34.5z M50,33.5h5v-3h-5V33.5z"/>
	</g>
	<g>
		<path class="st0" d="M10,19.5c-0.276,0-0.5-0.224-0.5-0.5v-6.5c0-1.654,1.346-3,3-3H19c0.276,0,0.5,0.224,0.5,0.5
			s-0.224,0.5-0.5,0.5h-6.5c-1.103,0-2,0.897-2,2V19C10.5,19.276,10.276,19.5,10,19.5z"/>
	</g>
	<g>
		<path class="st0" d="M54,19.5c-0.276,0-0.5-0.224-0.5-0.5v-6.5c0-1.103-0.897-2-2-2H45c-0.276,0-0.5-0.224-0.5-0.5
			s0.224-0.5,0.5-0.5h6.5c1.654,0,3,1.346,3,3V19C54.5,19.276,54.276,19.5,54,19.5z"/>
	</g>
	<g>
		<path class="st0" d="M51.5,54.5H45c-0.276,0-0.5-0.224-0.5-0.5s0.224-0.5,0.5-0.5h6.5c1.103,0,2-0.897,2-2V45
			c0-0.276,0.224-0.5,0.5-0.5s0.5,0.224,0.5,0.5v6.5C54.5,53.154,53.154,54.5,51.5,54.5z"/>
	</g>
	<g>
		<path class="st0" d="M19,54.5h-6.5c-1.654,0-3-1.346-3-3V45c0-0.276,0.224-0.5,0.5-0.5s0.5,0.224,0.5,0.5v6.5c0,1.103,0.897,2,2,2
			H19c0.276,0,0.5,0.224,0.5,0.5S19.276,54.5,19,54.5z"/>
	</g>
	<g>
		<path class="st0" d="M7,59.5H6c-0.276,0-0.5-0.224-0.5-0.5s0.224-0.5,0.5-0.5h1c0.276,0,0.5,0.224,0.5,0.5S7.276,59.5,7,59.5z"/>
	</g>
	<g>
		<path class="st0" d="M19,59.5H9c-0.276,0-0.5-0.224-0.5-0.5s0.224-0.5,0.5-0.5h10c0.276,0,0.5,0.224,0.5,0.5S19.276,59.5,19,59.5z
			"/>
	</g>
	<g>
		<path class="st0" d="M58,5.5h-1c-0.276,0-0.5-0.224-0.5-0.5s0.224-0.5,0.5-0.5h1c0.276,0,0.5,0.224,0.5,0.5S58.276,5.5,58,5.5z"/>
	</g>
	<g>
		<path class="st0" d="M55,5.5H45c-0.276,0-0.5-0.224-0.5-0.5s0.224-0.5,0.5-0.5h10c0.276,0,0.5,0.224,0.5,0.5S55.276,5.5,55,5.5z"
			/>
	</g>
</g>
</svg>
