<?xml version="1.0" encoding="utf-8"?>
<!-- Generator: Adobe Illustrator 21.1.0, SVG Export Plug-In . SVG Version: 6.00 Build 0)  -->
<svg version="1.1" id="Icon_Set" xmlns="http://www.w3.org/2000/svg" xmlns:xlink="http://www.w3.org/1999/xlink" x="0px" y="0px"
	 viewBox="0 0 64 64" style="enable-background:new 0 0 64 64;" xml:space="preserve">
<style type="text/css">
	.st0{fill:#263238;}
	.st1{fill:#FF5252;}
	.st2{fill:#FFD740;}
	.st3{fill:#40C4FF;}
	.st4{fill:#FFFFFF;}
	.st5{fill:#4DB6AC;}
	.st6{fill:#4FC3F7;}
</style>
<g id="Proof_Of_Burn">
	<g>
		<path class="st1" d="M11.375,19.239l-0.066,0.286C10.896,21.299,9.67,22.774,8,23.502h0l0-9.99l-4.247,7.207
			c-1.181,2.004-0.98,4.606,0.653,6.263c1.978,2.007,5.21,2.007,7.188,0c1.633-1.657,1.834-4.259,0.653-6.263L11.375,19.239z"/>
	</g>
	<g>
		<polygon class="st3" points="42.5,23 18.5,23 18.5,21 20,19 41,19 42.5,21 		"/>
		<path class="st0" d="M42.5,23.5h-24c-0.276,0-0.5-0.224-0.5-0.5v-2c0-0.108,0.035-0.214,0.1-0.3l1.5-2
			c0.094-0.126,0.243-0.2,0.4-0.2h21c0.157,0,0.306,0.074,0.4,0.2l1.5,2c0.065,0.086,0.1,0.191,0.1,0.3v2
			C43,23.276,42.776,23.5,42.5,23.5z M19,22.5h23v-1.333L40.75,19.5h-20.5L19,21.167V22.5z"/>
	</g>
	<g>
		<polygon class="st3" points="42.5,23 18.5,23 18.5,21 20,19 41,19 42.5,21 		"/>
		<path class="st0" d="M42.5,23.5h-24c-0.276,0-0.5-0.224-0.5-0.5v-2c0-0.108,0.035-0.214,0.1-0.3l1.5-2
			c0.094-0.126,0.243-0.2,0.4-0.2h21c0.157,0,0.306,0.074,0.4,0.2l1.5,2c0.065,0.086,0.1,0.191,0.1,0.3v2
			C43,23.276,42.776,23.5,42.5,23.5z M19,22.5h23v-1.333L40.75,19.5h-20.5L19,21.167V22.5z"/>
	</g>
	<g>
		<path class="st0" d="M30.5,35.5C24.71,35.5,20,30.79,20,25c0-0.276,0.224-0.5,0.5-0.5S21,24.724,21,25c0,5.238,4.262,9.5,9.5,9.5
			S40,30.238,40,25c0-0.276,0.224-0.5,0.5-0.5S41,24.724,41,25C41,30.79,36.29,35.5,30.5,35.5z"/>
	</g>
	<g>
		<polygon class="st3" points="33.5,19 27.5,19 27.5,14.5 29,8 32,8 33.5,14.5 		"/>
		<path class="st0" d="M33.5,19.5h-6c-0.276,0-0.5-0.224-0.5-0.5v-4.5c0-0.038,0.004-0.075,0.013-0.112l1.5-6.5
			C28.565,7.661,28.767,7.5,29,7.5h3c0.233,0,0.435,0.161,0.487,0.388l1.5,6.5C33.996,14.425,34,14.462,34,14.5V19
			C34,19.276,33.776,19.5,33.5,19.5z M28,18.5h5v-3.943L31.602,8.5h-2.204L28,14.557V18.5z"/>
	</g>
	<g>
		<path class="st3" d="M28.731,9.165C24.053,10.002,20.5,14.082,20.5,19h7v-4.5L28.731,9.165z"/>
		<path class="st0" d="M27.5,19.5h-7c-0.276,0-0.5-0.224-0.5-0.5c0-5.088,3.635-9.431,8.643-10.327
			c0.166-0.028,0.334,0.026,0.45,0.147c0.116,0.122,0.163,0.294,0.125,0.457L28,14.557V19C28,19.276,27.776,19.5,27.5,19.5z
			 M21.013,18.5H27v-4c0-0.038,0.004-0.075,0.013-0.112l1.053-4.564C24.088,10.87,21.228,14.371,21.013,18.5z"/>
	</g>
	<g>
		<path class="st3" d="M40.5,19c0-4.918-3.553-8.998-8.231-9.834L33.5,14.5V19H40.5z"/>
		<path class="st0" d="M40.5,19.5h-7c-0.276,0-0.5-0.224-0.5-0.5v-4.443l-1.218-5.279c-0.038-0.163,0.009-0.335,0.125-0.457
			c0.115-0.121,0.285-0.177,0.45-0.147C37.365,9.569,41,13.912,41,19C41,19.276,40.776,19.5,40.5,19.5z M34,18.5h5.987
			c-0.215-4.129-3.075-7.63-7.053-8.677l1.053,4.564C33.996,14.425,34,14.462,34,14.5V18.5z"/>
	</g>
	<g>
		<path class="st0" d="M46.5,46.59c-0.276,0-0.5-0.224-0.5-0.5v-1c0-1.716-0.953-3.258-2.488-4.024l-8.857-4.429
			c-1.002,1.263-2.525,2.004-4.155,2.004s-3.152-0.741-4.155-2.004l-8.857,4.429C15.953,41.832,15,43.374,15,45.09v1
			c0,0.276-0.224,0.5-0.5,0.5s-0.5-0.224-0.5-0.5v-1c0-2.097,1.165-3.981,3.041-4.919l9.236-4.618c0.226-0.115,0.499-0.04,0.64,0.17
			c0.801,1.201,2.141,1.918,3.584,1.918s2.783-0.717,3.584-1.918c0.14-0.21,0.415-0.285,0.64-0.17l9.236,4.618
			C45.835,41.108,47,42.993,47,45.09v1C47,46.366,46.776,46.59,46.5,46.59z"/>
	</g>
	<g>
		<path class="st0" d="M30.5,38.641c-1.779,0-3.43-0.884-4.416-2.363C26.029,36.195,26,36.099,26,36v-1.761
			c0-0.165,0.082-0.32,0.218-0.413c0.137-0.094,0.31-0.111,0.464-0.053c2.458,0.965,5.177,0.965,7.635,0
			c0.155-0.059,0.328-0.04,0.464,0.053S35,34.074,35,34.239V36c0,0.099-0.029,0.195-0.084,0.277
			C33.93,37.757,32.279,38.641,30.5,38.641z M27,35.844c0.809,1.128,2.106,1.797,3.5,1.797s2.691-0.669,3.5-1.797v-0.896
			c-2.272,0.732-4.728,0.732-7,0V35.844z"/>
	</g>
	<g>
		<path class="st0" d="M20.5,60.5c-0.276,0-0.5-0.224-0.5-0.5V49.227l-5.679-4.969c-0.208-0.182-0.229-0.497-0.047-0.705
			c0.182-0.209,0.498-0.229,0.706-0.047l5.85,5.118C20.938,48.719,21,48.855,21,49v11C21,60.276,20.776,60.5,20.5,60.5z"/>
	</g>
	<g>
		<path class="st0" d="M40.5,60.5c-0.276,0-0.5-0.224-0.5-0.5V49c0-0.145,0.062-0.281,0.171-0.376l5.85-5.118
			c0.207-0.182,0.523-0.162,0.706,0.047c0.182,0.208,0.161,0.523-0.047,0.705L41,49.227V60C41,60.276,40.776,60.5,40.5,60.5z"/>
	</g>
	<g>
		<path class="st0" d="M30.5,60.5c-0.276,0-0.5-0.224-0.5-0.5V38.141c0-0.276,0.224-0.5,0.5-0.5s0.5,0.224,0.5,0.5V60
			C31,60.276,30.776,60.5,30.5,60.5z"/>
	</g>
	<g>
		<path class="st0" d="M30.5,30.5c-1.469,0-2.851-0.572-3.889-1.611c-0.195-0.195-0.195-0.512,0-0.707s0.512-0.195,0.707,0
			c0.85,0.851,1.98,1.318,3.182,1.318s2.332-0.468,3.182-1.318c0.195-0.195,0.512-0.195,0.707,0s0.195,0.512,0,0.707
			C33.351,29.928,31.969,30.5,30.5,30.5z"/>
	</g>
	<g>
		<path class="st0" d="M13.894,59.77c-0.604,0-1.208-0.119-1.783-0.357c-1.149-0.477-2.045-1.372-2.521-2.521L4.676,45.026
			c-0.316-0.764,0.047-1.643,0.812-1.96l3.696-1.53c0.37-0.153,0.777-0.154,1.148,0c0.37,0.153,0.658,0.441,0.812,0.812l3.82,9.222
			c0.105,0.255-0.016,0.548-0.271,0.653c-0.253,0.107-0.548-0.015-0.653-0.271l-3.82-9.222c-0.051-0.123-0.147-0.22-0.271-0.271
			c-0.124-0.052-0.259-0.05-0.382,0l-3.696,1.53c-0.255,0.105-0.376,0.398-0.271,0.653l4.915,11.864
			c0.374,0.903,1.077,1.606,1.98,1.98c0.902,0.373,1.897,0.374,2.799,0c0.952-0.395,1.697-1.177,2.044-2.146l2.692-7.511
			c0.093-0.261,0.379-0.393,0.639-0.302c0.26,0.093,0.396,0.38,0.302,0.64l-2.692,7.511c-0.442,1.234-1.391,2.23-2.603,2.732
			C15.102,59.65,14.498,59.77,13.894,59.77z"/>
	</g>
	<g>
		<path class="st0" d="M3.99,42.563c-0.196,0-0.382-0.116-0.462-0.309l-1.914-4.619c-0.316-0.766,0.048-1.645,0.812-1.96
			l3.695-1.531c0.766-0.313,1.644,0.049,1.96,0.812l0.765,1.848l0.462-0.191c0.37-0.154,0.777-0.153,1.147-0.001
			c0.371,0.153,0.659,0.442,0.812,0.812l0.191,0.462c0.153,0.37,0.153,0.778,0,1.148s-0.441,0.658-0.812,0.812l-0.923,0.383
			c-0.253,0.108-0.547-0.015-0.653-0.271c-0.105-0.255,0.016-0.548,0.271-0.653l0.924-0.383c0.124-0.051,0.22-0.147,0.271-0.271
			c0.051-0.123,0.051-0.26,0-0.383l-0.191-0.462c-0.051-0.124-0.147-0.22-0.271-0.271c-0.122-0.05-0.257-0.05-0.381,0L8.768,37.92
			c-0.254,0.107-0.548-0.016-0.653-0.271l-0.957-2.31c-0.105-0.254-0.397-0.375-0.654-0.271L2.809,36.6
			c-0.255,0.105-0.376,0.398-0.271,0.654l1.914,4.618c0.105,0.255-0.016,0.548-0.271,0.653C4.119,42.552,4.054,42.563,3.99,42.563z"
			/>
	</g>
	<g>
		<circle class="st2" cx="8" cy="31" r="6"/>
		<path class="st0" d="M8,37.5c-3.584,0-6.5-2.916-6.5-6.5s2.916-6.5,6.5-6.5s6.5,2.916,6.5,6.5S11.584,37.5,8,37.5z M8,25.5
			c-3.033,0-5.5,2.468-5.5,5.5s2.467,5.5,5.5,5.5s5.5-2.468,5.5-5.5S11.033,25.5,8,25.5z"/>
	</g>
	<g>
		<path class="st0" d="M9,31.5H6.25c-0.276,0-0.5-0.224-0.5-0.5v-2.5c0-0.276,0.224-0.5,0.5-0.5H9c0.965,0,1.75,0.785,1.75,1.75
			S9.965,31.5,9,31.5z M6.75,30.5H9c0.414,0,0.75-0.337,0.75-0.75S9.414,29,9,29H6.75V30.5z"/>
	</g>
	<g>
		<path class="st0" d="M6.25,29h-1c-0.276,0-0.5-0.224-0.5-0.5S4.974,28,5.25,28h1c0.276,0,0.5,0.224,0.5,0.5S6.526,29,6.25,29z"/>
	</g>
	<g>
		<path class="st0" d="M6.25,34h-1c-0.276,0-0.5-0.224-0.5-0.5S4.974,33,5.25,33h1c0.276,0,0.5,0.224,0.5,0.5S6.526,34,6.25,34z"/>
	</g>
	<g>
		<path class="st0" d="M6.75,29c-0.276,0-0.5-0.224-0.5-0.5v-1c0-0.276,0.224-0.5,0.5-0.5s0.5,0.224,0.5,0.5v1
			C7.25,28.776,7.026,29,6.75,29z"/>
	</g>
	<g>
		<path class="st0" d="M8.75,29c-0.276,0-0.5-0.224-0.5-0.5v-1c0-0.276,0.224-0.5,0.5-0.5s0.5,0.224,0.5,0.5v1
			C9.25,28.776,9.026,29,8.75,29z"/>
	</g>
	<g>
		<path class="st0" d="M6.75,35c-0.276,0-0.5-0.224-0.5-0.5v-1c0-0.276,0.224-0.5,0.5-0.5s0.5,0.224,0.5,0.5v1
			C7.25,34.776,7.026,35,6.75,35z"/>
	</g>
	<g>
		<path class="st0" d="M8.75,35c-0.276,0-0.5-0.224-0.5-0.5v-1c0-0.276,0.224-0.5,0.5-0.5s0.5,0.224,0.5,0.5v1
			C9.25,34.776,9.026,35,8.75,35z"/>
	</g>
	<g>
		<path class="st0" d="M9.5,34H6.25c-0.276,0-0.5-0.224-0.5-0.5V31c0-0.276,0.224-0.5,0.5-0.5H9.5c0.965,0,1.75,0.785,1.75,1.75
			S10.465,34,9.5,34z M6.75,33H9.5c0.414,0,0.75-0.337,0.75-0.75S9.914,31.5,9.5,31.5H6.75V33z"/>
	</g>
	<g>
		<path class="st0" d="M47.106,59.77c-0.604,0-1.208-0.119-1.782-0.357c-1.212-0.502-2.161-1.498-2.603-2.732l-2.692-7.511
			c-0.093-0.26,0.042-0.547,0.302-0.64c0.257-0.092,0.545,0.041,0.639,0.302l2.692,7.511c0.347,0.97,1.092,1.752,2.044,2.146
			c0.903,0.374,1.898,0.373,2.799,0c0.903-0.374,1.606-1.077,1.98-1.98L55.4,44.644c0.105-0.255-0.016-0.548-0.271-0.653
			l-3.695-1.53c-0.123-0.051-0.259-0.051-0.382,0c-0.124,0.051-0.22,0.147-0.271,0.271l-3.82,9.222
			c-0.105,0.256-0.399,0.378-0.653,0.271c-0.255-0.105-0.376-0.398-0.271-0.653l3.82-9.222c0.153-0.37,0.442-0.658,0.812-0.812
			c0.372-0.154,0.779-0.153,1.149,0l3.695,1.53c0.765,0.317,1.128,1.196,0.812,1.96L51.41,56.891
			c-0.476,1.149-1.372,2.045-2.521,2.521C48.314,59.65,47.71,59.77,47.106,59.77z"/>
	</g>
	<g>
		<path class="st0" d="M61,40.53H49c-0.827,0-1.5-0.673-1.5-1.5v-16c0-0.827,0.673-1.5,1.5-1.5h12c0.827,0,1.5,0.673,1.5,1.5v16
			C62.5,39.857,61.827,40.53,61,40.53z M49,22.53c-0.276,0-0.5,0.225-0.5,0.5v16c0,0.275,0.224,0.5,0.5,0.5h12
			c0.276,0,0.5-0.225,0.5-0.5v-16c0-0.275-0.224-0.5-0.5-0.5H49z"/>
	</g>
	<g>
		<path class="st0" d="M57.01,42.563c-0.064,0-0.129-0.012-0.191-0.038c-0.255-0.105-0.376-0.398-0.271-0.653l0.842-2.033
			c0.105-0.256,0.399-0.378,0.653-0.271c0.255,0.105,0.376,0.398,0.271,0.653l-0.842,2.033
			C57.393,42.447,57.206,42.563,57.01,42.563z"/>
	</g>
	<g>
		<path class="st0" d="M58.75,27.53h-7.5c-0.276,0-0.5-0.224-0.5-0.5s0.224-0.5,0.5-0.5h7.5c0.276,0,0.5,0.224,0.5,0.5
			S59.026,27.53,58.75,27.53z"/>
	</g>
	<g>
		<path class="st0" d="M58.75,30.53h-7.5c-0.276,0-0.5-0.224-0.5-0.5s0.224-0.5,0.5-0.5h7.5c0.276,0,0.5,0.224,0.5,0.5
			S59.026,30.53,58.75,30.53z"/>
	</g>
	<g>
		<path class="st0" d="M58.75,33.53h-7.5c-0.276,0-0.5-0.224-0.5-0.5s0.224-0.5,0.5-0.5h7.5c0.276,0,0.5,0.224,0.5,0.5
			S59.026,33.53,58.75,33.53z"/>
	</g>
	<g>
		<path class="st0" d="M4.5,7.5h-1C3.224,7.5,3,7.276,3,7s0.224-0.5,0.5-0.5h1C4.776,6.5,5,6.724,5,7S4.776,7.5,4.5,7.5z"/>
	</g>
	<g>
		<path class="st0" d="M16.5,7.5h-10C6.224,7.5,6,7.276,6,7s0.224-0.5,0.5-0.5h10C16.776,6.5,17,6.724,17,7S16.776,7.5,16.5,7.5z"/>
	</g>
	<g>
		<path class="st0" d="M22,4.5h-1c-0.276,0-0.5-0.224-0.5-0.5s0.224-0.5,0.5-0.5h1c0.276,0,0.5,0.224,0.5,0.5S22.276,4.5,22,4.5z"/>
	</g>
	<g>
		<path class="st0" d="M19,4.5H9C8.724,4.5,8.5,4.276,8.5,4S8.724,3.5,9,3.5h10c0.276,0,0.5,0.224,0.5,0.5S19.276,4.5,19,4.5z"/>
	</g>
	<g>
		<path class="st0" d="M57.5,7.5h-1C56.224,7.5,56,7.276,56,7s0.224-0.5,0.5-0.5h1C57.776,6.5,58,6.724,58,7S57.776,7.5,57.5,7.5z"
			/>
	</g>
	<g>
		<path class="st0" d="M54.5,7.5h-10C44.224,7.5,44,7.276,44,7s0.224-0.5,0.5-0.5h10C54.776,6.5,55,6.724,55,7S54.776,7.5,54.5,7.5z
			"/>
	</g>
	<g>
		<path class="st0" d="M40,4.5h-1c-0.276,0-0.5-0.224-0.5-0.5s0.224-0.5,0.5-0.5h1c0.276,0,0.5,0.224,0.5,0.5S40.276,4.5,40,4.5z"/>
	</g>
	<g>
		<path class="st0" d="M52,4.5H42c-0.276,0-0.5-0.224-0.5-0.5s0.224-0.5,0.5-0.5h10c0.276,0,0.5,0.224,0.5,0.5S52.276,4.5,52,4.5z"
			/>
	</g>
</g>
</svg>
