<?xml version="1.0" encoding="utf-8"?>
<!-- Generator: Adobe Illustrator 21.1.0, SVG Export Plug-In . SVG Version: 6.00 Build 0)  -->
<svg version="1.1" id="Icon_Set" xmlns="http://www.w3.org/2000/svg" xmlns:xlink="http://www.w3.org/1999/xlink" x="0px" y="0px"
	 viewBox="0 0 64 64" style="enable-background:new 0 0 64 64;" xml:space="preserve">
<style type="text/css">
	.st0{fill:#263238;}
	.st1{fill:#FFFFFF;}
	.st2{fill:#FF5252;}
	.st3{fill:#FFD740;}
	.st4{fill:#40C4FF;}
	.st5{fill:#4DB6AC;}
	.st6{fill:#4FC3F7;}
</style>
<g id="Proof_Of_Work">
	<g>
		<path class="st3" d="M59.889,26.758C61.743,25.738,63,23.766,63,21.5c0-3.314-2.686-6-6-6c-1.893,0-3.579,0.879-4.679,2.249"/>
		<path class="st0" d="M59.889,27.258c-0.176,0-0.347-0.094-0.438-0.259c-0.133-0.242-0.045-0.546,0.197-0.68
			c1.76-0.968,2.853-2.814,2.853-4.819c0-3.032-2.468-5.5-5.5-5.5c-1.674,0-3.237,0.752-4.289,2.062
			c-0.172,0.216-0.487,0.25-0.702,0.077c-0.216-0.173-0.25-0.487-0.077-0.702C53.174,15.888,55.021,15,57,15
			c3.584,0,6.5,2.916,6.5,6.5c0,2.369-1.291,4.552-3.37,5.696C60.054,27.238,59.971,27.258,59.889,27.258z"/>
	</g>
	<g>
		<path class="st0" d="M44,23.85c-0.276,0-0.5-0.224-0.5-0.5V5c0-0.275-0.225-0.5-0.5-0.5h-2c-0.275,0-0.5,0.225-0.5,0.5v17.827
			c0,0.276-0.224,0.5-0.5,0.5s-0.5-0.224-0.5-0.5V5c0-0.827,0.673-1.5,1.5-1.5h2c0.827,0,1.5,0.673,1.5,1.5v18.35
			C44.5,23.626,44.276,23.85,44,23.85z"/>
	</g>
	<g>
		<path class="st0" d="M58.5,22c-0.276,0-0.5-0.224-0.5-0.5s0.224-0.5,0.5-0.5c0.413,0,0.75-0.337,0.75-0.75s-0.337-0.75-0.75-0.75
			h-2.25v2c0,0.276-0.224,0.5-0.5,0.5s-0.5-0.224-0.5-0.5V19c0-0.276,0.224-0.5,0.5-0.5h2.75c0.965,0,1.75,0.785,1.75,1.75
			S59.465,22,58.5,22z"/>
	</g>
	<g>
		<path class="st0" d="M55.75,19.5h-1c-0.276,0-0.5-0.224-0.5-0.5s0.224-0.5,0.5-0.5h1c0.276,0,0.5,0.224,0.5,0.5
			S56.026,19.5,55.75,19.5z"/>
	</g>
	<g>
		<path class="st0" d="M56.25,19.5c-0.276,0-0.5-0.224-0.5-0.5v-1c0-0.276,0.224-0.5,0.5-0.5s0.5,0.224,0.5,0.5v1
			C56.75,19.276,56.526,19.5,56.25,19.5z"/>
	</g>
	<g>
		<path class="st0" d="M58.25,19.5c-0.276,0-0.5-0.224-0.5-0.5v-1c0-0.276,0.224-0.5,0.5-0.5s0.5,0.224,0.5,0.5v1
			C58.75,19.276,58.526,19.5,58.25,19.5z"/>
	</g>
	<g>
		<polygon class="st4" points="29,23 5,23 5,21 6.5,19 27.5,19 29,21 		"/>
		<path class="st0" d="M29,23.5H5c-0.276,0-0.5-0.224-0.5-0.5v-2c0-0.108,0.035-0.214,0.1-0.3l1.5-2c0.095-0.126,0.243-0.2,0.4-0.2
			h21c0.157,0,0.306,0.074,0.4,0.2l1.5,2c0.064,0.086,0.1,0.191,0.1,0.3v2C29.5,23.276,29.276,23.5,29,23.5z M5.5,22.5h23v-1.333
			L27.25,19.5H6.75L5.5,21.167V22.5z"/>
	</g>
	<g>
		<polygon class="st4" points="29,23 5,23 5,21 6.5,19 27.5,19 29,21 		"/>
		<path class="st0" d="M29,23.5H5c-0.276,0-0.5-0.224-0.5-0.5v-2c0-0.108,0.035-0.214,0.1-0.3l1.5-2c0.095-0.126,0.243-0.2,0.4-0.2
			h21c0.157,0,0.306,0.074,0.4,0.2l1.5,2c0.064,0.086,0.1,0.191,0.1,0.3v2C29.5,23.276,29.276,23.5,29,23.5z M5.5,22.5h23v-1.333
			L27.25,19.5H6.75L5.5,21.167V22.5z"/>
	</g>
	<g>
		<path class="st0" d="M17,35.5c-5.79,0-10.5-4.71-10.5-10.5c0-0.276,0.224-0.5,0.5-0.5s0.5,0.224,0.5,0.5
			c0,5.238,4.262,9.5,9.5,9.5s9.5-4.262,9.5-9.5c0-0.276,0.224-0.5,0.5-0.5s0.5,0.224,0.5,0.5C27.5,30.79,22.79,35.5,17,35.5z"/>
	</g>
	<g>
		<polygon class="st4" points="20,19 14,19 14,14.5 15.5,8 18.5,8 20,14.5 		"/>
		<path class="st0" d="M20,19.5h-6c-0.276,0-0.5-0.224-0.5-0.5v-4.5c0-0.038,0.004-0.075,0.013-0.112l1.5-6.5
			C15.065,7.661,15.268,7.5,15.5,7.5h3c0.232,0,0.435,0.161,0.487,0.388l1.5,6.5c0.009,0.037,0.013,0.074,0.013,0.112V19
			C20.5,19.276,20.276,19.5,20,19.5z M14.5,18.5h5v-3.943L18.103,8.5h-2.205L14.5,14.557V18.5z"/>
	</g>
	<g>
		<path class="st4" d="M15.231,9.165C10.553,10.002,7,14.082,7,19h7v-4.5L15.231,9.165z"/>
		<path class="st0" d="M14,19.5H7c-0.276,0-0.5-0.224-0.5-0.5c0-5.088,3.635-9.431,8.644-10.327c0.166-0.028,0.334,0.026,0.45,0.147
			c0.116,0.122,0.163,0.294,0.125,0.457L14.5,14.557V19C14.5,19.276,14.276,19.5,14,19.5z M7.513,18.5H13.5v-4
			c0-0.038,0.004-0.075,0.013-0.112l1.054-4.564C10.589,10.87,7.728,14.372,7.513,18.5z"/>
	</g>
	<g>
		<path class="st4" d="M27,19c0-4.918-3.553-8.998-8.231-9.834L20,14.5V19H27z"/>
		<path class="st0" d="M27,19.5h-7c-0.276,0-0.5-0.224-0.5-0.5v-4.443l-1.219-5.279c-0.038-0.163,0.009-0.335,0.125-0.457
			c0.116-0.121,0.283-0.176,0.45-0.147C23.865,9.569,27.5,13.912,27.5,19C27.5,19.276,27.276,19.5,27,19.5z M20.5,18.5h5.987
			c-0.215-4.128-3.076-7.63-7.054-8.677l1.054,4.564c0.009,0.037,0.013,0.074,0.013,0.112V18.5z"/>
	</g>
	<g>
		<path class="st0" d="M33,60.5c-0.276,0-0.5-0.224-0.5-0.5V45.09c0-1.715-0.953-3.258-2.487-4.024l-8.858-4.429
			c-1.002,1.263-2.524,2.004-4.154,2.004s-3.152-0.741-4.154-2.004l-8.858,4.429C2.453,41.832,1.5,43.375,1.5,45.09V60
			c0,0.276-0.224,0.5-0.5,0.5S0.5,60.276,0.5,60V45.09c0-2.097,1.165-3.981,3.04-4.919l9.236-4.618
			c0.223-0.114,0.499-0.041,0.64,0.17c0.801,1.201,2.141,1.918,3.584,1.918s2.783-0.717,3.584-1.918
			c0.141-0.211,0.415-0.284,0.64-0.17l9.236,4.618c1.875,0.938,3.04,2.822,3.04,4.919V60C33.5,60.276,33.276,60.5,33,60.5z"/>
	</g>
	<g>
		<path class="st0" d="M17,38.641c-1.778,0-3.43-0.883-4.416-2.363C12.529,36.195,12.5,36.099,12.5,36v-1.761
			c0-0.165,0.082-0.32,0.219-0.413c0.136-0.093,0.311-0.111,0.464-0.053c2.457,0.965,5.178,0.965,7.635,0
			c0.152-0.059,0.327-0.04,0.464,0.053s0.219,0.248,0.219,0.413V36c0,0.099-0.029,0.195-0.084,0.277
			C20.43,37.758,18.778,38.641,17,38.641z M13.5,35.844c0.809,1.128,2.106,1.797,3.5,1.797s2.691-0.669,3.5-1.797v-0.896
			c-2.271,0.732-4.729,0.732-7,0V35.844z"/>
	</g>
	<g>
		<path class="st0" d="M7,60.5c-0.276,0-0.5-0.224-0.5-0.5V49.227l-5.679-4.969c-0.208-0.182-0.229-0.497-0.047-0.705
			c0.182-0.21,0.498-0.229,0.705-0.047l5.85,5.118C7.438,48.719,7.5,48.855,7.5,49v11C7.5,60.276,7.276,60.5,7,60.5z"/>
	</g>
	<g>
		<path class="st0" d="M27,60.5c-0.276,0-0.5-0.224-0.5-0.5V49c0-0.145,0.062-0.281,0.171-0.376l5.85-5.118
			c0.206-0.182,0.522-0.163,0.705,0.047c0.183,0.208,0.161,0.523-0.047,0.705L27.5,49.227V60C27.5,60.276,27.276,60.5,27,60.5z"/>
	</g>
	<g>
		<path class="st0" d="M17,60.5c-0.276,0-0.5-0.224-0.5-0.5V38.141c0-0.276,0.224-0.5,0.5-0.5s0.5,0.224,0.5,0.5V60
			C17.5,60.276,17.276,60.5,17,60.5z"/>
	</g>
	<g>
		<path class="st0" d="M35,59.945c-0.172,0-0.339-0.089-0.432-0.248c-0.14-0.239-0.059-0.545,0.18-0.684
			C35.845,58.374,36.5,57.248,36.5,56s-0.655-2.374-1.752-3.014c-0.238-0.139-0.319-0.444-0.18-0.684
			c0.139-0.239,0.445-0.32,0.684-0.18C36.639,52.931,37.5,54.416,37.5,56s-0.861,3.069-2.248,3.877
			C35.173,59.924,35.086,59.945,35,59.945z"/>
	</g>
	<g>
		<path class="st0" d="M55,60.5c-2.481,0-4.5-2.019-4.5-4.5s2.019-4.5,4.5-4.5s4.5,2.019,4.5,4.5S57.481,60.5,55,60.5z M55,52.5
			c-1.93,0-3.5,1.57-3.5,3.5s1.57,3.5,3.5,3.5s3.5-1.57,3.5-3.5S56.93,52.5,55,52.5z"/>
	</g>
	<g>
		<path class="st0" d="M57.049,50.866c-0.057,0-0.114-0.01-0.171-0.03c-0.26-0.094-0.394-0.381-0.299-0.641l1.921-5.283V35.5h-29
			v2.264c0,0.276-0.224,0.5-0.5,0.5s-0.5-0.224-0.5-0.5V35c0-0.276,0.224-0.5,0.5-0.5h30c0.276,0,0.5,0.224,0.5,0.5v10
			c0,0.059-0.01,0.116-0.03,0.171l-1.951,5.366C57.445,50.74,57.253,50.866,57.049,50.866z"/>
	</g>
	<g>
		<path class="st0" d="M49,56.5H39c-0.276,0-0.5-0.224-0.5-0.5s0.224-0.5,0.5-0.5h10c0.276,0,0.5,0.224,0.5,0.5S49.276,56.5,49,56.5
			z"/>
	</g>
	<g>
		<path class="st0" d="M59,35.5H29c-0.827,0-1.5-0.673-1.5-1.5v-1c0-0.827,0.673-1.5,1.5-1.5h30c0.827,0,1.5,0.673,1.5,1.5v1
			C60.5,34.827,59.827,35.5,59,35.5z M29,32.5c-0.275,0-0.5,0.225-0.5,0.5v1c0,0.275,0.225,0.5,0.5,0.5h30
			c0.275,0,0.5-0.225,0.5-0.5v-1c0-0.275-0.225-0.5-0.5-0.5H29z"/>
	</g>
	<g>
		<path class="st5" d="M45,13h-6c-0.552,0-1-0.448-1-1V8c0-0.552,0.448-1,1-1h6c0.552,0,1,0.448,1,1v4C46,12.552,45.552,13,45,13z"
			/>
		<path class="st0" d="M45,13.5h-6c-0.827,0-1.5-0.673-1.5-1.5V8c0-0.827,0.673-1.5,1.5-1.5h6c0.827,0,1.5,0.673,1.5,1.5v4
			C46.5,12.827,45.827,13.5,45,13.5z M39,7.5c-0.275,0-0.5,0.225-0.5,0.5v4c0,0.275,0.225,0.5,0.5,0.5h6c0.275,0,0.5-0.225,0.5-0.5
			V8c0-0.275-0.225-0.5-0.5-0.5H39z"/>
	</g>
	<g>
		<path class="st0" d="M57,12.5h-9c-0.276,0-0.5-0.224-0.5-0.5s0.224-0.5,0.5-0.5h7.685l-1.386-1.231
			C53.017,9.128,51.365,8.5,49.648,8.5H48c-0.276,0-0.5-0.224-0.5-0.5s0.224-0.5,0.5-0.5h1.648c1.963,0,3.85,0.718,5.314,2.021
			l2.369,2.105c0.155,0.139,0.209,0.357,0.136,0.552C57.394,12.372,57.208,12.5,57,12.5z"/>
	</g>
	<g>
		<path class="st0" d="M36,12.5h-3.5c-0.827,0-1.5-0.673-1.5-1.5V9c0-0.827,0.673-1.5,1.5-1.5H36c0.276,0,0.5,0.224,0.5,0.5
			S36.276,8.5,36,8.5h-3.5C32.225,8.5,32,8.725,32,9v2c0,0.275,0.225,0.5,0.5,0.5H36c0.276,0,0.5,0.224,0.5,0.5S36.276,12.5,36,12.5
			z"/>
	</g>
	<g>
		<path class="st3" d="M28,30l6.953-6.953c0.322-0.322,0.821-0.386,1.214-0.155L44,27.5l4.797-8.721
			c0.339-0.616,1.19-0.699,1.642-0.161L60,30"/>
		<path class="st0" d="M60,30.5c-0.143,0-0.284-0.061-0.383-0.179l-9.562-11.383c-0.107-0.127-0.261-0.198-0.432-0.176
			c-0.166,0.017-0.309,0.11-0.39,0.257l-4.796,8.722c-0.065,0.118-0.176,0.205-0.306,0.241c-0.133,0.035-0.271,0.017-0.387-0.052
			l-7.833-4.607c-0.197-0.114-0.445-0.083-0.606,0.077l-6.953,6.953c-0.195,0.195-0.512,0.195-0.707,0s-0.195-0.512,0-0.707
			l6.953-6.953c0.483-0.484,1.231-0.578,1.821-0.231l7.389,4.346l4.549-8.271c0.239-0.434,0.676-0.722,1.168-0.77
			c0.501-0.045,0.976,0.149,1.295,0.528l9.562,11.383c0.178,0.211,0.15,0.526-0.062,0.704C60.228,30.462,60.113,30.5,60,30.5z"/>
	</g>
	<g>
		<path class="st0" d="M59,24.5h-0.928c-0.276,0-0.5-0.224-0.5-0.5s0.224-0.5,0.5-0.5H59c0.413,0,0.75-0.337,0.75-0.75
			S59.413,22,59,22h-3.25c-0.276,0-0.5-0.224-0.5-0.5s0.224-0.5,0.5-0.5H59c0.965,0,1.75,0.785,1.75,1.75S59.965,24.5,59,24.5z"/>
	</g>
	<g>
		<path class="st0" d="M56,43.5c-0.276,0-0.5-0.224-0.5-0.5v-4.5H51c-0.276,0-0.5-0.224-0.5-0.5s0.224-0.5,0.5-0.5h5
			c0.276,0,0.5,0.224,0.5,0.5v5C56.5,43.276,56.276,43.5,56,43.5z"/>
	</g>
	<g>
		<path class="st0" d="M17,30.5c-1.469,0-2.851-0.572-3.889-1.611c-0.195-0.195-0.195-0.512,0-0.707s0.512-0.195,0.707,0
			C14.668,29.032,15.798,29.5,17,29.5s2.332-0.468,3.182-1.318c0.195-0.195,0.512-0.195,0.707,0s0.195,0.512,0,0.707
			C19.851,29.928,18.469,30.5,17,30.5z"/>
	</g>
</g>
</svg>
