<?xml version="1.0" encoding="utf-8"?>
<!-- Generator: Adobe Illustrator 21.1.0, SVG Export Plug-In . SVG Version: 6.00 Build 0)  -->
<svg version="1.1" id="Icon_Set" xmlns="http://www.w3.org/2000/svg" xmlns:xlink="http://www.w3.org/1999/xlink" x="0px" y="0px"
	 viewBox="0 0 64 64" style="enable-background:new 0 0 64 64;" xml:space="preserve">
<style type="text/css">
	.st0{fill:#263238;}
	.st1{fill:#FFFFFF;}
	.st2{fill:#FF5252;}
	.st3{fill:#FFD740;}
	.st4{fill:#40C4FF;}
	.st5{fill:#4DB6AC;}
	.st6{fill:#4FC3F7;}
</style>
<g id="SHA_-_256">
	<g>
		<path class="st0" d="M39,59.75h-1c-0.276,0-0.5-0.224-0.5-0.5s0.224-0.5,0.5-0.5h1c0.276,0,0.5,0.224,0.5,0.5
			S39.276,59.75,39,59.75z"/>
	</g>
	<g>
		<path class="st0" d="M36,59.75H21c-0.276,0-0.5-0.224-0.5-0.5s0.224-0.5,0.5-0.5h15c0.276,0,0.5,0.224,0.5,0.5
			S36.276,59.75,36,59.75z"/>
	</g>
	<g>
		<path class="st0" d="M17,62.75h-1c-0.276,0-0.5-0.224-0.5-0.5s0.224-0.5,0.5-0.5h1c0.276,0,0.5,0.224,0.5,0.5
			S17.276,62.75,17,62.75z"/>
	</g>
	<g>
		<path class="st0" d="M34,62.75H19c-0.276,0-0.5-0.224-0.5-0.5s0.224-0.5,0.5-0.5h15c0.276,0,0.5,0.224,0.5,0.5
			S34.276,62.75,34,62.75z"/>
	</g>
	<g>
		<path class="st3" d="M45,29.862V29.25c0-2.761-2.43-5-5.429-5H16.429c-2.998,0-5.429,2.239-5.429,5v1.5h13
			c2.481,0,4.5,2.019,4.5,4.5v10c0,2.481-2.019,4.5-4.5,4.5H11v1.5c0,2.761,2.43,5,5.429,5h23.143c2.998,0,5.429-2.239,5.429-5
			v-0.411c-3.783,1.186-8.079,0.288-11.077-2.71c-4.296-4.296-4.296-11.26,0-15.556C36.921,29.574,41.217,28.676,45,29.862z"/>
	</g>
	<g>
		<path class="st0" d="M39.571,56.75H16.429c-3.27,0-5.929-2.467-5.929-5.5v-1.5c0-0.276,0.224-0.5,0.5-0.5s0.5,0.224,0.5,0.5v1.5
			c0,2.481,2.211,4.5,4.929,4.5h23.143c2.718,0,4.929-2.019,4.929-4.5v-0.411c0-0.276,0.224-0.5,0.5-0.5s0.5,0.224,0.5,0.5v0.411
			C45.5,54.283,42.841,56.75,39.571,56.75z"/>
	</g>
	<g>
		<path class="st0" d="M11,31.25c-0.276,0-0.5-0.224-0.5-0.5v-1.5c0-3.033,2.659-5.5,5.929-5.5h23.143c3.27,0,5.929,2.467,5.929,5.5
			v0.612c0,0.276-0.224,0.5-0.5,0.5s-0.5-0.224-0.5-0.5V29.25c0-2.481-2.211-4.5-4.929-4.5H16.429c-2.718,0-4.929,2.019-4.929,4.5
			v1.5C11.5,31.026,11.276,31.25,11,31.25z"/>
	</g>
	<g>
		<path class="st5" d="M24,47.75H4c-1.381,0-2.5-1.119-2.5-2.5v-10c0-1.381,1.119-2.5,2.5-2.5h20c1.381,0,2.5,1.119,2.5,2.5v10
			C26.5,46.631,25.381,47.75,24,47.75z"/>
		<path class="st0" d="M24,48.25H4c-1.654,0-3-1.346-3-3v-10c0-1.654,1.346-3,3-3h20c1.654,0,3,1.346,3,3v10
			C27,46.904,25.654,48.25,24,48.25z M4,33.25c-1.103,0-2,0.897-2,2v10c0,1.103,0.897,2,2,2h20c1.103,0,2-0.897,2-2v-10
			c0-1.103-0.897-2-2-2H4z"/>
	</g>
	<g>
		<path class="st0" d="M9.5,44.5h-5c-0.212,0-0.401-0.134-0.472-0.334s-0.007-0.423,0.159-0.556l4.249-3.399
			C8.795,39.924,9,39.497,9,39.039C9,37.887,8.113,37,7.022,37s-1.979,0.887-1.979,1.978V39.5c0,0.276-0.224,0.5-0.5,0.5
			s-0.5-0.224-0.5-0.5v-0.522C4.044,37.336,5.38,36,7.022,36C8.664,36,10,37.336,10,38.978c0,0.824-0.342,1.536-0.938,2.013
			L5.926,43.5H9.5c0.276,0,0.5,0.224,0.5,0.5S9.776,44.5,9.5,44.5z"/>
	</g>
	<g>
		<path class="st0" d="M14.5,44.5h-3c-0.276,0-0.5-0.224-0.5-0.5s0.224-0.5,0.5-0.5h3c0.827,0,1.5-0.673,1.5-1.5s-0.673-1.5-1.5-1.5
			h-3c-0.276,0-0.5-0.224-0.5-0.5v-3.5c0-0.276,0.224-0.5,0.5-0.5H16c0.276,0,0.5,0.224,0.5,0.5S16.276,37,16,37h-4v2.5h2.5
			c1.379,0,2.5,1.122,2.5,2.5S15.879,44.5,14.5,44.5z"/>
	</g>
	<g>
		<path class="st0" d="M18.5,42c-0.276,0-0.5-0.224-0.5-0.5V39c0-1.654,1.346-3,3-3h2c0.276,0,0.5,0.224,0.5,0.5S23.276,37,23,37h-2
			c-1.103,0-2,0.897-2,2v2.5C19,41.776,18.776,42,18.5,42z"/>
	</g>
	<g>
		<path class="st0" d="M21,44.498c-1.654,0-3-1.346-3-3s1.346-3,3-3s3,1.346,3,3S22.654,44.498,21,44.498z M21,39.498
			c-1.103,0-2,0.897-2,2s0.897,2,2,2s2-0.897,2-2S22.103,39.498,21,39.498z"/>
	</g>
	<g>
		<path class="st0" d="M40.5,22.75c-0.276,0-0.5-0.224-0.5-0.5v-8c0-6.617-5.383-12-12-12s-12,5.383-12,12v4.5h4v-4.5
			c0-4.411,3.589-8,8-8s8,3.589,8,8v8c0,0.276-0.224,0.5-0.5,0.5s-0.5-0.224-0.5-0.5v-8c0-3.86-3.141-7-7-7s-7,3.14-7,7v5
			c0,0.276-0.224,0.5-0.5,0.5h-5c-0.276,0-0.5-0.224-0.5-0.5v-5c0-7.168,5.832-13,13-13s13,5.832,13,13v8
			C41,22.526,40.776,22.75,40.5,22.75z"/>
	</g>
	<g>
		<path class="st0" d="M41.701,49.846c-2.434,0-4.866-0.926-6.718-2.778c-3.704-3.704-3.704-9.731,0-13.435l0,0
			c3.703-3.704,9.73-3.705,13.436,0c3.704,3.704,3.704,9.731,0,13.435C46.566,48.919,44.134,49.846,41.701,49.846z M35.69,34.34
			c-3.313,3.314-3.313,8.707,0,12.021c3.314,3.313,8.707,3.314,12.021,0c3.313-3.314,3.313-8.707,0-12.021
			C44.396,31.025,39.004,31.027,35.69,34.34L35.69,34.34z"/>
	</g>
	<g>
		<path class="st0" d="M41.701,47.847c-1.921,0-3.842-0.731-5.304-2.193c-2.924-2.924-2.924-7.683,0-10.606l0,0
			c1.417-1.417,3.301-2.197,5.304-2.197s3.887,0.78,5.303,2.197c1.417,1.417,2.197,3.3,2.197,5.303c0,2.003-0.78,3.887-2.197,5.303
			C45.542,47.116,43.622,47.847,41.701,47.847z M37.104,35.754c-2.534,2.534-2.534,6.658,0,9.192c2.535,2.533,6.657,2.534,9.192,0
			c1.228-1.228,1.904-2.86,1.904-4.596c0-1.736-0.677-3.369-1.904-4.596s-2.859-1.904-4.596-1.904S38.333,34.527,37.104,35.754
			L37.104,35.754z"/>
	</g>
	<g>
		<path class="st0" d="M46.701,40.851c-0.276,0-0.5-0.224-0.5-0.5c0-2.481-2.019-4.5-4.5-4.5c-0.276,0-0.5-0.224-0.5-0.5
			s0.224-0.5,0.5-0.5c3.032,0,5.5,2.467,5.5,5.5C47.201,40.627,46.978,40.851,46.701,40.851z"/>
	</g>
	<g>
		<path class="st0" d="M51.247,52.518c-0.128,0-0.256-0.049-0.354-0.146l-4.243-4.243c-0.094-0.094-0.146-0.221-0.146-0.354
			s0.053-0.26,0.146-0.354l2.122-2.121c0.195-0.195,0.512-0.195,0.707,0l4.242,4.243c0.195,0.195,0.195,0.512,0,0.707
			s-0.512,0.195-0.707,0l-3.889-3.889l-1.415,1.414l3.89,3.889c0.195,0.195,0.195,0.512,0,0.707
			C51.503,52.469,51.375,52.518,51.247,52.518z"/>
	</g>
	<g>
		<path class="st0" d="M58.672,61.648c-0.384,0-0.769-0.146-1.061-0.438l-5.657-5.657c-0.585-0.585-0.585-1.536,0-2.121l2.828-2.829
			c0.283-0.283,0.66-0.439,1.061-0.439c0.001,0,0.001,0,0.001,0c0.401,0,0.777,0.156,1.06,0.44l5.657,5.656
			c0.585,0.585,0.585,1.537,0,2.122l-2.828,2.828C59.44,61.502,59.056,61.648,58.672,61.648z M55.843,51.164
			c-0.134,0-0.259,0.052-0.354,0.146l-2.828,2.829c-0.195,0.195-0.195,0.512,0,0.707l5.657,5.657c0.195,0.194,0.512,0.195,0.707,0
			l2.828-2.828c0.195-0.195,0.195-0.512,0-0.708l-5.657-5.657C56.102,51.216,55.977,51.164,55.843,51.164L55.843,51.164z"/>
	</g>
	<g>
		<path class="st0" d="M51,14.75h-4c-0.276,0-0.5-0.224-0.5-0.5s0.224-0.5,0.5-0.5h4c0.276,0,0.5,0.224,0.5,0.5
			S51.276,14.75,51,14.75z"/>
	</g>
	<g>
		<path class="st0" d="M49,16.75c-0.276,0-0.5-0.224-0.5-0.5v-4c0-0.276,0.224-0.5,0.5-0.5s0.5,0.224,0.5,0.5v4
			C49.5,16.526,49.276,16.75,49,16.75z"/>
	</g>
	<g>
		<path class="st0" d="M58,23.75h-4c-0.276,0-0.5-0.224-0.5-0.5s0.224-0.5,0.5-0.5h4c0.276,0,0.5,0.224,0.5,0.5
			S58.276,23.75,58,23.75z"/>
	</g>
	<g>
		<path class="st0" d="M56,25.75c-0.276,0-0.5-0.224-0.5-0.5v-4c0-0.276,0.224-0.5,0.5-0.5s0.5,0.224,0.5,0.5v4
			C56.5,25.526,56.276,25.75,56,25.75z"/>
	</g>
</g>
</svg>
