<?xml version="1.0" encoding="utf-8"?>
<!-- Generator: Adobe Illustrator 21.1.0, SVG Export Plug-In . SVG Version: 6.00 Build 0)  -->
<svg version="1.1" id="Icon_Set" xmlns="http://www.w3.org/2000/svg" xmlns:xlink="http://www.w3.org/1999/xlink" x="0px" y="0px"
	 viewBox="0 0 64 64" style="enable-background:new 0 0 64 64;" xml:space="preserve">
<style type="text/css">
	.st0{fill:#263238;}
	.st1{fill:#FFFFFF;}
	.st2{fill:#FF5252;}
	.st3{fill:#FFD740;}
	.st4{fill:#40C4FF;}
	.st5{fill:#4DB6AC;}
	.st6{fill:#4FC3F7;}
</style>
<g id="Smart_Contracts">
	<g>
		<circle class="st3" cx="52" cy="28.25" r="10"/>
		<path class="st0" d="M52,38.75c-5.79,0-10.5-4.71-10.5-10.5s4.71-10.5,10.5-10.5s10.5,4.71,10.5,10.5S57.79,38.75,52,38.75z
			 M52,18.75c-5.238,0-9.5,4.262-9.5,9.5s4.262,9.5,9.5,9.5s9.5-4.262,9.5-9.5S57.238,18.75,52,18.75z"/>
	</g>
	<g>
		<path class="st0" d="M52,36.25c-4.411,0-8-3.589-8-8s3.589-8,8-8s8,3.589,8,8S56.411,36.25,52,36.25z M52,21.25
			c-3.86,0-7,3.14-7,7s3.14,7,7,7s7-3.14,7-7S55.86,21.25,52,21.25z"/>
	</g>
	<g>
		<path class="st0" d="M52.5,31.75H50c-0.276,0-0.5-0.224-0.5-0.5s0.224-0.5,0.5-0.5h2.5c0.551,0,1-0.449,1-1s-0.449-1-1-1h-1
			c-1.103,0-2-0.897-2-2s0.897-2,2-2h2c0.276,0,0.5,0.224,0.5,0.5s-0.224,0.5-0.5,0.5h-2c-0.551,0-1,0.449-1,1s0.449,1,1,1h1
			c1.103,0,2,0.897,2,2S53.603,31.75,52.5,31.75z"/>
	</g>
	<g>
		<path class="st0" d="M52,25.75c-0.276,0-0.5-0.224-0.5-0.5v-1.5c0-0.276,0.224-0.5,0.5-0.5s0.5,0.224,0.5,0.5v1.5
			C52.5,25.526,52.276,25.75,52,25.75z"/>
	</g>
	<g>
		<path class="st0" d="M52,33.25c-0.276,0-0.5-0.224-0.5-0.5v-1.5c0-0.276,0.224-0.5,0.5-0.5s0.5,0.224,0.5,0.5v1.5
			C52.5,33.026,52.276,33.25,52,33.25z"/>
	</g>
	<g>
		<path class="st0" d="M17.5,62.75h-13c-1.654,0-3-1.346-3-3v-13c0-1.654,1.346-3,3-3h13c1.654,0,3,1.346,3,3v13
			C20.5,61.404,19.154,62.75,17.5,62.75z M4.5,44.75c-1.103,0-2,0.897-2,2v13c0,1.103,0.897,2,2,2h13c1.103,0,2-0.897,2-2v-13
			c0-1.103-0.897-2-2-2H4.5z"/>
	</g>
	<g>
		<path class="st0" d="M6,50.25c-0.276,0-0.5-0.224-0.5-0.5v-3c0-0.276,0.224-0.5,0.5-0.5s0.5,0.224,0.5,0.5v3
			C6.5,50.026,6.276,50.25,6,50.25z"/>
	</g>
	<g>
		<path class="st0" d="M16,50.25c-0.276,0-0.5-0.224-0.5-0.5v-3c0-0.276,0.224-0.5,0.5-0.5s0.5,0.224,0.5,0.5v3
			C16.5,50.026,16.276,50.25,16,50.25z"/>
	</g>
	<g>
		<path class="st0" d="M11,55.25c-0.276,0-0.5-0.224-0.5-0.5v-3c0-0.276,0.224-0.5,0.5-0.5s0.5,0.224,0.5,0.5v3
			C11.5,55.026,11.276,55.25,11,55.25z"/>
	</g>
	<g>
		<path class="st0" d="M16,55.25c-0.276,0-0.5-0.224-0.5-0.5v-3c0-0.276,0.224-0.5,0.5-0.5s0.5,0.224,0.5,0.5v3
			C16.5,55.026,16.276,55.25,16,55.25z"/>
	</g>
	<g>
		<path class="st0" d="M11,50.25c-0.827,0-1.5-0.673-1.5-1.5v-1c0-0.827,0.673-1.5,1.5-1.5s1.5,0.673,1.5,1.5v1
			C12.5,49.577,11.827,50.25,11,50.25z M11,47.25c-0.276,0-0.5,0.224-0.5,0.5v1c0,0.276,0.224,0.5,0.5,0.5s0.5-0.224,0.5-0.5v-1
			C11.5,47.474,11.276,47.25,11,47.25z"/>
	</g>
	<g>
		<path class="st0" d="M6,55.25c-0.827,0-1.5-0.673-1.5-1.5v-1c0-0.827,0.673-1.5,1.5-1.5s1.5,0.673,1.5,1.5v1
			C7.5,54.577,6.827,55.25,6,55.25z M6,52.25c-0.276,0-0.5,0.224-0.5,0.5v1c0,0.276,0.224,0.5,0.5,0.5s0.5-0.224,0.5-0.5v-1
			C6.5,52.474,6.276,52.25,6,52.25z"/>
	</g>
	<g>
		<path class="st0" d="M6,60.25c-0.827,0-1.5-0.673-1.5-1.5v-1c0-0.827,0.673-1.5,1.5-1.5s1.5,0.673,1.5,1.5v1
			C7.5,59.577,6.827,60.25,6,60.25z M6,57.25c-0.276,0-0.5,0.224-0.5,0.5v1c0,0.276,0.224,0.5,0.5,0.5s0.5-0.224,0.5-0.5v-1
			C6.5,57.474,6.276,57.25,6,57.25z"/>
	</g>
	<g>
		<path class="st0" d="M11,60.25c-0.827,0-1.5-0.673-1.5-1.5v-1c0-0.827,0.673-1.5,1.5-1.5s1.5,0.673,1.5,1.5v1
			C12.5,59.577,11.827,60.25,11,60.25z M11,57.25c-0.276,0-0.5,0.224-0.5,0.5v1c0,0.276,0.224,0.5,0.5,0.5s0.5-0.224,0.5-0.5v-1
			C11.5,57.474,11.276,57.25,11,57.25z"/>
	</g>
	<g>
		<path class="st0" d="M16,60.25c-0.827,0-1.5-0.673-1.5-1.5v-1c0-0.827,0.673-1.5,1.5-1.5s1.5,0.673,1.5,1.5v1
			C17.5,59.577,16.827,60.25,16,60.25z M16,57.25c-0.276,0-0.5,0.224-0.5,0.5v1c0,0.276,0.224,0.5,0.5,0.5s0.5-0.224,0.5-0.5v-1
			C16.5,57.474,16.276,57.25,16,57.25z"/>
	</g>
	<g>
		<path class="st0" d="M6,36.75c-0.276,0-0.5-0.224-0.5-0.5v-1c0-0.276,0.224-0.5,0.5-0.5s0.5,0.224,0.5,0.5v1
			C6.5,36.526,6.276,36.75,6,36.75z"/>
	</g>
	<g>
		<path class="st0" d="M6,33.75c-0.276,0-0.5-0.224-0.5-0.5v-14c0-0.276,0.224-0.5,0.5-0.5s0.5,0.224,0.5,0.5v14
			C6.5,33.526,6.276,33.75,6,33.75z"/>
	</g>
	<g>
		<path class="st0" d="M57,43.75c-0.276,0-0.5-0.224-0.5-0.5v-1c0-0.276,0.224-0.5,0.5-0.5s0.5,0.224,0.5,0.5v1
			C57.5,43.526,57.276,43.75,57,43.75z"/>
	</g>
	<g>
		<path class="st0" d="M57,59.75c-0.276,0-0.5-0.224-0.5-0.5v-14c0-0.276,0.224-0.5,0.5-0.5s0.5,0.224,0.5,0.5v14
			C57.5,59.526,57.276,59.75,57,59.75z"/>
	</g>
	<g>
		<path class="st0" d="M20.5,12.25H11c-0.202,0-0.385-0.122-0.462-0.309c-0.078-0.187-0.035-0.402,0.108-0.545l9.5-9.5
			c0.144-0.144,0.358-0.186,0.545-0.108C20.878,1.865,21,2.048,21,2.25v9.5C21,12.026,20.776,12.25,20.5,12.25z M12.207,11.25H20
			V3.457L12.207,11.25z"/>
	</g>
	<g>
		<path class="st2" d="M22,21.25h-4c-0.552,0-1-0.448-1-1v-4c0-0.552,0.448-1,1-1h4c0.552,0,1,0.448,1,1v4
			C23,20.802,22.552,21.25,22,21.25z"/>
		<path class="st0" d="M22,21.75h-4c-0.827,0-1.5-0.673-1.5-1.5v-4c0-0.827,0.673-1.5,1.5-1.5h4c0.827,0,1.5,0.673,1.5,1.5v4
			C23.5,21.077,22.827,21.75,22,21.75z M18,15.75c-0.276,0-0.5,0.224-0.5,0.5v4c0,0.276,0.224,0.5,0.5,0.5h4
			c0.276,0,0.5-0.224,0.5-0.5v-4c0-0.276-0.224-0.5-0.5-0.5H18z"/>
	</g>
	<g>
		<path class="st0" d="M43.667,18.75h-15c-0.276,0-0.5-0.224-0.5-0.5s0.224-0.5,0.5-0.5h15c0.276,0,0.5,0.224,0.5,0.5
			S43.943,18.75,43.667,18.75z"/>
	</g>
	<g>
		<path class="st2" d="M22,31.25h-4c-0.552,0-1-0.448-1-1v-4c0-0.552,0.448-1,1-1h4c0.552,0,1,0.448,1,1v4
			C23,30.802,22.552,31.25,22,31.25z"/>
		<path class="st0" d="M22,31.75h-4c-0.827,0-1.5-0.673-1.5-1.5v-4c0-0.827,0.673-1.5,1.5-1.5h4c0.827,0,1.5,0.673,1.5,1.5v4
			C23.5,31.077,22.827,31.75,22,31.75z M18,25.75c-0.276,0-0.5,0.224-0.5,0.5v4c0,0.276,0.224,0.5,0.5,0.5h4
			c0.276,0,0.5-0.224,0.5-0.5v-4c0-0.276-0.224-0.5-0.5-0.5H18z"/>
	</g>
	<g>
		<path class="st0" d="M40,28.75H28.667c-0.276,0-0.5-0.224-0.5-0.5s0.224-0.5,0.5-0.5H40c0.276,0,0.5,0.224,0.5,0.5
			S40.276,28.75,40,28.75z"/>
	</g>
	<g>
		<path class="st2" d="M22,41.25h-4c-0.552,0-1-0.448-1-1v-4c0-0.552,0.448-1,1-1h4c0.552,0,1,0.448,1,1v4
			C23,40.802,22.552,41.25,22,41.25z"/>
		<path class="st0" d="M22,41.75h-4c-0.827,0-1.5-0.673-1.5-1.5v-4c0-0.827,0.673-1.5,1.5-1.5h4c0.827,0,1.5,0.673,1.5,1.5v4
			C23.5,41.077,22.827,41.75,22,41.75z M18,35.75c-0.276,0-0.5,0.224-0.5,0.5v4c0,0.276,0.224,0.5,0.5,0.5h4
			c0.276,0,0.5-0.224,0.5-0.5v-4c0-0.276-0.224-0.5-0.5-0.5H18z"/>
	</g>
	<g>
		<path class="st0" d="M43.667,38.75h-15c-0.276,0-0.5-0.224-0.5-0.5s0.224-0.5,0.5-0.5h15c0.276,0,0.5,0.224,0.5,0.5
			S43.943,38.75,43.667,38.75z"/>
	</g>
	<g>
		<path class="st0" d="M49.5,56.75H22c-0.276,0-0.5-0.224-0.5-0.5s0.224-0.5,0.5-0.5h27.5c1.103,0,2-0.897,2-2v-13.5
			c0-0.276,0.224-0.5,0.5-0.5s0.5,0.224,0.5,0.5v13.5C52.5,55.404,51.154,56.75,49.5,56.75z"/>
	</g>
	<g>
		<path class="st0" d="M11,42.75c-0.276,0-0.5-0.224-0.5-0.5v-30.5c0-0.133,0.053-0.26,0.146-0.354l9.5-9.5
			C20.24,1.803,20.367,1.75,20.5,1.75h29c1.654,0,3,1.346,3,3v11.5c0,0.276-0.224,0.5-0.5,0.5s-0.5-0.224-0.5-0.5V4.75
			c0-1.103-0.897-2-2-2H20.707L11.5,11.957V42.25C11.5,42.526,11.276,42.75,11,42.75z"/>
	</g>
	<g>
		<path class="st0" d="M13,4.25H9c-0.276,0-0.5-0.224-0.5-0.5s0.224-0.5,0.5-0.5h4c0.276,0,0.5,0.224,0.5,0.5S13.276,4.25,13,4.25z"
			/>
	</g>
	<g>
		<path class="st0" d="M11,6.25c-0.276,0-0.5-0.224-0.5-0.5v-4c0-0.276,0.224-0.5,0.5-0.5s0.5,0.224,0.5,0.5v4
			C11.5,6.026,11.276,6.25,11,6.25z"/>
	</g>
	<g>
		<path class="st0" d="M6,10.75H2c-0.276,0-0.5-0.224-0.5-0.5s0.224-0.5,0.5-0.5h4c0.276,0,0.5,0.224,0.5,0.5S6.276,10.75,6,10.75z"
			/>
	</g>
	<g>
		<path class="st0" d="M4,12.75c-0.276,0-0.5-0.224-0.5-0.5v-4c0-0.276,0.224-0.5,0.5-0.5s0.5,0.224,0.5,0.5v4
			C4.5,12.526,4.276,12.75,4,12.75z"/>
	</g>
	<g>
		<path class="st0" d="M49,10.75c-0.276,0-0.5-0.224-0.5-0.5v-4c0-0.276-0.224-0.5-0.5-0.5h-4c-0.276,0-0.5-0.224-0.5-0.5
			s0.224-0.5,0.5-0.5h4c0.827,0,1.5,0.673,1.5,1.5v4C49.5,10.526,49.276,10.75,49,10.75z"/>
	</g>
</g>
</svg>
