<?xml version="1.0" encoding="utf-8"?>
<!-- Generator: Adobe Illustrator 21.1.0, SVG Export Plug-In . SVG Version: 6.00 Build 0)  -->
<svg version="1.1" id="Icon_Set" xmlns="http://www.w3.org/2000/svg" xmlns:xlink="http://www.w3.org/1999/xlink" x="0px" y="0px"
	 viewBox="0 0 64 64" style="enable-background:new 0 0 64 64;" xml:space="preserve">
<style type="text/css">
	.st0{fill:#263238;}
	.st1{fill:#FFFFFF;}
	.st2{fill:#FF5252;}
	.st3{fill:#FFD740;}
	.st4{fill:#40C4FF;}
	.st5{fill:#4DB6AC;}
	.st6{fill:#4FC3F7;}
</style>
<g id="Stellar">
	<g>
		<path class="st2" d="M19.892,35.664c-3.674,4.349-4.994,9.148-2.892,11.25c2.102,2.102,6.901,0.782,11.25-2.892"/>
		<path class="st0" d="M19.775,48.404c-1.278,0-2.361-0.369-3.128-1.137c-2.266-2.266-1.061-7.281,2.864-11.926
			c0.177-0.211,0.493-0.239,0.705-0.06c0.211,0.178,0.237,0.493,0.059,0.704c-3.523,4.17-4.779,8.716-2.92,10.574
			c1.856,1.858,6.403,0.602,10.574-2.92c0.21-0.177,0.527-0.151,0.705,0.06c0.178,0.211,0.152,0.526-0.059,0.704
			C25.502,46.999,22.269,48.404,19.775,48.404z"/>
	</g>
	<g>
		<path class="st4" d="M37.852,11.927L21.127,30.742c-0.879,0.989-0.835,2.493,0.101,3.429l8.687,8.687
			c0.936,0.936,2.439,0.98,3.429,0.101l18.815-16.725c3.112-2.766,4.934-6.7,5.03-10.862l0.202-8.677l-8.677,0.202
			C44.552,6.993,40.617,8.815,37.852,11.927z"/>
		<path class="st0" d="M31.684,44.089c-0.771,0-1.54-0.294-2.123-0.878l-8.687-8.687c-1.122-1.122-1.174-2.929-0.121-4.114
			l16.725-18.815c2.848-3.204,6.939-5.099,11.224-5.198l8.677-0.202c0.132-0.007,0.269,0.05,0.365,0.146s0.149,0.229,0.146,0.365
			l-0.202,8.677c-0.1,4.285-1.994,8.376-5.198,11.226L33.675,43.333C33.106,43.838,32.394,44.089,31.684,44.089z M37.852,11.927
			l0.374,0.332L21.5,31.074c-0.702,0.79-0.667,1.995,0.081,2.743l8.687,8.687c0.747,0.748,1.953,0.783,2.743,0.081L51.827,25.86
			c2.997-2.665,4.77-6.492,4.862-10.501l0.19-8.153l-8.153,0.19c-4.009,0.093-7.836,1.865-10.5,4.862L37.852,11.927z"/>
	</g>
	<g>
		<path class="st0" d="M50.166,24.492c-0.138,0-0.275-0.057-0.374-0.168c-0.184-0.206-0.165-0.522,0.042-0.706
			c2.377-2.113,3.783-5.148,3.856-8.328l0.129-5.535c0.006-0.276,0.242-0.504,0.512-0.488c0.276,0.007,0.495,0.235,0.488,0.512
			l-0.129,5.535c-0.081,3.456-1.608,6.756-4.192,9.053C50.402,24.45,50.284,24.492,50.166,24.492z"/>
	</g>
	<g>
		<path class="st0" d="M22.376,26.826c-0.091,0-0.183-0.024-0.266-0.077c-1.367-0.861-2.791-1.579-4.23-2.132l-4.241-1.632
			c-0.195-0.075-0.323-0.265-0.32-0.474c0.003-0.21,0.136-0.395,0.333-0.465l4.661-1.645c2.979-1.051,6.192-1.148,9.289-0.285
			c0.266,0.074,0.421,0.35,0.347,0.616s-0.353,0.42-0.616,0.347c-2.9-0.81-5.903-0.717-8.687,0.266l-3.382,1.193l2.975,1.145
			c1.5,0.576,2.982,1.323,4.404,2.22c0.233,0.147,0.304,0.456,0.156,0.689C22.705,26.743,22.542,26.826,22.376,26.826z"/>
	</g>
	<g>
		<path class="st0" d="M41.396,50.596c-0.207,0-0.392-0.127-0.467-0.32l-1.631-4.24c-0.526-1.367-1.2-2.723-2.004-4.029
			c-0.145-0.234-0.071-0.543,0.164-0.688c0.236-0.147,0.542-0.072,0.688,0.164c0.836,1.358,1.538,2.77,2.086,4.193l1.144,2.975
			l1.193-3.381c0.954-2.702,1.071-5.621,0.34-8.441c-0.069-0.268,0.091-0.541,0.358-0.61c0.266-0.069,0.54,0.092,0.609,0.358
			c0.782,3.015,0.656,6.136-0.364,9.025l-1.645,4.66c-0.07,0.198-0.255,0.331-0.465,0.334C41.4,50.596,41.398,50.596,41.396,50.596z
			"/>
	</g>
	<g>
		<ellipse transform="matrix(0.7071 -0.7071 0.7071 0.7071 -2.031 36.599)" class="st1" cx="43.163" cy="20.751" rx="5" ry="5"/>
		<path class="st0" d="M43.163,26.249c-1.408,0-2.816-0.536-3.889-1.608c-1.039-1.039-1.611-2.42-1.611-3.89
			c0-1.469,0.572-2.851,1.611-3.889c1.039-1.039,2.42-1.611,3.889-1.611c1.469,0,2.851,0.572,3.889,1.611
			c1.039,1.038,1.611,2.42,1.611,3.889c0,1.47-0.572,2.851-1.611,3.89C45.98,25.713,44.572,26.249,43.163,26.249z M43.163,16.251
			c-1.202,0-2.332,0.468-3.182,1.318c-0.85,0.85-1.318,1.979-1.318,3.182s0.468,2.332,1.318,3.183c1.754,1.754,4.609,1.752,6.364,0
			c0.85-0.851,1.318-1.98,1.318-3.183s-0.468-2.332-1.318-3.182l0,0C45.495,16.719,44.365,16.251,43.163,16.251z"/>
	</g>
	<g>
		<path class="st3" d="M21.336,37.107c-2.124,2.753-2.824,5.661-1.507,6.978c1.317,1.317,4.226,0.617,6.978-1.507"/>
		<path class="st0" d="M21.691,45.259c-0.9,0-1.665-0.269-2.216-0.819c-1.495-1.495-0.906-4.564,1.465-7.638
			c0.168-0.217,0.481-0.26,0.702-0.09c0.218,0.168,0.259,0.482,0.09,0.701c-1.986,2.573-2.638,5.231-1.55,6.319
			c1.087,1.087,3.746,0.436,6.319-1.549c0.22-0.169,0.533-0.129,0.702,0.09c0.168,0.219,0.128,0.533-0.09,0.701
			C25.172,44.472,23.233,45.259,21.691,45.259z"/>
	</g>
	<g>
		<path class="st0" d="M6.609,40.835c-0.128,0-0.256-0.049-0.354-0.146c-0.195-0.195-0.195-0.512,0-0.707l0.707-0.707
			c0.195-0.195,0.512-0.195,0.707,0s0.195,0.512,0,0.707l-0.707,0.707C6.865,40.786,6.737,40.835,6.609,40.835z"/>
	</g>
	<g>
		<path class="st0" d="M8.73,38.714c-0.128,0-0.256-0.049-0.354-0.146c-0.195-0.195-0.195-0.512,0-0.707l7.778-7.778
			c0.195-0.195,0.512-0.195,0.707,0s0.195,0.512,0,0.707l-7.778,7.778C8.986,38.665,8.858,38.714,8.73,38.714z"/>
	</g>
	<g>
		<path class="st0" d="M23.58,57.806c-0.128,0-0.256-0.049-0.354-0.146c-0.195-0.195-0.195-0.512,0-0.707l0.707-0.707
			c0.195-0.195,0.512-0.195,0.707,0s0.195,0.512,0,0.707l-0.707,0.707C23.835,57.757,23.708,57.806,23.58,57.806z"/>
	</g>
	<g>
		<path class="st0" d="M25.701,55.685c-0.128,0-0.256-0.049-0.354-0.146c-0.195-0.195-0.195-0.512,0-0.707l7.778-7.778
			c0.195-0.195,0.512-0.195,0.707,0s0.195,0.512,0,0.707l-7.778,7.778C25.957,55.636,25.829,55.685,25.701,55.685z"/>
	</g>
	<g>
		<path class="st0" d="M15,7.5h-4c-0.276,0-0.5-0.224-0.5-0.5s0.224-0.5,0.5-0.5h4c0.276,0,0.5,0.224,0.5,0.5S15.276,7.5,15,7.5z"/>
	</g>
	<g>
		<path class="st0" d="M13,9.5c-0.276,0-0.5-0.224-0.5-0.5V5c0-0.276,0.224-0.5,0.5-0.5s0.5,0.224,0.5,0.5v4
			C13.5,9.276,13.276,9.5,13,9.5z"/>
	</g>
	<g>
		<path class="st0" d="M8,14H4c-0.276,0-0.5-0.224-0.5-0.5S3.724,13,4,13h4c0.276,0,0.5,0.224,0.5,0.5S8.276,14,8,14z"/>
	</g>
	<g>
		<path class="st0" d="M6,16c-0.276,0-0.5-0.224-0.5-0.5v-4C5.5,11.224,5.724,11,6,11s0.5,0.224,0.5,0.5v4C6.5,15.776,6.276,16,6,16
			z"/>
	</g>
</g>
</svg>
