<?xml version="1.0" encoding="utf-8"?>
<!-- Generator: Adobe Illustrator 21.1.0, SVG Export Plug-In . SVG Version: 6.00 Build 0)  -->
<svg version="1.1" id="Icon_Set" xmlns="http://www.w3.org/2000/svg" xmlns:xlink="http://www.w3.org/1999/xlink" x="0px" y="0px"
	 viewBox="0 0 64 64" style="enable-background:new 0 0 64 64;" xml:space="preserve">
<style type="text/css">
	.st0{fill:#263238;}
	.st1{fill:#FFFFFF;}
	.st2{fill:#FF5252;}
	.st3{fill:#FFD740;}
	.st4{fill:#40C4FF;}
	.st5{fill:#4DB6AC;}
	.st6{fill:#4FC3F7;}
</style>
<g id="Timestamp">
	<g>
		<path class="st0" d="M31.331,34c-1.103,0-2-0.897-2-2v-7c0-1.103,0.897-2,2-2s2,0.897,2,2v7C33.331,33.103,32.434,34,31.331,34z
			 M31.331,24c-0.551,0-1,0.449-1,1v7c0,0.551,0.449,1,1,1s1-0.449,1-1v-7C32.331,24.449,31.882,24,31.331,24z"/>
	</g>
	<g>
		<path class="st0" d="M35.331,13.5h-8c-0.827,0-1.5-0.673-1.5-1.5v-2c0-0.827,0.673-1.5,1.5-1.5h8c0.827,0,1.5,0.673,1.5,1.5v2
			C36.831,12.827,36.158,13.5,35.331,13.5z M27.331,9.5c-0.276,0-0.5,0.224-0.5,0.5v2c0,0.276,0.224,0.5,0.5,0.5h8
			c0.275,0,0.5-0.224,0.5-0.5v-2c0-0.276-0.225-0.5-0.5-0.5H27.331z"/>
	</g>
	<g>
		<path class="st0" d="M28.331,15c-0.276,0-0.5-0.224-0.5-0.5V13c0-0.276,0.224-0.5,0.5-0.5s0.5,0.224,0.5,0.5v1.5
			C28.831,14.776,28.607,15,28.331,15z"/>
	</g>
	<g>
		<path class="st0" d="M34.331,15c-0.276,0-0.5-0.224-0.5-0.5V13c0-0.276,0.224-0.5,0.5-0.5s0.5,0.224,0.5,0.5v1.5
			C34.831,14.776,34.607,15,34.331,15z"/>
	</g>
	<g>
		<path class="st5" d="M31.331,16.5c-8.284,0-15,6.716-15,15c0,8.284,6.716,15,15,15c8.284,0,15-6.716,15-15
			C46.331,23.216,39.615,16.5,31.331,16.5z M31.331,43.5c-6.627,0-12-5.373-12-12c0-6.627,5.373-12,12-12c6.627,0,12,5.373,12,12
			C43.331,38.127,37.958,43.5,31.331,43.5z"/>
		<path class="st0" d="M31.331,47c-8.547,0-15.5-6.953-15.5-15.5S22.784,16,31.331,16s15.5,6.953,15.5,15.5S39.878,47,31.331,47z
			 M31.331,17c-7.995,0-14.5,6.505-14.5,14.5S23.336,46,31.331,46s14.5-6.505,14.5-14.5S39.326,17,31.331,17z M31.331,44
			c-6.893,0-12.5-5.607-12.5-12.5S24.438,19,31.331,19s12.5,5.607,12.5,12.5S38.224,44,31.331,44z M31.331,20
			c-6.341,0-11.5,5.159-11.5,11.5S24.99,43,31.331,43c6.341,0,11.5-5.159,11.5-11.5S37.672,20,31.331,20z"/>
	</g>
	<g>
		<path class="st3" d="M31.331,60.5c-15.991,0-29-13.009-29-29h8c0,11.58,9.42,21,21,21c11.579,0,21-9.42,21-21h8
			C60.331,47.491,47.321,60.5,31.331,60.5z"/>
		<path class="st0" d="M31.331,61c-16.267,0-29.5-13.233-29.5-29.5c0-0.276,0.224-0.5,0.5-0.5h8c0.276,0,0.5,0.224,0.5,0.5
			c0,11.304,9.196,20.5,20.5,20.5s20.5-9.196,20.5-20.5c0-0.276,0.224-0.5,0.5-0.5h8c0.276,0,0.5,0.224,0.5,0.5
			C60.831,47.767,47.598,61,31.331,61z M2.835,32c0.268,15.485,12.948,28,28.496,28S59.56,47.485,59.827,32h-7.002
			c-0.267,11.625-9.806,21-21.494,21c-11.688,0-21.228-9.375-21.494-21H2.835z"/>
	</g>
	<g>
		<path class="st0" d="M44.766,21.394c-0.128,0-0.256-0.049-0.354-0.146c-0.195-0.195-0.195-0.512,0-0.707l1.062-1.061l-2.122-2.121
			l-1.061,1.061c-0.195,0.195-0.512,0.195-0.707,0s-0.195-0.512,0-0.707l1.414-1.414c0.195-0.195,0.512-0.195,0.707,0l2.829,2.828
			c0.094,0.094,0.146,0.221,0.146,0.354s-0.053,0.26-0.146,0.354l-1.415,1.415C45.021,21.345,44.894,21.394,44.766,21.394z"/>
	</g>
	<g>
		<path class="st0" d="M17.896,21.394c-0.128,0-0.256-0.049-0.354-0.146l-1.414-1.415c-0.195-0.195-0.195-0.512,0-0.707l2.828-2.828
			c0.195-0.195,0.512-0.195,0.707,0l1.415,1.414c0.195,0.195,0.195,0.512,0,0.707s-0.512,0.195-0.707,0l-1.061-1.061l-2.121,2.121
			l1.061,1.061c0.195,0.195,0.195,0.512,0,0.707C18.152,21.345,18.024,21.394,17.896,21.394z"/>
	</g>
	<g>
		<path class="st0" d="M3.494,29c-0.018,0-0.036-0.001-0.054-0.003c-0.274-0.029-0.473-0.275-0.444-0.55
			c0.109-1.026,0.275-2.053,0.494-3.054c0.058-0.269,0.326-0.442,0.595-0.381c0.27,0.059,0.441,0.325,0.382,0.595
			c-0.21,0.965-0.371,1.956-0.477,2.946C3.963,28.81,3.746,29,3.494,29z"/>
	</g>
	<g>
		<path class="st0" d="M59.168,29c-0.252,0-0.469-0.19-0.496-0.447C57.181,14.556,45.427,4,31.331,4
			C19.253,4,8.415,12.077,4.973,23.643c-0.078,0.265-0.357,0.416-0.622,0.336c-0.265-0.079-0.416-0.357-0.336-0.622
			C7.582,11.371,18.814,3,31.331,3c14.608,0,26.79,10.94,28.335,25.447c0.029,0.274-0.17,0.521-0.444,0.55
			C59.204,28.999,59.186,29,59.168,29z"/>
	</g>
	<g>
		<path class="st0" d="M22.331,32h-3c-0.276,0-0.5-0.224-0.5-0.5s0.224-0.5,0.5-0.5h3c0.276,0,0.5,0.224,0.5,0.5
			S22.607,32,22.331,32z"/>
	</g>
	<g>
		<path class="st0" d="M43.331,32h-3c-0.276,0-0.5-0.224-0.5-0.5s0.224-0.5,0.5-0.5h3c0.276,0,0.5,0.224,0.5,0.5
			S43.607,32,43.331,32z"/>
	</g>
	<g>
		<path class="st0" d="M31.331,44c-0.276,0-0.5-0.224-0.5-0.5v-3c0-0.276,0.224-0.5,0.5-0.5s0.5,0.224,0.5,0.5v3
			C31.831,43.776,31.607,44,31.331,44z"/>
	</g>
	<g>
		<path class="st0" d="M31.331,61c-0.276,0-0.5-0.224-0.5-0.5v-4c0-0.276,0.224-0.5,0.5-0.5s0.5,0.224,0.5,0.5v4
			C31.831,60.776,31.607,61,31.331,61z"/>
	</g>
	<g>
		<path class="st0" d="M51.577,52.747c-0.128,0-0.256-0.049-0.354-0.146l-2.828-2.829c-0.195-0.195-0.195-0.512,0-0.707
			s0.512-0.195,0.707,0l2.828,2.829c0.195,0.195,0.195,0.512,0,0.707C51.833,52.698,51.705,52.747,51.577,52.747z"/>
	</g>
	<g>
		<path class="st0" d="M57.947,43.525c-0.064,0-0.129-0.012-0.191-0.038l-1.848-0.766c-0.255-0.105-0.376-0.398-0.271-0.653
			c0.106-0.255,0.4-0.375,0.653-0.271l1.848,0.766c0.255,0.105,0.376,0.398,0.271,0.653C58.329,43.409,58.144,43.525,57.947,43.525z
			"/>
	</g>
	<g>
		<path class="st0" d="M4.715,43.525c-0.196,0-0.382-0.116-0.462-0.309c-0.105-0.255,0.016-0.548,0.271-0.653l1.848-0.766
			c0.254-0.104,0.548,0.016,0.653,0.271c0.105,0.255-0.016,0.548-0.271,0.653l-1.848,0.766C4.844,43.513,4.779,43.525,4.715,43.525z
			"/>
	</g>
	<g>
		<path class="st0" d="M11.084,52.747c-0.128,0-0.256-0.049-0.354-0.146c-0.195-0.195-0.195-0.512,0-0.707l2.829-2.829
			c0.195-0.195,0.512-0.195,0.707,0s0.195,0.512,0,0.707L11.438,52.6C11.34,52.698,11.212,52.747,11.084,52.747z"/>
	</g>
	<g>
		<path class="st0" d="M42.252,58.866c-0.196,0-0.382-0.116-0.462-0.309l-0.766-1.848c-0.105-0.255,0.016-0.548,0.271-0.653
			c0.252-0.104,0.547,0.015,0.653,0.271l0.766,1.848c0.105,0.255-0.016,0.548-0.271,0.653
			C42.381,58.854,42.316,58.866,42.252,58.866z"/>
	</g>
	<g>
		<path class="st0" d="M20.41,58.866c-0.064,0-0.129-0.012-0.191-0.038c-0.255-0.105-0.376-0.398-0.271-0.653l0.766-1.848
			c0.105-0.255,0.399-0.375,0.653-0.271c0.255,0.105,0.376,0.398,0.271,0.653l-0.766,1.848C20.792,58.75,20.605,58.866,20.41,58.866
			z"/>
	</g>
	<g>
		<path class="st0" d="M59.169,29c-0.085,0-0.17-0.021-0.248-0.066l-3.5-2c-0.24-0.137-0.323-0.442-0.187-0.682
			c0.138-0.241,0.445-0.323,0.683-0.186l3.136,1.792l2.232-2.678c0.178-0.213,0.493-0.239,0.704-0.064
			c0.212,0.177,0.24,0.492,0.063,0.705l-2.5,3C59.455,28.938,59.313,29,59.169,29z"/>
	</g>
</g>
</svg>
