<?xml version="1.0" encoding="utf-8"?>
<!-- Generator: Adobe Illustrator 21.1.0, SVG Export Plug-In . SVG Version: 6.00 Build 0)  -->
<svg version="1.1" id="Icon_Set" xmlns="http://www.w3.org/2000/svg" xmlns:xlink="http://www.w3.org/1999/xlink" x="0px" y="0px"
	 viewBox="0 0 64 64" style="enable-background:new 0 0 64 64;" xml:space="preserve">
<style type="text/css">
	.st0{fill:#263238;}
	.st1{fill:#FFFFFF;}
	.st2{fill:#FF5252;}
	.st3{fill:#FFD740;}
	.st4{fill:#40C4FF;}
	.st5{fill:#4DB6AC;}
	.st6{fill:#4FC3F7;}
</style>
<g id="Wave">
	<g>
		<path class="st0" d="M29.5,61.25h-1c-0.276,0-0.5-0.224-0.5-0.5s0.224-0.5,0.5-0.5h1c0.276,0,0.5,0.224,0.5,0.5
			S29.776,61.25,29.5,61.25z"/>
	</g>
	<g>
		<path class="st0" d="M31.25,57.25c-13.51,0-24.5-10.99-24.5-24.5s10.99-24.5,24.5-24.5s24.5,10.99,24.5,24.5
			S44.76,57.25,31.25,57.25z M31.25,9.25c-12.958,0-23.5,10.542-23.5,23.5s10.542,23.5,23.5,23.5s23.5-10.542,23.5-23.5
			S44.208,9.25,31.25,9.25z"/>
	</g>
	<g>
		<path class="st0" d="M3.25,33.25c-0.276,0-0.5-0.224-0.5-0.5c0-15.715,12.785-28.5,28.5-28.5c0.276,0,0.5,0.224,0.5,0.5
			s-0.224,0.5-0.5,0.5c-15.163,0-27.5,12.337-27.5,27.5C3.75,33.026,3.526,33.25,3.25,33.25z"/>
	</g>
	<g>
		<path class="st0" d="M34.25,5.25h-1c-0.276,0-0.5-0.224-0.5-0.5s0.224-0.5,0.5-0.5h1c0.276,0,0.5,0.224,0.5,0.5
			S34.526,5.25,34.25,5.25z"/>
	</g>
	<g>
		<path class="st0" d="M31.25,61.25c-0.276,0-0.5-0.224-0.5-0.5s0.224-0.5,0.5-0.5c15.163,0,27.5-12.337,27.5-27.5
			c0-0.276,0.224-0.5,0.5-0.5s0.5,0.224,0.5,0.5C59.75,48.465,46.965,61.25,31.25,61.25z"/>
	</g>
	<g>
		<path class="st0" d="M53.75,5.75h-4c-0.276,0-0.5-0.224-0.5-0.5s0.224-0.5,0.5-0.5h4c0.276,0,0.5,0.224,0.5,0.5
			S54.026,5.75,53.75,5.75z"/>
	</g>
	<g>
		<path class="st0" d="M51.75,7.75c-0.276,0-0.5-0.224-0.5-0.5v-4c0-0.276,0.224-0.5,0.5-0.5s0.5,0.224,0.5,0.5v4
			C52.25,7.526,52.026,7.75,51.75,7.75z"/>
	</g>
	<g>
		<path class="st0" d="M60.75,12.25h-4c-0.276,0-0.5-0.224-0.5-0.5s0.224-0.5,0.5-0.5h4c0.276,0,0.5,0.224,0.5,0.5
			S61.026,12.25,60.75,12.25z"/>
	</g>
	<g>
		<path class="st0" d="M58.75,14.25c-0.276,0-0.5-0.224-0.5-0.5v-4c0-0.276,0.224-0.5,0.5-0.5s0.5,0.224,0.5,0.5v4
			C59.25,14.026,59.026,14.25,58.75,14.25z"/>
	</g>
	<g>
		<path class="st0" d="M31.25,53.25c-11.304,0-20.5-9.196-20.5-20.5s9.196-20.5,20.5-20.5s20.5,9.196,20.5,20.5
			S42.554,53.25,31.25,53.25z M31.25,13.25c-10.752,0-19.5,8.748-19.5,19.5s8.748,19.5,19.5,19.5s19.5-8.748,19.5-19.5
			S42.002,13.25,31.25,13.25z"/>
	</g>
	<g>
		<path class="st4" d="M28.432,30.618l2.121-2.121c0.391-0.391,1.024-0.391,1.414,0l2.121,2.121c0.391,0.391,1.024,0.391,1.414,0
			l2.464-2.464c0.391-0.391,0.391-1.024,0-1.414l-4.95-4.95c-0.976-0.976-2.559-0.976-3.536,0l-4.939,4.939
			c-0.391,0.391-0.391,1.024,0,1.414l2.475,2.475C27.408,31.009,28.041,31.009,28.432,30.618z"/>
		<path class="st0" d="M34.796,31.41c-0.384,0-0.769-0.146-1.061-0.438l-2.121-2.121c-0.189-0.189-0.518-0.189-0.707,0l-2.122,2.121
			c-0.584,0.584-1.537,0.584-2.121,0l-2.475-2.475c-0.585-0.585-0.585-1.536,0-2.121l4.939-4.939c1.17-1.17,3.072-1.17,4.242,0
			l4.95,4.949c0.585,0.585,0.585,1.537,0,2.122l-2.465,2.464C35.564,31.264,35.18,31.41,34.796,31.41z M31.261,27.704
			c0.4,0,0.777,0.156,1.061,0.439l2.121,2.121c0.195,0.195,0.512,0.195,0.707,0l2.465-2.464c0.095-0.095,0.146-0.221,0.146-0.354
			c0-0.133-0.052-0.259-0.146-0.354l-4.95-4.949c-0.779-0.779-2.049-0.779-2.828,0l-4.939,4.939c-0.195,0.195-0.195,0.512,0,0.707
			l2.475,2.475c0.195,0.195,0.512,0.195,0.707,0l0,0l2.122-2.121C30.483,27.86,30.86,27.704,31.261,27.704z"/>
	</g>
	<g>
		<path class="st0" d="M31.25,44.94c-0.769,0-1.536-0.292-2.121-0.877l-9.192-9.192c-1.17-1.17-1.17-3.072,0-4.242l2.132-2.132
			c0.195-0.195,0.512-0.195,0.707,0l4.596,4.596c0.189,0.189,0.518,0.189,0.707,0l2.829-2.828c0.195-0.195,0.512-0.195,0.707,0
			l2.828,2.828c0.189,0.189,0.518,0.189,0.707,0l0,0l4.586-4.585c0.195-0.195,0.512-0.195,0.707,0l2.121,2.121
			c1.17,1.17,1.17,3.072,0,4.242l-9.192,9.192C32.786,44.648,32.019,44.94,31.25,44.94z M22.422,29.558l-1.778,1.778
			c-0.779,0.779-0.779,2.049,0,2.828l9.192,9.192c0.779,0.779,2.049,0.779,2.828,0l9.192-9.192c0.779-0.779,0.779-2.049,0-2.828
			l-1.768-1.768L35.856,33.8c-0.566,0.566-1.555,0.566-2.121,0l-2.475-2.475L28.785,33.8c-0.566,0.566-1.555,0.566-2.121,0
			L22.422,29.558z"/>
	</g>
</g>
</svg>
