<?xml version="1.0" encoding="utf-8"?>
<!-- Generator: Adobe Illustrator 21.1.0, SVG Export Plug-In . SVG Version: 6.00 Build 0)  -->
<svg version="1.1" id="Icon_Set" xmlns="http://www.w3.org/2000/svg" xmlns:xlink="http://www.w3.org/1999/xlink" x="0px" y="0px"
	 viewBox="0 0 64 64" style="enable-background:new 0 0 64 64;" xml:space="preserve">
<style type="text/css">
	.st0{fill:#263238;}
	.st1{fill:#FFFFFF;}
	.st2{fill:#FF5252;}
	.st3{fill:#FFD740;}
	.st4{fill:#40C4FF;}
	.st5{fill:#4DB6AC;}
	.st6{fill:#4FC3F7;}
</style>
<g id="White_Paper">
	<g>
		<path class="st0" d="M3,31c-0.276,0-0.5-0.224-0.5-0.5v-1C2.5,29.224,2.724,29,3,29s0.5,0.224,0.5,0.5v1C3.5,30.776,3.276,31,3,31
			z"/>
	</g>
	<g>
		<path class="st0" d="M3,28c-0.276,0-0.5-0.224-0.5-0.5v-14C2.5,13.224,2.724,13,3,13s0.5,0.224,0.5,0.5v14
			C3.5,27.776,3.276,28,3,28z"/>
	</g>
	<g>
		<path class="st0" d="M61,35c-0.276,0-0.5-0.224-0.5-0.5v-1c0-0.276,0.224-0.5,0.5-0.5s0.5,0.224,0.5,0.5v1
			C61.5,34.776,61.276,35,61,35z"/>
	</g>
	<g>
		<path class="st0" d="M61,51c-0.276,0-0.5-0.224-0.5-0.5v-14c0-0.276,0.224-0.5,0.5-0.5s0.5,0.224,0.5,0.5v14
			C61.5,50.776,61.276,51,61,51z"/>
	</g>
	<g>
		<path class="st0" d="M50.5,53.25H42c-0.276,0-0.5-0.224-0.5-0.5s0.224-0.5,0.5-0.5h8.5c1.103,0,2-0.897,2-2v-46
			c0-1.103-0.897-2-2-2h-37c-1.103,0-2,0.897-2,2v46c0,1.103,0.897,2,2,2H22c0.276,0,0.5,0.224,0.5,0.5s-0.224,0.5-0.5,0.5h-8.5
			c-1.654,0-3-1.346-3-3v-46c0-1.654,1.346-3,3-3h37c1.654,0,3,1.346,3,3v46C53.5,51.904,52.154,53.25,50.5,53.25z"/>
	</g>
	<g>
		<path class="st0" d="M14,58.25H8.5c-1.654,0-3-1.346-3-3v-46c0-1.654,1.346-3,3-3H9c0.276,0,0.5,0.224,0.5,0.5S9.276,7.25,9,7.25
			H8.5c-1.103,0-2,0.897-2,2v46c0,1.103,0.897,2,2,2H14c0.276,0,0.5,0.224,0.5,0.5S14.276,58.25,14,58.25z"/>
	</g>
	<g>
		<path class="st0" d="M55.5,58.25H50c-0.276,0-0.5-0.224-0.5-0.5s0.224-0.5,0.5-0.5h5.5c1.103,0,2-0.897,2-2v-46
			c0-1.103-0.897-2-2-2H55c-0.276,0-0.5-0.224-0.5-0.5s0.224-0.5,0.5-0.5h0.5c1.654,0,3,1.346,3,3v46
			C58.5,56.904,57.154,58.25,55.5,58.25z"/>
	</g>
	<g>
		<path class="st3" d="M29.854,21.604H17.5c-0.552,0-1-0.448-1-1V8.25c0-0.552,0.448-1,1-1h12.354c0.552,0,1,0.448,1,1v12.354
			C30.854,21.156,30.406,21.604,29.854,21.604z"/>
	</g>
	<g>
		<path class="st0" d="M24.677,14.927h-3.25c-0.276,0-0.5-0.224-0.5-0.5v-3.5c0-0.276,0.224-0.5,0.5-0.5h3.25
			c1.24,0,2.25,1.009,2.25,2.25S25.917,14.927,24.677,14.927z M21.927,13.927h2.75c0.689,0,1.25-0.561,1.25-1.25
			s-0.561-1.25-1.25-1.25h-2.75V13.927z"/>
	</g>
	<g>
		<path class="st0" d="M25.177,18.427h-3.75c-0.276,0-0.5-0.224-0.5-0.5v-3.5c0-0.276,0.224-0.5,0.5-0.5h3.75
			c1.24,0,2.25,1.009,2.25,2.25S26.417,18.427,25.177,18.427z M21.927,17.427h3.25c0.689,0,1.25-0.561,1.25-1.25
			s-0.561-1.25-1.25-1.25h-3.25V17.427z"/>
	</g>
	<g>
		<path class="st0" d="M21.427,11.427h-1c-0.276,0-0.5-0.224-0.5-0.5s0.224-0.5,0.5-0.5h1c0.276,0,0.5,0.224,0.5,0.5
			S21.703,11.427,21.427,11.427z"/>
	</g>
	<g>
		<path class="st0" d="M21.427,18.427h-1c-0.276,0-0.5-0.224-0.5-0.5s0.224-0.5,0.5-0.5h1c0.276,0,0.5,0.224,0.5,0.5
			S21.703,18.427,21.427,18.427z"/>
	</g>
	<g>
		<path class="st0" d="M22.427,10.927c-0.276,0-0.5-0.224-0.5-0.5v-1c0-0.276,0.224-0.5,0.5-0.5s0.5,0.224,0.5,0.5v1
			C22.927,10.703,22.703,10.927,22.427,10.927z"/>
	</g>
	<g>
		<path class="st0" d="M24.427,10.927c-0.276,0-0.5-0.224-0.5-0.5v-1c0-0.276,0.224-0.5,0.5-0.5s0.5,0.224,0.5,0.5v1
			C24.927,10.703,24.703,10.927,24.427,10.927z"/>
	</g>
	<g>
		<path class="st0" d="M22.427,19.927c-0.276,0-0.5-0.224-0.5-0.5v-1c0-0.276,0.224-0.5,0.5-0.5s0.5,0.224,0.5,0.5v1
			C22.927,19.703,22.703,19.927,22.427,19.927z"/>
	</g>
	<g>
		<path class="st0" d="M24.427,19.927c-0.276,0-0.5-0.224-0.5-0.5v-1c0-0.276,0.224-0.5,0.5-0.5s0.5,0.224,0.5,0.5v1
			C24.927,19.703,24.703,19.927,24.427,19.927z"/>
	</g>
	<g>
		<path class="st0" d="M47.5,12.75h-12c-0.276,0-0.5-0.224-0.5-0.5s0.224-0.5,0.5-0.5h12c0.276,0,0.5,0.224,0.5,0.5
			S47.776,12.75,47.5,12.75z"/>
	</g>
	<g>
		<path class="st0" d="M47.5,17.75h-12c-0.276,0-0.5-0.224-0.5-0.5s0.224-0.5,0.5-0.5h12c0.276,0,0.5,0.224,0.5,0.5
			S47.776,17.75,47.5,17.75z"/>
	</g>
	<g>
		<path class="st0" d="M47.5,27.25h-31c-0.276,0-0.5-0.224-0.5-0.5s0.224-0.5,0.5-0.5h31c0.276,0,0.5,0.224,0.5,0.5
			S47.776,27.25,47.5,27.25z"/>
	</g>
	<g>
		<path class="st0" d="M47.5,32.25h-31c-0.276,0-0.5-0.224-0.5-0.5s0.224-0.5,0.5-0.5h31c0.276,0,0.5,0.224,0.5,0.5
			S47.776,32.25,47.5,32.25z"/>
	</g>
	<g>
		<path class="st0" d="M47.5,37.25h-31c-0.276,0-0.5-0.224-0.5-0.5s0.224-0.5,0.5-0.5h31c0.276,0,0.5,0.224,0.5,0.5
			S47.776,37.25,47.5,37.25z"/>
	</g>
	<g>
		<path class="st0" d="M22,58.75c-0.276,0-0.5-0.224-0.5-0.5v-5.5c0-0.276,0.224-0.5,0.5-0.5s0.5,0.224,0.5,0.5v5.5
			C22.5,58.526,22.276,58.75,22,58.75z"/>
	</g>
	<g>
		<path class="st0" d="M32,56.75c-0.276,0-0.5-0.224-0.5-0.5v-3.5c0-0.276,0.224-0.5,0.5-0.5s0.5,0.224,0.5,0.5v3.5
			C32.5,56.526,32.276,56.75,32,56.75z"/>
	</g>
	<g>
		<path class="st0" d="M42,58.75c-0.276,0-0.5-0.224-0.5-0.5v-5.5c0-0.276,0.224-0.5,0.5-0.5s0.5,0.224,0.5,0.5v5.5
			C42.5,58.526,42.276,58.75,42,58.75z"/>
	</g>
	<g>
		<path class="st0" d="M37,53.25H27c-0.276,0-0.5-0.224-0.5-0.5s0.224-0.5,0.5-0.5h10c0.276,0,0.5,0.224,0.5,0.5
			S37.276,53.25,37,53.25z"/>
	</g>
	<g>
		<path class="st0" d="M22,62.75c-1.379,0-2.5-1.122-2.5-2.5s1.121-2.5,2.5-2.5s2.5,1.122,2.5,2.5S23.379,62.75,22,62.75z M22,58.75
			c-0.827,0-1.5,0.673-1.5,1.5s0.673,1.5,1.5,1.5s1.5-0.673,1.5-1.5S22.827,58.75,22,58.75z"/>
	</g>
	<g>
		<path class="st0" d="M32,60.75c-1.379,0-2.5-1.122-2.5-2.5s1.121-2.5,2.5-2.5s2.5,1.122,2.5,2.5S33.379,60.75,32,60.75z M32,56.75
			c-0.827,0-1.5,0.673-1.5,1.5s0.673,1.5,1.5,1.5s1.5-0.673,1.5-1.5S32.827,56.75,32,56.75z"/>
	</g>
	<g>
		<path class="st0" d="M42,62.75c-1.379,0-2.5-1.122-2.5-2.5s1.121-2.5,2.5-2.5s2.5,1.122,2.5,2.5S43.379,62.75,42,62.75z M42,58.75
			c-0.827,0-1.5,0.673-1.5,1.5s0.673,1.5,1.5,1.5s1.5-0.673,1.5-1.5S42.827,58.75,42,58.75z"/>
	</g>
	<g>
		<rect x="16.5" y="42.25" class="st4" width="7" height="6"/>
		<path class="st0" d="M23.5,48.75h-7c-0.276,0-0.5-0.224-0.5-0.5v-6c0-0.276,0.224-0.5,0.5-0.5h7c0.276,0,0.5,0.224,0.5,0.5v6
			C24,48.526,23.776,48.75,23.5,48.75z M17,47.75h6v-5h-6V47.75z"/>
	</g>
	<g>
		<rect x="28.5" y="42.25" class="st4" width="7" height="6"/>
		<path class="st0" d="M35.5,48.75h-7c-0.276,0-0.5-0.224-0.5-0.5v-6c0-0.276,0.224-0.5,0.5-0.5h7c0.276,0,0.5,0.224,0.5,0.5v6
			C36,48.526,35.776,48.75,35.5,48.75z M29,47.75h6v-5h-6V47.75z"/>
	</g>
	<g>
		<rect x="40.5" y="42.25" class="st4" width="7" height="6"/>
		<path class="st0" d="M47.5,48.75h-7c-0.276,0-0.5-0.224-0.5-0.5v-6c0-0.276,0.224-0.5,0.5-0.5h7c0.276,0,0.5,0.224,0.5,0.5v6
			C48,48.526,47.776,48.75,47.5,48.75z M41,47.75h6v-5h-6V47.75z"/>
	</g>
</g>
</svg>
