<?xml version="1.0" encoding="utf-8"?>
<!-- Generator: Adobe Illustrator 21.1.0, SVG Export Plug-In . SVG Version: 6.00 Build 0)  -->
<svg version="1.1" id="Icon_Set" xmlns="http://www.w3.org/2000/svg" xmlns:xlink="http://www.w3.org/1999/xlink" x="0px" y="0px"
	 viewBox="0 0 64 64" style="enable-background:new 0 0 64 64;" xml:space="preserve">
<style type="text/css">
	.st0{fill:#263238;}
	.st1{fill:#FFFFFF;}
	.st2{fill:#FF5252;}
	.st3{fill:#FFD740;}
	.st4{fill:#40C4FF;}
	.st5{fill:#4DB6AC;}
	.st6{fill:#4FC3F7;}
</style>
<g id="Withdraw">
	<g>
		<path class="st5" d="M17.5,33v29c0,0.552,0.448,1,1,1h27c0.552,0,1-0.448,1-1V33"/>
		<path class="st0" d="M45.5,63.5h-27c-0.827,0-1.5-0.673-1.5-1.5V33c0-0.276,0.224-0.5,0.5-0.5S18,32.724,18,33v29
			c0,0.275,0.224,0.5,0.5,0.5h27c0.275,0,0.5-0.225,0.5-0.5V33c0-0.276,0.224-0.5,0.5-0.5S47,32.724,47,33v29
			C47,62.827,46.327,63.5,45.5,63.5z"/>
	</g>
	<g>
		<polyline class="st5" points="22,33 22,58.5 42,58.5 42,33 		"/>
		<path class="st0" d="M42,59H22c-0.276,0-0.5-0.224-0.5-0.5V33c0-0.276,0.224-0.5,0.5-0.5s0.5,0.224,0.5,0.5v25h19V33
			c0-0.276,0.224-0.5,0.5-0.5s0.5,0.224,0.5,0.5v25.5C42.5,58.776,42.276,59,42,59z"/>
	</g>
	<g>
		<path class="st1" d="M27.106,33C25.808,34.271,25,36.04,25,38c0,3.866,3.134,7,7,7s7-3.134,7-7c0-1.96-0.808-3.729-2.106-5"/>
		<path class="st0" d="M32,45.5c-4.136,0-7.5-3.364-7.5-7.5c0-2.03,0.801-3.934,2.256-5.357c0.198-0.191,0.514-0.19,0.707,0.008
			c0.193,0.197,0.189,0.514-0.008,0.707C26.194,34.592,25.5,36.24,25.5,38c0,3.584,2.916,6.5,6.5,6.5s6.5-2.916,6.5-6.5
			c0-1.76-0.694-3.408-1.955-4.643c-0.197-0.193-0.201-0.51-0.008-0.707c0.193-0.198,0.512-0.199,0.707-0.008
			C38.699,34.066,39.5,35.97,39.5,38C39.5,42.136,36.136,45.5,32,45.5z"/>
	</g>
	<g>
		<path class="st0" d="M44,61h-6c-0.276,0-0.5-0.224-0.5-0.5c0-3.584,2.916-6.5,6.5-6.5c0.276,0,0.5,0.224,0.5,0.5v6
			C44.5,60.776,44.276,61,44,61z M38.522,60H43.5v-4.978C40.865,55.261,38.761,57.365,38.522,60z"/>
	</g>
	<g>
		<path class="st0" d="M26,61h-6c-0.276,0-0.5-0.224-0.5-0.5v-6c0-0.276,0.224-0.5,0.5-0.5c3.584,0,6.5,2.916,6.5,6.5
			C26.5,60.776,26.277,61,26,61z M20.5,60h4.978c-0.238-2.635-2.343-4.739-4.978-4.978V60z"/>
	</g>
	<g>
		<path class="st0" d="M57.5,41.5h-9c-0.276,0-0.5-0.224-0.5-0.5s0.224-0.5,0.5-0.5h9c1.103,0,2-0.897,2-2v-19c0-1.103-0.897-2-2-2
			h-9.499c-0.276,0-0.5-0.224-0.5-0.5c0-8.547-6.953-15.5-15.5-15.5s-15.5,6.953-15.5,15.5c0,0.276-0.224,0.5-0.5,0.5H6.5
			c-1.103,0-2,0.897-2,2v19c0,1.103,0.897,2,2,2h9c0.276,0,0.5,0.224,0.5,0.5s-0.224,0.5-0.5,0.5h-9c-1.654,0-3-1.346-3-3v-19
			c0-1.654,1.346-3,3-3h9.008c0.265-8.868,7.562-16,16.493-16c8.931,0,16.228,7.132,16.492,16H57.5c1.654,0,3,1.346,3,3v19
			C60.5,40.154,59.154,41.5,57.5,41.5z"/>
	</g>
	<g>
		<path class="st0" d="M54,41.5h-5.5c-0.276,0-0.5-0.224-0.5-0.5s0.224-0.5,0.5-0.5h5V32c0-0.275-0.225-0.5-0.5-0.5H11
			c-0.276,0-0.5,0.225-0.5,0.5v8.5h5c0.276,0,0.5,0.224,0.5,0.5s-0.224,0.5-0.5,0.5H10c-0.276,0-0.5-0.224-0.5-0.5v-9
			c0-0.827,0.673-1.5,1.5-1.5h42c0.827,0,1.5,0.673,1.5,1.5v9C54.5,41.276,54.276,41.5,54,41.5z"/>
	</g>
	<g>
		<circle class="st3" cx="32" cy="17" r="10"/>
		<path class="st0" d="M32,27.5c-5.79,0-10.5-4.71-10.5-10.5S26.211,6.5,32,6.5S42.5,11.21,42.5,17S37.79,27.5,32,27.5z M32,7.5
			c-5.238,0-9.5,4.262-9.5,9.5s4.262,9.5,9.5,9.5c5.238,0,9.5-4.262,9.5-9.5S37.238,7.5,32,7.5z"/>
	</g>
	<g>
		<path class="st0" d="M33,17.5h-3.5c-0.276,0-0.5-0.224-0.5-0.5v-4c0-0.276,0.224-0.5,0.5-0.5H33c1.379,0,2.5,1.121,2.5,2.5
			S34.379,17.5,33,17.5z M30,16.5h3c0.827,0,1.5-0.673,1.5-1.5s-0.673-1.5-1.5-1.5h-3V16.5z"/>
	</g>
	<g>
		<path class="st0" d="M34,21.5h-4.5c-0.276,0-0.5-0.224-0.5-0.5v-4c0-0.276,0.224-0.5,0.5-0.5H34c1.379,0,2.5,1.121,2.5,2.5
			S35.379,21.5,34,21.5z M30,20.5h4c0.827,0,1.5-0.673,1.5-1.5s-0.673-1.5-1.5-1.5h-4V20.5z"/>
	</g>
	<g>
		<path class="st0" d="M29.5,13.5H28c-0.276,0-0.5-0.224-0.5-0.5s0.224-0.5,0.5-0.5h1.5c0.276,0,0.5,0.224,0.5,0.5
			S29.777,13.5,29.5,13.5z"/>
	</g>
	<g>
		<path class="st0" d="M29.5,21.5H28c-0.276,0-0.5-0.224-0.5-0.5s0.224-0.5,0.5-0.5h1.5c0.276,0,0.5,0.224,0.5,0.5
			S29.777,21.5,29.5,21.5z"/>
	</g>
	<g>
		<path class="st0" d="M31,13.5c-0.276,0-0.5-0.224-0.5-0.5v-2c0-0.276,0.224-0.5,0.5-0.5s0.5,0.224,0.5,0.5v2
			C31.5,13.276,31.277,13.5,31,13.5z"/>
	</g>
	<g>
		<path class="st0" d="M33,13.5c-0.276,0-0.5-0.224-0.5-0.5v-2c0-0.276,0.224-0.5,0.5-0.5s0.5,0.224,0.5,0.5v2
			C33.5,13.276,33.276,13.5,33,13.5z"/>
	</g>
	<g>
		<path class="st0" d="M31,23.5c-0.276,0-0.5-0.224-0.5-0.5v-2c0-0.276,0.224-0.5,0.5-0.5s0.5,0.224,0.5,0.5v2
			C31.5,23.276,31.277,23.5,31,23.5z"/>
	</g>
	<g>
		<path class="st0" d="M33,23.5c-0.276,0-0.5-0.224-0.5-0.5v-2c0-0.276,0.224-0.5,0.5-0.5s0.5,0.224,0.5,0.5v2
			C33.5,23.276,33.276,23.5,33,23.5z"/>
	</g>
	<g>
		<path class="st0" d="M30.75,40.463c-0.965,0-1.75-0.785-1.75-1.75v-2.75c0-0.276,0.224-0.5,0.5-0.5s0.5,0.224,0.5,0.5v2.75
			c0,0.413,0.336,0.75,0.75,0.75s0.75-0.337,0.75-0.75v-1.5c0-0.965,0.785-1.75,1.75-1.75S35,36.248,35,37.213v2.25
			c0,0.276-0.224,0.5-0.5,0.5s-0.5-0.224-0.5-0.5v-2.25c0-0.413-0.337-0.75-0.75-0.75c-0.414,0-0.75,0.337-0.75,0.75v1.5
			C32.5,39.678,31.715,40.463,30.75,40.463z"/>
	</g>
	<g>
		<path class="st0" d="M36,38.463h-1.5c-0.276,0-0.5-0.224-0.5-0.5s0.224-0.5,0.5-0.5H36c0.276,0,0.5,0.224,0.5,0.5
			S36.276,38.463,36,38.463z"/>
	</g>
	<g>
		<path class="st0" d="M29.5,38.463H28c-0.276,0-0.5-0.224-0.5-0.5s0.224-0.5,0.5-0.5h1.5c0.276,0,0.5,0.224,0.5,0.5
			S29.776,38.463,29.5,38.463z"/>
	</g>
	<g>
		<path class="st0" d="M13.5,47.5c-0.276,0-0.5-0.224-0.5-0.5v-1c0-0.276,0.224-0.5,0.5-0.5S14,45.724,14,46v1
			C14,47.276,13.777,47.5,13.5,47.5z"/>
	</g>
	<g>
		<path class="st0" d="M13.5,59.5c-0.276,0-0.5-0.224-0.5-0.5V49c0-0.276,0.224-0.5,0.5-0.5S14,48.724,14,49v10
			C14,59.276,13.777,59.5,13.5,59.5z"/>
	</g>
	<g>
		<path class="st0" d="M50.5,59.5c-0.276,0-0.5-0.224-0.5-0.5v-1c0-0.276,0.224-0.5,0.5-0.5S51,57.724,51,58v1
			C51,59.276,50.776,59.5,50.5,59.5z"/>
	</g>
	<g>
		<path class="st0" d="M50.5,56.5c-0.276,0-0.5-0.224-0.5-0.5V46c0-0.276,0.224-0.5,0.5-0.5S51,45.724,51,46v10
			C51,56.276,50.776,56.5,50.5,56.5z"/>
	</g>
	<g>
		<path class="st0" d="M14,6h-4C9.724,6,9.5,5.776,9.5,5.5S9.724,5,10,5h4c0.276,0,0.5,0.224,0.5,0.5S14.277,6,14,6z"/>
	</g>
	<g>
		<path class="st0" d="M12,8c-0.276,0-0.5-0.224-0.5-0.5v-4C11.5,3.224,11.724,3,12,3s0.5,0.224,0.5,0.5v4C12.5,7.776,12.277,8,12,8
			z"/>
	</g>
	<g>
		<path class="st0" d="M9,12H5c-0.276,0-0.5-0.224-0.5-0.5S4.724,11,5,11h4c0.276,0,0.5,0.224,0.5,0.5S9.277,12,9,12z"/>
	</g>
	<g>
		<path class="st0" d="M7,14c-0.276,0-0.5-0.224-0.5-0.5v-4C6.5,9.224,6.724,9,7,9s0.5,0.224,0.5,0.5v4C7.5,13.776,7.277,14,7,14z"
			/>
	</g>
</g>
</svg>
